<?xml version="1.0" encoding="UTF-8" standalone="no"?>
<svg
   xmlns:dc="http://purl.org/dc/elements/1.1/"
   xmlns:cc="http://creativecommons.org/ns#"
   xmlns:rdf="http://www.w3.org/1999/02/22-rdf-syntax-ns#"
   xmlns:svg="http://www.w3.org/2000/svg"
   xmlns="http://www.w3.org/2000/svg"
   xmlns:sodipodi="http://sodipodi.sourceforge.net/DTD/sodipodi-0.dtd"
   xmlns:inkscape="http://www.inkscape.org/namespaces/inkscape"
   sodipodi:docname="wat8.svg"
   height="100%"
   width="100%"
   inkscape:version="0.48.4 r9939"
   version="1.1"
   id="svg2"
   viewBox="0 0 512 512"
   inkscape:export-filename="C:\Users\Chris\Documents\GitHub\bot-game\assets\forest_spirit.png"
   inkscape:export-xdpi="12.832031"
   inkscape:export-ydpi="12.832031">
  <sodipodi:namedview
     pagecolor="#ffffff"
     bordercolor="#666666"
     borderopacity="1"
     objecttolerance="10"
     gridtolerance="10"
     guidetolerance="10"
     inkscape:pageopacity="0"
     inkscape:pageshadow="2"
     inkscape:window-width="1185"
     inkscape:window-height="1030"
     id="namedview44"
     showgrid="false"
     inkscape:zoom="0.35595703"
     inkscape:cx="-353.80025"
     inkscape:cy="1154.4524"
     inkscape:window-x="100"
     inkscape:window-y="100"
     inkscape:window-maximized="0"
     inkscape:current-layer="svg2" />
  <metadata
     id="metadata48">
    <rdf:RDF>
      <cc:Work
         rdf:about="">
        <dc:format>image/svg+xml</dc:format>
        <dc:type
           rdf:resource="http://purl.org/dc/dcmitype/StillImage" />
        <dc:title></dc:title>
      </cc:Work>
    </rdf:RDF>
  </metadata>
  <defs
     id="defs46">
    <linearGradient
       id="linearGradient3926">
      <stop
         style="stop-color:#ffffff;stop-opacity:0;"
         offset="0"
         id="stop3928" />
      <stop
         id="stop3934"
         offset="0.5"
         style="stop-color:#ffffff;stop-opacity:0.49803922;" />
      <stop
         style="stop-color:#ffffff;stop-opacity:0;"
         offset="1"
         id="stop3930" />
    </linearGradient>
    <filter
       color-interpolation-filters="sRGB"
       inkscape:menu-tooltip="Increase or decrease lightness and contrast"
       inkscape:menu="Color"
       inkscape:label="Lightness-Contrast"
       height="1"
       width="1"
       y="0"
       x="0"
       id="filter3108">
      <feFlood
         flood-color="rgb(0,0,0)"
         flood-opacity="1"
         result="result1"
         id="feFlood3110" />
      <feBlend
         result="result2"
         mode="normal"
         in2="SourceGraphic"
         id="feBlend3112" />
      <feComposite
         result="result3"
         operator="arithmetic"
         k2="1"
         in2="SourceGraphic"
         id="feComposite3114" />
      <feComposite
         operator="in"
         in2="SourceGraphic"
         id="feComposite3116" />
    </filter>
    <filter
       color-interpolation-filters="sRGB"
       height="1"
       width="1"
       y="0"
       x="0"
       inkscape:menu-tooltip="Oversaturate colors which can be fluorescent in real world"
       inkscape:menu="Color"
       inkscape:label="Fluorescence"
       id="filter7264">
      <feColorMatrix
         values="0"
         type="hueRotate"
         id="feColorMatrix7266" />
      <feColorMatrix
         values="1"
         type="saturate"
         id="feColorMatrix7268" />
      <feColorMatrix
         values="2 -1 0 0 0 0 2 -1 0 0 -1 0 2 0 0 0 0 0 1 0 "
         type="matrix"
         id="feColorMatrix7270" />
    </filter>
    <filter
       color-interpolation-filters="sRGB"
       height="1"
       width="1"
       y="0"
       x="0"
       inkscape:menu-tooltip="Oversaturate colors which can be fluorescent in real world"
       inkscape:menu="Color"
       inkscape:label="Fluorescence"
       id="filter7746">
      <feColorMatrix
         values="0"
         type="hueRotate"
         id="feColorMatrix7748" />
      <feColorMatrix
         values="1"
         type="saturate"
         id="feColorMatrix7750" />
      <feColorMatrix
         values="2 -1 0 0 0 0 2 -1 0 0 -1 0 2 0 0 0 0 0 1 0 "
         type="matrix"
         id="feColorMatrix7752" />
    </filter>
    <filter
       color-interpolation-filters="sRGB"
       height="1"
       width="1"
       y="0"
       x="0"
       inkscape:menu-tooltip="Oversaturate colors which can be fluorescent in real world"
       inkscape:menu="Color"
       inkscape:label="Fluorescence"
       id="filter11635">
      <feColorMatrix
         values="0"
         type="hueRotate"
         id="feColorMatrix11637" />
      <feColorMatrix
         values="1"
         type="saturate"
         id="feColorMatrix11639" />
      <feColorMatrix
         values="2 -1 0 0 0 0 2 -1 0 0 -1 0 2 0 0 0 0 0 1 0 "
         type="matrix"
         id="feColorMatrix11641" />
    </filter>
  </defs>
  <rect
     y="-3.1355259"
     x="1.7468045"
     height="524.13165"
     width="516.97894"
     id="rect3171"
     style="opacity:0.98999999;fill:#0a0000;fill-opacity:1;fill-rule:nonzero;stroke:none" />
  <rect
     style="opacity:0.98999999;fill:#ffffff;fill-opacity:1;fill-rule:nonzero;stroke:none"
     id="rect3156"
     width="76.367531"
     height="57.982758"
     x="-94.752312"
     y="319.66696" />
  <g
     id="g12345"
     transform="matrix(1.6682893,0,0,2.4764662,-204.10188,-324.89516)">
    <g
       transform="translate(67.423868,369.42662)"
       id="g12325">
      <path
         sodipodi:nodetypes="ccssscssccccssssssssssssssssssssssssscsssssssssssscccccscccssssscsscscsccccccc"
         inkscape:connector-curvature="0"
         id="path12343"
         d="m 100.82828,-73.13585 2.94101,-2.10705 -5.122194,-2.59561 c -5.858838,-2.9689 -12.235276,-9.7361 -15.573546,-16.52793 -1.821543,-3.70599 -2.321908,-6.50846 -2.439343,-13.66235 l -0.147739,-9 0.661547,9 c 1.43582,19.53356 12.136833,30.56451 31.467065,32.43726 7.32946,0.71009 7.59882,0.8046 2.65652,0.93205 47.16592,2.17405 185.98654,22.304083 214.67392,-39.18525 0.64566,-1.75123 1.19828,-2.50906 1.22804,-1.68406 -151.99929,-90.11466 -166.71111,37.047355 -230.34528,42.39294 z m 230.60121,-46.39294 c 0,-1.375 0.22698,-1.9375 0.50439,-1.25 0.27741,0.6875 0.27741,1.8125 0,2.5 -0.27741,0.6875 -0.50439,0.125 -0.50439,-1.25 z m -249.113691,-1.57856 c -0.0946,-2.30869 6.399934,-10.63093 10.49482,-13.44828 7.820951,-5.38096 7.807721,-5.37917 43.960981,-5.95324 18.7,-0.29694 34.9,-0.93913 36,-1.42708 1.683,-0.74658 1.79426,-0.66575 0.70192,0.50998 -1.0442,1.12392 -7.98728,1.49497 -35.5,1.89718 -32.24778,0.47143 -34.46602,0.62212 -38.824322,2.63733 -5.771154,2.66849 -12.420643,8.59912 -14.900141,13.28933 -1.038984,1.96534 -1.90895,3.08799 -1.933258,2.49478 z m 250.187801,-4.42144 c 0,-1.925 0.2058,-2.7125 0.45733,-1.75 0.25152,0.9625 0.25152,2.5375 0,3.5 -0.25153,0.9625 -0.45733,0.175 -0.45733,-1.75 z m -1.116,-6.62788 c -0.36023,-6.60789 -6.33494,-14.52159 -15.70056,-20.79589 -3.34651,-2.24193 -13.95561,-9.36373 -23.57578,-15.82623 -10.4059,-6.99032 -18.47711,-11.75 -19.92504,-11.75 -1.40512,0 -11.09456,-5.50543 -22.92422,-13.02528 -25.3,-16.08263 -27.69623,-17.25961 -36.20495,-17.78321 -5.85978,-0.3606 -7.52599,-0.0335 -13.0886,2.56958 -7.03305,3.29116 -12.62465,8.29981 -15.63871,14.0083 -1.08336,2.05184 -1.98964,3.24526 -2.01394,2.65206 -0.0782,-1.90824 6.1002,-10.42981 9.37032,-12.92405 1.74343,-1.32977 5.78855,-3.61665 8.98917,-5.08194 10.39208,-4.75765 22.89037,-2.30531 36.09631,7.0826 1.65,1.17296 8.4,5.4711 15,9.55142 6.6,4.08032 13.5253,8.43841 15.38955,9.68464 1.86425,1.24624 4.38755,2.26588 5.60733,2.26588 1.21978,0 6.39556,2.8125 11.50172,6.25 5.10616,3.4375 10.03679,6.7 10.95696,7.25 3.83133,2.29006 13.61811,9.0804 14.54444,10.09132 0.55,0.60023 3.03131,2.24447 5.51402,3.65386 9.17429,5.2081 18.06055,17.19547 16.67686,22.49673 -0.36701,1.40611 -0.4821,1.33208 -0.57488,-0.36979 z m -151.40251,-11.1081 c 2.86742,-0.2013 7.81742,-0.20315 11,-0.004 3.18258,0.19905 0.83651,0.36376 -5.21349,0.36602 -6.05,0.002 -8.65393,-0.16061 -5.78651,-0.36191 z m 24.69986,-0.99604 2.91335,-0.43235 -2.91335,-2.43736 -2.91335,-2.43737 3.75,2.11833 c 2.0625,1.16508 3.75,2.52387 3.75,3.01955 0,0.49567 -1.6875,0.8338 -3.75,0.75139 -3.2763,-0.13091 -3.38199,-0.20445 -0.83665,-0.58219 z m -11.16027,-10.19961 c -6.14336,-4.45023 -12.38321,-13.80222 -12.20097,-18.28625 0.0286,-0.70517 0.94224,1.03249 2.03018,3.86146 1.94177,5.04914 7.98066,12.34261 12.91771,15.60136 1.375,0.90759 2.23002,1.67376 1.90004,1.70261 -0.32998,0.0289 -2.42111,-1.26678 -4.64696,-2.87918 z m -12.96707,-25.56837 c 0.008,-2.75 0.20172,-3.75631 0.43157,-2.23625 0.22986,1.52006 0.22371,3.77006 -0.0136,5 -0.23741,1.22994 -0.42547,-0.0137 -0.41797,-2.76375 z m 0.79294,-8.91667 c -0.0434,-1.05416 0.19292,-1.64479 0.52522,-1.3125 0.33229,0.3323 0.36781,1.1948 0.0789,1.91667 -0.31922,0.79773 -0.55618,0.56078 -0.60416,-0.60417 z"
         style="fill:#e4f4fc" />
      <path
         sodipodi:nodetypes="cssscsssccsssccssssssssssssssscccsssccssssssssscsssssssssscssscsssssss"
         inkscape:connector-curvature="0"
         id="path12341"
         d="m 115.2716,-74.65944 c 4.9423,-0.12745 4.67294,-0.22196 -2.65652,-0.93205 -5.41686,-0.5248 -10.02639,-1.67481 -13.723508,-3.42383 -9.562936,-4.52399 -16.762317,-15.14871 -17.251307,-25.45916 l -0.26342,-5.55427 0.809701,5 c 1.34973,8.33474 4.870406,15.10314 10.561789,20.30474 7.938045,7.25492 9.006875,7.45893 42.523265,8.1165 31.87567,0.62537 31.14352,0.83034 -10.55209,2.95415 -82.34241,10.416352 129.54585,6.916446 124.75473,-0.92256 -1.36078,-2.17895 -1.18487,-2.39191 6.54372,-7.92182 5.50145,-3.93636 9.81551,-9.96536 11.92953,-16.67179 1.26794,-4.02237 2.16651,-5.35926 3.60216,-5.35926 1.05204,0 5.71913,2.53264 10.37131,5.62809 -3.71149,31.703864 48.39865,4.885838 48.75653,-28.12809 0.005,-5.8451 -0.47329,-7.87825 -2.89874,-12.32319 -2.71015,-4.96669 -8.28379,-10.25788 -15.15766,-14.38955 -1.56722,-0.942 -6.23915,-4.092 -10.38207,-7 -16.03655,-11.25636 -27.05783,-17.96654 -28.5617,-17.38946 -1.97603,0.75828 -3.61477,-0.12669 -23.63019,-12.76106 -27.45104,-17.32796 -31.12884,-19.13968 -38.77553,-19.10114 -11.44114,0.0576 -21.69228,6.59301 -26.60976,16.9644 -1.30389,2.75 -2.3751,4.41957 -2.38047,3.71016 -0.0184,-2.42908 4.00275,-9.15601 7.65841,-12.81167 2.01004,-2.01004 6.52294,-4.99687 10.02867,-6.6374 5.56261,-2.60306 7.22882,-2.93018 13.0886,-2.56958 8.50872,0.5236 10.90495,1.70058 36.20495,17.78321 11.82966,7.51985 21.5191,13.02528 22.92422,13.02528 1.44793,0 9.51914,4.75968 19.92504,11.75 9.62017,6.4625 20.22927,13.5843 23.57578,15.82623 14.10361,9.44842 18.93396,20.70457 15.1774,35.36785 -7.15385,52.182125 -288.858238,41.747476 -215.59284,42.92527 z m 163.64347,-25.11935 c -2.79931,-2.0625 -5.82896,-3.75 -6.73257,-3.75 -1.09425,0 -2.35779,1.96062 -3.78353,5.87082 -2.59012,7.10366 -6.69114,12.459 -12.94673,16.90656 -2.57435,1.8303 -4.68064,3.69572 -4.68064,4.14539 13.25048,10.176155 45.0134,-10.76021 28.14347,-23.17277 z m -197.411464,-14.75 c 0,-1.925 0.205795,-2.7125 0.457323,-1.75 0.251527,0.9625 0.251527,2.5375 0,3.5 -0.251528,0.9625 -0.457323,0.175 -0.457323,-1.75 z m 0.814558,-4.28984 c -0.124357,-2.10951 4.257076,-8.75175 8.008617,-12.14104 8.774733,-7.92745 9.218961,-8.00734 47.646739,-8.56912 25.46867,-0.37233 34.52061,-0.81918 35.45,-1.75 0.85943,-0.86075 4.37761,-1.19371 11.29808,-1.06923 l 10.05,0.18077 -10.10223,0.56923 c -5.55623,0.31308 -10.73123,1.07133 -11.5,1.685 -0.93205,0.74401 -12.65667,1.30899 -35.18923,1.69568 -32.91573,0.56487 -33.92645,0.64196 -39.000002,2.97439 -7.008282,3.22187 -11.315252,7.03891 -14.207417,12.59129 -1.324397,2.54258 -2.428948,4.26744 -2.454557,3.83303 z M 202.5216,-143.27034 c 3.7125,-0.19241 6.75,-0.69024 6.75,-1.1063 0,-0.41605 -4.03709,-3.35193 -8.97131,-6.52418 -14.01341,-9.00931 -19.16413,-17.29758 -18.88498,-30.3887 l 0.1437,-6.73927 0.71168,8.13554 c 1.22435,13.99617 5.16308,19.59655 20.89129,29.70478 10.58932,6.80556 10.49203,7.61343 -0.89038,7.39353 l -6.5,-0.12557 z m 20.53931,-48.62175 c -1.78209,-1.35395 -3.78931,-5.70983 -3.78931,-8.22324 0,-0.80098 1.10657,-1.96052 2.45904,-2.57675 1.96918,-0.89722 2.9652,-0.78876 5,0.54449 2.90574,1.90392 3.20262,4.43862 1.01528,8.66846 -1.6996,3.28666 -2.21716,3.46198 -4.68501,1.58704 z"
         style="fill:#d8edfb" />
      <path
         sodipodi:nodetypes="ssssssscsssssssssssssssssssssssssssssssscssccsssssscssscsssssssssscssssssssssssscsssscssssssssssssssssssscssssssssscsccscccsssssssssccccccccccsssssscssssssssssssssss"
         inkscape:connector-curvature="0"
         id="path12339"
         d="m 103.55178,-69.776122 c -4.537502,-0.16045 -8.250002,-0.71196 -8.250002,-1.22559 0,-0.51363 1.32766,-1.62044 2.95034,-2.45956 3.710912,-1.91898 26.815302,-3.378413 19.785712,-2.823946 -4.70387,0.371023 102.32332,7.631648 118.23377,4.806748 9.27512,-1.6468 10.0126,-1.95327 11.00942,-4.57509 0.49216,-1.29449 1.92889,-2.88652 3.19271,-3.53784 l 2.29787,-1.18421 -2.23998,2.15303 c -1.87945,1.8065 -2.04649,2.46284 -1.03785,4.07793 0.66117,1.0587 0.96503,2.16199 0.67526,2.45176 -1.47985,1.47985 -18.42713,3.71283 -34.39743,4.53222 -16.15282,0.82875 -91.1841,-1.471662 -112.21982,-2.215452 z m 9.46982,-3.458398 c 1.2375,-0.23836 3.2625,-0.23836 4.5,0 1.2375,0.23835 0.225,0.43337 -2.25,0.43337 -2.475,0 -3.4875,-0.19502 -2.25,-0.43337 z m 19.5,-1.01052 c 1.5125,-0.22913 3.9875,-0.22913 5.5,0 1.5125,0.22912 0.275,0.41659 -2.75,0.41659 -3.025,0 -4.2625,-0.18747 -2.75,-0.41659 z m 26.75,-1.31935 c 9.73543,-1.09431 15,-1.08181 15,0.0356 0,0.61411 -4.14834,0.94116 -10.75,0.84751 -10.17442,-0.14432 -10.40198,-0.1916 -4.25,-0.88311 z m -39.25,-1.71091 c 6.1875,-0.17544 16.3125,-0.17544 22.5,0 6.1875,0.17545 1.125,0.319 -11.25,0.319 -12.375,0 -17.4375,-0.14355 -11.25,-0.319 z m -22.242918,-3.24204 c -0.350339,-0.56686 0.05106,-0.7345 0.940983,-0.39301 1.732415,0.66479 2.049385,1.38156 0.610955,1.38156 -0.517541,0 -1.215913,-0.44485 -1.551938,-0.98855 z m 159.873158,-4.55369 c 4.15595,-4.22196 8.75429,-12.06175 10.97282,-18.70776 0.35048,-1.04994 1.4968,-1.69552 2.86556,-1.61382 2.11273,0.12612 2.12745,0.1666 0.199,0.54759 -1.51519,0.29935 -2.54893,1.8915 -3.79533,5.84551 -1.94892,6.1827 -6.49593,12.56879 -11.62229,16.32304 -2.84803,2.08573 -2.59092,1.63968 1.38024,-2.39456 z m 22.642,1.1694 c 0.0271,-1.37456 2.76631,-4.70151 5.47776,-6.65315 1.9794,-1.42472 1.98038,-1.41655 0.095,0.79322 l -1.90498,2.23277 4.40499,-0.0617 c 2.42275,-0.0339 7.32999,-0.61746 10.90499,-1.29676 5.45595,-1.03671 6.55097,-1.58625 6.81732,-3.42132 0.21535,-1.48367 1.73684,-2.81415 4.73456,-4.14018 5.45979,-2.41513 13.80603,-10.60758 15.89141,-15.59859 2.99142,-7.15949 3.80775,-16.10612 2.02815,-22.22774 -1.83577,-6.31483 -9.204,-14.54618 -16.22896,-18.13005 -2.25873,-1.15231 -4.41478,-2.59347 -4.79122,-3.20257 -0.37645,-0.60909 -5.69448,-4.36772 -11.81785,-8.35249 -18.85909,-12.27252 -19.32021,-12.45018 -17.70599,-6.82171 0.9582,3.34105 -0.0146,9.44831 -1.85904,11.67068 -2.88272,3.47346 -12.43034,1.33148 -15.87508,-3.56153 -0.71869,-1.0208 -2.20268,-1.85604 -3.29775,-1.85604 -1.09508,0 -2.98206,-1.05117 -4.1933,-2.33593 -1.21124,-1.28476 -3.7217,-2.8562 -5.57881,-3.4921 -1.85711,-0.63589 -5.57637,-2.50973 -8.26503,-4.16407 -2.68865,-1.65434 -5.29523,-3.0079 -5.79239,-3.0079 -1.79782,0 -7.08304,-3.53672 -7.57948,-5.07198 -0.27957,-0.86458 -2.20852,-2.52754 -4.28655,-3.69546 -4.57457,-2.57105 -15.25351,-13.50159 -17.57303,-17.98705 -0.92308,-1.78503 -1.91411,-3.24551 -2.2023,-3.24551 -1.16694,0 -7.08272,3.36881 -9.42466,5.36697 l -2.5,2.13303 2.34839,-2.66918 c 3.71894,-4.22695 11.62703,-7.23504 19.15161,-7.2849 7.64723,-0.0507 11.30238,1.7489 38.77553,19.09082 20.01542,12.63437 21.65416,13.51934 23.63019,12.76106 1.50387,-0.57708 12.52515,6.1331 28.5617,17.38946 4.14292,2.908 8.81485,6.058 10.38207,7 6.87387,4.13167 12.44751,9.42286 15.15766,14.38955 2.42545,4.44494 2.9037,6.47809 2.89874,12.32319 -0.0128,15.10124 -3.5378,20.64454 -20.88669,32.8458 -1.75266,1.23262 -1.8146,1.59334 -0.53775,3.13185 1.27447,1.53565 1.2207,1.90137 -0.46033,3.13056 -1.04686,0.76549 -2.91445,1.39179 -4.1502,1.39179 -1.23575,0 -5.08724,0.63072 -8.55887,1.4016 -9.29614,2.06423 -15.81634,2.57031 -15.78981,1.22556 z m -52.54792,-109.5775 c 2.18734,-4.22984 1.89046,-6.76454 -1.01528,-8.66846 -2.0348,-1.33325 -3.03082,-1.44171 -5,-0.54449 -2.69692,1.2288 -2.99147,2.63268 -1.41973,6.7667 0.98384,2.58768 3.60065,5.29522 5.18501,5.36479 0.39838,0.0175 1.41088,-1.29585 2.25,-2.91854 z M 88.144048,-89.27879 c -1.243871,-1.58606 -1.208501,-1.62143 0.377555,-0.37756 0.9625,0.75485 1.75,1.54235 1.75,1.75 0,0.82304 -0.821186,0.29331 -2.127555,-1.37244 z m 201.063562,-3.18929 c 1.1258,-0.71237 0.63975,-1.37847 -2.25,-3.08346 -4.55492,-2.68747 -4.84991,-3.61975 -0.43601,-1.37795 5.11958,2.60022 6.08874,3.56933 4.54733,4.54712 -0.71353,0.45262 -1.74733,0.82295 -2.29733,0.82295 -0.55,0 -0.3538,-0.40889 0.43601,-0.90866 z M 84.895142,-95.06745 c -0.964979,-2.51469 -0.680311,-3.16355 0.498534,-1.13634 0.58369,1.00375 0.850598,2.03566 0.593129,2.29313 -0.257468,0.25747 -0.748717,-0.26309 -1.091663,-1.15679 z m 192.248898,-7.21134 c -1.24387,-1.58606 -1.2085,-1.62143 0.37756,-0.37756 1.66575,1.30637 2.19548,2.12756 1.37244,2.12756 -0.20765,0 -0.99515,-0.7875 -1.75,-1.75 z M 112.5192,-120.29738 c -1.23882,-0.20413 -3.48882,-2.01235 -5,-4.01828 -1.51118,-2.00593 -3.5351,-4.44949 -4.4976,-5.43014 -0.9625,-0.98064 -1.75,-2.45799 -1.75,-3.28299 0,-1.90293 -1.333254,-1.89615 -5.049657,0.0257 -1.622687,0.83912 -2.95034,1.26423 -2.95034,0.94468 0,-0.31956 2.456341,-1.70556 5.458535,-3.08001 5.382912,-2.46437 5.926712,-2.50703 39.250002,-3.0789 19.80984,-0.33996 34.30866,-0.98879 35.04146,-1.56812 0.83589,-0.66083 1.25,-0.63592 1.25,0.0752 0,0.58488 -0.49041,1.36652 -1.08981,1.73696 -0.62543,0.38654 -0.84719,2.00959 -0.52044,3.80902 0.31316,1.72451 -0.0137,5.38548 -0.72641,8.13548 l -1.29578,5 -26.93378,0.0247 c -14.81358,0.0136 -27.38378,0.26167 -27.93378,0.55128 -0.55,0.2896 -2.01358,0.35953 -3.2524,0.1554 z m 135.77593,-1.70306 c -2.12599,-2.56166 -2.97475,-8.32394 -1.41657,-9.61712 2.22259,-1.84459 6.39304,1.43671 6.39304,5.03004 0,5.68919 -2.30132,7.81044 -4.97647,4.58708 z m -162.023527,-3.65417 c 0,-0.275 1.35,-1.79338 3,-3.37418 1.65,-1.5808 3,-2.64918 3,-2.37418 0,0.275 -1.35,1.79338 -3,3.37418 -1.65,1.5808 -3,2.64918 -3,2.37418 z m 92.719827,-15.60491 c 2.3209,-0.20972 6.3709,-0.21222 9,-0.005 2.62909,0.20668 0.73017,0.37827 -4.21983,0.38132 -4.95,0.003 -7.10108,-0.16606 -4.78017,-0.37578 z m 18.00787,-0.991 c 1.77523,-0.22091 4.92523,-0.22454 7,-0.008 2.07476,0.21647 0.6223,0.39722 -3.2277,0.40166 -3.85,0.004 -5.54754,-0.17268 -3.7723,-0.3936 z m 12.2723,-0.66164 c 0,-0.21085 0.9,-0.61872 2,-0.90638 1.1,-0.28765 2,-0.11514 2,0.38337 0,0.49851 -0.9,0.90638 -2,0.90638 -1.1,0 -2,-0.17252 -2,-0.38337 z m -15.59501,-13.86663 -1.90499,-2.25 2.25,1.90499 c 1.2375,1.04774 2.25,2.06024 2.25,2.25 0,0.80025 -0.80479,0.20946 -2.59501,-1.90499 z m -5.53255,-5.5 c -1.24387,-1.58606 -1.2085,-1.62143 0.37756,-0.37755 1.66575,1.30636 2.19548,2.12755 1.37244,2.12755 -0.20765,0 -0.99515,-0.7875 -1.75,-1.75 z m -2.91828,-4.33565 c -0.61391,-1.1471 -0.92784,-2.274 -0.69762,-2.50422 0.23022,-0.23022 0.93203,0.70832 1.55958,2.08564 1.37807,3.02454 0.70709,3.35038 -0.86196,0.41858 z m 2.04584,-31.41435 c 0.68469,-0.825 1.46989,-1.5 1.74489,-1.5 0.275,0 -0.0602,0.675 -0.74489,1.5 -0.68469,0.825 -1.46989,1.5 -1.74489,1.5 -0.275,0 0.0602,-0.675 0.74489,-1.5 z"
         style="fill:#9ad6f3" />
      <path
         inkscape:connector-curvature="0"
         id="path12337"
         d="m 259.2716,-88.02879 c 0.68469,-0.825 1.46989,-1.5 1.74489,-1.5 0.275,0 -0.0602,0.675 -0.74489,1.5 -0.68469,0.825 -1.46989,1.5 -1.74489,1.5 -0.275,0 0.0602,-0.675 0.74489,-1.5 z m 5.27505,-8.47764 c 1.15665,-2.73771 2.28054,-4.80011 2.49753,-4.58311 0.47206,0.47206 -3.45433,9.56075 -4.13032,9.56075 -0.25861,0 0.47615,-2.23994 1.63279,-4.97764 z m -158.36458,-20.24348 c -2.15075,-2.35289 -3.91047,-4.59571 -3.91047,-4.98403 0,-0.38832 -1.13053,-2.37197 -2.512295,-4.40811 -2.380193,-3.50741 -2.42265,-3.80114 -0.807417,-5.58595 1.642742,-1.81522 1.743422,-1.81754 2.762302,-0.0638 0.58158,1.00105 1.95741,2.88 3.05741,4.17546 1.1,1.29545 2.9238,3.47477 4.05288,4.84294 1.95679,2.37115 2.47165,2.4704 11,2.12055 4.92092,-0.20187 18.36404,-0.36904 29.87362,-0.3715 l 20.9265,-0.004 1.30306,-5 c 0.71668,-2.75 1.04685,-6.41096 0.73369,-8.13548 -0.3242,-1.78537 -0.10473,-3.42264 0.5097,-3.80238 0.7499,-0.46346 0.9645,1.86579 0.70351,7.63548 -0.49648,10.9755 -2.00276,16.41216 -4.74591,17.12951 -1.17017,0.30601 -14.93201,0.59539 -30.58185,0.64306 l -28.45425,0.0867 -3.91048,-4.278 z m 221.77284,-2.77888 c 0.32725,-2.475 0.75739,-4.6875 0.95585,-4.91667 0.75225,-0.86863 0.18036,5.50681 -0.66529,7.41667 -0.59132,1.33546 -0.68786,0.50479 -0.29056,-2.5 z m -81.86745,-1.0418 c -1.47628,-1.11599 -3.17861,-3.52731 -3.78296,-5.3585 -0.92959,-2.8167 -1.74618,-3.46601 -5.30248,-4.21622 -5.75135,-1.21327 -6.07317,-3.65781 -0.83346,-6.33091 7.59253,-3.87342 14.13399,-2.33207 19.74648,4.65284 3.10994,3.87042 3.12059,3.92213 1,4.85335 -1.41813,0.62274 -2.31263,2.12559 -2.64344,4.44124 -0.40614,2.84298 -0.9693,3.54573 -3,3.74363 -1.375,0.134 -3.70786,-0.66944 -5.18414,-1.78543 z m 6.57715,-1.53999 c 1.39227,-3.62818 0.60339,-7.37446 -1.89802,-9.01345 -3.59706,-2.35688 -5.54341,-0.55333 -4.48194,4.15311 1.29862,5.75788 4.96402,8.55024 6.37996,4.86034 z m 76.80194,-5.91821 c -0.0204,-1.65 0.18706,-2.44606 0.46099,-1.76903 0.27392,0.67703 0.29059,2.02703 0.0371,3 -0.25354,0.97297 -0.47766,0.41903 -0.49804,-1.23097 z m -108.5098,-0.85778 c -2.18622,-3.33659 -2.12484,-4.36789 0.3059,-5.13938 3.82991,-1.21557 5.39495,2.21943 2.6941,5.91307 -1.23724,1.69201 -1.41434,1.64634 -3,-0.77369 z m 105.51852,-8.6877 c -0.67134,-1.07498 -1.80761,-1.95452 -2.52505,-1.95452 -0.71744,0 -2.62613,-1.41942 -4.24153,-3.15427 -2.03501,-2.18549 -2.38366,-2.95684 -1.13515,-2.51145 1.11276,0.39696 1.55865,0.24917 1.16584,-0.38641 -0.34985,-0.56607 -1.55146,-0.7387 -2.67025,-0.38361 -1.45814,0.4628 -1.89733,0.26194 -1.55097,-0.70932 0.26575,-0.74522 0.0215,-2.25494 -0.54278,-3.35494 -1.66618,-3.24804 7.38776,4.63915 10.72627,9.34401 1.61153,2.27107 2.71949,4.33978 2.46215,4.59713 -0.25735,0.25735 -1.01719,-0.41163 -1.68853,-1.48662 z m -133.4727,-3.61046 c 0.67703,-0.27392 2.02703,-0.29059 3,-0.037 0.97297,0.25355 0.41903,0.47767 -1.23097,0.49805 -1.65,0.0204 -2.44606,-0.18707 -1.76903,-0.46099 z m 14.26903,-0.73465 c 0,-0.21483 1.54343,-0.57078 3.42985,-0.79101 1.88642,-0.22023 3.20987,-0.0445 2.94099,0.39059 -0.48392,0.78299 -6.37084,1.153 -6.37084,0.40042 z m 56.25,-2.35479 c -1.7875,-0.88961 -3.25,-1.95127 -3.25,-2.35925 0,-1.39968 -13.9799,-10.0347 -25.23732,-15.58842 -14.74274,-7.27317 -16.76268,-8.74814 -16.76268,-12.24019 0,-3.14164 -1.78458,-5.73335 -10.30532,-14.96623 -6.18205,-6.69873 -9.68463,-11.71634 -9.69094,-13.88275 -0.002,-0.70523 1.00628,-1.65586 2.24076,-2.11252 1.87313,-0.69292 2.55033,-0.31531 4.0929,2.28222 2.70498,4.55491 12.58144,14.40078 16.90171,16.84937 2.05652,1.16556 3.96786,2.82659 4.24743,3.69117 0.49644,1.53526 5.78166,5.07198 7.57948,5.07198 0.49716,0 3.10374,1.35356 5.79239,3.0079 2.68866,1.65434 6.40792,3.52818 8.26503,4.16407 1.85711,0.6359 4.36757,2.20734 5.57881,3.4921 1.21124,1.28476 3.09822,2.33593 4.1933,2.33593 1.09507,0 2.57906,0.83524 3.29775,1.85608 0.71868,1.02084 3.11718,2.77794 5.32999,3.90466 4.80264,2.44542 8.95654,1.96278 11.08664,-1.28817 1.64403,-2.50911 2.15233,-8.73041 0.99863,-12.22257 -0.4376,-1.32457 -0.33379,-2.25 0.25238,-2.25 1.28144,0 13.00154,6.96847 13.74599,8.17302 0.3108,0.50289 -1.74614,-0.50778 -4.571,-2.24593 -2.82485,-1.73814 -5.41355,-2.8828 -5.75268,-2.54368 -0.33912,0.33913 -0.42908,0.75832 -0.19992,0.93154 0.22917,0.17322 3.44737,2.50502 7.15156,5.18178 3.70419,2.67675 6.554,5.04771 6.33291,5.26881 -0.2211,0.22109 -2.92304,-1.21071 -6.00431,-3.18178 -3.08128,-1.97107 -6.02624,-3.58376 -6.54436,-3.58376 -0.51812,0 -1.44648,1.9125 -2.06301,4.25 -2.13687,8.10164 -9.97963,20.04359 -12.92863,19.68605 -0.29012,-0.0352 -1.98999,-0.79182 -3.77749,-1.68143 z m 44.28634,-10.21446 c -0.9755,-1.07791 -4.64524,-3.83077 -8.15498,-6.11746 -3.50975,-2.28669 -6.38136,-4.35632 -6.38136,-4.59917 0,-0.53957 1.2006,0.14982 7,4.0194 5.53947,3.69615 11.37871,8.65707 10.18978,8.65707 -0.48389,0 -1.67794,-0.88193 -2.65344,-1.95984 z"
         style="fill:#70c5f0" />
      <path
         inkscape:connector-curvature="0"
         id="path12335"
         d="m 141.2716,-69.5091 c -28.90616,-0.41157 -36.06901,-0.76721 -34.42842,-1.70939 2.36663,-1.35914 34.09627,-3.29403 54.17842,-3.30383 8.16235,-0.004 13.25,-0.39044 13.25,-1.00647 0,-0.5576 -2.98619,-1.04614 -6.75,-1.10428 -3.7125,-0.0574 -19.575,-0.39599 -35.25,-0.7525 l -28.5,-0.64822 -5.323547,-2.94646 c -6.619856,-3.66393 -10.474545,-8.44563 -13.685749,-16.97701 -2.835204,-7.53245 -3.301486,-16.69529 -1.115797,-21.92638 2.6923,-6.44358 12.067166,-14.64515 16.740243,-14.64515 2.09518,0 -1.878251,3.55655 -4.165955,3.72887 -5.448867,0.41045 -11.86372,8.33321 -12.691182,15.67442 -0.580965,5.15431 2.570929,16.79449 6.284615,23.20956 1.309511,2.26206 3.966788,5.50525 5.905059,7.20707 5.971113,5.2427 11.238033,6.16521 35.983813,6.30262 12.13768,0.0674 26.7935,0.40489 32.5685,0.75 9.8353,0.58774 10.51984,0.7669 10.81336,2.83018 0.17234,1.2115 1.27347,2.50745 2.44696,2.8799 3.22176,1.02255 42.81412,-0.52245 54.49299,-2.12646 5.63931,-0.77452 11.55659,-2.08218 13.1495,-2.9059 2.75466,-1.42449 2.87057,-1.39968 2.37178,0.50769 -0.69026,2.63959 -2.47362,3.47156 -10.27459,4.7933 -12.95288,2.19463 -44.35005,2.90383 -96,2.16844 z m 109,-10.3695 c 0,-0.23109 1.18041,-1.1936 2.62312,-2.13891 1.44272,-0.9453 2.31766,-1.22448 1.94431,-0.62038 -0.71346,1.15439 -4.56743,3.48267 -4.56743,2.75929 z m 35.41861,-9.56025 c 0.95072,-1.05054 2.86018,-2.19408 4.24324,-2.5412 2.20228,-0.55274 2.34841,-0.84126 1.1764,-2.32268 -1.22794,-1.55211 -1.11448,-1.54871 1.37657,0.0412 3.06,1.95305 8.90548,2.27391 11.93068,0.65487 1.7707,-0.94765 1.97417,-0.80228 1.68425,1.20325 -0.28194,1.95039 -1.27214,2.46018 -6.82975,3.5162 -3.575,0.6793 -8.48224,1.26284 -10.90499,1.29676 -4.27376,0.0598 -4.35349,0.005 -2.6764,-1.8484 z m -6.11285,-11.66289 -2.80576,-2.57296 3.25,2.26101 c 1.7875,1.24356 3.25,2.40139 3.25,2.57296 0,0.78934 -1.10612,0.11236 -3.69424,-2.26101 z m 39.19424,-1.42705 c 0.99549,-1.1 2.03498,-2 2.30998,-2 0.275,0 -0.31449,0.9 -1.30998,2 -0.99549,1.1 -2.03498,2 -2.30998,2 -0.275,0 0.31449,-0.9 1.30998,-2 z m -51.5,-0.44098 c 0,-0.79254 0.40803,-1.69316 0.90674,-2.00138 0.49871,-0.30822 0.67122,0.34022 0.38337,1.44098 -0.61061,2.33499 -1.29011,2.63015 -1.29011,0.5604 z m -58.76335,-44.08559 c -2.88016,-1.93961 -5.23665,-3.73545 -5.23665,-3.99075 0,-0.67154 9.87284,5.50255 10.54933,6.59713 0.90224,1.45987 0.25072,1.14024 -5.31268,-2.60638 z m -12.33796,-8.45738 c -15.72015,-11.81189 -18.39469,-32.49441 -5.80028,-44.8543 2.93966,-2.88492 9.72463,-7.16175 11.36175,-7.16175 1.93969,0 -0.16181,1.78545 -3.921,3.33131 -5.49704,2.26049 -10.67797,7.84684 -13.05861,14.08044 -1.5889,4.16048 -1.65996,5.51002 -0.60046,11.40359 2.09534,11.65556 6.17165,18.01185 16.28276,25.39012 1.28543,0.93801 2.04483,1.72551 1.68756,1.75 -0.35727,0.0245 -3.03555,-1.74824 -5.95172,-3.93941 z"
         style="fill:#94b4cf" />
      <path
         inkscape:connector-curvature="0"
         id="path12333"
         d="m 240.43573,-76.37738 c 2.56527,-1.04111 6.04674,-2.87744 7.73661,-4.08073 4.79149,-3.41184 11.71272,-13.08853 12.53412,-17.52417 0.73595,-3.97419 3.87229,-11.00027 5.30585,-11.88626 0.42311,-0.2615 1.82939,0.38297 3.12507,1.43215 1.48213,1.20015 1.83137,1.9076 0.94172,1.9076 -0.82606,0 -2.74824,3.2631 -4.62247,7.84709 -2.17448,5.31834 -4.61654,9.26594 -7.5781,12.25 -5.24816,5.28803 -13.79737,10.49662 -18.60693,11.33624 -3.15493,0.55077 -3.04016,0.42438 1.16413,-1.28192 z M 104.2716,-82.14202 c -12.00591,-4.84179 -14.297774,-7.12607 -18.028107,-17.96847 l -1.989951,-5.7839 2.405885,2.26022 c 1.582728,1.48689 3.895285,2.35474 6.759031,2.5365 3.778035,0.23979 4.67121,-0.11371 6.760652,-2.67576 2.25512,-2.7652 2.31076,-3.11991 0.87897,-5.60371 -0.8407,-1.45841 -2.05352,-4.28474 -2.695156,-6.28073 -0.641636,-1.996 -2.049671,-4.42824 -3.128966,-5.40499 -2.38855,-2.16161 -2.552991,-6.73244 -0.322453,-8.96297 1.519869,-1.51987 1.809904,-1.36041 3.962496,2.17857 1.277429,2.10016 2.747609,4.71847 3.267079,5.81847 0.51946,1.1 2.52125,3.7003 4.44842,5.77844 l 3.50394,3.77844 28.45381,-0.0867 c 15.64959,-0.0477 29.41123,-0.33705 30.5814,-0.64306 2.75252,-0.7198 4.24972,-6.15956 4.75193,-17.2652 0.20987,-4.64093 0.86847,-8.73897 1.46355,-9.10676 0.59509,-0.36778 9.25348,-0.99125 19.24088,-1.38548 10.07226,-0.39758 18.72172,-1.18388 19.42274,-1.76568 0.83344,-0.69168 1.26385,-0.70307 1.26385,-0.0334 0,0.5585 -0.61352,1.25088 -1.36337,1.53863 -1.51742,0.58229 -33.12921,2.28896 -35.88663,1.93746 -0.9625,-0.12269 -1.75,0.19129 -1.75,0.69774 0,1.0087 0.85408,1.30244 9,3.09539 3.025,0.66581 7.49266,1.82924 9.92814,2.58539 4.94684,1.53586 16.15656,1.85145 17.62186,0.49611 0.5225,-0.48329 2.75,-1.1436 4.95,-1.46735 2.2,-0.32375 3.4375,-0.34083 2.75,-0.038 -1.73625,0.7649 -1.52776,2.46486 0.64968,5.29727 l 1.85521,2.41326 1.21245,-2.26549 c 0.66685,-1.24602 0.98228,-3.14569 0.70095,-4.22148 -0.37782,-1.44478 -0.0746,-1.86013 1.1601,-1.5892 0.91939,0.20174 5.04661,-1.15396 9.17161,-3.01266 6.92323,-3.11957 7.80761,-3.2896 11.5,-2.21098 6.8282,1.99466 11.56334,5.18914 13.08301,8.82622 1.92256,4.60133 1.83122,4.96657 -1.33301,5.33066 -2.06457,0.23755 -2.83619,0.93954 -3.09582,2.81642 -0.50792,3.67188 -2.00354,5 -5.6306,5 -3.28968,0 -6.16286,-2.04165 -10.02765,-7.12551 -1.99231,-2.62074 -10.74128,-6.29147 -12.00508,-5.03686 -0.36697,0.3643 -1.27958,2.12487 -2.02801,3.91237 -1.96352,4.68953 -5.64462,3.99848 -6.61744,-1.24229 -0.23477,-1.26472 -1.46095,-2.2258 -3.35761,-2.63169 -8.97598,-1.92088 -38.03005,0.35073 -39.43161,3.08297 -1.87187,3.64909 -3.41552,16.51921 -3.48321,29.041007 l -0.073,13.5 -5.5,0.698 c -7.39627,0.93866 -61.1071,1.95215 -63,1.18877 z m 150,-40.38677 c 0.33081,-2.31565 1.22531,-3.8185 2.64344,-4.44124 2.12059,-0.93122 2.10994,-0.98293 -1,-4.85335 -5.61249,-6.98491 -12.15395,-8.52626 -19.74648,-4.65284 -5.23971,2.6731 -4.91789,5.11764 0.83346,6.33091 3.5563,0.75021 4.37289,1.39952 5.30248,4.21622 1.3461,4.07871 5.60486,7.47159 8.9671,7.14393 2.0307,-0.1979 2.59386,-0.90065 3,-3.74363 z m 45,29.36412 c 12.70595,-4.04888 20.79481,-12.35108 25.71967,-26.39803 1.80418,-5.14597 3.28033,-10.18779 3.28033,-11.20404 0,-2.19139 -8.31552,-11.35673 -12.06099,-13.29359 -1.44317,-0.74629 -5.92363,-4.05299 -9.95658,-7.34822 -4.03295,-3.29522 -8.39095,-6.25694 -9.68445,-6.58159 -1.2935,-0.32465 -4.59927,-1.97313 -7.34614,-3.6633 -4.90124,-3.01576 -7.95184,-3.24742 -7.95184,-0.60384 0,0.73386 -1.73701,4.91048 -3.86003,9.28139 -2.72759,5.61562 -5.4971,9.48732 -9.44014,13.1971 -3.06906,2.8875 -6.02034,5.25 -6.55841,5.25 -0.53807,0 -1.9849,-1.6875 -3.21518,-3.75 -6.43311,-10.78476 -19.02841,-18.33093 -38.69465,-23.18297 -13.45518,-3.31965 -18.02445,-5.07567 -20.5933,-7.91423 -1.78385,-1.97113 -1.7374,-2.06514 2.2703,-4.59509 4.6584,-2.94072 4.80379,-3.38235 2.20227,-6.68964 -1.03903,-1.32091 -2.61309,-3.9691 -3.49791,-5.88486 -0.88483,-1.91577 -2.47683,-4.83321 -3.53778,-6.48321 -1.06094,-1.65 -1.96188,-4.26406 -2.00208,-5.80902 -0.0417,-1.60374 -0.50216,-2.54383 -1.07309,-2.19098 -0.55,0.33992 -1,0.37803 -1,0.0847 0,-0.29333 1.27032,-1.19024 2.82294,-1.99313 2.76297,-1.42879 2.84783,-1.39095 3.99498,1.78145 0.64463,1.78268 4.22886,6.59054 7.96495,10.68411 9.57904,10.4956 11.21713,12.83356 11.21713,16.00963 0,3.49205 2.01994,4.96702 16.76268,12.24019 11.24417,5.54719 25.23732,14.18828 25.23732,15.58463 0,0.4059 1.62715,1.51393 3.61588,2.46229 3.26687,1.55786 3.84051,1.57711 5.9431,0.19944 2.82769,-1.85277 8.85837,-12.46928 10.39714,-18.30331 0.61653,-2.3375 1.56327,-4.25 2.10386,-4.25 0.5406,0 2.7824,1.19085 4.98179,2.64634 6.19463,4.09941 5.80714,2.03035 -0.43117,-2.30233 -5.16686,-3.58852 -6.73984,-5.34401 -4.78843,-5.34401 1.29208,0 24.51937,15.44094 26.05027,17.3176 0.75485,0.92532 1.99235,1.6824 2.75,1.6824 2.228,0 5.40167,3.77359 4.70361,5.59272 -0.49702,1.2952 -0.19591,1.50075 1.43852,0.982 1.13691,-0.36084 2.35336,-0.19292 2.70321,0.37315 0.39281,0.63558 -0.0531,0.78337 -1.16584,0.38641 -1.24851,-0.44539 -0.89986,0.32596 1.13515,2.51145 1.6154,1.73485 3.53452,3.15427 4.2647,3.15427 0.73018,0 2.2505,1.4625 3.37847,3.25 1.71831,2.72299 1.96149,4.30728 1.4997,9.77004 -0.94447,11.17246 -3.12251,16.6543 -8.91261,22.43185 -5.3067,5.2952 -16.36013,11.60955 -20.07707,11.46916 -1.35653,-0.0512 -1.56374,-0.24673 -0.59028,-0.55693 z m -4.5,-67.36412 c -0.33992,-0.55 -1.06803,-1 -1.61803,-1 -0.55,0 -0.72189,0.45 -0.38197,1 0.33992,0.55 1.06803,1 1.61803,1 0.55,0 0.72189,-0.45 0.38197,-1 z m -101.82707,1.05974 c -3.43538,-3.80256 -6.70844,-9.10681 -6.63966,-10.76008 0.0575,-1.38129 3.96673,3.85005 3.96673,5.30824 0,0.76249 1.62736,3.18764 3.61636,5.38922 1.989,2.20158 3.39136,4.00288 3.11636,4.00288 -0.275,0 -2.1019,-1.77312 -4.05979,-3.94026 z"
         style="fill:#5dadd7" />
      <path
         inkscape:connector-curvature="0"
         id="path12331"
         d="m 176.5216,-72.19107 c -0.6875,-0.27741 -1.25,-1.52212 -1.25,-2.76602 0,-2.20648 -0.33308,-2.27761 -13.65811,-2.91667 -7.51196,-0.36027 -22.28029,-0.65503 -32.8185,-0.65503 -21.10659,0 -27.31953,-1.07896 -32.257007,-5.60184 -3.016617,-2.76332 -2.73228,-2.74973 3.23362,0.15457 3.702847,1.80261 6.080067,1.93412 31.999997,1.77029 15.4,-0.0973 30.925,-0.54734 34.5,-1 l 6.5,-0.82302 0.61887,-8.5 c 0.58613,-8.05027 0.60569,-7.93059 0.36968,2.26181 l -0.2492,10.7618 3.13033,2.63728 3.13032,2.63728 20,-0.66579 c 21.51528,-0.71622 41.89282,-2.77181 45.66403,-4.60635 2.25514,-1.09704 2.26726,-1.08142 0.3502,0.45145 -4.42917,3.54153 -14.618,5.5922 -32.51423,6.54403 -18.75764,0.99764 -34.72083,1.135 -36.75,0.31621 z M 288.11972,-96.8967 c -4.20853,-2.27265 -8.48353,-4.86327 -9.5,-5.75693 -1.01646,-0.89366 -3.19812,-2.33815 -4.84812,-3.20996 -1.65,-0.87182 -2.50727,-1.60314 -1.90504,-1.62516 0.60223,-0.022 3.97723,1.841 7.5,4.14006 13.40343,8.74744 19.54929,9.99009 28.1152,5.6847 2.04059,-1.02564 4.06559,-1.84316 4.5,-1.8167 1.63217,0.0994 -10.33656,5.72629 -13.21016,6.21053 -2.24423,0.37818 -4.92768,-0.53543 -10.65188,-3.62654 z m -201.348117,-6.80006 c -2.751635,-2.44709 -3,-3.20576 -3,-9.16386 0,-5.61061 0.408849,-7.07259 3,-10.72758 1.65,-2.32743 3.990774,-4.88166 5.201721,-5.67606 2.151353,-1.41132 2.188549,-1.36319 1.625939,2.10376 -0.466498,2.87469 -0.07774,4.14002 2.04828,6.66664 1.443233,1.71519 2.62406,3.61692 2.62406,4.22607 0,0.60915 0.93796,3.04512 2.084357,5.41326 l 2.08436,4.3057 -2.33436,2.84328 c -3.166319,3.85662 -9.003334,3.86047 -13.334357,0.009 z m 89.499997,-34.77301 c 0,-0.58246 0.45,-1.05902 1,-1.05902 0.55,0 1,0.19844 1,0.44098 0,0.24254 -0.45,0.7191 -1,1.05902 -0.55,0.33992 -1,0.14148 -1,-0.44098 z m 38.68891,-4.42731 c -0.28878,-0.75257 -4.72443,-4.30441 -9.85698,-7.893 -10.45788,-7.31194 -12.91498,-9.68322 -15.27211,-14.73871 -0.89753,-1.925 -2.3138,-4.73455 -3.14727,-6.24344 -0.83347,-1.50889 -2.02389,-5.16771 -2.64539,-8.13071 -0.972,-4.63406 -0.87143,-6.06807 0.71934,-10.25656 1.01714,-2.67811 3.46127,-6.44429 5.43142,-8.36929 l 3.58208,-3.5 0.32605,2.84976 c 0.17933,1.56737 1.19388,4.26737 2.25455,6 1.06068,1.73263 2.65135,4.71768 3.53481,6.63345 0.88347,1.91576 2.45642,4.56395 3.49545,5.88486 2.60152,3.30729 2.45613,3.74892 -2.20227,6.68964 -3.9475,2.49194 -4.02999,2.65067 -2.34501,4.51254 0.96052,1.06136 1.25217,1.92975 0.64811,1.92975 -0.60405,0 -1.7701,-0.95916 -2.59121,-2.13146 -2.07718,-2.96559 -4.62048,-1.75698 -4.62048,2.19571 0,4.64553 2.92233,7.97179 14.0015,15.93683 5.49918,3.95347 9.9985,7.82055 9.9985,8.59352 0,1.78763 -0.63248,1.80553 -1.31109,0.0371 z m -15.68891,-35.00959 c 0,-0.75783 -0.70365,-3.06193 -1.56366,-5.12023 l -1.56365,-3.74236 -1.99596,2.14241 c -2.41607,2.59334 -3.43726,2.08562 -5.43847,-2.70395 -1.21035,-2.89677 -1.72813,-3.35419 -2.46954,-2.18162 -1.52526,2.41225 -1.10342,6.55175 0.84759,8.3174 1.80203,1.63081 8.53409,4.4605 10.93369,4.59577 0.6875,0.0388 1.25,-0.54958 1.25,-1.30742 z"
         style="fill:#5994b5" />
      <path
         inkscape:connector-curvature="0"
         id="path12329"
         d="m 241.09707,-79.55237 c -0.18765,-0.56296 -2.13765,-1.28942 -4.33333,-1.61434 -4.47429,-0.66212 -9.49214,-5.25312 -9.49214,-8.68468 0,-1.90145 -0.21233,-1.84816 -2.90151,0.72824 l -2.9015,2.77982 -2.3485,-3.19273 c -2.79736,-3.80295 -8.61319,-6.99273 -12.74963,-6.99273 -1.63946,0 -3.25894,-0.45 -3.59886,-1 -0.99398,-1.60829 -11.28133,-1.18938 -13.96441,0.56864 -1.33067,0.87189 -3.86904,1.4271 -5.71482,1.25 -2.93641,-0.28176 -3.35704,-0.69481 -3.63413,-3.56864 -0.29289,-3.03777 -0.11007,-3.25 2.79966,-3.25 1.71216,0 4.42283,0.67733 6.0237,1.50517 4.26424,2.20512 20.26336,1.79458 25.17215,-0.64593 4.65124,-2.31246 5.24094,-3.29329 3.2044,-5.32983 -1.4198,-1.4198 -4.03475,-1.58397 -20.12493,-1.26341 l -18.4931,0.36842 -0.98167,-2.81602 c -1.95294,-5.6022 -2.66347,-1.50071 -2.08463,12.03346 0.35257,8.24366 0.19956,14.50123 -0.37989,15.53665 -0.66234,1.18354 -0.82799,-0.97599 -0.52202,-6.80544 0.2465,-4.69652 -0.0551,-10.53798 -0.6703,-12.98102 -0.87988,-3.49432 -0.79444,-6.21892 0.4005,-12.77197 2.36862,-12.98954 1.56656,-12.21755 14.14676,-13.6164 18.93049,-2.10497 30.50976,-1.25272 31.16813,2.29403 0.97282,5.24077 4.65392,5.93182 6.61744,1.24229 0.74843,-1.7875 1.66104,-3.54807 2.02801,-3.91237 1.2638,-1.25461 10.01277,2.41612 12.00508,5.03686 3.86479,5.08386 6.73797,7.12551 10.02765,7.12551 3.62706,0 5.12268,-1.32812 5.6306,-5 0.25963,-1.87688 1.03125,-2.57887 3.09582,-2.81642 3.16423,-0.36409 3.25557,-0.72933 1.33301,-5.33066 -1.51967,-3.63708 -6.25481,-6.83156 -13.08301,-8.82621 -3.69538,-1.0795 -4.57116,-0.90982 -11.5,2.22815 -5.15002,2.33237 -8.28333,3.20126 -10,2.77309 -2.57416,-0.64205 -11.25201,0.89073 -12.58401,2.22273 -1.25804,1.25804 -12.78817,0.83465 -17.48785,-0.64217 -2.43548,-0.76531 -7.12814,-1.96276 -10.42814,-2.66099 -12.05286,-2.55021 -9.31834,-3.50099 13,-4.52006 8.25,-0.3767 19.95,-0.78272 26,-0.90226 6.05,-0.11954 13.80294,-0.56866 17.22875,-0.99804 5.17693,-0.64885 6.08415,-1.03908 5.37243,-2.31084 -1.18138,-2.11102 -18.29226,-8.98481 -25.60118,-10.28453 -9.47677,-1.68522 -16.0787,-3.83529 -20.04846,-6.52924 -2.01897,-1.37011 -4.63401,-2.35868 -5.8112,-2.19683 -1.81629,0.24973 -2.1874,-0.27469 -2.45118,-3.46376 -0.35994,-4.35148 2.02806,-6.19474 4.19182,-3.23561 1.7491,2.39203 8.8777,5.05426 22.85061,8.53374 19.70062,4.90576 32.2754,12.4484 38.69465,23.20991 1.23028,2.0625 2.67711,3.75 3.21518,3.75 0.53807,0 3.48935,-2.3625 6.55841,-5.25 3.94304,-3.70978 6.71255,-7.58148 9.44014,-13.1971 2.12302,-4.37091 3.86003,-8.54753 3.86003,-9.28139 0,-2.64358 3.0506,-2.41192 7.95184,0.60384 2.74687,1.69017 6.05264,3.33865 7.34614,3.6633 1.2935,0.32465 5.6515,3.28637 9.68445,6.58159 4.03295,3.29523 8.51341,6.60193 9.95658,7.34822 3.66294,1.89418 12.06099,11.08145 12.06099,13.19444 0,0.96172 -1.44904,5.99249 -3.22009,11.17949 -2.46838,7.22929 -4.25246,10.57914 -7.6424,14.34957 -4.16266,4.62987 -14.13751,10.92605 -14.13751,8.92366 0,-0.50494 -1.50778,-1.80768 -3.35063,-2.89499 -2.31595,-1.36644 -3.55046,-2.9761 -3.99776,-5.2126 -0.59983,-2.99913 -0.8849,-3.19797 -3.89938,-2.71977 -3.98458,0.63209 -9.17354,-2.49396 -10.85294,-6.53826 -0.88604,-2.13377 -1.81313,-2.75 -4.13724,-2.75 -2.50933,0 -2.90991,-0.32657 -2.46895,-2.0128 0.37365,-1.42886 -0.75297,-3.3865 -3.88337,-6.74785 -2.54763,-2.73558 -4.40973,-5.70093 -4.40973,-7.02239 0,-1.98391 -0.26757,-2.14413 -2.01708,-1.20782 -1.99774,1.06916 -1.99427,1.11026 0.36189,4.28519 3.26789,4.40347 4.65519,9.0159 4.65519,15.47734 0,4.63814 -0.21866,5.29175 -1.4331,4.28385 -1.15515,-0.95869 -1.76046,-0.68975 -3.12096,1.38664 -2.01004,3.06772 -4.34063,9.34187 -4.40205,11.85075 -0.14842,6.06286 -17.68433,21.28578 -19.21842,16.68351 z m -10.99317,-26.34412 c 0.19539,-1.01461 -0.14015,-2.34015 -0.74566,-2.94566 -1.52574,-1.52574 -4.57683,1.59356 -3.72641,3.80973 0.82156,2.14094 4.01207,1.52449 4.47207,-0.86407 z m -33.8323,3.3677 c 0,-0.55 0.675,-1 1.5,-1 0.825,0 1.5,0.45 1.5,1 0,0.55 -0.675,1 -1.5,1 -0.825,0 -1.5,-0.45 -1.5,-1 z m 0.45519,-75.85882 c 0.34058,-1.07308 -0.0536,-2.39296 -0.93261,-3.12244 -1.72732,-1.43355 -1.99458,-3.60899 -0.55284,-4.50004 0.97606,-0.60324 4.03026,5.53767 4.03026,8.10342 0,0.75784 -0.70532,1.37788 -1.56739,1.37788 -1.07263,0 -1.38116,-0.58675 -0.97742,-1.85882 z"
         style="fill:#0c99d8" />
      <path
         inkscape:connector-curvature="0"
         id="path12327"
         d="m 176.32111,-77.19325 c -3.02922,-2.7066 -3.20683,-3.17307 -2.039,-5.35519 0.95025,-1.77555 1.12779,-5.93201 0.69032,-16.16089 -0.57758,-13.50495 0.13422,-17.6 2.08602,-12.00106 l 0.98167,2.81602 18.4931,-0.36842 c 16.09018,-0.32056 18.70513,-0.15639 20.12493,1.26341 2.03654,2.03654 1.44684,3.01737 -3.2044,5.32983 -4.90879,2.44051 -20.90791,2.85105 -25.17215,0.64593 -1.60087,-0.82784 -4.31154,-1.50517 -6.0237,-1.50517 -2.90973,0 -3.09255,0.21223 -2.79966,3.25 0.27709,2.87383 0.69772,3.28688 3.63413,3.56864 1.84578,0.1771 4.38415,-0.37811 5.71482,-1.25 2.68308,-1.75802 12.97043,-2.17693 13.96441,-0.56864 0.33992,0.55 1.9594,1 3.59886,1 4.13644,0 9.95227,3.18978 12.74963,6.99273 l 2.3485,3.19273 2.9015,-2.77982 c 2.68918,-2.5764 2.90151,-2.62969 2.90151,-0.72824 0,3.38385 5.01821,8.02282 9.3739,8.66549 4.37701,0.64581 5.41382,1.29912 4.05943,2.55789 -1.45232,1.34979 -21.02126,3.11466 -41.99945,3.78782 l -19.06612,0.6118 -3.31825,-2.96486 z m 22.95049,-25.33554 c 0,-0.55 -0.675,-1 -1.5,-1 -0.825,0 -1.5,0.45 -1.5,1 0,0.55 0.675,1 1.5,1 0.825,0 1.5,-0.45 1.5,-1 z m 91.97584,5.70558 c -3.03829,-1.26431 -7.65577,-3.76532 -10.26105,-5.5578 -2.60529,-1.79249 -6.30692,-3.91507 -8.22584,-4.71684 -3.36739,-1.40699 -3.48895,-1.64374 -3.48895,-6.79514 0,-6.3312 -1.40519,-10.96211 -4.65519,-15.34147 -2.35616,-3.17493 -2.35963,-3.21603 -0.36189,-4.28519 1.74951,-0.93631 2.01708,-0.77609 2.01708,1.20782 0,1.32146 1.8621,4.28681 4.40973,7.02239 3.1304,3.36135 4.25702,5.31899 3.88337,6.74785 -0.44096,1.68623 -0.0404,2.0128 2.46895,2.0128 2.32411,0 3.2512,0.61623 4.13724,2.75 1.6794,4.0443 6.86836,7.17035 10.85294,6.53826 3.01448,-0.4782 3.29955,-0.27936 3.89938,2.71977 0.4473,2.2365 1.68181,3.84616 3.99776,5.2126 3.39964,2.00584 4.37564,3.76817 2.10063,3.79302 -0.6875,0.008 -2.15,0.23348 -3.25,0.50216 -1.1,0.26868 -4.48587,-0.54593 -7.52416,-1.81023 z m -65.61561,-8.20921 c -0.85042,-2.21617 2.20067,-5.33547 3.72641,-3.80973 1.55619,1.55619 0.72041,4.72684 -1.35115,5.12578 -0.95785,0.18447 -2.02671,-0.40776 -2.37526,-1.31605 z m -9.02206,-37.31119 c -0.30297,-1.15857 -4.4405,-4.89619 -9.19451,-8.30582 -10.58286,-7.59015 -13.14366,-9.84117 -13.14366,-11.55367 0,-2.0231 2.52315,-1.58901 6.51679,1.12114 3.88963,2.63957 10.46368,4.77547 19.98321,6.49252 7.23792,1.3055 23.49022,7.69393 25.29891,9.94445 1.14656,1.42664 0.7947,1.69322 -3,2.27285 -2.3644,0.36116 -9.16138,0.98928 -15.10439,1.39584 -10.45128,0.71495 -10.82354,0.67013 -11.35635,-1.36731 z m -25.31761,-36.30122 c -5.40253,-2.15554 -7.60629,-6.8303 -5.0923,-10.80212 0.6859,-1.08364 1.33912,-0.49393 2.76923,2.5 1.14964,2.40674 2.47117,3.81909 3.42589,3.66133 1.93961,-0.32049 5.30414,3.25606 4.41556,4.69382 -0.79053,1.27911 -2.21386,1.26544 -5.51838,-0.053 z"
         style="fill:#0a71b2" />
    </g>
  </g>
</svg>
