<?xml version="1.0" encoding="UTF-8" standalone="no"?>
<svg
   xmlns:dc="http://purl.org/dc/elements/1.1/"
   xmlns:cc="http://creativecommons.org/ns#"
   xmlns:rdf="http://www.w3.org/1999/02/22-rdf-syntax-ns#"
   xmlns:svg="http://www.w3.org/2000/svg"
   xmlns="http://www.w3.org/2000/svg"
   xmlns:sodipodi="http://sodipodi.sourceforge.net/DTD/sodipodi-0.dtd"
   xmlns:inkscape="http://www.inkscape.org/namespaces/inkscape"
   sodipodi:docname="mage boots.svg"
   height="100%"
   width="100%"
   inkscape:version="0.48.4 r9939"
   version="1.1"
   id="svg8438"
   viewBox="0 0 512 512">
  <metadata
     id="metadata8464">
    <rdf:RDF>
      <cc:Work
         rdf:about="">
        <dc:format>image/svg+xml</dc:format>
        <dc:type
           rdf:resource="http://purl.org/dc/dcmitype/StillImage" />
        <dc:title></dc:title>
      </cc:Work>
    </rdf:RDF>
  </metadata>
  <defs
     id="defs8462">
    <linearGradient
       id="linearGradient4077">
      <stop
         id="stop4079"
         offset="0"
         style="stop-color:#aa4400;stop-opacity:1;" />
      <stop
         style="stop-color:#ff9f00;stop-opacity:1;"
         offset="0.22752622"
         id="stop4081" />
      <stop
         style="stop-color:#803300;stop-opacity:1;"
         offset="0.4948855"
         id="stop4083" />
      <stop
         id="stop4085"
         offset="1"
         style="stop-color:#562200;stop-opacity:1;" />
    </linearGradient>
    <linearGradient
       id="linearGradient4057">
      <stop
         style="stop-color:#aa4400;stop-opacity:1;"
         offset="0"
         id="stop4059" />
      <stop
         id="stop4067"
         offset="0.22752622"
         style="stop-color:#ecd1a4;stop-opacity:1;" />
      <stop
         id="stop4065"
         offset="0.50136983"
         style="stop-color:#803300;stop-opacity:1;" />
      <stop
         style="stop-color:#562200;stop-opacity:1;"
         offset="1"
         id="stop4061" />
    </linearGradient>
    <linearGradient
       id="linearGradient3890">
      <stop
         style="stop-color:#701b1b;stop-opacity:1;"
         offset="0"
         id="stop3892" />
      <stop
         style="stop-color:#e31600;stop-opacity:1;"
         offset="1"
         id="stop3894" />
    </linearGradient>
    <linearGradient
       id="linearGradient3882">
      <stop
         style="stop-color:#600b0b;stop-opacity:1;"
         offset="0"
         id="stop3884" />
      <stop
         style="stop-color:#d11414;stop-opacity:1;"
         offset="1"
         id="stop3886" />
    </linearGradient>
    <linearGradient
       id="linearGradient3872">
      <stop
         style="stop-color:#800600;stop-opacity:1;"
         offset="0"
         id="stop3874" />
      <stop
         style="stop-color:#ff0004;stop-opacity:0;"
         offset="1"
         id="stop3876" />
    </linearGradient>
    <filter
       id="filter4074"
       inkscape:label="Black Light"
       inkscape:menu="Color"
       inkscape:menu-tooltip="Light areas turn to black"
       x="0"
       width="1"
       y="0"
       height="1"
       color-interpolation-filters="sRGB">
      <feColorMatrix
         id="feColorMatrix4076"
         type="luminanceToAlpha"
         result="result2" />
      <feComposite
         in2="SourceGraphic"
         id="feComposite4078"
         operator="arithmetic"
         in="result2"
         k3="2"
         result="result4" />
      <feBlend
         in2="result2"
         id="feBlend4080"
         in="result4"
         mode="multiply"
         result="result3" />
      <feComposite
         in2="SourceGraphic"
         id="feComposite4082"
         operator="in"
         in="result3" />
    </filter>
  </defs>
  <sodipodi:namedview
     pagecolor="#000000"
     bordercolor="#666666"
     borderopacity="1"
     objecttolerance="10"
     gridtolerance="10"
     guidetolerance="10"
     inkscape:pageopacity="0"
     inkscape:pageshadow="2"
     inkscape:window-width="1190"
     inkscape:window-height="1126"
     id="namedview8460"
     showgrid="false"
     inkscape:zoom="0.70710678"
     inkscape:cx="197.65584"
     inkscape:cy="237.5577"
     inkscape:window-x="160"
     inkscape:window-y="130"
     inkscape:window-maximized="0"
     inkscape:current-layer="svg8438"
     showguides="true"
     inkscape:guide-bbox="true" />
  <path
     style="fill:#000000"
     id="path3978"
     d="M -13.466093,0.1885736 H 514.89024 V 516.42957 H -13.466093 z"
     inkscape:connector-curvature="0" />
  <path
     sodipodi:type="arc"
     style="opacity:0.98999999;fill:#ff0000;fill-opacity:0.74970506;fill-rule:nonzero;stroke:none"
     id="path5005"
     sodipodi:cx="640"
     sodipodi:cy="124.5"
     sodipodi:rx="105"
     sodipodi:ry="118.5"
     d="m 743.4676,104.32865 a 105,118.5 0 0 1 0.002,0.0163 L 640,124.5 z"
     sodipodi:start="6.11213"
     sodipodi:end="6.1122693" />
  <g
     id="g6448" />
  <g
     id="g6583"
     transform="matrix(1.2028973,0,0,1.0477296,-40.116272,-3.6863061)">
    <path
       style="fill:#908ed7"
       d="m 202.79818,460.82813 c -12.86622,-2.6995 -23.80637,-8.28094 -42.61104,-21.73925 -10.53806,-7.54197 -19.47095,-12.55538 -22.37118,-12.55538 -5.38522,0 -30.64359,-13.23961 -35.32396,-18.51566 -5.511841,-6.21336 -5.043401,-31.01686 0.58579,-31.01686 0.94842,0 1.7244,-6.24959 1.7244,-13.88796 0,-7.63839 1.34681,-18.99753 2.9929,-25.24253 1.6461,-6.24503 5.04337,-21.33415 7.54949,-33.53142 3.93564,-19.15472 4.32027,-24.34702 2.82247,-38.10194 -4.1156,-37.79528 -7.9077,-68.75273 -10.76018,-87.84248 l -3.06018,-20.47979 -5.590505,0 -5.590504,0 1.101397,-27.14763 c 1.972268,-48.613146 2.953019,-58.437878 5.727608,-57.376669 1.538484,0.588431 2.403584,-0.332689 2.227804,-2.372082 -0.42199,-4.895843 11.11706,-6.827727 36.41919,-6.097353 l 21.41551,0.618183 0.56539,-6.678659 c 0.41197,-4.8665 1.43196,-6.613677 3.75915,-6.43917 2.13098,0.159793 2.81851,-0.735195 2.0661,-2.689507 -3.18831,-8.281286 94.66155,9.459381 117.71719,21.342714 2.82136,1.454178 7.70016,3.072845 10.84178,3.597038 12.10513,2.01979 12.68558,2.748912 12.25003,15.387522 -0.27656,8.024821 0.289,11.503883 1.81566,11.169293 6.54759,-1.435032 23.0726,-0.66016 26.65314,1.24979 2.27081,1.21131 7.2448,7.1074 11.05329,13.10241 3.80847,5.99501 8.76493,12.94654 11.01434,15.44783 2.76487,3.07448 3.16099,4.26773 1.22275,3.6833 -1.57689,-0.47548 -5.8775,-5.05612 -9.55691,-10.17921 -11.92242,-16.60038 -18.02122,-21.86561 -25.32731,-21.86561 -3.62765,0 -9.19023,0.90147 -12.36125,2.00326 -5.43616,1.88883 -5.83765,2.73221 -7.02826,14.7645 -2.1017,21.23934 -3.07207,24.53475 -7.86553,26.71162 -3.13998,1.42596 -4.16748,3.13383 -3.47451,5.7751 0.65361,2.49118 -1.0012,5.82084 -4.92877,9.91714 -3.25201,3.39173 -5.96974,7.53989 -6.03939,9.21814 -0.0698,1.67826 -0.50423,9.36388 -0.96569,17.07917 -0.72348,12.09572 -0.15521,15.54654 4.12579,25.05453 2.73066,6.0647 7.46582,13.41495 10.5226,16.3339 3.05676,2.91894 5.55777,5.84585 5.55777,6.50422 0,0.65838 -3.64518,1.02084 -8.10042,0.80549 -6.71371,-0.32451 -8.31713,-1.1612 -9.36639,-4.88739 -0.69627,-2.47271 -1.35171,-3.28134 -1.45649,-1.79695 -0.10474,1.48438 -0.83426,2.05726 -1.62106,1.27306 -0.78678,-0.78421 0.10512,-2.54506 1.9821,-3.913 3.22555,-2.35082 3.2384,-2.92119 0.23445,-10.4041 -2.8566,-7.11585 -3.41388,-7.5713 -5.50772,-4.50118 -4.07708,5.97806 -4.63476,12.07588 -1.82927,20.00135 3.39259,9.58403 3.40237,9.41674 -0.51065,8.74045 -1.88984,-0.32663 -4.26645,1.42395 -5.70597,4.20295 -1.35691,2.61951 -2.47979,3.54824 -2.49529,2.06385 -0.0421,-4.02831 -1.98979,-1.31911 -4.69936,6.53657 -1.95101,5.65643 -1.93348,8.30049 0.0925,13.95371 3.40071,9.48944 3.41507,13.83112 0.031,9.38956 -2.32404,-3.05037 -2.68283,-2.93282 -4.73216,1.55019 -1.21961,2.66794 -1.43973,4.37169 -0.48914,3.78614 0.95057,-0.58555 1.78582,3.73509 1.85613,9.60142 0.0703,5.86634 0.96719,11.67412 1.99311,12.90621 1.02589,1.23206 1.78578,5.02665 1.68863,8.43241 -0.0971,3.40574 0.96479,8.31804 2.35987,10.91619 3.05008,5.68043 26.91245,25.64374 36.27612,30.3487 3.67941,1.84879 8.41008,4.8569 10.5126,6.68468 2.10252,1.82779 9.41356,6.18917 16.24675,9.69195 6.83319,3.50281 16.9132,9.50392 22.40006,13.33583 15.12169,10.56072 24.59795,12.59864 39.67203,8.53169 6.7364,-1.81746 13.15847,-2.74362 14.27128,-2.05813 3.711,2.28596 2.12609,10.18981 -2.82103,14.06843 -9.59267,7.52079 -42.05778,19.09734 -62.05405,22.12751 -6.21085,0.94118 -6.68984,1.50225 -6.68984,7.83641 0,6.53056 -0.49101,7.03005 -11.46829,11.66641 -24.45719,10.32976 -45.31929,14.26435 -79.32236,14.96019 -17.34579,0.35496 -35.17638,-0.11811 -39.62352,-1.0511 z m 91.23084,-227.36668 c 0,-0.36151 -1.72025,-2.20897 -3.82277,-4.10546 -3.71039,-3.34683 -3.82276,-3.32751 -3.82276,0.65728 0,2.83539 1.18261,4.10546 3.82276,4.10546 2.10252,0 3.82277,-0.29579 3.82277,-0.65728 z"
       id="path6593"
       inkscape:connector-curvature="0" />
    <path
       style="fill:#8477d0"
       d="m 212.79528,461.66476 c -2.10252,-0.48238 -8.55344,-1.80668 -14.33537,-2.94292 -12.13722,-2.38514 -20.23709,-6.7502 -39.99708,-21.55451 -7.84308,-5.8761 -16.20243,-10.63383 -18.68369,-10.63383 -5.809,0 -30.26307,-12.27431 -36.15607,-18.14792 -3.449,-3.43767 -4.522406,-6.52707 -4.420685,-12.72332 0.103748,-6.31968 0.508434,-7.31555 1.777045,-4.37305 1.55187,3.59954 1.65012,3.56699 1.77704,-0.58872 0.0739,-2.41939 0.94242,-3.9011 1.93008,-3.29271 1.08758,0.66995 1.51745,-5.48384 1.09005,-15.60461 -0.46992,-11.12753 -0.13256,-15.27864 1.00973,-12.42433 0.94349,2.35755 2.22398,4.28646 2.84553,4.28646 0.62154,0 0.70602,-0.68391 0.18771,-1.51979 -0.5183,-0.83588 -0.18821,-2.73602 0.73356,-4.22257 1.01754,-1.64101 0.84762,-3.69754 -0.43255,-5.23497 -2.1699,-2.60599 -2.44266,-13.52895 -0.49088,-19.65826 0.60621,-1.90369 2.77843,-3.99152 4.82718,-4.63963 2.83384,-0.89647 3.72498,-2.91505 3.72498,-8.43772 0,-3.99264 1.35824,-10.49938 3.01831,-14.45941 2.45991,-5.86804 2.62706,-8.74872 0.90348,-15.57116 -1.16315,-4.6041 -1.62149,-9.16669 -1.01853,-10.13909 0.60296,-0.9724 0.28325,-3.28599 -0.71047,-5.14129 -1.63621,-3.05486 -3.36214,-17.21819 -5.28631,-43.38033 -1.09947,-14.94911 -4.33135,-40.34676 -7.48906,-58.85263 -1.58983,-9.31728 -2.65454,-17.14027 -2.366,-17.38443 0.68156,-0.57673 16.85059,4.97984 29.84585,10.25668 6.79979,2.76111 9.9105,3.33645 9.31799,1.72341 -0.4892,-1.33178 -1.92101,-2.18585 -3.18182,-1.89794 -1.26081,0.28792 -1.83404,-0.21569 -1.27385,-1.11911 0.56019,-0.90342 -1.42147,-4.5557 -4.40369,-8.11617 -2.98222,-3.56047 -5.03466,-7.48021 -4.56098,-8.71054 0.47367,-1.23032 -0.92122,-2.80082 -3.09977,-3.48999 -3.8435,-1.21587 -5.21103,-4.83061 -2.75399,-7.27957 1.82412,-1.81812 8.3499,2.24116 8.3499,5.19395 0,1.42274 1.27568,3.07471 2.83485,3.67105 1.55917,0.59634 2.36986,2.29202 1.80154,3.76818 -0.56833,1.47616 0.30629,3.19629 1.9436,3.82252 1.63731,0.62623 2.97692,3.19823 2.97692,5.71556 0,3.0941 2.16316,6.04526 6.67678,9.109 3.67223,2.49262 6.68265,5.1481 6.68984,5.90107 0.007,0.75296 1.45256,0.81845 3.21196,0.14553 2.42345,-0.92691 2.90134,-0.45059 1.97137,1.96488 -1.4595,3.79089 0.93553,4.07505 6.8018,0.80702 2.35107,-1.30975 4.43351,-2.3968 4.62764,-2.41566 0.19413,-0.0189 2.49658,-8.04206 5.11655,-17.82933 5.29384,-19.77592 4.88093,-27.24503 -0.91076,-16.47452 -4.05524,7.54131 -4.4643,9.37472 -1.71358,7.68027 1.10432,-0.68026 1.39092,0.13105 0.6897,1.9524 -0.84839,2.20359 -1.60742,2.45894 -2.59154,0.87184 -1.03735,-1.67296 -2.89227,-1.47108 -7.28461,0.79281 -3.24108,1.67052 -6.36565,3.03731 -6.94348,3.03731 -0.57784,0 -1.05061,-4.71512 -1.05061,-10.47804 0,-9.57809 0.36937,-10.48323 4.30061,-10.53862 4.251,-0.0599 4.25651,-0.094 0.47784,-2.95311 -3.42566,-2.59206 -3.88696,-2.58577 -4.44076,0.0606 -0.96094,4.59192 -7.05583,3.47723 -9.8946,-1.80962 -1.40655,-2.61951 -3.27213,-4.76274 -4.14575,-4.76274 -0.87362,0 -1.5884,-1.46412 -1.5884,-3.2536 0,-1.78947 -3.14075,-6.45943 -6.97944,-10.37768 -6.78575,-6.92639 -7.13227,-7.04533 -12.48648,-4.28566 -3.02887,1.56114 -5.03636,3.59749 -4.46109,4.52524 0.57526,0.92774 -0.6868,2.23494 -2.80458,2.90489 -2.11779,0.66995 -3.85052,2.01761 -3.85052,2.9948 0,0.9772 -3.44049,1.77672 -7.64553,1.77672 l -7.645528,0 0,-20.003517 c 0,-11.001934 0.268505,-20.003515 0.596678,-20.003515 0.328171,0 3.99892,1.638381 8.15723,3.640847 4.1583,2.002466 10.77077,4.241109 14.69437,4.974762 3.92361,0.733653 7.13384,1.881645 7.13384,2.551096 0,0.669449 5.11737,2.846917 11.37194,4.838818 6.25457,1.991902 11.20027,4.563611 10.99045,5.714913 -0.20983,1.151296 2.62141,2.377336 6.29163,2.724526 3.67023,0.3472 7.11072,1.29707 7.64553,2.11084 1.15498,1.75739 18.77152,9.64104 21.54355,9.64104 1.05989,0 3.95186,-2.1776 6.4266,-4.83911 l 4.49952,-4.8391 -8.48487,-3.62508 C 183.35646,98.800558 165.51804,92.884617 148.38222,87.647815 114.12684,77.179181 102.89081,72.954574 102.89081,70.543607 c 0,-1.559277 20.24435,-3.10706 35.36057,-2.703494 12.6781,0.338475 35.23086,4.918415 33.99935,6.90448 -0.62745,1.011898 -0.20723,1.264725 0.93382,0.561838 1.14105,-0.702889 2.54197,-0.5243 3.11316,0.396864 0.57118,0.921164 5.14626,2.700768 10.16683,3.954674 22.33169,5.57743 30.91031,8.452899 29.93082,10.032527 -0.59008,0.951642 1.24397,1.124011 4.17038,0.391945 3.38479,-0.846735 4.79632,-0.617512 4.00966,0.651143 -0.66772,1.076845 1.47815,3.257477 4.76861,4.845852 4.55811,2.200303 7.31814,2.423927 11.5914,0.939161 l 5.60876,-1.948794 -7.37499,-3.291024 c -6.91951,-3.087764 -36.56189,-13.333738 -49.31049,-17.04431 -25.67226,-7.472096 -27.71504,-8.348834 -27.71504,-11.895025 0,-1.985058 1.26071,-4.091385 2.80158,-4.680727 2.41992,-0.925556 27.46577,5.575949 32.37647,8.404417 0.95087,0.547685 1.11514,0.0061 0.36504,-1.203661 -2.01064,-3.242587 1.935,-2.674386 5.39814,0.777373 1.66853,1.663035 6.38017,3.023503 10.67581,3.082593 4.22904,0.05818 8.15798,0.861837 8.73098,1.78592 0.573,0.92408 3.62218,1.680148 6.77596,1.680148 3.33605,0 5.24011,0.79674 4.55285,1.905097 -1.08406,1.748288 7.9951,2.958552 16.72459,2.229407 1.83971,-0.153665 3.34492,0.567797 3.34492,1.603248 0,1.035448 -1.77101,1.882635 -3.93557,1.882635 -2.16456,0 -3.4272,0.819853 -2.80585,1.821894 0.62133,1.002041 2.39234,1.338966 3.93557,0.748724 3.4041,-1.301985 3.79083,2.364314 0.41663,3.94986 -1.31408,0.617485 0.19113,0.662886 3.34491,0.100893 3.15378,-0.561997 4.76728,-0.352802 3.58555,0.464878 -1.39569,0.96574 -1.57118,3.025204 -0.50079,5.877285 1.60815,4.284899 1.87077,4.170253 10.91077,-4.762742 l 9.26296,-9.15334 -6.52219,-2.333145 C 264.32312,73.923531 228.69859,65.21132 199.4156,58.871439 188.903,56.59542 177.72142,53.571054 174.56764,52.150624 l -5.73415,-2.582599 9.92195,-0.121838 c 5.45708,-0.06701 10.45354,0.735453 11.10325,1.783257 0.64972,1.047803 4.47903,1.905096 8.50958,1.905096 10.26607,0 33.6631,4.978895 58.3888,12.425153 24.77875,7.462239 31.67473,10.076105 27.71504,10.505151 -5.25806,0.569729 6.56888,3.358507 15.0601,3.55115 l 8.37025,0.1899 -1.28281,11.301184 -1.28278,11.301182 10.42286,-1.07219 c 17.36028,-1.785853 23.9883,1.66948 31.78799,16.57176 1.91942,3.66731 5.31851,8.59675 7.55353,10.9543 2.23502,2.35756 3.24778,4.28647 2.25056,4.28647 -0.99721,0 -5.75883,-5.96953 -10.58136,-13.26561 -10.1731,-15.39102 -12.8752,-17.21594 -25.49111,-17.21594 -13.65894,0 -15.306,2.03944 -17.69341,21.90862 -1.95697,16.28673 -4.5339,21.90861 -10.04238,21.90861 -0.91642,0 -1.51309,1.50026 -1.32595,3.33392 0.62728,6.14642 -0.0749,7.91926 -4.90413,12.38248 -3.79361,3.50607 -5.14544,7.22906 -6.42662,17.69924 -0.89237,7.29258 -1.24832,15.83111 -0.79102,18.97452 1.32875,9.13363 9.68422,25.8529 15.85967,31.73508 3.12635,2.97786 4.99524,5.4143 4.15313,5.4143 -3.65774,0 -13.77044,-12.40129 -16.79408,-20.59469 -1.81338,-4.91387 -4.1412,-9.7916 -5.17292,-10.8394 -1.23858,-1.25787 -1.4081,-1.08073 -0.49897,0.52141 0.75729,1.33458 -0.0665,6.19381 -1.83087,10.79828 -2.68146,6.99822 -2.83011,9.51231 -0.906,15.32328 1.26599,3.82334 1.786,7.46559 1.15559,8.09393 -0.6304,0.62832 -1.14618,-0.23581 -1.14618,-1.92031 0,-1.68449 -0.85028,-3.5865 -1.8895,-4.22665 -1.06061,-0.65334 -1.41674,0.064 -0.81184,1.63514 0.59272,1.53949 -0.24282,5.22751 -1.85674,8.19561 -1.61391,2.96809 -2.982,4.11059 -3.0402,2.53889 -0.094,-2.54012 -0.31496,-2.54012 -1.98841,0 -4.67177,7.09132 -5.74719,16.5459 -2.82197,24.80954 1.5909,4.49429 2.55277,8.51012 2.13746,8.92408 -0.4153,0.41394 -1.66993,-1.86303 -2.78805,-5.05992 -1.11812,-3.1969 -2.48077,-5.81254 -3.02809,-5.81254 -0.54731,0 -0.52582,1.21896 0.0478,2.70878 0.57359,1.48982 0.0277,4.59938 -1.21302,6.91011 -1.24075,2.31075 -1.52201,4.73529 -0.62504,5.38788 0.89699,0.65261 1.82952,5.84097 2.0723,11.52972 0.24279,5.68873 1.16184,10.83249 2.04235,11.43058 0.8805,0.59807 1.67525,4.42066 1.7661,8.49466 0.0908,4.07397 1.18689,9.21773 2.43562,11.43058 2.8997,5.13844 23.69336,22.50951 33.78046,28.22025 4.25466,2.40875 7.64525,4.80818 7.53461,5.33208 -0.11066,0.5239 1.90154,3.89579 4.47149,7.49307 3.56242,4.9865 3.9144,6.25051 1.48142,5.31996 -1.76312,-0.67434 -4.43791,0.0221 -5.97706,1.55614 -1.53225,1.52719 -3.70746,2.7767 -4.83379,2.7767 -1.12636,0 -2.04792,2.57188 -2.04792,5.71529 0,3.14341 -0.86012,5.71529 -1.91138,5.71529 -1.05126,0 -1.91138,0.85729 -1.91138,1.9051 0,1.0478 1.70042,1.90509 3.77871,1.90509 2.07828,0 5.18762,2.14324 6.90966,4.76275 1.90987,2.90525 4.93223,4.76274 7.74957,4.76274 2.54024,0 5.11371,1.28594 5.71881,2.85764 1.33503,3.46757 5.72887,3.76223 7.10171,0.47628 0.72395,-1.73288 1.73561,-1.47346 3.7149,0.95255 1.49602,1.83365 4.34545,3.32079 6.33206,3.30475 2.81213,-0.0227 3.02574,-0.39927 0.9646,-1.70034 -2.12347,-1.34039 -1.86459,-2.08873 1.30789,-3.78101 5.34435,-2.8508 17.03698,-2.67673 18.23722,0.2715 0.73949,1.81653 1.42277,1.73263 2.88066,-0.35378 1.55632,-2.22725 2.45364,-2.28646 4.83226,-0.31887 1.73877,1.43831 4.69877,1.88126 7.31335,1.09442 6.58945,-1.98307 17.39736,-6.95827 20.63909,-9.50079 4.03217,-3.16248 10.02238,-5.11978 8.58768,-2.80602 -0.64226,1.0358 0.17317,1.88328 1.81211,1.88328 3.20934,0 3.67,1.70603 1.78366,6.60562 -2.61429,6.79035 -42.2614,22.91492 -61.83808,25.1497 -5.80466,0.66263 -12.60519,2.79035 -15.11229,4.72826 -2.5071,1.9379 -3.63302,3.52345 -2.50204,3.52345 1.13101,0 2.59662,-0.87127 3.25692,-1.93617 1.77768,-2.8669 4.75919,-0.31236 4.75919,4.07767 0,5.42124 -22.6895,15.44195 -46.82886,20.68171 -18.19487,3.94944 -64.94684,6.8894 -74.5439,4.68767 z m 0,-21.7616 c 4.29014,-1.06263 2.4826,-1.44387 -7.17771,-1.51394 -7.32501,-0.0532 -12.44519,0.65895 -11.83333,1.6457 1.24203,2.00303 10.6557,1.9378 19.01104,-0.13184 z m 79.32235,-3.84418 c 0,-1.0478 -0.86012,-1.9051 -1.91138,-1.9051 -1.05126,0 -1.91138,-1.28594 -1.91138,-2.85764 0,-3.57596 1.70499,-3.62616 5.58364,-0.16441 2.54595,2.27226 4.95943,2.3149 15.44156,0.27281 l 12.42399,-2.42041 -10.5126,0.20347 c -8.14501,0.15774 -11.9087,-0.78904 -16.71156,-4.20347 -3.40941,-2.42381 -7.19783,-3.79163 -8.41868,-3.03958 -1.48161,0.91268 -1.69947,0.5283 -0.65519,-1.15582 1.1557,-1.86381 0.67776,-2.18402 -1.82888,-1.2253 -2.35999,0.90263 -3.09981,0.53523 -2.42926,-1.20644 0.5756,-1.49505 -1.457,-3.56267 -5.04348,-5.13035 -3.30423,-1.44431 -6.96669,-3.90678 -8.13882,-5.47216 -2.1902,-2.92501 -10.89528,-4.68995 -9.13568,-1.85223 0.53891,0.8691 -0.74041,1.5802 -2.84293,1.5802 -2.10252,0 -4.25315,-0.69411 -4.77921,-1.54246 -0.52603,-0.84834 -5.27298,-1.44489 -10.54878,-1.32563 -7.32694,0.16556 -9.13713,-0.32988 -7.66477,-2.09812 1.32632,-1.59289 1.16385,-2.78542 -0.52086,-3.8232 -2.68696,-1.65517 -9.77301,-2.57181 -8.26544,-1.06918 0.516,0.5143 -0.12951,2.29991 -1.43447,3.96801 -2.07092,2.64725 -1.96892,2.71832 0.80211,0.55905 2.13627,-1.66465 3.57992,-1.82045 4.41341,-0.47627 0.68126,1.09868 -0.10225,2.10477 -1.74121,2.23574 -5.47005,0.43714 -6.10344,0.6979 -9.20553,3.78979 -2.40689,2.39898 -2.58706,3.63576 -0.81916,5.62341 1.87783,2.11121 1.7124,2.13167 -0.96495,0.11926 -1.77722,-1.33584 -2.76035,-3.65205 -2.18473,-5.14714 0.57561,-1.49512 -0.0489,-2.71838 -1.38787,-2.71838 -1.33894,0 -1.85915,0.5734 -1.15602,1.27423 0.70314,0.70082 -0.22866,3.0436 -2.07066,5.20619 -2.13469,2.50621 -2.30947,3.16901 -0.48202,1.82788 2.26138,-1.65957 3.7506,-1.01538 7.04924,3.04924 l 4.18216,5.15331 -6.57139,0.3175 c -11.241,0.54314 -12.1982,0.8443 -15.64251,4.92151 -3.31779,3.92744 -3.31035,3.93321 0.71159,0.55279 3.64688,-3.06521 4.18464,-3.10398 5.2344,-0.37733 0.64348,1.67136 0.41715,2.5751 -0.50296,2.00832 -0.9201,-0.56679 -2.84552,0.41054 -4.27871,2.17184 -2.22742,2.73736 -2.20418,2.96094 0.16,1.53972 1.5212,-0.91446 6.89696,-1.44412 11.94614,-1.177 5.57081,0.2947 9.18034,-0.31894 9.18034,-1.5607 0,-2.71543 16.32907,-2.64627 21.46038,0.0909 3.32751,1.77497 21.10369,3.31631 41.13738,3.56693 2.36533,0.0295 4.30061,0.90149 4.30061,1.93756 0,1.03607 1.29018,1.88376 2.86707,1.88376 1.57689,0 2.86707,-0.8573 2.86707,-1.9051 z m -60.50478,-16.8196 c 1.73984,-1.91617 3.16332,-5.34534 3.16332,-7.62039 0,-2.40679 1.19888,-4.13646 2.86708,-4.13646 1.57689,0 2.86707,0.93934 2.86707,2.08743 0,3.90347 -6.54681,13.15334 -9.30958,13.15334 -2.24377,0 -2.16777,-0.64255 0.41211,-3.48392 z m 26.09991,-0.44907 -8.60122,-1.21003 10.03475,-0.28614 c 5.51912,-0.15736 10.03476,0.0918 10.03476,0.55398 0,1.83194 -3.24727,2.09871 -11.46829,0.94219 z m -64.67906,6.13003 c 17.28748,-20.97209 17.6116,-21.27791 21.31059,-20.10777 2.39092,0.75637 3.2559,0.44368 2.435,-0.88019 -1.6075,-2.59244 3.97376,-13.59572 6.89624,-13.59572 1.19947,0 1.79833,-0.38127 1.33079,-0.84727 -0.46754,-0.46601 -4.04532,-0.12898 -7.95062,0.74889 -3.90529,0.87789 -6.69682,0.94508 -6.2034,0.14936 0.49343,-0.79576 -0.80282,-2.98022 -2.88055,-4.85436 -3.99661,-3.60499 -4.88798,-8.47652 -2.10151,-11.48518 0.98331,-1.06173 0.11684,-4.17233 -2.09613,-7.52513 -3.09237,-4.68513 -3.60057,-4.94862 -2.81949,-1.46188 0.82878,3.69966 0.47442,3.99823 -2.72182,2.29328 -4.89797,-2.61269 -7.67683,-0.61584 -6.36925,4.57684 0.89283,3.54564 0.20484,4.29272 -4.2936,4.6624 -2.94623,0.24214 -5.66013,1.33988 -6.03088,2.43944 -0.37075,1.09957 -5.53148,4.14761 -11.46829,6.77346 l -10.7942,4.77423 7.64553,4.63095 c 4.20504,2.54702 9.09278,4.63533 10.86164,4.6407 1.76886,0.006 3.7621,1.72434 4.42941,3.81995 0.66732,2.0956 2.55084,3.81019 4.18561,3.81019 2.33409,0 2.4944,0.57395 0.74659,2.673 -3.62131,4.34907 -5.59992,13.55429 -3.65715,17.01442 2.49259,4.43933 4.40282,3.98916 9.54549,-2.24961 z m 2.98393,-51.75133 c -3.91477,-4.55708 -4.16536,-5.90803 -0.86152,-4.64439 2.89821,1.10849 7.81469,8.47636 5.65617,8.47636 -0.82654,0 -2.98413,-1.72438 -4.79465,-3.83197 z m 19.64472,46.90857 c 0,-0.38386 -1.17606,-1.67077 -2.61347,-2.8598 -1.96877,-1.62855 -3.1217,-1.55149 -4.67371,0.31242 -1.58611,1.90487 -0.98468,2.56298 2.61348,2.8598 2.57054,0.21203 4.6737,0.0715 4.6737,-0.31242 z m 138.5752,-4.97466 c 4.87062,-2.0861 -0.15444,-2.0861 -6.68983,0 -3.84137,1.22617 -4.0288,1.53627 -0.9557,1.58128 2.10252,0.0309 5.54301,-0.68076 7.64553,-1.58128 z M 135.573,411.48079 c -3.46331,-3.45192 -11.65699,-7.15358 -11.65699,-5.26627 0,1.15786 11.98005,8.81427 13.85752,8.85629 0.78845,0.0172 -0.20179,-1.59786 -2.20053,-3.59002 z m 236.82268,-1.14062 c 3.67941,-1.41226 5.39966,-2.59432 3.82277,-2.62678 -1.57689,-0.0324 -5.44744,1.11863 -8.60122,2.55799 -7.38187,3.36897 -3.94834,3.41841 4.77845,0.0688 z M 113.40976,399.87239 c -0.64622,-1.04216 -3.06232,-2.80516 -5.3691,-3.91777 -3.97358,-1.91651 -3.95684,-1.81686 0.3182,1.89486 4.86982,4.22812 6.9299,5.05318 5.0509,2.02291 z m 44.91113,-8.58318 c 0,-2.87679 -1.09064,-4.76275 -2.75427,-4.76275 -4.52624,0 -5.52584,3.87358 -1.73774,6.73401 4.61732,3.48657 4.49201,3.54157 4.49201,-1.97126 z m 59.74498,-14.77993 c -2.82323,-3.12695 -3.25722,-3.13898 -6.53653,-0.18099 -4.36168,3.93429 -4.43201,6.25036 -0.28167,9.27519 2.68807,1.95909 3.78619,1.67434 6.53653,-1.69508 3.02027,-3.70009 3.04459,-4.33893 0.28167,-7.39911 z m 78.10099,4.77817 c 0.12462,-1.83366 0.0868,-4.40554 -0.0837,-5.71529 -0.17069,-1.30976 0.65924,-2.38137 1.8442,-2.38137 4.5597,0 0.41416,-4.32413 -6.37616,-6.65085 -5.01207,-1.7174 -7.49956,-1.83257 -8.39489,-0.38866 -0.69977,1.12855 -0.25993,2.38825 0.97746,2.79937 3.43051,1.13975 2.68053,5.75366 -1.09512,6.73709 -2.15168,0.56046 -1.54937,0.95009 1.68845,1.09225 3.31285,0.14555 5.3751,1.52341 6.03305,4.03118 1.23151,4.69378 5.09718,5.0343 5.40679,0.47628 z M 195.10548,360.18096 c 0.5028,-1.9164 -0.31372,-5.13125 -1.8145,-7.14411 -2.51791,-3.37709 -2.62301,-3.21832 -1.36074,2.05552 l 1.36793,5.71529 -4.45555,-3.81019 -4.45556,-3.8102 3.69151,5.17916 c 4.37249,6.13456 5.79696,6.5024 7.02691,1.81453 z m -20.73614,-16.69109 c 1.8934,-4.91789 -0.45714,-6.49592 -9.67591,-6.49592 -7.14153,0 -8.48586,0.53781 -7.53273,3.01346 0.6381,1.6574 1.16019,3.80063 1.16019,4.76274 0,3.1903 14.78126,2.01112 16.04845,-1.28028 z m 80.27559,-12.53496 c -0.88829,-1.43256 -0.39206,-1.85019 1.389,-1.16899 1.79252,0.68559 2.77105,-0.15984 2.77105,-2.39404 0,-1.89963 -0.67581,-3.03756 -1.50181,-2.52875 -0.82599,0.5088 -1.50179,-0.14669 -1.50179,-1.45654 0,-1.30991 -1.21907,-0.71997 -2.70904,1.31099 -1.91194,2.60614 -2.12428,4.39491 -0.72165,6.07941 2.50795,3.01194 4.11307,3.12339 2.27424,0.15794 z m 35.50054,-179.59574 c -0.0335,-1.10948 -1.32363,-0.35313 -2.86707,1.68079 -1.54346,2.03393 -2.77894,4.60581 -2.74551,5.71529 0.0335,1.10949 1.32363,0.35314 2.86707,-1.68079 1.54346,-2.03392 2.77894,-4.6058 2.74551,-5.71529 z M 96.26405,148.86565 c 0.57327,-18.07561 1.808215,-19.76502 6.96305,-9.52548 5.44433,10.81459 5.66731,12.8594 1.4023,12.8594 -2.13157,0 -3.344,0.85729 -2.69428,1.9051 0.64971,1.0478 -0.41147,1.90509 -2.358174,1.90509 -2.856081,0 -3.495725,-1.37936 -3.312896,-7.14411 z"
       id="path6591"
       inkscape:connector-curvature="0" />
    <path
       style="fill:#7669c9"
       d="m 207.38423,460.86273 c -16.60556,-3.00478 -27.57656,-8.14139 -45.572,-21.33678 -9.79287,-7.18075 -19.68791,-12.99245 -22.12102,-12.99245 -6.24002,0 -29.9293,-12.27986 -35.7414,-18.52732 -3.32824,-3.57756 -4.872452,-7.37556 -4.852497,-11.93476 0.02018,-4.61317 0.552984,-5.86294 1.717807,-4.02941 1.35671,2.13557 1.87081,1.94838 2.61608,-0.95255 0.79546,-3.09632 0.95912,-3.00838 1.14927,0.61748 0.23061,4.3974 9.72381,11.35121 30.80383,22.56394 5.78193,3.07548 11.80279,6.82109 13.37968,8.32358 1.57689,1.50251 11.03823,8.00857 21.0252,14.45793 12.38873,8.00036 21.49831,12.42731 28.67073,13.933 10.84902,2.27751 64.21992,3.61904 66.18186,1.66355 0.60753,-0.60553 -12.17889,-1.16285 -28.41425,-1.23848 -20.33978,-0.0947 -32.43583,-1.02094 -38.89953,-2.97849 -12.24695,-3.70903 -28.6469,-13.37063 -25.7377,-15.1627 3.1494,-1.94004 7.7558,0.24709 7.7558,3.68248 0,4.54218 1.59466,3.62579 11.84224,-6.80533 5.37691,-5.47321 10.27459,-9.00221 11.20568,-8.07418 1.90113,1.89486 -7.28008,14.50531 -9.545,13.11011 -0.81532,-0.50224 -1.0937,1.11349 -0.61863,3.59052 1.04227,5.43436 6.00226,6.69294 27.9715,7.09772 13.42246,0.24732 14.36274,0.46701 6.92876,1.61897 -7.37752,1.14321 -6.35777,1.37354 7.16769,1.61897 11.6923,0.21215 15.7689,-0.34465 15.7689,-2.15385 0,-4.56388 10.51711,-6.74836 24.90877,-5.17376 15.03745,1.64526 26.69855,-0.47696 26.69855,-4.85893 0,-1.52246 0.91088,-2.76811 2.02419,-2.76811 1.1133,0 1.43564,0.94914 0.71633,2.10919 -1.44734,2.33415 5.61378,0.69433 10.63915,-2.47072 2.17638,-1.3707 1.8304,-1.58746 -1.43617,-0.89976 -2.36679,0.49828 -3.82124,0.1286 -3.23211,-0.82147 0.58912,-0.95009 5.10595,-1.6915 10.03739,-1.64757 l 8.96626,0.0798 -6.68984,3.65049 c -3.67941,2.00776 -8.03065,3.68642 -9.66944,3.73033 -1.63878,0.044 -4.6492,1.41019 -6.68983,3.03616 -3.56528,2.84078 -3.52356,2.90649 1.06821,1.68155 2.62815,-0.7011 9.31959,-3.31736 14.86987,-5.81394 12.17573,-5.47675 11.88948,-5.45842 11.88948,-0.7611 0,6.44582 -20.55231,15.10151 -52.56301,22.13718 -15.70871,3.45263 -60.96109,5.098 -74.2208,2.69867 z m -8.98108,-32.90041 4.48491,-6.19157 -5.08115,4.61855 c -2.79463,2.54022 -5.08114,5.32642 -5.08114,6.19156 0,2.64529 1.01228,1.82179 5.67738,-4.61854 z m 86.06896,11.90685 c -2.19677,-1.41499 -1.50413,-1.85356 2.96264,-1.87593 3.20634,-0.0152 6.86186,-1.05792 8.12337,-2.31528 1.39042,-1.38584 2.29366,-1.50626 2.29366,-0.30581 0,1.08919 -2.19077,2.97523 -4.86838,4.19122 -5.7654,2.61827 -4.96581,2.58954 -8.51129,0.3058 z m -118.73204,-7.14411 c -0.12449,-0.78585 -0.13481,-2.04095 -0.0229,-2.78908 0.11188,-0.74815 -0.86141,-0.95743 -2.16288,-0.46507 -1.30145,0.49237 -5.80678,-2.18399 -10.01182,-5.94743 -4.20504,-3.76346 -10.01086,-8.07698 -12.90183,-9.58563 -2.89096,-1.50864 -5.2563,-3.57824 -5.2563,-4.59915 0,-1.0209 -1.32444,-1.85617 -2.94322,-1.85617 -2.57199,0 -17.47147,-6.65887 -19.93801,-8.91069 -0.49518,-0.45208 0.36494,-1.71352 1.91138,-2.8032 2.27871,-1.60563 2.14493,-1.76539 -0.70568,-0.84278 -4.31435,1.39638 -8.39743,-0.64291 -5.2138,-2.60403 1.57986,-0.9732 1.63668,-2.79802 0.20406,-6.55373 -2.61064,-6.84392 -2.67433,-24.20806 -0.0741,-20.1977 1.64698,2.54012 1.86185,2.54012 1.93384,0 0.0501,-1.76711 2.62403,-0.13126 6.74483,4.28647 9.1044,9.76057 11.90267,9.00402 4.79283,-1.29581 -3.20428,-4.64194 -5.82597,-9.28758 -5.82597,-10.32364 0,-1.03605 -1.41917,-4.34835 -3.15371,-7.36069 -4.59146,-7.97386 -2.22397,-19.59807 3.99152,-19.59807 5.25344,0 7.32326,-3.99432 5.13086,-9.90145 -2.03075,-5.47159 1.52354,-17.2362 4.82578,-15.97317 2.99533,1.14563 5.73055,-2.63771 3.14029,-4.34364 -2.37557,-1.56456 -4.49409,-9.78877 -2.52154,-9.78877 0.82412,0 2.56916,1.28594 3.87786,2.85764 2.68805,3.22827 7.64553,3.8459 7.64553,0.95255 0,-2.48302 -6.0993,-8.52645 -10.18077,-10.0875 -2.19563,-0.83977 -3.26459,-0.19663 -3.40833,2.05062 -0.11518,1.80078 -0.89849,-0.15507 -1.7407,-4.34625 -0.8422,-4.19121 -1.82311,-8.90632 -2.1798,-10.47803 -0.48827,-2.15146 0.87165,-2.74017 5.50312,-2.38228 4.80748,0.37151 5.90995,-0.15241 5.04548,-2.39782 -0.6084,-1.58023 -3.16162,-3.38735 -5.67381,-4.01581 -4.59125,-1.14854 -6.6464,-6.98345 -2.1784,-6.18483 1.31407,0.23487 5.5078,-0.48632 9.31939,-1.60267 3.8116,-1.11633 9.18736,-1.59963 11.94614,-1.074 5.20775,0.99225 6.15585,-0.45968 3.26823,-5.00509 -0.92907,-1.46242 -3.05588,-2.13626 -4.72626,-1.49738 -1.83022,0.70003 -2.85628,0.24255 -2.58214,-1.15121 0.25021,-1.27204 -0.83526,-2.31281 -2.41215,-2.31281 -1.57689,0 -2.86708,0.91852 -2.86708,2.04118 0,2.52604 -5.76635,8.43685 -8.23065,8.43685 -0.99763,0 -2.91711,-1.32496 -4.26552,-2.94434 -1.34841,-1.61939 -3.6759,-2.4761 -5.17221,-1.90381 -1.62982,0.62337 -2.39897,0.0854 -1.91845,-1.34212 0.44116,-1.31046 2.01824,-2.49809 3.50463,-2.63918 1.48639,-0.14117 3.77768,-0.35542 5.09176,-0.47628 3.76681,-0.34646 2.78574,-3.48221 -1.43354,-4.58195 -2.10252,-0.54802 -3.82276,-0.16879 -3.82276,0.8428 0,1.01155 -0.86328,1.30739 -1.9184,0.65743 -1.05512,-0.64994 -1.35974,-3.40029 -0.67693,-6.11188 0.87036,-3.45637 0.58677,-4.52684 -0.94868,-3.58101 -1.30125,0.80159 -2.19014,0.0981 -2.19014,-1.73337 0,-1.7684 0.90198,-2.52689 2.11577,-1.77919 2.31047,1.42325 0.55429,-9.959 -2.077,-13.46158 -0.78716,-1.0478 -1.94591,-8.3336 -2.57499,-16.19065 -0.7451,-9.30592 -0.51261,-13.29037 0.66694,-11.43058 1.48086,2.33486 1.77488,2.16083 1.61387,-0.95522 -0.10829,-2.09561 -0.85347,-6.38208 -1.65597,-9.52549 l -1.45909,-5.71529 -0.48153,5.71529 c -0.36119,4.28689 -0.81964,3.33462 -1.83434,-3.81019 -0.88052,-6.20004 -0.62454,-10.01411 0.73323,-10.92513 1.27728,-0.85701 0.78921,-1.41096 -1.25888,-1.42882 -1.83971,-0.0161 -3.34492,-1.31512 -3.34492,-2.88682 0,-3.82322 1.30901,-3.66738 17.56637,2.09137 14.4911,5.1331 30.13976,13.20029 32.57814,16.79468 0.83389,1.22922 1.42805,1.2962 1.46281,0.16491 0.0322,-1.0478 0.87293,-0.62105 1.86831,0.94833 2.83683,4.47273 14.68402,-2.65003 17.07466,-10.26561 7.40978,-23.60441 8.9511,-39.26268 3.86481,-39.26268 -0.98042,0 -1.78258,-2.57188 -1.78258,-5.71529 0,-5.61193 2.44993,-7.56544 4.77845,-3.81019 1.78537,2.87927 4.77846,2.28262 4.77846,-0.95255 0,-1.57171 0.91088,-2.85765 2.02419,-2.85765 1.1133,0 1.53516,-0.78864 0.93748,-1.75254 -0.59769,-0.96391 1.17282,-3.52405 3.93446,-5.68922 4.60895,-3.61347 4.72813,-4.0401 1.45175,-5.19655 -1.96318,-0.69295 -6.43683,-2.40551 -9.94143,-3.805702 -3.5046,-1.400195 -20.27698,-6.795282 -37.27195,-11.989084 -16.99497,-5.193804 -34.34043,-10.894761 -38.54547,-12.668794 -6.70474,-2.828608 -7.17513,-3.410942 -3.82277,-4.732422 2.10252,-0.828799 14.57429,-1.272548 27.71504,-0.986109 17.77297,0.387411 25.95916,1.395287 31.96223,3.935164 4.43848,1.877902 7.68996,4.027188 7.22553,4.77619 -0.46444,0.749002 1.49488,0.989902 4.35403,0.53533 4.15445,-0.660508 4.62266,-0.402314 2.33138,1.285624 -2.25036,1.657796 -1.73643,1.850348 2.38923,0.895169 2.89096,-0.669321 5.2563,-0.415193 5.2563,0.564728 0,0.979921 2.7954,1.495015 6.21199,1.14465 5.05501,-0.518378 5.5,-0.304451 2.38923,1.148599 -3.47136,1.621481 -3.34996,1.797929 1.32073,1.919522 2.82893,0.07365 5.62883,0.916597 6.22201,1.87323 0.59318,0.956631 4.72952,2.331278 9.19187,3.054771 4.46235,0.723495 10.86551,2.589907 14.22926,4.147584 3.36375,1.557678 7.15217,2.193805 8.4187,1.413616 1.40871,-0.867771 1.80498,-0.615681 1.02061,0.649286 -2.14402,3.457661 2.08969,4.475578 5.30123,1.274586 1.65358,-1.648142 3.87323,-2.462719 4.93255,-1.810174 1.05933,0.652545 1.92605,0.67674 1.92605,0.05376 0,-2.458556 -26.07611,-12.07508 -67.40876,-24.859464 -17.31895,-5.356833 -20.49723,-7.398931 -16.97675,-10.907841 2.40228,-2.394375 26.29926,2.67483 25.76979,5.466479 -0.17522,0.923804 3.26528,1.776369 7.64553,1.894588 10.38453,0.28027 26.12222,4.338199 26.12222,6.735559 0,1.033555 1.57497,1.380959 3.49993,0.77201 2.11619,-0.669443 5.32788,0.496464 8.12338,2.948941 2.5429,2.230868 6.55133,5.336984 8.90763,6.90248 2.35631,1.565496 3.81076,3.609874 3.23213,4.543065 -0.57866,0.933191 0.40299,1.696709 2.18144,1.696709 3.45602,0 10.35319,6.826408 10.39992,10.29326 0.026,1.92143 2.24341,-1.3499 7.64672,-11.280707 1.15065,-2.114801 4.87129,-5.743164 8.26808,-8.063031 5.44522,-3.718857 7.71965,-4.074262 19.22214,-3.003676 l 13.04616,1.214263 -1.26396,11.135237 c -1.1207,9.873064 -0.87406,11.160284 2.17586,11.356234 2.92436,0.18788 2.96883,0.34575 0.29676,1.05349 -3.15756,0.83634 -3.77634,3.46398 -6.57649,27.9276 -1.05214,9.19195 -2.05252,11.4586 -5.81045,13.1652 -3.04049,1.38078 -4.5395,3.65613 -4.5395,6.89051 0,2.65593 -2.16525,7.08158 -4.81169,9.83478 -3.68526,3.83394 -5.19473,8.09522 -6.44789,18.20266 -0.89992,7.25827 -1.34741,15.62118 -0.99442,18.58425 0.93627,7.85947 9.75441,26.13237 15.70699,32.5479 l 5.14823,5.54864 -5.24735,-3.64354 c -4.7228,-3.27932 -14.82216,-20.53279 -14.82216,-25.32176 0,-1.05085 -1.00628,-2.53051 -2.2362,-3.28814 -1.4969,-0.92209 -1.83862,-0.34485 -1.03366,1.74598 0.66142,1.71792 -0.13666,6.31813 -1.77347,10.22269 -2.44172,5.82465 -2.57551,8.43157 -0.74525,14.52038 1.22694,4.08165 1.7411,7.90924 1.14261,8.50576 -0.5985,0.59653 -1.08817,-0.29363 -1.08817,-1.97813 0,-1.68449 -0.99302,-3.67442 -2.20671,-4.42206 -1.40634,-0.86631 -1.68619,-0.5199 -0.77159,0.9551 0.78932,1.27293 0.36375,4.89242 -0.94568,8.0433 -1.52027,3.65819 -2.88284,4.91925 -3.76974,3.48892 -0.84129,-1.35673 -2.69864,1.17817 -4.71054,6.42894 -3.06127,7.9895 -3.08757,9.35345 -0.33539,17.40405 1.64239,4.80435 2.17028,8.23257 1.17307,7.61829 -0.99721,-0.61428 -1.8131,-2.30162 -1.8131,-3.74965 0,-1.44803 -0.64509,-3.03015 -1.43354,-3.51584 -1.29733,-0.79917 -1.70479,1.01801 -2.60389,11.6125 -0.49069,5.78191 1.79391,23.16695 3.37535,25.68539 0.83399,1.32814 1.62685,5.51783 1.76191,9.31042 0.35651,10.01164 0.71291,10.42507 30.59752,35.49277 4.05974,3.40536 9.12511,6.21763 11.25641,6.2495 3.6521,0.0547 3.67437,0.17431 0.38683,2.07972 -1.91855,1.11198 -3.99907,1.5127 -4.62335,0.89046 -0.62429,-0.62223 -2.5721,0.16498 -4.32851,1.74918 -2.87369,2.59211 -4.32458,2.30883 -14.49048,-2.82935 -6.21336,-3.14042 -12.58721,-5.66639 -14.1641,-5.61326 -1.57689,0.0532 -0.84191,0.90511 1.63331,1.89325 2.72475,1.08775 4.09422,2.85153 3.47098,4.47037 -1.53496,3.98685 2.7973,16.35266 5.729,16.35266 1.40051,0 2.54638,1.68601 2.54638,3.7467 0,5.28727 12.20314,16.82419 18.56598,17.55236 3.31849,0.37978 6.03754,2.22538 7.21308,4.89602 1.03773,2.35756 2.54294,4.28647 3.34492,4.28647 0.80198,0 1.45814,1.83297 1.45814,4.07327 0,3.88714 0.58717,4.01333 12.84882,2.76121 7.06686,-0.72164 13.38407,-2.17528 14.03828,-3.23032 0.65421,-1.05505 6.38085,-2.23388 12.72585,-2.61963 14.67683,-0.89229 28.94284,-5.11808 41.91785,-12.41664 11.02556,-6.20198 14.21657,-6.18411 4.00354,0.0225 -3.41659,2.07629 -5.48457,3.77829 -4.59551,3.78219 0.88906,0.004 4.08804,-1.44806 7.10887,-3.22664 6.26352,-3.68779 8.44039,-2.65342 6.59725,3.13472 -2.401,7.54001 -39.79488,23.27474 -61.56361,25.90495 -6.10524,0.73768 -11.75003,1.71619 -12.54396,2.17446 -0.79395,0.45829 -7.64624,1.0322 -15.22734,1.27537 l -13.78379,0.44213 -19.81226,-13.01485 c -10.89673,-7.15818 -19.26693,-12.13543 -18.60043,-11.06058 0.6968,1.12374 0.0495,1.50979 -1.52289,0.90835 -1.50409,-0.57526 -2.62391,-2.49436 -2.4885,-4.26463 0.15061,-1.96799 -1.04557,-3.11722 -3.07815,-2.95751 -1.82839,0.14364 -2.85278,-0.49933 -2.27642,-1.42882 0.57636,-0.92952 0.13705,-1.79718 -0.97626,-1.92815 -4.90846,-0.57746 -5.60662,-0.79239 -6.96192,-2.14324 -0.78844,-0.78585 0.21503,-1.49651 2.22993,-1.57923 2.66957,-0.10954 2.90362,-0.44819 0.86274,-1.24803 -1.5404,-0.60368 -4.40134,-2.89355 -6.35762,-5.0886 -1.95628,-2.19504 -3.02149,-2.93709 -2.36715,-1.649 1.6474,3.24301 -2.31793,10.04114 -5.85697,10.04114 -1.60195,0 -2.37202,0.87183 -1.7113,1.9374 0.66075,1.06558 -1.87338,0.47601 -5.63141,-1.31017 -4.87947,-2.31921 -6.14686,-3.72564 -4.43345,-4.91985 1.54067,-1.07383 0.91783,-1.25899 -1.74045,-0.51743 -5.36886,1.49771 -7.47576,-1.98322 -3.56166,-5.88444 2.34537,-2.33765 2.54534,-3.65683 0.86098,-5.6797 -1.20666,-1.44915 -3.08949,-2.08315 -4.18407,-1.4089 -1.11052,0.68408 -1.42342,0.31198 -0.70794,-0.84188 0.70521,-1.13731 0.50583,-2.54607 -0.44306,-3.13057 -0.94889,-0.58452 -2.17258,0.64217 -2.71931,2.726 -0.54673,2.08374 -2.36476,3.78869 -4.04006,3.78869 -3.82265,0 -3.8095,-0.87778 0.10231,-6.82831 2.48455,-3.77942 2.5853,-4.66905 0.47785,-4.21944 -1.46877,0.31335 -2.57492,-0.78767 -2.45811,-2.44668 0.1168,-1.65904 -0.95835,-3.01642 -2.38923,-3.01642 -1.43088,0 -2.6016,1.23479 -2.6016,2.74397 0,1.75139 -1.12473,2.31376 -3.10934,1.55471 -1.71014,-0.65409 -4.45561,-0.10287 -6.10105,1.225 -2.42082,1.95352 -2.71109,1.94897 -1.52112,-0.024 0.91278,-1.51331 -0.76058,-4.97095 -4.41155,-9.11548 -3.23518,-3.67246 -5.88215,-7.9603 -5.88215,-9.52842 0,-1.56812 -1.28524,-3.34272 -2.85609,-3.94353 -1.57085,-0.60081 -2.46756,-1.71897 -1.99269,-2.48482 0.47487,-0.76583 0.17556,-3.89085 -0.66514,-6.94448 -1.01668,-3.6928 -2.58965,-5.3646 -4.69715,-4.99226 -1.74273,0.30788 -3.18177,-0.54942 -3.19787,-1.9051 -0.0209,-1.75835 -0.56877,-1.64576 -1.91138,0.39275 -1.29447,1.96542 -2.3297,2.20443 -3.31565,0.76551 -1.8491,-2.69863 -17.68029,-5.22873 -17.68029,-2.82562 0,0.98732 1.93528,2.16663 4.30061,2.62073 l 4.30061,0.82561 -4.30061,0.25943 c -2.36533,0.1427 -4.30061,1.38373 -4.30061,2.75786 0,4.03593 7.43959,10.82602 12.0206,10.97117 3.47777,0.11011 3.645,0.3637 0.94437,1.43166 -2.4917,0.98535 -1.11122,2.17402 5.73414,4.93746 4.95876,2.00181 11.26333,5.19005 14.01014,7.08497 2.74682,1.89491 5.47252,2.96854 6.05713,2.38587 0.58461,-0.58269 2.06242,0.80201 3.28403,3.07709 1.2216,2.27509 1.93638,4.28032 1.58839,4.45608 -0.34798,0.17565 -3.39327,2.24556 -6.7673,4.59957 -3.90088,2.7216 -8.94665,4.28003 -13.85752,4.28003 -4.8236,0 -7.77957,0.89401 -7.87382,2.38137 -0.12072,1.9051 -0.34371,1.9051 -1.11497,0 -0.53024,-1.30975 -2.18258,-2.38137 -3.67187,-2.38137 -1.48928,0 -2.70779,-0.71969 -2.70779,-1.59929 0,-2.08317 -8.72016,-6.0211 -13.33308,-6.0211 -1.97797,0 -4.94792,-1.34717 -6.5999,-2.99372 -2.73055,-2.72157 -3.0036,-2.53978 -3.0036,1.9997 0,6.23125 4.63175,15.40551 8.53052,16.89669 1.61577,0.61799 2.93777,2.43646 2.93777,4.04107 0,1.75903 1.71477,2.91742 4.31868,2.91742 2.37527,0 5.39299,1.71459 6.70603,3.8102 1.31305,2.0956 3.67025,3.81019 5.23823,3.81019 1.57662,0 2.85088,1.70304 2.85088,3.8102 0,2.54012 1.27425,3.81019 3.82276,3.81019 2.10252,0 3.82277,0.79953 3.82277,1.77671 0,0.9772 1.62677,2.29134 3.61505,2.92032 4.08991,1.29381 6.39087,11.23925 3.3106,14.30939 -1.07583,1.07231 -1.24866,1.94964 -0.38405,1.94964 0.8646,0 0.50125,1.28594 -0.80746,2.85765 -2.53985,3.05027 -5.58788,3.78093 -5.96049,1.42882 z m 5.32337,-5.21141 c 0,-1.55652 -1.66884,-3.35796 -3.70853,-4.00322 -5.08197,-1.60765 -10.95901,-6.84431 -9.79252,-8.72551 0.52637,-0.84891 -0.31217,-1.05802 -1.86343,-0.46469 -2.42838,0.92879 -2.37575,1.61895 0.37858,4.96468 2.36388,2.87145 13.24327,10.98086 14.82661,11.05165 0.0876,0.004 0.15928,-1.26639 0.15928,-2.82291 z m 180.7561,-11.42096 c 14.07746,-2.68493 28.22167,-7.36223 28.22167,-9.33252 0,-0.50422 -2.7954,-0.0511 -6.21199,1.00688 -3.4166,1.05802 -15.67333,3.92132 -27.2372,6.36291 -23.00908,4.85813 -18.61118,6.50938 5.22752,1.96273 z m -155.5346,-58.20793 c 1.11196,-3.17928 1.24897,-5.30449 0.30445,-4.72265 -0.94451,0.58181 -2.58311,-0.46045 -3.64133,-2.31614 -1.49792,-2.62675 -1.8573,-1.58082 -1.6227,4.72267 0.35461,9.52802 2.1448,10.36405 4.95958,2.31612 z m -5.47056,0.29851 c 0,-0.91949 -1.29018,-2.73905 -2.86707,-4.04345 -3.11213,-2.57434 -3.50115,-1.95857 -1.70688,2.70183 1.22816,3.19003 4.57395,4.17142 4.57395,1.34162 z m 94.79594,-2.43271 c 0.84498,-1.36271 0.52433,-1.68231 -0.84289,-0.84011 -1.21369,0.74764 -2.20671,0.3902 -2.20671,-0.79427 0,-1.1845 -1.20663,-3.35629 -2.68142,-4.82622 -2.30098,-2.29341 -2.83184,-2.28193 -3.74155,0.081 -1.06077,2.75522 3.31555,8.5791 6.44669,8.5791 0.91414,0 2.27577,-0.98975 3.02588,-2.19945 z m -16.42927,-5.5139 c -1.57689,-1.06686 -4.43739,-2.8332 -6.35666,-3.92522 -3.1074,-1.76803 -3.25704,-1.55239 -1.3663,1.96889 1.17879,2.19532 4.00649,3.94142 6.35667,3.92523 3.47852,-0.024 3.72214,-0.37504 1.36629,-1.9689 z m -83.40268,-10.19057 c 0.32533,-6.89438 -1.81762,-9.23081 -3.78338,-4.12498 -0.57963,1.50554 -2.30956,2.25709 -3.84428,1.67009 -2.28427,-0.87366 -2.18972,0.18822 0.52132,5.85467 3.84145,8.02912 6.62997,6.69504 7.10634,-3.39978 z m 82.42411,1.23433 c -0.35219,-1.83366 -0.70614,-4.03812 -0.78657,-4.89883 -0.0805,-0.86068 -1.49126,-0.2243 -3.13519,1.41422 -3.23165,3.22102 -2.1886,6.81853 1.97693,6.81853 1.43172,0 2.29945,-1.48752 1.94483,-3.33392 z m -125.17265,-1.69737 c 0,-2.81272 -4.61286,-3.8457 -12.90183,-2.88911 -12.0164,1.38672 -5.6174,4.82214 9.55691,5.13078 1.83971,0.0375 3.34492,-0.97133 3.34492,-2.24167 z m 116.22818,-10.07767 c -0.23477,-3.07092 -1.25472,-5.07352 -2.26655,-4.45023 -1.09301,0.6733 -1.28659,-0.30341 -0.47695,-2.40637 1.29519,-3.36411 1.14545,-3.35701 -3.02012,0.14346 -2.41055,2.02568 -4.5888,3.7546 -4.84051,3.84202 -1.18869,0.41282 7.52755,8.45459 9.1637,8.45459 1.027,0 1.67519,-2.51257 1.44043,-5.58347 z m -10.16574,1.74221 c -0.6603,-1.06489 -1.94183,-1.47956 -2.84781,-0.92148 -0.90597,0.55808 -2.19615,0.12936 -2.86707,-0.95255 -1.3643,-2.20023 -4.77845,-0.75874 -4.77845,2.01754 0,0.98596 2.63113,1.79266 5.84695,1.79266 3.47381,0 5.35967,-0.78586 4.64638,-1.93617 z m -0.93642,-14.05207 c 0,-1.33523 -1.27654,-2.4277 -2.83672,-2.4277 -1.95657,0 -2.25824,0.69475 -0.97229,2.23915 1.02546,1.23151 1.22683,2.94067 0.4475,3.7981 -0.77931,0.85744 -0.3418,0.9423 0.97228,0.1886 1.31407,-0.75373 2.38923,-2.46289 2.38923,-3.79811 z m -86.0122,-18.3035 c 0,-3.01973 -0.89459,-6.0415 -1.98799,-6.71503 -1.28265,-0.79012 -1.5601,0.47463 -0.78199,3.56468 0.98656,3.91783 0.56576,4.68993 -2.31262,4.24324 -1.93524,-0.30032 -2.44346,-0.17755 -1.12939,0.27277 1.31408,0.45035 2.38923,2.09249 2.38923,3.6492 0,1.55671 0.86012,2.30055 1.91138,1.65297 1.05126,-0.64758 1.91138,-3.6481 1.91138,-6.66783 z m 22.07991,0.4162 c -0.56184,-0.56 -0.0636,-2.16868 1.1073,-3.57484 2.64086,-3.17156 -0.54614,-3.40517 -3.69111,-0.27054 -3.30449,3.29363 -2.86189,7.33712 0.65585,5.99168 1.62223,-0.62047 2.48981,-1.58629 1.92796,-2.1463 z m -17.00202,-13.75188 c 1.68347,0 2.58455,-1.36317 2.20377,-3.33392 -0.35429,-1.83366 -1.49251,-3.20146 -2.52938,-3.03956 -1.03686,0.16193 -2.51712,-0.6954 -3.28947,-1.9051 -0.77235,-1.2097 -1.34954,1.22972 -1.28264,5.42093 0.0669,4.19122 0.55546,6.54877 1.0857,5.23902 0.53025,-1.30975 2.24565,-2.38137 3.81202,-2.38137 z m -35.66,-9.72931 c 0,-0.93569 -1.21851,-1.70127 -2.70779,-1.70127 -1.48929,0 -3.14163,-1.07162 -3.67187,-2.38137 -0.53024,-1.30976 -1.03198,-0.59534 -1.11497,1.58757 -0.083,2.18294 0.36325,4.48142 0.99166,5.10776 1.53124,1.52621 6.50297,-0.47129 6.50297,-2.61269 z m 21.98089,-1.70127 c -1.90275,-2.09561 -5.01949,-3.81019 -6.92609,-3.81019 -2.4234,0 -3.15357,-1.00323 -2.42651,-3.33392 0.90188,-2.89108 0.77915,-2.93524 -0.92397,-0.3325 -1.0802,1.65078 -1.47488,4.86564 -0.87708,7.14411 0.85765,3.26888 2.51345,4.14269 7.85006,4.14269 6.64208,0 6.70122,-0.0682 3.30359,-3.81019 z m -27.71504,-38.1311 c 2.54851,-1.6675 2.54851,-2.08437 0,-3.75186 -4.29739,-2.81178 -5.73414,-2.34175 -5.73414,1.87593 0,4.21767 1.43675,4.6877 5.73414,1.87593 z m 17.20244,-1.87593 c 0,-1.04781 1.29018,-1.9051 2.86708,-1.9051 1.57689,0 2.86707,-0.85729 2.86707,-1.9051 0,-2.39588 -2.2458,-2.40838 -8.47679,-0.0471 -5.82483,2.20731 -6.49121,5.76244 -1.08012,5.76244 2.10252,0 3.82276,-0.85729 3.82276,-1.90509 z M 124.8717,222.68815 c -4.065,-4.47701 -6.68984,-4.90274 -6.68984,-1.08505 0,1.49883 1.93528,3.09667 4.30061,3.55075 2.36534,0.45409 4.64895,0.94236 5.0747,1.08505 0.42575,0.14269 -0.78271,-1.45515 -2.68547,-3.55075 z m 18.94999,-11.6948 c -0.55961,-0.90248 -0.0451,-1.64088 1.14325,-1.64088 3.35047,0 -2.57055,-5.19206 -6.84874,-6.00556 -2.07642,-0.39483 -3.95445,-2.56553 -4.29837,-4.96821 -0.47381,-3.31005 -1.86696,-4.267 -6.21199,-4.267 -5.1016,0 -5.60121,0.58085 -5.60121,6.51202 0,10.69444 1.04931,11.69664 12.41794,11.86043 5.72912,0.0825 9.95872,-0.58832 9.39912,-1.4908 z m 146.38456,-59.1579 c 0,-0.84754 -0.86012,-1.54098 -1.91138,-1.54098 -1.05126,0 -1.91138,0.78718 -1.91138,1.74929 0,0.9621 -0.50029,3.31966 -1.11174,5.23901 -1.01729,3.19337 -0.85498,3.17568 1.91138,-0.20831 1.66272,-2.03392 3.02312,-4.39147 3.02312,-5.23901 z m -50.95003,-42.02428 c 1.63374,-3.92926 2.54036,-7.14412 2.01473,-7.14412 -1.01146,0 -6.49478,12.27947 -6.49478,14.54456 0,2.30996 1.41326,-0.0245 4.48005,-7.40044 z m 63.00317,-22.803803 c 2.70224,-4.307486 2.76587,-4.996247 0.37719,-4.082643 -1.58037,0.604457 -2.87342,1.794468 -2.87342,2.644471 0,0.850002 -0.5671,3.115839 -1.26023,5.035193 -1.51855,4.205042 -0.56556,3.292497 3.75646,-3.597021 z M 202.93856,418.4296 c -0.59804,-0.96448 -0.20983,-2.62822 0.86269,-3.69721 1.32581,-1.32145 2.58555,-0.76009 3.93526,1.75357 1.55212,2.89062 1.36391,3.69722 -0.8627,3.69722 -1.56635,0 -3.33722,-0.78911 -3.93525,-1.75358 z m 17.28236,-18.82335 c 0.28963,-5.52069 3.53398,-6.39236 8.144,-2.1881 2.04839,1.8681 2.59252,2.63524 1.20918,1.7048 -1.63011,-1.09645 -3.75696,-0.57165 -6.04411,1.4914 -3.33101,3.0046 -3.51662,2.94806 -3.30907,-1.0081 z M 97.387169,143.62663 c 0.110115,-9.17904 0.179956,-9.29851 1.920673,-3.28482 1.170368,4.0433 1.130138,7.39725 -0.114262,9.52548 -1.46268,2.50155 -1.893427,1.01343 -1.806411,-6.24066 z M 348.38247,122.25467 c -3.08726,-4.90181 -7.65015,-11.52864 -10.13973,-14.72627 -3.08317,-3.96004 -2.47369,-3.59639 1.91139,1.14044 6.76805,7.31097 15.66113,20.68463 14.51457,21.82742 -0.37015,0.36894 -3.19896,-3.33978 -6.28623,-8.24159 z m -182.51063,-1.58954 c -3.86505,-4.10062 -4.14204,-5.14147 -1.76672,-6.63866 3.48286,-2.1953 7.76261,-2.2741 11.03817,-0.20326 1.98742,1.25648 2.02178,2.59009 0.17103,6.63867 -2.86399,6.2651 -3.71169,6.28335 -9.44249,0.20325 z m -53.42412,-19.93947 c 0,-1.119518 -2.02292,-1.43534 -4.77846,-0.746018 -3.89554,0.974498 -4.77845,0.496308 -4.77845,-2.58808 0,-2.080899 -1.29018,-4.850689 -2.86708,-6.155088 -1.576885,-1.304398 -2.767292,-5.052867 -2.645346,-8.32993 0.131541,-3.534938 0.590099,-4.535799 1.127446,-2.460814 0.690191,2.665202 2.04007,3.213716 5.67257,2.305011 3.07099,-0.768232 4.32975,-0.487541 3.53821,0.788987 -0.67575,1.089801 -0.31776,2.088618 0.79554,2.219593 1.1133,0.130976 2.88431,0.452461 3.93557,0.714412 1.05126,0.261951 4.00025,0.583436 6.55331,0.714411 2.55306,0.130975 5.93211,1.524077 7.509,3.095782 1.57689,1.571705 3.68332,2.857645 4.68094,2.857645 0.99763,0 2.88463,1.28594 4.19333,2.857645 1.30871,1.571705 4.37369,2.857645 6.81108,2.857645 7.20242,0 7.01991,3.175919 -0.19806,3.446379 -3.63716,0.13628 -6.61302,-0.5834 -6.61302,-1.59929 0,-1.015901 -1.72024,-1.847089 -3.82276,-1.847089 -2.10252,0 -3.82276,-0.857293 -3.82276,-1.905096 0,-3.146946 -4.74344,-2.155707 -9.11658,1.905096 -4.58399,4.256589 -6.17448,4.737979 -6.17448,1.868799 z m 204.99573,0.57686 c 2.89096,-0.4365 7.62163,-0.4365 10.5126,0 2.89096,0.4365 0.52563,0.79365 -5.2563,0.79365 -5.78193,0 -8.14727,-0.35715 -5.2563,-0.79365 z M 262.49121,73.915322 C 256.18365,71.914465 243.28182,68.5227 233.82048,66.378068 168.33241,51.53367 161.46683,49.495339 176.57459,49.382278 c 4.2576,-0.03186 8.59748,0.795636 9.64417,1.838884 1.04669,1.043249 7.88466,2.342051 15.19549,2.886228 7.31082,0.544176 16.30284,1.784974 19.98225,2.757328 3.67941,0.972355 11.85057,3.030761 18.15813,4.574238 20.8513,5.102369 36.33031,10.121485 35.36057,11.465786 -0.52563,0.72866 0.33449,2.137734 1.91138,3.131274 4.64705,2.927934 -1.10012,2.077729 -14.33537,-2.120694 z"
       id="path6589"
       inkscape:connector-curvature="0" />
    <path
       style="fill:#5e5ba2"
       d="m 207.38423,460.86273 c -16.60556,-3.00478 -27.57656,-8.14139 -45.572,-21.33678 -9.79287,-7.18075 -19.68791,-12.99245 -22.12102,-12.99245 -6.24002,0 -29.9293,-12.27986 -35.7414,-18.52732 -3.22814,-3.46996 -4.881766,-7.42284 -4.881766,-11.66955 0,-6.3198 0.05327,-6.36047 3.344916,-2.55386 1.83971,2.12752 11.51608,8.51759 21.50305,14.20017 9.98697,5.6826 25.46917,15.42222 34.40488,21.64363 25.83571,17.98787 28.86378,19.44992 46.70579,22.55107 36.75396,6.38829 81.88045,0.75518 115.54822,-14.42379 6.71578,-3.02779 12.5216,-5.50506 12.90183,-5.50506 0.38021,0 0.69131,1.70014 0.69131,3.77809 0,6.44582 -20.55231,15.10151 -52.56301,22.13718 -15.70871,3.45263 -60.96109,5.098 -74.2208,2.69867 z m 15.4458,-10.90746 c 2.36534,-0.4541 6.23589,-0.4541 8.60122,0 2.36534,0.45408 0.43006,0.82561 -4.30061,0.82561 -4.73067,0 -6.66594,-0.37153 -4.30061,-0.82561 z m 30.58212,0 c 2.36533,-0.4541 6.23588,-0.4541 8.60122,0 2.36533,0.45408 0.43006,0.82561 -4.30061,0.82561 -4.73067,0 -6.66595,-0.37153 -4.30061,-0.82561 z m 46.09261,-9.20811 c 8.15945,-3.53083 9.62095,-3.52668 4.92434,0.0133 -2.04063,1.53837 -5.43049,2.79076 -7.53301,2.78306 -2.6466,-0.01 -1.84397,-0.87025 2.60867,-2.79704 z m 19.37222,-7.70688 10.51261,-4.77076 -12.95335,0.82182 c -11.0318,0.69993 -13.86721,0.2007 -19.11382,-3.3654 -3.38826,-2.30297 -11.74754,-7.99285 -18.57618,-12.64414 -6.82865,-4.65131 -17.15011,-12.86664 -22.93659,-18.25631 -17.93899,-16.70883 -25.75564,-23.44965 -27.24547,-23.4956 -2.41446,-0.0745 -1.59546,3.16551 1.43354,5.67109 1.57689,1.3044 2.86707,1.73305 2.86707,0.95255 0,-0.7805 1.29018,-0.35185 2.86707,0.95255 3.17569,2.62692 3.98023,6.62585 0.95856,4.76451 -1.09067,-0.67185 -1.70499,0.60742 -1.43354,2.98525 0.34243,2.99978 -0.69826,4.35233 -3.72931,4.84681 -2.31237,0.37725 -4.72238,-0.14955 -5.35558,-1.17077 -0.67516,-1.08884 0.2731,-1.3558 2.29291,-0.64556 2.72611,0.9586 2.97285,0.70271 1.18345,-1.22733 -2.66067,-2.86981 -9.09881,-1.02949 -7.18665,2.05429 0.93055,1.5007 0.1389,1.48525 -2.74592,-0.0535 -5.39931,-2.88011 -5.10949,-4.73234 1.20287,-7.68741 3.78449,-1.77167 4.4535,-2.72534 2.38923,-3.40591 -1.57689,-0.51991 -4.83552,-2.73123 -7.24139,-4.91407 l -4.37432,-3.96881 -1.10491,4.21129 c -0.6077,2.31616 -2.29478,4.21124 -3.74905,4.21124 -3.34515,0 -3.31932,-1.0121 0.16097,-6.30622 2.5064,-3.81267 2.43893,-4.82347 -0.63361,-9.49187 l -3.43873,-5.22481 -2.32496,5.08598 c -3.17013,6.93478 -6.48532,3.43278 -4.21606,-4.45366 1.25944,-4.37696 0.97035,-7.00363 -1.09415,-9.94142 -2.48049,-3.52976 -2.45948,-4.33796 0.1812,-6.96997 4.22729,-4.21339 3.7235,-5.86497 -0.59956,-1.96554 -3.26058,2.94109 -3.69371,2.95696 -4.76495,0.1745 -0.6481,-1.68334 -2.07903,-2.50583 -3.17985,-1.82771 -1.32006,0.81315 -1.56004,-0.60509 -0.70486,-4.16572 l 1.29662,-5.39862 -3.83344,4.28646 c -4.47227,5.00081 -6.25212,5.40756 -6.25212,1.42883 0,-1.57171 1.19816,-2.85765 2.66258,-2.85765 1.46441,0 3.17481,-1.33046 3.80087,-2.9566 0.62606,-1.62611 0.34995,-2.47096 -0.61359,-1.87743 -0.96353,0.59355 -2.33789,-0.76114 -3.05413,-3.01042 -1.02194,-3.20923 -1.66244,-3.52275 -2.97542,-1.45648 -1.20801,1.90108 -1.68129,1.97105 -1.70242,0.25172 -0.0161,-1.30975 -1.31946,-2.38137 -2.89635,-2.38137 -1.57689,0 -2.86707,-1.33654 -2.86707,-2.97008 0,-1.63355 0.71995,-2.52658 1.59989,-1.98454 2.58953,1.59515 10.2167,-4.72851 9.12459,-7.56516 -1.23254,-3.20138 2.39748,-5.68287 7.16707,-4.8994 2.2981,0.3775 3.22787,-0.31329 2.62815,-1.95264 -0.51042,-1.39524 -1.80746,-2.35177 -2.88231,-2.12565 -1.07485,0.22613 -1.50876,-1.28688 -0.96425,-3.36223 0.75743,-2.88691 0.26234,-3.49507 -2.10742,-2.58869 -1.70358,0.65157 -3.09743,1.95025 -3.09743,2.88596 0,0.93569 -0.86012,1.70127 -1.91138,1.70127 -3.61195,0 -1.90818,-5.13458 2.38923,-7.20033 3.18203,-1.52959 3.47438,-2.10081 1.124,-2.19622 -2.21859,-0.0901 -3.02018,-1.5493 -2.65791,-4.8386 0.28528,-2.59032 -0.22052,-4.25431 -1.12401,-3.69775 -0.90348,0.55653 -1.64269,2.23885 -1.64269,3.73846 0,2.17934 -0.77355,2.06642 -3.8542,-0.56265 -3.81497,-3.25573 -3.78093,-3.35175 3.34492,-9.4353 3.95952,-3.38036 6.12396,-6.17828 4.80989,-6.21762 -1.31408,-0.0392 -2.44375,1.00008 -2.51038,2.30983 -0.0666,1.30976 -0.94524,0.328 -1.95245,-2.18168 -1.00721,-2.50968 -1.38275,-5.01011 -0.83453,-5.55653 0.54821,-0.54642 0.99675,0.13956 0.99675,1.5244 0,1.82085 1.00574,1.6107 3.63301,-0.75915 2.37818,-2.14513 4.0676,-2.57612 4.89126,-1.2478 0.69204,1.11607 2.28264,2.00314 3.53467,1.97126 1.25204,-0.0318 0.77121,-0.93174 -1.06849,-1.99976 -4.13317,-2.39943 -4.2165,-4.42182 -0.34132,-8.28425 2.54436,-2.53599 2.57562,-2.99373 0.20449,-2.99373 -3.33994,0 -6.21754,-6.30301 -3.31748,-7.26653 1.11142,-0.36925 2.02077,-2.24308 2.02077,-4.16405 0,-1.92096 1.07515,-3.92509 2.38923,-4.45358 1.31407,-0.52849 0.43266,-1.02858 -1.95869,-1.1113 -2.83011,-0.0979 -4.99865,-1.85632 -6.21199,-5.03717 -2.3862,-6.25554 -2.45907,-5.94435 1.64218,-7.01332 1.92844,-0.50264 5.53808,-3.75795 8.02143,-7.23403 2.48335,-3.47607 3.39375,-5.62933 2.02312,-4.78502 -1.89936,1.17001 -2.16904,0.4589 -1.13391,-2.98992 1.33679,-4.45386 1.30771,-4.46511 -1.84835,-0.71485 -1.76358,2.09561 -2.75672,2.8915 -2.20699,1.76865 1.26619,-2.58622 -4.91532,-7.99388 -7.97559,-6.97714 -1.26354,0.41979 -2.29735,-0.195 -2.29735,-1.36621 0,-1.45378 -3.03245,-1.72852 -9.55691,-0.86587 -6.25145,0.82656 -9.55691,0.56562 -9.55691,-0.75443 0,-1.10992 1.93527,-2.40511 4.30061,-2.87821 2.36533,-0.47311 -0.73,-0.40475 -6.87853,0.15189 -6.14853,0.55664 -11.73932,0.22133 -12.42398,-0.74514 -0.68467,-0.96648 -3.61018,-3.25746 -6.50115,-5.09107 -5.90398,-3.74462 -7.0031,-8.93103 -1.91138,-9.01921 3.17623,-0.055 3.17547,-0.15628 -0.0151,-2.00821 -1.84803,-1.07265 -4.4284,-1.31066 -5.73415,-0.52892 -1.58471,0.94876 -1.50186,0.34961 0.24918,-1.80199 2.30416,-2.83127 2.14297,-3.22333 -1.32519,-3.22333 -2.17163,0 -5.07235,-1.54756 -6.44603,-3.43901 -1.37369,-1.89146 -5.44065,-4.26184 -9.0377,-5.26751 -3.59705,-1.00568 -6.85648,-2.77458 -7.24319,-3.9309 -1.15864,-3.46449 28.25319,6.95372 39.1462,13.86631 5.53953,3.51532 10.84362,6.39149 11.78686,6.39149 0.94324,0 2.0727,1.0696 2.5099,2.3769 0.58661,1.75405 2.6539,1.37965 7.88928,-1.42883 7.47569,-4.01026 6.68902,-2.27374 15.66556,-34.58047 1.50049,-5.40028 2.72816,-12.09134 2.72816,-14.86902 0,-6.62823 6.78159,-21.31593 10.90354,-23.6151 4.36683,-2.43577 -2.66853,-5.30554 -45.14397,-18.41452 -18.3066,-5.649875 -33.90766,-11.277106 -34.66902,-12.50496 -0.76136,-1.227852 -2.13634,-1.769196 -3.05551,-1.202985 -0.91917,0.56621 -3.76377,-0.08674 -6.32134,-1.451009 -4.29587,-2.291523 -3.71162,-2.527326 7.66952,-3.095418 23.78349,-1.187155 40.95151,-0.179129 47.68019,2.799562 3.67941,1.628822 5.39966,3.055305 3.82277,3.169961 -1.961,0.142578 -1.65897,0.725903 0.95569,1.845767 5.14188,2.202274 7.13733,2.262936 5.84431,0.177669 -0.58912,-0.950087 0.72301,-1.259795 2.91585,-0.688241 2.59755,0.677041 3.21084,1.517293 1.75984,2.411109 -2.97448,1.832288 8.53325,4.083867 12.70923,2.486662 2.00084,-0.765272 2.73283,-0.468629 1.95179,0.79097 -0.72241,1.165035 0.95995,2.449403 3.98706,3.043862 11.82652,2.322465 22.95635,5.834658 31.67245,9.994736 8.89613,4.245995 14.65906,4.413695 14.65906,0.426553 0,-1.047803 1.27986,-1.41558 2.84414,-0.817285 1.56429,0.598296 2.75262,0.475693 2.64072,-0.27245 -0.56389,-3.770754 0.65674,-3.638597 4.83227,0.523186 2.52063,2.512346 4.98494,5.688231 5.47622,7.057521 0.53064,1.47894 2.35585,-0.21723 4.49609,-4.178227 1.98156,-3.667311 6.88716,-9.904161 10.90133,-13.859666 5.68182,-5.598788 8.43383,-7.004962 12.42399,-6.34822 2.81902,0.463982 8.89209,0.914101 13.49575,1.000261 l 8.37025,0.156656 -1.29749,11.43058 c -1.15445,10.170526 -0.9183,11.454946 2.14234,11.651576 2.92436,0.18788 2.96883,0.34575 0.29676,1.05349 -3.15756,0.83634 -3.77634,3.46398 -6.57649,27.9276 -1.05214,9.19195 -2.05252,11.4586 -5.81045,13.1652 -3.04049,1.38078 -4.5395,3.65613 -4.5395,6.89051 0,2.65593 -2.15009,7.06581 -4.77797,9.79972 -6.09796,6.34395 -9.91249,31.14391 -6.43889,41.86212 3.42397,10.56519 9.27825,21.46668 14.77207,27.50775 l 5.04601,5.54864 -5.24735,-3.64354 c -4.7228,-3.27932 -14.82216,-20.53279 -14.82216,-25.32176 0,-1.05085 -1.00628,-2.53051 -2.2362,-3.28814 -1.4969,-0.92209 -1.83862,-0.34485 -1.03366,1.74598 0.66142,1.71792 -0.13666,6.31813 -1.77347,10.22269 -2.37816,5.67306 -2.55449,8.50151 -0.87773,14.07966 2.85956,9.513 2.49594,11.52823 -0.83604,4.63331 -1.51905,-3.14341 -2.31378,-3.88489 -1.76608,-1.64774 1.21222,4.95138 -2.99536,15.12725 -4.95088,11.97355 -0.77711,-1.25325 -2.74199,1.48638 -4.66434,6.50343 -3.06127,7.9895 -3.08757,9.35345 -0.33539,17.40405 1.64239,4.80435 2.17028,8.23257 1.17307,7.61829 -0.99721,-0.61428 -1.8131,-2.30162 -1.8131,-3.74965 0,-1.44803 -0.64509,-3.03015 -1.43354,-3.51584 -1.29733,-0.79917 -1.70479,1.01801 -2.60389,11.6125 -0.49069,5.78191 1.79391,23.16695 3.37535,25.68539 0.83399,1.32814 1.62685,5.51783 1.76191,9.31042 0.13513,3.79259 1.44804,8.59084 2.91778,10.66277 2.98898,4.21371 18.94595,18.2725 25.87776,22.79945 2.48023,1.61977 4.50951,4.18297 4.50951,5.69601 0,1.51303 0.8007,2.25775 1.7793,1.65492 0.97863,-0.60285 2.31958,-0.22478 2.97989,0.84011 0.6603,1.06489 0.0747,1.99912 -1.30146,2.07606 -1.37612,0.077 -5.6969,0.41585 -9.60173,0.75312 -4.90366,0.42358 -7.83122,-0.35629 -9.46473,-2.52124 -1.96953,-2.61032 -1.92809,-2.74736 0.24777,-0.81944 2.07804,1.84124 3.12255,1.64629 5.10334,-0.95255 3.05704,-4.01091 3.25997,-6.12526 0.5879,-6.12526 -1.1133,0 -1.40546,1.07161 -0.64924,2.38137 0.75622,1.30975 0.87864,1.95272 0.27208,1.42882 -0.60657,-0.5239 -0.95949,-1.46376 -0.78429,-2.08858 0.46863,-1.67117 -4.65238,-7.4369 -6.6053,-7.4369 -0.92255,0 -1.67735,1.28594 -1.67735,2.85764 0,1.57171 -0.86012,2.85765 -1.91138,2.85765 -1.05126,0 -2.49505,0 -3.20839,0 -0.71337,0 -1.35846,-3.57206 -1.43354,-7.93791 -0.13896,-8.07916 -3.91269,-12.12291 -6.07416,-6.50875 -0.63867,1.65885 -2.89473,3.01608 -5.0135,3.01608 -3.02052,0 -3.38915,-0.55625 -1.70719,-2.57621 2.74945,-3.30199 1.84789,-14.98614 -1.2354,-16.01051 -1.29305,-0.4296 -2.87355,0.57614 -3.5122,2.23497 -1.39008,3.61054 -6.68567,3.94454 -10.06337,0.6347 -1.33659,-1.30975 -2.26688,-1.52408 -2.06732,-0.47628 0.19959,1.04781 0.23367,3.19104 0.0757,4.76275 -0.22304,2.21968 -0.96262,2.00704 -3.31277,-0.95255 -1.66409,-2.09561 -2.65329,-2.56335 -2.19821,-1.03942 0.45508,1.52392 -1.30528,4.59921 -3.91191,6.83396 l -4.73933,4.06319 11.89834,0.11164 c 9.24807,0.0869 12.50296,0.8985 14.61284,3.64407 2.85447,3.71448 7.1102,16.17276 7.68698,22.50294 0.18694,2.05141 1.30884,4.05176 2.49315,4.44522 1.18431,0.39348 2.15331,2.34876 2.15331,4.34507 0,4.39251 5.74571,11.51136 8.11364,10.0527 2.37686,-1.46416 7.04356,5.17213 7.11663,10.12016 0.0434,2.9404 2.4176,5.25369 8.30977,8.09666 4.53696,2.18909 9.26763,3.98015 10.51261,3.98015 1.24499,0 2.26361,0.71243 2.26361,1.58317 0,0.87075 2.16672,2.73896 4.81492,4.15157 3.58874,1.91432 4.19719,3.00087 2.38923,4.2666 -3.53506,2.47487 31.54295,-0.25652 46.0614,-3.58661 6.69397,-1.53542 12.60129,-2.36261 13.12738,-1.83825 1.17731,1.17344 -2.88034,2.20498 -27.2096,6.91722 l -19.11382,3.70206 14.33537,-0.82623 c 15.93542,-0.91846 30.684,-4.42098 44.59848,-10.59134 11.15328,-4.94594 10.75908,-7.14806 -0.47742,-2.66689 -13.66239,5.44863 -9.93139,2.10269 6.78671,-6.08629 16.54572,-8.10453 20.57621,-9.1863 9.77861,-2.62452 -3.4166,2.07629 -5.48458,3.77828 -4.59552,3.78219 0.88906,0.004 4.08804,-1.44806 7.10887,-3.22664 6.26352,-3.68779 8.4404,-2.65342 6.59725,3.13472 -2.44087,7.66519 -40.4459,23.5217 -62.27774,25.98356 -6.28514,0.70875 -11.87398,2.00862 -12.41965,2.8886 -1.22343,1.97305 -17.71914,9.35745 -20.66838,9.25231 -1.18043,-0.0421 2.58442,-2.22336 8.36635,-4.84729 z M 247.9589,314.84882 c -1.12393,-1.34982 -1.44942,-3.41235 -0.72329,-4.58341 0.83367,-1.34445 -0.0921,-1.25007 -2.5118,0.2561 -2.17537,1.35406 -3.42206,3.67983 -2.88372,5.37965 0.52159,1.64692 1.35733,4.28031 1.85717,5.85202 0.75077,2.3606 1.37815,2.22212 3.60701,-0.79626 1.94775,-2.63764 2.12981,-4.33646 0.65463,-6.1081 z m -7.44858,3.51624 c 0,-0.36992 -0.80941,-2.17999 -1.79869,-4.02239 -0.98927,-1.8424 -2.24471,-7.03803 -2.78985,-11.54587 -0.54515,-4.50784 -1.32392,-8.52773 -1.73061,-8.93308 -0.40668,-0.40536 -3.9134,0.58479 -7.79269,2.20033 -6.75809,2.81444 -6.93035,3.11226 -4.11624,7.11676 1.61536,2.29865 2.93702,6.48906 2.93702,9.31202 0,2.82295 1.07515,5.56341 2.38923,6.08992 2.60546,1.04392 12.90183,0.87019 12.90183,-0.21769 z m 3.75502,-22.8231 c 0.0575,-3.65931 -0.44286,-3.98479 -3.34727,-2.17692 -2.53449,1.57762 -3.21051,3.8716 -2.62188,8.89711 0.79141,6.75671 0.79869,6.76144 3.34729,2.17692 1.40477,-2.52698 2.58463,-6.53067 2.62186,-8.89711 z m -2.79933,-9.98562 c 0,-4.23795 -3.93957,-4.1461 -4.26041,0.0993 -0.17451,2.30851 0.65031,3.64023 1.98072,3.19822 1.25383,-0.41651 2.27969,-1.90041 2.27969,-3.29747 z m -3.94593,-9.72413 c -1.24563,-2.00885 4.01828,-13.38245 5.50692,-11.8987 0.71835,0.71599 1.30608,0.30162 1.30608,-0.92081 0,-1.22244 -2.1335,-2.22262 -4.74112,-2.22262 -4.1839,0 -4.65942,0.69953 -4.04586,5.95179 0.53308,4.56345 -0.13934,6.16935 -2.8829,6.88443 -4.49175,1.17076 -2.90003,4.16222 2.01819,3.79295 2.00899,-0.15088 3.28639,-0.86501 2.83869,-1.58704 z m 6.813,-36.28969 c 0,-3.58362 -4.03793,-1.29756 -5.78145,3.27316 -2.71344,7.11339 -2.3246,7.65606 1.95869,2.73363 2.10252,-2.41626 3.82276,-5.11932 3.82276,-6.00679 z m 7.75381,-8.88049 c -1.4124,-0.46926 -0.96636,-1.68755 1.22395,-3.34297 3.2415,-2.4499 3.19073,-2.60824 -0.85438,-2.66523 -3.55466,-0.0501 -4.30061,0.97121 -4.30061,5.88797 0,5.25172 0.36043,5.65042 3.07665,3.40356 2.0573,-1.7018 2.34038,-2.78963 0.85439,-3.28333 z m -5.23164,-8.10778 c 4.00952,-0.12882 4.02262,-0.19207 0.34491,-1.66671 -5.18878,-2.08053 -6.73742,-0.81673 -6.42955,5.24696 0.22799,4.49012 0.36314,4.59442 1.08863,0.84012 0.5456,-2.82333 2.25094,-4.33218 4.99601,-4.42037 z m -0.10532,-6.72019 c 1.37165,-1.36718 -0.37356,-6.48159 -2.21176,-6.48159 -0.71351,0 -1.29731,1.71459 -1.29731,3.81019 0,3.80193 1.3464,4.82692 3.50903,2.6714 z m 9.44043,-8.39873 c 2.09086,-3.66244 2.47312,-5.70325 1.06818,-5.70325 -1.2033,0 -0.60605,-1.1528 1.3272,-2.56178 3.3742,-2.45916 3.35666,-2.60307 -0.43807,-3.59215 -2.9829,-0.77748 -4.22457,0.0479 -5.05937,3.36296 -0.60845,2.41631 -0.53083,5.888 0.1726,7.71485 0.87155,2.26375 0.56665,2.88286 -0.95739,1.94405 -1.34217,-0.82673 -2.23628,-0.18997 -2.23628,1.59258 0,4.63816 2.55882,3.48591 6.12309,-2.75726 z m -73.54434,-16.38488 c -0.67302,-0.67081 -2.74188,-0.63898 -4.59746,0.0707 -2.86157,1.09447 -2.94906,1.55202 -0.57626,3.01367 2.93017,1.80498 7.40356,-0.8619 5.17372,-3.08441 z m 71.7494,-20.93872 c 1.37168,-1.36717 -0.37352,-6.48158 -2.21172,-6.48158 -0.71352,0 -1.29731,1.71459 -1.29731,3.81019 0,3.80193 1.3464,4.82692 3.50903,2.67139 z m 12.87425,-0.35805 c 0,-0.82328 -1.72025,-1.49687 -3.82277,-1.49687 -2.10252,0 -3.82276,0.67359 -3.82276,1.49687 0,0.82327 1.72024,1.49686 3.82276,1.49686 2.10252,0 3.82277,-0.67359 3.82277,-1.49686 z m 22.93658,-17.91823 c 0,-0.84754 -0.86012,-1.54098 -1.91138,-1.54098 -1.05126,0 -1.91138,0.78718 -1.91138,1.74929 0,0.9621 -0.50029,3.31966 -1.11174,5.23901 -1.01729,3.19337 -0.85498,3.17568 1.91138,-0.20831 1.66272,-2.03392 3.02312,-4.39147 3.02312,-5.23901 z m -20.3277,-1.95737 c -1.64153,-2.64732 -4.41793,0.37058 -3.2151,3.49478 0.88908,2.3093 1.47074,2.4201 2.65747,0.50623 0.8356,-1.34758 1.08653,-3.14803 0.55763,-4.00101 z m -30.59876,-40.06691 c 1.62078,-3.92926 2.33886,-7.14412 1.59577,-7.14412 -0.74308,0 -2.77964,3.95966 -4.52569,8.79924 -3.67624,10.18955 -1.43317,8.92244 2.92992,-1.65512 z m 62.9796,-22.803803 c 2.70224,-4.307486 2.76587,-4.996247 0.37719,-4.082643 -1.58037,0.604457 -2.87342,1.794468 -2.87342,2.644471 0,0.850002 -0.5671,3.115839 -1.26023,5.035193 -1.51855,4.205042 -0.56556,3.292497 3.75646,-3.597021 z M 141.11845,413.8599 c -4.13377,-1.85313 -5.69249,-3.36917 -4.07955,-3.96784 1.43566,-0.53286 3.33956,0.20727 4.23089,1.64474 0.89134,1.43746 1.86701,2.2367 2.16817,1.77609 0.30116,-0.46062 2.26781,0.15621 4.37033,1.37089 5.57433,3.22024 1.103,2.66957 -6.68984,-0.82388 z m -9.55691,-9.01591 c 0,-1.45119 -2.09442,-4.00634 -4.65427,-5.6781 -10.57123,-6.90377 -20.2468,-20.60383 -20.13557,-28.51086 0.0539,-3.8318 0.20553,-3.87941 2.08658,-0.65528 1.11566,1.91224 1.52413,3.97948 0.90773,4.59386 -1.69013,1.68458 11.48155,10.02776 15.83117,10.02776 2.12009,0 4.33237,1.68637 5.01194,3.82048 0.66912,2.10124 3.52247,6.56388 6.3408,9.91696 2.81832,3.35307 4.04299,5.43734 2.72149,4.63171 -1.45331,-0.88598 -2.85583,-0.2879 -3.54941,1.51362 -1.41928,3.68642 -4.56046,3.9205 -4.56046,0.33985 z m 5.73415,-44.98888 c 0,-1.0478 1.29018,-1.9051 2.86707,-1.9051 1.57689,0 2.86707,0.8573 2.86707,1.9051 0,1.0478 -1.29018,1.9051 -2.86707,1.9051 -1.57689,0 -2.86707,-0.8573 -2.86707,-1.9051 z m -10.12797,-3.10931 c -2.69941,-2.69053 -1.2291,-4.76034 2.96028,-4.1673 2.36534,0.33482 4.23945,1.46607 4.16469,2.51387 -0.16555,2.32014 -5.26805,3.50425 -7.12497,1.65343 z m 58.40564,-3.93136 c -1.86593,-0.69724 -1.88128,-1.77151 -0.0718,-5.01987 1.26621,-2.27303 2.04778,-4.99007 1.73683,-6.03788 -0.31095,-1.0478 0.008,-1.33357 0.7089,-0.63502 0.70084,0.69852 1.33225,1.98446 1.40314,2.85764 0.0709,0.87316 1.08466,2.44487 2.25283,3.49267 1.16817,1.04781 1.76863,1.70409 1.33436,1.45843 -0.43427,-0.24566 -1.73475,0.72735 -2.88996,2.16223 -1.1552,1.43488 -3.16865,2.2097 -4.47433,1.7218 z M 168.5977,300.79711 c 0.006,-6.81072 0.33848,-9.97213 0.73941,-7.02537 0.58022,4.26443 1.25859,4.91967 3.3243,3.21091 1.9996,-1.65406 3.04557,-1.3083 4.5569,1.50634 1.71712,3.19792 1.39336,3.54491 -2.59799,2.78443 -3.97174,-0.75674 -4.65455,-0.0451 -5.29631,5.51903 -0.40521,3.51329 -0.73205,0.81538 -0.72631,-5.99534 z m -9.32112,-40.00703 c -5.66457,-1.43665 -5.6458,-1.45704 1.54634,-1.6797 4.41612,-0.13679 6.81573,0.52413 6.09919,1.6797 -0.64972,1.0478 -1.34557,1.80367 -1.54634,1.67971 -0.20078,-0.12399 -2.94541,-0.87985 -6.09919,-1.67971 z m 18.15813,-11.43058 c 0,-3.55619 0.5097,-4.0642 2.29366,-2.28611 1.78395,1.77808 1.78395,2.79414 0,4.57223 -1.78396,1.77808 -2.29366,1.27007 -2.29366,-2.28612 z m -15.29106,-11.63441 c 0,-1.15989 -1.15315,-1.66787 -2.56256,-1.1288 -1.4094,0.53906 -3.77474,0.21525 -5.2563,-0.71956 -1.98868,-1.25479 -1.41358,-1.70729 2.19724,-1.72884 2.69004,-0.0152 6.56059,1.22952 8.60122,2.7679 3.35714,2.53086 3.39191,2.80282 0.36532,2.85765 -1.8397,0.0333 -3.34492,-0.88843 -3.34492,-2.04835 z m 14.84884,-2.78723 c 0.55864,-2.91276 1.63809,-4.19943 2.66468,-3.17622 1.86473,1.8586 0.20059,8.07238 -2.1619,8.07238 -0.79301,0 -1.01926,-2.20328 -0.50278,-4.89616 z M 164.05503,221.7356 c -1.3087,-1.57171 -4.20941,-2.88372 -6.44603,-2.91558 -3.57166,-0.0509 -3.67578,-0.28516 -0.85556,-1.92506 3.90566,-2.27107 13.03574,1.33344 13.03574,5.14644 0,3.38771 -2.78223,3.23934 -5.73415,-0.3058 z m 16.50672,-11.96387 c -0.64546,-1.04095 0.10715,-2.95204 1.67246,-4.24686 3.10772,-2.5707 3.75671,-0.55464 1.1443,3.55472 -0.99814,1.57009 -2.10389,1.84179 -2.81676,0.69214 z m 167.82072,-87.51706 c -3.08726,-4.90181 -7.65015,-11.52864 -10.13973,-14.72627 -3.08317,-3.96004 -2.47369,-3.59639 1.91139,1.14044 6.76805,7.31097 15.66113,20.68463 14.51457,21.82742 -0.37015,0.36894 -3.19896,-3.33978 -6.28623,-8.24159 z m -30.93902,-20.95215 c 2.89096,-0.4365 7.62163,-0.4365 10.5126,0 2.89096,0.4365 0.52563,0.79365 -5.2563,0.79365 -5.78193,0 -8.14727,-0.35715 -5.2563,-0.79365 z M 225.21926,85.510903 c -4.73067,-1.931647 -18.48359,-6.642806 -30.56205,-10.469246 -12.07846,-3.826438 -23.04501,-7.853992 -24.37012,-8.950118 -2.93541,-2.428162 -3.14529,-5.336612 -0.3851,-5.336612 1.1133,0 1.54438,0.773784 0.95796,1.719519 -1.22655,1.978066 8.9059,5.900868 15.24171,5.900868 5.32473,0 22.99104,5.083749 30.1282,8.669847 3.35393,1.685198 4.83961,1.869487 3.98706,0.494573 -0.91584,-1.476981 -0.27089,-1.775394 1.97804,-0.915235 1.83533,0.701965 4.12673,1.276299 5.09202,1.276299 0.96526,0 1.54002,1.071616 1.2772,2.38137 -0.267,1.330657 0.99801,2.134381 2.86707,1.821583 1.83971,-0.307882 3.34492,0.335088 3.34492,1.428823 0,1.093735 1.50522,2.001738 3.34492,2.017783 2.85857,0.02494 2.92805,0.297692 0.47785,1.875924 -3.51779,2.265894 -2.93541,2.349264 -13.37968,-1.915378 z m 39.18333,-11.271652 -9.55691,-3.366241 8.89519,0.179975 c 4.89236,0.09899 8.02049,0.719168 6.95141,1.378183 -1.06909,0.659015 0.51887,2.091598 3.5288,3.183517 3.00991,1.09192 4.18239,1.986546 2.6055,1.988058 -1.57689,0.0015 -7.16768,-1.512058 -12.42399,-3.363492 z M 217.57373,62.67765 c -36.18889,-8.257839 -48.45125,-11.438395 -47.49964,-12.320245 0.36893,-0.341888 4.97139,0.110759 10.22769,1.005881 5.2563,0.895123 16.00783,2.58559 23.89228,3.756595 7.88445,1.171004 14.60129,2.855806 14.92632,3.744004 0.32502,0.888197 3.37638,1.164378 6.78079,0.613735 3.57409,-0.578088 9.26617,0.279981 13.46962,2.030518 4.00389,1.667428 7.87457,2.665298 8.60153,2.21749 0.72695,-0.447808 2.57086,-0.0266 4.09756,0.936024 2.23699,1.410482 2.03377,1.781875 -1.04696,1.913292 -3.82276,0.163076 -3.82276,0.163076 0,1.80037 7.13494,3.055905 -1.63278,1.562431 -33.44919,-5.697664 z"
       id="path6587"
       inkscape:connector-curvature="0" />
    <path
       style="fill:#333363"
       d="m 211.83959,460.96016 c -6.55613,-1.11877 -7.2757,-1.53578 -3.02636,-1.75389 7.16684,-0.36784 5.94104,-1.35883 -3.66348,-2.96172 -5.78703,-0.96579 -6.94859,-0.76759 -4.77846,0.8154 2.19021,1.59765 1.28773,1.79715 -3.82276,0.84508 -3.67941,-0.68546 -7.54996,-2.31298 -8.60122,-3.61671 -1.05126,-1.30376 -2.83728,-2.05901 -3.96893,-1.67839 -1.13165,0.38062 -4.24106,-1.25872 -6.90979,-3.64299 -2.66873,-2.38426 -5.76447,-4.52811 -6.87941,-4.76409 -4.03084,-0.85314 -23.2332,-16.29483 -22.24504,-17.88844 0.55727,-0.89873 -1.82568,-1.29598 -5.29546,-0.8828 -10.44505,1.24382 -45.494216,-18.58192 -40.91648,-23.1446 0.75155,-0.74909 2.16665,-0.10078 3.14465,1.4405 1.37128,2.16118 1.78488,2.21673 1.80745,0.24274 0.0161,-1.40784 -1.69097,-3.00809 -3.79349,-3.55611 -2.10252,-0.54802 -3.822766,-2.22353 -3.822766,-3.72336 0,-1.90244 2.560336,-0.97119 8.467756,3.07984 4.65727,3.19374 9.31626,5.80681 10.35332,5.80681 1.03706,0 2.17227,0.64297 2.52269,1.42882 0.35042,0.78586 5.3678,3.9245 11.14973,6.97475 14.39193,7.5925 26.84482,16.58869 25.64382,18.52556 -0.54692,0.88203 0.25122,1.12727 1.77363,0.54498 1.52242,-0.58228 3.93243,0.49915 5.35558,2.4032 1.42314,1.90403 3.79555,3.72035 5.27201,4.03625 3.56268,0.76227 10.6952,5.80327 10.6952,7.55899 0,0.76567 0.86012,1.44896 1.91138,1.51842 6.0926,0.40254 14.52887,3.33984 12.74627,4.43792 -1.15393,0.71083 13.13859,1.51476 31.76117,1.78654 24.76277,0.36138 38.09675,-0.31731 49.6323,-2.52623 17.56692,-3.36385 43.37421,-11.50349 49.16138,-15.50551 4.98245,-3.44556 8.65376,-3.30553 8.65376,0.33008 0,1.77412 -4.90143,5.12922 -12.37712,8.47231 -11.1101,4.96836 -18.69689,7.17057 -46.45864,13.48545 -10.94616,2.48991 -52.73069,3.74765 -63.49269,1.9112 z M 112.50352,408.5021 c -1.32018,-1.5855 -3.21446,-2.3812 -4.20952,-1.76826 -0.99505,0.61297 -0.25385,2.24802 1.64711,3.63346 4.27716,3.11725 5.79261,2.01415 2.56241,-1.8652 z m 185.45012,16.51719 c -9.00179,-4.90799 -9.96966,-8.38054 -1.67496,-6.00948 15.07034,4.3079 55.22888,0.26523 76.62468,-7.71364 5.62937,-2.09928 15.0788,-6.72394 20.99872,-10.27702 5.91993,-3.55307 11.21362,-6.0115 11.76375,-5.46317 2.28167,2.27419 -3.29505,8.17671 -12.71151,13.45409 -18.7141,10.48823 -42.64879,16.6663 -71.81321,18.53661 -13.99443,0.89746 -17.63338,0.50082 -23.18747,-2.52739 z m -26.91375,-18.79982 c -2.59925,-1.7425 -10.8449,-9.00509 -18.32364,-16.13912 -12.66568,-12.08188 -13.41157,-13.23585 -10.88205,-16.83536 3.63445,-5.17186 8.2178,-4.93862 8.29381,0.42207 0.0793,5.58944 3.9984,10.5774 7.41148,9.43275 1.74511,-0.58527 2.31977,0.068 1.63175,1.85514 -0.64655,1.67934 1.10164,4.20339 4.46837,6.45152 3.04175,2.03111 5.5354,4.55022 5.54144,5.59803 0.006,1.0478 2.5278,3.58573 5.60389,5.63986 3.0761,2.05412 5.17317,4.41167 4.66016,5.23902 -1.37364,2.21527 -3.14042,1.86551 -8.40521,-1.66391 z m -42.95356,-19.69301 c -0.64971,-1.0478 -0.77082,-1.90509 -0.26912,-1.90509 0.50168,0 2.28244,-0.52409 3.95723,-1.16466 2.22875,-0.85244 2.72825,-0.34172 1.86322,1.90509 -1.33831,3.47614 -3.79805,3.99219 -5.55133,1.16466 z m -2.3555,-9.68652 c -0.76449,-2.9138 -1.4492,-3.31443 -2.57144,-1.50458 -2.02806,3.27068 -9.40842,-3.12654 -9.40842,-8.15513 0,-4.62525 3.91316,-4.53446 5.13411,0.11907 0.52441,1.99873 2.50889,4.03947 4.40997,4.53496 4.09598,1.06762 9.06106,8.97684 5.63527,8.97684 -1.18666,0 -2.62643,-1.78706 -3.19949,-3.97123 z m -31.09368,-12.97081 c 0,-0.93571 1.14683,-2.1399 2.54851,-2.67601 1.40168,-0.53612 2.54851,0.22947 2.54851,1.70127 0,1.4718 -1.14683,2.67601 -2.54851,2.67601 -1.40168,0 -2.54851,-0.76558 -2.54851,-1.70127 z m 9.71809,-4.6154 c -4.42525,-4.4107 -2.30813,-7.46327 4.61727,-6.65744 3.67941,0.42815 6.68984,0.49441 6.68984,0.14727 0,-0.34715 -1.24629,-3.60418 -2.76954,-7.23785 -2.41847,-5.76918 -2.41847,-6.60666 0,-6.60666 1.52325,0 2.76954,0.90789 2.76954,2.01753 0,1.10965 0.73725,1.56338 1.63833,1.00831 0.90108,-0.55507 1.63833,2.89028 1.63833,7.6563 0,4.76604 -0.52222,7.9558 -1.16049,7.08835 -2.11546,-2.87506 -6.4614,-2.82446 -5.34999,0.0623 1.31231,3.40858 -5.15636,5.42922 -8.07329,2.52189 z m 79.16118,-11.89192 c -3.56328,-3.01632 -4.22739,-4.13398 -1.75419,-2.95219 3.55278,1.69767 9.99685,7.83953 8.20021,7.81564 -0.39153,-0.006 -3.29224,-2.19376 -6.44602,-4.86345 z m -87.72284,-0.0554 c -1.47285,-3.82557 4.55531,-12.08031 8.87832,-12.1577 3.89075,-0.0697 3.92546,0.0753 1.52503,6.36813 -2.41077,6.31997 -8.82488,9.88947 -10.40335,5.78957 z m -5.78637,-7.75603 c -1.54723,-4.01876 -1.62182,-3.91872 3.67425,-4.9278 5.72323,-1.09047 6.07972,0.41408 1.10421,4.66023 -3.21678,2.74525 -3.81173,2.77855 -4.77846,0.26757 z m 69.61693,-3.50894 c 1.3087,-1.5717 2.7042,-2.85764 3.1011,-2.85764 0.39692,0 0.72166,1.28594 0.72166,2.85764 0,1.57171 -1.3955,2.85765 -3.1011,2.85765 -2.53984,0 -2.67045,-0.51722 -0.72166,-2.85765 z m -51.12947,-2.21425 c -1.31408,-0.5285 -2.38923,-3.8394 -2.38923,-7.35756 0,-3.51815 -0.74936,-6.85826 -1.66524,-7.42243 -0.91588,-0.5642 -1.36712,-3.57777 -1.00276,-6.69684 0.36436,-3.11908 -0.17646,-6.18783 -1.20184,-6.81946 -1.10736,-0.68214 -1.86431,2.37804 -1.86431,7.53694 0,5.59801 0.84929,8.73883 2.38923,8.83578 1.89273,0.11907 1.8959,0.34904 0.0153,1.10624 -1.63586,0.65865 -1.81653,1.99395 -0.58108,4.29481 1.23597,2.30185 1.08279,3.42774 -0.49312,3.62471 -1.25729,0.15717 -5.08138,0.82596 -8.49798,1.48628 -7.06848,1.36613 -8.25986,-1.43915 -3.04868,-7.17852 1.73983,-1.91616 2.22065,-3.48392 1.0685,-3.48392 -1.15215,0 -2.68316,0.94881 -3.40224,2.10848 -1.96822,3.1742 -4.58834,-1.94668 -4.62307,-9.03553 -0.0241,-4.92145 1.10345,-6.51023 6.39726,-9.01404 7.48741,-3.54133 9.82541,-6.08875 11.59664,-12.63536 1.24624,-4.6062 1.19325,-4.63752 -1.61226,-0.95255 -6.94864,9.12686 -7.30751,9.32735 -10.03658,5.6074 -3.38986,-4.62068 -3.22388,-9.42788 0.45204,-13.09171 1.65196,-1.64655 2.13278,-2.99372 1.06848,-2.99372 -1.06431,0 -2.52345,0.94881 -3.24253,2.10848 -1.97487,3.1849 -4.58844,-1.95613 -4.62307,-9.09385 -0.016,-3.31803 1.04589,-6.53288 2.35996,-7.14411 1.91139,-0.88903 1.91139,-1.33357 0,-2.2226 -1.31407,-0.61123 -2.38922,-1.94775 -2.38922,-2.97008 0,-1.02233 1.07463,-1.1968 2.38807,-0.38771 1.31345,0.80908 4.66864,1.23262 7.45599,0.94121 5.68924,-0.5948 7.18879,0.96985 7.78254,8.12044 0.22529,2.71311 1.08049,4.93293 1.90045,4.93293 0.81996,0 1.15195,-3.6435 0.73774,-8.09667 -0.41421,-4.45316 0.46722,-11.03447 1.95874,-14.62514 2.17796,-5.2432 2.23287,-6.83146 0.27891,-8.06749 -3.72256,-2.3548 -4.60218,-1.99007 -8.1252,3.36905 -2.45806,3.73915 -3.80733,4.42571 -5.46015,2.77831 -1.4176,-1.41293 -1.52384,-2.66614 -0.2999,-3.53757 1.04248,-0.74222 1.89541,-2.54201 1.89541,-3.9995 0,-4.30482 6.10495,-7.20352 10.02815,-4.76151 2.94607,1.83381 3.3914,1.25594 3.68113,-4.77663 0.1813,-3.77455 0.45133,-9.30843 0.60011,-12.2975 0.14876,-2.98907 -0.21459,-5.91816 -0.80746,-6.50908 -1.95074,-1.94432 -3.52986,1.2699 -3.73914,7.61084 -0.11323,3.43091 -1.066,6.86786 -2.11726,7.63767 -1.18374,0.86681 -1.00182,1.41075 0.47784,1.42882 1.31408,0.016 2.38923,0.83318 2.38923,1.81587 0,0.98268 -1.50521,1.72552 -3.34492,1.65072 -1.83971,-0.0747 -4.85013,0.49887 -6.68984,1.27478 -2.0236,0.85346 -3.34492,0.57766 -3.34492,-0.69818 0,-1.15992 0.72377,-2.10892 1.60837,-2.10892 0.88459,0 1.02656,-3.82096 0.31549,-8.49103 -0.71108,-4.67006 -0.57472,-8.04864 0.30302,-7.50795 0.87774,0.54069 1.59589,-0.14725 1.59589,-1.52874 0,-3.60674 7.26228,-7.61654 11.41519,-6.30279 2.78195,0.88006 4.05648,-0.41357 6.01092,-6.101 1.3642,-3.96983 2.51705,-7.78941 2.56188,-8.48794 0.0448,-0.69854 0.72661,-1.91304 1.51506,-2.69889 1.90347,-1.89722 1.82776,-4.60398 -0.12879,-4.60398 -0.85928,0 -3.08423,4.81217 -4.94434,10.69371 -2.61992,8.28403 -3.88302,10.16216 -5.60536,8.3348 -1.69419,-1.7975 -1.65471,-2.56673 0.16589,-3.23209 1.31408,-0.48024 2.36061,-1.87334 2.32564,-3.09578 -0.035,-1.22244 -1.75522,-0.19873 -3.82277,2.27491 -2.06755,2.47364 -3.75918,3.81005 -3.75918,2.9698 0,-0.84025 -1.34609,0.1364 -2.99131,2.17032 -2.65441,3.28154 -2.79582,3.30209 -1.25558,0.1825 1.9196,-3.88794 0.90142,-12.1589 -1.69358,-13.75743 -0.9137,-0.56283 -1.09489,0.44776 -0.40265,2.24577 0.85392,2.21797 0.53959,2.8262 -0.97759,1.89161 -1.38362,-0.85232 -2.2362,-0.0999 -2.2362,1.97359 0,2.50103 -0.55066,2.80225 -2.17078,1.18745 -2.49518,-2.48697 2.48857,-8.61988 7.61403,-9.36967 4.578,-0.66969 11.75919,-4.89298 11.75919,-6.91562 0,-0.99125 -2.2735,-0.31752 -5.05222,1.49718 l -5.05222,3.29946 0.99467,-8.79565 c 0.54707,-4.8376 0.2402,-8.79564 -0.68193,-8.79564 -0.92212,0 -1.67659,0.8573 -1.67659,1.9051 0,1.0478 -2.1503,1.9051 -4.77845,1.9051 -3.43629,0 -4.77846,-1.02644 -4.77846,-3.65438 0,-5.15068 1.98036,-9.6813 4.23176,-9.6813 1.05126,0 1.33834,1.50026 0.63795,3.33392 -1.02103,2.67313 -0.79638,2.86193 1.13347,0.95255 3.28941,-3.25452 5.58226,-2.99726 4.24494,0.47627 -0.60511,1.57171 -0.14806,2.85765 1.01568,2.85765 1.16373,0 2.11775,-0.64297 2.12003,-1.42883 0.002,-0.78585 3.82211,-4.0007 8.4885,-7.14411 8.12373,-5.47238 14.65171,-14.28822 10.58019,-14.28822 -1.02872,0 -1.87041,1.07972 -1.87041,2.39938 0,1.31965 -1.72024,3.47015 -3.82276,4.77888 -2.26598,1.41048 -3.82276,1.5971 -3.82276,0.45827 0,-1.05669 -0.96544,-1.92124 -2.14543,-1.92124 -1.54322,0 -1.51764,0.75393 0.0911,2.686 1.77317,2.12952 1.35055,3.30454 -2.03987,5.67147 -5.35877,3.74108 -6.08438,3.04572 -3.60484,-3.45454 3.49378,-9.1591 2.26912,-11.27096 -2.95058,-5.0881 -2.70349,3.20235 -4.37297,6.6973 -3.70996,7.76655 1.30415,2.10323 -1.44018,2.70716 -3.40457,0.74923 -1.31537,-1.31104 8.03859,-15.66899 12.74366,-19.56101 2.31844,-1.9178 2.45488,-2.9701 0.63915,-4.92948 -1.26969,-1.37014 -2.95361,-2.10191 -3.74206,-1.62615 -0.78844,0.47576 -1.43354,-0.016 -1.43354,-1.09272 0,-1.07675 -1.29018,-1.46427 -2.86707,-0.86115 -1.57689,0.60312 -2.8539,2.93377 -2.8378,5.17922 0.0161,2.24545 0.66119,3.22535 1.43353,2.17755 0.77235,-1.04781 2.92567,-2.02686 4.78515,-2.17567 2.59083,-0.20734 1.78677,1.57339 -3.44086,7.62039 -9.62104,11.12902 -9.44854,10.85837 -13.25984,20.80529 -1.89545,4.94685 -4.63599,8.99428 -6.09009,8.99428 -3.00253,0 -2.72466,-1.70643 4.32973,-26.589 2.51217,-8.86103 4.56758,-17.92421 4.56758,-20.14041 0,-7.97683 6.12258,-22.119 10.26436,-23.70903 3.86585,-1.48409 3.78204,-1.67924 -1.66314,-3.87247 -3.15378,-1.27028 -11.17527,-4.238906 -17.82554,-6.596935 -11.87878,-4.211935 -11.98265,-4.309003 -5.9067,-5.520195 3.40158,-0.678079 6.62072,-0.798272 7.15365,-0.267093 0.53293,0.531177 -0.6796,0.991847 -2.69451,1.02371 -3.30893,0.05233 -3.35235,0.238842 -0.44864,1.927205 4.77906,2.778793 15.7665,3.788626 13.18079,1.211419 -3.55072,-3.539051 -2.24145,-5.855612 1.43515,-2.539275 1.92248,1.734103 4.71788,3.139784 6.21199,3.123739 2.24713,-0.02413 2.22112,-0.348303 -0.1505,-1.875924 -3.72638,-2.400256 -1.5598,-2.401877 4.76904,-0.0036 2.75985,1.04584 4.50091,2.735295 3.86902,3.754343 -0.63188,1.019046 1.25164,2.378195 4.1856,3.020331 2.93396,0.642135 6.62465,1.660665 8.20154,2.263395 1.57689,0.60274 3.51217,0.95978 4.30061,0.79343 0.78845,-0.16635 1.43354,1.03409 1.43354,2.66763 0,1.63354 0.87415,2.4316 1.94256,1.77346 1.06841,-0.65814 1.44321,-2.00193 0.83289,-2.98619 -1.32775,-2.1413 6.72576,-5.450416 10.12638,-4.16084 1.31407,0.49833 2.38923,2.00184 2.38923,3.34114 0,1.33931 -1.07516,4.97838 -2.38923,8.08684 -1.87075,4.42525 -3.1979,5.36857 -6.1156,4.3469 -3.50613,-1.22773 -3.42141,-1.56914 1.43353,-5.77658 5.38016,-4.66254 6.59079,-7.59476 3.13572,-7.59476 -1.1133,0 -1.4926,0.8573 -0.84288,1.9051 0.64972,1.0478 0.4326,1.9051 -0.48247,1.9051 -0.91507,0 -3.33118,1.50026 -5.36911,3.33392 -4.42414,3.98067 -21.96358,4.66687 -24.34766,0.95255 -0.84069,-1.30976 -2.47921,-2.38138 -3.64116,-2.38138 -1.17101,0 -0.72331,1.53016 1.00445,3.43303 2.1856,2.40712 5.06609,3.20624 9.6391,2.67412 3.97442,-0.46246 10.09771,0.81761 15.67611,3.27708 9.06321,3.99591 12.17664,3.31171 12.26993,-2.69637 0.0562,-3.62203 6.73308,-18.104215 8.35001,-18.111296 0.89699,-0.004 1.1,4.337326 0.45114,9.647226 -0.86966,7.11676 -0.59272,9.29275 1.05365,8.27858 1.39514,-0.85941 1.72032,-0.54833 0.86639,0.82882 -0.8928,1.43984 -2.48711,1.60589 -4.59593,0.47868 -2.79062,-1.49166 -3.22892,-0.65192 -3.22892,6.18641 0,6.84889 -0.60201,7.99729 -4.47902,8.54442 -3.77209,0.53231 -4.2797,0.006 -3.21613,-3.33392 1.75455,-5.50993 -0.60738,-4.99707 -2.74052,0.59506 -1.42939,3.74722 -3.38202,4.70712 -10.94314,5.37963 -5.06182,0.45022 -9.50866,0.59383 -9.88187,0.31914 -0.37321,-0.27469 2.42218,-3.21298 6.21199,-6.52954 3.78981,-3.31655 6.89056,-6.97256 6.89056,-8.12447 0,-1.15191 -3.26172,1.08013 -7.24827,4.96009 -6.30519,6.13661 -13.84041,9.87551 -11.1463,5.53069 0.51967,-0.83809 -0.68792,-2.54013 -2.68355,-3.78232 -3.11392,-1.93828 -3.45301,-1.78975 -2.39146,1.04752 2.59512,6.93612 16.4607,13.39996 20.88813,9.73761 1.39545,-1.15432 4.99375,-1.44348 8.47608,-0.68115 4.02158,0.88038 6.5434,0.53093 7.51867,-1.04189 0.93757,-1.51204 3.32788,-1.90118 6.61974,-1.0777 4.27185,1.06865 4.75371,1.76758 2.81977,4.09017 -1.95192,2.34419 -1.5906,2.71995 2.21435,2.30288 7.17275,-0.78623 7.03204,6.46349 -0.24389,12.56565 -3.27702,2.74836 -5.46682,5.78949 -4.86622,6.75808 0.60057,0.96858 0.44153,2.0486 -0.35348,2.40004 -0.795,0.35145 -2.88685,4.49681 -4.64859,9.21193 -7.38887,19.77557 -8.38329,22.0326 -10.84616,24.61722 -1.76065,1.84769 -2.19682,5.10335 -1.37226,10.24293 1.31125,8.17308 -3.01828,17.8062 -6.92206,15.40147 -1.43894,-0.8864 -1.70356,0.30143 -0.8353,3.74948 0.78603,3.12149 0.48474,5.04689 -0.78973,5.04689 -1.13334,0 -1.55224,0.81986 -0.9309,1.8219 0.62134,1.00205 2.30534,1.37225 3.74223,0.82266 1.43689,-0.54956 3.093,-0.22434 3.68025,0.72272 1.67474,2.70088 -1.82235,12.88036 -4.24267,12.34977 -1.19489,-0.26195 -2.17253,0.86027 -2.17253,2.49381 0,1.63355 0.86013,2.44024 1.91139,1.79266 1.05126,-0.64758 1.91138,0.15908 1.91138,1.79266 0,1.63354 -1.29019,2.97008 -2.86708,2.97008 -3.60781,0 -3.63102,1.41581 -0.0812,4.95396 1.56584,1.56069 2.24551,4.21259 1.55199,6.05548 -1.5021,3.99156 -6.6224,8.03652 -8.61738,6.80762 -0.80004,-0.49283 -1.45461,-0.0387 -1.45461,1.00905 0,1.0478 0.90188,2.46066 2.00419,3.13968 1.3468,0.82963 1.19006,2.21791 -0.47785,4.23243 -1.96442,2.37267 -1.98377,3.165 -0.0928,3.79934 2.854,0.95742 3.03244,4.18125 0.44857,8.10438 -1.67298,2.54012 -2.09123,2.54012 -3.76422,0 -1.03516,-1.57171 -1.89529,-5.16461 -1.91138,-7.98423 -0.0294,-5.14852 -3.02213,-8.71875 -5.35739,-6.39118 -0.68805,0.6858 0.0143,2.04446 1.56071,3.01924 1.83808,1.15862 1.99857,1.78245 0.46347,1.80152 -1.84725,0.0229 -1.85555,1.14692 -0.0389,5.26818 1.27014,2.88146 2.85256,5.66766 3.5165,6.19156 0.66393,0.5239 1.83603,5.2024 2.60466,10.39667 0.76863,5.19426 2.79082,10.45959 4.49375,11.7007 2.60564,1.89902 2.69346,2.74029 0.55424,5.30943 -1.3981,1.67908 -2.13,5.20101 -1.62645,7.82654 0.92712,4.83393 0.48635,5.24016 -3.81063,3.51199 z M 197.92304,314.6091 c 0.2943,-5.19302 0.2781,-5.20024 -1.84514,-0.82174 -1.41782,2.92379 -3.31685,4.11105 -5.6168,3.51159 -1.91111,-0.49813 -2.99274,-0.12841 -2.40362,0.82174 0.58912,0.95009 2.98307,1.72743 5.31989,1.72743 3.28879,0 4.31585,-1.18371 4.54567,-5.23902 z m 0.0622,-40.00703 c 0.34384,-5.01686 0.2602,-5.06813 -1.97234,-1.20907 -1.62755,2.81328 -3.77406,3.8182 -7.10987,3.32859 -3.67957,-0.54008 -4.11913,-0.26873 -1.91138,1.1799 5.72143,3.75417 10.61072,2.28678 10.99359,-3.29942 z M 221.13319,175.537 c 0.97259,-4.45316 1.09537,-8.09666 0.27285,-8.09666 -0.82252,0 -2.05459,2.97046 -2.73793,6.60101 -0.68334,3.63056 -2.10372,7.13156 -3.1564,7.78002 -1.1915,0.73396 -1.5093,-0.85884 -0.84193,-4.21964 1.02858,-5.17981 0.97968,-5.22171 -1.20637,-1.03354 -1.25313,2.40082 -3.20628,3.98332 -4.34034,3.51669 -7.18257,-2.95542 -9.53762,-3.54109 -8.14702,-2.02603 2.10317,2.29139 17.44503,7.94685 17.97108,6.62468 0.22974,-0.57743 1.21347,-4.69336 2.18606,-9.14653 z m 5.04176,-13.81195 c -0.64971,-1.0478 -3.06581,-1.84484 -5.3691,-1.77119 -4.03754,0.12909 -4.05064,0.19265 -0.36504,1.77119 5.26105,2.25332 7.13136,2.25332 5.73414,0 z m 2.93885,-16.51049 c 0.79035,-3.49287 1.07626,-6.35067 0.63532,-6.35067 -1.04743,0 -3.64138,7.08399 -5.23193,14.28823 -1.07957,4.88977 -0.94251,5.18792 0.94887,2.0642 1.21589,-2.0081 2.85736,-6.50889 3.64774,-10.00176 z m 18.27092,178.74135 c -0.66143,-1.06671 -0.27123,-2.51319 0.86712,-3.21442 2.93871,-1.81024 4.83478,0.66936 2.38154,3.11453 -1.37272,1.3682 -2.44183,1.40107 -3.24866,0.0998 z m 8.85314,-6.02426 c -1.25723,-2.00653 -1.72359,-5.10869 -1.03637,-6.89371 0.84598,-2.19734 0.52733,-2.80061 -0.98668,-1.86798 -1.22991,0.75763 -2.2362,0.46962 -2.2362,-0.64002 0,-1.10964 2.18928,-2.01754 4.86506,-2.01754 4.57799,0 4.78861,0.42158 3.5692,7.14412 -1.60535,8.85035 -1.42442,8.66506 -4.17501,4.27513 z m -15.72754,-9.13313 c 0,-2.00353 4.15142,-6.09631 6.18366,-6.09631 0.878,0 0.67572,1.71459 -0.44952,3.81019 -2.02025,3.76245 -5.73414,5.24313 -5.73414,2.28612 z m 9.55691,-6.89304 c 0,-5.11469 2.23335,-8.48603 4.93664,-7.45209 4.36451,1.6693 3.43374,10.15392 -1.11388,10.15392 -2.10252,0 -3.82276,-1.21584 -3.82276,-2.70183 z m -1.85326,-11.6044 c -0.0319,-2.10552 -1.77837,-4.899 -3.88089,-6.20772 -5.26406,-3.27665 -4.82161,-5.11604 2.38923,-9.93266 l 6.21199,-4.14944 -5.49805,1.20147 c -4.75797,1.03975 -5.30844,0.73968 -4.08946,-2.22921 0.77474,-1.88688 1.85907,-7.10559 2.40962,-11.59714 0.70221,-5.72876 2.20816,-8.80098 5.04513,-10.29221 2.22428,-1.1692 6.98458,-5.20993 10.57845,-8.97944 7.52343,-7.89112 7.49373,-7.87991 9.83376,-3.71228 1.18018,2.10195 0.82338,4.93861 -1.07837,8.57294 -2.67213,5.10663 -2.84287,5.16841 -2.85394,1.03266 -0.006,-2.4924 -0.85368,-3.88029 -1.95433,-3.20228 -1.0684,0.65813 -1.42442,2.03222 -0.79114,3.05353 0.63328,1.0213 0.0782,3.14588 -1.23364,4.72128 -1.91949,2.30525 -2.71659,2.38193 -4.08346,0.39282 -1.06353,-1.54767 -1.48385,1.19278 -1.12441,7.33126 0.49639,8.47753 0.12176,9.71573 -2.77093,9.1586 -1.83971,-0.3543 -3.34492,0.16384 -3.34492,1.1515 0,0.98764 1.19817,1.79571 2.66258,1.79571 3.96428,0 5.18458,5.09491 2.58327,10.78544 l -2.2971,5.02499 -1.43887,-4.57129 -1.43885,-4.5713 0.67437,4.76274 c 0.37092,2.61951 1.29621,6.47733 2.05619,8.57293 0.99759,2.75083 0.8623,3.08455 -0.48658,1.20025 -1.52817,-2.1347 -2.24651,-1.96124 -3.94496,0.95255 -1.99233,3.41795 -2.07893,3.40717 -2.13469,-0.2657 z m -55.47889,-31.37005 c -2.45147,-1.54469 -2.31559,-2.20905 0.95569,-4.67297 2.0974,-1.57977 4.86161,-2.89954 6.14269,-2.93288 1.28108,-0.0333 1.83415,-1.34652 1.22904,-2.91823 -0.60511,-1.5717 -0.14806,-2.85764 1.01568,-2.85764 2.65262,0 2.65584,1.69778 0.0176,9.2412 -2.17259,6.2118 -4.46452,7.2256 -9.36061,4.14052 z m 43.3673,-3.16941 c -2.01952,-2.01289 0.55314,-4.49702 4.65728,-4.49702 3.4191,0 3.52791,0.31752 0.97941,2.85764 -3.20483,3.1943 -3.8797,3.39058 -5.63669,1.63938 z m 12.05347,-13.78925 c 0,-2.24946 4.87502,-6.16982 6.1241,-4.92484 1.07173,1.06821 4.92235,-12.3005 5.77704,-20.05683 0.33038,-2.99838 2.4576,-5.66627 5.77914,-7.24806 2.89097,-1.37675 5.2563,-3.31369 5.2563,-4.30432 0,-2.8874 5.22006,-2.07408 6.40267,0.99758 0.59263,1.53929 -0.0959,5.05325 -1.53033,7.8088 -2.2789,4.37812 -2.72853,4.56578 -3.56463,1.48775 -0.52622,-1.93728 -0.86016,-0.31101 -0.74211,3.61395 0.11812,3.92495 -0.82102,8.16856 -2.08685,9.43023 -1.26583,1.26167 -2.30151,1.69384 -2.30151,0.96038 0,-0.73347 -3.44049,2.0956 -7.64553,6.28681 -7.36098,7.33678 -11.46829,9.46723 -11.46829,5.94855 z m -65.56936,-15.58282 c -0.65407,-2.49297 -0.21357,-3.64865 1.21061,-3.17605 2.74921,0.9123 4.18375,7.09503 1.64622,7.09503 -1.00574,0 -2.29131,-1.76354 -2.85683,-3.91898 z m 66.58432,-7.41601 c -0.61713,-0.99523 0.57011,-2.71214 2.63826,-3.81535 2.70776,-1.44437 4.14296,-1.38874 5.12732,0.19877 0.8481,1.36775 0.52936,1.68861 -0.83969,0.84527 -1.30759,-0.80548 -2.20671,-0.14918 -2.20671,1.61074 0,3.27659 -2.95629,4.00362 -4.71918,1.16057 z m 12.36471,-11.60749 c 0,-1.14084 0.74219,-3.51816 1.64933,-5.28294 2.52085,-4.90416 4.57256,-21.00335 2.22984,-17.4969 -1.05009,1.57171 -1.92243,1.9189 -1.93852,0.77154 -0.0153,-1.14735 1.67305,-3.62161 3.75365,-5.49833 4.31559,-3.89272 4.27352,-3.95189 8.31833,11.6992 2.38552,9.23053 2.32711,9.7891 -0.95764,9.15859 -1.92394,-0.3693 -3.49808,0.038 -3.49808,0.90516 0,0.86713 -2.1503,2.9809 -4.77845,4.69727 -2.80261,1.8303 -4.77846,2.26298 -4.77846,1.04641 z m -5.73414,-14.05109 c 0,-4.28255 2.17446,-8.79155 3.76672,-7.81073 1.92906,1.18831 0.0858,10.51256 -2.07817,10.51256 -0.9287,0 -1.68855,-1.21582 -1.68855,-2.70183 z m 20.99911,-5.28239 c -0.0153,-1.3716 -0.54809,-4.43546 -1.18605,-6.80859 -0.9227,-3.43228 -0.52644,-4.07248 1.93747,-3.13009 3.39207,1.29737 4.24296,9.372 1.18605,11.25507 -1.05126,0.64757 -1.92312,0.0552 -1.93747,-1.31639 z m 0.4392,-12.67705 c -1.50472,-0.95162 -1.92081,-2.96692 -1.07567,-5.20984 1.26342,-3.35303 1.0797,-3.41973 -2.20451,-0.80024 -3.27944,2.61567 -3.46769,2.55201 -2.22317,-0.75179 0.8628,-2.29043 0.18693,-4.9011 -1.84976,-7.14411 -2.00168,-2.20456 -2.37866,-3.62429 -1.00178,-3.77282 1.21421,-0.13097 3.1371,-0.3453 4.27309,-0.47627 2.40383,-0.27715 7.49145,-6.75554 7.49145,-9.53931 0,-1.04781 -1.34878,-0.24098 -2.99729,1.79294 -2.85016,3.5165 -2.9381,3.41747 -1.79145,-2.01725 0.66322,-3.14341 1.67762,-7.65389 2.25423,-10.0233 0.84154,-3.45799 0.41269,-4.06486 -2.17351,-3.07571 -2.35207,0.89961 -2.90981,2.57696 -2.06593,6.2131 0.63576,2.73945 0.4847,4.12352 -0.33566,3.07571 -0.82039,-1.0478 -2.71011,-1.90509 -4.1994,-1.90509 -1.48928,0 -3.06617,-1.07162 -3.5042,-2.38137 -0.43803,-1.30976 0.13538,-2.38137 1.27426,-2.38137 1.13886,0 2.07066,-1.25904 2.07066,-2.79786 0,-1.58734 1.13383,-2.36419 2.62062,-1.79553 2.87663,1.10023 7.64205,-2.92686 11.08451,-9.36712 2.02008,-3.77924 1.92776,-3.90434 -1.06495,-1.44325 -2.89443,2.38026 -3.39706,2.23615 -4.3078,-1.23507 -1.25822,-4.79566 -6.56363,-4.4184 -8.54019,0.60726 -1.35681,3.44991 -1.44219,3.4327 -1.56922,-0.31611 -0.0803,-2.36692 1.7901,-4.99109 4.64122,-6.51195 2.62656,-1.40107 4.42049,-2.90134 3.98647,-3.33392 -1.52412,-1.5191 -9.45052,3.86921 -15.7548,10.70998 -3.50276,3.80085 -6.37275,6.01047 -6.37778,4.91028 -0.006,-1.10019 0.93325,-2.93965 2.08509,-4.08768 1.15182,-1.14803 4.10806,-7.83165 6.56942,-14.85249 5.69171,-16.235114 12.23376,-26.122154 16.57052,-25.043157 1.7893,0.445181 3.53739,-0.04014 3.88465,-1.0785 0.41026,-1.226724 3.36176,-1.155131 8.4274,0.204422 6.99287,1.876793 7.69849,2.600819 6.84936,7.028079 -0.65935,3.437879 -1.41058,4.1875 -2.47547,2.470151 -0.84087,-1.356071 -1.11086,-3.139668 -0.6,-3.963546 0.51087,-0.823879 -0.53039,-0.939842 -2.3139,-0.257695 -2.05093,0.784427 -4.2513,-0.09882 -5.98683,-2.403192 -2.68626,-3.566659 -2.73622,-3.563146 -2.37058,0.166734 0.62103,6.334957 -0.021,7.76879 -2.13254,4.762742 -1.54786,-2.203538 -1.71304,-1.821875 -0.72165,1.667396 0.87448,3.077836 0.60888,4.108137 -0.83049,3.221486 -1.38833,-0.855223 -2.09428,0.864584 -2.05256,5.000442 0.0673,6.666628 5.49922,14.896758 9.7997,14.847758 1.95408,-0.0222 1.8815,-0.51156 -0.30638,-2.06549 -2.18479,-1.55173 -1.39376,-1.78379 3.32401,-0.97517 7.61231,1.30474 11.96705,-0.19427 11.96705,-4.11934 0,-1.63424 0.41897,-2.55374 0.93107,-2.04334 0.51208,0.5104 -0.0554,8.54489 -1.26113,17.85441 -1.73555,13.40058 -3.12394,17.85509 -6.66522,21.38472 -2.46016,2.45208 -4.47302,6.42971 -4.47302,8.8392 0,4.63136 -6.10891,11.58322 -8.27848,9.42079 -1.89152,-1.8853 -1.55229,-4.84294 0.41638,-3.63024 3.2935,2.0288 5.52129,-3.82751 6.30169,-16.56554 0.79468,-12.97082 -1.4778,-13.69645 -2.79564,-0.89269 -0.38891,3.77845 -1.72113,8.08773 -2.96049,9.57616 -2.7236,3.27094 -6.07909,20.04551 -4.71733,23.58254 1.12124,2.91228 0.58106,3.08721 -2.84407,0.92105 z m 18.02328,-50.55697 c -0.12405,-8.55105 -0.48511,-9.58263 -2.17311,-6.20797 -1.39665,2.79215 -1.41987,5.97225 -0.0749,10.25515 1.07221,3.41438 2.05011,6.20797 2.17313,6.20797 0.1229,0 0.15673,-4.61482 0.0749,-10.25515 z m -18.43639,-20.52472 c 0,-0.76005 -0.99302,-1.99361 -2.20671,-2.74125 -1.31708,-0.81131 -1.6898,-0.52569 -0.92452,0.70848 0.70521,1.1373 0.40804,2.60629 -0.66036,3.26443 -1.06841,0.65814 -1.94256,0.11728 -1.94256,-1.20192 0,-3.33811 -4.3962,1.09996 -4.97357,5.02094 -0.36301,2.46519 0.38641,2.40812 5.14139,-0.39147 3.06148,-1.80251 5.56633,-3.89916 5.56633,-4.65921 z m -14.93267,61.14235 c 0.45991,-1.37524 1.96514,-2.87551 3.34491,-3.33392 1.43354,-0.47628 2.15031,0.23814 1.67246,1.66696 -0.45991,1.37524 -1.96515,2.8755 -3.34492,3.33392 -1.43353,0.47627 -2.1503,-0.23814 -1.67245,-1.66696 z m -7.99943,-29.62425 c 0.002,-0.92993 2.58081,-4.69131 5.72966,-8.35862 7.43814,-8.66285 7.43814,-6.47127 0,2.85765 -3.15378,3.95546 -5.73212,6.4309 -5.72966,5.50097 z m -7.17217,-2.07795 c -3.0201,-1.11602 -3.13874,-11.30939 -0.1531,-13.14859 1.53172,-0.94355 1.82596,-0.31199 0.93401,2.00477 -0.9437,2.45119 -0.55049,3.09478 1.42838,2.33791 1.50181,-0.5744 3.26342,0.33965 3.91468,2.03122 1.38272,3.59147 -2.65393,8.05699 -6.12405,6.77469 z m 35.83841,-26.94146 c 0,-0.88541 1.72025,-3.16152 3.82277,-5.05801 2.10252,-1.896501 3.82276,-4.645422 3.82276,-6.108713 0,-1.616368 -1.87537,-0.643622 -4.77845,2.47855 -2.62815,2.826493 -4.77846,4.095373 -4.77846,2.819723 0,-1.275652 1.21339,-3.528762 2.69641,-5.006912 1.48304,-1.478151 3.03982,-3.714386 3.45954,-4.96941 1.1907,-3.560336 6.82899,-0.430312 10.72385,5.9532 1.93711,3.174832 4.09233,5.203972 4.78939,4.509202 2.0348,-2.028103 1.45798,-4.780649 -0.72059,-3.438644 -2.53685,1.562696 -0.41554,-7.745447 3.26701,-14.335418 2.45203,-4.387947 2.56744,-3.938192 1.46664,5.71529 -0.73156,6.415356 -2.60716,11.934852 -4.83733,14.235302 -3.62537,3.73964 -3.64261,3.73964 -3.67174,0 -0.0235,-3.024 -0.37198,-3.21732 -1.78527,-0.99059 -0.9658,1.52168 -1.33193,3.45059 -0.81362,4.28647 0.51831,0.83588 -2.1188,1.51978 -5.86026,1.51978 -3.74145,0 -6.80265,-0.72442 -6.80265,-1.60982 z M 149.71967,87.339891 c -6.37173,-2.377066 -7.96432,-3.516626 -4.77846,-3.419171 5.65832,0.173078 17.09148,2.895966 14.33537,3.414059 -1.05126,0.197618 -0.19114,1.096086 1.91138,1.996599 7.48116,3.20419 -1.91485,1.572558 -11.46829,-1.991487 z m 0.28539,-8.432248 c -0.73296,-1.903782 -4.99747,-2.936526 -14.04859,-3.402171 l -12.99615,-0.668602 13.37967,-0.183232 c 7.35883,-0.100779 15.52998,0.42682 18.15813,1.172441 4.77562,1.354864 4.77602,1.356998 0.66891,3.585403 -3.30119,1.791141 -4.31656,1.692036 -5.16197,-0.503837 z"
       id="path6585"
       inkscape:connector-curvature="0" />
  </g>
</svg>
