<?xml version="1.0" encoding="UTF-8" standalone="no"?>
<svg
   xmlns:dc="http://purl.org/dc/elements/1.1/"
   xmlns:cc="http://creativecommons.org/ns#"
   xmlns:rdf="http://www.w3.org/1999/02/22-rdf-syntax-ns#"
   xmlns:svg="http://www.w3.org/2000/svg"
   xmlns="http://www.w3.org/2000/svg"
   xmlns:sodipodi="http://sodipodi.sourceforge.net/DTD/sodipodi-0.dtd"
   xmlns:inkscape="http://www.inkscape.org/namespaces/inkscape"
   inkscape:export-ydpi="12.832031"
   inkscape:export-xdpi="12.832031"
   inkscape:export-filename="C:\Users\Chris\Documents\GitHub\bot-game\assets\hazmat_mask.png"
   viewBox="0 0 512 512"
   id="svg2"
   version="1.1"
   inkscape:version="0.48.4 r9939"
   width="100%"
   height="100%"
   sodipodi:docname="balanced.svg">
  <sodipodi:namedview
     pagecolor="#ffffff"
     bordercolor="#666666"
     borderopacity="1"
     objecttolerance="10"
     gridtolerance="10"
     guidetolerance="10"
     inkscape:pageopacity="0"
     inkscape:pageshadow="2"
     inkscape:window-width="1158"
     inkscape:window-height="1254"
     id="namedview44"
     showgrid="false"
     inkscape:zoom="0.68554687"
     inkscape:cx="359.53976"
     inkscape:cy="329.2975"
     inkscape:window-x="1233"
     inkscape:window-y="126"
     inkscape:window-maximized="0"
     inkscape:current-layer="svg2" />
  <metadata
     id="metadata48">
    <rdf:RDF>
      <cc:Work
         rdf:about="">
        <dc:format>image/svg+xml</dc:format>
        <dc:type
           rdf:resource="http://purl.org/dc/dcmitype/StillImage" />
        <dc:title />
      </cc:Work>
    </rdf:RDF>
  </metadata>
  <defs
     id="defs46">
    <linearGradient
       id="linearGradient3926">
      <stop
         id="stop3928"
         offset="0"
         style="stop-color:#ffffff;stop-opacity:0;" />
      <stop
         style="stop-color:#ffffff;stop-opacity:0.49803922;"
         offset="0.5"
         id="stop3934" />
      <stop
         id="stop3930"
         offset="1"
         style="stop-color:#ffffff;stop-opacity:0;" />
    </linearGradient>
    <filter
       id="filter3108"
       x="0"
       y="0"
       width="1"
       height="1"
       inkscape:label="Lightness-Contrast"
       inkscape:menu="Color"
       inkscape:menu-tooltip="Increase or decrease lightness and contrast"
       color-interpolation-filters="sRGB">
      <feFlood
         id="feFlood3110"
         result="result1"
         flood-opacity="1"
         flood-color="rgb(0,0,0)" />
      <feBlend
         id="feBlend3112"
         in2="SourceGraphic"
         mode="normal"
         result="result2" />
      <feComposite
         id="feComposite3114"
         in2="SourceGraphic"
         k2="1"
         operator="arithmetic"
         result="result3" />
      <feComposite
         id="feComposite3116"
         in2="SourceGraphic"
         operator="in" />
    </filter>
    <filter
       id="filter7264"
       inkscape:label="Fluorescence"
       inkscape:menu="Color"
       inkscape:menu-tooltip="Oversaturate colors which can be fluorescent in real world"
       x="0"
       y="0"
       width="1"
       height="1"
       color-interpolation-filters="sRGB">
      <feColorMatrix
         id="feColorMatrix7266"
         type="hueRotate"
         values="0" />
      <feColorMatrix
         id="feColorMatrix7268"
         type="saturate"
         values="1" />
      <feColorMatrix
         id="feColorMatrix7270"
         type="matrix"
         values="2 -1 0 0 0 0 2 -1 0 0 -1 0 2 0 0 0 0 0 1 0 " />
    </filter>
    <filter
       id="filter7746"
       inkscape:label="Fluorescence"
       inkscape:menu="Color"
       inkscape:menu-tooltip="Oversaturate colors which can be fluorescent in real world"
       x="0"
       y="0"
       width="1"
       height="1"
       color-interpolation-filters="sRGB">
      <feColorMatrix
         id="feColorMatrix7748"
         type="hueRotate"
         values="0" />
      <feColorMatrix
         id="feColorMatrix7750"
         type="saturate"
         values="1" />
      <feColorMatrix
         id="feColorMatrix7752"
         type="matrix"
         values="2 -1 0 0 0 0 2 -1 0 0 -1 0 2 0 0 0 0 0 1 0 " />
    </filter>
    <filter
       id="filter11635"
       inkscape:label="Fluorescence"
       inkscape:menu="Color"
       inkscape:menu-tooltip="Oversaturate colors which can be fluorescent in real world"
       x="0"
       y="0"
       width="1"
       height="1"
       color-interpolation-filters="sRGB">
      <feColorMatrix
         id="feColorMatrix11637"
         type="hueRotate"
         values="0" />
      <feColorMatrix
         id="feColorMatrix11639"
         type="saturate"
         values="1" />
      <feColorMatrix
         id="feColorMatrix11641"
         type="matrix"
         values="2 -1 0 0 0 0 2 -1 0 0 -1 0 2 0 0 0 0 0 1 0 " />
    </filter>
    <clipPath
       clipPathUnits="userSpaceOnUse"
       id="clipPath5731">
      <g
         transform="translate(-499.67984,900.72257)"
         id="g5733">
        <path
           sodipodi:nodetypes="csssssssscsssssscssssssssssssccssscccccsccssss"
           inkscape:connector-curvature="0"
           d="m 713.46932,336.19879 c -46.66846,-6.86515 -63.32187,-12.04474 -82.43996,-25.64069 -7.77372,-5.52834 -15.03553,-11.14129 -18.39792,-14.22052 -2.11083,-1.93307 -4.58583,-3.93035 -5.5,-4.43838 -5.84335,-3.24737 -21.16212,-23.53521 -21.16212,-28.02664 0,-0.85231 -0.3375,-1.55317 -0.75,-1.55746 -1.39551,-0.0145 -2.90294,-4.63228 -2.14427,-6.56859 0.73071,-1.86494 0.75825,-1.86261 0.90293,0.0764 0.0866,1.16054 0.36564,1.46123 0.66483,0.71638 0.61512,-1.53141 -1.53978,-4.41705 -2.74312,-3.67334 -0.46366,0.28655 -0.5612,1.25542 -0.21676,2.15303 0.38711,1.0088 0.22353,1.38311 -0.42838,0.98021 -0.9969,-0.61612 -1.63974,-2.89421 -2.94209,-10.42628 -0.30907,-1.7875 -0.93079,-3.25 -1.38159,-3.25 -1.5083,0 -4.35392,-11.40362 -5.1155,-20.5 -2.10576,-25.15144 -2.16477,-28.9906 -0.46721,-30.39944 0.89164,-0.74 1.61427,-1.85285 1.60585,-2.473 -0.008,-0.62016 -0.43396,-0.46559 -0.94563,0.34348 -1.49011,2.3562 -2.47835,0.28852 -1.2015,-2.51387 0.63934,-1.4032 1.16244,-4.39299 1.16244,-6.64398 0,-2.44744 0.59517,-4.53902 1.48053,-5.20295 0.8685,-0.65128 1.70847,-3.51394 2.03192,-6.92492 0.51015,-5.37977 2.10581,-9.68532 3.58942,-9.68532 0.34143,0 0.40573,-1.125 0.14288,-2.5 -0.27897,-1.45935 -0.0131,-2.5 0.63867,-2.5 0.61412,0 1.11658,0.9 1.11658,2 0,3.05353 1.46373,2.38454 2.73495,-1.25 2.73263,-7.81276 3.55467,-15.64994 2.41455,-23.01981 -3.44237,-22.25201 -1.57023,-46.135821 4.6943,-59.887301 1.1285,-2.47721 2.92498,-6.71925 3.99217,-9.42675 17.66648,-102.76194 365.27374,-164.419499 334.81752,122.010491 -7.79547,25.33126 -32.70829,60.14015 -49.15349,68.67863 -2.2,1.14226 -5.31489,3.49838 -6.92197,5.23581 -1.60708,1.73744 -3.18208,3.15898 -3.5,3.15898 -0.31792,0 -0.58155,0.59299 -0.58585,1.31776 -5.42674,18.0491 -23.8421,29.8395 -3.61467,11.08169 3.23208,-3.01114 3.82133,-1.56587 0.72364,1.77485 -12.76274,5.49516 4.65115,6.24035 -4.60119,11.58349 -3.4638,1.90975 -9.12315,7.28573 -8.41511,7.99376 0.32807,0.32808 -4.35653,5.11365 -11.68088,11.93265 -23.17357,21.57468 -85.54296,35.99675 -128.40401,29.69169 z m -130.5,-96.63534 c 0,-0.94984 -4.04141,-3.53247 -4.62092,-2.95297 -0.23439,0.23439 -0.14242,1.16557 0.20437,2.06929 0.61898,1.61304 4.41655,2.37287 4.41655,0.88368 z"
           style="fill:#ffffd4"
           id="path5735" />
      </g>
    </clipPath>
  </defs>
  <rect
     style="opacity:0.98999999;fill:#000000;fill-opacity:1;fill-rule:nonzero;stroke:none"
     id="rect3171"
     width="516.97894"
     height="524.13165"
     x="-0.48995453"
     y="-3.6633294" />
  <g
     id="g3988"
     transform="matrix(1.3471171,0,0,1.5286841,-30.837147,-947.24873)">
    <path
       style="fill:#b8cce7"
       d="m 401.12964,833.77228 c -1.57021,-1.57021 -5.91561,-2.07687 -67.89317,-7.91611 -20.625,-1.94319 -44.025,-4.21159 -52,-5.04088 -7.975,-0.82929 -28.675,-2.86033 -46,-4.51342 -17.325,-1.65309 -44.775,-4.35067 -61,-5.99462 -38.70227,-3.9214 -35.90812,-4.04121 -40.82185,1.75043 -3.19981,3.77151 -4.28759,4.49735 -5.28052,3.52354 -0.99789,-0.97867 -0.71581,-1.97802 1.3962,-4.94637 1.45572,-2.04595 2.46537,-3.90131 2.24366,-4.12301 -0.45513,-0.45513 -20.84079,-2.68396 -65.53749,-7.16544 -16.775,-1.68193 -43.1,-4.35815 -58.5,-5.94716 -15.4,-1.589 -61.75,-6.34878 -103,-10.57727 -41.25,-4.2285 -75.62691,-7.88464 -76.39313,-8.12477 -0.76622,-0.24013 -1.16998,-0.65975 -0.89724,-0.93248 0.27274,-0.27274 50.39964,4.66046 111.39313,10.96267 60.99348,6.30221 129.34724,13.30498 151.89724,15.56171 22.55,2.25674 41.81565,4.55552 42.81255,5.1084 0.9969,0.55289 2.64429,0.74126 3.66088,0.41861 1.01658,-0.32265 19.55093,1.21078 41.18745,3.40761 53.28253,5.40997 165.7799,16.32047 208.83912,20.25416 9.08558,0.83002 13.12375,1.62384 14.78351,2.90615 1.25592,0.97031 1.89443,2.00466 1.41891,2.29855 -0.47553,0.29389 -1.51469,-0.11574 -2.30925,-0.9103 z m -48.89317,-10.99975 c -23.925,-2.36837 -52.94584,-5.22937 -64.49076,-6.35777 -12.41375,-1.21332 -21.13834,-2.49437 -21.35193,-3.13515 -0.43008,-1.29024 -1.33781,-2.07996 -6.81446,-5.92859 -2.91648,-2.0495 -4.36736,-3.90951 -4.86152,-6.23235 -0.38741,-1.82105 -1.75939,-5.33599 -3.04886,-7.81099 -5.02749,-9.64976 -7.57912,-16.76945 -8.43811,-23.54445 -0.49244,-3.88404 -1.97894,-10.18797 -3.30331,-14.00872 -1.32438,-3.82076 -2.47026,-9.27636 -2.5464,-12.12357 -0.0762,-2.84721 -0.58984,-6.36401 -1.14155,-7.8151 -0.5517,-1.4511 -1.0031,-4.19852 -1.0031,-6.10538 0,-1.90686 -0.675,-5.08252 -1.5,-7.05702 -2.97861,-7.12882 -1.57558,-11.96055 3.17039,-10.91815 3.21371,0.70584 9.18374,-1.34199 11.28166,-3.86983 1.07281,-1.29266 1.03747,-1.55778 -0.20763,-1.55778 -0.82526,0 -2.13547,-0.95635 -2.91157,-2.12522 l -1.4111,-2.12523 -4.3987,2.12523 c -5.74988,2.77804 -6.3538,2.7093 -9.54802,-1.08683 -2.70446,-3.21406 -1.91022,-5.22394 1.08276,-2.73999 0.8198,0.68037 1.62048,1.06042 1.7793,0.84454 1.13043,-1.53657 2.45021,-17.32173 1.62887,-19.48203 -0.53128,-1.39737 -0.96596,-3.4529 -0.96596,-4.56784 0,-1.11494 -0.9,-3.17134 -2,-4.56976 -1.1,-1.39842 -2,-3.22665 -2,-4.06272 0,-1.25367 0.35754,-1.19655 2.03978,0.32585 1.99822,1.80837 2.10385,1.78191 5.18397,-1.29822 2.93068,-2.93067 3.14868,-3.63726 3.21022,-10.40505 l 0.066,-7.26086 -4.10899,-2.28308 c -3.51238,-1.95158 -4.56945,-2.12255 -7.28038,-1.17751 -3.7295,1.30012 -6.1106,5.33854 -6.1106,10.36381 0,2.83757 -0.48724,3.75966 -2.36362,4.47306 -3.26878,1.24279 -4.03953,3.78313 -1.60844,5.30137 1.08463,0.67737 1.97206,1.49311 1.97206,1.81277 0,0.31966 -2.24406,1.59539 -4.98681,2.83495 -5.89728,2.66524 -8.75332,5.95179 -9.5193,10.95421 -0.30727,2.0067 -1.4441,7.49528 -2.52628,12.19684 -2.55281,11.09072 -2.4861,12.80108 0.62595,16.04937 2.5193,2.62958 2.55978,2.87454 1.41381,8.55472 -0.64886,3.21619 -1.65227,6.72718 -2.2298,7.80221 -0.76013,1.41491 -0.72714,2.06222 0.11946,2.34442 0.64323,0.21441 2.61704,3.11091 4.38624,6.43667 1.7692,3.32575 3.70743,6.88166 4.30716,7.902 1.97436,3.35901 0.85056,19.58277 -1.86071,26.86232 -1.33151,3.575 -2.50541,8.75 -2.60867,11.5 -0.10326,2.75 -0.61628,6.35 -1.14005,8 -0.52376,1.65 -1.30261,6.15 -1.73076,10 l -0.77846,7 -8.48589,-0.20537 c -11.87269,-0.28732 -51.14329,-4.18282 -53.12066,-5.26937 -0.89913,-0.49406 -2.47727,-0.67797 -3.50698,-0.40869 -1.02972,0.26927 -12.89407,-0.65486 -26.36523,-2.05363 -86.39585,-8.97089 -174.77615,-18.17854 -206.99302,-21.56496 -20.625,-2.16797 -46.48177,-4.87368 -57.4595,-6.0127 -10.97772,-1.13902 -20.16522,-2.27667 -20.41667,-2.52811 -1.13834,-1.13835 0.94515,-1.25965 7.89172,-0.45945 10.85076,1.24994 91.14961,9.66433 200.98445,21.06084 21.175,2.19713 44.575,4.64212 52,5.43331 7.425,0.7912 21.57315,2.21357 31.44034,3.16083 l 17.94034,1.72228 2.72949,-3.43749 c 31.29286,-39.40995 30.75836,-38.66828 31.07926,-43.1247 0.30232,-4.19824 0.41681,-4.32848 4.31057,-4.90332 3.44786,-0.50902 5.60032,-2.17798 15.59361,-12.09083 l 11.59361,-11.5003 0.68462,-5.82499 c 0.62827,-5.34567 0.47657,-6.04214 -1.84362,-8.46389 -3.03637,-3.16929 -3.05801,-3.69376 -0.58765,-14.24277 1.06731,-4.55768 2.46563,-10.94589 3.10737,-14.19602 1.00285,-5.07895 1.85432,-6.56852 6.05943,-10.60034 2.84272,-2.72558 4.89263,-5.57913 4.89263,-6.81073 0,-1.1957 1.30776,-3.08659 3,-4.33772 2.30344,-1.70301 3,-3.00225 3,-5.59568 0,-4.42629 1.40194,-6.88557 4.97998,-8.73585 3.86313,-1.9977 6.3264,-1.90486 10.8628,0.40944 4.17172,2.12825 6.28107,5.64982 5.52834,9.22956 -1.86424,8.86567 -2.97141,11.43882 -6.10612,14.19113 -2.35474,2.06748 -3.05145,3.27307 -2.31634,4.00818 0.57824,0.57824 1.05134,2.34529 1.05134,3.92679 0,3.41254 10.28377,25.52974 12.18322,26.20234 0.72423,0.25645 5.06033,0.92012 9.63578,1.47483 17.8386,2.16269 48.21226,15.48987 89.181,39.13035 10.725,6.18872 20.85,11.53097 22.5,11.87166 2.09204,0.43195 3.09689,1.29054 3.32014,2.83687 0.53339,3.69456 -2.39717,3.68082 -8.06083,-0.0378 -16.06302,-10.54658 -58.25004,-34.10301 -66.75931,-37.27714 -2.475,-0.92323 -7.2,-2.9395 -10.5,-4.48061 -8.71477,-4.06982 -19.80114,-6.96897 -29.39005,-7.68568 l -8.39005,-0.6271 0.72019,10.15841 c 1.04015,14.67132 -1.81419,13.13525 -3.99802,-2.15155 -0.52042,-3.64293 -1.0412,-4.6741 -2.14639,-4.25 -0.80259,0.30798 -3.22245,0.55997 -5.37747,0.55997 -3.69126,0 -3.91821,0.17464 -3.91821,3.0151 0,1.6583 0.63432,5.5958 1.40959,8.75 3.05471,12.42802 3.59041,15.44766 3.59041,20.23852 0,2.73621 0.89081,7.31936 1.97959,10.18478 1.08877,2.86542 2.47098,8.79876 3.07156,13.18519 0.60059,4.38644 2.1265,10.03434 3.39091,12.55088 1.26441,2.51654 2.64411,5.70053 3.06599,7.07553 0.42189,1.375 1.59334,3.55815 2.60323,4.85145 1.00989,1.29329 2.12146,3.87222 2.47016,5.73095 0.42689,2.27554 1.98714,4.5241 4.77628,6.88336 2.27825,1.92712 5.04228,4.34995 6.14228,5.38407 1.66185,1.56232 5.71969,2.23715 24,3.99129 12.1,1.16109 40.675,3.95192 63.5,6.20185 22.825,2.24993 43.70553,3.84883 46.40118,3.55311 4.42111,-0.485 4.71496,-0.39671 3,0.90133 -2.47345,1.87213 -0.94177,1.96249 -51.40118,-3.03256 z M 202.75924,800.63948 c 0.19314,-2.84251 1.05453,-7.53668 1.9142,-10.4315 0.85966,-2.89482 1.56499,-7.31913 1.56739,-9.8318 0.002,-2.51268 1.1179,-7.7185 2.47891,-11.5685 1.85168,-5.23803 2.47985,-9.06795 2.49564,-15.21558 0.0194,-7.56861 -0.26161,-8.72988 -3.56876,-14.74651 -1.97442,-3.59202 -4.04688,-6.8134 -4.60545,-7.15862 -1.16979,-0.72296 -17.54888,15.22591 -21.54854,20.98255 -1.47574,2.12401 -5.17459,6.42704 -8.21967,9.56228 -7.13489,7.34617 -30.45311,36.99259 -29.69365,37.75205 0.31897,0.31897 9.25982,1.42374 19.86855,2.45504 10.60874,1.03131 22.43861,2.27328 26.28861,2.75994 3.85,0.48666 8.27611,0.82274 9.8358,0.74684 2.68187,-0.1305 2.85487,-0.41853 3.18697,-5.30619 z m 167.47723,-41.3318 c 0,-0.55 -0.45,-1 -1,-1 -0.55,0 -1,0.45 -1,1 0,0.55 0.45,1 1,1 0.55,0 1,-0.45 1,-1 z m -194.28925,-2.25 c 4.39037,-4.79676 3.57225,-8.5217 -1.46075,-6.65082 -1.82305,0.67766 -2.25,1.60151 -2.25,4.8686 0,4.59868 0.78696,4.97665 3.71075,1.78222 z m 64.28925,-56.37659 c 0,-1.9076 -3.23175,-8.37341 -4.18521,-8.37341 -0.44814,0 -0.81479,2.69035 -0.81479,5.97856 l 0,5.97856 2.5,-1.13907 c 1.375,-0.6265 2.5,-1.72658 2.5,-2.44464 z m 164.07895,121.20992 c -0.0434,-1.05416 0.19293,-1.64479 0.52522,-1.3125 0.33229,0.33229 0.36781,1.19479 0.0789,1.91667 -0.31922,0.79773 -0.55618,0.56078 -0.60416,-0.60417 z m -165.57895,-10.5102 c -3.3,-0.34204 -6.9,-1.12648 -8,-1.74319 -1.1,-0.61671 -4.25,-1.75042 -7,-2.51934 -4.77955,-1.33642 -5.01394,-1.56579 -5.31621,-5.20242 -0.20817,-2.50451 0.25111,-4.43126 1.3442,-5.63911 1.21454,-1.34205 1.46998,-2.70181 0.95125,-5.0636 -0.56,-2.54965 -0.0133,-4.66733 2.59898,-10.06716 3.26555,-6.75023 5.50044,-8.50136 6.49397,-5.08831 0.28019,0.9625 2.0842,4.9 4.00892,8.75 1.92472,3.85 4.53796,10.6 5.80719,15 1.87794,6.51017 2.80521,8.24469 4.97921,9.31392 1.46934,0.72265 2.41118,1.73515 2.09299,2.25 -0.3182,0.51484 -0.88948,0.86746 -1.26952,0.78359 -0.38004,-0.0839 -3.39098,-0.43234 -6.69098,-0.77438 z m -0.42564,-10.24385 c -1.15523,-4.5811 -3.97495,-12.03626 -6.26606,-16.56702 l -4.16566,-8.23774 -2.50698,4.20404 c -1.56619,2.62639 -2.67861,6.28067 -2.96431,9.73774 -0.25153,3.04353 -1.05263,6.44379 -1.78023,7.55612 -2.33142,3.5642 -0.69798,6.21804 4.96359,8.06431 2.82991,0.92285 5.5971,2.0316 6.1493,2.46388 0.90388,0.70758 7.50516,1.72725 8.33337,1.28721 0.18556,-0.0986 -0.6078,-3.92743 -1.76302,-8.50854 z"
       id="path3992"
       inkscape:connector-curvature="0" />
    <path
       style="fill:#2e313c"
       d="m 402.23647,832.56278 c -1.92696,-1.4976 -5.36518,-2.20471 -15,-3.0849 -43.05922,-3.93369 -155.55659,-14.84419 -208.83912,-20.25416 -21.63652,-2.19683 -40.17087,-3.73026 -41.18745,-3.40761 -1.01659,0.32265 -2.66398,0.13428 -3.66088,-0.41861 -0.9969,-0.55288 -20.26255,-2.85166 -42.81255,-5.1084 -22.55,-2.25673 -90.81926,-9.25076 -151.70946,-15.54228 -60.89021,-6.29153 -111.40271,-11.43914 -112.25,-11.43914 -0.99343,0 -1.54054,-0.92584 -1.54054,-2.60699 0,-1.93481 0.39645,-2.45486 1.53759,-2.01696 0.84567,0.32452 10.40817,1.51031 21.25,2.6351 10.84183,1.12479 36.58741,3.81886 57.21241,5.98683 32.21687,3.38642 120.59717,12.59407 206.99302,21.56496 13.47116,1.39877 25.33551,2.3229 26.36523,2.05363 1.02971,-0.26928 2.60785,-0.0854 3.50698,0.40869 1.97737,1.08655 41.24797,4.98205 53.12066,5.26937 l 8.48589,0.20537 0.77846,-7 c 0.42815,-3.85 1.207,-8.35 1.73076,-10 0.52377,-1.65 1.03679,-5.25 1.14005,-8 0.10326,-2.75 1.27716,-7.925 2.60867,-11.5 2.71127,-7.27955 3.83507,-23.50331 1.86071,-26.86232 -0.59973,-1.02034 -2.53796,-4.57625 -4.30716,-7.902 -1.7692,-3.32576 -3.74301,-6.22226 -4.38624,-6.43667 -0.8466,-0.2822 -0.87959,-0.92951 -0.11946,-2.34442 0.57753,-1.07503 1.58094,-4.58602 2.2298,-7.80221 1.14597,-5.68018 1.10549,-5.92514 -1.41381,-8.55472 -3.11205,-3.24829 -3.17876,-4.95865 -0.62595,-16.04937 1.08218,-4.70156 2.21901,-10.19014 2.52628,-12.19684 0.76598,-5.00242 3.62202,-8.28897 9.5193,-10.95421 2.74275,-1.23956 4.98681,-2.51529 4.98681,-2.83495 0,-0.31966 -0.88743,-1.1354 -1.97206,-1.81277 -2.43109,-1.51824 -1.66034,-4.05858 1.60844,-5.30137 1.87638,-0.7134 2.36362,-1.63549 2.36362,-4.47306 0,-5.02527 2.3811,-9.06369 6.11063,-10.36381 2.71093,-0.94504 3.768,-0.77407 7.28038,1.17752 l 4.10899,2.28307 -0.066,7.26086 c -0.0615,6.7678 -0.27954,7.47438 -3.21022,10.40505 -3.08012,3.08013 -3.18575,3.10659 -5.18397,1.29822 -1.68227,-1.5224 -2.03981,-1.57952 -2.03981,-0.32585 0,0.83608 0.9,2.6643 2,4.06272 1.1,1.39842 2,3.45482 2,4.56976 0,1.11494 0.43468,3.17047 0.96596,4.56784 0.82134,2.1603 -0.49844,17.94546 -1.62887,19.48203 -0.15882,0.21588 -0.9595,-0.16417 -1.7793,-0.84454 -2.99298,-2.48395 -3.78722,-0.47407 -1.08276,2.73999 3.19422,3.79613 3.79814,3.86487 9.54802,1.08683 l 4.3987,-2.12523 1.4111,2.12523 c 0.7761,1.16887 2.08631,2.12522 2.91157,2.12522 1.2451,0 1.28044,0.26512 0.20763,1.55778 -2.09792,2.52784 -8.06795,4.57567 -11.28166,3.86983 -4.74597,-1.0424 -6.149,3.78933 -3.17039,10.91815 0.825,1.9745 1.5,5.15016 1.5,7.05702 0,1.90686 0.4514,4.65428 1.0031,6.10538 0.55171,1.45109 1.0654,4.96789 1.14155,7.8151 0.0761,2.84721 1.22202,8.30281 2.5464,12.12357 1.32437,3.82075 2.81087,10.12468 3.30331,14.00872 0.85899,6.775 3.41062,13.89469 8.43811,23.54445 1.28947,2.475 2.66145,5.98994 3.04886,7.81099 0.49416,2.32284 1.94504,4.18285 4.86152,6.23235 5.47683,3.84875 6.38438,4.63834 6.81454,5.92884 0.21253,0.63759 8.38546,1.86699 19.85193,2.9862 107.03566,10.44745 115.16506,11.14179 116.59126,9.95815 2.04902,-1.70054 2.5703,-0.73941 2.212,4.07842 l -0.31258,4.20311 -2.5,-1.94296 z M 246.69697,811.3716 c 0.31819,-0.51485 -0.62365,-1.52735 -2.09299,-2.25 -2.174,-1.06923 -3.10127,-2.80375 -4.97921,-9.31392 -1.26923,-4.4 -3.88247,-11.15 -5.80719,-15 -1.92472,-3.85 -3.72873,-7.7875 -4.00892,-8.75 -0.99353,-3.41305 -3.22842,-1.66192 -6.49397,5.08831 -2.61227,5.39983 -3.15898,7.51751 -2.59898,10.06716 0.51873,2.36179 0.26329,3.72155 -0.95125,5.0636 -1.09309,1.20785 -1.55237,3.1346 -1.3442,5.63911 0.30227,3.63663 0.53666,3.866 5.31621,5.20242 2.75,0.76892 5.9,1.90263 7,2.51934 1.1,0.61671 4.7,1.40115 8,1.74319 3.3,0.34204 6.31094,0.69051 6.69098,0.77438 0.38004,0.0839 0.95132,-0.26875 1.26952,-0.78359 z m 121.5395,-52.06392 c 0,-0.55 0.45,-1 1,-1 0.55,0 1,0.45 1,1 0,0.55 -0.45,1 -1,1 -0.55,0 -1,-0.45 -1,-1 z m -196,-4.03222 c 0,-3.26709 0.42695,-4.19094 2.25,-4.8686 5.033,-1.87088 5.85112,1.85406 1.46075,6.65082 -2.92379,3.19443 -3.71075,2.81646 -3.71075,-1.78222 z"
       id="path3990"
       inkscape:connector-curvature="0" />
  </g>
</svg>
