<?xml version="1.0" encoding="UTF-8" standalone="no"?>
<svg
   xmlns:dc="http://purl.org/dc/elements/1.1/"
   xmlns:cc="http://creativecommons.org/ns#"
   xmlns:rdf="http://www.w3.org/1999/02/22-rdf-syntax-ns#"
   xmlns:svg="http://www.w3.org/2000/svg"
   xmlns="http://www.w3.org/2000/svg"
   xmlns:sodipodi="http://sodipodi.sourceforge.net/DTD/sodipodi-0.dtd"
   xmlns:inkscape="http://www.inkscape.org/namespaces/inkscape"
   viewBox="0 0 512 512"
   id="svg8438"
   version="1.1"
   inkscape:version="0.48.4 r9939"
   width="100%"
   height="100%"
   sodipodi:docname="breadhat.svg">
  <metadata
     id="metadata8464">
    <rdf:RDF>
      <cc:Work
         rdf:about="">
        <dc:format>image/svg+xml</dc:format>
        <dc:type
           rdf:resource="http://purl.org/dc/dcmitype/StillImage" />
        <dc:title></dc:title>
      </cc:Work>
    </rdf:RDF>
  </metadata>
  <defs
     id="defs8462">
    <linearGradient
       id="linearGradient4077">
      <stop
         id="stop4079"
         offset="0"
         style="stop-color:#aa4400;stop-opacity:1;" />
      <stop
         style="stop-color:#ff9f00;stop-opacity:1;"
         offset="0.22752622"
         id="stop4081" />
      <stop
         style="stop-color:#803300;stop-opacity:1;"
         offset="0.4948855"
         id="stop4083" />
      <stop
         id="stop4085"
         offset="1"
         style="stop-color:#562200;stop-opacity:1;" />
    </linearGradient>
    <linearGradient
       id="linearGradient4057">
      <stop
         style="stop-color:#aa4400;stop-opacity:1;"
         offset="0"
         id="stop4059" />
      <stop
         id="stop4067"
         offset="0.22752622"
         style="stop-color:#ecd1a4;stop-opacity:1;" />
      <stop
         id="stop4065"
         offset="0.50136983"
         style="stop-color:#803300;stop-opacity:1;" />
      <stop
         style="stop-color:#562200;stop-opacity:1;"
         offset="1"
         id="stop4061" />
    </linearGradient>
    <linearGradient
       id="linearGradient3890">
      <stop
         style="stop-color:#701b1b;stop-opacity:1;"
         offset="0"
         id="stop3892" />
      <stop
         style="stop-color:#e31600;stop-opacity:1;"
         offset="1"
         id="stop3894" />
    </linearGradient>
    <linearGradient
       id="linearGradient3882">
      <stop
         style="stop-color:#600b0b;stop-opacity:1;"
         offset="0"
         id="stop3884" />
      <stop
         style="stop-color:#d11414;stop-opacity:1;"
         offset="1"
         id="stop3886" />
    </linearGradient>
    <linearGradient
       id="linearGradient3872">
      <stop
         style="stop-color:#800600;stop-opacity:1;"
         offset="0"
         id="stop3874" />
      <stop
         style="stop-color:#ff0004;stop-opacity:0;"
         offset="1"
         id="stop3876" />
    </linearGradient>
  </defs>
  <sodipodi:namedview
     pagecolor="#000000"
     bordercolor="#666666"
     borderopacity="1"
     objecttolerance="10"
     gridtolerance="10"
     guidetolerance="10"
     inkscape:pageopacity="0"
     inkscape:pageshadow="2"
     inkscape:window-width="1190"
     inkscape:window-height="1126"
     id="namedview8460"
     showgrid="false"
     inkscape:zoom="0.70710678"
     inkscape:cx="300.61354"
     inkscape:cy="239.49084"
     inkscape:window-x="160"
     inkscape:window-y="130"
     inkscape:window-maximized="0"
     inkscape:current-layer="g8466" />
  <g
     id="g8466">
    <path
       inkscape:connector-curvature="0"
       d="M -13.466093,0.1885736 H 462.56434 V 516.42957 H -13.466093 z"
       id="path3978"
       style="fill:#000000" />
    <path
       inkscape:connector-curvature="0"
       id="path4546"
       d="m -174.52691,256.49344 0,-258.964935 388.88731,0 388.88731,0 0,258.964935 0,258.96494 -388.88731,0 -388.88731,0 0,-258.96494 z"
       style="fill:#ffffff" />
    <path
       inkscape:connector-curvature="0"
       id="path4544"
       d="m -173.92506,507.48301 c 0.50441,-4.38646 0.95578,-8.18649 1.00304,-8.44451 0.0472,-0.25803 1.18232,-0.46914 2.52236,-0.46914 3.64684,0 4.61538,2.9525 3.37525,10.28914 -0.83033,4.91232 -1.97245,6.59988 -4.46668,6.59988 -2.95913,0 -3.24383,-0.93288 -2.43397,-7.97537 z m 28.91519,6.22848 c 0.53503,-0.9608 0.24346,-2.24716 -0.64793,-2.85858 -0.89138,-0.61142 -2.13282,-4.90193 -2.75875,-9.53445 -1.53334,-11.34833 -6.26188,-17.75443 -13.12927,-17.78718 -11.9661,-0.0571 -12.98109,-1.14331 -12.98109,-13.89212 0,-6.6839 0.89608,-12.6749 2.11352,-14.1306 1.69081,-2.02175 1.69081,-2.26231 0,-1.20286 -1.29242,0.80983 -2.11352,0.20164 -2.11352,-1.5655 0,-1.6379 2.01436,-3.36091 4.64974,-3.97721 2.55736,-0.59806 5.97093,-1.88082 7.58572,-2.85059 4.51745,-2.71297 5.35637,-2.25395 8.78147,4.80474 2.15556,4.44234 4.39014,6.56795 6.90461,6.56795 2.04471,0 7.36661,3.09227 11.82645,6.87171 7.20414,6.10504 8.63549,6.65105 12.82956,4.89406 4.36941,-1.83045 4.75927,-1.61314 5.23816,2.91961 0.33567,3.17727 2.59581,6.3833 6.43524,9.12842 3.25481,2.32714 7.5993,6.10061 9.6544,8.38549 4.00464,4.45236 4.195721,4.25832 6.299324,-6.39662 0.565299,-2.86329 2.159999,-5.16053 3.582338,-5.16053 1.409925,0 4.492924,-1.40309 6.85111,-3.11798 2.972781,-2.16181 7.314562,-2.99673 14.158374,-2.72264 8.451225,0.33847 10.241738,-0.1925 12.450352,-3.69213 2.356745,-3.73435 2.279813,-4.53748 -0.890478,-9.29658 -3.584559,-5.38099 -3.033839,-9.31904 1.303233,-9.31904 1.36656,0 6.837934,2.42423 12.158623,5.38717 6.142509,3.42061 13.840228,5.87274 21.086907,6.7173 9.679946,1.12817 13.059496,2.58142 22.2565112,9.57054 14.9622358,11.37033 23.0539838,15.07469 40.7263768,18.64435 15.015564,3.03302 44.235166,14.76352 54.106061,21.72142 5.015544,3.53541 3.701262,3.57587 -117.18869,3.60712 -75.034515,0.0193 -121.885362,-0.64318 -121.288352,-1.71527 z m 258.89229,-1.38175 c -0.82448,-2.38456 -1.5511,-2.6077 -3.05528,-0.93828 -2.3271,2.58275 -8.70106,2.98228 -7.29499,0.4573 0.53079,-0.9532 -1.37478,-3.58224 -4.234632,-5.84232 -3.02596,-2.39139 -4.823573,-5.19709 -4.299973,-6.71144 1.510744,-4.36941 -0.832071,-8.23187 -4.993109,-8.23187 -2.170501,0 -4.416593,0.84445 -4.991341,1.87656 -1.61941,2.9081 -5.323154,2.2404 -11.372126,-2.05014 -5.386005,-3.8203 -5.410572,-3.89576 -0.906699,-2.78478 2.546113,0.62807 5.970012,0.34559 7.608668,-0.62771 1.638632,-0.97329 4.310862,-2.227 5.938272,-2.78601 1.98627,-0.68226 2.958923,-2.9321 2.958923,-6.84424 0,-4.52135 -2.145167,-8.32394 -9.568776,-16.96179 -9.372198,-10.90518 -11.016735,-15.29902 -4.213709,-11.2582 7.204614,4.27936 9.883131,-0.1428 3.792108,-6.26074 -1.774933,-1.78273 -4.204549,-5.92476 -5.39916,-9.20447 -1.194611,-3.27974 -2.88879,-6.50582 -3.764835,-7.16905 -0.985728,-0.74629 -0.912989,-3.37026 0.190876,-6.88462 1.371656,-4.36702 1.241632,-6.47249 -0.56294,-9.11518 -1.290632,-1.89005 -2.370792,-6.43424 -2.400381,-10.09822 -0.02959,-3.66398 -0.91588,-7.6186 -1.969596,-8.78807 -1.053699,-1.16945 -1.814447,-7.00616 -1.690561,-12.97048 0.328491,-15.81415 -0.499027,-17.55533 -8.343256,-17.55533 -3.657113,0 -6.649313,-0.64131 -6.649313,-1.42515 0,-1.8519 6.664564,-6.7336 10.973351,-8.0378 2.243491,-0.67907 3.689323,-3.18034 4.338901,-7.50623 0.535801,-3.56828 1.98625,-8.26035 3.223199,-10.42681 2.658569,-4.65634 1.441183,-11.58422 -3.138659,-17.86142 l -3.245061,-4.44772 -19.179686,20.71885 c -26.046404,28.13661 -39.8183748,40.52463 -91.434644,82.2463 l -24.912185,20.13663 -8.904109,-2.80765 c -30.780307,-9.70572 -45.430717,-12.82591 -56.580327,-12.0503 -11.37806,0.79152 -25.08072,6.1788 -31.36936,12.33304 -2.81602,2.75584 -2.95892,-7.67651 -2.95892,-216.0141 l 0,-218.909795 195.289062,0 c 121.239278,0 195.289068,0.6712071 195.289068,1.77015669 0,0.9735768 -1.38268,2.87359131 -3.07264,4.22225441 -3.02278,2.4123334 -7.68673,10.7799219 -9.34085,16.7584649 -0.85417,3.087257 -11.70383,6.472885 -14.53026,4.534176 -2.18047,-1.495654 -17.95451,3.379305 -28.85313,8.917026 -12.00597,6.10037 -32.40503,14.464974 -35.27627,14.464974 -1.22853,0 -4.059,1.593536 -6.28998,3.541215 -2.23098,1.94766 -6.79493,4.111406 -10.14214,4.808322 -7.60023,1.582463 -29.903248,20.722937 -36.448593,31.280299 -2.739136,4.418092 -2.811858,4.428225 -6.350919,0.884028 -4.684722,-4.691469 -6.47335,-2.519316 -2.903991,3.52667 3.138016,5.315331 5.754873,6.077982 7.137181,2.080071 0.507719,-1.468444 3.527294,-4.04143 6.710183,-5.717721 3.622701,-1.907934 5.787063,-4.393866 5.787063,-6.646861 0,-4.830972 6.007485,-8.121121 12.284329,-6.727833 2.966859,0.65854 6.126247,0.195837 7.537297,-1.103867 1.37422,-1.265813 8.61274,-2.394937 16.66609,-2.599726 12.9762,-0.329974 14.23672,-0.04616 14.23672,3.204897 0,2.86768 0.82865,3.336107 4.22703,2.389459 7.71268,-2.148396 4.29241,1.963141 -6.38366,7.673919 -7.47493,3.998437 -10.52655,6.672625 -10.53165,9.22906 -0.0118,5.846471 -3.47856,5.426403 -8.36068,-1.01306 l -4.56075,-6.015568 -7.06222,4.088137 c -3.884221,2.248473 -10.105677,6.009394 -13.825468,8.357605 -29.859764,18.849737 -39.5028,20.291747 -37.008307,5.534157 0.954802,-5.648627 0.462352,-7.074641 -3.721905,-10.777558 -4.167621,-3.688205 -4.513714,-4.680229 -2.54936,-7.307165 1.59405,-2.131713 1.969444,-5.98134 1.256833,-12.888666 -0.558865,-5.416984 -1.223642,-11.960202 -1.477282,-14.540468 -0.381075,-3.876837 0.346179,-4.794492 4.188588,-5.285175 3.925699,-0.501322 4.649739,0.105275 4.649739,3.895133 0,2.468912 1.902167,6.472228 4.227037,8.896272 4.017712,4.189095 4.227035,4.222348 4.227035,0.671751 0,-3.910314 -2.990103,-23.789683 -4.372411,-29.069584 C 55.543489,36.346486 51.809512,34.91927 42.622556,33.402767 21.009653,29.835131 20.942275,29.855417 7.8672744,43.864932 1.420909,50.772052 -4.2642684,58.583223 -4.7664572,61.223089 c -0.5021719,2.639866 -1.5616192,6.594223 -2.3543068,8.787449 -1.7357056,4.802393 -0.1899293,19.810405 1.8932386,18.381519 0.8100692,-0.555667 1.4728685,-3.541402 1.4728685,-6.635 0,-3.895058 1.6101452,-7.256911 5.2361305,-10.932543 4.9192049,-4.986576 15.5278314,-8.67251 18.6993764,-6.497055 2.366531,1.62326 1.603366,10.518405 -1.093704,12.747868 -1.408296,1.164122 -2.507663,4.981491 -2.491533,8.651381 0.05766,13.114265 1.09186,25.663232 2.292677,27.819642 0.862721,1.54927 -0.788562,2.20528 -5.550994,2.20528 -4.5823447,0 -7.2925679,-1.01847 -8.3638339,-3.14299 -0.8716483,-1.72865 -2.8797105,-3.35392 -4.46237996,-3.61172 -2.34155804,-0.38143 -2.65114664,0.46619 -1.66205434,4.55041 2.8503921,11.76988 6.061029,28.10783 6.9926169,35.58326 0.5514255,4.42498 2.2769694,9.06946 3.8345473,10.32107 3.769874,3.02933 11.931367,21.57636 11.931367,27.11408 0,2.41873 1.521733,7.70822 3.381629,11.75442 1.859896,4.04619 3.381629,8.61353 3.381629,10.14962 0,1.5361 1.902166,5.07085 4.227036,7.85501 2.324869,2.78415 4.227036,6.596 4.227036,8.4708 0,5.76797 7.041903,24.8349 11.240212,30.43442 2.187407,2.91747 3.977117,6.32785 3.977117,7.57857 0,1.25075 1.521733,5.58676 3.381629,9.6356 1.859896,4.04884 3.381629,8.84322 3.381629,10.65417 0,5.70973 5.57541,16.55591 8.510444,16.55591 1.658316,0 4.099937,3.17069 5.952225,7.72956 3.609736,8.88436 11.519451,20.38516 17.662805,25.68187 2.324871,2.00449 8.201754,4.24988 13.05975,4.98977 8.50874,1.29589 9.02193,1.11535 13.99201,-4.92294 4.0282,-4.89397 6.49896,-6.26817 11.26989,-6.26817 12.63698,0 10.94472,-10.03176 -3.02732,-17.94625 -6.68254,-3.78534 -13.88225,-14.96204 -14.42928,-22.39974 -0.83196,-11.31163 -4.32641,-23.84701 -8.51996,-30.56306 -3.9538,-6.33209 -4.294872,-7.96056 -2.66871,-12.74201 1.43612,-4.22271 1.36937,-5.80579 -0.29064,-6.89117 -2.141315,-1.4001 -9.38574,-18.0353 -9.38574,-21.55227 0,-1.01133 1.107774,-1.36699 2.461703,-0.79035 1.839474,0.78341 1.627383,-0.47028 -0.83908,-4.95977 -1.815446,-3.30449 -3.303643,-7.56503 -3.307116,-9.46784 -0.0037,-1.90947 -1.564391,-3.91185 -3.483587,-4.46887 -2.447805,-0.71045 -3.121886,-1.90842 -2.276861,-4.04657 0.66021,-1.67055 1.654326,-6.83739 2.209148,-11.48187 l 1.008755,-8.44451 9.687137,0.17171 c 9.291871,0.16457 9.647331,-0.004 8.711941,-4.14059 -0.78811,-3.48503 -0.14592,-4.54326 3.34733,-5.51633 2.37737,-0.66223 5.3048,-2.52565 6.50538,-4.14094 1.95241,-2.62682 1.16168,-2.80446 -7.48967,-1.68254 -8.208595,1.06452 -9.524728,0.82685 -8.695871,-1.57038 0.537155,-1.55362 1.514721,-2.82476 2.172321,-2.82476 0.65763,0 3.7611,-3.80003 6.89661,-8.44451 3.76264,-5.57341 6.97746,-8.44451 9.45545,-8.44451 2.78067,0 3.5484,-0.87464 2.95992,-3.37219 -0.7668,-3.25436 2.25299,-5.84841 10.02627,-8.61271 1.64852,-0.58623 3.49398,-2.56281 4.10105,-4.39242 1.02887,-3.10078 8.27546,-11.77104 9.83821,-11.77104 0.38478,0 4.29886,-2.53335 8.69799,-5.62967 4.39913,-3.096324 9.94183,-5.642606 12.31713,-5.658406 2.37529,-0.01501 5.41901,-0.801347 6.76383,-1.74563 3.41567,-2.398372 8.54517,1.033364 8.54517,5.716857 0,5.203079 3.18966,11.423149 5.16348,10.069229 0.88671,-0.60821 1.17236,-3.05075 0.6348,-5.42788 -0.66334,-2.93333 -0.12208,-4.68633 1.68461,-5.455775 1.89521,-0.807164 2.662,-0.01126 2.662,2.761265 0,2.94246 0.72361,3.5843 2.95892,2.62453 9.68663,-4.159127 12.20385,-3.55872 19.17398,4.57332 6.50999,7.59518 6.68432,8.10771 3.91394,11.50523 -1.59476,1.95577 -4.38584,3.55595 -6.20243,3.55595 -2.67875,0 -3.10239,-0.88649 -2.24195,-4.6914 0.797,-3.5243 0.39506,-4.69139 -1.61568,-4.69139 -1.99044,0 -2.54049,1.52536 -2.14573,5.95036 0.47474,5.32118 -0.0502,6.12056 -4.96427,7.5599 -3.02233,0.88522 -5.49515,2.45632 -5.49515,3.49131 0,2.94989 5.09113,4.37045 7.21507,2.01317 3.27503,-3.63479 6.59161,-2.47715 6.00633,2.09653 -0.44277,3.46017 -1.60842,4.22226 -6.45815,4.22226 -4.74178,0 -6.01951,0.79076 -6.42943,3.97903 -0.40115,3.12015 0.97483,4.63911 6.37477,7.03709 3.78749,1.68192 8.34779,3.05806 10.13398,3.05806 1.7862,0 3.72554,0.85822 4.30965,1.90716 0.58411,1.04894 1.77032,1.42134 2.63602,0.82752 2.96,-2.03034 1.57766,-6.56641 -2.65307,-8.7058 -5.38191,-2.72155 -5.43034,-5.28823 -0.0998,-5.28823 5.13585,0 7.1005,-3.0011 2.78467,-4.2537 -1.75722,-0.51 -4.06188,-2.72512 -5.12148,-4.92248 -1.68645,-3.49734 -1.37757,-4.22683 2.47864,-5.85401 6.42365,-2.71058 10.44015,-2.28201 11.65929,1.24406 0.96742,2.79799 1.31475,2.75188 3.53474,-0.46914 2.38477,-3.46011 2.49655,-3.435 3.56795,0.80152 0.87263,3.45059 1.85973,4.09545 4.67752,3.05584 1.96432,-0.72473 6.99539,-1.71913 11.18015,-2.20978 10.05308,-1.17868 11.74554,-3.28208 6.39754,-7.95093 -2.37968,-2.0775 -4.78431,-5.80084 -5.34361,-8.2741 -0.55933,-2.47327 -2.54699,-4.94092 -4.41705,-5.48368 -4.40521,-1.27854 -4.36045,-6.98333 0.10415,-13.282742 5.21147,-7.353122 8.98726,-6.598352 7.61463,1.522132 -0.88923,5.26072 -0.47209,6.83544 2.2369,8.44451 4.45077,2.64366 6.39584,2.50669 3.89043,-0.27396 -2.8427,-3.15498 -2.53063,-10.268842 0.50725,-11.562653 3.58031,-1.524816 3.14784,-4.335805 -0.84542,-5.494786 -1.94834,-0.565463 -3.38162,-2.559662 -3.38162,-4.704942 0,-7.879646 18.32038,-6.096917 22.67003,2.205968 1.38431,2.642456 1.31752,3.738947 -0.26674,4.378628 -2.9788,1.202798 -2.6385,6.170309 0.42277,6.170309 1.39492,0 2.53622,-0.844451 2.53622,-1.876558 0,-3.289718 3.17067,-2.032856 8.69729,3.447649 3.12622,3.10013 4.86144,6.235685 4.15391,7.506235 -1.55674,2.7956 -8.09306,2.79762 -13.61705,0.004 -3.32247,-1.68012 -5.36912,-1.63664 -8.95633,0.1903 l -4.64974,2.36808 6.62226,6.37765 c 3.64225,3.50765 8.34331,6.37758 10.44681,6.37758 4.71087,0 8.48668,4.01865 11.6362,12.3846 2.6637,7.07545 9.33805,9.18752 9.33805,2.95496 0,-11.31354 21.53927,-16.35799 29.44117,-6.89505 2.22545,2.66508 5.79895,4.69139 8.27354,4.69139 2.39586,0 4.82632,0.84445 5.40106,1.87656 1.28676,2.31073 7.60866,2.50166 7.60866,0.22976 0,-0.90572 -1.14129,-2.69802 -2.53622,-3.98288 -1.39492,-1.28486 -2.53622,-3.07716 -2.53622,-3.9829 0,-2.32432 6.31313,-2.04619 10.5398,0.46436 l 3.55424,2.11113 -3.88176,2.30567 -3.88175,2.30565 3.87354,3.01118 c 5.0567,3.93093 7.28861,2.18913 6.0441,-4.71692 -0.71327,-3.95818 -0.39801,-5.32475 1.09778,-4.7585 1.15413,0.4369 1.91109,2.40477 1.68216,4.37304 -0.5267,4.52809 0.72873,6.44333 7.83974,11.95996 5.53296,4.2924 5.81277,4.32578 8.03138,0.95833 1.26428,-1.91894 2.29869,-4.71227 2.29869,-6.20742 0,-1.49513 1.33151,-3.80367 2.95892,-5.13008 2.78894,-2.27309 2.79768,-2.93186 0.15218,-11.46622 -1.54382,-4.98002 -3.32361,-13.69905 -3.95514,-19.37564 -1.5075,-13.550321 -7.58372,-37.684014 -10.43148,-41.432024 -1.23808,-1.62889 -2.25104,-4.851089 -2.25104,-7.159912 0,-6.655267 -2.8285,-10.885478 -12.67853,-18.961487 -5.057,-4.146467 -12.23302,-12.50471 -15.94671,-18.574116 -3.71369,-6.069406 -8.87373,-12.7914417 -11.46675,-14.9378857 l -4.71458,-3.9026016 136.53326,-0.059449 136.53326,-0.059449 0,258.9649343 0,258.96494 -22.64509,0 c -25.11014,0 -24.69771,0.21653 -24.69771,-12.96766 0,-8.51347 -7.2126,-21.39194 -17.69283,-31.59143 -9.38306,-9.13168 -29.51902,-22.34561 -60.08463,-39.42964 -26.95329,-15.06499 -30.7035,-16.07732 -67.63258,-18.25673 -10.6944,-0.63114 -21.84282,-1.55152 -24.77427,-2.04528 -5.21492,-0.87838 -5.42464,-0.62257 -9.72218,11.85945 -5.21054,15.1338 -5.22462,15.31569 -1.43336,18.50984 4.46734,3.76373 16.55581,3.12738 24.34239,-1.28143 l 6.87681,-3.89369 12.07749,6.55446 c 14.8024,8.03328 20.09224,14.12237 23.89442,27.50473 1.61283,5.67658 4.36679,13.10921 6.1199,16.51693 1.75312,3.40773 2.99973,8.74838 2.77022,11.86808 -0.35096,4.77077 0.5232,6.23229 5.50057,9.19635 3.25482,1.93828 7.43958,4.19769 9.29948,5.02094 5.12562,2.26874 -94.66765,2.83775 -102.21298,0.58282 -3.51414,-1.05022 -9.14803,-4.34266 -12.51977,-7.31653 -7.79221,-6.87274 -22.69367,-9.53892 -28.42262,-5.0854 -3.70566,2.88069 -3.68993,2.91222 2.92767,5.87023 19.5869,8.75518 24.91822,8.29544 -96.72812,8.34123 -104.43469,0.0392 -113.61301,-0.20783 -114.6081,-3.08591 z m 313.2784,-27.17572 c -1.26172,-0.92779 -8.38096,-5.23271 -15.82054,-9.56649 -9.01383,-5.25085 -16.77,-11.64334 -23.2487,-19.16119 -9.59432,-11.13318 -11.57535,-12.19657 -7.78409,-4.17842 6.92086,14.63697 22.35174,27.54682 41.17768,34.45022 5.63227,2.06534 9.24694,1.08193 5.67565,-1.54412 z m -60.58009,-73.4862 c 0.0258,-2.26133 2.29811,-7.41319 5.04942,-11.4486 7.3716,-10.81208 18.03542,-14.51128 37.42811,-12.98354 14.51271,1.14331 14.96313,1.05736 14.96313,-2.85533 0,-3.19955 -1.01346,-4.03411 -4.89894,-4.03411 -2.69439,0 -9.60144,-2.58947 -15.34895,-5.75437 -10.21764,-5.62643 -10.38965,-5.8455 -7.73457,-9.85193 6.37492,-9.61955 9.97026,-23.80141 6.03408,-23.80141 -0.91223,0 -2.12917,2.08086 -2.70431,4.62415 -1.41375,6.25162 -5.70594,7.36294 -15.70683,4.06673 -10.8224,-3.56698 -14.08748,-1.34848 -14.34969,9.75005 -0.10331,4.37202 -1.01543,7.83087 -2.0651,7.83087 -4.28002,0 -7.56494,7.46701 -9.04671,20.56435 -1.51352,13.37796 -1.06698,18.84336 1.53961,18.84336 0.7142,0 1.76516,2.58931 2.33548,5.75405 1.14375,6.34699 4.43048,5.83322 4.50527,-0.70427 z m -40.42516,-6.19039 c 3.39444,-3.40935 4.22086,-9.18344 1.57422,-10.99882 -0.88327,-0.60589 -2.41426,0.57462 -3.40217,2.62333 -2.36127,4.89677 -10.89636,6.51734 -20.35406,3.86466 -4.18476,-1.17375 -9.70104,-2.05781 -12.2584,-1.96462 -2.55736,0.0933 -4.64974,-0.79398 -4.64974,-1.9715 0,-1.39965 -1.8401,-1.73247 -5.3145,-0.96126 -2.98728,0.6631 -6.28669,0.2842 -7.53461,-0.86527 -2.86738,-2.64114 -5.74985,-0.62658 -5.74985,4.01861 0,2.61067 1.16905,3.64237 4.12725,3.64237 2.26998,0 4.64487,0.92951 5.2775,2.0656 0.6336,1.13781 3.22581,1.6049 5.77107,1.03993 2.54143,-0.56413 5.30241,-0.28719 6.13549,0.61543 4.12248,4.46661 31.6627,3.62743 36.3778,-1.10846 z m -1.78108,-73.98771 c 7.52264,-4.46827 2.30182,-7.6107 -14.03896,-8.45008 -11.93175,-0.61292 -15.95156,1.58136 -10.70181,5.84176 1.71291,1.3901 5.26998,1.96633 8.52231,1.38058 3.07024,-0.55298 6.99933,-0.0916 8.73128,1.02539 3.9273,2.53274 3.57962,2.52334 7.48718,0.20235 z m -33.08203,-3.68709 c 0.57474,-1.03211 -0.14119,-1.87656 -1.59102,-1.87656 -1.44981,0 -2.63602,0.84445 -2.63602,1.87656 0,1.0321 0.71596,1.87655 1.59102,1.87655 0.87507,0 2.06128,-0.84445 2.63602,-1.87655 z M 354.698,256.72321 c 0,-2.39965 -4.97164,-6.59685 -6.19966,-5.23393 -1.22803,1.36293 2.55373,6.88072 4.71586,6.88072 0.81609,0 1.4838,-0.74106 1.4838,-1.64679 z m 6.76325,-80.98776 c 0,-3.06158 -1.52079,-7.25151 -3.38163,-9.31677 -1.85989,-2.06421 -3.38162,-5.39904 -3.38162,-7.41073 0,-3.77412 -9.63463,-13.2314 -13.47951,-13.2314 -1.60302,0 -1.87475,2.08388 -1.03997,7.97537 1.8218,12.85736 4.38223,22.04955 6.14176,22.04955 0.90025,0 3.26305,2.07579 5.25065,4.61286 4.70071,6.00018 9.89032,3.5451 9.89032,-4.67888 z m -500.81922,5.32038 c 2.69783,-2.9942 2.5687,-5.25436 -0.30021,-5.25436 -2.86768,0 -6.50687,4.58021 -4.98301,6.27147 1.61513,1.79256 2.99017,1.52784 5.28322,-1.01711 z m 378.26406,-17.72396 c 2.12877,-0.90662 1.22826,-1.82585 -3.58948,-3.66405 -6.31442,-2.40926 -10.81132,-1.0668 -10.81132,3.22751 0,1.90893 10.21645,2.21862 14.4008,0.43654 z M 130.66508,150.6775 c 3.0769,-1.89812 2.87649,-2.13994 -2.22396,-2.68329 -5.42249,-0.57766 -10.45714,2.09639 -10.45714,5.5541 0,1.94092 7.71087,0.19529 12.6811,-2.87081 z m 48.13925,-13.70657 c 1.37185,-1.34566 -4.00347,-4.27147 -7.90284,-4.30155 -4.36987,-0.0338 -12.33796,3.69045 -12.33796,5.76656 0,1.41487 18.68353,0.0625 20.2408,-1.46501 z m 96.00244,-42.95635 c -1.61126,-1.788284 -4.84162,1.108295 -3.64082,3.264647 0.71373,1.281689 1.65946,1.249318 2.87377,-0.09833 0.99549,-1.104842 1.34066,-2.529655 0.76705,-3.166259 z M 483.20811,509.8415 c -3.88078,-6.04874 -3.18785,-11.22647 0.98772,-7.38037 1.31212,1.2086 2.38569,3.36073 2.38569,4.7825 0,1.42179 1.52174,2.58507 3.38163,2.58507 6.1698,0 3.5227,-5.11337 -9.72219,-18.78019 -20.06666,-20.70594 -25.53604,-33.28124 -16.46915,-37.86621 3.68168,-1.86177 5.93262,-1.19413 17.0068,5.04432 18.53562,10.44173 25.76133,16.70596 43.93985,38.0931 l 16.26738,19.13866 -27.08703,0 -27.08702,0 -3.60368,-5.61688 z m 67.62435,3.74032 c 0,-1.03211 0.76087,-1.87656 1.69082,-1.87656 0.92995,0 1.69082,0.84445 1.69082,1.87656 0,1.0321 -0.76087,1.87656 -1.69082,1.87656 -0.92995,0 -1.69082,-0.84446 -1.69082,-1.87656 z m -94.07204,-20.24147 c -1.13758,-2.00156 -1.09955,-4.38827 0.11633,-7.30084 2.39044,-5.72635 5.06362,-4.51541 5.70173,2.58289 0.5811,6.46424 -3.11982,9.46538 -5.81802,4.71795 z M 89.730761,299.50279 c -2.293833,-0.95057 -5.938568,-6.47298 -9.440138,-14.3035 -3.137055,-7.0153 -7.677636,-17.05738 -10.090191,-22.31572 -2.412538,-5.25834 -5.615414,-16.16407 -7.1175,-24.23497 -1.502086,-8.07091 -3.02879,-15.20903 -3.392687,-15.86252 -0.363897,-0.65348 -0.02773,-2.32645 0.746969,-3.71769 2.479105,-4.45193 6.563978,-0.56948 9.163689,8.70959 5.716154,20.40242 8.831191,27.76474 12.037363,28.45002 7.855051,1.67892 10.671429,5.85058 12.610939,18.67961 1.092339,7.22527 1.328884,15.43268 0.557582,19.34628 -1.187968,6.02782 -1.762577,6.62197 -5.076026,5.2489 z m -35.997728,-93.6764 c 0,-1.03211 0.760866,-1.87656 1.690814,-1.87656 0.929948,0 1.690815,0.84445 1.690815,1.87656 0,1.0321 -0.760867,1.87655 -1.690815,1.87655 -0.929948,0 -1.690814,-0.84445 -1.690814,-1.87655 z M 41.390088,178.14716 c -0.511471,-2.83829 -1.17723,-5.99342 -1.479463,-7.0114 -0.302233,-1.01795 0.71699,-2.12154 2.264947,-2.45241 1.588013,-0.33942 3.187354,0.87601 3.670184,2.78914 0.470638,1.86489 1.347781,5.29071 1.949204,7.61295 0.866577,3.34602 0.411933,4.22226 -2.190703,4.22226 -2.230134,0 -3.582701,-1.65631 -4.214169,-5.16054 z m -16.4009,-33.1713 c 0,-3.63204 0.867337,-4.82899 3.499225,-4.82899 2.657706,0 3.369286,1.01079 2.958925,4.20308 -0.801784,6.23721 -6.45815,6.78541 -6.45815,0.62591 z m 46.536605,-1.02779 c -2.829069,-3.46949 -2.843239,-4.00634 -0.223085,-8.44451 1.538928,-2.60671 3.932141,-4.73947 5.318237,-4.73947 1.386113,0 4.077936,-1.05557 5.981845,-2.3457 2.924127,-1.98144 3.816068,-1.81564 5.74394,1.06778 2.205194,3.29822 2.315462,3.29743 3.265107,-0.0233 1.743668,-6.09738 28.062963,-13.69887 28.062963,-8.10509 0,2.9694 -13.05638,11.28283 -17.71996,11.28283 -3.587827,0 -4.26063,0.87152 -4.26063,5.51892 0,6.07969 -2.489388,9.15117 -3.962882,4.88949 -0.514563,-1.48826 -3.25732,-4.03845 -6.095012,-5.66708 -5.037869,-2.89138 -5.159442,-2.85831 -5.159442,1.40312 0,8.5496 -5.91548,11.3385 -10.951081,5.16298 z M 22.880184,136.8629 c -0.339769,-0.77408 -0.574877,-6.47412 -0.522478,-12.66676 0.07372,-8.71029 0.669444,-11.25935 2.631482,-11.25935 1.394922,0 2.319307,1.14446 2.054187,2.54322 -0.265103,1.39877 0.265407,3.54276 1.178921,4.7644 1.091032,1.45904 1.040814,4.93273 -0.146425,10.12354 -1.675681,7.32692 -3.712843,9.87345 -5.195771,6.49495 z M 225.73204,108.26336 c 0.54764,-4.53151 0.0979,-8.567596 -1.13903,-10.221725 -1.12421,-1.503385 -1.86164,-4.678145 -1.63874,-7.055031 0.2229,-2.376885 -0.17114,-8.236173 -0.87566,-13.020644 -0.80344,-5.456372 -0.59056,-10.130671 0.57109,-12.539683 2.31018,-4.790795 8.56119,-7.234692 10.33901,-4.042104 0.93894,1.686124 1.82667,1.234493 3.20929,-1.632737 3.11867,-6.467461 7.21759,-7.885407 14.64326,-5.065598 4.82389,1.83182 6.7945,3.722921 7.21963,6.928269 0.32159,2.424813 1.36584,5.46431 2.32054,6.754444 2.04499,2.763474 -1.10884,7.975369 -4.82604,7.975369 -3.14081,0 -9.40063,-4.001421 -11.85154,-7.575794 -1.08781,-1.586423 -4.14054,-2.779857 -6.78386,-2.652101 -4.34319,0.209912 -4.82346,0.901798 -4.9868,7.184325 -0.19972,7.680469 4.67943,12.875512 8.30911,8.847087 2.56433,-2.846025 6.24357,-2.566943 6.24357,0.473587 0,3.317697 -5.47574,8.735356 -8.82901,8.735356 -1.45469,0 -3.08284,-1.266676 -3.61813,-2.814836 -0.53529,-1.54816 -1.70711,-2.814836 -2.60403,-2.814836 -2.16693,0 -2.04939,10.867388 0.18826,17.406042 1.45125,4.24074 1.22109,5.89682 -1.23888,8.91365 -4.48806,5.50406 -5.6593,4.55159 -4.65204,-3.78304 z m -134.434267,1.54737 c 0.408906,-1.37698 2.480555,-2.78579 4.603685,-3.13066 2.622887,-0.42606 3.621902,0.17546 3.116737,1.87655 -0.408905,1.37698 -2.480554,2.78579 -4.603675,3.13067 -2.622897,0.42605 -3.621912,-0.17546 -3.116747,-1.87656 z M 216.05122,98.973364 c 0,-1.093019 0.76087,-1.987312 1.69081,-1.987312 0.92995,0 1.69081,0.372385 1.69081,0.827525 0,0.45514 -0.76086,1.349432 -1.69081,1.987312 -0.92994,0.637881 -1.69081,0.265491 -1.69081,-0.827525 z m -62.56014,-8.35449 c 0,-2.666588 4.86965,-5.742772 6.4008,-4.043418 1.07933,1.197919 -2.95294,6.657482 -4.91701,6.657482 -0.81608,0 -1.48379,-1.176339 -1.48379,-2.614064 z m -12.65952,-1.100263 c -1.54808,-2.780064 2.05615,-9.007157 6.02189,-10.404104 5.06666,-1.784756 5.761,0.079 1.70608,4.579269 -1.93738,2.150216 -3.52252,4.75394 -3.52252,5.786047 0,2.409368 -2.87061,2.435827 -4.20545,0.03884 z m 29.56767,-9.421576 c 0,-1.032107 1.09639,-1.876558 2.43642,-1.876558 1.34004,0 2.90669,0.844451 3.48142,1.876558 0.57475,1.032107 -0.52164,1.876558 -2.43642,1.876558 -1.91478,0 -3.48142,-0.844451 -3.48142,-1.876558 z m 14.4932,-7.288437 c -0.95554,-1.715943 4.29135,-4.602426 13.82794,-7.607189 6.64706,-2.09435 7.07338,0.109404 1.04008,5.376638 -4.52624,3.951467 -13.18623,5.250664 -14.86802,2.230551 z m -7.72994,-9.750011 c 0,-2.048506 9.08947,-7.356799 12.59714,-7.356799 3.04116,0 3.48538,2.938163 0.72994,4.828194 -3.37774,2.316873 -13.32708,4.204615 -13.32708,2.528605 z m 174.12862,-3.690306 c -2.31097,-1.970667 -3.39612,-3.601809 -2.41142,-3.624759 2.44362,-0.05686 8.55941,5.04779 7.48121,6.244452 -0.47742,0.529846 -2.75883,-0.649008 -5.06979,-2.619693 z M 163.63597,57.578345 c 0,-2.433782 6.26119,-9.382788 8.45408,-9.382788 2.75539,0 1.92899,4.808754 -1.40126,8.153662 -3.45211,3.467334 -7.05282,4.094836 -7.05282,1.229126 z M 319.6814,47.239714 c -2.91895,-2.269114 -4.4966,-2.401018 -7.93302,-0.663288 -3.38539,1.711927 -6.1713,1.548404 -13.21811,-0.7759 -4.91075,-1.619769 -13.11339,-3.482891 -18.22811,-4.140305 -10.29532,-1.323273 -16.90814,-5.108177 -16.90814,-9.67752 0,-2.248285 0.94415,-2.65698 3.80433,-1.64681 2.09238,0.739007 7.60867,1.625155 12.25841,1.969203 29.10862,2.153931 43.33252,5.673415 51.22716,12.675376 1.79754,1.594267 1.79754,2.224321 0,3.489853 -3.30404,2.326143 -6.95202,1.918123 -11.00252,-1.230609 z M 217.64895,40.352148 c -5.90033,-3.982374 -6.01722,-5.060701 -1.5922,-14.68729 4.35202,-9.467815 9.11621,-12.48926 14.57774,-9.245236 2.20862,1.311864 4.01568,3.5092 4.01568,4.882952 0,1.373753 0.76087,2.497736 1.69082,2.497736 0.92995,0 1.69081,1.688902 1.69081,3.753115 0,2.085062 1.12722,3.753115 2.53623,3.753115 1.39492,0 2.53622,-1.266676 2.53622,-2.814836 0,-3.640597 5.54455,-3.610666 11.94805,0.06455 4.25693,2.443166 4.74743,3.43806 3.23818,6.567952 -2.08374,4.321224 -4.67598,4.587132 -9.03055,0.926343 -3.24971,-2.731967 -7.91323,-1.187842 -12.03977,3.986484 -3.02415,3.792054 -14.15431,3.971284 -19.57121,0.315187 z"
       style="fill:#ce8e41;fill-opacity:1" />
    <path
       inkscape:connector-curvature="0"
       id="path4542"
       d="m -174.21808,509.3459 c 0.29512,-3.36187 1.10723,-6.31745 1.80469,-6.56795 3.61264,-1.29756 4.60926,0.14299 4.22602,6.10872 -0.31606,4.91987 -1.19142,6.56512 -3.49449,6.56795 -2.45128,0.004 -2.96426,-1.23258 -2.53622,-6.10872 z m 28.85772,1.07037 c -1.16243,-2.7989 -2.11352,-7.25788 -2.11352,-9.90886 0,-2.65098 -1.97349,-8.04323 -4.38552,-11.9828 -3.69513,-6.03523 -5.05731,-6.97572 -8.6529,-5.97415 -9.36135,2.60767 -15.10794,-13.01723 -6.40595,-17.4177 2.38105,-1.20405 4.22704,-3.7174 4.22704,-5.75519 0,-2.80688 0.85263,-3.38601 3.80433,-2.58404 2.09239,0.5685 4.7189,1.82589 5.83671,2.79419 1.11781,0.96831 3.61004,1.20483 5.53827,0.52561 2.49498,-0.87887 5.93229,0.69971 11.92076,5.47463 9.03102,7.20089 11.65099,7.98832 14.83213,4.45772 1.57809,-1.75144 2.02897,-1.27801 2.02897,2.13052 0,4.2367 6.96209,13.25726 10.23201,13.25726 0.88203,0 1.60369,1.6889 1.60369,3.75311 0,2.06421 1.09003,3.75312 2.42229,3.75312 1.33225,0 2.90526,1.6889 3.49557,3.75311 0.5903,2.06421 1.763337,3.75312 2.606737,3.75312 1.680391,0 6.692737,-9.8354 6.692737,-13.13274 0,-2.5541 8.229991,-10.76215 12.339543,-12.30661 1.672035,-0.6284 4.086774,-0.17846 5.366089,0.99996 3.898252,3.59066 14.76834,-0.79536 18.073421,-7.29255 2.659533,-5.22812 2.637164,-5.69212 -0.422695,-8.76545 -3.503783,-3.51922 -4.185762,-7.41665 -1.607263,-9.1853 0.892991,-0.61253 6.262016,1.48499 11.931164,4.66114 6.911847,3.87237 13.957318,6.1531 21.386283,6.92304 9.617167,0.99671 12.783183,2.40017 23.99864239,10.63839 18.50001161,13.589 19.28806661,13.96887 35.46293761,17.09437 8.06018,1.55748 16.93748,3.58443 19.727324,4.5043 7.26636,2.39589 29.312011,12.46721 36.837333,16.82876 l 6.402696,3.71087 -53.322795,0.14957 C 4.30625,515.3865 -8.8271001,514.87304 -8.8271001,513.189 c 0,-1.71838 -0.4685417,-1.71435 -2.0289769,0.0169 -2.611666,2.89856 -7.020938,2.96348 -5.415087,0.0797 0.876011,-1.57312 0.08742,-1.71866 -2.859133,-0.52773 -2.237793,0.90501 -31.079485,1.89302 -64.092637,2.19614 l -60.023906,0.55113 -2.11352,-5.08891 z m 260.38779,1.68063 c -1.76094,-5.1051 -7.75431,-9.70835 -11.15959,-8.5712 -2.55509,0.85324 -2.91872,0.31958 -1.99152,-2.92268 0.81372,-2.84544 -0.32346,-6.0093 -4.023481,-11.19417 -2.836794,-3.97521 -6.589899,-10.9356 -8.340225,-15.46755 -1.750354,-4.53194 -5.20059,-10.90182 -7.667238,-14.1553 -4.007095,-5.28529 -4.122274,-5.81016 -1.081245,-4.92756 5.161636,1.49808 4.348621,-4.93251 -1.600168,-12.65669 -2.752053,-3.57339 -5.034653,-7.92502 -5.072443,-9.67029 -0.0377,-1.74527 -0.913445,-3.75265 -1.945873,-4.46082 -1.102327,-0.75612 -1.492855,-3.91598 -0.946112,-7.6553 0.532522,-3.64205 -0.104324,-9.11777 -1.487664,-12.79244 -1.330299,-3.53362 -1.953567,-7.77007 -1.385047,-9.41437 0.568756,-1.64497 -0.299799,-4.62495 -1.931097,-6.62554 -2.340678,-2.87054 -2.739237,-5.52281 -1.89339,-12.59962 0.589266,-4.93004 0.412339,-11.51411 -0.393165,-14.63126 -1.685928,-6.52426 1.240094,-25.79719 4.458914,-29.36961 2.840484,-3.15252 2.558101,-6.75069 -1.263004,-16.09352 -1.913394,-4.67837 -4.410405,-7.97537 -6.040199,-7.97537 -1.52809,0 -9.364169,7.55138 -17.413511,16.78087 -17.401372,19.95265 -28.498541,30.14631 -75.504467,69.357 -19.528906,16.29032 -36.551349,31.01818 -37.827651,32.72857 -3.655299,4.89851 -3.902174,4.86045 -41.271794,-6.36243 -14.95534,-4.49141 -22.33093,-5.78569 -29.58925,-5.19245 -10.38633,0.84893 -28.11546,8.765 -31.84752,14.21997 -1.85033,2.70451 -2.23921,-34.04875 -2.28382,-215.8433 l -0.0538,-219.1028532 195.289064,0.045225 c 117.159016,0.027022 195.289066,0.733171 195.289066,1.76484602 0,0.94582251 -1.33152,2.23364758 -2.95893,2.86180648 -1.6274,0.6281776 -5.24152,4.5080729 -8.03137,8.6219937 -8.32457,12.275501 -9.5705,13.387511 -13.9569,12.456889 -5.24658,-1.113137 -20.78361,3.359957 -30.75761,8.855062 -4.23541,2.33348 -14.1681,6.595105 -22.07265,9.470291 -7.90456,2.875168 -17.8988,7.229907 -22.20941,9.677163 -4.31061,2.447256 -8.94133,4.449562 -10.29049,4.449562 -2.95585,0 -21.71176,15.657039 -30.354694,25.339475 -3.416764,3.827689 -6.979208,6.433402 -7.916562,5.790437 C 65.845773,85.695275 64.784264,81.002418 59.67146,52.210546 58.322444,44.613772 56.341267,37.224827 55.268833,35.790668 54.196417,34.356528 50.558884,33.162493 47.185456,33.137253 43.81201,33.112107 37.652897,32.222094 33.498516,31.159624 23.062353,28.490597 19.253726,30.015262 8.7093839,41.083179 -6.3120813,56.850485 -7.9816929,61.034607 -7.9816929,82.911871 c 0,13.183811 0.861825,21.277369 2.8973795,27.210089 3.9445013,11.49635 9.7837285,41.50658 9.7837285,50.2826 0,4.77565 1.4527477,9.31482 4.36061,13.62491 7.3977699,10.96512 11.1353489,19.76792 30.2327589,71.20463 4.023614,10.83711 9.226521,23.50388 11.562043,28.14836 2.335505,4.64448 5.60133,13.30751 7.257381,19.25121 2.669728,9.58179 3.478445,10.75164 7.135018,10.32106 3.435159,-0.40451 5.006703,1.28747 9.408705,10.12975 7.616851,15.29992 17.681893,26.60332 26.215449,29.44092 8.99304,2.99035 21.41916,-0.53684 32.07643,-9.10502 11.5571,-9.29162 12.14836,-12.82565 4.80522,-28.72161 -3.42717,-7.41897 -6.89627,-14.75569 -7.70908,-16.30385 -0.8128,-1.54816 -3.08124,-6.61487 -5.04094,-11.25935 -3.4192,-8.10344 -9.73512,-20.7073 -14.7776,-29.48976 -1.31248,-2.28593 -2.38632,-5.83645 -2.38632,-7.89006 0,-2.05361 -1.97503,-5.92585 -4.38898,-8.60498 -3.16706,-3.51497 -4.113999,-6.087 -3.40134,-9.23846 0.66131,-2.92427 -0.40255,-6.64093 -3.219686,-11.24823 -2.314028,-3.78451 -4.212002,-7.47675 -4.217733,-8.20501 -0.0046,-0.72823 -1.022672,-3.47683 -2.259898,-6.10797 -1.237199,-2.63112 -2.743526,-8.78446 -3.347385,-13.67408 -1.260745,-10.20853 1.249967,-12.85289 8.253541,-8.69294 3.157728,1.87562 5.072121,1.9421 8.340011,0.28959 2.33282,-1.17968 4.24147,-3.04926 4.24147,-4.15466 0,-3.30783 10.67241,-14.36676 15.21733,-15.76845 6.01285,-1.85444 11.8357,-5.21756 11.8357,-6.83598 0,-2.71793 -14.43198,0.72497 -17.39672,4.15017 -2.81478,3.25196 -16.41956,5.22851 -16.41956,2.38546 0,-2.82217 12.41301,-16.83103 15.72449,-17.74606 2.09303,-0.57835 3.72518,-2.49537 3.73199,-4.38337 0.0135,-3.95648 5.25528,-8.66292 9.64678,-8.66292 1.70209,0 3.88373,-1.92195 4.84809,-4.27101 0.96437,-2.34906 7.0898,-8.34702 13.6121,-13.32881 9.02472,-6.893199 12.92524,-8.831532 16.32165,-8.110953 2.88029,0.611082 5.14454,-0.08764 6.38494,-1.970329 2.18996,-3.323965 5.81661,-1.679331 5.81661,2.637783 0,1.585935 1.60936,5.391969 3.57635,8.457809 l 3.57636,5.5743 3.6909,-3.84831 c 5.51037,-5.74542 13.76847,-7.09148 15.93552,-2.5975 1.06762,2.214 1.13715,4.62288 0.18181,6.29878 -0.85082,1.49256 -1.55861,5.00947 -1.57284,7.81536 -0.0191,3.75763 -0.69405,4.81708 -2.56211,4.0215 -1.39492,-0.5941 -2.53622,-0.23836 -2.53622,0.7905 0,4.0209 -14.23695,9.45184 -22.17454,8.45888 -5.26686,-0.65888 -9.39101,0.008 -13.05238,2.10882 -2.94395,1.68961 -5.35263,3.4122 -5.35263,3.82797 0,1.8851 30.90067,-1.21212 35.92981,-3.6013 3.20828,-1.52416 4.19934,1.67663 1.16382,3.75878 -3.32692,2.28203 -5.19849,10.49521 -3.04719,13.37216 1.224,1.63683 2.59859,1.99474 3.56057,0.92708 1.26858,-1.40795 8.04498,-0.94611 8.04498,0.54831 0,0.22395 -3.08838,4.11998 -6.86305,8.65787 -3.77469,4.53787 -6.03424,8.55729 -5.02126,8.93206 1.01298,0.37477 6.624,-2.07046 12.46891,-5.4338 10.44643,-6.01121 10.72306,-6.06205 16.27131,-2.99016 7.51611,4.16143 15.52986,3.9421 24.6618,-0.67498 9.01537,-4.55816 10.03939,-9.31366 2.02076,-9.38431 -4.69993,-0.0415 -5.92333,-1.08082 -8.45407,-7.18273 -1.62741,-3.92388 -2.95893,-7.68043 -2.95893,-8.3479 0,-2.28792 9.30053,-6.45245 17.29144,-7.74266 9.49252,-1.53266 11.50029,-4.05997 6.38467,-8.03671 -2.05896,-1.60058 -4.81469,-5.75533 -6.12385,-9.23282 -1.30918,-3.47748 -3.51139,-6.3227 -4.89384,-6.3227 -3.13294,0 -3.23652,-3.81497 -0.22758,-8.382001 2.15614,-3.272622 2.34957,-3.188346 3.40612,1.483757 1.13017,4.997594 8.51728,10.651364 13.9169,10.651364 1.57782,0 6.04041,2.88445 9.91691,6.40988 3.8765,3.52545 9.25653,6.69215 11.95565,7.03709 4.11793,0.5263 5.14858,1.76562 6.40598,7.70294 0.82417,3.89164 2.97858,7.95484 4.78755,9.02933 5.05093,3.00013 12.28808,1.39337 13.02135,-2.89095 1.37564,-8.03748 5.47857,-12.2769 11.85281,-12.2471 3.38034,0.015 6.98326,0.64913 8.0065,1.40741 3.23681,2.39871 5.97341,9.83275 4.94431,13.43135 -0.54522,1.90651 -0.3186,6.78925 0.50359,10.85052 2.02597,10.00746 0.68563,18.76982 -3.0364,19.85007 -2.22217,0.64494 -2.79217,-0.002 -2.20305,-2.503 0.54972,-2.33302 -0.75364,-4.26176 -4.227,-6.25523 -2.76198,-1.58518 -5.44778,-2.40935 -5.96846,-1.83148 -1.47212,1.63384 2.49199,10.65971 6.15917,14.02376 1.81455,1.66458 2.81467,3.89659 2.22246,4.96006 -1.85995,3.34006 12.94638,9.63591 22.46879,9.55406 4.83637,-0.0417 9.05447,0.21702 9.3735,0.5747 0.31906,0.35765 -0.0817,4.45031 -0.89034,9.09479 -0.80875,4.64448 -1.50359,18.41665 -1.54409,30.60481 -0.08,24.09522 -1.28122,26.00243 -7.01932,11.1454 -1.80631,-4.67685 -3.6388,-8.1098 -4.07222,-7.62877 -0.43342,0.48102 -2.18974,5.78672 -3.90294,11.79043 l -3.1149,10.91584 -4.93135,-7.63473 c -2.71223,-4.19912 -7.03304,-9.01692 -9.6018,-10.70623 -4.61453,-3.03473 -4.68193,-3.00829 -5.63066,2.20871 -1.97455,10.85793 -12.75995,19.06912 -27.22566,20.72757 -4.83061,0.55381 -9.1068,1.9492 -9.50261,3.10084 -0.49246,1.43279 4.35906,2.227 15.36564,2.51543 17.58944,0.46094 22.36427,2.84952 22.36427,11.18757 0,5.00399 -3.21424,6.96884 -11.40011,6.96884 -6.56528,0 -6.81275,2.0406 -1.16058,9.57044 4.15308,5.53275 4.26973,5.56506 6.77587,1.87656 1.40253,-2.06421 2.97993,-5.65313 3.50533,-7.97537 0.5254,-2.32224 1.98307,-4.22225 3.23928,-4.22225 1.25621,0 5.66398,-2.26585 9.79502,-5.03522 6.23811,-4.18187 7.6859,-6.24903 8.54298,-12.19763 1.13274,-7.86206 3.3019,-9.13815 6.00494,-3.53265 2.53478,5.25659 2.17752,7.06786 -1.61097,8.16741 -8.04044,2.33362 -7.46589,14.83021 1.56808,34.10614 1.91619,4.08862 3.484,8.8182 3.484,10.51018 0,5.07401 3.60886,14.96134 5.09003,13.94536 0.75845,-0.52024 1.89183,-4.31483 2.51864,-8.43244 1.28332,-8.43046 2.45492,-9.88442 5.99858,-7.4444 3.74233,2.57683 2.59199,26.63923 -2.35677,49.29771 -5.41605,24.79797 -6.86493,41.56135 -3.87865,44.87567 1.22627,1.36098 2.97008,4.94 3.87512,7.9534 2.39876,7.98685 5.28822,7.95178 6.64596,-0.0807 1.16105,-6.86882 11.15908,-21.41595 14.71888,-21.41595 0.98101,0 3.05409,-1.27604 4.60686,-2.83565 3.02079,-3.03411 9.30114,-3.52727 27.45501,-2.15592 9.9184,0.74923 11.41299,0.44442 11.41299,-2.32751 0,-4.5074 -3.36671,-7.69338 -8.1298,-7.69338 -4.66652,0 -20.61404,-7.67199 -20.61404,-9.91693 0,-0.82192 1.57422,-3.85755 3.49827,-6.74585 5.02045,-7.5365 6.38709,-16.61778 4.57459,-30.39817 -4.88719,-37.15689 -12.13435,-83.40084 -15.12246,-96.4957 -3.78663,-16.59425 -3.3046,-32.28403 1.10176,-35.86147 2.92046,-2.37104 3.51478,-11.99075 0.74082,-11.99075 -2.09595,0 -0.3809,-24.0405 1.94688,-27.29019 2.24601,-3.13554 1.36056,-33.08692 -1.18328,-40.0259 -1.27592,-3.4804 -2.31984,-9.53824 -2.31984,-13.46188 0,-3.92366 -0.89429,-11.433774 -1.98732,-16.689186 -1.79135,-8.613079 -1.6387,-10.246285 1.54798,-16.56304 4.88641,-9.686039 7.45882,-26.016068 4.52405,-28.719287 -1.21664,-1.120623 -7.3339,-4.023808 -13.59394,-6.451548 -14.80774,-5.742641 -16.85863,-7.925078 -19.19747,-20.428843 -1.33261,-7.12435 -3.26137,-11.585941 -6.06782,-14.0359932 -2.26282,-1.9754521 -4.11421,-4.10356215 -4.11421,-4.7290938 0,-0.6255317 23.01621,-1.0990059 51.14713,-1.0521483 l 51.14714,0.085196 4.22704,9.76675 c 4.97195,11.4878903 7.93995,12.5787523 21.42043,7.8728153 9.43747,-3.294541 13.33776,-7.9800794 11.86075,-14.2486634 -0.8117,-3.4448529 1.00757,-3.5612933 55.64486,-3.5612933 l 56.48399,0 0,258.9649347 0,258.96494 -22.82599,0 -22.826,0 -0.0372,-7.97537 c -0.0859,-18.44549 -12.70341,-35.30103 -39.69701,-53.03054 -22.05992,-14.48907 -63.54689,-37.77573 -70.18176,-39.39307 -2.86497,-0.69838 -17.9199,-1.90623 -33.4554,-2.68408 -15.5355,-0.77785 -29.4674,-2.01253 -30.95978,-2.74372 -2.08766,-1.02283 -3.51164,0.74839 -6.17462,7.68043 -6.61342,17.21536 -8.04225,24.75127 -5.18439,27.34327 1.40006,1.26979 4.50728,6.1433 6.90497,10.83 4.26081,8.32852 12.41871,18.34938 26.11822,32.08261 4.58757,4.59884 7.18296,9.03761 7.955,13.60504 0.68178,4.0334 0.47618,6.77919 -0.50758,6.77919 -0.90942,0 -2.13646,1.68891 -2.72678,3.75312 -0.99284,3.4718 -2.55389,3.75233 -20.82642,3.74264 -24.21662,-0.0131 -29.91406,-1.65825 -38.14843,-11.0174 -5.69397,-6.47172 -6.21071,-7.79946 -4.45362,-11.44328 1.09325,-2.26715 1.57413,-4.58111 1.06863,-5.14214 -0.5055,-0.56104 -1.8625,1.4113 -3.01557,4.38296 -1.15307,2.97168 -2.33162,5.76461 -2.619,6.20656 -0.28739,0.44193 -4.32551,0.61092 -8.9736,0.37554 -5.49635,-0.27835 -9.7754,0.60494 -12.23892,2.52641 l -3.78786,2.95439 3.57644,1.04506 c 1.96704,0.57477 7.29311,3.03015 11.83571,5.45641 l 8.25925,4.41135 -112.09631,0.0497 c -104.19203,0.0463 -112.17431,-0.17621 -113.20235,-3.15667 z m 264.06861,-6.62643 c -2.21522,-6.40688 -6.80221,-2.10581 -4.88904,4.58428 0.97987,3.42641 1.44735,3.59151 3.55289,1.25465 1.33808,-1.48507 1.93683,-4.10159 1.33615,-5.83893 z m 9.41824,-4.87901 c 0,-3.2893 -3.08472,-7.65177 -5.4106,-7.65177 -1.62032,0 -1.82962,11.98101 -0.24011,13.74514 1.6549,1.8367 5.65071,-2.47214 5.65071,-6.09337 z m -88.88655,-77.29775 c -1.22494,-2.1997 -9.18069,-2.15035 -9.18069,0.0571 0,0.94608 0.95109,2.07532 2.11352,2.50941 3.13181,1.16949 8.13565,-0.64762 7.06717,-2.56638 z m 18.04279,-11.80839 c 1.48866,-0.71545 3.64894,-1.04772 4.80063,-0.73835 3.67175,0.98627 9.12229,-8.87307 7.89806,-14.28664 -1.38143,-6.10874 -3.84974,-6.15853 -8.09877,-0.16345 -2.60206,3.67139 -4.86068,4.68888 -10.38822,4.67983 -3.88478,-0.006 -9.29582,-1.30368 -12.02452,-2.88293 -2.72869,-1.57926 -6.07241,-2.39813 -7.43049,-1.81976 -1.35806,0.5784 -3.8176,-0.30272 -5.46566,-1.95802 -2.37549,-2.38596 -3.73362,-2.5718 -6.55368,-0.89675 -1.95647,1.1621 -4.48841,1.47419 -5.62654,0.69352 -2.13558,-1.46478 -14.76894,-2.3487 -14.76894,-1.03325 0,2.18985 9.67742,11.66196 11.91475,11.66196 1.44445,0 3.57908,1.05557 4.74365,2.3457 1.16456,1.29013 4.55041,2.55292 7.52411,2.8062 2.97371,0.25326 7.81616,0.67549 10.761,0.93828 2.94482,0.26278 5.85006,1.02807 6.45606,1.70065 1.33452,1.48111 12.49346,0.7625 16.25856,-1.04699 z M 122.85241,358.52555 c 3.05156,-2.37219 3.42226,-3.40342 1.65837,-4.61331 -1.24942,-0.85701 -3.99494,-1.07818 -6.10117,-0.49147 -6.59893,1.83816 -15.64296,-0.96142 -15.64296,-4.84229 0,-4.42984 -8.270603,-6.47294 -11.836764,-2.92403 -1.929224,1.91989 -3.347422,2.02743 -5.917856,0.4488 -3.08595,-1.89525 -3.168663,-1.789 -0.94907,1.21931 1.337337,1.81251 6.663399,5.72145 11.835702,8.68653 10.725838,6.14867 21.042298,7.11185 26.953748,2.51646 z m 106.21808,-2.57456 c 2.96443,0 3.88887,-1.05761 3.88887,-4.44908 0,-7.74905 9.42207,-41.04868 15.19878,-53.7158 5.73193,-12.56888 11.85425,-30.62437 11.85425,-34.95961 0,-2.81602 -4.409,-1.56454 -8.6438,2.45353 -3.79767,3.60331 -12.89099,6.3783 -21.18575,6.46524 -9.08595,0.0951 -14.56195,6.28623 -13.03841,14.74083 0.67537,3.74783 0.3435,5.66193 -0.98166,5.66193 -1.10107,0 -1.59477,0.7312 -1.09709,1.62489 0.49765,0.8937 2.82516,1.21748 5.17222,0.71951 5.05032,-1.07147 5.79792,2.49322 0.88576,4.22355 -4.7558,1.67524 -4.21228,4.6914 0.8454,4.6914 3.34848,0 4.22704,0.94721 4.22704,4.55735 0,2.50655 1.25001,5.94467 2.77777,7.64027 2.57648,2.85952 2.57346,3.30967 -0.0416,6.21199 -1.55065,1.72101 -3.75173,3.13847 -4.89129,3.14995 -3.14276,0.0317 -3.35219,1.15078 -2.03697,10.88478 0.96645,7.15271 0.62786,9.70659 -1.6586,12.51066 -2.34479,2.8756 -2.50852,4.27896 -0.8907,7.63396 1.44959,3.00616 2.48532,3.55233 3.85455,2.03267 1.02979,-1.14292 3.62234,-2.07802 5.76122,-2.07802 z m 97.30636,-20.45915 c 10.25939,-4.3393 1.23738,-17.072 -12.09671,-17.072 -5.05236,0 -6.92494,-0.76716 -6.92494,-2.83702 0,-2.18743 -1.45177,-2.63075 -6.34056,-1.93619 -3.48731,0.49544 -9.89151,1.39111 -14.23155,1.99035 -5.82435,0.8042 -8.592,2.27692 -10.56759,5.62329 -3.51474,5.95342 -3.37675,7.04189 0.71023,5.60226 2.05851,-0.72512 4.42683,-0.0388 6.03862,1.75009 3.15971,3.50682 7.71948,3.80626 10.52616,0.69125 1.57809,-1.75145 2.47987,-1.75145 4.05796,0 1.11594,1.23853 4.34962,2.2648 7.18596,2.2806 6.49317,0.0362 10.24065,2.54444 8.49232,5.68406 -1.46974,2.63935 4.67079,1.80973 13.1501,-1.77669 z M 222.81448,319.3134 c 0,-1.45094 -1.55831,-3.56366 -3.4629,-4.69494 -2.32624,-1.38173 -3.13614,-3.19944 -2.46744,-5.53778 1.34229,-4.69378 -1.30118,-6.15413 -5.23357,-2.89121 -3.11964,2.58852 -3.10321,2.74489 0.59631,5.67596 2.09238,1.65776 3.80434,4.06401 3.80434,5.34722 0,3.12075 3.56504,6.93255 5.34311,5.71291 0.78109,-0.53575 1.42015,-2.16123 1.42015,-3.61216 z M 189.24784,214.74004 c 2.20978,-1.29014 7.25015,-6.2495 11.20079,-11.02082 8.60469,-10.39217 17.74133,-13.96339 30.67363,-11.98934 8.32274,1.27041 9.91471,0.41652 7.30636,-3.91901 -8.29587,-13.78905 -41.20495,-2.23669 -48.44993,17.00782 -1.27946,3.39856 -3.16479,6.75435 -4.18962,7.45731 -1.74268,1.19535 -2.65288,4.80973 -1.2112,4.80973 0.35868,0 2.46015,-1.05556 4.66997,-2.34569 z m -322.0214,-23.70235 c 5.58368,-4.00536 13.12009,-8.4322 16.74758,-9.83739 3.62748,-1.4052 12.45016,-8.21571 19.605944,-15.13449 16.443131,-15.89847 20.814892,-18.43177 29.561336,-17.12974 5.718203,0.85123 7.27199,0.34549 9.426306,-3.0681 5.925486,-9.38916 -2.781503,-17.30101 -14.378523,-13.06543 -4.893058,1.78708 -7.336157,1.81314 -10.696067,0.11409 -5.62563,-2.84479 -14.00629,1.17298 -29.952416,14.35946 -6.3156,5.22262 -13.92426,10.08039 -16.90814,10.79502 -18.83592,4.51123 -31.51424,23.13398 -24.19261,35.53574 3.88465,6.58001 8.89552,5.96069 20.78659,-2.56916 z m 294.33162,-3.6263 c 0.41185,-1.37129 -0.36115,-1.79069 -2.00784,-1.08936 -1.47264,0.62718 -2.67751,1.96479 -2.67751,2.97249 0,2.46652 3.84285,0.92202 4.68535,-1.88313 z m 13.06821,-17.2396 c 0.57473,-1.0321 0.2841,-1.87655 -0.64584,-1.87655 -0.92995,0 -2.16106,0.84445 -2.7358,1.87655 -0.57474,1.03211 -0.28411,1.87656 0.64584,1.87656 0.92995,0 2.16105,-0.84445 2.7358,-1.87656 z m 14.37191,-11.25934 c 0,-1.03211 -0.71595,-1.87656 -1.59102,-1.87656 -0.87506,0 -2.06127,0.84445 -2.63601,1.87656 -0.57475,1.03211 0.14119,1.87656 1.59102,1.87656 1.44981,0 2.63601,-0.84445 2.63601,-1.87656 z m 229.95077,352.79281 c 0,-2.06421 0.76086,-3.75311 1.6908,-3.75311 0.92995,0 1.69082,1.6889 1.69082,3.75311 0,2.06421 -0.76087,3.75312 -1.69082,3.75312 -0.92994,0 -1.6908,-1.68891 -1.6908,-3.75312 z m 35.50709,1.87656 c 0,-1.03211 0.33553,-1.87656 0.74562,-1.87656 0.41009,0 1.21586,0.84445 1.7906,1.87656 0.57475,1.0321 0.23922,1.87656 -0.7456,1.87656 -0.98484,0 -1.79062,-0.84446 -1.79062,-1.87656 z m 52.41525,-0.21918 c 0,-1.25559 -0.44165,-1.79272 -0.98147,-1.19361 -1.32934,1.47539 -11.41902,-11.21755 -14.86835,-18.70458 -1.53127,-3.32374 -4.26717,-6.92407 -6.07977,-8.00071 -4.86912,-2.89213 -12.38265,-22.54897 -8.61902,-22.54897 0.99264,0 1.80477,0.90134 1.80477,2.00301 0,1.1575 1.44578,1.49372 3.42506,0.79653 2.74171,-0.96579 3.78673,-0.055 5.23784,4.56493 1.9504,6.20957 3.13683,6.93728 6.04606,3.70845 1.0834,-1.2024 3.49509,-1.48657 5.78141,-0.68119 5.00188,1.76192 35.88008,35.85058 34.58341,38.17911 -0.53529,0.96127 0.54874,1.30471 2.41157,0.76406 1.86118,-0.54019 3.38396,-0.14656 3.38396,0.87455 0,1.07093 -6.79778,1.99733 -16.06273,2.189 -11.65139,0.24105 -16.06274,-0.29465 -16.06274,-1.95058 z m -91.14974,-11.76957 c -1.06682,-2.98143 -1.59959,-5.79822 -1.18394,-6.25952 1.24381,-1.38047 4.69209,7.01418 3.87712,9.43866 -0.41444,1.23291 -1.62636,-0.1977 -2.69318,-3.17914 z m -3.53586,-27.31569 c -3.25482,-1.91619 -10.85743,-8.83846 -16.8947,-15.38282 -10.47983,-11.3601 -10.78607,-11.94207 -6.76326,-12.85344 2.31748,-0.52503 6.76836,-2.50087 9.89084,-4.39079 3.28178,-1.98634 7.30072,-2.98401 9.52483,-2.36446 5.91066,1.64645 14.38717,11.38111 14.38717,16.52265 0,2.85057 1.87623,6.06342 5.07244,8.68608 12.18871,10.00145 -0.7343,18.30927 -15.21732,9.78278 z m -570.91181,-23.64117 c -0.55068,-1.59268 -0.62343,-3.31507 -0.16168,-3.82754 0.46176,-0.51249 1.24538,0.79061 1.7414,2.89577 1.05364,4.4717 -0.11704,5.1622 -1.57972,0.93177 z M 123.39459,293.64928 c -3.19156,-3.54217 -2.37156,-5.58989 1.35265,-3.37781 1.85989,1.10473 3.38162,2.82334 3.38162,3.81914 0,2.48529 -2.28964,2.27185 -4.73427,-0.44133 z M 371.81066,153.12727 c -2.36436,-7.52749 -0.81411,-10.42124 3.34497,-6.24385 3.81034,3.82712 4.08541,7.0135 0.86182,9.98274 -1.89118,1.74195 -2.71535,1.00945 -4.20679,-3.73889 z m -138.07542,1.90722 c -0.61297,-1.10077 -0.7085,-2.45201 -0.21228,-3.00276 1.21116,-1.34419 4.50884,1.02428 4.50884,3.23836 0,2.39818 -2.91904,2.23811 -4.29656,-0.2356 z M 74.136952,143.11435 c -3.065666,-4.09968 -1.497081,-9.44507 2.979097,-10.1521 3.478258,-0.54942 3.845229,0.0488 3.364351,5.48516 -0.60859,6.88021 -3.240482,8.81652 -6.343448,4.66694 z m 17.664189,-4.79954 c -0.561108,-1.00762 0.04111,-4.0801 1.338199,-6.82772 3.294903,-6.97937 24.84464,-15.86307 24.84464,-10.24199 0,3.60993 -9.08911,9.51899 -14.64179,9.51899 -4.558012,0 -6.060765,0.96064 -7.338797,4.69139 -1.742975,5.08799 -2.626462,5.68914 -4.202252,2.85933 z m 123.287829,-5.88396 c -1.35466,-2.43268 2.17157,-5.34977 6.51687,-5.39115 2.49609,-0.0238 2.70524,0.62075 1.20863,3.72439 -1.98121,4.10861 -5.89546,4.9531 -7.7255,1.66676 z m -5.80101,-12.69634 c 0,-0.90572 1.07356,-2.63563 2.38568,-3.84422 1.80765,-1.66504 2.67949,-1.66988 3.59827,-0.0199 0.6669,1.19761 0.164,2.9146 -1.11758,3.8155 -2.99998,2.10882 -4.86637,2.12749 -4.86637,0.0486 z m 17.30104,-9.61255 c 0.28792,-4.1791 1.32372,-6.56796 2.84784,-6.56796 3.83763,0 3.91033,3.76368 0.16671,8.62958 l -3.46709,4.50633 0.45254,-6.56795 z M 65.005134,106.99435 c -1.960584,-2.17594 -1.223101,-4.37862 1.466038,-4.37862 1.42627,0 4.116271,-2.864908 5.977739,-6.36647 1.861485,-3.501563 4.792782,-6.775199 6.514014,-7.274757 1.721234,-0.499558 4.1744,-3.334699 5.451478,-6.300298 2.53649,-5.890176 6.736861,-7.012376 33.255557,-8.884899 11.47522,-0.810279 12.47103,-0.580476 13.80812,3.186376 1.03723,2.922081 0.71107,4.585462 -1.16398,5.936189 -1.43272,1.032107 -5.25053,3.809093 -8.48397,6.17106 -6.30961,4.609069 -9.45243,3.645813 -11.50328,-3.525695 -1.14834,-4.01559 -5.86938,-4.934765 -5.86938,-1.142749 0,1.342508 -3.23369,4.335186 -7.185962,6.650426 -3.95228,2.31524 -11.337065,7.127991 -16.410646,10.695007 -8.958152,6.29808 -13.535744,7.80928 -15.855728,5.23443 z M 224.50529,94.171216 c 0,-1.54816 0.76086,-2.814836 1.69081,-2.814836 0.92995,0 1.69082,1.266676 1.69082,2.814836 0,1.54816 -0.76087,2.814836 -1.69082,2.814836 -0.92995,0 -1.69081,-1.266676 -1.69081,-2.814836 z m 46.39785,-11.19967 c -1.80514,-1.515339 -2.39323,-2.782015 -1.30686,-2.814836 3.2122,-0.09702 7.32425,2.089284 7.32425,3.894213 0,2.459341 -2.29152,2.0483 -6.01739,-1.079377 z m -46.39785,-4.751069 c 0,-2.064213 0.76086,-3.753114 1.69081,-3.753114 0.92995,0 1.69082,1.688901 1.69082,3.753114 0,2.064214 -0.76087,3.753116 -1.69082,3.753116 -0.92995,0 -1.69081,-1.688902 -1.69081,-3.753116 z m -33.75591,-8.211534 c 3.16584,-3.301408 11.77532,-5.604226 11.77532,-3.149595 0,2.557373 -5.75734,5.731457 -10.39604,5.731457 -3.34462,0 -3.52726,-0.34189 -1.37928,-2.581862 z m 58.31233,-5.913051 c -7.16504,-6.705803 -7.18737,-9.614561 -0.0585,-7.628788 2.56673,0.714987 5.06052,3.244699 6.05212,6.139308 2.69007,7.85268 1.20084,8.222775 -5.99357,1.48948 z m -65.13597,-4.640989 c 3.3311,-2.389215 7.2483,-2.389215 5.91785,0 -0.57473,1.032106 -2.71203,1.863628 -4.74953,1.847827 -3.01173,-0.02336 -3.23023,-0.368931 -1.16832,-1.847827 z m -18.59895,-3.52335 c 0,-2.399648 4.97163,-6.59685 6.19966,-5.233925 1.22801,1.362925 -2.55374,6.880717 -4.71587,6.880717 -0.81609,0 -1.48379,-0.741053 -1.48379,-1.646792 z m 67.02112,-19.933619 c 0.53529,-1.54816 2.00926,-2.814836 3.2755,-2.814836 1.35181,0 1.90047,1.162076 1.32903,2.814836 -0.5353,1.54816 -2.00926,2.814836 -3.2755,2.814836 -1.35181,0 -1.90047,-1.162077 -1.32903,-2.814836 z m 34.42774,-1.876558 c -1.17415,-1.57019 -1.35725,-2.814836 -0.41406,-2.814836 0.92994,0 2.638,1.266676 3.79569,2.814836 1.17415,1.570191 1.35725,2.814837 0.41406,2.814837 -0.92995,0 -2.63801,-1.266677 -3.79569,-2.814837 z m -19.35349,-1.943269 c -2.16489,-1.817164 -2.71981,-3.395856 -1.62194,-4.614323 2.02788,-2.25065 9.69314,3.107316 8.22282,5.747708 -1.31803,2.366883 -2.71698,2.126683 -6.60088,-1.133385 z m -27.98932,-7.148671 c 0,-1.388202 1.41265,-3.942853 3.1392,-5.677018 2.66738,-2.679142 3.4342,-2.75852 5.102,-0.528176 1.55599,2.080802 1.09289,3.257479 -2.23429,5.677019 -5.09949,3.708377 -6.00691,3.788169 -6.00691,0.528175 z"
       style="fill:#be5437;fill-opacity:1" />
    <path
       inkscape:connector-curvature="0"
       id="path4540"
       d="m -144.66081,502.52311 c -3.32463,-15.28752 -3.51643,-19.53918 -0.83676,-18.54783 2.57944,0.95426 5.74491,11.36345 6.86346,22.56945 1.38673,13.89287 -2.72791,11.14716 -6.0267,-4.02162 z m 17.47671,10.3212 c 0,-2.18337 5.05077,-6.0783 5.79289,-4.4672 0.13004,0.28233 1.2556,1.9911 2.50125,3.79729 2.04352,2.96312 1.74897,3.28398 -3.01468,3.28398 -3.38544,0 -5.27946,-0.93781 -5.27946,-2.61407 z m 62.915273,1.20665 c 5.700343,-12.59557 8.468045,-22.30591 9.46123,-33.19424 l 1.208644,-13.25056 8.436708,0.30909 8.436708,0.3091 -9.601408,-5.43194 c -5.28077,-2.98755 -10.081088,-6.29333 -10.667373,-7.34617 -1.906444,-3.42356 3.517476,-2.02594 11.985582,3.08841 8.176001,4.93792 9.960841,5.3864 23.733759,5.96352 5.314906,0.22269 9.581913,2.32064 17.7535506,8.72886 16.5578414,12.98469 23.1608604,16.32168 37.8100944,19.10827 16.669197,3.17082 30.771469,7.55568 32.126589,9.9892 0.636473,1.14295 -2.027253,1.43868 -7.099899,0.78821 l -8.118546,-1.04104 9.299478,4.4375 c 18.093321,8.6337 17.975758,8.82997 -5.326065,8.89214 l -21.388803,0.0571 -5.664227,-6.20576 c -3.992013,-4.37368 -8.964716,-7.18451 -16.843876,-9.52107 L 0.09367088,496.41626 -11.552676,504.29544 c -6.405498,4.33353 -11.899969,8.61802 -12.209946,9.52107 -0.309994,0.90304 -9.694014,1.6419 -20.853389,1.6419 -11.159375,0 -20.003138,-0.63334 -19.652816,-1.40742 z M 46.124368,500.44592 c -2.789844,-0.78788 -6.974609,-1.44826 -9.299479,-1.46749 l -4.227036,-0.0349 4.227036,1.5024 c 2.32487,0.82634 6.509635,1.4867 9.299479,1.46748 l 5.072444,-0.0349 -5.072444,-1.43251 z M -1.2184349,479.80378 c -2.7898442,-2.05061 -5.8333101,-3.71517 -6.763258,-3.69901 -2.7042881,0.0469 6.495348,7.36558 9.2994792,7.39803 1.3949221,0.0169 0.2536221,-1.64841 -2.5362212,-3.69902 z m -13.5796581,-6.55905 c -2.819078,-1.37488 -8.145143,-2.97895 -11.8357,-3.56458 -6.020483,-0.95536 -5.754367,-0.70163 2.589363,2.46889 10.70994,4.06964 16.8315504,4.79504 9.246337,1.09569 z m 94.411238,38.05887 c -1.50305,-1.8433 -2.187203,-3.35145 -1.520346,-3.35145 1.879696,0 17.910594,5.98299 17.910594,6.68452 0,2.3182 -14.124202,-0.55404 -16.390248,-3.33307 z m 37.336745,-1.94404 C 97.331785,485.80272 85.966415,465.5663 85.895638,454.06642 c -0.02398,-3.90521 -1.741104,-8.20789 -4.867684,-12.19762 -5.225431,-6.66801 -8.415152,-15.99632 -8.524464,-24.92969 -0.138646,-11.33158 -2.266587,-24.4669 -4.408071,-27.21009 -2.634762,-3.37504 -2.188337,-49.91663 0.507498,-52.90862 1.099672,-1.22047 4.775688,1.57001 10.761898,8.16933 5.000449,5.51264 12.691927,12.31274 17.092187,15.1113 6.685238,4.25185 8.000468,5.99497 8.000468,10.60338 0,3.03327 2.92399,12.57263 6.49776,21.19862 8.44452,20.3825 15.98347,27.56509 65.67138,62.56723 12.50731,8.81064 14.31741,9.28732 12.99082,3.42113 -1.21247,-5.36157 -0.98659,-5.30711 8.66094,2.08818 2.77924,2.13041 5.82271,4.90614 6.76326,6.16828 0.94056,1.26215 5.82202,5.67891 10.84769,9.81503 6.61068,5.44057 10.196,7.22541 12.96489,6.4541 2.80531,-0.78143 4.35449,0.0272 5.80165,3.02826 2.49348,5.17095 13.56369,10.6407 30.76315,15.19997 15.33553,4.06514 21.15318,4.38592 27.87689,1.53708 4.59085,-1.94516 4.6433,-2.11169 1.47772,-4.69139 -1.80514,-1.47107 -5.60948,-2.6838 -8.45407,-2.69496 -7.6146,-0.0298 -19.63438,-4.51716 -27.03945,-10.09442 -3.57658,-2.69376 -7.21126,-4.89774 -8.07709,-4.89774 -0.86583,0 -5.1836,-3.3778 -9.59505,-7.50623 -4.41146,-4.12842 -8.87804,-7.50623 -9.92574,-7.50623 -2.42835,0 -3.11679,-1.36294 -4.62373,-9.15371 l -1.2261,-6.33888 8.21324,6.78022 c 4.51726,3.72914 9.07354,7.5764 10.12507,8.54949 1.05151,0.97309 5.61671,3.87032 10.14488,6.4383 26.5024,15.0298 36.53801,17.62577 52.1942,13.50134 5.57969,-1.46991 12.5427,-3.19201 15.47338,-3.8269 3.05262,-0.66132 8.28833,-4.47219 12.2584,-8.92243 7.38153,-8.27432 9.37607,-6.7944 3.24569,2.40826 -2.02632,3.04184 -3.10501,6.17344 -2.3971,6.95914 1.585,1.75912 13.45104,-12.99998 17.88298,-22.24306 1.78973,-3.73259 5.13238,-9.26402 7.42812,-12.29207 2.29575,-3.02805 5.40364,-10.95199 6.90643,-17.60874 2.9393,-13.01997 9.00968,-28.05391 11.32755,-28.05391 1.9673,0 2.1955,-0.90906 -5.42213,21.59908 -8.13167,24.02709 -10.37177,29.10933 -17.88028,40.56635 -3.13001,4.77597 -8.05625,14.29348 -10.94724,21.15004 l -5.25635,12.46648 -8.38,-1.23376 c -4.96777,-0.73139 -9.88769,-0.40451 -12.08269,0.80279 -2.03647,1.1201 -5.22441,2.30274 -7.08431,2.62812 -1.85989,0.32536 -3.38163,1.76049 -3.38163,3.18917 0,1.65437 4.91169,4.08605 13.52651,6.69672 7.43959,2.2545 14.66782,4.59627 16.06274,5.2039 1.39492,0.60765 -46.58061,1.17148 -106.61232,1.25296 l -109.14857,0.14825 -5.07907,-6.09881 z m 441.91213,-5.62967 c -0.71725,-11.60549 -0.65542,-11.80135 5.89567,-18.67747 4.55438,-4.78032 6.44868,-8.23437 6.06984,-11.06769 -0.54045,-4.04209 -1.32876,-4.76501 -9.85018,-9.03313 -2.32486,-1.16444 -6.85175,-4.23969 -10.05974,-6.83386 -7.15156,-5.78318 -10.90369,-5.27003 -11.61562,1.58856 l -0.54018,5.20396 -12.98634,-7.9326 c -7.14249,-4.36293 -17.93196,-11.45596 -23.97662,-15.76228 -6.04466,-4.30634 -12.89246,-8.47044 -15.21733,-9.25361 -4.39683,-1.48109 -24.44456,-12.84299 -27.7157,-15.70764 -1.03045,-0.9024 -4.91702,-2.71469 -8.63681,-4.02728 -3.71979,-1.3126 -7.37172,-3.53377 -8.11539,-4.93595 -1.89159,-3.56657 -17.41601,-3.45883 -18.65667,0.12948 -0.7122,2.05984 -4.75887,2.69988 -17.51174,2.76972 -18.32895,0.1004 -22.8154,-1.44524 -19.74565,-6.80259 1.07656,-1.87883 3.66288,-3.19169 5.91785,-3.00398 2.20304,0.18334 8.72793,0.79304 14.49976,1.35478 9.50113,0.9247 10.98119,0.56659 15.64004,-3.7842 8.31282,-7.76321 6.1978,-21.36099 -3.32252,-21.36099 -2.73225,0 -8.39858,-1.84995 -12.59185,-4.11099 -6.80409,-3.66882 -7.36149,-4.43313 -5.18216,-7.10578 1.34308,-1.64713 3.66718,-6.24925 5.16466,-10.22695 3.34073,-8.87379 2.2901,-25.9345 -3.47524,-56.43342 -2.14613,-11.35317 -5.60961,-32.29142 -7.69661,-46.52943 l -3.79454,-25.88731 2.50685,-63.89072 c 2.67155,-34.60351 -0.13083,-37.09209 -1.50993,-53.40549 C 390.9572,92.458292 383.06352,65.378054 376.08281,44.129859 373.52762,36.352287 354.86236,28.222118 354.10139,22.443961 353.78456,20.038381 341.56773,0.70980143 343.56827,-0.71331993 346.34124,-2.6859264 404.82171,-3.6448255 413.21386,-1.4926879 457.67042,-0.85068055 548.22798,-2.2166302 602.19724,-0.26936601 602.463,64.677898 600.22638,277.60828 603.24771,329.06801 l 0,186.39036 -21.83041,0 -21.83041,0 z m -201.2751,4.49055 c -4.0008,-4.36287 -4.86141,-7.13355 -5.64968,-18.18918 l -0.92993,-13.04231 6.49509,-7.31261 6.49508,-7.31261 1.29311,9.18917 c 0.71121,5.05404 1.75537,16.57811 2.32034,25.60904 0.95251,15.2256 0.79696,16.41207 -2.13853,16.31261 -1.74116,-0.0589 -5.28962,-2.42335 -7.88548,-5.25411 z m -489.12353,-2.76933 c -0.59496,-1.72075 -0.53943,-4.60643 0.12339,-6.41261 1.07496,-2.92925 1.39902,-2.82129 3.00012,0.99951 1.29258,3.08455 1.25804,4.8794 -0.1234,6.41259 -1.43063,1.58781 -2.19341,1.33367 -3.00011,-0.99949 z m 202.177787,0.62448 c -1.394922,-1.00051 -1.775355,-1.81908 -0.845407,-1.81908 0.929947,0 2.832113,0.81857 4.227036,1.81908 1.394922,1.0005 1.775354,1.81908 0.845407,1.81908 -0.929948,0 -2.832114,-0.81858 -4.227036,-1.81908 z M -164.38203,477.74184 c 0,-2.37869 9.77594,-12.95052 11.97554,-12.95052 2.50787,0 7.04971,9.19628 6.01699,12.18314 -1.17484,3.3979 -17.99253,4.11518 -17.99253,0.76738 z m 470.80094,-34.38987 c -3.13679,-2.56208 -3.147,-2.74968 -0.21817,-4.00932 3.74715,-1.61161 7.7012,2.04434 5.20607,4.81358 -1.13565,1.26041 -2.78588,0.99433 -4.9879,-0.80426 z m 45.35785,-2.48676 c 0.47013,-1.80618 1.85798,-7.29511 3.0841,-12.19762 1.22612,-4.90251 2.71185,-8.91365 3.30165,-8.91365 0.58979,0 1.13111,4.01114 1.20293,8.91365 0.12563,8.57671 -2.91498,15.4816 -6.81752,15.4816 -0.89427,0 -1.24131,-1.47779 -0.77116,-3.28398 z m -157.70613,-7.14784 c 0,-1.60907 0.76087,-2.40368 1.69081,-1.7658 0.92995,0.63788 1.69082,1.95439 1.69082,2.92559 0,0.97119 -0.76087,1.7658 -1.69082,1.7658 -0.92994,0 -1.69081,-1.31652 -1.69081,-2.92559 z m -367.64343,-1.3776 c 0.63496,-1.8507 1.5804,-2.89219 2.10098,-2.31441 0.52057,0.57777 9.2e-4,2.09196 -1.15447,3.36491 -1.66987,1.83951 -1.86408,1.62397 -0.94651,-1.0505 z m 89.504459,-2.14943 c -3.719792,-1.32177 -12.089323,-3.84931 -18.598959,-5.61676 -16.389,-4.44982 -18.75529,-6.49518 -20.08427,-17.3603 -1.58326,-12.94402 -3.08178,-15.01662 -8.77549,-12.13742 -2.52181,1.27525 -8.55505,6.08282 -13.40719,10.68352 -4.85213,4.60068 -10.07156,8.36489 -11.5987,8.36489 -1.52715,0 -4.27061,1.65811 -6.09659,3.68468 -1.82598,2.02655 -3.68662,3.02621 -4.13475,2.22145 -0.44814,-0.80476 -0.004,-7.53098 0.98841,-14.94716 1.98405,-14.8361 0.55889,-19.49509 -5.43157,-17.75646 -3.28304,0.95285 -3.31946,-1.18018 -3.31946,-194.41743 l 0,-195.380845 190.639322,0.067556 190.639328,0.067556 -5.07244,4.7862725 C 191.02911,12.49923 178.1428,20.480717 159.52062,28.562018 c -10.61359,4.605879 -20.32763,8.374326 -21.58674,8.374326 -1.25913,0 -3.79014,1.140684 -5.62446,2.534854 -1.83433,1.394188 -5.61774,3.148882 -8.40759,3.899336 -2.78985,0.750435 -6.21374,2.50087 -7.60867,3.889841 -1.39492,1.388972 -6.84064,4.310134 -12.10161,6.491482 -5.260965,2.181329 -9.929743,5.019885 -10.375093,6.307898 -0.445322,1.288031 -4.130001,4.788599 -8.188152,7.779062 -4.058159,2.990482 -9.41231,8.022133 -11.898112,11.181487 -2.485801,3.159335 -4.960258,5.255243 -5.498781,4.657559 C 67.692887,83.08018 65.273128,72.529948 62.854165,60.232886 58.273985,36.948879 55.683269,31.30654 49.572428,31.30654 c -2.000064,0 -6.257129,-2.173617 -9.460123,-4.830259 -5.086493,-4.218839 -6.893738,-4.679703 -14.277709,-3.640916 -11.380721,1.601042 -14.019338,3.854506 -24.404387,20.842005 -11.830189,19.351417 -14.57083,30.730506 -11.903351,49.422445 1.0942276,7.667575 3.004848,16.534315 4.2458381,19.703855 3.3943265,8.66934 8.1373822,34.18279 6.97805821,37.53584 -0.58867352,1.70258 -3.01117101,2.94327 -5.74684101,2.94327 -2.6010474,0 -7.3803373,1.68107 -10.6206473,3.73572 -15.609582,9.89788 -22.067597,13.04419 -27.626944,13.45974 -3.323904,0.24843 -6.602562,-0.16889 -7.285905,-0.92723 -0.68336,-0.75843 -0.02368,-9.1624 1.46597,-18.67552 3.018391,-19.27605 2.007504,-24.80152 -5.274412,-28.82987 -3.309568,-1.83086 -5.36477,-1.69247 -10.816026,0.72831 -5.423825,2.40858 -8.067547,2.59245 -13.621077,0.94729 -8.827803,-2.61514 -12.899093,-0.71056 -30.655432,14.3408 -7.68776,6.51663 -18.41129,13.54447 -24.84299,16.28129 -13.27714,5.64968 -22.18136,15.3218 -25.07137,27.23347 -3.41801,14.08799 2.51515,26.12616 12.8766,26.12616 l 5.48854,0 1.05587,12.66677 c 0.58073,6.96672 2.28819,20.68904 3.79435,30.49406 5.64481,36.74718 5.07733,40.36212 -7.38738,47.05905 -14.098,7.57444 -17.49184,18.43601 -10.21589,32.69464 3.63019,7.11405 9.37195,10.49968 8.29082,4.88866 -0.60413,-3.13535 8.02095,-13.61782 10.05621,-12.22178 2.74618,1.88369 8.28277,2.42893 7.33229,0.72208 -1.55461,-2.79173 7.39894,-4.38485 10.19084,-1.81324 2.24719,2.06988 3.17591,1.35309 2.78053,-2.14601 -0.0738,-0.65314 1.93463,-1.64672 4.46315,-2.20798 7.57159,-1.68068 29.218294,-26.68322 48.686012,-56.23369 6.131943,-9.30782 7.333115,-13.47404 7.55177,-26.19331 0.419018,-24.37372 6.771086,-42.73208 15.809588,-45.69201 1.945282,-0.63706 6.360252,-3.27679 9.811035,-5.86607 5.219781,-3.91665 7.492895,-4.50681 13.526516,-3.51182 3.9888,0.65777 9.8450539,1.1619 13.0138938,1.12028 3.16882315,-0.0417 7.522873,1.2052 9.6756512,2.77072 4.412468,3.20875 13.992605,19.17881 17.456171,29.09933 1.261195,3.61237 3.602534,9.1013 5.202975,12.19762 1.600439,3.09632 4.620961,11.44008 6.712279,18.54167 3.852131,13.0809 3.964284,19.96903 0.75226,46.19957 -1.032462,8.43137 -1.022013,8.45246 6.714494,13.55884 4.261715,2.81288 7.748563,6.32688 7.748563,7.80888 0,4.14235 -28.723014,35.88927 -36.35251,40.17966 -3.719791,2.09178 -9.4262901,6.91345 -12.6811073,10.71479 -10.3500499,12.08798 -18.5222967,17.13871 -32.9708817,20.37716 -12.150665,2.72341 -14.129628,3.79247 -19.45598,10.51023 -3.261209,4.11313 -7.270453,11.66884 -8.909443,16.79048 -1.976,6.17473 -5.350109,11.56364 -10.014914,15.99519 -3.869213,3.67573 -7.468628,6.61646 -7.998699,6.53498 -0.53007,-0.0815 -4.007232,-1.22959 -7.727024,-2.55135 z m -0.88352,-82.60482 c 1.982496,-4.11128 1.643867,-5.96057 -3.116938,-17.02212 -5.792947,-13.4597 -9.304812,-15.18008 -13.262991,-6.49726 -3.96917,8.7069 -2.73835,15.9404 3.795767,22.30767 7.214702,7.03046 9.664543,7.26637 12.584162,1.21171 z M 2.698201,285.25566 c -0.6142558,-5.75878 -4.2610891,-7.99937 -5.7957227,-3.56084 -1.0744621,3.10758 1.9446727,8.57666 4.734652,8.57666 0.8778372,0 1.3553232,-2.25713 1.0610707,-5.01582 z M 313.38254,397.43188 c -0.51451,-0.92394 0.17708,-2.15375 1.53689,-2.73287 2.64218,-1.1253 4.89869,1.2146 3.09829,3.21278 -1.52851,1.69643 -3.53919,1.48826 -4.63518,-0.47991 z m 16.54032,-5.99046 c -2.00197,-2.23196 -5.64914,-4.05809 -8.10481,-4.05809 -3.49047,0 -5.20176,-1.60305 -7.84126,-7.34528 -1.857,-4.03989 -5.6531,-8.88194 -8.43577,-10.76007 -4.83605,-3.26407 -23.63941,-6.38521 -40.03349,-6.64512 -5.41707,-0.0859 -7.18596,-0.85298 -7.18596,-3.11634 0,-4.16048 9.13061,-17.75388 14.59361,-21.72659 8.88521,-6.46137 33.56549,-6.05389 31.57167,0.52125 -0.34426,1.13524 0.47432,3.07748 1.81903,4.31608 1.91509,1.764 4.68859,1.60677 12.79841,-0.72555 5.69441,-1.63765 11.07152,-2.48503 11.94913,-1.88305 0.9097,0.62397 1.1403,5.93011 0.5364,12.34255 -0.65687,6.97494 -0.27714,13.89253 0.99954,18.20912 1.13234,3.82859 1.81461,11.00389 1.51614,15.94513 l -0.54269,8.98405 z M 297.2103,346.5682 c 0,-1.03211 -0.80577,-1.87656 -1.7906,-1.87656 -0.98483,0 -1.32036,0.84445 -0.74562,1.87656 0.57475,1.03211 1.38052,1.87656 1.79062,1.87656 0.41008,0 0.7456,-0.84445 0.7456,-1.87656 z m 105.67591,47.93784 c -0.92995,-0.38259 -3.97341,-1.28266 -6.76326,-2.00018 -5.03749,-1.29558 -5.0448,-1.31628 -1.06075,-3.00364 2.45685,-1.04055 6.34884,-0.98286 10.04187,0.14881 3.3166,1.01635 7.78847,1.35812 9.93752,0.7595 2.32232,-0.64689 3.90736,-0.24464 3.90736,0.99157 0,1.14401 -1.04619,2.08 -2.32487,2.08 -1.27868,0 -4.51237,0.38689 -7.18597,0.85976 -2.6736,0.47288 -5.62195,0.54674 -6.5519,0.1642 z m -141.183,-6.62854 c -1.39493,-0.89694 -3.77167,-2.04654 -5.28166,-2.55465 -3.67413,-1.23637 -5.58612,-13.10703 -2.98123,-18.509 1.91181,-3.96469 2.1899,-3.64538 4.92004,5.64932 1.59153,5.41836 4.25397,11.51976 5.91653,13.55869 3.11885,3.82488 1.87904,4.71878 -2.57368,1.85564 z M 150.21672,355.32581 c -2.12571,-6.20521 -7.62792,-7.99149 -12.87115,-4.17858 -4.0771,2.96488 -4.14426,2.92358 -4.14426,-2.54846 0,-3.0592 -0.74049,-6.07012 -1.64555,-6.69093 -0.90506,-0.6208 1.75797,-4.74814 5.91785,-9.17186 5.15796,-5.48512 7.5634,-9.59409 7.5634,-12.91983 0,-4.52998 -10.00829,-28.24392 -13.61748,-32.26568 -0.87992,-0.9805 -1.59985,-3.51952 -1.59985,-5.64225 0,-2.12274 -4.18477,-12.10372 -9.29948,-22.17999 -5.11471,-10.07625 -9.29948,-19.97119 -9.29948,-21.98877 0,-2.24616 2.1304,-4.88059 5.49515,-6.79526 3.02233,-1.71981 8.88608,-5.70216 13.03055,-8.84967 5.29667,-4.02257 9.94365,-5.88583 15.64148,-6.27163 l 8.10609,-0.54885 -4.90615,10.20389 c -4.54262,9.44787 -4.88725,11.58609 -4.6512,28.85825 0.19835,14.51196 0.88295,19.42708 3.08299,22.13427 7.05918,8.6865 8.87302,19.06757 8.94173,51.17619 0.0491,22.95024 -0.47043,31.00555 -2.03718,31.58488 -1.15669,0.4277 -2.82508,-1.32988 -3.70746,-3.90572 z m 93.91384,-9.84937 c -0.56448,-1.63257 -1.02631,-6.70487 -1.02631,-11.27175 0,-6.44427 0.91586,-9.18727 4.09046,-12.25077 2.24975,-2.17103 4.59353,-6.17185 5.20837,-8.89073 1.4914,-6.59498 3.96912,-9.65581 7.81634,-9.65581 2.06806,0 3.1746,1.33425 3.1746,3.82787 0,4.8477 -6.28686,18.69082 -8.48843,18.69082 -0.91106,0 -1.65646,2.4036 -1.65646,5.34136 0,5.77565 -4.45132,17.17733 -6.70619,17.17733 -0.76235,0 -1.84792,-1.33574 -2.41238,-2.96832 z M 74.326713,327.27077 c -2.352989,-3.14663 -9.024148,-20.44038 -8.226506,-21.32567 1.216998,-1.35069 5.879925,6.07217 9.309997,14.82043 3.326947,8.48533 2.793259,11.68959 -1.083491,6.50524 z M 271.84809,303.56086 c 0,-10.54659 16.14063,-17.24427 24.98599,-10.36815 5.13583,3.99245 4.71472,6.46155 -1.102,6.46155 -2.67293,0 -8.09465,1.26668 -12.04829,2.81484 -8.23951,3.22642 -11.8357,3.55814 -11.8357,1.09176 z m 61.97284,-2.13997 c -4.59204,-4.00891 -6.36052,-11.83032 -2.28216,-10.09338 2.49127,1.061 8.67377,11.89311 7.51936,13.17435 -0.41362,0.45904 -2.77035,-0.92738 -5.2372,-3.08097 z m -46.33281,-26.16332 c -8.33375,-3.84266 -3.23272,-7.50478 10.45357,-7.50478 10.29039,0 20.00081,3.21328 19.07499,6.31212 -0.80031,2.67878 -24.25132,3.62597 -29.52856,1.19266 z M 267.58149,269.491 c -1.85496,-6.48652 2.22313,-14.12762 9.47772,-17.75837 8.94519,-4.47683 10.02037,-2.40147 2.71655,5.24363 -3.30318,3.45752 -6.52067,8.56335 -7.15001,11.3463 -1.36561,6.03873 -3.50947,6.53534 -5.04426,1.16844 z m -27.85887,-21.17423 c 0,-1.30927 2.28259,-4.80761 5.07244,-7.77407 2.78984,-2.96646 5.07245,-6.35629 5.07245,-7.53295 0,-2.3657 -17.86356,-6.54123 -27.98443,-6.54123 -4.31614,0 -7.76518,1.36156 -10.39502,4.10358 -5.6271,5.86711 -8.27927,2.40845 -6.26172,-8.16584 1.62694,-8.5271 1.42545,-8.35076 20.06378,-17.55927 8.60485,-4.25134 11.44327,-4.79385 19.34734,-3.69781 5.3862,0.74689 11.42658,3.04079 14.43249,5.48092 3.46461,2.81249 7.85446,4.28863 13.31086,4.47593 4.47775,0.15369 8.80731,0.73623 9.62119,1.2945 3.00344,2.06012 -2.23035,12.33377 -9.88727,19.40822 -12.13263,11.20967 -32.39211,21.53455 -32.39211,16.50802 z m -17.65327,-31.05096 c -0.62989,-1.13115 -2.6221,-2.05663 -4.42711,-2.05663 -3.70184,0 -4.66186,6.62561 -1.16832,8.06313 2.80744,1.15519 7.04838,-3.3973 5.59543,-6.0065 z m 24.41652,2.63476 c 1.68474,-2.25298 1.65946,-3.41051 -0.12664,-5.79913 -2.03408,-2.72016 -2.41624,-2.70402 -4.31793,0.1824 -2.08143,3.15921 -1.43305,8.43156 1.03687,8.43156 0.7166,0 2.25009,-1.26667 3.40778,-2.81483 z m -11.8357,-3.17198 c 0,-2.46653 -3.84285,-0.92203 -4.68534,1.88312 -0.41185,1.3713 0.36114,1.79069 2.00784,1.08936 1.47263,-0.62718 2.6775,-1.96479 2.6775,-2.97248 z m -341.12681,24.12915 c -3.02508,-1.21785 -7.7805,-4.60299 -10.56759,-7.52254 -4.3624,-4.56972 -5.06743,-6.6615 -5.06743,-15.03464 0,-12.67607 6.18302,-23.73352 13.27113,-23.73352 5.28963,0 12.65233,7.53703 14.665239,15.01246 0.694788,2.58027 1.865721,5.12514 2.602075,5.65531 0.736354,0.53015 0.915558,6.14454 0.398231,12.47642 -0.803814,9.83844 -1.534951,11.8131 -5.0279,13.57943 -2.24802,1.13678 -4.241725,2.00262 -4.430455,1.92411 -0.18873,-0.0784 -2.81822,-1.13918 -5.8433,-2.35703 z m 426.53642,-15.54122 c -15.67989,-19.13822 -26.45277,-28.82865 -32.33804,-29.08872 -4.16427,-0.18409 -3.88745,-0.44443 1.8799,-1.76842 10.77211,-2.4729 12.65478,-2.09007 14.37192,2.9225 1.90125,5.55003 5.16776,6.00532 9.03742,1.25966 4.27252,-5.23971 3.50275,-7.89016 -1.94063,-6.68188 -4.31979,0.95886 -4.88056,0.4394 -6.34055,-5.87385 -1.50615,-6.51276 -2.8619,-7.64772 -22.73682,-19.03387 -15.41736,-8.83243 -21.28827,-13.15286 -21.70103,-15.96991 -0.76031,-5.1888 2.4109,-8.69976 5.13105,-5.68079 1.11593,1.23852 3.96919,2.25239 6.34055,2.25305 2.55707,6.9e-4 8.32645,3.49925 14.1778,8.59741 5.42641,4.72793 10.21274,8.21163 10.63629,7.74155 1.89787,-2.10636 -6.62906,-14.19558 -10.83997,-15.36854 -5.407,-1.50616 -9.10415,-4.56771 -7.97173,-6.60128 0.4445,-0.79821 -0.32475,-2.49484 -1.70943,-3.77026 -1.38468,-1.27543 -2.51761,-3.06001 -2.51761,-3.96575 0,-2.65938 5.09583,-1.88607 6.06626,0.92058 1.27781,3.69577 16.60818,14.32166 20.66237,14.32166 7.79121,0 14.19717,21.78811 7.01853,23.87158 -6.88708,1.99887 1.33633,9.82188 10.38442,9.8788 5.89991,0.0371 15.04693,3.6946 15.04693,6.01658 0,1.02777 -1.52174,2.31032 -3.38163,2.85013 -1.8599,0.53981 -3.38163,2.07007 -3.38163,3.40059 0,3.01715 14.738,14.03216 18.7749,14.03216 3.84335,0 5.62497,6.26254 3.07225,10.79916 -3.13007,5.56262 -12.30861,11.71953 -17.47112,11.71953 -3.26376,0 -6.42369,-2.08652 -10.2704,-6.78167 z m 20.26629,-4.47767 c 0,-2.40825 -0.8865,-4.7066 -1.97004,-5.10745 -2.31277,-0.85561 -4.67093,6.04381 -3.05659,8.94283 1.83209,3.29004 5.02663,0.85258 5.02663,-3.83538 z m -233.53528,6.65782 c -0.51819,-1.49875 -0.44487,-3.61802 0.16299,-4.70952 0.60782,-1.0915 -0.46605,-4.20139 -2.38639,-6.91088 -1.92039,-2.7095 -3.49155,-5.98881 -3.49155,-7.28735 0,-1.29854 -1.141306,-2.84705 -2.536226,-3.44115 -1.39492,-0.59408 -2.536221,-2.41526 -2.536221,-4.04708 0,-1.6318 -1.113061,-5.35581 -2.47349,-8.27556 -2.225371,-4.77614 -2.182982,-5.59231 0.422702,-8.13646 1.592919,-1.55529 5.749449,-3.17716 9.236745,-3.60413 5.53538,-0.67774 6.34056,-0.27608 6.34056,3.16294 0,2.1666 -0.75073,4.77246 -1.66826,5.79079 -1.09712,1.21764 1.79152,1.95795 8.43773,2.1624 8.69372,0.26742 10.37136,-0.23947 12.00503,-3.62733 1.69015,-3.50502 1.50616,-3.82416 -1.67279,-2.90154 -4.44482,1.29004 -6.7327,-2.24222 -2.96718,-4.58101 1.52549,-0.94748 2.77362,-3.89031 2.77362,-6.53962 0,-5.04728 -0.79094,-5.15103 -11.413,-1.49717 -5.22914,1.79876 -4.99369,-2.47323 0.25845,-4.68946 2.23454,-0.9429 4.56204,-2.61089 5.17224,-3.70667 1.38283,-2.48327 7.67311,-2.64041 7.67311,-0.19169 0,3.14462 8.852,11.04802 11.23659,10.03245 3.20708,-1.36587 2.85838,-3.69594 -1.23259,-8.23632 -4.38349,-4.86504 -3.61065,-5.8369 3.4034,-4.27998 4.65066,1.03231 5.37655,1.89799 4.73156,5.64269 -0.93207,5.41149 0.63789,5.63598 4.68704,0.67022 1.68319,-2.06422 4.35603,-3.75312 5.93968,-3.75312 2.02103,0 3.32979,-2.3699 4.39047,-7.95026 1.08845,-5.72643 2.45626,-8.13947 4.88997,-8.62666 2.73271,-0.54704 2.97467,-0.21093 1.26533,1.75762 -3.05199,3.51481 -2.60374,5.43651 1.2681,5.43651 1.8599,0 3.38164,1.09779 3.38164,2.43953 0,3.48113 -3.54102,6.94326 -7.10143,6.94326 -1.67391,0 -3.04347,0.97921 -3.04347,2.17604 0,1.19681 -4.18476,7.04527 -9.29948,12.99659 -5.89519,6.85943 -9.29947,12.44304 -9.29947,15.25266 0,4.46209 -7.87284,13.9434 -23.55305,28.3651 -8.03436,7.38951 -11.50309,8.50041 -13.00236,4.16416 z m 9.50237,-29.28727 c 0,-1.09302 -0.76087,-1.4654 -1.69081,-0.82752 -0.92995,0.63788 -1.69081,1.53217 -1.69081,1.98731 0,0.45514 0.76086,0.82752 1.69081,0.82752 0.92994,0 1.69081,-0.89429 1.69081,-1.98731 z m -197.992391,10.66395 c -0.09192,-0.1276 -0.325828,-3.92457 -0.519815,-8.43758 -0.223,-5.18797 -1.405113,-9.05953 -3.214518,-10.52794 -3.518097,-2.85509 -3.607166,-6.6174 -0.360805,-15.24055 1.970412,-5.23391 3.315581,-6.51502 6.340555,-6.03854 2.111749,0.33262 4.590618,2.50479 5.508595,4.82703 1.790378,4.52918 5.236005,5.62669 6.321205,2.01345 1.063784,-3.54194 4.336791,-0.0991 5.501649,5.78702 0.78201,3.9516 -0.210334,8.10234 -3.677959,15.384 -3.856735,8.09874 -5.780616,10.20643 -10.240361,11.21874 -3.020289,0.68558 -5.566635,1.14205 -5.658546,1.01437 z M 352.16177,194.56704 c -0.57473,-1.0321 -0.23921,-1.87655 0.74562,-1.87655 0.98483,0 1.79061,0.84445 1.79061,1.87655 0,1.03211 -0.33553,1.87656 -0.74562,1.87656 -0.41009,0 -1.21587,-0.84445 -1.79061,-1.87656 z m -79.18646,-8.75727 c -2.32753,-2.5832 -1.00411,-6.25519 2.25441,-6.25519 2.25441,0 3.38163,1.25105 3.38163,3.75312 0,3.61648 -3.30854,5.08528 -5.63604,2.50207 z m -43.01502,-8.7654 c -10.95027,-1.97562 -13.43933,-5.54165 -4.4792,-6.41723 2.71812,-0.26561 9.24405,-1.85257 14.50205,-3.52659 10.74555,-3.4211 19.37226,-2.45516 25.25006,2.82724 5.20551,4.67822 2.7878,8.4656 -4.55938,7.14234 -3.11955,-0.56186 -6.11119,-0.23269 -6.64808,0.73145 -1.17236,2.10529 -9.68401,1.83747 -24.06545,-0.75721 z m -84.17742,-20.94676 c -3.24891,-2.78638 -3.24891,-2.84328 0,-5.62967 4.25418,-3.64853 7.08587,-3.56837 8.40189,0.23785 1.01161,2.9258 -1.53606,8.20666 -3.95918,8.20666 -0.63833,0 -2.63756,-1.26668 -4.44271,-2.81484 z M 123.97405,142.1531 c -1.24431,-2.23449 0.40287,-3.12959 6.53562,-3.55153 4.95398,-0.34086 11.7237,-5.14723 23.40899,-16.61994 7.03902,-6.91099 14.30182,-9.136 9.13396,-2.79827 -3.46937,4.25474 -3.54406,5.95106 -0.26206,5.95106 1.39493,0 2.53623,0.79656 2.53623,1.77015 0,2.86928 -7.18653,7.61263 -11.5337,7.61263 -2.20989,0 -6.41557,1.18323 -9.34595,2.6294 -6.07838,2.99975 -16.17292,6.75339 -18.16162,6.75339 -0.73628,0 -1.77645,-0.78611 -2.31147,-1.74689 z m 43.6081,-26.69924 c 0.1931,-4.27955 1.20533,-6.42097 3.23978,-6.85394 4.07214,-0.86664 3.88615,5.63871 -0.28086,9.82408 -3.13333,3.14713 -3.23057,3.04951 -2.95892,-2.97014 z M 72.331991,103.46081 c 0,-3.34061 5.534611,-12.014318 8.284261,-12.982903 1.786909,-0.629435 4.414602,-3.118913 5.839319,-5.532166 2.922488,-4.950284 10.844965,-7.912805 13.444695,-5.027486 1.854994,2.058753 -4.706314,9.384739 -8.507641,9.499134 -1.140996,0.03434 -3.346357,2.216722 -4.900823,4.849738 -3.330699,5.64172 -14.159811,12.672843 -14.159811,9.193683 z"
       style="fill:#000000;fill-opacity:1"
       sodipodi:nodetypes="ssssscssscscccsssssssscsscsscscscccccsscccsccsssssssssccsssssssssssssssssssssssscssssssssssssssscssssscscccsssssscssssssssscssssssssccssssccccccssscccsscsssssssssssssssssssssssssssssssscssssssssscsscccssssssscsssssssssssssscsssssssscssssssssssssssscssssssssssssscssssssssssccscsssssssssssssscsssssscsssssssccssssssssssssssssssscsssssscsssssssscssssssssssscsssssssssssssssssssssssssssccssccssssssssscsscsscssssssssssssssscssssssssssssssscsscssssssssssssssssssssssssssssssssssssscssssssssscssssssssssssssssssssssssssssssssssssssssss" />
    <path
       sodipodi:type="arc"
       style="fill:#333333;fill-opacity:1;fill-rule:nonzero;stroke:none"
       id="path4121"
       sodipodi:cx="63.286057"
       sodipodi:cy="-74.545074"
       sodipodi:rx="39.244427"
       sodipodi:ry="23.688076"
       d="m 101.95774,-78.577314 a 39.244427,23.688076 0 0 1 9.3e-4,0.0033 l -38.672613,4.028989 z"
       sodipodi:start="6.11213"
       sodipodi:end="6.1122693"
       transform="matrix(0.92592215,0,0,1,-12.92858,0)" />
    <path
       sodipodi:type="arc"
       style="fill:#333333;fill-opacity:1;fill-rule:nonzero;stroke:none"
       id="path4123"
       sodipodi:cx="65.584152"
       sodipodi:cy="-52.359596"
       sodipodi:rx="10.606602"
       sodipodi:ry="11.755651"
       d="m 76.035958,-54.360671 a 10.606602,11.755651 0 0 1 2.51e-4,0.0016 l -10.452057,1.999461 z"
       sodipodi:start="6.11213"
       sodipodi:end="6.1122693"
       transform="matrix(0.92592215,0,0,1,-12.92858,0)" />
    <path
       sodipodi:type="arc"
       style="fill:#333333;fill-opacity:1;fill-rule:nonzero;stroke:none"
       id="path4125"
       sodipodi:cx="54.182056"
       sodipodi:cy="-54.392529"
       sodipodi:rx="15.46796"
       sodipodi:ry="16.793785"
       d="m 69.424272,-57.251206 a 15.46796,16.793785 0 0 1 3.67e-4,0.0023 l -15.242583,2.856372 z"
       sodipodi:start="6.11213"
       sodipodi:end="6.1122693"
       transform="matrix(0.92592215,0,0,1,-12.92858,0)" />
  </g>
</svg>
