<?xml version="1.0" encoding="UTF-8" standalone="no"?>
<svg
   xmlns:dc="http://purl.org/dc/elements/1.1/"
   xmlns:cc="http://creativecommons.org/ns#"
   xmlns:rdf="http://www.w3.org/1999/02/22-rdf-syntax-ns#"
   xmlns:svg="http://www.w3.org/2000/svg"
   xmlns="http://www.w3.org/2000/svg"
   xmlns:sodipodi="http://sodipodi.sourceforge.net/DTD/sodipodi-0.dtd"
   xmlns:inkscape="http://www.inkscape.org/namespaces/inkscape"
   sodipodi:docname="careful_aim.svg"
   height="100%"
   width="100%"
   inkscape:version="0.48.4 r9939"
   version="1.1"
   id="svg2"
   viewBox="0 0 512 512"
   inkscape:export-filename="C:\Users\Chris\Documents\GitHub\bot-game\assets\careful_aim.png"
   inkscape:export-xdpi="12.832031"
   inkscape:export-ydpi="12.832031">
  <sodipodi:namedview
     pagecolor="#ffffff"
     bordercolor="#666666"
     borderopacity="1"
     objecttolerance="10"
     gridtolerance="10"
     guidetolerance="10"
     inkscape:pageopacity="0"
     inkscape:pageshadow="2"
     inkscape:window-width="1185"
     inkscape:window-height="1030"
     id="namedview44"
     showgrid="false"
     inkscape:zoom="0.25169963"
     inkscape:cx="239.71563"
     inkscape:cy="1135.6867"
     inkscape:window-x="53"
     inkscape:window-y="103"
     inkscape:window-maximized="0"
     inkscape:current-layer="svg2" />
  <metadata
     id="metadata48">
    <rdf:RDF>
      <cc:Work
         rdf:about="">
        <dc:format>image/svg+xml</dc:format>
        <dc:type
           rdf:resource="http://purl.org/dc/dcmitype/StillImage" />
        <dc:title></dc:title>
      </cc:Work>
    </rdf:RDF>
  </metadata>
  <defs
     id="defs46">
    <linearGradient
       id="linearGradient3926">
      <stop
         style="stop-color:#ffffff;stop-opacity:0;"
         offset="0"
         id="stop3928" />
      <stop
         id="stop3934"
         offset="0.5"
         style="stop-color:#ffffff;stop-opacity:0.49803922;" />
      <stop
         style="stop-color:#ffffff;stop-opacity:0;"
         offset="1"
         id="stop3930" />
    </linearGradient>
    <filter
       color-interpolation-filters="sRGB"
       inkscape:menu-tooltip="Increase or decrease lightness and contrast"
       inkscape:menu="Color"
       inkscape:label="Lightness-Contrast"
       height="1"
       width="1"
       y="0"
       x="0"
       id="filter3108">
      <feFlood
         flood-color="rgb(0,0,0)"
         flood-opacity="1"
         result="result1"
         id="feFlood3110" />
      <feBlend
         result="result2"
         mode="normal"
         in2="SourceGraphic"
         id="feBlend3112" />
      <feComposite
         result="result3"
         operator="arithmetic"
         k2="1"
         in2="SourceGraphic"
         id="feComposite3114" />
      <feComposite
         operator="in"
         in2="SourceGraphic"
         id="feComposite3116" />
    </filter>
    <filter
       color-interpolation-filters="sRGB"
       height="1"
       width="1"
       y="0"
       x="0"
       inkscape:menu-tooltip="Oversaturate colors which can be fluorescent in real world"
       inkscape:menu="Color"
       inkscape:label="Fluorescence"
       id="filter7264">
      <feColorMatrix
         values="0"
         type="hueRotate"
         id="feColorMatrix7266" />
      <feColorMatrix
         values="1"
         type="saturate"
         id="feColorMatrix7268" />
      <feColorMatrix
         values="2 -1 0 0 0 0 2 -1 0 0 -1 0 2 0 0 0 0 0 1 0 "
         type="matrix"
         id="feColorMatrix7270" />
    </filter>
    <filter
       color-interpolation-filters="sRGB"
       height="1"
       width="1"
       y="0"
       x="0"
       inkscape:menu-tooltip="Oversaturate colors which can be fluorescent in real world"
       inkscape:menu="Color"
       inkscape:label="Fluorescence"
       id="filter7746">
      <feColorMatrix
         values="0"
         type="hueRotate"
         id="feColorMatrix7748" />
      <feColorMatrix
         values="1"
         type="saturate"
         id="feColorMatrix7750" />
      <feColorMatrix
         values="2 -1 0 0 0 0 2 -1 0 0 -1 0 2 0 0 0 0 0 1 0 "
         type="matrix"
         id="feColorMatrix7752" />
    </filter>
    <filter
       color-interpolation-filters="sRGB"
       height="1"
       width="1"
       y="0"
       x="0"
       inkscape:menu-tooltip="Oversaturate colors which can be fluorescent in real world"
       inkscape:menu="Color"
       inkscape:label="Fluorescence"
       id="filter11635">
      <feColorMatrix
         values="0"
         type="hueRotate"
         id="feColorMatrix11637" />
      <feColorMatrix
         values="1"
         type="saturate"
         id="feColorMatrix11639" />
      <feColorMatrix
         values="2 -1 0 0 0 0 2 -1 0 0 -1 0 2 0 0 0 0 0 1 0 "
         type="matrix"
         id="feColorMatrix11641" />
    </filter>
  </defs>
  <rect
     y="-3.1355259"
     x="1.7468045"
     height="524.13165"
     width="516.97894"
     id="rect3171"
     style="opacity:0.98999999;fill:#0c0000;fill-opacity:1;fill-rule:nonzero;stroke:none" />
  <path
     style="fill:#f11313"
     d="M 238.98289,470.07803 C 197.28419,464.19267 168.22212,453.87309 139.05144,434.59358 73.256036,391.10805 36.366976,315.12282 43.692462,238.17019 52.816252,142.32693 121.13095,67.340338 217.95145,46.892381 c 21.54883,-4.550989 62.08689,-4.591232 83.49434,-0.08291 30.08842,6.336533 54.5909,16.396321 79.618,32.688112 19.08672,12.424816 46.19126,38.934567 58.58761,57.302017 49.78054,73.75878 49.78054,166.36282 0,240.1216 -11.70841,17.3481 -39.33501,44.59772 -57.48233,56.69793 -23.75219,15.8374 -50.74909,27.05544 -79.36661,32.97927 -14.00249,2.89852 -52.90758,5.01972 -63.81957,3.4796 z m 16.68012,-22.62167 c 0,-8.39389 0.63334,-15.28497 1.45044,-15.78182 0.79775,-0.48509 1.45045,-4.37603 1.45045,-8.64655 l 0,-7.76457 -9.06528,-0.27497 -9.06528,-0.27496 9.06528,-0.50666 9.06528,-0.50665 0,-9.20777 0,-9.20775 -8.70267,0 c -4.83481,0 -8.70267,-0.63424 -8.70267,-1.42705 0,-0.79282 3.86786,-1.42706 8.70267,-1.42706 l 8.70267,0 0,-9.27585 0,-9.27585 -9.06528,-0.27496 -9.06528,-0.27497 9.06528,-0.50666 9.06528,-0.50664 0,-9.13967 0,-9.13967 -9.06528,-0.50665 -9.06528,-0.50666 9.06528,-0.27496 9.06528,-0.27497 0,-9.27585 0,-9.27585 -8.70267,0 c -4.83481,0 -8.70267,-0.63424 -8.70267,-1.42705 0,-0.79282 3.86786,-1.42706 8.70267,-1.42706 l 8.70267,0 0,-9.27585 0,-9.27585 -9.06528,-0.27496 -9.06528,-0.27497 9.06528,-0.50666 9.06528,-0.50664 0,-9.20777 0,-9.20775 -9.06528,-0.27497 -9.06528,-0.27496 9.06528,-0.50666 9.06528,-0.50665 0,-16.34304 0,-16.34302 -16.68012,0 -16.68011,0 -0.27947,8.91909 -0.27947,8.91909 -0.51497,-8.91909 -0.51495,-8.91909 -9.35869,0 -9.35868,0 -0.27947,8.91909 -0.27947,8.91909 -0.51497,-8.91909 -0.51495,-8.91909 -9.35869,0 -9.35867,0 0,8.56233 c 0,4.75684 -0.64464,8.56232 -1.45045,8.56232 -0.80581,0 -1.45044,-3.80548 -1.45044,-8.56232 l 0,-8.56233 -9.42789,0 -9.42789,0 -0.27948,8.91909 -0.27947,8.91909 -0.51496,-8.91909 -0.51495,-8.91909 -9.35869,0 -9.35868,0 -0.27947,8.91909 -0.27947,8.91909 -0.51497,-8.91909 -0.51495,-8.91909 -9.35869,0 -9.35868,0 0,8.56233 c 0,4.75684 -0.64463,8.56232 -1.45044,8.56232 -0.80581,0 -1.45045,-3.80548 -1.45045,-8.56232 l 0,-8.56233 -9.42789,0 -9.42789,0 -0.27947,8.91909 -0.279468,8.91909 -0.51497,-8.91909 -0.51495,-8.91909 -8.633471,0 c -4.78867,0 -8.633451,0.63553 -8.633451,1.42706 0,0.85623 -5.801779,1.42705 -14.504447,1.42705 l -14.504448,0 0,8.31085 c 0,20.24149 9.753066,56.69243 21.114356,78.9125 32.141959,62.86223 95.622399,105.86591 165.993019,112.449 6.78083,0.63434 13.14465,1.24085 14.14183,1.34781 1.34731,0.1445 1.81306,-3.63318 1.81306,-14.70539 z m 29.00889,12.70576 c 23.35467,-1.92915 57.16946,-13.03529 79.59111,-26.14092 32.60647,-19.05875 60.78208,-47.58108 78.44233,-79.40758 13.00515,-23.43729 22.3218,-54.34541 24.19635,-80.27178 l 0.95442,-13.20025 -15.44375,0 c -9.32887,0 -15.44376,-0.56504 -15.44376,-1.42705 0,-0.78488 -3.58985,-1.42706 -7.97744,-1.42706 l -7.97745,0 0,8.64655 c 0,5.40097 -0.54444,8.31549 -1.45045,7.76457 -0.79774,-0.48508 -1.45044,-4.37603 -1.45044,-8.64655 l 0,-7.76457 -8.70267,0 -8.70267,0 0,7.76457 c 0,4.27052 -0.6527,8.16147 -1.45044,8.64655 -0.90601,0.55092 -1.45045,-2.3636 -1.45045,-7.76457 l 0,-8.64655 -9.42789,0 -9.42789,0 -0.27947,8.91909 -0.27947,8.91909 -0.51497,-8.91909 -0.51495,-8.91909 -9.35869,0 -9.35867,0 0,8.64655 c 0,5.40097 -0.54444,8.31549 -1.45045,7.76457 -0.79774,-0.48508 -1.45044,-4.37603 -1.45044,-8.64655 l 0,-7.76457 -8.70267,0 -8.70267,0 0,7.76457 c 0,4.27052 -0.6527,8.16147 -1.45045,8.64655 -0.906,0.55092 -1.45044,-2.3636 -1.45044,-7.76457 l 0,-8.64655 -9.42789,0 -9.42789,0 -0.27947,8.91909 -0.27948,8.91909 -0.51496,-8.91909 -0.51495,-8.91909 -9.35869,0 -9.35868,0 0,8.64655 c 0,5.40097 -0.54444,8.31549 -1.45044,7.76457 -0.79775,-0.48508 -1.45045,-4.37603 -1.45045,-8.64655 l 0,-7.76457 -15.95489,0 -15.95489,0 0,16.41112 0,16.41112 9.06528,0.27497 9.06528,0.27496 -9.06528,0.50666 -9.06528,0.50665 0,9.20777 0,9.20775 9.06528,0.27496 9.06528,0.27497 -9.06528,0.50666 -9.06528,0.50665 0,9.20776 0,9.20775 8.70267,0 c 4.83481,0 8.70267,0.63424 8.70267,1.42706 0,0.79281 -3.86786,1.42705 -8.70267,1.42705 l -8.70267,0 0,9.20775 0,9.20777 9.06528,0.50665 9.06528,0.50666 -9.06528,0.27496 -9.06528,0.27497 0,9.20775 0,9.20777 9.06528,0.50664 9.06528,0.50666 -9.06528,0.27497 -9.06528,0.27496 0,9.27585 0,9.27585 8.70267,0 c 4.83481,0 8.70267,0.63424 8.70267,1.42706 0,0.79281 -3.86786,1.42705 -8.70267,1.42705 l -8.70267,0 0,9.27585 0,9.27585 9.06528,0.27497 9.06528,0.27496 -9.13477,0.50843 -9.13476,0.50843 0.91105,21.69271 c 0.50109,11.93098 1.17653,22.52609 1.501,23.54468 0.39088,1.22709 2.18686,1.61041 5.32281,1.13606 2.60308,-0.39375 9.62814,-1.12028 15.61122,-1.61448 z M 99.294452,246.51429 l 0.27947,-8.91909 0.514968,8.91909 0.51495,8.91909 9.35869,0 9.35867,0 0,-8.56233 c 0,-4.75684 0.64464,-8.56232 1.45045,-8.56232 0.80581,0 1.45044,3.80548 1.45044,8.56232 l 0,8.56233 9.42789,0 9.42789,0 0.27948,-8.91909 0.27947,-8.91909 0.51496,8.91909 0.51496,8.91909 9.35869,0 9.35867,0 0.27947,-8.91909 0.27947,-8.91909 0.51497,8.91909 0.51495,8.91909 9.35869,0 9.35868,0 0,-8.56233 c 0,-4.75684 0.64463,-8.56232 1.45044,-8.56232 0.80581,0 1.45045,3.80548 1.45045,8.56232 l 0,8.56233 9.35867,0 9.35869,0 0.51495,-8.91909 0.51497,-8.91909 0.27947,8.91909 0.27947,8.91909 9.42789,0 9.42789,0 0.27948,-8.91909 0.27947,-8.91909 0.51496,8.91909 0.51496,8.91909 16.61091,0 16.6109,0 0,-16.41113 0,-16.41112 -9.06528,-0.27496 -9.06528,-0.27497 9.06528,-0.50666 9.06528,-0.50664 0,-9.20777 0,-9.20775 -9.06528,-0.27497 -9.06528,-0.27496 9.06528,-0.50666 9.06528,-0.50665 0,-9.20776 0,-9.20776 -8.70267,0 c -4.83481,0 -8.70267,-0.63424 -8.70267,-1.42705 0,-0.79281 3.86786,-1.42705 8.70267,-1.42705 l 8.70267,0 0,-9.27585 0,-9.27586 -9.06528,-0.27496 -9.06528,-0.27496 9.06528,-0.50667 9.06528,-0.50664 0,-9.20777 0,-9.20775 -9.06528,-0.27497 -9.06528,-0.27496 9.06528,-0.50666 9.06528,-0.50665 0,-9.20776 0,-9.20776 -8.70267,0 c -4.83481,0 -8.70267,-0.63424 -8.70267,-1.42705 0,-0.79282 3.86786,-1.42706 8.70267,-1.42706 l 8.70267,0 0,-9.27585 0,-9.275854 -9.06528,-0.27496 -9.06528,-0.27497 9.06528,-0.50666 9.06528,-0.506659 0,-7.696473 c 0,-4.233071 -0.6527,-8.093366 -1.45045,-8.57845 -0.81738,-0.497028 -1.45044,-7.396991 -1.45044,-15.809003 0,-14.721632 -0.045,-14.918066 -3.2635,-14.275263 -1.79493,0.358476 -8.6346,1.026779 -15.19928,1.485135 -23.55002,1.644294 -55.69221,11.82641 -80.60747,25.535118 -28.57309,15.721297 -57.528138,43.820579 -75.506005,73.274449 -16.230607,26.59125 -28.48601,66.177 -28.48601,92.01167 l 0,8.31085 14.504448,0 c 8.702668,0 14.504447,0.57082 14.504447,1.42705 0,0.79282 3.867857,1.42706 8.702671,1.42706 l 8.702671,0 0.27947,-8.91909 z m 194.080118,0.35676 c 0,-4.75684 0.64464,-8.56232 1.45045,-8.56232 0.80581,0 1.45044,3.80548 1.45044,8.56232 l 0,8.56233 9.42789,0 9.42789,0 0.27948,-8.91909 0.27947,-8.91909 0.51496,8.91909 0.51495,8.91909 9.35869,0 9.35868,0 0,-8.56233 c 0,-4.75684 0.64464,-8.56232 1.45044,-8.56232 0.80581,0 1.45045,3.80548 1.45045,8.56232 l 0,8.56233 8.70267,0 8.70267,0 0,-8.56233 c 0,-4.75684 0.64463,-8.56232 1.45044,-8.56232 0.80581,0 1.45045,3.80548 1.45045,8.56232 l 0,8.56233 9.42789,0 9.42789,0 0.27947,-8.91909 0.27947,-8.91909 0.51497,8.91909 0.51495,8.91909 9.35869,0 9.35867,0 0,-8.56233 c 0,-4.75684 0.64464,-8.56232 1.45045,-8.56232 0.80581,0 1.45044,3.80548 1.45044,8.56232 l 0,8.56233 8.70267,0 8.70267,0 0,-8.56233 c 0,-4.75684 0.64464,-8.56232 1.45044,-8.56232 0.80581,0 1.45045,3.80548 1.45045,8.56232 l 0,8.56233 7.97745,0 c 4.38759,0 7.97744,-0.64218 7.97744,-1.42706 0,-0.86201 6.11489,-1.42705 15.44376,-1.42705 l 15.44375,0 -0.95442,-13.20025 C 459.88457,142.32733 377.97943,61.410729 278.1449,52.900421 c -7.1797,-0.612035 -13.46207,-0.726327 -13.9608,-0.253987 -0.49875,0.472341 -1.33953,10.941765 -1.86842,23.265389 l -0.96162,22.406588 9.12064,0.508075 9.12065,0.50807 -9.06528,0.27497 -9.06528,0.27496 0,9.275854 0,9.27585 8.78827,0 c 5.4895,0 8.45179,0.53566 7.89184,1.42706 -0.49303,0.78488 -4.44776,1.42705 -8.78827,1.42705 l -7.89184,0 0,9.20776 0,9.20776 9.06528,0.50665 9.06528,0.50666 -9.06528,0.27496 -9.06528,0.27497 0,9.20775 0,9.20775 9.06528,0.50666 9.06528,0.50667 -9.06528,0.27496 -9.06528,0.27496 0,9.27586 0,9.27585 7.97744,0 c 4.3876,0 7.97745,0.64217 7.97745,1.42705 0,0.78488 -3.58985,1.42705 -7.97745,1.42705 l -7.97744,0 0,9.27585 0,9.27586 9.06528,0.27496 9.06528,0.27496 -9.06528,0.50667 -9.06528,0.50664 0,9.20777 0,9.20775 9.06528,0.27497 9.06528,0.27496 -9.06528,0.50666 -9.06528,0.50665 0,16.34303 0,16.34303 15.95489,0 15.95489,0 0,-8.56233 z"
     id="path3736"
     inkscape:connector-curvature="0" />
</svg>
