<?xml version="1.0" encoding="UTF-8" standalone="no"?>
<svg
   xmlns:dc="http://purl.org/dc/elements/1.1/"
   xmlns:cc="http://creativecommons.org/ns#"
   xmlns:rdf="http://www.w3.org/1999/02/22-rdf-syntax-ns#"
   xmlns:svg="http://www.w3.org/2000/svg"
   xmlns="http://www.w3.org/2000/svg"
   xmlns:sodipodi="http://sodipodi.sourceforge.net/DTD/sodipodi-0.dtd"
   xmlns:inkscape="http://www.inkscape.org/namespaces/inkscape"
   sodipodi:docname="latex gloves.svg"
   height="100%"
   width="100%"
   inkscape:version="0.48.4 r9939"
   version="1.1"
   id="svg8438"
   viewBox="0 0 512 512">
  <metadata
     id="metadata8464">
    <rdf:RDF>
      <cc:Work
         rdf:about="">
        <dc:format>image/svg+xml</dc:format>
        <dc:type
           rdf:resource="http://purl.org/dc/dcmitype/StillImage" />
        <dc:title></dc:title>
      </cc:Work>
    </rdf:RDF>
  </metadata>
  <defs
     id="defs8462">
    <linearGradient
       id="linearGradient4077">
      <stop
         id="stop4079"
         offset="0"
         style="stop-color:#aa4400;stop-opacity:1;" />
      <stop
         style="stop-color:#ff9f00;stop-opacity:1;"
         offset="0.22752622"
         id="stop4081" />
      <stop
         style="stop-color:#803300;stop-opacity:1;"
         offset="0.4948855"
         id="stop4083" />
      <stop
         id="stop4085"
         offset="1"
         style="stop-color:#562200;stop-opacity:1;" />
    </linearGradient>
    <linearGradient
       id="linearGradient4057">
      <stop
         style="stop-color:#aa4400;stop-opacity:1;"
         offset="0"
         id="stop4059" />
      <stop
         id="stop4067"
         offset="0.22752622"
         style="stop-color:#ecd1a4;stop-opacity:1;" />
      <stop
         id="stop4065"
         offset="0.50136983"
         style="stop-color:#803300;stop-opacity:1;" />
      <stop
         style="stop-color:#562200;stop-opacity:1;"
         offset="1"
         id="stop4061" />
    </linearGradient>
    <linearGradient
       id="linearGradient3890">
      <stop
         style="stop-color:#701b1b;stop-opacity:1;"
         offset="0"
         id="stop3892" />
      <stop
         style="stop-color:#e31600;stop-opacity:1;"
         offset="1"
         id="stop3894" />
    </linearGradient>
    <linearGradient
       id="linearGradient3882">
      <stop
         style="stop-color:#600b0b;stop-opacity:1;"
         offset="0"
         id="stop3884" />
      <stop
         style="stop-color:#d11414;stop-opacity:1;"
         offset="1"
         id="stop3886" />
    </linearGradient>
    <linearGradient
       id="linearGradient3872">
      <stop
         style="stop-color:#800600;stop-opacity:1;"
         offset="0"
         id="stop3874" />
      <stop
         style="stop-color:#ff0004;stop-opacity:0;"
         offset="1"
         id="stop3876" />
    </linearGradient>
    <filter
       id="filter4074"
       inkscape:label="Black Light"
       inkscape:menu="Color"
       inkscape:menu-tooltip="Light areas turn to black"
       x="0"
       width="1"
       y="0"
       height="1"
       color-interpolation-filters="sRGB">
      <feColorMatrix
         id="feColorMatrix4076"
         type="luminanceToAlpha"
         result="result2" />
      <feComposite
         in2="SourceGraphic"
         id="feComposite4078"
         operator="arithmetic"
         in="result2"
         k3="2"
         result="result4" />
      <feBlend
         in2="result2"
         id="feBlend4080"
         in="result4"
         mode="multiply"
         result="result3" />
      <feComposite
         in2="SourceGraphic"
         id="feComposite4082"
         operator="in"
         in="result3" />
    </filter>
  </defs>
  <sodipodi:namedview
     pagecolor="#000000"
     bordercolor="#666666"
     borderopacity="1"
     objecttolerance="10"
     gridtolerance="10"
     guidetolerance="10"
     inkscape:pageopacity="0"
     inkscape:pageshadow="2"
     inkscape:window-width="1190"
     inkscape:window-height="1126"
     id="namedview8460"
     showgrid="false"
     inkscape:zoom="1"
     inkscape:cx="161.62715"
     inkscape:cy="378.97441"
     inkscape:window-x="160"
     inkscape:window-y="130"
     inkscape:window-maximized="0"
     inkscape:current-layer="svg8438"
     showguides="true"
     inkscape:guide-bbox="true" />
  <path
     style="fill:#000000"
     id="path3978"
     d="M -13.466093,0.1885736 H 514.89024 V 516.42957 H -13.466093 z"
     inkscape:connector-curvature="0" />
  <path
     sodipodi:type="arc"
     style="opacity:0.98999999;fill:#ff0000;fill-opacity:0.74970506;fill-rule:nonzero;stroke:none"
     id="path5005"
     sodipodi:cx="640"
     sodipodi:cy="124.5"
     sodipodi:rx="105"
     sodipodi:ry="118.5"
     d="m 743.4676,104.32865 a 105,118.5 0 0 1 0.002,0.0163 L 640,124.5 z"
     sodipodi:start="6.11213"
     sodipodi:end="6.1122693" />
  <path
     sodipodi:end="12.394598"
     sodipodi:start="6.11213"
     d="m 395.08814,195.37087 a 131,153.5 0 1 1 -0.016,-0.10849 L 266,221.5 z"
     sodipodi:ry="153.5"
     sodipodi:rx="131"
     sodipodi:cy="221.5"
     sodipodi:cx="266"
     id="path6467"
     style="opacity:0.98999999;fill:#ffffff;fill-opacity:1;fill-rule:nonzero;stroke:none"
     sodipodi:type="arc"
     transform="translate(1,73)" />
  <path
     sodipodi:type="arc"
     style="opacity:0.98999999;fill:#ffffff;fill-opacity:1;fill-rule:nonzero;stroke:none"
     id="path6465"
     sodipodi:cx="266"
     sodipodi:cy="221.5"
     sodipodi:rx="131"
     sodipodi:ry="153.5"
     d="m 395.08814,195.37087 a 131,153.5 0 1 1 -0.016,-0.10849 L 266,221.5 z"
     sodipodi:start="6.11213"
     sodipodi:end="12.394598"
     transform="matrix(1.0534264,0,0,0.9934864,-21.211423,2.4427619)" />
  <g
     id="g6448">
    <path
       style="fill:#bf8c72"
       d="m 342.5,492.27631 c -32.91008,-7.27102 -64.88369,-18.66749 -97.5,-27.68629 -32.5337,-9.13558 -62.69742,-24.66 -94.41627,-35.79527 -19.5337,1.81539 -23.44993,-19.04356 -36.9861,-11.02653 -6.67217,-14.1365 -11.54906,-23.63098 1.07857,-29.42886 -5.91207,-23.03311 -0.8811,-55.0377 -11.95394,-73.00615 -21.8855,-6.42238 -8.850898,-23.35226 -3.349757,-32.51921 -5.498338,-32.69532 -18.033272,-62.98582 -12.508525,-96.58764 1.19986,-35.91323 -3.879431,-74.33459 15.842512,-106.736371 5.24405,-15.426066 29.29979,-27.091058 18.00928,-30.970763 10.79236,-3.999595 27.95184,-26.405368 38.09361,-12.73487 -13.37974,-1.083803 21.30181,9.805325 29.5695,4.458147 30.76822,-4.067686 51.33991,25.015551 80.07961,29.292959 -20.85342,-8.322824 21.39186,-4.021158 26.01986,-17.823135 28.3677,-6.690862 54.26331,11.805699 75.06473,25.063987 29.87925,15.924516 23.61149,26.048646 40.76088,52.478386 3.66765,5.43803 -9.02856,-26.52544 3.26402,1.5752 12.85676,29.12141 11.72695,62.26402 5.00646,92.70281 -0.4842,28.67128 -4.4674,56.16507 -10.296,84.11268 7.5133,21.81547 -4.92374,39.60097 -2.26142,62.43924 -3.23299,32.56792 -8.09524,65.55585 -6.46467,98.79932 -13.36366,10.9696 -38.64199,25.41205 -57.05235,23.39236 z m -69.55271,-62.14773 c 23.40107,-28.24741 -21.8517,0.39572 -5.22419,4.58605 l 5.22419,-4.58605 z m -19.39344,-31.21571 c -1.69388,-7.05715 -9.47795,5.95584 0,0 z M 262.03027,393 c 13.41059,-18.24055 58.66068,-2.67424 51.13051,-31.66844 C 295.78506,359.06932 256.29533,381.63182 262.03027,393 z M 224.1082,380.68783 c -1.40102,-17.12596 -10.66552,10.13935 0,0 l 0,0 z M 213.22976,368.317 c 15.7412,-3.46683 31.69978,-20.80348 4.71248,-11.53847 -7.05158,-1.06726 -20.20696,17.10754 -4.71248,11.53847 z M 268,341.46482 c -6.72149,-6.17121 -6.0933,8.77605 0,0 z m -58.20044,-10.70897 c 0.24305,-19.55845 -14.64709,11.28743 0,0 z M 270,324.00189 c 13.98182,3.34161 47.13115,-26.70696 14.79881,-12.43996 -11.42022,2.0566 -48.32055,19.59749 -14.79881,12.43996 z m -66.6237,-9.10229 c 12.91767,-4.98369 30.24428,-17.44618 3.82182,-9.99772 -11.90804,0.69106 -26.47,19.34971 -3.82182,9.99772 z m 59.432,-21.56371 c -6.16262,-11.40803 -9.62967,9.65625 0,0 z m -65.48015,-14.56151 c 0.36152,-19.16597 -17.38317,11.17697 0,0 z M 261.5,275.95783 c 15.49563,5.29412 47.33389,-29.70411 16.82968,-18.8641 -15.58303,0.80088 -54.72275,31.61077 -16.82968,18.8641 l 0,0 z m -68.14227,-14.8904 c 14.37589,-1.97087 33.81855,-19.34446 6.52886,-10.66372 -15.03568,0.94857 -40.22523,23.41756 -6.52886,10.66372 z m 149.79517,-5.50366 c 2.26486,-15.0189 -10.41549,9.13218 0,0 l 0,0 z m -92.64853,-14.57083 c -2.15318,-5.6108 -6.63044,3.49292 0,0 z m -64.81882,-13.16725 c 7.00834,-20.28555 -20.58148,7.36768 0,0 z M 257,220.33109 c 20.4682,5.28001 33.51111,-28.11428 5.62744,-13.45115 -10.47458,1.25116 -34.89079,18.94176 -9.88193,13.72408 L 257,220.33109 z m -83.37569,-10.31744 c 39.6848,-24.95791 -26.28659,-0.46749 0,0 z M 337,205.07756 c -10.96971,-19.26182 -9.52511,17.27064 0,0 z m -137.05,-6.96578 c 0.769,-6.06295 -14.91137,4.00492 0,0 z m -17.0649,-2.01961 c -3.58568,-9.4408 -1.11946,-32.75191 -11.41408,-7.59174 1.37537,4.27559 7.59095,8.93573 11.41408,7.59174 z M 89.705733,173.75 c -1.531612,1.95145 1.503969,9.97647 0,0 z m 99.248427,-0.83565 c -6.2915,-5.26962 2.6311,6.41448 0,0 z M 89.897639,160.25 c -2.572858,-21.97938 0.254652,27.81696 0,0 z M 234.05382,129.89943 c 18.40469,-29.76746 -20.53019,-52.348393 -40.64208,-41.621881 0.39776,26.005241 3.57495,48.771481 35.30308,43.632261 l 3.58068,-0.35931 1.75832,-1.65107 0,0 z m 34.3634,-0.99888 c -6.35332,-8.32323 -12.85352,6.19357 0,0 z m 67.41339,-5.17493 c 3.46202,-21.17733 -43.86792,-47.532243 -24.13896,-10.47928 1.45015,10.01425 16.29074,13.82351 24.13896,10.47928 z M 189.45032,88.75 c -10.54234,-26.876395 -3.80002,-6.653067 0,0 z M 101,388.5 c 2.47933,-5.26898 2.47933,5.26898 0,0 z M 20.015313,329.30902 c 1.308044,-18.4846 1.846266,19.09255 0,0 z M 401.91104,110.09833 c -10.85582,-19.468898 14.0036,20.41046 0,0 z"
       id="path6458"
       inkscape:connector-curvature="0" />
    <path
       style="fill:#96614a"
       d="m 341.5,491.55585 c -31.46682,-7.09376 -62.44419,-17.3574 -93.28901,-27.18571 -31.0392,-11.29603 -62.62435,-20.842 -92.53951,-35.10903 -19.48478,-2.53764 -29.84989,-16.64586 -42.17985,-12.96833 -19.675595,-22.22089 9.48943,-21.86358 -1.155,-45.6385 -1.70009,-19.91093 -0.96221,-32.66431 -7.89945,-58.37619 -7.973754,10.59337 -25.220518,-22.8914 -4.683507,-25.1375 -3.517484,-32.78537 -18.319007,-62.71196 -13.288965,-96.07553 2.949754,-36.78755 -4.768865,-76.29195 15.352222,-109.731625 3.93779,-15.303404 31.28759,-29.102431 18.99505,-32.820841 10.55212,-4.036994 28.15705,-26.389912 37.9974,-12.728238 -13.37974,-1.083803 21.30181,9.805325 29.5695,4.458147 32.28154,-3.064776 54.58649,26.00275 84.68593,32.174958 -14.578,-10.523803 24.2618,-21.378184 35.93519,-22.258723 30.70391,3.384469 51.7125,21.606576 76.14963,37.021165 15.86201,14.653137 6.99532,14.803577 21.86579,36.649137 12.06065,12.64099 17.90875,39.36406 15.95295,66.60285 -1.35919,31.43169 -8.95794,62.24311 -9.14007,92.57334 -10.28014,23.08714 1.99371,46.34651 -7.28961,66.2261 -4.1303,20.82703 -0.91205,42.85362 -5.24424,64.76259 -9.61165,18.75632 11.39217,54.25663 -12.08601,62.95916 -17.23188,2.77547 -29.44848,20.73916 -47.70844,14.60277 z M 252.73203,457 c 20.06997,-10.48558 29.81711,-36.93232 39.42614,-53.83385 20.47082,-1.8179 24.41022,-22.36251 36.03817,-35.57591 -10.486,-21.19942 -45.97145,-0.30054 -61.87221,9.78793 -2.42696,13.64793 -54.18555,32.55347 -24.65451,34.55538 -6.68498,15.90175 46.31415,-12.75062 19.5632,15.36855 3.16736,7.8677 -30.98772,36.69948 -8.50079,29.6979 z m 106.16369,-32.91439 c 17.52504,-17.83436 -12.91814,5.24658 0,0 z M 131.47953,394.79674 c -15.20748,-24.8539 9.62611,23.56032 0,0 z m 96.00503,-14.05671 c -2.48057,-13.46096 28.85024,-26.55192 0.28242,-28.43594 -26.55904,4.42531 -34.93818,18.32772 -13.77521,27.87291 -3.06742,10.23927 13.47911,8.12414 13.49279,0.56303 z M 241.76793,354 c -6.82666,-6.37148 2.80265,6.34962 0,0 z m 26.77752,-9.45455 C 255.34048,321.23379 317.98622,329.29031 307.42918,304 c -15.88281,9.02259 -62.04856,8.01888 -56.4552,28.99221 24.95064,-6.11289 -6.81417,19.38819 17.57147,11.55324 z m -26.30352,-7.03067 c -0.6478,-9.38373 -3.7717,11.17623 0,0 z M 211.75,332.85993 c -6.36057,-17.81894 39.02698,-26.07857 7.48077,-32.66595 -15.42959,-0.0612 -60.44266,23.66795 -21.86828,25.41144 -3.71307,9.35802 10.14452,17.7877 14.38751,7.25451 z m 138.20545,-26.31962 c 8.25519,-22.52652 -18.18521,8.77822 0,0 z m -243.23799,-10.0297 c -9.622788,-24.86096 5.11663,24.82008 0,0 z m 127.83454,1.32774 c -3.40778,-28.21727 -3.43037,10.73226 0,0 z m 30.32484,-1.87304 c -5.77041,-22.59539 42.56404,-14.04604 37.73999,-40.70928 -20.26714,-5.64112 -56.93204,7.40671 -61.79043,26.65484 26.21201,-4.86158 -0.34213,23.56302 24.05044,14.05444 z m -66.37742,-13.5299 c 1.39743,-18.94298 16.35622,-16.39448 27.3497,-30.12591 -12.67306,-17.7056 -80.72789,13.05562 -42.90457,21.79412 -5.72775,9.90966 10.76764,18.46096 15.55487,8.33179 z M 349.35397,263.49657 C 369.59073,246.281 330.86502,235.24698 336.122,261.1472 c 2.64709,4.62188 9.1135,4.2693 13.23197,2.34937 z M 231.50272,247.00858 c -5.50624,-21.86713 -2.91784,3.47275 0,0 z m 21.13651,-3.51082 c 0.14273,-18.77918 -23.45135,4.64825 0,0 z m -67.79352,-11.10941 c 6.45977,-15.66639 14.16142,-22.96287 28.01732,-34.20233 -13.50563,-6.78125 -43.68811,-0.87058 -15.21731,-18.10388 27.2042,-3.29259 15.69213,-27.6868 -1.11224,-16.9632 -16.23786,1.2227 -36.07132,33.3697 -31.17552,51.60481 19.73744,2.41211 -7.28505,23.47276 19.48775,17.6646 z m 61.72807,-4.81412 c 17.87031,2.33196 68.31016,-17.15963 29.08275,-26.15684 -9.95773,-1.64194 -68.24042,30.89151 -29.08275,26.15684 z M 335.5,223 c -6.03037,-3.72145 -4.41014,4.13202 0,0 z m 13.81927,-11.46546 c 0.21698,-19.36956 -37.04611,-13.62517 -15.06974,0.35969 4.97164,1.01416 10.16395,0.89008 15.06974,-0.35969 z M 89.221136,150.82114 c -0.961915,8.32977 0.530172,49.80505 0.462464,20.8115 0.06601,-6.93616 0.458114,-13.9115 -0.462464,-20.8115 z m 82.681814,25.61878 c 4.57714,-10.80512 -7.92548,12.54514 0,0 z m 83.91295,-29.77331 c 3.17473,-8.98083 22.574,-20.71419 5.05385,-22.93636 16.18413,-11.23969 -7.11358,-17.06611 -8.4473,-27.439952 21.92366,10.955522 -19.35271,-24.040358 -31.23565,-17.666494 -33.0057,-14.771262 -32.83014,13.47374 -25.14404,37.034216 -10.22883,34.5126 36.06953,23.63735 56.8227,32.46315 l 2.95044,-1.45456 0,0 z m 130.97462,-3.79065 c -8.49622,-10.86445 -8.65419,9.62569 0,0 z m -38.33708,-5.48776 c 13.2306,-18.55154 -32.37484,-56.693282 -43.17855,-40.993354 4.03896,19.324744 19.88548,55.173664 43.17855,40.993354 z m -155.57036,-9.96029 c 8.74842,-13.11602 -10.90102,-62.583794 -11.54306,-53.9647 11.28071,14.702355 10.78157,54.45976 10.33275,59.7916 l 1.21031,-5.8269 0,0 z m 123.7711,-41.882301 c -2.3831,-3.113453 -24.49361,6.938854 0,0 z M 151,39 c -3.90318,-3.653135 -3.90318,3.653135 0,0 z M 20.309869,330.5 c 0.622741,-11.32716 0.830299,10.05592 0,0 z"
       id="path6456"
       inkscape:connector-curvature="0" />
    <path
       style="fill:#6f4735"
       d="m 353.91667,492.59034 c -31.89544,-2.79543 -61.49537,-15.90457 -92.33211,-23.99453 -35.85753,-5.07758 19.39474,-11.98414 11.87688,-26.20883 7.26937,-20.51338 33.26826,-32.9856 45.91766,-50.67455 11.6602,-13.18455 31.16973,-37.47109 1.27845,-37.03665 -29.56325,5.28982 -58.12247,20.64427 -78.15755,43.30102 -16.6086,8.20407 -27.00339,23.89796 -14.54016,29.67354 10.04838,2.21 34.90955,-1.01702 20.51575,11.46628 -22.55393,-13.65347 13.52695,36.64661 -18.52992,17.45899 -23.53088,-11.50726 -48.1402,-12.16602 -70.5837,-26.32768 C 172.884,409.35034 146.31403,419.87254 138,420.58289 c -3.62351,7.89829 -15.34094,-13.21489 -23.59725,-2.04678 -2.41338,-11.75279 -15.378897,-23.53964 0.47534,-30.01426 -5.36961,-26.94405 -1.90458,-42.71619 -9.19479,-70.68276 -0.89425,-1.61768 -31.58715,-20.78021 -7.084501,-28.29503 0.884184,-27.65775 -13.266415,-54.04259 -13.281155,-81.74542 1.524855,-7.9867 2.797884,-57.90446 3.490861,-41.95109 0.457636,11.65363 0.958724,26.31432 0.951314,5.78401 0.36866,-6.85975 6.75e-4,-31.38753 -2.321651,-18.21703 C 85.02206,116.61635 95.799227,74.998603 126.40463,52 c -17.17023,1.384355 11.33304,-15.235269 17.9287,-19 24.24354,-4.358634 3.99598,5.782388 13.66667,4.42049 18.00953,9.453655 42.28207,-4.045147 61.78957,9.585882 18.64319,10.799888 45.107,24.673902 61.13033,28.363072 -31.97145,-11.407695 20.88024,-27.896775 34.4686,-24.809864 27.96661,6.884786 47.03538,21.592311 69.97126,36.890391 13.35799,15.776199 28.71959,45.475509 37.23055,74.964069 0.97925,17.10132 -1.33494,46.75217 -3.59069,68.23159 -5.41623,27.77721 -2.64836,55.60115 -12.62527,82.52646 11.32852,23.36445 -9.76081,45.41784 -0.1447,69.01188 -12.70001,28.63152 -1.48719,62.60613 -10.03247,91.13758 -14.72832,5.25937 -28.56379,12.7068 -42.28051,19.26879 z M 222.78761,433.13566 c -5.75938,-7.01234 -4.36392,8.11829 0,0 z m 137.9005,-8.9079 c 5.33366,-10.68634 -14.65625,4.46045 0,0 z M 355.5,408.49119 c 9.03405,-17.02298 -15.18756,2.24026 0,0 z M 135,401.89623 c -9.98787,-27.82032 -14.72215,-10.5361 0,0 z m 89.32604,-12.82166 c 13.16777,-10.70832 33.12169,-40.87119 6.3893,-38.07457 -21.4278,3.9735 -55.98339,20.07274 -25.21385,31.9953 -8.91572,4.74574 17.23231,10.35861 18.82455,6.07927 z M 158,380 c -6.41048,-8.22441 -4.02514,7.84301 0,0 z m 115.21841,-38.34128 c 7.44231,-14.42812 46.58476,-17.3363 38.32843,-39.50053 -22.0121,5.38978 -45.25166,16.24729 -66.36305,15.64349 -5.84754,15.35434 11.59001,31.20793 24.34975,27.82582 l 3.68487,-3.96878 0,0 z M 210.88049,338.5 c 10.82533,-9.71566 27.29259,-33.7896 24.86611,-34.765 2.52234,-19.60718 -7.26075,-16.34737 -6.2466,-4.29991 -19.23239,-0.47174 -57.72026,11.03741 -60.19704,28.62574 23.4125,-9.32149 20.45905,21.44349 41.57753,10.43917 z m 31.56128,-1.5 c 0.5293,-10.31049 -5.13541,14.56155 0,0 z m 75.81689,-10.0677 c 20.76548,-28.52797 -18.94808,6.31596 0,0 z m -72.66317,-12.08681 c -3.13978,-4.96087 -5.69779,-0.80752 0,0 z m 108.22809,-4.25721 c 11.23225,-37.94323 -31.24405,13.22031 0,0 z M 107.05771,295.9657 c -15.180464,-37.35095 7.14671,36.74441 0,0 z m 158.8211,2.00713 c 9.47021,-13.77737 63.01893,-35.56057 30.09942,-47.49939 -16.72273,11.31136 -54.92873,5.45578 -52.80356,20.64045 -13.66742,12.64247 10.53628,24.20868 19.10225,29.03848 l 3.60189,-2.17954 0,0 z m -71.02153,-8.39903 c 6.03298,-14.30512 55.52509,-39.09085 17.70915,-44.30423 -14.07138,0.8056 -72.90801,23.81075 -46.95256,31.63593 10.50492,-3.96383 11.67657,22.65562 29.24341,12.6683 z m -56.94648,-3.74047 c -6.73641,-5.97431 -4.49403,7.70169 0,0 z m 175.59168,-5.18318 c 16.20338,-30.98134 -24.82306,15.52669 0,0 z m 27.14854,-5.70757 c 6.9541,-6.03563 -10.877,3.48291 0,0 z m 10.51896,-7.97307 c 29.5251,-20.9434 -32.94314,-33.84238 -12.9131,-0.31498 l 6.44774,1.15514 6.46536,-0.84016 0,0 z M 232.44256,248.14804 c -1.98912,-24.89314 -11.61906,-9.3793 1.03004,3.69903 l -1.03004,-3.69903 0,0 z m 21.90745,-4.00764 c -13.56538,-25.81163 42.11153,-8.45396 43.06531,-35.69845 -17.19111,-20.21747 -67.49077,2.91669 -63.05719,23.55805 4.34771,4.02787 11.23969,22.95706 19.99188,12.1404 z m -68.79625,-8.33011 c 8.19043,-17.38166 54.66537,-43.40666 9.70808,-43.90084 4.8475,-17.70736 64.61305,-22.02393 23.47536,-35.69453 -30.77095,-10.37251 -44.09012,22.62844 -57.35717,44.47743 5.9675,7.78549 -42.02249,35.722 -11.69791,22.87194 28.63071,-20.70022 4.60476,27.67778 35.87164,12.246 z m 188.87323,-4.69216 c -7.1261,-8.22022 -15.57049,0.0696 0,0 z m -69.89487,-1.5671 c 10.61048,-12.15025 -19.2099,4.03388 0,0 z M 338,225.07143 c -6.92542,-11.43551 -10.30281,4.39985 0,0 z m 15.28819,-10.34448 c 8.60337,-23.40445 -38.96398,-27.05996 -24.81456,-0.9249 7.97213,2.68917 16.66225,4.43315 24.81456,0.9249 z M 158.6829,194.49573 c 20.60514,-24.95245 38.1913,-55.77218 35.76589,-89.15436 4.25368,19.04189 -8.68559,45.29189 22.49364,39.43926 20.51143,11.22182 51.76045,19.48286 69.95614,-3.26349 21.87724,-19.53055 -8.41226,-53.340086 -27.81645,-58.228185 -14.78993,-17.04628 -47.94684,-16.555815 -68.99167,-11.210964 1.72988,23.671962 -27.35654,-30.499723 -12.23904,-3.306537 22.89814,33.448196 14.34167,78.284156 -9.02126,109.150726 -3.17453,8.15995 -30.42926,36.79345 -10.14725,16.57355 z m 108.66943,-54.4565 c -6.20316,-5.7325 10.37771,-13.44427 -2.98002,-17.7496 10.35094,-2.2375 22.38681,23.94294 2.98002,17.7496 z M 275,102.05902 c 3.12314,-7.142836 1.73489,5.80988 0,0 z m 13,66.83399 c -4.6637,-4.83935 -4.96527,6.87039 0,0 z m 54.89856,-1.49914 c -12.51638,-27.22828 -23.56854,0.43079 0,0 z M 363.70805,150 c 2.02748,-27.81388 -26.85433,-56.061538 -52.28529,-59.981484 -12.96837,4.990137 -0.78598,35.508074 4.47385,38.545294 5.34599,14.51615 33.91259,27.98127 47.81144,21.43619 z m 24.51719,-6.10151 c -12.12863,-15.00228 -9.24937,11.79168 0,0 z M 320.78043,85.057532 c 15.26024,-7.79283 -38.3835,6.892166 -5.81163,1.836343 l 5.81163,-1.836343 z M 151,39 c -3.90318,-3.653135 -3.90318,3.653135 0,0 z"
       id="path6454"
       inkscape:connector-curvature="0" />
    <path
       style="fill:#562d22"
       d="m 339.65665,490.90849 c -28.43879,-8.50496 -64.75066,-15.33202 -87.40665,-28.39907 17.6196,9.34929 26.71217,-13.26075 29.0644,-25.21902 8.30239,-14.30787 25.65351,-15.02744 33.48221,-31.2904 13.91646,-9.64197 23.24538,-34.23061 37.70339,-34.38014 11.72793,-20.95893 -28.73143,-28.79858 -44.17378,-14.51635 -20.85661,15.14615 -71.66937,20.66704 -65.62929,-16.15994 1.41296,6.94889 31.27162,19.09649 40.32282,-2.8269 17.67474,-7.06975 37.5709,-29.5347 21.47805,1.43615 4.51419,22.86431 45.53752,-21.24618 17.0308,-29.95629 -12.37417,-22.07126 -47.97939,13.31103 -70.2786,6.73984 -21.24805,-5.79334 -18.38618,-32.47038 3.90063,-14.18912 13.8242,8.28537 55.15947,-47.23435 43.00155,-8.39712 35.93786,5.16687 20.71652,-50.77701 -3.28076,-43.77053 -15.81464,6.52222 -64.11011,24.15464 -58.23945,-4.9796 21.22216,20.11286 20.60722,-14.30746 34.38277,-9.75 17.37375,-6.34058 47.91264,-35.04491 11.84824,-36.78684 -32.66802,-0.0901 -49.53031,26.5791 -69.47547,45.46492 -21.48235,9.77864 -80.58974,15.37376 -61.25683,47.46577 17.46376,-22.01082 21.87185,12.34084 44.27647,1.83448 14.07493,-9.58505 46.67332,-58.78066 40.81434,-15.53456 -12.58424,29.66548 -52.65183,25.86464 -75.1523,45.38845 -12.41666,20.68261 14.64555,8.55862 21.34096,9.942 13.96056,29.80464 39.80072,-7.2734 58.49428,-11.80839 9.10891,24.87386 -29.31281,35.25696 -48.43508,43.76374 -20.77665,5.7222 -7.32946,20.79171 1.47916,15.72495 6.40176,15.09718 38.68581,18.3163 50.80149,-1.71983 3.94611,-25.61622 18.46756,20.08576 -7.37776,19.92323 -13.79653,11.79188 -36.21296,17.66031 -42.80023,30.76059 1.94889,18.90502 22.4038,2.20717 31.88115,20.87102 34.37094,18.26758 -20.3326,-4.43424 -32.68601,-9.60813 -13.56933,4.95284 -42.63231,-9.41157 -29.2062,-27.54763 -15.14427,-5.77736 -35.99139,2.19802 -44.99159,5.04617 -12.29694,0.30442 -0.3493,-14.34451 -10.70127,-11.99531 -5.74568,-13.76865 9.00974,-16.74946 4.50219,-33.29125 C 112.06844,359.68036 113.30392,338.3754 105.81017,321 110.6136,311.44302 76.620064,306.0278 94.91224,291.15919 104.894,278.24113 107.60009,322.102 107.66154,296.74565 94.347674,272.59678 92.053956,243.82346 87.059052,217.83232 88.329591,191.43613 91.404069,162.50404 88.750934,137.41274 88.174691,105.79715 100.46413,69.531399 128,51.535393 c -18.20472,1.902396 12.34147,-13.837741 16.49838,-18.592464 13.1386,-3.093585 19.5656,2.904875 3.13394,5.572854 15.55234,1.249255 36.97311,3.488809 56.59848,3.122628 36.47736,6.254523 11.35595,27.07144 -12.97883,21.129171 -7.81422,16.340478 -46.87883,-28.212355 -24.32786,-5.068318 33.91513,29.763091 29.034,83.284786 3.33642,116.689366 -5.69385,16.22125 -44.09625,46.00836 -41.04128,44.97554 23.40348,-11.77912 40.08562,-34.04831 53.04427,-57.33911 7.24156,-9.63026 16.44262,-50.51539 10.21844,-17.63566 -10.81231,25.67229 -26.19107,51.82189 -45.30109,71.17688 -27.22143,5.52893 -20.8088,32.27829 -0.33969,18.35371 14.37484,-23.06067 14.03803,15.7075 33.40882,12.20858 6.47263,6.37028 26.11779,-35.14024 38.59628,-42.72357 4.46231,-13.57347 -38.80405,-11.75804 -6.01943,-19.89229 11.63036,-4.79144 33.84451,-10.7599 32.78603,-20.00947 19.51616,-1.54834 44.23616,-10.29983 24.23741,15.65426 12.20707,29.09703 35.11649,-19.1857 18.74653,-26.59774 20.74066,-19.70109 9.73665,-44.183 1.27129,-64.525101 -10.96566,-7.393514 -30.2046,-19.925254 -5.1489,-10.394117 -19.2249,-8.084332 -20.13063,-15.837171 2.53206,-20.66795 20.36814,-15.614075 54.28301,-0.102241 69.60945,13.563008 31.49797,10.353081 43.45084,41.60128 57.11326,68.90471 11.29385,21.38753 9.3772,52.66561 5.39377,77.72427 -2.05737,32.84941 -5.19492,64.07548 -13.0336,95.783 4.02358,28.59476 -0.0559,58.27222 -6.58377,84.46862 -6.10195,25.08529 11.92048,66.79835 -13.48988,79.96111 -16.7958,4.02865 -28.02422,19.44493 -46.60385,13.53118 z m -4.02843,-8.70102 c -1.5517,-18.41866 -8.47206,-6.91254 -1.03782,0.79253 l 1.03782,-0.79253 z M 358.98469,473.75 c -2.03056,-11.21631 -8.99587,6.05249 0,0 z m -15.66091,-8.34864 c -4.80373,-3.55606 -0.87692,8.53957 0,0 z M 379,467.05902 c -2.73716,-5.63079 -3.59052,3.27029 0,0 z m -38,-8.28264 c -6.55433,-2.35105 -5.40085,5.08941 0,0 z m 9.62463,-2.28958 c 14.16328,0.33178 12.2789,-18.03964 23.30124,-10.51008 3.40142,-8.0044 -0.22941,-15.26203 2.13756,-21.97672 -9.64004,-14.8514 13.01692,-14.84567 -7.78662,-26.18462 12.97023,-22.5527 -34.05567,-32.88189 -26.56685,-3.5233 1.45387,18.11434 -5.28018,46.40104 7.83099,47.4008 3.87456,4.93663 -16.62947,22.69354 1.08368,14.79392 l 0,0 z m 1.88545,-18.47049 c -9.50048,-7.20356 2.33877,-28.06751 2.07015,-11.96778 14.93578,19.90074 4.33248,-19.06862 5.16977,-10.32433 16.13315,-3.85944 15.32984,19.72499 -1.45048,22.1018 l -4.00906,0.49447 -1.7804,-0.30416 2e-5,0 z M 360,427.214 c 3.53741,-9.0732 3.31965,4.91013 0,0 z m -0.75,-25.94238 c -6.00706,-8.41843 13.54743,3.07197 0,0 z m -9.80385,-1.35875 c 1.38871,-6.72974 15.19044,4.43833 0,0 z m 43.29389,55.63513 c -6.46155,-3.02353 3.11169,5.09974 0,0 z M 132.73684,408.75 c 7.45426,-19.72102 -19.40191,-28.06994 -2.56278,-9.99112 11.68317,1.82325 -7.8299,15.05857 2.56278,9.99112 z m 25.18923,-26.61186 c 0.18356,-15.33415 -11.64924,7.66526 0,0 z M 250,383 c -3.90318,-3.65313 -3.90318,3.65313 0,0 z m 123.97991,-62.60212 c -9.75627,-14.44957 -14.37088,-8.34836 -21.19947,-25.31616 -21.80487,6.40856 -18.01114,30.77 5.76289,20.58691 1.80872,13.63462 7.50782,20.99399 15.43658,4.72925 z M 338,300.8 c -1.59346,-5.36202 -1.39471,6.82554 0,0 z m -3.55625,-8.36844 c 13.73239,-11.60688 -9.19393,-4.99889 -1.37708,5.91726 l 1.37708,-5.91726 0,0 z m -196.06788,-3.6628 c -0.77552,-12.6177 -10.43399,7.32993 0,0 z M 146.21331,286 c -3.35373,-10.61487 -0.91117,11.02503 0,0 z m 234.93475,-0.86658 c -4.70854,-16.10658 -32.97906,-61.89571 -47.67735,-29.67621 -7.15983,35.12046 22.19208,7.40341 28.89629,16.64914 -6.0988,11.1929 16.44615,17.81859 18.78106,13.02707 z M 400.9682,274.25 c -4.59622,-12.82369 -3.53267,4.45824 0,0 z M 296.87523,237.51525 c 18.71944,5.81388 15.6246,-34.31867 -2.4457,-9.25301 -5.77531,4.36642 -9.36145,15.4603 2.4457,9.25301 z M 380.75407,235.75 c -1.53146,-24.97791 -36.40981,-6.44283 -11.15882,1.04946 3.27865,-1.73586 14.52828,9.20111 11.15882,-1.04946 z m -267.67652,-5.81772 c 30.53178,-15.1745 -29.529005,11.95627 0,0 z m 222.72953,-3.03553 c -1.29792,-9.74363 38.74833,-4.93409 17.92148,-25.53624 -20.8678,-31.07339 -39.67386,19.79852 -17.92148,25.53628 l 0,-4e-5 z m 68.93443,-3.30972 c -6.32623,-27.02523 -5.9224,16.85691 0,0 z M 377,199.10699 c -4.35333,-5.47127 -10.75026,0.61353 0,0 z M 386.59511,195.5 c -7.04642,-2.7538 7.79207,-28.62018 -13.31767,-29.34143 -5.34791,22.08521 1.02861,19.63169 11.65107,33.2153 l 1.6666,-3.87387 0,0 z m -38.37702,-21.75 c -8.21081,-24.34244 8.48141,-13.61535 21.39363,-12.87526 -3.00956,-16.44859 17.17222,-4.223 0.82595,-21.1532 -0.0631,-16.66934 -9.55863,-26.53753 -20.60253,-34.72154 -12.63468,-16.140344 -61.74267,-28.033071 -43.92933,7.3312 7.77807,28.85895 6.36103,11.48927 10.54486,20.6688 7.97356,13.8214 11.28812,41.56259 31.76742,40.75 z M 389,147.5 c -3.23773,-23.56273 -20.46764,6.51827 0,0 z M 319.62208,86.442111 c 38.93122,-16.961194 -46.89355,7.128222 -5.30574,1.317228 l 5.30574,-1.317228 0,0 z M 195.6438,47.505911 c -2.15892,-7.144003 -1.66015,8.42837 0,0 z m 8.57055,-1.267795 c -8.95647,0.205343 -0.13102,4.843505 0,0 z M 173,45 c -6.95182,-3.981592 -5.71925,3.138383 0,0 z m 93.25,93.33772 c 5.59166,2.3098 3.94349,-10.87913 7.71482,-8.40346 3.61056,5.86956 -1.71595,11.26905 -7.71482,8.40346 z M 226,55.5 c 1.43922,-5.305557 6.57653,0.40236 0,0 z"
       id="path6452"
       inkscape:connector-curvature="0" />
    <path
       style="fill:#201310"
       d="m 322.08571,486.35299 c -23.68689,-12.95398 11.27595,-5.10065 14.41429,0.8817 4.16433,-24.86087 27.03363,6.352 29.36112,-18.49358 20.9683,8.88008 10.49205,-6.18025 19.39601,-14.6307 14.6723,15.13638 10.17529,-27.02887 14.44732,6.45876 -6.78764,25.75696 -46.33925,29.48416 -70.02559,28.42873 l -3.37875,-0.94104 -4.2144,-1.70391 0,4e-5 z M 289,477.35319 c -23.85817,-6.00374 -1.16532,-15.73559 5.09272,-18.66131 -14.21673,-24.35736 16.82479,-16.48873 22.22288,-29.59297 9.40326,-6.75729 14.71298,1.11208 6.96439,2.6606 19.74362,14.69335 -28.84448,22.20804 -26.73515,45.68824 l -2.79486,0.4733 -4.75,-0.56786 2e-5,0 z m -21.5,-7.81117 c -13.54905,-5.16862 20.02899,2.84824 0,0 z m -99.74788,-36.45418 c -10.65646,-8.21281 10.93794,-25.36617 3.05932,-5.08784 7.07145,-16.67276 23.53537,-19.61109 34.01363,-16.75 1.23304,-11.18999 -35.75774,-6.97908 -18.47695,-18.91721 20.54484,-8.83543 21.17765,21.05909 33.87413,16.97412 -15.82491,8.68788 -41.6419,17.75502 -52.47013,23.78093 z M 189.8,416.8 c 3.70128,-10.79599 -10.60671,4.72541 0,0 z m 196.43511,17.36647 c 0.71788,-18.18095 -9.09643,-49.63399 -4.73843,-60.17185 15.35618,-0.66502 -44.83189,-26.86277 -21.24668,-27.19771 -16.58473,-13.86646 27.74133,5.01258 22.43745,12.97344 14.97803,12.09363 -4.33619,-17.03035 -0.0629,-24.8843 5.18507,-24.50716 8.67898,-0.49036 11.00211,15.54624 -2.80973,-21.8074 21.54986,-26.8334 5.09737,-4.94221 4.11377,10.26005 -15.56484,15.81186 -4.7291,33.48118 4.0441,-18.21751 5.27371,-26.86427 10.02953,-3.91314 0.36107,18.74193 -10.6615,23.62046 -16.39599,5.79383 5.98257,13.34011 15.42565,47.77116 -1.39341,53.31452 z M 115.49904,417.99696 c 2.74875,-10.41993 8.36926,6.42985 0,0 z M 125.28975,415 c -17.28251,-0.46889 -15.58631,-32.63362 0.26887,-23.03894 2.70046,3.37003 13.30033,26.823 -0.26887,23.03894 z m -15.28402,-8.48265 c -4.39883,-21.95374 7.52033,11.61079 0,0 z m 24.63573,-0.60272 C 121.97813,378.16773 113.14684,345.87041 108.2686,313.80488 115.8354,296.07123 81.081538,253.11731 101,248.91667 c 17.10236,11.65141 35.73846,-6.93823 47.25,13.16731 24.86329,-0.42524 -27.9392,20.21568 -35.21957,16.54523 -20.307797,24.73455 42.93235,-19.06829 30.03819,14.97683 -20.22759,1.59619 -17.34116,17.38484 0.49675,10.4176 22.41083,-2.17946 10.72692,18.60066 33.52995,6.64787 -4.78667,5.16834 -39.32689,24.16831 -52.30989,16.52086 3.53019,27.43527 32.12646,16.41657 44.93929,20.73074 14.60338,-9.71463 28.88755,8.46775 23.96241,8.98976 16.21076,6.91542 -32.53098,12.4043 -29.1268,31.04294 -13.17672,1.6307 -19.93677,29.40708 -29.91887,17.95882 z m 23.8039,-23.63283 c -2.49463,-17.77554 -11.51785,8.56196 0,0 z M 167,380.45034 c -7.62088,-17.48033 -5.03739,0.13321 0,0 z m -29.01078,-89.93735 c 3.25805,-16.54661 -14.93555,2.7334 0,0 z m 121.56518,77.29745 c -25.53119,-15.34025 2.06173,-17.29855 6.78529,-3.41571 0.76609,3.1175 -4.68276,5.97937 -6.78529,3.41571 z m 15.7306,-2.27689 c -13.0026,-1.11748 21.21436,-31.86362 13.89357,-16.52575 -10.89311,14.71674 50.28572,-8.18629 16.06919,7.97762 -8.34836,1.99124 -24.9819,11.18378 -29.96276,8.54813 z M 217.63837,350.5 c 7.73469,-10.50228 19.54403,-13.97409 19.49366,-17.25 10.48228,-3.29571 -13.29446,26.52313 -19.49366,17.25 z m 110.49086,-7.16966 c 2.85115,-16.50624 15.58358,-26.10683 7.62077,-3.29223 2.49753,3.27723 -11.63815,7.66255 -7.62077,3.29223 z m 19.9414,-2.59508 c -15.18351,-7.9348 17.89234,-11.67454 0,0 z m 44.59604,-11.40193 c -5.59588,-13.75745 -30.30544,-36.09025 -4.18115,-17.47987 14.4443,-14.52255 2.33643,14.36214 4.18115,17.47987 z m -145.94492,-16.2237 c -22.6196,-21.5786 22.78725,-0.62839 3.2336,1.0635 l -3.2336,-1.0635 0,0 z m 20.89803,0.17682 c 5.97192,-12.34804 24.54873,-3.27962 0,0 z M 101.36163,311.5 c -13.545502,4.32925 -10.320858,-32.75057 3.60613,-9.02427 8.02547,0.85745 -4.03654,14.60851 -3.60613,9.02427 z M 402.2,307.8 c -18.09477,-8.85998 16.81091,-44.98813 6.93738,-17.8752 -10.55967,5.14434 -1.28964,16.6255 -6.93738,17.8752 z m -13.95,-2.46228 c -4.74757,-17.12311 10.49579,-30.83396 4.69002,-3.45796 0.59894,2.42249 -2.37622,5.53242 -4.69002,3.45796 z m -22,-4.45277 c -11.17593,-8.56422 12.06945,6.62941 0,0 z m -2.17907,-4.91362 c -15.50182,1.25092 -25.97015,-23.23228 -9.68775,-4.58537 6.46587,-2.72111 25.6469,13.6335 9.68775,4.58537 z M 324,297 c -16.21377,-4.93218 20.76561,-26.21353 3.21567,-2.67704 C 329.33943,291.95641 323.76615,300.43321 324,297 z m 68.03291,-24.32977 c -1.96656,-8.00588 -25.39592,-19.66324 -7.58579,-15.75878 4.64914,-10.71467 9.57388,-33.07996 10.53976,-5.41145 6.5895,1.44897 -3.49289,-38.35587 -20.33681,-43.00637 -6.6357,-5.74791 21.56539,6.04146 15.25924,-13.00946 7.67275,-8.91984 32.18192,-45.02739 16.79802,-16.91505 5.27343,7.42501 18.10369,35.44196 -1.56401,35.40123 -21.99271,0.68965 0.32416,53.58017 7.41712,14.93663 2.86832,-17.62598 7.95767,34.31829 -5.68544,23.09302 16.88541,26.54265 -16.15455,-12.3572 -11.63228,16.69219 -0.59432,5.3303 -0.0605,12.60782 -3.20981,3.97804 z M 260,257.45819 c 4.40757,-9.5391 9.20133,1.79357 0,0 z m 4.12188,-6.3617 c -2.95145,-10.47446 9.06981,4.08421 0,0 z M 271,245 c 7.08619,-3.05707 -1.78725,3.54757 0,0 z m 45,-1.57946 c -14.92284,-1.94469 14.58228,-20.13997 9.98469,-28.42054 4.1864,8.29838 -4.37096,28.02903 -9.98469,28.42054 z M 92.75,241.91173 c 0.914691,-11.86444 43.4874,-14.1781 53.68702,-32.51308 14.49927,-13.16913 16.24226,-11.93564 1.13678,2.24292 -15.11082,14.00487 -36.70299,23.12957 -54.8238,30.27016 z m 249.29814,-4.44348 c -6.80275,-10.06235 19.11961,11.79193 0,0 z M 388,229.43132 c 2.08787,-12.86994 2.57172,13.15743 0,0 z m -295.467709,0.25831 c -9.032039,-33.91839 -0.0097,-70.84724 -2.969578,-105.90473 4.294396,-27.752362 15.189397,-58.736832 41.194347,-72.998353 -27.44855,-2.699796 13.28759,-5.058766 12.61125,-3.65455 45.65182,9.850923 58.73185,70.433773 37.73572,107.415993 -2.91071,18.48113 -32.39409,29.77219 -23.3702,36.73318 -15.83641,20.09137 -39.2789,35.2612 -64.053621,40.00017 l -1.147918,-1.5917 0,-1e-5 z M 411.55988,220.25 c 0.74078,-19.02838 3.21586,14.22148 0.65622,2.75 l -0.65622,-2.75 0,0 z m 6.06947,-11.5 c 3.20617,-13.98978 -2.72274,-62.02968 0.88928,-52.57048 2.64441,11.86378 3.65401,59.56422 -0.88928,52.57048 z m -181.483,-8.88726 c -32.71448,0.6799 8.27264,-29.23286 15.34666,-8.22948 -6.78194,-1.39438 -8.75677,13.20995 -15.34666,8.22948 z M 358.2,198.8 c -15.92787,-12.31581 7.20394,-16.38397 5.23574,-29.4066 7.35566,6.71115 -6.0344,29.24013 -5.23574,29.4066 z m -65.95,-5.54954 c 2.21289,-10.42449 13.88657,-39.84684 25.95698,-49.9498 2.69591,16.44442 -13.99925,42.16984 -12.95698,49.20677 l -7.25,0.55639 -5.75,0.18664 0,0 z m 25.93939,-3.40801 c 1.53312,-12.7305 15.97992,-2.02711 6.81109,2.59853 -1.05673,3.40552 -7.79889,1.01155 -6.81109,-2.59853 z m 71.31616,-38.84858 c 12.86352,-7.86551 -8.29756,9.77991 0,0 z M 294.03777,86.959359 c -6.45736,-8.375501 21.00195,11.009602 0,0 z m 3.01951,-2.390347 c -15.00447,-10.06249 -44.0348,-21.272658 -8.88925,-27.181907 10.78472,-11.114185 54.20186,-8.268662 46.07877,16.6619 -8.62192,9.329056 -25.35331,13.233206 -37.18952,10.520007 z M 334.38869,78.75 c 18.27824,-14.936213 -14.77785,18.299117 0,0 z M 350.75,67.428025 c -10.96102,-11.369973 15.55596,6.577924 0,0 z M 175.54271,46.069098 c 6.96361,-7.190546 15.61065,0.01752 1.26808,0.847494 l -1.26808,-0.847494 z M 142.75,45.310674 c 6.80154,-6.628634 -15.66932,-5.334754 3.72486,-11.269997 13.8062,-6.080366 -11.81881,12.731319 9.00586,4.326741 21.31835,-0.349294 -9.10736,8.857812 -12.73072,6.943256 z M 133,43.059017 c 0.47537,-8.932865 10.28993,9.586329 0,0 z m 23.25,-8.76475 c -7.93913,-4.72437 9.1887,1.99213 0,0 z"
       id="path6450"
       inkscape:connector-curvature="0" />
  </g>
</svg>
