<?xml version="1.0" encoding="UTF-8" standalone="no"?>
<svg
   xmlns:dc="http://purl.org/dc/elements/1.1/"
   xmlns:cc="http://creativecommons.org/ns#"
   xmlns:rdf="http://www.w3.org/1999/02/22-rdf-syntax-ns#"
   xmlns:svg="http://www.w3.org/2000/svg"
   xmlns="http://www.w3.org/2000/svg"
   xmlns:sodipodi="http://sodipodi.sourceforge.net/DTD/sodipodi-0.dtd"
   xmlns:inkscape="http://www.inkscape.org/namespaces/inkscape"
   inkscape:export-ydpi="12.832031"
   inkscape:export-xdpi="12.832031"
   inkscape:export-filename="C:\Users\Chris\Documents\GitHub\bot-game\assets\minimum_tolerances.png"
   viewBox="0 0 512 512"
   id="svg2"
   version="1.1"
   inkscape:version="0.48.4 r9939"
   width="100%"
   height="100%"
   sodipodi:docname="electricians_gloves.svg">
  <sodipodi:namedview
     pagecolor="#ffffff"
     bordercolor="#666666"
     borderopacity="1"
     objecttolerance="10"
     gridtolerance="10"
     guidetolerance="10"
     inkscape:pageopacity="0"
     inkscape:pageshadow="2"
     inkscape:window-width="1158"
     inkscape:window-height="1254"
     id="namedview44"
     showgrid="false"
     inkscape:zoom="0.96950968"
     inkscape:cx="291.97161"
     inkscape:cy="58.480175"
     inkscape:window-x="1233"
     inkscape:window-y="126"
     inkscape:window-maximized="0"
     inkscape:current-layer="svg2" />
  <metadata
     id="metadata48">
    <rdf:RDF>
      <cc:Work
         rdf:about="">
        <dc:format>image/svg+xml</dc:format>
        <dc:type
           rdf:resource="http://purl.org/dc/dcmitype/StillImage" />
        <dc:title></dc:title>
      </cc:Work>
    </rdf:RDF>
  </metadata>
  <defs
     id="defs46">
    <linearGradient
       id="linearGradient3926">
      <stop
         id="stop3928"
         offset="0"
         style="stop-color:#ffffff;stop-opacity:0;" />
      <stop
         style="stop-color:#ffffff;stop-opacity:0.49803922;"
         offset="0.5"
         id="stop3934" />
      <stop
         id="stop3930"
         offset="1"
         style="stop-color:#ffffff;stop-opacity:0;" />
    </linearGradient>
    <filter
       id="filter3108"
       x="0"
       y="0"
       width="1"
       height="1"
       inkscape:label="Lightness-Contrast"
       inkscape:menu="Color"
       inkscape:menu-tooltip="Increase or decrease lightness and contrast"
       color-interpolation-filters="sRGB">
      <feFlood
         id="feFlood3110"
         result="result1"
         flood-opacity="1"
         flood-color="rgb(0,0,0)" />
      <feBlend
         id="feBlend3112"
         in2="SourceGraphic"
         mode="normal"
         result="result2" />
      <feComposite
         id="feComposite3114"
         in2="SourceGraphic"
         k2="1"
         operator="arithmetic"
         result="result3" />
      <feComposite
         id="feComposite3116"
         in2="SourceGraphic"
         operator="in" />
    </filter>
    <filter
       id="filter7264"
       inkscape:label="Fluorescence"
       inkscape:menu="Color"
       inkscape:menu-tooltip="Oversaturate colors which can be fluorescent in real world"
       x="0"
       y="0"
       width="1"
       height="1"
       color-interpolation-filters="sRGB">
      <feColorMatrix
         id="feColorMatrix7266"
         type="hueRotate"
         values="0" />
      <feColorMatrix
         id="feColorMatrix7268"
         type="saturate"
         values="1" />
      <feColorMatrix
         id="feColorMatrix7270"
         type="matrix"
         values="2 -1 0 0 0 0 2 -1 0 0 -1 0 2 0 0 0 0 0 1 0 " />
    </filter>
    <filter
       id="filter7746"
       inkscape:label="Fluorescence"
       inkscape:menu="Color"
       inkscape:menu-tooltip="Oversaturate colors which can be fluorescent in real world"
       x="0"
       y="0"
       width="1"
       height="1"
       color-interpolation-filters="sRGB">
      <feColorMatrix
         id="feColorMatrix7748"
         type="hueRotate"
         values="0" />
      <feColorMatrix
         id="feColorMatrix7750"
         type="saturate"
         values="1" />
      <feColorMatrix
         id="feColorMatrix7752"
         type="matrix"
         values="2 -1 0 0 0 0 2 -1 0 0 -1 0 2 0 0 0 0 0 1 0 " />
    </filter>
    <filter
       id="filter11635"
       inkscape:label="Fluorescence"
       inkscape:menu="Color"
       inkscape:menu-tooltip="Oversaturate colors which can be fluorescent in real world"
       x="0"
       y="0"
       width="1"
       height="1"
       color-interpolation-filters="sRGB">
      <feColorMatrix
         id="feColorMatrix11637"
         type="hueRotate"
         values="0" />
      <feColorMatrix
         id="feColorMatrix11639"
         type="saturate"
         values="1" />
      <feColorMatrix
         id="feColorMatrix11641"
         type="matrix"
         values="2 -1 0 0 0 0 2 -1 0 0 -1 0 2 0 0 0 0 0 1 0 " />
    </filter>
    <clipPath
       clipPathUnits="userSpaceOnUse"
       id="clipPath5731">
      <g
         transform="translate(-499.67984,900.72257)"
         id="g5733">
        <path
           sodipodi:nodetypes="csssssssscsssssscssssssssssssccssscccccsccssss"
           inkscape:connector-curvature="0"
           d="m 713.46932,336.19879 c -46.66846,-6.86515 -63.32187,-12.04474 -82.43996,-25.64069 -7.77372,-5.52834 -15.03553,-11.14129 -18.39792,-14.22052 -2.11083,-1.93307 -4.58583,-3.93035 -5.5,-4.43838 -5.84335,-3.24737 -21.16212,-23.53521 -21.16212,-28.02664 0,-0.85231 -0.3375,-1.55317 -0.75,-1.55746 -1.39551,-0.0145 -2.90294,-4.63228 -2.14427,-6.56859 0.73071,-1.86494 0.75825,-1.86261 0.90293,0.0764 0.0866,1.16054 0.36564,1.46123 0.66483,0.71638 0.61512,-1.53141 -1.53978,-4.41705 -2.74312,-3.67334 -0.46366,0.28655 -0.5612,1.25542 -0.21676,2.15303 0.38711,1.0088 0.22353,1.38311 -0.42838,0.98021 -0.9969,-0.61612 -1.63974,-2.89421 -2.94209,-10.42628 -0.30907,-1.7875 -0.93079,-3.25 -1.38159,-3.25 -1.5083,0 -4.35392,-11.40362 -5.1155,-20.5 -2.10576,-25.15144 -2.16477,-28.9906 -0.46721,-30.39944 0.89164,-0.74 1.61427,-1.85285 1.60585,-2.473 -0.008,-0.62016 -0.43396,-0.46559 -0.94563,0.34348 -1.49011,2.3562 -2.47835,0.28852 -1.2015,-2.51387 0.63934,-1.4032 1.16244,-4.39299 1.16244,-6.64398 0,-2.44744 0.59517,-4.53902 1.48053,-5.20295 0.8685,-0.65128 1.70847,-3.51394 2.03192,-6.92492 0.51015,-5.37977 2.10581,-9.68532 3.58942,-9.68532 0.34143,0 0.40573,-1.125 0.14288,-2.5 -0.27897,-1.45935 -0.0131,-2.5 0.63867,-2.5 0.61412,0 1.11658,0.9 1.11658,2 0,3.05353 1.46373,2.38454 2.73495,-1.25 2.73263,-7.81276 3.55467,-15.64994 2.41455,-23.01981 -3.44237,-22.25201 -1.57023,-46.135821 4.6943,-59.887301 1.1285,-2.47721 2.92498,-6.71925 3.99217,-9.42675 17.66648,-102.76194 365.27374,-164.419499 334.81752,122.010491 -7.79547,25.33126 -32.70829,60.14015 -49.15349,68.67863 -2.2,1.14226 -5.31489,3.49838 -6.92197,5.23581 -1.60708,1.73744 -3.18208,3.15898 -3.5,3.15898 -0.31792,0 -0.58155,0.59299 -0.58585,1.31776 -5.42674,18.0491 -23.8421,29.8395 -3.61467,11.08169 3.23208,-3.01114 3.82133,-1.56587 0.72364,1.77485 -12.76274,5.49516 4.65115,6.24035 -4.60119,11.58349 -3.4638,1.90975 -9.12315,7.28573 -8.41511,7.99376 0.32807,0.32808 -4.35653,5.11365 -11.68088,11.93265 -23.17357,21.57468 -85.54296,35.99675 -128.40401,29.69169 z m -130.5,-96.63534 c 0,-0.94984 -4.04141,-3.53247 -4.62092,-2.95297 -0.23439,0.23439 -0.14242,1.16557 0.20437,2.06929 0.61898,1.61304 4.41655,2.37287 4.41655,0.88368 z"
           style="fill:#ffffd4"
           id="path5735" />
      </g>
    </clipPath>
  </defs>
  <rect
     style="opacity:0.98999999;fill:#000000;fill-opacity:1;fill-rule:nonzero;stroke:none"
     id="rect3171"
     width="516.97894"
     height="524.13165"
     x="-0.48995453"
     y="-3.6633294" />
  <g
     id="g4909"
     transform="matrix(2.6603817,0,0,3.2404854,-306.03524,-1977.0785)">
    <path
       style="fill:#f1dca1"
       d="m 244.87333,744.6765 c -0.86576,-0.69491 -5.76155,-6.88848 -10.87952,-13.76348 -15.94833,-21.42348 -16.5109,-22.00368 -21.30861,-21.97614 -2.28628,0.0131 -5.95688,0.46516 -8.15688,1.00454 -2.2,0.53937 -9.4,1.39742 -16,1.90676 -6.6,0.50935 -14.90949,1.68317 -18.46552,2.6085 -7.57275,1.97052 -11.61473,2.13605 -18.74444,0.76764 -6.38661,-1.22579 -8.08476,-2.54645 -8.48224,-6.59673 -0.2712,-2.76354 -0.77411,-3.23268 -4.22949,-3.94557 -5.71163,-1.17837 -6.8786,-2.4935 -6.26592,-7.06141 0.40143,-2.99285 0.07,-4.32518 -1.45525,-5.85045 -2.65316,-2.65316 -2.17569,-7.90593 0.85516,-9.40775 2.02056,-1.00122 2.07473,-1.23379 0.625,-2.68352 -2.16261,-2.16261 -2.0058,-6.79838 0.2877,-8.50557 1.41702,-1.05477 3.21841,-1.19835 7.375,-0.58784 9.03702,1.32735 16.95529,0.77563 26.97896,-1.87979 l 9.47896,-2.51112 -4.97186,-3.39077 c -7.38428,-5.03603 -11.48606,-9.35376 -11.48606,-12.09078 0,-2.83958 1.70526,-4.8 4.17525,-4.8 1.49248,0 1.61988,-0.40864 0.79986,-2.56548 -1.65145,-4.34362 0.83852,-7.15018 5.77489,-6.50917 0.6875,0.0893 1.25,-0.4773 1.25,-1.25907 0,-2.31627 2.85053,-3.99596 6.54563,-3.85705 2.40695,0.0905 3.45437,-0.30873 3.45437,-1.31663 0,-0.79557 1.08778,-2.15924 2.41729,-3.03036 2.97063,-1.94643 8.61784,-0.71584 14.97384,3.26298 7.57975,4.74489 20.24002,15.28938 25.0589,20.87106 3.4944,4.04755 5.2145,5.34066 6.41264,4.82079 3.69174,-1.60186 27.4233,-9.41707 28.59572,-9.41707 0.69639,0 3.1829,4.8375 5.52557,10.75 2.34266,5.9125 6.69823,14.79574 9.67903,19.74053 2.98081,4.9448 5.64709,9.8948 5.92507,11 0.27799,1.10521 3.18439,3.67752 6.45869,5.71626 3.45741,2.15276 5.95325,4.41476 5.95325,5.39549 0,1.3952 -43.66246,45.32171 -45.88372,46.1612 -0.38343,0.14491 -1.40551,-0.30509 -2.27127,-1 z"
       id="path4927"
       inkscape:connector-curvature="0" />
    <path
       style="fill:#f5d05c"
       d="m 236.66691,732.66302 c -5.28392,-6.7375 -11.97671,-15.28289 -14.87286,-18.98975 -6.06331,-7.76059 -5.74335,-7.6834 -19.66752,-4.74458 -5.17098,1.09138 -11.92098,1.99243 -15,2.00232 -3.07902,0.01 -10.32321,1.12201 -16.09821,2.47136 -10.75491,2.51293 -18.17062,2.60712 -24.25,0.30801 -2.72654,-1.03113 -3.24084,-2.20537 -2.86768,-6.54736 0.14361,-1.67096 -0.33933,-2.25 -1.87659,-2.25 -3.51166,0 -8.77919,-2.71087 -9.46477,-4.87094 -0.35847,-1.12943 -0.17365,-2.94688 0.41071,-4.03876 0.86627,-1.61864 0.59951,-2.44822 -1.4446,-4.49232 -1.37889,-1.37889 -2.50707,-3.35778 -2.50707,-4.39754 0,-2.12688 2.9569,-5.20044 5.00305,-5.20044 0.88872,0 0.60734,-0.78582 -0.82874,-2.31445 -1.19587,-1.27295 -2.17431,-3.20795 -2.17431,-4.3 0,-4.5308 3.67519,-5.28387 15.91885,-3.26188 6.07973,1.00405 7.38197,0.90748 12.23193,-0.90713 2.9853,-1.11694 7.66013,-2.35358 10.38851,-2.74808 8.31988,-1.20299 8.38055,-1.71489 0.83616,-7.05482 -8.47745,-6.00034 -9.42895,-7.13891 -9.12055,-10.91364 0.20061,-2.45541 0.7443,-3.05744 2.9951,-3.31642 2.78111,-0.32 3.58348,-1.55043 1.75,-2.68358 -1.38227,-0.85429 -1.2556,-4.84441 0.2,-6.3 0.66,-0.66 2.20468,-1.2 3.43261,-1.2 1.35349,0 2.48228,-0.78662 2.86665,-1.99768 0.69941,-2.20364 4.40504,-3.52212 7.57167,-2.69402 1.50833,0.39443 2.28086,-0.10339 2.96895,-1.91319 1.25932,-3.31226 3.44032,-3.94895 8.7044,-2.54102 6.98737,1.86884 23.00978,13.68129 31.52762,23.24361 l 5.57476,6.25835 15.28321,-5.17149 c 8.40576,-2.84432 15.60204,-4.83693 15.99173,-4.42803 0.38969,0.40891 2.57144,5.46847 4.84833,11.24347 2.27689,5.775 6.08708,13.65 8.46709,17.5 2.38001,3.85 5.25299,8.84101 6.38441,11.09114 1.43538,2.85463 3.73779,5.10973 7.61785,7.46128 3.0584,1.85359 5.56072,3.83512 5.56072,4.4034 0,1.07286 -45.02036,45.51337 -46.12714,45.53304 -0.34492,0.006 -4.95035,-5.50136 -10.23427,-12.23886 z M 179.4445,654.8204 c -1.04159,-1.15095 -2.79884,-2.5619 -3.90499,-3.13546 -1.36999,-0.71036 -1.05474,-0.0521 0.98881,2.06485 3.32081,3.44 5.92602,4.39644 2.91618,1.07061 z"
       id="path4925"
       inkscape:connector-curvature="0" />
    <path
       style="fill:#f5c10a"
       d="m 242.7612,739.5851 c -2.40731,-2.84465 -8.10841,-10.12208 -12.66913,-16.17208 -10.37566,-13.76381 -13.90835,-17.50463 -16.50992,-17.48264 -1.12961,0.01 -5.20383,0.6922 -9.05383,1.517 -3.85,0.82479 -11.07438,1.92949 -16.05418,2.45488 -4.97979,0.52538 -12.99816,1.89194 -17.8186,3.0368 -6.84579,1.62587 -10.33653,1.93195 -15.94583,1.3982 -9.54518,-0.90828 -10.98218,-1.72207 -10.48971,-5.94042 0.36626,-3.1373 0.17528,-3.37889 -3.15089,-3.98575 -6.89676,-1.25832 -10.29504,-5.84382 -6.86947,-9.26939 0.89509,-0.89509 0.54135,-1.66685 -1.5,-3.27258 -3.95336,-3.10971 -3.72157,-7.69402 0.46276,-9.15268 3.0643,-1.06823 3.08979,-1.12829 1.14497,-2.69798 -2.95112,-2.38191 -3.40042,-4.73399 -1.38073,-7.2282 1.73016,-2.13665 2.0659,-2.17625 8.89249,-1.04886 9.23002,1.5243 13.21132,1.47826 17.33707,-0.20048 1.85466,-0.75465 6.4152,-1.93166 10.13453,-2.61557 3.71933,-0.68391 6.98303,-1.60045 7.25268,-2.03675 0.53743,-0.86958 -2.74151,-3.77377 -9.71844,-8.60771 -4.87452,-3.37729 -6.77568,-7.48329 -4.65053,-10.04394 0.69529,-0.83777 2.23919,-1.29227 3.54306,-1.04302 2.74192,0.52416 2.75283,0.47452 0.74799,-3.40241 -1.85884,-3.5946 -0.61169,-5.8785 3.21003,-5.8785 1.64232,0 2.703,-0.79089 3.3528,-2.5 0.81583,-2.1458 1.57621,-2.5 5.36684,-2.5 3.87678,0 4.493,-0.30544 5.0438,-2.5 0.62352,-2.48431 1.76888,-2.92064 6.58174,-2.50736 5.97438,0.51301 21.7968,11.72244 32.24077,22.84105 l 6.73315,7.16808 4.26685,-1.52323 c 14.10825,-5.03651 26.09489,-8.53909 26.74558,-7.81525 0.41369,0.46019 2.18207,4.66171 3.92974,9.33671 1.74768,4.675 5.49727,12.53727 8.33243,17.47171 2.83516,4.93444 5.96342,10.64529 6.9517,12.69078 1.21796,2.52089 3.57052,4.77995 7.30213,7.01193 3.0279,1.81106 5.50527,3.82785 5.50527,4.48175 0,0.65391 -7.75599,8.76127 -17.23552,18.01637 -9.47954,9.2551 -19.57983,19.15489 -22.4451,21.99954 l -5.20958,5.17207 -4.37692,-5.17207 z m -60.73288,-83.18529 c 0,-0.72281 -9.30643,-7.51369 -9.72431,-7.09581 -0.66758,0.66758 8.12222,8.48113 8.95901,7.96397 0.42091,-0.26014 0.7653,-0.65081 0.7653,-0.86816 z"
       id="path4923"
       inkscape:connector-curvature="0" />
    <path
       style="fill:#f3b403"
       d="m 244.43675,740.15368 c -1.70037,-1.50736 -4.60935,-4.76566 -6.46442,-7.24066 -1.85506,-2.475 -7.389,-9.5625 -12.29764,-15.75 -10.00258,-12.60857 -9.25213,-12.26378 -21.14637,-9.71564 -3.85,0.82479 -11.07438,1.92949 -16.05418,2.45488 -4.97979,0.52538 -12.9829,1.88832 -17.78467,3.02874 -6.37993,1.51523 -10.40389,1.91085 -14.94583,1.4694 -9.87262,-0.95954 -10.71532,-1.26134 -10.71532,-3.83745 0,-2.88277 4.6497,-5.83476 5.92928,-3.76436 0.99392,1.6082 5.9873,1.17344 8.28784,-0.72158 0.94441,-0.77795 2.63146,-1.17534 3.749,-0.8831 1.11754,0.29224 2.28843,0.11626 2.60198,-0.39108 0.31355,-0.50734 0.93434,-0.69732 1.37954,-0.42217 0.44519,0.27514 2.10159,-0.12394 3.6809,-0.88685 1.5793,-0.76291 5.12146,-1.65213 7.87146,-1.97604 9.76424,-1.1501 12.18183,-2.02214 8.99566,-3.24479 -0.98482,-0.37791 -3.07228,-0.20333 -4.6388,0.38797 -1.83931,0.69426 -3.06269,0.72805 -3.45369,0.0954 -0.33301,-0.53882 -1.26046,-0.72834 -2.061,-0.42114 -0.83015,0.31856 -2.56032,-0.61888 -4.02685,-2.18183 -2.50647,-2.67124 -2.55278,-2.68045 -1.83619,-0.36513 0.47001,1.51859 0.36948,2.14924 -0.27874,1.74862 -0.59551,-0.36805 -0.81735,0.12491 -0.53761,1.19462 0.26195,1.00169 -0.11752,2.29187 -0.84326,2.86709 -1.93043,1.53004 -15.02958,4.24934 -18.41425,3.82267 -1.5979,-0.20143 -5.34561,-0.64901 -8.32824,-0.99462 -6.81456,-0.78964 -9.07703,-1.98722 -9.07703,-4.80468 0,-1.54206 0.9932,-2.66271 3.25,-3.66706 l 3.25,-1.44635 -3.24384,-0.6702 c -9.2041,-1.90163 -8.71166,-10.11704 0.56656,-9.45187 2.02251,0.145 2.43124,0.0686 0.9083,-0.16969 -1.52295,-0.23832 -2.54932,-0.78875 -2.28083,-1.22318 0.2685,-0.43442 -0.62296,-1.83371 -1.98101,-3.10953 -4.00329,-3.7609 -2.95449,-6.31469 3.03082,-7.37999 0.55,-0.0979 2.4625,0.41011 4.25,1.1289 2.59744,1.04447 3.26585,1.0532 3.32895,0.0435 0.0434,-0.69489 0.26947,-0.81342 0.50232,-0.26342 0.59662,1.40918 13.46706,1.18147 16.10299,-0.2849 1.20134,-0.6683 3.0657,-1.2151 4.14301,-1.2151 1.07731,0 2.20056,-0.63015 2.49611,-1.40034 0.29555,-0.77019 2.39327,-1.71389 4.66161,-2.09712 2.64005,-0.44604 4.01462,-1.1669 3.81963,-2.00311 -0.16754,-0.71847 -3.4294,-3.71226 -7.24857,-6.65287 -6.5249,-5.02391 -8.20243,-7.34656 -5.30605,-7.34656 0.6875,0 1.49318,-0.32395 1.7904,-0.71988 0.29722,-0.39593 2.77222,1.31809 5.5,3.80895 6.81891,6.22665 9.46388,7.91093 12.42317,7.91093 1.57673,0 2.43246,0.50108 2.26165,1.32433 -0.15112,0.72838 0.15528,1.05854 0.6809,0.73369 0.52563,-0.32486 1.24287,-0.12596 1.59388,0.44198 0.35101,0.56794 1.05195,0.77691 1.55764,0.46437 0.5057,-0.31253 0.66406,0.0973 0.35191,0.91073 -0.42205,1.09985 -0.0346,1.33961 1.51146,0.9353 1.18868,-0.31084 2.07899,-0.0655 2.07899,0.57297 0,0.61415 0.5625,1.00413 1.25,0.86663 0.6875,-0.1375 1.1429,0.2963 1.012,0.96401 -0.14675,0.74852 0.39544,0.97094 1.41404,0.58006 0.94437,-0.36239 1.39727,-0.22171 1.05728,0.32841 -0.58483,0.94627 1.21853,1.40702 6.37551,1.62891 1.98513,0.0854 2.49741,0.53836 2.14274,1.8946 -0.25635,0.98029 0.31654,2.56498 1.2731,3.52154 1.65226,1.65225 1.70434,1.62937 1.04187,-0.45788 -0.54075,-1.70374 -0.36001,-2.06763 0.80493,-1.6206 0.82623,0.31706 1.25751,1.21423 0.9584,1.99371 -0.49097,1.27944 1.34002,1.972 3.99446,1.51088 0.45338,-0.0788 0.55147,0.2983 0.21797,0.83791 -0.33349,0.53961 -1.26694,0.72761 -2.07433,0.41779 -0.80738,-0.30983 -1.46797,-0.12586 -1.46797,0.40881 0,1.70058 4.02523,6.16243 5.28679,5.86024 0.66726,-0.15983 0.87571,-0.10185 0.46321,0.12884 -1.37144,0.76698 -0.77439,2.03261 0.89237,1.89166 2.00403,-0.16947 2.64661,1.35233 1.40242,3.32135 -0.79315,1.25523 -1.1981,1.21099 -2.88446,-0.31515 -1.27895,-1.15742 -2.19091,-1.40463 -2.62007,-0.71023 -0.36206,0.58583 -0.18174,1.06514 0.40072,1.06514 0.58246,0 1.05902,0.71505 1.05902,1.58899 0,2.24381 7.17765,9.55682 8.77739,8.94294 0.72957,-0.27996 1.10489,-0.15048 0.83406,0.28774 -0.27083,0.43822 0.51129,2.05554 1.73806,3.59405 2.13628,2.67915 2.29214,2.71893 3.69048,0.94179 1.32847,-1.68834 1.30863,-1.73707 -0.22025,-0.54094 -1.4252,1.11501 -1.82918,1.03632 -2.66124,-0.51841 -0.53954,-1.00814 -1.29356,-3.49917 -1.6756,-5.53563 -0.61096,-3.25668 -0.3298,-4.06748 2.33431,-6.73159 3.08926,-3.08926 5.18279,-3.87997 5.18279,-1.95751 0,0.58928 -0.73342,1.80484 -1.62982,2.70124 -1.50642,1.50643 -1.37393,1.71598 1.75,2.76779 1.8589,0.62589 3.37982,1.77283 3.37982,2.54876 0,0.79566 1.19904,1.54875 2.75,1.7272 3.49355,0.40198 3.45445,1.13449 -0.25,4.68358 -3.60315,3.45204 -3.76316,4.5 -0.68709,4.5 3.16666,0 8.11604,-5.17105 6.49803,-6.78906 -0.9126,-0.9126 -0.6701,-1.73195 1.05655,-3.56989 1.85499,-1.97455 1.98206,-2.48481 0.73768,-2.96232 -0.96068,-0.36865 -1.32479,-0.11165 -1.00873,0.71198 0.61643,1.6064 -2.13229,4.01418 -3.56895,3.12628 -0.58306,-0.36035 -0.80122,-1.07409 -0.48478,-1.58609 0.31643,-0.51199 -0.16927,-0.9309 -1.07932,-0.9309 -0.91006,0 -2.99421,-0.95385 -4.63146,-2.11967 l -2.9768,-2.11968 2.78418,-2.90606 c 1.5313,-1.59833 3.32162,-2.69983 3.97848,-2.44776 1.52042,0.58344 4.55915,-2.71574 4.17393,-4.53167 -0.1844,-0.86925 0.44407,-1.27403 1.70828,-1.10026 1.83204,0.25181 1.85256,0.18439 0.24431,-0.80288 -1.46405,-0.89874 -2.58193,-0.21602 -6.72964,4.10996 -3.88324,4.05015 -5.10777,4.83898 -5.58423,3.59734 -0.63692,-1.65978 4.24642,-7.4175 5.85601,-6.90454 0.47422,0.15112 0.61984,-0.11739 0.32361,-0.59671 -0.87671,-1.41853 5.54951,-7.4185 6.70643,-6.26158 0.665,0.665 0.61309,1.46344 -0.15534,2.38934 -0.90009,1.08453 -0.70693,1.79526 0.87765,3.22928 1.11745,1.01129 1.8082,2.42121 1.535,3.13318 -0.58827,1.53298 3.46545,1.38943 4.75233,-0.16829 0.54345,-0.65782 0.98311,-0.62201 1.28489,0.10466 0.25231,0.60756 1.56805,0.8926 2.92387,0.63342 1.42968,-0.2733 2.46511,-0.002 2.46511,0.64534 0,0.61412 0.675,1.11658 1.5,1.11658 0.825,0 1.5,0.39752 1.5,0.88337 0,0.72558 1.96351,1.69576 5.02347,2.48211 0.28791,0.074 1.62211,1.15806 2.96489,2.40905 1.34278,1.25099 2.93951,2.08339 3.5483,1.84978 0.60878,-0.23361 1.64089,0.43035 2.29358,1.47547 0.65269,1.04512 2.07432,1.90022 3.15918,1.90022 1.2614,0 2.19504,0.88678 2.58986,2.45986 l 0.61739,2.45986 2.49056,-2.95986 c 2.23036,-2.65063 5.31277,-3.99599 5.31277,-2.31883 0,0.66177 -14.81789,15.41655 -23.4589,23.35897 l -4.8958,4.5 3.59541,-4.33427 c 3.38881,-4.08522 3.50116,-4.44435 1.95511,-6.25 -0.90217,-1.05365 -2.21015,-1.91573 -2.90663,-1.91573 -1.93634,0 -5.265,-3.21856 -4.57986,-4.42838 0.33379,-0.58939 -2.72676,2.07838 -6.80122,5.92838 l -7.40811,7 2.75,3.90004 c 1.5125,2.14502 2.75,5.08702 2.75,6.53777 0,1.45076 -1.2375,4.07904 -2.75,5.84063 l -2.75,3.20289 -3.09157,-2.74067 z m 5.47888,-20.43182 c 1.24923,-2.00033 1.09216,-2.43799 -1.80335,-5.02513 -2.33761,-2.08865 -3.60068,-2.59392 -4.80272,-1.92122 -1.92375,1.07658 -2.61842,4.13293 -0.94276,4.14785 0.63884,0.006 2.06152,1.10987 3.16152,2.45376 2.48137,3.03151 2.69873,3.04859 4.38731,0.34474 z m 5.11269,-6.25697 c 0,-2.3225 -4.70695,-5.77966 -6.91492,-5.07887 -2.97394,0.94389 -2.58117,2.99379 1.13015,5.89834 3.21586,2.51679 5.78477,2.15288 5.78477,-0.81947 z m 1.99329,-7.85577 c -2.98886,-2.79333 -3.18052,-2.83664 -5.05322,-1.14186 -1.91506,1.7331 -1.89513,1.80749 1.23235,4.5997 3.01285,2.68987 3.27678,2.74951 5.05322,1.14186 1.81879,-1.64598 1.78226,-1.7823 -1.23235,-4.5997 z m -18.97323,0.77973 c 1.51264,-1.82262 1.29743,-2.10706 -2.27211,-3.00295 -2.14414,-0.53815 -2.74795,-0.33628 -2.74795,0.91871 0,0.88463 0.47656,1.60841 1.05902,1.60841 0.58246,0 0.7809,0.45 0.44098,1 -0.99659,1.61252 2.1336,1.14641 3.52006,-0.52417 z m -7.65068,-3.14025 c -0.5296,-2.11009 -0.35866,-2.54544 0.82163,-2.09253 0.8197,0.31455 2.06201,0.21861 2.7607,-0.2132 0.80247,-0.49596 -0.0596,-0.94038 -2.34069,-1.20668 -3.92187,-0.45786 -4.09357,-0.22258 -2.63577,3.61173 1.28113,3.36963 2.2475,3.30079 1.39413,-0.0993 z m 28.99225,1.16442 c -0.31659,-0.825 -0.97746,-1.5 -1.46862,-1.5 -0.49115,0 -0.89301,-0.70156 -0.89301,-1.55902 0,-0.85746 -0.48384,-1.25998 -1.07521,-0.8945 -0.68793,0.42516 -0.26496,1.52698 1.17432,3.05902 2.61624,2.78486 3.05439,2.95808 2.26252,0.8945 z m -116.17413,-8.18311 c -0.72188,-0.28888 -1.58438,-0.25335 -1.91667,0.0789 -0.33229,0.33229 0.25834,0.56864 1.3125,0.52522 1.16495,-0.048 1.4019,-0.28495 0.60417,-0.60417 z m 18.8125,-2.31689 c 0.825,-0.53316 1.05,-0.96937 0.5,-0.96937 -0.55,0 -1.675,0.43621 -2.5,0.96937 -0.825,0.53316 -1.05,0.96937 -0.5,0.96937 0.55,0 1.675,-0.43621 2.5,-0.96937 z m 85.36869,-3.21247 c -0.31198,-0.5048 -1.43321,-0.13413 -2.4916,0.8237 -1.47699,1.33666 -1.62827,1.92866 -0.65072,2.54649 1.43978,0.90997 4.05446,-1.89431 3.14232,-3.37019 z m 5.89385,2.82825 c -0.33617,-0.54393 0.12629,-0.68055 1.07342,-0.3171 0.91522,0.3512 1.66404,0.25082 1.66404,-0.22308 0,-1.66745 -2.95967,-1.97307 -4.47106,-0.46168 -1.92829,1.92828 -1.92235,1.95751 0.39764,1.95751 1.05962,0 1.6608,-0.43005 1.33596,-0.95565 z m -38.80366,-8.68231 c -0.36253,-0.58659 -0.44468,-1.281 -0.18255,-1.54313 0.26212,-0.26213 0.74306,0.21781 1.06875,1.06653 0.67618,1.76211 0.0999,2.07206 -0.8862,0.4766 z m 36.14743,-1.51703 c -0.37373,-0.97391 -0.15024,-1.43108 0.58051,-1.1875 1.49484,0.49828 2.31789,2.77106 1.0035,2.77106 -0.53699,0 -1.24979,-0.7126 -1.58401,-1.58356 z m -1.13518,-11.41726 c -10.79246,-5.77835 -19.56694,-12.18718 -18.36984,-13.41724 0.91609,-0.94132 10.88929,-3.37572 10.36692,-2.5305 -0.68088,1.10168 2.1491,1.93045 3.15993,0.9254 0.79786,-0.79328 6.15104,-1.45022 9.09048,-1.11558 0.71221,0.0811 0.96272,0.86596 0.60282,1.88874 -0.49992,1.42069 -0.36456,1.51705 0.71931,0.51207 1.07837,-0.99988 1.66698,-0.73202 3.06094,1.39295 0.94921,1.44698 1.46794,3.35405 1.15274,4.23793 -0.3152,0.88388 -0.20839,1.27654 0.23736,0.87259 0.8305,-0.75262 3.41926,1.98446 3.47641,3.67559 0.0175,0.51762 -0.5307,0.17772 -1.2182,-0.75534 -1.09078,-1.48038 -1.27279,-1.24997 -1.42891,1.80887 -0.0984,1.92794 0.22497,3.50534 0.71861,3.50534 0.49364,0 0.62042,-0.7875 0.28174,-1.75 -0.49275,-1.40032 -0.35507,-1.50869 0.689,-0.54238 0.92861,0.85945 1.00207,1.58022 0.25479,2.5 -0.57751,0.71081 -1.21094,2.0583 -1.40762,2.99443 -0.29884,1.42235 -2.17,0.73169 -11.38648,-4.20287 z m -39.53571,1.88014 c -0.89575,-1.67371 -0.86735,-1.95528 0.13475,-1.33595 0.89967,0.55602 1.08361,0.29975 0.63115,-0.87933 -0.90973,-2.37072 0.0161,-2.06062 1.36326,0.45664 0.89575,1.67371 0.86735,1.95528 -0.13475,1.33595 -0.89967,-0.55602 -1.08361,-0.29975 -0.63115,0.87932 0.90973,2.37073 -0.0161,2.06063 -1.36326,-0.45663 z m -3.39272,-3.81022 c -0.31643,-0.512 -0.11798,-1.21356 0.44099,-1.55902 0.55897,-0.34546 1.01631,0.0734 1.01631,0.9309 0,1.75653 -0.60006,2.01516 -1.4573,0.62812 z m 2.02159,-2.77597 c -0.54268,-1.4252 -0.42782,-1.54006 0.5598,-0.5598 0.68342,0.67834 0.99067,1.48524 0.68278,1.79313 -0.30789,0.30789 -0.86705,-0.24711 -1.24258,-1.23333 z m -10.29346,0.1027 c 0.33229,-0.33229 1.19479,-0.36782 1.91667,-0.0789 0.79773,0.31923 0.56078,0.55619 -0.60417,0.60417 -1.05416,0.0434 -1.64479,-0.19293 -1.3125,-0.52522 z m 25.35977,-0.91608 c -0.33906,-0.88359 -1.08936,-1.31425 -1.66734,-0.95704 -0.57798,0.35721 -1.70616,0.10563 -2.50707,-0.55907 -1.14229,-0.94802 -1.45619,-0.94018 -1.45619,0.0364 0,0.94279 -0.40945,0.91183 -1.68723,-0.12756 -1.45466,-1.18326 -1.60765,-1.15941 -1.10987,0.17303 0.37988,1.01685 -0.0423,1.59215 -1.23421,1.68193 -1.39653,0.1052 -1.71053,-0.4207 -1.37057,-2.29547 0.31463,-1.73509 -0.0113,-2.43193 -1.13758,-2.43193 -0.86822,0 -1.31968,0.41891 -1.00325,0.9309 0.31644,0.512 0.0485,1.25653 -0.59549,1.65451 -0.73122,0.45192 -0.90292,0.29014 -0.45729,-0.4309 0.71157,-1.15135 -1.0218,-1.63482 -4.7126,-1.31445 -0.99445,0.0863 -1.5304,-0.29238 -1.19099,-0.84156 0.33941,-0.54917 0.14056,-0.9985 -0.4419,-0.9985 -0.58246,0 -1.06591,-0.7875 -1.07433,-1.75 -0.009,-1.01875 -0.32231,-1.31816 -0.75,-0.71654 -0.88661,1.24715 -4.20322,1.27239 -6.1392,0.0467 -0.96552,-0.61127 -1.18149,-0.52835 -0.69098,0.26531 0.95214,1.5406 -0.65905,1.47516 -2.35121,-0.0955 -1.09524,-1.01659 -1.1901,-0.9699 -0.50805,0.25 0.70517,1.26124 0.58578,1.29518 -0.75006,0.21323 -1.88529,-1.52696 -1.2288,-5.21323 0.92843,-5.21323 0.91392,0 1.26773,-0.58017 0.91475,-1.5 -0.31658,-0.825 -0.17722,-1.5 0.30968,-1.5 0.48691,0 1.11226,0.5625 1.38967,1.25 0.48926,1.21253 1.08182,-1.78943 0.72428,-3.66927 -0.0962,-0.5056 0.48548,-0.37125 1.29255,0.29856 1.14132,0.94721 1.63262,0.95049 2.21093,0.0148 0.50543,-0.81781 0.3194,-0.94094 -0.58091,-0.38452 -0.95646,0.59113 -1.15044,0.36511 -0.69818,-0.81346 0.74756,-1.94812 -0.83137,-3.24133 -1.88197,-1.54142 -0.48885,0.79097 -1.07051,0.37916 -1.74254,-1.23369 -0.98588,-2.36607 -1.01746,-2.37208 -1.39254,-0.26501 -0.58912,3.3094 -4.72496,3.86395 -8.57026,1.14914 -4.98793,-3.52152 -9.69908,-8.01395 -9.69908,-9.24879 0,-2.67976 8.06713,-0.45123 12.97784,3.5851 3.64996,3.00006 5.63878,3.72388 4.41993,1.6086 -0.39615,-0.6875 0.36479,-0.26475 1.69098,0.93945 1.32619,1.2042 2.74875,2.2167 3.16125,2.25 0.4125,0.0333 0.8625,0.10824 1,0.16653 0.1375,0.0583 1.63166,0.18684 3.32036,0.28567 2.69581,0.15777 3.01705,-0.0991 2.63342,-2.10598 -0.56708,-2.96648 0.32355,-2.88173 4.70183,0.44744 5.90302,4.48856 7.09439,5.65094 7.09439,6.92174 0,0.66571 0.9,1.49602 2,1.84515 1.11805,0.35485 2,1.51303 2,2.6264 0,1.0954 0.44485,1.7167 0.98855,1.38068 0.58718,-0.3629 0.72119,0.0857 0.33006,1.10503 -0.44376,1.15641 -0.28072,1.4825 0.5,1 0.75689,-0.46779 0.95204,-0.178 0.56295,0.83595 -0.39994,1.04221 0.0144,1.59004 1.26145,1.66794 1.69153,0.10567 1.69998,0.15696 0.0947,0.57568 -1.9436,0.50699 -1.40999,2.39775 0.54427,1.92854 0.66988,-0.16084 0.86169,-0.0974 0.42623,0.14092 -0.43545,0.23834 -0.25883,1.07547 0.3925,1.86027 0.65133,0.78481 0.95071,1.66045 0.66528,1.94588 -0.28543,0.28543 -0.79638,-0.20396 -1.13544,-1.08754 z m -6.28552,-12.02288 c -0.32569,-0.84872 -0.80663,-1.32866 -1.06875,-1.06653 -0.26213,0.26213 -0.17998,0.95654 0.18255,1.54313 0.98605,1.59546 1.56238,1.28551 0.8862,-0.4766 z m -11.84508,9.54313 c -0.33992,-0.55 -0.14148,-1 0.44098,-1 0.58246,0 1.05902,0.45 1.05902,1 0,0.55 -0.19844,1 -0.44098,1 -0.24254,0 -0.7191,-0.45 -1.05902,-1 z m -10.5,-3 c 0,-0.55 0.19844,-1 0.44098,-1 0.24254,0 0.7191,0.45 1.05902,1 0.33992,0.55 0.14148,1 -0.44098,1 -0.58246,0 -1.05902,-0.45 -1.05902,-1 z m -16.10754,-7.35287 c -2.96585,-2.29942 -6.62996,-4.97107 -8.14246,-5.937 -3.52961,-2.25412 -3.78247,-5.91682 -0.37699,-5.46076 3.17472,0.42515 13.27758,8.61403 14.49709,11.75063 0.68126,1.7522 0.99562,1.97654 1.05095,0.75 0.0978,-2.16732 1.65668,-2.2928 2.46051,-0.19806 0.34149,0.88992 0.17385,1.29132 -0.39301,0.94098 -0.5437,-0.33602 -0.98855,-0.18254 -0.98855,0.34107 0,2.47972 -3.20272,1.61585 -8.10754,-2.18686 z m 10.3974,-16.447 c -5.73075,-4.06987 -6.92633,-7.20013 -2.75002,-7.20013 5.08763,0 14.3337,6.24869 14.42689,9.75 0.0695,2.61252 -6.39568,1.20072 -11.67687,-2.54987 z"
       id="path4921"
       inkscape:connector-curvature="0" />
    <path
       style="fill:#e79000"
       d="m 160.02832,714.01574 c 0,-0.49351 -1.6032,-0.82188 -3.56268,-0.72972 -1.95947,0.0922 -4.09697,-0.17217 -4.75,-0.58741 -0.70039,-0.44535 0.043,-0.808 1.81268,-0.8843 1.65,-0.0711 4.125,-0.28091 5.5,-0.46618 1.375,-0.18527 3.87035,-0.50045 5.54523,-0.70041 1.67487,-0.19995 3.47487,-0.57109 4,-0.82474 0.52512,-0.25366 2.41727,-0.43441 4.20477,-0.40168 1.7875,0.0327 3.25,-0.24316 3.25,-0.61309 0,-0.54441 2.62446,-1.31057 8,-2.33546 2.91444,-0.55566 10.55543,-5.42473 11.84771,-7.54971 0.90876,-1.49434 2.06479,-2.67041 2.56896,-2.6135 0.50416,0.0569 1.12099,-0.50951 1.37073,-1.25872 0.36579,-1.09738 -0.70228,-1.22799 -5.49396,-0.67186 -6.72949,0.78104 -14.46016,-1.00105 -20.29344,-4.6781 -7.01844,-4.42411 -11.53829,-5.93927 -19,-6.36922 -13.46764,-0.77602 -17.91243,-1.52685 -20.22408,-3.41636 -3.56497,-2.91395 -1.28755,-3.87752 9.64218,-4.0796 7.51383,-0.13891 10.18037,0.15773 11,1.22373 0.89281,1.16117 2.56746,1.22764 9.5819,0.38035 l 8.5,-1.02674 -0.22411,-3.7846 c -0.1925,-3.25084 0.14153,-3.92361 2.36845,-4.77028 2.29219,-0.87149 3.20865,-0.45934 7.91031,3.55742 2.92476,2.4987 9.95896,9.55149 15.63155,15.67286 5.67259,6.12136 11.5513,12.42661 13.0638,14.01166 1.5125,1.58504 2.75,3.22854 2.75,3.65222 0,0.83029 -20.86411,4.70883 -30.19729,5.61354 -3.13351,0.30374 -9.43351,1.44797 -14,2.54271 -9.33779,2.2386 -10.80271,2.38874 -10.80271,1.10719 z m 84,-3.60272 c 1.29175,-1.375 2.57363,-2.5 2.84863,-2.5 0.275,0 -0.55688,1.125 -1.84863,2.5 -1.29175,1.375 -2.57363,2.5 -2.84863,2.5 -0.275,0 0.55688,-1.125 1.84863,-2.5 z m -6.37365,-2.5 c 1.1655,-1.375 2.31898,-3.15284 2.56328,-3.95075 0.27717,-0.90523 0.68769,-1.05677 1.09173,-0.40302 0.35614,0.57625 -0.79734,2.35408 -2.56328,3.95075 -2.57489,2.32805 -2.79111,2.40788 -1.09173,0.40302 z m 24.63316,-1.11373 2.6344,-3.61373 -2.75168,-2.63627 c -1.51342,-1.44995 -3.16001,-2.63627 -3.6591,-2.63627 -0.49908,0 -2.90196,1.9125 -5.33973,4.25 -2.43777,2.3375 -4.0564,3.575 -3.59695,2.75 1.53471,-2.7558 11.93987,-13.99892 12.95355,-13.99674 0.55,10e-4 2.94002,1.68843 5.31116,3.74944 l 4.31116,3.7473 -6.2486,6 c -4.64163,4.45697 -5.57111,5.07065 -3.61421,2.38627 z m 6.12273,-7.12761 c 0.897,-1.42438 0.49658,-2.3345 -2.19986,-5 l -3.29647,-3.25866 -2.0019,2.43357 -2.0019,2.43358 2.80895,2.77416 c 3.1068,3.06833 5.03561,3.24629 6.69118,0.61735 z m 15.36142,6.73015 c 1.25184,-2.35058 5.08401,-5.99571 5.67639,-5.39935 0.49903,0.50239 -2.26323,3.87044 -4.84743,5.91054 -1.76692,1.39489 -1.82501,1.35907 -0.82896,-0.51119 z m -52.24366,-0.48881 c -0.33992,-0.55 -0.14148,-1 0.44098,-1 0.58246,0 1.05902,0.45 1.05902,1 0,0.55 -0.19844,1 -0.44098,1 -0.24254,0 -0.7191,-0.45 -1.05902,-1 z m -90.55934,-2.22143 c -9.51276,-1.62746 -6.11074,-3.33082 9.32823,-4.67054 17.72016,-1.53768 18.73111,-1.49583 18.73111,0.77534 0,1.08146 -0.95801,2.17795 -2.25,2.57523 -3.84404,1.18201 -21.37503,2.0786 -25.80934,1.31997 z m 105.05934,0.22143 c 0,-0.55 0.3375,-1.01414 0.75,-1.03142 0.4125,-0.0173 1.61438,-1.21636 2.67085,-2.66461 1.05646,-1.44825 1.39396,-2.30755 0.75,-1.90956 -0.64397,0.39799 -1.72544,0.38087 -2.40327,-0.038 -1.74002,-1.07539 -4.7564,-1.18346 -5.36894,-0.19236 -0.28417,0.4598 -1.27762,0.826 -2.20766,0.81377 -2.34151,-0.0308 2.63879,-3.92478 5.05902,-3.95553 0.9625,-0.0122 1.75,-0.47224 1.75,-1.02224 0,-1.85661 2.76231,-1.01694 3.28975,1 0.28766,1.1 1.24014,2 2.11663,2 2.4547,0 1.91695,1.38442 -1.87973,4.83932 -3.6951,3.36247 -4.52665,3.75939 -4.52665,2.16068 z m -18.92105,-2.41667 c -0.0434,-1.05416 0.19292,-1.64479 0.52522,-1.3125 0.33229,0.3323 0.36781,1.1948 0.0789,1.91667 -0.31922,0.79773 -0.55618,0.56078 -0.60416,-0.60417 z m 6.00438,1.1337 c 0.22917,-0.15563 1.21447,-0.89428 2.18956,-1.64144 1.54348,-1.18269 1.69139,-1.14607 1.14301,0.28297 -0.34643,0.90279 -1.33173,1.64144 -2.18956,1.64144 -0.85782,0 -1.37217,-0.12734 -1.14301,-0.28297 z m 10.41667,-1.71703 c 0.33992,-0.55 1.06803,-1 1.61803,-1 0.55,0 0.72189,0.45 0.38197,1 -0.33992,0.55 -1.06803,1 -1.61803,1 -0.55,0 -0.72189,-0.45 -0.38197,-1 z m -12.66486,-1.67293 c -2.05285,-0.54368 -3.23433,-3.32788 -1.95505,-4.60716 1.30837,-1.30837 3.3794,0.16149 2.70474,1.91963 -0.33671,0.87745 0.31832,1.78707 1.68182,2.33546 2.2712,0.91345 0.60119,1.15526 -2.43151,0.35207 z m 5.32744,-2.63118 c -0.88382,-1.06493 -0.59919,-1.87654 1.27588,-3.63808 1.32742,-1.24704 2.86747,-1.98677 3.42233,-1.64385 0.55487,0.34293 2.21659,-0.95992 3.69272,-2.89523 2.63928,-3.46028 4.44649,-4.48492 4.44649,-2.52105 0,0.99283 -4.14346,5.45145 -9.09991,9.79207 -2.15865,1.89044 -2.79298,2.04423 -3.73751,0.90614 z M 136.8515,693.263 c -1.47225,-0.25779 -3.24332,-1.15129 -3.9357,-1.98556 -2.14369,-2.58299 0.75327,-3.3202 13.86252,-3.52768 6.7375,-0.10664 13.2625,-0.22603 14.5,-0.26531 2.87862,-0.0914 3.7127,3.81447 1.05287,4.93043 -2.10926,0.88497 -21.56977,1.53273 -25.47969,0.84812 z m 95.17682,-0.34998 c 0,-0.55 0.19844,-1 0.44098,-1 0.24254,0 0.7191,0.45 1.05902,1 0.33992,0.55 0.14148,1 -0.44098,1 -0.58246,0 -1.05902,-0.45 -1.05902,-1 z m 2,-2 c 0,-0.55 0.45,-1 1,-1 0.55,0 1,0.45 1,1 0,0.55 -0.45,1 -1,1 -0.55,0 -1,-0.45 -1,-1 z m 14,-1 c 0,-0.55 0.45,-1 1,-1 0.55,0 1,0.45 1,1 0,0.55 -0.45,1 -1,1 -0.55,0 -1,-0.45 -1,-1 z m -11.35177,-0.6851 c -0.32881,-0.32882 1.22914,-2.37087 3.46211,-4.53789 2.23297,-2.16703 4.31996,-3.68004 4.63775,-3.36226 0.31778,0.31779 -1.24017,2.35984 -3.46211,4.53789 -2.22195,2.17806 -4.30893,3.69107 -4.63775,3.36226 z m 8.35177,-9.75588 c 0,-1.05548 1.91911,-1.49891 2.48992,-0.57533 0.34546,0.55897 -0.0734,1.01631 -0.9309,1.01631 -0.85746,0 -1.55902,-0.19844 -1.55902,-0.44098 z m -68.50478,-27.76543 c -4.22923,-3.42455 -5.45502,-4.78911 -5.47991,-6.10029 -0.0172,-0.90699 2.11098,0.49972 6.90036,4.56104 4.67628,3.96542 3.35031,5.40229 -1.42045,1.53925 z m 3.44523,-9.78356 c -5.68788,-5.2169 -4.81554,-5.45812 3.55955,-0.98427 2.75,1.469 5.1455,3.41417 5.32332,4.32258 0.62526,3.19403 -3.41716,1.67483 -8.88287,-3.33831 z m 10.15543,-5.05452 c -3.06409,-2.24274 -4.67347,-3.95551 -3.71675,-3.95551 2.82169,0 11.62087,4.93447 11.62087,6.51685 0,2.36299 -2.11093,1.67895 -7.90412,-2.56134 z"
       id="path4919"
       inkscape:connector-curvature="0" />
    <path
       style="fill:#d06800"
       d="m 186.89313,708.37388 c 1.85064,-0.80347 4.02276,-1.46086 4.82692,-1.46086 0.80416,0 2.71607,-1.25396 4.24868,-2.78657 1.53262,-1.53261 4.61056,-3.60907 6.83988,-4.61435 l 4.0533,-1.82779 3.58321,2.73304 c 1.97076,1.50318 3.58285,3.24214 3.58242,3.86436 -8.2e-4,1.19132 -22.21245,5.72767 -27.49922,5.61625 l -3,-0.0632 3.36481,-1.46086 z m -36.36481,-6.29469 c 1.44939,-1.47493 15.78353,-3.28264 16.93097,-2.1352 1.75609,1.75609 -0.59303,2.46889 -9.26373,2.81093 -5.87026,0.23156 -8.34453,0.0135 -7.66724,-0.67573 z m 97.5,-5.10715 c 0,-0.58246 0.45,-1.05902 1,-1.05902 0.55,0 1,0.19844 1,0.44098 0,0.24254 -0.45,0.7191 -1,1.05902 -0.55,0.33992 -1,0.14148 -1,-0.44098 z m -19,-1.05902 c 0,-0.55 0.45,-1 1,-1 0.55,0 1,0.45 1,1 0,0.55 -0.45,1 -1,1 -0.55,0 -1,-0.45 -1,-1 z m 9.36706,-0.75 c 0.44203,-0.73576 0.23302,-1.25 -0.50804,-1.25 -0.97924,0 -0.99235,-0.26667 -0.059,-1.2 0.83253,-0.83253 1.51921,-0.88079 2.24238,-0.15762 0.72318,0.72318 0.51128,1.47343 -0.69196,2.45 -1.12485,0.91295 -1.47043,0.96834 -0.98336,0.15762 z m -100.83583,-3.19947 c -0.73259,-1.18536 3.25615,-1.81045 15.71877,-2.46334 7.78695,-0.40794 9.75,-0.23801 9.75,0.84402 0,0.74515 -0.7118,1.62796 -1.58179,1.9618 -2.57384,0.98768 -23.2481,0.69125 -23.88698,-0.34248 z m 42.5053,-1.22463 c -1.9049,-0.54654 -4.68767,-1.86543 -6.18393,-2.93085 -5.01361,-3.57002 -11.03013,-5.02959 -21.86597,-5.30459 -5.9399,-0.15074 -11.52359,-0.80747 -12.83564,-1.50965 -3.76897,-2.01709 -2.63604,-2.49713 8.75013,-3.70751 5.49229,-0.58384 6.58745,-0.42563 7.71351,1.11436 1.14985,1.57251 2.26729,1.70829 9.02183,1.0962 8.64734,-0.7836 10.93916,-1.6714 11.86781,-4.59732 0.35185,-1.10857 1.0267,-1.77642 1.49967,-1.48411 0.47297,0.29231 1.00307,-0.71365 1.178,-2.23547 0.30426,-2.64692 0.75188,-2.33941 10.31806,7.08856 l 10,9.85551 -7.5,1.8525 c -8.57644,2.11837 -7.4807,2.04855 -11.96347,0.76237 z m 64.96347,-1.58101 c 0,-0.55 0.675,-1.5602 1.5,-2.24489 0.83674,-0.69443 1.5,-0.80272 1.5,-0.24489 0,0.55 -0.675,1.5602 -1.5,2.24489 -0.83674,0.69443 -1.5,0.80272 -1.5,0.24489 z m -61.86078,-45.27816 c -3.10017,-2.5827 -1.70047,-2.55337 1.58791,0.0333 1.39842,1.1 2.1444,1.98503 1.65773,1.96673 -0.48667,-0.0183 -1.94721,-0.9183 -3.24564,-2 z"
       id="path4917"
       inkscape:connector-curvature="0" />
    <path
       style="fill:#b45001"
       d="m 198.02832,705.36395 c 10.45005,-3.79415 13.16534,-4.16156 14.94122,-2.02175 0.99146,1.19463 0.39614,1.53853 -3.62755,2.09548 -2.64752,0.36646 -7.96367,1.29797 -11.81367,2.07 -10.17731,2.04085 -10.09885,1.70445 0.5,-2.14373 z m -39,-3.23789 c 2.31772,-1.44931 8,-2.29316 8,-1.18804 0,0.53625 -1.3132,0.975 -2.91821,0.975 -1.60502,0 -3.74252,0.25898 -4.75,0.57551 -1.45068,0.45577 -1.51971,0.38035 -0.33179,-0.36247 z m 70,-6.21304 c 0,-0.55 0.45,-1 1,-1 0.55,0 1,0.45 1,1 0,0.55 -0.45,1 -1,1 -0.55,0 -1,-0.45 -1,-1 z m -81.33142,-3.72723 c -0.37183,-0.60164 2.40153,-1.21629 7.0869,-1.57064 7.22486,-0.54641 9.23075,-0.35502 8.10263,0.77309 -1.03968,1.03968 -14.59985,1.75168 -15.18953,0.79755 z m 23.83142,-6.34632 c -3.3,-1.60612 -6.6525,-2.92162 -7.45,-2.92333 -3.70805,-0.008 1.30132,-2.25786 8.06463,-3.62212 4.06195,-0.81935 8.55058,-2.32529 9.97472,-3.34653 l 2.58934,-1.85679 6.41066,6.16016 c 6.32445,6.07734 6.37286,6.16452 3.60018,6.48342 -1.54576,0.17779 -3.40123,-0.16703 -4.12325,-0.76626 -1.55515,-1.29066 -4.18842,-0.48206 -4.95758,1.52232 -0.89058,2.32083 -7.54906,1.54172 -14.1087,-1.65087 z m -28.0691,-5.03825 c -2.00438,-3.24316 8.18789,-3.88661 14.0691,-0.8882 l 3.92288,2 -8.65242,0 c -5.26966,0 -8.92107,-0.43467 -9.33956,-1.1118 z"
       id="path4915"
       inkscape:connector-curvature="0" />
    <path
       style="fill:#9f2800"
       d="m 229.02832,696.47204 c 0,-0.24254 0.45,-0.7191 1,-1.05902 0.55,-0.33992 1,-0.14148 1,0.44098 0,0.58246 -0.45,1.05902 -1,1.05902 -0.55,0 -1,-0.19844 -1,-0.44098 z m -56,-11.18692 c -1.925,-0.85229 -4.625,-2.00924 -6,-2.57099 -2.3798,-0.97227 -2.40384,-1.06078 -0.5,-1.84096 3.29987,-1.35225 14.92801,-1.09889 16.93548,0.36901 1.50634,1.10147 1.61871,1.70106 0.65595,3.5 -1.40601,2.62716 -5.88838,2.84658 -11.09143,0.54294 z"
       id="path4913"
       inkscape:connector-curvature="0" />
    <path
       style="fill:#720e00"
       d="m 174.42234,684.42741 c -5.97868,-1.77401 -7.19879,-2.68806 -4.82764,-3.61661 5.09868,-1.99666 11.43362,-0.50333 11.43362,2.69523 0,1.9188 -2.20709,2.22663 -6.60598,0.92138 z"
       id="path4911"
       inkscape:connector-curvature="0" />
  </g>
</svg>
