<?xml version="1.0" encoding="UTF-8" standalone="no"?>
<svg
   xmlns:dc="http://purl.org/dc/elements/1.1/"
   xmlns:cc="http://creativecommons.org/ns#"
   xmlns:rdf="http://www.w3.org/1999/02/22-rdf-syntax-ns#"
   xmlns:svg="http://www.w3.org/2000/svg"
   xmlns="http://www.w3.org/2000/svg"
   xmlns:sodipodi="http://sodipodi.sourceforge.net/DTD/sodipodi-0.dtd"
   xmlns:inkscape="http://www.inkscape.org/namespaces/inkscape"
   viewBox="0 0 512 512"
   id="svg8438"
   version="1.1"
   inkscape:version="0.48.4 r9939"
   width="100%"
   height="100%"
   sodipodi:docname="ethereal.svg">
  <metadata
     id="metadata8464">
    <rdf:RDF>
      <cc:Work
         rdf:about="">
        <dc:format>image/svg+xml</dc:format>
        <dc:type
           rdf:resource="http://purl.org/dc/dcmitype/StillImage" />
        <dc:title></dc:title>
      </cc:Work>
    </rdf:RDF>
  </metadata>
  <defs
     id="defs8462">
    <linearGradient
       id="linearGradient4077">
      <stop
         id="stop4079"
         offset="0"
         style="stop-color:#aa4400;stop-opacity:1;" />
      <stop
         style="stop-color:#ff9f00;stop-opacity:1;"
         offset="0.22752622"
         id="stop4081" />
      <stop
         style="stop-color:#803300;stop-opacity:1;"
         offset="0.4948855"
         id="stop4083" />
      <stop
         id="stop4085"
         offset="1"
         style="stop-color:#562200;stop-opacity:1;" />
    </linearGradient>
    <linearGradient
       id="linearGradient4057">
      <stop
         style="stop-color:#aa4400;stop-opacity:1;"
         offset="0"
         id="stop4059" />
      <stop
         id="stop4067"
         offset="0.22752622"
         style="stop-color:#ecd1a4;stop-opacity:1;" />
      <stop
         id="stop4065"
         offset="0.50136983"
         style="stop-color:#803300;stop-opacity:1;" />
      <stop
         style="stop-color:#562200;stop-opacity:1;"
         offset="1"
         id="stop4061" />
    </linearGradient>
    <linearGradient
       id="linearGradient3890">
      <stop
         style="stop-color:#701b1b;stop-opacity:1;"
         offset="0"
         id="stop3892" />
      <stop
         style="stop-color:#e31600;stop-opacity:1;"
         offset="1"
         id="stop3894" />
    </linearGradient>
    <linearGradient
       id="linearGradient3882">
      <stop
         style="stop-color:#600b0b;stop-opacity:1;"
         offset="0"
         id="stop3884" />
      <stop
         style="stop-color:#d11414;stop-opacity:1;"
         offset="1"
         id="stop3886" />
    </linearGradient>
    <linearGradient
       id="linearGradient3872">
      <stop
         style="stop-color:#800600;stop-opacity:1;"
         offset="0"
         id="stop3874" />
      <stop
         style="stop-color:#ff0004;stop-opacity:0;"
         offset="1"
         id="stop3876" />
    </linearGradient>
    <clipPath
       clipPathUnits="userSpaceOnUse"
       id="clipPath14897">
      <path
         style="fill:#000000"
         id="path14899"
         d="M 38.859808,51.100262 H 551.6598 V 567.34126 H 38.859808 z"
         inkscape:connector-curvature="0" />
    </clipPath>
  </defs>
  <sodipodi:namedview
     pagecolor="#000000"
     bordercolor="#666666"
     borderopacity="1"
     objecttolerance="10"
     gridtolerance="10"
     guidetolerance="10"
     inkscape:pageopacity="0"
     inkscape:pageshadow="2"
     inkscape:window-width="1190"
     inkscape:window-height="1126"
     id="namedview8460"
     showgrid="false"
     inkscape:zoom="0.70710678"
     inkscape:cx="112.52314"
     inkscape:cy="-0.92546601"
     inkscape:window-x="161"
     inkscape:window-y="163"
     inkscape:window-maximized="0"
     inkscape:current-layer="g8466" />
  <g
     id="g8466">
    <path
       inkscape:connector-curvature="0"
       d="M 0.67604232,1.6027872 H 513.47603 V 517.84378 H 0.67604232 z"
       id="path3978"
       style="fill:#000000" />
    <path
       sodipodi:type="arc"
       style="fill:#333333;fill-opacity:1;fill-rule:nonzero;stroke:none"
       id="path4121"
       sodipodi:cx="63.286057"
       sodipodi:cy="-74.545074"
       sodipodi:rx="39.244427"
       sodipodi:ry="23.688076"
       d="m 101.95774,-78.577314 a 39.244427,23.688076 0 0 1 9.3e-4,0.0033 l -38.672613,4.028989 z"
       sodipodi:start="6.11213"
       sodipodi:end="6.1122693"
       transform="matrix(0.92592215,0,0,1,-12.92858,0)" />
    <path
       sodipodi:type="arc"
       style="fill:#333333;fill-opacity:1;fill-rule:nonzero;stroke:none"
       id="path4123"
       sodipodi:cx="65.584152"
       sodipodi:cy="-52.359596"
       sodipodi:rx="10.606602"
       sodipodi:ry="11.755651"
       d="m 76.035958,-54.360671 a 10.606602,11.755651 0 0 1 2.51e-4,0.0016 l -10.452057,1.999461 z"
       sodipodi:start="6.11213"
       sodipodi:end="6.1122693"
       transform="matrix(0.92592215,0,0,1,-12.92858,0)" />
    <path
       sodipodi:type="arc"
       style="fill:#333333;fill-opacity:1;fill-rule:nonzero;stroke:none"
       id="path4125"
       sodipodi:cx="54.182056"
       sodipodi:cy="-54.392529"
       sodipodi:rx="15.46796"
       sodipodi:ry="16.793785"
       d="m 69.424272,-57.251206 a 15.46796,16.793785 0 0 1 3.67e-4,0.0023 l -15.242583,2.856372 z"
       sodipodi:start="6.11213"
       sodipodi:end="6.1122693"
       transform="matrix(0.92592215,0,0,1,-12.92858,0)" />
    <g
       id="g14871"
       transform="translate(-15.556349,-11.313709)"
       clip-path="url(#clipPath14897)">
      <path
         style="fill:#b7b7b7"
         d="m 199.18333,142.21194 c 3.84678,-25.41199 6.72298,-58.379293 32.69557,-70.909143 29.14577,-5.880144 51.10224,20.799736 67.70156,40.860873 9.68717,16.30554 36.65094,46.10102 22.74234,60.14076 -23.01656,9.94672 -45.41435,33.5329 -72.56393,22.61617 -23.22067,-9.74838 -37.7833,-32.15395 -50.57554,-52.70866 z"
         id="path14341"
         inkscape:connector-curvature="0" />
      <path
         style="fill:#a7a7a7"
         d="m -92.144653,396.63731 c 0.705901,-35.5872 -1.513572,-71.60627 2.559673,-106.88245 13.11944,22.17459 41.972992,15.21438 57.703821,27.15816 25.932794,-0.94735 55.956808,2.4671 75.452368,-18.48914 9.102051,-13.9623 22.103797,1.05461 29.682697,-18.9015 16.220931,-18.11668 30.640984,-37.85021 43.912194,-58.02005 19.29635,-11.30255 14.90451,-37.51116 26.19707,-47.20979 14.10957,-9.52087 22.93494,-27.4888 31.15416,-42.52332 9.93087,-11.46186 12.82998,-16.01058 11.98833,-27.65893 17.65901,-1.57641 18.86773,-32.982546 29.88371,-23.270886 -9.30134,-10.165257 -17.93778,-19.234717 1.13291,-10.289366 20.73142,1.254754 41.27239,-22.60744 64.73993,-8.960613 18.05691,9.47291 36.33886,9.820718 47.78527,28.74161 22.42238,12.770045 34.14387,38.969935 46.93016,60.767385 14.86587,22.74411 22.92321,49.22745 36.79198,72.82009 9.03193,19.26398 18.80427,38.41159 29.88887,55.94792 13.68178,14.95322 28.68306,34.92532 46.43783,34.15413 9.26329,6.56241 8.0535,17.00273 7.74424,27.04498 0.0439,54.15141 0.0879,108.30283 0.1318,162.45424 -196.70569,0 -393.41137,0 -590.117061,0 3.2e-5,-35.62747 -6.4e-5,-71.25508 4.8e-5,-106.88247 z M 266.55395,107.32635 c -5.91401,-8.135372 -15.5309,5.15685 0,0 z"
         id="path14339"
         inkscape:connector-curvature="0" />
      <path
         style="fill:#979797"
         d="m -92.144653,436.40753 c 2.454925,-19.93514 -5.095097,-55.41627 5.851051,-65.1043 10.027366,16.14639 27.998959,0.58111 42.841124,10.49412 26.007805,1.48878 49.9089723,-9.3693 72.182614,-20.0539 23.156636,-8.32601 43.956403,-22.67142 55.706647,-44.95686 11.985536,-24.11296 21.477397,-50.15867 37.787987,-72.05832 8.11492,-22.82767 25.30655,-41.51699 31.80513,-64.76707 13.57264,-20.50547 19.03526,-22.88539 24.38869,-42.97957 4.66788,-20.96888 30.81278,-29.53396 34.32524,-51.953034 11.74626,0.877988 -6.29748,-16.246519 10.69345,-8.297563 5.6898,14.266702 1.01947,-0.582631 12.38248,2.999004 3.24382,-11.234178 45.44312,-22.631319 54.7294,4.573192 25.25712,2.980856 47.90498,16.286811 61.04001,38.584721 15.19491,18.96647 24.03628,40.82934 32.98111,63.71775 5.75994,21.56954 15.57703,41.51624 20.69242,63.37894 10.85052,24.394 20.95175,45.81359 31.33291,70.13678 11.6192,20.87018 26.8043,41.14424 38.73387,62.58688 3.35164,9.45913 25.30251,-2.32758 22.20528,18.21456 0.80231,34.19072 0.29627,68.39841 0.43765,102.59692 -196.70569,0 -393.41138,0 -590.117063,0 0,-22.37075 0,-44.7415 0,-67.11225 z M 264.23977,105.8176 c -16.35944,-7.872604 2.73516,9.37381 0,0 z"
         id="path14337"
         inkscape:connector-curvature="0" />
      <path
         style="fill:#878787"
         d="m -92.144653,472.24277 c 0,-10.42567 0,-20.85133 0,-31.277 23.808427,0.38306 50.590748,3.49255 70.71757,-11.33288 21.59065053,-8.01383 38.057279,-23.93353 58.753275,-35.52724 19.411293,-8.75457 36.848886,-22.51343 55.292081,-29.78163 20.774807,-11.62551 29.084127,-35.52083 30.554417,-58.43214 1.30016,-21.89781 2.68114,-45.69882 14.48699,-63.49008 8.19596,-23.69756 21.22065,-46.42283 32.27706,-68.45552 3.85687,-7.19998 1.99911,-36.21145 23.79564,-41.59389 1.72734,-6.85833 14.74235,2.38324 1.134,-7.52893 -3.37174,-6.98406 22.46004,-14.75203 23.0827,-28.876347 16.22045,11.489267 -12.21278,-36.355319 7.9613,-10.996259 15.48223,14.329012 39.48373,-25.226582 56.22269,1.131468 11.85358,21.875318 45.92376,13.44563 58.90915,36.229268 17.71125,19.10367 26.54454,41.93449 35.81554,66.01461 9.4416,26.05311 12.61398,53.76712 21.9782,79.78988 4.77374,23.19559 14.73447,44.02426 22.90087,66.12782 7.74408,17.41565 20.54332,32.07188 27.08537,50.66682 13.52617,21.15319 22.07295,49.871 46.58567,58.2563 4.96823,19.4832 1.6308,40.27471 2.56454,60.35276 -196.70569,0 -393.41138,0 -590.117063,0 0,-10.42567 0,-20.85134 0,-31.27701 z M 211.01352,161.74447 c -2.26164,-12.70604 -10.65494,14.75546 0,0 z m -33.18012,-9.32115 c -3.82347,3.50863 2.41108,11.91425 0,0 z M 335.07,156.5699 c -3.39497,-14.88523 -40.25557,-1.40508 -10.34482,2.67162 2.69518,-0.39823 12.60772,3.89943 10.34482,-2.67162 z M 187.48718,145.27997 c -2.51081,-3.641 19.19135,-12.72071 1.75946,-6.04391 -12.10312,3.61613 -1.41175,17.46604 -1.75946,6.04391 z m 98.87358,-15.92785 c -19.8136,-11.54187 8.37328,11.4503 0,0 z m -73.03305,-11.10633 c -7.73822,-10.41672 -1.5432,9.62771 0,0 z m 52.16432,-12.26282 c -18.96796,-10.415096 1.26854,13.08724 0,0 z"
         id="path14335"
         inkscape:connector-curvature="0" />
      <path
         style="fill:#777777"
         d="m -47.819119,496.06286 c 10.360692,-10.67031 19.554451,0.35509 30.193869,-16.77806 15.8092141,-19.82075 33.884998,-36.29584 49.871059,-54.63006 20.695201,-16.71376 46.586946,-24.26483 70.082281,-35.18526 24.96346,-2.6836 34.5755,-30.90411 44.07848,-50.3839 3.32121,-22.3058 9.80464,-48.95051 3.52956,-69.73084 -6.27241,-26.55581 8.64098,-52.27015 22.10269,-73.38383 4.19155,-14.56249 13.15754,-29.54003 7.58206,-43.87623 10.57867,19.23911 33.31389,26.94224 42.17587,6.32422 13.19486,-9.06151 -33.61614,-13.60068 -11.27412,-15.69899 -10.924,4.58604 15.49387,-1.0416 -2.59513,-5.18604 -5.86497,-2.26256 -10.53386,-5.085 -19.89508,-0.89792 18.19617,-3.869 26.39349,-13.47916 30.15702,-25.9633 8.05602,-11.706455 17.85518,-5.95247 7.97154,-21.994607 15.55155,23.196587 28.00232,-17.03399 42.93024,1.913377 16.40339,11.2969 51.69078,12.69801 46.05898,39.76315 6.13371,2.62343 18.92611,-4.58862 23.22663,1.75126 5.67131,17.24313 20.72541,29.22705 26.7889,45.80058 16.22632,34.57935 17.53578,73.30543 25.89363,109.9574 8.88486,24.10674 16.37321,49.1413 31.3195,70.72381 11.67934,18.71516 18.03388,40.77889 31.44004,58.01278 7.81088,23.96434 24.46208,39.49323 43.25531,52.46486 -1.24357,9.48603 5.05156,29.39228 -2.06093,34.45452 -183.25833,0 -366.51666,0 -549.774994,0 2.314202,-2.48563 4.628372,-4.97134 6.942595,-7.45692 z M 313.92192,177.35075 c -5.44831,-13.54136 -29.35427,-6.3566 -12.32371,-4.89444 -2.52924,8.09922 7.50175,-3.22131 7.88603,6.29511 4.20521,-0.79848 5.18382,8.7952 4.43768,-1.40067 z m -116.77327,-1.29246 c -18.77619,-9.81084 -9.60594,6.56483 5.52471,0.95463 l -5.52471,-0.95463 0,0 z m 144.6976,-10.72664 c 10.11615,-23.25923 -60.98996,-26.41782 -27.91461,-4.31475 6.89514,6.43637 19.72359,8.91768 27.91461,4.31475 z M 229.527,155.38368 c -5.30998,-6.04839 -6.14588,9.27129 0,0 z m 60.998,-23.48833 c -8.90598,-11.77525 -25.67797,0.0389 -4.30047,1.26428 0.932,3.65146 6.52533,2.7962 4.30047,-1.26428 z m -23.97105,-24.83493 c -6.93092,-14.052821 -18.27964,9.89075 0,0 z m -91.64411,57.05393 c -4.24859,-22.10306 10.27677,12.52249 1.84735,4.47046 l -1.84741,-4.47046 6e-5,0 z m 23.37567,-38.41165 c 0.66322,-9.61783 7.6623,8.99328 0,0 z"
         id="path14333"
         inkscape:connector-curvature="0" />
      <path
         style="fill:#676767"
         d="m 7.761683,489.84877 c 13.983265,-19.17763 22.584429,-45.4027 47.398489,-54.4021 18.69281,-15.49911 44.76029,-17.51596 65.806078,-30.04866 23.95941,-15.80388 20.95877,-49.61546 33.17358,-73.3873 0.45555,-21.7394 13.81259,-39.20575 21.64494,-56.07751 -3.36874,-22.32105 -18.63917,-42.79334 0.66164,-62.76007 -0.60172,-13.84253 46.16538,-21.34288 28.85013,-28.69961 -14.99839,-9.45394 25.90921,-14.64105 29.65387,-20.34532 -2.51078,-14.7335 -29.83549,-17.47993 -19.47939,-22.48998 -14.5624,-8.03303 -13.17879,-11.68146 2.21273,-4.42669 2.8416,2.08969 3.77879,-32.70688 17.35463,-34.99329 -15.93973,-19.531371 9.88471,8.93384 14.57646,-6.343199 4.92465,13.380269 2.77125,-6.742774 12.78506,1.745635 13.37009,-7.242699 28.95684,13.717424 41.47204,17.703484 -5.42983,15.6283 33.91084,26.13774 3.96936,27.77801 -14.50627,5.69068 -26.29552,-37.83813 -36.00007,-17.07556 10.57069,7.03953 37.79988,24.189 28.57347,38.83518 -34.22268,-4.31429 12.14244,14.93115 18.6962,25.27032 4.31374,16.48782 11.4532,12.89449 8.84392,-2.2218 -12.85243,-11.69212 24.39866,-12.44752 25.49984,1.44705 24.09252,15.13373 19.26719,51.94681 25.58253,77.00266 5.12296,28.79745 9.06918,58.84514 26.76343,83.05006 12.87741,21.00527 27.65807,42.18407 39.71733,64.34587 13.29018,17.56844 14.49384,45.47666 37.17369,54.80321 13.89292,1.83312 22.19409,31.55392 10.84213,34.96052 -164.22196,0 -328.44391,0 -492.66587155,0 C 3.1658154,498.96276 5.4638188,494.40547 7.761683,489.84877 z M 253.0187,172.1398 c -7.82177,-16.18542 1.83115,15.28358 0,0 l 0,0 z m -9.53029,-17.70798 c 4.77936,-9.73791 -23.13461,-1.7281 -5.38446,2.15135 1.03267,8.99339 2.52136,-0.70502 5.38446,-2.15135 z m 24.1238,-48.78598 c -24.72312,-9.465016 -4.07832,13.2324 0,0 z"
         id="path14331"
         inkscape:connector-curvature="0" />
      <path
         style="fill:#575757"
         d="m 25.87876,501.38101 c 9.13068,-25.50825 33.393783,-40.84494 55.036394,-54.38001 21.693406,-10.72804 54.431706,-11.68805 57.505686,-41.90343 1.72995,-25.92877 25.63626,-45.82117 21.12649,-71.47203 1.34338,-20.6064 7.58805,-49.48964 31.41238,-41.25428 16.29733,-3.84298 18.3863,-16.3626 -0.79284,-8.15742 -21.50413,-4.27239 14.08597,-28.84429 2.89904,-40.07769 17.52926,-15.6849 25.66106,-40.59366 26.60964,-60.58972 21.41784,-9.60512 -24.1995,-4.15181 2.90482,-9.34696 36.20941,-5.15469 -18.90798,-37.93587 -10.43232,-40.17852 23.83971,12.54147 15.35574,-28.63796 30.10446,-31.29787 9.02926,0.10265 6.17089,-10.167999 9.73585,1.99107 5.32802,-4.28763 2.43632,8.44692 12.25141,5.95232 15.63456,-0.4562 -0.003,4.30419 3.73089,10.39411 -16.75175,17.3227 30.36677,5.14319 28.21955,32.48605 10.93291,16.99131 -29.75081,5.31426 -7.36638,15.37684 25.21442,15.99171 34.79744,47.02117 59.37213,63.6617 0.29713,-8.54207 -15.7,-15.63578 1.49459,-14.15793 -10.2336,-18.89233 22.01727,8.45327 18.31842,20.37202 6.98971,32.88108 3.24339,68.37059 20.33858,98.18273 12.36456,21.99827 27.20535,42.76416 41.56273,62.11246 15.39007,18.82111 22.85311,42.94412 34.21058,63.86385 12.53957,12.52003 37.08791,18.01896 34.0948,40.09139 -31.0291,1.09712 -64.25899,0.15651 -96.13434,0.47009 -125.3939,-0.40768 -250.86638,1.28162 -376.20256,-2.13877 z m 300.844,-265.7578 c -11.09651,-26.43472 -47.6483,-19.01744 -70.43367,-16.79379 -26.58023,19.00305 12.06751,5.44978 21.83827,0.73644 16.38938,-1.39697 36.63205,26.67684 48.5954,16.05735 z m 3.27829,-11.63431 c -19.44823,-18.76598 -3.26301,5.25499 7.051,7.88269 -1.84515,-3.03353 -4.60159,-5.37131 -7.051,-7.88269 z M 224.75186,189.9784 c 3.55962,0.62602 33.14423,-5.6502 21.7816,-16.27537 10.88564,9.98257 23.79495,-12.82292 4.09242,-10.01925 8.10314,-16.79788 -16.82534,16.75355 -20.5221,20.08373 -15.86665,2.0085 -4.00926,33.87936 -3.84337,7.6761 l -1.5085,-1.46521 -5e-5,0 z m 75.49401,1.51468 c -19.30442,-11.06391 11.5701,11.41957 0,0 z m -52.45009,-37.27822 c 12.34975,-23.99842 -20.37696,3.01271 -25.48297,-17.14646 5.07461,5.87524 16.82421,40.021 25.48297,17.14646 z m 21.07236,-46.86454 c 11.1,-8.240593 8.01668,4.30384 0,0 z"
         id="path14329"
         inkscape:connector-curvature="0" />
      <path
         style="fill:#474747"
         d="m 58.246627,496.56755 c 13.955664,-14.44443 37.289858,-29.63001 55.937883,-25.35641 25.86149,-9.06905 22.58056,-40.23392 34.57086,-59.48513 7.28531,-35.02765 15.64036,-70.06979 29.78601,-103.05867 0.12758,-16.69276 51.64717,-21.56671 28.42232,-32.66452 -29.53069,-2.73254 6.77153,-40.16256 24.65063,-33.60178 22.75364,-1.11242 40.87168,-30.6164 64.4874,-11.86782 10.82271,12.95264 44.95995,28.78773 49.74959,7.85921 -18.92143,-17.79252 18.50418,-1.75499 17.40288,10.7305 10.88441,33.1862 -0.31149,71.56486 20.29728,101.687 22.89248,34.09132 57.03307,61.89878 68.23477,102.20939 8.14462,22.011 32.20737,30.43616 46.18626,47.37368 -41.26999,4.65957 -83.40026,1.85807 -124.99153,2.95761 -107.60101,0.1345 -215.20213,-0.0424 -322.803193,-0.0642 2.689555,-2.23961 5.379594,-4.47926 8.06884,-6.71885 z M 236.61128,217.95577 c -10.34013,-24.91729 25.49007,-35.51312 24.39483,-53.73869 -16.87054,3.29194 5.10032,-18.4446 -10.75113,-5.66133 -7.71271,13.08118 -13.65803,12.82752 -17.67268,-2.43825 6.18387,20.94913 26.804,-7.43255 16.06356,-17.0843 -4.17706,-11.30554 -7.33695,-1.90264 -14.32038,-3.84252 7.31917,-11.55579 3.9343,-39.684415 23.16727,-25.17693 9.06821,-1.8469 0.48895,24.77114 1.23996,23.39404 -10.13166,-4.08466 -4.24959,21.00585 3.53759,4.19664 15.40036,-12.19934 43.47936,10.96414 26.84695,22.70552 -10.92954,-0.48337 -33.26217,4.66075 -9.53108,7.64862 13.19726,-0.68181 42.45611,26.96086 29.60298,30.3647 -6.12694,-9.23109 -24.33726,-14.03694 -7.13725,-1.91523 7.00552,0.61423 36.00602,30.24148 18.61045,16.86506 -16.00531,-18.76481 -20.79378,11.17499 -40.64834,0.69391 -13.99497,-3.00988 -33.87809,9.58072 -43.40273,3.98876 z m 49.61325,-30.1121 c -17.97774,-10.64933 -7.98577,11.14786 0,0 z"
         id="path14327"
         inkscape:connector-curvature="0" />
      <path
         style="fill:#373737"
         d="m 130.01706,496.06286 c 0.38164,-18.96062 9.92809,6.88061 1.41564,6.86852 l -0.73585,-1.60207 -0.67979,-5.26645 z m 9.33034,5.59269 c 8.64132,-20.87501 4.26382,-47.55654 14.58384,-70.15531 4.92232,-11.40295 6.48565,-21.33888 9.47879,-33.89698 -0.80738,-17.69799 21.71566,-22.1877 22.21946,-43.21488 8.4699,-14.42595 -27.64067,5.42327 -13.79453,-17.77886 3.99243,-26.60569 21.68971,-40.04752 43.80693,-50.18774 8.75616,-14.74758 11.73177,-33.13607 31.9665,-40.177 18.52091,-28.12885 50.35139,-16.55917 67.37664,6.0121 16.18826,14.54756 50.65801,-16.63173 42.83997,18.08256 -0.0836,24.52427 -0.50757,50.77805 10.82918,70.56845 -2.54416,29.10114 27.56095,40.16833 41.49259,60.49801 20.75017,17.67864 30.60086,42.86904 42.74893,65.80255 7.5481,13.90535 46.55152,41.20319 9.32418,35.18533 -107.6084,0.62829 -215.30982,2.17886 -322.87248,-0.73823 z m 57.78102,-122.56441 c -5.07444,-5.0657 -4.45738,8.1153 0,0 z m 20.82766,-66.96553 c -10.02528,-17.17504 -9.02064,17.51295 0,0 z m -50.54667,52.19841 c 1.90362,-14.03456 1.33642,13.41371 0,0 z m 89.18275,-155.30476 c -11.2595,-26.02957 56.39318,-17.88355 42.27625,-5.12782 6.29567,15.37932 -35.27253,6.81204 -42.27625,5.12782 z m -11.75763,-13.25757 c 8.71582,-30.88457 48.88875,-33.95091 62.70163,-5.27812 8.46818,15.89991 -16.56289,-12.71587 -25.93256,-3.88272 -14.70905,-5.21894 -25.61845,12.68877 -36.76907,9.16084 z m 17.9925,-32.21844 c -13.3983,-18.98256 -7.32811,-15.35416 -1.02206,-12.21461 -3.14123,-21.85867 32.16898,-15.44932 30.20505,1.96675 -3.58789,8.36164 -23.70707,1.65141 -29.18299,10.24786 z m -14.70514,-27.73458 c -3.44212,-6.78733 -2.16601,-38.718423 -0.26575,-16.01666 -1.35966,2.2284 9.72829,31.752 0.26575,16.01666 z"
         id="path14325"
         inkscape:connector-curvature="0" />
      <path
         style="fill:#242424"
         d="m 160.10147,500.95614 c 12.99096,-17.21349 5.22042,-44.43678 18.28241,-63.70486 7.23573,-21.76199 15.5873,-41.79383 34.23723,-53.87402 1.71094,-8.93752 3.70975,-16.64007 13.87226,-15.09325 -8.03583,-20.80123 53.46633,-10.72986 22.71124,-30.68061 -20.29998,-19.45563 -28.27421,6.71676 -41.00128,21.17019 -13.14421,26.92585 -10.24104,-19.67368 0.76434,-26.19243 3.34227,-13.73432 8.38509,-7.19931 12.93698,-3.78624 19.62455,-4.54205 25.45419,-30.27285 10.2705,-42.31191 6.2335,-19.22562 23.75307,-30.24609 33.91764,-46.13208 22.53817,-24.50075 36.79478,29.06738 62.27219,26.24953 22.52525,5.20999 11.67033,32.39631 13.76939,49.42885 -0.12904,11.82546 -2.17198,24.04701 5.13058,34.33441 8.62573,20.53031 18.0313,40.56294 25.74497,61.13658 7.71554,12.10605 14.46132,22.02272 20.75188,7.70195 23.80646,-2.12562 31.4859,26.55781 43.37957,41.59127 7.96383,13.09604 41.36353,47.67381 6.07095,41.81711 -92.61574,1.19568 -185.3083,1.88887 -277.89773,-0.77361 l -2.9007,-0.27257 -2.31242,-0.60831 0,0 z m 33.55567,-188.83053 c 0.40401,-9.74803 7.9666,9.04561 0,0 z M 267.6006,208.02442 c -11.17558,-27.04644 47.47444,-5.14645 15.03731,1.55668 -5.02416,5.4e-4 -10.20272,0.007 -15.03731,-1.55668 z m -15.86897,-17.95607 c 8.1221,-18.46003 29.32654,-24.06052 43.61223,-7.84095 14.40663,7.67681 -25.39783,0.085 -32.10529,5.2022 -1.80004,-0.40093 -22.39426,15.67486 -11.50694,2.63875 z m 54.16347,2.7466 c 2.61244,-7.95381 5.2538,8.60595 0,0 z m -47.29201,-36.55596 c -1.51295,-9.8068 6.68425,10.57587 0,0 z m 5.63668,-5.77791 c 12.66358,-26.66516 8.39827,19.62544 0,0 z m 20.76011,1.2334 c -6.2063,-15.51909 14.94965,9.15772 0,0 l 0,0 z m -37.8306,-19.89376 c -5.37286,-20.03385 7.14849,9.77292 0,0 z"
         id="path14323"
         inkscape:connector-curvature="0" />
      <path
         style="fill:#1d1d1d"
         d="m 179.57597,487.15112 c -2.80031,-21.17945 11.40864,-41.98778 23.82816,-48.9182 -1.39466,28.07187 21.70067,-19.02714 20.30154,9.31892 26.73343,1.36019 15.134,38.21537 34.84506,42.42121 6.68879,14.25668 -4.21676,15.09371 -15.21435,13.54673 -21.57308,0 -43.14616,0 -64.71924,0 0.31961,-5.45622 0.63922,-10.91244 0.95883,-16.36866 z m 159.29625,11.53767 c -13.84929,-19.8011 6.15459,-52.19076 -17.98388,-67.49153 -8.77709,-4.74791 -10.07761,-28.20326 4.62033,-22.13175 25.38552,-6.77731 33.38388,13.28699 36.67812,34.49437 13.38309,10.22071 7.15202,29.22755 8.50547,44.45425 1.21876,10.34038 1.07384,19.30856 -11.83615,15.432 -6.81454,-0.1153 -14.53148,0.0245 -19.98389,-4.75734 z m 80.41791,-2.62593 c 9.3383,-27.3971 6.15655,26.30593 0,0 z M 315.15184,458.77828 c 9.19572,-35.20754 7.00793,34.16042 0,0 z M 259.6114,428.95062 c 5.21752,-13.71821 -15.34734,-30.6555 -3.98346,-39.77022 6.78932,-2.18921 22.81192,4.85486 22.49694,-4.43864 -6.12929,-29.13029 26.4368,-1.0234 29.89306,-20.91579 1.07821,-41.81243 37.71957,27.2421 8.07403,26.9701 -0.52123,24.75242 -26.14962,42.28789 -43.45577,57.58533 -14.95008,5.65184 -13.86467,-6.41139 -13.0248,-17.30025 l 0,-1.47954 0,-0.65099 0,0 z m -63.63267,-8.69973 c -0.67761,-16.63421 16.56659,-19.05513 4.88198,-1.11306 -4.95227,7.28264 -8.26993,18.2019 -4.88198,1.11306 z m 40.49083,4.97128 c 12.51412,-11.46588 -2.94788,13.13011 0,0 z m 60.1688,-105.63965 c -5.28928,-8.98163 -4.14451,-24.56642 -12.72801,-29.82766 -8.51726,-2.49295 -15.06371,-39.46633 2.89548,-21.10914 13.23205,-2.0229 24.43588,34.60061 30.05148,12.28257 13.68172,13.64484 2.22887,62.93306 -20.07095,44.36831 l -0.14799,-5.71408 -1e-5,0 z m -23.72039,-71.35208 c 7.43451,-11.80246 23.26083,2.48988 4.62836,1.4157 6.06561,3.94822 -10.47539,-1.37952 -4.62836,-1.4157 z m 2.05585,-46.71575 c 12.4734,-14.80061 16.73763,17.68746 0,0 z m -10.73405,-18.6423 c 3.82036,-18.73663 44.43462,2.72534 12.55268,2.53701 -3.79603,-0.52386 -9.89305,1.13229 -12.55268,-2.53701 z m 1.47731,-33.55612 c 9.31992,-12.86311 0.006,12.16013 0,0 z"
         id="path14321"
         inkscape:connector-curvature="0" />
    </g>
  </g>
</svg>
