<?xml version="1.0" encoding="UTF-8" standalone="no"?>
<svg
   xmlns:dc="http://purl.org/dc/elements/1.1/"
   xmlns:cc="http://creativecommons.org/ns#"
   xmlns:rdf="http://www.w3.org/1999/02/22-rdf-syntax-ns#"
   xmlns:svg="http://www.w3.org/2000/svg"
   xmlns="http://www.w3.org/2000/svg"
   xmlns:sodipodi="http://sodipodi.sourceforge.net/DTD/sodipodi-0.dtd"
   xmlns:inkscape="http://www.inkscape.org/namespaces/inkscape"
   viewBox="0 0 512 512"
   id="svg13820"
   version="1.1"
   inkscape:version="0.48.4 r9939"
   width="100%"
   height="100%"
   sodipodi:docname="fire shot.svg">
  <metadata
     id="metadata13844">
    <rdf:RDF>
      <cc:Work
         rdf:about="">
        <dc:format>image/svg+xml</dc:format>
        <dc:type
           rdf:resource="http://purl.org/dc/dcmitype/StillImage" />
        <dc:title></dc:title>
      </cc:Work>
    </rdf:RDF>
  </metadata>
  <defs
     id="defs13842" />
  <sodipodi:namedview
     pagecolor="#ffffff"
     bordercolor="#666666"
     borderopacity="1"
     objecttolerance="10"
     gridtolerance="10"
     guidetolerance="10"
     inkscape:pageopacity="0"
     inkscape:pageshadow="2"
     inkscape:window-width="2560"
     inkscape:window-height="1378"
     id="namedview13840"
     showgrid="false"
     inkscape:zoom="1.3037281"
     inkscape:cx="396.23029"
     inkscape:cy="252.0691"
     inkscape:window-x="-8"
     inkscape:window-y="-8"
     inkscape:window-maximized="1"
     inkscape:current-layer="svg13820" />
  <path
     d="m0,0h512v512h-512z"
     id="path13822" />
  <path
     style="fill:#ff0000;fill-rule:evenodd"
     inkscape:connector-curvature="0"
     id="path13826"
     d="m 204.2625,14.523584 c -77.53145,69.770075 -17.70556,109.268386 59.15683,52.20281 51.63841,-38.339622 71.43896,23.489676 47.71755,53.505406 -58.43732,73.94697 -172.57782,34.18141 -89.35384,7.00822 -113.37053,-36.547391 -121.29636,71.39224 -90.52374,104.54018 38.8629,41.85868 124.76683,26.25558 165.27806,-7.00822 37.10805,-30.46986 30.95414,-55.49949 -13.57327,-31.42486 35.31581,-52.64199 86.06067,-21.95533 84.82161,30.25495 -0.84846,35.22984 -28.50008,88.7745 -124.97988,110.96345 196.40203,32.0098 316.18648,-144.25155 218.42278,-213.75064 7.60252,41.44006 -25.53048,82.12564 -55.25467,77.52638 C 451.54229,77.106572 371.78319,-42.199994 263.24739,54.8199 227.22702,87.018454 191.44961,58.039942 204.2625,14.523584 z"
     sodipodi:nodetypes="cccccscccccsc" />
  <path
     style="fill:#aa4400"
     inkscape:connector-curvature="0"
     id="path13828"
     d="m 210.12255,320.30794 19.81399,49.69944 -76.97345,30.68749 -19.81399,-49.69943 z" />
  <path
     style="fill:#aa4400"
     inkscape:connector-curvature="0"
     id="path13830"
     d="m 221.20551,376.29685 19.81399,49.69944 -76.97345,30.68749 -19.81399,-49.69943 z" />
  <path
     style="fill:#803300;stroke:#000000;stroke-width:18.68857956000000100"
     inkscape:connector-curvature="0"
     id="path13832"
     d="m 110.23651,318.79796 c 19.33521,-54.77249 12.60732,-102.28073 -14.016431,-102.78719 -6.144805,-0.11213 -13.416532,2.28188 -21.607736,7.5913 1.272692,50.75819 -26.75644,95.37343 -64.8269467,130.23698 V 503.93077 H 180.31869 c 16.28897,-5.39726 34.45613,-11.82239 57.23378,-22.19269 18.73343,-7.46795 7.95572,-42.11658 -4.67215,-47.88948" />
  <path
     style="fill:#aa4400;stroke:#000000;stroke-width:18.68857956000000100"
     inkscape:connector-curvature="0"
     id="path13834"
     d="M 76.389627,332.08741 265.8152,256.56873 c 32.56486,-12.98296 51.96921,31.92944 18.11111,45.4282 l -136.61352,54.46413" />
  <path
     style="fill:#552200;stroke:#000000;stroke-width:18.68857956"
     inkscape:connector-curvature="0"
     id="path13836"
     d="m 226.58,381.68837 c 12.626,10.8562 21.65259,44.01534 7.50533,49.65743 l -58.82043,23.45043" />
  <path
     style="fill:#803300;stroke:#000000;stroke-width:18.68857956000000100"
     inkscape:connector-curvature="0"
     id="path13838"
     d="m 220.87665,331.67813 c 11.11409,11.0001 16.05722,29.07569 10.47494,46.00755 l -62.64038,24.97355" />
  <path
     style="fill:#ffff00;fill-rule:evenodd"
     inkscape:connector-curvature="0"
     id="path13826-0"
     d="m 197.2263,33.852206 c -33.21638,43.88316 -24.52367,61.493168 1.51764,42.517843 6.0112,-4.380134 9.84457,10.192543 26.62731,6.186021 27.0199,-6.450425 52.75827,-42.226932 89.04577,-33.382409 27.774,11.016309 28.59151,50.608314 4.8701,80.624059 -64.95161,66.12982 -155.47849,69.96205 -134.99026,1.99526 -80.54125,18.38257 -62.68342,99.93308 -8.49938,107.09993 39.32197,4.8509 107.95644,-11.8414 126.75917,-37.30608 -57.75916,-7.32037 -22.68726,10.31441 -110.62123,19.88791 -44.58469,7.49972 -54.32812,-25.2799 -20.87905,-54.73103 -2.93803,55.9405 57.83233,51.99062 103.21874,6.04081 22.7638,-22.20129 52.39184,-46.23717 89.72863,1.26478 44.28631,71.08833 -8.88733,130.82053 -53.48907,141.88339 106.9105,8.1454 194.43448,-102.96541 159.94891,-165.48413 12.43598,52.19445 -65.73849,120.68119 -82.80667,43.5975 C 403.84819,156.82502 416.25484,75.574752 364.57674,41.381496 332.30427,20.028139 282.8927,45.582269 252.70976,66.781103 218.6267,90.719166 186.51828,75.532584 197.2263,33.852206 z"
     sodipodi:nodetypes="cssccccccccccccssc" />
</svg>
