<?xml version="1.0" encoding="UTF-8" standalone="no"?>
<svg
   xmlns:dc="http://purl.org/dc/elements/1.1/"
   xmlns:cc="http://creativecommons.org/ns#"
   xmlns:rdf="http://www.w3.org/1999/02/22-rdf-syntax-ns#"
   xmlns:svg="http://www.w3.org/2000/svg"
   xmlns="http://www.w3.org/2000/svg"
   xmlns:sodipodi="http://sodipodi.sourceforge.net/DTD/sodipodi-0.dtd"
   xmlns:inkscape="http://www.inkscape.org/namespaces/inkscape"
   viewBox="0 0 512 512"
   id="svg8438"
   version="1.1"
   inkscape:version="0.48.4 r9939"
   width="100%"
   height="100%"
   sodipodi:docname="flanged mace.svg">
  <metadata
     id="metadata8464">
    <rdf:RDF>
      <cc:Work
         rdf:about="">
        <dc:format>image/svg+xml</dc:format>
        <dc:type
           rdf:resource="http://purl.org/dc/dcmitype/StillImage" />
        <dc:title></dc:title>
      </cc:Work>
    </rdf:RDF>
  </metadata>
  <defs
     id="defs8462">
    <linearGradient
       id="linearGradient4077">
      <stop
         id="stop4079"
         offset="0"
         style="stop-color:#aa4400;stop-opacity:1;" />
      <stop
         style="stop-color:#ff9f00;stop-opacity:1;"
         offset="0.22752622"
         id="stop4081" />
      <stop
         style="stop-color:#803300;stop-opacity:1;"
         offset="0.4948855"
         id="stop4083" />
      <stop
         id="stop4085"
         offset="1"
         style="stop-color:#562200;stop-opacity:1;" />
    </linearGradient>
    <linearGradient
       id="linearGradient4057">
      <stop
         style="stop-color:#aa4400;stop-opacity:1;"
         offset="0"
         id="stop4059" />
      <stop
         id="stop4067"
         offset="0.22752622"
         style="stop-color:#ecd1a4;stop-opacity:1;" />
      <stop
         id="stop4065"
         offset="0.50136983"
         style="stop-color:#803300;stop-opacity:1;" />
      <stop
         style="stop-color:#562200;stop-opacity:1;"
         offset="1"
         id="stop4061" />
    </linearGradient>
    <linearGradient
       id="linearGradient3890">
      <stop
         style="stop-color:#701b1b;stop-opacity:1;"
         offset="0"
         id="stop3892" />
      <stop
         style="stop-color:#e31600;stop-opacity:1;"
         offset="1"
         id="stop3894" />
    </linearGradient>
    <linearGradient
       id="linearGradient3882">
      <stop
         style="stop-color:#600b0b;stop-opacity:1;"
         offset="0"
         id="stop3884" />
      <stop
         style="stop-color:#d11414;stop-opacity:1;"
         offset="1"
         id="stop3886" />
    </linearGradient>
    <linearGradient
       id="linearGradient3872">
      <stop
         style="stop-color:#800600;stop-opacity:1;"
         offset="0"
         id="stop3874" />
      <stop
         style="stop-color:#ff0004;stop-opacity:0;"
         offset="1"
         id="stop3876" />
    </linearGradient>
  </defs>
  <sodipodi:namedview
     pagecolor="#000000"
     bordercolor="#666666"
     borderopacity="1"
     objecttolerance="10"
     gridtolerance="10"
     guidetolerance="10"
     inkscape:pageopacity="0"
     inkscape:pageshadow="2"
     inkscape:window-width="1190"
     inkscape:window-height="1126"
     id="namedview8460"
     showgrid="false"
     inkscape:zoom="0.70710678"
     inkscape:cx="204.49403"
     inkscape:cy="551.40418"
     inkscape:window-x="160"
     inkscape:window-y="130"
     inkscape:window-maximized="0"
     inkscape:current-layer="g8466" />
  <g
     id="g8466">
    <path
       inkscape:connector-curvature="0"
       d="M -13.466093,0.1885736 H 514.89024 V 516.42957 H -13.466093 z"
       id="path3978"
       style="fill:#000000" />
    <path
       sodipodi:type="arc"
       style="fill:#333333;fill-opacity:1;fill-rule:nonzero;stroke:none"
       id="path4121"
       sodipodi:cx="63.286057"
       sodipodi:cy="-74.545074"
       sodipodi:rx="39.244427"
       sodipodi:ry="23.688076"
       d="m 101.95774,-78.577314 a 39.244427,23.688076 0 0 1 9.3e-4,0.0033 l -38.672613,4.028989 z"
       sodipodi:start="6.11213"
       sodipodi:end="6.1122693"
       transform="matrix(0.92592215,0,0,1,-12.92858,0)" />
    <path
       sodipodi:type="arc"
       style="fill:#333333;fill-opacity:1;fill-rule:nonzero;stroke:none"
       id="path4123"
       sodipodi:cx="65.584152"
       sodipodi:cy="-52.359596"
       sodipodi:rx="10.606602"
       sodipodi:ry="11.755651"
       d="m 76.035958,-54.360671 a 10.606602,11.755651 0 0 1 2.51e-4,0.0016 l -10.452057,1.999461 z"
       sodipodi:start="6.11213"
       sodipodi:end="6.1122693"
       transform="matrix(0.92592215,0,0,1,-12.92858,0)" />
    <path
       sodipodi:type="arc"
       style="fill:#333333;fill-opacity:1;fill-rule:nonzero;stroke:none"
       id="path4125"
       sodipodi:cx="54.182056"
       sodipodi:cy="-54.392529"
       sodipodi:rx="15.46796"
       sodipodi:ry="16.793785"
       d="m 69.424272,-57.251206 a 15.46796,16.793785 0 0 1 3.67e-4,0.0023 l -15.242583,2.856372 z"
       sodipodi:start="6.11213"
       sodipodi:end="6.1122693"
       transform="matrix(0.92592215,0,0,1,-12.92858,0)" />
    <g
       id="g3152">
      <path
         style="fill:#9d9693"
         d="m 456.79192,449.77454 c 0.75067,-2.91856 0.21563,-4.69763 -1.73273,-5.76162 -1.76223,-0.96235 -2.42473,-2.75069 -1.76754,-4.77123 0.57816,-1.77756 0.13855,-4.99424 -0.97689,-7.14819 -2.22213,-4.29095 -17.42202,-18.46673 -19.80084,-18.46673 -0.81622,0 -17.00441,-14.8635 -35.97373,-33.03001 -18.96933,-18.16651 -45.34409,-43.33814 -58.61059,-55.93695 -13.26649,-12.5988 -24.1209,-23.92616 -24.1209,-25.17188 0,-1.24575 -1.80591,-2.26498 -4.01312,-2.26498 -2.94578,0 -20.68356,-16.38343 -66.69248,-61.6002 -59.0037,-57.98783 -62.54895,-61.81909 -60.45546,-65.33264 1.22315,-2.05283 3.65818,-5.19706 5.4112,-6.98717 4.07524,-4.16144 1.65501,-7.37536 -6.70666,-8.90608 -11.22992,-2.05579 -21.45311,-13.8841 -24.50806,-28.356 -0.69562,-3.29525 -2.96284,-7.33376 -5.03827,-8.97446 -2.69198,-2.12811 -3.17586,-3.36504 -1.68825,-4.31572 2.79883,-1.78865 2.0488,-23.025184 -0.84646,-23.966931 -1.16375,-0.378536 -2.11592,0.109968 -2.11592,1.085572 0,1.115957 -3.16505,1.408033 -8.53405,0.787532 -5.45495,-0.630433 -8.97345,-0.292519 -9.75189,0.936563 -1.75032,2.763575 -4.51928,2.368456 -4.51928,-0.644881 0,-2.481929 -1.9669,-3.282742 -6.60558,-2.689426 -4.17629,0.534174 -12.28649,-5.515456 -15.0929,-11.258228 -3.422164,-7.002777 -9.042456,-7.688765 -11.951401,-1.458734 -2.303397,4.933122 -2.577709,4.988681 -8.452051,1.711821 -2.41209,-1.345527 -6.034944,-2.473709 -8.050802,-2.507073 -2.015858,-0.03336 -6.179406,-2.756776 -9.252339,-6.052031 -6.873719,-7.371008 -12.519062,-8.018811 -12.519062,-1.436558 0,2.953947 1.952161,6.255544 5.554297,9.393764 3.054882,2.661423 5.668921,6.196572 5.808997,7.855888 0.140165,1.659314 1.192994,4.699512 2.339815,6.755996 3.01699,5.41009 2.617074,7.342633 -2.300502,11.117246 -6.262557,4.80699 -5.657746,9.62112 1.579454,12.57188 8.840967,3.60465 11.5774,7.06348 11.5774,14.6337 0,4.88688 0.731539,6.72501 2.67642,6.72501 2.394723,0 2.396723,0.52778 0.01912,5.01448 -1.646957,3.10782 -2.24805,7.01154 -1.580892,10.26668 0.65458,3.19373 0.20537,6.27643 -1.146173,7.86554 -3.305949,3.8871 -1.07295,4.88491 11.567998,5.1691 9.834994,0.2211 11.70062,-0.22728 13.33351,-3.20456 1.83831,-3.35186 1.97652,-3.31635 4.35855,1.11995 1.90335,3.54484 3.75875,4.58158 8.19942,4.58158 7.16884,0 22.84672,7.48059 27.32736,13.03906 1.85319,2.29896 3.88856,7.1782 4.52301,10.84273 0.63446,3.66453 2.2559,7.07557 3.60319,7.58006 2.56112,0.95905 7.81386,-3.08462 7.81386,-6.01527 0,-0.9339 2.31683,-1.45662 5.14852,-1.16159 4.03672,0.42058 13.60203,8.70189 44.29474,38.34879 50.71178,48.98386 83.87953,82.86287 83.87953,85.67826 0,1.23216 2.17088,3.35276 4.82418,4.71244 4.05473,2.07786 102.2719,97.71063 126.47177,123.14389 7.76324,8.15892 13.36992,10.7917 19.59746,9.20253 1.91419,-0.48845 3.48035,-0.17767 3.48035,0.69063 0,0.86832 2.32395,1.40597 5.16433,1.19477 3.86277,-0.28721 5.43805,-1.44815 6.25034,-4.60632 z"
         id="path3164"
         inkscape:connector-curvature="0" />
      <path
         style="fill:#89827c"
         d="m 452.8328,453.53046 c 3.25606,-0.83032 4.45157,-9.09092 1.31568,-9.09092 -0.96483,0 -1.75425,-2.63326 -1.75425,-5.85168 0,-4.46904 -1.61019,-7.48706 -6.81465,-12.77284 -3.74806,-3.80665 -7.64944,-7.14336 -8.66973,-7.41492 -1.82142,-0.48483 -62.75639,-57.47415 -105.02786,-98.22714 -11.81001,-11.38579 -21.82967,-19.8593 -22.2659,-18.83003 -0.43623,1.02926 -0.85546,0.42901 -0.93163,-1.33389 -0.10438,-2.41497 -0.69538,-2.7543 -2.39704,-1.37622 -1.73134,1.40215 -2.96708,0.23317 -5.294,-5.00802 -1.66952,-3.76042 -3.67834,-6.44942 -4.46405,-5.97555 -0.78573,0.47385 -13.8645,-11.35507 -29.06395,-26.2865 -15.19946,-14.93143 -34.86987,-34.04788 -43.71203,-42.48103 -19.98253,-19.05818 -42.44849,-43.05525 -42.21493,-45.09196 0.0965,-0.84136 0.29384,-2.6552 0.43856,-4.03078 0.14473,-1.37558 1.96137,-4.04493 4.037,-5.93191 3.13386,-2.84902 3.39494,-3.87641 1.53946,-6.05806 -1.22894,-1.44495 -4.32613,-2.62719 -6.88267,-2.62719 -9.98189,0 -24.60546,-17.42093 -24.70584,-29.43185 -0.0386,-4.62814 -6.19568,-10.66064 -9.09564,-8.91171 -0.80761,0.48705 -1.46836,0.0456 -1.46836,-0.98102 0,-1.02662 1.12308,-2.28712 2.49573,-2.80112 3.59308,-1.34544 4.54741,-4.88298 2.86321,-10.61341 -0.80893,-2.752364 -0.81888,-6.033581 -0.0221,-7.291595 0.79676,-1.258012 1.00738,-2.984054 0.46801,-3.835651 -0.5536,-0.874076 -1.47693,-0.764794 -2.12025,0.250948 -0.7785,1.229176 -3.55014,1.270785 -8.74725,0.131314 -7.48611,-1.641341 -13.68876,0.276652 -11.59344,3.584948 0.46625,0.736168 -0.27903,1.760406 -1.65617,2.276085 -1.69283,0.63389 -2.86249,-0.655561 -3.61092,-3.980749 -0.84339,-3.747054 -1.93895,-4.762005 -4.60039,-4.261857 -5.55512,1.043945 -11.24539,-2.410326 -15.77154,-9.574093 -4.815868,-7.622315 -9.539108,-8.5875 -12.368656,-2.527512 -1.858661,3.980687 -2.218772,4.070125 -6.892262,1.711821 -2.712137,-1.36857 -6.563113,-2.488311 -8.557745,-2.488311 -1.994631,0 -6.309781,-2.696118 -9.589224,-5.991373 -3.279442,-3.295255 -7.607258,-5.991373 -9.617362,-5.991373 -5.511073,0 -4.578199,5.972497 1.603803,10.268013 2.89221,2.009625 5.749054,5.721096 6.348568,8.247716 0.599496,2.526618 2.106939,6.190848 3.349858,8.142731 3.273899,5.141336 3.977334,11.960718 1.175837,11.398988 -2.96859,-0.59523 -7.361576,3.72356 -7.361576,7.23726 0,1.50905 1.38147,3.16094 3.069933,3.67087 1.688463,0.50993 4.53401,1.6981 6.323429,2.64038 2.272558,1.19669 2.90249,1.15901 2.089291,-0.12496 -1.396223,-2.20449 0.743889,-2.36084 4.080818,-0.29814 1.32365,0.81819 2.049627,2.53274 1.613293,3.8101 -0.436351,1.27735 0.362568,3.45043 1.775369,4.82906 1.744388,1.70219 1.930356,2.71424 0.579533,3.15362 -2.363848,0.7689 -2.70433,7.20901 -0.381128,7.20901 0.884421,0 1.924023,-0.92496 2.310186,-2.05546 0.546343,-1.5994 0.990992,-1.5994 2.003964,0 0.716014,1.13051 0.465841,2.05547 -0.555938,2.05547 -1.021779,0 -1.857783,1.9258 -1.857783,4.27955 0,2.35375 -0.893351,4.27955 -1.985229,4.27955 -1.289144,0 -1.668903,2.30129 -1.08309,6.5633 0.496189,3.60982 0.162619,7.85267 -0.741082,9.42857 -2.587286,4.51142 -0.315448,5.93922 6.256435,3.932 3.329211,-1.01683 5.597435,-2.56826 5.040497,-3.44762 -0.556956,-0.87936 -0.08841,-1.04143 1.041268,-0.36016 1.129648,0.68128 1.599751,1.95578 1.044637,2.83222 -2.379075,3.75634 7.044372,1.18396 10.645946,-2.90609 l 3.96225,-4.49963 1.15621,5.13689 c 1.02927,4.57293 2.15742,5.3343 10.27583,6.935 5.0158,0.98897 11.26415,2.59915 13.88522,3.57819 5.48739,2.04968 15.40826,14.54431 15.40826,19.40561 0,1.80899 1.22402,4.4835 2.72006,5.94336 2.45725,2.39781 2.96035,2.34465 5.20694,-0.55023 1.3678,-1.76249 2.51256,-3.58967 2.54392,-4.06042 0.0314,-0.47075 2.13204,-0.97321 4.66814,-1.11656 2.88241,-0.16296 6.3982,1.44149 9.37787,4.27956 23.52984,22.41146 31.93267,29.73768 30.9445,26.9797 -0.98013,-2.73554 -0.74866,-2.90462 1.49213,-1.08992 1.45871,1.18136 2.13964,3.02354 1.51315,4.09373 -0.62648,1.0702 -0.49307,1.37475 0.29648,0.67681 1.71379,-1.51503 6.15523,1.73363 6.1171,4.47429 -0.014,1.0616 -0.7921,0.7747 -1.72739,-0.63755 -1.1776,-1.77812 -1.70878,-1.89669 -1.72739,-0.38559 -0.014,1.20017 1.99743,2.93317 4.47157,3.85108 2.47412,0.91791 6.61779,4.1727 9.20815,7.23287 2.59036,3.06016 15.36752,16.13905 28.39372,29.06417 31.70853,31.46255 39.31598,39.55652 38.84668,41.33101 -0.2173,0.82164 0.75598,1.06285 2.16285,0.53604 1.40685,-0.5268 3.00892,0.18902 3.56014,1.59072 0.665,1.69106 0.27115,2.13831 -1.1705,1.32928 -1.195,-0.67059 -1.77802,-0.76474 -1.2956,-0.2092 1.83857,2.11722 105.10255,103.57929 115.01578,113.0088 10.06273,9.57173 17.16237,17.16397 19.71198,21.07967 3.53344,5.42668 17.89114,7.17479 15.1522,1.84483 -0.56994,-1.10909 0.5319,-0.28331 2.44852,1.83507 1.91663,2.11838 3.75295,3.76224 4.08071,3.65303 0.32776,-0.10922 1.9774,-0.55087 3.66587,-0.98144 z m -18.69685,-16.79411 c 1.58047,-2.35375 3.66885,-4.27955 4.64086,-4.27955 1.75788,0 -1.45429,4.84887 -4.80217,7.24903 -2.88595,2.06899 -2.85639,1.52472 0.16132,-2.96948 z m -6.32269,-5.95214 c 2.43038,-4.43139 9.2081,-8.22273 7.65943,-4.28457 -0.5799,1.47465 -1.47809,2.26769 -1.99598,1.76232 -0.5179,-0.50536 -2.04396,0.61689 -3.39125,2.4939 -3.15847,4.40029 -4.6804,4.41928 -2.2722,0.0284 z M 299.44638,309.40372 c 1.21078,-0.73021 1.90936,-2.42154 1.55239,-3.75853 -0.35696,-1.33698 -0.33269,-1.8964 0.0539,-1.24317 0.38662,0.65325 1.83607,0.7634 3.22099,0.24481 1.38498,-0.51858 2.5181,-0.18411 2.5181,0.74329 0,1.97171 -7.50472,7.22398 -8.72043,6.1031 -0.45447,-0.41902 0.16437,-1.35931 1.3751,-2.0895 z M 194.6462,202.06837 c 1.6906,-1.98778 2.57934,-1.70066 5.34124,1.72561 1.83943,2.2819 2.83095,5.33643 2.22907,6.86696 -0.91547,2.32796 -1.74639,2.05951 -5.34124,-1.7256 -3.33658,-3.51315 -3.81858,-4.99803 -2.22907,-6.86697 z m 6.89068,6.24093 c 0,-0.99707 -0.78941,-1.81286 -1.75425,-1.81286 -0.96483,0 -1.75424,0.3397 -1.75424,0.75488 0,0.41519 0.78941,1.23097 1.75424,1.81286 0.96484,0.58188 1.75425,0.24218 1.75425,-0.75488 z m -50.87317,-17.42129 c 0,-0.9415 0.78941,-1.23575 1.75425,-0.65386 0.96483,0.58188 1.75424,1.82827 1.75424,2.76977 0,0.9415 -0.78941,1.23575 -1.75424,0.65387 -0.96484,-0.58188 -1.75425,-1.82828 -1.75425,-2.76978 z m 24.49324,-5.05415 c -1.43675,-2.61967 -1.22838,-3.58247 0.95198,-4.39892 3.7251,-1.39489 8.30413,4.53253 5.78742,7.49163 -2.12457,2.49804 -4.19401,1.54838 -6.7394,-3.09271 z m 6.11348,1.97876 c 0.56483,-0.89181 0.27922,-2.07242 -0.63469,-2.62357 -0.91391,-0.55117 -2.12378,-0.27247 -2.68859,0.61934 -0.56483,0.8918 -0.27922,2.07241 0.63469,2.62357 0.91391,0.55117 2.12377,0.27247 2.68859,-0.61934 z m -31.96012,-6.24344 c 0.58802,-0.5738 2.01473,0.75593 3.17043,2.95493 2.00883,3.82226 1.96178,3.86817 -1.06912,1.04329 -1.74374,-1.62522 -2.68934,-3.42442 -2.10131,-3.99822 z m 5.66688,-5.9994 c -1.88804,-2.98104 0.2623,-3.61236 2.66832,-0.7834 1.38366,1.6269 1.51676,2.60911 0.35351,2.60911 -1.02602,0 -2.38584,-0.82157 -3.02183,-1.82571 z m -7.45988,-17.66063 c -2.61125,-2.71472 -10.97583,-10.80308 -18.58797,-17.97412 -24.33455,-22.92442 -34.016133,-32.7242 -32.32953,-32.7242 0.903946,0 1.075687,-0.9629 0.381637,-2.13977 -1.796648,-3.04653 -1.75723,-3.01043 26.862263,24.60238 24.56637,23.70225 31.2217,30.53081 37.34548,38.31755 3.63487,4.62194 -7.24753,-3.40289 -13.67188,-10.08184 z m 16.72389,3.15477 c -6.74538,-6.1034 -5.98506,-6.9737 1.33361,-1.52649 3.37693,2.51341 6.13987,4.86357 6.13987,5.22258 0,1.77338 -3.15096,0.21503 -7.47348,-3.69609 z M 81.113965,149.08669 c -0.211212,-3.56797 0.186774,-3.98152 2.235209,-2.32259 2.778219,2.24996 2.657737,2.32779 5.580401,-3.60503 l 2.108219,-4.27955 -1.093861,4.27955 c -1.081757,4.23216 -5.509863,10.27206 -7.529194,10.26972 -0.574078,-6.7e-4 -1.159435,-1.95461 -1.300774,-4.3421 z m 13.413833,-5.92762 c 0,-0.9415 0.836005,-1.71182 1.857783,-1.71182 1.021779,0 1.369892,0.77032 0.773588,1.71182 -0.596303,0.9415 -1.432307,1.71182 -1.857783,1.71182 -0.425475,0 -0.773588,-0.77032 -0.773588,-1.71182 z m -10.525483,-1.71182 c 0,-0.9415 0.836004,-1.71182 1.857783,-1.71182 1.021779,0 1.369892,0.77032 0.773588,1.71182 -0.596304,0.9415 -1.432308,1.71182 -1.857783,1.71182 -0.425475,0 -0.773588,-0.77032 -0.773588,-1.71182 z m 41.437475,-33.30404 c 0.52963,-1.34677 -0.71233,-3.24276 -2.85823,-4.36343 -2.08713,-1.08999 -3.40583,-2.36134 -2.93045,-2.82524 0.4754,-0.46389 3.26115,0.36602 6.19056,1.84424 3.4088,1.72013 5.72145,2.06364 6.42411,0.95421 1.21139,-1.91268 4.36395,-0.64584 4.36395,1.75364 0,1.80863 -9.11044,6.52619 -10.88744,5.63772 -0.68149,-0.34073 -0.8176,-1.69125 -0.3025,-3.00114 z m -35.054874,-5.21193 c 0.585462,-1.48876 0.0088,-2.60753 -1.370734,-2.66244 -2.685191,-0.10684 -11.466304,-10.176215 -8.874281,-10.176215 3.065705,0 14.783936,11.684385 13.597258,13.558005 -1.772561,2.79872 -4.505117,2.21235 -3.352243,-0.71935 z m 47.999064,-5.991372 c 0,-0.941501 0.78941,-1.711821 1.75425,-1.711821 0.96483,0 1.75424,0.77032 1.75424,1.711821 0,0.941502 -0.78941,1.711821 -1.75424,1.711821 -0.96484,0 -1.75425,-0.770319 -1.75425,-1.711821 z M 68.21409,88.48183 c 0,-0.885937 0.789411,-2.086877 1.754247,-2.668757 0.964836,-0.581881 1.754247,0.142971 1.754247,1.610794 0,1.467816 -0.789411,2.668758 -1.754247,2.668758 -0.964836,0 -1.754247,-0.724857 -1.754247,-1.610795 z m 6.160864,-3.096713 c 0.323237,-1.647627 0.672087,-4.151165 0.775254,-5.563417 0.146304,-2.003878 0.593304,-1.887071 2.03526,0.531929 1.98444,3.329055 0.963661,8.027175 -1.744107,8.027175 -0.909753,0 -1.389627,-1.348059 -1.066407,-2.995687 z"
         id="path3162"
         inkscape:connector-curvature="0" />
      <path
         style="fill:#837975"
         d="m 452.8328,453.4674 c 3.2768,-0.76829 4.42904,-8.86208 1.31568,-9.24183 -0.96483,-0.11778 -2.47787,-0.31027 -3.36231,-0.42796 -0.88443,-0.11777 -2.2659,-0.91522 -3.06993,-1.7723 -0.85016,-0.90624 -0.53911,-1.03991 0.74333,-0.31944 3.41749,1.91991 4.60985,-3.52574 2.07799,-9.49039 -1.41397,-3.33105 -4.46186,-6.21456 -8.16461,-7.72425 -3.24961,-1.32493 -5.43526,-3.15598 -4.85701,-4.06898 2.63757,-4.16446 -2.7964,-0.94951 -10.38028,6.14137 -8.13792,7.60892 -8.2745,7.90455 -5.53613,11.98274 1.54419,2.29975 4.1709,4.19316 5.83712,4.20757 2.32964,0.0202 2.48877,0.3607 0.68881,1.47408 -1.79538,1.11055 -1.21012,2.31565 2.51218,5.1728 2.66908,2.04873 5.95783,3.31119 7.30834,2.80549 1.35051,-0.50571 3.22691,-0.91947 4.16978,-0.91947 0.94286,0 1.22642,-0.77032 0.63011,-1.71182 -1.83863,-2.90303 1.02737,-1.8904 4.10443,1.45018 1.60191,1.73911 4.29403,2.8381 5.9825,2.44221 z m -20.46536,-16.03369 c 1.8272,-1.97022 4.90984,-4.40729 6.85031,-5.41572 3.26624,-1.69742 3.33919,-1.59037 0.98286,1.44241 -3.39186,4.36558 -7.38778,7.5555 -9.46452,7.5555 -0.92996,0 -0.19586,-1.61199 1.63135,-3.58219 z m -5.83675,-5.99034 c 5.07678,-5.72389 10.42744,-8.72112 8.9749,-5.02738 -0.56181,1.42861 -1.86231,2.0904 -2.89001,1.47061 -1.18311,-0.71353 -1.44481,-0.0493 -0.7134,1.81055 0.63533,1.6156 0.46422,2.52078 -0.38024,2.0115 -0.84446,-0.50929 -2.5109,0.22103 -3.7032,1.62291 -1.19229,1.40187 -2.85534,2.54888 -3.69566,2.54888 -0.84031,0 0.24311,-1.99669 2.40761,-4.43707 z m -3.53256,-3.29879 c 12.14659,-8.0542 11.93313,-9.09218 -5.33965,-25.96472 -33.13263,-32.36494 -92.161,-86.961 -93.58166,-86.55484 -0.82329,0.23538 -1.49688,-0.5764 -1.49688,-1.80396 0,-1.22757 -2.67639,-4.76327 -5.94753,-7.85709 l -5.94753,-5.62516 -3.12809,5.16738 c -1.72046,2.84205 -4.64938,5.55556 -6.50871,6.03005 -1.88176,0.48018 -2.85565,1.69152 -2.1966,2.73211 0.65121,1.02821 0.53329,1.65778 -0.26205,1.39909 -4.38014,-1.42475 0.54643,4.33659 17.67436,20.66906 10.51624,10.02785 29.85681,29.01228 42.97905,42.18762 26.38381,26.49058 54.93583,53.79316 56.34354,53.87795 0.49966,0.0301 3.83494,-1.88577 7.41175,-4.25749 z M 301.09041,307.34671 c 4.10055,-3.82666 7.45162,-7.86251 7.44683,-8.96861 -0.005,-1.10609 -1.94993,0.2999 -4.32252,3.1244 -2.3726,2.82451 -4.34221,4.21803 -4.37691,3.09672 -0.0347,-1.12131 0.72633,-2.51484 1.69116,-3.09672 0.96484,-0.58188 1.75425,-2.0132 1.75425,-3.18073 0,-1.16753 -17.07667,-18.64683 -37.94814,-38.8429 -20.87147,-20.19608 -39.20337,-38.06819 -40.73755,-39.71581 -1.53418,-1.64763 -3.4275,-2.99569 -4.20739,-2.99569 -0.77988,0 -3.95944,-2.8602 -7.06568,-6.35597 -3.10625,-3.49578 -11.74639,-12.87298 -19.20033,-20.83821 -11.50381,-12.29287 -13.39331,-15.14906 -12.4988,-18.89338 0.5796,-2.42613 2.73122,-5.71763 4.78138,-7.31442 5.17248,-4.02865 1.38762,-7.45871 -8.92968,-8.0926 -7.21612,-0.44335 -21.41894,-19.47155 -21.51206,-28.82073 -0.0367,-3.68379 -5.24714,-9.5839 -8.86663,-10.04019 -0.93355,-0.11769 -2.13609,-0.31027 -2.67231,-0.42795 -0.53622,-0.11769 1.23995,-2.08619 3.94705,-4.37445 3.94971,-3.33861 4.48882,-4.58978 2.72919,-6.33374 -1.63773,-1.62313 -2.19281,-1.65327 -2.19281,-0.11907 0,1.1298 -0.88607,2.05418 -1.96903,2.05418 -1.33392,0 -1.4077,-0.69021 -0.22874,-2.13978 0.95715,-1.17687 2.18118,-5.221049 2.72003,-8.987055 0.53887,-3.766006 0.58392,-5.499225 0.10017,-3.851597 -0.48381,1.647627 -1.8635,2.995686 -3.06602,2.995686 -2.78615,0 -9.10758,7.046236 -10.69219,11.918116 -0.72847,2.23971 -2.18688,3.37199 -3.64159,2.82726 -1.33458,-0.49974 -3.03945,0.0223 -3.78858,1.16006 -0.7492,1.13777 -3.33567,3.60932 -5.74776,5.49232 l -4.38561,3.42364 3.06993,-3.55843 c 3.92664,-4.55147 3.93342,-10.35038 0.014,-12.49042 -4.97966,-2.71935 -1.02956,-4.285422 4.83262,-1.91596 4.86116,1.96487 5.74839,1.81526 8.91698,-1.50356 3.40652,-3.567444 3.22046,-7.064853 -0.37527,-7.064853 -0.96483,0 -1.19099,0.88934 -0.50256,1.97631 0.77552,1.224466 0.48123,1.511646 -0.77358,0.754886 -2.66165,-1.605205 -2.57961,-4.010408 0.16753,-4.910288 1.23774,-0.405452 1.04672,-0.623247 -0.43856,-0.50005 -1.48034,0.122789 -2.57936,1.798761 -2.51246,3.831455 0.0923,2.802681 -0.80604,3.514119 -4.0045,3.171508 -4.27435,-0.457855 -7.86675,-2.612001 -4.35597,-2.612001 1.09535,0 1.53933,-1.149997 0.9866,-2.555551 -0.68037,-1.730129 -2.36241,-2.223094 -5.20769,-1.526246 -2.54078,0.622274 -4.20272,0.278992 -4.20272,-0.86809 0,-1.043567 -1.21448,-1.897396 -2.69888,-1.897396 -1.48437,0 -4.83937,-3.442088 -7.45555,-7.649087 -2.61616,-4.206996 -6.110373,-7.673434 -7.764892,-7.703194 -3.179432,-0.05719 -7.291563,5.586904 -5.408923,7.424012 1.826698,1.782512 -0.96673,1.234765 -7.696777,-1.509217 -7.319527,-2.98433 -8.97222,-2.447828 -4.850195,1.574495 1.586909,1.548532 2.438684,3.951194 1.892832,5.339252 -0.545851,1.388055 -0.227929,2.523739 0.706506,2.523739 0.934417,0 15.711108,13.409466 32.837069,29.798806 17.12598,16.38934 33.94539,32.37347 37.37645,35.52028 3.43108,3.14681 6.50248,6.4918 6.82535,7.4333 0.32285,0.9415 1.76695,3.46908 3.2091,5.61684 6.51633,9.70464 -1.11317,4.0678 -22.70712,-16.77652 -40.823855,-39.40666 -42.633046,-41.05042 -45.315939,-41.17212 -1.753563,-0.0795 -1.460972,-0.61015 0.877124,-1.59056 3.396731,-1.42432 3.400099,-1.47502 0.105956,-1.5915 -1.871378,-0.0662 -7.230287,-4.16201 -11.908654,-9.101853 -6.141901,-6.485172 -8.896104,-8.365812 -9.909182,-6.766256 -1.116736,1.763225 -1.862747,1.674768 -3.655816,-0.433479 -2.086712,-2.453538 -0.699032,-3.544724 2.824233,-2.220804 0.626389,0.235376 1.681376,-1.081131 2.344394,-2.925572 0.835986,-2.325567 -0.0614,-4.589748 -2.927383,-7.386464 -2.273083,-2.218114 -5.392381,-5.908682 -6.931768,-8.201262 -3.555789,-5.295605 -11.16659,-5.778147 -11.16659,-0.707987 0,1.987429 1.784718,4.253849 4.192896,5.324545 4.491382,1.996922 7.68534,6.721395 8.934259,13.215484 0.425878,2.214438 1.618538,5.018885 2.650387,6.232106 1.03183,1.21322 2.048417,4.793643 2.259067,7.956492 0.210632,3.16285 1.172398,6.37884 2.137234,7.14664 0.964836,0.7678 -0.02193,0.90848 -2.192809,0.3126 -2.930435,-0.80435 -3.947056,-0.36631 -3.947056,1.70072 0,1.53126 -0.832303,2.28216 -1.849573,1.66866 -1.2275,-0.7403 -0.91891,-2.50146 0.917576,-5.23649 1.521915,-2.26657 2.092905,-4.12104 1.268865,-4.12104 -2.398056,0 -6.136269,8.0387 -4.753484,10.22198 0.70005,1.10531 4.105114,1.74837 7.662464,1.4471 5.890341,-0.49887 6.664982,-0.0178 9.683638,6.01336 2.422475,4.84002 2.766781,7.05752 1.315685,8.47351 -1.080984,1.05485 -1.953354,3.11191 -1.938583,4.57124 0.02175,2.14184 0.317624,2.20553 1.535247,0.33036 1.765913,-2.71959 8.948783,-1.11338 8.990236,2.01036 0.01579,1.20635 0.733784,0.98679 1.776246,-0.54331 1.297388,-1.90431 1.651062,-0.90916 1.368839,3.85159 -0.209299,3.53063 -1.008605,6.41933 -1.776246,6.41933 -0.767623,0 -1.395696,1.90162 -1.395696,4.22583 0,3.24783 -0.679473,3.97139 -2.935926,3.12645 -2.249647,-0.84239 -2.664403,-0.40891 -1.774333,1.85446 0.638861,1.6246 0.486716,2.54682 -0.338131,2.04937 -2.1599,-1.30261 -7.798033,5.29427 -6.404845,7.49398 0.643598,1.01618 1.989334,1.35359 2.990501,0.7498 1.177468,-0.71012 0.979782,-1.66638 -0.559781,-2.70779 -1.710321,-1.15692 -1.365436,-1.33486 1.225588,-0.63231 2.289713,0.62086 5.019059,-0.30724 7.478268,-2.54292 3.87336,-3.52132 7.359365,-3.23196 7.30879,0.60668 -0.01579,1.22501 -0.705611,1.01387 -1.72739,-0.52898 -0.935294,-1.41225 -1.773017,-2.18257 -1.861607,-1.71182 -0.08859,0.47075 -0.425527,2.20397 -0.748765,3.8516 -0.428335,2.1834 0.559394,2.99568 3.642712,2.99568 4.502902,0 5.228482,-1.82889 2.615618,-6.593 -1.244586,-2.26928 -0.902596,-2.94429 1.491706,-2.94429 2.228248,0 2.870778,0.98522 2.272678,3.48478 -0.83197,3.47703 -0.82767,3.47716 1.93352,0.0611 2.69206,-3.33051 2.79942,-3.27231 3.94702,2.13978 0.72717,3.4294 2.27312,5.61365 4.03031,5.69439 1.56786,0.072 4.42947,0.48693 6.35915,0.922 1.92967,0.43506 6.45057,1.24548 10.04645,1.80094 5.32779,0.82299 7.86609,2.72649 13.71326,10.28369 5.24773,6.7825 8.00791,9.01591 10.27468,8.31387 3.72423,-1.15344 3.89131,3.89739 0.2908,8.79053 -1.27016,1.72618 -0.43237,1.19839 1.86179,-1.17287 7.55743,-7.81145 11.35447,-6.48981 28.54405,9.93537 8.58668,8.20481 13.93852,12.51993 11.89299,9.58916 -2.0455,-2.93077 -3.22099,-5.81475 -2.61219,-6.40883 0.60881,-0.59407 -0.35703,-2.65865 -2.14629,-4.58794 -3.12317,-3.36761 -3.12487,-3.45976 -0.0423,-2.30545 2.32217,0.86954 2.97103,0.53457 2.3442,-1.2102 -0.4767,-1.3269 -2.15474,-2.30696 -3.72898,-2.17787 -1.57423,0.12907 -2.42944,-0.44867 -1.90047,-1.28386 0.52898,-0.83522 1.53885,-1.51856 2.24414,-1.51856 2.45386,0 15.37393,12.85292 15.05671,14.97843 -0.17564,1.17688 -0.41802,3.04437 -0.53863,4.14999 -0.12051,1.10563 -2.29994,0.14276 -4.84298,-2.13978 -3.8501,-3.45565 -4.30228,-3.57717 -2.70258,-0.72634 3.19596,5.6955 10.31326,11.21467 13.11103,10.16703 1.44738,-0.54198 3.14716,-0.1714 3.77729,0.82349 0.71552,1.12975 0.0416,1.39546 -1.79513,0.70772 -2.73278,-1.02331 -2.73878,-0.80036 -0.0849,3.15194 1.57072,2.33924 2.26101,4.83359 1.534,5.54301 -0.72701,0.70943 -0.44609,1.03311 0.62428,0.71926 1.94983,-0.57168 56.48196,53.06557 67.58287,66.47384 3.24701,3.92188 7.70741,8.11064 9.91202,9.30835 2.20464,1.19771 3.61088,3.18854 3.125,4.42408 -1.25286,3.18597 -0.95898,2.99584 7.33916,-4.74801 z m -5.7013,0.14716 c 0.5963,-0.9415 1.4323,-1.71182 1.85778,-1.71182 0.42547,0 0.77359,0.77032 0.77359,1.71182 0,0.94151 -0.83601,1.71183 -1.85779,1.71183 -1.02177,0 -1.36989,-0.77032 -0.77358,-1.71183 z M 184.12934,202.94113 c -6.26597,-6.11444 -6.23712,-6.03499 -2.67519,-7.36877 1.67382,-0.62677 2.27572,-0.31404 1.56262,0.81186 -0.63794,1.00724 1.04758,4.07968 3.74558,6.82768 6.54883,6.6702 4.23628,6.43236 -2.63301,-0.27077 z m -3.44537,-12.82644 c -0.94044,0.56717 -2.21367,0.23576 -2.82943,-0.73645 -0.61576,-0.97222 -1.79987,-1.35738 -2.63137,-0.85592 -0.83149,0.50147 -2.08304,0.0103 -2.7812,-1.09248 -0.81758,-1.29088 -0.5068,-1.54432 0.87323,-0.71205 1.42164,0.85738 1.95556,0.30339 1.58673,-1.64636 -0.34411,-1.81905 1.03066,-3.52377 3.6086,-4.47465 4.03864,-1.48969 4.08295,-1.41473 1.46681,2.48146 -2.19009,3.26163 -2.24551,4.01757 -0.29459,4.01757 1.3217,0 2.05178,-0.55466 1.62243,-1.23256 -0.42935,-0.6779 0.59215,-2.28273 2.26998,-3.56629 2.76061,-2.11187 2.82172,-2.04894 0.64302,0.66195 -1.90576,2.37125 -1.93623,2.99568 -0.14613,2.99568 1.24378,0 1.742,0.50687 1.10714,1.12636 -0.63484,0.61951 -0.17437,2.35273 1.02332,3.8516 1.9142,2.39561 1.81556,2.44859 -0.81551,0.43809 -1.64619,-1.25793 -3.76253,-1.82311 -4.70296,-1.25595 z m -31.77451,-6.82886 c 0,-1.46782 0.78941,-2.19267 1.75425,-1.61079 0.96484,0.58188 1.75425,1.78283 1.75425,2.66876 0,0.88594 -0.78941,1.61079 -1.75425,1.61079 -0.96484,0 -1.75425,-1.20094 -1.75425,-2.66876 z m -1.75424,-15.84854 c 0,-2.14061 13.96487,10.10286 16.23952,14.23775 1.03588,1.883 -2.19425,-0.38548 -7.17807,-5.04109 -4.98379,-4.6556 -9.06145,-8.7941 -9.06145,-9.19666 z m 11.76638,-11.31646 c -2.69444,-3.36296 -4.65075,-6.11447 -4.34739,-6.11447 0.30338,0 4.42082,3.46643 9.14991,7.70319 4.72908,4.23676 9.64569,7.70319 10.92582,7.70319 1.28011,0 2.32748,0.78598 2.32748,1.74661 0,3.17627 -13.06763,-4.8127 -18.05582,-11.03852 z m -20.53762,5.68513 c 0,-2.20134 1.01548,-1.89219 3.54182,1.07824 1.85386,2.17974 1.74534,2.43023 -0.66233,1.52867 -1.58372,-0.59303 -2.87949,-1.76614 -2.87949,-2.60691 z m -15.78823,-7.52005 c -2.41209,-1.34553 -3.5962,-2.44642 -2.63137,-2.44642 0.96484,0 3.72778,1.10089 6.13987,2.44642 2.41209,1.34552 3.59621,2.44641 2.63137,2.44641 -0.96484,0 -3.72778,-1.10089 -6.13987,-2.44641 z m -29.795341,-7.27524 c 0.04912,-2.34292 3.273969,-6.33668 4.304677,-5.3309 1.381908,1.34849 -0.819391,6.61476 -2.764974,6.61476 -0.861599,0 -1.554474,-0.57774 -1.539703,-1.28386 z M 109.4389,98.651729 c -0.5963,-0.941501 0.14648,-1.711821 1.65071,-1.711821 1.5042,0 2.73491,0.77032 2.73491,1.711821 0,0.941502 -0.74282,1.711821 -1.65071,1.711821 -0.9079,0 -2.13861,-0.770319 -2.73491,-1.711821 z m -9.64836,-4.279552 c -2.778429,-3.266836 -0.172793,-3.23371 4.28235,0.05444 2.72601,2.011997 2.85633,2.513295 0.65335,2.513295 -1.51351,0 -3.73458,-1.155479 -4.9357,-2.567731 z M 69.646731,81.162625 c 1.258778,-1.228337 2.075853,-1.329407 2.075853,-0.256773 0,2.284906 -2.07459,4.309323 -3.245357,3.166869 -0.498504,-0.486441 0.02772,-1.795984 1.169504,-2.910096 z M 149.85872,192.68799 c 0.63597,-1.00414 0.78008,-2.19284 0.32024,-2.64156 -0.45982,-0.44872 -1.30351,0.37285 -1.87485,1.82571 -1.18619,3.01641 -0.17525,3.54699 1.55461,0.81585 z M 89.877956,140.64596 c 0.64358,-1.63657 0.380531,-2.36557 -0.632985,-1.75432 -0.953785,0.57521 -1.734161,-0.24942 -1.734161,-1.83252 0,-2.36445 -0.469805,-2.49788 -2.631371,-0.74733 -1.447254,1.17206 -2.619284,3.38476 -2.604514,4.91711 0.02333,2.42645 0.24984,2.45463 1.754248,0.21835 1.413765,-2.10155 2.001561,-2.15318 3.237515,-0.28443 1.210712,1.83061 1.728443,1.72813 2.611268,-0.51686 z M 143.17162,92.482041 c -0.58292,-0.568823 -2.09596,-0.629639 -3.36231,-0.135148 -1.39942,0.546457 -0.98375,0.952085 1.05986,1.034225 1.84926,0.07433 2.88537,-0.330258 2.30245,-0.899082 z"
         id="path3160"
         inkscape:connector-curvature="0" />
      <path
         style="fill:#736c69"
         d="m 452.83777,452.24043 c 6.0998,-4.35241 2.29281,-10.86361 -4.39059,-7.50935 -3.59401,1.80377 -3.98933,5.39197 -0.87215,7.91642 1.54211,1.2489 3.11216,1.12744 5.26274,-0.40707 z m -11.84614,-0.9536 c 1.92967,-0.80916 2.49388,-1.52534 1.2538,-1.5915 -1.39333,-0.0743 -0.72314,-1.66904 1.75425,-4.17422 2.20491,-2.22965 4.51125,-3.77895 5.12518,-3.4429 0.61393,0.33606 1.54757,-0.99851 2.07475,-2.96568 1.24544,-4.64739 -2.28626,-12.16783 -5.20153,-11.07618 -1.2445,0.466 -2.80468,-0.009 -3.46707,-1.05426 -0.78901,-1.24576 -0.35464,-1.42855 1.2595,-0.53002 1.89853,1.05683 2.00124,0.8821 0.44764,-0.76147 -2.95156,-3.12251 -9.19878,-0.5506 -10.44657,4.30073 -0.58758,2.28449 -1.67164,3.78978 -2.40901,3.34509 -2.08781,-1.25913 -9.27304,5.56436 -7.99095,7.58864 1.94899,3.07727 4.07469,2.05259 11.35292,-5.47258 4.5224,-4.67583 7.05216,-6.30523 7.08035,-4.56035 0.0241,1.49317 -3.20586,5.56163 -7.17775,9.04105 l -7.22161,6.32617 3.98154,3.36965 c 4.40146,3.72506 4.58071,3.75606 9.58456,1.65783 z m -11.74577,-22.44514 c 4.15303,-3.82424 7.31067,-7.61314 7.01699,-8.4198 -0.48779,-1.33981 -17.19931,12.94017 -17.19931,14.69679 0,2.08277 3.33943,0.0241 10.18232,-6.27699 z m -7.17369,-0.009 c 3.00235,-1.85498 6.68101,-5.19289 8.17482,-7.41759 2.67517,-3.98408 2.26207,-4.47962 -27.4775,-32.96046 -59.21368,-56.70749 -77.07439,-73.25272 -78.62125,-72.83062 -0.86257,0.23537 -1.5683,-0.68384 -1.5683,-2.04272 0,-3.08273 -6.97768,-8.02601 -9.32818,-6.60846 -0.97566,0.5884 -1.1898,0.18124 -0.48769,-0.9273 0.68843,-1.08697 0.72669,-2.80524 0.0851,-3.81837 -0.68421,-1.08029 -2.92472,0.68254 -5.41784,4.26278 -2.33815,3.35767 -5.21473,5.9198 -6.3924,5.69365 -1.1777,-0.22615 -1.90224,0.67371 -1.61009,1.99968 0.29214,1.32598 -0.49727,3.13186 -1.75424,4.01308 -1.66563,1.1677 -1.45287,1.34088 0.78451,0.63856 1.72104,-0.54025 3.06993,-0.0955 3.06993,1.01225 0,1.08676 10.4597,11.90064 23.24378,24.03085 32.88913,31.20753 59.20579,57.83024 59.20579,59.89491 0,0.71186 0.87387,1.29429 1.94193,1.29429 1.0944,0 1.46714,-1.30743 0.85404,-2.99568 -0.65511,-1.80397 0.3015,-1.29323 2.40468,1.28386 1.92092,2.35376 3.51013,5.62761 3.53158,7.27524 0.0215,1.64763 0.71755,2.99569 1.54688,2.99569 0.82933,0 4.18433,2.73427 7.45555,6.07618 3.27122,3.3419 7.96198,7.5223 10.4239,9.28979 4.38787,3.1502 4.58395,3.14706 9.93502,-0.15903 z m -64.46512,-55.43415 c -2.38053,-3.16689 -2.3433,-3.24745 0.4964,-1.07427 1.68846,1.29217 3.06993,3.15377 3.06993,4.1369 0,0.98314 -0.22338,1.46656 -0.4964,1.07427 -0.27301,-0.39229 -1.65448,-2.2539 -3.06993,-4.1369 z m -16.5951,-14.53088 c -0.61458,-0.97036 0.0896,-1.25733 1.65072,-0.67276 3.03909,1.138 3.59513,2.36498 1.07177,2.36498 -0.9079,0 -2.13302,-0.7615 -2.72249,-1.69222 z m -12.83047,-16.32719 c 0.54011,-0.52705 1.52102,0.42301 2.17979,2.11124 0.952,2.43968 0.7505,2.6363 -0.98203,0.95828 -1.19888,-1.1612 -1.73788,-2.54247 -1.19776,-3.06952 z m 1.41545,-18.88577 c 0,-0.41518 0.78941,-0.75488 1.75424,-0.75488 0.96484,0 1.75425,0.81579 1.75425,1.81286 0,0.99706 -0.78941,1.33676 -1.75425,0.75487 -0.96483,-0.58188 -1.75424,-1.39766 -1.75424,-1.81285 z m -21.37258,-13.10852 c 1.25878,-1.22834 2.07586,-1.3294 2.07586,-0.25678 0,2.28491 -2.07459,4.30932 -3.24536,3.16687 -0.4985,-0.48643 0.0277,-1.79597 1.1695,-2.91009 z m 82.77123,98.14673 c 0,-0.9415 -0.78941,-2.18789 -1.75425,-2.76978 -0.96483,-0.58188 -1.75424,-0.28763 -1.75424,0.65387 0,0.9415 0.78941,2.18789 1.75424,2.76978 0.96484,0.58188 1.75425,0.28763 1.75425,-0.65387 z M 301.52897,306.63796 c 4.26112,-4.23675 7.13746,-7.70319 6.39186,-7.70319 -0.74559,0 -3.34836,2.31096 -5.78392,5.13546 -6.16395,7.14828 -8.83995,6.46149 -3.15625,-0.81001 4.25783,-5.44729 4.4123,-6.17473 1.84353,-8.68138 -1.54204,-1.50474 -2.80371,-3.45119 -2.80371,-4.32545 0,-0.87424 -0.73991,-1.58954 -1.64424,-1.58954 -0.90432,0 -18.37132,-16.29832 -38.81556,-36.21847 l -37.17134,-36.21847 -3.06188,3.96107 c -2.03969,2.63865 -4.06512,3.58541 -6.06688,2.83585 -3.61062,-1.35203 4.41553,8.94735 13.33191,17.10786 3.2392,2.96461 10.39741,9.89749 15.90713,15.40638 5.50971,5.5089 10.84802,10.78651 11.86291,11.72801 1.01488,0.94151 5.47051,5.56342 9.90141,10.27093 4.43087,4.70751 13.55042,14.13682 20.26562,20.95402 6.71521,6.81721 11.71709,13.17234 11.1153,14.12252 -2.18513,3.45009 0.29417,1.57098 7.88411,-5.97559 z m -33.98284,-34.28159 c -0.58258,-1.48146 -0.0353,-2.0156 1.48297,-1.4471 1.32351,0.49559 2.82194,1.95777 3.32981,3.24927 0.58259,1.48146 0.0353,2.0156 -1.48297,1.44711 -1.32351,-0.49559 -2.82193,-1.95778 -3.32981,-3.24928 z m -12.50471,-11.08166 c -0.5963,-0.9415 -0.29477,-1.71182 0.67007,-1.71182 0.96484,0 2.24212,0.77032 2.83842,1.71182 0.59631,0.9415 0.29477,1.71182 -0.67007,1.71182 -0.96483,0 -2.24212,-0.77032 -2.83842,-1.71182 z m -22.11567,-19.57282 c -1.52551,0.92003 -1.81658,0.42374 -0.98766,-1.68412 0.64639,-1.64371 1.23757,-4.27362 1.31374,-5.84425 0.11402,-2.34956 0.31373,-2.40059 1.12724,-0.28794 0.54382,1.41225 2.60427,4.87869 4.5788,7.70319 l 3.59001,5.13546 -3.7296,-3.16337 c -2.1379,-1.81332 -4.6527,-2.60668 -5.89253,-1.85897 z m -16.58074,-22.7222 c 0.66393,-1.68837 -0.25437,-4.72111 -2.19925,-7.26305 -3.32454,-4.34518 -8.19897,-5.91234 -8.25012,-2.65246 -0.014,0.9415 -0.68521,2.72489 -1.48985,3.9631 -1.17229,1.80399 -2.12548,1.66624 -4.79732,-0.69325 -1.83387,-1.61952 -3.33433,-2.19973 -3.33433,-1.28936 0,2.38001 8.84253,8.38766 14.28964,9.70842 3.45732,0.83831 4.93208,0.38593 5.78123,-1.7734 z m -4.28265,-2.21232 c 0,-0.9415 0.78941,-1.71182 1.75425,-1.71182 0.96484,0 1.75425,0.77032 1.75425,1.71182 0,0.9415 -0.78941,1.71182 -1.75425,1.71182 -0.96484,0 -1.75425,-0.77032 -1.75425,-1.71182 z m -5.26274,-12.77963 c 0,-0.4383 -2.17088,-2.98376 -4.82418,-5.65658 -2.6533,-2.67282 -7.35245,-7.69181 -10.44258,-11.15328 -3.09012,-3.46149 -6.10497,-5.52538 -6.69964,-4.58643 -0.59469,0.93895 -1.7106,1.32762 -2.47982,0.8637 -0.76922,-0.46391 -2.79371,0.66085 -4.49886,2.49944 -3.6255,3.90924 -6.18582,3.10903 -4.93898,-1.54363 0.96884,-3.61523 8.74703,-5.88218 10.00204,-2.91508 0.43989,1.04004 0.86214,0.58839 0.93831,-1.00367 0.0761,-1.59206 -0.65381,-3.3725 -1.62219,-3.95652 -2.4995,-1.50741 -0.12753,-9.67775 3.90845,-13.46237 4.00061,-3.75152 2.95273,-4.95923 -6.59562,-7.60162 -12.35002,-3.41772 -21.35345,-14.49723 -24.31308,-29.91937 -1.03816,-5.40968 -2.09769,-6.64661 -6.41514,-7.48922 -6.16409,-1.203 -6.51356,-2.89365 -1.33039,-6.43628 2.11266,-1.44399 3.28362,-3.16953 2.60213,-3.83455 -0.68149,-0.66501 -2.17321,-0.29757 -3.31495,0.81654 -4.49175,4.38312 -6.6577,1.89812 -2.32227,-2.66436 2.45114,-2.57951 4.45661,-5.59778 4.45661,-6.707278 0,-1.109494 0.26533,-3.043164 0.58961,-4.297045 0.32429,-1.25388 0.2585,-1.702041 -0.14613,-0.995915 -0.40469,0.706126 -1.56625,1.283865 -2.58126,1.283865 -1.015,0 -3.78464,2.041811 -6.15475,4.537356 -4.35324,4.583607 -4.77164,10.081147 -1.41352,18.572227 0.74471,1.883 -0.51647,0.93341 -2.80262,-2.1102 -2.28614,-3.04361 -4.68177,-5.54714 -5.3236,-5.56341 -0.64185,-0.0163 -3.37563,2.25387 -6.07506,5.04475 -3.48229,3.60026 -5.30129,4.4705 -6.2617,2.99569 -1.01275,-1.55518 -1.3604,-1.48596 -1.38051,0.27487 -0.0412,3.61371 25.86226,28.06147 28.22353,26.63741 1.2497,-0.75367 1.71747,-0.3164 1.21986,1.14033 -0.8808,2.57839 2.48749,6.67289 5.48934,6.67289 1.03376,0 1.87955,0.87254 1.87955,1.93898 0,1.06645 1.69961,3.37741 3.77692,5.13547 2.07731,1.75806 3.07212,3.19647 2.21073,3.19647 -0.8614,0 0.59664,1.95697 3.24008,4.34883 2.64344,2.39186 4.80625,5.14043 4.80625,6.10793 0,1.64511 -3.53256,-0.51788 -13.98493,-8.56298 -2.38511,-1.83581 -4.9111,-2.99134 -5.61329,-2.56786 -0.70219,0.42349 -2.09611,-0.72407 -3.09761,-2.55013 -1.99928,-3.64534 -27.75804,-29.34922 -45.71981,-45.6224 -6.271434,-5.68186 -14.165546,-13.5602 -17.542472,-17.507416 -6.852879,-8.010204 -9.558981,-9.175418 -7.902358,-3.402672 1.083844,3.77685 1.03855,3.770537 -2.33364,-0.325339 l -3.438921,-4.176933 0.882036,4.502457 c 0.485119,2.476351 2.375075,5.820957 4.199896,7.432463 2.47747,2.18786 2.833688,3.49929 1.406327,5.17756 -1.417046,1.66614 -1.054548,3.48093 1.401328,7.0154 1.822084,2.62231 4.855932,8.02481 6.741905,12.00555 3.388241,7.15157 7.710215,10.87657 7.925865,6.83109 0.06122,-1.14733 0.85209,-0.28169 1.75765,1.92363 0.905543,2.20533 1.209203,4.70005 0.674806,5.54381 -0.534396,0.84377 0.173671,1.10527 1.573402,0.58112 3.007306,-1.1261 5.531646,1.97279 2.899929,3.55995 -0.996307,0.60086 -1.357314,1.80957 -0.8022,2.68602 0.555097,0.87644 -0.124779,1.59353 -1.510845,1.59353 -1.386048,0 -3.495619,1.147 -4.68791,2.54889 -1.192309,1.40188 -2.762273,2.19037 -3.488847,1.75219 -2.488768,-1.50095 -6.974957,5.03458 -5.286196,7.70098 1.306844,2.06337 2.614916,1.54939 7.366803,-2.89465 6.442596,-6.02521 11.993822,-7.76496 13.278972,-4.16162 0.51411,1.44151 0.0731,1.91064 -1.11981,1.19122 -1.08235,-0.65276 -3.355647,-0.33804 -5.051759,0.69937 -2.672174,1.63442 -2.556956,1.74564 0.86323,0.8332 2.486309,-0.66331 3.947059,-0.29923 3.947059,0.98378 0,1.50126 0.61379,1.53969 2.3345,0.14617 1.76096,-1.42614 3.26935,-1.04071 6.13986,1.5689 2.09294,1.90273 3.80537,4.09971 3.80537,4.88218 0,1.98665 15.09442,5.91172 17.39613,4.52359 1.93851,-1.16909 10.67182,6.81793 10.67182,9.75987 0,0.90475 1.18412,1.20161 2.63137,0.65966 1.44726,-0.54192 2.63138,-0.30336 2.63138,0.53012 0,0.8335 -0.87597,1.80037 -1.9466,2.14863 -1.21131,0.39399 -0.86483,1.50926 0.91727,2.95249 2.45169,1.98553 2.71465,1.93984 1.82702,-0.31737 -0.57029,-1.45018 -0.19365,-3.14523 0.83697,-3.76679 1.0306,-0.62155 1.87383,-0.26884 1.87383,0.78379 0,1.05263 0.91138,1.36424 2.0253,0.69245 1.2088,-0.72901 1.55087,-0.47236 0.84851,0.63659 -0.64723,1.02192 -0.48095,2.27768 0.36951,2.79059 0.85048,0.51292 1.31218,3.06968 1.02603,5.68171 -0.43311,3.95316 -0.17297,4.30749 1.55222,2.11405 4.0951,-5.20661 10.39932,-3.63584 19.43931,4.84353 4.72754,4.43436 7.34319,6.2276 5.81256,3.98498 -2.50035,-3.66338 -2.5118,-4.48138 -0.1128,-8.05419 2.30726,-3.43615 3.17664,-3.6963 6.396,-1.91387 2.04919,1.13455 6.07396,4.56636 8.94393,7.62624 4.47119,4.76701 9.83534,7.36666 9.83534,4.76653 z M 177.5089,191.51801 c -0.0756,-4.25223 2.78212,-7.24076 5.8318,-6.09879 2.12796,0.79682 1.89063,1.70799 -1.31117,5.03371 -4.67021,4.851 -4.45421,4.8001 -4.52063,1.06508 z M 141.33869,164.7035 c -3.6815,-2.62458 -6.29894,-5.15712 -5.81652,-5.62788 1.88578,-1.84016 29.17552,20.69971 29.17552,24.09742 0,0.98832 -3.74971,-1.68933 -8.33268,-5.95031 -4.58297,-4.261 -11.34482,-9.89465 -15.02632,-12.51923 z m 25.14947,-1.16618 c -4.36169,-2.91449 -9.90387,-8.41599 -12.31596,-12.22556 -2.41209,-3.80958 -5.46635,-8.0094 -6.78727,-9.33293 -1.32089,-1.32354 -2.02305,-2.77588 -1.56031,-3.22742 0.46273,-0.45154 3.07693,2.08868 5.80933,5.64493 6.38283,8.30736 20.31215,20.92983 23.15066,20.97867 2.27396,0.0391 3.17698,3.46137 0.91335,3.46137 -0.7037,0 -4.84811,-2.38458 -9.2098,-5.29906 z m -41.58673,-7.56206 c -3.49407,-1.42461 -5.95816,-2.97536 -5.47574,-3.44611 0.97387,-0.95032 13.69555,3.88305 13.69555,5.20337 0,1.31672 -1.43038,1.01093 -8.21981,-1.75726 z m -42.653362,1.94389 c 0,-0.35547 1.38147,-1.70353 3.069932,-2.99568 2.782342,-2.12929 2.84439,-2.06874 0.662334,0.6463 -2.291696,2.85147 -3.732266,3.75827 -3.732266,2.34938 z m 23.757262,-9.50633 c -1.75765,-2.77516 2.06173,-3.61849 4.32673,-0.95535 1.76259,2.07245 1.65515,2.54889 -0.57483,2.54889 -1.50845,0 -3.1968,-0.7171 -3.7519,-1.59354 z m 35.01002,-18.94832 c 0.5963,-0.9415 1.43231,-1.71182 1.85778,-1.71182 0.42548,0 0.77359,0.77032 0.77359,1.71182 0,0.94151 -0.836,1.71183 -1.85778,1.71183 -1.02178,0 -1.36989,-0.77032 -0.77359,-1.71183 z M 83.363997,110.68674 c 0.965468,-0.94211 4.080502,3.47216 4.119955,5.83833 0.01403,0.88608 -1.092721,0.11697 -2.461086,-1.70913 -1.368366,-1.82609 -2.11485,-3.68423 -1.658869,-4.1292 z m 102.384653,88.10651 c -1.20111,-1.41225 -2.57855,-2.56773 -3.06096,-2.56773 -0.48242,0 0.1056,1.15548 1.30672,2.56773 1.20111,1.41225 2.57855,2.56773 3.06097,2.56773 0.48241,0 -0.10561,-1.15548 -1.30673,-2.56773 z m -73.67838,-34.9913 c 0,-0.99707 -0.78941,-1.81285 -1.75425,-1.81285 -0.96483,0 -1.75424,0.3397 -1.75424,0.75489 0,0.41518 0.78941,1.23096 1.75424,1.81284 0.96484,0.58188 1.75425,0.24218 1.75425,-0.75488 z m -31.576449,-0.85591 c 0,-0.41519 -0.789412,-1.23097 -1.754248,-1.81285 -0.964836,-0.58188 -1.754247,-0.24218 -1.754247,0.75488 0,0.99707 0.789411,1.81285 1.754247,1.81285 0.964836,0 1.754248,-0.3397 1.754248,-0.75488 z m 7.617081,-24.1537 c -0.536501,-1.3643 -1.680411,-2.48055 -2.542027,-2.48055 -2.521941,0 -1.799278,2.97021 0.975467,4.00923 1.699024,0.6362 2.218544,0.12926 1.56656,-1.52868 z m 34.128928,-23.82445 c 2.26232,-3.53018 1.99829,-7.62169 -0.65919,-10.21489 -4.10571,-4.00641 -1.42536,-6.246062 4.11476,-3.43822 2.89407,1.46679 5.02769,1.75562 5.38286,0.72869 0.32362,-0.93569 1.22766,-1.31572 2.009,-0.84451 0.78132,0.47121 1.7975,-0.10173 2.25819,-1.273198 0.51689,-1.314434 -0.69191,-2.129943 -3.15717,-2.129943 -2.19711,0 -3.62884,0.577739 -3.18161,1.283865 0.44723,0.706126 0.0237,1.283866 -0.94112,1.283866 -0.96484,0 -2.28463,-0.837428 -2.93287,-1.860951 -0.64825,-1.023524 -2.66837,-1.480801 -4.48916,-1.016171 -3.03511,0.774506 -4.17077,-0.748099 -3.44353,-4.616834 0.15525,-0.826421 -1.43327,-1.064761 -3.53027,-0.529646 -2.28325,0.582644 -4.91934,-0.106903 -6.57132,-1.718947 -2.50864,-2.447964 -2.36862,-2.595295 1.54519,-1.625932 2.3671,0.586274 3.30751,0.620613 2.08984,0.07631 -1.21768,-0.544305 -4.6106,-4.388791 -7.53983,-8.543303 -2.92922,-4.154516 -6.457011,-7.553663 -7.839534,-7.553663 -3.541895,0 -5.483583,8.510076 -2.37939,10.428449 1.5884,0.981616 1.706514,1.510952 0.340973,1.528084 -1.149102,0.01438 -2.584568,-0.755777 -3.189888,-1.711543 -0.605338,-0.955768 -3.90599,-2.881567 -7.334771,-4.279553 -7.13198,-2.907865 -9.890937,-3.264029 -5.367102,-0.692859 1.688463,0.959655 3.069933,3.567618 3.069933,5.795476 0,2.727074 2.433088,5.915529 7.4462,9.757909 4.095413,3.138993 11.565156,9.705741 16.599429,14.592781 8.84507,8.58637 14.95648,10.85643 17.70038,6.57473 z M 101.67432,96.326648 c -2.340831,-1.07496 -4.634615,-3.084536 -5.097263,-4.465728 -0.677735,-2.023293 0.0521,-1.940138 3.755813,0.427956 2.52832,1.616566 6.59828,2.939211 9.04432,2.939211 2.86866,0 4.44733,0.952413 4.44733,2.683088 0,2.840205 -3.5123,2.382155 -12.1502,-1.584527 z M 70.711822,110.42348 c -0.656141,-1.03598 -0.127884,-2.52591 1.173767,-3.31096 1.301722,-0.78504 1.835153,-1.9461 1.185415,-2.58013 -1.07902,-1.05293 -6.611161,3.08143 -6.611161,4.94076 0,0.43727 1.225113,1.25379 2.722486,1.81448 1.711847,0.64102 2.279627,0.32023 1.529493,-0.86415 z m -3.374856,-6.63629 c 0.596304,-0.9415 0.248191,-1.71182 -0.773588,-1.71182 -1.021778,0 -1.857783,0.77032 -1.857783,1.71182 0,0.9415 0.348113,1.71182 0.773588,1.71182 0.425476,0 1.26148,-0.77032 1.857783,-1.71182 z m 1.197397,-22.539371 c 2.788271,-3.353287 2.720065,-3.750387 -1.32151,-7.694217 -2.343832,-2.287147 -4.261505,-4.976169 -4.261505,-5.975604 0,-0.999436 -1.225113,-1.358405 -2.722486,-0.797708 -1.56114,0.58458 -2.265295,0.297598 -1.650712,-0.672765 0.589462,-0.930717 -0.55364,-1.692213 -2.540255,-1.692213 -1.986615,0 -3.61203,1.100456 -3.61203,2.445457 0,3.153031 4.788235,7.825468 8.019418,7.825468 1.37833,0 2.382742,0.57774 2.232034,1.283866 -0.15069,0.706126 0.443948,2.97803 1.321492,5.048676 l 1.595558,3.764811 2.939996,-3.535771 z"
         id="path3158"
         inkscape:connector-curvature="0" />
      <path
         style="fill:#645b57"
         d="m 453.79763,450.94446 c 2.48495,-2.42484 2.795,-6.50492 0.49433,-6.50492 -3.9984,0 -7.16047,2.34871 -7.16047,5.31861 0,3.65591 3.49749,4.27832 6.66614,1.18631 z m -12.36744,-1.50657 c -1.68846,-0.95965 -3.05785,-2.66945 -3.04307,-3.79954 0.0202,-1.54405 0.34994,-1.55918 1.3268,-0.0609 0.97343,1.49307 2.09457,1.42685 4.46373,-0.26362 1.99597,-1.4242 2.47752,-2.67137 1.30457,-3.37876 -1.02257,-0.6167 -1.84713,-2.03871 -1.83236,-3.16002 0.0176,-1.33277 0.55972,-1.21772 1.56569,0.3323 1.23426,1.90176 1.92335,1.66991 3.48163,-1.17133 2.39345,-4.36405 2.72415,-9.33304 0.38098,-5.72447 -1.11721,1.72055 -1.83743,1.80257 -2.77867,0.31645 -1.6014,-2.52838 -7.93923,2.63716 -7.93923,6.47082 0,1.42326 -0.51943,2.08087 -1.15428,1.46136 -1.31402,-1.28224 -5.86271,1.93376 -5.86271,4.14504 0,0.80206 2.32903,2.63353 5.17562,4.06996 5.73613,2.89451 9.76217,3.51979 4.9113,0.76275 z m -6.97732,-14.24225 c 2.98517,-3.20115 4.95397,-6.28243 4.37511,-6.84728 -0.57886,-0.56487 -0.13149,-1.02702 0.99415,-1.02702 1.12564,0 2.04662,-0.74615 2.04662,-1.65811 0,-2.87634 -4.67325,-0.0476 -7.03474,4.25821 -1.2459,2.27169 -3.05768,3.65244 -4.02618,3.06835 -0.9685,-0.58409 -1.24876,-0.25335 -0.62281,0.73497 0.62595,0.9883 -0.0415,2.23863 -1.4832,2.77849 -2.76927,1.03697 -3.65418,4.51265 -1.14892,4.51265 0.80981,0 3.9148,-2.61912 6.89997,-5.82026 z m -4.82254,-7.25846 c 3.88762,-3.42729 6.71862,-6.57276 6.2911,-6.98993 -0.42751,-0.41717 -4.00072,2.38696 -7.94047,6.23144 -8.88721,8.67227 -7.86209,9.14369 1.64937,0.75849 z m -8.06073,0.11777 c 1.51617,-1.47947 2.75668,-2.1907 2.75668,-1.58045 0,0.61023 2.01577,-1.22815 4.47949,-4.08531 l 4.47949,-5.19482 -11.93504,-11.03438 c -7.99775,-7.39419 -12.39321,-10.38272 -13.32388,-9.05904 -0.92219,1.31163 -1.2169,1.08937 -0.87712,-0.66151 0.58978,-3.03915 -21.23864,-25.91743 -23.4536,-24.58163 -0.8092,0.48802 -1.47128,0.0261 -1.47128,-1.02656 0,-1.05264 -0.70028,-1.49155 -1.55618,-0.97536 -0.8559,0.51618 -1.44796,-0.31835 -1.31568,-1.85451 0.13227,-1.53617 -0.85615,-3.16844 -2.1965,-3.62729 -1.63032,-0.55812 -1.97611,-0.10665 -1.04464,1.36411 0.91978,1.45224 0.69525,1.77797 -0.66155,0.9597 -1.12965,-0.68127 -1.62305,-1.91897 -1.09644,-2.75043 0.52661,-0.83147 -2.74789,-4.82242 -7.27665,-8.86878 -4.52877,-4.04636 -10.99414,-10.24572 -14.3675,-13.77635 -3.37336,-3.53063 -7.1375,-6.41933 -8.36475,-6.41933 -1.22725,0 -2.69283,-1.41879 -3.25685,-3.15288 -0.56402,-1.7341 -3.11274,-5.00795 -5.66383,-7.27524 -4.42351,-3.93142 -4.21118,-1.87814 0.37028,3.58084 1.34045,1.59718 1.61773,3.86179 0.73361,5.99137 -1.20782,2.90919 -1.43992,2.9735 -1.54468,0.42795 -0.22309,-5.42022 -3.448,-3.12479 -4.69062,3.33869 -0.80809,4.20339 -0.53976,6.55492 0.79764,6.98994 1.10848,0.36055 2.01542,1.59962 2.01542,2.75345 0,1.15385 1.18605,3.5932 2.63567,5.42077 2.22383,2.80364 2.46743,2.85173 1.55894,0.30777 -0.8107,-2.27008 -0.37829,-2.75355 1.74994,-1.95663 1.55468,0.58216 2.82669,1.87475 2.82669,2.87246 0,0.99768 0.41328,1.41067 0.91842,0.91775 2.11119,-2.06012 -1.40543,-6.23357 -4.72662,-5.60944 -2.49246,0.4684 -3.24793,-0.0555 -2.56921,-1.78138 0.52878,-1.34467 0.20651,-2.90015 -0.71619,-3.45661 -0.9227,-0.55648 -1.67764,-2.24117 -1.67764,-3.74377 0,-2.39023 0.43376,-2.34898 3.46713,0.3298 1.90692,1.68401 2.96906,3.84821 2.36032,4.80936 -0.61608,0.97273 -0.24788,1.22952 0.83048,0.57918 2.53947,-1.53152 6.18227,5.21037 5.06598,9.37583 -0.47917,1.78805 -0.2391,2.86978 0.5335,2.40384 0.7726,-0.46596 2.60503,2.08014 4.07208,5.65796 1.46704,3.57785 4.04576,7.61702 5.73049,8.97597 2.79939,2.25806 2.8896,2.17602 1.04767,-0.95283 -3.14014,-5.33409 -9.08436,-21.95794 -8.17044,-22.84976 0.90901,-0.88702 11.3765,20.88995 11.3765,23.66808 0,0.96218 0.77437,1.74941 1.72083,1.74941 0.94645,0 2.22247,1.95038 2.83559,4.33419 1.03976,4.04252 1.27435,4.12891 3.48613,1.28387 1.55466,-1.9998 2.39057,-2.27861 2.42714,-0.80952 0.0307,1.23244 0.83616,1.77016 1.78995,1.19495 0.95378,-0.57522 1.31984,0.009 0.81347,1.29539 -0.50638,1.28768 0.20765,4.46352 1.58674,7.05742 1.6471,3.09801 2.82523,3.94041 3.43365,2.45518 0.54231,-1.32382 0.98364,-0.8151 1.06473,1.22729 0.0762,1.91858 2.50222,6.15533 5.39123,9.41502 2.88901,3.2597 4.77808,4.57866 4.19794,2.93103 -1.71726,-4.87706 0.51355,-3.43004 4.55886,2.9571 2.07361,3.27403 4.30888,5.87892 4.96725,5.78866 3.68488,-0.50524 5.35531,0.53946 4.46848,2.7946 -0.57247,1.45577 0.20093,3.00452 1.79923,3.60302 1.54182,0.57733 2.49599,1.54674 2.12038,2.15419 -0.3756,0.60748 0.41834,2.09777 1.76433,3.31178 1.94465,1.75396 2.44724,1.76362 2.44724,0.0471 0,-1.1881 1.22888,-0.44815 2.73084,1.64433 3.23714,4.50989 4.85125,4.72038 8.54646,1.11453 z m -6.37622,-3.05099 c 0.28351,-1.54994 -0.30855,-2.81809 -1.31568,-2.81809 -1.00714,0 -1.83115,-0.77032 -1.83115,-1.71182 0,-3.71994 3.2702,-1.41812 5.04554,3.55147 1.44539,4.04599 1.38365,5.09367 -0.26695,4.52992 -1.18097,-0.40336 -1.91526,-2.00151 -1.63176,-3.55146 z m 3.87016,-1.10627 c 0,-0.9415 0.836,-1.71182 1.85777,-1.71182 1.02178,0 1.3699,0.77032 0.7736,1.71182 -0.5963,0.94151 -1.4323,1.71182 -1.85778,1.71182 -0.42548,0 -0.77359,-0.77031 -0.77359,-1.71182 z m -30.77346,-31.62445 c -1.29976,-4.21431 -1.78132,-8.01332 -1.07013,-8.44224 0.71119,-0.42889 1.40961,0.72992 1.55206,2.57516 0.14244,1.84524 2.27984,7.66237 4.74977,12.92694 2.46994,5.26455 4.47749,10.05659 4.46124,10.64893 -0.0772,2.81493 -7.60446,-10.93713 -9.69294,-17.70879 z m -5.40138,4.66328 c -0.6362,-2.58913 -2.13006,-6.63331 -3.31968,-8.98706 -3.15852,-6.24938 -5.11908,-13.57399 -2.74919,-10.27093 1.17909,1.64338 1.85197,1.81912 1.86916,0.48818 0.0147,-1.14376 1.58792,-2.89479 3.49588,-3.89121 2.82684,-1.47629 3.27992,-1.3308 2.44755,0.78586 -0.56181,1.42862 -1.63841,2.22544 -2.39245,1.77067 -1.83655,-1.10759 -3.78675,6.46156 -1.96653,7.63253 2.74209,1.76404 5.61087,8.70814 4.39235,10.63206 -0.75363,1.1899 -0.44563,1.46831 0.796,0.71949 1.28042,-0.7722 2.0253,0.0749 2.0253,2.30324 0,5.14498 -3.24886,4.30929 -4.59839,-1.18283 z m -22.54109,-33.03365 c 1.84343,-2.91059 4.53234,0.19899 3.34056,3.86317 -0.62503,1.92168 -0.45979,3.08625 0.3672,2.58793 0.827,-0.49831 1.62633,1.13845 1.7763,3.63723 0.24767,4.12663 -0.0402,3.94972 -3.13979,-1.92926 -1.87686,-3.55987 -2.93178,-7.23145 -2.34427,-8.15907 z m 14.181,8.32697 c 0.50665,-0.79994 1.65604,-1.01126 2.55421,-0.46957 2.29522,1.38421 2.03678,1.92402 -0.92117,1.92402 -1.40482,0 -2.13968,-0.6545 -1.63304,-1.45445 z m -18.45212,-21.69081 c 2.59262,-0.86952 3.90962,0.89391 2.4219,3.24287 -0.94318,1.48919 -1.6544,1.40799 -2.75082,-0.31406 -0.86857,-1.36419 -0.73285,-2.5727 0.32892,-2.92881 z m -8.90266,-9.33141 c -3.34253,-4.20098 -3.54746,-4.87347 -0.88402,-2.90097 5.01701,3.71551 7.86658,6.46159 7.86658,7.58092 0,2.35897 -2.9611,0.37434 -6.98256,-4.67995 z m -2.45802,3.00149 c -0.59907,-1.52338 -0.30498,-2.21051 0.68944,-1.61079 0.95378,0.57521 1.73415,1.77071 1.73415,2.65665 0,2.46233 -1.25738,1.91973 -2.42359,-1.04586 z m -19.48617,-6.5461 c -2.42218,-6.27949 -4.40395,-12.31722 -4.40395,-13.41719 0,-3.14677 5.14456,4.30335 5.20696,7.54047 0.0898,4.6562 2.58032,4.85608 4.74468,0.38076 1.35345,-2.79859 1.38957,-3.76736 0.11174,-2.9967 -1.23834,0.74682 -1.45188,0.0289 -0.62039,-2.08549 0.69739,-1.77338 0.7341,-2.70339 0.0816,-2.06668 -0.65249,0.63671 -3.85185,-0.82625 -7.1097,-3.25104 -4.02121,-2.99295 -5.94049,-3.65631 -5.9767,-2.06574 -0.0356,1.56329 -0.65523,1.33411 -1.86206,-0.68873 -1.8878,-3.16425 -5.12116,-2.5316 -5.07472,0.99294 0.0158,1.24055 0.72401,1.03346 1.80754,-0.52899 1.34594,-1.94086 1.52814,-1.50026 0.74624,1.80484 -0.7807,3.3 0.1256,5.50448 3.69441,8.98706 2.60088,2.53796 3.86027,4.61449 2.79863,4.61449 -2.48966,0 -10.82793,-11.94021 -10.82793,-15.50537 0,-1.50032 2.14699,-4.59536 4.7711,-6.87787 2.62411,-2.28249 3.85338,-2.96867 2.73171,-1.52484 -2.25445,2.902 -1.01632,5.59339 3.02267,6.5706 7.89906,1.91111 9.55621,1.98815 5.51795,0.25654 -2.27171,-0.97413 -3.81912,-2.72907 -3.43867,-3.89989 0.38046,-1.17082 -1.48638,-4.17405 -4.1485,-6.67386 l -4.84023,-4.54509 -6.06524,6.55112 c -6.26382,6.76563 -6.79032,11.44676 -1.74684,15.53127 3.19267,2.5856 3.13094,-0.14345 -0.10526,-4.65205 -2.35248,-3.2774 -2.06433,-3.99306 3.77193,-9.36795 6.30194,-5.80376 6.45909,-3.88538 0.23621,2.88339 -2.99022,3.25252 -3.0572,4.08349 -0.75885,9.41501 1.38647,3.21619 6.93508,10.39005 12.33025,15.94193 l 9.80938,10.09432 -4.40395,-11.41726 z M 298.66558,303.053 c 2.62197,-3.20653 4.1415,-5.84826 3.37674,-5.87052 -0.76477,-0.0222 -3.69825,-3.08468 -6.51887,-6.80538 -4.1351,-5.45464 -5.91892,-6.57132 -9.2098,-5.76534 -2.43367,0.59604 -4.0814,0.23358 -4.0814,-0.8978 0,-1.04358 0.88607,-1.8974 1.96904,-1.8974 1.30732,0 1.18768,-0.91872 -0.35594,-2.73369 -2.11113,-2.48224 -2.44228,-2.44287 -3.59999,0.42795 -1.03117,2.557 -1.29858,2.28068 -1.3983,-1.44482 -0.15762,-5.88836 -3.6318,-8.20993 -3.6318,-2.4269 0,2.36253 -1.38147,5.0566 -3.06993,5.9868 -2.76136,1.52129 -2.43223,2.34715 3.2745,8.21621 3.48944,3.58871 9.07461,9.34103 12.41149,12.78294 l 6.06706,6.258 4.7672,-5.83005 z m 6.50467,-0.26663 4.25283,-4.70751 -4.82418,4.14998 c -4.50892,3.8788 -5.62866,5.26503 -4.25283,5.26503 0.31422,0 2.4851,-2.11837 4.82418,-4.7075 z m -34.05494,-23.6467 c 0.64828,-1.64854 -0.44055,-3.6975 -2.83425,-5.33357 -2.88109,-1.96918 -3.37582,-3.15544 -1.91182,-4.58404 1.46401,-1.4286 2.40323,-1.26659 3.62947,0.62607 1.04066,1.60622 1.66429,1.78175 1.6812,0.47321 0.0539,-4.17318 -23.6169,-28.63095 -26.20124,-27.07238 -1.10469,0.66623 -1.35358,-0.049 -0.64453,-1.8521 0.78373,-1.99294 0.49524,-2.53947 -0.89721,-1.6997 -1.26988,0.76585 -2.05236,0.0897 -2.05236,-1.77336 0,-2.21765 -0.51635,-2.50727 -1.95946,-1.09906 -1.93676,1.88992 -1.26994,3.21973 4.76604,9.50482 1.40996,1.46816 1.29551,2.62771 -0.42511,4.30672 -2.31329,2.25732 -6.69834,1.31692 -5.16299,-1.10724 0.43132,-0.68102 -0.8609,-1.35912 -2.87158,-1.50692 -2.89917,-0.21311 -1.81454,1.51862 5.24069,8.36723 7.4539,7.23559 9.41757,8.3403 12.11001,6.8127 2.51408,-1.42641 2.64077,-1.87871 0.58213,-2.0781 -1.44726,-0.1402 -3.61814,-0.12993 -4.82418,0.0229 -3.1604,0.40048 -2.69968,-2.20171 1.15836,-6.54249 1.84315,-2.07377 3.82159,-3.02775 4.39655,-2.11996 0.57495,0.9078 0.0537,1.99696 -1.15837,2.42038 -1.41371,0.49384 -0.45196,2.14214 2.6827,4.59778 3.27773,2.56771 4.55664,4.84194 3.8847,6.90788 -0.69377,2.13302 0.77023,4.44257 4.76192,7.51217 3.17001,2.43776 4.7769,4.44081 3.57086,4.45125 -1.20605,0.0103 -2.19281,0.78931 -2.19281,1.73081 0,2.71298 3.51007,1.98781 4.67128,-0.96508 z m -9.93402,-11.01768 c 0,-0.9415 0.78941,-1.71182 1.75424,-1.71182 0.96484,0 1.75425,0.77032 1.75425,1.71182 0,0.94151 -0.78941,1.71183 -1.75425,1.71183 -0.96483,0 -1.75424,-0.77032 -1.75424,-1.71183 z m -16.16832,-15.72021 c 2.67412,-2.60945 4.30299,-1.01997 2.81983,2.75161 -0.81592,2.07482 -1.6968,2.39556 -3.02352,1.10093 -1.32672,-1.29464 -1.26737,-2.41706 0.20369,-3.85254 z m 17.04544,22.5675 c -1.74634,-1.883 -3.56986,-3.42364 -4.05228,-3.42364 -0.48241,0 0.5517,1.54064 2.29803,3.42364 1.74634,1.883 3.56986,3.42364 4.05228,3.42364 0.48242,0 -0.5517,-1.54064 -2.29803,-3.42364 z m -30.69933,-31.66869 c -1.20111,-1.41225 -2.57855,-2.56773 -3.06097,-2.56773 -0.48241,0 0.10561,1.15548 1.30673,2.56773 1.20111,1.41225 2.57855,2.56773 3.06096,2.56773 0.48242,0 -0.1056,-1.15548 -1.30672,-2.56773 z m 0,-5.69298 c 0,-1.10562 -0.69364,-2.01021 -1.54142,-2.01021 -0.84777,0 -2.51917,-2.30339 -3.71418,-5.11865 -1.87127,-4.40837 -2.99573,-5.0616 -8.10343,-4.70751 -3.26186,0.22613 -5.93223,0.45319 -5.93418,0.50457 -0.0353,0.93843 12.28749,12.74523 13.30223,12.74523 0.78646,0 0.48265,-0.92438 -0.67516,-2.05418 -4.1376,-4.03754 -2.01821,-5.31024 2.28052,-1.36946 2.41209,2.21124 4.38562,3.11584 4.38562,2.01021 z m -29.8222,-37.7564 c 0,-0.9415 -0.78941,-2.1879 -1.75425,-2.76978 -0.96483,-0.58188 -1.75424,-0.28764 -1.75424,0.65386 0,0.9415 0.78941,2.1879 1.75424,2.76978 0.96484,0.58188 1.75425,0.28764 1.75425,-0.65386 z m -22.80521,-0.7121 c 0,-2.37344 -4.18131,-9.76087 -5.52467,-9.76087 -2.11087,0 -1.06578,-8.51032 1.0831,-8.81984 0.99561,-0.14345 2.59961,-0.43971 3.56444,-0.65845 0.96484,-0.21875 2.32677,-0.48658 3.02652,-0.59518 0.69975,-0.10853 0.52192,-2.12326 -0.39515,-4.47701 -1.14757,-2.94535 -1.07025,-4.27955 0.24802,-4.27955 1.05349,0 1.50228,-1.54171 0.99731,-3.42601 -0.57824,-2.15767 -0.22695,-3.00917 0.94885,-2.30005 1.19619,0.7214 1.51156,-0.20034 0.87776,-2.56537 -0.92649,-3.45725 1.01806,-5.23768 2.62937,-2.40745 0.40202,0.70612 0.60446,0.52843 0.44986,-0.39487 -0.15455,-0.9233 -3.32553,-2.38131 -7.04653,-3.24003 -8.31786,-1.91955 -17.65214,-9.93454 -20.49068,-17.59458 -1.16819,-3.15244 -2.62811,-5.7317 -3.24424,-5.7317 -0.61614,0 -1.99566,-1.87485 -3.06561,-4.16633 -1.46442,-3.13632 -1.42561,-4.37252 0.157,-5.00032 1.33633,-0.53012 1.14356,-0.89278 -0.52903,-0.99535 -2.18814,-0.13417 -2.22268,-0.41393 -0.205,-1.66089 1.78486,-1.10308 0.9732,-1.81099 -3.06993,-2.67753 -5.93853,-1.27278 -6.66907,-2.50048 -3.39121,-5.69907 1.15781,-1.1298 1.49613,-2.05418 0.75182,-2.05418 -3.03867,0 -6.09508,4.91855 -5.17947,8.33514 1.36939,5.10992 -1.94963,4.56294 -4.42031,-0.72848 -1.12381,-2.40684 -2.82934,-3.90202 -3.79007,-3.32261 -0.96077,0.5794 -1.74683,-0.29859 -1.74683,-1.9511 0,-2.36286 -1.2423,-1.8296 -5.81664,2.49681 -3.19916,3.02575 -6.53065,4.91008 -7.4033,4.1874 -0.87266,-0.72269 3.02066,3.43948 8.65183,9.24925 5.63115,5.80977 12.12029,11.0241 14.42028,11.5874 2.29999,0.56331 4.18181,1.77983 4.18181,2.7034 0,0.92356 0.72689,1.6792 1.61533,1.6792 0.88842,0 -0.2957,-3.5072 -2.63137,-7.79377 -4.94574,-9.07668 -4.99603,-9.32444 -1.89301,-9.32444 1.29453,0 3.32959,3.17847 4.52234,7.06326 2.38653,7.77287 13.7654,20.63438 24.94329,28.19331 3.94009,2.66445 6.34024,5.11235 5.33365,5.43977 -2.40081,0.78091 -12.84156,-4.52342 -15.76023,-8.00685 -1.9687,-2.34965 -2.0388,-2.22437 -0.50027,0.8939 0.98411,1.99459 1.24907,4.15368 0.58881,4.79798 -0.66028,0.6443 0.28642,0.61468 2.10375,-0.0658 2.07985,-0.77882 2.8934,-0.58863 2.19552,0.51324 -0.60979,0.9628 0.0251,3.21208 1.41068,4.99842 3.32288,4.28369 3.32263,6.79495 -4e-4,4.10378 -1.44726,-1.17207 -2.65763,-1.45897 -2.68974,-0.63755 -0.0321,0.8214 -1.51291,-0.20699 -3.29072,-2.28534 -1.77779,-2.07834 -3.70874,-3.31394 -4.29097,-2.74577 -1.48017,1.44436 -18.70772,-15.14633 -17.57874,-16.92889 0.50607,-0.79902 0.1775,-1.2411 -0.73017,-0.9824 -0.90765,0.2587 -6.00607,-3.76639 -11.3298,-8.94465 -14.26256,-13.8728 -20.78627,-18.92661 -22.83585,-17.69054 -1.04598,0.63082 -1.30291,0.27521 -0.60141,-0.83239 0.69021,-1.08977 -1.29559,-4.13113 -4.550074,-6.96868 -4.637037,-4.04299 -6.293818,-4.6416 -8.409212,-3.0383 -2.294678,1.73918 -2.323413,1.60972 -0.222754,-1.0038 2.138866,-2.66105 1.550228,-3.91979 -5.203484,-11.12683 C 72.622127,88.653624 72.828409,88.817038 74.358955,93.596099 c 0.739748,2.309842 2.225368,4.765656 3.30137,5.457365 1.184784,0.761632 0.615127,1.267996 -1.444342,1.283866 -3.325929,0.0256 -3.323491,0.0964 0.110518,3.21831 1.931163,1.75565 5.141067,4.04326 7.133103,5.08358 1.992018,1.04032 4.011665,3.64805 4.488066,5.79497 0.476418,2.14691 1.407801,5.15213 2.069731,6.67826 0.751239,1.73199 0.210316,3.14671 -1.439307,3.76442 -1.741564,0.65214 -2.330904,0.19638 -1.728144,-1.33642 1.348682,-3.42959 -3.926497,-12.33433 -7.908866,-13.35056 -2.42951,-0.61996 -3.172977,-0.18163 -2.517819,1.48441 0.511328,1.30028 1.627345,1.9434 2.480032,1.42916 0.852687,-0.51424 1.128753,0.13708 0.613478,1.44739 -0.515275,1.31032 0.283171,3.37044 1.774333,4.57807 1.491163,1.20763 2.711207,3.28102 2.711207,4.60754 0,1.32652 1.250305,2.88004 2.778465,3.45226 2.253804,0.84395 2.336604,1.33984 0.438561,2.62614 -1.628327,1.10351 -1.202764,1.27584 1.399416,0.56668 2.463349,-0.67133 4.090712,-0.12548 4.769114,1.59968 1.244253,3.16403 11.749139,3.56413 14.823059,0.56456 1.49812,-1.4619 2.10509,-1.49516 2.10509,-0.11536 0,1.06636 -1.58748,2.43049 -3.52773,3.03141 -3.6383,1.12682 -9.792125,10.67651 -8.004232,12.42117 0.553571,0.54018 1.006482,0.17324 1.006482,-0.81542 0,-2.82958 9.10507,-3.8273 11.71202,-1.28339 3.09595,3.02107 2.94405,5.93399 -0.30941,5.93399 -1.44726,0 -2.43402,0.94455 -2.19281,2.09901 0.58862,2.81721 4.15692,6.46009 6.32781,6.46009 0.96484,0 3.10935,1.32232 4.76557,2.9385 1.65624,1.61617 4.27821,3.02504 5.82661,3.13083 1.54841,0.10579 4.07968,0.3241 5.62505,0.48515 1.54535,0.16104 5.28788,2.60376 8.31669,5.42827 3.02883,2.8245 6.18246,5.13546 7.00808,5.13546 0.8256,0 4.34601,2.69612 7.82312,5.99137 3.47711,3.29526 7.89339,5.99138 9.81394,5.99138 1.92055,0 3.98776,0.78288 4.59378,1.73974 0.60602,0.95685 1.9587,1.22299 3.00595,0.59141 1.04748,-0.63171 1.40616,-0.36215 0.79727,0.59921 -0.60874,0.96115 0.45341,3.12536 2.36033,4.80936 1.90692,1.684 3.46713,2.59351 3.46713,2.02115 z m -24.39732,-23.539 c -8.79222,-8.47538 -17.17733,-14.2059 -26.91442,-18.39377 -8.0935,-3.48096 -11.0384,-7.19998 -5.7013,-7.19998 1.44725,0 2.63137,0.64667 2.63137,1.43704 0,0.79038 2.01067,2.33102 4.46816,3.42364 5.47384,2.43373 6.58491,2.49267 5.1802,0.27478 -2.18276,-3.44636 0.59515,-1.54207 8.11571,5.56342 4.23512,4.00138 9.66752,8.87934 12.07199,10.83991 5.34011,4.35426 14.02012,13.9603 14.02012,15.51584 0,1.27998 -4.58086,-2.50471 -13.87183,-11.46088 z m 41.884,19.28449 c 0.08,-3.15225 -11.94147,-14.43788 -14.03466,-13.17551 -2.76439,1.66718 0.0861,4.60067 3.30088,3.3969 1.66513,-0.62351 0.66077,1.31044 -2.37025,4.56406 -2.89288,3.10531 -3.68046,4.36447 -1.75018,2.79812 2.54843,-2.06796 4.35004,-2.38894 6.57843,-1.17205 1.68785,0.92173 3.06883,1.10521 3.06883,0.40773 0,-0.69748 1.15901,0.22714 2.57558,2.05471 1.53009,1.97404 2.59822,2.43113 2.63137,1.12604 z M 91.295352,156.0737 c 3.54879,-3.22069 5.508617,-6.12458 4.385618,-6.49816 -1.116666,-0.37147 -4.687436,2.26961 -7.935074,5.86908 -7.305755,8.09725 -5.108561,8.48667 3.549456,0.62908 z m 30.532758,-42.18844 c 1.08104,-1.70685 -2.98159,-4.5267 -8.45196,-5.86647 -3.08077,-0.75452 -4.81437,-0.49587 -4.81437,0.71829 0,1.04357 1.66327,1.8974 3.69618,1.8974 2.29097,0 3.36713,0.83673 2.83067,2.20091 -0.88905,2.26082 5.35633,3.23373 6.73948,1.04987 z m 21.36007,-7.38378 c 2.02547,-2.27315 3.22038,-4.58411 2.65535,-5.13547 -0.56503,-0.55135 -0.10633,-1.00246 1.01931,-1.00246 1.12564,0 2.04662,-1.155479 2.04662,-2.567731 0,-3.709963 -2.34643,-3.161817 -6.52113,1.523387 -4.15192,4.659634 -6.76289,11.315274 -4.43891,11.315274 0.85586,0 3.2133,-1.85985 5.23876,-4.133 z m -36.38065,-0.79286 c 0,-0.82622 -1.20319,-2.47663 -2.67377,-3.66758 -1.47057,-1.19095 -2.28675,-2.543014 -1.81374,-3.004589 0.47302,-0.461574 -1.14568,-2.378764 -3.597097,-4.260418 -2.45142,-1.881656 -5.198571,-5.324136 -6.104763,-7.649958 -1.09751,-2.816851 -2.548465,-3.891436 -4.345726,-3.218447 -1.541914,0.577381 -2.238823,0.285179 -1.626328,-0.681894 0.589462,-0.930717 -0.113623,-1.692214 -1.56242,-1.692214 -3.871536,0 -2.003403,7.066103 2.828425,10.69828 2.191371,1.647297 4.790814,3.631729 5.776543,4.409849 0.985729,0.77812 2.871791,1.063616 4.191248,0.634435 1.522862,-0.495348 1.921357,-0.02617 1.091124,1.284676 -0.755431,1.192776 0.221895,3.45573 2.313834,5.35754 3.95725,3.59756 5.52267,4.10504 5.52267,1.79032 z m 9.46067,-2.91734 c 1.91357,-4.866075 1.12447,-5.906705 -2.16541,-2.855685 -1.77663,1.647625 -2.91415,3.573425 -2.52785,4.279555 1.18079,2.1583 3.56958,1.43357 4.69326,-1.42387 z m -5.51361,-8.771281 c -2.17089,-0.408018 -3.94706,-1.294666 -3.94706,-1.97033 0,-0.675662 -1.67224,-1.351397 -3.71608,-1.501631 -3.573081,-0.262643 -3.589957,-0.179959 -0.43856,2.149006 1.80263,1.332188 5.25104,2.341755 7.66313,2.243483 4.10038,-0.167056 4.12891,-0.226927 0.43857,-0.920528 z M 104.9902,83.309014 c -0.0347,-0.505771 -2.03607,-3.230541 -4.44747,-6.055046 -4.217968,-4.940561 -4.479755,-5.012199 -6.897704,-1.887587 -2.78385,3.597443 -2.007402,6.167139 1.863432,6.167139 1.390311,0 2.527835,0.722445 2.527835,1.605433 0,0.882988 1.578822,1.48938 3.508497,1.347539 1.92967,-0.141842 3.48011,-0.671708 3.44541,-1.177478 z M 64.705595,71.180164 c 0,-0.6656 -1.184116,-2.169146 -2.63137,-3.34121 -1.735775,-1.40572 -2.631371,-1.495346 -2.631371,-0.26333 0,1.027235 -1.250305,1.399516 -2.778465,0.827292 -2.237051,-0.837677 -2.3225,-1.322441 -0.438561,-2.487794 1.595961,-0.987209 1.675639,-1.455719 0.250629,-1.473597 -3.326386,-0.04173 -4.486628,3.227756 -1.969634,5.550336 2.477962,2.286565 10.198772,3.186151 10.198772,1.188303 z"
         id="path3156"
         inkscape:connector-curvature="0" />
      <path
         style="fill:#57524e"
         d="m 452.8328,451.14971 c 3.19901,-1.81819 4.2628,-6.71017 1.45916,-6.71017 -3.9984,0 -7.16047,2.34871 -7.16047,5.31861 0,3.63506 1.22704,3.93456 5.70131,1.39156 z m -12.85679,-12.55889 c 0.0762,-1.80454 -0.33844,-2.81559 -0.92136,-2.24677 -0.58293,0.56882 -0.64525,2.04527 -0.1385,3.281 0.56,1.36557 0.97568,0.95995 1.05986,-1.03423 z m -6.1226,-3.11398 c 3.42629,-3.24708 5.71042,-6.41042 5.07586,-7.02966 -0.63457,-0.61921 -0.10121,-1.12584 1.18523,-1.12584 1.28645,0 1.87851,-0.44936 1.31569,-0.99856 -0.56282,-0.54922 -4.31253,2.21109 -8.33268,6.13402 -4.02015,3.92293 -6.89634,7.53562 -6.39153,8.02822 0.5048,0.49259 3.72115,-1.76109 7.14743,-5.00818 z m 13.25122,1.7885 c 0.0148,-1.59206 -0.76255,-3.37075 -1.72738,-3.95263 -2.22017,-1.33895 -2.22017,0.92717 0,4.27955 1.46549,2.21285 1.70423,2.16766 1.72738,-0.32692 z M 433.1327,424.71223 c 1.22046,-1.435 1.8793,-2.9406 1.46407,-3.34579 -0.41522,-0.40517 -1.71852,0.76892 -2.89621,2.60911 -2.54684,3.9795 -1.69746,4.41643 1.43214,0.73668 z m -19.39407,0.68694 c 0.0342,-0.58646 -1.5546,-4.63284 -3.53065,-8.99199 -1.97605,-4.35914 -3.83256,-10.53294 -4.12559,-13.71953 -0.29303,-3.18659 -2.22861,-8.1178 -4.3013,-10.9582 -2.07269,-2.84043 -3.76852,-5.92598 -3.76852,-6.85679 0,-0.9308 -1.01496,-2.07243 -2.25546,-2.53695 -1.32667,-0.49677 -2.25546,0.43345 -2.25546,2.25892 0,1.70691 0.67338,2.69735 1.49641,2.20101 0.82303,-0.49636 1.93006,0.71568 2.46006,2.69339 0.53001,1.97774 1.52682,3.59589 2.21514,3.59589 0.68832,0 1.14615,2.8887 1.0174,6.41933 -0.12876,3.53063 0.84022,7.48154 2.15329,8.77982 1.31306,1.29828 1.97569,3.40742 1.4725,4.68697 -0.50318,1.27957 -0.0552,2.14315 0.99552,1.91905 1.05072,-0.22407 2.30884,0.66272 2.79582,1.97065 0.59389,1.59506 0.14364,1.93069 -1.36745,1.01937 -1.52084,-0.91721 -1.82272,-0.6795 -0.92904,0.73152 0.72811,1.1496 1.79582,1.62963 2.37269,1.06672 0.57687,-0.56294 2.04867,0.73389 3.27067,2.8818 1.22199,2.1479 2.24978,3.42545 2.28397,2.83902 z m 5.27118,-2.35739 c 0,-0.9415 -0.76523,-2.8673 -1.70052,-4.27955 -0.93529,-1.41225 -1.70052,-1.79741 -1.70052,-0.85591 0,0.9415 0.76523,2.8673 1.70052,4.27955 0.93529,1.41226 1.70052,1.79741 1.70052,0.85591 z m 2.41753,-7.27524 c -0.51743,-3.70092 -0.34501,-4.00651 0.80637,-1.42921 1.71969,3.84946 6.77056,5.1035 6.77056,1.68102 0,-1.29646 -2.15228,-3.28685 -4.78284,-4.42308 -2.63055,-1.13624 -4.43659,-2.94636 -4.0134,-4.02249 1.06447,-2.70689 -3.97889,-6.66616 -5.47746,-4.30006 -0.62526,0.98722 0.19053,1.79494 1.81286,1.79494 2.16077,0 2.463,0.57232 1.13001,2.13978 -1.27289,1.49678 -1.09932,3.81154 0.57764,7.70319 2.9312,6.80235 4.04978,7.10377 3.17626,0.85591 z m -7.19559,-1.47136 c 1.32565,-2.0541 -2.22052,-10.90407 -4.37801,-10.92598 -1.80249,-0.0183 -1.65479,2.37741 0.26828,4.35179 0.87119,0.89442 1.87647,3.16687 2.23397,5.04987 0.39712,2.09169 1.12687,2.68472 1.87576,1.52432 z m -19.20384,-6.65978 c -1.61034,-3.29526 -3.5711,-5.99138 -4.35724,-5.99138 -0.78613,0 -1.42934,-1.88033 -1.42934,-4.17852 0,-2.29819 -0.68619,-4.59237 -1.52486,-5.09816 -2.60601,-1.57164 0.52851,8.09589 4.81162,14.8401 5.12225,8.06552 6.33352,8.27289 2.49982,0.42796 z m 15.26439,-8.55911 c 1.25876,-1.48002 1.42925,-2.56773 0.40248,-2.56773 -0.97974,0 -2.23575,1.15548 -2.79111,2.56773 -0.55536,1.41225 -0.73648,2.56773 -0.40248,2.56773 0.334,0 1.59,-1.15548 2.79111,-2.56773 z m -15.12782,-5.20164 c 1.69281,-4.3047 1.19343,-5.41543 -0.87455,-1.94521 -1.02394,1.71824 -1.49216,3.48468 -1.0405,3.92543 0.45167,0.44074 1.31344,-0.45037 1.91505,-1.98022 z m -4.19576,-6.5363 c 0.0183,-2.16191 -0.83617,-2.85566 -2.67092,-2.16863 -1.55348,0.58171 -3.13357,-0.0979 -3.72521,-1.60251 -1.41212,-3.59092 0.97073,-5.5204 2.98302,-2.41546 0.8976,1.38498 1.64409,1.64958 1.65886,0.58797 0.0148,-1.06158 -1.15725,-2.88912 -2.60451,-4.06119 -1.96089,-1.58804 -2.63137,-1.6157 -2.63137,-0.10853 0,1.11236 -0.78941,1.54637 -1.75425,0.96449 -2.47173,-1.49067 -2.1785,1.37841 0.69286,6.7791 1.62152,3.0499 2.87915,3.92054 3.72777,2.58064 0.95625,-1.50981 1.66273,-1.4337 2.78878,0.30048 1.15584,1.78004 1.51438,1.58001 1.53497,-0.85631 z m -14.00712,-3.4594 c 0,-0.35577 -1.18411,-3.41229 -2.63137,-6.7923 -3.56593,-8.32808 -3.43111,-10.71028 0.43856,-7.74886 2.79151,2.13628 2.84839,2.07392 0.62715,-0.68769 -1.34354,-1.67038 -2.92236,-2.56734 -3.5085,-1.99325 -1.54831,1.51649 -1.31072,12.55302 0.24998,11.6125 0.72363,-0.43609 1.31569,0.79322 1.31569,2.73179 0,1.93857 0.78941,3.52467 1.75425,3.52467 0.96483,0 1.75424,-0.29107 1.75424,-0.64686 z m -12.27973,-7.81121 c 0,-0.88593 -0.78037,-2.08144 -1.73415,-2.65664 -0.99441,-0.59972 -1.28851,0.0875 -0.68944,1.61079 1.16621,2.96559 2.42359,3.50819 2.42359,1.04585 z m 15.78823,-8.5591 c 0,-0.99707 -0.78941,-1.81286 -1.75425,-1.81286 -0.96484,0 -1.75425,0.3397 -1.75425,0.75488 0,0.41519 0.78941,1.23097 1.75425,1.81286 0.96484,0.58188 1.75425,0.24218 1.75425,-0.75488 z m -14.03398,-1.62858 c 0,-1.15399 0.67844,-1.68898 1.50765,-1.18891 2.60187,1.56916 0.63799,-7.90618 -2.21584,-10.69099 -3.96753,-3.87157 -5.10862,-1.51303 -1.23231,2.54709 2.43011,2.54532 2.84004,4.21717 1.57493,6.42313 -0.94066,1.64021 -1.24321,3.43795 -0.67236,3.99501 0.57086,0.55704 1.03793,0.0687 1.03793,-1.08533 z m -11.51539,-10.95699 c -0.65878,-1.68823 -1.63968,-2.63829 -2.17979,-2.11124 -0.54011,0.52706 -0.001,1.90832 1.19777,3.06952 1.73252,1.67803 1.93402,1.48141 0.98202,-0.95828 z m -6.02708,0.70384 c 0,-0.94151 -0.78941,-2.1879 -1.75425,-2.76978 -0.96484,-0.58188 -1.75425,-0.28764 -1.75425,0.65386 0,0.9415 0.78941,2.1879 1.75425,2.76978 0.96484,0.58188 1.75425,0.28764 1.75425,-0.65386 z m -3.64699,-7.7626 c 0.0762,-1.80453 -0.33844,-2.81558 -0.92137,-2.24676 -0.58292,0.56882 -0.64524,2.04526 -0.13849,3.28099 0.56,1.36557 0.97568,0.95996 1.05986,-1.03423 z m 5.40123,-3.38314 c 0,-0.37003 -1.22511,-1.13151 -2.72248,-1.69222 -1.56115,-0.58457 -2.2653,-0.2976 -1.65072,0.67276 1.0302,1.62659 4.3732,2.40588 4.3732,1.01946 z m -21.24021,-11.30998 c 0.0426,-2.35376 -1.08135,-5.77485 -2.49791,-7.60242 -3.12089,-4.02637 -3.10277,-2.11297 0.0558,5.8906 2.08276,5.27761 2.3737,5.48154 2.44212,1.71182 z m -6.8546,-0.1426 c -0.014,-1.3338 -0.80639,-3.58056 -1.75916,-4.99281 -1.37471,-2.0377 -1.6199,-1.78179 -1.18783,1.23975 0.62614,4.3788 2.98722,7.3857 2.94699,3.75306 z m 15.81508,-5.84878 c -1.20111,-1.41225 -2.45712,-2.56773 -2.79111,-2.56773 -0.33399,0 -0.15297,1.15548 0.40248,2.56773 0.55538,1.41226 1.81137,2.56774 2.79112,2.56774 1.02677,0 0.85627,-1.08771 -0.40249,-2.56774 z m -19.69682,-7.55363 c -0.81594,-2.95718 -6.16878,-3.95379 -7.75809,-1.44441 -0.68123,1.07558 -0.32422,1.32272 0.87016,0.6024 1.1251,-0.67853 2.08685,-0.22544 2.16379,1.01937 0.10841,1.75354 0.34529,1.73339 1.08948,-0.0926 0.80288,-1.97008 1.2119,-1.97008 2.62642,0 1.39463,1.94236 1.56361,1.92815 1.00824,-0.0847 z m -10.12538,-0.90444 c 0,-1.46782 -0.78941,-2.66876 -1.75425,-2.66876 -0.96483,0 -1.75424,0.72485 -1.75424,1.61079 0,0.88593 0.78941,2.08688 1.75424,2.66876 0.96484,0.58188 1.75425,-0.14294 1.75425,-1.61079 z m -4.31348,-4.49447 c 0.63596,-1.00414 0.78008,-2.19284 0.32024,-2.64156 -0.45983,-0.44872 -1.30352,0.37285 -1.87486,1.82571 -1.18618,3.01641 -0.17525,3.54699 1.55462,0.81585 z m 9.67702,-3.49353 c 2.85246,-5.20096 -0.74245,-8.48283 -4.87486,-4.45036 -1.87415,1.8288 -2.19767,2.92232 -0.8646,2.92232 1.17159,0 2.13017,-0.77032 2.13017,-1.71183 0,-0.9415 0.88019,-1.71182 1.956,-1.71182 1.19382,0 0.83629,1.66759 -0.91756,4.27956 -1.58047,2.35375 -2.09373,4.27955 -1.14061,4.27955 0.95314,0 2.62328,-1.62334 3.71146,-3.60742 z m -23.04451,-8.0484 c 0.0762,-1.23245 0.92791,-1.76472 1.89275,-1.18284 0.96483,0.58188 1.75424,-0.5736 1.75424,-2.56773 0,-1.99413 -0.78941,-3.14961 -1.75424,-2.56773 -0.96484,0.58188 -1.75425,-0.0799 -1.75425,-1.4708 0,-1.3908 -0.5425,-3.9398 -1.20557,-5.66443 -1.10249,-2.86759 -0.915,-2.91615 2.19281,-0.56796 3.13999,2.37249 3.21655,2.34139 1.00679,-0.40911 -2.68305,-3.33965 -6.25606,-2.26438 -4.79781,1.44387 0.77199,1.96313 0.20919,1.9305 -3.09037,-0.17916 -4.32327,-2.76422 -6.70901,-1.95807 -5.24241,1.77139 0.49579,1.26076 1.87205,1.92885 3.05837,1.48461 1.97383,-0.73911 4.74007,3.08371 6.9343,9.58296 0.57885,1.71451 0.91292,1.82314 1.00539,0.32693 z m -5.12424,-5.36136 c 0,-0.99707 -0.78941,-1.81285 -1.75425,-1.81285 -0.96484,0 -1.75425,0.33969 -1.75425,0.75488 0,0.41518 0.78941,1.23097 1.75425,1.81285 0.96484,0.58188 1.75425,0.24219 1.75425,-0.75488 z M 251.19597,251.8597 c -1.41499,-3.96764 -5.80291,-8.73394 -5.80291,-6.30329 0,0.90444 1.58037,3.463 3.51195,5.6857 3.02962,3.48622 3.34425,3.57104 2.29096,0.61759 z m -26.85388,-23.1633 c 0,-0.91196 -1.18411,-1.65811 -2.63137,-1.65811 -1.44725,0 -2.63137,0.30276 -2.63137,0.67277 0,0.37002 1.18412,1.11616 2.63137,1.6581 1.44726,0.54193 2.63137,0.23918 2.63137,-0.67276 z m -41.18728,-37.64679 c 2.39667,-2.58427 3.5554,-2.92294 4.56211,-1.33344 0.7422,1.17186 1.85105,1.64119 2.4641,1.04297 1.62865,-1.58927 -2.432,-8.25162 -4.93264,-8.09304 -1.46587,0.093 -1.40208,0.41914 0.20432,1.04495 1.69163,0.659 0.99669,2.27333 -2.52102,5.85622 -2.67103,2.72053 -4.43638,4.94643 -3.92298,4.94643 0.51339,0 2.37914,-1.55885 4.14611,-3.46409 z m -11.57863,-3.81115 c 0.0814,-3.77083 1.04321,-6.5269 2.33131,-6.68006 1.20604,-0.14345 2.98222,-0.43971 3.94705,-0.65845 0.96484,-0.21875 2.49719,-0.48658 3.40522,-0.59518 0.90804,-0.10853 0.27302,-1.18068 -1.41117,-2.38239 -3.09821,-2.21068 -2.31399,-9.00998 0.82113,-7.11923 2.31428,1.3957 1.9104,-1.66213 -0.53466,-4.04804 -1.63729,-1.5977 -1.44237,-2.05419 0.87713,-2.05419 5.39746,0 3.10924,-3.01936 -3.15765,-4.16661 -3.37692,-0.61819 -6.13986,-1.77609 -6.13986,-2.5731 0,-0.79701 -3.41387,-5.19144 -7.58637,-9.7654 -4.17249,-4.57396 -8.09478,-9.66435 -8.71617,-11.31198 -0.62141,-1.64762 -2.212,-2.99568 -3.53467,-2.99568 -3.6388,0 -6.70176,-7.6146 -4.14804,-10.31207 1.5849,-1.6741 1.55376,-1.89561 -0.1356,-0.96487 -1.20605,0.66443 -2.19281,0.39228 -2.19281,-0.60478 -5e-5,-0.99707 -0.87391,-1.81285 -1.94199,-1.81285 -1.06805,0 -1.48754,1.15548 -0.93217,2.56773 1.71422,4.35915 -3.44195,2.86279 -5.52768,-1.60418 -1.9459,-4.1675 -7.28806,-5.05268 -12.28958,-2.03634 -2.81461,1.69746 0.47837,7.92007 4.19127,7.92007 1.47025,0 2.1853,-0.77032 1.589,-1.71182 -0.59631,-0.9415 -0.30607,-1.71182 0.64496,-1.71182 0.95103,0 2.09017,-1.34806 2.5314,-2.99569 0.62632,-2.33867 0.8469,-2.18242 1.00576,0.71243 0.13069,2.38131 2.10634,4.5251 5.52151,5.99138 3.83782,1.64774 5.8932,4.15146 7.38456,8.99533 2.09585,6.80732 16.89286,23.19457 26.31436,29.14238 6.77309,4.27587 4.2118,6.64425 -2.94402,2.72227 -5.33875,-2.92608 -5.86153,-2.96087 -5.47095,-0.36412 0.23751,1.5791 1.14598,2.75207 2.01884,2.60661 2.52228,-0.42036 4.22435,3.37865 3.18629,7.11177 -0.69212,2.48911 -0.50162,2.78967 0.6979,1.10111 1.01848,-1.4337 2.06562,-1.66613 2.73622,-0.60734 1.76573,2.78794 -3.70867,3.80696 -5.99705,1.1163 -1.15353,-1.35629 -2.92526,-2.46598 -3.93718,-2.46598 -1.01194,0 -3.43187,-1.34806 -5.37761,-2.99569 -2.33522,-1.97742 -1.7859,-0.54635 1.61611,4.21016 2.8346,3.9632 6.33796,7.44772 7.78521,7.74335 1.81519,0.3708 2.00863,0.91998 0.62367,1.77062 -1.16145,0.71333 -5.34182,-1.82899 -9.91769,-6.03155 -12.41945,-11.40619 -29.86725,-23.52692 -33.86702,-23.52692 -1.33081,0 -3.40564,-1.54064 -4.61074,-3.42364 -1.2051,-1.88301 -3.10086,-3.42364 -4.21281,-3.42364 -2.95205,0 -4.42719,4.97779 -2.45321,8.27826 1.00012,1.67219 1.72573,1.9649 1.75704,0.70879 0.0293,-1.17687 1.43481,-2.12798 3.12328,-2.11356 2.59334,0.0221 2.66587,0.27552 0.46728,1.63207 -2.04937,1.26446 -1.16995,2.19 4.13665,4.35362 3.70664,1.51127 7.14268,2.35416 7.63568,1.87309 0.493,-0.48107 2.05014,0.2512 3.46032,1.62727 1.41017,1.37607 3.28972,2.06425 4.17678,1.52928 0.88705,-0.53497 1.61282,-0.10186 1.61282,0.96245 0,3.08024 5.12561,7.24369 7.72116,6.27177 1.44439,-0.54087 2.28222,0.22901 2.14772,1.9735 -0.12455,1.61512 1.06202,2.86982 2.72559,2.88215 1.62037,0.012 3.5939,0.71326 4.38562,1.55832 0.82257,0.87797 0.4997,1.00872 -0.75331,0.3051 -1.20604,-0.67727 -2.19281,-0.46752 -2.19281,0.46611 0,0.93361 1.59028,2.19002 3.53397,2.79199 1.94369,0.60198 3.08121,1.80936 2.52784,2.6831 -0.55336,0.87371 1.34291,1.58857 4.21396,1.58857 2.87105,0 5.61826,0.96289 6.1049,2.13977 0.48665,1.17688 0.94714,-0.74892 1.02331,-4.27955 z m -81.434,-31.20192 c 3.859344,-3.2459 6.18509,-5.93056 5.168311,-5.96591 -1.016779,-0.0353 -4.526642,2.63184 -7.799681,5.9271 -7.566946,7.61829 -6.401021,7.63549 2.63137,0.0388 z m 41.22481,-6.8861 c -1.20112,-1.41225 -2.45712,-2.56773 -2.79111,-2.56773 -0.33399,0 -0.15297,1.15548 0.40247,2.56773 0.55538,1.41226 1.81137,2.56774 2.79112,2.56774 1.02678,0 0.85628,-1.08771 -0.40248,-2.56774 z m -14.03398,-5.68373 c 3.10113,-1.37126 4.33598,-5.4431 1.65071,-5.4431 -1.02177,0 -1.32121,-0.84717 -0.66542,-1.88261 0.74658,-1.17877 -0.36244,-1.07399 -2.96639,0.28026 -3.81058,1.98179 -3.95425,1.92096 -1.71597,-0.72649 1.34354,-1.58915 1.98103,-3.33994 1.41669,-3.89065 -1.11982,-1.09273 -9.91009,4.55704 -13.31026,8.55491 -3.117229,3.66519 0.66433,5.13806 4.23814,1.6507 2.77472,-2.70762 3.06984,-2.70862 4.61421,-0.0157 1.77118,3.08837 2.65007,3.28046 6.73829,1.47272 z m -11.4026,-11.45992 c 3.48468,-1.6148 4.07736,-2.31166 1.75424,-2.06256 -2.01835,0.21641 -3.32223,-0.53263 -3.06993,-1.76359 0.60937,-2.9732 -2.18388,-2.67647 -4.903209,0.52088 -1.978562,2.32636 -2.559955,1.97121 -4.627353,-2.82676 -2.535361,-5.88404 -5.14847,-5.86225 -3.23299,0.027 1.222938,3.75996 5.637133,8.75004 7.626116,8.62103 0.654706,-0.0425 3.558616,-1.17464 6.453126,-2.51596 z M 85.756562,120.62002 c 0,-1.51744 -1.580366,-4.57753 -3.51195,-6.80022 -3.047548,-3.50686 -3.356963,-3.58853 -2.339868,-0.61759 0.644634,1.883 2.225,4.9431 3.511933,6.80022 1.890202,2.72764 2.339885,2.84634 2.339885,0.61759 z m 56.713728,-15.24379 c 1.75005,-1.99447 2.71189,-4.08497 2.13741,-4.64556 -1.51729,-1.480584 -6.75036,4.08254 -5.97513,6.35198 0.3818,1.11769 1.98536,0.40467 3.83772,-1.70642 z M 108.56178,94.555323 c 0,-0.37002 -1.22512,-1.131517 -2.72249,-1.692214 -1.56114,-0.58458 -2.26529,-0.297598 -1.65071,0.672765 1.0302,1.626579 4.3732,2.405875 4.3732,1.019449 z m -18.070118,-5.98388 c -0.702541,-4.492234 -2.980852,-6.818548 -2.980852,-3.043674 0,1.569169 0,3.430774 0,4.136901 0,0.706126 0.794761,1.542381 1.766158,1.858345 0.971379,0.315965 1.518003,-1.012244 1.214694,-2.951572 z m 11.548508,-7.74991 c -1.71972,-2.238901 -3.718812,-3.719473 -4.442439,-3.290164 -0.723627,0.429309 -1.327772,-0.612959 -1.342543,-2.31615 -0.02279,-2.625605 -0.285574,-2.706079 -1.72739,-0.528982 -2.556885,3.860801 -2.121463,5.135463 1.754248,5.135463 1.929672,0 3.508494,0.687903 3.508494,1.528674 0,0.840772 1.20968,1.981649 2.68819,2.535281 2.17592,0.814787 2.09234,0.230894 -0.43856,-3.064122 z"
         id="path3154"
         inkscape:connector-curvature="0" />
    </g>
  </g>
</svg>
