<?xml version="1.0" encoding="UTF-8" standalone="no"?>
<svg
   xmlns:dc="http://purl.org/dc/elements/1.1/"
   xmlns:cc="http://creativecommons.org/ns#"
   xmlns:rdf="http://www.w3.org/1999/02/22-rdf-syntax-ns#"
   xmlns:svg="http://www.w3.org/2000/svg"
   xmlns="http://www.w3.org/2000/svg"
   xmlns:sodipodi="http://sodipodi.sourceforge.net/DTD/sodipodi-0.dtd"
   xmlns:inkscape="http://www.inkscape.org/namespaces/inkscape"
   inkscape:export-ydpi="12.832031"
   inkscape:export-xdpi="12.832031"
   inkscape:export-filename="C:\Users\Chris\Documents\GitHub\bot-game\assets\faster_attacks.png"
   viewBox="0 0 512 512"
   id="svg2"
   version="1.1"
   inkscape:version="0.48.4 r9939"
   width="100%"
   height="100%"
   sodipodi:docname="grabby_arm.svg">
  <sodipodi:namedview
     pagecolor="#ffffff"
     bordercolor="#666666"
     borderopacity="1"
     objecttolerance="10"
     gridtolerance="10"
     guidetolerance="10"
     inkscape:pageopacity="0"
     inkscape:pageshadow="2"
     inkscape:window-width="1158"
     inkscape:window-height="1254"
     id="namedview44"
     showgrid="false"
     inkscape:zoom="0.68554686"
     inkscape:cx="43.558099"
     inkscape:cy="175.21119"
     inkscape:window-x="68"
     inkscape:window-y="36"
     inkscape:window-maximized="0"
     inkscape:current-layer="svg2" />
  <metadata
     id="metadata48">
    <rdf:RDF>
      <cc:Work
         rdf:about="">
        <dc:format>image/svg+xml</dc:format>
        <dc:type
           rdf:resource="http://purl.org/dc/dcmitype/StillImage" />
        <dc:title></dc:title>
      </cc:Work>
    </rdf:RDF>
  </metadata>
  <defs
     id="defs46">
    <linearGradient
       id="linearGradient3926">
      <stop
         id="stop3928"
         offset="0"
         style="stop-color:#ffffff;stop-opacity:0;" />
      <stop
         style="stop-color:#ffffff;stop-opacity:0.49803922;"
         offset="0.5"
         id="stop3934" />
      <stop
         id="stop3930"
         offset="1"
         style="stop-color:#ffffff;stop-opacity:0;" />
    </linearGradient>
    <filter
       id="filter3108"
       x="0"
       y="0"
       width="1"
       height="1"
       inkscape:label="Lightness-Contrast"
       inkscape:menu="Color"
       inkscape:menu-tooltip="Increase or decrease lightness and contrast"
       color-interpolation-filters="sRGB">
      <feFlood
         id="feFlood3110"
         result="result1"
         flood-opacity="1"
         flood-color="rgb(0,0,0)" />
      <feBlend
         id="feBlend3112"
         in2="SourceGraphic"
         mode="normal"
         result="result2" />
      <feComposite
         id="feComposite3114"
         in2="SourceGraphic"
         k2="1"
         operator="arithmetic"
         result="result3" />
      <feComposite
         id="feComposite3116"
         in2="SourceGraphic"
         operator="in" />
    </filter>
    <filter
       id="filter7264"
       inkscape:label="Fluorescence"
       inkscape:menu="Color"
       inkscape:menu-tooltip="Oversaturate colors which can be fluorescent in real world"
       x="0"
       y="0"
       width="1"
       height="1"
       color-interpolation-filters="sRGB">
      <feColorMatrix
         id="feColorMatrix7266"
         type="hueRotate"
         values="0" />
      <feColorMatrix
         id="feColorMatrix7268"
         type="saturate"
         values="1" />
      <feColorMatrix
         id="feColorMatrix7270"
         type="matrix"
         values="2 -1 0 0 0 0 2 -1 0 0 -1 0 2 0 0 0 0 0 1 0 " />
    </filter>
    <filter
       id="filter7746"
       inkscape:label="Fluorescence"
       inkscape:menu="Color"
       inkscape:menu-tooltip="Oversaturate colors which can be fluorescent in real world"
       x="0"
       y="0"
       width="1"
       height="1"
       color-interpolation-filters="sRGB">
      <feColorMatrix
         id="feColorMatrix7748"
         type="hueRotate"
         values="0" />
      <feColorMatrix
         id="feColorMatrix7750"
         type="saturate"
         values="1" />
      <feColorMatrix
         id="feColorMatrix7752"
         type="matrix"
         values="2 -1 0 0 0 0 2 -1 0 0 -1 0 2 0 0 0 0 0 1 0 " />
    </filter>
    <filter
       id="filter11635"
       inkscape:label="Fluorescence"
       inkscape:menu="Color"
       inkscape:menu-tooltip="Oversaturate colors which can be fluorescent in real world"
       x="0"
       y="0"
       width="1"
       height="1"
       color-interpolation-filters="sRGB">
      <feColorMatrix
         id="feColorMatrix11637"
         type="hueRotate"
         values="0" />
      <feColorMatrix
         id="feColorMatrix11639"
         type="saturate"
         values="1" />
      <feColorMatrix
         id="feColorMatrix11641"
         type="matrix"
         values="2 -1 0 0 0 0 2 -1 0 0 -1 0 2 0 0 0 0 0 1 0 " />
    </filter>
    <clipPath
       clipPathUnits="userSpaceOnUse"
       id="clipPath5731">
      <g
         transform="translate(-499.67984,900.72257)"
         id="g5733">
        <path
           sodipodi:nodetypes="csssssssscsssssscssssssssssssccssscccccsccssss"
           inkscape:connector-curvature="0"
           d="m 713.46932,336.19879 c -46.66846,-6.86515 -63.32187,-12.04474 -82.43996,-25.64069 -7.77372,-5.52834 -15.03553,-11.14129 -18.39792,-14.22052 -2.11083,-1.93307 -4.58583,-3.93035 -5.5,-4.43838 -5.84335,-3.24737 -21.16212,-23.53521 -21.16212,-28.02664 0,-0.85231 -0.3375,-1.55317 -0.75,-1.55746 -1.39551,-0.0145 -2.90294,-4.63228 -2.14427,-6.56859 0.73071,-1.86494 0.75825,-1.86261 0.90293,0.0764 0.0866,1.16054 0.36564,1.46123 0.66483,0.71638 0.61512,-1.53141 -1.53978,-4.41705 -2.74312,-3.67334 -0.46366,0.28655 -0.5612,1.25542 -0.21676,2.15303 0.38711,1.0088 0.22353,1.38311 -0.42838,0.98021 -0.9969,-0.61612 -1.63974,-2.89421 -2.94209,-10.42628 -0.30907,-1.7875 -0.93079,-3.25 -1.38159,-3.25 -1.5083,0 -4.35392,-11.40362 -5.1155,-20.5 -2.10576,-25.15144 -2.16477,-28.9906 -0.46721,-30.39944 0.89164,-0.74 1.61427,-1.85285 1.60585,-2.473 -0.008,-0.62016 -0.43396,-0.46559 -0.94563,0.34348 -1.49011,2.3562 -2.47835,0.28852 -1.2015,-2.51387 0.63934,-1.4032 1.16244,-4.39299 1.16244,-6.64398 0,-2.44744 0.59517,-4.53902 1.48053,-5.20295 0.8685,-0.65128 1.70847,-3.51394 2.03192,-6.92492 0.51015,-5.37977 2.10581,-9.68532 3.58942,-9.68532 0.34143,0 0.40573,-1.125 0.14288,-2.5 -0.27897,-1.45935 -0.0131,-2.5 0.63867,-2.5 0.61412,0 1.11658,0.9 1.11658,2 0,3.05353 1.46373,2.38454 2.73495,-1.25 2.73263,-7.81276 3.55467,-15.64994 2.41455,-23.01981 -3.44237,-22.25201 -1.57023,-46.135821 4.6943,-59.887301 1.1285,-2.47721 2.92498,-6.71925 3.99217,-9.42675 17.66648,-102.76194 365.27374,-164.419499 334.81752,122.010491 -7.79547,25.33126 -32.70829,60.14015 -49.15349,68.67863 -2.2,1.14226 -5.31489,3.49838 -6.92197,5.23581 -1.60708,1.73744 -3.18208,3.15898 -3.5,3.15898 -0.31792,0 -0.58155,0.59299 -0.58585,1.31776 -5.42674,18.0491 -23.8421,29.8395 -3.61467,11.08169 3.23208,-3.01114 3.82133,-1.56587 0.72364,1.77485 -12.76274,5.49516 4.65115,6.24035 -4.60119,11.58349 -3.4638,1.90975 -9.12315,7.28573 -8.41511,7.99376 0.32807,0.32808 -4.35653,5.11365 -11.68088,11.93265 -23.17357,21.57468 -85.54296,35.99675 -128.40401,29.69169 z m -130.5,-96.63534 c 0,-0.94984 -4.04141,-3.53247 -4.62092,-2.95297 -0.23439,0.23439 -0.14242,1.16557 0.20437,2.06929 0.61898,1.61304 4.41655,2.37287 4.41655,0.88368 z"
           style="fill:#ffffd4"
           id="path5735" />
      </g>
    </clipPath>
  </defs>
  <rect
     y="-0.74594659"
     x="-2.4899552"
     height="524.13165"
     width="516.97894"
     id="rect3171"
     style="opacity:0.98999999;fill:#000000;fill-opacity:1;fill-rule:nonzero;stroke:none" />
  <g
     id="g3069"
     transform="matrix(1.8748133,0,0,2.7499647,889.24238,-319.35632)">
    <g
       id="g3101"
       transform="translate(15.560904,2.6521968)">
      <path
         inkscape:connector-curvature="0"
         id="path3099"
         d="m -260.58548,279.84844 c -1.65,-0.37388 -7.5,-3.59584 -13,-7.15992 -5.5,-3.56408 -13.18754,-8.33899 -17.08342,-10.61093 -3.89589,-2.27193 -7.541,-4.71722 -8.10026,-5.43396 -0.6461,-0.82805 -0.73368,-4.03761 -0.24019,-8.80318 0.75403,-7.28174 0.7012,-7.56314 -1.81549,-9.66972 -1.42567,-1.19335 -3.75504,-2.73992 -5.17638,-3.43682 -1.42134,-0.69691 -3.93426,-2.54641 -5.58426,-4.11001 -1.65,-1.5636 -5.25,-4.25348 -8,-5.97751 -7.51941,-4.71406 -15.32951,-9.71871 -21.82071,-13.98253 -3.2014,-2.10288 -6.02082,-3.82341 -6.26539,-3.82341 -0.24457,0 -2.80025,-1.51029 -5.67928,-3.35619 -5.75764,-3.69153 -14.2571,-9.09418 -22.73462,-14.45117 -3.025,-1.91151 -8.49488,-5.41208 -12.15529,-7.77905 -3.66041,-2.36696 -10.9259,-6.57833 -16.14553,-9.35858 -8.76678,-4.66966 -10.01684,-5.05501 -16.39836,-5.05501 -7.37788,0 -14.3558,-2.60764 -19.29736,-7.2114 -1.31698,-1.22696 -6.46903,-4.94777 -11.44899,-8.26848 -9.0942,-6.06413 -11.77742,-9.72986 -8.14292,-11.12455 1.24187,-0.47655 1.32916,-1.01155 0.43702,-2.67852 -0.92295,-1.72455 -0.7477,-2.38031 1.01831,-3.81034 1.17322,-0.95001 2.13312,-2.45678 2.13312,-3.34838 0,-2.66015 2.74578,-2.90587 6.6606,-0.59607 l 3.67747,2.16976 -2.6292,-3.44707 c -2.49049,-3.26519 -2.5368,-3.53069 -0.8778,-5.03207 1.60562,-1.45306 2.03932,-1.40898 5.21017,0.52966 8.51008,5.203 11.86925,6.77131 12.45914,5.81686 0.81032,-1.31114 6.62439,-1.27886 10.18452,0.0565 4.25461,1.59589 10.13158,8.607 13.89953,16.58186 2.74841,5.817 4.10303,7.51859 7.32065,9.19571 6.29183,3.27949 8.09492,4.56926 8.09492,5.79041 0,0.62855 0.7875,1.4275 1.75,1.77543 2.07986,0.75186 5.50397,2.74069 7.39335,4.29429 0.74616,0.61355 4.05665,2.57389 7.35665,4.3563 3.3,1.78242 8.88505,5.08785 12.41123,7.34541 12.20159,7.8118 16.61933,10.55299 23.58877,14.63672 3.85,2.2559 8.89092,5.30905 11.20203,6.78478 16.54461,10.56432 22.03679,13.60625 26.29797,14.56558 1.375,0.30956 5.35443,2.43778 8.84318,4.72939 6.82537,4.48328 6.6015,4.4707 15.65682,0.8799 2.79534,-1.10846 3.68219,-0.79695 13,4.56635 5.5,3.16578 13.24778,7.5978 17.21728,9.84895 3.96951,2.25114 7.46786,4.72056 7.77411,5.4876 0.7849,1.96584 -2.35821,5.10538 -5.11119,5.10538 -3.41626,0 -4.3802,2.84882 -4.3802,12.94516 0,7.06619 -0.45418,10.04286 -2.05048,13.43885 -2.91833,6.20847 -5.72016,8.46902 -9.44952,7.62398 z m -2.82676,-23.7825 c 6.79479,-11.13745 7.63541,-13.14866 6.21242,-14.86326 -1.86578,-2.24813 -7.005,-4.64691 -7.92126,-3.69733 -1.26314,1.30906 -10.71037,17.95648 -11.35044,20.00114 -0.42674,1.36322 0.37696,2.38125 3.13117,3.96616 2.0379,1.17271 4.18221,1.94918 4.76514,1.72549 0.58292,-0.22369 2.90626,-3.43318 5.16297,-7.1322 z m -19.67324,-6.77324 c 0,-1.45549 1.10834,-3.57492 2.58526,-4.94369 3.17469,-2.9422 2.58464,-5.78133 -1.55816,-7.49733 -3.51575,-1.45628 -4.31268,-1.03654 -6.4055,3.37376 -2.21784,4.67376 -2.15137,10.32992 0.1284,10.92568 4.17735,1.09166 5.25,0.71196 5.25,-1.85842 z m 7.42762,-13.77567 c 1.86488,-1.36363 1.89393,-1.19724 -1.14556,-6.56118 -0.5002,-0.88275 -6.28206,2.23176 -6.28206,3.38395 0,1.12207 3.63026,4.31412 5.05887,4.4482 0.30738,0.0289 1.37332,-0.54309 2.36875,-1.27097 z"
         style="fill:#f8eca2" />
      <path
         inkscape:connector-curvature="0"
         id="path3097"
         d="m -280.42813,268.20238 -18.84266,-11.70328 0.6878,-8.69006 0.68779,-8.69005 -6.71979,-3.75792 c -3.69588,-2.06685 -6.91759,-4.51432 -7.15935,-5.43882 -0.24176,-0.9245 -1.19817,-2.1636 -2.12535,-2.75355 -16.26731,-10.35066 -31.82635,-20.15896 -50.18579,-31.63673 -12.375,-7.73648 -22.725,-14.35089 -23,-14.69869 -0.77099,-0.97511 -12.231,-6.99283 -13.31698,-6.99283 -0.529,0 -3.26159,-1.42778 -6.07242,-3.17284 -4.3253,-2.6853 -6.42966,-3.27115 -13.69483,-3.81263 -9.52372,-0.70981 -14.09501,-2.58022 -21.80079,-8.92015 -2.53824,-2.08833 -7.42986,-5.47291 -10.87026,-7.52128 -5.35547,-3.18858 -8.24472,-5.96962 -8.24472,-7.93593 0,-0.27187 0.71969,-1.214 1.59931,-2.09362 1.33307,-1.33307 1.38097,-1.86238 0.28774,-3.17964 -1.10287,-1.32888 -1.01568,-1.79669 0.54802,-2.94009 1.02277,-0.74786 2.29149,-1.09281 2.81939,-0.76655 0.56037,0.34633 0.69775,-0.23249 0.3301,-1.39085 -1.12896,-3.55704 1.6894,-4.64004 5.90838,-2.27038 l 3.69347,2.0745 -2.18657,-3.07076 c -1.20262,-1.68892 -1.93368,-3.72979 -1.62459,-4.53527 0.61985,-1.61531 3.68559,-1.96279 5.17475,-0.58652 0.5225,0.48289 3.51151,2.28196 6.64225,3.99794 3.83603,2.10255 5.91651,2.75712 6.37994,2.00727 0.42371,-0.68559 2.58535,-0.93034 5.63156,-0.63764 4.27884,0.41114 5.61542,1.13281 9.93594,5.36474 3.06774,3.00485 6.35435,7.70858 8.52614,12.20246 2.02579,4.19177 4.4517,7.73108 5.68413,8.29294 5.72784,2.61127 9.86417,5.73882 9.13985,6.9108 -0.2685,0.43443 3.89896,3.37371 9.26101,6.53172 5.36205,3.15802 12.44918,7.45929 15.74918,9.55839 3.3,2.0991 12.075,7.48867 19.5,11.97684 21.76622,13.15696 39.36934,24.13816 41.23124,25.7209 1.40781,1.19673 2.01629,1.2351 3.257,0.20541 1.26247,-1.04776 2.21111,-0.81273 5.49732,1.36199 2.18436,1.44554 4.18622,2.62825 4.44859,2.62825 0.26237,0 2.10429,1.10428 4.09315,2.45396 l 3.61612,2.45397 5.31351,-2.60599 5.31352,-2.60599 16.23068,9.33559 c 20.59498,11.84585 20.53404,11.79729 18.47297,14.71846 -1.02048,1.44634 -2.61772,2.25 -4.47179,2.25 -1.58635,0 -3.16011,0.44631 -3.49724,0.99179 -0.33713,0.54549 -0.70173,5.86916 -0.81023,11.83038 -0.18476,10.152 -0.38946,11.15023 -3.23128,15.75821 -4.76789,7.73106 -5.67294,7.52865 -27.80621,-6.21845 z m 14.72634,-7.61825 c 5.30582,-9.13655 9.58972,-17.37815 9.60224,-18.47336 0.0184,-1.60461 -7.98188,-5.68321 -9.02561,-4.60134 -1.29636,1.34374 -10.71476,17.98198 -11.39849,20.1362 -0.47619,1.50034 0.16019,2.45902 2.65597,4.00112 4.59302,2.83794 6.00763,2.65386 8.16589,-1.06262 z m -17.38369,-11.32188 c 0,-1.42274 1.12411,-3.55908 2.58526,-4.91324 3.8864,-3.60179 1.97128,-8.45727 -3.34996,-8.49325 -3.21953,-0.0218 -6.22688,5.32189 -6.23156,11.07266 -0.004,4.55243 0.0234,4.58899 3.49626,4.71955 3.10793,0.11684 3.5,-0.15041 3.5,-2.38572 z m 7.33134,-13.67482 c 1.4794,-1.08176 1.53969,-1.62739 0.44113,-3.99219 -1.47957,-3.18499 -1.87744,-3.26899 -5.82213,-1.22911 -3.64674,1.88581 -3.67457,2.53508 -0.19855,4.63289 3.46371,2.09039 3.51769,2.09608 5.57955,0.58841 z"
         style="fill:#ede25e" />
      <path
         inkscape:connector-curvature="0"
         id="path3095"
         d="m -280.42813,268.20238 -18.84266,-11.70328 0.6878,-8.69006 0.68779,-8.69005 -6.71979,-3.75792 c -3.69588,-2.06685 -6.91816,-4.49202 -7.16062,-5.38927 -0.51325,-1.89932 -7.62715,-7.08879 -22.16124,-16.16626 -5.69326,-3.5558 -13.89778,-8.71509 -18.23228,-11.46509 -4.3345,-2.75 -11.82639,-7.4538 -16.64863,-10.45288 -4.82225,-2.99909 -8.91772,-5.81159 -9.10105,-6.25 -0.18334,-0.43842 -0.75478,-0.79712 -1.26988,-0.79712 -0.51509,0 -2.84009,-1.2239 -5.16666,-2.71976 -6.60425,-4.24622 -14.09266,-8.19695 -15.61953,-8.24056 -0.76417,-0.0218 -3.68917,-1.46746 -6.5,-3.21252 -4.3253,-2.6853 -6.42966,-3.27115 -13.69483,-3.81263 -9.52372,-0.70981 -14.09501,-2.58022 -21.80079,-8.92015 -2.53824,-2.08833 -7.42986,-5.47291 -10.87026,-7.52128 -5.35547,-3.18858 -8.24472,-5.96962 -8.24472,-7.93593 0,-0.27187 0.71969,-1.214 1.59931,-2.09362 1.33307,-1.33307 1.38097,-1.86238 0.28774,-3.17964 -1.10287,-1.32888 -1.01568,-1.79669 0.54802,-2.94009 1.02277,-0.74786 2.29149,-1.09281 2.81939,-0.76655 0.56037,0.34633 0.69775,-0.23249 0.3301,-1.39085 -1.12896,-3.55704 1.6894,-4.64004 5.90838,-2.27038 l 3.69347,2.0745 -2.18657,-3.07076 c -1.20262,-1.68892 -1.93368,-3.72979 -1.62459,-4.53527 0.61985,-1.61531 3.68559,-1.96279 5.17475,-0.58652 0.5225,0.48289 3.51151,2.28196 6.64225,3.99794 3.83603,2.10255 5.91651,2.75712 6.37994,2.00727 0.42371,-0.68559 2.58535,-0.93034 5.63156,-0.63764 4.27884,0.41114 5.61542,1.13281 9.93594,5.36474 3.06774,3.00485 6.35435,7.70858 8.52614,12.20246 2.01703,4.17366 4.45702,7.73739 5.68413,8.30197 9.48384,4.36344 10.4837,5.8329 6.57149,9.65782 -1.97337,1.92932 -2.93162,3.70847 -2.62924,4.88159 0.41657,1.61612 0.49023,1.58686 0.59179,-0.23516 0.14689,-2.63514 3.99928,-4.79162 6.6437,-3.71899 1.63088,0.66153 8.64501,4.63653 17.29516,9.80141 0.92243,0.55077 4.87889,3.0899 8.79214,5.6425 3.91325,2.5526 9.25372,5.83513 11.86772,7.29451 2.61399,1.45937 7.43156,4.43275 10.70571,6.6075 3.27415,2.17475 6.19342,3.95409 6.48726,3.95409 0.29384,0 2.45324,1.29511 4.79867,2.87801 2.34542,1.58291 7.13568,4.54486 10.64502,6.58212 12.57909,7.30249 13.88522,8.20349 13.13808,9.06308 -0.4166,0.47931 0.51757,0.0727 2.07594,-0.90357 2.77728,-1.73988 2.91054,-1.72398 6.72856,0.80266 2.14234,1.41774 4.10982,2.5777 4.37219,2.5777 0.26237,0 2.10429,1.10428 4.09315,2.45396 l 3.61612,2.45397 5.31351,-2.60599 5.31352,-2.60599 16.23068,9.33559 c 20.59498,11.84585 20.53404,11.79729 18.47297,14.71846 -1.02048,1.44634 -2.61772,2.25 -4.47179,2.25 -1.58635,0 -3.16011,0.44631 -3.49724,0.99179 -0.33713,0.54549 -0.70173,5.86916 -0.81023,11.83038 -0.18476,10.152 -0.38946,11.15023 -3.23128,15.75821 -4.76789,7.73106 -5.67294,7.52865 -27.80621,-6.21845 z m 14.72634,-7.61825 c 5.30582,-9.13655 9.58972,-17.37815 9.60224,-18.47336 0.0184,-1.60461 -7.98188,-5.68321 -9.02561,-4.60134 -1.29636,1.34374 -10.71476,17.98198 -11.39849,20.1362 -0.47619,1.50034 0.16019,2.45902 2.65597,4.00112 4.59302,2.83794 6.00763,2.65386 8.16589,-1.06262 z m -17.38369,-11.32188 c 0,-1.42274 1.12411,-3.55908 2.58526,-4.91324 3.8864,-3.60179 1.97128,-8.45727 -3.34996,-8.49325 -3.21953,-0.0218 -6.22688,5.32189 -6.23156,11.07266 -0.004,4.55243 0.0234,4.58899 3.49626,4.71955 3.10793,0.11684 3.5,-0.15041 3.5,-2.38572 z m 7.33134,-13.67482 c 1.4794,-1.08176 1.53969,-1.62739 0.44113,-3.99219 -1.47957,-3.18499 -1.87744,-3.26899 -5.82213,-1.22911 -3.64674,1.88581 -3.67457,2.53508 -0.19855,4.63289 3.46371,2.09039 3.51769,2.09608 5.57955,0.58841 z"
         style="fill:#fae70e" />
      <path
         inkscape:connector-curvature="0"
         id="path3093"
         d="m -280.42813,268.20238 -18.84266,-11.70328 0.6878,-8.69006 0.68779,-8.69005 -6.71979,-3.75792 c -3.69588,-2.06685 -6.91816,-4.49202 -7.16062,-5.38927 -0.51325,-1.89932 -7.62715,-7.08879 -22.16124,-16.16626 -5.69326,-3.5558 -13.89778,-8.71509 -18.23228,-11.46509 -4.3345,-2.75 -11.82639,-7.4538 -16.64863,-10.45288 -4.82225,-2.99909 -8.91772,-5.81159 -9.10105,-6.25 -0.18334,-0.43842 -0.75478,-0.79712 -1.26988,-0.79712 -0.51509,0 -2.84009,-1.2239 -5.16666,-2.71976 -6.60425,-4.24622 -14.09266,-8.19695 -15.61953,-8.24056 -0.76417,-0.0218 -3.68917,-1.46746 -6.5,-3.21252 -4.3253,-2.6853 -6.42966,-3.27115 -13.69483,-3.81263 -9.52372,-0.70981 -14.09501,-2.58022 -21.80079,-8.92015 -2.53824,-2.08833 -7.42986,-5.47291 -10.87026,-7.52128 -5.35547,-3.18858 -8.24472,-5.96962 -8.24472,-7.93593 0,-0.27187 0.71969,-1.214 1.59931,-2.09362 1.33307,-1.33307 1.38097,-1.86238 0.28774,-3.17964 -1.10287,-1.32888 -1.01568,-1.79669 0.54802,-2.94009 1.02277,-0.74786 2.29149,-1.09281 2.81939,-0.76655 0.56037,0.34633 0.69775,-0.23249 0.3301,-1.39085 -1.12896,-3.55704 1.6894,-4.64004 5.90838,-2.27038 l 3.69347,2.0745 -2.18657,-3.07076 c -1.20262,-1.68892 -1.93368,-3.72979 -1.62459,-4.53527 0.61985,-1.61531 3.68559,-1.96279 5.17475,-0.58652 0.5225,0.48289 3.51151,2.28196 6.64225,3.99794 3.83603,2.10255 5.91651,2.75712 6.37994,2.00727 0.42371,-0.68559 2.58535,-0.93034 5.63156,-0.63764 4.27884,0.41114 5.61542,1.13281 9.93594,5.36474 3.06774,3.00485 6.35435,7.70858 8.52614,12.20246 2.02579,4.19177 4.4517,7.73108 5.68413,8.29294 6.76561,3.08438 9.97252,5.80081 8.6828,7.35483 -0.64628,0.77872 -0.65654,2.36449 -0.0294,4.55109 1.01236,3.52987 0.46227,5.35976 -0.9327,3.10266 -0.45135,-0.73029 -1.06791,-0.92769 -1.37015,-0.43866 -0.30224,0.48903 0.98499,1.94061 2.86049,3.22573 1.87551,1.28512 3.11773,2.80952 2.76048,3.38755 -0.40289,0.65191 -0.0177,0.80851 1.01451,0.41243 0.91522,-0.35121 1.66404,-0.25727 1.66404,0.20874 0,0.46601 1.35,1.40648 3,2.08993 1.65,0.68346 3,1.61694 3,2.07441 0,0.45747 1.6875,1.61368 3.75,2.56936 2.0625,0.95568 5.31503,3.00179 7.22784,4.54692 1.91282,1.54512 4.05032,2.80931 4.75,2.80931 0.69969,0 1.27216,0.45 1.27216,1 0,0.55 0.8625,1 1.91667,1 1.05416,0 2.08048,0.49146 2.28071,1.09213 0.20022,0.60068 1.53032,1.16318 2.95576,1.25 1.62107,0.0988 2.41217,0.62602 2.1123,1.40787 -0.26368,0.6875 0.24373,1.25 1.12757,1.25 0.88385,0 1.60699,0.39752 1.60699,0.88337 0,0.48585 0.7875,1.14779 1.75,1.47097 1.76865,0.59386 2.3543,0.94214 9.91368,5.89566 2.30817,1.5125 4.46203,2.75 4.78637,2.75 0.32433,0 2.49325,1.22268 4.81982,2.71706 4.91275,3.15552 10.5009,6.28294 11.22651,6.28294 1.64801,0 0.11315,-1.91635 -1.74638,-2.18045 -1.44904,-0.2058 -2.15254,-0.9114 -1.97623,-1.98215 0.20158,-1.22421 -0.25985,-1.52305 -1.75,-1.13336 -2.18801,0.57217 -2.82604,-1.16891 -0.77377,-2.11148 0.6875,-0.31575 0.27537,-0.33495 -0.91584,-0.0427 -1.19122,0.29229 -2.45527,0.0631 -2.80902,-0.50923 -0.35375,-0.57233 0.0584,-1.04063 0.91584,-1.04063 0.85746,0 1.55902,-0.675 1.55902,-1.5 0,-2.02701 -1.95544,-1.89538 -3.71391,0.25 -0.78892,0.9625 -1.14948,1.1875 -0.80123,0.5 0.42886,-0.84664 -0.23209,-1.25 -2.04829,-1.25 -2.12983,0 -2.45234,-0.27608 -1.56769,-1.34201 0.61257,-0.7381 0.78017,-1.69906 0.37244,-2.13545 -0.40772,-0.4364 0.2416,-0.28249 1.44294,0.34201 1.20134,0.6245 3.38097,1.13545 4.84362,1.13545 1.77539,0 2.82517,0.63407 3.15819,1.90755 0.27436,1.04915 1.24473,2.17444 2.15638,2.50064 0.91165,0.3262 2.33255,0.89099 3.15755,1.25507 1.33333,0.58843 1.33333,0.45906 0,-1.16436 -1.40331,-1.70862 -1.35561,-1.7494 0.74005,-0.63276 1.23202,0.65647 2.13202,1.74264 2,2.41372 -0.13203,0.67108 0.46617,1.22765 1.32933,1.23682 2.92998,0.0311 9.89889,3.72552 9.19204,4.87291 -0.37624,0.61072 0.57356,0.28795 2.11065,-0.71729 2.75852,-1.80402 2.84518,-1.7943 6.68989,0.75 2.14234,1.41774 4.10982,2.5777 4.37219,2.5777 0.26237,0 2.10429,1.10428 4.09315,2.45396 l 3.61612,2.45397 5.31351,-2.60599 5.31352,-2.60599 16.23068,9.33559 c 20.59498,11.84585 20.53404,11.79729 18.47297,14.71846 -1.02048,1.44634 -2.61772,2.25 -4.47179,2.25 -1.58635,0 -3.16011,0.44631 -3.49724,0.99179 -0.33713,0.54549 -0.70173,5.86916 -0.81023,11.83038 -0.18476,10.152 -0.38946,11.15023 -3.23128,15.75821 -4.76789,7.73106 -5.67294,7.52865 -27.80621,-6.21845 z m 14.72634,-7.61825 c 5.30582,-9.13655 9.58972,-17.37815 9.60224,-18.47336 0.0184,-1.60461 -7.98188,-5.68321 -9.02561,-4.60134 -1.29636,1.34374 -10.71476,17.98198 -11.39849,20.1362 -0.47619,1.50034 0.16019,2.45902 2.65597,4.00112 4.59302,2.83794 6.00763,2.65386 8.16589,-1.06262 z m -17.38369,-11.32188 c 0,-1.42274 1.12411,-3.55908 2.58526,-4.91324 3.8864,-3.60179 1.97128,-8.45727 -3.34996,-8.49325 -3.21953,-0.0218 -6.22688,5.32189 -6.23156,11.07266 -0.004,4.55243 0.0234,4.58899 3.49626,4.71955 3.10793,0.11684 3.5,-0.15041 3.5,-2.38572 z m 7.33134,-13.67482 c 1.4794,-1.08176 1.53969,-1.62739 0.44113,-3.99219 -1.47957,-3.18499 -1.87744,-3.26899 -5.82213,-1.22911 -3.64674,1.88581 -3.67457,2.53508 -0.19855,4.63289 3.46371,2.09039 3.51769,2.09608 5.57955,0.58841 z m -36.3514,-13.27115 c -0.69572,-0.83829 -1.52528,-1.26382 -1.84348,-0.94562 -0.3182,0.31819 0.0834,0.99718 0.8925,1.50885 2.11697,1.33881 2.39358,1.17499 0.95098,-0.56323 z m -83.11327,-56.16909 c 0.89833,-0.68372 1.16083,-1.25744 0.58333,-1.27493 -1.73319,-0.0525 -3.45766,2.23276 -3.334,4.41819 0.11207,1.98049 0.13298,1.98303 0.61667,0.0749 0.27537,-1.08628 1.23567,-2.53447 2.134,-3.21819 z"
         style="fill:#f4d70f" />
      <path
         inkscape:connector-curvature="0"
         id="path3091"
         d="m -280.42813,268.20238 -18.84266,-11.70328 0.6878,-8.69006 0.68779,-8.69005 -6.71979,-3.75792 c -3.69588,-2.06685 -6.91816,-4.49202 -7.16062,-5.38927 -0.51325,-1.89932 -7.62715,-7.08879 -22.16124,-16.16626 -5.69326,-3.5558 -13.89778,-8.71509 -18.23228,-11.46509 -4.3345,-2.75 -11.82639,-7.4538 -16.64863,-10.45288 -4.82225,-2.99909 -8.91772,-5.81159 -9.10105,-6.25 -0.18334,-0.43842 -0.75478,-0.79712 -1.26988,-0.79712 -0.51509,0 -2.84009,-1.2239 -5.16666,-2.71976 -6.60425,-4.24622 -14.09266,-8.19695 -15.61953,-8.24056 -0.76417,-0.0218 -3.68917,-1.46746 -6.5,-3.21252 -4.3253,-2.6853 -6.42966,-3.27115 -13.69483,-3.81263 -9.52372,-0.70981 -14.09501,-2.58022 -21.80079,-8.92015 -2.53824,-2.08833 -7.42986,-5.47291 -10.87026,-7.52128 -5.35547,-3.18858 -8.24472,-5.96962 -8.24472,-7.93593 0,-0.27187 0.71969,-1.214 1.59931,-2.09362 1.33307,-1.33307 1.38097,-1.86238 0.28774,-3.17964 -1.10287,-1.32888 -1.01568,-1.79669 0.54802,-2.94009 1.02277,-0.74786 2.29149,-1.09281 2.81939,-0.76655 0.56037,0.34633 0.69775,-0.23249 0.3301,-1.39085 -1.12896,-3.55704 1.6894,-4.64004 5.90838,-2.27038 l 3.69347,2.0745 -2.18657,-3.07076 c -1.20262,-1.68892 -1.93368,-3.72979 -1.62459,-4.53527 0.61985,-1.61531 3.68559,-1.96279 5.17475,-0.58652 0.5225,0.48289 3.51151,2.28196 6.64225,3.99794 3.83603,2.10255 5.91651,2.75712 6.37994,2.00727 0.42371,-0.68559 2.58535,-0.93034 5.63156,-0.63764 4.27884,0.41114 5.61542,1.13281 9.93594,5.36474 3.06774,3.00485 6.35435,7.70858 8.52614,12.20246 2.01703,4.17366 4.45702,7.73739 5.68413,8.30197 9.43953,4.34305 10.52491,5.89001 6.67925,9.51969 -1.66606,1.5725 -3.02921,3.61792 -3.02921,4.54539 0,2.31632 6.53652,7.43082 19,14.86654 5.775,3.44537 15.45,9.45859 21.5,13.3627 6.05,3.90412 12.8,7.99672 15,9.09467 2.2,1.09795 4.27671,2.37448 4.61491,2.83672 0.62328,0.85187 1.92162,1.66718 8.0045,5.02653 1.85933,1.02684 4.35978,2.76148 5.55656,3.85477 1.19679,1.09329 2.62835,1.70822 3.18125,1.36651 0.55289,-0.34171 2.674,0.51114 4.71357,1.89523 4.46071,3.02712 5.8346,3.17475 5.14908,0.55329 -0.52693,-2.01496 1.44312,-4.54044 2.62214,-3.36143 0.36189,0.3619 0.65799,-0.092 0.65799,-1.00867 0,-0.91667 0.47656,-1.66667 1.05902,-1.66667 0.59139,0 0.71886,0.55195 0.28867,1.25 -0.42368,0.6875 0.48729,0.42754 2.02438,-0.5777 2.75852,-1.80402 2.84518,-1.7943 6.68989,0.75 2.14234,1.41774 4.10982,2.5777 4.37219,2.5777 0.26237,0 2.10429,1.10428 4.09315,2.45396 l 3.61612,2.45397 5.31351,-2.60599 5.31352,-2.60599 16.23068,9.33559 c 20.59498,11.84585 20.53404,11.79729 18.47297,14.71846 -1.02048,1.44634 -2.61772,2.25 -4.47179,2.25 -1.58635,0 -3.16011,0.44631 -3.49724,0.99179 -0.33713,0.54549 -0.70173,5.86916 -0.81023,11.83038 -0.18476,10.152 -0.38946,11.15023 -3.23128,15.75821 -4.76789,7.73106 -5.67294,7.52865 -27.80621,-6.21845 z m 14.72634,-7.61825 c 5.30582,-9.13655 9.58972,-17.37815 9.60224,-18.47336 0.0184,-1.60461 -7.98188,-5.68321 -9.02561,-4.60134 -1.29636,1.34374 -10.71476,17.98198 -11.39849,20.1362 -0.47619,1.50034 0.16019,2.45902 2.65597,4.00112 4.59302,2.83794 6.00763,2.65386 8.16589,-1.06262 z m -17.38369,-11.32188 c 0,-1.42274 1.12411,-3.55908 2.58526,-4.91324 3.8864,-3.60179 1.97128,-8.45727 -3.34996,-8.49325 -3.21953,-0.0218 -6.22688,5.32189 -6.23156,11.07266 -0.004,4.55243 0.0234,4.58899 3.49626,4.71955 3.10793,0.11684 3.5,-0.15041 3.5,-2.38572 z m 7.33134,-13.67482 c 1.4794,-1.08176 1.53969,-1.62739 0.44113,-3.99219 -1.47957,-3.18499 -1.87744,-3.26899 -5.82213,-1.22911 -3.64674,1.88581 -3.67457,2.53508 -0.19855,4.63289 3.46371,2.09039 3.51769,2.09608 5.57955,0.58841 z"
         style="fill:#a1989f" />
      <path
         inkscape:connector-curvature="0"
         id="path3089"
         d="m -270.58548,274.02161 c -4.95,-3.18741 -13.37902,-8.40749 -18.73115,-11.60018 l -9.73115,-5.8049 0.61494,-8.66332 0.61494,-8.66333 -6.1095,-3.771 c -3.36023,-2.07405 -6.72961,-4.65632 -7.48751,-5.73838 -1.63511,-2.33443 -8.39037,-7.12266 -22.52194,-15.96387 -5.69326,-3.5619 -13.89778,-8.72618 -18.23228,-11.47618 -4.3345,-2.75 -11.82639,-7.4538 -16.64863,-10.45288 -4.82225,-2.99909 -8.91772,-5.81159 -9.10105,-6.25 -0.18334,-0.43842 -0.79308,-0.79712 -1.35498,-0.79712 -0.5619,0 -2.92835,-1.28683 -5.25878,-2.85961 -2.33043,-1.57278 -7.34569,-4.37116 -11.14503,-6.21862 -3.79933,-1.84745 -9.14115,-4.65542 -11.8707,-6.23993 -4.12816,-2.39639 -6.23046,-2.91481 -12.5,-3.08246 -5.95791,-0.15932 -8.62239,-0.76307 -12.71641,-2.88145 -2.84858,-1.47394 -5.48474,-3.17422 -5.85815,-3.7784 -0.3734,-0.60418 -5.04235,-3.94823 -10.37546,-7.43122 -11.81476,-7.7161 -13.03797,-8.98607 -10.80549,-11.21855 1.47982,-1.47982 1.87678,-1.40923 4.9141,0.87381 3.26045,2.45076 6.80423,4.1881 6.80423,3.33578 0,-0.24084 -2.50534,-2.04053 -5.56741,-3.99932 -6.00033,-3.83837 -6.85145,-6.45688 -2.43742,-7.49889 1.67766,-0.39604 2.08195,-0.83544 1.24475,-1.35286 -0.68196,-0.42147 -1.23992,-1.20388 -1.23992,-1.73868 0,-1.87933 2.80548,-2.01677 6.63327,-0.32496 2.1267,0.93996 4.413,1.82575 5.08066,1.96841 0.66766,0.14267 2.58016,1.23224 4.25,2.42127 1.66984,1.18903 3.03607,1.69279 3.03607,1.11946 0,-0.57333 -1.4625,-1.79567 -3.25,-2.71631 -5.0507,-2.60133 -9.75,-6.47044 -9.75,-8.02754 0,-2.9161 3.08762,-2.38719 9.98497,1.71045 6.38644,3.79412 7.35454,4.09588 9.48393,2.95627 3.93542,-2.10618 9.06818,-0.46157 14.12829,4.52691 4.56874,4.50406 10.40281,14.24966 10.40281,17.37752 0,0.94489 1.28124,2.3617 2.8472,3.14846 11.37539,5.71513 11.90722,6.41824 7.6528,10.11741 -1.375,1.19555 -2.5,2.96245 -2.5,3.92644 0,2.38016 6.42948,7.43338 19,14.93296 5.775,3.44537 15.45,9.45859 21.5,13.3627 6.05,3.90412 12.8,7.99672 15,9.09467 2.2,1.09795 4.27671,2.37448 4.61491,2.83672 0.62328,0.85187 1.92162,1.66718 8.0045,5.02653 1.85933,1.02684 4.35978,2.76148 5.55656,3.85477 1.19679,1.09329 2.62835,1.70822 3.18125,1.36651 0.55289,-0.34171 2.674,0.51114 4.71357,1.89523 4.46071,3.02712 5.8346,3.17475 5.14908,0.55329 -0.52693,-2.01496 1.44312,-4.54044 2.62214,-3.36143 0.36189,0.3619 0.65799,-0.092 0.65799,-1.00867 0,-0.91667 0.47656,-1.66667 1.05902,-1.66667 0.59139,0 0.71886,0.55195 0.28867,1.25 -0.42368,0.6875 0.48746,0.42742 2.02476,-0.57794 2.75,-1.79845 2.85426,-1.78909 6.46133,0.58031 2.01642,1.32455 5.5678,3.60878 7.89195,5.07607 l 4.22572,2.66781 5.60816,-2.48019 5.60816,-2.4802 17.41611,10.12587 c 11.46844,6.66783 17.41612,10.69146 17.41612,11.78207 0,2.54392 -2.07635,4.0562 -5.56916,4.0562 -2.87628,0 -3.22432,0.33991 -3.76604,3.67818 -0.32829,2.023 -0.32975,6.23401 -0.003,9.35781 0.4202,4.02028 0.0975,7.17334 -1.10452,10.7923 -1.74647,5.25814 -6.29388,10.18168 -9.38376,10.15993 -0.9203,-0.006 -5.72327,-2.61966 -10.67327,-5.80706 z m 9.02494,-20.13876 c 3.10092,-5.47668 5.48887,-10.69473 5.30655,-11.59567 -0.18232,-0.90093 -2.18261,-2.72946 -4.44508,-4.06338 l -4.1136,-2.42532 -5.31516,9.27098 c -2.92333,5.09905 -5.93817,10.24793 -6.69964,11.44197 -1.28634,2.01709 -1.11544,2.35379 2.41089,4.75 2.08745,1.41846 4.56546,2.57902 5.50668,2.57902 1.12304,0 3.64942,-3.42297 7.34936,-9.9576 z m -21.52494,-4.08785 c 0,-1.125 1.125,-3.17046 2.5,-4.54546 1.375,-1.375 2.5,-3.59417 2.5,-4.93149 0,-1.49011 0.96791,-3.06569 2.5,-4.06956 2.95795,-1.93812 2.99287,-2.20961 0.67227,-5.22591 -2.7571,-3.58367 -6.41838,-2.08122 -11.19981,4.59598 -3.44082,4.80504 -3.97246,6.26176 -3.97246,10.88468 l 0,5.33721 3.5,0 c 2.85926,0 3.5,-0.37446 3.5,-2.04545 z m -161,-102.34756 c 0,-0.21615 -0.69837,-0.661 -1.55194,-0.98854 -0.88992,-0.3415 -1.29132,-0.17385 -0.94098,0.39301 0.58726,0.9502 2.49292,1.40545 2.49292,0.59553 z m -4,-9.5 c 0,-0.49115 -0.73865,-1.17646 -1.64144,-1.52289 -1.37248,-0.52667 -1.43434,-0.38034 -0.37756,0.89301 1.44013,1.73525 2.019,1.91584 2.019,0.62988 z"
         style="fill:#d7b62f" />
      <path
         inkscape:connector-curvature="0"
         id="path3087"
         d="m -270.58548,274.02161 c -4.95,-3.18741 -13.37902,-8.40749 -18.73115,-11.60018 l -9.73115,-5.8049 0.61494,-8.66332 0.61494,-8.66333 -6.16249,-3.8037 c -3.38938,-2.09204 -6.85995,-4.86816 -7.71239,-6.16915 -1.46512,-2.23605 -1.38453,-2.54625 1.47318,-5.67101 1.66269,-1.81806 4.121,-4.64035 5.46291,-6.27174 l 2.43984,-2.96617 3.86569,2.54649 c 2.12612,1.40057 5.76726,3.747 8.09141,5.21429 l 4.22572,2.66781 5.60816,-2.48019 5.60816,-2.4802 17.41611,10.12587 c 11.46844,6.66783 17.41612,10.69146 17.41612,11.78207 0,2.54392 -2.07635,4.0562 -5.56916,4.0562 -2.87628,0 -3.22432,0.33991 -3.76604,3.67818 -0.32829,2.023 -0.32975,6.23401 -0.003,9.35781 0.4202,4.02028 0.0975,7.17334 -1.10452,10.7923 -1.74647,5.25814 -6.29388,10.18168 -9.38376,10.15993 -0.9203,-0.006 -5.72327,-2.61966 -10.67327,-5.80706 z m 9.02494,-20.13876 c 3.10092,-5.47668 5.48887,-10.69473 5.30655,-11.59567 -0.18232,-0.90093 -2.18261,-2.72946 -4.44508,-4.06338 l -4.1136,-2.42532 -5.31516,9.27098 c -2.92333,5.09905 -5.93817,10.24793 -6.69964,11.44197 -1.28634,2.01709 -1.11544,2.35379 2.41089,4.75 2.08745,1.41846 4.56546,2.57902 5.50668,2.57902 1.12304,0 3.64942,-3.42297 7.34936,-9.9576 z m -21.52494,-4.08785 c 0,-1.125 1.125,-3.17046 2.5,-4.54546 1.375,-1.375 2.5,-3.59417 2.5,-4.93149 0,-1.49011 0.96791,-3.06569 2.5,-4.06956 2.95795,-1.93812 2.99287,-2.20961 0.67227,-5.22591 -2.7571,-3.58367 -6.41838,-2.08122 -11.19981,4.59598 -3.44082,4.80504 -3.97246,6.26176 -3.97246,10.88468 l 0,5.33721 3.5,0 c 2.85926,0 3.5,-0.37446 3.5,-2.04545 z m -123.46375,-79.59167 c -5.27495,-3.15059 -6.83416,-3.58527 -13.5,-3.76352 -5.95691,-0.15929 -8.62164,-0.76314 -12.71548,-2.88143 -2.84858,-1.47394 -5.48474,-3.17422 -5.85815,-3.7784 -0.3734,-0.60418 -5.04235,-3.94823 -10.37546,-7.43122 -11.81476,-7.7161 -13.03797,-8.98607 -10.80549,-11.21855 1.47982,-1.47982 1.87678,-1.40923 4.9141,0.87381 3.26045,2.45076 6.80423,4.1881 6.80423,3.33578 0,-0.24084 -2.50534,-2.04053 -5.56741,-3.99932 -6.00033,-3.83837 -6.85145,-6.45688 -2.43742,-7.49889 1.67766,-0.39604 2.08195,-0.83544 1.24475,-1.35286 -0.68196,-0.42147 -1.23992,-1.20388 -1.23992,-1.73868 0,-1.87933 2.80548,-2.01677 6.63327,-0.32496 2.1267,0.93996 4.413,1.82575 5.08066,1.96841 0.66766,0.14267 2.58016,1.23224 4.25,2.42127 1.66984,1.18903 3.03607,1.69279 3.03607,1.11946 0,-0.57333 -1.4625,-1.79567 -3.25,-2.71631 -5.0507,-2.60133 -9.75,-6.47044 -9.75,-8.02754 0,-2.9161 3.08762,-2.38719 9.98497,1.71045 6.38644,3.79412 7.35454,4.09588 9.48393,2.95627 3.93542,-2.10618 9.06818,-0.46157 14.12829,4.52691 4.56874,4.50406 10.40281,14.24966 10.40281,17.37752 0,0.94489 1.28124,2.3617 2.8472,3.14846 11.40239,5.72869 11.62023,5.98834 7.64648,9.1141 -3.64766,2.86925 -4.78249,5.40819 -3.49368,7.81636 1.59711,2.98422 -0.49448,2.52545 -7.46375,-1.63712 z m -37.53625,-22.75589 c 0,-0.21615 -0.69837,-0.661 -1.55194,-0.98854 -0.88992,-0.3415 -1.29132,-0.17385 -0.94098,0.39301 0.58726,0.9502 2.49292,1.40545 2.49292,0.59553 z m -4,-9.5 c 0,-0.49115 -0.73865,-1.17646 -1.64144,-1.52289 -1.37248,-0.52667 -1.43434,-0.38034 -0.37756,0.89301 1.44013,1.73525 2.019,1.91584 2.019,0.62988 z"
         style="fill:#a0798a" />
      <path
         inkscape:connector-curvature="0"
         id="path3085"
         d="m -274.63355,271.19378 c -7.67356,-4.75929 -15.82121,-9.7251 -18.10589,-11.03511 -2.28468,-1.31002 -4.58251,-2.93004 -5.10628,-3.60004 -0.57685,-0.73788 -0.63811,-4.36291 -0.15539,-9.1942 0.43831,-4.38681 0.71114,-8.05977 0.60628,-8.16214 -0.10486,-0.10237 -3.11565,-1.9582 -6.69065,-4.12408 -7.63122,-4.62329 -9.93313,-7.92807 -7.131,-10.23776 1.00089,-0.825 3.06824,-3.1875 4.59409,-5.25 1.52586,-2.0625 3.40354,-3.75 4.17262,-3.75 0.76908,0 4.83367,2.08539 9.03242,4.63421 l 7.6341,4.6342 5.28876,-2.59385 5.28876,-2.59385 11.31013,6.62325 c 6.22056,3.64278 14.12262,8.20835 17.56012,10.14569 3.4375,1.93735 6.25,4.04398 6.25,4.68141 0,1.96526 -3.52024,4.46894 -6.28343,4.46894 -3.14698,0 -3.67835,2.22735 -3.45915,14.5 0.11445,6.40818 -0.28036,8.80922 -1.98418,12.0669 -4.76608,9.11264 -6.3039,9.03086 -22.82131,-1.21357 z m 7.73687,-8.10333 c 3.06902,-3.58346 11.92221,-20.26136 11.29454,-21.27696 -0.62985,-1.01911 -7.99474,-5.97304 -8.87998,-5.97304 -0.24002,0 -3.44677,5.24286 -7.12612,11.65079 -5.17916,9.01998 -6.38349,11.83354 -5.33349,12.46011 0.74594,0.44513 2.70625,1.69438 4.35625,2.77611 3.77078,2.47211 3.87667,2.47887 5.6888,0.36299 z m -15.52467,-14.25 c 0.1937,-1.375 1.24851,-3.24713 2.34403,-4.16029 1.09551,-0.91316 1.99184,-2.78813 1.99184,-4.1666 0,-1.52694 0.98553,-3.22421 2.5221,-4.34352 2.30312,-1.67771 2.41165,-2.07497 1.25,-4.5756 -2.25193,-4.84763 -7.69977,-3.05848 -12.22612,4.01524 -2.71959,4.25014 -5.00217,13.51431 -3.82779,15.5356 0.25719,0.44265 2.07099,0.66765 4.03068,0.5 2.93687,-0.25126 3.62496,-0.74419 3.91526,-2.80483 z m -124.66413,-78.9692 c -5.56908,-3.33592 -7.08693,-3.81529 -10.59813,-3.34707 -5.53489,0.73808 -14.24547,-1.92151 -19.58727,-5.98055 -2.37303,-1.80318 -8.48375,-6.1278 -13.57938,-9.61025 -5.09563,-3.48246 -9.55188,-6.79628 -9.90278,-7.36404 -0.35089,-0.56776 0.18361,-1.63306 1.18778,-2.36733 1.58058,-1.15575 2.2636,-1.00109 5.08605,1.1517 1.79316,1.36771 3.67962,2.48674 4.19215,2.48674 0.51252,0 2.11755,0.93266 3.56672,2.07258 1.44917,1.13992 2.63486,1.64121 2.63486,1.11397 0,-0.52724 -3.09763,-2.79888 -6.88362,-5.0481 -6.92018,-4.1112 -9.0396,-6.61523 -7.17629,-8.47854 0.67421,-0.67421 1.92095,-0.59004 3.78278,0.25538 l 2.77713,1.26104 -2.28331,-2.43807 c -1.95707,-2.08971 -2.07671,-2.60954 -0.83738,-3.63809 1.13885,-0.94517 2.26091,-0.83696 5.28331,0.50951 2.11056,0.94024 4.06238,1.76616 4.33738,1.83536 1.36666,0.34394 5.57757,2.97329 6.1382,3.83278 0.35101,0.53813 1.17682,0.64553 1.83513,0.23867 0.75826,-0.46863 -1.2021,-2.17651 -5.34887,-4.65998 -6.86322,-4.11032 -8.77238,-5.97386 -6.79528,-6.6329 0.6508,-0.21693 0.92892,-0.80599 0.61803,-1.30902 -0.31088,-0.50302 -0.20119,-0.90896 0.24377,-0.90207 1.39123,0.0215 12.39253,6.57064 11.88686,7.07631 -0.7887,0.7887 4.77999,0.37045 6.67969,-0.5017 0.96664,-0.44379 3.40517,-0.49778 5.41895,-0.12 5.96942,1.11987 15.89151,13.10378 17.84202,21.5496 0.40566,1.75655 2.25142,3.41781 6.11081,5.5 7.76244,4.18792 8.18203,4.9297 4.52778,8.00454 -3.62165,3.04743 -4.77819,6.02542 -3.11726,8.02672 2.19869,2.64926 -1.18167,1.59091 -8.03983,-2.51719 z m -40.57026,-31.91711 c 0.30127,-0.48747 -0.37289,-1.12706 -1.49814,-1.42132 -1.67795,-0.4388 -1.83375,-0.27939 -0.86631,0.88631 1.38094,1.66393 1.63167,1.72066 2.36445,0.53501 z m 15.07026,-0.11369 c -0.33992,-0.55 -1.15398,-0.99311 -1.80902,-0.98468 -0.71561,0.009 -0.59227,0.40222 0.30902,0.98468 1.92112,1.24153 2.26731,1.24153 1.5,0 z m 4.99292,-5.98854 c 0.35034,-0.56686 -0.0511,-0.73451 -0.94098,-0.39301 -1.73242,0.66479 -2.04939,1.38155 -0.61096,1.38155 0.51754,0 1.21592,-0.44484 1.55194,-0.98854 z"
         style="fill:#69676d" />
      <path
         inkscape:connector-curvature="0"
         id="path3083"
         d="m -277.65086,269.41707 c -22.32912,-13.76692 -21.4583,-13.08735 -20.95236,-16.3508 0.23242,-1.4992 0.66132,-5.21453 0.9531,-8.25629 l 0.53051,-5.53047 -7.06757,-4.3612 c -7.78679,-4.80501 -9.7629,-7.66786 -6.95632,-10.07786 0.96075,-0.825 2.99526,-3.1875 4.52111,-5.25 1.52586,-2.0625 3.40354,-3.75 4.17262,-3.75 0.76908,0 4.83367,2.08539 9.03242,4.63421 l 7.6341,4.6342 5.28876,-2.59385 5.28876,-2.59385 11.31013,6.62325 c 6.22056,3.64278 14.12262,8.20835 17.56012,10.14569 3.4375,1.93735 6.25,4.04398 6.25,4.68141 0,1.96526 -3.52024,4.46894 -6.28343,4.46894 -3.14698,0 -3.67835,2.22735 -3.45915,14.5 0.11445,6.40818 -0.28036,8.80922 -1.98418,12.0669 -4.89093,9.35135 -6.03619,9.21881 -25.83862,-2.99028 z m 10.75418,-6.32662 c 3.21636,-3.75551 11.80377,-20.10578 11.27862,-21.47431 -0.30544,-0.79596 -2.22306,-2.29686 -4.26138,-3.33535 -2.03832,-1.03849 -3.97829,-2.02815 -4.31104,-2.19925 -0.56525,-0.29065 -12.10814,18.54481 -13.35329,21.78963 -0.37616,0.98025 0.8665,2.37417 3.69579,4.14562 5.19064,3.24992 5.09951,3.23584 6.9513,1.07366 z m -16.52675,-11.5 c 0.42905,-0.6875 0.90928,-2.15 1.06718,-3.25 0.1579,-1.1 1.18341,-2.74713 2.27893,-3.66029 1.09551,-0.91316 1.99184,-2.78813 1.99184,-4.1666 0,-1.55131 0.99771,-3.23308 2.61841,-4.41367 2.40373,-1.751 2.50621,-2.10628 1.25,-4.33341 -2.02378,-3.58792 -2.87313,-3.89284 -6.27806,-2.25381 -4.08175,1.96483 -9.54578,10.70024 -9.74035,15.57203 -0.0825,2.06566 -0.195,4.29796 -0.25,4.96067 -0.055,0.6627 1.025,1.51784 2.4,1.90032 3.66668,1.01993 3.8107,1.00895 4.66205,-0.35524 z m -118.48258,-79.27052 c -2.04677,-0.889 -3.04827,-1.88274 -2.6108,-2.59059 0.44025,-0.71234 0.18227,-0.95667 -0.67947,-0.64352 -0.76406,0.27766 -2.86831,-0.38592 -4.6761,-1.47463 -2.35959,-1.42102 -4.22473,-1.80354 -6.61105,-1.35586 -3.89565,0.73083 -13.8715,-1.16988 -13.057,-2.48776 0.30735,-0.49732 -0.13955,-0.63622 -0.99311,-0.30867 -0.97323,0.37346 -1.55194,0.0418 -1.55194,-0.88949 0,-0.81675 -1.0125,-2.2402 -2.25,-3.1632 -1.97841,-1.47563 -2.00859,-1.5971 -0.25,-1.00631 5.24033,1.76045 10.42985,2.54757 14.88718,2.25802 4.04472,-0.26274 5.079,0.0273 6,1.68253 1.51087,2.71539 2.92757,3.60877 3.71143,2.34045 0.45043,-0.72881 0.86242,-0.71252 1.33541,0.0528 0.37621,0.60873 0.095,1.12045 -0.625,1.13718 -1.75711,0.0408 2.28245,2.38551 4.19098,2.43259 0.825,0.0204 1.37218,0.712 1.21595,1.537 -0.15622,0.825 0.96878,0.15 2.5,-1.5 4.29662,-4.6299 7.25143,-6.5931 4.02354,-2.67328 -3.01414,3.66025 -3.3466,5.16616 -1.53949,6.97327 1.51189,1.51189 1.09692,1.46786 -3.02053,-0.32052 z m -4.61518,-9.7726 c 0.37553,-0.98623 0.93469,-1.54123 1.24258,-1.23334 0.30789,0.30789 6.4e-4,1.1148 -0.68278,1.79313 -0.98762,0.98027 -1.10248,0.8654 -0.5598,-0.55979 z m 6.16904,-2.83096 c 0.67834,-0.68342 1.48524,-0.99068 1.79313,-0.68279 0.30789,0.30789 -0.24711,0.86705 -1.23333,1.24258 -1.4252,0.54269 -1.54006,0.42782 -0.5598,-0.55979 z m -12.73333,-2.63537 c 0,-0.4177 0.9,-1.32151 2,-2.00847 2.32562,-1.45237 2.6359,-0.72512 0.57143,1.33935 -1.57635,1.57635 -2.57143,1.83529 -2.57143,0.66912 z m -30.11514,-2.03036 c -1.31167,-0.9844 -3.50986,-2.35641 -4.88486,-3.04891 -5.64216,-2.84158 -7.81294,-4.23287 -9.12188,-5.84639 -0.79563,-0.98078 -0.87576,-1.39745 -0.18958,-0.98581 0.65411,0.39239 1.581,0.0117 2.06134,-0.84662 0.77367,-1.38247 1.19113,-1.39445 3.67553,-0.10553 2.56025,1.32827 2.62205,1.48301 0.71431,1.78857 -1.57548,0.25235 -1.85881,0.70173 -1.15356,1.82963 0.80136,1.28161 1.14183,1.2121 2.38404,-0.48672 1.38053,-1.88799 1.54017,-1.8995 3.37063,-0.24295 1.05681,0.9564 2.22245,1.43793 2.59032,1.07006 0.36787,-0.36787 0.66885,-0.14385 0.66885,0.49782 0,0.64166 -0.9,1.16666 -2,1.16666 -1.1,0 -2,0.47656 -2,1.05902 0,0.58246 0.41156,0.80466 0.91459,0.49377 0.50302,-0.31089 1.09208,-0.0328 1.30902,0.61803 0.56708,1.70124 2.77639,0.0458 2.77639,-2.08036 0,-1.63611 -8.78327,-8.09046 -11.00974,-8.09046 -0.48227,0 -1.57737,-1.00012 -2.43356,-2.2225 -0.85618,-1.22238 -1.56359,-1.78488 -1.57201,-1.25 -0.018,1.14627 -1.94692,-1.64405 -1.96938,-2.84893 -0.008,-0.45178 0.69597,-0.11014 1.56531,0.7592 1.6859,1.6859 3.90564,1.15804 2.78118,-0.66137 -0.41004,-0.66347 -0.20313,-0.79637 0.53225,-0.34188 0.92755,0.57326 0.90568,1.12392 -0.0955,2.40451 -1.16725,1.49302 -1.11816,1.51934 0.48553,0.26024 1.49195,-1.17137 2.18788,-1.18464 4.25,-0.081 3.08426,1.65064 3.29155,3.47485 0.21591,1.90012 -2.13677,-1.09402 -2.16445,-1.06237 -0.55019,0.62892 1.4359,1.5044 1.94897,1.57413 3.30453,0.44911 1.36771,-1.1351 1.92896,-0.99621 3.80019,0.94041 l 2.19547,2.27221 -2.5,-0.70729 c -2.18833,-0.61911 -2.07622,-0.38694 0.89925,1.86227 1.86958,1.41326 3.78208,2.33295 4.25,2.04376 1.42795,-0.88252 0.94685,-3.40776 -0.64925,-3.40776 -0.825,0 -1.5,-0.56327 -1.5,-1.25171 0,-0.68845 -2.1375,-2.36187 -4.75,-3.71872 -5.95437,-3.0925 -10.25,-6.14204 -10.25,-7.27664 0,-0.47903 0.41891,-0.61206 0.9309,-0.29563 0.512,0.31643 1.21355,0.11799 1.55902,-0.44098 0.34546,-0.55898 0.0766,-1.01632 -0.59757,-1.01632 -0.67413,0 -0.96929,-0.25639 -0.65592,-0.56976 0.63104,-0.63104 8.76357,3.26382 8.76357,4.19708 0,0.32266 -0.73865,0.30321 -1.64144,-0.0432 -1.36774,-0.52486 -1.43222,-0.37779 -0.3867,0.882 0.69012,0.83153 1.61533,1.28903 2.05604,1.01666 0.4407,-0.27237 1.06056,0.0701 1.37746,0.76101 0.3169,0.69093 0.30359,0.17624 -0.0296,-1.14374 l -0.60576,-2.39997 3.11499,2.21806 c 2.83001,2.01515 4.5035,4.05806 2.11499,2.58188 -0.55,-0.33992 -0.99443,-0.25397 -0.98762,0.19099 0.007,0.44496 1.53568,1.79541 3.3975,3.00102 3.23618,2.09556 3.45598,2.1137 4.99571,0.41231 1.48383,-1.6396 1.47222,-1.89531 -0.14749,-3.24864 -0.96696,-0.80792 -2.8831,-2.0088 -4.2581,-2.6686 -1.375,-0.65981 -4.3,-2.33135 -6.5,-3.71454 -2.2,-1.38319 -4.52771,-2.76515 -5.17268,-3.07103 -0.64498,-0.30588 -1.45914,-1.30885 -1.80925,-2.22882 -0.48797,-1.28224 -0.36087,-1.39915 0.54454,-0.50083 0.64961,0.64452 1.87509,0.90555 2.72329,0.58006 0.96795,-0.37144 1.28885,-0.18189 0.86183,0.50905 -0.37419,0.60546 -0.25067,1.3664 0.2745,1.69097 0.52517,0.32457 1.37325,-0.15752 1.88463,-1.0713 0.51138,-0.91379 1.44638,-1.34216 2.07777,-0.95194 0.6314,0.39023 0.89228,1.12325 0.57974,1.62895 -0.31794,0.51444 0.22549,0.62177 1.23369,0.24367 1.52797,-0.57303 1.61001,-0.43942 0.53961,0.87877 -1.03258,1.27161 -0.96946,1.79762 0.34678,2.89 1.3632,1.13136 1.75652,1.07201 2.57379,-0.38836 0.53057,-0.94808 1.41418,-1.44598 1.96358,-1.10644 0.54939,0.33954 2.29527,0.0804 3.87973,-0.57593 4.29087,-1.77734 9.08394,0.21243 13.9904,5.80791 3.2876,3.74927 4.00901,5.24382 3.58825,7.4338 -0.52549,2.73515 1.02847,3.47214 2.65449,1.25893 0.4591,-0.62489 0.78732,-0.53112 0.875,0.25 0.25041,2.23087 0.40736,2.72856 1.31013,4.15451 0.61127,0.96552 0.52834,1.18149 -0.26531,0.69099 -0.63498,-0.39244 -1.15451,-0.23697 -1.15451,0.34549 0,0.58246 -0.9,1.05901 -2,1.05901 -1.11111,0 -2,0.66667 -2,1.5 0,1.94078 -2.39685,1.93169 -4.01263,-0.0152 -1.84533,-2.22348 -10.13559,-6.07568 -12.71123,-5.90646 -1.22312,0.0804 -1.97953,-0.24923 -1.6809,-0.73242 0.29863,-0.48318 0.88686,-0.66597 1.30719,-0.4062 0.42033,0.25978 0.76424,-0.18288 0.76424,-0.98368 0,-2.2067 -1.17265,-1.74761 -2.66667,1.04398 -0.73588,1.375 -1.93692,2.5 -2.66898,2.5 -0.73206,0 -1.33102,0.675 -1.33102,1.5 0,0.825 -0.51289,1.5 -1.13976,1.5 -1.13351,0 -3.76772,2.87857 -3.82844,4.18358 -0.0175,0.37597 1.2057,0.87104 2.7182,1.10017 l 2.75,0.41659 -2.61514,0.14983 c -1.43833,0.0824 -3.68833,-0.65558 -5,-1.63998 z m 14.00024,-19.81726 c -2.05662,-1.13998 -1.93553,-1.83469 0.26899,-1.54332 0.35975,0.0476 1.20235,-0.57416 1.87244,-1.38158 1.91479,-2.30717 -1.59455,-1.90001 -3.95323,0.45867 -1.90226,1.90227 -1.89909,1.94524 0.25,3.38858 1.19719,0.80404 2.575,1.22289 3.0618,0.93079 0.4868,-0.2921 -0.1882,-1.12602 -1.5,-1.85314 z m 12.1149,21.16609 c 0,-0.24254 0.45,-0.7191 1,-1.05902 0.55,-0.33991 1,-0.14147 1,0.44099 0,0.58246 -0.45,1.05901 -1,1.05901 -0.55,0 -1,-0.19844 -1,-0.44098 z m -42,-12.95203 c 0,-0.21615 0.675,-0.65203 1.5,-0.96861 0.825,-0.31659 1.5,-0.13973 1.5,0.39301 0,0.53274 -0.675,0.96861 -1.5,0.96861 -0.825,0 -1.5,-0.17685 -1.5,-0.39301 z"
         style="fill:#904e54" />
      <path
         inkscape:connector-curvature="0"
         id="path3081"
         d="m -272.08548,272.76437 c -5.225,-3.2582 -13.219,-8.28648 -17.76446,-11.17396 l -8.26445,-5.24996 0.64642,-8.59743 0.64641,-8.59744 -6.0062,-3.64858 c -3.30342,-2.00671 -6.56305,-4.31952 -7.24363,-5.13958 -1.78321,-2.14863 -0.60851,-5.3885 3.79035,-10.45388 l 3.85308,-4.43691 7.79788,4.68691 c 4.28883,2.5778 8.43382,4.68691 9.21108,4.68691 0.77726,0 3.17734,-0.9 5.33352,-2 2.15618,-1.1 4.42361,-2 5.03874,-2 0.61512,0 7.20525,3.6 14.64472,8 7.43948,4.4 13.81662,8.00224 14.17143,8.00497 0.35481,0.003 1.98187,1.07452 3.61569,2.38175 2.56878,2.0553 2.78892,2.59567 1.62756,3.99503 -0.74064,0.89242 -2.82233,1.61825 -4.64113,1.61825 -4.01732,0 -4.56256,1.70208 -4.32448,13.5 0.1801,8.92474 -0.36064,11.31382 -3.79117,16.75 -3.4281,5.43235 -6.53056,5.03889 -18.34136,-2.32608 z m 6.3086,-10.17392 c 6.93659,-11.52083 10.70718,-19.12491 10.22956,-20.62977 -0.30714,-0.96771 -2.24137,-2.6164 -4.2983,-3.66376 -2.05692,-1.04736 -4.01211,-2.04428 -4.34486,-2.21538 -0.58037,-0.29842 -12.12378,18.58556 -13.41016,21.93781 -0.45057,1.17417 0.5748,2.34319 3.69579,4.2136 5.29841,3.17532 6.40216,3.22386 8.12797,0.3575 z m -17.6995,-11.02577 c 0.42668,-0.42667 0.91785,-1.77667 1.09149,-3 0.17365,-1.22333 1.21205,-2.97136 2.30757,-3.88452 1.09551,-0.91316 1.99184,-2.78813 1.99184,-4.1666 0,-1.52694 0.98553,-3.22421 2.5221,-4.34352 2.30204,-1.67692 2.4111,-2.07526 1.25,-4.56551 -0.69966,-1.50056 -1.7221,-2.89302 -2.2721,-3.09436 -1.877,-0.68713 -7.71004,2.41747 -8.22227,4.37625 -0.28105,1.07472 -0.89695,1.95403 -1.36868,1.95403 -2.23386,0 -5.92752,12.90353 -4.64807,16.23772 0.5272,1.37385 6.09232,1.74232 7.34812,0.48651 z m 20.8909,-20.72423 c -0.33992,-0.55 -1.15398,-0.99311 -1.80902,-0.98469 -0.71561,0.009 -0.59227,0.40223 0.30902,0.98469 1.92112,1.24153 2.2673,1.24153 1.5,0 z m -140.77103,-59.09187 c -0.97407,-0.56707 -1.47393,-1.51177 -1.11081,-2.09932 0.38597,-0.6245 0.0831,-0.85856 -0.72896,-0.56344 -0.76406,0.27766 -2.86831,-0.38592 -4.6761,-1.47463 -2.35959,-1.42102 -4.22473,-1.80354 -6.61105,-1.35586 -3.89565,0.73083 -13.8715,-1.16988 -13.057,-2.48776 0.30735,-0.49732 -0.13955,-0.63622 -0.99311,-0.30867 -0.97323,0.37346 -1.55194,0.0418 -1.55194,-0.88949 0,-0.81675 -1.0125,-2.2402 -2.25,-3.1632 -1.97841,-1.47563 -2.00859,-1.5971 -0.25,-1.00631 5.24033,1.76045 10.42985,2.54757 14.88718,2.25802 4.04472,-0.26274 5.079,0.0273 6,1.68253 1.51087,2.71539 2.92757,3.60877 3.71143,2.34045 0.45043,-0.72881 0.86242,-0.71252 1.33541,0.0528 0.37621,0.60873 0.095,1.12045 -0.625,1.13718 -1.75711,0.0408 2.28245,2.38551 4.19098,2.43259 0.825,0.0204 1.37218,0.712 1.21595,1.537 -0.15622,0.825 1.08128,-0.0235 2.75,-1.88551 1.66873,-1.86204 3.03405,-2.90109 3.03405,-2.30902 0,0.59207 -0.49238,1.38079 -1.09417,1.75272 -0.60179,0.37193 -0.88919,1.74849 -0.63867,3.05902 0.48899,2.558 -0.64871,2.9731 -3.53819,1.29091 z m -3.16468,-9.20125 c 0.37553,-0.98623 0.93469,-1.54123 1.24258,-1.23334 0.30789,0.30789 6.4e-4,1.1148 -0.68278,1.79313 -0.98762,0.98027 -1.10248,0.8654 -0.5598,-0.55979 z m 6.16904,-2.83096 c 0.67834,-0.68342 1.48524,-0.99068 1.79313,-0.68279 0.30789,0.30789 -0.24711,0.86705 -1.23333,1.24258 -1.4252,0.54269 -1.54006,0.42782 -0.5598,-0.55979 z m -12.73333,-2.63537 c 0,-0.4177 0.9,-1.32151 2,-2.00847 2.32562,-1.45237 2.6359,-0.72512 0.57143,1.33935 -1.57635,1.57635 -2.57143,1.83529 -2.57143,0.66912 z m -30.11514,-2.03036 c -1.31167,-0.9844 -3.50986,-2.35641 -4.88486,-3.04891 -5.64216,-2.84158 -7.81294,-4.23287 -9.12188,-5.84639 -0.79563,-0.98078 -0.87576,-1.39745 -0.18958,-0.98581 0.65411,0.39239 1.581,0.0117 2.06134,-0.84662 0.77367,-1.38247 1.19113,-1.39445 3.67553,-0.10553 2.56025,1.32827 2.62205,1.48301 0.71431,1.78857 -1.57548,0.25235 -1.85881,0.70173 -1.15356,1.82963 0.80136,1.28161 1.14183,1.2121 2.38404,-0.48672 1.38053,-1.88799 1.54017,-1.8995 3.37063,-0.24295 1.05681,0.9564 2.22245,1.43793 2.59032,1.07006 0.36787,-0.36787 0.66885,-0.14385 0.66885,0.49782 0,0.64166 -0.9,1.16666 -2,1.16666 -1.1,0 -2,0.47656 -2,1.05902 0,0.58246 0.41156,0.80466 0.91459,0.49377 0.50302,-0.31089 1.09208,-0.0328 1.30902,0.61803 0.56708,1.70124 2.77639,0.0458 2.77639,-2.08036 0,-1.63611 -8.78327,-8.09046 -11.00974,-8.09046 -0.48227,0 -1.57737,-1.00012 -2.43356,-2.2225 -0.85618,-1.22238 -1.56359,-1.78488 -1.57201,-1.25 -0.018,1.14627 -1.94692,-1.64405 -1.96938,-2.84893 -0.008,-0.45178 0.69597,-0.11014 1.56531,0.7592 1.6859,1.6859 3.90564,1.15804 2.78118,-0.66137 -0.41004,-0.66347 -0.20313,-0.79637 0.53225,-0.34188 0.92755,0.57326 0.90568,1.12392 -0.0955,2.40451 -1.16725,1.49302 -1.11816,1.51934 0.48553,0.26024 1.49195,-1.17137 2.18788,-1.18464 4.25,-0.081 3.08426,1.65064 3.29155,3.47485 0.21591,1.90012 -2.13677,-1.09402 -2.16445,-1.06237 -0.55019,0.62892 1.4359,1.5044 1.94897,1.57413 3.30453,0.44911 1.36771,-1.1351 1.92896,-0.99621 3.80019,0.94041 l 2.19547,2.27221 -2.5,-0.70729 c -2.18833,-0.61911 -2.07622,-0.38694 0.89925,1.86227 1.86958,1.41326 3.78208,2.33295 4.25,2.04376 1.42795,-0.88252 0.94685,-3.40776 -0.64925,-3.40776 -0.825,0 -1.5,-0.56327 -1.5,-1.25171 0,-0.68845 -2.1375,-2.36187 -4.75,-3.71872 -5.95437,-3.0925 -10.25,-6.14204 -10.25,-7.27664 0,-0.47903 0.41891,-0.61206 0.9309,-0.29563 0.512,0.31643 1.21355,0.11799 1.55902,-0.44098 0.34546,-0.55898 0.0766,-1.01632 -0.59757,-1.01632 -0.67413,0 -0.96929,-0.25639 -0.65592,-0.56976 0.63104,-0.63104 8.76357,3.26382 8.76357,4.19708 0,0.32266 -0.73865,0.30321 -1.64144,-0.0432 -1.36774,-0.52486 -1.43222,-0.37779 -0.3867,0.882 0.69012,0.83153 1.61533,1.28903 2.05604,1.01666 0.4407,-0.27237 1.06056,0.0701 1.37746,0.76101 0.3169,0.69093 0.30359,0.17624 -0.0296,-1.14374 l -0.60576,-2.39997 3.11499,2.21806 c 2.83001,2.01515 4.5035,4.05806 2.11499,2.58188 -0.55,-0.33992 -0.99443,-0.25397 -0.98762,0.19099 0.007,0.44496 1.53568,1.79541 3.3975,3.00102 3.23618,2.09556 3.45598,2.1137 4.99571,0.41231 1.48383,-1.6396 1.47222,-1.89531 -0.14749,-3.24864 -0.96696,-0.80792 -2.8831,-2.0088 -4.2581,-2.6686 -1.375,-0.65981 -4.3,-2.33135 -6.5,-3.71454 -2.2,-1.38319 -4.52771,-2.76515 -5.17268,-3.07103 -0.64498,-0.30588 -1.45914,-1.30885 -1.80925,-2.22882 -0.48797,-1.28224 -0.36087,-1.39915 0.54454,-0.50083 0.64961,0.64452 1.87509,0.90555 2.72329,0.58006 0.96795,-0.37144 1.28885,-0.18189 0.86183,0.50905 -0.37419,0.60546 -0.25067,1.3664 0.2745,1.69097 0.52517,0.32457 1.37325,-0.15752 1.88463,-1.0713 0.51138,-0.91379 1.44638,-1.34216 2.07777,-0.95194 0.6314,0.39023 0.89228,1.12325 0.57974,1.62895 -0.31794,0.51444 0.22549,0.62177 1.23369,0.24367 1.52797,-0.57303 1.61001,-0.43942 0.53961,0.87877 -1.03258,1.27161 -0.96946,1.79762 0.34678,2.89 1.3632,1.13136 1.75652,1.07201 2.57379,-0.38836 0.53057,-0.94808 1.41418,-1.44598 1.96358,-1.10644 0.54939,0.33954 2.29527,0.0804 3.87973,-0.57593 4.29087,-1.77734 9.08394,0.21243 13.9904,5.80791 3.2876,3.74927 4.00901,5.24382 3.58825,7.4338 -0.52549,2.73515 1.02847,3.47214 2.65449,1.25893 0.4591,-0.62489 0.78732,-0.53112 0.875,0.25 0.25041,2.23087 0.40736,2.72856 1.31013,4.15451 0.61127,0.96552 0.52834,1.18149 -0.26531,0.69099 -0.63498,-0.39244 -1.15451,-0.23697 -1.15451,0.34549 0,0.58246 -0.9,1.05901 -2,1.05901 -1.11111,0 -2,0.66667 -2,1.5 0,1.94078 -2.39685,1.93169 -4.01263,-0.0152 -1.84533,-2.22348 -10.13559,-6.07568 -12.71123,-5.90646 -1.22312,0.0804 -1.97953,-0.24923 -1.6809,-0.73242 0.29863,-0.48318 0.88686,-0.66597 1.30719,-0.4062 0.42033,0.25978 0.76424,-0.18288 0.76424,-0.98368 0,-2.2067 -1.17265,-1.74761 -2.66667,1.04398 -0.73588,1.375 -1.93692,2.5 -2.66898,2.5 -0.73206,0 -1.33102,0.675 -1.33102,1.5 0,0.825 -0.51289,1.5 -1.13976,1.5 -1.13351,0 -3.76772,2.87857 -3.82844,4.18358 -0.0175,0.37597 1.2057,0.87104 2.7182,1.10017 l 2.75,0.41659 -2.61514,0.14983 c -1.43833,0.0824 -3.68833,-0.65558 -5,-1.63998 z m 14.00024,-19.81726 c -2.05662,-1.13998 -1.93553,-1.83469 0.26899,-1.54332 0.35975,0.0476 1.20235,-0.57416 1.87244,-1.38158 1.91479,-2.30717 -1.59455,-1.90001 -3.95323,0.45867 -1.90226,1.90227 -1.89909,1.94524 0.25,3.38858 1.19719,0.80404 2.575,1.22289 3.0618,0.93079 0.4868,-0.2921 -0.1882,-1.12602 -1.5,-1.85314 z m 12.1149,21.16609 c 0,-0.24254 0.45,-0.7191 1,-1.05902 0.55,-0.33991 1,-0.14147 1,0.44099 0,0.58246 -0.45,1.05901 -1,1.05901 -0.55,0 -1,-0.19844 -1,-0.44098 z m -42,-12.95203 c 0,-0.21615 0.675,-0.65203 1.5,-0.96861 0.825,-0.31659 1.5,-0.13973 1.5,0.39301 0,0.53274 -0.675,0.96861 -1.5,0.96861 -0.825,0 -1.5,-0.17685 -1.5,-0.39301 z"
         style="fill:#4a4b8a" />
      <path
         inkscape:connector-curvature="0"
         id="path3079"
         d="m -272.08548,272.76437 c -5.225,-3.2582 -13.219,-8.28648 -17.76446,-11.17396 l -8.26445,-5.24996 0.64642,-8.59743 0.64641,-8.59744 -6.0062,-3.64858 c -3.30342,-2.00671 -6.56305,-4.31952 -7.24363,-5.13958 -1.78321,-2.14863 -0.60851,-5.3885 3.79035,-10.45388 l 3.85308,-4.43691 7.79788,4.68691 c 4.28883,2.5778 8.43382,4.68691 9.21108,4.68691 0.77726,0 3.17734,-0.9 5.33352,-2 2.15618,-1.1 4.42361,-2 5.03874,-2 0.61512,0 7.20525,3.6 14.64472,8 7.43948,4.4 13.81662,8.00224 14.17143,8.00497 0.35481,0.003 1.98187,1.07452 3.61569,2.38175 2.56878,2.0553 2.78892,2.59567 1.62756,3.99503 -0.74064,0.89242 -2.82233,1.61825 -4.64113,1.61825 -4.01732,0 -4.56256,1.70208 -4.32448,13.5 0.1801,8.92474 -0.36064,11.31382 -3.79117,16.75 -3.4281,5.43235 -6.53056,5.03889 -18.34136,-2.32608 z m 6.3086,-10.17392 c 6.76565,-11.23692 10.70348,-19.13572 10.24996,-20.56015 -0.51188,-1.60769 -9.20341,-6.92604 -9.95002,-6.08841 -0.19539,0.21921 -1.96319,3.34778 -3.92844,6.95237 -1.96525,3.6046 -4.71682,8.5546 -6.1146,11 -1.39777,2.44541 -2.54683,4.75818 -2.55345,5.13951 -0.0159,0.91662 8.1426,5.7851 9.7149,5.79722 0.67482,0.005 1.83656,-1.00304 2.58165,-2.24054 z m -16.501,-13.42273 c 0.19754,-2.03755 1.18146,-3.74531 2.75,-4.77305 1.49155,-0.97731 2.4424,-2.55565 2.4424,-4.05422 0,-1.52226 0.96127,-3.08374 2.53196,-4.1129 2.30005,-1.50705 2.39164,-1.81404 1,-3.35179 -0.84258,-0.93103 -1.53196,-2.17171 -1.53196,-2.75706 0,-3.15526 -8.83079,-0.64132 -9.72227,2.76772 -0.28105,1.07472 -0.89695,1.95403 -1.36868,1.95403 -2.2341,0 -5.92775,12.90462 -4.64767,16.23772 0.27496,0.71595 2.16275,1.26228 4.3617,1.26228 3.62329,0 3.89704,-0.20756 4.18452,-3.17273 z m 19.6924,-18.32727 c -0.33992,-0.55 -1.15398,-0.99311 -1.80902,-0.98469 -0.71561,0.009 -0.59227,0.40223 0.30902,0.98469 1.92112,1.24153 2.2673,1.24153 1.5,0 z m -140.77103,-59.09187 c -0.97407,-0.56707 -1.47393,-1.51177 -1.11081,-2.09932 0.38597,-0.6245 0.0831,-0.85856 -0.72896,-0.56344 -0.76406,0.27766 -2.86831,-0.38592 -4.6761,-1.47463 -2.35959,-1.42102 -4.22473,-1.80354 -6.61105,-1.35586 -3.89565,0.73083 -13.8715,-1.16988 -13.057,-2.48776 0.30735,-0.49732 -0.13955,-0.63622 -0.99311,-0.30867 -0.97323,0.37346 -1.55194,0.0418 -1.55194,-0.88949 0,-0.81675 -1.0125,-2.2402 -2.25,-3.1632 -1.97841,-1.47563 -2.00859,-1.5971 -0.25,-1.00631 5.24033,1.76045 10.42985,2.54757 14.88718,2.25802 4.04472,-0.26274 5.079,0.0273 6,1.68253 1.51087,2.71539 2.92757,3.60877 3.71143,2.34045 0.45043,-0.72881 0.86242,-0.71252 1.33541,0.0528 0.37621,0.60873 0.095,1.12045 -0.625,1.13718 -1.75711,0.0408 2.28245,2.38551 4.19098,2.43259 0.825,0.0204 1.37218,0.712 1.21595,1.537 -0.15622,0.825 1.08128,-0.0235 2.75,-1.88551 1.66873,-1.86204 3.03405,-2.90109 3.03405,-2.30902 0,0.59207 -0.49238,1.38079 -1.09417,1.75272 -0.60179,0.37193 -0.88919,1.74849 -0.63867,3.05902 0.48899,2.558 -0.64871,2.9731 -3.53819,1.29091 z m -3.16468,-9.20125 c 0.37553,-0.98623 0.93469,-1.54123 1.24258,-1.23334 0.30789,0.30789 6.4e-4,1.1148 -0.68278,1.79313 -0.98762,0.98027 -1.10248,0.8654 -0.5598,-0.55979 z m 6.16904,-2.83096 c 0.67834,-0.68342 1.48524,-0.99068 1.79313,-0.68279 0.30789,0.30789 -0.24711,0.86705 -1.23333,1.24258 -1.4252,0.54269 -1.54006,0.42782 -0.5598,-0.55979 z m -12.73333,-2.63537 c 0,-0.4177 0.9,-1.32151 2,-2.00847 2.32562,-1.45237 2.6359,-0.72512 0.57143,1.33935 -1.57635,1.57635 -2.57143,1.83529 -2.57143,0.66912 z m -30.11514,-2.03036 c -1.31167,-0.9844 -3.50986,-2.35641 -4.88486,-3.04891 -5.64216,-2.84158 -7.81294,-4.23287 -9.12188,-5.84639 -0.79563,-0.98078 -0.87576,-1.39745 -0.18958,-0.98581 0.65411,0.39239 1.581,0.0117 2.06134,-0.84662 0.77367,-1.38247 1.19113,-1.39445 3.67553,-0.10553 2.56025,1.32827 2.62205,1.48301 0.71431,1.78857 -1.57548,0.25235 -1.85881,0.70173 -1.15356,1.82963 0.80136,1.28161 1.14183,1.2121 2.38404,-0.48672 1.38053,-1.88799 1.54017,-1.8995 3.37063,-0.24295 1.05681,0.9564 2.22245,1.43793 2.59032,1.07006 0.36787,-0.36787 0.66885,-0.14385 0.66885,0.49782 0,0.64166 -0.9,1.16666 -2,1.16666 -1.1,0 -2,0.47656 -2,1.05902 0,0.58246 0.41156,0.80466 0.91459,0.49377 0.50302,-0.31089 1.09208,-0.0328 1.30902,0.61803 0.56708,1.70124 2.77639,0.0458 2.77639,-2.08036 0,-1.63611 -8.78327,-8.09046 -11.00974,-8.09046 -0.48227,0 -1.57737,-1.00012 -2.43356,-2.2225 -0.85618,-1.22238 -1.56359,-1.78488 -1.57201,-1.25 -0.018,1.14627 -1.94692,-1.64405 -1.96938,-2.84893 -0.008,-0.45178 0.69597,-0.11014 1.56531,0.7592 1.6859,1.6859 3.90564,1.15804 2.78118,-0.66137 -0.41004,-0.66347 -0.20313,-0.79637 0.53225,-0.34188 0.92755,0.57326 0.90568,1.12392 -0.0955,2.40451 -1.16725,1.49302 -1.11816,1.51934 0.48553,0.26024 1.49195,-1.17137 2.18788,-1.18464 4.25,-0.081 3.08426,1.65064 3.29155,3.47485 0.21591,1.90012 -2.13677,-1.09402 -2.16445,-1.06237 -0.55019,0.62892 1.4359,1.5044 1.94897,1.57413 3.30453,0.44911 1.36771,-1.1351 1.92896,-0.99621 3.80019,0.94041 l 2.19547,2.27221 -2.5,-0.70729 c -2.18833,-0.61911 -2.07622,-0.38694 0.89925,1.86227 1.86958,1.41326 3.78208,2.33295 4.25,2.04376 1.42795,-0.88252 0.94685,-3.40776 -0.64925,-3.40776 -0.825,0 -1.5,-0.56327 -1.5,-1.25171 0,-0.68845 -2.1375,-2.36187 -4.75,-3.71872 -5.95437,-3.0925 -10.25,-6.14204 -10.25,-7.27664 0,-0.47903 0.41891,-0.61206 0.9309,-0.29563 0.512,0.31643 1.21355,0.11799 1.55902,-0.44098 0.34546,-0.55898 0.0766,-1.01632 -0.59757,-1.01632 -0.67413,0 -0.96929,-0.25639 -0.65592,-0.56976 0.63104,-0.63104 8.76357,3.26382 8.76357,4.19708 0,0.32266 -0.73865,0.30321 -1.64144,-0.0432 -1.36774,-0.52486 -1.43222,-0.37779 -0.3867,0.882 0.69012,0.83153 1.61533,1.28903 2.05604,1.01666 0.4407,-0.27237 1.06056,0.0701 1.37746,0.76101 0.3169,0.69093 0.30359,0.17624 -0.0296,-1.14374 l -0.60576,-2.39997 3.11499,2.21806 c 2.83001,2.01515 4.5035,4.05806 2.11499,2.58188 -0.55,-0.33992 -0.99443,-0.25397 -0.98762,0.19099 0.007,0.44496 1.53568,1.79541 3.3975,3.00102 3.23618,2.09556 3.45598,2.1137 4.99571,0.41231 1.48383,-1.6396 1.47222,-1.89531 -0.14749,-3.24864 -0.96696,-0.80792 -2.8831,-2.0088 -4.2581,-2.6686 -1.375,-0.65981 -4.3,-2.33135 -6.5,-3.71454 -2.2,-1.38319 -4.52771,-2.76515 -5.17268,-3.07103 -0.64498,-0.30588 -1.45914,-1.30885 -1.80925,-2.22882 -0.48797,-1.28224 -0.36087,-1.39915 0.54454,-0.50083 0.64961,0.64452 1.87509,0.90555 2.72329,0.58006 0.96795,-0.37144 1.28885,-0.18189 0.86183,0.50905 -0.37419,0.60546 -0.25067,1.3664 0.2745,1.69097 0.52517,0.32457 1.37325,-0.15752 1.88463,-1.0713 0.51138,-0.91379 1.44638,-1.34216 2.07777,-0.95194 0.6314,0.39023 0.89228,1.12325 0.57974,1.62895 -0.31794,0.51444 0.22549,0.62177 1.23369,0.24367 1.52797,-0.57303 1.61001,-0.43942 0.53961,0.87877 -1.03258,1.27161 -0.96946,1.79762 0.34678,2.89 1.3632,1.13136 1.75652,1.07201 2.57379,-0.38836 0.53057,-0.94808 1.41418,-1.44598 1.96358,-1.10644 0.54939,0.33954 2.29527,0.0804 3.87973,-0.57593 4.29087,-1.77734 9.08394,0.21243 13.9904,5.80791 3.2876,3.74927 4.00901,5.24382 3.58825,7.4338 -0.52549,2.73515 1.02847,3.47214 2.65449,1.25893 0.4591,-0.62489 0.78732,-0.53112 0.875,0.25 0.25041,2.23087 0.40736,2.72856 1.31013,4.15451 0.61127,0.96552 0.52834,1.18149 -0.26531,0.69099 -0.63498,-0.39244 -1.15451,-0.23697 -1.15451,0.34549 0,0.58246 -0.9,1.05901 -2,1.05901 -1.11111,0 -2,0.66667 -2,1.5 0,1.94078 -2.39685,1.93169 -4.01263,-0.0152 -1.84533,-2.22348 -10.13559,-6.07568 -12.71123,-5.90646 -1.22312,0.0804 -1.97953,-0.24923 -1.6809,-0.73242 0.29863,-0.48318 0.88686,-0.66597 1.30719,-0.4062 0.42033,0.25978 0.76424,-0.18288 0.76424,-0.98368 0,-2.2067 -1.17265,-1.74761 -2.66667,1.04398 -0.73588,1.375 -1.93692,2.5 -2.66898,2.5 -0.73206,0 -1.33102,0.675 -1.33102,1.5 0,0.825 -0.51289,1.5 -1.13976,1.5 -1.13351,0 -3.76772,2.87857 -3.82844,4.18358 -0.0175,0.37597 1.2057,0.87104 2.7182,1.10017 l 2.75,0.41659 -2.61514,0.14983 c -1.43833,0.0824 -3.68833,-0.65558 -5,-1.63998 z m 14.00024,-19.81726 c -2.05662,-1.13998 -1.93553,-1.83469 0.26899,-1.54332 0.35975,0.0476 1.20235,-0.57416 1.87244,-1.38158 1.91479,-2.30717 -1.59455,-1.90001 -3.95323,0.45867 -1.90226,1.90227 -1.89909,1.94524 0.25,3.38858 1.19719,0.80404 2.575,1.22289 3.0618,0.93079 0.4868,-0.2921 -0.1882,-1.12602 -1.5,-1.85314 z m 12.1149,21.16609 c 0,-0.24254 0.45,-0.7191 1,-1.05902 0.55,-0.33991 1,-0.14147 1,0.44099 0,0.58246 -0.45,1.05901 -1,1.05901 -0.55,0 -1,-0.19844 -1,-0.44098 z m -42,-12.95203 c 0,-0.21615 0.675,-0.65203 1.5,-0.96861 0.825,-0.31659 1.5,-0.13973 1.5,0.39301 0,0.53274 -0.675,0.96861 -1.5,0.96861 -0.825,0 -1.5,-0.17685 -1.5,-0.39301 z"
         style="fill:#504e53" />
      <path
         inkscape:connector-curvature="0"
         id="path3077"
         d="m -266.58548,275.71312 c -2.75,-1.65816 -8.825,-5.44558 -13.5,-8.4165 -4.675,-2.97093 -10.64784,-6.61609 -13.27299,-8.10037 l -4.77299,-2.69868 0.65594,-8.68905 0.65594,-8.68905 -4.56313,-3.13951 c -2.50972,-1.72673 -4.9748,-3.13951 -5.47796,-3.13951 -0.50316,0 -1.71291,-0.88187 -2.68834,-1.95971 -2.36385,-2.61201 -1.51219,-5.47274 3.26797,-10.9772 l 3.85308,-4.43691 7.79788,4.68691 c 4.28883,2.5778 8.43382,4.68691 9.21108,4.68691 0.77726,0 3.17734,-0.9 5.33352,-2 2.15618,-1.1 4.41688,-2 5.02377,-2 1.24819,0 31.71066,17.62891 33.89033,19.61264 2.11286,1.92293 -0.36985,4.38736 -4.41991,4.38736 -4.06421,0 -4.46213,1.23362 -4.48054,13.89047 -0.0112,7.69876 -0.41612,10.19633 -2.24771,13.86374 -2.03608,4.07685 -4.98623,6.33647 -8.08104,6.18954 -0.65169,-0.0309 -3.4349,-1.41293 -6.1849,-3.07108 z m 5.74595,-21.72022 c 3.22521,-5.6886 5.72296,-11.07538 5.55055,-11.97062 -0.30123,-1.56414 -7.23271,-6.14885 -9.2965,-6.149 -1.00531,-8e-5 -13.5,21.23158 -13.5,22.93993 0,1.30702 8.2205,6.08629 9.94097,5.77952 0.79253,-0.14131 4.07978,-4.91124 7.30498,-10.59983 z m -21.14558,-4.9811 c 0.37356,-1.83076 1.6288,-3.99378 2.78942,-4.80671 1.16061,-0.81293 2.11021,-2.54 2.11021,-3.83794 0,-1.39153 1.07116,-3.14017 2.61042,-4.26145 2.2554,-1.64294 2.41779,-2.09628 1.19405,-3.3334 -0.77901,-0.78752 -1.71458,-2.21935 -2.07904,-3.18185 -1.04774,-2.76695 -4.35657,-2.05219 -8.17461,1.76585 -4.4563,4.4563 -6.17544,7.79812 -7.06573,13.73504 -0.97451,6.49848 -0.36606,7.58186 4.15631,7.4006 3.43653,-0.13773 3.84145,-0.45377 4.45897,-3.48014 z m 19.39963,-18.17135 c -0.33992,-0.55 -1.15398,-0.99311 -1.80902,-0.98469 -0.71561,0.009 -0.59227,0.40223 0.30902,0.98469 1.92112,1.24153 2.2673,1.24153 1.5,0 z m -153.78949,-66.999 c -0.28751,-1.09945 -0.115,-2.25101 0.38337,-2.55902 0.49837,-0.308 0.90612,-0.12026 0.90612,0.41722 0,0.53748 0.27314,1.68903 0.60699,2.55902 0.33384,0.86998 0.16133,1.58178 -0.38337,1.58178 -0.5447,0 -1.2256,-0.89955 -1.51311,-1.999 z m -26.71051,-10.53238 c 0,-1.593 2.65668,-3.14527 3.66218,-2.13977 0.57917,0.57917 -2.02397,3.67115 -3.09075,3.67115 -0.31429,0 -0.57143,-0.68912 -0.57143,-1.53138 z m -6.43524,-2.36383 c -0.91631,-1.48262 1.95807,-4.91529 3.13247,-3.74089 0.40967,0.40967 0.26286,1.05788 -0.32625,1.44048 -0.5891,0.38259 -1.28118,1.34846 -1.53795,2.14637 -0.3721,1.15628 -0.62953,1.18755 -1.26827,0.15404 z m 4.68524,-4.70684 c -2.8875,-1.90111 -5.25,-3.94848 -5.25,-4.5497 0,-0.69991 0.567,-0.62256 1.57621,0.21501 1.3063,1.08413 1.73179,1.06228 2.48469,-0.12756 0.75579,-1.1944 0.91105,-1.15528 0.92379,0.23274 0.021,2.28911 6.80859,6.43828 8.22129,5.02558 2.31944,-2.31943 0.36209,-4.061 -11.64623,-10.3623 -1.74857,-0.91755 -3.82734,-2.49255 -4.61948,-3.5 -1.33774,-1.70132 -1.30799,-1.72762 0.41794,-0.36946 1.65046,1.29877 2.00309,1.26413 3.154,-0.30984 0.81989,-1.12127 1.53635,-1.38286 1.95081,-0.71226 0.36026,0.58292 0.066,1.07603 -0.654,1.09581 -0.71996,0.0198 0.041,1.14402 1.69098,2.49832 2.77087,2.27429 3.09575,2.33293 4.25375,0.76778 0.97295,-1.31505 1.52166,-1.42666 2.45,-0.49832 0.92833,0.92834 0.90007,1.19625 -0.12619,1.19625 -1.91196,0 0.48737,2.72366 3.99902,4.5396 2.35682,1.21877 2.88519,1.21139 3.93614,-0.0549 0.66764,-0.80446 1.60369,-1.22174 2.08011,-0.9273 1.053,0.6508 -1.16274,4.44263 -2.59603,4.44263 -0.56216,0 -1.86694,1.125 -2.89952,2.5 -1.03259,1.375 -2.37689,2.46727 -2.98735,2.42727 -0.61046,-0.04 -3.47243,-1.6282 -6.35993,-3.52932 z m 24,1.03591 c -4.44229,-2.66246 -5.05911,-4.1654 -3.03785,-7.40195 1.62869,-2.60796 0.25291,-3.76276 -2.02588,-1.70048 -1.60547,1.45293 -2.05909,1.47832 -3.75613,0.21027 -1.85848,-1.38868 -1.8466,-1.42118 0.31986,-0.87533 1.60153,0.40351 2.25,0.12499 2.25,-0.9664 0,-0.84332 -0.5625,-1.76027 -1.25,-2.03769 -0.6875,-0.27741 0.002,-0.53991 1.53212,-0.58333 4.56389,-0.12951 9.36991,2.39848 10.10152,5.31345 0.35995,1.43418 1.32089,2.6076 2.13541,2.6076 0.81452,0 1.48095,0.41425 1.48095,0.92055 0,1.19931 -5.57651,2.41824 -7.2256,1.57939 -0.70092,-0.35654 -0.3744,0.0881 0.7256,0.988 1.1,0.89994 3.2302,1.8881 4.73377,2.19591 1.50357,0.30781 2.48951,0.95487 2.19098,1.43791 -0.94459,1.52839 -3.78798,0.94129 -8.17475,-1.6879 z m -35.25,-0.81141 c 0,-0.75766 0.61529,-1.88821 1.36732,-2.51233 1.04091,-0.86388 1.67148,-0.76829 2.64144,0.40044 1.08175,1.30343 1.00007,1.43006 -0.54093,0.83873 -1.41577,-0.54329 -1.67377,-0.32834 -1.17282,0.9771 0.42081,1.09663 0.13591,1.67361 -0.8264,1.67361 -0.80773,0 -1.46861,-0.6199 -1.46861,-1.37755 z m 2.22637,-5.46138 c -0.97174,-0.61671 -0.78835,-1.24749 0.77362,-2.66106 1.62379,-1.46951 2.30094,-1.59716 3.27364,-0.61713 0.97055,0.97786 0.88242,1.10473 -0.42248,0.6082 -0.90687,-0.34509 -1.94592,-0.14675 -2.30902,0.44075 -0.36309,0.5875 -0.18361,1.06817 0.39885,1.06817 0.58246,0 1.05902,0.45 1.05902,1 0,1.20039 -1.04077,1.26083 -2.77363,0.16107 z m 18.02363,-6.15011 c -1.7875,-1.08986 -3.25,-2.23973 -3.25,-2.55528 0,-0.31554 0.51827,-0.2534 1.1517,0.13808 0.63344,0.39149 1.71524,-0.0589 2.404,-1.00082 0.72652,-0.99357 1.50938,-1.29665 1.86461,-0.72188 0.33677,0.54491 0.12566,1.29152 -0.46914,1.65912 -0.7204,0.44523 -0.50717,1.30295 0.63868,2.5691 2.17546,2.40386 1.71938,2.38665 -2.33985,-0.0883 z m -7.75,-4.5796 c -1.65,-0.85597 -3.45,-2.03328 -4,-2.61624 -0.65853,-0.69799 -0.26754,-0.68383 1.14499,0.0415 1.67226,0.85865 2.41351,0.77786 3.36331,-0.36658 0.67007,-0.80739 1.66537,-1.19169 2.21177,-0.85399 0.61028,0.37717 0.49496,0.92208 -0.29901,1.41277 -1.05493,0.65199 -1.05205,1.08845 0.0157,2.375 1.625,1.95801 1.32476,1.95894 -2.43674,0.008 z"
         style="fill:#6a1027" />
      <path
         inkscape:connector-curvature="0"
         id="path3075"
         d="m -257.68226,274.84045 c 0.27446,-1.925 0.63352,-4.34717 0.7979,-5.3826 0.17225,-1.085 -0.35176,-1.98745 -1.23683,-2.13007 -0.90558,-0.14592 -1.53572,0.49385 -1.53572,1.55919 0,0.99365 0.30578,1.61766 0.67952,1.38668 0.37373,-0.23098 0.6148,0.70174 0.53571,2.07271 -0.13822,2.3959 -1.11553,3.32752 -1.81047,1.72581 -0.18333,-0.42255 -1.45833,-1.66005 -2.83333,-2.75 -2.53025,-2.0057 -3.6394,-5.48172 -1.74913,-5.48172 1.44307,0 3.67931,-3.15826 3.71733,-5.25 0.0175,-0.9625 -0.40408,-1.75 -0.93682,-1.75 -0.53273,0 -0.71505,-0.66077 -0.40514,-1.46838 0.30991,-0.80761 1.08329,-1.37011 1.71862,-1.25 0.63533,0.12011 1.01254,-0.61428 0.83826,-1.63197 -0.17429,-1.0177 0.0899,-1.59896 0.58703,-1.2917 1.4676,0.90702 5.20393,-2.26192 4.58098,-3.88532 -0.31081,-0.80994 -0.067,-1.47263 0.54188,-1.47263 0.60885,0 1.10699,0.45 1.10699,1 0,0.55 0.37323,1 0.8294,1 0.45617,0 0.79367,-0.96696 0.75,-2.14879 -0.0437,-1.18184 0.46026,-2.33672 1.11984,-2.56641 0.86417,-0.30094 0.97537,0.36928 0.39797,2.39879 -0.4407,1.54902 -0.59703,6.81964 -0.3474,11.71248 0.38589,7.56362 0.2322,8.811 -1.02611,8.32814 -1.581,-0.60668 -3.74445,0.99064 -3.6919,2.72579 0.0175,0.5775 0.63928,0.24927 1.38174,-0.72939 1.19662,-1.57731 1.41884,-1.5998 1.95674,-0.19806 0.35039,0.9131 0.18908,1.32315 -0.38173,0.97037 -0.54809,-0.33873 -0.98855,0.4747 -0.98855,1.82562 0,1.34011 -0.76138,3.05417 -1.69196,3.80902 -1.45661,1.18153 -1.58539,1.16379 -0.92584,-0.12756 0.42136,-0.825 0.0362,-0.6 -0.85594,0.5 -1.55655,1.91923 -1.60191,1.85865 -1.12304,-1.5 z m -1.90322,-11 c -0.33992,-0.55 -0.81648,-1 -1.05902,-1 -0.24254,0 -0.44098,0.45 -0.44098,1 0,0.55 0.47656,1 1.05902,1 0.58246,0 0.7809,-0.45 0.44098,-1 z m 0.88156,-3.55194 c 0.34149,-0.88992 0.17385,-1.29132 -0.39301,-0.94098 -0.5437,0.33602 -0.98855,1.0344 -0.98855,1.55194 0,1.43843 0.71677,1.12146 1.38156,-0.61096 z m -3.94043,14.99677 c -1.83031,-1.46637 -1.7984,-1.48719 0.55887,-0.36454 3.06103,1.45781 3.62834,1.91971 2.3578,1.91971 -0.53655,0 -1.84905,-0.69982 -2.91667,-1.55517 z m -8.44113,-8.44483 c -1.375,-1.07554 -3.08906,-1.96553 -3.80902,-1.97776 -0.71996,-0.0122 -1.02401,-0.48339 -0.67567,-1.04702 0.34834,-0.56362 0.2624,-0.92266 -0.19098,-0.79785 -1.12681,0.31019 -9.32416,-4.03917 -9.32504,-4.94769 -3.8e-4,-0.40133 -1.12241,-0.79439 -2.49338,-0.87348 -1.62872,-0.094 -2.25514,0.25263 -1.80733,1 0.37693,0.62909 -0.18854,0.48364 -1.25662,-0.32323 -2.96869,-2.24267 -3.07773,-2.40035 -1.19196,-1.72368 0.9625,0.34537 1.75,0.19206 1.75,-0.34067 0,-0.53274 0.70156,-0.96862 1.55902,-0.96862 0.85746,0 1.2809,0.45 0.94098,1 -0.33992,0.55 -0.16803,1 0.38197,1 2.16457,0 2.117,-2.06886 -0.0677,-2.94507 -2.37896,-0.95411 -2.092,-1.1423 2.1401,-1.40347 1.92955,-0.11907 2.60091,-0.8632 3.13979,-3.48011 0.37699,-1.83076 1.63504,-3.99378 2.79566,-4.80671 1.16061,-0.81293 2.11021,-2.54 2.11021,-3.83794 0,-1.39153 1.07116,-3.14017 2.61042,-4.26145 2.39992,-1.74822 2.48056,-2.03141 1,-3.51197 -0.88576,-0.88573 -1.61045,-2.08101 -1.61045,-2.65617 0,-0.57516 -1.40972,-1.77474 -3.1327,-2.66573 -2.51802,-1.30212 -3.28993,-1.36558 -3.93402,-0.32343 -0.44072,0.71311 -0.5876,1.64235 -0.3264,2.06499 0.2612,0.42263 -0.66849,1.0554 -2.06598,1.40615 -1.3975,0.35075 -2.57533,1.15144 -2.61741,1.77932 -0.18561,2.76931 -0.85786,4.98681 -1.67995,5.54148 -2.21285,1.49304 -3.53717,13.19795 -1.80952,15.99335 0.92129,1.49067 -0.40392,1.33892 -3.43402,-0.39324 -1.375,-0.78602 -1.95162,-1.44508 -1.28138,-1.46456 0.69648,-0.0203 0.9582,-0.71406 0.61083,-1.61929 -0.48935,-1.27522 -0.77253,-1.32393 -1.4533,-0.25 -0.6205,0.97886 -0.8496,0.78826 -0.86084,-0.71615 -0.008,-1.1275 0.45692,-2.52223 1.0341,-3.09941 0.57717,-0.57717 1.17696,-3.49779 1.33286,-6.49026 l 0.28345,-5.44086 -7.33286,-4.45402 c -4.03307,-2.4497 -7.33286,-4.70543 -7.33286,-5.01273 0,-1.48182 6.37768,-8.99349 7.35828,-8.66663 0.6384,0.2128 0.98478,1.95345 0.80469,4.04377 -0.18524,2.15002 0.12972,3.67014 0.76041,3.67014 0.59214,0 1.07662,-0.62252 1.07662,-1.38337 0,-0.76085 0.86633,-1.60992 1.92518,-1.88681 1.29762,-0.33934 1.76301,-0.0808 1.42768,0.79302 -0.43289,1.1281 1.13414,2.076 5.14714,3.11352 4.29876,1.11141 6.45831,1.24011 6.96809,0.41528 0.32778,-0.53036 1.33037,-0.68247 2.22798,-0.33803 1.01702,0.39027 1.38395,0.22488 0.97372,-0.43889 -0.36207,-0.58583 -3e-4,-1.31765 0.80393,-1.62626 2.17678,-0.83531 2.84765,1.06601 0.79731,2.25967 -2.17711,1.26746 -0.79333,1.44065 1.54471,0.19334 1.25464,-0.66934 3.46982,0.27279 8.68426,3.69344 8.79082,5.76675 13.57282,8.27812 14.57881,7.65638 0.43064,-0.26615 1.10862,0.043 1.5066,0.68691 0.49487,0.80071 0.27963,0.90324 -0.6809,0.32435 -1.14521,-0.69019 -1.17813,-0.56663 -0.1783,0.66929 0.93993,1.16188 0.9516,1.79035 0.05,2.69195 -0.90161,0.90161 -0.89606,1.20539 0.0238,1.30121 2.64837,0.27587 3.06559,0.40781 3.86667,1.22278 0.45833,0.46628 -0.29167,0.69128 -1.66667,0.5 -1.375,-0.19128 -3.09224,-1.1413 -3.81608,-2.11117 -1.26668,-1.69718 -8.24709,-5.73661 -9.91327,-5.73661 -0.44495,0 -2.34614,2.8125 -4.22486,6.25 -1.87871,3.4375 -5.1025,9.02127 -7.16396,12.40837 l -3.74812,6.15838 2.45858,0.61706 c 1.35221,0.33938 3.31373,1.47222 4.35892,2.51741 1.0452,1.0452 2.72125,1.77334 3.72457,1.61809 1.00331,-0.15524 1.22935,-0.0826 0.5023,0.16139 -0.98474,0.33049 -0.8572,0.7959 0.5,1.82467 1.00205,0.75956 1.37191,1.38533 0.82191,1.39059 -0.55,0.005 -2.125,-0.87042 -3.5,-1.94596 z m -10.56944,-9.07673 c -1.21419,-1.34167 -2.02009,-1.65468 -2.27687,-0.88434 -0.2186,0.65581 0.21989,1.58344 0.97443,2.06141 2.49532,1.58069 3.21201,0.93298 1.30244,-1.17707 z m -11.82639,-13.65244 c -0.3323,-0.33229 -0.56864,0.25834 -0.52522,1.3125 0.048,1.16495 0.28494,1.4019 0.60416,0.60417 0.28887,-0.72188 0.25335,-1.58438 -0.0789,-1.91667 z m 5.39583,-8.82985 c 0,-0.24254 -0.45,-0.44098 -1,-0.44098 -0.55,0 -1,0.47656 -1,1.05902 0,0.58246 0.45,0.7809 1,0.44098 0.55,-0.33992 1,-0.81648 1,-1.05902 z m -0.0306,-4.94098 c 0,-0.55 -0.43621,-0.325 -0.96937,0.5 -0.53316,0.825 -0.96937,1.95 -0.96937,2.5 0,0.55 0.43621,0.325 0.96937,-0.5 0.53316,-0.825 0.96937,-1.95 0.96937,-2.5 z m -1.60492,-3.99265 c -0.24778,-0.64571 -0.99365,-1.19542 -1.65748,-1.22157 -0.66383,-0.0262 -2.10697,-0.36861 -3.20697,-0.761 -1.43921,-0.5134 -1.61778,-0.44054 -0.63685,0.25984 1.15087,0.82171 1.15087,1.06856 0,1.5851 -0.74973,0.3365 -0.46315,0.40124 0.63685,0.14388 1.1,-0.25737 2.675,-0.0351 3.5,0.49392 1.08884,0.69821 1.14119,0.96605 0.19098,0.97717 -0.71996,0.008 -1.00121,0.51335 -0.625,1.12207 0.87023,1.40807 2.45649,-0.88463 1.79847,-2.59941 z m 6.63555,0.49265 c 0.5887,-1.1 0.84537,-2 0.57037,-2 -0.275,0 -0.98167,0.9 -1.57037,2 -0.5887,1.1 -0.84537,2 -0.57037,2 0.275,0 0.98167,-0.9 1.57037,-2 z m -22.5,-2 c -0.33992,-0.55 -0.81648,-1 -1.05902,-1 -0.24254,0 -0.44098,0.45 -0.44098,1 0,0.55 0.47656,1 1.05902,1 0.58246,0 0.7809,-0.45 0.44098,-1 z m 27.05887,40.4682 c -1.06762,-0.80751 -1.51762,-1.45389 -1,-1.4364 0.51762,0.0175 1.81464,0.6925 2.88226,1.5 1.06762,0.80751 1.51762,1.45389 1,1.4364 -0.51762,-0.0175 -1.81464,-0.6925 -2.88226,-1.5 z m 13.52142,-2.4682 c 1.45781,-3.06103 1.91971,-3.62834 1.91971,-2.3578 0,0.53655 -0.69982,1.84905 -1.55517,2.91667 -1.46637,1.83031 -1.48719,1.7984 -0.36454,-0.55887 z m 7.99866,-13.41667 c -0.0434,-1.05416 0.19292,-1.64479 0.52522,-1.3125 0.33229,0.33229 0.36781,1.19479 0.0789,1.91667 -0.31922,0.79773 -0.55618,0.56078 -0.60416,-0.60417 z m 11.67105,-5.24561 c 0.6875,-0.27741 1.8125,-0.27741 2.5,0 0.6875,0.27741 0.125,0.50439 -1.25,0.50439 -1.375,0 -1.9375,-0.22698 -1.25,-0.50439 z m -4.43426,-2.62316 c -2.39345,-1.33088 -2.69633,-2.55105 -1.10826,-4.46456 0.73868,-0.89006 0.6662,-1.25 -0.2517,-1.25 -0.70901,0 -1.05352,-0.23559 -0.76557,-0.52354 0.81329,-0.81329 3.86245,0.62931 3.28953,1.55633 -0.27983,0.45277 0.42881,1.1208 1.57475,1.48451 1.92323,0.6104 1.95264,0.757 0.38221,1.90533 -1.49171,1.09076 -1.32082,1.24404 1.387,1.24404 1.69858,0 2.85975,-0.36985 2.58037,-0.82188 -0.27937,-0.45204 0.18784,-0.55488 1.03825,-0.22855 0.85041,0.32633 1.29722,0.99618 0.99292,1.48854 -0.79406,1.28481 -6.55009,1.03851 -9.1195,-0.39022 z m 1.68426,-2.10757 c 0,-0.21616 -0.69837,-0.661 -1.55194,-0.98855 -0.88992,-0.34149 -1.29132,-0.17385 -0.94098,0.39301 0.58726,0.95021 2.49292,1.40545 2.49292,0.59554 z m -51.55887,-5.07519 c -1.06762,-0.8075 -1.43373,-1.4825 -0.81357,-1.5 0.62015,-0.0175 1.68775,0.6432 2.37244,1.4682 1.58079,1.90474 0.9348,1.91792 -1.55887,0.0318 z m 44.55887,0.0272 c 0,-0.24254 0.45,-0.7191 1,-1.05902 0.55,-0.33992 1,-0.14148 1,0.44098 0,0.58246 -0.45,1.05902 -1,1.05902 -0.55,0 -1,-0.19844 -1,-0.44098 z m -3.12756,-2.30902 c -1.24387,-1.58606 -1.2085,-1.62143 0.37756,-0.37756 0.9625,0.75485 1.75,1.54235 1.75,1.75 0,0.82304 -0.82119,0.29331 -2.12756,-1.37244 z m -6.43131,-4.80517 c -1.86402,-1.49339 -1.85176,-1.51185 0.30887,-0.46481 1.2375,0.59969 2.25,1.29951 2.25,1.55516 0,0.76522 -0.51861,0.54424 -2.55887,-1.09035 z m -11.44113,-5.65763 c 0,-1.0435 1.159,-0.97217 2.98739,0.18385 1.16897,0.73909 1.0084,0.90434 -0.75,0.77188 -1.23056,-0.0927 -2.23739,-0.52278 -2.23739,-0.95573 z m -140.28949,-57.7862 c -0.28751,-1.09945 -0.115,-2.25101 0.38337,-2.55902 0.49837,-0.308 0.90612,-0.12026 0.90612,0.41722 0,0.53748 0.27314,1.68903 0.60699,2.55902 0.33384,0.86998 0.16133,1.58178 -0.38337,1.58178 -0.5447,0 -1.2256,-0.89955 -1.51311,-1.999 z m -26.71051,-10.53238 c 0,-1.593 2.65668,-3.14527 3.66218,-2.13977 0.57917,0.57917 -2.02397,3.67115 -3.09075,3.67115 -0.31429,0 -0.57143,-0.68912 -0.57143,-1.53138 z m -6.43524,-2.36383 c -0.91631,-1.48262 1.95807,-4.91529 3.13247,-3.74089 0.40967,0.40967 0.26286,1.05788 -0.32625,1.44048 -0.5891,0.38259 -1.28118,1.34846 -1.53795,2.14637 -0.3721,1.15628 -0.62953,1.18755 -1.26827,0.15404 z m 4.68524,-4.70684 c -2.8875,-1.90111 -5.25,-3.94848 -5.25,-4.5497 0,-0.69991 0.567,-0.62256 1.57621,0.21501 1.3063,1.08413 1.73179,1.06228 2.48469,-0.12756 0.75579,-1.1944 0.91105,-1.15528 0.92379,0.23274 0.021,2.28911 6.80859,6.43828 8.22129,5.02558 2.31944,-2.31943 0.36209,-4.061 -11.64623,-10.3623 -1.74857,-0.91755 -3.82734,-2.49255 -4.61948,-3.5 -1.33774,-1.70132 -1.30799,-1.72762 0.41794,-0.36946 1.65046,1.29877 2.00309,1.26413 3.154,-0.30984 0.81989,-1.12127 1.53635,-1.38286 1.95081,-0.71226 0.36026,0.58292 0.066,1.07603 -0.654,1.09581 -0.71996,0.0198 0.041,1.14402 1.69098,2.49832 2.77087,2.27429 3.09575,2.33293 4.25375,0.76778 0.97295,-1.31505 1.52166,-1.42666 2.45,-0.49832 0.92833,0.92834 0.90007,1.19625 -0.12619,1.19625 -1.91196,0 0.48737,2.72366 3.99902,4.5396 2.35682,1.21877 2.88519,1.21139 3.93614,-0.0549 0.66764,-0.80446 1.60369,-1.22174 2.08011,-0.9273 1.053,0.6508 -1.16274,4.44263 -2.59603,4.44263 -0.56216,0 -1.86694,1.125 -2.89952,2.5 -1.03259,1.375 -2.37689,2.46727 -2.98735,2.42727 -0.61046,-0.04 -3.47243,-1.6282 -6.35993,-3.52932 z m 24,1.03591 c -4.44229,-2.66246 -5.05911,-4.1654 -3.03785,-7.40195 1.62869,-2.60796 0.25291,-3.76276 -2.02588,-1.70048 -1.60547,1.45293 -2.05909,1.47832 -3.75613,0.21027 -1.85848,-1.38868 -1.8466,-1.42118 0.31986,-0.87533 1.60153,0.40351 2.25,0.12499 2.25,-0.9664 0,-0.84332 -0.5625,-1.76027 -1.25,-2.03769 -0.6875,-0.27741 0.002,-0.53991 1.53212,-0.58333 4.56389,-0.12951 9.36991,2.39848 10.10152,5.31345 0.35995,1.43418 1.32089,2.6076 2.13541,2.6076 0.81452,0 1.48095,0.41425 1.48095,0.92055 0,1.19931 -5.57651,2.41824 -7.2256,1.57939 -0.70092,-0.35654 -0.3744,0.0881 0.7256,0.988 1.1,0.89994 3.2302,1.8881 4.73377,2.19591 1.50357,0.30781 2.48951,0.95487 2.19098,1.43791 -0.94459,1.52839 -3.78798,0.94129 -8.17475,-1.6879 z m -35.25,-0.81141 c 0,-0.75766 0.61529,-1.88821 1.36732,-2.51233 1.04091,-0.86388 1.67148,-0.76829 2.64144,0.40044 1.08175,1.30343 1.00007,1.43006 -0.54093,0.83873 -1.41577,-0.54329 -1.67377,-0.32834 -1.17282,0.9771 0.42081,1.09663 0.13591,1.67361 -0.8264,1.67361 -0.80773,0 -1.46861,-0.6199 -1.46861,-1.37755 z m 2.22637,-5.46138 c -0.97174,-0.61671 -0.78835,-1.24749 0.77362,-2.66106 1.62379,-1.46951 2.30094,-1.59716 3.27364,-0.61713 0.97055,0.97786 0.88242,1.10473 -0.42248,0.6082 -0.90687,-0.34509 -1.94592,-0.14675 -2.30902,0.44075 -0.36309,0.5875 -0.18361,1.06817 0.39885,1.06817 0.58246,0 1.05902,0.45 1.05902,1 0,1.20039 -1.04077,1.26083 -2.77363,0.16107 z m 18.02363,-6.15011 c -1.7875,-1.08986 -3.25,-2.23973 -3.25,-2.55528 0,-0.31554 0.51827,-0.2534 1.1517,0.13808 0.63344,0.39149 1.71524,-0.0589 2.404,-1.00082 0.72652,-0.99357 1.50938,-1.29665 1.86461,-0.72188 0.33677,0.54491 0.12566,1.29152 -0.46914,1.65912 -0.7204,0.44523 -0.50717,1.30295 0.63868,2.5691 2.17546,2.40386 1.71938,2.38665 -2.33985,-0.0883 z m -7.75,-4.5796 c -1.65,-0.85597 -3.45,-2.03328 -4,-2.61624 -0.65853,-0.69799 -0.26754,-0.68383 1.14499,0.0415 1.67226,0.85865 2.41351,0.77786 3.36331,-0.36658 0.67007,-0.80739 1.66537,-1.19169 2.21177,-0.85399 0.61028,0.37717 0.49496,0.92208 -0.29901,1.41277 -1.05493,0.65199 -1.05205,1.08845 0.0157,2.375 1.625,1.95801 1.32476,1.95894 -2.43674,0.008 z"
         style="fill:#68081a" />
      <path
         inkscape:connector-curvature="0"
         id="path3073"
         d="m -283.58548,256.30945 c -1.65,-1.35248 -3.6375,-2.4613 -4.41667,-2.46403 -2.60431,-0.009 -0.0469,-1.41283 2.65861,-1.45923 2.20368,-0.0378 2.78577,-0.62374 3.35219,-3.37439 0.37699,-1.83076 1.63504,-3.99378 2.79566,-4.80671 1.16061,-0.81293 2.11021,-2.54 2.11021,-3.83794 0,-1.39153 1.07116,-3.14017 2.61042,-4.26145 2.39992,-1.74822 2.48056,-2.03141 1,-3.51197 -0.88573,-0.88573 -1.61042,-2.07021 -1.61042,-2.63216 0,-0.56196 -0.7875,-1.46607 -1.75,-2.00915 -2.84516,-1.60534 -0.22561,-3.43339 3.10526,-2.167 3.37401,1.2828 15.42093,9.30511 18.34501,12.21635 2.48923,2.4783 1.99454,4.75075 -0.54955,2.52441 -1.87859,-1.64396 -7.64895,-4.69141 -8.85106,-4.67444 -0.43981,0.006 -3.7198,5.18122 -7.28885,11.5 -3.56906,6.31879 -6.94406,11.47253 -7.5,11.45275 -0.55595,-0.0198 -2.36081,-1.14255 -4.01081,-2.49504 z m -132.78949,-92.468 c -0.28751,-1.09945 -0.115,-2.25101 0.38337,-2.55902 0.49837,-0.308 0.90612,-0.12026 0.90612,0.41722 0,0.53748 0.27314,1.68903 0.60699,2.55902 0.33384,0.86998 0.16133,1.58178 -0.38337,1.58178 -0.5447,0 -1.2256,-0.89955 -1.51311,-1.999 z m -26.71051,-10.53238 c 0,-1.593 2.65668,-3.14527 3.66218,-2.13977 0.57917,0.57917 -2.02397,3.67115 -3.09075,3.67115 -0.31429,0 -0.57143,-0.68912 -0.57143,-1.53138 z m -6.43524,-2.36383 c -0.91631,-1.48262 1.95807,-4.91529 3.13247,-3.74089 0.40967,0.40967 0.26286,1.05788 -0.32625,1.44048 -0.5891,0.38259 -1.28118,1.34846 -1.53795,2.14637 -0.3721,1.15628 -0.62953,1.18755 -1.26827,0.15404 z m 4.68524,-4.70684 c -2.8875,-1.90111 -5.25,-3.94848 -5.25,-4.5497 0,-0.69991 0.567,-0.62256 1.57621,0.21501 1.3063,1.08413 1.73179,1.06228 2.48469,-0.12756 0.75579,-1.1944 0.91105,-1.15528 0.92379,0.23274 0.021,2.28911 6.80859,6.43828 8.22129,5.02558 2.31944,-2.31943 0.36209,-4.061 -11.64623,-10.3623 -1.74857,-0.91755 -3.82734,-2.49255 -4.61948,-3.5 -1.33774,-1.70132 -1.30799,-1.72762 0.41794,-0.36946 1.65046,1.29877 2.00309,1.26413 3.154,-0.30984 0.81989,-1.12127 1.53635,-1.38286 1.95081,-0.71226 0.36026,0.58292 0.066,1.07603 -0.654,1.09581 -0.71996,0.0198 0.041,1.14402 1.69098,2.49832 2.77087,2.27429 3.09575,2.33293 4.25375,0.76778 0.97295,-1.31505 1.52166,-1.42666 2.45,-0.49832 0.92833,0.92834 0.90007,1.19625 -0.12619,1.19625 -1.91196,0 0.48737,2.72366 3.99902,4.5396 2.35682,1.21877 2.88519,1.21139 3.93614,-0.0549 0.66764,-0.80446 1.60369,-1.22174 2.08011,-0.9273 1.053,0.6508 -1.16274,4.44263 -2.59603,4.44263 -0.56216,0 -1.86694,1.125 -2.89952,2.5 -1.03259,1.375 -2.37689,2.46727 -2.98735,2.42727 -0.61046,-0.04 -3.47243,-1.6282 -6.35993,-3.52932 z m 24,1.03591 c -4.44229,-2.66246 -5.05911,-4.1654 -3.03785,-7.40195 1.62869,-2.60796 0.25291,-3.76276 -2.02588,-1.70048 -1.60547,1.45293 -2.05909,1.47832 -3.75613,0.21027 -1.85848,-1.38868 -1.8466,-1.42118 0.31986,-0.87533 1.60153,0.40351 2.25,0.12499 2.25,-0.9664 0,-0.84332 -0.5625,-1.76027 -1.25,-2.03769 -0.6875,-0.27741 0.002,-0.53991 1.53212,-0.58333 4.56389,-0.12951 9.36991,2.39848 10.10152,5.31345 0.35995,1.43418 1.32089,2.6076 2.13541,2.6076 0.81452,0 1.48095,0.41425 1.48095,0.92055 0,1.19931 -5.57651,2.41824 -7.2256,1.57939 -0.70092,-0.35654 -0.3744,0.0881 0.7256,0.988 1.1,0.89994 3.2302,1.8881 4.73377,2.19591 1.50357,0.30781 2.48951,0.95487 2.19098,1.43791 -0.94459,1.52839 -3.78798,0.94129 -8.17475,-1.6879 z m -35.25,-0.81141 c 0,-0.75766 0.61529,-1.88821 1.36732,-2.51233 1.04091,-0.86388 1.67148,-0.76829 2.64144,0.40044 1.08175,1.30343 1.00007,1.43006 -0.54093,0.83873 -1.41577,-0.54329 -1.67377,-0.32834 -1.17282,0.9771 0.42081,1.09663 0.13591,1.67361 -0.8264,1.67361 -0.80773,0 -1.46861,-0.6199 -1.46861,-1.37755 z m 2.22637,-5.46138 c -0.97174,-0.61671 -0.78835,-1.24749 0.77362,-2.66106 1.62379,-1.46951 2.30094,-1.59716 3.27364,-0.61713 0.97055,0.97786 0.88242,1.10473 -0.42248,0.6082 -0.90687,-0.34509 -1.94592,-0.14675 -2.30902,0.44075 -0.36309,0.5875 -0.18361,1.06817 0.39885,1.06817 0.58246,0 1.05902,0.45 1.05902,1 0,1.20039 -1.04077,1.26083 -2.77363,0.16107 z m 18.02363,-6.15011 c -1.7875,-1.08986 -3.25,-2.23973 -3.25,-2.55528 0,-0.31554 0.51827,-0.2534 1.1517,0.13808 0.63344,0.39149 1.71524,-0.0589 2.404,-1.00082 0.72652,-0.99357 1.50938,-1.29665 1.86461,-0.72188 0.33677,0.54491 0.12566,1.29152 -0.46914,1.65912 -0.7204,0.44523 -0.50717,1.30295 0.63868,2.5691 2.17546,2.40386 1.71938,2.38665 -2.33985,-0.0883 z m -7.75,-4.5796 c -1.65,-0.85597 -3.45,-2.03328 -4,-2.61624 -0.65853,-0.69799 -0.26754,-0.68383 1.14499,0.0415 1.67226,0.85865 2.41351,0.77786 3.36331,-0.36658 0.67007,-0.80739 1.66537,-1.19169 2.21177,-0.85399 0.61028,0.37717 0.49496,0.92208 -0.29901,1.41277 -1.05493,0.65199 -1.05205,1.08845 0.0157,2.375 1.625,1.95801 1.32476,1.95894 -2.43674,0.008 z"
         style="fill:#13195c" />
      <path
         inkscape:connector-curvature="0"
         id="path3071"
         d="m -283.58548,256.30945 c -1.65,-1.35248 -3.58906,-2.4613 -4.30902,-2.46403 -0.71996,-0.003 -1.05701,-0.41272 -0.749,-0.91109 0.66581,-1.07731 4.55802,-0.234 4.55802,0.98757 0,0.4665 0.92877,1.34524 2.06392,1.95276 1.56306,0.83653 2.45786,0.78439 3.68723,-0.21482 1.40598,-1.14275 1.53131,-1.07415 0.93608,0.5124 -0.37798,1.00748 -0.68723,2.01998 -0.68723,2.25 0,1.16002 -2.83662,0.0704 -5.5,-2.11279 z m 27.70948,-15.65952 c -0.61087,-0.61087 -2.79489,-2.05541 -4.85336,-3.21008 -2.05848,-1.15467 -3.70372,-2.5494 -3.65609,-3.0994 0.1158,-1.33731 -4.753,-4.48514 -6.95003,-4.49341 -0.9625,-0.004 -1.75,0.44341 -1.75,0.99341 0,0.55 -0.45,1 -1,1 -0.55,0 -1,-0.65264 -1,-1.45031 0,-0.79767 -0.7875,-1.89464 -1.75,-2.43772 -1.26312,-0.7127 -1.44753,-1.2933 -0.66284,-2.08685 1.50399,-1.52097 4.97852,-0.0677 13.04721,5.45701 3.62899,2.48483 6.88335,4.53201 7.2319,4.54929 0.34855,0.0173 1.4219,1.11532 2.38521,2.44007 1.7936,2.46658 0.95907,4.33906 -1.042,2.33799 z m -160.49897,-76.80848 c -0.28751,-1.09945 -0.115,-2.25101 0.38337,-2.55902 0.49837,-0.308 0.90612,-0.12026 0.90612,0.41722 0,0.53748 0.27314,1.68903 0.60699,2.55902 0.33384,0.86998 0.16133,1.58178 -0.38337,1.58178 -0.5447,0 -1.2256,-0.89955 -1.51311,-1.999 z m -26.71051,-10.53238 c 0,-1.593 2.65668,-3.14527 3.66218,-2.13977 0.57917,0.57917 -2.02397,3.67115 -3.09075,3.67115 -0.31429,0 -0.57143,-0.68912 -0.57143,-1.53138 z m -6.43524,-2.36383 c -0.91631,-1.48262 1.95807,-4.91529 3.13247,-3.74089 0.40967,0.40967 0.26286,1.05788 -0.32625,1.44048 -0.5891,0.38259 -1.28118,1.34846 -1.53795,2.14637 -0.3721,1.15628 -0.62953,1.18755 -1.26827,0.15404 z m 4.68524,-4.70684 c -2.8875,-1.90111 -5.25,-3.94848 -5.25,-4.5497 0,-0.69991 0.567,-0.62256 1.57621,0.21501 1.3063,1.08413 1.73179,1.06228 2.48469,-0.12756 0.75579,-1.1944 0.91105,-1.15528 0.92379,0.23274 0.021,2.28911 6.80859,6.43828 8.22129,5.02558 2.31944,-2.31943 0.36209,-4.061 -11.64623,-10.3623 -1.74857,-0.91755 -3.82734,-2.49255 -4.61948,-3.5 -1.33774,-1.70132 -1.30799,-1.72762 0.41794,-0.36946 1.65046,1.29877 2.00309,1.26413 3.154,-0.30984 0.81989,-1.12127 1.53635,-1.38286 1.95081,-0.71226 0.36026,0.58292 0.066,1.07603 -0.654,1.09581 -0.71996,0.0198 0.041,1.14402 1.69098,2.49832 2.77087,2.27429 3.09575,2.33293 4.25375,0.76778 0.97295,-1.31505 1.52166,-1.42666 2.45,-0.49832 0.92833,0.92834 0.90007,1.19625 -0.12619,1.19625 -1.91196,0 0.48737,2.72366 3.99902,4.5396 2.35682,1.21877 2.88519,1.21139 3.93614,-0.0549 0.66764,-0.80446 1.60369,-1.22174 2.08011,-0.9273 1.053,0.6508 -1.16274,4.44263 -2.59603,4.44263 -0.56216,0 -1.86694,1.125 -2.89952,2.5 -1.03259,1.375 -2.37689,2.46727 -2.98735,2.42727 -0.61046,-0.04 -3.47243,-1.6282 -6.35993,-3.52932 z m 24,1.03591 c -4.44229,-2.66246 -5.05911,-4.1654 -3.03785,-7.40195 1.62869,-2.60796 0.25291,-3.76276 -2.02588,-1.70048 -1.60547,1.45293 -2.05909,1.47832 -3.75613,0.21027 -1.85848,-1.38868 -1.8466,-1.42118 0.31986,-0.87533 1.60153,0.40351 2.25,0.12499 2.25,-0.9664 0,-0.84332 -0.5625,-1.76027 -1.25,-2.03769 -0.6875,-0.27741 0.002,-0.53991 1.53212,-0.58333 4.56389,-0.12951 9.36991,2.39848 10.10152,5.31345 0.35995,1.43418 1.32089,2.6076 2.13541,2.6076 0.81452,0 1.48095,0.41425 1.48095,0.92055 0,1.19931 -5.57651,2.41824 -7.2256,1.57939 -0.70092,-0.35654 -0.3744,0.0881 0.7256,0.988 1.1,0.89994 3.2302,1.8881 4.73377,2.19591 1.50357,0.30781 2.48951,0.95487 2.19098,1.43791 -0.94459,1.52839 -3.78798,0.94129 -8.17475,-1.6879 z m -35.25,-0.81141 c 0,-0.75766 0.61529,-1.88821 1.36732,-2.51233 1.04091,-0.86388 1.67148,-0.76829 2.64144,0.40044 1.08175,1.30343 1.00007,1.43006 -0.54093,0.83873 -1.41577,-0.54329 -1.67377,-0.32834 -1.17282,0.9771 0.42081,1.09663 0.13591,1.67361 -0.8264,1.67361 -0.80773,0 -1.46861,-0.6199 -1.46861,-1.37755 z m 2.22637,-5.46138 c -0.97174,-0.61671 -0.78835,-1.24749 0.77362,-2.66106 1.62379,-1.46951 2.30094,-1.59716 3.27364,-0.61713 0.97055,0.97786 0.88242,1.10473 -0.42248,0.6082 -0.90687,-0.34509 -1.94592,-0.14675 -2.30902,0.44075 -0.36309,0.5875 -0.18361,1.06817 0.39885,1.06817 0.58246,0 1.05902,0.45 1.05902,1 0,1.20039 -1.04077,1.26083 -2.77363,0.16107 z m 18.02363,-6.15011 c -1.7875,-1.08986 -3.25,-2.23973 -3.25,-2.55528 0,-0.31554 0.51827,-0.2534 1.1517,0.13808 0.63344,0.39149 1.71524,-0.0589 2.404,-1.00082 0.72652,-0.99357 1.50938,-1.29665 1.86461,-0.72188 0.33677,0.54491 0.12566,1.29152 -0.46914,1.65912 -0.7204,0.44523 -0.50717,1.30295 0.63868,2.5691 2.17546,2.40386 1.71938,2.38665 -2.33985,-0.0883 z m -7.75,-4.5796 c -1.65,-0.85597 -3.45,-2.03328 -4,-2.61624 -0.65853,-0.69799 -0.26754,-0.68383 1.14499,0.0415 1.67226,0.85865 2.41351,0.77786 3.36331,-0.36658 0.67007,-0.80739 1.66537,-1.19169 2.21177,-0.85399 0.61028,0.37717 0.49496,0.92208 -0.29901,1.41277 -1.05493,0.65199 -1.05205,1.08845 0.0157,2.375 1.625,1.95801 1.32476,1.95894 -2.43674,0.008 z"
         style="fill:#241d27" />
    </g>
  </g>
</svg>
