<?xml version="1.0" encoding="UTF-8" standalone="no"?>
<svg
   xmlns:dc="http://purl.org/dc/elements/1.1/"
   xmlns:cc="http://creativecommons.org/ns#"
   xmlns:rdf="http://www.w3.org/1999/02/22-rdf-syntax-ns#"
   xmlns:svg="http://www.w3.org/2000/svg"
   xmlns="http://www.w3.org/2000/svg"
   xmlns:sodipodi="http://sodipodi.sourceforge.net/DTD/sodipodi-0.dtd"
   xmlns:inkscape="http://www.inkscape.org/namespaces/inkscape"
   viewBox="0 0 512 512"
   id="svg8438"
   version="1.1"
   inkscape:version="0.48.4 r9939"
   width="100%"
   height="100%"
   sodipodi:docname="halberd.svg">
  <metadata
     id="metadata8464">
    <rdf:RDF>
      <cc:Work
         rdf:about="">
        <dc:format>image/svg+xml</dc:format>
        <dc:type
           rdf:resource="http://purl.org/dc/dcmitype/StillImage" />
        <dc:title></dc:title>
      </cc:Work>
    </rdf:RDF>
  </metadata>
  <defs
     id="defs8462">
    <linearGradient
       id="linearGradient4077">
      <stop
         id="stop4079"
         offset="0"
         style="stop-color:#aa4400;stop-opacity:1;" />
      <stop
         style="stop-color:#ff9f00;stop-opacity:1;"
         offset="0.22752622"
         id="stop4081" />
      <stop
         style="stop-color:#803300;stop-opacity:1;"
         offset="0.4948855"
         id="stop4083" />
      <stop
         id="stop4085"
         offset="1"
         style="stop-color:#562200;stop-opacity:1;" />
    </linearGradient>
    <linearGradient
       id="linearGradient4057">
      <stop
         style="stop-color:#aa4400;stop-opacity:1;"
         offset="0"
         id="stop4059" />
      <stop
         id="stop4067"
         offset="0.22752622"
         style="stop-color:#ecd1a4;stop-opacity:1;" />
      <stop
         id="stop4065"
         offset="0.50136983"
         style="stop-color:#803300;stop-opacity:1;" />
      <stop
         style="stop-color:#562200;stop-opacity:1;"
         offset="1"
         id="stop4061" />
    </linearGradient>
    <linearGradient
       id="linearGradient3890">
      <stop
         style="stop-color:#701b1b;stop-opacity:1;"
         offset="0"
         id="stop3892" />
      <stop
         style="stop-color:#e31600;stop-opacity:1;"
         offset="1"
         id="stop3894" />
    </linearGradient>
    <linearGradient
       id="linearGradient3882">
      <stop
         style="stop-color:#600b0b;stop-opacity:1;"
         offset="0"
         id="stop3884" />
      <stop
         style="stop-color:#d11414;stop-opacity:1;"
         offset="1"
         id="stop3886" />
    </linearGradient>
    <linearGradient
       id="linearGradient3872">
      <stop
         style="stop-color:#800600;stop-opacity:1;"
         offset="0"
         id="stop3874" />
      <stop
         style="stop-color:#ff0004;stop-opacity:0;"
         offset="1"
         id="stop3876" />
    </linearGradient>
  </defs>
  <sodipodi:namedview
     pagecolor="#000000"
     bordercolor="#666666"
     borderopacity="1"
     objecttolerance="10"
     gridtolerance="10"
     guidetolerance="10"
     inkscape:pageopacity="0"
     inkscape:pageshadow="2"
     inkscape:window-width="1190"
     inkscape:window-height="1126"
     id="namedview8460"
     showgrid="false"
     inkscape:zoom="0.70710678"
     inkscape:cx="204.49403"
     inkscape:cy="551.40418"
     inkscape:window-x="160"
     inkscape:window-y="130"
     inkscape:window-maximized="0"
     inkscape:current-layer="g8466" />
  <g
     id="g8466">
    <path
       inkscape:connector-curvature="0"
       d="M -13.466093,0.1885736 H 514.89024 V 516.42957 H -13.466093 z"
       id="path3978"
       style="fill:#000000" />
    <path
       sodipodi:type="arc"
       style="fill:#333333;fill-opacity:1;fill-rule:nonzero;stroke:none"
       id="path4121"
       sodipodi:cx="63.286057"
       sodipodi:cy="-74.545074"
       sodipodi:rx="39.244427"
       sodipodi:ry="23.688076"
       d="m 101.95774,-78.577314 a 39.244427,23.688076 0 0 1 9.3e-4,0.0033 l -38.672613,4.028989 z"
       sodipodi:start="6.11213"
       sodipodi:end="6.1122693"
       transform="matrix(0.92592215,0,0,1,-12.92858,0)" />
    <path
       sodipodi:type="arc"
       style="fill:#333333;fill-opacity:1;fill-rule:nonzero;stroke:none"
       id="path4123"
       sodipodi:cx="65.584152"
       sodipodi:cy="-52.359596"
       sodipodi:rx="10.606602"
       sodipodi:ry="11.755651"
       d="m 76.035958,-54.360671 a 10.606602,11.755651 0 0 1 2.51e-4,0.0016 l -10.452057,1.999461 z"
       sodipodi:start="6.11213"
       sodipodi:end="6.1122693"
       transform="matrix(0.92592215,0,0,1,-12.92858,0)" />
    <path
       sodipodi:type="arc"
       style="fill:#333333;fill-opacity:1;fill-rule:nonzero;stroke:none"
       id="path4125"
       sodipodi:cx="54.182056"
       sodipodi:cy="-54.392529"
       sodipodi:rx="15.46796"
       sodipodi:ry="16.793785"
       d="m 69.424272,-57.251206 a 15.46796,16.793785 0 0 1 3.67e-4,0.0023 l -15.242583,2.856372 z"
       sodipodi:start="6.11213"
       sodipodi:end="6.1122693"
       transform="matrix(0.92592215,0,0,1,-12.92858,0)" />
    <g
       id="g3065"
       inkscape:transform-center-x="-65.053824"
       inkscape:transform-center-y="-12.727922"
       transform="translate(-1.4142138,4.2426405)">
      <path
         style="fill:#969897"
         d="m 487.89806,499.02992 4.34105,-4.68708 L 369.37,371.48489 C 187.79344,189.92484 154.94518,157.38791 142.42625,146.69213 131.92281,137.7183 127.2954,130.13392 133.88979,132.7007 c 1.57572,0.61333 3.70736,-0.61124 4.85704,-2.79023 3.19399,-6.0536 12.69122,-9.02998 25.37762,-7.9532 6.24207,0.5298 13.12488,1.70738 15.29516,2.61683 3.57139,1.49658 3.67755,1.31913 1.11848,-1.86932 -8.81442,-10.9822 -33.83388,-15.57042 -47.29337,-8.67293 -3.69342,1.89274 -8.40698,3.44135 -10.47458,3.44135 -2.06759,0 -3.24847,0.83834 -2.62416,1.86298 0.62433,1.02463 0.0874,2.5198 -1.1932,3.32258 -1.37969,0.86492 -4.25773,-0.91332 -7.06394,-4.36456 -2.60461,-3.20329 -7.39433,-8.95124 -10.64382,-12.77322 C 97.9955,101.699 93.988597,95.690033 92.340785,92.167725 87.692743,82.232286 35.328522,31.330411 20.982341,22.802066 6.480769,14.181346 4.0243314,13.709796 5.9251781,19.911615 10.94566,36.291851 64.247618,98.211516 78.797686,104.56593 c 3.255415,1.42172 8.582458,5.16487 11.837873,8.31809 3.255415,3.15322 8.400924,7.3245 11.434481,9.26952 3.03353,1.94502 6.52261,5.77837 7.75347,8.51855 1.89435,4.21728 1.60289,5.62629 -1.89852,9.1779 -5.52689,5.60611 -11.289385,3.56862 -9.569204,-3.38344 0.67835,-2.74148 0.401225,-4.98451 -0.615846,-4.98451 -4.869588,0 -8.09087,2.87397 -8.09087,7.21853 0,6.89595 -3.063247,5.89211 -5.212137,-1.70803 -1.358613,-4.80515 -3.222032,-6.75948 -7.15556,-7.50474 -2.925218,-0.55421 -7.18409,-2.63908 -9.464163,-4.63304 -3.39891,-2.97238 -6.07054,-3.38143 -14.832619,-2.27099 -5.877859,0.74492 -10.687015,1.94641 -10.687015,2.66998 0,0.72356 3.165823,3.04493 7.035189,5.15858 10.133121,5.53528 17.613039,15.06011 22.320843,28.42305 9.82145,27.87779 18.87326,36.10644 42.699902,38.8168 8.4041,0.95599 18.32895,2.75878 22.05528,4.0062 8.52183,2.85278 9.5604,1.78107 5.66971,-5.85056 -1.70773,-3.34971 -3.10496,-9.28709 -3.10496,-13.19419 0,-6.05814 -0.66142,-7.1038 -4.49344,-7.1038 -5.44526,0 -13.26337,-5.23086 -13.26337,-8.87412 0,-1.45385 1.33176,-3.76448 2.95947,-5.13472 4.17096,-3.51121 3.68034,-5.62157 -1.47973,-6.36492 -2.91374,-0.41975 -4.43921,-2.01492 -4.43921,-4.64203 0,-9.14469 3.81046,-5.88968 55.43933,47.35811 20.97087,21.62845 224.61147,226.07114 296.19283,297.35948 4.69718,4.67795 9.69396,8.50536 11.10396,8.50536 1.41,0 4.5171,-2.10919 6.90468,-4.68707 z"
         id="path3075"
         inkscape:connector-curvature="0" />
      <path
         style="fill:#7b8382"
         d="m 486.0423,499.44454 c 2.26682,-2.46802 4.12148,-5.02994 4.12148,-5.69312 0,-0.66319 -12.65172,-13.80119 -28.11495,-29.19554 C 446.58561,449.16154 377.55601,380.22384 308.64973,311.36102 239.74344,242.49819 175.83313,179.03254 166.62681,170.32623 127.3907,133.22102 127.97304,133.85342 130.58838,131.19094 c 1.85839,-1.89188 2.46622,-1.91878 2.46622,-0.10915 0,1.32083 0.88785,2.40151 1.97298,2.40151 1.08514,0 1.97298,-1.32772 1.97298,-2.9505 0,-7.60371 22.23575,-12.93827 35.11922,-8.42542 10.97616,3.84475 10.04379,0.16226 -1.53087,-6.04631 -5.74958,-3.08403 -11.92464,-4.59166 -18.80691,-4.59166 -10.6268,0 -22.67335,3.19434 -22.67335,6.0122 0,0.88998 -1.77568,1.14713 -3.94596,0.57145 -2.74426,-0.72793 -3.94596,-0.0614 -3.94596,2.18862 0,1.77942 -1.18834,3.23531 -2.64079,3.23531 -3.30028,0 -23.055838,-22.38099 -26.164917,-29.642124 C 84.595837,75.582757 13.545553,11.885684 7.6603341,17.855279 5.5189418,20.02737 18.689365,42.878394 29.041585,54.952281 c 19.131779,22.313568 38.067187,40.796403 50.74259,49.529799 7.0534,4.85981 17.254588,12.80294 22.669315,17.65139 9.20532,8.24263 9.71498,9.19024 7.8444,14.58544 -1.47671,4.25922 -3.27964,5.77008 -6.88548,5.77008 -4.032549,0 -4.871361,-0.96031 -4.807161,-5.50348 0.04281,-3.02691 -0.45341,-5.50347 -1.102638,-5.50347 -3.054586,0 -7.653047,5.50331 -8.36109,10.00631 -0.74261,4.72286 -0.972975,4.58271 -4.112004,-2.50157 -2.160136,-4.87509 -4.645655,-7.50474 -7.093411,-7.50474 -2.072457,0 -6.483268,-2.31741 -9.801819,-5.14981 -3.421263,-2.92007 -7.544474,-4.7336 -9.523016,-4.18853 -1.919137,0.5287 -6.012476,1.53319 -9.09634,2.2322 l -5.607009,1.27092 7.650738,5.62161 c 11.185114,8.21861 17.891348,17.14426 21.09,28.06967 7.359231,25.13651 22.141953,38.18562 43.25869,38.18562 4.7455,0 12.94513,1.31783 18.22136,2.92851 5.27624,1.61068 9.84312,2.67496 10.14863,2.36506 0.30552,-0.30989 -1.2266,-4.10428 -3.40471,-8.43197 -2.5727,-5.11178 -3.5442,-9.7967 -2.77286,-13.37202 1.09445,-5.07307 0.71215,-5.50347 -4.88839,-5.50347 -3.48456,0 -7.79205,-1.74093 -10.10013,-4.08212 l -4.02445,-4.08213 4.25868,-6.06648 c 2.92133,-4.16145 3.41065,-5.94734 1.5582,-5.68708 -1.48526,0.20867 -3.81026,0.27271 -5.16668,0.14229 -3.37683,-0.32466 -3.17731,-10.24343 0.20606,-10.24343 1.46975,0 50.16488,47.95527 108.2114,106.56727 123.50447,124.70761 249.58451,250.39893 252.04304,251.26596 0.94782,0.33425 3.57798,-1.41156 5.8448,-3.87957 z M 58.423562,66.022793 c 2.655728,-3.245815 2.938298,-3.226927 4.266981,0.285242 0.723866,1.913382 -0.158036,2.773937 -2.647797,2.583703 -2.816033,-0.215166 -3.213805,-0.919983 -1.619184,-2.868945 z M 33.606624,55.872062 c -2.067169,-2.442304 -3.212897,-4.440551 -2.54607,-4.440551 1.753564,0 11.237022,10.659392 11.237022,12.630392 0,1.66991 -1.707593,0.06076 -8.690952,-8.189841 z m 5.956502,-7.56929 c -0.651004,-1.720806 -2.077744,-2.568227 -3.170557,-1.883155 -1.841657,1.154527 -2.879642,-1.629893 -2.139873,-5.740255 0.172833,-0.960556 -0.831769,-1.310323 -2.232584,-0.777263 -3.490752,1.328379 -10.383827,-1.369434 -10.685436,-4.182067 -0.528699,-4.930412 -0.870044,-5.201748 -2.893255,-2.29989 -1.860421,2.66835 -1.994031,2.66835 -1.202432,0 0.489792,-1.651042 -1.440255,-5.611409 -4.289,-8.800815 l -5.1795429,-5.79892 9.8648939,5.393955 c 5.425692,2.966675 12.776459,8.063689 16.335023,11.326697 6.427452,5.893624 11.768266,15.890452 8.489471,15.890452 -0.942196,0 -2.245703,-1.407933 -2.896708,-3.128739 z"
         id="path3073"
         inkscape:connector-curvature="0" />
      <path
         style="fill:#5a6261"
         d="m 485.82342,499.13968 4.31061,-4.65421 -76.43805,-76.96346 C 251.09462,253.80303 161.81273,165.08741 142.9195,148.46301 c -11.32973,-9.96918 -15.51722,-15.99158 -12.86418,-18.50109 0.86158,-0.81498 1.96473,-0.35045 2.45141,1.03227 1.27255,3.61537 4.49383,0.96627 4.49383,-3.6956 0,-2.17097 -1.33176,-4.46559 -2.95947,-5.09916 -4.17983,-1.62694 -3.67686,-3.76364 1.47974,-6.28623 3.33358,-1.63078 3.61438,-2.20537 1.12742,-2.30708 -1.8215,-0.0745 -4.641,1.21281 -6.26559,2.8607 -1.62459,1.64788 -4.35152,2.45209 -6.05987,1.78715 -2.03199,-0.79093 -3.10606,-0.0969 -3.10606,2.00701 0,1.7688 -1.1098,3.22505 -2.46622,3.2361 -3.21142,0.0262 -24.813052,-23.722053 -26.367247,-28.987388 -1.6735,-5.669479 -12.812742,-17.164042 -15.18953,-15.674044 -1.101455,0.690498 -1.350445,0.223025 -0.566502,-1.063603 1.355161,-2.224144 -14.982032,-19.991679 -34.329655,-37.335272 -4.883122,-4.377325 0.333197,1.61262 11.591804,13.310992 12.289074,12.769068 19.909271,22.190384 19.06669,23.573263 -0.771928,1.266924 -0.312717,3.636664 1.020464,5.26609 5.175814,6.325877 0.282768,4.319455 -7.845629,-3.217143 -8.517804,-7.897661 -12.544733,-10.418003 -8.240719,-5.157651 1.740128,2.126792 1.600954,3.026616 -0.600653,3.883569 -3.65741,1.423601 -8.274259,-3.678161 -5.118716,-5.656348 3.006228,-1.884592 1.463871,-5.544692 -2.590916,-6.148339 -1.845347,-0.274721 -2.854625,0.322019 -2.242843,1.326091 2.703829,4.437577 -2.658471,1.129913 -10.82907,-6.679786 -6.909391,-6.604207 -6.305897,-5.597707 2.699904,4.502842 21.965095,24.635178 39.903774,40.715257 43.750826,39.217837 1.509408,-0.58752 2.744394,-0.14276 2.744394,0.98835 0,1.1311 1.025022,1.41398 2.277824,0.6286 1.269493,-0.79583 1.747191,-0.55705 1.07912,0.5394 -0.65929,1.08204 4.086651,6.74263 10.546539,12.57909 6.459885,5.83646 11.745245,11.99879 11.745245,13.69408 0,1.69528 1.55372,4.87167 3.45271,7.05863 3.31701,3.82003 3.30269,3.89363 -0.36443,1.87243 -2.66824,-1.47066 -4.81645,-1.47086 -7.13731,-6.8e-4 -4.91055,3.11065 -9.761825,0.35722 -9.761825,-5.5405 0,-4.51623 -0.476415,-4.87775 -3.945958,-2.99429 -2.307497,1.25264 -3.945957,4.19029 -3.945957,7.07484 0,7.18276 -3.281577,6.03418 -5.918937,-2.07168 -1.509743,-4.64012 -3.508193,-7.00442 -5.920574,-7.00442 -2.00285,0 -6.27942,-2.25142 -9.503445,-5.00316 -5.9888,-5.11148 -10.224706,-6.43273 -10.224706,-3.18925 0,0.99765 -1.703293,1.3621 -3.785121,0.80988 -2.081808,-0.55221 -5.169777,-0.218 -6.862159,0.74268 -2.502487,1.42053 -1.703568,2.6143 4.278346,6.39299 10.298338,6.50529 17.300184,16.47537 22.323546,31.78697 8.012878,24.42394 22.065342,33.8164 52.39622,35.02087 6.66652,0.26474 11.7192,1.15676 11.22819,1.98228 -0.49102,0.82552 -0.46904,1.50095 0.0487,1.50095 0.51785,0 2.42862,0.57882 4.24614,1.28627 2.83393,1.10307 2.69924,0.0827 -0.94564,-7.16435 -2.33765,-4.64784 -3.97406,-10.85522 -3.63648,-13.79417 0.53846,-4.68787 -0.14758,-5.41857 -5.5918,-5.95502 -3.41307,-0.33632 -7.74733,-2.33952 -9.63169,-4.45157 -3.18529,-3.57017 -3.19981,-4.19039 -0.20661,-8.8241 3.91047,-6.05368 4.03234,-7.31688 0.57613,-5.9716 -3.47289,1.35178 -7.97882,-4.27119 -6.51767,-8.13345 0.63001,-1.66506 2.54806,-3.02738 4.26242,-3.02738 1.71436,0 34.81428,32.20157 73.55538,71.55905 85.83129,87.1969 284.07315,285.46066 286.17355,286.20519 0.83596,0.29633 3.4597,-1.55562 5.83053,-4.11544 z M 160.67631,174.5092 c -1.35088,-1.65104 -2.01222,-3.0019 -1.46965,-3.0019 0.54257,0 2.09175,1.35086 3.44263,3.0019 1.35088,1.65104 2.01222,3.00189 1.46965,3.00189 -0.54257,0 -2.09175,-1.35085 -3.44263,-3.00189 z m -9.8649,-10.00632 c -2.54859,-2.75174 -4.18987,-5.00316 -3.6473,-5.00316 0.54257,0 3.07169,2.25142 5.62028,5.00316 2.5486,2.75174 4.18988,5.00316 3.64731,5.00316 -0.54257,0 -3.07169,-2.25142 -5.62029,-5.00316 z m -13.09136,-12.11069 c -2.566,-2.80844 -4.66545,-5.57864 -4.66545,-6.156 0,-1.608 11.60424,8.04972 11.72871,9.76132 0.20571,2.82843 -2.40028,1.49824 -7.06326,-3.60532 z m -14.53034,-14.02384 c 0,-0.48539 0.88784,-0.88252 1.97298,-0.88252 1.08514,0 1.97298,0.95372 1.97298,2.11937 0,1.16565 -0.88784,1.56279 -1.97298,0.88252 -1.08514,-0.68026 -1.97298,-1.63398 -1.97298,-2.11937 z m 6.90543,-12.8901 c 0.67065,-1.1007 2.1072,-2.00126 3.19234,-2.00126 1.08513,0 1.42427,0.90056 0.75361,2.00126 -0.67065,1.10069 -2.1072,2.00126 -3.19233,2.00126 -1.08514,0 -1.42428,-0.90057 -0.75362,-2.00126 z m -31.773191,-15.4681 c 2.005571,-2.03431 3.660371,1.02843 2.014841,3.72912 -1.243031,2.04012 -1.707766,2.0417 -2.376054,0.008 -0.456942,-1.39044 -0.294388,-3.07218 0.361213,-3.73718 z M 78.758463,87.414457 c -0.388282,-5.346028 2.820709,-2.091034 3.985181,4.042318 0.678724,3.574878 0.342331,4.149633 -1.396475,2.385914 -1.259806,-1.277883 -2.424732,-4.170587 -2.588706,-6.428232 z M 62.932726,83.318576 c -2.123458,-3.485086 0.295,-4.223148 3.001019,-0.915848 1.556187,1.901968 1.705877,3.050257 0.397595,3.050257 -1.153956,0 -2.68333,-0.960484 -3.398614,-2.134409 z m 85.808324,38.824944 c 6.85008,-3.02681 19.36889,-2.8701 26.563,0.33252 2.6989,1.20146 3.36687,1.00902 2.34112,-0.67446 -1.69493,-2.78176 -10.022,-7.27756 -16.96886,-9.16149 l -4.93245,-1.33765 4.93245,3.01446 4.93245,3.01446 -5.13129,0.0709 c -5.80667,0.0803 -17.59619,3.7454 -20.41879,6.34784 -2.7586,2.54342 0.7665,1.89113 8.68237,-1.6066 z M 22.573884,43.926774 c -2.581761,-3.577258 -5.00231,-6.504106 -5.378991,-6.504106 -1.4983,0 3.393543,7.505826 6.628794,10.170908 2.13135,1.755726 1.654915,0.357946 -1.249803,-3.666802 z m 7.885819,-13.508527 c -1.350879,-1.651042 -2.900062,-3.001895 -3.442631,-3.001895 -0.542569,0 0.118773,1.350853 1.469652,3.001895 1.350879,1.651042 2.900062,3.001895 3.442631,3.001895 0.54257,0 -0.118773,-1.350853 -1.469652,-3.001895 z M 13.159737,19.074188 C 12.013239,17.911248 9.9105955,17.353513 8.4872096,17.834777 7.009547,18.33439 7.9038984,19.241548 10.57176,19.949213 c 3.281755,0.870498 4.052065,0.610046 2.587977,-0.875025 z"
         id="path3071"
         inkscape:connector-curvature="0" />
      <path
         style="fill:#354646"
         d="m 483.96922,500.48553 c 2.32187,-1.6496 4.22158,-4.19903 4.22158,-5.66537 0,-1.46635 -51.71671,-54.31899 -114.92602,-117.45032 -63.20931,-63.13133 -131.61404,-131.44945 -152.01054,-151.81802 -20.39648,-20.36858 -38.15329,-37.374 -39.45958,-37.78983 -1.30627,-0.41582 0.60517,2.42791 4.24767,6.3194 6.32584,6.75828 6.44803,7.17029 2.72563,9.19101 -4.58617,2.48963 -6.52774,1.17391 -5.08034,-3.44275 0.8918,-2.84447 0.73915,-2.88705 -1.09221,-0.30466 -1.94302,2.73981 -3.07984,1.47071 -2.37406,-2.65034 0.15527,-0.90733 -0.5464,-1.13006 -1.5595,-0.49494 -1.92117,1.20436 -12.0666,-9.7697 -12.0666,-13.05214 0,-1.03481 -11.98619,-13.72342 -26.63597,-28.19691 -14.6498,-14.47349 -26.23657,-26.72057 -25.7484,-27.21575 1.8997,-1.92693 58.90344,53.40101 61.76168,59.946 3.07459,7.04041 3.65449,7.08137 3.53873,0.24993 -0.0734,-4.33384 -4.99883,-9.91521 -24.75392,-28.05074 -18.76117,-17.2231 -24.64637,-23.79383 -24.5959,-27.46097 0.0365,-2.65131 -0.48222,-4.47669 -1.15266,-4.0564 -2.65679,1.66552 -18.42602,-8.10183 -21.3103,-13.19946 -4.4688,-7.89804 -9.27292,-10.47194 -13.980112,-7.4901 -3.670037,2.32483 -3.585515,2.65127 2.117776,8.17977 3.592794,3.48268 7.151496,5.28687 9.005086,4.56538 3.29115,-1.28104 8.48356,2.04558 8.48356,5.43514 0,1.13652 -1.77568,0.43639 -3.94596,-1.55584 -2.17028,-1.99223 -3.94596,-2.67845 -3.94596,-1.52492 0,1.15353 1.33176,2.61569 2.95947,3.24926 1.62771,0.63356 2.95947,3.44486 2.95947,6.24732 0,3.54463 1.84813,6.23541 6.07251,8.84124 7.43245,4.58474 17.93706,14.83749 65.54897,63.97743 20.40188,21.05665 37.60152,38.28483 38.22141,38.28483 0.61989,0 0.18132,-1.15591 -0.97461,-2.5687 -1.26618,-1.54752 -1.41397,-3.69744 -0.37177,-5.40792 0.95147,-1.56158 1.19198,-3.78278 0.53448,-4.93603 -0.65749,-1.15325 0.71191,-0.40048 3.04313,1.67285 2.33123,2.07331 3.66244,4.71524 2.95828,5.87095 -0.75455,1.23838 -1.80908,0.57224 -2.56795,-1.62208 -1.14419,-3.30865 -1.42633,-3.35672 -2.53295,-0.43158 -0.68494,1.81049 -0.38179,3.83316 0.67367,4.4948 1.05545,0.66166 1.48445,1.91619 0.95335,2.78786 -0.53111,0.87167 54.22586,56.86982 121.68217,124.44035 67.4563,67.57053 125.46196,125.73012 128.90147,129.24354 5.81712,5.94213 6.54832,6.17866 10.47522,3.38871 z M 208.7797,224.43923 c 0.66316,-1.75292 -0.0951,-2.90035 -1.91674,-2.90035 -1.88609,0 -2.45952,0.93615 -1.53234,2.50158 1.00677,1.69979 0.41172,1.62125 -1.85653,-0.24503 -3.46441,-2.85048 -4.7345,-7.37062 -1.50156,-5.34392 1.01017,0.63328 2.41088,0.20896 3.11273,-0.94293 0.78722,-1.29202 3.06897,-0.34618 5.95613,2.46892 4.17897,4.07471 4.32098,4.71149 1.32647,5.94761 -2.88625,1.19141 -2.73496,1.57253 1.08563,2.73499 2.79161,0.84935 4.43921,2.92767 4.43921,5.59963 0,3.98704 -0.31475,3.90469 -5.10513,-1.33558 -2.8078,-3.07152 -4.61136,-6.88973 -4.00787,-8.48492 z m -17.64634,-13.21618 c -3.18715,-3.47232 -4.77804,-5.72891 -3.53532,-5.01465 1.2427,0.71426 2.81734,-0.17593 3.49914,-1.97819 0.68182,-1.80226 1.78921,-2.71942 2.46087,-2.03813 0.67167,0.68129 0.0981,2.61133 -1.2745,4.28897 -2.785,3.40382 -0.0243,4.23544 3.2008,0.96417 3.39637,-3.44504 7.79082,3.2524 4.65154,7.08924 -3.07805,3.76198 -2.22053,4.07742 -9.00253,-3.31141 z m 9.00253,1.42826 c 0,-2.11229 -3.78637,-2.99971 -4.91256,-1.15138 -0.68159,1.11864 0.14489,2.0339 1.83664,2.0339 1.69175,0 3.07592,-0.39713 3.07592,-0.88252 z M 96.923699,109.29377 c 1.544547,-1.56668 2.515943,-1.56668 3.470511,0 2.05247,3.36858 -0.85075,7.00859 -3.470511,4.35127 -1.544527,-1.56667 -1.544527,-2.7846 0,-4.35127 z m 44.610121,88.89704 c -0.55522,-1.46759 -1.26342,-2.66835 -1.57379,-2.66835 -0.31037,0 -1.01857,1.20076 -1.57379,2.66835 -0.55521,1.4676 0.15291,2.66835 1.57379,2.66835 1.4208,0 2.129,-1.20075 1.57379,-2.66835 z m -15.84034,-1.97979 c -1.33577,-0.54819 -3.99929,-0.58156 -5.91894,-0.0742 -1.91965,0.50741 -0.82673,0.95593 2.42868,0.99672 3.25542,0.0408 4.82603,-0.37437 3.49026,-0.92256 z m -14.83489,-2.06808 c -1.89899,-0.50337 -5.00643,-0.50337 -6.90542,0 -1.899,0.50337 -0.34527,0.91522 3.45271,0.91522 3.79798,0 5.3517,-0.41185 3.45271,-0.91522 z m 26.08197,-10.69188 c 0.0529,-6.23554 -0.56174,-7.12044 -5.21746,-7.51129 -5.75023,-0.48272 -12.47935,-5.60573 -12.47935,-9.50075 0,-1.34568 1.33176,-3.56779 2.95947,-4.93803 1.62771,-1.37025 2.95947,-3.43864 2.95947,-4.59642 0,-1.15779 -2.0635,-0.13871 -4.58558,2.26461 -2.52206,2.40332 -5.3216,3.68602 -6.2212,2.85043 -0.89958,-0.83559 0.87277,3.23046 3.93858,9.03567 3.59712,6.8113 7.21215,10.97193 10.19235,11.73064 2.54,0.64663 5.46766,2.65118 6.50594,4.45454 1.45983,2.53551 1.9014,1.67643 1.94778,-3.7894 z m -20.65628,-33.14813 c 0,-2.64662 -0.66588,-4.81205 -1.47973,-4.81205 -0.81385,0 -1.47973,1.74799 -1.47973,3.88442 0,2.13643 0.66588,4.30185 1.47973,4.81205 0.81385,0.5102 1.47973,-1.23778 1.47973,-3.88442 z M 82.804668,138.8231 c -0.57613,-2.01624 -1.047514,-4.49281 -1.047514,-5.50348 0,-1.01067 -1.997641,-1.73311 -4.439202,-1.60543 -2.909454,0.15215 -3.338734,0.53008 -1.24572,1.09673 1.756425,0.47553 4.22545,2.84762 5.486717,5.27133 1.462648,2.81065 1.913829,3.07898 1.245719,0.74085 z m 13.476827,-2.3379 c 0.684821,-1.81024 0.0099,-3.0019 -1.699978,-3.0019 -1.709981,0 -2.384799,1.19166 -1.699978,3.0019 0.624625,1.65104 1.389608,3.00189 1.699978,3.00189 0.310369,0 1.075352,-1.35085 1.699978,-3.00189 z m 39.459575,-8.00506 c -0.62462,-1.65104 -1.48459,-3.00189 -1.91106,-3.00189 -0.42646,0 -0.77541,1.35085 -0.77541,3.00189 0,1.65105 0.85999,3.0019 1.91107,3.0019 1.05107,0 1.40001,-1.35085 0.7754,-3.0019 z"
         id="path3069"
         inkscape:connector-curvature="0" />
      <path
         style="fill:#293633"
         d="m 474.37995,489.70815 c -1.62771,-1.06699 -2.26235,-1.95377 -1.41032,-1.97062 0.85204,-0.016 0.58371,-1.86046 -0.59628,-4.09689 -1.17999,-2.23645 -3.65279,-3.81244 -5.49511,-3.50221 -2.3083,0.38869 -3.15531,-0.58719 -2.72447,-3.139 0.43692,-2.58785 -0.15727,-3.24459 -1.97298,-2.18074 -1.429,0.83729 -1.93036,0.77559 -1.11414,-0.13708 0.81622,-0.91268 -0.0716,-3.49827 -1.97298,-5.74579 -3.45646,-4.08572 -3.45607,-4.0858 2.46192,-0.43367 3.25541,2.009 -6.94327,-9.50861 -22.66374,-25.59466 -15.72047,-16.08603 -29.36875,-29.24734 -30.32951,-29.24734 -0.96076,0 -0.64157,1.35085 0.70931,3.00189 3.85137,4.70714 1.0517,3.51088 -3.14693,-1.34462 -2.42333,-2.80249 -2.70718,-3.76756 -0.79903,-2.7167 3.4091,1.87747 -14.34056,-17.64392 -21.66453,-23.82704 -2.69182,-2.27251 -5.6433,-3.88439 -6.55884,-3.58194 -0.91554,0.30243 -1.20275,-0.20813 -0.63824,-1.13462 0.56451,-0.9265 -11.99214,-14.68246 -27.90365,-30.56885 -15.91152,-15.88639 -26.73952,-26.24473 -24.06223,-23.01853 2.67729,3.22618 7.0874,8.03331 9.80025,10.6825 3.70552,3.61857 4.04811,4.52976 1.37726,3.66313 -2.49597,-0.80989 -3.10119,-0.41512 -2.03139,1.32506 0.83809,1.36326 1.63805,4.56412 1.77769,7.11301 0.24037,4.38743 10.96539,16.37892 14.64909,16.37892 0.94504,0 2.29361,1.83878 2.99682,4.08616 0.91436,2.9222 2.35727,3.73888 5.0654,2.86703 4.15579,-1.33791 5.28274,1.99802 1.32061,3.90917 -1.35642,0.65429 -0.39845,0.79504 2.12883,0.31279 3.54749,-0.6769 4.32378,-0.1597 3.40514,2.2685 -1.43887,3.80338 4.46178,10.99189 7.55408,9.20282 1.21139,-0.70086 1.50851,-0.50097 0.66026,0.44418 -1.71589,1.91191 32.00938,37.25498 34.22455,35.8663 0.76876,-0.48194 2.60815,0.63757 4.08753,2.48777 2.31472,2.89495 2.27712,3.11557 -0.26969,1.58226 -1.62771,-0.97998 -0.34831,1.0454 2.84311,4.50084 3.19142,3.45542 6.52082,5.83234 7.39867,5.28202 0.87785,-0.55033 1.59609,0.15876 1.59609,1.57573 0,3.05117 32.92727,35.21671 37.58606,36.71656 1.76809,0.56922 4.39472,3.27142 5.83697,6.00493 1.51576,2.87281 4.35479,4.95707 6.72808,4.93936 3.37386,-0.0252 3.57822,-0.3765 1.14634,-1.97063 z m -44.39202,-49.70055 -5.91894,-7.33545 5.91894,4.93766 c 3.25541,2.71571 8.58245,8.10091 11.83787,11.96711 l 5.91894,7.02942 -5.91894,-4.63163 c -3.25542,-2.5474 -8.58246,-7.9326 -11.83787,-11.96711 z m -4.55141,4.61918 c 0.60745,-0.61617 1.71066,0.49453 2.45158,2.46821 1.0707,2.8522 0.84408,3.08207 -1.10446,1.12031 -1.34837,-1.35754 -1.95458,-2.97235 -1.34712,-3.58852 z m -7.28647,-16.95779 c -1.96407,-2.20139 -3.12712,-4.00252 -2.58455,-4.00252 0.54257,0 2.59346,1.80113 4.55753,4.00252 1.96407,2.20139 3.12712,4.00253 2.58456,4.00253 -0.54257,0 -2.59346,-1.80114 -4.55754,-4.00253 z M 395.4608,405.44098 c 0,-2.57354 1.1421,-2.21211 3.98344,1.26056 2.08501,2.54831 1.96295,2.84115 -0.74491,1.78715 -1.78119,-0.6933 -3.23853,-2.06477 -3.23853,-3.04771 z m -57.57128,-49.8206 c -0.7125,-0.55209 -0.24693,-2.4583 1.03462,-4.23604 2.10769,-2.92376 2.60396,-2.93487 5.19974,-0.11627 2.53157,2.74891 2.47049,2.96067 -0.51841,1.79727 -1.86345,-0.72528 -3.38808,-0.44642 -3.38808,0.61971 0,1.06616 0.94024,1.93847 2.08942,1.93847 1.14917,0 1.48212,0.99671 0.73986,2.21492 -0.74225,1.2182 -1.91478,1.44335 -2.60561,0.50031 -0.69084,-0.94303 -1.83903,-2.16631 -2.55154,-2.71837 z m 137.62076,124.59538 c -3.17631,-3.56179 -6.20976,-6.03507 -6.74102,-5.49621 -0.53125,0.53886 -0.59597,1.2049 -0.14383,1.48007 0.45214,0.27518 3.4856,2.74846 6.74101,5.49621 l 5.91894,4.99588 -5.7751,-6.47595 z M 332.32547,350.62036 c 0,-1.65104 -0.85997,-3.0019 -1.91106,-3.0019 -1.05108,0 -1.40001,1.35086 -0.7754,3.0019 0.62461,1.65104 1.48459,3.00189 1.91106,3.00189 0.42647,0 0.7754,-1.35085 0.7754,-3.00189 z m -2.03498,-6.50411 c -0.0341,-0.82552 -2.47566,-3.24024 -5.42569,-5.36604 -5.3568,-3.86014 -5.35925,-3.85992 -1.90667,0.1625 1.90136,2.21514 2.86318,4.62984 2.13739,5.36605 -0.72579,0.7361 0.16011,1.33844 1.96867,1.33844 1.80857,0 3.2604,-0.67543 3.2263,-1.50095 z m -31.50566,-22.66466 c 0,-0.55035 -4.4392,-5.43577 -9.86489,-10.85649 -5.4257,-5.42073 -9.8649,-9.40558 -9.8649,-8.85523 0,0.55034 4.4392,5.43577 9.8649,10.85649 5.42569,5.42072 9.86489,9.40558 9.86489,8.85523 z m -40.44607,-49.88113 c 0.67066,-1.10069 0.27914,-2.00126 -0.87004,-2.00126 -1.14918,0 -2.08942,0.90057 -2.08942,2.00126 0,1.1007 0.39151,2.00127 0.87004,2.00127 0.47853,0 1.41877,-0.90057 2.08942,-2.00127 z m 6.90543,-0.0694 c 0,-0.5427 -12.19731,-13.13189 -27.10516,-27.97596 -14.90783,-14.84409 -22.89778,-22.45485 -17.75547,-16.91281 8.49648,9.15689 9.07949,10.38961 6.38888,13.50852 -2.72285,3.15625 -2.68771,3.18953 0.43712,0.41428 3.11062,-2.76262 4.86228,-1.53933 20.71628,14.46743 9.52508,9.61682 17.31835,17.04114 17.31835,16.49846 z m -10.97915,-3.72331 c 0.60037,-0.98534 -0.1898,-2.29035 -1.75607,-2.89997 -1.89953,-0.73937 -2.48237,-0.14289 -1.75055,1.79157 1.27178,3.36174 1.99447,3.59019 3.50662,1.1084 z m -37.35883,-30.22872 c -1.96408,-2.20139 -4.01498,-4.00253 -4.55754,-4.00253 -0.54257,0 0.62048,1.80114 2.58456,4.00253 1.96408,2.20139 4.01497,4.00252 4.55754,4.00252 0.54257,0 -0.62048,-1.80113 -2.58456,-4.00252 z m -10.85139,-11.00695 c -1.35088,-1.65104 -2.90006,-3.00189 -3.44263,-3.00189 -0.54257,0 0.11878,1.35085 1.46965,3.00189 1.35088,1.65104 2.90007,3.0019 3.44264,3.0019 0.54256,0 -0.11878,-1.35086 -1.46966,-3.0019 z m -4.93244,-21.01326 c -1.96408,-2.20139 -4.01498,-4.00253 -4.55755,-4.00253 -0.54256,0 0.62049,1.80114 2.58457,4.00253 1.96408,2.20139 4.01497,4.00252 4.55754,4.00252 0.54257,0 -0.62048,-1.80113 -2.58456,-4.00252 z m -25.10851,-9.16323 c -1.87316,-1.98371 -3.83042,-3.17597 -4.34947,-2.64947 -0.51905,0.5265 1.01352,2.14953 3.40574,3.60674 4.1557,2.53143 4.19775,2.48878 0.94373,-0.95727 z m -69.14233,-2.05219 c -0.6556,-0.665 -2.3573,-0.7361 -3.78155,-0.158 -1.57391,0.63886 -1.10641,1.11307 1.19201,1.2091 2.07984,0.0869 3.24514,-0.3861 2.58954,-1.0511 z m 57.73737,-10.48507 c 0.007,-1.47866 -13.30425,-16.11711 -29.58133,-32.52988 -16.27707,-16.41277 -29.59468,-30.88786 -29.59468,-32.16685 0,-1.279 0.66588,-1.63957 1.47973,-0.80128 0.81386,0.83829 10.78772,10.21922 22.16415,20.84649 11.37642,10.62728 26.69167,25.09862 34.03389,32.15855 7.3422,7.05992 13.34947,11.91623 13.34947,10.79178 0,-1.12444 -7.32468,-8.59729 -16.27708,-16.60633 -14.47545,-12.95011 -26.60548,-24.62938 -51.29745,-49.39116 -5.71988,-5.73606 -7.39867,-6.60386 -7.39867,-3.82452 0,2.37341 -1.00566,3.20362 -2.959465,2.44313 -1.627708,-0.63356 -2.959469,-0.25734 -2.959469,0.83606 0,1.09339 1.997641,2.76291 4.439204,3.71004 5.58341,2.16592 10.48188,7.62415 13.09221,14.5883 1.11223,2.96733 4.50345,6.99269 7.53601,8.94526 3.03255,1.95256 14.16418,12.58134 24.73694,23.6195 10.57276,11.03817 19.2292,18.85958 19.23654,17.38091 z m -43.39218,-22.3273 c 1.16149,-2.20139 1.6679,-4.00253 1.12533,-4.00253 -0.54257,0 -1.93681,1.80114 -3.09831,4.00253 -1.16149,2.20139 -1.66789,4.00252 -1.12533,4.00252 0.54257,0 1.93682,-1.80113 3.09831,-4.00252 z"
         id="path3067"
         inkscape:connector-curvature="0" />
    </g>
  </g>
</svg>
