<?xml version="1.0" encoding="UTF-8" standalone="no"?>
<svg
   xmlns:dc="http://purl.org/dc/elements/1.1/"
   xmlns:cc="http://creativecommons.org/ns#"
   xmlns:rdf="http://www.w3.org/1999/02/22-rdf-syntax-ns#"
   xmlns:svg="http://www.w3.org/2000/svg"
   xmlns="http://www.w3.org/2000/svg"
   xmlns:sodipodi="http://sodipodi.sourceforge.net/DTD/sodipodi-0.dtd"
   xmlns:inkscape="http://www.inkscape.org/namespaces/inkscape"
   viewBox="0 0 512 512"
   id="svg8438"
   version="1.1"
   inkscape:version="0.48.4 r9939"
   width="100%"
   height="100%"
   sodipodi:docname="hand axe.svg">
  <metadata
     id="metadata8464">
    <rdf:RDF>
      <cc:Work
         rdf:about="">
        <dc:format>image/svg+xml</dc:format>
        <dc:type
           rdf:resource="http://purl.org/dc/dcmitype/StillImage" />
        <dc:title></dc:title>
      </cc:Work>
    </rdf:RDF>
  </metadata>
  <defs
     id="defs8462">
    <linearGradient
       id="linearGradient4077">
      <stop
         id="stop4079"
         offset="0"
         style="stop-color:#aa4400;stop-opacity:1;" />
      <stop
         style="stop-color:#ff9f00;stop-opacity:1;"
         offset="0.22752622"
         id="stop4081" />
      <stop
         style="stop-color:#803300;stop-opacity:1;"
         offset="0.4948855"
         id="stop4083" />
      <stop
         id="stop4085"
         offset="1"
         style="stop-color:#562200;stop-opacity:1;" />
    </linearGradient>
    <linearGradient
       id="linearGradient4057">
      <stop
         style="stop-color:#aa4400;stop-opacity:1;"
         offset="0"
         id="stop4059" />
      <stop
         id="stop4067"
         offset="0.22752622"
         style="stop-color:#ecd1a4;stop-opacity:1;" />
      <stop
         id="stop4065"
         offset="0.50136983"
         style="stop-color:#803300;stop-opacity:1;" />
      <stop
         style="stop-color:#562200;stop-opacity:1;"
         offset="1"
         id="stop4061" />
    </linearGradient>
    <linearGradient
       id="linearGradient3890">
      <stop
         style="stop-color:#701b1b;stop-opacity:1;"
         offset="0"
         id="stop3892" />
      <stop
         style="stop-color:#e31600;stop-opacity:1;"
         offset="1"
         id="stop3894" />
    </linearGradient>
    <linearGradient
       id="linearGradient3882">
      <stop
         style="stop-color:#600b0b;stop-opacity:1;"
         offset="0"
         id="stop3884" />
      <stop
         style="stop-color:#d11414;stop-opacity:1;"
         offset="1"
         id="stop3886" />
    </linearGradient>
    <linearGradient
       id="linearGradient3872">
      <stop
         style="stop-color:#800600;stop-opacity:1;"
         offset="0"
         id="stop3874" />
      <stop
         style="stop-color:#ff0004;stop-opacity:0;"
         offset="1"
         id="stop3876" />
    </linearGradient>
  </defs>
  <sodipodi:namedview
     pagecolor="#000000"
     bordercolor="#666666"
     borderopacity="1"
     objecttolerance="10"
     gridtolerance="10"
     guidetolerance="10"
     inkscape:pageopacity="0"
     inkscape:pageshadow="2"
     inkscape:window-width="1190"
     inkscape:window-height="1126"
     id="namedview8460"
     showgrid="false"
     inkscape:zoom="0.70710678"
     inkscape:cx="204.49403"
     inkscape:cy="551.40418"
     inkscape:window-x="160"
     inkscape:window-y="130"
     inkscape:window-maximized="0"
     inkscape:current-layer="g8466" />
  <g
     id="g8466">
    <path
       inkscape:connector-curvature="0"
       d="M -13.466093,0.1885736 H 514.89024 V 516.42957 H -13.466093 z"
       id="path3978"
       style="fill:#000000" />
    <path
       sodipodi:type="arc"
       style="fill:#333333;fill-opacity:1;fill-rule:nonzero;stroke:none"
       id="path4121"
       sodipodi:cx="63.286057"
       sodipodi:cy="-74.545074"
       sodipodi:rx="39.244427"
       sodipodi:ry="23.688076"
       d="m 101.95774,-78.577314 a 39.244427,23.688076 0 0 1 9.3e-4,0.0033 l -38.672613,4.028989 z"
       sodipodi:start="6.11213"
       sodipodi:end="6.1122693"
       transform="matrix(0.92592215,0,0,1,-12.92858,0)" />
    <path
       sodipodi:type="arc"
       style="fill:#333333;fill-opacity:1;fill-rule:nonzero;stroke:none"
       id="path4123"
       sodipodi:cx="65.584152"
       sodipodi:cy="-52.359596"
       sodipodi:rx="10.606602"
       sodipodi:ry="11.755651"
       d="m 76.035958,-54.360671 a 10.606602,11.755651 0 0 1 2.51e-4,0.0016 l -10.452057,1.999461 z"
       sodipodi:start="6.11213"
       sodipodi:end="6.1122693"
       transform="matrix(0.92592215,0,0,1,-12.92858,0)" />
    <path
       sodipodi:type="arc"
       style="fill:#333333;fill-opacity:1;fill-rule:nonzero;stroke:none"
       id="path4125"
       sodipodi:cx="54.182056"
       sodipodi:cy="-54.392529"
       sodipodi:rx="15.46796"
       sodipodi:ry="16.793785"
       d="m 69.424272,-57.251206 a 15.46796,16.793785 0 0 1 3.67e-4,0.0023 l -15.242583,2.856372 z"
       sodipodi:start="6.11213"
       sodipodi:end="6.1122693"
       transform="matrix(0.92592215,0,0,1,-12.92858,0)" />
    <g
       id="g3021"
       transform="matrix(1.1519714,-0.26248347,0.27083402,1.116453,-94.825332,27.937454)">
      <path
         style="fill:#ad9594"
         d="m 333.60037,478.91245 c -2.22676,-1.29669 -3.50384,-4.29754 -11.24133,-26.41454 -3.46346,-9.9 -10.1102,-28.125 -14.77055,-40.5 -8.55675,-22.72143 -23.88595,-64.01904 -28.21033,-76 -1.29035,-3.575 -5.50265,-15.275 -9.36067,-26 -3.85801,-10.725 -10.89068,-29.4 -15.62815,-41.5 -4.73746,-12.1 -12.22368,-31.9 -16.63605,-44 -9.80887,-26.89883 -14.4945,-38.94374 -22.02158,-56.60884 -3.18929,-7.48487 -6.95633,-17.60355 -8.37119,-22.48597 -1.41487,-4.88241 -2.99719,-9.30181 -3.51626,-9.82089 -0.5917,-0.59169 -3.88116,-0.55595 -8.81768,0.0958 -16.23798,2.14384 -30.13566,11.69987 -36.4735,25.07915 -2.96012,6.24887 -3.19313,7.50697 -3.19313,17.24076 0,9.66806 0.26885,11.14618 3.39322,18.65559 5.11023,12.28244 3.87962,13.24227 -11.32794,8.83529 -15.26974,-4.425 -25.33121,-10.43405 -38.43089,-22.95223 -11.817798,-11.29321 -20.902975,-26.11844 -24.842838,-40.53865 -2.608282,-9.54652 -2.293665,-28.63769 0.6647,-40.33436 2.863266,-11.320674 7.941284,-22.43959 12.606514,-27.603441 4.576724,-5.065889 6.558024,-5.135831 8.843914,-0.312203 6.52254,13.76368 13.69886,21.782662 23.87301,26.676234 11.06827,5.32362 15.74878,6.02534 27.6107,4.13948 11.32483,-1.80047 19.22517,-5.00296 31.04244,-12.58342 9.33125,-5.985747 21.59521,-10.982294 26.9559,-10.982294 4.0638,0 6.05831,1.468435 9.16821,6.75 3.48637,5.920945 7.95485,4.055088 11.80589,-4.929661 1.10319,-2.573814 2.90577,-5.161314 4.00574,-5.75 3.04831,-1.631406 12.67948,-1.284585 25.58201,0.921213 12.78398,2.18553 15.55157,3.217003 15.54514,5.793632 -0.0109,4.343871 -13.81066,20.77762 -22.43563,26.71787 -5.37171,3.69964 -5.82231,3.83142 -8.85982,2.59109 -12.17076,-4.9698 -13.70027,-4.86247 -13.70027,0.96132 0,2.71158 -0.73534,4.63493 -2.5,6.53904 -1.375,1.48365 -2.5,2.96936 -2.5,3.30158 0,0.33222 2.20752,5.55401 4.90559,11.60398 2.69808,6.04996 5.84048,14.94098 6.98312,19.75782 2.52158,10.62981 7.09048,22.55888 32.07366,83.74212 6.99031,17.1191 28.31483,70.6606 40.02717,100.5 3.23823,8.25 11.36401,28.95 18.05729,46 25.28346,64.40537 29.95317,76.71902 29.95317,78.98413 0,5.07096 -17.09143,15.56115 -25.23013,15.48546 -1.79843,-0.0167 -4.06168,-0.4915 -5.02945,-1.05505 z M 140.82986,149.74791 c 5.33668,-12.95265 8.08516,-20.85187 7.5542,-21.71098 -0.35318,-0.57147 -1.5138,-1.03902 -2.57915,-1.03902 -2.3901,0 -13.17298,-3.6366 -18.07114,-6.09461 -1.9944,-1.00084 -3.88906,-1.55683 -4.21035,-1.23553 -0.3213,0.32129 0.073,2.15697 0.87618,4.07928 2.20438,5.27583 1.82654,6.79276 -2.55664,10.26431 -5.71813,4.52884 -6.53469,6.43487 -3.88983,9.07973 2.12994,2.12994 5.32018,2.24247 11.42486,0.40296 1.58309,-0.47703 2.7102,0.37387 5.2294,3.94788 3.60117,5.10902 4.87333,5.58047 6.22247,2.30598 z"
         id="path3031"
         inkscape:connector-curvature="0" />
      <path
         style="fill:#667293"
         d="m 336.08532,478.28895 c -3.2404,-0.62197 -4.38196,-2.84195 -10.69115,-20.79104 -3.09324,-8.8 -8.72526,-24.325 -12.51559,-34.5 -25.97202,-69.72095 -32.59142,-87.70596 -35.70096,-97 -4.99896,-14.94131 -11.95352,-33.5587 -21.28222,-56.97259 -4.44704,-11.16155 -12.54169,-32.49631 -17.9881,-47.41057 -5.44641,-14.91426 -12.91397,-34.31684 -16.59458,-43.11684 -3.68062,-8.8 -8.8502,-22.3 -11.48797,-30 l -4.79595,-14 -8.33442,0.22101 c -7.64899,0.20283 -9.08615,0.59259 -17.47483,4.73911 -15.79057,7.80528 -23.76141,18.5826 -25.2471,34.13646 -0.90937,9.52017 0.008,15.12736 4.01615,24.54624 4.17569,9.81271 3.61491,10.09159 -11.49526,5.71683 -26.43751,-7.65431 -50.480083,-30.54121 -59.453107,-56.59534 -2.954873,-8.57979 -4.43405,-20.29378 -3.672457,-29.08314 0.949056,-10.95284 4.735685,-25.739618 8.502188,-33.201017 3.409035,-6.753262 8.806236,-13.934713 10.489986,-13.957842 0.55,-0.0076 2.7454,3.386064 4.87867,7.541377 3.42689,6.675085 7.5689,12.733855 11.92013,17.436308 1.76959,1.912416 6.71145,4.711964 13.7012,7.761664 10.43214,4.55166 11.79146,4.62347 30.5,1.61126 2.2,-0.35422 7.6,-2.40434 12,-4.55583 8.57101,-4.191006 8.59456,-4.204591 18.11091,-10.447065 3.46276,-2.271484 7.98141,-4.446169 10.04144,-4.832633 2.06003,-0.386464 4.65612,-1.340477 5.76909,-2.120029 1.11296,-0.779552 3.645,-1.417367 5.62675,-1.417367 3.72741,0 5.7856,1.606188 9.29024,7.25 3.55691,5.727969 11.00542,2.2211 13.58753,-6.397205 1.70847,-5.702365 4.0396,-6.341833 17.99825,-4.937211 13.25641,1.333957 23.72655,3.731922 24.44266,5.598074 1.29429,3.372864 -14.79302,22.289766 -23.11144,27.176506 l -4.24456,2.49351 -4.25544,-2.03317 c -9.25624,-4.42245 -12.75543,-3.73123 -12.75543,2.51969 0,2.36915 -0.77085,4.1397 -2.5,5.74223 -3.39172,3.14333 -3.17366,5.32732 1.58768,15.90159 2.24822,4.99299 5.36414,14.0978 6.92425,20.23291 1.56012,6.1351 3.59075,12.90936 4.51251,15.05391 0.92177,2.14454 2.72274,6.82417 4.00216,10.39917 4.64622,12.98263 7.23023,19.59236 9.38323,24.00167 4.58331,9.38654 15.61129,37.64255 16.58659,42.49833 l 0.60256,3 -1.54179,-3.34649 c -2.06285,-4.47747 -5.70982,-8.65351 -7.55719,-8.65351 -0.96123,0 -1.61252,-1.16686 -1.81326,-3.24867 -0.29558,-3.06532 -3.53444,-6.23696 -4.93693,-4.83448 -1.15833,1.15834 5.59601,21.20548 13.84185,41.08315 0.45631,1.1 2.91645,7.4 5.46698,14 2.55052,6.6 5.94159,15.375 7.53571,19.5 1.59412,4.125 2.90003,8.03284 2.90202,8.68409 0.002,0.65124 1.07343,3.80124 2.38096,7 4.35913,10.66418 13.65587,35.76345 14.74778,39.81591 0.59277,2.2 2.15712,6.37584 3.47633,9.27964 1.31921,2.90379 2.39856,5.98609 2.39856,6.84955 0,0.86346 1.575,5.20435 3.5,9.64644 1.925,4.44209 3.5,8.68483 3.5,9.42832 0,5.02956 25.61133,74.93292 27.75553,75.75573 0.80848,0.31024 2.99506,-0.37849 4.85908,-1.53051 4.77057,-2.94838 6.47968,-1.86561 2.2035,1.39599 -3.37003,2.57045 -14.91141,7.8282 -16.54824,7.53866 -0.42343,-0.0749 -1.79346,-0.33265 -3.0445,-0.57278 z M 258.10548,208.41904 c 0.98029,-0.98028 -3.79068,-13.30806 -6.10285,-15.76926 -1.20006,-1.2774 -3.04418,-5.20915 -4.09805,-8.73721 -1.05386,-3.52806 -3.06277,-10.28224 -4.46424,-15.00929 -2.55988,-8.63431 -5.60384,-13.90537 -8.03013,-13.90537 -3.14932,0 0.61723,15.66874 5.02608,20.90836 1.30942,1.55615 3.03245,5.33138 3.82896,8.38938 0.79651,3.058 1.88656,6.37951 2.42234,7.38113 0.53578,1.00162 1.53508,4.67321 2.22066,8.15908 0.82078,4.17326 1.79387,6.50333 2.84911,6.82215 0.88142,0.26631 2.27759,0.87527 3.10259,1.35324 1.84655,1.06982 2.50125,1.15208 3.24553,0.40779 z m -115.1819,-61.06729 c 0.95919,-2.83039 2.43415,-6.65539 3.2777,-8.5 4.96003,-10.84632 4.99214,-12.82754 0.20867,-12.87357 -2.57577,-0.0248 -18.60102,-5.63129 -19.94895,-6.97923 -0.55058,-0.55057 -1.81105,-1.00104 -2.80105,-1.00104 -2.29577,0 -2.33493,2.81039 -0.10434,7.48799 l 1.69567,3.55584 -5.19567,4.95562 c -2.85761,2.72559 -5.19566,5.44531 -5.19566,6.04382 0,4.66541 6.14066,7.59408 12.14862,5.79405 2.12535,-0.63677 3.99207,-0.97316 4.14827,-0.74754 6.78081,9.79434 9.0658,10.234 11.76674,2.26406 z m 91.93637,3.20958 c 0,-0.72519 -0.675,-1.87874 -1.5,-2.56342 -1.26408,-1.0491 -1.5,-0.85865 -1.5,1.21088 0,1.35068 0.28777,2.74355 0.63948,3.09526 0.90297,0.90297 2.36052,-0.17311 2.36052,-1.74272 z m 123.8088,311.67511 c -0.93015,-2.05619 -3.51418,-9.36353 -5.74227,-16.23853 -2.2281,-6.875 -4.49673,-13.82033 -5.04142,-15.43406 -0.54468,-1.61373 -0.84219,-3.0822 -0.66112,-3.26326 0.40361,-0.40361 9.67717,21.01406 12.55004,28.98483 3.25614,9.03415 2.39268,13.68342 -1.10523,5.95102 z m -23.3088,-35.23853 c -0.33992,-0.55 -0.14148,-1 0.44098,-1 0.58246,0 1.05902,0.45 1.05902,1 0,0.55 -0.19844,1 -0.44098,1 -0.24254,0 -0.7191,-0.45 -1.05902,-1 z m 9.19743,-3.93506 c -0.93359,-1.58044 -1.69743,-3.55429 -1.69743,-4.38633 0,-2.08038 -3.46311,-9.98517 -5.14394,-11.74139 -1.41027,-1.47354 -3.62142,-8.09642 -4.48621,-13.43722 -0.90248,-5.57356 2.15583,-0.16138 5.53081,9.78769 1.71878,5.06677 3.74613,10.56231 4.50522,12.21231 3.92032,8.52142 4.75926,13.4353 1.29155,7.56494 z m -13.69743,-7.62396 c 0,-0.85746 0.45,-1.2809 1,-0.94098 0.55,0.33992 1,1.04148 1,1.55902 0,0.51754 -0.45,0.94098 -1,0.94098 -0.55,0 -1,-0.70156 -1,-1.55902 z m -0.58352,-29.04785 c -0.34683,-1.04122 -1.22292,-3.24313 -1.94686,-4.89313 -1.53735,-3.5039 -4.35324,-11.12629 -5.17193,-14 -0.39176,-1.37513 -0.2424,-1.68757 0.47806,-1 1.44337,1.37747 8.50749,20.55009 7.82362,21.23396 -0.30376,0.30376 -0.83606,-0.29961 -1.18289,-1.34083 z m -10.74981,-28.0598 c -0.36667,-0.36666 -0.65299,-1.37916 -0.63626,-2.25 0.025,-1.3003 0.22011,-1.2571 1.09166,0.24167 1.07678,1.85169 0.76461,3.22835 -0.4554,2.00833 z m -3.52835,-8.44464 c -0.5047,-1.31378 -2.81602,-6.88869 -5.13628,-12.38869 -2.32026,-5.5 -5.52894,-13.825 -7.1304,-18.5 -1.60146,-4.675 -3.33489,-9.4 -3.85206,-10.5 -4.65889,-9.90921 -10.79184,-24.43873 -13.0852,-31 -1.9565,-5.59753 -3.49268,-8.37096 -5.11531,-9.23526 -1.27549,-0.67939 -1.79939,-1.24189 -1.16423,-1.25 0.75531,-0.01 1.0122,-1.48509 0.74254,-4.26474 l -0.4123,-4.25 1.98123,4 c 1.08969,2.2 1.99304,4.68737 2.00747,5.52749 0.0144,0.84013 0.61023,2.41513 1.32402,3.5 0.71379,1.08488 2.9054,5.79751 4.87025,10.47251 8.98769,21.38458 10.83195,25.95016 10.83195,26.81522 0,0.50952 1.30681,4.02204 2.90402,7.80559 1.59721,3.78355 4.33126,10.70419 6.07566,15.37919 1.7444,4.675 4.09642,10.87867 5.22671,13.78594 1.13029,2.90726 1.78383,5.55717 1.45232,5.88869 -0.33152,0.33151 -1.01569,-0.47216 -1.52039,-1.78594 z"
         id="path3029"
         inkscape:connector-curvature="0" />
      <path
         style="fill:#976e63"
         d="m 336.08532,478.20601 c -3.22498,-0.50142 -4.36368,-2.70701 -10.69115,-20.7081 -3.09324,-8.8 -8.72526,-24.325 -12.51559,-34.5 -26.91188,-72.24396 -32.80347,-88.30987 -37.58815,-102.5 -2.96722,-8.8 -6.47195,-18.7 -7.7883,-22 -12.14567,-30.4484 -22.03982,-56.15232 -30.02436,-78 -11.94277,-32.67834 -12.39384,-33.84474 -20.10953,-52 -3.50611,-8.25 -7.62408,-19.20949 -9.15104,-24.35441 -3.21208,-10.82278 -4.28222,-11.67176 -13.2987,-10.55031 -13.31035,1.65552 -23.55587,7.45765 -35.80332,20.27578 -9.31723,9.75138 -11.78941,14.92804 -10.94541,22.91935 0.85687,8.11316 2.33971,13.10047 4.44119,14.93726 2.43691,2.12998 7.45352,13.02789 6.31967,13.72864 -1.64839,1.01877 -14.79628,-2.35781 -20.83661,-5.35116 -3.44626,-1.70783 -6.47503,-3.10515 -6.73059,-3.10515 -1.29621,0 -12.91229,-8.07275 -19.62455,-13.63834 -7.22014,-5.98672 -9.27549,-8.30931 -12.849283,-14.51992 -0.841307,-1.46204 -2.992858,-5.06204 -4.781222,-8 -6.180408,-10.15329 -10.248428,-24.7431 -10.248428,-36.75564 0,-11.05243 2.740894,-26.200195 5.9327,-32.787543 1.652651,-3.410791 3.278136,-7.290416 3.612189,-8.62139 0.750007,-2.988265 8.455114,-10.777016 8.455114,-8.5469 0,0.844891 -0.51693,4.110153 -1.14874,7.256136 -1.05887,5.272515 -0.981459,5.946219 0.98957,8.612179 1.19368,1.614541 1.86845,3.595427 1.52745,4.484057 -1.2358,3.220443 5.36576,8.265241 8.57103,6.549831 1.35347,-0.72435 2.13924,-0.71439 2.60115,0.033 0.36401,0.58899 1.30374,0.82456 2.08828,0.52351 0.78455,-0.30106 2.18904,0.34326 3.12109,1.43182 0.93206,1.08856 2.46808,1.97921 3.41339,1.97921 0.94531,0 1.99686,0.45 2.33678,1 0.33992,0.55 1.43403,1 2.43137,1 0.99734,0 5.19764,1.10474 9.334,2.45499 6.54286,2.1358 14.89014,3.1087 22.09766,2.57555 2.36016,-0.17459 2.7102,0.20132 2.89263,3.10642 0.17872,2.84614 1.40133,3.82735 4.79434,3.84772 1.4025,0.008 3.07525,0.54056 3.71721,1.18253 0.88963,0.88963 1.31938,0.77071 1.80699,-0.5 0.35188,-0.91697 0.38075,-2.34221 0.0642,-3.16721 -1.00119,-2.60906 2.32714,-1.66981 3.54358,1 0.6265,1.375 1.51685,2.5 1.97856,2.5 1.04403,0 1.09653,0.41873 -0.68312,-5.4481 -0.82553,-2.72145 -2.46171,-5.97076 -3.63595,-7.22068 -1.73099,-1.84256 -1.90285,-2.5523 -0.90822,-3.75076 1.41967,-1.7106 7.91637,-4.064205 8.79452,-3.18606 0.32656,0.32656 1.09521,-0.412103 1.70812,-1.641472 0.6129,-1.229369 2.00307,-2.389664 3.08926,-2.578434 1.08618,-0.188769 2.43525,-0.867756 2.99792,-1.508858 0.56267,-0.641102 1.91267,-1.734629 3,-2.430059 1.08733,-0.695431 3.32696,-2.156249 4.97696,-3.246262 1.65,-1.090014 4.20002,-1.983525 5.66671,-1.985581 2.77993,-0.0039 2.8548,0.11733 11.1147,17.996266 6.97097,15.08899 8.17004,16.94855 9.84721,15.27137 0.83817,-0.83816 -0.15974,-3.78489 -3.87754,-11.45 -5.58514,-11.515052 -9.72929,-23.2386 -8.76571,-24.797696 0.34796,-0.563023 2.11384,-1.023678 3.92417,-1.023678 2.86872,0 3.69075,0.642241 6.39968,5 2.78094,4.4736 3.481,5 6.64948,5 4.24127,0 6.94508,-2.397916 9.68305,-8.587549 2.66465,-6.023881 4.51384,-6.801346 13.73912,-5.776397 l 7.61913,0.846502 -8.47053,0.508722 -8.47053,0.508722 -1.35298,4.804475 c -1.10537,3.925208 -2.25458,5.452207 -6.27947,8.343805 -5.19716,3.733791 -5.52929,4.356865 -3.92262,7.358954 0.87818,1.6409 1.84852,1.80745 7.75,1.33023 6.10932,-0.49403 7.10431,-0.29971 10.54054,2.05851 2.08692,1.43221 4.09237,2.60403 4.45656,2.60403 1.35626,0 12.918,-8.460679 17.62916,-12.90072 5.63406,-5.309823 5.03007,-3.497987 -1.41066,4.231675 -4.86957,5.844075 -14.4055,13.669045 -16.65785,13.669045 -0.77602,0 -2.63202,-0.63145 -4.12445,-1.40322 -1.49244,-0.77176 -4.89484,-1.73032 -7.56091,-2.13012 -5.49413,-0.8239 -6.58569,0.0229 -6.61095,5.12835 -0.009,1.80954 -0.84598,3.84676 -2.01531,4.90499 -2.97111,2.68881 -2.4756,6.6796 2.08768,16.81401 2.24822,4.99299 5.36414,14.0978 6.92425,20.23291 1.56012,6.1351 3.59075,12.90936 4.51251,15.05391 0.92177,2.14454 2.72274,6.82417 4.00216,10.39917 4.64622,12.98263 7.23023,19.59236 9.38323,24.00167 4.58331,9.38654 15.61129,37.64255 16.58659,42.49833 l 0.60256,3 -1.54179,-3.34649 c -2.06285,-4.47747 -5.70982,-8.65351 -7.55719,-8.65351 -0.96123,0 -1.61252,-1.16686 -1.81326,-3.24867 -0.29558,-3.06532 -3.53444,-6.23696 -4.93693,-4.83448 -1.15833,1.15834 5.59601,21.20548 13.84185,41.08315 0.45631,1.1 2.91645,7.4 5.46698,14 2.55052,6.6 5.94159,15.375 7.53571,19.5 1.59412,4.125 2.90003,8.03284 2.90202,8.68409 0.002,0.65124 1.07343,3.80124 2.38096,7 4.35913,10.66418 13.65587,35.76345 14.74778,39.81591 0.59277,2.2 2.15712,6.37584 3.47633,9.27964 1.31921,2.90379 2.39856,5.98609 2.39856,6.84955 0,0.86346 1.575,5.20435 3.5,9.64644 1.925,4.44209 3.5,8.68483 3.5,9.42832 0,5.02956 25.61133,74.93292 27.75553,75.75573 0.80848,0.31024 2.93484,-0.34127 4.72525,-1.4478 4.30244,-2.65906 6.4186,-2.66316 4.01552,-0.008 -3.80097,4.20002 -16.21889,8.9895 -21.27093,8.20401 z M 258.10548,208.41904 c 0.98029,-0.98028 -3.79068,-13.30806 -6.10285,-15.76926 -1.20006,-1.2774 -3.04418,-5.20915 -4.09805,-8.73721 -1.05386,-3.52806 -3.06277,-10.28224 -4.46424,-15.00929 -2.55988,-8.63431 -5.60384,-13.90537 -8.03013,-13.90537 -3.14932,0 0.61723,15.66874 5.02608,20.90836 1.30942,1.55615 3.03245,5.33138 3.82896,8.38938 0.79651,3.058 1.88656,6.37951 2.42234,7.38113 0.53578,1.00162 1.53508,4.67321 2.22066,8.15908 0.82078,4.17326 1.79387,6.50333 2.84911,6.82215 0.88142,0.26631 2.27759,0.87527 3.10259,1.35324 1.84655,1.06982 2.50125,1.15208 3.24553,0.40779 z M 141.85995,159.06529 c 0,-0.51293 -0.84066,-1.19942 -1.86812,-1.52553 -1.02746,-0.3261 -2.61851,-1.42209 -3.53566,-2.43553 -1.58306,-1.74926 -1.53879,-1.818 0.87386,-1.35679 3.19849,0.61142 5.12028,-0.95136 5.88755,-4.78769 0.32926,-1.64632 1.689,-5.34873 3.02165,-8.22757 4.12757,-8.91661 4.93104,-12.2458 3.27582,-13.57331 -0.63531,-0.50953 -5.2051,-2.13352 -10.1551,-3.60886 -9.44574,-2.81531 -11.23398,-3.53177 -15.80646,-6.33287 -2.68679,-1.64593 -2.868,-1.63647 -4.25,0.2219 -2.04234,2.74633 -1.80573,4.25717 1.05646,6.74582 3.51365,3.05507 3.18309,6.05465 -1.02058,9.26094 -1.93631,1.4769 -4.24112,3.78498 -5.1218,5.12905 -1.5057,2.298 -1.46109,2.64829 0.74777,5.87191 1.65794,2.41961 3.54731,3.72987 6.42228,4.4538 2.24032,0.56411 6.02407,2.50429 8.40835,4.31151 8.74044,6.62499 12.06398,8.23751 12.06398,5.85322 z m 93,-8.50396 c 0,-0.72519 -0.675,-1.87874 -1.5,-2.56342 -1.26408,-1.0491 -1.5,-0.85865 -1.5,1.21088 0,1.35068 0.28777,2.74355 0.63948,3.09526 0.90297,0.90297 2.36052,-0.17311 2.36052,-1.74272 z m -128,-31.31705 c 0,-0.72003 -0.7875,-1.59943 -1.75,-1.95422 -0.9625,-0.35479 -3.55,-2.08578 -5.750003,-3.84663 -5.010899,-4.01067 -8.5,-5.23454 -8.5,-2.98153 0,0.87933 0.675,1.8578 1.5,2.17438 0.825,0.31658 1.5,1.22902 1.5,2.02763 0,0.83265 -0.533202,1.18194 -1.25,0.81886 -0.6875,-0.34825 -0.376492,0.0752 0.69113,0.94098 1.067621,0.86579 2.305121,1.57416 2.75,1.57416 0.444878,0 0.80887,0.9 0.80887,2 0,2.21292 3.952213,2.9424 4.063383,0.75 0.0349,-0.6875 0.47262,-0.23142 0.97278,1.01352 0.87196,2.17034 0.99284,2.19207 2.93662,0.52776 1.11497,-0.95467 2.02722,-2.32488 2.02722,-3.04491 z m 82.01929,-3.35061 c -1.11238,-2.41767 -1.7367,-3.27076 -1.38737,-1.89576 1.07073,4.21452 2.39855,7.30286 2.91696,6.78445 0.27111,-0.27111 -0.41721,-2.47102 -1.52959,-4.88869 z m -88.4192,-8.05772 c 0.40729,-0.65901 -0.27243,-1.96405 -1.570371,-3.01506 -1.753595,-1.41998 -2.608854,-1.58724 -3.659109,-0.7156 -2.065519,1.71423 -1.648439,3.7 0.879387,4.18688 1.2375,0.23836 2.560942,0.49465 2.940983,0.56955 0.380041,0.0749 1.01414,-0.38669 1.40911,-1.02577 z m 0.39991,-7.7156 c 0,-1.260516 -2.935478,-3.520302 -3.647708,-2.808073 -1.024057,1.024057 0.504241,3.685633 2.11632,3.685633 0.842258,0 1.531388,-0.3949 1.531388,-0.87756 z m 257.8088,362.11609 c -0.93015,-2.05619 -3.51418,-9.36353 -5.74227,-16.23853 -2.2281,-6.875 -4.49673,-13.82033 -5.04142,-15.43406 -0.54468,-1.61373 -0.84219,-3.0822 -0.66112,-3.26326 0.40361,-0.40361 9.67717,21.01406 12.55004,28.98483 3.25614,9.03415 2.39268,13.68342 -1.10523,5.95102 z m -23.3088,-35.23853 c -0.33992,-0.55 -0.14148,-1 0.44098,-1 0.58246,0 1.05902,0.45 1.05902,1 0,0.55 -0.19844,1 -0.44098,1 -0.24254,0 -0.7191,-0.45 -1.05902,-1 z m 9.19743,-3.93506 c -0.93359,-1.58044 -1.69743,-3.55429 -1.69743,-4.38633 0,-2.08038 -3.46311,-9.98517 -5.14394,-11.74139 -1.41027,-1.47354 -3.62142,-8.09642 -4.48621,-13.43722 -0.90248,-5.57356 2.15583,-0.16138 5.53081,9.78769 1.71878,5.06677 3.74613,10.56231 4.50522,12.21231 3.92032,8.52142 4.75926,13.4353 1.29155,7.56494 z m -13.69743,-7.62396 c 0,-0.85746 0.45,-1.2809 1,-0.94098 0.55,0.33992 1,1.04148 1,1.55902 0,0.51754 -0.45,0.94098 -1,0.94098 -0.55,0 -1,-0.70156 -1,-1.55902 z m -0.58352,-29.04785 c -0.34683,-1.04122 -1.22292,-3.24313 -1.94686,-4.89313 -1.53735,-3.5039 -4.35324,-11.12629 -5.17193,-14 -0.39176,-1.37513 -0.2424,-1.68757 0.47806,-1 1.44337,1.37747 8.50749,20.55009 7.82362,21.23396 -0.30376,0.30376 -0.83606,-0.29961 -1.18289,-1.34083 z m -10.74981,-28.0598 c -0.36667,-0.36666 -0.65299,-1.37916 -0.63626,-2.25 0.025,-1.3003 0.22011,-1.2571 1.09166,0.24167 1.07678,1.85169 0.76461,3.22835 -0.4554,2.00833 z m -3.52835,-8.44464 c -0.5047,-1.31378 -2.81602,-6.88869 -5.13628,-12.38869 -2.32026,-5.5 -5.52894,-13.825 -7.1304,-18.5 -1.60146,-4.675 -3.33489,-9.4 -3.85206,-10.5 -4.65889,-9.90921 -10.79184,-24.43873 -13.0852,-31 -1.9565,-5.59753 -3.49268,-8.37096 -5.11531,-9.23526 -1.27549,-0.67939 -1.79939,-1.24189 -1.16423,-1.25 0.75531,-0.01 1.0122,-1.48509 0.74254,-4.26474 l -0.4123,-4.25 1.98123,4 c 1.08969,2.2 1.99304,4.68737 2.00747,5.52749 0.0144,0.84013 0.61023,2.41513 1.32402,3.5 0.71379,1.08488 2.9054,5.79751 4.87025,10.47251 8.98769,21.38458 10.83195,25.95016 10.83195,26.81522 0,0.50952 1.30681,4.02204 2.90402,7.80559 1.59721,3.78355 4.33126,10.70419 6.07566,15.37919 1.7444,4.675 4.09642,10.87867 5.22671,13.78594 1.13029,2.90726 1.78383,5.55717 1.45232,5.88869 -0.33152,0.33151 -1.01569,-0.47216 -1.52039,-1.78594 z"
         id="path3027"
         inkscape:connector-curvature="0" />
      <path
         style="fill:#542e2a"
         d="m 332.26088,473.80633 c -0.90774,-1.75537 -2.00383,-4.34287 -2.43576,-5.75 -2.77791,-9.04986 -20.20857,-56.9285 -25.5054,-70.05842 -0.77658,-1.925 -4.38765,-11.6 -8.0246,-21.5 -3.63695,-9.9 -8.19863,-22.275 -10.13706,-27.5 -1.93844,-5.225 -5.53155,-15.575 -7.98471,-23 -5.20445,-15.7524 -10.56274,-30.0856 -19.8134,-53 -7.56402,-18.73651 -12.42511,-31.5218 -22.05215,-58 -3.69947,-10.175 -10.28628,-27.20791 -14.63736,-37.85092 -4.35109,-10.643 -9.66835,-24.55403 -11.81615,-30.9134 -2.1478,-6.35937 -4.48767,-11.95922 -5.19971,-12.44411 -1.87703,-1.27824 -13.96194,0.0297 -20.24364,2.19088 -8.39364,2.88784 -16.31577,8.49019 -25.29576,17.88861 -9.31723,9.75138 -11.78941,14.92804 -10.94541,22.91935 0.85687,8.11316 2.33971,13.10047 4.44119,14.93726 2.49656,2.18212 7.44081,13.03574 6.26838,13.76035 -2.59856,1.60599 -23.64608,-5.75522 -32.51939,-11.37341 -19.36039,-12.25816 -34.805795,-32.28106 -40.200535,-52.11461 -2.580237,-9.48615 -2.36785,-28.75475 0.440899,-40 2.701721,-10.816758 8.142297,-22.657416 12.147384,-26.437095 3.543462,-3.344032 3.707132,-2.858604 1.963512,5.823498 -1.05887,5.272515 -0.981459,5.946219 0.98957,8.612179 1.19368,1.614541 1.86845,3.595427 1.52745,4.484057 -1.2358,3.220443 5.36576,8.265241 8.57103,6.549831 1.35347,-0.72435 2.13924,-0.71439 2.60115,0.033 0.36401,0.58899 1.30374,0.82456 2.08828,0.52351 0.78455,-0.30106 2.18904,0.34326 3.12109,1.43182 0.93206,1.08856 2.46808,1.97921 3.41339,1.97921 0.94531,0 1.99686,0.45 2.33678,1 0.33992,0.55 1.43403,1 2.43137,1 0.99734,0 5.19764,1.10474 9.334,2.45499 6.54286,2.1358 14.89014,3.1087 22.09766,2.57555 2.36016,-0.17459 2.7102,0.20132 2.89263,3.10642 0.17872,2.84614 1.40133,3.82735 4.79434,3.84772 1.4025,0.008 3.07525,0.54056 3.71721,1.18253 0.88963,0.88963 1.31938,0.77071 1.80699,-0.5 0.35188,-0.91697 0.38075,-2.34221 0.0642,-3.16721 -1.00119,-2.60906 2.32714,-1.66981 3.54358,1 0.6265,1.375 1.51685,2.5 1.97856,2.5 1.04403,0 1.09653,0.41873 -0.68312,-5.4481 -0.82553,-2.72145 -2.46171,-5.97076 -3.63595,-7.22068 -1.73099,-1.84256 -1.90285,-2.5523 -0.90822,-3.75076 1.41967,-1.7106 7.91637,-4.064205 8.79452,-3.18606 0.32656,0.32656 1.09521,-0.412103 1.70812,-1.641472 0.6129,-1.229369 2.00307,-2.389664 3.08926,-2.578434 1.08618,-0.188769 2.43525,-0.867756 2.99792,-1.508858 0.56267,-0.641102 1.91267,-1.734629 3,-2.430059 1.08733,-0.695431 3.32696,-2.156249 4.97696,-3.246262 1.65,-1.090014 4.20002,-1.983525 5.66671,-1.985581 2.77993,-0.0039 2.8548,0.11733 11.1147,17.996266 6.97097,15.08899 8.17004,16.94855 9.84721,15.27137 0.83817,-0.83816 -0.15974,-3.78489 -3.87754,-11.45 -5.58514,-11.515052 -9.72929,-23.2386 -8.76571,-24.797696 0.34796,-0.563023 2.11384,-1.023678 3.92417,-1.023678 2.86872,0 3.69075,0.642241 6.39968,5 2.78094,4.4736 3.481,5 6.64948,5 4.24127,0 6.94508,-2.397916 9.68305,-8.587549 2.66465,-6.023881 4.51384,-6.801346 13.73912,-5.776397 l 7.61913,0.846502 -8.47053,0.508722 -8.47053,0.508722 -1.35298,4.804475 c -1.10537,3.925208 -2.25458,5.452207 -6.27947,8.343805 -5.19716,3.733791 -5.52929,4.356865 -3.92262,7.358954 0.87818,1.6409 1.84852,1.80745 7.75,1.33023 6.10932,-0.49403 7.10431,-0.29971 10.54054,2.05851 2.08692,1.43221 4.09237,2.60403 4.45656,2.60403 1.35626,0 12.918,-8.460679 17.62916,-12.90072 5.63406,-5.309823 5.03007,-3.497987 -1.41066,4.231675 -4.8603,5.832955 -14.40416,13.669045 -16.64803,13.669045 -0.77061,0 -3.16526,-0.9 -5.32144,-2 -4.81066,-2.45422 -11.52478,-2.68079 -12.39301,-0.41822 -0.33385,0.86999 -0.60699,2.86233 -0.60699,4.42742 0,1.84428 -0.87973,3.53763 -2.5,4.81214 -1.375,1.08157 -2.50689,2.57673 -2.51531,3.32258 -0.008,0.74584 -0.40182,1.96604 -0.87421,2.71155 -0.70863,1.11834 -1.3097,1.0601 -3.43572,-0.33293 -4.98434,-3.26586 -9.41643,1.35949 -6.80168,7.09825 0.61981,1.36032 1.12692,3.1851 1.12692,4.05506 0,0.86996 1.575,3.32508 3.5,5.45583 1.925,2.13074 3.5,4.56061 3.5,5.39971 0,0.8391 1.32446,4.14938 2.94324,7.35617 1.67488,3.31791 2.71769,6.69305 2.41984,7.83201 -0.70875,2.71027 1.4977,9.7753 7.47208,23.92557 2.75288,6.52017 6.16373,16.23124 7.57966,21.58015 1.41593,5.34891 4.09732,13.44891 5.95865,18 1.86132,4.55109 3.94475,10.02618 4.62984,12.16686 0.68509,2.14068 2.71221,6.86568 4.50472,10.5 4.65287,9.43376 13.99324,33.4558 15.98375,41.10785 0.92995,3.575 2.51113,8.075 3.51372,10 1.0026,1.925 4.07761,9.575 6.83337,17 2.75576,7.425 6.2109,16.425 7.67808,20 1.46719,3.575 4.22498,11 6.12843,16.5 1.90345,5.5 5.92648,16.41223 8.94007,24.24941 3.01359,7.83717 6.41713,17.28717 7.56342,21 2.41005,7.80609 19.21105,54.70048 25.1227,70.12163 l 2.05897,5.37103 -2.41527,1.85673 c -1.33861,1.02905 -4.07546,1.86664 -6.13959,1.87896 -3.18654,0.019 -3.96264,-0.43862 -5.37475,-3.16934 z M 141.85995,159.06529 c 0,-0.51293 -0.84066,-1.19942 -1.86812,-1.52553 -1.02746,-0.3261 -2.61851,-1.42209 -3.53566,-2.43553 -1.58306,-1.74926 -1.53879,-1.818 0.87386,-1.35679 3.13192,0.5987 5.11747,-0.93979 5.83598,-4.52196 0.3009,-1.50017 1.55708,-4.97757 2.79151,-7.72757 6.41557,-14.29227 6.38898,-15.0496 -0.57906,-16.49616 -5.52816,-1.14764 -13.7788,-4.15139 -20.86341,-7.59558 -3.76938,-1.83249 -3.87249,-1.83146 -5.25,0.0524 -2.00101,2.73656 -1.75492,4.24841 1.0949,6.72629 3.51365,3.05508 3.18309,6.05465 -1.02058,9.26095 -1.93631,1.4769 -4.24112,3.78497 -5.1218,5.12905 -1.5057,2.29799 -1.46109,2.64828 0.74777,5.87191 1.65794,2.4196 3.54731,3.72987 6.42228,4.45379 2.24032,0.56412 6.02407,2.5043 8.40835,4.31151 8.74044,6.62499 12.06398,8.23751 12.06398,5.85322 z m -35,-39.82101 c 0,-0.72003 -0.7875,-1.59943 -1.75,-1.95422 -0.9625,-0.35479 -3.55,-2.08578 -5.750003,-3.84663 -5.010899,-4.01067 -8.5,-5.23454 -8.5,-2.98153 0,0.87933 0.675,1.8578 1.5,2.17438 0.825,0.31658 1.5,1.22902 1.5,2.02763 0,0.83265 -0.533202,1.18194 -1.25,0.81886 -0.6875,-0.34825 -0.376492,0.0752 0.69113,0.94098 1.067621,0.86579 2.305121,1.57416 2.75,1.57416 0.444878,0 0.80887,0.9 0.80887,2 0,2.21292 3.952213,2.9424 4.063383,0.75 0.0349,-0.6875 0.47262,-0.23142 0.97278,1.01352 0.87196,2.17034 0.99284,2.19207 2.93662,0.52776 1.11497,-0.95467 2.02722,-2.32488 2.02722,-3.04491 z m 82.01929,-3.35061 c -1.11238,-2.41767 -1.7367,-3.27076 -1.38737,-1.89576 1.07073,4.21452 2.39855,7.30286 2.91696,6.78445 0.27111,-0.27111 -0.41721,-2.47102 -1.52959,-4.88869 z m -88.4192,-8.05772 c 0.40729,-0.65901 -0.27243,-1.96405 -1.570371,-3.01506 -1.753595,-1.41998 -2.608854,-1.58724 -3.659109,-0.7156 -2.065519,1.71423 -1.648439,3.7 0.879387,4.18688 1.2375,0.23836 2.560942,0.49465 2.940983,0.56955 0.380041,0.0749 1.01414,-0.38669 1.40911,-1.02577 z m 0.39991,-7.7156 c 0,-1.260516 -2.935478,-3.520302 -3.647708,-2.808073 -1.024057,1.024057 0.504241,3.685633 2.11632,3.685633 0.842258,0 1.531388,-0.3949 1.531388,-0.87756 z"
         id="path3025"
         inkscape:connector-curvature="0" />
      <path
         style="fill:#191621"
         d="m 335.52662,461.33124 c -0.36667,-0.36666 -0.66667,-1.99676 -0.66667,-3.62244 0,-2.51398 0.22421,-2.7697 1.5,-1.71089 0.825,0.68469 1.5,2.31479 1.5,3.62244 0,2.32081 -0.99433,3.04989 -2.33333,1.71089 z m -3.63149,-11.26759 c -1.26581,-2.3652 -1.35135,-4.37918 -0.15458,-3.63953 0.8332,0.51495 2.20907,5.57379 1.51591,5.57379 -0.17938,0 -0.79198,-0.87042 -1.36133,-1.93426 z m -4.74921,-12.31574 c -0.57859,-1.2375 -2.47176,-6.75 -4.20704,-12.25 -1.73528,-5.5 -3.5801,-11.32033 -4.0996,-12.93406 -0.5195,-1.61373 -0.79246,-3.08614 -0.60658,-3.27203 0.29132,-0.29131 5.38832,11.26702 7.58756,17.20609 3.86028,10.42472 4.61777,13.5 3.32525,13.5 -0.52118,0 -1.42099,-1.0125 -1.99959,-2.25 z M 308.9389,407.3297 c -0.0434,-0.64252 -0.33793,-1.99252 -0.65446,-3 -0.54705,-1.74122 -0.51883,-1.7434 0.57078,-0.0441 0.63045,0.98322 0.92496,2.33322 0.65445,3 -0.35498,0.87499 -0.51379,0.88727 -0.57077,0.0441 z m -4.61741,-12.79333 c -0.96266,-2.52068 -1.51093,-4.82241 -1.21838,-5.11495 0.29255,-0.29255 1.2562,1.5938 2.14146,4.19187 2.09206,6.13987 1.3519,6.88003 -0.92308,0.92308 z m -10.84616,-29.15384 c -2.09076,-6.13605 -1.42741,-6.7994 0.84616,-0.84616 0.96265,2.52068 1.52823,4.8051 1.25684,5.07649 -0.27139,0.2714 -1.21774,-1.63226 -2.103,-4.23033 z M 245.02759,235.04896 c -0.58498,-1.67808 -0.85087,-3.05105 -0.59087,-3.05105 0.6751,0 2.56204,5.19452 2.06683,5.68973 -0.2268,0.2268 -0.89098,-0.96061 -1.47596,-2.63868 z m -7.5441,-20.58971 c -0.96498,-2.51469 -0.68031,-3.16355 0.49853,-1.13634 0.58369,1.00375 0.8506,2.03566 0.59313,2.29313 -0.25747,0.25747 -0.74872,-0.26309 -1.09166,-1.15679 z m -3.54459,-9.12955 c -0.0434,-0.64252 -0.33793,-1.99252 -0.65446,-3 -0.54705,-1.74122 -0.51883,-1.7434 0.57078,-0.0441 0.63045,0.98322 0.92496,2.33322 0.65445,3 -0.35498,0.87499 -0.51379,0.88727 -0.57077,0.0441 z m -83.19459,-1.8614 c -6.91743,-1.67896 -21.11181,-8.15476 -27.48356,-12.53864 -7.19459,-4.95001 -18.87296,-16.43807 -23.966305,-23.57575 -10.198098,-14.29136 -13.869235,-26.13169 -13.907755,-44.856 -0.02169,-10.54116 0.421697,-14.70228 2.344173,-22 3.227811,-12.252772 9.777845,-25.184576 11.754797,-23.207625 0.62372,0.62372 -2.227194,10.509092 -5.106829,17.707621 -4.672783,11.681054 -5.184258,14.200564 -4.066683,20.032334 0.999936,5.21791 1.273637,5.57956 5.991784,7.91725 l 4.943988,2.44959 -2.943988,1.21075 c -1.619192,0.66592 -3.791939,2.66038 -4.828326,4.43213 l -1.884341,3.22137 3.884341,3.81923 c 2.136387,2.10058 4.446841,3.8413 5.134344,3.86829 1.45653,0.0572 1.73013,-5.53617 0.31363,-6.41162 -1.817704,-1.1234 -0.66434,-4.60144 1.72474,-5.20106 1.29661,-0.32543 2.78843,-1.72517 3.31515,-3.11055 l 0.95767,-2.51886 2.28385,2.14557 c 2.51267,2.36054 4.18823,2.70977 5.1939,1.08256 0.87947,-1.42301 -2.39994,-4.93698 -4.60745,-4.93698 -1.42859,0 -1.62164,-0.51595 -1.02895,-2.75 0.5335,-2.01089 1.45549,-2.83549 3.43048,-3.06806 3.23651,-0.38114 2.55511,-2.18194 -0.82562,-2.18194 -1.84592,0 -2.445,-0.61116 -2.69098,-2.74526 -0.24968,-2.16623 -0.94918,-2.85618 -3.31642,-3.2712 -3.48045,-0.61018 -2.53977,-1.44319 2.69599,-2.38739 3.07272,-0.55412 3.8763,-0.32959 4.76525,1.33143 1.07719,2.01275 2.22186,1.99307 6.65258,-0.11436 1.54335,-0.73408 2.89759,-0.60012 5.01796,0.49636 1.59727,0.82598 4.02424,1.28767 5.39327,1.02596 1.62688,-0.311 3.80791,0.41912 6.29614,2.10768 4.27666,2.90221 10.18713,5.55678 12.37236,5.55678 0.79712,0 2.1243,0.675 2.9493,1.5 0.84804,0.84803 3.31619,1.50665 5.67858,1.51531 5.58278,0.0205 7.22409,1.09684 5.78181,3.79177 -1.62318,3.03294 -1.36525,4.0166 1.14676,4.37336 1.611,0.2288 2.33986,1.10055 2.56642,3.06956 0.33934,2.94919 1.13107,3.40251 2.88291,1.65066 1.53185,-1.53184 4.82496,-0.27562 6.67361,2.54577 1.34854,2.05814 1.36027,2.44197 0.0895,2.92962 -0.8741,0.33542 -1.4624,-0.0296 -1.4624,-0.90744 0,-1.72883 -1.58509,-1.94897 -2.5691,-0.35681 -0.37792,0.61149 -0.0796,1.48728 0.66296,1.9462 1.05161,0.64994 0.91413,0.99277 -0.62189,1.55077 -1.95108,0.70877 -3.51636,1.91404 -7.77803,5.98911 -1.20667,1.15384 -3.23034,2.64497 -4.49705,3.31361 -2.08692,1.1016 -7.5972,8.48602 -11.04567,14.80247 -0.74182,1.35878 -1.71414,4.7915 -2.16072,7.62827 -0.44657,2.83678 -1.1134,6.1083 -1.48184,7.27006 -0.50108,1.57998 -0.18324,2.23955 1.26125,2.61729 1.38768,0.36289 2.08856,1.67858 2.49048,4.67515 0.30764,2.29358 1.6582,5.6158 3.00126,7.38271 2.39124,3.14589 5.73835,9.07378 5.73835,10.1629 0,0.70586 -0.39279,0.65177 -7.11564,-0.97995 z m -6.33891,-43.92494 c 3.59771,-3.59771 3.18431,-4.90109 -1.29545,-4.08434 -3.20823,0.58493 -3.51359,0.49265 -2.11365,-0.63871 0.89999,-0.72732 2.64568,-4.4724 3.87929,-8.3224 1.23361,-3.85 2.79133,-7.675 3.46159,-8.5 1.59307,-1.96086 3.98699,-10.86911 3.14669,-11.70942 -0.35863,-0.35863 -3.86814,-1.46879 -7.79889,-2.46701 -8.97829,-2.28007 -20.63322,-7.59665 -21.91868,-9.99856 -1.40315,-2.62182 -5.30693,-2.46481 -4.61384,0.18556 0.28918,1.10581 0.0312,3.32082 -0.57325,4.92224 -0.96553,2.55797 -0.7469,3.4198 1.79978,7.09467 l 2.89882,4.18299 -3.45893,2.90966 c -2.36799,1.99196 -4.16858,2.74726 -5.70893,2.39476 -1.2375,-0.28319 -3.42391,-0.8017 -4.8587,-1.15225 -2.41439,-0.58988 -2.52349,-0.47816 -1.46481,1.5 0.62913,1.17555 2.02804,2.13736 3.10869,2.13736 1.48528,0 1.96482,0.68338 1.96482,2.8 0,1.54 0.54,3.34 1.2,4 0.93333,0.93333 0.70413,1.2 -1.03139,1.2 -2.65036,0 -4.0511,2.80633 -2.06433,4.1358 0.76764,0.51368 3.05606,0.69228 5.08536,0.39691 2.02931,-0.29538 3.96938,-0.0844 4.31129,0.46879 0.3419,0.55321 1.72234,0.72958 3.06764,0.39193 2.62892,-0.65982 5.96762,1.03856 10.7048,5.4455 2.52104,2.34529 7.01352,4.87477 9.02208,5.07985 0.4375,0.0447 1.9,-1.02333 3.25,-2.37333 z m 14.45455,-17.71671 c 0,-0.6442 -0.73711,-1.98576 -1.63802,-2.98125 -1.33537,-1.47557 -1.40513,-2.09058 -0.37755,-3.32874 0.69325,-0.83531 1.88036,-1.51875 2.63801,-1.51875 0.75766,0 1.37756,-0.675 1.37756,-1.5 0,-2.63659 -2.81272,-1.6121 -5.59736,2.03874 -2.42381,3.17779 -2.56477,3.7898 -1.38191,6 1.33531,2.49505 4.97927,3.4391 4.97927,1.29 z m 65.35254,38.48396 c -2.25812,-5.39698 -4.42788,-10.9377 -4.82169,-12.3127 -0.68412,-2.38861 -0.65238,-2.41089 0.71226,-0.5 2.00324,2.80511 8.96047,20.38925 8.55197,21.61477 -0.18529,0.55585 -2.18443,-3.40508 -4.44254,-8.80207 z m -8.27247,-29.93804 c -1.14404,-1.45441 -2.08007,-3.27282 -2.08007,-4.04091 0,-0.76809 -0.73047,-1.67683 -1.62326,-2.01943 -0.8928,-0.3426 -2.68712,-3.02847 -3.98739,-5.96861 -2.4179,-5.46729 -2.73195,-5.66119 -9.36511,-5.78227 -3.16004,-0.0577 -3.53697,-0.38137 -4.1495,-3.56344 -0.37055,-1.925 -2.02538,-6.875 -3.67741,-11 -1.65202,-4.125 -3.97028,-9.92795 -5.15169,-12.89543 -1.1814,-2.96749 -1.9141,-6.004988 -1.62821,-6.750002 0.55417,-1.444126 3.58257,-1.905416 3.58257,-0.545702 0,0.444879 0.68729,1.682379 1.52731,2.750004 1.43175,1.81967 1.51018,1.69085 1.25354,-2.058874 -0.42069,-6.146458 2.03279,-5.008488 4.31203,2.000004 1.07319,3.3 2.58504,7.14147 3.35967,8.5366 1.22109,2.19924 3.2414,6.99311 6.64754,15.77357 0.49289,1.2706 1.31794,2.0495 1.83345,1.7309 0.52608,-0.32513 -0.35053,-3.70224 -1.99813,-7.69771 -1.61448,-3.91514 -2.93541,-7.53336 -2.93541,-8.04049 0,-0.50713 -1.855,-4.80866 -4.12222,-9.55896 l -4.12223,-8.636899 2.67799,-2.303508 c 3.64301,-3.133584 8.3189,-3.084834 9.52953,0.09935 0.50246,1.321573 1.35849,2.677841 1.90229,3.013928 0.5438,0.336087 1.52763,2.2923 2.18628,4.347139 0.65866,2.05484 3.16649,7.73463 5.57296,12.62176 2.40647,4.88713 4.3754,9.48807 4.3754,10.22432 0,0.73625 -1.26775,1.99421 -2.81722,2.79547 -1.85482,0.95917 -3.28261,2.86699 -4.17954,5.58472 -1.59962,4.84689 -0.60852,8.68392 4.11502,15.93125 1.58496,2.43179 2.88174,4.99273 2.88174,5.69098 0,2.48146 -1.87022,2.36802 -3.91993,-0.23776 z m -13.08007,-22.24894 c 0,-1.46558 -2.67024,-8.54771 -5.56151,-14.75046 -3.28005,-7.03685 -3.05565,-6.7299 -4.33991,-5.93619 -1.03959,0.64251 -0.8278,1.23512 5.47193,15.31093 2.47939,5.53983 4.42949,7.90651 4.42949,5.37572 z m -22.86952,5.7116 c -1.20231,-1.9252 -1.10322,-2.34928 0.90239,-3.86212 1.63261,-1.23148 2.09887,-2.35697 1.69327,-4.08732 -1.05845,-4.51546 -6.50834,-18.92052 -7.70269,-20.35962 -1.57972,-1.90345 -0.46844,-3.52826 2.41312,-3.52826 2.80704,0 3.79436,1.20376 5.54809,6.76431 0.7397,2.34537 1.91683,4.73897 2.61584,5.3191 0.69902,0.58013 1.58237,2.48619 1.963,4.23568 0.38062,1.7495 1.30955,4.06853 2.06427,5.15341 0.75473,1.08488 1.37223,3.19582 1.37223,4.69098 0,1.49517 0.49453,3.02412 1.09895,3.39767 0.60442,0.37355 -1.30808,1.51042 -4.25,2.52637 -6.65922,2.29967 -6.11504,2.31731 -7.71847,-0.2502 z m -2.43663,-7.4768 c -0.79893,-0.79894 0.10419,-2.36052 1.36516,-2.36052 0.51754,0 0.94099,0.675 0.94099,1.5 0,1.54641 -1.17997,1.9867 -2.30615,0.86052 z m 44.18317,-16.11052 c -4.40386,-9.17724 -10.34045,-25.145567 -9.60715,-25.841468 0.35076,-0.332878 3.0838,-0.660339 4.39857,-0.527019 0.64264,0.06517 2.14922,1.705418 3.34795,3.645006 3.31613,5.365613 4.80676,6.473477 8.71003,6.473477 3.53803,0 3.56021,0.02579 1.74618,2.030282 -1.46168,1.615129 -1.63924,2.586411 -0.86839,4.750002 0.95435,2.67863 1.08269,2.71454 8.49538,2.37692 6.89894,-0.31421 7.78329,-0.12663 10.60776,2.25 3.84367,3.23424 5.04327,3.23646 9.34837,0.0174 1.89435,-1.41648 4.79428,-3.26785 6.44428,-4.11415 2.9104,-1.49276 2.8849,-1.418872 -0.85373,2.47383 -2.11955,2.20689 -5.33362,4.80951 -7.14237,5.78359 -3.19352,1.71982 -3.43452,1.7083 -8.33166,-0.39839 -9.43362,-4.05824 -14.17224,-2.52796 -14.17224,4.57676 0,2.02912 -0.87269,3.52289 -2.95951,5.06574 -1.62773,1.20343 -3.19472,2.18806 -3.4822,2.18806 -0.28748,0 -2.84406,-4.8375 -5.68127,-10.75 z m -116.87702,4.78138 c 0,-0.53274 0.675,-0.70959 1.5,-0.39301 0.825,0.31658 1.5,0.75246 1.5,0.96862 0,0.21615 -0.675,0.39301 -1.5,0.39301 -0.825,0 -1.5,-0.43588 -1.5,-0.96862 z m -3.75,-9.69367 c -1.741178,-0.70257 -1.566313,-2.33771 0.25,-2.33771 0.825,0 1.5,0.675 1.5,1.5 0,0.825 -0.1125,1.46447 -0.25,1.42105 -0.1375,-0.0434 -0.8125,-0.30592 -1.5,-0.58334 z M 236.26572,89.351383 c 1.42683,-2.09976 2.59423,-4.388285 2.59423,-5.085612 0,-0.697326 0.45,-1.267865 1,-1.267865 2.46961,0 -0.84407,7.310996 -4.10458,9.055967 -1.89683,1.015153 -1.85102,0.772582 0.51035,-2.70249 z"
         id="path3023"
         inkscape:connector-curvature="0" />
    </g>
  </g>
</svg>
