<?xml version="1.0" encoding="UTF-8" standalone="no"?>
<svg
   xmlns:dc="http://purl.org/dc/elements/1.1/"
   xmlns:cc="http://creativecommons.org/ns#"
   xmlns:rdf="http://www.w3.org/1999/02/22-rdf-syntax-ns#"
   xmlns:svg="http://www.w3.org/2000/svg"
   xmlns="http://www.w3.org/2000/svg"
   xmlns:sodipodi="http://sodipodi.sourceforge.net/DTD/sodipodi-0.dtd"
   xmlns:inkscape="http://www.inkscape.org/namespaces/inkscape"
   inkscape:export-ydpi="12.832031"
   inkscape:export-xdpi="12.832031"
   inkscape:export-filename="C:\Users\Chris\Documents\GitHub\bot-game\assets\hazmat_glovespng.png"
   viewBox="0 0 512 512"
   id="svg2"
   version="1.1"
   inkscape:version="0.48.4 r9939"
   width="100%"
   height="100%"
   sodipodi:docname="hazmat_mask.svg">
  <sodipodi:namedview
     pagecolor="#ffffff"
     bordercolor="#666666"
     borderopacity="1"
     objecttolerance="10"
     gridtolerance="10"
     guidetolerance="10"
     inkscape:pageopacity="0"
     inkscape:pageshadow="2"
     inkscape:window-width="1158"
     inkscape:window-height="1254"
     id="namedview44"
     showgrid="false"
     inkscape:zoom="0.68554687"
     inkscape:cx="163.94603"
     inkscape:cy="177.32827"
     inkscape:window-x="1233"
     inkscape:window-y="126"
     inkscape:window-maximized="0"
     inkscape:current-layer="svg2" />
  <metadata
     id="metadata48">
    <rdf:RDF>
      <cc:Work
         rdf:about="">
        <dc:format>image/svg+xml</dc:format>
        <dc:type
           rdf:resource="http://purl.org/dc/dcmitype/StillImage" />
        <dc:title></dc:title>
      </cc:Work>
    </rdf:RDF>
  </metadata>
  <defs
     id="defs46">
    <linearGradient
       id="linearGradient3926">
      <stop
         id="stop3928"
         offset="0"
         style="stop-color:#ffffff;stop-opacity:0;" />
      <stop
         style="stop-color:#ffffff;stop-opacity:0.49803922;"
         offset="0.5"
         id="stop3934" />
      <stop
         id="stop3930"
         offset="1"
         style="stop-color:#ffffff;stop-opacity:0;" />
    </linearGradient>
    <filter
       id="filter3108"
       x="0"
       y="0"
       width="1"
       height="1"
       inkscape:label="Lightness-Contrast"
       inkscape:menu="Color"
       inkscape:menu-tooltip="Increase or decrease lightness and contrast"
       color-interpolation-filters="sRGB">
      <feFlood
         id="feFlood3110"
         result="result1"
         flood-opacity="1"
         flood-color="rgb(0,0,0)" />
      <feBlend
         id="feBlend3112"
         in2="SourceGraphic"
         mode="normal"
         result="result2" />
      <feComposite
         id="feComposite3114"
         in2="SourceGraphic"
         k2="1"
         operator="arithmetic"
         result="result3" />
      <feComposite
         id="feComposite3116"
         in2="SourceGraphic"
         operator="in" />
    </filter>
    <filter
       id="filter7264"
       inkscape:label="Fluorescence"
       inkscape:menu="Color"
       inkscape:menu-tooltip="Oversaturate colors which can be fluorescent in real world"
       x="0"
       y="0"
       width="1"
       height="1"
       color-interpolation-filters="sRGB">
      <feColorMatrix
         id="feColorMatrix7266"
         type="hueRotate"
         values="0" />
      <feColorMatrix
         id="feColorMatrix7268"
         type="saturate"
         values="1" />
      <feColorMatrix
         id="feColorMatrix7270"
         type="matrix"
         values="2 -1 0 0 0 0 2 -1 0 0 -1 0 2 0 0 0 0 0 1 0 " />
    </filter>
    <filter
       id="filter7746"
       inkscape:label="Fluorescence"
       inkscape:menu="Color"
       inkscape:menu-tooltip="Oversaturate colors which can be fluorescent in real world"
       x="0"
       y="0"
       width="1"
       height="1"
       color-interpolation-filters="sRGB">
      <feColorMatrix
         id="feColorMatrix7748"
         type="hueRotate"
         values="0" />
      <feColorMatrix
         id="feColorMatrix7750"
         type="saturate"
         values="1" />
      <feColorMatrix
         id="feColorMatrix7752"
         type="matrix"
         values="2 -1 0 0 0 0 2 -1 0 0 -1 0 2 0 0 0 0 0 1 0 " />
    </filter>
    <filter
       id="filter11635"
       inkscape:label="Fluorescence"
       inkscape:menu="Color"
       inkscape:menu-tooltip="Oversaturate colors which can be fluorescent in real world"
       x="0"
       y="0"
       width="1"
       height="1"
       color-interpolation-filters="sRGB">
      <feColorMatrix
         id="feColorMatrix11637"
         type="hueRotate"
         values="0" />
      <feColorMatrix
         id="feColorMatrix11639"
         type="saturate"
         values="1" />
      <feColorMatrix
         id="feColorMatrix11641"
         type="matrix"
         values="2 -1 0 0 0 0 2 -1 0 0 -1 0 2 0 0 0 0 0 1 0 " />
    </filter>
    <clipPath
       clipPathUnits="userSpaceOnUse"
       id="clipPath5731">
      <g
         transform="translate(-499.67984,900.72257)"
         id="g5733">
        <path
           sodipodi:nodetypes="csssssssscsssssscssssssssssssccssscccccsccssss"
           inkscape:connector-curvature="0"
           d="m 713.46932,336.19879 c -46.66846,-6.86515 -63.32187,-12.04474 -82.43996,-25.64069 -7.77372,-5.52834 -15.03553,-11.14129 -18.39792,-14.22052 -2.11083,-1.93307 -4.58583,-3.93035 -5.5,-4.43838 -5.84335,-3.24737 -21.16212,-23.53521 -21.16212,-28.02664 0,-0.85231 -0.3375,-1.55317 -0.75,-1.55746 -1.39551,-0.0145 -2.90294,-4.63228 -2.14427,-6.56859 0.73071,-1.86494 0.75825,-1.86261 0.90293,0.0764 0.0866,1.16054 0.36564,1.46123 0.66483,0.71638 0.61512,-1.53141 -1.53978,-4.41705 -2.74312,-3.67334 -0.46366,0.28655 -0.5612,1.25542 -0.21676,2.15303 0.38711,1.0088 0.22353,1.38311 -0.42838,0.98021 -0.9969,-0.61612 -1.63974,-2.89421 -2.94209,-10.42628 -0.30907,-1.7875 -0.93079,-3.25 -1.38159,-3.25 -1.5083,0 -4.35392,-11.40362 -5.1155,-20.5 -2.10576,-25.15144 -2.16477,-28.9906 -0.46721,-30.39944 0.89164,-0.74 1.61427,-1.85285 1.60585,-2.473 -0.008,-0.62016 -0.43396,-0.46559 -0.94563,0.34348 -1.49011,2.3562 -2.47835,0.28852 -1.2015,-2.51387 0.63934,-1.4032 1.16244,-4.39299 1.16244,-6.64398 0,-2.44744 0.59517,-4.53902 1.48053,-5.20295 0.8685,-0.65128 1.70847,-3.51394 2.03192,-6.92492 0.51015,-5.37977 2.10581,-9.68532 3.58942,-9.68532 0.34143,0 0.40573,-1.125 0.14288,-2.5 -0.27897,-1.45935 -0.0131,-2.5 0.63867,-2.5 0.61412,0 1.11658,0.9 1.11658,2 0,3.05353 1.46373,2.38454 2.73495,-1.25 2.73263,-7.81276 3.55467,-15.64994 2.41455,-23.01981 -3.44237,-22.25201 -1.57023,-46.135821 4.6943,-59.887301 1.1285,-2.47721 2.92498,-6.71925 3.99217,-9.42675 17.66648,-102.76194 365.27374,-164.419499 334.81752,122.010491 -7.79547,25.33126 -32.70829,60.14015 -49.15349,68.67863 -2.2,1.14226 -5.31489,3.49838 -6.92197,5.23581 -1.60708,1.73744 -3.18208,3.15898 -3.5,3.15898 -0.31792,0 -0.58155,0.59299 -0.58585,1.31776 -5.42674,18.0491 -23.8421,29.8395 -3.61467,11.08169 3.23208,-3.01114 3.82133,-1.56587 0.72364,1.77485 -12.76274,5.49516 4.65115,6.24035 -4.60119,11.58349 -3.4638,1.90975 -9.12315,7.28573 -8.41511,7.99376 0.32807,0.32808 -4.35653,5.11365 -11.68088,11.93265 -23.17357,21.57468 -85.54296,35.99675 -128.40401,29.69169 z m -130.5,-96.63534 c 0,-0.94984 -4.04141,-3.53247 -4.62092,-2.95297 -0.23439,0.23439 -0.14242,1.16557 0.20437,2.06929 0.61898,1.61304 4.41655,2.37287 4.41655,0.88368 z"
           style="fill:#ecd59b"
           id="path5735" />
      </g>
    </clipPath>
  </defs>
  <rect
     style="opacity:0.98999999;fill:#0c0000;fill-opacity:1;fill-rule:nonzero;stroke:none"
     id="rect3171"
     width="516.97894"
     height="524.13165"
     x="-0.23968305"
     y="-5.1220188" />
  <g
     id="g3944">
    <path
       style="fill:#ffffff;fill-opacity:1;fill-rule:nonzero;stroke:none"
       d="m 243.92089,238.15373 c 7.81927,34.59383 -23.91951,64.56456 -55.82272,70.24799 -38.00024,9.17036 -87.82943,-7.98184 -97.979174,-49.14236 -7.819265,-34.59384 23.919514,-64.56456 55.822724,-70.24799 37.98813,-9.16502 87.78907,7.96581 97.96962,49.09854 -25.63046,3.53221 -51.26093,7.06442 -76.8914,10.59663 25.63365,-3.5176 51.2673,-7.03521 76.90095,-10.55281 z"
       id="path3940"
       inkscape:connector-curvature="0" />
    <path
       style="fill:#ffffff;fill-opacity:1;fill-rule:nonzero;stroke:none"
       d="m 420.42231,320.39917 c 6.13225,24.55668 -21.59093,39.01194 -41.34605,44.09642 -34.88762,8.35957 -77.01513,6.83316 -105.04824,-18.07936 -21.3973,-19.98682 2.35943,-47.22652 24.17943,-52.79871 35.82939,-12.21167 79.45668,-11.43366 110.97846,11.37349 13.6065,9.43701 12.25597,18.87598 -3.64087,16.75279 -20.67456,1.91066 -41.34912,3.82131 -62.02368,5.73197 25.63365,-2.35887 51.2673,-4.71773 76.90095,-7.0766 z"
       id="path3942"
       inkscape:connector-curvature="0" />
    <g
       transform="matrix(1.0497178,0,0,1.0923777,20.440267,-622.33251)"
       id="g3916">
      <path
         style="fill:#d0d0cc"
         d="m 316.21862,1001.8676 c -18.45037,-3.83397 -35.10834,-12.20923 -52.14107,-19.9755 -19.00184,-12.03585 -41.36899,-6.41095 -62.43605,-6.56413 -28.01162,-0.72371 -56.79745,3.85557 -84.30935,-2.68532 C 96.787526,963.95257 71.514842,959.88274 57.747094,940.64283 56.15956,928.6783 91.5781,925.08017 66.547969,918.90059 44.607526,904.82154 35.851912,877.15455 34.342006,852.35491 39.458428,836.05378 48.333459,821.97352 41.699911,803.17286 36.441312,785.77638 25.26404,770.80364 29.103588,749.99838 c 2.631926,-18.06642 -4.593393,-41.07399 7.399867,-55.81851 19.328743,-4.05324 33.576929,-20.4416 43.33216,-36.81503 13.814688,-12.08311 19.502288,-32.39278 38.499725,-39.17384 12.85023,-3.14609 31.38693,-21.98599 36.96431,-8.18474 7.99788,8.60684 -34.18419,6.59806 -28.12934,19.36016 28.31688,1.28767 56.82007,-2.39577 85.06011,1.43782 19.77931,0.30909 40.61478,-6.71948 51.51205,-24.27513 10.8306,-23.01049 34.16716,-4.44974 49.09145,3.2768 10.26926,16.36139 -32.09956,18.77894 -18.85057,39.95142 7.1145,16.03777 18.72331,15.08264 23.14391,30.46074 9.95821,10.88886 21.25778,32.92334 22.89142,6.81681 -7.05085,-23.62508 22.88586,-15.20088 20.97545,2.6016 11.54014,22.00551 -15.15322,38.27813 -0.002,59.39155 6.03515,23.1691 -3.56045,46.85352 -10.12921,68.85068 -6.30049,8.42389 -1.75423,11.4868 7.32343,12.31008 21.51892,5.02962 41.33244,15.95346 63.83948,16.78187 23.04617,5.52674 19.06961,35.18549 13.64313,52.36977 -15.16626,42.70677 -46.43608,80.87322 -86.85887,101.82447 -10.25717,4.6703 -22.13446,4.8618 -32.59196,0.7027 z m 49.80256,-131.57183 c 12.95699,-15.09938 -38.06855,-9.42082 -16.0038,-2.29721 4.75226,5.75866 10.05021,8.51841 16.0038,2.29721 z m -40.48925,-13.43189 c 6.18553,-12.3953 -28.40173,-8.87833 -30.59643,-17.29108 -22.87178,6.9687 17.38977,15.53112 23.45426,21.15344 l 3.31176,-1.31357 3.83041,-2.54879 0,0 z M 150.15027,770.80055 c -2.91153,-19.8122 -7.17193,26.66995 0,0 z m -61.493825,-1.08127 c -9.608725,-3.35854 7.910736,-12.03991 -5.397109,-8.95465 -8.342012,5.71904 9.626117,23.29952 5.397109,8.95465 z M 47.003938,714.51013 c 7.104416,-9.79762 -14.772574,6.58139 -8.436951,13.74863 -0.137753,10.24511 0.381808,20.48421 0.585852,30.72586 2.021605,-14.77128 0.436553,-31.19099 7.851099,-44.47449 z m 144.207082,-81.3912 c -14.52313,-1.43025 2.87827,3.79619 0,0 z"
         id="path3938"
         inkscape:connector-curvature="0" />
      <path
         style="fill:#b0afab"
         d="m 322.9557,1002.6836 c -30.07207,-10.51217 -58.94648,-24.96603 -89.4959,-34.42027 -7.2862,3.80505 -8.69432,-18.68175 -10.03676,-16.64475 -4.29728,10.57749 4.88615,19.86669 -12.13105,18.92142 -26.17521,9.76698 -55.28998,6.24438 -82.48472,3.44212 -18.72065,-3.04937 -35.508231,-12.71192 -53.317185,-18.83753 -24.024388,-6.29462 -12.42175,-27.52071 2.195121,-29.30482 -15.096264,-11.58673 -33.332175,-23.84858 -35.381039,-44.61902 -9.601035,-9.40295 -12.600769,-52.24766 6.763267,-37.97746 9.469571,9.28353 26.784182,-29.68142 5.749322,-12.85734 -9.569573,10.56677 -0.466835,4.1775 5.937226,0.072 7.48653,-6.94349 -9.852788,19.4922 -12.206041,6.92025 -1.679532,-16.55242 -0.925933,-36.10922 -11.266083,-49.88437 -12.895351,-15.33913 -4.115151,-38.81256 -6.589777,-57.44431 -2.250538,-18.59868 0.901777,-41.34147 24.262804,-40.24618 16.476584,-17.51816 34.069779,-35.12472 45.008389,-56.82944 14.271456,-12.10654 34.108686,-22.96124 51.413636,-26.27509 4.71528,13.46522 -46.19338,17.8955 -18.9101,24.9419 24.29197,1.37311 48.69685,-6.19066 72.79823,0.0897 19.62019,3.49077 40.37709,-4.60796 54.91172,-17.96755 6.82884,-25.23001 32.0244,-16.69225 48.76769,-5.99418 13.6871,2.71383 1.69375,12.30458 -3.76635,17.79972 -26.58151,8.24484 -7.06796,37.18207 5.78335,49.46166 8.37427,9.822 16.98532,19.43868 25.48341,29.15321 9.94885,-8.69361 -2.86292,-32.5152 11.90051,-30.9615 16.06961,9.90688 19.56773,40.73007 4.77153,53.32801 4.18143,17.63919 13.2832,35.94928 5.97634,54.86926 0.73711,16.01793 -16.62272,37.39482 -9.70324,47.95877 18.94435,5.25708 36.61924,12.72671 55.98359,16.43282 23.29768,-3.65911 39.59833,16.73091 33.09179,38.7738 -8.07741,39.82889 -34.64839,73.88603 -64.81914,99.99717 -14.12703,10.75686 -32.02768,22.76035 -50.69054,18.10205 z m 70.15782,-51.35099 c 15.0832,-18.02431 -14.56722,4.53582 -17.48361,13.83169 -5.81905,6.95696 18.01826,-15.53174 17.48361,-13.83169 z m 21.53707,-33.28838 c -7.84889,1.57661 -22.58874,30.46357 -7.65029,12.29691 2.77956,-3.88179 6.27976,-7.61445 7.65029,-12.29691 z m 0.10898,-9.38895 c 14.49832,-1.15644 -10.16289,-9.74698 -5.19746,3.26319 1.53502,0.0462 3.79727,-5.10578 5.19746,-3.26319 z m 6.22722,-13.7061 c -5.07605,-7.11048 -7.25161,15.65986 0,0 z M 374.306,865.53868 c -9.75548,-12.64441 -48.15855,-5.19884 -23.35809,8.47574 8.03994,9.91352 16.12741,-4.59615 23.35809,-8.47574 z m -38.89585,-4.62149 c 14.61632,-13.87407 -20.84254,13.30882 0,0 z m -76.28348,-3.36042 c 8.98226,-10.38422 -16.05916,11.10819 0,0 z m 70.07353,-1.13387 c 11.22626,-10.44193 -17.91983,-10.2784 -25.91525,-14.98061 -6.72163,-2.80103 -13.28886,-4.9012 -17.77344,2.45153 -10.62799,5.74246 4.46111,6.74372 9.3024,9.63427 10.67667,3.24473 24.23958,11.8915 34.38629,2.89481 z M 74.441477,819.31855 c 5.334681,-17.42372 -18.714206,13.19403 -1.698336,2.33775 l 1.698336,-2.33775 z M 149.39217,782.5428 c 3.51422,-6.37728 5.20099,-28.39645 2.37885,-28.20792 -7.27922,10.84849 -7.3057,26.75158 -15.64559,34.87765 5.13624,6.20783 11.45589,-1.6575 13.26674,-6.66973 z m -48.65436,-16.32081 c 5.00777,-5.48614 15.2897,-9.61555 4.68983,-12.03534 0.65088,-8.7242 21.22056,-22.9725 2.56302,-28.0932 -7.35463,0.32178 -1.49278,-15.70779 -14.950626,-13.30819 -10.82906,5.38915 -36.039181,0.30905 -38.292781,16.27823 6.751198,16.96334 3.682678,38.45155 24.249694,48.39591 7.798202,4.35495 15.512338,-7.93243 21.740863,-11.23741 z m 177.07053,9.5647 c -8.03178,-8.55374 -3.65615,7.18011 0,0 z M 49.041065,767.01412 c -1.847886,-6.16279 9.859878,-12.68614 -0.384071,-9.34488 -2.008189,-13.08122 11.88478,-45.86386 -4.195117,-45.46937 -9.032523,15.16519 -12.313175,49.31409 4.308996,58.73887 1.387726,-0.82284 0.75635,-2.82822 0.270192,-3.92462 z M 155.14502,745.02957 c -5.38264,2.89526 3.23931,8.69041 0,0 z m 168.45124,-12.36819 c -4.86985,2.92553 2.32827,20.9361 0,0 z m -129.46907,6.68349 c -10.02106,-3.63928 9.00825,9.91853 0,0 z m 15.1817,-8.49591 c -6.49165,-5.32995 -8.71511,8.38817 0,0 z m 102.74917,-9.70935 c -10.0823,-7.38422 -8.7461,3.24455 0,0 z M 198.41125,634.6493 c -6.83635,-6.82792 -29.5576,2.92037 -9.34084,2.24027 1.87303,-0.88363 9.01883,1.10501 9.34084,-2.24027 z"
         id="path3936"
         inkscape:connector-curvature="0" />
      <path
         style="fill:#8e8e8b"
         d="m 310.44627,997.14267 c -18.66095,-7.91069 -37.14326,-16.66718 -56.5992,-23.07759 -17.57331,-1.45768 -25.06949,-19.37525 -34.14205,-27.70359 -12.64485,3.76534 -12.33464,20.57536 -18.29974,28.5221 -32.10228,0.39545 -65.78927,4.0629 -96.09605,-8.38727 -14.785483,-9.38976 -36.946015,-9.92932 -45.45369,-27.13311 1.320522,-14.34163 38.309583,-7.32486 15.123527,-18.88268 -20.889507,-4.64004 -26.02084,-28.10891 -35.011017,-43.46332 -3.419521,-10.20758 -7.742741,-35.53085 4.645582,-36.48191 4.914419,28.48016 21.651678,-13.47486 33.923576,-18.40052 12.176906,-15.29722 27.856552,-25.29428 38.271262,-40.20149 7.23654,-11.11093 -16.29594,10.83641 -20.945401,14.20534 -11.27045,12.47894 -36.61051,15.83799 -41.037487,-1.68711 -25.66216,-2.77167 -25.96004,-28.8728 -23.979759,-48.9479 3.073769,-17.01344 -7.252219,-45.93007 14.590433,-52.27474 20.961722,0.62665 25.991888,-19.05706 38.202517,-29.45599 8.243174,-3.09576 9.521448,-18.59059 18.613907,-17.17926 0.82234,-15.58324 15.81526,-24.91975 29.38751,-15.16655 28.33435,1.77572 57.09509,-4.28704 85.09275,2.40869 20.61275,-2.196 40.32511,-12.96223 54.79097,-27.6015 -14.01608,3.15998 2.8364,-10.39316 5.02494,-7.08325 7.06668,-4.4844 52.45631,9.21418 29.59616,25.67369 -7.50759,11.18567 -7.67966,-14.4736 -12.41823,2.54527 -7.3069,19.90184 5.96353,37.51546 19.4832,50.64981 8.99243,10.18005 23.32705,25.724 16.29544,30.08511 3.94163,10.85865 25.14804,6.78853 9.92056,1.60701 -2.06876,-13.55322 8.0473,-53.29537 18.65059,-22.84226 4.98755,7.02687 6.61087,41.09116 -4.74426,31.21651 1.18254,-10.257 -6.03656,-29.34159 -4.29337,-8.0271 -1.78598,8.58914 -12.98396,12.77639 1.82591,14.92638 -9.18252,11.34685 4.49154,1.3261 5.09851,16.37981 9.39873,17.01385 4.28855,35.92277 -0.31478,53.46379 -1.11066,13.14598 -8.37757,26.23728 -13.27898,34.77638 10.42674,5.32258 29.25241,3.94134 29.9911,13.25645 19.10428,2.72791 34.69328,6.43777 54.00931,7.77855 20.20087,11.86872 12.05685,39.58439 4.80919,57.02111 -16.91691,39.21346 -46.51819,75.14551 -85.78114,93.15447 -11.48396,2.0987 -24.18651,0.9536 -34.95179,-3.67333 z m 50.62844,-20.23843 c 14.76456,-11.34253 35.61905,-22.96867 43.93723,-41.70967 11.3731,-16.50026 17.7926,-35.59954 18.56784,-55.58851 2.18249,-13.13723 -2.6513,3.25659 -4.66107,7.76432 -1.88577,14.52362 -14.65004,26.2042 -23.62003,24.33345 10.1206,4.44135 24.46075,-1.00484 10.68449,12.27731 -7.40107,17.30005 -23.68303,27.07793 -34.06571,42.66556 -10.27904,4.1567 -27.8269,12.84049 -34.03589,16.57606 7.57263,1.58704 17.52873,2.33021 23.19314,-6.31852 z m 7.22448,-12.11956 c 14.56243,-8.03888 6.36819,-24.15409 -1.87968,-6.25377 -4.63089,5.99454 -35.88892,26.2875 -13.73803,15.31342 5.03198,-3.15113 9.82884,-7.44558 15.61771,-9.05965 z m 2.31615,-22.15669 c -9.73806,2.92004 -1.24659,9.5226 0,0 z m 15.56806,-24.64304 c -9.73805,2.92004 -1.2466,9.5226 0,0 z m -234.47632,-7.78169 c -11.70916,-3.08247 -27.05698,-1.02657 -6.22723,1.2545 5.76421,1.08247 19.30193,0.37205 6.22723,-1.2545 z m 222.62321,-43.7353 c 6.01596,-8.79548 13.80444,-11.45709 -0.65616,-6.05445 -10.6162,-6.36526 -39.2659,-4.56733 -34.31513,11.86312 13.50885,12.00178 23.77239,7.46754 34.97129,-5.80867 z m -33.50828,-8.88612 c 4.5284,-11.00607 -29.63333,23.47448 -7.28247,6.87559 2.62442,-2.06037 5.22841,-4.22134 7.28247,-6.87559 z m -14.40491,2.56823 c 19.42159,-15.50547 -20.39916,-18.67707 -30.46725,-20.80039 -15.77216,1.15423 -24.02226,15.76972 -2.85548,16.66938 11.18269,3.49112 22.33766,14.64235 33.32273,4.13101 z m -65.73363,-1.47316 c 11.65589,-13.91871 -23.19683,11.92706 -2.43386,1.73972 l 2.43386,-1.73972 z M 208.18946,830.9157 c -15.37478,-13.43423 2.90176,17.87568 1.64641,2.41497 l -1.64641,-2.41497 z m -11.24222,-10.19872 c -13.75309,-16.8726 -7.74874,5.72184 1.56139,3.07628 l -1.56139,-3.07628 0,0 z M 151.4098,784.18773 c 0.0132,-8.73398 8.19877,-36.54467 0.726,-34.08029 -3.27776,11.95573 -28.36514,42.72513 -4.84473,42.77085 2.90038,-1.84249 3.46896,-5.62503 4.11873,-8.69056 z m 94.18669,-1.12014 c 17.25993,-4.7583 41.87574,2.57141 55.09096,-10.0718 17.4333,-0.43193 31.14691,-19.00186 23.42714,-37.90344 -3.17735,-17.47697 -31.67402,-22.42645 -35.78624,-14.11768 -16.93458,-9.94441 -40.2461,-4.29774 -52.4252,10.44399 -0.80033,10.87388 -3.22474,20.17865 -8.71885,27.26202 -3.24252,9.69734 25.86568,21.58109 7.27735,18.41503 0.0582,2.72612 11.94367,11.03055 11.13484,5.97188 z m 13.53018,-3.78827 c 7.23388,-8.37279 8.76557,4.53492 0,0 z M 36.021085,776.81021 c -9.917891,-8.92472 3.219502,10.46428 0,0 z M 96.525936,770.4607 C 110.79298,760.51709 133.83832,740.32915 111.81287,725.22266 97.734823,708.53073 73.817104,705.12527 53.384644,707.6386 c -23.559628,5.56633 -16.554112,33.78543 -15.135154,51.34992 5.457422,19.42845 33.523056,23.7369 49.739885,17.52811 2.991789,-1.80345 5.761528,-3.94283 8.536561,-6.05593 z m 132.590584,1.96558 c -8.33125,-0.38073 -8.49573,-26.13143 -8.02952,-8.90124 -25.8174,-3.83563 16.84617,-35.69564 -10.40466,-36.22763 -17.17386,-3.7182 -27.08783,14.05222 -9.73031,23.894 4.55053,3.10691 28.80154,29.81982 28.16449,21.23487 z m 112.84519,-38.59809 c -5.38264,2.89532 3.23934,8.69032 0,0 z m -14.33559,-31.57627 c -2.74251,-10.16165 -33.69927,-29.08383 -13.82001,-12.63294 3.32175,3.3014 7.55771,20.37204 13.82001,12.63294 z M 105.0029,699.61731 c -11.414424,-7.99047 -2.49215,7.61832 0,0 z m 100.7977,-64.10198 c -7.73458,-4.70362 -48.45666,-3.83316 -21.5425,2.25514 3.76852,1.46267 37.83766,4.50384 21.5425,-2.25514 z m 76.67815,-16.54797 c -8.95615,-7.80321 -1.68779,8.06557 0,0 z M 47.762277,800.9898 c 0.24623,-10.06708 14.437947,0.12169 2.613235,-0.32233 -1.053378,1.34545 -2.970398,7.12133 -2.613235,0.32233 z M 122.16631,621.70019 c 2.60137,-13.65601 47.63605,-16.22362 19.61026,-5.38983 -5.26569,0.68428 -16.85123,11.83449 -19.61026,5.38983 z"
         id="path3934"
         inkscape:connector-curvature="0" />
      <path
         style="fill:#82827d"
         d="m 321.20999,991.65625 c -5.36276,-12.94656 -12.28354,-8.02296 -5.52203,3.23315 -2.66674,10.2986 -25.12349,-12.05914 -36.28775,-12.73404 -19.65223,-10.02294 -47.27617,-9.25513 -55.72543,-33.80054 -15.47857,-6.60028 -17.10779,13.90804 -20.71888,24.35785 -3.75797,4.78313 -14.0064,0.92471 -20.38265,2.2218 -30.74905,-0.0904 -64.97222,2.57097 -90.310124,-18.33682 -10.23886,-8.32619 -26.083213,-0.60781 -31.631878,-17.15014 1.03936,-14.23567 41.034402,-7.71065 15.714822,-19.0723 -17.261248,-1.433 -23.296819,-22.55038 -31.665208,-31.13597 1.959072,-9.12285 -8.706549,-17.57791 -3.87128,-23.53737 -5.504682,-8.4218 2.233686,-35.74406 7.194784,-13.99647 2.980883,15.68292 6.198558,9.6112 7.316672,-1.98686 11.174853,-16.06383 25.944291,-30.13318 41.630746,-42.1149 10.430266,-9.35061 38.695556,-27.48201 33.320746,-37.9618 -20.33471,8.44716 -33.366504,30.14746 -55.369934,34.85607 -12.956188,-0.62237 -18.965974,-15.7631 -33.016577,-16.95646 15.215594,-9.92013 -20.824862,-8.40667 -11.587583,-25.57217 2.640222,-18.54378 -4.438205,-41.48594 7.13655,-56.62743 9.532656,-5.75269 13.126394,-14.1746 -0.508422,-6.01893 -15.15649,8.362 7.756014,-9.14503 14.16759,-6.27855 10.508409,1.33248 22.392661,-2.45176 28.944867,-5.87414 -3.608191,11.62438 13.21369,-2.08143 1.024424,-3.68734 10.766477,-3.3177 9.660657,-18.45023 15.863138,-20.20617 4.169637,1.6463 -4.398333,-10.67686 6.520587,-12.59365 12.80266,-8.78704 11.10055,-28.10592 30.7207,-17.97657 10.70976,2.76747 39.24641,-4.23117 39.19846,-0.48654 -11.30347,2.14649 -5.2542,4.65635 -7.648,7.12539 5.05984,0.67502 28.93142,7.69859 42.09984,4.01697 6.48781,-1.45066 22.70371,-3.52039 7.64107,-5.67228 -8.4425,-1.91092 -34.43679,-10.06613 -11.67928,-5.72469 19.99848,9.55327 30.33945,-1.83542 48.72772,-9.6923 12.61387,-14.37052 32.40488,-2.48549 40.64355,8.90791 -9.91825,4.5943 1.46257,23.32896 -9.03898,9.17261 -5.363,7.45177 2.10901,28.52362 8.11264,12.84746 6.9747,8.56137 -9.53111,8.55896 6.2144,12.69305 10.97089,8.40859 29.59446,24.07143 30.04134,34.41172 -11.34613,-8.20704 -26.23765,-36.4624 -39.44814,-26.67349 22.10519,-2.36088 -13.6676,17.95728 3.5655,11.53898 20.97047,-1.80953 -1.75163,7.86633 -9.85821,6.32437 8.58255,3.91205 24.38928,7.74145 28.15913,5.34026 3.07675,6.08952 32.39086,19.57816 25.66411,23.8844 4.49207,6.12015 6.77955,35.16748 -3.37153,48.0486 6.32141,6.66472 11.50809,-6.00424 13.80962,-4.1836 -6.78307,-13.91785 1.41977,-11.83909 4.69809,-1.64893 19.83359,-12.82477 3.4403,23.45582 3.19681,33.15745 -1.32553,9.01351 -12.85791,42.33376 -10.16885,16.03091 -6.69495,-6.0659 -6.11666,-12.70918 -9.30241,0.93411 -2.94372,8.65176 6.28586,10.776 0.43877,16.59872 16.82134,5.72386 29.64489,13.10834 45.86982,16.29643 23.77457,-4.73394 1.2037,12.83724 6.65826,9.71233 11.89696,-5.3268 23.29637,-4.71806 35.75658,-3.32805 17.60493,4.04005 16.23612,28.87239 11.3903,42.98353 -13.36205,39.5134 -40.43229,74.81094 -75.27619,97.77093 -11.59385,6.82337 -31.94505,16.51505 -39.0523,-1.4365 z m 10.25381,2.18078 c 6.33036,-8.39302 41.87043,-13.09612 36.67492,-22.04203 1.32382,-4.72129 23.45559,-13.25736 28.87143,-25.99533 14.66153,-18.00762 27.91262,-39.57835 25.30472,-63.78089 4.8929,-14.80739 -16.10742,-29.67022 -12.71628,-6.26361 0.36978,11.74241 6.746,16.67768 6.76686,2.40604 9.7962,-7.18377 -4.71526,27.80903 -9.59967,29.8812 -4.08447,-10.32804 10.34365,-13.04161 -1.10057,-20.76402 -2.17468,-16.03177 -11.31736,-7.01494 -5.58823,4.31709 4.82139,16.73907 -20.08266,24.41491 -21.23122,35.59202 7.55889,-12.38976 24.0574,-16.91288 30.92228,-7.01935 -8.90149,11.56285 -22.2666,23.07737 -29.05918,34.47134 -5.5828,10.35734 -12.15395,10.55227 -2.78233,-0.50751 -3.9321,-5.92537 -5.03605,-14.10061 -2.66203,-23.428 -1.10326,8.65962 -20.57077,15.72397 -15.63908,21.27405 22.59928,-8.10786 -0.16087,14.76481 -9.38201,19.1445 -4.55116,3.73328 -38.29665,27.20326 -18.77961,22.7145 z m 8.61676,-22.02617 c 16.85522,-15.77009 -24.04973,16.0411 0,0 l 0,0 z m 17.12487,-12.32152 c 14.61633,-13.87407 -20.84254,13.30882 0,0 z m -254.9918,-32.99741 c -5.38264,2.89526 3.23931,8.69043 0,0 z m 14.11258,-15.81319 c -16.863497,-1.51792 -6.63334,6.56063 0,0 z m 45.51828,1.59268 c -12.39505,-3.49914 -25.40986,-3.18103 -38.15992,-4.11102 13.70595,1.82971 27.86544,5.47324 41.27013,5.67208 l -3.11021,-1.56106 0,0 z m 82.90214,-21.22686 c -0.78654,-9.2477 -8.22281,10.58689 0,0 z m 133.1617,-27.8871 c 10.281,-7.84196 -2.83307,-5.47258 -9.09743,-6.09293 -14.64249,-4.13176 -35.91774,4.2207 -36.02263,19.08802 12.98611,1.47719 20.56166,16.52503 31.3179,-0.24132 4.78588,-4.03973 9.55585,-8.1374 13.80216,-12.75377 z m -324.015763,8.72628 c -10.540135,-11.76699 6.899689,17.83916 0,0 z M 400.543,869.09166 c -15.49122,-12.56535 5.79142,15.11186 0,0 z m -56.95337,-13.21509 c 3.47563,-12.89711 -32.82672,26.22658 -7.90051,7.03718 2.77851,-2.1616 5.6444,-4.3023 7.90051,-7.03718 z m -16.96557,4.48055 c 24.69201,-16.51918 -16.82846,-21.80235 -29.5645,-21.73901 -13.21208,-0.53407 -29.52811,17.68883 -7.93461,19.60733 12.53669,2.98632 26.6245,15.48685 37.49911,2.13168 z m 80.72349,1.1668 c -5.38264,2.89535 3.23934,8.69032 0,0 z m -3.83896,-3.91963 c -6.2199,-9.58213 -30.19275,14.67848 -7.29012,1.83302 l 3.25894,-1.22605 4.03118,-0.60697 z m -142.80784,1.05889 c 15.96832,-18.33144 -27.61322,16.02947 0,0 z m 158.7769,-2.22654 c -16.61434,-8.18431 3.4363,7.28818 0,0 z M 239.6666,847.53586 c 11.39193,-12.69032 37.29225,-2.65944 42.3368,-19.92907 -8.59877,-20.93388 -31.71466,24.22745 -43.11416,-0.29137 -10.62306,-6.24446 -23.34621,-6.64673 -32.6376,-16.1972 -9.89647,-1.98293 -21.426,0.36998 -29.76886,-2.66716 13.03729,16.67824 28.83613,32.19292 46.83736,43.41543 5.58443,-0.80484 10.96918,-2.68334 16.34646,-4.33063 z M 87.878042,830.67346 c 16.855188,-15.7701 -24.049709,16.04111 0,0 l 0,0 z m 56.045008,-10.08124 c -30.15857,-8.40781 5.37002,8.1408 0,0 z m 207.37062,-30.09338 c -0.94237,10.36143 -9.26193,4.89186 -10.19003,-4.57609 -3.78668,10.5175 10.23016,31.96807 10.3219,8.85263 l -0.13187,-4.27654 0,0 z m -198.63317,0.40972 c 0.84424,-14.77559 7.58406,-34.99561 2.07723,-47.07281 -8.63538,14.04642 -14.81939,27.82789 -20.8133,42.09007 -4.82217,9.08071 15.9995,9.48067 18.73607,4.98274 z M 269.42511,782.454 c 20.42436,-2.01023 44.13933,-6.5902 57.0093,-23.99742 2.76825,-19.94238 -5.24519,-42.64757 -28.71993,-42.5777 -22.46756,-5.10342 -47.18762,-4.32102 -66.96551,8.70569 -14.41661,2.14469 -34.35991,-7.10476 -41.58126,11.87769 -0.88542,6.41497 10.19298,12.01324 14.02937,18.00771 16.51546,13.39733 33.83738,35.87518 57.7523,28.84065 l 4.15433,-0.41356 4.3214,-0.44306 0,0 z m 84.99105,-3.82029 c -5.38264,2.89532 3.23933,8.69033 0,0 z M 100.13475,767.6749 c 18.85801,-10.08977 32.71033,-32.03778 9.41785,-46.27983 -16.258562,-13.65061 -40.378546,-17.67 -60.536283,-12.75948 -18.21985,9.42257 -14.0355,34.33709 -12.331592,51.12528 7.323421,20.82548 24.941549,22.10881 45.42109,19.39171 6.841249,-2.27817 12.364928,-7.21169 18.028935,-11.47768 z m 7.79847,-66.86621 c -11.69961,-6.58139 -15.4859,-0.65217 -1.01455,2.30409 3.90926,3.16094 7.66728,-1.08597 1.01455,-2.30409 z m 130.17657,-7.15563 c -18.14978,-1.82944 -1.96525,3.84196 0,0 z m 42.81216,-30.76063 c -10.0823,-7.38423 -8.7461,3.24455 0,0 z m -17.93236,-9.27798 c -12.9771,-6.91192 5.19442,13.47849 0,-2e-5 l 0,2e-5 z m -79.36654,-3.84329 c -19.36153,-14.24834 -8.16558,8.77661 0,0 z m 153.3439,166.47273 c 6.97081,-8.57232 8.30544,4.98581 0,0 z M 33.411886,780.29291 c 5.262815,-4.55297 10.955678,7.06374 0,0 l 0,0 z M 352.53501,709.97286 c 1.03323,-15.58975 -6.68169,-13.18197 -5.62422,0.8113 -17.75932,2.41069 -2.70177,-26.24878 -0.58123,-35.17954 15.59202,4.22981 22.06244,34.69772 8.43445,45.20371 -3.78072,-0.90789 -1.35971,-8.24024 -2.229,-10.83547 z m -227.24595,-88.2807 c 1.84503,-8.1433 28.70931,-18.04221 20.05349,-6.66667 -6.56537,2.17654 -13.08576,6.56798 -20.05349,6.66667 z m 171.20094,0.0953 c -10.12571,-6.18971 -19.80212,-7.85218 -26.96934,-11.01527 13.94125,-9.11553 -13.1269,0.12629 1.19565,-9.70145 11.60272,-9.24206 40.50324,4.29961 39.77263,17.76561 -3.64102,4.40969 -8.84464,5.33359 -13.99894,2.95111 z"
         id="path3932"
         inkscape:connector-curvature="0" />
      <path
         style="fill:#7e807b"
         d="m 326.58826,1000.5611 c -1.19382,-9.97964 21.69951,-13.52462 35.44196,-20.58152 11.95858,-5.6862 2.97919,-13.98932 16.83979,-15.34054 18.5726,-16.75072 35.24638,-37.67533 42.56763,-61.875 0.5666,-13.67669 6.32414,-42.97312 -11.8456,-42.76868 2.43531,3.10606 -7.90139,2.77501 -4.76388,11.41426 -19.18801,-15.28831 -0.0367,16.99121 -7.07267,27.59355 -6.21299,17.59967 -24.11262,29.93285 -34.37336,45.662 -5.59854,4.20417 -26.16621,6.45165 -10.34288,10.46922 -4.80885,11.63662 -34.23919,27.98969 -8.18672,13.50321 11.86182,-7.2328 22.25373,-15.35649 12.68902,-16.76413 26.28864,-2.93621 -7.12172,18.41909 -15.25925,24.59913 -9.65522,7.42292 -21.98714,17.54948 -29.04252,3.98253 -1.06874,9.56771 5.83121,26.21807 -9.22123,12.44882 -16.95039,-6.39148 -32.52078,-17.81186 -49.98909,-20.39132 -21.04136,2.07202 -23.97764,-32.16848 -42.94576,-23.25243 -5.20941,14.90639 -9.86895,30.5876 -29.6475,24.73116 -28.97165,0.71937 -61.35837,3.71951 -85.587499,-15.62304 -8.758724,-9.45239 -44.666011,-6.66517 -31.117042,-25.07707 8.902759,-6.52112 36.893651,-2.81563 13.805549,-12.22894 -16.908174,-5.57273 -28.122324,-19.45808 -33.492216,-34.70323 15.864296,9.73289 -18.770585,-23.66473 -1.192033,-12.46383 1.159584,-9.17977 -11.15928,-24.88528 0.455461,-29.91978 5.254799,2.10565 5.90181,28.62327 8.292938,17.99011 2.147207,-16.50871 15.796741,-26.15742 26.323333,-38.01295 11.084361,-15.12337 29.893839,-20.60663 42.577469,-33.54496 2.7763,-7.12234 21.82897,-25.77574 13.30227,-7.07539 -14.87404,12.15251 29.26678,18.41218 20.68464,-1.03365 -0.74713,-11.81084 6.21294,-31.2321 -1.85073,-39.05693 -5.89362,6.67625 -11.62411,32.14884 -16.7209,26.58075 10.89585,-16.65341 -17.7339,5.05229 -22.64721,9.55563 -14.867632,9.65432 -32.39475,34.17895 -51.488322,20.02207 -3.769709,-9.7484 -26.326366,-5.92169 -13.990685,-16.94907 -7.566005,-7.48063 -7.962314,11.8905 -10.344071,-3.62012 -15.024331,-16.40871 -5.842014,-40.85759 -6.365724,-60.91507 3.386609,-14.43385 27.986197,-22.05477 16.668131,-19.90285 -9.334948,4.27295 -16.270552,-3.19682 -1.989442,-3.96846 15.314394,-4.77954 35.773343,5.21222 45.373097,-10.11366 7.674659,-14.18913 6.337135,-34.107 26.849606,-39.8479 19.09891,-5.75692 4.89543,-5.34155 -5.27587,-3.66447 5.77922,-17.08361 30.19095,-1.0263 44.72111,-8.40414 10.96443,-2.92724 23.61049,-0.96815 5.43158,2.28183 -15.57211,3.27898 15.86484,1.97212 -2.81171,5.87283 -21.40192,8.3326 33.66139,-5.46323 9.14386,4.06671 -16.08852,9.55622 16.95819,16.7983 25.50895,9.91549 13.53425,-3.07062 25.20141,-11.07168 39.54284,-11.17798 -10.6967,-3.42113 -22.3982,-5.1236 -32.21925,-10.27009 19.18934,7.27107 36.05253,-3.02622 52.5915,-12.30421 5.64666,-6.00287 11.74669,-7.00669 18.40459,-1.85897 6.27441,2.86302 12.54883,5.72603 18.82325,8.58905 -3.87574,8.03693 -17.11201,20.01051 -21.83888,14.86126 -3.70512,4.60459 13.23606,12.09767 0.79575,18.80402 3.72677,7.47331 29.80234,8.13801 10.48189,1.7308 -14.48109,-0.37224 6.40983,-18.22296 -0.13747,-1.58135 19.34922,2.63897 32.90798,19.92965 44.90219,33.94831 7.24225,14.15405 -17.2866,-16.47446 -23.46226,-20.2933 -7.96749,-13.01891 -27.55003,2.0605 -8.29445,6.82004 -12.09805,2.23749 -25.49026,12.96219 -4.59816,13.71318 16.07911,3.86776 41.663,11.85217 46.35792,25.80491 -2.10221,8.66399 8.21286,35.64974 -2.3072,49.88408 0.77431,11.19514 -10.39843,18.69123 -0.17574,24.09275 -1.84284,8.51652 -7.44801,14.08512 1.10899,14.16747 -8.35631,0.62627 -9.77431,3.10211 -2.05047,9.084 -18.08169,-2.29575 6.10592,5.40654 4.96665,6.00483 -19.38899,13.62882 28.02304,8.15515 28.35564,20.3529 9.6892,1.68983 46.72338,4.0704 22.94019,14.44216 -12.9109,8.97332 -7.88339,8.12187 3.12387,2.97318 7.59207,-8.34991 18.67391,-4.96234 27.31643,-3.19081 -2.76174,-17.08441 26.75377,6.27062 17.64035,18.21535 -1.83294,37.63972 -27.07134,69.16943 -51.97958,95.32096 -15.27178,13.5125 -32.46979,28.70499 -53.72801,30.14949 l -3.10324,-0.5878 -2.56965,-1.2845 -1.7e-4,10e-5 z m -8.30298,-31.12274 c -7.86786,-4.91578 -8.1464,8.44127 0,0 z M 108.11652,943.80741 c -8.956145,-7.80324 -1.68783,8.06556 0,0 z m -4.0477,-16.12999 c -9.495866,-3.02655 1.01481,14.17964 1.63465,1.42817 l -1.63465,-1.42817 0,0 z m 8.71811,-1.79222 c -7.77959,-9.01233 -7.84526,8.75962 0,0 z m 214.74382,-5.60069 c -6.03866,-1.35684 -7.91965,14.91808 -0.8866,2.56931 l 0.8866,-2.56931 z m -191.53126,-8.52853 c 10.03229,0.033 42.42702,4.45185 16.23577,-1.81988 -12.123,-0.89623 -41.08857,-5.32734 -43.80608,3.94998 9.11671,-1.50248 18.28072,-2.57769 27.57031,-2.1301 z m 199.04188,-2.78921 c -0.78654,-9.24769 -8.22284,10.58688 0,0 z m -32.32414,-2.12392 c -2.63338,-10.45758 -7.02154,11.61146 0,0 z m -53.03042,-22.27088 c -6.30026,-0.98306 -13.58186,16.8765 -2.88762,4.60219 l 1.47484,-1.83572 1.41278,-2.76647 z M 60.119789,885.3254 c -10.540135,-11.76699 6.899685,17.83914 0,0 z M 378.67051,863.06581 c 10.21595,-10.63958 -19.92826,-6.48101 -26.13554,-7.32855 -12.01728,3.57204 -33.10251,23.84497 -7.9814,23.87583 7.7882,15.26071 26.44017,-11.18135 34.11694,-16.54728 z m -125.77107,14.65345 c 8.98227,-10.38424 -16.05913,11.10817 0,0 z M 55.185123,872.11857 c -7.027566,-12.94051 -2.139177,12.7732 1.043744,3.7319 l -1.043744,-3.7319 z m 288.404507,-16.242 c 5.93655,-13.52997 -33.23847,23.62582 -11.00603,9.29977 3.93813,-2.73456 7.93763,-5.56572 11.00603,-9.29977 z m -16.89015,4.60114 c 11.94602,-5.46312 13.1641,-18.56079 -2.02288,-17.07639 -14.47815,-7.98632 -43.69104,-9.05266 -46.54674,9.89066 -15.77348,12.85053 10.8622,0.42414 18.62025,9.85312 10.19353,4.54955 21.20068,5.59255 29.94937,-2.66739 z m -61.73729,-7.30995 c -8.57778,-1.52234 -22.76701,18.44161 -6.77904,7.20634 2.00357,-2.14549 6.49466,-3.88026 6.77904,-7.20634 z m -25.55204,-4.64315 c 18.52282,-3.18691 36.52176,-9.18799 52.32767,-17.42715 -2.69214,-14.80678 -3.63668,-29.61174 -18.28014,-17.01223 -8.96643,19.08181 -34.58423,8.24514 -49.59677,2.56894 -13.82581,1.77484 -30.59387,-27.83669 -36.80268,-9.96776 4.56223,4.83458 -27.378,-4.64783 -8.22038,7.37152 14.69265,12.5473 27.12438,27.54734 41.78037,40.13843 6.33246,-1.64375 12.54329,-3.74012 18.79193,-5.67175 z m 43.79511,-19.24928 c 14.1533,-6.30601 -3.32576,6.06678 0,0 z M 76.611617,841.75848 c -0.786562,-9.24767 -8.222788,10.58688 0,0 z m 22.164065,-17.48645 c -6.795361,-1.57043 -30.744053,20.27522 -8.568266,5.23665 2.862799,-1.73439 5.735327,-3.45353 8.568266,-5.23665 z m 45.147368,-3.67981 c -30.15857,-8.40781 5.37002,8.1408 0,0 z m 163.00473,-22.93813 c -10.9443,-6.43239 -5.5327,19.29764 0.2526,0.97296 l -0.2526,-0.97296 0,0 z m 14.47111,-7.43782 c -11.71502,-5.20417 -6.90373,7.42765 0,0 z m -30.25147,-10.46461 c 15.73644,-5.15534 40.8188,-12.83664 35.07991,-34.3565 2.78178,-21.31646 -19.06328,-28.95929 -36.08215,-31.35293 -22.84606,-4.04429 -46.29389,0.97455 -66.68078,11.48541 -13.4488,-11.61328 -45.69987,3.81653 -27.59051,21.16762 12.62435,14.46727 27.49028,26.70903 43.0143,37.91781 17.45652,-1.10933 35.0616,-1.38319 52.25923,-4.86141 z M 96.314976,771.12652 c 14.317144,-9.8833 38.074594,-28.57708 18.156544,-45.49357 -15.946262,-16.89006 -41.771084,-21.27417 -63.798241,-17.90394 -20.139464,8.26324 -16.435002,32.38679 -14.418917,49.7143 6.443645,20.38696 19.886908,23.84089 40.051102,22.71611 7.701424,-0.01 14.222821,-4.42393 20.009512,-9.0329 z M 333.85334,718.73847 c -8.1993,-6.79229 -17.54368,-5.19184 -3.377,0.84823 0.5809,0.28991 3.40912,0.76624 3.377,-0.84823 z M 110.10679,701.78305 c -8.74863,-4.58159 -29.389315,-11.91019 -9.77954,-1.02495 4.4588,2.21231 23.34332,8.63156 9.77954,1.02497 l 0,-2e-5 z m 127.2246,-6.6463 c 18.20772,-3.10166 -12.58659,-2.34705 -17.51407,1.11202 -2.47598,2.43784 15.27371,-0.57153 17.51407,-1.11202 z m 29.00149,-37.52462 c -2.88392,-15.21389 -17.21925,6.90745 -4.11856,-1.25885 0.66258,3.25617 7.30149,8.05892 4.11856,1.25885 z m 108.2474,301.87721 c 16.66066,-21.18992 -7.14985,15.09653 0,0 z m -0.24999,-17.42373 c 0.49003,-12.11434 14.67503,-27.14051 24.72425,-28.20487 18.90072,10.15703 -10.03442,29.03043 -19.60063,36.16358 -4.81609,2.6186 -4.95558,-5.37072 -5.12362,-7.95871 z m 31.13611,-39.57109 c 3.50638,-7.0628 16.8805,-29.62475 9.00183,-6.95098 -0.96285,2.98384 -7.60542,19.42144 -9.00183,6.95098 z m -62.0057,-79.66203 c 1.27958,-12.5116 10.19188,-11.70384 2.84709,0 -0.94167,5.05257 -3.80407,1.70292 -2.84709,0 z m 6.4523,-17.92221 c 2.66276,-12.06586 1.86957,11.75791 0,0 z m 2.86783,-9.89455 c 1.78891,-10.03433 2.87706,8.15004 0,0 z m -6.22723,-2.24028 c 1.78892,-10.03433 2.87708,8.15005 0,0 z m 9.09502,-12.04755 c -5.00488,-8.52188 -15.62459,-16.18927 -3.22583,-13.95624 6.33894,3.07577 10.61859,-11.78635 7.5681,4.53448 0.12179,1.16934 -3.88612,22.09184 -4.34227,9.42176 z m -3.11361,-70.75504 c 2.09017,-10.40814 -6.70586,-18.2361 -5.97819,-2.47281 -17.83442,7.77699 0.15004,-17.11854 -2.39029,-26.78639 9.8761,-14.5075 21.3451,18.83274 17.19941,29.03772 -1.35287,12.40865 -11.12412,16.40705 -8.83093,0.22148 z M 198.61289,648.3257 c 5.08297,-11.61816 9.16582,5.85705 0,0 z m 77.63864,-0.23475 c 2.04032,-8.2704 8.17907,7.283 0,0 z M 125.24138,621.40008 c 5.44635,-2.39594 24.43398,-19.46345 20.2211,-7.26909 -6.03227,3.49764 -13.23303,7.1665 -20.2211,7.26909 z m 167.02817,-2.5783 c -13.61486,-1.77263 -16.87713,-8.20642 -24.37098,-13.48051 8.42128,-17.23793 32.45547,-1.4263 43.0501,7.48076 3.69962,10.98174 -12.8018,12.48866 -18.67912,5.99975 z"
         id="path3930"
         inkscape:connector-curvature="0" />
      <path
         style="fill:#817d79"
         d="m 326.58826,1000.5611 c -1.19382,-9.97964 21.69951,-13.52462 35.44196,-20.58152 12.11441,-4.9793 2.6589,-14.31658 15.69966,-14.11107 18.73927,-14.24695 31.52197,-34.39223 42.0128,-55.06132 8.22057,-15.95086 -6.13888,-49.95297 10.96472,-55.36573 14.34494,14.63256 5.35738,38.89676 -1.43326,55.70381 -16.61694,34.46597 -41.68196,66.6555 -75.46828,85.57115 -8.22553,3.95528 -18.24952,7.45938 -27.2176,3.84468 z m -14.5302,-2.7742 c -15.29452,-11.1648 -35.43832,-14.95599 -50.87178,-24.70121 -19.52001,2.40986 -30.44109,-16.5324 -41.76595,-26.0108 -18.90488,0.75487 -9.74644,36.88484 -34.9478,27.0032 -26.1315,-1.18234 -54.56413,3.8758 -78.54026,-8.96354 -6.03885,-16.54596 -35.486878,-8.76694 -45.28037,-24.48079 -2.062502,-16.51327 44.8021,-8.21972 17.885308,-19.20107 -17.811299,-7.71487 -26.81295,-19.10701 -34.202046,-34.62044 14.360029,6.63396 -6.405651,-8.32379 0.126799,-14.71749 -3.499229,-7.0226 -8.638003,-44.61534 2.29517,-22.96568 0.924872,8.17049 9.038383,41.15228 7.792401,16.15302 -4.136342,-18.49259 13.460784,-28.59014 23.509853,-39.78545 11.625793,-17.27131 32.537735,-21.91558 46.173315,-36.35161 3.39601,-9.12479 17.39057,-19.77388 7.71587,-3.26853 -1.54939,12.31861 30.73247,13.25111 24.37656,-6.09522 -0.61874,-9.36143 7.02185,-36.53865 -4.34134,-34.94039 -3.89938,7.47365 -10.87932,30.54343 -15.06635,24.98155 11.21609,-17.26008 -16.83946,4.4439 -22.25708,9.24374 -15.787406,12.61107 -39.985185,36.55149 -58.245432,13.89323 -12.241612,-3.29 -11.737538,-16.38221 -25.499718,-21.81245 -4.033932,-5.12582 0.01886,-14.24682 -0.744876,-20.98826 0.877191,-13.7142 1.25256,-27.50981 3.417457,-41.09431 7.579813,-8.04885 29.863428,-8.12054 16.016713,-13.67633 -19.068284,0.34755 19.989092,-3.61224 25.8338,-2.59287 13.423056,-2.59821 35.606646,-10.74642 26.797436,-28.99709 6.41968,-6.51662 9.32706,-23.23746 25.07903,-21.73988 14.92511,-7.90278 -23.92916,3.16019 -6.81626,-7.71989 14.66452,-1.68939 44.06911,-1.66745 50.30215,-2.57261 -6.52307,1.28825 -20.56418,4.87547 -9.32096,6.32134 -14.44597,2.34309 3.48197,7.97652 -7.98186,9.26413 5.77656,5.78617 13.88863,18.7911 23.6575,15.21833 16.78811,-4.84459 35.52817,-5.87074 50.31006,-15.38908 4.14677,-6.13564 21.29582,0.94422 4.69135,-5.30653 -7.65591,-1.75189 -41.4247,-11.59808 -17.26869,-7.05148 16.40089,2.46458 31.81331,-9.38682 45.56946,-17.79993 5.87183,-6.37343 13.0894,2.90861 19.57409,4.44105 15.0437,3.67973 8.4911,15.95311 -2.80188,18.69917 -0.87684,10.78565 -2.02354,21.22553 -14.57861,11.43525 -7.59293,-4.11733 -6.90046,12.99785 -2.32865,4.24654 10.07036,9.48396 3.27007,1.54294 7.61596,-0.14782 8.28745,9.86285 30.04092,19.01433 12.48657,29.52746 -11.51747,13.91668 23.44904,8.39042 30.39032,16.08818 11.10443,2.61663 31.84589,17.139 24.4986,22.0205 8.36401,19.28483 5.52171,41.67297 -11.62843,54.7144 13.4269,8.88388 -23.64334,10.25465 -5.40016,16.78187 16.42478,4.09217 -11.37617,16.45992 -10.7151,1.85236 -16.44541,-5.70936 -5.37084,28.39646 -2.24258,9.49193 9.70243,-0.50064 36.42165,0.78855 14.77297,10.19229 -4.73419,5.99392 24.4531,8.60466 4.9951,9.14633 8.46352,13.44214 35.87791,7.44443 40.62313,17.87248 8.9262,3.33311 28.63142,4.56153 32.82098,9.17192 -7.0839,3.87554 -32.52774,26.21307 -10.94942,13.6165 11.37415,-6.11815 4.85636,-1.14733 4.12184,4.15814 14.51393,12.30362 6.1436,41.02501 -9.78389,50.14677 -8.44608,14.44562 -21.29162,28.60798 -35.17525,32.24155 22.7442,3.49613 -33.18935,31.04335 -6.30642,18.78557 7.51633,-5.97138 33.00147,-18.79478 15.7172,-18.93754 27.16818,-5.89844 -2.37589,16.46739 -11.71411,22.34742 -10.14373,7.19048 -23.5792,20.24286 -31.20888,5.51423 -3.02451,2.35564 5.13687,24.62004 -1.18284,17.35784 z m 6.22722,-28.34854 c -7.86786,-4.91578 -8.1464,8.44127 0,0 z M 100.33249,949.4081 c -2.63337,-10.45758 -7.021544,11.61146 0,0 z m 9.34083,-5.60069 c -7.77959,-9.01233 -7.84526,8.75963 0,0 z m -4.52574,-9.89535 c -3.3452,-19.52459 -7.587761,8.78914 -0.0165,3.82419 l 0.0165,-3.82419 1e-5,0 z m 7.63935,-8.02686 c -7.77959,-9.01233 -7.84526,8.75962 0,0 z m 214.74382,-5.60069 c -6.03866,-1.35684 -7.91965,14.91808 -0.8866,2.56931 l 0.8866,-2.56931 z M 129.9118,911.40905 c 9.2955,-1.06892 28.91285,4.20199 32.13969,1.00989 -17.44611,-3.98099 -39.23143,-7.55902 -55.49178,0.27708 6.13296,3.26862 16.16142,-2.90778 23.35209,-1.28697 z m 253.75932,2.39431 c -10.08229,-7.38424 -8.74608,3.24455 0,0 z m -45.57701,-9.20079 c 11.92137,-12.54929 -4.41964,-0.0115 -7.35438,6.22226 0.31197,5.19297 6.07132,-6.11579 7.35438,-6.22226 z m -35.37688,2.24028 c -2.63338,-10.45758 -7.02154,11.61146 0,0 z m -53.03042,-22.27088 c -6.30026,-0.98306 -13.58186,16.8765 -2.88762,4.60219 l 1.47484,-1.83572 1.41278,-2.76647 z M 60.119789,885.3254 c -10.540135,-11.76699 6.899685,17.83914 0,0 z M 377.4439,864.75227 c 4.12549,-6.31811 24.26818,-16.91739 5.60986,-8.84076 -18.75323,-3.23695 -46.22899,-0.94866 -52.28169,19.86539 11.55932,-4.33231 15.2933,12.77514 20.48329,10.42581 9.26593,-6.35227 18.69269,-13.05314 26.18854,-21.45044 z m -121.73404,8.64167 c -14.72505,7.76207 -6.27895,11.37701 0,0 z m 90.59793,-20.45397 c -8.19678,-5.18457 -36.70573,31.4464 -15.06663,13.47195 5.1299,-4.342 10.57935,-8.4502 15.06663,-13.47195 z m -19.46008,7.21369 c 26.5666,-16.01217 -17.88435,-23.8879 -30.36078,-22.51462 -13.28168,0.4972 -36.16574,26.91592 -9.42768,23.14624 16.23641,3.99437 24.31661,14.59061 39.78846,-0.63162 z m -61.88552,-6.9859 c -8.57778,-1.52234 -22.76701,18.44161 -6.77904,7.20634 2.00357,-2.14549 6.49466,-3.88026 6.77904,-7.20634 z m -26.074,-3.87839 c 14.83024,-6.36193 37.05514,-0.27331 43.57459,-15.98878 18.1233,5.98964 5.63799,-26.56489 0.0207,-27.29523 3.72393,9.00411 -15.20951,5.06477 -17.74212,16.05654 -19.09148,3.92523 -38.56891,-7.3009 -56.12457,-14.07033 1.34964,-4.20994 -20.04494,-18.75571 -23.48916,-5.56133 -26.60096,5.64676 9.75154,21.59683 15.69063,33.33659 10.67005,11.37698 21.5993,22.76984 38.06992,13.52254 z m 44.31707,-20.01404 c 14.1533,-6.30601 -3.32576,6.06678 0,0 z M 92.042049,828.78258 c 20.738601,-15.27465 -22.089933,7.26483 -18.60381,15.45695 5.407875,-6.05775 11.87066,-10.96381 18.60381,-15.45695 z m 217.486201,-5.24017 c -14.52318,-1.43016 2.87844,3.79577 0,0 z m -165.6052,-2.95019 c -9.32747,-4.11543 -22.83359,-1.18557 -5.12773,1.39596 1.48426,0.44815 13.96011,1.88673 5.12773,-1.39596 z m 146.56964,-40.67634 c 15.93237,-5.15767 41.58099,-12.83488 35.94014,-34.64284 2.7556,-21.50358 -19.59395,-28.33625 -36.25815,-32.00543 -23.08718,-5.39517 -46.49216,2.04966 -66.96753,12.40352 -12.89756,-11.66 -44.57461,3.03788 -28.24266,20.3057 12.73827,14.94748 28.27504,27.06007 43.92366,38.77797 17.24458,-1.03027 34.6361,-1.28803 51.60454,-4.83892 z M 96.314976,771.12652 C 113.66427,760.40457 136.57716,736.75863 110.01518,721.28166 92.836604,707.84819 69.895959,705.74144 48.913893,705.93309 c -16.416736,12.25996 -15.968951,34.16973 -12.104292,52.81397 2.132275,6.92038 11.356972,16.3896 2.426101,14.35538 12.826027,0.81495 8.915451,5.4962 24.241351,6.50169 11.752746,1.98796 24.005573,0.22585 32.837923,-8.47761 z M 333.85334,718.73847 c -8.1993,-6.79229 -17.54368,-5.19184 -3.377,0.84823 0.5809,0.28991 3.40912,0.76624 3.377,-0.84823 z M 110.10679,701.78305 c -7.47581,-4.67427 -34.053997,-13.21398 -13.257618,-1.88701 3.158098,1.0988 29.726148,11.34882 13.257618,1.88701 z m 122.55418,-5.5103 c 22.08745,-5.37821 -17.54574,-1.73688 -23.37558,3.03806 -9.62363,3.97715 -18.89071,9.91552 -4.10386,3.86476 8.9113,-3.15109 18.14017,-5.4564 27.47944,-6.90282 z m 1.55681,-43.70124 c -7.7796,-9.01233 -7.84527,8.75963 0,0 z m 38.29016,-8.21435 c -9.34976,-10.90533 -4.23299,12.20686 0,0 z m 101.82235,315.13218 c 13.64769,-13.82607 -7.4509,14.17528 0,0 z m 0,-17.42373 c -2.35834,-14.17778 30.06606,-41.33592 29.77207,-17.40901 -3.56641,6.73561 -29.16636,40.8927 -29.77207,17.40901 z m 31.75292,-38.85846 c 1.80332,-11.57656 14.39241,-12.21299 4.86266,0.40645 -1.14913,4.62414 -6.39659,4.43548 -4.86266,-0.40645 z m 8.96984,-16.3401 c 1.78891,-10.03435 2.87708,8.15004 0,0 z m -17.13962,-22.96407 c -0.47551,-12.06109 8.37343,0.15489 16.02078,-7.19162 -7.83432,-0.0672 -8.79802,18.16855 -16.02078,7.19162 z M 343.4607,822.83249 c 1.27958,-12.5116 10.19188,-11.70384 2.84709,0 -0.94167,5.05257 -3.80407,1.70292 -2.84709,0 z m 6.4523,-17.92221 c 2.66276,-12.06586 1.86957,11.75791 0,0 z m -22.28688,-5.60069 c 7.02155,-11.61145 2.63336,10.45758 0,0 z m -2.86779,-8.77441 c 1.7889,-10.03433 2.87706,8.15003 0,0 z m 31.13611,-11.20138 c 1.7889,-10.03435 2.87707,8.15004 0,0 z m -6.02705,-7.78193 c -7.03745,-11.42734 13.49244,6.43288 0,0 z m 2.86066,-50.83279 c 3.66818,-8.04695 -4.2252,-36.43574 -6.17123,-13.21903 -17.39799,8.14719 -0.55914,-16.82966 -2.33885,-25.68903 10.41844,-3.10107 -7.19471,-8.71988 6.34662,-5.70028 11.15277,9.96098 18.39191,38.3703 2.16346,44.60834 l 0,0 z m -34.11098,-31.11893 c -4.54317,-10.0897 -32.97011,-23.38665 -28.90676,-27.35233 15.62925,6.43238 37.63531,27.93346 38.96676,38.64257 -3.52765,-3.60376 -6.79704,-7.44885 -10.06,-11.29024 z M 293.37639,618.9573 c -13.94264,-0.54366 -17.37228,-10.97991 -26.076,-14.96353 5.97682,-5.07779 14.34142,-1.7792 13.67957,-7.01301 10.82629,2.834 45.39364,17.05981 21.50068,26.14015 -3.33795,-0.66638 -6.15916,-2.60414 -9.10425,-4.16361 z m -161.82218,-1.56733 c 7.64674,-9.8542 24.62511,-8.51667 9.25523,-0.66288 -3.96474,2.33793 -21.87032,7.06855 -9.25523,0.66288 l 0,0 z"
         id="path3928"
         inkscape:connector-curvature="0" />
      <path
         style="fill:#70706d"
         d="m 326.05303,999.79536 c 7.45425,-9.26039 20.72903,-13.10443 35.83377,-19.86221 11.81569,-12.8107 28.71991,-22.76886 40.44372,-40.16247 12.54684,-16.72704 23.43041,-34.78899 20.05182,-56.68197 -4.14321,-13.50049 5.57522,-43.55 15.06796,-17.24763 4.19485,36.779 -19.33411,68.97535 -41.52519,95.82229 -16.72006,17.87783 -36.12719,37.87229 -61.73338,40.39123 -2.82986,-0.074 -5.80522,-0.451 -8.1387,-2.25924 z m -15.87479,-5.37956 c -16.69709,-9.94402 -34.25859,-13.0065 -50.67565,-22.46991 -10.76129,1.40718 -31.95811,-7.7802 -33.54659,-26.83527 3.26774,-7.90106 -17.43086,5.37228 -19.33034,9.7797 1.27669,28.43324 -32.23844,15.93586 -50.34809,18.92822 -19.15757,-0.92855 -42.92883,2.32091 -55.54745,-15.40606 -9.851168,-10.53165 -49.724736,-4.94168 -35.791587,-25.17472 6.398273,-6.16335 36.960297,-3.00651 15.167464,-10.89749 -7.230535,-9.13671 -22.464399,-6.41124 -25.070177,-23.82755 -8.42722,-5.78265 -8.01524,-13.02069 -12.94469,-21.55769 8.955487,-2.91959 -11.968308,-38.66005 3.146521,-32.57682 4.722284,22.98308 12.435931,45.68387 24.900254,65.74236 2.915101,-3.46924 -10.646511,-24.03939 -4.287513,-22.714 -19.410446,-14.6894 -12.870452,-41.60573 5.732538,-53.23608 9.858739,-11.62859 21.422406,-27.93003 38.19034,-33.15408 12.89344,-11.59706 29.82326,-5.4584 43.53893,-8.37758 4.43965,-13.47303 9.77759,-42.93093 -0.44221,-49.39652 -6.43917,20.72238 -29.30883,25.66664 -43.58659,39.83243 -14.204405,12.39902 -38.231732,30.63174 -52.698816,8.83582 -6.783888,-3.37587 -18.165302,-5.32214 -2.473167,-5.64398 C 33.217281,779.80796 26.720722,761.2476 30.902031,740.996 c -0.05795,-18.95611 1.53708,-43.58676 27.519923,-39.21904 14.523919,-6.57193 -34.113803,-4.71776 -7.724674,-7.29197 21.259189,-3.81165 40.558882,0.89324 59.35788,10.16271 16.06468,0.45605 -27.127937,-8.54536 -9.94074,-18.39559 -18.734668,3.01998 8.36825,-4.50003 9.55891,-12.39798 8.5266,-7.9486 15.416,-12.60112 3.54356,-20.13183 -4.51657,-11.76094 39.50363,-14.80937 11.46618,-15.96829 -17.39648,1.21548 10.71784,-8.9514 16.23417,-2.8295 8.75847,-0.002 47.81936,-8.2882 20.72245,-0.70227 -13.17466,2.92253 9.43602,2.69244 -6.01146,6.52987 1.78553,5.45874 1.96665,2.97285 -1.91054,8.46925 5.6706,6.64228 12.99518,18.13429 23.15837,13.39153 19.40117,-3.80734 39.08323,-6.75406 58.62844,-8.37839 12.19276,-4.0071 -21.01456,-12.99113 -0.63966,-9.05726 21.39218,0.37115 -24.53725,-7.99608 -30.93015,-11.88846 22.16174,9.63133 39.56586,-11.32167 60.4924,-12.65957 5.58598,-8.99922 39.75152,9.28621 16.6114,16.14189 -9.33616,4.79501 -19.25583,8.47051 -7.91774,15.04542 -14.90949,10.16982 30.10502,22.04977 5.19641,19.41308 21.94516,7.01468 -19.48452,19.94058 4.11533,22.79448 22.04665,-0.31243 33.25367,15.97715 49.03467,27.09711 13.68115,15.53596 11.54575,43.33284 -7.24598,54.18562 4.97731,3.90149 -7.51992,16.15675 -16.92475,19.63443 -15.01454,8.13449 -32.36905,11.18668 -46.08496,23.29283 -15.84755,6.45223 -38.08051,-3.36471 -50.4388,-12.44183 -10.64981,-10.63498 -24.99271,-16.50543 -32.34042,-2.00209 -14.01991,7.14576 17.04529,23.33429 21.52671,31.7381 11.60357,17.43996 27.07156,21.6192 45.81498,12.44784 17.29892,-0.26079 31.66002,-6.13398 44.82766,-14.97543 6.65369,1.44642 17.11064,-7.75776 6.07078,-4.70623 2.10665,-5.48762 -14.37655,-24.71366 -1.09694,-21.32933 -6.06244,18.54981 20.97037,1.32321 17.67502,12.95512 -26.05162,10.6614 17.85709,0.4834 16.71093,4.45656 -12.81544,7.10292 18.34506,11.85638 25.5402,13.77526 12.38743,1.57257 22.83604,10.61259 35.44147,13.48836 -16.47798,9.24704 -39.55352,-4.72241 -52.72298,13.40821 -14.04327,8.25339 -6.40382,12.50274 5.31611,13.8103 6.03379,21.44765 22.19125,-10.33034 37.03409,-7.70162 8.42356,-7.45253 28.26872,-20.07809 21.78257,-3.51927 -19.5182,-10.47236 2.79785,21.07266 -4.397,31.9947 -0.84915,27.92824 -30.53786,1.29032 -32.80187,3.99481 2.93706,6.82838 21.99253,9.85837 15.55076,17.63475 -8.82884,17.05645 -22.9342,30.19693 -42.8585,31.39254 -20.01158,7.94422 16.61604,-1.39164 0.63919,9.09771 -8.24782,4.32237 8.69717,12.01402 -6.42003,8.055 -8.93941,2.11368 -13.19356,26.6755 -15.14164,5.98781 -0.86701,-18.67437 -7.65376,8.6165 -3.36033,15.89163 0.48339,2.74571 -0.31872,9.76033 -3.38519,2.72883 z M 117.45735,966.21017 c -8.95615,-7.80323 -1.68782,8.06556 0,0 z m 199.59547,-6.1141 c -5.38264,2.89536 3.23934,8.69032 0,0 z M 100.33249,949.4081 c 4.7484,-2.1477 13.99858,-9.65723 3.33748,-12.81869 13.79903,-5.69629 5.90683,-21.65334 -2.55745,-6.06412 0.13616,3.96366 -12.107427,31.01398 -0.78003,18.88281 z m 50.40158,-0.41022 c -14.52318,-1.43017 2.87843,3.79574 0,0 z M 343.0994,895.93183 c -8.08287,8.03193 -18.25908,22.09015 -20.73694,30.72887 7.91113,-9.39266 15.63542,-19.52105 20.73694,-30.72887 z m -215.35716,15.51313 c 14.27112,0.007 28.4651,1.60127 42.6465,3.01843 -19.20846,-5.04894 -39.42306,-8.16255 -59.14601,-4.53477 -9.18211,4.79395 -7.79097,13.21024 1.95867,4.12196 4.64219,-1.72922 9.59913,-2.53875 14.54084,-2.60562 z m 176.64537,-5.00178 c 5.98643,-7.07597 9.64641,-23.2364 -0.97296,-7.41112 -8.17847,5.95191 -13.9085,30.83425 -1.71758,11.67324 l 1.29414,-2.01886 1.3964,-2.24326 z M 83.812401,897.81095 c -8.561651,-7.78032 -21.086946,-4.76716 -7.020565,2.22698 4.845746,5.08938 19.840497,3.88121 7.020565,-2.22698 l 0,0 z M 251.02891,882.26173 c 14.44336,-26.75176 -23.263,24.22595 -9.58309,14.13982 3.54547,-4.41071 7.46011,-8.82419 9.58309,-14.13982 z m -37.98369,-1.63011 c -14.80923,-6.34259 -7.03446,11.25085 0,0 z m 133.26257,-27.69165 c -8.19678,-5.18457 -36.70573,31.4464 -15.06663,13.47195 5.1299,-4.342 10.57935,-8.4502 15.06663,-13.47195 z m -18.98151,7.50654 c 20.59439,-11.15414 -0.15149,-19.34021 -13.01819,-20.77099 -13.07973,-11.93062 -50.15798,8.95704 -36.23403,20.0847 18.49203,-0.41439 32.68534,18.61232 49.25222,0.68629 z m -62.36409,-7.27875 c -8.57778,-1.52234 -22.76701,18.44161 -6.77904,7.20634 2.00357,-2.14549 6.49466,-3.88026 6.77904,-7.20634 z m -193.70373,0.46853 c -5.016811,1.32513 2.812464,11.93036 0,0 z m 110.02792,-7.97285 c -6.53845,-12.20975 -11.35223,-6.64143 -0.38729,1.62384 l 0.38729,-1.62384 z M 96.190513,826.36868 C 116.08762,813.3527 80.462167,830.85793 76.445411,838.0314 64.235598,854.56254 87.1424,828.71526 96.190513,826.36868 z m 49.887897,-4.88537 c -8.63508,-4.97925 -23.94564,-1.18531 -5.61714,1.3763 5.19183,1.69087 17.95457,2.72545 5.61714,-1.3763 z m 144.24571,-41.49397 c 14.02838,-3.23356 25.94088,-11.53099 37.68058,-19.44779 -2.25256,-14.07499 1.47637,-33.56798 -14.86023,-40.00426 -18.69284,-7.0263 -42.5927,-13.68599 -61.21852,-6.75277 -18.5097,4.78483 -39.20209,-1.64847 -54.18885,11.44536 -21.16751,15.06988 9.12536,31.20924 19.21809,42.56588 7.65193,5.49547 14.85072,13.24925 23.09266,17.25137 16.8105,-1.07627 33.70999,-1.78603 50.27627,-5.05779 z m -71.6744,-56.77031 c 8.6923,-10.24122 20.88926,1.55865 0,0 z M 96.997085,770.85037 c 11.062825,-8.0619 20.430455,-18.08609 28.911795,-28.76086 -9.65952,-16.26925 -23.59705,-31.1462 -43.323368,-34.0433 -13.153098,-3.80741 -40.986828,-4.3474 -45.125646,3.494 7.637724,-3.24643 20.300266,-9.73821 7.59671,-0.20664 -15.814019,12.35273 -11.117225,37.56711 -5.420327,54.06789 6.568031,6.47473 3.20951,8.02937 -0.400547,7.70098 6.808866,1.49433 18.454334,3.44434 9.091842,4.19067 15.936139,3.73849 35.802113,6.32913 48.669541,-6.44274 z m 93.630135,-61.15182 c 8.98226,-10.38424 -16.05915,11.10817 0,0 z m 42.03375,-13.55102 c 26.45462,-4.84155 -15.25985,-2.93019 -23.23998,2.43498 -11.23552,2.68704 -14.08343,9.88815 -0.37068,3.38299 7.7301,-2.44975 15.63794,-4.34824 23.61066,-5.81797 z m -124.02552,-9.22512 c -15.298097,0.88967 -9.662509,15.89765 0,0 z M 267.1331,657.29115 c -1.43978,-13.09143 -18.69365,-4.56866 -8.39206,0.13314 3.7855,-6.52559 8.18559,10.86043 8.39206,-0.13314 z m 57.37941,326.84123 c 5.41711,-9.91078 18.83673,-12.09717 30.14455,-21.63713 -7.55097,-5.34588 -10.15402,-14.23012 1.4281,-4.49682 8.3227,0.66295 -2.88577,-8.63812 11.72494,-4.57927 -5.2863,9.37409 -30.1341,31.23117 -43.29759,30.71322 l 0,0 z m 14.01125,-20.16249 c 12.82218,-8.57749 2.60626,7.66014 0,0 z m 35.80653,-4.48055 c 13.64769,-13.82607 -7.4509,14.17528 0,0 z m 0,-15.77119 c -1.94918,-13.41362 30.02874,-45.67409 28.30579,-18.14066 -1.33458,7.07418 -27.03287,36.46307 -28.30579,18.14066 z m 32.83306,-40.79578 c 15.31733,-25.04718 -4.36603,18.39269 0,0 z m 7.8897,-16.05532 c 1.78891,-10.03435 2.87708,8.15004 0,0 z m -39.04428,-18.1089 c -1.86658,-15.46383 21.88009,-14.35756 26.92392,-18.58664 -9.86635,5.73031 -19.3054,13.61554 -27.61795,20.23269 l 0.69403,-1.64605 0,0 z m -88.0534,-38.44157 c -7.03163,-4.36082 16.50786,-12.10337 3.66891,-1.61917 8.73043,4.63164 1.14905,2.27852 -3.66891,1.61917 z m 57.13904,-10.8445 c 3.26047,-15.72734 7.57504,0.85901 -0.90221,4.44111 l 0.90221,-4.44111 z m 4.81859,-14.5618 c 2.66276,-12.06586 1.86957,11.75791 0,0 z m -36.39477,-4.59305 c -2.14841,-11.37186 14.53854,6.01162 -9e-5,0 l 9e-5,0 z M 128.62151,788.10821 c 5.62182,-19.15011 9.20003,-2.00348 0,0 z m 227.27293,-8.77441 c 1.7889,-10.03435 2.87707,8.15004 0,0 z m -3.16639,-58.61472 c 4.31211,-10.71786 -5.92648,-35.817 -7.36358,-11.87464 -14.80122,4.00839 0.79884,-20.31768 -0.15323,-28.6295 5.70316,-13.70239 15.57906,13.50549 16.85457,21.28998 -0.47915,6.11952 -0.827,20.86982 -9.33776,19.21416 z m -31.60689,-10.27377 c -5.486,-12.43576 22.89137,10.37818 3.58273,2.90069 l -3.58273,-2.90069 z m -2.53267,-20.87911 c -6.15839,-10.4846 -29.68699,-22.84619 -29.59436,-27.09633 15.84011,6.17459 38.69318,27.62367 39.68069,38.41784 -3.53647,-3.61419 -6.81459,-7.46971 -10.08633,-11.32151 z m -25.2121,-70.6089 c -13.94264,-0.54366 -17.37228,-10.97991 -26.076,-14.96353 5.97682,-5.07779 14.34142,-1.7792 13.67957,-7.01301 10.82629,2.834 45.39364,17.05981 21.50068,26.14015 -3.33795,-0.66638 -6.15916,-2.60414 -9.10425,-4.16361 z M 129.9118,618.60739 c 8.06166,-8.87028 27.11484,-11.14366 10.08441,-1.8803 -2.42319,1.28443 -22.57815,7.72886 -10.08441,1.8803 z"
         id="path3926"
         inkscape:connector-curvature="0" />
      <path
         style="fill:#51504e"
         d="m 332.08138,999.56385 c -1.35578,-11.61381 22.34882,-12.87362 34.08758,-23.60847 22.87819,-15.28432 39.2324,-38.12097 52.38484,-61.75082 4.41175,-18.48895 8.62154,-38.40918 4.82417,-57.20786 1.56745,-9.27594 19.23722,11.16941 13.17793,20.32251 -2.51777,41.60397 -30.78862,76.71444 -60.43118,103.70353 -14.1274,11.9937 -24.63423,14.26957 -38.71619,20.90806 l -3.03084,-0.6079 -2.29619,-1.75899 -1.2e-4,-6e-5 z m 37.57849,-17.67175 c 14.61635,-13.87407 -20.84254,13.30882 0,0 z m -60.30126,8.40104 c -13.92883,-5.94584 -35.72199,-14.07091 -27.5375,-35.39786 -5.2151,-18.15924 -0.3094,24.29571 -7.88688,22.11547 -14.91102,-16.03757 -35.05204,-2.91137 -45.94368,-23.41354 5.96857,-9.32223 32.61366,14.75337 15.06133,-2.86945 -13.24159,-0.84456 -15.43862,-27.4918 -20.20254,-8.32534 -6.72385,9.78349 -33.74751,1.4439 -23.09526,18.68061 12.63932,-3.07075 0.0225,16.33144 -6.40687,6.62607 -9.77678,-0.89166 -32.04749,-2.16498 -25.03902,2.82415 -13.62978,-3.79051 -25.15845,-6.88131 -40.11799,-9.58894 12.38227,-9.34274 35.98732,-6.88397 49.98257,0.008 5.08635,4.16273 23.52041,6.57126 7.22462,-2.1493 -18.44218,-11.08439 -40.55935,-10.20279 -60.92984,-14.11187 0.43563,-12.48319 -26.520088,-29.3683 -1.77277,-30.64509 11.54773,-4.50593 38.13177,3.11401 41.46674,-2.03123 -18.70408,-4.31371 -38.06038,-3.53998 -57.12537,-4.59529 -2.98177,14.55135 -14.816842,25.48553 -28.315701,11.9495 -9.90671,-6.82371 -3.127392,-18.09748 6.296312,-7.80391 16.677489,3.16755 13.915523,-14.0985 0.01434,-15.11609 -17.798494,-6.31204 -37.026781,-25.71548 -23.802152,-44.99573 14.827493,-24.39254 36.925058,-48.35625 66.078666,-53.92151 14.3352,-7.86816 39.28181,2.16686 48.85815,16.44591 13.53839,13.62818 26.99544,27.38327 41.40315,40.09995 19.5633,-2.76208 39.25466,-6.40318 58.66619,-10.22963 19.2577,-11.05743 -10.15176,17.50627 -15.8417,21.5545 -12.0979,14.41479 -24.43246,30.28461 -29.05237,48.77278 1.9804,-5.57354 20.93795,-9.32122 15.95892,-19.23871 4.38963,10.65307 22.48013,11.10702 30.06345,0.32631 -10.68396,-5.38258 -3.79426,-21.69733 -18.80511,-18.01651 -3.55981,-6.49545 8.38456,-14.50177 4.54439,-3.83894 17.90951,-17.37529 42.0394,11.39845 61.00194,-9.18177 21.25944,-11.62901 -16.46728,8.84206 -0.33936,14.6974 -17.30249,3.59042 -24.76659,25.95933 -33.75044,39.9188 -4.89071,7.70762 -9.20993,26.62359 1.18884,10.10693 13.69044,-13.78569 19.43006,-36.73732 36.77712,-45.62845 7.29646,2.08337 13.96314,2.79947 17.24201,2.83552 -10.34793,20.33394 -25.92958,38.32236 -33.11436,60.08382 10.55016,-12.88294 17.48689,-29.83705 28.87765,-42.80562 7.9365,-8.68526 16.58469,-24.69659 26.94593,-26.20125 -1.32643,7.49952 -19.13232,15.86372 -13.3371,21.83385 8.53313,6.67632 19.20966,11.50685 25.53906,20.34457 -8.21621,0.93227 -17.0845,9.55569 -23.02345,12.21388 19.61645,1.04697 -16.34529,8.16883 2.66107,6.88103 18.31386,-0.37313 -9.29374,6.39806 -5.5662,9.31813 -13.77596,-6.22719 -27.07096,18.79899 -34.42868,11.75084 1.51515,-12.29788 1.74009,-14.22846 -3.01843,-1.75071 -3.61823,10.14363 -4.06854,23.88154 -7.39968,32.46913 z m -4.5793,-15.68194 c -5.01681,1.32514 2.81247,11.93035 0,0 z m 3.11361,-13.44165 c -5.01681,1.32512 2.81247,11.93036 0,0 z m -141.59079,-0.97029 c -14.52319,-1.43017 2.87843,3.79576 0,0 z m 94.21699,-5.38182 c -13.99868,-5.13391 -0.61158,11.78145 0,0 z m 88.70422,-52.45514 c -6.53627,-1.48669 -13.48394,17.16156 -2.7964,4.72367 l 1.45355,-1.86405 1.34285,-2.85962 z M 95.483667,893.58436 c -25.2822,-8.88406 14.753743,10.73756 0,0 z M 211.28372,883.31995 c 19.29215,-3.98508 -24.67634,-4.3668 -18.88739,3.40792 6.18461,-1.69577 12.39666,-3.52237 18.88739,-3.40792 z M 77.809769,877.46517 c -14.122759,-13.89848 8.546781,17.13939 0,0 z m -6.379126,-22.67794 c -3.997382,-0.4496 1.168364,22.97481 0.399215,2.79937 l -0.399216,-2.79937 10e-7,0 z M 264.62297,852.9237 c -6.92195,-5.40315 -24.3849,22.24739 -13.83147,12.49831 4.68076,-3.82354 11.81351,-6.6683 13.83147,-12.49831 z m -83.62993,-11.44324 c -7.18072,-9.67957 -22.42486,-12.39122 -7.11678,0.45911 4.06622,8.68036 15.36429,14.22194 7.11678,-0.45911 z M 90.324706,830.09117 c 19.074664,-13.33374 42.945954,-7.80495 64.010404,-4.50624 -16.85099,-11.56407 -41.73241,-7.56271 -60.29307,-0.79894 -7.254447,0.87355 -27.213573,20.4716 -18.48573,19.45461 4.139155,-5.46489 9.022035,-10.3754 14.768396,-14.14943 z M 327.88589,984.88226 c 10.10368,-9.60375 30.23686,-26.06275 37.95231,-27.60842 -11.91081,9.97854 -24.27503,20.34197 -37.95231,27.60842 z M 122.12777,957.38128 c 5.98608,-17.5715 2.79205,13.37195 0,0 l 0,0 z m -12.45445,-0.13222 c 2.74948,-7.8969 8.92319,8.86567 0,0 z m -27.247566,-9.1239 c -11.059008,4.05249 -32.171302,-10.23814 -13.232849,-16.00207 16.978668,-11.73753 41.116515,2.91061 18.960726,16.96018 l -2.5957,-0.23716 -3.132177,-0.72095 0,0 z m -8.430934,-6.70708 c 3.494798,-9.54507 -13.945441,8.97014 0,0 z m 301.35994,-1.28511 c 0.61503,-15.48283 34.16915,-38.9916 25.16453,-9.69764 -2.1099,6.85645 -28.74411,29.87291 -25.16453,9.69764 z M 66.413671,916.09084 C 52.13136,896.95434 45.801987,872.72018 41.667468,849.47623 c 1.753398,-21.48619 7.587951,23.81791 13.108161,30.9703 0.843398,7.33582 22.479616,42.47619 11.638042,35.64431 z M 391.45515,891.16092 c -1.6107,-10.22827 4.00502,-25.78674 4.48616,-6.50319 2.09788,8.1118 -2.72095,36.21688 -4.3019,13.64891 l -0.1366,-3.42766 -0.0477,-3.71806 z m -18.31289,13.32529 c -0.285,-4.62505 21.58828,-11.90347 7.41534,-2.81768 19.86444,-1.95468 -2.6071,11.62975 -7.41534,2.81768 z M 362.0035,889.91178 c 15.04475,-17.07347 4.34286,11.96886 -4.29752,5.32701 l 1.34903,-2.11686 2.94849,-3.21015 0,0 z m -34.37738,-20.91394 c 10.08228,-7.38424 8.74609,3.24454 0,0 z m 49.81778,-3.3879 c 5.01083,-4.49423 15.41365,-14.99 4.88445,-11.16442 -12.0517,-1.00173 -33.81282,-5.15285 -48.46061,2.02003 16.12204,-17.98813 -25.95869,-24.73629 -37.97352,-19.97382 -13.47605,3.48963 21.45052,-17.25084 24.24422,-9.52375 11.59256,11.48135 34.02722,6.29582 42.83113,19.52378 10.75063,1.045 40.76315,3.87089 19.0174,17.41614 -1.11191,-0.31061 -3.1922,3.32851 -4.54307,1.70204 z m -24.90889,-15.65445 c -9.96209,-11.23731 -7.78589,6.81468 0,0 z m -12.45445,9.84156 c 15.53543,-10.96143 -9.47313,11.65452 0,0 z M 223.26451,807.86819 c -14.68145,-4.84598 -32.68024,-27.34896 -46.00636,-19.62587 -12.9874,-6.29417 -17.68152,-31.05791 -19.00034,-47.01875 -12.31698,3.26019 -24.62535,25.86635 -39.41566,33.78362 -15.83223,9.6281 -31.897229,32.38013 -52.412506,24.19094 -12.814985,-8.11429 25.18564,-4.55261 9.819948,-10.63804 2.045792,-13.40307 13.90331,-3.04544 19.79244,-14.78559 10.948898,-2.38238 18.488178,-21.50059 29.185958,-31.44471 -5.71741,-21.85757 -30.28255,-32.78637 -50.61547,-37.39276 5.655509,0.13735 15.300129,-3.63098 5.264466,-6.92649 12.411042,-3.02707 32.894244,12.84932 39.117474,9.2149 -20.915392,-12.90583 13.92054,-1.51311 19.56265,-12.59111 9.62262,-3.99042 18.72715,-10.37797 16.14619,-21.07227 16.85821,-2.84217 33.86499,3.55028 49.01481,9.00311 8.51373,0.93797 20.92401,-3.36176 6.34199,4.81018 6.65116,0.34468 19.62668,-2.83097 6.6114,2.89546 11.43626,0.10373 42.13569,-11.7337 15.5069,-17.53682 -12.0746,-4.17378 19.11653,-7.60957 23.78367,-4.33504 23.96427,0.7275 -4.58571,33.44648 20.80634,26.7378 12.07346,-0.91895 11.13627,15.70109 27.14479,14.41678 19.62251,3.49765 39.41506,16.34515 34.41229,39.01319 4.42044,18.70943 -24.39709,26.90644 -21.49766,36.96379 -5.21678,-5.24639 -15.31918,-4.75027 -17.02681,7.19708 -17.09757,9.8838 -36.0221,17.45455 -55.4481,21.1438 -7.34141,-0.46653 -14.44681,-2.96894 -21.08841,-6.0032 z m 60.77105,-25.82294 c 16.15937,-6.61259 33.41425,-4.40457 40.37829,-19.55097 8.76538,-15.65347 2.2826,-34.33733 -9.57017,-45.12212 -13.55201,-2.97953 -29.98384,-7.70037 -46.55522,-8.48127 -19.3598,2.95603 -39.33985,3.71616 -59.13653,7.8456 -25.06912,5.97963 -21.75679,33.07224 -1.59185,43.55216 14.45141,11.74515 29.78843,28.86538 50.30419,25.15277 8.76925,-0.69429 17.5355,-1.69724 26.17129,-3.39617 z m -65.38584,-8.63105 c -9.90173,0.27363 -18.34823,-21.49103 -26.70349,-20.03624 6.04959,5.42007 19.34541,25.84315 26.70349,20.03624 z m -82.66033,-49.36205 c -18.55582,-18.11238 11.25547,20.21588 0,0 l 0,0 z m 74.98248,-22.57651 c 15.19224,-4.40051 30.95454,-6.05538 46.59799,-7.99054 -22.47844,-1.30057 -45.97902,0.16696 -65.1719,13.35549 -10.13249,4.11799 -20.21672,17.66942 -3.99977,5.73126 6.937,-4.73621 14.59588,-8.47438 22.57368,-11.09621 z M 59.85554,783.22938 c -23.76285,2.3029 -33.77772,-21.08824 -28.144671,-41.04683 0.770782,-7.84097 1.541565,-15.68193 2.312347,-23.5229 0.859002,18.36338 -1.579322,38.2284 8.571946,54.40882 -0.08404,8.94455 51.163026,8.55278 21.929093,10.68975 l -2.198089,-0.24412 -2.470626,-0.28472 0,0 z M 31.833038,713.50702 c 1.564197,-12.61754 18.890795,-10.61473 7.776795,1.80064 -1.977977,3.2934 -8.171606,2.80624 -7.776795,-1.80064 z m 7.353185,-1.5682 c -3.076589,-13.84937 -6.508733,11.53226 0,0 z m 316.073197,-0.74675 c 2.26123,-17.07364 -10.74215,-12.60764 -14.74371,-3.43739 -0.97162,-10.68773 5.48619,-41.65467 14.49566,-26.75359 2.1715,7.71806 -15.8905,13.60568 1.32771,11.35898 7.03569,0.88781 1.27717,37.96124 -1.07966,18.832 z M 49.099003,704.26213 c 8.933459,-5.22152 24.653506,0.19881 5.942039,0.58997 l -2.742786,0.0267 -3.199253,-0.61669 0,0 z M 323.15587,693.55316 c -1.68967,-9.70874 8.69799,10.14808 0,0 z m -94.32205,-31.13377 c 13.27186,-2.05478 5.00932,3.9995 0,0 z m 21.73042,-16.83481 c -8.2679,-3.70185 -27.75539,-8.78232 -8.50938,-10.7163 13.02558,-0.18723 25.84391,-20.14067 28.94068,-3.82968 -11.44642,-2.04099 -23.428,11.85687 -8.75526,13.76225 1.19114,7.131 -8.74443,-0.41406 -11.67604,0.78373 z M 240.445,629.30989 c 9.61298,-6.29007 19.56136,1.82288 0,0 z m 49.03938,-12.64203 c -7.89056,-5.33348 -34.84337,-14.53232 -11.07765,-16.18341 8.89637,-4.2249 44.31041,9.15679 27.24074,20.95918 -5.75322,1.11078 -10.99095,-2.89639 -16.16309,-4.77577 z m 9.45039,-7.78174 c -7.75473,-5.34047 -27.53014,-7.26866 -8.67199,-0.21325 7.03058,3.50539 26.53575,8.38075 8.67199,0.21325 z"
         id="path3924"
         inkscape:connector-curvature="0" />
      <path
         style="fill:#42413d"
         d="m 340.08056,993.09348 c 25.85648,-12.48554 47.85848,-32.831 64.86428,-55.9701 14.23026,-18.70797 21.25002,-41.51078 23.08914,-64.73053 0.1945,-19.2676 12.48685,-9.92997 8.72388,3.67203 -2.5714,41.89849 -31.00958,76.54618 -60.2687,104.19061 -6.69644,7.04334 -22.2185,15.24809 -27.66827,17.06934 8.98549,-5.36029 32.15721,-23.50767 9.04179,-10.20834 -1.46109,1.36628 -33.51033,18.18461 -17.78212,5.97699 z M 310.246,967.33031 c 2.15495,-24.80361 18.31552,-45.41863 31.99521,-65.22063 10.00188,-7.35712 -9.23109,18.55246 -11.23551,23.29051 -10.18518,16.46137 -16.80808,34.81864 -21.22494,53.54523 -0.16629,-3.87939 0.27259,-7.74594 0.46524,-11.61511 z m 36.06179,2.24027 c 15.53541,-10.96143 -9.47312,11.65454 0,0 z m -49.65558,0 c 0.83211,-10.03057 -17.68038,-10.76654 -9.3367,-24.77669 2.20723,-7.2537 11.01865,-23.38748 17.34754,-22.05038 4.06968,5.55057 6.48153,25.79005 7.90408,7.49502 -2.87947,-9.47932 0.5527,-15.82238 6.90484,-16.36129 -10.52105,-13.29258 7.78529,-6.59545 8.3379,-19.35591 1.98537,10.42328 12.49592,-2.98742 4.05011,11.29642 -12.27022,18.81958 -19.60052,40.10065 -29.41071,60.09051 -0.34392,0.92742 -5.05448,6.21002 -5.79706,3.66232 z M 175.56277,953.48069 c -12.42107,-9.22948 -47.86284,0.29686 -46.38779,-16.96415 -3.80328,-6.38892 -26.42904,-20.39253 -4.00931,-19.59245 17.02565,-8.02434 35.95862,1.99624 53.3937,-0.036 -19.45221,-11.43995 -45.05711,-7.0566 -65.05951,-13.0542 -5.2851,-10.35518 -30.371864,-14.27511 -36.054723,-30.49131 -10.336871,-15.32371 -0.532098,-34.62378 14.039279,-42.94695 16.652514,-10.71566 38.885604,-9.36259 57.153044,-4.01087 16.58233,3.01762 26.73946,26.39646 38.59207,28.13191 -3.27336,-19.43173 -25.71829,-29.75073 -43.07639,-34.63746 -26.23989,-7.57311 -59.261899,-0.5316 -73.316412,24.69562 -6.285521,15.77352 2.037231,33.79375 9.515188,44.72445 -16.138746,-4.0497 -19.548957,-24.16346 -15.136433,-39.90163 10.022252,-18.84001 26.030646,-35.97868 45.762087,-44.71412 17.57025,-5.9329 32.26143,-12.19549 45.53823,-1.43548 24.78755,13.25379 39.97181,38.14118 63.00281,53.61013 13.87891,-2.39484 28.14696,-9.07713 41.96066,-6.82837 -6.30216,6.17993 -23.73992,25.23529 -4.85444,11.7806 6.06685,-5.47251 26.20143,-25.66678 13.13181,-6.66367 -12.00565,12.21757 -28.8181,28.31814 -37.30963,38.28443 17.52055,-14.03737 -4.69415,17.75684 -3.32334,25.46242 2.86544,17.96493 -12.5314,32.95761 -32.67435,30.5353 -5.23004,8.95795 -10.46448,9.81215 -19.38857,4.59743 l -1.09179,-0.39765 -0.40619,-0.14794 0,0 z m -27.74771,-35.80001 c -18.14979,-1.82946 -1.96523,3.84198 0,0 z m 66.36658,-12.19353 c -1.96319,-4.97433 -23.06029,12.19285 -5.87287,3.77281 l 2.49685,-1.31398 3.37602,-2.45882 0,-10e-6 z m -89.19973,-9.56737 c -10.67523,-3.38237 -22.83023,-5.1256 -6.63341,0.37361 1.17356,0.4781 10.98891,3.18661 6.63341,-0.37361 z m 16.20761,-5.15091 c -10.00073,-8.44 7.43422,14.19477 0,0 z m -9.72092,1.51218 c -8.68717,-7.67442 -13.54164,3.50851 0,0 z m 66.94265,0 c -2.49113,-7.99767 -11.33089,8.60256 0,0 z m -85.04051,-3.77063 c -14.52319,-1.43017 2.87842,3.79576 0,0 z m 97.29026,-5.19047 c 23.62832,-5.14366 -23.52611,-5.72216 -18.26467,3.38136 6.01371,-1.55046 11.96395,-3.49644 18.26467,-3.38136 z M 99.803921,881.30321 c -13.134591,-8.17452 -8.432574,3.30618 2.890159,4.03736 l -0.51701,-1.09539 -2.373149,-2.94197 z m 39.770669,1.92867 c 9.9453,1.13785 24.33842,-21.15321 8.42057,-6.74028 -15.10079,12.26364 -34.60707,3.90052 -49.219478,-4.69633 12.313098,7.8928 25.237668,18.27883 40.798908,11.43661 z m 2.80893,-8.88677 c 16.3006,-17.8313 -26.99181,15.92147 0,0 z M 90.630472,871.5585 c 1.827355,-3.67461 -16.291747,4.4118 -2.32915,4.85152 l 1.804981,-1.60157 0.524169,-3.24995 z m 83.316688,-0.56007 c 10.84015,-9.39743 -18.80126,4.77282 -3.51885,2.23178 l 3.51885,-2.23178 0,0 z m -54.00924,-4.26114 c -16.35818,-14.42412 5.60067,12.89474 1.97422,2.08945 l -1.97422,-2.08945 z m 17.7579,2.02086 c 7.35782,-10.11382 -17.37472,6.74322 -3.65212,2.3733 l 3.65212,-2.3733 z m -52.257737,-9.13557 c -7.598559,-2.65646 1.280743,17.26601 0.89444,1.67964 l -0.89444,-1.67964 0,0 z m 44.104927,4.53866 c -0.78656,-9.24767 -8.22279,10.58688 0,0 z m -19.91737,-8.28467 c -10.607491,-7.34299 -4.9903,17.85024 0,0 z m 28.07018,2.80034 c -12.25785,-13.9035 4.38778,14.30374 0,0 z m -16.01404,-1.99454 c 7.75583,-10.75342 -18.27584,7.43772 0,0 z M 93.807756,845.65486 c 7.861954,-6.12611 2.219458,-19.7364 -5.104063,-7.93977 18.807057,-7.2117 -18.058457,27.49361 2.508753,11.25627 l 2.59531,-3.3165 0,0 z m 47.001684,5.18109 c -14.44298,-9.26735 -3.06398,3.96858 2.44269,2.35995 l -2.44269,-2.3599 0,-5e-5 z m 12.45444,0.27429 c -11.7051,-10.98237 -12.78895,-3.09514 0,0 z m -7.78403,-14.83609 c -12.82222,-8.5775 -2.60622,7.66014 0,0 z m -28.45334,-5.60069 c -0.64405,-11.08048 -7.88136,10.45692 0,0 z m 14.44209,1.25236 c -6.1942,-11.706 -6.9541,8.78261 0,0 z m 133.88529,120.84269 c -8.46986,-12.1056 -35.89043,-12.01296 -31.93695,-31.68378 17.86524,-2.53441 40.44835,12.158 48.35735,-12.76793 7.39958,-11.65129 15.78682,-30.78668 30.4565,-30.60931 -10.52577,22.32446 -29.11433,41.89957 -32.38483,67.33022 -2.54377,7.43154 -7.68066,22.75139 -14.49207,7.7308 z m 56.045,1.67051 c 8.17752,-18.8583 15.57094,-40.58509 33.18033,-52.70802 10.39798,3.53764 5.64014,12.11359 15.05861,10.73819 -20.88547,2.37952 -25.6317,23.6945 -35.86529,37.76169 -2.36311,0.91801 -11.84364,11.52299 -12.37365,4.20814 z m 52.9314,-10.22991 c -0.005,-11.73667 30.72127,-44.75755 26.86995,-17.5205 -1.59794,8.25506 -21.24406,29.34473 -26.86995,17.5205 z M 83.660787,920.35523 c -17.519318,-14.8747 35.446333,4.55641 4.89925,2.18197 l -2.378482,-0.93158 -2.520768,-1.25039 z M 60.225786,905.24316 c -6.794629,-11.82252 -15.594558,-33.88359 -13.350289,-42.42189 4.301119,15.61285 21.389565,41.37689 19.212686,51.75209 -2.221919,-2.93603 -4.041801,-6.1402 -5.862397,-9.3302 z m 37.543191,7.9461 c 13.587013,-16.57039 2.414343,12.76152 0,0 z M 393.79715,900.12202 c 1.43594,-19.83459 2.09959,16.71813 0,0 z m -44.27674,-6.85271 c 6.61786,-14.02413 17.12949,-9.63532 0,0 z M 41.419682,844.3018 c 1.788656,-10.03435 2.87756,8.14998 0,0 z m 307.010998,-0.44024 c 15.85942,-11.76564 10.47122,8.45876 0,0 z m -20.80456,-7.51711 c 8.81227,-5.53035 14.12744,8.55535 0,0 z m -28.02251,-3.67867 c 6.15617,-8.59274 26.43731,-5.66759 18.62144,0.64884 -6.19705,0.089 -12.48605,0.41282 -18.62144,-0.64884 z m -71.61306,-25.80964 c -22.40706,-12.07533 -44.14447,-26.99019 -60.99386,-46.19095 -6.33886,-8.03147 -4.49612,-38.93926 -17.04187,-17.27095 -13.77339,21.76219 -37.35273,34.83125 -57.515853,50.02283 -5.490338,11.07528 -38.441971,4.51321 -14.55264,0.0878 10.916337,1.40864 31.676243,-16.94429 10.456135,-6.89898 11.553999,-7.53548 13.542448,-7.32614 20.107168,-18.91188 -7.02175,5.43041 -27.20353,18.42447 -11.026668,4.20461 12.248428,-9.54599 30.949118,-25.81168 27.962988,-38.24815 -3.94387,-12.46918 -36.439451,-24.18709 -33.0144,-26.62751 12.81966,4.60036 10.64832,3.9921 3.514826,-4.77172 22.016624,-1.50506 29.190604,21.88855 44.402774,29.91634 2.34175,-12.79907 -27.9646,-27.35808 -22.82655,-31.20873 16.83323,10.13389 34.97565,11.55995 49.52275,-1.15306 13.59041,-2.24424 32.73357,-4.91055 43.37269,-3.07845 -4.78224,4.27677 -30.11158,3.87214 -16.46218,6.7467 -7.67627,4.3649 -29.66832,25.67379 -21.02253,27.32836 11.93409,-19.03339 32.6887,-30.30688 54.74956,-32.55312 14.60313,1.24437 42.64119,-10.87399 49.83436,2.47677 1.81129,5.45769 28.12491,7.95571 21.03023,8.98796 -31.73588,1.17468 -65.13487,-3.6469 -94.9765,9.3092 -18.71977,6.91283 -16.82822,29.03519 -5.44381,33.65948 -9.17898,-11.40886 -17.73705,2.2151 -4.39154,6.10399 8.14785,7.10236 30.99537,29.08464 34.93765,23.27281 -9.36443,-14.07372 16.22307,11.78255 24.34747,4.05614 20.31778,-1.88416 41.93007,-2.36515 60.46729,-11.6252 14.9906,-2.93989 13.76352,-24.73041 13.78092,-40.40366 3.47614,-14.97796 -17.84965,-13.75099 -20.18559,-23.12481 20.19374,1.03168 34.05644,18.55339 29.94358,38.39078 -0.72735,6.87878 3.03523,16.26546 -5.9362,18.53942 -15.73944,11.21247 -34.8101,15.39408 -52.96448,20.82314 5.58058,4.13419 17.82834,6.40931 2.05944,11.57825 -15.73571,8.00401 -34.99385,13.43447 -52.13516,6.56261 z M 182.36082,702.8811 c -9.9179,-8.92472 3.2195,10.46427 0,0 z M 41.886764,778.76784 c -16.755606,-7.8883 -9.919457,-29.78479 -9.380177,-44.67992 0.588811,-4.27206 1.703359,-22.39689 1.64513,-9.61995 0.547961,14.75344 -0.584116,31.17475 5.619766,44.07235 -18.458414,-4.71059 19.310106,16.59707 2.115281,10.22752 z M 356.49664,708.57841 c -0.31494,-14.5915 4.38888,4.57244 0.39638,5.63919 l -0.28991,-2.12257 -0.10647,-3.51662 z M 34.946649,707.69796 c 10.082284,-7.38424 8.746103,3.24454 0,0 z m 305.379731,-2.29328 c 1.7889,-10.03433 2.87708,8.15006 0,0 z m 3.11361,-12.98945 c -4.58206,-14.16214 22.41407,-12.0015 6.48765,-6.43167 -2.46529,3.65881 -6.6343,19.41926 -6.48765,6.43167 z m 7.96904,1.60138 c 7.88138,-10.45693 0.64406,11.08049 0,0 z m -102.4016,-4.8441 c 18.14978,-1.82944 1.96525,3.84196 0,0 z m 38.92014,-73.71373 c -10.8355,0.0607 -19.36378,-22.08739 -4.44834,-7.8328 3.61278,0.49035 39.5181,16.18748 13.44854,11.56798 -3.03281,-1.16536 -6.01615,-2.45212 -9.0002,-3.73518 z m 10.11924,-7.81884 c -6.31734,-4.07189 -24.13824,-13.93339 -6.99568,-6.42094 6.09872,0.30158 22.02945,13.24304 6.99568,6.42094 l 0,0 z"
         id="path3922"
         inkscape:connector-curvature="0" />
      <path
         style="fill:#31302e"
         d="m 346.30779,989.97275 c 10.08228,-7.38424 8.74608,3.24455 0,0 z m 12.45444,-6.38593 c 7.09943,0.97309 23.29048,-9.43652 7.30745,-2.26637 3.48559,-13.8303 23.95757,-14.42825 26.29829,-27.03758 19.01872,-20.43487 31.25375,-47.33232 35.57893,-74.8554 2.72427,-10.97791 10.28443,-18.29599 8.29444,-1.71374 -0.40745,31.75948 -21.20331,58.41505 -39.75537,82.49074 -2.53736,8.43221 -23.95325,8.8532 -20.35686,15.52088 23.80952,-19.34922 -6.3894,18.77913 -17.36688,7.86147 l 0,0 z M 310.583,965.96233 c 4.62982,-25.05562 19.44854,-47.2702 35.32411,-66.57663 -10.04511,19.06022 -23.87311,37.68144 -30.95322,58.82238 -2.12907,2.73186 -6.97863,28.68923 -5.14277,14.55097 0.25729,-2.26557 0.51459,-4.53115 0.77188,-6.79672 z m -7.65562,-3.31304 c -13.36346,-2.20027 -24.64053,-24.03922 -3.89461,-24.2466 17.617,-1.93921 8.89054,16.90553 3.89461,24.2466 z m -119.9438,-7.47705 c -10.81703,-8.60178 -43.94989,-4.98261 -43.34896,-14.71663 -3.83544,-2.28018 -15.68801,0.0838 -5.97676,-5.42427 -5.27537,-4.60947 -16.96873,-9.10409 -18.85344,-15.05423 21.01861,-3.67374 44.5383,-1.00471 62.03879,12.10413 11.06898,7.1466 18.14153,-0.95148 2.64752,-2.71145 -5.2639,-11.75904 38.09961,7.72443 13.21758,-3.51027 -7.21202,-2.01103 -33.80156,-7.71675 -11.38483,-5.82267 14.48936,-1.89987 -17.99132,-10.22046 -24.35648,-10.55684 -11.62879,-3.91113 -35.0137,0.23307 -39.95181,-8.88454 15.64803,-2.16051 31.14425,7.93397 45.27825,-6.47638 17.13715,-9.23234 30.45267,-34.89377 20.99704,-52.96631 -18.21554,-20.58815 -48.37153,-26.92712 -74.65694,-23.3264 -9.671057,-0.0619 -34.113305,18.1054 -32.50882,15.68479 8.148456,-9.12473 18.942381,-16.61802 26.1243,-20.50716 13.26895,-9.9256 31.37871,-16.25526 43.47042,-6.0929 11.81623,-1.14336 -14.88048,-4.00606 1.91383,-3.71877 11.60968,7.2175 28.68324,11.94818 39.18464,26.73605 9.04034,14.50682 23.86463,29.05838 43.09053,26.60013 6.62561,-2.91617 46.06059,-11.42783 25.3516,-0.65256 -7.75131,4.38287 -15.5362,21.45655 -1.46441,8.86331 3.48472,-2.00651 19.85404,-17.24593 10.9545,-7.16474 -10.80153,14.28501 -24.08149,26.7598 -37.64655,37.96809 9.31922,-4.32238 16.2293,-7.67519 8.46087,4.00343 -7.61693,10.00548 -9.14911,36.96807 -14.05155,38.91109 -5.87667,-9.45889 -17.94643,-6.84411 -4.73699,1.24401 2.48136,15.64846 -28.12037,0.93636 -29.07069,17.48064 l -2.53547,-0.47478 -2.18617,-1.53463 0,-1.4e-4 z M 213.9793,906.7734 c 22.89557,-15.3241 -31.01068,9.40821 -6.27949,3.44706 l 2.89382,-1.51373 3.38567,-1.93333 z m -15.56805,-12.25207 c 13.70152,-6.98562 -18.91448,-2.96937 -1.03778,1.59646 1.58143,2.40215 3.48949,-1.21389 1.03778,-1.59646 z m -6.37528,-6.54846 c 9.20285,-7.76269 26.37181,-1.83984 31.59849,0.41784 -3.73178,-18.64212 -39.90103,-4.15024 -36.12028,1.59398 l 2.53689,-0.67146 1.9849,-1.34036 z m -27.87445,-74.10148 c -8.95615,-7.80323 -1.68782,8.06556 0,0 z m 102.5745,135.83352 c -5.58967,-7.44289 -34.36382,-23.72163 -8.32782,-22.28008 22.288,6.61118 25.81744,-26.43348 39.39868,-37.93956 3.29351,-8.50159 18.4347,-18.08116 8.47965,-2.62564 -14.01354,19.27322 -23.1743,41.14511 -30.11555,63.76188 -1.88849,6.48049 -8.4125,4.92726 -9.43496,-0.9166 z m 57.1514,4.10734 c -5.50263,-18.9845 22.74803,-5.15046 0,0 z m 50.51124,-9.44478 c -0.0999,-10.98499 24.8337,-40.42564 27.66662,-22.47134 -0.97569,8.58588 -20.27876,34.4619 -27.66662,22.47134 z m -138.21064,-15.1545 c -6.16527,-17.08867 14.63075,8.1477 0,0 l 0,0 z m 97.91114,0.21932 c 1.78892,-10.03433 2.87705,8.15007 0,0 z M 87.878042,919.23467 c 8.812266,-5.53034 14.127468,8.55531 0,0 z m 65.385838,-2.10084 c 9.6545,-4.28378 17.45266,5.33068 1.82925,1.43407 l -1.33788,-0.64565 -0.49137,-0.78842 z m 186.9157,0.47525 c 1.46726,-8.50595 20.08399,-18.5536 15.65154,-6.46791 -11.85143,-7.77537 1.22057,6.11183 -11.45169,5.25767 0.71016,-0.16454 -4.09824,3.71603 -4.19985,1.21024 z M 100.33249,913.6959 c 6.21175,-14.39748 3.11693,9.99899 0,0 z m -38.913341,-7.18687 c -5.058226,-8.71547 -15.917926,-33.89894 -11.150253,-36.07078 2.855765,14.06272 15.710507,32.86933 15.657535,43.14413 -1.688541,-2.23559 -3.088845,-4.66432 -4.507282,-7.07335 z m 76.276671,-9.74742 c 2.74947,-7.89692 8.92319,8.86565 0,0 z m -39.667542,-3.46795 c -5.91384,-14.34413 12.810812,8.71365 0,0 z m 14.673052,-6.96307 c -9.43306,-1.66102 -30.966531,-22.25629 -9.45206,-10.29704 7.67533,11.50449 27.90984,6.81939 33.72301,12.82632 -7.79869,2.64744 -16.83889,0.3724 -24.27095,-2.52928 z m 28.10811,-0.63814 c 7.61095,-1.58534 26.81837,-23.95764 13.36907,-23.27649 -1.97019,25.53847 -39.75364,25.3151 -51.92147,7.44449 -13.015736,-8.90164 9.67405,-32.49732 12.50022,-23.0909 -18.801833,8.36036 32.09991,-1.10375 8.2745,5.37192 -7.82145,6.14447 -25.134466,-4.26027 -18.41059,13.2674 7.68747,19.67119 41.71034,18.44634 45.69355,-3.24237 16.23851,-12.55235 13.641,10.17545 6.96079,16.47974 -3.73876,2.71514 -12.05739,10.6425 -16.46607,7.04621 z m -23.71708,-13.06364 c -10.31422,-2.41788 -9.63962,-23.79277 -2.80012,-6.83289 6.80773,5.73907 26.27519,14.23437 5.70781,8.33974 l -2.90769,-1.50685 z m 17.48985,-0.51024 c 7.7796,-9.01233 7.84527,8.75963 0,0 z m -59.158613,-3.22819 c 5.762378,-14.5194 5.694213,11.50617 0,0 z m 43.823813,-3.17905 c -6.02746,-6.63425 4.43562,-12.55599 2.34508,-2.64161 6.84269,1.62262 1.72175,10.82362 -2.34508,2.64161 z m -28.18026,-7.59449 c 1.315615,-21.90124 30.47444,-27.55901 46.92323,-20.46718 9.39479,-2.77797 31.36266,23.14303 13.9613,12.62066 -12.06426,-12.45498 -36.9173,-16.15725 -50.30359,-3.02393 -8.028489,2.56383 -10.896209,34.76755 -10.58094,10.87045 z m 39.47149,5.79327 c -1.21561,0.1231 -10.19143,-8.09413 0.26435,-6.14194 8.05622,2.35747 -0.449,16.9677 -0.26435,6.14194 z m 10.2708,-0.48823 c -4.92659,-4.87827 -7.99702,-17.02252 0.84208,-7.19578 3.72797,1.95139 3.46089,17.55989 -0.84208,7.19578 z m -68.499454,-4.74497 c 2.749483,-7.8969 8.92318,8.86567 0,0 z m 70.255184,-6.56266 c -15.23267,-14.05123 18.12513,3.60793 2.67471,1.89523 l -2.67471,-1.89523 z m 31.94756,-0.88809 c -1.03553,-15.39101 6.55693,13.57923 0,0 z m -50.82816,-5.99091 c -11.14935,-6.65764 25.82547,2.99452 2.90997,0.86279 l -2.90997,-0.86279 z m -45.147362,-3.21127 c 5.706773,-3.9377 9.267031,0.48815 9.336898,-8.966 10.680557,-6.94359 7.602308,-1.62779 0.802245,3.80767 3.668685,4.56054 -9.816875,10.63145 -10.139143,5.15833 z m 68.499452,-12.84404 c 7.54706,-6.46484 10.0512,7.24988 0,0 z m 160.35098,0.37338 c 12.82221,-8.57747 2.60626,7.66013 0,0 z M 131.4686,826.19291 c 8.111,-12.39531 2.55312,11.69964 0,0 z m -15.56806,-1.12014 c -7.68455,-7.78541 15.17235,6.59107 0,0 z m 116.5451,-18.08573 c -22.75808,-9.77816 -43.69306,-24.72005 -61.10773,-42.30805 -6.27669,-14.28395 -14.44399,-33.71714 -11.08448,-46.01934 4.72433,-11.202 25.67868,-14.78737 36.50458,-17.90665 -5.18282,11.37225 -21.71687,1.01827 -19.93767,15.93398 -6.23606,5.7854 -16.27871,33.20716 -4.99976,29.11531 -1.98691,-22.25332 20.95603,-36.11421 39.12326,-43.19508 18.02181,-4.01914 44.48398,-12.58046 59.12452,0.5541 8.69416,1.40561 41.04787,6.7247 14.19264,6.4609 -26.20215,1.55987 -54.34879,-3.93048 -78.83129,7.61894 -18.40513,7.71687 -27.73986,33.87582 -7.61611,45.46478 7.0836,4.51635 10.48647,12.26159 3.19259,9.92125 18.62287,7.35149 37.52494,17.67354 58.60088,14.12492 6.02907,0.81559 26.4007,-4.81687 12.20068,2.97469 20.51084,13.23462 -17.46807,17.9398 -28.02312,18.53807 -3.81221,-0.016 -7.60743,-0.52886 -11.33899,-1.27782 z m -52.5307,-63.12428 c 0.28178,-9.2738 7.38799,-24.13199 -4.17606,-9.32647 -5.66069,7.16766 5.91431,29.34871 4.17606,9.32647 z m 11.9003,-23.07919 c -0.78659,-9.24768 -8.22276,10.58687 0,0 z M 69.723633,798.47133 c 6.24235,-3.72541 27.323031,-10.30927 33.205957,-19.1058 4.29435,-9.2987 28.09175,-15.42312 25.20958,-34.25976 4.32905,-23.63317 -20.0109,-27.83155 -32.405181,-41.53368 10.888521,-2.5248 32.826651,15.25949 38.312741,30.47489 3.44082,-1.81527 11.18554,19.33885 9.35443,2.71036 -0.51461,-13.56823 -25.83016,-29.32286 -23.24459,-34.29892 15.34299,0.93586 24.91495,24.26771 35.90956,15.64116 -8.02777,16.57127 -8.90078,38.73989 -28.65411,49.00174 -15.37673,11.58406 -30.041353,25.16774 -48.025719,32.51776 -3.225109,0.90532 -6.703135,0.30035 -9.662668,-1.14775 z m 39.949687,-22.81685 c -6.49164,-5.32993 -8.71511,8.38816 0,0 z m 1.55681,-64.83579 c -8.95614,-7.80324 -1.68783,8.06556 0,0 z m 202.5177,62.88253 c 0.23599,-10.14082 7.09824,6.58704 0,0 z m -207.57152,-8.55584 c 4.69876,-10.88672 26.14055,-8.76892 7.77248,-4.73726 -14.131021,10.90681 14.69113,-2.17949 -0.8029,7.98517 -8.01998,0.0985 -17.853153,6.52493 -6.96958,-3.24791 l 0,0 z m 216.26044,5.49067 c 6.48576,-13.65801 7.12206,-39.59238 -3.39708,-53.00832 -15.87435,-11.06008 23.00851,6.51006 17.69848,17.64203 1.01868,12.13724 1.41809,36.69781 -14.3014,35.36629 z M 34.946649,764.82648 c -11.689325,-1.1523 1.011142,-31.75576 -1.580701,-37.39574 0.693429,10.75167 3.929415,33.89101 1.580701,37.39574 z M 355.89444,714.36579 c 1.78891,-10.03433 2.87706,8.15003 0,0 z M 343.43999,694.2033 c 1.7889,-10.03433 2.87708,8.15005 0,0 z m -55.51242,-78.91125 c -8.50679,-0.66442 -19.8875,-16.92928 -4.9313,-6.826 7.93619,4.3332 30.80031,18.35583 7.88541,8.09684 l -2.95411,-1.27084 0,0 z m 7.00563,-9.91831 c -15.93173,-8.12319 8.36856,-1.22844 10.57363,4.21665 -3.70677,-0.91178 -7.09355,-2.71566 -10.57363,-4.21665 z"
         id="path3920"
         inkscape:connector-curvature="0" />
      <path
         style="fill:#131211"
         d="m 371.21668,982.4817 c 9.34289,-7.37731 11.71375,-15.29232 -1.51513,-5.8484 2.3708,-2.43184 24.06572,-27.84297 22.97622,-16.6684 11.41085,-10.25427 10.34022,-7.41195 1.44057,2.74535 -6.95294,6.87508 -14.05135,16.04782 -22.90166,19.77145 z m 17.9702,-19.77049 c -10.49312,3.54986 -7.54558,13.01705 0.29279,0.83528 l -0.29279,-0.83528 z m -79.63544,6.85937 c -0.51464,-10.40259 4.45546,1.16975 0.98429,3.76621 l -0.48118,-0.18378 -0.50311,-3.58243 z M 173.50235,950.3709 c -6.88029,-2.17814 -17.97249,-4.94366 -4.32522,-4.2591 12.41284,0.30752 10.19403,-0.95051 -0.8267,-3.75636 -2.65261,-7.46757 41.27979,-4.46578 13.58947,-13.21349 -4.40764,-4.36236 32.78728,1.07702 32.97251,13.31654 -7.8783,8.29808 -26.07127,-2.72606 -30.06214,11.54877 -3.78264,-1.21212 -7.56528,-2.42424 -11.34792,-3.63636 z m 226.96051,-3.38631 c 3.61939,-10.00908 7.37657,-5.37379 12.99564,-16.05725 10.87292,-4.54068 -15.6324,30.20644 -12.99564,16.05725 z m -26.13257,-1.59676 c 1.74746,-9.95298 20.46956,-37.73777 26.46718,-25.56494 -0.31454,10.37109 -17.57878,32.52385 -26.46718,25.56494 z m -100.83226,-1.16118 c -4.40468,-9.52947 18.40487,-43.33541 8.73358,-19.29222 -2.9298,5.87009 -2.63194,16.25062 -8.73358,19.29222 z m 48.16739,-8.26021 c 5.62162,-19.1501 9.20027,-2.00355 0,0 z M 206.28314,929.1288 c -11.11133,-5.66208 -20.6362,-15.28221 -0.0879,-16.14629 11.61557,-0.0498 16.41667,-14.53528 28.12462,-19.52607 12.16757,-10.34681 -0.39159,5.2116 -1.9645,11.16578 -6.79494,11.41284 -5.49621,40.86708 -26.07225,24.50658 z m 9.25297,-12.20471 c -7.77963,-9.01231 -7.84522,8.75965 0,0 z m -63.18667,9.79666 c -9.86476,-8.61113 -31.82513,3.95538 -34.13337,-6.09417 11.19493,0.70594 35.45215,-3.14885 39.76043,6.2166 -1.18468,2.19331 -4.24578,1.02834 -5.62706,-0.12243 z m 259.34418,0.27647 c 11.13855,-15.86599 15.96534,-34.0443 22.3984,-51.90308 1.97098,-13.41273 1.96895,-3.90254 2.08805,4.20026 -1.82775,14.87299 -4.60071,31.74226 -16.35267,42.73528 1.29965,4.10365 -0.29546,8.77194 -8.13378,4.96754 z M 180.50914,910.66955 c -0.38869,-7.29272 -26.22141,3.02543 -13.1867,-4.2001 -8.18875,-7.07556 28.64443,6.32511 12.95485,-10.82796 -14.94518,-5.05229 19.64644,-28.17087 3.37324,-9.45006 -4.05681,14.18158 24.49047,-8.01011 26.56163,0.57833 8.69448,-0.95081 20.43445,10.67484 11.66805,-5.33115 -5.98301,-2.16788 -30.02803,-6.19663 -9.90964,-5.56361 15.64479,3.31147 8.8241,-20.98132 27.71167,-13.5374 4.16445,0.63203 -7.89314,-8.19718 5.73915,-6.12191 21.35725,-10.40542 -9.43404,14.87908 -7.85653,24.63498 8.24458,-6.09985 26.25627,-26.04319 11.79115,-5.30549 -10.78118,8.75964 -29.58989,28.09792 -41.36886,21.89772 8.65885,-1.18515 18.21013,-3.42763 4.44228,-7.25234 -17.04985,-7.01304 -38.09778,12.35466 -11.24192,9.31829 29.51243,-1.29556 -21.49677,22.0858 -20.67837,11.1607 z m -36.58609,-3.56542 c 9.91622,-6.41026 19.12786,1.90201 0,0 z m -17.8384,-2.73493 c 13.27206,-2.05457 5.00895,3.99968 0,0 z m 40.47695,-8.9611 c 13.27206,-2.0546 5.00895,3.99969 0,0 z m -49.81779,-8.96111 c 13.27205,-2.05459 5.00898,3.99969 0,0 z m -14.99375,-6.15334 c -12.629193,-9.26106 1.4197,-5.89223 4.63667,1.61797 l -1.93285,-0.0808 -2.70382,-1.53721 z m 20.37771,0.78602 c -7.68458,-7.78538 15.17234,6.59105 0,0 z m 18.68167,-3.36041 c 15.5354,-10.96145 -9.47312,11.65453 0,0 z m -6.22723,-5.46847 c 6.97084,-8.57233 8.30543,4.98584 0,0 z m 16.05968,-6.85305 c 2.66275,-12.06587 1.86956,11.75791 0,0 z m -58.865036,-5.60069 c 1.436065,-19.83455 2.099373,16.71811 0,0 z m 8.801446,2.42696 c 1.78865,-10.03436 2.87756,8.14998 0,0 z m 34.00391,-8.02765 c 2.74947,-7.89692 8.9232,8.86568 0,0 z m 8.94368,-3.92048 c -9.42931,-9.0612 14.85928,8.17153 2.75105,2.31403 l -2.75105,-2.31403 z m 5.11398,-4.41064 c -11.65762,-11.18054 3.3186,-1.16775 7.31504,4.09933 -0.9898,3.34949 -6.20827,-3.29869 -7.31504,-4.09933 z m 39.65214,-1.88152 c -12.16789,-12.64384 8.3945,-1.3258 3.47442,2.21463 l -3.47442,-2.21463 0,0 z m 35.02813,-41.72955 c -19.76152,-10.40522 -37.67935,-24.68613 -52.75826,-41.13062 -3.5436,-16.18526 21.31786,20.29661 17.58947,5.99922 8.0534,7.00884 12.7286,20.74587 27.3341,11.07687 -9.43432,10.6376 -5.81666,9.76325 8.49911,15.60468 9.45079,6.18158 31.686,2.33864 47.00191,5.50527 -11.83741,7.94551 -33.56417,5.90642 -47.66633,2.94458 z M 77.240243,795.77976 c 18.618117,-6.45892 33.711607,-20.16927 49.173277,-31.95068 10.35175,-13.17658 26.59342,-25.00243 10.38167,-42.93205 -3.1247,-6.95225 -26.36697,-22.98986 -6.85533,-12.83364 14.76538,9.10792 25.61108,30.49999 11.18643,44.91757 -15.98031,17.0504 -35.104,31.38018 -55.179282,43.22587 -5.403913,2.96343 -27.386378,1.97075 -10.345667,-0.0847 l 1.137396,-0.2376 0.501506,-0.10477 0,0 z M 328.25027,744.42283 c -5.64279,-15.88732 10.83819,-23.09441 8.32638,-4.05504 -0.62462,5.37563 1.42778,24.25219 -4.49436,16.09652 -4.07628,10.29717 -3.54966,-10.70539 -3.83202,-12.04148 z M 32.879853,737.702 c -0.340856,-22.79233 4.037358,6.1627 0.358772,9.39866 -0.348229,-3.12123 -0.339984,-6.26376 -0.358772,-9.39866 z m 150.574777,-3.92048 c 10.06282,-16.47247 31.05206,-29.84881 49.72494,-26.46389 -19.60872,2.35819 -38.65648,13.30209 -50.11319,30.1202 -2.13325,2.13019 -0.0858,-7.1573 0.38825,-3.65631 z m -17.61224,-5.26457 c 3.41022,-7.45464 14.99912,-21.13047 20.52231,-20.96978 -8.16612,4.80325 -13.14104,18.23765 -20.52231,20.96978 z m 24.78483,-16.41328 c 13.46119,-8.17063 34.26251,-14.33334 47.40268,-13.55005 -16.72692,2.67763 -31.12615,9.51978 -47.40268,13.55005 z m 102.31571,-95.50954 c -13.89595,-7.95 0.80883,-1.17459 7.25908,2.04003 7.81018,5.83096 -6.35298,-0.54957 -7.25908,-2.04003 z"
         id="path3918"
         inkscape:connector-curvature="0" />
    </g>
  </g>
</svg>
