<?xml version="1.0" encoding="UTF-8" standalone="no"?>
<svg
   xmlns:dc="http://purl.org/dc/elements/1.1/"
   xmlns:cc="http://creativecommons.org/ns#"
   xmlns:rdf="http://www.w3.org/1999/02/22-rdf-syntax-ns#"
   xmlns:svg="http://www.w3.org/2000/svg"
   xmlns="http://www.w3.org/2000/svg"
   xmlns:sodipodi="http://sodipodi.sourceforge.net/DTD/sodipodi-0.dtd"
   xmlns:inkscape="http://www.inkscape.org/namespaces/inkscape"
   sodipodi:docname="hobbit_foot.svg"
   height="100%"
   width="100%"
   inkscape:version="0.48.4 r9939"
   version="1.1"
   id="svg2"
   viewBox="0 0 512 512"
   inkscape:export-filename="C:\Users\Chris\Documents\GitHub\bot-game\assets\clown_shoes.png"
   inkscape:export-xdpi="12.832031"
   inkscape:export-ydpi="12.832031">
  <sodipodi:namedview
     pagecolor="#ffffff"
     bordercolor="#666666"
     borderopacity="1"
     objecttolerance="10"
     gridtolerance="10"
     guidetolerance="10"
     inkscape:pageopacity="0"
     inkscape:pageshadow="2"
     inkscape:window-width="1158"
     inkscape:window-height="1254"
     id="namedview44"
     showgrid="false"
     inkscape:zoom="0.50339926"
     inkscape:cx="372.81628"
     inkscape:cy="577.11044"
     inkscape:window-x="228"
     inkscape:window-y="16"
     inkscape:window-maximized="0"
     inkscape:current-layer="svg2" />
  <metadata
     id="metadata48">
    <rdf:RDF>
      <cc:Work
         rdf:about="">
        <dc:format>image/svg+xml</dc:format>
        <dc:type
           rdf:resource="http://purl.org/dc/dcmitype/StillImage" />
        <dc:title></dc:title>
      </cc:Work>
    </rdf:RDF>
  </metadata>
  <defs
     id="defs46">
    <linearGradient
       id="linearGradient3926">
      <stop
         id="stop3928"
         offset="0"
         style="stop-color:#ffffff;stop-opacity:0;" />
      <stop
         style="stop-color:#ffffff;stop-opacity:0.49803922;"
         offset="0.5"
         id="stop3934" />
      <stop
         id="stop3930"
         offset="1"
         style="stop-color:#ffffff;stop-opacity:0;" />
    </linearGradient>
    <filter
       id="filter3108"
       x="0"
       y="0"
       width="1"
       height="1"
       inkscape:label="Lightness-Contrast"
       inkscape:menu="Color"
       inkscape:menu-tooltip="Increase or decrease lightness and contrast"
       color-interpolation-filters="sRGB">
      <feFlood
         id="feFlood3110"
         result="result1"
         flood-opacity="1"
         flood-color="rgb(0,0,0)" />
      <feBlend
         id="feBlend3112"
         in2="SourceGraphic"
         mode="normal"
         result="result2" />
      <feComposite
         id="feComposite3114"
         in2="SourceGraphic"
         k2="1"
         operator="arithmetic"
         result="result3" />
      <feComposite
         id="feComposite3116"
         in2="SourceGraphic"
         operator="in" />
    </filter>
    <filter
       id="filter7264"
       inkscape:label="Fluorescence"
       inkscape:menu="Color"
       inkscape:menu-tooltip="Oversaturate colors which can be fluorescent in real world"
       x="0"
       y="0"
       width="1"
       height="1"
       color-interpolation-filters="sRGB">
      <feColorMatrix
         id="feColorMatrix7266"
         type="hueRotate"
         values="0" />
      <feColorMatrix
         id="feColorMatrix7268"
         type="saturate"
         values="1" />
      <feColorMatrix
         id="feColorMatrix7270"
         type="matrix"
         values="2 -1 0 0 0 0 2 -1 0 0 -1 0 2 0 0 0 0 0 1 0 " />
    </filter>
    <filter
       id="filter7746"
       inkscape:label="Fluorescence"
       inkscape:menu="Color"
       inkscape:menu-tooltip="Oversaturate colors which can be fluorescent in real world"
       x="0"
       y="0"
       width="1"
       height="1"
       color-interpolation-filters="sRGB">
      <feColorMatrix
         id="feColorMatrix7748"
         type="hueRotate"
         values="0" />
      <feColorMatrix
         id="feColorMatrix7750"
         type="saturate"
         values="1" />
      <feColorMatrix
         id="feColorMatrix7752"
         type="matrix"
         values="2 -1 0 0 0 0 2 -1 0 0 -1 0 2 0 0 0 0 0 1 0 " />
    </filter>
    <filter
       id="filter11635"
       inkscape:label="Fluorescence"
       inkscape:menu="Color"
       inkscape:menu-tooltip="Oversaturate colors which can be fluorescent in real world"
       x="0"
       y="0"
       width="1"
       height="1"
       color-interpolation-filters="sRGB">
      <feColorMatrix
         id="feColorMatrix11637"
         type="hueRotate"
         values="0" />
      <feColorMatrix
         id="feColorMatrix11639"
         type="saturate"
         values="1" />
      <feColorMatrix
         id="feColorMatrix11641"
         type="matrix"
         values="2 -1 0 0 0 0 2 -1 0 0 -1 0 2 0 0 0 0 0 1 0 " />
    </filter>
  </defs>
  <rect
     style="opacity:0.98999999;fill:#0c0000;fill-opacity:1;fill-rule:nonzero;stroke:none"
     id="rect3171"
     width="516.97894"
     height="524.13165"
     x="-0.23968305"
     y="-5.1220188" />
  <path
     sodipodi:type="arc"
     style="opacity:0.98999999000000005;fill:#ffffff;fill-opacity:1;fill-rule:nonzero;stroke:none"
     id="path5297"
     sodipodi:cx="107.45679"
     sodipodi:cy="389.44308"
     sodipodi:rx="39.330589"
     sodipodi:ry="43.895748"
     d="m 146.21337,381.97105 a 39.330589,43.895748 0 0 0 -0.005,-0.031 l -38.75177,7.50306 z"
     sodipodi:start="6.11213"
     sodipodi:end="6.1114127" />
  <path
     sodipodi:type="arc"
     style="opacity:0.98999999;fill:#ffffff;fill-opacity:1;fill-rule:nonzero;stroke:none"
     id="path5299"
     sodipodi:cx="117.6406"
     sodipodi:cy="447.0343"
     sodipodi:rx="14.397805"
     sodipodi:ry="16.504801"
     d="m 131.82828,444.22482 a 14.397805,16.504801 0 0 0 -0.002,-0.0117 l -14.18592,2.82115 z"
     sodipodi:start="6.11213"
     sodipodi:end="6.1114127" />
  <path
     sodipodi:type="arc"
     style="opacity:0.98999999;fill:#ffffff;fill-opacity:1;fill-rule:nonzero;stroke:none"
     id="path5301"
     sodipodi:cx="364.86145"
     sodipodi:cy="396.11523"
     sodipodi:rx="24.932785"
     sodipodi:ry="25.986282"
     d="m 389.43036,391.69179 a 24.932785,25.986282 0 1 1 -0.003,-0.0184 l -24.56586,4.44181 z"
     sodipodi:start="6.11213"
     sodipodi:end="12.394598" />
  <path
     sodipodi:type="arc"
     style="opacity:0.98999999;fill:#ffffff;fill-opacity:1;fill-rule:nonzero;stroke:none"
     id="path5303"
     sodipodi:cx="435.797"
     sodipodi:cy="350.46365"
     sodipodi:rx="15.100137"
     sodipodi:ry="21.06996"
     d="m 450.67676,346.87708 a 15.100137,21.06996 0 1 1 -0.002,-0.0149 l -14.87791,3.60147 z"
     sodipodi:start="6.11213"
     sodipodi:end="12.394598" />
  <path
     sodipodi:type="arc"
     style="opacity:0.98999999;fill:#ffffff;fill-opacity:1;fill-rule:nonzero;stroke:none"
     id="path5305"
     sodipodi:cx="123.25926"
     sodipodi:cy="162.58984"
     sodipodi:rx="6.6721535"
     sodipodi:ry="10.886146"
     d="m 129.83404,160.73678 a 6.6721535,10.886146 0 1 1 -8.2e-4,-0.008 l -6.57396,1.86076 z"
     sodipodi:start="6.11213"
     sodipodi:end="12.394598" />
  <g
     id="g5265"
     transform="matrix(1.9322484,0,0,3.0290501,-1265.4732,-2497.404)">
    <path
       style="fill:#eccdd2"
       d="m 715.38496,982.54053 c -3.39258,-2.09992 -8.91695,-2.94361 -11.3172,-5.6367 -6.07782,0.67223 -3.43068,-1.07367 -1.85647,-2.34741 -2.82152,-1.6489 -5.8182,3.04345 -6.20719,-3.14019 -4.51535,-2.41955 -5.55459,-8.52553 -7.99901,-13.93993 -3.24453,-5.21367 1.82362,-6.74702 -3.7639,-9.3543 2.66243,-3.81708 3.2819,4.67614 5.33833,-2.47058 -5.43848,-3.47387 -6.2438,-8.73884 -2.76717,-12.66662 -0.26189,-4.40789 2.68903,-6.40322 2.80343,-10.72638 1.39556,-0.74564 1.54303,-5.29197 1.16429,-4.67248 3.67735,0.60947 4.9375,-4.77644 1.88716,-2.0185 1.24036,-4.96536 3.82745,-7.74143 4.75632,-1.72018 4.62495,-2.19478 -2.32433,-6.3394 3.80508,-7.17634 0.66135,-7.38443 8.66077,-8.19391 8.42329,-16.74946 4.621,-3.8481 8.86827,-5.2759 5.64063,-11.072 0.40825,6.81927 6.80029,-0.67553 2.96052,-1.99148 -6.6359,-1.79077 6.1673,-6.26019 4.81881,-10.235 4.51649,-1.31937 -0.4831,-2.94686 3.5524,-5.21917 -2.96244,-5.65564 2.80461,-14.13191 -2.85743,-17.45941 0.68406,-5.37125 -9.27294,-16.37335 2.27304,-14.6067 9.94554,-0.14282 19.89278,-0.0547 29.83912,-0.0793 -1.19867,4.41304 -0.6119,10.03606 -2.34327,13.68697 -0.32615,7.24914 1.65036,15.13587 4.1537,22.15434 4.63352,6.46943 4.2018,16.02067 0.97779,20.28625 -0.0826,2.67634 -3.44492,8.86647 -2.9498,8.87244 -5.53206,-3.09781 1.89386,9.44422 -3.78765,4.40975 -0.87572,4.37648 -5.15638,7.8386 -4.69829,12.97351 -2.45105,-5.00969 -0.13383,10.76097 -2.42873,5.02352 -2.02489,1.34057 1.23913,7.45075 -1.9142,3.91054 -2.48743,7.21445 -3.00488,14.98054 -3.28811,22.79935 -0.20855,8.11705 -1.61309,12.0551 -6.49151,17.42358 -4.49985,-2.8008 -0.7139,7.48094 -4.3047,3.95784 3.70149,6.2084 -3.05179,12.49474 -8.8312,18.0465 -1.48367,0.76448 -3.05943,-0.26043 -4.58808,-0.26248 z m 0.66961,-8.43963 c 1.08471,-0.38061 6.76773,-1.65487 2.04129,-3.72514 2.56953,-3.27907 -11.19616,0.0892 -3.47407,1.87438 -4.089,1.38733 1.54414,4.91068 1.43278,1.85076 z m -22.99201,-20.34248 c -0.0177,-2.51716 3.2824,-5.81369 -1.91352,-3.70216 -0.74944,3.89155 -2.24374,4.72174 2.11303,6.08307 l 0.0852,-0.81287 -0.28469,-1.56804 z m 29.58936,0.43785 c -2.56577,-1.5434 -1.32205,-8.45285 -3.91387,-1.55808 -0.8892,2.27188 3.08907,3.25726 3.91387,1.55808 z m 132,27.24296 c -7.49446,0.53499 -16.90203,-2.78637 -16.43917,-12.08294 1.92001,-5.82826 -2.16331,-7.53079 -5.08613,-9.29453 4.2811,-0.42054 8.5,1.57283 10.28678,-4.22754 4.00615,-7.93586 -8.51827,-9.20982 -9.62778,-1.09623 -6.53753,-5.51944 -1.91961,-14.35891 -4.09058,-20.03153 0.17171,-2.77912 -3.65941,-4.01025 -0.0817,-7.4931 -3.89329,-7.26933 -4.63301,-16.25804 -6.38932,-24.45494 -0.41511,-9.02679 -5.77813,-16.39047 -7.17596,-25.00466 -0.74412,-7.6197 0.47113,-13.15321 6.20505,-17.15527 1.56593,-5.88396 5.81922,-12.65062 3.70345,-15.13064 -0.71024,-4.4311 0.11302,-9.12544 -1.81035,-13.25022 7.07223,-4.82379 16.63223,-2.35242 24.75307,-2.82715 7.06416,0.63353 7.35345,13.34134 3.34791,17.79438 -0.96921,2.47816 -2.59963,6.27161 0.14294,4.19126 0.26492,3.76864 -1.24644,9.67807 3.04588,10.44286 -6.40286,6.14593 1.40613,14.12635 4.67035,19.06635 -1.68456,9.27405 8.19443,16.28121 10.65888,24.96123 3.40803,9.03453 9.94674,16.73145 13.22055,25.42338 -1.48873,3.38708 -3.62607,9.53078 1.02465,3.48767 6.76752,-3.04595 1.62143,16.3354 1.40438,3.54064 -4.2338,-3.08477 -4.20876,9.04413 1.93349,6.28144 -9.36395,2.23673 2.50308,11.14376 -5.0729,14.45582 -0.44898,4.47684 -8.62683,4.58409 -3.49969,6.98768 -2.63037,3.60205 -7.32316,0.76708 -6.46952,6.4902 -1.95012,4.3426 -3.40307,6.27453 -7.16951,4.76956 1.52293,7.95007 -5.43881,-5.65713 -5.68982,-9.2318 -4.25112,-5.88785 -1.14014,8.49399 1.73409,8.72116 -2.42211,0.34144 0.66812,4.95489 -4.55365,4.9813 -0.65634,0.33946 -2.84302,1.07374 -2.97537,-0.31438 z"
       id="path5285"
       inkscape:connector-curvature="0" />
    <path
       style="fill:#dcb9c5"
       d="m 714.99743,980.71642 c -4.94341,-0.93096 -10.91225,-2.69985 -9.10808,-9.74948 -0.65011,-5.05265 0.608,-5.25718 2.76257,-7.1943 -2.89814,-6.84107 -8.96056,-0.94952 -5.0121,2.64949 -4.8578,0.99156 -5.42842,3.87178 -0.5304,4.83922 2.96269,7.79439 -9.36485,-0.0992 -10.76686,-3.83809 -1.34539,-5.36561 -6.18376,-9.99933 -4.24521,-15.85034 -1.36502,6.14062 7.22373,8.49406 5.85891,1.06592 4.36238,-3.76201 -5.29809,-6.63109 -3.52318,-0.49711 -2.80249,-3.48223 2.06526,-8.45904 -3.57574,-10.5856 -0.2984,-5.75571 -0.19025,-14.17934 3.1909,-17.84028 -2.33341,-5.07904 4.27956,-4.85472 4.29296,-9.26939 -4.73676,5.3637 4.56626,-11.03782 2.31938,-1.09398 2.8433,1.38302 2.61123,-3.64079 1.40832,-4.82432 5.60496,-2.92412 5.72641,-10.09977 10.90896,-13.68619 0.24681,-5.33466 4.5074,-9.78387 6.62339,-6.5358 1.95374,-4.26754 -0.80795,-5.219 4.07282,-9.21338 1.33498,-3.38851 -3.98474,-1.89353 -3.10221,-4.35171 -1.5144,-2.02354 2.87079,-0.17497 4.72914,0.008 3.43436,-1.02752 -5.33882,-2.21546 0.44274,-4.57059 0.0748,-3.58076 7.99789,-4.97312 2.05889,-6.6418 5.95303,-1.39117 -0.4683,-13.63154 4.88045,-13.02857 5.95649,-2.53228 -1.20245,-13.48254 -2.35765,-7.79031 -2.67423,4.37511 -1.19791,-6.79929 -4.35951,-8.17867 -2.23515,-3.71913 -2.95952,-6.55759 2.34897,-5.28102 10.13979,0 20.27957,0 30.41935,0 0.47018,5.34584 -3.36754,10.97643 -1.419,15.68572 -4.62942,6.09767 4.05803,11.43138 3.31526,18.23634 4.08193,5.63953 5.47746,15.7008 3.11762,19.07794 -1.91917,-0.0312 -0.62544,9.10952 -5.55508,7.93347 4.32891,3.35835 -4.64882,7.02505 -3.22047,11.7647 -6.16741,3.54049 -3.73778,12.62778 -7.02736,17.31536 -1.8984,4.73391 -4.4563,11.63131 -4.01574,18.07895 -0.0835,8.30318 -1.97697,17.04186 -6.94676,23.42011 -4.72899,-1.3386 -0.63349,7.11008 -4.07919,4.32278 1.25659,6.26047 -3.3069,14.06857 -7.31697,5.39095 -6.1573,-4.81074 -12.9126,0.98692 -11.57877,7.61762 4.01046,-5.67818 16.63424,5.01828 5.68653,3.7031 l -0.69685,-1.08904 -3e-5,0 z m -16.25176,-13.50817 c 3.6036,-4.00122 3.01979,-16.41364 -2.81195,-12.27341 1.61843,4.39048 -7.22474,10.11147 1.22638,7.61104 2.39177,5.48482 -3.33369,1.92626 -3.17709,2.85139 0.7969,2.44958 2.53041,3.7622 4.76266,1.81098 z m 22.39557,-10.94983 c 8.30253,-1.63317 -2.63242,-12.13823 -4.65414,-3.1655 -1.48898,9.42805 -1.03063,5.20226 4.65414,3.1655 z m 134.0088,22.75 c 1.78932,-3.14952 -11.96625,2.78501 -5.67349,-2.45048 7.12126,-2.93007 -0.93595,-7.67333 -4.94493,-7.45993 -3.22279,-2.8822 6.09612,-3.90732 0.1203,-5.83959 -4.21112,-1.25266 7.80709,-7.9094 1.2217,-12.83907 -3.99371,-8.71375 -15.24438,3.75189 -14.94087,-6.67817 -2.58006,-6.01306 8.37046,-5.67111 -0.63096,-7.25565 2.96283,-2.97038 -0.93738,-11.81849 -2.0341,-15.48965 -0.32168,-1.55836 3.42455,-11.35973 -1.53955,-6.1916 -0.55636,-4.61218 -2.21886,-8.30115 3.62661,-4.20373 7.36753,2.71617 -3.15859,-13.2363 -0.15074,-3.63608 -1.85131,5.97714 -2.03796,-7.11233 0.44793,-8.82408 3.25506,-3.19803 6.83573,-3.89331 3.51404,-8.5767 6.75083,-1.62084 -2.41914,-10.35574 2.2816,-14.79787 3.89221,-6.72579 -4.57876,-8.76121 -8.73519,-9.78336 -1.17958,3.94854 -4.91855,6.53319 -0.0957,9.83177 -0.58059,4.10043 -9.45121,-6.1516 -4.25855,0.73794 -1.54995,6.57934 -7.81484,-8.74623 -4.27518,-8.61277 3.07991,-6.14663 7.01673,-13.16777 8.14189,-20.11935 1.00171,-6.80393 -5.97532,-20.33419 6.34879,-17.55431 5.35782,-0.0143 10.71568,-0.004 16.07352,-0.007 2.01729,4.96232 6.39407,10.37929 4.24011,15.77786 -3.30073,0.33362 -3.82547,8.6753 -1.60755,6.33146 -1.37205,4.33522 0.42786,9.96685 1.01873,11.1062 -1.61149,6.09289 1.70083,13.80139 3.7889,15.46382 2.48805,7.86115 5.57621,16.0436 10.21539,23.37331 5.06189,10.42237 11.04043,20.43943 16.186,30.7641 -1.51816,3.46237 -2.39615,9.91823 1.2543,3.49711 4.24663,-2.21335 4.5724,5.28474 1.29639,1.2196 -5.08959,4.23067 -0.29836,12.06672 -2.68747,15.74584 5.22863,-0.30151 -1.42032,12.38853 -6.50812,11.39786 5.63476,2.30598 -3.41654,7.61864 -5.94869,0.792 0.11333,-7.18204 -6.98062,-4.49643 -2.71959,1.07343 2.4382,5.11907 6.34299,9.23094 1.02013,10.49376 -7.71057,0.47158 -4.9167,-10.59913 -10.17772,-14.7698 -0.16011,-5.3267 -9.23678,-14.98404 -4.44499,-5.48097 -0.18666,7.87135 8.09913,16.27793 4.47685,23.50817 1.31352,2.72711 -5.90592,2.35134 -3.89982,-0.54375 z m -32.85975,-85.25 c 0.8564,-3.85218 -5.21771,-17.24173 2.23543,-14.38536 0.39011,2.53831 5.45118,6.0582 0.1262,3.88536 -5.39136,-5.29962 3.06615,17.92838 -2.36163,10.5 z"
       id="path5283"
       inkscape:connector-curvature="0" />
    <path
       style="fill:#d1a4a9"
       d="m 715.90192,980.09695 c -3.03325,-2.62786 -4.95404,-3.22931 0.5,-2.20824 4.25494,0.49537 1.31927,5.78261 -0.5,2.20824 z m 139.43037,-1.08853 c 1.68177,-3.15782 -13.06824,2.64828 -6.92478,-0.93341 8.02042,-1.30179 5.55834,-11.06745 -2.08018,-8.76221 -3.17822,-1.62836 4.76112,-4.62551 -1.42541,-6.08479 0.43876,-1.69194 6.52272,-10.41862 -0.0385,-14.73425 -1.5232,-3.97256 -5.97195,-0.64608 -5.91158,-3.37219 -1.08695,2.15236 -2.30873,-2.70494 -2.59005,0.84945 -2.68483,-3.69812 -4.09075,5.42662 -4.56488,-1.52042 -0.33219,-3.84773 7.24087,-9.7487 -0.0544,-7.13643 -2.25572,-2.47181 5.31328,-8.23421 -1.06215,-6.06197 1.29313,-5.72868 -3.06529,-10.67591 0.66313,-16.2608 5.33823,1.88499 4.63369,-4.65235 1.15688,-1.32661 1.96747,-4.72641 3.90456,-8.87831 -1.00561,-13.40637 1.34007,-5.79476 3.59692,-1.68307 5.12046,-2.45807 3.05892,-7.73246 -1.68517,-16.06456 2.10001,-23.35286 3.24379,-7.71717 -13.33712,-8.96592 -2.69151,-14.89702 4.84492,-1.98673 -9.38447,-1.70254 -4.97935,-6.86735 -2.81304,1.93125 -4.6167,-8.81817 -3.49411,-9.9247 1.71508,4.19366 3.2237,-7.08153 3.34337,0.88531 5.17441,1.00102 0.8401,-11.48293 0.25957,-4.62663 -6.99458,2.27641 -6.85301,-14.76092 2.49637,-10.56999 7.34823,0.37959 17.55054,1.73145 19.22122,10.44208 4.46282,3.9541 -5.15689,13.31768 -1.57285,13.83857 2.42256,-2.08328 -1.90983,9.74904 2.60392,9.19294 -3.24365,5.27252 1.54704,13.75748 1.63471,18.12434 4.70295,-6.17779 1.05872,12.04014 3.83869,5.34722 4.20599,12.36325 11.26892,23.6625 17.21893,35.28049 3.98204,5.47109 7.32403,12.56117 6.01785,17.92091 6.4389,-10.22442 -3.66072,6.75722 3.68618,6.14805 -1.53217,4.28223 -3.98307,4.60273 -5.65575,4.96862 1.72385,6.11004 3.0237,13.49156 -3.90203,15.05419 5.86065,0.19149 -2.54492,5.34764 -4.61122,0.91302 0.23321,-3.49783 -5.06849,-9.75509 -5.26098,-3.12136 1.08327,4.92083 8.35772,14.73365 -2.09138,12.41332 7.42302,-0.946 -1.93348,-4.13355 -1.81001,-8.15652 -6.29703,-2.85787 -2.33581,-18.9423 -11.03831,-16.40524 0.59143,8.57768 6.92433,15.82796 7.57804,24.66379 2.46587,3.09848 -4.16522,9.82033 -4.17435,3.93689 z M 837.50031,846.37328 c 3.23618,-7.64269 -4.70432,-3.28936 -2.75888,0.57306 0.89509,0.65803 2.0045,-0.15618 2.75888,-0.57306 z M 707.02936,977.55534 c -3.61073,-5.68316 6.90369,-17.64468 -4.05706,-17.64049 -6.76213,9.6583 4.17498,-9.11348 -5.75183,-6.07555 -3.22204,1.78382 -1.03992,9.24339 -6.38966,8.83162 -1.34158,-4.53826 6.45427,-6.68439 4.26887,-13.06035 -3.1687,-2.39861 -6.12288,-6.24263 -6.63469,-10.48227 4.6439,-2.07123 9.24265,-7.66469 1.59071,-9.33678 -1.68208,-7.70363 1.91977,-12.11472 6.20322,-17.2831 2.62657,5.32552 1.75853,-5.00872 5.02354,-5.49844 3.86928,-6.60077 8.36723,-13.57924 11.32857,-20.03062 3.80663,1.47654 1.51161,1.90349 4.54089,-2.14609 2.62217,-1.8497 -3.20342,-2.20789 2.00472,-5.06553 5.22669,-3.97699 -6.09384,-2.8169 -1.03243,-6.09273 2.8746,5.1402 6.9884,-0.0304 1.52771,-0.98802 1.63677,-4.23613 11.22666,-3.56487 3.42808,-5.79117 6.13323,-1.32708 0.3596,-2.75321 3.35442,-7.20657 -0.73398,-3.60239 0.56894,-12.34085 1.98722,-3.89714 4.10156,0.80661 8.64582,4.3513 5.35046,7.97585 6.24567,5.35805 3.06111,-18.52562 -0.64899,-10.99785 4.00375,2.07157 -7.84147,1.46006 -2.4712,-3.51169 2.51811,-5.18216 1.34989,0.67582 5.05743,0.0929 3.99227,1.95705 -2.68921,-6.28795 0.49467,-7.79917 -6.27329,0.49101 -2.31209,-15.95987 -6.83964,-5.41181 4.10957,6.49961 -3.49622,3.75846 -4.83954,-0.30269 -5.9034,-2.48427 -0.8515,-9.33356 1.24463,-5.6525 8.47584,-1.56371 17.39467,-1.00846 26.00471,-0.52557 5.54687,4.91137 -2.64522,15.54461 0.42662,23.04373 4.88335,7.49393 5.63022,17.17235 8.9085,25.24288 -3.28122,0.33056 -0.3486,11.88217 -6.05245,11.60621 -2.18214,8.02713 -5.8055,12.52865 -8.29496,20.06819 -1.95745,6.63864 -5.3285,14.7459 -6.54936,22.23222 -1.3421,9.25651 0.30146,20.30725 -6.91522,27.45903 -1.14182,2.13589 -4.14104,2.81275 -3.10424,6.52461 -3.68437,-2.84247 1.26518,11.98564 -5.84658,6.53423 -4.00958,-6.71245 -15.36421,-5.38426 -15.0203,3.97526 -0.51899,0.57688 -1.37214,1.48392 -2.29682,1.20938 z m 14.11066,-19.29692 c 4.09239,-1.32694 15.12695,-4.51632 6.54892,-8.76215 -4.22133,1.8226 -4.4708,-0.20166 -5.22655,-2.57563 -2.57564,0.0815 -6.08675,7.862 -4.88609,1.3583 -4.35272,2.43735 -3.78343,16.87013 3.56372,9.97948 z m -22.4881,-15.5 c 2.75982,-2.14492 5.53657,-4.27912 -0.4836,-2.69628 -5.02996,-0.95037 -0.26934,7.26428 0.4836,2.69628 z m 29.86455,-39.10207 c 4.82528,-5.53317 -6.26734,-8.35858 -4.16576,-1.33742 -2.47077,3.06117 1.69293,1.87887 1.7314,4.33067 1.08825,-0.73756 1.88513,-1.81806 2.43436,-2.99325 z m 3.13545,-7.39793 c -2.74866,-1.19715 -3.60628,-5.69485 -6.88338,-0.99894 5.37256,-2.76231 -0.36442,5.55411 6.88338,0.99894 z m 6.10492,-9.75 c 0.79291,-5.24452 -3.54887,1.76175 -5.02078,1.23961 1.11712,2.75385 4.52826,0.90592 5.02078,-1.23961 z m -38.33132,86.0061 c -5.0723,-3.10458 -2.46093,-5.38797 0.41738,-2.24079 3.44978,0.0653 -2.70997,2.85645 3.14808,2.27378 2.6898,2.90276 -2.92126,0.91398 -3.56546,-0.033 z M 819.47363,868.85691 c -0.22169,-3.68464 4.50618,-10.7638 3.03793,-2.46782 -0.15724,5.14558 5.70247,-1.436 1.64036,3.86933 -1.85354,0.20009 -5.11377,3.23547 -4.67829,-1.40151 z"
       id="path5281"
       inkscape:connector-curvature="0" />
    <path
       style="fill:#af9096"
       d="m 855.37053,978.00842 c 0.53669,-5.64345 -4.19953,-9.38608 -8.21023,-9.5805 4.31856,-3.27148 -3.36763,-9.20707 2.77659,-11.91777 4.4882,6.6396 11.74669,14.17359 9.10983,22.86452 -1.99202,2.86748 -3.45503,1.69802 -3.67619,-1.36625 z M 707.0037,977.5863 c -4.25827,-5.85471 8.54198,-16.62588 -1.61984,-18.44332 0.45135,-4.51813 -6.08596,3.15497 -2.82789,-3.13263 1.41827,-2.89613 -5.74927,-2.95127 -6.50826,-2.25238 -3.16464,3.39489 2.01445,-7.76985 -4.01191,-6.94119 -3.01731,-4.18915 -4.21393,-10.1385 2.79754,-10.89644 3.25521,-6.17586 -10.7951,-6.25305 -4.30847,-13.16192 1.25315,-6.71763 9.28824,-8.74869 9.45674,-14.43066 5.24954,0.95215 1.17424,-8.47206 7.34042,-9.72037 2.95814,-3.08973 3.63244,-15.75126 7.90884,-9.84897 0.35669,-3.81624 4.18324,-4.80249 1.628,-6.65164 2.07159,-1.88427 9.61457,-10.05896 2.79305,-9.3128 1.46309,-4.37389 11.30007,-3.64817 3.42808,-5.89816 6.00364,-1.2693 0.54311,-2.8289 3.5059,-7.16536 -0.78836,-4.01571 0.50221,-11.21071 1.81489,-3.04021 4.21539,1.36601 4.64565,4.20939 6.32379,8.13325 7.78218,2.28366 0.0927,-6.18187 4.66642,-7.56508 1.04116,-2.97534 -0.96197,-9.64186 -2.43904,-12.47118 1.30918,-4.20009 1.75548,-7.51288 -2.21877,-8.1566 -2.61646,-5.70105 7.00977,-1.87946 2.54382,-6.75347 6.37512,-0.70804 20.17359,-3.5948 15.027,7.44958 -0.49043,3.81551 0.36423,11.51343 -2.63678,9.12265 2.67733,7.49622 6.60875,14.19699 8.67165,22.54063 0.22016,6.3442 2.57035,17.32587 -2.48745,20.80123 -3.88392,0.73301 -3.72206,4.38865 -0.19951,2.23773 -3.99775,4.71007 -6.55403,12.19209 -9.51805,17.64161 -0.86143,8.52085 -5.91005,15.76519 -6.14084,24.38468 -0.87459,8.86024 -0.29648,19.01202 -6.85848,25.85758 -3.24729,0.0982 -4.63945,6.83034 -5.18149,11.77157 -2.03006,-1.86694 -3.98558,-1.74921 -7.5835,-5.23346 -5.71151,-1.50497 -2.73613,0.7706 0.28236,1.7827 -5.17551,-2.18103 -9.82494,0.45853 -11.1198,6.45627 -0.79893,0.85679 -1.14611,2.64301 -2.52842,2.89636 z m 14.14906,-16.91745 c 3.63723,-3.09908 3.44479,-3.27889 6.58236,-0.0144 8.40604,-3.02026 2.26441,-14.36083 -4.16215,-14.24859 -1.34683,-1.77161 -6.58634,6.90059 -5.59104,1.24782 -6.6679,0.58748 -4.49096,15.25901 -0.52669,12.94026 0.82491,6.88674 0.081,0.1907 3.69752,0.0749 z m -22.50155,-17.16043 c 0.7129,-1.76393 6.71357,2.87776 6.32808,-2.28099 -4.90348,2.88241 -2.03967,-6.67003 -6.89198,-2.63218 -7.0956,0.39581 -5.31628,9.32958 0.5639,4.91317 z m 31.08703,-35.13072 c -0.16824,-7.72226 2.10425,-17.69704 8.61465,-18.45615 1.11928,-2.96909 5.3932,-7.49334 -1.96186,-6.48756 -3.80613,2.04219 -6.63386,-0.16799 -10.0709,2.7541 3.95255,-6.01515 -5.00966,5.70701 -8.50008,1.51442 -4.15229,4.07849 4.86088,-0.86799 -0.38735,3.92264 -2.31183,-0.46677 0.74104,4.6929 -4.04127,5.48183 -2.05654,5.79476 7.61299,-5.00781 7.15875,2.15772 7.32776,1.82638 -2.56358,13.0086 9.18806,9.113 z m -6.25023,-14.34274 c -0.28109,-4.01214 3.91857,-3.51765 5.92234,-5.35489 2.48011,4.96464 -3.58276,3.51268 -6.6238,6.50777 l 0.70146,-1.15288 0,0 z m 145.03248,78.71361 c -5.61789,-2.18104 -0.5941,-10.13177 -7.86857,-8.47059 2.55524,-2.52132 -3.12619,-8.78979 -3.32567,-13.21154 -2.23103,-5.97246 -7.24447,-2.50018 -7.57784,-0.68614 -3.6559,-2.69648 -8.73241,-7.002 -14.89922,-7.01161 -6.53738,-0.44681 1.254,-3.84985 0.55273,-7.93839 -8.6662,8.42598 2.05959,-15.13055 -3.42041,-4.25859 -3.76963,-4.20814 -1.19111,-18.89581 5.21262,-12.19382 2.50397,-5.58603 -3.66104,-7.39031 -1.05988,-14.49409 -6.37801,-5.6442 1.97255,-3.9519 4.13288,-3.93462 -4.01615,-5.68608 -0.31442,-13.97199 -1.60173,-21.16547 2.53353,-3.19631 1.67764,-11.734 -0.9801,-14.9424 6.00141,-4.90767 7.38489,-14.30532 4.32249,-20.87213 -3.22493,-3.02868 4.50647,-10.32912 -3.34329,-7.41429 -7.69335,6.38964 2.20601,-8.19471 7.60865,-4.35342 4.53984,3.45127 10.56278,12.49256 5.12276,15.94541 -2.82203,5.04934 1.15989,12.77948 2.00543,14.73303 -2.97662,4.98061 2.477,14.98354 3.00056,14.75269 -4.0033,2.34298 0.48583,8.05302 0.18329,2.13469 2.89549,3.22619 0.24187,11.2426 5.51726,15.08963 6.3826,11.3252 12.03672,23.27421 18.54947,34.38482 4.55341,3.37765 -0.81037,9.10962 2.71086,11.98778 0.28036,3.15422 4.30024,6.69172 -1.257,7.10725 -6.17693,-3.2849 5.33224,15.99494 -2.80592,14.74687 -4.12928,-3.24145 1.60596,-10.03104 -4.78833,-9.91853 -0.4481,-2.12292 -3.53753,-13.67823 -3.85957,-9.0067 -0.74716,4.81183 3.08901,13.14622 5,18 0.6517,2.78701 5.95316,4.1457 1.15077,5.99031 -4.28457,-2.10629 -5.1063,-6.45275 -8.95818,-8.99454 -7.45993,0.93095 9.62584,19.30615 0.67594,13.99439 z M 722.63827,834.70842 c -2.52458,-4.43006 1.36039,-8.04499 1.66608,-1.51052 0.2366,0.56219 -1.32908,2.73755 -1.66608,1.51052 z m 111.01365,-2.32756 c 4.80731,-8.57617 5.4393,3.6746 0,0 z"
       id="path5279"
       inkscape:connector-curvature="0" />
    <path
       style="fill:#af827b"
       d="m 854.54121,974.00842 c -1.69696,-6.10008 -8.98117,-7.70747 -6.48234,-15.27105 7.02406,2.49469 12.63581,12.23177 11.39636,19.66377 -3.22549,2.69913 -4.32158,-2.22064 -4.91402,-4.39272 z m -148.15372,2.65223 c 0.39288,-6.7422 8.4956,-17.59183 -2.90196,-19.93539 1.92632,-5.34665 -5.76525,-1.46338 -4.03091,-6.19968 -3.57366,1.72779 -5.80871,5.98407 -3.21111,-0.53963 -2.25529,-3.81668 -1.70235,-4.49629 2.82508,-5.97753 1.80544,0.19989 4.99826,2.50686 6.08333,-2.14761 3.14455,-1.74488 -3.88409,-2.52349 -4.83178,-4.89899 -2.93448,-0.60136 -10.82548,8.03484 -9.11395,2.65669 7.98841,-0.25445 -4.78628,-2.47954 2.56569,-2.42096 6.58878,-1.13042 1.4765,-9.58612 -3.60238,-9.30891 0.15916,-6.44138 3.52546,-9.25206 5.82607,-13.32463 5.45322,0.76557 0.57496,-8.87582 7.31156,-6.91345 -2.16069,-6.64971 7.84578,-9.58776 7.56511,-16.78348 2.97537,-10.41914 7.36191,3.4591 1.17417,6.09227 -4.4649,6.32687 13.40529,2.66782 2.86343,5.1777 -3.40052,6.13792 12.82621,-4.21238 6.88158,2.5999 -2.47577,3.52569 1.02807,7.78961 -3.79014,3.32709 -3.8594,-1.39868 -9.45345,5.35738 -2.10307,2.74283 6.48709,-1.16937 7.23523,11.11601 12.5604,2.10777 4.30695,-4.57663 0.16832,-11.73787 5.42544,-14.00019 -2.0022,-5.51975 1.51863,-6.14302 5.38167,-6.88338 -1.25378,-4.83475 5.80549,-3.4533 4.7017,-8.92838 -8.47828,-2.6643 -15.84764,0.57573 -24.35472,1.6523 0.51973,-3.12327 -0.54291,-6.2689 3.18985,-10.5412 -2.23017,-2.00141 -4.35032,-2.88352 0.54582,-4.85481 5.97796,-0.31622 0.90869,-1.27252 -0.052,-2.80102 5.95227,-0.81124 -0.11314,-2.56015 3.35552,-5.29954 2.72582,-5.0548 7.87103,4.54798 9.10395,6.25141 -2.96427,2.69551 -3.74028,6.17836 -0.047,2.3477 1.85414,0.37277 1.86854,-3.68759 4.85594,0.44662 -6.72187,-0.47338 -1.14895,12.35233 -0.48929,3.10803 2.56679,-1.91306 8.26658,-3.8364 2.91484,-7.11096 -0.16746,-3.71246 0.11931,-7.77853 -4.33838,-6.86842 2.56749,-2.59947 7.08879,-2.48667 1.6316,-4.89931 -0.49409,-3.64297 2.956,-9.45679 -2.3137,-9.60376 5.52077,-2.29838 -2.0298,-4.10389 2.25074,-8.80052 -0.47939,-4.71305 -1.87115,-8.36532 4.80495,-6.62313 2.66242,0.35514 10.33892,0.51367 4.97435,2.64978 -0.1869,4.0734 2.92662,13.73176 -0.33263,13.27077 -3.72838,5.0623 4.05013,4.61386 0.84358,9.4277 -3.56762,-0.86522 -1.93107,9.19332 0.981,2.87852 6.81539,1.58591 7.16479,14.2354 7.51834,21.12849 1.6657,4.41801 -4.79122,16.43609 -1.46191,6.79686 -2.03478,1.31863 -7.85327,10.58903 -1.89476,5.6395 -4.13302,6.76956 -8.82708,13.93662 -10.00156,21.86383 -2.27835,7.28562 -5.77889,14.72793 -6.15836,22.76924 -0.0349,7.84311 -0.39027,16.37284 -5.62599,22.76471 0.10605,3.62292 -3.59981,1.0678 -3.16828,3.09236 -2.25697,-0.50382 1.27966,4.95528 -1.80108,2.04236 1.58428,9.00446 -5.44057,2.93763 -10.23332,2.2341 1.7274,-3.00218 2.44451,-6.75422 8.53028,-4.81288 6.56328,-2.51875 9.46839,-7.88963 4.89584,-11.8012 -3.33129,-5.7697 -17.94551,-4.76567 -19.23492,4.24917 1.43437,3.00068 -0.71986,9.24273 3.76679,8.57165 1.70429,2.48241 -6.33399,6.59654 -7.2749,12.99213 -0.49933,0.9855 -1.79528,2.73006 -2.96056,1.39748 z m 7.26443,-28.46741 c -2.21733,-0.72531 -3.07764,-0.31482 -1.57607,-3.44513 -3.34648,2.7455 -6.27513,6.10484 -3.64925,-0.33893 -8.27072,1.40851 4.15194,13.78422 5.22532,3.78406 z m 12.06574,-66.97 c 6.10657,-5.04269 -5.86261,-1.2445 -1.67678,0.79981 l 1.67678,-0.79981 z m 29.50901,-18.16157 c -2.26776,-1.84024 -5.01677,-4.95943 -2.18941,0.5346 1.62186,3.26933 5.41087,4.76889 2.18941,-0.5346 z m 112.82495,109.43144 c -5.26305,-3.54582 0.89053,-6.254 -4.3997,-8.13672 -4.03567,-3.0151 -8.05925,-16.18276 0.45323,-10.09797 3.60822,-2.47571 -1.59357,-7.77682 -3.29021,-3.78051 -4.31245,-0.0987 -9.82702,-9.32327 -11.09529,-1.37933 -4.74803,-5.19851 -12.0688,-6.37339 -17.67806,-7.3326 3.85573,-1.73682 5.18626,-12.83507 0.62623,-5.0298 0.72731,-1.45494 3.22491,-13.98931 -0.35439,-6.80989 -3.84928,3.49493 1.16274,-8.73979 -2.6462,-5.36211 1.3597,-3.33897 5.13149,-8.75582 5.805,-2.81201 2.76326,-0.43699 3.6951,4.84569 3.87743,-1.3221 -0.1052,-5.33669 -5.61386,-13.60964 0.3023,-15.398 -2.6467,-3.15066 -4.02503,-4.52796 0.98101,-4.73642 -5.20869,-3.3855 0.87247,-10.91794 -0.83917,-17.46456 4.1429,-5.00694 -0.30272,-14.55335 -0.70125,-17.95116 5.09878,-4.9052 6.93031,-14.13919 3.30208,-20.7627 -1.95447,-5.09228 4.28295,-8.13391 -3.54075,-10.08573 7.29435,-4.77782 12.93739,4.8857 13.18265,11.28475 0.0256,5.98831 -5.54413,12.1844 -0.84491,13.24432 2.18965,3.74161 3.60945,2.20577 1.09681,6.36895 1.54438,8.07617 2.26272,16.81835 5.80603,24.60224 9.0098,14.15198 15.08865,30.14548 24.82199,43.86357 -2.73741,5.58655 1.30633,5.40927 1.1807,11.86497 -0.12877,9.25852 -5.15612,-12.87431 -6.45916,-3.00188 1.30192,5.84812 6.9953,16.31309 2.30327,20.40466 -0.85908,-7.07335 -4.42843,-11.68661 -7.65089,-18.65466 -2.7073,-4.32744 -6.05205,5.04553 -1.25832,6.98512 0.71703,5.42424 7.74857,13.08921 5.71933,16.75328 -3.15589,-1.92005 -6.129,-6.0395 -4.90848,-8.47309 -3.92856,-6.03738 -7.63861,3.86175 -3.90335,8.28237 -0.0365,1.60634 6.15353,7.45958 0.11207,4.93701 z"
       id="path5277"
       inkscape:connector-curvature="0" />
    <path
       style="fill:#a37a85"
       d="m 854.63351,974.1817 c -0.21134,-5.90559 -8.18805,-10.19562 -5.1684,-14.69838 6.17418,2.97343 14.22102,15.46773 7.62862,19.62228 -1.78861,-0.80868 -1.88622,-3.33122 -2.46022,-4.9239 z m -148.24602,2.47895 c 0.39288,-6.7422 8.4956,-17.59183 -2.90196,-19.93539 1.92632,-5.34665 -5.76525,-1.46338 -4.03091,-6.19968 -3.57366,1.72779 -5.80871,5.98407 -3.21111,-0.53963 -2.25529,-3.81668 -1.70235,-4.49629 2.82508,-5.97753 1.80544,0.19989 4.99826,2.50686 6.08333,-2.14761 3.14455,-1.74488 -3.88409,-2.52349 -4.83178,-4.89899 -2.93448,-0.60136 -10.82548,8.03484 -9.11395,2.65669 7.98841,-0.25445 -4.78628,-2.47954 2.56569,-2.42096 6.58878,-1.13042 1.4765,-9.58612 -3.60238,-9.30891 0.15916,-6.44138 3.52546,-9.25206 5.82607,-13.32463 5.45322,0.76557 0.57496,-8.87582 7.31156,-6.91345 -2.16069,-6.64971 7.84578,-9.58776 7.56511,-16.78348 2.97537,-10.41914 7.36191,3.4591 1.17417,6.09227 -4.61902,6.14888 13.11035,2.92653 3.19937,4.92688 -3.52828,6.88291 14.34233,-4.39492 6.04302,2.82577 -2.27736,2.16462 -14.94313,7.55969 -5.3768,6.09264 6.2772,-0.90875 8.46981,11.83937 13.25767,2.2826 3.49466,-5.17981 -0.22473,-11.85936 5.08512,-14.31674 -2.19462,-5.61273 6.41073,-8.80906 4.85095,-2.13104 1.58313,6.36964 2.35944,-6.9477 4.35728,0.11896 1.90851,6.17497 2.73369,-5.16981 4.82436,0.19787 -3.93424,-4.73303 0.71913,-17.83061 -9.24029,-14.41362 -6.36861,-2.84615 -14.41879,3.888 -19.57205,1.49263 1.36417,-2.40328 -1.34678,-5.39122 2.98804,-8.67121 1.91211,-3.64437 -6.14961,-2.54018 -0.13478,-5.625 5.93425,-0.64721 3.33075,-1.40104 0.96814,-3.18113 5.95227,-0.81124 -0.11314,-2.56015 3.35552,-5.29954 2.72582,-5.0548 7.87103,4.54798 9.10395,6.25141 -2.96427,2.69551 -3.74028,6.17836 -0.047,2.3477 1.9663,0.70122 1.86717,-3.71357 4.47996,0.2512 -5.71754,0.54344 -0.87812,12.28886 -0.11925,3.4024 2.73902,-5.49907 1.69432,3.51867 7.07251,1.08098 -2.18171,3.60628 -0.48881,11.25348 4.09344,5.14427 3.26523,-7.84731 -10.05837,-4.48808 -5.08619,-11.40695 -1.65183,-4.4012 -1.54687,-6.41579 0.48723,-6.76199 -0.49915,-6.50585 -5.8465,-10.03168 -1.30992,-14.6342 0.47606,-2.17645 -6.4753,-0.9226 -1.50086,-4.91785 4.68241,1.44383 4.68914,-7.40843 -0.79758,-5.08175 6.54919,-2.01626 10.83726,10.89731 6.31031,8.48954 -2.0223,3.67138 5.4762,8.13823 -0.34345,9.87203 -2.5643,5.96059 0.48891,4.82158 4.00091,2.01779 5.10496,5.84466 6.27392,15.48743 5.9741,23.56083 1.04678,4.6161 -4.80426,13.46501 -1.42193,4.7844 -2.03478,1.31863 -7.85327,10.58904 -1.89476,5.63949 -4.13302,6.76957 -8.82708,13.93662 -10.00156,21.86383 -2.27835,7.28562 -5.77889,14.72793 -6.15836,22.76924 -0.0349,7.84311 -0.39027,16.37284 -5.62599,22.76471 0.10605,3.62292 -3.59981,1.0678 -3.16828,3.09236 -2.2435,-0.44438 1.25793,4.83945 -1.79902,2.10785 1.63751,9.68877 -4.59927,2.5522 -9.90639,1.98698 6.69537,-1.08591 0.0442,-2.01837 0.739,-3.7768 3.10225,-1.66472 6.27966,-2.41362 6.65479,1.0686 5.34208,-4.14596 11.41575,-9.61347 5.62779,-13.59827 3.29732,-3.78531 -10.33593,-4.08396 -13.75107,-2.92997 -6.20995,3.94944 -6.62544,12.31086 -2.59724,15.8622 3.21863,-1.74258 0.82925,2.56411 -0.65804,3.23866 -3.33084,1.76341 -4.40423,11.7072 -8.62156,10.91354 z m 7.26443,-28.46741 c -2.21733,-0.72531 -3.07764,-0.31482 -1.57607,-3.44513 -3.34648,2.7455 -6.27513,6.10484 -3.64925,-0.33893 -8.27072,1.40851 4.15194,13.78422 5.22532,3.78406 z m 12.06574,-66.97 c 6.10657,-5.04269 -5.86261,-1.2445 -1.67678,0.79981 l 1.67678,-0.79981 z m 30.26665,-16.97927 c -3.05537,-3.41805 -5.79015,-6.15094 -2.2181,0.43385 1.50748,3.12096 5.14277,4.53297 2.2181,-0.43385 z m 112.22431,106.79194 c 0.37281,-7.60623 -12.17214,-10.35723 -8.1412,-17.61677 3.3313,0.61798 8.20528,7.62157 6.18493,-0.61286 -1.04786,-6.92405 -12.92759,-6.46494 -15.50908,-10.60485 1.04908,6.83894 -3.33892,4.59028 -5.36628,0.93449 -4.20148,-1.43507 -11.05786,-2.42388 -13.24069,-1.56103 3.84179,-1.71304 5.07246,-12.47595 0.58247,-4.8629 0.75674,-2.45915 2.43323,-13.86695 4.05591,-13.65075 5.27483,5.00288 1.42838,-7.07329 1.43107,-10.1084 -3.89848,-3.59962 -0.0171,-7.11085 1.71071,-7.25629 4.67283,-5.63436 -3.21073,-8.58004 1.46203,-12.16945 0.94862,4.40127 6.41976,-10.40354 1.99563,-4.26868 -2.92918,-4.655 0.85637,-11.49886 -0.97046,-15.84657 3.61548,-2.11955 3.01549,-12.16451 0.18731,-4.5857 -1.03622,-8.37514 7.5819,-14.72516 5.78892,-23.58371 -0.49789,-7.12027 7.49765,-2.46575 3.16039,2.70348 -0.83076,5.31673 -4.23466,9.16781 -0.34866,10.61465 2.18965,3.74161 3.60945,2.20577 1.09681,6.36895 1.54438,8.07617 2.26272,16.81835 5.80603,24.60224 9.0098,14.15198 15.08865,30.14548 24.82199,43.86358 -2.73741,5.58654 1.30633,5.40926 1.1807,11.86496 -0.0869,7.34343 -4.59913,-5.4089 -5.0136,-7.49228 -4.07213,-4.92697 -7.35229,10.62878 -0.89251,5.99295 0.53225,5.6247 6.47529,15.16718 1.75022,18.90211 -2.4039,-4.92006 -0.26439,-10.21369 -5.35794,-13.59921 0.44397,-7.65664 -6.75836,-10.18209 -9.75876,-2.45064 3.83303,1.93941 7.78666,5.96668 9.32551,11.04794 -0.35877,2.76851 7.58656,14.66338 0.44572,7.31762 -2.68421,-1.58506 -3.10673,-12.97133 -8.79196,-5.01677 -0.81673,1.47508 7.69387,18.37027 2.40479,11.07389 z m -37.5567,-42.21847 c 1.53748,-3.37048 1.78805,-6.05606 -0.98469,-4.30902 1.78333,-7.03965 7.8536,-3.41356 3.94868,2.34274 -0.38194,1.50249 -3.41772,7.02959 -2.96399,1.96628 z"
       id="path5275"
       inkscape:connector-curvature="0" />
    <path
       style="fill:#777485"
       d="m 855.17779,976.00842 c 1.2158,-6.26842 -9.68295,-12.32593 -5.62655,-16.5577 4.80212,3.8114 14.24286,14.57237 8.30258,19.68378 -1.87555,0.46929 -2.41198,-1.8289 -2.67603,-3.12608 z m -148.91568,0.4283 c 1.76096,-4.30909 2.67691,-16.52618 8.66648,-14.1117 -1.57059,3.50059 -4.69696,15.3432 -8.66648,14.1117 z m 162.54947,-4.48593 c 0.0215,-7.39553 -12.68291,-11.905 -8.1975,-18.5443 4.37511,3.44534 9.73482,17.82198 8.1975,18.5443 l 0,0 z M 725.65192,967.2898 c -4.19549,0.81033 -3.70999,-9.98632 0,-4.0904 1.61952,5.57786 1.4571,0.54013 2.07354,0.7418 2.19829,1.25522 -0.86539,6.43712 -2.07354,3.3486 z m 150.02919,-1.4962 c -5.24474,0.74751 -2.40379,-9.34968 -0.34237,-2.95772 0.35867,-2.25403 3.93799,7.41715 0.34237,2.95772 z m -143.77026,-5.19448 c -1.93287,-3.62338 8.94926,-9.01361 2.1095,-2.05834 -2.13462,1.05398 1.40553,4.02557 -2.1095,2.05834 z m 147.43394,-2.12758 c 0.91463,-5.8484 -8.37154,-9.5857 -2.90392,-14.82878 4.42562,1.92368 3.14851,10.85851 5.1023,15.61741 0.3099,2.24786 -2.36392,-0.84825 -2.19838,-0.78863 z m -8.54703,-1.24103 c -6.50515,-1.64494 -3.89317,-11.80481 -12.82956,-10.60248 -4.14545,-0.46882 -8.26313,-10.62844 -7.39089,-1.11132 -2.87635,4.19629 -6.08246,-6.95985 -12.06223,-3.60676 -6.72236,1.55603 2.78883,-8.03549 -2.70727,-4.03759 0.83384,-4.00077 -1.97661,-6.87266 0.57036,-8.25858 -2.44225,-2.72306 -0.40695,-8.55867 2.10979,-4.75228 1.76439,-5.43258 7.68652,4.15037 3.69576,-3.16195 -1.27693,-2.312 -3.1575,-9.07074 -2.94242,-3.59443 -4.5842,-7.64005 4.33241,-12.56808 2.4905,-19.39606 0.71535,-1.61153 -4.79806,-5.76196 0.6146,-2.97807 3.02934,-2.24801 -0.36213,-4.52362 3.22631,-7.27229 -5.86826,2.36799 -2.21936,-11.50166 -1.6639,-16.52883 3.3839,-4.30448 0.85985,-9.32421 -1.25689,-3.17148 -1.93756,-7.35829 8.05209,-13.04768 4.97807,-21.74223 -0.29883,-7.57746 6.45383,-4.93954 3.73013,1.20056 -3.0671,2.64109 -0.77327,5.62589 -2.47499,9.68503 2.24491,0.8685 7.07054,3.9457 3.70104,5.64152 0.35331,9.30855 1.83892,19.40078 6.49299,27.84653 7.1972,12.77483 13.35645,26.1038 20.57184,38.8548 4.70454,2.77194 0.58772,7.18255 3.32246,9.61832 -2.11569,2.41497 -8.20078,-8.80181 -7.63263,0.66109 -1.13273,3.90377 -3.95041,2.00938 -4.30664,-1.26562 -6.72901,5.21629 -6.71197,8.29476 -0.24875,12.18834 1.15861,1.61392 5.43282,11.34237 0.0123,5.78378 z m -161.7081,-0.0728 c -3.09275,-1.33987 -8.74124,0.70884 -4.99921,-3.92688 -4.93455,0.87171 -1.97765,-4.03222 -7.32553,-4.8852 -3.62948,-6.37239 8.46524,-1.96173 6.72948,1.51014 2.70369,-0.19982 6.31596,6.69365 8.80142,1.60467 -1.8262,1.43411 0.73747,9.625 -3.20616,5.69727 z m 27.2376,-4.55725 c 1.6725,-5.96476 -2.20773,-0.83225 -3.57563,-6.10896 -6.12561,-2.25774 -11.19306,-1.18923 -17.67764,0.98571 2.31164,-5.06992 -7.32603,3.99231 -2.4567,-2.42462 -6.01396,0.51891 -5.05986,-9.14599 -12.08177,-8.55864 -4.39359,0.37808 -3.74897,1.0306 -2.116,-1.94718 -1.16568,-1.78763 -2.77235,-6.43056 -7.27109,-7.15623 -1.58784,-6.4713 2.96774,-7.93843 4.01421,-12.40918 5.75066,0.97251 1.83545,-8.45985 7.97868,-7.5542 -0.94654,-6.84996 7.62979,-9.47191 7.73091,-16.56003 4.11694,-9.64759 5.14313,4.319 -0.0524,6.78716 -1.44857,5.82314 2.8801,6.30389 2.98514,10.54096 -6.90164,0.92569 0.48703,5.40122 0.90655,5.06535 -9.30186,2.15696 0.67699,3.32618 4.34138,0.46781 3.42117,-1.44847 2.17433,4.02204 5.11525,3.50386 -4.25056,-1.40986 -8.20218,5.75864 -1.04347,2.52594 9.28744,-1.16983 6.60285,-12.94048 10.91965,-17.78078 0.0901,-2.66626 2.56647,-12.39333 5.19784,-6.96896 -0.14135,7.47106 1.95743,-0.21794 3.26207,0.0601 1.83642,4.48403 2.70338,4.35176 4.17672,0.24253 4.95045,4.9402 -6.84156,-13.51541 2.32035,-13.28512 7.83561,-4.02405 -8.31174,-16.66379 -2.94408,-18.23817 2.60349,-2.04746 -2.70007,-11.43444 -2.09641,-12.52932 4.03564,-0.91472 -2.78527,-3.24983 1.58461,-5.11075 -7.4802,-3.31456 5.50967,-4.64933 0.79402,-8.88214 -7.53008,-1.58119 4.45399,-0.39937 2.7733,5.12654 3.0341,3.75946 -6.22497,17.42282 0.58503,8.52091 3.06413,1.14049 -5.19504,12.24245 0.51925,11.1183 0.67239,-5.08236 4.13457,7.83947 7.72176,5.61471 0.21416,6.59545 2.3247,16.14657 -1.06141,21.13231 1.26126,-6.96584 -5.95617,5.33062 -4.93254,8.21508 -4.12064,8.18514 -7.25732,16.65318 -9.28673,25.51504 -3.50418,7.1342 -3.32203,16.00825 -4.20775,24.14443 -0.53427,1.18059 0.0952,7.16231 -2.12306,5.94756 z m -10.95714,-19.28007 c 5.03855,-8.85426 -10.94625,5.89619 -1.37442,1.29603 l 1.37442,-1.29603 z m -6.24297,-49.02189 c 4.39546,-0.59599 3.91492,-9.88898 0.31902,-2.61873 -1.34875,-2.47304 6.67286,-7.62106 2.10451,-11.18157 2.35623,-1.89035 8.11827,-1.82813 1.6434,-3.17161 2.51914,-1.10921 3.69747,-2.75829 2.20787,-3.98922 1.35101,-3.99474 3.56374,-5.40366 3.29538,0.32201 -1.08481,5.57336 7.99606,3.31715 2.40854,8.19796 -2.23535,1.47862 0.37362,8.50846 0.43423,2.51394 7.83755,5.31011 -7.24357,11.35093 -12.49554,10.24524 l 0.0826,-0.31802 -3e-5,0 z m 7.59051,-3.07526 c 6.9367,-6.47655 -7.56087,-2.66456 -2.93291,0.99308 l 1.28509,-0.26274 1.64782,-0.73034 0,0 z m 11.52389,0.1802 c -2.87994,-6.53052 13.76758,-7.57682 5.20098,-4.71148 -2.63871,-1.6248 -1.55958,6.43082 -5.20098,4.71148 z m -3.83894,-6.66889 c -1.59887,-7.23586 5.95443,2.0724 1.18322,2.40319 l -0.68332,-0.78093 -0.4999,-1.62226 z"
       id="path5273"
       inkscape:connector-curvature="0" />
    <path
       style="fill:#96686a"
       d="m 855.73087,976.9438 c 0.2417,-7.07022 -8.20643,-11.09713 -7.00081,-17.49315 6.74336,2.17081 12.54243,14.92969 9.33417,18.05781 0.80368,-4.2486 -2.7892,2.53547 -2.33336,-0.56466 z m -148.18104,-3.43538 c 0.79823,-2.99592 4.67736,-15.38463 7.35277,-9.99466 -1.53579,1.02566 -7.1293,16.31953 -7.35277,9.99466 z m 161.26175,-1.55763 c 0.0215,-7.39553 -12.68291,-11.905 -8.1975,-18.5443 4.37511,3.44534 9.73482,17.82198 8.1975,18.5443 l 0,0 z M 725.65192,967.2898 c -4.19549,0.81033 -3.70999,-9.98632 0,-4.0904 1.61952,5.57786 1.4571,0.54013 2.07354,0.7418 2.19829,1.25522 -0.86539,6.43712 -2.07354,3.3486 z m 150.02919,-1.4962 c -5.24474,0.74751 -2.40379,-9.34968 -0.34237,-2.95772 0.35867,-2.25403 3.93799,7.41715 0.34237,2.95772 z m -4.88335,-8.56309 c -6.50515,-1.64494 -3.89317,-11.80481 -12.82956,-10.60248 -4.14545,-0.46882 -8.26313,-10.62844 -7.39089,-1.11132 -2.87635,4.19629 -6.08246,-6.95985 -12.06223,-3.60676 -6.72236,1.55603 2.78883,-8.03549 -2.70727,-4.03759 0.83384,-4.00077 -1.97661,-6.87266 0.57036,-8.25858 -2.44225,-2.72306 -0.40695,-8.55867 2.10979,-4.75228 1.76439,-5.43258 7.68652,4.15037 3.69576,-3.16195 -1.27693,-2.312 -3.1575,-9.07074 -2.94242,-3.59443 -4.5842,-7.64005 4.33241,-12.56808 2.4905,-19.39606 0.71535,-1.61153 -4.79806,-5.76196 0.6146,-2.97807 3.02934,-2.24801 -0.36213,-4.52362 3.22631,-7.27229 -5.86826,2.36799 -2.21936,-11.50166 -1.6639,-16.52883 3.3839,-4.30448 0.85985,-9.32421 -1.25689,-3.17148 -1.93756,-7.35829 8.05209,-13.04768 4.97807,-21.74223 -0.29883,-7.57746 6.45383,-4.93954 3.73013,1.20056 -3.0671,2.64109 -0.77327,5.62589 -2.47499,9.68503 5.18839,2.73967 2.18136,13.13109 5.65865,18.44838 -0.008,10.39266 6.54505,19.14376 10.4799,28.35592 6.11299,8.41933 8.70736,18.71542 15.20932,26.9884 2.9546,1.04756 1.57082,9.82957 1.42737,8.74234 -3.93954,-6.8225 -7.22244,-2.18295 -7.34708,2.52785 -3.67219,0.0477 -2.67794,-7.12737 -6.0023,-0.70625 -8.09896,5.51825 3.32131,6.15769 4.285,12.83854 0.95847,3.0403 1.76462,5.621 -1.79823,2.13358 z m -161.7081,-0.0728 c -3.09275,-1.33987 -8.74124,0.70884 -4.99921,-3.92688 -4.93455,0.87171 -1.97765,-4.03222 -7.32553,-4.8852 -3.62948,-6.37239 8.46524,-1.96173 6.72948,1.51014 2.70369,-0.19982 6.31596,6.69365 8.80142,1.60467 -1.8262,1.43411 0.73747,9.625 -3.20616,5.69727 z m 169.26797,0.47312 c 2.57476,-5.60581 -9.33765,-10.84468 -0.54358,-14.34058 0.64667,4.83601 5.16868,12.02129 1.30274,14.71779 l -0.75913,-0.37721 -3e-5,0 z m -144.42967,-9.42484 c -4.74833,-4.11401 -9.90028,-3.48518 -16.03415,-1.59166 -4.27628,2.92777 -1.16097,-3.85634 -6.52144,1.07348 3.76794,-4.46757 -5.86977,-2.87224 -5.12525,-8.42944 -1.42374,-5.41762 -12.78615,0.30298 -7.8276,-4.7116 -1.72547,-1.24973 -1.48305,-6.97833 -6.18964,-7.99983 6.74003,1.80792 -1.64891,-8.13136 6.5019,-7.73351 8.69671,-1.25147 -5.25623,-1.42165 0.99974,-6.13969 3.08531,-2.55779 4.78249,0.63118 4.54959,-5.21513 6.01297,-4.32904 5.07879,1.501 1.92127,1.8492 4.5144,-1.25159 5.11168,4.25495 8.9918,3.52123 -3.50861,3.26751 -8.50482,-3.22156 -9.07364,2.42944 -3.60231,3.98094 4.32219,-1.06205 5.22317,1.0008 4.84659,-1.53634 9.97199,-4.53363 11.65856,0.18232 3.47485,1.74341 -5.44655,0.34547 -4.1472,4.06232 9.46795,0.74323 13.65857,-8.8582 13.26782,-16.85291 4.23897,-1.65964 1.29499,-12.80084 7.26116,-9.44958 -1.26885,5.11264 2.10497,5.08189 2.555,0.28768 2.76778,5.43853 2.70505,4.17758 5.41767,0.88778 2.84008,3.8254 -5.02181,-10.0309 -0.69605,-12.76823 11.83828,-3.14065 -3.72025,-12.64572 -1.56805,-19.93526 4.52342,3.39806 -0.79338,-7.00669 -0.23186,-9.37298 -5.25469,-2.42894 4.12223,-2.25737 -1.11089,-5.01752 5.22125,-2.48361 -5.32941,-5.67071 2.24549,-6.32145 2.72593,-2.84798 0.92982,-6.0138 -3.03069,-5.0248 8.80252,-0.85851 6.96189,12.84677 3.8641,17.6573 1.08762,-4.23778 6.4562,-4.35447 2.61222,-0.001 -2.37705,2.6803 -0.41144,11.90938 1.08453,5.66569 3.2431,6.43406 10.18317,7.02768 8.03274,15.62651 0.85244,4.07982 -1.24693,17.98675 -1.50293,9.96529 -6.25744,6.69001 -3.11029,10.53752 -8.57295,18.55443 -3.64815,7.22696 -4.44485,15.61831 -7.62657,22.8513 -3.07337,6.15948 0.83128,21.0491 -6.592,21.82097 l -0.33585,-0.87093 0,-6e-5 z m -8.55784,-14.8856 c 5.03855,-8.85426 -10.94625,5.89619 -1.37442,1.29603 l 1.37442,-1.29603 z m -15.00678,-40.33268 c -0.003,-3.11114 6.68623,-9.84653 3.05918,-2.73526 -0.51088,1.3076 -4.37612,8.03897 -3.05918,2.73526 z m 13.6252,-10.0381 c 5.5525,-0.66879 5.06305,-8.55224 1.44447,-9.68117 2.69558,3.46058 -3.85595,9.05743 -4.32433,3.1312 5.68302,-0.57048 -2.5939,-8.74619 5.26657,-7.8919 -3.14615,-1.01512 -2.53004,-1.11364 0.022,-3.49932 0.48517,-10.09501 2.7505,5.06587 6.61464,3.9758 -2.61448,1.38659 -3.73377,9.46767 -1.65869,6.93824 2.01093,-5.41989 5.22028,4.88744 -0.55694,5.56413 -0.53202,0.92296 -10.63748,4.60888 -6.80776,1.46302 z m 14.25301,-1.54617 c -2.87994,-6.53052 13.76758,-7.57682 5.20098,-4.71148 -2.63871,-1.6248 -1.55958,6.43082 -5.20098,4.71148 z m -3.83894,-6.66889 c -1.59887,-7.23586 5.95443,2.0724 1.18321,2.40319 l -0.68331,-0.78093 -0.4999,-1.62226 z"
       id="path5271"
       inkscape:connector-curvature="0" />
    <path
       style="fill:#6c4f57"
       d="m 854.27889,972.0001 c -1.26186,-3.40158 -4.88394,-14.14569 1.4151,-6.40288 3.14757,3.08489 4.82014,15.21647 1.31329,10.95255 -1.35608,2.58479 -2.16428,-3.95624 -2.72839,-4.54967 z m -146.76696,1.50832 c 0.69986,-2.76694 5.2359,-15.80275 6.82157,-8.66911 -1.68044,0.33519 -6.59994,15.28801 -6.82157,8.66911 z M 861.08878,958.8024 c -3.13053,-13.76878 8.64325,8.67869 0,0 z m -157.43686,-3.42154 c 1.12172,-6.4418 11.38866,3.18927 2.25636,0.80832 -0.6706,-0.24545 -1.84431,-0.0102 -2.25636,-0.80832 z m 165.25,-0.41061 c -6.96611,-5.36791 5.90741,-6.71825 1.82697,0.5086 l -1.82697,-0.5086 0,0 z m 9.28367,-4.89869 c -2.99837,-1.75976 -3.79573,-1.06968 -0.70892,-4.49788 1.43422,-0.0267 2.99265,7.96681 0.70892,4.49788 z M 713.3247,944.66877 c -0.80528,-2.61046 -5.66644,-0.46256 -5.25881,-5.36206 -1.77728,-4.67261 -9.7865,-1.78007 -6.92803,-5.77961 -4.99657,1.52672 4.0956,-3.79019 -3.71547,-3.52955 -1.97147,-3.11528 -7.7183,-3.02281 -1.56883,-4.07631 -4.55835,-5.15256 2.22734,-6.57131 5.85042,-8.51659 -8.33957,-0.53024 1.0189,-7.28293 2.13656,-6.5481 -2.5335,-5.09867 7.07883,-6.69033 5.06138,-2.71655 -8.78352,-0.22086 7.21266,2.32927 -1.51864,4.54138 -1.06479,2.60719 -4.57817,6.00868 1.06864,3.37704 4.54524,0.59061 13.76126,0.33615 9.67497,5.97296 1.38486,4.48056 1.47758,-2.75104 5.61416,-0.20935 4.25298,-2.87 9.1774,-4.69962 10.37132,0.43642 3.00289,1.09471 -1.0999,6.22248 3.45615,1.45378 5.84734,0.51119 3.95489,-6.88407 4.08976,-9.91864 4.27372,-1.66106 2.16134,-9.23391 4.71897,-10.47768 -0.74882,-2.54916 7.98936,-13.1953 5.27473,-6.05746 -4.26545,7.62095 -6.95015,16.45868 -8.99384,25.16667 -3.81244,7.11442 -1.94074,16.83939 -6.83184,23.37372 -3.69084,-1.09025 -5.64168,-0.51028 -8.94839,-2.02319 0.48365,4.48552 -6.0543,-3.60212 -8.81036,2.36692 -2.1039,0.30809 3.89184,-7.67555 -0.0406,-5.08637 1.75547,1.51783 -6.35499,6.77136 -4.70228,3.61257 z m 11.17941,-8.41035 c 4.13359,-3.3801 2.58903,-11.15723 -2.41714,-4.32858 -1.13863,-0.70986 -6.08397,-1.05791 -4.11078,2.92996 2.95243,-3.30504 1.82975,7.91864 5.58826,1.83731 l 0.93966,-0.43869 0,0 z m -14.85219,-13.41821 c 3.53718,-9.3185 -8.96923,1.05312 0,0 z m 149.5,21.41821 c -3.94076,-0.61354 -6.49632,-4.37801 -6.55901,-8.24081 -4.08475,-1.27113 -5.08771,8.16275 -7.02136,0.89076 -2.80802,-4.62569 -14.03058,-11.52732 -3.37441,-10.61243 5.2179,1.96907 0.59072,-7.6923 1.82121,-10.8432 -3.88059,-3.83259 6.8339,0.36958 0.38341,-4.96048 -3.37666,-2.72883 3.80063,-8.55771 -2.14485,-10.69877 3.82496,-1.94488 9.85773,-3.19493 4.65347,-8.03509 -1.71728,-9.03425 -1.28325,-18.22539 0.13603,-27.09429 -2.50354,-5.48362 4.62695,-10.45231 4.69127,-2.42441 1.45601,8.24248 1.62711,14.99022 4.04996,22.90792 5.21785,15.90391 15.89779,29.14599 21.86428,44.69598 -4.82689,3.16192 -2.95307,1.16746 0.97412,2.33736 1.84648,2.49664 5.93082,1.56164 0.99906,5.00399 -1.50253,-7.99337 -8.22632,0.77803 -11.97318,2.53061 -0.0591,4.21472 -8.19975,5.00913 -8.5,4.54286 z M 710.36334,892.98771 c -0.003,-3.11114 6.68623,-9.84653 3.05918,-2.73526 -0.51088,1.3076 -4.37612,8.03897 -3.05918,2.73526 z m 12.28858,-9.09904 c 7.09106,-2.02361 7.48231,-7.45408 3.25,-11.21358 -1.41161,3.32919 2.49759,5.4328 -3.66821,5.19032 -4.35417,-0.38126 4.75166,-2.68692 0.44955,-6.02455 -2.75384,-3.39743 8.44797,-3.24584 1.09361,-4.09358 2.70408,-0.33793 2.43373,-5.83019 3.68298,-5.69945 1.83456,5.86053 2.81498,13.62484 5.11891,16.56986 -2.11057,2.90821 -6.74236,5.10359 -9.92684,5.27098 z"
       id="path5269"
       inkscape:connector-curvature="0" />
    <path
       style="fill:#553a45"
       d="m 855.93018,975.97566 c -1.35573,-3.23711 -6.10936,-17.31699 0.9216,-8.14052 2.54979,3.35791 0.79496,5.34548 0.44985,5.48132 2.40139,0.9346 -2.93978,5.98836 -1.37145,2.6592 z m -148.27826,-0.91329 c -0.10815,-3.03606 5.28303,-17.20171 6.56501,-10.53398 -3.32792,2.90185 -2.69395,8.71327 -6.56501,10.53398 z m 4.43616,-32.66575 c -0.65118,-2.80863 -0.76738,-2.67181 0.17363,-4.87726 -5.44584,0.82723 -10.05644,-4.67693 -8.83524,-8.77445 -5.42031,1.42868 -6.02806,-2.87677 -0.39896,-1.7709 4.15647,2.1695 8.01616,-3.15685 7.76516,-2.96559 4.62004,3.44202 6.75262,-3.96648 8.24791,0.65435 6.52001,3.44986 -10.69673,6.38502 -4.02252,10.81224 2.95371,3.64044 -2.31572,3.3767 -2.01076,6.87168 l -1.22718,0.85676 0.30796,-0.80686 0,3e-5 z m 13.64279,0.068 c -4.87317,-0.83412 -4.45184,-5.50621 0.48043,-4.8537 4.20613,4.05561 -1.85489,-6.50505 4.16703,-4.97741 3.20503,-2.41554 1.02868,-7.90118 -1.66579,-2.39869 1.10549,-8.81316 5.05982,1.34968 4.8834,2.02361 2.29741,-1.46761 3.73424,14.43812 0.28264,4.17366 -4.90258,-2.61419 1.90663,6.78296 -3.16578,5.76204 -1.06321,1.6829 -5.11927,-0.77826 -4.98193,0.27049 z m 136.66501,-7.76459 c -3.1705,-4.52283 -7.40966,-9.97776 -12.6817,-10.31708 4.11915,-3.94157 -0.3913,-7.0077 1.66731,-11.18261 -5.25085,-6.95267 8.06079,-0.57109 9.77052,-3.63263 -5.39974,-0.0654 -5.92382,-3.28115 -4.74666,-5.22289 -7.31511,0.84059 -5.49527,-2.7795 -2.08777,-4.72819 -7.24385,-4.63241 8.44217,-5.24411 6.24279,2.15457 3.77623,3.27432 -1.63831,4.39429 4.03607,6.35221 2.81184,4.84982 11.33588,15.34734 8.07999,18.64278 -3.89946,0.80422 -9.13073,6.87656 -9.90997,9.64948 l -0.37058,-1.71568 0,4e-5 z m -162.99396,-9.52171 c -7.40073,-4.7292 9.3881,-6.64499 0.79137,-1.66948 2.0645,1.81394 3.10113,3.9324 -0.79137,1.66948 z m 27.6073,-51.81395 c 1.5915,-3.10385 -7.32221,1.76164 -3.96973,-3.60181 4.57912,0.40084 2.9897,-2.90121 1.39605,-3.17763 6.09606,-2.5558 3.41781,11.67117 2.57368,6.77944 z m 123.11719,-3.89095 c -2.82156,-3.93451 -0.17393,-17.02615 1.49948,-5.64103 0.92747,1.34862 0.5931,5.79721 -1.49948,5.64103 z"
       id="path5267"
       inkscape:connector-curvature="0" />
  </g>
</svg>
