<?xml version="1.0" encoding="UTF-8" standalone="no"?>
<svg
   xmlns:dc="http://purl.org/dc/elements/1.1/"
   xmlns:cc="http://creativecommons.org/ns#"
   xmlns:rdf="http://www.w3.org/1999/02/22-rdf-syntax-ns#"
   xmlns:svg="http://www.w3.org/2000/svg"
   xmlns="http://www.w3.org/2000/svg"
   xmlns:sodipodi="http://sodipodi.sourceforge.net/DTD/sodipodi-0.dtd"
   xmlns:inkscape="http://www.inkscape.org/namespaces/inkscape"
   sodipodi:docname="hot blooded.svg"
   height="100%"
   width="100%"
   inkscape:version="0.48.4 r9939"
   version="1.1"
   id="svg2"
   viewBox="0 0 512 512"
   inkscape:export-filename="C:\Users\Chris\Documents\GitHub\bot-game\assets\cold_blooded.png"
   inkscape:export-xdpi="12.832031"
   inkscape:export-ydpi="12.832031">
  <sodipodi:namedview
     pagecolor="#ffffff"
     bordercolor="#666666"
     borderopacity="1"
     objecttolerance="10"
     gridtolerance="10"
     guidetolerance="10"
     inkscape:pageopacity="0"
     inkscape:pageshadow="2"
     inkscape:window-width="1185"
     inkscape:window-height="1030"
     id="namedview44"
     showgrid="false"
     inkscape:zoom="0.25169963"
     inkscape:cx="-267.92465"
     inkscape:cy="1217.8643"
     inkscape:window-x="100"
     inkscape:window-y="100"
     inkscape:window-maximized="0"
     inkscape:current-layer="svg2" />
  <metadata
     id="metadata48">
    <rdf:RDF>
      <cc:Work
         rdf:about="">
        <dc:format>image/svg+xml</dc:format>
        <dc:type
           rdf:resource="http://purl.org/dc/dcmitype/StillImage" />
        <dc:title></dc:title>
      </cc:Work>
    </rdf:RDF>
  </metadata>
  <defs
     id="defs46">
    <linearGradient
       id="linearGradient3926">
      <stop
         style="stop-color:#ffffff;stop-opacity:0;"
         offset="0"
         id="stop3928" />
      <stop
         id="stop3934"
         offset="0.5"
         style="stop-color:#ffffff;stop-opacity:0.49803922;" />
      <stop
         style="stop-color:#ffffff;stop-opacity:0;"
         offset="1"
         id="stop3930" />
    </linearGradient>
    <filter
       color-interpolation-filters="sRGB"
       inkscape:menu-tooltip="Increase or decrease lightness and contrast"
       inkscape:menu="Color"
       inkscape:label="Lightness-Contrast"
       height="1"
       width="1"
       y="0"
       x="0"
       id="filter3108">
      <feFlood
         flood-color="rgb(0,0,0)"
         flood-opacity="1"
         result="result1"
         id="feFlood3110" />
      <feBlend
         result="result2"
         mode="normal"
         in2="SourceGraphic"
         id="feBlend3112" />
      <feComposite
         result="result3"
         operator="arithmetic"
         k2="1"
         in2="SourceGraphic"
         id="feComposite3114" />
      <feComposite
         operator="in"
         in2="SourceGraphic"
         id="feComposite3116" />
    </filter>
    <filter
       color-interpolation-filters="sRGB"
       height="1"
       width="1"
       y="0"
       x="0"
       inkscape:menu-tooltip="Oversaturate colors which can be fluorescent in real world"
       inkscape:menu="Color"
       inkscape:label="Fluorescence"
       id="filter7264">
      <feColorMatrix
         values="0"
         type="hueRotate"
         id="feColorMatrix7266" />
      <feColorMatrix
         values="1"
         type="saturate"
         id="feColorMatrix7268" />
      <feColorMatrix
         values="2 -1 0 0 0 0 2 -1 0 0 -1 0 2 0 0 0 0 0 1 0 "
         type="matrix"
         id="feColorMatrix7270" />
    </filter>
    <filter
       color-interpolation-filters="sRGB"
       height="1"
       width="1"
       y="0"
       x="0"
       inkscape:menu-tooltip="Oversaturate colors which can be fluorescent in real world"
       inkscape:menu="Color"
       inkscape:label="Fluorescence"
       id="filter7746">
      <feColorMatrix
         values="0"
         type="hueRotate"
         id="feColorMatrix7748" />
      <feColorMatrix
         values="1"
         type="saturate"
         id="feColorMatrix7750" />
      <feColorMatrix
         values="2 -1 0 0 0 0 2 -1 0 0 -1 0 2 0 0 0 0 0 1 0 "
         type="matrix"
         id="feColorMatrix7752" />
    </filter>
    <filter
       color-interpolation-filters="sRGB"
       height="1"
       width="1"
       y="0"
       x="0"
       inkscape:menu-tooltip="Oversaturate colors which can be fluorescent in real world"
       inkscape:menu="Color"
       inkscape:label="Fluorescence"
       id="filter11635">
      <feColorMatrix
         values="0"
         type="hueRotate"
         id="feColorMatrix11637" />
      <feColorMatrix
         values="1"
         type="saturate"
         id="feColorMatrix11639" />
      <feColorMatrix
         values="2 -1 0 0 0 0 2 -1 0 0 -1 0 2 0 0 0 0 0 1 0 "
         type="matrix"
         id="feColorMatrix11641" />
    </filter>
  </defs>
  <rect
     y="-3.1355259"
     x="1.7468045"
     height="524.13165"
     width="516.97894"
     id="rect3171"
     style="opacity:0.98999999;fill:#0c0000;fill-opacity:1;fill-rule:nonzero;stroke:none" />
  <rect
     style="opacity:0.98999999;fill:#ffffff;fill-opacity:1;fill-rule:nonzero;stroke:none"
     id="rect3156"
     width="76.367531"
     height="57.982758"
     x="-94.752312"
     y="319.66696" />
  <g
     id="g3534"
     transform="matrix(0.75789595,0,0,0.75211752,510.75152,510.33349)">
    <path
       style="fill:#fbce0a"
       d="m -647.28668,-329.39368 c 0,-106.83333 0,-213.66667 0,-320.5 213.33333,0 426.66667,0 640,0 0,213.66667 0,427.33333 0,641 -213.33333,0 -426.66667,0 -640,0 0,-106.83333 0,-213.66667 0,-320.5 z"
       id="path3554"
       inkscape:connector-curvature="0" />
    <path
       style="fill:#faae01"
       d="m -647.28668,-329.39368 c 0,-106.83333 0,-213.66667 0,-320.5 213.33333,0 426.66667,0 640,0 0,213.66667 0,427.33333 0,641 -213.33333,0 -426.66667,0 -640,0 0,-106.83333 0,-213.66667 0,-320.5 z m 207.99973,162.49986 c 43.99392,7.70033 26.7453,-49.55461 2.22475,-58.50845 -5.19848,-33.78607 -39.94857,28.81764 -9.41443,34.45786 28.8008,14.29504 3.0288,19.00393 -9.52719,20.49806 3.71758,5.05268 11.27621,5.0017 16.71687,3.55253 z m 75.15073,-10.24986 c 31.96875,-11.47351 -22.31245,-18.02755 -3.00916,1.08958 l 1.78237,-0.64537 1.22679,-0.44421 0,0 z m 19.66909,-5.57833 c -2.13135,-7.28307 -3.5485,8.31453 0,0 z m 32.27608,-19.23976 c 1.96818,-11.65821 35.62311,-54.20669 14.09188,-44.35118 -16.52039,8.93616 -26.21101,35.26223 -17.22126,46.08717 l 3.12938,-1.73599 0,0 z m 53.48607,-3.55237 c 16.71903,-20.35362 -29.39234,-9.39537 -33.09352,-10.46626 7.07061,9.21483 21.9759,17.42079 33.09352,10.46626 z m -275.0817,0.52379 c 30.84788,-9.56552 28.16983,-49.95133 1.1392,-60.28755 0.66718,-27.71432 25.95226,-11.5297 34.89237,-3.48761 18.02609,0.27773 20.65699,-31.49645 0.48021,-18.0275 -11.72459,-33.68051 -58.98833,0.54127 -71.42748,18.15994 -7.66168,27.62209 20.21047,-7.10781 25.73839,16.88666 17.27112,40.05157 -49.2656,-16.04645 -39.3903,25.8006 5.16936,21.40138 31.94856,18.40665 48.56761,20.95546 z m 33.01287,-1.06166 c 23.71449,-0.49504 50.54702,-34.74047 15.95464,-38.77653 -16.75839,-1.51949 -39.85723,41.23438 -15.95464,38.77653 z m 140.56809,-3.12001 c 5.54084,-30.9334 -44.31479,-10.50006 -10.35507,-0.80097 2.12392,3.25186 8.08365,4.69284 10.35507,0.80097 z m -51.29874,-18.59055 c 17.15706,-7.69421 43.32024,-35.96163 7.67789,-29.7755 -1.99914,14.86498 -3.4023,12.95685 -11.04305,10.59498 0.90655,5.03916 -2.76318,24.18134 -2.41712,19.82211 l 5.78228,-0.64159 z m 301.41403,-7.76711 c 9.74824,-22.02443 24.592536,-47.15079 7.78461,-71.84796 30.356507,5.76574 -16.04738,-34.52627 -33.06526,-32.10734 -18.30389,-7.26926 -37.73318,-10.56337 -38.88379,13.90965 -42.57177,-7.57312 -22.82442,44.99411 -4.43566,60.21678 10.68257,10.82792 -18.34126,-5.07881 -9.92903,13.47739 -20.7484,18.5074 19.2422,8.73453 27.09847,-1.94468 9.51107,21.82262 29.40328,17.49133 51.43066,18.29616 z m -3.54344,-80.19515 c 2.3095,-11.18972 10.98039,7.53914 0,0 z m -118.11169,80.76462 -2.3583,-1.16543 2.3583,1.16543 z m 153.43862,-45.40068 c 0.204579,-35.52994 -21.328797,13.76155 0,0 z m -128.56153,-2.13978 c -4.20356,-15.17318 -41.09592,-46.52438 -38.48033,-31.53202 11.1923,11.94057 17.72537,35.0875 38.48033,31.53202 z m -260.91821,-14.89301 c -3.71849,-8.61924 -2.49635,8.39828 0,0 z m 159.21385,-105.25 c 9.5687,-5.98054 38.65901,-14.34127 10.48385,-15.86693 -7.64243,-3.06599 -20.5944,19.37948 -10.48385,15.86693 z m -33.48204,-140.62415 c 19.43154,-23.29194 -26.38222,7.8314 0,0 z m -37.37856,-0.51399 c -1.78593,-14.96334 -16.84761,0.99402 0,0 z m -28.09795,-37.8303 c 26.45251,-17.95289 -24.07533,-30.32861 -27.01814,-5.6827 11.23241,-0.14883 2.83211,18.87357 27.01814,5.6827 z m 127.2447,0.78653 c -7.92515,-14.19654 -7.12963,4.42692 0,0 z m -107.8125,-6.7512 c -5.43073,-2.08134 0.45125,2.29173 0,0 z m 42.6125,-40.51689 c 7.74562,-14.03139 -8.78915,0.37513 0,0 z m 25.53552,-4.46885 c -2.96334,-12.42181 -10.32304,4.37067 0,0 z"
       id="path3552"
       inkscape:connector-curvature="0" />
    <path
       style="fill:#f78f01"
       d="m -647.28668,-329.39368 c 0,-106.83333 0,-213.66667 0,-320.5 213.33333,0 426.66667,0 640,0 0,213.66667 0,427.33333 0,641 -213.33333,0 -426.66667,0 -640,0 0,-106.83333 0,-213.66667 0,-320.5 z m 314.8382,189.12794 c -8.11344,-32.17685 -26.57498,10.38581 0,0 z m -107.20407,-18.17846 c 25.56709,7.21292 35.3224,-26.94249 60.53781,-21.98987 -15.13822,26.72617 32.40344,29.15155 27.92366,3.15558 16.85441,19.64277 21.7345,-21.00103 1.89434,-21.46451 2.08647,-30.03567 -36.64428,-36.44264 -26.43103,-62.38098 -24.24369,-27.28301 -40.71884,20.03128 -62.18181,15.40829 -9.32811,6.82335 -51.26539,-4.66089 -33.51177,-26.39924 24.76077,5.39491 5.35895,-22.28109 27.51953,-22.17761 18.44794,-3.23483 35.05974,-63.15668 8.55262,-31.7648 -13.21314,19.03674 -40.64009,25.85061 -58.96744,22.07081 -7.64918,-7.67557 25.36015,-1.62844 6.19213,-11.43297 -33.78874,14.29551 -85.40588,25.39627 -96.65719,68.10682 -8.79207,17.83715 -13.62489,78.56893 12.77785,43.5458 17.40417,41.09488 47.59064,-22.833 70.72087,4.55952 14.02433,-7.56242 41.61269,-20.12376 40.09485,7.3656 -39.8934,8.02342 8.62273,31.90672 21.53558,33.39756 z m 50.63475,-31.52928 c -31.85002,-6.16407 30.88837,-22.18055 8.40117,0.18492 -2.52477,0.46344 -6.59447,3.52319 -8.40117,-0.18492 z m -104.26888,-62.86118 c 4.01652,-9.79015 5.91447,8.5393 0,0 z m 8,-0.47569 c 3.03922,-5.88283 3.59899,4.82278 0,0 z m 248,87.63918 c -7.14443,-18.21689 -23.2034,-38.11786 2.30199,-43.62037 4.57002,-23.8082 27.59153,-46.27929 47.51898,-25.59213 26.94661,-14.18945 35.9656,10.89815 62.19501,5.43014 11.4718,-2.02922 55.485928,3.18415 45.709888,-14.30016 -27.871498,-1.75521 19.588687,-15.33119 6.348247,-35.86199 -5.875257,-45.82662 -52.458285,-61.04453 -90.269095,-72.73454 -20.8896,-2.29567 -61.16878,-6.209 -71.76052,5.39424 15.97865,0.52758 44.55344,18.53295 23.55573,36.59474 -15.49207,-11.18018 -52.99273,-25.66343 -50.81989,9.74351 -0.73867,39.53688 35.44596,29.94067 57.44365,39.84396 -5.66363,10.2213 -47.76126,10.28096 -36.3164,37.72745 -21.38352,11.02615 -13.35256,-39.52079 -38.69801,-16.88903 4.27953,-18.28308 -7.42665,-30.45635 -22.21387,-10.76659 -4.7546,20.46768 -30.33451,0.004 -24.29071,10.65335 -5.93652,16.8706 -4.93792,73.51983 19.47954,39.25822 10.41396,-25.44114 41.13751,7.53341 50.69915,21.31035 2.1309,4.01232 14.87321,24.38641 19.11631,13.80885 z m 49.16582,-171.70474 c -9.57913,-19.95879 22.67229,8.0499 0,0 z m -119.66582,171.41237 c 31.75113,-17.80349 -31.03419,-20.50346 -10.078,1.93316 l 5.66704,-1.03707 4.41096,-0.89609 z m -278,-13.93014 c -2.81744,-4.28757 -4.36648,4.41498 0,0 z m 368.5,-20.96482 c -15.53567,-18.11321 -16.50698,10.76732 0,0 z m 106.5,-4.03518 c 0.61623,-15.93709 -10.33106,4.43144 0,0 z m 46.5,-24.05102 c -6.887758,-19.07607 -6.911766,14.65139 0,0 z m -337.07644,-79.8798 c 7.34894,-26.09517 -29.43681,10.91757 0,0 z m 9.07644,-8.51016 c -2.10186,-8.38226 -2.92136,5.8096 0,0 z m 148.52361,-13.59721 c 4.42925,-34.22895 -27.7338,-18.97064 -6.16571,0.92424 l 6.16571,-0.92424 z m -98.72361,-1.16181 c 3.17445,-9.66614 -9.31617,2.90316 0,0 z m 71.1768,-46.05 c 0.63515,-21.10767 -17.51566,-70.84533 -39.14952,-34.94569 -3.66805,14.244 -40.88602,47.09546 -9.01006,23.94884 20.6656,-18.84923 43.43701,0.40311 48.15958,10.99685 z m -90.1779,-0.91568 c -6.17744,-9.41797 -9.6281,9.40091 0,0 z m -31.7989,-7.71769 c -3.75242,-5.65743 -4.53875,3.83666 0,0 z m 106.45729,-94.18573 c -3.29845,-3.43237 -0.095,5.09464 0,0 z m -11.68936,-28.9309 c 10.72797,-16.35676 36.11533,-5.31212 24.58214,-28.85086 -22.04073,-21.53486 -41.63283,31.50612 -24.58214,28.85086 z m -135.3785,-12.57244 c -0.87092,-14.70136 -9.84187,4.58543 0,0 z m 92.55808,-17.05194 c 25.04147,-3.18377 -0.32997,-31.24914 -0.92852,-21.96788 13.0689,-33.1104 83.9777,17.80307 61.52304,-31.99346 -2.55053,-18.94408 -17.44993,-34.3288 -32.64634,-19.87454 24.21109,-3.73019 26.70054,34.3741 3.02457,21.41414 -14.09277,8.19055 -48.34743,27.96596 -39.77907,-4.4785 6.34278,-12.48983 32.31772,13.72157 20.59834,-4.88205 -30.32664,-0.74205 14.50166,-40.43393 -18.82702,-34.89162 -19.65202,5.57812 -44.7131,51.13119 -60.96176,26.24661 30.97574,-7.96329 -3.60291,-17.45115 -14.62888,0.61847 -26.8603,9.2466 -26.48168,54.79893 7.02347,36.6349 25.07684,-9.48982 41.72569,10.76052 63.53788,17.49034 10.28007,11.29695 -6.51568,23.71671 12.06429,15.68359 z m -34.48943,-2.24354 c -4.6261,-23.26427 -40.71427,-9.12755 -8.65175,-0.57546 2.24776,0.85804 7.20448,4.61246 8.65175,0.57546 z m 66.72525,-81.34875 c -4.5566,-0.59396 3.65107,4.34119 0,0 z m -5.18333,0.23187 c 3.01686,-29.32742 -31.03815,-2.94173 0,0 z"
       id="path3550"
       inkscape:connector-curvature="0" />
    <path
       style="fill:#c40c87"
       d="m -647.28668,-329.39368 c 0,-106.83333 0,-213.66667 0,-320.5 213.33333,0 426.66667,0 640,0 0,213.66667 0,427.33333 0,641 -42.149785,-0.8617145 -84.412653,2.0369129 -126.46956,-1.90409 10.58871,-18.044669 -15.42024,-74.719161 -12.84826,-30.234252 10.65792,19.780312 5.38426,42.02608036 -21.078,31.7022315 -159.86693,0.8033711 -319.73617,0.2924887 -479.60418,0.4361105 0,-106.83333 0,-213.66667 0,-320.5 z m 170.38721,311.2608 c -4.72184,-19.605165 -14.32457,9.1215865 0,0 z m 443.61279,-62.64417 c 13.529453,-20.8312 -32.50915,-4.652317 0,0 z m -348.9583,-24.11663 c 24.00099,-25.87067 -81.00028,-16.66635 -28.60749,-0.71782 10.91394,-3.16276 18.05724,5.756608 28.60749,0.71782 z m 89.28795,-5 c 4.55727,-37.02108 -28.33314,13.24192 0,0 z m 20.51874,-6.88514 c 2.65051,-14.24573 -14.29753,4.42356 0,0 z m -58.69086,-8.86486 c -2.39822,-16.80976 1.07765,-51.53633 19.16996,-22.43257 12.99449,-4.38047 27.93582,-10.31742 37.34831,-3.76506 12.70487,-14.74191 -35.98295,-36.73692 -2.57751,-41.15635 5.06439,20.88061 41.1541,59.55726 48.36828,18.98097 -1.61223,-15.21506 -19.26832,-19.44661 3.44543,-18.27598 12.96975,-11.27359 41.82831,-5.10581 25.33581,-24.71585 13.92299,-29.17117 57.05968,-5.15123 77.75924,0.85134 2.08574,40.60541 32.472201,6.68175 38.669799,4.40316 7.649399,36.07126 38.780054,2.03769 24.175662,-19.59234 -6.035277,-39.43787 -13.47704,-91.61415 -57.441531,-105.92776 -34.68698,-10.49443 -66.53144,-31.21718 -104.05197,-20.17969 -29.32684,-5.31676 -58.78919,-15.22067 -56.27276,-52.90918 1.22128,-28.17672 -14.37661,-42.30873 -28.14479,-11.90418 -17.58625,38.734 -66.95809,50.31301 -101.79392,25.67841 5.23019,15.81428 30.38165,65.90202 -2.94263,63.82272 -9.98422,-7.94873 -6.87375,-41.24708 -14.11856,-13.88974 -22.54191,32.83669 -70.51171,18.74687 -99.15227,44.28842 -36.22199,10.68527 -68.04561,39.4222 -70.956,78.85799 1.59174,15.59075 -16.39137,63.39811 6.76996,58.98728 19.07181,-11.99186 46.68374,-25.54792 71.19676,-33.30862 9.38557,15.55026 56.91788,-21.63931 36.70913,8.5597 -21.42947,19.01867 18.59712,28.87282 11.20632,34.46752 4.34701,26.72539 36.52022,2.39836 51.95389,-2.96823 11.46002,-13.24994 26.05608,-16.36114 25.16799,2.18787 19.69686,6.54138 -20.87366,28.29134 7.39181,17.66318 16.25177,-1.52249 30.22786,-32.06059 34.98062,0.0388 2.37327,7.48684 9.03253,15.22961 17.80297,12.23818 z m 259.84247,-84.69098 c 1.838036,-3.79303 2.979042,2.21847 0,0 z m -271.41667,-9.45478 c -15.54854,-26.64734 23.79852,-9.97934 0,0 z m -18.54698,-30.56044 c -4.75354,-31.70984 -39.82097,-68.61505 -13.03653,-98.09747 6.76385,-11.59147 27.2916,-44.59488 36.08814,-16.87648 23.89742,-36.57569 83.00051,-13.31231 76.54311,30.04556 -6.89082,22.20277 -9.83361,49.82662 -21.98353,67.04999 -21.43373,16.35854 -55.52306,2.69681 -76.1927,18.53666 l -1.41849,-0.65826 0,0 z m 22.76361,-53.98939 c 21.01736,-17.4744 -13.21636,-66.38688 -21.65469,-31.86248 2.94504,11.34742 2.56679,40.90841 21.65469,31.86248 z m -92.73061,37.11494 c -11.02053,-31.01918 69.50999,-33.66508 26.71812,-9.86334 -8.59068,4.0146 -17.45916,7.71108 -26.71812,9.86334 z m -143.81935,121.52356 c 3.97621,-25.43607 -21.3693,7.19495 0,0 z m 177.3239,-274.57343 c -7.50866,-16.81964 -4.61254,12.40547 0,0 z m 74.4261,-0.72647 c -5.129,-6.60927 -2.81748,8.22522 0,0 z m 42.49406,-49.22455 c 4.60335,-15.45477 -9.44586,-34.28334 10.22621,-40.46449 1.77179,-27.96608 0.19113,-57.72128 -8.45161,-83.99477 1.74332,-21.15938 -43.9348,-62.77257 -48.2824,-31.31747 -2.28372,19.7043 50.52248,28.90252 14.19082,25.09788 -28.37565,-0.43851 -11.90305,-57.29519 -44.39698,-33.79409 -9.84763,6.61198 -43.1694,39.03292 -44.08264,26.63929 16.94142,-2.42098 25.48191,-27.14135 1.918,-16.04101 -27.89804,7.50484 -62.89412,42.35297 -47.57836,70.27539 10.7155,-16.54923 52.95891,-27.92619 53.69779,-4.32255 -14.45037,6.53616 -23.76528,2.68084 -5.15847,12.06762 16.1137,18.51214 24.73727,-4.35344 32.31991,-5.22278 28.78375,13.12887 31.75585,61.13018 71.06088,52.21041 -2.9649,8.70726 0.24483,36.27005 14.53685,28.86657 z m -43.99406,-60.3877 c -19.32515,-28.41738 44.9251,-21.42419 13.05339,-1.05938 l -6.14739,1.79808 -6.906,-0.7387 z m 31.38486,-19.13212 c -13.5785,-4.41923 -65.55315,-8.47738 -25.8615,-19.67183 10.77863,-9.15553 57.29332,16.60155 25.8615,19.67183 z m -144.52922,53.3461 c 45.3218,-6.28402 -20.40714,-74.79195 -11.07227,-27.13842 5.54896,4.45656 4.47509,33.68812 11.07227,27.13842 z"
       id="path3548"
       inkscape:connector-curvature="0" />
    <path
       style="fill:#ec6109"
       d="m -647.28668,-329.39368 c 0,-106.83333 0,-213.66667 0,-320.5 108.47884,0.48102 217.3961,-1.26778 325.58832,1.57311 74.23838,-3.0829 148.90658,-0.86618 223.313697,-1.57408 30.365992,0.0117 60.731993,0.0248 91.097983,9.7e-4 0,213.66667 0,427.33333 0,641 -12.602341,1.9925567 -6.816765,-24.634404 -18.27646,-4.37558 -30.653355,-21.105943 -44.376072,-56.664344 -34.125042,-94.96915 7.399488,-17.84912 38.486523,-10.52476 9.088792,-27.74745 -10.457632,-12.0046 10.794719,-45.8769 -6.959802,-16.62916 -17.904885,22.99737 -24.642757,-44.0678 -54.529918,-16.27161 -32.93264,11.2598 -31.34116,49.09696 -37.27977,77.4898 5.97769,39.681167 -60.53986,27.445606 -49.29194,63.288622 19.12919,28.2074541 -41.92433,27.88673176 -32.81093,0.04165 -13.11236,-22.377077 -55.46324,0.163737 -17.02914,9.070821 26.02625,15.1246868 -16.77751,9.2077795 -28.11182,10.102059 -61.89133,0 -123.78265,0 -185.67397,0 -1.40207,-32.038781 -56.64093,-28.151581 -51.71009,-62.480701 -0.48558,28.453701 -50.51804,11.148831 -30.70084,46.151909 23.55141,22.1383233 -4.44235,15.4690567 -19.77193,16.328792 -18.16155,-1.199115 8.66573,-39.772767 -3.94091,-56.160336 -11.02948,-22.214378 -1.44652,-51.339404 19.84693,-53.864714 -3.02455,-27.10867 34.43562,-88.31368 50.17335,-38.2122 -6.47143,45.31991 45.49153,30.77809 62.49018,56.27632 4.69778,41.217281 65.57162,-6.66479 50.63756,39.705394 -8.92498,30.300778 23.34121,29.148357 36.73618,10.283629 24.31099,-11.594977 88.9162,16.999179 62.20431,-31.478372 2.02323,-28.968291 44.69627,7.67564 44.54636,-30.161031 0.40853,-32.59499 52.77571,-13.58065 41.39663,-52.39449 17.57248,-14.6788 30.14885,-29.66782 33.99254,-51.31452 15.7552,-12.52125 49.73244,42.10695 27.21808,6.35195 -22.47283,-26.02724 -44.74554,8.6936 -48.35237,24.4105 -34.71536,7.20166 -5.13323,57.18357 -46.76689,46.06887 -16.95065,10.47913 -4.13127,53.383828 -38.34466,41.617186 -22.84279,-3.979136 -28.44837,33.934894 -16.0997,38.116192 -30.34744,-6.742339 -56.07232,-6.748792 -80.7495,14.984722 -45.43582,-2.480805 32.89526,-68.61358 -6.45907,-51.600359 -29.41559,20.449342 -55.33691,0.531585 -71.09447,-23.716651 -16.26986,-4.82543 -54.39357,-1.75056 -43.04905,-29.22529 1.04726,-29.6162 -39.08845,-49.88606 -48.16171,-12.75148 -17.81367,22.829 -24.14708,49.02744 -46.85425,65.371493 -11.85816,-4.063263 -16.36314,-68.658563 -12.56966,-28.079633 7.93916,15.54241 1.09732,55.311153 -5.19598,51.030837 14.28787,4.036544 7.98714,35.285964 25.23926,33.632077 11.91099,32.199492 -19.15793,33.2046388 -40.98726,31.109906 -8.47758,-2.975716 -29.38525,6.4786601 -28.67304,-5.686842 0,-104.937718 0,-209.875438 0,-314.813158 z m 614,248.61663 c 13.529454,-20.8312 -32.509149,-4.65232 0,0 z m -348.9583,-24.11663 c 24.00099,-25.87067 -81.00028,-16.66635 -28.60749,-0.71782 10.91394,-3.16276 18.05724,5.756608 28.60749,0.71782 z m 89.28795,-5 c 4.55727,-37.02108 -28.33314,13.24192 0,0 z m 20.51874,-6.88514 c 2.65051,-14.24573 -14.29753,4.42356 0,0 z m -58.69086,-8.86486 c -2.39822,-16.80976 1.07765,-51.53633 19.16996,-22.43257 12.99449,-4.38047 27.93582,-10.31742 37.34831,-3.76506 12.70487,-14.74191 -35.98295,-36.73692 -2.57751,-41.15635 5.06439,20.88061 41.1541,59.55726 48.36828,18.98097 -1.61223,-15.21506 -19.26832,-19.44661 3.44543,-18.27598 12.96975,-11.27359 41.82831,-5.10581 25.33581,-24.71585 13.92299,-29.17117 57.05968,-5.15123 77.75924,0.85134 2.08574,40.60541 32.472201,6.68175 38.669799,4.40316 7.649399,36.07126 38.780054,2.03769 24.175662,-19.59234 -6.035277,-39.43787 -13.47704,-91.61415 -57.441531,-105.92776 -34.68698,-10.49443 -66.53144,-31.21718 -104.05197,-20.17969 -29.32684,-5.31676 -58.78919,-15.22067 -56.27276,-52.90918 1.22128,-28.17672 -14.37661,-42.30873 -28.14479,-11.90418 -17.58625,38.734 -66.95809,50.31301 -101.79392,25.67841 5.23019,15.81428 30.38165,65.90202 -2.94263,63.82272 -9.98422,-7.94873 -6.87375,-41.24708 -14.11856,-13.88974 -22.54191,32.83669 -70.51171,18.74687 -99.15227,44.28842 -36.22199,10.68527 -68.04561,39.4222 -70.956,78.85799 1.59174,15.59075 -16.39137,63.39811 6.76996,58.98728 19.07181,-11.99186 46.68374,-25.54792 71.19676,-33.30862 9.38557,15.55026 56.91788,-21.63931 36.70913,8.5597 -21.42947,19.01867 18.59712,28.87282 11.20632,34.46752 4.34701,26.72539 36.52022,2.39836 51.95389,-2.96823 11.46002,-13.24994 26.05608,-16.36114 25.16799,2.18787 19.69686,6.54138 -20.87366,28.29134 7.39181,17.66318 16.25177,-1.52249 30.22786,-32.06059 34.98062,0.0388 2.37327,7.48684 9.03253,15.22961 17.80297,12.23818 z m 259.84247,-84.69098 c 1.838036,-3.79303 2.979042,2.21847 0,0 z m -271.41667,-9.45478 c -15.54854,-26.64734 23.79852,-9.97934 0,0 z m -18.54698,-30.56044 c -4.75354,-31.70984 -39.82097,-68.61505 -13.03653,-98.09747 6.76385,-11.59147 27.2916,-44.59488 36.08814,-16.87648 23.89742,-36.57569 83.00051,-13.31231 76.54311,30.04556 -6.89082,22.20277 -9.83361,49.82662 -21.98353,67.04999 -21.43373,16.35854 -55.52306,2.69681 -76.1927,18.53666 l -1.41849,-0.65826 z m 47.60277,-35.11391 c 17.40008,-11.45083 49.66546,-51.1874 34.41704,-59.92788 -22.31487,14.43357 -53.06328,43.67077 -50.64714,64.58279 5.59756,0.33733 12.10389,-0.42178 16.2301,-4.65491 z m 9.8361,-27.5427 c -0.84068,-22.03929 34.46933,-14.12721 10.42995,-0.0585 -1.72942,1.08538 -9.82039,6.00393 -10.42995,0.0585 z m -34.67526,8.66722 c 21.01736,-17.4744 -13.21636,-66.38688 -21.65469,-31.86248 2.94504,11.34742 2.56679,40.90841 21.65469,31.86248 z m -92.73061,37.11494 c -11.02053,-31.01918 69.50999,-33.66508 26.71812,-9.86334 -8.59068,4.0146 -17.45916,7.71108 -26.71812,9.86334 z m -93.06935,135.41244 c -1.30559,-18.9871 -5.44896,9.1684 0,0 z m -50.75,-13.88888 c 3.97621,-25.43607 -21.3693,7.19495 0,0 z m 445.35417,-28.92208 c -2.02194,1.80484 1.60019,3.3027 0,0 z m 81,-36 c -2.021938,1.80485 1.600194,3.3027 0,0 z m -4,-27 c -2.021938,1.80485 1.600194,3.3027 0,0 z m -1,-7 c -2.021938,1.80485 1.600194,3.3027 0,0 z m -152.60417,-126.9849 c -8.5486,-6.04126 -1.0051,3.78049 0,0 z m -134.30169,-21.60173 c 6.77632,-18.66825 -3.79039,-50.1396 27.57687,-47.50972 17.74316,-16.59285 4.05688,-56.1665 -18.97444,-39.95934 -3.32457,-19.96677 -22.02504,-80.68306 -45.72196,-47.48486 -15.05083,10.81668 -6.70316,35.60425 -2.85482,7.02023 24.7087,-43.11184 50.33818,25.50512 40.79624,50.06349 -0.20148,21.90827 2.0774,41.7613 -7.01631,59.69704 20.63767,31.96451 -67.26126,22.00429 -32.01139,-6.18725 -22.31018,-10.67569 10.36671,-41.17682 -15.64586,-50.47983 25.38967,-36.68197 -32.21563,16.49891 7.15336,17.81371 -12.93062,20.1154 9.4818,31.54722 -3.52606,48.13672 1.28314,21.11788 36.82834,8.2787 50.22437,8.88981 z m 78.19544,0.94383 c -7.69227,-20.80151 -11.88921,3.45369 0,0 z m -135.31985,-28.00855 c -7.50866,-16.81964 -4.61254,12.40547 0,0 z m 74.4261,-0.72647 c -5.129,-6.60927 -2.81748,8.22522 0,0 z m -106.99244,-16.89301 c 2.55662,-16.33041 3.81803,-26.98031 20.90444,-31.05525 17.96987,-26.039 -24.64193,-29.72591 -22.35715,-2.41693 -1.48464,5.27418 -17.87396,51.08694 1.45271,33.47218 z m 149.4865,-32.33154 c 4.60335,-15.45477 -9.44586,-34.28334 10.22621,-40.46449 1.77179,-27.96608 0.19113,-57.72128 -8.45161,-83.99477 1.74332,-21.15938 -43.9348,-62.77257 -48.2824,-31.31747 -2.28372,19.7043 50.52248,28.90252 14.19082,25.09788 -28.37565,-0.43851 -11.90305,-57.29519 -44.39698,-33.79409 -9.84763,6.61198 -43.1694,39.03292 -44.08264,26.63929 16.94142,-2.42098 25.48191,-27.14135 1.918,-16.04101 -27.89804,7.50484 -62.89412,42.35297 -47.57836,70.27539 10.7155,-16.54923 52.95891,-27.92619 53.69779,-4.32255 -14.45037,6.53616 -23.76528,2.68084 -5.15847,12.06762 16.1137,18.51214 24.73727,-4.35344 32.31991,-5.22278 28.78375,13.12887 31.75585,61.13018 71.06088,52.21041 -2.9649,8.70726 0.24483,36.27005 14.53685,28.86657 z m -43.99406,-60.3877 c -19.32515,-28.41738 44.9251,-21.42419 13.05339,-1.05938 l -6.14739,1.79808 -6.906,-0.7387 z m 31.38486,-19.13212 c -13.5785,-4.41923 -65.55315,-8.47739 -25.8615,-19.67184 10.77863,-9.15552 57.29332,16.60156 25.8615,19.67184 z m 2.11514,-9.54165 c -8.74585,-9.78395 -12.83517,7.32684 0,0 z m -146.64436,62.88775 c 45.3218,-6.28402 -20.40714,-74.79195 -11.07227,-27.13842 5.54896,4.45656 4.47509,33.68812 11.07227,27.13842 z m 171.64436,-6.85254 c -3.26839,1.08626 -1.89416,7.36874 0,0 z m 1.60417,-8.37137 c -2.02194,1.80484 1.60019,3.3027 0,0 z m -193.51116,-19.27083 c 13.23727,-12.45067 -14.77472,4.83842 0,0 z m 198.21647,-6.75 c -10.6491,-5.12439 -12.98042,3.84958 0,0 z m -194.58101,-12 c -1.70834,4.93735 2.27875,15.64678 0,0 z m 21.56137,-4.38059 c 20.73472,-10.89259 0.736,-10.55078 -5.33645,0.33699 l 5.33645,-0.33699 z m -0.0448,-4.11941 c 6.11774,-10.01352 3.26622,6.05136 0,0 z m -23.58271,-10 c -2.06928,1.65398 2.48211,4.81595 0,0 z m 6.94189,-26.47917 c -2.02194,1.80484 1.60019,3.3027 0,0 z m 174,-6 c -2.02194,1.80484 1.60019,3.3027 0,0 z m -168.5485,-8.91725 c -1.52517,-5.78216 -7.40327,18.98167 0,0 z m 5.99017,5.56077 c 0.69885,-10.35216 -5.86332,7.86973 0,0 z m 11.95416,-10.36117 c -2.00982,-22.52188 -17.07898,16.7248 0,0 z m 6.99573,-9.85032 c 9.49778,-20.90793 -13.3259,10.9079 -0.78182,2.13178 l 0.6527,-1.7797 0.12912,-0.35208 z m 133.87671,-6.35776 c -9.58362,-2.82155 -6.14349,-5.82955 0.35624,-0.74899 l -0.35624,0.74899 z m -107.69873,-0.50772 c 24.77722,-17.12703 -33.26288,-0.007 0,0 z m -6.80028,-1.63258 c 4.31859,-5.71736 4.96456,3.10903 0,0 z m -10.77313,-1.97011 c 10.94226,-11.10328 -6.80987,2.14968 0,0 z m 36.42719,-0.97216 c 24.73378,-6.63444 -14.7899,-10.52987 -3.78796,1.41584 l 1.69102,0.36191 2.09694,-1.77775 z m 18.70348,-8.95552 c -5.9138,-2.36889 -1.88269,2.00935 0,0 z m 11.26903,-1.75529 c 10.99694,-5.83699 -21.7304,7.10251 0,0 z m -179.7101,635.76135 c -7.0523,-29.0223 17.94715,-49.903225 32.68542,-23.444586 23.36843,-8.05448 37.97834,37.805439 5.26149,25.0077842 -12.63898,-0.062471 -25.52183,1.5353002 -37.94691,-1.5631982 z m 47.09731,-7.55227 c -4.72184,-19.605165 -14.32457,9.1215865 0,0 z m 286.37923,4.25372 c -9.30268,-38.268873 50.4183,-46.181958 47.90095,-85.515264 24.41957,-8.825066 29.04976,84.69004 28.55698,30.020046 1.88045,-30.557489 -44.23707,-48.145402 -15.77034,-78.977432 5.42043,-16.31554 35.008058,-20.3578 22.49426,1.39438 16.840736,-1.95886 30.881439,-15.74127 33.125522,12.20646 9.831279,33.76662 -8.541763,75.518151 19.680519,103.047526 10.844594,11.09775 23.86441,29.4358928 -2.294972,22.6544545 C -85.2527,-14.16874 -144.07772,8.714944 -133.34784,-36.901815 c -1.44463,-17.434954 -14.56656,-34.393206 -13.19377,-7.297024 14.9745,30.626387 -4.20855,44.10990096 -33.32538,35.6852976 -3.94457,0.7204528 -9.67826,-0.8116969 -10.6532,-5.3656186 z m -55.45692,-7.7497 c -25.64245,-9.146629 8.42723,-12.852588 8.0254,-1.515335 l -2.97511,0.884068 -5.05029,0.631267 z M -536.2331,-37.05839 c -1.41488,-13.927024 14.32113,6.636485 0,0 z"
       id="path3546"
       inkscape:connector-curvature="0" />
    <path
       style="fill:#d12262"
       d="m -647.28668,-329.39368 c 0,-106.83333 0,-213.66667 0,-320.5 108.47884,0.48102 217.3961,-1.26778 325.58832,1.57311 74.23838,-3.0829 148.90658,-0.86618 223.313697,-1.57408 30.365992,0.0117 60.731993,0.0248 91.097983,9.7e-4 0,213.66667 0,427.33333 0,641 -12.602341,1.9925567 -6.816765,-24.634404 -18.27646,-4.37558 -30.653355,-21.105943 -44.376072,-56.664344 -34.125042,-94.96915 7.399488,-17.84912 38.486523,-10.52476 9.088792,-27.74745 -10.457632,-12.0046 10.794719,-45.8769 -6.959802,-16.62916 -17.904885,22.99737 -24.642757,-44.0678 -54.529918,-16.27161 -32.93264,11.2598 -31.34116,49.09696 -37.27977,77.4898 5.97769,39.681167 -60.53986,27.445606 -49.29194,63.288622 19.12919,28.2074541 -41.92433,27.88673176 -32.81093,0.04165 -13.11236,-22.377077 -55.46324,0.163737 -17.02914,9.070821 26.02625,15.1246868 -16.77751,9.2077795 -28.11182,10.102059 -61.89133,0 -123.78265,0 -185.67397,0 -1.40207,-32.038781 -56.64093,-28.151581 -51.71009,-62.480701 -0.48558,28.453701 -50.51804,11.148831 -30.70084,46.151909 23.55141,22.1383233 -4.44235,15.4690567 -19.77193,16.328792 -18.16155,-1.199115 8.66573,-39.772767 -3.94091,-56.160336 -11.02948,-22.214378 -1.44652,-51.339404 19.84693,-53.864714 -3.02455,-27.10867 34.43562,-88.31368 50.17335,-38.2122 -6.47143,45.31991 45.49153,30.77809 62.49018,56.27632 4.69778,41.217281 65.57162,-6.66479 50.63756,39.705394 -8.92498,30.300778 23.34121,29.148357 36.73618,10.283629 24.31099,-11.594977 88.9162,16.999179 62.20431,-31.478372 2.02323,-28.968291 44.69627,7.67564 44.54636,-30.161031 0.40853,-32.59499 52.77571,-13.58065 41.39663,-52.39449 17.57248,-14.6788 30.14885,-29.66782 33.99254,-51.31452 15.7552,-12.52125 49.73244,42.10695 27.21808,6.35195 -22.47283,-26.02724 -44.74554,8.6936 -48.35237,24.4105 -34.71536,7.20166 -5.13323,57.18357 -46.76689,46.06887 -16.95065,10.47913 -4.13127,53.383828 -38.34466,41.617186 -22.84279,-3.979136 -28.44837,33.934894 -16.0997,38.116192 -30.34744,-6.742339 -56.07232,-6.748792 -80.7495,14.984722 -45.43582,-2.480805 32.89526,-68.61358 -6.45907,-51.600359 -29.41559,20.449342 -55.33691,0.531585 -71.09447,-23.716651 -16.26986,-4.82543 -54.39357,-1.75056 -43.04905,-29.22529 1.04726,-29.6162 -39.08845,-49.88606 -48.16171,-12.75148 -17.81367,22.829 -24.14708,49.02744 -46.85425,65.371493 -11.85816,-4.063263 -16.36314,-68.658563 -12.56966,-28.079633 7.93916,15.54241 1.09732,55.311153 -5.19598,51.030837 15.93187,0.824991 3.97794,37.651276 25.44796,30.250062 10.67453,13.462212 -12.50902,52.2258968 -9.91248,17.432952 -6.81223,-13.228232 -26.28554,16.3751651 -17.41881,-11.822939 3.80765,-19.235637 -3.66888,-30.117816 -7.09114,-5.394513 2.92911,21.229466 6.36205,43.51538231 -22.63961,34.6151693 -28.30276,-5.5704923 -5.50567,-53.1716493 -12.80694,-76.0340363 0,-81.601572 2e-5,-163.203142 -2e-5,-244.804712 z m 624.69618,291.25 c -0.438317,-19.500296 4.834008,-83.51428 -28.10813,-62.90227 -12.339113,17.470158 1.084628,43.503396 18.475662,43.714025 0.836706,7.983171 4.6016,46.210413 9.632468,19.188245 z m -344.48735,-16.86307 c 28.1583,-22.200151 -34.41215,-12.169691 0,0 z m 54.33861,-17.36187 c 12.86555,-14.019455 30.48515,-50.43206 52.39274,-28.83714 5.69821,-25.56212 15.53762,-45.55903 36.79547,-58.77015 14.88498,-25.45895 35.07243,-40.39398 50.66739,-61.98221 35.31154,-11.51858 50.50417,27.75847 50.59616,52.16124 15.17495,-20.47229 37.215541,-22.04583 54.885764,-2.26609 34.362165,0.32879 7.21464,-56.69589 8.477664,-79.83023 -5.92482,-37.78749 -27.063812,-83.29428 -69.281988,-89.91166 -33.43633,-15.37911 -69.88951,-21.79498 -103.10978,-34.50138 -22.88051,-9.60064 -40.83177,8.43907 -42.22923,-24.86348 -10.57078,-40.26603 -5.84116,-83.13179 8.3119,-121.72589 -8.39408,-31.9531 -3.62632,-68.94918 -22.33014,-100.07034 -8.11895,-5.42832 -43.61214,-30.75893 -44.08314,-5.03534 -1.87404,-40.63963 -56.49661,12.56176 -48.63348,4.93875 -22.89778,-18.36969 -54.31406,16.47336 -68.76126,35.87224 -7.5283,34.33432 -8.74845,73.47437 3.34448,107.17309 6.4115,19.54073 11.9247,-23.77715 32.3072,-20.40408 26.53772,-6.48451 16.63475,-30.20479 0.73739,-34.07559 15.90119,-2.57838 34.04927,9.78761 46.63947,-10.44508 23.78517,6.04258 27.52407,44.894 51.65805,55.27762 41.74313,12.53057 13.77824,70.40869 -18.25271,67.45492 23.38516,39.60193 -40.20909,44.60261 -62.67901,27.79439 -5.39898,-11.66829 12.80847,-41.40548 -14.23288,-35.9009 -43.31948,8.07917 21.52219,51.00736 -10.09318,69.00107 -30.95035,26.16063 -70.79331,37.90991 -105.16249,58.54141 -29.86343,9.88661 -57.35222,29.73342 -66.16721,61.25089 -17.09222,40.75331 -12.46994,87.07157 4.78975,126.81457 17.73878,-7.09298 22.43893,-48.69244 42.04571,-53.35117 8.20659,-33.65179 61.50277,-29.91863 56.83034,8.38521 5.67738,18.30004 -1.8355,32.81463 22.25094,27.50736 15.42665,9.4057 34.90251,-2.15766 34.00111,20.58613 19.30563,35.119285 74.63113,7.0746 68.93641,-19.69931 9.00756,0.67169 10.48339,24.48535 10.3138,3.74283 10.71119,13.13541 13.64169,47.690009 19.61026,24.89628 2.54908,11.325065 -0.37083,38.155662 19.4245,30.27204 z m -10.42374,-36.60007 c -5.74928,-14.27025 15.14727,-25.03372 6.69234,-2.81176 0.50403,4.21463 -4.11042,8.80923 -6.69234,2.81176 z m -110.08852,-23.85925 c -3.89707,-28.18233 39.04773,-0.53863 0,0 z m 110.96482,-7.06574 c 1.66677,-5.88773 1.76517,5.57552 0,0 z m -20.31393,-128.97517 c -22.9198,0.37976 -23.071,-34.03557 1.77867,-23.84142 24.54397,-14.94871 12.29661,-63.32378 51.16502,-60.70052 45.50416,-25.58787 11.53256,53.97491 -5.8982,68.33477 -11.12414,16.59971 -28.75397,17.53028 -47.04549,16.20717 z m 28.95305,-16.59494 c 17.40008,-11.45083 49.66546,-51.1874 34.41704,-59.92788 -22.31487,14.43357 -53.06328,43.67077 -50.64714,64.58279 5.59756,0.33733 12.10389,-0.42178 16.2301,-4.65491 z m 9.8361,-27.5427 c -0.84068,-22.03929 34.46933,-14.12721 10.42995,-0.0585 -1.72942,1.08538 -9.82039,6.00393 -10.42995,0.0585 z m -119.80855,-224.55386 c 2.1368,-21.77141 36.65616,-5.066 0,0 z m -16.99889,-8.14793 c -15.91181,-34.75132 72.52749,-17.12246 23.2743,-12.21876 -8.39858,2.54525 -13.31385,15.47429 -23.2743,12.21876 z m 7.62206,-8.31599 c 20.73472,-10.89259 0.736,-10.55078 -5.33645,0.33699 l 5.33645,-0.33699 z m -0.0448,-4.11941 c 6.11774,-10.01352 3.26622,6.05136 0,0 z m 133.25501,3.14512 c -18.97625,2.29194 -44.17004,-10.36169 -11.63685,-12.36441 11.25513,-2.77493 44.77863,14.85552 11.63685,12.36441 z m 8.5,-4.28813 c -8.74585,-9.78395 -12.83517,7.32684 0,0 z m -34.5,-52.60699 c 1.31648,-3.7917 2.24454,3.87252 0,0 z m -198.5,480.08179 c -1.30559,-18.9871 -5.44896,9.1684 0,0 z m 394.60417,-42.81096 c -2.02194,1.80484 1.60019,3.3027 0,0 z m 81,-36 c -2.021938,1.80485 1.600194,3.3027 0,0 z m -4,-27 c -2.021938,1.80485 1.600194,3.3027 0,0 z m -1,-7 c -2.021938,1.80485 1.600194,3.3027 0,0 z m -152.60417,-126.9849 c -8.5486,-6.04126 -1.0051,3.78049 0,0 z m -134.30169,-21.60173 c 6.77632,-18.66825 -3.79039,-50.1396 27.57687,-47.50972 17.74316,-16.59285 4.05688,-56.1665 -18.97444,-39.95934 -3.32457,-19.96677 -22.02504,-80.68306 -45.72196,-47.48486 -15.05083,10.81668 -6.70316,35.60425 -2.85482,7.02023 24.7087,-43.11184 50.33818,25.50512 40.79624,50.06349 -0.20148,21.90827 2.0774,41.7613 -7.01631,59.69704 20.63767,31.96451 -67.26126,22.00429 -32.01139,-6.18725 -22.31018,-10.67569 10.36671,-41.17682 -15.64586,-50.47983 25.38967,-36.68197 -32.21563,16.49891 7.15336,17.81371 -12.93062,20.1154 9.4818,31.54722 -3.52606,48.13672 1.28314,21.11788 36.82834,8.2787 50.22437,8.88981 z m 78.19544,0.94383 c -7.69227,-20.80151 -11.88921,3.45369 0,0 z m -167.88619,-45.62803 c 2.55662,-16.33041 3.81803,-26.98031 20.90444,-31.05525 17.96987,-26.039 -24.64193,-29.72591 -22.35715,-2.41693 -1.48464,5.27418 -17.87396,51.08694 1.45271,33.47218 z m 39.44973,-51.0691 c -3.29845,-3.43237 -0.095,5.09464 0,0 z m 124.54271,-14.2887 c -3.26839,1.08626 -1.89416,7.36874 0,0 z m 1.60417,-8.37137 c -2.02194,1.80484 1.60019,3.3027 0,0 z m -193.51116,-19.27083 c 13.23727,-12.45067 -14.77472,4.83842 0,0 z m 198.21647,-6.75 c -10.6491,-5.12439 -12.98042,3.84958 0,0 z m -194.58101,-12 c -1.70834,4.93735 2.27875,15.64678 0,0 z m -2.06619,-18.5 c -2.06928,1.65398 2.48211,4.81595 0,0 z m 6.94189,-26.47917 c -2.02194,1.80484 1.60019,3.3027 0,0 z m 174,-6 c -2.02194,1.80484 1.60019,3.3027 0,0 z m -168.5485,-8.91725 c -1.52517,-5.78216 -7.40327,18.98167 0,0 z m 5.99017,5.56077 c 0.69885,-10.35216 -5.86332,7.86973 0,0 z m 11.95416,-10.36117 c -2.00982,-22.52188 -17.07898,16.7248 0,0 z m 6.99573,-9.85032 c 9.49778,-20.90793 -13.3259,10.9079 -0.78182,2.13178 l 0.6527,-1.7797 0.12912,-0.35208 z m 133.87671,-6.35776 c -9.58362,-2.82155 -6.14349,-5.82955 0.35624,-0.74899 l -0.35624,0.74899 z m -107.69873,-0.50772 c 24.77722,-17.12703 -33.26288,-0.007 0,0 z m -6.80028,-1.63258 c 4.31859,-5.71736 4.96456,3.10903 0,0 z m -10.77313,-1.97011 c 10.94226,-11.10328 -6.80987,2.14968 0,0 z m 36.42719,-0.97216 c 24.73378,-6.63444 -14.7899,-10.52987 -3.78796,1.41584 l 1.69102,0.36191 2.09694,-1.77775 z m 18.70348,-8.95552 c -5.9138,-2.36889 -1.88269,2.00935 0,0 z m 11.26903,-1.75529 c 10.99694,-5.83699 -21.7304,7.10251 0,0 z m -179.7101,635.76135 c -7.3461,-21.393554 16.42409,-57.433664 28.57242,-21.564852 20.63235,-20.468741 33.60204,34.9935544 23.56139,16.111507 -1.88814,-26.815372 -26.91446,9.4973933 -24.23063,3.233177 -7.11562,-16.996116 -24.43598,-34.421623 -21.00392,-2.91632 0.6824,3.765747 -3.30215,10.1490408 -6.89926,5.136488 z m 333.47654,-3.29855 c -9.30268,-38.268873 50.4183,-46.181958 47.90095,-85.515264 24.41957,-8.825066 29.04976,84.69004 28.55698,30.020046 1.88045,-30.557489 -44.23707,-48.145402 -15.77034,-78.977432 5.42043,-16.31554 35.008058,-20.3578 22.49426,1.39438 16.840736,-1.95886 30.881439,-15.74127 33.125522,12.20646 9.831279,33.76662 -8.541763,75.518151 19.680519,103.047526 17.908242,15.806705 16.934692,27.7372404 -7.241598,22.809764 -23.248628,0 -46.497253,0 -69.745883,0 7.69969,-20.999823 13.45548,-73.00559 -6.7992,-73.527454 -11.2033,22.119613 -53.81085,47.095118 -25.38782,72.8158146 -8.14268,-0.8105386 -22.228,5.689252 -26.81339,-4.2738406 z m -55.45692,-7.7497 c -25.64245,-9.146629 8.42723,-12.852588 8.0254,-1.515335 l -2.97511,0.884068 -5.05029,0.631267 z M -536.2331,-37.05839 c -1.41488,-13.927024 14.32113,6.636485 0,0 z"
       id="path3544"
       inkscape:connector-curvature="0" />
    <path
       style="fill:#de392f"
       d="m -647.28668,-329.39368 c 0,-106.83333 0,-213.66667 0,-320.5 103.52153,0.24999 207.05034,-0.67627 310.56528,0.89437 -27.7021,15.61151 -67.59824,-4.50382 -84.85127,24.43956 -9.6674,18.12959 -8.79795,-11.84675 -21.524,12.2582 -13.60817,29.82021 -15.41621,66.4447 -15.54731,99.69777 2.65646,13.36388 20.70395,65.83676 9.38358,27.35078 -14.63646,-28.98964 -3.3683,-61.05069 -4.86624,-91.1822 10.818,-30.75491 38.62102,-55.27087 71.81963,-56.48465 25.85958,-7.98175 52.98527,-18.91433 78.21481,-1.91775 36.61263,11.25194 30.8487,62.78483 35.3389,94.7175 18.54726,23.14218 -16.68691,52.94067 -8.45748,81.53921 -2.39988,14.84815 6.63253,70.74187 2.48145,29.27587 -12.4871,-38.50505 20.37899,-77.70285 9.21803,-111.83788 -6.40189,-27.99942 -1.29488,-79.81581 -33.1612,-93.57567 -15.76328,-1.91609 -37.26058,-20.25484 -7.6022,-14.74064 99.66109,-0.73611 199.32539,-0.32727 298.98802,-0.43446 0,213.66667 0,427.33333 0,641 -18.35418,2.5513653 -7.025049,-61.156695 -10.351089,-26.486724 -12.857119,33.1700433 -23.160228,-21.570081 -38.634744,-27.748992 -13.030811,-19.2072 5.080794,-74.150774 29.326373,-42.605614 6.623919,33.874388 -1.302111,-33.78834 -21.774962,-25.76855 -9.006214,-12.08811 7.353895,-59.97048 -11.702297,-26.87178 -16.489864,7.44887 -37.693629,-48.35759 -55.855431,-9.84373 -28.45712,14.3609 3.16328,-39.98837 -25.02708,-45.59992 -35.9876,-26.09994 -45.86233,25.54419 -69.01102,43.02973 -6.48198,16.91129 4.68707,26.471 -18.23916,22.07138 -29.67887,6.78657 -12.00652,67.969397 -48.79016,43.65434 -17.80359,16.685926 -41.97615,59.322935 -71.80695,27.963837 -6.18694,7.615263 -7.96412,41.732594 -30.22468,22.260975 -9.53677,-23.704322 52.1808,-43.265295 18.65469,-52.427902 -26.35197,15.25649 -65.50065,27.695767 -78.16891,-12.30479 -11.75098,-12.75755 -40.81762,-1.36515 -50.43226,-17.67491 17.65779,-35.05974 -40.5381,-74.41345 -51.98651,-25.62796 -23.82918,12.10801 -23.88116,56.46285 -46.82525,57.5823 -10.48089,-25.91824 -13.46161,-56.01434 -16.2711,-84.10171 -7.46079,36.90988 22.02895,78.10107 4.58879,110.509481 -8.30565,7.97944 -18.14071,24.21 -2.55119,13.059368 0.70728,18.038015 13.33169,34.022499 21.11423,40.90983 -6.40136,37.186235 -4.58149,-27.207565 -21.98336,1.82068 -5.76333,-2.255729 2.73823,-58.433412 -7.12951,-23.644499 -2.74924,9.108559 1.39883,52.6841302 -4.43346,25.178722 3.85356,25.7688813 -48.15969,15.3495053 -32.48494,-10.22785 -10e-6,-99.201912 3e-5,-198.403812 -2e-5,-297.605722 z m 624.69618,291.25 c -0.438317,-19.500296 4.834008,-83.51428 -28.10813,-62.90227 -12.339113,17.470158 1.084628,43.503396 18.475662,43.714025 0.836706,7.983171 4.6016,46.210413 9.632468,19.188245 z m -590.22186,-7.70034 c 5.96683,-19.170956 -7.0443,8.575951 0,0 z m 245.73451,-9.16273 c 28.1583,-22.200151 -34.41215,-12.169691 0,0 z M -20.754,-74.91944 c -4.470107,-23.182515 2.448254,24.840842 0,0 z m -291.98524,2.55082 c 12.86555,-14.019455 30.48515,-50.43206 52.39274,-28.83714 5.69821,-25.56212 15.53762,-45.55903 36.79547,-58.77015 14.88498,-25.45895 35.07243,-40.39398 50.66739,-61.98221 35.31154,-11.51858 50.50417,27.75847 50.59616,52.16124 15.17495,-20.47229 37.215541,-22.04583 54.885764,-2.26609 34.362165,0.32879 7.21464,-56.69589 8.477664,-79.83023 -5.92482,-37.78749 -27.063812,-83.29428 -69.281988,-89.91166 -33.43633,-15.37911 -69.88951,-21.79498 -103.10978,-34.50138 -22.88051,-9.60064 -40.83177,8.43907 -42.22923,-24.86348 -10.57078,-40.26603 -5.84116,-83.13179 8.3119,-121.72589 -8.39408,-31.9531 -3.62632,-68.94918 -22.33014,-100.07034 -8.11895,-5.42832 -43.61214,-30.75893 -44.08314,-5.03534 -1.87404,-40.63963 -56.49661,12.56176 -48.63348,4.93875 -22.89778,-18.36969 -54.31406,16.47336 -68.76126,35.87224 -7.5283,34.33432 -8.74845,73.47437 3.34448,107.17309 6.4115,19.54073 11.9247,-23.77715 32.3072,-20.40408 26.53772,-6.48451 16.63475,-30.20479 0.73739,-34.07559 15.90119,-2.57838 34.04927,9.78761 46.63947,-10.44508 23.78517,6.04258 27.52407,44.894 51.65805,55.27762 41.74313,12.53057 13.77824,70.40869 -18.25271,67.45492 23.38516,39.60193 -40.20909,44.60261 -62.67901,27.79439 -5.39898,-11.66829 12.80847,-41.40548 -14.23288,-35.9009 -43.31948,8.07917 21.52219,51.00736 -10.09318,69.00107 -30.95035,26.16063 -70.79331,37.90991 -105.16249,58.54141 -29.86343,9.88661 -57.35222,29.73342 -66.16721,61.25089 -17.09222,40.75331 -12.46994,87.07157 4.78975,126.81457 17.73878,-7.09298 22.43893,-48.69244 42.04571,-53.35117 8.20659,-33.65179 61.50277,-29.91863 56.83034,8.38521 5.67738,18.30004 -1.8355,32.81463 22.25094,27.50736 15.42665,9.4057 34.90251,-2.15766 34.00111,20.58613 19.30563,35.119285 74.63113,7.0746 68.93641,-19.69931 9.00756,0.67169 10.48339,24.48535 10.3138,3.74283 10.71119,13.13541 13.64169,47.690009 19.61026,24.89628 2.54908,11.325065 -0.37083,38.155662 19.4245,30.27204 z m -10.42374,-36.60007 c -5.74928,-14.27025 15.14727,-25.03372 6.69234,-2.81176 0.50403,4.21463 -4.11042,8.80923 -6.69234,2.81176 z m -110.08852,-23.85925 c -3.89707,-28.18233 39.04773,-0.53863 0,0 z m 110.96482,-7.06574 c 1.66677,-5.88773 1.76517,5.57552 0,0 z m -20.31393,-128.97517 c -22.9198,0.37976 -23.071,-34.03557 1.77867,-23.84142 24.54397,-14.94871 12.29661,-63.32378 51.16502,-60.70052 45.50416,-25.58787 11.53256,53.97491 -5.8982,68.33477 -11.12414,16.59971 -28.75397,17.53028 -47.04549,16.20717 z m 26.81393,-7.21054 c 21.67894,-17.10402 55.5498,-53.7263 41.33377,-79.39728 -23.31356,20.61329 -47.24204,27.68129 -56.08888,59.88876 -26.70862,22.18423 -10.61437,24.29641 14.75511,19.50852 z m 11.97522,-36.9271 c -0.84068,-22.03929 34.46933,-14.12721 10.42995,-0.0585 -1.72942,1.08538 -9.82039,6.00393 -10.42995,0.0585 z m -119.80855,-224.55386 c 2.1368,-21.77141 36.65616,-5.066 0,0 z m 7.25944,-5.7443 c 1.3767,-7.26201 -6.71267,4.9162 0,0 z m -24.25833,-2.40363 c -15.91181,-34.75132 72.52749,-17.12246 23.2743,-12.21876 -8.39858,2.54525 -13.31385,15.47429 -23.2743,12.21876 z m 10.70613,-7.10727 c 38.98579,-31.7406 -39.51043,8.66377 0,0 z m -3.12892,-5.32813 c 6.11774,-10.01352 3.26622,6.05136 0,0 z m 28.22786,-3.70607 c -6.75309,-11.26692 -13.91881,4.96671 0,0 z m 105.02715,6.85119 c -18.97625,2.29194 -44.17004,-10.36169 -11.63685,-12.36441 11.25513,-2.77493 44.77863,14.85552 11.63685,12.36441 z m 10.54525,-2.44965 c -11.42402,-15.22748 -53.9136,1.18337 -14.67177,-0.39672 4.7111,0.97484 10.07452,3.42291 14.67177,0.39672 z m -36.54525,-54.44547 c 1.31648,-3.7917 2.24454,3.87252 0,0 z m 277.03903,400.5 c 0.0041,-13.28924 -11.904949,-70.02042 -5.569853,-26.67023 2.533097,16.44536 7.982925,81.92334 6.085757,32.65801 l -0.515904,-5.98778 z m -551.65054,0 c -4.17793,2.0864 -0.99321,10.88888 0,0 z m 2.16424,-10.13869 c 2.83635,-10.64255 -4.63435,9.35183 0,0 z m 2.75414,-11.88777 c -2.81748,1.54601 -0.92862,4.27992 0,0 z m 3.1625,-8.97354 c -3.85007,1.12806 0.0345,5.38194 0,0 z m 531.57197,-30.08241 c -8.920889,-15.20451 9.285442,22.07418 0,0 z m -7.99511,-19.99449 c -8.754517,-13.94347 8.444851,18.67941 0,0 z m -460.05331,-10.41165 c -1.82154,-2.32568 -3.22789,4.47742 0,0 z m 17,-7 c -1.70703,-2.47869 -3.3472,4.68457 0,0 z m 40.06595,-22.56662 c 4.66371,-4.5381 -11.40955,6.59626 0,0 z m 14.44518,-7.33281 c 21.35613,-1.86772 47.93823,-40.87045 38.27273,-41.42292 12.95267,17.7512 -61.37627,51.30643 -38.27273,41.42292 z m 306.99595,-9.58634 c -6.28725,-6.25144 -7.50136,-0.82796 0,0 z m -35.5,-17.64525 c -11.47962,-0.71345 -59.17634,-20.44466 -27.53012,-3.53083 6.91796,0.83667 25.60787,5.64106 27.53012,3.53083 z m -46.5,-14.78988 c -11.04186,-6.08559 0.57629,4.74237 0,0 z m -29.98659,-3.16469 c 18.86027,-2.23707 24.95259,1.30083 3.28933,-7.28221 -24.33985,-26.81816 -9.43557,14.55841 -3.28933,7.28221 z m -87.22964,-4.94344 c 37.19812,1.59978 -6.6697,-48.36926 34.74389,-45.51704 24.23375,-13.81139 13.20466,-55.55325 -16.43463,-60.17846 -8.97752,-15.70042 -21.96725,-63.70984 -48.45488,-36.98118 -22.5482,20.03461 1.96464,59.31728 -30.74204,74.97275 -4.68718,21.77547 40.27206,38.05714 13.63026,57.90478 9.21618,17.90438 31.64797,9.59855 47.2574,9.79915 z m -20.78377,-2.56535 c -31.42419,5.47452 3.66372,-32.84087 -20.33218,-38.25938 26.65209,-18.56528 -19.14655,-35.6749 4.0697,-54.70755 -1.98016,-21.47183 14.61547,-74.2685 38.21878,-38.92251 14.98495,31.17467 9.0398,69.75518 5.27485,100.28411 -3.59625,12.07053 7.69586,36.90949 -20.42364,32.43922 l -6.80751,-0.83389 z m -51,-5.72594 c -1.36714,-11.01591 -3.82523,1.72436 0,0 z m -3.81667,-17.9078 c -4.58896,-0.57805 3.62842,4.35335 0,0 z m -6.0384,-12.87508 c 24.44684,-0.15307 0.17307,-27.672 22.07008,-34.30009 25.98584,-25.83049 -12.95162,-50.25431 -24.034,-16.43256 -7.19721,15.76352 -15.74676,38.29409 1.96392,50.73265 z m 40.31236,-59.97735 c -3.29845,-3.43237 -0.095,5.09464 0,0 z m -181.26859,476.3191 c 20.7633,-30.712694 -17.20025,-75.314327 10.76759,-99.82589 31.35991,-5.49585 8.81744,-66.49041 51.14753,-65.64906 19.31193,21.06509 9.76771,65.70793 50.43114,62.01066 28.77032,1.79781 34.14779,56.695623 69.78078,29.38794 12.26626,12.616743 -7.11844,67.776553 27.67426,45.44238 18.95611,-29.536002 70.28943,4.251881 82.48483,-20.339483 -16.45915,-25.792297 2.16913,-41.399377 26.50847,-30.967185 14.588,-18.125362 14.70419,-48.548882 44.79035,-44.917082 12.32336,-17.24877 7.29708,-40.47338 32.1772,-49.32103 -0.66998,-23.66877 27.06753,-42.65665 40.72701,-13.89885 20.25236,36.40248 -15.36535,70.58149 -13.59008,108.768335 -0.20231,32.279101 -33.93194,34.524838 -50.6756,48.002514 15.67369,25.26334 -12.2562,52.0842933 -30.45646,27.662523 8.54143,-31.725243 -62.49379,-23.577951 -20.68852,-3.942349 26.99108,14.050051 -1.33688,11.5395274 -14.18769,11.336577 -65.69317,0 -131.38634,0 -197.07951,0 -1.40207,-32.038781 -56.64093,-28.151581 -51.71009,-62.480701 -0.48558,28.453701 -50.51804,11.148831 -30.70084,46.151909 23.55141,22.1383233 -4.44235,15.4690567 -19.77193,16.328792 -3.29907,-1.122981 -11.56591,3.0016046 -7.62844,-3.75 z m 47.8113,-119.16821 c -1.30559,-18.9871 -5.44896,9.1684 0,0 z m 3.42516,117.16821 c -5.80854,-15.907644 14.13732,-41.623944 19.75071,-14.788505 18.93871,-14.438059 41.61278,19.419539 30.15428,17.660677 0.6413,-22.149917 -28.63095,-17.687128 -21.79377,3.1828898 -7.86907,-15.3627768 -27.07794,-43.4743928 -24.48481,-7.4247898 -0.22679,3.285185 -5.30205,16.59380109 -3.62641,1.369728 z m 334.61408,1.15511 c -2.61525,-33.796032 45.3496,-57.077858 49.77078,-81.445345 22.22961,8.09919 6.4268,78.769695 22.19497,40.169003 10.4109,-35.768096 -33.59355,-51.555748 -20.33087,-85.744538 1.53669,-21.49808 44.362938,-34.48358 28.86393,-4.16824 33.764053,-27.71855 37.803118,30.74779 34.199284,53.674315 -7.996743,31.380062 22.959061,62.226429 28.404256,82.155369 -29.293423,-0.1791749 -58.89722,0.011188 -88.37474,-0.045674 7.69916,-20.975414 13.4745,-73.13104 -6.84733,-73.491948 -11.35578,22.181495 -53.40415,46.959178 -25.59101,73.0357525 -6.48365,-6.8648535 -16.99615,4.2603175 -22.28927,-4.1386945 z m 60.52092,-8.40511 c -0.0745,-9.761021 -4.65211,20.4576411 0,0 z M -439.54197,-611.4823 c -0.26748,-10.37302 11.90632,-5.91901 0,0 z m 39.62872,-21.20658 c 4.31859,-5.71736 4.96456,3.10903 0,0 z m -5.69809,-3.86279 c 3.45451,-10.17907 11.67762,3.9382 0,0 z"
       id="path3542"
       inkscape:connector-curvature="0" />
    <path
       style="fill:#a40195"
       d="m -647.28668,-329.39368 c 0,-106.83333 0,-213.66667 0,-320.5 103.52153,0.24999 207.05034,-0.67627 310.56528,0.89437 -27.7021,15.61151 -67.59824,-4.50382 -84.85127,24.43956 -9.6674,18.12959 -8.79795,-11.84675 -21.524,12.2582 -13.60988,29.77854 -15.37838,66.3546 -15.5633,99.56577 11.41573,33.95441 14.68172,71.65671 34.50969,102.33335 18.32796,39.23224 -17.62092,67.71286 -50.82391,78.71811 -30.68803,22.10809 -70.53799,28.80865 -97.78724,55.52555 -31.75861,36.44043 -36.57319,89.04296 -27.98736,135.03525 2.583,25.46404 16.63936,54.988391 -7.62164,74.380303 -15.83313,22.26169 7.74448,74.5876623 -37.78235,56.133735 -3.10105,-12.818064 -0.0892,-27.98927 -1.1339,-41.908105 0,-92.292033 0,-184.584063 0,-276.876093 z m 75.1887,316.75 c 20.7633,-30.712694 -17.20025,-75.314327 10.76759,-99.82589 31.35991,-5.49585 8.81744,-66.49041 51.14753,-65.64906 19.31193,21.06509 9.76771,65.70793 50.43114,62.01066 28.77032,1.79781 34.14779,56.695623 69.78078,29.38794 12.26626,12.616743 -7.11844,67.776553 27.67426,45.44238 18.95611,-29.536002 70.28943,4.251881 82.48483,-20.339483 -16.45915,-25.792297 2.16913,-41.399377 26.50847,-30.967185 14.588,-18.125362 14.70419,-48.548882 44.79035,-44.917082 12.32336,-17.24877 7.29708,-40.47338 32.1772,-49.32103 -0.66998,-23.66877 27.06753,-42.65665 40.72701,-13.89885 20.25236,36.40248 -15.36535,70.58149 -13.59008,108.768335 -0.20231,32.279101 -33.93194,34.524838 -50.6756,48.002514 15.67369,25.26334 -12.2562,52.0842933 -30.45646,27.662523 8.54143,-31.725243 -62.49379,-23.577951 -20.68852,-3.942349 26.99108,14.050051 -1.33688,11.5395274 -14.18769,11.336577 -65.69317,0 -131.38634,0 -197.07951,0 -1.40207,-32.038781 -56.64093,-28.151581 -51.71009,-62.480701 -0.48558,28.453701 -50.51804,11.148831 -30.70084,46.151909 23.55141,22.1383233 -4.44235,15.4690567 -19.77193,16.328792 -3.29907,-1.122981 -11.56591,3.0016046 -7.62844,-3.75 z m 47.8113,-119.16821 c -1.30559,-18.9871 -5.44896,9.1684 0,0 z m 396.49248,118.66821 c 3.71128,-27.325381 28.063862,-59.116401 3.61735,-83.722451 -24.50487,-19.222659 -9.89789,-78.070219 22.73219,-62.105969 -18.04033,31.49684 27.688897,-13.47787 24.566525,17.57522 12.526912,32.97736 -1.341259,70.881408 14.916593,102.768289 15.523193,13.491227 32.226227,35.302129 0.166349,29.734911 -22.222429,0 -44.444857,0 -66.667287,0 0.22276,-1.416667 0.44552,-2.833333 0.66828,-4.25 z m 111.71003,-8.00002 c -7.025296,-36.964454 4.233197,-89.7105 -32.025108,-111.78776 -8.925418,-28.95097 7.109835,-60.52447 -2.150234,-90.76466 -5.063664,-40.83564 -17.303531,-88.31554 -54.925818,-110.60595 -45.57712,-17.19956 -89.85764,-38.31877 -137.41084,-49.50979 -44.96077,-12.14481 -33.44217,-69.20066 -29.27294,-104.04075 6.82103,-24.37027 16.60955,-45.48845 1.93195,-67.91268 -0.74026,-27.03948 0.004,-73.78708 -34.81673,-81.14744 -18.69401,-4.57638 -25.12545,-17.4177 -1.52081,-12.54649 99.66109,-0.73611 199.32539,-0.32727 298.98802,-0.43446 0,213.66667 0,427.33333 0,641 -10.709669,4.1889935 -8.795909,-6.019424 -8.79749,-12.25002 z m -287.72729,-291.86279 c -0.84068,-22.03929 34.46933,-14.12721 10.42995,-0.0585 -1.72942,1.08538 -9.82039,6.00393 -10.42995,0.0585 z m -66.47522,-79.47012 c -31.42419,5.47452 3.66372,-32.84087 -20.33218,-38.25938 26.65209,-18.56528 -19.14655,-35.6749 4.0697,-54.70755 -1.98016,-21.47183 14.61547,-74.2685 38.21878,-38.92251 14.98495,31.17467 9.0398,69.75518 5.27485,100.28411 -3.59625,12.07053 7.69586,36.90949 -20.42364,32.43922 l -6.80751,-0.83389 0,0 z m -62.75501,-165.66707 c 6.11774,-10.01352 3.26622,6.05136 0,0 z m 33.12844,-74.5452 c 4.31859,-5.71736 4.96456,3.10903 0,0 z"
       id="path3540"
       inkscape:connector-curvature="0" />
    <path
       style="fill:#550093"
       d="m -647.28668,-329.39368 c 0,-106.83333 0,-213.66667 0,-320.5 99.66659,0.14428 199.33596,-0.40123 299,0.55103 -29.06593,12.12626 -65.14527,1.35525 -88.84215,27.53288 -24.69584,27.45413 -19.76898,68.10892 -23.31009,102.01037 9.9464,33.0365 13.31587,68.20721 30.20989,98.6919 22.23496,32.28183 5.83802,73.74419 -32.41541,82.48396 -34.29515,21.18255 -71.8241,36.46725 -106.30927,57.30131 -38.34092,41.72604 -40.41543,103.25599 -30.61604,156.14544 7.863,32.122484 -15.76767,58.864701 -15.40246,90.505525 6.98377,25.7738961 -10.38789,31.2313906 -32.31448,23.87847 10e-6,-106.200295 -10e-6,-212.400595 10e-6,-318.600885 z m 188.64059,315.89445 c 0.60463,-25.297633 -17.06699,-29.627732 -35.07783,-30.3535 -17.32216,-10.508451 -12.94333,-70.24461 -30.42267,-35.099228 -40.10589,20.182246 -19.90813,-63.739852 4.61004,-35.358702 2.11051,-13.182 -15.28768,-67.51325 10.36648,-44.04665 4.23683,22.44257 9.66022,48.70378 36.4751,46.45907 30.36248,2.53269 43.08613,31.559667 63.68518,49.720184 -3.17203,20.125318 -50.07329,3.650599 -28.34718,35.379585 26.07684,-14.455026 58.42346,8.097154 79.4315,-9.515028 26.73614,-16.894642 55.11775,23.138952 70.11664,-7.439949 19.43079,1.967936 20.52726,26.179649 35.45985,32.684948 -32.13126,5.2888936 -65.72155,0.385741 -98.45637,2.173048 -35.73649,0.00831 -71.47299,-0.0031 -107.20948,0.00177 -0.21042,-1.535183 -0.42084,-3.070367 -0.63126,-4.60555 z m 240.9664,3.02376 c 4.14818,-30.586634 -42.94192,-30.160653 -49.51993,-53.028727 -19.76846,-12.679749 -4.70387,-32.622251 13.25682,-25.326649 21.76987,-18.955424 35.07099,-45.682844 64.18582,-54.952974 10.5668,-23.38743 21.20154,-49.27218 38.30202,-63.64633 40.88062,17.54958 5.32757,56.61405 0.52022,85.90224 -7.7117,27.347667 -4.27555,60.703043 -41.81651,64.263324 -38.1473,1.576357 3.81571,56.66402674 -24.92844,46.789116 z m 89.39301,0.47487 c -0.0944,-11.015558 9.62491,-48.218576 11.8481,-17.39308 7.43061,12.323642 5.10602,24.2992045 -11.8481,17.39308 z m 21.44319,-1.14308 c -4.7867,-42.413958 43.397903,-48.080771 47.068874,-4.873215 -3.626232,14.9898086 -35.71523,6.5916961 -47.068874,4.873215 z m 92.27192,-2 c -5.71135,-44.228978 -3.784494,-91.93615 -27.998088,-131.29363 -10.425826,-39.13018 0.597281,-81.20698 -15.233869,-119.4278 -9.911569,-37.82386 -35.624662,-77.06818 -77.583813,-82.09848 -35.51348,-15.17882 -71.40525,-29.09335 -108.65912,-38.88091 -41.00618,-17.77757 -35.44915,-68.98743 -26.74576,-104.49021 18.54043,-33.52584 5.26418,-62.93867 1.40401,-97.35858 -2.87434,-29.00967 -20.38518,-54.7185 -50.58836,-60.08558 22.46322,-7.09102 52.79561,-0.45947 78.332,-3.0107 78.11915,-0.20079 156.2386,-0.0624 234.35789,-0.10411 0,213.66667 0,427.33333 0,641 -2.0618529,0.724843 -9.341478,0.289777 -7.28489,-4.25 z m -117.20102,-102.7272 c -14.9532,-17.05112 26.24916,-52.26436 10.79457,-15.5228 -3.93242,4.1089 -2.30399,17.68017 -10.79457,15.5228 z m -240.74595,-281.08158 c -15.72381,-8.8115 16.03813,-32.2716 -9.69386,-32.41199 17.27098,-29.23562 -21.91899,-66.48256 9.02362,-92.94819 43.12535,-14.13386 31.66578,47.05657 24.37041,70.55146 2.6244,15.36969 4.09026,21.12279 -7.01627,28.46972 10.66949,21.92807 10.11446,34.24774 -16.6839,26.339 z"
       id="path3538"
       inkscape:connector-curvature="0" />
    <path
       style="fill:#020005"
       d="m -669.52716,-329.39368 c 5.56012,-111.1911 11.12024,-222.38219 16.68036,-333.57329 71.0957,-1.14299 142.77174,-11.37736 213.56423,-1.48289 23.27687,-1.15704 47.42637,26.1966 12.4567,32.05769 -35.7572,16.37306 -33.71524,60.57791 -37.37049,93.59497 2.10141,34.98414 13.47391,68.96586 25.68655,101.44213 18.51436,28.91861 30.84036,78.93088 -12.68398,92.02664 -33.61807,19.0042 -67.27806,37.84349 -102.17002,54.59133 -42.50419,22.11853 -50.64916,76.60807 -52.87194,120.01343 7.00284,38.68181 8.39037,78.481256 -7.13144,115.14257 8.95623,29.857781 -19.02884,66.048471 -46.03409,50.8947828 -1.41315,-94.2190668 -6.04969,-188.6124228 -8.7243,-282.8996328 -0.46719,-13.93591 -0.93439,-27.87182 -1.40158,-41.80773 z m 263.81221,319.61606 c 13.69342,-13.965402 52.15562,4.3189619 13.4469,0.8260409 -4.48997,-0.01316 -9.00971,-0.034289 -13.4469,-0.8260409 z m 84.15924,0.228 c 5.87623,-2.779338 1.9641,2.1665641 0,0 z m 5.26903,0.20663 c 5.56217,-20.2827 58.64703,-17.088147 37.05482,0.1671924 -12.34413,0.6628333 -24.7103,0.2464957 -37.05482,-0.1671924 z m 188,-1.32818 c 2.3689,-17.031163 9.54866,-37.288177 12.15303,-8.679465 6.42778,12.9937918 -3.02452,12.4628919 -12.15303,8.679465 z m 115,-4.78825 c -5.838538,-48.890759 -9.758715,-98.51631 -27.888872,-144.80503 -8.165922,-32.89766 0.690741,-68.30258 -14.88315,-100.30641 -9.69179,-36.19931 -31.083069,-73.15733 -69.648678,-83.64354 -38.34888,-10.52061 -73.18113,-31.72646 -112.42961,-39.88442 -39.26558,-9.86885 -38.91962,-51.89285 -36.45871,-84.04341 4.16629,-26.58473 26.00776,-53.98496 14.80902,-81.51446 4.87626,-27.19704 -16.87717,-50.39591 -15.73505,-76.9082 -7.77483,-13.57264 -65.61959,-19.41564 -24.83352,-27.25104 79.56128,-14.22751 160.59754,-5.30718 240.926237,-7.28342 20.469733,0 40.939466,0 61.4091983,0 0,219.89204 0,439.78408 0,659.6761192 C -1.8459305,-6.8006786 -16.258855,-6.162248 -13.28668,-15.45942 z m -218.5,-43.36469 c -22.8041,-28.392688 24.80061,-56.82289 45.48756,-71.48856 38.93795,-7.89131 28.49664,56.458717 0.12474,61.037731 -14.91126,4.650412 -31.38019,3.581874 -45.6123,10.450829 z m -248.5,-2.73467 c -32.50351,-3.594767 -30.8251,-53.3994 5.92364,-37.365337 28.89724,1.555518 41.59353,45.764475 2.65953,38.858383 l -4.34012,-0.438517 -4.24305,-1.054529 z m 111.53203,-412.25301 c -45.29783,-17.4714 28.92295,-64.8677 24.74626,-15.80344 -2.38355,10.52769 -13.63524,19.98227 -24.74626,15.80344 z m -18.86536,-168.74856 c -0.28611,-18.71037 46.2787,-0.6716 11.22918,-2.82857 -3.74357,0.89286 -7.11154,4.05314 -11.22918,2.82857 z m -10.16667,-6.33333 c 0.64625,-4.77999 9.70714,4.93821 0,0 z"
       id="path3536"
       inkscape:connector-curvature="0" />
  </g>
</svg>
