<?xml version="1.0" encoding="UTF-8" standalone="no"?>
<svg
   xmlns:dc="http://purl.org/dc/elements/1.1/"
   xmlns:cc="http://creativecommons.org/ns#"
   xmlns:rdf="http://www.w3.org/1999/02/22-rdf-syntax-ns#"
   xmlns:svg="http://www.w3.org/2000/svg"
   xmlns="http://www.w3.org/2000/svg"
   xmlns:sodipodi="http://sodipodi.sourceforge.net/DTD/sodipodi-0.dtd"
   xmlns:inkscape="http://www.inkscape.org/namespaces/inkscape"
   sodipodi:docname="simple wand.svg"
   height="100%"
   width="100%"
   inkscape:version="0.48.4 r9939"
   version="1.1"
   id="svg8438"
   viewBox="0 0 512 512">
  <metadata
     id="metadata8464">
    <rdf:RDF>
      <cc:Work
         rdf:about="">
        <dc:format>image/svg+xml</dc:format>
        <dc:type
           rdf:resource="http://purl.org/dc/dcmitype/StillImage" />
        <dc:title></dc:title>
      </cc:Work>
    </rdf:RDF>
  </metadata>
  <defs
     id="defs8462">
    <linearGradient
       id="linearGradient4077">
      <stop
         id="stop4079"
         offset="0"
         style="stop-color:#aa4400;stop-opacity:1;" />
      <stop
         style="stop-color:#ff9f00;stop-opacity:1;"
         offset="0.22752622"
         id="stop4081" />
      <stop
         style="stop-color:#803300;stop-opacity:1;"
         offset="0.4948855"
         id="stop4083" />
      <stop
         id="stop4085"
         offset="1"
         style="stop-color:#562200;stop-opacity:1;" />
    </linearGradient>
    <linearGradient
       id="linearGradient4057">
      <stop
         style="stop-color:#aa4400;stop-opacity:1;"
         offset="0"
         id="stop4059" />
      <stop
         id="stop4067"
         offset="0.22752622"
         style="stop-color:#ecd1a4;stop-opacity:1;" />
      <stop
         id="stop4065"
         offset="0.50136983"
         style="stop-color:#803300;stop-opacity:1;" />
      <stop
         style="stop-color:#562200;stop-opacity:1;"
         offset="1"
         id="stop4061" />
    </linearGradient>
    <linearGradient
       id="linearGradient3890">
      <stop
         style="stop-color:#701b1b;stop-opacity:1;"
         offset="0"
         id="stop3892" />
      <stop
         style="stop-color:#e31600;stop-opacity:1;"
         offset="1"
         id="stop3894" />
    </linearGradient>
    <linearGradient
       id="linearGradient3882">
      <stop
         style="stop-color:#600b0b;stop-opacity:1;"
         offset="0"
         id="stop3884" />
      <stop
         style="stop-color:#d11414;stop-opacity:1;"
         offset="1"
         id="stop3886" />
    </linearGradient>
    <linearGradient
       id="linearGradient3872">
      <stop
         style="stop-color:#800600;stop-opacity:1;"
         offset="0"
         id="stop3874" />
      <stop
         style="stop-color:#ff0004;stop-opacity:0;"
         offset="1"
         id="stop3876" />
    </linearGradient>
    <filter
       id="filter4074"
       inkscape:label="Black Light"
       inkscape:menu="Color"
       inkscape:menu-tooltip="Light areas turn to black"
       x="0"
       width="1"
       y="0"
       height="1"
       color-interpolation-filters="sRGB">
      <feColorMatrix
         id="feColorMatrix4076"
         type="luminanceToAlpha"
         result="result2" />
      <feComposite
         in2="SourceGraphic"
         id="feComposite4078"
         operator="arithmetic"
         in="result2"
         k3="2"
         result="result4" />
      <feBlend
         in2="result2"
         id="feBlend4080"
         in="result4"
         mode="multiply"
         result="result3" />
      <feComposite
         in2="SourceGraphic"
         id="feComposite4082"
         operator="in"
         in="result3" />
    </filter>
  </defs>
  <sodipodi:namedview
     pagecolor="#000000"
     bordercolor="#666666"
     borderopacity="1"
     objecttolerance="10"
     gridtolerance="10"
     guidetolerance="10"
     inkscape:pageopacity="0"
     inkscape:pageshadow="2"
     inkscape:window-width="1190"
     inkscape:window-height="1126"
     id="namedview8460"
     showgrid="false"
     inkscape:zoom="1"
     inkscape:cx="232.37126"
     inkscape:cy="190.69667"
     inkscape:window-x="160"
     inkscape:window-y="130"
     inkscape:window-maximized="0"
     inkscape:current-layer="svg8438" />
  <path
     style="fill:#000000"
     id="path3978"
     d="M -13.466093,0.1885736 H 514.89024 V 516.42957 H -13.466093 z"
     inkscape:connector-curvature="0" />
  <path
     transform="matrix(0.92592215,0,0,1,-12.92858,0)"
     sodipodi:end="6.1122693"
     sodipodi:start="6.11213"
     d="m 101.95774,-78.577314 a 39.244427,23.688076 0 0 1 9.3e-4,0.0033 l -38.672613,4.028989 z"
     sodipodi:ry="23.688076"
     sodipodi:rx="39.244427"
     sodipodi:cy="-74.545074"
     sodipodi:cx="63.286057"
     id="path4121"
     style="fill:#333333;fill-opacity:1;fill-rule:nonzero;stroke:none"
     sodipodi:type="arc" />
  <path
     transform="matrix(0.92592215,0,0,1,-12.92858,0)"
     sodipodi:end="6.1122693"
     sodipodi:start="6.11213"
     d="m 76.035958,-54.360671 a 10.606602,11.755651 0 0 1 2.51e-4,0.0016 l -10.452057,1.999461 z"
     sodipodi:ry="11.755651"
     sodipodi:rx="10.606602"
     sodipodi:cy="-52.359596"
     sodipodi:cx="65.584152"
     id="path4123"
     style="fill:#333333;fill-opacity:1;fill-rule:nonzero;stroke:none"
     sodipodi:type="arc" />
  <path
     transform="matrix(0.92592215,0,0,1,-12.92858,0)"
     sodipodi:end="6.1122693"
     sodipodi:start="6.11213"
     d="m 69.424272,-57.251206 a 15.46796,16.793785 0 0 1 3.67e-4,0.0023 l -15.242583,2.856372 z"
     sodipodi:ry="16.793785"
     sodipodi:rx="15.46796"
     sodipodi:cy="-54.392529"
     sodipodi:cx="54.182056"
     id="path4125"
     style="fill:#333333;fill-opacity:1;fill-rule:nonzero;stroke:none"
     sodipodi:type="arc" />
  <g
     id="g4126"
     transform="matrix(0.61111996,0.21426948,-0.20726712,0.63176615,162.08245,14.67692)">
    <path
       style="fill:#c78e63"
       d="m 644.5,524.53637 c -9.18294,-0.87937 -12.18845,-1.93067 -30,-10.49371 -13.04163,-6.26987 -17.15421,-8.89229 -31.5,-20.08625 -18.81659,-14.6825 -23.2022,-17.52231 -38.5,-24.92984 -14.42153,-6.98323 -21.3719,-8.56381 -42,-9.55123 -17.31055,-0.8286 -28.60167,-2.90837 -35.69172,-6.57422 -1.81956,-0.94079 -7.35828,-5.60796 -12.30828,-10.37149 -12.65601,-12.17926 -23.98805,-19.52645 -36,-23.34081 -2.75,-0.87325 -11.3,-2.7521 -19,-4.1752 -15.68518,-2.89893 -22.9442,-5.11301 -39.18167,-11.95084 -12.80092,-5.39066 -83.85295,-40.70794 -111.14168,-55.24434 -16.66647,-8.87804 -19.25722,-10.63105 -28.65089,-19.38643 -13.40854,-12.49746 -17.04957,-14.5537 -30.84413,-17.41905 -20.59668,-4.27825 -27.6892,-8.04944 -37.71597,-20.05407 -4.52997,-5.42355 -8.965,-9.57165 -12.27853,-11.48413 -5.4715,-3.15802 -24.97861,-9.69875 -40.32292,-13.52026 -5.02468,-1.25141 -13.23122,-4.1781 -18.23676,-6.50377 -8.10223,-3.76446 -9.96917,-5.17349 -17.01233,-12.83961 C 57.0129,238.88071 54.37795,236.90467 38.35188,227.29044 17.01617,214.4909 -17.56811,197.42533 -27.9799,194.55911 -34.09174,192.87661 -38.39465,192.5 -51.50613,192.5 c -8.82549,0 -19.85953,0.46717 -24.5201,1.03816 -12.8089,1.56927 -38.46901,6.58954 -57.2962,11.20971 -15.52685,3.81026 -17.18267,4.03499 -21.5,2.91789 C -160.85417,206.10507 -166,200.88109 -166,196.31844 c 0,-6.61016 8.9792,-15.03551 25.54905,-23.97318 8.65287,-4.6673 25.76592,-17.37894 31.63833,-23.50108 8.8381,-9.21395 15.16452,-24.10214 15.23122,-35.84418 0.0457,-8.04777 -1.17718,-10.90953 -7.89327,-18.47148 -4.89711,-5.51389 -7.16302,-11.35162 -6.0804,-15.66513 1.16332,-4.63502 7.75495,-10.035896 14.9674,-12.263596 15.93522,-4.921888 25.24018,-3.261254 34.96194,6.23957 11.6451,11.380456 16.15834,21.854016 17.59966,40.842216 1.12617,14.83627 3.40357,20.21622 11.82031,27.92325 8.1103,7.42644 14.63628,11.34365 30.65262,18.39922 7.72923,3.4049 25.07814,11.70114 38.55314,18.43607 13.475,6.73494 26.75,12.87327 29.5,13.64074 2.84629,0.79434 9.73816,1.40799 16,1.42463 13.16141,0.035 22.18072,1.78298 30.122,5.83782 7.17765,3.66493 10.81609,6.81317 17.1088,14.80374 5.81064,7.37843 18.65941,18.51047 25.10753,21.75288 6.99123,3.51552 14.58318,5.31622 25.3261,6.00699 14.98997,0.96385 17.1543,2.08495 36.83557,19.08039 8.96636,7.74276 15.95675,11.31953 30,15.35011 11.10123,3.18619 45.96966,19.1065 88.59243,40.44976 55.92603,28.00482 75.87854,39.65975 89.40757,52.22592 7.0128,6.51371 17.49821,12.23844 27.5,15.0142 3.4804,0.96591 12.50897,1.98892 21.5,2.43612 12.41135,0.61733 16.49634,1.19724 20.5,2.91017 11.2102,4.79619 15.48662,8.18966 24.73305,19.62641 12.13192,15.00578 20.64036,21.29927 42.63566,31.53659 19.17974,8.92687 26.01742,10.75251 45.13129,12.0499 27.3044,1.85334 32.26641,3.80485 51.19853,20.13589 C 678.83432,487.07258 683,492.58603 683,500.254 c 0,6.95134 -7.23176,18.27971 -13.80165,21.61993 -2.51195,1.27712 -14.72011,3.8085 -16.78026,3.47942 -0.50495,-0.0807 -4.06809,-0.4483 -7.91809,-0.81698 z M 513,443.46778 c 0,-1.25596 -4.14627,-2.94297 -5.40149,-2.19772 -1.07193,0.63642 2.2143,3.22994 4.09262,3.22994 0.71988,0 1.30887,-0.4645 1.30887,-1.03222 z m -62,-19.86079 c 0,-0.49116 -0.73865,-1.17646 -1.64144,-1.52289 -1.37248,-0.52667 -1.43434,-0.38034 -0.37756,0.89301 1.44013,1.73524 2.019,1.91584 2.019,0.62988 z M 209,308.5 c 0,-0.55 -0.45,-1 -1,-1 -0.55,0 -1,0.45 -1,1 0,0.55 0.45,1 1,1 0.55,0 1,-0.45 1,-1 z M 130,259 c 0,-0.825 -0.675,-1.5 -1.5,-1.5 -2.60246,0 -1.75909,1.97081 1.25,2.92105 C 129.8875,260.46445 130,259.825 130,259 z M -50,180.5 c 0,-0.55 -0.675,-1 -1.5,-1 -0.825,0 -1.5,0.45 -1.5,1 0,0.55 0.675,1 1.5,1 0.825,0 1.5,-0.45 1.5,-1 z m -63.33291,-3.12065 c 2.6581,-1.16636 4.28024,-2.32558 3.60475,-2.57605 -0.67549,-0.25047 -3.60049,0.66631 -6.5,2.0373 -6.42213,3.0366 -3.87672,3.51025 2.89525,0.53875 z m 47.28016,-60.8266 c 3.68791,-3.68791 4.31041,-9.00304 1.95352,-16.67981 -2.72101,-8.86278 -3.33267,-9.53756 -8.3143,-9.17245 L -76.5,91 l 0.0444,7.5 c 0.0537,9.06965 2.00334,16.56984 4.81998,18.5427 2.69969,1.89093 3.25026,1.84262 5.58283,-0.48995 z"
       id="path4134"
       inkscape:connector-curvature="0" />
    <path
       style="fill:#aa5219"
       d="m 639.40553,520.70491 c -1.18078,-1.26742 -3.11052,-2.05327 -4.92369,-2.0051 -5.81609,0.15454 -31.75119,-12.56502 -38.98184,-19.11818 -1.65,-1.4954 -7.5,-6.0545 -13,-10.13133 -5.5,-4.07683 -10.38142,-8.02196 -10.8476,-8.76697 -0.46618,-0.74501 -3.72868,-2.64721 -7.25,-4.22712 -6.52455,-2.92737 -7.25256,-3.70605 -5.29504,-5.66357 1.41433,-1.41433 -2.24341,-3.54239 -5.41197,-3.14866 -1.20746,0.15004 -5.34539,-1.21341 -9.19539,-3.02989 -3.85,-1.81649 -8.43988,-3.9758 -10.19973,-4.79848 -1.75985,-0.82268 -3.57853,-1.26167 -4.04151,-0.97553 -0.46298,0.28613 -5.3231,-0.12646 -10.80027,-0.91688 -5.49134,-0.79246 -12.64995,-1.1795 -15.95849,-0.86281 -7.04761,0.67459 -21.95695,-1.55106 -31.36651,-4.68236 -5.39886,-1.79662 -7.63948,-3.31505 -13.41669,-9.09226 -18.60755,-18.60756 -30.28294,-25.13437 -52.41202,-29.29953 -4.50737,-0.84838 -9.78042,-2.20485 -11.71788,-3.01438 -1.93746,-0.80952 -5.27643,-1.47186 -7.41992,-1.47186 -2.38307,0 -4.88513,-0.77706 -6.43985,-2 -1.39842,-1.1 -3.45482,-2 -4.56976,-2 -3.31963,0 -7.15737,-1.84386 -7.15737,-3.43879 0,-2.0377 -11.44598,-11.41031 -14.79156,-12.11215 -1.48964,-0.3125 -3.38344,-0.98698 -4.20844,-1.49884 -0.825,-0.51186 -4.2,-2.22582 -7.5,-3.8088 -3.3,-1.58298 -7.51508,-4.47556 -9.36685,-6.42795 -2.85026,-3.00514 -3.85975,-3.46982 -6.57927,-3.0285 -1.99179,0.32322 -6.22205,-0.44438 -11.13314,-2.02016 C 303.76884,369.42615 303,369.2555 303,370.40786 c 0,2.93542 -8.38468,-3.02109 -10.91933,-7.75713 -1.04339,-1.94958 -10.22533,-4.53469 -11.09701,-3.12429 -0.57171,0.92505 -15.87736,-6.03012 -22.54068,-10.2429 -2.23136,-1.41074 -7.48184,-3.99074 -11.66774,-5.73333 -10.0011,-4.16347 -15.11815,-7.65143 -24.50769,-16.70529 -4.27215,-4.11942 -8.78005,-8.184 -10.01755,-9.03239 -2.56231,-1.75666 -2.91007,-3.83959 -0.83695,-5.01284 2.36379,-1.33774 0.7227,-5.60041 -3.23581,-8.40493 C 204.47776,301.77375 202,301.58746 202,303.93032 c 0,0.69501 -0.89153,2.2916 -1.98117,3.54797 -1.81217,2.08944 -2.51592,2.22569 -8.25,1.59715 -13.25295,-1.4527 -28.97302,-7.99365 -29.58644,-12.3106 -0.1892,-1.33152 -1.6042,-2.87389 -3.5,-3.81504 -3.77029,-1.87172 -16.60671,-17.00068 -18.52203,-21.83 -0.7368,-1.85778 -2.41504,-3.95332 -3.72941,-4.65675 -1.73636,-0.92928 -2.24323,-1.8628 -1.85383,-3.41429 0.75851,-3.02215 -3.03185,-7.54876 -6.32096,-7.54876 -1.42927,0 -3.39326,-0.71908 -4.36441,-1.59796 C 122.02911,252.21637 120,252.7388 120,254.90403 c 0,0.7073 0.9,2.10048 2,3.09597 2.41715,2.18749 2.51603,3.40219 0.40275,4.94745 -1.42517,1.04211 -1.30785,1.51188 1.08889,4.36025 3.48028,4.13608 2.24635,4.16364 -10.44031,0.23325 -5.25323,-1.62748 -12.50949,-3.61506 -16.12503,-4.41684 -3.61553,-0.80178 -11.04053,-3.63271 -16.5,-6.29095 -9.05122,-4.40708 -10.35089,-5.40619 -14.74249,-11.33316 -4.90816,-6.62411 -14.37882,-13.96453 -26.9952,-20.92316 -3.19626,-1.76291 -8.46095,-4.88058 -11.69931,-6.92815 -4.92304,-3.11277 -5.6217,-3.8908 -4.26333,-4.74764 0.91334,-0.57611 1.30312,-1.54496 0.89031,-2.21291 -0.92535,-1.49724 -4.09423,-1.53112 -6.43576,-0.0688 -2.41915,1.51078 -9.33878,-1.97076 -14.55258,-7.322 -3.41984,-3.50998 -4.26013,-3.90132 -7.19484,-3.35077 -2.5021,0.4694 -4.98675,-0.13112 -10.05982,-2.43135 -14.15334,-6.41744 -29.08247,-8.11835 -53.87328,-6.13793 -14.82706,1.18447 -47.59399,7.21316 -66.08283,12.15838 -6.09556,1.63038 -12.97252,2.96433 -15.28212,2.96433 -11.08177,0 -17.79679,-7.95715 -13.11195,-15.53737 2.5655,-4.15108 12.50709,-11.71966 22.23363,-16.92658 9.63234,-5.15649 28.26571,-19.09879 33.89993,-25.3654 8.67743,-9.65138 14.86153,-24.50611 14.82138,-35.60215 -0.0264,-7.30427 -2.28213,-12.75678 -7.76048,-18.75881 C -104.98313,88.61186 -106,86.47792 -106,81.26191 c 0,-3.63852 0.55715,-4.90959 3.33014,-7.59728 7.23522,-7.012645 25.74188,-10.438099 34.78411,-6.438292 5.92523,2.621013 11.0541,7.236552 16.31518,14.682262 6.20345,8.77938 8.5262,15.94547 9.72682,30.00901 1.37219,16.07327 3.35313,21.12881 11.4527,29.22838 8.24524,8.24524 14.3321,12.05607 31.12626,19.48737 7.57064,3.34996 25.46479,11.91362 39.76479,19.03035 14.75262,7.342 28.59555,13.55969 32,14.37313 3.3,0.78848 10.81535,1.44025 16.70078,1.44838 21.29594,0.0294 31.24433,4.52323 43.18559,19.50748 6.46655,8.11443 18.8179,18.57844 26.44347,22.4028 7.4609,3.74178 17.25415,6.1045 25.30255,6.1045 12.38233,0 17.50531,2.59621 34.95955,17.71672 9.85604,8.53823 16.61208,12.06035 31.22777,16.27992 14.45877,4.17427 56.09055,23.70437 114.68029,53.79825 34.69298,17.81961 53.19937,29.26059 64,39.56593 11.57742,11.04651 30.85953,17.63918 51.59071,17.63918 19.13425,0 27.93253,4.54256 41.64234,21.5 11.7782,14.56827 20.35729,21.05115 40.38378,30.51646 22.54409,10.65524 34.78976,13.96869 51.74364,14.0009 20.10894,0.0382 29.8261,4.07894 47.78891,19.87228 C 676.54454,487.04622 681,492.97401 681,499.46951 c 0,5.08042 -3.13623,10.75159 -6.69375,12.10415 -1.69544,0.64461 -2.27436,1.46193 -1.89622,2.67712 0.64465,2.07168 -0.192,3.52751 -2.8683,4.99099 -1.52932,0.83628 -2.22143,0.71095 -3.15968,-0.57219 -1.10608,-1.51266 -1.3645,-1.49544 -3.25669,0.21697 -1.36925,1.23915 -2.95932,1.68718 -4.76369,1.34225 -1.48963,-0.28476 -4.48698,0.10977 -6.66077,0.87673 -5.38267,1.89912 -6.7009,1.7582 -6.7009,-0.71631 0,-2.09493 -0.0137,-2.09384 -1.82631,0.14461 l -1.82632,2.2554 -1.94184,-2.08432 z m 24.25372,-12.13876 c 1.78602,-1.08904 4.06803,-1.68872 5.25,-1.37963 1.62934,0.42608 2.09075,0.0847 2.09075,-1.54684 0,-2.58531 -4.08607,-5.40709 -7.19218,-4.96681 C 661.98294,500.93154 661.5,501.62779 661.5,504 c 0,2.34976 -0.48768,3.06926 -2.25,3.31955 -2.24881,0.31938 -2.83966,1.25745 -1.58333,2.51378 1.09607,1.09608 2.65878,0.76563 5.99258,-1.26718 z M 633.1038,507.2038 c -1.28349,-1.28349 -2.58505,-0.2915 -1.63484,1.24598 0.36808,0.59556 1.12735,0.79971 1.68727,0.45366 0.683,-0.42212 0.66575,-0.98146 -0.0524,-1.69964 z m 17.71575,-5.53213 c 0.24018,-1.63227 -0.19448,-2.17167 -1.75,-2.17167 -1.34017,0 -2.06955,0.64613 -2.06955,1.83333 0,3.80163 3.26736,4.09105 3.81955,0.33834 z M 632.0318,489.64301 c 0.0855,-1.72899 3.18447,-4.49267 5.19964,-4.63711 3.32401,-0.23825 3.82144,-4.5059 0.5252,-4.5059 -3.13617,0 -10.55532,7.8987 -9.3107,9.91252 0.63039,1.02 3.52811,0.39817 3.58586,-0.76951 z M 597,486.03605 c 0,-1.71654 -6.71759,-6.53605 -9.11016,-6.53605 -0.90524,0 -2.26328,-0.91477 -3.01787,-2.03282 C 583.4796,475.40415 576,473.44367 576,475.14175 c 0,0.49689 1.6875,1.76758 3.75,2.82374 2.0625,1.05616 5.38551,3.63349 7.38448,5.7274 2.68937,2.81711 4.44463,3.80711 6.75,3.80711 2.06859,0 3.11552,-0.49194 3.11552,-1.46395 z m -77.5,-40.98376 c 0,-2.84707 -9.45739,-7.55229 -15.17993,-7.55229 -8.622,0 -11.43013,4.13728 -4.07007,5.9965 2.3375,0.59048 5.825,1.6999 7.75,2.46539 1.925,0.76548 5.3,1.31221 7.5,1.21495 3.23701,-0.14311 4,-0.54836 4,-2.12455 z m -47.70174,-10.1398 c 0.42901,-3.00268 -2.11005,-4.85118 -4.73434,-3.4467 -2.33931,1.25196 -2.64457,3.05356 -0.8256,4.87253 1.84786,1.84786 5.2156,0.98422 5.55994,-1.42583 z m -17.80904,-6.8995 c 2.89276,-3.48557 -2.42536,-9.51299 -8.39351,-9.51299 -3.75438,0 -3.243,2.14157 1.64401,6.88492 4.749,4.60939 5.01817,4.7142 6.7495,2.62807 z M 388.16643,354 c -0.51639,-3.09605 -1.50721,-3.64029 -8.027,-4.40903 -3.5354,-0.41686 -6.88214,-1.45314 -8.02069,-2.48352 -2.26968,-2.05402 -6.61874,-1.79879 -6.61874,0.38844 0,0.90211 2.18316,2.29629 5.5,3.51234 3.025,1.10904 6.85,2.79157 8.5,3.73894 1.65,0.94737 4.35,1.61682 6,1.48766 2.3873,-0.18687 2.93187,-0.6433 2.66643,-2.23483 z M 248.36188,334.99934 C 249.74801,331.38714 236.2073,320.5 230.32856,320.5 c -3.64625,0 -4.05411,1.06188 -1.90111,4.94962 0.74612,1.34729 1.13711,3.02153 0.86888,3.72054 -0.52707,1.37353 3.06268,3.17796 11.20367,5.63163 6.52112,1.96545 7.17715,1.98193 7.86188,0.19755 z M 351.75436,333.25 c -0.22676,-0.6875 -1.38616,-1.73995 -2.57644,-2.33878 -1.19028,-0.59883 -2.95475,-1.77756 -3.92103,-2.6194 -0.96629,-0.84184 -6.48189,-3.70762 -12.25689,-6.3684 -5.775,-2.66078 -12.06696,-5.86955 -13.98213,-7.1306 -1.91518,-1.26105 -4.05758,-2.29282 -4.7609,-2.29282 -0.70332,0 -3.30313,-0.95156 -5.77734,-2.11458 -3.63557,-1.70892 -4.78452,-1.87727 -5.98911,-0.87756 -0.81978,0.68037 -1.49052,1.84836 -1.49052,2.59553 0,1.4545 2.00646,2.10382 8.73478,2.82672 4.80684,0.51644 14.13272,5.57931 22.26522,12.08741 4.35156,3.48237 6.33523,4.41728 9.5,4.47739 2.2,0.0418 5.125,0.71907 6.5,1.50509 3.12116,1.78421 4.286,1.86178 3.75436,0.25 z M 235.60417,303.77083 c -0.33229,-0.33229 -0.56864,0.25834 -0.52522,1.3125 0.048,1.16495 0.28494,1.4019 0.60416,0.60417 0.28887,-0.72188 0.25335,-1.58438 -0.0789,-1.91667 z M 244,289.5 c 0,-0.55 -0.675,-1 -1.5,-1 -0.825,0 -1.5,0.45 -1.5,1 0,0.55 0.675,1 1.5,1 0.825,0 1.5,-0.45 1.5,-1 z M 232.35777,287 c 0,-0.55 -0.75549,-1.1455 -1.67888,-1.32332 C 229.65585,285.47966 229,285.99661 229,287 c 0,1.00339 0.65585,1.52034 1.67889,1.32332 0.92339,-0.17782 1.67888,-0.77332 1.67888,-1.32332 z m -64.92215,-2.39584 c 0.30451,-0.49271 -0.3149,-1.95521 -1.37647,-3.25 -1.81844,-2.21794 -2.03014,-2.25581 -3.65873,-0.65435 -1.43053,1.4067 -1.50676,1.96713 -0.44207,3.25 1.40706,1.69541 4.59825,2.07665 5.47727,0.65435 z M 141.75501,241.25 C 141.12165,239.32682 137,239.04983 137,240.93045 c 0,1.02102 0.90283,1.56955 2.58333,1.56955 1.61956,0 2.42976,-0.46635 2.17168,-1.25 z M 77.5,237 c 0,-1.31273 -0.77318,-2.10981 -2.25,-2.31955 C 73.40432,234.41832 73,234.83514 73,237 c 0,2.16486 0.40432,2.58168 2.25,2.31955 C 76.72682,239.10981 77.5,238.31273 77.5,237 z M 23.10772,203.81038 C 22.179,200.33778 20,199.57092 20,202.71667 c 0,2.52338 1.80915,5.01932 3.07232,4.23863 0.41369,-0.25567 0.42962,-1.67088 0.0354,-3.14492 z m -67.68299,-21.28176 c 1.50581,-0.57251 2.55511,-1.58909 2.33179,-2.25907 -1.08851,-3.26551 -19.9382,-3.84919 -27.52697,-0.85236 l -4.72955,1.8677 4.5,0.5942 c 12.51786,1.65289 22.1392,1.89869 25.42473,0.64953 z m -68.15277,-3.85993 c 11.16504,-5.07569 11.42796,-8.84165 0.33619,-4.81555 -7.17131,2.60304 -11.60815,5.1524 -11.60815,6.66991 0,1.81626 5.01105,0.99189 11.27196,-1.85436 z m 12.9023,-22.39443 c -0.55,-0.55 -1.53725,-0.66795 -2.19389,-0.26213 -0.90708,0.56061 -0.87942,0.93223 0.11512,1.54689 1.70594,1.05432 3.38199,0.0185 2.07877,-1.28476 z m 33.77123,-37.74509 C -63.99433,117.4266 -61,110.64704 -61,107.0851 c 0,-3.58816 -3.84228,-15.28453 -5.59764,-17.03989 -2.2737,-2.27369 -7.99209,-1.95548 -10.53375,0.58618 -1.89689,1.89689 -2.0635,2.86177 -1.51439,8.77004 1.44625,15.56105 6.08592,22.6093 12.59127,19.12774 z m 392.30675,265.35019 c -3.98626,-1.96768 -7.00769,-3.96603 -6.71428,-4.44077 0.2934,-0.47475 1.52989,-0.48769 2.74775,-0.0288 1.21786,0.45892 4.01429,1.3991 6.21429,2.08931 4.73006,1.48395 6.5,2.74287 6.5,4.62331 0,1.93406 -0.59402,1.78174 -8.74776,-2.24308 z"
       id="path4132"
       inkscape:connector-curvature="0" />
    <path
       style="fill:#8c3404"
       d="m 652.5,519.75976 c -2.75,-0.20886 -5.4275,-0.80275 -5.95,-1.31976 -0.5225,-0.517 -1.83707,-0.94 -2.92126,-0.94 -1.08419,0 -2.79729,-0.74755 -3.80689,-1.66122 -1.00959,-0.91367 -2.84502,-2.16671 -4.07874,-2.78454 -1.38533,-0.69376 -2.25094,-2.04975 -2.26358,-3.54594 -0.0172,-2.03473 -0.73694,-2.59705 -4.4953,-3.51214 -4.98316,-1.2133 -6.51728,-3.862 -2.7999,-4.83411 1.72443,-0.45095 1.99938,-0.87834 1.12657,-1.75115 -0.63504,-0.63504 -0.87554,-1.88728 -0.53446,-2.78276 1.0386,-2.72675 10.23655,-11.12814 12.18323,-11.12814 1.00449,0 2.08537,-0.675 2.40196,-1.5 0.63701,-1.66004 4.1851,-2.04242 5.10721,-0.55041 0.32278,0.52227 2.74304,0.69422 5.37834,0.3821 3.63305,-0.43028 6.6759,0.0654 12.58591,2.05042 4.28695,1.43984 8.78539,2.61789 9.99654,2.61789 2.88522,0 6.57037,6.4602 6.57037,11.51812 0,4.44603 -3.3207,10.27311 -6.55517,11.50286 -1.50182,0.57099 -2.41369,1.84912 -2.6234,3.67711 -0.28733,2.50467 -0.71271,2.80191 -4.00979,2.80191 -2.02859,0 -4.25609,0.5625 -4.95,1.25 -0.6939,0.6875 -2.18414,1.16889 -3.31164,1.06975 -1.1275,-0.0991 -4.3,-0.35113 -7.05,-0.55999 z m 10.60381,-10.81344 c 1.65247,-0.85453 3.99263,-1.41703 5.20034,-1.25 1.61523,0.22338 2.27815,-0.27454 2.50712,-1.88312 0.37985,-2.66865 -3.6389,-5.61771 -7.00345,-5.13931 -1.82898,0.26006 -2.26876,0.89852 -2.11956,3.07713 0.1539,2.24712 -0.22644,2.74898 -2.08333,2.74898 -2.95152,0 -3.8651,0.98159 -2.47381,2.65799 1.42676,1.71914 2.29866,1.68824 5.97269,-0.21167 z m -11.14016,-5.90252 c 1.61489,-1.94582 0.47737,-3.5438 -2.52267,-3.5438 -1.70034,0 -2.44098,0.55626 -2.44098,1.83333 0,3.34867 2.80256,4.31443 4.96365,1.71047 z M 605.25,485.54555 c -0.6875,-1.11013 -1.25,-2.69094 -1.25,-3.51293 0,-0.82198 -1.2375,-1.79944 -2.75,-2.17212 -3.06417,-0.75501 -9.25,-5.10063 -9.25,-6.49824 0,-0.9769 3.0804,-0.42777 9.76577,1.74093 3.81142,1.2364 4.61026,1.19809 7.5,-0.3597 2.62056,-1.41268 3.17419,-2.26528 2.91781,-4.49349 -0.36323,-3.15682 -1.28245,-3.38655 -4.6698,-1.16707 -2.81865,1.84685 -6.15268,1.13015 -6.98816,-1.5022 -1.16497,-3.67051 -4.58677,-5.56054 -11.3779,-6.28457 C 576.08051,459.903 569.44758,458.6896 566,457.06159 c -7.64741,-3.61122 -8.57149,-4.2434 -10.5,-7.18317 -1.95744,-2.98387 -18.95101,-15.38562 -21.07569,-15.38084 C 533.83269,434.49858 532.29175,433.375 531,432 c -2.98668,-3.17917 -5.57557,-3.14855 -12.53864,0.14831 -5.06728,2.39924 -5.74002,2.5016 -7.1532,1.08842 -0.85794,-0.85794 -1.60813,-3.39968 -1.66709,-5.64831 -0.11441,-4.36319 -0.51185,-4.81532 -2.49506,-2.83842 -1.00373,1.00053 -1.59247,0.80347 -2.95,-0.98741 -1.16114,-1.53179 -3.2176,-2.44516 -6.52075,-2.89617 C 492.28799,420.13086 490,418.42999 490,415.16071 490,412.33674 485.37453,405.5 483.46395,405.5 c -2.23306,0 -1.74382,3.57023 0.71275,5.20133 l 2.1767,1.44527 -2.07798,2.07798 c -1.14289,1.14289 -2.37773,3.0224 -2.74409,4.1767 -0.47363,1.49227 -1.49916,2.09872 -3.54903,2.09872 -3.16985,0 -4.99904,2.21999 -4.23537,5.14027 0.42227,1.61476 0.0637,1.77185 -2.75693,1.20773 -2.44563,-0.48913 -3.46927,-0.24297 -4.16586,1.00177 -0.50794,0.90762 -1.57616,1.65023 -2.37383,1.65023 -0.79767,0 -1.45031,0.45 -1.45031,1 0,0.55 -0.675,1 -1.5,1 -1.68953,0 -2.01412,-1.56422 -0.51664,-2.48972 0.54085,-0.33426 0.77333,-2.81389 0.51664,-5.51028 -0.26765,-2.81146 -0.0266,-5.17456 0.5652,-5.5403 0.66442,-0.41063 0.69036,-1.05122 0.0728,-1.79873 -0.52749,-0.63853 -1.27353,-2.84372 -1.65786,-4.90041 -0.55124,-2.94983 -0.35898,-3.86984 0.91051,-4.35699 0.88512,-0.33965 1.60931,-1.4914 1.60931,-2.55945 0,-2.17562 -6.76422,-5.76951 -11,-5.84439 -1.375,-0.0243 -3.625,-0.92419 -5,-1.99973 -1.375,-1.07554 -3.30333,-1.96553 -4.28518,-1.97776 -0.98185,-0.0122 -2.86949,-0.7327 -4.19475,-1.60105 -1.32526,-0.86834 -3.44693,-1.47643 -4.71482,-1.35131 -2.66052,0.26255 -5.59413,-0.76511 -7.95597,-2.78702 -0.97654,-0.83599 -1.89313,-1.02092 -2.24426,-0.45279 -0.32644,0.5282 0.0789,1.21839 0.90072,1.53376 3.01216,1.15587 1.60155,2.9094 -1.75574,2.18256 -1.7875,-0.38699 -5.39076,-0.91455 -8.00724,-1.17235 -4.22634,-0.41643 -5.01714,-0.16658 -7.08621,2.23885 -1.47812,1.71842 -2.79315,2.42072 -3.59952,1.92235 -1.01432,-0.62688 -0.99693,-0.95441 0.0862,-1.62408 1.11223,-0.68765 1.05431,-1.14137 -0.32141,-2.51745 -1.19297,-1.19329 -4.44542,-1.9121 -11.24948,-2.48619 -5.26423,-0.44416 -10.30139,-1.21613 -11.19369,-1.71549 -1.43756,-0.80449 -1.37498,-1.0812 0.54935,-2.42905 l 2.17172,-1.52113 -2.79987,-0.84977 C 379.75994,381.42471 374,381.02105 368.5,380.99506 c -8.72634,-0.0412 -10.82788,-0.4084 -16.5,-2.88279 -3.575,-1.55955 -7.4,-3.20886 -8.5,-3.66513 -15.39136,-6.38423 -30.52246,-13.93368 -38,-18.95959 -2.2,-1.47869 -9.85,-5.71608 -17,-9.41642 -7.15,-3.70033 -14.575,-7.95479 -16.5,-9.45435 -1.925,-1.49956 -7.16547,-4.8757 -11.6455,-7.50252 -15.7399,-9.22895 -25.69821,-22.17497 -22.48391,-29.22958 1.32939,-2.9177 0.56208,-7.00467 -1.46084,-7.78094 C 235.63439,291.80621 235,290.28865 235,288.73138 235,285.33783 233.38644,283.5 230.40699,283.5 228.11653,283.5 227,285.21983 227,288.7479 c 0,1.14638 -0.67988,2.79707 -1.51085,3.66821 -0.83097,0.87114 -2.32597,2.65919 -3.32221,3.97344 -1.80277,2.37822 -1.82524,2.3807 -4.73915,0.5231 C 215.81751,295.8861 214.275,294.80954 214,294.52029 211.72079,292.12296 201.49195,286.5 199.41015,286.5 c -0.25281,0 -0.90996,1.18439 -1.46033,2.63198 -0.9383,2.46793 -1.11362,2.52975 -2.81292,0.99191 -1.68518,-1.52506 -1.97025,-1.50301 -4.0658,0.31444 -1.79603,1.55769 -2.11739,2.57445 -1.58287,5.00808 0.86859,3.95466 -0.89637,4.02818 -5.44955,0.22703 -3.63466,-3.03436 -3.73255,-6.17344 -0.19251,-6.17344 3.15604,0 4.59425,-2.53312 2.85116,-5.02173 -0.81194,-1.15921 -1.24851,-2.97854 -0.97016,-4.04296 0.57549,-2.2007 -0.71101,-2.53956 -2.60181,-0.68531 -1.02345,1.00367 -1.70333,0.73859 -3.45,-1.34513 -1.19645,-1.42732 -3.01059,-2.89401 -4.03143,-3.25932 -1.42047,-0.50831 -1.70373,-1.27117 -1.20694,-3.25052 0.3687,-1.46903 0.14563,-3.19302 -0.51638,-3.99068 C 172.59709,266.3096 166,265.97282 166,267.5 c 0,1.11241 -2.98018,1.32857 -5.41821,0.39301 C 159.7118,267.55917 159,266.40458 159,265.32727 c 0,-3.73449 -1.87726,-5.89618 -4.54001,-5.22787 C 152.42928,260.60907 152,260.34889 152,258.60841 152,257.44878 151.48711,256.5 150.86024,256.5 c -1.54137,0 -3.78927,-3.09121 -3.82844,-5.2647 -0.0175,-0.97058 -1.42465,-2.61174 -3.12703,-3.64702 -2.69263,-1.63749 -2.87597,-2.00502 -1.40953,-2.82568 1.0402,-0.58212 1.55532,-1.86091 1.34523,-3.33952 -0.26977,-1.89855 -1.11029,-2.52056 -4.04747,-2.99521 -4.43083,-0.71603 -6.33591,0.21495 -5.40485,2.64126 0.7877,2.0527 -0.84879,3.39327 -4.16953,3.41556 -1.25477,0.008 -2.55703,0.73361 -2.89392,1.61153 -0.4281,1.11562 -1.4084,1.43704 -3.25587,1.06755 -2.11833,-0.42367 -3.03318,0.0532 -4.60609,2.4009 -2.06117,3.0765 -4.08875,4.00906 -3.09692,1.42439 0.31889,-0.83101 0.30419,-2.88902 -0.0327,-4.57335 -0.50934,-2.54671 -0.98273,-2.96949 -2.81112,-2.51059 -1.20926,0.3035 -3.0589,-0.0992 -4.11033,-0.89485 -1.05143,-0.79566 -2.69919,-1.46097 -3.66169,-1.47847 -0.9625,-0.0175 -1.75,-0.43366 -1.75,-0.92481 0,-1.76369 -3.32107,-2.1264 -5.06006,-0.55264 -1.62733,1.47272 -1.9907,1.4585 -4.48452,-0.17552 -2.66491,-1.74611 -2.74734,-1.73404 -4.58421,0.67154 -1.02878,1.3473 -2.32067,2.99314 -2.87086,3.65742 -0.55019,0.66429 -1.00035,1.62431 -1.00035,2.13337 0,0.50907 -0.84824,1.1474 -1.88497,1.41851 -1.42431,0.37246 -1.7624,1.13414 -1.38343,3.11663 0.40986,2.14401 0.12537,2.6237 -1.55601,2.6237 -2.96436,0 -3.5939,-1.71264 -1.69488,-4.6109 1.64602,-2.51215 1.13294,-4.34313 -1.82288,-6.50508 -0.46319,-0.33879 -0.27967,-1.51668 0.40782,-2.61754 1.59489,-2.55382 0.66089,-4.97832 -2.4668,-6.40339 -2.04507,-0.9318 -2.89922,-0.77198 -5.09189,0.95277 -1.54882,1.21831 -3.32952,1.81277 -4.32078,1.44244 C 64.06709,234.96663 55.00113,227.26018 55.00047,226.25 55.00022,225.8375 54.1,224.6 53,223.5 c -1.58545,-1.58545 -2,-3.33333 -2,-8.43261 0,-5.55436 -0.27306,-6.51928 -2,-7.06739 -2.56545,-0.81424 -2.55549,-2.672 0.023,-4.28227 2.69643,-1.68395 1.37105,-4.14262 -4.26869,-7.91873 -6.96056,-4.66047 -11.8179,-5.82615 -18.83759,-4.5207 -3.31076,0.6157 -6.78392,0.85222 -7.71813,0.5256 -2.66504,-0.93176 -5.15196,-4.54406 -5.17632,-7.51872 -0.0269,-3.28335 -0.60404,-3.61649 -15.18406,-8.76459 -13.95143,-4.92614 -15.21827,-5.02759 -14.36672,-1.15054 0.85833,3.90797 -2.13596,4.63134 -8.27609,1.99937 -2.54997,-1.09305 -6.78574,-2.00401 -9.41282,-2.02435 -3.92648,-0.0304 -5.35541,-0.58217 -8.02953,-3.10044 -2.36726,-2.2293 -4.34217,-3.11957 -7.25302,-3.26956 -2.2,-0.11337 -4.99975,-0.54079 -6.22167,-0.94982 -1.79258,-0.60006 -2.45129,-0.23975 -3.41052,1.86553 -0.65386,1.43507 -1.73672,2.60922 -2.40635,2.60922 -0.66964,0 -1.8349,0.92971 -2.58949,2.06603 -1.04609,1.57529 -3.00707,2.26878 -8.25592,2.91966 -7.02121,0.87066 -10.32068,2.73569 -9.34375,5.28154 0.37944,0.9888 3.0041,1.61188 8.6114,2.04428 5.07354,0.39125 9.54409,1.37624 12.05111,2.65523 2.19203,1.11829 4.79094,2.08501 5.77535,2.14826 3.9649,0.25475 -6.89882,1.78734 -17.43283,2.45933 -8.58115,0.54741 -11.59035,0.41078 -12.78474,-0.58048 -1.3068,-1.08455 -1.86793,-0.9681 -3.43372,0.71259 -2.16499,2.32384 -6.00433,3.39265 -22.55887,6.28002 -6.6,1.15114 -16.6768,3.42511 -22.39288,5.05326 -10.02565,2.85567 -20.10715,3.89936 -20.10715,2.0816 0,-0.48327 1.35,-1.43787 3,-2.12132 1.65,-0.68345 3,-1.60772 3,-2.05393 0,-2.18675 -10.65889,-2.06624 -12.10674,0.13688 -0.77501,1.17928 -1.17976,1.09135 -2.41226,-0.52408 -2.35163,-3.08226 -1.79199,-7.13508 1.50356,-10.8885 3.42993,-3.90648 14.77202,-11.95157 23.48727,-16.65983 9.40249,-5.07954 28.15295,-19.59468 32.63212,-25.26126 8.67194,-10.97082 14.62384,-27.34274 13.59171,-37.38676 -0.64913,-6.31692 -2.69539,-10.42178 -8.32775,-16.70571 -10.93729,-12.20256 -6.53174,-21.932757 11.8295,-26.126947 C -84.11902,66.188439 -79.1284,65.5 -76.71232,65.5 c 6.2584,0 15.41023,4.823998 20.39375,10.7497 9.7946,11.64635 13.13066,20.34983 14.32668,37.37705 1.08346,15.42461 3.29126,20.21112 13.80061,29.91977 8.27055,7.6404 7.84501,7.40794 52.19128,28.51163 12.375,5.88907 26.55,12.87487 31.5,15.524 11.67964,6.25069 18.31777,7.91785 31.52644,7.91785 19.59364,0 30.29954,3.74284 39.42931,13.7847 13.74315,15.11613 23.37242,23.87671 30.11739,27.40039 9.2266,4.82012 12.87559,5.77342 26.22384,6.85095 15.65277,1.26356 20.12443,3.45825 34.83678,17.09787 7.58266,7.02979 16.27487,12.27789 24.53866,14.81571 4.03017,1.23767 10.17456,3.12241 13.6542,4.18831 9.30495,2.85034 66.6337,30.17094 94.17338,44.87928 6.325,3.37805 20.40077,10.63544 31.27948,16.12754 21.91221,11.06235 35.78166,19.9641 45.98214,29.51246 12.99578,12.16496 26.87718,17.15732 50.73838,18.24776 14.13352,0.64589 16.06351,0.96343 21.89188,3.60192 8.04152,3.64037 14.29304,8.92269 21.94151,18.53982 11.44324,14.38867 20.14175,20.7999 42.0637,31.00309 19.96058,9.29029 29.05495,11.80638 47.10291,13.03164 27.06733,1.8376 33.76226,4.47118 49.5,19.47183 5.5,5.24241 8.93799,9.02021 7.63997,8.39512 -1.29802,-0.62509 -7.37302,-2.23516 -13.5,-3.57793 -6.12698,-1.34277 -12.96602,-2.8457 -15.19786,-3.33984 -2.23183,-0.49414 -5.33409,-1.47991 -6.8939,-2.19061 -2.57474,-1.17313 -2.9722,-1.08708 -4.31409,0.93391 -1.60896,2.42322 -5.31867,2.90483 -9.66034,1.25413 -3.94438,-1.49965 -5.27769,-0.35935 -6.77514,5.79436 -1.52149,6.25255 -4.21579,7.99007 -6.54864,4.22314 z m 18.47186,-15.16741 c 1.67502,-1.67502 0.38556,-3.87814 -2.26983,-3.87814 -3.14229,0 -4.18544,1.99055 -1.91368,3.6517 2.24061,1.63838 2.74431,1.66564 4.18351,0.22644 z M 414.81955,373.26022 C 414.40667,370.36623 411,369.54847 411,372.34334 c 0,1.81042 1.14047,2.8678 3.31955,3.07771 0.45075,0.0434 0.67575,-0.92895 0.5,-2.16083 z m -18.45401,-14.62525 c -1.24242,-6.62267 -8.79347,-12.65184 -30.10204,-24.03509 -10.58007,-5.65199 -24.91972,-12.73543 -31.86588,-15.74098 -6.94616,-3.00556 -13.75541,-6.20245 -15.13167,-7.10421 -2.9755,-1.94962 -20.9435,-9.55255 -30.65228,-12.97012 -4.22157,-1.48603 -9.50882,-2.50025 -13.66342,-2.62096 -4.81497,-0.13991 -7.33161,-0.69876 -8.69241,-1.93026 -1.05343,-0.95334 -3.00489,-1.75321 -4.33658,-1.77748 -3.4676,-0.0632 -11.39612,-2.27515 -13.03732,-3.63723 -2.92076,-2.42401 -6.60866,-2.59392 -8.79728,-0.4053 -2.89243,2.89243 -2.61032,4.08666 0.96536,4.08666 2.52279,0 3.24197,0.54489 4.14746,3.14237 l 1.09543,3.14238 1.38448,-2.64238 c 1.60412,-3.06156 2.93711,-3.29941 5.49876,-0.98115 3.58392,3.24341 13.73964,8.29997 21.82185,10.86516 3.025,0.9601 7.525,2.78802 10,4.06205 2.475,1.27403 6.43225,2.81049 8.7939,3.41436 3.1001,0.79269 4.55598,1.78727 5.23657,3.57736 1.21083,3.18471 8.70818,6.49316 15.72873,6.94081 4.30357,0.2744 6.80431,1.30234 13.76266,5.65719 4.67691,2.92702 9.37528,5.75637 10.44082,6.28745 1.09066,0.54361 1.84993,1.84051 1.73733,2.96753 -0.16151,1.61655 2.01377,3.11202 11.29999,7.76855 6.325,3.17165 13.075,6.06293 15,6.42507 1.925,0.36214 5.04003,1.99859 6.92228,3.63656 4.86051,4.22968 7.8549,5.22619 15.96671,5.31356 l 7.13668,0.0769 -0.66013,-3.51876 z M 183.39301,260.91821 c 1.14794,-2.99148 0.65794,-6.41821 -0.91776,-6.41821 -1.71348,0 -3.82979,4.6337 -3.04745,6.67245 0.70251,1.8307 3.22727,1.66882 3.96521,-0.25424 z M -113,179.42526 c 13.99354,-6.61607 12.99064,-11.1883 -1.19019,-5.42611 -6.62308,2.6912 -9.80981,5.01578 -9.80981,7.15584 0,2.18846 4.06453,1.54932 11,-1.72973 z m 18.25,1.41246 c -0.6875,-0.27741 -1.8125,-0.27741 -2.5,0 -0.6875,0.27741 -0.125,0.50439 1.25,0.50439 1.375,0 1.9375,-0.22698 1.25,-0.50439 z M -97,158.52305 c 0,-1.08732 -1.15199,-2.73176 -2.55998,-3.65431 -2.40098,-1.57318 -2.66494,-1.57061 -4.25,0.0415 -1.58845,1.61553 -1.54814,1.83515 0.67076,3.65431 3.11421,2.55318 6.13922,2.53275 6.13922,-0.0415 z m 32.85072,-41.0932 c 1.06075,-1.13857 2.48717,-4.06503 3.16983,-6.50323 1.05739,-3.77663 0.98288,-5.35813 -0.50316,-10.67986 C -64.47313,89.53726 -65.30212,88.5 -70.87069,88.5 c -5.09451,0 -7.37067,1.53312 -8.36426,5.63376 -0.51342,2.11891 1.40588,15.03556 2.80335,18.86624 2.2365,6.13059 8.56978,8.4148 12.28232,4.42985 z M -72.60056,79.09854 C -73.30275,77.26866 -77,76.28407 -77,77.92695 c 0,1.73048 1.02667,2.57305 3.13528,2.57305 1.13458,0 1.60277,-0.51905 1.26416,-1.40146 z M 546.75,461.81067 c -0.9625,-0.25152 -1.75,-1.13062 -1.75,-1.95355 0,-2.12994 4.39227,-1.31513 4.81311,0.89288 0.33859,1.7765 0.0536,1.87517 -3.06311,1.06067 z M 400.13519,407.96086 C 398.28454,407.15739 395.9486,406.5 394.94421,406.5 c -2.12873,0 -3.3455,-1.54168 -2.41063,-3.05434 0.43189,-0.69881 1.47291,-0.5162 3.08726,0.54156 2.56426,1.68017 4.37916,1.2936 4.37916,-0.93274 0,-1.647 6.04999,-2.6821 7.73899,-1.32407 1.73923,1.39842 0.65231,2.68468 -1.73999,2.05908 -1.34256,-0.35109 -1.999,-0.0302 -1.999,0.97725 0,0.825 0.9,1.73535 2,2.02301 1.1,0.28766 2,1.01514 2,1.61663 0,1.5176 -3.84479,1.2998 -7.86481,-0.44552 z M 410,395.5 c 0,-0.55 0.45,-1 1,-1 0.55,0 1,0.45 1,1 0,0.55 -0.45,1 -1,1 -0.55,0 -1,-0.45 -1,-1 z M 223,315.62244 c 0,-1.16161 2.90935,-3.54642 3.5477,-2.90807 0.90557,0.90557 -0.73369,3.78563 -2.15469,3.78563 C 223.62686,316.5 223,316.1051 223,315.62244 z m 6,-3.56342 c 0,-1.05548 1.91911,-1.49891 2.48992,-0.57533 0.34546,0.55897 -0.0734,1.01631 -0.9309,1.01631 C 229.70156,312.5 229,312.30156 229,312.05902 z m -1.77749,-8.11572 c -3.16731,-2.21847 -2.74901,-4.1362 1.02749,-4.71073 4.18121,-0.6361 4.75,-0.23777 4.75,3.32645 0,3.39436 -2.16657,3.91347 -5.77749,1.38428 z M 165.75,288.83772 c 0.6875,-0.27741 1.8125,-0.27741 2.5,0 0.6875,0.27741 0.125,0.50439 -1.25,0.50439 -1.375,0 -1.9375,-0.22698 -1.25,-0.50439 z m 6.74445,-2.34385 c -0.99854,-1.10337 -1.56692,-2.25473 -1.26307,-2.55858 0.83229,-0.8323 7.76862,2.30495 7.76862,3.51368 0,1.81809 -4.6081,1.14155 -6.50555,-0.9551 z M 169,277.41667 c 0,-2.02223 0.43018,-2.93994 1.25,-2.66667 0.6875,0.22917 1.1375,0.71667 1,1.08333 C 171.1125,276.2 171,277.4 171,278.5 c 0,1.1 -0.45,2 -1,2 -0.55,0 -1,-1.3875 -1,-3.08333 z M 70.10359,248.9652 C 67.15916,245.61168 66.21252,243.5 67.65361,243.5 68.2913,243.5 76,251.50425 76,252.16639 76,252.34988 75.37162,252.5 74.60359,252.5 c -0.76802,0 -2.79302,-1.59066 -4.5,-3.5348 z M 28,197.5 c 0,-0.55 0.64844,-1 1.44098,-1 0.79254,0 1.7191,0.45 2.05902,1 0.33992,0.55 -0.30852,1 -1.44098,1 C 28.92656,198.5 28,198.05 28,197.5 z m -61.26104,-6.95938 c -5.87302,-1.13895 -5.75587,-2.19323 0.20565,-1.85074 3.19092,0.18331 5.56662,0.82123 5.81012,1.56012 0.44768,1.35846 -0.3186,1.39547 -6.01577,0.29062 z m -13.00799,-1.69656 c 0.67703,-0.27392 2.02703,-0.29059 3,-0.0371 0.97297,0.25354 0.41903,0.47766 -1.23097,0.49804 -1.65,0.0204 -2.44606,-0.18706 -1.76903,-0.46099 z m -5.17818,-15.25865 c -0.32198,-0.52097 -0.15917,-1.21065 0.3618,-1.53262 0.52097,-0.32198 1.21065,-0.15917 1.53262,0.3618 0.32198,0.52097 0.15917,1.21065 -0.3618,1.53262 -0.52097,0.32198 -1.21065,0.15917 -1.53262,-0.3618 z"
       id="path4130"
       inkscape:connector-curvature="0" />
    <path
       style="fill:#57210e"
       d="m 652.5,519.75976 c -2.75,-0.20886 -5.4275,-0.80275 -5.95,-1.31976 -0.5225,-0.517 -1.83707,-0.94 -2.92126,-0.94 -1.08419,0 -2.79729,-0.74755 -3.80689,-1.66122 -1.00959,-0.91367 -2.84502,-2.16671 -4.07874,-2.78454 -1.379,-0.69059 -2.25121,-2.0507 -2.26414,-3.53067 -0.0163,-1.86595 -0.7472,-2.5955 -3.25,-3.24404 -3.01783,-0.782 -3.8279,-1.86184 -3.2104,-4.27953 0.27536,-1.07815 0.763,-4.35594 0.8981,-6.03685 0.16564,-2.06092 9.02749,-10.46315 11.03551,-10.46315 1.1263,0 2.04782,-0.41968 2.04782,-0.93261 0,-1.43881 4.0722,-2.39519 5.23736,-1.23003 0.57868,0.57868 3.07256,0.80956 5.64934,0.523 3.35054,-0.3726 6.74309,0.19217 12.3942,2.06331 4.27949,1.41698 8.80913,2.57633 10.06586,2.57633 2.97032,0 6.65324,6.37589 6.65324,11.51812 0,4.44603 -3.3207,10.27311 -6.55517,11.50286 -1.50182,0.57099 -2.41369,1.84912 -2.6234,3.67711 -0.28733,2.50467 -0.71271,2.80191 -4.00979,2.80191 -2.02859,0 -4.25609,0.5625 -4.95,1.25 -0.6939,0.6875 -2.18414,1.16889 -3.31164,1.06975 -1.1275,-0.0991 -4.3,-0.35113 -7.05,-0.55999 z m 10.60381,-10.81344 c 1.65247,-0.85453 3.99263,-1.41703 5.20034,-1.25 1.61523,0.22338 2.27815,-0.27454 2.50712,-1.88312 0.37985,-2.66865 -3.6389,-5.61771 -7.00345,-5.13931 -1.82898,0.26006 -2.26876,0.89852 -2.11956,3.07713 0.1539,2.24712 -0.22644,2.74898 -2.08333,2.74898 -2.95152,0 -3.8651,0.98159 -2.47381,2.65799 1.42676,1.71914 2.29866,1.68824 5.97269,-0.21167 z m -11.14016,-5.90252 c 1.61489,-1.94582 0.47737,-3.5438 -2.52267,-3.5438 -1.70034,0 -2.44098,0.55626 -2.44098,1.83333 0,3.34867 2.80256,4.31443 4.96365,1.71047 z m 2.01848,-28.87367 C 652.06696,472.8887 647.8,470.81199 644.5,469.55521 c -3.3,-1.25677 -7.48079,-2.90977 -9.29065,-3.67333 -2.26975,-0.95758 -5.37217,-1.21028 -10,-0.81453 -7.03845,0.6019 -14.98666,-0.33562 -24.20935,-2.85561 -3.025,-0.82654 -7.48696,-1.82695 -9.91547,-2.22312 -2.42851,-0.39618 -7.56983,-1.79319 -11.42516,-3.10447 -3.85532,-1.31128 -7.72261,-2.38415 -8.59398,-2.38415 -0.87136,0 -2.13168,-0.8765 -2.80071,-1.94779 -0.66903,-1.07128 -6.28977,-5.29989 -12.49055,-9.39691 -6.20077,-4.09702 -12.6285,-8.73302 -14.28385,-10.30221 -1.65534,-1.5692 -4.13034,-3.5914 -5.5,-4.49378 -1.36965,-0.90238 -2.19492,-1.94774 -1.83392,-2.32302 0.361,-0.37529 3.061,1.01257 6,3.08414 7.5586,5.32769 36.64727,18.76086 47.34364,21.86332 6.38571,1.85216 13.99731,3.01766 26.20381,4.01236 25.1167,2.04674 30.55674,3.98622 42.06479,14.99691 6.05794,5.79611 6.47949,6.44379 4.21353,6.47372 -1.38482,0.0183 -4.08482,-1.01518 -6,-2.29661 z M 525.97945,423.16878 c -1.38631,-0.64283 -3.45904,-1.84378 -4.60608,-2.66878 -2.34167,-1.68423 -6.60011,-9.19159 -7.37406,-13 -0.39982,-1.96737 -1.21025,-2.56756 -3.80395,-2.81711 -2.45303,-0.23601 -3.54232,-0.96526 -4.25952,-2.85165 -0.71572,-1.88248 -1.41029,-2.34912 -2.69974,-1.81379 -2.05159,0.85175 -2.57982,0.84667 -7.46673,-0.0717 -2.70118,-0.50764 -4.41614,-0.25195 -6.21482,0.92659 -1.3663,0.89524 -3.55527,1.6277 -4.86438,1.6277 -1.30911,0 -3.19468,0.9 -4.19017,2 -2.38089,2.63086 -3.94314,2.5234 -6.26713,-0.43109 -1.28037,-1.62773 -4.0306,-2.97307 -8.32258,-4.07121 C 458.41618,398.08027 448.36889,392.82864 442,387.5 c -2.475,-2.07075 -7.63884,-5.48988 -11.47519,-7.59805 -4.19361,-2.3045 -9.17839,-6.20354 -12.5,-9.77736 -3.03865,-3.26937 -7.94576,-8.36392 -10.9047,-11.32123 -2.95893,-2.95731 -5.11604,-5.64076 -4.79358,-5.96323 0.97721,-0.9772 17.60242,10.74065 24.83008,17.50084 12.7214,11.89861 27.0942,16.9901 50.94503,18.04703 14.91349,0.66088 15.89322,0.83492 22.212,3.94564 3.63569,1.78984 7.56524,4.47198 8.73234,5.96031 1.1671,1.48833 2.93123,3.15605 3.92028,3.70605 0.98905,0.55 4.29239,4.15 7.34075,8 3.04836,3.85 6.70134,8.14194 8.11773,9.53765 4.33649,4.27317 3.05218,6.18031 -2.44529,3.63113 z M 388,381.95382 c -5.775,-1.29983 -13.69532,-2.81982 -17.6007,-3.37775 -3.90539,-0.55792 -13.97155,-3.28768 -22.36925,-6.06613 -14.32155,-4.73839 -19.78424,-7.2665 -41.03005,-18.98853 -4.675,-2.57936 -12.1,-6.39357 -16.5,-8.47603 -14.01607,-6.6336 -30.05171,-18.00965 -40.84619,-28.9772 -5.4154,-5.50223 -9.35077,-10.16919 -8.74526,-10.37103 0.6055,-0.20183 2.48331,0.79624 4.17291,2.21794 3.68224,3.0984 4.34333,3.16012 6.86276,0.64069 2.87662,-2.87662 7.60201,-3.33568 16.54017,-1.60682 9.07714,1.75573 18.68636,6.19289 30.42038,14.04692 4.44672,2.97636 9.69805,5.71418 11.66961,6.08405 4.18131,0.78442 12.59477,5.71788 16.52418,9.68939 1.50698,1.52313 5.25129,3.87995 8.3207,5.23739 3.06941,1.35744 5.58074,2.85947 5.58074,3.33785 0,0.47839 4.3875,2.78753 9.75,5.13143 5.3625,2.3439 10.54331,4.95817 11.51291,5.80949 0.96959,0.85132 3.21959,1.5294 5,1.50685 2.19175,-0.0278 4.20586,0.85619 6.23709,2.73735 1.9619,1.81694 4.98366,3.18087 8.73256,3.94161 3.15291,0.6398 6.02302,1.63323 6.37802,2.20763 1.16438,1.884 11.36565,5.82039 15.16793,5.85288 4.08969,0.035 6.27507,1.30471 8.08107,4.69528 0.99909,1.87569 0.86708,2.54626 -0.83666,4.25 -1.11261,1.11261 -3.09167,2.02292 -4.39792,2.02292 -1.30625,0 -3.66875,0.18386 -5.25,0.40857 -1.58125,0.22472 -7.6,-0.65492 -13.375,-1.95475 z m -94.22619,-46.63238 c -0.21606,-0.6482 -1.2415,-1.6607 -2.27875,-2.25 -3.0543,-1.73525 -4.52691,-2.90284 -7.51505,-5.9585 -3.25711,-3.3307 -6.31557,-2.99713 -5.80015,0.63259 0.21134,1.48825 1.67961,2.9047 4.32014,4.16766 2.2,1.05225 5.125,2.50278 6.5,3.22339 3.13408,1.64251 5.28749,1.7259 4.77381,0.18486 z M 321,311.48319 c -11.70367,-6.1547 -32.46292,-14.87169 -44,-18.47599 -25.17029,-7.86343 -28.62694,-8.68569 -33.46404,-7.96032 -3.88259,0.58223 -5.00867,0.36374 -6.84174,-1.32746 -4.53824,-4.18701 -13.64371,-8.06855 -24.94422,-10.63337 -1.85109,-0.42013 -2.75,-1.26414 -2.75,-2.58205 0,-2.93547 -4.31988,-5.43836 -6.95361,-4.02883 -2.41533,1.29265 -4.42184,0.44561 -3.65824,-1.5443 0.77415,-2.0174 -1.27589,-2.88296 -6.88815,-2.9083 l -5,-0.0226 0,-3.87866 c 0,-5.08317 -2.16295,-6.60645 -6.72456,-4.73583 -5.41172,2.21923 -8.27246,2.42547 -9.70477,0.69965 -0.72356,-0.87181 -2.64004,-1.58513 -4.25886,-1.58513 -3.51745,0 -6.3953,-1.42581 -9.9231,-4.91632 -7.39123,-7.31309 -22.44506,-14.7351 -27.37639,-13.49742 -1.65127,0.41445 -2.41465,-0.17943 -3.55737,-2.76745 -1.91952,-4.34729 -5.93491,-6.48012 -7.71419,-4.09751 -0.86352,1.15633 -2.43478,1.60721 -5,1.43479 -4.18859,-0.28155 -16.22574,-3.74393 -20.16791,-5.80114 -1.41507,-0.73844 -3.19331,-1.3454 -3.95165,-1.34879 C 87.36286,221.50316 84.99906,219.925 82.86832,218 78.39129,213.95528 77.47767,213.76227 75.76793,216.5 73.91488,219.4672 67,218.96374 67,215.86163 c 0,-0.78342 -0.675,-1.68342 -1.5,-2 -0.825,-0.31659 -1.5,-1.025 -1.5,-1.57426 0,-0.54926 -1.125,-2.33564 -2.5,-3.96974 -1.375,-1.63409 -2.51431,-3.94905 -2.5318,-5.14436 -0.0175,-1.1953 -0.58,-2.86889 -1.25,-3.71909 C 56.37319,197.74745 42.8259,188.5 41.67059,188.5 c -0.39933,0 -3.97607,-1.62662 -7.94832,-3.61471 C 29.75002,182.8972 23.35,180.23786 19.5,178.97564 c -3.85,-1.26222 -9.12331,-3.25039 -11.71847,-4.41814 -2.59516,-1.16776 -8.15191,-3.00132 -12.34834,-4.07459 -4.19643,-1.07326 -10.86289,-3.73605 -14.81436,-5.91731 -6.61239,-3.65012 -7.6242,-3.92054 -12.7067,-3.39598 -4.46961,0.4613 -6.34172,0.15187 -9.82151,-1.62339 l -4.29929,-2.19333 -1.45237,2.07355 c -1.34397,1.91879 -2.43096,2.07355 -14.56375,2.07355 -7.21126,0 -15.96683,0.49726 -19.45683,1.10501 C -90.24856,164.09688 -93,163.33744 -93,159.48095 c 0,-3.56284 -2.50935,-6.31247 -7.36237,-8.06734 -3.10851,-1.12405 -3.80403,-1.073 -5.43013,0.39861 -4.21084,3.81076 -3.88418,1.29627 0.54656,-4.2072 10.64359,-13.2205 15.94063,-28.80613 14.99473,-44.1194 -0.45334,-7.33906 -1.40369,-8.93477 -11.30722,-18.98562 -3.78003,-3.83626 -4.26671,-6.37694 -1.87549,-9.79088 3.15549,-4.505088 16.59095,-9.162353 26.5242,-9.194339 6.9756,-0.02246 15.63119,4.729746 21.4184,11.759419 8.98668,10.91603 12.1096,19.48429 13.38968,36.73688 1.09808,14.79952 3.51568,19.93273 13.91036,29.53544 8.27055,7.6404 7.84501,7.40794 52.19128,28.51163 12.375,5.88907 26.55,12.87487 31.5,15.524 11.67964,6.25069 18.31777,7.91785 31.52644,7.91785 19.59364,0 30.29954,3.74284 39.42931,13.7847 13.74315,15.11613 23.37242,23.87671 30.11739,27.40039 9.23455,4.82428 12.87413,5.77338 26.29114,6.85597 14.36622,1.15918 18.60317,3.06049 30.85182,13.84459 12.00556,10.57007 19.45714,15.30031 28.45632,18.06397 4.03017,1.23767 10.25258,3.14257 13.82758,4.2331 3.575,1.09054 13.84764,5.54556 22.8281,9.90004 8.98045,4.35448 16.49214,7.91724 16.69264,7.91724 0.84426,0 35.47926,17.12478 35.47926,17.54221 0,1.17204 -3.10466,0.0671 -10,-3.55902 z M -64.94389,119.5 c 1.32122,0 3.5092,-4.79241 4.91113,-10.75704 2.45607,-10.44955 -2.39265,-26.24377 -9.87625,-32.1709 -5.30835,-4.204289 -8.6141,-5.351604 -10.13597,-3.517858 C -80.70493,73.84939 -81.86479,74.5 -82.62244,74.5 c -0.75766,0 -1.35968,0.7875 -1.33783,1.75 0.0264,1.16163 2.44936,2.92674 7.20672,5.25 7.94638,3.88062 9.30588,5.62807 5.07459,6.52268 -4.23752,0.89592 -5.68623,1.88696 -7.16479,4.90133 -1.13982,2.32375 -1.10111,4.05508 0.25508,11.40775 0.87935,4.76753 2.42742,9.79324 3.44015,11.16824 2.18367,2.96482 6.11431,5.17628 7.98031,4.48989 0.73248,-0.26944 1.73342,-0.48989 2.22432,-0.48989 z M 77.97994,233.97583 c -0.69572,-0.83829 -1.00973,-1.77938 -0.6978,-2.0913 1.00937,-1.00938 4.71786,0.70646 4.71786,2.18286 0,1.88817 -2.42282,1.833 -4.02006,-0.0916 z m -241.4231,-38.38386 c -1.26169,-2.04147 3.44404,-7.93298 10.25124,-12.83443 8.45602,-6.08864 16.59538,-11.25153 17.77947,-11.27772 0.50185,-0.0111 4.46142,-2.65038 8.79905,-5.86508 9.3851,-6.95548 13.6134,-9.5476 13.6134,-8.34559 0,0.48522 -1.125,1.9391 -2.5,3.23085 -1.375,1.29175 -2.5,2.94519 -2.5,3.67431 0,1.80129 3.46052,1.68065 5,-0.17431 0.70293,-0.84698 2.8829,-1.5 5.00743,-1.5 2.91665,0 4.13331,0.56586 5.4117,2.51691 1.34133,2.04714 2.00474,2.32661 3.55432,1.4973 1.32029,-0.7066 2.11079,-0.68692 2.57496,0.0641 0.36838,0.59605 1.74569,0.8137 3.06068,0.48366 1.92101,-0.48215 2.39091,-0.20915 2.39091,1.38907 0,1.66776 0.59965,1.95359 3.71143,1.76905 4.35619,-0.25834 5.5949,2.17894 2.72124,5.3543 -2.27699,2.51604 -3.22176,2.43121 -3.61312,-0.3244 -0.25044,-1.76342 -1.07559,-2.32173 -3.81554,-2.5817 -1.92279,-0.18244 -4.08287,-0.81879 -4.80018,-1.4141 -0.96046,-0.79711 -1.73146,-0.65514 -2.92525,0.53865 -1.49473,1.49473 -1.71441,1.49337 -2.81918,-0.0175 -1.09455,-1.49688 -1.85689,-1.39828 -8.8178,1.1405 -8.55115,3.11878 -12.6416,5.87182 -12.6416,8.5083 0,1.35449 -1.61069,2.20214 -6.75,3.55225 -3.7125,0.9753 -10.95535,3.77733 -16.09522,6.22675 -10.03345,4.78146 -15.46727,6.21827 -16.59794,4.38881 z m 53.89055,-0.1771 c -0.36885,-0.59681 0.15692,-2.62181 1.16839,-4.5 2.41734,-4.48873 6.33068,-4.70317 9.31613,-0.5105 1.13745,1.5974 2.06809,3.13512 2.06809,3.41714 0,0.47906 -9.02454,2.67849 -10.9902,2.67849 -0.49047,0 -1.19356,-0.48831 -1.56241,-1.08513 z M -73.5,189.5 c 0.33992,-0.55 2.61648,-1 5.05902,-1 2.44254,0 4.44098,0.45 4.44098,1 0,0.55 -2.27656,1 -5.05902,1 -3.11803,0 -4.82189,-0.38367 -4.44098,-1 z m -32.0822,-13.114 c 2.90722,-2.28682 4.65995,-1.88954 2.60226,0.58983 -0.69572,0.8383 -2.17054,1.52417 -3.27736,1.52417 -1.80366,0 -1.73362,-0.2193 0.6751,-2.114 z"
       id="path4128"
       inkscape:connector-curvature="0" />
  </g>
</svg>
