<?xml version="1.0" encoding="UTF-8" standalone="no"?>
<svg
   xmlns:dc="http://purl.org/dc/elements/1.1/"
   xmlns:cc="http://creativecommons.org/ns#"
   xmlns:rdf="http://www.w3.org/1999/02/22-rdf-syntax-ns#"
   xmlns:svg="http://www.w3.org/2000/svg"
   xmlns="http://www.w3.org/2000/svg"
   xmlns:sodipodi="http://sodipodi.sourceforge.net/DTD/sodipodi-0.dtd"
   xmlns:inkscape="http://www.inkscape.org/namespaces/inkscape"
   sodipodi:docname="bandit armo0r.svg"
   height="100%"
   width="100%"
   inkscape:version="0.48.4 r9939"
   version="1.1"
   id="svg8438"
   viewBox="0 0 512 512">
  <metadata
     id="metadata8464">
    <rdf:RDF>
      <cc:Work
         rdf:about="">
        <dc:format>image/svg+xml</dc:format>
        <dc:type
           rdf:resource="http://purl.org/dc/dcmitype/StillImage" />
        <dc:title></dc:title>
      </cc:Work>
    </rdf:RDF>
  </metadata>
  <defs
     id="defs8462">
    <linearGradient
       id="linearGradient4077">
      <stop
         id="stop4079"
         offset="0"
         style="stop-color:#aa4400;stop-opacity:1;" />
      <stop
         style="stop-color:#ff9f00;stop-opacity:1;"
         offset="0.22752622"
         id="stop4081" />
      <stop
         style="stop-color:#803300;stop-opacity:1;"
         offset="0.4948855"
         id="stop4083" />
      <stop
         id="stop4085"
         offset="1"
         style="stop-color:#562200;stop-opacity:1;" />
    </linearGradient>
    <linearGradient
       id="linearGradient4057">
      <stop
         style="stop-color:#aa4400;stop-opacity:1;"
         offset="0"
         id="stop4059" />
      <stop
         id="stop4067"
         offset="0.22752622"
         style="stop-color:#ecd1a4;stop-opacity:1;" />
      <stop
         id="stop4065"
         offset="0.50136983"
         style="stop-color:#803300;stop-opacity:1;" />
      <stop
         style="stop-color:#562200;stop-opacity:1;"
         offset="1"
         id="stop4061" />
    </linearGradient>
    <linearGradient
       id="linearGradient3890">
      <stop
         style="stop-color:#701b1b;stop-opacity:1;"
         offset="0"
         id="stop3892" />
      <stop
         style="stop-color:#e31600;stop-opacity:1;"
         offset="1"
         id="stop3894" />
    </linearGradient>
    <linearGradient
       id="linearGradient3882">
      <stop
         style="stop-color:#600b0b;stop-opacity:1;"
         offset="0"
         id="stop3884" />
      <stop
         style="stop-color:#d11414;stop-opacity:1;"
         offset="1"
         id="stop3886" />
    </linearGradient>
    <linearGradient
       id="linearGradient3872">
      <stop
         style="stop-color:#800600;stop-opacity:1;"
         offset="0"
         id="stop3874" />
      <stop
         style="stop-color:#ff0004;stop-opacity:0;"
         offset="1"
         id="stop3876" />
    </linearGradient>
    <filter
       id="filter4074"
       inkscape:label="Black Light"
       inkscape:menu="Color"
       inkscape:menu-tooltip="Light areas turn to black"
       x="0"
       width="1"
       y="0"
       height="1"
       color-interpolation-filters="sRGB">
      <feColorMatrix
         id="feColorMatrix4076"
         type="luminanceToAlpha"
         result="result2" />
      <feComposite
         in2="SourceGraphic"
         id="feComposite4078"
         operator="arithmetic"
         in="result2"
         k3="2"
         result="result4" />
      <feBlend
         in2="result2"
         id="feBlend4080"
         in="result4"
         mode="multiply"
         result="result3" />
      <feComposite
         in2="SourceGraphic"
         id="feComposite4082"
         operator="in"
         in="result3" />
    </filter>
  </defs>
  <sodipodi:namedview
     pagecolor="#000000"
     bordercolor="#666666"
     borderopacity="1"
     objecttolerance="10"
     gridtolerance="10"
     guidetolerance="10"
     inkscape:pageopacity="0"
     inkscape:pageshadow="2"
     inkscape:window-width="1190"
     inkscape:window-height="1126"
     id="namedview8460"
     showgrid="false"
     inkscape:zoom="0.70710678"
     inkscape:cx="197.65584"
     inkscape:cy="237.5577"
     inkscape:window-x="160"
     inkscape:window-y="130"
     inkscape:window-maximized="0"
     inkscape:current-layer="svg8438"
     showguides="true"
     inkscape:guide-bbox="true" />
  <path
     style="fill:#000000"
     id="path3978"
     d="M -13.466093,0.1885736 H 514.89024 V 516.42957 H -13.466093 z"
     inkscape:connector-curvature="0" />
  <path
     sodipodi:type="arc"
     style="opacity:0.98999999;fill:#ff0000;fill-opacity:0.74970506;fill-rule:nonzero;stroke:none"
     id="path5005"
     sodipodi:cx="640"
     sodipodi:cy="124.5"
     sodipodi:rx="105"
     sodipodi:ry="118.5"
     d="m 743.4676,104.32865 a 105,118.5 0 0 1 0.002,0.0163 L 640,124.5 z"
     sodipodi:start="6.11213"
     sodipodi:end="6.1122693" />
  <g
     id="g6448" />
  <g
     id="g6537"
     transform="matrix(1.1986299,0,0,1.2088854,-42.565644,-37.081079)">
    <path
       style="fill:#c5a29a"
       d="m 216.39237,425.80322 c -11.4205,-2.59993 -21.25936,-7.08624 -33.22624,-15.15043 -14.35326,-9.67232 -23.25291,-14.27032 -27.62096,-14.27032 -4.87033,0 -30.13419,-11.7357 -35.12507,-16.31649 -6.36613,-5.84302 -8.37153,-27.33289 -2.55066,-27.33289 0.83318,0 0.9393,-5.09943 0.23582,-11.33205 -0.70349,-6.23263 -0.9277,-14.35394 -0.49827,-18.04735 6.08591,-52.34263 6.10326,-52.77822 2.69984,-67.76612 -5.12086,-22.55109 -14.00935,-58.15089 -19.09753,-76.48861 -2.543102,-9.16532 -4.698393,-17.28663 -4.789531,-18.04734 -0.09114,-0.76072 -2.724296,-1.38313 -5.851463,-1.38313 l -5.685756,0 -0.795949,-16.36851 C 83.64883,134.29729 82.134757,117.2483 80.721993,105.41334 78.281755,84.971241 78.33245,83.946298 81.735227,84.916732 c 2.864572,0.816943 3.318084,0.363463 2.264579,-2.264431 -1.150459,-2.869746 -0.112554,-3.42664 8.194321,-4.396712 5.231398,-0.610921 17.829583,-0.863088 27.995963,-0.560376 l 18.48432,0.550388 -0.17478,-5.875879 c -0.12734,-4.281096 0.65045,-5.818599 2.86573,-5.664836 1.88111,0.130569 2.57175,-0.669636 1.81118,-2.098528 -3.7403,-7.027005 69.71734,4.115165 107.86088,16.360509 8.77363,2.816626 16.7845,5.291422 17.80192,5.499547 9.74611,1.993676 10.23177,2.561274 11.54084,13.487828 l 1.26635,10.570028 8.74588,-1.50945 c 13.35555,-2.30505 19.96066,0.86447 31.47829,15.1051 5.19558,6.42394 10.56622,12.03637 11.93471,12.47205 1.40727,0.44802 1.88995,1.43899 1.11112,2.28111 -1.38377,1.49616 -6.8549,-3.37337 -20.01878,-17.8175 -8.17297,-8.96784 -15.89791,-11.43237 -26.89357,-8.58002 l -7.18675,1.8643 0.22831,11.46943 c 0.35732,17.95002 -0.36674,21.55474 -4.72013,23.49883 -2.72344,1.2162 -3.57186,2.77318 -2.69841,4.95196 0.76792,1.9155 -0.36385,5.26542 -2.84885,8.43249 -5.26509,6.71014 -5.98605,11.65064 -3.9685,27.19473 1.79823,13.8543 8.16337,25.52146 18.24871,33.44939 2.84767,2.2385 5.22967,4.50491 5.29335,5.03646 0.0637,0.53156 -3.53838,0.96648 -8.0046,0.96648 -4.46621,0 -8.18827,-0.5666 -8.27123,-1.25912 -0.083,-0.69251 1.95143,-1.25911 4.52088,-1.25911 l 4.67175,0 -5.11496,-4.99382 c -2.81323,-2.7466 -6.40607,-7.71456 -7.9841,-11.03991 -2.6145,-5.50945 -3.03549,-5.774 -4.74299,-2.98059 -3.25325,5.32225 -3.14746,10.67375 0.34956,17.68118 4.20029,8.41668 4.22241,8.62658 0.78478,7.44962 -1.77869,-0.60894 -3.56784,0.70195 -4.91031,3.59774 -1.16162,2.50567 -2.27275,3.48552 -2.4692,2.17743 -0.52818,-3.51693 -2.05446,-1.19861 -3.79221,5.76021 -1.24475,4.98459 -0.94905,7.31461 1.56052,12.29638 4.21246,8.36235 4.68439,12.18836 1.02055,8.27433 -2.51618,-2.68806 -2.8425,-2.58448 -4.30396,1.36608 -0.86977,2.35105 -0.8977,3.85244 -0.0621,3.33644 0.83561,-0.516 2.08032,3.29146 2.76604,8.46103 0.68575,5.16958 2.11551,10.26533 3.17731,11.32389 1.0618,1.05857 2.26228,4.73109 2.6677,8.1612 0.4775,4.04584 2.43318,7.95978 5.56551,11.14231 6.38466,6.48695 26.98956,20.87923 35.25651,24.62623 3.61777,1.63973 9.21202,4.63522 12.43167,6.65663 3.21965,2.0214 10.57314,5.78715 16.34109,8.36836 5.76794,2.58119 15.12084,7.54563 20.7842,11.03209 14.46501,8.90492 25.63211,11.0939 38.39555,7.52635 11.94715,-3.3394 15.36722,-2.51985 15.33484,3.67469 -0.0486,9.29134 -28.10635,21.71117 -59.66416,26.41043 -5.78468,0.86139 -6.15523,1.34071 -5.46841,7.07354 0.719,6.00133 0.46163,6.25991 -10.67846,10.72893 -22.20632,8.9084 -41.52733,12.23821 -74.0274,12.75796 -21.07593,0.33704 -32.73516,-0.21166 -40.09389,-1.88691 z m 54.12171,-201.36094 c 0.0418,-3.98849 4.25358,-5.65136 4.70796,-1.85876 0.18168,1.51647 -0.46352,2.33019 -1.43377,1.80826 -0.97024,-0.52192 -2.11145,10e-5 -2.536,1.16004 -0.42453,1.15995 -0.75673,0.66065 -0.73819,-1.10954 z"
       id="path6547"
       inkscape:connector-curvature="0" />
    <path
       style="fill:#b4918a"
       d="m 219.03963,425.88248 c -14.29642,-2.95715 -19.39113,-5.29734 -40.66622,-18.67957 -9.46129,-5.95125 -18.95171,-10.82044 -21.08981,-10.82044 -5.20248,0 -29.7087,-10.97829 -35.69903,-15.99243 -4.82332,-4.03731 -6.7694,-10.82432 -5.41423,-18.88225 0.60203,-3.57965 0.81463,-3.63175 3.42647,-0.83941 2.23014,2.38426 2.73046,2.47562 2.51267,0.45882 -0.14951,-1.38503 -1.15782,-3.6261 -2.24057,-4.98016 -1.23799,-1.54821 -1.3741,-3.23177 -0.36674,-4.53619 0.88104,-1.14087 0.87297,-3.65559 -0.0179,-5.5883 -0.8909,-1.93271 -1.4357,-10.31225 -1.21067,-18.62122 0.33716,-12.449 1.09047,-15.65371 4.28128,-18.21314 3.96304,-3.17887 4.52504,-12.68676 0.81659,-13.81488 -1.16076,-0.3531 -1.4654,-2.41811 -0.82554,-5.59607 l 1.01405,-5.03647 0.90097,5.03647 c 0.49552,2.77006 1.19853,4.08743 1.56222,2.92748 0.36369,-1.15995 1.36451,-1.7307 2.22403,-1.26833 1.73692,0.93433 0.49956,-5.88008 -4.26421,-23.48384 -6.07517,-22.44984 -11.1465,-43.67318 -11.43293,-47.84644 -0.31985,-4.66001 -8.43836,-36.00563 -13.449018,-51.92671 -1.774708,-5.63904 -2.823109,-10.99407 -2.32978,-11.90008 0.493327,-0.90601 -0.416947,-1.64729 -2.022833,-1.64729 -1.605886,0 -2.327415,0.75547 -1.603397,1.67882 0.741911,0.94617 -0.62917,1.67882 -3.141759,1.67882 -3.273135,0 -4.391024,-0.78093 -4.205607,-2.93794 0.138898,-1.61586 -0.179442,-7.84849 -0.707424,-13.85028 -0.527981,-6.00179 -0.385947,-9.45484 0.31563,-7.67343 0.701578,1.7814 2.532081,4.29064 4.067781,5.57609 1.535702,1.28544 3.102502,4.92735 3.481781,8.09313 0.478887,3.9972 1.516673,5.75596 3.396393,5.75596 1.488738,0 2.845401,1.15692 3.014807,2.57093 0.169407,1.41401 1.778116,2.98019 3.574906,3.48041 10.97883,3.05645 30.07411,10.03352 32.83759,11.99826 2.04918,1.4569 3.59548,1.69177 4.17164,0.63364 0.50353,-0.92474 2.41723,-1.57699 4.25267,-1.44943 2.36301,0.16422 3.22545,1.23567 2.95447,3.67052 -0.31411,2.82246 -0.0903,2.98738 1.24906,0.92037 1.40949,-2.17525 1.68344,-2.11809 2.01135,0.4197 0.44877,3.47323 2.64697,3.70912 7.82194,0.83941 2.08136,-1.15419 3.93031,-2.1097 4.10877,-2.12337 1.11354,-0.0853 4.01633,-24.0211 3.20364,-26.41661 -0.9609,-2.83238 -4.49664,-4.24847 -4.19175,-1.67882 0.0822,0.69251 -3.47787,1.47825 -7.91119,1.74607 -7.89941,0.47722 -8.07283,0.38489 -8.67205,-4.61676 -0.3363,-2.80705 0.2485,-5.10372 1.29957,-5.10372 1.05106,0 1.19973,-0.90713 0.33037,-2.01584 -1.22994,-1.56857 -1.68732,-1.56857 -2.0614,0 -0.88535,3.71237 -4.66599,1.98707 -8.50712,-3.88224 -2.09325,-3.19851 -3.49171,-6.88902 -3.1077,-8.20114 0.43553,-1.48817 -0.92492,-2.84856 -3.61624,-3.6161 -2.37293,-0.67673 -7.58109,-3.10345 -11.57368,-5.3927 -7.06909,-4.05325 -7.41668,-4.08889 -13.26954,-1.36071 -3.30567,1.54086 -5.924037,3.5216 -5.818604,4.40163 0.105433,0.88003 -3.012012,1.60005 -6.927655,1.60005 l -7.119351,0 -1.836016,-15.1094 c -1.03848,-8.546025 -1.08383,-15.109402 -0.104432,-15.109402 0.95237,0 1.80203,0.588033 1.888135,1.306738 0.08611,0.718706 5.394337,2.663437 11.79607,4.321622 6.401733,1.658186 15.307773,4.49123 19.791203,6.295652 4.48343,1.80442 8.99883,2.75764 10.03423,2.11826 1.25115,-0.7726 1.58999,-0.16289 1.01028,1.8179 -0.74447,2.54375 -0.16115,2.82259 3.98155,1.90323 3.59757,-0.79838 4.20609,-0.63612 2.35117,0.62694 -1.37645,0.93726 -1.67765,1.8121 -0.66935,1.94408 1.0083,0.13197 3.52915,0.41136 5.60188,0.62085 2.07273,0.20949 6.10979,1.7109 8.97125,3.33647 2.86145,1.62557 5.14853,2.50387 5.08238,1.95177 -0.0661,-0.5521 2.92605,0.49422 6.64931,2.32515 8.68994,4.27331 9.9978,4.19559 14.42593,-0.85728 4.70579,-5.36972 6.67722,-4.50427 -41.81511,-18.356869 C 90.231617,86.704985 80.68534,83.284408 85.129294,81.873918 c 5.703781,-1.810355 35.480386,-2.401238 45.006266,-0.893102 5.56424,0.880932 12.80072,2.029908 16.08106,2.553281 3.75398,0.59894 5.61312,1.661789 5.01675,2.868013 -0.52113,1.054034 -0.35009,1.356378 0.38007,0.671875 0.73016,-0.684503 2.50684,-0.411117 3.94818,0.607526 1.44133,1.01864 3.83683,1.398476 5.32334,0.844075 1.74387,-0.650384 2.33484,-0.33235 1.66576,0.896436 -0.72439,1.330361 0.36373,1.567956 3.60976,0.788197 2.74935,-0.660449 4.73044,-0.417671 4.85171,0.594567 0.11273,0.940944 1.62899,1.735471 3.36946,1.765614 4.53843,0.0786 22.96691,5.964247 21.96365,7.014698 -0.46289,0.484662 1.17273,0.515172 3.63471,0.06779 3.29793,-0.599295 4.56193,-0.09898 4.80148,1.900512 0.17883,1.49267 1.18511,2.71395 2.23618,2.71395 1.05107,0 1.2418,-0.85348 0.42385,-1.89662 -0.91082,-1.16158 -0.4763,-1.56823 1.12118,-1.04926 1.43461,0.46604 2.54543,1.53691 2.4685,2.37969 -0.17822,1.95223 8.27021,2.66669 9.29425,0.78599 1.25845,-2.31116 -18.42395,-9.008886 -62.39852,-21.233609 -16.6154,-4.619001 -17.28914,-4.985058 -17.85407,-9.700418 -0.48038,-4.009626 0.0133,-4.679896 2.71611,-3.687763 1.81676,0.666883 5.81072,1.808544 8.87547,2.537024 3.06475,0.72848 9.64653,2.478226 14.62617,3.888325 4.97965,1.410098 10.06576,2.186438 11.30248,1.725196 1.23672,-0.461241 2.88134,-0.03164 3.65471,0.954655 0.77338,0.986301 4.40472,1.804648 8.06966,1.81855 6.65921,0.02527 21.35951,3.785158 20.07969,5.135786 -0.37253,0.39315 2.32796,0.967082 6.00108,1.275406 11.08386,0.930385 11.84817,1.115611 21.16333,5.12887 8.05817,3.471713 9.24109,3.607212 11.43524,1.309856 1.346,-1.409334 2.40439,-2.92054 2.35196,-3.358234 -0.17815,-1.48694 -26.3527,-7.979922 -58.23918,-14.447084 -17.48103,-3.545473 -35.56001,-7.465794 -40.17551,-8.711825 l -8.39181,-2.265509 8.95205,-0.58932 c 13.15136,-0.865763 68.8624,8.20012 70.51464,11.474878 0.40947,0.811598 1.9387,1.030253 3.39825,0.4859 1.45958,-0.544354 3.26328,-0.301594 4.00824,0.539466 0.74498,0.84106 7.56855,3.295626 15.16352,5.454592 9.75432,2.772786 13.12393,4.362526 11.47583,5.41413 -1.71197,1.092349 -1.13179,1.490655 2.17898,1.495935 2.48171,0.004 7.7941,0.288924 11.80532,0.633255 l 7.29312,0.626057 0.91112,10.090921 0.91111,10.09091 11.56577,-0.87151 c 14.45527,-1.08924 18.94004,0.87312 27.61159,12.08176 3.61926,4.67816 8.46118,10.20556 10.75983,12.2831 2.29865,2.07754 3.26711,3.77735 2.15213,3.77735 -2.33768,0 -12.47168,-10.33418 -12.79703,-13.0498 -0.11996,-1.00129 -3.27634,-4.51847 -7.01419,-7.81594 -5.865,-5.17403 -7.92512,-5.99542 -15.03706,-5.99542 -15.65084,0 -16.58679,1.04068 -16.86795,18.75529 -0.21376,13.46915 -0.82018,16.09216 -4.33361,18.74484 -2.24678,1.69634 -3.58871,3.71727 -2.98206,4.49096 1.42825,1.82146 -1.60324,10.05241 -3.70234,10.05241 -2.50835,0 -5.5283,11.05793 -4.68657,17.16052 0.4175,3.02697 0.671,7.38018 0.56334,9.67381 -0.40946,8.72197 8.86151,24.85675 19.1147,33.2664 3.5774,2.93419 6.10299,5.75518 5.61238,6.26887 -1.6413,1.71849 -13.9685,-9.9676 -18.85103,-17.87064 l -4.82625,-7.81195 -1.46047,4.41913 c -2.92055,8.83704 -2.80543,11.84218 0.68891,17.98425 1.95781,3.44128 3.2096,6.62339 2.78175,7.07135 -0.42784,0.44796 -1.83137,-1.17897 -3.11896,-3.61541 -1.2876,-2.43644 -2.74171,-4.4299 -3.23137,-4.4299 -0.48967,0 -0.36476,0.98735 0.27731,2.19412 0.64232,1.20676 0.2665,4.79524 -0.83515,7.97441 -1.40391,4.05135 -2.14781,4.77598 -2.48705,2.42264 -0.42005,-2.91413 -0.7351,-2.78847 -2.3848,0.95131 -3.37568,7.65249 -3.28726,12.7894 0.34547,20.06874 4.19495,8.40595 4.30623,8.87347 1.79001,7.51994 -1.06086,-0.57067 -2.09917,-2.45934 -2.30736,-4.19706 -0.20819,-1.73772 -1.16555,-3.58284 -2.12748,-4.10029 -0.96193,-0.51745 -1.14121,0.5752 -0.3984,2.4281 0.74281,1.85288 0.38977,4.62094 -0.78473,6.15121 -1.25967,1.64135 -1.3675,3.01451 -0.26293,3.34857 1.02981,0.31144 2.1749,3.62779 2.54467,7.36965 0.36979,3.74186 1.95989,8.70406 3.53366,11.02709 1.57376,2.32302 2.90433,5.49419 2.95682,7.04703 0.23504,6.95326 1.97179,11.66395 5.41161,14.67823 8.03659,7.04239 24.83214,18.54991 32.1667,22.03911 9.18416,4.3691 17.37165,10.5629 16.37718,12.38926 -0.93578,1.71858 9.81908,8.27846 13.57245,8.27846 1.60822,0 3.92215,1.88867 5.14207,4.19705 1.21991,2.30839 2.98375,4.19706 3.91963,4.19706 0.93589,0 3.17993,0.50612 4.98677,1.12471 1.90068,0.65071 2.75498,0.44857 2.02713,-0.47967 -0.6919,-0.88239 0.24683,-1.60437 2.08608,-1.60437 1.83925,0 2.95097,0.72198 2.4705,1.60437 -0.50252,0.9229 0.38543,1.13481 2.0905,0.49889 1.82448,-0.68044 2.60237,-0.44114 2.02326,0.62241 -0.51746,0.95033 -2.55161,1.26852 -4.52034,0.70705 -2.00072,-0.57066 -3.48455,-0.2306 -3.36454,0.77112 0.11808,0.98559 1.63877,1.81709 3.37931,1.84781 2.65484,0.0468 2.5421,0.58774 -0.69991,3.35765 l -3.86454,3.30179 8.86167,0 c 4.87391,0 9.54983,-0.69492 10.39094,-1.54427 0.93417,-0.94331 3.74079,-0.66971 7.21213,0.70306 3.66611,1.4498 4.56794,2.29572 2.54124,2.38368 -1.72787,0.075 -3.04499,0.94272 -2.92691,1.92831 0.30158,2.51719 6.1289,0.58765 18.91972,-6.26473 9.73221,-5.21378 11.1696,-5.5496 13.91563,-3.25105 2.44554,2.047 2.7539,3.39716 1.53092,6.70303 -2.83748,7.67009 -42.64299,22.84548 -59.92436,22.84548 -7.17582,0 -8.34966,1.18869 -5.158,5.22327 1.84095,2.32712 2.0829,3.9705 0.90021,6.1146 -2.19578,3.98082 -20.28109,10.90114 -40.42801,15.46974 -21.26569,4.8223 -64.75175,6.2509 -81.95544,2.6924 z m -2.23697,-16.88584 c 0.13902,-0.91071 -1.1959,-1.90993 -2.96649,-2.22049 -2.31596,-0.40623 -2.81434,0.19605 -1.77617,2.14649 1.51663,2.84933 4.31236,2.89296 4.74267,0.074 z m 21.35266,-2.51831 c 9.16238,-0.0203 10.32635,-0.41487 9.97104,-3.38057 -0.52527,-4.38434 1.12194,-4.23521 9.09845,0.8237 6.18688,3.9239 6.77655,4.00932 9.57659,1.38736 4.28902,-4.01623 26.65489,-4.83485 31.07231,-1.1373 1.76332,1.47599 3.70799,2.11252 4.32147,1.41449 0.61348,-0.698 0.06,-1.60636 -1.23004,-2.01858 -4.09127,-1.30733 -3.39022,-5.99892 0.75016,-5.02013 4.93141,1.16577 6.30119,-1.61971 1.47354,-2.9965 -2.07014,-0.59037 -3.8398,-1.70724 -3.93262,-2.48194 -0.0928,-0.77467 -1.64503,-1.03857 -3.44938,-0.58641 -2.24687,0.56305 -4.7245,-0.80902 -7.86267,-4.35423 -2.52011,-2.84698 -5.7162,-5.17633 -7.10244,-5.17633 -1.38625,0 -3.58533,-1.53209 -4.88689,-3.40466 -1.30156,-1.87256 -3.12783,-2.93452 -4.05838,-2.35988 -2.80201,1.7303 -10.40777,2.05544 -11.62965,0.49715 -0.62834,-0.80133 -2.67211,-0.64703 -4.54171,0.34289 -2.47377,1.30983 -4.16323,1.25994 -6.20532,-0.18328 -1.54334,-1.09073 -4.09186,-1.5036 -5.6634,-0.91748 -2.32112,0.86567 -2.50848,0.61393 -0.99835,-1.34154 1.44553,-1.87181 1.30947,-2.70282 -0.61184,-3.73631 -2.66323,-1.43262 -9.51156,-2.27752 -7.96456,-0.98261 0.51489,0.43097 -0.42546,2.65991 -2.08967,4.95316 -1.66421,2.29326 -2.44398,4.91162 -1.73283,5.81857 0.75562,0.96364 -0.29232,0.90408 -2.52142,-0.14338 -3.0954,-1.45444 -4.36908,-1.0959 -6.75688,1.90209 -1.61828,2.032 -1.82429,2.8601 -0.45773,1.84031 1.97491,-1.47375 3.52282,-0.77897 7.54489,3.38657 3.46342,3.58698 3.84029,4.35615 1.19429,2.43747 -3.6252,-2.62872 -4.10652,-2.60315 -7.72905,0.41071 -2.12471,1.7677 -4.52468,2.85811 -5.33325,2.42316 -0.80858,-0.43495 -2.79822,0.89117 -4.42143,2.94694 l -2.95129,3.73776 3.67703,-3.19814 c 4.36212,-3.79399 5.16128,-1.87707 1.26612,3.03702 -2.47713,3.12512 -2.46989,3.24572 0.0746,1.24316 2.47171,-1.94531 3.0325,-1.66687 4.56488,2.26652 1.38683,3.55978 2.51243,4.2873 5.45958,3.52874 2.0419,-0.52557 8.38055,-0.9659 14.08586,-0.9785 z m 24.91524,-17.96841 c 1.68627,-0.42226 4.52841,-0.42226 6.31586,0 1.78745,0.42228 0.40777,0.76778 -3.06595,0.76778 -3.47372,0 -4.93618,-0.3455 -3.24991,-0.76778 z m -53.94067,4.93461 c 2.81887,-4.38592 8.38066,-11.6407 12.35954,-16.12171 12.37798,-13.94007 12.82624,-14.5168 11.28332,-14.5168 -0.82708,0 -2.04464,0.56661 -2.70569,1.25912 -1.46629,1.53609 -9.90032,1.84657 -9.0768,0.33415 0.32278,-0.59279 -3.98592,-5.03401 -9.57489,-9.86939 -5.58898,-4.83538 -9.81382,-9.15591 -9.38854,-9.60119 0.42527,-0.44527 3.10038,1.27477 5.94469,3.82231 4.12461,3.69427 5.32158,4.11898 5.91302,2.09806 0.40786,-1.39359 -0.76654,-4.75056 -2.60977,-7.4599 -2.18869,-3.21713 -3.2339,-3.91372 -3.01283,-2.00794 0.23462,2.02313 -0.92148,2.79549 -3.76962,2.51824 -3.42604,-0.33352 -3.94083,0.32915 -3.10059,3.99126 0.89128,3.88463 0.3823,4.37406 -4.41246,4.24286 -2.98098,-0.0816 -6.31234,1.03219 -7.40302,2.47504 -1.09068,1.44286 -5.68249,3.94001 -10.20404,5.54923 -4.70536,1.67464 -8.09469,3.98001 -7.92565,5.3909 0.31914,2.66385 11.13963,7.33019 16.99752,7.33019 1.98194,0 4.65373,1.51094 5.93731,3.35764 1.28357,1.84671 3.52326,3.35765 4.97708,3.35765 3.73269,0 3.54077,2.1803 -0.40904,4.64686 -4.11905,2.57224 -3.56712,9.86562 1.0676,14.1077 1.84486,1.68858 3.4968,3.07013 3.67098,3.07013 0.17417,0 2.62302,-3.58848 5.44188,-7.97441 z m 132.30176,-19.83901 c 1.06715,-3.64634 -3.16188,-7.07541 -5.59024,-4.53282 -2.05242,2.14896 -0.0206,7.1639 2.90241,7.1639 1.05479,0 2.26431,-1.18399 2.68783,-2.63108 z m -19.86959,-5.22315 c -0.0514,-0.42884 -1.24727,-1.74554 -2.65755,-2.92601 -2.02269,-1.69307 -2.94849,-1.71164 -4.38434,-0.088 -1.26643,1.43217 -1.18215,2.59246 0.27701,3.81385 1.92614,1.61226 6.98223,1.0144 6.76486,-0.79994 z m -94.0626,-10.8571 c 2.99114,-3.58403 2.98696,-3.59201 -0.84087,-1.60694 -2.11581,1.09727 -3.81094,1.39606 -3.76695,0.664 0.044,-0.73205 -0.14869,-2.43723 -0.42822,-3.78929 -0.4226,-2.0442 -0.95764,-1.98769 -3.17642,0.33546 -2.20414,2.30783 -2.2102,3.24636 -0.0348,5.39621 3.47626,3.43546 4.66638,3.29123 8.24727,-0.99944 z m 69.30661,-8.74054 c 1.32188,-3.49556 0.90392,-4.11734 -3.84285,-5.71694 -4.1554,-1.40031 -5.26829,-1.31284 -5.06332,0.398 0.14449,1.20603 1.62072,2.65771 3.2805,3.22595 1.72303,0.58989 2.70337,2.10755 2.28496,3.53727 -1.19536,4.08439 1.72793,2.82059 3.34071,-1.44428 z m -93.94247,-10.8739 c 0.27237,-1.68878 -0.83792,-4.52179 -2.46731,-6.29558 -2.73369,-2.97599 -2.81616,-2.83607 -1.06766,1.81138 l 1.89486,5.03647 -4.60874,-3.35765 -4.60875,-3.35764 4.03194,4.56401 c 4.77572,5.40594 6.1594,5.73009 6.82566,1.59901 z m -79.52925,-6.48208 c -3.14303,-4.474 -3.29397,-4.51884 -2.92524,-0.8692 0.21383,2.11651 1.52686,4.87508 2.91784,6.13017 3.78234,3.41283 3.78699,0.1192 0.007,-5.26097 z m 58.50319,-11.013 c -1.18091,-2.4912 -19.87572,-3.91036 -19.58536,-1.48674 0.28058,2.34195 3.82365,3.30184 12.74461,3.45273 5.50668,0.0932 7.53986,-0.49117 6.84075,-1.96599 z m 74.15152,-8.2597 c -1.02729,-1.31012 -0.52461,-1.61646 1.50965,-0.92 2.61503,0.89527 2.69463,0.46151 0.55845,-3.043 -2.29855,-3.77088 -2.64096,-3.86243 -4.42572,-1.18328 -1.35651,2.03629 -1.2986,3.53219 0.19384,5.00712 2.68574,2.6542 4.21289,2.75241 2.16378,0.13917 z m 13.92112,-155.24608 c 1.21986,-4.16812 -0.74332,-4.73725 -2.5625,-0.7429 -0.87765,1.927 -0.84158,3.50142 0.0802,3.50142 0.92122,0 2.03825,-1.24133 2.48228,-2.75852 z M 241.48264,96.785054 c -0.83354,-1.566018 -3.35318,-2.500215 -6.37063,-2.362013 -4.39491,0.201292 -4.48247,0.317217 -0.73238,0.969627 2.34262,0.407551 4.84864,1.848193 5.56894,3.201424 0.72028,1.353232 1.67039,2.082688 2.11132,1.621008 0.44093,-0.461673 0.18118,-2.005194 -0.57732,-3.430046 z M 132.87931,166.40962 c -1.83999,-1.67861 -4.07667,-4.63833 -4.97039,-6.57717 -0.89372,-1.93884 -3.25559,-4.29136 -5.24859,-5.22781 -1.993,-0.93646 -3.32442,-2.72505 -2.95871,-3.97465 0.39032,-1.33369 -0.91237,-2.64486 -3.15436,-3.17486 -2.10061,-0.49658 -3.92112,-1.75278 -4.04557,-2.79156 -0.33726,-2.81503 5.4255,-4.45684 6.65045,-1.89471 0.571,1.19431 2.66389,3.35367 4.65087,4.79856 1.98697,1.44489 3.21229,3.36239 2.72293,4.26111 -0.48936,0.89872 0.47642,2.49338 2.14617,3.54367 1.66975,1.0503 3.54056,3.7687 4.15735,6.0409 0.80725,2.97382 2.20404,4.09903 4.98556,4.01619 2.48942,-0.0741 3.63365,0.67244 3.21628,2.09853 -0.87953,3.00529 -4.11917,2.56091 -8.15199,-1.1182 z"
       id="path6545"
       inkscape:connector-curvature="0" />
    <path
       style="fill:#aa8578"
       d="m 220.27756,425.78579 c -15.78022,-3.25921 -20.91106,-5.5545 -41.31454,-18.48207 -9.4818,-6.00763 -19.11078,-10.92125 -21.40189,-10.92125 -5.42469,0 -29.83312,-10.85012 -35.97656,-15.99243 -3.37423,-2.82438 -4.99606,-5.87448 -5.51547,-10.37272 -0.54642,-4.73218 -0.20797,-5.72386 1.31521,-3.85365 1.70682,2.09567 2.01201,1.95482 1.8188,-0.83941 -0.1277,-1.84671 0.29054,-2.41331 0.92942,-1.25912 0.63888,1.15419 2.39887,2.09853 3.91108,2.09853 1.94443,0 2.23991,-0.86023 1.00914,-2.93794 -3.11786,-5.26338 -6.66479,-23.86651 -4.22119,-22.13954 1.20222,0.84967 2.56,1.15308 3.01729,0.6743 0.45728,-0.4788 3.33533,1.79416 6.39566,5.05102 3.06034,3.25687 6.80182,5.92158 8.31441,5.92158 2.19131,0 1.66453,-1.44988 -2.59233,-7.135 -2.93838,-3.92425 -8.00881,-11.20587 -11.26762,-16.1814 -5.14497,-7.85529 -5.68737,-9.56839 -4.11949,-13.01087 1.21549,-2.66874 3.40311,-3.96447 6.69334,-3.96447 6.4597,0 9.55248,-3.79992 5.45166,-6.69812 -5.12854,-3.62451 -4.50672,-17.23476 0.66043,-14.45523 1.12624,0.60583 2.71112,-0.35506 3.52194,-2.13533 1.12467,-2.46936 0.81314,-3.46318 -1.31388,-4.19138 -1.53346,-0.525 -2.96876,-2.67806 -3.18958,-4.7846 -0.3516,-3.35423 -0.0887,-3.49859 2.11645,-1.16198 3.16805,3.35694 12.74909,5.22428 12.41304,2.4193 -0.1319,-1.10095 -2.39101,-3.01252 -5.02025,-4.24794 -2.62924,-1.23541 -4.85565,-2.87401 -4.94758,-3.64133 -0.0919,-0.76732 -1.3852,-1.39513 -2.87394,-1.39513 -1.48874,0 -2.80265,-0.80006 -2.9198,-1.77791 -0.11715,-0.97785 -0.97798,-1.3055 -1.91296,-0.72814 -0.94466,0.58334 -2.46566,-1.23741 -3.42332,-4.09797 -0.94786,-2.83127 -2.6383,-5.15931 -3.75655,-5.17344 -1.45839,-0.0185 -1.48569,-0.37458 -0.0966,-1.25976 1.69852,-1.08232 1.36841,-5.76199 -1.27122,-18.021 -0.60398,-2.80505 -0.9612,-2.9432 -2.17053,-0.83941 -0.79616,1.38503 -1.56206,1.6664 -1.70199,0.62526 -0.13993,-1.04112 0.85097,-2.83343 2.20199,-3.98291 2.08596,-1.77477 2.54771,-1.36268 3.06178,2.73239 0.93402,7.44017 3.46879,9.77679 8.00209,7.37647 2.40144,-1.27154 7.02107,-1.57827 12.80041,-0.84995 l 9.04288,1.1396 -2.65755,-4.35983 c -1.46166,-2.39793 -3.98889,-4.35986 -5.61606,-4.35986 -1.62718,0 -3.9916,-0.86474 -5.25428,-1.92164 -1.72392,-1.443 -2.45709,-0.84599 -2.94341,2.39675 -0.79215,5.28198 -4.78689,7.05728 -8.63406,3.83705 -3.47475,-2.90851 -3.96459,-5.48325 -1.21184,-6.36985 3.78248,-1.21826 -0.86146,-4.43342 -5.29977,-3.66922 -4.58977,0.79027 -5.50138,-0.304 -3.38819,-4.06708 0.99982,-1.78043 1.56813,-1.65569 2.77345,0.60879 1.2317,2.31402 1.97293,2.45927 3.95299,0.77461 3.45294,-2.93783 2.76048,-4.80411 -2.2006,-5.93099 -6.58904,-1.49667 -12.32442,-14.93572 -15.29194,-35.8318 -1.73859,-12.24242 -3.19178,-17.62857 -5.02183,-18.61299 -1.41639,-0.76192 -2.221296,-2.59475 -1.788674,-4.07297 0.432621,-1.47822 3.1e-5,-2.68767 -0.961313,-2.68767 -0.961342,0 -1.893472,-1.2151 -2.071399,-2.70023 -0.252162,-2.10476 0.801179,-2.4471 4.776476,-1.55239 11.07576,2.4928 30.09816,9.98299 39.86574,15.69737 l 10.28461,6.01687 5.88806,-3.13842 c 6.13439,-3.26972 6.77811,-5.12011 10.15466,-29.18988 1.13513,-8.09181 0.92637,-9.20145 -2.08784,-11.09743 -1.84199,-1.15864 -3.6053,-4.24527 -3.91846,-6.85917 -0.5308,-4.43047 -0.71109,-4.53985 -2.66023,-1.61393 -2.00709,3.0129 -2.30647,2.95814 -7.47369,-1.36704 l -5.38285,-4.50566 4.52242,-1.67043 c 3.77697,-1.39509 5.63062,-0.94566 11.24563,2.72658 3.69777,2.41835 6.66722,3.9296 6.59878,3.35833 -0.0684,-0.57127 -0.3534,-1.25528 -0.63325,-1.52004 -0.27984,-0.26476 1.81311,-3.09777 4.651,-6.29559 2.83789,-3.19781 5.10781,-6.27946 5.04428,-6.8481 -0.0635,-0.56864 -12.51954,-4.59345 -27.68002,-8.94403 -47.3501,-13.587976 -62.826005,-18.562094 -63.747278,-20.489045 -0.62845,-1.314477 6.714607,-1.793499 24.929618,-1.626272 20.71,0.190134 27.40947,0.849652 33.84884,3.332201 4.4156,1.702333 7.76656,3.581684 7.44658,4.176338 -0.31999,0.594653 2.34505,1.143989 5.9223,1.220744 3.57725,0.07676 6.9278,1.025801 7.44567,2.108988 0.51787,1.083188 1.68217,1.512108 2.58733,0.953158 2.35284,-1.452924 14.56048,0.879268 13.6222,2.602437 -0.43047,0.790587 1.00086,1.064617 3.18074,0.608954 2.86024,-0.597879 3.33947,-0.381333 1.72173,0.777983 -1.64725,1.180461 -0.36188,1.923739 4.84713,2.802917 3.89886,0.658047 9.82356,2.335147 13.166,3.726877 3.34244,1.39173 6.9881,1.9679 8.10147,1.28038 1.23834,-0.7647 1.63907,-0.54256 1.0321,0.57217 -0.54571,1.00221 -0.11007,2.29673 0.96809,2.8767 1.07816,0.57997 1.8591,0.20986 1.73542,-0.82248 -0.12368,-1.03234 0.42526,-1.53396 1.21985,-1.1147 0.7946,0.41925 2.28072,-0.19574 3.3025,-1.36665 1.46841,-1.6827 -0.77526,-3.04661 -10.70452,-6.507233 -12.35634,-4.306531 -18.77209,-6.226775 -51.35393,-15.37033 -17.2013,-4.827262 -18.87964,-5.740502 -17.73535,-9.650407 0.61013,-2.084764 2.34042,-2.048119 12.66382,0.268205 6.57642,1.475592 12.05724,3.496389 12.17959,4.490662 0.12605,1.02498 2.37794,1.508554 5.20032,1.116764 5.28503,-0.733644 25.37332,3.884398 27.23724,6.261489 0.60856,0.77611 2.80571,0.985293 4.88256,0.464851 2.81255,-0.704805 3.47004,-0.384212 2.57669,1.256413 -0.83226,1.528492 -0.54812,1.800523 0.92832,0.888782 1.17025,-0.722638 2.72979,-0.614098 3.46565,0.241198 0.73587,0.855298 4.19283,3.276262 7.68214,5.379924 3.7787,2.278141 5.9261,4.621537 5.31033,5.794995 -0.5686,1.083587 0.27211,0.885527 1.86812,-0.440128 3.11974,-2.591172 3.40415,-2.418126 9.31672,5.668795 2.27121,3.10643 2.55543,3.02807 6.08977,-1.67883 2.03905,-2.71553 5.53738,-6.876472 7.77406,-9.246537 l 4.06668,-4.309208 -17.33772,-4.496548 C 225.43318,82.803405 212.22166,79.683996 205.60999,78.344489 146.0971,66.287344 138.37538,64.114799 154.72118,64.02666 c 5.20721,-0.02808 9.54648,0.606805 9.64281,1.410851 0.0963,0.804045 6.12444,1.979518 13.3958,2.612162 23.02955,2.003683 76.69106,15.480823 76.28099,19.158045 -0.11962,1.072627 2.0311,2.079454 4.77938,2.237392 2.74827,0.157944 6.23507,0.455369 7.74844,0.660955 1.51336,0.205585 5.09918,0.454096 7.96851,0.552248 l 5.21691,0.178457 -0.018,9.95891 -0.0179,9.95891 9.727,-0.94485 c 16.20124,-1.57374 22.82354,1.47119 31.76052,14.60348 2.19931,3.23173 5.92881,7.57569 8.28779,9.65323 2.35897,2.07754 3.51877,3.77735 2.57729,3.77735 -0.94146,0 -6.06713,-5.26051 -11.39036,-11.69001 -11.05574,-13.35332 -14.05516,-15.18008 -24.87243,-15.14822 -14.19347,0.0418 -15.29568,0.86613 -15.32193,11.45925 -0.0568,22.92448 -0.23884,23.96704 -4.51933,25.87857 -2.26835,1.01298 -3.86138,3.03119 -3.54006,4.48491 1.1374,5.146 0.60958,6.74816 -3.53768,10.7382 -4.18702,4.02831 -5.12777,12.6011 -3.25678,29.67845 0.8322,7.59539 11.16027,24.37445 18.76403,30.48404 3.26597,2.62417 5.28762,4.77123 4.49258,4.77123 -3.45326,0 -14.30992,-10.92835 -18.02955,-18.1486 -2.2308,-4.33023 -4.94383,-8.62862 -6.02897,-9.55197 -1.29946,-1.1057 -1.48097,-0.68991 -0.5317,1.21798 0.79273,1.59324 0.51416,5.712 -0.61885,9.15281 -1.69027,5.13284 -1.54136,7.43013 0.82942,12.79575 1.58927,3.59686 2.47879,6.96983 1.97674,7.49551 -0.50206,0.52567 -1.05834,-0.25876 -1.23618,-1.74319 -0.17784,-1.48442 -1.1814,-3.16052 -2.2301,-3.72464 -1.0703,-0.57573 -1.33078,0.0564 -0.59383,1.44094 0.72212,1.35663 0.32265,4.60662 -0.88768,7.22219 -1.21033,2.61555 -2.38132,3.62236 -2.6022,2.23733 -0.35696,-2.23842 -0.56553,-2.23842 -1.87726,0 -3.66192,6.24907 -3.67904,14.58069 -0.0449,21.86284 1.97645,3.96049 3.30852,7.49935 2.96014,7.86414 -0.34839,0.36477 -1.77327,-1.64175 -3.1664,-4.45894 -1.39313,-2.81719 -2.95575,-5.12217 -3.47248,-5.12217 -0.51671,0 -0.36773,1.07418 0.3311,2.38705 0.69881,1.31288 0.51175,4.0531 -0.41567,6.08938 -0.92743,2.03629 -0.937,4.17286 -0.0213,4.74794 0.91575,0.5751 2.34391,5.14722 3.17372,10.1603 0.8298,5.01307 2.22962,9.54589 3.1107,10.07294 0.88108,0.52703 2.10258,4.17325 2.71447,8.1027 1.38563,8.89842 3.56642,11.39983 19.87168,22.79302 7.19247,5.02569 12.58223,9.72136 11.97725,10.43481 -0.60499,0.71347 -0.33876,0.87028 0.59162,0.34852 0.93037,-0.52176 4.59435,0.37174 8.14215,1.98556 6.46438,2.94051 6.37441,3.55697 -0.87276,5.9795 -0.47714,0.15949 -2.063,0.81404 -3.52412,1.45456 -1.56577,0.68637 -7.31493,-0.91546 -14.00135,-3.90108 -10.88518,-4.86044 -20.76934,-7.30685 -13.85553,-3.42936 2.57935,1.44659 2.60169,1.63313 0.20113,1.67882 -2.36697,0.045 -2.34892,0.24472 0.14596,1.61592 1.87739,1.0318 3.23223,0.88016 3.97918,-0.44543 0.68892,-1.22255 1.34504,-0.32705 1.67492,2.28599 0.2975,2.36274 1.91022,5.76236 3.58213,7.5547 1.67189,1.79235 3.21794,4.52999 3.43565,6.08362 0.21771,1.55365 2.07734,3.30436 4.13255,3.89048 2.0552,0.58613 3.79951,1.58137 3.87623,2.21167 0.3414,2.80445 9.57028,9.63122 12.28388,9.08658 1.98186,-0.3978 5.58685,2.29147 10.58946,7.89961 l 7.58468,8.50272 10.50753,0 c 6.40171,0 10.69005,-0.76535 10.97463,-1.95864 0.26745,-1.12142 4.0881,-1.95861 8.93839,-1.95861 4.65919,0 8.42307,-0.44069 8.36415,-0.97932 -0.0591,-0.53862 3.10246,-1.09154 7.02528,-1.2287 6.75833,-0.23633 20.56282,-5.46877 25.92605,-9.82699 3.44068,-2.79593 8.9269,-4.54927 7.80863,-2.49557 -0.49701,0.91278 0.36232,1.6596 1.90963,1.6596 3.38835,0 4.05441,3.36891 1.41515,7.15756 -4.49956,6.45909 -37.18186,18.94528 -54.29926,20.74491 -5.66738,0.59583 -11.40921,2.0282 -12.75959,3.18306 -3.34927,2.86429 -16.90724,9.49923 -17.0459,8.34185 -0.0614,-0.51293 -1.70432,-0.0893 -3.65084,0.94132 -1.9465,1.03065 -3.12066,2.22415 -2.60923,2.65224 1.48477,1.24283 23.78294,-7.95421 23.57114,-9.7221 -0.10539,-0.87965 0.67636,-1.13246 1.73723,-0.5618 3.39454,1.82601 2.78464,7.09125 -1.10883,9.57246 -6.58489,4.19639 -22.23748,9.55573 -38.56869,13.20567 -20.94431,4.68096 -62.83009,5.95384 -79.90064,2.42813 z m 44.29637,-5.8998 c -0.12453,-1.03939 -7.91819,-1.55242 -20.46234,-1.34697 l -20.26121,0.33187 19.97145,1.0151 c 10.9843,0.55831 20.19235,1.16445 20.46234,1.34697 0.26999,0.18252 0.40038,-0.42362 0.28976,-1.34697 z m -52.9571,-3.96756 c -3.6836,-2.72335 -18.97949,-9.05272 -18.82834,-7.79105 0.2222,1.85465 13.27799,8.21656 17.08799,8.32676 1.41092,0.0408 2.19408,-0.20025 1.74035,-0.53571 z m 52.74544,-2.13676 c -0.71001,-2.21589 23.76993,-4.8439 29.60908,-3.17865 5.35138,1.52616 17.96212,-2.09196 17.60752,-5.05172 -0.16167,-1.34944 0.56602,-2.45354 1.61709,-2.45354 1.05107,0 1.49967,0.75547 0.99689,1.67883 -1.35856,2.49503 3.20085,1.92275 8.00009,-1.00412 l 4.20415,-2.56395 -4.21822,0.85069 c -2.43069,0.4902 -3.60932,0.22663 -2.78131,-0.622 0.7903,-0.81 4.23911,-1.80593 7.66404,-2.21319 3.42493,-0.40727 1.75447,-0.54398 -3.71214,-0.30382 -11.18284,0.49129 -13.63098,-0.4484 -36.66188,-14.07223 -8.38302,-4.95894 -14.58484,-8.17835 -13.78181,-7.15422 0.91041,1.16106 0.40541,1.50097 -1.34142,0.90293 -1.54083,-0.52752 -2.49328,-2.01226 -2.11658,-3.29939 0.64646,-2.20888 -2.16285,-3.76564 -11.85453,-6.56912 -2.25063,-0.65103 -2.98546,-1.5215 -1.88683,-2.2351 1.14821,-0.74582 -0.005,-2.68771 -3.18626,-5.36587 -2.74213,-2.30838 -4.32413,-3.26833 -3.51555,-2.13323 2.00246,2.81111 -0.97905,8.84852 -4.36975,8.84852 -1.51239,0 -2.1642,0.74683 -1.44849,1.6596 0.78176,0.99697 -0.0512,1.20662 -2.08625,0.52507 -3.09142,-1.03531 -3.11686,-0.85017 -0.29114,2.11777 2.87267,3.01723 2.84561,3.08386 -0.37452,0.92204 -3.01098,-2.02142 -3.93552,-1.91018 -6.97661,0.83941 -1.92811,1.74329 -2.95536,2.09692 -2.28277,0.78581 0.94003,-1.83245 0.45525,-2.12292 -2.09593,-1.25581 -2.74418,0.93268 -2.66851,0.56064 0.43699,-2.14878 2.06569,-1.80221 4.84891,-2.90253 6.18494,-2.44512 1.33602,0.4574 3.41177,-0.52481 4.61278,-2.1827 1.97659,-2.72854 1.91852,-2.8028 -0.61251,-0.78321 -2.10172,1.67705 -3.65903,1.77089 -6.27059,0.37791 -3.29468,-1.75735 -3.29454,-1.82935 0.003,-1.39173 1.91243,0.25384 3.69046,-0.6717 3.95117,-2.05673 0.28208,-1.49848 -0.0483,-1.83841 -0.81563,-0.83941 -0.7093,0.92335 -3.49669,1.89628 -6.1942,2.16207 -5.49934,0.54186 -6.7111,-2.02875 -3.00472,-6.37415 2.13733,-2.50581 1.99984,-3.09315 -1.31811,-5.6307 -3.30631,-2.52866 -3.91684,-2.55794 -5.68181,-0.27251 -2.18243,2.82601 -6.84065,3.46608 -7.13839,0.98085 -0.1041,-0.86886 0.56406,-2.04494 1.4848,-2.6135 1.04135,-0.64306 0.27459,-3.05993 -2.02875,-6.39467 -2.96853,-4.29784 -3.76884,-4.75386 -4.03579,-2.29969 -0.21293,1.95746 -1.37734,2.70366 -3.22948,2.06955 -1.59307,-0.5454 -4.0528,-0.0342 -5.46607,1.13586 -2.07924,1.7215 -2.35376,1.71749 -1.43861,-0.0211 0.70198,-1.33357 -1.24289,-4.38054 -5.12731,-8.03282 -3.44205,-3.23626 -6.3864,-6.95356 -6.54299,-8.26059 -0.15659,-1.30701 -1.37213,-2.98053 -2.70121,-3.71893 -1.32908,-0.7384 -2.61085,-2.28687 -2.84838,-3.44106 -0.23752,-1.1542 -0.73761,-3.63382 -1.11129,-5.51027 -0.77843,-3.90887 -8.1734,-7.07076 -11.03661,-4.71897 -1.1567,0.9501 -2.21002,0.95196 -2.70619,0.005 -1.23032,-2.34876 -16.48254,-4.31882 -16.2161,-2.09484 0.12035,1.00453 1.08886,1.82639 2.15224,1.82639 1.06338,0 0.85113,1.13321 -0.47167,2.51824 -1.43638,1.50394 -5.72773,2.51823 -10.65438,2.51823 -5.84808,0 -8.16773,0.68073 -7.9691,2.33862 0.1541,1.28625 1.61959,2.79719 3.25665,3.35764 4.18959,1.43436 14.89153,1.26985 15.61829,-0.24008 0.33332,-0.69252 0.47173,-0.31478 0.30758,0.83941 -0.20048,1.40959 2.20731,2.15346 7.3342,2.26587 6.50249,0.14257 6.98852,0.36637 3.28238,1.51148 -2.81253,0.86901 -3.24436,1.40329 -1.22164,1.51147 3.85866,0.2064 23.76483,8.42758 25.37353,10.4792 0.64461,0.82207 1.83793,1.08346 2.65183,0.58085 0.8139,-0.50258 2.5897,0.683 3.94622,2.63465 1.35652,1.95165 2.21278,3.67516 1.9028,3.83005 -0.30999,0.15478 -2.9665,1.97884 -5.90339,4.05326 -6.44845,4.55476 -23.29396,5.35279 -27.39703,1.29787 -1.37675,-1.36059 -5.32866,-2.95685 -8.78202,-3.54722 -3.45336,-0.59038 -8.3596,-2.47339 -10.90276,-4.18447 l -4.62392,-3.11104 2.50124,7.91739 c 1.65723,5.24577 4.16431,9.07166 7.4298,11.33808 2.71071,1.88141 5.0383,4.33669 5.17242,5.45618 0.13412,1.1195 1.45574,2.03547 2.93693,2.03547 2.69084,0 10.42409,4.94734 16.4012,10.49264 1.74169,1.61587 4.05786,2.93794 5.14704,2.93794 2.70295,0 10.79038,7.85504 11.14632,10.82604 0.51364,4.28722 -3.54348,5.01948 -6.71678,1.21228 -1.67059,-2.00432 -4.61039,-3.64421 -6.53289,-3.64421 -1.9225,0 -3.08881,-0.74682 -2.5918,-1.6596 0.53563,-0.98369 -0.29577,-1.21224 -2.04141,-0.56121 -2.49212,0.92946 -1.86175,1.9364 4.09875,6.54729 4.57916,3.54233 6.49638,6.02209 5.4793,7.08703 -1.01709,1.06493 -0.81408,2.04178 0.58017,2.79178 1.2046,0.64799 1.81416,0.20895 1.39063,-1.00162 -0.41791,-1.1945 1.02117,-2.26958 3.22825,-2.41169 2.19026,-0.14102 3.62762,0.39497 3.19413,1.1911 -0.4335,0.79614 0.42309,1.4475 1.90352,1.4475 1.48043,0 3.38817,1.51094 4.23942,3.35765 0.85126,1.8467 2.1277,3.35764 2.83653,3.35764 0.70883,0 4.66086,-3.83507 8.78229,-8.52236 4.12142,-4.6873 7.59626,-7.66459 7.72186,-6.61622 0.12605,1.05212 1.12924,1.34986 2.23904,0.66453 1.10586,-0.68289 0.47421,1.13836 -1.40367,4.04722 -1.87789,2.90885 -4.13524,5.73399 -5.01634,6.27809 -0.88109,0.54409 -1.43807,2.35742 -1.23773,4.02965 0.60139,5.01968 17.41363,8.20553 41.54512,7.87262 9.68334,-0.13364 14.21191,-0.82464 13.80133,-2.10609 z m -26.24824,-0.11694 c 2.18516,-0.40017 5.83934,-0.40017 8.12038,0 2.28105,0.40014 0.49319,0.72755 -3.97302,0.72755 -4.46622,0 -6.33253,-0.32741 -4.14736,-0.72755 z m -21.25678,-23.85127 c -2.21579,-2.82583 0.0737,-5.87937 2.73688,-3.6502 1.57012,1.31425 1.69253,2.33595 0.43732,3.6502 -1.25521,1.31427 -2.14367,1.31427 -3.1742,0 z m -5.07649,9.50695 3.39869,-5.45617 -4.34415,4.06999 c -2.38928,2.23851 -4.26942,4.69378 -4.17808,5.45617 0.30429,2.53987 1.69372,1.43615 5.12354,-4.06999 z m -42.39719,-6.24763 c -4.87605,-3.66447 -11.22674,-7.53243 -14.11263,-8.59546 -2.8859,-1.06303 -5.32662,-2.5966 -5.42382,-3.40792 -0.0972,-0.81133 -1.2038,-1.47515 -2.45912,-1.47515 -2.03349,0 -16.05959,-5.95843 -18.45442,-7.83962 -0.51607,-0.40538 0.0147,-1.32554 1.17942,-2.0448 1.3025,-0.80431 0.037,-1.30774 -3.28748,-1.30774 -2.97287,0 -4.93265,0.60268 -4.35507,1.33928 0.57758,0.73659 9.86233,5.67004 20.63278,10.9632 10.77045,5.29318 22.66048,11.74155 26.42229,14.32974 10.14105,6.97722 10.04839,5.69678 -0.14196,-1.96153 z m 187.78777,-6.08305 c 13.81505,-2.7207 26.3942,-6.96926 24.73834,-8.35528 -0.50141,-0.41971 -3.54994,0.28473 -6.7745,1.5654 -3.22455,1.28067 -13.01374,3.64249 -21.75376,5.2485 -8.74002,1.606 -16.19428,3.21225 -16.56503,3.56942 -1.4584,1.40504 7.40866,0.52157 20.35495,-2.02804 z M 203.7347,335.88736 c 0.71415,-2.80167 0.61912,-4.67446 -0.21116,-4.16173 -0.83029,0.51271 -2.39815,-0.29959 -3.48414,-1.8051 -1.78047,-2.46829 -2.05069,-2.47704 -2.74957,-0.0891 -0.42627,1.45651 0.055,3.09474 1.06956,3.64048 1.01454,0.54583 1.9398,1.78692 2.05615,2.75807 0.11635,0.97115 -1.5992,-0.0178 -3.81231,-2.19762 -4.7768,-4.70495 -5.1543,-2.14478 -0.47447,3.21782 4.36831,5.00563 6.0599,4.70253 7.60594,-1.36277 z m 84.09781,-2.04103 c 0.57567,-1.15419 0.43718,-1.52583 -0.30774,-0.82588 -0.74493,0.69996 -2.96119,-0.67517 -4.92506,-3.05584 -2.84822,-3.45277 -3.72384,-3.80498 -4.32792,-1.74094 -0.74763,2.55457 3.89956,7.72119 6.94492,7.72119 0.86304,0 2.04014,-0.94434 2.6158,-2.09853 z m -16.08425,-4.69868 c -1.60137,-0.94014 -4.48845,-2.4967 -6.41572,-3.45902 -3.12034,-1.55803 -3.23885,-1.368 -1.08205,1.73505 1.34467,1.93457 4.19864,3.47328 6.41572,3.45901 3.28153,-0.0212 3.47448,-0.33049 1.08205,-1.73504 z m -80.37762,-8.28691 c -1.30823,-1.88218 -1.33564,-3.60643 -0.0797,-5.01441 1.51182,-1.69487 1.37162,-1.92557 -0.6671,-1.09768 -1.41967,0.57649 -3.82321,1.48365 -5.3412,2.01587 -2.51744,0.88264 -2.44917,1.47971 0.77687,6.79443 3.1527,5.19387 3.74149,5.51955 5.4209,2.99852 1.23351,-1.85164 1.1956,-3.81868 -0.10977,-5.69673 z m 78.45339,-0.92689 c -1.16631,-4.90465 -3.71575,-7.73796 -3.21703,-3.57526 0.18437,1.53893 -0.50539,2.79805 -1.5328,2.79805 -1.25792,0 -1.09512,1.11198 0.49849,3.40467 3.05044,4.38871 5.55217,2.84258 4.2514,-2.62746 z m -9.63281,-9.05517 c -0.54587,-2.70618 -1.72023,-4.47092 -2.60968,-3.92166 -0.96082,0.59333 -1.2467,-0.26737 -0.70434,-2.12055 0.8625,-2.94713 0.74532,-2.96232 -2.12411,-0.2754 -1.67032,1.56409 -4.0299,2.84381 -5.2435,2.84381 -1.2136,0 0.21003,1.88867 3.16408,4.19706 6.99087,5.46324 8.73164,5.29576 7.51755,-0.72326 z m -9.47963,1.45097 c -0.77217,-0.98478 -1.80649,-1.36907 -2.29844,-0.85398 -0.49195,0.5151 -1.86575,0.2501 -3.0529,-0.5889 -1.33955,-0.9467 -3.37726,-0.62272 -5.37107,0.85397 -2.95761,2.19055 -2.60384,2.37943 4.45688,2.37943 4.97245,0 7.1758,-0.62966 6.26553,-1.79052 z m -2.30152,-12.29875 c -0.14097,-1.17663 -1.46148,-2.13935 -2.93445,-2.13935 -1.84719,0 -2.05865,0.61223 -0.68152,1.9732 1.09814,1.08524 1.4687,2.5914 0.82346,3.34698 -0.64522,0.75561 -0.2232,0.83038 0.93784,0.16621 1.16104,-0.66421 1.99564,-2.17037 1.85467,-3.347 z m -77.12388,-10.67336 c -0.90185,-7.18654 -1.58057,-8.92508 -2.65616,-6.80365 -1.27069,2.50621 1.43852,16.45688 3.19591,16.45688 0.3694,0 0.12651,-4.34396 -0.53975,-9.65323 z m 8.074,7.10605 c 0.85005,0.45726 2.4952,-0.48238 3.6559,-2.08807 1.94854,-2.69558 1.86801,-2.72636 -1.05021,-0.40122 -3.01525,2.40244 -3.13561,2.25048 -2.61781,-3.30518 0.3183,-3.41505 -0.0383,-5.15082 -0.86212,-4.19706 -0.77269,0.89449 -1.54657,4.27051 -1.71972,7.50224 -0.17315,3.23173 -0.008,4.92684 0.36679,3.76689 0.37489,-1.15995 1.37711,-1.73486 2.22716,-1.2776 z m -14.09827,-12.66131 c -0.32534,-2.71556 -1.32755,-4.93738 -2.22712,-4.93738 -0.89958,0 -1.03151,1.6998 -0.29318,3.77735 0.77541,2.18188 0.61614,3.03855 -0.37708,2.02822 -0.94572,-0.96204 -4.10093,-1.29273 -7.01157,-0.73489 l -5.29208,1.01426 6.01903,1.28797 c 3.31047,0.70838 6.10769,2.02801 6.21606,2.93249 0.10836,0.90448 0.95312,1.17761 1.87724,0.60694 0.92412,-0.57066 1.41404,-3.2594 1.0887,-5.97496 z m 20.90139,0.46586 c -0.58956,-0.49349 -0.25675,-1.95283 0.7396,-3.24299 1.53117,-1.9827 1.12517,-2.03923 -2.6234,-0.36522 -4.56824,2.04003 -4.16105,7.1597 0.43317,5.44626 1.38741,-0.51744 2.04019,-1.34456 1.45063,-1.83805 z m -15.50652,-15.68422 c -0.18173,-1.5169 -2.00184,-3.15311 -4.04468,-3.63604 -3.17876,-0.75146 -3.61523,-0.0515 -3.02742,4.85488 0.63649,5.31269 0.93299,5.57923 4.04469,3.63606 1.84681,-1.15328 3.20915,-3.33798 3.02741,-4.8549 z m -9.37686,-2.95652 c -0.29684,-2.47771 -9.43061,-6.90837 -14.24152,-6.90837 -9.1014,0 0.9157,8.01746 10.34572,8.28049 2.24058,0.0624 3.9937,-0.55497 3.8958,-1.37212 z m -29.62674,-2.53009 c -4.63246,-3.01636 -4.7118,-5.94745 -0.13169,-4.86472 4.47053,1.05683 4.57608,-0.0477 0.34319,-3.5907 -5.03029,-4.21056 -6.56027,-3.1159 -5.6985,4.07714 0.70213,5.8606 1.32047,6.70849 4.85833,6.6619 3.75385,-0.0494 3.80036,-0.21842 0.62867,-2.28362 z m 13.68642,-40.05326 c -0.0767,-0.69252 -1.3575,-1.25912 -2.84624,-1.25912 -1.48873,0 -2.61912,0.73176 -2.51197,1.62613 0.10715,0.89438 -0.98969,1.22061 -2.43741,0.72496 -2.97301,-1.01784 -5.23193,1.8605 -3.34685,4.26458 1.31262,1.67402 11.38483,-3.16804 11.14247,-5.35655 z m -20.36841,-4.42368 c -0.0979,-0.81716 -2.35636,-2.72325 -5.01879,-4.23576 -4.59395,-2.60979 -4.82076,-2.58278 -4.44788,0.52956 0.24755,2.06627 1.92727,3.54875 4.54027,4.00714 2.28104,0.40015 4.36269,0.83043 4.62588,0.95617 0.26319,0.12575 0.39842,-0.43996 0.30052,-1.25711 z m 14.3137,-11.00025 c -0.7527,-1.41413 -0.0512,-2.68605 1.69449,-3.0725 2.36522,-0.52359 2.00442,-1.03591 -1.75135,-2.48683 -2.60164,-1.00507 -6.2011,-2.24288 -7.9988,-2.75069 -1.7977,-0.50782 -3.45241,-2.45796 -3.67712,-4.33364 -0.30173,-2.51848 -1.58837,-3.41034 -4.91991,-3.41034 -4.2573,0 -4.44384,0.49629 -3.31292,8.81382 0.65913,4.8476 1.47412,7.95642 1.8111,6.9085 0.45051,-1.401 2.92903,-1.32964 9.36362,0.26958 4.81302,1.19621 9.04892,2.24247 9.41312,2.32504 0.3642,0.0826 0.0842,-0.93576 -0.62223,-2.26294 z m 131.36678,-53.30897 c -0.0895,-0.74687 -0.97473,-1.35795 -1.96723,-1.35795 -0.99249,0 -1.72142,0.69369 -1.61984,1.54152 0.10157,0.84783 -0.12184,2.92538 -0.49648,4.61676 -0.62328,2.81408 -0.47191,2.79849 1.78254,-0.18356 1.35503,-1.79235 2.39048,-3.86989 2.30101,-4.61677 z m -184.649716,-5.1353 c -0.290292,-2.72215 2.583638,-7.79008 2.933948,-5.17377 0.144389,1.07867 0.898663,3.15621 1.676077,4.61676 0.927537,1.74259 0.416534,2.65554 -1.486381,2.65554 -1.594924,0 -3.000563,-0.94434 -3.123644,-2.09853 z m 8.48271,-41.01522 c -4.010434,-0.72372 -11.658806,-9.379127 -9.907883,-11.212415 0.564675,-0.591238 0.0793,-1.074977 -1.078603,-1.074977 -1.157908,0 -2.241051,-1.133205 -2.406985,-2.518234 -0.165935,-1.385028 0.558264,-2.518234 1.609329,-2.518234 1.051065,0 1.439678,0.86565 0.863581,1.923667 -0.740813,1.360523 0.355879,1.586558 3.746267,0.772121 3.138952,-0.754038 4.465515,-0.548797 3.842947,0.594567 -0.522923,0.960362 -0.286372,1.808236 0.525666,1.884164 7.832948,0.7324 12.984557,2.139723 15.501207,4.234641 2.67072,2.22316 2.54598,2.86482 -1.11648,5.74301 -4.17655,3.2822 -4.7889,3.39705 -11.579046,2.17169 z m 16.865426,-3.23348 c -0.2121,-1.77036 0.70006,-2.34752 2.65325,-1.67883 1.63706,0.56047 3.31607,1.01903 3.73115,1.01903 0.41507,0 0.84518,0.75547 0.95581,1.67882 0.11062,0.92336 -1.42295,1.67883 -3.40793,1.67883 -2.11183,0 -3.74315,-1.11922 -3.93228,-2.69785 z"
       id="path6543"
       inkscape:connector-curvature="0" />
    <path
       style="fill:#937269"
       d="m 225.08552,426.63432 c -15.99449,-2.64789 -26.89449,-7.17442 -45.27705,-18.80254 -10.00353,-6.32787 -19.95899,-11.44931 -22.25609,-11.44931 -5.89118,0 -29.55262,-10.82133 -35.69939,-16.32676 -3.37605,-3.02381 -5.3934,-6.54842 -5.82897,-10.18403 l -0.6661,-5.55982 4.78032,4.28355 c 2.62917,2.35596 5.23218,4.28355 5.78447,4.28355 2.20278,0 33.97792,16.803 49.54067,26.19757 9.09386,5.48958 19.66453,11.57817 23.49038,13.5302 20.28884,10.35186 70.18052,11.44951 104.72377,2.304 9.51212,-2.51837 17.70078,-5.47664 35.89062,-12.96595 1.32324,-0.54483 2.31124,0.46391 2.57002,2.62392 0.70381,5.87464 -17.35451,13.3964 -47.26591,19.68748 -14.46604,3.04255 -57.01497,4.4925 -69.78674,2.37814 z m 13.43077,-9.61195 c 2.18517,-0.40016 5.83934,-0.40016 8.12039,0 2.28105,0.40015 0.49318,0.72755 -3.97303,0.72755 -4.46621,0 -6.33252,-0.3274 -4.14736,-0.72755 z m 28.87249,0 c 2.18516,-0.40016 5.83934,-0.40016 8.12039,0 2.28104,0.40015 0.49318,0.72755 -3.97303,0.72755 -4.46621,0 -6.33253,-0.3274 -4.14736,-0.72755 z m 49.68702,-10.77552 c 20.87612,-8.15193 21.0483,-8.32385 7.57591,-7.56582 -11.60528,0.653 -12.67057,0.39745 -22.29516,-5.34856 -22.48361,-13.42299 -29.2254,-16.90757 -30.814,-15.92657 -0.92654,0.57216 -1.20266,0.1788 -0.62246,-0.88677 0.59607,-1.09471 -1.75906,-4.00595 -5.49785,-6.79609 -3.59736,-2.68457 -9.05147,-6.85007 -12.12029,-9.25667 -5.71417,-4.48112 -8.43951,-5.68702 -6.09484,-2.69681 0.72401,0.92335 0.36949,1.67882 -0.7877,1.67882 -1.15725,0 -1.52689,1.0844 -0.82144,2.40976 1.89355,3.55746 -2.27777,4.27887 -6.64094,1.14852 -3.55761,-2.5524 -3.69076,-2.51328 -2.1747,0.63877 1.5902,3.30619 1.56741,3.3077 -1.4867,0.0989 -2.78791,-2.92918 -3.85545,-2.45112 -2.75154,1.23217 0.2194,0.73207 -1.33432,0.51661 -3.45272,-0.47877 -4.95689,-2.32911 -5.09604,-4.13527 -0.47415,-6.15436 3.68505,-1.60984 3.67497,-1.64098 -1.95476,-6.0426 -5.19256,-4.05981 -10.13345,-4.8245 -7.22758,-1.11858 1.33659,1.70457 -3.62001,4.22655 -5.39186,2.74343 -0.59213,-0.49563 0.004,-2.7498 1.32453,-5.00927 2.23168,-3.81822 2.12781,-4.38413 -1.47182,-8.01942 l -3.87294,-3.9113 -1.75665,3.85694 c -2.45048,5.38032 -5.61271,2.1966 -4.3696,-4.39932 0.72693,-3.8571 0.17668,-6.17179 -2.08257,-8.76065 -2.71448,-3.11052 -2.77997,-3.82273 -0.56479,-6.14213 3.54614,-3.71295 2.89615,-5.16837 -0.77355,-1.73209 -2.7678,2.59177 -3.17504,2.60575 -4.48016,0.15378 -0.78958,-1.4834 -2.27805,-2.17689 -3.30771,-1.54106 -1.26587,0.7817 -1.61636,6.9e-4 -1.08236,-2.41183 0.93013,-4.20211 -0.0918,-4.51898 -3.40069,-1.05446 -2.43833,2.55298 -8.16721,1.80413 -8.51674,-1.11333 -0.10532,-0.87905 0.48376,-1.23504 1.30907,-0.7911 0.8253,0.44395 3.32615,-0.71022 5.55744,-2.56483 2.23129,-1.85462 3.17952,-2.93308 2.10718,-2.39657 -2.75048,1.37608 -5.38883,-4.31752 -2.77122,-5.98034 1.74716,-1.10985 1.71654,-1.37247 -0.16242,-1.39334 -1.27337,-0.0134 -2.64575,1.10317 -3.04955,2.4829 -0.40379,1.37972 -1.5112,2.0906 -2.4609,1.57973 -0.94969,-0.51086 -1.59868,0.81554 -1.44218,2.94758 0.28069,3.82426 0.2583,3.81994 -1.66309,-0.32062 -2.66302,-5.73874 -3.37544,-10.45418 -1.42057,-9.40262 2.06752,1.11217 8.87966,-3.64813 8.59699,-6.00754 -0.12757,-1.06487 -1.34703,-0.85641 -3.0122,0.51491 -2.24387,1.84786 -2.21843,1.44906 0.12848,-2.01412 2.07582,-3.06315 4.1634,-4.10277 7.18267,-3.577 3.32303,0.57866 3.94017,0.14723 2.81444,-1.96776 -0.79304,-1.48991 -2.04825,-2.33449 -2.78936,-1.87684 -0.74111,0.45764 -1.09346,-0.86876 -0.78302,-2.94758 0.54486,-3.64854 0.45234,-3.67773 -2.66688,-0.84173 -1.77724,1.61587 -3.77642,2.93794 -4.44264,2.93794 -2.39246,0 -1.61209,-3.87141 1.22094,-6.05711 1.76542,-1.36203 2.01015,-2.251 0.62868,-2.28362 -1.24414,-0.0294 -2.43461,-1.49359 -2.6455,-3.25386 -0.28441,-2.37393 -1.28832,-2.97371 -3.8873,-2.32243 -5.39415,1.35174 -4.73416,-2.84112 1.28082,-8.13688 2.91782,-2.56895 4.28641,-4.70151 3.0413,-4.73903 -1.24512,-0.0376 -2.20218,0.87611 -2.12681,2.0303 0.0754,1.15419 -0.83329,0.33633 -2.01925,-1.81746 -1.18596,-2.1538 -1.86549,-5.85496 -1.51008,-8.22482 0.4524,-3.01663 0.0688,-3.95227 -1.27908,-3.11993 -2.38921,1.47539 -2.62437,0.0744 -0.69761,-4.15609 2.2583,-4.95838 5.46294,-4.02348 4.69431,1.36948 -0.3619,2.53922 -0.90957,6.50544 -1.21704,8.81382 l -0.55904,4.19706 4.42645,-4.56371 c 4.40546,-4.54207 4.40892,-4.59982 0.72869,-12.17147 -2.03378,-4.18426 -3.0027,-7.60775 -2.15316,-7.60775 0.84954,0 2.06734,0.94434 2.70622,2.09853 0.63888,1.15419 1.05181,0.64709 0.91763,-1.12693 -0.13418,-1.77399 -1.84024,-4.68791 -3.79125,-6.47537 -2.51043,-2.29999 -3.76154,-5.72857 -4.2803,-11.72984 -0.47778,-5.52729 -1.19452,-7.65675 -2.05847,-6.11579 -0.85043,1.51685 -1.42122,1.64754 -1.59264,0.36467 -0.14695,-1.0997 0.48892,-2.46635 1.41304,-3.03702 0.92413,-0.57066 1.42485,-2.69279 1.11272,-4.71584 -0.54715,-3.54629 -0.60873,-3.55779 -1.71611,-0.32063 -1.14692,3.35272 -1.14939,3.3527 -1.67915,-0.0121 -0.46403,-2.94726 -1.53354,-3.29487 -8.53046,-2.77251 -5.61279,0.41902 -8.95661,-0.20356 -11.20605,-2.08643 -1.76337,-1.47602 -5.88075,-2.68367 -9.14973,-2.68367 -3.26898,0 -8.18931,-1.51094 -10.93405,-3.35764 -2.74474,-1.84671 -5.75155,-3.35765 -6.6818,-3.35765 -0.93024,0 -3.34214,-1.51094 -5.35977,-3.35764 -2.08035,-1.90411 -2.76616,-3.35765 -1.58422,-3.35765 6.31336,0 -4.24409,-11.57299 -13.01777,-14.26999 -3.00379,-0.92335 -5.918642,-2.63788 -6.477458,-3.81007 -0.755243,-1.58423 0.113733,-1.74706 3.385598,-0.63442 2.42089,0.82326 7.76228,2.43588 11.86975,3.58359 10.29944,2.87789 19.65786,6.6914 26.5334,10.81225 13.74457,8.23779 14.73845,8.30046 24.34899,1.53529 1.16373,-0.81919 6.61342,-36.63201 6.16879,-40.53843 -0.61938,-5.44176 4.44165,-18.31138 7.97524,-20.28013 2.74447,-1.52908 2.68748,-1.73312 -0.79999,-2.86424 -2.06523,-0.66984 -7.63789,-2.54924 -12.38368,-4.17646 -4.74579,-1.62721 -21.40459,-6.45265 -37.01955,-10.723196 C 85.677898,85.519001 81.654784,83.482161 98.264995,82.315091 c 18.489275,-1.2991 36.462265,-0.312107 43.141435,2.369126 3.64922,1.464917 5.4268,2.746154 3.95017,2.847192 -1.83632,0.125643 -1.48959,0.639685 1.09713,1.626539 5.19841,1.98323 8.04755,1.98323 4.51133,0 -3.53622,-1.98323 -0.68709,-1.98323 4.51132,0 2.65659,1.013507 2.98585,1.520877 1.10655,1.705125 -1.47145,0.144261 -0.19712,0.928625 2.83184,1.743029 3.02896,0.814403 7.52533,1.066097 9.99193,0.559323 3.14085,-0.645306 3.81142,-0.442231 2.23782,0.677694 -1.69613,1.207123 -0.95825,1.82798 3.01024,2.532826 10.75973,1.91104 22.16546,4.975685 28.47755,7.651725 3.57786,1.51686 6.97608,2.76948 7.55162,2.78362 0.57553,0.0141 2.06333,0.58769 3.30622,1.27455 1.24289,0.68686 3.39473,0.0605 4.78187,-1.39186 1.38713,-1.45239 3.60107,-2.15878 4.91987,-1.56976 1.3188,0.58902 0.63434,-0.0925 -1.52101,-1.51453 -2.15535,-1.42201 -4.93549,-3.32129 -6.17809,-4.220633 -1.24261,-0.89934 -2.58374,-1.295454 -2.98029,-0.880251 -0.39655,0.415204 -4.88122,-0.711093 -9.96592,-2.502884 -5.08471,-1.791789 -19.07665,-6.020125 -31.0932,-9.396301 -20.34237,-5.715407 -28.21312,-9.410992 -25.68371,-12.059385 0.57572,-0.602795 2.28846,0.274884 3.8061,1.950399 1.51764,1.675513 3.85604,2.624344 5.19643,2.10851 1.79533,-0.690912 1.60134,-0.972778 -0.73673,-1.070417 -1.7456,-0.0729 -3.2614,-0.863664 -3.36846,-1.757262 -0.10817,-0.902879 1.42511,-1.089349 3.45111,-0.419706 2.00516,0.662761 3.57455,1.900775 3.48753,2.751144 -0.14863,1.452299 6.05404,3.004228 33.3248,8.337979 12.67799,2.479628 16.14719,3.912063 14.92235,6.161484 -0.46226,0.848974 0.36585,1.093681 1.84025,0.543792 1.47441,-0.549888 2.78093,-0.1635 2.90339,0.858641 0.12246,1.022141 1.44071,1.858438 2.92945,1.858438 1.48874,0 2.8034,0.806379 2.92148,1.791955 0.12627,1.053928 1.83448,1.35435 4.14759,0.729437 3.07876,-0.831763 3.39091,-0.679613 1.43733,0.700572 -2.21367,1.563938 -2.18643,1.765988 0.24119,1.788798 1.50523,0.0141 5.40994,2.10532 8.67713,4.64707 l 5.94036,4.62136 4.52413,-7.42419 c 7.35873,-12.075861 10.72886,-13.734189 25.32527,-12.46174 l 12.51269,1.090801 -0.0177,9.812669 c -0.0157,8.70041 0.35307,9.83475 3.25317,10.00742 3.03716,0.18083 3.05181,0.2496 0.205,0.96251 -1.68627,0.42227 -2.98451,1.6567 -2.885,2.74319 0.38774,4.23352 -0.3468,27.17565 -0.95867,29.93992 -0.35572,1.60709 -2.24494,3.41118 -4.19824,4.00911 -2.47379,0.75723 -3.15141,2.0851 -2.23307,4.37585 0.84786,2.11491 -0.3303,5.28971 -3.30089,8.89503 -3.79251,4.60282 -4.65809,7.9588 -4.83587,18.74934 -0.22979,13.94697 1.21818,18.68806 9.68111,31.69907 2.40237,3.6934 6.77531,8.91561 9.71766,11.6049 l 5.34973,4.88961 -5.32437,-3.21078 c -5.1133,-3.08349 -16.11321,-17.57249 -16.63267,-21.9084 -0.13769,-1.14924 -1.26582,-2.63578 -2.50696,-3.30342 -1.51057,-0.81256 -1.77225,-0.30389 -0.79154,1.53861 0.80581,1.51387 0.53802,5.5677 -0.59507,9.00851 -1.69027,5.13284 -1.54136,7.43013 0.82942,12.79575 1.58927,3.59686 2.47879,6.96983 1.97674,7.49551 -0.50206,0.52567 -1.05834,-0.25876 -1.23618,-1.74319 -0.17784,-1.48442 -1.33883,-3.2452 -2.57998,-3.91285 -1.52052,-0.81793 -1.76812,-0.29615 -0.75905,1.59963 1.86927,3.51183 -0.99113,12.07572 -3.12457,9.3549 -0.86598,-1.10439 -2.43178,1.30984 -3.71699,5.731 -2.04663,7.04056 -1.92746,8.24252 1.52081,15.33692 2.05781,4.23372 2.91812,7.25476 1.91181,6.71344 -1.00632,-0.54132 -1.95474,-2.02825 -2.10762,-3.30429 -0.15288,-1.27604 -0.92894,-2.67025 -1.72458,-3.09825 -1.30918,-0.70425 -1.50202,0.89709 -1.23233,10.23325 0.14717,5.09517 4.1395,20.41533 5.89842,22.63465 0.92759,1.17039 2.11845,4.86246 2.64637,8.20459 0.52799,3.34214 2.27408,7.57049 3.8804,9.39632 3.29692,3.74752 19.83884,16.11522 26.98128,20.17278 3.12426,1.77487 4.53869,3.74752 4.19868,5.85575 -0.40247,2.49537 -0.0435,2.77993 1.66903,1.32293 1.50684,-1.28205 2.60876,-1.31173 3.56208,-0.096 0.75916,0.96819 0.32401,1.81581 -0.96708,1.88362 -1.29106,0.0678 -5.40363,0.37078 -9.13904,0.67329 -6.76666,0.54802 -6.78309,0.53543 -4.47015,-3.42184 2.73725,-4.6832 2.77397,-5.76884 0.19517,-5.76884 -1.05106,0 -1.21375,0.94434 -0.36153,2.09853 0.85223,1.15419 1.03569,1.72079 0.40773,1.25911 -0.62798,-0.46167 -1.369,-1.59488 -1.64672,-2.51823 -1.46995,-4.88702 -8.15351,-7.83308 -7.61732,-3.35765 0.27842,2.32393 -1.47294,3.12822 -4.56957,2.09853 -0.6942,-0.23084 -1.67164,-3.23378 -2.17209,-6.6732 -0.52693,-3.62102 -2.42322,-7.50798 -4.50481,-9.23352 -3.44929,-2.85932 -3.53677,-2.79303 -2.15987,1.63673 1.25777,4.0464 0.86519,4.61676 -3.17773,4.61676 -3.5422,0 -4.22779,-0.49851 -2.95401,-2.14793 1.87445,-2.42721 0.79538,-12.6613 -1.46306,-13.87618 -0.81283,-0.43723 -2.56679,0.34517 -3.89769,1.73869 -1.33091,1.39359 -4.50793,2.53375 -7.06004,2.53375 -2.55213,0 -4.54438,0.80006 -4.42722,1.77791 0.11715,0.97784 -0.71415,1.27916 -1.84733,0.66959 -1.13319,-0.60958 -1.73956,-2.20434 -1.34753,-3.54392 0.40822,-1.39479 -0.016,-1.98555 -0.9927,-1.38241 -0.93806,0.57926 -1.48149,1.94057 -1.20764,3.02513 1.08031,4.2785 0.45909,6.16899 -2.02716,6.16899 -1.43016,0 -3.01861,0.76823 -3.52987,1.70719 -0.61405,1.1277 2.46307,1.33131 9.0651,0.59985 8.49565,-0.94128 10.53609,-0.62449 13.60439,2.11211 3.75363,3.34784 11.36803,17.64932 11.94037,22.42657 0.18082,1.50924 4.40267,6.47409 9.38188,11.03298 4.97923,4.55891 9.14651,8.84177 9.26063,9.5175 0.50097,2.96594 14.32338,13.04141 17.89137,13.04141 4.13881,0 15.83414,9.15271 14.1437,11.0688 -1.56086,1.76921 28.11881,-0.86742 42.64119,-3.78808 7.26855,-1.4618 18.98236,-5.35788 26.03069,-8.65791 15.82351,-7.40861 22.31602,-7.53039 20.73528,-0.38891 -1.47198,6.65006 -35.1444,20.52265 -55.38817,22.81916 -5.68665,0.6451 -11.44598,2.10321 -12.7985,3.24023 -1.35252,1.13699 -7.11875,3.84183 -12.81386,6.01072 -5.6951,2.16889 -11.05375,4.54793 -11.9081,5.28676 -0.85435,0.73883 -3.22333,1.29916 -5.26441,1.24517 -2.04109,-0.0541 2.10705,-2.37008 9.21807,-5.14687 z m 39.33968,-19.00974 c 12.34989,-2.2465 35.72141,-10.61532 33.90091,-12.13915 -0.43581,-0.36479 -4.96657,0.96087 -10.06837,2.94591 -5.10179,1.98504 -18.81182,5.35063 -30.46672,7.47907 -13.86711,2.53246 -18.69045,3.91722 -13.95621,4.00678 3.979,0.0754 13.24466,-0.95639 20.59039,-2.29261 z M 248.07466,302.38693 c 1.97556,-2.73942 0.68979,-5.68632 -1.80801,-4.14387 -2.29352,1.41629 -2.23525,-1.55662 0.081,-4.13044 1.64005,-1.82245 1.39758,-1.85663 -1.37665,-0.19404 -2.09831,1.2575 -3.15261,3.80987 -2.79763,6.77284 0.60893,5.08267 2.96952,5.7609 5.90131,1.69551 z m -6.71365,-0.71803 c -1.2549,-3.99642 -7.16908,-13.52512 -9.14844,-14.73966 -2.18043,-1.33791 -2.11283,-1.49412 0.34342,-0.79362 2.28613,0.65199 2.73107,0.0562 1.76245,-2.35987 -1.48006,-3.69191 -4.2837,-4.05141 -10.37652,-1.33055 -3.70438,1.65426 -3.88279,2.21555 -1.37224,4.31698 1.58716,1.32852 3.11274,4.31022 3.39019,6.62601 0.46035,3.84244 0.98539,4.10979 6.00575,3.05821 3.82475,-0.80115 5.1929,-0.58599 4.48941,0.70603 -0.55654,1.02208 -2.37868,1.91144 -4.04919,1.97634 -2.49975,0.097 -2.38729,0.3447 0.63549,1.39901 2.93224,1.02273 8.52331,1.7896 8.31968,1.14112 z m 1.21105,-19.70889 c -0.17988,-1.85839 -1.31052,-2.51983 -3.40856,-1.99408 -2.47297,0.61973 -2.82471,2.06937 -1.65707,6.82957 1.47673,6.02031 1.48945,6.02776 3.40856,1.99407 1.05945,-2.22684 1.80515,-5.30014 1.65707,-6.82956 z m -4.01535,-8.80685 c 0.67905,-2.32027 -0.64342,-4.3612 -2.82597,-4.3612 -0.6144,0 -0.93607,1.51094 -0.71483,3.35765 0.46389,3.87193 2.52994,4.4575 3.5408,1.00355 z m -6.04696,-18.09348 c -2.93707,-1.06124 -2.94553,-1.14939 -0.12089,-1.25912 4.31879,-0.16771 5.59699,-3.47565 1.34306,-3.47565 -4.28763,0 -5.64726,3.83331 -3.40292,9.59415 l 1.67166,4.29089 1.83363,-4.00458 c 1.57618,-3.44227 1.39018,-4.16481 -1.32454,-5.14569 z m 4.63728,-22.78211 c 1.0982,-1.50454 0.67294,-2.09853 -1.50248,-2.09853 -1.66885,0 -2.44188,0.75547 -1.71786,1.67882 0.72402,0.92336 0.48192,1.67883 -0.538,1.67883 -1.01992,0 -1.17102,1.28388 -0.33577,2.85306 1.22442,2.30035 1.61969,2.38166 2.04046,0.4197 0.28704,-1.33834 1.21117,-3.37769 2.05365,-4.53188 z m 6.80231,-7.135 c 0.50278,-0.92335 -0.10098,-1.67882 -1.34179,-1.67882 -1.24076,0 -0.81255,-1.10918 0.95159,-2.46484 3.12729,-2.40318 3.10579,-2.46618 -0.85906,-2.51823 -3.1481,-0.0413 -3.95302,0.89455 -3.56376,4.14366 0.50791,4.2395 3.12905,5.61091 4.81302,2.51823 z M 180.50915,212.1317 c 1.31274,-1.61587 2.58637,-5.58209 2.83028,-8.81382 0.31232,-4.13816 0.008,-5.13114 -1.02921,-3.35764 -0.80997,1.38502 -1.32137,3.88489 -1.13645,5.55525 0.18496,1.67036 -0.53411,2.56885 -1.59783,1.99664 -1.29232,-0.69517 -1.45743,-2.08686 -0.49762,-4.19425 0.82454,-1.81038 0.70266,-3.54859 -0.28612,-4.08048 -0.94741,-0.50963 -1.94281,1.76458 -2.21201,5.0538 -0.2692,3.28923 -0.8054,7.05997 -1.19156,8.37943 -0.9777,3.34068 2.24419,3.00159 5.12052,-0.53893 z m 62.72635,-6.44709 c 0.42972,-1.46835 0.16112,-3.46069 -0.59684,-4.42741 -0.75802,-0.96673 0.31077,-3.05175 2.37513,-4.63338 3.69485,-2.83089 3.69408,-2.88971 -0.0489,-3.77455 -2.85448,-0.67479 -3.94697,0.0662 -4.38287,2.97266 -0.31933,2.12932 0.0545,5.06473 0.83078,6.52314 0.77621,1.4584 0.51242,2.65163 -0.58625,2.65163 -1.09868,0 -1.90708,0.75547 -1.79646,1.67883 0.31894,2.66216 3.34494,1.94915 4.20541,-0.99092 z m 4.40365,-32.58553 c -2.47985,-1.39078 -2.44305,-1.63115 0.25308,-1.65312 1.73517,-0.0141 3.08373,-0.61929 2.99682,-1.34478 -0.0869,-0.72549 -1.78211,-1.31908 -3.7671,-1.31908 -2.26167,0 -3.47497,1.11922 -3.24989,2.9979 0.20914,1.74572 1.6769,2.98716 3.51401,2.97219 2.69613,-0.022 2.73293,-0.26233 0.25308,-1.65311 z m 23.12691,-17.8332 c -0.15239,-1.27197 -1.08911,-2.31268 -2.08161,-2.31268 -0.99249,0 -1.72142,0.69369 -1.61984,1.54152 0.10157,0.84783 -0.20758,2.92538 -0.68702,4.61676 -0.76734,2.70711 -0.54026,2.79942 1.89692,0.77116 1.52275,-1.26725 2.64394,-3.34479 2.49155,-4.61676 z m -52.65292,-37.98765 c 1.12757,-3.46258 1.36753,-6.29559 0.53328,-6.29559 -0.83425,0 -1.78955,1.81849 -2.12287,4.04109 -0.33333,2.2226 -0.97812,5.43335 -1.43285,7.135 -1.45494,5.44434 0.89689,1.64672 3.02244,-4.8805 z m 57.07357,-20.095327 c 2.09641,-3.795874 2.08377,-4.402828 -0.0749,-3.597736 -1.4282,0.532664 -2.52333,1.581334 -2.43359,2.330379 0.0897,0.749045 -0.20645,2.745761 -0.65819,4.437144 -0.98971,3.7056 -0.18633,2.90144 3.1667,-3.169787 z M 198.72454,408.84766 c 0.5071,-0.53094 2.38962,-1.1979 4.18338,-1.48211 1.79375,-0.28421 2.86695,-1.5496 2.38488,-2.81198 -0.48207,-1.26237 -0.20741,-1.73516 0.61035,-1.05067 0.81777,0.6845 2.67001,0.32963 4.1161,-0.7886 1.44608,-1.11824 0.90676,0.0215 -1.19848,2.53279 -2.10525,2.51129 -5.44559,4.56596 -7.42298,4.56596 -1.9774,0 -3.18036,-0.43442 -2.67325,-0.96539 z m -29.65449,-16.80884 c -2.69233,-2.38899 -7.65751,-5.37233 -11.03374,-6.62962 -3.37623,-1.25728 -6.23373,-3.08 -6.34999,-4.05046 -0.32006,-2.67146 3.32618,-2.11159 4.84619,0.74411 0.7344,1.37972 1.91966,2.14771 2.63392,1.70664 0.71427,-0.44108 4.52551,1.76004 8.46943,4.89135 3.94392,3.13132 8.25382,6.08105 9.57754,6.55493 1.63653,0.58587 1.50188,0.90404 -0.42072,0.99416 -1.55512,0.0729 -5.0303,-1.82209 -7.72263,-4.21111 z m -22.03398,-15.56441 c -0.68789,-1.71589 -3.91836,-4.16674 -7.17882,-5.44629 -3.26045,-1.27954 -5.99651,-2.89749 -6.08013,-3.59545 -0.0836,-0.69795 -1.27757,-1.269 -2.65322,-1.269 -3.4693,0 -9.59468,-10.25853 -10.17575,-17.04195 l -0.4816,-5.62216 2.51402,4.61677 c 1.38272,2.53922 3.24697,4.61676 4.14278,4.61676 0.89581,0 4.16841,1.55872 7.27244,3.4638 3.10403,1.90509 6.35177,3.02656 7.21718,2.49214 0.86543,-0.5344 2.83645,1.5121 4.38006,4.5478 1.54361,3.03569 6.26992,7.75562 10.50291,10.48874 7.57919,4.89365 7.8583,7.79231 0.41349,4.2942 -2.52606,-1.18693 -4.12388,-1.22372 -4.73092,-0.10896 -1.43463,2.63474 -3.77209,1.9818 -5.14245,-1.43648 z m -12.52141,-2.88556 -4.81428,-2.52878 4.64289,1.09814 c 2.55358,0.60397 5.49466,1.76869 6.53571,2.58825 3.0434,2.39592 -0.99887,1.66066 -6.36432,-1.15761 z m 7.27289,-36.29546 c -3.11472,-1.64204 -5.77738,-3.93927 -5.91704,-5.10496 -0.45481,-3.79627 6.85129,-3.20009 14.29001,1.16606 4.00045,2.34805 8.86156,4.2692 10.80247,4.2692 1.9409,0 3.61944,0.75553 3.73007,1.67897 0.32743,2.73304 -16.75192,1.23484 -22.90551,-2.00927 z m 49.50964,-3.62943 c -1.76111,-1.74043 -1.58414,-3.27838 0.74687,-6.49048 1.68017,-2.31526 2.61806,-4.68848 2.0842,-5.2738 -0.53386,-0.58532 -0.45926,-0.74944 0.16579,-0.36471 0.62505,0.38472 1.26663,1.32906 1.42574,2.09853 0.15912,0.76946 1.70779,2.39938 3.4415,3.62205 1.7337,1.22265 2.17079,1.7936 0.97129,1.26875 -1.1995,-0.52485 -2.50756,0.16184 -2.90679,1.52602 -0.46145,1.57669 -1.95036,2.07029 -4.08697,1.35486 -2.95061,-0.98801 -3.01718,-0.77953 -0.54509,1.70712 1.54879,1.55792 2.40995,2.83256 1.91371,2.83256 -0.49625,0 -1.94086,-1.0264 -3.21025,-2.2809 z m -41.63512,-29.44982 c -0.0789,-0.65865 -2.47493,-2.0185 -5.3245,-3.02188 l -5.18102,-1.82431 4.94106,-0.17859 c 2.71759,-0.0982 5.02528,0.52433 5.12821,1.38347 0.10293,0.85913 2.04501,1.81895 4.31574,2.13296 l 4.12858,0.57088 -3.93229,1.06753 c -2.16277,0.58714 -3.99687,0.52861 -4.07578,-0.13006 z m 21.57017,-20.31278 c -1.24093,-10.13797 -1.13266,-11.28279 0.55571,-5.87588 1.1533,3.69341 2.09901,5.77096 2.10157,4.61677 0.007,-3.15859 3.19245,-2.52193 5.74318,1.14786 1.98537,2.85638 1.71773,3.15729 -2.2278,2.50487 -3.89515,-0.64412 -4.49392,-0.023 -4.55785,4.72802 -0.0405,3.00824 -0.76714,-0.19649 -1.61481,-7.12164 z m -8.76301,-31.75135 c -0.7871,-1.0038 -3.2174,-1.88475 -5.40066,-1.95764 -3.42217,-0.11433 -3.29213,-0.37183 0.94289,-1.86769 5.66553,-2.00114 10.7586,0.55163 7.63197,3.82533 -1.2552,1.31427 -2.14367,1.31427 -3.1742,0 z m 11.27184,-18.2927 c -0.17271,-1.30905 -1.14086,-1.68784 -2.39451,-0.93685 -1.62633,0.97424 -1.69721,0.71063 -0.31189,-1.16003 0.98601,-1.33144 1.86636,-4.15019 1.95635,-6.26391 0.14995,-3.52214 0.35401,-3.59224 2.44347,-0.8394 1.6602,2.18729 1.77929,4.14443 0.43816,7.20074 -1.01293,2.30839 -1.97215,3.20813 -2.13159,1.99945 z m -16.4854,-1.81983 c -0.12246,-1.02215 -1.84673,-1.85844 -3.83172,-1.85844 -1.98498,0 -3.69957,-0.75547 -3.81019,-1.67882 -0.30653,-2.55858 9.44016,-2.00077 13.73438,0.78602 2.08897,1.35565 2.85237,2.48886 1.69645,2.51824 -1.15592,0.0294 -3.33121,0.51194 -4.83397,1.07241 -1.50277,0.56046 -2.8325,0.18273 -2.95495,-0.83941 z m 0.12048,-15.88312 c -1.3451,-1.3293 -3.90441,-2.05136 -5.68736,-1.60456 -1.78295,0.44679 -3.86834,0.0133 -4.63421,-0.96351 -2.34874,-2.99538 7.64989,-4.31771 12.9506,-1.71273 2.63749,1.29617 4.88367,3.11214 4.99152,4.03549 0.31613,2.70645 -4.95838,2.87625 -7.62055,0.24531 z m 165.07651,-87.91058 c -3.43219,-4.31961 -8.53813,-10.15935 -11.34652,-12.97719 -3.01299,-3.02314 -3.61791,-4.11641 -1.47566,-2.66697 4.02409,2.7227 20.51784,21.97422 19.62624,22.90777 -0.31003,0.32462 -3.37187,-2.944 -6.80406,-7.26361 z m -31.42149,-18.4636 c 2.68326,-0.38466 7.14948,-0.38466 9.92491,0 2.77544,0.38466 0.58004,0.69938 -4.87866,0.69938 -5.45871,0 -7.72952,-0.31472 -5.04625,-0.69938 z M 239.95783,86.391065 c -4.1367,-1.391661 -23.34069,-5.791259 -42.67553,-9.776883 -39.71928,-8.187606 -51.58077,-10.930914 -50.76215,-11.740195 0.31142,-0.30787 5.1187,0.160279 10.68284,1.040331 14.37744,2.274006 32.54009,4.794177 42.6306,5.915237 4.75931,0.528762 8.39637,1.433213 8.08238,2.009893 -0.31402,0.57668 1.19195,1.159851 3.34659,1.295935 6.65034,0.420029 24.5826,5.23729 20.79802,5.587109 -2.67019,0.246813 -2.16006,0.709865 2.02472,1.837868 3.07683,0.82936 7.16857,1.092672 9.09275,0.585138 2.55337,-0.673491 2.88527,-0.494435 1.22862,0.662784 -1.74737,1.220582 -1.0323,1.988306 3.10636,3.335082 2.95693,0.962229 4.15895,1.755918 2.67115,1.763753 -1.48779,0.0079 -6.08966,-1.124388 -10.22635,-2.516052 z"
       id="path6541"
       inkscape:connector-curvature="0" />
    <path
       style="fill:#5c4541"
       d="m 232.96985,427.21005 c -24.41646,-3.26353 -32.07058,-6.19514 -56.17897,-21.51713 -9.39354,-5.97003 -17.88573,-10.28317 -19.247,-9.77546 -2.92978,1.09266 -23.3009,-7.96711 -22.25076,-9.89572 0.40506,-0.74392 -0.36102,-0.94325 -1.7024,-0.44298 -3.31594,1.23671 -15.23825,-7.48004 -14.35564,-10.49583 0.38485,-1.31497 -0.0466,-1.91976 -0.96492,-1.35267 -0.91354,0.56411 -1.85268,-0.57443 -2.08698,-2.53012 -0.44464,-3.71136 -0.0908,-3.64431 9.23228,1.74972 2.66602,1.54246 13.49513,7.20683 24.06468,12.58745 10.56955,5.38063 25.04497,13.42157 32.16761,17.86877 7.12263,4.44718 13.85186,8.0858 14.95383,8.0858 1.10198,0 2.09059,0.72621 2.19693,1.61378 0.74579,6.22503 55.62772,10.69952 83.55879,6.81253 16.70138,-2.32423 43.49195,-10.09839 51.99216,-15.08719 5.432,-3.18807 7.47004,-2.92216 7.94432,1.03652 0.69118,5.76922 -35.14913,17.18607 -65.06021,20.7248 -13.68027,1.61848 -34.59299,1.91033 -44.26372,0.61773 z m 68.88067,-35.08022 c -5.37168,-3.41565 -8.0732,-5.63099 -6.0034,-4.92299 10.16608,3.47743 29.68769,4.62935 46.65361,2.75291 21.02223,-2.32505 35.33912,-6.6705 50.6181,-15.36357 6.26384,-3.56384 11.93939,-5.77752 12.61233,-4.91931 2.38446,3.04096 -7.99549,11.03772 -21.34401,16.44357 -16.98987,6.88048 -31.99375,9.95056 -54.84416,11.22214 l -17.9258,0.99752 -9.76667,-6.21027 z m -19.43874,-11.63078 c -3.13044,-1.27679 -11.53086,-7.00311 -18.66759,-12.72514 -7.13672,-5.72203 -14.74816,-11.64085 -16.9143,-13.15294 -5.1972,-3.62793 -11.05115,-9.7306 -7.59487,-7.91756 1.6302,0.85516 2.31928,0.52061 1.92962,-0.93685 -1.46668,-5.48585 -0.47748,-6.46405 6.5368,-6.46405 6.49631,0 7.26841,0.4197 7.72096,4.19705 0.27655,2.30839 1.31487,4.19706 2.30736,4.19706 0.99249,0 1.93522,1.09085 2.09495,2.42412 0.15974,1.33327 8.37347,9.26571 18.25275,17.62764 14.27957,12.08638 17.14875,15.19003 13.99418,15.1378 -2.18248,-0.0361 -6.52942,-1.11035 -9.65986,-2.38713 z m -57.35943,-19.37509 c -0.0767,-0.64054 2.0828,-1.25458 4.79898,-1.36453 2.71618,-0.10996 6.6767,-0.55089 8.80118,-0.97984 2.49269,-0.50333 3.65661,-0.0764 3.28166,1.20354 -0.60895,2.07894 -16.63964,3.16225 -16.88182,1.14083 z m 7.82224,-6.03678 c -0.65941,-0.55194 -0.92179,-2.25175 -0.58307,-3.77735 0.51544,-2.32159 0.35974,-2.37414 -0.95505,-0.32231 -1.35222,2.11021 -2.14084,2.01557 -5.66527,-0.67991 -3.48755,-2.66726 -6.40204,-9.32628 -4.0819,-9.32628 2.78278,0 6.74978,2.39004 6.96627,4.19706 0.14227,1.18744 1.47343,2.57489 2.95814,3.08319 4.05406,1.38796 8.19178,7.82915 5.02932,7.82915 -1.35824,0 -3.00904,-0.45158 -3.66844,-1.00355 z m 1.09457,-9.90879 c -0.16593,-1.38503 -1.16166,-2.51824 -2.21272,-2.51824 -1.05107,0 -1.50439,-0.74682 -1.00738,-1.6596 0.51819,-0.95165 -0.23987,-1.23309 -1.77707,-0.65979 -1.72206,0.64225 -2.7938,0.0561 -2.99688,-1.63899 -0.17388,-1.45132 -2.16758,-3.50872 -4.43043,-4.57197 -3.52717,-1.65731 -3.90335,-1.53689 -2.63612,0.8439 1.94095,3.64652 -2.72425,5.38672 -6.77195,2.52605 -2.53773,-1.7935 -3.30651,-1.7667 -4.3511,0.15177 -0.69782,1.28156 -0.7962,2.93279 -0.21862,3.66939 0.57758,0.73656 -0.21584,1.33924 -1.76315,1.33924 -1.54731,0 -2.9038,-0.75547 -3.01443,-1.67882 -0.11062,-0.92335 0.43583,-1.67882 1.21433,-1.67882 0.7785,0 2.51798,-2.14025 3.86552,-4.75609 2.02795,-3.9367 3.41108,-4.62697 8.02837,-4.00666 5.5445,0.74489 5.56103,0.71919 2.72606,-4.23915 -3.32063,-5.80776 -5.82527,-6.23999 -7.98073,-1.37728 -0.84519,1.90675 -2.47769,3.28703 -3.62777,3.06727 -1.19556,-0.22845 -1.53358,0.84999 -0.78931,2.51824 0.71597,1.60478 -0.28726,0.77519 -2.22939,-1.84354 -3.10321,-4.18431 -3.25269,-5.09986 -1.2334,-7.5547 3.01202,-3.66173 4.6575,-11.19907 2.1001,-9.61982 -1.02313,0.63179 -1.74383,2.12025 -1.60157,3.30768 0.14226,1.18744 -1.13517,3.46414 -2.83873,5.05934 -2.97866,2.78923 -3.21392,2.67116 -6.13856,-3.08047 -1.67265,-3.28947 -3.40916,-5.3057 -3.85892,-4.48051 -0.44975,0.82519 -1.2956,-1.83632 -1.87965,-5.91444 -1.27285,-8.88757 -3.25332,-11.02423 -6.16587,-6.65212 -1.18433,1.77786 -2.70872,2.76757 -3.38752,2.19939 -0.6788,-0.56818 1.48623,-3.49626 4.81118,-6.50686 5.34129,-4.83632 5.63878,-5.60722 2.55441,-6.61918 -2.27471,-0.74632 -1.18345,-1.10045 3.13224,-1.01646 9.17261,0.17853 15.5567,-5.50051 8.78833,-7.81772 -1.73385,-0.59362 -2.29722,-0.12659 -1.54716,1.28257 0.64876,1.21884 -0.0722,2.68294 -1.60215,3.25354 -1.99546,0.74422 -3.66507,-0.49949 -5.90689,-4.40011 -1.73891,-3.02558 -2.41548,-5.68582 -1.52525,-5.99719 2.41868,-0.84599 1.55489,-3.69907 -0.97421,-3.21775 -1.37724,0.2621 -2.69641,-1.93071 -3.51302,-5.83962 -1.63418,-7.82239 2.07296,-12.50541 10.67204,-13.4814 5.95533,-0.67591 5.89025,-0.7191 -1.47031,-0.97588 -4.23579,-0.14773 -7.75317,-0.70037 -7.81638,-1.22801 -0.24887,-2.07727 4.40946,-5.52749 5.9635,-4.4169 0.9075,0.64855 0.59898,0.046 -0.68561,-1.33906 -1.34545,-1.45065 -2.62092,-6.96651 -3.00859,-13.01087 -0.37014,-5.77095 -1.41486,-10.49264 -2.3216,-10.49264 -0.90674,0 -1.55811,0.75547 -1.44749,1.67882 0.11062,0.92335 -1.01693,1.67882 -2.50566,1.67882 -1.48874,0 -2.74465,-0.31595 -2.79092,-0.7021 -0.0463,-0.38616 -0.76539,-1.98204 -1.59806,-3.5464 -1.29529,-2.43351 -0.67287,-2.67653 4.30973,-1.68274 3.64166,0.72635 5.74468,0.5023 5.61286,-0.59797 -0.11594,-0.96774 -1.37676,-1.32467 -2.80182,-0.79318 -1.42506,0.53148 -2.69122,0.13004 -2.81367,-0.89211 -0.12246,-1.02214 0.46308,-1.85843 1.3012,-1.85843 0.83812,0 3.64605,-1.98003 6.23984,-4.40005 2.94015,-2.74319 3.54386,-4.01707 1.60324,-3.38297 -2.7267,0.89095 -3.05315,0.28897 -2.63224,-4.85395 0.40605,-4.96133 0.0486,-5.70997 -2.30671,-4.83154 -1.53297,0.57173 -2.70104,1.75874 -2.59573,2.6378 0.10532,0.87905 -0.67649,1.13138 -1.73735,0.56071 -1.06086,-0.57066 -2.07435,-2.2521 -2.25219,-3.73652 -0.17784,-1.48443 0.26432,-2.20706 0.98258,-1.60584 0.71827,0.60122 2.30451,-0.21721 3.52499,-1.81873 1.22048,-1.60151 1.81732,-1.9662 1.32631,-0.81042 -1.03908,2.44587 10.64209,-4.07696 12.10177,-6.7577 0.53908,-0.99003 -0.80789,-0.53625 -2.99327,1.0084 -5.65169,3.9947 -6.23742,3.63244 -6.57023,-4.0635 -0.28951,-6.69467 -0.37805,-6.79624 -3.43164,-3.93686 -2.32312,2.17536 -3.20501,2.34628 -3.407,0.66033 -0.36391,-3.03746 -2.96412,-0.0889 -3.7679,4.27262 -0.34032,1.8467 -0.67938,-0.38339 -0.75346,-4.95577 -0.16667,-10.28683 3.63721,-19.96627 11.08258,-28.20098 3.13066,-3.46257 5.12783,-6.29558 4.43814,-6.29558 -1.96218,0 -11.31344,11.01133 -14.55048,17.13353 -1.60832,3.04182 -3.5583,8.36359 -4.33329,11.82616 -0.775,3.46257 -2.0986,6.29558 -2.94135,6.29558 -0.84275,0 -1.74524,1.32208 -2.00554,2.93794 -0.26202,1.62652 -0.82166,0.6898 -1.25376,-2.09853 -0.42928,-2.77005 0.63101,-13.34663 2.35617,-23.50351 1.72516,-10.15688 2.95502,-20.10423 2.73302,-22.10522 -0.67256,-6.06215 4.51064,-18.6861 7.95528,-19.37547 4.06612,-0.81374 -20.65727,-9.42671 -45.44107,-15.830467 -10.19449,-2.6341 -17.06637,-5.058254 -15.27085,-5.387008 2.65902,-0.486858 2.76161,-0.898007 0.55306,-2.216505 -2.03136,-1.212715 -1.77884,-1.390238 1.00669,-0.70771 2.04501,0.501084 4.84921,0.184406 6.23154,-0.70373 1.74341,-1.120117 -1.07464,-1.571402 -9.19914,-1.473152 -8.57266,0.103667 -10.45994,0.501965 -7.04012,1.48577 l 4.67236,1.344132 -4.49436,0.141643 c -2.47189,0.0779 -5.75296,-0.550357 -7.29127,-1.396129 -4.478821,-2.462494 4.74555,-3.915065 19.83793,-3.123898 14.87857,0.779959 41.78988,7.780043 38.2805,9.957402 -1.6816,1.043331 -1.08078,2.253767 2.57765,5.193052 3.49934,2.81147 4.40163,3.08226 3.38652,1.01635 -1.17878,-2.398967 -0.38072,-2.68073 5.38593,-1.90159 3.72336,0.50308 9.25276,1.95926 12.28756,3.23598 3.03479,1.2767 6.34415,2.32128 7.35413,2.32128 1.00998,0 3.61931,1.32208 5.79852,2.93794 2.1792,1.61587 3.25552,1.9936 2.39182,0.83941 -0.95962,-1.28236 -0.54192,-2.09852 1.07399,-2.09852 1.82337,0 2.48716,1.17273 2.13806,3.77735 -0.45837,3.41975 -0.30341,3.5102 1.63681,0.95551 2.14918,-2.82986 4.74736,-3.62356 10.64836,-3.25295 2.98479,0.18746 3.04446,0.60972 1.03636,7.3339 -2.67197,8.94702 -2.3309,8.58085 -6.21817,6.67579 -3.02058,-1.4803 -3.00919,-1.8877 0.14508,-5.19035 1.88259,-1.97118 2.73672,-3.58396 1.89807,-3.58396 -0.83868,0 -2.73156,1.41475 -4.20644,3.1439 -2.06634,2.42259 -4.64745,3.0121 -11.25015,2.56946 l -8.56859,-0.57444 7.39638,1.4879 c 4.06801,0.81834 9.7804,2.30623 12.69419,3.30641 2.91378,1.00019 5.93476,1.81852 6.71327,1.81852 0.7785,0 2.80765,-4.53282 4.50922,-10.07293 1.70157,-5.54012 3.82014,-10.07294 4.70797,-10.07294 0.88783,0 1.67834,3.88077 1.75672,8.62394 0.0983,5.94783 0.56789,7.74087 1.51336,5.7782 1.25138,-2.5977 1.7071,-2.52611 5.22892,0.82149 l 3.85807,3.66721 1.30514,-4.51824 c 0.71783,-2.48503 1.23444,-5.10846 1.14802,-5.82984 -0.23803,-1.98681 4.07799,-12.13443 7.44163,-17.496439 2.01604,-3.213786 4.11188,-4.489973 6.46152,-3.934522 1.9127,0.452158 3.39668,0.14653 3.29776,-0.67917 -0.19723,-1.646241 8.08765,-1.150203 12.90791,0.772833 2.01458,0.803712 2.91579,2.608477 2.67953,5.366139 -0.33134,3.867589 -0.54888,3.948899 -3.14338,1.175008 -1.53308,-1.639071 -2.73699,-2.343819 -2.67539,-1.566106 0.0616,0.777713 1.96623,3.334867 4.23248,5.682577 2.89283,2.99679 4.02639,3.48338 3.80473,1.63321 -0.17365,-1.44944 0.37265,-4.76207 1.21398,-7.361402 0.84136,-2.59933 1.33072,-5.292656 1.08748,-5.985171 -0.24323,-0.692514 0.36979,-1.259117 1.36228,-1.259117 2.11118,0 2.42722,1.827145 2.13742,12.35685 -0.11791,4.28396 -0.96397,7.78902 -1.88013,7.78902 -0.91616,0 -1.19476,-0.94434 -0.61909,-2.09853 0.6081,-1.21923 0.42858,-1.51233 -0.42844,-0.69951 -0.8113,0.76946 -1.49364,2.09154 -1.5163,2.93794 -0.0995,3.71684 -0.56351,3.85222 -2.39742,0.69951 -1.86364,-3.20379 -1.93821,-3.18456 -1.62741,0.41971 0.27377,3.17528 -0.68097,3.77735 -5.99015,3.77735 -3.47372,0 -6.36477,-0.40833 -6.42456,-0.90739 -0.0598,-0.49907 1.39393,-3.13392 3.23052,-5.85523 1.83658,-2.72132 2.93183,-5.28884 2.43393,-5.70562 -0.49793,-0.41678 -2.51526,1.85273 -4.48295,5.04336 -3.4547,5.60178 -3.4526,5.91557 0.0607,9.13124 2.00108,1.83156 4.52613,3.31854 5.61123,3.3044 1.08509,-0.0141 0.66711,-0.75804 -0.92887,-1.65312 -2.10223,-1.179 -0.57735,-1.63449 5.53437,-1.65311 6.4586,-0.0197 8.57399,-0.71439 9.02429,-2.96365 0.3235,-1.61586 0.62053,0.0839 0.66008,3.77735 0.23148,21.61197 -0.23097,24.99613 -3.94745,28.88743 -2.10233,2.20123 -3.61604,5.72488 -3.36379,7.83034 0.25224,2.10545 -1.3589,5.60242 -3.58031,7.77103 l -4.03895,3.94293 -0.47084,-3.93009 c -0.25897,-2.16155 0.12303,-3.433 0.84886,-2.82544 2.04521,1.71193 5.75846,-2.27277 5.34374,-5.73439 -0.54487,-4.54798 -4.92685,-2.23793 -6.82619,3.59857 -0.87401,2.68578 -0.84761,6.78658 0.0587,9.11289 0.90628,2.3263 0.93289,4.22964 0.0591,4.22964 -0.87377,0 -0.97774,1.87814 -0.23106,4.17363 0.74668,2.29549 1.06466,7.01718 0.70661,10.49264 l -0.65101,6.31901 -2.04632,-5.03646 c -1.66954,-4.1092 -1.72739,-3.80012 -0.31416,1.67882 3.6324,14.08261 3.87609,16.9508 1.97448,23.23882 -1.7882,5.91304 -2.19398,6.21372 -4.68068,3.46834 -1.49752,-1.65329 -2.62603,-2.19862 -2.5078,-1.21185 0.11822,0.98678 1.54568,2.73461 3.17213,3.88408 3.27727,2.31617 4.45648,5.83847 1.40509,4.19706 -2.44804,-1.31686 -2.2746,0.20111 0.47493,4.15692 1.52755,2.19774 1.54236,4.48079 0.051,7.86404 -1.4184,3.21773 -2.21947,3.81232 -2.46456,1.82933 -0.199,-1.61587 -1.22306,-2.93794 -2.27413,-2.93794 -1.05106,0 -1.34798,0.71805 -0.65983,1.59567 0.68816,0.87762 0.0326,4.84384 -1.45686,8.81382 -1.52119,4.05462 -2.16675,9.79339 -1.47299,13.09402 0.6793,3.23174 0.5975,7.64726 -0.18173,9.81228 -1.29822,3.60694 -1.55752,3.6772 -3.098,0.83942 -1.56448,-2.88201 -1.66512,-2.88939 -1.44972,-0.10644 0.12723,1.64486 1.44815,3.40719 2.93521,3.91629 1.48707,0.50912 2.37187,2.0597 1.96621,3.44571 -0.59995,2.05006 -1.07212,2.10243 -2.53157,0.28079 -1.37392,-1.7149 -1.7181,-1.55129 -1.46971,0.69864 0.17915,1.61587 1.54241,2.93794 3.03115,2.93794 1.80453,0 2.90793,1.67882 3.31019,5.03647 0.67102,5.60083 -3.04308,6.67515 -9.20773,2.66338 -3.04715,-1.98299 -3.14694,-2.39143 -0.79826,-3.26737 3.77282,-1.40711 0.4175,-9.36518 -5.67762,-13.46606 l -4.75101,-3.19656 5.18056,-3.28332 c 6.11591,-3.8761 6.4118,-4.65768 1.27606,-3.37069 -3.3277,0.8339 -3.6738,0.46315 -2.88944,-3.09511 0.4901,-2.22337 0.96369,-6.68664 1.05242,-9.91837 0.0993,-3.6157 1.83831,-7.32564 4.52105,-9.64489 2.39785,-2.07296 3.47957,-3.77276 2.40383,-3.77735 -1.07582,-0.005 -2.45782,0.51717 -3.07126,1.15947 -1.25992,1.3192 -6.29344,2.26145 -6.42038,1.20188 -0.20886,-1.74329 6.62163,-7.43512 8.01988,-6.68295 2.01181,1.08225 4.36847,-10.4106 3.54471,-17.28644 -0.34669,-2.89377 0.0265,-5.26139 0.82928,-5.26139 0.8028,0 2.89515,-1.17489 4.64967,-2.61085 3.06331,-2.50714 3.03747,-2.53814 -0.65086,-0.78034 -2.95521,1.4084 -3.90686,1.33297 -4.12701,-0.3271 -0.20117,-1.51695 -0.71595,-1.40986 -1.73369,0.36064 -0.88546,1.54036 -1.55205,1.73573 -1.71663,0.50313 -0.14722,-1.10831 0.82415,-2.62214 2.16028,-3.36407 1.33614,-0.74193 2.58564,-3.43009 2.7767,-5.9737 0.19104,-2.54361 0.67929,-6.12444 1.08503,-7.95742 0.56553,-2.55498 0.10669,-3.09735 -1.9663,-2.32422 -1.48718,0.55466 -2.53798,2.39399 -2.3351,4.08741 0.42295,3.53027 -2.09105,5.63851 -4.91333,4.12033 -3.09324,-1.66392 1.78805,-10.56603 7.35086,-13.40597 6.24768,-3.18958 6.45217,-3.17944 7.89265,0.39129 0.73673,1.82629 0.97872,1.34986 0.63955,-1.25912 -0.30019,-2.30838 -0.0731,-5.70799 0.50451,-7.5547 1.00246,-3.20509 0.90549,-3.22713 -2.13404,-0.48507 -3.02473,2.72869 -3.20397,2.70767 -3.57865,-0.41971 -0.21694,-1.81075 0.13273,-3.29227 0.77703,-3.29227 0.64431,0 0.82862,-1.69981 0.40957,-3.77736 -0.41907,-2.07754 -0.28811,-4.53282 0.29094,-5.45617 2.12517,-3.38875 1.95844,-15.94881 -0.21173,-15.94881 -1.29733,0 -1.48245,1.42671 -0.49012,3.77735 0.87704,2.07754 0.83926,2.99983 -0.084,2.04954 -0.92324,-0.9503 -3.4928,-1.62005 -5.71012,-1.48834 -2.87144,0.17057 -4.14277,-0.68925 -4.41818,-2.98803 -0.21267,-1.77513 0.42134,-2.79286 1.40888,-2.26163 0.98757,0.53123 2.2772,0.0814 2.86584,-0.99972 0.63032,-1.15758 0.34522,-1.51787 -0.69349,-0.87644 -2.11729,1.30746 -5.00205,-3.48449 -3.6227,-6.01774 0.58114,-1.06725 0.17381,-1.29327 -1.01151,-0.56131 -1.09142,0.67397 -1.76033,2.11276 -1.48649,3.19733 1.06328,4.21098 0.40504,5.80775 -2.71659,6.59001 -2.22055,0.55645 -3.3566,2.99773 -3.60377,7.74422 -0.21376,4.10487 -1.2753,6.76301 -2.60306,6.51818 -1.23316,-0.22739 -2.31723,1.28638 -2.40904,3.36392 -0.0918,2.07754 -1.30303,3.77735 -2.69159,3.77735 -1.43231,0 -1.97897,1.0252 -1.26344,2.36949 1.29335,2.42984 -2.07384,27.62607 -4.51943,33.81827 -0.74957,1.89789 -1.06027,4.1643 -0.69046,5.03646 1.15246,2.718 -0.48855,14.90154 -2.32968,17.29653 -1.33071,1.73102 -0.99314,2.75809 1.4016,4.26441 3.30588,2.07944 3.33516,2.92167 0.82315,23.6742 -1.40215,11.58366 -1.37701,11.45958 -2.87025,14.17091 -0.86105,1.56345 -0.5531,2.65215 0.87062,3.07785 3.92459,1.17346 3.17131,5.89007 -0.79109,4.95337 -2.80389,-0.66285 -3.73672,0.22911 -4.17417,3.99125 -0.30984,2.66466 -1.73552,5.49572 -3.16817,6.29123 -2.31843,1.28739 -2.2023,1.93486 1.05617,5.88886 2.01354,2.44334 3.42336,5.91583 3.13292,7.71662 -0.29043,1.80081 0.3076,3.52405 1.32897,3.82945 1.02137,0.30539 2.44528,4.38735 3.16426,9.07101 0.72512,4.72371 2.6666,9.85138 4.35996,11.51516 1.67901,1.64968 4.82152,7.2362 6.98335,12.41448 2.34504,5.61712 4.81159,9.23607 6.11456,8.97139 1.65375,-0.33597 1.81005,0.37726 0.64379,2.93794 -1.82918,4.01616 -3.10421,4.32896 -3.51941,0.86337 z m -25.10741,-37.27245 c -2.32998,-4.37739 -3.25218,-1.27569 -1.16478,3.9176 1.42679,3.54975 2.02011,4.01715 2.25809,1.77886 0.17753,-1.6698 -0.31446,-4.23321 -1.09331,-5.69646 z m -4.22379,-35.25527 c -2.32998,-4.3774 -3.25218,-1.27569 -1.16478,3.9176 1.4268,3.54975 2.02011,4.01715 2.25809,1.77886 0.17753,-1.66981 -0.31445,-4.23322 -1.09331,-5.69646 z m -3.83014,-29.35583 c 0.29052,-3.05268 -0.41324,-6.11742 -1.63842,-7.13499 -1.52212,-1.26417 -1.73988,-1.01232 -0.74758,0.86467 0.77006,1.45664 0.81692,4.66738 0.10412,7.135 -0.7128,2.46762 -0.60556,4.48657 0.2383,4.48657 0.84387,0 1.76347,-2.40807 2.04358,-5.35125 z m -0.74942,-29.48432 c -0.17914,-2.07754 -1.04309,-3.77735 -1.91988,-3.77735 -1.97457,0 -2.55238,6.40051 -0.98513,10.91235 1.16633,3.35764 1.16633,3.35764 2.19853,0 0.56771,-1.84671 0.88563,-5.05745 0.70648,-7.135 z m 2.85787,-20.56557 c -0.19668,-1.38503 -1.13531,0.12591 -2.08585,3.35764 -2.25449,7.665 -1.84636,10.68077 0.56799,4.19706 1.0315,-2.77006 1.71453,-6.16968 1.51785,-7.5547 z m 5.07838,-19.68535 c -0.63046,-5.2624 -1.42187,-4.65359 -2.31217,1.77867 -0.4319,3.1204 -0.0571,4.38609 1.08909,3.67827 0.96116,-0.59353 1.51155,-3.04916 1.22308,-5.45694 z m -7.0132,-14.99472 c 3.62446,-4.49804 5.08573,-8.74074 1.64367,-4.77226 -1.60174,1.8467 -4.72841,5.14335 -6.94816,7.32589 -3.14254,3.08985 -3.27801,3.58879 -0.61203,2.25402 1.88313,-0.94282 4.54557,-3.10626 5.91652,-4.80765 z m 10.67535,-7.4298 c 0.90148,-7.75285 -1.11268,-7.69535 -2.30034,0.0657 -0.56914,3.71923 -0.4188,6.38185 0.3341,5.91692 0.7529,-0.46493 1.63771,-3.15709 1.96624,-5.98259 z m 22.03059,-13.12805 c 1.01604,-1.40773 2.7132,-1.80986 4.21922,-0.99973 1.66082,0.89339 2.00416,0.69809 1.00744,-0.57305 -1.63584,-2.08622 5.58209,-13.69985 8.51452,-13.69985 1.70694,0 1.58435,4.51805 -0.30329,11.17609 -0.75509,2.66336 -0.51216,2.79053 1.74567,0.91385 1.88089,-1.56336 3.03755,-1.65115 4.0889,-0.31034 1.61471,2.05926 7.7925,-2.58247 7.43281,-5.5847 -0.11062,-0.92336 -1.79048,-0.23967 -3.73303,1.51931 -3.35018,3.03359 -3.48849,3.03931 -2.6886,0.11107 0.52211,-1.91133 -0.64702,-4.63093 -3.06967,-7.14066 l -3.91295,-4.05359 -8.35812,9.6589 c -4.59697,5.31239 -9.26565,9.40707 -10.37481,9.09928 -1.10918,-0.30778 -1.34759,4.4e-4 -0.52984,0.68495 0.81777,0.6845 0.62294,2.44727 -0.43295,3.91725 -1.73617,2.41707 -1.60346,2.43184 1.38757,0.15447 1.81904,-1.38503 4.07225,-3.57799 5.00713,-4.87324 z m -16.0801,0.33033 c -0.13217,-1.11358 -0.87038,-1.63559 -1.64049,-1.16004 -0.7701,0.47555 -1.71975,-0.87975 -2.11034,-3.01179 l -0.71016,-3.87643 -0.32948,3.77735 c -0.27855,3.19345 -1.49513,3.78133 -7.87015,3.80306 -4.14738,0.0141 -8.4163,0.58359 -9.48651,1.26545 -1.07021,0.68187 3.52915,1.2369 10.2208,1.23341 8.28866,-0.004 12.09005,-0.65168 11.92633,-2.03101 z m -17.52677,-7.06364 c 4.96757,-5.82402 1.81944,-4.95261 -4.22981,1.17082 -3.13871,3.1772 -4.11464,4.96035 -2.20412,4.02722 1.88574,-0.92103 4.78101,-3.26015 6.43393,-5.19804 z m 71.54402,-2.67812 c 0.28431,-3.31867 -0.0918,-3.82662 -1.77389,-2.39549 -1.1741,0.99893 -1.56094,2.89421 -0.85966,4.21173 1.77389,3.33265 2.21873,3.02587 2.63355,-1.81624 z M 156.2151,95.994107 c 0.94976,-1.744253 -6.42381,-4.347563 -7.90912,-2.792389 -0.52145,0.545983 0.6097,1.004266 2.51367,1.018405 2.89627,0.02151 3.05145,0.29155 0.94994,1.653115 -2.16467,1.402487 -2.08966,1.630961 0.54269,1.653115 1.67997,0.0141 3.43625,-0.675372 3.90282,-1.532246 z m 37.29999,234.981823 c -1.80635,-2.30368 -0.65881,-4.03312 2.11029,-3.18036 1.13405,0.34925 1.41566,1.53446 0.68248,2.87235 -0.92552,1.68886 -1.64758,1.76849 -2.79277,0.30801 z m 90.22014,-4.6 c -3.60041,-2.49287 -6.91172,-4.75928 -7.35847,-5.03647 -0.44674,-0.27721 -0.37896,-0.9577 0.15066,-1.51222 0.5296,-0.55451 2.98392,0.57869 5.45405,2.51824 2.47011,1.93954 5.06316,3.52645 5.76231,3.52645 0.69916,0 1.87437,1.1332 2.6116,2.51823 1.85498,3.48502 0.9048,3.19591 -6.62015,-2.01423 z m -23.16088,-9.73753 c 0.40537,-1.38503 1.46216,-2.51823 2.34847,-2.51823 0.8863,0 1.74723,1.1332 1.91317,2.51823 0.16593,1.38503 -0.89088,2.51824 -2.34847,2.51824 -1.61432,0 -2.36209,-0.98428 -1.91317,-2.51824 z m -12.17856,-10.65006 c -0.73708,-0.94001 -0.5214,-2.21469 0.47927,-2.83263 2.58331,-1.59523 4.63518,0.58986 2.57723,2.74461 -1.15153,1.2057 -2.1574,1.23466 -3.05651,0.088 z m 8.69916,-3.62337 c -2.09214,-2.77195 -3.39336,-5.79383 -2.89163,-6.71529 0.50174,-0.92146 0.0523,-1.67538 -0.99877,-1.67538 -1.05107,0 -2.00154,-0.75547 -2.11217,-1.67882 -0.11062,-0.92336 1.7171,-1.67883 4.06162,-1.67883 3.93927,0 4.32371,0.63698 5.0658,8.39361 0.44174,4.61648 0.77513,8.39383 0.74104,8.39412 -0.0341,2.6e-4 -1.77376,-2.26746 -3.86589,-5.03941 z m -16.78952,-9.73373 c -0.21153,-1.76557 3.27572,-5.37223 5.19435,-5.37223 0.82891,0 0.81896,1.51094 -0.0221,3.35764 -1.51009,3.31558 -4.86004,4.62039 -5.17223,2.01459 z M 179.2072,279.70431 c -0.16593,-1.38503 0.51034,-2.51824 1.50283,-2.51824 0.99249,0 1.9403,1.13321 2.10623,2.51824 0.16594,1.38503 -0.51034,2.51823 -1.50283,2.51823 -0.99249,0 -1.9403,-1.1332 -2.10623,-2.51823 z m 58.13235,-3.41103 c 4.19258,-3.22183 7.07067,-3.18322 3.97948,0.0534 -1.3228,1.38503 -3.48104,2.49421 -4.79605,2.46485 -1.50014,-0.0336 -1.19589,-0.97175 0.81657,-2.51823 z m -7.22853,-31.01904 c -0.73013,-0.93116 0.47254,-2.35404 2.67262,-3.16196 5.0804,-1.86564 6.15045,-1.05682 2.98569,2.25681 -2.90882,3.04565 -3.86053,3.19789 -5.65831,0.90515 z m 8.88738,-31.79919 c -0.6877,-0.87703 0.19784,-2.36139 1.96785,-3.29858 3.33526,-1.76598 5.61259,-0.90932 5.94154,2.23503 0.10464,1.0003 -0.73267,0.68552 -1.86071,-0.69951 -1.75276,-2.15207 -2.0038,-2.09105 -1.72662,0.41971 0.34789,3.15084 -2.2674,3.96369 -4.32206,1.34335 z m 6.35747,-47.19619 c 0.28901,-1.2119 1.55171,-2.53397 2.80594,-2.93794 1.30312,-0.41971 2.05524,0.20985 1.75496,1.46897 -0.28901,1.2119 -1.55171,2.53397 -2.80595,2.93794 -1.30311,0.4197 -2.05524,-0.20985 -1.75495,-1.46897 z"
       id="path6539"
       inkscape:connector-curvature="0" />
  </g>
</svg>
