<?xml version="1.0" encoding="UTF-8" standalone="no"?>
<svg
   xmlns:dc="http://purl.org/dc/elements/1.1/"
   xmlns:cc="http://creativecommons.org/ns#"
   xmlns:rdf="http://www.w3.org/1999/02/22-rdf-syntax-ns#"
   xmlns:svg="http://www.w3.org/2000/svg"
   xmlns="http://www.w3.org/2000/svg"
   xmlns:sodipodi="http://sodipodi.sourceforge.net/DTD/sodipodi-0.dtd"
   xmlns:inkscape="http://www.inkscape.org/namespaces/inkscape"
   viewBox="0 0 512 512"
   id="svg2"
   version="1.1"
   inkscape:version="0.48.4 r9939"
   width="100%"
   height="100%"
   sodipodi:docname="ball lightning.svg">
  <metadata
     id="metadata48">
    <rdf:RDF>
      <cc:Work
         rdf:about="">
        <dc:format>image/svg+xml</dc:format>
        <dc:type
           rdf:resource="http://purl.org/dc/dcmitype/StillImage" />
        <dc:title />
      </cc:Work>
    </rdf:RDF>
  </metadata>
  <defs
     id="defs46" />
  <sodipodi:namedview
     pagecolor="#ffffff"
     bordercolor="#666666"
     borderopacity="1"
     objecttolerance="10"
     gridtolerance="10"
     guidetolerance="10"
     inkscape:pageopacity="0"
     inkscape:pageshadow="2"
     inkscape:window-width="1185"
     inkscape:window-height="840"
     id="namedview44"
     showgrid="false"
     inkscape:zoom="0.4609375"
     inkscape:cx="-123.8602"
     inkscape:cy="192.52192"
     inkscape:window-x="100"
     inkscape:window-y="100"
     inkscape:window-maximized="0"
     inkscape:current-layer="svg2" />
  <g
     id="g2990"
     transform="matrix(1.3738591,0,0,1.283798,-40.137566,-82.50792)">
    <path
       inkscape:connector-curvature="0"
       id="path4"
       d="M -161.16695,-127.62738 H 620.87107 V 674.44557 H -161.16695 z" />
    <path
       style="fill:#d9afe2"
       d="m 635.14518,279.55082 c -0.095,143.87464 -0.18995,287.74927 -0.28493,431.6239 -278.35243,-0.19328 -556.704891,-0.38655 -835.05732,-0.57983 0.18994,-287.74928 0.37989,-575.49855 0.56984,-863.2478 278.352447,0.19328 556.70489,0.38656 835.05734,0.57984 -0.095,143.8746398 -0.18995,287.74926 -0.28493,431.62389 z"
       id="path3980"
       inkscape:connector-curvature="0" />
    <path
       style="fill:#9b5db2"
       d="m 635.14518,279.55082 c -0.095,143.87464 -0.18995,287.74927 -0.28493,431.6239 -278.35243,-0.19328 -556.704891,-0.38655 -835.05732,-0.57983 0.18994,-287.74928 0.37989,-575.49855 0.56984,-863.2478 278.352447,0.19328 556.70489,0.38656 835.05734,0.57984 -0.095,143.8746398 -0.18995,287.74926 -0.28493,431.62389 z M -85.197648,-44.570516 c 21.569906,9.904321 35.092973,36.706462 49.864356,54.2265909 13.376905,11.6207831 2.916093,44.9150781 28.9027028,41.7563761 13.5882108,-0.481018 28.6181932,18.978177 39.6463232,8.237901 -8.583218,34.574291 51.10771,21.872437 42.024345,59.674178 21.031217,8.66485 36.924241,21.9388 44.059161,44.8093 -9.7455,30.45063 20.95703,29.91478 37.9617,30.15132 4.79373,20.68298 2.87379,35.00447 23.8722,42.7604 2.80535,13.94147 -17.93991,-8.63025 -3.18336,16.15812 -0.29465,10.46596 -15.63039,-9.57754 -23.95632,-3.08447 27.23442,2.58878 16.84111,30.23792 -3.4306,13.14122 14.37653,5.46409 37.54362,22.19925 6.5968,18.64513 5.88247,4.30054 27.60172,1.60283 13.12164,16.26214 -18.45762,-8.15376 17.22108,12.56958 -5.29841,6.77294 -10.71421,12.07478 -15.86959,15.39593 1.75369,2.61134 7.86339,7.56622 18.25867,20.42584 -2.23215,19.2948 -28.88699,-1.19518 -4.01278,-1.55906 -10.41684,21.78436 10.84148,25.27852 -5.99632,19.27041 -17.63126,9.66075 -13.55183,27.35909 -39.091436,37.534 -31.15875,69.62016 -17.117981,18.00397 -46.428887,16.63377 -40.080877,51.63613 -28.153429,6.59338 -56.1966815,12.60196 -60.8276086,50.08506 -34.1992694,4.61081 -31.5622104,77.07254 -40.9801174,75.72912 23.917555,-21.56462 8.427725,-66.46229 47.275467,-77.01262 -6.4859842,-51.40006 68.633893,-23.48895 57.318649,-66.6803 9.500487,-20.11981 23.552129,-9.49747 39.437867,-26.61454 2.03963,-18.12597 -3.7254,-31.93019 10.06634,-40.11823 9.70629,-14.57895 18.21985,-44.57767 36.77818,-18.77318 19.73054,-12.07271 -8.37547,-43.27307 11.99787,-42.38136 30.66185,-6.40903 19.21285,34.75045 19.45408,31.0224 14.54124,-47.57498 6.60657,10.37412 1.52896,25.70011 -10.45643,36.63075 9.46481,-17.79872 8.39947,-27.33323 3.24671,15.90856 4.60386,41.80543 3.43804,11.33704 -5.44632,-18.27153 13.33006,-32.649 10.97055,-8.48588 23.19794,-29.04762 13.59581,20.15201 26.62701,34.33545 13.70677,32.20463 -3.23689,-5.45852 -4.20221,-18.23921 -8.07044,-29.805 17.07782,30.59403 1.4149,-8.7975 -1.47122,-30.56625 12.11746,-21.40146 16.21038,5.22277 18.46009,2.478 10.70448,3.95858 -3.97406,-8.18638 -0.24542,-18.38478 6.22861,-12.92576 -2.72645,-28.69612 7.56647,16.26635 29.58165,-11.21374 33.96998,20.25589 17.38262,26.78056 41.95258,-13.81103 53.16,17.05486 -4.00161,27.9493 38.56442,46.14089 48.91316,68.34853 10.65067,-15.08288 46.93836,16.49919 31.55753,34.79613 1.79662,27.65171 18.62387,31.07517 39.28613,27.2242 23.3703,13.82397 27.92571,50.12135 57.35357,48.02404 21.19771,9.83196 44.8987,6.55497 53.95932,31.23919 -6.9442,-27.39079 -35.81018,-24.29224 -55.87353,-34.86274 -28.78886,-1.62725 -31.3846,-37.64374 -56.79573,-50.07841 -26.97989,13.50702 -39.39991,-18.40427 -31.0041,-41.74047 -16.11108,-16.42613 -28.97264,-27.28492 -45.6848,-25.14142 2.73144,-24.18004 -56.3324,-39.34579 -31.21921,-53.87718 6.06213,18.13061 23.56456,-9.83556 22.2998,17.97888 18.77976,11.21069 -7.64235,-30.09346 -16.25367,-11.9407 -12.88378,-7.64072 -25.49893,-43.22564 -43.84942,-22.76507 -24.29521,8.98477 -22.95102,-28.30448 -38.65273,-29.52206 -16.21686,0.14177 1.04333,-17.6996 11.71264,-13.96363 24.20645,32.38488 -10.30465,-15.82376 -3.38259,-16.28274 -5.29903,17.26129 -13.82469,-3.41338 -4.41647,-5.07489 4.4284,-24.04944 29.23199,10.57363 33.31369,-21.18436 16.40979,3.13332 42.06004,14.40692 54.7686,26.16764 2.80807,14.88276 14.66396,-2.02356 22.61156,10.62702 8.4433,0.63984 7.73956,23.90685 7.04571,-1.52734 -13.47624,-3.31082 -19.29907,-6.03837 -28.92639,-6.19792 -5.89286,-26.88794 8.84449,-33.44931 24.11769,-6.57198 25.33518,-7.60634 -10.40784,3.11328 -15.09457,-19.85016 -16.33621,-19.78125 -9.98315,38.7025 -28.45264,8.35695 -17.1814,-6.86933 -37.46818,-22.10572 -44.74401,0.37452 -26.08985,-7.21662 -27.8093,-18.83134 -24.11675,-21.0862 1.90121,-2.21733 22.4568,-11.96232 34.33426,-9.17056 3.76305,-22.51227 -8.65242,-41.02774 25.99767,-33.24446 10.7155,-25.12869 32.00297,-39.26965 59.43685,-28.28735 8.47914,-7.1921 18.98081,0.0226 29.95778,-7.05705 7.40708,17.36675 5.77467,28.41757 19.04712,38.90636 -13.43231,35.36394 24.23785,33.45877 38.44372,12.14577 13.75665,10.54897 -10.40757,-8.38208 -15.04198,9.58578 -35.13484,24.68585 -13.00355,-29.95602 -31.88333,-34.71893 -3.65785,-6.07885 -6.60683,-43.00297 -27.35226,-21.6422 -32.59739,7.08489 -15.49425,-38.05639 -3.459,-55.06685 22.42613,0.3901 44.13475,1.4389 49.03423,-20.98966 31.5787,11.06118 52.93723,-14.34663 46.14983,-42.43177 13.95056,-15.405457 39.69014,-3.439785 41.06174,-35.395257 16.19904,-20.566555 -13.02844,20.82792 -19.4866,23.098535 -44.51753,-9.872741 -8.13262,63.391732 -54.63802,52.950542 -28.38904,-8.29003 -22.62323,32.35406 -57.75769,16.05766 -25.9145,4.90492 -13.35028,34.1413 -24.40637,51.60752 -12.53452,8.82867 -32.53101,9.06429 -41.30147,14.53771 -2.43799,27.35332 -22.64675,-14.36345 2.58366,-18.02903 -18.13832,-15.64549 36.28953,-48.32923 3.06894,-25.74571 -5.73552,18.47649 -17.02791,32.19815 -16.69327,52.23438 22.72862,23.32494 -40.62296,1.81954 -29.27513,32.53595 17.49703,17.57137 -15.00464,12.72829 -25.9083,5.45347 -22.22315,-7.29749 -15.14661,-1.48701 -9.97174,-26.87415 12.98938,-15.05375 -23.11569,21.54779 -7.77409,-5.3937 9.4948,-25.5281 -6.84595,13.36457 -1.13583,-18.24758 -5.06758,-19.79024 22.56057,-23.01129 10.44971,-45.7465 23.82392,0.48616 7.18475,-83.833677 10.11807,-30.27689 5.53773,24.12767 -23.7659,24.45853 -11.1629,50.12313 -25.62168,-0.22487 -7.79794,59.07821 -23.71463,48.07416 11.67623,-20.47163 1.92102,-35.54914 1.38697,-5.5283 -9.38478,9.97694 -0.88549,-5.60563 -10.63654,-0.39382 -4.15746,-7.12517 -0.71228,19.78791 -5.57074,-7.71053 -4.8184,32.04825 -2.46505,-31.9544 -12.45925,-24.33301 10.48072,21.09894 6.28356,38.55851 -7.78521,10.68669 6.31571,-19.41108 -8.09919,-43.83609 -6.1744,-52.56932 4.26412,18.69253 0.8353,44.26728 10.06345,65.16085 -16.31572,-3.08825 -16.8175,-29.33029 -8.35173,1.72561 0.84497,24.28087 -5.15573,18.65865 -7.2028,13.71734 13.16285,25.00046 -37.82089,-0.13536 -24.9994,-13.36146 4.8854,-44.82677 -40.33319,1.63865 -43.1827,-31.23436 2.25432,-31.34521 -20.70238,-49.9506 -44.91843,-60.25354 C 77.162433,83.510075 65.903724,85.53724 41.094182,77.969541 37.073375,58.922724 32.682631,49.23628 16.61025,58.382557 8.3123296,36.328896 -36.036715,57.241066 -23.086143,20.715984 -37.213174,-5.5013717 -59.784076,-26.548221 -81.141396,-43.838925 c -7.61342,-1.368245 -6.603749,-17.806112 -4.056252,-0.731591 z M 209.7212,209.77557 c -0.72553,14.4028 -3.96455,-8.60917 0,0 z m 3.59117,1.14833 c -0.80023,4.26887 -1.82078,-3.08701 0,0 z m -11.43053,0.43296 c 8.00902,15.32863 -5.88042,4.83241 0,0 z m 14.14655,2.99072 c -2.08449,3.02161 -2.08058,-3.02445 0,0 z m -9.07801,0.62597 c 5.85005,14.31379 -5.66246,-2.34533 0,0 z m 48.75442,15.4189 c 4.21019,14.3733 -9.17318,-6.63276 0,0 z m -4.35143,3.27075 c -8.69061,16.78147 -0.80534,-13.22508 0,0 z m 12.90519,17.15665 c -7.47811,8.01365 -3.23062,-5.33199 0,0 z m 3.57362,1.21843 c 11.53373,8.74513 25.03994,16.14288 -3.90739,13.3693 3.2598,-7.52749 -17.04467,-5.29046 3.90739,-13.3693 z m -93.42856,9.47964 c -0.98431,1.61962 -1.30039,-2.98481 0,0 z m 89.7017,8.5021 c -2.02481,2.97794 -1.37056,-3.0459 0,0 z m -0.27628,6.74394 c 0.97223,2.90709 -3.88893,-2.56005 0,0 z m 3.96338,6.11879 c 6.61305,14.96065 -10.44146,-7.54473 0,0 z m 4.72914,2.97284 c -3.91588,16.89119 -2.07634,-7.02577 0,0 z m 7.6268,0.2258 c 17.18423,5.85787 2.21126,9.24981 0,0 z m -15.24814,15.13078 c -1.34897,2.95915 -1.34498,-2.96108 0,0 z m -87.22537,12.18125 c -4.751,2.97451 2.39756,-4.65076 0,0 z m 82.57163,2.08852 c -0.89376,5.30469 -5.4627,-3.65968 0,0 z m 6.81739,2.35027 c 6.27067,8.29412 -10.93495,-3.49857 0,0 z m -1.6339,4.45571 c -1.34898,2.9592 -1.345,-2.96107 0,0 z m -4.07798,0.84019 c -2.02478,2.97794 -1.37062,-3.04587 0,0 z m -4.81375,1.67703 c 5.18008,8.39166 -10.40781,2.03166 0,0 z m -69.64282,9.67879 c -5.62971,4.12818 1.34861,-4.3962 0,0 z m 70.67298,2.48238 c 2.37456,7.24305 -6.09273,-5.39695 0,0 z m -45.16268,12.06377 c 15.57598,10.09689 -9.91714,16.72217 0,0 z m -10.90671,1.27726 c -7.15113,18.89121 -4.20247,-4.86225 0,0 z m 25.04124,-0.41918 c 5.78147,9.60639 -8.40271,1.93978 0,0 z m 6.49702,8.32539 c -2.34151,18.81462 -4.27184,-12.80734 0,0 z M 64.349808,57.174184 c 2.45594,0.959685 0.01271,-1.527128 0,0 z m -8.60399,11.220379 c 2.080591,3.024474 2.084504,-3.021586 0,0 z M 355.04675,140.04798 c 5.24799,20.3912 -0.37502,-10.15241 0,0 z m -131.12847,5.82084 c 1.00598,-7.4065 -0.70169,-6.35469 0,0 z m -0.78175,6.9933 c 1.82075,3.08701 0.80023,-4.26889 0,0 z m 28.81131,3.81359 c 1.8205,1.51752 0.91492,-2.72499 0,0 z m -100.23873,1.81945 c 0.88529,5.78907 2.76806,-2.4251 0,0 z m 74.13548,2.31847 c 3.47826,2.95981 -1.03531,-4.15258 0,0 z m 13.04718,8.4485 c -3.06239,7.5157 5.57833,-7.6079 0,0 z m -7.06076,2.31338 c 0.82509,7.59851 3.36739,-3.44099 0,0 z m -12.27177,3.34679 c 18.64761,9.92225 -4.76152,-5.58559 0,0 z m 12.26331,13.30278 c -5.67203,39.02896 5.89148,-23.69081 -2e-5,0 l 2e-5,0 z m 32.70388,5.50229 c -0.55964,7.34954 2.99263,-7.46472 0,0 z m 3.25401,24.91417 c -5.56634,3.15286 9.0784,-4.03422 0,0 z m -216.483224,0.22825 c 1.293863,4.38546 1.299606,-4.38369 0,0 z m 215.280094,12.47155 c 2.35168,3.1693 4.17318,-4.54594 0,0 z M 79.015698,231.08623 c 2.29957,1.46004 1.971508,-2.67233 0,0 z m 6.522713,1.76678 c 1.8205,1.51753 0.914906,-2.725 0,0 z m -6.798457,4.16059 c 1.394993,2.95623 0.557726,-2.98302 0,0 z m 199.790336,5.66809 c 2.32029,1.56673 1.13654,-2.76792 0,0 z m 9.24079,2.09385 c 1.13048,2.35962 3.22028,-6.11908 0,0 z m -161.60525,4.66816 c 5.40833,1.23441 1.02921,-1.28104 0,0 z m 20.17212,2.4318 c -5.3403,5.94974 8.36864,-5.12949 0,0 z m -26.0202,3.29182 c 0.36983,4.40086 1.33799,-4.40489 0,0 z m 208.76068,5.67432 c 1.82045,1.51757 0.91493,-2.72503 0,0 z m 30.98571,4.18684 c 4.63582,4.07299 -1.53082,-3.9285 0,0 z m -189.73689,0.71126 c 1.34498,2.96107 1.34897,-2.95916 0,0 z m -28.02023,13.43614 c 9.96417,6.6214 1.35213,-3.32729 0,0 z m 139.34703,18.40862 c 2.45594,0.95969 0.0127,-1.52711 0,0 z m 9.87534,18.82035 c 1.34507,2.96105 1.3489,-2.9592 0,0 z m -7.61116,-0.055 c 2.78231,5.37926 0.85473,-3.35942 0,0 z m -115.80351,6.81041 c 8.88235,-4.7921 -1.92758,2.21444 0,0 z m -25.16791,3.25761 c 3.23368,6.08986 -1.05846,-5.98981 0,0 z m 183.16862,7.29283 c 1.17446,4.44112 1.9266,-4.40467 0,0 z m -65.78306,0.79735 c 2.42634,4.32655 -0.1146,-4.40092 0,0 z m 52.53329,1.04218 c 3.61872,1.15168 0.57857,-1.36913 0,0 z m -16.20783,1.98968 c 3.22716,1.3008 0.15808,0.78924 0,0 z m 8.59494,0.53409 c 3.61877,1.15168 0.57856,-1.36915 0,0 z m -16.99947,-0.23364 c 10.1471,10.51876 3.60858,-0.86934 0,0 z m -109.28012,7.5704 c 4.46802,4.1531 -0.31405,-4.4827 0,0 z m -70.67515,-0.47058 c 1.39508,2.95618 0.55762,-2.98307 0,0 z m 3.92918,1.53069 c 3.51717,5.0308 1.7625,-5.38207 0,0 z m 126.53878,13.31267 c 1.29381,4.38545 1.29961,-4.38366 0,0 z m 14.67821,0.80979 c 5.19681,14.19872 2.92715,-3.4776 0,0 z m -31.53662,6.81541 c 1.59222,3.03592 0.13808,-4.16595 0,0 z m 44.29125,17.25402 c 5.38528,8.06372 -3.2872,-8.62294 0,0 z m 4.08032,3.88298 c 2.7253,13.60989 3.79835,-2.6549 0,0 z m -26.64277,5.38332 c 1.39504,2.95621 0.55767,-2.98304 0,0 z m 131.83351,5.14966 c 8.78627,18.73354 6.1547,-0.27196 0,0 z m 14.94617,6.67929 c -2.37795,10.83163 5.07102,-14.14971 0,0 z m -107.86573,-0.42119 c 4.11861,7.65243 -2.37606,-7.37323 0,0 z m -30.22294,-0.021 c 5.07499,7.77155 -2.68592,-7.3783 0,0 z m -62.27042,13.08704 c 0.26919,8.15471 2.12531,-6.71286 0,0 z m 53.01443,7.81982 c 6.77719,9.32947 0.19828,-4.57765 0.82136,-4.10204 l -0.82136,4.10204 z m -54.2932,1.01043 c -0.0137,4.87285 2.83271,-7.40263 0,0 z m -2.59198,3.4997 c 3.36167,0.45594 1.87218,-4.21732 0,0 z m 101.12133,18.63732 c 1.32801,-0.68198 -1.3303,-3.51744 0,0 z m -102.52518,0.73299 c 2.45593,0.95969 0.0127,-1.52712 0,0 z m 122.40458,30.67105 c 2.95643,5.80186 1.63551,-1.3676 0,0 z m -123.53066,4.34221 c 1.82153,4.85188 -1.0399,-8.82714 0,0 z m -0.97466,7.45297 c 1.82049,1.51752 0.91491,-2.725 0,0 z m 142.76917,8.09226 c 6.18549,10.59684 -2.80634,-7.73024 0,0 z m -143.51893,-0.3446 c -1.39171,10.81626 3.48508,-7.00346 0,0 z m 152.95428,21.86362 c 1.82075,3.087 0.80024,-4.26892 0,0 z m -1.90666,5.85002 c 0.53001,3.13248 2.08109,-3.06469 0,0 z m 13.84267,31.2012 c 1.39508,2.95617 0.55762,-2.98305 0,0 z m -176.97765,26.0106 c 1.39508,2.9562 0.55765,-2.98304 0,0 z m -209.811867,28.87254 c -10.494233,13.79768 -27.435391,17.36276 -1.231636,6.38506 3.280084,1.07914 1.273345,-10.59921 1.231636,-6.38506 z m -18.41807,26.41753 c 2.176246,1.54193 3.533351,-11.62683 0,0 z"
       id="path3978"
       inkscape:connector-curvature="0" />
    <path
       style="fill:#663090"
       d="m 635.14518,279.55082 c -0.095,143.87464 -0.18995,287.74927 -0.28493,431.6239 -278.35243,-0.19328 -556.704891,-0.38655 -835.05732,-0.57983 0.18994,-287.74928 0.37989,-575.49855 0.56984,-863.2478 278.352447,0.19328 556.70489,0.38656 835.05734,0.57984 -0.095,143.8746398 -0.18995,287.74926 -0.28493,431.62389 z M -88.354609,-90.202084 c -1.54621,24.19525 -2.823559,51.324814 22.195609,58.913711 7.166405,29.1989764 47.518753,36.2131199 37.136836,70.45231 16.066321,15.815091 32.8946711,13.097303 44.37927,25.007818 19.766473,-3.008507 14.037348,-4.563124 20.809811,15.102955 23.526427,7.51449 35.884591,22.7956 43.04014,42.97524 18.982591,11.63267 32.213253,21.70692 40.952903,46.65984 -8.57317,29.11752 18.77223,27.22274 27.06388,43.76085 0.0788,20.77453 31.16926,37.76864 1.79654,25.76611 15.5655,10.94186 -13.21426,16.78503 -25.02663,9.45769 -8.04775,18.23712 -24.448926,-6.38943 -35.709172,8.14322 C 76.526192,241.684 96.416193,219.63266 68.512743,234.16284 43.779875,217.7916 68.494194,198.02731 45.341477,181.72658 30.407238,169.96538 4.7408885,197.5626 -9.6959351,181.41232 c 0.8779227,-15.85043 -4.3126739,-67.2005 -26.1998969,-36.39559 -24.861798,5.87894 -22.829683,-54.383195 -45.494911,-25.10391 14.382019,20.61064 -10.924993,40.67462 -20.295617,14.11529 12.969218,33.39232 33.208107,2.84418 23.689285,-18.41303 27.639116,-12.02547 12.530149,33.50123 38.480317,31.4418 41.0611858,-37.41646 14.157027,63.99561 48.8696563,37.43488 24.2532397,2.43853 35.1301077,-11.06797 49.0234857,16.72256 -20.41646,14.09266 7.742025,38.06312 19.820494,34.11385 3.336581,21.31947 13.875299,27.71951 29.624412,19.17116 13.33997,8.50557 23.96223,-9.52496 38.97279,0.17871 25.64823,1.11138 1.37337,12.65098 -13.18376,2.23465 -1.41892,2.39364 23.35059,9.95219 12.64833,14.00974 25.04365,16.47775 -6.9295,-0.70243 -20.44485,6.61588 -30.635124,-6.46405 -0.69009,48.30509 -24.02651,11.33674 -10.186839,-16.18207 21.68791,43.13594 12.43412,2.8018 -12.93002,-17.18407 27.70817,-2.85975 28.31526,-7.62083 20.8227,-10.81342 21.91936,23.49469 2.39373,22.71586 -10.7808,0.12125 23.06651,2.20988 -0.17106,9.89491 15.65771,10.39882 -26.259,6.02284 -26.15078,28.7115 -18.12571,-1.08149 -14.08808,-48.96713 -37.311053,-17.15953 -4.306525,-0.15102 31.493933,-15.31818 25.905503,15.63434 13.65583,18.09919 36.5,-42.53664 39.75927,-4.31173 -10.67866,-7.58189 -34.76365,39.38116 -10.09616,8.58484 0.63035,-15.6125 27.24332,-8.66678 2.17902,2.73644 -17.89443,21.97868 -34.39154,43.47944 -35.25912,69.48449 3.38912,15.75905 -22.502463,17.38124 -33.161788,26.90262 -2.169168,22.63189 -4.847403,37.81605 -30.038747,38.18487 -17.94779,-3.38025 -30.389119,23.92009 -36.812151,43.11305 -23.093678,5.25526 -33.242984,38.92638 -31.849071,62.09344 -13.540898,19.25101 -23.024317,35.13358 -34.800043,47.57607 -14.052118,6.52877 13.378028,3.63116 8.94969,-10.95733 16.214802,-11.99165 34.646744,-32.73167 32.970671,-59.01025 4.787984,-26.28823 14.3129402,-24.08145 30.688659,-32.37941 4.842004,-29.71322 13.984815,-36.44484 33.762557,-44.47954 28.289102,4.28435 25.414503,-17.53115 29.58341,-37.70271 25.427716,-14.34478 -11.684508,35.4229 14.460746,41.75447 -13.352182,15.69085 -27.764434,22.63657 -20.898477,40.63964 -15.693564,8.61994 -9.07108,40.23826 -6.049284,7.46964 16.602727,-13.80979 -2.224066,-30.476 24.345209,-40.93361 4.424869,-15.47895 -15.483808,-28.63756 1.445723,-46.92142 7.685552,-15.75253 12.001186,-6.16135 22.927626,-20.14629 4.7053,21.07315 -4.84514,-36.30551 4.1219,-28.85602 2.67094,2.41366 26.26274,-40.98947 30.28878,-33.8981 12.0752,10.19314 29.86478,-13.66085 15.11857,10.95989 2.13347,14.30368 6.28292,-48.48007 18.21266,-30.10836 -7.54723,11.68948 -10.0804,33.67883 4.29727,5.03456 1.18509,-1.5001 0.10494,49.91416 0.42185,18.91737 -0.59716,-14.6661 12.87318,-13.27385 5.50321,-0.0946 10.17322,-10.83372 -19.0172,59.25021 3.628,14.70096 9.02545,-27.19308 -0.10621,33.3753 -8.77013,40.34624 -3.20312,17.50924 8.65247,28.75701 -0.49166,46.96221 0.28891,27.77131 -7.0664,51.40473 -13.54006,77.18148 -19.05525,22.85304 20.96449,34.60139 3.97103,49.41082 -14.18877,32.51901 9.85171,-0.49268 7.28142,-13.0499 -17.94449,-10.48811 -12.71287,-28.84682 -8.06621,-48.55134 9.26041,-23.03741 12.73329,-38.27639 14.13842,-59.6312 -0.93487,-20.37307 2.47443,-43.79773 7.24358,-67.8994 29.81333,16.4267 -3.58567,-58.8675 12.66978,-42.83409 9.52118,15.21827 34.03926,44.14751 3.83085,49.41567 -26.82829,9.88803 0.92065,44.92844 13.76994,16.78176 16.64363,-25.96569 18.70444,-1.91753 13.50435,15.96864 8.36881,17.28282 2.59701,48.92785 4.93757,10.56648 -10.57818,-16.68704 6.77462,-50.72174 7.12259,-24.88936 4.77378,-15.56556 -26.87327,-73.77087 -0.47792,-38.18199 8.22912,18.75556 7.7796,-2.37925 19.74815,23.61326 4.61598,16.60902 1.33007,34.52809 4.10547,6.9994 -4.35724,-21.70539 -41.85693,-60.34864 -28.09275,-63.99717 3.46805,21.50721 19.21126,1.27762 17.22283,27.47614 8.84885,27.83311 -5.07173,-37.04063 13.06781,1.28026 14.45902,11.9185 3.2845,20.09414 12.96399,14.47256 17.73982,10.48304 -20.70658,30.4933 5.95609,48.60077 23.49334,-7.01654 7.9532,41.13218 33.22611,41.33095 11.24938,21.74877 3.32267,44.17982 23.00108,64.3557 -11.971,13.86387 17.20413,31.89988 -2.95784,8.46782 10.11841,-24.25625 -22.48229,-37.11352 -11.51185,-61.86927 -11.52351,-24.16435 -28.64878,-22.47019 -27.64792,-51.52489 -21.07442,-4.13505 -28.0565,-27.0737 -10.71254,-41.60408 -14.16458,-19.8292 -10.62598,-18.10963 -9.81431,-20.25221 -19.16367,-13.33947 -14.02556,-37.06094 -3.27853,-24.57673 -20.13623,-21.81441 25.77683,9.14739 35.67152,0.68825 15.54141,25.02889 12.797,29.75749 37.38776,45.14108 0.36831,13.88566 9.3715,-4.26433 5.35191,12.65815 9.49941,10.57554 18.37918,20.27805 29.79145,8.08967 18.76675,26.13382 19.29064,10.59772 18.94309,37.5585 1.01343,25.12009 15.87717,38.17436 37.69602,28.85381 25.15063,23.33562 37.48081,52.45256 74.27631,54.80827 19.763,3.44317 30.07825,7.49257 39.71085,26.2004 12.56519,-4.52001 -12.78519,-10.77296 -12.51631,-25.27924 -23.79718,0.0891 -44.14243,-15.32972 -67.42319,-23.00597 -7.06904,-23.92709 -28.23863,-42.36956 -48.8592,-50.59318 23.77871,20.65155 -30.2302,13.91689 -15.92,-10.10472 14.30181,5.17598 -2.6607,-27.71994 -14.85647,-37.89844 -6.75893,0.25909 -9.68977,-22.26518 -26.65532,-4.42268 -1.58219,-17.67455 -32.53076,-34.57928 -36.93783,-54.64228 10.64338,15.11702 23.22867,-6.61227 26.45775,17.81748 14.56539,-4.18995 20.95874,19.65841 30.92938,-0.11072 16.82095,23.52984 4.51672,-12.80394 -6.47735,2.33443 -4.98419,6.55258 -21.56857,-8.96796 -26.39349,-12.56292 -6.43788,-16.50854 -29.57055,-0.0623 -37.41623,-27.62406 -15.1089,-13.41767 -30.22049,9.50009 -42.69334,-12.67488 -7.77497,-7.96984 -16.1872,-36.98343 -0.11981,-11.03663 6.79244,-1.96583 16.81605,4.59633 32.09946,-1.54084 -1.41269,-23.05441 39.95976,20.48535 31.07261,2.10365 -13.19577,-3.60002 -20.23071,-16.69895 -34.90498,-9.49157 -9.45527,-4.80701 -27.38426,-0.96711 -16.43319,-14.51534 5.81367,-6.89675 38.37937,2.26062 6.49627,-5.14307 -25.64298,4.52393 -12.62492,-11.18348 -9.71614,-8.24797 -1.25133,-1.74974 7.79561,-16.84065 24.5249,-3.16317 19.54914,-19.57617 37.24742,7.59436 48.32534,14.57262 11.98609,-6.76959 22.29925,7.04376 22.98914,22.2035 11.3441,-29.57521 -25.3351,-25.84694 -28.1588,-31.71733 -10.27543,-36.98308 12.43585,-10.49335 27.51049,-1.67308 5.10168,-10.34261 21.06499,26.0174 22.27132,-2.74073 -1.14015,1.15103 -12.08986,19.79039 -16.56974,-4.20894 -15.54984,10.577 -47.1803,-32.63105 -17.01742,-41.10407 8.44509,-22.16409 29.42948,27.81974 34.61926,-0.62153 17.75273,3.46991 17.7356,44.5583 39.88914,14.02634 12.5287,-9.77595 22.78109,-28.00834 37.52155,-20.74 25.49553,-5.88168 -7.52501,-0.28027 -15.39874,-6.3079 -30.14029,29.03915 24.62681,-37.79599 -8.70379,-2.66233 -3.5653,25.23215 -37.10654,21.22976 -24.01295,-8.46021 -9.40791,-16.51945 -14.96313,-15.36231 -15.70209,-37.10457 -17.12189,-10.19166 -52.49414,16.24686 -36.95948,-24.09096 -1.17557,-16.84649 27.99584,-28.70989 6.56885,-23.62025 20.0189,-16.10365 42.5221,13.20362 50.7339,-15.68258 4.08998,-17.35183 30.12631,7.19071 47.70751,-20.22423 9.85617,-11.412661 -9.39986,-50.517383 27.96397,-38.916273 8.70094,-26.620492 32.26128,-31.10679 46.03192,-49.573501 -15.38841,16.54038 -40.91716,14.747397 -47.81605,43.221338 -41.72667,-13.546401 -24.87013,45.773846 -37.69023,48.313626 -12.64693,2.13951 -20.20059,-5.93871 -42.75587,6.64233 5.15735,28.34615 -39.33495,7.51529 -49.83617,15.49859 7.68145,-25.54799 25.4257,-31.23857 48.11748,-42.850705 8.95743,-13.00665 -22.57629,-38.481112 -2.95753,-13.323373 14.52922,25.316818 -39.56843,14.113333 -35.24188,39.117008 -26.0294,11.49401 2.44625,75.08809 -36.24436,70.48161 -10.02743,13.07252 -29.35549,3.58424 -27.59417,19.02059 -21.8406,-9.84658 15.04486,-21.72933 2.72416,-37.99739 6.79645,-13.14569 29.41068,-26.1163 20.66525,-35.83991 -6.1735,18.19902 -23.80477,33.40795 -29.0748,54.29923 -12.07264,16.95879 17.51294,38.00265 -17.95715,34.45511 -12.41957,-7.7132 -36.95124,35.61298 -23.33462,6.57431 20.77,-13.98934 14.52815,-11.94684 -0.23261,-2.74766 -22.05463,-3.09832 -1.25887,-12.61951 1.29713,-18.53683 -19.41537,18.10876 -32.5579,20.63985 -7.55176,0.35777 17.64107,-9.57215 50.03802,-19.19709 39.95507,-47.50095 15.96931,-17.79783 16.57886,-43.69947 46.05139,-45.37842 10.8645,-10.95118 0.99636,-31.193169 2.96591,-3.27023 -33.31138,2.39134 -33.81893,29.63069 -50.86207,49.49039 10.31575,23.74507 -17.16553,35.37113 -33.83119,39.88756 -33.07466,38.25082 -5.5532,-12.594 -13.354,-5.33794 -22.4233,42.53676 6.2314,-31.07725 18.87227,-38.90617 -10.8667,-32.38857 -9.02228,-71.452398 25.11313,-89.220432 -5.29641,-5.284776 -39.50044,33.738142 -33.80145,54.523442 8.3543,16.56081 8.46318,53.42735 -12.1461,58.79077 14.43129,-34.71495 -24.70935,44.52298 -10.3679,5.5119 8.569,-20.74073 3.00351,-34.76427 17.31703,-53.11625 -0.58113,-24.09688 -1.63653,-45.674718 2.71039,-56.111493 -13.46339,13.470693 -2.64171,67.946813 -12.70275,59.947123 -11.77002,6.90148 -5.49517,46.06816 -18.84549,32.46772 -12.07128,39.1777 -16.17684,-5.33025 7.62,-13.32171 -3.28558,-17.43097 -8.59796,-34.28352 -9.74009,-44.24394 -2.6878,14.3755 16.33801,48.85588 -5.09748,48.60824 -2.64931,-39.45845 2.47841,33.48091 -12.37261,-2.49911 -4.21973,1.05141 2.49475,-48.72059 -3.38481,-44.68988 4.31466,24.06408 -10.42732,36.77228 -6.08066,56.55675 -8.18854,10.48821 -9.68461,-20.49029 -8.34406,3.72335 -10.39422,-19.05131 10.19784,-41.05573 -11.35549,-43.8637 8.75233,7.77805 18.49007,18.20184 1.68959,22.05094 -4.35236,-9.31843 0.61762,-30.1608 -7.99913,-12.73926 -5.12936,-24.25298 -13.04745,-41.583594 -31.595,-57.47525 3.80265,-19.866501 1.67692,-54.368326 -13.41036,-61.731374 28.83315,27.200871 -3.84095,69.905683 35.591,86.586614 3.50032,26.06342 0.74519,50.42363 8.70729,75.58943 1.57719,30.7042 -18.75916,-60.3419 -8.42258,-10.6212 6.06677,22.17052 -0.93248,19.21393 1.66076,17.80755 6.60784,17.18215 -1.66515,32.89165 -3.30137,7.13793 -2.01116,-8.05865 0.76235,-29.94356 -12.2338,-35.81352 2.12345,-15.07034 -28.53082,-59.63284 -9.58929,-31.87452 2.49868,24.6018 10.904,36.36023 20.28048,54.68375 -8.5665,3.84059 9.36629,35.10408 -6.00305,21.68169 -2.50502,32.59819 -15.51193,-29.70505 -18.82048,-41.21919 7.67615,-21.97775 -12.28553,-36.45558 -11.94813,-54.9774 -5.00034,21.7532 22.0347,31.90202 9.25344,53.38028 21.43612,30.28996 -46.07908,33.94563 -29.75941,-1.97713 C 115.36472,140.34051 101.0515,127.77629 105.08951,128.48437 69.16705,123.45779 79.382687,78.82623 56.980299,61.990047 78.28421,53.628634 75.046141,24.419462 48.036774,24.052619 34.132521,8.8633584 50.830876,-7.2969675 33.413953,-23.530699 50.038126,-38.409126 16.328396,-95.11269 34.580566,-53.176689 43.562179,-34.27585 20.508813,-15.076614 43.749485,1.0708134 22.666293,32.214502 92.787797,28.487799 62.68174,56.319574 36.819776,66.563768 92.524466,86.936317 55.000405,81.938066 31.765577,80.224701 40.281613,40.080736 15.7159,56.563594 9.7245754,32.150221 -35.385166,59.490916 -22.373826,18.84266 c -11.584598,-29.607413 -37.987739,-39.613067 -55.182055,-63.13308 -17.833602,3.069598 -3.489769,-57.61151 -10.798743,-45.911727 z M 191.02988,139.83703 c 14.57017,56.73804 -21.75969,-12.38317 0,0 z m 32.89597,19.30426 c -1.86205,8.69199 17.8893,7.226 -1.23746,13.73455 0.32272,-3.14754 -11.44325,-29.57201 1.23746,-13.73455 z m 0.83082,10.11101 c 1.33222,4.4067 0.3756,-4.40036 0,0 z m -24.59298,-11.37151 c 3.33934,39.44805 -7.07017,-6.98454 0,0 z m -4.21952,1.22648 c 3.82551,12.94173 3.17369,46.62314 -2.72183,13.49723 -0.40754,-1.53845 -6.43054,-22.43055 2.72183,-13.49723 z m 8.05906,7.74247 c -1.75841,5.87106 -1.93074,-5.13825 0,0 z m -0.45227,7.07417 c -1.71381,4.59226 -0.84767,-5.79755 0,0 z m 28.16328,2.62079 c -0.51571,16.57442 -6.10384,-8.13539 -0.18628,-0.9287 l 0.18628,0.9287 z m 6.08642,-1.536 c -3.31449,9.77481 -5.1031,-2.93691 0,0 z m -30.10837,0.93551 c 7.13058,16.53097 -6.82807,-6.6542 0,0 z m 18.38247,2.37144 c 1.60048,14.51071 -16.09384,-6.24943 0,0 z m -9.48078,2.82341 c -4.95441,6.44416 -3.22637,-7.2493 0,0 z m 42.94822,1.07766 c -5.54335,20.26641 -11.38876,1.32942 0,0 z m -15.02728,2.22358 c -1.33797,4.40483 -0.36981,-4.40082 0,0 z m 172.96274,8.82013 c 9.03663,15.13396 4.75684,29.16834 19.6027,38.41056 -9.95286,26.21039 10.12742,30.29853 19.50987,30.82483 -15.17528,19.58493 -31.56773,19.97057 -37.08735,-6.95948 -16.31016,-8.86843 -17.15744,24.17521 -30.81272,-6.27287 -22.14565,-8.0914 -27.45985,24.62634 -39.04431,37.48197 -20.19311,-12.17581 -32.9066,2.54249 -49.19264,-9.80706 -12.64144,30.13314 -24.02299,-11.09188 -0.26517,-6.35825 14.10078,-10.12639 -20.83091,3.59209 10.339,-13.2302 0.49311,-32.78641 14.9634,28.00427 22.14302,1.85314 -5.6747,-18.78918 40.61523,-8.01892 2.43678,-13.21067 -9.52152,41.70026 -29.66042,-15.30333 1.47021,-15.24999 -8.7404,-17.98072 24.61418,-38.92098 47.31068,-32.76217 12.36052,-0.094 20.18723,2.31348 33.58993,-4.71981 z m -41.51879,31.26172 c 1.38863,3.03973 1.82438,-4.90225 0,0 z m -7.40761,2.55573 c -10.38215,17.52221 7.21823,-3.07967 0,0 z m -29.17776,8.68891 c 2.65751,-1.15773 -2.62878,-6.41983 0,0 z m -23.63034,14.95579 c -0.55742,4.53523 3.27846,-3.45786 0,0 z m 19.04314,10.91635 c 2.77107,3.12518 -0.81929,-2.89126 0,0 z M 155.09594,193.36945 c 12.24076,16.25208 -1.87848,58.90769 -5.97603,18.96229 -13.21684,-14.26009 -11.16843,-20.90605 1.21226,-14.07512 -9.83684,-3.21028 0.0775,-6.84897 4.76377,-4.88717 z m -1.03777,10.81892 c 1.34497,2.96108 1.34895,-2.95919 0,0 z m 109.49186,-3.6459 c -1.68137,9.6133 -13.33523,10.22352 0,0 z m 17.16592,25.41693 c 2.7056,20.65921 -21.34499,10.24465 0,0 z m -8.70006,2.33683 c -2.21081,4.46708 -0.3589,-4.49785 0,0 z m 50.55932,1.26385 c 15.20832,4.82097 -17.25397,15.99546 -4.05223,3.56892 -13.63396,11.44469 -8.67022,-8.85112 4.05223,-3.56892 z m -16.86969,0.83415 c 1.5068,4.67314 -4.11452,-2.71604 0,0 z m -10.10103,1.83582 c 0.54863,6.72238 -7.6926,0.005 0,0 z M 83.092546,231.95764 c 0.461411,2.57894 -6.914349,-0.0506 0,0 z m 80.199494,1.34152 c 1.95459,5.83184 -4.036,-4.47913 0,0 z m 147.72342,6.88208 c 4.99594,15.72244 -14.14158,-9.21935 0,0 z m -14.54195,-1.33039 c -0.29721,3.0755 -4.46998,-2.7293 0,0 z m -20.87574,4.69104 c -0.84523,5.46005 -3.26436,-4.92317 0,0 l 0,0 z m 21.54446,1.41287 c 19.16112,19.18789 -24.61176,-1.33351 0,0 z m -17.52679,1.00028 c -0.91495,2.72497 -1.82044,-1.51758 0,0 z m 9.22115,19.23477 c -1.41452,4.85768 -1.70284,-2.85916 0,0 z m -0.0643,7.27095 c -1.16186,3.0617 -1.32362,-2.426 0,0 z m -130.21351,0.43647 c 0.41211,4.00138 -5.80962,-4.82843 0,0 z m 147.40038,9.09479 c 9.80509,6.01881 34.41023,6.9963 6.83716,16.61074 -3.02005,-3.82035 -24.17293,-16.9594 -6.83716,-16.61074 z m 34.8109,3.25482 c 37.59227,17.53343 -29.05492,2.29987 0,-3.2e-4 l 0,3.2e-4 z m -181.65226,22.8467 c -3.15724,8.64245 -3.15017,-6.62447 0,0 z m 122.9005,4.08965 c -0.35126,3.28332 -2.9144,-3.30575 0,0 z m 8.27341,7.5929 c -3.46097,11.08038 -3.26186,-10.40025 0,0 z m -135.2207,-2.59649 c -1.89236,2.62083 -2.26601,-1.43829 0,0 z m 2.94993,4.94096 c -4.82006,10.06713 -7.58211,-3.32572 0,0 z m 121.54008,6.49974 c -1.2996,4.38368 -1.29386,-4.38546 0,0 z m 26.6389,0.44001 c 9.42131,18.19837 -41.4662,-0.57558 -4.68498,0.73078 l 3.0479,-1.46529 1.63708,0.73451 z m -133.17996,14.61816 c -11.55354,23.22947 -19.66576,-4.41604 0,0 z m -21.23086,3.77122 c -2.2231,7.53988 -3.27367,-5.64597 0,0 z m -4.41993,-0.039 c 2.40665,18.21265 -23.10345,5.52575 -25.15553,30.1018 -2.84625,-14.27521 17.44726,-23.92015 25.15553,-30.1018 z m 6.49747,4.05672 c 0.88384,24.66507 -15.67669,1.39429 0,0 z m 112.96495,3.6219 c 9.35217,21.27333 -9.33334,-5.33719 0,0 z m 19.83744,-0.22853 c 9.96095,15.01686 -16.03423,-0.3086 0,0 z m -26.15394,0.88917 c 9.329,12.70164 -7.14217,18.94318 0,0 z m -104.73085,4.45699 c -2.1015,24.01406 -5.45752,-9.34713 0,0 z m 142.23931,1.46192 c 9.33367,12.29803 -12.32344,-0.32024 0,0 z m -121.23708,2.2369 c -2.82824,6.92522 -0.65787,-4.86967 0,0 z m 140.39855,1.46916 c 6.26699,12.82687 -16.44911,-4.40585 0,0 l 0,0 z m -43.2202,-0.86291 c 5.32742,19.52871 -14.42679,-3.40938 0,0 z m -18.75914,4.48545 c 5.11294,13.61283 -7.25681,-12.41692 0,0 z m -117.5646,-1.98274 c -0.10291,24.80429 -23.42884,22.19743 0,0 z m 110.75746,2.13642 c -2.05552,1.407 -0.55928,-1.71314 0,0 z m -27.22811,4.04275 c 10.7258,41.62156 -25.19012,-16.08027 0,0 z m -10.37797,-1.52849 c 2.45312,32.2555 -6.32769,-6.7838 0,0 z m 102.17431,-0.13473 c -1.65831,11.2765 -24.3556,-0.59404 0,0 z m -46.53249,-0.0228 c 14.82777,24.85421 -20.97906,-5.96724 0,0 z m 54.74511,0.34177 c 15.23394,16.71719 -0.56515,12.97947 0,0 z m 5.58273,2.36896 c 3.59675,11.26401 -8.40031,-5.47472 0,0 z m -74.14191,-0.51494 c 1.41802,5.83614 -4.36275,-5.71675 0,0 z m -26.41506,5.77799 c -0.32357,14.77936 26.64833,39.8236 10.02096,46.07829 -11.58777,3.90795 -30.67184,42.35394 -36.36651,14.02794 -0.0793,-21.47757 43.1001,-10.72147 23.36653,-33.27782 12.82249,-2.34613 -9.35881,-25.99676 2.97902,-26.82841 z m 16.20447,2.43432 c 7.44162,24.82554 -11.00853,-10.42868 0,0 z m -6.37732,1.4211 c -0.0816,4.07857 -1.83232,-2.98666 0,0 z m 102.12107,6.88292 c 19.33519,27.64675 -19.29962,-14.68907 0,0 z m -62.9845,-2.51253 c 16.25209,15.52623 -11.03449,-4.62543 0,0 z m -151.13358,1.08685 c -5.51753,19.26957 -8.20911,-4.42219 0,0 z m 152.54471,4.2933 c 14.22816,20.42107 -8.14052,-0.39607 0,0 z m -76.1505,2.70897 c 17.96428,41.5935 -31.78352,8.94446 0,0 z m 48.91547,-1.93987 c 14.97431,10.08231 -15.58353,5.77069 0,0 z M 110.3888,404.66734 c -1.03056,11.39918 -5.77486,-5.7674 0,0 z m 239.84193,9.00422 c 8.98992,12.65017 -10.82758,-5.38505 0,0 z m -164.47798,19.28206 c 3.55568,28.9886 -11.56504,8.39065 0,0 z m 227.14343,36.05356 c 1.85355,15.45001 -6.46478,-6.9403 0,0 z m 44.32272,38.45656 c 4.191,10.19413 -8.53773,-9.69181 0,0 z m 6.03534,7.38059 c 1.57026,5.53894 -3.50518,-6.8216 0,0 z M 241.71727,6.9344018 c 0.7946,4.2699942 1.82485,-3.0844773 0,0 z M 459.1678,9.2223017 c 3.59318,4.7159913 -1.9651,-5.5669538 0,0 z m 4.4559,20.4210773 c -19.73344,35.743438 1.93315,11.387419 2.02633,-13.65207 -0.64246,4.555794 -1.23047,9.120047 -2.02633,13.65207 z M 343.0084,18.806225 c -0.90412,7.389552 3.46987,-7.989093 0,0 z m 223.10848,1.035287 c 0.006,6.152466 2.56698,-7.141054 0,0 z M -57.589443,42.182363 c 2.020837,2.980768 1.374647,-3.043956 0,0 z m 502.847553,6.602859 c -3.13939,5.39155 4.84824,-4.378087 0,0 z m -474.312226,3.533147 c 5.276048,3.593948 -1.68024,-3.556455 0,0 z m 467.975926,9.262389 c -2.41825,6.46357 9.23592,-13.105536 0,0 z m -209.49694,1.902655 c -1.20516,9.980347 3.15638,-12.401109 0,0 z m -2.90888,13.038368 c 2.54531,-2.121228 1.8791,-11.675975 0,0 z m 44.51408,-1.977116 c 2.30304,1.475689 0.33876,-3.921897 0,0 z m -45.86371,8.734042 c -7.94216,40.647343 1.05957,8.812863 0,0 z m 259.40954,9.200722 c 2.28097,1.151196 -2.14852,-3.921374 0,0 z m -243.20191,3.89449 c 1.87605,27.003171 6.20848,-6.729056 0,0 z m 235.11309,13.684371 c -1.75797,5.35534 5.51238,-6.33056 0,0 z M 182.92073,130.3413 c 1.38805,3.00726 2.34023,1.85655 0,0 z m 46.53407,10.32068 c -1.59027,17.83544 2.57317,-6.33278 0,0 z m 266.91271,58.87937 c -2.97089,15.96248 -2.9273,36.78213 -10.18192,31.432 14.54957,8.41802 8.27579,-33.56689 13.69885,-33.01169 l -3.51684,1.57983 -9e-5,-1.4e-4 z m -16.23354,29.89677 c 2.45594,0.95969 0.0127,-1.52714 0,0 z M 61.060044,268.30287 c -12.093804,15.17944 8.88,-6.9264 0,0 z m 3.298047,-0.64508 c 1.377245,2.13286 9.921065,-0.77565 0,0 z m 5.831716,1.96043 c 2.455965,0.9597 0.0127,-1.52714 0,0 z m 66.178153,2.05739 c 4.41479,2.67897 0.47536,-3.70313 0,0 z m -54.661208,0.67655 c 1.393912,4.93998 5.542822,-4.08725 0,0 z m 4.348971,0.39646 c 0.336827,2.06342 4.427397,-0.71394 0,0 z m 4.849651,2.46757 c 9.326306,15.62398 -0.655704,0.65493 -1.2e-5,0 l 1.2e-5,0 z m -33.16847,6.08322 c 10.88261,28.48654 -11.582476,0.11523 -24.054093,14.4375 15.460406,-7.90103 35.484569,12.78104 24.901791,-15.55075 2.913247,-3.67671 -6.948119,-6.90963 -0.847698,1.11325 z m 364.488876,29.90986 c 1.32795,-0.68197 -1.33028,-3.51744 0,0 z M 74.737708,331.63943 c -5.007317,23.69919 3.934085,-4.13458 0,0 z m 316.917062,3.82518 c 1.6631,-1.6119 0.17761,-3.0042 0,0 z m -18.04736,2.49423 c 5.60795,6.60035 -1.54475,-7.27526 0,0 z m -305.536334,1.38367 c 0.02795,2.21253 3.285305,-0.56676 0,0 z m 250.350994,4.9006 c 3.47689,3.09455 -0.8469,-2.81531 0,0 z m 35.60844,1.67715 c 21.33238,18.559 52.21019,22.36362 62.7554,56.08317 14.92829,12.67828 33.22879,13.32393 5.24017,1.77535 -13.12802,-32.74032 -41.37012,-43.99593 -67.99513,-58.52153 -4.58805,-0.24855 -1.75846,0.26318 -4.4e-4,0.66301 z m 48.07153,28.67129 c -0.19002,4.21524 -3.11561,-3.0658 0,0 z m -292.43615,-7.67369 c 2.46696,2.86103 -0.0774,-4.03506 0,0 z m -43.247001,4.59805 c 1.59217,3.03591 0.138075,-4.16596 0,0 z m 351.234041,9.78792 c 11.07898,7.95864 -5.57124,-9.32503 0,0 z m 5.93979,3.89859 c 12.1307,7.71207 -7.67292,-7.36017 0,0 z m 30.71461,3.10705 c 3.79469,18.43031 85.7279,30.19898 47.01138,22.65803 -15.39292,-6.52405 -37.8367,-11.8776 -47.01138,-22.65803 z m -24.19295,0.26954 c 8.20974,4.48694 -2.28793,-4.23577 0,0 z m 5.97994,0.42567 c -2.67951,3.28077 10.49276,-0.77574 0,0 z m 86.70275,16.07749 c 1.40634,3.15165 2.63733,-3.02986 0,0 z m -189.46533,1.10332 c 1.97684,2.81414 2.80533,1.39657 0,0 z m -42.13593,3.79398 c 5.60219,5.94048 -3.1752,-5.61416 0,0 z m -275.910448,6.55252 c 1.370549,3.04589 2.02483,-2.97792 0,0 z m 240.083058,6.91085 c -0.15367,2.83203 2.6838,-8.15264 0,0 z m -4.49836,2.98377 c -0.74662,5.41591 2.60014,-4.70846 0,0 z m -141.07657,21.5874 c 1.88419,2.26746 -1.86861,-4.78917 0,0 z m 1.69694,2.30542 c 1.39508,2.95618 0.55762,-2.98306 0,0 z m 71.68732,12.0768 c 1.73717,2.04334 -1.73676,-4.61433 0,0 z m 38.66277,6.59592 c 1.82081,3.08696 0.80023,-4.26888 0,0 z m -123.139418,1.55078 c 1.395068,2.95621 0.557649,-2.98307 0,0 z m -163.378754,14.72953 c 2.299571,1.46001 1.971535,-2.67233 0,0 z m 486.722152,2.60019 c 4.11843,7.74071 -1.36024,-8.04348 0,0 z m -88.22202,-1.52091 c 1.82045,1.51757 0.91495,-2.72502 0,0 z m 132.63484,26.59735 c 1.39508,2.95616 0.55763,-2.98308 0,0 z m -285.10803,26.99902 c -0.72514,6.68229 4.0058,-5.80111 0,0 z m -3.05538,10.89703 c 2.49117,1.98334 1.21844,-3.97415 0,0 z m -252.566036,91.49464 c 0.200906,4.42038 5.623063,-4.32865 0,0 z"
       id="path3976"
       inkscape:connector-curvature="0" />
    <g
       id="g2987">
      <path
         inkscape:connector-curvature="0"
         id="path3974"
         d="m 635.14518,279.55082 c -0.095,143.87464 -0.18995,287.74927 -0.28493,431.6239 -278.35243,-0.19328 -556.704891,-0.38655 -835.05732,-0.57983 0.18994,-287.74928 0.37989,-575.49855 0.56984,-863.2478 278.352447,0.19328 556.70489,0.38656 835.05734,0.57984 -0.095,143.8746398 -0.18995,287.74926 -0.28493,431.62389 z M -116.22716,-106.1773 c 24.932857,10.865991 -6.68277,65.549984 29.05335,61.680858 15.204705,4.048181 45.78835,39.9024372 12.352648,34.149246 -15.861122,2.065739 -34.394118,-12.597775 -6.429767,2.9102032 28.38426,-11.9809612 57.044966,19.2596048 52.878397,50.2693028 20.4654111,12.461968 50.277405,16.762398 50.183415,50.387494 -11.012313,37.640886 28.902182,45.856376 53.433617,65.391066 5.655158,-41.94079 50.69765,-6.15762 41.1001,22.91315 20.50156,15.61068 3.91222,37.17786 -13.09184,18.28051 4.86222,-9.85239 -28.871331,-18.36756 -5.29923,-4.16292 3.60198,6.23788 24.19213,24.17131 37.48572,6.49407 13.21131,5.1451 16.69049,43.03136 -2.43809,33.22973 24.27384,13.11158 -28.25497,16.27821 -38.921888,13.77038 -14.878288,-10.14801 -1.663241,-23.85175 -24.847542,-20.88745 -25.522646,-10.7309 0.311037,-32.53922 -23.24038,-46.33991 -14.501351,-13.71206 -41.232967,15.30208 -56.102133,-1.3289 6.8046568,-24.62206 -12.004629,-41.801 -13.523518,-61.63387 7.942391,20.26441 -26.829075,35.61337 -31.014545,12.30662 -2.339741,-33.988932 -40.246701,-16.93256 -24.650817,8.78005 -7.435018,26.00645 -47.890507,-37.38405 -25.029567,-7.38356 13.193921,35.19056 37.770215,7.60349 26.648941,-16.44126 25.156241,-6.65833 23.958332,56.88743 55.090343,21.02357 16.4250509,14.22195 4.341869,70.2416 33.883201,48.48656 22.300775,-1.58107 37.318853,-7.36278 44.787256,15.87353 -5.833392,33.64202 -4.892378,-15.77271 -18.652344,0.66361 11.320504,-1.49431 18.891867,37.12144 37.54618,36.81818 12.197436,7.67401 13.216775,29.13319 8.132759,24.26113 14.283935,18.55186 48.122134,-7.47288 50.957604,10.38908 -17.4621,-3.13627 -26.88604,16.33726 -27.38703,19.36642 -10.826784,-17.38805 -34.367173,-39.3426 -50.507423,-17.31302 -5.239572,4.70413 13.601081,33.44631 -11.445531,12.26977 -18.791741,10.95147 -18.337826,18.04589 1.031688,4.12477 25.599891,29.09105 4.146114,-28.95107 27.322882,-4.58066 15.134135,-26.99355 29.490294,6.78981 39.278954,21.08978 -4.10655,-16.16774 5.23603,-40.9606 23.00886,-19.92312 -17.24621,28.19585 -12.19539,8.44677 2.50104,7.79448 9.12617,17.61208 -11.32712,38.07803 -22.35312,47.23342 -12.65264,-7.76523 -13.73773,-45.47124 -35.023372,-16.15643 -3.839257,23.30043 -37.003662,-5.73283 -33.015874,5.40775 14.922145,1.01187 26.836824,15.58683 37.631568,-5.30698 17.567958,-25.09959 32.546958,32.65129 4.706597,16.81302 -27.964586,13.27216 -34.188801,58.8229 -64.200462,64.84221 35.725794,0.37029 38.39065,-70.25391 76.225473,-60.19455 18.56224,5.52151 42.55944,-31.35903 24.86363,5.04812 -14.59367,13.38478 -25.58437,13.56365 -37.313653,24.21285 6.319234,17.95663 -2.699477,-17.45313 19.971883,-4.15317 27.85615,-30.36742 -15.710346,38.92157 -14.43587,51.68207 -14.264688,20.17749 -31.895596,-4.52738 -41.875128,20.47878 -18.139098,6.98955 -4.866473,46.78376 -36.390976,46.87967 -11.5357101,34.23754 -52.850152,54.35735 -46.38038,96.89653 -15.667591,20.81867 -20.595068,44.68622 -42.42313,50.11781 -9.74877,12.71968 24.323556,-0.86933 21.803625,-15.36106 12.354922,1.28304 23.703402,-40.24787 19.887966,-5.97551 -1.208906,5.03791 -32.708735,43.44759 -24.263326,36.7327 21.295779,-22.94891 32.296239,-43.9692 34.751238,-77.38267 -0.05463,-15.03943 27.3746285,-60.56694 29.474696,-27.27712 0.4592508,37.90916 -2.9311224,-27.727 8.705107,-37.79709 14.42835,-25.3756 44.183414,-17.7847 45.228048,-17.9246 9.43596,-7.22315 13.003462,-57.56303 18.667234,-33.83375 -17.759049,21.22409 20.851986,38.10093 -13.016282,52.43322 -7.867166,9.92827 3.071942,22.41186 -12.433541,34.31314 -3.06921,18.6967 -13.20191,59.75708 -1.041331,19.88354 5.131024,-20.05903 12.364656,-36.99708 17.725864,-54.16107 33.211586,-13.57714 -13.987101,-51.65021 24.340445,-63.7442 30.867291,-19.21384 -17.608929,34.32961 14.871171,32.51962 2.75739,24.72502 0.13427,43.87791 6.86827,65.24713 -7.03465,44.68384 6.43118,-16.34104 -3.75204,-24.63925 -5.19869,-12.67073 12.15701,-44.52049 -10.1197,-45.30063 2.53396,-21.60193 4.07442,-58.40479 19.33612,-84.24448 22.08685,-24.47179 -4.02294,43.01104 7.7123,9.2798 0.83657,-27.0535 28.10925,-27.3214 20.08255,1.13872 10.95633,3.73339 -8.99628,53.57312 2.38682,19.11364 5.64,-11.8837 -3.85468,-47.10834 12.33108,-36.93824 10.19323,-9.03494 16.92772,21.8272 9.74711,27.59082 26.23451,-10.54082 -12.14215,25.69649 5.42909,39.34179 -0.41744,22.28692 -2.22891,33.45193 -2.90988,51.04252 -0.29176,19.71707 -9.69384,37.26723 -12.1086,57.31708 -14.29613,18.05183 12.46613,37.32747 -0.53967,57.29655 1.55745,11.70874 -16.45098,61.13235 -0.72419,20.57054 -1.65878,-14.32084 23.71301,-62.4055 19.48805,-26.58748 1.06737,-18.3475 5.09979,-50.57281 -3.73348,-67.04494 4.07748,-24.57213 7.86852,-55.93751 4.70102,-74.4758 0.17658,-28.57541 2.77774,-32.07745 27.09609,-15.99537 -4.73667,17.55182 -15.54996,38.2025 -3.53122,55.8966 -3.06549,18.90195 -4.93808,-52.64384 8.30002,-58.02359 9.55722,14.30642 -18.72112,44.20239 3.07504,18.15571 21.34153,32.91881 -18.77243,-32.3464 6.08516,-32.73303 16.49131,-26.54131 4.12307,26.40387 12.58158,36.58442 -1.64839,21.76916 3.53017,28.17848 2.9508,2.72698 20.21795,-0.004 2.54975,48.84432 33.44611,36.39424 8.86018,33.23551 4.59878,-16.37285 -16.39577,-3.94542 3.4e-4,-28.07909 -25.61797,-39.6839 -20.78656,-68.85913 4.27359,-12.14881 27.83666,47.47133 14.44758,14.1903 -10.23012,-11.17743 8.16312,-63.73013 15.17545,-20.05835 -2.1115,17.16574 7.3425,44.71432 2.44935,10.16913 -0.25922,-20.65965 19.67253,58.67789 20.0309,38.49357 -14.70043,-23.56434 -16.53872,-55.15685 -28.99964,-78.62747 15.33863,24.82778 7.30114,10.18525 3.70622,-8.30218 30.31659,10.57818 4.70512,50.24142 28.07888,64.98345 10.64906,2.67123 12.90553,38.60761 31.22539,41.57607 4.28153,25.46573 12.28837,47.75455 19.02051,72.81025 3.94174,14.93714 39.75223,54.10128 14.55615,19.17189 -18.72416,-17.13681 0.44729,-43.17006 -2.57361,-11.75889 5.52555,12.12655 31.90538,7.06254 29.79123,17.33809 -14.03052,-23.09249 -29.98731,-1.96827 -32.52074,-37.37829 -27.10455,-23.03333 -8.14923,-54.89334 -36.89863,-78.31022 -10.10423,-14.13272 -18.93425,-34.61547 -27.76579,-52.21753 10.22322,-22.3968 9.21487,-16.0782 31.21301,-1.1667 29.77259,2.77627 -18.57836,40.45018 10.8699,49.40814 -9.71032,9.7665 21.57852,45.57662 10.86157,17.78751 -19.19669,-2.286 0.14893,-24.94267 -21.99665,-32.51641 22.462,-20.29536 8.6992,-43.74136 -16.83396,-47.87342 -13.79008,-10.95177 -25.04264,-34.0959 0.41813,-20.146 -15.41345,-12.75466 -19.12856,-8.5801 2.06366,-14.80046 -3.42626,20.94404 7.58803,-28.73524 18.43502,3.04656 12.57189,29.42999 40.45626,46.99257 58.17056,72.86907 -6.92059,18.45385 21.89822,51.31244 26.39935,43.35096 21.38004,11.46737 -36.87133,-18.77129 -23.33585,-35.30201 -13.96626,-35.24405 21.96779,0.1225 24.17256,18.6399 3.38693,20.22977 29.71297,38.54586 18.37585,47.06808 -2.49438,-27.80849 34.8509,-26.23085 31.64121,0.75737 11.46114,7.16007 7.41809,35.40436 17.01207,33.38049 -8.51615,-12.98453 -10.96398,-29.97792 -14.19704,-39.50844 16.42063,28.63859 51.40704,35.60911 81.27387,41.61918 11.9627,2.85805 11.66279,25.38546 27.91539,19.07231 28.97306,17.73768 -11.03216,-5.93662 -14.84506,-10.96193 -5.85634,-22.21489 -36.58149,-13.09685 -50.28335,-28.35552 -22.21178,4.53961 -44.33961,-43.97021 -14.33126,-17.84462 16.77233,15.92274 28.19508,12.99692 3.9404,2.27827 -21.12656,-17.55431 -46.24006,-37.64466 -69.28861,-55.29213 -11.59835,-21.30308 59.10102,36.88438 20.63967,1.94974 -30.34855,-9.13279 -37.43944,-38.7388 -64.01891,-58.71081 -18.41796,16.84141 -44.8868,-51.322 -15.57947,-17.96045 12.59573,-0.65609 21.676,11.19373 28.93805,2.49844 10.38153,8.25087 26.0099,14.29022 6.29324,-1.13935 -8.95206,-19.40421 -17.46595,14.81469 -27.19023,-9.22251 -17.9503,-11.66474 -40.4609,-22.22148 -58.87175,-44.60712 -31.6942,14.17405 -7.30414,-24.36965 7.24228,-3.44722 22.98581,-6.22147 41.06675,13.50601 63.29162,22.3155 16.65456,0.86215 40.00009,56.05938 56.50419,45.75676 -8.8936,-8.76751 20.15958,-8.95193 -8.14955,-6.63047 -26.84363,-5.10789 -29.28416,-38.15096 -0.39457,-18.62123 17.14418,-7.16285 21.68041,8.37484 39.50274,12.36761 17.46917,2.93506 17.01636,17.93245 19.64073,7.56582 29.89123,8.92869 13.0245,13.97017 27.18504,-3.35774 19.19618,0.3848 34.31348,-11.34044 44.31282,-7.17795 -30.08635,-8.7851 -66.488,29.32875 -91.92913,-8.8247 -24.96302,-0.27871 -49.91227,-11.7421 -74.62461,-23.23225 -12.0599,-9.08465 -54.11802,-20.49777 -47.54252,-30.18978 8.70918,-4.30684 29.50033,23.29248 25.95402,1.57605 15.09719,15.7307 28.93771,10.09108 5.944,3.77986 -18.60595,-23.33725 -1.24621,15.82109 -21.63735,-6.43583 -18.3432,-4.78623 -40.23145,-8.72334 -58.35285,-14.87596 -3.94091,-7.38185 36.93299,-7.03031 5.0549,-10.65711 11.77945,-8.03961 36.13795,0.22769 7.84036,-7.54022 20.10036,-25.31188 35.0196,14.21232 51.55411,10.87986 17.02502,6.78676 17.86511,28.18267 31.4233,24.40419 -16.17245,-3.47892 -11.37487,-41.73268 -17.18646,-33.55844 13.10603,-7.33385 23.7079,18.51113 37.87752,-1.15651 5.00114,15.77974 21.18581,8.79663 2.19049,1.79883 -5.6748,-12.68092 -16.23016,11.28975 -12.08872,-15.17008 4.02854,-22.91248 -8.28348,45.96592 -18.61947,3.80812 -20.40609,8.23633 -41.30702,-33.58612 -14.13034,-43.51685 10.31595,-9.42052 27.64959,32.82379 31.11743,3.90503 18.38764,3.86905 20.46424,45.94572 41.73594,14.32379 23.04584,-1.62142 46.29165,-15.35851 47.92379,21.77449 32.87468,14.45147 18.08649,-22.01189 32.47051,-27.82824 17.90239,-19.77544 6.67872,44.64599 38.45618,22.42778 22.04337,9.42436 16.52869,65.52889 16.87498,19.41078 -11.95965,-29.71069 -44.66598,-12.00259 -46.40605,-46.83172 -27.42088,-6.19566 -4.78593,48.48524 -41.43609,30.79235 3.71426,-38.98874 -28.53764,-18.88454 -39.321,-27.51122 10.3737,-22.50603 39.71158,-6.58727 45.91135,-15.80978 -17.00687,-2.72576 -28.87177,-7.82556 -43.06339,0.73078 6.79548,-26.51699 44.50257,-1.61544 31.60721,-32.61654 2.79366,-18.43271 12.4821,-14.09139 19.79867,-13.2311 -36.86864,-19.88918 -3.00339,46.43555 -40.85018,26.84948 -6.66067,23.16576 -40.92748,41.82024 -32.54876,2.61175 -14.80094,-12.78259 -7.43989,-30.87339 -25.00098,-43.30757 -13.3916,9.95205 -14.98505,2.03837 -29.00516,0.77991 -2.00995,-24.90197 12.8142,-37.69817 28.01383,-27.14329 37.36323,7.83675 42.06961,-39.16867 72.53556,-43.56953 15.77021,-30.077493 12.32552,16.65404 36.70643,-5.13113 -23.92571,14.05821 -26.01893,-19.452873 -19.45054,-16.684109 -27.68812,-6.812225 7.21488,-27.703606 21.86205,-27.710389 7.93171,-16.082372 14.10118,-32.826451 33.61076,-33.708396 11.39242,-23.498545 38.12415,-17.070365 8.06503,-19.655494 0.90984,-23.6258597 -5.09892,29.741131 -27.38921,20.198572 -13.07794,26.433387 -48.93899,22.920388 -58.82877,52.635799 5.78608,18.773687 -24.20082,4.815305 -22.75796,25.676697 -26.59597,-6.36331 -22.36459,34.78986 -51.68206,17.2141 -31.03214,13.87812 -12.07775,-5.99753 -2.08133,-18.19203 1.24182,-10.25339 55.40885,-18.040467 24.89128,-39.449954 3.30021,-10.797749 23.27462,-31.295023 33.53558,-18.54868 -8.75777,-12.718176 9.73909,-53.51491567 -4.91489,-50.3015918 14.74845,27.1428038 -7.17094,45.9176598 -25.35176,58.2600718 -19.93537,9.028158 23.42934,33.799999 -13.82325,36.584159 -30.86374,7.114255 -35.79361,42.602655 -39.2634,74.686225 -1.88133,19.11664 -45.02929,24.05159 -34.72824,11.20855 -21.39444,-17.86716 17.55339,-30.44357 14.3311,-48.31212 8.56978,-20.4713 -15.39702,18.12857 -19.02153,24.83366 -9.54146,17.76274 -20.18216,38.30038 -35.19135,46.49292 -34.72957,9.0804 35.673,-21.98555 15.84102,-47.65128 17.26272,-15.27338 15.53748,-42.03463 45.30081,-43.22255 10.1033,-6.61413 6.31939,-51.243477 3.14801,-17.581543 3.90039,26.139613 -45.58194,12.205853 -35.70941,43.856853 -25.08365,13.02255 -4.62826,56.67315 -45.05061,54.71987 -23.95995,4.84075 16.32353,-28.06122 -9.96856,-8.81875 -6.28119,-14.84268 27.37161,-45.76466 21.5177,-47.65629 -13.92752,26.99674 -22.45693,-41.44009 -8.14867,-51.326117 8.88432,-15.791843 41.15073,-18.650857 25.27006,-28.71802 -1.24815,-31.428087 44.42559,-43.968128 42.98558,-65.1022809 -16.58083,-23.3766881 30.58808,-30.1506841 2.12004,-23.8367841 -11.22018,14.523812 2.03128,40.857469 -17.65,41.695471 -13.21292,-13.0711087 -7.29034,-64.294955 -10.13576,-22.8188761 23.12294,32.9263941 -24.51642,44.7942741 -23.8789,77.4904051 -30.76243,34.890702 12.28678,-67.5164019 -7.37809,-28.865066 0.0793,28.11925 -19.69287,58.403613 -23.83126,81.431168 -4.43669,-19.17818 1.3709,-29.599776 -2.94049,-32.109421 11.90446,-41.589895 -11.95133,22.119691 -10.83179,36.145811 -3.98203,23.19056 -18.21507,15.66771 -6.32035,-2.60943 3.01514,-18.43661 -10.46905,27.81413 -13.07313,-4.77972 -11.88102,-26.438563 31.08326,-25.883107 33.13316,-57.078471 2.81713,-1.432887 -15.07097,8.479342 -12.99263,20.369864 -9.13598,19.509717 -37.79673,7.259945 -22.94215,37.548147 8.91068,14.90043 -18.13759,55.65996 -10.4986,18.02332 1.69798,-36.10838 -1.88953,4.12544 -4.74937,-3.01144 -11.80072,-26.97444 4.75786,-78.265644 11.40606,-83.740578 -17.9528,16.685751 -6.01275,-33.251314 3.87991,-40.8011107 C 241.0822,-6.158494 266.2674,-16.115675 241.44501,-1.1288683 237.78155,19.471295 226.40647,-41.932385 234.11152,-1.4597519 249.67419,19.406824 220.91673,39.585795 227.98564,66.05172 c -3.74957,36.65069 -13.93288,-18.557744 -8.61657,14.027824 8.90886,20.947156 3.99433,84.266326 -2.51515,32.759996 -3.41669,8.82768 8.64396,56.75657 -6.75492,21.67516 -23.16884,3.05945 17.3026,-53.172351 -8.49976,-18.23289 -0.84422,31.81261 -10.58513,-35.212597 -6.71115,3.63432 -2.97332,33.02062 -4.18718,-8.03041 -17.64298,-22.604159 3.15121,-18.085302 -12.81334,-27.145203 -3.50144,-45.935052 -3.90698,-8.917451 15.65714,-43.559753 3.89047,-36.496725 1.69004,24.19562 -21.67748,51.098526 0.25241,71.43818 C 170.03973,115.2499 153.16046,66.532952 165.02829,57.282158 167.3885,39.738032 138.78122,8.4994612 139.50649,2.3059634 c 14.76387,28.2946416 26.75767,54.9952136 21.49523,85.7684706 20.98177,15.076406 19.86054,40.832556 20.64176,61.689336 -12.11326,-1.61708 -19.84666,-19.98215 -4.97132,4.70332 -10.27907,13.52051 -12.79229,-32.99409 -26.92569,-41.84939 -2.14474,6.7224 23.49952,34.66138 13.48324,53.475 -7.25558,-19.25642 -17.94105,-48.50876 -21.13763,-66.736456 -9.80425,17.574166 25.37101,55.949826 5.48399,49.400296 -2.46346,-11.76594 20.33476,57.57583 -16.75231,25.8982 -6.76278,-25.2489 6.7507,-42.13089 -9.71519,-67.47574 3.60186,13.6272 15.5041,50.22568 -0.92277,41.4809 C 104.16687,120.88106 86.3413,98.972187 77.763354,69.287746 56.300557,53.011059 86.360484,26.027074 49.17057,24.040323 36.0743,9.2270298 49.409521,-8.7041346 33.720747,-24.87885 53.579406,-43.337259 10.525787,-102.46439 34.032534,-52.947544 44.25075,-34.930178 17.746905,-15.476612 43.830922,-0.56925405 17.755442,30.721932 92.68884,29.569975 61.554957,53.225261 44.301582,55.055201 43.810404,23.670356 21.088797,21.706283 52.698269,31.69377 44.570058,66.612594 67.982562,76.500968 42.485453,96.225174 40.741918,36.54937 13.378038,52.226599 -5.232774,30.99059 -6.3282017,2.9276724 -28.819294,-14.06683 c -28.013301,4.7963692 -44.493045,-26.657856 -56.542756,-43.490615 -3.121509,-24.500239 6.252239,-55.091115 -6.356894,-41.72981 8.624156,12.687688 2.730129,83.053544 -13.117296,37.696552 3.28435,-11.548637 1.48695,-44.366437 -11.39092,-44.586597 z m 89.26775,96.069574 C -10.990484,3.1028734 -7.9006034,28.002361 2.9653509,41.641091 -29.592619,53.424126 -22.752618,4.3285552 -34.388949,-10.898601 c 2.340123,-0.01069 5.579247,-1.730567 7.429539,0.790875 z M 69.45823,62.35733 c 16.760431,11.002507 31.91763,83.51558 7.863723,38.21933 C 80.937416,83.053647 58.510051,70.30418 61.186977,61.455867 l 4.966687,-1.392828 3.304566,2.294291 z m -40.119372,5.950999 c 7.877941,27.153044 47.482465,23.031807 48.492047,56.108631 24.627585,9.19514 1.684813,15.14793 -4.035723,31.27477 C 44.321732,135.94558 12.815231,124.3332 21.922939,84.943567 27.621026,68.024014 1.2697387,64.700815 29.338858,68.308329 z m 474.538152,5.54285 c -3.67718,0.714358 -1.79512,-2.577692 0,0 z M 485.312,84.226132 c -4.04751,12.126356 2.9893,-12.969989 0,0 z m 0.0742,15.362525 c -10.82929,27.013153 -33.73888,-9.014212 -4.94152,4.278973 2.6092,0.0643 2.65794,-3.62566 4.94152,-4.278973 z m -303.13009,8.102893 c 4.35225,29.03254 -2.2891,16.13535 -2.71525,-4.64418 l 2.71521,4.64418 4e-5,0 z m -77.61783,16.29707 c -2.91795,1.43675 -2.81123,-2.57433 0,0 z m 347.39533,2.58305 c -3.21666,22.06044 -13.89718,-3.18185 0,0 z m 7.23178,0.95146 c 3.64739,20.36231 -38.19201,40.10513 -53.27465,27.52521 -23.24414,-10.57268 48.71202,-4.43539 53.27465,-27.52521 z m -176.31374,5.90753 c 19.94926,17.99938 -18.06942,56.0985 -2.98235,17.82444 3.87851,-15.21867 -18.82624,32.95385 -3.44419,-2.68268 2.87051,-3.4006 -0.69892,-18.7806 6.42654,-15.14176 z m -34.66328,6.56317 c 1.1565,13.3231 -6.56102,-4.99065 0,0 l 0,0 z m -58.70232,-0.183 c -3.06233,12.09555 -4.178,-4.26984 0,0 z m 222.17676,4.65736 c -3.24038,3.77922 -9.74519,-3.80759 0,0 z m -286.21604,13.33454 c -0.55768,2.98304 -1.39503,-2.95622 0,0 z m 49.74217,19.03162 c 0.10354,13.01013 -8.43134,-8.79764 0,0 z m 243.42738,18.26063 c 1.79358,28.65502 24.16017,30.04497 17.71351,64.57404 30.09469,0.0783 10.93967,8.02589 -2.92182,18.48082 -7.53128,-19.37601 -21.46145,-33.34484 -34.38384,-17.30405 -13.36935,-29.56183 -40.69535,-3.52362 -42.40021,15.70334 -5.17385,12.90529 -54.83393,-0.90488 -40.88335,-6.94803 -6.19079,-17.66826 17.66218,6.27455 28.49918,-8.36674 18.28881,14.39802 -6.0541,-5.34476 -10.58929,-5.57875 7.36185,-12.25662 32.15711,-6.45507 38.74157,-27.71323 16.82189,-12.24375 48.02968,0.85101 18.86235,-8.38911 -37.29643,4.59569 12.91025,-27.38013 27.3619,-24.45829 z m -99.52725,4.33881 c 19.79727,26.09824 -36.70328,12.45376 -7.37424,10.25562 3.02305,-1.5147 1.80805,-16.53158 7.37424,-10.25562 z m 65.36931,0.88555 c 14.93092,3.74206 -13.73234,9.42397 -7.71657,20.90473 -14.01919,14.07205 -27.07645,28.0701 -45.03758,28.30778 -16.96985,10.56653 11.10017,-15.10135 17.99875,-19.01134 20.62119,-29.35638 2.85873,-10.28577 -7.61754,5.83311 -16.23068,-24.06826 25.73469,-39.80815 42.37294,-36.03428 z m -88.17324,1.8944 c -5.23583,2.88545 -4.76197,-1.86225 0,0 z M 68.355675,229.85695 c 5.705354,10.83359 -9.418707,-9.98956 0,0 z m 267.535495,5.25208 c -9.95525,3.4736 6.93836,-4.58512 0.0922,-0.0516 l -0.0922,0.0516 z m -257.153414,5.27674 c -2.818596,3.06262 -2.81448,-3.06656 0,0 z m 9.917965,5.71285 c 15.452719,16.82197 -9.669498,10.70766 0,0 z m 45.020569,7.06477 c -4.46628,13.88718 -30.63695,22.76451 -39.853667,8.67157 10.768027,-14.55077 23.968537,5.04442 39.853667,-8.67157 z m -0.31436,7.49268 c -2.78976,3.01661 -2.08745,-3.08777 0,0 z m -64.701583,9.62954 c 44.468683,19.79856 -37.128397,13.81964 0,0 z m 296.825383,17.47057 c 24.21462,29.45862 -24.30978,10.06505 0,0 z m -20.15546,1.78368 c 12.57795,8.78688 -10.58535,-3.23864 0,0 z m -23.18308,3.28105 c -1.4346,7.584 -3.98158,-5.2364 0,0 z m -179.8366,0.719 c -2.02485,2.97791 -1.37055,-3.04588 0,0 z m 206.04436,2.67212 c -2.91885,3.30153 -0.34698,-3.28369 0,0 z m -236.58461,4.61281 c 2.98334,10.9644 -3.897,-3.26626 0,0 z m 265.30134,5.24231 c 1.21826,4.93662 -4.30851,-1.79253 0,0 z m -39.70319,29.02539 c 23.29708,13.03655 -19.47404,-5.18013 0,0 z m -13.50492,1.72697 c 29.51765,9.14098 8.66478,15.04237 -5.51374,3.30847 0.36196,-2.30205 2.63818,-6.24274 5.51374,-3.30847 z m 33.18631,12.01812 c 3.27679,6.79008 -9.81048,-5.13158 0,0 z m 25.66171,15.62791 c 19.05414,14.22305 -19.13421,-4.50261 0,0 z m 29.47265,13.50799 c 15.68461,11.84354 -15.37216,-0.80374 0,0 l 0,0 z m 14.19142,4.16816 c 27.50281,15.96523 -18.71967,-6.57205 0,0 z m -130.54119,1.23626 c -0.80023,4.26889 -1.82074,-3.08701 0,0 z m 180.48558,12.89777 c 19.41442,18.4234 -29.32251,-11.21891 0,0 z m -261.20169,9.83053 c 15.24218,24.34618 -31.01316,17.35839 0,0 l 0,0 z m -16.06995,0.0914 c -3.98077,11.13282 -3.77513,-2.6871 0,0 z m 35.39512,8.16797 c 6.92459,18.92686 -6.35987,0.62774 -3.53139,-3.58488 l 3.53139,3.58488 0,0 z m 17.21484,0.84762 c 10.31122,17.92498 -11.2071,0.60187 0,0 z m 37.51107,1.04429 c 20.18879,24.44044 -20.9833,-1.10463 0,0 z m -88.98848,6.01827 c 1.89459,33.46321 -26.87274,13.60795 0,0 z m 26.03867,1.56842 c 7.73403,20.84379 -37.91154,35.62449 -22.9914,7.9223 7.59759,-4.38038 12.89045,-8.63471 22.9914,-7.9223 z m 159.5459,4.11512 c -2.24218,14.1981 -24.09261,-0.77231 0,0 z m -316.290454,6.95267 c 11.379937,7.05676 -13.254902,27.53281 -7.892868,41.76325 -30.414388,18.81862 -19.775697,-33.33226 -1.190713,-33.68608 -0.154223,-4.2626 4.274915,-11.15284 9.083581,-8.07717 z m 181.742664,4.27354 c -2.22038,12.25442 -1.448,-6.63783 0,0 z m 34.79443,-0.56938 c 19.88526,32.3624 1.2137,15.41475 0,0 z m -103.70769,3.59127 c 9.15855,7.2163 -4.50969,4.58427 0,0 z m 209.3561,7.46363 c 3.80111,10.86051 -11.4393,-8.62838 0,0 z m -205.15012,7.76671 c -1.96152,14.33377 -1.81167,-11.52397 0,0 z m 213.96173,1.46479 c 18.66337,14.14409 -18.11986,-0.7698 0,0 z m -95.33013,6.13496 c 11.49335,23.33065 -14.04898,-6.33778 0,0 z m -120.75719,9.99753 c 16.85312,9.71491 -9.74638,1.52768 0,0 z m 244.41905,8.39457 c 25.41297,20.55384 -20.23225,0.95159 0,0 z m -111.22038,6.7684 c -0.66877,11.7419 -9.12791,-7.09467 0,0 z m 109.66333,4.50851 c 29.88222,4.32655 -14.90991,7.32514 0,0 l 0,0 z m 20.73671,2.23459 c -2.65371,1.91511 -11.40669,-2.91456 0,0 z m -422.554248,6.87299 c -11.961065,10.71066 5.397505,-10.91833 0,0 z m 159.613008,5.73366 c 0.62704,31.45545 -10.64678,24.96103 -2.43623,-2.274 l 1.69141,-2.95066 0.74482,5.22466 0,0 z m 146.18019,3.49898 c 6.34052,13.3552 -8.87616,-8.95563 0,0 z M 8.8603992,514.94971 c -4.9328425,23.08408 -14.6221476,4.32179 0,0 z m 461.6720608,1.52882 c 23.17435,22.07609 -8.53371,-3.36043 0,0 z m -290.07257,20.6683 c -4.28504,11.08625 -9.22067,43.92507 -10.40219,9.39427 3.6712,0.50438 8.92116,-14.62599 10.40219,-9.39427 z m 154.41541,1.42292 c 1.16901,5.45327 -3.93038,-5.43903 0,0 z m -154.40208,5.14557 c -2.10501,10.47146 -4.74929,-1.59009 0,0 z m 3.03178,10.7035 c 5.72075,5.8507 2.54297,64.61471 -9.76872,25.51731 -8.86562,-7.5365 4.94279,-26.18189 9.76872,-25.51731 z m 161.4231,4.93694 c 12.10093,25.4591 -14.94212,-8.80391 0,0 z m -360.72612,0.90977 c -4.524271,14.4797 -1.409095,-10.28587 0,0 z m 183.75085,8.13385 c 10.20919,26.57514 -11.50248,3.91426 0,0 l 0,0 z m 180.21678,8.53678 c -0.55764,2.98304 -1.39504,-2.9562 0,0 z m -375.396594,1.79712 c -0.08156,4.07858 -1.83229,-2.98667 0,0 z m 204.700294,16.37455 c -2.56484,29.81418 -11.51978,-16.26886 0,0 z m -10.42568,28.68854 c 3.51211,8.58983 -5.55808,-0.34924 0,0 z M 350.81147,-99.064512 c 11.06368,19.926604 0.93704,51.313498 -11.16169,55.855767 28.50852,-13.296906 12.49405,-48.375917 11.16169,-55.855767 z m -212.76601,7.263401 c 3.60915,15.473306 -6.66282,44.344284 2.74441,12.359816 6.28021,-1.923027 -9.24767,-23.730335 -2.74441,-12.359816 z m 138.70721,16.420242 c 1.00463,-0.997179 -1.03065,-5.694229 0,0 z m 289.03896,-0.447623 c 2.22138,7.342782 3.06451,-6.659372 0,0 z m -296.4985,7.802771 c -4.91527,9.056004 11.48229,-8.554266 0,0 z m -136.02592,10.745816 c -7.92119,16.428415 5.49031,-9.989784 0,0 z m -7.31228,8.544019 c -4.29187,8.77499 5.74813,-6.417543 0,0 z m 450.4127,11.271958 c 6.02937,2.444353 -2.95932,-2.873947 0,0 z m -451.50674,2.816027 c 1.56972,4.656639 -1.39451,-8.527617 0,0 z m 456.4906,4.143585 c 2.16313,33.0351134 3.19182,13.403872 0,0 z m -454.86485,-0.10637 c 4.63231,4.639717 -1.94703,-4.271969 0,0 z m 132.87392,17.374087 c 0.48585,5.7111967 1.11339,-4.384826 0,0 z m 317.80168,7.386321 c -27.29652,12.0147592 3.4598,0.7973852 0,0 z M 181.75939,3.5710013 c 0.55518,4.5733169 1.04316,-5.5582341 0,0 z M -50.326314,16.606092 c -14.350682,15.772087 -15.984531,57.890579 -13.672782,58.416574 -1.900621,-12.691495 0.747654,-26.844185 6.099424,-36.189589 -0.718085,-27.38029 21.142357,-21.987206 20.235493,1.784322 11.26938,15.974754 8.287299,69.243721 6.266306,62.008821 6.510059,-23.531463 5.599943,-46.300242 -5.213909,-63.632911 2.310419,-6.720668 -8.137193,-24.833686 -13.714532,-22.387217 z m -68.474096,6.449789 c 14.9795,16.527918 1.07017,-3.093696 0,0 z M 484.173,30.244632 c 3.78931,2.738744 1.15759,-1.794871 0,0 z m -9.29621,3.0917 c -12.11,43.321471 -1.22582,5.755852 4.21443,-1.635292 l -4.21443,1.635315 0,-2.3e-5 z M 266.44291,49.419915 c 8.13781,33.71051 3.18734,-6.617874 0,0 z m -54.38287,-0.306174 c 2.02094,2.980721 1.37455,-3.044003 0,0 z M 343.99985,62.48285 c 9.0308,18.492632 -3.33856,-11.520423 0,0 z m -469.59881,1.5923 c 2.76382,16.488501 -2.00155,-17.642964 0,0 z m 478.71611,0.837847 c -7.365,5.745006 8.62826,-4.804126 0,0 z m 26.96361,9.840619 c -1.99402,11.249817 5.12115,-11.603747 0,0 z m -503.90227,0.173003 c -4.96589,27.619721 24.285207,-10.472271 31.109011,15.155427 39.684567,-0.81922 -5.101012,1.945184 -14.014771,-13.128333 -14.48903,17.042152 -19.81116,4.012729 -17.09424,-2.027094 z m 355.93503,33.999071 c 2.71056,3.35013 -0.73108,-4.20232 0,0 z m 306.11833,9.60008 c 2.46696,2.86108 -0.0775,-4.03503 0,0 z m 3.34942,1.905 c 8.63857,31.09532 5.67535,2.26451 0,0 z m 7.66005,13.79456 c 2.45593,0.95966 0.0127,-1.52714 0,0 z m -254.35593,39.71226 c 3.71563,3.06899 1.79227,-2.31727 0,0 z m 227.90017,20.01692 c -4.65176,4.90432 19.47399,0.74442 0,0 z m -536.651329,66.09517 c -1.895166,18.87295 -27.22005,37.51754 -5.482094,18.22089 -4.284812,-3.11871 12.4084618,-24.46203 5.482094,-18.22089 z m 41.024787,11.34315 c -24.5934979,15.79586 24.448003,-2.89751 0,0 z m -24.8178508,4.78841 c 3.166287,3.01262 -1.90189903,-3.97759 0,0 z m 2.6047758,0.97882 c 2.4559652,0.9597 0.010164,-1.52715 0,0 z m -87.156059,4.52927 c -10.579988,23.39887 5.345809,31.92721 -0.683986,3.64086 8.721016,-10.43661 24.064045,21.56498 30.719266,-3.97602 -14.550512,25.80651 -16.432597,-9.42483 -30.03528,0.33516 z M 88.051471,389.33886 c 2.45594,0.9597 0.0127,-1.52712 0,0 z m 365.832239,22.99792 c 2.97273,1.2306 0.47738,-1.43879 0,0 z m 4.212,2.01977 c 18.06684,8.36315 45.04869,43.87376 14.33694,7.25397 1.52549,-6.05394 -17.94085,-11.78206 -14.33694,-7.25397 z m -288.88408,-0.72382 c -11.41273,12.09837 9.13144,5.77392 0,0 z m -151.614438,0.44308 c -9.73926,-4.36007 1.499566,22.24841 -19.7008657,24.73352 -5.6281092,22.54029 -17.7730623,65.64323 -41.4865533,29.34239 17.612258,36.3148 37.6883708,0.4776 40.6564386,-21.89356 -1.0961139,-7.1847 37.4693034,-38.84495 20.5309804,-32.18235 z m 106.417618,5.53199 c 1.8205,1.51752 0.91489,-2.72499 0,0 z m 50.55735,4.20042 c 2.82702,4.58307 0.21588,-4.63265 0,0 z m -48.19375,0.79903 c -0.993,6.26238 3.58303,-6.76315 0,0 z m 38.62021,3.6026 c 1.32795,-0.68196 -1.3303,-3.51743 0,0 z m 2.4646,9.6027 c 11.15215,46.19705 0.68414,-7.2194 0,0 z m -14.4362,7.24931 c 1.32799,-0.68196 -1.33028,-3.51743 0,0 z m 362.93455,20.2912 c 6.96716,6.74104 -3.37284,-7.09672 0,0 z m 7.88265,0.58139 c 8.15638,5.88045 5.65693,-2.845 0,0 z m -577.198105,2.48225 c -7.90829,44.6237 -55.167425,1.90471 -62.537955,43.1813 -11.05324,36.79715 9.16039,-42.5571 31.299795,-18.08011 18.473543,3.14072 18.526324,-15.62384 18.546486,7.99462 -0.689738,27.75454 2.555322,-32.39936 17.419202,-36.95337 l -2.37577,0.20875 -2.352028,3.64882 2.7e-4,-1e-5 z m 311.501285,3.92298 c 0.31356,8.91037 1.15332,-8.9182 0,0 z m -3.57653,6.83726 c 9.7034,22.34224 4.03372,9.26238 1.51554,-3.3191 l -1.51554,3.31902 0,8e-5 z m 87.1405,40.73707 c -0.18261,22.23122 6.98243,19.3656 0,0 z m 59.50266,-0.26611 c 1.34496,2.96107 1.34895,-2.95919 0,0 z m 106.19367,1.27663 c -14.02797,2.9017 -13.24139,6.54474 0.90477,1.83198 l -0.96226,-3.03493 0.0575,1.20295 -6e-5,0 z m -153.93155,3.49678 c 3.22492,7.59745 1.43303,-6.81274 0,0 z m -146.891,2.51758 c 11.50532,22.30403 14.24254,21.57171 0,0 z m -331.80792,1.59189 c -11.57577,11.13591 -25.51205,-8.20305 -6.66094,7.10529 2.89905,1.04072 16.30813,-15.51772 6.66094,-7.10529 z m 475.86945,2.04123 c 1.34505,2.96106 1.3489,-2.95923 0,0 z m -502.46968,1.09032 c 4.78287,1.17856 0.91475,-1.28749 0,0 z m 366.08739,19.01031 c 0.90957,3.38765 1.57599,-9.28856 0,0 z m 69.26274,4.20436 c 1.91241,4.16256 1.62478,-2.12816 0,0 z m 212.56404,9.42021 c 2.49751,4.0558 2.90283,-2.68623 0,0 z m 19.15125,12.4878 c 2.45592,0.95973 0.0127,-1.52699 0,0 z m -115.42538,0.187 c 2.0209,2.98076 1.37458,-3.044 0,0 z m -174.5721,2.17952 c 1.328,-0.68199 -1.3303,-3.51743 0,0 z M 101.0764,578.34738 c 1.23299,6.17787 3.4275,-2.66643 0,0 z m -104.4151392,4.27078 c -5.7311954,16.92245 0.8181596,4.7319 0,0 z M 103.24742,583.8158 c 5.35856,18.38118 -3.895759,45.66931 3.71589,12.33738 0.32381,-4.26942 -0.0628,-9.49427 -3.71589,-12.33738 z m -190.203174,71.6923 c 2.330492,-2.57568 0.763426,-3.97011 0,0 z"
         style="fill:#270e54" />
    </g>
    <path
       style="fill:#08030d"
       d="m 635.14518,279.55082 c -0.095,143.87464 -0.18995,287.74927 -0.28493,431.6239 -278.35243,-0.19328 -556.704891,-0.38655 -835.05732,-0.57983 0.18994,-287.74928 0.37989,-575.49855 0.56984,-863.2478 278.352447,0.19328 556.70489,0.38656 835.05734,0.57984 -0.095,143.8746398 -0.18995,287.74926 -0.28493,431.62389 z M -77.911739,-126.81069 c 4.622099,24.59189 -25.759051,22.67213 -20.580721,23.24448 18.721275,10.158567 0.08131,86.213424 -4.99183,37.461934 6.356844,-27.053978 -8.97533,-57.814524 -29.06692,-25.281758 -9.47525,-21.594076 4.10454,19.469963 15.22783,-9.707136 18.378292,-3.43388 7.13799,41.105469 13.8189,55.100551 21.122763,1.381371 53.207133,40.4476133 15.291003,32.550444 -20.067923,-9.543379 -30.572323,-1.439412 -4.678505,2.316459 29.979052,-0.02661 52.23444,21.896695 31.590867,52.40133 -7.848531,15.757855 -1.582401,59.492176 -33.325055,43.755601 -10.79895,-21.847181 -34.92471,16.253165 -29.31127,-21.199277 -2.23748,-24.819277 13.01073,22.712161 14.4031,-8.373721 22.743262,-14.401759 -29.08293,-52.5327898 -2.04236,-22.400071 10.04957,6.33559 -4.82293,50.191729 -9.28734,18.576989 -16.23504,6.556825 -2.98181,53.225265 16.51755,30.014588 23.72937,29.171347 50.982354,-8.851401 42.099097,-32.7719 9.19012,-5.571527 8.575625,-39.6672584 20.406672,-10.478092 19.333419,27.303167 4.039826,54.383555 14.207414,79.427239 11.237872,23.64266 -33.083181,29.53455 -30.323713,-1.25824 -25.24625,-28.892774 -21.541054,18.7801 -32.44938,25.50913 -8.906964,-22.5716 -39.18816,-17.23138 -16.20096,-10.56986 16.228417,41.63763 34.787526,7.50811 37.080944,-12.4036 11.545844,13.60971 23.62038,43.73377 48.297579,27.27537 2.895384,25.54381 11.8491863,60.34228 43.830806,44.65969 18.12093,-7.39339 19.79516,3.17143 4.392357,9.96444 23.421296,4.41236 47.543384,63.63223 16.209287,70.22097 -31.224697,-4.21831 -60.450443,-23.76282 -69.74228,11.41957 -14.4361,-8.20395 -26.36029,-10.66806 -36.818009,7.10581 -23.252443,-28.73475 -25.989466,12.29502 -19.161075,27.28217 -7.105484,19.63497 -19.296869,48.47147 -3.433945,15.98905 13.836861,-14.62107 -7.738578,-68.96812 20.688655,-39.92893 12.95504,-4.49868 21.356669,-23.62617 36.75162,-5.94217 14.253787,-2.89797 19.4158228,-45.72568 35.6973868,-13.31986 -43.6708408,8.96052 69.2831442,-6.8003 25.0810932,17.35415 -9.653948,22.78738 -13.429338,23.86128 7.288389,8.25298 19.487808,1.14051 31.055724,30.87292 29.103832,-5.35365 27.341303,-25.81342 30.635146,28.9064 2.097196,30.82484 -6.464754,-16.90544 -0.363876,15.59176 -22.10431,1.10509 -28.004503,18.90204 33.130535,4.95073 17.525663,36.1724 C 55.632593,386.3787 31.694215,422.7648 3.7737024,406.29553 -12.33044,394.7753 -35.932829,394.3127 -5.652386,406.44608 c 40.977106,13.39854 -15.904894,42.93873 -9.237639,71.60504 -20.820102,17.35018 -35.082393,-38.3795 -44.512453,0.85468 -18.260765,25.75256 -52.903922,-6.89223 -59.544212,35.40448 -6.30983,31.63053 -35.24135,-0.38862 -51.58583,27.44315 25.0216,-16.56154 49.12544,5.38392 58.65579,-32.28296 4.36994,-30.54676 60.091789,-17.34574 45.042732,12.41657 6.800808,23.88152 20.541091,35.12788 4.229031,6.54485 -8.245408,-16.39087 5.669345,-82.47523 25.561973,-48.19767 37.95478942,23.21132 22.746979,-42.68628 50.444041,-51.24408 17.471883,-22.34348 41.790438,-35.60524 60.944949,-58.98211 5.146765,-17.07409 34.879404,-21.09057 13.619007,2.0749 -20.958368,24.5868 4.440801,24.89844 -9.888846,47.02162 -29.18039,11.23717 -33.93656,44.563 -58.754792,60.2978 -19.29198973,25.71727 -41.475399,51.8935 -52.572554,82.7784 -3.946574,29.75806 -20.173069,72.2349 -48.909848,75.25504 -5.954278,-26.74953 -33.784373,-53.28083 -29.076353,-35.37452 12.214786,-16.04554 22.764947,38.47483 31.322786,47.57467 -16.979778,7.99117 -6.793012,34.1763 -2.642337,5.10532 17.790911,-16.65903 35.11964,-4.26587 22.788641,11.61812 26.766124,-28.61852 41.596133,-62.30535 55.6611148,-99.56324 24.1550952,-21.87233 -7.5140128,26.11518 -6.4657708,38.03359 -7.497801,29.49171 10.4508654,-31.27044 20.1985996,-36.59332 -4.2372582,-21.0072 32.1575544,-78.04528 44.9752104,-47.33084 18.808549,4.20637 -13.36711,50.99129 -4.496447,73.36813 6.951726,-32.3877 19.457049,-65.12608 39.980928,-91.44887 -9.751978,-39.80853 40.185945,-14.78752 19.797405,10.38841 11.28222,26.84251 10.25787,60.45362 -16.963042,68.09223 -15.407275,10.27804 -22.710326,16.30142 1.333171,5.43647 14.587501,-20.82904 3.31356,29.5073 12.422401,36.30567 1.89831,25.66293 -4.20213,-21.50537 1.50318,-29.25667 -1.71435,-24.73752 27.37227,-50.17096 7.37184,-79.05608 12.56773,-25.246 -16.323885,-46.52098 7.05373,-62.81936 -3.93795,-15.29108 22.72834,-55.59647 25.28066,-26.48524 4.34056,23.61747 -2.98359,61.05877 8.81591,18.17634 3.49484,-21.70423 14.48695,25.40838 -1.36007,38.77779 25.13053,-25.86905 2.38662,22.79232 5.57838,35.41053 -5.55334,26.7777 4.08116,-3.01018 4.45607,-13.88694 14.96043,28.26173 -19.30516,62.96849 -1.01442,93.92516 4.68407,20.10936 -10.57369,61.36924 -2.77677,66.64761 -1.63851,-21.03185 24.97193,-74.43759 33.5107,-33.17296 -2.95483,20.82976 14.84717,38.87551 0.08,6.00027 -1.97595,-28.70426 -7.87549,-66.01285 -5.51465,-100.86233 -5.52282,-25.11119 24.73244,-40.36437 17.11168,-4.99753 13.05465,16.03456 -4.20173,35.06735 16.49783,44.58486 -13.04652,17.52242 18.59437,53.70704 0.52451,21.72606 10.27853,-26.70521 -17.47186,-34.3485 -7.67141,-58.39978 -17.96699,-13.4179 8.68294,-48.31264 21.53139,-32.51424 2.45326,-13.81791 9.43926,22.35246 9.82778,-7.82515 14.41014,10.6085 8.53111,36.62638 24.88752,18.43887 20.40902,16.42837 -5.58742,36.75978 16.53233,52.00001 24.69244,36.91046 -13.71412,-19.35705 -5.81068,-22.95145 13.15636,-22.2326 -40.76825,-60.15956 1.25861,-59.03705 14.70666,6.4338 13.4527,42.15803 13.038,6.84335 4.31118,-17.53855 34.95658,32.39423 29.59457,46.94047 17.4871,23.22905 19.15692,81.6545 42.78636,73.12716 16.99844,35.74643 -1.20433,-2.56265 -1.57051,-16.71192 10.64811,-19.18045 25.09164,26.17938 29.41173,5.43875 -14.75429,-1.20398 -21.15277,-21.51362 -34.54833,-19.68857 -10.3732,-17.5489 -16.94574,-70.82658 12.04215,-40.17962 -21.90621,34.57209 40.67648,10.95577 16.55309,40.19263 -6.4286,23.11545 37.58327,10.47415 35.69524,29.31944 2.61535,-29.69065 -55.87233,-10.12634 -25.32838,-34.51404 0.63478,-27.46608 -42.12621,-4.43885 -24.42746,-36.14669 -15.63557,-22.80092 -37.46211,-11.97143 -36.2657,-45.96855 -10.99817,-12.68276 -19.02304,-63.58045 4.29697,-57.44303 27.11919,25.88664 52.30046,56.3341 60.14144,92.55269 10.09792,31.20147 -11.13132,-40.90039 14.33389,-3.56969 12.98222,16.69235 29.88697,43.79661 12.09029,7.5331 29.8695,-19.45404 34.20646,54.74605 62.59495,38.82635 20.21989,-7.74903 31.97656,35.95791 24.15323,-0.38233 27.7184,-4.02758 34.90456,22.659 57.82891,21.78059 12.99514,3.60962 42.17501,43.77316 19.06529,12.98338 -18.44204,-15.56372 -37.94475,-48.63874 -68.27332,-54.6712 -12.23161,-13.08087 -25.94607,-31.45972 -19.91888,-45.3733 -17.26794,-12.02713 7.68697,26.81433 -16.66193,7.7905 -18.65487,-29.05933 -56.14313,-38.67977 -69.66404,-72.39126 -20.11801,-26.20901 14.56092,-44.24289 21.16651,-14.06285 14.32815,6.92311 10.48273,36.94667 15.36842,15.60241 20.3372,15.15185 -38.54952,-39.17024 1.71729,-27.20635 24.01403,18.52573 42.18952,30.79257 61.00954,54.03236 21.77944,20.48091 -11.5972,-14.47016 15.87654,-0.85909 26.25943,9.63583 -21.91754,-11.18346 -32.42667,-18.66544 -9.76616,-16.62608 -38.41488,-34.61102 -41.12546,-47.15132 22.29057,-1.48861 41.72481,33.31162 42.07806,12.01598 8.02745,11.16618 40.69892,20.43927 12.0974,6.89572 -2.03742,-28.12811 32.70346,-1.8037 27.32823,-17.39396 8.48432,-16.80344 64.96559,13.70383 28.6824,-6.80254 -35.68174,-7.10741 -73.10649,20.96403 -105.38328,-11.12292 -13.46381,-5.39927 -69.2322,-17.81027 -54.42595,-28.30887 14.73984,-11.18587 56.78479,6.4804 17.04059,-8.20996 -16.83852,8.18583 -28.15815,-9.09206 -23.81891,-18.14547 -19.79584,-25.04887 45.81335,-14.22448 26.84575,-26.80708 -18.27781,10.54782 -9.68799,-46.34929 -30.38849,-18.6553 -11.71399,3.27311 -15.56119,-26.18809 -20.10475,-21.34637 -2.01166,-21.17 22.88827,18.93951 32.73044,-1.4627 9.8946,43.92498 47.68093,-2.47527 73.11056,4.3439 1.25913,29.53031 45.2887,34.46901 36.13846,1.7915 7.26018,-13.44927 23.41948,-12.71141 19.65293,10.34931 20.65594,9.06917 51.70919,15.0757 39.91243,49.08929 11.08443,0.46234 17.94302,-0.99558 23.79989,2.64931 -10.17738,-19.41597 -26.42843,8.46857 -19.3671,-24.01564 -8.2797,-35.40099 -45.05901,-17.12556 -48.24445,-52.28046 -29.5201,-8.10132 -6.13961,49.92123 -41.67786,30.77205 -9.56754,-22.9636 -6.94879,-36.5794 12.49407,-44.01045 -25.09555,-6.26197 -13.75528,-52.69446 11.29648,-46.17941 11.22247,-1.63212 29.73575,15.83021 8.0313,-4.74592 2.53041,-32.17944 -10.01116,23.58001 -29.07886,1.34043 -9.08158,13.65285 -45.5933,60.25741 -59.48362,24.97029 -12.0041,-25.53993 -39.21589,-54.92922 5.29855,-61.76666 21.56057,-19.3746 46.35905,-35.62554 74.68274,-43.79908 23.02274,-1.32731 22.31966,26.96974 47.86005,23.13893 17.35411,1.40399 -26.85277,-11.19788 -24.48736,-10.7902 2.23006,-30.296558 -60.69961,-1.42066 -28.04732,-37.452236 14.48593,-15.432828 26.40821,-43.634523 46.54273,-57.921145 7.43865,-12.763034 63.30247,-38.6943161 21.78619,-22.6802524 -25.2861,17.3276434 -15.65973,-13.9635191 -1.5424,-22.8414826 0.47853,-24.346602 -36.41653,-53.883045 -1.56361,-63.964323 -37.60504,-4.413922 -9.53477,42.565478 -0.0903,59.256066 -20.8903,14.6270314 -13.10606,52.525542 -49.56543,49.961797 -29.35432,18.44528 -51.95294,42.855956 -76.91541,65.243756 -28.04489,10.0561 -24.85528,-53.671988 3.89321,-40.866413 20.18614,9.532199 10.0929,-29.512982 31.95094,-30.57406 13.53939,-19.9303058 18.17826,-39.19768 1.453,-7.576169 -10.98104,11.221995 -25.57375,20.28932 -25.84706,35.341798 -10.58786,-8.889142 5.84131,-53.34918232 -4.99178,-55.0131754 0.93858,25.7082544 -9.64374,52.9026394 -36.85609,66.1866664 17.49543,40.732603 -44.64469,31.441713 -51.02742,70.480703 -7.3447,31.85001 -17.84576,-6.73722 -0.95505,-6.76961 -0.36016,-17.19616 7.85866,-53.003201 7.57175,-64.548144 -7.65084,27.222551 -17.15373,51.369954 -45.02788,53.559984 -8.29463,13.42062 -25.64701,50.46863 -32.42707,46.19875 -7.5185,-4.87461 15.06617,-41.1452 13.34932,-45.11022 -19.0365,40.29646 -35.11841,-21.96317 -11.24708,-32.66859 17.71763,-12.274175 32.09255,-30.157156 47.17192,-17.499352 12.3215,-11.943885 27.30365,-50.295723 7.04504,-15.633392 -9.39139,24.244646 -19.69751,-3.988007 -36.24841,11.548744 -11.17165,-26.572688 28.81713,-38.119496 36.29012,-58.2420142 -2.75976,-10.8096171 3.56692,-50.3745518 12.79466,-22.6711158 32.22206,-4.729457 -0.44808,49.985461 21.47358,13.309603 -13.26568,-15.620268 -18.19757,-20.628188 -30.17787,-28.272949 -14.11836,6.277541 -3.72469,63.223218 -22.66873,32.44891574 -14.63278,-23.88503574 5.2179,-52.55495474 21.27751,-67.52789274 42.72282,-1.756043 -16.19533,5.724064 -9.94138,-24.450568 1.8486,-18.652929 12.34223,-48.656839 -1.51333,-12.556909 1.87399,24.372105 4.18806,47.908057 -14.20886,64.612383 -10.60547,30.4199874 14.16846,62.866314 -21.08492,81.534004 -13.34012,44.885961 -3.53314,-77.616288 -9.27626,-18.710196 -4.37405,20.16607 -15.82849,38.212336 -18.25647,53.51456 -8.56573,-12.618091 18.30543,-48.260777 -3.86752,-29.182384 -18.7482,33.85625 -12.44852,-49.6455977 -20.03149,-1.350216 -7.74382,20.152657 -47.00488,-2.724797 -21.60453,-22.663704 -0.66103,-24.9870766 27.55354,-38.572884 12.19978,-60.943666 6.23397,14.570509 -4.77186,44.1472449 -20.37284,26.962953 9.91579,-29.306175 6.78017,-29.315057 -5.54934,-2.398903 12.09496,24.853241 -2.88568,54.38763 -9.23013,76.466392 -2.43107,-15.547027 -30.4413,-41.445617 -6.93053,-10.011887 -1.41159,10.998456 -1.40785,62.974564 -17.50782,41.21849 C 184.46223,75.538159 189.52675,107.73133 181.308,79.440894 165.09384,51.194234 192.26213,9.3751333 181.63241,-12.040935 187.73464,23.499004 156.2386,46.04643 141.31026,4.8671544 144.59215,-19.735362 128.6341,-29.24266 127.62625,-47.090819 c 21.43246,-20.065646 17.51125,-52.54495 -10.42699,-61.505331 -9.89994,-12.4003 8.24803,21.281966 19.86593,17.374773 12.37007,18.06924 -32.46663,57.893901 -2.57031,62.996109 -1.09671,32.4772352 19.60898,62.511021 22.06555,91.631677 3.10296,9.485228 -0.24327,59.265031 -6.26647,31.764721 0.30694,-10.478663 -8.60055,11.99492 -12.34075,-12.469714 -0.47657,1.526082 4.78458,61.338094 -13.04858,28.631574 C 112.25017,92.16109 81.172632,95.655629 79.638217,61.997341 78.068789,37.63214 67.915329,24.400514 46.555377,14.142528 39.889354,-20.121469 45.115905,-57.301653 20.633497,-87.797213 c 0.984223,9.339242 19.677146,49.929792 10.547929,72.74682 C 45.996013,11.36148 33.906872,37.007485 13.761759,15.131211 45.834472,53.551452 -23.360959,14.668321 -18.09219,-8.8268394 -48.292,-26.744709 -89.293136,-45.150162 -83.359451,-88.187965 c -4.912957,-3.267143 16.788516,-60.499715 5.447743,-38.622725 z M 257.1809,53.213939 c 31.66813,7.379882 -19.05363,59.553731 -21.47495,19.912309 0.56594,-11.283888 5.3022,-7.973199 16.30845,-17.270918 -1.08387,-3.558701 3.49014,-3.432325 5.1665,-2.641391 z M -21.586132,63.382888 c 32.788713,3.785613 43.37858,35.481313 44.651532,63.210272 24.467606,-2.78757 35.804144,47.46824 61.774644,32.44799 13.764896,-14.38518 25.179186,51.86602 5.129766,19.14849 -4.75852,-40.04826 -4.918384,30.48239 18.00684,35.94241 20.23503,22.93328 -18.635445,15.16127 -33.486697,5.96643 C 68.340912,202.986 58.784447,179.58143 40.356507,171.56959 21.967482,172.74943 -9.4767021,200.00634 -8.9615886,161.77594 -6.952703,131.79345 -41.206768,108.89938 -24.722271,78.736978 c -0.502396,-5.570934 -10.772651,-18.871711 3.136139,-15.35409 z m 89.04268,132.133482 c -1.189354,9.02521 5.290214,-5.52055 0,0 z M 285.92889,64.829768 c -3.86534,2.37575 0.2441,1.369711 0,0 z M 31.806461,96.326531 C 50.559452,95.750298 89.2943,156.35594 59.561355,142.92973 42.898865,140.75561 35.703271,120.30932 22.08373,116.24095 23.688465,110.88558 21.9624,92.748586 31.806461,96.326531 z M 116.1992,102.0854 c 8.06758,20.43658 -25.121867,-7.628166 0,0 l 0,0 z m 39.98819,6.16925 c 3.6618,7.67926 -5.81538,-2.51027 0,0 z m 7.9913,0.67996 c -2.02479,2.97797 -1.37059,-3.04591 0,0 z m -4.07824,1.23203 c -3.11525,4.29031 -1.2192,-2.87603 0,0 z m 212.17907,10.40006 c 0.6843,10.2246 -13.40858,0.88185 0,0 z m 40.18267,97.62778 c -1.42731,5.33597 -4.42108,-4.87881 0,0 l 0,0 z m 6.86764,7.19808 c 12.48098,22.2573 -14.92173,29.33512 -27.45196,19.07043 -30.40045,-28.73749 28.46529,-5.44088 27.45196,-19.07043 z m -409.387,48.66605 c -0.5576871,2.98303 -1.3950054,-2.95621 0,0 z m 80.234411,60.32477 c -16.655655,16.87156 1.509678,-6.2852 0,0 z m 352.629109,64.51741 c 29.64436,8.9011 -34.13768,0.4026 0,0 z m 12.57735,5.97582 c 6.31451,5.78093 -9.39448,-5.49311 0,0 z m -132.03433,14.85622 c -1.75112,9.3399 -8.3036,-4.35745 0,0 z m -8.06536,14.37226 c 0.75935,19.61544 -15.73177,-0.0833 0,0 z m 8.22129,15.30778 c -3.37072,20.9795 -2.13553,-9.03872 0,0 z m -57.35377,15.15019 c 23.80676,25.34896 -19.97938,29.1136 0,0 z m -41.99968,22.01036 c 29.28764,27.36312 -20.19085,2.62564 0,0 z m 10.72425,0.92437 c -1.3489,2.95922 -1.34506,-2.96103 0,0 z m 1.08625,1.61071 c 0.42238,8.48939 -4.1393,-0.32125 0,0 z m -37.03662,-0.055 c -1.16186,3.06167 -1.32361,-2.426 0,0 z m 15.19522,6.86003 c -1.58422,3.49426 -1.92316,-3.06407 0,0 z M -49.283811,637.3573 c -0.463227,7.87032 -2.677474,-3.48361 0,0 z M 265.13203,-100.69547 c -10.8874,19.514136 22.49513,18.94574 3.16157,37.130635 -4.79088,7.87701 -21.43449,28.76635 -4.72401,11.352948 12.38141,-9.733898 25.43527,-37.557147 0.0127,-37.992864 2.65816,-0.845109 4.2788,-21.535009 1.54962,-10.490719 z m 121.11606,25.893251 c -4.29232,9.022771 22.23825,-5.311609 0,0 z M 232.20444,-55.44232 c -3.22871,45.6773573 3.62289,-13.263273 0,0 z m 272.99044,38.582856 c 0.5318,5.398255 1.15138,-9.196943 0,0 z M 81.09681,372.74086 c 1.344974,2.96107 1.348963,-2.95916 0,0 z m 465.38871,41.33457 c 3.96675,2.34464 10.56859,-4.32304 0,0 z m 12.67918,1.06118 c 16.64118,12.22796 -1.63583,-4.85739 0,0 z m -22.52603,22.76383 c -2.23247,8.70833 5.7153,-2.81339 0,0 z m -63.20905,13.46576 c 21.76674,18.08688 18.93718,8.52455 0,0 z m -331.8102,18.07414 c -4.58443,8.55782 8.35842,-7.95564 0,0 z m 409.81625,4.93162 c -7.90998,12.75697 4.59349,-4.34094 0,0 z m -276.87454,16.08336 c -3.32859,4.15299 5.74255,-3.8055 0,0 z m 244.6373,12.88545 c 1.82078,3.08701 0.80023,-4.26887 0,0 z m 7.85787,4.00961 c 10.21093,12.75777 -2.53619,1.21947 2e-5,0 l -2e-5,0 z m 10.03823,89.52782 c -17.56268,6.85378 21.06489,-2.29923 13.79796,23.69742 23.87007,12.09199 -5.36906,-3.33732 -3.50862,-21.64543 -2.42253,-1.60336 -8.71641,-8.1479 -10.28934,-2.05199 z m -130.60302,9.33685 c 2.45596,0.95973 0.0127,-1.52699 0,0 z m 2.98625,3.4205 c 2.94182,3.17904 -2.00402,-5.56407 0,0 z m 23.72113,11.56415 c 6.64572,11.53928 27.07919,-1.77586 29.15112,9.34199 -5.66943,-21.95181 -29.699,-1.21674 -29.15112,-9.34199 z m 29.84763,15.05213 c 1.88419,2.26743 -1.86861,-4.78921 0,0 z m -532.028614,33.96758 c -13.045237,17.28913 13.070943,-8.74377 0,0 z"
       id="path3972"
       inkscape:connector-curvature="0" />
  </g>
</svg>
