<?xml version="1.0" encoding="UTF-8" standalone="no"?>
<svg
   xmlns:dc="http://purl.org/dc/elements/1.1/"
   xmlns:cc="http://creativecommons.org/ns#"
   xmlns:rdf="http://www.w3.org/1999/02/22-rdf-syntax-ns#"
   xmlns:svg="http://www.w3.org/2000/svg"
   xmlns="http://www.w3.org/2000/svg"
   xmlns:sodipodi="http://sodipodi.sourceforge.net/DTD/sodipodi-0.dtd"
   xmlns:inkscape="http://www.inkscape.org/namespaces/inkscape"
   sodipodi:docname="cultist robe.svg"
   height="100%"
   width="100%"
   inkscape:version="0.48.4 r9939"
   version="1.1"
   id="svg8438"
   viewBox="0 0 512 512">
  <metadata
     id="metadata8464">
    <rdf:RDF>
      <cc:Work
         rdf:about="">
        <dc:format>image/svg+xml</dc:format>
        <dc:type
           rdf:resource="http://purl.org/dc/dcmitype/StillImage" />
        <dc:title></dc:title>
      </cc:Work>
    </rdf:RDF>
  </metadata>
  <defs
     id="defs8462">
    <linearGradient
       id="linearGradient4077">
      <stop
         id="stop4079"
         offset="0"
         style="stop-color:#aa4400;stop-opacity:1;" />
      <stop
         style="stop-color:#ff9f00;stop-opacity:1;"
         offset="0.22752622"
         id="stop4081" />
      <stop
         style="stop-color:#803300;stop-opacity:1;"
         offset="0.4948855"
         id="stop4083" />
      <stop
         id="stop4085"
         offset="1"
         style="stop-color:#562200;stop-opacity:1;" />
    </linearGradient>
    <linearGradient
       id="linearGradient4057">
      <stop
         style="stop-color:#aa4400;stop-opacity:1;"
         offset="0"
         id="stop4059" />
      <stop
         id="stop4067"
         offset="0.22752622"
         style="stop-color:#ecd1a4;stop-opacity:1;" />
      <stop
         id="stop4065"
         offset="0.50136983"
         style="stop-color:#803300;stop-opacity:1;" />
      <stop
         style="stop-color:#562200;stop-opacity:1;"
         offset="1"
         id="stop4061" />
    </linearGradient>
    <linearGradient
       id="linearGradient3890">
      <stop
         style="stop-color:#701b1b;stop-opacity:1;"
         offset="0"
         id="stop3892" />
      <stop
         style="stop-color:#e31600;stop-opacity:1;"
         offset="1"
         id="stop3894" />
    </linearGradient>
    <linearGradient
       id="linearGradient3882">
      <stop
         style="stop-color:#600b0b;stop-opacity:1;"
         offset="0"
         id="stop3884" />
      <stop
         style="stop-color:#d11414;stop-opacity:1;"
         offset="1"
         id="stop3886" />
    </linearGradient>
    <linearGradient
       id="linearGradient3872">
      <stop
         style="stop-color:#800600;stop-opacity:1;"
         offset="0"
         id="stop3874" />
      <stop
         style="stop-color:#ff0004;stop-opacity:0;"
         offset="1"
         id="stop3876" />
    </linearGradient>
    <filter
       id="filter4074"
       inkscape:label="Black Light"
       inkscape:menu="Color"
       inkscape:menu-tooltip="Light areas turn to black"
       x="0"
       width="1"
       y="0"
       height="1"
       color-interpolation-filters="sRGB">
      <feColorMatrix
         id="feColorMatrix4076"
         type="luminanceToAlpha"
         result="result2" />
      <feComposite
         in2="SourceGraphic"
         id="feComposite4078"
         operator="arithmetic"
         in="result2"
         k3="2"
         result="result4" />
      <feBlend
         in2="result2"
         id="feBlend4080"
         in="result4"
         mode="multiply"
         result="result3" />
      <feComposite
         in2="SourceGraphic"
         id="feComposite4082"
         operator="in"
         in="result3" />
    </filter>
  </defs>
  <sodipodi:namedview
     pagecolor="#000000"
     bordercolor="#666666"
     borderopacity="1"
     objecttolerance="10"
     gridtolerance="10"
     guidetolerance="10"
     inkscape:pageopacity="0"
     inkscape:pageshadow="2"
     inkscape:window-width="1190"
     inkscape:window-height="1126"
     id="namedview8460"
     showgrid="false"
     inkscape:zoom="1"
     inkscape:cx="286.23437"
     inkscape:cy="349.15199"
     inkscape:window-x="160"
     inkscape:window-y="130"
     inkscape:window-maximized="0"
     inkscape:current-layer="svg8438"
     showguides="true"
     inkscape:guide-bbox="true" />
  <path
     style="fill:#000000"
     id="path3978"
     d="M -13.466093,0.1885736 H 514.89024 V 516.42957 H -13.466093 z"
     inkscape:connector-curvature="0" />
  <path
     transform="matrix(0.92592215,0,0,1,-12.92858,0)"
     sodipodi:end="6.1122693"
     sodipodi:start="6.11213"
     d="m 76.035958,-54.360671 a 10.606602,11.755651 0 0 1 2.51e-4,0.0016 l -10.452057,1.999461 z"
     sodipodi:ry="11.755651"
     sodipodi:rx="10.606602"
     sodipodi:cy="-52.359596"
     sodipodi:cx="65.584152"
     id="path4123"
     style="fill:#333333;fill-opacity:1;fill-rule:nonzero;stroke:none"
     sodipodi:type="arc" />
  <path
     sodipodi:type="arc"
     style="opacity:0.98999999;fill:#ff0000;fill-opacity:0.74970506;fill-rule:nonzero;stroke:none"
     id="path5005"
     sodipodi:cx="640"
     sodipodi:cy="124.5"
     sodipodi:rx="105"
     sodipodi:ry="118.5"
     d="m 743.4676,104.32865 a 105,118.5 0 0 1 0.002,0.0163 L 640,124.5 z"
     sodipodi:start="6.11213"
     sodipodi:end="6.1122693" />
  <g
     id="g6143">
    <path
       style="fill:#9fc8ae"
       d="m 291.54,471.03732 c -15.39342,-8.17668 -39.77061,-37.15426 -63.53967,-75.53065 -4.3717,-7.05834 -8.64067,-12.83334 -9.48661,-12.83334 -2.69005,0 -35.71343,-27.87363 -42.80039,-36.12599 -3.74733,-4.36356 -9.10938,-11.6493 -11.91566,-16.19054 C 150.57544,308.96006 119.72482,277.10841 95.9,260.25602 88.940667,255.33336 78.792528,247.83044 73.348581,243.58287 36.366644,214.72814 35.578431,213.67934 39.455856,198.48495 c 3.492755,-13.68699 9.794142,-21.81769 22.562204,-29.1121 14.276916,-8.15642 48.05209,-20.77952 55.59901,-20.77952 10.98335,0 19.10144,6.53134 44.32804,35.66374 43.93407,50.73634 57.84542,63.98192 81.90156,77.9819 9.35832,5.44628 40.78183,16.50235 42.31288,14.8874 1.56736,-1.65322 -4.16104,-33.82698 -7.14555,-40.13332 -1.89831,-4.01117 -5.37555,-15.11647 -7.7272,-24.67843 -2.35165,-9.56195 -4.45072,-17.5615 -4.6646,-17.77676 -0.21388,-0.21527 -5.20687,-2.73953 -11.09553,-5.60947 -5.88867,-2.86995 -17.95785,-9.41105 -26.82038,-14.53578 -8.86254,-5.12474 -25.94454,-13.56318 -37.96,-18.7521 -23.89534,-10.31928 -49.35342,-23.75066 -56.92542,-30.03316 -6.25723,-5.19163 -6.61846,-19.2269 -0.80539,-31.292397 6.58975,-13.677563 46.80558,-48.388286 56.06265,-48.388286 7.1256,0 20.23583,4.392954 24.5952,8.241318 2.14134,1.890327 10.82108,7.926199 19.28834,13.413051 8.46724,5.486853 21.34019,14.821311 28.60657,20.743241 7.26639,5.921931 15.73244,12.142153 18.81347,13.822713 3.08101,1.68056 6.74031,4.50249 8.13177,6.27095 1.39144,1.76847 4.08475,3.21539 5.98512,3.21539 1.90038,0 7.70612,3.73047 12.90163,8.28992 5.19554,4.55946 19.7124,13.23783 32.2597,19.28528 12.54729,6.04744 27.1799,14.3764 32.5169,18.50878 12.51354,9.68912 30.05128,17.15072 44.32321,18.85774 15.56366,1.86152 35.0034,12.41677 43.85659,23.81292 11.53444,14.84758 15.54382,23.65943 13.02435,28.62508 -3.09234,6.09467 -18.16211,4.39966 -27.47136,-3.08992 -9.95497,-8.00909 -10.38641,-6.75829 -1.8339,5.31687 9.67602,13.66146 17.79761,30.69758 17.79761,37.33282 0,2.82116 -1.54526,6.00167 -3.43392,7.06784 -5.2748,2.97767 -18.99263,-0.55158 -27.8451,-7.16387 -4.36166,-3.2579 -10.61295,-7.77146 -13.89176,-10.03012 -3.27881,-2.25867 -10.6075,-8.57464 -16.28601,-14.03548 -16.94184,-16.29248 -17.81737,-11.68125 -2.63658,13.8862 14.49593,24.41397 16.61653,30.46101 13.60862,38.8059 -1.63797,4.54424 -3.183,5.49004 -8.96837,5.49004 -3.84422,0 -8.90291,-1.038 -11.24152,-2.30667 -5.71442,-3.1 -25.2375,-24.20102 -37.68519,-40.73103 -18.3257,-24.33578 -20.58901,-26.93681 -26.01439,-29.89612 -8.48029,-4.62562 -10.53209,-0.16889 -10.28467,22.33951 0.21189,19.27654 -0.85155,23.61922 -7.73648,31.59289 -4.61372,5.34329 -4.92256,4.8248 6.41537,10.77023 4.818,2.52648 11.388,6.64446 14.6,9.15109 3.212,2.50662 10.021,7.12124 15.13111,10.25471 5.11012,3.13347 10.26914,7.62479 11.46447,9.9807 1.89257,3.73005 1.22852,5.12019 -5.13949,10.75941 l -7.31285,6.47592 6.55505,4.86041 c 10.88375,8.07007 26.78202,24.95892 32.90517,34.95539 9.37896,15.31183 7.14337,22.4069 -7.06023,22.4069 -6.23002,0 -10.3937,-1.70154 -17.61734,-7.19956 -5.20256,-3.95976 -11.64922,-8.29582 -14.32589,-9.63572 -2.67666,-1.33989 -10.56066,-6.60114 -17.52,-11.69164 -14.3416,-10.4904 -13.14327,-8.19486 8.09467,15.50599 28.04894,31.30173 37.15564,47.7291 33.94327,61.2295 -2.76684,11.628 -20.56737,8.09639 -38.61515,-7.66124 -6.70053,-5.85027 -20.09575,-18.75633 -29.76716,-28.68013 -9.67141,-9.92378 -19.52641,-19.47803 -21.9,-21.23166 -8.19609,-6.05532 -7.20841,-4.40366 25.30234,42.31288 7.62268,10.95342 10.02843,19.21758 8.97857,30.84285 -0.58061,6.42942 -1.23516,7.09823 -7.44987,7.61212 -3.93332,0.32525 -10.10478,-1.18496 -14.6,-3.57274 z"
       id="path6159"
       inkscape:connector-curvature="0" />
    <path
       style="fill:#92ac9b"
       d="m 297.84821,472.13848 c -9.08124,-3.4181 -10.68128,-4.72197 -28.57107,-23.28235 -13.87572,-14.39584 -20.85639,-23.87464 -40.04539,-54.37613 -4.79576,-7.623 -9.44309,-13.86 -10.32741,-13.86 -2.90903,0 -22.53648,-16.27435 -34.09281,-28.26851 -6.23799,-6.47432 -15.86736,-18.23949 -21.39859,-26.14482 -5.53123,-7.90534 -10.74372,-14.68953 -11.58331,-15.07599 -0.83959,-0.38646 -3.47423,-3.67351 -5.85475,-7.30459 C 139.37097,293.75297 115.14176,271.22341 97.292001,258.55827 88.4964,252.31741 77.358,243.97796 72.54,240.02611 67.722,236.07429 58.797328,229.13574 52.707393,224.60712 39.731911,214.95824 38.543655,213.28309 39.110338,205.43853 c 0.606461,-8.39519 5.504019,-17.8006 13.294884,-25.53186 8.580005,-8.51437 13.427526,-8.68053 14.976111,-0.51334 1.056692,5.57296 1.887017,6.16 8.712846,6.16 8.638869,0 19.805821,-3.60512 19.805821,-6.39408 0,-1.03713 -3.028482,-3.40901 -6.729961,-5.27084 -6.974615,-3.5082 -7.464846,-6.81508 -1.010311,-6.81508 2.040477,0 4.646067,-1.84498 5.790203,-4.09996 3.592791,-7.08104 17.022999,-12.92028 26.990839,-11.7352 8.0872,0.9615 10.17658,2.57943 26.42374,20.4616 9.70318,10.67965 22.89816,25.64791 29.32216,33.26278 6.424,7.61488 13.39251,15.37199 15.48558,17.23801 2.09307,1.86603 9.53907,9.00872 16.54667,15.87267 16.26096,15.9276 26.44394,23.55477 40.77777,30.54296 7.50859,3.66068 37.38774,11.85225 38.59331,10.58062 1.71056,-1.80428 -4.2047,-35.55112 -7.44341,-42.46509 -2.65518,-5.66822 -11.49326,-38.14815 -11.49326,-42.23768 0,-0.41898 -7.227,-4.44521 -16.06,-8.94718 -8.833,-4.50197 -23.068,-12.12296 -31.63333,-16.93554 -8.56533,-4.81257 -25.64733,-13.11857 -37.96,-18.45776 -12.31267,-5.33919 -28.95667,-13.64946 -36.98667,-18.46726 l -14.6,-8.75963 -0.53062,-10.26667 c -0.6565,-12.702327 4.0996,-23.412979 12.21062,-27.498102 3.212,-1.617725 7.36112,-3.71545 9.22026,-4.661609 5.07903,-2.584839 7.33529,-2.080565 6.08371,1.359711 -1.30191,3.578623 1.82812,3.992922 7.21068,0.954422 4.44909,-2.511553 5.03365,-8.141089 0.84535,-8.141089 -4.1777,0 -3.60254,-6.744259 1.11463,-13.069756 4.83179,-6.479211 7.80564,-6.789045 12.51204,-1.303577 4.20654,4.902871 7.91708,5.278674 9.48788,0.960933 0.76068,-2.090907 -0.475,-3.795172 -3.68506,-5.082511 -2.65622,-1.065228 -4.82949,-2.912647 -4.82949,-4.105377 0,-3.975246 6.23472,-4.762492 16.30959,-2.059384 9.37417,2.515105 12.07556,4.153125 26.48814,16.061415 3.16084,2.611626 9.90876,7.082499 14.99538,9.935273 5.0866,2.852776 14.53105,9.591715 20.98764,14.975422 6.45658,5.383707 13.91261,10.992579 16.56893,12.464159 2.65633,1.47157 6.44291,4.83885 8.41463,7.48283 2.23683,2.99948 5.6383,4.80724 9.0453,4.80724 3.00318,0 6.61222,1.46398 8.02007,3.25328 4.84609,6.15915 18.40061,14.63973 37.33481,23.35907 10.43781,4.80668 22.26381,11.50702 26.28,14.88963 14.42065,12.1457 35.75156,21.81697 51.12597,23.18013 22.65974,2.0091 37.54703,12.24289 53.07279,36.48322 4.64406,7.25079 5.01841,8.84196 2.66434,11.32503 -4.89475,5.16295 -15.90958,3.87866 -25.02617,-2.91797 -17.06097,-12.71935 -19.9099,-10.21401 -6.61481,5.81706 10.42962,12.57591 19.15471,30.7617 18.33795,38.22192 -0.56771,5.18544 -1.13711,5.48504 -9.34308,4.91619 -5.13305,-0.35584 -11.96015,-2.73691 -16.54667,-5.77096 -16.05811,-10.62259 -27.15766,-19.32123 -34.95861,-27.39678 -4.5036,-4.66214 -9.9301,-8.31982 -12.34321,-8.31982 -2.36847,0 -4.30632,0.47187 -4.30632,1.04861 0,0.57673 5.037,9.39953 11.19333,19.60622 17.00702,28.19621 18.58979,31.88944 17.14589,40.0078 -1.15571,6.49808 -1.84096,7.09737 -8.1154,7.09737 -3.76921,0 -8.76652,-1.04621 -11.10513,-2.32495 -7.15318,-3.91123 -38.87145,-40.07443 -46.01285,-52.461 -5.28117,-9.16004 -17.46164,-19.44703 -22.18562,-18.73683 -5.5784,0.83864 -9.14937,15.10202 -7.70667,30.78242 0.88614,9.63135 0.34467,12.91769 -3.09585,18.7896 -2.2934,3.91413 -5.4661,7.6413 -7.05043,8.28257 -4.44255,1.79819 -3.42074,5.28656 2.20995,7.54465 9.24318,3.7068 47.08979,28.75827 48.24535,31.93459 1.09601,3.01269 -7.22447,13.14895 -10.79349,13.14895 -4.06094,0 -0.56457,4.33531 14.95938,18.54877 17.05097,15.61161 28.15154,30.808 28.15154,38.53874 0,10.59972 -15.23759,9.54373 -31.8893,-2.21 -5.48022,-3.86823 -13.90603,-9.51995 -18.72403,-12.55934 -4.818,-3.03938 -12.47128,-8.42673 -17.00729,-11.97187 -14.95971,-11.69185 -10.91231,-4.32118 11.15483,20.31399 26.78105,29.89762 36.99912,45.38959 36.99912,56.09561 0,10.40983 -3.55533,13.16509 -14.71098,11.40054 -7.55538,-1.19508 -11.94558,-4.17638 -28.94265,-19.65445 -11.01994,-10.03511 -22.93893,-21.75034 -26.48662,-26.03384 -5.74512,-6.93665 -26.39059,-25.24148 -28.46912,-25.24148 -1.61536,0 3.9632,9.55561 13.70251,23.47122 11.22718,16.04152 13.22063,19.02025 22.12686,33.06359 5.11308,8.06227 6.32667,12.02293 6.32667,20.6475 0,7.83698 -0.81793,11.00273 -3.07922,11.918 -1.69356,0.68551 -3.22656,1.2058 -3.40666,1.15623 -0.18007,-0.0495 -3.62075,-1.3297 -7.64591,-2.84473 z M 208.80667,314.00785 c 0,-1.62734 -0.81547,-3.49042 -1.81216,-4.14015 -2.31437,-1.50875 -4.64203,2.33622 -3.05451,5.04563 1.79007,3.0551 4.86667,2.48267 4.86667,-0.90548 z m 26.14009,-21.01036 c 1.6708,-4.59265 -4.93411,-5.95779 -7.92826,-1.63866 -1.45118,2.09333 -2.6385,4.99566 -2.6385,6.4496 0,3.48212 9.04848,-0.63756 10.56676,-4.81094 z m -16.45466,-1.18416 c -0.0263,-1.41166 -3.09234,-4.16412 -6.81333,-6.11655 -5.75131,-3.01776 -6.76544,-3.0947 -6.76544,-0.51333 0,1.6701 1.22028,3.03655 2.71173,3.03655 1.49145,0 3.21596,1.386 3.83224,3.08 1.35193,3.71612 7.1024,4.13574 7.0348,0.51333 z m 38.98117,-3.08 c -7e-5,-2.10433 -13.67295,-13.4689 -14.7887,-12.29201 -0.49142,0.51836 -0.0386,3.31461 1.00658,6.2139 1.2695,3.522 3.71023,5.55872 7.35447,6.13713 2.99991,0.47612 5.67338,1.00412 5.94105,1.17333 0.26766,0.1692 0.48664,-0.38535 0.4866,-1.23235 z M 189.34,280.86223 c 0,-3.62604 -4.1907,-2.99456 -5.39389,0.81277 -0.42381,1.34109 0.61644,2.43833 2.31167,2.43833 1.69522,0 3.08222,-1.463 3.08222,-3.2511 z M 199.07333,275.9 c 0,-1.12933 -1.314,-2.05333 -2.92,-2.05333 -1.606,0 -2.92,0.924 -2.92,2.05333 0,1.12933 1.314,2.05333 2.92,2.05333 1.606,0 2.92,-0.924 2.92,-2.05333 z m 19.43686,-6.67333 c -0.0575,-4.95533 -3.04386,-7.54163 -7.33984,-6.35665 -5.4939,1.5154 -5.47129,3.59851 0.0696,6.41724 5.88245,2.99245 7.30551,2.98058 7.27019,-0.0606 z m -36.95686,-16.08771 c 2.67667,-8.42661 5.58021,-16.4629 6.45232,-17.85841 1.81747,-2.90824 -0.0412,-10.71388 -2.55112,-10.71388 -2.5607,0 -7.79453,6.11696 -7.79453,9.10975 0,1.46103 -1.75888,5.015 -3.90862,7.8977 -5.10691,6.84813 -7.47519,23.75127 -3.68229,26.28168 4.7694,3.18185 6.50552,0.95704 11.48424,-14.71684 z m 11.68,10.44104 c 0,-2.25867 -0.876,-4.10667 -1.94666,-4.10667 -1.07067,0 -1.94667,0.38644 -1.94667,0.85873 0,0.47231 -0.53172,2.32031 -1.18161,4.10666 -0.77537,2.13134 -0.10613,3.24795 1.94667,3.24795 1.83049,0 3.12827,-1.70367 3.12827,-4.10667 z m 14.6,-6.16 c 0.66171,-1.12933 -0.60059,-2.05333 -2.80511,-2.05333 -2.20452,0 -4.00822,0.924 -4.00822,2.05333 0,1.12933 1.2623,2.05333 2.80511,2.05333 1.54282,0 3.34651,-0.924 4.00822,-2.05333 z m -41.43321,-16.94 c 0.54266,-3.10567 0.69262,-5.64667 0.33326,-5.64667 -1.42876,0 -6.59338,12.34089 -6.59338,15.75492 0,3.28043 0.25971,3.23992 2.63673,-0.41136 1.4502,-2.22762 3.08073,-6.59122 3.62339,-9.69689 z m 34.2572,8.20713 c 0.94264,-5.2167 -5.46138,-7.14285 -8.61647,-2.59159 -1.41687,2.04387 -2.08354,4.55684 -1.48147,5.58439 1.8203,3.10669 9.4018,0.85971 10.09794,-2.9928 z m -47.62394,-10.83956 c -0.60313,-1.65783 -1.87887,-3.01424 -2.83499,-3.01424 -1.99746,0 -2.34874,4.83176 -0.49354,6.78863 2.07662,2.19039 4.49915,-0.55662 3.32853,-3.77439 z m 2.23995,-13.45201 c 0,-1.59989 -1.971,-3.20416 -4.38,-3.56504 -4.82194,-0.72235 -5.67191,1.55211 -2.01966,5.40448 2.91257,3.07216 6.39966,2.06987 6.39966,-1.83944 z M 120.05432,213.27333 C 118.3005,210.45 115.65231,208.14 114.16945,208.14 c -5.31108,0 -1.94427,7.16689 4.11722,8.76428 2.14133,0.5643 4.13252,1.13319 4.42487,1.2642 0.29235,0.131 -0.9034,-2.07181 -2.65722,-4.89515 z m 16.72568,0.90549 c 0,-2.32532 -0.876,-3.65679 -1.94667,-2.95882 -1.07066,0.69797 -1.94666,2.6005 -1.94666,4.22785 0,1.62735 0.876,2.95882 1.94666,2.95882 1.07067,0 1.94667,-1.90254 1.94667,-4.22785 z m 264.74667,-7.87247 c 0,-1.89032 -4.60829,-4.32635 -8.18424,-4.32635 -1.22661,0 -1.06977,1.21509 0.39757,3.08 2.64466,3.36125 7.78667,4.18428 7.78667,1.24635 z M 128.99333,201.98 c 0,-2.25867 -0.876,-4.10667 -1.94666,-4.10667 -1.07067,0 -1.94667,1.848 -1.94667,4.10667 0,2.25867 0.876,4.10667 1.94667,4.10667 1.07066,0 1.94666,-1.848 1.94666,-4.10667 z M 113.42,200.31083 c 0,-3.62582 -11.54522,-13.19808 -14.483788,-12.00866 -4.088775,1.65498 -3.855749,8.86361 0.370455,11.46003 4.087823,2.5114 14.113333,2.90112 14.113333,0.54863 z m 5.84,-19.25662 c 0,-4.83735 -2.43536,-4.71022 -6.78029,0.35394 -2.95079,3.43926 -3.0885,4.57891 -0.89079,7.37208 2.37768,3.02193 2.81601,2.99172 5.13533,-0.35393 1.39466,-2.01183 2.53575,-5.32927 2.53575,-7.37209 z m 142.10667,-70.44754 c 0,-1.71111 -1.73038,-3.08 -3.89334,-3.08 -2.16296,0 -3.89333,1.36889 -3.89333,3.08 0,1.71111 1.73037,3.08 3.89333,3.08 2.16296,0 3.89334,-1.36889 3.89334,-3.08 z m -26.28,-17.481457 c 0,-1.678534 -1.971,-3.347145 -4.38,-3.708024 -4.26088,-0.6383 -6.08036,3.311501 -3.01493,6.544905 2.26793,2.392199 7.39493,0.425352 7.39493,-2.836881 z m -30.04536,-0.04412 c 2.07095,-1.169068 3.76536,-3.079333 3.76536,-4.245035 0,-2.686928 -7.77647,-0.335342 -11.61048,3.510983 -2.49102,2.499019 -2.41351,2.85963 0.61464,2.85963 1.90582,0 5.15953,-0.956511 7.23048,-2.125578 z m -20.56798,-4.034422 c 0.67953,-1.159741 -0.91482,-2.053334 -3.66356,-2.053334 -2.67666,0 -5.40806,0.924 -6.06977,2.053334 -0.67952,1.159741 0.91482,2.053333 3.66356,2.053333 2.67667,0 5.40806,-0.924 6.06977,-2.053333 z M 212.7,81.084754 c 0,-3.198767 -5.70286,-6.906297 -8.73521,-5.678915 -3.97592,1.609303 -3.72446,4.911463 0.46188,6.065412 5.81077,1.601721 8.27333,1.486679 8.27333,-0.386497 z m -17.9447,-8.14752 c 0.99942,-3.162544 -1.88982,-2.991007 -8.25064,0.489849 -3.32561,1.819884 -4.29173,3.204767 -2.65585,3.807032 3.4141,1.256944 9.96728,-1.324839 10.90649,-4.296881 z"
       id="path6157"
       inkscape:connector-curvature="0" />
    <path
       style="fill:#70a489"
       d="m 296.81224,470.73766 c -8.24653,-2.55599 -38.93795,-33.72822 -49.30526,-50.07766 -20.2531,-31.93952 -25.31929,-38.80457 -32.23721,-43.68378 -20.1603,-14.21905 -33.48966,-27.48701 -47.91023,-47.68955 -16.3154,-22.85711 -23.70663,-31.7841 -37.88116,-45.75219 -7.8852,-7.77035 -9.9588,-9.44201 -33.57838,-27.06969 -21.418136,-15.98471 -25.328343,-19.12093 -33.240603,-26.66085 -4.207836,-4.00984 -8.743089,-7.31981 -10.078338,-7.35549 -4.740596,-0.12671 -13.134392,-9.92914 -13.134392,-15.3386 0,-6.98888 4.81762,-16.85568 12.279806,-25.14985 7.465627,-8.29799 11.337775,-8.43357 14.661488,-0.51333 2.360401,5.62471 3.406678,6.16 12.040318,6.16 5.200405,0 9.996679,-0.924 10.658388,-2.05334 C 89.748376,184.424 91.990073,183.5 94.06822,183.5 c 4.873053,0 4.839205,-4.51094 -0.06901,-9.1962 -3.818501,-3.64505 -3.809659,-3.72083 1.175012,-10.07157 6.370388,-8.11623 13.069898,-11.32264 23.902018,-11.43962 11.11063,-0.11997 16.21012,4.03538 38.09804,31.04449 9.45937,11.67259 20.26287,24.11387 24.00779,27.64728 7.65661,7.22417 7.46581,13.08229 -0.42609,13.08229 -5.10388,0 -9.23966,4.34211 -5.41622,5.68643 1.63071,0.57335 1.44122,2.47049 -0.67866,6.79451 -3.9021,7.95929 -6.95463,7.67369 -5.40376,-0.50557 1.04165,-5.49359 0.73151,-6.3015 -1.99533,-5.19778 -1.77577,0.71877 -3.22868,0.41185 -3.22868,-0.68204 0,-1.09389 -1.25307,-1.98889 -2.7846,-1.98889 -1.53154,0 -3.06454,-2.079 -3.40667,-4.62 -0.49968,-3.71105 -2.05828,-4.74538 -7.92206,-5.25728 -7.66285,-0.66896 -9.28891,1.47335 -4.38,5.77062 1.606,1.40589 2.92,3.85276 2.92,5.43748 0,2.41605 -0.92741,2.37545 -5.74333,-0.25142 -6.73022,-3.67104 -7.88334,-3.83465 -7.88334,-1.11852 0,1.10782 2.22059,2.60209 4.93463,3.32059 2.71404,0.71851 6.25535,4.00033 7.86957,7.29293 3.45937,7.05622 6.66247,5.95527 6.66247,-2.29002 0,-4.83566 0.67318,-5.66089 3.89333,-4.77266 4.63301,1.27794 4.83974,3.86425 1.06965,13.38178 -2.91401,7.35633 -1.37485,11.85317 4.05705,11.85317 1.32075,0 2.67855,2.541 3.01734,5.64667 0.56738,5.20134 1.30684,5.65818 9.37596,5.79272 4.818,0.0803 10.293,0.31134 12.16667,0.51333 4.79452,0.51691 4.29013,6.52728 -0.54776,6.52728 -4.76468,0 -7.40404,5.88487 -3.71728,8.28828 1.6024,1.04459 4.8175,0.36233 8.23369,-1.74724 5.49835,-3.39535 5.68616,-3.35386 9.8945,2.18563 2.35937,3.10566 5.25814,5.64666 6.4417,5.64666 1.18357,0 2.65617,1.386 3.27245,3.08 0.61628,1.694 2.96257,3.08 5.21399,3.08 2.25141,0 5.37498,1.35173 6.94128,3.00385 2.22964,2.35182 3.86643,2.5143 7.54053,0.74854 6.63937,-3.19086 7.88816,-8.16958 3.07935,-12.27688 -5.29437,-4.52202 -5.06097,-5.84884 1.02885,-5.84884 2.77272,0 6.49572,1.75786 8.27334,3.90636 3.25545,3.93466 17.83351,7.95182 17.83029,4.91334 -9.5e-4,-0.89817 -3.46271,-5.17444 -7.69281,-9.50282 -5.6641,-5.79572 -8.72251,-7.52448 -11.60475,-6.55958 -2.1525,0.72062 -5.73182,0.28383 -7.95404,-0.97063 -4.45505,-2.51493 -11.68,-0.98168 -11.68,2.47868 0,1.21105 1.41803,3.29562 3.15117,4.63236 2.67717,2.06487 2.76745,3.07856 0.60016,6.7391 -2.52707,4.2682 -2.59567,4.27161 -7.30703,0.3626 -2.61581,-2.17035 -5.64438,-3.94608 -6.73017,-3.94608 -3.75296,0 -15.09895,-14.2722 -16.27444,-20.47173 -1.49914,-7.9064 1.90696,-8.20606 6.53533,-0.57493 6.37707,10.51432 10.92694,12.71894 16.83887,8.15916 4.40352,-3.39637 2.32331,-9.33398 -3.84194,-10.96615 -2.55857,-0.67736 -4.65195,-2.51737 -4.65195,-4.08895 0,-1.57156 -1.53816,-2.8574 -3.41813,-2.8574 -1.92569,0 -4.54681,-2.6896 -6.00316,-6.16 -4.20398,-10.01784 -11.99204,-6.68409 -11.99204,5.13334 0,6.13096 -2.88785,11.29333 -6.31754,11.29333 -4.06445,0 2.98111,-25.69145 7.55305,-27.542 2.16052,-0.87449 2.34645,-2.08832 0.78984,-5.15626 -5.45624,-10.75372 9.45329,-2.06813 20.01549,11.66007 1.95858,2.54566 7.43663,7.44106 12.17344,10.87865 4.73681,3.43758 8.61239,7.46364 8.61239,8.94678 0,1.76917 1.67376,2.35912 4.86666,1.71531 2.67667,-0.53972 4.86667,-0.04 4.86667,1.11055 0,3.8571 44.52601,17.9025 47.36261,14.94015 0.88877,-0.92814 0.67466,-5.26335 -0.47582,-9.63374 -1.15046,-4.3704 -2.09664,-11.44799 -2.10259,-15.72798 -0.006,-4.27999 -1.81683,-11.51577 -4.02413,-16.07949 -2.20729,-4.56374 -5.67086,-15.13399 -7.69681,-23.48945 -2.02598,-8.35546 -4.64755,-17.09166 -5.82575,-19.41377 -1.1782,-2.32211 -8.73849,-7.47953 -16.80063,-11.46093 -8.06216,-3.98139 -18.82754,-9.94471 -23.92304,-13.2518 -5.09551,-3.3071 -20.13265,-10.71382 -33.41587,-16.45939 -27.64796,-11.95894 -56.77859,-27.63568 -61.43271,-33.06023 -2.75023,-3.20549 -2.87407,-5.27929 -0.9262,-15.50993 3.03105,-15.919717 6.45136,-19.117663 21.17764,-19.800786 6.53146,-0.302984 13.25417,-1.757865 14.93935,-3.23307 3.38692,-2.964919 4.18546,-10.392684 1.11728,-10.392684 -2.9675,0 -2.31966,-9.437307 0.83758,-12.201157 2.22978,-1.951956 3.22469,-1.56924 4.996,1.921836 1.67526,3.301766 3.71118,4.205555 8.39315,3.725908 7.26951,-0.744727 9.58555,-7.051411 4.13373,-11.256317 -1.91193,-1.474645 -2.88858,-3.301027 -2.17034,-4.058631 1.79524,-1.893606 22.74322,3.228801 22.74322,5.561395 0,1.033186 2.88694,3.150859 6.41542,4.705937 3.52849,1.555079 7.92868,5.263479 9.77821,8.240889 1.84954,2.977411 4.98733,5.413473 6.97288,5.413473 1.98555,0 4.70062,1.386 6.03349,3.08 1.33286,1.694 3.70777,3.08 5.27759,3.08 1.56983,0 7.24603,4.052377 12.61383,9.005282 5.36778,4.952905 12.07913,10.228575 14.9141,11.723715 2.83496,1.49514 8.40249,6.14446 12.37229,10.33183 4.90897,5.17801 8.4189,7.28208 10.97266,6.57766 2.46574,-0.68013 7.6735,2.11894 15.16885,8.15297 6.27771,5.05377 17.54601,11.7 25.04068,14.76939 16.99436,6.95994 28.22442,13.44482 28.23396,16.30392 0.004,1.20371 3.8714,3.86454 8.59419,5.91295 4.72277,2.04841 13.38652,6.77295 19.25274,10.49897 5.86624,3.72602 13.16786,7.41904 16.22584,8.20671 13.04339,3.35971 16.4551,3.57444 19.16071,1.20593 4.6049,-4.03113 23.76337,8.79081 36.76054,24.60223 12.75877,15.52141 13.67674,19.82451 4.61175,21.61829 -7.38073,1.46051 -13.39926,-0.67738 -22.7446,-8.0793 -6.08164,-4.81692 -13.73513,-7.1105 -13.73513,-4.11612 0,0.65694 3.066,5.1411 6.81333,9.96481 3.74733,4.82371 6.81333,9.83022 6.81333,11.12557 0,1.29537 0.92202,2.35519 2.04895,2.35519 3.0738,0 13.81771,25.55119 12.39187,29.47043 -1.99513,5.48416 -14.29657,4.3051 -23.61807,-2.26376 -4.40709,-3.10567 -14.16394,-9.97941 -21.68193,-15.27495 -7.51797,-5.29557 -15.08431,-11.9066 -16.81406,-14.69121 -3.29364,-5.30217 -12.1128,-8.91985 -14.80979,-6.07508 -0.86526,0.91268 3.16109,9.51082 8.94746,19.10699 17.35675,28.78455 18.3436,31.12921 17.12749,40.69288 -1.22418,9.62697 -3.86228,10.6586 -14.75444,5.76976 -6.64705,-2.98345 -41.39071,-40.94798 -45.95605,-50.21634 -3.89018,-7.89767 -13.92297,-18.35241 -20.29607,-21.14962 -9.16113,-4.02093 -11.29249,0.39075 -12.52834,25.93229 -1.04672,21.63242 -1.18337,22.1531 -7.58812,28.90879 -3.58722,3.78378 -6.52223,7.35083 -6.52223,7.92679 0,0.57594 3.723,3.02836 8.27333,5.4498 23.50842,12.50987 42.58748,24.86613 45.06946,29.18854 2.18636,3.80756 0.31349,6.30961 -9.79866,13.09056 -3.39981,2.27983 -3.1936,2.81643 3.1564,8.21333 13.54322,11.51045 36.93514,37.61417 38.10234,42.5195 3.058,12.85163 -4.94245,17.2096 -18.25492,9.94374 -9.29469,-5.07301 -33.7668,-21.27292 -45.83384,-30.34085 -17.35739,-13.04343 -15.55381,-7.33338 5.05115,15.99175 26.30149,29.77366 40.42141,49.48215 40.42141,56.41999 l 0,5.38253 -4.50547,-4.46461 c -5.27764,-5.22975 -7.17453,-5.61209 -7.17453,-1.44606 0,1.66021 2.60974,5.05373 5.79943,7.54118 12.57342,9.8053 -5.21666,12.95002 -18.45277,3.26186 -8.73537,-6.39385 -26.72121,-23.19289 -43.48526,-40.6159 -16.89617,-17.56033 -29.04865,-27.76839 -30.82593,-25.89374 -1.374,1.44928 3.08762,8.62527 22.5453,36.26141 18.18811,25.83301 20.09814,29.76765 20.37988,41.9825 0.26827,11.63178 -1.70197,12.91965 -13.95508,9.12183 z M 352.86,427.94289 c 0,-3.87631 -18.16982,-22.8188 -20.01804,-20.8693 -1.85371,1.95528 3.9324,14.61308 6.67991,14.61308 0.76767,0 1.95182,1.848 2.63146,4.10666 1.25671,4.17648 10.70667,6.07372 10.70667,2.14956 z M 210.26724,313.37442 c 1.15018,-3.64372 -5.39429,-5.8212 -7.36859,-2.45166 -0.89197,1.5223 -1.15988,3.55611 -0.59537,4.51955 1.44077,2.45897 6.98981,1.01811 7.96396,-2.06789 z M 165.98,281.03333 c 0,-1.694 -0.8243,-3.08 -1.83178,-3.08 -2.4547,0 -4.21277,3.20647 -2.65752,4.84694 2.19231,2.31242 4.4893,1.40836 4.4893,-1.76694 z M 154.3,262.67452 c 0,-1.62735 -0.876,-3.52988 -1.94667,-4.22785 -1.07066,-0.69797 -1.94666,0.63349 -1.94666,2.95881 0,2.32532 0.876,4.22785 1.94666,4.22785 1.07067,0 1.94667,-1.33146 1.94667,-2.95881 z m 288.10667,-18.72237 c 0,-3.38815 -3.07659,-3.96058 -4.86667,-0.90548 -1.58753,2.70941 0.74014,6.55438 3.05451,5.04563 0.99668,-0.64973 1.81216,-2.51281 1.81216,-4.14015 z m -142.55279,-6.68048 c 0.42381,-1.3411 -0.61643,-2.43834 -2.31166,-2.43834 -1.69522,0 -3.08222,1.463 -3.08222,3.25111 0,3.62604 4.19071,2.99456 5.39388,-0.81277 z m 68.56688,-3.97834 c -0.029,-3.54847 -16.19411,-21.19995 -17.83233,-19.47196 -2.62354,2.76729 -0.0636,7.84602 5.23917,10.39456 2.58505,1.24237 5.81358,4.13952 7.17451,6.43813 2.45364,4.14419 5.44283,5.60014 5.41865,2.63927 z M 422.94,225.02355 c 0,-3.27488 -6.16145,-10.72355 -8.87038,-10.72355 -3.89761,0 -3.5177,2.02031 1.42304,7.56766 4.25202,4.77408 7.44734,6.12812 7.44734,3.15589 z M 125.1,218.56421 c 0,-1.04269 -2.19,-4.64107 -4.86667,-7.99641 -2.67666,-3.35534 -4.86666,-7.48852 -4.86666,-9.18484 0,-3.02956 -12.33277,-15.82963 -15.25174,-15.82963 -2.723881,0 -6.161597,4.87598 -6.161597,8.73946 0,2.54287 2.915636,5.17186 8.759997,7.89875 5.94073,2.77186 8.76,5.34057 8.76,7.98144 0,2.14179 1.94692,5.33255 4.32648,7.09059 4.82603,3.5655 9.30019,4.19121 9.30019,1.30064 z m 13.32705,-7.20441 c -0.59031,-3.0015 -1.13464,-3.06831 -4.39668,-0.53963 -2.49679,1.93547 -3.27466,4.11824 -2.3618,6.62745 1.23294,3.38905 1.64709,3.43988 4.39667,0.53963 1.66954,-1.76102 2.73235,-4.74337 2.36181,-6.62745 z M 168.9,214.3 c -0.66171,-1.12933 -2.51711,-2.05333 -4.12311,-2.05333 -1.606,0 -2.3786,0.924 -1.71689,2.05333 0.66171,1.12933 2.51711,2.05333 4.12311,2.05333 1.606,0 2.3786,-0.924 1.71689,-2.05333 z m 235.66127,-4.99811 c 3.56744,-2.78012 3.24458,-3.19532 -5.77339,-7.42527 -11.81142,-5.54024 -24.51455,-7.65517 -24.51455,-4.08141 0,1.38375 1.86164,3.02943 4.137,3.65705 2.27534,0.62762 7.75034,3.24446 12.16667,5.81521 9.80335,5.70655 9.35576,5.64143 13.98427,2.03442 z M 131.11319,199.2447 c 0.86262,-5.59776 0.47722,-7.53137 -1.50115,-7.53137 -3.16083,0 -7.06716,9.73915 -5.5638,13.87152 1.84343,5.06714 5.86293,1.46 7.06495,-6.34015 z m -41.706945,1.57061 c 1.728955,-4.75246 -2.09691,-7.89503 -5.047004,-4.14561 -2.493902,3.16962 -1.364237,7.36363 1.983408,7.36363 1.041081,0 2.419701,-1.44811 3.063596,-3.21802 z M 118.44727,188.12 c 0.55645,-1.97633 2.22898,-6.11369 3.71673,-9.19412 3.52084,-7.29002 1.26397,-8.51002 -6.51358,-3.52105 -7.41548,4.75673 -9.3994,9.06532 -6.10318,13.25465 3.2447,4.12385 7.66241,3.85606 8.90003,-0.53948 z m 195.14202,-46.28453 c 1.61571,-2.0535 0.79171,-2.75523 -3.65498,-3.11262 -5.44639,-0.43774 -7.29307,1.38889 -4.44319,4.39493 2.07267,2.18624 5.83821,1.58998 8.09817,-1.28231 z M 281.32,127.03333 c 0.61559,-2.59727 -7.49508,-3.89614 -11.82158,-1.89315 -2.58237,1.19555 -2.04398,1.82 2.57491,2.98646 7.04112,1.77817 8.61005,1.59266 9.24667,-1.09331 z m -7.80857,-10.73307 c 4.65912,-1.41386 2.28961,-4.66693 -3.39936,-4.66693 -4.86632,0 -14.5854,-8.02434 -14.5854,-12.042121 0,-1.282165 -2.19,-2.331209 -4.86667,-2.331209 -4.96252,0 -6.76599,4.67947 -2.79993,7.26494 1.13672,0.74102 2.86703,3.56756 3.84515,6.28119 1.04536,2.90013 3.35575,4.93387 5.60504,4.93387 2.10466,0 4.40494,0.98699 5.11175,2.19332 0.70684,1.20632 2.72952,1.56349 4.4949,0.79371 1.76537,-0.76979 4.73291,-1.86183 6.59452,-2.42677 z M 238.00667,100.34 c -1.89769,-2.411858 -1.91303,-3.72863 -0.0707,-6.070054 3.47833,-4.420919 0.73401,-7.276613 -6.99295,-7.276613 -5.90953,0 -6.7497,0.603892 -6.21178,4.464883 0.34214,2.455684 3.25006,6.084152 6.46206,8.06326 7.30944,4.503784 9.96386,4.822674 6.81334,0.818524 z m -17.68222,-2.342188 c 0.4461,-0.405796 -1.9629,-0.737812 -5.35334,-0.737812 -3.39044,0 -6.16444,0.941603 -6.16444,2.092453 0,1.841557 9.19262,0.760387 11.51778,-1.354641 z m -20.51557,-1.817555 c 13.91163,-1.910378 14.84125,-2.597586 14.80798,-10.946608 -0.044,-11.030172 -2.15291,-13.40918 -10.43433,-11.77045 -5.82027,1.151721 -6.80334,0.851895 -5.8449,-1.782632 1.32689,-3.647299 -4.91505,-4.399726 -10.48404,-1.26379 -1.85914,1.046894 -5.13226,2.498887 -7.27359,3.22665 -3.84965,1.308361 -3.8508,1.356222 -0.10212,4.266186 2.08517,1.618638 5.38911,2.40804 7.34208,1.754226 3.47651,-1.163858 15.14671,3.033562 15.14671,5.447811 0,1.391119 -8.99011,5.98835 -11.7105,5.98835 -0.98669,0 -1.28975,-1.386 -0.67347,-3.08 0.90219,-2.479901 -0.74063,-3.08 -8.43176,-3.08 -8.79878,0 -14.22427,2.506217 -14.22427,6.570667 0,0.903466 3.066,1.642666 6.81333,1.642666 4.7965,0 6.81333,0.9233 6.81333,3.11912 0,2.148327 1.36323,2.822297 4.38,2.165438 2.409,-0.524526 8.653,-1.540462 13.87555,-2.257634 z m 27.83588,-14.52749 c 1.49293,-4.103703 -3.24199,-7.502206 -6.49043,-4.658518 -2.94566,2.578635 -1.24233,7.945751 2.5217,7.945751 1.52506,0 3.31098,-1.479254 3.96873,-3.287233 z"
       id="path6155"
       inkscape:connector-curvature="0" />
    <path
       style="fill:#5a8e73"
       d="m 297.08691,470.77569 c -7.92616,-2.42183 -37.63983,-32.6917 -48.61076,-49.52072 -4.63065,-7.10324 -12.31839,-18.97477 -17.08389,-26.38116 -5.52514,-8.58704 -12.42083,-16.11688 -19.03172,-20.78195 -11.93779,-8.42405 -40.52422,-36.27682 -40.57417,-39.53281 -0.0185,-1.20582 -2.25837,-4.419 -4.9775,-7.14042 -2.71912,-2.72141 -6.32691,-7.7691 -8.01731,-11.21708 -1.69039,-3.44797 -5.14452,-7.98744 -7.67584,-10.08767 -3.24566,-2.69293 -4.60239,-5.90143 -4.60239,-10.88411 0,-3.88601 -1.0098,-8.77104 -2.244,-10.8556 -1.79821,-3.03717 -1.5131,-4.81217 1.4352,-8.935 2.02356,-2.8297 5.44236,-5.97249 7.59734,-6.98398 2.15497,-1.01151 3.78863,-3.4958 3.63035,-5.52063 -0.46405,-5.93668 5.79484,-3.15302 8.03422,3.57323 1.49528,4.49127 1.3793,6.18176 -0.46875,6.83234 -1.3506,0.47545 -3.30397,2.53642 -4.34083,4.57996 -1.52991,3.01532 -0.55322,4.78712 5.18262,9.4018 l 7.06781,5.68626 -1.30085,-10.34359 c -1.29804,-10.32126 -1.28775,-10.34637 4.76443,-11.62314 3.3359,-0.70372 7.51214,-0.38853 9.28054,0.70044 2.74877,1.69266 2.57979,1.98898 -1.16474,2.04236 -8.07856,0.1152 -5.47361,8.90775 6.32666,21.35463 6.1752,6.51356 10.70667,13.11706 10.70667,15.60236 0,6.03298 12.46177,18.95286 15.34622,15.91035 3.0608,-3.22852 2.70041,-7.54729 -0.74622,-8.94235 -1.606,-0.65006 -2.92,-2.46122 -2.92,-4.02482 0,-1.56361 -1.752,-3.99702 -3.89333,-5.40757 -2.14134,-1.41056 -3.89334,-3.3054 -3.89334,-4.21073 0,-1.92005 -2.95715,-5.84016 -9.67326,-12.82319 -3.54552,-3.68643 -4.23501,-5.60053 -2.628,-7.2956 1.60702,-1.69507 3.25113,-1.16666 6.2666,2.01403 2.2484,2.3716 4.76931,4.312 5.60203,4.312 0.83273,0 3.01415,1.848 4.84762,4.10667 1.83346,2.25867 4.70262,4.10667 6.3759,4.10667 1.67329,0 6.2082,2.26914 10.07758,5.04251 3.86939,2.7734 7.70101,4.60852 8.5147,4.07809 0.8137,-0.53046 2.53043,-4.32342 3.81494,-8.42879 1.91454,-6.119 2.6593,-6.85401 4.13209,-4.07807 0.98813,1.86244 3.50507,3.38626 5.5932,3.38626 2.08813,0 3.7966,1.03714 3.7966,2.30474 0,1.62624 0.83216,1.5763 2.82658,-0.16961 1.55463,-1.36092 4.49721,-1.9151 6.53909,-1.23152 4.17659,1.39821 10.101,-0.42476 10.101,-3.10817 0,-0.97086 -3.1091,-5.04468 -6.90913,-9.0529 -7.22494,-7.62085 -7.30936,-12.69221 -0.17111,-10.28256 2.28817,0.77242 7.6643,2.00793 11.94697,2.74555 5.47998,0.94385 8.35591,2.70976 9.70827,5.96115 1.05689,2.541 2.88127,4.62 4.05417,4.62 1.5089,0 1.60156,-3.45282 0.31688,-11.80666 -0.99864,-6.49367 -2.1104,-17.14667 -2.47057,-23.67336 -0.40495,-7.33779 -2.17128,-14.4547 -4.6282,-18.64792 -2.18533,-3.72969 -5.35546,-12.71168 -7.0447,-19.95999 -5.46898,-23.46621 -5.55335,-23.57995 -24.98591,-33.68086 -9.77717,-5.0821 -21.71867,-11.52289 -26.53667,-14.31287 -4.818,-2.78998 -20.586,-10.37714 -35.04,-16.86034 -14.454,-6.4832 -33.18026,-15.87848 -41.61392,-20.8784 l -15.33392,-9.09075 1.04903,-12.2028 c 1.43326,-16.672312 4.55809,-19.920626 18.95618,-19.70529 9.32361,0.139441 11.49217,0.844119 12.27151,3.987632 0.66545,2.684124 2.73541,3.818258 6.96887,3.818258 3.84976,0 6.02225,1.031841 6.02225,2.86032 0,4.26221 4.96605,5.46695 9.05745,2.19729 5.17749,-4.137622 13.88581,-3.64811 19.61136,1.10239 6.34578,5.2651 9.78602,5.18492 14.01722,-0.3267 4.31009,-5.614396 8.96965,-3.446228 5.4541,2.53788 -3.38587,5.76338 1.86354,9.27394 6.80874,4.55337 3.06795,-2.92859 3.45113,-2.94145 3.45113,-0.11581 0,1.7482 1.314,3.71041 2.92,4.36046 1.606,0.65005 2.92,2.96005 2.92,5.13333 0,4.70188 5.61171,7.52109 8.59885,4.31988 1.51765,-1.62641 1.08562,-3.05493 -1.54302,-5.10199 -2.10082,-1.63604 -3.16308,-4.18379 -2.50201,-6.0009 0.94837,-2.60685 1.99786,-2.26218 6.01547,1.97557 2.76329,2.91471 4.38567,6.45547 3.75374,8.19245 -0.70135,1.92785 0.0439,3.05913 2.01536,3.05913 1.72056,0 3.12828,1.28583 3.12828,2.8574 0,3.58829 5.99441,4.96461 18.49333,4.2461 5.35333,-0.30774 10.01591,-0.64592 10.36129,-0.75152 0.34538,-0.1056 -1.17569,-2.61059 -3.38013,-5.56666 -2.20447,-2.95607 -3.43778,-6.34805 -2.74072,-7.53772 0.72664,-1.24015 1.94124,-0.24166 2.84671,2.34019 0.86862,2.47678 2.91436,5.04361 4.54609,5.70407 1.63172,0.66046 2.99444,2.71898 3.02827,4.57449 0.0968,5.30801 8.15087,13.6128 15.29894,15.77517 3.58498,1.0845 6.19444,2.89581 5.79884,4.02514 -1.0016,2.85925 -7.63029,1.56992 -11.64844,-2.2657 -1.84238,-1.7587 -5.39303,-2.88134 -7.89031,-2.49477 -4.42308,0.68468 -4.36659,0.87396 2.18366,7.31668 3.69829,3.6376 9.61129,8.05891 13.14,9.82514 3.52868,1.76623 6.4158,4.37272 6.4158,5.7922 0,1.41947 2.847,5.34547 6.32667,8.72443 4.93147,4.78876 8.04382,6.10696 14.11333,5.97756 6.10845,-0.13025 7.7284,-0.92498 7.51629,-3.68744 -0.34946,-4.55157 -0.0586,-4.49961 10.15648,1.8149 6.40158,3.95713 8.32656,4.4947 7.44807,2.07994 -1.83279,-5.03786 -29.34156,-21.7896 -35.78166,-21.7896 -5.92994,0 -9.29738,-2.90937 -5.9176,-5.11264 1.08813,-0.70935 1.97842,-3.54519 1.97842,-6.30188 0,-5.2991 0.20771,-5.38664 13.09129,-5.51703 9.33267,-0.0945 14.75724,3.50545 13.18013,8.74674 -0.71457,2.37477 1.23261,5.68775 5.86378,9.97678 7.0788,6.55583 10.69147,8.0318 10.69147,4.36803 0,-5.35686 16.52786,1.01701 24.88258,9.59582 1.37275,1.40957 5.75275,3.11998 9.73334,3.80091 3.98058,0.68092 9.24962,2.10322 11.709,3.16065 6.26984,2.69579 13.54866,2.39297 14.49545,-0.60305 0.59102,-1.87021 3.03279,-1.48984 9.4089,1.46571 9.7833,4.53489 36.83739,32.81423 36.83739,38.50571 0,1.9915 -0.657,3.46934 -1.46,3.28409 -0.803,-0.18525 -3.90302,0.38592 -6.88896,1.26929 -4.37435,1.29411 -7.58861,0.22399 -16.54666,-5.5089 -6.11474,-3.91326 -12.62266,-7.67808 -14.46202,-8.36628 -6.31563,-2.36297 -5.72897,2.83922 1.23741,10.97269 7.92128,9.24835 8.67351,12.23669 3.08023,12.23669 -2.85511,0 -3.89333,1.3689 -3.89333,5.13333 0,6.15551 6.43897,7.18706 9.61272,1.54 1.85607,-3.30248 2.33613,-3.17784 5.93108,1.54 4.84097,6.35304 8.74431,19.12719 7.16831,23.45919 -2.53795,6.9762 -20.54442,1.3774 -32.44544,-10.08835 -2.67667,-2.57878 -7.6533,-6.17097 -11.05917,-7.98264 -3.40589,-1.81168 -10.19997,-7.46116 -15.09798,-12.55441 -5.76272,-5.99243 -10.61893,-9.26045 -13.76083,-9.26045 -2.67044,0 -4.85536,0.82956 -4.85536,1.84347 0,2.25723 13.88616,26.53538 21.60927,37.78101 6.17601,8.99291 7.41586,14.9187 2.72407,13.01964 -3.75292,-1.51904 -3.67782,-0.2176 0.40843,7.07892 4.6142,8.23921 1.65863,11.11213 -8.4717,8.23486 -5.55117,-1.5767 -10.70717,-5.78525 -19.22762,-15.69445 -6.40334,-7.44703 -14.80856,-16.97419 -18.67825,-21.17149 -3.8697,-4.1973 -8.52238,-10.6637 -10.33931,-14.36976 -3.95013,-8.05726 -13.62914,-17.66589 -21.19953,-21.04536 -4.42977,-1.97748 -5.9661,-1.89599 -8.00845,0.4248 -3.6834,4.18554 -6.77019,23.90684 -5.53431,35.35836 1.02655,9.51203 0.73841,10.2547 -7.35235,18.9503 -4.63141,4.97764 -8.0374,9.36796 -7.56883,9.75624 0.46856,0.38829 4.28621,2.03508 8.48369,3.65954 9.68147,3.74682 12.19814,9.12752 3.30555,7.06736 -3.87069,-0.89673 -6.07066,-0.60316 -6.07066,0.81007 0,1.21908 0.657,2.21762 1.46,2.21899 0.803,0.001 3.98325,2.29144 7.06722,5.08902 6.07936,5.51481 9.9024,4.95921 8.37129,-1.2166 -1.44014,-5.80886 2.54897,-4.82054 17.33898,4.29582 17.35171,10.69537 18.1821,12.54649 9.15064,20.39891 l -7.24906,6.30268 15.49504,15.41717 c 8.52225,8.47944 16.07641,15.41716 16.787,15.41716 1.83713,0 13.52248,18.97079 12.40889,20.1454 -0.50742,0.53522 -2.27892,-0.2142 -3.93666,-1.6654 -3.82645,-3.34966 -6.20064,-1.08952 -3.05508,2.90832 1.30152,1.65417 3.61636,2.50164 5.14406,1.88328 1.68714,-0.68288 2.77768,0.15585 2.77768,2.13627 0,8.63057 -18.65823,4.30282 -33.73131,-7.82394 -3.59857,-2.89516 -7.5028,-5.26393 -8.67608,-5.26393 -1.17328,0 -7.66058,-4.466 -14.41625,-9.92443 -11.74808,-9.49222 -19.51746,-14.71557 -21.88838,-14.71557 -3.71292,0 1.4227,7.0146 21.38413,29.20795 21.84892,24.29192 37.86123,46.33992 37.86123,52.1327 0,4.10122 -2.56958,3.50003 -5.38824,-1.26065 -1.33728,-2.25866 -3.29999,-4.10666 -4.36158,-4.10666 -3.69326,0 -1.8988,7.52858 2.93648,12.32 2.67667,2.65239 4.86667,5.58545 4.86667,6.51791 0,2.51786 -13.23151,2.05268 -18.13464,-0.63756 C 340.40042,448.91224 323.671,433.874 303.22,413.38728 c -22.04014,-22.07863 -37.96,-35.88383 -37.96,-32.91769 0,3.7845 6.0392,13.07239 37.31096,57.3818 4.54893,6.44543 6.65421,12.02405 7.46315,19.77598 1.7053,16.34172 0.73366,17.32845 -12.9472,13.14832 z M 302.19259,446.84 c -0.08,-2.27947 -11.47319,-13.67888 -12.54327,-12.55018 -1.4898,1.57146 7.50977,14.01599 10.16401,14.0547 1.33834,0.0205 2.409,-0.65752 2.37926,-1.50452 z m 51.2197,-17.54976 c 1.35359,-3.72066 -18.70429,-27.18297 -21.61596,-25.28485 -3.91177,2.55008 -2.59711,6.47174 5.83457,17.40486 7.93916,10.29449 13.83246,13.23714 15.78139,7.87999 z m -39.48562,-45.518 c 0,-3.03875 -5.66515,-7.25891 -9.74441,-7.25891 -1.29518,0 -0.94441,1.33884 0.84536,3.22667 1.68248,1.77466 3.05905,4.08466 3.05905,5.13334 0,1.04865 1.314,1.90666 2.92,1.90666 1.606,0 2.92,-1.3535 2.92,-3.00776 z M 300.3,370.35333 c 0,-1.12933 -1.314,-2.05333 -2.92,-2.05333 -1.606,0 -2.92,0.924 -2.92,2.05333 0,1.12934 1.314,2.05334 2.92,2.05334 1.606,0 2.92,-0.924 2.92,-2.05334 z m 58.4,-1.0911 c 0,-3.31013 -5.18119,-6.44824 -7.17469,-4.34551 -1.38648,1.46243 3.01258,7.48995 5.46637,7.48995 0.93958,0 1.70832,-1.415 1.70832,-3.14444 z m -126.97945,-17.7739 c -1.20318,-3.80733 -5.39388,-4.43881 -5.39388,-0.81277 0,1.78811 1.387,3.25111 3.08222,3.25111 1.69522,0 2.73547,-1.09726 2.31166,-2.43834 z m 97.86869,-7.65246 C 327.5457,339.80828 323.66,337.905 323.66,340.93165 c 0,2.05063 6.33422,9.05151 7.28357,8.05014 0.45019,-0.47488 -0.15924,-2.79054 -1.35433,-5.14592 z m -40.16521,-26.22702 c -2.63304,-2.03083 -3.89133,-2.16611 -4.42551,-0.47578 -0.90779,2.87259 3.68901,6.19195 6.25676,4.51801 1.01632,-0.66253 0.19233,-2.48154 -1.83125,-4.04223 z m -43.24136,-11.31952 c -1.81689,-1.91643 -2.85512,-1.91643 -4.672,0 -1.81689,1.91644 -1.29779,2.464 2.336,2.464 3.63378,0 4.15288,-0.54756 2.336,-2.464 z m -61.30262,-4.46232 c -1.11934,-3.54202 -4.16691,-2.75085 -4.90148,1.27245 -0.47103,2.57989 0.22735,3.22909 2.48895,2.3137 1.72903,-0.69986 2.81467,-2.31362 2.41253,-3.58615 z m 192.38196,-58.64026 c -4.67634,-9.53857 -24.34011,-32.99342 -27.66055,-32.99342 -2.37143,0 -2.75103,1.48275 -1.77893,6.94843 0.94005,5.28544 0.49646,7.2477 -1.85342,8.19883 -1.73004,0.70026 -2.47594,2.29706 -1.69535,3.6293 0.98034,1.67315 2.12957,1.31763 3.87375,-1.19839 3.39477,-4.897 9.81381,-2.45427 13.54384,5.15402 1.62174,3.30796 4.13939,6.01448 5.59475,6.01448 1.45537,0 4.08107,2.31 5.83488,5.13333 4.44524,7.15601 7.73832,6.45098 4.14103,-0.88658 z m -75.55909,-7.02489 c -0.94277,-3.02284 -7.42108,-3.94931 -10.91307,-1.56068 -1.7992,1.23071 -2.26528,3.65824 -1.40029,7.29342 l 1.2965,5.44871 5.8757,-4.41313 c 3.23162,-2.4272 5.54516,-5.47295 5.14116,-6.76832 z M 428.17973,231.24 c -0.45652,-0.847 -2.30472,-4.88208 -4.10714,-8.96685 -4.02962,-9.13229 -15.44078,-17.86193 -32.7864,-25.08188 -13.438,-5.59344 -22.85286,-7.03726 -22.85286,-3.50459 0,2.58012 7.9271,10.34126 10.58707,10.36543 1.13644,0.0103 6.44627,2.29143 11.7996,5.06912 5.35333,2.77769 11.20669,5.07924 13.00745,5.11456 1.80075,0.0353 5.12464,2.80545 7.38639,6.15585 2.26178,3.35041 6.48242,7.41039 9.37924,9.02219 6.07233,3.37868 8.77394,4.02898 7.58665,1.82617 z M 222.43333,112.66 c 0,-1.694 -1.314,-3.08 -2.92,-3.08 -3.03986,0 -3.86212,2.42848 -1.62222,4.79111 2.2399,2.36264 4.54222,1.49532 4.54222,-1.71111 z m -95.30914,168.47187 c -1.34496,-1.70938 -1.77008,-4.89498 -0.99638,-7.46627 1.20699,-4.01124 0.81599,-4.34356 -3.70285,-3.14726 -3.66091,0.96917 -6.13273,0.19794 -8.97531,-2.8004 -2.15764,-2.27587 -4.46218,-4.13794 -5.12119,-4.13794 -2.66132,0 -27.671483,-18.71704 -28.667133,-21.45382 -0.764174,-2.10052 0.666858,-3.12431 5.000831,-3.57771 4.673452,-0.4889 6.488705,-1.96479 7.884037,-6.41014 2.239161,-7.13367 0.590599,-9.25569 -3.93426,-5.06417 -1.880231,1.74172 -5.389602,3.80033 -7.798602,4.57467 -2.409,0.77435 -4.38,2.26964 -4.38,3.32288 0,4.54425 -5.991226,1.27785 -11.768378,-6.41608 -3.588863,-4.7796 -7.370423,-7.87977 -8.870866,-7.27244 -1.438433,0.58222 -5.145479,-1.18705 -8.237881,-3.93171 -3.092401,-2.74467 -6.182122,-4.40007 -6.866045,-3.67867 -0.683923,0.7214 -1.243496,-1.6689 -1.243496,-5.31177 0,-3.89273 0.802564,-6.10021 1.946666,-5.35437 1.128974,0.73597 1.946667,-1.26376 1.946667,-4.76073 0,-6.86571 2.725328,-9.93334 9.733333,-10.95586 3.609525,-0.52665 4.826739,-1.9035 4.7121,-5.33008 -0.08501,-2.541 0.520472,-4.62 1.34552,-4.62 2.948414,0 20.758516,19.58558 21.472726,23.61333 0.943154,5.31887 13.349654,7.29903 13.349654,2.1307 0,-2.94478 0.55429,-2.96048 5.686529,-0.16108 3.127588,1.70596 7.576648,5.90164 9.886808,9.32372 5.07103,7.51184 14.73417,13.36003 16.65589,10.08025 0.71693,-1.22358 2.85967,-1.79544 4.76165,-1.27081 1.90197,0.52463 4.62699,0.19191 6.05559,-0.73939 1.54261,-1.00563 3.19912,-0.69496 4.07901,0.765 2.50442,4.15542 1.74319,5.00953 -3.51905,3.94847 -4.09018,-0.82473 -4.92983,-0.30996 -4.38,2.68527 0.37413,2.03807 3.30824,5.24112 6.52024,7.11787 7.1966,4.20494 8.92065,10.26667 2.92,10.26667 -2.95221,0 -3.97064,1.05474 -3.46961,3.59333 0.45694,2.31522 2.23874,3.41936 5.0094,3.10421 6.82002,-0.77575 5.5324,8.27867 -2.51312,17.67208 -3.74734,4.37512 -6.81334,9.45979 -6.81334,11.29924 0,4.1493 -4.56106,4.36406 -7.70914,0.36301 z m 81.08651,-0.38494 c -0.68467,-0.72217 -0.80262,-2.06783 -0.2621,-2.99033 1.21375,-2.0715 6.69807,-0.0493 6.69807,2.46975 0,2.10693 -4.58077,2.47743 -6.43597,0.52058 z m 27.8493,-12.2047 c 0,-3.62604 4.19071,-2.99456 5.39388,0.81277 0.42381,1.34109 -0.61643,2.43833 -2.31166,2.43833 -1.69522,0 -3.08222,-1.463 -3.08222,-3.2511 z M 224.38,260.5 c 0,-1.694 -0.876,-3.08 -1.94667,-3.08 -1.07066,0 -1.94666,-0.94529 -1.94666,-2.10066 0,-1.15537 2.19,-0.58711 4.86666,1.26282 5.45673,3.77129 6.35429,6.99784 1.94667,6.99784 -1.606,0 -2.92,-1.386 -2.92,-3.08 z m -38.64166,-7.53206 c -0.35862,-6.73629 1.41231,-11.97461 4.04829,-11.97461 1.31869,0 1.30669,0.85446 -0.036,2.56667 -1.10703,1.41167 -2.39704,5.33867 -2.86669,8.72667 -0.81514,5.88033 -0.86715,5.91126 -1.14558,0.68127 z m 19.21999,-6.71643 c -0.99291,-2.75467 -3.59923,-6.02117 -5.79181,-7.2589 -3.86225,-2.18027 -5.62203,-8.26594 -2.39025,-8.26594 2.9795,0 17.8704,14.67669 17.8704,17.61333 0,5.00463 -7.73245,3.33775 -9.68834,-2.08849 z m -41.41166,-19.79598 c -1.87367,-1.15111 -3.40667,-3.4005 -3.40667,-4.99865 0,-4.36999 -7.27518,-7.60167 -13.74084,-6.10376 -7.28748,1.6883 -7.5671,-1.95151 -0.42722,-5.56108 2.91423,-1.47329 5.32323,-3.60271 5.35333,-4.73204 0.0951,-3.56824 -8.27125,-3.47463 -13.51757,0.15125 -7.3319,5.06728 -7.69895,2.70197 -1.07701,-6.94025 5.92581,-8.62858 6.0934,-13.46108 0.54473,-15.70698 -4.70484,-1.90434 -16.06875,10.65948 -16.06875,17.76544 0,3.16646 -0.7735,5.75721 -1.71888,5.75721 -1.40587,0 -1.60007,-6.55016 -0.4412,-14.88075 0.11739,-0.84375 3.46633,-5.33198 7.44213,-9.97384 6.92765,-8.08826 7.07431,-8.55884 3.52126,-11.29925 -2.03909,-1.57272 -5.26153,-2.8595 -7.16097,-2.8595 -4.29203,0 -17.21568,11.72033 -17.21568,15.61271 0,4.08107 -3.78428,3.55508 -5.22365,-0.72604 -0.664472,-1.97633 -2.4588,-5.13347 -3.987397,-7.01586 -3.15572,-3.8861 -1.565291,-8.48712 5.149347,-14.89675 5.60235,-5.34787 7.68467,-2.30752 2.44716,3.57305 -5.275662,5.92339 -5.403132,9.61289 -0.33212,9.61289 2.14133,0 3.89333,-0.83273 3.89333,-1.85051 0,-1.01778 3.10579,-3.78339 6.90176,-6.14578 4.36558,-2.71689 6.69044,-5.59359 6.32667,-7.82839 -0.34355,-2.11061 0.89163,-3.8497 3.06786,-4.31944 2.56887,-0.55448 8.88235,5.02171 21.41333,18.91267 28.91664,32.05495 31.14442,36.13812 19.71705,36.13812 -9.36696,0 -9.07584,8.00777 0.40452,11.12745 3.16274,1.04076 4.95738,0.30038 6.79494,-2.80324 2.79689,-4.72394 7.38844,-5.4623 10.90454,-1.75354 4.17181,4.40041 2.6173,7.80266 -3.5651,7.80266 -3.44963,0 -6.36658,1.27951 -7.0216,3.08 -1.2943,3.5577 -4.14429,3.83142 -8.9773,0.8622 z m -37.41256,-10.70409 c -0.8333,-2.02504 -0.96887,-4.25804 -0.30127,-4.96222 1.97683,-2.08514 3.57036,0.84381 2.6605,4.89007 -0.8066,3.58706 -0.91154,3.59027 -2.35923,0.0721 z m 176.38166,-84.84907 c -2.92294,-2.15948 -3.82666,-4.01788 -2.58881,-5.32356 2.50698,-2.64434 10.10637,1.59167 10.10637,5.63343 0,3.88039 -1.95498,3.79981 -7.51756,-0.30987 z m -39.74314,-25.45251 c -6.04711,-7.449498 -3.04434,-11.665038 3.15899,-4.43485 3.37305,3.9314 4.29688,8.56499 1.70767,8.56499 -0.83272,0 -3.02272,-1.85856 -4.86666,-4.13014 z M 242.76851,88.867756 c -2.00608,-3.423767 2.50576,-7.349928 5.19121,-4.517334 2.2463,2.369391 0.84042,6.749578 -2.16639,6.749578 -0.94429,0 -2.30545,-1.004511 -3.02482,-2.232244 z M 172.30667,71.601894 c -2.48575,-2.978032 -3.35724,-9.248561 -1.28537,-9.248561 2.03047,0 8.25749,9.16507 7.31727,10.769734 -1.32933,2.268756 -3.27884,1.777112 -6.0319,-1.521173 z m 29.82298,-2.855904 c -0.58673,-1.001371 0.17117,-2.904382 1.68422,-4.228909 3.0295,-2.652026 15.93249,-0.981738 17.86256,2.312301 2.0043,3.420726 -1.22322,4.703093 -5.21646,2.072623 -2.73166,-1.799427 -4.93012,-1.925933 -7.57016,-0.435605 -4.54818,2.567486 -5.399,2.602676 -6.76016,0.27959 z m -7.36686,-9.145776 C 193.97814,55.270637 194.52352,54.14 197.39661,54.14 c 4.29918,0 4.57085,1.95503 0.98957,7.121096 -2.47869,3.575553 -2.69211,3.477728 -3.62339,-1.660882 z"
       id="path6153"
       inkscape:connector-curvature="0" />
    <path
       style="fill:#516a5b"
       d="m 299.58682,470.90386 c -8.36909,-2.64453 -20.22941,-11.9957 -24.53544,-19.34479 -2.10006,-3.58417 -6.08658,-7.79712 -8.85891,-9.36213 -2.77232,-1.56501 -9.11887,-9.36106 -14.10342,-17.32455 -4.98454,-7.96348 -12.32528,-18.87508 -16.31278,-24.248 -3.98747,-5.37289 -7.77284,-11.50663 -8.41191,-13.63049 -0.63907,-2.12387 -4.85699,-6.42975 -9.37315,-9.56862 -13.86622,-9.63746 -22.73934,-18.1921 -22.77612,-21.95861 -0.0193,-1.97634 -1.34809,-3.59334 -2.95286,-3.59334 -3.70936,0 -19.51524,-16.03556 -17.69665,-17.95381 0.7477,-0.78866 2.13434,-0.1115 3.08142,1.50497 1.4649,2.50012 2.2712,2.41462 5.40077,-0.5728 5.13915,-4.9057 6.92084,-4.3797 5.49284,1.62164 -1.52042,6.38977 0.31059,6.75678 2.56103,0.51334 2.00592,-5.56507 1.77705,-8.9442 -0.55036,-8.12589 -0.9398,0.33043 -1.24081,-1.28657 -0.66892,-3.59333 1.23584,-4.98477 -2.78466,-5.6866 -6.38236,-1.11412 -1.33286,1.694 -3.26573,3.08 -4.29527,3.08 -1.02954,0 0.89293,-3.68214 4.27214,-8.18253 4.13297,-5.50423 5.75355,-9.48024 4.95106,-12.14719 -1.62878,-5.41302 1.34896,-6.83902 6.43483,-3.08154 2.71172,2.00344 4.21057,5.28509 4.21057,9.21881 0,3.60048 1.22831,6.60518 2.992,7.31906 4.2903,1.73655 9.10145,12.53127 7.68427,17.24108 -0.89408,2.97134 -0.004,4.4836 3.45282,5.87013 2.56144,1.02723 6.14445,4.26194 7.96225,7.18825 3.36777,5.42152 9.7408,7.08092 12.05113,3.13789 1.5111,-2.57899 -4.46074,-10.13729 -8.0095,-10.13729 -3.04692,0 -5.86952,-12.33908 -3.2292,-14.1165 1.04864,-0.70592 1.48085,-4.2865 0.96048,-7.95683 -0.69746,-4.91938 -1.94888,-6.67334 -4.76126,-6.67334 -4.5068,0 -4.1809,-5.66755 0.50484,-8.77954 2.30586,-1.53139 5.36164,-0.31913 12.38486,4.91326 8.05141,5.9984 12.76355,12.67453 18.67105,26.45295 2.01795,4.70659 9.66924,5.22179 9.7446,0.65614 0.0498,-3.01657 0.83092,-2.64861 4.05571,1.91053 2.19671,3.10566 4.79695,5.64666 5.77832,5.64666 3.02199,0 1.98142,-5.34185 -2.10903,-10.82696 -4.55697,-6.1107 -5.29515,-19.53453 -1.16612,-21.2058 1.49997,-0.60713 6.82307,2.19387 11.82912,6.22444 11.87463,9.56079 17.06127,9.77551 16.227,0.67181 -0.42931,-4.68472 -1.73926,-6.88257 -4.4222,-7.4196 -2.0967,-0.4197 -5.78031,-2.12333 -8.18581,-3.78583 -3.58224,-2.47577 -3.97784,-3.69124 -2.18626,-6.7172 1.68743,-2.85006 1.44497,-5.34468 -1.06084,-10.91463 -3.13668,-6.97224 -4.12432,-11.73289 -2.43411,-11.73289 3.80637,0 6.97255,3.33034 6.97255,7.33411 0,2.68151 1.67627,5.78767 3.75738,6.96247 2.06656,1.1666 4.03756,4.2021 4.38,6.74559 0.48859,3.62906 2.08922,4.76952 7.43595,5.29821 3.74734,0.37057 9.6019,2.91157 13.01012,5.64667 7.56747,6.07294 12.29655,6.40609 12.29655,0.86628 0,-2.56798 1.27641,-4.08133 3.40667,-4.03905 4.81788,0.0957 22.09768,10.61631 24.64038,15.0021 2.17259,3.74744 0.26819,6.27826 -9.80959,13.03615 -3.39981,2.27983 -3.1936,2.81643 3.15641,8.21333 19.41052,16.4971 17.81026,23.0169 -2.35489,9.59434 -4.80419,-3.19782 -7.79655,-7.07018 -8.89177,-11.50669 -1.4531,-5.88629 -2.33411,-6.60149 -7.35896,-5.97383 -3.13955,0.39217 -5.99823,1.00603 -6.35264,1.36414 -1.85904,1.87849 4.68398,9.92969 10.04774,12.36377 3.39349,1.53994 13.10162,9.77773 21.57361,18.30617 13.935,14.02786 20.60971,18.50065 20.60971,13.81082 0,-0.93246 -2.19,-3.86552 -4.86667,-6.51792 -5.26116,-5.21343 -6.40726,-10.26666 -2.32854,-10.26666 2.9921,0 13.52571,11.31651 16.81108,18.06056 2.14902,4.41136 2.04476,4.54814 -1.62453,2.13107 -6.42912,-4.23506 -7.47297,0.27805 -1.35,5.83673 4.12855,3.74807 5.00013,5.58106 3.20897,6.74871 -4.05612,2.64418 -15.57447,-1.21851 -26.16628,-8.77488 -5.48022,-3.90967 -12.15403,-8.25339 -14.8307,-9.65274 -2.67667,-1.39935 -9.24667,-6.04742 -14.6,-10.32907 -11.22325,-8.97649 -19.86521,-13.52446 -21.80697,-11.4763 -0.74277,0.78349 6.11378,9.48059 15.23679,19.32687 27.03237,29.17553 44.62599,53.0084 44.46828,60.23807 -0.0448,2.05502 -0.77515,1.8466 -2.64796,-0.75569 -3.07885,-4.27812 -8.97014,-4.77527 -8.97014,-0.75698 0,1.56 2.76761,5.69048 6.15026,9.17887 5.21463,5.37762 5.65662,6.54231 2.90534,7.65592 -10.17554,4.11867 -24.99933,-6.41098 -59.88388,-42.5368 -14.2022,-14.70751 -38.71839,-35.9206 -38.71839,-33.50177 0,3.14158 8.78611,18.14919 18.82688,32.1583 21.35077,29.78914 25.66166,36.64701 26.96201,42.89187 1.4544,6.98464 -0.29677,10.50638 -2.96222,5.95726 -0.95424,-1.62858 -2.27851,-2.38774 -2.94285,-1.687 -0.66434,0.70074 0.71456,3.16324 3.06424,5.47226 2.50246,2.45913 3.79065,5.52163 3.1098,7.39312 -1.28976,3.54519 -1.80074,3.60153 -9.78437,1.07881 z m 2.65985,-23.46129 c 0,-1.64492 -3.49308,-6.95792 -7.7624,-11.80667 -6.81037,-7.73466 -7.76538,-8.25803 -7.78666,-4.26736 -0.0241,4.5376 10.49434,19.06479 13.80405,19.06479 0.95976,0 1.74501,-1.34585 1.74501,-2.99076 z m 52.19515,-18.08732 c 0.87277,-4.78026 -16.571,-26.14858 -21.34605,-26.14858 -5.12174,0 -6.57401,5.26283 -2.9791,10.79585 10.93919,16.8368 22.69906,24.259 24.32515,15.35273 z m -85.41128,-29.38464 c -1.78233,-2.26528 -3.00912,-2.48552 -4.56404,-0.8194 -1.54285,1.65318 -1.06407,3.1055 1.74437,5.29142 4.54461,3.53722 6.58067,0.308 2.81967,-4.47202 z m 46.84279,-14.3106 c 0,-1.74533 -2.409,-5.50579 -5.35333,-8.35657 -2.94433,-2.85077 -6.8619,-6.63929 -8.70571,-8.41894 -2.73804,-2.64276 -3.89744,-2.75859 -6.32666,-0.63203 -3.78956,3.31738 -3.81483,6.20753 -0.0543,6.20753 1.606,0 2.92,1.1203 2.92,2.48954 0,3.41125 9.92835,11.71924 14.11334,11.80996 1.87366,0.0406 3.40666,-1.35416 3.40666,-3.09949 z m -73.10856,-17.17472 c 1.6504,-2.81674 -0.92708,-8.39862 -3.87815,-8.39862 -3.92444,0 -5.4051,3.90954 -2.75586,7.2766 2.69284,3.42247 5.05228,3.82154 6.63401,1.12202 z m -37.15561,-31.40015 c 1.14756,-1.92216 1.41843,-4.19947 0.60195,-5.0607 -2.07682,-2.19062 -7.97563,2.10879 -8.77456,6.39545 -0.85405,4.58239 5.23359,3.58816 8.17261,-1.33475 z M 164.0349,322.1031 c -2.85128,-5.6196 -0.82343,-10.28168 2.08652,-4.79696 1.15097,2.16937 3.26405,2.98034 5.88317,2.25789 3.74431,-1.03281 3.8687,-0.75846 1.48299,3.27096 -3.42033,5.77693 -6.26185,5.55692 -9.45268,-0.73189 z m -5.84157,-14.35222 c 0,-1.945 -1.59213,-2.878 -4.38,-2.56667 -3.61766,0.40399 -4.48434,-0.64658 -4.97952,-6.03602 -0.83588,-9.09756 2.55502,-21.07141 8.2887,-29.26881 4.21279,-6.023 5.03116,-6.45108 6.1985,-3.24234 0.86043,2.36509 0.1791,4.596 -1.89138,6.19292 -4.75642,3.66855 -3.94528,11.14607 1.82051,16.78241 4.0032,3.91332 4.78178,6.09909 3.73683,10.49064 -2.17011,9.12015 -8.79364,14.88067 -8.79364,7.64787 z M 206.86,302.59333 c 0,-1.12933 1.314,-2.05333 2.92,-2.05333 1.606,0 2.92,0.924 2.92,2.05333 0,1.12934 -1.314,2.05334 -2.92,2.05334 -1.606,0 -2.92,-0.924 -2.92,-2.05334 z m -24.25465,-5.89538 c -4.54458,-1.02772 -6.03435,-2.711 -7.05414,-7.97041 -1.48741,-7.67111 0.91739,-8.83937 4.2148,-2.04754 1.23365,2.541 4.11147,6.21645 6.39516,8.16767 2.28369,1.95122 3.71416,3.4589 3.17883,3.3504 -0.53533,-0.10842 -3.56593,-0.78357 -6.73465,-1.50012 z m 206.82975,-1.81542 c -2.90304,-1.9704 -13.63404,-13.55446 -23.84666,-25.74239 -19.93889,-23.79538 -22.35942,-29.97035 -14.52245,-37.04825 5.14952,-4.65074 9.58068,-1.41157 9.58068,7.00344 0,4.81811 1.41538,6.52275 8.27333,9.96411 4.55033,2.28339 9.76432,5.29695 11.58664,6.69681 1.82231,1.39984 3.85442,1.97438 4.5158,1.27678 4.50129,-4.74796 -29.33358,-48.89303 -37.47392,-48.89303 -4.84868,0 -5.49445,2.26269 -2.39125,8.37879 1.55446,3.06367 1.3607,4.2733 -0.8263,5.15851 -2.06076,0.83412 -2.55566,3.11448 -1.7759,8.18287 1.31345,8.53734 -0.33045,8.67898 -9.08821,0.78305 -7.22116,-6.51055 -12.05514,-7.63021 -15.15357,-3.50989 -3.40463,4.52752 -6.71906,23.68888 -6.02914,34.8555 0.61894,10.01809 0.32922,10.88197 -3.85964,11.50789 -2.9667,0.44329 -4.16468,1.67769 -3.47313,3.57863 0.97558,2.68157 -5.61091,11.14465 -8.67343,11.14465 -3.46172,0 -5.58245,-6.55022 -6.83278,-21.1041 -1.19445,-13.90349 -0.96957,-15.8559 1.82633,-15.8559 1.75367,0 3.1885,-0.88661 3.1885,-1.97023 0,-1.08363 2.35303,-4.27166 5.22898,-7.0845 l 5.22898,-5.11428 -5.35736,-5.6509 c -3.26793,-3.447 -5.8767,-4.81804 -6.68898,-3.51539 -2.07708,3.33102 -9.75288,4.69014 -11.72814,2.07666 -0.97883,-1.29508 -3.26898,-8.70553 -5.08925,-16.46766 -5.01693,-21.39364 -6.01532,-22.86063 -19.74816,-29.01697 -6.82125,-3.05793 -17.22344,-8.62209 -23.11596,-12.36481 -5.89253,-3.74272 -21.45438,-11.61173 -34.5819,-17.48668 -44.74137,-20.0231 -65.74527,-32.3494 -65.69173,-38.55173 0.0629,-7.28782 2.98285,-9.31241 9.81014,-6.80199 7.58283,2.78824 8.54372,2.1244 6.90341,-4.76923 -0.98512,-4.14013 -2.45254,-5.228957 -7.04712,-5.228957 -6.95824,0 -8.10156,-5.609626 -1.42291,-6.98139 9.31408,-1.913071 18.97913,-0.503689 19.00981,2.772057 0.059,6.30365 2.91334,8.59541 8.10978,6.51147 3.91541,-1.5702 5.537,-1.17471 8.09277,1.97376 3.82757,4.71523 9.63039,5.09892 12.96764,0.85744 2.69503,-3.42525 9.73333,-4.20578 9.73333,-1.0794 0,1.10033 2.847,3.55233 6.32667,5.44888 3.47967,1.89655 7.20267,4.61433 8.27333,6.03951 1.07067,1.42518 3.69867,2.92902 5.84,3.34187 2.55656,0.4929 3.84202,2.29768 3.74388,5.2564 -0.12517,3.77346 0.62169,4.30162 4.59531,3.24965 4.15869,-1.10095 4.58174,-0.71431 3.42494,3.13016 -1.04695,3.4794 -0.5165,4.38626 2.56564,4.38626 2.13701,0 5.19947,-1.386 6.80547,-3.08 3.79921,-4.00739 5.32637,-3.91505 3.81807,0.23086 -1.01005,2.77637 -0.21454,3.08151 4.92777,1.89018 4.78032,-1.10746 6.13226,-0.73239 6.13226,1.7013 0,4.86049 3.79421,6.16756 9.14129,3.14908 4.30431,-2.42982 5.18791,-2.30408 7.5278,1.07126 2.48692,3.58743 2.95268,3.61576 7.5225,0.45744 6.39447,-4.41941 7.48262,-4.2481 5.92375,0.93259 -0.93374,3.10314 0.21437,5.95968 4.12637,10.26667 2.98101,3.28201 6.57013,5.96729 7.97582,5.96729 1.40569,0 2.5558,0.924 2.5558,2.05333 0,1.12933 -0.90682,2.05333 -2.01515,2.05333 -1.36428,0 -1.38533,1.16064 -0.0652,3.59334 4.90906,9.04623 5.22057,9.25755 9.49582,6.44132 4.32025,-2.84588 2.89942,-4.11754 24.34861,21.79201 3.64644,4.40472 5.11707,5.21087 5.16106,2.8291 0.0426,-2.30724 2.57178,-3.7543 8.22971,-4.70862 6.47849,-1.09271 9.24515,-0.53785 13.37432,2.68225 2.86337,2.23299 15.28897,9.17262 27.61242,15.42141 12.32347,6.24879 22.90633,12.73594 23.5175,14.41588 0.61116,1.67994 4.65985,4.96402 8.99709,7.29795 5.20517,2.80099 9.04501,6.84603 11.29576,11.89945 3.79046,8.51035 11.45662,11.54119 14.53175,5.74516 2.39209,-4.50864 5.13338,-2.24595 9.46291,7.81074 5.71813,13.28215 5.08142,15.66001 -4.1933,15.66001 -8.27773,0 -21.61472,-6.83008 -28.10237,-14.39167 -1.92921,-2.24858 -4.63597,-4.08833 -6.01501,-4.08833 -1.37902,0 -7.71135,-5.082 -14.07181,-11.29333 -9.04226,-8.83026 -12.93299,-11.29333 -17.83923,-11.29333 -7.79747,0 -7.79827,-0.002 8.9109,26.81244 10.88504,17.46831 12.54903,21.2394 10.02839,22.7273 -3.41862,2.01798 -2.51388,8.56181 1.69286,12.24442 1.49031,1.30461 2.70965,3.18287 2.70965,4.17391 0,3.16347 -12.46064,1.9111 -17.93157,-1.80221 z M 300.519,265.043 c -1.19113,-1.25639 -2.16567,-3.94753 -2.16567,-5.98033 0,-2.0328 -0.876,-3.696 -1.94666,-3.696 -2.52824,0 -2.50749,0.15769 1.25161,9.50258 1.79685,4.4669 3.59878,6.74737 4.11233,5.20442 0.50273,-1.5105 -0.0605,-3.77428 -1.25161,-5.03067 z m 151.5912,-3.003 c -0.0156,-0.847 -0.84478,-2.89925 -1.84083,-4.56054 -2.24281,-3.74074 -4.87406,-1.40125 -3.29761,2.93198 1.16426,3.20026 5.19357,4.47731 5.13844,1.62856 z M 261.36667,155.78 c 0,-1.694 -0.876,-3.08 -1.94667,-3.08 -1.07067,0 -1.94667,1.386 -1.94667,3.08 0,1.694 0.876,3.08 1.94667,3.08 1.07067,0 1.94667,-1.386 1.94667,-3.08 z m -52.56,-21.62444 c 0,-2.45818 -5.49082,-5.09499 -7.09222,-3.40584 -1.70472,1.79813 1.18678,5.52361 4.2871,5.52361 1.54282,0 2.80512,-0.953 2.80512,-2.11777 z m -35.69376,-17.52691 c 1.62247,-4.45976 -2.49647,-8.65381 -5.44473,-5.544 -2.4918,2.62833 -0.94812,8.76202 2.20515,8.76202 1.13787,0 2.59569,-1.44811 3.23958,-3.21802 z m -37.14075,147.34912 c 1.0652,-7.02642 0.74562,-8.6111 -1.73663,-8.6111 -5.93342,0 -12.71331,3.92989 -13.9668,8.09572 -0.6991,2.32334 -2.52606,4.22428 -4.05991,4.22428 -3.65019,0 -3.52389,-1.89989 0.43289,-6.51166 3.6899,-4.3007 1.19099,-4.85213 -6.10292,-1.34672 -7.5207,3.61444 -10.880036,-0.87521 -4.14023,-5.53328 10.21109,-7.05716 4.06288,-12.36162 -7.166712,-6.18318 -3.763192,2.07048 -6.839938,2.42035 -10.030902,1.14067 -7.19373,-2.88492 -7.952626,-6.20583 -1.418159,-6.20583 8.559862,0 14.571723,-5.94253 12.941783,-12.79253 -2.42777,-10.20305 -5.458954,-10.80635 -18.845003,-3.75074 -11.358996,5.98718 -12.374132,6.18668 -14.664997,2.88207 -3.824877,-5.51745 -2.99437,-6.87214 4.213048,-6.87214 7.315568,0 14.27304,-5.41954 11.165481,-8.69738 -1.205139,-1.27117 -5.712971,-0.80385 -12.591416,1.30534 -13.577196,4.16327 -21.076207,4.32087 -19.654542,0.41307 1.490548,-4.09714 -2.344869,-5.91959 -6.96691,-3.3104 -3.10741,1.75416 -3.933564,1.59441 -3.933564,-0.76061 0,-1.63962 1.052049,-3.35103 2.337886,-3.80312 1.285838,-0.4521 2.48688,-3.5321 2.668981,-6.84445 0.500112,-9.0968 0.503486,-9.10245 5.437274,-9.10245 2.532278,0 6.813631,-1.83321 9.514117,-4.07381 l 4.909974,-4.07381 8.025939,9.72048 c 4.414266,5.34626 9.330915,11.33748 10.925883,13.31381 1.59497,1.97633 5.393359,3.59333 8.440864,3.59333 4.76397,0 17.819085,5.20833 17.819085,7.10891 0,0.35647 -1.43872,0.5198 -3.19715,0.36295 -1.75843,-0.15686 -3.49619,0.63881 -3.86169,1.76814 -1.18023,3.64676 2.03612,6.63501 8.81109,8.18623 5.78513,1.32458 6.45532,1.06577 5.32018,-2.05444 -1.22223,-3.35963 -1.00687,-3.3682 3.65607,-0.14552 2.72514,1.88342 5.80606,2.86947 6.84648,2.19122 1.04043,-0.67825 1.89168,-0.48021 1.89168,0.44009 0,0.9203 -2.628,2.90028 -5.84,4.39995 -3.212,1.49968 -5.82658,3.34224 -5.81019,4.09458 0.0741,3.39901 3.37461,6.0961 9.04834,7.39404 5.15139,1.17843 6.36626,0.71708 7.43118,-2.82204 0.70017,-2.32692 1.944,-4.23077 2.76408,-4.23077 3.058,0 3.79136,2.60769 1.71813,6.10938 -2.75331,4.65033 -0.63867,10.40923 4.32495,11.77837 6.18112,1.70497 5.0482,6.17972 -3.49979,13.82335 l -4.46331,3.99109 1.30544,-8.61109 z M 67.514121,206.89365 c 3.643105,-1.47459 4.04108,-7.18441 0.743212,-10.66298 -3.435802,-3.62407 -10.228277,-3.00301 -15.391871,1.40732 -3.88576,3.31891 -4.160299,4.3444 -1.923967,7.18667 2.629945,3.34252 10.881243,4.37265 16.572626,2.06899 z m 365.065399,23.13563 c -2.72825,-2.43977 -5.95333,-6.88172 -7.16684,-9.871 -3.29227,-8.10991 -13.11347,-15.02131 -34.68447,-24.40821 -16.99899,-7.39733 -24.27876,-12.27604 -24.22636,-16.23586 0.008,-0.63115 2.38054,-2.3063 5.27154,-3.72255 4.36376,-2.13775 5.52175,-2.07474 6.8194,0.37109 0.85969,1.62036 6.5905,4.00134 12.73513,5.29106 13.85807,2.90872 25.36347,6.01202 31.217,8.42002 6.29229,2.58849 8.18175,2.30201 8.18175,-1.2405 0,-4.10485 1.5075,-3.86627 10.70666,1.69447 6.26963,3.78989 7.6856,5.72904 7.26786,9.95334 -0.6512,6.58536 4.76531,12.19849 7.45617,7.72683 1.42289,-2.36455 3.30092,-1.3225 9.48947,5.26536 10.53077,11.21025 10.27706,14.50319 -1.16561,15.12797 -7.36005,0.40186 -10.57454,-0.63615 -17.03333,-5.50036 -15.86154,-11.94552 -24.13179,-10.92334 -14.44896,1.78585 7.05957,9.26606 6.85679,11.84929 -0.41941,5.34249 z m -289.2318,-35.12873 c 1.74109,-2.80284 3.16561,-6.46152 3.16561,-8.13041 0,-3.78593 7.27842,-2.6329 11.50202,1.82212 2.64747,2.79254 2.41293,3.12107 -2.22814,3.12107 -2.8529,0 -5.88761,1.22468 -6.74381,2.72151 -0.8562,1.49683 -3.20026,3.36057 -5.20901,4.14164 -3.4631,1.34657 -3.48831,1.15617 -0.48667,-3.67593 z m -7.4304,-20.12722 c 1.72914,-5.93358 2.12443,-6.33553 4.6265,-4.70443 3.80649,2.48145 2.37666,9.32443 -1.94834,9.32443 -3.27471,0 -3.77367,-0.86075 -2.67816,-4.62 z M 123.64,159.88667 c 0,-5.80511 0.2667,-5.95145 5.48131,-3.00776 5.32002,3.0032 4.77854,8.14109 -0.85798,8.14109 -3.63378,0 -4.62333,-1.09871 -4.62333,-5.13333 z"
       id="path6151"
       inkscape:connector-curvature="0" />
    <path
       style="fill:#34654f"
       d="m 294.98741,466.66506 c -4.52793,-2.36409 -10.9281,-7.53658 -14.2226,-11.49442 -5.51563,-6.62619 -5.72505,-7.40038 -2.64443,-9.77641 2.02775,-1.56399 2.85496,-3.92887 2.10006,-6.00387 -1.89998,-5.22259 -7.02271,-6.3865 -9.89198,-2.24753 -3.12022,4.50094 -5.57193,3.0364 -12.9837,-7.75592 -6.73929,-9.81308 -7.04631,-11.80691 -1.81809,-11.80691 4.0302,0 5.37202,-4.95369 1.94666,-7.18667 -1.89377,-1.23454 -2.82161,-9.24 -1.07092,-9.24 2.90209,0 18.59092,13.11879 18.59092,15.54548 0,1.61398 1.314,2.93452 2.92,2.93452 3.6536,0 3.83457,-5.39242 0.255,-7.59797 -1.46575,-0.90311 -3.31159,-3.83673 -4.10188,-6.51917 -1.96945,-6.6847 1.69938,-4.06751 7.79834,5.56308 2.62187,4.14007 6.28785,9.7504 8.14665,12.46739 3.34085,4.8833 3.32958,4.91174 -0.98145,2.4781 -3.60677,-2.03604 -4.56279,-1.90744 -5.52723,0.74358 -1.73351,4.76496 2.71318,14.4051 11.01239,23.87415 18.32604,20.90925 18.4588,25.41363 0.47226,16.02257 z m 51.05926,-16.65773 c -5.09369,-3.08035 -39.48415,-34.4037 -45.74667,-41.66676 -8.31869,-9.64775 -37.16819,-34.37355 -38.48529,-32.98429 -0.68783,0.72555 0.38472,4.52222 2.38348,8.43704 4.24938,8.32301 2.11891,12.5855 -2.51908,5.04001 -1.73544,-2.82333 -6.05081,-8.26158 -9.58975,-12.08499 -4.73373,-5.11426 -6.48604,-8.91328 -6.6297,-14.37334 -0.20583,-7.82258 -4.28849,-14.60833 -8.78913,-14.60833 -1.47366,0 -3.1505,-1.29496 -3.72629,-2.87767 -0.57578,-1.58271 -2.88236,-3.38393 -5.1257,-4.00272 -3.36825,-0.9291 -3.65881,-1.65887 -1.66793,-4.18919 1.35983,-1.72828 2.1359,-6.92081 1.78013,-11.91059 -0.48414,-6.79035 0.0479,-8.8465 2.28926,-8.8465 1.92715,0 2.70828,1.59975 2.29734,4.70488 -0.79139,5.97976 14.39698,22.31933 22.34886,24.04279 3.03992,0.65886 8.37413,1.99668 11.8538,2.97294 5.98427,1.67893 6.32667,1.47674 6.32667,-3.73591 0,-3.03103 -1.18654,-7.33355 -2.63674,-9.56115 -3.60178,-5.53262 -5.16731,-15.34554 -2.44665,-15.33583 1.18986,0.004 7.41939,2.77278 13.84339,6.15228 14.87049,7.82299 17.21342,7.8764 15.64761,0.35671 -1.27703,-6.1328 1.56123,-16.78338 4.47255,-16.78338 0.94775,0 5.13044,2.44386 9.29485,5.43078 4.1644,2.98692 8.88565,5.59328 10.49165,5.79188 1.606,0.19856 4.51189,1.11143 6.45752,2.02853 2.05039,0.96646 4.38324,0.77538 5.54929,-0.45457 1.38459,-1.46045 0.73691,-2.5488 -2.07752,-3.49101 -3.3436,-1.11938 -6.11386,-7.25227 -3.27589,-7.25227 2.03547,0 20.57543,10.61698 21.60329,12.37123 0.6341,1.08223 -1.04443,4.28543 -3.73007,7.11823 -5.00093,5.27495 -11.67054,6.76557 -13.82437,3.08967 -0.66412,-1.13348 -3.32818,-1.49945 -5.9201,-0.81329 -3.39978,0.90006 -6.39077,-0.24186 -10.73673,-4.09913 -7.44545,-6.60822 -9.61875,-6.726 -9.61875,-0.52132 0,4.80199 14.77084,19.96766 28.22667,28.98118 3.212,2.15161 10.42704,8.67102 16.03344,14.48762 5.6064,5.8166 13.0524,12.20709 16.54667,14.2011 3.49427,1.99401 7.99817,5.94165 10.00865,8.77254 l 3.65543,5.14707 -6.57543,-1.39237 c -3.61648,-0.76579 -11.56962,-5.02313 -17.67365,-9.46077 -6.10403,-4.43764 -11.88189,-8.06843 -12.83971,-8.06843 -0.95781,0 -9.01976,-5.544 -17.9154,-12.32 -18.83359,-14.34594 -22.47513,-15.35316 -20.64684,-5.71083 0.98541,5.19694 0.74622,6.07443 -1.11933,4.10666 -3.80435,-4.01281 -9.04059,-2.9052 -12.4859,2.64112 -2.23921,3.60473 -2.59966,5.90843 -1.20473,7.7 1.09472,1.406 2.29334,4.86638 2.6636,7.68972 0.57004,4.34678 1.74935,5.16579 7.69665,5.34519 8.33602,0.25147 11.46988,1.96979 11.46988,6.28901 0,1.95092 1.10366,2.73178 2.85765,2.02182 1.57172,-0.63617 3.37542,-0.27303 4.00822,0.80698 1.50003,2.5601 6.7608,2.5458 6.7608,-0.0185 0,-1.09012 -2.628,-6.35301 -5.84,-11.69534 -8.83205,-14.68979 -7.07867,-15.20698 5.84,-1.72264 6.424,6.7053 11.68,12.852 11.68,13.65933 0,0.80735 -2.409,1.76028 -5.35334,2.11762 -8.94178,1.08523 -8.07058,8.32048 2.58609,21.47777 5.06573,6.25441 10.53493,11.90775 12.15378,12.56301 3.28574,1.32994 13.82753,12.97708 13.91641,15.3756 0.0878,2.36811 -10.16927,1.7056 -14.54294,-0.93933 z M 239.95333,402.18 c 0,-1.694 0.876,-3.08 1.94667,-3.08 1.07067,0 1.94667,1.386 1.94667,3.08 0,1.694 -0.876,3.08 -1.94667,3.08 -1.07067,0 -1.94667,-1.386 -1.94667,-3.08 z m 7.20913,-6.22452 c -3.48513,-5.05081 -9.15579,-6.91846 -9.15579,-3.01548 0,4.68148 -3.68068,1.4267 -9.44236,-8.34978 -7.33467,-12.44554 -7.47545,-13.80271 -1.59331,-15.35994 8.0262,-2.12483 23.10095,9.85526 19.70155,15.65704 -0.59407,1.01385 1.10821,4.33272 3.78284,7.37522 2.67462,3.04251 4.42012,6.2876 3.87888,7.21131 -1.61263,2.75229 -3.47559,1.83835 -7.17181,-3.51837 z m 125.157,-18.42357 c -2.51063,-2.81888 -3.67186,-5.12524 -2.5805,-5.12524 2.48652,0 9.39131,7.88137 8.09901,9.24449 -0.52455,0.55329 -3.00789,-1.30037 -5.51851,-4.11925 z m -163.76549,-15.2739 c -1.64028,-4.96314 -2.9511,-6.13389 -5.79994,-5.18015 -2.12078,0.70998 -3.6807,0.25332 -3.6807,-1.07755 0,-1.44752 3.08846,-2.07407 8.27334,-1.67838 7.70546,0.58806 8.27333,1.04248 8.27333,6.6203 0,8.31575 -4.47706,9.14945 -7.06603,1.31578 z m 134.11675,-12.37783 c -4.27027,-4.09724 -5.35855,-6.11957 -3.31492,-6.16 1.67335,-0.0331 5.56024,2.71182 8.63753,6.09982 7.24221,7.97342 2.97506,8.02168 -5.32261,0.0602 z M 196.59966,329.13727 c 0.5396,-2.1765 0.003,-3.95727 -1.19262,-3.95727 -1.19554,0 -2.17371,-1.848 -2.17371,-4.10667 0,-2.28148 -1.29778,-4.10666 -2.92,-4.10666 -3.93262,0 -3.71395,-3.34593 0.32552,-4.98096 2.47365,-1.00125 2.70513,-1.88367 0.97333,-3.71035 -3.16769,-3.34127 -2.83718,-5.78184 0.59487,-4.39266 1.57688,0.63826 3.41563,4.24486 4.08611,8.01466 0.67048,3.76981 2.88431,8.4438 4.91961,10.38666 4.80981,4.59134 4.6677,5.87865 -0.94682,8.57698 -4.11494,1.97763 -4.53498,1.78016 -3.66629,-1.72373 z m 19.14421,-16.06586 c -0.66344,-1.13229 0.64852,-3.10573 2.91545,-4.38543 3.51403,-1.9837 4.02432,-1.79693 3.46119,1.26683 -0.77217,4.20104 -4.63538,6.09041 -6.37664,3.1186 z m -64.05631,-9.81144 c -2.19459,-2.31485 -1.40921,-10.20435 1.62711,-16.34525 1.59941,-3.23476 2.91341,-4.71384 2.92,-3.28686 0.007,1.42699 -1.083,4.45818 -2.42134,6.73598 -3.32429,5.65786 1.74044,9.42074 6.52835,4.85031 2.85551,-2.7258 3.34557,-2.69381 4.43078,0.28917 1.61845,4.44871 -0.17033,7.19135 -3.74626,5.74395 -1.58535,-0.64169 -4.04689,-0.14743 -5.4701,1.09853 -1.42321,1.24588 -3.16406,1.65725 -3.86854,0.91417 z m 242.92365,-6.96542 c -8.08425,-2.4785 -28.81686,-27.17901 -27.2325,-32.44439 0.9416,-3.12926 0.32344,-3.65991 -3.39096,-2.91095 -3.55958,0.71774 -5.67611,-0.80959 -9.78177,-7.05868 -7.80557,-11.88061 -6.57153,-20.32778 1.58146,-10.8252 1.94195,2.26343 6.81415,5.04788 10.82706,6.18764 5.51542,1.56653 7.79091,3.56908 9.32294,8.20469 1.11468,3.37278 2.96495,6.13234 4.11171,6.13234 1.21402,0 1.60736,2.0074 0.94162,4.80527 -0.87393,3.67288 0.0557,5.63402 3.94498,8.322 2.79861,1.9342 6.58867,3.01446 8.42235,2.40059 2.45452,-0.82172 3.89571,0.6391 5.46356,5.53801 1.17129,3.65977 2.7908,8.27113 3.59892,10.24746 1.61569,3.95136 0.9173,4.07665 -7.80937,1.40122 z M 293.58585,283.6 c -0.41357,-1.41167 -1.17577,-6.26267 -1.69376,-10.78 -0.51798,-4.51733 -1.55984,-9.83033 -2.31523,-11.80667 -0.8057,-2.10801 -0.49797,-3.59333 0.74445,-3.59333 1.16481,0 2.71667,2.541 3.44856,5.64667 0.73189,3.10566 3.07624,8.14902 5.20967,11.20748 3.20879,4.60008 3.44859,6.10776 1.38801,8.72667 -3.01336,3.82981 -5.76402,4.07285 -6.7817,0.59918 z m 142.98082,-17.11737 c -4.818,-2.89368 -10.512,-6.93246 -12.65334,-8.97508 -2.14133,-2.04261 -6.55645,-5.13136 -9.81139,-6.86388 -3.25493,-1.73252 -9.32282,-6.85043 -13.48421,-11.37312 -8.01758,-8.71368 -18.73583,-12.64826 -23.38013,-8.58263 -2.00368,1.75403 -5.09118,-0.70163 -13.81057,-10.98435 -7.26605,-8.5688 -13.20449,-13.65996 -16.82389,-14.42351 -4.83902,-1.02084 -5.31999,-1.72002 -3.56394,-5.18101 3.71802,-7.32783 8.67634,-6.8118 28.01902,2.91605 10.25387,5.15688 19.1508,10.24214 19.77097,11.30059 0.62019,1.05845 4.6465,3.03651 8.94736,4.39569 4.30087,1.35918 8.62146,4.05129 9.60132,5.98247 0.97983,1.93118 4.91311,5.46015 8.74059,7.84216 3.9841,2.4795 8.1524,7.34351 9.75056,11.37803 1.56703,3.95589 4.72728,7.68232 7.20457,8.49525 6.46909,2.1229 19.03747,16.88146 15.57108,18.28452 -4.06038,1.64349 -4.59739,1.48286 -14.078,-4.21118 z m -318.04232,-5.69371 c 1.22519,-5.68851 1.07468,-5.82709 -4.83992,-4.45686 -6.73757,1.56093 -7.23414,0.88696 -3.71984,-5.04867 3.9579,-6.68488 -0.41777,-9.15865 -9.28641,-5.25005 -4.990861,2.19957 -8.056676,2.58985 -9.379954,1.19408 -1.323278,-1.3958 0.0109,-2.80036 4.081917,-4.29728 7.794787,-2.86617 8.971347,-6.48695 4.978077,-15.31975 -3.448809,-7.62853 -7.089697,-8.83327 -13.271742,-4.39151 -7.699979,5.53237 -16.055602,7.458 -18.558482,4.27696 -1.887009,-2.39829 -1.457985,-2.92917 2.367166,-2.92917 5.882761,0 13.324838,-5.37225 13.324838,-9.61887 0,-2.57351 -1.476488,-2.98187 -7.3,-2.01899 -4.015,0.66386 -11.023,1.82405 -15.573333,2.57821 -6.815661,1.12959 -8.273334,0.79474 -8.273334,-1.90053 0,-2.37557 2.666005,-3.64475 9.733334,-4.63363 10.68177,-1.49463 11.142077,-2.26998 6.712118,-11.30598 -2.415494,-4.927 -3.879066,-5.89287 -7.3,-4.81756 C 54.616103,195.23908 49.18,199.92163 49.18,204.08067 c 0,2.23263 -0.749918,4.05933 -1.666484,4.05933 -0.916566,0 -1.573566,-3.465 -1.46,-7.7 0.174686,-6.51425 0.933936,-7.80836 4.93039,-8.40368 2.598148,-0.38703 6.540148,-1.94564 8.76,-3.46358 3.611878,-2.46982 4.63286,-2.12609 9.713872,3.27035 3.122777,3.31663 6.407777,6.03024 7.3,6.03024 0.892222,0 1.622222,1.32 1.622222,2.93334 0,4.98466 5.81658,9.38666 12.403048,9.38666 7.322687,0 10.956952,3.1176 10.956952,9.39925 0,6.40581 4.73487,9.66614 12.62652,8.69435 6.87104,-0.84611 8.86084,1.54032 4.82966,5.79238 -2.58728,2.72906 -0.34827,8.96736 3.21851,8.96736 3.2049,0 10.84965,4.25635 12.79872,7.12593 0.74437,1.09592 -2.06324,3.64472 -6.23914,5.66401 -4.1759,2.01927 -8.51997,5.2806 -9.65349,7.24741 -1.64137,2.84799 -1.80351,2.38076 -0.79643,-2.2951 z m 20.20232,-1.31559 c 0,-2.64652 0.98581,-4.10227 2.43333,-3.59333 1.33833,0.47056 2.43333,2.08756 2.43333,3.59333 0,1.50577 -1.095,3.12277 -2.43333,3.59334 -1.44752,0.50894 -2.43333,-0.94682 -2.43333,-3.59334 z m 166.09474,-4.62 c 3.52681,-22.17482 3.60647,-24.12666 0.98462,-24.12666 -1.44256,0 -3.71698,-1.848 -5.05427,-4.10667 -2.70067,-4.56143 -14.78814,-5.82562 -17.15054,-1.79372 -1.538,2.6249 -6.66122,-8.77881 -6.66122,-14.82714 0,-6.986 -5.9788,-19.72626 -10.32148,-21.99412 -2.35319,-1.2289 -10.34344,-5.14819 -17.75613,-8.70955 -7.41267,-3.56135 -16.61067,-8.6101 -20.44,-11.21944 -3.82931,-2.60934 -11.78039,-6.82945 -17.66906,-9.37802 -5.88866,-2.54857 -12.08964,-5.86472 -13.77995,-7.36922 -1.6903,-1.5045 -4.55654,-2.73546 -6.36941,-2.73546 -4.85616,0 -27.11793,-11.0808 -30.19787,-15.031 -1.45965,-1.87208 -3.46902,-2.87241 -4.46528,-2.22295 -0.99625,0.64946 -3.0978,0.0547 -4.6701,-1.32171 -2.17061,-1.90016 -2.327,-3.17834 -0.6497,-5.3101 1.70558,-2.16771 1.5262,-2.80757 -0.78711,-2.80757 -1.64787,0 -3.35495,1.13544 -3.79351,2.52321 -0.58427,1.84887 -2.18841,1.56183 -6.00222,-1.074 -5.95717,-4.11717 -6.78669,-7.28534 -1.79818,-6.86773 1.95893,0.16398 3.16461,-0.91706 2.83709,-2.54383 -0.38002,-1.88752 0.682,-2.48379 3.19118,-1.79168 6.26578,1.72833 8.80974,-1.29429 6.71221,-7.97516 -1.32867,-4.231945 -3.31766,-6.06752 -7.08361,-6.537222 -8.28592,-1.033451 -3.90605,-4.480255 5.69308,-4.480255 7.32736,0 9.02661,0.78655 10.85784,5.025875 1.81523,4.202322 3.12459,4.824702 7.99054,3.798182 4.24763,-0.89607 6.30517,-0.31241 7.61735,2.1608 2.25495,4.25016 9.15295,4.36253 14.73293,0.24 4.61273,-3.40792 4.93472,-3.24111 16.70414,8.65328 2.4371,2.46298 6.86264,5.12186 9.83454,5.90863 4.58978,1.21509 5.22001,2.20139 4.1853,6.5499 -0.66998,2.81568 -2.53061,6.5038 -4.13473,8.19582 -1.60412,1.69202 -2.39059,3.63122 -1.7477,4.30934 0.64289,0.67812 3.37609,-1.74189 6.07379,-5.37778 5.50987,-7.42609 12.03048,-9.43063 8.58454,-2.63903 -1.10834,2.18442 -2.01516,4.45283 -2.01516,5.04091 0,0.58807 5.694,0.67221 12.65334,0.18697 6.95933,-0.48524 12.65333,-0.24736 12.65333,0.52863 0,0.77598 -2.409,3.45342 -5.35333,5.94987 -4.94183,4.19009 -5.07113,4.65518 -1.68208,6.05058 2.02524,0.83385 5.08004,0.4699 6.81333,-0.81176 8.11227,-5.99847 16.5207,-9.38177 17.28734,-6.95588 0.42856,1.35611 3.33419,2.46566 6.45696,2.46566 6.01932,0 7.65077,2.86871 2.75778,4.84921 -4.20875,1.70354 -3.59409,5.41746 0.89658,5.41746 2.09913,0 4.74899,1.155 5.8886,2.56667 14.62352,18.11449 17.24303,20.33673 21.28367,18.05576 2.70511,-1.52706 4.05115,-1.57871 4.05115,-0.15546 0,1.1723 6.47683,8.62093 14.39295,16.5525 11.60698,11.62963 14.54845,15.82589 15.19625,21.67877 0.44179,3.99175 0.0457,7.75159 -0.88027,8.35522 -0.92595,0.60362 -1.12464,3.78153 -0.44156,7.06202 1.32942,6.38443 -0.99132,7.86162 -4.78202,3.04383 -1.26392,-1.60637 -4.78847,-3.83643 -7.83236,-4.95567 -6.63877,-2.4411 -13.70632,1.69629 -13.70632,8.02379 0,2.21169 -1.45763,9.55128 -3.23916,16.31024 -3.40933,12.93461 -7.68046,17.02339 -5.8661,5.61566 z M 288.62,213.90921 c 0,-2.69889 -4.42435,-1.00888 -5.39433,2.06052 -0.47417,1.50047 0.41579,1.95937 2.31167,1.19198 1.69547,-0.68626 3.08266,-2.14989 3.08266,-3.2525 z M 273.01686,157.32 c -0.0232,-4.40016 -0.44639,-4.96676 -1.91686,-2.56667 -2.46138,4.01742 -2.46138,8.21334 0,8.21334 1.07067,0 1.93325,-2.541 1.91686,-5.64667 z m -9.59179,-2.05333 c 1.47583,-3.10567 3.00344,-6.33967 3.3947,-7.18667 1.4956,-3.23785 -3.51545,-1.33484 -8.57649,3.25702 -3.04749,2.76498 -4.69404,5.80929 -3.88701,7.18667 2.37459,4.05267 6.25793,2.65798 9.0688,-3.25702 z m -54.6184,-21.11111 c 0,-2.45818 -5.49082,-5.09499 -7.09222,-3.40584 -1.70472,1.79813 1.18678,5.52361 4.2871,5.52361 1.54282,0 2.80512,-0.953 2.80512,-2.11777 z m -35.04,-18.48 c 0,-5.46448 -5.33846,-7.50459 -9.14129,-3.49338 -3.8201,4.02942 -1.73827,7.66449 4.38951,7.66449 3.47847,0 4.75178,-1.11771 4.75178,-4.17111 z m 282.30729,111.48106 c -1.58367,-0.65588 -6.31409,-3.81693 -10.51208,-7.02456 -4.84019,-3.69833 -10.06609,-5.83206 -14.28384,-5.83206 -4.14268,0 -9.1236,-1.98916 -13.20679,-5.27423 -3.60562,-2.90082 -15.59218,-9.46611 -26.63678,-14.58953 -11.04463,-5.12341 -20.70166,-10.36529 -21.46008,-11.6486 -2.76493,-4.67854 2.10733,-5.69811 11.36593,-2.37844 5.21381,1.86941 13.42168,4.29878 18.23968,5.39858 17.55671,4.00768 22.52383,5.47272 29.62414,8.7376 3.98062,1.83038 9.01762,3.32795 11.19333,3.32795 2.17573,0 3.95586,0.91422 3.95586,2.0316 0,1.11738 4.40733,7.16498 9.79405,13.43912 10.66425,12.42108 11.40591,17.73846 1.92658,13.81257 z m 6.27592,-7.80766 c -4.24716,-3.13783 -6.03819,-9.15563 -2.72493,-9.15563 2.62115,0 8.55735,7.75603 7.79136,10.17991 -0.44421,1.40564 -2.27974,1.03455 -5.06643,-1.02428 z M 146.06709,189.88282 c 0.6759,-4.85757 1.65552,-5.90138 4.9167,-5.23892 2.23994,0.45501 5.40414,2.23177 7.03156,3.94836 2.64747,2.79254 2.34128,3.12107 -2.90887,3.12107 -3.2273,0 -6.77134,0.95303 -7.87564,2.11785 -1.37933,1.4549 -1.74361,0.21897 -1.16375,-3.94836 z M 136.78,173.23333 c 0,-2.64652 0.98581,-4.10228 2.43333,-3.59333 1.33834,0.47056 2.43334,2.08756 2.43334,3.59333 0,1.50578 -1.095,3.12278 -2.43334,3.59334 -1.44752,0.50894 -2.43333,-0.94682 -2.43333,-3.59334 z m -11.68,-12.32 c 0,-4.6543 2.0187,-5.26268 5.45067,-1.64266 3.43196,3.62001 2.85519,5.74933 -1.55734,5.74933 -2.59555,0 -3.89333,-1.36889 -3.89333,-4.10667 z"
       id="path6149"
       inkscape:connector-curvature="0" />
    <path
       style="fill:#284938"
       d="m 297.22871,468.05416 c -6.454,-2.96428 -20.28871,-14.96591 -20.28871,-17.60048 0,-2.4596 12.22674,-3.87047 15.91647,-1.83662 2.8645,1.57897 15.2302,18.97506 15.2302,21.42587 0,1.67897 -4.77763,0.80388 -10.85796,-1.98877 z m 47.79111,-19.08485 C 335.61074,442.09335 306.6278,415.62816 300.67481,408.47657 293.53629,399.90074 264.07125,374.46 261.27737,374.46 c -1.06508,0 -0.14892,3.696 2.03596,8.21333 4.48041,9.26353 1.92043,11.23792 -3.32796,2.56667 -1.87974,-3.10567 -4.84519,-6.76487 -6.58991,-8.13155 -3.94658,-3.09148 -8.30809,-13.84893 -7.06712,-17.43077 0.50895,-1.46905 -0.81712,-5.72262 -2.94687,-9.45235 -2.12973,-3.72974 -3.5011,-7.17281 -3.04749,-7.65128 0.45362,-0.47846 5.38092,0.95614 10.9496,3.18801 5.56867,2.23187 12.64973,4.05794 15.7357,4.05794 3.19164,0 6.09396,1.32799 6.73136,3.08 0.61628,1.694 2.02399,3.08 3.12827,3.08 1.10427,0 2.00776,-1.386 2.00776,-3.08 0,-1.694 -0.876,-3.08 -1.94667,-3.08 -1.07067,0 -1.94667,-2.72853 -1.94667,-6.06339 0,-3.33486 -1.02743,-8.44191 -2.28318,-11.34902 -3.88491,-8.99362 0.29622,-9.54802 14.80264,-1.9628 7.42105,3.88037 15.01883,7.05521 16.88399,7.05521 1.86514,0 5.86739,2.12678 8.89385,4.72618 3.02648,2.59939 11.1967,8.96138 18.15604,14.13773 6.95933,5.17637 14.98423,12.05859 17.8331,15.29384 2.84889,3.23524 8.3929,8.19225 12.32002,11.01558 11.56665,8.31559 17.61969,13.9399 16.39588,15.23459 -2.05702,2.17614 -14.2458,-3.31759 -23.0218,-10.37644 -4.72604,-3.80132 -9.71665,-6.91148 -11.09024,-6.91148 -1.37359,0 -8.2572,-4.59842 -15.29689,-10.2187 -7.03969,-5.6203 -14.60054,-11.23545 -16.80187,-12.47813 -4.83177,-2.72756 -9.5382,-1.18524 -9.5382,3.12573 0,1.72944 -1.59931,3.14443 -3.55401,3.14443 -3.78129,0 -12.01933,8.02211 -12.01933,11.70429 0,8.59636 13.29103,21.9912 24.08667,24.27479 11.28569,2.38727 12.9,3.29819 12.9,7.2793 0,4.55012 -0.75756,4.78404 -5.96797,1.84272 -2.07095,-1.16906 -3.76536,-1.39134 -3.76536,-0.49393 0,1.93198 7.87549,7.51838 10.79391,7.65655 2.6288,0.12443 33.45947,29.58535 34.79093,33.24524 1.48676,4.08674 -8.59411,3.57686 -14.49169,-0.73298 z M 260.94519,434.52 c -3.0877,-3.73376 -7.36519,-11.70486 -7.36519,-13.72501 0,-0.63892 1.314,-1.16166 2.92,-1.16166 1.606,0 2.92,0.924 2.92,2.05334 0,1.12933 1.33569,2.05333 2.96818,2.05333 2.66876,0 6.76515,7.54087 6.76515,12.45367 0,3.18645 -5.03861,2.15906 -8.20814,-1.67367 z m 7.91906,-8.21333 c -1.69136,-3.10567 -3.62806,-8.10001 -4.30378,-11.09856 -1.07515,-4.77086 -0.72286,-5.31236 2.82029,-4.33504 2.22689,0.61426 4.99133,3.2986 6.14319,5.9652 2.38196,5.51427 6.86985,6.39244 8.58433,1.67975 1.02019,-2.80425 1.57283,-2.76766 4.80558,0.31825 4.72392,4.50935 4.68109,7.57805 -0.0835,5.98296 -2.67201,-0.89453 -4.09567,-0.0567 -4.99785,2.94163 -1.86508,6.1984 -9.25171,5.3701 -12.96823,-1.45419 z m 6.80084,-18.05523 c -1.81095,-4.97781 0.71594,-5.87646 3.13234,-1.11397 1.50668,2.96951 1.53631,4.28253 0.0966,4.28253 -1.14194,0 -2.59499,-1.42586 -3.22898,-3.16856 z m 47.50824,-17.22336 c -7.53307,-11.2352 -6.65569,-14.58861 1.61979,-6.19088 9.38069,9.51929 11.79265,14.27678 7.2087,14.21896 -1.91134,-0.024 -5.88415,-3.63674 -8.82849,-8.02808 z m 50.42838,-12.10976 c -3.54873,-4.13617 -4.33075,-7.47699 -1.28552,-5.4918 2.03067,1.32378 6.52679,9.24681 5.24734,9.24681 -0.40707,0 -2.18988,-1.68975 -3.96182,-3.75501 z m -43.12838,-47.7176 c -3.212,-2.17017 -6.9524,-3.95063 -8.31201,-3.95659 -3.53686,-0.0164 -17.96799,-9.93973 -17.96799,-12.35655 0,-3.40923 4.02855,-2.27262 9.65975,2.72535 3.82892,3.39835 8.20873,4.89028 15.36769,5.23485 5.98193,0.2879 10.01256,-0.38555 10.01256,-1.67295 0,-3.10747 6.91799,-2.65299 9.49627,0.62386 1.68044,2.13576 1.08145,4.0362 -2.5887,8.21334 -5.58183,6.35293 -7.77755,6.51952 -15.66757,1.18869 z m 63.9037,-34.97019 c -3.66651,-1.11946 -8.76168,-5.42479 -12.53852,-10.59481 -3.49921,-4.78998 -8.60386,-10.71908 -11.34368,-13.17579 -3.58465,-3.21425 -4.39275,-5.10194 -2.88188,-6.732 1.51941,-1.63928 4.89692,0.68532 12.22228,8.41208 7.73604,8.1599 10.66032,10.11022 12.40305,8.27199 3.25732,-3.4358 5.38528,-2.97253 5.45696,1.188 0.0341,1.97633 1.34806,5.38694 2.92,7.57912 5.26308,7.3397 4.16604,8.22806 -6.23821,5.05141 z M 292.4919,278.46667 c -0.0117,-3.10567 -0.46554,-9.34267 -1.00839,-13.86 l -0.98696,-8.21334 2.78926,7.50535 c 1.53409,4.12794 4.18095,9.74569 5.88189,12.48391 3.37042,5.42577 2.45047,7.73074 -3.08548,7.73074 -2.59036,0 -3.57477,-1.54821 -3.59032,-5.64666 z m 144.66309,-12.09063 c -5.14158,-2.86335 -11.10032,-6.85835 -13.24166,-8.87781 -2.14133,-2.01945 -6.02906,-4.83669 -8.6394,-6.26053 -2.61032,-1.42384 -9.03267,-6.81813 -14.27187,-11.98732 -8.18437,-8.07501 -10.80558,-9.46686 -18.61393,-9.88388 -4.99848,-0.26695 -9.69393,-0.53213 -10.43435,-0.58927 C 369.9828,228.62512 352.86,204.73392 352.86,202.13596 c 0,-1.21511 1.87908,-2.20929 4.17574,-2.20929 4.80192,0 32.81093,13.7392 32.81093,16.09467 0,0.86185 3.723,3.64621 8.27333,6.18746 20.27358,11.3223 24.02529,14.20509 27.23583,20.92778 2.02321,4.23648 6.05733,8.33812 10.00922,10.17675 8.62278,4.01179 17.98147,15.49895 13.95495,17.12873 -1.54918,0.62704 -7.02342,-1.20266 -12.16501,-4.06602 z m -81.86166,-10.93441 c -2.409,-3.2218 -4.38,-7.35633 -4.38,-9.18786 0,-2.79395 1.0185,-2.5764 6.32667,1.35142 7.83152,5.795 9.15691,7.67234 7.88495,11.16861 -1.55126,4.26404 -5.0345,3.08347 -9.83162,-3.33217 z m -48.67478,-5.2083 c 0.0245,-5.64666 0.78447,-11.78664 1.68877,-13.64438 1.08439,-2.22771 0.66395,-4.23584 -1.23489,-5.89809 -3.35037,-2.93292 -3.78992,-7.51506 -0.82102,-8.55892 3.24036,-1.13931 0.14658,-7.04876 -4.98016,-9.51266 -3.15668,-1.51709 -5.08008,-4.62948 -5.97683,-9.6715 -1.55669,-8.75254 0.90975,-12.55625 6.25659,-9.6488 1.98861,1.08135 4.64311,1.5757 5.8989,1.09855 1.25578,-0.47714 2.56978,1.23746 2.92,3.81025 0.49046,3.60303 2.69972,5.2905 9.61568,7.34459 4.9384,1.46674 10.58297,4.53639 12.5435,6.82144 3.45853,4.03103 9.14484,18.5163 7.81811,19.91574 -0.36158,0.38138 -3.94835,-1.66225 -7.97063,-4.5414 -4.02226,-2.87915 -8.36919,-5.23482 -9.65985,-5.23482 -3.41667,0 -8.76932,6.87474 -8.91883,11.45502 -0.0709,2.16973 -1.72517,9.02698 -3.67635,15.23832 l -3.54757,11.29333 0.0446,-10.26667 z M 447.54995,221.23 c -6.20486,-4.09383 -13.60648,-7.44333 -16.448,-7.44333 -2.84155,0 -7.83785,-2.14923 -11.1029,-4.77607 -3.26504,-2.62683 -12.48004,-7.6962 -20.47776,-11.26525 -16.62738,-7.42013 -20.30444,-10.01442 -17.85541,-12.59763 1.53158,-1.61551 12.61543,0.40056 35.43412,6.44521 15.71908,4.16396 24.67503,9.67031 35.5525,21.85861 9.72592,10.89799 11.82096,15.22179 7.37549,15.22179 -0.65807,0 -6.27317,-3.3495 -12.47804,-7.44333 z m 13.33925,-4.88926 c -1.94383,-2.26559 -2.96096,-4.72392 -2.26032,-5.46296 1.41957,-1.49735 9.08445,5.12356 9.08445,7.84713 0,2.99759 -3.15134,1.8966 -6.82413,-2.38417 z M 276.94,199.05795 c 0,-1.60713 -2.628,-5.69405 -5.84,-9.08205 -3.212,-3.388 -5.84,-7.20223 -5.84,-8.47606 0,-3.58872 -12.74675,-8.34947 -18.88712,-7.0541 -4.23346,0.89309 -7.24149,-0.29681 -13.04207,-5.15913 -4.14672,-3.47597 -8.43341,-6.31994 -9.52598,-6.31994 -5.12624,0 -24.56287,-11.67224 -25.49477,-15.31033 -0.56594,-2.20935 -0.70053,-4.36344 -0.2991,-4.78687 2.06535,-2.17851 25.49891,-0.37532 27.29578,2.10039 1.09629,1.51046 3.52626,2.4139 5.39993,2.00765 1.87366,-0.40624 3.40666,0.22939 3.40666,1.41254 0,2.79101 10.00112,8.11931 13.06821,6.96235 1.30473,-0.49217 2.93441,1.51681 3.64171,4.48932 0.90777,3.81505 2.92243,5.72657 6.92563,6.57108 3.10502,0.65503 6.11694,1.99561 6.69319,2.97908 0.57623,0.98347 2.63851,1.78812 4.58282,1.78812 2.40908,0 3.92633,2.06329 4.76334,6.47763 0.67551,3.5627 2.24737,7.77292 3.49298,9.35603 2.91689,3.70721 4.11234,14.96634 1.58907,14.96634 -1.06166,0 -1.93028,-1.31492 -1.93028,-2.92205 z m 14.97736,-8.65768 c -0.68466,-0.72219 -0.77014,-2.12326 -0.18999,-3.1135 1.24434,-2.12359 4.6793,-0.29248 4.6793,2.49441 0,2.20752 -2.63844,2.57137 -4.48931,0.61909 z M 174.25333,141.09971 c -9.0391,-4.50894 -10.22,-5.82175 -10.22,-11.36167 0,-5.18296 0.65001,-6.08438 3.7674,-5.22449 2.07207,0.57155 5.67225,-0.36814 8.0004,-2.08819 3.98042,-2.94076 4.15658,-2.87342 2.95238,1.12858 -1.54695,5.14108 3.91811,8.99372 10.27177,7.24116 3.33417,-0.91968 4.20805,-0.25817 4.20805,3.18542 0,3.51021 -6.37493,13.05593 -8.27333,12.38834 -0.26767,-0.0941 -5.08567,-2.46525 -10.70667,-5.26915 z M 152.67778,115.74 c 0.97985,-3.10064 4.11027,-3.42018 5.02889,-0.51333 0.44611,1.41166 -0.64889,2.56666 -2.43334,2.56666 -1.78444,0 -2.95244,-0.924 -2.59555,-2.05333 z"
       id="path6147"
       inkscape:connector-curvature="0" />
    <path
       style="fill:#202b24"
       d="m 297.86667,466.69553 c -1.87367,-1.1511 -3.40667,-3.95727 -3.40667,-6.23593 0,-3.14793 -0.89576,-3.84313 -3.7295,-2.89444 -2.05124,0.68671 -4.23102,0.39263 -4.84399,-0.6535 -0.61295,-1.04613 1.28431,-2.42115 4.21617,-3.05556 3.71827,-0.80458 5.91948,-0.13573 7.27732,2.21117 1.07067,1.85057 3.87786,5.49798 6.23819,8.10537 3.66717,4.051 3.80877,4.73162 0.97333,4.67825 -1.825,-0.0343 -4.85119,-1.00424 -6.72485,-2.15536 z m 53.47205,-15.95354 c -6.10352,-1.83508 -33.45896,-25.00358 -50.06478,-42.40199 -16.74468,-17.54391 -37.01809,-35.93333 -39.61465,-35.93333 -1.05317,0 -2.32329,1.155 -2.82251,2.56666 -1.65358,4.67587 -9.95529,-6.07195 -10.29543,-13.329 -0.17248,-3.68005 -0.9551,-8.308 -1.7391,-10.28433 -3.29718,-8.31161 11.4151,-1.02954 19.48228,9.64305 4.32894,5.72701 6.90617,7.29695 11.97887,7.29695 6.26218,0 8.49617,2.53905 4.5166,5.13333 -1.07067,0.69797 -1.94667,2.15822 -1.94667,3.24499 0,1.08679 10.22458,12.58225 22.72126,25.5455 15.33228,15.90467 24.13884,23.56951 27.0803,23.56951 4.13297,0 14.43844,10.37145 14.43844,14.53089 0,1.04268 1.61624,1.89578 3.59162,1.89578 3.38757,0 10.03505,5.88787 10.03505,8.88835 0,1.56821 -1.11075,1.51293 -7.36128,-0.36636 z m 18.06795,-55.17984 c -2.14134,-0.55448 -7.83534,-3.92791 -12.65334,-7.49648 -4.818,-3.56857 -10.95,-7.50386 -13.62666,-8.74506 -2.67667,-1.24122 -9.14794,-5.70535 -14.38058,-9.92029 -18.35494,-14.78507 -26.49942,-18.63143 -26.49942,-12.51484 0,6.21706 -3.51993,4.76154 -9.77293,-4.04123 -3.57052,-5.02646 -8.01505,-9.64894 -9.87677,-10.27219 -3.21133,-1.07508 -8.59523,-12.9239 -6.75458,-14.86541 0.47664,-0.50276 5.62421,1.95707 11.43908,5.46628 5.81485,3.50923 11.90295,6.3804 13.52912,6.3804 4.1229,0 37.54848,23.44071 46.3924,32.53408 4.01502,4.12825 10.48128,9.81592 14.36949,12.63926 16.00655,11.62277 17.18864,13.25773 7.83419,10.83548 z m -35.1546,-65.14668 c -3.6456,-2.87297 -3.62335,-2.93658 0.63159,-1.8055 2.42569,0.64483 4.88639,1.98488 5.46823,2.97789 1.64653,2.81009 -1.91488,2.12559 -6.09982,-1.17239 z m 56.88249,-37.30505 c -3.03898,-1.73716 -5.22898,-3.43863 -4.86666,-3.78107 1.78807,-1.68991 13.18362,1.73581 14.09347,4.23677 1.34694,3.70237 -2.26475,3.52399 -9.22681,-0.4557 z M 294.46,280.00667 c 0,-2.25867 0.78229,-4.10667 1.73839,-4.10667 2.18813,0 4.22921,5.34097 2.6697,6.98591 -2.34332,2.47174 -4.40809,1.12309 -4.40809,-2.87924 z m 145.46881,-14.37334 c -2.72225,-2.25866 -5.83918,-4.10666 -6.92649,-4.10666 -1.08731,0 -4.45316,-2.18358 -7.47962,-4.85238 -3.02648,-2.6688 -7.55636,-5.53073 -10.06639,-6.35985 -2.51003,-0.82914 -8.94976,-6.03756 -14.31053,-11.57431 -6.1764,-6.37916 -11.63561,-10.19546 -14.90298,-10.41802 -2.83586,-0.19318 -6.47013,-0.55695 -8.07613,-0.8084 -1.606,-0.25145 -4.00951,-0.55539 -5.34113,-0.67544 C 369.80519,226.56598 358.7,210.64147 358.7,206.58266 c 0,-4.75126 9.04108,-1.46848 23.36,8.4819 6.95933,4.83613 17.77225,11.95552 24.0287,15.82087 6.25645,3.86534 12.52925,9.3379 13.93953,12.16124 3.7737,7.5547 12.94933,15.97838 18.26202,16.76542 2.55396,0.37835 5.94582,2.76691 7.53743,5.30791 3.58555,5.72424 0.68573,5.9766 -5.89887,0.51333 z m -81.87769,-7.52889 c -2.5009,-2.63792 -1.3047,-6.71834 1.62221,-5.53365 1.606,0.65006 2.92,2.46905 2.92,4.04223 0,3.01889 -2.35959,3.79366 -4.54221,1.49142 z M 309.2321,231.56532 c 0.56316,-11.35178 -0.0195,-14.76714 -3.36454,-19.72221 -2.22509,-3.29609 -3.73106,-6.3042 -3.34659,-6.6847 0.38447,-0.38051 6.10508,1.06988 12.71249,3.22308 8.23876,2.68482 13.61587,5.92362 17.11333,10.30788 2.80495,3.51613 4.69146,6.82376 4.1923,7.35029 -0.49919,0.52653 -4.07803,-0.25193 -7.95299,-1.72991 -9.10914,-3.47439 -12.95631,-0.99121 -15.58379,10.05863 -3.13034,13.16455 -4.5114,12.13776 -3.77021,-2.80306 z m 137.15811,-12.18454 c -5.83907,-3.92376 -12.95881,-7.13411 -15.82165,-7.13411 -2.86285,0 -6.2109,-1.27822 -7.4401,-2.84048 -1.22921,-1.56226 -10.49865,-6.79362 -20.59877,-11.62525 -10.10011,-4.83162 -17.97397,-9.45016 -17.49746,-10.26342 1.20078,-2.04936 18.56986,2.04734 23.25426,5.48479 2.11188,1.54973 5.80427,2.81769 8.20529,2.81769 13.07471,0 35.01158,14.31024 41.70648,27.20667 2.69092,5.18355 0.17539,4.40688 -11.80805,-3.64589 z M 225.5413,157.12746 c -0.67365,-1.1497 -0.27624,-2.70874 0.88313,-3.46452 2.99297,-1.95112 4.92403,0.72144 2.42551,3.35686 -1.39806,1.47466 -2.48692,1.51009 -3.30864,0.10766 z"
       id="path6145"
       inkscape:connector-curvature="0" />
  </g>
</svg>
