<?xml version="1.0" encoding="UTF-8" standalone="no"?>
<svg
   xmlns:dc="http://purl.org/dc/elements/1.1/"
   xmlns:cc="http://creativecommons.org/ns#"
   xmlns:rdf="http://www.w3.org/1999/02/22-rdf-syntax-ns#"
   xmlns:svg="http://www.w3.org/2000/svg"
   xmlns="http://www.w3.org/2000/svg"
   xmlns:sodipodi="http://sodipodi.sourceforge.net/DTD/sodipodi-0.dtd"
   xmlns:inkscape="http://www.inkscape.org/namespaces/inkscape"
   sodipodi:docname="ninja_stance.svg"
   height="100%"
   width="100%"
   inkscape:version="0.48.4 r9939"
   version="1.1"
   id="svg8438"
   viewBox="0 0 512 512"
   inkscape:export-filename="C:\Users\Chris\Documents\GitHub\bot-game\assets\bushido.png"
   inkscape:export-xdpi="12.832031"
   inkscape:export-ydpi="12.832031">
  <sodipodi:namedview
     pagecolor="#000000"
     bordercolor="#666666"
     borderopacity="1"
     objecttolerance="10"
     gridtolerance="10"
     guidetolerance="10"
     inkscape:pageopacity="0"
     inkscape:pageshadow="2"
     inkscape:window-width="1190"
     inkscape:window-height="1126"
     id="namedview8460"
     showgrid="false"
     inkscape:zoom="1"
     inkscape:cx="349.82665"
     inkscape:cy="429.37182"
     inkscape:window-x="160"
     inkscape:window-y="130"
     inkscape:window-maximized="0"
     inkscape:current-layer="svg8438"
     showguides="true"
     inkscape:guide-bbox="true" />
  <metadata
     id="metadata8464">
    <rdf:RDF>
      <cc:Work
         rdf:about="">
        <dc:format>image/svg+xml</dc:format>
        <dc:type
           rdf:resource="http://purl.org/dc/dcmitype/StillImage" />
        <dc:title></dc:title>
      </cc:Work>
    </rdf:RDF>
  </metadata>
  <defs
     id="defs8462">
    <linearGradient
       id="linearGradient4077">
      <stop
         style="stop-color:#aa4400;stop-opacity:1;"
         offset="0"
         id="stop4079" />
      <stop
         id="stop4081"
         offset="0.22752622"
         style="stop-color:#ff9f00;stop-opacity:1;" />
      <stop
         id="stop4083"
         offset="0.4948855"
         style="stop-color:#803300;stop-opacity:1;" />
      <stop
         style="stop-color:#562200;stop-opacity:1;"
         offset="1"
         id="stop4085" />
    </linearGradient>
    <linearGradient
       id="linearGradient4057">
      <stop
         id="stop4059"
         offset="0"
         style="stop-color:#aa4400;stop-opacity:1;" />
      <stop
         style="stop-color:#ecd1a4;stop-opacity:1;"
         offset="0.22752622"
         id="stop4067" />
      <stop
         style="stop-color:#803300;stop-opacity:1;"
         offset="0.50136983"
         id="stop4065" />
      <stop
         id="stop4061"
         offset="1"
         style="stop-color:#562200;stop-opacity:1;" />
    </linearGradient>
    <linearGradient
       id="linearGradient3890">
      <stop
         id="stop3892"
         offset="0"
         style="stop-color:#701b1b;stop-opacity:1;" />
      <stop
         id="stop3894"
         offset="1"
         style="stop-color:#e31600;stop-opacity:1;" />
    </linearGradient>
    <linearGradient
       id="linearGradient3882">
      <stop
         id="stop3884"
         offset="0"
         style="stop-color:#600b0b;stop-opacity:1;" />
      <stop
         id="stop3886"
         offset="1"
         style="stop-color:#d11414;stop-opacity:1;" />
    </linearGradient>
    <linearGradient
       id="linearGradient3872">
      <stop
         id="stop3874"
         offset="0"
         style="stop-color:#800600;stop-opacity:1;" />
      <stop
         id="stop3876"
         offset="1"
         style="stop-color:#ff0004;stop-opacity:0;" />
    </linearGradient>
    <filter
       color-interpolation-filters="sRGB"
       height="1"
       y="0"
       width="1"
       x="0"
       inkscape:menu-tooltip="Light areas turn to black"
       inkscape:menu="Color"
       inkscape:label="Black Light"
       id="filter4074">
      <feColorMatrix
         result="result2"
         type="luminanceToAlpha"
         id="feColorMatrix4076" />
      <feComposite
         result="result4"
         k3="2"
         in="result2"
         operator="arithmetic"
         id="feComposite4078"
         in2="SourceGraphic" />
      <feBlend
         result="result3"
         mode="multiply"
         in="result4"
         id="feBlend4080"
         in2="result2" />
      <feComposite
         in="result3"
         operator="in"
         id="feComposite4082"
         in2="SourceGraphic" />
    </filter>
  </defs>
  <path
     inkscape:connector-curvature="0"
     d="M -13.466093,0.1885736 H 514.89024 V 516.42957 H -13.466093 z"
     id="path3978"
     style="fill:#000000" />
  <path
     sodipodi:end="6.1122693"
     sodipodi:start="6.11213"
     d="m 743.4676,104.32865 a 105,118.5 0 0 1 0.002,0.0163 L 640,124.5 z"
     sodipodi:ry="118.5"
     sodipodi:rx="105"
     sodipodi:cy="124.5"
     sodipodi:cx="640"
     id="path5005"
     style="opacity:0.98999999;fill:#ff0000;fill-opacity:0.74970506;fill-rule:nonzero;stroke:none"
     sodipodi:type="arc" />
  <g
     id="g6448" />
  <rect
     style="fill:#ffffff;fill-opacity:1;fill-rule:nonzero;stroke:none"
     id="rect3830"
     width="29"
     height="30.5"
     x="151"
     y="162.5" />
  <rect
     style="fill:#ffffff;fill-opacity:1;fill-rule:nonzero;stroke:none"
     id="rect3832"
     width="12"
     height="22.5"
     x="105.5"
     y="197" />
  <g
     id="g3810"
     transform="matrix(2.0142878,0,0,2.155959,-1620.0093,-40.934848)">
    <path
       style="fill:#9d9ca0"
       d="m 1003.37,222.55961 c -1.7214,-0.74916 -3.41409,-1.82193 -3.76142,-2.38392 l -0.63152,-1.02182 -3.23853,-0.65159 c -1.78119,-0.35838 -4.02603,-0.87332 -4.98853,-1.14432 l -1.75,-0.49274 0,-1.30878 0,-1.30878 -5.2958,-0.43917 -5.29581,-0.43917 -5.17549,-4.09099 -5.17549,-4.09099 -4.77871,-1.77803 C 957.38562,201.21665 951.60279,197.34794 947,192.51888 l -3.5,-3.67205 -4,-1.80693 -4,-1.80693 -7.3324,-0.66892 -7.33239,-0.66892 -6.91761,0.68165 -6.9176,0.68164 0,0.99574 c 0,2.74956 8.90503,20.07317 11.19364,21.77581 0.39179,0.29148 1.00698,2.37246 1.36708,4.6244 l 0.65473,4.09444 -1.2059,0.74529 -1.2059,0.74528 -6.65182,-0.0954 -6.65183,-0.0953 -6.44425,-1.77432 -6.44424,-1.77431 -0.0558,-1 -0.0557,-1 3,-0.5 3,-0.5 2.19877,-1.92838 2.19878,-1.92838 -0.50779,-0.82162 C 901.11047,206.36973 899.9944,206 898.9096,206 l -1.97237,0 -0.5734,-1.49426 -0.5734,-1.49425 -0.89522,0.55327 -0.89521,0.55327 0,-1.4104 0,-1.41041 -6.08222,-6.13909 -6.08223,-6.13909 -1.87793,-3.75952 -1.87793,-3.75952 -0.0552,2 c -0.0303,1.1 -0.47715,2.66739 -0.99291,3.48308 l -0.93776,1.48308 0.0225,-7.10476 c 0.0124,-3.90761 -0.27834,-8.70817 -0.64599,-10.6679 l -0.66845,-3.56314 1.14643,-3.47372 1.14643,-3.47371 3.32839,-1.57943 3.32839,-1.57942 7.29993,-0.37082 7.29992,-0.37081 0.71721,-1.93879 0.71721,-1.9388 -3.14289,-3.45243 L 893.5,145.5 l -7,0.046 -7,0.046 -1.79649,0.82887 -1.79648,0.82888 -7.70352,-3.02813 -7.70351,-3.02821 -1.13418,-2.18089 c -0.6238,-1.19949 -1.63631,-2.68301 -2.25,-3.2967 C 856.50212,135.10212 856,133.80156 856,132.82568 l 0,-1.77432 -3.25,-1.66521 c -1.7875,-0.91587 -3.58061,-2.16492 -3.98469,-2.77568 l -0.73468,-1.11047 -0.0153,-5.18261 -0.0153,-5.18261 1.75,-0.59281 1.75,-0.59281 1.72506,-3.68097 1.72507,-3.68098 -1.22507,-0.77829 -1.22506,-0.77829 2.19098,-0.0153 2.19099,-0.0153 0.66703,-1.07928 0.66703,-1.07928 -0.0853,-23.979488 c -0.0469,-13.188718 -0.32333,-24.364607 -0.61424,-24.83531 l -0.52893,-0.855822 0.95041,-0.33541 0.95041,-0.33541 0.51606,-8.281153 c 0.54347,-8.721113 0.96892,-10.218098 2.9046,-10.220044 l 1.19098,-0.0012 -0.71342,17.251198 C 862.39419,60.736961 862.10905,72.325 862.15292,77 c 0.0965,10.283247 0.4812,25.07034 0.69312,26.64159 l 0.15396,1.14159 2.58825,0.64961 2.58825,0.64961 -1.21069,1.4588 L 865.75511,109 867,110.5 c 0.68469,0.825 1.81664,1.5 2.51546,1.5 l 1.27056,0 0.57561,-1.5 0.5756,-1.5 3.63837,0 3.63838,0 -0.58984,-1.53709 c -0.32441,-0.84539 -1.32365,-4.06131 -2.22053,-7.14648 l -1.63069,-5.609393 0.49134,-4.35921 0.49135,-4.359209 4.37219,-3.953296 4.3722,-3.953296 1.78212,-0.04101 c 0.98016,-0.02256 3.34553,0.612221 5.25636,1.410618 l 3.47424,1.451631 1.06294,2.798369 c 0.58462,1.5391 2.35519,5.498366 3.93461,8.798366 l 2.87166,6 2.80904,1.146755 c 1.54497,0.630715 4.09077,1.437895 5.65734,1.793725 l 2.84831,0.64697 4.80692,5.01353 c 2.64381,2.75744 7.27709,8.25026 10.29617,12.20627 l 5.48925,7.19275 4.10341,8 c 2.25687,4.4 4.10435,8.69617 4.10551,9.54705 l 0.002,1.54705 3.75,3.58006 3.75,3.58005 8.5,1.70966 c 4.675,0.94031 9.85,1.9402 11.5,2.22197 1.65,0.28177 3.76927,0.9238 4.70949,1.42674 0.94022,0.50293 2.06522,0.81701 2.5,0.69794 1.27846,-0.35011 8.29051,2.51743 8.29051,3.39037 l 0,0.79911 -6.25,-0.0238 -6.25,-0.0238 -8.5,-1.87756 c -4.675,-1.03265 -8.69225,-1.69219 -8.92723,-1.46564 -0.23497,0.22655 0.55253,1.32469 1.75,2.44031 L 960,164.0779 l 0,1.96105 0,1.96104 0.92857,0 c 0.51072,0 1.52322,0.63698 2.25,1.4155 0.72679,0.77853 5.08171,5.26151 9.6776,9.96219 l 8.35617,8.54669 4.49448,2.17574 4.49449,2.17575 3.43007,5.36206 3.43008,5.36207 2.46927,0 2.46927,0 0,1 0,1 -1.5,0 -1.5,0 0,0.96104 c 0,1.61855 4.2732,5.06096 8.7365,7.038 l 4.2365,1.87657 1.7269,3.6213 1.7269,3.62129 -1.4634,0.92559 -1.4634,0.92558 -3,-0.0238 -3,-0.0238 -3.13,-1.36211 z M 860.5,115 c -0.33992,-0.55 -1.15398,-0.99311 -1.80902,-0.98469 L 857.5,114.03063 859,115 c 1.92112,1.24152 2.2673,1.24152 1.5,0 z M 884,100 c 0,-0.55 -0.47656,-1 -1.05902,-1 l -1.05901,0 0.61803,1 c 0.33992,0.55 0.81648,1 1.05902,1 0.24254,0 0.44098,-0.45 0.44098,-1 z m 4,-1 1.5,-0.969374 -2.25,-0.01531 L 885,98 l 0,1 c 0,1.25292 1.06124,1.25292 3,0 z"
       id="path3828"
       inkscape:connector-curvature="0" />
    <path
       style="fill:#7a7b83"
       d="m 1004.25,222.88122 -3.25,-0.9384 0,-0.8109 C 1001,220.04546 996.39325,218 993.94633,218 l -1.95956,0 -2.10351,-2.41926 -2.10352,-2.41926 -3.18428,0.51674 -3.18428,0.51674 -6.6913,-4.58104 c -3.68021,-2.51958 -9.73523,-5.95892 -13.45559,-7.64299 l -6.76429,-3.06194 -4,-3.80414 c -5.43016,-5.16426 -11.34468,-9.4513 -13.34701,-9.67436 -0.90915,-0.10127 -4.80299,-0.51123 -8.65299,-0.91102 -3.85,-0.39979 -7.25479,-0.88066 -7.5662,-1.0686 -0.31141,-0.18795 -3.74326,0.12983 -7.62634,0.70616 l -7.06013,1.04787 1.75972,4.64755 c 3.13001,8.26658 4.76978,11.56872 7.84668,15.80145 l 3.01959,4.1539 0.65644,3.49916 0.65645,3.49916 -2.28152,0.72413 c -1.25484,0.39827 -4.55924,0.65279 -7.34311,0.5656 l -5.06158,-0.15853 -6.40219,-1.71866 -6.40219,-1.71866 -0.0411,-1 -0.0411,-1 2.4433,-0.5 c 1.34381,-0.275 3.4558,-1.17075 4.6933,-1.99055 l 2.25,-1.49054 0,-1.25946 0,-1.25945 -1.78521,0 -1.78521,0 -4.46479,-5.12303 c -2.45563,-2.81766 -6.21295,-6.75516 -8.34958,-8.75 l -3.88479,-3.62697 -1.50511,-3.5 -1.50512,-3.5 -1.3696,3.5 -1.3696,3.5 0.42084,-4.29843 0.42085,-4.29842 -0.95778,-6.91144 -0.95777,-6.91143 1.50238,-2.9053 1.50239,-2.90529 3.44518,-1.63485 3.44518,-1.63484 6.56368,0 6.56369,0 1.07037,-2 1.07037,-2 -0.94336,-1.75 c -0.51885,-0.9625 -1.99719,-2.7307 -3.28519,-3.92933 l -2.34182,-2.17932 -7,-0.009 c -3.85,-0.005 -9.16848,-0.007 -11.81884,-0.005 l -4.81884,0.004 -1.32913,-1.10308 c -0.73102,-0.6067 -2.38755,-1.29829 -3.68116,-1.53687 L 862.5,142.05691 859.26488,138.27845 856.02975,134.5 856.01488,132.33236 856,130.16472 852.25,128.33236 848.5,126.5 l -0.30265,-5.26118 -0.30264,-5.26118 1.50656,-0.57813 1.50656,-0.57812 2.09762,-3.5552 2.09762,-3.55521 -0.49624,-1.29318 -0.49624,-1.29319 2.1947,-0.31231 L 858.5,104.5 859.04195,90 c 0.29807,-7.975 0.64246,-12.7 0.76531,-10.5 l 0.22337,4 L 861,82 l 0.96937,-1.5 0.0153,11.178571 0.0153,11.178569 1.57143,1.57143 c 0.86428,0.86429 2.01584,1.57143 2.55902,1.57143 l 0.98758,0 -0.62356,1.00895 -0.62357,1.00895 0.63194,1.99105 0.63193,1.99105 1.82563,0 1.82562,0 0.51622,-1.34524 0.51622,-1.34524 3.07743,-0.0875 c 1.69258,-0.0481 3.50279,-0.35039 4.02268,-0.67169 l 0.94525,-0.5842 -1.40956,-2.71694 c -0.77527,-1.49432 -1.90917,-5.1235 -2.51979,-8.064861 l -1.11023,-5.347921 0.61326,-2.443415 0.61326,-2.443416 3.55241,-3.932089 3.5524,-3.932089 1.84881,-0.58679 1.84881,-0.586789 3.57227,1.492587 3.57226,1.492587 4.53559,9.512652 4.53558,9.512652 3.71556,0.672502 c 7.55705,1.36779 10.03125,3.39061 20.67752,16.9052 l 6.30209,8 4.61797,9.15115 c 2.53988,5.03313 4.61797,9.58907 4.61797,10.12431 0,0.53523 1.4625,2.55603 3.25,4.49065 l 3.25,3.51749 6,1.15624 c 8.60441,1.65812 15.76511,3.22931 17.5,3.83981 0.825,0.29032 2.48585,0.69549 3.69077,0.90038 2.93746,0.4995 9.30923,3.19752 9.30923,3.94184 l 0,0.59504 -7.25,-0.55758 c -3.9875,-0.30667 -10.625,-1.19949 -14.75,-1.98406 -4.125,-0.78456 -7.6638,-1.28115 -7.864,-1.10353 -0.20021,0.17761 0.58729,1.53232 1.75,3.01046 1.1627,1.47813 2.114,3.0517 2.114,3.49682 0,0.44511 5.04124,6.00942 11.20275,12.36514 L 982.4055,190 l 2.0943,0 2.0943,0 3.70295,3.79216 c 2.03662,2.08569 3.71792,4.22319 3.73622,4.75 0.0183,0.52681 0.87793,1.97034 1.91029,3.20784 l 1.87703,2.25 1.8397,0.0703 1.83971,0.0703 -1.88025,0.73849 -1.88026,0.73849 2.88021,2.81038 c 1.5842,1.54571 4.6486,3.79187 6.8099,4.99148 l 3.9296,2.18111 2.0704,2.77777 2.0704,2.77777 -1.9411,1.42197 -1.9412,1.42197 -2.0588,-0.0902 c -1.1324,-0.0496 -3.5214,-0.51247 -5.3089,-1.02859 z M 860.4573,116.9309 859.88197,116 l 0.84621,0 0.84621,0 0.14457,-1.9192 0.14457,-1.91919 -1.53552,-0.58924 -1.53552,-0.58923 0.57237,-1.49157 0.57237,-1.49157 -1.94386,0 -1.94387,0 0.98241,2.58392 0.9824,2.58391 -0.56617,0.91609 -0.56617,0.91608 1.05901,0 1.05902,0 0,1.05902 0,1.05901 -1,-0.61803 -1,-0.61803 0,0.97568 c 0,1.13114 2.14292,2.07476 3.26631,1.43831 l 0.76631,-0.43416 -0.57532,-0.9309 z M 865.5,111 c -0.33992,-0.55 -0.81648,-1 -1.05902,-1 -0.24254,0 -0.44098,0.45 -0.44098,1 0,0.55 0.47656,1 1.05902,1 l 1.05901,0 -0.61803,-1 z m -7.3125,-4.68311 -1.3125,-0.52522 -0.60417,0.60416 -0.60416,0.60417 1.91666,-0.079 1.91667,-0.0789 -1.3125,-0.52522 z M 887.77292,104 c 0.33514,0 -0.23579,-0.61798 -1.26873,-1.37328 l -1.87807,-1.37328 2.18694,-0.69411 L 889,99.865225 889,98.932612 889,98 l -2.75,0.07028 c -1.5125,0.03866 -3.65,0.462434 -4.75,0.941726 l -2,0.87144 2.25,0.674904 2.25,0.67491 0,1.99036 0,1.99035 1.58179,-0.60699 C 886.45177,104.27315 887.43778,104 887.77292,104 z M 859.16004,69.896691 c -0.088,-1.98182 -0.45654,-6.440067 -0.81893,-9.907215 l -0.65889,-6.303907 0.97795,0.604403 0.97794,0.604403 -0.4157,-2.832347 -0.4157,-2.832348 1.19641,-2.235517 1.19642,-2.235517 -0.84977,0.525227 -0.84977,0.525228 0.35069,-4.40455 0.3507,-4.404551 0.95832,0 0.95832,0 -0.57533,-0.930902 -0.57532,-0.930901 1.1782,-0.728169 1.1782,-0.728169 -0.65734,11.409071 c -0.36154,6.274988 -0.65939,14.023128 -0.66189,17.218087 l -0.005,5.809017 -0.93523,-0.578001 -0.93522,-0.578001 -0.40474,3.268984 -0.40474,3.268984 -0.16003,-3.603309 z"
       id="path3826"
       inkscape:connector-curvature="0" />
    <path
       style="fill:#907371"
       d="m 1005.7914,223.0318 c -1.4898,-0.46019 -4.0343,-1.78061 -5.6544,-2.93426 L 997.19126,218 l -2.34563,-0.0153 c -2.85541,-0.0186 -4.28354,-0.92123 -5.14327,-3.25055 l -0.65176,-1.76587 -3.7753,0.60222 -3.7753,0.60221 -8.19999,-5.58635 c -4.51,-3.0725 -8.69043,-5.58636 -9.28984,-5.58636 -1.95347,0 -8.87307,-3.94072 -12.47912,-7.10688 l -3.52456,-3.09461 0.65126,-1.05376 0.65127,-1.05377 -1.03362,0.63881 -1.03362,0.63881 -4.19248,-3.31763 c -2.30587,-1.8247 -4.72277,-3.33218 -5.3709,-3.34995 -1.12092,-0.0307 -7.68537,-0.85256 -14.1784,-1.77504 l -3,-0.42621 -6.94,0.97345 c -3.817,0.5354 -7.11068,1.14413 -7.31929,1.35274 -0.20861,0.2086 0.062,1.2106 0.60134,2.22666 0.53935,1.01606 1.73585,3.993 2.65889,6.61542 l 1.67825,4.76804 3.51827,5.11466 c 1.93505,2.81306 3.91053,6.48241 4.38997,8.15411 l 0.87171,3.03946 -1.10202,1.32785 -1.10201,1.32784 -5.29679,0 -5.29679,0 -6.33076,-1.55786 C 897.34884,215.58532 893.825,214.62786 893,214.31445 l -1.5,-0.56984 3.28859,-0.9109 3.28859,-0.91089 1.96141,-1.96141 C 901.11737,208.88263 902,207.55 902,207 l 0,-1 -1.87954,0 -1.87954,0 -3.49423,-4.25 c -1.92183,-2.3375 -5.781,-6.56683 -8.57594,-9.39852 l -5.08171,-5.14852 -0.65293,-2.60148 -0.65293,-2.60148 -1.39159,0 -1.39159,0 -0.006,-3.75 c -0.003,-2.0625 -0.45667,-5.37393 -1.008,-7.35873 l -1.00242,-3.60874 1.44174,-3.45056 1.44173,-3.45056 2.81626,-1.32345 2.81627,-1.32345 7.33381,-0.50414 7.3338,-0.50414 1.08811,-2.38814 1.08811,-2.38813 -3.26065,-3.36414 -3.26065,-3.36413 -6.66126,-0.46206 -6.66127,-0.46206 -1.23904,0.96456 -1.23904,0.96456 -3.76096,-0.68732 c -2.06853,-0.37803 -4.78617,-1.34774 -6.03921,-2.15491 l -2.27824,-1.46758 -0.80879,0.49986 -0.80879,0.49985 -2.13299,-1.494 -2.133,-1.49401 -1.62006,-3.41402 -1.62006,-3.41402 0.7446,-1.20478 0.74459,-1.20478 -1.04972,0.64877 -1.04972,0.64876 -0.57338,-1.49425 -0.5734,-1.49426 -1.53139,0 -1.53138,0 -2,-2 -2,-2 0,-4.38499 0,-4.38499 2.5,-1.63806 2.5,-1.63807 0,-1.32195 c 0,-0.72708 0.80543,-2.05087 1.78985,-2.94175 l 1.78984,-1.61979 0.29601,2.2148 c 0.1628,1.21814 0.35379,3.0023 0.42443,3.9648 l 0.12844,1.75 0.78572,0 c 0.43214,0 0.78571,0.47656 0.78571,1.05902 l 0,1.05901 -1,-0.61803 -1,-0.61803 0,1.05901 c 0,0.96885 0.74022,1.22699 2.75,0.95902 0.4125,-0.055 0.6375,-0.505 0.5,-1 -0.1375,-0.495 0.10424,-0.9 0.5372,-0.9 l 0.78719,0 0.14457,-1.9192 0.14457,-1.91919 -1.53552,-0.58924 -1.53552,-0.58923 0.57237,-1.49157 0.57237,-1.49157 -1.02763,0 -1.02763,0 0.715,-1.1569 0.71501,-1.15691 -0.025,-13.093095 -0.025,-13.093095 0.5075,4 0.50751,4 0.76187,-2.5 0.76187,-2.5 0.0997,11.821429 0.0997,11.821431 1.5,1.5 1.5,1.5 0.0564,-1.82143 0.0564,-1.82143 1.19356,3.41335 1.19356,3.41334 1.68086,0.23802 1.68085,0.23803 0.57758,-1.50513 0.57756,-1.50512 1.49157,0.57237 1.49158,0.57237 0,-0.96861 0,-0.96862 2.60699,0 2.60699,0 -0.7479,-1.75 c -0.41134,-0.9625 -1.66005,-4.73688 -2.7749,-8.387513 l -2.02701,-6.637513 1.20768,-2.915586 c 0.66422,-1.603572 2.34201,-4.138919 3.72842,-5.634105 l 2.52076,-2.718518 0.82618,0.510607 0.82618,0.510607 1.3633,-1.738989 L 886.5,78.5 l -2,1.445232 -2,1.445231 1.59117,-1.750686 1.59117,-1.750686 4.20032,1.680634 c 2.31017,0.924349 3.98374,1.897205 3.71905,2.161904 -0.2647,0.264698 0.34294,1.365958 1.35031,2.447243 1.00737,1.081286 2.62796,4.070884 3.60131,6.643551 0.97335,2.572667 2.41581,5.677898 3.20548,6.900513 l 1.43574,2.222936 3.65273,0.660708 c 2.00899,0.3634 4.86778,1.27553 6.35286,2.02697 l 2.70015,1.36625 3.79985,4.58579 c 2.08993,2.52219 3.68736,4.99723 3.54986,5.5001 L 923,115 l 0.80186,-0.25 C 924.64569,114.48692 931,121.27635 931,122.44103 l 0,0.677 -1.25,-0.66876 c -0.6875,-0.36782 -0.074,0.39312 1.3633,1.69098 3.4488,3.11418 8.14667,11.11464 10.25611,17.46612 l 1.69591,5.10637 2.47804,2.328 2.47804,2.328 -1.09349,0.67581 -1.0935,0.67582 5.30982,0.70438 c 5.71207,0.75773 7.99312,1.26173 23.35577,5.1605 l 10,2.53782 1,1.06562 1,1.06561 -7,-0.55724 c -3.85,-0.30649 -10.6,-1.30123 -15,-2.21055 l -8,-1.65331 -0.31461,-0.86043 -0.31461,-0.86042 -1.43539,0.55082 -1.43539,0.55081 0.0153,1.64301 0.0153,1.64301 0.9152,-1.44659 0.9152,-1.44659 2.03622,2.44659 c 1.84999,2.22283 2.54324,4.15685 2.22117,6.19659 -0.0651,0.4125 0.35814,0.75 0.9406,0.75 l 1.05901,0 -0.548,0.88669 -0.54801,0.8867 1.73899,1.3633 1.73899,1.36331 -1.37244,-1.75 -1.37245,-1.75 0.94858,0 c 0.52172,0 2.26432,1.63486 3.87244,3.63303 1.60813,1.99816 3.92102,4.54097 5.13976,5.65068 l 2.21589,2.01765 -0.62621,1.09932 -0.62622,1.09932 0.74594,-0.66895 0.74594,-0.66894 2.41438,2.09928 c 1.32792,1.1546 2.41439,2.55414 2.41439,3.11008 l 0,1.01079 -1.55517,-1.94113 -1.55516,-1.94113 1.07042,2.21276 1.07042,2.21276 1.32453,-0.50827 1.32453,-0.50827 1.28266,1.54551 1.28266,1.54551 1.93657,0 1.93657,0 -0.71352,1.15451 -0.71353,1.15451 1.25016,-0.77265 1.25017,-0.77264 2.65434,2.92591 c 3.62318,3.99387 8.15435,10.67598 8.15435,12.02522 0,1.47365 5.36063,5.91834 9.98073,8.27533 l 3.7138,1.8946 1.7458,2.66451 1.7459,2.6645 -0.8431,0.82234 c -0.4637,0.45228 -1.9681,1.04959 -3.3431,1.32735 l -2.5,0.50501 -2.7087,-0.8367 z m 3.6659,-5.9627 0.5753,-0.9309 -1.1708,-0.72361 -1.1708,-0.72361 0.6607,1.0691 0.6608,1.0691 -1.2563,0.50646 -1.2562,0.50647 1.191,0.0789 c 0.655,0.0434 1.4499,-0.33996 1.7663,-0.85195 z M 879.5,180 c -0.33992,-0.55 -0.81648,-1 -1.05902,-1 -0.24254,0 -0.44098,0.45 -0.44098,1 0,0.55 0.47656,1 1.05902,1 l 1.05901,0 -0.61803,-1 z m -1.25,-35.66228 c -0.6875,-0.27741 -1.8125,-0.27741 -2.5,0 l -1.25,0.50439 2.5,0 2.5,0 -1.25,-0.50439 z M 865.5,111 c -0.33992,-0.55 -0.81648,-1 -1.05902,-1 -0.24254,0 -0.44098,0.45 -0.44098,1 0,0.55 0.47656,1 1.05902,1 l 1.05901,0 -0.61803,-1 z m 20.9476,-6.61827 1.61118,-0.61826 -1.71633,-1.25502 -1.71633,-1.25501 2.18694,-0.69411 L 889,99.865225 889,98.932612 889,98 l -2.75,0.118315 c -1.5125,0.06507 -4.1,0.430592 -5.75,0.812264 l -3,0.693949 3.25,0.767192 3.25,0.76719 0,1.92054 c 0,2.12395 0.12838,2.19225 2.4476,1.30228 z M 914,104 c -0.825,-0.53316 -1.95,-0.96937 -2.5,-0.96937 l -1,0 L 912,104 c 0.825,0.53316 1.95,0.96937 2.5,0.96937 l 1,0 L 914,104 z M 860.60417,101.27083 860,100.66667 l 0.0789,1.91666 0.079,1.91667 0.52521,-1.3125 0.52522,-1.3125 -0.60416,-0.60417 z M 859.63923,65.5 c 0.20967,-2.2 0.65158,-5.693698 0.98201,-7.763773 l 0.60079,-3.763773 -1.36102,-1.678186 -1.36101,-1.678185 1.2211,0.733112 1.22109,0.733111 -0.13161,-3.500964 -0.13162,-3.500964 -1.08948,0.65177 -1.08948,0.651769 1.46703,-1.941959 c 0.80687,-1.068077 1.59437,-2.129458 1.75,-2.358625 0.15563,-0.229166 0.25134,5.395834 0.21268,12.5 L 861.85943,67.5 l -0.81596,-2 -0.81596,-2 -0.48475,3 -0.48475,3 0.38122,-4 z m -1.38705,-8 -0.0202,-4 0.45508,1.738341 c 0.25029,0.956087 0.25937,2.756087 0.0202,4 l -0.4349,2.261659 -0.0202,-4 z M 861.07895,39.583333 861,37.666667 l 0.60417,0.604166 0.60416,0.604167 -0.52522,1.3125 -0.52521,1.3125 -0.079,-1.916667 z"
       id="path3824"
       inkscape:connector-curvature="0" />
    <path
       style="fill:#56575d"
       d="m 1005.7914,223.0318 c -1.4898,-0.46019 -4.0343,-1.78061 -5.6544,-2.93426 L 997.19126,218 l -2.34563,-0.0153 c -2.85541,-0.0186 -4.28354,-0.92123 -5.14327,-3.25055 l -0.65176,-1.76587 -3.7753,0.60222 -3.7753,0.60221 -8.19999,-5.58635 c -4.51,-3.0725 -8.69043,-5.58636 -9.28984,-5.58636 -1.95347,0 -8.87307,-3.94072 -12.47912,-7.10688 l -3.52456,-3.09461 0.65126,-1.05376 0.65127,-1.05377 -1.03362,0.63881 -1.03362,0.63881 -4.19248,-3.31763 c -2.30587,-1.8247 -4.72277,-3.33218 -5.3709,-3.34995 -1.12092,-0.0307 -7.68537,-0.85256 -14.1784,-1.77504 l -3,-0.42621 -6.94,0.97345 c -3.817,0.5354 -7.11068,1.14413 -7.31929,1.35274 -0.20861,0.2086 0.062,1.2106 0.60134,2.22666 0.53935,1.01606 1.73585,3.993 2.65889,6.61542 l 1.67825,4.76804 3.51827,5.11466 c 1.93505,2.81306 3.91053,6.48241 4.38997,8.15411 l 0.87171,3.03946 -1.10202,1.32785 -1.10201,1.32784 -5.29679,0 -5.29679,0 -6.33076,-1.55786 C 897.34884,215.58532 893.825,214.62786 893,214.31445 l -1.5,-0.56984 3.28859,-0.9109 3.28859,-0.91089 1.96141,-1.96141 C 901.11737,208.88263 902,207.55 902,207 l 0,-1 -1.87954,0 -1.87954,0 -3.49423,-4.25 c -1.92183,-2.3375 -5.781,-6.56683 -8.57594,-9.39852 l -5.08171,-5.14852 -0.65293,-2.60148 -0.65293,-2.60148 -1.39159,0 -1.39159,0 -0.006,-3.75 c -0.003,-2.0625 -0.45667,-5.37393 -1.008,-7.35873 l -1.00242,-3.60874 1.44174,-3.45056 1.44173,-3.45056 2.81626,-1.32345 2.81627,-1.32345 7.33381,-0.50414 7.3338,-0.50414 1.08811,-2.38814 1.08811,-2.38813 -3.26065,-3.36414 -3.26065,-3.36413 -6.66126,-0.46206 -6.66127,-0.46206 -1.23904,0.96456 -1.23904,0.96456 -3.76096,-0.68732 c -2.06853,-0.37803 -4.78617,-1.34774 -6.03921,-2.15491 l -2.27824,-1.46758 -0.80879,0.49986 -0.80879,0.49985 -2.13299,-1.494 -2.133,-1.49401 -1.62006,-3.41402 -1.62006,-3.41402 0.7446,-1.20478 0.74459,-1.20478 -1.04972,0.64877 -1.04972,0.64876 -0.57338,-1.49425 -0.5734,-1.49426 -1.53139,0 -1.53138,0 -2,-2 -2,-2 0,-4.38499 0,-4.38499 2.5,-1.63806 2.5,-1.63807 0,-1.32195 c 0,-0.72708 0.81264,-2.0574 1.80588,-2.95626 l 1.80587,-1.6343 -0.25931,2.72931 c -0.14262,1.50112 -0.55565,3.73379 -0.91785,4.96149 l -0.65853,2.23218 2.69588,1.02497 2.69589,1.02498 0.91609,-0.56617 0.91608,-0.56617 0,-1.98482 0,-1.98482 1.75,0.29383 1.75,0.29384 -0.20345,-4.5 -0.20345,-4.5 1.20345,3.41335 1.20345,3.41334 1.68086,0.23802 1.68086,0.23803 0.57757,-1.50513 0.57757,-1.50512 1.49157,0.57237 1.49157,0.57237 0,-0.96861 0,-0.96862 2.60699,0 2.60699,0 -0.7479,-1.75 c -0.41134,-0.9625 -1.66005,-4.73688 -2.7749,-8.387513 l -2.02701,-6.637513 1.20768,-2.915586 c 0.66422,-1.603572 2.34201,-4.138919 3.72842,-5.634105 l 2.52076,-2.718518 0.82618,0.510607 0.82618,0.510607 1.3633,-1.738989 L 886.5,78.5 l -2,1.445232 -2,1.445231 1.59117,-1.750686 1.59117,-1.750686 4.20032,1.680634 c 2.31017,0.924349 3.98374,1.897205 3.71905,2.161904 -0.2647,0.264698 0.34294,1.365958 1.35031,2.447243 1.00737,1.081286 2.62796,4.070884 3.60131,6.643551 0.97335,2.572667 2.41581,5.677898 3.20548,6.900513 l 1.43574,2.222936 3.65273,0.660708 c 2.00899,0.3634 4.86778,1.27553 6.35286,2.02697 l 2.70015,1.36625 3.79985,4.58579 c 2.08993,2.52219 3.68736,4.99723 3.54986,5.5001 L 923,115 l 0.80186,-0.25 C 924.64569,114.48692 931,121.27635 931,122.44103 l 0,0.677 -1.25,-0.66876 c -0.6875,-0.36782 -0.074,0.39312 1.3633,1.69098 3.4488,3.11418 8.14667,11.11464 10.25611,17.46612 l 1.69591,5.10637 2.47804,2.328 2.47804,2.328 -1.09349,0.67581 -1.0935,0.67582 5.30982,0.70438 c 5.71207,0.75773 7.99312,1.26173 23.35577,5.1605 l 10,2.53782 1,1.06562 1,1.06561 -7,-0.55724 c -3.85,-0.30649 -10.6,-1.30123 -15,-2.21055 l -8,-1.65331 -0.31461,-0.86043 -0.31461,-0.86042 -1.43539,0.55082 -1.43539,0.55081 0.0153,1.64301 0.0153,1.64301 0.9152,-1.44659 0.9152,-1.44659 2.03622,2.44659 c 1.84999,2.22283 2.54324,4.15685 2.22117,6.19659 -0.0651,0.4125 0.35814,0.75 0.9406,0.75 l 1.05901,0 -0.548,0.88669 -0.54801,0.8867 1.73899,1.3633 1.73899,1.36331 -1.37244,-1.75 -1.37245,-1.75 0.94858,0 c 0.52172,0 2.26432,1.63486 3.87244,3.63303 1.60813,1.99816 3.92102,4.54097 5.13976,5.65068 l 2.21589,2.01765 -0.62621,1.09932 -0.62622,1.09932 0.74594,-0.66895 0.74594,-0.66894 2.41438,2.09928 c 1.32792,1.1546 2.41439,2.55414 2.41439,3.11008 l 0,1.01079 -1.55517,-1.94113 -1.55516,-1.94113 1.07042,2.21276 1.07042,2.21276 1.32453,-0.50827 1.32453,-0.50827 1.28266,1.54551 1.28266,1.54551 1.93657,0 1.93657,0 -0.71352,1.15451 -0.71353,1.15451 1.25016,-0.77265 1.25017,-0.77264 2.65434,2.92591 c 3.62318,3.99387 8.15435,10.67598 8.15435,12.02522 0,1.47365 5.36063,5.91834 9.98073,8.27533 l 3.7138,1.8946 1.7458,2.66451 1.7459,2.6645 -0.8431,0.82234 c -0.4637,0.45228 -1.9681,1.04959 -3.3431,1.32735 l -2.5,0.50501 -2.7087,-0.8367 z m 3.6659,-5.9627 0.5753,-0.9309 -1.1708,-0.72361 -1.1708,-0.72361 0.6607,1.0691 0.6608,1.0691 -1.2563,0.50646 -1.2562,0.50647 1.191,0.0789 c 0.655,0.0434 1.4499,-0.33996 1.7663,-0.85195 z M 879.5,180 c -0.33992,-0.55 -0.81648,-1 -1.05902,-1 -0.24254,0 -0.44098,0.45 -0.44098,1 0,0.55 0.47656,1 1.05902,1 l 1.05901,0 -0.61803,-1 z m -1.25,-35.66228 c -0.6875,-0.27741 -1.8125,-0.27741 -2.5,0 l -1.25,0.50439 2.5,0 2.5,0 -1.25,-0.50439 z m 10.14793,-40.47317 c 1.37063,-0.6245 2.72972,-1.7548 3.0202,-2.51179 l 0.52815,-1.37634 -2.97314,1.53747 c -3.52408,1.82237 -3.87542,1.05941 -0.72314,-1.570328 l 2.25,-1.877023 -3.125,-0.03327 c -1.71875,-0.0183 -4.58623,0.258976 -6.37217,0.616165 l -3.24717,0.649433 2.37217,1.315133 2.37217,1.31513 -1.95,0.0354 -1.95,0.0354 0.95,0.90294 c 0.81396,0.77363 3.01912,1.54642 5.65295,1.98106 0.38662,0.0638 1.82436,-0.39495 3.19498,-1.01945 z M 914,104 c -0.825,-0.53316 -1.95,-0.96937 -2.5,-0.96937 l -1,0 L 912,104 c 0.825,0.53316 1.95,0.96937 2.5,0.96937 l 1,0 L 914,104 z m -52.87221,7.49881 -2.37221,-1.30509 1.87221,-0.44454 1.87221,-0.44454 -2.5,-1.05216 -2.5,-1.05216 1.75,-0.70715 1.75,-0.70715 -0.0703,-2.64301 -0.0703,-2.64301 -0.85943,2 -0.85943,2 0.0978,-12.5 0.0978,-12.5 0.47035,4 0.47035,4 0.76186,-2.5 0.76188,-2.5 0.0997,12.25 L 862,107 l 0.78729,0 0.78729,0 0.2286,3 c 0.12572,1.65 0.10894,2.95588 -0.0373,2.90195 -0.14624,-0.0539 -1.33338,-0.68534 -2.6381,-1.40314 z M 859.63923,65.5 c 0.20967,-2.2 0.65158,-5.693698 0.98201,-7.763773 l 0.60079,-3.763773 -1.36102,-1.678186 -1.36101,-1.678185 1.2211,0.733112 1.22109,0.733111 -0.13161,-3.500964 -0.13162,-3.500964 -1.08948,0.65177 -1.08948,0.651769 1.46703,-1.941959 c 0.80687,-1.068077 1.59437,-2.129458 1.75,-2.358625 0.15563,-0.229166 0.25134,5.395834 0.21268,12.5 L 861.85943,67.5 l -0.81596,-2 -0.81596,-2 -0.48475,3 -0.48475,3 0.38122,-4 z m -1.38705,-8 -0.0202,-4 0.45508,1.738341 c 0.25029,0.956087 0.25937,2.756087 0.0202,4 l -0.4349,2.261659 -0.0202,-4 z M 861.07895,39.583333 861,37.666667 l 0.60417,0.604166 0.60416,0.604167 -0.52522,1.3125 -0.52521,1.3125 -0.079,-1.916667 z"
       id="path3822"
       inkscape:connector-curvature="0" />
    <path
       style="fill:#3c414b"
       d="m 1004,222.27172 c -0.825,-0.31371 -2.5732,-1.40318 -3.8849,-2.42105 L 997.73028,218 l -2.61514,-0.0153 c -3.14872,-0.0184 -4.53317,-0.8686 -5.4496,-3.3465 l -0.68858,-1.86181 -3.23848,0.47584 -3.23848,0.47584 -2.5,-1.08712 c -1.375,-0.59792 -4.79793,-2.79205 -7.6065,-4.87584 l -5.1065,-3.78871 -4.64426,-1.58245 -4.64426,-1.58246 0.65527,-1.06025 0.65527,-1.06025 -1.16003,0.71694 -1.16003,0.71694 -4.46294,-3.65705 -4.46294,-3.65705 0.21846,-1.10867 0.21846,-1.10868 -1.5,-0.0467 c -0.825,-0.0257 -3.1269,-1.2914 -5.11534,-2.81269 l -3.61533,-2.76597 -5.0108,-0.34846 c -2.75594,-0.19164 -5.53881,-0.67478 -6.18417,-1.07363 l -1.17337,-0.72519 -9.48015,0.71076 -9.48014,0.71075 -1.07012,1.99954 -1.07012,1.99953 0.9931,-0.61376 0.99309,-0.61377 0.63727,2.53908 0.63727,2.53908 -0.6851,1.10852 -0.68511,1.10852 0.98972,-0.61168 0.98972,-0.61168 1.64019,3.4395 1.64018,3.4395 -0.56973,1.76767 -0.56972,1.76767 1.07901,-1.5 1.07902,-1.5 0.0153,1.75 L 913,204 l 0.78439,0 c 1.12843,0 4.60651,6.0192 5.33623,9.23493 l 0.62062,2.73493 -1.2551,1.04165 -1.25511,1.04164 -6.86551,-0.46814 -6.86552,-0.46815 -5.5,-1.7042 -5.5,-1.7042 2.85745,-0.79648 C 898.73734,211.96987 902,209.23551 902,207.34501 L 902,206 l -1.84501,0 -1.84502,0 -1.65498,-1.82874 C 895.74474,203.16545 895,202.13584 895,201.88322 c 0,-0.25261 -2.74284,-3.36718 -6.0952,-6.92126 -8.4286,-8.93576 -8.93404,-9.77616 -9.90078,-16.46196 l -0.14459,-1 -0.85943,2 -0.85943,2 -0.24857,-5.5 c -0.13671,-3.025 -0.24751,-6.26513 -0.24622,-7.20028 l 0.002,-1.70028 -0.82406,0.5093 c -0.98058,0.60603 -1.03499,0.10451 -0.21928,-2.02121 l 0.60479,-1.57604 1.04972,0.64876 1.04973,0.64877 -0.75247,-1.21752 -0.75247,-1.21753 1.78486,-1.97225 1.78487,-1.97225 1.36503,0.52381 1.36504,0.52381 -0.53209,-0.86092 -0.53208,-0.86093 3.73015,-0.61661 c 2.05158,-0.33914 5.99539,-0.62157 8.76404,-0.62762 l 5.0339,-0.011 -0.0339,-2.80696 -0.0339,-2.80695 -2.63841,-3.13714 -2.6384,-3.13714 -5.3996,-0.21846 c -2.96978,-0.12015 -6.2825,-0.56367 -7.3616,-0.98561 l -1.96195,-0.76718 1.41667,-0.0703 1.41666,-0.0703 -0.6425,-0.6425 -0.6425,-0.6425 -1.51842,1.26017 -1.51842,1.26018 -2.73673,-0.52316 -2.73673,-0.52316 1.98099,1.47143 1.98098,1.47142 -3,-0.70427 c -1.65,-0.38735 -3.8001,-1.1146 -4.77801,-1.61612 l -1.77801,-0.91184 0.52939,-0.85656 0.52939,-0.85657 -1.89915,0.49664 -1.89914,0.49663 -2.02626,-1.08442 -2.02626,-1.08442 -1.48819,-2.98315 -1.4882,-2.98315 0.56975,-2.1787 0.56974,-2.17869 -1.15753,0.71539 -1.15752,0.71541 0,-1.05901 0,-1.05902 -2,0 -2,0 -2,-2 -2,-2 0,-4.60699 0,-4.60699 1.55194,0.59554 1.55194,0.59553 -0.61096,-0.98854 -0.61095,-0.98855 1.30901,-0.11842 c 0.71996,-0.0651 1.70173,-0.0467 2.1817,0.0409 l 0.87268,0.15932 -0.59129,-1.5409 -0.5913,-1.54089 0.5756,-1.5 c 0.31659,-0.825 1.01702,-1.5 1.55652,-1.5 l 0.98091,0 -0.67442,3.99186 -0.67442,3.99185 2.65162,1.00815 C 858.93697,118.54634 860.5509,119 861.0651,119 l 0.9349,0 0,-2.56739 0,-2.56739 2,0.63478 2,0.63478 0.11842,-1.31739 c 0.0651,-0.72457 0.0819,-1.60465 0.0372,-1.95574 -0.0447,-0.3511 0.98864,-0.13347 2.29622,0.48361 l 2.37742,1.12196 -0.57496,1.01639 -0.57497,1.01639 0.89757,-0.82058 c 0.49367,-0.45132 0.90331,-1.57632 0.91033,-2.5 L 871.5,110.5 l 4.40837,0 4.40837,0 0.17109,-2.20362 0.1711,-2.20362 -0.78068,0.48248 -0.78067,0.48249 -1.1618,-4.27887 c -0.63899,-2.35337 -1.56094,-5.58351 -2.04879,-7.178083 -1.22432,-4.001829 -1.17401,-4.255465 1.30157,-6.561822 C 878.39227,87.91753 878.99728,87 878.53302,87 c -0.46425,0 0.46339,-1.123495 2.06144,-2.496655 1.59805,-1.373161 2.90554,-3.010523 2.90554,-3.638583 l 0,-1.141928 2.8602,-0.304946 2.86019,-0.304947 -0.52686,0.526863 -0.52686,0.526863 1.99398,1.993985 1.99399,1.993986 1.24123,-0.476305 1.24123,-0.476304 -0.0686,1.648986 L 894.5,86.5 l 1,0.315741 c 1.13134,0.35721 3.42913,4.16612 3.42913,5.684259 0,0.55 -0.64311,-0.125 -1.42913,-1.5 -0.78602,-1.375 -1.42913,-2.05 -1.42913,-1.5 0,1.329409 2.84814,6.277754 2.89369,5.027494 L 899,93.554988 l 1.51828,2.167654 c 0.83506,1.192209 1.45677,2.529837 1.38158,2.972506 -0.0752,0.442669 -0.0765,1.479852 -0.003,2.304852 l 0.13374,1.5 0.77492,-1.21962 0.77493,-1.21961 2.95976,0.88366 2.95976,0.88366 -2,0.11637 -2,0.11636 2,1.147 c 1.1,0.63085 2.59587,1.85466 3.32416,2.71959 l 1.32419,1.57259 -0.63318,-1.25 -0.63317,-1.25 1.5,0 c 0.825,0 1.79707,0.48068 2.16016,1.06817 l 0.66017,1.06818 1.36683,-0.5245 1.36682,-0.5245 0.68653,1.11083 0.68654,1.11084 -1.40451,-0.72867 -1.40451,-0.72866 1.75,1.4344 c 0.9625,0.78892 1.75,1.87754 1.75,2.41916 0,0.54163 0.82402,1.7305 1.83115,2.64194 l 1.83115,1.65717 0.75219,-0.75218 0.75218,-0.75218 -0.29579,1 c -0.16268,0.55 0.2724,2.0251 0.96684,3.27801 l 1.26263,2.27801 0.93837,-0.57995 0.93837,-0.57995 -0.48177,1.30194 -0.48177,1.30194 3.99322,4.29345 c 3.70017,3.97837 4.46058,5.37958 4.08687,7.53088 l -0.14319,0.82433 0.91999,-0.56859 0.91999,-0.56858 0.60803,1.5845 0.60803,1.58449 -0.65775,1.06427 -0.65776,1.06427 1.02963,-0.63635 1.02964,-0.63635 1.34948,4.73184 c 0.74221,2.60251 1.24841,5.06934 1.12487,5.48184 -0.12353,0.4125 0.12159,0.6375 0.54471,0.5 0.42313,-0.1375 1.77455,0.68477 3.00316,1.82727 l 2.23385,2.07727 -3.25316,-0.38097 -3.25316,-0.38097 1.65666,1.05115 c 0.91116,0.57814 3.61116,1.28293 6,1.5662 6.33931,0.75173 14.26216,2.32997 23.34334,4.65 4.4,1.1241 9.01915,2.2767 10.26478,2.56134 1.24563,0.28463 2.51478,0.92203 2.82034,1.41643 l 0.55556,0.89892 -5.98679,-0.40966 c -3.29273,-0.22532 -10.07438,-1.1996 -15.07034,-2.16507 L 956,158.7065 l 0,-0.88843 0,-0.88844 -2.06457,1.10493 -2.06456,1.10492 1.23232,1.48486 c 0.67778,0.81667 2.16933,1.93511 3.31457,2.48542 l 2.08224,1.00057 -1.75,-1.41541 c -0.9625,-0.77847 -1.75,-1.77304 -1.75,-2.21015 l 0,-0.79475 1.90031,1.71976 c 1.04516,0.94586 2.11923,2.55694 2.38681,3.58017 l 0.48651,1.86041 -1.52326,-0.58453 -1.52327,-0.58453 0.51145,1.40935 0.51145,1.40935 1.19933,-0.27478 1.19933,-0.27477 -0.60234,0.9746 -0.60234,0.9746 1.89653,1.01499 1.89652,1.01499 0.79181,-0.71481 0.79181,-0.71482 -0.64931,1.13669 -0.64932,1.1367 1.48899,1.23575 c 0.81894,0.67966 1.48899,1.85565 1.48899,2.6133 l 0,1.37756 1.00661,0 c 0.55364,0 1.97145,1.10965 3.15068,2.46589 l 2.14407,2.46589 1.00383,-0.6204 1.00383,-0.6204 -0.6156,0.99606 -0.6156,0.99606 3.61137,3.40845 3.61136,3.40845 -0.63882,-1.80194 -0.63882,-1.80194 0.98854,0.61096 0.98855,0.61095 0,1.94099 0,1.94098 1.05902,0 1.05901,0 -0.61803,-1 -0.61803,-1 2,0 2,0 0.61095,0.98855 0.61096,0.98854 -1.71599,-0.65848 -1.71598,-0.65849 0.72306,1.16994 c 0.39769,0.64347 1.37151,1.16994 2.16405,1.16994 l 1.44098,0 0,1 0,1 1.4433,0 1.44329,0 1.55671,2.22251 c 0.85618,1.22237 1.54981,2.68487 1.54139,3.25 l -0.0153,1.02749 -1.06081,-1.5 -1.06082,-1.5 0.40946,1.5 0.40947,1.5 1.37158,0 1.37158,0 0.69541,2.5 0.6954,2.5 0.16307,-1.5 0.16306,-1.5 0.99687,2.5 c 0.54828,1.375 0.85726,2.60128 0.68662,2.72507 -0.17064,0.1238 2.04372,1.43799 4.92072,2.92044 l 5.231,2.69535 -1.1034,1.32957 -1.1035,1.32957 1.2449,1.5 1.2449,1.5 1.9366,0 1.9365,0 -0.591,-0.95633 -0.591,-0.95632 -1.718,0.6035 -1.718,0.60351 1.2076,-1.3048 1.2076,-1.3048 1.5424,1.28007 1.5424,1.28006 0,1.87755 0,1.87756 -4.25,-0.0789 c -2.3375,-0.0434 -4.925,-0.33562 -5.75,-0.64933 z M 907.60417,105.27083 907,104.66667 l 0.0789,1.91666 0.079,1.91667 0.52521,-1.3125 0.52522,-1.3125 -0.60416,-0.60417 z m -17.30365,-2.68181 2.80052,-2.40854 -1.05052,-0.649257 L 891,98.881966 l 0,0.942386 0,0.942388 -2.09205,0.54708 -2.09204,0.54708 1.63522,-1.80689 1.63521,-1.806899 -1.61521,-0.619814 -1.61521,-0.619814 -4.55007,1.145722 -4.55008,1.145722 2.37212,1.413203 2.37211,1.41321 -2.17518,-0.44948 -2.17518,-0.44949 0.51032,1.32989 c 0.55619,1.4494 2.46113,2.14843 6.34004,2.32652 l 2.5,0.11478 2.80052,-2.40854 z M 975.87244,184.25 974.5,182.5 l 1.75,1.37244 c 1.66575,1.30637 2.19548,2.12756 1.37244,2.12756 -0.20765,0 -0.99515,-0.7875 -1.75,-1.75 z M 966.5,175 c -0.85325,-1.65 -1.32636,-3 -1.05136,-3 0.275,0 1.19811,1.35 2.05136,3 0.85325,1.65 1.32636,3 1.05136,3 -0.275,0 -1.19811,-1.35 -2.05136,-3 z M 861.55887,111.4682 859.61774,110 l 1.29812,0 1.29812,0 -0.57561,-1.5 -0.5756,-1.5 1.21861,0.002 1.21862,0.002 0.20974,2.99801 c 0.11536,1.64891 0.11536,2.9837 0,2.96621 -0.11536,-0.0175 -1.08325,-0.69249 -2.15087,-1.5 z m 3.52008,-2.88487 -0.0789,-1.91666 0.60417,0.60416 0.60416,0.60417 -0.52522,1.3125 -0.52521,1.3125 -0.079,-1.91667 z M 859.37817,93 l 0,-11.5 0.36082,5.75 c 0.19845,3.1625 0.19845,8.3375 0,11.5 l -0.36082,5.75 0,-11.5 z m 1.98233,1 0,-9.5 0.37454,4.75 c 0.206,2.6125 0.206,6.8875 0,9.5 l -0.37454,4.75 0,-9.5 z M 859.07895,65.583333 859,63.666667 l 0.60417,0.604166 0.60416,0.604167 -0.52522,1.3125 -0.52521,1.3125 -0.079,-1.916667 z M 861.36523,55.5 l -0.005,-10 0.37317,4.716478 c 0.20525,2.594063 0.20738,7.094063 0.005,10 L 861.36996,65.5 l -0.005,-10 z"
       id="path3820"
       inkscape:connector-curvature="0" />
    <path
       style="fill:#353944"
       d="m 1003.2186,221.6626 -2.2813,-1.26654 0.5369,-0.53697 0.537,-0.53697 -5.56329,-1.33462 -5.56331,-1.33461 -0.90977,-1.69992 -0.90977,-1.69991 -5.65458,-0.46893 -5.65457,-0.46892 -0.92765,-1.6576 C 976.31806,209.74592 975.44084,209 974.87888,209 c -0.56195,0 -1.64317,-0.62143 -2.40269,-1.38095 l -1.38095,-1.38095 0.6719,-0.67191 0.6719,-0.6719 -1.88357,0.7228 -1.88356,0.72279 0.72306,-1.16994 L 970.11803,204 968,204 l -2.11803,0 0.56039,-0.90674 0.5604,-0.90674 -2.15775,0.56426 -2.15775,0.56427 0.81088,-1.31203 0.81088,-1.31204 -1.03964,0.64254 -1.03964,0.64253 -3.11487,-1.08585 -3.11487,-1.08585 0,-1.46119 0,-1.46119 -1,0.61803 -1,0.61803 0,-1.52383 0,-1.52383 -2.25,-1.09035 -2.25,-1.09035 1.94113,1.55516 1.94113,1.55517 -1.00404,0 c -0.55222,0 -2.32573,-1.44531 -3.94113,-3.21181 l -2.93709,-3.2118 2,1.4618 2,1.46181 -1.36331,-1.73899 -1.3633,-1.73899 -0.94971,0.58695 -0.94971,0.58695 -1.9134,-1.73161 -1.91341,-1.7316 0.43243,-0.69969 0.43243,-0.69969 -1.70601,-0.17981 c -0.93831,-0.0989 -2.49351,-0.20186 -3.45601,-0.22881 l -1.75,-0.049 0,-0.85061 0,-0.85062 -2.91241,0.45901 -2.9124,0.459 -0.52505,-0.84955 -0.52505,-0.84955 -7.81255,0.77558 c -4.2969,0.42657 -9.74483,0.86177 -12.10653,0.96711 l -4.29398,0.19153 1.1721,0.72439 1.1721,0.7244 -0.78262,1.26632 -0.78263,1.26631 1.15451,-0.71353 1.15451,-0.71353 0.12762,1.80901 c 0.0702,0.99496 0.23824,2.91503 0.37343,4.26683 l 0.24581,2.45781 1.1328,0.3776 1.1328,0.3776 -0.56525,0.91459 -0.56524,0.91459 0.84621,0 0.84621,0 0.16803,2.23068 0.16803,2.23067 1.52923,1.1182 1.52923,1.1182 -0.65112,0.65113 -0.65112,0.65112 1.64098,0 1.64099,0 1.52345,2.94603 1.52345,2.94603 -0.24777,2.30397 L 918.5,216.5 l -1.84235,0.75194 -1.84236,0.75194 -1.15764,-0.73583 -1.15765,-0.73582 -5.25,0.32629 -5.25,0.32629 0,-1.50907 0,-1.50907 -2.75,-1.00439 -2.75,-1.00439 1.38976,-0.0789 c 0.76436,-0.0434 2.03523,-0.86645 2.82416,-1.82895 l 1.4344,-1.75 -0.72867,1.40451 -0.72867,1.40451 1.06063,-0.65551 1.06063,-0.6555 -0.49287,-2.24901 -0.49286,-2.249 1.07143,1.5 1.07143,1.5 0.0153,-1.12756 c 0.008,-0.62015 -0.74606,-1.74515 -1.67664,-2.5 l -1.69196,-1.37248 0.75098,1.25 0.75097,1.25 -1.30901,-0.0153 c -2.06318,-0.0241 -3.91921,-1.52972 -4.19402,-3.4021 l -0.25203,-1.7172 -2.43149,-1.26445 -2.43148,-1.26445 0.27478,-1.24257 0.27477,-1.24258 -0.84639,0.5231 -0.8464,0.52311 -1.70855,-1.99545 -1.70856,-1.99544 0.68468,-1.10784 0.68469,-1.10784 -1.09442,0.67639 -1.09442,0.67639 -2.81009,-3.50589 -2.81009,-3.50589 -0.532,-3.266 L 879.43601,178.5 878.218,178.75 877,179 l 0,-3.4349 c 0,-1.8892 -0.46672,-4.66247 -1.03716,-6.16284 l -1.03716,-2.72794 1.0964,-1.08716 1.09641,-1.08716 -0.63475,2 -0.63475,2 1.12104,-1.74258 1.12105,-1.74259 -0.29554,-1.75741 L 877.5,161.5 l 1.30485,0.26828 1.30485,0.26829 2.16766,-1.51829 2.16765,-1.51828 -1.0225,0 c -0.56238,0 -1.56251,0.54 -2.22251,1.2 l -1.2,1.2 0,-1.18095 0,-1.18095 2.25,-0.46445 c 1.2375,-0.25545 4.41559,-0.74581 7.06243,-1.08969 l 4.81243,-0.62523 1.62953,1.32064 1.62953,1.32063 -0.85601,-1.41994 -0.856,-1.41994 1.75429,0.67319 1.75428,0.67318 1.01652,-0.62825 1.01652,-0.62824 -1.14063,-0.70495 -1.14063,-0.70495 0.63866,-1.66431 0.63865,-1.6643 0.96904,0.5989 0.96904,0.5989 -1.27398,-2.03996 c -0.70068,-1.12198 -1.52141,-1.8913 -1.82382,-1.70961 -0.30242,0.1817 -1.13009,-0.29741 -1.83928,-1.06468 L 895.92115,147 l 0.73055,0 c 0.40181,0 -0.0913,-0.60096 -1.09581,-1.33548 l -1.82637,-1.33547 -2.61476,0.34933 -2.61476,0.34933 2,-0.99998 2,-0.99998 -5.65683,0.23613 -5.65683,0.23612 0.46585,-0.75 0.46584,-0.75 -1.5,0 c -0.825,0 -1.8043,0.49238 -2.17623,1.09417 l -0.67623,1.09417 -2.3479,-0.44883 -2.3479,-0.44883 -0.45875,1.10466 -0.45876,1.10466 -1.06082,-1.5 -1.06081,-1.5 -0.0153,0.97251 -0.0153,0.9725 -1.5567,-2.2225 -1.55671,-2.22251 -2.19329,0.116 -2.1933,0.116 2,0.48107 c 1.1,0.26458 2.41965,0.87953 2.93255,1.36654 l 0.93255,0.88549 -3.42595,-0.98255 C 863.05488,141.44215 861.34959,141 861.14961,141 c -0.19997,0 -0.10457,-0.675 0.21202,-1.5 l 0.5756,-1.5 -1.46862,0 -1.46861,0 0,-1.5 0,-1.5 -1.01905,0 -1.01905,0 0.66489,-2.64915 0.6649,-2.64916 -1.14585,0.70817 -1.14584,0.70817 0,-0.97956 0,-0.97956 -3.13314,-0.68815 -3.13314,-0.68816 1.18047,-0.72957 1.18048,-0.72957 -1.73929,-1.41173 -1.7393,-1.41173 0.84647,1.40451 0.84647,1.40451 -1.15451,-0.71353 -1.15451,-0.71352 0,-4.4096 0,-4.4096 1.42268,0.54593 1.42268,0.54594 2.12847,-2.12847 2.12847,-2.12847 -0.61854,-1.94885 -0.61854,-1.94885 0.92441,0 0.92441,0 -0.10702,4.21409 -0.10702,4.21409 2.73049,0.97209 2.73048,0.97209 0.57315,-0.57315 c 0.31523,-0.31523 0.64477,-1.52394 0.73231,-2.68603 l 0.15916,-2.11288 1.7872,0.56724 1.78721,0.56724 0.11842,-1.31739 c 0.0651,-0.72457 0.0397,-1.73106 -0.0564,-2.23666 l -0.17484,-0.91928 1.54368,1.28115 1.54369,1.28115 1.65418,-0.63477 1.65418,-0.63476 -1.37421,1.77289 -1.37421,1.77289 2.12409,-1.80663 2.12408,-1.80663 2.40098,-0.25599 c 1.32054,-0.14079 2.91738,-0.57514 3.54853,-0.96521 l 1.14755,-0.70922 -1.57377,-3.72816 c -2.0733,-4.91153 -3.97272,-13.276878 -3.51721,-15.490403 l 0.36264,-1.762243 0.67432,0.407283 c 0.37088,0.224005 1.25456,-0.220486 1.96375,-0.987757 C 879.49861,87.627768 879.76637,87 879.38444,87 c -0.38193,0 0.11047,-0.889388 1.09422,-1.976419 l 1.78863,-1.976418 0.81408,0.503128 0.81408,0.503129 -0.34904,-1.812424 -0.34904,-1.812425 1.84592,0 1.84592,0 -0.99317,1.196687 -0.99316,1.196687 1.20307,0.743536 1.20307,0.743536 -0.71353,-1.154509 L 885.88197,82 l 1.55901,0 1.55902,0 0,1.024751 0,1.024751 2.54837,0.968888 2.54837,0.968888 1.53667,3.677777 1.53667,3.677777 0.98047,-1.421416 0.98046,-1.421416 -0.67264,2.375229 -0.67264,2.37523 1.26164,-0.779738 1.26165,-0.779738 -0.64787,1.048274 -0.64787,1.048275 1.59768,3.823802 1.59769,3.823806 1.14568,-1.50397 1.14567,-1.50397 1.89515,0.38768 1.89515,0.38767 -1.39515,0.88341 -1.39515,0.88341 1.40499,0.0153 1.40498,0.0153 -1.76723,1.95278 -1.76724,1.95277 2.68547,0.67401 2.68546,0.67401 1.07084,-1.07083 1.07083,-1.07084 -2.39405,0.47226 -2.39405,0.47226 2.26306,-1.00082 2.26307,-1.00081 2.48693,1.13312 c 1.36782,0.62322 2.48694,1.42605 2.48694,1.78405 0,0.35801 0.92683,1.64576 2.05961,2.86166 l 2.05962,2.21074 0.96516,-0.59651 0.96516,-0.5965 -0.2441,0.82433 c -0.13426,0.45338 1.0222,2.71086 2.56991,5.01661 l 2.81402,4.19228 -0.7492,1.21223 -0.7492,1.21223 1.00181,-0.61916 1.00182,-0.61915 3.27572,3.69999 c 1.80164,2.035 3.35733,4.25606 3.45708,4.9357 0.0997,0.67964 0.56654,1.58624 1.0373,2.01466 l 0.85594,0.77894 -0.71934,-1.25 c -0.39564,-0.6875 -0.47934,-1.25 -0.18601,-1.25 0.29334,0 1.25245,1.39062 2.13137,3.09026 l 1.59804,3.09025 -0.5609,1.46168 -0.5609,1.46169 0.87485,-0.54069 0.87486,-0.5407 0.52007,1.98876 0.52007,1.98875 -1.02835,0 -1.02835,0 1.54155,2.25 1.54155,2.25 1.15475,-0.27478 1.15475,-0.27477 -0.63335,1.02477 -0.63334,1.02478 1.5,0 c 0.825,0 1.72779,0.36858 2.0062,0.81906 l 0.5062,0.81905 -3.19718,-0.37275 -3.19719,-0.37276 1.74496,1.10057 c 0.95973,0.60531 3.08459,1.27011 4.72192,1.47733 1.63732,0.20721 3.41744,0.64899 3.95582,0.98173 0.53838,0.33273 2.59496,0.66573 4.57019,0.73998 l 3.59131,0.13502 0.4589,0.7425 0.45889,0.74251 1.88615,-0.49324 1.88614,-0.49324 0.61386,0.99324 0.61385,0.99324 2.15538,-0.56364 2.15537,-0.56365 -0.56088,0.90753 -0.56088,0.90752 2.15451,0.0911 c 2.15914,0.0913 4.68706,0.58278 9.99953,1.94431 l 2.84502,0.72914 -1.33501,0.82509 -1.33501,0.82508 -5.51001,-0.58764 -5.51001,-0.58764 -0.33541,-0.87593 -0.33541,-0.87593 -0.7988,0.49368 -0.7988,0.49369 -5.86579,-1.08404 -5.86579,-1.08404 -0.71384,-1.15341 -0.71383,-1.15342 -1.61548,1.61503 -1.61548,1.61503 2.69502,2.11991 2.69503,2.11991 -0.4273,2.91137 -0.4273,2.91138 1.47564,-0.56625 1.47563,-0.56626 -0.73837,1.19472 -0.73838,1.19471 0.82433,-0.14319 c 0.45338,-0.0788 1.41715,-0.0899 2.14172,-0.0248 l 1.31739,0.11842 -0.63278,1.99371 -0.63278,1.99371 1.739,-0.66732 1.739,-0.66732 -0.66216,1.72555 -0.66215,1.72555 0.99622,-0.6157 0.99621,-0.6157 1.44471,1.44471 1.44471,1.44471 -0.6719,0.67191 -0.6719,0.6719 1.71952,-0.65985 1.71952,-0.65984 0,0.97736 c 0,0.53755 2.94062,3.91799 6.53472,7.51208 l 6.53472,6.53473 -1.23416,0.41138 -1.23416,0.41139 1.69944,0.65213 1.69944,0.65214 0,-1.03436 c 0,-0.56889 -0.46583,-1.90477 -1.03518,-2.96861 L 981.92963,190 l 1.03519,0 c 0.56935,0 1.04329,0.3375 1.05321,0.75 0.01,0.4125 1.92241,2.31157 4.25,4.22015 l 4.23197,3.47014 -1.5,-1.9121 -1.5,-1.91211 1.24462,0.74766 c 0.68454,0.4112 1.74194,1.67689 2.34977,2.81263 l 1.10515,2.06498 -1.2295,-0.75987 -1.2295,-0.75987 0.46306,1.38919 0.46307,1.3892 1.40297,0 1.40297,0 0.35353,2 0.35352,2 2.16017,1.83678 2.16017,1.83677 -1.40451,-0.74128 -1.40451,-0.74129 0.71353,1.15451 c 0.39244,0.63498 1.33164,1.15451 2.08709,1.15451 l 1.3736,0 0.6348,2 0.6348,2 0.9916,0 0.9916,0 -0.6797,-1.09977 -0.6796,-1.09977 2.3706,1.23523 c 2.8997,1.51084 3.9222,2.47896 1.835,1.73725 l -1.5357,-0.54571 0,1.88638 0,1.88639 1.0357,0.11848 c 0.5696,0.0652 1.7107,0.0783 2.5357,0.0291 l 1.5,-0.0894 -1.242,0.55158 -1.242,0.55157 1.0272,1.91933 1.0272,1.91933 -2.7852,-0.0354 -2.7852,-0.0354 -2.2814,-1.26653 z m -33.23866,-39.18677 c -0.69572,-0.83829 -1.47088,-1.31823 -1.72258,-1.06653 -0.69349,0.6935 0.71555,2.5907 1.9241,2.5907 l 1.06343,0 -1.26495,-1.52417 z m -54.6306,-33.9438 0.56331,-1.46798 -0.95632,-0.59104 C 914.43035,146.14793 914,146.09672 914,146.3592 c 0,0.26247 -0.27315,1.18903 -0.60699,2.05901 L 912.78602,150 l 1,0 c 0.55,0 1.25349,-0.66059 1.56332,-1.46797 z m -26.85942,-21.54834 -0.62812,-1.01631 -0.9309,0.57532 c -1.38704,0.85725 -1.12841,1.4573 0.62812,1.4573 l 1.55901,0 -0.62811,-1.01631 z M 893,124 c -0.825,-0.53316 -2.175,-0.94464 -3,-0.9144 l -1.5,0.055 2,0.85943 c 1.1,0.47269 2.45,0.88417 3,0.9144 l 1,0.055 L 893,124 z m -7.5,-2 0.61803,-1 -1,0 c -0.55,0 -1.27811,0.45 -1.61803,1 l -0.61803,1 1,0 c 0.55,0 1.27811,-0.45 1.61803,-1 z m -23.3125,-1.68311 -1.3125,-0.52522 -0.60417,0.60416 -0.60416,0.60417 1.91666,-0.079 1.91667,-0.0789 -1.3125,-0.52522 z m 36.3125,-0.28839 2,-0.83092 -3.74552,0.15121 -3.74551,0.15121 -0.004,0.75 -0.004,0.75 1.75,-0.0703 c 0.9625,-0.0387 2.65,-0.4442 3.75,-0.90121 z m -17.15492,-13.57163 c -0.32569,-0.84872 -0.80663,-1.32866 -1.06875,-1.06653 -0.26213,0.26213 -0.17998,0.95654 0.18255,1.54313 0.98605,1.59546 1.56238,1.28551 0.8862,-0.4766 z m 9.07103,-3.80016 2.91612,-2.33335 -1.16612,-0.720697 L 891,98.881966 l 0,0.942386 0,0.942388 -2.25,0.56689 -2.25,0.5669 1.99513,-1.48975 1.99513,-1.48975 -1.49513,-0.945202 c -1.90219,-1.202541 -2.66782,-1.19443 -7.24513,0.07675 l -3.75,1.041427 0.0153,1.202995 c 0.0362,2.84024 2.52653,4.48716 6.98469,4.61908 l 2.5,0.074 2.91611,-2.33336 z m -10.90903,-1.64526 -0.61096,-0.98854 1.55194,0.59553 c 1.73242,0.66479 2.04939,1.38156 0.61096,1.38156 -0.51754,0 -1.21592,-0.44485 -1.55194,-0.98855 z M 1012,221 l -1.5,-0.96937 1.309,-0.0153 1.309,-0.0153 -0.7193,-1.25 -0.7194,-1.25 0.856,0.77894 c 0.71,0.64618 1.6551,3.75589 1.1262,3.70575 -0.089,-0.008 -0.8365,-0.45156 -1.6615,-0.98472 z m -118,-7 -1.5,-0.96937 1.75,-0.0153 L 896,213 l 0,1 c 0,1.21961 -0.11279,1.21961 -2,0 z m -8.72917,-69.60417 0.60417,-0.60416 1.3125,0.52522 1.3125,0.52522 -1.91667,0.0789 -1.91666,0.079 0.60416,-0.60417 z m -23.55179,-32.85932 -1.77782,-1.29998 1.56724,-0.6014 1.56725,-0.60141 0.58568,1.52627 c 0.82368,2.14646 0.13272,2.49384 -1.94235,0.97652 z M 861.28601,98.5 l 0.0136,-5 0.41792,2.76375 c 0.22986,1.520062 0.22371,3.77006 -0.0136,5 l -0.43157,2.23625 0.0136,-5 z m -2.12811,1.5 0,-2.5 0.50438,1.25 c 0.27741,0.6875 0.27741,1.8125 0,2.5 l -0.50438,1.25 0,-2.5 z m 0.16217,-10 0,-6.5 0.40333,3.25 c 0.22182,1.7875 0.22182,4.7125 0,6.5 l -0.40333,3.25 0,-6.5 z m 1.87488,0.5 -0.037,-3 0.49804,1.230968 c 0.27392,0.677033 0.2906,2.027033 0.0371,3 L 861.232,93.5 l -0.0371,-3 z m -0.037,-30.5 0,-2.5 0.50438,1.25 c 0.27742,0.6875 0.27742,1.8125 0,2.5 l -0.50438,1.25 0,-2.5 z m 0,-5 0,-2.5 0.50438,1.25 c 0.27742,0.6875 0.27742,1.8125 0,2.5 l -0.50438,1.25 0,-2.5 z m -0.079,-6.416667 -0.0789,-1.916666 0.60417,0.604166 0.60416,0.604167 -0.52522,1.3125 -0.52521,1.3125 -0.079,-1.916667 z"
       id="path3818"
       inkscape:connector-curvature="0" />
    <path
       style="fill:#282a33"
       d="m 1002.7607,220.76074 -2.2497,-2.2497 -1.35583,0.31136 -1.35587,0.31136 0.72558,-1.17401 0.72558,-1.17402 -2.12523,0.67452 -2.12523,0.67453 0,-0.97377 0,-0.97377 -1.91438,0.50062 -1.91438,0.50062 -1.05044,-1.96276 c -0.57774,-1.07951 -0.87848,-2.1347 -0.66832,-2.34487 0.21016,-0.21016 -1.60567,-0.22401 -4.03519,-0.0308 L 981,213.20139 l 0,-1.06931 0,-1.06931 -1.42556,0.54704 -1.42556,0.54704 -1.72855,-2.63809 -1.72854,-2.6381 -0.83058,1.30967 -0.83058,1.30967 -0.0153,-1.69098 -0.0153,-1.69099 -1.15451,-0.71352 -1.15451,-0.71353 0.70645,1.14306 0.70645,1.14305 -1.5462,-0.59333 -1.54619,-0.59333 0.4855,-0.78557 0.48551,-0.78556 -3.67206,-0.68888 -3.67207,-0.68889 1.43082,-1.00751 1.43081,-1.00751 -2.25138,0.49348 -2.25138,0.49349 0.49564,-0.80195 0.49563,-0.80196 -1.5845,-0.60803 -1.58449,-0.60803 -1.15976,0.66357 -1.15976,0.66357 0.71802,-0.79501 0.71802,-0.79502 -3.58714,-2.8507 -3.58715,-2.85071 -1.03538,0.6399 -1.03539,0.63991 0.63093,-1.02086 0.63093,-1.02087 -1.80757,-1.63582 -1.80757,-1.63583 -0.6537,0.65369 -0.6537,0.6537 -2.76515,-2.82422 c -1.52083,-1.55333 -2.13312,-2.45198 -1.36064,-1.99701 l 1.40451,0.82722 -0.66751,-1.08005 -0.6675,-1.08004 -3.23701,0.40093 -3.237,0.40094 1.5,-1.05506 1.5,-1.05505 -4.25023,0.48453 -4.25022,0.48453 0.69218,-1.15488 0.69216,-1.15487 -1.88392,1.5 -1.88392,1.5 0.77575,-1.29008 0.77575,-1.29008 -2.33379,0.54388 c -1.28359,0.29914 -6.03642,0.65468 -10.56186,0.79009 l -8.22808,0.24619 -0.52517,1.34024 -0.52517,1.34024 0.6952,1.15976 0.69521,1.15976 -1.71485,-1.39144 -1.71485,-1.39145 0.62988,1.64145 c 0.34643,0.90279 0.97548,1.64144 1.39789,1.64144 l 0.76801,0 0,2.67201 0,2.67202 1.60946,1.17686 1.60945,1.17686 -0.65112,0.65113 -0.65112,0.65112 0.95386,0 0.95386,0 0.14558,1.93258 c 0.0801,1.06292 0.90005,3.08406 1.82219,4.49142 l 1.67661,2.55883 1.04512,-0.64592 1.04513,-0.64593 -0.71789,1.16157 -0.71789,1.16158 1.50024,0.57569 1.50023,0.5757 -0.60679,1.58128 -0.6068,1.58129 1.16994,-0.72306 1.16994,-0.72306 -0.0153,1.30901 c -0.008,0.71996 -0.38124,1.8857 -0.82849,2.59053 l -0.81319,1.28152 -6.6715,0.5524 -6.67151,0.55241 0,-1.01653 0,-1.01653 -1.98421,-0.62977 -1.9842,-0.62976 0.33385,-2.18762 0.33386,-2.18763 1.06702,0 c 0.58685,0 1.3706,-0.30359 1.74165,-0.67464 l 0.67464,-0.67464 -0.62365,-1.96497 -0.62366,-1.96496 -2.43276,-0.46506 -2.43277,-0.46505 -0.45594,1.10466 -0.45593,1.10466 -0.079,-2.12756 -0.0789,-2.12755 -1.34201,-1.11377 -1.34201,-1.11377 -0.53744,0.53744 -0.53744,0.53744 -3.09378,-3.90622 -3.09378,-3.90622 0.53976,-0.53976 0.53976,-0.53976 -1.22104,-0.75464 -1.22104,-0.75465 0.81576,1.40451 0.81576,1.40451 -2.66125,-2.42431 c -2.79797,-2.54886 -3.56769,-3.93025 -1.36412,-2.44813 0.71342,0.47984 0.46702,0.10798 -0.54756,-0.82636 -1.01458,-0.93434 -2.00112,-2.5111 -2.19232,-3.5039 -0.87566,-4.54697 -2.83951,-10.9032 -3.68939,-11.94117 l -0.93659,-1.14388 1.61206,-4.02895 1.61207,-4.02896 1.64428,-0.63096 1.64427,-0.63097 -1.47197,-1.01171 -1.47198,-1.01171 2.37523,0.67264 2.37523,0.67264 -0.59943,-0.9699 -0.59943,-0.96989 5.68285,-0.58652 5.68285,-0.58652 1.48331,1.19928 1.48331,1.19928 -0.81719,-1.35713 -0.81719,-1.35714 2.04107,0.64781 2.04108,0.64781 0.64317,-1.04067 0.64317,-1.04068 -1.13044,0 -1.13045,0 1.58062,-1.58062 1.58062,-1.58062 -0.66129,-1.16938 c -0.36372,-0.64316 -1.32799,-1.94627 -2.14284,-2.8958 l -1.48154,-1.72642 -1.11636,0.63675 -1.11635,0.63674 0.71609,-0.79308 0.71609,-0.79308 -2.21609,-1.73331 -2.21609,-1.73331 -5.5,-0.60966 c -3.025,-0.33531 -6.11498,-0.62059 -6.86663,-0.63394 L 878.76674,142 l 0.48208,-1.84348 0.48208,-1.84348 -1.86545,-1.165 -1.86545,-1.16499 0,1.56749 0,1.56749 1.16994,-0.72306 1.16994,-0.72306 -0.62627,1.63202 -0.62626,1.63202 0.97264,0.60112 0.97263,0.60113 -0.63759,1.03164 -0.63759,1.03165 -2.87872,-0.57575 L 872,143.05 l 0,0.92725 0,0.92725 -2.64602,-2.45225 -2.64603,-2.45225 -1.91299,0 -1.91299,0 0.61095,0.98855 0.61096,0.98854 -1.4888,-0.5713 -1.48879,-0.57131 0.54384,-1.41724 0.54385,-1.41724 -1.60699,0 -1.60699,0 0,-1.5 0,-1.5 -1.06739,0 -1.06739,0 0.59007,-1.85912 0.59006,-1.85913 -0.58726,-1.53036 -0.58726,-1.53037 -2.09178,0.54701 -2.09179,0.54702 0.7816,-1.26466 0.7816,-1.26466 -2.37523,0.67264 -2.37523,0.67264 1.39688,-0.9653 1.39689,-0.9653 -2.14689,-1.34075 -2.14688,-1.34075 0,-1.75946 0,-1.75945 1,0 1,0 0,-1.39301 0,-1.39301 1.56338,-0.59993 1.56338,-0.59992 -0.7237,-1.25707 -0.72371,-1.25706 0.85836,0.78136 0.85835,0.78137 1.22412,-2.28137 1.22411,-2.28136 -0.17214,3.45167 -0.17215,3.45167 2.80888,1.01208 2.80888,1.01208 0.93061,-1.46375 0.93062,-1.46375 -0.4832,-1.31539 -0.48321,-1.31539 1.99371,0.63278 1.99371,0.63278 0,-0.97891 0,-0.9789 1.25,0.18963 c 0.6875,0.1043 1.77622,0.51862 2.41938,0.92071 l 1.16938,0.73107 1.61726,-1.61726 1.61726,-1.61726 2.71336,-0.1295 2.71336,-0.12951 0.6508,-0.91093 0.6508,-0.91094 -1.94129,-4.52887 -1.9413,-4.52887 0.64743,-2.947724 0.64743,-2.947726 -1.21407,0.750334 -1.21407,0.750335 L 876.5,94 l 0.71427,-2.250459 -1.35714,0.699387 -1.35713,0.699387 1.57514,-1.324158 C 876.94147,91.095871 878.45572,89.2625 879.44015,87.75 880.42458,86.2375 881.62827,85 882.11501,85 L 883,85 l 0,1.872192 0,1.872192 4.03362,0.645001 4.03361,0.645001 1.94388,-1.040332 1.94388,-1.040332 -0.64743,1.687184 -0.64744,1.687184 1.02371,-0.632688 1.02371,-0.632688 1.15049,2.525031 1.15048,2.525031 0.88284,-0.545626 0.88284,-0.545626 -0.0602,1.239238 c -0.0331,0.681581 0.3013,2.713465 0.74312,4.515298 l 0.8033,3.27606 2.11979,-0.57784 2.11979,-0.57784 -2,1.68631 -2,1.68632 1.5,-0.5386 c 0.825,-0.29623 2.4,-0.84351 3.5,-1.21617 l 2,-0.67757 -1.94113,1.58164 c -1.06761,0.86989 -2.25697,1.58163 -2.643,1.58163 -0.38604,0 -0.95349,0.65567 -1.26101,1.45705 l -0.55912,1.45705 2.2374,-0.85065 2.23739,-0.85066 1.90587,1.39361 c 1.04823,0.76648 2.25574,1.3936 2.68336,1.3936 l 0.77748,0 -0.5476,-1.42704 -0.54761,-1.42703 2.32899,0.51378 2.32899,0.51378 -1.5,-1.07143 -1.5,-1.07143 0.85972,-0.0153 c 1.18066,-0.021 12.61173,11.93852 12.7587,13.34857 0.0651,0.62486 0.0651,1.47361 0,1.88611 -0.0651,0.4125 0.35814,0.75 0.9406,0.75 l 1.05901,0 -0.71352,1.15451 -0.71353,1.15451 1.06519,-0.65832 1.0652,-0.65833 3.05522,4.15447 3.05523,4.15446 -0.62995,1.01929 -0.62996,1.01929 1.61312,-0.61901 1.61311,-0.61901 -0.51724,1.34792 -0.51725,1.34792 1.22268,0.75566 1.22269,0.75566 L 937.5,135 l -0.80902,-1.30902 1.06063,0.65551 1.06063,0.6555 -0.49287,2.24901 -0.49286,2.249 L 939,138 l 1.17349,-1.5 -0.51095,2.31818 -0.51096,2.31819 1.08801,3.18181 c 1.0952,3.20284 2.6275,4.882 3.796,4.15983 l 0.63108,-0.39003 0,1.45601 0,1.45601 -1.39235,0 -1.39235,0 0.5466,0.88443 0.54661,0.88442 6.76241,1.28873 c 3.71933,0.7088 7.66241,1.39831 8.76241,1.53224 1.1,0.13393 2,0.31851 2,0.41018 0,0.2654 4.82838,1.04135 6.75,1.08476 l 1.75,0.0395 0,0.92606 0,0.92606 1.75,-0.14665 c 0.9625,-0.0807 2.56406,-0.0754 3.55902,0.0118 L 976.11803,159 975.5,160 l -0.61803,1 1.05901,0 C 976.52344,161 977,160.59213 977,160.09362 l 0,-0.90638 1.98875,0.52007 1.98876,0.52007 -0.61399,0.99344 -0.61398,0.99345 2.37523,-0.67264 2.37523,-0.67264 -1.5,1.04897 -1.5,1.04898 -3,-0.54152 c -1.65,-0.29783 -3.77448,-0.65237 -4.72106,-0.78786 -0.94658,-0.13549 -2.02588,-0.55117 -2.39845,-0.92374 l -0.67741,-0.6774 -2.50069,0.62763 -2.5007,0.62764 0.61889,-1.00139 0.6189,-1.00139 -2.46974,0.47212 -2.46974,0.47212 0,-1.07126 0,-1.07126 -3.39531,-0.63697 -3.3953,-0.63696 -2.59611,1.70103 -2.59611,1.70104 0.52344,0.84694 0.52344,0.84694 1.28107,-0.49159 1.28107,-0.49159 1.67896,1.85523 1.67896,1.85523 -1.99205,2.13822 C 953.89643,167.95417 953,169.20833 953,169.56518 l 0,0.6488 1.5,-0.57561 1.5,-0.5756 0.0153,1.21861 0.0153,1.21862 0.94304,-1.49164 0.94305,-1.49164 1.29164,1.38834 1.29164,1.38835 -1,-0.55095 -1,-0.55094 -0.0846,4.36104 -0.0846,4.36105 0.71607,-0.44256 0.71606,-0.44255 3.61855,2.45561 3.61855,2.45562 0,-0.91085 c 0,-0.50097 -0.45734,-1.1935 -1.01631,-1.53896 l -1.01631,-0.62812 0.57533,-0.9309 c 0.31643,-0.51199 1.11127,-0.92401 1.76631,-0.91559 L 968.5,178.03063 967,179 c -0.825,0.53316 -1.1625,1.03252 -0.75,1.10969 3.12394,0.58444 5.75,2.02411 5.75,3.15229 l 0,1.048 -2,-1.80998 -2,-1.80998 0,1.09598 c 0,0.60278 0.45734,1.37862 1.01631,1.72408 l 1.01631,0.62812 -0.64131,1.03766 -0.64131,1.03767 -0.85969,-1.35677 -0.85968,-1.35676 -0.0153,1.21482 -0.0153,1.21481 2.08565,1.11621 2.08564,1.1162 0.58102,-0.58102 0.58102,-0.58102 -1.16666,0 C 970.525,187 970,186.64159 970,186.20353 l 0,-0.79646 2.51335,0.0465 2.51335,0.0465 2.3699,2.97246 2.3699,2.97246 -0.54258,1.52754 -0.54258,1.52754 0.81045,-0.73446 0.81046,-0.73445 1.19717,1.63723 1.19717,1.63723 1.20604,-0.74537 1.20604,-0.74538 -1.61368,-2.6574 -1.61369,-2.6574 2.05935,2.36078 c 1.13264,1.29844 2.05935,2.00174 2.05935,1.56291 0,-0.43883 1.4196,0.52382 3.15466,2.13922 l 3.15466,2.93709 -0.80917,-1.40451 -0.80917,-1.40451 1.19519,0.73867 1.19518,0.73866 -0.56325,1.77466 -0.56326,1.77466 1.71454,1.39119 1.71454,1.39118 -0.85229,-1.5 -0.85228,-1.5 0.85594,0.77894 c 0.47076,0.42842 0.95825,1.47606 1.0833,2.3281 0.12505,0.85203 0.48385,2.21752 0.79732,3.03443 l 0.56996,1.48529 0.89416,-0.55262 0.89416,-0.55262 -0.13709,1.73924 -0.1371,1.73924 1.7392,-0.1371 1.7393,-0.13709 -0.4782,0.77379 -0.4783,0.77379 1.4763,1.22518 1.4762,1.22518 1.3082,-0.502 1.3082,-0.50201 0.1424,1.89013 0.1424,1.89013 -1.0486,0 -1.0487,0 2.1466,1.75 2.1465,1.75 -2.0305,1.25522 -2.0306,1.25521 -2.2497,-2.24969 z M 975.18333,191.78333 974,190.6 l 0,1.03333 c 0,0.56834 0.3,1.33334 0.66667,1.7 l 0.66666,0.66667 0.51667,-0.51667 0.51667,-0.51666 -1.18334,-1.18334 z m 1.60504,-2.19613 c -0.81776,-0.59796 -1.44218,-1.4997 -1.3876,-2.00387 0.0546,-0.50416 -0.46327,-1.10416 -1.15077,-1.33333 l -1.25,-0.41667 0,1.2281 c 0,0.67545 1.0125,2.17545 2.25,3.33333 l 2.25,2.10524 0.3876,-0.9128 0.3876,-0.9128 -1.48683,-1.0872 z M 949,159.44098 C 949,159.19844 948.55,159 948,159 c -0.55,0 -1,0.47656 -1,1.05902 l 0,1.05901 1,-0.61803 c 0.55,-0.33992 1,-0.81648 1,-1.05902 z m -33.2357,-12.58665 -1.23556,-0.76362 -0.81849,1.46257 -0.8185,1.46256 0.70677,1.14357 0.70677,1.14357 1.34728,-1.84252 1.34728,-1.84252 -1.23555,-0.76361 z M 881,134 l 0,-1 -1.5,0 -1.5,0 0,1 0,1 1.5,0 1.5,0 0,-1 z m 4.5,-2 c -0.33992,-0.55 -1.21472,-1 -1.94401,-1 l -1.32597,0 -1.63531,-2.4958 -1.63531,-2.49579 -1.9797,1.23634 c -1.08884,0.67999 -1.9797,1.6681 -1.9797,2.1958 l 0,0.95945 1.2,-1.2 c 0.66,-0.66 1.81156,-1.2 2.55902,-1.2 l 1.35901,0 -0.62954,1.01862 -0.62954,1.01862 3.32053,1.44224 c 4.04724,1.75788 4.08933,1.76448 3.32052,0.52052 z m 8.5,-4.70914 c 0,-0.20819 -0.5625,-0.28783 -1.25,-0.17698 -1.56461,0.25229 -4.86701,-1.12391 -6.45238,-2.68888 l -1.20238,-1.1869 0.52307,-0.52308 0.52307,-0.52307 2.67931,1.39787 c 1.47362,0.76882 3.35431,1.36884 4.17931,1.33338 l 1.5,-0.0645 -4.43306,-1.9661 -4.43307,-1.96611 -1.26108,0.48393 -1.26108,0.48392 0.19414,2.30282 0.19415,2.30282 2.29502,3.2176 2.29503,3.2176 2.95497,-2.6329 C 892.67026,128.85421 894,127.49906 894,127.29086 z M 862.72505,124 l -0.15066,-2 -1.29567,0 -1.29567,0 1.24902,2 c 0.68696,1.1 1.33781,2 1.44633,2 0.10852,0 0.12951,-0.9 0.0466,-2 z m 31.86411,-1.74417 -0.74417,-0.74417 4.32751,-1.17158 4.3275,-1.17159 -5.25,0.0743 -5.25,0.0743 0,0.6414 c 0,0.73841 2.17069,3.04141 2.86667,3.04141 0.25666,0 0.13179,-0.33488 -0.27751,-0.74417 z m -32.40166,-1.93894 -1.3125,-0.52522 -0.60417,0.60416 -0.60416,0.60417 1.91666,-0.079 1.91667,-0.0789 -1.3125,-0.52522 z m 37.2698,-4.24779 0.57532,-0.9309 -0.97032,-0.5997 -0.97032,-0.59969 -2.79599,0.71869 -2.79599,0.71869 2.5,0.71222 c 3.56869,1.01669 3.81768,1.01561 4.4573,-0.0193 z m 6.7302,-0.75221 -1.3125,-0.52522 -0.60417,0.60416 -0.60416,0.60417 1.91666,-0.079 1.91667,-0.0789 -1.3125,-0.52522 z M 920,114.5 c -0.68469,-0.825 -1.40067,-1.5 -1.59106,-1.5 -0.19039,0 -0.0872,0.675 0.22943,1.5 0.31659,0.825 1.03256,1.5 1.59106,1.5 l 1.01546,0 L 920,114.5 z m -41.61309,-1.68298 -0.52511,-0.84964 -0.9309,0.57532 c -1.30838,0.80863 -1.16106,1.12397 0.52511,1.12397 l 1.45601,0 -0.52511,-0.84965 z m 24.10601,-0.80557 0.61096,-0.98854 -1.55194,0.59553 C 899.81952,112.28323 899.50255,113 900.94098,113 c 0.51754,0 1.21592,-0.44485 1.55194,-0.98855 z m -21.14784,-5.55458 c -0.32569,-0.84872 -0.80663,-1.32866 -1.06875,-1.06653 -0.26213,0.26213 -0.17998,0.95654 0.18255,1.54313 0.98605,1.59546 1.56238,1.28551 0.8862,-0.4766 z m 9.02823,-3.76603 2.87332,-2.29922 -2.702,-1.770417 -2.70199,-1.770413 -3.69177,0.623721 c -2.03048,0.343047 -4.29323,0.995439 -5.02834,1.44976 l -1.33655,0.826037 0.65399,2.060572 0.654,2.06057 1.70302,0.44827 c 0.93665,0.24655 2.82801,0.49824 4.20301,0.55931 l 2.5,0.11104 2.87331,-2.29923 z m -10.86623,-1.67939 -0.61096,-0.98854 1.55194,0.59553 c 1.73242,0.66479 2.04939,1.38156 0.61096,1.38156 -0.51754,0 -1.21592,-0.44485 -1.55194,-0.98855 z m 8.76375,-0.61562 0.60417,-0.604163 1.3125,0.525223 1.3125,0.52522 -1.91667,0.0789 -1.91666,0.079 0.60416,-0.60417 z M 894,214 l -1.5,-0.96937 1.75,-0.0153 L 896,213 l 0,1 c 0,1.21961 -0.11279,1.21961 -2,0 z m 68,-38.5 c 0.68469,-0.825 1.46989,-1.5 1.74489,-1.5 0.275,0 -0.0602,0.675 -0.74489,1.5 -0.68469,0.825 -1.46989,1.5 -1.74489,1.5 -0.275,0 0.0602,-0.675 0.74489,-1.5 z m -5.72917,-17.10417 0.60417,-0.60416 1.3125,0.52522 1.3125,0.52522 -1.91667,0.0789 -1.91666,0.0789 0.60416,-0.60417 z M 866,142 l -1.5,-0.96937 1.19098,-0.0153 c 0.65504,-0.008 1.4691,0.43467 1.80902,0.98467 0.7673,1.24153 0.42112,1.24153 -1.5,0 z m -4.83385,-30.87615 -1.33384,-0.84552 1.48608,-0.57027 1.48608,-0.57026 0.59776,0.59777 c 1.79999,1.79998 0.0891,2.8622 -2.23608,1.38828 z m 0.0288,-12.62385 -0.037,-3 0.49804,1.230968 c 0.27392,0.677033 0.2906,2.027033 0.0371,3 L 861.232,101.5 l -0.0371,-3 z m -2.116,-3.916667 -0.0789,-1.916666 0.60417,0.604166 0.60416,0.604167 -0.52522,1.3125 -0.52521,1.3125 -0.079,-1.916667 z m 0.116,-5.083333 -0.037,-3 0.49804,1.230968 c 0.27392,0.677033 0.2906,2.027033 0.0371,3 L 859.232,92.5 l -0.0371,-3 z m 25.8257,-3.487236 -1.46273,-0.904018 0.61886,-0.618856 0.61885,-0.618856 3.64881,0.684522 c 4.07702,0.764852 4.12162,0.90848 0.54725,1.762159 l -2.50831,0.599067 -1.46273,-0.904018 z M 883,82.410184 c 0,-0.186899 0.9543,-0.850545 2.12068,-1.474768 l 2.12067,-1.134952 -0.6269,1.014358 -0.62691,1.014358 1.25623,0.440673 1.25623,0.440673 -2.75,0.01974 C 884.2375,82.741118 883,82.597083 883,82.410184 z"
       id="path3816"
       inkscape:connector-curvature="0" />
    <path
       style="fill:#181924"
       d="m 1000.5349,218.66807 -2.96514,-2.83192 -2.73207,0.40098 -2.73206,0.40098 0.3193,-0.56905 C 992.60055,215.75608 991.83265,214.6 990.71849,213.5 l -2.02576,-2 0.72779,1.5 0.72779,1.5 -1.4344,-1.75 c -0.78892,-0.9625 -1.74884,-1.75 -2.13317,-1.75 l -0.69877,0 0.5455,0.88265 0.54551,0.88264 -2.89974,-0.1185 -2.89974,-0.11851 0.52256,-0.84552 0.52256,-0.84551 -1.85931,0.27167 -1.85931,0.27167 -4.47032,-4.16357 -4.47033,-4.16358 -5.52967,-2.18258 C 958.32323,198.61851 953.70392,195.61801 948.5,190.78345 l -3,-2.78706 -1.30194,0.49035 -1.30194,0.49035 0.52836,-0.8549 0.52836,-0.8549 -1.72642,-1.45596 c -0.94953,-0.80078 -3.61798,-2.05103 -5.92989,-2.77835 l -4.20348,-1.32239 -5.77715,0.59625 -5.77714,0.59626 1.48062,-0.93624 1.48062,-0.93623 -1.19098,-0.0153 c -0.65504,-0.008 -1.45366,0.4097 -1.77469,0.92915 l -0.58371,0.94446 -5.47531,-0.27509 -5.47531,-0.27511 0,0.66003 0,0.66003 -2.25,-0.0794 -2.25,-0.0794 -0.75303,-1 -0.75302,-1 0.25302,2.5 c 0.13917,1.375 0.66269,2.79615 1.16338,3.15812 0.50069,0.36196 0.9942,1.48696 1.0967,2.5 0.10249,1.01303 0.77113,3.06527 1.48587,4.56052 l 1.29954,2.71865 1.00828,-0.62316 1.00828,-0.62315 -0.66722,1.07958 -0.66721,1.07957 1.15893,2.54358 1.15894,2.54358 1.10377,-0.62897 1.10377,-0.62897 -0.71482,0.79181 -0.71481,0.79181 1.01499,1.89652 1.01499,1.89653 0.73554,-0.45459 0.73554,-0.45459 0,1.92658 0,1.92658 -0.95238,0 -0.95238,0 0.6425,0.6425 0.6425,0.6425 1.44549,-1.19965 1.44549,-1.19965 -0.53796,2.05715 -0.53795,2.05715 1.18806,0 1.18806,0 -1.58382,1.58382 -1.58382,1.58381 -5.53346,0.25354 -5.53346,0.25354 1.14087,-0.7051 1.14087,-0.7051 -2.79286,-0.70096 -2.79287,-0.70097 1.44784,-1.01803 1.44785,-1.01804 -2.08333,0.44954 -2.08334,0.44954 0,-1.26745 0,-1.26746 1.15522,0.4433 1.15521,0.4433 1.10079,-2.41597 1.10079,-2.41597 -1.12267,-1.12267 C 903.1052,204.5052 901.99558,204 901.25684,204 l -1.34317,0 -4.58639,-4.97895 -4.58639,-4.97894 -0.89522,0.55327 -0.89522,0.55328 0.27477,-1.27888 0.27478,-1.27887 -1.5,-0.0455 -1.5,-0.0454 0,-1.16988 c 0,-0.64343 -1.0125,-2.33435 -2.25,-3.7576 l -2.25,-2.58773 0,-1.9924 0,-1.99239 -0.9608,0 -0.96079,0 -1.22744,-5.94268 -1.22744,-5.94268 -0.91154,0.56336 -0.91153,0.56335 1.13496,-2.12067 1.13495,-2.12068 2.46481,0 2.46482,0 0,-0.89301 c 0,-0.49116 -0.7875,-1.1983 -1.75,-1.57142 l -1.75,-0.67841 1.97131,-1.45065 1.9713,-1.45064 1.33063,0.51061 1.33064,0.51061 -0.61096,-0.98854 -0.61095,-0.98855 1.30901,-0.11515 c 0.71996,-0.0633 2.09652,-0.0351 3.05902,0.0628 l 1.75,0.17802 0,-1.06286 0,-1.06286 1.55902,0 1.55901,0 -0.61803,1 -0.61803,1 1,0 c 0.55,0 1.27811,-0.45 1.61803,-1 0.33992,-0.55 1.15398,-0.99311 1.80902,-0.98469 L 898.5,157.03063 897,158 c -1.95777,1.26521 -0.40333,1.28623 1.95071,0.0264 l 1.81923,-0.97362 0.64197,-2.55779 0.64196,-2.55779 -2.63819,-3.45884 -2.63819,-3.45885 -1.13875,0.65058 -1.13874,0.65058 0.74132,-0.81832 0.74133,-0.81831 -1.10808,-1.33516 -1.10809,-1.33515 -3.88324,0.62095 -3.88324,0.62094 0,-1.63629 0,-1.63628 -2.13065,1.25848 -2.13066,1.25847 -0.47606,-1.32015 -0.47606,-1.32015 -1.34417,1.91907 -1.34416,1.91907 -4.79912,-0.739 c -2.63952,-0.40646 -5.14777,-0.53002 -5.5739,-0.27459 l -0.77477,0.46441 0.27477,-1.26494 0.27478,-1.26494 -1.92928,-0.41724 c -1.0611,-0.22948 -2.58467,-1.07264 -3.38571,-1.87368 l -1.45644,-1.45643 1.13572,-1.13572 C 863.29064,134.30936 863.32735,133 861.94098,133 l -1.05901,0 0.61803,1 0.61803,1 -1.45202,0 -1.45203,0 -0.57561,-1.5 -0.5756,-1.5 0.5756,-1.5 0.57561,-1.5 -1.07561,0 -1.0756,0 0.56295,-1.75 0.56294,-1.75 -0.84433,1.07294 c -0.46438,0.59012 -1.6552,1.37246 -2.64627,1.73855 l -1.80194,0.6656 0.57995,-0.93837 0.57995,-0.93837 -2.02801,-1.08536 -2.02801,-1.08536 0,-3.58726 0,-3.58726 1.51161,1.25453 1.51162,1.25453 -0.26162,-2.27185 -0.26161,-2.27185 1.25,-0.44357 1.25,-0.44357 0,1.56429 0,1.56428 2.49776,0.62689 2.49777,0.6269 1.61569,-0.62 1.61569,-0.61999 -0.53478,-2.045 -0.53478,-2.045 1.40949,1.16977 1.40949,1.16978 0.55487,-1.44596 0.55487,-1.44596 1.41297,0 1.41298,0 -0.45026,0.72855 -0.45027,0.72855 1.60559,0.61613 1.6056,0.61612 -0.56041,-1.46041 -0.56042,-1.46042 1.49221,0.57262 1.4922,0.57261 -0.53446,0.53445 -0.53445,0.53445 1.10575,1.33234 1.10574,1.33235 2.63558,-0.62822 c 1.44957,-0.34553 3.17133,-1.04908 3.82614,-1.56345 l 1.19056,-0.93523 -0.52332,-1.36374 -0.52332,-1.36375 -1.50109,0.57603 -1.50108,0.57602 1.33384,0.84552 1.33385,0.84552 -1,0.14294 c -0.55,0.0786 -2.00074,0.2485 -3.22386,0.37752 l -2.22386,0.23459 0.54296,-0.87852 0.54296,-0.87852 0.9309,0.57532 0.9309,0.57533 0.11842,-1.30901 c 0.0651,-0.71996 0.0705,-1.63033 0.012,-2.02303 l -0.10642,-0.71401 1.32779,0.50952 1.32779,0.50952 1.22108,-1.47132 1.22109,-1.47132 -0.31088,-1.82419 L 881.5,105.5 l -1.5,-0.76537 -1.5,-0.76537 3,0.58931 3,0.58931 0.33929,0.94392 c 0.1866,0.51915 0.89776,1.5024 1.58035,2.18499 l 1.24107,1.24107 -0.35813,1.0744 -0.35814,1.07441 3.02778,0 3.02778,0 0,-0.86472 c 0,-0.4756 -0.5625,-1.03243 -1.25,-1.2374 -0.6875,-0.20497 -2.13739,-0.66506 -3.22198,-1.02241 l -1.97197,-0.64973 1.47197,-1.04054 1.47198,-1.04053 -2,0.59206 -2,0.59207 3.89063,-3.36568 3.89064,-3.36567 -0.65975,-1.067495 -0.65975,-1.067491 2.45851,-2.458506 c 2.58644,-2.586442 3.85278,-2.545797 2.84088,0.09118 l -0.60104,1.566279 1.09794,-0.678566 1.09795,-0.678566 0.71967,2.264521 c 0.39581,1.24549 0.76926,3.164524 0.82988,4.264524 l 0.11021,2 2.6674,-0.0336 2.6674,-0.0336 -0.4843,0.78362 C 905.0999,105.64737 904.28167,106 903.54797,106 l -1.33399,0 -0.61024,1.59024 -0.61023,1.59024 0.56226,0.90976 0.56226,0.90976 -1.45202,0 -1.45203,0 -0.54584,1.42244 -0.54584,1.42243 -2.23282,0.32757 -2.23282,0.32756 -0.42208,1.28125 -0.42208,1.28125 0.84375,-0.14967 c 0.46406,-0.0823 1.51875,-0.0522 2.34375,0.0669 l 1.5,0.2166 -4.5,1.25092 -4.5,1.25091 2.75,1.31143 c 1.5125,0.72128 2.75,1.67805 2.75,2.12615 l 0,0.81474 -2.56732,-0.97609 c -1.41202,-0.53685 -3.34877,-1.39432 -4.30388,-1.90548 l -1.73656,-0.92938 -1.37577,0.85027 -1.37576,0.85027 -0.19541,2.32995 -0.19542,2.32996 1.01756,1.27417 1.01756,1.27416 -0.68675,0.68676 -0.68676,0.68675 -2.20661,-2.76735 -2.20661,-2.76736 -2.25665,2.10239 -2.25665,2.1024 0.60779,2.70404 c 0.33429,1.48722 1.03002,4.39154 1.54606,6.45404 l 0.93827,3.75 0.85446,0 c 0.46996,0 1.11349,-0.675 1.43008,-1.5 l 0.5756,-1.5 2.0904,0 2.0904,0 -0.61803,-1 -0.61803,-1 -2.5,0 -2.5,0 0.67712,-1.09562 0.67713,-1.09561 3.38189,0.39481 3.38189,0.39482 0,-1.35822 0,-1.35821 1,0.61803 1,0.61803 0.0902,2.69099 0.0902,2.69098 0.98642,-3.5 0.98642,-3.5 3.03581,-3.16359 3.03581,-3.1636 -0.61336,-0.99244 -0.61336,-0.99244 5.00094,-0.6878 5.00094,-0.68781 0,-1.20616 c 0,-0.66339 -0.47812,-1.68428 -1.0625,-2.26866 l -1.0625,-1.0625 3.24622,-0.64924 3.24623,-0.64925 0.56627,0.87696 c 0.31146,0.48233 1.6232,1.20704 2.915,1.61047 1.2918,0.40343 3.2418,1.62658 4.33333,2.71811 l 1.98462,1.98462 0.61851,-0.61851 0.61851,-0.61851 -2.6582,-2.46483 c -1.46201,-1.35565 -3.24034,-2.4665 -3.95185,-2.46856 -0.7115,-0.002 -2.83005,-0.94038 -4.70788,-2.08518 l -3.41424,-2.08144 -2.35963,0.45107 -2.35962,0.45107 -0.46739,-0.75624 -0.46738,-0.75624 3.47724,-0.65233 3.47723,-0.65234 2.09966,1.12371 2.09966,1.1237 0.55748,-0.55748 0.55749,-0.55748 -1.63739,-0.62833 -1.63738,-0.62832 0.551,-0.89155 0.55101,-0.89155 3.09562,1.60081 c 4.2437,2.1945 12.52391,8.59765 13.22029,10.22335 l 0.57036,1.33149 -3.55248,-2.19556 c -4.38563,-2.71047 -5.66622,-1.97156 -1.60049,0.92349 l 2.96194,2.10909 2.48864,0 2.48864,0 0.58581,1.25 c 0.3222,0.6875 1.72526,3.05 3.11791,5.25 1.39265,2.2 3.48855,6.00362 4.65754,8.45249 l 2.12545,4.45248 0.0491,4.04752 0.0491,4.04751 0.3879,-1.75 c 0.47567,-2.14599 1.596,-2.2324 3.24125,-0.25 l 1.24489,1.5 -1.82244,0 -1.82245,0 0.95,0.82612 c 1.15138,1.00124 7.49397,2.84089 12.95,3.75611 7.97679,1.33807 10.02977,1.64482 11.67658,1.74468 l 1.67658,0.10166 -0.52773,0.85389 -0.52773,0.85389 -1.64885,-0.57063 -1.64885,-0.57063 2,1.63699 2,1.63699 -2,-0.75365 c -1.1,-0.4145 -2.54271,-0.77504 -3.20601,-0.8012 l -1.20601,-0.0476 0.60057,-0.97175 0.60057,-0.97174 -3.89456,0.61482 -3.89456,0.61482 2,-0.90612 2,-0.90613 -3.19098,-0.0703 -3.19099,-0.0703 -0.68029,1.10074 -0.6803,1.10075 -2.87872,-0.57575 L 946,158.05 l 0,1.64626 0,1.64626 -1.74285,2.07874 -1.74284,2.07874 2.69481,-2.37919 2.69482,-2.37919 2.04941,0.53593 2.04941,0.53593 -0.68194,-1.10341 -0.68195,-1.1034 3.24668,2.31184 3.24668,2.31183 -2.21147,2.35401 -2.21148,2.35401 -1.00048,-0.61833 -1.00049,-0.61834 0.64413,2.5664 0.64412,2.56639 -1.23935,0.41312 -1.23935,0.41311 -1.33036,-1.33035 C 947.4558,171.59866 946.38304,171 945.80357,171 l -1.05357,0 0.57886,2.89432 0.57887,2.89431 -1.95387,-0.51095 -1.95386,-0.51094 0,2.11663 0,2.11663 3.59362,0 3.59362,0 0.52301,-2 0.52301,-2 0.88337,0 c 1.2516,0 1.09455,1.38882 -0.31663,2.8 l -1.2,1.2 6.2,0 6.2,0 0,3.32569 0,3.32568 2.31445,2.17432 c 1.27295,1.19587 2.84795,2.17431 3.5,2.17431 l 1.18555,0 0,2.48095 0,2.48095 2.71355,0.68105 2.71355,0.68106 -1.96355,0.76771 -1.96355,0.76771 5.75,0.0703 5.75,0.0703 0,-1.39301 0,-1.39301 1.54312,-0.59215 1.54313,-0.59216 -1.09829,-2.26483 -1.09829,-2.26484 1.40404,1.73446 1.40404,1.73445 0.5267,-0.52669 0.52669,-0.52669 2.62443,3.11896 2.62443,3.11896 0,1.42328 0,1.42327 1.25,0.11842 c 0.6875,0.0651 1.49408,0.0963 1.79241,0.0692 0.29832,-0.0271 0.60557,0.7893 0.68277,1.81416 0.0772,1.02486 0.83279,2.92015 1.67908,4.21175 l 1.53871,2.34838 4.00163,2.46904 c 3.9897,2.4617 5.0912,3.96905 2.9004,3.96905 l -1.155,0 1.905,2.15699 1.905,2.15699 -2.202,-0.55083 -2.2021,-0.55083 -0.2979,0.64384 c -0.1639,0.35411 -1.6323,-0.63053 -3.2631,-2.18809 z M 907.5,211 c -0.33992,-0.55 -1.06803,-1 -1.61803,-1 l -1,0 0.61803,1 c 0.33992,0.55 1.06803,1 1.61803,1 l 1,0 L 907.5,211 z M 902,183.10699 c 0,-0.49116 -0.73865,-1.17646 -1.64144,-1.52289 l -1.64145,-0.62988 1.26389,1.52289 c 1.44013,1.73524 2.019,1.91584 2.019,0.62988 z M 897,180 c -0.825,-0.53316 -1.95,-0.96937 -2.5,-0.96937 l -1,0 L 895,180 c 0.825,0.53316 1.95,0.96937 2.5,0.96937 l 1,0 L 897,180 z m 52.78943,-9.39504 -1.28943,-1.39504 -0.85676,0.52004 -0.85677,0.52004 1.35677,0.85969 c 0.74622,0.47283 1.712,0.86658 2.14619,0.875 l 0.78942,0.0153 -1.28942,-1.39504 z M 953,167 l 0,-1 -1.75,0.0153 -1.75,0.0153 L 951,167 c 1.88721,1.21961 2,1.21961 2,0 z m -15.5,-4 0.61803,-1 -0.80901,0.0153 C 936.86406,162.02373 935.825,162.46684 935,163 l -1.5,0.96937 1.69098,0.0153 1.69099,0.0153 0.61803,-1 z m -21.53248,-13.93931 1.03789,-1.93931 -1.00271,-0.61971 -1.0027,-0.6197 -1,0.61803 -1,0.61803 0,1.94099 0,1.94098 0.96482,0 c 0.53064,0 1.43186,-0.87269 2.0027,-1.93931 z M 865.82379,131.22379 867,132.4 l 0,-1.81663 0,-1.81663 -2.25,0.60297 c -1.2375,0.33164 -2.61406,0.60913 -3.05902,0.61664 l -0.80901,0.0137 0.64804,1.04856 0.64804,1.04856 1.23477,-1.02477 1.23477,-1.02476 1.1762,1.1762 z m 6.05849,-1.29654 -1.28679,-0.79528 -0.79774,0.49303 C 869.35899,129.89617 869,130.49935 869,130.9654 l 0,0.84736 2.08453,-0.54512 2.08454,-0.54512 -1.28679,-0.79527 z M 932.5,131 c -0.33992,-0.55 -0.81648,-1 -1.05902,-1 -0.24254,0 -0.44098,0.45 -0.44098,1 0,0.55 0.47656,1 1.05902,1 l 1.05901,0 -0.61803,-1 z m -15.76903,-2.69299 c -0.97297,-0.25354 -2.32297,-0.23687 -3,0.037 l -1.23097,0.4981 3,-0.0371 3,-0.037 -1.76903,-0.46099 z m -54.0678,-3.7424 -0.55082,-1.43539 1.19383,-0.48566 1.19382,-0.48567 -2.28518,-0.0789 L 859.92963,122 861,124 c 0.5887,1.1 1.32768,2 1.64217,2 l 0.57181,0 -0.55081,-1.43539 z m -0.47567,-4.24772 -1.3125,-0.52522 -0.60417,0.60416 -0.60416,0.60417 1.91666,-0.079 1.91667,-0.0789 -1.3125,-0.52522 z m 27.41667,-7.04606 -0.60417,-0.60416 -0.60014,0.60013 -0.60013,0.60014 0.78322,1.26728 0.78322,1.26727 0.42108,-1.26324 c 0.2316,-0.69479 0.14921,-1.53512 -0.18308,-1.86742 z m 2.37577,-7.795 -1.26494,-1.52416 -0.57854,0.57854 -0.57854,0.57854 1.47104,0.93031 c 2.11697,1.33881 2.39358,1.17499 0.95098,-0.56323 z m 5.41705,-5.30916 0.51503,-0.833337 -1.41202,0 -1.41202,0 0.51503,0.833337 C 895.88627,100.625 896.28992,101 896.5,101 c 0.21008,0 0.61373,-0.375 0.89699,-0.83333 z M 890.87244,197.25 889.5,195.5 l 1.75,1.37244 c 0.9625,0.75485 1.75,1.54235 1.75,1.75 0,0.82304 -0.82119,0.29331 -2.12756,-1.37244 z M 966,187.55902 c 0,-0.24254 0.45,-0.7191 1,-1.05902 l 1,-0.61803 0,1.05901 c 0,0.58246 -0.45,1.05902 -1,1.05902 -0.55,0 -1,-0.19844 -1,-0.44098 z M 979,162 l -1.5,-0.96937 1.19098,-0.0153 c 0.65504,-0.008 1.4691,0.43469 1.80902,0.98469 0.7673,1.24153 0.42112,1.24153 -1.5,0 z m -5.59597,-1.38949 -0.5332,-1.38949 -2.18541,0.45829 -2.18542,0.4583 1.66188,-1.06918 1.66188,-1.06918 2.33812,0.93699 2.33812,0.93699 -1.5,0.13367 -1.5,0.13367 2,0.85943 2,0.85943 -1.78138,0.0703 -1.78139,0.0703 -0.5332,-1.38949 z m -92.9629,-28.16229 -1.94113,-1.55178 2.5,0.66418 c 1.375,0.36529 2.9275,1.06359 3.45,1.55177 L 885.4,134 l -1.50887,0 c -0.82988,0 -2.38238,-0.6983 -3.45,-1.55178 z M 877,130.11803 c 0,-0.55 0.45,-1.27811 1,-1.61803 l 1,-0.61803 0,1 c 0,0.55 -0.45,1.27811 -1,1.61803 l -1,0.61803 0,-1 z m 12.44113,-4.66981 -1.94113,-1.55178 2.5,0.66418 c 1.375,0.36529 2.9275,1.06359 3.45,1.55177 L 894.4,127 l -1.50887,0 c -0.82988,0 -2.38238,-0.6983 -3.45,-1.55178 z m 30.55153,-10.9558 c -1.85385,-1.91268 -4.18559,-3.73627 -5.18165,-4.0524 C 913.81496,110.12388 913,109.44555 913,108.93261 L 913,108 l 1.5,0 1.5,0 0,0.83102 c 0,0.45706 1.0125,1.38476 2.25,2.06155 2.37402,1.29836 6.23809,5.95267 5.52992,6.66084 -0.22914,0.22915 -1.93341,-1.1483 -3.78726,-3.06099 z m -46.72183,-2.09659 0.60417,-0.60416 1.3125,0.52522 1.3125,0.52522 -1.91667,0.0789 -1.91666,0.079 0.60416,-0.60417 z M 861.5,111 l -0.61803,-1 1.05901,0 c 0.58246,0 1.05902,0.45 1.05902,1 0,0.55 -0.19844,1 -0.44098,1 -0.24254,0 -0.7191,-0.45 -1.05902,-1 z m 26.77083,-10.60417 0.60417,-0.604163 1.3125,0.525223 1.3125,0.52522 -1.91667,0.0789 -1.91666,0.079 0.60416,-0.60417 z M 878,97.188776 c 0,-1.11386 -0.27315,-2.737005 -0.60699,-3.606989 L 876.78602,92 l 2.29812,0 2.29812,0 -1.83143,-1.339173 -1.83143,-1.339174 1.58902,-0.609764 1.58902,-0.609763 3.0314,1.512261 c 1.66727,0.831744 3.2919,1.933765 3.6103,2.448937 L 888.11803,93 886.05902,93 884,93 l 0,1.5 0,1.5 1.05902,0 1.05901,0 -0.67,-1.084096 -0.67001,-1.084095 2.36099,0.357836 2.36099,0.357837 -0.27478,1.300589 -0.27477,1.300589 1.07333,-0.663358 1.07334,-0.663357 -1.17101,-1.410973 -1.171,-1.410972 2.42244,0 2.42245,0 1.14405,-1.14405 1.14405,-1.144051 -0.56896,2.175718 -0.56896,2.175718 -1.94684,1.041916 -1.94684,1.041916 -4.67825,0.283428 C 883.60521,97.586481 880.7125,98.051513 879.75,98.464 l -1.75,0.749978 0,-2.025202 z m 10.75,-6.851057 c 0.6875,-0.277412 1.8125,-0.277412 2.5,0 l 1.25,0.504386 -2.5,0 -2.5,0 1.25,-0.504386 z"
       id="path3814"
       inkscape:connector-curvature="0" />
    <path
       style="fill:#09090f"
       d="m 1001.157,218.11007 -4.34309,-2.88137 1.34305,-0.5354 1.34304,-0.53541 -1.75,-0.0789 L 996,214 l 0,1 0,1 -1.32569,0 -1.32568,0 -2.33592,-2.48647 -2.33592,-2.48647 -3.61423,0.14162 -3.61424,0.14162 -2.25217,-1.20532 -2.25217,-1.20533 0.68252,-1.10433 0.68252,-1.10434 -1.14495,0.70762 -1.14495,0.70762 -4.65336,-3.55311 L 966.7124,201 l -1.8562,0 -1.8562,0 0,-1.06739 0,-1.06739 1.91584,0.60807 1.91585,0.60806 0.56029,-0.90656 0.56029,-0.90657 2.52386,0.48247 2.52387,0.48246 0,0.85843 0,0.85842 -2.75,-0.34008 -2.75,-0.34009 1.75,0.43464 1.75,0.43463 0,1.08544 0,1.08544 1.75,-1.48038 1.75,-1.48038 3.5,-0.17878 c 1.925,-0.0983 4.48214,-0.68669 5.68254,-1.30748 l 2.18254,-1.12871 1.81746,0.79651 c 0.9996,0.43808 2.26746,0.84623 2.81746,0.907 l 1,0.11049 -0.1371,1.71511 -0.13709,1.71512 0.84316,-0.52111 0.84317,-0.5211 1.63012,2.48789 1.63013,2.48789 -0.66052,1.06875 -0.66053,1.06875 0.84371,-0.27477 c 0.46404,-0.15113 2.07571,0.69252 3.58149,1.87477 l 2.73776,2.14956 -0.637,1.6601 -0.6371,1.6601 2.1299,0.55698 2.1299,0.55697 0,1.31005 0,1.31004 1.75,0.45732 1.75,0.45733 -1.5,0.11172 -1.5,0.11172 -4.343,-2.88137 z M 987.25,200.33772 c -0.6875,-0.27741 -1.8125,-0.27741 -2.5,0 l -1.25,0.50439 2.5,0 2.5,0 -1.25,-0.50439 z M 908,215 l -3.5,-0.73672 1.64159,-0.13164 1.64159,-0.13164 0.58443,-2.32856 0.58444,-2.32856 2.48826,-1.13373 2.48827,-1.13373 0.59473,0.96229 0.59472,0.96229 -0.61803,1 -0.61803,1 1.55901,0 1.55902,0 0,2.5 0,2.5 -2.75,-0.13164 C 912.7375,215.79596 909.925,215.40519 908,215 z m 94,-0.21811 c 0,-0.95961 0.8953,-0.9026 3.5,0.22286 l 2,0.86418 -2.75,-0.15257 -2.75,-0.15258 0,-0.78189 z m -97.52671,-6.69773 0.60807,-1.91585 -1.057,-0.65325 -1.05698,-0.65326 0.51056,-0.82611 0.51057,-0.82612 -1.49425,-0.5734 -1.49426,-0.5734 -1.5,0.5756 -1.5,0.57561 -0.11848,-1.35699 c -0.0652,-0.74635 -0.0464,-2.03199 0.0417,-2.85699 l 0.16018,-1.5 -0.84406,1.23923 -0.84406,1.23923 -4.36329,-4.44587 -4.36329,-4.44587 -1.08435,0.61697 -1.08435,0.61696 0.70676,-0.78375 0.70675,-0.78374 -2.45675,-3.22097 -2.45676,-3.22097 0,-2.03317 0,-2.03316 -1.5,-1.24489 -1.5,-1.24489 0,-4.87755 0,-4.87756 0.7566,0 c 0.41613,0 2.21613,0.41859 4,0.93019 l 3.2434,0.9302 0,-1.9302 0,-1.93019 -1,0 c -0.55,0 -1,-0.4645 -1,-1.03222 l 0,-1.03223 2.25,-0.90439 2.25,-0.90439 -1.75,-0.0634 L 886,162 l 0,-0.86916 0,-0.86916 3.75,-0.61983 c 2.0625,-0.34091 4.33906,-0.62479 5.05902,-0.63084 l 1.30901,-0.011 -0.67969,1.09977 -0.67969,1.09977 2.0427,-1.09322 c 1.12348,-0.60127 2.75279,-1.80331 3.62067,-2.6712 L 902,155.85714 l 0,-2.26744 0,-2.26745 -3.25,-3.80976 c -1.7875,-2.09537 -3.31059,-4.30538 -3.38465,-4.91113 -0.0741,-0.60575 -0.18656,-1.69418 -0.25,-2.41875 L 895,138.86522 l -1.88158,0.59719 -1.88157,0.59719 -0.62167,-1.62004 -0.62167,-1.62004 0.6044,-0.97794 0.60439,-0.97793 1.39885,0.53679 1.39885,0.53679 0.11842,-1.71861 c 0.0651,-0.94524 0.0684,-2.04626 0.007,-2.44672 -0.0611,-0.40045 1.2103,-1.41143 2.82538,-2.24661 l 2.93649,-1.51852 2.58375,0.98233 2.58374,0.98234 -1.06272,-1.98572 c -1.27819,-2.38831 -1.21799,-2.39577 3.48384,-0.43122 l 3.72045,1.55451 3.65167,-0.3864 3.65168,-0.3864 -4.32537,-0.16811 -4.32536,-0.1681 0.30156,-2.87498 0.30157,-2.87498 -1.34864,-1.62502 -1.34865,-1.62502 1.37245,0.017 c 0.75484,0.009 3.62244,1.35171 6.37244,2.98295 2.75,1.63124 5.32338,2.97357 5.71861,2.98295 l 0.71862,0.017 -0.64469,-1.68003 -0.64469,-1.68003 2.27772,1.59538 2.27773,1.59537 2.39835,-0.4349 2.39835,-0.4349 0,1.01955 C 930,125.5412 929.55,126 929,126 c -0.55,0 -1,0.46973 -1,1.04384 l 0,1.04383 1.64626,-0.29383 1.64625,-0.29384 0.39338,1.1189 0.39338,1.11891 -2.53964,-0.48548 -2.53963,-0.48548 0,1.11657 0,1.11658 2.25,0.15753 c 1.2375,0.0867 2.8425,0.13165 3.56667,0.1 0.72416,-0.0316 1.10889,0.15024 0.85494,0.40419 -0.25394,0.25394 0.61606,1.62465 1.93334,3.04602 1.31728,1.42137 2.39505,2.87058 2.39505,3.22047 l 0,0.63617 -3.25,-0.11604 C 930.74702,138.30542 927,137.06529 927,135.88337 927,135.39752 927.4875,135 928.08333,135 l 1.08334,0 -0.35227,-1.0568 c -0.19375,-0.58125 -2.229,-1.89705 -4.52279,-2.924 l -4.17051,-1.8672 0.55079,1.43534 0.55079,1.43534 -1.61134,-0.61833 -1.61134,-0.61833 0,0.57181 c 0,0.31449 0.9543,1.08253 2.12068,1.70675 l 2.12067,1.13496 -0.67969,-1.09977 -0.67969,-1.09977 0.62475,0 c 0.34362,0 1.49518,0.46583 2.55902,1.03518 l 1.93426,1.03519 -0.0153,1.21481 -0.0153,1.21482 -0.93031,-1.47104 -0.93032,-1.47104 -0.66715,0.66715 -0.66715,0.66716 3.36278,1.99459 c 1.84953,1.09702 3.83569,2.35877 4.4137,2.80388 0.57801,0.44512 2.07984,1.40018 3.3374,2.12236 l 2.28648,1.31305 -0.65479,-2.06305 -0.6548,-2.06306 0.81739,0.0153 c 0.44957,0.008 1.46426,0.42463 2.25488,0.9249 l 1.43749,0.90958 0.21271,3.07244 0.21271,3.07245 -0.8311,-0.51365 -0.8311,-0.51365 -0.62812,1.01631 -0.62811,1.01632 1.05901,0 1.05902,0 -1.97732,1.97732 -1.97732,1.97732 -1.52268,-0.58431 -1.52268,-0.58431 0,0.86644 c 0,0.47655 0.91021,1.43488 2.02269,2.12964 l 2.0227,1.26319 0.58429,-1.52264 0.5843,-1.52265 1.96256,0 1.96256,0 -0.31955,2.25 -0.31955,2.25 -3.5,0.61836 -3.5,0.61836 3.19098,0.13164 3.19099,0.13164 0.61803,1 0.61803,1 -2.55901,0 -2.55902,0 0,0.88606 C 936,161.96856 929.80946,165 927.59887,165 L 926,165 l 0,-1.52144 0,-1.52144 -2.50423,-1.141 -2.50422,-1.141 -0.63828,0.63827 -0.63827,0.63828 1.26494,1.52416 1.26495,1.52417 -0.82244,0 -0.82245,0 1.0491,1.0491 1.04911,1.04911 9.07268,0.0431 9.07268,0.0431 2.07821,-0.6596 2.07822,-0.6596 0,1.06739 c 0,2.03428 -7.89478,8.81639 -13,11.16781 l -2.5,1.15148 3,0.9326 3,0.93259 12.29138,-0.03 12.29138,-0.03 -0.52908,0.85607 -0.52909,0.85607 -4.68119,0.70199 -4.68119,0.70199 1.4189,0.89809 1.41889,0.89808 -1.5,0.0373 -1.5,0.0373 4.3592,1.97804 c 2.39757,1.08792 4.98507,1.97804 5.75,1.97804 l 1.3908,0 0,1 0,1 -2.25,0.11842 c -1.2375,0.0651 -2.63487,0.0493 -3.10526,-0.0351 -0.47039,-0.0844 -1.50196,0.38321 -2.29238,1.0392 l -1.43712,1.19271 -1.15762,-1.15762 L 949.6,191 l 0.82244,0 0.82245,0 -1.19556,-1.44056 -1.19556,-1.44056 -1.41845,0.54432 -1.41846,0.54431 -0.61542,-1.60376 -0.61542,-1.60375 -1.19301,0 c -0.65615,0 -1.75085,-0.55784 -2.43265,-1.23964 l -1.23963,-1.23963 -4.90337,-1.10434 -4.90337,-1.10433 -8.80699,0.28698 c -4.84385,0.15784 -10.382,0.53019 -12.307,0.82745 l -3.5,0.54048 -1.20624,1.6478 -1.20624,1.6478 0.20624,-2.88129 L 903.5,180.5 902,180.36535 c -0.825,-0.0741 -2.25536,-0.18656 -3.17857,-0.25 -0.92322,-0.0634 -2.29944,-0.73622 -3.05829,-1.49506 l -1.37971,-1.37971 -4.44171,-0.73761 -4.44172,-0.73761 7.56125,3.92857 c 4.15869,2.16072 8.57038,4.9377 9.80376,6.17108 l 2.24249,2.24249 -0.24607,1.69625 -0.24607,1.69625 2.18858,3.5 c 1.20372,1.925 2.19027,3.82338 2.19232,4.21862 l 0.004,0.71861 -1.25,-0.45811 -1.25,-0.45811 -1.2124,0.77527 -1.2124,0.77528 0.57609,2.20297 0.57609,2.20298 0.95449,-0.58991 0.95448,-0.5899 -0.59107,-1.54029 -0.59106,-1.5403 1.57749,1.3092 c 0.86761,0.72006 1.99721,2.09346 2.5102,3.052 l 0.93272,1.74279 -2.48732,-0.27304 -2.48727,-0.27303 0,0.86248 c 0,0.47437 0.45,0.86249 1,0.86249 0.55,0 1,0.45 1,1 l 0,1 -2.06739,0 -2.06739,0 0.60807,-1.91584 z M 903,196.44098 C 903,196.19844 902.29844,196 901.44098,196 l -1.55901,0 0.62811,1.01631 0.62812,1.01631 0.9309,-0.57533 C 902.58109,197.14086 903,196.68352 903,196.44098 z m -7.62005,-7.69701 C 893.24598,186.40316 890.15,183.40332 888.5,182.07766 l -3,-2.4103 2,2.18254 c 1.1,1.20039 3.8,4.14723 6,6.54852 2.2,2.40129 4.39598,4.419 4.87995,4.48378 0.48398,0.0648 -0.86602,-1.79741 -3,-4.13823 z M 891,191.62244 c 0,-0.20765 -0.7875,-0.99515 -1.75,-1.75 L 887.5,188.5 l 1.37244,1.75 C 890.17881,191.91575 891,192.44548 891,191.62244 z M 948.5,185 l 0.61803,-1 -1.55901,0 -1.55902,0 0,1 c 0,0.55 0.42344,1 0.94098,1 0.51754,0 1.2191,-0.45 1.55902,-1 z m -53.25,-10.66228 c -0.6875,-0.27741 -1.8125,-0.27741 -2.5,0 l -1.25,0.50439 2.5,0 2.5,0 -1.25,-0.50439 z M 884,173 c 0,-0.55 -0.45,-1 -1,-1 -0.55,0 -1,0.45 -1,1 0,0.55 0.45,1 1,1 0.55,0 1,-0.45 1,-1 z m 15.5,0 0.61803,-1 -3.30901,0.0703 -3.30902,0.0703 2,0.85943 c 2.71291,1.16578 3.27951,1.16578 4,0 z m 33.91821,-0.60699 c 2.26558,-0.86938 1.9576,-1.90075 -0.96526,-3.23249 C 929.86832,167.98288 926,167.58692 926,168.5 c 0,0.99656 3.529,4.3354 4.66821,4.41667 0.64252,0.0458 1.88002,-0.18981 2.75,-0.52366 z M 893,168.05902 c 0,-0.51754 -0.47994,-1.2376 -1.06653,-1.60014 l -1.06653,-0.65915 -0.53361,0.5336 -0.5336,0.53361 0.65915,1.06653 c 0.81471,1.31822 2.54112,1.40352 2.54112,0.12555 z m 8.38691,-5.242 -0.52511,-0.84964 -0.9309,0.57533 c -1.30838,0.80862 -1.16106,1.12396 0.52511,1.12396 l 1.45601,0 -0.52511,-0.84965 z m 30.86309,-8.4793 c -0.6875,-0.27741 -1.8125,-0.27741 -2.5,0 l -1.25,0.50439 2.5,0 2.5,0 -1.25,-0.50439 z M 916,149.5 l 0,-1.5 1,0 c 0.55,0 1,-0.35185 1,-0.78189 l 0,-0.78189 -2.5,-0.20691 -2.5,-0.20691 0,2.4888 0,2.4888 1.5,0 1.5,0 0,-1.5 z m 7.52381,0.11905 1.38095,-1.38095 -0.61905,-0.61905 C 923.94524,147.27857 923.26511,147 922.77432,147 l -0.89235,0 0.61803,1 0.61803,1 -1.05901,0 C 921.47656,149 921,149.45 921,150 c 0,1.3846 0.89305,1.2498 2.52381,-0.38095 z m 11.77096,-0.94482 0.50875,-1.32577 -4.90176,-0.22367 -4.90176,-0.22366 0,1.54944 0,1.54943 4.39301,0 4.39301,0 0.50875,-1.32577 z m -35.67976,-3.13905 C 898.72675,144.17953 898,142.80298 898,142.47617 l 0,-0.5942 1.15451,0.71352 1.15451,0.71353 -0.76738,-1.24164 -0.76737,-1.24164 -1.03579,1.03578 -1.03579,1.03579 1.67171,2.55134 c 0.91944,1.40324 1.93809,2.55135 2.26366,2.55135 0.32558,0 -0.13479,-1.10917 -1.02305,-2.46482 z m 6.56949,-0.0408 1.14162,-2.50559 3.18169,0.35062 c 1.74994,0.19284 3.66,0.64623 4.24459,1.00753 l 1.06289,0.6569 2.34236,-0.93855 2.34235,-0.93852 -2.38197,-0.0634 -2.38196,-0.0634 -3.3498,-2.07029 -3.3498,-2.07029 -1.01823,0.62931 C 907.45821,139.83485 907,140.65977 907,141.32189 l 0,1.20385 -2.24416,0.98713 -2.24416,0.98713 -0.32916,1.75 -0.32917,1.75 1.59477,0 1.59476,0 1.14162,-2.50558 z m -2.6917,-5.33495 -0.55553,-0.55553 2.28137,-1.23631 2.28136,-1.2363 -3.74552,0.18433 -3.74551,0.18434 -0.005,0.75 C 900.00202,138.6625 900.45,139 901,139 c 0.55,0 1,0.47656 1,1.05902 l 0,1.05901 -0.98855,-0.61095 -0.98854,-0.61096 0.60533,1.57747 0.60533,1.57746 1.40738,-1.16803 1.40738,-1.16802 -0.55553,-0.55553 z M 925,140 c -0.825,-0.53316 -1.95,-0.96937 -2.5,-0.96937 l -1,0 L 923,140 c 0.825,0.53316 1.95,0.96937 2.5,0.96937 l 1,0 L 925,140 z m -3.61745,-4.01745 c -0.5596,-0.5596 -2.4877,-1.43911 -4.28466,-1.95448 l -3.26721,-0.93702 1.15784,1.39511 1.15784,1.39512 2.67682,0.40953 c 1.47225,0.22524 2.87932,0.47695 3.12682,0.55936 0.2475,0.0824 -0.008,-0.30802 -0.56745,-0.86762 z M 898,133.5 l 0,-1.5 -0.96862,0 -0.96861,0 0.5756,1.5 c 0.31659,0.825 0.75246,1.5 0.96862,1.5 0.21615,0 0.39301,-0.675 0.39301,-1.5 z m 28.80687,-7.02646 -0.55979,-0.5598 -0.68279,1.79313 -0.68278,1.79313 1.24258,-1.23333 1.24258,-1.23334 -0.5598,-0.55979 z m -15.1402,78.85979 C 911.3,204.96667 911,204.20167 911,203.63333 l 0,-1.03333 1.18333,1.18333 1.18334,1.18334 -0.51667,0.51666 -0.51667,0.51667 -0.66666,-0.66667 z m 44.14714,-8.73166 -2.68619,-2.39596 0.60286,-0.60286 C 954.06205,193.27128 955.83333,193 957.66667,193 l 3.33333,0 0,0.87219 0,0.87219 4.1335,0.66098 4.1335,0.66097 -0.56146,0.56146 c -0.3088,0.30881 -1.83138,0.70134 -3.3835,0.8723 -1.55212,0.17097 -3.72204,0.57785 -4.82204,0.90419 l -2,0.59335 -2.68619,-2.39596 z m 6.51798,0.31711 1.16821,-0.0812 -3,-1.37367 c -1.65,-0.75553 -3.58906,-1.39398 -4.30902,-1.41879 L 954.88197,194 l 0.61803,1 0.61803,1 2.19099,0.0153 2.19098,0.0153 -1.5,1.07902 -1.5,1.07901 1.83179,-0.59433 c 1.00748,-0.32688 2.35748,-0.63088 3,-0.67555 z m 22.85796,-1.5371 1.61833,-1.61833 1.11227,0.68742 1.11227,0.68743 -0.57533,0.9309 -0.57532,0.9309 -2.15527,0 -2.15527,0 1.61832,-1.61832 z M 934.6048,177.79091 c 0.31539,-0.71 3.04765,-3.23909 6.0717,-5.6202 l 5.49825,-4.32929 0.66263,0.66537 0.66262,0.66537 -2.16607,1.66392 c -1.19134,0.91516 -3.61411,2.78892 -5.38395,4.16392 -1.76984,1.375 -3.82555,2.85591 -4.56825,3.29091 l -1.35036,0.79091 0.57343,-1.29091 z M 954,165.5 c 0.68469,-0.825 1.40067,-1.5 1.59106,-1.5 0.19039,0 0.0872,0.675 -0.22943,1.5 -0.31659,0.825 -1.03256,1.5 -1.59106,1.5 l -1.01546,0 L 954,165.5 z m -6.95007,-0.46914 -1.42133,-0.87843 1.21846,-1.46815 c 0.67015,-0.80748 2.08833,-1.69563 3.15151,-1.97366 l 1.93306,-0.5055 -0.21582,1.14744 L 951.5,162.5 l 2,-0.32757 2,-0.32756 -1.99367,1.49232 -1.99366,1.49232 -0.6395,-1.03473 -0.6395,-1.03473 -0.88121,1.57462 -0.8812,1.57462 -1.42133,-0.87843 z m -5.90952,-3.28086 1.21078,-2.25 -0.21412,-3.7164 -0.21412,-3.71639 4.78852,1.61574 c 2.63369,0.88865 5.40171,1.77886 6.15115,1.97823 l 1.36263,0.36249 -1.16473,1.40341 -1.16474,1.40342 -3.19129,-0.91525 c -4.10826,-1.17823 -4.02636,-1.19641 -3.28737,0.72937 l 0.6311,1.64462 -1.6791,1.85538 -1.6791,1.85538 -1.38019,0 -1.3802,0 1.21078,-2.25 z m -58.40708,-0.87409 1.23334,-1.24258 0.55979,0.5598 0.5598,0.55979 -1.79313,0.68279 -1.79313,0.68278 1.23333,-1.24258 z m 81.86797,-3.03982 0.46275,-0.74874 1.46798,0.56331 c 2.03585,0.78123 1.83381,1.2526 -0.46275,1.07961 l -1.93072,-0.14544 0.46274,-0.74874 z m -8.8513,-1.49837 c 0.6875,-0.27741 1.8125,-0.27741 2.5,0 l 1.25,0.50439 -2.5,0 -2.5,0 1.25,-0.50439 z m -87.92406,-15.24827 -2.67405,-1.51458 -0.47099,-2.46382 -0.47099,-2.46382 1.31469,-1.31468 1.31469,-1.31469 0.5014,1.24107 0.50141,1.24107 0.079,-1.80902 0.0789,-1.80901 1.01632,0.62811 1.01631,0.62812 -0.57533,0.9309 -0.57533,0.9309 0.97569,0 c 0.53662,0 1.20265,-0.5625 1.48006,-1.25 l 0.50439,-1.25 0.0789,2.25 0.0789,2.25 1.33948,0 1.33949,0 1.13908,2.5 1.13907,2.5 -1.22856,0.0153 -1.22856,0.0153 1.5,0.99722 1.5,0.99722 -3.5,-0.21052 -3.5,-0.21053 -2.67406,-1.51457 z m 23.92406,0.24827 c 0.6875,-0.27741 1.8125,-0.27741 2.5,0 l 1.25,0.50439 -2.5,0 -2.5,0 1.25,-0.50439 z M 884,137 l -1.5,-0.96937 1.75,-0.0153 L 886,136 l 0,1 c 0,1.21961 -0.11279,1.21961 -2,0 z m -25.30904,-3.36295 -0.54008,-1.40745 1.42927,-2.04057 1.42927,-2.04057 -1.75471,-0.41947 -1.75471,-0.41947 1.5,-0.55883 c 0.825,-0.30735 2.38739,-0.8512 3.47198,-1.20855 l 1.97197,-0.64973 -1.47197,-0.93089 -1.47198,-0.93089 1.5,-0.0856 1.5,-0.0856 -2,-0.85943 -2,-0.85943 2,-0.14057 2,-0.14057 -2,-0.85943 -2,-0.85943 1.25,-0.0703 L 863,119 l 0,-2.05902 0,-2.05901 1.00706,0.6224 1.00707,0.62239 0.60972,-1.5889 0.60972,-1.58891 1.38321,1.14797 C 868.37755,114.7283 869,115.86479 869,116.62245 l 0,1.37755 -2.05902,0 -2.05901,0 0.61803,1 c 0.85644,1.38575 2.1073,1.24984 3.76639,-0.40925 l 1.40925,-1.40925 1.2903,0.79745 1.29029,0.79744 -0.72926,1.17998 -0.72927,1.17998 -1.39885,-0.53679 -1.39885,-0.53679 0,2 0,2 1.62379,0.62311 1.62379,0.6231 0.9259,-1.65449 0.9259,-1.65449 1.95031,0 1.95031,0 0,-0.84699 c 0,-0.46585 0.87612,-1.85716 1.94693,-3.09182 l 1.94693,-2.24482 1.10163,0.68084 1.10163,0.68084 -1.17101,1.41098 C 882.28206,119.36506 881.13521,120 880.37756,120 L 879,120 l 0,1 c 0,0.55 -0.0266,1.3375 -0.059,1.75 -0.0325,0.4125 0.98004,1.04264 2.25,1.40032 l 2.30902,0.65032 -2.52749,0.0997 -2.5275,0.0997 -2.4725,1.75 -2.47251,1.75 -5.5,0 -5.5,0 -1.63447,3.27224 -1.63448,3.27225 -0.54009,-1.40744 z M 853.5,126.79296 c -2.65349,-1.48865 -3.46626,-2.81005 -3.48469,-5.6654 L 850,118.75511 l 1.36732,1.13478 1.36732,1.13477 1.25513,-1.51233 1.25512,-1.51233 -1.12245,0 -1.12244,0 0,-1.68856 0,-1.68856 2.03896,2.18856 2.03895,2.18856 1.71104,0.0153 1.71105,0.0153 -1.5,0.9694 -1.5,0.96937 1.13337,0.0153 1.13337,0.0153 0.52301,2 0.52301,2 -1.54614,0 -1.54613,0 -1.11025,1.4575 -1.11024,1.45751 -2,-1.12204 z m 2.5,-3.58207 c 0,-0.29932 -0.2961,-0.24813 -0.65799,0.11377 l -0.65799,0.65799 -1.34201,-1.11377 -1.34201,-1.11377 0,1.45578 c 0,0.80068 0.2961,1.75187 0.65799,2.11377 l 0.65799,0.65799 1.34201,-1.11377 C 855.3961,124.25631 856,123.51021 856,123.21089 z m 50.27083,1.18494 0.60417,-0.60416 1.3125,0.52522 1.3125,0.52522 -1.91667,0.0789 -1.91666,0.079 0.60416,-0.60417 z m -20.06211,-3.63474 -2.29128,-1.10356 0.53085,-1.38337 0.53085,-1.38337 -2.14672,-2.90358 -2.14671,-2.90359 1.2057,-1.45278 1.20571,-1.45279 -1.06487,-0.65812 -1.06487,-0.65813 0.57532,-0.9309 C 881.85914,105.41891 882.46627,105 882.8919,105 l 0.77386,0 -0.14584,1.97963 c -0.0802,1.0888 -0.45501,2.2888 -0.83288,2.66667 -0.37787,0.37787 -0.67207,1.17453 -0.65377,1.77037 l 0.0333,1.08333 2.06995,-2.48826 2.06995,-2.48826 -0.30811,1.98826 -0.30812,1.98826 1.16971,2.11852 1.16971,2.11851 -0.71481,0.79082 -0.71482,0.79081 1.83179,-0.65933 C 889.33927,116.2967 890.35177,116 890.58179,116 890.8118,116 891,115.325 891,114.5 l 0,-1.5 1.5,0 c 1.93771,0 1.89421,-0.99217 -0.17288,-3.94335 l -1.67288,-2.38837 1.0681,0.66012 1.06809,0.66011 0.60478,-1.57604 C 894.21769,104.26914 894.16701,104 892.94098,104 l -1.05901,0 0.75097,1.25 0.75098,1.25 -1.53397,-1.24132 -1.53397,-1.24133 -0.90799,0.73633 c -0.49939,0.40498 0.37867,-0.68736 1.95125,-2.42742 l 2.85924,-3.163739 -0.76375,-1.235769 -0.76375,-1.235769 1.08252,0.669029 1.08251,0.66903 0.6633,-2.089882 0.6633,-2.089881 0.53267,0.532662 0.53266,0.532663 -1.96462,3.329773 -1.96461,3.329773 1.35719,1.26781 1.35719,1.2678 1.37428,-1.37427 1.37428,-1.37428 -0.84725,-1.513938 -0.84724,-1.513939 1.25116,0 1.25116,0 -0.22783,3.583337 c -0.12531,1.97083 -0.47849,4.70684 -0.78484,6.08003 l -0.55699,2.49669 -1.01614,0.33872 -1.01614,0.33871 0.56961,0.92165 0.56961,0.92166 -1.81338,0.68827 c -0.99736,0.37856 -3.14718,1.92925 -4.77738,3.446 l -2.964,2.75772 2.464,0.98355 2.464,0.98356 -2,-0.004 c -1.1,-0.002 -3.03108,-0.5009 -4.29128,-1.10785 z M 920.5,119 l -3,-1.98682 -2,-0.0219 c -1.1,-0.0121 -2.675,-0.50141 -3.5,-1.08748 l -1.5,-1.06557 2.75,0.59994 2.75,0.59993 0,-1.01905 c 0,-1.70227 1.31432,-1.10399 5.5,2.50362 l 4,3.44758 -1,0.008 c -0.55,0.005 -2.35,-0.8858 -4,-1.97855 z m -28.22917,-1.60417 0.60417,-0.60416 1.3125,0.52522 1.3125,0.52522 -1.91667,0.0789 -1.91666,0.079 0.60416,-0.60417 z m 26.29346,-5.1027 -0.68278,-1.79313 1.24258,1.23333 1.24258,1.23334 -0.5598,0.55979 -0.55979,0.5598 -0.68279,-1.79313 z M 878.75,97.337719 880,96.833333 880.116,94.666667 880.232,92.5 l 0.45733,1.75 0.45732,1.75 1.67667,0.01531 L 884.5,96.030626 883,97 c -0.825,0.533156 -2.4,0.940739 -3.5,0.90574 l -2,-0.06363 1.25,-0.504386 z M 878.07895,94.583333 878,92.666667 l 0.60417,0.604166 0.60416,0.604167 -0.52522,1.3125 -0.52521,1.3125 -0.079,-1.916667 z m 11.47992,-0.05153 C 890.62649,93.724295 891.95,93.063607 892.5,93.063607 l 1,0 -1.94113,1.468196 C 890.49125,95.339312 889.16774,96 888.61774,96 l -1,0 1.94113,-1.468197 z M 878.75,89.337719 c 0.6875,-0.277412 1.8125,-0.277412 2.5,0 l 1.25,0.504386 -2.5,0 -2.5,0 1.25,-0.504386 z"
       id="path3812"
       inkscape:connector-curvature="0" />
  </g>
</svg>
