<?xml version="1.0" encoding="UTF-8" standalone="no"?>
<svg
   xmlns:dc="http://purl.org/dc/elements/1.1/"
   xmlns:cc="http://creativecommons.org/ns#"
   xmlns:rdf="http://www.w3.org/1999/02/22-rdf-syntax-ns#"
   xmlns:svg="http://www.w3.org/2000/svg"
   xmlns="http://www.w3.org/2000/svg"
   xmlns:sodipodi="http://sodipodi.sourceforge.net/DTD/sodipodi-0.dtd"
   xmlns:inkscape="http://www.inkscape.org/namespaces/inkscape"
   viewBox="0 0 512 512"
   id="svg2"
   version="1.1"
   inkscape:version="0.48.4 r9939"
   width="100%"
   height="100%"
   sodipodi:docname="notsure23.svg">
  <metadata
     id="metadata48">
    <rdf:RDF>
      <cc:Work
         rdf:about="">
        <dc:format>image/svg+xml</dc:format>
        <dc:type
           rdf:resource="http://purl.org/dc/dcmitype/StillImage" />
        <dc:title></dc:title>
      </cc:Work>
    </rdf:RDF>
  </metadata>
  <defs
     id="defs46">
    <filter
       id="filter3108"
       x="0"
       y="0"
       width="1"
       height="1"
       inkscape:label="Lightness-Contrast"
       inkscape:menu="Color"
       inkscape:menu-tooltip="Increase or decrease lightness and contrast"
       color-interpolation-filters="sRGB">
      <feFlood
         id="feFlood3110"
         result="result1"
         flood-opacity="1"
         flood-color="rgb(0,0,0)" />
      <feBlend
         id="feBlend3112"
         in2="SourceGraphic"
         mode="normal"
         result="result2" />
      <feComposite
         id="feComposite3114"
         in2="SourceGraphic"
         k2="1"
         operator="arithmetic"
         result="result3" />
      <feComposite
         id="feComposite3116"
         in2="SourceGraphic"
         operator="in" />
    </filter>
  </defs>
  <sodipodi:namedview
     pagecolor="#ffffff"
     bordercolor="#666666"
     borderopacity="1"
     objecttolerance="10"
     gridtolerance="10"
     guidetolerance="10"
     inkscape:pageopacity="0"
     inkscape:pageshadow="2"
     inkscape:window-width="1185"
     inkscape:window-height="1030"
     id="namedview44"
     showgrid="false"
     inkscape:zoom="0.65186406"
     inkscape:cx="187.83708"
     inkscape:cy="357.68843"
     inkscape:window-x="100"
     inkscape:window-y="100"
     inkscape:window-maximized="0"
     inkscape:current-layer="svg2" />
  <rect
     style="opacity:0.98999999;fill:#000000;fill-opacity:1;fill-rule:nonzero;stroke:none"
     id="rect3171"
     width="529.25146"
     height="587.54578"
     x="-4.6021867"
     y="-12.649261" />
  <g
     id="g3229"
     transform="matrix(-0.74686424,0,0,0.94952511,467.96062,11.039243)">
    <path
       style="fill:#cdcbc8"
       d="m -33.650612,283.12627 c 0,-93.44067 0,-186.881349 0,-280.3220238 208.548012,0 417.096032,0 625.644042,0 0,186.8813438 0,373.7626938 0,560.6440438 -208.54801,0 -417.09603,0 -625.644042,0 0,-93.44067 0,-186.88135 0,-280.32202 z"
       id="path3251"
       inkscape:connector-curvature="0" />
    <path
       style="fill:#e2ceac"
       d="m -33.650612,283.12627 c 0,-93.44067 0,-186.881349 0,-280.3220238 208.548012,0 417.096032,0 625.644042,0 0,186.8813438 0,373.7626938 0,560.6440438 -29.8514,13.47968 -74.75428,-8.52249 -68.33535,-44.70706 6.1479,-30.46598 -0.18966,-65.95318 -17.98997,-92.07021 5.97662,42.28417 15.77576,85.63722 6.27296,128.18058 -40.78664,18.78928 -86.1322,1.40971 -128.74159,8.65962 -75.19935,-0.98737 -150.47832,-2.05572 -225.6244,0.002 -27.53289,-1.28636 -69.496556,7.75514 -80.3975,-26.199 -11.552242,-32.3169 3.084309,-85.13864 -11.944025,-105.84396 -15.535103,28.74607 -8.536184,64.65699 -3.390875,95.32671 9.251879,45.27441 -43.493936,41.50645 -72.349848,36.98656 -35.85652,-8.03691 -22.120188,-46.38198 -23.213729,-72.03639 0.380753,-69.53998 -0.16105,-139.08086 0.07028,-208.62109 z M 281.12789,498.75811 c 17.13824,-25.93379 -14.38352,-94.42035 -35.59595,-46.16226 -5.93592,21.53325 5.94119,62.26283 35.59595,46.16226 z m 40.56226,-32.02887 c 37.88266,-6.43421 17.82165,-87.77896 -13.98294,-61.77162 -8.86783,15.4371 -5.31065,62.26681 13.98294,61.77162 z m 51.57713,-66.06976 c 31.56961,-23.21169 -5.8919,-74.19369 -32.06127,-38.03679 -7.24837,16.70312 11.38584,55.36723 32.06127,38.03679 z m -20.90277,-57.42292 c 15.55126,-17.90195 -15.87575,1.43928 0,0 z m 52.41883,-16.25443 c 34.89334,-29.30529 37.33777,-78.06201 50.62783,-118.55043 5.11586,-30.03254 21.76348,-77.63492 -5.23965,-97.75682 -32.07779,-2.62815 -8.20726,75.65354 -35.94636,53.3829 -5.16114,-23.27201 10.61372,-65.550415 -1.9661,-76.793003 -9.79599,36.075653 2.11685,76.024233 -16.51917,110.072583 -10.65121,34.30377 -26.16467,68.52416 -24.27282,105.23617 17.56864,-7.04853 42.36046,3.30067 22.32116,21.16965 -2.00636,9.9554 7.30528,14.67935 10.99511,3.23895 z m -32.85566,-10.26884 c -5.91846,-19.31767 -12.43794,14.46608 0,0 z M 174.0922,244.28293 c -5.514,-23.07479 -11.66476,16.77076 0,0 z"
       id="path3249"
       inkscape:connector-curvature="0" />
    <path
       style="fill:#d0af9f"
       d="m -33.650612,283.12627 c 0,-93.44067 0,-186.881349 0,-280.3220238 208.548012,0 417.096032,0 625.644042,0 0,186.8813438 0,373.7626938 0,560.6440438 -29.8514,13.47968 -74.75428,-8.52249 -68.33535,-44.70706 6.1479,-30.46598 -0.18966,-65.95318 -17.98997,-92.07021 5.97662,42.28417 15.77576,85.63722 6.27296,128.18058 -40.78664,18.78928 -86.1322,1.40971 -128.74159,8.65962 -75.19935,-0.98737 -150.47832,-2.05572 -225.6244,0.002 -27.53289,-1.28636 -69.496556,7.75514 -80.3975,-26.199 -11.552242,-32.3169 3.084309,-85.13864 -11.944025,-105.84396 -15.535103,28.74607 -8.536184,64.65699 -3.390875,95.32671 9.251879,45.27441 -43.493936,41.50645 -72.349848,36.98656 -35.85652,-8.03691 -22.120188,-46.38198 -23.213729,-72.03639 0.380753,-69.53998 -0.16105,-139.08086 0.07028,-208.62109 z M 280.12821,501.01551 c 11.12094,-19.89323 6.13925,-82.1049 -27.50402,-61.74256 -17.59871,19.47846 -7.67175,73.99813 27.50402,61.74256 z m 40.28918,-34.1442 c 34.62468,-6.35635 25.06988,-75.61857 -9.06895,-67.56689 -14.43175,16.04329 -12.78855,62.4366 6.0883,69.07441 l 2.98065,-1.50752 0,0 z m 52.84989,-66.21183 c 31.61407,-23.35876 -5.98685,-74.18358 -32.25275,-38.03021 -7.54151,16.54255 11.66333,55.95211 32.25275,38.03021 z m -20.90277,-57.42292 c 15.55126,-17.90195 -15.87575,1.43928 0,0 z m -145.27833,-4.53099 c 24.39664,-39.74519 -40.92391,-2.56958 0,0 z m 31.88219,-6.13417 c 6.11673,-24.91857 -31.88475,10.35321 -1.7109,0.67384 l 1.58035,-0.62242 0.13055,-0.0514 z m 165.81497,-5.58927 c 34.89334,-29.30529 37.33777,-78.06201 50.62783,-118.55043 5.11586,-30.03254 21.76348,-77.63492 -5.23965,-97.75682 -32.07779,-2.62815 -8.20726,75.65354 -35.94636,53.3829 -5.16114,-23.27201 10.61372,-65.550415 -1.9661,-76.793003 -9.79599,36.075653 2.11685,76.024233 -16.51917,110.072583 -10.65121,34.30377 -26.16467,68.52416 -24.27282,105.23617 17.64685,-7.09331 42.38621,3.37858 22.35903,21.32143 -2.16424,10.21466 7.20068,14.2961 10.95724,3.08717 z M 267.0007,319.68864 c 14.11608,-29.2101 -23.67657,6.08511 0,0 z m 104.92698,-2.97535 c -5.91846,-19.31767 -12.43794,14.46608 0,0 z M 300.66523,293.7824 c -4.41562,-45.13971 -29.19026,26.00274 0,0 z m 22.00059,-25.13158 c 9.72011,-35.79947 -26.28455,9.64195 0,0 z M 176.50781,245.91119 c -3.64821,-23.86507 -16.30899,16.40709 0,0 z m 162.36953,-9.55342 c -14.315,1.75203 10.25406,9.57334 0,0 z m -25.66336,-91.28209 c 15.032,-19.36369 -10.49694,-81.269121 -25.53476,-37.43703 -0.8424,10.34797 10.59962,66.09508 25.53476,37.43703 z M 181.72341,130.68704 c -2.81904,-51.623401 -52.12497,26.36601 -1.84058,14.10316 5.01677,-2.5065 5.45805,-10.21896 1.84058,-14.10316 z m 55.16127,2.68497 c 26.07303,-38.804 -63.15276,-56.14121 -44.19782,-8.3459 6.1734,15.49511 37.63542,32.94944 44.19782,8.3459 z m 19.33839,-0.52147 c 42.71736,10.9915 2.93982,-71.746079 -7.11805,-24.13159 -1.54319,8.05622 -5.09397,22.71783 7.11805,24.13159 z"
       id="path3247"
       inkscape:connector-curvature="0" />
    <path
       style="fill:#afafac"
       d="m -33.650612,283.12627 c 0,-93.44067 0,-186.881349 0,-280.3220238 208.548012,0 417.096032,0 625.644042,0 0,186.8813438 0,373.7626938 0,560.6440438 -29.8514,13.47968 -74.75428,-8.52249 -68.33535,-44.70706 6.1479,-30.46598 -0.18966,-65.95318 -17.98997,-92.07021 5.97662,42.28417 15.77576,85.63722 6.27296,128.18058 -40.78664,18.78928 -86.1322,1.40971 -128.74159,8.65962 -75.19935,-0.98737 -150.47832,-2.05572 -225.6244,0.002 -27.53289,-1.28636 -69.496556,7.75514 -80.3975,-26.199 -11.552242,-32.3169 3.084309,-85.13864 -11.944025,-105.84396 -15.535103,28.74607 -8.536184,64.65699 -3.390875,95.32671 9.251879,45.27441 -43.493936,41.50645 -72.349848,36.98656 -35.85652,-8.03691 -22.120188,-46.38198 -23.213729,-72.03639 0.380753,-69.53998 -0.16105,-139.08086 0.07028,-208.62109 z M 283.36175,498.70266 c 9.42218,-22.82951 2.60806,-89.51893 -32.75358,-62.18808 -20.86152,24.96353 -7.21909,80.66276 32.75358,62.18808 z m -65.7885,-4.6124 c -4.51081,-9.61763 -2.58988,8.59455 0,0 z m 94.85256,-1.73329 c 10.84657,-30.32457 55.65356,-62.08189 20.90532,-93.54954 -24.24178,-28.53117 -50.40781,16.60202 -33.199,38.58139 0.24609,18.80294 1.18667,38.96526 12.29368,54.96815 z M 248.5097,428.99064 c -11.03165,2.66658 4.63484,11.38667 0,0 z m 118.83162,-10.24611 c 4.50809,-19.94089 37.4488,-69.87766 -6.58237,-57.75413 -15.48773,0.0545 -20.26194,-46.54251 -27.86184,-15.31623 -7.54172,26.26966 20.19579,64.35622 34.44421,73.07036 z m -157.47299,-88.6571 c -12.35958,-27.59835 -13.66482,18.09126 -1.45606,4.57443 z m 32.70413,2.87344 c 12.93148,-31.04402 -44.00585,3.43219 -6.56215,1.51727 2.29585,0.006 4.39794,-0.882 6.56215,-1.51727 z m 162.21088,-5.97874 c 34.89334,-29.30529 37.33777,-78.06201 50.62783,-118.55043 5.11538,-30.03105 21.76486,-77.63952 -5.24122,-97.75498 -32.07997,-2.62367 -8.20737,75.73259 -35.97512,53.37386 -5.31981,-26.72329 10.17785,-54.39375 -1.00046,-80.432228 -6.40144,38.327578 -4.25429,78.645288 -23.79874,113.262698 -3.12405,32.20187 -32.82376,64.0783 -22.44124,95.45159 12.85991,15.01785 49.2819,5.90569 28.20656,33.54043 -4.73582,12.18865 6.08387,4.21067 9.62239,1.10906 z m -136.37289,-7.88948 c 5.15475,-44.46697 -32.7599,19.87045 0,0 z m 29.03687,-18.72854 c 20.78989,-22.08019 -40.41007,-17.77936 -8.05756,0.99188 2.34003,1.62053 6.52005,2.15589 8.05756,-0.99188 z m 28.30546,-34.82978 c -1.46234,-44.27408 -29.58529,25.13382 0,0 z M 177.49246,248.19336 c -9.38145,-21.44475 -17.17983,22.18034 1e-5,4e-5 z m 165.69272,-13.19529 c -9.53992,-27.46696 -12.97507,20.01861 -1.69794,4.86809 z m -30.01079,-80.80419 c 8.90272,-18.82664 4.51319,-80.560013 -23.81369,-57.563977 -4.32404,15.244137 0.44117,73.669957 23.81369,57.563977 z m -129.10801,-4.72631 c 31.66969,-29.71464 -49.56222,-65.782571 -32.17926,-16.48054 5.30167,11.76588 19.12382,20.95936 32.17926,16.48054 z m 54.11532,-8.23269 c 28.26549,-33.08085 -48.37955,-76.8629 -47.71171,-24.76994 -1.93263,22.90223 30.37783,45.32913 47.71171,24.76994 z m 27.47843,-5.70656 c 47.23388,-10.34527 -24.03957,-76.667076 -20.24133,-19.64134 -1.47234,10.75959 6.72354,31.44436 20.24133,19.64134 z m 68.45802,-38.828017 c -0.31447,-13.400255 -3.73441,-0.950866 -3.00596,5.161167 z"
       id="path3245"
       inkscape:connector-curvature="0"
       sodipodi:nodetypes="cccccccccccccccccccccccccccccccccccccccccccccccccccccccccccccccccccccccccc" />
    <path
       style="fill:#c4976f"
       d="m -33.650612,283.09679 c 0,-93.4505 0,-186.901003 0,-280.3515049 128.982354,0.5091439 257.980092,-1.0484033 386.948992,1.479738 33.83551,20.5387489 25.8078,64.7875619 38.11908,97.0029969 12.55547,67.55653 -12.03092,134.6907 -35.00022,197.13394 -21.59666,30.75939 -35.59374,73.30887 -7.42656,104.89784 17.2812,28.05897 41.56403,7.45977 46.45837,-15.99122 30.50503,-42.90295 69.69488,-85.40242 71.89457,-140.98544 6.70872,-48.53543 34.45412,-90.63803 45.81969,-137.65662 11.86803,-38.787063 -22.41836,-64.951828 -36.54247,-93.686166 19.65604,-28.024643 58.1983,-5.0495449 86.2863,-13.8320265 40.40882,-0.79183685 27.99029,45.8852945 28.97991,71.8234735 0.2365,163.503909 0.0448,327.010959 0.10639,490.516489 -31.14427,14.66311 -51.19557,-24.81603 -45.27894,-51.1799 9.73755,-16.74137 7.58337,-52.36306 -15.23221,-52.77532 -13.38091,20.15324 -13.83472,-56.59218 -29.47371,-31.84229 6.19295,39.62339 19.30248,82.64018 3.14266,121.31224 -27.68476,31.95782 -72.96223,7.20398 -108.71879,13.86252 -46.20382,0.92839 -92.67458,2.39018 -138.60362,-3.84543 -39.48123,10.01233 -80.24827,1.51795 -119.71195,5.7797 -35.68423,8.11598 -66.094876,-19.49092 -61.932267,-55.11611 -2.988131,-33.34952 0.895106,-66.98609 -3.433264,-100.25377 -26.685357,25.24963 -19.070962,66.52755 -21.421362,99.68005 11.871145,31.14402 -2.910296,67.18554 -40.390236,53.80873 -33.223327,12.22498 -53.845591,-9.12699 -44.590355,-41.59266 0,-79.39642 1.2e-5,-158.79284 -8e-6,-238.18926 z m 28.9873686,231.22289 c -7.1886086,-18.12222 -2.8671841,18.6779 0,0 z m 285.5015734,-2.2832 c 4.13341,-26.77878 15.01274,-66.32394 -13.04041,-83.37263 -42.76056,-3.15245 -39.04661,74.88001 -4.24219,88.18101 6.05498,1.7013 13.02663,-0.1158 17.2826,-4.80838 z m 79.25615,1.71138 c 30.33822,14.87216 35.98676,-59.15605 5.06879,-24.14935 -14.57953,6.84999 -46.22678,36.41172 -5.06879,24.14935 z m -137.96876,-4.07693 c 8.53318,-25.1189 -17.37756,-19.76498 -14.22489,0.5957 2.78023,5.56757 10.62817,0.85279 14.22489,-0.5957 z M 7.4148269,505.30883 c -7.90607337,-2.1344 3.1385361,7.7575 0,0 z M 325.67043,488.62817 c 32.50673,-24.26381 22.5809,-76.33367 -6.03147,-99.59113 -38.1041,-0.76692 -17.30994,47.45371 -16.79751,70.10608 -3.20914,13.23276 3.75385,51.58127 22.82898,29.48505 z m -140.56227,0.40473 c 1.51567,-18.2269 24.62268,-41.87999 3.42552,-56.06792 2.91414,17.90217 -22.18224,42.746 -3.42552,56.06792 z m 24.76017,-158.94547 c -12.35958,-27.59835 -13.66482,18.09126 -1.45606,4.57443 z m 32.70413,2.87344 c 12.93148,-31.04402 -44.00585,3.43219 -6.56215,1.51727 2.29585,0.006 4.39794,-0.882 6.56215,-1.51727 z m 25.83799,-13.86822 c 5.15475,-44.46697 -32.7599,19.87045 0,0 z m 29.03687,-18.72854 c 20.78989,-22.08019 -40.41007,-17.77936 -8.05756,0.99188 2.34003,1.62053 6.52005,2.15589 8.05756,-0.99188 z m 28.30546,-34.82978 c -1.46234,-44.27408 -29.58529,25.13382 0,0 z M 177.49246,248.19336 c -9.38145,-21.44475 -17.17983,22.18034 1e-5,4e-5 z m 165.69272,-13.19529 c -9.53992,-27.46696 -12.97507,20.01861 -1.69794,4.86809 z m -30.01079,-80.80419 c 8.90272,-18.82664 4.51319,-80.560013 -23.81369,-57.563977 -4.32404,15.244137 0.44117,73.669957 23.81369,57.563977 z m -129.10801,-4.72631 c 31.66969,-29.71464 -49.56222,-65.782571 -32.17926,-16.48054 5.30167,11.76588 19.12382,20.95936 32.17926,16.48054 z m 54.11532,-8.23269 c 28.26549,-33.08085 -48.37955,-76.8629 -47.71171,-24.76994 -1.93263,22.90223 30.37783,45.32913 47.71171,24.76994 z m 27.47843,-5.70656 c 47.23388,-10.34527 -24.03957,-76.667076 -20.24133,-19.64134 -1.47234,10.75959 6.72354,31.44436 20.24133,19.64134 z m 68.45802,-38.828017 c -0.31447,-13.400255 -3.73441,-0.950866 -3.00596,5.161167 z m 88.10957,8.696027 c 9.23094,-32.109693 -23.49584,-65.415328 -2.79503,-95.7572463 22.10673,29.9318543 8.42403,70.7818403 3.61028,102.6615063 -2.03296,-1.8808 1.03587,-5.05177 -0.81525,-6.90426 z"
       id="path3243"
       inkscape:connector-curvature="0"
       sodipodi:nodetypes="sccccccccccccccccccccccccsccccccccccccccccccccccccccccccccccccccccccccccccccccccccccc" />
    <path
       style="fill:#929290"
       d="m -33.650612,283.09679 c 0,-93.4505 0,-186.901003 0,-280.3515049 C 95.148905,3.1693707 223.96025,1.8702103 352.7492,4.0872085 386.56432,23.851739 379.51041,67.639376 389.93108,99.861997 408.48833,156.96756 372.41195,212.04129 367.645,268.34822 c -7.73591,37.80745 -46.69108,69.26246 -32.77314,110.60284 3.80985,28.92712 44.17676,54.38827 55.94007,16.14573 19.13493,-31.84856 45.59255,-59.32538 61.80198,-92.65014 17.71146,-47.04184 18.71292,-99.31522 43.49936,-143.94831 13.60437,-31.18278 28.53617,-70.066598 9.60491,-102.050212 -16.67275,-14.182803 -44.25575,-55.49964562 -2.89066,-53.6289405 30.05582,1.4805175 95.54083,-15.2834405 89.68437,33.3969485 -1.712,91.362144 0.21832,182.809634 -0.47643,274.220964 -0.0536,83.76556 -0.16757,167.53119 -0.042,251.29674 -30.83172,17.73971 -52.73641,-23.6382 -45.06174,-50.13918 19.2086,-24.08502 -4.65677,-53.91087 -25.32203,-58.35412 -0.25007,-12.91552 -20.99482,-49.07443 -18.05123,-17.10154 5.99911,34.54334 12.69024,69.98177 6.71812,105.01881 -17.543,36.72288 -63.29728,20.58193 -95.0059,21.28117 -46.10751,0.0638 -92.44655,3.88714 -138.23437,-2.63561 -38.11897,-0.47703 -76.26646,9.23028 -114.1756,2.17742 -29.52088,2.99269 -76.063057,10.41244 -82.669533,-29.30141 -9.750338,-36.92263 -3.454165,-76.36379 -4.633297,-113.00356 -16.993637,-24.83078 -18.74464,28.86667 -22.520947,40.49046 -3.839965,31.78444 -0.53618,63.79445 1.504818,95.57878 -25.035255,13.74774 -62.6747941,10.5169 -86.664149,1.4798 -5.479852,-32.84377 1.876938,-67.4175 -1.528184,-101.12001 2e-6,-57.66936 5e-6,-115.33871 -1e-5,-173.00806 z m 28.9873686,231.22289 c -7.1886086,-18.12222 -2.8671841,18.6779 0,0 z M 280.18669,513.01705 c 5.88394,-26.4035 15.15294,-59.69036 -4.80574,-82.37225 -42.91514,-23.06817 -51.92764,59.73306 -22.44135,79.57872 6.50537,7.97489 19.328,9.655 27.24709,2.79353 z m 79.90779,0.73081 c 30.33822,14.87216 35.98676,-59.15605 5.06879,-24.14935 -14.57953,6.84999 -46.22678,36.41172 -5.06879,24.14935 z m -138.07215,-3.95324 c 5.44934,-43.00771 -34.35859,16.14221 0,0 z M 7.4148269,505.30883 c -7.90607337,-2.1344 3.1385361,7.7575 0,0 z M 325.67043,488.62817 c 36.44934,-28.47536 22.35752,-93.77704 -19.91486,-108.95256 -24.06563,33.33983 -0.44428,73.33724 0.92867,109.4364 -1.78709,13.3972 17.59347,8.86324 18.98619,-0.48384 z m -140.56227,0.40473 c 1.51567,-18.2269 24.62268,-41.87999 3.42552,-56.06792 2.91414,17.90217 -22.18224,42.746 -3.42552,56.06792 z m 4.18228,-148.83076 c 41.75628,4.69414 82.4106,-15.50401 112.31373,-43.37796 9.8846,-35.25657 -33.76021,-13.36008 -39.0768,4.83735 -24.92551,21.02764 -80.99957,1.8142 -90.46086,35.87646 4.48887,4.11284 11.67266,4.49863 17.22393,2.66415 z m -27.27631,-2.31095 c 3.30292,-33.67355 -24.08306,-1.32348 0,0 z m 165.54183,-67.49595 c 22.06545,-29.45661 -49.2649,-20.59748 -20.25211,2.42936 5.22834,5.60462 17.59315,5.91927 20.25211,-2.42936 z M 163.22193,254.22709 c 31.42904,-12.60066 -33.54956,-13.61503 -2.60108,2.15592 z M 344.01927,243.3899 c 19.09901,-31.38306 -39.69502,-4.99634 -8.90673,2.3092 3.35739,-0.28344 8.26797,2.91849 8.90673,-2.3092 z m -150.60216,-10.83719 0.0955,-1.08342 z m 120.90921,-75.59985 c 9.65488,-25.31527 14.88927,-92.849898 -28.15339,-74.809202 -17.46278,-3.017422 -26.67488,-11.972286 -39.43376,6.63476 -21.02352,17.393932 -28.31984,-28.643893 -47.99304,-0.246355 -11.46521,19.158587 -29.05629,6.606939 -41.59921,7.50477 -34.75431,24.502547 7.96499,76.715557 42.11154,59.002807 29.07852,-0.96449 82.09341,-44.25241 96.00834,-2.62688 2.91437,14.19202 15.72673,31.36241 19.05952,4.5401 z m -177.98375,-24.8248 c -2.43499,-23.18589 -8.40543,15.81047 -1.28258,4.02397 z m 208.43658,-24.0036 c -2.54059,-39.929189 -34.38176,19.58242 0,0 z m 77.44857,-2.72813 c 9.23094,-32.109693 -23.49584,-65.415328 -2.79503,-95.7572463 22.10673,29.9318543 8.42403,70.7818403 3.61028,102.6615063 -2.03296,-1.8808 1.03587,-5.05177 -0.81525,-6.90426 z"
       id="path3241"
       inkscape:connector-curvature="0"
       sodipodi:nodetypes="ccccccccccccccccccccccccccccccccccccccccccccccccccccccccccccccccccccccccccccccccccccc" />
    <path
       style="fill:#99685e"
       d="m -33.650612,283.12627 c 0,-93.44067 0,-186.881349 0,-280.3220238 116.118141,0 232.236282,0 348.354422,0 39.89894,34.6626408 81.38605,80.4526678 76.72782,137.2762138 -0.55564,52.18857 -21.04804,101.03367 -32.58054,151.24303 -20.85358,30.31664 -40.65796,71.69065 -14.34411,105.16143 7.79141,32.1864 43.3175,44.26418 57.85646,10.03384 34.77611,-38.58544 69.70049,-79.98063 82.95419,-131.40873 26.66477,-68.01496 77.69824,-129.72717 76.75934,-206.045449 -7.22061,-20.385279 -12.59761,-81.13765 23.33518,-60.0435183 18.73283,32.1554183 -1.13475,69.1226863 6.50481,103.2819773 -0.0445,144.63603 1.15514,289.29218 -1.95499,433.90739 -16.62361,22.51468 -20.34936,-12.42913 -12.07761,-23.83966 -2.15862,-40.9816 -37.99643,-67.30838 -58.82899,-99.28982 -33.67006,-21.10267 -13.00298,30.21642 -13.6114,47.50636 3.63715,28.79945 5.49301,60.42038 -10.22348,86.24334 -30.10733,14.21577 -64.20406,-8.48559 -94.91611,6.34607 -33.65752,2.15492 -67.45457,-2.36902 -101.05134,1.32794 -36.71067,-20.23899 -78.03555,11.19183 -115.74003,-4.73312 -30.11661,-5.84372 -65.22133,17.54848 -90.915353,-6.49527 C 74.41215,523.05482 78.374337,484.84446 75.469732,450.71892 73.700855,430.16983 88.209036,392.33026 78.739148,382.7337 53.808974,412.28271 54.201431,452.85586 44.232302,488.36475 c -18.183827,9.25032 5.163659,-54.73989 -16.824555,-20.56862 -7.946046,29.59595 9.380852,61.43577 -4.864957,89.96032 -25.1424516,-23.12547 5.905935,-61.95171 -14.7661917,-85.60636 -27.4807773,9.443 -25.3352053,62.87896 -28.0086683,81.6511 -30.638974,-12.00414 -4.294538,-61.85044 -12.874353,-88.59105 -0.351521,-60.69379 -0.871363,-121.38871 -0.544189,-182.08387 z M 318.57503,527.04194 c 59.47397,-5.65951 120.68203,-38.27074 145.0283,-95.13264 0.58626,-19.77844 15.93518,-79.35508 -19.35891,-65.08495 -23.84355,30.37236 -46.35307,61.8316 -66.6457,94.69558 -35.86137,18.89232 -32.16528,-31.25927 -36.48898,-50.85751 -8.12663,-26.62954 -53.98422,-34.17889 -45.2507,2.82695 -1.59906,30.78761 22.58123,80.57435 -2.98097,99.44761 -27.25432,-19.14812 14.65997,-61.10851 -14.75205,-81.39107 -40.16648,-28.85567 -49.50386,37.87524 -37.24783,63.6622 8.81136,34.35238 47.95163,45.692 77.69684,31.83383 z M 225.2658,512.98501 c -4.59202,-42.92729 -38.88835,29.46632 0.53272,4.11661 z m -37.62505,-24.24248 c 10.75179,-16.24085 20.37364,-71.02899 -1.87868,-60.05284 11.86841,24.39942 -33.21421,58.8865 -31.173,18.17853 -8.71869,-34.24935 -14.73352,18.363 -1.81036,27.86409 5.14631,13.72978 21.74636,30.5217 34.86204,14.01022 z M 93.226902,392.72536 c 5.113879,-18.11908 -10.128454,13.19455 0,0 z m 2.419252,-51.57954 c -9.955841,-28.69447 -15.184924,25.58321 2.797427,10.07053 0.352102,-3.58744 -1.091214,-7.02105 -2.797427,-10.07053 z m 93.644286,-0.94368 c 41.75628,4.69414 82.4106,-15.50401 112.31373,-43.37796 9.8846,-35.25657 -33.76021,-13.36008 -39.0768,4.83735 -24.92551,21.02764 -80.99957,1.8142 -90.46086,35.87646 4.48887,4.11284 11.67266,4.49863 17.22393,2.66415 z m -27.27631,-2.31095 c 3.30292,-33.67355 -24.08306,-1.32348 0,0 z m 165.54183,-67.49595 c 22.06545,-29.45661 -49.2649,-20.59748 -20.25211,2.42936 5.22834,5.60462 17.59315,5.91927 20.25211,-2.42936 z M 163.22193,254.22709 c 30.13522,-10.07825 -31.59701,-17.71702 -5.19309,2.30788 2.17759,0.0597 3.73297,-0.75053 5.19309,-2.30788 z M 344.01927,243.3899 c 19.09901,-31.38306 -39.69502,-4.99634 -8.90673,2.3092 3.35739,-0.28344 8.26797,2.91849 8.90673,-2.3092 z m -150.60216,-10.83719 0.0955,-1.08342 z M 47.252395,187.83461 c 0.147841,-14.86094 -4.26799,-64.59936 -21.974909,-50.46618 -0.447298,18.17254 -2.550766,47.52674 21.974909,50.46618 z M 314.32632,156.95286 c 9.65488,-25.31527 14.88927,-92.849898 -28.15339,-74.809202 -17.46278,-3.017422 -26.67488,-11.972286 -39.43376,6.63476 -21.02352,17.393932 -28.31984,-28.643893 -47.99304,-0.246355 -11.46521,19.158587 -29.05629,6.606939 -41.59921,7.50477 -34.75431,24.502547 7.96499,76.715557 42.11154,59.002807 29.07852,-0.96449 82.09341,-44.25241 96.00834,-2.62688 3.66815,14.42051 14.44441,31.72661 19.05952,4.5401 z m -177.98375,-24.8248 c -2.43499,-23.18589 -8.40543,15.81047 -1.28258,4.02397 z m 208.43658,-24.0036 c -2.54059,-39.929189 -34.38176,19.58242 0,0 z M 36.402196,561.04003 c 5.741689,-17.19606 11.62471,14.05333 0,0 z M 412.03018,5.6941639 c 3.14215,-12.215521 1.85295,10.2620131 0,0 z"
       id="path3239"
       inkscape:connector-curvature="0"
       sodipodi:nodetypes="ccccccccccccccccccccccccccccccccccccccccccccccccccccccccccccccccccccccccccccccccccccccccccc" />
    <path
       style="fill:#62605e"
       d="m -33.650612,283.12627 c 0,-93.44067 0,-186.881349 0,-280.3220238 C 76.348246,3.4047746 186.38896,1.4785161 296.34766,5.3582644 349.90582,27.073872 387.53801,82.690405 384.67813,140.90325 c 0.55276,55.23113 -19.01977,107.83928 -33.87757,160.24613 -19.20142,28.3726 -33.8915,64.22398 -8.99916,94.39483 8.57804,27.45349 37.33355,49.9877 55.25141,17.03308 23.11815,-25.70772 46.25482,-52.21095 63.96486,-81.90267 24.46657,-47.98605 40.58341,-99.96386 68.77552,-146.09705 23.13983,-46.27661 42.55623,-100.380269 26.43709,-152.067477 -9.20496,-37.5414061 54.89657,-31.88988786 36.27251,4.889982 -2.40639,167.475985 2.24691,335.042745 -2.86771,502.471405 1.81932,24.83531 -28.22339,10.59587 -13.8525,-8.32809 7.78859,-26.51758 -12.25552,-52.01197 -28.02141,-71.79297 -12.96011,-11.69057 -37.35565,-62.53423 -49.34192,-31.53871 6.75561,28.67932 10.20173,59.07599 9.0221,88.75959 1.84929,30.54185 -22.01236,56.85395 -53.56994,42.97808 -27.58495,-8.20147 -53.41259,8.15832 -81.43735,3.79887 -24.38602,-0.28696 -48.86634,-1.92062 -73.18102,0.75641 -36.71067,-20.23899 -78.03555,11.19183 -115.74003,-4.73312 -30.11661,-5.84372 -65.22133,17.54848 -90.915353,-6.49527 C 74.41215,523.05482 78.374337,484.84446 75.469732,450.71892 73.700855,430.16983 88.209036,392.33026 78.739148,382.7337 53.808974,412.28271 54.201431,452.85586 44.232302,488.36475 c -18.183827,9.25032 5.163659,-54.73989 -16.824555,-20.56862 -7.946046,29.59595 9.380852,61.43577 -4.864957,89.96032 -25.1424516,-23.12547 5.905935,-61.95171 -14.7661917,-85.60636 -27.4807773,9.443 -25.3352053,62.87896 -28.0086683,81.6511 -30.638974,-12.00414 -4.294538,-61.85044 -12.874353,-88.59105 -0.351521,-60.69379 -0.871363,-121.38871 -0.544189,-182.08387 z M 318.57503,527.04194 c 59.47397,-5.65951 120.68203,-38.27074 145.0283,-95.13264 0.78068,-20.13433 15.47144,-80.3917 -19.597,-65.32916 -22.98617,31.69779 -47.48672,63.76727 -68.46458,95.22063 -25.09413,15.71406 -33.37365,-14.46645 -27.56815,-32.79873 2.04282,-28.89691 -47.95614,-70.48411 -54.92029,-25.77836 -5.33135,35.82981 17.7521,70.48003 8.30042,106.07719 -25.30701,14.97499 -11.89445,-31.60983 -11.16902,-44.63003 9.17881,-32.15887 -37.83235,-66.61298 -51.02551,-25.93515 -13.92829,33.07092 -2.77791,84.07128 37.23592,91.58669 13.93826,3.31046 28.92592,2.17048 42.17991,-3.28044 z m -91.33932,-11.2188 c 5.93502,-46.9726 -53.30763,8.04506 -5.10145,6.70151 2.69003,-1.14345 4.8909,-3.70189 5.10145,-6.70151 z m -36.65622,-30.43945 c 17.26189,-13.96518 15.71637,-84.01808 -7.27019,-57.03134 8.41852,18.66559 -21.12293,56.36323 -28.50379,22.08774 6.77428,-12.09746 -3.57234,-40.64276 -10.46089,-14.54804 -8.6137,21.56889 22.74921,82.37024 46.23487,49.49164 z M 93.226902,392.72536 c 5.113879,-18.11908 -10.128454,13.19455 0,0 z m 16.086578,-11.96805 c -10.264782,2.03575 9.09565,3.52076 0,0 z m -9.906751,-30.96885 c 10.628691,-20.27074 -32.159945,-24.01765 -11.661619,-1.36989 3.169347,10.61834 25.24151,27.77471 11.661619,1.36989 z m 128.093391,-8.08371 c 55.82895,-11.1972 94.34435,-58.67106 121.88497,-105.21633 -3.81986,-42.69858 -47.41467,5.916 -54.78184,24.8497 -24.94915,33.30166 -66.10477,61.89569 -109.50356,52.45888 -18.68012,-6.59585 -55.13242,9.94622 -25.7983,27.36569 21.61833,10.51572 45.6569,0.41184 68.19873,0.54206 z m -14.7581,-54.48443 c -9.3013,-9.88107 -0.92753,11.79069 0,0 z m 17.94794,-0.87669 c -4.87943,-28.33734 -21.28834,12.84011 0,0 z m -65.05241,-29.22662 c 47.58364,-1.50773 3.01808,-57.10316 -16.12628,-13.35617 -6.75317,11.54893 6.61056,18.88419 16.12628,13.35617 z m 129.83925,-4.09405 c -4.84945,-13.03518 -3.61461,10.69272 0,0 z M 48.480266,188.47226 c -2.812367,-14.12964 -4.719491,-66.19042 -22.929053,-49.43465 0.05456,17.79825 -3.378367,49.80704 22.929053,49.43465 z M 310.73452,175.82887 c -0.0426,-30.28899 27.11378,-57.84397 32.22263,-80.800612 -20.8369,-28.051625 -67.26622,-30.316434 -95.3843,-12.733089 -18.82672,8.433862 -34.55108,-14.987514 -53.18148,4.233042 -21.45654,12.128004 -42.09425,-7.556906 -58.8142,17.660039 -40.858463,32.02195 22.37474,62.03188 53.08745,53.78737 35.72239,3.36735 71.73966,-35.89668 104.97154,-11.45387 9.45752,5.06381 -1.79845,52.06588 17.09836,29.30712 z M 109.72128,138.66148 c 16.01834,-17.03944 -18.52494,-37.5921 -6.83133,-6.49343 -0.41757,6.22218 5.25889,23.39051 6.83133,6.49343 z M 36.402196,561.04003 c 5.741689,-17.19606 11.62471,14.05333 0,0 z M 412.03018,5.6941639 c 3.14215,-12.215521 1.85295,10.2620131 0,0 z"
       id="path3237"
       inkscape:connector-curvature="0"
       sodipodi:nodetypes="ccccccccccccccccccccccccccccccccccccccccccccccccccccccccccccccccccccccccccccccccccccccccc" />
    <path
       style="fill:#9a100e"
       d="m 145.02324,532.12802 c -28.71078,-22.63635 -29.28549,-68.24056 -63.977289,-84.9957 -14.569968,-31.66884 37.756479,-64.95522 43.137739,-20.09175 12.39846,25.21023 17.40345,60.20434 47.02896,71.1618 31.23174,-0.32665 39.07768,-58.73801 27.32864,-83.94772 -36.8727,-18.48468 -2.21852,54.65315 -35.35156,43.03186 4.20265,-31.93898 -9.76234,-70.15901 -44.45539,-74.22475 -14.5515,-18.11467 -9.15402,-62.32 -41.985028,-57.78854 10.417594,38.38064 -3.689199,83.07605 -38.664409,103.91446 -28.5627675,14.95013 -46.9819086,44.01134 -66.473259,65.40378 -0.367255,-25.90655 -5.656926,-51.19112 -5.331857,-77.4719 0.164801,-138.10243 0.02331,-276.21016 0.0696,-414.3153138 34.1280951,22.4385438 12.20811,68.1838078 27.7686633,99.7513838 11.0879143,32.92559 11.1897174,74.00109 41.6566177,96.4368 37.61868,-8.23547 20.81606,-54.83336 15.090759,-80.67091 C 43.762678,80.204974 40.216578,41.498286 38.195446,2.8042462 c 83.366704,0 166.733414,0 250.100124,0 41.99458,31.5632458 92.27182,69.2282278 94.08973,126.8199838 4.39848,58.23264 -14.26293,114.68255 -31.64374,169.40762 -19.95732,26.82096 -36.08958,68.61649 -10.03374,96.83858 14.15826,13.7422 36.5871,51.52272 15.47962,64.31336 -10.13158,-26.76305 -15.33965,-88.27744 -55.96717,-75.15987 -20.82913,26.10575 4.37439,61.57776 0.23081,91.47994 4.29713,16.24216 -10.25728,46.37557 -12.60311,12.54852 5.16758,-26.84717 -0.63085,-89.36447 -41.3227,-64.82843 -23.37265,26.43849 -16.79946,69.84907 4.62668,95.59603 28.98008,31.99232 -14.54027,49.67993 -42.47808,44.85759 -24.75763,0.53247 -52.99446,-8.14777 -63.65063,-32.54955 z m 84.21049,-5.87875 c 25.72427,-34.3247 -54.08032,-44.95121 -24.27582,-4.7721 6.14398,6.21917 16.23734,8.34127 24.27582,4.7721 z m -1.73361,-184.54452 c 55.89635,-11.23543 94.53339,-58.75486 121.9167,-105.49954 7.40322,-36.57752 -40.29398,-11.42766 -42.63685,9.58115 -22.25367,32.73522 -53.451,59.81594 -91.63323,70.17638 -20.88566,3.11795 -73.0863,-18.71932 -65.05932,17.40068 20.10496,21.48664 52.31385,8.68277 77.4127,8.34133 z m -14.7581,-54.48443 c -9.3013,-9.88107 -0.92753,11.79069 0,0 z m 17.94794,-0.87669 c -4.87943,-28.33734 -21.28834,12.84011 0,0 z m -65.05241,-29.22662 c 47.58364,-1.50773 3.01808,-57.10316 -16.12628,-13.35617 -6.75317,11.54893 6.61056,18.88419 16.12628,13.35617 z m 129.83925,-4.09405 c -4.84945,-13.03518 -3.61461,10.69272 0,0 z m 17.77817,-83.92888 c -9.01428,-33.35157 64.19985,-66.73821 11.27626,-90.208137 -30.52212,-17.046999 -64.25268,-1.515639 -90.08665,9.155504 -17.3278,-14.184958 -36.26638,-13.609836 -48.01806,5.457711 -21.41853,-2.28989 -43.08173,-9.982744 -55.6739,13.963812 -27.2568,23.66536 4.52209,55.30419 32.74023,52.04349 36.40795,4.16051 71.23617,-9.88558 105.01695,-21.06798 27.50023,-11.55257 31.47981,66.37022 44.74517,30.6556 z M 112.05292,149.46757 c 9.71522,-13.45402 -14.343583,-52.347982 -10.56545,-17.20286 0.58756,5.52929 -0.69063,28.13168 10.56545,17.20286 z m 164.40322,407.00656 c 32.91593,-36.03534 89.65149,-19.77522 126.03428,-50.252 44.87095,-24.15042 83.5413,-69.12126 82.50645,-122.49482 5.28604,-59.61809 14.99169,-120.82243 47.3754,-172.41167 24.95921,-48.97871 52.60111,-98.97667 57.24867,-154.826253 4.68222,144.794193 1.2892,289.673173 2.37252,434.505573 -39.12774,-19.77717 -57.84608,-62.00494 -89.17048,-90.59552 -28.96198,30.97295 4.02966,80.76575 -27.11144,110.70518 -20.53255,29.36862 -52.74132,61.78912 -92.05795,52.98841 -34.17196,-3.57664 -79.54916,3.80736 -107.19745,-7.6189 z M 590.13824,14.363917 c 1.41015,-20.9529438 1.47902,20.830396 0,0 z"
       id="path3235"
       inkscape:connector-curvature="0"
       sodipodi:nodetypes="ccccccccccccccccccccccccccccccccccccccccccccccccccccccccccccccccccccc" />
    <path
       style="fill:#600d0c"
       d="m 145.02324,532.12802 c -28.71078,-22.63635 -29.28549,-68.24056 -63.977289,-84.9957 -14.569968,-31.66884 37.756479,-64.95522 43.137739,-20.09175 12.39846,25.21023 17.40345,60.20434 47.02896,71.1618 31.23174,-0.32665 39.07768,-58.73801 27.32864,-83.94772 -36.8727,-18.48468 -2.21852,54.65315 -35.35156,43.03186 4.20265,-31.93898 -9.76234,-70.15901 -44.45539,-74.22475 -14.5515,-18.11467 -9.15402,-62.32 -41.985028,-57.78854 10.417594,38.38064 -3.689199,83.07605 -38.664409,103.91446 -28.5627675,14.95013 -46.9819086,44.01134 -66.473259,65.40378 -0.367255,-25.90655 -5.656926,-51.19112 -5.331857,-77.4719 0.164801,-138.10243 0.02331,-276.21016 0.0696,-414.3153138 34.1280951,22.4385438 12.20811,68.1838078 27.7686633,99.7513838 11.0879143,32.92559 11.1897174,74.00109 41.6566177,96.4368 37.61868,-8.23547 20.81606,-54.83336 15.090759,-80.67091 C 43.762678,80.204974 40.216578,41.498286 38.195446,2.8042462 120.65737,3.0498038 203.21154,1.3924833 285.57072,6.4926958 344.24455,33.262015 391.08447,94.500809 383.45588,161.31292 c -2.30001,36.37946 -19.86968,69.2851 -23.8742,105.2381 -6.7846,30.91187 -25.24022,58.01854 -33.62022,88.03651 -0.2121,40.33171 50.19353,66.2218 37.47575,108.44854 -24.14866,-24.43901 -14.90455,-72.82091 -52.59845,-86.56756 -34.48078,-7.95064 -5.85736,64.05993 -38.61971,40.46527 -39.29938,-1.68651 -51.0398,50.56957 -34.63086,78.80511 17.10528,20.68532 36.51019,67.53864 -7.15877,67.89375 -31.19789,4.25669 -69.77199,0.0721 -85.40618,-31.50462 z m 84.21049,-5.87875 c 25.72427,-34.3247 -54.08032,-44.95121 -24.27582,-4.7721 6.14398,6.21917 16.23734,8.34127 24.27582,4.7721 z M 277.3597,364.07564 c -0.5897,-43.21018 35.68207,-72.7677 61.99658,-102.15595 23.36409,-21.80089 4.36424,-71.66384 -24.41389,-37.85345 -21.72134,31.48173 -53.23012,51.27769 -91.91551,45.17142 -25.12184,-1.79146 -54.02432,35.93436 -16.33741,39.60381 13.86603,1.28346 46.99719,-27.40354 48.04111,-11.65878 -28.64084,32.62479 -78.88757,3.6076 -107.10329,22.38924 -2.99221,37.92137 51.13809,32.79812 76.75426,39.27123 16.84055,5.25357 35.7348,14.41134 52.97815,5.23248 z M 108.3443,301.68841 c 53.45025,-15.734 103.60041,-40.5028 155.90291,-59.16573 36.49195,-12.44445 51.07018,-48.83173 51.29711,-84.2088 3.19556,-30.19025 55.45583,-57.33796 13.09606,-78.469754 -33.84488,-9.96209 -27.94623,-63.833171 -64.52991,-60.627578 -17.31871,8.19584 21.17912,21.548007 -3.1668,30.616749 -28.02767,5.402259 -57.68276,-1.844016 -85.36684,8.258607 -30.54785,10.893454 -55.71217,34.284905 -75.09583,59.507396 -11.193655,21.17698 13.31766,32.46335 21.17112,19.96733 24.21136,35.75171 72.84688,18.57956 107.94568,15.40711 18.65891,-5.83948 55.92374,-31.39925 61.96685,1.85221 -27.0145,28.92461 -74.7871,3.63073 -102.24719,33.70767 -33.3511,19.4957 -54.77441,55.94436 -92.49276,68.61114 -24.968361,10.40114 -23.98922,65.14869 11.5196,44.54365 z m 168.11184,254.78572 c 32.91593,-36.03534 89.65149,-19.77522 126.03428,-50.252 44.87095,-24.15042 83.5413,-69.12126 82.50645,-122.49482 5.28604,-59.61809 14.99169,-120.82243 47.3754,-172.41167 24.95921,-48.97871 52.60111,-98.97667 57.24867,-154.826253 4.68222,144.794193 1.2892,289.673173 2.37252,434.505573 -39.12774,-19.77717 -57.84608,-62.00494 -89.17048,-90.59552 -28.96198,30.97295 4.02966,80.76575 -27.11144,110.70518 -20.53255,29.36862 -52.74132,61.78912 -92.05795,52.98841 -34.17196,-3.57664 -79.54916,3.80736 -107.19745,-7.6189 z m 12.47949,-39.06752 c -16.02299,-11.09881 16.37315,-49.35358 10.42325,-17.47206 1.13793,6.29576 0.658,23.3512 -10.42325,17.47206 z m 3.52166,-56.72097 c 9.37488,-6.03551 -0.3297,4.84673 0,0 z M 590.13824,14.363917 c 1.41015,-20.9529438 1.47902,20.830396 0,0 z"
       id="path3233"
       inkscape:connector-curvature="0"
       sodipodi:nodetypes="ccccccccccccccccccccccccccccccccccccccccccccccccccccccccccccccccccccc" />
    <path
       style="fill:#000000"
       d="M 145.02324,532.12802 C 116.32575,509.4555 115.68802,463.88837 81.022641,447.07823 66.128637,414.24271 120.62622,382.69238 124.07943,428.4787 c 12.17737,32.50591 29.68844,67.51849 63.53679,81.73264 15.65103,27.87775 79.07735,-8.92535 69.92101,36.89976 -21.24517,32.07911 -74.69926,20.14583 -101.13108,0.80032 -4.55946,-4.65195 -8.32988,-10.04026 -11.38291,-15.7834 z m 131.4329,24.34611 c 33.21557,-36.10694 90.23157,-19.98436 126.80661,-50.69573 43.29169,-23.49689 81.17871,-66.21033 81.13469,-117.86345 6.49246,-61.9413 14.93158,-126.16678 49.36906,-179.68631 24.19448,-46.81777 59.88711,-153.106545 63.1005,-206.8941846 20.35194,55.0052686 3.78666,167.7658446 6.70781,221.8849546 0.20837,89.63923 -11.7244,178.13626 -11.5814,267.77555 -39.11428,-19.77706 -57.8457,-61.97702 -89.14247,-90.58013 -28.46832,31.42698 3.26191,81.52944 -28.24848,111.50106 -19.05101,30.34402 -52.95472,60.69965 -91.50197,51.66755 -35.49601,-2.53718 -72.16841,4.40339 -106.64437,-7.10931 z m 12.80391,-38.54205 c -12.74937,-24.44386 21.04807,-4.37601 0,0 z m -330.172663,-6.31544 c 14.506535,-24.90314 -15.096385,-64.99048 -8.714401,-91.33787 0,-139.15817 5.809601,-288.59803 5.809601,-427.7562023 C 8.3792198,23.907898 -21.697292,69.241066 -7.032508,100.1949 3.7953734,134.29303 8.3007982,171.86416 30.702083,201.01424 65.125557,215.68015 86.310033,161.53074 64.419002,138.69686 40.59342,103.07485 42.905328,58.374021 41.709726,17.381527 65.363636,-14.721866 110.12194,2.9840548 140.89019,-12.163267 c 45.29061,3.7100725 23.1543,78.380876 -15.03505,71.792106 -34.938393,19.80045 -34.90497,66.427591 -26.799181,100.749471 4.691471,21.51592 24.563071,18.38851 26.790881,-1.64845 19.1331,-16.40277 84.76266,9.70642 37.25023,24.21556 -37.99652,17.0234 -55.92579,63.96111 -98.703451,70.83912 -23.458998,6.94496 -84.115922,-11.76053 -69.4211185,31.3591 17.1223245,30.73447 59.9767315,23.37247 78.6157965,50.58352 19.743177,39.07046 -12.690263,81.62234 -46.25588,100.22166 -30.1249591,11.77161 -43.52947,59.69372 -68.24503,75.66782 z M 357.60154,466.39271 c -11.48598,-22.26593 11.91236,-15.81395 9.69202,2.3392 -3.23347,1.88909 -6.91124,-1.44207 -9.69202,-2.3392 z M 163.43667,456.29959 c 10.42207,-33.99766 -5.06031,-70.57739 -41.32027,-75.30646 -21.29759,-11.59999 -29.18341,-73.71012 3.35408,-56.72724 7.66295,32.35684 30.25561,59.60418 65.13269,50.18593 22.91596,6.41405 63.59417,1.60106 75.1584,20.39502 -17.8377,40.9332 -70.91812,-6.49307 -90.85483,19.383 -5.25957,12.79915 5.50356,36.66614 -11.47007,42.06975 z m 191.31384,-258.4259 c -31.19698,-14.80041 -41.8885,-89.86095 6.25237,-76.98513 28.58742,17.67658 24.03839,64.8475 0.47196,84.82801 -4.5693,2.3172 -6.72992,-5.13992 -6.72433,-7.84288 z M 590.13824,14.363917 c 1.41015,-20.9529438 1.47902,20.830396 0,0 z"
       id="path3231"
       inkscape:connector-curvature="0"
       sodipodi:nodetypes="cccccccccccccccccccccccccccccccccccccccccccccccccccccc" />
  </g>
</svg>
