<?xml version="1.0" encoding="UTF-8" standalone="no"?>
<svg
   xmlns:dc="http://purl.org/dc/elements/1.1/"
   xmlns:cc="http://creativecommons.org/ns#"
   xmlns:rdf="http://www.w3.org/1999/02/22-rdf-syntax-ns#"
   xmlns:svg="http://www.w3.org/2000/svg"
   xmlns="http://www.w3.org/2000/svg"
   xmlns:sodipodi="http://sodipodi.sourceforge.net/DTD/sodipodi-0.dtd"
   xmlns:inkscape="http://www.inkscape.org/namespaces/inkscape"
   sodipodi:docname="notsure31.svg"
   height="100%"
   width="100%"
   inkscape:version="0.48.4 r9939"
   version="1.1"
   id="svg2"
   viewBox="0 0 512 512">
  <sodipodi:namedview
     pagecolor="#ffffff"
     bordercolor="#666666"
     borderopacity="1"
     objecttolerance="10"
     gridtolerance="10"
     guidetolerance="10"
     inkscape:pageopacity="0"
     inkscape:pageshadow="2"
     inkscape:window-width="1185"
     inkscape:window-height="1030"
     id="namedview44"
     showgrid="false"
     inkscape:zoom="0.65186406"
     inkscape:cx="53.472291"
     inkscape:cy="375.65069"
     inkscape:window-x="100"
     inkscape:window-y="100"
     inkscape:window-maximized="0"
     inkscape:current-layer="svg2" />
  <metadata
     id="metadata48">
    <rdf:RDF>
      <cc:Work
         rdf:about="">
        <dc:format>image/svg+xml</dc:format>
        <dc:type
           rdf:resource="http://purl.org/dc/dcmitype/StillImage" />
        <dc:title></dc:title>
      </cc:Work>
    </rdf:RDF>
  </metadata>
  <defs
     id="defs46">
    <filter
       id="filter3108"
       x="0"
       y="0"
       width="1"
       height="1"
       inkscape:label="Lightness-Contrast"
       inkscape:menu="Color"
       inkscape:menu-tooltip="Increase or decrease lightness and contrast"
       color-interpolation-filters="sRGB">
      <feFlood
         id="feFlood3110"
         result="result1"
         flood-opacity="1"
         flood-color="rgb(0,0,0)" />
      <feBlend
         id="feBlend3112"
         in2="SourceGraphic"
         mode="normal"
         result="result2" />
      <feComposite
         id="feComposite3114"
         in2="SourceGraphic"
         k2="1"
         operator="arithmetic"
         result="result3" />
      <feComposite
         id="feComposite3116"
         in2="SourceGraphic"
         operator="in" />
    </filter>
  </defs>
  <rect
     style="opacity:0.98999999;fill:#000000;fill-opacity:1;fill-rule:nonzero;stroke:none"
     id="rect3171"
     width="516.97894"
     height="518.513"
     x="-3.0681245"
     y="-1.9108258" />
  <g
     id="g5337"
     transform="translate(-3.0681237,38.351554)">
    <path
       style="fill:#aecdf6"
       d="m 3.927897,255.0759 c 0,-83.33333 0,-166.666665 0,-249.9999975 166.666663,0 333.333333,0 500.000003,0 0,166.6666675 0,333.3333275 0,499.9999975 -166.66667,0 -333.33334,0 -500.000003,0 0,-83.33333 0,-166.66667 0,-250 z"
       id="path5351"
       inkscape:connector-curvature="0" />
    <path
       style="fill:#96afdc"
       d="m 3.927897,255.0759 c 0,-83.33333 0,-166.666665 0,-249.9999975 166.666663,0 333.333333,0 500.000003,0 0,166.6666675 0,333.3333275 0,499.9999975 -166.66667,0 -333.33334,0 -500.000003,0 0,-83.33333 0,-166.66667 0,-250 z m 305.000003,154.5 c -1.0676,-7.94838 -5.0088,9.55802 0,0 z m -96.70185,-1.13148 c 25.62486,-7.50506 67.1667,5.06332 66.16725,-35.08777 18.72251,-6.30812 -3.28135,48.11988 15.16359,22.64849 7.9075,-20.81531 7.32301,-41.30478 -18.29089,-24.46772 -17.45686,30.21505 -52.87934,22.77106 -83.52276,22.69386 -47.33314,-2.63497 -96.27842,-14.24734 -134.159949,-43.6922 -30.46632,-12.54869 -12.216839,26.4382 5.274082,30.0153 45.088277,24.36964 97.642157,28.88792 148.024107,26.14719 -1.20573,0.63169 -0.34279,3.94883 1.34457,1.74285 z m -57.96313,-6.93785 c 2.71881,-10.20421 8.77269,6.41785 0,0 z m -4.33502,-3.87165 c 0.92141,-4.11963 3.03015,2.20898 0,0 z m 3.5,-1.55902 c 3.17121,-5.31114 1.70951,3.61636 0,0 z m 101.5,-1 c 1.61977,-3.553 1.88774,4.57648 0,0 z m -128.40344,-0.84377 c 0.2571,-9.1512 4.36499,3.14741 0,0 z m 15.40344,-4.15623 c 2.71026,-4.00607 2.61714,4.90676 0,0 z m -14.72917,-3.60417 c 2.94363,-2.07916 1.79918,2.31654 0,0 z M 94.427897,385.0759 c 6.268753,-5.6624 3.061495,4.56632 0,0 z m 16.500003,0 c 4.79917,-4.9507 5.55698,5.28236 0,0 z m 9.55887,-0.5318 c -2.13508,-5.39683 12.42629,8.67615 0,0 z m -18.05887,-2.97304 c 9.41528,-5.73593 7.86004,4.53253 0,0 z M 62.927897,358.63492 c 2.010108,-4.09386 3.957376,3.61158 0,0 z m 209.095723,48.82564 c 1.56122,-5.94329 -7.52623,7.87694 0,0 z m 36.90428,-4.36083 c 20.01421,-8.20034 -4.31137,-46.43098 0.76733,-20.99951 5.20993,3.83976 -13.17614,28.65018 -0.76733,20.99951 z m 21.18358,-3.77383 c 16.36324,-4.4604 14.25618,-38.10448 -4.06923,-19.37379 26.17962,5.343 -10.48278,18.4043 4.06923,19.37379 z m 36.45479,1.25 c 29.35493,-13.15613 66.66996,-11.79483 88.92406,-38.15112 12.01173,-11.94399 26.15508,-42.53401 8.91622,-33.0481 -1.83301,-14.41198 -21.02485,12.55369 -19.70204,20.50639 -19.92259,28.05823 -57.62969,28.09027 -86.55951,39.50707 -14.95246,10.68879 3.20267,6.48481 8.42127,11.18576 z m 2.36163,-3.5 c 7.55461,-6.40077 -1.14674,4.14994 0,0 z m -7.72917,-8.60417 c 2.94363,-2.07916 1.79918,2.31654 0,0 z m 59.72917,-7.39583 c 3.57807,-4.43886 3.51707,5.18358 0,0 z m -13.43379,-2.10713 c -8.91811,-1.06857 5.46258,-0.72608 0,0 z m 15.94087,-0.88142 c 2.6088,-2.26508 2.19022,5.02088 0,0 z m -8.75708,-2.67373 c 4.74335,-2.98794 1.87579,2.50137 0,0 z m 5.25,0.26927 c 2.71896,-4.81919 3.87046,2.88196 0,0 z m -5,-3.60699 c 7.16878,-5.44677 -0.68723,4.16199 0,0 z m 23,-8 c 8.44517,-6.28147 14.53692,-0.53222 0,0 z m -1,-6.05902 c 6.81334,-7.17007 1.23218,4.2208 0,0 z m 27.25,-16.67319 c -14.17854,-5.24721 19.41807,3.35347 0,0 z m -12.25,-3.26779 c 2.29716,-4.22507 2.29716,4.22507 0,0 z m -211,50.87756 c 19.43508,-8.70974 -11.91329,-8.69514 -1.06831,0.16526 l 1.06831,-0.16526 z m 7,-3.87756 c -1.88774,-4.57648 -1.61977,3.553 0,0 z M 92.927897,346.51688 c -3.030152,-2.20898 -0.921416,4.11963 0,0 z m -66.647544,-4.39739 c 10.44015,-18.01213 -12.7698,11.06806 0,0 z m -9.352456,0.89739 c -2.442719,-2.35446 -1.246278,4.17763 0,0 z m 48,-1.94098 c 22.738657,-7.77602 -28.741853,-7.07298 -2.270099,-3.35627 1.805661,0.7718 -1.580585,10.56277 2.270099,3.35627 z m 31.5,2 c -13.072247,-6.67876 1.84414,4.0634 0,0 z m -76.38492,-6.73403 c -16.1264193,-13.61638 38.656122,-16.99875 11.460735,-5.6726 15.856822,4.78715 45.732043,-17.87009 13.504875,-17.93009 -16.291283,-13.68983 -51.1597976,-11.51183 -35.9991009,17.2368 1.3535159,2.81346 8.1493799,14.29168 11.0334909,6.36589 z m -7.422414,-9.62449 c -0.718421,-8.03454 3.920974,3.17663 0,0 z m 9.590186,-6.64933 c 25.515716,-9.505 -7.680405,7.84449 0,0 z m 2.717148,-6.92476 c 4.228873,-6.84572 5.640544,3.6721 0,0 z m -7,-6.06739 c 2.297162,-4.22507 2.297162,4.22507 0,0 z m 71,34 c -4.799173,-4.9507 -5.556973,5.28236 0,0 z M 241.88401,330.89733 c -0.32228,-10.40307 -3.9668,18.57487 0,0 z m 3.31468,-3.5645 c -3.32096,-17.96894 4.90488,-8.52808 -0.18589,-26.08737 -4.05326,-14.80838 0.90488,5.46621 0.36145,-12.09981 -1.14217,-30.40329 -5.87333,20.30235 -5.68349,28.92073 -1.39764,4.52564 2.98995,23.51854 5.50793,9.26645 z m -3.93497,-3.82417 c -1.93763,-7.43505 2.73542,-20.48624 1.34016,-4.72154 l -1.34016,4.72154 z m 6.23409,9.06724 c 0.16784,-9.16072 -4.27003,17.81659 0,0 z m 228.1863,-8.75 c -5.03277,-3.5007 11.32937,-7.25962 -4.3282,-5.83209 6.21832,-10.50731 -6.83983,-32.38316 -8.46171,-22.08755 13.59287,3.93629 -4.38669,29.33985 12.78991,27.91964 z m -248.75621,-1.75 c -1.88774,-4.57648 -1.61977,3.553 0,0 z m 7.00579,-5.30902 c 4.70811,-32.3464 1.55536,-65.3153 0.87829,-97.61722 6.21291,14.43019 0.69206,-26.22049 -3.92396,-0.87902 -1.78604,7.53076 -11.79319,31.94248 2.38945,15.74443 -4.02788,16.68972 4.48935,54.40456 -9.09845,54.22253 -5.50169,12.47787 7.66444,43.5336 8.39349,13.25874 5.64471,-29.84899 -2.17714,15.07255 1.36118,15.27054 z m -6.59655,-4.06689 c -0.77658,-8.92577 5.88322,4.71562 0,0 z m 1.70043,-3.99194 c -4.52394,-7.69345 4.62517,-10.01667 0,0 z m -3.10967,-5.13215 c 2.31542,-5.75915 2.31542,5.75915 0,0 z m -0.84211,-4.5 c 0.7424,-5.58348 0.7424,5.58348 0,0 z m 2,-2 c 0.7424,-5.58348 0.7424,5.58348 0,0 z m 4.34211,-6 c -1.27791,-8.16582 6.0242,3.56195 0,0 z m -0.9,-63.6 c -2.56154,-7.45502 4.04035,3.94598 0,0 z m 1.47895,-3.81667 c 0.57878,-5.03486 1.04498,3.51717 0,0 z m 3,-11 c 0.57878,-5.03486 1.04498,3.51717 0,0 z m -67.52008,104.84251 c 24.1726,-9.76803 15.06952,-44.05174 27.47032,-60.55011 -3.79582,-17.55497 8.46789,-43.48477 9.03796,-52.67878 -4.25869,8.44631 -42.31919,-8.81789 -34.04925,18.48958 7.81894,-4.84539 -3.59244,19.47891 4.354,4.39984 15.11455,15.257 -1.23156,48.54172 -3.73614,45.12549 -11.09219,-3.85848 -15.24408,38.57266 -9.41742,40.12664 -0.85433,2.86353 4.13165,10.45075 6.34053,5.08734 z m 3.44113,-2.39821 c 1.03281,-5.35245 4.59462,3.06864 0,0 z m 2.22195,-4.19348 c 5.13421,-5.57714 3.63943,4.85156 0,0 z m -11.22195,-3.22716 c 2.8566,-8.39273 2.36988,5.15251 0,0 z m -1.92105,-7.02366 c 0.57878,-5.03486 1.04498,3.51717 0,0 z m 5.2192,0.78519 c -0.98464,-11.91118 7.71333,-3.74531 0,0 z m 4.86852,-3.36852 c 3.28507,-5.30679 2.85525,4.80876 0,0 z m -6.71044,-7.07082 c -1.10748,-7.3178 4.53603,2.89364 0,0 z m 7.04377,0.0708 c 0.82285,-3.46123 2.33496,4.33509 0,0 z m -4.42105,-9.41667 c 0.57878,-5.03486 1.04498,3.51717 0,0 z m 1.92105,-0.64235 c 2.1984,-5.15198 0.32921,7.00943 0,0 z m 9.75,-4.63031 c -5.90811,-5.77767 7.23837,0.62652 0,0 z m 5.25,-9.75165 c 0.92141,-4.11963 3.03015,2.20898 0,0 z m -3,-2.05902 c 2.20521,-5.25942 2.05681,4.83018 0,0 z m 4.25,-2.18933 c -0.2195,-15.83554 8.03301,-0.37346 0,0 z m 2.75,-7.31067 c -2.29716,-4.22507 -2.29716,4.22507 0,0 z m -6.26443,4.40223 c -3.28593,-12.34545 8.1538,-7.00439 0,0 z m 9.26443,-1.2842 c 1.17513,-6.89958 3.16681,2.75067 0,0 z m 1,-5.55901 c 0.63134,-8.76939 1.84397,6.36537 0,0 z m -5.92971,-2.80902 c -1.50084,-12.95146 5.0695,3.43866 0,0 z m 3.48679,0.34235 c -3.79044,-9.48986 5.32339,-0.60148 0,0 z m -8.6647,-2.15886 c -1.64519,-6.2707 11.78932,4.68618 0,0 z m 11.77429,0.39984 c -1.95536,-6.62621 10.46956,-5.76193 0,0 z m -3.66667,-5.77431 c 1.28407,-6.08035 2.49346,3.71883 0,0 z m 7.07895,-2.97569 c 0.57878,-5.03486 1.04498,3.51717 0,0 z m -4.57895,-0.58333 c 3.17121,-5.31114 1.70951,3.61636 0,0 z m -3.42105,-6.41667 c 0.57878,-5.03486 1.04498,3.51717 0,0 z m 4.95168,-5.58333 c 1.19331,-10.96429 2.91166,3.58329 0,0 z m -3.47072,-1.90307 c -0.12379,-12.05615 6.59231,1.4781 0,0 z M 177.9279,218.6349 c 0.92141,-4.11963 3.03015,2.20898 0,0 z m 18.27083,-4.16319 c 2.94363,-2.07916 1.79918,2.31654 0,0 z m -22.02083,-2.09599 c 2.59877,-6.34066 6.59448,3.49156 0,0 z m 3.41667,-3.96651 c -4.72757,-4.3608 4.30041,-0.16064 0,0 z m 28.41228,-4.75 c 0.57878,-5.03486 1.04498,3.51717 0,0 z m 271.37834,107.34759 -1.37776,0.42341 1.37776,-0.42341 z m -9.45729,-3.9309 c -2.29716,-4.22507 -2.29716,4.22507 0,0 z m 0,-4 c -2.29716,-4.22507 -2.29716,4.22507 0,0 z m -32.25,-9.42266 c -3.18905,-6.20551 0.0707,8.24678 0,0 z m 19.25,-1.67154 c 20.67576,5.05452 -10.79618,-15.09408 5.68103,-12.07162 -22.36039,-9.71957 -53.173,-22.4058 -73.7446,-21.56835 10.03886,18.84272 37.9589,28.44212 59.21255,28.28316 4.20846,-2.04671 6.04879,11.99693 8.85102,5.35681 z m -35.4278,-10.57824 c 5.66755,-8.94132 9.16361,8.26003 0,0 z m 27.69863,-4.93173 c 2.94363,-2.07916 1.79918,2.31654 0,0 z m -47.53526,-5.9936 c -2.28567,-7.46004 5.9141,1.63045 0,0 z m -6.05388,-4.05387 c -4.88222,-6.80755 4.93887,-5.45769 0,0 z M 37.127897,289.8759 c 18.4886,-5.84474 -6.236611,-10.16408 -0.03551,1.22112 l 0.03551,-1.22112 -2e-6,0 z m 393.800003,0.73518 c -3.93232,-5.87703 -4.86515,1.72533 0,0 z m -203.4,-14.03518 c -1.05888,-12.2348 -3.50635,11.18954 0,0 z m 3.06228,-2.75 c -2.55113,1.9559 3.23859,5.04335 0,0 z m -41.35167,-0.38295 c 4.0193,-8.83933 -1.18515,-5.70019 -1.0176,0.60681 l 1.0176,-0.60681 z M 98.427897,269.0759 c 10.358363,-10.17344 -5.686499,-2.76771 0,0 z m 147.484693,-3.25 c -2.03524,-7.64565 -1.39578,10.87665 0,0 z m -50.26711,-6.48625 c -2.4733,3.91876 3.89975,10.4776 0,0 z m -25.0553,1.48625 c -2.55113,1.9559 3.23859,5.04335 0,0 z m 85.0248,-2.51166 c -1.73173,2.68986 1.71747,8.06099 0,0 z m -78.22103,0.36515 c -1.32988,-9.96718 -1.62171,15.52561 0,0 z m 205.17232,2.89651 c 2.03668,-12.49971 -4.12531,-10.40923 0,0 z m -143.98243,-4.76903 c -2.08545,2.24274 1.94752,4.78918 0,0 z m 9.64875,2.21188 c -1.86654,-11.05033 7.02457,-31.79098 -1.39852,-10.26125 -0.43127,1.9234 -4.4076,16.76602 1.39852,10.26125 z m 5.29948,-0.67202 c -2.31648,1.79926 2.0792,2.94355 0,0 z M 121.9279,258.0759 c -1.88774,-4.57648 -1.61977,3.553 0,0 z m 12.88169,-3.55887 c 15.61435,-17.3295 -29.70315,-17.09904 -8.38167,-1.30578 1.54735,1.27863 8.32774,7.26595 8.38167,1.30578 z m -5.88169,-3.44113 c 2.02136,-10.73762 0.7032,10.48067 0,0 z m 4.01531,1.30902 c -1.42795,-6.18497 4.96913,-0.16087 0,0 z m -14.89122,3.42431 c -3.47407,-0.82256 5.10553,5.33782 0,0 z m 58.44923,-1.73333 c 6.05352,-14.21853 -6.85321,4.527 0,0 z m 45.08262,-1.26903 c -2.08545,2.24274 1.94752,4.78918 0,0 z m 6.17409,-1.73097 c -4.71692,2.44072 2.26599,9.3996 0,0 z m -104.84534,1.71057 c -4.71346,0.07 0.74129,5.28376 0,0 z m 129.67759,0.0394 c -2.55113,1.9559 3.23859,5.04335 0,0 z m -14.14376,-11.26852 c -2.13545,-24.35753 0.52715,24.14206 0,0 z m -39.39645,9.84352 c -4.22965,-3.42855 4.52042,8.05178 0,0 z m 51.4821,-0.0542 c -2.31648,1.79926 2.0792,2.94355 0,0 z m 4.05177,-2.53986 c -2.08545,2.24274 1.94752,4.78918 0,0 z m -32.05177,-1.46014 c -2.31648,1.79926 2.0792,2.94355 0,0 z m 65.17946,-3.39808 c 1.61965,-13.99297 -10.66367,15.8537 0,0 z m -34.81426,1.62731 c -4.23338,0.92292 0.89046,5.21432 0,0 z m -82.3652,-5.22917 c -2.31648,1.79926 2.0792,2.94355 0,0 z m 83.3652,-2.27083 c -4.20972,-1.4445 1.0571,10.90565 0,0 z m -49.68298,-1.69607 c 8.12655,-6.23125 -2.68796,-27.10546 -2.87557,-7.89311 -6.88318,-6.30025 1.68217,9.62401 2.87557,7.89311 z m -2.2161,-10.83171 c 4.73173,-10.29809 5.36442,-5.02967 0,0 z m 75.74134,9.33826 c 14.6284,0.83011 6.70121,-8.99418 -2.07546,-12.17693 3.16344,-11.19101 -5.79854,20.5289 2.07546,12.17693 z m -1.81163,-2.20349 c 3.05277,-6.03801 4.97447,5.62895 0,0 z m 3.73097,3.70002 c -6.84019,-3.94037 -2.0066,2.63165 0,0 z m 14.51903,0.0307 c 2.00037,-11.65701 -6.43063,-2.75969 0,0 z M 167.04997,233.4009 c -4.22965,-3.42855 4.52042,8.05178 0,0 z m 129.87793,0.82781 c 12.66714,-6.11061 -4.27367,-0.69495 0,0 z m -88.27273,-6.18063 c -3.63636,-11.37307 0.076,13.49207 0,0 z m 79.77273,3.02782 c -1.97504,-3.88265 -2.96486,4.80422 0,0 z m 6.53713,-3.17935 c -5.2118,-24.55511 34.67591,-16.88104 49.13655,-29.45655 32.06295,-19.54251 -18.24626,-36.88378 -32.40232,-48.88696 -1.07929,3.37287 -9.26144,29.48032 -21.12742,38.35884 -8.59171,11.18686 -1.31515,43.35067 -0.6664,32.93816 2.52491,12.32284 1.08081,-5.84067 5.52323,10.2821 l -0.46364,-3.23559 z m -4.37046,-11.48732 c -5.36153,-11.26921 5.65297,-6.43743 0.11941,0.0426 l -0.11941,-0.0426 z m 8.34537,-4.35584 c 7.88345,-9.69692 -2.39043,7.01459 0,0 z M 292.9279,200.0759 c 2.29716,-4.22507 2.29716,4.22507 0,0 z m -126.32466,29.34201 c 5.55813,-6.71217 -5.21826,-1.23941 0,0 z m -2.55125,-5.60868 c -3.70587,-1.12329 5.18101,5.48557 0,0 z m 132.44341,-1.21466 c -5.59183,-15.69662 1.82853,11.23583 0,0 z m -16.48263,-2.62349 c -4.25545,-4.15983 4.90876,10.30395 0,0 z m 19.11147,-0.50883 c -3.63373,-3.75763 3.2934,9.99534 0,0 z m -132.08578,-1.46848 c 14.87488,-10.29941 -1.81681,-41.92877 4.38891,-39.0113 11.5594,8.04768 38.77873,22.49491 26.79507,-4.48747 4.56561,-17.63763 -10.12637,-41.37584 -23.74475,-17.32065 -27.56603,13.89448 -8.25811,40.38497 -12.88286,60.23758 -0.74307,3.59285 4.83844,3.56497 5.44363,0.58184 z m -2.40031,1.08213 c 2.09465,-7.34487 0.85894,6.9854 0,0 z m -0.6668,-7.44764 c -4.71764,-11.52713 4.87239,2.34633 0,0 z M 187.9279,168.2759 c 2.16895,-11.95637 5.6705,3.48462 0,0 z m -5.93661,-4.92149 c 2.62199,-11.03123 8.27927,-11.75924 0,0 z m 6.26994,-14.73452 c 2.39205,-4.41999 0.16618,6.54852 0,0 z m 99.66667,62.88458 c -2.4252,-14.41667 -5.49066,1.90059 0,0 z m -3.63837,-4.92857 c -0.4726,-4.86209 -2.39152,5.69266 0,0 z m -0.75746,-5.22917 c -2.31648,1.79926 2.0792,2.94355 0,0 z m -104.73904,-1.32826 c 3.7639,-10.47322 -7.70306,9.41282 0,0 z m 38.73487,-0.54257 c -4.42742,-4.0411 2.63804,7.228 0,0 z m 71.09819,-14.75647 c 17.814,1.89517 18.54485,-52.18002 13.31986,-21.80023 -2.8944,-33.44053 -37.44673,17.63003 -24.16853,32.7413 4.02965,6.96884 7.55614,-9.85878 10.84867,-10.94107 z m -11.69819,6.96346 c 2.71896,-4.81919 3.87046,2.88196 0,0 z m 9,-14.16601 c 2.615,-3.69004 1.1977,5.98001 0,0 z m -6,-7.38196 c 1.24628,-4.17763 2.44272,2.35446 0,0 z m 1,-2.8985 c 5.2417,-7.94551 5.24904,0.94976 0,0 z M 147.59018,197.8259 c -2.55113,1.9559 3.23859,5.04335 0,0 z m 90.0553,-5.48625 c -2.4733,3.91876 3.89975,10.4776 0,0 z m 110.28242,3.12926 c -2.59742,-5.14411 -2.38654,8.92372 0,0 z m -132.39583,-1.12218 c -2.31648,1.79926 2.0792,2.94355 0,0 z m -59.19825,-18.42457 c 20.95942,-28.83924 -45.32833,12.64978 -8.05291,15.88112 6.60433,-0.62816 4.56695,-11.98498 8.05291,-15.88112 z m 61.19825,15.42457 c -2.31648,1.79926 2.0792,2.94355 0,0 z m 2,0 c -2.31648,1.79926 2.0792,2.94355 0,0 z m 139.39583,0.67015 c -2.44272,-2.35446 -1.24628,4.17763 0,0 z m -144.34406,-7.21001 c -2.08545,2.24274 1.94752,4.78918 0,0 z m -5.05177,-1.46014 c -2.31648,1.79926 2.0792,2.94355 0,0 z m -1.53932,-5.14965 c -0.70914,-12.75129 -12.8122,-22.66253 -2.71034,-5.0551 -0.61754,-2.09067 5.1264,14.83228 2.71034,5.0551 z m 37.53932,-20.85035 c -2.31648,1.79926 2.0792,2.94355 0,0 z m -46.3652,-3.74057 c -0.98485,-6.38987 -1.65838,9.55094 0,0 z m 11.42331,-3.78026 c -2.55113,1.9559 3.23859,5.04335 0,0 z m -11.55373,-11.75 c 17.65589,2.88189 9.66,-38.707785 0.46601,-11.28011 -3.01243,5.83297 -2.57637,30.59841 -0.46601,11.28011 z m 4.89145,-2.44098 c 0.45681,-5.39488 2.21684,3.68352 0,0 z m -5,-5.94471 c -0.74718,-10.36117 7.21832,-3.44152 0,0 z m 7.65066,-12.08228 c 0.68401,-7.68812 3.95918,5.71447 0,0 z m 0.0116,23.21797 c -2.55113,1.9559 3.23859,5.04335 0,0 z m -3.66226,1.19098 c 5.56757,-2.41033 -6.05015,0.41402 0,0 z m 14.85943,-12.94098 c -4.68573,2.20982 2.0855,8.0519 0,0 z m -2.0294,-8 c -4.71692,2.44072 2.26599,9.3996 0,0 z m 3.57384,1.86041 c 9.43736,-13.49128 -3.32271,-5.04226 -0.18711,0.64923 l 0.18711,-0.64923 z m -1.60323,-10.36041 c -4.59374,2.07391 2.71184,12.444 0,0 z m -4.80064,2.74055 c -1.56674,-11.00651 -5.42528,2.179 0,0 z m 84.884,-10.54956 c -3.30913,-3.90583 -0.66192,9.63708 0,0 z m -89.22806,-5.960019 c -2.08545,2.242739 1.94753,4.789169 0,0 z m -1.53387,-4.405965 c -4.22965,-3.428579 4.5204,8.051784 0,0 z m -0.1527,-5.825004 c -4.23338,0.922922 0.89046,5.214319 0,0 z m 4.21277,-13.25 c 21.85436,11.019473 39.38013,-32.359076 6.59062,-15.941273 -3.42701,0.559703 -10.46311,23.777019 -6.59062,15.941273 z m 2.86687,-11.25 c -0.87306,-26.459355 37.83377,-25.175117 38.18415,-27.927893 -26.47695,-24.194333 40.85004,-20.561543 14.61798,2.356501 -17.34763,14.201534 28.18874,22.377809 18.34541,-1.923332 1.45276,15.225555 12.5012,-3.348345 12.90077,-1.646045 11.71727,-18.986691 2.41827,44.813333 7.52422,12.097128 1.2353,-9.977169 1.18912,-30.295213 3.59652,-8.160342 3.85416,-36.6411245 0.87375,45.679523 4.11171,8.958634 0.45169,-15.03066 3.33897,28.339227 3.82716,2.118399 0.034,-4.101594 -0.24778,-27.810213 0.78129,-12.512078 4.88127,-37.30245365 -51.7294,-40.0825291 -70.16524,-16.3865 -16.07866,12.716682 -39.88563,27.864734 -38.51553,50.277306 2.4229,-1.784509 3.38376,-4.74912 4.79156,-7.251778 z m -1.48472,-0.293128 c 3.11262,-5.623279 -0.25279,3.792449 0,0 z m 63.89788,-30.645655 c 5.20934,-4.943358 3.83498,3.932286 0,0 z m 26.53783,-5.061217 c 1.61977,-3.553001 1.88774,4.576485 0,0 z m 7.66228,37.75 c -2.55113,1.955896 3.23859,5.043349 0,0 z m -1.72567,-5.5 c -2.45001,-15.51296 0.19589,20.35261 0,0 z m -14.91508,-9.219759 c -10.6419,-14.825502 3.42804,9.405287 0,0 z m -39.33595,-1.677995 c -5.79825,-1.343369 -0.0439,10.144941 0,0 z m 67.91859,-1.081413 c -2.31648,1.799262 2.07919,2.943546 0,0 z m -72.87912,-0.270833 c -2.36113,-7.549629 -1.5206,6.233388 0,0 z M 235.68332,44.42237 c 24.17565,1.409923 -15.82935,-3.007058 0,0 z m 22.74895,-10.35353 c -1.15079,-7.968213 -7.14296,5.234547 0,0 z"
       id="path5349"
       inkscape:connector-curvature="0" />
    <path
       style="fill:#768bb5"
       d="m 4.0312494,413.3259 c 2.1822791,-27.51382 -3.78557245,-55.94273 2.9979631,-82.8615 7.8049085,31.18602 35.8668355,1.3077 53.6408215,-3.28947 12.134586,-19.18091 -48.4345,-14.16209 -15.669312,-40.32692 9.137165,-1.60635 15.569497,-9.71581 25.601508,-7.99542 -1.906614,19.696 29.384308,-10.34121 18.646539,-5.73964 16.417781,9.19393 14.095821,-7.5772 29.727401,-1.56401 24.43964,3.5702 29.98264,-42.07063 3.26271,-28.14322 -13.83904,16.96027 -36.478844,19.66495 -47.436882,36.89696 C 81.082809,260.34823 35.44354,281.5153 27.898144,294.8618 18.310697,301.09368 -3.6844469,314.63118 3.7352627,293.11362 4.3853335,197.10205 3.7190759,101.08837 3.927897,5.0759025 93.335542,5.5079093 182.75602,4.273815 272.15277,6.1882067 248.9063,13.393454 232.28841,33.728536 214.94943,49.163429 c -7.59079,9.684055 -10.90753,42.560095 -1.81609,14.566701 4.38101,-19.114282 40.50912,-18.218656 33.46234,-22.67897 9.88115,9.81673 16.05052,21.084035 20.28342,27.600003 -11.57834,35.840457 33.62356,5.145328 21.32057,-15.234399 -6.13541,-20.367822 -3.2974,-16.836065 4.76695,-1.607383 9.85141,22.989203 12.77029,-2.895782 17.00565,-5.842704 -0.1041,8.636017 -6.85833,38.892614 -0.61343,15.344451 0.12382,18.26115 4.50244,-11.067843 6.23772,8.159638 2.70069,-9.079126 2.96308,-21.94038 3.90481,-4.66624 7.5693,-23.366997 -0.51505,-59.0833104 -30.42394,-59.0046007 71.4788,-1.3864439 143.25679,-0.4409989 214.85047,-0.7240231 0,166.6666678 0,333.3333278 0,499.9999978 -166.66667,0 -333.33334,0 -500.000003,0 0.034451,-30.58333 0.068902,-61.16667 0.1033524,-91.75 z m 305.5473106,0.28203 c 20.61599,-22.6006 2.79619,-61.81911 -28.70663,-45.40743 -19.53826,17.45611 -38.98029,34.96236 -67.51745,26.30807 -52.55935,-0.31498 -108.83071,-8.88273 -151.245042,-42.11568 -20.097104,-17.68951 29.450194,-3.51378 9.615477,-21.56952 -21.305814,0.94527 -50.250177,30.71778 -19.311752,45.06507 29.678015,25.78613 70.886587,29.87425 108.292107,34.38371 14.53053,-1.65043 29.16097,-2.95443 21.71573,1.6966 34.2266,1.15276 67.91581,-6.50932 101.90243,-7.62651 15.25836,11.67556 16.5184,-36.97911 23.19461,-10.95958 -3.14248,3.59209 -7.50578,24.54209 2.06052,20.22527 z m -168.8327,-6.74999 c 4.69492,-4.46387 2.81135,2.99425 0,0 z m 71.18204,-2.28204 c 2.31542,-5.75915 2.31542,5.75915 0,0 z m -57.55385,-3.58713 c 3.01764,-8.59259 7.4706,6.18013 0,0 z M 275.3419,396.3259 c -11.74049,-17.55889 24.71617,-15.79873 4.95511,-2.2262 -0.69558,0.73395 -5.6499,8.64812 -4.95511,2.2262 z m -148.414,-3.25 c 1.61977,-3.553 1.88774,4.57648 0,0 z m -31.500003,-8 c 3.171211,-5.31113 1.709533,3.61636 0,0 z m 16.500003,0 c 2.71026,-4.00607 2.61714,4.90676 0,0 z m -10,-2.88337 c 3.99016,-6.13685 5.73688,3.78609 0,0 z m 172.53346,29.11806 c 2.68132,-14.61576 -13.4802,5.23367 0,0 z m 77.65354,-7.02169 c 33.24514,-3.55792 66.35535,-13.24096 95.79951,-28.86782 17.60248,-20.86771 48.51805,-49.10201 37.07183,-78.14717 -16.30423,-30.01673 -53.64538,-24.83046 -80.14606,-38.91852 -13.93266,-9.05037 -34.59468,-10.15449 -20.44218,10.7266 19.99752,20.02955 69.23508,23.61582 62.20972,61.6984 -9.56352,32.40745 -40.08946,50.58649 -72.54079,52.59537 -8.68333,-2.77676 -52.31734,26.41846 -21.95203,20.91314 z m 86.313,-40.213 c 2.47335,-4.61318 3.55173,4.439 0,0 z m 6.25,-3.66228 c 4.74335,-2.98794 1.87579,2.50137 0,0 z m -5.75,-11.97992 c -0.63996,-9.60714 4.88024,-1.46946 0,0 z m -22.75,-61.38896 c -6.60324,-5.2858 11.70088,5.10021 0,0 z m -13.22994,-7.44467 c -1.46178,-4.97011 5.12416,5.04515 0,0 z M 330.9279,401.2926 c 22.90938,-7.26681 4.34049,-42.66186 -4.63316,-19.86685 20.81262,7.57517 -18.54698,19.26416 2.88191,22.72563 l 1.75125,-2.85878 0,0 z m 4,3.39029 c -2.66431,-5.62154 -3.53964,2.42964 0,0 z M 243.94321,390.8259 c 30.41032,-5.41458 -19.55908,-14.44449 -1.97401,1.22067 l 1.07827,-0.15308 0.89574,-1.06759 z m 186.48469,-32.75 c -1.08524,-4.16014 -3.54884,5.67334 0,0 z m -320.60272,-8.65367 c 7.70778,-15.22174 -43.908874,-5.96896 -14.161347,1.7423 4.703767,1.13645 9.952887,0.82995 14.161347,-1.7423 z m -7.89728,-3.34633 c 2.29716,-4.22507 2.29716,4.22507 0,0 z m 4,0 c 2.29716,-4.22507 2.29716,4.22507 0,0 z m 137.81336,-1.83945 c 10.60754,-35.43669 10.87414,-73.11701 10.88185,-109.71823 -9.00852,-3.57343 -9.46678,34.94552 -12.49133,47.78967 -2.1641,21.11953 -3.43903,42.39011 -3.14278,63.61393 0.99858,2.75215 5.45806,1.21445 4.75226,-1.68537 z m 198.15601,-7.66055 c -4.23338,0.92292 0.89046,5.21432 0,0 z m -206.07103,-35.5 c 4.36684,-37.02841 1.64118,-74.41761 1.78762,-111.47639 -1.83109,30.7821 -25.45171,59.5747 -14.62127,91.01907 -0.26489,15.03735 -7.06878,56.92817 10.58975,50.92694 0.99211,-10.13878 0.66565,-20.38452 2.2439,-30.46962 z m -11.23167,24.33333 c -4.72757,-4.3608 4.30041,-0.16064 0,0 z m -1.66667,-10.77431 c 1.03646,-7.63952 2.56079,5.16375 0,0 z m 3.5,-11.55902 c 0.82285,-3.46123 2.33496,4.33509 0,0 z m 50,34 c 31.46832,-0.29166 13.16534,-41.15485 -1.95621,-38.42301 1.11043,-14.51812 -13.52065,38.79841 -2.03338,24.24425 -0.81512,5.32347 -10.74609,21.88402 3.98959,14.17876 z m -0.5,-9.5 c 2.20521,-5.25942 2.05681,4.83018 0,0 z m -4,-10.94098 c 0.92141,-4.11963 3.03015,2.20898 0,0 z M 61.927897,329.51688 c -3.030152,-2.20898 -0.921416,4.11963 0,0 z M 166.4279,327.0759 c 19.54969,-8.2101 59.74125,-28.02631 34.71995,-52.11482 -18.05564,-7.94925 4.44767,-58.94561 -3.65917,-25.85631 -7.24648,15.98102 11.58886,30.28406 10.6707,7.29276 5.79168,-14.18388 -2.00952,-40.48684 -5.69146,-36.43224 13.02034,-13.77693 -14.07644,-55.58114 -1.08387,-53.47998 12.90701,32.59495 6.42172,-16.63509 12.22745,-27.35365 6.89735,-10.70794 -0.61672,-47.702596 -6.09601,-41.656117 2.32235,30.795657 -19.75543,57.782367 -49.4704,66.248187 -19.93057,2.6721 -32.35502,32.41453 -10.52544,42.0741 3.30624,-10.08003 7.87,-27.55881 3.574,-6.80932 -6.78094,24.75913 7.87824,44.58344 14.34328,65.79574 -1.72027,20.42751 -23.77315,47.16725 0.99097,62.29165 z m 20.5,-13.5 c 2.31542,-5.75915 2.31542,5.75915 0,0 z m -23.5,-1.5 c 0.82285,-3.46123 2.33496,4.33509 0,0 z m 3,0 c 1.97504,-3.88265 2.96486,4.80422 0,0 z m 7.5,-1.41667 c 3.22135,-7.04985 3.12164,5.36139 0,0 z m -12,-3.02431 c 0.92141,-4.11963 3.03015,2.20898 0,0 z m 34,-2.11804 c 2.615,-3.69004 1.1977,5.98001 0,0 z m 0,-4.44098 c 2.61715,-4.90676 2.71026,4.00608 0,0 z m -25.5,-3 c 0.82285,-3.46123 2.33496,4.33509 0,0 z m 9.5,-34 c 1.61977,-3.553 1.88774,4.57648 0,0 z m -14.20812,-14.54145 c -0.52197,-13.30277 8.21854,-15.12797 0,0 z m 2.90343,-19.5157 c 1.44401,-6.03902 1.71563,9.77398 0,0 z m 28.42069,-0.61106 c -5.20726,-6.40553 2.99839,-3.82245 0,0 z m -49.116,-2.33179 c 1.61977,-3.553 1.88774,4.57648 0,0 z m 20.01914,-10.31301 c 4.09568,-14.62937 10.87058,-15.28609 0,0 z m -15.94019,-1.10366 c 0.57878,-5.03486 1.04498,3.51717 0,0 z m 2.07894,-7.58333 c 0.7424,-5.58348 0.7424,5.58348 0,0 z m 36.79397,-9.5 c -19.56001,0.16886 -1.95234,-14.69039 0,0 z m -13.95186,-2 c 2.31542,-5.75915 2.31542,5.75915 0,0 z m -5,-15.5 c 1.61977,-3.553 1.88774,4.57648 0,0 z m -14,-6.94098 c 0.43459,-6.30151 2.76217,2.86881 0,0 z m 45.5,-8.05902 c 0.82285,-3.46123 2.33496,4.33509 0,0 z m 242.29411,155.35622 c -3.00718,-2.68947 1.50837,11.4681 0,0 z M 297.9279,314.0759 c 0.11534,-9.88079 -7.49016,4.15265 0,0 z m 4.60417,-1.72917 c -2.31648,1.79926 2.0792,2.94355 0,0 z M 44.927897,311.0759 c 19.948308,-6.93963 11.029745,-32.68149 -3.740499,-13.67886 -1.571098,4.63349 -0.360032,10.685 3.740499,13.67886 z m 6,-7.94098 c 0.434585,-6.30152 2.762166,2.8688 0,0 z m -4,-7.05902 c 2.297162,-4.22507 2.297162,4.22507 0,0 z m 6.611934,-1.5689 c 1.181114,-8.3257 4.782224,6.97822 0,0 z m -2.611934,13.00988 c -3.030152,-2.20898 -0.921416,4.11963 0,0 z M 270.63844,301.5759 c -5.8575,-32.42301 22.18473,-40.35554 43.11944,-55.52631 8.24699,-15.64952 4.04287,-34.66876 27.65995,-35.59163 25.98177,-3.65053 24.53348,-30.77824 2.34177,-39.38463 -15.62703,-21.77117 -57.94146,-42.52688 -65.58214,-3.23892 -5.23642,33.1463 -0.92066,67.12132 -8.79661,100.10619 -1.53343,8.95148 -5.93121,34.01257 1.25759,33.6353 z m -0.63159,-20.91667 c 0.57878,-5.03486 1.04498,3.51717 0,0 z M 287.4279,262.0759 c 0.82285,-3.46123 2.33496,4.33509 0,0 z m -8.5,-4.45295 c 3.44819,-13.56824 19.7656,-28.46515 6.38804,-6.81075 -1.09977,0.25351 -3.95477,11.65872 -6.38804,6.81075 z m 21,-12.54705 c 2.29716,-4.22507 2.29716,4.22507 0,0 z m 6,0 c 2.29716,-4.22507 2.29716,4.22507 0,0 z m -3,-2.5 c 2.31542,-5.75915 2.31542,5.75915 0,0 z m 4,0.059 c 0.92141,-4.11963 3.03015,2.20898 0,0 z m 3.67629,-1.6889 c -11.34154,-12.35651 9.42311,4.5323 0,0 z m -10.55129,-6.7451 c 1.73582,-4.65384 1.92284,2.98881 0,0 z m 4.54167,0.20833 c -1.5938,-6.27627 6.033,1.95474 0,0 z m -9.66667,-2.33333 c 1.61977,-3.553 1.88774,4.57648 0,0 z m 13,-2 c 2.29716,-4.22507 2.29716,4.22507 0,0 z m 6.62354,-0.53866 c -3.97313,-7.71908 3.94184,3.33669 0,0 z m -35.62354,-0.90232 c 0.92141,-4.11963 3.03015,2.20898 0,0 z m 37.66667,-0.22569 c -4.86884,-7.66519 6.5585,-0.081 0,0 z M 286.5279,226.4759 c -2.56154,-7.45502 4.04035,3.94598 0,0 z m 8.06667,-0.0667 c -3.41089,-5.61319 5.4629,1.92344 0,0 z m 14.33333,-1.3333 c 1.53428,-6.0658 1.83133,5.64672 0,0 z m -26.92105,-3.41667 c 0.57878,-5.03486 1.04498,3.51717 0,0 z m 6.92105,-1.02431 c 0.92141,-4.11963 3.03015,2.20898 0,0 z m 7,-0.55902 c 2.29716,-4.22507 2.29716,4.22507 0,0 z m -12.30272,-0.75 c -6.55924,-11.05003 5.57638,0.83576 0,0 z m 21.55272,0.0877 c -7.11867,-10.88281 9.22195,3.79018 0,0 z m -14.25,-3.77868 c 0.45681,-5.39488 2.21684,3.68352 0,0 z m 33.45888,-2.62555 c 0.53342,-6.67508 6.25101,5.85352 0,0 z M 282.1599,209.0759 c 0.79701,-6.31454 0.79701,6.31454 0,0 z m 25.84695,0.58333 c 0.57878,-5.03486 1.04498,3.51717 0,0 z m 3.42105,0.41667 c 0.82285,-3.46123 2.33496,4.33509 0,0 z m 20.5,-3 c 3.38384,-4.72629 3.38384,4.72629 0,0 z m -50.46943,-7.88995 c 3.16929,-15.33908 13.77906,-15.49649 1.32207,-1.80692 -0.41438,0.64185 -2.63506,14.16029 -1.32207,1.80692 z m 157.01055,104.95648 c -4.58615,-5.74798 0.14584,5.12163 0,0 z M 210.59018,299.8259 c -2.55113,1.9559 3.23859,5.04335 0,0 z m 220.83772,-1.75 c -11.82103,-11.78148 8.04672,10.08922 0,0 z M 38.927897,296.51688 c -3.957373,-3.61158 -2.010108,4.09386 0,0 z M 210.59018,290.8259 c -2.55113,1.9559 3.23859,5.04335 0,0 z m 65.70581,-7.25 c -1.85605,-11.87584 -2.93477,15.28054 0,0 z m 46.63191,6 c 2.18956,-5.48048 -5.44242,6.92376 0,0 z M 60.11123,287.85923 c -4.509462,-1.95865 4.112642,6.3123 0,0 z m 262.43725,-2.40391 c -2.02918,-3.86113 -0.33861,8.96606 0,0 z M 62.652033,285.06381 c -5.369446,-7.77351 -0.113501,7.06855 0,0 z m 265.637497,0.51209 c 0.0162,-5.40711 -4.069,6.95974 0,0 z M 68.324891,283.90923 c -2.710633,-4.11921 -1.94437,3.3808 0,0 z m 252.727099,-3.1 c -3.70587,-1.12329 5.18101,5.48557 0,0 z m -222.124093,0.25136 c 1.327443,-6.62438 -5.306377,3.45402 0,0 z m 122.604173,-2.71386 c -4.34919,-0.0826 3.44855,5.3553 0,0 z M 81.927897,273.0759 c -1.887733,-4.57648 -1.61977,3.553 0,0 z m 202.479093,-2.8914 c -2.08234,-6.3816 -1.10821,10.24487 0,0 z m -74.78976,-5.8586 c -2.37029,2.6011 3.40521,6.19495 0,0 z m 80.91484,0.0208 c -2.31648,1.79926 2.0792,2.94355 0,0 z m -80.94189,-5.5208 c -2.55113,1.9559 3.23859,5.04335 0,0 z m -72.35521,-22.16579 c -4.00136,2.12339 3.78187,6.34663 0,0 z m 6.6623,1.91579 c -5.01431,-1.24844 0.13893,6.02188 0,0 z m 177.69291,-3.75 c -2.55113,1.9559 3.23859,5.04335 0,0 z m 1.68143,-4.54367 c -6.28749,-8.56033 1.97008,8.2168 0,0 z m -173.15621,0.11056 c -4.73672,-3.27689 -0.8038,2.64437 0,0 z m 179.16138,-4.63468 c -0.18746,-6.32653 -6.1069,8.28695 0,0 z m -2.96732,-4.23415 c -1.11718,-4.0132 -1.97998,6.26719 0,0 z m 4.61844,-1.06609 c -3.63521,-3.12424 -2.41278,3.72411 0,0 z M 220.386,191.10565 c 1.59676,-20.40334 -14.2194,-46.36584 11.83727,-58.30811 11.66295,-19.11715 -20.31671,-31.52153 -16.68747,-6.19619 -2.51737,24.0013 -4.34111,60.18694 1.63035,77.34887 1.22998,-4.24128 2.19775,-8.55071 3.21985,-12.84457 z m -5.30021,-46.02975 c 0.7424,-5.58348 0.7424,5.58348 0,0 z m 24.44628,33.27083 c -2.31648,1.79926 2.0792,2.94355 0,0 z m 33.5244,-8.27083 c 7.46335,-16.15845 -6.75748,7.16062 0,0 z m -27.34656,-11 c -4.62816,2.87305 2.26147,9.78014 0,0 z m 32.21799,1 c -1.88774,-4.57648 -1.61977,3.553 0,0 z m -4.48661,-21.82569 c 1.22439,-22.74727 -9.54324,11.56983 -0.26571,1.23404 l 0.26571,-1.23404 z m 7.4713,-9.92431 c 0.84651,-8.03158 -4.51959,2.13419 0,0 z m 29.01531,-14.05572 c 0.32652,-9.98679 -13.0596,-5.64683 0,0 z m -7,-4.73617 c 9.72346,-18.890199 -21.28698,2.9614 0,0 z m 12.54298,-2.3117 c -2.77603,-20.86862 -6.43976,8.74062 0,0 z m -38.12577,-8.791259 c -5.33027,-0.352985 -4.71838,6.532559 0,0 z M 292.3264,83.325902 c 3.1805,-10.989477 -6.84008,14.48734 0,0 z m -44.79433,0.02083 c -2.31648,1.799265 2.0792,2.943543 0,0 z m -7.02084,-2.270831 c 14.06936,-26.940147 -28.62081,-34.708153 -29.37687,-5.806987 3.26126,12.371829 20.63147,7.656987 29.37687,5.806987 z m 22.07261,-3.269031 c -2.08545,2.24274 1.94753,4.789175 0,0 z m -16.05177,0.539865 c -2.31648,1.799262 2.07919,2.943546 0,0 z M 322.58384,59.80687 c -2.08545,2.242744 1.94754,4.78917 0,0 z m 4,-5 c -2.08545,2.242744 1.94754,4.78917 0,0 z m -0.38868,-5.980968 c -2.13767,-16.193989 -0.71317,14.760518 0,0 z m -5.1132,-8.863867 c -3.21247,-10.821519 1.34726,14.769563 0,0 z m 1.96212,-4.485199 c -3.78247,-9.186095 4.28735,18.409258 0,0 z M 24.510409,334.0759 c 3.930218,-11.21041 -0.806213,6.35429 0,0 z m -3.582512,-1.5 c 2.315415,-5.75915 2.315415,5.75915 0,0 z m 5.377535,-3.78423 c 3.323882,-3.87413 8.447288,0.84965 0,0 z m -2.773791,-22.30601 c 1.833835,-12.21245 3.953249,4.13487 0,0 z m -8.603744,-1.85074 c 2.010108,-4.09386 3.957376,3.61158 0,0 z m 41,-22.55902 c 2.297162,-4.22507 2.297162,4.22507 0,0 z m 17,-6.83333 c 2.456623,-4.18203 2.5393,3.48399 0,0 z m 24.078947,-3.58334 c 0.578688,-5.03486 1.045128,3.5172 0,0 z m -5.41228,-1.25 c -4.727552,-4.36082 4.30043,-0.16062 0,0 z m -5.166667,-2.33333 c 0.822836,-3.46122 2.334955,4.33509 0,0 z m 8.193853,0.36052 c -0.858186,-5.65815 4.977472,3.3172 0,0 z m 17.94563,-3.05437 c -2.61747,-5.434 6.1877,1.37742 0,0 z m 3.90323,-5.23705 c -0.0187,-7.27964 3.39826,4.1558 0,0 z M 300.2723,49.571239 c -4.79705,-18.114541 13.1746,-7.91424 0,0 z m -77.3444,1.08727 c 7.35137,-14.130252 10.16355,-7.751776 0.42983,-0.373783 l -0.42983,0.373783 z m 69.69245,-3.941696 c 1.10607,-4.45115 3.13313,5.200434 0,0 z m 21.5025,-3.140911 c 0.75742,-6.553692 0.64216,5.29328 0,0 z m -57.16692,-5.461518 c 0.53301,-11.728404 -8.74903,-10.457789 1.98668,-16.515566 6.10632,-4.60492 8.49179,22.456836 -1.98668,16.515566 z m 60.16692,-7.538482 c 0.75742,-6.55369 0.64216,5.293282 0,0 z m -61.116,-5.916667 c 0.57877,-5.034859 1.04498,3.517156 0,0 z"
       id="path5347"
       inkscape:connector-curvature="0" />
    <path
       style="fill:#626f95"
       d="M 4.064079,414.8259 C 4.4368276,386.74208 3.5902865,358.63013 4.8792299,330.56521 4.2846154,359.55848 46.0213,337.7053 48.673976,342.05409 c -28.983547,24.95225 21.704886,53.6114 45.152398,57.77579 48.564596,12.78137 99.588286,17.18989 149.601526,12.24448 5.88548,-8.55514 58.76645,3.91117 39.69935,-2.70833 7.51611,5.25662 23.55474,-12.34624 24.26547,4.36849 11.40086,-4.54146 11.01398,-38.4449 27.14759,-25.18978 -31.4409,10.57123 11.93883,29.04256 25.87202,16.81434 33.28419,-5.5227 67.96678,-14.52849 95.27763,-34.79389 16.19392,-20.87496 46.91366,-49.14714 28.51062,-76.90684 -20.02964,-28.09666 -57.947,-22.8745 -85.11448,-38.82129 -31.38282,-25.30633 -11.77771,35.43058 -19.01232,31.744 -6.03713,-2.71663 -42.00797,7.81211 -42.81361,-17.83328 -2.37864,-14.43703 0.78081,-22.27843 15.09035,-11.85095 -14.39249,-18.08627 8.6135,-37.28527 14.28746,-56.07169 -6.21461,-30.84284 -55.03553,-51.64934 -67.93383,-62.09505 -26.20632,8.62319 -22.59606,47.75088 -23.77788,72.12955 -2.15352,28.2187 -6.15461,56.84632 -10.02682,85.18162 4.91624,18.6579 -3.73022,56.67786 30.22391,41.02276 17.1507,-5.37363 17.42782,-45.89932 33.21007,-18.39583 16.75904,15.83674 44.17928,-5.80979 56.42021,-19.12785 -8.8183,-21.6736 12.00108,-29.39762 26.31012,-14.18165 25.44056,10.54634 44.52797,40.05687 24.38613,65.04463 -17.59092,27.53947 -53.01158,33.09242 -82.60916,36.93017 -16.55312,-15.92115 -42.26243,-15.62382 -65.47009,-21.45041 -18.22945,3.96733 -24.88101,26.06445 -47.35565,18.24143 -14.66675,23.70472 -57.55782,4.32748 -84.22533,5.45875 -32.32297,-5.34874 -65.377066,-14.9131 -91.533525,-35.29342 -4.039724,-19.24339 27.53112,-8.17431 32.937306,0.39101 17.950439,-0.40354 16.327209,-18.07038 -1.063424,-11.04508 -30.956411,0.005 -49.000674,-47.27919 -10.855504,-53.54028 18.668957,-15.89302 62.009567,-38.74957 64.981357,1.21849 5.2473,20.32038 6.15534,48.66776 35.95028,35.26669 31.97853,-6.92339 32.81359,-45.32863 8.23555,-61.51542 -1.82501,-14.24911 0.14818,-15.26258 0.5299,-0.91321 27.69515,19.52123 13.31266,-30.0126 11.34733,-44.82534 5.88248,-14.94019 -16.55964,-47.97457 -5.29309,-52.0745 2.47749,10.76575 13.60961,27.78535 9.31053,6.11432 -3.71333,-24.20656 18.2101,-69.072 -2.72392,-79.127933 -2.43877,28.191983 -14.74032,62.085773 -47.04236,65.026663 -42.36136,14.82557 -13.20503,64.41782 -40.25573,87.28096 C 93.558094,266.89546 56.974107,267.86152 31.040026,290.0261 18.000058,300.13954 -3.7371918,315.1332 3.7617621,286.83992 4.222727,192.91911 3.7599495,98.997171 3.927897,5.0759025 93.927882,5.268641 183.9299,4.9735595 273.9279,5.7371147 243.45773,16.837571 211.56209,41.446134 206.48053,75.128921 c 0.9533,15.718182 1.87727,-13.077382 4.9308,4.828398 15.17985,10.737785 53.95646,10.554681 31.27483,-14.821298 -6.33464,-11.092796 -25.2781,-13.24419 -28.32577,1.705724 6.6372,-37.829616 59.3195,-14.144023 47.13332,18.201191 18.81114,18.711384 46.26886,-24.236239 24.43259,-39.338644 -3.98831,-16.729807 9.04693,14.659443 16.20795,15.331296 4.50046,9.894779 -1.70958,19.3088 7.95479,15.858421 -0.73368,13.760684 -28.29305,43.942601 1.04898,37.334841 20.88086,-13.6571 -12.52103,-15.388441 -0.32586,-32.038357 4.86065,-18.651957 0.20874,18.649087 3.7882,-2.972256 2.7993,-12.562424 11.51079,-21.790528 10.56112,-26.757808 3.59909,15.231645 1.67228,-31.213914 -8.82938,-36.138329 -10.84457,-5.843331 -30.74345,-13.1847637 -6.21987,-10.8180288 64.6042,-0.4603103 129.21045,-0.2913115 193.81565,-0.4281687 0,166.6666675 0,333.3333275 0,499.9999975 -166.66667,0 -333.33334,0 -500.000003,0 0.045407,-30.08333 0.090761,-60.16667 0.136202,-90.25 z m 285.863821,1.19098 c -2.44272,-2.35446 -1.24628,4.17763 0,0 z M 70.927897,394.0759 c -1.887733,-4.57648 -1.61977,3.553 0,0 z M 244.9279,351.01688 c -2.44272,-2.35446 -1.24628,4.17763 0,0 z m -0.44181,-4.12431 c 9.26745,-40.17935 12.51057,-82.57348 9.46101,-123.22972 -13.68196,39.05464 -13.87176,81.25175 -15.52143,122.18561 0.29781,3.37195 5.00216,4.58199 6.06042,1.04411 z M 233.9279,343.0759 c -1.88774,-4.57648 -1.61977,3.553 0,0 z m 0.0179,-14.86663 c 2.81807,-39.16346 6.47546,-78.41445 3.64632,-117.66123 0.6493,-12.66375 2.21979,-39.99639 -1.54801,-11.47553 -7.50343,30.22329 -22.40671,60.96515 -14.60742,92.71435 -6.70401,6.1522 6.69562,70.36018 12.50911,36.42241 z m 103.9821,4.86663 c -1.88774,-4.57648 -1.61977,3.553 0,0 z m 7,0 c 2.01835,-3.82736 -11.05725,6.2044 0,0 z m -5.60006,-5.23469 c -5.32154,-4.31032 -0.59894,7.5218 0,0 z m -4.39994,1.23469 c -3.38384,-4.72629 -3.38384,4.72629 0,0 z m 0,-2.89301 c -2.82614,-5.89138 -3.39003,4.21866 0,0 z m 9.49292,-50.09554 c -2.6088,-2.26508 -2.19022,5.02088 0,0 z m -3.74292,-6.70078 c -0.87588,-6.84828 -4.15503,0.39765 0,0 z m 7.25,-8.18022 c -3.73976,-5.76764 -1.9418,12.14809 0,0 z m 2,-3.13045 c -1.88774,-4.57648 -1.61977,3.553 0,0 z m -0.57484,-20.1211 c -4.23,-2.5221 -0.36988,4.52247 0,0 z M 220.95525,190.00424 c -1.25954,-27.27482 23.2793,-54.24141 14.40332,-78.74551 -30.16612,-8.5107 -18.68214,42.72783 -22.36557,61.28111 -1.25439,10.14102 4.40699,45.01411 7.96225,17.4644 z m -16.76574,-2.17834 c 1.21196,-11.08593 -7.60112,-4.56032 0,0 z m 70.72308,-11.55902 c -2.26197,-3.85621 -1.33857,9.80936 0,0 z m 0.69147,-10.51611 c 8.57413,-8.38731 -4.52281,-52.04274 -6.7614,-32.0097 4.43657,5.38766 2.72554,46.24696 6.7614,32.0097 z m -29.88022,-4.50246 c -4.262,-2.17374 -3.46683,21.08234 0,0 z m 39.01093,-19.69887 c -2.95785,1.24928 -0.44515,4.13469 0,0 z m -2.46094,-2.01443 c 11.34009,-22.71674 -15.2995,-14.79405 0,0 z m 25.15407,-4.90565 c -0.935,-6.29926 -7.86449,12.49311 0,0 z m -13.79458,-4.87269 c -1.99564,-9.77925 -4.37108,16.62441 0,0 z m 14.29458,-4.68077 c -2.71026,-4.00607 -2.61714,4.90676 0,0 z m 16,-19.69113 c -4.81569,-2.13846 0.43735,12.25478 0,0 z m -50.57774,-3.57532 c 14.58327,-12.241308 -14.20025,7.42715 0,0 z m 20.57774,0.26645 c 1.80879,-6.991837 -4.60873,8.17894 0,0 z m -71,0 c -1.88774,-4.576484 -1.61977,3.553 0,0 z m 77.08345,-8.621295 c 6.21116,-14.371804 -11.58321,16.824935 0,0 z m -9.39609,-6.32277 c 11.37213,-19.513113 -12.18556,15.609115 0,0 z m 31.04614,-4.2795 c -2.13683,10.220255 1.77766,5.816907 0,0 z m -21.7335,4.029695 c -4.70973,0.06267 -0.74825,5.295254 0,0 z m 4.38156,-1.358065 c -1.11718,-4.013216 -1.97999,6.267175 0,0 z m 12.30777,-7.198063 c -2.37029,2.601097 3.40521,6.194947 0,0 z m -18.28176,-9.166667 c -5.21522,7.335634 0.17696,6.12887 0,0 z m 32.57314,-11.333333 c -0.50497,-14.826695 -7.21861,-17.200141 0,0 z M 178.9279,409.63492 c 0.92141,-4.11963 3.03015,2.20898 0,0 z m 3,-0.5 c 0.63924,-6.03065 3.46671,3.5212 0,0 z m 4,0 c 1.24628,-4.17763 2.44272,2.35446 0,0 z m 26,-4.05902 c 2.29716,-4.22507 2.29716,4.22507 0,0 z m 121.72418,-2.13448 c 4.94672,-24.56228 22.85028,-1.93898 0,0 z m -179.27803,-1.95265 c 3.01764,-8.59259 7.4706,6.18013 0,0 z m 122.32535,-8.09565 c -3.7079,-25.06127 24.10681,3.55427 0,0 z m 23.76189,-0.56722 c 1.31005,-19.71351 16.23863,5.07235 0,0 z m -51.53339,-0.0756 c 7.20723,-5.535 12.62447,3.15671 0,0 z M 95.927897,385.13492 c 1.246278,-4.17763 2.442719,2.35446 0,0 z m 6.500003,-3.05902 c 5.01593,-5.29612 3.30048,3.42749 0,0 z m 322.05887,-17.4682 c 9.70559,-7.88174 -2.9905,5.39565 0,0 z m 14.19113,-1.19408 c 4.74335,-2.98794 1.87579,2.50137 0,0 z m 5.52083,-2.94189 c 2.94363,-2.07916 1.79918,2.31654 0,0 z M 20.927897,332.5759 c 2.315415,-5.75915 2.315415,5.75915 0,0 z m 247.745613,-1.75 c 3.73128,-16.35517 3.09349,5.41258 0,0 z m 66.75439,-8.75 c 0.82285,-3.46123 2.33496,4.33509 0,0 z m 12.5,0 c 2.29716,-4.22507 2.29716,4.22507 0,0 z m -44,-1.44098 c 0.92141,-4.11963 3.03015,2.20898 0,0 z m 41,-1.05902 c 2.83975,-6.21478 2.7807,5.89039 0,0 z m -14,-2 c 2.20521,-5.25942 2.05681,4.83018 0,0 z m 10,-0.5 c 2.29716,-4.22507 2.29716,4.22507 0,0 z m 13.5,0.23469 c -8.85902,-10.70471 5.61287,0.053 0,0 z m -23.91705,-3.10048 c -2.72701,-5.90033 3.86819,1.40281 0,0 z M 186.9279,313.0759 c 2.29716,-4.22507 2.29716,4.22507 0,0 z m 108.5,-1 c 0.82285,-3.46123 2.33496,4.33509 0,0 z m 40.94615,-0.0871 c -1.52173,-8.16587 4.81165,4.11976 0,0 z M 52.348517,309.3259 c -0.754859,-13.50072 13.697408,-9.97505 0,0 z m 121.579383,1.30902 c 2.01012,-4.09386 3.9574,3.61164 0,0 z m 156.34633,-1.22586 c -0.19701,-17.44271 11.59042,-4.874 0,0 z m 17.66898,0.95627 c -0.74128,-5.28375 4.71347,-0.07 0,0 z m -10.27222,-2.18931 c -4.60811,-13.424 6.18046,-2.93674 0,0 z M 56.857581,307.20729 c 5.34477,-11.17311 1.422208,5.38482 0,0 z M 359.9279,307.5759 c 2.31542,-5.75915 2.31542,5.75915 0,0 z m -58.5,-1.5 c 0.82285,-3.46123 2.33496,4.33509 0,0 z m -277.500003,-2 c 7.168778,-5.44676 -0.687233,4.16199 0,0 z m 301.000003,0 c 2.29716,-4.22507 2.29716,4.22507 0,0 z m -29,-1.44098 c 1.3184,-7.92456 1.92524,4.98366 0,0 z m 4,0.44098 c 2.29716,-4.22507 2.29716,4.22507 0,0 z m 11.18944,-0.86176 c -9.07715,-11.70812 -43.46438,-14.19676 -15.48648,-33.79448 26.3387,-29.44657 20.94446,21.95941 15.48648,33.79448 z m 1.05531,-5.63824 c -2.06678,-9.0176 -0.75225,8.70679 0,0 z m -5.60189,-6 c -7.20942,-6.51266 2.56671,5.9087 0,0 z m -3.64286,10.5 c 2.29716,-4.22507 2.29716,4.22507 0,0 z m 26,0 c 1.61977,-3.553 1.88774,4.57648 0,0 z m 25,0.39235 c 1.94218,-3.64226 3.70195,3.0195 0,0 z m -55,-2.39235 c 2.30622,-7.33382 2.30622,7.33382 0,0 z m 16.18045,-0.17167 c 6.28749,-13.5351 2.25433,11.22227 0,0 z m 26.29574,0.55262 c -37.05549,-18.58776 30.64143,-2.68267 0,0 z m 5.81356,-2.38095 c 4.21837,-10.99082 -4.83459,4.55821 0,0 z m 35.7892,2.58333 c 0.57878,-5.03486 1.04498,3.51717 0,0 z m -88.496,-0.44912 c -2.72701,-5.90033 3.86819,1.40281 0,0 z M 67.927897,296.01622 c 2.930437,-5.65614 3.924997,3.91422 0,0 z m 283.270833,0.45551 c 2.94363,-2.07916 1.79918,2.31654 0,0 z m -80.19188,-1.8125 c 0.57878,-5.03486 1.04498,3.51717 0,0 z m 23,0 c 0.57878,-5.03486 1.04498,3.51717 0,0 z m 24.92105,0.41667 c 2.29716,-4.22507 2.29716,4.22507 0,0 z m 9.92349,0.75 c -6.24559,-8.11185 5.82961,0.0275 0,0 z m 26.15546,-1.16667 c 0.57878,-5.03486 1.04498,3.51717 0,0 z M 65.145595,292.9214 c 5.080988,-8.58713 3.215286,5.17331 0,0 z m 251.241185,0.088 c -1.44712,-5.17362 3.34606,3.86077 0,0 z M 73.989757,290.96031 c 7.266237,-8.75621 5.98093,2.421 0,0 z M 344.9279,290.63492 c 1.28407,-6.08035 2.49346,3.71883 0,0 z m -21.5,-3.55902 c 0.82285,-3.46123 2.33496,4.33509 0,0 z m 4.5,0.059 c 3.31045,-6.34992 1.9122,3.22147 0,0 z m -247.000003,-2.559 c 1.100938,-5.4848 2.515846,6.49307 0,0 z m 76.000003,0.55902 c 1.24628,-4.17763 2.44272,2.35446 0,0 z m 171,-2.05902 c 1.61977,-3.553 1.88774,4.57648 0,0 z M 71.470602,282.145 c -0.01869,-7.27964 3.398268,4.15581 0,0 z M 336.9279,282.0759 c 2.29716,-4.22507 2.29716,4.22507 0,0 z m -15,-0.94098 c 1.24628,-4.17763 2.44272,2.35446 0,0 z m -167,-2.05902 c 0.90465,-6.98494 2.0556,7.32184 0,0 z m 130.07895,-0.41667 c 0.57878,-5.03486 1.04498,3.51717 0,0 z m 49.92105,0.41667 c 2.61715,-4.90676 2.71026,4.00608 0,0 z m -10.92105,-2.41667 c 0.57878,-5.03486 1.04498,3.51717 0,0 z m 3.92105,-0.14235 c 2.615,-3.69004 1.1977,5.98001 0,0 z m -12,-1.44098 c 2.29716,-4.22507 2.29716,4.22507 0,0 z m 17.44615,-1.08713 c -1.32003,-8.14619 4.22059,3.45255 0,0 z m 2.55385,-1.604 c 2.17419,-8.72399 1.83088,13.46848 0,0 z m -9.5,0.69113 c 0.82285,-3.46123 2.33496,4.33509 0,0 z m -171.57651,-1.25 c -4.07464,-7.16992 6.10788,0.98544 0,0 z m 124.57651,-1.75 c 0.82285,-3.46123 2.33496,4.33509 0,0 z m 41.5,0 c 2.71026,-4.00607 2.61714,4.90676 0,0 z m 11,-0.38197 c 0.81789,-8.09684 3.08349,3.81486 0,0 z m -16,-0.61803 c 1.61977,-3.553 1.88774,4.57648 0,0 z m 8.5,0 c 0.82285,-3.46123 2.33496,4.33509 0,0 z M 94.927897,268.13492 c 1.246278,-4.17763 2.442719,2.35446 0,0 z m 187.000003,0 c 1.24628,-4.17763 2.44272,2.35446 0,0 z m -131,-2.05902 c 9.20468,-9.16845 -14.65674,-39.60834 7.99447,-21.89642 8.94597,7.84575 3.11952,21.05185 -7.99447,21.89642 z m -38.5,-2 c 1.08524,-4.16014 3.54884,5.67334 0,0 z m 169.16667,0.33333 c -4.72757,-4.3608 4.30041,-0.16064 0,0 z M 148.6671,262.1866 c -1.65301,-11.74105 3.41472,5.87692 0,0 z m 185.46095,-1.16181 c -4.61668,-8.51987 6.36434,4.64534 0,0 z M 116.4279,260.0759 c 0.82285,-3.46123 2.33496,4.33509 0,0 z m 196.01008,-0.98369 c -1.7675,-7.91084 6.11307,1.88703 0,0 z m 9.16638,-0.41707 c -0.7421,-7.34586 4.17875,3.40902 0,0 z m -42.67646,-1.52781 c 13.52565,-23.10229 10.41768,-4.97598 0,0 z m -134,-0.51241 c 1.03646,-7.63952 2.56079,5.16375 0,0 z m 179.625,-1.35677 c -2.19478,-7.69351 4.29735,1.67971 0,0 z m 6.375,-1.59526 c 1.83592,-4.01436 3.26985,2.04235 0,0 z m -185.5,-2.60699 c 0.82285,-3.46123 2.33496,4.33509 0,0 z m 183.5,-0.66667 c 3.28157,-3.00023 1.60196,6.20349 0,0 z m -4.02919,-0.86851 c -3.59377,-10.18954 6.33686,6.6762 0,0 z m 6.58344,-3.5526 c 5.30375,-5.82533 2.26551,3.58201 0,0 z m -31.55425,-0.8532 c 1.24628,-4.17763 2.44272,2.35446 0,0 z m 27,-0.55902 c 3.2487,-5.3674 3.8325,5.55544 0,0 z m 11,0.5 c 1.42693,-10.26063 9.32371,3.02429 0,0 z m -35,-2 c 2.29716,-4.22507 2.29716,4.22507 0,0 z m 11.5,0 c 2.96486,-4.8042 1.97504,3.88265 0,0 z m -146.34211,-2 c 0.7424,-5.58348 0.7424,5.58348 0,0 z m 142.84211,1 c 2.29716,-4.22507 2.29716,4.22507 0,0 z m 25,-3.5 c 2.31542,-5.75915 2.31542,5.75915 0,0 z m 5,-0.059 c 2.615,-3.69004 1.1977,5.98001 0,0 z m -50.66667,-2.48032 c 1.80247,-7.63294 1.38687,11.6104 0,0 z m 19.66667,2.03932 c 1.61977,-3.553 1.88774,4.57648 0,0 z m 26.32435,-3.6809 c -10.96836,-22.41049 20.01703,-17.82948 0,0 z m 6.67565,-0.3191 c 3.38384,-4.72629 3.38384,4.72629 0,0 z m -195,-1.5 c 2.20521,-5.25942 2.05681,4.83018 0,0 z m 157,0.5 c 2.29716,-4.22507 2.29716,4.22507 0,0 z m 37,-5.5 c 2.88738,-5.26883 2.3909,5.90853 0,0 z m -25.33333,-0.16667 c -2.12223,-6.1426 5.82689,2.29417 0,0 z m 28.00346,-5.75057 c 2.02546,-6.34474 3.72027,6.0064 0,0 z m -197.02256,-1.76667 c -3.32336,-18.33881 7.44115,-5.04654 0.0988,0.13089 l -0.0988,-0.13089 z M 283.4279,218.0759 c -2.67964,-9.3463 4.15367,5.41928 0,0 z m 21.5,0.5 c -1.68537,-5.75861 7.05479,7.60503 0,0 z m 14.5,-0.5 c 0.82285,-3.46123 2.33496,4.33509 0,0 z m 6.08295,-4.86579 c -2.72701,-5.90033 3.86819,1.40281 0,0 z m 17.41705,0.42481 c 0.92141,-4.11963 3.03015,2.20898 0,0 z m -2.80557,-1.76459 c -4.55522,-7.07762 7.1036,1.43141 0,0 z m -8.19443,-4.79443 c 2.29716,-4.22507 2.29716,4.22507 0,0 z m -158.43571,-2.29313 c 3.11262,-5.62327 -0.25279,3.79245 0,0 z m -24.48534,-5.12354 c 0.57878,-5.03486 1.04498,3.51717 0,0 z m 27.92105,-3.08333 c 2.31542,-5.75915 2.31542,5.75915 0,0 z m 107,-5.5 c 6.77136,-8.60516 -2.14767,6.78007 0,0 z m -75.27083,-12.60417 c -5.32078,-6.79101 0.36365,-7.44086 1.02956,-0.43173 l -1.02956,0.43173 z M 303.4279,107.0759 c -2.67964,-9.346296 4.15367,5.41928 0,0 z m 2.5,0.44098 c 2.615,-3.69004 1.1977,5.98001 0,0 z m -95.84211,-9.440978 c 0.7424,-5.583489 0.74241,5.583488 0,0 z m 93.84211,-0.940983 c 2.27045,-12.245913 1.51292,9.736481 0,0 z m 14.19495,-36.559017 c 0.75742,-6.553692 0.64216,5.29328 0,0 z m -12.55658,-9 c 2.87351,-5.904834 0.30293,4.55821 0,0 z m 3.52927,-3.551047 c 4.70035,-9.443467 -2.84099,10.604819 0,0 z M 259.10985,35.575902 c 6.6163,-11.767319 -0.96253,10.363153 0,0 z m 60.83336,-0.75 c 0.14911,-14.332479 4.33517,4.912107 0,0 z m -83.45237,-3.819548 c 7.70127,-6.790883 -2.67757,5.716225 0,0 z m 15.63706,-2.130451 c -10.67206,-14.854607 9.92675,6.418446 0,0 z"
       id="path5345"
       inkscape:connector-curvature="0" />
    <path
       style="fill:#9a2725"
       d="m 4.0593222,416.8259 c 2.6390717,-22.40958 -4.89754844,-61.48648 4.0809608,-74.2622 25.351443,6.78634 34.529804,27.67292 50.998801,44.93382 32.115378,23.37999 73.347436,27.83121 111.552966,33.54711 15.33386,1.23977 35.32994,0.84825 34.11256,-3.85882 24.95208,-2.06338 50.98388,-3.20372 76.47339,-5.78922 7.30853,10.97809 22.84123,-6.36686 30.25263,2.09014 21.42433,-10.7352 47.03783,3.67054 68.87365,-8.54682 36.19852,-9.93412 78.03464,-20.75808 96.77147,-56.92441 22.95482,-22.07856 17.54222,-58.99768 -12.09542,-71.16259 -27.76351,-15.82707 -63.81924,-13.87323 -87.77251,-36.89406 -8.01586,-29.67875 -9.59278,-65.77067 -43.31425,-78.23858 -7.69356,-9.92389 -17.85859,-24.89871 -24.41649,-21.9085 3.06436,-18.11796 12.31738,1.53052 17.0066,-16.79755 C 329.26906,94.542381 337.03902,62.178715 326.0195,35.223209 314.95902,22.103564 309.83708,-2.8698839 336.21506,5.4038245 392.1174,4.7762102 448.02373,5.2042958 503.9279,5.0759025 c 0,166.6666675 0,333.3333275 0,499.9999975 -166.66667,0 -333.33334,0 -500.000003,0 0.043808,-29.41667 0.087617,-58.83333 0.1314252,-88.25 z m 194.8685778,12.25 c 21.73152,7.46152 -4.18069,-12.77232 -0.73914,0.33098 l 0.73914,-0.33098 z m -9.0318,-0.75 c -4.85434,-11.06906 -6.94823,0.45682 0,0 z m 25.5318,-1.25 c -1.97504,-3.88265 -2.96486,4.80422 0,0 z m -21,-2 c -3.17121,-5.31114 -1.70951,3.61636 0,0 z m 15,0 c -3.2624,-4.57219 -5.37888,4.78006 0,0 z m 13.5,0 c -2.29716,-4.22507 -2.29716,4.22507 0,0 z m -8.75,-0.66228 c -4.74335,-2.98794 -1.87579,2.50137 0,0 z m 3.9375,-0.0208 c -4.73672,-3.27689 -0.8038,2.64437 0,0 z m -49.1875,-1.31692 c -3.38384,-4.72629 -3.38384,4.72629 0,0 z m 9.1875,0.31689 c -4.73672,-3.27689 -0.8038,2.64437 0,0 z m 42.31023,-1.32056 c -0.3081,-6.71995 -12.82369,3.83183 0,0 z m 5.87516,-0.47824 c -4.64023,-10.66803 -9.21273,3.92476 0,0 z m 16.81461,-6.2012 c -4.73672,-3.27689 -0.8038,2.64437 0,0 z m 97.30542,-3.30544 c -2.6088,-2.26508 -2.19022,5.02088 0,0 z M 434.4279,391.0759 c -2.51098,-4.22209 -4.11384,4.84895 0,0 z m 7.41667,-3.63545 c -4.51537,-1.53814 -4.86992,7.03747 0,0 z m 3.08333,-1.92357 c -3.03015,-2.20898 -0.92141,4.11963 0,0 z m -280,31.55902 c 12.8015,-7.15521 17.57521,6.96751 0,0 z m 16.27083,0.39583 c 2.94363,-2.07916 1.79918,2.31654 0,0 z m -20,-1 c 2.94363,-2.07916 1.79918,2.31654 0,0 z m 71.72917,-1.39583 c -1.64806,-3.98097 5.68232,5.05586 0,0 z m -77.55385,-14.08713 c 1.66039,-10.72486 4.82894,4.42605 0,0 z m 35.05385,-7.58425 C 146.6964,388.1844 98.968266,383.01041 64.653483,352.44059 c 3.895399,-8.19345 14.959937,12.23584 24.655489,6.20189 14.076788,4.08891 35.390608,-22.8182 9.08716,-15.93835 -38.411396,1.53355 -46.508104,-52.87475 -6.045553,-56.76574 17.474661,-15.68643 57.417421,-31.34827 55.451781,6.4492 1.45722,21.81853 14.4274,49.47851 40.57042,44.52468 32.57595,-7.19893 21.31747,-44.35608 21.87735,-68.09148 -1.19253,-28.38419 1.71595,-57.17946 -7.62854,-84.57507 -3.87342,-15.33317 -1.56695,-21.73956 4.48009,-2.90555 8.25653,17.63238 2.86565,-24.93378 6.03962,1.32019 -1.12891,13.05245 6.24971,30.1688 8.08751,6.24244 7.12633,-40.17648 37.69542,-78.48641 24.05728,-120.554468 -5.22505,-13.103795 -28.97488,-25.106178 -1.54019,-20.807016 27.39618,9.340205 8.44443,49.772358 24.68805,59.082424 21.44815,-5.44092 27.03533,-44.338086 27.95606,-49.605553 17.03383,24.682865 -17.40991,44.350103 -9.91454,71.615223 5.08402,23.08721 -4.40617,-29.209206 -8.61647,-1.98156 11.85594,27.16349 -9.99331,54.44382 -2.59193,82.55801 -1.51452,41.28565 -16.92254,83.17704 -6.76812,124.23427 14.71806,23.04069 50.1344,6.26329 50.07565,-19.69892 3.54829,27.20046 37.0057,46.39051 60.40998,26.40768 21.62337,-13.88929 -14.90281,-72.16972 23.62718,-58.74368 28.9193,8.93836 55.72579,43.90955 29.75241,70.3861 -18.27898,28.38566 -54.98379,31.11485 -85.10667,36.88398 0.60846,-24.01826 -36.60086,-10.13129 -50.30347,-23.77382 -21.86552,1.04336 -36.57033,20.08084 -56.56089,19.08452 -9.70535,18.3534 -33.44,6.67401 -49.96524,9.41453 z m 2.54643,-7.77267 c 19.24401,-10.01913 -23.33728,-29.30939 0.69281,-12.50082 6.0534,2.94587 -6.40464,13.11966 -0.69281,12.50082 z m 52.16214,-37.05443 c 7.06584,-41.11548 13.95621,-84.05493 8.74118,-125.21257 -12.92234,36.50141 -14.30071,76.12168 -15.15937,114.49592 0.26581,3.1215 0.97105,23.81551 6.41819,10.71665 z m 40.5888,4.10815 c 9.83538,-8.85594 -28.75516,1.33813 -4.68818,0.59252 l 4.68818,-0.59252 z m 11.70263,-3.60967 c -6.06355,-6.02384 -2.52212,3.37825 0,0 z m -63.91821,-2 c 1.00836,-47.82258 8.9755,-95.5963 3.94939,-143.42801 0.53963,-12.43281 11.74056,-62.53064 2.92268,-26.98842 -5.53692,35.20115 -22.53236,68.24467 -20.95082,104.38002 3.94197,18.00324 -4.90487,58.37266 14.07875,66.03641 z m 41.39597,-177.6408 c 0.71616,-23.31633 3.20031,-73.780715 13.25099,-77.006315 -22.60637,15.698545 -26.02862,42.611505 -16.98085,67.205085 2.76605,2.86487 -1.77636,21.94124 3.72986,9.80123 z M 269.512,118.71734 c 3.97587,-7.24777 0.77967,3.59218 0,0 z m -6.5841,-5.14144 c 2.18956,-5.48048 -5.44242,6.92376 0,0 z m 22.65952,-19.053873 c 11.32803,-10.768534 13.44678,-32.287737 3.13047,-7.414457 -0.91729,1.957682 -14.21379,15.13914 -3.13047,7.414457 z M 231.9279,51.134919 c -0.63926,-6.030641 -3.4667,3.521217 0,0 z m 45,339.479941 c 6.19499,-17.77589 16.59967,9.01206 0,0 z m 25,-2.03896 c 8.23623,-12.81645 9.85805,12.43492 0,0 z m 21,-0.25362 c 9.28514,-12.82814 13.72672,12.71609 0,0 z M 7.5945637,343.40923 c -4.2343809,-9.64251 3.9617433,-8.21134 0,0 z m 42.0234923,-3.80722 c 0.710733,-2.67889 0.460708,-1.7365 0,0 z m 317.862634,-0.4407 c -0.29754,-5.34682 4.6493,2.65725 0,0 z m -5.55279,-7.02639 c 1.24628,-4.17763 2.44272,2.35446 0,0 z m 8,-11.5 c 1.28407,-6.08035 2.49346,3.71883 0,0 z M 3.9432098,152.8259 c -0.0051,-49.25 -0.010209,-98.499998 -0.015313,-147.7499975 85.3782612,0 170.7565232,0 256.1347832,0 -22.92492,24.3155385 -66.49736,42.0867645 -56.21552,83.2752855 6.30758,37.092082 -18.39295,66.957802 -52.70918,75.908792 -35.76076,16.66745 -2.15068,60.95431 -31.10954,79.41754 C 95.545921,262.4108 65.132848,267.61041 38.398752,281.77077 28.06393,296.1014 1.1793812,307.78188 2.600108,279.85485 8.0795962,247.62689 2.4141628,215.6725 3.9564444,183.15939 3.9487185,173.04823 3.9454854,162.93707 3.9432098,152.8259 z M 303.9279,283.13492 c 2.11693,-8.44641 2.53144,6.42738 0,0 z m 3.66417,-1.4918 c -2.47639,-13.13536 4.73866,-1.8598 0,0 z m -0.0572,-7.14901 c -4.33587,-12.18242 7.235,6.49977 0,0 z M 201.9279,272.5759 c -4.35219,-5.61705 10.49423,7.71232 0,0 z m 94,-1.5 c 3.38384,-4.72629 3.38384,4.72629 0,0 z m 12.56811,-1.88979 c -10.73529,0.58433 4.26826,-4.23369 0,0 z M 147.9279,239.51688 c 2.615,-3.69004 1.1977,5.98001 0,0 z m 187,-13.88196 c 2.05278,-4.32389 4.06665,3.97192 0,0 z M 212.08579,145.0759 c 0.7424,-5.58348 0.7424,5.58348 0,0 z m 0.92106,-7.41667 c 0.57878,-5.03486 1.04498,3.51717 0,0 z m 1,-4 c 0.57878,-5.03486 1.04498,3.51717 0,0 z m 1.12041,-4.08333 c -1.45469,-10.29669 4.08361,-2.56819 0,0 z m 1.87959,-8.91667 c 0.57878,-5.03486 1.04498,3.51717 0,0 z m 1,-4 c 0.57878,-5.03486 1.04498,3.51717 0,0 z m 1.0821,-5.58333 c -2.30629,-9.23088 0.27958,-6.55946 0.48621,0.43995 l -0.48621,-0.43995 z m -2.99861,-11.542825 c -5.36022,-11.216299 5.40403,6.932525 0,0 z m 21.17089,0.08682 c 1.19712,-5.332214 2.93559,8.265295 0,0 z m 63.10736,0.36005 c -1.48833,-7.913788 4.90339,0.991015 0,0 z M 209.88206,86.990256 c -3.14983,-8.586359 4.91796,7.337821 0,0 z m 10.81429,-32.082804 c 5.60452,-5.194996 0.87023,3.341122 0,0 z m 68.10399,-5.58155 c -1.95837,-4.5594 6.62732,8.222236 0,0 z m -4.15722,-6.688178 c -8.4546,-18.623693 10.51315,9.374499 0,0 z"
       id="path5343"
       inkscape:connector-curvature="0" />
    <path
       style="fill:#5d141c"
       d="m 4.0593222,416.8259 c 2.6390717,-22.40958 -4.89754844,-61.48648 4.0809608,-74.2622 25.351443,6.78634 34.529804,27.67292 50.998801,44.93382 32.115378,23.37999 73.347436,27.83121 111.552966,33.54711 15.33386,1.23977 35.32994,0.84825 34.11256,-3.85882 24.95208,-2.06338 50.98388,-3.20372 76.47339,-5.78922 7.30853,10.97809 22.84123,-6.36686 30.25263,2.09014 21.42433,-10.7352 47.03783,3.67054 68.87365,-8.54682 36.19852,-9.93412 78.03464,-20.75808 96.77147,-56.92441 22.95482,-22.07856 17.54222,-58.99768 -12.09542,-71.16259 -27.76351,-15.82707 -63.81924,-13.87323 -87.77251,-36.89406 -8.01586,-29.67875 -9.59278,-65.77067 -43.31425,-78.23858 -7.69356,-9.92389 -17.85859,-24.89871 -24.41649,-21.9085 3.06436,-18.11796 12.31738,1.53052 17.0066,-16.79755 C 329.26906,94.542381 337.03902,62.178715 326.0195,35.223209 314.95902,22.103564 309.83708,-2.8698839 336.21506,5.4038245 392.1174,4.7762102 448.02373,5.2042958 503.9279,5.0759025 c 0,166.6666675 0,333.3333275 0,499.9999975 -166.66667,0 -333.33334,0 -500.000003,0 0.043808,-29.41667 0.087617,-58.83333 0.1314252,-88.25 z m 194.8685778,12.25 c 21.73152,7.46152 -4.18069,-12.77232 -0.73914,0.33098 l 0.73914,-0.33098 z m -9.0318,-0.75 c -4.85434,-11.06906 -6.94823,0.45682 0,0 z m 25.5318,-1.25 c -1.97504,-3.88265 -2.96486,4.80422 0,0 z m -21,-2 c -3.17121,-5.31114 -1.70951,3.61636 0,0 z m 15,0 c -3.2624,-4.57219 -5.37888,4.78006 0,0 z m 13.5,0 c -2.29716,-4.22507 -2.29716,4.22507 0,0 z m -8.75,-0.66228 c -4.74335,-2.98794 -1.87579,2.50137 0,0 z m 3.9375,-0.0208 c -4.73672,-3.27689 -0.8038,2.64437 0,0 z m -49.1875,-1.31692 c -3.38384,-4.72629 -3.38384,4.72629 0,0 z m 9.1875,0.31689 c -4.73672,-3.27689 -0.8038,2.64437 0,0 z m 42.31023,-1.32056 c -0.3081,-6.71995 -12.82369,3.83183 0,0 z m 5.87516,-0.47824 c -4.64023,-10.66803 -9.21273,3.92476 0,0 z m 16.81461,-6.2012 c -4.73672,-3.27689 -0.8038,2.64437 0,0 z m 97.30542,-3.30544 c -2.6088,-2.26508 -2.19022,5.02088 0,0 z M 434.4279,391.0759 c -2.51098,-4.22209 -4.11384,4.84895 0,0 z m 7.41667,-3.63545 c -4.51537,-1.53814 -4.86992,7.03747 0,0 z m 3.08333,-1.92357 c -3.03015,-2.20898 -0.92141,4.11963 0,0 z m -280,31.55902 c 12.8015,-7.15521 17.57521,6.96751 0,0 z m 16.27083,0.39583 c 2.94363,-2.07916 1.79918,2.31654 0,0 z m -20,-1 c 2.94363,-2.07916 1.79918,2.31654 0,0 z m 71.72917,-1.39583 c -1.64806,-3.98097 5.68232,5.05586 0,0 z m -77.55385,-14.08713 c 1.66039,-10.72486 4.82894,4.42605 0,0 z m 35.05385,-7.58425 C 146.6964,388.1844 98.968266,383.01041 64.653483,352.44059 c 3.869818,-7.97101 15.018744,11.7903 24.315973,6.17401 12.600684,4.43423 40.671374,-22.13712 13.065144,-15.3337 -31.407527,3.99735 -57.164645,-44.57624 -16.749941,-52.01953 18.754331,-17.2796 65.677461,-40.46825 63.241931,4.1165 -2.35698,27.93122 29.59705,56.26043 53.90161,34.05923 22.94797,-20.36261 -0.44826,-52.29406 9.4548,-77.87527 8.24026,-6.56611 22.3088,-46.5928 20.09249,-39.07468 -16.88591,38.64086 -13.0088,81.72544 -9.08243,122.49788 8.92344,22.71432 16.8909,-3.24785 12.69997,-10.80102 -2.03752,22.37982 11.07323,40.00103 33.59916,29.71281 25.78491,3.82682 42.71828,-16.25986 49.88808,-38.71018 1.83164,30.70808 47.33487,45.63174 64.99983,18.60071 5.90439,-16.09805 -12.68579,-70.16816 21.41895,-51.00378 33.21842,8.386 50.92704,52.9134 21.45247,76.32925 -20.29388,19.80677 -51.18866,29.37546 -79.06582,24.94371 -8.73169,-16.68787 -36.27017,-7.14803 -50.93167,-19.15106 -21.86552,1.04336 -36.57033,20.08084 -56.56089,19.08452 -9.70535,18.3534 -33.44,6.67401 -49.96524,9.41453 z m 2.54643,-7.77267 c 19.24401,-10.01913 -23.33728,-29.30939 0.69281,-12.50082 6.0534,2.94587 -6.40464,13.11966 -0.69281,12.50082 z M 138.9279,267.0759 c 2.01835,-3.82736 -11.05725,6.2044 0,0 z m 138,123.53896 c 6.19499,-17.77589 16.59967,9.01206 0,0 z m 25,-2.03896 c 8.23623,-12.81645 9.85805,12.43492 0,0 z m 21,-0.25362 c 9.28514,-12.82814 13.72672,12.71609 0,0 z m -35,-40.74638 c 5.03101,-6.04648 -0.55226,5.68118 0,0 z M 7.5945637,343.40923 c -4.2343809,-9.64251 3.9617433,-8.21134 0,0 z m 42.0234923,-3.80722 c 0.710733,-2.67889 0.460708,-1.7365 0,0 z m 317.862634,-0.4407 c -0.29754,-5.34682 4.6493,2.65725 0,0 z m -5.55279,-7.02639 c 1.24628,-4.17763 2.44272,2.35446 0,0 z m -98,-5 c 1.24628,-4.17763 2.44272,2.35446 0,0 z m 106,-6.5 c 1.28407,-6.08035 2.49346,3.71883 0,0 z m -104.768,-2.55902 c 0.79701,-6.31454 0.79701,6.31454 0,0 z m -26.79236,-7.5 c -2.82094,-19.52836 -1.5256,-47.16647 7.04637,-61.38167 -2.13577,16.44533 -7.46145,73.87988 -7.2296,65.10737 l 0.18323,-3.7257 z m 3.13247,-36.94405 c -0.47007,-25.44596 -3.87987,31.27584 0,0 z m 18.67789,32.77738 c -4.97599,-16.58919 2.58919,-51.59043 9.37764,-55.28355 -8.97303,19.15254 1.9374,37.6906 -9.37764,55.28355 z M 3.9432098,152.8259 c -0.0051,-49.25 -0.010209,-98.499998 -0.015313,-147.7499975 85.3782612,0 170.7565232,0 256.1347832,0 -22.92492,24.3155385 -66.49736,42.0867645 -56.21552,83.2752855 6.30758,37.092082 -18.39295,66.957802 -52.70918,75.908792 -35.76076,16.66745 -2.15068,60.95431 -31.10954,79.41754 C 95.545921,262.4108 65.132848,267.61041 38.398752,281.77077 28.06393,296.1014 1.1793812,307.78188 2.600108,279.85485 8.0795962,247.62689 2.4141628,215.6725 3.9564444,183.15939 3.9487185,173.04823 3.9454854,162.93707 3.9432098,152.8259 z M 253.00685,291.65923 c 0.57878,-5.03486 1.04498,3.51717 0,0 z m 50.92105,-8.52431 c 2.11693,-8.44641 2.53144,6.42738 0,0 z m 3.66417,-1.4918 c -2.47639,-13.13536 4.73866,-1.8598 0,0 z m -0.0572,-7.14901 c -4.33587,-12.18242 7.235,6.49977 0,0 z m -39.0427,-0.71134 c 3.11262,-5.62327 -0.25279,3.79245 0,0 z M 201.9279,272.5759 c -4.35219,-5.61705 10.49423,7.71232 0,0 z m 94,-1.5 c 3.38384,-4.72629 3.38384,4.72629 0,0 z m 12.56811,-1.88979 c -10.73529,0.58433 4.26826,-4.23369 0,0 z m -51.48916,-9.52688 c 0.57878,-5.03486 1.04498,3.51717 0,0 z m -17,-9 c 0.57878,-5.03486 1.04498,3.51717 0,0 z m -29.76908,-5.08333 c 0.31944,-12.085 1.09833,9.29834 0,0 z m 45.88508,3 c 0.77899,-6.53147 0.64681,5.44084 0,0 z m -16,-5 c 0.77899,-6.53147 0.64681,5.44084 0,0 z m 15.03705,-3.5 c 0.79701,-6.31454 0.79701,6.31454 0,0 z m -107.232,-0.55902 c 2.615,-3.69004 1.1977,5.98001 0,0 z m 91.15789,-4.44098 c 0.7424,-5.58348 0.7424,5.58348 0,0 z m 33.90073,-11.5 c -3.18908,-12.93751 4.26726,-37.70942 2.05157,-10.72981 0.0268,4.37246 -2.60392,28.61344 -2.05157,10.72981 z m -62.82662,2.5 c 0.79701,-6.31454 0.79701,6.31454 0,0 z m 45.51869,0.47613 c -0.12719,-11.10094 2.95724,8.10311 0,0 z m 79.24931,-0.91711 c 2.05278,-4.32389 4.06665,3.97192 0,0 z m -96.6395,-9.55902 c 0.68369,-16.90651 0.68369,16.90651 0,0 z m 19.6395,6.24758 c -4.1812,-13.51393 9.68483,-10.06664 0,0 z m 13.01531,-4.99758 c 2.14122,-8.79904 1.39659,5.03253 0,0 z m -61.6223,-8.83179 c -1.52745,-14.58576 5.13863,2.60849 0,0 z m 29.96195,-10.91821 c 0.40112,-17.6297 0.96272,14.37238 0,0 z m 16.99012,6.95687 c -1.47488,-7.0316 3.34719,5.24085 0,0 z m -43.24971,-6.45687 c -3.33913,-14.17978 -0.0379,-35.87641 0.26435,-9.49535 -0.0943,1.5769 3.68161,22.22369 -0.26435,9.49535 z m -5.68414,1.75 c -9.60428,-10.29557 -1.75886,-9.75558 0,0 z m 12.67437,-3.25 c -1.57517,-6.04126 4.76026,-1.82992 0,0 z m 16.03916,-10.75 c -23.80472,-21.00519 10.24115,-50.69664 10.54901,-75.75724 10.85921,-24.421738 -3.32214,-47.80333 -16.41302,-62.515526 30.39836,-6.226895 33.37619,29.841517 31.30011,51.306175 4.60973,34.997611 44.58756,-49.175527 24.09933,-6.143861 12.22598,-7.448967 15.30028,-31.604255 10.04257,-37.017065 18.78301,24.699757 -16.2178,45.702387 -9.34264,72.537597 6.31174,29.48049 -3.13116,-28.317049 -8.20406,-1.09584 8.00443,10.06073 1.00144,48.49961 -2.91379,41.17085 8.93855,-24.0773 -10.45057,-50.41729 12.11498,-71.560835 8.39721,-15.516002 -18.3159,15.508915 -20.60714,23.315605 -6.31748,8.32143 -3.39655,35.29682 1.22507,20.93266 10.1032,19.21011 1.13404,46.38997 -22.86982,35.16686 -10.53983,17.82738 4.23662,-21.43936 3.22913,-30.13775 4.07768,-35.73082 -4.40664,15.93245 -7.56586,26.17389 -1.25389,4.63188 -2.55235,9.28378 -4.64387,13.62448 z m 23.87524,-21.10078 c 1.05053,-10.62141 -8.92752,-4.39493 0,0 z m 1.10133,-8.94789 c -6.90436,-1.04104 7.64575,11.15367 0,0 z m -4.43905,-1.95133 c -2.55113,1.9559 3.23859,5.04335 0,0 z m 3.33772,-17.81279 c 4.80807,-24.42416 -8.93735,10.33666 -3.97111,11.41319 1.84848,-3.56372 4.95737,-7.0644 3.97111,-11.41319 z m 3,-22.43721 c 2.18956,-5.48048 -5.44242,6.92376 0,0 z m -31,-62.440981 c -0.63926,-6.030641 -3.4667,3.521217 0,0 z m -6.92105,126.524311 c 0.57878,-5.03486 1.04498,3.51717 0,0 z M 198.9279,167.5759 c 1.99015,-14.44466 0.5247,15.74548 0,0 z m 13.15789,-22.5 c 0.7424,-5.58348 0.7424,5.58348 0,0 z m 0.92106,-7.41667 c 0.57878,-5.03486 1.04498,3.51717 0,0 z m 1,-4 c 0.57878,-5.03486 1.04498,3.51717 0,0 z m 1.12041,-4.08333 c -1.45469,-10.29669 4.08361,-2.56819 0,0 z m 1.87959,-8.91667 c 0.57878,-5.03486 1.04498,3.51717 0,0 z m 52.50515,-1.94189 c 3.97587,-7.24777 0.77967,3.59218 0,0 z m -51.50515,-2.05811 c 0.57878,-5.03486 1.04498,3.51717 0,0 z m 1.0821,-5.58333 c -2.30629,-9.23088 0.27958,-6.55946 0.48621,0.43995 l -0.48621,-0.43995 z m -2.99861,-11.542825 c -5.36022,-11.216299 5.40403,6.932525 0,0 z m 21.17089,0.08682 c 1.19712,-5.332214 2.93559,8.265295 0,0 z m 63.10736,0.36005 c -1.48833,-7.913788 4.90339,0.991015 0,0 z M 209.88206,86.990256 c -3.14983,-8.586359 4.91796,7.337821 0,0 z m 78.91828,-37.664354 c -1.95837,-4.5594 6.62732,8.222236 0,0 z M 282.7279,35.875903 c 5.90201,-3.925391 0.0702,5.11496 0,0 z"
       id="path5341"
       inkscape:connector-curvature="0" />
    <path
       style="fill:#040305"
       d="m 4.0607739,417.3259 c 0.085178,-25.27087 -0.032036,-50.55015 0.7047204,-75.81258 13.7209407,13.90525 38.9360217,12.48488 43.6238407,36.31951 24.421268,27.25783 60.746295,40.26104 95.159545,49.5397 41.37349,9.00848 83.98979,8.45307 126.08862,7.58648 21.39193,10.8061 42.34088,-2.19002 52.43952,-11.50839 42.70535,-8.15141 85.8526,-17.1293 125.17432,-36.24672 23.40078,-18.90215 47.71781,-49.00991 45.39313,-80.70205 -12.58514,-30.70837 -48.07418,-40.03924 -77.28704,-47.65363 -28.39838,-4.12028 -46.53231,-25.27313 -45.20371,-54.26582 1.61816,-36.02217 -52.37581,-35.31551 -44.89822,-72.09697 3.07173,-21.17086 10.60569,-42.017833 7.68771,-63.614947 5.04554,-26.916055 -18.54276,-57.864115 -33.50972,-67.5255076 33.84989,1.0586802 64.2594,-23.5318584 100.639,-16.4407304 38.57092,-3.848839 77.16883,-7.774295 115.78761,-11.286 -0.97818,107.274994 -8.20541,214.586785 -4.48805,321.851215 3.66551,71.31513 7.33102,142.63026 10.99653,213.94539 -172.79102,-3.45496 -345.61543,-5.25266 -518.440683,-4.33898 0.044292,-29.24999 0.088585,-58.49998 0.1328769,-87.74997 z M 297.65887,436.41996 c 4.78939,-1.9478 2.24261,2.0854 0,0 z m 4.26903,-2.34406 c 3.61255,-4.73147 7.42102,5.19254 0,0 z m -52,-4 c 2.29716,-4.22507 2.29716,4.22507 0,0 z m 10,-0.53138 c 2.76771,-6.51564 3.1193,5.00709 0,0 z m -77.5,-3.46862 c -3.64254,-3.53356 11.63114,5.33994 0,0 z m 75,-1 c 0.82285,-3.46123 2.33496,4.33509 0,0 z m 40.5,-0.5 c 2.31542,-5.75915 2.31542,5.75915 0,0 z m -90.72917,-2.10417 c 2.94363,-2.07916 1.79918,2.31654 0,0 z m 45.72917,-0.89583 c 6.45289,-7.56697 -0.72001,5.93795 0,0 z m 11.27083,-0.10417 c 2.94363,-2.07916 1.79918,2.31654 0,0 z M 146.9279,420.0759 c -6.72647,-3.35075 11.13152,2.62141 0,0 z m 147.75,0.33772 c 3.81422,-10.02991 11.44057,5.1273 0,0 z m 13.69834,-0.42131 c 1.58118,-7.12689 14.61851,-9.81399 4.94073,-1.19401 12.99629,-4.21932 -1.75455,5.13976 -4.94073,1.19401 z m -168.17751,-1.52058 c 2.94363,-2.07916 1.79918,2.31654 0,0 z m 116.42657,-1.71248 c 4.57412,-2.87388 16.5509,0.78293 4.96943,0.5881 l -4.96943,-0.5881 z m 47.74373,-0.15155 c -3.55294,-5.80381 10.13803,8.25266 0,0 z m -5.44113,-2.09082 c 2.615,-3.69004 1.1977,5.98001 0,0 z m -183.5,-2.44098 c 0.82285,-3.46123 2.33496,4.33509 0,0 z m -21.22917,-5.60417 c 2.94363,-2.07916 1.79918,2.31654 0,0 z M 200.4695,393.00859 c -6.89932,-11.22126 3.29752,-28.63046 -16.50038,-32.27367 -19.67818,-12.32364 -30.49684,-37.92111 -57.11968,-23.43247 -19.4265,10.7666 -64.724635,1.79138 -58.896937,-22.82041 20.535031,-14.58107 50.725417,-40.1763 75.054317,-35.7415 9.19447,21.82833 6.58232,64.18996 40.76457,60.55674 15.62126,7.24904 33.90919,-20.06294 33.47036,-15.43312 5.47763,35.12664 45.61142,43.19402 73.99428,32.02696 16.63616,-2.49083 29.99569,-39.16028 29.75934,-34.73487 -1.96952,33.63209 63.90724,37.56285 65.19309,9.07345 -0.72235,-18.62043 -9.26114,-59.72148 19.59982,-36.67127 34.59167,5.5388 37.3618,42.73918 16.05982,65.18074 -15.58565,21.84577 -46.55427,26.19878 -71.17915,27.28045 -2.14343,-19.44872 -45.79791,-3.99432 -37.5603,-22.31711 -23.50873,-7.25495 -40.83489,14.44435 -62.08483,18.4101 -8.67991,-20.16174 -11.13278,-0.79863 -16.30165,-0.32817 -1.05578,-12.36795 -3.03832,24.42409 -20.15688,12.41925 -4.68927,-0.49467 -9.37786,-1.05835 -14.09579,-1.1951 z m 29.6459,-2.6158 c -4.73672,-3.27689 -0.8038,2.64437 0,0 z m -2.21646,-5.27783 c 3.38182,-6.02707 -7.67673,4.87208 0,0 z m 5.51888,-13.05537 c -3.60728,-3.18899 -1.14185,3.75582 0,0 z m 11.51008,-6.10172 c -3.77936,-2.02767 0.14254,5.89003 0,0 z m 168,1.17705 c -2.08046,-5.69999 -6.30631,7.49058 0,0 z m -244,-19 c -0.63924,-6.03065 -3.46671,3.5212 0,0 z m -18,-31.11804 c -2.44272,-2.35446 -1.24628,4.17763 0,0 z m 21,74.58027 c -25.29132,-5.97726 -76.29772,-8.30662 -81.528609,-29.77611 23.108129,-5.31458 58.204249,-32.66046 75.593539,-8.16547 5.77153,13.24298 30.36992,38.81376 7.99768,34.67097 12.04736,5.26799 26.41535,3.66977 4.78298,3.89979 l -4.17951,-0.26405 -2.66608,-0.36509 0,-4e-5 z m 4.66043,-17.07872 c 10.10144,-4.15463 -8.44556,1.45414 0,0 z m -4.66043,-13.00155 c -2.615,-3.69004 -1.1977,5.98001 0,0 z m 63.1238,29.90985 c 4.88475,-3.97011 1.15023,5.05644 0,0 z m 46.13844,-1.04251 c 4.45841,-6.61705 5.65575,4.36566 0,0 z m 20.91821,-1.55832 c 9.13501,-12.53801 8.63897,10.98512 0,0 z m 20.83486,0.25721 c 8.94868,-8.8757 11.50295,9.09835 0,0 z m -39.74448,-2.61138 c 2.94363,-2.07916 1.79918,2.31654 0,0 z m 156.72917,-0.83681 c 0.92141,-4.11963 3.03015,2.20898 0,0 z m -198.5,-9.55902 c 0.82285,-3.46123 2.33496,4.33509 0,0 z M 79.354896,363.59737 c -3.189462,-5.56816 7.986603,5.81254 0,0 z m 95.573004,-1.6048 c 2.72401,-5.55224 2.53148,6.73768 0,0 z M 71.222894,358.43135 c -19.488472,-10.72415 2.86806,-13.32013 0,0 z M 166.9279,356.0759 c 2.71026,-4.00607 2.61714,4.90676 0,0 z m 270,-15.94098 c 0.43459,-6.30151 2.76217,2.86881 0,0 z M 49.927897,339.0759 c -2.001593,-4.39482 6.448631,5.28141 0,0 z M 220.00685,325.65923 c 0.57878,-5.03486 1.04498,3.51717 0,0 z M 66.927897,314.04452 c 2.412048,-4.14059 3.042307,2.69357 0,0 z M 6.0031853,296.13269 C -1.7619931,263.59883 -0.40556097,229.70005 -6.0263927,196.76153 -12.713989,125.11032 -10.793197,53.076069 -12.305025,-18.788504 85.593191,-13.246787 183.69636,-10.71882 281.36916,-1.6625528 257.27326,14.453042 225.69883,22.055739 210.35917,49.044512 c -18.12967,28.89351 3.05326,69.034578 -23.05673,94.030068 -18.39518,19.74649 -61.3209,19.91912 -56.07213,55.89422 8.11085,30.91297 -16.95727,54.83557 -45.032128,61.8989 -32.60055,0.9186 -49.367642,34.88426 -80.1949967,35.26499 z M 303.9279,283.13492 c 1.24628,-4.17763 2.44272,2.35446 0,0 z m -85.92105,-7.47569 c 0.57878,-5.03486 1.04498,3.51717 0,0 z m 71,-143 c 0.57878,-5.03486 1.04498,3.51717 0,0 z m -13.51466,-11.87646 c 3.12632,-5.64798 -0.36056,4.05166 0,0 z m -19.81429,-3.12823 c -15.07205,-5.5706 9.83625,-30.446209 2.14521,-7.38447 0.89162,2.0083 3.1169,9.57591 -2.14521,7.38447 z m 27.32895,0.005 c 0.57878,-5.03486 1.04498,3.51717 0,0 z m -5.97927,-1.38299 c 5.56023,-9.21896 30.25308,-47.846166 14.47837,-18.718482 -4.45379,6.525392 -10.10675,12.132562 -14.47837,18.718482 z m 15.28188,-19.752276 c -1.11722,-4.012935 -1.9798,6.266116 0,0 z M 262.9279,115.80727 c 4.27175,-9.73438 29.48282,-22.050536 8.80639,-7.07015 l -4.14794,3.87048 -4.65845,3.19967 z m 37.58295,-15.59715 c -2.72705,-5.900322 3.8682,1.40275 0,0 z M 251.9279,97.575902 c 3.37364,-8.339254 0.60938,6.611258 0,0 z m 42,-15.440983 c 0.4346,-6.301523 2.76217,2.868807 0,0 z m -51.75,-24.418929 c -25.86472,-2.713466 -0.6524,-17.804145 8.14226,-4.612718 -0.25515,5.978503 -3.93721,5.102189 -8.14226,4.612718 z m -5.83984,-5.540811 c -3.73035,-7.659152 -10.78594,5.672173 0,0 z"
       id="path5339"
       inkscape:connector-curvature="0" />
  </g>
</svg>
