<?xml version="1.0" encoding="UTF-8" standalone="no"?>
<svg
   xmlns:dc="http://purl.org/dc/elements/1.1/"
   xmlns:cc="http://creativecommons.org/ns#"
   xmlns:rdf="http://www.w3.org/1999/02/22-rdf-syntax-ns#"
   xmlns:svg="http://www.w3.org/2000/svg"
   xmlns="http://www.w3.org/2000/svg"
   xmlns:sodipodi="http://sodipodi.sourceforge.net/DTD/sodipodi-0.dtd"
   xmlns:inkscape="http://www.inkscape.org/namespaces/inkscape"
   inkscape:export-ydpi="12.832031"
   inkscape:export-xdpi="12.832031"
   inkscape:export-filename="C:\Users\Chris\Documents\GitHub\bot-game\assets\pinpoint_precision.png"
   viewBox="0 0 512 512"
   id="svg2"
   version="1.1"
   inkscape:version="0.48.4 r9939"
   width="100%"
   height="100%"
   sodipodi:docname="pinpoint_precision.svg">
  <sodipodi:namedview
     pagecolor="#ffffff"
     bordercolor="#666666"
     borderopacity="1"
     objecttolerance="10"
     gridtolerance="10"
     guidetolerance="10"
     inkscape:pageopacity="0"
     inkscape:pageshadow="2"
     inkscape:window-width="1158"
     inkscape:window-height="1254"
     id="namedview44"
     showgrid="false"
     inkscape:zoom="0.68554687"
     inkscape:cx="261.63954"
     inkscape:cy="563.93233"
     inkscape:window-x="1233"
     inkscape:window-y="126"
     inkscape:window-maximized="0"
     inkscape:current-layer="svg2" />
  <metadata
     id="metadata48">
    <rdf:RDF>
      <cc:Work
         rdf:about="">
        <dc:format>image/svg+xml</dc:format>
        <dc:type
           rdf:resource="http://purl.org/dc/dcmitype/StillImage" />
        <dc:title></dc:title>
      </cc:Work>
    </rdf:RDF>
  </metadata>
  <defs
     id="defs46">
    <linearGradient
       id="linearGradient3926">
      <stop
         id="stop3928"
         offset="0"
         style="stop-color:#ffffff;stop-opacity:0;" />
      <stop
         style="stop-color:#ffffff;stop-opacity:0.49803922;"
         offset="0.5"
         id="stop3934" />
      <stop
         id="stop3930"
         offset="1"
         style="stop-color:#ffffff;stop-opacity:0;" />
    </linearGradient>
    <filter
       id="filter3108"
       x="0"
       y="0"
       width="1"
       height="1"
       inkscape:label="Lightness-Contrast"
       inkscape:menu="Color"
       inkscape:menu-tooltip="Increase or decrease lightness and contrast"
       color-interpolation-filters="sRGB">
      <feFlood
         id="feFlood3110"
         result="result1"
         flood-opacity="1"
         flood-color="rgb(0,0,0)" />
      <feBlend
         id="feBlend3112"
         in2="SourceGraphic"
         mode="normal"
         result="result2" />
      <feComposite
         id="feComposite3114"
         in2="SourceGraphic"
         k2="1"
         operator="arithmetic"
         result="result3" />
      <feComposite
         id="feComposite3116"
         in2="SourceGraphic"
         operator="in" />
    </filter>
    <filter
       id="filter7264"
       inkscape:label="Fluorescence"
       inkscape:menu="Color"
       inkscape:menu-tooltip="Oversaturate colors which can be fluorescent in real world"
       x="0"
       y="0"
       width="1"
       height="1"
       color-interpolation-filters="sRGB">
      <feColorMatrix
         id="feColorMatrix7266"
         type="hueRotate"
         values="0" />
      <feColorMatrix
         id="feColorMatrix7268"
         type="saturate"
         values="1" />
      <feColorMatrix
         id="feColorMatrix7270"
         type="matrix"
         values="2 -1 0 0 0 0 2 -1 0 0 -1 0 2 0 0 0 0 0 1 0 " />
    </filter>
    <filter
       id="filter7746"
       inkscape:label="Fluorescence"
       inkscape:menu="Color"
       inkscape:menu-tooltip="Oversaturate colors which can be fluorescent in real world"
       x="0"
       y="0"
       width="1"
       height="1"
       color-interpolation-filters="sRGB">
      <feColorMatrix
         id="feColorMatrix7748"
         type="hueRotate"
         values="0" />
      <feColorMatrix
         id="feColorMatrix7750"
         type="saturate"
         values="1" />
      <feColorMatrix
         id="feColorMatrix7752"
         type="matrix"
         values="2 -1 0 0 0 0 2 -1 0 0 -1 0 2 0 0 0 0 0 1 0 " />
    </filter>
    <filter
       id="filter11635"
       inkscape:label="Fluorescence"
       inkscape:menu="Color"
       inkscape:menu-tooltip="Oversaturate colors which can be fluorescent in real world"
       x="0"
       y="0"
       width="1"
       height="1"
       color-interpolation-filters="sRGB">
      <feColorMatrix
         id="feColorMatrix11637"
         type="hueRotate"
         values="0" />
      <feColorMatrix
         id="feColorMatrix11639"
         type="saturate"
         values="1" />
      <feColorMatrix
         id="feColorMatrix11641"
         type="matrix"
         values="2 -1 0 0 0 0 2 -1 0 0 -1 0 2 0 0 0 0 0 1 0 " />
    </filter>
    <clipPath
       clipPathUnits="userSpaceOnUse"
       id="clipPath5731">
      <g
         transform="translate(-499.67984,900.72257)"
         id="g5733">
        <path
           sodipodi:nodetypes="csssssssscsssssscssssssssssssccssscccccsccssss"
           inkscape:connector-curvature="0"
           d="m 713.46932,336.19879 c -46.66846,-6.86515 -63.32187,-12.04474 -82.43996,-25.64069 -7.77372,-5.52834 -15.03553,-11.14129 -18.39792,-14.22052 -2.11083,-1.93307 -4.58583,-3.93035 -5.5,-4.43838 -5.84335,-3.24737 -21.16212,-23.53521 -21.16212,-28.02664 0,-0.85231 -0.3375,-1.55317 -0.75,-1.55746 -1.39551,-0.0145 -2.90294,-4.63228 -2.14427,-6.56859 0.73071,-1.86494 0.75825,-1.86261 0.90293,0.0764 0.0866,1.16054 0.36564,1.46123 0.66483,0.71638 0.61512,-1.53141 -1.53978,-4.41705 -2.74312,-3.67334 -0.46366,0.28655 -0.5612,1.25542 -0.21676,2.15303 0.38711,1.0088 0.22353,1.38311 -0.42838,0.98021 -0.9969,-0.61612 -1.63974,-2.89421 -2.94209,-10.42628 -0.30907,-1.7875 -0.93079,-3.25 -1.38159,-3.25 -1.5083,0 -4.35392,-11.40362 -5.1155,-20.5 -2.10576,-25.15144 -2.16477,-28.9906 -0.46721,-30.39944 0.89164,-0.74 1.61427,-1.85285 1.60585,-2.473 -0.008,-0.62016 -0.43396,-0.46559 -0.94563,0.34348 -1.49011,2.3562 -2.47835,0.28852 -1.2015,-2.51387 0.63934,-1.4032 1.16244,-4.39299 1.16244,-6.64398 0,-2.44744 0.59517,-4.53902 1.48053,-5.20295 0.8685,-0.65128 1.70847,-3.51394 2.03192,-6.92492 0.51015,-5.37977 2.10581,-9.68532 3.58942,-9.68532 0.34143,0 0.40573,-1.125 0.14288,-2.5 -0.27897,-1.45935 -0.0131,-2.5 0.63867,-2.5 0.61412,0 1.11658,0.9 1.11658,2 0,3.05353 1.46373,2.38454 2.73495,-1.25 2.73263,-7.81276 3.55467,-15.64994 2.41455,-23.01981 -3.44237,-22.25201 -1.57023,-46.135821 4.6943,-59.887301 1.1285,-2.47721 2.92498,-6.71925 3.99217,-9.42675 17.66648,-102.76194 365.27374,-164.419499 334.81752,122.010491 -7.79547,25.33126 -32.70829,60.14015 -49.15349,68.67863 -2.2,1.14226 -5.31489,3.49838 -6.92197,5.23581 -1.60708,1.73744 -3.18208,3.15898 -3.5,3.15898 -0.31792,0 -0.58155,0.59299 -0.58585,1.31776 -5.42674,18.0491 -23.8421,29.8395 -3.61467,11.08169 3.23208,-3.01114 3.82133,-1.56587 0.72364,1.77485 -12.76274,5.49516 4.65115,6.24035 -4.60119,11.58349 -3.4638,1.90975 -9.12315,7.28573 -8.41511,7.99376 0.32807,0.32808 -4.35653,5.11365 -11.68088,11.93265 -23.17357,21.57468 -85.54296,35.99675 -128.40401,29.69169 z m -130.5,-96.63534 c 0,-0.94984 -4.04141,-3.53247 -4.62092,-2.95297 -0.23439,0.23439 -0.14242,1.16557 0.20437,2.06929 0.61898,1.61304 4.41655,2.37287 4.41655,0.88368 z"
           style="fill:#ffffd4"
           id="path5735" />
      </g>
    </clipPath>
  </defs>
  <rect
     style="opacity:0.98999999;fill:#000000;fill-opacity:1;fill-rule:nonzero;stroke:none"
     id="rect3171"
     width="516.97894"
     height="524.13165"
     x="-0.48995453"
     y="-3.6633294" />
  <path
     inkscape:connector-curvature="0"
     id="path4674"
     d="m 485.44005,299.50242 c -0.4817,-1.10808 -0.17961,-2.6264 0.67128,-3.37405 2.59557,-2.28065 1.72681,-5.43235 -1.49742,-5.43235 -1.69139,0 -3.0445,-1.44282 -3.0445,-3.24632 0,-1.78548 1.02752,-3.24632 2.28338,-3.24632 1.25585,0 2.28337,-0.9739 2.28337,-2.16422 0,-1.19031 -0.85627,-1.92074 -1.90281,-1.62316 -1.04655,0.29758 -1.7881,-0.4352 -1.64787,-1.62842 4.1924,-35.67609 4.86467,-115.52081 1.14451,-135.93183 -6.16045,-33.79996 -14.47682,-39.10739 -28.51742,-18.19955 -3.37377,5.02388 -5.24739,7.43001 -4.16361,5.34695 1.54219,-2.96413 1.5586,-3.78737 0.0755,-3.78737 -1.51189,0 -1.51189,-0.65637 0,-3.24632 2.2841,-3.91282 -0.116,-4.37165 -2.83025,-0.54106 -1.53654,2.16852 -1.72461,1.98701 -0.94787,-0.91477 0.53295,-1.99103 1.98699,-4.17541 3.23117,-4.8542 1.2442,-0.67878 1.81726,-2.25758 1.2735,-3.50845 -0.54376,-1.25087 -0.33913,-3.44902 0.45474,-4.88476 0.79387,-1.43576 1.89027,-5.27083 2.43642,-8.522369 1.19296,-7.102171 9.09909,-20.349885 15.41035,-25.821905 2.51174,-2.177762 3.68118,-3.963195 2.59877,-3.967631 -4.01414,-0.01731 -16.88005,19.965975 -21.66676,33.651385 -2.68422,7.67428 -5.62286,13.95322 -6.5303,13.95322 -1.1507,0 -1.13319,-0.73464 0.0579,-2.42792 0.93925,-1.33536 1.37206,-3.67161 0.96178,-5.19163 -0.41026,-1.52003 0.019,-3.43586 0.954,-4.25739 1.24191,-1.09122 1.21965,-2.31647 -0.0827,-4.54734 -1.3634,-2.335663 -1.35966,-3.053641 0.016,-3.053641 0.98918,0 1.3768,-0.970022 0.86143,-2.1556 -1.66032,-3.819383 16.21667,-48.138584 23.73378,-58.838933 6.93673,-9.874181 15.63399,-15.032368 19.54779,-11.593411 2.33659,2.053103 2.23309,247.162795 -0.11143,263.759905 -1.65137,11.69039 -3.12598,14.68168 -5.05271,10.24946 z M 483.30359,72.038431 c -1.97655,-2.34103 -4.7166,-4.254909 -6.089,-4.25307 -1.37241,0.0019 -0.0977,1.830298 2.83257,4.063225 6.96772,5.309422 7.61052,5.346885 3.25643,0.189802 z m -37.85755,69.476779 c 0.12178,-2.29818 0.73428,-3.72784 1.36116,-3.17702 0.62688,0.55081 0.75389,2.43114 0.28227,4.17851 -1.18923,4.40601 -1.90677,3.96876 -1.64343,-1.00149 z m -1.07386,-11.6054 c 0.57165,-2.13439 1.42283,-3.33553 1.89152,-2.66919 0.46868,0.66634 9.7e-4,2.41264 -1.03937,3.88072 -1.5034,2.12149 -1.67824,1.87291 -0.85215,-1.21153 z m -2.38124,-5.6028 c 0,-1.19032 0.68501,-2.76611 1.52225,-3.50177 0.83724,-0.73566 1.52225,-0.36365 1.52225,0.82667 0,1.19031 -0.68501,2.7661 -1.52225,3.50176 -0.83724,0.73566 -1.52225,0.36365 -1.52225,-0.82666 z"
     style="fill:#70b9c4" />
  <path
     inkscape:connector-curvature="0"
     id="path4672"
     d="m 379.67144,445.4373 c -0.4949,-91.67218 0.93987,-136.43991 4.87642,-152.15422 1.48048,-5.90991 1.40284,-7.50147 -0.44707,-9.16478 -1.54741,-1.39131 0.22907,-2.02308 5.75313,-2.046 5.90122,-0.0245 7.9918,0.77109 7.9918,3.04119 0,1.69088 -1.7365,17.51669 -3.8589,35.16848 -5.66852,47.14466 -7.87981,73.0919 -9.83607,115.41637 -3.26767,70.69724 -4.13997,72.59378 -4.47931,9.73896 z m 12.56489,-176.39876 c -3.74895,-2.14749 -3.64131,-3.27322 3.30935,-34.61208 7.27906,-32.81941 12.86807,-60.14644 17.48396,-85.48644 5.4175,-29.74069 13.74099,-66.726841 14.70727,-65.353063 0.35932,0.510884 -1.3873,11.041775 -3.8814,23.401993 -3.94546,19.55287 -11.21677,69.64039 -20.77818,143.12806 -2.8888,22.20286 -3.43829,23.16191 -10.841,18.92153 z"
     style="fill:#565569;fill-opacity:1" />
  <path
     inkscape:connector-curvature="0"
     id="path4670"
     d="m 381.82876,481.68788 c 3.35787,-77.73652 4.86571,-98.09548 11.58087,-156.36444 5.50461,-47.76481 4.77956,-43.51468 7.07697,-41.4843 1.483,1.31065 1.41671,5.5211 -0.31412,19.94961 -4.40446,36.71652 -8.64138,99.54358 -9.99029,148.14119 -0.75991,27.3773 -1.40152,50.02039 -1.4258,50.31797 -0.0244,0.29758 -1.79802,0.54105 -3.94164,0.54105 l -3.89745,0 0.91146,-21.10108 z M 128.57317,311.70776 c -2.55108,-3.62692 -2.04858,-5.48518 1.73731,-6.42481 1.88378,-0.46754 -1.02752,-0.39906 -6.46956,0.15214 -17.35441,1.75784 -9.09073,-1.36471 16.02644,-6.05579 112.90922,-21.0878 174.98572,-27.87103 222.96664,-24.36401 20.89363,1.52716 19.43004,1.68649 -27.40048,2.98298 -47.33989,1.31061 -76.93556,3.69081 -105.03518,8.44734 -72.37491,12.25122 -72.73895,12.33455 -77.93536,17.83687 -7.68307,8.13536 -20.5725,12.14158 -23.88981,7.42528 z m 273.8393,-31.83281 c -1.37199,-1.26057 -1.55974,-2.11117 -0.47041,-2.13108 0.99714,-0.0173 2.23634,0.94076 2.75378,2.13108 1.16802,2.68694 0.64105,2.68694 -2.28337,0 z m -2.28337,-6.6484 c -1.67448,-0.93732 -2.31387,-1.77269 -1.42086,-1.85633 0.893,-0.0838 2.85909,-9.64761 4.36909,-21.25321 13.56314,-104.24444 19.32897,-138.91332 38.33281,-230.488758 0.5771,-2.78095 2.38713,-3.787374 6.81147,-3.787374 l 6.02551,0 -2.15877,5.951588 c -4.08416,11.259776 -13.37962,47.095173 -16.13975,62.221144 -1.52043,8.332222 -5.52587,28.78404 -8.90097,45.44849 -6.33587,31.28314 -14.4501,79.48642 -20.44057,121.42916 -3.18732,22.31609 -3.65173,23.91735 -6.47796,22.33529 z M 87.306948,199.79904 c -5.16318,-1.54512 -5.186698,-1.59656 -0.761125,-1.66359 2.511711,-0.0381 6.279277,0.71058 8.372369,1.66359 4.991317,2.27262 -0.01705,2.27262 -7.611244,0 z m -48.299695,-5.63598 c 0.505828,-0.71914 1.818768,-0.79602 2.917649,-0.17097 1.214344,0.69088 0.853647,1.20371 -0.919697,1.30755 -1.604694,0.0939 -2.50378,-0.41754 -1.997952,-1.13669 z m -0.241931,-5.36037 c -3.673871,-1.0259 -7.098931,-2.47114 -7.611244,-3.21165 -1.077494,-1.55747 12.388046,1.06711 18.06672,3.5214 l 3.835549,1.65772 -3.805622,-0.0511 c -2.093092,-0.0281 -6.811516,-0.89046 -10.485403,-1.91634 z"
     style="fill:#a0a1a9" />
  <path
     inkscape:connector-curvature="0"
     id="path4668"
     d="m 432.08014,366.41807 c -2.31721,-3.6403 -2.95812,-8.97294 -3.50074,-29.12731 -0.36533,-13.56914 -0.18794,-30.09092 0.3942,-36.71506 0.94612,-10.76599 1.43738,-12.0439 4.63001,-12.0439 7.98923,0 8.60956,1.48288 7.58287,18.12633 -0.52314,8.48045 -1.27412,16.83817 -1.66887,18.57274 -0.39474,1.73456 -1.03458,11.9222 -1.42186,22.63919 -0.38728,10.717 -1.261,20.27715 -1.94161,21.24479 -0.68062,0.96764 -2.51392,-0.2459 -4.074,-2.69678 z m 8.99053,-29.19146 c 0.59918,-15.47413 1.69511,-32.51731 2.43538,-37.87374 1.54688,-11.19299 -0.51502,-15.14949 -7.89505,-15.14949 -5.44988,0 -5.4344,-1.03231 0.49287,-32.88086 5.30312,-28.49486 12.26528,-47.86894 17.59021,-48.94953 4.49362,-0.91192 6.27835,4.54281 8.22908,25.15069 3.38048,35.71212 -9.28658,122.96805 -19.61281,135.10104 -2.07913,2.44292 -2.2122,-0.28332 -1.23968,-25.39811 z M 157.07207,111.64612 c -8.09584,-6.80715 -14.39177,-13.13098 -13.99096,-14.052978 1.66154,-3.822196 6.53703,-1.080744 15.89746,8.938978 8.78152,9.40005 15.00829,17.54643 13.38014,17.50503 -0.31182,-0.009 -7.19082,-5.58389 -15.28664,-12.39103 z"
     style="fill:#e6a232" />
  <path
     inkscape:connector-curvature="0"
     id="path4666"
     d="m 474.20185,413.53696 c -2.34474,-3.33356 -2.22924,-5.00552 0.62618,-9.06513 3.33919,-4.7474 6.74138,-4.24089 6.74138,1.00365 0,3.68799 -0.48028,4.03914 -2.95211,2.15837 -1.96317,-1.49374 -3.26813,-1.51925 -3.89547,-0.0762 -0.51884,1.19352 0.12468,2.17006 1.42987,2.17006 1.30527,0 2.37321,0.91641 2.37321,2.03648 0,3.42164 -2.45512,4.42839 -4.32306,1.77271 z m -11.72314,-8.2816 c -0.55186,-1.26951 -0.63787,-2.82787 -0.19112,-3.46305 1.09042,-1.55024 4.05933,1.1813 4.05933,3.73477 0,2.7658 -2.62802,2.58119 -3.86821,-0.27172 z m 7.28195,-5.40606 c -1.05277,-1.62722 -2.93656,-2.4008 -4.18619,-1.71905 -1.24963,0.68175 -2.27204,0.21893 -2.27204,-1.02848 0,-3.18696 3.18612,-5.63105 4.35637,-3.34183 1.40465,2.74778 4.77712,3.3546 4.77712,0.85956 0,-1.16763 -1.71253,-2.73405 -3.80562,-3.48094 -2.0931,-0.74687 -3.79514,-1.98279 -3.78232,-2.74649 0.0411,-2.45232 2.87047,-7.88118 4.10736,-7.88118 0.65847,0 1.19721,-3.81376 1.19721,-8.475 0,-10.30523 2.46455,-12.07094 6.03498,-4.32375 1.45925,3.16631 1.94445,5.13418 1.07821,4.37305 -0.86622,-0.76113 -2.00523,-0.39408 -2.5311,0.81565 -0.52588,1.20973 -0.14309,2.19951 0.85049,2.19951 2.17151,0 0.80278,15.16813 -2.05477,22.77076 -1.5492,4.12172 -2.1716,4.44834 -3.7697,1.97819 z m 16.3755,-1.17722 c 0,-1.46199 -1.44982,-1.88148 -3.71232,-1.07416 -2.0418,0.72858 -4.11263,0.40384 -4.60187,-0.7216 -1.51925,-3.49488 2.79525,-19.60929 5.25977,-19.64489 1.9164,-0.0277 1.94412,-0.34748 0.16866,-1.9458 -2.68212,-2.41453 -0.97264,-9.79341 1.73333,-7.48175 1.51698,1.29593 1.51392,0.93295 -0.0152,-1.75143 -1.49576,-2.6266 -1.55455,-5.86394 -0.26207,-14.43211 0.91644,-6.07529 1.38485,-12.7731 1.04092,-14.88405 -0.34393,-2.11095 -1.14402,0.63606 -1.77799,6.10449 -1.06655,9.19983 -1.44361,9.86353 -5.04728,8.88412 -2.50572,-0.68099 -3.53912,-0.24069 -2.89775,1.23468 0.54827,1.26124 0.13624,2.86776 -0.91545,3.57007 -1.05177,0.70228 -0.14263,0.95156 2.02018,0.5539 2.56512,-0.4716 3.93248,0.3097 3.93248,2.247 0,2.18369 -1.24261,2.59203 -4.69361,1.54233 -2.58147,-0.7852 -4.88142,-1.66208 -5.11098,-1.9486 -0.22957,-0.28652 0.96343,-8.9403 2.65109,-19.23062 1.68767,-10.29031 3.51335,-24.09098 4.05707,-30.66818 0.54371,-6.5772 1.58819,-12.48539 2.32105,-13.12933 0.73285,-0.64394 0.91429,-2.13275 0.40319,-3.30846 -1.5471,-3.55896 0.65275,-11.99134 3.1283,-11.99134 1.27493,0 2.31805,0.81158 2.31805,1.80352 0,0.99193 -1.02752,1.80351 -2.28337,1.80351 -1.25586,0 -2.28337,1.46084 -2.28337,3.24632 0,1.8035 1.35311,3.24632 3.04449,3.24632 3.22423,0 4.093,3.1517 1.49742,5.43235 -0.85089,0.74765 -1.15298,2.26597 -0.67128,3.37405 1.87446,4.312 3.47034,1.59275 4.85076,-8.26535 1.10393,-7.88356 1.50611,0.95024 1.72525,37.8943 0.22905,38.61795 -0.19625,50.53145 -2.14396,60.05693 -2.29216,11.21214 -3.73548,14.87605 -3.73548,9.48378 z m 0.9197,-74.92672 c -0.50583,-0.71915 -0.86562,0.5591 -0.79952,2.84053 0.0731,2.5212 0.43375,3.03401 0.91968,1.30755 0.43973,-1.5623 0.38566,-3.42894 -0.1201,-4.14808 z m -70.94315,-34.13145 c 0,-1.78548 0.66352,-3.24632 1.47448,-3.24632 0.81095,0 1.08017,1.46084 0.59826,3.24632 -0.48193,1.78548 -1.14543,3.24632 -1.47448,3.24632 -0.32904,0 -0.59826,-1.46084 -0.59826,-3.24632 z m 65.57688,-14.96915 c -0.0661,-2.28143 0.29369,-3.55968 0.79952,-2.84053 0.50583,0.71917 0.5599,2.5858 0.12011,4.14808 -0.48594,1.72646 -0.84665,1.21365 -0.91969,-1.30755 z m -62.53238,-11.95579 c 0,-1.26057 0.68501,-2.29194 1.52225,-2.29194 0.83723,0 1.52225,0.42946 1.52225,0.95437 0,0.52491 -0.68502,1.55629 -1.52225,2.29195 -0.83724,0.73566 -1.52225,0.30619 -1.52225,-0.95438 z m 64.1748,-2.29194 c 0,-2.9758 0.34552,-4.19317 0.76781,-2.70527 0.42228,1.4879 0.42228,3.92264 0,5.41053 -0.42229,1.4879 -0.76781,0.27053 -0.76781,-2.70526 z m -62.54555,-5.82386 c 0.0589,-0.96299 0.69569,-3.69868 1.41525,-6.07932 1.26132,-4.17312 1.3121,-4.15828 1.41525,0.41332 0.0589,2.60797 -0.57802,5.34366 -1.41525,6.07932 -0.83724,0.73566 -1.4741,0.54967 -1.41525,-0.41332 z m 64.0678,-15.81828 c 0,-2.97579 0.34552,-4.19316 0.76781,-2.70527 0.42228,1.4879 0.42228,3.92264 0,5.41054 -0.42229,1.48789 -0.76781,0.27052 -0.76781,-2.70527 z m -60.57336,-7.28431 c 0.55277,-2.2209 1.41219,-10.01206 1.90981,-17.31371 0.49763,-7.30165 1.18488,-13.93886 1.52721,-14.74933 0.34234,-0.8105 -0.0738,-2.08533 -0.92464,-2.833 -0.85089,-0.74765 -1.49299,-3.49317 -1.4269,-6.10114 0.0661,-2.60796 0.46569,-3.52438 0.88798,-2.03648 0.42229,1.4879 1.43615,2.70527 2.25303,2.70527 0.81689,0 1.09114,-0.90661 0.60945,-2.01467 -0.4817,-1.10808 -0.17961,-2.62638 0.67128,-3.37405 2.41706,-2.12379 1.8139,-5.44207 -0.73629,-4.05078 -1.25586,0.68517 -2.28338,0.16773 -2.28338,-1.15002 0,-1.31768 0.7583,-2.39576 1.68512,-2.39576 0.9268,0 1.31671,-1.36489 0.86646,-3.03306 -1.43778,-5.32687 11.56981,-68.60274 14.42973,-70.194 0.71756,-0.39926 0.91745,-1.61663 0.4442,-2.70527 -0.47324,-1.08864 -0.24918,-1.97937 0.49794,-1.97937 2.55911,0 3.36164,2.84804 1.63565,5.80477 -0.94927,1.62617 -1.29178,3.57396 -0.76112,4.32843 0.53067,0.75444 0.2019,2.67871 -0.73059,4.27612 -1.04744,1.79432 -1.10996,2.90439 -0.16358,2.90439 0.84252,0 3.72803,-6.27894 6.41225,-13.95322 4.78671,-13.68541 17.65262,-33.667898 21.66676,-33.651385 1.08241,0.0043 -0.0871,1.789869 -2.59877,3.967631 -6.31126,5.47202 -14.21739,18.719734 -15.41035,25.821905 -0.54615,3.251539 -1.64255,7.086609 -2.43642,8.522369 -0.79387,1.43574 -0.9985,3.63389 -0.45474,4.88476 0.54376,1.25087 -0.0292,2.82967 -1.2735,3.50845 -1.24418,0.67879 -2.69822,2.86317 -3.23117,4.8542 -0.77674,2.90178 -0.58867,3.08329 0.94787,0.91477 2.61346,-3.68832 5.15545,-3.44218 2.97778,0.28832 -1.36127,2.33194 -1.15013,3.32412 0.9553,4.48921 2.48826,1.37691 2.43607,1.8051 -0.65755,5.3946 -1.84817,2.14443 -2.87569,4.662 -2.28337,5.59458 0.59234,0.93258 -0.0563,1.11974 -1.44155,0.41592 -1.95594,-0.99381 -2.42776,-0.10388 -2.11216,3.9836 0.22352,2.89481 -0.0703,5.26328 -0.65283,5.26328 -0.58256,0 -1.13575,1.21737 -1.22929,2.70527 -0.0936,1.4879 -2.61195,12.31922 -5.59646,24.06963 -2.98449,11.75038 -6.83963,29.28051 -8.56697,38.95584 -1.72736,9.67532 -3.87651,18.56539 -4.77592,19.75571 -1.14235,1.51183 -1.33235,0.94699 -0.63027,-1.87378 z m 21.9828,-104.22996 c -0.46869,-0.66634 -1.31987,0.5348 -1.89152,2.66919 -0.82609,3.08444 -0.65125,3.33302 0.85215,1.21153 1.04034,-1.46808 1.50805,-3.21438 1.03937,-3.88072 z m -1.22826,-5.60871 c 0,-1.19032 -0.68501,-1.56233 -1.52225,-0.82667 -0.83724,0.73566 -1.52225,2.31145 -1.52225,3.50177 0,1.19031 0.68501,1.56232 1.52225,0.82666 0.83724,-0.73566 1.52225,-2.31145 1.52225,-3.50176 z M 84.26245,195.47062 c -1.255856,-1.15388 -1.598362,-2.09793 -0.761125,-2.09793 0.837237,0 2.549767,0.94405 3.805623,2.09793 1.255855,1.15387 1.598361,2.09792 0.761124,2.09792 -0.837237,0 -2.549767,-0.94405 -3.805622,-2.09792 z m -17.505863,-8.65686 c -0.517442,-1.19032 -0.255783,-2.16421 0.581454,-2.16421 0.837237,0 1.945601,0.97389 2.463044,2.16421 0.517443,1.19032 0.255784,2.16421 -0.581453,2.16421 -0.837237,0 -1.945602,-0.97389 -2.463045,-2.16421 z m -10.626378,-2.15357 c -3.332796,-0.9107 -7.100362,-1.19378 -8.372369,-0.62907 -2.046724,0.90865 -2.050104,0.75845 -0.02938,-1.30586 2.334871,-2.3852 11.094256,-1.1561 15.222489,2.13599 2.645379,2.10957 1.513161,2.0762 -6.820756,-0.20106 z M 457.21343,120.80524 c 1.04227,-1.78547 2.23754,-3.24632 2.65616,-3.24632 0.41862,0 -0.0916,1.46085 -1.13391,3.24632 -1.04227,1.78548 -2.23754,3.24632 -2.65616,3.24632 -0.41862,0 0.0916,-1.46084 1.13391,-3.24632 z M 445.03544,95.916785 c 0,-1.190317 0.30207,-2.164214 0.67128,-2.164214 0.36921,0 1.09465,0.973897 1.61209,2.164214 0.51745,1.190318 0.21537,2.164214 -0.67128,2.164214 -0.88665,0 -1.61209,-0.973896 -1.61209,-2.164214 z m 35.01172,-24.068199 c -2.93033,-2.232927 -4.20498,-4.061363 -2.83257,-4.063225 1.3724,-0.0018 4.11245,1.91204 6.089,4.25307 4.35409,5.15704 3.71129,5.119577 -3.25643,-0.189802 z"
     style="fill:#519eaf" />
  <path
     inkscape:connector-curvature="0"
     id="path4664"
     d="m 441.60916,500.1853 c -0.37572,-1.54377 2.21308,-8.65025 5.75288,-15.79216 6.45649,-13.02655 12.95959,-29.72121 12.82267,-32.91803 -0.0403,-0.94016 -2.03421,3.64704 -4.43099,10.19379 -5.91412,16.15428 -15.18934,31.30072 -17.31604,28.27714 -1.14834,-1.63262 -1.10946,-3.03581 0.13304,-4.80235 1.20777,-1.71711 1.28604,-3.7427 0.25088,-6.49264 -1.04006,-2.76303 -0.9864,-3.99687 0.17386,-3.99687 0.98566,0 1.27957,-1.78651 0.71211,-4.32842 -0.54454,-2.43923 -0.27355,-4.32843 0.62086,-4.32843 1.0332,0 1.11639,-1.76042 0.23836,-5.0437 -1.08929,-4.07333 -0.42308,-6.70738 3.46273,-13.69093 2.64636,-4.75599 6.16608,-12.22527 7.82164,-16.59843 1.65556,-4.37317 3.57976,-7.95122 4.27602,-7.95122 0.69627,0 0.84257,-0.97389 0.32513,-2.16421 -0.51745,-1.19032 -0.10123,-2.16421 0.92499,-2.16421 1.02619,0 1.46506,-0.56975 0.97526,-1.26609 -0.4898,-0.69636 -0.1868,-4.13616 0.67331,-7.644 1.26789,-5.17089 1.97154,-5.89686 3.71812,-3.83605 1.18484,1.39804 2.65039,1.83651 3.25676,0.97442 0.60639,-0.8621 -0.0951,-2.81257 -1.55903,-4.33436 -1.46385,-1.52181 -2.66154,-3.25606 -2.66154,-3.85388 0,-2.07791 8.06367,0.18525 9.09248,2.55189 1.34479,3.09357 4.29325,-6.08614 5.55336,-17.28975 0.66966,-5.95386 0.41185,-8.58646 -0.84089,-8.58646 -0.99365,0 -1.37637,-0.98978 -0.85049,-2.19951 0.52587,-1.20973 1.66488,-1.57678 2.5311,-0.81565 0.86624,0.76113 0.39761,-1.17077 -1.04137,-4.29313 -2.48636,-5.39495 -6.68493,-8.42494 -4.40422,-3.17838 0.67296,1.54806 0.41759,1.91113 -0.67128,0.95437 -3.91461,-3.43967 -1.63847,-6.14336 4.07783,-4.84379 4.27961,0.97292 5.8353,0.56808 5.8353,-1.51854 0,-1.80307 -1.44034,-2.58035 -3.93249,-2.12217 -2.16285,0.39766 -3.07194,0.14847 -2.02017,-0.5539 1.05177,-0.70231 1.46372,-2.30883 0.91545,-3.57007 -0.64137,-1.47537 0.39202,-1.91567 2.89775,-1.23468 3.60367,0.97941 3.98073,0.31571 5.04728,-8.88412 0.63397,-5.46843 1.43406,-8.21544 1.77798,-6.10449 0.34394,2.11095 -0.12452,8.80876 -1.04091,14.88405 -1.29248,8.56817 -1.23369,11.80551 0.26207,14.43211 1.52869,2.68438 1.53175,3.04736 0.0152,1.75143 -2.70596,-2.31166 -4.41545,5.06722 -1.73332,7.48175 1.77546,1.59832 1.74774,1.9181 -0.16867,1.9458 -2.46452,0.0355 -6.77901,16.15001 -5.25976,19.64489 0.48923,1.12544 2.46723,1.48329 4.39554,0.79522 3.98496,-1.42195 6.94224,5.07106 3.63373,7.97816 -1.05066,0.92317 -1.47579,2.29623 -0.94474,3.05124 1.66759,2.37085 -12.41117,55.4148 -21.81325,82.18485 l -3.80052,10.82106 -8.50023,0.64267 c -5.93008,0.44834 -8.70676,-0.20604 -9.18334,-2.16422 z m 36.91575,-88.42105 c 0,-1.12006 -1.06794,-2.03648 -2.37321,-2.03648 -1.30527,0 -1.94871,-0.97653 -1.42987,-2.17006 0.62734,-1.44311 1.9323,-1.4176 3.89547,0.0762 2.4445,1.85999 2.95211,1.53227 2.95211,-1.90593 0,-2.333 -1.33478,-4.64843 -3.0466,-5.28486 -1.67563,-0.62297 -2.66271,-0.24962 -2.19353,0.82969 0.46919,1.07932 0.20091,1.96238 -0.59615,1.96238 -2.37298,0 -3.48363,6.81191 -1.62875,9.98945 1.77006,3.03222 4.42053,2.15662 4.42053,-1.46032 z m -57.84545,63.97204 c 0,-1.78548 0.26922,-3.24632 0.59826,-3.24632 0.32904,0 0.99255,1.46084 1.47448,3.24632 0.48191,1.78548 0.21268,3.24632 -0.59826,3.24632 -0.81097,0 -1.47448,-1.46084 -1.47448,-3.24632 z m 0.38056,-8.1158 c 0.20931,-1.4879 -0.43256,-2.48225 -1.42639,-2.20964 -1.15868,0.31781 -1.77723,-2.56756 -1.72407,-8.04244 l 0.0828,-8.53808 4.76858,6.96035 c 4.8675,7.10475 5.98095,10.90101 1.72407,5.87822 -3.19321,-3.76774 -4.54658,-1.36261 -1.59474,2.83408 2.96128,4.21011 2.98135,5.82278 0.0725,5.82278 -1.25586,0 -2.11212,-1.21738 -1.90281,-2.70527 z m -5.52038,-24.43107 c -1.46894,-5.44233 -1.0356,-6.8466 0.75889,-2.45929 0.88852,2.17233 1.29483,4.40561 0.90289,4.96283 -0.39193,0.55722 -1.13974,-0.56939 -1.66178,-2.50354 z m 52.32953,-49.2034 c 0,-1.11927 -1.02752,-1.47448 -2.28337,-0.78931 -1.25586,0.68514 -2.28337,0.30238 -2.28337,-0.85056 0,-2.37304 3.14062,-2.73849 6.72561,-0.78265 3.05121,1.66463 3.12921,4.45759 0.12452,4.45759 -1.25585,0 -2.28337,-0.91579 -2.28337,-2.03507 z m -0.60021,-12.02284 c -0.5191,-1.19415 -0.12177,-4.93112 0.883,-8.30437 l 1.82682,-6.13321 0.58645,6.21524 c 0.61668,6.53553 -1.61241,12.09585 -3.29627,8.22234 z m -55.98619,-22.15592 c -1.43962,-5.14273 0.91613,-58.86795 2.76805,-63.1281 0.39562,-0.9101 -0.006,-1.65471 -0.89276,-1.65471 -0.88665,0 -1.6121,-1.9478 -1.6121,-4.32843 0,-2.40468 1.01484,-4.32843 2.28338,-4.32843 1.25585,0 2.29386,1.70432 2.30668,3.78737 0.0199,3.24187 0.2389,3.3198 1.52013,0.54106 1.08667,-2.35683 1.26459,-1.46734 0.64933,3.24632 -0.46613,3.57095 -2.0234,20.61413 -3.46062,37.87374 -1.43722,17.2596 -3.04016,29.85563 -3.56209,27.99118 z m 74.97357,-33.22137 c -0.0661,-2.28143 0.29369,-3.55968 0.79952,-2.84053 0.50582,0.71914 0.55989,2.58578 0.1201,4.14808 -0.48593,1.72646 -0.84664,1.21365 -0.91968,-1.30755 z m -73.18673,-50.49831 c 7.6e-4,-0.89274 2.6375,-19.91705 5.85938,-42.27621 4.54072,-31.51149 6.24896,-39.98331 7.59663,-37.67461 0.95626,1.63814 1.47412,3.37576 1.15078,3.86141 -0.32333,0.48563 -0.99345,6.85705 -1.48917,14.1587 -0.49571,7.30165 -1.36914,15.0091 -1.94098,17.12767 -0.79367,2.94056 -0.52823,3.41364 1.12182,1.99941 1.80023,-1.54295 1.83454,-1.27864 0.20528,1.58137 -1.07591,1.88869 -1.82157,4.2669 -1.657,5.28492 0.16459,1.01803 -0.47718,4.52072 -1.42613,7.78377 -0.94894,3.26303 -1.32877,7.40209 -0.84407,9.19791 0.48471,1.7958 0.12299,3.26511 -0.80383,3.26511 -0.92682,0 -1.68511,1.03137 -1.68511,2.29194 0,1.26057 0.79085,1.59704 1.75745,0.74772 1.2025,-1.05662 1.33751,-0.58441 0.42752,1.49542 -0.73145,1.67182 -1.13077,5.23093 -0.88738,7.90915 0.35903,3.95055 -0.2962,4.86948 -3.47202,4.86948 -2.15302,0 -3.91394,-0.73043 -3.91317,-1.62316 z M 64.853776,202.63561 c 1.465165,-0.54434 3.862707,-0.54434 5.327871,0 1.465165,0.54437 0.266394,0.98976 -2.663935,0.98976 -2.930329,0 -4.1291,-0.44539 -2.663936,-0.98976 z M 426.17019,187.71886 c -1.26538,-4.68817 -1.3015,-4.58833 2.12051,-5.86061 3.16369,-1.17623 4.2003,1.52028 1.49742,3.89522 -0.85089,0.74767 -1.15298,2.26597 -0.67128,3.37405 0.48169,1.10806 0.22363,2.01467 -0.57343,2.01467 -0.79708,0 -1.86503,-1.54049 -2.37322,-3.42333 z M 48.844787,184.38099 c 1.032602,-1.47907 2.260905,-2.14402 2.72959,-1.47768 0.468685,0.66634 -0.376163,1.87648 -1.877435,2.68921 -2.169509,1.17447 -2.344355,0.92589 -0.852155,-1.21153 z m 6.085403,1.01318 c 1.030608,-0.59283 3.085644,-0.6289 4.566747,-0.0801 1.481102,0.54871 0.637868,1.03376 -1.873843,1.07787 -2.511711,0.0442 -3.723512,-0.40484 -2.692904,-0.99769 z m 371.83826,-8.19164 c 0,-0.52491 0.68501,-1.55629 1.52225,-2.29194 0.83724,-0.73566 1.52225,-0.3062 1.52225,0.95437 0,1.26057 -0.68501,2.29195 -1.52225,2.29195 -0.83724,0 -1.52225,-0.42947 -1.52225,-0.95438 z"
     style="fill:#3888a4" />
  <path
     inkscape:connector-curvature="0"
     id="path4660"
     d="m 403.82641,499.00159 c -0.0595,-2.08306 -0.63082,-11.57855 -1.26946,-21.10109 -2.3437,-34.94638 3.0095,-165.69302 7.17735,-175.30001 0.51611,-1.1896 0.83701,-5.08519 0.71315,-8.65685 -0.12391,-3.57167 0.12284,-4.78962 0.54827,-2.70657 0.42542,2.08306 1.44869,3.78738 2.27395,3.78738 0.82525,0 1.11737,0.88128 0.64913,1.95839 -1.34419,3.09219 -3.12955,39.01913 -2.5914,52.14695 0.26837,6.54674 0.72518,23.10298 1.01513,36.79163 0.28994,13.68865 0.99912,26.63533 1.57593,28.77039 0.57683,2.13504 0.66206,7.26983 0.18943,11.41062 -0.58497,5.12486 -0.33121,7.06464 0.79475,6.07529 1.12335,-0.98707 1.31906,0.44438 0.60994,4.46127 -0.67711,3.83553 -0.49373,5.43103 0.52167,4.53881 0.93113,-0.81816 1.19838,-0.0152 0.65929,1.98287 -0.49861,1.84731 -0.2764,3.35873 0.49379,3.35873 0.77018,0 1.16808,4.39102 0.88419,9.75782 -0.37317,7.0551 0.0219,9.60274 1.42646,9.1979 1.06843,-0.30794 1.77135,0.65747 1.56204,2.14537 -0.20931,1.48789 0.64695,2.70527 1.90281,2.70527 1.25586,0 2.28337,-0.9739 2.28337,-2.16422 0,-1.19032 -0.61173,-2.16421 -1.35938,-2.16421 -0.74767,0 -1.73622,-1.39614 -2.19679,-3.10255 -0.55667,-2.06239 0.11889,-3.00012 2.01505,-2.79706 1.56884,0.16795 2.44503,1.24272 1.94708,2.38821 -0.52739,1.21318 0.20419,1.4774 1.7522,0.63286 1.46168,-0.79744 3.23401,-1.44989 3.93854,-1.44989 0.70453,0 3.23732,-2.3404 5.62846,-5.20091 l 4.34748,-5.20089 -0.0445,7.36374 c -0.0245,4.05005 -0.60443,7.36435 -1.28878,7.3651 -0.68435,7.6e-4 -0.80944,1.94918 -0.27798,4.32982 0.56746,2.54191 0.27355,4.32842 -0.71211,4.32842 -1.16026,0 -1.21392,1.23384 -0.17382,3.99687 1.02511,2.72323 0.96573,4.76296 -0.18637,6.40092 -1.23975,1.76258 -1.17101,3.29474 0.25764,5.7421 1.72516,2.95532 1.21413,4.14505 -1.59556,3.71457 -0.4884,-0.0749 -0.88799,1.25522 -0.88799,2.95566 0,2.12327 0.56044,2.43044 1.78917,0.98065 0.98403,-1.1611 2.18849,-1.54334 2.67656,-0.84943 0.48808,0.69389 0.70617,-0.49398 0.48465,-2.63974 -0.2215,-2.14575 2.39869,-8.80878 5.82266,-14.80675 3.42397,-5.99796 7.53136,-15.05437 9.12753,-20.12536 1.59617,-5.07097 3.18523,-8.81747 3.53125,-8.32552 0.97228,1.38231 -5.44424,18.526 -11.35224,30.331 -4.626,9.24338 -5.84827,12.84751 -6.38153,18.81736 -0.0641,0.71712 -4.56588,1.41166 -10.00405,1.54341 -8.12482,0.19673 -10.40296,-0.54696 -12.77845,-4.17206 -2.13413,-3.25675 -3.19375,-3.71487 -4.04787,-1.75007 -0.70089,1.61232 -0.52706,2.10803 0.44097,1.25745 0.87885,-0.77223 1.99072,0.0513 2.47079,1.82982 0.70221,2.60165 -0.60586,3.2339 -6.6906,3.2339 -6.14723,0 -7.58376,-0.70919 -7.67179,-3.78737 z m 18.92579,-23.2653 c -0.48193,-1.78548 -1.14544,-3.24632 -1.47448,-3.24632 -0.32904,0 -0.59826,1.46084 -0.59826,3.24632 0,1.78548 0.66351,3.24632 1.47448,3.24632 0.81094,0 1.08017,-1.46084 0.59826,-3.24632 z m -9.44364,-126.6065 c 0,-2.9758 0.34552,-4.19317 0.76781,-2.70527 0.42228,1.4879 0.42228,3.92264 0,5.41054 -0.42229,1.48789 -0.76781,0.27052 -0.76781,-2.70527 z m 1.40208,-20.37969 c -0.0661,-2.28143 0.29369,-3.55968 0.79952,-2.84053 0.50583,0.71915 0.5599,2.58578 0.1201,4.14808 -0.48593,1.72646 -0.84664,1.21365 -0.91968,-1.30755 z M 50.011849,202.54396 c -2.993822,-1.06343 -5.2587,-4.34704 -5.304565,-7.69054 -0.01218,-0.93461 1.274685,-0.7117 2.861112,0.49539 1.586443,1.20709 6.869179,2.86055 11.739432,3.67434 6.409642,1.07103 8.030258,1.93812 5.868498,3.13986 -3.328367,1.8503 -10.519288,2.03092 -15.164477,0.38095 z m 24.736545,0.0563 c 1.883783,-0.51586 4.966337,-0.51586 6.85012,0 1.883783,0.51584 0.342506,0.9379 -3.42506,0.9379 -3.767566,0 -5.308843,-0.42206 -3.42506,-0.9379 z m -14.080802,-13.62215 -6.088996,-1.54999 5.327871,-0.27396 c 2.930329,-0.15063 6.355389,0.67008 7.611245,1.82395 2.490795,2.28851 2.140084,2.28851 -6.85012,0 z m -11.004596,-3.47176 c 0.505828,-0.71915 1.818767,-0.79602 2.917648,-0.17098 1.214344,0.69088 0.853647,1.20372 -0.919697,1.30756 -1.604694,0.0939 -2.503779,-0.41755 -1.997951,-1.13669 z"
     style="fill:#2b7693" />
  <path
     inkscape:connector-curvature="0"
     id="path4658"
     d="m 431.14102,366.98455 c -1.89348,-3.43257 -1.83964,-3.50912 0.57474,-0.81712 2.53569,2.82726 3.34207,4.60449 2.0892,4.60449 -0.3161,0 -1.51487,-1.70431 -2.66394,-3.78737 z m 7.31465,-1.40191 c -0.94343,-3.49536 -0.11158,-35.20163 1.05828,-40.3382 1.85515,-8.14536 2.58659,-34.54842 0.95707,-34.54842 -0.93734,0 -1.31116,-0.90428 -0.83072,-2.0095 0.48045,-1.1052 -0.67789,-2.43342 -2.57409,-2.95157 -3.11353,-0.85082 -3.14392,-0.97067 -0.31353,-1.23685 6.11337,-0.57488 8.23947,4.10168 6.75337,14.85477 -0.74027,5.35643 -1.8362,22.39961 -2.43538,37.87374 -1.00935,26.06573 -0.90361,27.91635 1.43765,25.16453 3.47371,-4.08288 3.19966,-1.81223 -0.32929,2.72825 -2.45851,3.16321 -2.9772,3.22775 -3.72336,0.46325 z m -10.04479,-8.69776 c -0.0661,-2.28143 0.29369,-3.55968 0.79952,-2.84053 0.50583,0.71915 0.5599,2.58578 0.1201,4.14808 -0.48593,1.72646 -0.84664,1.21365 -0.91968,-1.30755 z m -1.11054,-29.39723 c 0,-10.1177 0.26222,-14.25676 0.58272,-9.19791 0.32048,5.05885 0.32048,13.33697 0,18.39582 -0.3205,5.05885 -0.58272,0.91979 -0.58272,-9.19791 z m 26.98877,-5.23019 c -0.0661,-2.28143 0.29369,-3.55968 0.79952,-2.84053 0.50583,0.71915 0.5599,2.58578 0.1201,4.14808 -0.48593,1.72646 -0.84664,1.21365 -0.91968,-1.30755 z m 1.52225,-8.65685 c -0.0661,-2.28143 0.29369,-3.55968 0.79952,-2.84053 0.50583,0.71914 0.5599,2.58578 0.1201,4.14808 -0.48593,1.72646 -0.84664,1.21365 -0.91968,-1.30755 z M 128.02711,304.4122 c 1.04654,-0.60038 2.75907,-0.60038 3.80562,0 1.04654,0.60037 0.19028,1.09161 -1.90281,1.09161 -2.0931,0 -2.94936,-0.49124 -1.90281,-1.09161 z m 300.50394,-9.38775 c 0,-2.9758 0.34552,-4.19317 0.76781,-2.70527 0.42228,1.4879 0.42228,3.92264 0,5.41053 -0.42229,1.4879 -0.76781,0.27053 -0.76781,-2.70526 z m 30.32481,-5.23019 c -0.0661,-2.28143 0.29369,-3.55968 0.79952,-2.84054 0.50582,0.71917 0.55989,2.58581 0.1201,4.14809 -0.48593,1.72646 -0.84664,1.21365 -0.91968,-1.30755 z m -38.1764,-7.63096 c -5.1071,-1.40933 -4.99668,-1.50962 2.66488,-2.42037 5.73609,-0.68183 7.99249,-0.18634 7.9918,1.75518 -10e-4,2.88182 -2.14032,3.01536 -10.65668,0.66519 z m 39.81882,-6.61678 c 0,-2.97579 0.34552,-4.19316 0.7678,-2.70526 0.42229,1.48789 0.42229,3.92263 0,5.41053 -0.42228,1.4879 -0.7678,0.27053 -0.7678,-2.70527 z m -29.0429,-5.23019 c -0.0661,-2.28143 0.29369,-3.55968 0.79952,-2.84053 0.50582,0.71917 0.55989,2.5858 0.1201,4.14808 -0.48593,1.72646 -0.84664,1.21365 -0.91968,-1.30755 z m 1.52225,-8.65685 c -0.0661,-2.28143 0.29369,-3.55968 0.79951,-2.84053 0.50583,0.71916 0.5599,2.5858 0.12011,4.14808 -0.48593,1.72646 -0.84664,1.21365 -0.91968,-1.30755 z m 29.09931,-2.34456 c -0.031,-3.57095 0.28475,-5.2938 0.70174,-3.82856 0.41698,1.46524 0.44235,4.38693 0.0565,6.49264 -0.38595,2.10572 -0.72712,0.90687 -0.75814,-2.66408 z m -24.53256,-21.46179 c -0.0661,-2.28143 0.29368,-3.55968 0.79951,-2.84053 0.50583,0.71916 0.5599,2.5858 0.12011,4.14808 -0.48594,1.72646 -0.84665,1.21365 -0.91968,-1.30755 z m 24.61968,-11.00142 c -0.0169,-4.76127 0.28102,-6.96389 0.66202,-4.89471 0.38101,2.06918 0.39483,5.96477 0.0308,8.65685 -0.36413,2.69209 -0.67588,0.99913 -0.69277,-3.76214 z m -1.78595,-12.80493 c -0.0661,-2.28143 0.29369,-3.55968 0.79952,-2.84053 0.50582,0.71916 0.55989,2.5858 0.1201,4.14808 -0.48593,1.72646 -0.84664,1.21365 -0.91968,-1.30755 z m 24.81693,-26.15091 c 0.003,-14.28381 0.24938,-19.84556 0.54748,-12.35942 0.2981,7.48613 0.29565,19.17288 -0.006,25.97057 -0.30049,6.79766 -0.54438,0.67266 -0.54139,-13.61115 z m -27.12262,16.866 c -0.82609,-3.08444 -0.65125,-3.33302 0.85215,-1.21153 1.04034,1.46807 1.50805,3.21438 1.03937,3.88072 -0.46869,0.66634 -1.31987,-0.5348 -1.89152,-2.66919 z m 14.60951,-67.01534 c -0.97255,-1.48017 -1.75777,-3.94969 -1.74495,-5.48781 0.0181,-2.18093 0.31142,-2.15015 1.33196,0.1398 2.32475,5.21617 3.29141,-0.24953 1.8057,-10.20978 -0.0641,-0.42945 -1.46371,1.51835 -3.11032,4.32843 -1.64662,2.81008 -3.01665,4.37881 -3.0445,3.48607 -0.0279,-0.89274 0.0651,-1.86664 0.20658,-2.16422 0.14142,-0.29758 -0.57308,-2.74675 -1.58789,-5.44263 -1.51288,-4.01898 -1.44358,-5.12068 0.38495,-6.11825 3.26169,-1.77946 8.48675,2.90078 10.13991,9.08266 3.23151,12.08391 3.2848,15.07704 0.26847,15.07704 -1.58491,0 -3.67736,-1.21105 -4.64991,-2.69122 z M 459.4968,124.05156 c 1.51539,-2.38063 2.99737,-4.32842 3.29333,-4.32842 0.29595,0 -0.3175,1.94779 -1.36322,4.32842 -1.04573,2.38064 -2.52773,4.32843 -3.29333,4.32843 -0.76561,0 -0.15222,-1.94779 1.36322,-4.32843 z m -302.2239,-19.64844 -5.27037,-6.66318 4.90127,4.59973 c 4.34543,4.07807 7.6307,8.72661 6.16736,8.72661 -0.29034,0 -2.89956,-2.99843 -5.79826,-6.66316 z m -9.83712,-8.486335 c -2.48189,-1.51627 -2.56881,-1.888103 -0.47041,-2.012091 1.41576,-0.08376 2.99746,0.821774 3.51491,2.012091 1.0818,2.488586 1.0289,2.488586 -3.0445,0 z"
     style="fill:#aa5130" />
  <path
     inkscape:connector-curvature="0"
     id="path4656"
     d="m 389.14761,493.05 c 0.0122,-5.95159 0.30707,-8.12946 0.65696,-4.83972 0.3499,3.28973 0.34054,8.15921 -0.0207,10.82106 -0.36132,2.66186 -0.64759,-0.0297 -0.63618,-5.98134 z m 1.47075,-67.09063 c -0.0169,-4.76127 0.28102,-6.96389 0.66203,-4.89471 0.381,2.06918 0.39482,5.96477 0.0307,8.65685 -0.3641,2.69209 -0.67584,0.99913 -0.69274,-3.76214 z m 24.09228,0.18028 c -0.0661,-2.28142 0.29369,-3.55967 0.79952,-2.84053 0.50583,0.71915 0.5599,2.58578 0.1201,4.14809 -0.48593,1.72645 -0.84664,1.21364 -0.91968,-1.30756 z M 434.731,415.07959 c -0.10412,-7.17417 0.50349,-14.47839 1.35018,-16.2316 1.1309,-2.34172 1.3925,-1.03391 0.98577,4.92813 -0.30452,4.46369 0.0776,8.1158 0.84931,8.1158 0.77163,0 0.69972,1.21737 -0.15982,2.70527 -0.85952,1.48789 -1.84929,5.14 -2.19947,8.1158 -0.35019,2.97579 -0.72186,-0.45925 -0.82597,-7.6334 z m -21.05786,-31.32238 c 0,-17.25961 0.2364,-24.32035 0.52536,-15.69055 0.28894,8.6298 0.28894,22.75129 0,31.3811 -0.28896,8.6298 -0.52536,1.56905 -0.52536,-15.69055 z m -21.61965,14.06739 c -0.031,-3.57096 0.28475,-5.2938 0.70174,-3.82856 0.41698,1.46523 0.44235,4.38692 0.0565,6.49264 -0.38595,2.10571 -0.72712,0.90687 -0.75814,-2.66408 z m 44.525,-10.70083 c -0.57309,-4.34325 -0.66144,-8.43788 -0.19631,-9.09915 0.46513,-0.6613 1.3146,2.35122 1.88772,6.69445 0.57309,4.34325 0.66144,8.43788 0.1963,9.09916 -0.46512,0.66129 -1.31459,-2.35123 -1.88771,-6.69446 z m -43.17933,-12.92518 c -0.0661,-2.28143 0.29367,-3.55968 0.79951,-2.84053 0.50583,0.71915 0.5599,2.58578 0.12011,4.14808 -0.48593,1.72646 -0.84665,1.21365 -0.91968,-1.30755 z m 76.11244,-17.31371 c -0.0661,-2.28143 0.29369,-3.55968 0.79952,-2.84053 0.50583,0.71915 0.5599,2.58578 0.1201,4.14808 -0.48593,1.72646 -0.84664,1.21365 -0.91968,-1.30755 z m -54.62438,-19.65827 c -0.031,-3.57095 0.28476,-5.29379 0.70174,-3.82856 0.41698,1.46524 0.44236,4.38693 0.0565,6.49264 -0.38595,2.10572 -0.72712,0.90688 -0.75814,-2.66408 z m 59.19113,-8.47651 c -0.0661,-2.28143 0.29369,-3.55968 0.79952,-2.84053 0.50582,0.71915 0.55989,2.58578 0.1201,4.14808 -0.48593,1.72646 -0.84664,1.21365 -0.91968,-1.30755 z m -76.11245,-8.65685 c -0.0661,-2.28143 0.29368,-3.55968 0.79952,-2.84053 0.50583,0.71914 0.5599,2.58578 0.12011,4.14808 -0.48594,1.72646 -0.84665,1.21365 -0.91969,-1.30755 z m 18.44357,-2.34456 c -0.031,-3.57095 0.28475,-5.2938 0.70174,-3.82856 0.41698,1.46524 0.44235,4.38693 0.0565,6.49264 -0.38595,2.10572 -0.72712,0.90687 -0.75814,-2.66408 z m 59.19113,0.18028 c -0.0661,-2.28143 0.29369,-3.55968 0.79951,-2.84053 0.50583,0.71914 0.5599,2.58578 0.12011,4.14808 -0.48593,1.72646 -0.84664,1.21365 -0.91968,-1.30755 z m -349.24696,-2.27524 c -0.47163,-1.74736 -0.28002,-3.68444 0.42578,-4.3046 1.63033,-1.43254 4.98793,4.14787 3.64471,6.05757 -1.62194,2.30595 -3.1529,1.64662 -4.07049,-1.75297 z m 6.62077,0.4718 c 0,-1.4879 1.54128,-2.83627 3.42506,-2.9964 1.88379,-0.16015 5.13759,-1.01227 7.23069,-1.89364 3.67397,-1.54705 3.70089,-1.48747 0.77791,1.72239 -1.66525,1.82867 -3.50169,2.9084 -4.081,2.39937 -0.57932,-0.50902 -1.48356,0.0643 -2.00944,1.27403 -1.35357,3.11374 -5.34322,2.73611 -5.34322,-0.50575 z m 15.22249,-6.55056 c 0,-0.41319 2.22629,-3.06835 4.94731,-5.90036 3.0614,-3.18626 4.12461,-3.70888 2.78913,-1.37094 -2.02718,3.54883 -7.73644,8.91483 -7.73644,7.2713 z m 328.92595,-4.63122 c -0.0661,-2.28143 0.29368,-3.55968 0.79951,-2.84053 0.50583,0.71915 0.5599,2.58578 0.12011,4.14808 -0.48593,1.72646 -0.84665,1.21365 -0.91968,-1.30755 z m -358.95865,-2.57 c 0.50582,-0.71915 1.81876,-0.79602 2.91764,-0.17076 1.21435,0.69086 0.85365,1.20369 -0.91969,1.30753 -1.6047,0.0939 -2.50378,-0.41754 -1.99795,-1.13669 z m 299.71111,-3.02088 c 0,-2.97579 0.34552,-4.19316 0.7678,-2.70526 0.42229,1.48789 0.42229,3.92263 0,5.41053 -0.42228,1.4879 -0.7678,0.27053 -0.7678,-2.70527 z m -275.35513,-1.30755 c 0.50583,-0.71915 1.81878,-0.79602 2.91765,-0.17076 1.21434,0.69086 0.85364,1.2037 -0.9197,1.30753 -1.60469,0.0939 -2.50378,-0.41754 -1.99795,-1.13668 z m 18.26699,0 c 0.50582,-0.71915 1.81878,-0.79602 2.91764,-0.17076 1.21435,0.69086 0.85365,1.2037 -0.91969,1.30753 -1.6047,0.0939 -2.50378,-0.41754 -1.99795,-1.13668 z m -6.089,-2.16421 c 0.50583,-0.71915 1.81878,-0.79602 2.91765,-0.17076 1.21434,0.69086 0.85365,1.20369 -0.9197,1.30753 -1.60469,0.0939 -2.50378,-0.41754 -1.99795,-1.13669 z m 19.78924,0 c 0.50584,-0.71915 1.81878,-0.79602 2.91764,-0.17076 1.21435,0.69086 0.85365,1.20369 -0.91969,1.30753 -1.6047,0.0939 -2.50378,-0.41754 -1.99795,-1.13669 z m 304.15769,-1.75843 c -0.0661,-2.28142 0.29368,-3.55967 0.79951,-2.84053 0.50583,0.71917 0.5599,2.58578 0.12011,4.14809 -0.48593,1.72645 -0.84665,1.21364 -0.91968,-1.30756 z m -291.25029,-0.53155 c 1.04655,-0.60037 2.75908,-0.60037 3.80562,0 1.04655,0.60037 0.19029,1.09161 -1.90281,1.09161 -2.09309,0 -2.94935,-0.49124 -1.90281,-1.09161 z m -11.38516,-2.03845 c 0.50585,-0.71915 1.81879,-0.79602 2.91765,-0.17076 1.21435,0.69086 0.85365,1.20369 -0.91969,1.30753 -1.6047,0.0939 -2.50378,-0.41752 -1.99796,-1.13668 z m 22.01194,-0.11211 c 1.0306,-0.59282 3.08564,-0.6289 4.56674,-0.0801 1.48111,0.54871 0.63787,1.03375 -1.87384,1.07786 -2.51171,0.0442 -3.72351,-0.40484 -2.6929,-0.99768 z m -8.3117,-2.05217 c 0.50585,-0.71915 1.81879,-0.79602 2.91765,-0.17076 1.21435,0.69086 0.85365,1.2037 -0.91969,1.30754 -1.6047,0.0939 -2.50378,-0.41753 -1.99796,-1.13669 z m 22.01194,-0.11211 c 1.0306,-0.59282 3.08564,-0.62889 4.56674,-0.0801 1.48111,0.54871 0.63787,1.03376 -1.87384,1.07786 -2.51171,0.0442 -3.72351,-0.40483 -2.6929,-0.99768 z m 14.52204,-2.05217 c 0.50583,-0.71915 1.81877,-0.79602 2.91765,-0.17075 1.21434,0.69086 0.85364,1.20369 -0.9197,1.30753 -1.60469,0.0939 -2.50378,-0.41752 -1.99795,-1.13669 z m 202.18178,-0.87627 c -2.85611,-0.95742 -6.28117,-1.20133 -7.61125,-0.54205 -1.76606,0.87541 -1.98306,0.52318 -0.80455,-1.30595 1.18244,-1.83519 3.79609,-1.91624 9.77852,-0.30323 8.30692,2.23975 12.03981,4.51533 6.74785,4.11353 -1.60471,-0.12185 -5.25447,-1.00489 -8.11057,-1.9623 z m -190.0355,-1.47212 c 1.46517,-0.54434 3.86271,-0.54434 5.32787,0 1.46517,0.54437 0.2664,0.98976 -2.66393,0.98976 -2.93033,0 -4.1291,-0.44539 -2.66394,-0.98976 z m 19.02811,-2.1997 c 1.88379,-0.51587 4.96634,-0.51587 6.85012,0 1.88379,0.51584 0.34251,0.9379 -3.42506,0.9379 -3.76756,0 -5.30884,-0.42206 -3.42506,-0.9379 z m 143.85252,-0.81022 c 1.46517,-1.21326 2.66394,-3.58701 2.66394,-5.27499 0,-2.25232 0.89059,-2.60065 3.34666,-1.30892 4.88163,2.56739 5.53549,7.29323 0.77402,5.59419 -2.11487,-0.75464 -4.23783,-0.31831 -4.80557,0.98771 -0.55937,1.28677 -1.83288,2.30997 -2.83001,2.27376 -0.99714,-0.0361 -0.6142,-1.05847 0.85096,-2.27175 z m 78.89657,-0.72841 c -0.0661,-2.28143 0.29368,-3.55968 0.79951,-2.84053 0.50583,0.71917 0.5599,2.5858 0.12011,4.14808 -0.48594,1.72646 -0.84665,1.21365 -0.91969,-1.30755 z m -202.19873,-0.59009 c 1.46517,-0.54435 3.86271,-0.54435 5.32787,0 1.46517,0.54436 0.2664,0.98976 -2.66393,0.98976 -2.93033,0 -4.1291,-0.4454 -2.66394,-0.98976 z m 135.09959,-0.67236 c 0,-1.19032 0.68501,-2.16421 1.52225,-2.16421 0.83724,0 1.52225,0.97389 1.52225,2.16421 0,1.19032 -0.68501,2.16421 -1.52225,2.16421 -0.83724,0 -1.52225,-0.97389 -1.52225,-2.16421 z m -151.11217,-1.41959 c 1.03061,-0.59283 3.08564,-0.6289 4.56675,-0.0801 1.4811,0.54871 0.63787,1.03376 -1.87385,1.07786 -2.51171,0.0442 -3.72351,-0.40483 -2.6929,-0.99768 z m 44.14024,-0.14241 c 2.70234,-0.4781 7.49743,-0.48595 10.65574,-0.0173 3.1583,0.46851 0.9473,0.85967 -4.91336,0.86927 -5.86066,0.009 -8.44474,-0.37371 -5.74238,-0.85181 z m 56.73772,0.34173 c 5.22363,-1.64294 24.06123,-2.01677 23.38626,-0.46409 -0.40271,0.92639 -6.34313,1.57139 -13.20092,1.43331 -6.8578,-0.13808 -11.4412,-0.57423 -10.18534,-0.96922 z m 32.72835,-5.27237 c -2.00745,-1.22642 -2.26672,-1.90051 -0.76112,-1.97896 1.25585,-0.0654 3.31089,0.82509 4.56674,1.97896 2.78263,2.55663 0.37918,2.55663 -3.80562,0 z m 25.23729,-3.06598 c -0.0661,-2.28143 0.29369,-3.55968 0.79951,-2.84053 0.50583,0.71917 0.5599,2.5858 0.12011,4.14808 -0.48593,1.72646 -0.84665,1.21365 -0.91968,-1.30755 z m -42.92342,-0.7214 c -0.0991,-0.89273 -0.13685,-2.19263 -0.0839,-2.88866 0.053,-0.69603 -3.6936,-2.96404 -8.32585,-5.04002 -4.63225,-2.07598 -8.14149,-4.17371 -7.79832,-4.66161 0.34318,-0.4879 7.42474,2.52449 15.73682,6.6942 13.88916,6.96745 14.44866,7.58524 3.69597,4.08097 -2.97554,-0.96972 -3.30757,-0.73722 -1.52225,1.06587 1.54927,1.56471 1.67161,2.31679 0.38056,2.33928 -1.04654,0.0173 -1.98393,-0.69729 -2.08307,-1.59003 z m 103.81337,-1.44281 c -0.0661,-2.28143 0.29369,-3.55968 0.79952,-2.84053 0.50583,0.71917 0.5599,2.5858 0.12011,4.14808 -0.48594,1.72646 -0.84665,1.21365 -0.91969,-1.30755 z m -111.62491,-0.53155 c 1.04655,-0.60038 2.75908,-0.60038 3.80562,0 1.04655,0.60037 0.19028,1.0916 -1.90281,1.0916 -2.09309,0 -2.94936,-0.49123 -1.90281,-1.0916 z m -9.13349,-2.16422 c 1.04654,-0.60037 2.75907,-0.60037 3.80562,0 1.04655,0.60038 0.19028,1.09161 -1.90281,1.09161 -2.09309,0 -2.94936,-0.49123 -1.90281,-1.09161 z m -9.1335,-2.16421 c 1.04655,-0.60038 2.75908,-0.60038 3.80563,0 1.04654,0.60037 0.19028,1.09161 -1.90281,1.09161 -2.0931,0 -2.94936,-0.49124 -1.90282,-1.09161 z m -9.16246,-2.15049 c 1.03061,-0.59283 3.08565,-0.6289 4.56675,-0.0801 1.4811,0.54871 0.63787,1.03376 -1.87384,1.07786 -2.51171,0.0442 -3.72352,-0.40483 -2.69291,-0.99768 z m -7.58227,-2.17794 c 1.04654,-0.60037 2.75907,-0.60037 3.80562,0 1.04654,0.60038 0.19028,1.09161 -1.90281,1.09161 -2.0931,0 -2.94936,-0.49123 -1.90281,-1.09161 z m -9.16247,-2.15049 c 1.03061,-0.59282 3.08565,-0.6289 4.56675,-0.0801 1.4811,0.54872 0.63787,1.03376 -1.87384,1.07787 -2.51171,0.0442 -3.72351,-0.40484 -2.69291,-0.99768 z M 316.757,254.649 c 1.03061,-0.59282 3.08564,-0.62889 4.56675,-0.0801 1.4811,0.54871 0.63787,1.03376 -1.87385,1.07786 -2.51171,0.0442 -3.72351,-0.40483 -2.6929,-0.99768 z m 166.57501,-2.90883 c 0,-2.97579 0.34552,-4.19316 0.76781,-2.70527 0.42228,1.4879 0.42228,3.92264 0,5.41054 -0.42229,1.4879 -0.76781,0.27053 -0.76781,-2.70527 z m -175.7085,0.74462 c 1.03061,-0.59282 3.08564,-0.6289 4.56674,-0.0801 1.48111,0.54872 0.63787,1.03376 -1.87384,1.07787 -2.51171,0.0441 -3.72351,-0.40484 -2.6929,-0.99768 z m 43.0325,-0.74462 c -1.25586,-1.15387 -1.59836,-2.09792 -0.76113,-2.09792 0.83724,0 2.54977,0.94405 3.80563,2.09792 1.25585,1.15387 1.59836,2.09793 0.76112,2.09793 -0.83724,0 -2.54977,-0.94406 -3.80562,-2.09793 z m -52.166,-1.41959 c 1.03061,-0.59282 3.08565,-0.6289 4.56675,-0.0801 1.4811,0.54872 0.63787,1.03376 -1.87384,1.07787 -2.51171,0.0442 -3.72351,-0.40484 -2.69291,-0.99768 z m -7.58227,-2.17794 c 1.04654,-0.60037 2.75907,-0.60037 3.80562,0 1.04655,0.60038 0.19028,1.09161 -1.90281,1.09161 -2.09309,0 -2.94936,-0.49123 -1.90281,-1.09161 z m -20.1698,-3.93562 c -5.02342,-1.50311 -7.76347,-2.81235 -6.089,-2.90942 1.67448,-0.0969 7.49708,1.12284 12.93912,2.71087 5.44204,1.58804 8.18209,2.89726 6.089,2.9094 -2.0931,0.013 -7.9157,-1.20774 -12.93912,-2.71085 z m 67.74008,1.04051 c -1.25586,-1.15387 -1.59837,-2.09792 -0.76113,-2.09792 0.83724,0 2.54977,0.94405 3.80562,2.09792 1.25586,1.15387 1.59837,2.09792 0.76113,2.09792 -0.83724,0 -2.54977,-0.94405 -3.80562,-2.09792 z m -7.61125,-4.32843 c -1.25585,-1.15387 -1.59836,-2.09792 -0.76112,-2.09792 0.83723,0 2.54976,0.94405 3.80562,2.09792 1.25585,1.15388 1.59836,2.09793 0.76112,2.09793 -0.83723,0 -2.54976,-0.94405 -3.80562,-2.09793 z m -76.52197,-1.41959 c 1.0306,-0.59282 3.08564,-0.6289 4.56674,-0.0801 1.48111,0.54872 0.63787,1.03376 -1.87384,1.07787 -2.51171,0.0442 -3.72351,-0.40484 -2.6929,-0.99768 z m -9.1335,-2.16422 c 1.03061,-0.59282 3.08565,-0.62889 4.56675,-0.0801 1.4811,0.54871 0.63787,1.03376 -1.87384,1.07786 -2.51171,0.0442 -3.72352,-0.40483 -2.69291,-0.99768 z m 78.04423,-0.74461 c -1.25586,-1.15388 -1.59836,-2.09793 -0.76113,-2.09793 0.83724,0 2.54977,0.94405 3.80562,2.09793 1.25586,1.15387 1.59837,2.09792 0.76113,2.09792 -0.83724,0 -2.54977,-0.94405 -3.80562,-2.09792 z M 179.89285,222.82184 c -30.70836,-7.3061 -56.39631,-14.12803 -57.08433,-15.15982 -0.70031,-1.05018 0.75926,-1.30692 3.31577,-0.58323 2.51172,0.71098 29.22718,7.19384 59.36771,14.40634 30.14053,7.21251 55.48597,13.48492 56.32321,13.93873 5.02027,2.72111 -12.52888,-0.85038 -61.92236,-12.60202 z m 135.75143,9.44041 c -1.25585,-1.15387 -1.59836,-2.09793 -0.76112,-2.09793 0.83723,0 2.54976,0.94406 3.80562,2.09793 1.25586,1.15387 1.59836,2.09792 0.76112,2.09792 -0.83723,0 -2.54976,-0.94405 -3.80562,-2.09792 z m 169.42579,-8.65686 c 0,-6.54674 0.28537,-9.22496 0.63415,-5.95158 0.34879,3.27337 0.34879,8.6298 0,11.90317 -0.34878,3.27337 -0.63415,0.59516 -0.63415,-5.95159 z m -293.83793,5.18509 c 0.50585,-0.71915 1.81879,-0.79602 2.91765,-0.17097 1.21435,0.69088 0.85365,1.20371 -0.91969,1.30755 -1.6047,0.0939 -2.50378,-0.41754 -1.99796,-1.13669 z m 116.8009,-0.85666 c -1.25586,-1.15387 -1.59836,-2.09792 -0.76113,-2.09792 0.83724,0 2.54977,0.94405 3.80563,2.09792 1.25585,1.15387 1.59836,2.09792 0.76112,2.09792 -0.83724,0 -2.54977,-0.94405 -3.80562,-2.09792 z m -135.86072,-3.59753 c 1.04655,-0.60037 2.75908,-0.60037 3.80563,0 1.04654,0.60038 0.19028,1.09161 -1.90282,1.09161 -2.09309,0 -2.94935,-0.49123 -1.90281,-1.09161 z m -44.87463,-10.6953 c 0.50583,-0.71915 1.81878,-0.79602 2.91765,-0.17098 1.21434,0.69088 0.85365,1.20372 -0.9197,1.30756 -1.60469,0.0939 -2.50378,-0.41755 -1.99795,-1.13669 z m -13.35139,-7.34931 c -0.51744,-1.19031 0.42923,-2.16421 2.10371,-2.16421 1.67447,0 3.46785,0.9739 3.98529,2.16421 0.51744,1.19032 -0.42923,2.16422 -2.1037,2.16422 -1.67448,0 -3.46785,-0.9739 -3.9853,-2.16422 z m -9.13349,-2.16421 c -0.51744,-1.19032 0.46964,-2.16421 2.19353,-2.16421 1.72389,0 3.13434,0.97389 3.13434,2.16421 0,1.19032 -0.98709,2.16421 -2.19353,2.16421 -1.20644,0 -2.6169,-0.97389 -3.13434,-2.16421 z m -8.372369,-2.16421 c 2.951275,-2.71159 4.566749,-2.71159 4.566749,0 0,1.19031 -1.541279,2.1493 -3.425062,2.13108 -2.769641,-0.0268 -2.988114,-0.43462 -1.141687,-2.13108 z m -10.655742,-0.82981 c 0,-0.45639 1.691797,-1.28961 3.759559,-1.85159 2.067746,-0.56196 3.397355,-0.1885 2.954654,0.82982 -0.779513,1.79319 -6.714213,2.69633 -6.714213,1.02177 z m -8.372369,-3.49862 c -0.542941,-1.24897 0.867529,-2.15019 3.335217,-2.13108 3.320192,0.0258 3.765617,0.5021 1.992654,2.13108 -2.924682,2.68715 -4.159743,2.68715 -5.327871,0 z m -9.894618,-2.16421 c -1.856352,-1.7056 -1.659632,-2.10414 1.051843,-2.13108 1.834371,-0.0173 3.758585,0.94076 4.276028,2.13108 1.197812,2.75545 -2.328858,2.75545 -5.327871,0 z m -13.70024,-1.93801 c -3.290463,-0.84502 -4.454694,-1.85266 -3.044498,-2.635 3.156124,-1.75094 13.70024,0.28518 13.70024,2.64558 0,2.0979 -2.454733,2.09545 -10.655742,-0.0108 z m -21.184636,-1.00199 c 0.348854,-0.42668 3.374324,-1.37298 6.723271,-2.10288 4.14656,-0.90373 5.360584,-0.66684 3.805622,0.74265 -2.079833,1.88522 -12.006646,3.16769 -10.528893,1.36023 z m -7.325823,-2.69599 c 0.505844,-0.71914 1.818783,-0.79601 2.917649,-0.17075 1.214344,0.69086 0.853647,1.20369 -0.919697,1.30753 -1.604694,0.0939 -2.50378,-0.41752 -1.997952,-1.13669 z m -4.979017,-4.10298 c 0,-3.85613 8.378732,-4.56924 9.995223,-0.85068 0.727818,1.67428 -0.448439,1.93043 -3.906227,0.85068 -3.457789,-1.07972 -4.634046,-0.82357 -3.906228,0.85069 0.572776,1.3176 0.315973,2.39563 -0.570676,2.39563 -0.886649,0 -1.612092,-1.46084 -1.612092,-3.24632 z M 484.73409,159.94143 c -0.0661,-2.28142 0.29369,-3.55967 0.79952,-2.84053 0.50583,0.71917 0.5599,2.58581 0.1201,4.14809 -0.48593,1.72645 -0.84664,1.21364 -0.91968,-1.30756 z m -30.56516,-31.83374 c 0,-0.59516 2.05504,-3.88126 4.56675,-7.30245 2.51171,-3.42119 4.56675,-5.73339 4.56675,-5.13823 0,0.59516 -2.05504,3.88126 -4.56675,7.30245 -2.51171,3.42119 -4.56675,5.73339 -4.56675,5.13823 z M 167.22501,115.39471 c -2.40637,-3.57095 -4.03271,-6.49264 -3.61409,-6.49264 0.41862,0 2.72997,2.92169 5.13634,6.49264 2.40637,3.57095 4.03271,6.49264 3.6141,6.49264 -0.41862,0 -2.72997,-2.92169 -5.13635,-6.49264 z m 298.71238,-1.4196 c 1.03061,-0.59282 3.08565,-0.62889 4.56675,-0.0801 1.4811,0.54873 0.63787,1.03378 -1.87384,1.07788 -2.51171,0.0442 -3.72352,-0.40485 -2.69291,-0.99768 z M 152.79645,98.191677 c -4.63695,-5.065494 -12.37755,-5.410946 -11.0502,-0.493181 0.48962,1.814 -0.73594,0.986232 -2.72345,-1.839452 -1.98753,-2.825706 -3.73059,-6.646885 -3.87349,-8.491531 -0.14294,-1.844646 -0.764,-5.058222 -1.38022,-7.141277 -0.76571,-2.588378 -0.42829,-3.787374 1.06585,-3.787374 3.05055,0 17.91335,15.204921 20.62627,21.101083 2.71571,5.902205 2.24655,6.016945 -2.66476,0.651732 z M 455.78792,38.024069 c 4.50427,-12.200755 8.64529,-22.183191 9.20225,-22.183191 1.05139,0 -14.1909,40.263227 -16.23352,42.881579 -0.63706,0.816644 2.52701,-8.497634 7.03127,-20.698388 z m 14.36463,-2.705268 c 1.51538,-2.380635 3.09774,-4.328427 3.51636,-4.328427 0.41862,0 -0.47873,1.947792 -1.99412,4.328427 -1.51538,2.380636 -3.09774,4.328428 -3.51636,4.328428 -0.41862,0 0.47873,-1.947792 1.99412,-4.328428 z m 9.31884,-10.394718 c -1.17926,-2.712712 0.40642,-9.083205 2.26089,-9.083205 1.71635,0 1.71857,4.499985 0.005,8.346853 -0.82093,1.842006 -1.66508,2.116428 -2.265,0.736352 z m 7.72094,-1.686442 c 0.99952,-0.651082 1.43998,-2.58169 0.97882,-4.290272 -0.52352,-1.939633 0.12239,-3.106491 1.71939,-3.106491 3.6499,0 2.28297,7.395248 -1.48848,8.05278 -1.66487,0.290264 -2.20924,-0.0043 -1.20973,-0.656017 z"
     style="fill:#5c585e" />
  <path
     inkscape:connector-curvature="0"
     id="path4654"
     d="m 423.33566,453.59777 c -1.41682,-2.22581 -3.74294,-8.38111 -5.16913,-13.67846 -3.92731,-14.58717 -4.43614,-82.25986 -0.9186,-122.17062 l 2.6704,-30.29899 5.00153,-0.68394 c 4.80927,-0.65762 4.95707,-0.44963 3.84482,5.41054 -0.63617,3.35195 -1.14167,19.24206 -1.12331,35.31135 0.0347,30.41491 2.41586,45.44849 7.19832,45.44849 2.23446,0 2.14902,10.86931 -0.25521,32.4632 -0.59637,5.35643 -0.62495,12.66065 -0.0635,16.23161 0.95276,6.05993 1.0328,6.12483 1.2009,0.97389 0.0991,-3.03531 1.00211,-6.68742 2.0068,-8.1158 1.1118,-1.58068 1.20624,-2.59705 0.24133,-2.59705 -1.04353,0 -1.1786,-3.51348 -0.3952,-10.28002 0.65459,-5.65401 1.23101,-14.77468 1.28092,-20.26816 0.0572,-6.29722 1.13983,-11.89543 2.92971,-15.1495 4.76774,-8.66798 10.51498,-26.4283 12.92563,-39.94329 4.30196,-24.11863 8.59133,-66.37869 8.59133,-84.6448 0,-60.30569 -16.75821,-53.11214 -28.65001,12.29817 -4.48048,24.64472 -4.57105,24.8951 -9.24888,25.56663 -2.59825,0.373 -4.72408,0.0734 -4.72408,-0.66593 0,-3.45257 6.61729,-47.21249 9.32899,-61.69234 8.52741,-45.53427 18.79993,-79.35948 28.42646,-93.60224 5.85905,-8.66865 7.308,-9.70438 7.5691,-5.41053 0.374,6.15037 1.25523,9.1979 2.65969,9.1979 0.81887,0 1.30062,-0.80281 1.07056,-1.78402 -0.23004,-0.98121 0.28372,-1.16721 1.14169,-0.41332 0.85798,0.75388 1.55997,0.17703 1.55997,-1.28195 0,-3.68276 2.03467,-0.44683 2.48953,3.95934 0.53513,5.18359 -1.12142,8.06485 -2.65651,4.62049 -1.05831,-2.3746 -1.3131,-2.38923 -1.33196,-0.0764 -0.0311,3.812 3.15075,7.88996 6.44625,8.2618 3.08091,0.34764 3.25155,-1.06778 1.09909,-9.11671 -0.86066,-3.21836 -1.24488,-6.30643 -0.85384,-6.8624 0.39105,-0.55596 2.20076,5.96224 4.02155,14.48487 3.11589,14.58459 3.26385,18.51115 2.5164,66.77846 -0.68428,44.18723 -1.42863,56.37324 -5.37976,88.07436 -5.44092,43.65395 -12.60987,85.0921 -18.34645,106.04647 -4.94617,18.06723 -15.23677,43.59967 -20.20952,50.14272 -5.21382,6.86025 -13.63486,8.58792 -16.89504,3.46624 z m 38.09125,-329.54621 c 1.04572,-2.38063 1.65917,-4.32842 1.36322,-4.32842 -0.29596,0 -1.77794,1.94779 -3.29333,4.32842 -1.51538,2.38064 -2.12883,4.32843 -1.36322,4.32843 0.7656,0 2.2476,-1.94779 3.29333,-4.32843 z m 11.85975,-5.47935 c -1.62518,-1.74763 -2.22282,-3.1775 -1.32807,-3.1775 0.89473,0 2.47956,1.46084 3.52183,3.24632 2.37044,4.06076 1.62475,4.03736 -2.19376,-0.0688 z"
     style="fill:#a63a2b" />
  <path
     inkscape:connector-curvature="0"
     id="path4648"
     d="m 417.63496,498.46053 c -0.89615,-2.38063 -1.41499,-4.32842 -1.15298,-4.32842 0.26199,0 1.64941,1.94779 3.08314,4.32842 1.43373,2.38064 1.95258,4.32843 1.153,4.32843 -0.79959,0 -2.18701,-1.94779 -3.08316,-4.32843 z m 15.34934,3.78738 c 0.34885,-0.29758 2.68931,-2.9758 5.20102,-5.95159 l 4.56675,-5.41053 -3.69041,5.95158 c -2.02973,3.27338 -4.37019,5.95159 -5.20102,5.95159 -0.83083,0 -1.22518,-0.24347 -0.87634,-0.54105 z m 44.01837,-1.49543 c 0,-1.26057 0.68501,-2.29195 1.52224,-2.29195 0.83724,0 1.52225,0.42947 1.52225,0.95438 0,0.52491 -0.68501,1.55628 -1.52225,2.29194 -0.83723,0.73566 -1.52224,0.3062 -1.52224,-0.95437 z m -74.34985,-6.62037 c 0,-2.9758 0.34552,-4.19317 0.7678,-2.70527 0.42229,1.4879 0.42229,3.92264 0,5.41053 -0.42228,1.4879 -0.7678,0.27053 -0.7678,-2.70526 z m 83.11724,-24.92737 c 2.96204,-12.51974 5.68796,-22.3332 6.05759,-21.80766 0.94417,1.34233 -9.15547,44.57081 -10.41326,44.57081 -0.56643,0 1.39363,-10.24342 4.35567,-22.76315 z m -84.46524,3.28523 c 0,-5.35643 0.29687,-7.5477 0.6597,-4.86948 0.36284,2.67821 0.36284,7.06075 0,9.73896 -0.36283,2.67821 -0.6597,0.48695 -0.6597,-4.86948 z m 26.60532,-12.25439 c 1.04655,-0.60037 2.75908,-0.60037 3.80562,0 1.04655,0.60038 0.19028,1.09161 -1.90281,1.09161 -2.09309,0 -2.94936,-0.49123 -1.90281,-1.09161 z m -8.82271,-11.73733 c -0.93453,-2.48257 -1.41241,-4.92142 -1.06195,-5.41966 0.35045,-0.49825 1.41878,1.53295 2.37407,4.51377 2.09776,6.54575 1.07636,7.25093 -1.31212,0.90589 z m 23.66464,-1.97885 c 1.51538,-2.38063 3.09774,-4.32842 3.51636,-4.32842 0.41862,0 -0.47873,1.94779 -1.99412,4.32842 -1.51538,2.38064 -3.09774,4.32843 -3.51636,4.32843 -0.41862,0 0.47873,-1.94779 1.99412,-4.32843 z m -41.28072,-22.72424 c 0.003,-14.28381 0.24938,-19.84556 0.54748,-12.35941 0.2981,7.48612 0.29565,19.17287 -0.006,25.97056 -0.30111,6.79767 -0.54501,0.67266 -0.54201,-13.61115 z m -11.11669,13.16563 c -0.0661,-2.28143 0.29367,-3.55968 0.79952,-2.84053 0.50582,0.71914 0.55989,2.58578 0.1201,4.14808 -0.48593,1.72646 -0.84664,1.21365 -0.91968,-1.30755 z m 45.78763,-44.54673 c 0,-2.97579 0.34552,-4.19316 0.76781,-2.70527 0.42229,1.4879 0.42229,3.92264 0,5.41054 -0.42229,1.4879 -0.76781,0.27053 -0.76781,-2.70527 z m -33.31522,-19.47792 c 0,-5.35643 0.29687,-7.5477 0.6597,-4.86948 0.36284,2.67821 0.36284,7.06075 0,9.73896 -0.36283,2.67821 -0.6597,0.48695 -0.6597,-4.86948 z m 1.46081,-28.13478 c 0,-4.16611 0.31328,-5.87043 0.69617,-3.78737 0.38288,2.08305 0.38288,5.49169 0,7.57474 -0.38289,2.08306 -0.69617,0.37874 -0.69617,-3.78737 z m 1.40944,-17.31371 c 0,-2.97579 0.34552,-4.19316 0.7678,-2.70527 0.42229,1.4879 0.42229,3.92264 0,5.41054 -0.42228,1.4879 -0.7678,0.27052 -0.7678,-2.70527 z m 1.40208,-13.88704 c -0.0661,-2.28143 0.29369,-3.55968 0.79951,-2.84053 0.50583,0.71914 0.5599,2.58578 0.12011,4.14808 -0.48593,1.72646 -0.84665,1.21365 -0.91968,-1.30755 z m 1.64241,-14.24774 c 0,-2.97579 0.34552,-4.19316 0.76781,-2.70526 0.42229,1.48789 0.42229,3.92263 0,5.41053 -0.42229,1.4879 -0.76781,0.27053 -0.76781,-2.70527 z m 4.3264,-13.81508 c 0,-0.45641 1.6918,-1.28961 3.75956,-1.8516 2.06775,-0.56195 3.39736,-0.1885 2.95466,0.82983 -0.77952,1.79318 -6.71422,2.69633 -6.71422,1.02177 z m -27.40048,-5.53511 c 0,-1.12007 0.79086,-2.73139 1.75745,-3.58071 1.04746,-0.92038 1.34582,-0.59732 0.73855,0.79965 -0.58778,1.35212 0.43987,2.7425 2.42874,3.28597 2.9837,0.81535 2.88431,0.98178 -0.73855,1.23685 -2.30241,0.1621 -4.18619,-0.62169 -4.18619,-1.74176 z m -62.79277,-1.56105 c 1.04655,-0.60037 2.75908,-0.60037 3.80563,0 1.04654,0.60038 0.19028,1.09161 -1.90281,1.09161 -2.0931,0 -2.94936,-0.49123 -1.90282,-1.09161 z m 31.20611,-0.0587 c 1.46516,-0.54434 3.8627,-0.54434 5.32787,0 1.46516,0.54437 0.26639,0.98976 -2.66394,0.98976 -2.93033,0 -4.1291,-0.44539 -2.66393,-0.98976 z m 57.05573,-5.17426 c 0.53828,-2.92645 1.2283,-3.90749 1.60833,-2.2866 0.36607,1.56135 -0.0582,3.86779 -0.94274,5.12542 -1.12962,1.606 -1.32772,0.76102 -0.66559,-2.83882 z m -33.05856,-5.05156 c 0.98582,-1.40157 2.01517,-1.40157 3.00099,0 0.98584,1.40159 0.47118,2.13331 -1.50049,2.13331 -1.97168,0 -2.48634,-0.73172 -1.5005,-2.13331 z m 35.11015,-6.49779 c -0.0661,-2.28143 0.29369,-3.55968 0.79952,-2.84053 0.50583,0.71917 0.5599,2.5858 0.1201,4.14808 -0.48593,1.72646 -0.84664,1.21365 -0.91968,-1.30755 z M 227.76612,237.44723 c 0.50583,-0.71915 1.81876,-0.79602 2.91765,-0.17076 1.21434,0.69086 0.85364,1.20369 -0.9197,1.30753 -1.6047,0.0939 -2.50378,-0.41752 -1.99795,-1.13669 z m -9.1335,-2.16422 c 0.50583,-0.71914 1.81877,-0.79602 2.91765,-0.17075 1.21435,0.69086 0.85365,1.20369 -0.91969,1.30753 -1.6047,0.0939 -2.50378,-0.41752 -1.99796,-1.13669 z m -9.13349,-2.16421 c 0.50584,-0.71915 1.81878,-0.79602 2.91765,-0.17076 1.21434,0.69086 0.85365,1.2037 -0.9197,1.30754 -1.60469,0.0939 -2.50378,-0.41752 -1.99795,-1.13669 z m 208.25601,-1.75842 c -0.0661,-2.28143 0.29369,-3.55968 0.79952,-2.84053 0.50582,0.71916 0.55989,2.5858 0.1201,4.14808 -0.48593,1.72646 -0.84664,1.21365 -0.91968,-1.30755 z m -217.80177,0.0721 c 0,-0.45639 1.69179,-1.28962 3.75956,-1.8516 2.06774,-0.56196 3.39735,-0.1885 2.95465,0.82983 -0.77951,1.79318 -6.71421,2.69633 -6.71421,1.02177 z M 185.492,227.93382 c -2.51171,-0.90864 -3.7665,-1.76732 -2.78844,-1.90814 0.97808,-0.14089 2.77346,-0.79899 3.98975,-1.46256 1.2163,-0.66357 2.62085,0.31033 3.12122,2.16422 0.50038,1.85388 0.76003,3.25547 0.57701,3.11465 -0.18303,-0.14089 -2.38783,-0.99952 -4.89954,-1.90817 z m -8.37237,-3.11859 c 0,-0.52491 0.68501,-1.55628 1.52225,-2.29194 0.83724,-0.73566 1.52225,-0.3062 1.52225,0.95437 0,1.26057 -0.68501,2.29195 -1.52225,2.29195 -0.83724,0 -1.52225,-0.42947 -1.52225,-0.95438 z m 242.15776,-4.27581 c -0.0661,-2.28143 0.29369,-3.55968 0.79951,-2.84053 0.50583,0.71916 0.5599,2.5858 0.12011,4.14808 -0.48593,1.72646 -0.84664,1.21365 -0.91968,-1.30755 z m -264.99149,0.0721 c 0,-0.45633 1.37002,-1.33905 3.0445,-1.9616 1.67447,-0.62254 3.04449,-0.24919 3.04449,0.82969 0,1.07888 -1.37002,1.9616 -3.04449,1.9616 -1.67448,0 -3.0445,-0.37337 -3.0445,-0.82969 z m -7.61125,-2.18508 c 0,-0.46782 1.0631,-1.43055 2.36244,-2.13944 1.35468,-0.73905 1.96571,-0.37624 1.43241,0.85056 -0.89396,2.05646 -3.79485,3.0417 -3.79485,1.28888 z m -9.13349,-2.16422 c 0,-0.46781 1.02752,-1.41113 2.28337,-2.0963 1.25586,-0.68514 2.28338,-0.30238 2.28338,0.85058 0,1.15294 -1.02752,2.09628 -2.28338,2.09628 -1.25585,0 -2.28337,-0.38274 -2.28337,-0.85056 z m -16.74474,-4.43224 c 0,-0.52491 0.68502,-1.55629 1.52225,-2.29195 0.83724,-0.73566 1.52225,-0.30619 1.52225,0.95438 0,1.26057 -0.68501,2.29194 -1.52225,2.29194 -0.83723,0 -1.52225,-0.42946 -1.52225,-0.95437 z m 300.00322,-2.1116 c -0.0661,-2.28143 0.29369,-3.55968 0.79951,-2.84053 0.50583,0.71917 0.5599,2.5858 0.12011,4.14808 -0.48593,1.72646 -0.84665,1.21365 -0.91968,-1.30755 z M 84.67472,202.81992 c 0.505828,-0.71915 1.818768,-0.79602 2.917649,-0.17098 1.214344,0.69089 0.853647,1.20372 -0.919697,1.30756 -1.604694,0.0939 -2.50378,-0.41754 -1.997952,-1.13669 z m -16.04429,-2.27626 c 1.030608,-0.59282 3.085644,-0.6289 4.566747,-0.0801 1.481102,0.54873 0.637868,1.03378 -1.873843,1.07788 -2.511711,0.0442 -3.723512,-0.40486 -2.692904,-0.99768 z m 353.69146,-1.64638 c -0.0661,-2.28143 0.29368,-3.55968 0.79951,-2.84053 0.50583,0.71917 0.5599,2.5858 0.12011,4.14808 -0.48593,1.72646 -0.84665,1.21365 -0.91968,-1.30755 z M 56.100845,198.7354 c -0.837237,-0.39707 -3.434041,-1.32262 -5.770693,-2.05681 -2.499594,-0.78537 -3.831166,-2.29473 -3.234779,-3.66667 0.631687,-1.45314 1.372185,-1.54413 1.965071,-0.24146 0.523273,1.14969 4.376465,3.08634 8.56265,4.30364 4.186184,1.21731 5.898714,2.25152 3.805622,2.29827 -2.093092,0.0467 -4.490634,-0.23991 -5.327871,-0.63697 z m 205.413985,-2.30206 c -2.8375,-3.23201 -2.81884,-3.27196 0.47018,-1.00594 1.88378,1.29785 3.42506,2.81243 3.42506,3.36569 0,1.6561 -0.78945,1.17786 -3.89524,-2.35975 z M 59.906467,191.03173 c -10.601641,-3.2099 -11.426624,-3.71587 -4.566746,-2.80082 9.446102,1.26003 27.175887,6.91306 21.311484,6.79502 -2.093092,-0.0422 -9.628224,-1.83951 -16.744738,-3.9942 z m 363.937673,-2.9555 c -0.0661,-2.28142 0.29368,-3.55967 0.79951,-2.84053 0.50583,0.71917 0.5599,2.5858 0.12011,4.14809 -0.48594,1.72645 -0.84665,1.21364 -0.91968,-1.30756 z m -176.70106,-1.26245 c -1.37199,-1.26057 -1.55974,-2.11117 -0.4704,-2.13108 0.99713,-0.0173 2.23633,0.94076 2.75378,2.13108 1.16802,2.68692 0.64104,2.68692 -2.28338,0 z m 187.33964,-78.61584 c -0.18596,-3.22409 12.25178,-46.808458 13.72795,-48.105536 0.79265,-0.696465 0.98165,-2.323391 0.42002,-3.615384 -0.58179,-1.338328 -0.31838,-1.731544 0.6122,-0.913861 1.06305,0.934053 -0.63288,8.796447 -4.85704,22.517583 -3.56972,11.595316 -7.23508,23.517128 -8.14525,26.492918 -0.91017,2.9758 -1.70122,4.60673 -1.75788,3.62428 z m 22.06745,-47.542948 c 0.57165,-2.134391 1.42283,-3.33553 1.89152,-2.66919 0.46868,0.66634 9.7e-4,2.412644 -1.03936,3.880716 -1.50341,2.121492 -1.67825,1.872911 -0.85216,-1.211526 z m 6.06995,-17.027861 c -0.37986,-1.59377 -0.89551,-5.332514 -1.14585,-8.308308 -0.25037,-2.975794 -1.39921,-5.410534 -2.55298,-5.410534 -1.27204,0 -2.25095,-2.768614 -2.48695,-7.033695 -0.30335,-5.482559 0.20208,-7.033694 2.29193,-7.033694 1.47462,0 3.47405,1.358325 4.44317,3.018515 1.39962,2.397624 1.20313,2.954065 -0.9553,2.705267 -3.28751,-0.378975 -3.65014,5.380192 -0.43396,6.892047 1.90075,0.893496 1.95557,0.508569 0.32716,-2.297096 -1.6449,-2.83406 -1.52962,-3.320618 0.72439,-3.057234 1.47434,0.172272 2.69715,-1.147595 2.71735,-2.933072 0.0262,-2.317029 2.06186,-3.432551 7.11116,-3.896883 6.73636,-0.619463 7.06372,-0.386832 6.85012,4.867944 -0.12346,3.035202 -0.76364,5.519221 -1.42279,5.520044 -0.65916,8.44e-4 -4.2536,4.470703 -7.98763,9.933005 -4.4643,6.53058 -7.02565,8.939155 -7.47982,7.033694 z m 20.03047,-23.457804 c 0.43789,-2.380635 1.67049,-4.328427 2.73912,-4.328427 2.91103,0 3.94558,5.945181 1.28695,7.395637 -3.92201,2.139715 -4.85331,1.430221 -4.02607,-3.06721 z"
     style="fill:#2d515c" />
  <path
     inkscape:connector-curvature="0"
     id="path4640"
     d="m 390.23448,478.07267 c 0,-45.47766 2.46492,-84.70975 11.7387,-186.8356 l 0.83523,-9.19791 8.55496,0.34636 c 4.982,0.20171 6.5717,0.70212 3.80631,1.19816 l -4.74866,0.85181 -2.62009,24.23136 c -1.44106,13.32723 -3.22597,32.0225 -3.96648,41.54504 -2.10483,27.06679 -3.36452,124.02854 -1.8065,139.05074 l 1.40287,13.52633 -6.59817,0 -6.59817,0 z m 74.56123,11.8126 c 6.04413,-17.0228 12.63952,-40.54905 20.65131,-73.66486 l 6.54493,-27.05267 0.1166,26.63918 c 0.10625,24.28845 -0.29879,28.39444 -4.59084,46.53059 -2.58909,10.94028 -6.09851,24.51743 -7.7987,30.17144 l -3.09126,10.28001 -8.20682,0 -8.20683,0 z m 15.3973,8.18783 c 0.97636,-2.59373 4.03105,-14.03701 6.7882,-25.42952 l 5.01299,-20.71364 0.11554,25.42951 0.11538,25.42951 -6.90367,0 c -6.62104,0 -6.831,-0.19305 -5.12847,-4.71586 z m -56.66323,-42.35579 c -1.89108,-3.4282 -1.83789,-3.50726 0.56079,-0.83357 1.45768,1.62481 4.67483,2.53131 7.1503,2.01478 2.47516,-0.51649 4.15353,-0.14132 3.72972,0.83355 -1.40405,3.22987 -9.31638,1.83648 -11.44081,-2.01476 z m 14.0146,-77.19029 c -0.0661,-2.28143 0.29368,-3.55968 0.79951,-2.84053 0.50583,0.71914 0.5599,2.58578 0.12011,4.14808 -0.48594,1.72646 -0.84665,1.21365 -0.91968,-1.30755 z m -2.40356,-7.7551 c 4.18996,-2.55978 5.67951,-2.55978 4.56675,0 -0.51744,1.19032 -2.44166,2.09576 -4.27603,2.0121 -3.21554,-0.14674 -3.22598,-0.21885 -0.29072,-2.0121 z M 107.09618,307.05535 c 0,-0.52491 0.68502,-1.55628 1.52225,-2.29194 0.83724,-0.73566 1.52225,-0.3062 1.52225,0.95437 0,1.26057 -0.68501,2.29195 -1.52225,2.29195 -0.83723,0 -1.52225,-0.42947 -1.52225,-0.95438 z M 391.35036,280.4855 c -2.3166,-0.49782 -3.81745,-1.81275 -3.33523,-2.92206 0.48223,-1.10931 0.3226,-2.01848 -0.35474,-2.02036 -6.49267,-0.0173 -199.35765,-48.21989 -197.14093,-49.2704 1.29749,-0.6149 104.35917,23.62399 167.70932,39.44325 24.6628,6.15857 24.87389,6.19173 23.80792,3.73956 -0.42142,-0.96943 4.32681,0.24794 10.55162,2.70527 6.22479,2.45734 10.28834,4.78506 9.0301,5.17271 -1.25825,0.38768 -1.8964,1.60505 -1.41813,2.70527 0.87546,2.01388 -1.09459,2.11333 -8.84993,0.44676 z m 13.83189,-6.05097 c -2.57087,-3.65503 12.04875,-91.90161 31.5466,-190.42092 3.53174,-17.845327 12.64784,-52.873104 16.43447,-63.147925 1.94607,-5.280595 2.22816,-5.432285 3.0408,-1.63528 1.40905,6.583646 0.27225,14.129394 -3.89099,25.827358 -5.54682,15.585542 -18.3466,61.814077 -17.46297,63.070357 0.41159,0.58518 1.56328,-2.44662 2.5593,-6.73732 2.20778,-9.510793 13.00587,-43.323342 19.02676,-59.579357 l 4.40869,-11.903176 1.05522,8.656855 c 0.79291,6.504934 0.40303,10.001805 -1.56842,14.067389 -4.82347,9.947116 -17.93354,48.508059 -22.07386,64.926409 -6.30777,25.01331 -12.62801,59.7779 -19.27934,106.04647 -7.81542,54.36631 -7.33039,51.94113 -10.38836,51.94113 -1.44417,0 -2.97773,-0.50039 -3.4079,-1.11199 z m -84.2101,-36.41264 c -16.47478,-9.50587 -31.76901,-19.75094 -23.59485,-15.80536 4.56676,2.20432 44.92381,25.70742 45.54061,26.52188 1.89364,2.50051 -4.17542,-0.46312 -21.94576,-10.71652 z m -139.66633,-13.6856 c 1.04654,-0.60037 2.75907,-0.60037 3.80562,0 1.04655,0.60038 0.19028,1.09161 -1.90281,1.09161 -2.09309,0 -2.94936,-0.49123 -1.90281,-1.09161 z m -9.16246,-2.15049 c 1.0306,-0.59282 3.08564,-0.6289 4.56674,-0.0801 1.4811,0.54874 0.63787,1.03378 -1.87384,1.07789 -2.51171,0.0442 -3.72351,-0.40486 -2.6929,-0.99768 z m -9.86565,-2.23648 c 1.46516,-0.54434 3.8627,-0.54434 5.32787,0 1.46516,0.54437 0.26639,0.98976 -2.66394,0.98976 -2.93033,0 -4.1291,-0.44539 -2.66393,-0.98976 z m -16.36418,-2.83657 c -6.33041,-2.29013 -0.0999,-2.39176 7.61124,-0.12422 5.11953,1.50551 5.36188,1.78945 1.52225,1.78344 -2.51171,-0.004 -6.62178,-0.75064 -9.13349,-1.65928 z M 274.163,208.32423 c -8.16306,-5.90233 -14.84193,-11.21786 -14.84193,-11.8123 0,-0.96758 30.29323,19.89823 31.84038,21.93149 2.27569,2.9907 -4.1927,-0.85995 -16.99845,-10.11919 z m -140.07587,5.20471 c 1.03061,-0.59282 3.08565,-0.62889 4.56675,-0.0801 1.4811,0.54873 0.63787,1.03378 -1.87384,1.07788 -2.51171,0.0442 -3.72352,-0.40485 -2.69291,-0.99768 z m -9.13349,-2.16421 c 1.03061,-0.59282 3.08564,-0.6289 4.56675,-0.0801 1.4811,0.54872 0.63786,1.03376 -1.87385,1.07787 -2.51171,0.0442 -3.72351,-0.40484 -2.6929,-0.99768 z m -12.52959,-1.84865 c -0.83723,-0.41927 -6.65983,-1.94827 -12.939111,-3.39777 -6.279277,-1.44953 -10.731855,-2.96201 -9.894618,-3.36109 0.837237,-0.3991 8.714875,1.10254 17.505859,3.33694 8.79099,2.23442 13.92858,4.08993 11.41687,4.12341 -2.51171,0.0335 -5.25176,-0.28222 -6.089,-0.70149 z m -50.614772,-2.55204 c 1.465165,-0.54434 3.862707,-0.54434 5.327872,0 1.465164,0.54436 0.266393,0.98976 -2.663936,0.98976 -2.930329,0 -4.1291,-0.4454 -2.663936,-0.98976 z m 0.380563,-8.98928 c -7.535132,-1.90754 -12.330216,-3.74158 -10.655743,-4.0756 1.674474,-0.33405 10.237124,1.23946 19.028112,3.49667 8.790987,2.25721 13.586071,4.09126 10.655742,4.07561 -2.930329,-0.0152 -11.492979,-1.58912 -19.028111,-3.49668 z m 191.814139,-4.64358 c -0.53331,-1.2268 0.0778,-1.58961 1.43241,-0.85056 2.63717,1.43875 3.11968,2.99 0.93003,2.99 -0.78783,0 -1.85093,-0.96276 -2.36244,-2.13944 z M 42.781167,191.87309 c 1.046546,-0.60038 2.759076,-0.60038 3.805622,0 1.046547,0.60037 0.190282,1.0916 -1.902811,1.0916 -2.093092,0 -2.949357,-0.49123 -1.902811,-1.0916 z M 26.630624,188.6594 c -8.549239,-3.49776 -4.344087,-4.27313 5.259294,-0.96972 5.877753,2.02185 7.407994,3.08676 4.421691,3.07702 -2.51171,-0.009 -6.868158,-0.95646 -9.680985,-2.1073 z m 209.856716,-8.83443 c -44.52102,-36.65583 -64.16969,-53.60919 -62.13216,-53.60919 1.3347,0 11.92163,8.12982 23.52651,18.06629 11.60488,9.93647 25.89487,22.03765 31.75553,26.89155 10.47287,8.67377 17.48289,15.48204 15.98361,15.52358 -0.41862,0.0108 -4.52869,-3.08091 -9.13349,-6.87223 z M 18.425185,178.8878 c 1.046546,-0.60037 2.759076,-0.60037 3.805622,0 1.046546,0.60038 0.190281,1.09161 -1.902811,1.09161 -2.093092,0 -2.949357,-0.49123 -1.902811,-1.09161 z m 27.40048,-2.16421 c 1.046546,-0.60037 2.759076,-0.60037 3.805622,0 1.046546,0.60037 0.190281,1.09161 -1.902811,1.09161 -2.093092,0 -2.949357,-0.49124 -1.902811,-1.09161 z M 133.33121,93.755753 c -2.73409,-2.370009 -5.47414,-4.144188 -6.08899,-3.942657 -0.61487,0.201489 -2.93041,-0.887565 -5.14564,-2.420218 -2.92446,-2.023323 -4.86587,-6.276501 -7.08758,-15.527173 -1.68291,-7.007313 -2.73391,-12.740553 -2.33554,-12.740553 1.19061,0 14.21196,13.101176 14.21196,14.29909 0,0.608231 -0.68501,0.503959 -1.52225,-0.231701 -0.83724,-0.735659 -1.52225,-0.261913 -1.52225,1.05276 0,2.502286 3.69852,7.88527 12.2877,17.88411 5.95648,6.934054 4.38182,7.849517 -2.79741,1.626342 z m 325.40447,-69.25802 c 0.89615,-2.380635 1.97187,-4.328427 2.39049,-4.328427 0.41862,0 0.0279,1.947792 -0.86824,4.328427 -0.89615,2.380635 -1.97188,4.328427 -2.3905,4.328427 -0.41861,0 -0.0279,-1.947792 0.86825,-4.328427 z"
     style="fill:#a19ca6;fill-opacity:1"
     sodipodi:nodetypes="sscsscssscccssscssscccscscccsccssscscscccsscsssssssscsssscsscssssssscssssscsssssssscccccccsccccccssssccccccccccsscsssccscscscsscsssssssscssssscsssssssssscsssssssssssss" />
</svg>
