<?xml version="1.0" encoding="UTF-8" standalone="no"?>
<svg
   xmlns:dc="http://purl.org/dc/elements/1.1/"
   xmlns:cc="http://creativecommons.org/ns#"
   xmlns:rdf="http://www.w3.org/1999/02/22-rdf-syntax-ns#"
   xmlns:svg="http://www.w3.org/2000/svg"
   xmlns="http://www.w3.org/2000/svg"
   xmlns:sodipodi="http://sodipodi.sourceforge.net/DTD/sodipodi-0.dtd"
   xmlns:inkscape="http://www.inkscape.org/namespaces/inkscape"
   inkscape:export-ydpi="12.832031"
   inkscape:export-xdpi="12.832031"
   inkscape:export-filename="C:\Users\Chris\Documents\GitHub\bot-game\assets\prismatic_toe_ring.png"
   viewBox="0 0 512 512"
   id="svg2"
   version="1.1"
   inkscape:version="0.48.4 r9939"
   width="100%"
   height="100%"
   sodipodi:docname="roller_skates.svg">
  <sodipodi:namedview
     pagecolor="#ffffff"
     bordercolor="#666666"
     borderopacity="1"
     objecttolerance="10"
     gridtolerance="10"
     guidetolerance="10"
     inkscape:pageopacity="0"
     inkscape:pageshadow="2"
     inkscape:window-width="1158"
     inkscape:window-height="1254"
     id="namedview44"
     showgrid="false"
     inkscape:zoom="0.48475484"
     inkscape:cx="80.063258"
     inkscape:cy="581.69347"
     inkscape:window-x="228"
     inkscape:window-y="16"
     inkscape:window-maximized="0"
     inkscape:current-layer="svg2" />
  <metadata
     id="metadata48">
    <rdf:RDF>
      <cc:Work
         rdf:about="">
        <dc:format>image/svg+xml</dc:format>
        <dc:type
           rdf:resource="http://purl.org/dc/dcmitype/StillImage" />
        <dc:title></dc:title>
      </cc:Work>
    </rdf:RDF>
  </metadata>
  <defs
     id="defs46">
    <linearGradient
       id="linearGradient3926">
      <stop
         id="stop3928"
         offset="0"
         style="stop-color:#ffffff;stop-opacity:0;" />
      <stop
         style="stop-color:#ffffff;stop-opacity:0.49803922;"
         offset="0.5"
         id="stop3934" />
      <stop
         id="stop3930"
         offset="1"
         style="stop-color:#ffffff;stop-opacity:0;" />
    </linearGradient>
    <filter
       id="filter3108"
       x="0"
       y="0"
       width="1"
       height="1"
       inkscape:label="Lightness-Contrast"
       inkscape:menu="Color"
       inkscape:menu-tooltip="Increase or decrease lightness and contrast"
       color-interpolation-filters="sRGB">
      <feFlood
         id="feFlood3110"
         result="result1"
         flood-opacity="1"
         flood-color="rgb(0,0,0)" />
      <feBlend
         id="feBlend3112"
         in2="SourceGraphic"
         mode="normal"
         result="result2" />
      <feComposite
         id="feComposite3114"
         in2="SourceGraphic"
         k2="1"
         operator="arithmetic"
         result="result3" />
      <feComposite
         id="feComposite3116"
         in2="SourceGraphic"
         operator="in" />
    </filter>
    <filter
       id="filter7264"
       inkscape:label="Fluorescence"
       inkscape:menu="Color"
       inkscape:menu-tooltip="Oversaturate colors which can be fluorescent in real world"
       x="0"
       y="0"
       width="1"
       height="1"
       color-interpolation-filters="sRGB">
      <feColorMatrix
         id="feColorMatrix7266"
         type="hueRotate"
         values="0" />
      <feColorMatrix
         id="feColorMatrix7268"
         type="saturate"
         values="1" />
      <feColorMatrix
         id="feColorMatrix7270"
         type="matrix"
         values="2 -1 0 0 0 0 2 -1 0 0 -1 0 2 0 0 0 0 0 1 0 " />
    </filter>
    <filter
       id="filter7746"
       inkscape:label="Fluorescence"
       inkscape:menu="Color"
       inkscape:menu-tooltip="Oversaturate colors which can be fluorescent in real world"
       x="0"
       y="0"
       width="1"
       height="1"
       color-interpolation-filters="sRGB">
      <feColorMatrix
         id="feColorMatrix7748"
         type="hueRotate"
         values="0" />
      <feColorMatrix
         id="feColorMatrix7750"
         type="saturate"
         values="1" />
      <feColorMatrix
         id="feColorMatrix7752"
         type="matrix"
         values="2 -1 0 0 0 0 2 -1 0 0 -1 0 2 0 0 0 0 0 1 0 " />
    </filter>
    <filter
       id="filter11635"
       inkscape:label="Fluorescence"
       inkscape:menu="Color"
       inkscape:menu-tooltip="Oversaturate colors which can be fluorescent in real world"
       x="0"
       y="0"
       width="1"
       height="1"
       color-interpolation-filters="sRGB">
      <feColorMatrix
         id="feColorMatrix11637"
         type="hueRotate"
         values="0" />
      <feColorMatrix
         id="feColorMatrix11639"
         type="saturate"
         values="1" />
      <feColorMatrix
         id="feColorMatrix11641"
         type="matrix"
         values="2 -1 0 0 0 0 2 -1 0 0 -1 0 2 0 0 0 0 0 1 0 " />
    </filter>
    <clipPath
       clipPathUnits="userSpaceOnUse"
       id="clipPath5731">
      <g
         transform="translate(-499.67984,900.72257)"
         id="g5733">
        <path
           sodipodi:nodetypes="csssssssscsssssscssssssssssssccssscccccsccssss"
           inkscape:connector-curvature="0"
           d="m 713.46932,336.19879 c -46.66846,-6.86515 -63.32187,-12.04474 -82.43996,-25.64069 -7.77372,-5.52834 -15.03553,-11.14129 -18.39792,-14.22052 -2.11083,-1.93307 -4.58583,-3.93035 -5.5,-4.43838 -5.84335,-3.24737 -21.16212,-23.53521 -21.16212,-28.02664 0,-0.85231 -0.3375,-1.55317 -0.75,-1.55746 -1.39551,-0.0145 -2.90294,-4.63228 -2.14427,-6.56859 0.73071,-1.86494 0.75825,-1.86261 0.90293,0.0764 0.0866,1.16054 0.36564,1.46123 0.66483,0.71638 0.61512,-1.53141 -1.53978,-4.41705 -2.74312,-3.67334 -0.46366,0.28655 -0.5612,1.25542 -0.21676,2.15303 0.38711,1.0088 0.22353,1.38311 -0.42838,0.98021 -0.9969,-0.61612 -1.63974,-2.89421 -2.94209,-10.42628 -0.30907,-1.7875 -0.93079,-3.25 -1.38159,-3.25 -1.5083,0 -4.35392,-11.40362 -5.1155,-20.5 -2.10576,-25.15144 -2.16477,-28.9906 -0.46721,-30.39944 0.89164,-0.74 1.61427,-1.85285 1.60585,-2.473 -0.008,-0.62016 -0.43396,-0.46559 -0.94563,0.34348 -1.49011,2.3562 -2.47835,0.28852 -1.2015,-2.51387 0.63934,-1.4032 1.16244,-4.39299 1.16244,-6.64398 0,-2.44744 0.59517,-4.53902 1.48053,-5.20295 0.8685,-0.65128 1.70847,-3.51394 2.03192,-6.92492 0.51015,-5.37977 2.10581,-9.68532 3.58942,-9.68532 0.34143,0 0.40573,-1.125 0.14288,-2.5 -0.27897,-1.45935 -0.0131,-2.5 0.63867,-2.5 0.61412,0 1.11658,0.9 1.11658,2 0,3.05353 1.46373,2.38454 2.73495,-1.25 2.73263,-7.81276 3.55467,-15.64994 2.41455,-23.01981 -3.44237,-22.25201 -1.57023,-46.135821 4.6943,-59.887301 1.1285,-2.47721 2.92498,-6.71925 3.99217,-9.42675 17.66648,-102.76194 365.27374,-164.419499 334.81752,122.010491 -7.79547,25.33126 -32.70829,60.14015 -49.15349,68.67863 -2.2,1.14226 -5.31489,3.49838 -6.92197,5.23581 -1.60708,1.73744 -3.18208,3.15898 -3.5,3.15898 -0.31792,0 -0.58155,0.59299 -0.58585,1.31776 -5.42674,18.0491 -23.8421,29.8395 -3.61467,11.08169 3.23208,-3.01114 3.82133,-1.56587 0.72364,1.77485 -12.76274,5.49516 4.65115,6.24035 -4.60119,11.58349 -3.4638,1.90975 -9.12315,7.28573 -8.41511,7.99376 0.32807,0.32808 -4.35653,5.11365 -11.68088,11.93265 -23.17357,21.57468 -85.54296,35.99675 -128.40401,29.69169 z m -130.5,-96.63534 c 0,-0.94984 -4.04141,-3.53247 -4.62092,-2.95297 -0.23439,0.23439 -0.14242,1.16557 0.20437,2.06929 0.61898,1.61304 4.41655,2.37287 4.41655,0.88368 z"
           style="fill:#ecd59b"
           id="path5735" />
      </g>
    </clipPath>
  </defs>
  <rect
     style="opacity:0.98999999;fill:#0c0000;fill-opacity:1;fill-rule:nonzero;stroke:none"
     id="rect3171"
     width="516.97894"
     height="524.13165"
     x="-0.23968305"
     y="-5.1220188" />
  <g
     id="g5748"
     transform="matrix(1.1177634,0,0,1.5038095,-39.550058,652.67504)">
    <path
       style="fill:#ead258"
       d="m 360.84184,-125.86318 c -5.41053,-2.95181 -14.83995,-19.54236 -11.10713,-19.54236 0.89889,0 1.63434,1.48636 1.63434,3.30302 0,7.34744 9.59856,13.21472 14.91191,9.11514 4.4731,-3.45128 4.66584,-3.43841 2.65627,0.17719 -2.63663,4.74378 -0.77377,4.89334 4.535,0.36411 2.17085,-1.85207 5.45854,-3.40499 7.30599,-3.4509 1.84743,-0.0459 4.11174,-1.4372 5.0318,-3.09173 2.05778,-3.70047 9.25759,-4.83683 10.56973,-1.66826 0.52844,1.27613 -0.10925,2.32022 -1.41702,2.32022 -1.3078,0 -5.73514,2.66416 -9.83852,5.92036 -4.19141,3.32607 -8.7249,5.32152 -10.34573,4.55375 -1.58677,-0.75162 -2.88505,-0.23492 -2.88505,1.14845 0,2.59812 -6.8784,3.12776 -11.05159,0.85099 z m -207.9954,-4.95061 c -4.13085,-1.78219 -8.57633,-4.64692 -9.87884,-6.36608 -1.49958,-1.97924 -6.50908,-3.12048 -13.65798,-3.1115 -12.39147,0.0165 -14.13826,-0.9795 -28.57488,-16.2778 -10.990147,-11.64613 -12.593373,-18.7536 -6.966809,-30.8855 1.595378,-3.43992 3.355412,-8.13403 3.911189,-10.43132 1.424772,-5.88931 5.17392,-7.43606 11.03831,-4.55397 4.6524,2.28646 4.49632,2.37124 -2.01802,1.09623 -7.060406,-1.3819 -7.060406,-1.3819 -4.20772,5.11582 2.81213,6.40536 2.80589,6.47555 -0.43889,4.93856 -2.581245,-1.2227 -3.291562,-0.55031 -3.291562,3.11581 0,2.57123 0.819559,5.08269 1.821242,5.58099 1.00168,0.49833 1.88976,5.89671 1.9735,11.99641 0.11929,8.68912 0.79942,11.39897 3.14123,12.51568 1.64394,0.78393 6.2234,4.48665 10.17659,8.22826 7.21568,6.82949 19.48041,9.48783 21.48131,4.65602 0.48898,-1.1808 3.55037,-0.20288 6.80307,2.17302 4.90162,3.58042 6.0014,3.74628 6.42448,0.96878 0.28076,-1.84315 1.24484,-3.35116 2.14242,-3.35116 0.89757,0 1.20884,1.64555 0.69171,3.65679 -0.53915,2.09689 -0.27447,3.0427 0.62049,2.2172 0.85839,-0.79175 1.56072,-0.29043 1.56072,1.11407 0,13.89158 21.4251,3.80552 27.35736,-12.87873 1.38236,-3.88785 2.53715,-5.47833 2.5662,-3.53441 0.10331,6.91448 -10.24197,25.3243 -14.77185,26.28707 -5.92209,1.2587 -11.30628,0.57597 -17.90327,-2.27024 z m 247.46537,-7.02174 c 0,-1.02028 2.20048,-2.10532 4.88995,-2.41117 2.68949,-0.30584 7.12986,-3.05912 9.86749,-6.11838 2.73766,-3.05927 6.58639,-6.29188 8.55277,-7.18356 1.96638,-0.89169 3.20314,-2.51978 2.74839,-3.61794 -0.45476,-1.09816 0.12488,-3.41702 1.28804,-5.153 2.28569,-3.41126 2.0624,-5.95132 -1.58983,-18.08557 -1.67406,-5.56196 -1.88332,-8.64158 -0.70654,-10.39785 1.17677,-1.75627 2.14538,-0.63699 3.27037,3.77904 1.75488,6.88867 5.51512,8.77993 4.27639,2.15089 -2.96217,-15.85228 -2.57843,-15.23722 -8.6734,-13.90175 -5.76744,1.26369 -5.76744,1.26369 -0.66775,-1.28618 6.32581,-3.16291 8.00832,-1.33138 13.6284,14.83544 5.51097,15.85298 5.3921,16.82584 -3.3348,27.29185 -4.12462,4.94657 -7.90126,9.8006 -8.39255,10.78675 -2.65234,5.32389 -25.15693,13.65362 -25.15693,9.31143 z m -236.18877,-4.66075 c -7.58709,-7.56077 -6.70615,-30.6469 1.4548,-38.12501 3.38018,-3.09737 3.38987,-3.06803 0.55789,1.68718 -2.21243,3.7149 -2.39585,5.08255 -0.7894,5.88627 1.15096,0.57582 0.87407,0.7779 -0.61532,0.44903 -4.98873,-1.10151 -5.38601,18.98447 -0.51915,26.24796 3.40949,5.08851 3.35876,7.29018 -0.0888,3.85457 z m 114.22656,-6.88978 c -4.33104,-1.68916 -3.23205,-4.92491 1.23942,-3.6492 2.50527,0.71475 5.16272,-0.42542 7.1046,-3.04821 1.77773,-2.40109 3.10227,-3.02812 3.10227,-1.46862 0,1.49682 -0.88807,2.7377 -1.97349,2.75754 -1.31566,0.024 -1.1841,0.79746 0.3947,2.3202 5.11955,4.93778 14.29815,2.71252 18.85752,-4.57185 4.07203,-6.50575 4.49929,-6.6853 7.00858,-2.94534 5.98873,8.92584 29.49943,2.32788 31.52025,-8.84572 0.36461,-2.01595 0.74533,-0.68692 0.84606,2.95342 0.11257,4.06761 0.83661,6.01606 1.87849,5.05503 0.93245,-0.86006 0.75484,0.68579 -0.3947,3.4352 -1.68671,4.03429 -2.39472,4.383 -3.66885,1.80696 -1.91347,-3.86865 -5.65726,-2.49699 -4.58345,1.67931 1.32383,5.14873 -14.91828,4.71377 -22.21767,-0.595 -6.27673,-4.565 -6.27673,-4.565 -10.77801,1.08777 -4.40585,5.5329 -19.11621,7.62428 -28.33572,4.02851 z m 91.96503,-8.61843 c 0,-6.86064 -1.0426,-12.03682 -3.15759,-15.67629 -1.73668,-2.98848 -3.13515,-6.06662 -3.10771,-6.84028 0.0275,-0.77366 1.80359,1.56834 3.947,5.20446 3.50308,5.94273 5.94056,27.55479 3.1077,27.55479 -0.43417,0 -0.7894,-4.60922 -0.7894,-10.24268 z m -143.5052,5.33016 c -5.38583,-3.21529 -3.31061,-4.85403 2.82253,-2.22886 9.35257,4.00314 25.33555,-0.47585 29.93565,-8.38903 2.35969,-4.0592 3.54111,-5.09412 2.89719,-2.53796 -0.598,2.37389 -1.08728,4.73805 -1.08728,5.2537 0,7.45552 -25.53755,13.29332 -34.56809,7.90215 z m 134.82181,0.32922 c -1.73668,-1.04269 -3.69044,-1.43577 -4.3417,-0.87347 -2.06235,1.78064 -1.27715,-6.52232 0.92805,-9.81346 2.75788,-4.11596 5.11318,-1.63853 6.11703,6.43422 0.44317,3.56386 0.72666,6.40521 0.62999,6.31412 -0.0966,-0.0909 -1.59669,-1.01871 -3.33337,-2.06141 z M 164.1141,-155.2346 c -0.63512,-1.5337 -0.41242,-2.037 0.52053,-1.17646 0.92569,0.85384 2.03651,-1.52576 2.56975,-5.50491 0.87754,-6.54841 1.20403,-6.82883 4.96951,-4.26829 5.01861,3.41268 4.39436,6.72168 -2.00301,10.61756 -3.6569,2.22699 -5.23623,2.31358 -6.05678,0.3321 z m 26.48309,-3.58945 c -2.49297,-4.24225 -4.04743,-5.38054 -4.81533,-3.52621 -0.62368,1.50608 -1.13397,-0.9573 -1.13397,-5.47422 0,-4.51693 0.6103,-8.21257 1.35622,-8.21257 0.74592,0 0.95715,0.96366 0.4694,2.14149 -4.06939,9.82688 19.65399,19.94762 28.4997,12.15841 6.62366,-5.83255 6.36117,-5.79014 7.53674,-1.21803 0.51712,2.01122 0.39587,3.15467 -0.26945,2.54098 -0.66534,-0.61367 -5.09756,0.88711 -9.84942,3.33511 -12.12457,6.24617 -17.34343,5.82833 -21.79389,-1.74496 z m 54.99234,-4.25352 c -1.61451,-2.90337 -1.49146,-3.5344 0.68925,-3.5344 1.46009,0 2.21561,1.06032 1.67895,2.35627 -1.48796,3.59315 5.44857,2.80813 7.93158,-0.89762 1.19913,-1.78966 1.68123,-4.08028 1.07133,-5.09032 -0.60991,-1.01002 -0.17457,-1.03099 0.96742,-0.0467 1.65371,1.42552 1.52357,2.70144 -0.63938,6.26846 -3.25495,5.36782 -8.98221,5.83005 -11.69915,0.9442 z m 165.77387,-10.0534 c 0,-8.57664 -0.52198,-10.08064 -3.94346,-11.36224 -3.94344,-1.47715 -3.94344,-1.47715 -0.14572,-5.93556 4.66986,-5.48217 5.66798,-5.57063 5.66798,-0.50227 0,2.1759 0.85571,7.48795 1.90159,11.80454 1.62766,6.71787 1.51395,8.42685 -0.7894,11.8645 -2.53544,3.78399 -2.69099,3.44475 -2.69099,-5.86897 z m -255.52777,4.16273 c -0.0541,-0.64798 0.8881,-6.47974 2.09368,-12.95949 1.20558,-6.47974 2.23992,-10.78345 2.29852,-9.56379 0.0586,1.21965 1.03376,0.32512 2.16699,-1.98787 2.22546,-4.54225 7.34807,-5.57574 13.90175,-2.80469 3.69326,1.56162 4.22195,0.99062 5.09162,-5.49911 0.73799,-5.50701 1.8204,-7.24165 4.5188,-7.24165 3.54836,0 3.54836,0 0.21987,3.47944 -1.83067,1.91369 -3.77323,6.12401 -4.31679,9.35625 -0.88548,5.26539 -1.43811,5.6374 -5.3115,3.57564 -4.12938,-2.19802 -4.18163,-2.13516 -1.16559,1.40234 3.04152,3.56737 2.99671,3.64463 -1.21866,2.10162 -5.35292,-1.9594 -14.12654,6.12574 -16.56506,15.2652 -0.88845,3.32983 -1.65958,5.52408 -1.71363,4.87611 z m 121.20908,-3.15382 c -2.25811,-7.11431 0.46778,-11.49417 2.98147,-4.79054 0.98368,2.62333 1.78702,2.99598 2.53981,1.17814 0.60558,-1.46237 0.30675,-2.65886 -0.66409,-2.65886 -0.97083,0 -1.27919,-1.17352 -0.68523,-2.60783 0.75339,-1.81927 1.47777,-1.6471 2.39564,0.56937 1.47107,3.55241 -0.42874,7.37206 -4.06263,8.16804 -1.31129,0.28722 -2.43853,0.35099 -2.50497,0.14161 z m 11.17239,-4.97604 c 0,-3.17548 -1.24331,-6.85437 -2.7629,-8.1753 -1.70493,-1.48204 -1.97153,-2.42915 -0.69622,-2.47335 1.13667,-0.0394 1.61683,-1.39706 1.06701,-3.01699 -0.54981,-1.61994 0.11873,-0.88711 1.48562,1.62849 2.267,4.17208 3.56562,17.81074 1.69588,17.81074 -0.43416,0 -0.78939,-2.59812 -0.78939,-5.77359 z m -170.26917,-5.04384 c 0.86095,-4.65363 1.18121,-9.95524 0.71168,-11.78135 -1.06928,-4.1587 2.10226,-4.18082 5.75711,-0.04 3.38563,3.83565 3.61076,6.48271 0.3947,4.64086 -1.70084,-0.97408 -2.3682,0.24194 -2.3682,4.31522 0,5.45178 -2.55437,11.32648 -4.92489,11.32648 -0.62468,0 -0.43136,-3.80752 0.4296,-8.46116 z m 250.91953,2.2898 c -3.17553,-5.45071 -4.45158,-6.02734 -10.92733,-4.93799 -7.33192,1.23337 -7.33192,1.23337 -3.619,-3.25372 2.04212,-2.46791 2.96568,-4.48709 2.05239,-4.48709 -0.91328,0 -2.09961,1.06032 -2.63627,2.35627 -1.73913,4.19967 -3.95028,2.49585 -3.82235,-2.94534 0.0685,-2.91589 0.44961,-4.12564 0.8468,-2.68832 0.47658,1.72458 2.89184,2.02114 7.10226,0.87206 4.79228,-1.30787 6.58817,-0.93202 7.2161,1.5102 0.45981,1.78827 1.47045,3.2514 2.24589,3.2514 2.28617,0 7.72508,9.12425 7.72508,12.95948 0,5.22409 -2.13394,4.31407 -6.18357,-2.63695 z m -78.92821,-9.2812 c -1.55029,-7.83606 -2.75818,-10.37725 -4.46731,-9.39844 -1.85363,1.06157 -2.13111,-0.0165 -1.32952,-5.16482 0.55714,-3.57849 0.45856,-5.29831 -0.21906,-3.82178 -0.89649,1.95337 -1.78653,1.79293 -3.26781,-0.58907 -1.70231,-2.73746 -1.31441,-3.27893 2.3682,-3.30582 2.42217,-0.0188 6.18009,-0.59908 8.35094,-1.29197 3.59692,-1.14804 3.54995,-0.98706 -0.5294,1.81511 -4.47638,3.07491 -4.47638,3.07491 -1.47463,8.94984 2.44717,4.78952 4.98638,23.54697 3.18756,23.54697 -0.27179,0 -1.45033,-4.833 -2.61897,-10.74002 z m -51.6624,-5.75272 c 0.12014,-5.43841 0.98809,-9.4244 2.05245,-9.42508 1.01441,-6.4e-4 2.87649,-0.59225 4.13797,-1.31471 2.95047,-1.68975 4.89267,5.61936 2.59237,9.75593 -0.95808,1.7229 -1.32963,4.12821 -0.82569,5.34513 0.50393,1.21692 -0.14541,2.82057 -1.44288,3.56367 -3.00852,1.72297 -2.99945,-0.80062 0.026,-7.24714 1.45211,-3.09411 1.7796,-5.64067 0.83719,-6.50995 -0.85139,-0.78527 -2.5989,2.32607 -3.88338,6.91415 -3.00887,10.74747 -3.75015,10.51792 -3.49402,-1.082 z m 24.67754,2.15877 c -0.003,-4.68038 -7.14909,-16.58225 -8.6995,-14.4885 -0.70269,0.94894 -0.76655,0.39996 -0.14193,-1.21998 0.80255,-2.08132 -0.39683,-3.04889 -4.08857,-3.29838 -4.64003,-0.31357 -4.74892,-0.46135 -0.97366,-1.32153 7.0643,-1.60957 18.97365,16.10258 14.90747,22.17113 -0.55104,0.82241 -1.00277,-0.007 -1.00383,-1.84274 z m 93.90002,-38.88824 c -0.89058,-0.55674 -1.34664,-5.27835 -1.01346,-10.4925 0.66535,-10.41247 -2.35833,-24.23868 -4.80688,-21.98018 -0.85103,0.78497 -1.22424,4.71254 -0.82937,8.72793 0.71796,7.30069 0.71796,7.30069 -1.82174,1.87729 -1.39685,-2.98285 -7.10531,-12.80092 -12.68548,-21.8179 -13.27571,-21.45216 -19.54584,-34.31916 -17.59895,-36.11494 0.85615,-0.7897 1.13356,-3.08125 0.61647,-5.09233 -0.74546,-2.89932 -1.20437,-3.01847 -2.21608,-0.57535 -0.98359,2.3752 -2.19933,1.78648 -5.30609,-2.56944 -4.32729,-6.06722 -5.11453,-11.69332 -2.23709,-15.98775 1.92512,-2.87313 6.10094,1.36698 6.10094,6.19487 0,1.34292 1.42091,3.57661 3.15759,4.96375 1.73668,1.38714 3.1576,3.36866 3.1576,4.40338 0,1.58869 9.81315,18.97408 13.76389,24.38467 0.67909,0.93002 3.5682,4.90622 6.42023,8.83601 2.85204,3.92979 6.02648,7.14508 7.05433,7.14508 2.51979,0 9.22331,11.8706 8.15727,14.44492 -0.46667,1.12693 -0.20379,2.04897 0.58417,2.04897 0.78797,0 1.57789,7.42225 1.75538,16.49389 0.17747,9.07164 0.10751,16.41017 -0.15536,16.30786 -0.26295,-0.10226 -1.20675,-0.64151 -2.09732,-1.19823 z M 172.28646,-251.4783 c 1.18311,-17.9194 4.43221,-25.38572 16.45215,-37.80653 3.0314,-3.13249 7.64939,-9.3319 10.26219,-13.77645 2.61281,-4.44455 6.88194,-11.38824 9.48696,-15.43042 2.60501,-4.04218 5.74452,-10.2246 6.97668,-13.73871 2.49912,-7.12753 5.10763,-8.09557 7.96562,-2.95611 2.09807,3.77293 1.48533,5.59285 -6.78429,20.15043 -3.50359,6.16762 -4.76747,7.16044 -5.83465,4.58337 -0.74925,-1.80932 -1.91318,-2.46748 -2.5865,-1.46259 -0.67331,1.0049 -0.20735,2.76502 1.03548,3.91139 2.591,2.38989 3.58385,0.24625 -13.365,28.85639 -8.11173,13.69283 -11.30049,17.62246 -12.79644,15.76955 -3.6203,-4.48418 -8.55508,2.50368 -8.55508,12.11436 0,5.55439 0.73618,8.46558 2.14076,8.46558 1.17742,0 2.06549,-2.209 1.9735,-4.90891 -0.0989,-2.90356 0.80017,-4.90889 2.20094,-4.90889 3.31489,0 2.16505,8.4523 -1.84312,13.54856 -6.51271,8.28069 -7.92355,5.67861 -6.7292,-12.41102 z"
       id="path5764"
       inkscape:connector-curvature="0" />
    <path
       style="fill:#ebd224"
       d="m 368.7214,-132.42011 c 1.07307,-1.92964 2.42873,-3.06782 3.01261,-2.52927 1.40102,1.29228 1.82392,-3.09147 2.55407,-26.47472 0.61262,-19.61974 -1.65212,-28.75057 -7.13104,-28.75057 -0.86834,0 -1.5788,-1.07041 -1.5788,-2.37868 0,-3.58834 10.94583,-0.85083 14.20633,3.55297 2.22628,3.00691 3.01041,3.16473 3.66147,0.73695 0.67686,-2.52395 0.8513,-2.51714 0.95314,0.0372 0.0685,1.71963 2.25602,6.30757 4.86104,10.19541 9.83028,14.67115 3.93189,41.72102 -9.18757,42.13386 -1.45938,0.046 -4.42957,1.59883 -6.60042,3.4509 -5.16008,4.40236 -7.19065,4.41346 -4.75083,0.0259 z m -209.57111,-1.2775 c -1.95376,-1.17205 -3.55229,-3.28806 -3.55229,-4.70224 0,-1.41421 -0.78135,-1.85057 -1.73632,-0.96973 -1.23449,1.13867 -1.22393,0.17272 0.0365,-3.34232 1.47304,-4.1078 1.36618,-4.71096 -0.63189,-3.56666 -1.3226,0.75747 -2.40473,2.80076 -2.40473,4.54067 0,5.31542 -12.58843,-6.13212 -13.6437,-12.40717 -1.15677,-6.87859 0.66994,-21.89199 2.66365,-21.89199 0.82899,0 1.53733,-1.85557 1.57408,-4.12348 0.0836,-5.1595 9.192,-14.0112 16.53224,-16.06634 4.67936,-1.31016 5.39092,-0.96181 4.56855,2.23664 -0.53576,2.08367 -1.70556,3.11381 -2.59957,2.28919 -1.0323,-0.95219 -1.36425,1.15697 -0.90964,5.77976 0.39371,4.0035 0.2147,6.81683 -0.3978,6.25187 -1.60958,-1.48464 -2.76881,6.73394 -2.49713,17.70379 0.12932,5.22133 -0.47534,9.57659 -1.34368,9.67833 -0.86834,0.1018 -0.69073,0.7198 0.3947,1.37345 1.08542,0.65365 1.97349,2.61365 1.97349,4.3555 0,1.74187 1.77615,5.25215 3.947,7.80064 6.03256,7.08196 5.15363,9.33557 -1.9735,5.06009 z m 201.87469,-3.06826 c -0.12125,-4.41841 0.48425,-6.31526 1.79036,-5.60908 1.08542,0.58685 3.2168,-0.54944 4.7364,-2.52512 1.51959,-1.97566 2.76289,-2.54664 2.76289,-1.26883 0,1.27783 -1.74384,3.71617 -3.87521,5.41857 -2.13136,1.70239 -4.18032,4.79744 -4.55325,6.87791 -0.37293,2.08044 -0.76046,0.77839 -0.86119,-2.89345 z m -4.91954,-6.42247 c 0,-1.37243 -0.71178,-1.83878 -1.58175,-1.03633 -1.55125,1.43082 -5.4856,-10.26881 -4.13236,-12.28844 0.37918,-0.56591 1.15739,1.17163 1.72935,3.86119 0.9152,4.30349 2.53262,5.8087 5.69512,5.30005 0.50655,-0.0815 0.92098,1.38344 0.92098,3.25538 0,1.87192 -0.59205,3.40349 -1.31568,3.40349 -0.72361,0 -1.31566,-1.1229 -1.31566,-2.49534 z m -242.34561,-8.50484 c -1.73668,-1.9811 -4.93375,-4.57345 -7.1046,-5.76072 -3.40683,-1.86327 -3.96783,-3.66916 -4.09925,-13.19566 -0.0837,-6.07032 -0.97182,-11.44466 -1.9735,-11.94299 -3.788239,-1.88457 -2.089556,-10.37694 1.73106,-8.6542 2.89804,1.30674 3.18882,1.03221 1.57879,-1.49063 -4.2065,-6.59133 -2.35516,-9.7248 4.7364,-8.01655 9.65616,2.32604 11.47345,5.68012 9.46762,17.47396 -1.4964,8.7985 -0.37118,12.91738 1.97867,7.24292 1.89091,-4.56622 3.54393,-2.26355 4.46658,6.22194 1.02342,9.41226 -0.98402,17.34076 -4.39056,17.34076 -1.1996,0 -2.4179,0.98622 -2.70735,2.19159 -0.28945,1.2054 -1.94718,0.57069 -3.68386,-1.41042 z m 295.73475,0.76556 c -3.58828,-4.07114 -5.53939,-15.67172 -2.64403,-15.72043 1.65448,-0.0278 1.60338,-0.54724 -0.22354,-2.27255 -3.26016,-3.07879 -3.30795,-16.22044 -0.0554,-15.26088 1.33301,0.39329 2.95652,0.79619 3.60778,0.89534 0.65125,0.0992 1.1841,4.64878 1.1841,10.11028 0,9.35602 0.15551,9.69785 2.69098,5.91386 2.30336,-3.43765 2.41706,-5.14663 0.7894,-11.8645 -3.1208,-12.88036 -2.52242,-14.96795 5.11273,-17.83727 9.23478,-3.47043 10.00334,-3.36565 10.91021,1.48749 0.42379,2.26791 1.23,6.50919 1.79158,9.42508 1.45852,7.57303 -2.06577,6.72147 -4.02586,-0.97276 -1.12499,-4.41603 -2.0936,-5.53531 -3.27037,-3.77904 -1.17678,1.75627 -0.97567,4.83589 0.67904,10.39785 3.61689,12.15748 4.21069,15.78003 2.71879,16.58628 -0.75443,0.40773 -1.6026,2.33179 -1.88481,4.27571 -1.12716,7.76412 -12.96077,13.63003 -17.38052,8.61554 z m -121.01517,-1.25491 c -1.69896,-1.6073 -1.62783,-2.26604 0.3681,-3.40912 1.36067,-0.77926 2.09837,-2.87759 1.63931,-4.66294 -0.45905,-1.78535 0.26339,-4.60613 1.60542,-6.26838 2.43306,-3.01365 3.50435,-8.42122 1.25595,-6.33974 -0.65125,0.60292 -1.05514,-4.56654 -0.89755,-11.48771 0.19304,-8.4769 -0.45104,-13.49757 -1.97349,-15.38329 -2.97023,-3.67899 -2.87572,-6.93486 0.20132,-6.93486 1.35376,0 2.02229,1.06033 1.48562,2.35627 -0.53666,1.29595 0.30948,2.43999 1.88032,2.5423 1.57084,0.10226 2.02154,0.69421 1.00154,1.3153 -1.38726,0.84474 -1.30607,3.08836 0.3222,8.90444 2.36819,8.45893 1.86357,30.68716 -0.80561,35.4871 -0.8699,1.56435 -1.11417,3.54194 -0.54282,4.39468 1.51157,2.25592 -3.06082,1.83169 -5.54031,-0.51405 z m -53.09325,-16.26601 c -1.50973,-13.33647 -0.44464,-32.72207 1.79781,-32.72207 1.21781,0 1.63725,2.81209 1.19258,7.99556 -0.46549,5.42623 -0.1271,7.48019 1.05285,6.39176 1.2643,-1.16619 1.26651,-0.2869 0.008,3.22238 -0.95186,2.65441 -1.25723,6.66742 -0.67862,8.91783 0.78023,3.03447 0.47282,3.64223 -1.18975,2.35224 -1.233,-0.95667 -1.07313,-0.29993 0.35525,1.45942 2.17542,2.67953 2.26451,3.87751 0.54883,7.3793 -1.83619,3.74772 -2.15574,3.23052 -3.08705,-4.99642 z m 22.31362,-3.85653 c -0.52776,-2.0526 -0.32679,-3.73198 0.44658,-3.73198 1.57348,0 1.16089,-10.7491 -0.65517,-17.06944 -0.64952,-2.26046 -1.92673,-3.42203 -2.83824,-2.58127 -1.01801,0.939 -1.18242,0.38193 -0.42626,-1.44411 0.90551,-2.18662 0.34376,-2.55245 -2.12425,-1.38341 -1.9907,0.94298 -3.35531,0.56649 -3.35531,-0.92569 0,-1.38329 1.00758,-2.51506 2.23906,-2.51506 3.96792,0 7.23373,2.77329 7.23373,6.14278 0,1.80525 0.71046,3.28231 1.5788,3.28231 1.91255,0 2.06671,16.40946 0.19553,20.81493 -1.0748,2.53047 -1.52188,2.4157 -2.29447,-0.58906 z m -73.48047,-9.03359 c 1.71635,-4.80731 1.64793,-5.0001 -0.73385,-2.06777 -2.26738,2.7915 -2.62668,2.6919 -2.62668,-0.72811 0,-2.1791 -0.71046,-3.30667 -1.5788,-2.50573 -2.76403,2.54949 -1.70023,-0.28878 1.85018,-4.93641 1.88594,-2.46878 2.95946,-3.28341 2.38558,-1.81032 -0.57387,1.47309 0.0145,3.98865 1.30742,5.59013 3.07649,3.81061 3.02719,11.75982 -0.0729,11.75982 -2.02182,0 -2.10986,-0.87915 -0.53092,-5.30161 z m 85.81176,-1.75179 c 0.33464,-6.7792 6.39993,-16.28522 9.78036,-15.32858 1.58393,0.44824 3.41271,0.89611 4.06397,0.99527 0.65125,0.0992 1.1841,1.41732 1.1841,2.92926 0,1.51193 -0.46748,2.0513 -1.03884,1.19857 -0.57136,-0.85271 -2.12866,-0.23421 -3.46066,1.37451 -1.93179,2.33306 -2.18192,2.32891 -1.23618,-0.0212 0.75348,-1.8718 0.25453,-2.94534 -1.36892,-2.94534 -1.405,0 -2.11546,1.06032 -1.5788,2.35627 0.53667,1.29595 0.18144,2.35627 -0.7894,2.35627 -0.97083,0 -1.25822,1.22416 -0.63864,2.72034 0.69796,1.68544 0.4331,2.08073 -0.69621,1.03907 -1.15237,-1.06292 -1.82274,0.10297 -1.82274,3.17034 0,2.66838 -0.59174,4.8516 -1.31495,4.8516 -0.72323,0 -1.21061,-2.11371 -1.08309,-4.69713 z m 73.44398,2.62936 c 0,-1.13726 1.0958,-3.42503 2.43511,-5.08391 2.7775,-3.44028 6.56553,0.21677 4.75451,4.59011 -1.26371,3.05162 -7.18962,3.45865 -7.18962,0.4938 z m -159.12622,-15.69389 c -1.31739,-2.22922 -1.42379,-3.44478 -0.30153,-3.44478 0.95382,0 1.31717,-1.00711 0.80743,-2.23805 -1.13587,-2.74291 4.21246,-7.28778 8.13595,-6.9137 2.66503,0.2541 2.67097,0.34953 0.0845,1.35646 -1.53022,0.59573 -2.3814,2.05106 -1.8915,3.2341 0.4899,1.18301 -0.21186,1.51949 -1.55947,0.74771 -2.34942,-1.34552 -3.15821,1.15415 -2.56805,7.93696 0.32476,3.73245 -0.1744,3.60731 -2.70729,-0.6787 z m 54.95037,-10.91832 c 2.34475,-3.74614 14.18432,-5.78255 14.18432,-2.43971 0,1.13247 -0.88807,2.09781 -1.9735,2.14522 -1.08542,0.0474 -4.76123,0.90688 -8.16848,1.90992 -5.39049,1.5869 -5.91543,1.37712 -4.04234,-1.61543 z m -64.48747,-43.86475 c -0.34453,-8.80838 4.11904,-16.69375 7.62111,-13.4635 1.82181,1.68039 0.14184,8.81026 -2.67231,11.34146 -1.16917,1.05161 -1.76341,2.78705 -1.32054,3.85649 0.44287,1.06946 -0.11533,3.08471 -1.24046,4.4783 -1.60548,1.98857 -2.1193,0.65167 -2.3878,-6.21275 z m 178.79875,4.80196 c 0.48149,-2.26791 -0.13277,-7.02141 -1.3649,-10.5633 -1.23219,-3.54193 -1.64746,-6.98671 -0.92282,-7.6551 1.46021,-1.34687 4.78268,11.14426 4.78268,17.98093 0,2.39852 -0.75832,4.36094 -1.68519,4.36094 -0.92685,0 -1.29124,-1.85556 -0.80977,-4.12347 z"
       id="path5762"
       inkscape:connector-curvature="0" />
    <path
       style="fill:#d4aa17"
       d="m 164.6533,-139.74524 c -0.51906,-0.77467 -0.51413,-3.07938 0.0109,-5.12158 0.6976,-2.71316 0.26477,-3.31799 -1.60718,-2.24593 -1.70635,0.97724 -2.29871,0.44364 -1.77379,-1.59788 0.43985,-1.71068 2.32937,-2.62536 4.2761,-2.06996 5.92968,1.69173 11.00747,-8.51264 8.84432,-17.77361 -1.65798,-7.09819 -2.96432,-8.48738 -7.24038,-7.69954 -1.01994,0.1878 -2.31605,-0.77304 -2.88025,-2.13548 -0.56419,-1.36242 -0.44015,-2.32529 0.27565,-2.13973 4.20173,1.08935 6.03646,-0.29425 3.66965,-2.76735 -1.80522,-1.88629 -1.42991,-2.08374 1.5788,-0.83058 2.17085,0.90417 4.1937,2.60837 4.49523,3.78709 0.30152,1.17875 1.72244,0.77349 3.15759,-0.90052 2.33938,-2.72877 2.3819,-2.61115 0.41089,1.13674 -3.76209,7.15361 -0.5547,7.33975 3.70341,0.21489 2.35463,-3.93985 3.63301,-5.03436 3.06965,-2.62814 -0.53091,2.26793 -1.59979,4.1235 -2.37523,4.1235 -0.77544,0 -1.40988,1.1229 -1.40988,2.49533 0,1.37244 0.82023,1.73877 1.82273,0.81407 1.13838,-1.05002 1.39381,-0.64545 0.68031,1.0775 -0.62834,1.51732 -1.8038,2.14875 -2.61214,1.40314 -0.80833,-0.7456 -1.4697,-0.23273 -1.4697,1.1397 0,1.37243 0.79745,2.49534 1.77211,2.49534 1.30348,0 1.30711,0.83622 0.0137,3.16214 -0.96713,1.73916 -1.26989,3.89124 -0.67279,4.78238 1.28532,1.91831 6.78093,-14.11345 6.78093,-19.78141 0,-2.15964 -1.4377,-5.86846 -3.1949,-8.24179 -2.26044,-3.05306 -2.70299,-5.04934 -1.51306,-6.82524 1.18993,-1.7759 2.14365,-1.48207 3.26074,1.00464 1.39722,3.1103 1.54979,3.10804 1.32599,-0.0188 -0.53959,-7.54133 0.17186,-9.90027 2.57143,-8.52602 1.34761,0.77177 2.06606,0.47561 1.59655,-0.65815 -0.4695,-1.13377 0.55929,-2.61285 2.2862,-3.28683 3.29842,-1.28733 4.68616,6.05405 1.67025,8.83587 -2.98259,2.75108 1.85084,29.58184 6.16505,34.22261 4.75602,5.11603 3.88907,6.84899 -2.37201,4.74152 -8.89672,-2.99465 -13.2232,-10.24845 -7.45454,-12.49832 1.95767,-0.76352 2.07271,-1.14672 0.3947,-1.31484 -3.91776,-0.39249 -6.60934,3.43464 -6.86407,9.75991 -0.13229,3.2848 -0.77337,5.48139 -1.42463,4.88127 -0.65125,-0.60095 -1.1841,0.0935 -1.1841,1.54246 0,1.44892 -0.63601,2.04774 -1.41336,1.33073 -0.77735,-0.71702 -1.78681,0.14868 -2.24325,1.92399 -0.45644,1.77519 -3.14578,5.68876 -5.97631,8.6968 -2.83052,3.00804 -4.65131,4.27359 -4.04619,2.81233 0.60513,-1.46129 0.37818,-3.32289 -0.50432,-4.13688 -1.44152,-1.32965 -2.29125,1.73247 -1.79152,6.45599 0.22519,2.12847 -0.52398,2.277 -1.80932,0.35869 z m 231.59268,-1.2347 c -0.5648,-1.36393 -2.54528,-1.91007 -4.40105,-1.21365 -3.14286,1.17943 -3.18001,1.04941 -0.54203,-1.8972 2.33151,-2.60429 2.76407,-6.11756 2.44727,-19.87702 -0.21166,-9.1925 -0.92145,-15.41776 -1.57734,-13.83392 -0.86843,2.09712 -2.06975,1.47434 -4.42074,-2.29185 -3.78784,-6.06792 -4.23314,-10.50869 -0.86007,-8.57692 1.30251,0.74597 2.3682,2.87981 2.3682,4.7419 0,1.91727 1.19824,3.08532 2.7629,2.69324 2.34934,-0.58874 2.88105,1.7427 3.55229,15.57626 0.7894,16.26864 0.7894,16.26864 6.7099,19.31588 5.34927,2.75326 8.25666,1.01438 4.3417,-2.59672 -0.86834,-0.80095 -1.5788,-3.02548 -1.5788,-4.94339 0,-2.67743 0.80231,-2.37158 3.45529,1.31718 1.90042,2.64239 4.18404,4.80434 5.07472,4.80434 0.89068,0 0.57909,1.49072 -0.6924,3.31268 -2.95426,4.23328 -15.26092,6.79904 -16.63984,3.46919 z m -37.1699,-1.87404 c -0.10278,-0.75537 -0.10278,-2.16866 0,-3.14063 0.10278,-0.97196 -0.34588,-1.64163 -0.99714,-1.48817 -3.26083,0.76843 -5.01115,-0.71558 -5.92777,-5.02578 -0.5552,-2.61073 -1.59432,-4.20729 -2.30915,-3.54793 -2.10318,1.93991 -3.26311,-5.54103 -1.1703,-7.54782 1.04936,-1.00625 2.97362,-4.93806 4.27613,-8.73736 1.30251,-3.79932 3.07865,-6.76695 3.94699,-6.59473 0.86834,0.17225 3.35495,-1.36326 5.5258,-3.41218 2.33285,-2.20184 3.13993,-2.4439 1.9735,-0.59192 -3.09356,4.91179 -2.30857,8.08639 0.92096,3.72444 2.39434,-3.23389 2.89447,-3.3149 2.89447,-0.46883 0,1.8923 -0.59205,2.89444 -1.31567,2.22698 -0.72361,-0.66743 -1.31566,-0.0906 -1.31566,1.28179 0,1.37243 -1.39593,2.49534 -3.10206,2.49534 -1.70613,0 -3.83751,2.05094 -4.73639,4.55764 -2.1014,5.86009 -2.14283,17.39592 -0.0556,15.47066 0.86834,-0.80095 1.5788,-0.37067 1.5788,0.95617 0,4.31897 6.26439,7.93073 8.64375,4.98361 1.5877,-1.96655 2.42658,-1.8587 3.30981,0.42554 0.65069,1.68287 0.6017,2.2737 -0.10894,1.31301 -0.71057,-0.96073 -2.30466,-0.49239 -3.54243,1.04071 -2.39294,2.96396 -8.17596,4.38052 -8.4892,2.07946 z m -238.60636,-2.68078 c -3.36098,-2.99399 -3.61698,-6.93959 -0.45025,-6.93959 1.27196,0 3.0653,-2.09889 3.98521,-4.66419 1.51624,-4.22828 1.37735,-7.27623 -1.02222,-22.43292 -0.59468,-3.7562 -0.42212,-4.00912 0.85029,-1.24637 0.87801,1.90639 2.09148,2.72726 2.6966,1.82415 0.60513,-0.90311 0.18729,-3.28377 -0.92853,-5.29032 -1.11582,-2.00655 -1.57229,-4.32955 -1.01438,-5.16219 0.55791,-0.83265 1.02526,-0.0118 1.03855,1.82413 0.0199,2.74852 0.29448,2.71384 1.55463,-0.19627 1.20567,-2.78438 1.53557,-2.2427 1.55462,2.55262 0.0133,3.34788 -0.49149,6.85662 -1.12174,7.79725 -4.86195,7.25618 -1.19155,27.75703 4.71707,26.34692 5.31651,-1.26879 6.07598,-0.90182 5.61589,2.7135 -0.62699,4.92668 -12.90462,6.94537 -17.47574,2.87335 z m 173.55,-6.13372 c -0.57135,-0.85274 -0.32708,-2.83033 0.54282,-4.39468 2.66918,-4.79994 3.1738,-27.02817 0.80561,-35.4871 -1.62827,-5.81608 -1.70946,-8.0597 -0.3222,-8.90444 1.02,-0.62109 0.5693,-1.21299 -1.00154,-1.3153 -1.57084,-0.10231 -2.41698,-1.24635 -1.88032,-2.5423 0.54052,-1.30525 -0.65032,-2.38822 -2.66971,-2.42792 -3.34166,-0.0657 -3.40437,-0.28087 -0.75243,-2.58205 5.43124,-4.71289 18.74721,3.55863 14.97035,9.29919 -0.27314,0.41515 0.80645,1.84314 2.39909,3.17335 2.07636,1.73419 2.62497,4.02842 1.93889,8.10819 -0.76259,4.53454 -0.13941,6.24548 3.06958,8.4276 2.91781,1.98412 3.47071,3.26428 2.00812,4.64948 -1.63096,1.54468 -1.63206,1.91843 -0.006,1.9476 1.10691,0.0188 2.69119,2.69991 3.52059,5.95571 3.09394,12.14502 15.78062,12.06008 15.78062,-0.10556 0,-1.5844 0.94882,-4.05594 2.10852,-5.49235 2.53435,-3.13911 3.23069,-20.15685 1.07119,-26.17896 -2.04217,-5.69489 1.39576,-7.78769 5.47687,-3.33396 1.64919,1.79977 4.28365,3.2723 5.85436,3.2723 1.99369,0 2.85584,1.77832 2.85584,5.89067 0,6.52074 1.39925,7.39035 4.7392,2.94534 1.89048,-2.51596 1.89964,-2.32859 0.0628,1.28537 -1.18266,2.32689 -3.19222,3.634 -4.46566,2.90469 -2.40904,-1.38007 -6.65098,2.51817 -6.65098,6.11252 0,1.13728 1.34492,2.06777 2.98869,2.06777 1.64378,0 3.43619,1.74046 3.98313,3.86767 0.86915,3.38031 0.65424,3.45455 -1.70548,0.58907 -2.41166,-2.92856 -2.57411,-2.77545 -1.52141,1.43393 0.8933,3.57194 0.73462,4.05529 -0.65558,1.99701 -1.38562,-2.05151 -2.55849,-1.78987 -4.79645,1.06994 -1.99017,2.54319 -2.38521,4.31784 -1.20373,5.40761 3.27091,3.01702 -5.56318,7.76773 -14.68098,7.89499 -6.34068,0.0886 -9.7855,-1.05874 -11.9513,-3.98018 -2.77485,-3.74303 -3.31125,-3.77953 -6.09015,-0.41435 -1.67603,2.02962 -1.98162,3.00064 -0.67911,2.15782 1.30251,-0.84281 0.69096,0.66904 -1.359,3.35967 -3.62481,4.75766 -9.68391,6.47587 -11.78396,3.34166 z m -65.40228,-3.38893 c -3.54071,-1.56242 -5.1311,-3.70399 -5.1311,-6.90939 0,-5.8612 -1.75864,-5.84871 -8.25053,0.0587 -6.61302,6.01747 -9.09799,6.0633 -4.80091,0.0886 1.83258,-2.54807 3.80688,-6.86603 4.38734,-9.59549 0.68042,-3.19948 1.90855,-4.47406 3.45672,-3.58739 1.71153,0.98018 2.1254,0.30198 1.4407,-2.36094 -0.52834,-2.0549 0.10294,-5.32364 1.40302,-7.26384 1.30001,-1.9402 2.36366,-5.63511 2.36366,-8.21094 0,-2.57581 0.6481,-4.08549 1.44022,-3.35486 0.7921,0.73063 1.25939,-0.51011 1.0384,-2.75719 -0.44181,-4.49277 2.5063,-9.75779 7.62593,-13.61908 3.79856,-2.86491 13.98227,-1.01319 10.81454,1.96643 -1.08543,1.02097 -1.9735,1.18782 -1.9735,0.37081 0,-0.81704 -1.06569,0.10509 -2.3682,2.04889 -1.30251,1.94392 -2.3682,4.73304 -2.3682,6.19805 0,1.46499 -0.53461,2.1705 -1.18804,1.56779 -1.64067,-1.51331 -2.39411,20.72545 -1.0919,32.22888 0.86883,7.67491 1.35257,8.67866 2.59095,5.37607 0.96556,-2.57501 2.19812,-3.31346 3.36873,-2.01834 1.68295,1.86197 3.80135,2.05472 6.97716,0.63483 0.65125,-0.29117 -0.59205,-1.37835 -2.7629,-2.41593 -3.947,-1.88653 -3.947,-1.88653 0.0439,-2.1214 4.02221,-0.23671 7.97401,-5.31518 9.868,-12.68135 0.62792,-2.44214 0.31017,-3.77326 -0.81879,-3.43007 -1.0147,0.30843 -1.87722,-0.80328 -1.91669,-2.47048 -0.0788,-3.32899 -4.06842,-7.80425 -5.65374,-6.342 -0.54799,0.50547 -0.99635,-0.52372 -0.99635,-2.28709 0,-1.76336 0.90413,-2.68831 2.00918,-2.05544 1.10505,0.63287 3.29563,0.0339 4.86796,-1.33113 2.79138,-2.42328 0.20027,-4.04484 -4.6405,-2.90413 -0.65132,0.15328 -1.18416,-0.78148 -1.18416,-2.07743 0,-2.38407 2.18644,-3.27531 6.07892,-2.47785 1.30629,0.26763 1.67039,-0.67778 0.94016,-2.44117 -0.69124,-1.66925 -0.535,-2.27212 0.37205,-1.43548 1.83151,1.68937 1.72207,8.57286 -0.21052,13.23974 -0.87118,2.10377 -0.76288,2.7234 0.30401,1.7393 0.91151,-0.84076 2.18872,0.32081 2.83824,2.58127 1.887,6.56721 2.20228,17.06944 0.51245,17.06944 -0.85187,0 -1.15579,0.94922 -0.67536,2.10938 0.84554,2.0418 -3.47543,6.06303 -5.76144,5.36176 -0.62001,-0.19015 -0.68442,1.49703 -0.14319,3.74942 0.54127,2.25236 0.40344,3.30914 -0.30626,2.34844 -1.42916,-1.93464 -5.85925,2.57475 -4.87189,4.95908 0.34169,0.82512 -0.90943,1.64284 -2.78028,1.81718 -1.87084,0.17436 -4.82245,0.89783 -6.55913,1.60778 -1.73668,0.70997 -5.46659,0.27191 -8.2887,-0.9734 z m 52.17512,-3.37067 c -1.02215,-1.63306 -1.38996,-3.66838 -0.81738,-4.52295 0.5726,-0.85455 -0.30392,-0.78346 -1.94779,0.1581 -2.46388,1.41105 -2.78741,0.92821 -1.84194,-2.74899 0.63082,-2.45339 0.63996,-3.70408 0.0204,-2.77931 -1.71755,2.56336 -4.80468,-8.19172 -4.06679,-14.16802 0.35816,-2.90078 1.39018,-4.59251 2.2934,-3.75941 0.95303,0.87906 1.16945,0.37312 0.51568,-1.20558 -0.61963,-1.49628 -0.33224,-2.72043 0.63859,-2.72043 0.97084,0 1.35106,-0.99998 0.84495,-2.22216 -0.51869,-1.25252 1.39253,-2.02693 4.38007,-1.77476 2.99727,0.25299 5.30032,1.71418 5.30032,3.36287 0,1.8307 -0.63806,2.12519 -1.71485,0.79147 -1.99461,-2.47057 -7.23169,2.39677 -7.23169,6.72114 0,1.63259 -0.83284,2.07788 -1.97349,1.05514 -1.57418,-1.41145 -1.57696,-1.03815 -0.0142,1.84494 1.07789,1.98793 1.58857,4.1685 1.13484,4.84567 -0.45375,0.67716 1.02906,3.04427 3.29511,5.2602 2.72196,2.66176 3.80887,5.36874 3.20299,7.97706 -0.70058,3.016 -0.35708,2.86827 1.45499,-0.62575 1.30464,-2.5156 2.34947,-3.57593 2.32186,-2.35627 -0.12252,5.41292 -3.90242,9.8916 -5.79554,6.86704 z m -144.23617,-13.69763 c 0.81027,-3.18069 0.98574,-6.59224 0.38992,-7.58123 -0.59581,-0.989 -0.276,-1.10997 0.7107,-0.26878 1.47238,1.25521 3.40159,-4.06278 3.69989,-10.19895 0.12731,-2.61907 15.44487,-9.05376 21.34569,-8.967 6.05646,0.0891 5.98235,0.17578 -1.80876,2.11887 -9.45734,2.35858 -19.34212,10.93345 -19.4382,16.86227 -0.0368,2.26791 -0.77728,4.12348 -1.64562,4.12348 -0.86834,0 -1.5788,1.5279 -1.5788,3.39534 0,1.86743 -0.70831,4.04868 -1.57403,4.8472 -1.0325,0.95235 -1.06717,-0.53775 -0.10079,-4.3312 z m 100.32557,0.74281 c -0.54996,-1.32804 -0.14777,-2.12328 0.89357,-1.7672 1.04142,0.3561 2.25209,-0.82555 2.69037,-2.62588 0.4533,-1.86204 0.0914,-2.62255 -0.83951,-1.76395 -0.99434,0.91718 -1.32716,-0.25539 -0.84826,-2.98857 0.43348,-2.47388 2.18397,-5.04271 3.88999,-5.70854 2.42518,-0.94651 2.72567,-0.5341 1.37744,1.89039 -0.94843,1.70556 -1.5867,4.00787 -1.41838,5.11624 0.97292,6.40644 -3.69924,12.78823 -5.74522,7.84751 z m 25.54809,-8.58128 c -0.57889,-0.86395 -1.05253,-3.95655 -1.05253,-6.87244 0,-2.91588 -0.88808,-5.77498 -1.9735,-6.35351 -1.08543,-0.57856 -1.5977,-1.66959 -1.13838,-2.42451 1.8402,-3.02456 5.19769,3.06819 5.47114,9.92838 0.31413,7.88069 0.26977,8.07494 -1.30673,5.72208 z m 82.15236,-75.00793 c -1.44929,-4.53582 -2.05014,-8.24694 -1.33524,-8.24694 1.10041,0 2.50776,3.32715 6.22929,14.72669 0.31731,0.97196 -0.0611,1.7672 -0.84102,1.7672 -0.77988,0 -2.60374,-3.71113 -4.05303,-8.24695 z"
       id="path5760"
       inkscape:connector-curvature="0" />
    <path
       style="fill:#378dcc"
       d="m 428.94519,-233.06951 c -0.11825,-3.50496 -2.0294,-9.08053 -4.247,-12.39017 -2.2176,-3.30964 -3.63231,-6.98266 -3.14381,-8.16231 0.48849,-1.17964 -1.2494,-2.84548 -3.862,-3.70186 -2.6126,-0.85641 -4.75018,-2.30071 -4.75018,-3.20957 0,-1.51605 -8.12488,-7.48263 -11.84099,-8.69555 -0.86834,-0.28341 -2.28926,-0.76317 -3.1576,-1.06613 -0.86834,-0.30295 -2.11164,-0.42526 -2.7629,-0.2718 -1.83184,0.43168 -1.39756,-3.95848 0.57121,-5.77445 0.96544,-0.89049 2.37547,-0.15783 3.13343,1.62814 0.82023,1.9327 1.38789,2.15926 1.40229,0.55966 0.0283,-3.13415 10.88318,-5.57444 12.06812,-2.71301 0.44037,1.06342 3.61941,4.07965 7.06452,6.70271 3.80914,2.90024 5.83114,5.81412 5.15967,7.43556 -0.71145,1.71806 -0.22436,2.16249 1.3696,1.24963 1.36054,-0.77919 3.78608,0.15943 5.39008,2.08584 2.721,3.26793 2.6784,3.33044 -0.63594,0.93339 -2.39259,-1.73043 -3.5523,-1.77286 -3.5523,-0.13007 0,1.34154 0.78646,2.43916 1.74772,2.43916 0.96123,0 1.33245,1.61502 0.82492,3.58893 -0.77391,3.00995 -0.35544,3.15347 2.594,0.88971 2.9011,-2.22668 3.17127,-2.15373 1.54326,0.41673 -1.08543,1.71378 -1.9735,4.55695 -1.9735,6.31817 0,1.78662 0.87241,2.54268 1.9735,1.71028 1.08542,-0.82057 0.79923,-0.0464 -0.63598,1.72047 -1.43522,1.76683 -2.93699,5.82166 -3.33729,9.01076 -0.7125,5.67625 -0.73234,5.66417 -0.94283,-0.57432 z M 97.880235,-246.94637 c -0.486281,-1.17429 -0.377218,-3.35921 0.242366,-4.8554 0.697954,-1.68544 0.43309,-2.08073 -0.696225,-1.03907 -1.002504,0.9247 -1.822736,0.55837 -1.822736,-0.81406 0,-1.37244 0.752389,-2.49534 1.671975,-2.49534 0.919586,0 1.258489,-0.99849 0.753119,-2.21888 -0.505371,-1.22038 4.248306,-6.75212 10.563716,-12.29275 6.31541,-5.54063 11.8378,-10.64993 12.27197,-11.35401 0.43417,-0.70408 4.43812,-0.20886 8.89766,1.10046 8.63523,2.53533 8.53285,8.27129 -0.14763,8.27129 -2.2075,0 -4.01363,0.89948 -4.01363,1.99884 0,2.27527 -12.39456,10.69933 -15.39329,10.4622 -1.08542,-0.0858 -2.06231,0.78643 -2.17085,1.93838 -0.42767,4.53882 -0.6821,5.72661 -1.77572,8.28979 -1.53454,3.59661 -7.282694,5.66011 -8.380725,3.00855 z m 277.960195,-32.56956 c 6.31519,-1.88455 6.31519,-1.88455 0.48788,-2.21892 -6.67843,-0.3832 -8.62345,-3.1929 -5.17076,-7.46947 1.96251,-2.4308 2.22755,-2.33653 1.49049,0.53012 -0.97916,3.80815 20.16282,4.72054 24.15066,1.04223 1.14831,-1.05917 1.94413,-0.53083 1.95848,1.30022 0.017,2.18118 0.36385,2.29826 1.1841,0.39982 0.84897,-1.96488 1.67015,-1.86375 3.06309,0.37725 2.80517,4.51297 -0.76234,5.86699 -18.37464,6.97396 -10.19669,0.64088 -13.05253,0.33701 -8.7893,-0.93521 z m -236.03042,-1.74243 c -13.55422,-3.1032 -14.71057,-3.60468 -12.66433,-5.49209 1.16368,-1.07336 3.18484,-1.33932 4.49146,-0.59102 1.54691,0.88593 1.97742,0.39889 1.23409,-1.39613 -0.62786,-1.51619 -0.38918,-2.7567 0.53041,-2.7567 0.91958,0 1.67197,0.99863 1.67197,2.21918 0,1.3084 4.53571,1.65166 11.05159,0.83639 8.07683,-1.01058 11.05159,-0.61913 11.05159,1.45429 0,1.56039 -0.66136,2.22704 -1.4697,1.48144 -0.80834,-0.74559 -1.91596,-0.27801 -2.46138,1.03908 -0.57526,1.38917 0.74392,2.39471 3.14168,2.39471 2.27335,0 3.75895,-0.90412 3.30135,-2.00914 -0.4576,-1.10503 0.25012,-4.02092 1.57272,-6.47975 2.26783,-4.21611 2.30395,-4.16107 0.63452,0.96698 -1.71763,5.2761 -1.59128,5.40038 4.2546,4.18477 6.0248,-1.25282 6.0248,-1.25282 -0.29039,2.03921 -6.01184,3.13389 -17.50792,4.06451 -26.05018,2.10878 z m 210.20089,-8.01181 c -2.91782,-2.65488 -7.53581,-8.12983 -10.26219,-12.16654 -5.33552,-7.89983 -1.87816,-4.85618 6.54418,5.76112 2.85231,3.59566 6.18507,6.53756 7.40612,6.53756 1.22104,0 2.65917,1.06033 3.19583,2.35627 1.53906,3.71656 -1.12135,2.75487 -6.88394,-2.48841 z m 26.61893,-96.73285 c -3.93432,-1.05232 -4.42692,-1.56733 -1.71036,-1.78818 7.16852,-0.58277 2.31957,-2.5628 -9.43861,-3.85418 -25.31519,-2.78031 -36.79975,-8.73224 -13.71711,-7.10895 8.03214,0.56485 14.60389,1.16057 14.60389,1.3238 0,0.53138 7.82324,2.36412 10.55158,2.47191 2.9255,0.11557 6.63895,5.61871 5.78036,8.56619 -0.29918,1.02707 -3.03056,1.2023 -6.06975,0.38941 z m -225.82564,-2.15131 c -2.88864,-2.66443 -0.64567,-9.15829 3.02088,-8.74609 1.72313,0.19371 2.72807,1.32999 2.23319,2.52504 -0.49488,1.19506 0.0872,1.63765 1.29347,0.98354 1.20629,-0.6541 2.01565,-2.38214 1.79856,-3.84008 -0.48231,-3.2392 -0.66882,-3.1851 13.41979,-3.89271 6.29546,-0.31619 11.44629,0.36404 11.44629,1.51164 0,2.11291 -5.47123,3.24269 -12.56923,2.59548 -2.13721,-0.19489 -4.26858,0.44584 -4.73639,1.42381 -1.66729,3.48556 -13.96006,9.23478 -15.90656,7.43937 z"
       id="path5758"
       inkscape:connector-curvature="0" />
    <path
       style="fill:#b7582b"
       d="m 401.89061,-146.52088 c -5.5258,-2.84444 -5.5258,-2.84444 -5.77037,-22.65985 -0.24459,-19.81538 -0.24459,-19.81538 2.66271,-11.56865 1.71459,4.8636 2.65418,11.3883 2.29032,15.90461 -0.71725,8.90279 0.30688,9.931 2.34694,2.35627 1.26003,-4.67849 1.43962,-4.31845 1.52792,3.06315 0.0551,4.60062 0.94079,9.61948 1.96832,11.15301 2.8587,4.26645 1.07053,4.88961 -5.02584,1.75146 z m -40.35231,-2.59395 c -2.98796,-3.61645 -2.97576,-3.68094 0.48764,-2.57686 1.95376,0.62283 3.5523,0.10886 3.5523,-1.14232 0,-1.25111 0.70233,-1.62691 1.56072,-0.83516 0.89496,0.8255 1.15963,-0.1204 0.62048,-2.2172 -0.51713,-2.01124 -0.15377,-3.65679 0.80748,-3.65679 2.33342,0 2.23267,7.7588 -0.14683,11.3101 -2.45723,3.66727 -3.20218,3.57182 -6.88178,-0.88177 z m -235.93748,-3.1668 c 0,-4.9492 2.02562,-9.48378 3.59133,-8.03959 1.11423,1.02773 1.25626,0.0294 0.42094,-2.95889 -2.01099,-7.19391 -2.90128,-17.63282 -0.98751,-11.57881 1.4897,4.71254 1.4897,4.71254 1.62484,0 0.11447,-3.99133 0.39403,-4.17163 1.82672,-1.17813 1.35902,2.83954 1.53852,2.49211 0.91303,-1.76721 -0.4282,-2.91588 -0.1346,-5.3016 0.65245,-5.3016 0.78704,0 1.43099,-1.59049 1.43099,-3.53441 0,-1.94392 0.75239,-3.5344 1.67198,-3.5344 0.91958,0 1.24867,1.02219 0.73129,2.27156 -0.51737,1.24936 -0.97765,9.46252 -1.02285,18.25143 -0.0485,9.43302 -0.83323,16.69305 -1.9154,17.72064 -2.60645,2.47505 -8.93781,2.22667 -8.93781,-0.35059 z m 36.36977,-1.26765 c -1.04942,-1.88714 -1.528,-4.3489 -1.06352,-5.47055 0.46449,-1.12163 -0.19008,-5.01556 -1.45458,-8.65317 -1.8805,-5.40962 -1.89936,-6.11867 -0.10357,-3.89437 1.68658,2.08902 2.39028,1.96197 3.03568,-0.54817 2.17176,-8.44656 12.15898,-4.51847 12.15898,4.78224 0,3.00715 -0.42632,3.12656 -2.40635,0.67406 -1.32349,-1.6393 -2.90145,-2.24164 -3.50658,-1.33852 -0.60512,0.90311 -0.0551,2.62846 1.22226,3.83409 1.27736,1.20564 1.70264,2.20832 0.94506,2.22816 -0.75758,0.0188 -0.59687,1.43973 0.35713,3.15529 1.26665,2.2778 1.23362,3.86682 -0.12245,5.89067 -2.53862,3.78877 -6.7592,3.48151 -9.06207,-0.65973 z m 7.4088,-6.14061 c -1.33152,-3.18204 -2.16354,-3.59901 -3.04607,-1.52648 -1.91351,4.49364 -1.58729,-2.4435 0.37182,-7.90677 1.29815,-3.62011 1.11659,-4.55764 -0.88258,-4.55764 -1.44465,0 -2.05475,1.11607 -1.43208,2.6197 0.59666,1.44086 0.25583,3.38438 -0.75741,4.31897 -3.24259,2.99091 0.6485,14.13458 4.42131,12.66213 2.6411,-1.03078 2.85759,-1.94737 1.32501,-5.60991 z m 194.64422,0.87486 c -0.0295,-6.31584 -3.05128,-9.56831 -4.85124,-5.22173 -2.08861,5.04362 -3.51493,0.72057 -1.5605,-4.72967 1.94188,-5.41522 7.81787,-6.54975 10.80821,-2.08683 3.01173,4.49485 2.20528,7.06231 -1.64537,5.23832 -2.94512,-1.39505 -3.22556,-1.11152 -1.6691,1.68744 1.21064,2.17708 1.35407,4.58359 0.40649,6.81964 -1.16019,2.73775 -1.46932,2.3832 -1.48849,-1.70717 z m -162.42045,-4.58657 c -5.47228,-8.70173 -8.49653,-27.76761 -5.83523,-36.78722 0.66917,-2.26791 0.75553,-5.91693 0.19193,-8.10889 -0.57411,-2.23288 0.72293,-1.17107 2.94956,2.41465 3.95767,6.37331 3.96125,6.41954 0.85582,11.05423 -3.71285,5.54122 -4.01927,9.3667 -0.75028,9.3667 1.30251,0 2.3682,-0.83478 2.3682,-1.85507 0,-1.02029 2.11287,-2.09536 4.69527,-2.38902 3.62457,-0.41219 4.48611,0.2795 3.77808,3.0332 -0.50446,1.96195 -2.26209,3.56716 -3.90587,3.56716 -1.64377,0 -2.98868,1.12698 -2.98868,2.50438 0,1.37741 1.2433,2.32623 2.7629,2.10849 3.03278,-0.43459 9.86749,2.38021 9.86749,4.06379 0,12.10976 -8.89772,19.12379 -13.98919,11.0276 z m 118.47741,2.48 c -2.36597,-2.47326 -3.26282,-5.19178 -2.65527,-8.04864 0.50458,-2.37267 0.0684,-5.09718 -0.96954,-6.05444 -1.18528,-1.09329 -1.47221,-0.73895 -0.77162,0.95285 0.734,1.77248 0.23235,2.18766 -1.46724,1.21428 -1.70653,-0.97733 -1.98692,-2.02846 -0.8266,-3.09873 1.07763,-0.99397 0.20054,-2.67738 -2.27044,-4.35766 -3.34322,-2.2734 -3.84752,-3.8017 -2.97213,-9.00706 0.80708,-4.79927 0.57293,-5.82512 -0.99874,-4.37545 -1.35413,1.24904 -1.66951,0.96763 -0.92647,-0.8267 0.61959,-1.49618 0.3322,-2.72033 -0.63864,-2.72033 -0.97083,0 -1.43099,-0.80693 -1.02257,-1.7932 1.162,-2.80603 -2.57044,-9.12899 -6.48278,-10.9822 -1.95044,-0.92389 -3.54624,-2.58991 -3.54624,-3.70231 0,-8.42501 12.49174,6.93611 15.82479,19.4598 2.0089,7.54829 4.17146,14.20277 4.80567,14.78779 2.65831,2.45196 14.10311,3.35111 14.10311,1.10799 0,-1.3112 -2.66422,-2.45851 -5.92049,-2.54961 -4.74934,-0.13289 -5.29588,-0.56618 -2.7629,-2.19064 1.73668,-1.11379 2.26952,-2.09958 1.1841,-2.19065 -1.08542,-0.0912 -1.9735,-1.28853 -1.9735,-2.66096 0,-1.37243 0.81285,-1.74557 1.80632,-0.8292 0.99348,0.91636 3.79434,1.58174 6.22413,1.47866 3.21361,-0.13643 4.18142,0.73193 3.55056,3.18546 -0.47698,1.85514 -0.0808,3.37296 0.88047,3.37296 2.51973,0 2.14906,-6.13321 -0.62049,-10.2666 -3.82202,-5.70418 1.65673,-18.21421 7.78402,-17.77377 2.80249,0.20146 2.70579,0.48266 -0.67942,1.9758 -2.38732,1.05297 -3.67278,3.05512 -3.25305,5.06674 1.81479,8.69758 1.3364,25.55179 -0.80038,28.19847 -1.24396,1.54079 -2.26177,4.09777 -2.26177,5.68217 0,8.38099 -7.13094,12.39349 -12.34289,6.94518 z m -39.03739,-8.16097 c -2.20991,-3.64444 -2.21045,-4.39357 -0.006,-7.68427 3.33807,-4.98186 3.06538,-6.95137 -0.71452,-5.16089 -2.24082,1.06143 -3.15759,0.42342 -3.15759,-2.19748 0,-2.03127 0.75239,-3.69319 1.67198,-3.69319 0.91958,0 1.1609,1.3254 0.53627,2.94533 -0.65983,1.71122 -0.5335,2.1226 0.30151,0.98179 0.79048,-1.07997 1.43723,-2.93553 1.43723,-4.12347 0,-1.18796 0.71046,-1.92618 1.5788,-1.64048 0.86834,0.28567 1.35366,1.98256 1.07851,3.77085 -0.27517,1.78829 0.20859,2.59758 1.075,1.7984 0.86642,-0.79915 1.97554,-0.48652 2.46473,0.69477 0.48918,1.18129 -0.3498,2.8604 -1.8644,3.7313 -2.60892,1.50016 -2.60669,1.70679 0.0423,3.92613 1.53786,1.28846 2.41435,3.26452 1.94775,4.39127 -0.4666,1.12674 -0.12631,2.71466 0.75619,3.52865 2.14695,1.98031 2.09949,-14.07273 -0.0614,-20.74851 -1.63628,-5.05522 -1.621,-5.06294 0.8595,-0.43417 6.66839,12.44363 -0.9298,31.48514 -7.94632,19.91397 z m -36.16253,-6.67866 c 0.60878,-3.39157 1.30208,-8.8173 1.54067,-12.05717 0.23859,-3.23988 0.50427,-6.19306 0.59041,-6.56264 0.086,-0.36958 1.63618,0.5098 3.44457,1.95422 2.79935,2.23593 2.94945,3.03612 1.01001,5.38452 -3.3278,4.02953 -4.93752,11.8757 -2.10344,10.25261 1.4443,-0.82715 2.09338,0.11852 1.84169,2.68299 -0.2205,2.24656 -1.91237,4.07969 -3.90974,4.23615 -3.05119,0.23904 -3.37334,-0.54703 -2.41417,-5.89068 z m -29.683,-1.62354 c -4.13704,-3.34963 -5.69853,-6.04084 -3.1576,-5.44206 4.0102,0.945 6.70931,-0.8271 6.70551,-4.40251 -0.0126,-12.04056 13.03748,-33.76125 16.85836,-28.05879 0.53062,0.79189 -0.38023,2.1647 -2.02411,3.05068 -4.44223,2.39414 -8.06278,8.73208 -7.61123,13.32382 0.21899,2.22688 -0.24992,3.45108 -1.04202,2.72045 -0.79212,-0.73063 -1.44022,0.77906 -1.44022,3.35486 0,2.57583 -1.06365,6.27074 -2.36366,8.21094 -1.30002,1.9402 -1.93446,5.1969 -1.40989,7.23712 1.14814,4.46537 0.9934,4.46556 -4.51514,0.005 z m 168.53677,-13.38319 c -1.73668,-1.54345 -6.70989,-3.55877 -11.05159,-4.47849 -7.89399,-1.6722 -7.89399,-1.6722 1.26426,-1.04178 5.97896,0.41157 10.06999,1.99114 11.78459,4.55012 3.06824,4.57918 2.41864,4.89471 -1.99726,0.97015 z m -38.68057,-48.98068 c -4.77586,-3.72647 -9.74908,-6.84422 -11.05159,-6.92833 -4.71963,-0.30486 -9.50494,-8.72282 -17.44026,-30.6797 -4.44945,-12.31152 -9.80543,-25.09339 -11.9022,-28.40418 -3.54286,-5.59414 -5.19061,-14.00869 -2.7432,-14.00869 0.58802,0 3.1388,3.44605 5.66839,7.65788 4.0899,6.80976 4.03417,6.52983 -0.50327,-2.52754 -4.7312,-9.44418 -4.91393,-10.46692 -2.51079,-14.05347 2.40313,-3.58655 2.59175,-3.57458 2.59175,0.16449 0,2.21789 2.54509,8.23691 5.65575,13.37559 3.34565,5.52688 5.18061,10.49046 4.49245,12.15221 -0.70771,1.70899 -0.49174,2.18973 0.55143,1.22752 0.9431,-0.86989 2.69968,0.51713 3.90355,3.08226 1.20385,2.56514 5.86819,10.56388 10.36519,17.77499 4.49701,7.21111 10.03314,18.6492 12.30254,25.41799 2.2694,6.76877 5.59256,14.6926 7.38482,17.60848 4.00193,6.5109 3.94183,6.49435 -6.76456,-1.8595 z M 184.93968,-253.2435 c 2.67866,-8.36059 7.68832,-19.59202 11.13256,-24.95873 6.30972,-9.83161 25.71454,-44.80763 28.04632,-50.5518 0.75962,-1.87125 0.10294,-5.13014 -1.66166,-8.24694 -2.91755,-5.15314 -2.91755,-5.15314 0.60991,-0.69801 9.07978,11.46761 9.96617,18.36311 3.72789,29.001 -3.12211,5.32402 -8.14628,16.93954 -11.16482,25.81228 -8.83018,25.95539 -11.37915,30.86633 -16.85418,32.47175 -2.73661,0.80245 -8.06505,3.91433 -11.84099,6.91528 l -6.86533,5.45625 4.8703,-15.20108 z m 177.59901,-119.32983 c -2.37501,-4.27094 3.33958,-10.8734 7.87808,-9.1021 3.92685,1.53258 3.92772,6.84917 0.002,9.98504 -4.07677,3.25626 -5.67773,3.07687 -7.87973,-0.88294 z m -201.0202,-0.79705 c -2.91632,-0.99106 -3.87925,-5.30592 -1.1841,-5.30592 0.86834,0 1.5788,-1.06032 1.5788,-2.35627 0,-1.29595 -1.95376,-2.38851 -4.3417,-2.42792 -3.7926,-0.0626 -3.98182,-0.38412 -1.49613,-2.54239 2.04152,-1.77262 3.49136,-1.67085 5.13109,0.36016 1.68782,2.09057 2.83964,2.14459 4.4043,0.20657 2.50144,-3.09833 4.19643,-1.19452 4.19643,4.71339 0,4.90925 -4.28725,8.7122 -8.28869,7.35238 z"
       id="path5756"
       inkscape:connector-curvature="0" />
    <path
       style="fill:#184fa4"
       d="m 365.50898,-229.205 c -1.69859,-2.67542 -3.08834,-6.18405 -3.08834,-7.79694 0,-1.61289 -0.71046,-2.27722 -1.5788,-1.47627 -2.17724,2.00824 -1.99082,-1.97699 0.24885,-5.31957 1.26031,-1.88094 1.32711,-3.67293 0.21521,-5.77286 -0.88686,-1.67486 -1.59088,-6.40849 -1.56453,-10.51917 0.0695,-10.83146 -11.00254,-29.2577 -16.39788,-27.28969 -0.50654,0.18476 -0.92097,-1.13673 -0.92097,-2.93666 0,-1.79993 0.41443,-3.06643 0.92097,-2.81443 0.50653,0.25199 0.92096,-0.60216 0.92096,-1.89811 0,-1.29595 -0.71046,-1.99064 -1.5788,-1.54376 -4.34046,2.23379 -7.14087,2.18428 -8.10473,-0.14328 -0.6394,-1.54402 -0.33653,-1.90216 0.7562,-0.89424 1.11392,1.02745 1.82274,0.0695 1.82274,-2.46346 0,-3.22367 0.42102,-3.51638 1.89456,-1.3172 2.62649,3.91989 4.5044,3.53875 3.41625,-0.69334 -0.49791,-1.93648 -1.4922,-2.97951 -2.20956,-2.31784 -0.71734,0.66167 -1.77184,0.0739 -2.34332,-1.30608 -0.72102,-1.74115 -1.64452,-1.75917 -3.01726,-0.0589 -2.79439,3.4612 -4.42756,0.12637 -2.06866,-4.22412 1.10359,-2.03536 1.19786,-2.93386 0.21579,-2.05662 -0.9592,0.8568 -3.39204,-1.06031 -5.4063,-4.26024 -2.01426,-3.19991 -3.26638,-5.81804 -2.78244,-5.81804 0.48391,0 -1.71971,-3.99775 -4.89693,-8.8839 -5.1757,-7.9595 -12.79931,-12.62328 -12.79931,-7.83004 0,1.01383 -1.77528,4.92414 -3.94507,8.68957 -5.42322,9.4114 -5.0424,18.14785 1.30821,30.01238 6.44396,12.03896 13.68845,32.80194 13.68845,39.23165 0,5.29919 -2.16256,5.68904 -14.60389,2.63272 -4.97978,-1.2233 -7.49929,-1.00874 -7.49929,0.63869 0,1.36452 -1.26085,-1.21001 -2.80188,-5.72115 -1.80648,-5.28818 -2.66683,-12.37121 -2.42172,-19.93744 0.2091,-6.45445 0.40361,-14.27636 0.43223,-17.38201 0.0286,-3.10565 0.72096,-6.84949 1.53849,-8.31964 0.81752,-1.47014 1.65398,-8.15393 1.85878,-14.85286 0.20482,-6.69892 0.9575,-11.64016 1.67265,-10.98053 0.71513,0.65963 1.30025,-1.45147 1.30025,-4.69135 0,-3.23987 0.76802,-6.59908 1.70673,-7.46492 0.93869,-0.86584 1.31807,-3.88523 0.84308,-6.70976 -0.475,-2.82453 0.13167,-7.99867 1.34813,-11.49808 1.96933,-5.66516 1.90959,-6.6883 -0.54502,-9.33413 -3.18116,-3.42899 -5.78773,-9.18851 -3.86497,-8.54011 0.71579,0.24138 3.43283,-0.96389 6.03784,-2.67839 2.60502,-1.71449 5.44686,-2.85767 6.3152,-2.54041 0.86834,0.31727 1.05211,-0.20918 0.4084,-1.1699 -1.50977,-2.25325 1.87615,-8.42631 3.6994,-6.74458 0.76,0.70101 0.99455,-0.23162 0.52122,-2.07255 -1.04523,-4.06512 5.40923,-7.17713 8.06447,-3.88828 0.99343,1.23047 2.2737,1.71625 2.84506,1.07952 0.57135,-0.63673 0.71744,-0.5013 0.32462,0.30096 -0.39282,0.80225 0.32417,3.00838 1.59331,4.9025 1.26913,1.89412 1.90384,4.4187 1.41043,5.61016 -0.49339,1.19147 -0.14469,2.16631 0.77489,2.16631 0.91959,0 1.67198,1.1229 1.67198,2.49533 0,1.37243 -0.81407,1.74445 -1.80905,0.82669 -1.29026,-1.1901 -1.48074,0.28366 -0.66423,5.13895 0.62966,3.74417 1.78802,7.40085 2.57412,8.12594 0.78612,0.7251 0.32596,3.66934 -1.02259,6.54277 -2.74095,5.84032 -6.06849,4.54012 -4.9351,-1.92834 1.00981,-5.76312 -0.99401,-9.86948 -3.98129,-8.15866 -4.85438,2.78013 -4.39669,10.04568 0.80326,12.75105 4.82936,2.51257 4.82936,2.51257 1.60727,7.79865 -3.95628,6.49061 -1.3627,18.24557 4.02568,18.24557 0.858,0 1.85818,1.3254 2.22262,2.94534 0.52574,2.33692 1.46096,2.31087 4.52733,-0.12609 2.9324,-2.33048 5.56558,-2.48648 10.91525,-0.64667 8.95235,3.07883 22.73689,3.19109 18.10211,0.14744 -1.73668,-1.14048 -8.30843,-3.28517 -14.60389,-4.76597 -10.53502,-2.47801 -14.12045,-5.25606 -9.6524,-7.47883 1.30006,-0.64676 1.32818,-2.16026 0.10215,-5.49796 -3.59336,-9.78222 -4.93986,-20.06102 -3.41305,-26.05441 0.94267,-3.70038 0.9611,-7.5084 0.0486,-10.05295 -2.85403,-7.95889 0.25656,-10.43787 9.55118,-7.61178 4.67205,1.42056 12.40214,3.00653 17.17801,3.52438 18.30251,1.98455 17.12387,1.63185 12.63039,3.77957 -3.73965,1.78742 -3.67745,1.89886 1.1841,2.1214 2.8221,0.12917 5.1311,1.40864 5.1311,2.84324 0,1.4346 -0.94728,2.06585 -2.10506,1.40278 -1.1578,-0.66307 -2.10508,0.28381 -2.10508,2.10418 0,1.82036 0.67904,3.30975 1.50899,3.30975 0.82994,0 0.62454,1.59049 -0.45645,3.53441 -1.08099,1.94392 -1.3456,3.55064 -0.58801,3.57049 0.75757,0.0198 0.33734,1.01785 -0.93384,2.21779 -1.60281,1.51299 -2.32871,6.56458 -2.3682,16.48076 -0.0447,11.22202 -0.52967,14.02896 -2.25375,13.04401 -1.79047,-1.02287 -1.8304,-0.59607 -0.21582,2.30739 1.08956,1.95932 2.56187,3.02662 3.27182,2.37178 0.70995,-0.65485 1.7563,-0.0666 2.32522,1.30729 1.65367,3.9933 -2.25214,9.10676 -8.23563,10.78204 -3.24706,0.90913 -4.75828,2.25211 -3.66695,3.25873 1.02101,0.94176 4.73608,0.23157 8.25572,-1.57819 7.82986,-4.02603 11.63194,-2.85462 4.68121,1.44226 -7.8861,4.8751 -4.65924,11.32632 4.03617,8.0692 4.93062,-1.84691 3.59058,3.0624 -1.7066,6.25219 -2.94006,1.7704 -3.00105,2.06164 -0.45893,2.19115 2.04545,0.10419 2.63311,1.31109 1.94379,3.992 -0.84662,3.2927 -0.0936,3.62919 5.2616,2.35116 3.43728,-0.82031 6.61837,-0.60097 7.06909,0.48744 0.45073,1.0884 -2.11092,2.15029 -5.69254,2.35974 -3.58161,0.20945 -6.86776,0.91172 -7.30253,1.56059 -0.77058,1.15005 11.59035,2.20914 14.73437,1.26245 0.86833,-0.26146 1.02243,0.35497 0.34241,1.36986 -1.64192,2.45047 -20.12656,2.92872 -19.11859,0.49464 0.4312,-1.04126 -0.31861,-1.26174 -1.66621,-0.48996 -1.39564,0.79926 -2.45023,0.15638 -2.45023,-1.49365 0,-2.2401 -0.55209,-2.21305 -2.43511,0.11929 -3.14842,3.89969 -1.30637,6.40912 5.59271,7.61898 5.52579,0.96904 5.52579,0.96904 -0.3947,1.34613 -3.25627,0.2074 -5.9205,1.41713 -5.9205,2.68829 0,2.32199 4.78301,1.86035 25.5632,-2.4673 13.18234,-2.74533 13.90677,-2.73719 13.90677,0.15611 0,1.29594 -2.13137,2.35627 -4.73639,2.35627 -2.7237,0 -4.74668,1.2516 -4.76057,2.94533 -0.0175,2.13286 -0.40433,2.04959 -1.40229,-0.30187 -0.75796,-1.78597 -2.16799,-2.51863 -3.13343,-1.62814 -1.96877,1.81597 -2.40305,6.20613 -0.57121,5.77445 0.65126,-0.15346 1.89456,-0.0312 2.7629,0.2718 0.86834,0.30296 2.28926,0.78272 3.1576,1.06613 3.71611,1.21292 11.84099,7.1795 11.84099,8.69555 0,0.90886 2.13758,2.35316 4.75018,3.20957 2.6126,0.85638 4.35049,2.52222 3.862,3.70186 -0.4885,1.17965 0.92621,4.85267 3.14381,8.16231 8.69565,12.97777 5.96486,17.56277 -10.57189,17.7503 -9.09169,0.10321 -13.41205,0.88521 -11.44629,2.07208 1.83527,1.10811 -4.64006,1.7788 -15.46255,1.60161 -16.61272,-0.27203 -18.95312,-0.82934 -21.70848,-5.16931 z m -4.27244,-59.44623 c 2.38793,-1.49954 4.33082,-4.07807 4.31753,-5.73008 -0.0168,-2.07999 -0.49482,-1.91678 -1.55463,0.53074 -1.30793,3.0205 -1.53396,2.93485 -1.55463,-0.58906 -0.0126,-2.26791 -0.64764,-4.12348 -1.40966,-4.12348 -2.33258,0 -5.26697,6.70438 -4.13296,9.44283 0.61682,1.4895 -1.31355,1.09498 -4.566,-0.93318 -3.9644,-2.47214 -5.95109,-2.7493 -6.7024,-0.93504 -0.64064,1.54704 -0.33863,1.90602 0.75492,0.89734 1.00251,-0.92469 1.82274,-0.49578 1.82274,0.95313 0,1.44892 0.71046,1.97908 1.5788,1.17814 0.86834,-0.80094 1.5788,-0.47813 1.5788,0.71736 0,2.73575 4.22908,2.132 9.86749,-1.4087 z m -9.86749,-6.18476 c 0,-0.54198 0.43123,-2.66262 0.95831,-4.71254 0.63754,-2.47952 0.0779,-3.72712 -1.67198,-3.72712 -1.58484,0 -2.23295,-1.17066 -1.63063,-2.94534 0.54982,-1.61993 -0.10672,-0.91168 -1.45887,1.57389 -1.8316,3.36682 -2.01346,5.31958 -0.71316,7.65788 1.64116,2.95128 4.51633,4.32206 4.51633,2.15323 z m 6.8864,-6.61027 c -0.60806,-1.46835 -0.3293,-1.88437 0.65456,-0.97688 0.94251,0.86935 2.18984,0.43073 2.77183,-0.97471 0.58201,-1.40544 2.1525,-1.92862 3.49,-1.16263 2.01715,1.15523 2.09156,0.78083 0.43639,-2.19563 -2.50301,-4.50113 -1.8728,-4.48292 5.6977,0.16463 3.3623,2.06414 5.40284,2.77245 4.5345,1.57403 -6.13014,-8.46038 -27.73474,-15.50296 -30.09247,-9.80942 -0.72016,1.73904 0.93038,2.4031 5.03791,2.02692 12.13768,-1.11162 15.97459,2.46588 7.68777,7.16803 -3.90102,2.21354 -4.89955,4.86175 -2.93738,7.79018 1.57444,2.34975 3.90538,-0.7401 2.71919,-3.60452 z m -26.62139,-18.32328 c -0.53666,-1.29595 -0.0458,-2.49026 1.09092,-2.65401 5.65837,-0.81521 8.48974,-1.4064 9.56597,-1.99738 3.05599,-1.67811 5.40284,-1.19746 8.56352,1.75386 2.8131,2.62677 5.18454,2.69061 13.14306,0.35383 9.5561,-2.80587 10.48545,-6.80922 1.58071,-6.80922 -3.12435,0 -3.4534,0.47607 -1.5788,2.28411 3.44063,3.31846 -0.17097,3.0546 -11.19299,-0.81773 -5.34103,-1.87644 -10.22888,-2.3252 -12.38149,-1.13676 -1.9562,1.08 -4.17266,1.39549 -4.92549,0.7011 -2.59241,-2.39119 -7.81507,4.30015 -5.96002,7.63605 1.99531,3.58813 3.50053,4.08122 2.09461,0.68615 z m 43.41697,-60.32794 c 0,-1.64916 -1.2433,-2.97295 -2.7629,-2.94175 -1.51959,0.0312 -4.36143,-0.68853 -6.31519,-1.59939 -2.67657,-1.24784 -3.5523,-0.71705 -3.5523,2.1531 0,2.09507 -1.06569,3.80922 -2.3682,3.80922 -4.16053,0 -2.63032,8.37719 1.9735,10.80405 4.60441,2.42716 13.02509,-5.47641 13.02509,-12.22523 z M 132.70541,-227.8164 c 5.08186,-1.48907 3.54019,-1.88876 -7.89399,-2.04661 -22.73645,-0.3139 -22.89258,-0.34005 -22.89258,-3.83365 0,-1.8016 -1.59128,-3.61449 -3.536173,-4.02861 -4.361752,-0.92875 -5.2423,-6.38174 -2.031387,-12.57987 1.729933,-3.33935 2.161422,-3.56176 1.5168,-0.78183 -0.495498,2.13683 -0.279959,4.45787 0.478976,5.15792 1.927174,1.77757 9.055434,-3.85561 9.294924,-7.34543 0.4419,-6.43934 0.67179,-7.05838 2.56555,-6.90861 2.99873,0.23713 15.39329,-8.18693 15.39329,-10.4622 0,-1.09936 1.82689,-1.99884 4.05977,-1.99884 6.1468,0 10.30169,-6.98943 4.34169,-7.30369 -2.44995,-0.12918 -6.23061,-1.1253 -8.40146,-2.21359 -2.47645,-1.2415 -0.12356,-1.47771 6.31519,-0.63401 5.64421,0.73959 10.97265,1.97159 11.84099,2.73776 2.44246,2.15511 18.08083,2.06899 17.18485,-0.0947 -1.02801,-2.48247 0.60789,-2.41929 6.88097,0.26576 5.60306,2.39827 7.99052,-0.0329 4.39985,-4.48038 -1.41639,-1.75437 -4.1656,-2.21559 -7.22624,-1.21233 -4.75671,1.55923 -4.87309,1.41391 -3.13517,-3.91505 1.6963,-5.20132 1.6602,-5.26535 -0.5998,-1.0638 -1.3226,2.45883 -2.03032,5.37472 -1.57272,6.47974 0.4576,1.10504 -1.028,2.00916 -3.30135,2.00916 -2.39776,0 -3.71694,-1.00554 -3.14168,-2.39471 0.54542,-1.31709 1.57859,-1.85334 2.29594,-1.19167 0.71735,0.66167 1.73326,-0.46538 2.25757,-2.50455 0.76388,-2.97095 0.091,-3.46653 -3.38687,-2.49432 -12.39053,3.46367 -19.62908,4.12381 -18.62475,1.69854 0.57814,-1.39611 4.38391,-2.6129 8.45728,-2.70399 5.59,-0.125 6.63182,-0.66219 4.24852,-2.19066 -1.86489,-1.196 -2.24193,-2.09284 -0.92097,-2.19066 1.23015,-0.0911 1.74071,-0.90574 1.13459,-1.81036 -0.60613,-0.90461 0.51876,-2.98768 2.49976,-4.62904 1.981,-1.64136 2.71374,-3.02187 1.62832,-3.06779 -1.08543,-0.0459 -1.9735,-1.2064 -1.9735,-2.57883 0,-1.37243 0.71046,-1.84001 1.5788,-1.03907 0.86834,0.80094 1.5788,0.45702 1.5788,-0.76426 0,-1.22129 1.59853,-2.90164 3.55229,-3.73412 3.34893,-1.42695 3.25217,-1.70997 -1.69014,-4.94348 -3.42976,-2.24393 -4.83104,-4.42333 -4.05264,-6.30304 0.91874,-2.2186 1.33376,-2.22859 1.82171,-0.0439 0.34755,1.5561 1.6161,2.82928 2.81899,2.82928 1.24662,0 1.81499,-1.44715 1.32178,-3.36539 -0.74437,-2.89501 0.38275,-2.93241 8.06392,-0.26758 8.92644,3.09686 14.0689,2.60826 17.74877,-1.68636 1.30183,-1.51932 4.10305,-1.00011 8.37837,1.55293 6.15767,3.6771 10.97971,1.78327 10.97971,-4.31224 0,-2.46967 -23.13557,-1.38558 -28.35233,1.32854 -3.89965,2.02887 -5.42003,2.00245 -6.29456,-0.10938 -0.71964,-1.7378 -3.84455,-2.41255 -8.31378,-1.79517 -6.29047,0.86899 -7.07021,0.47255 -6.41585,-3.26196 0.47537,-2.71297 1.6392,-3.739 3.21652,-2.83567 1.74806,1.00113 2.09899,0.51567 1.19874,-1.65828 -0.70009,-1.6906 -1.24722,-8.76288 -1.21585,-15.71619 0.0314,-6.95331 -0.55576,-12.64238 -1.30475,-12.64238 -0.74899,0 -0.95286,-1.59049 -0.45304,-3.53441 1.02421,-3.98339 6.18577,-4.77565 7.67553,-1.17814 1.79048,4.3237 6.54613,2.4257 8.65459,-3.45408 2.81473,-7.84932 -0.33772,-13.99072 -6.27231,-12.21932 -6.24181,1.86312 -9.50901,-2.27754 -3.38188,-4.28599 2.72063,-0.89181 4.9466,-2.39505 4.9466,-3.34053 0,-0.94547 3.63804,-1.80096 8.08454,-1.90107 4.99293,-0.11241 8.60618,-1.41082 9.44862,-3.39534 0.75024,-1.76732 1.37495,-2.10082 1.38825,-0.74112 0.014,1.43421 2.34426,2.06796 5.54997,1.50941 6.03699,-1.05185 7.62039,3.45018 3.1576,8.97788 -3.1664,3.92196 -3.01545,7.29159 0.24304,5.42544 2.24492,-1.28568 2.48947,-0.14053 1.74323,8.16297 -0.6554,7.29262 -0.28515,9.99225 1.51153,11.02122 1.61967,0.92759 2.09966,0.27418 1.50307,-2.04611 -0.48207,-1.87489 -0.13246,-3.77903 0.7769,-4.23142 0.90937,-0.4524 1.71831,-5.22727 1.79765,-10.61084 0.0793,-5.38357 0.70818,-9.26815 1.39742,-8.63241 0.68925,0.63575 0.82191,-0.5214 0.29481,-2.57144 -1.01999,-3.96698 4.68798,-13.0113 8.21158,-13.0113 3.3,0 6.99215,2.71041 6.99215,5.13294 0,1.24986 1.07222,3.87271 2.3827,5.82854 2.57834,3.84801 1.64958,8.9736 -1.15694,6.38492 -1.02421,-0.94472 -1.25936,-0.48364 -0.58449,1.14607 0.78981,1.90725 2.01812,2.01666 4.08715,0.36406 4.13011,-3.29885 5.23421,-2.95387 4.14196,1.29415 -0.51712,2.01123 -0.31235,3.07764 0.45506,2.3698 1.91957,-1.77057 3.43045,4.88127 2.1977,9.6757 -0.71434,2.77823 -0.42393,3.38207 0.99646,2.07193 1.58212,-1.45931 1.62696,-0.79586 0.21275,3.14787 -0.98552,2.74828 -1.23401,4.99689 -0.5522,4.99689 0.6818,0 1.17949,3.44604 1.10598,7.65787 -0.0736,4.21184 1.475,12.16425 3.44115,17.67203 1.96615,5.50778 2.88937,10.01415 2.05161,10.01415 -0.92284,0 -0.85714,1.85741 0.16669,4.71254 1.21029,3.37509 1.19064,6.1048 -0.0693,9.61819 -1.41839,3.95541 -1.22952,5.48364 0.97505,7.8895 1.54213,1.68292 2.22801,4.20622 1.57315,5.78756 -0.63858,1.54204 -0.29086,7.87097 0.7727,14.06428 3.10993,18.1098 0.0627,25.01035 -11.1811,25.31913 -4.75637,0.13063 -10.63479,1.0532 -13.06316,2.05018 -5.31371,2.18155 -6.5663,0.81195 -4.57605,-5.00356 0.81941,-2.39411 3.11967,-9.12438 5.11177,-14.95614 1.9921,-5.83177 4.92326,-13.13194 6.51368,-16.22259 1.59042,-3.09066 2.89168,-6.87565 2.89168,-8.4111 0,-1.53544 1.77615,-5.09656 3.947,-7.9136 5.14139,-6.6718 5.06802,-7.32582 -2.40491,-21.43534 -5.62373,-10.61805 -9.83487,-16.31847 -7.00262,-9.47908 0.62488,1.50898 -0.12677,2.21539 -1.88033,1.7672 -1.95485,-0.49964 -2.8522,0.58696 -2.71238,3.28441 0.11494,2.21709 -0.24029,3.94709 -0.7894,3.84444 -3.10526,-0.58048 -4.89782,0.72604 -4.55065,3.31678 0.21709,1.61993 -0.79503,2.65213 -2.24914,2.29378 -1.45412,-0.35836 -3.16243,0.60071 -3.79624,2.13126 -0.78386,1.89289 -0.44326,2.1731 1.06505,0.8762 1.21959,-1.04864 0.25373,1.24677 -2.14637,5.10091 -2.40009,3.85415 -3.82101,7.99434 -3.15759,9.20044 0.66341,1.2061 0.597,1.46043 -0.14759,0.56517 -0.74458,-0.89525 -3.18293,0.90357 -5.41855,3.99739 -2.23563,3.09382 -4.75565,4.98787 -5.60005,4.20901 -0.84441,-0.77886 -1.06585,-0.28253 -0.49211,1.10297 0.57375,1.3855 0.29672,2.89043 -0.61561,3.3443 -0.91233,0.45387 -1.77611,3.14974 -1.91951,5.99083 -0.1434,2.84108 -0.5793,4.69014 -0.96868,4.10901 -0.38938,-0.58112 -1.69737,0.1689 -2.90664,1.66673 -1.74544,2.16193 -2.38193,1.67746 -3.08765,-2.35021 -0.48894,-2.79045 -1.55317,-4.4609 -2.36495,-3.71213 -0.86656,0.7993 -0.69307,2.7693 0.42018,4.77124 1.52829,2.7483 1.08126,4.67923 -2.30419,9.95301 -3.3378,5.19956 -4.36726,9.53441 -5.01323,21.10976 -1.17333,21.02519 -2.76823,25.88926 -8.95793,27.31956 -9.22618,2.13196 -35.75173,3.47842 -28.88444,1.46619 z m 41.83817,-60.14349 c -1.50728,-2.71051 -1.53447,-4.3094 -0.11666,-6.85904 1.39523,-2.50901 1.4013,-3.73738 0.0248,-5.00707 -1.34348,-1.2392 -1.28363,-2.18089 0.22716,-3.57442 1.25051,-1.15344 2.75789,-0.44955 3.86164,1.80325 1.6218,3.31017 1.90764,3.31729 2.743,0.0683 0.70245,-2.73198 -0.77086,-4.26704 -5.971,-6.22126 -8.90342,-3.34592 -9.88369,-3.268 -6.42137,0.51043 3.30348,3.6051 -0.78319,12.6561 -4.26455,9.44495 -1.27703,-1.17791 -1.24166,-1.89326 0.12728,-2.57428 1.04266,-0.51871 1.89575,-1.89233 1.89575,-3.0525 0,-1.16017 -1.77615,-0.90161 -3.947,0.57458 -2.17085,1.47618 -3.947,3.57409 -3.947,4.66202 0,1.08793 -1.59853,2.10105 -3.55229,2.25138 -2.59441,0.19963 -2.82065,0.56006 -0.83901,1.33665 1.49231,0.58483 3.97848,0.007 5.52481,-1.28489 2.05902,-1.71973 3.55416,-1.34516 5.58627,1.39949 2.39488,3.23464 8.65311,9.12147 10.44563,9.82575 0.3234,0.12706 -0.29643,-1.35946 -1.37742,-3.30338 z m -5.90664,-25.67105 c 7.0127,-3.02816 9.84966,-3.32079 12.40519,-1.27961 2.25826,1.80375 3.82746,1.87895 4.92818,0.23618 1.93252,-2.88418 -8.16683,-6.3009 -13.02273,-4.40573 -1.72549,0.67343 -3.53512,0.26364 -4.0214,-0.91065 -0.48628,-1.17428 -2.08552,-2.11882 -3.55387,-2.09898 -2.25955,0.0305 -2.3129,0.37287 -0.34724,2.22815 2.64555,2.49701 2.72194,2.36818 -4.69068,7.9109 -5.88916,4.40357 -5.69605,4.36449 8.30255,-1.68026 z m 16.53868,-22.63249 c 2.48844,0 5.23074,-1.05414 6.09402,-2.34253 2.26227,-3.37631 8.58763,-3.46285 14.02732,-0.19194 2.58675,1.55544 4.19145,2.06432 3.566,1.13086 -0.62548,-0.93346 -0.25529,-3.32371 0.8226,-5.31165 1.56325,-2.88308 1.56047,-3.25639 -0.0142,-1.84494 -1.08492,0.97323 -1.97299,0.64661 -1.97299,-0.72582 0,-1.37243 0.59205,-2.49533 1.31566,-2.49533 2.52347,0 1.29115,-7.08028 -1.94628,-11.18249 -2.75748,-3.49403 -2.9481,-3.5262 -1.23256,-0.20794 1.71984,3.32651 1.5573,4.14894 -1.06545,5.3913 -1.70218,0.80629 -3.45915,2.8828 -3.90439,4.61445 -0.48647,1.89197 -7.16484,4.87563 -16.73442,7.47635 -14.10661,3.83373 -15.52099,4.6505 -12.38737,7.15343 2.27075,1.81372 4.49905,2.05755 6.22259,0.6809 1.47678,-1.17956 4.72104,-2.14465 7.20948,-2.14465 z m -10.96308,-6.93325 c 2.04655,-1.78065 0.71753,-2.36586 -5.49628,-2.42018 -4.50753,-0.0394 -8.5239,0.72359 -8.92525,1.69555 -1.13094,2.73879 11.38387,3.36762 14.42153,0.72463 z m 20.363,-9.36108 c 0.43492,-2.48214 2.49979,-5.15314 4.58859,-5.93557 2.19708,-0.82298 3.78764,-3.14167 3.77365,-5.50117 -0.0178,-3.0095 -0.3613,-3.28563 -1.31032,-1.05344 -0.70738,1.66383 -2.4429,2.36267 -3.85671,1.55297 -1.88986,-1.08233 -2.86149,0.30045 -3.66917,5.2218 -0.60423,3.68169 -1.87728,7.47299 -2.829,8.4251 -1.16088,1.16136 -1.03223,1.743 0.3909,1.76721 1.16671,0.0198 2.47714,-1.99476 2.91206,-4.4769 z m 16.92813,-15.81397 c 0.54207,-2.10819 0.26901,-5.12163 -0.60678,-6.69654 -0.87579,-1.57492 -1.12486,-3.56117 -0.55351,-4.41389 0.57137,-0.85272 0.20997,-1.55041 -0.80309,-1.55041 -1.01306,0 -1.84193,1.65306 -1.84193,3.67347 0,2.0204 -0.59205,3.12737 -1.31566,2.45992 -1.98982,-1.83536 -1.62625,6.56473 0.37035,8.55722 2.62676,2.62134 3.66927,2.17592 4.75062,-2.02977 z M 430.357,-232.32778 c -0.0264,-3.09699 1.19529,-7.15183 2.71489,-9.01073 1.51959,-1.85891 1.7629,-2.60526 0.5407,-1.65854 -1.69474,1.31278 -2.00314,0.47116 -1.2993,-3.54578 0.70051,-3.99786 0.36023,-4.94487 -1.41209,-3.92984 -1.37901,0.78975 -1.91889,0.3324 -1.31865,-1.11708 0.55899,-1.34989 -0.5785,-4.51869 -2.52777,-7.04181 -1.94928,-2.52312 -2.82871,-4.58749 -1.9543,-4.58749 1.81546,0 9.83201,10.59544 10.16576,13.43604 0.87302,7.43045 0.6903,19.39576 -0.26111,17.09827 -0.83462,-2.01548 -1.66092,-1.56244 -2.88488,1.5817 -1.58163,4.06292 -1.71898,3.96751 -1.76325,-1.22474 z M 135.28376,-296.7959 c 1.07266,-3.70599 3.11867,-6.47975 4.77967,-6.47975 1.5973,0 3.37781,-0.26508 3.95671,-0.58906 0.57889,-0.32399 1.38447,0.89712 1.79017,2.71357 0.54962,2.46083 -0.2217,2.92446 -3.02603,1.81893 -2.77092,-1.09237 -4.50386,-0.099 -6.56984,3.76616 -2.80617,5.24989 -2.80617,5.24989 -0.93068,-1.22985 z m 195.96497,-45.44943 c -1.94862,-1.47713 -3.07352,-3.38628 -2.49978,-4.24257 0.57375,-0.85629 0.0722,-1.55688 -1.11451,-1.55688 -1.67821,0 -1.73667,-0.62834 -0.26313,-2.82753 1.042,-1.55514 1.88368,-3.94086 1.87038,-5.30161 -0.0126,-1.36074 -0.71287,-0.8836 -1.55462,1.06033 -0.84176,1.94392 -1.54134,2.33883 -1.55463,0.87758 -0.0133,-1.46126 1.04152,-3.97681 2.34403,-5.59012 2.2791,-2.82295 3.15417,-1.11839 2.60563,5.07561 -0.0752,0.84767 1.0841,2.96831 2.57594,4.71254 2.44728,2.86133 2.50061,2.76826 0.54561,-0.95214 -1.19175,-2.26791 -1.44537,-4.12347 -0.56361,-4.12347 2.31837,0 3.60526,6.36758 2.2855,11.30875 -0.94834,3.55053 -1.71363,3.80572 -4.67681,1.55951 z"
       id="path5754"
       inkscape:connector-curvature="0" />
    <path
       style="fill:#122c66"
       d="m 423.99379,-218.75227 c 8.06092,-4.81966 -0.63758,-7.80998 -14.09981,-4.84716 -36.87812,8.11627 -46.66345,6.27089 -48.28109,-9.10524 -0.64389,-6.12029 -0.4983,-6.94475 0.58902,-3.33546 2.75422,9.14249 5.62785,10.46094 24.83547,11.39478 10.45151,0.5081 17.39802,0.0674 15.64263,-0.9922 -1.97029,-1.18945 2.25948,-1.9685 11.24894,-2.07183 7.9236,-0.0912 16.44911,-0.55273 18.94559,-1.02585 2.49647,-0.47313 3.29574,-0.39938 1.77615,0.164 -2.83919,1.05238 -3.68012,4.25062 -1.5788,6.00448 0.65125,0.54357 0.36508,0.70476 -0.63594,0.3582 -1.00103,-0.34656 -3.1324,0.85382 -4.7364,2.66751 -1.604,1.8137 -3.98205,3.26415 -5.28456,3.22322 -1.3025,-0.041 -0.59205,-1.13638 1.5788,-2.43434 z m -323.65375,-6.96281 c 0,-2.26791 -0.888078,-4.63582 -1.973502,-5.262 -1.085424,-0.6262 1.831242,-0.77959 6.481472,-0.34092 10.33651,0.97511 11.65413,2.37175 4.20516,4.45735 -3.10381,0.86902 -5.29956,2.41007 -4.87946,3.42453 0.4201,1.01447 -0.27061,1.84452 -1.53492,1.84452 -1.26432,0 -2.29875,-1.85557 -2.29875,-4.12348 z m 37.89117,2.85064 -8.6834,-1.48091 7.71965,-1.76483 c 4.24581,-0.97066 11.12654,-1.76482 15.29051,-1.76482 11.28543,0 15.02618,-2.93897 17.03861,-13.38668 l 1.73317,-8.99789 -0.84276,9.42508 c -1.36592,15.27571 -1.5914,16.07081 -4.75805,16.77813 -9.12773,2.03884 -19.81544,2.5021 -27.49773,1.19192 z m -15.78799,-5.05563 c 0,-1.27116 3.67071,-2.3112 8.15713,-2.3112 9.78621,0 9.54359,1.16452 -0.65784,3.15738 -4.51666,0.88235 -7.49929,0.54581 -7.49929,-0.84618 z m 195.69407,-19.62128 c -0.39183,-0.5385 -6.27252,-1.5394 -13.06819,-2.22422 -14.19676,-1.43068 -14.31431,-1.53076 -14.55575,-12.39048 -0.22481,-10.11185 0.41012,-10.20461 3.24396,-0.47394 1.2266,4.21184 2.25799,6.50058 2.29199,5.08611 0.0421,-1.75278 2.45005,-1.98511 7.56108,-0.72955 12.44133,3.05632 14.60389,2.66647 14.60389,-2.63272 0,-6.48044 -7.26323,-27.22896 -13.81254,-39.45765 -2.95967,-5.5262 -5.14776,-10.99743 -4.86244,-12.15828 1.42953,-5.81586 25.55048,53.82393 24.63577,60.91263 -0.44557,3.453 -4.49841,6.1837 -6.03777,4.0681 z m -107.67604,-3.23992 c -6.14813,-1.37281 5.63235,-41.33378 17.92139,-60.79175 4.98405,-7.89153 5.01629,-7.70382 -4.6091,-26.83961 -6.07804,-12.08346 -2.4074,-8.15946 4.41249,4.71706 7.47293,14.10952 7.5463,14.76354 2.40491,21.43534 -2.17085,2.81704 -3.947,6.37816 -3.947,7.9136 0,1.53545 -1.30126,5.32044 -2.89168,8.4111 -1.59042,3.09065 -4.52158,10.39082 -6.51368,16.22259 -1.9921,5.83176 -4.29236,12.56203 -5.11171,14.95614 -1.99025,5.81551 -0.73766,7.18511 4.57605,5.00356 2.42837,-0.99698 8.2953,-1.91956 13.03763,-2.05018 7.46582,-0.20563 8.88057,-1.0046 10.54715,-5.95632 1.77042,-5.26028 1.90228,-4.85232 1.64451,5.088 -0.15409,5.94374 -0.69767,9.79881 -1.20785,8.56681 -0.57692,-1.39317 -3.56306,-1.43268 -7.89871,-0.10462 -3.83411,1.17449 -8.39203,2.12536 -10.12871,2.11301 -1.73667,-0.0118 -4.22328,0.49666 -5.52579,1.13111 -1.30251,0.63447 -4.32196,0.71729 -6.7099,0.18402 z m -33.01885,-29.42147 c 1.1754,-2.23796 1.56551,-5.36616 0.88103,-7.06487 -0.99496,-2.46926 -0.76058,-2.48335 1.23341,-0.0742 2.72918,3.29747 7.1338,-1.55814 4.84054,-5.33616 -0.64372,-1.06051 -0.28233,-1.16545 0.80309,-0.23322 1.22054,1.04827 1.9735,0.2934 1.9735,-1.9785 0,-2.02041 0.60228,-3.67347 1.33841,-3.67347 1.15014,0 7.82406,-9.81335 21.78143,-32.02749 1.86167,-2.96297 2.92736,-6.15164 2.36819,-7.08593 -0.55916,-0.93429 -0.20301,-1.00464 0.79142,-0.15634 0.99443,0.8483 2.25447,-0.19378 2.80005,-2.31575 0.5456,-2.12196 1.42959,-3.20506 1.96441,-2.40687 1.72927,2.58086 -14.40307,31.55216 -16.96806,30.47209 -0.7325,-0.30844 -0.95822,0.89224 -0.50159,2.66817 0.80008,3.11172 -4.7231,10.73538 -19.10005,26.36386 -3.47336,3.77571 -5.36596,5.0576 -4.20578,2.84863 z m 169.37505,-2.57336 c -9.41891,-12.1976 -28.57323,-42.41915 -31.37185,-49.49829 -4.41594,-11.17012 -2.8902,-11.12955 3.38066,0.0899 2.70259,4.83531 7.81766,13.58297 11.36682,19.43923 3.54914,5.85625 6.9188,12.57051 7.48813,14.92056 0.56933,2.35005 1.78174,3.58417 2.69425,2.74248 2.20568,-2.03447 6.50461,3.44047 5.19141,6.61159 -0.6486,1.56627 -0.0262,1.91423 1.67818,0.93814 1.82576,-1.04562 2.34059,-0.66144 1.5788,1.17814 -0.74775,1.80571 -0.26832,2.23598 1.4164,1.27114 1.78831,-1.02418 2.28533,-0.44169 1.66887,1.95585 -1.0453,4.06549 -2.16396,4.14266 -5.09167,0.35125 z m 40.86397,-6.55552 c -5.57366,-1.14138 -6.08396,-1.56612 -2.3682,-1.97113 2.60502,-0.28393 6.67892,-0.89922 9.05313,-1.36731 4.76924,-0.94029 7.53561,2.46416 3.1648,3.89479 -1.50982,0.49419 -5.9422,0.24383 -9.84973,-0.55635 z m -257.0707,-2.16268 c 0.43999,-1.97596 2.4676,-3.39823 4.59845,-3.22558 16.55495,1.34135 17.02458,1.50654 8.54783,3.0067 -4.34169,0.76836 -8.14069,0.55752 -8.44222,-0.46853 -0.30153,-1.02605 -1.66037,-0.49589 -3.01965,1.17814 -2.06237,2.53992 -2.34115,2.4587 -1.68441,-0.49073 z m 35.34582,-2.19736 c -1.51867,-2.5045 -3.76016,-3.98154 -4.98109,-3.28231 -1.22092,0.69923 -2.21986,0.0976 -2.21986,-1.33704 0,-3.13078 4.18285,-3.49509 5.4342,-0.4733 0.48628,1.17428 2.48197,1.68268 4.43487,1.12977 3.28564,-0.93024 3.31499,-0.84425 0.39313,1.15191 -3.02706,2.06802 -2.99443,2.25867 0.78939,4.61155 2.35643,1.46528 2.93221,2.51453 1.4288,2.6037 -1.38501,0.0821 -3.76076,-1.89978 -5.27944,-4.40428 z m 180.89618,-3.29756 c -1.3003,-2.3383 -1.11844,-4.29106 0.71316,-7.65788 1.35219,-2.48557 2.00869,-3.19382 1.45887,-1.57389 -0.60232,1.77468 0.0458,2.94534 1.63063,2.94534 1.74985,0 2.30952,1.2476 1.67198,3.72712 -0.52708,2.04992 -0.95831,4.17056 -0.95831,4.71254 0,2.16883 -2.87517,0.79805 -4.51633,-2.15323 z m 8.47924,-1.53545 c -2.33915,-5.64863 7.54389,-12.10263 10.86933,-7.09808 1.27894,1.9247 1.04972,2.23137 -0.85806,1.14793 -1.43176,-0.8131 -3.07938,-0.32847 -3.66139,1.07697 -0.58199,1.40544 -1.82932,1.84406 -2.77183,0.97471 -0.98386,-0.90749 -1.26262,-0.49147 -0.65456,0.97688 0.5825,1.40664 0.38615,3.17825 -0.43636,3.93691 -0.82251,0.75866 -1.94172,0.30177 -2.48713,-1.01532 z m -176.91427,-3.00666 c -0.72221,-2.80884 -1.81442,-3.43139 -3.63723,-2.07315 -1.7775,1.32448 -3.53385,0.48602 -5.52873,-2.63934 -2.87385,-4.50244 -2.83351,-4.5511 2.3682,-2.85673 9.28212,3.02349 10.81663,4.3711 9.25938,8.13159 -1.22071,2.9478 -1.5802,2.86567 -2.46162,-0.56237 z m 202.15914,0.61195 c -2.42941,-1.55804 -2.56502,-2.06324 -0.58801,-2.19066 1.41326,-0.0911 3.44753,-1.74441 4.52057,-3.67407 2.70002,-4.85539 5.14529,-1.99427 3.12075,3.65146 -1.79691,5.01099 -2.39722,5.19935 -7.05331,2.21327 z m -235.71467,-2.82752 c -2.11959,-3.16338 -2.52237,-6.7455 -0.71046,-6.31853 3.73069,0.87914 5.20304,-0.83403 4.79616,-5.58064 -0.53537,-6.24548 1.01549,-6.82226 7.43953,-2.76686 4.72891,2.98528 1.12551,7.85704 -6.02327,8.14341 -1.0289,0.0412 -0.60653,1.5063 0.93858,3.25574 2.52403,2.8578 2.551,3.32873 0.26557,4.6376 -3.57401,2.04686 -4.54983,1.8474 -6.70611,-1.37072 z m 219.17648,-6.5465 c -4.5417,-2.68233 -9.2805,-3.72943 -13.26679,-2.93145 -4.44244,0.88928 -5.88249,0.47134 -5.07712,-1.47352 1.83717,-4.43644 10.81849,-3.10813 20.79942,3.07618 5.14045,3.18509 8.28059,5.72595 6.97808,5.64636 -1.30251,-0.0796 -5.54763,-2.0225 -9.43359,-4.31757 z m -205.28305,-0.82551 c 9.75839,-8.48188 32.50698,-11.45386 27.21472,-3.55546 -1.10072,1.64277 -2.66992,1.56757 -4.92818,-0.23618 -2.55553,-2.04118 -5.39249,-1.74855 -12.40519,1.27961 -5.00057,2.1593 -10.15764,4.37977 -11.46015,4.93436 -1.30251,0.5546 -0.59205,-0.53545 1.5788,-2.42233 z m 216.69014,1.57021 c -1.08542,-0.65366 -1.9735,-1.99023 -1.9735,-2.97017 0,-2.46705 8.08656,-7.7487 9.2364,-6.03264 1.34856,2.01268 -3.27353,5.80392 -5.06325,4.15311 -0.82688,-0.7627 -1.01568,-0.20889 -0.41952,1.2307 0.59614,1.43959 2.24338,1.95338 3.66052,1.14178 1.72236,-0.9864 2.19815,-0.56168 1.43507,1.28104 -1.18136,2.85275 -3.46515,3.25007 -6.87572,1.19618 z m -9.924,-7.91669 c -1.02137,-0.94209 0.12331,-2.21127 2.69206,-2.98473 2.45797,-0.74012 5.71235,-2.06352 7.23194,-2.94091 1.51959,-0.87738 2.7629,-0.68092 2.7629,0.43657 0,2.88931 -10.55462,7.45584 -12.6869,5.48907 z m -36.10285,-3.20711 c -2.05953,-3.70363 0.85603,-6.51672 7.74098,-7.46893 2.17085,-0.30024 4.65746,-0.78559 5.52579,-1.07857 4.46344,-1.50596 8.6834,0.36424 8.6834,3.8483 0,2.66097 -0.59984,3.15416 -1.9735,1.62264 -2.20806,-2.4618 -4.35987,-2.571 -6.7099,-0.3405 -0.86833,0.82417 -3.93188,1.19716 -6.80787,0.82886 -3.91844,-0.5018 -5.01908,0.1471 -4.39126,2.5889 1.06912,4.15801 0.24481,4.15774 -2.06764,-7e-4 z m -135.88039,-4.09832 c -5.15571,-3.41147 -7.91871,-4.05859 -10.2622,-2.40349 -6.22959,4.39969 -8.31176,4.57587 -17.28561,1.46257 -7.8086,-2.70904 -8.94489,-2.67848 -8.19949,0.22055 0.4869,1.89369 -0.0682,3.36538 -1.26929,3.36538 -1.17403,0 -2.48443,-2.7312 -2.912,-6.06933 -0.49397,-3.8565 -0.22756,-5.24874 0.73069,-3.8186 0.82944,1.2379 4.03048,1.74342 7.1134,1.12336 3.48358,-0.70063 6.0612,-0.0265 6.80971,1.78104 0.92902,2.24342 2.37998,2.29679 6.34593,0.23344 8.19591,-4.26409 26.10266,-3.61243 23.61593,0.85941 -1.93006,3.47082 -0.57648,4.85591 3.66965,3.75506 0.7158,-0.18558 0.85149,0.74918 0.30153,2.07724 -0.54996,1.32806 -1.13562,2.33975 -1.30146,2.24821 -0.16583,-0.0915 -3.47639,-2.26722 -7.35679,-4.83484 z m 105.73212,3.24087 c 0.001,-0.9757 1.74066,-4.79132 3.86579,-8.47916 2.12511,-3.68785 4.15836,-7.92914 4.51831,-9.42509 0.35997,-1.49595 1.2066,-1.95269 1.88143,-1.01498 0.67482,0.93772 -1.35929,5.9773 -4.52025,11.19908 -3.16096,5.22177 -5.74633,8.69584 -5.74528,7.72015 z m 54.2035,-1.91476 c 0,-2.96739 1.24153,-3.39438 6.44677,-2.21714 4.7174,1.0669 5.81148,0.7983 4.07856,-1.00129 -1.92102,-1.99493 -1.6229,-2.45932 1.5788,-2.45932 8.6116,0 8.04701,3.94394 -0.95066,6.64077 -11.38011,3.41091 -11.15347,3.43048 -11.15347,-0.96302 z m -181.70729,-11.3364 c -3.11895,-2.49121 -1.8729,-3.26536 11.07755,-6.88229 8.02548,-2.24145 16.31016,-4.76464 18.41039,-5.60711 3.11844,-1.25091 3.63411,-0.81427 2.81245,2.38139 -1.20114,4.67149 1.98528,5.26309 5.21274,0.96781 1.85326,-2.46642 1.90683,-2.33538 0.32946,0.80587 -1.036,2.06316 -1.37193,4.51494 -0.74645,5.44841 0.62545,0.93346 -0.97925,0.42458 -3.566,-1.13086 -5.43969,-3.27092 -11.76505,-3.18438 -14.02732,0.19194 -0.86328,1.28838 -3.60558,2.34252 -6.09402,2.34252 -2.48844,0 -5.7327,0.96509 -7.20948,2.14464 -1.72125,1.37481 -3.94651,1.13707 -6.19932,-0.66232 z m 157.49904,0.84755 c 0,-1.28143 -1.2433,-2.4044 -2.76289,-2.49548 -2.36258,-0.14161 -2.3054,-0.45903 0.3947,-2.19066 2.70009,-1.73164 2.75727,-2.04904 0.3947,-2.19066 -1.5196,-0.0911 -2.7629,-1.29738 -2.7629,-2.68067 0,-2.77209 5.8299,-0.78646 9.07809,3.09195 1.12565,1.34405 1.9735,1.41928 1.9735,0.1751 0,-2.38405 22.44981,2.95713 27.62898,6.57338 3.41538,2.38473 -15.14567,0.9744 -23.52192,-1.78726 -2.68529,-0.88535 -4.20023,-0.60055 -3.66613,0.68921 0.50062,1.20892 -0.8147,2.4111 -2.92294,2.67151 -2.10825,0.2604 -3.83319,-0.57498 -3.83319,-1.85642 z m -169.47485,-9.98775 c 0.40135,-0.97196 4.41772,-1.73496 8.92525,-1.69555 6.21381,0.0543 7.54283,0.63953 5.49628,2.42018 -3.03766,2.64299 -15.55247,2.01416 -14.42153,-0.72463 z m 161.2507,-1.04072 c -0.65602,-3.74394 0.59421,-7.06427 4.85438,-12.89218 3.15589,-4.31724 4.90542,-6.39786 3.88784,-4.6236 -1.01757,1.77426 -1.50268,4.57719 -1.07803,6.22873 0.42465,1.65155 -0.5843,4.43822 -2.24207,6.19262 -1.65779,1.7544 -3.35714,4.75295 -3.77636,6.66345 -0.54911,2.50257 -1.00919,2.06395 -1.64576,-1.56902 z m 16.11815,-3.22181 c 0,-1.37243 -0.66138,-1.8853 -1.46971,-1.1397 -0.80834,0.74559 -2.03166,0.013 -2.7185,-1.62814 -1.7697,-4.22839 -2.10113,-9.12872 -0.51868,-7.66911 0.7321,0.67529 1.74702,0.22345 2.25535,-1.00409 0.50834,-1.22754 0.20219,-2.8979 -0.68031,-3.71191 -2.02863,-1.87116 -2.09514,-5.91443 -0.0973,-5.91443 0.82898,0 1.97521,3.72284 2.54717,8.27298 0.57195,4.55013 1.66983,8.85399 2.43973,9.56414 1.89986,1.7524 1.77568,5.72559 -0.17897,5.72559 -0.86834,0 -1.5788,-1.1229 -1.5788,-2.49533 z m -145.88728,-1.66423 c 0.95172,-0.95211 2.24384,-4.85678 2.87137,-8.67704 0.77269,-4.70391 1.5415,-5.97869 2.38186,-3.94937 0.9586,2.31485 1.88957,2.02844 4.09226,-1.25895 2.07204,-3.0924 2.64622,-3.30099 2.10079,-0.76317 -0.41282,1.92078 -2.25942,4.5109 -4.10356,5.75583 -1.84414,1.24492 -3.68543,4.1608 -4.09175,6.47974 -0.40632,2.31894 -1.69336,4.20001 -2.86007,4.18017 -1.42313,-0.0242 -1.55178,-0.60585 -0.3909,-1.76721 z m 107.34098,-12.4182 c -1.92163,-8.1277 -2.18011,-23.32716 -0.38806,-22.81967 1.00792,0.28543 1.63737,-0.88525 1.39876,-2.60151 -0.23858,-1.71626 0.32495,-2.42061 1.25234,-1.56521 0.92739,0.8554 4.31967,-1.38234 7.53842,-4.97275 3.76586,-4.20071 4.86603,-4.83458 3.08592,-1.77798 -1.52149,2.61252 -2.23195,5.54759 -1.5788,6.52238 0.65315,0.97479 0.47708,1.51276 -0.39126,1.19549 -6.30781,-2.30469 -13.20482,8.25736 -9.01043,13.79852 2.70002,3.56697 2.81977,4.75985 0.99019,9.86446 -1.54727,4.31697 -2.29056,4.92151 -2.89708,2.35627 z m -67.22902,-6.99667 c 1.5089,-4.2078 1.48573,-4.89697 -0.11494,-3.42049 -1.4204,1.31014 -1.7108,0.7063 -0.99646,-2.07193 1.23274,-4.79443 -0.27813,-11.44627 -2.1977,-9.6757 -0.76741,0.70784 -0.97218,-0.35857 -0.45506,-2.3698 1.12333,-4.36891 -0.008,-4.59222 -4.63248,-0.91475 -3.03889,2.41633 -3.20761,2.30604 -1.42051,-0.9285 1.66794,-3.01887 1.59787,-4.31247 -0.3947,-7.28627 -4.26228,-6.36122 -2.6022,-6.66056 3.36684,-0.6071 3.18425,3.22928 6.37317,5.33308 7.08652,4.67511 0.71333,-0.65797 0.82913,0.62319 0.25736,2.84701 -0.60213,2.3418 -0.40023,3.45355 0.47978,2.64185 0.89235,-0.82309 1.49176,3.06494 1.4524,9.42108 -0.0428,6.90171 -0.83751,11.20955 -2.19382,11.89078 -1.72599,0.86691 -1.77069,0.0751 -0.23718,-4.20129 z m 130.6414,1.50167 c -4.60034,-2.54261 -6.1141,-10.91503 -1.9735,-10.91503 1.30251,0 2.3682,-1.06032 2.3682,-2.35627 0,-1.29595 1.22377,-2.35627 2.7195,-2.35627 2.15945,0 1.9465,0.80805 -1.03413,3.92384 -3.75361,3.92384 -3.75361,3.92384 -0.12757,8.30586 4.45427,5.38303 3.77576,6.56385 -1.95244,3.39787 z m -165.7753,-8.95004 c 0.75995,-8.45596 0.52033,-9.60912 -1.72903,-8.3209 -3.57179,2.04558 -3.28425,-1.42979 0.54636,-6.60357 3.52741,-4.76428 3.09565,-6.07599 3.87796,11.78135 0.35631,8.13325 -0.50688,12.95949 -2.31785,12.95949 -0.6928,0 -0.86265,-4.41737 -0.37744,-9.81637 z m -33.708,4.51476 c -0.62463,-1.61994 -0.57314,-2.18741 0.11441,-1.26104 2.1515,2.89876 7.15013,-2.78429 7.15013,-8.12913 0,-3.91883 0.43165,-4.45669 1.86266,-2.32098 1.43101,2.1357 1.36919,4.15603 -0.26678,8.7182 -2.26097,6.30505 -6.96996,7.8957 -8.86042,2.99295 z"
       id="path5752"
       inkscape:connector-curvature="0" />
    <path
       style="fill:#4e2d18;fill-opacity:1"
       d="m 157.39909,-159.07111 c -0.31522,-14.36634 7.9471,-33.83422 11.87289,-27.97521 0.42524,0.63466 -0.70205,1.85268 -2.50509,2.70676 -4.37862,2.07408 -6.88807,9.3698 -8.12377,23.61826 -1.02174,11.78136 -1.02174,11.78136 -1.24403,1.65019 z m 243.67337,-5.31673 c 0.68095,-8.03038 -2.00452,-19.30506 -4.13102,-17.34363 -0.73143,0.67464 -0.90675,-0.41893 -0.38963,-2.43014 1.03567,-4.028 -1.77759,-5.08455 -3.36051,-1.26209 -1.54163,3.72279 -3.91453,0.28263 -2.79864,-4.05736 0.73888,-2.87368 0.33597,-3.49086 -1.56734,-2.40083 -1.68893,0.96728 -2.29819,0.44164 -1.788,-1.5426 0.5882,-2.28768 -2.08247,-2.96555 -11.13139,-2.82533 -8.12165,0.12582 -11.90545,-0.69352 -11.90588,-2.57814 -0.002,-8.54006 -26.69772,-12.17398 -31.30739,-4.26164 -3.90089,6.69574 -4.29081,9.7054 -1.4533,11.21785 6.12481,3.26461 -2.91901,5.59029 -11.05159,2.84199 -4.1412,-1.39946 -5.13109,-1.00396 -5.13109,2.05007 0,3.58212 1.80294,4.73936 11.05159,7.09367 2.17085,0.55259 0.44126,0.84944 -3.84353,0.65964 -7.79053,-0.34508 -7.79053,-0.34508 -11.83827,-14.96317 -2.83966,-10.25517 -5.07582,-15.00317 -7.49236,-15.90836 -4.86863,-1.82368 -8.40182,-7.76303 -8.40182,-14.1236 0,-2.98923 -1.3236,-6.88968 -2.94135,-8.6677 -2.33397,-2.5652 -2.785,-5.35922 -2.18422,-13.53077 0.41641,-5.6639 1.25328,-9.09984 1.85971,-7.63544 0.60642,1.46442 5.31925,3.19736 10.47292,3.85097 5.15369,0.6536 12.05252,1.72066 15.33077,2.37121 4.39127,0.87144 6.20133,0.2459 6.87551,-2.37614 0.79447,-3.08985 1.46557,-3.12828 5.09115,-0.29144 2.29685,1.79715 7.37315,5.193 11.28068,7.54633 3.90752,2.35335 11.72258,8.56452 17.36678,13.80263 11.71227,10.86954 25.04588,12.43472 51.37751,6.03097 10.30068,-2.5051 13.40569,-2.52175 16.45239,-0.0884 3.18345,2.54269 4.04151,2.41581 5.63332,-0.83313 2.05632,-4.19692 7.05552,-5.24308 7.05552,-1.47635 0,1.29595 -1.40739,2.35627 -3.12752,2.35627 -2.01931,0 -3.47853,2.0873 -4.11815,5.89068 -0.54485,3.23987 -2.15691,5.97439 -3.58238,6.0767 -1.63787,0.11758 -1.86541,0.62342 -0.61824,1.37448 4.60147,2.77107 1.16905,7.03964 -9.84323,12.24111 -14.58915,6.89094 -15.35689,8.22591 -14.07707,24.47748 0.65293,8.29105 0.40739,13.48884 -0.68476,14.49622 -1.12214,1.03504 -1.49008,-0.93633 -1.07917,-5.78205 z m -8.22938,-35.80098 c 1.05019,-4.49327 -0.48878,-8.83602 -3.13129,-8.83602 -1.51085,0 -2.02126,1.34932 -1.40989,3.72713 0.52709,2.04991 0.95832,4.70071 0.95832,5.89067 0,3.22364 2.78893,2.61509 3.58286,-0.78178 z m -263.81948,21.7955 c 0.0301,-4.53582 -0.0172,-9.45305 -0.10523,-10.92716 -0.14657,-2.45592 -14.98276,-12.70614 -23.44724,-16.19957 -1.95376,-0.80634 -3.64111,-2.98511 -3.74965,-4.84171 -0.10854,-1.85658 -0.28615,-5.19986 -0.3947,-7.42951 -0.4938,-10.14358 6.82235,-11.2063 37.64952,-5.46893 13.20912,2.45842 23.74938,1.24727 27.58165,-3.16927 1.81658,-2.09355 2.00073,-1.90953 0.91142,0.91074 -0.75082,1.94392 0.4583,0.8836 2.68692,-2.35627 4.95485,-7.20312 22.25414,-20.59609 29.25337,-22.64771 2.8221,-0.82724 5.14197,-2.69692 5.15527,-4.15486 0.0159,-1.75111 0.44446,-1.66327 1.26248,0.25883 1.7295,4.06372 14.10239,4.15965 26.99824,0.20924 8.00676,-2.45271 9.54358,-0.591 9.58211,11.60779 0.0159,5.04133 -0.73759,7.65788 -2.20526,7.65788 -1.35312,0 -2.62991,3.53784 -3.24833,9.00069 -0.83535,7.37937 -1.92686,9.49259 -6.05927,11.73138 -5.13943,2.78435 -12.1585,18.37294 -12.14934,26.9824 0.003,2.26791 -0.52846,4.17736 -1.17971,4.24322 -0.65126,0.066 -4.38117,0.55238 -8.2887,1.08115 -5.81674,0.78716 -6.22104,0.62005 -2.23038,-0.92187 6.11885,-2.36418 8.54558,-4.57392 8.54558,-7.78144 0,-2.33605 -1.15669,-2.19175 -12.99189,1.62086 -3.87617,1.24868 -5.37003,-3.6989 -2.17095,-7.19007 2.48038,-2.70683 2.38661,-3.41433 -1.223,-9.22715 -4.73842,-7.63062 -23.11443,-6.79162 -30.06911,1.37288 -2.72988,3.20476 -6.75368,4.49013 -15.10424,4.82491 -8.77432,0.35177 -11.56227,1.30403 -12.16515,4.15519 -0.43017,2.03438 -1.08875,5.187 -1.46351,7.00587 -0.52954,2.57006 -1.18827,2.3075 -2.95593,-1.17813 -2.19741,-4.33309 -2.27624,-4.3054 -2.32475,0.81645 -0.0276,2.91588 -0.69416,5.3016 -1.4812,5.3016 -0.78705,0 -1.08065,2.38573 -0.65245,5.30161 0.58085,3.95531 0.38345,4.46683 -0.77731,2.01426 -1.27274,-2.68917 -1.70945,-2.47477 -2.39993,1.17813 -0.46943,2.48347 -0.81978,0.80507 -0.78933,-3.78146 z m 12.36521,-23.36999 c 0,-1.18996 0.43124,-3.84076 0.95831,-5.89067 0.62885,-2.44579 0.0861,-3.72713 -1.5788,-3.72713 -1.65372,0 -2.53711,2.05107 -2.53711,5.89068 0,3.23987 0.71046,5.89067 1.5788,5.89067 0.86834,0 1.5788,-0.97361 1.5788,-2.16355 z m 93.38568,-182.35365 c -0.1301,-2.3444 -0.87257,-3.67589 -1.64993,-2.95888 -0.77733,0.71702 -1.86708,-0.46103 -2.42165,-2.61789 -1.11904,-4.3522 2.26229,-8.76619 4.33996,-5.66539 0.72639,1.08411 1.0164,5.01616 0.64445,8.7379 -0.37195,3.72173 -0.78272,4.84865 -0.91283,2.50426 z m 59.90662,0.72812 c -0.16996,-5.97919 2.502,-10.2195 5.39545,-8.56241 2.18995,1.2542 2.33662,2.21245 0.76985,5.02995 -1.06452,1.91432 -2.50478,2.95548 -3.20057,2.3137 -0.69578,-0.64178 -1.62488,0.16513 -2.06466,1.79315 -0.54944,2.03391 -0.83103,1.8542 -0.90007,-0.57439 z"
       id="path5750"
       inkscape:connector-curvature="0" />
  </g>
</svg>
