<?xml version="1.0" encoding="UTF-8" standalone="no"?>
<svg
   xmlns:dc="http://purl.org/dc/elements/1.1/"
   xmlns:cc="http://creativecommons.org/ns#"
   xmlns:rdf="http://www.w3.org/1999/02/22-rdf-syntax-ns#"
   xmlns:svg="http://www.w3.org/2000/svg"
   xmlns="http://www.w3.org/2000/svg"
   xmlns:sodipodi="http://sodipodi.sourceforge.net/DTD/sodipodi-0.dtd"
   xmlns:inkscape="http://www.inkscape.org/namespaces/inkscape"
   sodipodi:docname="scythe.svg"
   height="100%"
   width="100%"
   inkscape:version="0.48.4 r9939"
   version="1.1"
   id="svg8438"
   viewBox="0 0 512 512">
  <metadata
     id="metadata8464">
    <rdf:RDF>
      <cc:Work
         rdf:about="">
        <dc:format>image/svg+xml</dc:format>
        <dc:type
           rdf:resource="http://purl.org/dc/dcmitype/StillImage" />
        <dc:title></dc:title>
      </cc:Work>
    </rdf:RDF>
  </metadata>
  <defs
     id="defs8462">
    <linearGradient
       id="linearGradient4077">
      <stop
         id="stop4079"
         offset="0"
         style="stop-color:#aa4400;stop-opacity:1;" />
      <stop
         style="stop-color:#ff9f00;stop-opacity:1;"
         offset="0.22752622"
         id="stop4081" />
      <stop
         style="stop-color:#803300;stop-opacity:1;"
         offset="0.4948855"
         id="stop4083" />
      <stop
         id="stop4085"
         offset="1"
         style="stop-color:#562200;stop-opacity:1;" />
    </linearGradient>
    <linearGradient
       id="linearGradient4057">
      <stop
         style="stop-color:#aa4400;stop-opacity:1;"
         offset="0"
         id="stop4059" />
      <stop
         id="stop4067"
         offset="0.22752622"
         style="stop-color:#ecd1a4;stop-opacity:1;" />
      <stop
         id="stop4065"
         offset="0.50136983"
         style="stop-color:#803300;stop-opacity:1;" />
      <stop
         style="stop-color:#562200;stop-opacity:1;"
         offset="1"
         id="stop4061" />
    </linearGradient>
    <linearGradient
       id="linearGradient3890">
      <stop
         style="stop-color:#701b1b;stop-opacity:1;"
         offset="0"
         id="stop3892" />
      <stop
         style="stop-color:#e31600;stop-opacity:1;"
         offset="1"
         id="stop3894" />
    </linearGradient>
    <linearGradient
       id="linearGradient3882">
      <stop
         style="stop-color:#600b0b;stop-opacity:1;"
         offset="0"
         id="stop3884" />
      <stop
         style="stop-color:#d11414;stop-opacity:1;"
         offset="1"
         id="stop3886" />
    </linearGradient>
    <linearGradient
       id="linearGradient3872">
      <stop
         style="stop-color:#800600;stop-opacity:1;"
         offset="0"
         id="stop3874" />
      <stop
         style="stop-color:#ff0004;stop-opacity:0;"
         offset="1"
         id="stop3876" />
    </linearGradient>
  </defs>
  <sodipodi:namedview
     pagecolor="#000000"
     bordercolor="#666666"
     borderopacity="1"
     objecttolerance="10"
     gridtolerance="10"
     guidetolerance="10"
     inkscape:pageopacity="0"
     inkscape:pageshadow="2"
     inkscape:window-width="1190"
     inkscape:window-height="1126"
     id="namedview8460"
     showgrid="false"
     inkscape:zoom="1"
     inkscape:cx="158.4638"
     inkscape:cy="134.74523"
     inkscape:window-x="160"
     inkscape:window-y="130"
     inkscape:window-maximized="0"
     inkscape:current-layer="svg8438" />
  <path
     style="fill:#000000"
     id="path3978"
     d="M -13.466093,0.1885736 H 514.89024 V 516.42957 H -13.466093 z"
     inkscape:connector-curvature="0" />
  <path
     transform="matrix(0.92592215,0,0,1,-12.92858,0)"
     sodipodi:end="6.1122693"
     sodipodi:start="6.11213"
     d="m 101.95774,-78.577314 a 39.244427,23.688076 0 0 1 9.3e-4,0.0033 l -38.672613,4.028989 z"
     sodipodi:ry="23.688076"
     sodipodi:rx="39.244427"
     sodipodi:cy="-74.545074"
     sodipodi:cx="63.286057"
     id="path4121"
     style="fill:#333333;fill-opacity:1;fill-rule:nonzero;stroke:none"
     sodipodi:type="arc" />
  <path
     transform="matrix(0.92592215,0,0,1,-12.92858,0)"
     sodipodi:end="6.1122693"
     sodipodi:start="6.11213"
     d="m 76.035958,-54.360671 a 10.606602,11.755651 0 0 1 2.51e-4,0.0016 l -10.452057,1.999461 z"
     sodipodi:ry="11.755651"
     sodipodi:rx="10.606602"
     sodipodi:cy="-52.359596"
     sodipodi:cx="65.584152"
     id="path4123"
     style="fill:#333333;fill-opacity:1;fill-rule:nonzero;stroke:none"
     sodipodi:type="arc" />
  <path
     transform="matrix(0.92592215,0,0,1,-12.92858,0)"
     sodipodi:end="6.1122693"
     sodipodi:start="6.11213"
     d="m 69.424272,-57.251206 a 15.46796,16.793785 0 0 1 3.67e-4,0.0023 l -15.242583,2.856372 z"
     sodipodi:ry="16.793785"
     sodipodi:rx="15.46796"
     sodipodi:cy="-54.392529"
     sodipodi:cx="54.182056"
     id="path4125"
     style="fill:#333333;fill-opacity:1;fill-rule:nonzero;stroke:none"
     sodipodi:type="arc" />
  <g
     id="g3919"
     style="fill:#800000">
    <path
       transform="matrix(1.4080165,-0.40922751,0.42111452,1.3877303,-218.35993,-29.566129)"
       sodipodi:open="true"
       sodipodi:end="12.386132"
       sodipodi:start="6.11213"
       d="m 255.42571,303.67038 a 37.476658,16.086679 0 1 1 -0.0601,-0.14546"
       sodipodi:ry="16.086679"
       sodipodi:rx="37.476658"
       sodipodi:cy="306.40869"
       sodipodi:cx="218.496"
       id="path3911"
       style="opacity:0.98999999000000005;fill:#800000;fill-opacity:1;fill-rule:nonzero;stroke:none"
       sodipodi:type="arc" />
    <path
       sodipodi:type="arc"
       style="opacity:0.98999999000000005;fill:#800000;fill-opacity:1;fill-rule:nonzero;stroke:none"
       id="path3913"
       sodipodi:cx="218.496"
       sodipodi:cy="306.40869"
       sodipodi:rx="37.476658"
       sodipodi:ry="16.086679"
       d="m 255.42571,303.67038 a 37.476658,16.086679 0 1 1 -0.0601,-0.14546"
       sodipodi:start="6.11213"
       sodipodi:end="12.386132"
       sodipodi:open="true"
       transform="matrix(1.4080165,-0.40922751,0.42111452,1.3877303,-243.81577,-21.434401)" />
    <path
       inkscape:transform-center-y="7.3788923"
       inkscape:transform-center-x="28.008986"
       transform="matrix(0.5239992,-0.23561419,0.15671952,0.79899063,288.62215,248.12918)"
       sodipodi:open="true"
       sodipodi:end="12.386132"
       sodipodi:start="6.11213"
       d="m 255.42571,303.67038 a 37.476658,16.086679 0 1 1 -0.0601,-0.14546"
       sodipodi:ry="16.086679"
       sodipodi:rx="37.476658"
       sodipodi:cy="306.40869"
       sodipodi:cx="218.496"
       id="path3915"
       style="opacity:0.98999999000000005;fill:#800000;fill-opacity:1;fill-rule:nonzero;stroke:none"
       sodipodi:type="arc" />
    <path
       sodipodi:type="arc"
       style="opacity:0.98999999000000005;fill:#800000;fill-opacity:1;fill-rule:nonzero;stroke:none"
       id="path3917"
       sodipodi:cx="218.496"
       sodipodi:cy="306.40869"
       sodipodi:rx="37.476658"
       sodipodi:ry="16.086679"
       d="m 255.42571,303.67038 a 37.476658,16.086679 0 1 1 -0.0601,-0.14546"
       sodipodi:start="6.11213"
       sodipodi:end="12.386132"
       sodipodi:open="true"
       transform="matrix(0.59883665,-0.23828517,0.17910217,0.80804817,254.80563,236.92187)"
       inkscape:transform-center-x="32.009222"
       inkscape:transform-center-y="7.4625482" />
  </g>
  <g
     id="g3897">
    <path
       style="fill:#949194"
       d="m 433.34844,459.41675 c -5.72267,-1.93313 -8.01129,-4.09906 -14.50127,-13.72382 -4.23839,-6.28562 -8.42187,-12.32473 -9.29662,-13.42024 -3.19384,-3.99992 -21.44954,-23.82049 -25.41387,-27.5923 -2.24223,-2.13338 -6.67425,-6.786 -9.84891,-10.33919 -3.17468,-3.55318 -6.1848,-6.05504 -6.68918,-5.55969 -0.50438,0.49534 -0.91704,0.1929 -0.91704,-0.6721 0,-2.58993 -5.74983,-8.28644 -7.12795,-7.06184 -0.70277,0.62448 -0.84317,0.38474 -0.312,-0.53278 0.53117,-0.91751 -3.0872,-5.42382 -8.04081,-10.01402 -4.95362,-4.59019 -7.94019,-7.75205 -6.63683,-7.02636 1.30336,0.72569 -1.94,-2.79725 -7.20746,-7.82873 -5.26744,-5.03149 -8.0769,-8.10087 -6.24319,-6.82085 1.83369,1.28002 1.16697,0.35789 -1.48161,-2.04919 -11.94658,-10.85729 -13.36005,-12.44077 -12.42768,-13.92238 0.54509,-0.86617 0.21942,-1.1065 -0.72369,-0.53406 -1.57482,0.95588 -4.22128,-1.47064 -4.27865,-3.92303 -0.0126,-0.56889 -0.67136,-1.61618 -1.46235,-2.32731 -0.84465,-0.75938 -0.96488,-0.33253 -0.29132,1.03436 0.63076,1.28003 -2.06613,-1.10792 -5.99311,-5.30654 -3.92696,-4.19861 -6.70744,-8.32111 -6.17884,-9.1611 0.52861,-0.83998 0.20514,-1.06839 -0.71882,-0.50759 -1.94003,1.17754 -9.86707,-7.45423 -9.86707,-10.74428 0,-2.82868 -1.607,-2.7927 -5.85745,0.1311 -5.62358,3.86842 -33.94231,19.38224 -35.38003,19.38224 -0.73519,0 -2.43962,-2.09458 -3.78761,-4.65463 -1.34798,-2.56005 -2.77285,-4.65463 -3.16635,-4.65463 -1.09708,0 2.90728,8.39796 4.54913,9.54047 1.93636,1.34745 -5.60419,4.99408 -16.95591,8.19989 -13.58304,3.83596 -12.4664,2.03198 1.38252,-2.23349 10.56301,-3.25343 11.74506,-4.0009 10.85414,-6.86375 -0.54989,-1.76699 -1.70326,-4.07657 -2.56301,-5.1324 -0.85978,-1.05581 -1.15054,-2.97584 -0.64615,-4.26674 1.25912,-3.22248 -1.76579,-2.97705 -12.35413,1.00231 -6.05797,2.27677 -8.25322,3.75978 -6.85484,4.63088 1.53642,0.95708 1.35731,1.2875 -0.70751,1.30525 -1.52058,0.0124 -2.7647,0.72195 -2.7647,1.5753 0,0.85335 -1.08929,1.55154 -2.42064,1.55154 -2.30566,0 -5.72266,5.94343 -4.55262,7.91872 0.30517,0.51524 -1.31977,1.77563 -3.61103,2.80091 -3.81117,1.70541 -3.97939,1.64342 -1.97553,-0.72785 1.92138,-2.27366 1.83041,-2.52236 -0.74071,-2.02513 -4.03694,0.7807 -6.61164,7.57018 -2.8418,7.4938 1.49259,-0.0303 4.49111,-1.05279 6.66337,-2.27233 2.17226,-1.21955 5.72687,-2.18698 7.89914,-2.14985 3.71836,0.0636 3.67213,0.15781 -0.78992,1.61002 -2.60671,0.84837 -6.16133,2.18896 -7.89914,2.97909 -15.78047,7.17484 -49.93314,9.72167 -69.77223,5.20307 -37.655942,-8.57666 -75.864876,-39.22978 -94.542775,-75.847 -11.483114,-22.51214 -13.879421,-33.89712 -14.055748,-66.7796 -0.139314,-25.98018 0.165133,-29.11478 4.365645,-44.94892 6.90072,-26.01277 24.568532,-63.908163 33.1783,-71.163574 1.859998,-1.567411 2.422233,-2.355897 1.249413,-1.752193 -1.7252,0.888041 -1.785484,0.461031 -0.315692,-2.236133 0.999191,-1.833578 2.456294,-2.94557 3.238007,-2.471094 0.781713,0.474475 2.207107,-0.727809 3.167543,-2.671746 1.7156,-3.472398 1.699397,-3.479968 -0.923186,-0.431341 -5.561949,6.465496 -0.793221,-2.034039 8.114319,-14.46254 9.480603,-13.228087 9.70824,-13.42775 12.982398,-11.387044 1.558376,0.9713 0.558519,5.528434 -4.424178,20.164436 -7.938873,23.319384 -10.866668,37.876479 -12.102575,60.174399 -3.475989,62.71295 23.686222,117.23351 69.191029,138.8817 24.10486,11.4675 58.56253,14.5016 87.5068,7.70522 15.00449,-3.52319 42.83004,-15.8507 50.97982,-22.5855 4.74659,-3.92249 9.84354,-4.01957 9.84354,-0.18747 0,1.02906 2.2994,3.92169 5.10975,6.42806 4.29502,3.83041 4.61382,3.93856 1.99948,0.67816 -2.61435,-3.2604 -2.29554,-3.15226 1.99948,0.67816 5.29651,4.7236 7.21646,9.08342 2.34722,5.3301 -1.51936,-1.17117 -0.63071,0.43842 1.97479,3.57686 2.60551,3.13845 5.39441,5.75668 6.19755,5.81829 0.80315,0.0616 -0.20942,-1.63346 -2.25016,-3.76684 -2.04074,-2.13337 -3.01096,-3.87885 -2.15607,-3.87885 0.85489,0 9.68761,8.54452 19.62827,18.9878 9.94065,10.4433 30.1648,31.56368 44.94253,46.93418 14.77774,15.37052 37.49751,39.00484 50.48839,52.52072 15.10623,15.71671 26.20607,25.90939 30.7951,28.27829 9.30468,4.80314 11.7725,6.82002 14.11568,11.53642 l 1.92709,3.87886 -3.42378,-3.87886 c -1.88308,-2.13337 -5.21487,-5.0346 -7.40398,-6.44719 -3.90541,-2.52008 -4.10065,-2.4472 -10.39171,3.87886 -3.52633,3.54596 -6.25991,7.02273 -6.07461,7.72617 0.18528,0.70344 -0.26219,0.91536 -0.99439,0.47094 -0.73222,-0.44444 -3.41579,0.55466 -5.9635,2.22021 -2.54773,1.66554 -6.94271,4.48992 -9.76665,6.27638 -6.39706,4.04686 -6.69252,5.36412 -0.49748,2.2179 4.34709,-2.20772 4.69942,-2.16172 5.63587,0.73592 0.54938,1.69997 1.70386,3.09087 2.56548,3.09087 0.86164,0 1.12724,0.6982 0.59022,1.55154 -0.53701,0.85335 -0.342,1.55155 0.43338,1.55155 2.74697,0 3.38274,-2.00168 1.66637,-5.24651 -1.68577,-3.187 -1.62092,-3.18079 2.13218,0.20399 2.12898,1.92004 5.21133,3.49097 6.84969,3.49097 2.15427,0 2.50103,0.46927 1.25266,1.69528 -1.24836,1.22602 -2.64776,1.2109 -5.05544,-0.0546 -3.41692,-1.79594 -4.22592,-0.77431 -2.05023,2.58911 0.92191,1.42517 2.7048,1.50274 7.10627,0.3092 3.23157,-0.87631 6.52784,-1.1974 7.32503,-0.71352 0.79718,0.48386 1.89599,0.17017 2.44175,-0.69709 0.54577,-0.86727 0.0618,-1.59808 -1.0757,-1.62404 -1.44381,-0.0329 -1.33015,-0.47142 0.37653,-1.45269 2.07106,-1.19075 2.71536,-5.46038 1.70873,-11.32316 -0.11201,-0.65255 -2.51422,-2.63718 -5.33816,-4.41026 -4.63504,-2.91023 -4.74465,-3.13958 -1.12683,-2.35799 3.50332,0.75685 4.00032,0.35468 3.94957,-3.196 -0.0319,-2.234 0.92957,-4.39508 2.13666,-4.80243 1.46603,-0.49474 1.77838,-0.0791 0.94077,1.25193 -0.6959,1.10581 -0.618,1.6269 0.17504,1.1709 0.78594,-0.4519 3.44537,1.07556 5.90985,3.39439 4.18245,3.93524 4.30549,4.38829 1.84742,6.80235 -1.4484,1.42247 -3.21566,2.23295 -3.92723,1.80105 -0.71157,-0.4319 -1.54325,2.29535 -1.84816,6.06058 -0.43008,5.31062 -0.11533,6.48795 1.40374,5.24985 1.07697,-0.87782 1.54085,-2.2591 1.03085,-3.06953 -0.9889,-1.57144 3.70895,-7.48415 5.94641,-7.48415 2.23852,0 1.48731,6.27821 -1.04929,8.7694 -1.31135,1.28786 -1.96804,3.00298 -1.45932,3.81138 1.83812,2.92088 -12.15118,12.1538 -19.64956,12.9687 -2.2846,0.24829 -7.21163,-0.5815 -10.94893,-1.84398 z M 179.07702,340.03956 c -1.08613,-0.43042 -2.86343,-0.43042 -3.94956,0 -1.08614,0.43041 -0.19748,0.78258 1.97478,0.78258 2.17226,0 3.06092,-0.35217 1.97478,-0.78258 z m 12.53989,-4.68695 c -1.14043,-0.4482 -2.50304,-0.39309 -3.02801,0.12241 -0.52496,0.51557 0.40813,0.88227 2.07352,0.81491 1.84042,-0.0745 2.21476,-0.4421 0.95449,-0.93738 z m 102.39257,-29.00525 c 0,-0.32218 -1.24411,-1.54402 -2.7647,-2.7152 -2.5057,-1.92992 -2.56158,-1.87504 -0.59648,0.5858 2.06384,2.58448 3.36118,3.40638 3.36118,2.1294 z m 139.02483,131.00701 c 0,-0.80299 0.70278,-1.88656 1.56173,-2.4079 0.89554,-0.54357 1.16039,0.0793 0.62089,1.45997 -1.05025,2.68792 -2.18262,3.17971 -2.18262,0.94793 z M 230.02646,316.24242 c 0.53702,-0.85335 1.68731,-1.55154 2.55621,-1.55154 0.86891,0 1.14046,0.69819 0.60345,1.55154 -0.53702,0.85335 -1.68731,1.55154 -2.55621,1.55154 -0.86891,0 -1.14046,-0.69819 -0.60345,-1.55154 z m -7.11161,-2.25534 c 2.17096,-1.17995 4.28314,-1.81544 4.69373,-1.4122 1.06285,1.04382 -3.44931,3.62597 -6.27117,3.5888 -1.37385,-0.0181 -0.71092,-0.93282 1.57744,-2.1766 z m 8.69144,-2.39929 c -0.53701,-0.85335 -0.22351,-1.55154 0.69667,-1.55154 0.92019,0 1.67307,0.69819 1.67307,1.55154 0,0.85335 -0.3135,1.55154 -0.69667,1.55154 -0.38317,0 -1.13605,-0.69819 -1.67307,-1.55154 z"
       id="path3909"
       inkscape:connector-curvature="0" />
    <path
       style="fill:#817d82"
       d="m 442.09623,459.40096 6.69219,-0.59286 -3.24641,-3.40281 c -3.19285,-3.34668 -3.19522,-3.41067 -0.14377,-3.87728 1.70645,-0.26095 5.48777,0.14755 8.40293,0.90775 l 5.30029,1.3822 -5.5294,3.3532 c -3.58774,2.17571 -7.74843,3.26004 -11.8487,3.08791 l -6.31931,-0.26525 6.69218,-0.59286 z m -15.58276,-4.6833 c -1.9651,-2.46084 -1.90922,-2.51572 0.59648,-0.5858 2.6316,2.02689 3.46848,3.301 2.16822,3.301 -0.32805,0 -1.57216,-1.22184 -2.7647,-2.7152 z m 12.05023,-0.68108 -3.15965,-3.21185 3.46663,1.76086 c 3.6494,1.8537 6.30618,4.91201 4.13079,4.75506 -0.70296,-0.0507 -2.69996,-1.53755 -4.43777,-3.30407 z m -17.38687,-5.92249 c -1.57752,-1.71193 -2.57635,-3.38904 -2.21964,-3.7269 0.35672,-0.33787 1.92589,1.0628 3.48703,3.11259 3.4478,4.52697 2.68069,4.89879 -1.26739,0.61431 z m 8.14592,0.83498 c -0.48946,-1.25271 -0.35764,-2.60073 0.29295,-2.99562 0.65059,-0.39488 1.28628,0.63005 1.41265,2.27764 0.2733,3.56321 -0.47139,3.87668 -1.7056,0.71798 z m 27.71696,-9.35896 c -0.0322,-2.56005 0.29552,-3.79517 0.72828,-2.74473 0.43275,1.05044 0.45908,3.14503 0.0586,4.65463 -0.40055,1.50961 -0.75462,0.65015 -0.78681,-1.9099 z m -43.69361,-2.7152 c -3.38497,-5.70603 -8.48364,-11.38155 -44.88376,-49.96162 -14.22639,-15.07841 -33.34902,-35.57685 -42.49473,-45.5521 -9.1457,-9.97526 -18.51813,-19.93367 -20.82761,-22.12981 -2.30951,-2.19614 -5.81301,-6.21896 -7.7856,-8.93961 -1.97259,-2.72066 -4.23495,-4.55306 -5.02745,-4.07204 -0.79252,0.48102 -1.01755,-0.20896 -0.5001,-1.5333 0.60977,-1.56057 0.0475,-2.4079 -1.59791,-2.4079 -1.39633,0 -2.53877,-0.97355 -2.53877,-2.16344 0,-1.36865 -7.59022,2.10188 -20.66091,9.44691 -11.36351,6.38569 -20.8408,11.37385 -21.06068,11.0848 -3.26487,-4.29202 -8.55617,-16.00123 -7.78476,-17.22706 0.56094,-0.89136 0.37686,-1.26526 -0.40908,-0.83089 -8.18703,4.52491 -27.14173,12.45728 -29.72824,12.44101 -10.14659,-0.0638 -15.72859,-1.48278 -18.35253,-4.66518 -1.94605,-2.36026 -4.55865,-3.43152 -8.36879,-3.43152 -3.0467,0 -5.77874,-0.52365 -6.0712,-1.16366 -0.29244,-0.64001 -2.46361,-2.83707 -4.82481,-4.88235 -3.08356,-2.67099 -4.86252,-3.2744 -6.3142,-2.14173 -1.1116,0.86733 -4.68705,2.04873 -7.94545,2.62533 -3.25839,0.57662 -5.92435,1.59859 -5.92435,2.27104 0,0.67246 -0.88865,1.25021 -1.97478,1.28389 -1.08614,0.0337 -2.68571,0.23273 -3.55462,0.44233 -3.41028,0.82261 -5.66584,-0.0659 -4.57355,-1.80161 0.78932,-1.25428 0.24693,-1.47776 -1.75524,-0.72322 -3.6219,1.36497 -5.82456,-1.76114 -3.82558,-5.4294 0.91951,-1.68735 0.90786,-3.0482 -0.031,-3.61803 -0.82766,-0.50236 -2.27644,0.50256 -3.21952,2.23315 -0.94307,1.73061 -2.89192,3.14654 -4.33078,3.14654 -2.23035,0 -2.16392,0.3359 0.45054,2.27798 2.7748,2.06118 2.80354,2.28266 0.30195,2.32731 -1.52059,0.0272 -2.7647,0.78875 -2.7647,1.69246 0,0.90371 0.71092,1.2116 1.57983,0.6842 0.8689,-0.5274 1.57982,-0.21951 1.57982,0.6842 0,1.9063 -1.72692,2.20828 -9.87392,1.72657 -3.42803,-0.20269 -5.92435,0.3597 -5.92435,1.33467 0,0.92674 -1.24411,1.70716 -2.7647,1.7343 -2.62068,0.0467 -2.62196,0.15579 -0.0246,2.09285 1.50708,1.12392 2.27725,2.4981 1.71148,3.05374 -0.91669,0.90027 3.11239,1.67466 6.21222,1.19398 0.65167,-0.10101 1.18487,0.48755 1.18487,1.30801 0,1.71582 12.5043,5.36351 13.8513,4.04062 0.49156,-0.48274 -0.29112,-0.87774 -1.7393,-0.87774 -4.12128,0 -3.09612,-2.14428 2.10644,-4.40593 2.60671,-1.13318 4.73948,-3.05576 4.73948,-4.27241 0,-2.80118 11.85001,-2.10985 16.89729,0.98579 3.95253,2.42421 6.45487,7.33807 5.62265,11.0412 -0.72564,3.22889 -18.24944,5.69445 -21.52094,3.02795 -1.1438,-0.93228 -2.48465,-1.29728 -2.97967,-0.81112 -0.934,0.91727 -19.96479,-5.35265 -29.59539,-9.75056 -6.216831,-2.83899 -19.482106,-11.61832 -25.040757,-16.57267 l -3.692594,-3.29117 0.532939,4.65463 c 0.348042,3.03975 1.310846,4.48969 2.775145,4.17921 1.853936,-0.39312 1.888831,-0.0573 0.201515,1.93943 -1.25396,1.48386 -1.393002,2.41485 -0.360659,2.41485 0.924019,0 2.135038,-0.72303 2.691156,-1.60673 0.573264,-0.91096 2.915952,0.74725 5.409848,3.82924 2.4193,2.98978 4.963213,4.93465 5.653138,4.32193 0.689926,-0.61272 0.821885,0.0723 0.293241,1.52214 -0.69208,1.89816 -0.30217,2.38784 1.392719,1.74909 1.397926,-0.52683 2.167252,-0.10333 1.894329,1.04281 -1.005834,4.22395 19.72357,12.62718 44.47297,18.02835 12.6846,2.76822 14.68146,4.45937 3.63006,3.07433 C 126.08911,341.06815 99.312213,329.49027 80.478064,315.2687 57.509738,297.92544 36.245902,266.99743 29.411238,240.99257 25.566102,226.36242 23.43344,203.4838 24.493841,188.2401 c 1.481808,-21.30159 6.343243,-38.80008 18.750683,-67.49213 0.922544,-2.13337 1.766723,-4.22796 1.875952,-4.65463 0.109229,-0.42668 1.384563,-2.95638 2.834072,-5.62158 1.449509,-2.66519 2.308363,-5.28342 1.908566,-5.81828 -0.399799,-0.53487 -0.270505,-0.64062 0.287321,-0.23501 0.557826,0.40562 2.787981,-2.56171 4.955899,-6.594055 2.167917,-4.032348 8.465277,-13.86179 13.994131,-21.843207 10.373657,-14.975338 11.33359,-16.704166 8.228542,-14.819495 -1.224204,0.743052 -1.404922,0.39054 -0.549616,-1.072092 2.438905,-4.170692 5.963138,-7.531728 7.145156,-6.81428 0.654325,0.397155 2.068207,-0.317503 3.141958,-1.58813 4.524403,-5.353971 3.94412,-1.20486 -2.44358,17.471944 -8.328415,24.351208 -11.94316,44.751205 -11.971127,67.559655 -0.109587,89.37384 51.959552,145.57738 131.307512,141.73357 27.29403,-1.32218 46.26522,-7.33025 72.43857,-22.94089 11.48588,-6.85056 13.59283,-7.30817 12.36179,-2.68488 -0.48743,1.83053 0.2843,5.04396 1.7327,7.21494 3.01569,4.52013 3.77816,8.00702 2.26135,10.34169 -0.58608,0.90211 -1.07649,2.18699 -1.08979,2.85529 -0.0126,0.66829 -1.8015,2.0806 -3.97376,3.13846 -5.42875,2.64372 -6.64877,11.93765 -1.56708,11.93765 3.27816,0 7.90994,-3.30074 8.08681,-5.76288 0.17596,-2.44978 5.22076,-9.67747 7.30221,-10.46189 1.17724,-0.44366 1.70611,-0.11652 1.17524,0.7271 -0.53086,0.84358 0.32086,1.54447 1.89272,1.55754 2.42316,0.0202 2.49743,0.25257 0.4882,1.52779 -1.6661,1.05743 -1.76688,1.51107 -0.33938,1.52778 1.51708,0.0177 1.61693,0.78248 0.39496,3.02485 -2.39903,4.40238 -1.89982,6.00621 0.78457,2.52065 1.27573,-1.65646 2.31951,-4.27469 2.31951,-5.81829 0,-1.5436 0.8211,-2.80654 1.82468,-2.80654 1.03477,0 0.58681,-1.34334 -1.03477,-3.10308 -1.5727,-1.7067 -2.49688,-3.10309 -2.05376,-3.10309 1.29859,0 27.17697,26.47401 83.41496,85.33488 28.94396,30.29388 55.00348,56.53715 57.91003,58.31835 l 5.28467,3.23858 -6.71511,6.44206 c -7.5211,7.21526 -26.15464,20.43897 -28.80057,20.43897 -0.94635,0 -3.06671,-2.26913 -4.71196,-5.04251 z M 86.194688,314.79809 c 0.499906,-0.79439 0.304888,-1.81096 -0.433372,-2.25906 -0.738261,-0.44811 -1.342294,0.20184 -1.342294,1.44433 0,2.61616 0.498178,2.84474 1.775666,0.81473 z m 29.590492,-10.47635 c -1.14044,-0.44819 -2.50304,-0.39308 -3.028,0.12242 -0.52496,0.51556 0.40812,0.88227 2.07352,0.8149 1.84041,-0.0745 2.21476,-0.4421 0.95448,-0.93738 z m 125.48817,-8.48939 c -1.23911,-6.08464 -3.973,-9.46331 -6.79635,-8.39928 -2.75391,1.03786 -8.86875,-4.87622 -7.42077,-7.17714 0.74944,-1.19091 -0.10411,-1.42437 -2.70708,-0.74037 -2.0909,0.54945 -12.15499,1.00853 -22.36463,1.02019 -10.40635,0.0124 -18.56297,0.65669 -18.56297,1.46749 0,0.85025 8.29789,1.19556 20.13373,0.83787 13.013,-0.39326 19.29883,-0.0901 17.77306,0.85724 -1.81699,1.12813 -1.36009,1.47116 1.98386,1.48945 2.38949,0.0124 4.34452,0.83832 4.34452,1.83389 0,0.99557 -0.44884,1.36932 -0.99744,0.83054 -0.54859,-0.53877 -2.45518,0.0231 -4.23686,1.24878 -2.41451,1.66091 -3.77944,1.7882 -5.36005,0.49989 -1.16634,-0.95064 -2.5774,-1.27987 -3.13566,-0.73158 -0.55828,0.54827 -0.18563,0.99686 0.82808,0.99686 1.01373,0 1.84314,1.13279 1.84314,2.51729 0,2.11578 0.39718,2.19356 2.49015,0.48767 1.99577,-1.6267 2.73489,-1.64073 3.72293,-0.0706 2.18637,3.47429 10.2476,7.69651 14.91711,7.81311 4.2689,0.10659 4.48207,-0.18088 3.54523,-4.78122 z M 74.389256,294.18751 c 0.01327,-0.60999 -1.575384,-1.87034 -3.53042,-2.80078 -3.227962,-1.53628 -3.298029,-1.48812 -0.762471,0.52405 1.741597,1.38208 2.428538,3.31153 1.825756,5.1281 -0.797468,2.40327 -0.668423,2.50554 0.738279,0.58502 0.937566,-1.28002 1.71555,-2.8264 1.728856,-3.43639 z m 73.391064,3.58753 c 0.4847,-0.77022 -1.35674,-2.16661 -4.09208,-3.10309 -6.22692,-2.13185 -6.08169,-2.14419 -6.08169,0.51673 0,1.22067 1.59958,2.52197 3.55461,2.89179 1.95504,0.36981 4.04585,0.76747 4.64625,0.88369 0.6004,0.11621 1.48821,-0.41889 1.97291,-1.18912 z m 150.07588,-7.87045 c 2.22884,-0.83224 4.05242,-2.16798 4.05242,-2.96832 0,-0.8388 -2.00749,-0.711 -4.73949,0.30176 -2.60671,0.96631 -4.73948,2.30205 -4.73948,2.96832 0,1.55593 0.53038,1.52643 5.42655,-0.30176 z m -91.92211,-2.6175 c -1.08613,-0.43042 -2.86343,-0.43042 -3.94957,0 -1.08613,0.43041 -0.19747,0.78258 1.97479,0.78258 2.17226,0 3.06091,-0.35217 1.97478,-0.78258 z m -27.25202,-6.73016 c 0,-0.85335 -1.59958,-1.50247 -3.55461,-1.44249 -3.39174,0.10411 -3.40984,0.17014 -0.39496,1.44249 1.73781,0.73339 3.33738,1.38251 3.55461,1.44248 0.21723,0.06 0.39496,-0.58914 0.39496,-1.44248 z m -9.18275,-2.61142 c -1.14044,-0.4482 -2.50304,-0.39309 -3.028,0.12241 -0.52497,0.51557 0.40812,0.88227 2.07352,0.81491 1.84042,-0.0745 2.21476,-0.4421 0.95448,-0.93738 z m 64.77293,0 c -1.14045,-0.4482 -2.50305,-0.39309 -3.02801,0.12241 -0.52496,0.51557 0.40813,0.88227 2.07353,0.81491 1.84042,-0.0745 2.21476,-0.4421 0.95448,-0.93738 z M 119.9386,256.74052 c -0.27504,-0.12788 -2.62775,-1.978 -5.22825,-4.11137 -3.48883,-2.86214 -4.00556,-3.03248 -1.97133,-0.64987 1.51626,1.77595 2.2221,3.80792 1.56852,4.51551 -0.65357,0.70756 -0.29966,0.78425 0.78647,0.1704 1.08613,-0.61385 1.97478,-0.33549 1.97478,0.61859 0,0.95407 0.75822,1.27446 1.68494,0.71197 0.92671,-0.56248 1.4599,-1.12734 1.18487,-1.25523 z M 71.972603,183.97336 c -1.714773,-5.57409 -3.411029,-6.35222 -2.642912,-1.21241 0.386591,2.58686 1.381033,4.70338 2.209872,4.70338 0.828839,0 1.023706,-1.57094 0.43304,-3.49097 z M 83.892413,55.203196 c 0,-0.865493 -1.047836,-0.697487 -2.369741,0.379955 -1.303358,1.062325 -2.369742,2.629694 -2.369742,3.483043 0,0.865493 1.047837,0.697487 2.369742,-0.379956 1.303357,-1.062325 2.369741,-2.629694 2.369741,-3.483042 z M 455.95299,417.1105 c -0.55348,-0.87951 0.0807,-1.13961 1.48659,-0.60977 2.73692,1.03145 3.23768,2.14355 0.96521,2.14355 -0.81763,0 -1.92095,-0.69021 -2.4518,-1.53378 z m -293.0692,-91.46725 c 0,-0.90371 0.71092,-1.64311 1.57983,-1.64311 0.8689,0 1.57983,0.30788 1.57983,0.6842 0,0.37631 -0.71093,1.11571 -1.57983,1.64311 -0.86891,0.5274 -1.57983,0.21951 -1.57983,-0.6842 z m 76.31491,-6.01798 c -0.21719,-3.97479 0.12149,-4.94786 1.16069,-3.33421 1.77729,2.75989 1.9581,7.26068 0.33091,8.23651 -0.65168,0.3908 -1.3229,-1.81523 -1.4916,-4.9023 z m -53.80237,3.37378 c 1.52059,-0.4279 2.7647,-1.42498 2.7647,-2.21576 0,-0.79079 2.27495,-1.43778 5.05545,-1.43778 6.77444,0 3.80658,2.49027 -4.26553,3.57911 -3.47562,0.46883 -5.0752,0.50233 -3.55462,0.0745 z m -18.98625,-3.65354 c 1.08528,-1.7067 2.71627,-3.10309 3.62442,-3.10309 0.90815,0 1.65119,1.39639 1.65119,3.10309 0,2.20136 -1.05322,3.10308 -3.62442,3.10308 -3.22895,0 -3.40912,-0.33859 -1.65119,-3.10308 z m 33.23761,-2.48894 c 0.52498,-0.51556 1.88758,-0.57068 3.02801,-0.12242 1.26027,0.49528 0.88593,0.86294 -0.95449,0.93738 -1.66539,0.0673 -2.59848,-0.29934 -2.07352,-0.8149 z m -44.66304,-11.52364 c 0,-0.82657 1.06639,-1.50286 2.36974,-1.50286 1.30336,0 2.36975,0.27441 2.36975,0.60978 0,0.33538 -1.06639,1.01165 -2.36975,1.50285 -1.30335,0.49119 -2.36974,0.21678 -2.36974,-0.60977 z m 141.39457,-43.39452 c -4.2792,-4.26675 -7.09616,-7.75738 -6.25992,-7.75696 0.83625,4.2e-4 4.58131,3.49139 8.32235,7.75772 3.74107,4.26632 6.55803,7.75695 6.25993,7.75695 -0.2981,0 -4.04316,-3.49097 -8.32236,-7.75771 z"
       id="path3907"
       inkscape:connector-curvature="0" />
    <path
       style="fill:#7c7a81"
       d="m 441.61702,459.38879 c 3.41713,-0.34402 7.53391,-1.53418 9.14842,-2.64476 2.84271,-1.95547 2.83732,-2.04446 -0.17042,-2.81692 -2.19411,-0.5635 -2.85906,-0.166 -2.26512,1.35404 0.4624,1.18344 0.0537,2.15171 -0.90812,2.15171 -0.96188,0 -1.74885,-0.98911 -1.74885,-2.19803 0,-1.2089 -0.88866,-2.55018 -1.97479,-2.98059 -1.08613,-0.43041 0.15798,-0.81549 2.7647,-0.85572 2.60672,-0.0402 6.04856,0.90101 7.64855,2.09166 2.74656,2.04387 2.64061,2.30114 -1.89634,4.60528 -2.64295,1.34227 -7.50666,2.32311 -10.8082,2.17967 l -6.0028,-0.26083 6.21297,-0.62551 z m -15.10355,-4.67113 c -1.9651,-2.46084 -1.90922,-2.51572 0.59648,-0.5858 2.6316,2.02689 3.46848,3.301 2.16822,3.301 -0.32805,0 -1.57216,-1.22184 -2.7647,-2.7152 z m 30.52624,-15.12755 c -0.0322,-2.56005 0.29552,-3.79517 0.72828,-2.74473 0.43275,1.05044 0.45908,3.14503 0.0586,4.65463 -0.40055,1.50961 -0.75462,0.65015 -0.78681,-1.9099 z m -43.69364,-2.7152 c -3.45779,-5.82875 -8.03333,-10.93163 -43.50487,-48.51892 -14.33693,-15.19209 -33.82309,-36.06165 -43.30258,-46.3768 -9.47949,-10.31516 -19.4324,-20.99378 -22.11759,-23.73027 -2.68518,-2.7365 -6.65946,-7.43009 -8.83172,-10.4302 -2.17227,-3.00013 -4.83822,-5.47398 -5.92436,-5.49748 -1.08613,-0.0234 -1.97478,-1.07807 -1.97478,-2.34352 0,-2.55642 1.67748,-3.35534 -25.58845,12.18684 -8.42576,4.80287 -15.65758,8.73249 -16.0707,8.73249 -0.41314,0 -1.55357,-2.38783 -2.53432,-5.30629 -0.98074,-2.91846 -2.81318,-6.14582 -4.07208,-7.17192 -1.25892,-1.0261 -2.27805,-2.65289 -2.26475,-3.61508 0.0126,-0.9622 0.71334,-0.70217 1.55564,0.57786 1.02097,1.55154 1.53951,1.68083 1.55565,0.38788 0.0126,-1.06668 1.09057,-1.93943 2.39392,-1.93943 1.30336,0 2.36974,-1.07511 2.36974,-2.38912 0,-4.23865 -6.30635,-14.67785 -8.86692,-14.67785 -3.21645,0 -10.69132,-5.75106 -8.43495,-6.48972 0.94611,-0.30972 -9.88102,-0.54718 -24.06029,-0.52768 -14.17928,0.0195 -28.6242,-0.38461 -32.09982,-0.89803 -3.47562,-0.51341 -5.07519,-0.63939 -3.55461,-0.27996 1.52059,0.35941 2.7647,1.30312 2.7647,2.09712 0,0.79401 1.16574,1.44364 2.59054,1.44364 1.42478,0 3.53494,1.22184 4.68923,2.7152 1.92367,2.48874 2.1029,2.49778 2.14896,0.1083 0.0412,-2.13994 0.87789,-2.37379 4.6708,-1.30547 2.54131,0.71579 5.06711,0.86289 5.61289,0.32688 0.54579,-0.53601 0.56032,0.1311 0.0324,1.48239 -0.71849,1.83884 0.35349,2.71687 4.26103,3.4901 3.80811,0.75357 4.62432,1.3981 3.01604,2.38168 -1.38199,0.84519 -1.78211,2.42041 -1.07204,4.22032 1.0463,2.65214 1.28117,2.6742 3.07088,0.28847 1.52438,-2.03204 3.10166,-2.31425 7.39135,-1.32248 2.99938,0.69347 4.03158,1.33661 2.29377,1.42922 -2.63767,0.14057 -2.41208,0.55128 1.36546,2.48613 2.48881,1.27477 5.51023,2.31776 6.71427,2.31776 2.61907,0 2.71179,0.79647 0.55374,4.75663 -1.26876,2.32826 -1.11981,3.00109 0.66438,3.00109 1.2708,0 2.76557,-2.08264 3.34077,-4.65463 0.57253,-2.56005 1.64461,-4.65463 2.38243,-4.65463 1.35029,0 6.30662,4.33001 6.30662,5.50968 0,1.22057 -13.4797,7.39633 -18.67813,8.55743 -4.34247,0.96993 -5.09009,0.76439 -4.32666,-1.18949 0.72849,-1.86444 0.0872,-2.15601 -3.04451,-1.38408 -2.93257,0.72284 -3.96749,0.36314 -3.96749,-1.37894 0,-1.29628 0.82941,-2.35687 1.84314,-2.35687 1.01371,0 1.43524,-0.40058 0.93673,-0.89018 -0.49853,-0.48959 -3.01512,0.18075 -5.59242,1.48967 -2.5773,1.30891 -5.10534,1.96799 -5.61788,1.46464 -0.51254,-0.50337 -0.59667,-4.14106 -0.18694,-8.08373 l 0.74495,-7.16852 -2.38762,5.04252 c -1.31321,2.77338 -2.9188,5.04194 -3.56798,5.04126 -4.40796,-0.005 -17.09279,-6.38395 -18.39548,-9.25113 -1.38069,-3.03885 -2.53793,-3.35103 -10.73207,-2.89516 -5.05147,0.28103 -9.1832,-0.0905 -9.18162,-0.82536 0.002,-0.73498 -2.41291,-0.89124 -5.36555,-0.34723 -5.133,0.94571 -5.51944,0.68271 -8.81203,-5.99709 -4.90172,-9.94432 -3.95949,-12.53898 4.46058,-12.28331 l 6.78742,0.2061 -4.56678,-2.72751 c -2.51173,-1.50012 -6.05326,-3.19084 -7.87007,-3.75715 -1.81681,-0.56632 -4.16546,-2.04992 -5.21922,-3.29689 -1.05376,-1.24698 -2.64999,-2.26723 -3.54717,-2.26723 -0.89719,0 -0.27695,1.57094 1.37831,3.49097 l 3.00955,3.49098 -3.5643,-2.96429 c -1.96036,-1.63034 -4.00887,-2.52765 -4.55225,-1.99401 -1.7399,1.70875 -7.17516,-2.16363 -6.27401,-4.46995 0.47457,-1.21458 0.12212,-2.20833 -0.78323,-2.20833 -3.41367,0 -0.41993,5.52638 4.23249,7.81309 4.2842,2.10573 4.68645,2.85779 3.46048,6.46985 -1.02389,3.01668 -3.43266,4.80952 -9.19686,6.84517 -5.18461,1.83099 -7.80965,3.64225 -7.80965,5.38864 0,3.46354 -4.521808,5.07149 -7.48042,2.66002 -1.896808,-1.54602 -2.746455,-1.36233 -4.482268,0.96904 -1.177997,1.58215 -2.379162,3.57595 -2.669256,4.43066 -0.332026,0.97825 -1.8793,0.84347 -4.176153,-0.36376 -2.63871,-1.38691 -4.12653,-1.4485 -5.374889,-0.22249 -1.248361,1.22601 -0.676639,1.69528 2.065401,1.69528 2.949012,0 3.370299,0.41375 1.895794,1.86185 -2.510351,2.4654 -2.393787,3.63359 0.662023,6.63469 1.406799,1.38162 2.18254,2.88058 1.723869,3.33104 -0.45867,0.45046 -5.2893,-3.42286 -10.73473,-8.60737 -9.690395,-9.22608 -12.504886,-10.99847 -12.504886,-7.87484 0,0.85335 0.786983,1.55154 1.748851,1.55154 0.961869,0 1.365273,0.98169 0.896456,2.18153 -0.468817,1.19986 0.521506,3.40265 2.200717,4.89511 1.679213,1.49246 3.030503,3.47809 3.00287,4.41252 -0.02763,0.93442 -0.994661,0.47712 -2.148949,-1.01624 -1.154288,-1.49336 -2.719803,-2.7152 -3.478923,-2.7152 -1.876658,0 19.689377,19.77361 28.119446,25.78235 10.745897,7.65939 22.994167,12.99537 39.007857,16.9938 8.16435,2.03855 15.27212,4.12663 15.79504,4.64017 0.98748,0.96981 -2.03456,0.3988 -17.98316,-3.39795 C 82.991262,328.77717 37.043669,281.08204 27.819966,233.49004 19.495682,190.53879 25.09712,157.60013 48.707524,110.66294 59.980822,88.251758 84.807329,51.72781 90.13334,49.718625 c 0.632936,-0.23877 -1.889145,8.488661 -5.604625,19.394291 -10.430633,30.615857 -14.064569,57.654624 -11.422857,84.993234 5.520314,57.1288 28.975172,94.67217 71.296752,114.12227 25.29781,11.62632 62.5785,13.80488 91.94316,5.37283 13.2606,-3.80777 40.85668,-16.78497 46.90033,-22.05513 3.08453,-2.68975 6.30605,-1.44445 4.98824,1.92824 -0.49371,1.26357 -0.0804,3.26456 0.91858,4.44665 3.27736,3.87828 3.3938,8.67203 0.21062,8.67203 -1.58658,0 -3.2565,1.39638 -3.71095,3.10308 -0.45446,1.7067 -1.98551,3.10309 -3.40238,3.10309 -2.1367,0 -2.42651,1.22401 -1.69906,7.17568 0.4824,3.94663 1.26159,7.7867 1.73154,8.53349 1.99905,3.17662 7.22934,0.88868 12.7226,-5.56537 6.26963,-7.3662 10.61264,-10.25277 8.92413,-5.93141 -0.61224,1.56694 -0.34201,2.11685 0.72266,1.47063 1.1393,-0.69152 1.09756,0.2664 -0.12654,2.90233 -1.2056,2.59623 -2.76819,3.70158 -4.59393,3.2497 -1.52179,-0.37667 -2.36848,-0.0518 -1.88155,0.72199 0.48694,0.77377 -0.14123,1.40685 -1.39595,1.40685 -1.25471,0 -3.42943,1.72092 -4.83272,3.82427 -3.45452,5.17788 -3.21077,6.13251 0.60821,2.3819 1.73781,-1.7067 4.16285,-3.10309 5.38897,-3.10309 3.04995,0 10.40931,-8.85966 10.40931,-12.53139 0,-1.64122 0.8211,-2.98404 1.82469,-2.98404 1.03592,0 0.53442,-1.50903 -1.16018,-3.49097 -8.74092,-10.22304 11.83167,10.24197 43.28168,43.05533 19.62942,20.48037 47.0973,49.00135 61.03972,63.37995 13.94244,14.3786 25.60934,26.83785 25.92647,27.68719 0.31713,0.84937 3.68462,3.48004 7.48328,5.84596 l 6.90669,4.30167 -8.41471,7.57548 c -9.8989,8.91171 -24.3473,19.21206 -26.94886,19.21206 -1.00607,0 -3.17533,-2.26913 -4.82059,-5.04251 z M 245.48613,310.01207 c -0.78304,-2.94078 -3.61096,-5.95139 -3.61096,-3.84425 0,1.31933 3.12728,6.97151 3.85724,6.97151 0.32254,0 0.21172,-1.40726 -0.24628,-3.12726 z m -36.15122,-4.87485 c -0.78434,-1.24636 -0.018,-1.51032 2.50407,-0.86258 2.59572,0.66663 3.14812,0.45592 1.93306,-0.73739 -0.93566,-0.91892 -2.81538,-1.25087 -4.17714,-0.73766 -2.78239,1.04859 -3.38159,4.13357 -0.80287,4.13357 0.92019,0 1.16448,-0.80818 0.54288,-1.79594 z m 17.5319,0.2444 c 0.53701,-0.85335 0.26546,-1.55155 -0.60345,-1.55155 -0.8689,0 -2.01919,0.6982 -2.55621,1.55155 -0.53701,0.85335 -0.26546,1.55154 0.60345,1.55154 0.8689,0 2.01919,-0.69819 2.55621,-1.55154 z m 56.91559,-9.00961 c -0.48641,-0.47771 -1.76117,-10e-4 -2.83283,1.05936 -1.54865,1.53234 -1.36719,1.71055 0.88438,0.86855 1.55806,-0.58265 2.43487,-1.45021 1.94845,-1.92791 z M 60.195,289.86618 c 0,-0.85334 -0.75288,-1.55154 -1.673065,-1.55154 -0.920184,0 -1.23369,0.6982 -0.696677,1.55154 0.537014,0.85335 1.289892,1.55155 1.673064,1.55155 0.383173,0 0.696678,-0.6982 0.696678,-1.55155 z m 241.08827,-10.44059 c -0.52497,-0.51557 -0.89835,0.40082 -0.82975,2.0364 0.0758,1.80747 0.45015,2.17511 0.95447,0.93739 0.45636,-1.12003 0.40025,-2.45823 -0.12465,-2.97379 z m -139.68309,-1.48008 c -1.14044,-0.4482 -2.50304,-0.39309 -3.028,0.12241 -0.52496,0.51557 0.40812,0.88227 2.07352,0.81491 1.84041,-0.0745 2.21476,-0.4421 0.95448,-0.93738 z m 72.67207,0 c -1.14045,-0.4482 -2.50305,-0.39309 -3.02801,0.12241 -0.52496,0.51557 0.40813,0.88227 2.07353,0.81491 1.84042,-0.0745 2.21476,-0.4421 0.95448,-0.93738 z m -129.53254,-5.53419 c 1.10029,-1.92003 2.10807,-4.53826 2.23952,-5.81828 0.13144,-1.28003 0.50034,-3.37461 0.81975,-4.65463 0.71921,-2.88215 -4.68819,-2.30814 -8.002692,0.8495 -1.961745,1.86891 -1.856246,2.60816 0.789912,5.53505 2.18968,2.42199 2.49514,3.57007 1.07927,4.05645 -2.319127,0.79668 -2.667781,3.52289 -0.45054,3.52289 0.83834,0 2.42448,-1.57094 3.52478,-3.49098 z m 179.75911,-9.73464 c -1.09911,-1.30065 -2.32373,-2.04529 -2.72138,-1.65477 -1.09559,1.07599 1.13045,4.01958 3.03975,4.01958 1.04758,0 0.92772,-0.89024 -0.31837,-2.36481 z m -165.31624,-6.64626 c -7.50593,-6.56197 -12.48669,-10.45502 -10.53134,-8.23149 1.01823,1.1579 1.47227,3.07539 1.00897,4.26111 -0.55139,1.41118 -0.0505,1.85741 1.45018,1.29186 1.26089,-0.47519 3.2044,0.21509 4.31891,1.53395 1.1145,1.31886 1.49682,2.39793 0.84958,2.39793 -0.64724,0 -0.32685,1.00578 0.71198,2.23509 1.03882,1.2293 2.96573,1.82922 4.28201,1.33316 1.90023,-0.71613 1.46963,-1.7094 -2.09029,-4.82161 z m 159.86034,3.10455 c -0.48641,-0.47771 -1.76118,-9.9e-4 -2.83284,1.05936 -1.54864,1.53234 -1.36718,1.71055 0.88439,0.86856 1.55806,-0.58266 2.43486,-1.45022 1.94845,-1.92792 z M 52.295862,255.73223 c 0,-0.85335 -0.710923,-1.55154 -1.579828,-1.55154 -0.868905,0 -1.579827,0.69819 -1.579827,1.55154 0,0.85335 0.710922,1.55155 1.579827,1.55155 0.868905,0 1.579828,-0.6982 1.579828,-1.55155 z m 52.758128,-3.52479 c 0.61765,0.60659 0.64214,-0.1277 0.0544,-1.63193 -0.58772,-1.50415 -1.18192,-2.53017 -1.32045,-2.28003 -0.13854,0.25014 -1.29482,1.8512 -2.56953,3.55789 -2.088465,2.79623 -2.06894,2.91262 0.19744,1.17713 1.38331,-1.05929 3.02046,-1.42967 3.63811,-0.82306 z m -40.119508,-4.23292 c 0,-0.85335 -0.710922,-1.55155 -1.579827,-1.55155 -0.868905,0 -1.579828,0.6982 -1.579828,1.55155 0,0.85335 0.710923,1.55154 1.579828,1.55154 0.868905,0 1.579827,-0.69819 1.579827,-1.55154 z m 22.961751,-6.29238 c -1.378913,2.19118 2.101308,6.60551 4.202332,5.33026 0.840857,-0.51038 1.106974,-2.57868 0.591372,-4.59621 -0.766011,-2.9974 -0.428264,-3.50719 1.846776,-2.78747 2.059304,0.65146 2.23984,0.49753 0.693385,-0.59123 -1.149968,-0.80961 -3.815927,-1.28606 -5.924354,-1.05876 -2.108426,0.2273 -3.833503,-0.22344 -3.833503,-1.00165 0,-0.7782 1.244114,-1.41804 2.764698,-1.42186 2.052573,-0.005 2.837948,-1.41021 3.049083,-5.45485 0.156403,-2.99636 -0.302287,-5.09181 -1.019329,-4.65659 -0.717042,0.43522 -1.725525,-0.28823 -2.241073,-1.60768 -0.536759,-1.37373 -0.269922,-1.99387 0.624371,-1.45106 2.447701,1.48568 1.873657,-0.41665 -2.387837,-7.91306 -2.172262,-3.82123 -3.949569,-7.97022 -3.949569,-9.21995 0,-1.24975 -0.752879,-2.27227 -1.673064,-2.27227 -0.920185,0 -1.184566,0.77625 -0.587514,1.72501 0.597053,0.94877 0.193922,2.26621 -0.895847,2.92767 -1.08977,0.66145 -2.161957,3.89982 -2.382638,7.19635 -0.22068,3.29655 -0.919046,7.91375 -1.551921,10.26046 -0.904671,3.35452 -0.607422,4.26675 1.390322,4.26675 1.91129,0 2.541007,1.53803 2.541007,6.20617 0,3.91791 -0.728118,6.21494 -1.974784,6.22993 -1.086132,0.0124 -3.041168,0.71126 -4.344526,1.55154 -2.006006,1.29329 -2.031342,1.74187 -0.165068,2.92255 1.477486,0.93471 4.536495,0.11621 9.274267,-2.48149 3.888276,-2.13193 6.567313,-3.07809 5.953414,-2.10256 z m -2.423992,-11.4588 c 0,-0.37631 0.710922,-1.11571 1.579827,-1.64311 0.868905,-0.5274 1.579828,-0.21952 1.579828,0.6842 0,0.90371 -0.710923,1.64311 -1.579828,1.64311 -0.868905,0 -1.579827,-0.30789 -1.579827,-0.6842 z m -5.992964,-12.02826 c -2.557348,-2.51156 -2.408345,-5.38482 0.332822,-6.41787 2.703785,-1.01896 4.579198,3.01493 2.829351,6.08575 -0.980689,1.72101 -1.673827,1.79383 -3.162173,0.33212 z m 2.833308,-2.89454 c 0,-0.90372 -0.710922,-1.2116 -1.579827,-0.6842 -0.868905,0.5274 -1.579828,1.2668 -1.579828,1.64311 0,0.37631 0.710923,0.6842 1.579828,0.6842 0.868905,0 1.579827,-0.7394 1.579827,-1.64311 z m 21.217045,28.19515 c 0.47616,-0.75665 -0.37053,-2.32759 -1.88155,-3.49097 -2.42688,-1.86852 -2.518579,-1.82714 -0.78623,0.35484 1.0786,1.35853 1.4933,2.92947 0.92157,3.49097 -0.57173,0.56149 -0.60752,1.0209 -0.0795,1.0209 0.52799,0 1.34957,-0.61908 1.82574,-1.37574 z m -4.763872,-7.56939 c -0.943165,-0.62695 -2.521122,-2.53629 -3.506572,-4.24299 -1.328583,-2.30097 -1.804145,-2.48144 -1.839767,-0.69819 -0.05493,2.74936 2.945576,6.14003 5.402365,6.10484 1.1095,-0.0158 1.090946,-0.40125 -0.05602,-1.16366 z M 76.947755,197.19379 c -0.524964,-0.51556 -0.898355,0.40083 -0.829757,2.0364 0.0758,1.80747 0.450158,2.17511 0.95448,0.9374 0.456366,-1.12001 0.400239,-2.45822 -0.124728,-2.9738 z m -4.138327,-12.44466 c -0.02763,-3.10127 -2.595092,-7.64581 -3.69997,-6.54913 -0.40497,0.40196 -0.360747,2.65088 0.09826,4.99759 0.918739,4.697 3.640169,5.86934 3.601699,1.55154 z m -3.760811,-29.447 c -0.524964,-0.51556 -0.898355,0.40082 -0.829757,2.0364 0.0758,1.80746 0.450158,2.17511 0.95448,0.93739 0.456366,-1.12002 0.40024,-2.45823 -0.124728,-2.97379 z M 455.95299,417.1105 c -0.55348,-0.87951 0.0807,-1.13961 1.48659,-0.60977 2.73692,1.03145 3.23768,2.14355 0.96521,2.14355 -0.81763,0 -1.92095,-0.69021 -2.4518,-1.53378 z M 239.38508,319.92408 c -0.0742,-3.27835 0.37116,-4.5587 1.16066,-3.33688 1.61829,2.50446 1.70023,7.0066 0.14456,7.94304 -0.65168,0.39226 -1.23903,-1.68051 -1.30522,-4.60616 z m -127.05577,0.1972 c -11.42387,-4.93586 -8.23673,-4.95977 3.94957,-0.0296 5.21343,2.10916 8.41258,3.82338 7.10922,3.80935 -1.30336,-0.014 -6.27981,-1.71489 -11.05879,-3.77971 z M 91.791551,296.84813 c 0,-1.42225 0.888653,-2.295 1.974784,-1.93943 2.236518,0.73216 1.990664,3.22718 -0.394957,4.00815 -0.868905,0.28446 -1.579827,-0.64647 -1.579827,-2.06872 z m 67.142669,-0.77577 c -0.53701,-0.85335 0.13195,-1.55155 1.48659,-1.55155 1.35464,0 2.46298,0.6982 2.46298,1.55155 0,0.85335 -0.66896,1.55154 -1.48659,1.55154 -0.81763,0 -1.92596,-0.69819 -2.46298,-1.55154 z m -33.96629,-19.30272 c 0,-2.72533 0.94798,-3.12661 2.30227,-0.97456 0.49991,0.79439 0.18641,1.88289 -0.69667,2.41889 -0.88308,0.536 -1.6056,-0.11394 -1.6056,-1.44433 z m 0.42787,-6.45937 c 0.52496,-0.51556 1.88756,-0.57067 3.028,-0.12242 1.26028,0.49529 0.88593,0.86294 -0.95448,0.93738 -1.6654,0.0673 -2.59848,-0.29934 -2.07352,-0.8149 z m 162.29437,-0.52258 c 0,-0.90371 0.71092,-1.64311 1.57983,-1.64311 0.8689,0 1.57982,0.30789 1.57982,0.6842 0,0.37631 -0.71092,1.11571 -1.57982,1.64311 -0.86891,0.5274 -1.57983,0.21952 -1.57983,-0.6842 z m 6.31931,-10.1766 c -2.94761,-2.98672 -4.68665,-5.43038 -3.86453,-5.43035 0.82213,3e-5 3.48013,2.44371 5.90666,5.4304 5.63253,6.93279 4.79991,6.93276 -2.04213,-5e-5 z"
       id="path3905"
       inkscape:connector-curvature="0" />
    <path
       style="fill:#716e74"
       d="m 440.93344,459.4644 c 7.49951,-0.77977 13.35473,-3.73033 10.69398,-5.3889 -2.79369,-1.74142 -4.75318,-1.60243 -3.58475,0.25427 0.53701,0.85335 0.29956,1.55154 -0.52765,1.55154 -0.82723,0 -1.91325,-1.04729 -2.41341,-2.32731 -1.12954,-2.89085 3.9902,-3.16357 8.4172,-0.44837 2.94448,1.80594 2.89761,1.98645 -1.2063,4.64441 -2.54947,1.65123 -6.81597,2.66954 -10.58915,2.52737 -6.28934,-0.23695 -6.2931,-0.2408 -0.78992,-0.81301 z m 16.10627,-19.87429 c -0.0322,-2.56005 0.29552,-3.79517 0.72828,-2.74473 0.43275,1.05044 0.45908,3.14503 0.0586,4.65463 -0.40055,1.50961 -0.75462,0.65015 -0.78681,-1.9099 z m -43.93269,-3.12062 C 410.24921,431.55845 384.302,403.04086 352.42,369.77066 c -6.54195,-6.82679 -18.61076,-19.74339 -26.81958,-28.70355 -8.20881,-8.96016 -16.94583,-18.38579 -19.4156,-20.94583 -2.46976,-2.56005 -6.75276,-7.60038 -9.51779,-11.20072 -2.76501,-3.60034 -5.91594,-6.56766 -7.00208,-6.59406 -1.08613,-0.0264 -1.97478,-1.08333 -1.97478,-2.34878 0,-2.55825 1.71666,-3.37717 -25.80847,12.3116 -8.54678,4.87149 -15.75902,8.62655 -16.0272,8.3446 -0.6868,-0.72205 -5.55916,-12.36698 -5.55916,-13.28636 0,-0.41699 1.31723,0.8394 2.92717,2.792 l 2.92717,3.55018 -0.73674,-4.92982 c -0.45586,-3.05038 -0.058,-4.92985 1.0436,-4.92985 1.19818,0 0.97384,-1.89567 -0.68601,-5.7971 -2.73262,-6.42302 -8.2111,-12.82142 -10.97801,-12.82142 -0.98583,0 -3.15446,-0.97812 -4.81919,-2.1736 -2.82485,-2.02861 -2.57088,-2.29417 3.80709,-3.98084 10.54253,-2.78798 7.06289,-3.1062 -6.1237,-0.56001 -11.31297,2.1844 -45.98295,2.10741 -59.24353,-0.13157 -2.60672,-0.44013 -3.49537,-0.42502 -1.97479,0.0335 1.52059,0.45859 2.7647,1.48081 2.7647,2.27158 0,2.19201 -2.53795,1.71567 -4.73948,-0.88953 -2.76924,-3.277 -7.48057,-2.89141 -9.47897,0.77577 -0.93004,1.7067 -2.86824,3.10309 -4.3071,3.10309 -2.421,0 -2.41906,0.1446 0.0261,1.93943 1.88463,1.38334 2.20463,2.60673 1.11606,4.26674 -1.30374,1.98815 -1.52969,1.93161 -1.55035,-0.38788 -0.0173,-1.93583 -1.29794,-2.7152 -4.46172,-2.7152 -2.44065,0 -5.72981,-0.92801 -7.30925,-2.06227 -2.37976,-1.70896 -2.55728,-2.63925 -1.03628,-5.4304 1.60411,-2.94359 1.43022,-3.36807 -1.37981,-3.36807 -3.53722,0 -4.36611,-2.34279 -1.24046,-3.50604 1.08613,-0.40421 4.06119,-0.51279 6.61124,-0.24127 l 4.63646,0.49366 -4.74512,-2.83401 c -2.60981,-1.55871 -6.23159,-3.29735 -8.0484,-3.86366 -1.81681,-0.56632 -4.16546,-2.04992 -5.21922,-3.29689 -2.26265,-2.67752 -5.38272,-3.07374 -3.74793,-0.47596 0.70401,1.11873 0.43276,1.36974 -0.72245,0.66856 -1.01733,-0.61748 -1.47603,-1.71647 -1.01934,-2.4422 0.4567,-0.72572 -1.8422,-3.48303 -5.10867,-6.12734 -4.65491,-3.76833 -6.28061,-4.37379 -7.51885,-2.80026 -0.86891,1.10417 -2.64621,1.94685 -3.94957,1.87262 -1.30336,-0.0743 -3.1325,0.41439 -4.06475,1.08582 -1.12107,0.80742 -1.61642,-0.42939 -1.46292,-3.65261 0.27747,-5.82613 5.03694,-7.48443 6.94466,-2.41968 0.67228,1.7848 1.65127,2.56347 2.17553,1.73039 0.52427,-0.83309 -2.55165,-5.31618 -6.83536,-9.96241 -6.94239,-7.52992 -11.8325,-15.81025 -19.004247,-32.17949 -1.402542,-3.20126 -3.126363,-4.88875 -4.609983,-4.51284 -1.849595,0.46865 -2.342013,-0.87805 -2.243413,-6.13542 0.08952,-4.77332 -0.513007,-6.73585 -2.068021,-6.73585 -1.206892,0 -1.819022,0.59641 -1.360287,1.32537 0.458733,0.72896 -1.979382,2.649 -5.418035,4.26674 -7.313385,3.44068 -7.761514,4.79542 -2.265111,6.84774 3.639617,1.359 3.9193,2.05806 2.933186,7.33143 -0.599529,3.20605 -1.699064,6.06191 -2.443411,6.34636 -2.193706,0.83833 -1.54869,5.9256 1.016386,8.01631 3.220206,2.62468 2.981002,4.65463 -0.548494,4.65463 -1.605029,0 -3.741542,-1.57094 -4.747809,-3.49098 -1.795638,-3.42622 -1.810819,-3.41902 -0.818403,0.38789 0.556144,2.13337 1.804005,4.39181 2.773024,5.01876 1.040938,0.67347 1.11542,1.22285 0.182026,1.34263 -0.868905,0.11156 -2.290749,0.29998 -3.159655,0.41882 -3.941464,0.53917 -8.51331,4.38224 -8.973676,7.54328 l -0.505289,3.46948 -3.576496,-3.78171 -3.576497,-3.78172 0.599931,4.58238 c 0.329963,2.52031 1.406195,6.54785 2.391627,8.95012 0.985432,2.40226 1.791694,4.91323 1.791694,5.57991 0,2.94477 5.166688,10.99818 7.055909,10.99818 2.76521,0 4.177346,3.86267 2.142665,5.86092 -1.931917,1.89734 -0.127129,8.53346 1.97396,7.25815 2.445257,-1.48419 1.638147,3.4277 -0.903655,5.49944 -1.303358,1.06233 -2.369742,2.38822 -2.369742,2.94642 0,1.4104 17.882735,19.90983 19.40931,20.07864 2.30118,0.25447 5.727069,4.52286 4.607831,5.74099 -0.610303,0.66423 0.125944,0.77248 1.636106,0.24055 1.668312,-0.58763 2.598202,-0.25855 2.369741,0.83864 -0.206802,0.99319 5.256221,5.15722 12.140052,9.25342 6.883836,4.0962 11.830566,7.44764 10.992746,7.44764 -4.51464,0 -29.56683,-17.53039 -40.549942,-28.37501 C 37.466714,273.58884 25.112922,243.4334 24.919963,199.1009 24.782971,167.62677 30.840134,145.65393 50.093323,107.78256 60.374081,87.560128 85.215855,51.56673 90.177665,49.704113 c 0.657318,-0.246749 -1.581593,7.556129 -4.975357,17.339733 -14.681467,42.324004 -16.71067,77.267794 -6.861565,118.159244 11.49261,47.71494 43.243127,80.09878 88.492617,90.25778 15.27649,3.42973 19.7663,3.80005 37.12595,3.06215 16.88017,-0.71751 22.15668,-1.6199 36.33603,-6.21416 15.08227,-4.88682 36.05415,-15.09217 43.0503,-20.9492 3.57556,-2.99338 3.57556,-0.68873 0,3.4479 -2.65254,3.06877 -2.64766,3.10923 0.12039,0.9977 3.07066,-2.34236 3.31975,-2.17915 7.44094,4.87533 2.11859,3.62653 -1.08446,5.31236 -4.50125,2.36909 -3.88236,-3.3443 -8.64139,-4.38421 -11.3542,-2.48104 -1.95096,1.3687 -1.84578,1.49479 0.5952,0.71359 3.86075,-1.23561 8.40511,2.11674 5.40392,3.98644 -1.61995,1.0092 -1.57234,1.28182 0.22718,1.30061 1.72939,0.018 1.60912,0.50318 -0.50027,2.01799 -2.50769,1.80084 -2.59785,3.00454 -0.92968,12.41234 1.01602,5.72997 2.52721,10.41812 3.3582,10.41812 0.83098,0 1.11755,0.62504 0.63681,1.38897 -0.48074,0.76392 0.15198,1.77566 1.40614,2.2483 1.42537,0.53717 1.98775,0.11093 1.50014,-1.1371 -0.69454,-1.77753 5.06734,-8.34937 15.03881,-17.15284 3.22627,-2.84838 3.35361,-2.8558 2.28988,-0.13343 -0.82319,2.10676 -0.58474,2.55398 0.88579,1.66141 1.20209,-0.72963 0.96302,0.35122 -0.59383,2.68473 -1.86132,2.78986 -3.60107,3.69272 -6.08822,3.15951 -2.8105,-0.60251 -3.02511,-0.42583 -1.11249,0.91586 2.0989,1.47237 2.09387,1.66509 -0.0439,1.68614 -2.61308,0.0258 -7.85528,5.27084 -7.85528,7.85965 0,0.87683 1.5559,0.17066 3.45755,-1.56927 1.90165,-1.73995 4.21215,-3.18676 5.13444,-3.21516 3.40393,-0.10473 8.84158,-6.03902 9.78681,-10.68057 0.53575,-2.63078 1.6832,-4.78324 2.54987,-4.78324 0.87486,0 0.67287,-1.20778 -0.45409,-2.7152 -4.58564,-6.13381 27.94466,26.99704 78.83691,80.29236 29.74279,31.14723 56.54888,58.08642 59.56907,59.86486 l 5.49124,3.23352 -8.47046,7.62728 c -9.99083,8.99644 -24.40014,19.26391 -27.03468,19.26391 -1.02262,0 -3.28591,-2.45156 -5.02954,-5.44793 z M 283.7824,296.37201 c -0.48641,-0.47771 -1.76117,-10e-4 -2.83283,1.05936 -1.54865,1.53234 -1.36719,1.71055 0.88438,0.86855 1.55806,-0.58265 2.43487,-1.45021 1.94845,-1.92791 z M 57.575778,284.5148 c 0.59517,-1.52322 0.119356,-1.9622 -1.475409,-1.3612 -1.29464,0.4879 -2.147086,0.27781 -1.894328,-0.4669 0.252759,-0.7447 -0.07363,-1.52855 -0.725309,-1.74189 -1.255966,-0.41116 -1.263129,0.70958 -0.02479,3.87886 1.017755,2.60475 3.040653,2.45308 4.119836,-0.30887 z m 244.332842,-3.27368 c 0,-1.33038 -0.72252,-1.98032 -1.6056,-1.44433 -0.88307,0.536 -1.19659,1.6245 -0.69667,2.41889 1.35428,2.15205 2.30227,1.75078 2.30227,-0.97456 z M 46.839874,262.84292 c -0.04038,-2.06255 -0.461531,-4.13103 -0.935903,-4.59661 -0.703537,-0.6905 -0.824303,6.639 -0.131141,7.95884 0.68245,1.29942 1.130643,-0.1128 1.067037,-3.36223 z m -8.496338,-7.46995 c -1.17234,-1.15135 -1.377943,-0.54558 -0.690759,2.03518 0.558641,2.09799 1.274766,2.80131 1.669166,1.63928 0.379919,-1.11934 -0.06036,-2.77286 -0.978407,-3.67446 z m 65.945724,-6.10551 c -0.85255,-1.56446 -1.72819,-2.84449 -1.94588,-2.84449 -0.21769,0 -0.3958,1.28003 -0.3958,2.84449 0,1.56449 0.87565,2.84451 1.94588,2.84451 1.39736,0 1.50893,-0.80184 0.3958,-2.84451 z m -69.178647,-2.34024 c -1.862372,-3.1453 -2.312098,-2.13856 -0.787598,1.76309 0.541796,1.38661 1.317884,2.19428 1.724639,1.79481 0.406757,-0.39948 -0.01485,-2.00053 -0.937041,-3.5579 z M 52.295862,230.0402 c 0,-0.37631 -0.710923,-0.6842 -1.579828,-0.6842 -0.868905,0 -1.579827,0.7394 -1.579827,1.64311 0,0.90371 0.710922,1.2116 1.579827,0.6842 0.868905,-0.5274 1.579828,-1.2668 1.579828,-1.64311 z M 72.83362,183.68389 c 0,-1.97853 -1.186285,-4.55555 -2.636187,-5.72674 -2.395516,-1.93499 -2.539745,-1.65133 -1.579828,3.10706 0.580998,2.88006 1.05636,5.88859 1.05636,6.68563 0,0.79705 0.710922,1.01766 1.579828,0.49026 0.868905,-0.5274 1.579827,-2.5777 1.579827,-4.55621 z m -3.650466,-26.86254 c -0.397371,-1.49336 -0.722492,-0.27152 -0.722492,2.7152 0,2.98672 0.325121,4.20856 0.722492,2.7152 0.397369,-1.49336 0.397369,-3.93704 0,-5.4304 z m 0,-15.51543 c -0.397371,-1.49336 -0.722492,-0.27152 -0.722492,2.7152 0,2.98672 0.325121,4.20856 0.722492,2.7152 0.397369,-1.49336 0.397369,-3.93704 0,-5.4304 z M 455.95299,417.1105 c -0.55348,-0.87951 0.0807,-1.13961 1.48659,-0.60977 2.73692,1.03145 3.23768,2.14355 0.96521,2.14355 -0.81763,0 -1.92095,-0.69021 -2.4518,-1.53378 z M 130.49733,340.30212 c -8.91802,-2.38478 -16.59751,-5.23137 -14.21845,-5.27042 0.8689,-0.014 7.62267,1.635 15.00836,3.66501 7.38569,2.03002 12.00669,3.69697 10.26888,3.70433 -1.73781,0.008 -6.71427,-0.93715 -11.05879,-2.09892 z m 108.88775,-20.37804 c -0.0742,-3.27835 0.37116,-4.5587 1.16066,-3.33688 1.61829,2.50446 1.70023,7.0066 0.14456,7.94304 -0.65168,0.39226 -1.23903,-1.68051 -1.30522,-4.60616 z m -127.8345,-0.56081 c -0.55348,-0.87951 0.0807,-1.13961 1.48659,-0.60977 2.73692,1.03145 3.23768,2.14355 0.9652,2.14355 -0.81762,0 -1.92093,-0.6902 -2.45179,-1.53378 z m 101.09778,-7.77548 c 1.73781,-0.7334 4.22604,-1.33344 5.5294,-1.33344 1.49369,0 1.20168,0.49294 -0.78992,1.33344 -1.73781,0.7334 -4.22604,1.33344 -5.52939,1.33344 -1.4937,0 -1.20168,-0.49294 0.78991,-1.33344 z m -41.86543,-15.42386 c 0,-0.90371 0.71092,-1.64312 1.57983,-1.64312 0.8689,0 1.57982,0.30789 1.57982,0.6842 0,0.37632 -0.71092,1.11572 -1.57982,1.64312 -0.86891,0.5274 -1.57983,0.21951 -1.57983,-0.6842 z m 17.50283,-2.2896 c -0.0686,-1.63557 0.30478,-2.55196 0.82976,-2.0364 0.52496,0.51556 0.58107,1.85377 0.12465,2.9738 -0.50432,1.23771 -0.87867,0.87007 -0.95447,-0.9374 z M 72.832385,291.80561 c -6.8e-4,-0.64001 -2.488908,-3.90871 -5.529397,-7.26378 -6.407757,-7.07074 -6.647353,-7.99018 -2.368506,-9.08909 2.107779,-0.54134 3.159655,-2.11632 3.159655,-4.73103 0,-2.55691 1.098472,-4.26197 3.159656,-4.90445 1.73781,-0.54169 3.159655,-1.63602 3.159655,-2.43187 0,-0.79583 3.834012,-1.44698 8.520027,-1.44698 6.274162,0 8.770182,0.64021 9.469025,2.42877 0.744891,1.90639 0.186619,2.21824 -2.595674,1.4499 -2.822532,-0.77944 -3.061895,-0.63629 -1.17493,0.70271 2.106436,1.49472 2.106436,1.83532 0,3.0653 -1.303358,0.76107 -5.133456,3.54108 -8.511329,6.1778 -3.377872,2.63672 -7.110215,4.79404 -8.294095,4.79404 -1.183878,0 -2.152507,0.69819 -2.152507,1.55154 0,0.85335 0.555061,1.55154 1.233469,1.55154 0.67841,0 2.038501,2.09459 3.022425,4.65463 0.983926,2.56005 1.139787,4.65463 0.346359,4.65463 -0.793429,0 -1.443154,-0.52364 -1.443833,-1.16366 z m 5.530632,-20.55794 c 0.537013,-0.85335 -0.131948,-1.55155 -1.486591,-1.55155 -1.354638,0 -2.462978,0.6982 -2.462978,1.55155 0,0.85334 0.668965,1.55154 1.486591,1.55154 0.817625,0 1.925964,-0.6982 2.462978,-1.55154 z m 87.680433,18.58896 c 0,-0.89253 -1.64502,-1.17562 -3.77722,-0.65005 -4.56441,1.12507 -6.95999,-1.85272 -3.90454,-4.85346 2.21071,-2.17112 9.26158,-1.43225 9.26158,0.97055 0,0.70496 3.51261,1.25503 7.80581,1.22237 9.0704,-0.0691 13.40742,1.67965 8.67751,3.49874 -1.68013,0.64616 -4.47663,1.15432 -6.21444,1.12923 -2.54003,-0.0366 -2.38511,-0.28921 0.78992,-1.28783 3.67667,-1.15639 3.7104,-1.25291 0.4882,-1.39688 -1.90376,-0.085 -3.90076,0.54354 -4.43777,1.39688 -1.28197,2.03713 -8.68905,2.01192 -8.68905,-0.0295 z m -58.45362,-14.53275 c 0,-0.32913 0.97004,-2.43471 2.15565,-4.67907 1.89701,-3.59101 2.39903,-3.79263 4.18399,-1.68039 1.68684,1.99612 1.5234,2.7756 -0.97078,4.62971 -2.90696,2.16097 -5.36886,2.95415 -5.36886,1.72975 z M 64.961777,263.87783 c 0.03218,-1.3722 7.09153,-8.1456 8.489472,-8.1456 2.19429,0 0.71958,3.58024 -2.592413,6.29374 -3.767711,3.08688 -5.942043,3.76968 -5.897059,1.85186 z m 229.047703,-4.26674 c -2.94761,-2.98672 -4.68665,-5.43038 -3.86453,-5.43035 0.82213,3e-5 3.48013,2.44371 5.90666,5.4304 5.63253,6.93279 4.79991,6.93276 -2.04213,-5e-5 z m -179.3955,0.64059 c -0.58381,-0.92772 -0.42264,-2.31413 0.35814,-3.08093 0.83959,-0.82456 1.4196,-0.13545 1.4196,1.68674 0,3.52546 -0.29228,3.75467 -1.77774,1.39419 z m -25.982084,-2.9679 c -2.042223,-1.29616 -2.000523,-1.50731 0.30172,-1.52779 1.469304,-0.0124 3.110835,0.67444 3.647849,1.52779 1.235712,1.96363 -0.855679,1.96363 -3.949569,0 z M 60.195,255.73223 c 0,-0.85335 1.10834,-1.55154 2.462978,-1.55154 1.354637,0 2.023604,0.69819 1.48659,1.55154 -0.537013,0.85335 -1.645352,1.55155 -2.462978,1.55155 -0.817625,0 -1.48659,-0.6982 -1.48659,-1.55155 z m 33.176378,-3.10308 c 0,-0.85335 0.313505,-1.55155 0.696678,-1.55155 0.383173,0 1.13605,0.6982 1.673064,1.55155 0.537013,0.85335 0.223508,1.55154 -0.696677,1.55154 -0.920185,0 -1.673065,-0.69819 -1.673065,-1.55154 z m -42.220966,-3.10309 c 0.130905,-1.7067 0.797646,-3.10309 1.481643,-3.10309 0.683999,0 1.243634,1.39639 1.243634,3.10309 0,1.7067 -0.666739,3.10309 -1.481643,3.10309 -0.814903,0 -1.374538,-1.39639 -1.243634,-3.10309 z m 5.884932,-3.10309 c 0,-0.85335 0.710923,-1.55154 1.579828,-1.55154 0.868905,0 1.579828,0.69819 1.579828,1.55154 0,0.85335 -0.710923,1.55155 -1.579828,1.55155 -0.868905,0 -1.579828,-0.6982 -1.579828,-1.55155 z m 42.435407,-4.60301 c -2.051297,-1.6783 -2.951162,-3.07469 -1.999701,-3.10308 0.951462,-0.0284 3.01668,1.34477 4.58938,3.05146 3.65876,3.97051 2.23484,3.99889 -2.589679,0.0517 z M 71.250456,202.97773 c -2.005876,-1.2175 -1.888659,-1.75902 0.798462,-3.6887 3.836,-2.75474 4.380642,-2.39248 2.782394,1.85065 -0.904352,2.40092 -1.852063,2.88737 -3.580856,1.83805 z"
       id="path3903"
       inkscape:connector-curvature="0" />
    <path
       style="fill:#4d4c52"
       d="m 441.3284,459.46642 c 1.52058,-0.39025 4.00881,-0.39025 5.5294,0 1.52058,0.39026 0.27647,0.70957 -2.7647,0.70957 -3.04117,0 -4.28528,-0.31931 -2.7647,-0.70957 z m -30.59789,-26.71489 c -3.80766,-5.04123 -12.61039,-14.99297 -19.56164,-22.11496 -18.07482,-18.5188 -87.99083,-93.94465 -94.25592,-101.68391 -2.90026,-3.58268 -6.16186,-6.55001 -7.248,-6.59405 -1.08613,-0.0441 -1.97478,-1.19634 -1.97478,-2.56066 0,-2.09669 -0.91681,-1.94316 -5.92435,0.99208 -18.47411,10.82885 -35.53072,20.24325 -35.90674,19.81871 -0.23746,-0.2681 -0.94905,-2.23295 -1.58131,-4.36632 -1.08831,-3.67216 -1.02603,-3.71976 1.16874,-0.89327 2.24244,2.8879 2.71835,2.75177 14.54483,-4.16034 6.72458,-3.93026 16.21094,-9.11384 21.08081,-11.51908 4.86985,-2.40523 10.26248,-5.59498 11.9836,-7.08834 1.72115,-1.49337 3.88395,-2.73843 4.80623,-2.76683 4.03803,-0.12427 12.93724,-11.08152 11.21845,-13.8128 -0.45889,-0.72922 0.19928,-1.7154 1.46262,-2.1915 1.46953,-0.55381 6.16143,3.21757 13.02451,10.46917 36.05442,38.0955 110.85424,115.94716 116.42655,121.17673 3.63709,3.41339 7.88582,6.90829 9.4416,7.76645 2.67146,1.47353 2.63545,1.80156 -0.6477,5.90067 -3.47979,4.34465 -27.72227,22.79414 -29.95128,22.79414 -0.65078,0 -4.29857,-4.12465 -8.10622,-9.16589 z M 85.270726,318.18185 c -1.965102,-2.46084 -1.909223,-2.51572 0.596472,-0.5858 1.520584,1.17118 2.764698,2.39302 2.764698,2.7152 0,1.27698 -1.297333,0.45508 -3.36117,-2.1294 z m -14.41189,-12.13563 c -5.325332,-4.95706 -6.844727,-6.87078 -5.455063,-6.87078 0.258111,0 3.24608,2.79278 6.639933,6.20618 7.642097,7.68609 6.840997,8.13544 -1.18487,0.6646 z M 58.316423,293.35716 c -5.069873,-5.3418 -15.690692,-20.8911 -19.870662,-29.09144 -10.375043,-20.35395 -16.197082,-56.37025 -13.12432,-81.18968 0.925479,-7.47531 3.136837,-19.04385 4.914127,-25.70787 8.322571,-31.20578 31.593517,-74.866646 53.837244,-101.009247 7.70038,-9.050098 7.658898,-8.163797 -0.72615,15.515433 -9.498047,26.822313 -12.892221,53.804264 -10.344288,82.231794 0.917818,10.24018 2.370729,21.4113 3.228687,24.82469 2.845641,11.3214 3.078726,14.03849 0.665495,7.75772 -6.117312,-15.92116 -9.960366,-72.6305 -5.672573,-83.70634 0.842288,-2.17572 0.918605,-3.955857 0.169593,-3.955857 -1.45025,0 -4.14086,13.601707 -5.601238,28.315667 -0.487001,4.90675 -0.340933,8.92137 0.324598,8.92137 0.665531,0 0.883029,3.31642 0.483328,7.36983 l -0.726727,7.36983 -1.035255,-6.20617 -1.035255,-6.20617 -0.34891,6.20617 c -0.1919,3.41339 -0.707487,5.33343 -1.145752,4.26674 -1.172979,-2.8549 -4.200296,-2.36442 -7.291659,1.1814 -1.698487,1.94817 -2.720844,5.73762 -2.720844,10.08503 0,4.75884 -0.665081,6.96421 -2.100225,6.96421 -1.155124,0 -2.056224,1.22184 -2.002448,2.7152 0.05378,1.49336 -0.505789,7.42801 -1.243476,13.18812 -1.118223,8.73143 -1.833107,10.47291 -4.299165,10.47291 -2.029032,0 -2.942245,1.09628 -2.908017,3.49097 0.139284,9.74489 -2.276258,32.19453 -3.464076,32.19453 -0.748384,0 -1.360697,1.18074 -1.360697,2.62386 0,2.29819 -0.305586,2.25005 -2.462019,-0.38789 -2.286018,-2.79645 -2.388465,-2.46154 -1.433109,4.685 0.565901,4.23321 2.400736,11.21516 4.077412,15.51543 4.804624,12.32273 14.736884,29.57691 16.792111,29.17103 1.028404,-0.20311 1.511866,0.54684 1.07436,1.66656 -0.437507,1.11972 0.845767,3.72957 2.85172,5.79967 4.682902,4.83268 8.115285,9.19424 7.235521,9.19424 -0.378281,0 -2.51008,-1.92003 -4.737331,-4.26674 z M 35.533417,222.37405 c 0.774233,-3.3993 0.627659,-4.02697 -0.543476,-2.32731 -0.881996,1.28002 -1.614513,3.66552 -1.627818,5.30111 -0.03229,3.96953 0.871932,2.73112 2.171294,-2.9738 z m 7.283479,-34.31708 c 0,-1.28002 -0.710922,-1.89581 -1.579827,-1.36841 -0.868905,0.5274 -1.579828,2.00619 -1.579828,3.28621 0,1.28003 0.710923,1.89582 1.579828,1.36842 0.868905,-0.5274 1.579827,-2.00619 1.579827,-3.28622 z m 1.579828,-8.35036 c 0,-0.85335 -0.710923,-1.55154 -1.579828,-1.55154 -0.868905,0 -1.579827,0.69819 -1.579827,1.55154 0,0.85335 0.710922,1.55155 1.579827,1.55155 0.868905,0 1.579828,-0.6982 1.579828,-1.55155 z M 74.413448,94.371733 c 0,-0.853349 -0.710923,-1.551543 -1.579828,-1.551543 -0.868905,0 -1.579827,0.698194 -1.579827,1.551543 0,0.853349 0.710922,1.551543 1.579827,1.551543 0.868905,0 1.579828,-0.698194 1.579828,-1.551543 z m 4.74801,-17.867523 c 2.59284,-7.533308 4.475824,-13.931088 4.184406,-14.217287 -0.802821,-0.788449 -10.512244,24.160844 -10.512244,27.012221 0,4.29528 1.465729,1.331565 6.327838,-12.794934 z M 248.87422,294.02254 c -1.28061,-3.27745 -0.47869,-4.40058 2.04731,-2.86738 1.1732,0.71208 1.33138,1.93743 0.4342,3.36313 -1.18609,1.88475 -1.58231,1.80559 -2.48151,-0.49575 z m 5.22528,-5.32253 c -1.53124,-0.34112 -2.37793,-1.26557 -1.88156,-2.05433 1.18345,-1.88057 7.03533,-1.85906 7.03533,0.0259 0,2.02532 -1.86789,2.7605 -5.15377,2.02849 z m 14.67396,-4.21546 c -1.04315,-1.23441 -3.78966,-2.0191 -6.10337,-1.74378 -2.3137,0.27532 -2.96262,0.19712 -1.44203,-0.17377 1.52058,-0.3709 2.7647,-1.32398 2.7647,-2.11798 0,-0.79401 2.13276,-1.44364 4.73948,-1.44364 3.63823,0 4.73948,0.69975 4.73948,3.01152 0,4.01269 -2.34971,5.24682 -4.69826,2.46765 z m -65.60407,-5.48077 c 20.90267,-1.17039 37.75084,-5.07199 53.28942,-12.34046 5.38394,-2.51843 10.09483,-4.2786 10.46865,-3.91147 0.77909,0.76514 -17.99291,9.26822 -27.42203,12.42125 -10.24872,3.4271 -25.86988,5.37664 -41.07552,5.12628 l -14.21845,-0.23411 18.95793,-1.06149 z m -29.62176,-1.02595 c 1.08613,-0.43042 2.86343,-0.43042 3.94957,0 1.08613,0.43041 0.19747,0.78258 -1.97479,0.78258 -2.17226,0 -3.06091,-0.35217 -1.97478,-0.78258 z m -7.07631,-1.46139 c 0.52496,-0.51556 1.88756,-0.57067 3.028,-0.12241 1.26028,0.49528 0.88594,0.86293 -0.95448,0.93738 -1.6654,0.0673 -2.59849,-0.29934 -2.07352,-0.81491 z m -11.48667,-1.60074 c -19.6285,-6.14284 -45.12149,-24.59036 -56.671114,-41.009 -2.060792,-2.92956 0.534555,-0.75207 5.767434,4.83886 5.23289,5.59094 13.34712,13.06938 18.03163,16.61876 8.70926,6.59883 28.78957,17.43489 32.30865,17.43489 1.07622,0 2.39613,0.69819 2.93314,1.55154 0.53702,0.85335 0.7567,1.49642 0.4882,1.42905 -0.26851,-0.0674 -1.55458,-0.45621 -2.85794,-0.8641 z m 99.52914,-2.89226 c 2.17226,-1.21955 5.01595,-2.21477 6.31931,-2.2116 1.30336,0.003 -0.0224,1.02571 -2.94608,2.27232 -6.72746,2.8685 -8.53287,2.83599 -3.37323,-0.0607 z m 40.1355,-12.02446 -3.00955,-3.49098 3.55461,2.95568 c 3.34045,2.7776 4.27381,4.02627 3.00956,4.02627 -0.29979,0 -1.89937,-1.57094 -3.55462,-3.49097 z m -14.06834,-5.81829 c 1.5727,-1.7067 3.21491,-3.10309 3.64937,-3.10309 0.43445,0 -0.49684,1.39639 -2.06955,3.10309 -1.5727,1.7067 -3.21491,3.10309 -3.64937,3.10309 -0.43445,0 0.49684,-1.39639 2.06955,-3.10309 z M 71.253793,189.95764 c 0,-0.33538 1.066383,-1.01165 2.369741,-1.50285 1.303358,-0.49119 2.369741,-0.21678 2.369741,0.60977 0,0.82657 -1.066383,1.50286 -2.369741,1.50286 -1.303358,0 -2.369741,-0.27441 -2.369741,-0.60978 z m -6.194588,-35.7222 c -0.0686,-1.63558 0.304793,-2.55196 0.829757,-2.0364 0.524962,0.51557 0.581089,1.85377 0.124727,2.97379 -0.504322,1.23772 -0.878673,0.87007 -0.954479,-0.93739 z"
       id="path3901"
       inkscape:connector-curvature="0" />
    <path
       style="fill:#292a2d"
       d="m 413.42266,435.92315 c -2.11915,-3.29685 -7.81544,-10.19757 -12.65843,-15.33493 -8.56591,-9.08654 -12.0526,-14.62018 -5.59661,-8.88218 3.11595,2.76941 3.28744,2.76759 5.92436,-0.0624 2.58453,-2.77384 2.57636,-2.81107 -0.1696,-0.77183 -2.2171,1.64649 -3.15844,1.7082 -4.06567,0.26655 -0.64931,-1.03181 -2.8241,-2.18685 -4.83283,-2.56678 -2.00875,-0.37991 -3.76535,-0.8872 -3.90355,-1.1273 -0.13824,-0.24011 -4.79015,-5.16415 -10.33765,-10.94231 -7.74433,-8.06633 -9.65392,-10.93045 -8.224,-12.33477 1.0243,-1.00596 1.86235,-2.52101 1.86235,-3.36679 0,-0.84577 -0.92276,-0.29842 -2.05058,1.21635 -1.85995,2.4981 -3.53468,1.19151 -18.01532,-14.05523 -8.78061,-9.24515 -16.50305,-17.32872 -17.16097,-17.9635 -0.65793,-0.63478 0.0306,-2.4855 1.53005,-4.11271 1.83127,-1.98731 2.161,-3.30167 1.00439,-4.00369 -0.94704,-0.57483 -1.52654,-0.21325 -1.2878,0.80351 0.23876,1.01676 -0.79986,2.05271 -2.30804,2.30212 -2.47885,0.4099 -25.27445,-22.56006 -37.52611,-37.81314 -2.16273,-2.69257 -4.82869,-4.89556 -5.92435,-4.89556 -2.93146,0 -2.4238,-4.75332 0.77257,-7.23373 1.52058,-1.17998 5.42217,-3.53603 8.6702,-5.23565 3.87511,-2.02777 7.16032,-5.51508 9.55521,-10.14307 l 3.6497,-7.05285 8.30959,8.62886 c 4.85783,5.04448 7.84195,9.37196 7.18384,10.41776 -0.64084,1.01834 -0.43638,1.37045 0.47471,0.81746 0.88025,-0.53429 6.8211,4.41974 13.20188,11.00896 85.08194,87.86112 87.07109,90.03036 85.38776,93.11934 -0.86904,1.59477 -2.67746,3.79402 -4.01868,4.88721 -1.34124,1.0932 -2.0988,2.5276 -1.68348,3.18757 0.41532,0.65996 -0.30344,2.06273 -1.59722,3.11727 -1.29379,1.05452 -2.35235,2.63684 -2.35235,3.51627 0,0.87945 1.33123,0.0915 2.95829,-1.7509 2.48616,-2.81523 3.25125,-3.00316 4.79402,-1.17754 1.41865,1.67878 1.28133,2.71677 -0.60441,4.56875 -2.20029,2.1609 -2.1507,2.37503 0.50439,2.17862 1.93722,-0.14337 2.8571,-1.30498 2.68898,-3.39573 -0.14061,-1.74784 0.41276,-4.05874 1.22958,-5.13533 1.07682,-1.4193 0.66766,-1.84585 -1.48826,-1.55154 -1.63535,0.22317 -2.97337,-0.29236 -2.97337,-1.14571 0,-0.85334 1.24412,-1.38523 2.7647,-1.18195 1.52059,0.20329 2.7647,-0.36157 2.7647,-1.25522 0,-0.89365 0.82077,-1.12664 1.82393,-0.51775 1.15632,0.70185 1.39396,0.42383 0.64926,-0.75955 -0.89946,-1.42931 -1.69688,-1.44096 -3.40376,-0.0498 -2.44576,1.99347 -2.73719,1.43952 -1.24789,-2.37205 0.78537,-2.00999 2.76758,-0.87406 9.93148,5.69139 4.92265,4.51142 10.25523,8.92052 11.85019,9.79798 2.7426,1.50884 2.68528,1.84592 -1.05662,6.21328 -3.73579,4.36032 -28.03521,22.44648 -30.15758,22.44648 -0.5434,0 -2.72184,-2.69742 -4.841,-5.99427 z m 9.86536,0.17459 c 6.16689,-3.68316 12.60911,-11.53057 11.6653,-14.20973 -0.55523,-1.57609 0.0619,-1.89994 2.20994,-1.15986 2.78058,0.95802 2.79666,0.88634 0.24012,-1.06982 -1.50707,-1.15315 -2.27724,-2.55126 -1.71147,-3.1069 0.56576,-0.55562 0.15735,-1.01024 -0.90771,-1.01024 -1.11172,0 -1.44461,-0.82595 -0.78165,-1.93943 0.63509,-1.06669 -0.37257,-0.62428 -2.23925,0.98314 -3.80125,3.27327 -3.2352,6.00802 0.92665,4.4769 2.36514,-0.87014 2.43718,-0.66414 0.5603,1.60221 -1.18458,1.4304 -2.89399,2.15143 -3.79871,1.60231 -0.93218,-0.5658 -1.17495,-0.25161 -0.5603,0.7251 0.59653,0.94793 2.30595,1.28651 3.79871,0.75241 2.39647,-0.85745 2.36461,-0.58011 -0.27233,2.36998 -2.12144,2.37338 -4.18056,3.11333 -7.10922,2.55472 l -4.1228,-0.78637 3.86731,1.65083 3.8673,1.65084 -4.65722,2.36065 c -4.91298,2.49028 -8.38948,5.26986 -6.5912,5.26986 0.58724,0 3.11454,-1.22248 5.61623,-2.7166 z m 25.39576,-19.48447 c 0.0818,-0.69037 -0.40829,-0.91707 -1.0892,-0.50378 -0.6809,0.41328 -2.86135,-1.25112 -4.84546,-3.69866 -2.12313,-2.61905 -4.54628,-4.09628 -5.88914,-3.5902 -1.55319,0.58534 -1.98936,0.11171 -1.36615,-1.48324 0.50355,-1.28871 0.30372,-2.71447 -0.44404,-3.16835 -2.76289,-1.67698 -1.69298,4.97168 1.2161,7.55723 1.65727,1.47294 2.53806,3.45752 1.9573,4.41017 -0.58076,0.95263 0.14692,0.77383 1.61708,-0.39734 1.47015,-1.17118 2.76187,-1.69482 2.87048,-1.16365 0.10869,0.53115 0.33565,1.83848 0.50452,2.90517 0.16888,1.06668 -1.87502,4.35968 -4.54201,7.31774 -4.76414,5.28416 -4.72025,5.27058 2.50634,-0.77577 4.04544,-3.38474 7.42233,-6.71894 7.50418,-7.40932 z m -9.85677,-3.65799 c -0.57927,-0.56889 -1.05322,-1.75582 -1.05322,-2.63762 0,-0.9722 0.73583,-0.8806 1.86946,0.23273 1.02821,1.0098 1.50216,2.19673 1.05322,2.63762 -0.44894,0.4409 -1.2902,0.33617 -1.86946,-0.23273 z m -27.91029,12.86091 c 0,-0.32218 -1.24411,-1.54402 -2.7647,-2.7152 -2.5057,-1.92992 -2.56158,-1.87504 -0.59648,0.5858 2.06384,2.58448 3.36118,3.40638 3.36118,2.1294 z m -3.15966,-11.05077 c 1.0817,-1.28003 1.61125,-2.32732 1.1768,-2.32732 -0.43445,0 -1.67493,1.04729 -2.75662,2.32732 -1.0817,1.28002 -1.61125,2.32731 -1.1768,2.32731 0.43445,0 1.67493,-1.04729 2.75662,-2.32731 z m 7.09804,-0.75801 c 0.55348,-0.87951 -0.0807,-1.13961 -1.48658,-0.60977 -2.73693,1.03145 -3.23769,2.14355 -0.96521,2.14355 0.81762,0 1.92094,-0.6902 2.45179,-1.53378 z m -3.40797,-6.22394 c 6.34584,-4.92228 13.68804,-12.05983 13.68804,-13.30648 0,-0.71692 -3.13285,1.71611 -6.96186,5.40674 -4.60888,4.44227 -7.67912,6.30277 -9.08401,5.50469 -1.16719,-0.66305 -1.58245,-0.62175 -0.92282,0.0917 0.65962,0.71351 -0.40676,3.07346 -2.36974,5.24431 -3.64462,4.03056 -2.71074,3.54447 5.65039,-2.94102 z m 2.62924,2.32732 c 1.0817,-1.28003 1.61125,-2.32732 1.1768,-2.32732 -0.43445,0 -1.67493,1.04729 -2.75662,2.32732 -1.0817,1.28002 -1.61125,2.32731 -1.1768,2.32731 0.43445,0 1.67493,-1.04729 2.75662,-2.32731 z m -0.76384,-11.59622 c 0.1237,-1.64974 -0.31944,-2.66906 -0.98487,-2.26516 -0.66544,0.4039 -1.10613,2.08704 -0.97933,3.74032 0.28228,3.68018 1.6548,2.64938 1.9642,-1.47516 z m -1.88903,-7.18746 c -0.46466,-1.18918 -1.18347,-2.16216 -1.59737,-2.16216 -0.4139,0 -0.42832,0.87275 -0.0321,1.93943 0.39625,1.06669 -0.78862,3.68492 -2.63305,5.81829 l -3.35353,3.87886 4.23041,-3.65614 c 2.32673,-2.01087 3.85023,-4.6291 3.38559,-5.81828 z m 12.13184,-0.4156 c 0,-0.4486 -0.85311,0.0222 -1.89579,1.04622 -2.92643,2.87403 -5.07146,2.20066 -2.71837,-0.85335 1.77128,-2.29889 1.75627,-2.42155 -0.0978,-0.79999 -1.20444,1.05336 -2.29643,3.33548 -2.42666,5.07138 -0.232,3.09273 -0.16266,3.0878 3.45096,-0.24623 2.02818,-1.87134 3.68765,-3.76945 3.68765,-4.21803 z m -39.49569,2.1323 c 1.08169,-1.28002 1.61125,-2.32731 1.1768,-2.32731 -0.43445,0 -1.67493,1.04729 -2.75663,2.32731 -1.08169,1.28003 -1.61125,2.32732 -1.17679,2.32732 0.43445,0 1.67493,-1.04729 2.75662,-2.32732 z m 22.82033,-3.18392 c -0.33717,-3.01659 0.13618,-3.8139 1.87492,-3.15859 1.43543,0.54097 1.91459,0.22295 1.25155,-0.83068 -0.5909,-0.93897 -0.18128,-2.2493 0.91027,-2.91184 2.52847,-1.53471 0.38421,-5.13142 -2.42747,-4.07179 -1.15934,0.43691 -2.39078,0.30997 -2.73656,-0.28212 -0.34576,-0.59207 -0.48039,-0.3783 -0.29916,0.47505 0.18123,0.85335 -1.53534,3.64613 -3.8146,6.20618 -3.9914,4.48309 -3.93771,4.4688 1.45717,-0.38789 7.60322,-6.84473 9.74605,-6.40066 2.99609,0.6209 -2.99438,3.11486 -4.5557,5.16825 -3.46957,4.56305 1.80101,-1.00352 2.72413,0.84061 2.12272,4.24064 -0.12433,0.70343 0.40646,0.89497 1.17972,0.42561 0.77327,-0.46934 1.20298,-2.66918 0.95492,-4.88852 z m -16.50102,1.63238 c 1.08169,-1.28002 1.61125,-2.32732 1.1768,-2.32732 -0.43445,0 -1.67493,1.0473 -2.75663,2.32732 -1.08169,1.28002 -1.61125,2.32731 -1.17679,2.32731 0.43445,0 1.67493,-1.04729 2.75662,-2.32731 z m 26.85707,-3.10309 c 1.08169,-1.28002 1.61125,-2.32731 1.1768,-2.32731 -0.43446,0 -1.67494,1.04729 -2.75663,2.32731 -1.08169,1.28003 -1.61125,2.32732 -1.1768,2.32732 0.43446,0 1.67494,-1.04729 2.75663,-2.32732 z m -58.45362,-20.00406 c 0,-0.33538 -1.1033,-1.02557 -2.4518,-1.53378 -1.40592,-0.52984 -2.04006,-0.26973 -1.48658,0.60977 0.92777,1.4743 3.93838,2.18062 3.93838,0.92401 z m 33.83089,-4.02269 c -1.02313,-1.00481 -1.55727,-0.48025 -1.55727,1.52937 0,2.00963 0.53414,2.53419 1.55727,1.52938 1.02311,-1.0048 1.02311,-2.05395 0,-3.05875 z M 364.24433,330.0991 c -0.4999,-0.79438 -1.75561,-1.38921 -2.79046,-1.32184 -1.34671,0.0877 -1.31741,0.34586 0.103,0.90829 1.09155,0.43218 1.5149,1.53223 0.94077,2.44455 -0.62216,0.98866 -0.29663,1.20521 0.80584,0.53604 1.01733,-0.61748 1.44069,-1.77265 0.94077,-2.56704 z m -8.62158,-3.77165 c 1.0817,-1.28002 1.61125,-2.32731 1.1768,-2.32731 -0.43445,0 -1.67493,1.04729 -2.75662,2.32731 -1.0817,1.28002 -1.61125,2.32732 -1.1768,2.32732 0.43445,0 1.67493,-1.0473 2.75662,-2.32732 z m -0.90054,-3.70305 c 0.47617,-0.75666 -0.37054,-2.3276 -1.88155,-3.49097 -2.42688,-1.86853 -2.51857,-1.82715 -0.78623,0.35483 1.0786,1.35854 1.4933,2.92947 0.92158,3.49098 -0.57174,0.56148 -0.60753,1.0209 -0.0795,1.0209 0.52798,0 1.34957,-0.61908 1.82573,-1.37574 z m -41.7548,-2.33712 c 0,-0.33538 -1.1033,-1.02557 -2.4518,-1.53378 -1.40592,-0.52984 -2.04006,-0.26974 -1.48658,0.60977 0.92777,1.47429 3.93838,2.18062 3.93838,0.92401 z m -7.20564,-14.80103 c 1.53423,-1.66496 3.92655,-2.63489 5.3793,-2.18095 2.03538,0.63599 2.14036,0.48358 0.47281,-0.68647 -1.49863,-1.05151 -1.61745,-1.82323 -0.39496,-2.56524 0.96167,-0.58371 1.74849,-1.75947 1.74849,-2.61282 0,-0.85335 -0.71092,-1.12004 -1.57983,-0.59264 -3.78868,2.2996 -1.09412,-2.17866 3.94957,-6.56407 5.50594,-4.78732 7.93936,-8.92924 2.86387,-4.87459 -2.34211,1.87102 -2.53601,1.79017 -1.59794,-0.66639 0.65667,-1.7196 0.45035,-2.4211 -0.536,-1.82243 -0.882,0.53535 -1.40706,2.12688 -1.16678,3.53675 0.24027,1.40985 -0.4518,2.57905 -1.53793,2.5982 -1.08613,0.0191 -1.79706,0.51261 -1.57983,1.0966 0.21723,0.58397 -1.6103,3.11734 -4.06118,5.62969 -2.45087,2.51237 -4.60362,5.52555 -4.78391,6.69595 -0.18028,1.17041 -0.88292,3.00075 -1.56146,4.06743 -1.94127,3.05183 1.32431,2.2633 4.38578,-1.05902 z m -0.32687,-4.75926 c 1.08528,-1.7067 2.51918,-3.10309 3.18644,-3.10309 0.66725,0 0.32524,1.39639 -0.76004,3.10309 -1.08528,1.7067 -2.51918,3.10308 -3.18644,3.10308 -0.66725,0 -0.32524,-1.39638 0.76004,-3.10308 z m 4.37286,6.1146 c 0,-0.90371 -0.71093,-1.2116 -1.57983,-0.6842 -0.86891,0.5274 -1.57983,1.2668 -1.57983,1.64311 0,0.37632 0.71092,0.6842 1.57983,0.6842 0.8689,0 1.57983,-0.7394 1.57983,-1.64311 z m 25.82913,-5.38853 c -1.23421,-3.15871 -1.97889,-2.84523 -1.70559,0.71798 0.12638,1.64758 0.76206,2.67252 1.41265,2.27763 0.65058,-0.39488 0.78241,-1.74291 0.29294,-2.99561 z m -36.26974,-3.17335 c 0.47436,-1.21404 1.86412,-2.20735 3.08836,-2.20735 1.22424,0 3.12441,-1.06327 4.22261,-2.36283 1.69621,-2.00722 1.54698,-2.19367 -0.99144,-1.23885 -4.80566,1.80766 -13.20038,7.79477 -12.24493,8.73311 1.34906,1.32491 4.96178,-0.45789 5.9254,-2.92408 z m -2.19802,-2.98312 c 1.09708,-1.29824 1.26816,-2.32732 0.38689,-2.32732 -0.86891,0 -2.46485,1.04729 -3.54654,2.32732 -1.09708,1.29823 -1.26816,2.32731 -0.38688,2.32731 0.8689,0 2.46484,-1.04729 3.54653,-2.32731 z m 23.69742,-4.65463 c 1.08169,-1.28003 1.61125,-2.32732 1.1768,-2.32732 -0.43446,0 -1.67494,1.04729 -2.75663,2.32732 -1.08169,1.28002 -1.61125,2.32731 -1.1768,2.32731 0.43446,0 1.67494,-1.04729 2.75663,-2.32731 z m -11.80691,-3.57921 c -0.48641,-0.47771 -1.76117,-10e-4 -2.83283,1.05936 -1.54864,1.53234 -1.36719,1.71055 0.88438,0.86855 1.55806,-0.58265 2.43487,-1.45021 1.94845,-1.92791 z m 3.90777,-8.05737 c 0.93422,-1.71433 1.04155,-3.10308 0.23985,-3.10308 -0.79815,0 -1.82298,1.39638 -2.27743,3.10308 -0.45446,1.7067 -0.56237,3.10309 -0.23984,3.10309 0.32253,0 1.34738,-1.39639 2.27742,-3.10309 z m -109.40306,0.45657 c 1.95504,-0.36982 5.15419,-0.36982 7.10923,0 1.95503,0.36981 0.35546,0.6724 -3.55462,0.6724 -3.91007,0 -5.50965,-0.30259 -3.55461,-0.6724 z m 15.76821,-1.47429 c 1.06959,-0.425 3.20236,-0.45086 4.73949,-0.0576 1.53712,0.39338 0.66199,0.74111 -1.94472,0.77273 -2.60672,0.0317 -3.86436,-0.29023 -2.79477,-0.71525 z m -88.04532,-14.63634 c -2.62332,-2.10734 -2.88857,-2.6342 -0.78991,-1.569 5.15302,2.61547 8.00984,4.76395 6.31931,4.75246 -0.86891,-0.006 -3.35714,-1.43847 -5.5294,-3.18346 z m -19.02395,-14.98892 -7.0432,-7.36983 7.50418,6.91711 c 4.1273,3.8044 7.50418,7.12082 7.50418,7.36983 0,1.16502 -1.41841,-0.0667 -7.96516,-6.91711 z m -81.960292,-5.68899 c -0.0686,-1.63558 0.304793,-2.55197 0.829757,-2.03641 0.524963,0.51557 0.581089,1.85377 0.124728,2.9738 -0.504322,1.23771 -0.878673,0.87008 -0.95448,-0.93739 z m -3.859555,-18.96436 c -2.801599,-20.07396 1.051504,-67.27559 5.491753,-67.27559 0.728491,0 0.740487,1.57094 0.02665,3.49098 -3.560236,9.57618 -5.342666,28.70043 -4.590192,49.24956 0.43772,11.95345 0.633982,21.73354 0.436143,21.73354 -0.197837,0 -0.811797,-3.23933 -1.364355,-7.19849 z m 46.5149,-57.06126 c -0.0686,-1.63558 0.304793,-2.55196 0.829757,-2.0364 0.524962,0.51556 0.581089,1.85377 0.124727,2.97379 -0.504322,1.23772 -0.878673,0.87007 -0.95448,-0.93739 z M 32.736696,150.61518 C 36.493643,135.18384 53.334824,100.56784 67.270995,79.632072 76.61419,65.596154 90.243915,48.102859 90.148597,50.26944 c -0.10231,2.325627 -12.373199,35.722121 -12.478954,33.962781 -0.0531,-0.883312 1.662253,-6.817965 3.811888,-13.188118 4.650848,-13.782154 4.914158,-16.075884 1.217694,-10.607547 -1.516009,2.242698 -5.42234,7.818934 -8.680734,12.391636 -3.258395,4.5727 -5.924354,9.196065 -5.924354,10.274142 0,1.078076 -0.557642,1.960139 -1.239204,1.960139 -1.887169,0 -6.3332,8.283763 -5.564606,10.367872 0.372073,1.008909 -0.670984,2.542621 -2.317904,3.408245 -2.193042,1.152668 -2.811933,2.79484 -2.31258,6.13624 0.746612,4.99592 -3.647204,13.16949 -6.55869,12.20076 -2.508114,-0.83451 -5.548074,6.90607 -3.932543,10.01335 1.24748,2.39937 -1.314332,13.14409 -2.78866,11.69616 -0.3583,-0.35189 0.01675,-2.36584 0.833448,-4.47546 0.882802,-2.28038 0.910535,-4.72683 0.06839,-6.03347 -1.191836,-1.8492 -1.420347,-1.81917 -1.440701,0.18934 -0.01327,1.31293 -1.463344,5.153 -3.222307,8.53349 -1.758962,3.38049 -3.627129,8.76458 -4.151483,11.96463 -0.524353,3.20006 -1.586973,5.81829 -2.36138,5.81829 -0.774406,0 -0.940556,-1.92003 -0.369221,-4.26674 z m 21.159977,-39.22622 c 1.091277,-2.58741 1.567587,-5.11348 1.058465,-5.61348 -0.509121,-0.50001 -1.392804,0.91877 -1.963741,3.15283 -0.570937,2.23407 -1.671919,4.06194 -2.446629,4.06194 -0.774709,0 -1.408561,0.6982 -1.408561,1.55155 0,3.24888 2.859083,1.35532 4.760466,-3.15284 z m 17.481842,41.29494 c -0.0686,-1.63558 0.304793,-2.55196 0.829757,-2.0364 0.524963,0.51557 0.581089,1.85377 0.124728,2.97379 -0.504322,1.23772 -0.878674,0.87007 -0.95448,-0.93739 z m 1.579828,-46.5463 c -0.0686,-1.63558 0.304793,-2.55196 0.829757,-2.0364 0.524962,0.51557 0.581089,1.85377 0.124727,2.97379 -0.504322,1.23772 -0.878673,0.87007 -0.95448,-0.93739 z m -14.813438,-2.97379 c -0.444575,-1.1378 0.122515,-2.06872 1.260181,-2.06872 1.137673,0 1.704755,0.93092 1.260181,2.06872 -0.444573,1.1378 -1.011655,2.06873 -1.260181,2.06873 -0.248526,0 -0.815608,-0.93093 -1.260181,-2.06873 z M 74.53817,96.828343 c -0.0686,-1.635584 0.304793,-2.551965 0.829757,-2.036401 0.524963,0.515566 0.581089,1.853772 0.124728,2.973792 -0.504322,1.237717 -0.878674,0.870068 -0.95448,-0.937391 z M 67.238438,91.16411 c -0.836994,-1.330039 -0.564528,-1.533269 0.880076,-0.65644 1.573004,0.954766 1.806443,0.53285 0.940413,-1.699701 -0.924104,-2.382268 -0.758453,-2.586075 0.837405,-1.030295 1.432559,1.396582 1.508667,2.411547 0.27191,3.626162 -1.236756,1.214614 -2.056812,1.147515 -2.929804,-0.239726 z m 8.87956,-2.093484 c -0.0686,-1.635584 0.304793,-2.551964 0.829757,-2.0364 0.524962,0.515565 0.581089,1.853771 0.124727,2.973792 -0.504322,1.237717 -0.878673,0.870068 -0.954479,-0.937392 z m -4.815822,-4.783924 c 0,-0.853349 0.68915,-2.598835 1.531444,-3.878858 0.842295,-1.280024 1.531444,-1.629121 1.531444,-0.775772 0,0.853349 -0.689149,2.598835 -1.531444,3.878858 -0.842294,1.280023 -1.531444,1.629121 -1.531444,0.775772 z"
       id="path3899"
       inkscape:connector-curvature="0" />
  </g>
</svg>
