<?xml version="1.0" encoding="UTF-8" standalone="no"?>
<svg
   xmlns:dc="http://purl.org/dc/elements/1.1/"
   xmlns:cc="http://creativecommons.org/ns#"
   xmlns:rdf="http://www.w3.org/1999/02/22-rdf-syntax-ns#"
   xmlns:svg="http://www.w3.org/2000/svg"
   xmlns="http://www.w3.org/2000/svg"
   xmlns:sodipodi="http://sodipodi.sourceforge.net/DTD/sodipodi-0.dtd"
   xmlns:inkscape="http://www.inkscape.org/namespaces/inkscape"
   sodipodi:docname="hot blooded.svg"
   height="100%"
   width="100%"
   inkscape:version="0.48.4 r9939"
   version="1.1"
   id="svg2"
   viewBox="0 0 512 512"
   inkscape:export-filename="C:\Users\Chris\Documents\GitHub\bot-game\assets\hot_blooded.png"
   inkscape:export-xdpi="12.832031"
   inkscape:export-ydpi="12.832031">
  <sodipodi:namedview
     pagecolor="#ffffff"
     bordercolor="#666666"
     borderopacity="1"
     objecttolerance="10"
     gridtolerance="10"
     guidetolerance="10"
     inkscape:pageopacity="0"
     inkscape:pageshadow="2"
     inkscape:window-width="1185"
     inkscape:window-height="1030"
     id="namedview44"
     showgrid="false"
     inkscape:zoom="0.25169963"
     inkscape:cx="-1027.714"
     inkscape:cy="380.37093"
     inkscape:window-x="100"
     inkscape:window-y="100"
     inkscape:window-maximized="0"
     inkscape:current-layer="svg2" />
  <metadata
     id="metadata48">
    <rdf:RDF>
      <cc:Work
         rdf:about="">
        <dc:format>image/svg+xml</dc:format>
        <dc:type
           rdf:resource="http://purl.org/dc/dcmitype/StillImage" />
        <dc:title></dc:title>
      </cc:Work>
    </rdf:RDF>
  </metadata>
  <defs
     id="defs46">
    <linearGradient
       id="linearGradient3926">
      <stop
         style="stop-color:#ffffff;stop-opacity:0;"
         offset="0"
         id="stop3928" />
      <stop
         id="stop3934"
         offset="0.5"
         style="stop-color:#ffffff;stop-opacity:0.49803922;" />
      <stop
         style="stop-color:#ffffff;stop-opacity:0;"
         offset="1"
         id="stop3930" />
    </linearGradient>
    <filter
       color-interpolation-filters="sRGB"
       inkscape:menu-tooltip="Increase or decrease lightness and contrast"
       inkscape:menu="Color"
       inkscape:label="Lightness-Contrast"
       height="1"
       width="1"
       y="0"
       x="0"
       id="filter3108">
      <feFlood
         flood-color="rgb(0,0,0)"
         flood-opacity="1"
         result="result1"
         id="feFlood3110" />
      <feBlend
         result="result2"
         mode="normal"
         in2="SourceGraphic"
         id="feBlend3112" />
      <feComposite
         result="result3"
         operator="arithmetic"
         k2="1"
         in2="SourceGraphic"
         id="feComposite3114" />
      <feComposite
         operator="in"
         in2="SourceGraphic"
         id="feComposite3116" />
    </filter>
    <filter
       color-interpolation-filters="sRGB"
       height="1"
       width="1"
       y="0"
       x="0"
       inkscape:menu-tooltip="Oversaturate colors which can be fluorescent in real world"
       inkscape:menu="Color"
       inkscape:label="Fluorescence"
       id="filter7264">
      <feColorMatrix
         values="0"
         type="hueRotate"
         id="feColorMatrix7266" />
      <feColorMatrix
         values="1"
         type="saturate"
         id="feColorMatrix7268" />
      <feColorMatrix
         values="2 -1 0 0 0 0 2 -1 0 0 -1 0 2 0 0 0 0 0 1 0 "
         type="matrix"
         id="feColorMatrix7270" />
    </filter>
    <filter
       color-interpolation-filters="sRGB"
       height="1"
       width="1"
       y="0"
       x="0"
       inkscape:menu-tooltip="Oversaturate colors which can be fluorescent in real world"
       inkscape:menu="Color"
       inkscape:label="Fluorescence"
       id="filter7746">
      <feColorMatrix
         values="0"
         type="hueRotate"
         id="feColorMatrix7748" />
      <feColorMatrix
         values="1"
         type="saturate"
         id="feColorMatrix7750" />
      <feColorMatrix
         values="2 -1 0 0 0 0 2 -1 0 0 -1 0 2 0 0 0 0 0 1 0 "
         type="matrix"
         id="feColorMatrix7752" />
    </filter>
    <filter
       color-interpolation-filters="sRGB"
       height="1"
       width="1"
       y="0"
       x="0"
       inkscape:menu-tooltip="Oversaturate colors which can be fluorescent in real world"
       inkscape:menu="Color"
       inkscape:label="Fluorescence"
       id="filter11635">
      <feColorMatrix
         values="0"
         type="hueRotate"
         id="feColorMatrix11637" />
      <feColorMatrix
         values="1"
         type="saturate"
         id="feColorMatrix11639" />
      <feColorMatrix
         values="2 -1 0 0 0 0 2 -1 0 0 -1 0 2 0 0 0 0 0 1 0 "
         type="matrix"
         id="feColorMatrix11641" />
    </filter>
  </defs>
  <rect
     y="-3.1355259"
     x="1.7468045"
     height="524.13165"
     width="516.97894"
     id="rect3171"
     style="opacity:0.98999999;fill:#0c0000;fill-opacity:1;fill-rule:nonzero;stroke:none" />
  <rect
     style="opacity:0.98999999;fill:#ffffff;fill-opacity:1;fill-rule:nonzero;stroke:none"
     id="rect3156"
     width="76.367531"
     height="57.982758"
     x="-94.752312"
     y="319.66696" />
  <g
     id="g3664"
     transform="matrix(1.8003544,0,0,1.9525802,960.24845,-41.618285)">
    <path
       style="fill:#c6c0c1"
       d="m -441.10297,277.29567 c 3.79539,-1.02773 3.01489,1.71911 0,0 z m 20.45184,-1.38614 c 0.79833,-4.31114 5.73996,6.54561 0,0 z m -21.36513,-4.41062 c 1.71011,-11.33266 6.36552,-23.58287 9.41487,-33.62888 11.01365,2.9273 1.7337,9.80876 -1.10889,16.32676 0.25623,3.03246 -0.55915,25.08745 -8.30598,17.30212 z m -21.75776,-11.95763 c 0.73598,-5.24603 0.91695,3.88025 0,0 z m 38.93636,-3.33333 c 1.10905,-7.86329 1.90579,4.63564 0,0 z m -80.26531,-2.76394 c -6.94902,-11.13172 -12.96094,-26.76036 -1.58288,-38.15554 11.143,-3.05484 15.5222,-12.81209 22.67058,-20.60877 6.12755,-3.27342 17.77501,2.44774 8.56004,8.17472 -0.78604,7.38693 -8.04759,10.75568 -11.53432,12.82277 -4.26415,12.59901 -4.26857,22.04439 -12.88525,31.54402 -1.26389,0.81829 -3.4183,11.97601 -5.22817,6.2228 z m 19.79995,-18.73606 c 0.45203,-8.96889 13.71796,-16.95679 14.29496,-21.98711 0.24202,7.19552 -5.80221,23.6598 -14.29496,21.98711 z m 47.45005,-18.30902 c 2.95125,-3.55736 0.97634,4.73042 0,0 z m -28,-43.44098 c -8.57221,-6.89638 8.33383,-23.96726 -4.6324,-23.66126 -5.67288,-4.9053 7.49744,-23.8452 -2.32693,-14.213 -4.91402,-1.27274 -5.81849,-2.96579 -1.10208,-2.01009 -1.73216,-3.75448 -15.25116,-3.35948 -9.40926,2.31864 -11.32465,-4.74091 8.90433,-5.29112 2.78933,-13.09937 7.64818,-6.62724 0.45622,13.97073 8.97026,5.1912 -8.61554,-7.72116 10.96566,0.97531 2.97326,-8.27611 2.65648,-7.88736 21.58585,-14.32128 17.88809,-2.12432 -9.85164,5.57174 -14.40017,15.98295 -3.30231,23.34862 8.81498,9.59767 2.88678,21.83606 5.08071,32.48572 -4.56716,3.3027 -11.66908,0.46413 -16.92867,0.04 z m 0,-28.44098 c -4.12609,-11.45811 -2.97779,7.62281 0,0 z m 0,-7.11804 c -0.87308,-5.37367 -2.24745,3.2527 -0.55992,1.97521 l 0.55992,-1.97521 z m 6.98469,-23.25 c -2.2761,-2.9658 -1.24907,7.56271 0,0 z m -17.48342,56.55902 c 0.54233,-4.89986 10.51999,-20.86165 6.41504,-6.85227 -2.02187,0.11532 -6.68003,13.89308 -6.41504,6.85227 z m -0.42232,-6.16667 c 0.73598,-5.24603 0.91695,3.88025 0,0 z m -6.07895,-8.52431 c 1.71049,-3.6059 2.64099,2.10441 0,0 z m 4,-5.05902 c 0.73428,-7.35361 1.63503,5.99581 0,0 z m -13.26764,-2.91547 c 0.1895,-7.73167 3.30666,4.81341 0,0 z m 9.26577,-2.58946 c -2.4333,-18.0403 8.08166,5.002 0,0 z m -3.91918,-5.91174 c 0.73598,-5.24604 0.91695,3.88026 0,0 z m 8.92105,0.41667 c 2.48265,-4.02721 2.06906,3.72128 0,0 z m -4,-3.19819 c 7.84281,-3.39956 8.24387,4.51113 0,0 z m -10,-1.36083 c 2.95125,-3.55736 0.97634,4.73042 0,0 z m 3.981,0.0819 c 5.4059,-5.53962 -1.75491,4.80561 0,0 z m 30.019,-32.02288 c 4.92731,-5.346387 -1.73674,4.8362 0,0 z"
       id="path3688"
       inkscape:connector-curvature="0" />
    <path
       style="fill:#6196a8"
       d="m -481.35297,276.95795 c 7.10946,-4.08709 14.47156,-21.07246 19.20609,-19.2357 2.61086,12.85268 -6.59858,25.64282 -19.18631,19.84002 l -0.30216,-0.20042 0.28238,-0.4039 0,0 z m 18.10417,-18.72917 c -2.24515,1.92299 1.88858,3.49284 0,0 z m -50.71017,-21.52083 c -1.75964,-8.4616 -1.76193,-16.17578 4.24948,-21.79146 -2.6507,-3.57494 5.39988,-6.45825 5.09415,-12.3519 6.48907,-2.84394 3.45545,-1.12794 -1.66623,-1.44525 4.46981,-2.64072 21.75195,-12.41677 14.81335,-0.86285 -11.94267,4.97954 -17.75167,16.29527 -21.43594,28.23659 -0.74065,2.6667 -1.19441,5.44018 -1.05481,8.21487 z m 6.106,-23.75 c -2.48265,-4.02721 -2.06906,3.72128 0,0 z m 83.03041,19.45 c 1.33494,-8.61619 1.69006,8.36402 0,0 z m -9.53041,-15.45 c 0.64311,-3.68297 2.30888,3.50207 0,0 z m -64.5,-25.95402 c -6.51902,-3.962 24.025,-1.23868 6.738,0.28593 -2.25037,0.0645 -4.4958,-0.12647 -6.738,-0.28593 z m -8.25,-0.70826 c 3.79539,-1.02773 3.01489,1.71911 0,0 z m 10.77392,-6.26236 c -5.64916,-2.05928 -1.09222,-10.59943 -7.56551,-10.03693 -3.05663,-10.25118 -15.78275,-9.92808 -15.2148,-21.0866 -4.50455,-8.98542 -0.46012,-22.60295 -0.3769,-33.30213 7.36994,-12.00428 1.44194,-29.771589 11.81462,-38.375787 3.41583,-3.925295 4.49299,-6.208658 5.7467,-9.893589 0.032,7.036674 4.35305,14.492289 9.13526,4.044079 3.7747,-6.599869 -3.13265,-15.533469 3.8675,-18.784173 2.18441,-13.936242 22.45592,-6.078778 21.97308,-3.539937 -0.11766,-16.555568 8.04306,7.729594 8.08896,13.12978 2.22046,10.422744 -1.16255,20.194209 2.77934,31.394052 7.42926,12.414025 -16.68971,18.992425 -11.72482,26.625055 -3.53862,-1.82788 -9.5417,-0.0669 -3.12747,3.10154 -9.72482,8.85788 -2.869,-16.04125 -9.32479,-2.48119 1.01357,6.36546 -13.37134,7.33441 -2.6284,9.73218 -8.60932,-9.41583 18.11757,1.05846 4.28436,-2.22704 4.09476,8.68994 13.97496,-7.33296 8.4699,4.62792 -3.26565,9.61233 3.30104,18.72484 -4.54919,27.65185 1.63218,15.21829 -23.63923,0.23676 -20.00523,16.67017 0.52854,0.78552 -0.63198,7.02164 -1.64261,2.75075 z m 20.08025,-20.80453 c -2.24515,1.92299 1.88858,3.49284 0,0 z m -4.60417,-7.82985 c -2.72378,-1.82414 -1.40439,3.30807 0,0 z m 3.2,-5.64098 c -4.25305,0.31528 2.64144,5.072 0,0 z m -12.825,-3.00225 c -3.94798,-3.08177 0.32699,6.84415 0,0 z m 10.625,-3.89195 c -2.47535,-10.59997 -5.22183,5.96427 -1.14153,3.95616 l 0.54944,-1.50985 0.59209,-2.44631 z m -6.39583,-4.63497 c -2.24515,1.92299 1.88858,3.49284 0,0 z m 10.39583,1.72917 c -2.48265,-4.02721 -2.06906,3.72128 0,0 z m 0.43879,-3.09904 c -7.5367,-3.60112 -8.44129,3.35597 0,0 z m -14.43879,-0.84194 c -1.77014,-5.14 -2.59699,3.07571 0,0 z m 4,-1.16601 c -2.70504,-3.33554 -2.59134,6.0607 0,0 z m 29.36163,-31.39301 c 0.0332,-4.57618 -3.21531,4.8857 0,0 z m -26.53057,-37.55592 c -1.73538,-10.406784 -1.58625,11.131641 0,0 z m 21.16894,-7.944077 c -2.48265,-4.027207 -2.06905,3.721287 0,0 z m -19.5,-4 c -3.04295,-3.432594 -0.36879,3.543485 0,0 z m 13.96201,92.061457 c -6.87974,-6.42148 6.58549,-4.00598 0,0 z m -0.18557,-8.04177 c 0.84778,-7.6921 2.34119,5.86846 0,0 z m 51.47724,-6.73349 c 3.57792,-9.67864 -15.50238,-22.55773 0.32593,-24.35658 4.66541,-5.9263 -5.0169,-14.205192 -8.69542,-5.92962 -1.07063,-11.528077 -9.49052,-22.473686 -12.16379,-31.591784 5.38476,-1.487071 8.42608,-7.903116 7.91466,-9.252768 -0.15149,-5.502497 -14.08762,5.877032 -11.46047,-6.745495 0.27743,-5.098607 -3.60376,12.726436 -2.38447,0.722026 2.72971,-4.494848 2.46488,-16.744521 -0.93296,-5.288848 -0.7437,7.115658 -3.23128,16.170126 -3.95346,3.433885 -2.74959,-6.979698 0.0933,16.979399 -3.82004,4.485265 1.30011,-7.56312 -3.75701,-12.824013 -6.85565,-16.42852 4.58052,-7.007659 10.60733,8.228995 16.82517,-0.259622 7.10697,-4.129605 -4.56514,-7.36835 4.84699,-10.464376 5.22735,-1.719392 8.54801,-1.412594 4.54127,2.933136 -4.96682,4.147729 2.09589,17.517369 3.89305,14.66948 -3.62216,-6.045902 8.9013,-11.122168 2.24408,-17.021806 4.52904,1.938483 8.78654,-4.231484 15.5053,-0.444215 -2.39158,2.278709 -11.32979,13.144142 -2.76424,8.791672 -0.20208,11.952132 -0.20157,24.246543 -0.36335,36.4729 0.03,4.987491 -0.008,22.349993 3.74819,18.313159 0.23265,-4.300691 0.74073,-15.884221 3.41211,-5.607288 2.6643,-12.249075 -4.05646,-16.913494 -2.84867,-28.301605 4.83043,-1.543947 -4.13936,-15.091092 -0.32617,-20.988483 -3.1363,-11.51918 11.09122,-0.827154 2.80295,4.973438 9.39898,-0.761023 1.72489,18.745389 4.30898,27.26365 2.71607,12.367199 1.03401,-14.676432 4.03536,-18.737684 -5.15363,-0.435459 4.92791,-4.762376 -1.34565,-6.750287 -0.98793,-2.592954 0.26416,-11.820543 2.53824,-4.502978 -1.30828,-7.333976 -8.71664,-13.933466 3.77371,-11.439477 12.29928,-0.37043 24.67542,-0.813938 36.90909,0.824164 -5.95188,-0.722064 -12.22422,0.972748 -11.67444,5.422821 -7.24475,5.071545 2.08272,22.142749 -6.18988,25.598187 -3.60677,-9.256567 1.30137,-26.458209 -7.08535,-29.145216 -1.28911,13.0507 -0.73788,37.803534 -2.04506,43.548686 -3.85156,-14.338644 0.43598,-29.025132 -2.08278,-43.101329 -4.52027,-3.819667 1.05606,18.990369 -6.92737,14.369584 0.36507,-5.809135 -3.69893,-11.247747 -2.71709,-2.466871 -2.20552,9.610046 2.55893,25.554764 -0.31365,31.070798 -0.37961,-4.418975 -1.67554,-20.445669 -2.36984,-7.024413 -0.67361,9.115523 -2.35854,28.130649 6.96595,28.712144 -0.76803,-7.091406 4.64826,-9.64782 3.56123,-0.727582 1.01339,4.503202 -3.23232,13.879312 -5.13334,4.423992 -3.5561,3.76259 2.31851,5.68018 -4.24056,8.84921 -7.67589,4.93287 -11.49396,13.72703 -10.99643,20.02497 -2.67034,1.07245 -5.54308,1.95106 -8.46213,1.67368 z m 11.24632,-39.286197 c -2.48265,-4.027207 -2.06905,3.721287 0,0 z m -15.25007,-14.25 c -3.78088,-1.83434 1.03069,13.361155 0,0 z m 0.78775,-12.284406 c 2.92619,-5.017695 0.0349,-17.671041 -2.22707,-6.556497 0.52389,6.131098 1.05495,21.884322 2.20046,6.920815 l 0.0266,-0.364318 z m 12.46232,-1.465594 c -2.35444,-4.327283 -1.6427,3.996917 0,0 z m -28,-9 c -2.48265,-4.027207 -2.06905,3.721287 0,0 z m 9,0.122445 c -4.2732,-8.783606 -5.55235,3.091706 0,0 z m 6.83326,-5.43321 c -6.47387,-5.765513 -2.095,8.187973 0,0 z m 2.81442,-5.881777 c -2.37943,-4.147565 -9.0774,1.50196 -1.76101,0.03136 -4.1946,5.828761 4.52759,7.80949 1.76101,-0.03136 z m -30.64768,3.192542 c -2.48265,-4.027207 -2.06905,3.721287 0,0 z m -74,65.999997 c 1.59443,-2.99248 1.75579,3.35014 0,0 z m 3,-8.94098 c 1.71048,-3.60589 2.64099,2.10441 0,0 z m 134.63029,-7.309017 c -2.9724,-6.23357 2.93903,-11.409558 1.38967,-1.434318 0.49138,0.466418 -1.02413,6.756275 -1.38967,1.434318 z m -25.63029,-17.75 c 0.77002,-7.599877 1.67108,5.987551 0,0 z m 17.70029,-7.338651 c -1.43317,-9.338791 3.81595,-3.621584 0.73521,1.306415 -0.24507,-0.435472 -0.49014,-0.870943 -0.73521,-1.306415 z m -0.94189,-11.911349 c -2.83478,-7.501387 4.30074,-11.825763 2.18733,-1.741611 0.84694,2.22829 -1.90294,6.420193 -2.18733,1.741611 z m 27.2416,-4.190983 c 1.86385,-3.856555 2.79812,1.888748 0,0 z m 0,-4 c 1.65413,-3.171464 3.59129,2.410245 0,0 z m -112.5,-6.559017 c 4.65559,-4.136954 2.65996,3.489247 0,0 z m 15.5,-1 c 2.48265,-4.027207 2.06905,3.721287 0,0 z m 97.88931,-0.583333 c -1.64374,-10.531522 4.27794,-7.923901 0,0 z m -115.61848,-1.020834 c 3.02997,-1.431429 2.42562,2.113827 0,0 z m 110.72917,-2.336816 c 1.7105,-3.605899 2.64099,2.104415 0,0 z m 11.5,-2.059017 c 0.64311,-3.682967 2.30888,3.50207 0,0 z m -112.04112,-4.066531 c -0.76542,-4.41048 3.74353,3.886283 0,0 z m 22.01413,0.110205 c 4.99156,-2.606104 3.5389,3.851674 0,0 z m 18.52699,-0.04367 c 2.48265,-4.027207 2.06905,3.721287 0,0 z m 65,-0.5 c 1.58563,-4.72689 1.35142,4.906615 0,0 z m -87.43524,-0.395215 c 1.69831,-5.271541 3.91167,3.334525 0,0 z m -2.29393,-3.708952 c 3.02997,-1.431429 2.42562,2.113827 0,0 z"
       id="path3686"
       inkscape:connector-curvature="0" />
    <path
       style="fill:#a0688a"
       d="m -444.89193,275.76939 c 1.56173,-5.88128 11.6185,-0.83259 10.46085,-9.56612 12.28421,1.96974 -14.18707,17.01739 -10.46085,9.56612 z m 23.30594,0.24446 c 2.21421,-16.23509 12.61965,5.91726 0,0 z m -21.26698,-8.76679 c 2.92621,-5.9288 4.15248,-2.22517 0,0 z m -67.23688,-3.86338 c -3.44721,-5.92478 2.89906,-19.11052 7.18339,-8.15622 2.61036,-11.58028 12.93565,-17.77934 12.59274,-29.76501 3.06673,-5.18457 2.83336,-13.13415 8.57768,-11.80495 2.72532,-5.47773 13.67667,-14.35937 6.98476,-19.17117 -11.24517,-0.88498 20.85515,-2.00124 11.88972,8.68402 -3.57574,4.16843 -7.56561,13.57887 -8.84156,10.18043 -1.95226,7.71812 -16.72528,14.26517 -12.10706,22.62758 3.89688,-2.8245 13.61367,-14.24977 7.11413,-3.0551 -5.31551,8.50781 -18.57341,5.90042 -17.2073,14.71462 -8.8138,2.95017 -10.02686,10.04204 -16.1865,15.7458 z m 93.74965,-1.40506 c -0.65343,-9.46657 7.88917,-0.13476 0,0 z m -23.31782,-2.52067 c 0.34877,-6.612 0.97765,5.42019 0,0 z m 6.32643,-0.52363 c 1.24024,-3.34953 -1.03759,-12.85568 2.04123,-4.56091 16.2811,-0.0445 -4.01563,9.7866 -2.04123,4.56091 z m 11.47862,-0.86938 c 3.5218,-6.54391 5.95544,7.07115 0,0 z m -42,-3.54797 c 1.86385,-3.85656 2.79812,1.88874 0,0 z m 61.66667,-5.22569 c -1.99434,-6.82711 6.05866,2.32912 0,0 z m -26.54375,-1.56825 c -1.57228,-9.28458 12.02176,-3.28794 12.2518,0.3898 -1.59763,-1.01305 -14.6951,1.15316 -12.2518,-0.3898 z m -82.12292,-0.64962 c 2.65743,-4.1161 5.82815,-0.23122 0,0 z m -2,-3.11546 c 2.48265,-4.02721 2.06906,3.72128 0,0 z m 78.66667,-1.66667 c -4.51952,-5.31414 4.94591,-6.6105 2.33333,-3.27431 -3.04209,-6.93642 -0.24069,4.62245 -2.33333,3.27431 z m -78.50878,-2.33333 c 0.95835,-6.19597 0.5159,5.60659 0,0 z m 103.84211,-1.64699 c -4.98336,-4.59135 -3.52427,-12.99805 0.42425,-3.4937 0.7532,0.61305 2.12672,4.59579 -0.42425,3.4937 z m -64.96457,-13.4882 c 2.1521,-8.34614 4.90651,-7.47514 0,0 z m 42.99637,-3.53302 c 0.0805,-7.81131 6.3997,-2.76058 0,0 z m -74.0318,-9.70935 c 2.95466,-7.91137 18.35504,-2.69411 5.00658,-0.91606 -1.14561,0.30165 -4.55136,4.13853 -5.00658,0.91606 z m 219.34508,-0.16557 c 0.57239,-7.59404 4.62663,5.34758 0,0 z m -211.34508,-6.95687 c 5.72333,-1.72183 12.8273,-15.80997 7.89945,-2.36597 -0.93339,1.8251 -7.34506,5.27302 -7.89945,2.36597 z m 173.72917,-12.10417 c -3.1788,-6.49331 2.01408,-7.4335 0,0 z m -144.20349,-20.34617 c -1.94941,-4.39692 15.14085,6.94108 14.68961,2.58105 -4.16543,-0.3397 -12.91516,2.11455 -14.68961,-2.58105 z m 20.1138,0.25649 c -3.75248,-6.48737 -3.48797,-21.62006 -0.39049,-23.30726 -3.50611,6.99224 6.05381,20.63041 0.39049,23.30726 z m -23.88948,-7.15761 c 3.66068,-2.83206 0.19715,-17.77547 6.7927,-12.42477 1.12879,2.41847 -9.84656,17.82238 -6.7927,12.42477 z m -3.68232,0.0518 c 0.48742,-6.37998 6.64779,-8.00754 1.11625,-1.11055 l -1.11625,1.11055 z m 32.56849,-6.6946 c 3.93343,-3.87388 1.32306,5.09733 0,0 z m -9.63617,-14.63406 c -6.35638,-5.86652 8.12622,0.75526 1.7485,0.38513 l -1.7485,-0.38513 z m -3.45985,-4.74517 c -6.72785,-4.88693 -8.19198,-13.62318 1.35296,-12.41637 6.78857,-5.86834 20.404,2.06459 6.39411,4.45737 -8.22625,-1.76076 -6.7877,10.93813 -7.74707,7.959 z m 105.45985,-8.16111 c 2.02963,-4.84344 5.75498,2.44953 0,0 z m -3.98469,-3.2154 c 2.2454,-8.1099 0.33174,9.28844 0,0 z m -19.40362,-0.28011 c 6.1943,-7.39868 -2.4999,7.30867 0,0 z m -85.86169,-2.69038 c 4.69253,-2.89294 12.23742,-13.06195 5.68718,-2.81906 -0.0794,0.83537 -10.2034,6.20841 -5.68718,2.81906 z m -1.75,-8.72049 c 1.71049,-3.6059 2.64099,2.10441 0,0 z m 12,-3.41141 c -8.04551,-1.03257 -6.34517,-9.49699 -1.17491,-1.53652 -0.0717,-1.63649 3.77218,2.48538 1.17491,1.53652 z m 159.15131,-28.397607 c -1.5771,-5.460433 -10.72945,-22.617639 2.24452,-16.157041 -0.94165,5.75341 2.44939,14.4333 -0.49928,17.492623 l -1.74524,-1.335582 z m -73.15131,-1.25 c 1.59443,-2.992481 1.75579,3.350144 0,0 z m 67,-7.059017 c 3.03538,-5.04282 0.91241,6.216041 0,0 z"
       id="path3684"
       inkscape:connector-curvature="0" />
    <path
       style="fill:#975562"
       d="m -504.85297,276.61096 c -5.99988,-6.95661 -13.01806,-27.09715 -2.67381,-29.81313 -2.60355,3.09085 -6.06011,22.57233 1.91831,11.19686 6.26965,-2.37061 5.36639,-10.13778 12.93052,-11.62037 -4.13897,-8.10492 11.23724,-4.17007 14.7124,-12.37946 8.53525,-7.94388 -0.34581,10.73279 -7.19062,10.06515 -9.06858,2.78947 -12.68751,10.02358 -16.46771,16.95028 -17.91912,-2.54654 6.74524,21.32999 -3.22909,15.60067 z m 91,-0.42631 c -1.83462,-3.78924 -5.23723,-9.71443 -8.29775,-3.01357 2.65961,-7.56528 -12.34445,3.85915 -10.25836,-5.14648 -7.54692,-8.43411 7.44339,-11.82427 10.06907,-4.06665 0.56957,-4.0202 9.02352,-6.70045 1.09409,-9.0594 6.6597,-3.97047 24.15376,0.91184 10.0609,6.67609 -2.54358,3.2232 5.25752,19.93139 -2.66795,14.61001 z m -10.71025,-11.2267 c -5.7525,-7.77345 -3.17944,6.84431 0,0 z m 11.23876,-3.70811 c 3.14188,-12.9826 -8.01699,5.94603 0,0 z m -19.06095,-7.15766 c -1.42752,-12.20015 16.29756,-0.20388 2.93317,0.53578 l -1.48496,-0.16453 -1.44821,-0.37125 z m 21.99317,-3.41625 c -5.89371,-2.16664 -17.58654,-2.1595 -4.97007,-3.13328 -5.46738,-0.91372 -20.45656,-12.34439 -6.10127,-5.74132 5.73281,6.35231 25.00061,-0.82551 23.18889,9.32697 -4.02562,0.34567 -8.18318,0.72455 -12.11755,-0.45237 z m 10.53927,-2.21798 c -4.29401,-5.85851 -2.64666,5.11268 0,0 z m 1.04775,-5.44933 c -7.38689,-2.49985 7.99873,1.38957 1.08369,-4.02294 4.24941,1.55825 5.11683,7.57449 -1.08369,4.02294 z m -5.60159,-3.13779 c -7.57675,-3.40627 -5.89866,-15.46203 -14.44616,-18.19223 11.10334,-6.17773 19.34743,14.1666 15.0548,18.94198 l -0.60864,-0.74975 z m -5.98728,-2.97941 c -1.6437,-5.03571 3.27817,3.68419 0,0 z m -63.09628,-10.43347 c -0.91947,-10.03274 19.65291,-27.38332 5.37325,-31.08356 5.47504,-5.61069 10.19884,4.60859 4.665,10.26802 -2.85144,7.17145 -6.84113,13.80599 -10.03825,20.81554 z m 44.61292,-6.45427 c 6.4875,-8.25259 -0.5039,5.3511 0,0 z m 144.20781,-5.2624 c -0.87059,-1.77024 3.15252,-5.94559 1.53064,-5.79041 2.00607,1.2127 2.0512,8.42428 -1.53064,5.79041 z m -212.18333,-7.78333 c 3.58051,-3.76694 5.98073,2.13116 0,0 z m 156.31155,-5.4524 c -11.38002,-9.6001 15.28088,-1.69161 0,0 z m 17.88845,-5.7476 c -4.11597,-7.93337 5.86979,1.76069 0,0 z m -122.2,-1.74098 c 1.71049,-3.6059 2.64099,2.10441 0,0 z m -38.72917,-0.66319 c 3.03003,-1.43141 2.42551,2.11393 0,0 z m 158.47014,-3.72762 c -0.50252,-6.16782 6.02791,-1.43398 1.16362,-0.84431 1.45229,1.31047 -1.52884,2.86184 -1.16362,0.84431 z m 5.8974,-0.16821 c 2.43855,-6.16139 0.14297,5.25534 0,0 z m -1.63837,-2.44098 c 1.71049,-3.6059 2.64099,2.10441 0,0 z m -3.26806,-9.14923 c -12.32934,1.78497 -0.38506,-14.39415 4.29841,-3.41954 2.86006,3.24004 -1.59888,6.24349 -4.29841,3.41954 z m -120.89238,-9.36519 c -5.32316,-10.86788 1.14906,-22.65899 -9.69069,-31.47692 1.65147,-9.90619 14.9129,-3.15408 21.94853,-2.68504 -3.86655,2.23052 -28.61569,0.54379 -13.82879,2.76439 8.92392,3.03644 4.9455,2.2735 0.81547,6.5809 3.82184,8.66851 8.65687,15.49316 2.33536,24.26445 -0.17552,1.82207 -2.41334,6.24679 -1.57988,0.55222 z m 2.98565,-8.88006 c 4.04439,-4.35207 -9.40094,-4.32878 -4.47047,1.99748 1.12457,-0.91274 2.69374,-2.87079 4.47047,-1.99748 z m 115.25374,7.91879 c 0.73608,-5.24648 0.91673,3.88043 0,0 z m -146.07895,-0.26243 c 3.6008,-4.94285 5.80669,1.67059 0,0 z m 100.32744,-15.95124 c -0.89353,-9.45932 -11.53514,-17.62247 0.89401,-24.80604 7.62506,-7.08321 6.64,-17.90511 6.57323,-26.28121 1.57156,7.22004 9.36764,11.78682 1.09695,18.50602 7.07716,8.96612 -5.2837,20.59873 -6.40189,32.56962 -0.27146,4.39199 -3.10881,5.2524 -2.1623,0.0116 z m 19.80874,-5.36966 c -3.36265,-6.391 1.97421,-6.41776 0,0 z m -62.13618,-0.94098 c 1.77014,-5.14 2.59699,3.07571 0,0 z m -15.44749,-10.30902 c -2.02407,-10.27231 4.15381,1.05214 0,0 z m -11.54054,-5.86547 c 0.12957,-11.5741 -25.86249,5.67212 -13.81295,-4.93349 6.68135,-3.68609 9.7237,-12.57669 2.53918,-16.48057 7.17812,-1.60731 9.24553,11.61667 0.9521,14.10223 0.79434,4.52999 20.76108,-9.31523 12.86595,2.2301 17.6954,1.34194 -2.92285,6.77095 -2.54428,5.08173 z m 126.48803,-1.88453 c 3.59381,-3.83271 1.15991,2.98277 0,0 z m -39.64021,-3 c -2.50463,-10.8768 1.37118,-23.33365 4.81828,-26.520133 -7.96006,-2.588008 -5.80003,-12.892681 -14.01356,-13.975858 7.17062,-4.256566 8.22648,10.817663 12.32395,5.197741 1.97588,5.500457 5.45148,9.328009 8.06135,9.895574 -0.70293,8.925446 3.21283,17.077276 -5.88304,19.707166 3.06102,4.20078 9.65452,2.05608 1.20816,5.88302 -1.53332,0.61423 -8.2656,3.99866 -6.51514,-0.18751 z m 52.41104,0.39583 c 3.03005,-1.43141 2.4255,2.11394 0,0 z m -121.16564,-1.76908 c -1.54528,-5.78656 -5.18797,-7.09996 2.35558,-3.60914 2.36178,1.8923 0.71223,7.56518 -2.35558,3.60914 z m 79.89481,-4.56773 c 1.71049,-3.6059 2.64099,2.10441 0,0 z m 43,-4.02764 c 9.12437,-5.3682 -16.2532,-1.87125 -2.2651,-6.46065 6.84856,-1.53236 10.89546,5.46846 2.2651,6.46065 z m -140.58047,-1.90117 c 9.31898,-7.74604 9.64849,3.46905 0,0 z m 147.08047,-4.13021 c 2.56674,-3.76674 2.08296,-8.454231 3.09437,-0.29767 -0.35601,1.26589 -2.62321,2.06464 -3.09437,0.29767 z m -66.04112,-3.06653 c 0.23262,-4.78167 6.02508,4.47054 0,0 z m -7.18652,-12.933467 c 0.58991,-9.179395 0.55951,9.208197 0,0 z m 72.88553,1 c 0.95835,-6.195975 0.51591,5.60658 0,0 z m -35.17154,-2.867838 c -6.43095,-12.193968 23.65658,-6.550399 6.39942,-1.768165 -2.03425,0.877705 -4.16789,1.635323 -6.39942,1.768165 z m 40.54064,-4.088488 c -5.48865,-0.942241 -12.9601,-6.258833 -7.27342,-11.895707 -1.48946,7.388511 -0.0609,7.433266 3.13471,0.797187 -0.54128,2.996826 3.78965,13.741587 7.15025,8.186335 -0.98536,-9.202088 0.45819,-19.020693 -9.98771,-16.839509 11.31895,-9.858231 11.24781,12.020895 11.34917,19.011683 -0.25343,2.145602 -3.288,2.12306 -4.373,0.740011 z M -301.85297,69.51697 c 1.65413,-3.171464 3.59129,2.410245 0,0 z"
       id="path3682"
       inkscape:connector-curvature="0" />
    <path
       style="fill:#476f8f"
       d="m -515.10297,273.90665 c -7.47821,-4.72596 5.05819,-16.6844 2.40529,-4.32679 11.54047,3.34995 4.84747,14.68745 -2.40529,4.32679 z m 49.25,1.61032 c 2.08588,-6.81728 2.33666,4.56554 0,0 z m -11,-4.05902 c 7.92262,-8.1272 -3.71906,5.90581 -1.27772,1.35898 0.42591,-0.45299 0.85181,-0.90599 1.27772,-1.35898 z m -42.79487,-11.75283 c 3.51101,-15.09261 -6.77925,-31.92003 2.14609,-45.90558 -2.39023,-8.89265 15.05013,-12.1794 8.29691,-21.14709 -4.58134,-2.2336 -15.83048,-4.26823 -4.38953,-4.24989 10.18679,1.94865 22.34373,-2.26904 19.98192,-13.96152 -0.0959,3.75954 4.94993,16.12605 5.87339,6.33208 -3.64311,-11.52572 8.64986,10.07453 -1.29568,12.33606 -3.34714,1.60797 -17.8172,6.87095 -14.92275,7.98054 9.70343,-2.33319 -7.81115,3.50272 -2.77236,9.17113 -5.86836,1.84957 -3.7389,9.78742 -8.93685,14.61378 1.05735,10.78671 8.25394,29.50341 -3.40849,35.30239 l -0.5642,-0.46491 -0.008,-0.007 c 0,0 4e-5,0 4e-5,0 z m 17.98237,-66.43028 c -6.40945,-1.91727 1.29644,2.32682 0,0 z m 12.39429,-2.31689 c 8.64051,-4.30966 -24.01681,-0.61113 -5.84958,0.33891 1.95558,-0.012 3.90153,-0.19686 5.84958,-0.33891 z m -15.33179,-0.66228 c -3.79539,-1.02773 -3.01489,1.71911 0,0 z m 78.5336,41.49504 c 0.58939,-5.01971 6.47273,3.1091 1.15398,-0.67983 0.0836,0.39389 -0.92913,3.54707 -1.15398,0.67983 z m -12.08236,-13.46486 c 1.11623,-4.07334 8.59882,-2.30687 1.1682,0.51462 l -1.1682,-0.51462 z m -71.70124,-5.3679 c 2.48265,-4.02721 2.06906,3.72128 0,0 z m 9.51008,-6.98369 c 1.31153,-3.53644 4.19381,2.53771 0,0 z m 1.48992,-20.99515 c -2.82055,-9.85342 -6.87743,3.7435 -10.54593,-4.58764 8.87118,-2.28572 -13.63296,-8.23714 -11.34396,-16.53452 -2.39543,-5.69401 4.64221,-15.49321 2.68995,-4.97901 3.31261,5.52195 5.98435,8.49576 11.13326,7.83302 0.13048,7.46505 9.18853,8.60029 8.64902,15.03143 1.40422,1.3076 4.69925,5.97584 -0.58234,3.23672 z m -9,-11.58018 c -2.72378,-1.82414 -1.40439,3.30807 0,0 z m 31.27083,-0.0452 c 3.03003,-1.43141 2.42551,2.11393 0,0 z m -13.53986,-1.05177 c 5.90013,-1.92177 2.23177,1.89251 0,0 z m 79.51903,-41.05325 c 7.75967,-2.73139 -0.65462,-14.16865 9.6365,-17.55231 7.96179,-2.03303 4.88131,-12.44192 10.39036,-11.9715 5.02982,13.20252 3.23831,-24.132794 -0.24681,-7.017274 -3.45455,11.257704 -4.67282,-8.912499 -7.66898,-7.47329 0.45695,-6.423734 -0.13451,-25.155134 1.97996,-23.310529 0.21345,4.673279 1.98285,18.832529 2.46063,6.293361 -2.29646,-9.734516 -1.65493,-23.11762 -0.01,-30.8608 -0.17473,7.433347 6.21413,12.033576 6.03735,1.924309 -0.78939,-6.388209 3.48099,-15.321778 3.5562,-3.667451 -0.40366,10.871423 -1.796,31.29139 1.49898,36.596423 1.08775,-13.817805 0.0737,-27.797193 1.8184,-41.525295 4.04009,-4.087342 6.02451,12.678899 5.56745,18.264118 -1.41129,6.515207 2.95594,17.022736 4.71508,4.670127 0.85456,-7.313382 -1.44549,-19.840384 3.98172,-21.999517 3.69905,-6.928177 18.15426,-2.428744 26.16219,-4.686907 6.27504,-1.1068 26.14004,1.295184 10.1975,2.879197 -9.54776,2.791426 -17.64475,7.190855 -24.42998,13.952343 -7.01,10.817118 -8.96479,21.900303 -11.09327,34.601554 -6.49569,9.356547 2.45274,29.808331 -13.98765,30.600541 -7.81852,-1.15612 -7.67624,10.37656 -15.58004,10.01186 8.1867,14.70371 -7.20636,7.486 -14.9857,10.27104 z m 28.75,-37.790757 c -1.03458,-13.372702 -3.22977,10.596177 -0.032,2.602495 l 0.032,-2.602495 z m -7.90682,-25.25 c -1.90501,-9.841557 -0.52008,12.103397 0,0 z m -0.0932,-12.333333 c -1.12228,-14.699859 -4.71396,12.541798 -0.10885,3.102612 l 0.0576,-1.558628 0.0512,-1.543984 z m 27,-0.975684 c -2.18138,-2.031813 -1.58263,3.18506 0,0 z m 0.48992,-3.957295 c -4.15962,-2.561704 -1.43177,3.462888 0,0 z m 0.0604,-11.56737 c -1.08407,-8.424498 -1.67741,10.642297 0,0 z m -4.55032,0.02466 c -2.72377,-1.824146 -1.4044,3.308067 0,0 z m 11,-1.440983 c -2.35444,-4.327283 -1.6427,3.996917 0,0 z m -6.63837,-4.5 c -2.43855,-6.161385 -0.14297,5.25534 0,0 z m 16.62923,96.988992 c -0.59642,-5.41427 5.26435,4.00094 0,0 z m -174.99086,-5.48899 c 2.48265,-4.02721 2.06906,3.72128 0,0 z m 0,-7 c 3.05213,-3.91085 2.4114,3.09856 0,0 z m 0.53422,-2.94463 c -0.19604,-19.381896 -1.32452,-38.766585 -0.10334,-58.161998 -2.90888,-8.675776 4.4974,-22.699988 8.73399,-13.168284 5.05617,5.971731 -6.84513,2.374595 -0.95338,8.614764 9.58342,-1.665859 8.24717,-16.645046 12.48776,-19.641156 -6.22943,-1.022235 11.94655,-2.594207 16.22551,-3.017864 15.56819,-0.685855 31.31811,-1.096117 46.80695,0.925596 -3.38624,2.078255 -7.09514,5.261355 -0.20436,5.437375 -4.24232,8.895498 -13.57142,6.193651 -18.74102,1.762358 -6.19282,4.514038 10.25483,13.590374 2.66964,14.831667 0.93534,-10.014773 -11.01889,-9.445611 -10.59064,-4.120923 -4.2599,-1.1032 -4.2624,12.827475 -5.53498,1.473596 -10.76435,-5.414598 -17.69248,1.100364 -21.94119,10.803033 -3.23579,0.353498 4.68035,14.145152 -3.94976,18.05871 -7.2672,9.702334 -5.35883,-18.191348 -8.53023,-1.952198 -8.32983,5.885081 -11.7095,16.73636 -11.29778,27.523104 0.61466,3.34114 -0.52223,12.03782 -5.07717,10.63222 z m 4.46578,-11.61438 c -2.72376,-1.82416 -1.40441,3.30806 0,0 z m 15,-55.440992 c -2.35444,-4.327283 -1.6427,3.996917 0,0 z m 35.48992,-2.016312 c -4.15963,-2.561705 -1.43178,3.462887 0,0 z m -8.98992,-0.983688 c -2.27569,-3.305238 -4.18798,3.715582 0,0 z m -3.3125,-2.683114 c -6.40889,-1.917161 1.29635,2.326988 0,0 z m -13.6875,-8.316886 c -3.04295,-3.432594 -0.36879,3.543485 0,0 z m 23.28943,-0.399141 c -5.31143,-4.227787 2.052,4.665362 0,0 z m 24.21057,1.00613 c -2.93328,-3.184164 -4.47185,2.259076 0,0 z m -5,-2.075604 c -3.98027,-4.528911 -2.20494,5.374856 0,0 z m -5.7869,68.687217 c -5.47274,-6.488552 2.62436,-23.39497 4.06277,-7.720277 6.48325,3.955421 -2.43064,17.677257 -4.06277,7.720277 z m 39.94479,1.7814 c 0.95835,-6.195974 0.51591,5.60659 0,0 z m -4.42456,-5.12409 c 6.05991,-3.780772 -2.35216,3.41998 0,0 z m 7.26667,-3.375912 c -2.79074,-10.962219 -0.42272,-22.250848 -1.95128,-32.758507 -3.46012,-6.723448 6.95249,-23.922704 -2.32123,-22.787253 -3.36275,-7.363922 19.55262,-15.905841 18.1692,-1.662069 3.12149,4.646372 -4.63392,-2.974967 -2.10409,4.865238 4.22741,6.172856 -1.23919,8.019731 2.13409,11.48044 -5.51249,4.53101 0.70277,21.368156 -4.18891,20.699267 -1.83438,-8.782483 2.59059,-28.130737 -2.27682,-29.607891 -3.24836,-1.988565 3.74335,-14.937628 -5.66138,-10.799791 -2.36443,9.199364 4.19981,18.400264 1.49415,27.566426 -3.8164,-3.664664 3.53196,10.153402 0.0984,12.603746 7.16895,-0.0834 1.56947,17.932893 -0.44337,9.599739 -0.70419,1.508774 0.88606,14.770937 -2.94879,10.800655 z m 4.2,-16.7 c -4.39118,0.144597 2.92286,5.300186 0,0 z m 0.8,14.2 c 2.48265,-4.027207 2.06905,3.721287 0,0 z m -50.84211,-5 c 0.95835,-6.195975 0.51591,5.60658 0,0 z m 2,-3 c 0.95835,-6.195975 0.51591,5.60658 0,0 z m 34.4102,-1.252236 c -2.15798,-9.858242 4.40338,-5.834502 0,0 z m -37.56809,-2.688747 c 1.50912,-9.928605 0.91657,8.145151 0,0 z m 25.73121,-0.978858 c -0.10982,-5.77568 2.0092,4.868929 0,0 z m -23.37925,-3.896142 c -3.9867,-4.352474 -3.19496,-8.578049 0.35692,-1.301152 -3.1168,-13.248792 6.21764,3.793399 -0.35692,1.301152 z m 35.57707,-5.268267 c -1.00938,-3.782265 -1.14574,-21.077952 2.66984,-12.869909 -0.81511,1.777433 -1.9858,25.883133 -2.66984,12.869909 z m -63.92903,-3.356733 c 2.08429,-13.132316 2.00653,10.996854 0,0 z m 26.07895,-2.22723 c -3.51057,-5.620914 2.33026,-2.768822 0,0 z m 50.42105,-0.331787 c 0.34822,-4.052268 3.22721,3.965707 0,0 z m -22.81497,-2.096452 c 1.64672,-13.603772 3.14165,6.359771 0,0 z m -19.16153,0.286621 c 3.5896,-3.6096 -0.38015,-18.757328 3.83415,-6.931772 0.86099,15.109844 1.87193,-16.494859 6.07705,-9.635064 -3.43998,4.989299 -2.0916,20.082378 -0.38219,6.632684 6.93124,11.01727 -2.37927,8.788226 -9.52901,9.934152 z m -13.5235,-4.190169 c 2.48265,-4.027207 2.06905,3.721287 0,0 z m 2.62354,-1.538659 c -2.51485,-7.473875 3.16216,4.110315 0,0 z m 24.37646,-1.461341 c 2.48265,-4.027207 2.06905,3.721287 0,0 z m 7.58345,-0.643128 c 0.49809,-7.35078 5.90361,6.688608 0,0 z m -53.58345,-0.356872 c 1.59443,-2.992481 1.75579,3.350144 0,0 z m 60.44234,-3.808113 c 3.14688,-6.719288 5.61261,7.149564 0,0 z m 3.80483,-2.167714 c 2.86186,-4.597202 -7.67016,-5.889051 0.74514,-6.007526 2.47403,0.755225 3.33017,9.016013 -0.74514,6.007526 z m -12.24717,-1.202449 c -7.04719,-8.190002 0.46345,-23.349158 8.31537,-15.555798 -5.65885,-3.631486 1.88681,8.152853 -5.30503,10.456876 -2.91806,3.50729 3.71402,10.315759 -3.01034,5.098922 l 0,0 z m 4,-12.821724 c -2.48265,-4.027207 -2.06905,3.721287 0,0 z m -22,13 c 2.48265,-4.027207 2.06905,3.721287 0,0 z m -59,-2.940983 c 1.7105,-3.605899 2.64099,2.104415 0,0 z"
       id="path3680"
       inkscape:connector-curvature="0" />
    <path
       style="fill:#565563"
       d="m -484.85297,278.1985 c 4.70522,-8.40607 5.19788,3.14822 0,0 z m 19.0436,0.0547 c 4.46033,-4.91337 2.51107,-16.92319 3.98884,-4.11554 0.59686,1.6975 -2.14771,6.45014 -3.98884,4.11554 z m 21.7064,0.0425 c 3.79539,-1.02773 3.01489,1.71911 0,0 z m 4.52083,0.0581 c 3.03003,-1.43141 2.42551,2.11393 0,0 z m 20,0 c 3.03003,-1.43141 2.42551,2.11393 0,0 z m -96.06026,-1.79089 c 5.22145,-3.43555 -0.1895,4.55232 0,0 z m 66.78943,0.0556 c 3.83388,-4.01222 7.38534,-11.14776 4.34147,-1.34855 -0.54098,0.94011 -3.94357,4.42143 -4.34147,1.34855 z m 33,0.3985 c 1.92229,-6.13293 1.40254,3.62417 0,0 z m -94.02732,-5.91851 c -1.47076,-3.55537 -5.22156,-10.6153 -8.70786,-4.14051 -1.45918,-6.41223 8.16069,-13.73007 6.55405,-19.01487 -2.80183,8.18626 3.03778,21.67559 3.92821,25.02309 l -1.7744,-1.86771 z m 35.02732,-2.64051 c 5.67332,-5.2498 -2.9682,4.44737 0,0 z m 30.07895,-3.19098 c -5.51432,-12.04585 3.48852,-24.32433 6.82546,-35.68551 7.64742,-6.659 1.88102,19.13729 0.10542,6.2079 -3.76192,4.47761 -6.91605,12.62627 -2.02139,12.81023 4.77075,-3.33767 5.85046,-8.24747 2.5253,1.20873 -1.10927,8.11429 -4.56321,14.56454 -7.43479,15.45865 z m 3.90574,-13.61804 c -4.28168,-2.81999 0.20488,8.80894 0,0 z m -20.8268,10.30902 c 0.95835,-6.19597 0.5159,5.60659 0,0 z m 136.53742,-2.94285 c 1.7073,-5.37789 2.98317,0.72941 0.34093,1.26244 l -0.34093,-1.26244 z m -195.02864,-4.72382 c -2.99368,-6.23466 1.97851,-12.78383 1.94263,-2.79161 0.34608,0.98349 -0.0776,5.13178 -1.94263,2.79161 z m 56.8125,-1.77083 c 2.58873,-4.19169 3.62133,3.77216 0,0 z m 38.52083,-0.003 c 1.65412,-3.17147 3.59129,2.41024 0,0 z m 98.84216,-2.16102 c 7.53271,-3.61173 -3.66015,4.87977 0,0 z m -7.84216,-4.80509 c 6.12435,-10.80964 16.43059,-13.3756 21.11513,-25.55781 2.81458,-7.80667 20.24763,-15.80851 14.15034,-1.31837 -1.77088,3.23554 -5.24661,9.19494 -0.87014,8.57376 -0.71467,5.12655 -13.15575,23.64034 -7.82516,9.44405 -5.95943,11.48771 -17.71176,3.74803 -25.76117,10.65997 l -0.809,-1.8016 0,0 z m 19.48992,-3.60922 c -4.15962,-2.5617 -1.43178,3.46288 0,0 z m 10.42448,-11.48369 c -3.40467,2.16928 0.21252,5.2318 0,0 z m -8.73551,-2 c -3.45654,-3.66378 -3.63442,5.03914 0,0 z m 8.82111,-4.84621 c -5.4467,-6.03229 -2.28659,5.21234 0,0 z m -90.42311,20.00642 c -5.21605,-4.43185 1.40294,-4.77975 0.63235,1.17509 l -0.63235,-1.17509 z m -126.37411,-33.65592 c 3.03315,-5.76473 -2.168,-13.65984 4.73586,-12.73874 8.92922,-5.94538 8.34979,2.06936 3.93554,7.70579 -9.42255,-1.58843 -1.82232,14.22773 -8.52684,9.47068 -0.14489,-1.47578 -0.0691,-2.95903 -0.14456,-4.43773 z m 226.00328,2.744 c -6.59434,-6.11128 -3.6321,-14.45664 2.18862,-21.2272 6.01798,1.25551 11.71387,12.71467 5.83107,10.78294 3.29389,8.66984 -2.41372,10.34051 -8.01969,10.44426 z m -192.20606,-19.74829 c 4.19217,-2.83607 5.09826,-0.22316 -0.20222,0.83133 l 0.20222,-0.83133 z m 9.25,0.31067 c 5.43302,-1.24663 3.38127,1.64453 0,0 z m 34.25,-0.31067 c 0.64311,-3.68297 2.30888,3.50207 0,0 z m -61,-8.13501 c -9.90711,3.54976 -19.58233,-15.89737 -15.07161,-15.52048 5.9272,3.76996 15.2114,10.71525 10.43152,11.9525 4.55512,7.33596 7.36745,-3.1702 7.37736,-0.31753 4.90486,5.36171 2.66904,5.64838 -2.73727,3.88551 z m -5.5,-10.80597 c 1.71049,-3.6059 2.64099,2.10441 0,0 z m 36,-1.61804 c 2.95125,-3.55736 0.97634,4.73042 0,0 z m 67.66667,-22.10765 c -0.7339,-5.35429 7.6115,2.94543 0,0 z m 72.4504,-7.23981 c -2.55302,-8.76613 7.44758,1.4769 0,0 z m -18.11707,-2.5345 c 1.86385,-3.85656 2.79812,1.88874 0,0 z m 14,-0.5 c 1.92229,-6.13293 1.40254,3.62417 0,0 z m -9.5,-1.78293 c -15.85438,-3.86097 6.92659,-26.91718 7.2905,-7.33625 3.90644,6.60202 -0.87826,10.03853 -7.2905,7.33625 z m 3.25,-7.85772 c -5.14756,-4.05992 -6.84647,4.58225 0,0 z m -75.88922,0.65832 c 0.19156,-4.42685 12.10446,5.84319 1.28444,0.6628 l -0.64968,-0.33525 -0.63476,-0.32755 z m 40.15025,0.78176 c 5.27749,-5.67504 10.85227,-8.22578 2.60319,-0.59909 l -1.22524,0.59539 -1.37795,0.004 z m 43.06792,-1.54106 c 10.85219,-5.23646 -0.0202,5.53256 0,0 z m -19.07895,0.24163 c 1.86385,-3.85656 2.79812,1.88874 0,0 z m -71.72917,-4.16319 c 3.03005,-1.43141 2.4255,2.11394 0,0 z m 9.7276,-1.72759 c -4.02276,-5.09019 -6.93352,-11.69011 0.0498,-3.80842 0.35536,0.3429 3.69834,6.92711 -0.0498,3.80842 z m 83.00157,-0.66824 c 4.97604,-4.56401 7.24257,4.4634 0,0 z m -47.4283,-10.75 c 2.28539,-7.41969 3.35973,4.16234 0,0 z m 5.13061,-1.5834 c 0.58803,-5.76341 3.40905,1.9196 0,0 z m 88.96436,0.66673 c -2.97454,-7.92893 6.1013,-7.68109 0,0 z m -81.28596,-13.048422 c -2.38281,-6.257068 4.92573,-22.678286 1.98309,-7.262771 0.47291,5.398733 -1.69476,25.185003 -1.99993,9.509933 l 0.0169,-2.247162 -3e-5,0 z m 81.3505,0.634936 c 2.32209,-5.257141 -0.54299,6.320936 0,0 z m 5.95294,-10.669841 c -1.3176,-6.014776 3.80342,-3.306703 0,0 z m -82.6052,-15.666667 c 0.73608,-5.246457 0.91673,3.880401 0,0 z M -512.5156,52.521159 c -5.95116,-4.942583 5.84673,-5.149199 1.08878,-8.154858 4.43074,-3.263887 -10.53246,-5.948828 -1.14246,-10.160952 17.16067,-6.839208 4.94205,23.960771 0.0537,18.31581 z m 6.66263,-9.122223 c -2.72377,-1.824146 -1.4044,3.308067 0,0 z m -2,-5.940983 c -1.77992,-9.508872 -2.6005,8.854646 -0.12121,1.019944 l 0.0863,-0.725965 0.0349,-0.293979 z m 5.5,10.5 c 0.64311,-3.682967 2.30888,3.50207 0,0 z m 170.77083,-14.604167 c 3.02997,-1.431429 2.42562,2.113827 0,0 z m -181.27083,-2.360649 c 6.08283,-3.960708 21.42461,-2.771568 22.10271,0.100751 -7.31665,-2.028846 -14.87715,2.188383 -22.10271,-0.100751 z m -6.75,-1.72451 c 5.433,-1.246617 3.38129,1.644499 0,0 z m 83.5,-0.972955 c 3.79551,-1.027687 3.01478,1.719071 0,0 z m 13,0 c 3.79551,-1.027687 3.01478,1.719071 0,0 z m 25,-0.04345 c 4.46019,-0.903503 8.1058,1.296777 0,0 z m 24.98097,0.0498 c 5.90008,-1.921748 2.23184,1.892567 0,0 z"
       id="path3678"
       inkscape:connector-curvature="0" />
    <path
       style="fill:#642f56"
       d="m -457.6863,277.47053 c 6.23851,-5.89298 6.1194,1.44893 0,0 z m 7.88143,-0.0126 c -2.99811,-8.16466 5.19361,-22.51752 5.72461,-9.98345 -0.82843,-8.39951 5.83786,-7.15887 1.28793,-0.47321 -2.65312,7.75876 -6.2902,-6.04869 -4.52422,3.83204 2.26518,2.5992 0.65061,5.73256 -2.48832,6.62462 z m 39.92503,-1.03237 c -2.59874,-7.92385 -2.6288,-16.12209 4.96099,-20.07849 -4.9471,-6.18139 -22.11566,2.1624 -17.89262,-6.60914 6.67783,0.21447 26.39383,5.06259 24.42158,-2.57862 -7.29362,-4.73918 -25.02312,0.44096 -25.97708,-9.20149 8.00147,2.0188 29.25029,6.49911 19.77539,-8.49245 1.85973,-9.48444 -21.11207,-11.77268 -9.93807,-3.73266 5.48508,14.11026 -6.54311,-5.23566 -11.15667,-7.48621 8.55142,-4.1321 30.69601,5.8367 24.8242,18.48433 4.62654,1.87079 10.90674,5.17698 2.28261,3.36291 -4.78477,5.39626 12.53118,1.57157 6.7919,11.78371 -0.79717,5.11548 -3.38966,-10.91331 -4.86988,0.45319 -4.73051,6.92698 4.71036,23.33764 -7.2944,21.87052 -0.80165,-2.6021 4.5291,-12.17862 -4.18282,-8.47068 -7.69614,4.37878 10.0765,15.8355 -1.74513,10.69508 z m 11.77687,0.87009 c 3.79539,-1.02773 3.01489,1.71911 0,0 z m 89.62769,-0.0516 c 2.12274,-4.02178 0.75758,-20.16375 7.49829,-9.91091 -6.33116,8.40862 7.40984,12.48362 -7.49829,9.91091 z m -126.87769,-4.50878 c 6.23684,-1.5663 19.85372,-2.84646 6.68112,-0.39551 -0.64386,-0.36659 -10.50016,3.15463 -6.68112,0.39551 z m -26.268,-5.77734 c 0.53656,-7.3792 0.62256,7.25528 0,0 z m 131.768,2.05902 c 1.92229,-6.13293 1.40254,3.62417 0,0 z m -98.39301,-3.64081 c 0.61618,-8.58506 6.78545,6.71758 0,0 z m 4.75464,-1.91821 c -9.0394,-6.25519 8.34297,-5.0365 0,0 z m 99.20266,-2.79313 c 3.8069,-5.31811 -1.14265,4.38518 0,0 z m -123.53366,-6.70687 c -0.39126,-5.79241 4.58436,-3.0522 0,0 z m 134.64798,-4.87902 c 2.55903,-4.98259 12.06164,-12.14949 3.72147,-4.34107 -0.82253,0.44756 -3.27932,8.06016 -3.72147,4.34107 z m -31.67861,0.0747 c 3.45258,-5.22493 6.71683,-0.31519 0,0 z m 7.5,-4.73015 c 16.59739,-13.25567 28.94528,-30.94334 40.75696,-48.29051 -2.29166,11.83344 -14.12478,20.52761 -21.05177,30.45244 -4.31552,6.98001 -13.7806,14.98675 -19.70519,17.83807 z m -100.01361,-2.50842 c 0.77857,-9.99723 4.82849,0.19672 0.48027,1.03569 l -0.30754,-0.66324 -0.17271,-0.37245 -2e-5,0 z m 135.16618,-8.50942 c -0.97005,-11.19689 9.04593,-27.99443 19.70171,-18.22523 4.62977,-4.83958 -1.5223,8.85986 -4.57879,0.11079 -11.19372,-5.34844 -11.12313,14.99435 -15.69643,21.41108 -2.35384,1.90048 0.5769,-2.65465 0.57351,-3.29664 z m -129.08828,2.84542 c -0.65856,-4.00652 2.81109,4.45511 0,0 z m 138.3592,0.45687 c -7.00341,-6.18798 4.44106,-26.35343 5.00318,-9.24071 -0.0314,3.28796 0.58619,10.88628 -5.00318,9.24071 z m -22.70532,-7.9045 c 3.72058,-4.86488 3.02548,3.97047 0,0 z m -156.65388,-4.13863 c 3.8069,-5.31811 -1.14265,4.38518 0,0 z m 41.67626,-1.6933 c -2.97136,-7.97656 5.87317,6.38643 0,0 z m -40.13184,-1.51357 c 4.87025,-7.42284 7.61408,-24.46123 14.17226,-25.72601 -4.08959,7.98878 -6.96013,18.52977 -14.17226,25.72601 z m 39.89129,-4 c 5.67332,-5.2498 -2.9682,4.44737 0,0 z m 93,-7.94255 c -8.58054,-3.9281 -11.07482,-17.51346 1.82185,-15.46996 8.03572,-0.66457 14.20962,-16.15403 11.66121,-1.89874 5.02662,10.94999 4.07831,-14.19552 4.3001,1.39312 -2.171,9.09529 -11.75192,1.39552 -8.77777,12.09579 0.36259,6.83998 -4.1535,10.63889 -9.00539,3.87979 z m 0.92971,-8.74843 c 4.21089,-4.27998 -13.30509,-6.37352 -3.71974,1.01129 l 1.62099,-0.11037 2.09875,-0.90092 z m 55.14924,9.41954 c -8.60199,-3.08251 1.35374,-12.35236 -0.47464,-3.24268 -0.41895,-0.77185 2.90061,4.00187 0.47464,3.24268 z m -110.47323,-4.81364 c -4.98872,-4.26844 2.07664,-15.62635 2.57633,-8.43603 -2.21993,1.0796 1.21211,13.02673 -2.57633,8.43603 z m -52.15439,-8.87544 c -4.11151,-8.79141 11.16348,-2.73305 3.58694,2.40149 -0.39021,2.69326 -3.54515,-1.4467 -3.58694,-2.40149 z m 2.54867,-3.7298 c -3.72469,-2.51536 -2.77023,5.36358 0,0 z m 59.37467,5.11025 c 6.22732,-8.807 -0.538,6.75816 -0.94962,0.93426 l 0.52114,-0.51271 0.42848,-0.42155 z m 5.62533,-0.82149 c 1.30729,-4.53956 4.61234,-0.21808 0,0 z m -93.25,-3.82184 c 6.32379,-0.73108 10.40073,1.16962 0,0 z m -12.47917,-0.88077 c 3.03003,-1.43141 2.42551,2.11393 0,0 z m 107.74448,-1.14583 c 1.1214,-8.69791 3.95516,0.3674 0,0 z m 71.48469,-5.25 c 0.64311,-3.68297 2.30888,3.50207 0,0 z m -22.5,-7.5 c -5.69917,-4.18252 12.53298,4.22797 0.29105,0.10418 l -0.29105,-0.10422 c 0,0 0,4e-5 0,4e-5 z m 4.59515,-5.39486 c -5.80519,-2.54262 -12.09957,-1.0204 -5.62996,-8.96547 3.71991,0.73947 5.20877,8.49928 8.79786,7.91027 1.25033,3.53517 -1.92184,3.62431 -3.1679,1.0552 z m -4.99098,-6.83431 c -2.24515,1.92298 1.88859,3.49285 0,0 z m -117.1839,2.4169 c 9.35202,-6.33807 -5.80146,-26.51152 5.54562,-24.07232 7.82895,9.70089 -4.4986,17.25189 -5.59862,26.84247 l 0.053,-2.77015 0,0 z m 7.57973,-1.0697 c 1.30987,-6.4884 2.95197,2.61618 0,0 z m -11.36666,-6.40229 c -0.15054,-11.01084 9.83123,-3.84637 0,0 z m 2.36666,-2.71574 c 5.50122,-6.59891 -7.01456,6.36809 0,0 z m 71.37848,1.25 c -3.03219,-3.91078 3.11487,-18.14622 0.70393,-6.83685 6.73777,0.0758 3.1293,-18.75436 10.6635,-23.4829 0.0535,-6.14691 7.62267,-11.62673 7.39154,-1.43456 -2.58703,13.6344 24.83195,13.32328 13.4358,0.3731 2.54724,-8.86993 -16.68409,-7.19181 -3.88959,-12.65467 0.33089,-7.99451 11.3403,-5.83783 16.10074,-10.14626 5.64356,8.55856 11.61445,20.65178 23.86401,12.11835 7.9297,0.89887 14.92991,3.98894 14.27164,-7.00822 -0.32036,-7.57078 4.68886,-9.55903 3.25948,-0.64356 -1.39228,11.29548 -5.49667,24.57028 -12.77524,32.2508 -4.43174,-6.2324 -21.87949,-4.89712 -23.38202,3.85033 7.65471,9.167 -13.76789,-1.86883 -18.06884,4.63801 -8.22441,5.37336 -16.26696,0.6826 -16.49769,-8.46297 -11.01346,-9.15784 -6.60893,26.51865 -15.07726,17.4394 z m 21.16141,-18.44709 c -3.77949,-6.24867 1.95542,10.12338 0,0 z m 23.46011,0.93764 c -4.98645,-11.7548 -8.66553,8.49957 0,0 z m 3.54377,-1.16973 c -4.84001,-2.04739 1.21346,5.53238 0,0 z m -24.54377,-1.12984 c -2.18138,-2.0318 -1.58262,3.18507 0,0 z m 13.38156,-0.49292 c -0.48078,-4.30238 -2.44441,5.80612 0,0 z m 38.74725,-5.62223 c 0.8523,-12.01933 -27.48338,-3.11785 -14.02458,0.65027 4.23015,0.84238 10.71858,3.27741 14.02458,-0.65027 z m -34.21214,-3.45006 c -4.05617,-3.37527 -6.72104,4.16329 0,0 z m 18.58333,-3.37577 c -1.08398,-3.63616 -3.40701,3.94398 0,0 z m -16.5,-3 c -4.97604,-4.56401 -7.24257,4.4634 0,0 z m 29.1875,0.31689 c -6.40942,-1.91726 1.29642,2.32682 0,0 z m -41.1875,-6.87591 c -2.72378,-1.82414 -1.40439,3.30807 0,0 z m -66.3655,41.77664 c 9.26961,-2.67292 3.45714,-17.91662 0.69222,-5.87129 -9.15072,-4.40714 10.56152,-13.32315 2.375,-19.8805 8.94355,-3.49668 15.65824,1.82131 7.62511,8.99044 -2.62281,5.62553 -1.22025,18.28422 -10.69233,16.76135 z m 100.09263,-8.21762 c -14.57142,-7.3226 15.01318,-5.59492 3.20073,1.70903 -1.26264,-0.11862 -2.13932,-1.12733 -3.20073,-1.70903 z m -138.2315,-8.00706 c 4.0858,-6.25947 6.05042,0.18791 0,0 z m 57.95241,-3.68775 c -5.96232,-9.41789 21.51508,-9.94619 7.1822,-0.28043 -1.96409,1.80264 -5.06017,1.85819 -7.1822,0.28043 z m -63.94804,-2.3331 c 0.43343,-5.35691 12.03218,1.3833 0,0 z m 36.56488,-1.39388 c -5.12947,-1.1254 -21.24549,-7.1303 -6.5375,-6.15394 1.14867,1.62689 16.06288,7.29259 6.5375,6.15394 z m -31.06654,-2.79299 c 3.74725,-2.74195 14.59131,-2.90708 16.40499,-0.92784 -5.07246,1.46157 -11.40795,3.39224 -16.40499,0.92784 z m 7.00166,-3.73949 c 6.10831,-3.47606 4.41558,1.57207 0,0 z m 7.25,-1.73502 c 4.75474,0.49589 6.96241,-14.26896 8.98224,-4.6311 16.21508,5.20645 -7.49417,3.34356 -8.98224,4.6311 z m 62.24572,-7.10974 c 13.47733,-20.482044 -5.88587,16.64676 0,0 z m -82.49572,2.29907 c 4.92731,-5.34638 -1.73674,4.8362 0,0 z m 11,-4.5 c 7.47118,-4.13314 -1.92992,3.80857 0,0 z m 143,-4 c -2.41026,-3.78647 5.69516,3.78943 0,0 z m -138.25,-1.66228 c 3.79539,-1.02773 3.01489,1.71911 0,0 z m 8.38327,-3.53315 c -3.64324,-11.982901 7.86051,10.9885 0,0 z m 83.86673,-2.80457 c 2.48265,-4.02721 2.06906,3.72128 0,0 z m -107,-0.81853 c 1.49305,-5.12417 4.80377,0.45114 0,0 z m 84,-1.62245 c 1.44283,-8.504428 1.10198,6.86235 0,0 z m 75.6,-1.15902 c -1.35063,-6.433673 3.37404,3.97547 0,0 z m -23.60836,-0.44164 c -2.06435,-5.839211 6.87071,1.58721 0,0 z m -51.91269,-4.375024 c 0.73608,-5.246456 0.91673,3.880404 0,0 z m 20.14207,-1.583333 c 1.6925,-12.074132 3.11762,8.110337 0,0 z m 29.92566,0.455193 c -10.11462,-2.79287 -11.17513,-8.87683 -0.63448,-10.622339 0.8018,-7.074417 6.44856,0.520461 1.12404,3.339393 -7.29628,3.994105 10.77557,9.426418 -0.48956,7.282946 z m -2.14668,-6.955193 c -1.22386,-5.282694 -4.17404,6.071274 0,0 z m 7.38866,2.929553 c 0.73508,-8.67681 3.67625,4.195576 0,0 z m 10.82951,-1.58405 c 3.72057,-4.864884 3.02549,3.970466 0,0 z m 16.11851,-1.462374 c -8.41482,-2.680417 -23.58713,-6.025695 -15.36552,-16.437468 -0.79825,-9.521523 8.51612,-19.545906 14.76859,-7.59616 2.58624,3.778989 10.27663,30.128426 0.59693,24.033628 z m 0.77401,-4.633129 c -1.75989,-6.06742 0.88065,-26.597879 -9.92852,-19.363964 -3.06737,5.566143 1.12044,9.07484 -3.86849,13.146382 -0.70445,4.24129 12.32749,11.867106 13.79701,6.217582 z m -8.52774,-4.615785 c -1.43473,-5.456844 3.60057,1.766168 0,0 z m -72.97265,5.365785 c 2.36279,-9.715458 0.38641,6.180411 0,0 z m 40.00027,-3.222766 c 3.12931,-9.241429 10.74943,2.514438 0.652,0.472092 l -0.652,-0.472092 z m 1.0561,-8.943901 c -3.12264,-5.24875 3.74889,1.076206 0,0 z"
       id="path3676"
       inkscape:connector-curvature="0" />
    <path
       style="fill:#294c58"
       d="m -510.60297,278.2417 c 7.47417,-0.94308 4.58938,1.28762 -0.63379,0.16175 l 0.63379,-0.16175 z m 32.5,-0.007 c 6.32379,-0.73108 10.40073,1.16962 0,0 z m -41.5,-0.93916 c -3.04399,-6.51835 -0.5845,-24.30178 1.64132,-8.29477 2.42723,3.2504 5.94793,10.39202 -1.64132,8.29477 z m 67.11383,-0.8317 c -6.68689,-5.84077 6.47337,3.62092 0,0 z m 184.13617,0.49411 c 1.25263,-3.87234 8.90419,4.394 -0.009,0.40322 l 0.009,-0.40322 5e-4,0 z m -6,-2 c 3.59381,-3.83271 1.15991,2.98277 0,0 z m -204.5,-2.5 c 6.98809,-6.68018 -4.64449,6.33355 0,0 z m 201.53522,0.55698 c -0.97177,-8.99134 10.79845,-6.02431 1.82989,-0.52591 l -0.91615,0.65602 -0.91374,-0.13011 z m 11.68475,-0.14763 c 5.21364,-7.79795 -12.3053,-15.59819 0.40949,-10.98598 6.37299,0.0984 -3.44192,-3.07226 -4.16259,-5.21655 -8.97202,4.11155 -4.02451,-16.57962 -0.84744,-22.15035 3.89976,-10.29694 16.17367,-6.55394 11.59623,4.19342 -0.93821,8.89939 2.09915,23.2836 -2.41374,28.71588 -0.63216,4.20563 -3.6349,1.90655 0.99869,4.71903 -1.28279,1.39254 -4.01046,1.90143 -5.58064,0.72455 z m 5.78003,-23.90935 c -3.05213,-3.91085 -2.4114,3.09856 0,0 z m -8,-5.5 c -3.56353,-5.73988 -2.0907,4.85851 0,0 z m 4,-9.5 c -2.35444,-4.32728 -1.6427,3.99692 0,0 z m -9,38 c 3.40273,-2.8033 3.80683,3.81405 0,0 z m -57.68244,-7.30023 c 1.85242,-4.70786 -5.33299,-6.3646 -5.67263,-8.35714 -3.28565,1.61992 -4.67489,-3.74785 -8.70719,-2.78176 2.70534,-7.97075 10.36955,-8.20236 15.48755,-6.67128 2.07584,-7.66664 24.73202,-1.44628 11.98544,3.61041 -7.03824,4.21535 -6.71287,15.53648 -13.73398,16.66093 l 0.64081,-2.46116 z m -0.31756,-10.75879 c -2.18138,-2.0318 -1.58262,3.18507 0,0 z m 6.97104,-2.90192 c -0.47911,-5.48004 -10.65383,3.66986 0,0 z m -147.97104,14.46094 c 5.67332,-5.2498 -2.9682,4.44737 0,0 z m 23.65066,-5.96797 c -0.0661,-11.17597 5.32735,-2.69043 0,0 z m -13.41866,-2.53203 c 0.53656,-7.3792 0.62256,7.25528 0,0 z m -59.232,-1 c 0.77002,-7.59985 1.67107,5.98754 0,0 z m 78.01531,-2.19098 c 1.27573,-9.69456 2.79418,2.97116 0,0 z m -0.77133,-6.55902 c 0.3777,-6.19126 7.76979,-11.46166 5.41442,-1.95106 -1.45515,4.51322 -1.52143,1.38756 -3.77084,1.12304 l -1.64358,0.82802 z m 131.4055,-2.72106 c 0.2645,-6.94707 8.48602,-9.28894 2.58964,-1.36913 -0.17493,0.91954 -2.13664,4.26231 -2.58964,1.36913 z m -130.91827,-3.6091 c 2.32209,-5.25715 -0.54299,6.32095 0,0 z m 126.26879,1.63918 c 1.65412,-3.17147 3.59129,2.41024 0,0 z m -122,-7.05902 c 5.67332,-5.2498 -2.9682,4.44737 0,0 z m 117,-1.44098 c 1.92229,-6.13293 1.40254,3.62417 0,0 z m 16.0856,-0.059 c 0.21406,-6.01413 3.39988,-2.11574 0,0 z m 34.42448,-5.98369 c 1.31153,-3.53644 4.19381,2.53771 0,0 z m -164.94579,-1.72318 c -0.65856,-4.00652 2.81109,4.45511 0,0 z m 133.43571,0.76589 c 1.71049,-3.6059 2.64099,2.10441 0,0 z m 43.88152,-1.30902 c -2.10088,-3.79151 -4.16346,-8.02391 1.10286,-3.12779 0.15946,-0.4402 -0.10699,7.32649 -1.10286,3.12779 z m -47.64953,-1.75014 c 0.17522,-6.53328 5.02748,4.77879 0,0 z m 32.4243,-4.20619 c -1.17119,-7.90101 3.78702,6.09909 0,0 z m -156.92508,-5.87383 c 2.32209,-5.25715 -0.54299,6.32095 0,0 z m 135.26879,0.13918 c -10.07791,-5.20378 2.90192,-9.25138 0.96093,0.5737 l -0.96093,-0.5737 z m -9,-2 c 1.71049,-3.6059 2.64099,2.10441 0,0 z m 44,-3.05902 c 0.67287,-7.00129 4.83239,6.44613 0,0 z m -16.33333,-1.66667 c -6.8791,-7.3129 12.57779,-9.66571 4.57588,-2.43819 -6.01595,-3.45253 6.27198,5.99088 -3.15763,2.97454 -0.47237,-0.17904 -0.94597,-0.35724 -1.41825,-0.53635 z m -22.66667,-3.1422 c 1.6763,-7.79188 4.54829,1.81206 0.0137,0.0343 l -0.0137,-0.0343 z m -221,-2.77446 c 3.20423,-4.19554 2.7138,5.21867 0,0 z m 233.63837,0.0833 c 2.00152,-4.13821 2.28255,1.5067 0.17333,1.19521 l -0.17333,-1.19521 z m 4.67605,-0.25 c -4.08524,-8.74145 4.31868,5.12104 0,0 z m -235.81442,-3.25 c -5.77934,-7.02734 6.76163,-10.40541 10.98408,-4.06022 -3.48193,2.0708 -9.2177,1.95622 -10.98408,4.06022 z m 225.19497,-4.3525 c 0.28996,-9.82207 7.40989,2.5722 0,0 z m -210.42414,-0.25167 c 3.03003,-1.43141 2.42551,2.11393 0,0 z m 13.72917,-0.77925 c 5.13755,-3.37317 5.06733,1.44523 0,0 z m 214.75,-3.64774 c 3.19084,-5.86088 -4.88071,-17.36616 -7.49118,-17.54227 -7.04309,9.86932 -16.40186,-9.54424 -12.02917,-12.10816 -2.7725,-3.95108 5.35488,-9.49685 3.28717,-15.71164 5.52565,-7.54746 8.56177,16.3633 9.30471,1.50245 -3.5506,-9.94996 19.43758,-4.3055 6.80321,-10.76741 -12.91757,3.50882 -7.40362,-12.38895 -4.00581,-17.74429 6.17724,2.69769 9.51022,2.84942 3.46152,-2.62964 1.2951,-9.18039 -0.65446,-5.90167 -2.45296,0.64353 2.34726,-14.739518 -3.98003,-30.628506 1.36474,-45.122881 0.98066,-11.396175 -0.085,-21.810329 -7.86438,-27.427074 -6.24343,-9.010324 -24.50318,-10.180529 -29.07455,-12.919817 15.84968,-0.24422 32.16773,-1.77862 47.68449,2.166682 2.28101,-6.5004 13.26783,-0.556539 8.16005,6.737046 1.02138,13.240278 -1.07825,26.500341 -0.82735,39.56455 -2.31581,6.084862 -4.7476,1.641076 0.27153,4.325998 4.22773,7.734133 -2.65699,15.008511 -0.89346,18.208336 2.978,21.21868 0.91758,42.80609 1.50902,64.1821 -1.33902,7.37186 2.69314,22.53453 -2.18472,24.76526 -3.03033,-8.39449 -7.92589,-9.55228 -9.65004,-1.05157 -0.32893,0.73527 -7.81693,3.68877 -5.37282,0.9288 z m -16.14583,-21.69801 c -2.24515,1.92298 1.88859,3.49285 0,0 z m 8.05811,-11.52083 c -1.9237,1.31951 1.74689,4.82883 0,0 z m 7.33772,-13.86658 c -4.83591,-5.40447 -6.40463,8.8419 0,0 z m -2.2619,-19.5739 c -5.94648,-4.21345 2.2597,4.87405 0,0 z m 17.19422,-9.55952 c -3.14865,-5.59079 -2.59364,9.0192 -9.2e-4,0.0816 l 9.2e-4,-0.0816 z m -9.86634,-12.56148 c 6.42631,-7.89861 -5.51649,-11.047134 -3.35434,-1.645872 -0.7419,6.664772 2.78147,18.169192 3.19404,4.181102 l 0.1603,-2.53523 0,0 z m 7.56994,4.17191 c 2.64511,-8.898127 -7.14696,-10.17289 -3.65066,-0.78113 1.52208,3.97407 5.52945,9.60809 3.65066,0.78113 z m -4.06957,-21.127414 c -2.86715,8.025246 2.18482,9.946433 0,0 z m -5.91041,-12.502045 c -2.25752,0.732059 1.96557,5.643687 0,0 z m 5.24483,-10.048289 c -6.52461,-9.14242 1.33465,7.542348 0.0273,0.0325 l -0.0273,-0.0325 z m 5.5946,-4.189795 c 3.88965,-12.234844 -10.77296,3.314793 -0.53228,2.587322 0.17743,-0.862441 0.35485,-1.724881 0.53228,-2.587322 z m -8.49537,-12.492884 c -2.48265,-4.027207 -2.06905,3.721287 0,0 z m 9,-4.883369 c -4.48093,-5.680613 -5.57966,4.004354 0,0 z m -7.8125,-3.799745 c -6.40889,-1.917161 1.29635,2.326988 0,0 z M -519.25529,187.26287 c -2.66338,-5.29784 -0.86494,-20.28367 2.54871,-7.24019 4.18036,5.8356 29.10858,5.29147 12.9508,8.24954 -5.17698,0.31492 -10.40858,-0.0154 -15.49951,-1.00935 z m 230.08453,-1.95604 c 3.40845,-3.68877 -2.68074,-12.7788 4.75982,-4.6492 0.94732,2.65122 -1.89316,6.45861 -4.75982,4.6492 z m -203.52432,-3.34888 c 0.95835,-6.19597 0.5159,5.60659 0,0 z m 0.37582,-3.96275 c -6.62761,-3.47699 7.97739,-6.92204 1.46629,-3.26166 10.34885,1.06454 -2.32296,1.76821 2.34793,4.55945 0.35705,2.17861 -3.88691,-1.12464 -3.81422,-1.29779 z m 11.73712,-4.64142 c 3.03003,-1.43141 2.42551,2.11393 0,0 z m -5,-1 c 3.03003,-1.43141 2.42551,2.11393 0,0 z m 176.4625,-1.51992 c 6.05991,-3.78076 -2.35216,3.41998 0,0 z m -3.46152,-7.49056 c -7.46999,-7.32231 9.66138,5.13167 0,0 z m -3.27181,0.61465 c -7.70398,-2.65741 9.74345,1.50514 0,0 z m 14.78023,-7.04403 c 2.71216,-10.46811 5.7444,6.86026 0.12334,0.70932 l -0.12334,-0.70932 z m -106.78023,-1.02171 c 2.51352,-12.65832 10.53439,2.0032 0,0 z m 77,-13.93426 c 0.75684,-5.23367 2.62303,2.18782 0.61219,1.62534 l -0.61219,-1.62534 z m 32.54271,0.0691 c 0.29194,-5.23148 2.73554,3.02637 0,0 z m 11.04464,-11.8191 c 4.52815,-16.16869 0.30961,12.68542 0,0 z m -100.58735,1.75 c -10.37218,-0.29887 -9.54389,-15.25015 0.97889,-16.18313 2.00851,-7.06534 3.66978,-3.00108 6.89947,-3.18777 3.8528,-2.53245 14.78637,-6.8046 10.85279,3.62331 -5.24909,6.73198 -10.96936,6.94158 -14.17944,14.63162 -1.32073,0.83896 -2.9536,1.53709 -4.55171,1.11597 z m 4.5,0 c 8.0693,-4.46649 -1.70578,3.54787 0,0 z m -24.75,-0.66228 c 3.79539,-1.02773 3.01489,1.71911 0,0 z m 5.5,-1.02705 c 5.43302,-1.24663 3.38127,1.64453 0,0 z m 24.75,-0.81067 c 5.67332,-5.2498 -2.9682,4.44737 0,0 z m -39.92105,-1.91667 c 0.73608,-5.2465 0.91673,3.88044 0,0 z m 133.09576,-13.39235 c -5.8932,-5.06152 7.67034,-14.778968 0.74974,-4.66419 -0.50254,0.80615 0.33268,4.68548 -0.74974,4.66419 z m 1.90424,-0.60765 c 0.73608,-5.2465 0.91673,3.88044 0,0 z m -4.72437,-11.11173 c 0.12604,-7.081799 5.34277,4.70646 0,0 z M -456.37228,89.926705 c -4.38016,-5.973044 1.64734,-19.881083 4.52955,-7.256853 1.15278,6.286205 -1.61933,8.906287 -0.67252,1.215979 -1.16986,0.596648 -2.12151,7.94947 -3.85703,6.040874 z m 1.18159,-7.218752 c -1.9237,1.319512 1.74689,4.828825 0,0 z m 90.41667,-6.166667 c 0.73608,-5.246457 0.91673,3.880401 0,0 z m -92.53625,-3.514235 c -0.0591,-5.104631 2.62674,3.140601 0,0 z m -1.01258,-7.812618 c 1.00364,-4.292189 -7.50729,-21.693761 0.59818,-10.658415 2.07987,2.999983 -0.9387,22.325011 -0.59818,10.658415 z m 95.54883,0.326853 c 0.73608,-5.246457 0.91673,3.880401 0,0 z m 1,-4 c 0.73608,-5.246457 0.91673,3.880401 0,0 z m -74.07895,-0.668925 c -0.20443,-2.88012 7.45456,2.511652 0,-5e-6 l 0,5e-6 z m 75.07895,-4.331075 c 0.73608,-5.246457 0.91673,3.880401 0,0 z M -461.85297,45.957953 c 6.83658,-4.005243 -1.80489,3.188326 0,0 z m 107.71025,-2 c 11.03455,-3.053026 16.73405,-14.57963 27.13386,-12.175905 6.93906,-6.210956 10.74848,1.421737 1.19647,1.493897 -5.93237,1.527287 -10.98447,-2.195672 -10.88944,3.042015 -5.40664,2.749321 -10.81161,10.189347 -17.44089,7.639993 z m -156.71025,0.05902 c 1.7105,-3.605899 2.64099,2.104415 0,0 z m -3.45729,-1.989919 c 0.43932,-4.801923 3.26775,3.423299 0,0 z m -6.54271,-3.533914 c -1.86444,-15.150603 15.24415,-4.713478 21.29423,-4.757148 -6.36242,4.317665 -14.26612,-4.314207 -17.8934,6.009459 -1.25195,2.1415 -4.70299,2.181593 -3.40083,-1.252311 z m 11,-0.535184 c 3.0707,-10.356276 1.31367,9.39343 0,0 z m 17,-4 c 1.59443,-2.992481 1.75579,3.350144 0,0 z m -9.2723,-5.721732 c 5.96266,-0.706582 12.25326,1.062113 0,0 z m 24.5223,-0.02583 c 7.9499,-0.126749 25.56814,-0.342351 27.24046,0.231905 -8.62577,0.375656 -23.36155,-0.08767 -27.24046,-0.231905 z m 49,0.05824 c 5.433,-1.246617 3.38129,1.644499 0,0 z m 12.48097,0.03339 c 5.90008,-1.921748 2.23184,1.892567 0,0 z m 7.01903,-0.0498 c 4.46019,-0.903503 8.1058,1.296777 0,0 z m 23,0 c 4.46019,-0.903503 8.1058,1.296777 0,0 z m 9,0.04345 c 3.79551,-1.027687 3.01478,1.719071 0,0 z m 9.5,-0.02705 c 5.433,-1.246617 3.38129,1.644499 0,0 z m 15.94681,-0.05553 c 5.10493,-0.20024 21.56572,-0.264832 19.12454,0.254982 -6.12363,-0.04909 -14.25527,0.42537 -19.12454,-0.254982 z"
       id="path3674"
       inkscape:connector-curvature="0" />
    <path
       style="fill:#901b20"
       d="m -500.58622,277.25441 c -12.25611,-4.69141 -5.09843,-19.73737 2.24132,-20.50013 1.04685,-12.37467 19.57161,-10.58333 23.14341,-21.03663 2.90047,-14.43536 0.60814,20.73898 -3.61379,25.83856 -7.45588,4.35243 -13.16824,10.31265 -19.25883,16.08076 l -2.51211,-0.38256 0,0 z m 193.73325,-14.74544 c 1.59198,-5.29735 5.86519,-2.06843 0,0 z m -2.45729,-3.48192 c 0.43931,-4.80193 3.26776,3.42329 0,0 z m -200.54271,-9.45107 c 1.30987,-6.4884 2.95197,2.61618 0,0 z m 81,-27.43657 c 1.81161,-5.67522 4.54584,0.95146 0,0 z m 105,-1.60586 c 2.71923,-6.49944 4.22338,3.15008 0,0 z m -16.36163,-2.0756 c 2.43855,-6.16139 0.14297,5.25534 0,0 z m 49.5355,-0.25 c 2.39057,-4.14352 3.05297,0.94986 0,0 z m -46.28902,-1.99153 c -5.11041,-8.96919 2.55332,-6.55621 2.45052,-0.69286 l -1.23156,0.73155 -1.21896,-0.0387 z m 21.61515,-4.25847 c 0.64311,-3.68297 2.30888,3.50207 0,0 z m 1.75,-2.49583 c -5.31962,-6.39098 5.95968,-9.07224 1.18427,-1.88061 -0.38435,0.59197 1.59282,6.01298 -1.18427,1.88061 z m -36.57099,-6.35958 c -2.3814,-7.81165 -6.0427,-23.64955 7.03719,-19.31771 -8.75188,3.90532 -3.86021,2.72998 2.44582,4.52188 3.09519,5.56918 3.27112,5.99489 -4.24838,8.77867 -4.95671,2.71634 3.21242,8.67572 -5.23463,6.01716 l 0,0 z m 0.68262,-12.64459 c 0.0332,-4.57618 -3.21531,4.8857 0,0 z m 41.13837,11.5 c 4.20014,-4.43871 6.13871,4.57116 0,0 z m 0.93261,-4.25 c -5.14412,-8.38341 13.16849,-0.69072 1.28204,2.12761 l -0.66221,-0.49819 -0.61983,-1.62942 z m -20.93261,0.25 c 1.08398,-3.63616 3.40701,3.94398 0,0 z m -6.99501,-5.00808 c -3.42168,-4.53597 13.58667,-17.99173 1.33386,-11.42184 -10.22607,7.99798 2.23602,-15.8619 4.94586,-4.49512 0.53816,3.75768 8.32839,1.38999 3.17757,4.45435 8.00043,-5.1486 11.76343,-7.42816 18.79201,1.31877 7.86013,8.90128 -13.70039,0.24647 -10.43054,7.3666 -8.38626,-12.75779 -8.077,3.89545 -17.81876,2.77724 z m 4.63172,-5.77968 c -5.07233,-0.61545 -0.32685,2.85557 0,0 z m -36.61106,-3.17074 c 0.83018,-5.49386 6.60156,1.19346 0,0 z m -8.52565,-29.98248 c -6.70257,-3.21949 -9.27135,-21.96491 1.29588,-11.76913 1.22235,2.93786 2.97861,10.91271 -1.29588,11.76913 z m -69.76215,-6.43635 c -1.16489,-10.76943 6.70018,4.54037 0.34288,0.5783 l -0.34286,-0.5783 -2e-5,0 z m 8.20284,0.28137 c 0.24572,-6.74871 12.48846,-0.24088 2.6708,-2.17483 1.0416,1.744 -1.51506,4.93392 -2.6708,2.17483 z m 9.29488,0.49819 c 0.24412,-3.11909 5.55621,-6.25391 -1.2364,-4.63357 4.52206,-4.1125 24.04349,-0.64315 12.30459,3.89702 -3.67027,0.43868 -7.35765,1.13189 -11.06819,0.73655 z m 61.26443,-2.34321 c 1.77014,-5.14 2.59699,3.07571 0,0 z m -73.5,-5.00975 c -13.0717,-8.32938 11.2144,-4.59765 16.79801,-7.66134 5.99758,-0.24248 14.16777,6.08368 3.62885,4.11407 -6.88509,0.55278 -13.51659,4.24096 -20.42686,3.54727 z m 61.5,-5.49025 c 1.86385,-3.85656 2.79812,1.88874 0,0 z m -60,-11.55902 c -3.84997,-11.90908 18.96144,-8.27501 9.34929,0.10682 -3.00918,0.90297 -6.36585,0.89473 -9.34929,-0.10682 z m -12.82807,-1.64287 c 8.18742,-4.52907 2.27929,-13.71375 1.83506,-17.03329 6.60478,-6.091002 27.10131,-0.84052 18.33153,6.9167 -8.54442,-7.93269 -16.04843,8.2789 -17.57949,10.08649 -0.59257,0.13473 -2.03875,0.93874 -2.5871,0.0301 z m 87.57498,-0.57429 c 2.42345,-7.01423 6.82202,-13.91031 -0.81288,-19.4115 -4.85598,-6.193407 -0.022,-23.868375 7.23537,-13.765496 -8.66015,11.584676 11.85979,24.308036 -1.62488,34.336846 -1.67789,0.40413 -3.39237,-0.30904 -4.79761,-1.15985 z m 5.99119,-17.47331 c -7.11992,-4.933589 2.78608,5.69616 0,0 z m 36.16293,13.5915 c -2.94883,-3.36407 1.06599,-24.233606 -2.67854,-10.86038 -7.84213,-0.0309 -11.39452,-8.904611 -17.44823,1.19209 -4.42175,-6.36119 -1.94042,-29.634103 11.00311,-33.184003 6.98217,0.958261 7.53453,-4.047954 4.15143,-3.132723 -3.92484,-4.696317 4.4891,-4.776578 4.25745,-10.698047 5.4087,-7.601059 28.41136,-7.345459 24.01114,4.996914 -3.86239,5.263715 -0.54713,16.544279 -11.78562,13.130673 -9.47137,-5.465334 -28.35847,5.658823 -14.25723,13.827029 9.23132,6.815384 22.81227,9.478247 27.33884,-3.091183 5.85687,4.400888 3.9616,17.05861 4.80725,22.44282 -6.02152,3.38207 -4.90204,-10.96502 -13.20021,-4.55329 -4.97165,6.37801 6.48514,-0.0633 0.29895,4.7943 13.78002,1.69585 -16.1017,10.74622 -16.49834,5.1358 z m 13.94604,-8.46473 c 2.5907,-7.88406 -5.10646,7.58772 0,0 z m -5.40543,-9.394656 c -7.62729,-1.934424 0.74699,5.844366 0,0 z m -17.44164,-6.041641 c -3.36399,-3.692148 -4.9192,4.162348 0,0 z m 5.48992,-17.016312 c -4.15962,-2.561704 -1.43177,3.462888 0,0 z m 31.51008,40.028209 c 2.29813,-8.5953 5.18142,0.781 0,0 z m -62.85462,-15.80422 c -5.80036,-10.038557 14.65447,-3.048863 4.53837,-2.046243 -0.94178,3.917723 -1.62029,8.793383 -4.53837,2.046243 z m 6.4941,-5.90153 c -4.52818,-8.522472 5.67191,-2.224896 0.0725,0.03476 l -0.0725,-0.03476 z m -4.94145,-4.94145 c -1.80214,-5.01531 -7.38739,-10.962734 0.21073,-4.306191 5.10934,-1.651925 3.46704,3.817599 -0.21073,4.306191 z m 60.30197,-1.30568 c 1.7105,-3.605899 2.64099,2.104415 0,0 z"
       id="path3672"
       inkscape:connector-curvature="0" />
    <path
       style="fill:#601a1a"
       d="m -498.94731,278.25616 c 6.44842,-9.19974 20.74443,-12.41544 22.61744,-23.77985 1.64959,-14.5238 2.49717,-29.59409 11.79094,-41.60962 2.74276,-5.51371 11.24739,-25.42594 9.60464,-9.4194 0.0185,11.10524 0.0468,18.32051 -5.40129,27.51664 -1.57109,5.14794 5.02149,23.21658 -2.75994,18.59569 0.14158,-3.66871 -7.91823,11.24571 -11.28851,14.90165 -7.06692,6.47234 -13.38069,17.18506 -24.56328,13.79489 z m 83.36517,0.0976 c 3.03003,-1.43141 2.42551,2.11393 0,0 z m 11.29524,-0.50273 c -8.57729,-0.28069 -5.08427,-18.8335 2.38683,-11.33987 -9.66485,7.18363 6.28019,12.90948 4.07469,1.10954 -2.23817,-6.60985 3.06595,-28.92514 5.96874,-11.0567 0.16426,8.96558 9.24648,25.96206 -7.35875,21.06701 -1.32904,-0.68159 -4.3398,1.41771 -5.07151,0.22002 z m 80.93393,0.42972 c -9.20896,-3.41106 4.72104,-14.81362 0.61264,-18.39673 10.34322,-11.32792 23.30534,-22.57867 25.40822,-38.69898 2.05681,-9.2077 12.66348,-6.86994 15.24999,-3.16754 3.48439,-4.42747 -3.72506,-20.09769 4.58302,-9.4109 8.32857,19.76988 3.90553,42.05212 -2.23862,61.73805 -7.61958,14.07366 -25.46006,6.93378 -38.06936,8.3604 l -2.77592,-0.16591 -2.76997,-0.25839 0,0 z m 23.35183,-1.02923 c -6.09413,-2.56123 1.51209,-14.75661 -5.09986,-15.47911 -2.84611,6.69484 -6.94755,20.51188 5.09986,15.47911 z m -7.488,-18.78783 c -4.17757,-4.0243 -0.0409,4.94222 0,0 z m 18.43617,-22.70574 c 3.40258,-7.15264 -0.1316,-28.64751 -5.18051,-11.67339 -0.80915,3.44549 -1.48283,15.27714 5.18051,11.67339 z M -461.233,277.15207 c -1.57886,-5.23258 2.32475,-13.52695 0.83365,-3.45795 5.19888,1.01428 2.04404,-10.75766 7.40498,-2.23776 -0.63613,3.045 -4.89996,7.85561 -8.23863,5.69571 z m 36.96298,-3.05991 c -1.43472,-5.45683 3.60055,1.76618 0,0 z m -26.58295,-1.44565 c 0.16401,-4.27826 -12.64006,-12.6389 -6.32173,-11.7691 1.69077,3.65979 4.7287,-3.20723 0.37646,-4.04412 -1.83469,-7.18376 7.41976,-25.04909 11.97264,-19.56376 0.42839,4.56169 -10.82435,20.46224 -4.95781,16.79571 6.14828,-12.37981 0.69801,9.69336 0.40937,14.21361 l -0.57547,2.2937 -0.90346,2.07396 0,0 z m 117.5,0.31144 c 3.33172,-3.74668 1.99231,3.39588 0,0 z m -114.23897,-1.95364 c -2.44769,-8.60447 4.62156,-3.00638 1.78176,1.26099 l -1.78176,-1.26099 z m 118.73897,-2.48734 c 1.86385,-3.85656 2.79812,1.88874 0,0 z m -41.8,-17.75902 c -5.9547,-8.09297 5.19655,-2.7234 0,0 z m -49.2,-0.8 c 4.37159,-3.14228 6.59654,4.07615 0.36088,0.25917 l -0.36088,-0.25917 z m 66,-1 c -9.61421,2.10362 -4.84672,-14.22799 -12.42865,-3.48931 -7.64475,0.34389 -8.00089,-15.00707 -1.19776,-5.59593 8.5425,-7.77649 -1.74778,-23.29125 9.6111,-27.91476 2.5436,-6.58379 -9.18377,1.79843 -5.53422,-7.42698 -6.83702,-3.71445 -2.40763,-8.0029 -9.32757,-7.02082 -6.44659,-5.08155 -9.12378,16.96559 -18.81562,10.32723 2.86874,-4.89925 2.42515,-18.3784 -2.80503,-11.04379 -1.14888,-13.20075 -12.58412,-26.82035 -10.45183,-38.53535 9.35218,-3.06832 3.68916,-27.10743 16.18469,-21.59127 8.36342,5.39365 10.85934,20.90913 18.5021,24.39562 3.79251,-5.13444 5.25215,-29.14812 13.23137,-15.4829 3.33607,17.33367 18.98748,-2.22054 30.00634,4.00094 10.14516,1.87341 1.98205,-2.22338 3.98374,-7.34968 4.93489,-7.20094 30.39927,-2.53016 18.49338,4.7353 -7.92597,-3.51638 -10.62733,1.65752 -1.99693,5.75982 2.66992,6.88284 -23.01624,1.99287 -13.62377,14.09672 7.3523,9.17908 22.06677,15.44888 24.46902,26.79643 -9.51593,17.37094 -22.95074,32.24102 -36.46787,46.53907 -6.27342,4.08784 -13.60144,12.76624 -21.83249,8.79966 z m 33,-29.5756 c -4.13034,-3.24912 -2.41353,6.12613 0,0 z m -18,-0.9244 c -1.58563,-4.7269 -1.35142,4.90661 0,0 z m 7.49724,-6.50447 c 5.55668,-3.585 -0.83716,-17.63782 9.95902,-14.45829 3.13841,-7.29579 5.94878,-13.03871 14.20918,-10.74999 11.06368,-1.64115 -11.7816,-9.99989 -13.26212,-16.3339 -7.03015,-14.29694 -14.32362,9.05082 -18.2009,13.07976 4.56169,-2.1288 15.05512,-7.25161 6.05559,0.96201 -1.085,6.29087 -8.11677,12.75725 -8.9911,3.4212 -6.12641,-2.31975 -9.64655,0.15534 -1.84971,-3.78394 -15.66578,-5.74886 -10.52033,20.45476 0.75161,21.68796 6.23165,0.75314 5.05404,18.23012 11.32843,6.17519 z m -19.49724,-21.49553 c 4.92731,-5.34638 -1.73674,4.8362 0,0 z m 17.76845,-2.66845 c 6.32069,-4.29663 0.39193,3.14837 0,0 z m 6.23155,-6.83155 c 4.97604,-4.56401 7.24257,4.4634 0,0 z m 13,31 c -2.35444,-4.32728 -1.6427,3.99692 0,0 z m 1.5,-3 c 4.54494,-10.91447 -7.93477,-2.90343 0.46587,1.77827 l -0.46587,-1.77827 z m 8.5,-7 c -5.15277,-4.27188 -5.09106,3.79993 0,0 z m -77.5651,-2.97525 c 7.38449,-7.86313 -6.30341,-0.0296 -0.795,0.27761 l 0.6902,-0.24102 0.1048,-0.0366 z m 77.5651,-1.02475 c 5.66496,-9.00937 -12.74434,-0.17634 -1.49651,1.40708 0.49884,-0.46903 0.99767,-0.93805 1.49651,-1.40708 z m -69,-6.91821 c 3.71897,-5.78777 -3.0798,-2.2634 -1.48878,0.67021 l 1.48878,-0.67021 z m 8.56729,-8.84783 c -5.43669,-1.58808 -2.10655,6.27678 0,0 z m -49.06729,57.68039 c 5.45836,-1.4495 -1.70859,-7.45641 4.20125,-0.41316 0.65791,2.81301 -3.44972,1.20115 -4.20125,0.41316 z m 12.51531,-3.16435 c 2.05394,-4.55363 1.34284,6.34426 0,0 z m 20.59455,0.6757 c 1.71088,-12.32618 5.92824,5.61888 0,0 z m -76.06716,-0.3566 c 0.29198,-5.23148 2.73555,3.02638 0,0 z m 26.0414,-0.71054 c 3.10494,-2.63481 4.30998,5.4917 0,0 z m 32.77172,0.83707 c -6.39627,-7.20169 3.75955,-1.04798 0,0 z m -43.95131,-2.04112 c -10.04828,-2.32948 -0.67992,-25.32213 3.42621,-9.68492 -4.40744,3.47728 -1.05709,4.57019 -3.42621,9.68492 z m 17.79474,-9.14095 c -14.73322,-9.07529 15.2292,-1.39639 0,0 z m 44.27691,-8.05213 c -0.60166,-7.54108 7.21785,1.93573 0,0 z m -64.97616,-5.96143 c 5.51889,-4.23958 5.14037,2.90613 0,0 z m -0.5,-4.5 c -3.044,-6.08873 4.69435,3.7617 0,0 z m 4,-3.33974 c -4.81216,-4.01747 -7.55695,-14.91282 -1.34261,-4.58271 5.60047,-12.2581 8.56869,3.46529 1.34261,4.58271 z m 146.21057,-15.76112 c -1.20675,-5.09939 3.74079,4.02861 0,0 z m -174.5722,-15.89914 c 2.43855,-6.16139 0.14297,5.25534 0,0 z m 26.42931,-2.12788 c 1.59873,-8.2405 13.38672,-25.00428 7.51394,-25.88625 -5.09448,-0.0655 -13.59946,-2.99064 -3.46503,-2.89906 11.55803,-1.81731 23.81518,-6.2101 34.54583,-6.82379 3.58825,13.88113 -13.70635,17.26656 -24.12152,17.46096 -9.33625,0.824 -5.98351,9.40591 -4.30317,14.12428 -3.60013,-0.74015 -8.15798,3.17578 -10.17005,4.02386 z m 18.99806,-22.4073 c 7.05037,4.03221 16.37397,-6.81624 4.38198,-5.70953 -2.16409,-0.45509 -13.38444,0.44782 -5.85691,2.44536 -5.40815,0.0577 -2.41837,7.38818 1.47493,3.26417 z m -47.08474,20.51229 c -1.3374,-4.84547 4.59075,4.89348 0,0 z m 154.769,-8.13939 c 3.79539,-1.02773 3.01489,1.71911 0,0 z m -129.75,-1.83772 c 5.67332,-5.2498 -2.9682,4.44737 0,0 z m 135.55772,-23.19271 c -10.06418,-1.47805 -2.53817,-7.90104 3.79954,-4.12197 9.54894,-6.32756 11.29282,7.25783 0.27719,4.38478 l -2.04195,-0.0822 -2.03478,-0.18061 0,-2e-5 z m -117.55772,-3.30729 c 2.48265,-4.02721 2.06906,3.72128 0,0 z m -16,-0.28554 c 8.26216,-5.04059 7.36225,0.95844 0,0 z m 14,-7.71446 c 2.48265,-4.02721 2.06906,3.72128 0,0 z m 140.45749,-4.92708 c 4.38585,-12.79061 -1.60918,10.03984 0,0 z m -159.45749,1.11417 c 1.51904,-6.03259 18.63473,-9.0553 5.17862,-3.82031 4.00157,1.64523 18.36926,-11.33933 17.24602,-0.38586 -8.41211,-1.0497 -15.60315,2.34731 -22.42464,4.20617 z m 154,-0.60902 c -3.57708,-4.99096 -22.96037,1.94607 -8.17053,-3.3019 6.22661,-3.24246 16.05142,-6.16651 8.17053,3.3019 z m -70.86202,-8.40383 c -1.25108,-6.87012 0.80616,-7.63564 1.35894,-0.30416 0.39883,1.03153 -4.68867,5.55364 -1.35894,0.30416 z m 59.86202,1.86094 c 6.87334,-8.18905 12.13177,3.8577 0,0 z m -4.02981,-2.97948 c 8.36079,-14.694165 -1.72379,7.75782 0,0 z m -29.61643,-0.5762 c 1.9096,-14.350044 11.26273,-0.68067 0.34485,0.90133 l -0.34485,-0.90133 z m 15.54089,1.5205 c -3.3299,-5.62491 3.07511,-13.669015 1.93109,-3.42407 -0.81358,0.92683 -0.31093,3.12376 -1.93109,3.42407 z m -104.89465,-5.5 c -5.52414,-5.984149 -28.56765,1.77164 -11.19306,-4.87759 3.29201,-3.235605 19.18199,9.28435 11.19306,4.87759 z m 124.07895,1.08334 c 0.73608,-5.24644 0.91673,3.88039 0,0 z m -54.10671,-4.33334 c -5.75826,-8.963667 4.99862,-10.90883 1.42876,-1.98715 1.71165,1.93871 1.90373,5.7058 -1.42876,1.98715 z m 66.71812,-2 c 2.67544,-8.057066 -12.3278,-15.604876 -9.45867,-3.463119 -6.92337,11.153389 -29.69281,-14.046834 -12.20811,-4.105335 5.72674,-0.463135 0.57024,-6.513099 5.67234,-2.869893 -2.22171,-5.505033 -12.30498,-0.923652 -6.41264,-5.094714 -9.91367,-3.310776 -6.94142,-6.851225 1.86332,-6.293217 7.78075,1.897011 20.67853,7.595644 21.8387,13.073913 -1.43228,1.512063 -1.17224,9.949395 -1.29494,8.752365 z m 7.58055,-1.303679 c 5.3851,-12.554067 2.72891,8.452549 0,0 z m -3.52091,-3.662572 c -9.14327,-6.434629 8.79005,-1.364429 2.00026,0.124937 l -2.00026,-0.124937 z m -46.25,-1.283746 c 4.84569,-4.290348 3.79684,4.205353 0,0 z m -15.51096,-4.25 c 1.00837,-5.657703 -21.2869,-8.531636 -8.06477,-8.861675 7.65925,-2.002909 13.9174,17.083864 13.4258,1.702643 -0.94421,-9.777495 2.99785,4.136959 6.06095,-6.114303 2.78555,-12.121854 7.3733,-31.18124 24.33328,-27.957457 4.09058,2.331132 8.68629,4.293078 12.38816,2.542057 5.15098,6.666898 21.04794,7.655076 20.1773,21.113979 0.67698,15.020355 -2.04243,-10.801023 -9.3199,-11.097701 -12.9884,-8.19231 -32.18035,-4.684446 -37.35507,7.128421 1.52258,4.453899 4.25136,9.679299 -4.21125,6.441249 -8.49632,0.827646 -7.38961,25.020663 -17.4345,15.102787 z m 66.47624,2.245302 c -12.50997,-7.665764 8.52752,1.350892 0,0 z M -327.85297,77.51697 c 1.65413,-3.171464 3.59129,2.410245 0,0 z m 35.27083,-22.163184 c 3.02997,-1.431429 2.42562,2.113827 0,0 z m -39.27083,-7.336816 c 1.7105,-3.605899 2.64099,2.104415 0,0 z m 3.27083,-4.663184 c 3.02997,-1.431429 2.42562,2.113827 0,0 z m -4.27083,-0.836816 c 1.65413,-3.171464 3.59129,2.410245 0,0 z"
       id="path3670"
       inkscape:connector-curvature="0" />
    <path
       style="fill:#18284e"
       d="m -519.10297,278.25222 c 4.46019,-0.90351 8.1058,1.29679 0,0 z m 65.52083,0.10156 c 3.03003,-1.43141 2.42551,2.11393 0,0 z m 178.88682,-0.46116 c -11.99519,-2.45801 2.2289,-22.90894 -0.17827,-23.76355 -0.17745,8.75002 6.84601,-0.94414 9.08532,5.77031 10.66245,5.58294 -12.8516,-3.20896 -0.72284,4.3999 -0.2909,2.09664 0.96748,14.14197 6.1441,7.04251 -6.11735,1.0502 1.96377,-6.53499 -0.51824,-4.74009 8.82167,3.80094 -1.47735,18.01637 -7.36172,8.9252 -1.49673,1.84986 -4.04262,3.34527 -6.44835,2.36572 z m 2.34235,-2.93467 c -1.08398,-3.63616 -3.40701,3.94398 0,0 z m 1.11799,-7.75 c -7.08229,-4.66582 -6.60288,13.19083 -0.87359,1.98374 0.2912,-0.66125 0.58239,-1.32249 0.87359,-1.98374 z m 1.38201,4.75 c -6.11151,-3.55297 -0.20344,3.43832 0,0 z m -75.30615,5.36052 c 10.89173,-7.73999 -11.49824,-13.4233 -4.71051,-25.0496 3.82293,-3.12642 6.25687,-2.18235 5.51286,1.46567 7.8789,2.87803 8.15258,0.89761 12.45259,6.97459 5.43652,2.41259 -2.65345,22.83406 -13.25494,16.60934 z m 3.55615,-1.0228 c -3.79539,-1.02773 -3.01489,1.71911 0,0 z m -110.54767,-0.67105 c 1.67597,-4.47564 2.0825,4.35659 0,0 z m 15.29767,-0.10765 c 1.65911,-5.64689 2.38967,4.01682 0,0 z m -46,-1.02384 c 4.50379,-5.77852 4.75356,0.56134 0,0 z m 7,-6.03518 c 5.67332,-5.2498 -2.9682,4.44737 0,0 z m 149,-3 c 5.67332,-5.2498 -2.9682,4.44737 0,0 z m 68.07895,-1.91667 c 0.73609,-5.24647 0.91672,3.88042 0,0 z m -0.73851,-5.13854 c -0.41259,-10.39829 3.73939,3.28514 0.0117,0.0225 l -0.0117,-0.0225 z m -188.77615,-1.73792 c 3.8069,-5.31811 -1.14265,4.38518 0,0 z m 115.43571,-2.14785 c 1.86385,-3.85656 2.79812,1.88874 0,0 z m 15.5,-4.55902 c 3.33172,-3.74668 1.99231,3.39588 0,0 z m 55,-1 c 1.90473,-3.58296 3.24621,3.51019 0,0 z m -52.5,-1.79422 c 2.36674,-7.10657 5.00842,0.75422 0,0 z m -122.92105,-3.62245 c 0.73598,-5.24603 0.91695,3.88025 0,0 z m 167.55942,-0.0833 c 2.02489,-5.36209 2.97849,4.92803 0,0 z m 10.86163,-4.5 c 0.64311,-3.68297 2.30888,3.50207 0,0 z m -179.9573,-0.9309 c 0.29198,-5.23148 2.73555,3.02638 0,0 z m 18.84402,-0.63449 c -9.28907,-5.21176 9.37175,-14.71172 4.03829,-1.92693 -3.37596,0.80263 1.10592,5.85973 -4.14568,2.66407 l 0.10739,-0.73714 z m 147.79894,-8.84209 c 2.4727,-9.49191 -8.54387,-21.22993 0.93204,-22.46607 -9.87083,-1.16005 10.24076,-4.10583 -2.25615,-6.60602 -2.53803,3.50904 -8.05244,8.7869 -6.76684,0.9136 6.27931,-4.45384 17.29063,-0.67243 23.29309,0.56499 -7.25094,6.80171 4.73556,15.00509 -4.77585,20.68871 10.67173,7.4774 -9.92426,6.90326 -9.77379,15.91146 -1.3195,-2.50042 -0.53846,-6.1044 -0.6525,-9.00667 z m 5.81434,0.34846 c -2.18138,-2.0318 -1.58262,3.18507 0,0 z m -2,-1.5 c -3.58943,-2.36761 -1.81345,3.0131 0,0 z m 2.36163,-18.94098 c -2.73049,-6.07594 -4.00884,5.5998 0,0 z m -167.50462,26.70098 c 0.32405,-9.06705 2.88525,1.12232 -0.24127,0.20742 l 0.24127,-0.20742 z m 168.64299,-1.20098 c 0.64311,-3.68297 2.30888,3.50207 0,0 z m -162.24327,-4 c 4.19426,-6.08577 2.89137,2.1972 0,0 z m 24.74327,-4 c -3.62324,-7.33006 5.55015,7.47987 0,0 z m -35.125,-1.66667 c -7.34972,-10.28657 13.60114,-16.5709 3.68828,-27.5334 -4.43315,-4.33877 -4.96745,-9.60378 -11.29651,-13.25534 -1.03541,-9.78374 31.93202,-7.58439 14.58742,0.19046 -9.66447,2.70436 2.65042,10.86552 4.23943,3.26495 4.51817,5.77355 0.13205,16.53538 7.98068,18.76714 2.90913,14.08641 -14.42781,6.71057 -14.60385,18.55069 -1.45439,0.81161 -3.10899,0.36004 -4.59545,0.0155 z m 5.125,-8.16848 c -6.72814,-6.93645 -6.69673,8.98589 0,0 z m 2.78776,-3.30156 c -2.83955,0.22223 0.65816,5.18906 0,0 z m 24.08468,8.38671 c -2.62566,-4.40361 6.05775,6.50669 0,0 z m 14.76593,-10.75 c -0.0332,-4.57618 3.21531,4.8857 0,0 z m -2.55942,-8.91667 c 0.73609,-5.24647 0.91672,3.88042 0,0 z m 15.95649,-0.33333 c 0.87421,-7.85442 7.25904,-3.57122 0,0 z m -21.95649,-1.66667 c 0.73608,-5.24648 0.91673,3.88043 0,0 z m 110.57516,-5.98848 c -7.31839,-10.04728 -20.27999,-13.94926 -27.94304,-23.76544 -7.99121,-6.45794 -2.00535,-10.83082 5.21431,-8.93369 11.40768,-6.32374 14.09262,-20.8246 19.38643,-31.82534 2.22654,-9.50333 12.56071,-20.70054 10.05069,-25.06858 -8.7208,6.52471 5.11018,-10.825224 2.09147,-15.927322 0.26314,-8.66151 -2.15687,-18.879453 1.79823,-22.586087 -2.49432,-10.290209 -4.93326,-23.313898 -16.26319,-27.315468 -5.61907,-1.894011 -13.32173,-7.320662 -2.84316,-4.503317 7.04363,3.63421 18.7637,9.776056 17.54792,16.021331 9.0988,10.968269 -1.03983,25.773997 1.01488,39.321866 2.04011,6.352568 0.3126,22.152727 1.7061,23.440537 3.69942,-12.19194 -0.27832,7.19297 6.4039,5.46433 -5.93305,1.57092 -12.84951,-4.27615 -11.11412,6.72179 -4.57088,9.76864 4.4792,10.59478 10.61512,10.90425 1.75974,9.77333 -8.75371,-4.44988 -10.05791,7.20959 -1.10287,7.78501 -1.99535,10.43524 -4.52712,1.60849 -9.07068,-6.65422 -2.41105,9.02592 -9.42897,12.00355 -2.84417,4.9051 6.19084,1.81818 -0.19258,5.38134 -0.49353,9.78031 9.74674,16.12792 15.22429,9.48637 3.54216,5.27542 6.62903,15.81483 6.69747,18.55618 7.50262,1.09063 5.00799,-14.26695 11.11008,-5.33383 2.32401,5.05344 8.40976,12.86901 -1.93117,10.05504 -8.2209,-1.85117 -16.29733,-0.39862 -24.55963,-0.91559 z m 3.77446,-9.16628 c 4.8919,-6.1163 -9.72388,-9.76033 -1.45251,-2.31816 -3.80377,2.47762 -1.99486,5.77696 1.45251,2.31816 z m -21.90211,-14.23544 c -3.32678,-0.13059 -2.46359,3.90936 0,0 z m -2.14793,-7.2146 c -6.06198,-1.30912 -8.54147,1.34697 -1.97214,1.913 1.58725,1.51968 3.16799,-0.49634 1.97214,-1.913 z m 11.59086,-6.22853 c 2.5333,-9.04135 -8.44359,5.11832 -0.8397,1.12396 l 0.43755,-0.58568 0.40215,-0.53828 z m 12.03061,-25.05 c 4.33978,-10.46255 -5.88199,0.9223 -0.30703,1.62437 0.10228,-0.54141 0.20481,-1.08302 0.30703,-1.62437 z m 3.60417,-19.42917 c -2.24515,1.92297 1.88859,3.49286 0,0 z m -238.60417,80.76055 c 3.69723,-5.32407 2.59239,6.33378 0,0 z m 62,0.96862 c -5.33154,-3.65403 8.56448,2.90385 0,0 z m -23.25,-1.71625 c -4.83685,-4.03244 -3.95975,-19.58145 -6.53276,-18.46527 10.06361,-4.62028 6.06746,15.82648 18.38156,8.03163 8.03492,-5.87924 19.35062,-2.80823 18.81422,7.52328 -9.29835,3.55059 -22.67977,-5.23464 -29.36274,1.90347 2.68106,0.0375 7.69552,2.57299 -1.30028,1.00689 z m 11.91667,-5.78375 c -3.11188,-5.60046 -3.03845,5.37906 0,0 z m -50.66667,-0.0314 c 1.79542,-4.80384 3.44578,3.97201 0,0 z m 116.07895,-0.88529 c 0.73608,-5.24648 0.91673,3.88043 0,0 z m -87.07895,-3.01001 c 3.774,-9.4443 4.19978,7.65296 0,0 z m 92.62354,-0.11198 c -2.51484,-7.47387 3.16216,4.11031 0,0 z m -74.62354,-6.38332 c -8.31785,-2.61254 11.0705,-4.51953 0.53854,0.32679 l -0.53854,-0.32679 0,0 z m 12.25,-0.80649 c 5.70047,-0.52749 10.78981,0.69098 1.89253,0.29877 l -1.89253,-0.29877 z m 25.37829,-6.06394 c 3.59087,-4.16903 3.55188,3.2609 0,0 z m 144.45066,-0.62426 c 0.73608,-5.24648 0.91673,3.88043 0,0 z m -120.6328,-1.67046 c 0.71226,-9.06293 6.30858,4.9095 0,0 z m 128.71174,-9.91287 c 0.95835,-6.19597 0.5159,5.60659 0,0 z m -126.15789,0.059 c 1.77014,-5.14 2.59699,3.07571 0,0 z m 129,-13.75671 c 3.1977,-7.59749 9.95627,2.53513 0,0 z m -46.32354,-0.70307 c -0.27625,-6.37884 3.93555,2.6682 0,0 z m -83.67646,-9.69614 c 5.01832,-1.43032 23.5148,-3.54897 19.19758,0.0319 -6.37788,0.0575 -12.87664,0.97439 -19.19758,-0.0319 z m 25,-1.04773 c 5.92718,-1.54036 8.74623,-16.13801 14.38302,-8.73387 -3.43649,3.95757 -8.58767,9.76951 -14.38302,8.73387 z m 74.20267,-1.71647 c 1.21279,-7.45746 12.48053,2.13305 0,0 z m -116.70267,-2.1389 c 7.23496,-3.74301 13.6003,2.61479 2.26445,0.92063 l -1.38689,-0.16571 -0.87756,-0.75492 z m 148.52896,-4.96094 c -2.31431,-5.16837 5.8144,3.72945 0,0 z m 16.47104,-8.03906 c -0.26116,-11.22814 7.45963,3.67128 0,0 z m -9.37524,-4.58333 c -1.61505,-4.76278 -3.33945,-23.862831 3.34135,-15.346929 -0.56322,5.212619 -1.94717,10.306199 -3.34135,15.346929 z m -94.96687,-1.41667 c 0.95835,-6.19597 0.5159,5.60659 0,0 z m -57.07894,-0.41666 c 0.73598,-5.24599 0.91695,3.88022 0,0 z m 159.92105,-1.47635 c -7.21152,-4.1317 2.74899,-17.524961 1.38901,-4.73705 0.50494,1.0928 1.10918,10.56012 -1.38901,4.73705 z m -152,-0.60699 c 5.67332,-5.2498 -2.9682,4.44737 0,0 z m 156.90839,-4.69098 c -3.71938,-7.30212 4.32747,-9.741723 0,0 z m -189.1098,-6.638703 c 0.99292,-9.942743 -9.75528,-16.457528 -5.20123,-23.518751 -2.57693,-4.485833 -4.07507,2.167363 -2.21852,-5.254892 1.07966,-6.88846 -11.02939,-26.302812 2.19341,-17.508304 3.15714,7.424002 0.55638,18.399946 6.85358,18.665753 -7.94146,6.205372 1.49288,16.801518 0.87085,26.491162 0.21029,4.350177 0.28375,9.393955 -2.49809,1.125032 z m 31.20141,3.829686 c -2.4102,-3.786568 5.6951,3.789377 0,0 z m 128.66667,0.333333 c -1.90593,-4.835908 3.86378,-0.158934 0,0 z M -428.85297,92.51697 c 1.86385,-3.856555 2.79812,1.888748 0,0 z m 114.25,-1.918929 c -7.0057,-5.838173 9.13883,3.223161 0,0 z m 46.53082,-3.087577 c -0.27762,-12.174769 2.0364,9.328536 0.0666,0.365463 l -0.0666,-0.365463 z m 5.21918,-6.579208 c 2.69413,-3.741677 7.69379,-0.544412 0,0 z m -173,-0.91228 c -5.90177,-5.270398 -3.78328,-16.739121 -0.81613,-4.16449 -0.18901,0.736208 2.55847,3.981462 0.81613,4.16449 z m 162.19495,-7.561023 c 0.34864,-6.612033 0.9779,5.420163 0,0 z m 12.93005,-0.375 c 2.22866,-3.733485 1.71925,2.610704 0,0 z m -180.52005,-5.712101 c -15.33254,-6.207611 14.87063,-6.980988 8.10584,-1.231557 -5.19955,-4.473776 -9.28382,-2.096953 -6.91556,2.217351 l -0.75188,-0.04723 -0.4384,-0.938566 z m 171.08898,-5.353881 c -3.05648,-9.73778 6.59648,6.393393 0.20153,0.254661 l -0.20153,-0.254661 0,0 z m 3.98201,-4.668554 c -0.45818,-12.599556 9.95362,3.484831 0.90097,2.625755 -0.30032,-0.875252 -0.60065,-1.750503 -0.90097,-2.625755 z m -91.64531,-1.890464 c 1.44023,-6.745063 2.9462,-0.285543 0,0 z m 6.55347,-9.858556 c 3.54329,-6.03171 0.85765,3.436243 0,0 z m 78.4159,-0.641444 c 2.48265,-4.027207 2.06905,3.721287 0,0 z m -73.92522,-0.953782 c 1.36981,-4.297131 5.39262,2.342308 0,0 z m 4.92522,-2.423773 c 4.09459,-8.268523 16.62776,-6.713576 20.19972,-7.976558 -7.06241,1.86026 -13.20469,6.202256 -20.19972,7.976558 z m 76,-2.028825 c 4.44343,-4.053218 4.56216,5.200146 0,0 z m -5.72917,-3.197787 c 3.02997,-1.431429 2.42562,2.113827 0,0 z m -47.51558,-4.895833 c -1.19723,-5.093409 11.27087,-1.458796 2.94718,-0.9126 5.78811,-0.321842 12.50177,4.325272 2.86204,1.634945 -2.17481,0.570397 -5.54462,3.640761 -5.80922,-0.722345 z m 49.88312,0 c 2.66268,-3.689422 4.96106,5.378052 0,0 z m -249.38837,-2.216254 c 7.47417,-0.943074 4.58938,1.287616 -0.63379,0.161754 l 0.63379,-0.161754 z m 212.5,0.01052 c 4.46019,-0.903503 8.1058,1.296777 0,0 z m 15.04375,-0.03766 c 5.79099,-0.649846 20.94632,0.480124 6.82906,0.338931 -0.52864,-0.153895 -10.19819,0.316394 -6.82906,-0.338931 z m 27.44459,0.05631 c 4.81863,-1.248874 4.46779,1.530559 0,0 z"
       id="path3668"
       inkscape:connector-curvature="0" />
    <path
       style="fill:#140b15"
       d="m -434.41611,275.34385 c 11.75538,-6.19348 23.47797,10.43503 36.64069,4.60187 13.96532,-5.20805 5.61727,-23.21273 5.24543,-33.93925 -4.80057,-12.23204 -9.88502,-28.87332 -25.92915,-28.49426 -9.12017,-1.63469 6.74107,-11.94693 -4.03437,-15.29435 -2.37236,-1.44218 -0.67406,-22.35318 -9.08159,-11.53107 -11.59735,-5.98561 18.08377,-11.50752 0.41958,-14.23815 -8.74566,-1.7954 -21.43792,8.45679 -7.492,12.02608 -6.84242,2.712 -11.70186,8.18081 -3.78043,14.15503 5.46174,4.11338 9.26185,-12.60512 8.96566,-0.0413 6.29117,2.34676 -9.68325,18.59542 -6.90217,19.59058 -4.99657,-10.07478 -8.19118,11.89827 -1.42401,14.03841 -3.33388,5.76236 -3.95637,17.92593 -10.96039,18.74357 3.45083,-3.66997 12.63244,-22.9264 2.98028,-18.21645 -6.49623,6.68231 -6.59236,20.62837 -6.84168,24.89488 -2.40263,-8.59524 -4.23374,8.26919 1.31935,2.69372 3.4134,5.51864 5.69034,13.39982 -0.2883,4.23235 -2.42964,-0.81623 -3.38354,11.20538 -4.86514,2.0123 0.21176,-12.44916 1.2327,-24.84493 -0.1039,-37.19558 5.2866,-11.31317 6.5461,-20.75533 5.44269,-33.1529 -0.19089,-14.7253 -19.39823,-2.29203 -26.22976,-10.59781 8.01893,-4.75064 25.96831,5.86852 29.51254,-3.5718 -4.32721,-18.48023 -29.23229,8.75035 -30.71764,-11.7476 11.52239,1.21287 23.61879,1.99222 34.93136,0.76181 4.29374,-5.11976 10.94395,-6.55984 14.89791,-7.77987 -2.91315,-6.6081 -4.50968,-16.38975 6.19789,-15.06864 8.08065,-3.66857 19.12063,-3.38797 18.67154,8.00972 8.02764,14.35298 11.24803,30.53917 15.4059,46.22548 7.56268,10.99085 13.6052,-11.94166 24.32109,-8.86625 0.13858,4.39461 5.47449,6.73862 6.41376,12.75328 9.71561,-3.98745 -2.66221,5.01481 -1.06269,8.52461 -5.39022,4.36833 3.89066,25.13115 -7.36422,19.35446 -7.35026,-7.10897 2.04921,15.35719 6.71031,4.14252 6.03754,-2.19609 0.77182,9.54097 10.01182,6.69892 10.85031,-0.66958 -3.385,11.2623 6.21955,16.34995 7.11182,3.788 2.94509,18.91812 13.26764,9.94384 3.78658,-4.60221 17.33262,-19.6409 8.45636,-5.80925 -3.16047,17.88127 23.72734,7.14405 33.80667,6.23993 6.28457,-1.41591 16.19199,-0.14556 4.45251,0.67071 -49.06063,0.0711 -98.14471,-3.31551 -147.21309,-1.11947 z m 65.16405,-26.05355 c -1.70938,-6.79114 -3.15488,0.71417 -0.74394,2.31159 l 0.26787,-0.27456 0.47607,-2.03703 z m -7.96254,-11.83235 c 0.63727,-13.57306 -7.09971,6.63363 0,0 z m -77.63837,-1.05902 c -2.67683,-4.30591 -0.63338,5.32884 0,0 z m 78.04238,-20.7986 c -7.06303,-1.83626 0.85858,8.00219 0,0 z m -64.04238,-3.64238 c -0.97219,-4.20833 -5.73275,4.21379 0,0 z m -3,-5.5 c -5.36996,-3.58989 3.21124,5.3014 0,0 z m 44.60417,-8.22917 c -2.24515,1.92298 1.88859,3.49285 0,0 z m -5,-14 c -2.24515,1.92298 1.88859,3.49285 0,0 z m -5.22917,-17.06858 c -0.38352,-8.93105 -6.52703,3.37224 0,0 z m -75.71742,106.79775 c 10.01313,-4.61989 17.53941,-21.07474 22.18511,-24.93073 -2.92503,11.1101 -14.10366,24.23595 -23.24173,26.43254 0.35221,-0.5006 0.70441,-1.00121 1.05662,-1.50181 z m 141.09242,2.33772 c 3.08065,-1.38454 2.75604,1.77825 0,0 z m 63.25,-4.2787 c 1.00901,-7.61695 2.2207,5.88776 0,0 z m 3,-7.5 c 1.65911,-5.64687 2.38967,4.01683 0,0 z m -43,-6.95369 c 0.91886,-8.59803 9.47564,-6.34655 0,0 z m -93.80075,-18.59177 c -6.58174,-0.7441 -0.29362,-6.07798 -0.5483,-9.41348 1.99964,1.74126 8.01561,13.27103 0.5483,9.41348 z m -13.94925,-2.66123 c -8.28271,-3.00725 -6.62262,-21.63059 2.72754,-11.16019 9.06712,1.92296 7.00201,4.46552 -0.4488,4.28531 -4.3069,3.70463 13.81549,11.45494 -2.27874,6.87488 z M -441.396,229.2095 c 1.49354,-6.59515 3.20057,5.85824 0,0 z m 172.54303,0.30747 c 1.86385,-3.85656 2.79812,1.88874 0,0 z m -7.33333,-18.22569 c -1.78459,-5.69478 6.83821,3.13238 0,0 z m 7.02718,-1.97281 c -0.21759,-6.97818 6.52256,2.20716 0,0 z m -14.94385,-11.62228 c -2.4696,-10.04082 16.261,-0.26616 22.14195,-3.4528 8.89107,4.95975 -7.20423,8.35926 -10.55782,2.86581 -3.95597,-0.43804 -8.04771,4.38008 -11.58413,0.58699 z m -11.75,-6.59589 c -7.22481,-8.38181 7.03916,0.96054 0,0 z m -177,-4.64235 c 3.11188,-5.60046 3.03845,5.37906 0,0 z m 1,-16.28911 c 3.03236,-5.66468 2.4363,7.79805 0,0 z m 156.5,1.78911 c 1.08398,-3.63616 3.40701,3.94398 0,0 z m -5.91628,-11.86453 c 4.16703,-4.01019 21.27361,-4.72308 7.7059,-0.38374 -2.45755,0.69643 -5.21711,1.55985 -7.7059,0.38374 z m 14.41628,-29.09947 c -7.01844,-2.79691 9.20268,0.28685 0,0 z m -131.37086,-1.01222 c 11.1362,-3.99949 8.74948,0.46759 0,0 z m -5.54601,-13.53549 c 5.70466,-3.70509 8.81291,-2.31403 1.14549,0.85933 -0.36957,0.95919 -3.66193,0.5984 -1.14549,-0.85933 z m 18.47395,-1.39594 c -1.25391,-8.57504 4.40285,-1.64936 0,0 z m 57.64281,-1.59235 c -0.37572,-8.9989 4.2224,-4.96567 1.27637,0.16634 0.0926,0.74065 -1.99952,0.74547 -1.27637,-0.16634 z m -58.24075,-7 c -6.26347,-8.571826 -28.81794,-1.04591 -20.58091,-18.381687 -2.68021,-7.158459 -7.3213,-14.847507 -0.71954,-20.336421 -0.98349,-3.502124 -8.72358,-0.367077 -4.04509,-5.206248 7.02218,-3.991422 7.52607,9.60745 11.63484,1.884676 0.52625,-6.29206 11.80309,4.875028 1.16402,3.92329 -4.97468,11.554268 14.88267,12.683572 10.465,26.359805 -1.7636,11.399825 19.79258,-0.198495 10.3935,12.085925 -2.33424,2.36089 -6.14301,1.97482 -8.31182,-0.32934 z m 134.79553,-6.25 c -7.09409,-10.493427 9.88177,-15.211432 8.97136,-4.170246 -2.20376,8.385476 -8.28172,-4.17668 -7.79923,4.909446 l -1.17213,-0.7392 0,0 z m 7.24533,-5.389754 c -0.98348,-8.045226 -13.56104,0.01047 -2.5827,0.01827 l 2.5827,-0.01827 z m -32.29428,-2.877578 c 1.39474,-6.116926 3.85841,5.794451 0,0 z m 6.56423,-1.922019 c -16.29609,-6.533643 9.25132,0.08267 0,0 z m -40.04197,-4.333025 c -3.56741,-7.690327 -21.17088,-1.779118 -13.28287,-14.310757 1.70593,-13.638739 8.80528,-28.29497 23.46024,-31.354538 12.18539,-5.865012 26.35538,-12.049192 39.38854,-4.825021 13.2616,4.29553 20.85465,18.903754 21.07048,32.080919 -4.78299,0.207906 1.29513,13.220188 -3.43573,2.206458 -1.54272,-11.72075 -16.54818,-16.312046 -22.73572,-18.548532 -11.39774,-3.628856 -27.26068,-4.176021 -29.1112,11.486185 -0.17702,8.460705 -7.49251,20.409345 -9.99591,16.987256 -0.92447,4.412671 1.21737,16.177538 -5.35783,6.27803 z m 58.95952,-30.410735 c -6.40889,-1.917161 1.29635,2.326988 0,0 z m -39.1875,-7.875903 c -2.72377,-1.824146 -1.4044,3.308067 0,0 z m 3.1875,-4.124097 c -6.40889,-1.917161 1.29635,2.326988 0,0 z m -3.69758,-1.333198 c -4.15962,-2.561704 -1.43177,3.462888 0,0 z"
       id="path3666"
       inkscape:connector-curvature="0" />
  </g>
</svg>
