<?xml version="1.0" encoding="UTF-8" standalone="no"?>
<svg
   xmlns:dc="http://purl.org/dc/elements/1.1/"
   xmlns:cc="http://creativecommons.org/ns#"
   xmlns:rdf="http://www.w3.org/1999/02/22-rdf-syntax-ns#"
   xmlns:svg="http://www.w3.org/2000/svg"
   xmlns="http://www.w3.org/2000/svg"
   xmlns:sodipodi="http://sodipodi.sourceforge.net/DTD/sodipodi-0.dtd"
   xmlns:inkscape="http://www.inkscape.org/namespaces/inkscape"
   sodipodi:docname="shadowed.svg"
   height="100%"
   width="100%"
   inkscape:version="0.48.4 r9939"
   version="1.1"
   id="svg2"
   viewBox="0 0 512 512"
   inkscape:export-filename="C:\Users\Chris\Documents\GitHub\bot-game\assets\forest_spirit.png"
   inkscape:export-xdpi="12.832031"
   inkscape:export-ydpi="12.832031">
  <sodipodi:namedview
     pagecolor="#ffffff"
     bordercolor="#666666"
     borderopacity="1"
     objecttolerance="10"
     gridtolerance="10"
     guidetolerance="10"
     inkscape:pageopacity="0"
     inkscape:pageshadow="2"
     inkscape:window-width="1185"
     inkscape:window-height="1030"
     id="namedview44"
     showgrid="false"
     inkscape:zoom="0.71191406"
     inkscape:cx="494.04578"
     inkscape:cy="319.57164"
     inkscape:window-x="100"
     inkscape:window-y="100"
     inkscape:window-maximized="0"
     inkscape:current-layer="svg2" />
  <metadata
     id="metadata48">
    <rdf:RDF>
      <cc:Work
         rdf:about="">
        <dc:format>image/svg+xml</dc:format>
        <dc:type
           rdf:resource="http://purl.org/dc/dcmitype/StillImage" />
        <dc:title />
      </cc:Work>
    </rdf:RDF>
  </metadata>
  <defs
     id="defs46">
    <linearGradient
       id="linearGradient3926">
      <stop
         id="stop3928"
         offset="0"
         style="stop-color:#ffffff;stop-opacity:0;" />
      <stop
         style="stop-color:#ffffff;stop-opacity:0.49803922;"
         offset="0.5"
         id="stop3934" />
      <stop
         id="stop3930"
         offset="1"
         style="stop-color:#ffffff;stop-opacity:0;" />
    </linearGradient>
    <filter
       id="filter3108"
       x="0"
       y="0"
       width="1"
       height="1"
       inkscape:label="Lightness-Contrast"
       inkscape:menu="Color"
       inkscape:menu-tooltip="Increase or decrease lightness and contrast"
       color-interpolation-filters="sRGB">
      <feFlood
         id="feFlood3110"
         result="result1"
         flood-opacity="1"
         flood-color="rgb(0,0,0)" />
      <feBlend
         id="feBlend3112"
         in2="SourceGraphic"
         mode="normal"
         result="result2" />
      <feComposite
         id="feComposite3114"
         in2="SourceGraphic"
         k2="1"
         operator="arithmetic"
         result="result3" />
      <feComposite
         id="feComposite3116"
         in2="SourceGraphic"
         operator="in" />
    </filter>
    <filter
       id="filter7264"
       inkscape:label="Fluorescence"
       inkscape:menu="Color"
       inkscape:menu-tooltip="Oversaturate colors which can be fluorescent in real world"
       x="0"
       y="0"
       width="1"
       height="1"
       color-interpolation-filters="sRGB">
      <feColorMatrix
         id="feColorMatrix7266"
         type="hueRotate"
         values="0" />
      <feColorMatrix
         id="feColorMatrix7268"
         type="saturate"
         values="1" />
      <feColorMatrix
         id="feColorMatrix7270"
         type="matrix"
         values="2 -1 0 0 0 0 2 -1 0 0 -1 0 2 0 0 0 0 0 1 0 " />
    </filter>
    <filter
       id="filter7746"
       inkscape:label="Fluorescence"
       inkscape:menu="Color"
       inkscape:menu-tooltip="Oversaturate colors which can be fluorescent in real world"
       x="0"
       y="0"
       width="1"
       height="1"
       color-interpolation-filters="sRGB">
      <feColorMatrix
         id="feColorMatrix7748"
         type="hueRotate"
         values="0" />
      <feColorMatrix
         id="feColorMatrix7750"
         type="saturate"
         values="1" />
      <feColorMatrix
         id="feColorMatrix7752"
         type="matrix"
         values="2 -1 0 0 0 0 2 -1 0 0 -1 0 2 0 0 0 0 0 1 0 " />
    </filter>
  </defs>
  <rect
     style="opacity:0.98999999;fill:#0a0000;fill-opacity:1;fill-rule:nonzero;stroke:none"
     id="rect3171"
     width="516.97894"
     height="518.513"
     x="1.7468045"
     y="2.4831297" />
  <rect
     y="319.66696"
     x="-94.752312"
     height="57.982758"
     width="76.367531"
     id="rect3156"
     style="opacity:0.98999999;fill:#ffffff;fill-opacity:1;fill-rule:nonzero;stroke:none" />
  <g
     transform="matrix(0.79644792,0,0,0.72950545,372.41263,582.91112)"
     id="g11129">
    <g
       id="g11117">
      <path
         style="fill:#0e9597"
         d="m -91.61041,-219.22004 c 0,-0.56727 0.65561,-1.28297 1.45691,-1.59046 1.01823,-0.39073 1.28169,-1.43514 0.875,-3.46861 -0.4965,-2.48249 -0.27001,-2.90955 1.54309,-2.90955 1.66872,0 2.125,0.61088 2.125,2.84501 0,1.56476 -0.82293,3.58976 -1.82874,4.5 -2.05838,1.86281 -4.17126,2.17868 -4.17126,0.62361 z m 11,-2.38529 c 0,-0.77916 0.5625,-1.60598 1.25,-1.83738 0.97639,-0.32862 0.95173,-0.78205 -0.11262,-2.0715 -1.16034,-1.40572 -1.13403,-1.73851 0.17727,-2.2417 2.52529,-0.96904 6.18535,-0.0424 6.18535,1.56593 0,0.83157 -0.89026,1.49927 -2,1.5 -1.11052,7.3e-4 -2,0.66843 -2,1.50132 0,1.50137 -1.34016,2.9559 -2.75,2.98469 -0.4125,0.008 -0.75,-0.62219 -0.75,-1.40136 z m -23.41865,-3.33531 c -0.31974,-0.31974 -0.58135,-1.40635 -0.58135,-2.41469 0,-1.00833 -0.45,-1.83333 -1,-1.83333 -0.55,0 -1,-1.13357 -1,-2.51905 0,-2.16482 -0.34,-2.43372 -2.41783,-1.91222 -1.81172,0.45471 -2.69795,0.0835 -3.53519,-1.48094 -0.61454,-1.14829 -1.74619,-2.08779 -2.51478,-2.08779 -0.76858,0 -1.70977,-0.98412 -2.09153,-2.18694 -0.66782,-2.10412 -0.74573,-2.11635 -2.05706,-0.323 -1.89965,2.59792 -2.52708,1.49697 -1.39548,-2.44866 1.09057,-3.8026 0.6345,-5.0414 -1.85602,-5.0414 -0.96242,0 -2.60637,-0.6263 -3.65323,-1.39179 -1.51259,-1.10603 -1.65938,-1.6858 -0.71493,-2.82379 0.91507,-1.10259 0.91625,-1.70422 0.005,-2.61536 -0.91113,-0.91113 -0.78242,-1.58427 0.55951,-2.9262 1.43171,-1.43171 3.25397,-1.69525 10.20714,-1.47619 13.23398,0.41693 16.48124,0.40427 23.77894,-0.0927 6.30156,-0.42913 6.87724,-0.29947 7.64583,1.72207 0.45714,1.20238 1.51491,2.7536 2.35059,3.44716 1.11383,0.92439 1.30234,2.01795 0.70619,4.09662 -0.59644,2.07964 -0.39321,3.25565 0.76229,4.41115 1.43404,1.43404 1.42719,1.63246 -0.0763,2.2094 -0.93651,0.35937 -2.35424,-0.0685 -3.27381,-0.98809 -1.76553,-1.76553 -8.44467,-1.89818 -9.60441,-0.19075 -0.37124,0.54655 0.19126,2.09499 1.25,3.44096 2.39085,3.03947 2.44645,5.51317 0.17498,7.78464 -0.9625,0.9625 -1.75,2.08215 -1.75,2.4881 0,1.19713 -1.2409,2.10927 -5.40704,3.9745 -2.16164,0.9678 -4.19186,1.49802 -4.51161,1.17828 z m 8.16912,-6.99802 c 0.26043,-0.78218 -0.53889,-1.25 -2.13575,-1.25 -1.8935,0 -2.39857,0.39969 -1.95751,1.54909 0.68043,1.77318 3.47117,1.56926 4.09326,-0.29909 z m -8.25047,-5.25 c -0.33992,-0.55 -0.81648,-1 -1.05902,-1 -0.24254,0 -0.44098,0.45 -0.44098,1 0,0.55 0.47656,1 1.05902,1 0.58246,0 0.7809,-0.45 0.44098,-1 z m 34.66667,11 c 0.50335,-1.51005 2.11144,-1.66567 2.58333,-0.25 0.22917,0.6875 -0.33333,1.25 -1.25,1.25 -0.91667,0 -1.51667,-0.45 -1.33333,-1 z m -15.16667,-2 c 0,-0.55 0.42344,-1 0.94098,-1 0.51754,0 1.2191,0.45 1.55902,1 0.33992,0.55 -0.0835,1 -0.94098,1 -0.85746,0 -1.55902,-0.45 -1.55902,-1 z m -18.35607,-72.75 c -0.77409,-1.5125 -1.72458,-4.65883 -2.1122,-6.99186 -0.66234,-3.98643 -0.53865,-4.30501 2.0542,-5.29081 4.12666,-1.56895 5.40241,-0.58361 5.50426,4.25129 l 0.0902,4.28138 0.9384,-3.25 c 0.51612,-1.7875 1.56621,-3.25 2.33354,-3.25 0.91023,0 1.68558,-1.82471 2.2308,-5.25 0.89955,-5.65126 3.51577,-7.38586 4.16748,-2.7631 0.19282,1.3678 1.27684,3.78771 2.40893,5.37758 2.30346,3.2349 2.58357,10.25635 0.48922,12.26312 -0.68681,0.65809 -3.04875,1.68164 -5.24875,2.27454 -3.54917,0.9565 -4.16986,0.85328 -5.50712,-0.91581 -1.50512,-1.99115 -1.50878,-1.99114 -2.75847,0.01 -1.69738,2.71794 -2.91918,2.51932 -4.59048,-0.74626 z m -9.58199,-2.65998 c -1.73691,-2.52451 -2.79311,-4.59002 -2.34711,-4.59002 0.446,0 1.25512,-1.0125 1.79804,-2.25 0.54292,-1.2375 1.43713,-2.24105 1.98713,-2.23011 1.6787,0.0334 4.3924,6.80724 3.79787,9.48011 -0.97302,4.37443 -1.99947,4.29406 -5.23593,-0.40998 z m -23.86773,-2.72872 c 0.22766,-3.97749 0.72078,-5.42138 1.92996,-5.65103 2.3417,-0.44472 3.00575,2.24525 1.59745,6.47104 -1.97954,5.93987 -3.88893,5.496 -3.52741,-0.82001 z m 8.18508,-1.95263 c 0.4755,-4.1389 1.18113,-5.68158 2.15388,-4.70884 0.84954,0.84954 -0.69208,8.80017 -1.70635,8.80017 -0.50466,0 -0.70605,-1.8411 -0.44753,-4.09133 z m -26.83658,2.16043 c -0.31644,-0.512 -0.11799,-1.21356 0.44098,-1.55902 0.55897,-0.34546 1.01631,0.0734 1.01631,0.9309 0,1.75653 -0.60006,2.01516 -1.45729,0.62812 z m 73.45729,-2.98577 c 0,-1.05416 0.52457,-2.09152 1.16572,-2.30524 0.87475,-0.29158 0.88765,-1.18625 0.0517,-3.58436 -1.04528,-2.99848 -0.93509,-3.28835 1.78462,-4.69476 3.45362,-1.78594 7.998,-1.97214 7.998,-0.32771 0,0.64419 0.71921,1.96598 1.59824,2.9373 1.32563,1.4648 1.40472,2.35243 0.46369,5.20379 -0.95503,2.89378 -1.72219,3.5349 -4.84825,4.0517 -6.49095,1.07307 -8.21372,0.80445 -8.21372,-1.28072 z m 16,-1.51001 c 0,-0.92763 0.855,-1.57332 2.08333,-1.57332 2.43705,0 2.09257,2.33677 -0.4162,2.82332 -0.98676,0.19138 -1.66713,-0.31876 -1.66713,-1.25 z m 4.6342,-5.27245 c -0.40744,-0.40744 -1.72931,-0.75431 -2.9375,-0.77083 -1.50505,-0.0206 -2.29731,-0.73847 -2.51625,-2.28004 -0.23362,-1.64495 0.18319,-2.25 1.55,-2.25 1.02825,0 2.41455,-0.545 3.08066,-1.21111 1.86879,-1.86879 6.06006,2.60646 4.60357,4.91549 -1.25449,1.98877 -2.75467,2.6223 -3.78048,1.59649 z m -27.06805,-30.19384 c -0.25961,-0.42005 -2.77985,-0.8163 -5.60055,-0.88055 -2.8207,-0.0643 -5.65438,-0.52817 -6.29707,-1.03094 -0.64269,-0.50276 -2.5806,-1.1811 -4.30645,-1.50741 -2.3576,-0.44576 -3.57735,-0.10774 -4.90499,1.35929 -2.25906,2.49623 -4.45709,2.50715 -4.45709,0.0221 0,-1.18728 0.80204,-2.05347 2.08336,-2.25 1.51341,-0.23213 2.60338,-1.80141 3.98416,-5.73618 1.15993,-3.3054 1.55116,-5.83889 1.00377,-6.5 -0.49337,-0.59585 -0.8462,-4.34587 -0.78408,-8.33337 0.0977,-6.27285 0.35555,-7.25 1.91288,-7.25 0.98995,0 1.79991,-0.72274 1.79991,-1.60608 0,-0.88334 1.2375,-2.56742 2.75,-3.74239 1.5125,-1.17497 10.54478,-9.55274 20.07172,-18.61726 13.8431,-13.17118 18.86371,-17.28961 25,-20.50761 4.22306,-2.21467 7.9191,-4.34679 8.21344,-4.73806 0.54897,-0.72976 2.41299,-9.35791 3.46497,-16.0386 0.44349,-2.81645 1.0654,-3.75 2.49813,-3.75 3.52111,0 7.46588,2.38577 12.70062,7.68125 5.92013,5.98882 7.70332,8.82825 6.88442,10.96228 -0.44332,1.15527 -0.0699,1.3276 1.67299,0.772 4.14864,-1.3225 5.23844,-1.00245 5.39517,1.58447 0.0833,1.375 0.1958,3.0625 0.25,3.75 0.058,0.73608 1.49904,1.25 3.50492,1.25 2.91405,0 3.33079,0.28906 2.88337,2 -0.43817,1.67555 -0.0307,2 2.51183,2 3.98796,0 6.19842,0.9043 6.19842,2.53579 0,2.42282 6.59681,8.46421 9.24238,8.46421 1.43922,0 4.0352,1.40047 6.09748,3.28945 3.47011,3.1785 3.54181,3.38474 2.12569,6.11431 -2.06257,3.97561 -1.82153,5.25347 0.46347,2.45702 1.39111,-1.70248 2.2368,-2.05885 3.03278,-1.278 1.37901,1.3528 0.29885,4.41722 -1.557,4.41722 -0.83629,0 -1.28724,0.88769 -1.14301,2.25 0.2015,1.90325 -0.18559,2.20564 -2.51179,1.96215 -2.09562,-0.21935 -2.75,0.14404 -2.75,1.52714 0,2.50129 -5.45703,8.26071 -7.827,8.26071 -1.0971,0 -2.16636,0.86662 -2.46143,1.99495 -0.28693,1.09723 -1.12691,2.16103 -1.86663,2.364 -7.30349,2.00403 -10.43648,2.39501 -11.58088,1.44524 -0.91842,-0.76222 -2.23344,-0.26808 -4.85757,1.82532 -1.97902,1.57877 -4.45508,3.3147 -5.50236,3.85762 -1.04727,0.54292 -1.90413,1.33042 -1.90413,1.75 0,0.41958 -1.035,0.76287 -2.3,0.76287 -3.29029,0 -4.8541,1.84354 -3.58126,4.22186 1.53033,2.85945 -3.45121,7.22889 -7.90179,6.93087 -1.80568,-0.12091 -4.26831,0.47026 -5.47251,1.31372 -1.2042,0.84345 -4.00182,1.54136 -6.21695,1.55091 -2.21512,0.01 -7.17749,0.75399 -11.02749,1.6543 -7.34344,1.71725 -28.12255,2.74808 -28.93385,1.43537 z m -42.56615,-0.90125 c 0,-0.52849 0.7269,-1.56417 1.61534,-2.3015 1.39754,-1.15986 1.56608,-1.08641 1.25,0.54469 -0.37664,1.94362 -2.86534,3.4695 -2.86534,1.75681 z m -11.54112,-3.27231 c -0.36253,-0.58659 -0.38118,-1.34451 -0.0414,-1.68425 0.33974,-0.33975 -0.82194,-2.10307 -2.58151,-3.91849 -3.55513,-3.66796 -3.25375,-4.67866 1.48554,-4.98184 2.81849,-0.18031 3.48735,0.30291 5.49654,3.97095 l 2.28756,4.17625 -2.16358,1.75196 c -2.49463,2.02003 -3.55782,2.18258 -4.48312,0.68542 z m 128.72862,-15.99597 c 0.24063,-0.72187 1.02813,-1.50937 1.75,-1.75 0.75,-0.25 1.125,0.125 0.875,0.875 -0.24063,0.72187 -1.02813,1.50937 -1.75,1.75 -0.75,0.25 -1.125,-0.125 -0.875,-0.875 z m -96.1744,-32.64474 c -4.4798,-0.88978 -8.0131,-4.15099 -8.0131,-7.39604 0,-1.6319 -0.71921,-4.06474 -1.59824,-5.40631 -2.41766,-3.68981 -0.82262,-14.90349 3.55465,-24.99041 1.31804,-3.03726 1.57944,-5.38603 1.08606,-9.75868 -0.35737,-3.16728 -0.31077,-6.30719 0.10355,-6.97759 1.23298,-1.995 -0.26531,-10.10451 -2.27771,-12.32818 -1.50699,-1.6652 -1.87446,-3.69583 -1.90011,-10.5 -0.022,-5.82752 -0.48573,-9.03569 -1.5,-10.37668 -0.80751,-1.06762 -1.4682,-2.78168 -1.4682,-3.80902 0,-1.02733 -0.41891,-1.60899 -0.9309,-1.29256 -1.70166,1.05169 -2.22241,-1.44684 -0.63286,-3.03639 1.71771,-1.7177 2.04482,-4.48884 0.70482,-5.9709 -2.29135,-2.53428 -4.79602,-29.13706 -3.29057,-34.95 0.56976,-2.2 1.47838,-5.75082 2.01914,-7.89071 1.22979,-4.86644 3.50349,-7.37007 5.33018,-5.86921 0.71511,0.58756 2.4223,1.2239 3.79376,1.4141 1.72081,0.23865 2.65051,1.12057 3,2.84582 0.97327,4.80458 5.45648,12.88403 7.722,13.91627 1.25644,0.57247 2.28443,1.6943 2.28443,2.49295 0,1.78354 3.70888,7.96552 6.75,11.25094 1.2375,1.33691 2.25,2.68244 2.25,2.99007 0,1.39186 5.25959,10.96734 6.58026,11.97986 0.81071,0.62155 2.08903,4.06954 2.84072,7.66221 1.32141,6.31567 1.15493,10.15259 -1.03661,23.8905 -0.46132,2.89188 -0.13616,4.16725 1.51407,5.93856 2.37973,2.55435 2.65852,5.01394 0.88941,7.84673 -1.56537,2.50656 -0.25462,3.80451 2.25763,2.23558 1.78451,-1.11444 1.96319,-0.93718 2.0542,2.03786 0.14796,4.83666 1.32584,8.49701 2.25204,6.99839 1.41286,-2.28605 3.13421,-1.27291 5.53896,3.26008 2.75925,5.20123 5.38739,6.14036 4.47945,1.60067 -0.48036,-2.40184 -0.18887,-3.02342 1.69881,-3.62255 1.63743,-0.5197 2.65187,-0.21284 3.60486,1.09046 1.15239,1.57598 1.3262,1.59978 1.3262,0.18157 0,-1.88028 1.57766,-3.1292 2.9115,-2.30484 0.8893,0.54961 -0.0578,4.5078 -2.22343,9.29237 -0.81606,1.80294 -1.29152,2.00639 -2.44723,1.04724 -1.13568,-0.94253 -1.628,-0.84449 -2.36406,0.47078 -0.51132,0.91368 -1.59277,1.40678 -2.40323,1.09578 -0.90073,-0.34565 -1.47355,0.0268 -1.47355,0.9582 0,0.83801 0.5625,1.7283 1.25,1.97842 0.99696,0.3627 0.99854,0.83504 0.008,2.33333 -0.68322,1.03321 -2.59757,4.45691 -4.25412,7.60822 -1.65655,3.1513 -4.24756,6.51151 -5.75779,7.46713 -1.51023,0.95562 -3.72385,2.65228 -4.91916,3.77035 -7.66239,7.16735 -21.67599,12.34262 -29.31362,10.82563 z m 26.9869,-68.87609 c 0,-1.76593 2.15276,-1.45839 2.77083,0.39583 0.21771,0.65312 -0.31666,1.1875 -1.1875,1.1875 -0.87083,0 -1.58333,-0.7125 -1.58333,-1.58333 z m -198.5,-179.3618 c -1.1,-0.44253 -2.34068,-0.60739 -2.75706,-0.36636 -1.13571,0.65744 -2.14539,-2.68606 -1.12061,-3.71084 0.48834,-0.48834 3.21458,-1.09933 6.05832,-1.35775 2.84374,-0.25842 6.13911,-0.98827 7.32304,-1.62189 1.18392,-0.63362 2.79243,-0.90651 3.57445,-0.60642 1.75514,0.67351 1.87237,5.00692 0.17186,6.35289 -1.74642,1.3823 -10.8366,2.28129 -13.25,1.31037 z m 8.08062,-18.61711 c -1.69414,-1.69414 -1.95685,-2.7282 -0.94914,-3.73591 0.96995,-0.96995 4.36852,1.18838 4.36852,2.77432 0,2.21504 -1.69053,2.69044 -3.41938,0.96159 z"
         id="path11127"
         inkscape:connector-curvature="0" />
      <path
         style="fill:#0c6f01"
         d="m -101.78574,-195.61971 c -3.12144,-0.58792 -6.00894,-1.40645 -6.41667,-1.81895 -0.40773,-0.4125 -1.75453,-0.75 -2.99288,-0.75 -3.20692,0 -5.41512,-1.00937 -5.41512,-2.47526 0,-0.6937 -3.10944,-4.39548 -6.90987,-8.22618 -5.041,-5.08114 -7.25591,-8.15949 -8.18929,-11.38173 -0.70368,-2.42926 -2.09423,-5.49002 -3.09013,-6.80169 -0.99589,-1.31167 -1.81071,-2.91495 -1.81071,-3.56285 0,-1.65937 -4.72425,-11.26383 -5.89696,-11.98861 -0.53424,-0.33018 -0.71772,-2.16327 -0.40773,-4.07354 0.33987,-2.09438 0.0708,-4.067 -0.67772,-4.96894 -1.99842,-2.40796 -0.46329,-4.5212 3.28436,-4.5212 1.85059,0 3.66333,-0.29861 4.0283,-0.66358 0.36496,-0.36497 3.02746,-1.52026 5.91666,-2.56732 4.16049,-1.50777 8.89296,-1.99834 22.75309,-2.35858 9.625,-0.25016 19.075,-0.61309 21,-0.8065 3.0906,-0.31052 11.15095,0.45391 22,2.08645 1.925,0.28966 10.76848,0.50333 19.65217,0.47482 l 16.15218,-0.0519 1.26812,3.06152 c 1.47595,3.56325 0.30419,6.32427 -2.68487,6.32636 -2.52281,0.002 -2.42662,2.86904 0.1124,3.35067 4.4566,0.84536 4.81741,6.85366 0.65391,10.88931 -4.47496,4.33755 -8.41416,13.0579 -7.676,16.99263 0.53176,2.83454 0.16333,3.70649 -2.65306,6.27886 -1.79881,1.64297 -3.63142,2.98721 -4.07246,2.98721 -0.44104,0 -1.2084,1.06919 -1.70524,2.37599 -0.5465,1.4374 -2.80813,3.25389 -5.72525,4.59837 -2.65204,1.22232 -7.5219,3.47655 -10.8219,5.00941 -5.44948,2.5313 -7.28455,2.8268 -20,3.22057 -7.78816,0.24119 -16.51816,-0.0407 -19.67533,-0.63539 z m 14.34659,-24.22394 c 1.00581,-0.91024 1.82874,-2.93524 1.82874,-4.5 0,-2.23413 -0.45628,-2.84501 -2.125,-2.84501 -1.8131,0 -2.03959,0.42706 -1.54309,2.90955 0.40669,2.03347 0.14323,3.07788 -0.875,3.46861 -1.73884,0.66726 -1.95179,2.62184 -0.28565,2.62184 0.64419,0 1.99419,-0.74474 3,-1.65499 z m 9.32874,-1.11032 c 0.55,-0.40408 1,-1.40969 1,-2.23469 0,-0.83289 0.88948,-1.50059 2,-1.50132 1.10974,-7.3e-4 2,-0.66843 2,-1.5 0,-1.60836 -3.66006,-2.53497 -6.18535,-1.56593 -1.3113,0.50319 -1.33761,0.83598 -0.17727,2.2417 1.06435,1.28945 1.08901,1.74288 0.11262,2.0715 -0.6875,0.2314 -1.25,1.05822 -1.25,1.83738 0,1.54945 0.94313,1.79517 2.5,0.65136 z m -16.73839,-7.66297 c 0.40611,-0.40611 0.73839,-1.07053 0.73839,-1.47648 0,-0.40595 0.7875,-1.5256 1.75,-2.4881 2.27147,-2.27147 2.21587,-4.74517 -0.17498,-7.78464 -1.05874,-1.34597 -1.62124,-2.89441 -1.25,-3.44096 1.15974,-1.70743 7.83888,-1.57478 9.60441,0.19075 0.91957,0.91956 2.3373,1.34746 3.27381,0.98809 1.5035,-0.57694 1.51035,-0.77536 0.0763,-2.2094 -1.1555,-1.1555 -1.35873,-2.33151 -0.76229,-4.41115 0.59615,-2.07867 0.40764,-3.17223 -0.70619,-4.09662 -0.83568,-0.69356 -1.89345,-2.24478 -2.35059,-3.44716 -0.76859,-2.02154 -1.34427,-2.1512 -7.64583,-1.72207 -7.2977,0.49696 -10.54496,0.50962 -23.77894,0.0927 -6.95317,-0.21906 -8.77543,0.0445 -10.20714,1.47619 -1.34193,1.34193 -1.47064,2.01507 -0.55951,2.9262 0.91114,0.91114 0.90996,1.51277 -0.005,2.61536 -0.94445,1.13799 -0.79766,1.71776 0.71493,2.82379 1.04686,0.76549 2.69081,1.39179 3.65323,1.39179 2.49052,0 2.94659,1.2388 1.85602,5.0414 -1.1316,3.94563 -0.50417,5.04658 1.39548,2.44866 1.31133,-1.79335 1.38924,-1.78112 2.05706,0.323 0.38176,1.20282 1.32295,2.18694 2.09153,2.18694 0.76859,0 1.90024,0.9395 2.51478,2.08779 0.83724,1.5644 1.72347,1.93565 3.53519,1.48094 2.07783,-0.5215 2.41783,-0.2526 2.41783,1.91222 0,1.38548 0.45,2.51905 1,2.51905 0.55,0 1,0.825 1,1.83333 0,1.00834 0.26161,2.09495 0.58135,2.41469 0.58637,0.58636 7.81059,-2.30662 9.18026,-3.6763 z m -5.1044,-3.02263 c -0.44106,-1.1494 0.064,-1.54909 1.95751,-1.54909 1.59686,0 2.39618,0.46782 2.13575,1.25 -0.62209,1.86835 -3.41283,2.07227 -4.09326,0.29909 z m -5.65721,-5.54909 c 0,-0.55 0.19844,-1 0.44098,-1 0.24254,0 0.7191,0.45 1.05902,1 0.33992,0.55 0.14148,1 -0.44098,1 -0.58246,0 -1.05902,-0.45 -1.05902,-1 z m 38.75,10.75 c -0.47189,-1.41567 -2.07998,-1.26005 -2.58333,0.25 -0.18334,0.55 0.41666,1 1.33333,1 0.91667,0 1.47917,-0.5625 1.25,-1.25 z m -15.25,-1.75 c -0.33992,-0.55 -1.04148,-1 -1.55902,-1 -0.51754,0 -0.94098,0.45 -0.94098,1 0,0.55 0.70156,1 1.55902,1 0.85746,0 1.2809,-0.45 0.94098,-1 z m -22.57758,-62.14496 c -2.2926,-4.28376 -6.21913,-6.9331 -9.57242,-6.45879 -3.83857,0.54295 -7.16517,-2.51442 -8.21439,-7.5496 -1.54715,-7.42473 1.19187,-10.53334 10.15922,-11.53004 3.18866,-0.35442 6.0748,-1.36824 7.44993,-2.61697 1.92916,-1.75183 2.72815,-1.89006 5.68295,-0.98321 3.0638,0.94031 3.68226,0.79542 5.67956,-1.33061 2.66921,-2.84125 3.61895,-2.94356 6.14059,-0.66151 1.8038,1.63242 2.06546,1.63242 4.90978,0 2.15068,-1.23432 5.25474,-1.72431 10.9234,-1.72431 5.14134,0 7.91896,-0.38979 7.91896,-1.11129 0,-0.72644 1.20069,-0.88604 3.46708,-0.46086 2.82906,0.53073 3.70144,0.27518 4.74055,-1.38871 0.70041,-1.12153 1.68901,-2.03914 2.1969,-2.03914 2.02255,0 8.59547,3.455 8.59547,4.51813 0,2.15265 -4.8177,5.76281 -6.94721,5.20593 -2.10557,-0.55062 -2.14286,0.0695 -0.39246,6.52594 0.37377,1.37864 -0.15207,1.75 -2.47793,1.75 -2.04572,0 -3.45542,0.76774 -4.59044,2.5 -0.90094,1.375 -2.23872,2.5 -2.97286,2.5 -1.40255,0 -12.65352,5.63972 -18.6191,9.3331 -4.79841,2.97076 -9.91951,4.8845 -13.5,5.04491 -1.65,0.0739 -3.98292,0.6941 -5.18426,1.37819 -3.04994,1.73675 -4.07304,1.5658 -5.39332,-0.90116 z m 6.31199,-9.85878 c 1.24969,-2.00107 1.25335,-2.00108 2.75847,-0.01 1.33726,1.76909 1.95795,1.87231 5.50712,0.91581 2.2,-0.5929 4.56194,-1.61645 5.24875,-2.27454 2.09435,-2.00677 1.81424,-9.02822 -0.48922,-12.26312 -1.13209,-1.58987 -2.21611,-4.00978 -2.40893,-5.37758 -0.65171,-4.62276 -3.26793,-2.88816 -4.16748,2.7631 -0.54522,3.42529 -1.32057,5.25 -2.2308,5.25 -0.76733,0 -1.81742,1.4625 -2.33354,3.25 l -0.9384,3.25 -0.0902,-4.28138 c -0.10185,-4.8349 -1.3776,-5.82024 -5.50426,-4.25129 -2.59285,0.9858 -2.71654,1.30438 -2.0542,5.29081 0.80475,4.84365 3.06005,9.74186 4.48548,9.74186 0.53121,0 1.52895,-0.90168 2.2172,-2.00374 z m -8.93654,-2.99626 c 0.59453,-2.67287 -2.11917,-9.44671 -3.79787,-9.48011 -0.55,-0.0109 -1.44421,0.99261 -1.98713,2.23011 -0.54292,1.2375 -1.35204,2.25 -1.79804,2.25 -0.446,0 0.6102,2.06551 2.34711,4.59002 3.23646,4.70404 4.26291,4.78441 5.23593,0.40998 z m 33.91581,-4.63595 c 3.12606,-0.5168 3.89322,-1.15792 4.84825,-4.0517 0.94103,-2.85136 0.86194,-3.73899 -0.46369,-5.20379 -0.87903,-0.97132 -1.59824,-2.29311 -1.59824,-2.9373 0,-1.64443 -4.54438,-1.45823 -7.998,0.32771 -2.71971,1.40641 -2.8299,1.69628 -1.78462,4.69476 0.83599,2.39811 0.82309,3.29278 -0.0517,3.58436 -0.64115,0.21372 -1.16572,1.25108 -1.16572,2.30524 0,2.08517 1.72277,2.35379 8.21368,1.28072 z m 11.53679,-3.11405 c 0.24412,-0.73318 -0.44516,-1.25 -1.66714,-1.25 -1.22833,0 -2.08333,0.64569 -2.08333,1.57332 0,1.83788 3.12044,1.56887 3.75047,-0.32332 z m 4.66421,-6.54562 c 1.45649,-2.30903 -2.73478,-6.78428 -4.60357,-4.91549 -0.66611,0.66611 -2.05241,1.21111 -3.08066,1.21111 -1.36681,0 -1.78362,0.60505 -1.55,2.25 0.21894,1.54157 1.0112,2.25946 2.51625,2.28004 1.20819,0.0165 2.53006,0.36339 2.9375,0.77083 1.02581,1.02581 2.52599,0.39228 3.78048,-1.59649 z m -80.17413,17.30919 c -1.59911,-2.56058 -1.594,-8.14688 0.009,-10.3445 1.04312,-1.42966 1.19219,-0.78001 0.9007,3.9253 -0.40327,6.50976 1.49012,7.22082 3.54286,1.33052 0.65645,-1.88369 1.21895,-2.62294 1.25,-1.64277 0.0735,2.32148 -2.60597,8.71788 -3.65199,8.71788 -0.44576,0 -1.36872,-0.89389 -2.05102,-1.98643 z m 8.95945,0.78643 c -1.44217,-1.44217 -1.56104,-7.70252 -0.18608,-9.8 0.6992,-1.06663 0.80312,-0.56103 0.35968,1.75 -0.38618,2.01262 -0.22057,3.25 0.43498,3.25 0.58222,0 1.24604,-1.2375 1.47517,-2.75 0.22912,-1.5125 0.48401,-0.1625 0.56642,3 0.15055,5.77749 -0.42851,6.77166 -2.65017,4.55 z m -19.51667,-2.45 c -1.06527,-1.06527 -0.80245,-4.35 0.34805,-4.35 1.47853,0 2.40944,2.95918 1.28474,4.08388 -0.5222,0.5222 -1.25695,0.64195 -1.63279,0.26612 z m -7.22497,-3.41738 c -0.49466,-0.80038 -0.35708,-0.98806 0.38713,-0.52811 0.69098,0.42705 1.15451,0.0639 1.15451,-0.90451 0,-0.88992 -0.45,-1.33992 -1,-1 -0.55,0.33992 -1,0.14148 -1,-0.44098 0,-1.63228 1.98833,-1.253 2.66417,0.5082 0.78167,2.037 -1.1371,4.09461 -2.20581,2.3654 z m 117.34164,-12.13262 c 0.93333,-0.93333 1.46667,-0.93333 2.4,0 0.93333,0.93333 0.66667,1.2 -1.2,1.2 -1.86667,0 -2.13333,-0.26667 -1.2,-1.2 z m 1.73262,-2.74721 c -0.87924,-1.42264 0.24199,-3.05279 2.09972,-3.05279 0.87615,0 1.37805,0.70256 1.19098,1.66713 -0.38952,2.00847 -2.38616,2.84922 -3.2907,1.38566 z m 4.72674,-2.17664 c -1.41137,-3.73914 0.13756,-7.87615 2.9489,-7.87615 1.03798,0 2.9556,-1.15278 4.26138,-2.56174 l 2.37414,-2.56174 -0.29615,3.73243 c -0.21169,2.66799 -1.04497,4.27791 -2.92189,5.64514 -1.44416,1.052 -2.62574,2.49509 -2.62574,3.20687 0,0.71178 -0.58404,1.77886 -1.29787,2.37128 -0.99429,0.82519 -1.56566,0.36766 -2.44277,-1.95609 z m -6.68793,-5.44758 c -2.01589,-2.01589 -1.99257,-3.32973 0.0732,-4.12243 1.72057,-0.66025 4.35539,1.99248 4.35539,4.38499 0,1.79553 -2.51988,1.64613 -4.42857,-0.26256 z m -96.86628,-16.33129 c -4.28717,-1.56073 -8.34483,-3.58984 -9.01703,-4.50912 -0.6722,-0.91929 -2.29535,-2.2152 -3.607,-2.8798 -4.16729,-2.11153 -4.83219,-4.27163 -2.58112,-8.38548 1.1,-2.01026 2.675,-4.00175 3.5,-4.42553 5.3267,-2.73623 8.10486,-3.44972 12.79169,-3.2852 4.3067,0.15119 5.74984,0.68012 7.75305,2.84162 2.01968,2.17928 2.35494,3.32138 1.86831,6.36461 -0.46418,2.90281 -0.17031,4.09132 1.35233,5.46929 4.68159,4.23678 7.2732,-1.07101 6.95972,-14.25398 l -0.2251,-9.46631 4.18292,-1.55037 c 4.1446,-1.53618 7.47953,-3.87671 16.26974,-11.41853 10.60892,-9.10221 10.76609,-11.97875 0.41202,-7.54048 -2.64062,1.13191 -7.58475,2.31795 -10.98697,2.63565 -5.09989,0.47624 -6.97814,0.1941 -10.69894,-1.60711 -4.98654,-2.41394 -6.71774,-4.57434 -9.6724,-12.07038 -2.05655,-5.21751 -1.81272,-8.80632 1.1901,-17.51616 0.56885,-1.65 1.34923,-5.025 1.73417,-7.5 0.38494,-2.475 1.31063,-6.15214 2.0571,-8.17142 1.10863,-2.999 1.14173,-5.47152 0.18072,-13.5 -1.71572,-14.33346 -4.80489,-32.44747 -6.02494,-35.32858 -2.92103,-6.89789 -5.20641,-40.80712 -3.21764,-47.74157 1.31672,-4.59113 9.07342,-16.25843 10.80899,-16.25843 2.95108,0 6.95712,4.07502 14.76513,15.01939 4.4,6.16741 12.37268,15.86121 17.71708,21.54177 5.7792,6.14273 9.95643,11.46514 10.30771,13.13357 0.32486,1.5429 1.01467,4.69204 1.53293,6.99809 0.51825,2.30605 0.94228,5.64549 0.94228,7.42097 0,2.83166 2.32832,8.69004 7.75671,19.51701 0.86335,1.72195 2.83934,3.88079 4.3911,4.79744 1.55176,0.91665 4.19993,3.67029 5.88483,6.1192 3.13784,4.5607 4.69459,5.32533 6.71949,3.30043 0.8695,-0.8695 1.45318,-0.49137 2.37939,1.54144 l 1.22727,2.69356 2.12876,-2.66971 c 1.58503,-1.98782 2.66825,-2.49848 4.24097,-1.99932 2.40735,0.76406 13.8096,8.73516 19.77148,13.82188 2.2,1.87705 7.48819,5.1794 11.75154,7.33855 4.26335,2.15915 10.11335,6.09568 13,8.74783 2.88665,2.65216 7.49846,6.11966 10.24846,7.70557 2.75,1.5859 7.00619,4.92846 9.45821,7.4279 2.45201,2.49943 5.15201,4.54559 6,4.547 2.45355,0.004 12.94427,6.73093 15.87123,10.17692 3.30024,3.88545 4.2155,6.1462 4.66703,11.52772 0.2896,3.45162 -0.17824,4.88837 -2.60497,8 -3.90886,5.01206 -7.95556,8.2817 -10.25752,8.28782 -1.02632,0.003 -3.95132,1.51634 -6.5,3.36356 -4.46847,3.23863 -8.67887,4.96273 -12.41495,5.08373 -0.97954,0.0317 -2.19279,0.72 -2.69611,1.5295 -0.75672,1.21704 -1.66016,1.27997 -5.21903,0.36353 -5.44471,-1.40206 -15.00154,-0.28207 -20.3278,2.38226 -2.18685,1.09391 -6.72507,2.51511 -10.08494,3.15822 -3.35987,0.6431 -8.02086,2.09306 -10.35775,3.22212 -4.27468,2.0653 -8.22104,2.93606 -22.0334,4.86164 -16.45228,2.2936 -26.80536,3.20804 -33,2.91471 -8.38533,-0.39706 -15.12666,-0.33674 -22.05832,0.19739 -4.9352,0.38029 -5.92473,0.12002 -8.82673,-2.32169 -1.79762,-1.5125 -3.65398,-2.75 -4.12525,-2.75 -0.47127,0 -0.99925,1.2375 -1.17328,2.75 -0.44105,3.83313 -4.2767,3.92752 -14.11127,0.34728 z m 75.79485,-3.42562 c 3.85,-0.90031 8.81237,-1.64475 11.02749,-1.6543 2.21513,-0.01 5.01275,-0.70746 6.21695,-1.55091 1.2042,-0.84346 3.66683,-1.43463 5.47251,-1.31372 4.45058,0.29802 9.43212,-4.07142 7.90179,-6.93087 -1.27284,-2.37832 0.29097,-4.22186 3.58126,-4.22186 1.265,0 2.3,-0.34329 2.3,-0.76287 0,-0.41958 0.85686,-1.20708 1.90413,-1.75 1.04728,-0.54292 3.52334,-2.27885 5.50236,-3.85762 2.62413,-2.0934 3.93915,-2.58754 4.85757,-1.82532 1.1444,0.94977 4.27739,0.55879 11.58088,-1.44524 0.73972,-0.20297 1.5797,-1.26677 1.86663,-2.364 0.29507,-1.12833 1.36433,-1.99495 2.46143,-1.99495 2.36997,0 7.827,-5.75942 7.827,-8.26071 0,-1.3831 0.65438,-1.74649 2.75,-1.52714 2.3262,0.24349 2.71329,-0.0589 2.51179,-1.96215 -0.14423,-1.36231 0.30672,-2.25 1.14301,-2.25 1.85585,0 2.93601,-3.06442 1.557,-4.41722 -0.79598,-0.78085 -1.64167,-0.42448 -3.03278,1.278 -2.285,2.79645 -2.52604,1.51859 -0.46347,-2.45702 1.41612,-2.72957 1.34442,-2.93581 -2.12569,-6.11431 -2.06228,-1.88898 -4.65826,-3.28945 -6.09748,-3.28945 -2.64557,0 -9.24238,-6.04139 -9.24238,-8.46421 0,-1.63149 -2.21046,-2.53579 -6.19842,-2.53579 -2.54251,0 -2.95,-0.32445 -2.51183,-2 0.44742,-1.71094 0.0307,-2 -2.88337,-2 -2.00588,0 -3.44689,-0.51392 -3.50492,-1.25 -0.0542,-0.6875 -0.1667,-2.375 -0.25,-3.75 -0.15673,-2.58692 -1.24653,-2.90697 -5.39517,-1.58447 -1.74287,0.5556 -2.11631,0.38327 -1.67299,-0.772 0.8189,-2.13403 -0.96429,-4.97346 -6.88442,-10.96228 -5.23474,-5.29548 -9.17951,-7.68125 -12.70062,-7.68125 -1.43273,0 -2.05464,0.93355 -2.49813,3.75 -1.05198,6.68069 -2.916,15.30884 -3.46497,16.0386 -0.29434,0.39127 -3.99038,2.52339 -8.21344,4.73806 -6.13629,3.218 -11.1569,7.33643 -25,20.50761 -9.52694,9.06452 -18.55922,17.44229 -20.07172,18.61726 -1.5125,1.17497 -2.75,2.85905 -2.75,3.74239 0,0.88334 -0.80996,1.60608 -1.79991,1.60608 -1.55733,0 -1.81514,0.97715 -1.91288,7.25 -0.0621,3.9875 0.29071,7.73752 0.78408,8.33337 0.54739,0.66111 0.15616,3.1946 -1.00377,6.5 -1.38078,3.93477 -2.47075,5.50405 -3.98416,5.73618 -1.28132,0.19653 -2.08336,1.06272 -2.08336,2.25 0,2.48502 2.19803,2.4741 4.45709,-0.0221 1.32764,-1.46703 2.54739,-1.80505 4.90499,-1.35929 1.72585,0.32631 3.66376,1.00465 4.30645,1.50741 0.64269,0.50277 3.47637,0.96669 6.29707,1.03094 2.8207,0.0643 5.34094,0.4605 5.60055,0.88055 0.8113,1.31271 21.59041,0.28188 28.93385,-1.43537 z m -68.63466,-1.22269 c 0.31608,-1.6311 0.14754,-1.70455 -1.25,-0.54469 -1.91126,1.5862 -2.14923,3.44015 -0.36534,2.84619 0.6875,-0.22891 1.4144,-1.26459 1.61534,-2.3015 z m -9.92334,-2.20092 2.16358,-1.75196 -2.28756,-4.17625 c -2.00919,-3.66804 -2.67805,-4.15126 -5.49654,-3.97095 -4.73929,0.30318 -5.04067,1.31388 -1.48554,4.98184 1.75957,1.81542 2.92125,3.57874 2.58151,3.91849 -0.74648,0.74647 0.3689,2.75078 1.53078,2.75078 0.45661,0 1.80381,-0.78838 2.99377,-1.75195 z m 126.8705,-16.18555 c 0.25,-0.75 -0.125,-1.125 -0.875,-0.875 -0.72187,0.24063 -1.50937,1.02813 -1.75,1.75 -0.25,0.75 0.125,1.125 0.875,0.875 0.72187,-0.24063 1.50937,-1.02813 1.75,-1.75 z m -83.3125,-34.31586 c 5.89991,-2.08585 9.52758,-4.25812 13.82672,-8.27951 1.19531,-1.11807 3.40893,-2.81473 4.91916,-3.77035 1.51023,-0.95562 4.10124,-4.31583 5.75779,-7.46713 1.65655,-3.15131 3.5709,-6.57501 4.25412,-7.60822 0.99075,-1.49829 0.98917,-1.97063 -0.008,-2.33333 -0.6875,-0.25012 -1.25,-1.14041 -1.25,-1.97842 0,-0.93137 0.57282,-1.30385 1.47355,-0.9582 0.81046,0.311 1.89191,-0.1821 2.40323,-1.09578 0.73606,-1.31527 1.22838,-1.41331 2.36406,-0.47078 1.15571,0.95915 1.63117,0.7557 2.44723,-1.04724 2.16564,-4.78457 3.11273,-8.74276 2.22343,-9.29237 -1.33384,-0.82436 -2.9115,0.42456 -2.9115,2.30484 0,1.41821 -0.17381,1.39441 -1.3262,-0.18157 -0.95299,-1.3033 -1.96743,-1.61016 -3.60486,-1.09046 -1.88768,0.59913 -2.17917,1.22071 -1.69881,3.62255 0.90794,4.53969 -1.7202,3.60056 -4.47945,-1.60067 -2.40475,-4.53299 -4.1261,-5.54613 -5.53896,-3.26008 -0.9262,1.49862 -2.10408,-2.16173 -2.25204,-6.99839 -0.091,-2.97504 -0.26969,-3.1523 -2.0542,-2.03786 -2.51225,1.56893 -3.823,0.27098 -2.25763,-2.23558 1.76911,-2.83279 1.49032,-5.29238 -0.88941,-7.84673 -1.65023,-1.77131 -1.97539,-3.04668 -1.51407,-5.93856 2.19154,-13.73791 2.35802,-17.57483 1.03661,-23.8905 -0.75169,-3.59267 -2.03001,-7.04066 -2.84072,-7.66221 -1.32046,-1.01252 -6.58005,-10.588 -6.58005,-11.97986 0,-0.30763 -1.0125,-1.65316 -2.25,-2.99007 -3.04112,-3.28542 -6.75,-9.4674 -6.75,-11.25094 0,-0.79865 -1.02799,-1.92048 -2.28443,-2.49295 -2.26552,-1.03224 -6.74873,-9.11169 -7.722,-13.91627 -0.34949,-1.72525 -1.27919,-2.60717 -3,-2.84582 -1.37146,-0.1902 -3.07865,-0.82654 -3.79376,-1.4141 -1.82669,-1.50086 -4.10039,1.00277 -5.33018,5.86921 -0.54076,2.13989 -1.44938,5.69071 -2.01914,7.89071 -1.50545,5.81294 0.99922,32.41572 3.29057,34.95 1.34,1.48206 1.01289,4.2532 -0.70482,5.9709 -1.58955,1.58955 -1.0688,4.08808 0.63286,3.03639 0.51199,-0.31643 0.9309,0.26523 0.9309,1.29256 0,1.02734 0.66069,2.7414 1.4682,3.80902 1.01427,1.34099 1.47803,4.54916 1.5,10.37668 0.0256,6.80417 0.39312,8.8348 1.90011,10.5 2.0124,2.22367 3.51069,10.33318 2.27771,12.32818 -0.41432,0.6704 -0.46092,3.81031 -0.10355,6.97759 0.49338,4.37265 0.23198,6.72142 -1.08606,9.75868 -4.37727,10.08692 -5.97231,21.3006 -3.55465,24.99041 0.87903,1.34157 1.59824,3.77441 1.59824,5.40631 0,2.09886 0.80854,3.54282 2.7631,4.93459 5.07485,3.61362 10.33695,3.59213 20.7369,-0.0847 z m 38.47104,-23.70758 c 0.80907,-0.51167 1.13586,-1.2655 0.72619,-1.67516 -0.40967,-0.40967 -1.50556,0.0159 -2.43533,0.94562 -1.80738,1.80739 -0.72543,2.26921 1.70914,0.72954 z m 8.7192,-12.88426 c 0.42393,-5.05662 0.26405,-7.1548 -0.5452,-7.1548 -0.70347,0 -1.14504,1.88 -1.14504,4.875 0,2.68125 -0.28451,6.39375 -0.63224,8.25 -0.48012,2.56297 -0.34894,3.11149 0.54521,2.2798 0.64759,-0.60237 1.44736,-4.31487 1.77727,-8.25 z m -32.91941,-29.3423 c -0.61807,-1.85422 -2.77083,-2.16176 -2.77083,-0.39583 0,0.87083 0.7125,1.58333 1.58333,1.58333 0.87084,0 1.40521,-0.53438 1.1875,-1.1875 z m -209.52083,-44.59279 c -2.3375,-0.89816 -4.25,-2.18584 -4.25,-2.86151 0,-0.67567 1.76519,-2.49518 3.92264,-4.04335 2.32881,-1.67113 4.14053,-3.89954 4.45891,-5.48442 0.6175,-3.07389 4.36812,-4.8336 5.72798,-2.68744 1.56684,2.47279 0.92607,3.94864 -2.18529,5.03327 -2.19493,0.76515 -2.76769,1.38029 -2,2.14798 0.59167,0.59167 1.07576,2.33576 1.07576,3.87576 0,2.10495 0.48181,2.8 1.94098,2.8 1.06754,0 2.19988,0.41891 2.51631,0.9309 0.91365,1.47831 -1.40331,2.35879 -2.91207,1.10663 -0.93983,-0.77999 -1.56972,-0.8069 -2.01521,-0.0861 -0.8058,1.30381 -1.05928,1.27428 -6.28001,-0.73173 z m 12.26008,-5.2034 c -0.34546,-0.55897 0.0734,-1.01631 0.9309,-1.01631 1.75653,0 2.01516,0.60006 0.62812,1.45729 -0.512,0.31644 -1.21356,0.11799 -1.55902,-0.44098 z m -23.09944,-9.51631 c 0.50833,-2.02532 0.25788,-2.5 -1.31901,-2.5 -2.10215,0 -6.09163,-4.37866 -6.09163,-6.68589 0,-0.77889 1.575,-2.07424 3.5,-2.87856 2.66955,-1.11541 3.5,-2.05238 3.5,-3.94897 0,-1.40483 0.57974,-2.48658 1.33264,-2.48658 1.92184,0 7.66736,7.4988 7.66736,10.0071 0,1.16841 0.45006,2.96534 1.00014,3.99317 0.65607,1.22587 0.66459,2.75136 0.0248,4.43426 -0.85339,2.24447 -1.55516,2.56547 -5.6086,2.56547 -4.44269,0 -4.60736,-0.10277 -4.0057,-2.5 z m 13.58936,-121 c -0.68469,-0.825 -2.04703,-1.5 -3.02742,-1.5 -2.2354,0 -7.21136,-8.21417 -6.34447,-10.47326 1.03332,-2.69279 3.75007,-1.2622 5.85354,3.08239 1.9315,3.98938 2.09602,4.08508 6.5,3.78121 3.5227,-0.24307 3.85728,-0.15299 1.51835,0.40877 -2.08704,0.50126 -3,1.32619 -3,2.71071 0,1.12337 0.5768,1.8705 1.32433,1.7154 0.72838,-0.15112 1.03932,0.18638 0.69098,0.75 -0.88716,1.43546 -2.06132,1.27673 -3.51531,-0.47522 z m 20,-4.83138 c 0,-2.55775 -2.12621,-2.93166 -6.43446,-1.13156 -2.71591,1.13478 -4.13926,1.28922 -4.89714,0.53134 -0.75787,-0.75787 -0.27342,-1.0684 1.66678,-1.0684 1.50435,0 3.78095,-0.68521 5.0591,-1.52269 1.27815,-0.83747 3.02752,-1.25268 3.8875,-0.92268 2.06058,0.79072 3.05093,3.51266 1.751,4.81259 -0.71037,0.71037 -1.03278,0.49229 -1.03278,-0.6986 z"
         id="path11125"
         inkscape:connector-curvature="0" />
      <path
         style="fill:#002850"
         d="m -104.61041,-189.13541 c -1.375,-0.46964 -3.90812,-0.89875 -5.62916,-0.95357 -5.09262,-0.16223 -14.38841,-4.94609 -16.24099,-8.35805 -0.89642,-1.65095 -4.00312,-5.75571 -6.90377,-9.12168 -3.07532,-3.56865 -5.71506,-7.78748 -6.33209,-10.11995 -0.58199,-2.2 -1.92122,-6.2587 -2.97607,-9.01933 -1.05486,-2.76063 -1.91792,-5.42519 -1.91792,-5.92126 0,-0.49606 -0.59504,-1.61236 -1.32231,-2.48067 -1.69985,-2.02948 -3.42747,-8.17407 -4.16073,-14.79833 -0.75797,-6.84741 0.99435,-8.71268 9.07702,-9.66216 3.24831,-0.38159 8.38102,-1.31023 11.40602,-2.06365 5.43312,-1.35319 33.1984,-2.83272 56.5,-3.0107 13.86126,-0.10588 16.21065,-0.64545 22.95415,-5.27169 2.92386,-2.00585 5.71582,-3.19952 6.8127,-2.91268 2.50714,0.65563 8.42751,-1.91992 9.64574,-4.19621 0.5416,-1.01198 0.73035,-2.81273 0.41944,-4.00165 -0.31091,-1.18892 -0.11159,-2.16167 0.44293,-2.16167 0.55452,0 1.29058,-1.125 1.63568,-2.5 0.72175,-2.87565 2.58936,-3.38054 2.58936,-0.7 0,3.34408 1.74256,3.97381 7.1295,2.57645 4.391,-1.13901 5.35713,-1.1037 7.45751,0.27252 1.32715,0.86958 2.41299,2.05636 2.41299,2.6373 0,0.58094 0.61314,1.76668 1.36253,2.63499 0.80811,0.93635 1.83746,6.46152 2.52973,13.57874 1.35338,13.91397 0.37894,19.44492 -4.70222,26.69013 -1.66241,2.37043 -4.74775,6.96765 -6.8563,10.21604 -4.0324,6.21222 -13.55897,16.30248 -21.88594,23.18094 -6.95732,5.74706 -13.60409,8.98658 -23.4478,11.42807 -4.675,1.15951 -9.85,2.49777 -11.5,2.97391 -4.39563,1.26844 -25.58546,2.05964 -28.5,1.06416 z m 42.5,-9.06948 c 3.3,-1.53286 8.16986,-3.78709 10.8219,-5.00941 2.91712,-1.34448 5.17875,-3.16097 5.72525,-4.59837 0.49684,-1.3068 1.2642,-2.37599 1.70524,-2.37599 0.44104,0 2.27365,-1.34424 4.07246,-2.98721 2.81639,-2.57237 3.18482,-3.44432 2.65306,-6.27886 -0.73816,-3.93473 3.20104,-12.65508 7.676,-16.99263 4.1635,-4.03565 3.80269,-10.04395 -0.65391,-10.88931 -2.53902,-0.48163 -2.63521,-3.34891 -0.1124,-3.35067 2.98906,-0.002 4.16082,-2.76311 2.68487,-6.32636 l -1.26812,-3.06152 -16.15218,0.0519 c -8.88369,0.0285 -17.72717,-0.18521 -19.65217,-0.47487 -10.84905,-1.63254 -18.9094,-2.39697 -22,-2.08645 -1.925,0.19341 -11.375,0.55634 -21,0.8065 -13.86013,0.36024 -18.5926,0.85081 -22.75309,2.35858 -2.8892,1.04706 -5.5517,2.20235 -5.91666,2.56732 -0.36497,0.36497 -2.17771,0.66358 -4.0283,0.66358 -3.74765,0 -5.28278,2.11324 -3.28436,4.5212 0.74855,0.90194 1.01759,2.87456 0.67772,4.96894 -0.30999,1.91027 -0.12651,3.74336 0.40773,4.07354 1.17271,0.72478 5.89696,10.32924 5.89696,11.98861 0,0.6479 0.81482,2.25118 1.81071,3.56285 0.9959,1.31167 2.38645,4.37243 3.09013,6.80169 0.93338,3.22224 3.14829,6.30059 8.18929,11.38173 3.80043,3.8307 6.90987,7.53248 6.90987,8.22618 0,1.46589 2.2082,2.47526 5.41512,2.47526 1.23835,0 2.58515,0.3375 2.99288,0.75 1.77174,1.79245 13.08907,2.85702 26.092,2.45434 12.71545,-0.39377 14.55052,-0.68927 20,-3.22057 z m -45.81648,-88.47653 c -3.87616,-2.01712 -5.21738,-2.2919 -6.86995,-1.40747 -1.65233,0.8843 -2.60816,0.68888 -4.89302,-1.00039 -1.56176,-1.15466 -3.39128,-2.09938 -4.06561,-2.09938 -0.67432,0 -2.30742,-1.0125 -3.6291,-2.25 l -2.40307,-2.25 -2.19895,2.75 c -2.86362,3.58123 -3.97338,3.46933 -7.1711,-0.7231 -1.76706,-2.31674 -3.78985,-3.68712 -6.07536,-4.11588 -1.88445,-0.35353 -4.05431,-1.53942 -4.8219,-2.63531 -0.7676,-1.09589 -1.86328,-1.7035 -2.43487,-1.35024 -1.52908,0.94503 -5.12059,-1.62626 -5.12059,-3.66602 0,-0.9677 -0.675,-1.75945 -1.5,-1.75945 -0.825,0 -1.5,-0.70532 -1.5,-1.56739 0,-1.06986 0.58714,-1.38103 1.84969,-0.98032 1.4342,0.4552 2.05194,-0.11808 2.75,-2.55211 1.18159,-4.11995 2.60274,-4.17675 3.75754,-0.15018 1.15794,4.0375 2.04862,4.09863 3.64277,0.25 1.5142,-3.65561 2.74189,-3.80908 4,-0.5 1.05257,2.76846 3.14021,3.24091 4.90809,1.11074 1.54146,-1.85735 6.27971,-2.69163 7.86067,-1.38407 0.91361,0.75562 1.79592,0.57228 3.15204,-0.65499 1.0358,-0.93739 2.48986,-1.60352 3.23124,-1.48029 0.74138,0.12323 2.02296,-0.0644 2.84796,-0.417 7.58663,-3.24227 19.97861,-6.67439 24.09845,-6.67439 1.65048,0 4.30673,-0.67528 5.90277,-1.50063 2.31217,-1.19567 3.41981,-1.26466 5.45034,-0.33949 1.93417,0.88127 3.16238,0.88142 5.09549,6.4e-4 1.40088,-0.63829 4.25436,-1.16052 6.34107,-1.16052 2.08671,0 6.00304,-0.67013 8.70295,-1.48918 2.69991,-0.81904 6.11987,-1.49404 7.59991,-1.5 1.48004,-0.006 2.99583,-0.50407 3.36842,-1.10694 0.67831,-1.09751 2.72969,-0.90692 9.62933,0.89468 3.88798,1.01521 4.81127,0.30137 4.81127,-3.71983 0,-1.78851 3.77236,-4.07873 6.71831,-4.07873 0.89332,0 2.47436,0.76938 3.51344,1.70973 1.80227,1.63104 2.00933,1.55626 4.49879,-1.62468 2.54014,-3.24569 2.7599,-3.3187 8.25936,-2.74389 3.10739,0.32478 6.96836,1.27812 8.57995,2.11852 1.61158,0.8404 3.92699,1.53077 5.14535,1.53416 1.21837,0.003 3.80587,1.40278 5.75,3.10975 2.83662,2.49059 3.53358,3.82382 3.52864,6.75 -0.003,2.00553 -0.67839,4.93535 -1.5,6.51072 -0.82161,1.57537 -1.49384,3.46892 -1.49384,4.20789 0,0.73897 -1.73032,3.16253 -3.84516,5.38569 -2.72761,2.86731 -4.66879,4.04211 -6.67901,4.04211 -1.55861,0 -4.39141,0.5625 -6.29512,1.25 -3.1151,1.12498 -3.57228,1.05641 -4.571,-0.68555 -2.09827,-3.6598 -5.90614,-6.56445 -8.60569,-6.56445 -1.5082,0 -4.59188,1.43722 -6.97315,3.25 -2.34806,1.7875 -5.67808,4.15 -7.40004,5.25 -1.72195,1.1 -5.11085,3.4625 -7.53087,5.25 -5.29909,3.91407 -10.12757,4.34709 -12.28255,1.10152 -2.06224,-3.1059 -6.91899,-1.40498 -8.35226,2.9251 -1.43262,4.32813 -2.0979,4.75789 -4.9787,3.21613 -2.24808,-1.20314 -3.26721,-1.0186 -9.74849,1.76516 -10.37887,4.45781 -15.99388,4.90319 -22.05444,1.74933 z m 8.63222,-2.75104 c 1.20134,-0.68409 3.53426,-1.30427 5.18426,-1.37819 3.58049,-0.16041 8.70159,-2.07415 13.5,-5.04491 5.96558,-3.69338 17.21655,-9.3331 18.6191,-9.3331 0.73414,0 2.07192,-1.125 2.97286,-2.5 1.13502,-1.73226 2.54472,-2.5 4.59044,-2.5 2.32586,0 2.8517,-0.37136 2.47793,-1.75 -1.7504,-6.45643 -1.71311,-7.07656 0.39246,-6.52594 2.12951,0.55688 6.94721,-3.05328 6.94721,-5.20593 0,-1.06313 -6.57292,-4.51813 -8.59547,-4.51813 -0.50789,0 -1.49649,0.91761 -2.1969,2.03914 -1.03911,1.66389 -1.91149,1.91944 -4.74055,1.38871 -2.26639,-0.42518 -3.46708,-0.26558 -3.46708,0.46086 0,0.7215 -2.77762,1.11129 -7.91896,1.11129 -5.66866,0 -8.77272,0.48999 -10.9234,1.72431 -2.84432,1.63242 -3.10598,1.63242 -4.90978,0 -2.52164,-2.28205 -3.47138,-2.17974 -6.14059,0.66151 -1.9973,2.12603 -2.61576,2.27092 -5.67956,1.33061 -2.9548,-0.90685 -3.75379,-0.76862 -5.68295,0.98321 -1.37513,1.24873 -4.26127,2.26255 -7.44993,2.61697 -8.96735,0.9967 -11.70637,4.10531 -10.15922,11.53004 1.04922,5.03518 4.37582,8.09255 8.21439,7.5496 3.35329,-0.47431 7.27982,2.17503 9.57242,6.45879 1.32028,2.46696 2.34338,2.63791 5.39332,0.90116 z m -33.70892,-12.35762 c 2.00543,-4.79967 1.50105,-9.76687 -1.04072,-10.24913 -3.93426,-0.74647 -6.18543,7.28472 -3.32555,11.86412 1.76046,2.81895 2.65133,2.48944 4.36627,-1.61499 z m 7.39318,-3.98191 c 0,-5.53096 -0.33084,-7.47306 -1.22242,-7.17586 -2.49099,0.83033 -3.72242,11.41435 -1.57758,13.55919 2.29778,2.29778 2.8,1.15284 2.8,-6.38333 z m -20.33583,1.15055 c -0.33077,-0.86197 -1.06552,-1.56722 -1.63279,-1.56722 -1.1505,0 -1.41332,3.28473 -0.34805,4.35 1.09781,1.0978 2.63907,-1.06745 1.98084,-2.78278 z m -7,-3 c -0.33077,-0.86197 -1.06552,-1.56722 -1.63279,-1.56722 -1.1505,0 -1.41332,3.28473 -0.34805,4.35 1.09781,1.0978 2.63907,-1.06745 1.98084,-2.78278 z m 117.53583,-9.76722 c -0.93333,-0.93333 -1.46667,-0.93333 -2.4,0 -0.93333,0.93333 -0.66667,1.2 1.2,1.2 1.86667,0 2.13333,-0.26667 1.2,-1.2 z m 2.62332,-4.13287 c 0.18707,-0.96457 -0.31483,-1.66713 -1.19098,-1.66713 -1.85773,0 -2.97896,1.63015 -2.09972,3.05279 0.90454,1.46356 2.90118,0.62281 3.2907,-1.38566 z m 5.17668,-1.20617 c 0,-0.71178 1.18158,-2.15487 2.62574,-3.20687 1.87692,-1.36723 2.7102,-2.97715 2.92189,-5.64514 l 0.29615,-3.73243 -2.37414,2.56174 c -1.30578,1.40896 -3.2234,2.56174 -4.26138,2.56174 -2.81134,0 -4.36027,4.13701 -2.9489,7.87615 0.87711,2.32375 1.44848,2.78128 2.44277,1.95609 0.71383,-0.59242 1.29787,-1.6595 1.29787,-2.37128 z m -6,-4.76983 c 0,-2.39251 -2.63482,-5.04524 -4.35539,-4.38499 -2.06575,0.7927 -2.08907,2.10654 -0.0732,4.12243 1.90869,1.90869 4.42857,2.05809 4.42857,0.26256 z m -128,11.80887 c 0,-0.91667 0.5625,-1.47917 1.25,-1.25 1.41567,0.47189 1.26005,2.07998 -0.25,2.58333 -0.55,0.18334 -1,-0.41666 -1,-1.33333 z m 28,-25.11111 c -18.71769,-8.85718 -21.64148,-11.19175 -20.50376,-16.37177 0.90474,-4.11926 5.60648,-9.40482 11.39091,-12.80534 3.98578,-2.34314 5.74431,-2.71946 12.93603,-2.76826 8.06783,-0.0548 8.39666,-0.15039 10.71851,-3.11716 1.69039,-2.15992 3.57517,-3.24934 6.40429,-3.70173 3.01832,-0.48265 5.88072,-2.27351 11.58367,-7.24733 4.1661,-3.63344 7.42002,-6.76096 7.23095,-6.95003 -0.18907,-0.18907 -3.02505,0.35534 -6.30218,1.2098 -3.27713,0.85446 -7.42289,1.51079 -9.21279,1.4585 -4.55358,-0.13301 -12.68413,-4.28155 -15.97642,-8.15183 -7.43982,-8.74594 -7.66885,-10.76216 -3.26921,-28.77938 2.24112,-9.17775 2.99507,-14.61001 2.98049,-21.47491 -0.023,-10.85827 -2.33918,-31.91595 -4.36545,-39.68945 -4.26134,-16.34813 -4.75993,-48.35848 -0.92245,-59.22399 1.9613,-5.55328 4.89437,-9.07033 8.61876,-10.33477 2.84676,-0.96648 7.89916,3.18597 13.81007,11.35018 11.17032,15.42858 13.77267,18.78693 16.69616,21.54654 11.84176,11.17796 16.21408,15.98963 16.73019,18.41133 0.32243,1.51289 2.66169,8.79833 5.19835,16.18986 4.02532,11.72927 5.19369,14.04141 9.183,18.17266 2.51399,2.60343 5.92088,5.05237 7.57088,5.44209 3.41027,0.80548 7.5,4.14293 7.5,6.12041 0,0.75936 1.10538,1.32569 2.58752,1.32569 2.73235,0 14.37206,6.04144 16.43972,8.53283 0.66971,0.80694 1.81136,1.46717 2.53701,1.46717 0.72565,0 3.89191,2.25118 7.03614,5.00262 3.14422,2.75144 8.5868,6.60763 12.09462,8.56931 3.50781,1.96168 7.66869,4.773 9.24639,6.24738 1.57771,1.47438 4.59881,3.69706 6.71358,4.93929 2.11476,1.24223 7.33517,4.44699 11.6009,7.12169 4.26573,2.67469 9.89073,5.43691 12.5,6.13825 2.60927,0.70135 5.86912,2.29788 7.24412,3.54785 1.375,1.24997 4.975,3.36112 8,4.69145 3.025,1.33033 6.06852,3.1074 6.76338,3.94905 0.69485,0.84165 2.13164,4.83742 3.19285,8.87949 1.91707,7.30199 1.91654,7.38923 -0.0824,13.57668 -2.08793,6.46285 -6.84258,14.00398 -9.46357,15.00975 -0.83017,0.31857 -2.55764,2.12184 -3.83882,4.00726 -3.84406,5.65705 -8.04909,8.19968 -12.56007,7.59463 -2.93072,-0.39309 -4.78022,0.0374 -7.57084,1.76206 -3.99218,2.4673 -4.38293,2.39188 -13.44052,-2.59409 -1.375,-0.75691 -4.441,-2.39466 -6.81333,-3.63947 l -4.31334,-2.26327 -6.18666,2.35864 c -3.40268,1.29726 -10.01168,3.37558 -14.68668,4.61849 -4.675,1.24291 -10.358,2.94585 -12.62889,3.7843 -2.2709,0.83846 -6.7709,1.8245 -10,2.1912 -3.22911,0.36671 -12.94116,1.55118 -21.58234,2.63217 -8.64118,1.08098 -20.34118,1.88228 -26,1.78066 -9.99794,-0.17954 -24.10646,0.45822 -34.28877,1.54998 -4.04234,0.43342 -6.05343,0.0376 -10.5,-2.06648 z m 12.81642,-3.63889 c 0.17403,-1.5125 0.70201,-2.75 1.17328,-2.75 0.47127,0 2.32763,1.2375 4.12525,2.75 2.902,2.44171 3.89153,2.70198 8.82673,2.32169 6.93166,-0.53413 13.67299,-0.59445 22.05832,-0.19739 6.19464,0.29333 16.54772,-0.62111 33,-2.91471 13.81236,-1.92558 17.75872,-2.79634 22.0334,-4.86164 2.33689,-1.12906 6.99788,-2.57902 10.35775,-3.22212 3.35987,-0.64311 7.89809,-2.06431 10.08494,-3.15822 5.32626,-2.66433 14.88309,-3.78432 20.3278,-2.38226 3.55887,0.91644 4.46231,0.85351 5.21903,-0.36353 0.50332,-0.8095 1.71657,-1.49778 2.69611,-1.5295 3.73608,-0.121 7.94648,-1.8451 12.41495,-5.08373 2.54868,-1.84722 5.47368,-3.36083 6.5,-3.36356 2.30196,-0.006 6.34866,-3.27576 10.25752,-8.28782 2.42673,-3.11163 2.89457,-4.54838 2.60497,-8 -0.45153,-5.38152 -1.36679,-7.64227 -4.66703,-11.52772 -2.92696,-3.44599 -13.41768,-10.17283 -15.87123,-10.17692 -0.84799,-0.001 -3.54799,-2.04757 -6,-4.547 -2.45202,-2.49944 -6.70821,-5.842 -9.45821,-7.4279 -2.75,-1.58591 -7.36181,-5.05341 -10.24846,-7.70557 -2.88665,-2.65215 -8.73665,-6.58868 -13,-8.74783 -4.26335,-2.15915 -9.55154,-5.4615 -11.75154,-7.33855 -5.96188,-5.08672 -17.36413,-13.05782 -19.77148,-13.82188 -1.57272,-0.49916 -2.65594,0.0115 -4.24097,1.99932 l -2.12876,2.66971 -1.22727,-2.69356 c -0.92621,-2.03281 -1.50989,-2.41094 -2.37939,-1.54144 -2.0249,2.0249 -3.58165,1.26027 -6.71949,-3.30043 -1.6849,-2.44891 -4.33307,-5.20255 -5.88483,-6.1192 -1.55176,-0.91665 -3.52775,-3.07549 -4.3911,-4.79744 -5.42839,-10.82697 -7.75671,-16.68535 -7.75671,-19.51701 0,-1.77548 -0.42403,-5.11492 -0.94228,-7.42097 -0.51826,-2.30605 -1.20807,-5.45519 -1.53293,-6.99809 -0.35128,-1.66843 -4.52851,-6.99084 -10.30771,-13.13357 -5.3444,-5.68056 -13.31708,-15.37436 -17.71708,-21.54177 -7.80801,-10.94437 -11.81405,-15.01939 -14.76513,-15.01939 -1.73557,0 -9.49227,11.6673 -10.80899,16.25843 -1.98877,6.93445 0.29661,40.84368 3.21764,47.74157 1.22005,2.88111 4.30922,20.99512 6.02494,35.32858 0.96101,8.02848 0.92791,10.501 -0.18072,13.5 -0.74647,2.01928 -1.67216,5.69642 -2.0571,8.17142 -0.38494,2.475 -1.16532,5.85 -1.73417,7.5 -3.00282,8.70984 -3.24665,12.29865 -1.1901,17.51616 2.95466,7.49604 4.68586,9.65644 9.6724,12.07038 3.7208,1.80121 5.59905,2.08335 10.69894,1.60711 3.40222,-0.3177 8.34635,-1.50374 10.98697,-2.63565 10.35407,-4.43827 10.1969,-1.56173 -0.41202,7.54048 -8.79021,7.54182 -12.12514,9.88235 -16.26974,11.41853 l -4.18292,1.55037 0.2251,9.46631 c 0.31348,13.18297 -2.27813,18.49076 -6.95972,14.25398 -1.52264,-1.37797 -1.81651,-2.56648 -1.35233,-5.46929 1.49067,-9.32212 -9.92246,-12.33722 -22.41305,-5.92103 -0.825,0.42378 -2.4,2.41527 -3.5,4.42553 -2.25107,4.11385 -1.58617,6.27395 2.58112,8.38548 1.31165,0.6646 2.9348,1.96051 3.607,2.8798 1.62642,2.22426 16.02095,7.40415 19.81188,7.12933 2.46381,-0.17862 3.05655,-0.70899 3.31642,-2.96749 z m 63.44548,-81.44048 c 0.92977,-0.92976 2.02566,-1.35529 2.43533,-0.94562 0.40967,0.40966 0.0829,1.16349 -0.72619,1.67516 -2.43457,1.53967 -3.51652,1.07785 -1.70914,-0.72954 z m 8.10586,-6.18452 c 0.34773,-1.85625 0.63224,-5.56875 0.63224,-8.25 0,-2.995 0.44157,-4.875 1.14504,-4.875 1.51739,0 0.40727,13.87995 -1.23207,15.4048 -0.89415,0.83169 -1.02533,0.28317 -0.54521,-2.2798 z m -223.36776,-51.18796 c -4.125,-1.02028 -8.63325,-1.8735 -10.01833,-1.89605 -1.42663,-0.0232 -4.65109,-1.8034 -7.43818,-4.10652 -2.70592,-2.23604 -5.7047,-4.48556 -6.66395,-4.99894 -0.95925,-0.51337 -2.00152,-1.72138 -2.31614,-2.68447 -0.51513,-1.57679 -2.41957,-3.12968 -10.29692,-8.3961 -1.35333,-0.90477 -3.321,-3.05985 -4.3726,-4.78907 -1.05161,-1.72922 -3.41184,-4.02896 -5.24496,-5.11053 -3.44387,-2.03193 -5.64892,-5.5654 -5.64892,-9.05207 0,-2.48041 -2.56961,-7.67627 -5.24331,-10.60222 -1.39475,-1.52633 -1.84757,-3.04534 -1.4804,-4.96606 0.35182,-1.84044 -0.10821,-3.57716 -1.37366,-5.18593 -2.23702,-2.8439 -2.43324,-5.92927 -0.5518,-8.67657 0.74296,-1.08488 1.6265,-4.0527 1.96342,-6.59516 1.02961,-7.76962 2.44786,-9.87735 6.64627,-9.87735 2.00171,0 4.09722,0.45774 4.65669,1.01721 0.55946,0.55946 4.81196,1.28777 9.45,1.61846 4.63803,0.33069 9.43695,1.22786 10.66426,1.99371 1.57681,0.98393 3.81106,1.2068 7.61565,0.75964 6.53219,-0.76773 12.00883,0.79516 16.15288,4.60961 1.65,1.51876 4.0125,3.28121 5.25,3.91656 1.38644,0.71181 2.25,2.07533 2.25,3.55261 0,1.48861 0.73024,2.62919 1.92634,3.00882 1.7467,0.55438 6.66994,9.50852 8.61843,15.67476 0.40818,1.29174 1.57759,2.93664 2.59869,3.65532 1.0211,0.71869 1.85654,1.91406 1.85654,2.65638 0,0.8054 0.72304,1.1606 1.79297,0.88081 1.54686,-0.40452 1.81082,0.26031 1.92311,4.84362 0.0716,2.92187 0.62471,6.60552 1.22919,8.18589 2.06733,5.40487 -2.38587,20.72052 -6.95532,23.92109 -1.07256,0.75125 -2.64011,3.01732 -3.48345,5.03571 -1.78532,4.27288 -2.42164,4.34858 -13.5065,1.60684 z m -10.46999,-27.9856 c 0.44549,-0.72081 1.07538,-0.6939 2.01521,0.0861 1.50876,1.25216 3.82572,0.37168 2.91207,-1.10663 -0.31643,-0.512 -1.44877,-0.93091 -2.51631,-0.93091 -1.45917,0 -1.94098,-0.69505 -1.94098,-2.8 0,-1.54 -0.48409,-3.28409 -1.07576,-3.87576 -0.76769,-0.76769 -0.19493,-1.38283 2,-2.14798 3.11136,-1.08463 3.75213,-2.56048 2.18529,-5.03327 -1.35986,-2.14616 -5.11048,-0.38645 -5.72798,2.68744 -0.31838,1.58488 -2.1301,3.81329 -4.45891,5.48442 -2.15745,1.54817 -3.92264,3.36768 -3.92264,4.04335 0,0.67567 1.9125,1.96335 4.25,2.86151 5.22073,2.00601 5.47421,2.03554 6.28001,0.73173 z m 8.46999,-6.51046 c 0,-0.24254 -0.70156,-0.44098 -1.55902,-0.44098 -0.85746,0 -1.27636,0.45734 -0.9309,1.01631 0.57081,0.92358 2.48992,0.48015 2.48992,-0.57533 z m -15.97511,-9.00645 c 0.63984,-1.6829 0.63132,-3.20839 -0.0248,-4.43426 -0.55003,-1.02783 -1.00009,-2.82476 -1.00009,-3.99317 0,-2.5083 -5.74552,-10.0071 -7.66736,-10.0071 -0.7529,0 -1.33264,1.08175 -1.33264,2.48658 0,1.89659 -0.83045,2.83356 -3.5,3.94897 -1.925,0.80432 -3.5,2.09967 -3.5,2.87856 0,2.30723 3.98948,6.68589 6.09163,6.68589 1.57689,0 1.82734,0.47468 1.31901,2.5 -0.60166,2.39723 -0.43699,2.5 4.0057,2.5 4.05344,0 4.75521,-0.321 5.60855,-2.56547 z m -1.18536,-119.6537 c -4.74748,-1.99361 -5.03864,-2.43546 -8.45987,-12.83822 -0.2817,-0.85656 0.34171,-2.6119 1.38536,-3.90075 2.70738,-3.34347 6.21911,-2.19408 9.13213,2.98893 1.26554,2.25172 3.41187,4.5164 4.76962,5.03262 3.59294,1.36603 10.08054,0.0201 13.41097,-2.78228 3.6033,-3.03198 5.79354,-2.6657 8.146,1.36227 1.82822,3.13034 1.82644,3.14352 -0.85719,6.33282 -3.52497,4.18919 -6.32082,5.19038 -15.36655,5.50272 -5.63782,0.19466 -8.65715,-0.22696 -12.16047,-1.69811 z m 17.41246,-0.48398 c 4.87586,-0.41849 6.05684,-0.92181 7.75345,-3.30449 3.22986,-4.53592 0.0289,-8.55533 -4.46718,-5.60939 -1.19896,0.78559 -4.84805,1.73266 -8.10909,2.1046 -3.26104,0.37194 -6.60417,0.8514 -7.42917,1.06546 -0.96818,0.25121 -2.2091,-1.10453 -3.5,-3.82383 -2.11006,-4.44488 -4.8266,-5.92645 -5.87189,-3.20246 -0.86689,2.25909 4.10907,10.47326 6.34447,10.47326 0.98039,0 2.30246,0.62647 2.93792,1.39216 1.24949,1.50554 3.45614,1.6673 12.34149,0.90469 z m 4.14308,-19.22919 c 0.0577,-1.57908 0.44243,-2.66373 0.85493,-2.41034 1.02572,0.63008 0.94908,4.10161 -0.10493,4.75302 -0.47021,0.29061 -0.80771,-0.7636 -0.75,-2.34268 z"
         id="path11123"
         inkscape:connector-curvature="0" />
      <path
         style="fill:#19002f"
         d="m -105.98354,-184.89513 c -0.38856,-0.38855 -4.10472,-1.03106 -8.25815,-1.42779 -4.33228,-0.41382 -8.25873,-1.35449 -9.2102,-2.20652 -0.91218,-0.81685 -4.91647,-3.11536 -8.8984,-5.10779 -5.23545,-2.61964 -7.40601,-4.28452 -7.83993,-6.01342 -0.33004,-1.31495 -1.45959,-3.16868 -2.51013,-4.1194 -1.05053,-0.95072 -1.91006,-2.30812 -1.91006,-3.01644 0,-0.70832 -0.86609,-2.77607 -1.92464,-4.59501 -1.05855,-1.81894 -2.59466,-5.78216 -3.41357,-8.80716 -1.69167,-6.24886 -3.32869,-11.14208 -5.18551,-15.5 -5.27045,-12.36966 -5.61684,-15.99107 -1.94676,-20.35271 2.92301,-3.4738 9.06425,-5.70256 18.47048,-6.70324 3.575,-0.38033 7.625,-1.12239 9,-1.64902 1.375,-0.52664 9.925,-1.11875 19,-1.31582 24.76199,-0.5377 31.77275,-1.28263 37.5,-3.98457 2.75,-1.29736 7.925,-3.60486 11.5,-5.12778 3.65588,-1.55737 8.90656,-4.94316 12,-7.73795 3.025,-2.73296 6.9625,-5.83694 8.75,-6.89774 3.78069,-2.24366 3.92553,-2.80985 1.32166,-5.16632 -2.22299,-2.01178 -4.5658,-1.53847 -10.30179,2.08124 -2.05157,1.29465 -4.31394,2.35391 -5.02749,2.35391 -0.71355,0 -2.185,0.60079 -3.26987,1.33508 -2.53612,1.71657 -17.63062,6.35827 -23.47251,7.21803 -11.09031,1.63218 -18.22733,1.89918 -31,1.15974 -14.75191,-0.85403 -23.90865,-2.90533 -26.51981,-5.94099 -2.00008,-2.32523 -3.66456,-2.95444 -14.48019,-5.47386 -5.15322,-1.20041 -7.81229,-4.06157 -8.89279,-9.56867 -0.96777,-4.93248 -1.43651,-10.28041 -1.20853,-13.7882 0.0557,-0.85738 0.73568,-2.42641 1.511,-3.48673 1.37908,-1.88599 1.45466,-1.88715 3.48124,-0.0531 1.71914,1.5558 2.33546,1.65572 3.62275,0.58736 1.57513,-1.30723 6.44206,-0.41027 12.12463,2.23453 3.36234,1.56492 21.85162,-1.75267 28.00117,-5.02434 2.17984,-1.15971 13.11687,-3.83985 18.86053,-4.6218 2.2,-0.29951 7.6,-0.98756 12,-1.529 19.40985,-2.38848 29.34512,-4.43888 34.73643,-7.16879 0.95504,-0.48359 2.43547,-0.87925 3.28984,-0.87925 0.85437,0 3.40944,-0.94688 5.67792,-2.10417 2.82696,-1.44221 5.17927,-1.93301 7.47721,-1.56011 2.45195,0.3979 3.81826,0.0551 5.08564,-1.27606 1.89487,-1.99019 5.34917,-2.72127 18.23296,-3.85891 10.42771,-0.92077 13,-2.17631 13,-6.34534 0,-2.89439 -0.19012,-3.04779 -3.25,-2.62229 -3.26164,0.45354 -12.77071,3.03291 -26.75,7.25604 -4.125,1.24615 -12.225,2.80427 -18,3.46249 -5.775,0.65821 -14.325,1.88079 -19,2.71684 -6.99022,1.25009 -25.3774,2.13418 -48.37723,2.32607 -2.13247,0.0178 -5.40235,0.75607 -7.26639,1.64062 -4.0934,1.94244 -7.89773,1.34789 -13.08297,-2.04463 -2.07537,-1.35785 -5.12341,-2.78544 -6.77341,-3.17243 -7.67522,-1.80014 -18.19176,-9.01611 -19.78705,-13.57698 -0.32764,-0.93672 0.62159,-3.55394 2.18055,-6.01215 5.90917,-9.31779 20.65216,-18.55565 28.0335,-17.56561 2.0514,0.27515 5.04453,-0.051 6.65141,-0.72483 1.60687,-0.67381 5.24689,-1.78159 8.08892,-2.46174 5.92907,-1.41892 9.71039,-4.59342 7.29291,-6.12255 -0.80313,-0.508 -2.48557,-0.93053 -3.73876,-0.93895 -7.37868,-0.0496 -23.49888,-12.64661 -24.75551,-19.34503 -0.73984,-3.94366 0.81797,-14.70433 3.57149,-24.67028 1.07523,-3.89162 1.79715,-9.91096 1.799,-15 0.005,-12.58555 -1.69847,-35.50687 -2.86642,-38.57881 -1.71318,-4.50599 -3.97026,-27.22064 -3.96623,-39.91506 0.006,-20.04618 3.19144,-34.62228 8.29638,-37.96717 2.31737,-1.5184 2.79359,-1.47227 7.83983,0.75942 5.568,2.46243 9.71855,7.17753 21.82755,24.79643 2.49283,3.62715 7.9864,9.59144 12.20792,13.25398 10.16254,8.81692 14.65034,14.20367 15.46597,18.56393 0.9818,5.2486 6.17715,15.89433 11.10854,22.7624 1.2375,1.72349 2.25,3.58665 2.25,4.14036 0,1.39538 5.84404,6.18452 7.54679,6.18452 0.76633,0 2.39646,1.3568 3.6225,3.0151 1.34182,1.81492 3.74182,3.42242 6.02928,4.03837 2.09006,0.56279 5.54937,2.6935 7.68735,4.7349 2.13798,2.0414 6.64737,5.51163 10.02088,7.71163 9.98089,6.50895 14.56176,9.79247 18.83395,13.5 2.21818,1.925 5.77145,4.89146 7.89615,6.59214 3.79361,3.03652 21.04941,12.28393 32.86543,17.61265 18.03418,8.13295 21.28605,9.88068 24.34368,13.08356 3.25608,3.41078 8.14033,14.93088 8.14963,19.22192 0.005,2.31908 -5.84634,16.17839 -9.21141,21.81777 -1.25633,2.10542 -4.53423,6.60542 -7.28423,10 -2.75,3.39458 -5.49471,7.07196 -6.09935,8.17196 -1.23776,2.25179 -14.17975,12.5 -15.78568,12.5 -0.57191,0 -2.03566,1.2375 -3.25277,2.75 -1.77729,2.20864 -2.46384,2.50393 -3.48756,1.5 -2.04115,-2.0017 -3.87464,-1.44881 -3.87464,1.16839 0,1.44846 -1.55612,4.03801 -3.87996,6.45666 -2.86643,2.98338 -4.05517,5.20669 -4.55072,8.51122 -0.36891,2.46013 -1.66043,5.72841 -2.87004,7.26286 -1.88153,2.38681 -2.27902,4.45583 -2.7512,14.32038 -0.30355,6.34176 -1.56745,17.2598 -2.80866,24.26229 -1.83053,10.32727 -3.02476,14.19892 -6.32334,20.5 -2.23664,4.27251 -4.91024,8.84138 -5.94134,10.15305 -1.03111,1.31167 -1.87474,2.80431 -1.87474,3.31698 0,0.97202 -6.93087,9.28772 -15.5,18.59697 -11.89104,12.9181 -27.67193,21.79508 -45,25.31319 -2.2,0.44667 -6.25,1.25237 -9,1.79045 -5.82345,1.13945 -24.83736,1.42685 -25.87313,0.39108 z m 29.87313,-5.30444 c 1.65,-0.47614 6.825,-1.8144 11.5,-2.97391 9.84371,-2.44149 16.49048,-5.68101 23.4478,-11.42807 8.32697,-6.87846 17.85354,-16.96872 21.88594,-23.18094 2.10855,-3.24839 5.19389,-7.84561 6.8563,-10.21604 5.08116,-7.24521 6.0556,-12.77616 4.70222,-26.69013 -0.69227,-7.11722 -1.72162,-12.64239 -2.52973,-13.57874 -0.74939,-0.86831 -1.36253,-2.05405 -1.36253,-2.63499 0,-0.58094 -1.08584,-1.76772 -2.41299,-2.6373 -2.10038,-1.37622 -3.06651,-1.41153 -7.45751,-0.27252 -5.38694,1.39736 -7.1295,0.76763 -7.1295,-2.57645 0,-2.68054 -1.86761,-2.17565 -2.58936,0.7 -0.3451,1.375 -1.08116,2.5 -1.63568,2.5 -0.55452,0 -0.75384,0.97275 -0.44293,2.16167 0.31091,1.18892 0.12216,2.98967 -0.41944,4.00165 -1.21823,2.27629 -7.1386,4.85184 -9.64574,4.19621 -1.09688,-0.28684 -3.88884,0.90683 -6.8127,2.91268 -6.7435,4.62624 -9.09289,5.16581 -22.95415,5.27169 -23.3016,0.17798 -51.06688,1.65751 -56.5,3.0107 -3.025,0.75342 -8.15771,1.68206 -11.40602,2.06365 -8.08267,0.94948 -9.83499,2.81475 -9.07702,9.66216 0.73326,6.62426 2.46088,12.76885 4.16073,14.79833 0.72727,0.86831 1.32231,1.98461 1.32231,2.48067 0,0.49607 0.86306,3.16063 1.91792,5.92126 1.05485,2.76063 2.39408,6.81933 2.97607,9.01933 0.61703,2.33247 3.25677,6.5513 6.33209,10.11995 2.90065,3.36597 6.00735,7.47073 6.90377,9.12168 1.85258,3.41196 11.14837,8.19582 16.24099,8.35805 1.72104,0.0548 4.25416,0.48393 5.62916,0.95357 2.91454,0.99548 24.10437,0.20428 28.5,-1.06416 z m -9.76204,-98.23118 c 6.48128,-2.78376 7.50041,-2.9683 9.74849,-1.76516 2.8808,1.54176 3.54608,1.112 4.9787,-3.21613 1.43327,-4.33008 6.29002,-6.031 8.35226,-2.9251 2.15498,3.24557 6.98346,2.81255 12.28255,-1.10152 2.42002,-1.7875 5.80892,-4.15 7.53087,-5.25 1.72196,-1.1 5.05198,-3.4625 7.40004,-5.25 2.38127,-1.81278 5.46495,-3.25 6.97315,-3.25 2.69955,0 6.50742,2.90465 8.60569,6.56445 0.99872,1.74196 1.4559,1.81053 4.571,0.68555 1.90371,-0.6875 4.73651,-1.25 6.29512,-1.25 2.01022,0 3.9514,-1.1748 6.67901,-4.04211 2.11484,-2.22316 3.84516,-4.64672 3.84516,-5.38569 0,-0.73897 0.67223,-2.63252 1.49384,-4.20789 0.82161,-1.57537 1.49661,-4.50519 1.5,-6.51072 0.005,-2.92618 -0.69202,-4.25941 -3.52864,-6.75 -1.94413,-1.70697 -4.53163,-3.10636 -5.75,-3.10975 -1.21836,-0.003 -3.53377,-0.69376 -5.14535,-1.53416 -1.61159,-0.8404 -5.47256,-1.79374 -8.57995,-2.11852 -5.49946,-0.57481 -5.71922,-0.5018 -8.25936,2.74389 -2.48946,3.18094 -2.69652,3.25572 -4.49879,1.62468 -1.03908,-0.94035 -2.62012,-1.70973 -3.51344,-1.70973 -2.94595,0 -6.71831,2.29022 -6.71831,4.07873 0,4.0212 -0.92329,4.73504 -4.81127,3.71983 -6.89964,-1.8016 -8.95102,-1.99219 -9.62933,-0.89468 -0.37259,0.60287 -1.88838,1.10099 -3.36842,1.10694 -1.48004,0.006 -4.9,0.68096 -7.59991,1.5 -2.69991,0.81905 -6.61624,1.48918 -8.70295,1.48918 -2.08671,0 -4.94019,0.52223 -6.34107,1.16052 -1.93311,0.88078 -3.16132,0.88063 -5.09549,-6.4e-4 -2.03053,-0.92517 -3.13817,-0.85618 -5.45034,0.33949 -1.59604,0.82535 -4.25229,1.50063 -5.90277,1.50063 -4.11984,0 -16.51182,3.43212 -24.09845,6.67439 -0.825,0.35258 -2.10658,0.54023 -2.84796,0.417 -0.74138,-0.12323 -2.19544,0.5429 -3.23124,1.48029 -1.35612,1.22727 -2.23843,1.41061 -3.15204,0.65499 -1.58096,-1.30756 -6.31921,-0.47328 -7.86067,1.38407 -1.76788,2.13017 -3.85552,1.65772 -4.90809,-1.11074 -1.25811,-3.30908 -2.4858,-3.15561 -4,0.5 -1.59415,3.84863 -2.48483,3.7875 -3.64277,-0.25 -1.1548,-4.02657 -2.57595,-3.96977 -3.75754,0.15018 -0.69806,2.43403 -1.3158,3.00731 -2.75,2.55211 -1.26255,-0.40071 -1.84969,-0.0895 -1.84969,0.98032 0,0.86207 0.675,1.56739 1.5,1.56739 0.825,0 1.5,0.79175 1.5,1.75945 0,2.03976 3.59151,4.61105 5.12059,3.66602 0.57159,-0.35326 1.66727,0.25435 2.43487,1.35024 0.76759,1.09589 2.93745,2.28178 4.8219,2.63531 2.28551,0.42876 4.3083,1.79914 6.07536,4.11588 3.19772,4.19243 4.30748,4.30433 7.1711,0.7231 l 2.19895,-2.75 2.40307,2.25 c 1.32168,1.2375 2.95478,2.25 3.6291,2.25 0.67433,0 2.50385,0.94472 4.06561,2.09938 2.28486,1.68927 3.24069,1.88469 4.89302,1.00039 1.65257,-0.88443 2.99379,-0.60965 6.86995,1.40747 6.06056,3.15386 11.67557,2.70848 22.05444,-1.74933 z m -73.48796,-27.17458 c 0.1375,-0.50416 -0.3125,-1.10416 -1,-1.33333 -0.6875,-0.22917 -1.25,0.33333 -1.25,1.25 0,1.69335 1.79279,1.75975 2.25,0.0833 z m 50.75,-24.26339 c 5.225,-0.32962 14.12995,-0.51617 19.78877,-0.41455 5.65882,0.10162 17.35882,-0.69968 26,-1.78066 8.64118,-1.08099 18.35323,-2.26546 21.58234,-2.63217 3.2291,-0.3667 7.7291,-1.35274 10,-2.1912 2.27089,-0.83845 7.95389,-2.54139 12.62889,-3.7843 4.675,-1.24291 11.284,-3.32123 14.68667,-4.61849 l 6.18666,-2.35864 4.31334,2.26327 c 2.37233,1.24481 5.43833,2.88256 6.81333,3.63947 9.05759,4.98597 9.44834,5.06139 13.44052,2.59409 2.79062,-1.7247 4.64012,-2.15515 7.57084,-1.76206 4.51098,0.60505 8.71601,-1.93758 12.56007,-7.59463 1.28118,-1.88542 3.00865,-3.68869 3.83882,-4.00726 2.62099,-1.00577 7.37564,-8.5469 9.46357,-15.00975 1.99895,-6.18745 1.99948,-6.27469 0.0824,-13.57668 -1.06121,-4.04207 -2.498,-8.03784 -3.19285,-8.87949 -0.69486,-0.84165 -3.73838,-2.61872 -6.76338,-3.94905 -3.025,-1.33033 -6.625,-3.44148 -8,-4.69145 -1.375,-1.24997 -4.63485,-2.8465 -7.24412,-3.54785 -2.60927,-0.70134 -8.23427,-3.46356 -12.5,-6.13825 -4.26573,-2.6747 -9.48614,-5.87946 -11.6009,-7.12169 -2.11477,-1.24223 -5.13587,-3.46491 -6.71358,-4.93929 -1.5777,-1.47438 -5.73858,-4.2857 -9.24639,-6.24738 -3.50782,-1.96168 -8.9504,-5.81787 -12.09462,-8.56931 -3.14422,-2.75144 -6.31048,-5.00262 -7.03613,-5.00262 -0.72565,0 -1.8673,-0.66023 -2.53701,-1.46717 -2.06766,-2.49139 -13.70737,-8.53283 -16.43972,-8.53283 -1.48214,0 -2.58752,-0.56633 -2.58752,-1.32569 0,-1.97748 -4.08973,-5.31493 -7.5,-6.12041 -1.65,-0.38972 -5.05689,-2.83866 -7.57088,-5.44209 -3.98931,-4.13125 -5.15768,-6.44339 -9.183,-18.17266 -2.53666,-7.39153 -4.87592,-14.67697 -5.19835,-16.18986 -0.51611,-2.4217 -4.88843,-7.23337 -16.73019,-18.41133 -2.92349,-2.75961 -5.52584,-6.11796 -16.69616,-21.54654 -5.91091,-8.16421 -10.96331,-12.31666 -13.81007,-11.35018 -3.72439,1.26444 -6.65746,4.78149 -8.61876,10.33477 -3.83748,10.86551 -3.33889,42.87586 0.92245,59.22399 2.02627,7.7735 4.3424,28.83118 4.36545,39.68945 0.0146,6.8649 -0.73937,12.29716 -2.98049,21.47491 -4.39964,18.01722 -4.17061,20.03344 3.26921,28.77938 3.29229,3.87028 11.42284,8.01882 15.97642,8.15183 1.7899,0.0523 5.93566,-0.60404 9.21279,-1.4585 3.27713,-0.85446 6.11311,-1.39887 6.30218,-1.2098 0.18907,0.18907 -3.06485,3.31659 -7.23095,6.95003 -5.70295,4.97382 -8.56535,6.76468 -11.58367,7.24733 -2.82912,0.45239 -4.7139,1.54181 -6.40429,3.70173 -2.32185,2.96677 -2.65068,3.0624 -10.71851,3.11716 -7.19172,0.0488 -8.95025,0.42512 -12.93603,2.76826 -5.78443,3.40052 -10.48617,8.68608 -11.39091,12.80534 -1.13772,5.18002 1.78607,7.51459 20.50376,16.37177 4.44657,2.1041 6.45766,2.4999 10.5,2.06648 2.75,-0.29486 9.275,-0.8058 14.5,-1.13543 z m -69,28.23908 c 0,-0.24254 0.45,-0.7191 1,-1.05902 0.55,-0.33992 1,-0.14148 1,0.44098 0,0.58246 -0.45,1.05902 -1,1.05902 -0.55,0 -1,-0.19844 -1,-0.44098 z m -95.15428,-147.26604 c -1.45985,-0.22404 -5.0766,-2.74412 -8.03722,-5.60017 -2.96062,-2.85604 -7.1662,-6.61891 -9.34572,-8.36192 -2.17953,-1.74302 -5.91786,-4.78052 -8.30739,-6.75 -2.38954,-1.96949 -4.76704,-3.58089 -5.28334,-3.58089 -0.51629,0 -2.51372,-1.575 -4.43872,-3.5 -1.925,-1.925 -4.2725,-3.50168 -5.21666,-3.50374 -3.57641,-0.008 -7.96337,-3.98116 -13.51789,-12.24346 -3.16027,-4.70088 -6.44322,-9.12574 -7.29545,-9.83303 -1.89173,-1.56999 -4.86676,-7.37124 -5.83063,-11.36958 -0.67527,-2.80116 -7.0366,-14.48789 -8.46429,-15.55019 -1.40942,-1.0487 -6.90481,-13.65851 -7.40866,-17 -0.29026,-1.925 -0.22894,-6.83547 0.13625,-10.91217 l 0.664,-7.41216 6.5,-2.84191 c 7.83521,-3.42568 12.9276,-3.24302 32.63366,1.17052 2.27351,0.5092 10.8635,0.64956 19.08886,0.31191 14.60946,-0.5997 15.08088,-0.55444 20.39168,1.95797 2.99007,1.41453 6.31095,3.53814 7.37973,4.71914 1.50074,1.65829 2.65896,2.013 5.08617,1.55765 3.4827,-0.65336 4.769,0.37678 5.78434,4.6324 0.35211,1.47584 1.53812,2.96833 2.63556,3.31665 1.09744,0.34832 2.27169,1.73434 2.60945,3.08005 0.33775,1.34571 2.51692,4.12822 4.8426,6.18335 5.29988,4.68333 6.85492,7.5625 6.054,11.20906 -0.44644,2.03261 0.13567,4.3604 2.02058,8.0801 2.10973,4.16334 2.54391,6.16185 2.13694,9.83619 -3.59258,32.43553 -3.82236,33.58281 -8.1942,40.91346 -1.08315,1.81622 -3.40413,4.93615 -5.15774,6.93318 -2.41561,2.75094 -3.06026,4.27147 -2.65981,6.27369 0.41205,2.06027 -0.0346,3.01169 -2.02646,4.31682 -1.40524,0.92076 -3.58333,1.69005 -4.84018,1.70954 -1.25685,0.0195 -3.41018,0.67854 -4.78518,1.46456 -1.375,0.78602 -2.95,1.37765 -3.5,1.31473 -0.55,-0.0629 -2.19442,-0.2977 -3.65428,-0.52175 z m 13.66078,-25.96278 c 0.84334,-2.01839 2.41089,-4.28446 3.48345,-5.03571 4.56945,-3.20057 9.02265,-18.51622 6.95532,-23.92109 -0.60448,-1.58037 -1.15761,-5.26402 -1.22919,-8.18589 -0.11229,-4.58331 -0.37625,-5.24814 -1.92311,-4.84362 -1.06993,0.27979 -1.79297,-0.0754 -1.79297,-0.88081 0,-0.74232 -0.83544,-1.93769 -1.85654,-2.65638 -1.0211,-0.71868 -2.19051,-2.36358 -2.59869,-3.65532 -1.94849,-6.16624 -6.87173,-15.12038 -8.61843,-15.67476 -1.1961,-0.37963 -1.92634,-1.52021 -1.92634,-3.00882 0,-1.47728 -0.86356,-2.8408 -2.25,-3.55261 -1.2375,-0.63535 -3.6,-2.3978 -5.25,-3.91656 -4.14405,-3.81445 -9.62069,-5.37734 -16.15288,-4.60961 -3.80459,0.44716 -6.03884,0.22429 -7.61565,-0.75964 -1.22731,-0.76585 -6.02623,-1.66302 -10.66426,-1.99371 -4.63804,-0.33069 -8.89054,-1.059 -9.45,-1.61846 -0.55947,-0.55947 -2.65498,-1.01721 -4.65669,-1.01721 -4.19841,0 -5.61666,2.10773 -6.64627,9.87735 -0.33692,2.54246 -1.22046,5.51028 -1.96342,6.59516 -1.88144,2.7473 -1.68522,5.83267 0.5518,8.67657 1.26545,1.60877 1.72548,3.34549 1.37366,5.18593 -0.36717,1.92072 0.0856,3.43973 1.4804,4.96606 2.6737,2.92595 5.24331,8.12181 5.24331,10.60222 0,3.48667 2.20505,7.02014 5.64892,9.05207 1.83312,1.08157 4.19335,3.38131 5.24496,5.11053 1.0516,1.72922 3.01927,3.8843 4.3726,4.78907 7.87735,5.26642 9.78179,6.81931 10.29692,8.3961 0.31462,0.96309 1.35689,2.1711 2.31614,2.68447 0.95925,0.51338 3.95803,2.7629 6.66395,4.99894 2.78709,2.30312 6.01155,4.0833 7.43818,4.10652 1.38508,0.0225 5.89333,0.87577 10.01833,1.89605 11.08486,2.74174 11.72118,2.66604 13.5065,-1.60684 z m -32.94458,-154.32971 c -4.26158,-0.80814 -7.25395,-3.70013 -8.15033,-7.87694 -0.30967,-1.44295 -1.69514,-4.96138 -3.07881,-7.81874 -1.8341,-3.78752 -2.3347,-6.0196 -1.8475,-8.23781 1.41375,-6.43672 9.59266,-9.15333 14.92643,-4.95779 3.65336,2.87373 14.52912,3.37411 13.81193,0.63546 -0.80459,-3.07236 1.47605,-4.47891 7.34787,-4.53167 4.78156,-0.043 6.01849,0.36613 8.98662,2.97218 3.90907,3.43221 4.24771,5.73827 1.96927,13.41059 -2.7439,9.23973 -7.97116,12.32234 -28.5274,16.82309 -0.825,0.18063 -3.27213,-0.008 -5.43808,-0.41837 z m 22.52675,-6.80442 c 1.42376,-0.56314 3.79881,-2.46207 5.27788,-4.21985 2.68363,-3.1893 2.68541,-3.20248 0.85719,-6.33282 -2.35246,-4.02797 -4.5427,-4.39425 -8.146,-1.36227 -3.33043,2.80237 -9.81803,4.14831 -13.41097,2.78228 -1.35775,-0.51622 -3.50408,-2.7809 -4.76962,-5.03262 -2.91302,-5.18301 -6.42475,-6.3324 -9.13213,-2.98893 -1.04365,1.28885 -1.66706,3.04419 -1.38536,3.90075 3.42123,10.40276 3.71239,10.84461 8.45987,12.83822 5.08601,2.13577 17.32186,2.36413 22.24914,0.41524 z m -10.75893,-11.85915 c 0.36469,-0.36469 -0.68531,-1.48307 -2.33333,-2.4853 -1.64803,-1.00222 -2.99641,-2.27884 -2.99641,-2.83692 0,-0.55809 -0.45,-1.0147 -1,-1.0147 -1.55559,0 -1.18968,1.48914 1.07258,4.36514 2.02968,2.58032 3.93427,3.29467 5.25716,1.97178 z m 11.67026,-8.36075 c 0,-1.82084 -2.67467,-3.97617 -4.93426,-3.97617 -1.90529,0 -1.12411,3.84571 1.09723,5.40159 2.5127,1.75997 3.83703,1.26799 3.83703,-1.42542 z"
         id="path11121"
         inkscape:connector-curvature="0" />
    </g>
  </g>
</svg>
