<?xml version="1.0" encoding="UTF-8" standalone="no"?>
<svg
   xmlns:dc="http://purl.org/dc/elements/1.1/"
   xmlns:cc="http://creativecommons.org/ns#"
   xmlns:rdf="http://www.w3.org/1999/02/22-rdf-syntax-ns#"
   xmlns:svg="http://www.w3.org/2000/svg"
   xmlns="http://www.w3.org/2000/svg"
   xmlns:sodipodi="http://sodipodi.sourceforge.net/DTD/sodipodi-0.dtd"
   xmlns:inkscape="http://www.inkscape.org/namespaces/inkscape"
   viewBox="0 0 512 512"
   id="svg8438"
   version="1.1"
   inkscape:version="0.48.4 r9939"
   width="100%"
   height="100%"
   sodipodi:docname="dexterous hands.svg">
  <metadata
     id="metadata8464">
    <rdf:RDF>
      <cc:Work
         rdf:about="">
        <dc:format>image/svg+xml</dc:format>
        <dc:type
           rdf:resource="http://purl.org/dc/dcmitype/StillImage" />
        <dc:title></dc:title>
      </cc:Work>
    </rdf:RDF>
  </metadata>
  <defs
     id="defs8462">
    <linearGradient
       id="linearGradient4077">
      <stop
         id="stop4079"
         offset="0"
         style="stop-color:#aa4400;stop-opacity:1;" />
      <stop
         style="stop-color:#ff9f00;stop-opacity:1;"
         offset="0.22752622"
         id="stop4081" />
      <stop
         style="stop-color:#803300;stop-opacity:1;"
         offset="0.4948855"
         id="stop4083" />
      <stop
         id="stop4085"
         offset="1"
         style="stop-color:#562200;stop-opacity:1;" />
    </linearGradient>
    <linearGradient
       id="linearGradient4057">
      <stop
         style="stop-color:#aa4400;stop-opacity:1;"
         offset="0"
         id="stop4059" />
      <stop
         id="stop4067"
         offset="0.22752622"
         style="stop-color:#ecd1a4;stop-opacity:1;" />
      <stop
         id="stop4065"
         offset="0.50136983"
         style="stop-color:#803300;stop-opacity:1;" />
      <stop
         style="stop-color:#562200;stop-opacity:1;"
         offset="1"
         id="stop4061" />
    </linearGradient>
    <linearGradient
       id="linearGradient3890">
      <stop
         style="stop-color:#701b1b;stop-opacity:1;"
         offset="0"
         id="stop3892" />
      <stop
         style="stop-color:#e31600;stop-opacity:1;"
         offset="1"
         id="stop3894" />
    </linearGradient>
    <linearGradient
       id="linearGradient3882">
      <stop
         style="stop-color:#600b0b;stop-opacity:1;"
         offset="0"
         id="stop3884" />
      <stop
         style="stop-color:#d11414;stop-opacity:1;"
         offset="1"
         id="stop3886" />
    </linearGradient>
    <linearGradient
       id="linearGradient3872">
      <stop
         style="stop-color:#800600;stop-opacity:1;"
         offset="0"
         id="stop3874" />
      <stop
         style="stop-color:#ff0004;stop-opacity:0;"
         offset="1"
         id="stop3876" />
    </linearGradient>
  </defs>
  <sodipodi:namedview
     pagecolor="#000000"
     bordercolor="#666666"
     borderopacity="1"
     objecttolerance="10"
     gridtolerance="10"
     guidetolerance="10"
     inkscape:pageopacity="0"
     inkscape:pageshadow="2"
     inkscape:window-width="1190"
     inkscape:window-height="1126"
     id="namedview8460"
     showgrid="false"
     inkscape:zoom="0.35355339"
     inkscape:cx="0.038945456"
     inkscape:cy="1180.6348"
     inkscape:window-x="160"
     inkscape:window-y="130"
     inkscape:window-maximized="0"
     inkscape:current-layer="g8466" />
  <g
     id="g8466">
    <path
       inkscape:connector-curvature="0"
       d="M -13.466093,0.1885736 H 514.89024 V 516.42957 H -13.466093 z"
       id="path3978"
       style="fill:#000000" />
    <path
       sodipodi:type="arc"
       style="fill:#333333;fill-opacity:1;fill-rule:nonzero;stroke:none"
       id="path4121"
       sodipodi:cx="63.286057"
       sodipodi:cy="-74.545074"
       sodipodi:rx="39.244427"
       sodipodi:ry="23.688076"
       d="m 101.95774,-78.577314 a 39.244427,23.688076 0 0 1 9.3e-4,0.0033 l -38.672613,4.028989 z"
       sodipodi:start="6.11213"
       sodipodi:end="6.1122693"
       transform="matrix(0.92592215,0,0,1,-12.92858,0)" />
    <path
       sodipodi:type="arc"
       style="fill:#333333;fill-opacity:1;fill-rule:nonzero;stroke:none"
       id="path4123"
       sodipodi:cx="65.584152"
       sodipodi:cy="-52.359596"
       sodipodi:rx="10.606602"
       sodipodi:ry="11.755651"
       d="m 76.035958,-54.360671 a 10.606602,11.755651 0 0 1 2.51e-4,0.0016 l -10.452057,1.999461 z"
       sodipodi:start="6.11213"
       sodipodi:end="6.1122693"
       transform="matrix(0.92592215,0,0,1,-12.92858,0)" />
    <path
       sodipodi:type="arc"
       style="fill:#333333;fill-opacity:1;fill-rule:nonzero;stroke:none"
       id="path4125"
       sodipodi:cx="54.182056"
       sodipodi:cy="-54.392529"
       sodipodi:rx="15.46796"
       sodipodi:ry="16.793785"
       d="m 69.424272,-57.251206 a 15.46796,16.793785 0 0 1 3.67e-4,0.0023 l -15.242583,2.856372 z"
       sodipodi:start="6.11213"
       sodipodi:end="6.1122693"
       transform="matrix(0.92592215,0,0,1,-12.92858,0)" />
    <path
       style="fill:#a26d51"
       d="M 8.608876,498.40704 C 9.4589351,499.2088 5.1589766,26.199295 5.1589766,26.199295 19.140187,19.434163 171.17953,19.895509 234.20133,25.537367 c 58.99709,-1.522008 81.76525,-5.482729 167.95795,-2.221844 0,38.066798 8.09349,41.918047 5.42506,113.654897 14.50291,64.36892 107.4011,157.37048 72.53219,359.46776 -208.36255,7.4082 -167.6085,1.09222 -471.507654,1.96886 z"
       id="path4618"
       inkscape:connector-curvature="0"
       sodipodi:nodetypes="ccccccc" />
    <path
       inkscape:connector-curvature="0"
       id="path4622"
       d="m 415.52178,492.54612 -0.46867,2.20156 -3.09366,-3.78217 c -1.70151,-2.08019 -3.89815,-5.63688 -4.88141,-7.90377 -0.98325,-2.26687 -2.28177,-6.92331 -2.88556,-10.34765 -0.60381,-3.42434 -1.70301,-7.14182 -2.44269,-8.26105 -0.73968,-1.11926 -1.66748,-5.09226 -2.06177,-8.8289 l -0.71691,-6.79391 4.17393,-3.78013 4.17392,-3.78013 -2.57805,-0.0595 -2.57804,-0.0595 -0.70897,2.34602 -0.70896,2.34602 -2.07633,-2.37851 -2.07631,-2.37848 -0.40561,-7.34928 -0.40559,-7.34928 3.44869,-0.8083 3.44868,-0.80833 -4.41927,-0.25558 -4.41928,-0.25559 0.85998,-2.71914 0.85997,-2.71915 -3.01472,-1.16095 c -1.65809,-0.63844 -3.01473,-1.77962 -3.01473,-2.53586 0,-0.75622 0.69991,-2.22419 1.55537,-3.26214 l 1.55535,-1.88716 -2.93773,-3.82599 c -1.61576,-2.1043 -3.98624,-6.28612 -5.26776,-9.29293 l -2.33001,-5.46694 0,-7.44489 0,-7.44486 2.092,-3.6239 2.09199,-3.6239 -1.64839,-3.73713 -1.6484,-3.73711 0.7188,-9.07637 0.71878,-9.07638 -0.92872,-1.12684 -0.92871,-1.12684 0.4926,-20.92465 0.4926,-20.92466 1.62869,-2.38109 1.62869,-2.38109 -3.10265,0 -3.10266,0 -0.84802,-3.93465 -0.84803,-3.93464 0.83312,-2.6342 c 0.45821,-1.44881 1.49579,-2.6342 2.30574,-2.6342 l 1.47261,0 -0.91424,-1.79485 -0.91424,-1.79484 -2.11423,0.98439 -2.11426,0.98439 -1.03676,-2.03538 -1.03676,-2.03537 -1.09649,0.82223 -1.09648,0.82223 -3.65958,-3.34932 -3.65958,-3.3493 1.08717,-2.13435 1.08716,-2.13433 2.72395,0 2.72393,0 6.85246,-6.99734 c 3.76885,-3.84853 7.36385,-7.86022 7.98889,-8.91486 l 1.13643,-1.91752 0.0237,2.34602 0.0237,2.34601 1.91661,-0.4692 1.91662,-0.4692 -0.48049,5.16123 -0.48048,5.16124 1.65752,0 1.65754,0 0,-4.31667 0,-4.31667 -1.80672,-2.19214 -1.80671,-2.19213 2.51445,-10.85171 2.51445,-10.85171 0.9013,-15.95291 c 0.49572,-8.7741 1.50852,-19.18693 2.25067,-23.13964 0.74214,-3.9527 1.76682,-7.69325 2.27706,-8.31233 l 0.92769,-1.12561 5.00817,4.47042 c 2.75449,2.45873 6.38688,6.62156 8.07195,9.25074 1.68508,2.62918 5.51348,7.9896 8.50756,11.91204 2.99409,3.92245 7.70602,9.96109 10.47098,13.41922 l 5.02724,6.28749 0,3.9413 0,3.94131 1.54683,0 1.54683,0 0,2.75632 0,2.75631 2.32024,-1.0803 2.32025,-1.08031 0,3.98399 c 0,2.19119 0.86556,7.34894 1.92345,11.46167 l 1.92345,7.47769 1.94362,0 1.94362,0 0.18327,2.34602 c 0.10085,1.2903 0.0823,3.33804 -0.041,4.5505 -0.12328,1.21247 0.49024,2.74031 1.36356,3.39519 l 1.58785,1.19068 0,3.05272 0,3.05269 3.28701,4.24527 3.28702,4.24528 0,4.79054 0,4.79055 1.17314,0 c 0.64525,0 1.51958,1.90027 1.94297,4.22282 0.4234,2.32256 1.99913,8.44566 3.50161,13.60689 1.50248,5.16124 3.28167,11.0732 3.95377,13.13769 0.6721,2.06449 1.64304,5.58643 2.15764,7.82651 0.51462,2.24011 1.32347,6.04066 1.79745,8.44566 0.47398,2.40502 1.2262,9.25815 1.67158,15.22917 l 0.8098,10.8564 -2.75095,8.85013 c -1.51301,4.86757 -4.05482,10.8954 -5.64848,13.39516 l -2.89753,4.54506 0.10333,-5.48346 c 0.0569,-3.01589 -0.53378,-9.69567 -1.31254,-14.84394 -0.77875,-5.14828 -1.10667,-10.33829 -0.72871,-11.53337 l 0.68721,-2.17286 -1.71467,-8.17318 c -0.94306,-4.49522 -2.53823,-10.28457 -3.54479,-12.86519 -1.00657,-2.58061 -3.41378,-7.07939 -5.34936,-9.99727 l -3.51919,-5.30522 0,-3.60964 0,-3.60962 -1.28633,0 c -0.70747,0 -3.50143,-4.14779 -6.20881,-9.2173 -2.70739,-5.06954 -5.95002,-12.20112 -7.20588,-15.84801 l -2.28336,-6.63069 0.8635,-2.73027 0.8635,-2.73029 -1.65229,-1.23902 -1.65228,-1.239 0,-4.26847 c 0,-2.34765 -0.49037,-4.86344 -1.08971,-5.59065 -0.59933,-0.72719 -1.32163,-3.61279 -1.60508,-6.41243 -0.28347,-2.79966 -1.23562,-7.82186 -2.11591,-11.16044 l -1.6005,-6.07018 0.91521,-3.49873 0.91521,-3.49874 -2.26403,-5.29488 -2.26403,-5.2949 1.6407,-3.71969 1.64073,-3.71971 -2.50021,1.16407 -2.50018,1.1641 0,-2.45506 0,-2.45506 -3.93985,-2.17806 -3.93987,-2.17808 -4.9544,0.0287 c -2.72493,0.0158 -5.71422,0.64923 -6.64286,1.4076 l -1.68843,1.37887 -1.92288,17.31608 -1.92287,17.31609 1.02963,6.14406 c 0.56629,3.37926 2.29678,10.78919 3.84554,16.46655 1.54875,5.67736 3.87989,14.96758 5.18031,20.64494 1.30044,5.67735 3.9042,20.03497 5.78617,31.90581 1.88195,11.87084 4.68899,29.60671 6.23786,39.41306 1.54887,9.80634 3.96889,25.4308 5.3778,34.72103 l 2.56169,16.89131 -0.1188,27.21378 c -0.0653,14.96757 -0.43801,29.32519 -0.8282,31.90581 -0.39017,2.58061 -0.76741,6.54056 -0.83832,8.79986 l -0.12885,4.10782 -6.87876,1.25159 -6.87877,1.25161 -0.46867,2.20156 z m -0.46867,-11.982 c 0.42538,0 0.77341,-0.42228 0.77341,-0.93841 0,-0.51612 -0.34803,-0.9384 -0.77341,-0.9384 -0.42538,0 -0.77342,0.42228 -0.77342,0.9384 0,0.51613 0.34804,0.93841 0.77342,0.93841 z m -17.78854,-123.86962 1.54683,0 0,-2.3876 c 0,-1.31317 2.0194,-5.36012 4.48757,-8.9932 l 4.48757,-6.60559 -0.80083,-5.0829 -0.80081,-5.08289 -1.1771,0 c -0.64741,0 -2.11076,1.36497 -3.25187,3.03325 -1.14113,1.66828 -2.95605,6.10224 -4.03319,9.85326 -1.07713,3.75102 -1.9689,8.72029 -1.9817,11.04285 l -0.0233,4.22282 1.54683,0 z m 68.59806,93.3104 -1.56165,0.63161 -1.73175,-7.08874 c -0.95245,-3.89882 -2.15024,-9.52145 -2.66173,-12.49475 l -0.92996,-5.40603 3.48867,-4.50573 3.48869,-4.50572 0.47742,-5.10276 c 0.26259,-2.80651 0.89672,-7.21416 1.40915,-9.79478 l 0.93172,-4.69203 1.08689,3.57413 1.08688,3.57414 3.37636,-4.39724 3.37637,-4.39722 0,6.92273 0,6.92274 -1.38133,0 c -0.75974,0 -1.782,1.26685 -2.27171,2.81522 l -0.89035,2.81522 0.85566,2.70548 0.85564,2.70548 3.34958,0.57894 3.34958,0.57894 0.45499,14.7622 0.455,14.76222 -2.15064,-2.60945 c -1.18286,-1.43518 -3.45501,-5.94458 -5.04925,-10.02086 l -2.89859,-7.41144 -1.33615,6.51954 c -0.73486,3.58574 -1.84953,7.73613 -2.47698,9.22305 -0.62747,1.48694 -1.84361,2.98773 -2.70251,3.33511 z m 11.06365,-31.37559 c -0.42538,0 -0.77342,-0.42228 -0.77342,-0.9384 0,-0.51613 0.34804,-0.93841 0.77342,-0.93841 0.42537,0 0.77341,0.42228 0.77341,0.93841 0,0.51612 -0.34804,0.9384 -0.77341,0.9384 z m -0.77342,-3.75362 -2.06243,0 1.03121,-1.25122 1.03122,-1.25119 1.03123,1.25119 1.03121,1.25122 -2.06244,0 z m -158.54999,-1.87682 c -0.42538,0 -0.77342,-0.42228 -0.77342,-0.9384 0,-0.51613 0.34804,-0.93841 0.77342,-0.93841 0.42537,0 0.77341,0.42228 0.77341,0.93841 0,0.51612 -0.34804,0.9384 -0.77341,0.9384 z m 5.4139,-3.87231 c -0.42538,-0.0655 -2.33958,-0.88306 -4.25378,-1.8166 l -3.48037,-1.69737 0,-7.27686 0,-7.27683 -3.09366,-3.39699 c -1.70151,-1.86835 -3.09366,-4.27127 -3.09366,-5.33985 0,-1.06857 -2.16048,-7.15954 -4.80107,-13.53546 -2.64061,-6.37595 -6.46901,-13.94778 -8.50757,-16.8263 l -3.70648,-5.2337 0,-3.4617 0,-3.46171 -1.54683,0 -1.54683,0 0,-5.57424 0,-5.57427 -4.45539,-3.99671 -4.45538,-3.99672 0.78202,-3.62843 0.78203,-3.62842 -2.39344,-3.22271 c -1.31638,-1.7725 -2.90581,-5.75641 -3.53206,-8.85315 -0.62624,-3.09674 -2.17545,-7.57288 -3.44269,-9.94699 l -2.30408,-4.31658 1.95671,-9.89643 1.95669,-9.89643 -2.81586,-6.43193 c -1.54873,-3.53757 -2.64393,-7.48766 -2.43378,-8.77797 l 0.38207,-2.34601 -1.51041,0 -1.51038,0 -1.10464,-4.22283 c -0.60753,-2.32255 -0.88486,-4.22283 -0.61626,-4.22283 0.2686,0 -0.45664,-2.11141 -1.61161,-4.69203 -1.15498,-2.58061 -2.27943,-5.95888 -2.49878,-7.50725 -0.21935,-1.54837 -1.04363,-7.88261 -1.83172,-14.07609 -0.78809,-6.19348 -2.56885,-17.45816 -3.95724,-25.03263 l -2.52431,-13.77176 0.80596,-1.58226 0.80594,-1.58226 -1.67751,-1.25793 -1.67752,-1.25793 0.81197,-2.56732 0.81196,-2.56733 -2.2438,-5.21929 c -1.23411,-2.8706 -2.2481,-6.18463 -2.25335,-7.3645 l -0.01,-2.14522 2.45983,-1.14529 2.45982,-1.1453 1.37529,1.03129 1.37527,1.03129 3.12562,-2.02964 3.12563,-2.02964 0,2.788 0,2.78799 1.93354,1.50087 c 1.06344,0.82547 2.71569,4.15737 3.67164,7.40421 l 1.7381,5.90334 -1.08835,2.13668 -1.08837,2.13667 -2.4602,-1.14546 -2.4602,-1.14547 -0.50979,4.35431 -0.50979,4.35431 5.72658,6.58085 5.72657,6.58086 1.5516,7.50725 c 0.85337,4.12899 2.97021,14.26377 4.70405,22.52175 1.73386,8.25797 5.59343,27.47548 8.57683,42.70559 2.9834,15.23008 5.42437,28.97036 5.42437,30.53395 l 0,2.84286 -3.86707,-1.17762 -3.86707,-1.17762 0,3.19439 0,3.19439 2.91396,0.92457 2.91395,0.92458 -0.72356,3.35714 -0.72356,3.35715 3.99693,0 3.99691,0 0,-2.36677 0,-2.36677 5.47315,-3.15123 5.47313,-3.15122 13.47552,-1.2052 c 7.41153,-0.66285 18.34803,-1.2413 24.30332,-1.28545 l 10.82781,-0.0803 -0.54613,4.69203 -0.54612,4.69203 -1.58558,1.19778 -1.58559,1.19776 0.86952,1.70706 0.86952,1.70705 -1.05902,2.0791 -1.05904,2.07909 -6.41891,0.56233 -6.41891,0.56233 -2.08767,-1.96476 c -1.14823,-1.08061 -5.06009,-3.36527 -8.69301,-5.07704 l -6.60532,-3.11222 -5.03843,0 -5.03842,0 -3.24505,2.75781 -3.24506,2.7578 -0.82138,3.81104 -0.82138,3.81104 1.71138,0 1.71138,0 -1.6414,1.99156 -1.64141,1.99156 1.73126,5.98489 c 0.95221,3.29168 2.1713,6.82946 2.7091,7.8617 0.5378,1.03225 2.50969,5.20639 4.38195,9.27589 1.87227,4.06949 5.19345,11.55108 7.38039,16.62576 l 3.97626,9.22669 0.13674,18.56473 c 0.0753,10.21061 -0.2112,18.5111 -0.63658,18.44552 z m -29.38976,-91.84512 1.54683,0 0,-1.98758 0,-1.98756 -1.54683,1.15993 c -0.85075,0.63796 -1.54683,1.53238 -1.54683,1.98758 0,0.4552 0.69608,0.82763 1.54683,0.82763 z m -176.24724,75.0725 -1.63812,0 0,-1.87681 c 0,-1.03225 0.30696,-1.87682 0.68213,-1.87682 0.37517,0 1.11232,0.84457 1.63811,1.87682 l 0.956,1.87681 -1.63812,0 z m -9.37227,-3.75363 c -0.85075,0 -1.54682,-0.37243 -1.54682,-0.82763 0,-0.45521 0.69607,-1.34962 1.54682,-1.98759 l 1.54683,-1.15992 0,1.98756 0,1.98758 -1.54683,0 z m -3.86707,-1.87681 c -0.42538,0 -0.77341,-0.42228 -0.77341,-0.93841 0,-0.51612 0.34803,-0.9384 0.77341,-0.9384 0.42538,0 0.77342,0.42228 0.77342,0.9384 0,0.51613 -0.34804,0.93841 -0.77342,0.93841 z m 17.01512,-13.13769 c -0.42538,0 -0.77341,-0.42228 -0.77341,-0.9384 0,-0.51612 0.34803,-0.93841 0.77341,-0.93841 0.42538,0 0.77342,0.42229 0.77342,0.93841 0,0.51612 -0.34804,0.9384 -0.77342,0.9384 z m 206.03834,-11.26087 c -0.33218,0 -1.78603,-1.58478 -3.23074,-3.52173 l -2.62676,-3.52174 2.77372,-1.45378 c 1.52555,-0.79956 3.81784,-1.72974 5.09397,-2.06704 1.27614,-0.33731 3.229,-0.21826 4.33968,0.26455 l 2.01943,0.87786 -3.88266,4.71093 c -2.13546,2.59103 -4.15445,4.71095 -4.48664,4.71095 z m -4.17712,-13.13769 -2.91109,0 -0.854,-1.67661 -0.85402,-1.67659 4.03891,-1.22995 c 2.2214,-0.67648 4.37451,-0.82276 4.78468,-0.32509 0.41019,0.4977 0.28697,1.80565 -0.2738,2.90657 l -1.0196,2.00167 -2.91108,0 z m -2.60862,-16.89131 c -0.79232,0 -2.79175,-1.23999 -4.44318,-2.75553 l -3.00259,-2.75552 2.51756,-0.0597 2.51754,-0.0597 1.92563,2.81521 1.92563,2.81522 -1.44059,0 z m 7.24911,0 c -0.85076,0 -1.54683,-0.84456 -1.54683,-1.87681 0,-1.03225 0.69607,-1.87681 1.54683,-1.87681 0.85075,0 1.54682,0.84456 1.54682,1.87681 0,1.03225 -0.69607,1.87681 -1.54682,1.87681 z m -95.42546,-9.21325 -1.61399,1.9583 -0.93027,-2.94136 -0.93026,-2.94137 -2.75551,-0.25076 -2.75549,-0.25078 6.96073,-1.51998 c 3.82841,-0.83597 10.29906,-2.28425 14.37922,-3.21839 l 7.41848,-1.69843 1.63012,3.69565 1.63011,3.69565 -1.70116,-1.27565 -1.70116,-1.27565 0,1.98757 0,1.98758 -3.96876,0 c -2.18282,0 -5.35964,0.90318 -7.0596,2.00704 l -3.09085,2.00707 -1.94882,-1.9624 -1.9488,-1.96239 -1.61399,1.9583 z m 95.13004,1.57408 c -1.11365,-0.0725 -3.41697,-0.85774 -5.11849,-1.74489 l -3.09366,-1.61299 4.16249,-0.13194 4.1625,-0.13194 0.95599,1.87681 0.95599,1.87682 -2.02482,-0.13194 z m 18.08395,-1.74489 c -0.42538,0 -0.77341,-0.42228 -0.77341,-0.93841 0,-0.51612 0.34803,-0.9384 0.77341,-0.9384 0.42538,0 0.77342,0.42228 0.77342,0.9384 0,0.51613 -0.34804,0.93841 -0.77342,0.93841 z m -186.2569,-6.67085 c -0.54776,0.41076 -2.5601,-0.68471 -4.47187,-2.43441 l -3.47595,-3.18123 -0.74287,-5.58682 -0.74287,-5.58684 1.63197,3.28442 1.63198,3.28442 2.83647,0 2.83647,0 0.74629,4.73683 0.7463,4.73681 -0.99592,0.74682 z m 48.40653,-4.59002 -2.32025,0 1.10102,-2.16153 1.10102,-2.16154 -2.86013,-2.53753 -2.86014,-2.53752 1.4637,-1.76163 1.46369,-1.76164 9.28098,-0.3412 c 5.10453,-0.18768 12.06527,0.29608 15.46829,1.07498 3.40302,0.7789 7.05741,2.25403 8.12085,3.27806 1.06345,1.02404 1.93354,2.60306 1.93354,3.50891 l 0,1.64701 -2.19135,0 -2.19133,0 -0.55994,-2.03812 -0.55992,-2.03813 -5.36958,1.86886 -5.36959,1.86885 2.70695,0.16929 2.70695,0.16929 0,1.87681 0,1.87681 -5.51559,0 -5.51559,0 -2.89809,-1.88188 -2.89809,-1.88189 -0.95859,1.88189 c -0.52722,1.03503 -2.00268,1.88188 -3.27881,1.88188 z m 16.42428,-9.81949 5.4139,0 -2.70695,-0.85832 c -1.48882,-0.47205 -3.92508,-0.47205 -5.4139,0 l -2.70696,0.85832 5.41391,0 z m 7.73414,9.81949 -2.06243,0 1.03121,-1.25122 1.03122,-1.25119 1.03123,1.25119 1.03121,1.25122 -2.06244,0 z m 10.3122,-4.37923 -1.03122,1.2512 0,-2.50241 0,-2.50241 1.03122,1.2512 1.03121,1.25121 -1.03121,1.25121 z m 51.04537,-1.87681 -1.03123,1.2512 0,-2.50241 0,-2.50241 1.03123,1.25119 1.03121,1.25122 -1.03121,1.25121 z M 91.765798,281.62201 c -0.425378,0 -0.773415,-0.42228 -0.773415,-0.93841 0,-0.51612 0.348037,-0.9384 0.773415,-0.9384 0.425378,0 0.773414,0.42228 0.773414,0.9384 0,0.51613 -0.348036,0.93841 -0.773414,0.93841 z m 3.867073,0 c -0.850756,0 -1.54683,-0.84457 -1.54683,-1.87681 0,-1.03225 0.696074,-1.87682 1.54683,-1.87682 0.850756,0 1.546829,0.84457 1.546829,1.87682 0,1.03224 -0.696073,1.87681 -1.546829,1.87681 z m 7.457929,-26.49308 c -1.12422,-0.11974 -3.262155,-0.60396 -4.750978,-1.07604 l -2.706951,-0.8583 0,-9.01664 0,-9.01664 2.390638,-2.40731 2.390641,-2.40731 -0.802604,-2.53773 -0.802603,-2.53774 4.212577,1.15539 c 2.31691,0.63547 6.08521,2.0966 8.374,3.24698 l 4.16142,2.09159 0.57599,2.87586 0.57598,2.87588 -1.78182,4.2117 -1.78182,4.21171 -0.91548,-1.11077 -0.91547,-1.11077 0.83233,-2.63174 0.83233,-2.63173 -1.60887,0 -1.60886,0 0.12848,5.48307 0.12848,5.48307 -2.4417,2.96259 -2.44169,2.96259 -2.04402,-0.21771 z m 279.50343,-23.51357 -1.58765,0.7392 -2.06046,-2.67626 -2.06045,-2.67628 0.80189,-2.53552 0.80191,-2.53551 -1.05355,-1.27762 c -0.57946,-0.70272 -1.18354,-3.10784 -1.34241,-5.34473 -0.15888,-2.2369 -1.11128,-10.82362 -2.11645,-19.08159 -1.00518,-8.25798 -1.73465,-17.92977 -1.62105,-21.49289 l 0.20653,-6.47838 3.33967,-4.31329 3.33968,-4.31328 -2.97659,-0.0597 -2.97658,-0.0597 2.81818,-2.59192 2.8182,-2.59192 -2.69062,-0.63281 -2.69061,-0.63281 -0.24302,-4.0126 -0.24301,-4.01261 4.22966,-3.03152 4.22965,-3.03152 2.4598,1.14528 c 1.35291,0.6299 2.51338,1.68835 2.57888,2.35209 0.0654,0.66375 0.23949,3.95171 0.3867,7.30659 l 0.26765,6.09978 -1.76804,-1.4e-4 -1.76804,-1.4e-4 -0.82318,2.6028 -0.82317,2.60279 2.87684,-0.9128 2.87684,-0.91281 1.58941,7.22487 c 0.87417,3.97368 2.52841,12.29226 3.67608,18.48575 1.14766,6.19348 1.92274,13.37228 1.7224,15.9529 -0.20035,2.58062 -1.85273,8.49258 -3.67194,13.13769 -1.81923,4.64511 -4.11944,10.32975 -5.11159,12.63252 -0.99215,2.30277 -2.51836,4.51952 -3.39156,4.92607 z m -184.43538,-38.23179 -3.43181,0.0283 0.89035,-2.81522 0.89037,-2.81522 8.72877,0.0824 8.72878,0.0824 -6.18732,2.70458 c -3.40302,1.48752 -7.73164,2.7173 -9.61914,2.73284 z m -7.14496,-5.13298 -0.78021,2.34602 -0.0984,-1.87681 c -0.0541,-1.03225 0.41296,-2.82502 1.038,-3.98394 l 1.13644,-2.10712 8.23458,-2.12548 8.23456,-2.12549 2.97011,2.52414 2.9701,2.52413 -1.02138,1.23927 -1.02138,1.23927 -10.44109,0 -10.4411,0 -0.78021,2.34601 z m 212.438,-9.85326 -2.06244,0 1.03121,-1.25121 1.03123,-1.25121 1.03122,1.25121 1.03121,1.25121 -2.06243,0 z m -70.45807,-5.74732 -1.46949,1.75992 -3.09366,-2.03671 c -1.70151,-1.1202 -3.3997,-2.35387 -3.77375,-2.74151 -0.37404,-0.38763 1.0181,-2.15448 3.09366,-3.92633 l 3.77375,-3.22156 3.86707,-0.24568 3.86707,-0.24569 0,4.44881 0,4.44882 -2.39758,0 c -1.31867,0 -3.05886,0.79197 -3.86707,1.75993 z M 267.82186,138.9272 c -0.6954,-0.0314 -2.48249,-0.91792 -3.97131,-1.97007 l -2.70695,-1.913 0,-2.61554 0,-2.61554 -2.92192,-2.48318 -2.92189,-2.48318 -2.36732,-6.87441 -2.3673,-6.87441 -1.01151,-17.493407 c -0.55635,-9.621375 -2.00462,-27.170832 -3.21837,-38.998794 -1.21375,-11.827964 -2.20681,-23.018458 -2.20681,-24.867765 l 0,-3.362376 4.43024,0 4.43023,0 1.05902,8.914859 c 0.58246,4.903172 1.39224,13.982252 1.79952,20.175733 0.40728,6.19348 1.17008,13.372288 1.69511,15.952905 0.52504,2.580617 1.08952,5.958879 1.25441,7.507249 0.16491,1.54837 0.8253,11.049733 1.46756,21.114136 l 1.16774,18.29892 1.40247,0 1.40248,0 0,4.31667 c 0,2.37417 0.61783,5.11901 1.37298,6.09964 0.75513,0.98064 1.84614,3.68325 2.42447,6.0058 l 1.05152,4.22283 -1.26437,-0.0571 z m 111.7795,-18.83002 c -0.91968,-0.0654 -3.23832,-0.88278 -5.15252,-1.81633 l -3.48037,-1.69737 0,-2.11677 c 0,-1.16422 -1.29118,-4.35856 -2.86932,-7.09853 l -2.8693,-4.98175 -1.00226,-12.05752 -1.00225,-12.057521 -2.31574,-3.10476 c -1.27368,-1.707618 -2.29362,-4.305108 -2.26657,-5.772199 0.0271,-1.467089 1.06198,-4.291588 2.29981,-6.276661 l 2.25062,-3.609226 6.59446,8.354097 c 3.62694,4.594752 8.62996,10.256764 11.11779,12.582247 l 4.52331,4.228151 0.1171,12.774065 0.11709,12.774067 -2.19492,4.99749 -2.19478,4.99749 -1.67215,-0.11897 z m 16.11638,-16.77235 -2.06243,0 1.03121,-1.2512 1.03122,-1.25121 1.03123,1.25121 1.03121,1.2512 -2.06244,0 z m -204.90633,-3.75362 -3.91561,0 -0.18318,-1.407609 c -0.1007,-0.774185 -0.1007,-2.041034 0,-2.815219 l 0.18318,-1.407609 -2.32025,0 -2.32024,0 0,-4.877593 0,-4.877593 2.42812,-6.208471 2.42813,-6.208473 7.67234,-4.004652 7.67233,-4.004652 1.39387,1.04524 1.39387,1.045238 0.86071,-1.68973 0.8607,-1.689732 6.59362,0.439206 c 3.6265,0.241561 7.75794,1.053464 9.18097,1.804229 1.42306,0.750762 2.89601,2.355429 3.27323,3.565926 l 0.68588,2.200902 -5.09887,5.917747 -5.09888,5.917749 -0.8813,-1.069315 -0.88131,-1.069316 0,2.189613 0,2.189615 -1.97876,0 -1.97877,0 -2.22476,3.745164 -2.22476,3.745164 -4.9703,1.13135 -4.9703,1.13135 -0.83203,2.630736 -0.832,2.630735 -3.91563,0 z m 204.13292,-3.753625 c -0.42538,0 -0.77342,-0.422282 -0.77342,-0.938406 0,-0.516123 0.34804,-0.938406 0.77342,-0.938406 0.42538,0 0.77341,0.422283 0.77341,0.938406 0,0.516124 -0.34803,0.938406 -0.77341,0.938406 z m -7.25904,-31.90581 -1.59282,0 1.02059,-6.600768 1.02059,-6.600767 -0.89767,-1.762314 -0.89767,-1.762314 -3.43114,1.556606 -3.43114,1.556604 -5.8006,-5.550511 -5.80061,-5.550511 0,-2.303617 c 0,-1.266989 1.41926,-4.152 3.15392,-6.411136 l 3.15391,-4.107519 10.76755,0 10.76754,0 0,12.446956 0,12.446956 -3.21982,6.321167 -3.21981,6.321168 -1.59282,0 z m -27.78763,-28.518489 -5.65691,0.572103 -0.93133,-1.828404 -0.93133,-1.828403 2.44495,-2.966527 2.44495,-2.966527 4.63758,0 4.63758,0 -0.49429,4.222828 -0.49429,4.222828 -5.65691,0.572102 z"
       style="fill:#d3a496" />
    <path
       style="fill:#bf896e"
       d="m 402.78271,495.57862 c -10.26958,2.08666 -25.48952,-9.72939 -12.28465,-14.43752 -6.64067,-7.57454 12.86325,-8.26301 -0.87251,-14.47185 13.83072,-9.53934 -11.56877,-3.54091 3.1894,-13.01312 3.91754,-11.42732 -13.54934,-18.51255 -7.2265,-32.80908 -9.33886,-12.05483 -17.36314,-27.97657 -5.33055,-43.54968 -0.76214,-17.04855 -0.44728,-36.64363 -9.62161,-50.99127 -6.52393,8.45896 -24.91704,-5.12222 -20.18647,10.29342 -9.55922,7.24331 4.36801,19.0737 -9.88868,21.64165 10.88135,14.76503 -6.61324,15.78863 -13.3605,19.06443 1.72078,18.20624 15.63003,40.9964 3.11755,57.08693 -27.00443,-0.31845 -22.89156,-33.19672 -30.00693,-50.85553 -3.15079,-12.32026 -11.14304,-17.42022 -21.02961,-26.55564 -7.89269,-1.79202 4.72579,-12.27909 -9.58432,-8.79959 -4.13499,-1.50883 7.17716,-11.15556 -6.31912,-8.9223 -10.89037,-6.29906 -28.8919,7.65114 -38.18138,-8.13541 -7.57056,-3.36733 -14.03142,-5.29538 -9.02684,-13.176 -13.25883,3.93436 -40.89494,-16.65701 -15.15386,-21.18163 20.52683,-9.17158 52.40792,9.78365 64.64259,-13.36172 15.11776,-22.52044 -12.56171,-44.88066 -13.33206,-68.52835 -2.30084,-9.85856 -4.83017,-37.89118 -10.82979,-31.65924 -4.75068,-12.04148 -2.39997,-28.28051 8.00182,-36.56059 5.34468,-5.90677 20.86881,-1.68822 12.90218,7.34224 -1.18674,-14.22467 -25.02353,-0.44438 -11.21688,10.53393 0.83707,19.522 6.38997,41.66624 9.07987,62.50725 2.32274,20.46754 19.13693,37.28661 10.15552,58.8292 5.35409,19.15761 14.86131,35.81369 20.11352,53.93404 9.61839,22.40314 22.29452,45.1626 27.97881,67.59659 12.63706,-3.02053 2.86812,-29.07795 3.05928,-40.45297 -5.33304,-16.23215 -18.61987,-31.21575 -17.48125,-48.42692 3.75384,-9.47361 3.25733,-12.86681 2.87552,-2.07293 7.76802,7.14061 -7.00781,10.89665 2.91456,21.70414 2.12137,17.51703 33.8592,-8.11106 8.71159,-5.37737 -1.24214,-6.22553 10.69551,-2.80365 2.4503,-9.93191 9.46006,5.1159 23.7351,-4.1703 7.17256,-11.59264 -11.18052,-2.75665 -21.791,-7.00172 -4.3165,-4.31579 12.1987,15.42953 38.84625,8.87159 30.01576,-10.96248 -17.06154,0.73523 -35.44949,-1.34094 -51.70401,5.10971 -4.59948,6.83339 -13.68735,12.25793 -14.34434,1.76637 -11.37789,-8.25671 8.23794,-10.0567 6.13154,-10.70508 2.91464,17.07852 24.18681,-3.45898 35.95487,1.82674 11.17554,-14.24278 46.53348,14.12674 39.10639,-11.52004 -17.05251,-17.64598 28.02968,-30.15406 18.38143,-44.15054 -23.93654,13.48206 -10.21465,-31.27377 -21.25968,-41.56491 1.64582,-15.3912 -9.92744,-28.58272 -25.65829,-18.49483 -17.21384,3.80414 -31.01911,-11.31797 -10.31626,-20.22508 11.69558,-2.80557 25.16764,0.52445 35.62825,-5.79382 3.9548,-12.40824 23.06846,-29.4729 24.66464,-6.63901 2.92194,9.06264 2.29144,36.41207 8.33397,33.34687 -1.27636,-8.55435 0.64007,-27.85946 5.67209,-9.24539 15.50466,18.54082 33.61748,36.51841 41.76009,60.14451 15.99488,35.9691 27.29077,73.8495 36.10991,112.15969 -2.51472,12.37218 -4.68584,-19.82278 -8.43116,-24.204 -6.23892,-20.54667 -11.89015,-41.90248 -21.42011,-60.12141 -4.88174,-22.90504 -17.5567,-39.48119 -32.45263,-59.67002 -4.86465,-12.9148 -24.98563,-25.28659 -20.71281,-1.40008 1.46408,21.29125 -9.47592,42.99444 -3.22029,62.80958 -4.39871,12.28934 -3.18856,-21.55334 -11.91303,-3.91686 -12.59346,8.62407 -25.11958,20.95166 -3.44896,23.61424 -3.21546,9.58445 8.16733,20.65432 2.55443,33.96553 -2.82212,23.5544 4.46201,47.09319 -1.63724,69.25507 2.48602,15.08454 10.36755,38.73375 17.64789,43.16652 -10.01203,6.01914 0.99703,23.24957 6.12638,17.46197 -14.46432,13.13742 2.69541,38.47723 8.58743,52.21063 -3.49516,1.78021 -7.56688,-0.4894 -11.27132,0.42135 z m -85.17984,-82.57975 c 3.14408,-2.26521 -3.14408,-2.26517 0,0 z m 9.73798,-50.7444 c 21.23899,-12.15149 -11.3143,-8.25467 -10.31685,-10.83672 2.27722,4.74452 6.54458,7.48666 10.31685,10.83672 z m -4.32408,-13.06722 c 13.62476,-4.80006 -13.06726,-4.89084 0,0 z m 17.69724,-11.26087 c 15.21296,-4.11315 -13.10633,-1.34705 0,0 z m -95.0387,-3.75362 c 10.69979,0.72338 -8.87501,-3.71334 0,0 z m 81.98195,-1.87682 c 6.6248,-4.61609 -6.43203,-4.74822 0,0 z m 15.46829,-1.87681 c 13.364,-2.5674 -12.39216,-4.77552 -1.08937,0 l 1.08937,0 z m 21.65561,-2.81522 c 6.63048,-6.99585 -6.11986,2.12864 0,0 z m -140.76146,-0.9384 c 10.69928,0.72318 -8.87489,-3.71323 0,0 z m 8.2121,-3.58282 c 10.48526,6.33058 33.42822,-11.23668 12.33875,-8.98021 -8.70448,3.08532 -27.98815,1.37752 -12.33875,8.98021 z m 113.21399,-0.17081 c 3.14407,-2.26516 -3.14406,-2.26521 0,0 z M 207.59542,311.65101 c 5.33676,-6.35338 24.54309,6.9723 18.85148,-5.38496 8.72064,0.4557 17.25767,0.40889 4.48509,-6.81864 -13.37653,-0.006 -34.72499,-7.8192 -23.33657,12.2036 z m 16.42428,-9.81949 c -15.53698,-0.6578 15.29586,-0.75429 0,0 z m 7.73414,9.81949 c 10.69925,0.72323 -8.8748,-3.71327 0,0 z m 10.3122,-4.37923 c 3.27178,-8.77487 -4.58672,0.96804 0,0 z m 51.04537,-1.87681 c 3.2718,-8.77503 -4.58678,0.96824 0,0 z m 89.48282,-73.77961 c 15.65854,-19.64842 12.96674,-48.07407 5.61852,-69.58753 -12.68247,-2.58554 9.66966,-18.0091 -6.75832,-22.64053 -18.40122,8.30856 3.66466,20.01691 -8.50431,29.92315 -3.38804,19.41924 5.35445,38.37509 3.93555,57.69161 2.0842,1.13088 2.44296,6.52881 5.70856,4.6133 z m 9.70077,-0.40782 c 0.62483,-15.40345 -4.88292,6.84349 0,0 z m 11.15689,-52.81021 c 10.6983,0.72275 -8.87472,-3.71303 0,0 z m -70.45807,-5.74732 c 26.8636,-19.98886 -27.02844,-5.57497 0,0 z m 92.88709,322.92861 c -14.40813,3.02192 -9.44714,-8.73567 1.88123,-7.79692 6.52761,-21.12641 2.656,-45.69337 3.65235,-68.27468 -4.82125,-43.97336 -12.52314,-87.73529 -20.90079,-131.20226 -6.18624,-22.44138 -11.1107,-45.27209 -5.40728,-68.36585 4.53556,-16.98485 31.54098,-2.92623 25.22399,11.1957 2.08631,20.64438 6.83066,41.8088 11.31005,62.60641 9.51946,20.78317 23.74904,39.82806 27.39114,62.64204 2.592,10.80724 -0.0434,32.22663 3.98983,36.44329 3.7493,-5.11482 11.06772,-31.35844 8.61822,-10.65458 -5.86077,13.24771 3.11081,28.39513 -1.02824,39.39848 -16.53859,1.65127 6.86066,-35.8948 -9.31978,-17.82487 -4.83754,-11.135 -6.78706,21.2822 -12.06391,27.06113 -0.74825,10.91115 9.30932,27.12827 12.08834,7.02129 3.88469,-10.55369 13.02474,19.15457 11.35986,26.67631 -3.90324,8.01371 -6.77585,9.4276 -12.65385,17.42978 -10.85378,-6.41838 -2.648,22.68679 -14.66312,10.99616 0.0332,-12.73426 8.86948,-45.1605 -8.93252,-45.02843 -14.7019,11.64973 -5.02205,38.19365 -14.1789,47.85586 l -3.65488,-0.30858 -2.71174,0.12972 z m 51.04537,-76.94931 c 3.14408,-2.26521 -3.14408,-2.26517 0,0 z m -27.68095,-4.8951 c 25.77249,1.84166 19.6013,-40.22636 9.01753,-50.76732 -2.84906,-20.30241 -12.49526,-42.02884 -22.84071,-61.26678 -1.49427,-16.18359 -7.64111,-31.9857 -14.65366,-48.53676 5.80771,-8.54301 -3.3814,-10.53351 2.01112,-20.07112 -12.53136,8.85325 3.61797,-23.56263 -14.61117,-11.91833 -5.56071,14.89796 13.83883,22.41336 0.45535,31.23074 -5.39953,18.73885 13.10989,38.16886 10.09229,59.36094 1.45057,29.59268 11.37138,57.64657 16.58794,86.55644 1.62818,6.43094 26.40299,6.58394 10.11002,13.80612 -4.3496,5.3166 1.57107,4.80958 3.83129,1.60607 z m -7.63832,-91.44793 c -4.12436,1.41532 2.47233,-7.96802 0,0 z m -28.10073,-85.70777 c -3.14408,-2.26517 3.14408,-2.26521 0,0 z m 62.64658,178.29718 c 10.69925,0.72323 -8.8748,-3.71327 0,0 z m -61.09975,65.68843 c -3.14407,-2.26516 3.14406,-2.26521 0,0 z m -24.74927,-31.90581 c -3.14407,-2.26516 3.14406,-2.26521 0,0 z m -258.51779,-9.4128 C 121.42329,432.69454 107.4029,433.19399 104.2418,417.96615 80.548427,410.13779 92.37502,384.9509 83.146455,368.82122 c -7.189032,-7.53306 23.431085,2.03348 6.296043,-8.08514 0.408546,-4.92955 -4.313006,-31.07999 5.985101,-15.30245 0.867505,-6.62856 -9.508982,-22.81215 7.210131,-19.75712 -12.594601,-1.7202 -5.718223,-17.19473 3.69907,-10.23797 0.24253,-12.58171 -27.763645,1.93989 -23.555768,-15.95217 -15.997237,-10.9361 -2.117675,-32.93594 7.61336,-44.83356 -8.131603,-16.11129 6.758706,-42.11407 25.330658,-27.23283 18.44852,12.8622 -8.00342,32.21511 -12.41765,44.17084 2.06432,16.05389 12.96855,39.1155 34.06067,29.02792 17.1994,-6.55327 47.77684,7.88249 28.96538,25.20495 1.41104,19.95732 -18.51206,-15.39474 -26.0973,5.28566 -10.80124,1.59626 -46.205823,-1.48658 -25.23017,16.0259 -1.99937,16.86399 19.66996,1.71215 31.78249,9.34635 15.26619,4.44126 10.64402,18.37863 7.62384,28.3651 11.55055,-1.9991 -6.17056,11.69452 -1.17601,19.37389 -11.16867,12.28022 10.93189,29.93531 -12.39335,28.91042 -9.29827,-2.7587 -11.76247,4.02157 -9.0569,6.1145 z M 116.51507,431.767 c 3.14406,-2.26521 -3.14407,-2.26516 0,0 z m 0.8647,-39.41306 c 4.44883,-2.6269 -5.96656,-2.39032 0,0 z m -9.37227,-3.75363 c 5.31643,-1.76719 -2.9831,-5.38496 0,0 z m -3.86707,-1.87681 c 3.14407,-2.26516 -3.14406,-2.26521 0,0 z m 17.01512,-13.13769 c 3.14408,-2.26517 -3.14408,-2.26521 0,0 z M 94.086041,353.87928 c 3.970677,-6.50871 -3.854754,-2.18098 -1.719965,0.77281 l 1.719965,-0.77281 z m 7.841029,-16.97147 c 3.72899,-7.40719 -8.552588,1.06469 0,0 z m 4.018,-8.99109 c 3.27178,-8.77487 -4.58672,0.96804 0,0 z m 53.24382,-11.67569 c 4.50004,-12.3842 -19.09126,-20.27335 -5.35974,-2.31512 l 2.38044,1.98322 2.9793,0.3319 z m 6.82471,1.04041 c 3.14408,-2.26517 -3.14408,-2.26521 0,0 z M 91.765798,281.62201 c 3.144058,-2.26518 -3.14406,-2.26518 0,0 z m 3.867073,0 c 6.624819,-4.61608 -6.432041,-4.74824 0,0 z m 7.457929,-26.49308 c 10.50003,0.94415 5.58146,-28.32805 9.55669,-9.77262 14.00207,-14.35284 -18.726625,-29.89719 -17.146856,-7.77487 0.551762,6.13142 -3.249695,19.54442 7.590166,17.54749 z M 85.578481,403.61481 c -3.144079,-2.26519 3.144078,-2.26519 0,0 z M 347.76604,368.89378 c -5.86471,1.81571 3.81608,-6.81105 0,0 z m 49.49853,-12.19928 c -9.24805,-10.05297 14.08588,-41.33707 8.62007,-15.01206 -4.36802,3.76744 -6.08975,12.53091 -8.62007,15.01206 z m -46.40488,-7.50725 c -7.78047,-6.05714 8.01814,-6.52683 0,0 z M 114.96824,341.68 c -3.14408,-2.26517 3.14408,-2.26521 0,0 z m 199.54097,-11.26087 c -3.14407,-2.26516 3.14406,-2.26521 0,0 z m 0.77341,-3.75362 c -10.69928,0.72318 8.87489,-3.71323 0,0 z m 4.64049,-4.69204 c -5.86472,1.81569 3.8161,-6.81105 0,0 z m -26.2961,-4.69203 c -5.63346,-6.07299 7.72615,-2.59033 0,0 z m -2.037,-31.5539 c -2.97478,6.58082 1.35606,-12.18852 0,0 z m 73.96456,1.52491 c -3.14407,-2.26522 3.14408,-2.26517 0,0 z m -75.53682,-8.13285 c -4.12439,1.41529 2.47232,-7.96801 0,0 z m -1.54683,-7.50725 c -4.12436,1.41532 2.47232,-7.96803 0,0 z m -1.54683,-9.38406 c -4.12437,1.41529 2.47233,-7.96802 0,0 z m -1.45334,-5.74387 c -5.22689,-11.81515 1.07578,-16.96559 0,0 z m 89.3648,-12.39866 c -3.14408,-2.26517 3.14408,-2.26521 0,0 z m -92.55874,-5.16123 c -3.06636,2.82489 1.42526,-15.31173 0,0 z m -1.31653,-10.61461 c -5.95816,-16.44473 -5.96536,-39.09597 -20.40458,-52.44311 9.54706,-21.24785 12.50003,19.3657 16.46929,30.09924 1.8857,7.32549 3.63086,14.75559 3.93529,22.34387 z m -68.92851,-26.54679 c -12.83288,-2.69372 -51.27275,-1.91275 -25.49318,-20.32067 17.30836,-4.30776 38.31127,-17.93785 53.16535,-2.71763 -10.48772,3.25057 -16.08813,11.45364 -27.28546,16.20153 13.89085,3.10409 11.18191,3.69582 -0.38671,6.83677 z m -13.87292,-8.37956 c 10.85431,-0.77887 19.1015,-7.87106 2.51448,-6.26522 -3.72967,-1.09207 -9.53191,7.33597 -2.51448,6.26522 z m -7.14496,-5.13298 c 6.47025,-3.76121 34.7776,-1.39781 14.84616,-9.58814 -4.77669,-0.1909 -19.19789,6.14193 -14.84616,9.58814 z m 77.42332,-23.70764 c -5.37988,-4.66548 0.12868,-8.73168 0,0 z m -1.87971,-23.14356 c -8.7337,3.69018 -14.2,-27.26439 -4.23666,-7.91496 10.58898,15.76174 2.44481,-13.35173 7.9012,4.86149 0.8845,2.04447 -1.55804,4.61813 -3.66454,3.05347 z m 131.74852,-5.76146 c -5.74916,20.02116 -0.50759,-29.93804 1.76379,-4.8838 -0.88752,1.5228 -1.26316,3.22535 -1.76379,4.8838 z m -131.69088,-6.03772 c -8.03862,-17.09392 -5.8841,-36.228751 -8.50832,-54.561942 -1.63948,-16.2279 -3.59005,-32.423398 -5.11787,-48.66274 9.80651,18.862466 4.62368,43.218734 8.3212,64.370176 0.78639,13.090086 3.48112,25.912766 5.30499,38.854506 z m 113.44492,-1.87681 c -20.03657,-13.95022 -22.543,-39.451038 -32.67886,-59.685989 -7.64508,-15.418438 -25.37841,-36.08035 -1.434,-36.085578 7.18065,-8.990566 11.58725,-4.978733 8.31942,2.900108 9.75705,9.360388 17.2526,-19.326565 17.58893,-3.328119 -12.03551,11.877354 11.50907,17.125154 15.86251,19.550715 -1.3532,8.844119 -1.79037,18.820079 5.85787,5.966945 0.15376,11.918742 -13.6659,16.281206 -7.747,0.254414 -0.32852,-17.166228 -18.1627,10.372733 -3.62076,14.550616 11.87349,15.230086 7.18466,38.791498 0.75614,55.876888 -0.96808,0 -1.93617,0 -2.90425,0 z m -0.4587,-7.62622 c 10.16109,-12.46884 9.63816,-36.767413 -4.99612,-46.112944 -5.55994,-16.580725 -23.00416,-12.637776 -12.01665,4.12609 3.647,13.808495 -0.69568,36.975824 17.01277,41.986854 z m -6.31264,-63.692654 c 3.14407,-2.265212 -3.14408,-2.265168 0,0 z m -6.52549,-3.885537 c 19.90177,-4.637566 -17.29853,-16.705824 -0.84416,-3.964805 2.34332,1.931347 -4.15383,5.237733 0.84416,3.964805 z M 254.31692,123.96977 c -11.25016,-23.25613 -6.29507,-50.699981 -11.42999,-75.662174 -2.14023,-10.720395 0.12394,-30.614479 2.09747,-8.244053 2.90607,25.041792 3.1993,50.530201 7.04601,75.351187 1.01364,2.76787 2.17251,5.56126 2.28651,8.55504 z m 145.01485,-7.53599 c -8.12678,-11.22763 -12.05841,-33.613953 -4.57038,-45.866045 8.31714,8.652989 4.45205,34.100865 4.61996,45.867185 l -0.0496,-0.001 3e-5,-4e-5 -10e-6,-1e-4 z m -3.61403,-13.10895 c 10.69624,0.72196 -8.87421,-3.712658 0,0 z m -0.77341,-7.507245 c 3.14407,-2.26521 -3.14408,-2.265166 0,0 z m -204.31092,9.018005 c -27.58886,4.88977 -15.7375,-37.444943 4.46953,-38.299919 -17.68324,3.605246 -16.20001,42.968049 1.99702,28.836862 9.87873,-6.540643 29.55769,-15.844954 27.22965,-28.353932 -8.97411,-4.664203 -17.62022,-8.398552 -1.6452,-8.439063 23.16566,14.399499 -9.7415,39.283635 -24.14282,46.607432 -2.63606,-0.11713 -5.27212,-0.23425 -7.90818,-0.35138 z m 8.63702,-39.047002 c -10.69797,0.722644 8.87461,-3.712981 0,0 z m 6.2942,-1.018556 c -10.83601,2.959135 5.77337,-9.529093 0,0 z m 3.76019,-0.858257 c -3.14408,-2.265166 3.14407,-2.26521 0,0 z m 185.61951,-9.384062 c -3.14408,-2.265166 3.14407,-2.26521 0,0 z m 1.90229,-9.895125 c -1.12845,16.772785 -0.86409,-37.1472291 0.13019,-8.224667 l 0.0317,4.444332 -0.16192,3.780335 z"
       id="path4620"
       inkscape:connector-curvature="0" />
    <path
       style="fill:#8d5637"
       d="m 74.15767,495.57862 c -17.986205,0 -35.972409,0 -53.958614,0 -4.828364,-40.67791 0.476046,-81.74844 -2.461588,-122.48934 -1.346807,-17.03821 20.648729,-5.20325 18.205723,-21.41358 10.569967,-10.79442 5.161082,-30.42029 5.510378,-34.65084 11.11869,-5.20759 -12.980209,-16.19106 5.798732,-10.92255 16.468519,-5.39274 -23.360536,-3.48527 -19.910353,-19.66405 -8.643531,-20.96665 -12.774171,-55.53932 -6.895105,-69.18892 10.183742,19.51348 39.584966,37.47501 47.963253,6.85424 22.051397,-18.35763 63.948414,-5.36395 66.724214,25.03331 -8.89193,29.02858 15.69792,54.53526 45.74716,47.08663 24.00465,-10.84447 55.58809,-1.48657 74.9788,-22.53863 6.40742,-25.36081 -33.99461,-20.66145 -45.52089,-34.8299 -18.19146,-3.8748 -32.90858,-18.80151 -53.88223,-20.20868 -13.19209,-7.6069 -33.69754,-24.86531 -8.8783,-33.88831 27.28584,-6.28466 57.53543,-11.72381 79.27312,-32.09543 4.7949,-11.49084 12.14403,-16.93192 24.29107,-14.74699 -0.88855,-31.42014 -35.57464,-3.84283 -52.81595,-11.18287 -18.30983,1.71974 -61.25595,-0.0432 -44.06783,-28.531561 0.35796,-15.505227 37.13704,-37.729754 34.34659,-31.427504 -21.53486,5.268456 -34.17756,44.215585 -3.15028,44.373935 21.66346,6.82631 39.15423,-17.872715 57.40499,-14.399232 0.17785,19.210472 28.43848,44.021032 -1.75568,52.163762 -15.31426,20.45959 -44.15956,21.48307 -65.72332,34.45096 -18.30731,-1.53911 -22.40439,22.38931 -1.03677,18.6765 18.70389,16.93845 47.59393,8.1379 67.41662,23.65032 13.30656,13.62237 38.47297,45.69634 14.31545,59.56568 -23.24077,9.06844 -49.40244,1.99678 -71.58499,15.03762 -21.62824,3.03968 -45.8002,-4.7891 -65.41694,-14.67456 -8.72416,-17.67269 23.69842,-32.24493 4.57007,-53.4349 -15.43848,-24.68363 -52.683006,-8.25522 -40.748023,19.10777 -8.129399,10.95269 -30.93944,10.86357 -28.859384,32.31093 -0.240695,10.10437 1.458854,20.60998 4.169854,12.19099 7.622996,17.40952 1.034989,36.19995 4.48685,57.34091 2.604621,9.20354 2.9811,13.11535 -3.044615,16.47292 12.150484,7.17649 1.992284,35.78383 20.483825,44.80888 14.226075,11.27165 20.816223,37.30607 45.293933,35.12999 21.18681,2.15649 40.60152,10.01081 39.25222,32.4784 5.83996,26.52636 -36.77354,6.57461 -52.06675,13.2068 -12.811502,0.7168 -25.634383,0.11685 -38.45524,0.3473 z m 35.7972,-3.75363 c 12.34296,-14.97261 47.95793,10.53695 40.7951,-16.45044 -18.33291,-23.90532 -51.932277,-11.91714 -73.04041,-32.92969 -19.104339,-8.41901 -11.109177,16.47782 -11.780397,22.93571 -25.473571,12.34854 25.633954,28.5851 40.395167,25.97121 z M 27.008086,371.64932 c 19.103237,-1.52223 3.903653,-10.60916 0,0 z m 29.954054,-7.44757 c 6.782801,-4.22773 -6.312833,-4.05157 0,0 z m -1.663776,-46.92031 c 11.244291,-5.71966 -0.998753,-8.83675 0,0 z M 159.05287,200.91908 c 8.62122,-1.01377 -8.9716,-2.61219 0,0 z m 102.03922,294.65954 c -11.89488,-5.6184 -14.96652,-10.56128 -25.28585,-17.44545 13.93953,8.28557 -2.80571,-12.85358 -9.768,-15.29377 -14.10244,-0.29404 31.76604,-7.789 7.36284,-9.08445 -7.73366,4.53231 -30.06852,-12.6638 -12.47504,-12.02492 -12.23729,-11.9539 23.02883,-3.13211 5.99162,1.64298 11.14708,8.26339 25.18167,-5.14187 12.2632,-10.00535 24.13795,-5.27312 2.75797,-26.78936 -14.38938,-20.49119 -26.29669,-4.95382 -38.90574,-27.57925 -50.35415,-48.35902 -13.27807,-17.20443 2.0854,-48.82194 21.14974,-35.56923 -0.50684,4.87126 20.03958,2.70853 6.0036,7.59378 15.49501,8.76769 46.93888,13.56808 48.85045,27.60256 12.32302,5.75216 28.49538,19.38682 35.91883,24.56862 -16.29206,-1.68262 -8.84598,6.14051 2.94503,5.56291 8.59055,11.78416 -29.62703,11.91364 -5.71225,17.34404 8.75792,16.06176 16.05181,22.81196 35.96719,28.33942 -4.44919,6.75806 1.90891,24.25685 -2.56924,21.34943 -18.11304,2.15977 -7.81826,24.9732 -27.52564,22.02287 -6.82949,12.56509 -11.65388,13.31287 -24.22404,5.78769 l -1.93884,2.0236 z m 17.2189,-3.75363 c 7.90749,-6.78604 -12.44679,-1.27586 0,0 z m -23.35471,-1.87681 c 6.7828,-4.22773 -6.31283,-4.05158 0,0 z m -5.32261,-7.50725 c 6.56896,-3.65472 -8.16028,-1.5804 0,0 z m -10.14568,-9.38406 c 14.68231,-5.07007 -4.66806,-8.3796 0,0 z m 9.18968,-9.38406 c 10.94747,-4.14389 -6.64974,-6.31579 0,0 z m 53.4569,-13.13769 c 3.44669,-2.1383 -3.44669,-2.13832 0,0 z m 0,-11.26087 c 3.44669,-2.13829 -3.44669,-2.13833 0,0 z m -6.96073,-4.69203 c 5.7835,-11.35683 -7.56663,4.42729 0,0 z m -36.22159,-8.59383 c 11.79005,-1.95726 -13.0654,-1.22091 0,0 z m 26.1672,0.14817 c 3.44668,-2.13828 -3.44667,-2.13832 0,0 z m -19.47179,-2.71291 c 12.56807,2.46559 26.44127,-12.53179 6.47222,-5.37434 -0.6287,0.13361 -12.05313,7.93989 -6.47222,5.37434 z m -10.78267,-2.91753 c 10.00362,-5.11101 -8.63698,-6.92566 0,0 z m 18.00873,-3.9018 c 11.79,-1.95728 -13.06532,-1.22087 0,0 z m -47.98931,-5.48226 c 3.88575,-5.47274 -7.19906,-2.87877 0,0 z m 42.35521,0 c 10.94747,-4.14388 -6.64972,-6.31578 0,0 z m -41.01779,-14.56748 c 20.45589,-0.31607 -4.2928,-32.50839 -15.442,-18.03082 -7.58305,-6.08897 -25.74816,-29.43914 -30.57912,-14.20574 7.75711,4.62638 14.91605,2.00275 12.05454,12.47351 9.0608,11.67674 17.97531,20.58941 33.96658,19.76305 z m 8.62567,-41.73689 c 11.43968,-4.88614 -11.14636,-2.27241 0,0 z m -36.35049,-1.87681 c 3.44668,-2.13828 -3.44667,-2.13832 0,0 z m -2.83584,-15.6401 c 7.95663,-9.81707 -5.90459,-0.56872 0,0 z m 278.17145,158.27784 c -19.95179,-0.48057 18.73452,-33.41822 8.50535,-8.24432 2.09862,6.30734 -1.83031,10.48238 -8.50535,8.24432 z m -0.77342,-2.81522 c 5.78345,-11.35677 -7.5666,4.42726 0,0 z M 220.92604,474.93368 c -8.62119,-1.01381 8.97156,-2.61215 0,0 z m 6.18732,0 c -8.62119,-1.01381 8.97156,-2.61215 0,0 z m 125.82713,-8.43882 c -15.95637,3.30657 2.20754,-22.71756 0.87982,-6.11449 8.73756,-3.81791 34.9021,-7.95709 12.35797,1.32978 -4.26178,1.9803 -8.49302,4.23022 -13.23779,4.78471 z M 340.8053,454.28875 c -3.44669,-2.13833 3.44669,-2.13829 0,0 z m -180.97902,-1.87682 c -3.44669,-2.13832 3.44669,-2.1383 0,0 z m 208.82195,0 c -3.44667,-2.13831 3.44667,-2.13831 0,0 z m -6.96073,-2.17314 c -13.8209,-1.31011 13.14188,-1.39087 0,0 z M 165.24019,446.7815 c -8.62123,-1.01369 8.97157,-2.61226 0,0 z m -56.45927,-3.75363 c -3.44669,-2.1383 3.44669,-2.13832 0,0 z m 105.31328,-3.9018 c -12.12111,-1.78603 11.98448,-1.49805 0,0 z m -4.67809,-5.48226 c -14.51626,-5.52855 9.97503,-4.79657 0,0 z m 20.01749,-0.16066 c -11.83283,0.60977 -4.16032,-7.07885 0,0 z m 11.08561,-11.72581 c -4.62461,1.26816 3.84416,-7.58684 0,0 z m -67.54488,-7.82006 c -6.97161,1.08937 8.47942,-10.24626 0,0 z m 117.04342,0.31281 c -4.62463,1.26818 3.84415,-7.58683 0,0 z m -94.5231,-5.00484 c -11.33085,-3.20651 9.49055,-4.76639 0,0 z M 481.85,402.0899 c -3.17084,7.03262 1.77915,-15.83145 0,0 z M 371.98833,374.14978 c -15.95905,-2.34313 11.00759,-14.32778 0,0 z m -7.98059,-15.57846 c -3.44669,-2.13833 3.44669,-2.13829 0,0 z m 69.98354,-5.97375 c -17.44284,-2.8189 -10.53869,-47.29078 2.34055,-20.45075 1.43498,5.21988 6.41866,19.30614 -2.34055,20.45075 z M 316.56443,341.13975 c -21.44207,-12.45378 4.28151,-18.73273 1.82176,0.29671 z m -6.41247,-8.49191 c 2.2422,-15.08122 -3.60195,5.12614 0,0 z m 171.88948,-3.11746 c -8.4421,-2.63673 3.67521,-9.24024 0,0 z m -281.22418,-0.98806 c -15.98502,-6.46071 13.23546,-5.6313 0,0 z m 119.87926,-2.12358 c -16.28254,1.65474 4.85586,-17.82315 0,-5e-5 z m 158.03763,-4.1364 c -5.04807,-8.61694 1.42906,-13.65812 0,0 z m -166.93189,-1.35881 c -7.96042,-4.17607 -3.9642,-10.73317 0,0 z m 15.08158,0.11154 c -3.44667,-2.13832 3.44668,-2.13828 0,0 z m 4.29358,-1.87681 c -10.66486,-5.38086 -0.72819,-13.29127 0,0 z M 67.54915,309.31045 c -13.17588,3.08515 1.178966,-16.02675 0,0 z m 247.34817,0.61218 c -17.18243,0.36681 13.47118,-3.13358 0,0 z m 8.11945,1.72838 c -8.62124,-1.01371 8.97155,-2.61225 0,0 z m 152.80246,-3.54061 c -6.011,-10.04509 -11.29559,-42.6312 -3.28975,-13.93877 1.3537,4.5783 2.62342,9.20118 3.28975,13.93877 z M 300.83876,295.2289 c -16.63595,-17.40802 -11.61988,-44.09929 -17.32284,-65.73889 -5.73141,-14.15145 -13.18817,-47.19111 11.28645,-38.63072 11.21962,-30.57021 32.37711,4.33574 53.2185,0.83271 22.54568,21.99214 31.18277,60.22874 11.30141,86.74039 -13.63384,18.54245 -41.0243,5.23462 -58.48352,16.79651 z m 27.59191,-8.64192 c 22.78229,3.24413 35.49229,-23.86678 29.9919,-41.59451 -7.70185,-11.93204 -26.22736,-5.3348 -21.32908,-22.61329 -24.95122,-16.24539 -34.27618,13.65589 -27.80689,33.44615 -17.53789,8.74432 3.52351,34.35781 19.14407,30.76165 z m -13.92146,-63.14615 c -3.44669,-2.13829 3.44669,-2.13833 0,0 z m -16.24171,48.79712 c 8.62122,-1.01372 -8.97158,-2.61224 0,0 z m 63.44523,-10.34139 c 5.86267,-7.53664 -6.2585,0.19521 0,0 z m -74.18174,-38.45573 c 9.23326,-4.20918 -10.99774,-1.77289 0,0 z m 177.35229,48.08194 c -13.66043,-34.50324 -28.01843,-69.20919 -49.60476,-99.64146 -10.16935,-21.52355 -13.6858,-42.74072 -12.55808,-66.38668 -0.36329,-20.240088 1.00494,-40.977927 -6.63139,-51.950083 -0.56865,-10.327809 8.19303,-38.118653 7.88558,-12.292998 3.67701,45.146039 -2.87089,92.970171 17.5318,135.050711 18.20197,29.86238 34.107,61.37429 43.37685,95.22051 z M 409.1236,134.60504 c 7.95634,-9.81695 -5.90464,-0.56835 0,0 z M 41.493847,236.57851 c -8.621205,-1.01379 8.971598,-2.61217 0,0 z M 293.52316,175.46546 c -32.00453,7.79638 -23.18729,-32.07607 -25.75542,-49.92927 -7.05841,-31.438899 -3.99399,-64.029123 -9.59196,-95.666721 13.09968,2.967398 21.1841,37.070389 31.96522,29.664871 -2.13057,-11.133998 9.28269,-37.114067 17.74694,-30.06722 -21.32318,27.125618 30.23162,32.843737 34.42945,57.202466 9.5213,19.329194 46.01619,39.502574 18.62706,61.313904 -19.95917,4.76705 -39.74414,7.18793 -52.73397,25.91463 -4.40172,2.59813 -9.82739,2.81736 -14.68732,1.56734 z m 1.34079,-6.75255 c 23.97595,-6.29432 46.27366,-20.15814 68.71677,-29.12637 10.9956,-23.78602 -24.43836,-35.79321 -42.6499,-29.98485 -18.9956,2.60816 -4.81939,-36.307955 -30.43112,-26.201155 -0.89081,17.344395 11.91593,43.346945 -9.17528,56.642825 -21.02106,10.88139 -8.5557,34.18965 13.53953,28.66955 z m -17.47864,-22.22139 c -3.44668,-2.13828 3.44667,-2.13832 0,0 z m 14.69487,-58.181184 c -8.62121,-1.013838 8.97162,-2.612122 0,0 z m -17.53072,35.033834 c 7.9568,-9.81714 -5.90453,-0.56895 0,0 z m 17.53072,-47.233114 c 5.78339,-11.356693 -7.56657,4.427207 0,0 z m -14.69487,-2.815219 c 3.44668,-2.138323 -3.44669,-2.138289 0,0 z M 265.01067,56.404526 c 3.44669,-2.138291 -3.44668,-2.138325 0,0 z m -1.54683,-9.384062 c 3.44669,-2.138289 -3.44668,-2.138323 0,0 z M 422.10513,169.01327 c -8.94145,-3.03931 7.72138,-4.13767 0,0 z m -2.41153,-7.50725 c -3.44668,-2.13828 3.44667,-2.13832 0,0 z m -3.09366,-13.13769 c -3.44669,-2.1383 3.44669,-2.13832 0,0 z m -5.92951,-28.77779 c -4.62459,1.26825 3.84413,-7.58688 0,0 z M 224.79311,97.694398 c -3.44668,-2.138318 3.44668,-2.138295 0,0 z m 17.01512,-9.384062 c -3.44668,-2.138323 3.44669,-2.138289 0,0 z m 170.15122,0 c -3.44669,-2.138289 3.44668,-2.138323 0,0 z M 202.36409,62.034963 c -8.62121,-1.013798 8.97158,-2.61216 0,0 z m 179.1012,0 c -4.96084,-7.840115 9.23754,-6.097174 0,0 z M 211.64506,58.997738 c 3.59831,-2.377115 26.78019,-19.519126 4.4393,-23.484258 -11.07534,-2.477574 -20.05184,-13.102745 -2.50701,-8.882163 22.17343,-12.527389 36.32075,34.970348 8.48877,28.348028 -3.48884,1.301158 -6.75887,3.197901 -10.42106,4.018393 z m 104.41098,-4.470025 c -3.44669,-2.138289 3.44668,-2.138323 0,0 z m 3.09365,0 c -3.44668,-2.138323 3.44669,-2.138289 0,0 z"
       id="path4616"
       inkscape:connector-curvature="0"
       sodipodi:nodetypes="cccccccccccccccccccccccccccccccccccccccccccccccccccccccccccccccccccccccccccccccccccccccccccccccccccccccccccccccccccccccccccccccccccccccccccccccccccccccccccccccccccccccccccccccccccccccccccccccccccccccccccccccccccccccccccccccccccccccccccccccccccccccccccccccccccccccccccccccccccccccc" />
    <path
       inkscape:connector-curvature="0"
       id="path4614"
       d="m 19.34807,494.05371 -0.812425,2.46331 -0.122118,-3.59723 -0.122118,-3.59721 0.934543,1.1339 0.934542,1.13391 z m 453.71113,-1.29031 -1.54683,1.15993 0,-1.98757 0,-1.98758 1.54683,0 c 0.85076,0 1.54683,0.37244 1.54683,0.82764 0,0.4552 -0.69607,1.34961 -1.54683,1.98758 z m -363.10433,-0.93841 c -3.33974,0 -6.36227,-0.34094 -6.71676,-0.75765 -0.35448,-0.41671 -5.865056,-1.22557 -12.245727,-1.7975 -6.380671,-0.57192 -13.271071,-1.62922 -15.312002,-2.34958 -2.04093,-0.72034 -7.215663,-4.11037 -11.499407,-7.53339 l -7.788626,-6.22366 -0.455677,-3.62287 -0.455679,-3.62285 5.961123,0.97013 5.961122,0.97012 0,-4.79692 0,-4.79691 -2.12689,-0.99026 -2.12689,-0.99028 0,-5.55529 0,-5.55527 2.558233,-3.10399 2.558232,-3.10397 5.562621,1.21117 5.562621,1.21118 1.64237,2.57272 1.642371,2.57273 4.544946,1.33652 c 2.499721,0.73509 6.285129,2.74924 8.41202,4.47589 2.12689,1.72665 6.839699,4.1763 10.472919,5.44366 l 6.60584,2.30427 1.52403,-1.14284 1.52403,-1.14283 5.01817,1.94394 c 2.76,1.06919 8.37424,2.44971 12.4761,3.06786 l 7.45791,1.12389 2.55354,3.61852 c 1.40444,1.99019 3.35772,3.61853 4.34061,3.61853 0.98289,0 2.47043,1.0557 3.30564,2.34601 0.83522,1.29031 1.92813,4.97543 2.4287,8.18915 l 0.91012,5.84314 -3.87476,2.14208 -3.87476,2.14208 -4.16514,-1.20596 c -2.29083,-0.66327 -4.86122,-1.8585 -5.71197,-2.65603 -0.85076,-0.79755 -4.0018,-2.00657 -7.0023,-2.68675 l -5.45547,-1.23665 -4.06949,3.88393 -4.06949,3.88393 z m 116.26696,-95.27041 -1.57643,1.18211 -1.95967,-1.4695 -1.95968,-1.46953 -3.58577,0.83169 -3.58576,0.83169 -1.04602,-2.05355 -1.04601,-2.05355 -3.77579,0 -3.77578,0 0,-3.98342 0,-3.98344 -2.04768,2.06196 -2.04769,2.06196 -1.81938,-2.20751 c -1.00068,-1.21415 -1.8194,-3.25757 -1.8194,-4.54097 l 0,-2.33342 -2.99147,-2.54229 -2.99146,-2.54229 1.42094,-2.72538 c 0.78152,-1.49893 1.42095,-3.56992 1.42095,-4.60217 l 0,-1.87681 -1.40524,2.69454 -1.40525,2.69454 -2.19375,-2.20907 -2.19376,-2.20904 -1.03377,1.25433 -1.03378,1.25431 -2.25508,-3.61662 c -1.24028,-1.98914 -2.27719,-4.35345 -2.30426,-5.25402 l -0.0492,-1.63743 2.30055,2.31659 2.30054,2.31659 2.43799,-1.13512 2.43797,-1.13511 -1.152,-2.26166 -1.15202,-2.26163 5.30775,3.76119 5.30776,3.76119 0,2.59071 0,2.59072 5.31355,1.67062 5.31358,1.67061 -2.17656,1.63215 -2.17656,1.63215 2.2769,0.88261 c 1.25229,0.48544 4.14074,1.37619 6.41879,1.97947 l 4.1419,1.09685 2.69454,-3.26935 2.69453,-3.26935 0.63991,2.32925 0.63991,2.32926 2.96474,0 2.96476,0 0,2.81522 0,2.81522 2.48794,0 2.48794,0 -0.95004,4.59271 -0.95003,4.59271 2.71588,1.95599 2.71588,1.95602 -4.68476,-0.34744 c -2.57662,-0.19108 -5.39414,0.18449 -6.26115,0.83471 z m -27.72482,-43.6137 c -0.42537,0 -0.77341,-0.42228 -0.77341,-0.93841 0,-0.51612 0.34804,-0.9384 0.77341,-0.9384 0.42538,0 0.77342,0.42228 0.77342,0.9384 0,0.51613 -0.34804,0.93841 -0.77342,0.93841 z m 111.65495,-20.29304 -0.81243,2.46332 -0.12204,-3.59723 -0.12205,-3.59721 0.93455,1.1339 0.93453,1.13391 -0.81242,2.46331 z m 3.58383,-9.73596 -1.54683,0 0,-2.72196 0,-2.72196 -2.70695,-1.93572 -2.70695,-1.93575 2.32024,-1.8824 2.32025,-1.88241 4.64049,-0.001 4.64048,-10e-4 3.74492,2.31835 3.74492,2.31836 0.70618,2.59501 0.70616,2.59501 -7.15803,-1.3024 -7.15805,-1.30241 0,2.93023 0,2.93021 -1.54683,0 z M 174.80717,298.29257 c -0.58267,-0.12143 -4.35645,-0.89434 -8.38616,-1.71764 -4.0297,-0.82328 -10.99043,-2.95566 -15.46829,-4.73863 l -8.14156,-3.24175 -4.09209,-5.48138 -4.09209,-5.48138 -0.7742,-4.9139 -0.7742,-4.91393 1.57923,-4.20543 1.57924,-4.20545 -1.07333,-10.42321 -1.07333,-10.42324 -6.80794,-7.27099 -6.80795,-7.271 -8.69139,-4.03552 -8.69138,-4.03554 -13.010405,0 -13.010405,0 0,3.75362 0,3.75363 -1.45554,0 c -0.800548,0 -1.859741,-0.79354 -2.353764,-1.7634 l -0.898223,-1.7634 -5.320432,4.10941 -5.320433,4.10942 0.765856,2.66516 0.765853,2.66517 -1.985926,1.52893 -1.985927,1.52891 2.320244,0.10228 2.320243,0.10229 -4.763802,2.51678 -4.763803,2.51679 -7.520464,-0.3845 -7.520464,-0.3845 -0.605978,-2.20575 -0.605976,-2.20591 -1.804633,-0.005 -1.804635,-0.005 -3.101804,-7.03298 -3.101803,-7.03298 -2.645196,-0.0215 -2.645196,-0.0215 -2.32466,-3.73208 -2.324659,-3.7321 -0.04919,-94.30982 -0.04919,-94.309822 89.578452,0 89.57845,0 9.03192,4.14774 c 4.96755,2.281257 11.29414,5.742942 14.0591,7.692633 l 5.0272,3.544893 0,3.415169 0,3.41517 -5.15965,3.86911 -5.15965,3.869111 -15.33584,4.946949 c -8.43471,2.720822 -18.12013,6.558447 -21.52316,8.528055 l -6.18731,3.581104 -6.57403,7.530228 c -3.61571,4.141625 -6.57402,8.314573 -6.57402,9.273215 0,0.958644 -1.39215,2.646985 -3.09366,3.751868 l -3.09366,2.00888 0,4.515237 0,4.51523 -1.36848,1.0262 c -0.75267,0.56441 -1.67974,3.59926 -2.06015,6.74411 l -0.69166,5.71792 2.44685,-0.36283 c 1.34577,-0.19955 4.31472,0.27115 6.59766,1.046 l 4.1508,1.40883 -0.90266,2.85413 -0.90267,2.85412 4.83498,-1.28848 4.83497,-1.28848 1.92101,1.44052 1.921,1.44052 24.79954,0.21032 24.79954,0.21033 4.64049,-1.81921 c 2.55227,-1.00056 5.10949,-2.68226 5.68271,-3.73711 l 1.04224,-1.9179 2.55603,2.57385 2.55602,2.57385 1.40525,-2.69453 1.40525,-2.69454 0.0237,2.28711 0.0237,2.28711 2.32025,-1.0803 2.32024,-1.0803 0,2.7871 0,2.7871 3.1942,2.57493 3.19422,2.57494 -1.07358,3.39228 -1.07356,3.39228 -2.07111,-0.9643 -2.0711,-0.9643 -0.91423,1.79485 c -0.5028,0.98716 -1.5692,1.79484 -2.36975,1.79484 l -1.45553,0 0,-3.19058 0,-3.19058 -1.8562,2.25217 -1.85619,2.25218 -2.78429,0 -2.7843,0 0,4.40115 0,4.40115 -2.82875,3.1061 c -1.55581,1.70835 -3.30982,3.1061 -3.8978,3.1061 -0.58799,0 -3.66551,1.93455 -6.83894,4.29899 -3.17343,2.36445 -8.9022,5.83793 -12.7306,7.71883 -3.82841,1.88091 -9.39699,4.48511 -12.37464,5.78711 -2.97764,1.30201 -10.28641,4.12576 -16.24171,6.275 l -10.8278,3.90773 -10.45924,0.79382 -10.45924,0.79383 -5.20015,4.32334 c -2.86008,2.37783 -6.02421,5.92435 -7.0314,7.88116 l -1.83124,3.55782 1.82504,2.66815 1.82503,2.66815 2.90426,0 2.90426,0 0,1.87681 0,1.87682 3.1422,0 3.14221,0 0.91231,2.88463 0.91232,2.88463 4.83975,3.03817 c 2.66186,1.67098 8.32011,4.27545 12.57389,5.78771 l 7.73415,2.74957 9.28097,0.57952 c 5.10454,0.31876 9.54023,0.63902 9.85708,0.71171 0.31687,0.0726 -0.23899,1.32384 -1.23522,2.78031 l -1.81135,2.64812 2.00865,1.52786 2.00865,1.52786 2.70695,-0.54034 2.70695,-0.54033 0,3.13399 0,3.134 2.70695,-1.44184 c 1.48882,-0.79301 4.42576,-1.38348 6.52652,-1.31212 l 3.81957,0.12969 0.56311,2.04974 0.56312,2.04972 2.25915,0 2.25914,0 -0.4545,3.28442 -0.45453,3.28442 6.29671,-0.59767 6.29671,-0.59767 8.39817,4.54737 c 4.61899,2.50104 9.68238,5.09682 11.25198,5.76836 l 2.8538,1.22102 0.81549,3.78371 0.81551,3.78371 2.1313,-2.14617 2.13131,-2.14618 0,1.26143 c 0,0.69376 -1.07395,3.78123 -2.38656,6.86102 l -2.38655,5.59962 -8.05454,4.39696 c -4.43,2.41833 -10.9196,5.34623 -14.42133,6.50646 l -6.36678,2.10952 -9.10151,3.2e-4 -9.10151,3.2e-4 -11.64738,2.70426 c -6.40605,1.48733 -13.58611,3.5986 -15.95569,4.69169 -2.36958,1.09311 -4.78506,1.88813 -5.36775,1.76672 z m -133.313323,-61.71406 2.062439,0 -1.031218,-1.25121 -1.031221,-1.2512 -1.03122,1.2512 -1.031218,1.25121 z m 286.936823,50.00847 -10.8278,0.85698 -5.41391,-6.13061 c -2.97764,-3.37185 -5.24427,-6.77723 -5.03695,-7.5675 0.20732,-0.79028 -1.371,-2.82651 -3.50741,-4.52497 l -3.88436,-3.08807 1.76327,-2.57788 1.76328,-2.57786 2.80002,0 2.80001,0 1.00594,-3.84551 1.00593,-3.84553 -2.27351,-4.21001 -2.2735,-4.21001 2.24641,-5.20209 2.24643,-5.2021 -1.02142,-5.64254 -1.02141,-5.64256 2.85376,-2.62348 2.85376,-2.62347 4.22247,-0.0597 4.22249,-0.0597 6.21547,3.01748 6.21548,3.01748 2.32339,-1.08177 2.32338,-1.08176 0,2.52651 c 0,1.38957 -1.0527,3.58655 -2.33932,4.88213 l -2.33931,2.35564 1.75529,2.56621 1.75531,2.5662 6.77133,0 6.77133,0 0,2.81522 0,2.81522 1.16013,-0.43569 c 0.63806,-0.23961 2.72628,1.21494 4.64048,3.23235 l 3.48037,3.66798 0,3.33652 0,3.33652 -2.32025,0 -2.32024,0 0,9.31804 0,9.31802 -3.48036,2.22381 c -1.91421,1.2231 -3.82841,2.74799 -4.25379,3.38866 -0.42537,0.64067 -2.86163,2.28309 -5.4139,3.64984 l -4.64049,2.48501 -10.8278,0.85697 z m -13.92146,-63.14615 c 0.42538,0 0.77341,-0.42229 0.77341,-0.93841 0,-0.51612 -0.34803,-0.93841 -0.77341,-0.93841 -0.42538,0 -0.77342,0.42229 -0.77342,0.93841 0,0.51612 0.34804,0.93841 0.77342,0.93841 z m -16.24171,48.79712 -2.06243,0 1.03121,-1.25122 1.03122,-1.25119 1.03122,1.25119 1.03121,1.25122 z m 63.44523,-10.34139 -1.57206,1.17885 0,-2.92597 c 0,-1.6093 0.30695,-2.92599 0.68212,-2.92599 0.37517,0 1.0826,0.78621 1.57206,1.74712 l 0.88994,1.74713 z m -66.84878,-93.18365 c -5.35947,-0.1652 -12.17795,-0.65649 -15.1522,-1.09175 -2.97423,-0.43527 -6.21089,-1.60021 -7.1926,-2.58876 l -1.78492,-1.79737 0.15175,-6.49494 0.15174,-6.49495 1.82033,0 1.82032,0 0.9281,-5.63043 0.92809,-5.63044 2.28614,0 c 1.25737,0 3.89303,-0.88834 5.85702,-1.9741 l 3.57091,-1.9741 2.98173,-6.00235 2.98171,-6.00236 -0.44863,-9.38406 -0.44864,-9.38406 -1.52387,-2.2638 -1.52389,-2.263802 1.03991,-2.041561 1.03991,-2.041561 -2.51886,-4.664348 -2.51886,-4.664348 2.27505,-2.760367 2.27501,-2.760367 3.36757,0 3.36756,0 4.86377,4.994202 4.86379,4.994201 -0.44465,1.785538 -0.44464,1.785535 2.76488,2.544635 2.7649,2.544635 -1.93354,0.05968 -1.93354,0.0597 0,3.531148 0,3.53115 6.90827,2.75946 6.90826,2.75947 0.50458,-1.83663 0.50457,-1.83662 8.05546,-0.93915 8.05545,-0.93915 0,2.1156 0,2.11559 2.14262,0 c 1.17844,0 5.76291,1.41866 10.18774,3.15258 l 8.04512,3.15258 3.88559,6.18101 3.88559,6.18102 -3.2592,6.39849 -3.25921,6.39849 -4.2401,2.03255 c -2.33206,1.1179 -11.14371,4.11928 -19.58145,6.66974 l -15.34136,4.63719 -3.994,3.58277 c -2.19672,1.97053 -6.22169,4.98048 -8.9444,6.68877 l -4.95038,3.106 z m -17.47864,-22.22139 c 0.42537,0 0.77341,-0.42228 0.77341,-0.93841 0,-0.51612 -0.34804,-0.9384 -0.77341,-0.9384 -0.42538,0 -0.77342,0.42228 -0.77342,0.9384 0,0.51613 0.34804,0.93841 0.77342,0.93841 z m 14.69487,-58.181184 2.06244,0 -1.03121,-1.251209 -1.03123,-1.251207 -1.03122,1.251207 -1.03121,1.251209 z m 0,-12.19928 -1.54683,1.159933 0,-1.987576 0,-1.987576 1.54683,0 c 0.85076,0 1.54683,0.372438 1.54683,0.827642 0,0.455204 -0.69607,1.349612 -1.54683,1.987577 z m -2.7585,-10.322468 c -0.75152,0 -1.83043,-0.563044 -2.39759,-1.251209 -0.56717,-0.688164 -1.03122,-3.142794 -1.03122,-5.45473 l 0,-4.203523 -3.07487,0.975631 -3.07486,0.975631 -0.95771,-3.028149 -0.9577,-3.02815 -2.15475,0 -2.15475,0 0,-2.68116 c 0,-1.47464 -0.87009,-3.847366 -1.93353,-5.272728 -1.06345,-1.425362 -4.33233,-5.708516 -7.26418,-9.51812 l -5.33062,-6.926553 21.18562,0 21.18564,0 0,2.614421 0,2.61442 -2.32025,1.080301 -2.32024,1.080301 0,2.874122 0,2.874122 -1.35363,0 c -0.74449,0 -2.37765,2.565437 -3.62923,5.700971 l -2.2756,5.700971 0.61291,7.436715 0.61292,7.436716 z"
       style="fill:#643518;fill-opacity:1"
       sodipodi:nodetypes="cccccccscccsssscssscccccccccccccccccssscccsscsssscccssscccsccccccccccccccsscccsscccccccsccccccccccccccccsscccccccccccccccscssssscccccccccccccccccccccccccccccsscccccccccccccccccsscccccccccccccccccccccccccccsscccccsscssscccsscsscccccccccssccccccccccccccccccscccccccccsssssscccsscccccccccccsscscscccccccsccccccccccsccccccsscsscccsscccccccccccssscccccccccccccccccccccssccccccccscccccccssscccssssscccccccccsssccssscccccccsscccccccccccccccccccccccccccccccccsscccccsscsscsssssscccccccscccsssssscccccccssscccccccccsscccs" />
  </g>
</svg>
