<?xml version="1.0" encoding="UTF-8" standalone="no"?>
<svg
   xmlns:dc="http://purl.org/dc/elements/1.1/"
   xmlns:cc="http://creativecommons.org/ns#"
   xmlns:rdf="http://www.w3.org/1999/02/22-rdf-syntax-ns#"
   xmlns:svg="http://www.w3.org/2000/svg"
   xmlns="http://www.w3.org/2000/svg"
   xmlns:sodipodi="http://sodipodi.sourceforge.net/DTD/sodipodi-0.dtd"
   xmlns:inkscape="http://www.inkscape.org/namespaces/inkscape"
   viewBox="0 0 512 512"
   id="svg8438"
   version="1.1"
   inkscape:version="0.48.4 r9939"
   width="100%"
   height="100%"
   sodipodi:docname="spikey mace.svg">
  <metadata
     id="metadata8464">
    <rdf:RDF>
      <cc:Work
         rdf:about="">
        <dc:format>image/svg+xml</dc:format>
        <dc:type
           rdf:resource="http://purl.org/dc/dcmitype/StillImage" />
        <dc:title></dc:title>
      </cc:Work>
    </rdf:RDF>
  </metadata>
  <defs
     id="defs8462">
    <linearGradient
       id="linearGradient4077">
      <stop
         id="stop4079"
         offset="0"
         style="stop-color:#aa4400;stop-opacity:1;" />
      <stop
         style="stop-color:#ff9f00;stop-opacity:1;"
         offset="0.22752622"
         id="stop4081" />
      <stop
         style="stop-color:#803300;stop-opacity:1;"
         offset="0.4948855"
         id="stop4083" />
      <stop
         id="stop4085"
         offset="1"
         style="stop-color:#562200;stop-opacity:1;" />
    </linearGradient>
    <linearGradient
       id="linearGradient4057">
      <stop
         style="stop-color:#aa4400;stop-opacity:1;"
         offset="0"
         id="stop4059" />
      <stop
         id="stop4067"
         offset="0.22752622"
         style="stop-color:#ecd1a4;stop-opacity:1;" />
      <stop
         id="stop4065"
         offset="0.50136983"
         style="stop-color:#803300;stop-opacity:1;" />
      <stop
         style="stop-color:#562200;stop-opacity:1;"
         offset="1"
         id="stop4061" />
    </linearGradient>
    <linearGradient
       id="linearGradient3890">
      <stop
         style="stop-color:#701b1b;stop-opacity:1;"
         offset="0"
         id="stop3892" />
      <stop
         style="stop-color:#e31600;stop-opacity:1;"
         offset="1"
         id="stop3894" />
    </linearGradient>
    <linearGradient
       id="linearGradient3882">
      <stop
         style="stop-color:#600b0b;stop-opacity:1;"
         offset="0"
         id="stop3884" />
      <stop
         style="stop-color:#d11414;stop-opacity:1;"
         offset="1"
         id="stop3886" />
    </linearGradient>
    <linearGradient
       id="linearGradient3872">
      <stop
         style="stop-color:#800600;stop-opacity:1;"
         offset="0"
         id="stop3874" />
      <stop
         style="stop-color:#ff0004;stop-opacity:0;"
         offset="1"
         id="stop3876" />
    </linearGradient>
  </defs>
  <sodipodi:namedview
     pagecolor="#000000"
     bordercolor="#666666"
     borderopacity="1"
     objecttolerance="10"
     gridtolerance="10"
     guidetolerance="10"
     inkscape:pageopacity="0"
     inkscape:pageshadow="2"
     inkscape:window-width="1190"
     inkscape:window-height="1126"
     id="namedview8460"
     showgrid="false"
     inkscape:zoom="0.70710678"
     inkscape:cx="204.49403"
     inkscape:cy="551.40418"
     inkscape:window-x="160"
     inkscape:window-y="130"
     inkscape:window-maximized="0"
     inkscape:current-layer="g8466" />
  <g
     id="g8466">
    <path
       inkscape:connector-curvature="0"
       d="M -13.466093,0.1885736 H 514.89024 V 516.42957 H -13.466093 z"
       id="path3978"
       style="fill:#000000" />
    <path
       sodipodi:type="arc"
       style="fill:#333333;fill-opacity:1;fill-rule:nonzero;stroke:none"
       id="path4121"
       sodipodi:cx="63.286057"
       sodipodi:cy="-74.545074"
       sodipodi:rx="39.244427"
       sodipodi:ry="23.688076"
       d="m 101.95774,-78.577314 a 39.244427,23.688076 0 0 1 9.3e-4,0.0033 l -38.672613,4.028989 z"
       sodipodi:start="6.11213"
       sodipodi:end="6.1122693"
       transform="matrix(0.92592215,0,0,1,-12.92858,0)" />
    <path
       sodipodi:type="arc"
       style="fill:#333333;fill-opacity:1;fill-rule:nonzero;stroke:none"
       id="path4123"
       sodipodi:cx="65.584152"
       sodipodi:cy="-52.359596"
       sodipodi:rx="10.606602"
       sodipodi:ry="11.755651"
       d="m 76.035958,-54.360671 a 10.606602,11.755651 0 0 1 2.51e-4,0.0016 l -10.452057,1.999461 z"
       sodipodi:start="6.11213"
       sodipodi:end="6.1122693"
       transform="matrix(0.92592215,0,0,1,-12.92858,0)" />
    <path
       sodipodi:type="arc"
       style="fill:#333333;fill-opacity:1;fill-rule:nonzero;stroke:none"
       id="path4125"
       sodipodi:cx="54.182056"
       sodipodi:cy="-54.392529"
       sodipodi:rx="15.46796"
       sodipodi:ry="16.793785"
       d="m 69.424272,-57.251206 a 15.46796,16.793785 0 0 1 3.67e-4,0.0023 l -15.242583,2.856372 z"
       sodipodi:start="6.11213"
       sodipodi:end="6.1122693"
       transform="matrix(0.92592215,0,0,1,-12.92858,0)" />
    <g
       id="g3044"
       transform="matrix(-1.3964044,0,0,1,675.80785,2.8284271)">
      <path
         style="fill:#a38968"
         d="m 176.687,463.19546 c -2.44949,-2.17894 -4.39914,-5.26866 -4.33255,-6.86604 0.0666,-1.59738 3.09811,-7.99328 6.7367,-14.21311 3.63859,-6.21982 7.774,-13.48975 9.1898,-16.15539 1.4158,-2.66563 4.01775,-7.02759 5.7821,-9.69323 1.76436,-2.66564 5.57442,-9.20857 8.46679,-14.53985 2.89238,-5.33128 6.65517,-11.87421 8.36177,-14.53985 1.70659,-2.66564 5.53447,-9.20857 8.5064,-14.53985 2.97192,-5.33128 5.88361,-10.05728 6.47041,-10.50223 0.5868,-0.44494 2.47516,-3.35291 4.19636,-6.46216 4.93174,-8.90891 11.6856,-20.53797 15.73744,-27.09734 2.04526,-3.31098 4.88555,-8.20096 6.31175,-10.8666 1.4262,-2.66564 4.3408,-7.75458 6.47688,-11.30877 2.13608,-3.55419 6.22758,-10.46062 9.09222,-15.34762 2.86464,-4.88701 8.02629,-13.61092 11.47033,-19.38647 3.44403,-5.77555 7.7006,-12.91408 9.45902,-15.8634 1.75843,-2.94931 14.65816,-24.75908 28.66608,-48.46617 14.00793,-23.70707 27.57051,-46.37524 30.1391,-50.3737 11.94473,-18.59411 30.1585,-49.68343 30.1585,-51.47794 0,-2.70909 -5.07613,-12.040556 -7.38819,-13.58174 -1.02799,-0.685242 -4.33066,-0.834048 -7.33926,-0.33068 -7.8821,1.318747 -6.72893,-1.561898 1.89001,-4.721308 6.72356,-2.464622 7.44002,-3.269109 8.28283,-9.300356 0.6143,-4.395938 2.66764,-8.330454 6.14433,-11.773423 5.15033,-5.100374 5.18665,-5.251598 2.65757,-11.061477 -3.03633,-6.97509 -3.10507,-7.609725 -0.82425,-7.609725 0.95693,0 3.25862,2.470658 5.11482,5.490353 3.17475,5.164676 3.67057,5.383242 8.35893,3.68466 2.86498,-1.037979 4.98399,-2.988303 4.98399,-4.587239 0,-4.749271 3.10247,-4.891547 3.76009,-0.172433 0.5582,4.005582 0.75864,3.798566 1.92883,-1.992033 2.13625,-10.571098 3.4423,-11.775586 4.03185,-3.718326 0.42662,5.830595 1.12019,7.382417 2.99142,6.693196 1.50316,-0.553648 2.43604,0.09695 2.43604,1.698902 0,4.991137 4.25438,2.469828 9.9622,-5.90398 6.95708,-10.206567 8.75338,-7.885739 2.72884,3.525655 -4.79255,9.077788 -3.70755,10.257138 3.83338,4.166709 7.0688,-5.709124 7.77227,-5.032396 2.58689,2.488556 -5.91449,8.578444 -3.55005,11.61962 5.18703,6.671652 7.27369,-4.119227 7.75236,-2.492413 1.07371,3.649159 -4.08383,3.755435 -4.63962,5.128359 -3.25597,8.043185 1.34788,2.839426 2.77831,3.390412 7.44455,2.867533 6.84111,-0.766586 14.70215,0.850885 13.46597,2.770731 -0.47994,0.745379 -4.58203,1.827542 -9.11576,2.404809 -8.10848,1.032429 -8.27892,1.172248 -10.43367,8.559185 -1.20481,4.130285 -4.42416,9.951395 -7.15414,12.935795 -4.55804,4.98282 -4.87123,6.09443 -3.83326,13.60485 1.28442,9.29359 -0.99473,9.58188 -4.11059,0.51994 -2.45264,-7.13311 -5.68624,-6.40154 -6.37687,1.4427 -0.61147,6.94536 -3.22368,7.92019 -3.99444,1.49066 -0.46628,-3.88968 -1.2557,-4.44273 -6.34149,-4.44273 -6.33546,0 -4.71572,-2.32568 -38.25519,54.92832 -13.98642,23.87571 -74.51438,124.58995 -85.53745,142.32824 -1.85145,2.97936 -5.5339,9.25095 -8.18324,13.93687 -2.64933,4.68594 -5.7532,9.61036 -6.89749,10.94318 -1.14429,1.33282 -2.52847,3.64021 -3.07595,5.12754 -0.54749,1.48733 -3.07855,5.84929 -5.62458,9.69323 -5.27671,7.96666 -12.96833,20.85304 -16.70727,27.99101 -1.39629,2.66564 -4.03098,7.0276 -5.85487,9.69323 -1.82389,2.66564 -4.47483,7.0276 -5.89098,9.69324 -1.41615,2.66564 -4.06709,7.02759 -5.89098,9.69323 -1.82389,2.66564 -4.47353,7.0276 -5.8881,9.69324 -3.24275,6.11072 -10.42121,18.14004 -13.97898,23.42531 -1.49531,2.22137 -4.54776,7.31032 -6.78323,11.30878 -2.23546,3.99845 -4.90426,7.80403 -5.93067,8.45684 -3.76535,2.3948 -10.74769,1.13338 -15.08551,-2.72532 z"
         id="path3052"
         inkscape:connector-curvature="0" />
      <path
         style="fill:#8e7758"
         d="m 177.28279,462.31055 c -1.85145,-1.77709 -3.36628,-4.66267 -3.36628,-6.41241 0,-4.3796 6.3628,-15.72325 9.45904,-16.86368 1.39496,-0.51379 2.10712,-1.60069 1.58258,-2.41534 -0.52455,-0.81464 -0.45074,-2.73924 0.164,-4.27691 1.01647,-2.54247 1.29623,-2.56144 3.08812,-0.2093 3.05856,4.01484 11.20918,6.53966 12.87327,3.98774 0.8552,-1.31148 0.4397,-2.27535 -1.12271,-2.60437 -1.3642,-0.28729 -2.48038,-1.55952 -2.48038,-2.82719 0,-2.75036 -2.68861,-3.04876 -4.34142,-0.48185 -0.80269,1.24661 -1.65832,0.99201 -2.70621,-0.80525 -1.10902,-1.90212 0.11789,-5.33092 4.44076,-12.41057 3.28523,-5.38026 5.97315,-10.17394 5.97315,-10.65259 0,-0.47865 1.63322,-2.80243 3.62938,-5.16394 1.99616,-2.36151 3.26259,-3.20318 2.81427,-1.87036 -0.44831,1.33282 0.51085,3.63934 2.13146,5.12559 2.56649,2.35371 3.07191,2.38877 3.91828,0.27175 1.46417,-3.66231 1.17758,-5.39734 -0.89151,-5.39734 -1.07959,0 -1.39159,1.18905 -0.74185,2.82719 0.70684,1.78209 0.54264,2.23 -0.44419,1.21166 -0.86105,-0.88855 -2.06085,-3.63152 -2.66622,-6.09549 -0.9036,-3.67781 -0.41511,-4.74421 2.72818,-5.95587 2.10588,-0.81176 2.85545,-1.522 1.66572,-1.57831 -2.78317,-0.13183 0.21613,-5.87512 5.35575,-10.25572 1.94697,-1.65945 2.59318,-2.55538 1.43602,-1.99097 -2.94817,1.43797 -2.63161,-1.5796 0.42078,-4.01111 1.38859,-1.10615 2.52471,-2.89996 2.52471,-3.98628 0,-1.0863 1.51482,-3.29093 3.36627,-4.89919 1.85145,-1.60825 3.36628,-3.96897 3.36628,-5.24607 0,-1.27709 1.60874,-4.25414 3.57498,-6.61565 3.27552,-3.934 3.47751,-3.98917 2.41129,-0.6587 -1.47181,4.59734 0.0261,4.71417 2.54397,0.19843 1.46233,-2.62265 1.42528,-3.72771 -0.15642,-4.666 -1.1399,-0.6762 -1.54447,-2.0496 -0.89904,-3.05198 0.64543,-1.00237 1.87858,-1.40426 2.74034,-0.89303 0.86176,0.5112 1.62479,-0.0221 1.69562,-1.18531 0.42888,-7.04297 2.33358,-10.79081 4.4511,-8.75834 0.66748,0.64068 0.20792,1.76146 -1.02126,2.49062 -1.51065,0.89613 -1.64908,1.67326 -0.42717,2.3981 0.99423,0.5898 1.39181,3.0683 0.8835,5.50778 -0.88996,4.27105 -0.65403,4.44223 6.36689,4.61978 4.0101,0.10145 6.34433,-0.16584 5.18717,-0.59384 -1.15715,-0.42801 -2.10392,-1.74753 -2.10392,-2.93225 0,-1.18473 -0.94676,-2.50404 -2.10392,-2.9318 -1.15716,-0.42775 -0.39974,-0.69713 1.68314,-0.59861 2.08288,0.0985 3.78706,0.79433 3.78706,1.54623 0,0.75191 0.79419,0.89596 1.76486,0.32015 1.20648,-0.7157 1.14128,-1.76814 -0.20609,-3.32642 -1.51513,-1.7523 -1.49183,-2.27948 0.10074,-2.27948 1.3948,0 1.70996,-1.38339 0.96456,-4.234 -1.00853,-3.85693 -0.87054,-4.00693 1.54938,-1.68419 1.46108,1.4024 3.77071,2.13944 5.13251,1.63785 1.49401,-0.55028 2.476,0.0392 2.476,1.48638 0,2.76612 -4.03575,6.45947 -5.51103,5.04345 -0.54639,-0.52445 -0.59603,0.50513 -0.11031,2.28796 0.5476,2.00991 -0.45499,4.52592 -2.63874,6.62197 -1.93704,1.85924 -3.52188,4.3819 -3.52188,5.60593 0,3.41709 -4.48735,6.50898 -5.66051,3.9002 -0.51615,-1.14777 -0.51726,-0.12423 -0.003,2.27459 0.68952,3.21301 -0.10365,5.35929 -3.01229,8.15112 -2.17154,2.08433 -4.02401,4.66538 -4.11658,5.73568 -0.42107,4.86836 -0.8241,5.46721 -3.11224,4.62443 -1.66863,-0.6146 -2.12865,-0.12213 -1.45644,1.5593 0.54041,1.35172 -0.63428,4.55673 -2.61042,7.12223 -1.97608,2.56553 -3.59292,5.80733 -3.59292,7.20402 0,1.39668 -1.13612,2.95789 -2.52471,3.46933 -1.38859,0.51147 -2.5247,1.84459 -2.5247,2.96251 0,1.11793 -1.51483,3.88105 -3.36628,6.14025 -1.85145,2.2592 -3.36627,5.28803 -3.36627,6.73072 0,1.44269 -1.13612,3.04154 -2.52471,3.55299 -1.38859,0.51147 -2.5247,2.26321 -2.5247,3.8928 0,1.6296 -0.80413,3.43992 -1.78696,4.02294 -0.98283,0.58303 -2.48455,2.62517 -3.33717,4.53808 -0.85261,1.91291 -3.41042,6.386 -5.68402,9.94019 -2.2736,3.55418 -5.77525,9.57693 -7.78145,13.38386 -2.0062,3.80694 -4.75765,7.98715 -6.11434,9.28935 -3.51897,3.37764 -11.74436,2.92503 -15.69135,-0.86344 z m 4.1114,-2.29122 c -1.7955,-1.26017 -3.6225,-1.94763 -4.06001,-1.5277 -0.92633,0.88913 3.41397,3.75785 5.7405,3.79419 0.87123,0.0129 0.11501,-1.00632 -1.68049,-2.26649 z m 3.04193,-5.24087 c -1.15716,-0.44817 -2.10392,-1.45845 -2.10392,-2.24507 0,-0.78661 1.14471,-1.00858 2.54379,-0.49326 1.82022,0.67044 2.24776,0.19647 1.50306,-1.66625 -1.32621,-3.31725 -3.39523,-3.33221 -4.7138,-0.0341 -1.22771,3.07086 0.0986,5.5574 2.8702,5.38105 1.4454,-0.0919 1.41769,-0.35485 -0.0993,-0.94239 z m 12.09374,-8.45402 c 0.51218,-0.79543 -0.16195,-1.84891 -1.49808,-2.34103 -1.62048,-0.59686 -2.11771,-0.11535 -1.4934,1.44626 1.08496,2.7138 1.70148,2.89821 2.99148,0.89477 z m -9.28113,-3.80424 c -0.0731,-1.99923 -0.51648,-2.7217 -0.98532,-1.60547 -0.46885,1.11622 -1.73452,1.52191 -2.81261,0.90153 -1.0781,-0.62037 -0.92066,0.1021 0.34984,1.60547 3.04209,3.5997 3.60724,3.45193 3.44809,-0.90153 z m 2.83291,-0.77412 c -0.55929,-0.53683 -0.9571,0.41736 -0.88401,2.1204 0.0807,1.88202 0.47959,2.26482 1.01689,0.97606 0.48621,-1.16623 0.42641,-2.55963 -0.13288,-3.09646 z m 11.26778,-17.66571 c -0.71777,-1.79538 -0.42709,-2.30413 0.87511,-1.53164 1.27396,0.75573 1.60242,0.28756 0.94753,-1.35051 -1.30892,-3.27399 -3.37514,-3.19058 -4.72699,0.19081 -0.59463,1.48735 -0.10898,3.28859 1.08228,4.01411 2.95916,1.80223 3.04617,1.73907 1.82207,-1.32277 z m 9.57547,-5.35234 c 1.40688,-2.52322 1.09527,-3.85217 -1.48366,-6.32754 -3.35169,-3.21707 -5.22825,-2.8921 -5.22825,0.90538 0,1.18473 1.13612,2.15405 2.52471,2.15405 1.38858,0 2.5247,0.70418 2.5247,1.56484 0,0.86065 -1.30066,1.08576 -2.89035,0.50024 -2.57301,-0.94769 -2.61921,-0.7715 -0.42079,1.6048 3.109,3.36053 2.86486,3.38025 4.97364,-0.40177 z m 7.83751,-12.12894 c -0.56369,-1.40994 0.40275,-3.09815 2.34463,-4.09568 3.93279,-2.02023 4.25604,-5.27562 0.79742,-8.03073 -1.37839,-1.09803 -2.0911,-2.64103 -1.5838,-3.4289 0.5073,-0.78787 0.16496,-1.43248 -0.76077,-1.43248 -3.38276,0 -3.53292,3.06939 -0.25787,5.27119 3.34738,2.25043 3.3476,2.27748 0.0465,5.67854 -2.83158,2.91728 -3.13819,8.43674 -0.46867,8.43674 0.46286,0 0.41003,-1.07941 -0.1174,-2.39868 z m -3.47653,-11.77576 c -2.89826,-2.66449 -2.93413,-2.63006 -0.8051,0.77276 1.22557,1.95883 2.5906,3.21375 3.03341,2.78873 0.4428,-0.42501 -0.55994,-2.02768 -2.22831,-3.56149 z m 15.8573,-9.40474 c 0,-1.54438 -0.50012,-2.32793 -1.11138,-1.74122 -0.61126,0.58672 -2.21374,-0.44387 -3.56106,-2.29018 -1.34835,-1.84773 -3.09403,-2.73847 -3.8829,-1.98128 -1.72089,1.65177 -0.09,8.58985 2.0191,8.58985 0.81776,0 1.48683,1.14241 1.48683,2.5387 0,2.25662 0.28053,2.26945 2.52471,0.11535 1.38859,-1.33282 2.5247,-3.6869 2.5247,-5.23127 z m 7.03864,-7.46226 c -0.37849,-2.47523 -1.65728,-4.50042 -2.84175,-4.50042 -1.18448,0 -2.6223,-1.17237 -3.19516,-2.60525 -0.80927,-2.02426 -1.56367,-2.18937 -3.38267,-0.74036 -1.78745,1.42388 -2.56305,1.3714 -3.27956,-0.22192 -0.51615,-1.14778 -0.49202,0.0942 0.0536,2.75976 0.54565,2.66564 1.75475,5.57361 2.68689,6.46215 1.13557,1.08245 1.39335,0.41536 0.78123,-2.02165 -0.50247,-2.00046 -0.2268,-3.22978 0.61259,-2.73184 0.8394,0.49794 1.52617,2.19526 1.52617,3.77181 0,3.61534 0.76169,4.32816 4.62482,4.32816 2.43622,0 2.95429,-0.96591 2.41382,-4.50044 z m 4.31409,-10.98112 c 0.24805,-1.32263 -2.20484,-4.04719 -5.45086,-6.05458 -3.24603,-2.0074 -5.90187,-2.91614 -5.90187,-2.01942 0,0.8967 0.83953,1.63039 1.86561,1.63039 1.13247,0 1.46432,1.5346 0.84446,3.90514 -0.63086,2.41258 -0.21812,4.22334 1.07989,4.73767 3.50289,1.388 7.08539,0.34624 7.56277,-2.1992 z m 7.11023,-2.40477 c 0,-0.88854 -0.73421,-0.52505 -1.63159,0.80777 -0.89737,1.33282 -1.63159,3.1503 -1.63159,4.03885 0,0.88855 0.73422,0.52505 1.63159,-0.80777 0.89738,-1.33282 1.63159,-3.1503 1.63159,-4.03885 z m -0.33551,-7.26992 c 1.83205,-3.55419 2.66861,-6.46216 1.85903,-6.46216 -0.80958,0 -1.47197,0.72699 -1.47197,1.61554 0,2.55685 -3.63501,1.88033 -5.90465,-1.09892 -1.8854,-2.47488 -2.25733,-2.37476 -4.21397,1.13443 -1.57102,2.81758 -1.63039,4.01389 -0.22156,4.46462 1.05847,0.33867 1.9245,1.58507 1.9245,2.7698 0,1.18472 0.94676,2.52074 2.10392,2.9689 1.15715,0.44817 2.21412,0.87225 2.34881,0.9424 0.13468,0.0701 1.74384,-2.78043 3.57589,-6.33461 z m -2.97921,-19.29112 c 0,-0.83611 0.75741,-1.9695 1.68313,-2.51866 0.92573,-0.54915 1.68314,0.1349 1.68314,1.52019 0,1.38526 -0.75741,2.51866 -1.68314,2.51866 -0.92572,0 -1.68313,-0.68409 -1.68313,-1.52019 z m 0.84157,-6.55751 c -0.57213,-0.88854 -0.23813,-1.61554 0.74223,-1.61554 0.98036,0 1.78247,0.727 1.78247,1.61554 0,0.88855 -0.334,1.61554 -0.74223,1.61554 -0.40823,0 -1.21034,-0.72699 -1.78247,-1.61554 z m 17.01189,-1.33517 c -1.4921,-2.31732 0.95227,-8.35806 3.38206,-8.35806 1.28062,0 2.3284,0.77598 2.3284,1.72441 0,0.98921 1.43519,1.28718 3.36627,0.6989 4.51777,-1.3763 4.28139,1.62486 -0.37451,4.75501 -4.13488,2.77986 -7.38794,3.22087 -8.70222,1.17974 z m -13.74471,-2.6523 c -1.79695,-1.30455 -2.88848,-2.45562 -2.42562,-2.55793 5.49336,-1.21418 7.98202,-0.71182 7.12265,1.43773 -0.67602,1.69094 -0.29922,2.01337 1.26707,1.08424 1.48324,-0.87989 1.82734,-0.69825 1.02826,0.54274 -1.58354,2.45932 -3.05349,2.35279 -6.99236,-0.50678 z m 4.68446,-12.13262 c 2.93087,-5.27035 4.00888,-6.08045 5.99065,-4.50178 1.58128,1.25964 1.77103,2.13163 0.54893,2.52263 -2.52701,0.80852 -2.37006,4.68421 0.23622,5.83317 1.15716,0.5101 0.46349,0.54112 -1.54148,0.0688 -2.00498,-0.47221 -4.13256,-0.10194 -4.72797,0.82268 -0.5954,0.92478 -1.75705,1.68134 -2.58145,1.68134 -0.8244,0 0.10941,-2.89209 2.0751,-6.42686 z m 17.7162,5.31322 c -3.11922,-0.78239 -4.117,-3.73298 -1.26236,-3.73298 0.92573,0 1.68314,-1.11606 1.68314,-2.48014 0,-1.97013 0.68446,-2.12855 3.32839,-0.77039 2.71549,1.39491 3.14724,1.25663 2.34464,-0.75093 -0.54108,-1.35339 -1.8495,-2.48381 -2.90762,-2.51207 -1.05811,-0.0283 -0.45361,-1.11876 1.34335,-2.42331 1.79695,-1.30456 2.65097,-2.37193 1.89782,-2.37193 -0.75314,0 -0.33579,-1.19535 0.92746,-2.65635 2.04173,-2.36132 1.87769,-2.52866 -1.47704,-1.50667 -2.71907,0.82834 -3.77386,0.49838 -3.77386,-1.18055 0,-1.38457 -1.64418,-2.33024 -4.05144,-2.33024 -3.56176,0 -3.99741,0.65344 -3.6045,5.40647 0.2458,2.97356 -0.20329,5.02075 -0.99798,4.54932 -0.7947,-0.47141 -1.44491,0.0686 -1.44491,1.19994 0,1.43612 -0.82223,1.26786 -2.72386,-0.55739 -3.18304,-3.05521 -1.74211,-6.45925 2.13043,-5.03289 2.02489,0.74581 2.42178,0.24379 1.65233,-2.08999 -0.57759,-1.75184 0.32631,-5.02838 2.10376,-7.62591 2.85805,-4.1767 3.18886,-4.28864 3.98946,-1.35007 0.48015,1.76234 3.19717,4.35786 6.03782,5.76783 l 5.16481,2.56357 2.75964,-5.58192 c 1.51778,-3.07005 3.82597,-6.43138 5.12927,-7.46959 1.30332,-1.03821 2.36967,-2.82855 2.36967,-3.97852 0,-1.14997 0.79867,-2.34639 1.7748,-2.65871 0.97614,-0.31232 1.96197,-1.792 2.19076,-3.2882 0.22879,-1.4962 1.79722,-4.18531 3.48541,-5.97582 1.743,-1.84866 2.69699,-4.62246 2.20758,-6.41879 -0.5486,-2.01358 -0.1397,-2.89734 1.12509,-2.43148 2.06405,0.76024 12.78028,-16.76928 12.78028,-20.90587 0,-1.28676 1.14314,-2.76063 2.54033,-3.27525 1.39717,-0.51461 2.45137,-1.50112 2.34265,-2.19225 -0.10873,-0.69115 0.36807,-2.9538 1.05949,-5.02814 0.9578,-2.87358 1.61443,-3.25822 2.75785,-1.61554 0.9772,1.40384 1.15159,0.70515 0.49986,-2.00273 -0.66969,-2.78258 -0.10217,-4.87473 1.71534,-6.32247 2.93195,-2.33558 8.3543,-12.87217 10.14138,-19.70657 0.60794,-2.32487 2.36747,-5.57112 3.9101,-7.21388 1.54261,-1.64276 3.87268,-4.9738 5.1779,-7.4023 1.30522,-2.42851 3.76681,-5.85132 5.4702,-7.60626 1.70338,-1.75494 3.09705,-3.70257 3.09705,-4.32807 0,-2.24795 8.73328,-15.38689 9.64549,-14.51132 0.51317,0.49256 -0.0402,2.02118 -1.2298,3.39695 -3.08632,3.56943 -1.40572,4.06823 2.03555,0.60414 2.72269,-2.74075 2.65969,-3.06034 -1.17389,-5.95472 -3.04765,-2.30101 -3.57264,-3.51765 -2.11969,-4.91225 1.44028,-1.38242 1.44302,-1.85371 0.0109,-1.85371 -1.05624,0 -2.34459,0.65874 -2.86302,1.46387 -0.51842,0.80513 -2.64599,1.07777 -4.72796,0.60587 -3.73682,-0.847 -3.74221,-0.82472 -0.4191,1.7365 2.23852,1.72531 2.7542,3.01072 1.53929,3.83687 -1.00485,0.68329 -2.76622,2.69634 -3.91415,4.47343 -1.68363,2.60637 -1.90361,2.66824 -1.13778,0.31997 2.14342,-6.57243 -2.26498,-0.52791 -5.06413,6.94361 -1.66575,4.44622 -3.6364,8.08404 -4.37925,8.08404 -0.74285,0 -1.35065,1.0329 -1.35065,2.29534 0,1.26245 -3.05892,5.2609 -6.79758,8.88547 -3.73869,3.62457 -5.99345,6.59012 -5.01062,6.59012 2.05567,0 -3.01522,8.23257 -6.28052,10.19641 -1.19885,0.72101 -1.74038,1.99325 -1.20343,2.82719 0.53697,0.83394 0.21889,1.51625 -0.70683,1.51625 -2.98675,0 -3.86206,-3.22305 -1.14691,-4.2231 1.44726,-0.53306 2.63138,-2.03421 2.63138,-3.33588 0,-2.67578 8.4251,-17.19433 10.45722,-18.02039 0.72861,-0.29618 1.32474,-1.61132 1.32474,-2.92254 0,-1.31121 0.67159,-1.98562 1.49242,-1.49869 0.82084,0.48692 2.47632,-0.25257 3.67884,-1.64333 1.80496,-2.08749 1.76482,-2.78903 -0.23007,-4.0211 -1.95811,-1.20936 -1.73707,-1.67163 1.1654,-2.4371 1.97005,-0.51956 4.43163,-2.73473 5.4702,-4.92259 2.3231,-4.89388 2.37265,-5.91946 0.22444,-4.64512 -0.95277,0.5652 -1.23705,-0.0805 -0.66519,-1.51092 0.54926,-1.37386 1.59733,-2.14279 2.32906,-1.70872 0.73173,0.43407 1.7798,-0.33486 2.32906,-1.70872 0.66214,-1.65622 0.32644,-2.09918 -0.99622,-1.31456 -1.09719,0.65086 -0.4549,-0.94711 1.42728,-3.55105 1.88219,-2.60394 9.21966,-14.65316 16.30548,-26.77603 l 12.88332,-22.04159 -3.50155,-7.597899 c -3.41172,-7.403019 -3.67037,-7.582449 -10.08347,-6.995423 -8.43006,0.771648 -8.42422,-0.805458 0.0135,-3.478118 6.50147,-2.059504 8.47781,-4.85896 8.53046,-12.083266 0.0135,-1.734791 2.45449,-5.5621 5.42635,-8.505131 l 5.40336,-5.350965 -2.79806,-7.246373 c -3.3448,-8.662279 -1.42446,-9.583392 3.08746,-1.480939 2.81245,5.050586 3.81052,5.651514 8.04955,4.846617 2.66086,-0.50535 5.47738,-0.918818 6.25834,-0.918818 0.78094,0 1.0016,-1.046333 0.49032,-2.325182 -0.51127,-1.278851 -0.13179,-3.641577 0.84321,-5.250502 1.54728,-2.553167 1.77932,-2.347995 1.82399,1.612757 0.0293,2.604304 0.7684,4.112611 1.73432,3.539618 0.92572,-0.549152 1.69473,-2.954782 1.7089,-5.345846 0.0142,-2.391064 0.75999,-5.437876 1.65737,-6.770696 1.17689,-1.74797 1.63877,-0.229609 1.65737,5.448316 0.0222,6.812437 0.36549,7.601006 2.55047,5.860457 2.10931,-1.680267 2.52471,-1.447006 2.52471,1.417724 0,5.655464 2.98262,3.933802 9.49522,-5.480927 3.38982,-4.900403 6.47679,-8.60893 6.85994,-8.241174 0.38313,0.367757 -1.63611,5.10417 -4.48723,10.52536 -5.79073,11.010651 -4.02537,13.172454 4.10506,5.026947 6.01329,-6.024458 7.5131,-5.10285 2.56035,1.573299 -2.56244,3.454079 -3.38857,6.254368 -2.66336,9.027782 l 1.0513,4.020522 5.89184,-4.313434 c 7.75832,-5.679897 9.20067,-4.029313 1.87434,2.144941 -5.4406,4.585065 -5.58826,4.989502 -3.00202,8.222246 2.12819,2.660169 4.91748,3.507524 12.81887,3.89421 9.98262,0.488539 10.02135,0.509009 3.36627,1.779064 -3.7029,0.706662 -8.43672,1.620301 -10.5196,2.030309 -2.39145,0.470748 -3.78706,1.924845 -3.78706,3.945768 0,1.760164 -0.75741,3.200299 -1.68314,3.200299 -0.92572,0 -1.59344,0.545244 -1.48382,1.211654 0.75699,4.601674 -0.89716,8.553313 -5.45242,13.025413 -5.00528,4.9139 -5.16816,5.47852 -3.45223,11.96722 2.3111,8.73931 1.2319,9.72822 -2.47465,2.26766 -3.76252,-7.57318 -7.33452,-7.67059 -7.33452,-0.20001 0,3.10991 -0.75741,5.65438 -1.68314,5.65438 -0.92573,0 -1.68314,-1.8403 -1.68314,-4.08955 0,-4.61245 -3.1953,-6.40062 -8.95706,-5.01259 -2.83764,0.6836 -7.2676,6.56255 -16.26129,21.58012 -6.79865,11.35232 -13.78237,23.39176 -15.5194,26.75432 -1.8854,3.64981 -3.91427,5.66525 -5.03422,5.00089 -1.13876,-0.67554 -1.40372,-0.37941 -0.67423,0.75353 1.09216,1.69616 -6.17857,14.48656 -34.12043,60.02332 -10.53304,17.16566 -17.45477,28.93427 -21.61668,36.75351 -1.53706,2.88777 -3.41179,5.2505 -4.16605,5.2505 -0.75428,0 -1.37141,1.09049 -1.37141,2.42331 0,1.33282 -0.56806,2.33721 -1.26235,2.23199 -3.03175,-0.45947 -4.46516,0.34054 -2.62369,1.46435 1.42703,0.87085 0.10536,4.2399 -4.58483,11.6879 -3.62439,5.75541 -7.41429,12.26707 -8.42202,14.47035 -1.00771,2.20328 -2.73159,4.53949 -3.83083,5.19157 -1.09924,0.6521 -2.0933,1.93912 -2.20902,2.86009 -0.11563,0.92095 -0.30507,2.45043 -0.42078,3.39886 -0.11681,0.95757 -1.89449,1.3234 -3.99745,0.82268 -2.08289,-0.49595 -2.8403,-0.48435 -1.68314,0.0257 1.15716,0.51012 2.10392,1.59391 2.10392,2.4084 0,1.54591 -0.60845,1.58677 -5.47019,0.36728 z m 16.14983,-22.38135 c -0.54818,-1.37114 -1.35767,-2.14651 -1.79885,-1.72302 -0.4412,0.42348 -0.30293,1.54532 0.30725,2.49298 1.65966,2.57753 2.6297,2.07679 1.4916,-0.76996 z m 3.67927,-5.50358 c -0.61953,-0.96215 -1.91236,-1.28314 -2.87295,-0.71331 -1.13085,0.67084 -0.95869,1.50341 0.48835,2.36182 2.70103,1.60228 3.93049,0.75234 2.3846,-1.64851 z m 3.11468,-4.20389 c 0.57477,-1.4377 0.29261,-2.08618 -0.66149,-1.52019 -0.91512,0.54285 -1.66387,1.67111 -1.66387,2.50722 0,2.32384 1.20643,1.81176 2.32536,-0.98703 z m 22.25546,-42.29034 c -0.5593,-0.53682 -0.9571,0.41736 -0.88401,2.1204 0.0808,1.88202 0.47959,2.26482 1.01688,0.97606 0.48621,-1.16623 0.42642,-2.55963 -0.1328,-3.09646 z m 48.57786,-100.35884 c -0.94838,-0.95825 -4.15006,1.47037 -4.15006,3.14801 0,0.87114 1.05972,0.64648 2.35495,-0.49923 1.29522,-1.14572 2.10303,-2.33767 1.79511,-2.64878 z m 40.37272,-64.459785 c 0.85985,-2.167889 0.65777,-2.385702 -0.8666,-0.934016 -1.09336,1.041247 -3.15603,1.462948 -4.58367,0.937111 -1.70419,-0.627694 -2.17772,-0.306896 -1.3787,0.934016 1.80526,2.803666 5.54901,2.289928 6.82897,-0.937111 z M 278.32256,283.79349 c 0,-0.88854 0.73421,-2.70602 1.63159,-4.03884 0.89738,-1.33282 1.63158,-1.69632 1.63158,-0.80777 0,0.88854 -0.7342,2.70602 -1.63158,4.03884 -0.89738,1.33282 -1.63159,1.69632 -1.63159,0.80777 z m 34.38355,-62.30573 c -0.61019,-0.94766 -0.74846,-2.06951 -0.30726,-2.49299 0.44119,-0.42348 1.25067,0.35188 1.79886,1.72302 1.1381,2.84676 0.16814,3.3475 -1.4916,0.76997 z m 2.0929,-3.6621 c -0.47366,-1.18474 0.13044,-2.15407 1.34258,-2.15407 1.21208,0 1.81624,0.96933 1.34259,2.15407 -0.47365,1.18472 -1.07781,2.15404 -1.34259,2.15404 -0.26477,0 -0.86893,-0.96932 -1.34258,-2.15404 z m 25.74807,-47.83232 c 0,-0.83611 0.74874,-1.96436 1.66387,-2.50722 0.9541,-0.56598 1.23626,0.0825 0.66149,1.5202 -1.11894,2.79878 -2.32536,3.31086 -2.32536,0.98702 z"
         id="path3050"
         inkscape:connector-curvature="0" />
      <path
         style="fill:#615c56"
         d="m 178.75123,462.71444 c -2.00733,-2.45675 -1.9792,-2.59102 0.2147,-1.02469 1.38858,0.99137 3.66082,2.20621 5.04941,2.69965 2.11191,0.75046 2.07681,0.91799 -0.2147,1.02468 -1.50667,0.0701 -3.7789,-1.14469 -5.04941,-2.69964 z m 8.63038,1.21165 c 0,-0.88855 1.13612,-1.61554 2.52471,-1.61554 1.38858,0 2.5247,-0.72699 2.5247,-1.61554 0,-0.88854 0.8748,-1.61554 1.944,-1.61554 1.10244,0 0.62519,1.39875 -1.10243,3.23108 -3.29081,3.49028 -5.89098,4.20334 -5.89098,1.61554 z m -12.53289,-9.55247 c -1.75095,-2.71931 0.72576,-5.65775 2.96067,-3.5126 1.31763,1.26471 1.31763,2.24789 0,3.5126 -1.31763,1.26472 -2.14633,1.26472 -2.96067,0 z m 22.80068,-1.27894 c 1.22557,-1.95883 2.5906,-3.21375 3.0334,-2.78873 0.44281,0.42502 -0.55993,2.02768 -2.2283,3.56149 -2.89826,2.66449 -2.93413,2.63006 -0.8051,-0.77276 z m 1.75526,-6.76231 c -1.92273,-1.16937 -1.92273,-1.60507 0,-2.75703 4.48009,-2.68412 6.56899,-2.19343 4.72687,1.11036 -1.97684,3.54543 -1.74033,3.46304 -4.72687,1.64667 z m -18.17479,-2.67019 c -0.54817,-1.37114 -0.62059,-2.85397 -0.16094,-3.29515 0.45966,-0.44121 1.23973,0.68064 1.7335,2.49298 1.04884,3.84972 -0.11651,4.44417 -1.57256,0.80217 z m 24.1144,-6.77002 c -0.43145,-0.6809 1.10746,-2.59951 3.4198,-4.26358 4.16787,-2.99938 4.18814,-2.99667 2.34224,0.31391 -2.21711,3.97633 -4.67681,5.66237 -5.76204,3.94967 z m 5.60126,-10.17416 c 0,-0.86066 1.13612,-1.56484 2.5247,-1.56484 1.38859,0 2.52471,0.28572 2.52471,0.63492 0,0.34921 -1.13612,1.05338 -2.52471,1.56484 -1.38858,0.51145 -2.5247,0.22572 -2.5247,-0.63492 z m 5.61046,-8.56551 c 0,-1.18474 0.99785,-2.15406 2.21746,-2.15406 1.65704,0 1.74675,0.54439 0.35495,2.15406 -1.02438,1.18472 -2.02223,2.15405 -2.21746,2.15405 -0.19523,0 -0.35495,-0.96933 -0.35495,-2.15405 z m 7.85464,-10.57246 c 0,-0.77974 1.26012,-2.41547 2.80026,-3.63496 2.53919,-2.01051 2.61213,-1.87832 0.78235,1.41773 -2.08694,3.7593 -3.58261,4.68495 -3.58261,2.21723 z m 3.36627,-10.51039 c 0,-0.34063 1.51587,-0.99982 3.3686,-1.46487 1.85272,-0.46503 2.94414,-0.18634 2.42537,0.61935 -0.90595,1.40699 -5.79397,2.1203 -5.79397,0.84552 z m -13.91393,-12.50543 c 1.14173,-1.10409 2.49986,-1.60047 3.01808,-1.10306 0.51821,0.49741 -0.41593,1.40075 -2.07587,2.00744 -2.39881,0.87672 -2.59214,0.69116 -0.94221,-0.90438 z m 40.84412,-27.26369 c 0.99087,-1.7771 2.18028,-3.23108 2.64315,-3.23108 0.46286,0 0.0308,1.45398 -0.96001,3.23108 -0.99087,1.77709 -2.18028,3.23108 -2.64315,3.23108 -0.46286,0 -0.0309,-1.45399 0.96001,-3.23108 z m 72.76112,-127.35189 c -0.019,-2.373 1.64626,-6.49552 3.70058,-9.16116 2.05432,-2.66564 4.35169,-6.3006 5.10524,-8.07769 1.29568,-3.05552 1.42922,-3.01584 2.4576,0.73016 0.73912,2.69234 -0.27861,6.4348 -3.17717,11.68322 -5.03403,9.11516 -8.03754,10.90749 -8.08625,4.82547 z m 13.08148,-22.59556 c -0.003,-3.36292 3.46655,-8.75835 9.16588,-14.24901 4.25746,-4.10158 5.2584,-4.50855 5.2584,-2.13803 0,1.6103 -0.51574,2.62189 -1.1461,2.24794 -0.63035,-0.37393 -1.59549,0.44419 -2.14475,1.81806 -0.6454,1.61435 -0.31811,2.09424 0.92525,1.35665 1.20055,-0.71218 1.46199,-0.4239 0.69537,0.7667 -0.67569,1.04941 -2.49366,1.70698 -4.03995,1.46128 -1.7808,-0.28297 -3.8928,1.62604 -5.76144,5.20765 -1.62251,3.10992 -2.95121,4.69786 -2.95266,3.52876 z m 23.8024,-35.66233 c -1.59193,-0.96818 -1.71937,-1.72358 -0.42078,-2.49392 1.02456,-0.60778 1.86283,-0.29225 1.86283,0.70117 0,0.99343 0.87444,1.2875 1.94319,0.6535 1.20395,-0.71419 1.48632,-0.44317 0.74223,0.71243 -1.41836,2.20278 -1.23803,2.18414 -4.12747,0.42682 z m 2.8563,-12.01045 -4.47672,-3.51438 3.35274,-7.26992 c 1.84403,-3.99846 4.05432,-8.54216 4.91178,-10.09712 0.85746,-1.55496 0.98454,-2.82645 0.2824,-2.82555 -0.70214,9e-4 -3.38794,3.60983 -5.96846,8.01985 -5.29536,9.04961 -6.56593,10.15107 -10.17586,8.82144 -2.11833,-0.78023 -1.67736,-2.48368 2.61519,-10.10236 2.83974,-5.04014 5.72457,-9.89088 6.41074,-10.77942 0.68614,-0.88855 4.43358,-7.28383 8.3276,-14.21175 6.98999,-12.43595 7.04597,-12.66515 4.40104,-18.015084 -1.47345,-2.980381 -2.67902,-6.217745 -2.67902,-7.194143 0,-1.022939 -3.38812,-1.82932 -7.9949,-1.902811 l -7.9949,-0.127547 7.15601,-2.431252 c 6.48544,-2.203427 7.25903,-3.049595 8.25535,-9.029966 0.68897,-4.135565 3.14351,-8.770519 6.57566,-12.41692 5.06813,-5.384503 5.30409,-6.116888 3.16548,-9.825075 -1.27097,-2.203774 -2.30816,-5.46085 -2.30482,-7.237943 0.005,-2.29284 1.25425,-1.244152 4.30464,3.611444 3.60755,5.742521 4.79682,6.586588 7.39777,5.250502 1.70456,-0.875611 5.02809,-1.59202 7.38562,-1.59202 3.30652,0 4.5198,-1.01563 5.30729,-4.442732 2.69079,-11.710203 3.82112,-12.714122 4.09268,-3.634963 0.1461,4.887005 0.64779,7.976724 1.11471,6.866041 1.18254,-2.812936 3.9347,-2.530435 3.9347,0.403884 0,3.367272 4.60382,3.047426 5.81345,-0.403884 0.545,-1.554957 3.28439,-5.371668 6.08754,-8.48158 l 5.09662,-5.654387 -5.24273,10.260597 c -2.8835,5.643327 -4.88181,10.607043 -4.44064,11.030477 0.44115,0.423436 3.89909,-1.915701 7.68431,-5.198082 7.88168,-6.834641 8.63768,-6.284641 2.76457,2.011276 -3.98949,5.635265 -4.02936,5.972026 -1.28139,10.819178 1.55993,2.751581 2.84582,6.093362 2.85751,7.426182 0.0237,2.6997 0.032,2.701449 14.74429,3.142684 7.56965,0.22702 9.57561,0.704845 7.15333,1.703933 -1.85145,0.763642 -5.71198,1.439539 -8.57894,1.501991 -6.58483,0.143443 -11.47805,4.377134 -12.223,10.57557 -0.58545,4.871147 -7.48471,14.35388 -9.22676,12.68179 -1.21608,-1.16724 0.20041,15.35777 1.48781,17.35718 0.53229,0.82666 0.55978,1.50302 0.0611,1.50302 -0.49868,0 -2.46595,-2.93365 -4.37171,-6.51922 -3.97766,-7.4837 -6.70222,-7.09338 -6.70222,0.96018 0,3.05747 -0.75741,5.55904 -1.68314,5.55904 -0.92573,0 -1.68314,-2.22486 -1.68314,-4.94414 0,-4.71132 -0.29204,-4.92053 -6.2017,-4.44273 -6.05037,0.48917 -6.52549,1.03358 -19.47117,22.31118 -7.2982,11.99538 -13.78573,22.30076 -14.41672,22.90085 -0.631,0.60009 -3.16179,-0.4904 -5.62399,-2.42331 z m 40.66417,-77.924515 c 0,-1.280381 -1.07418,-2.327964 -2.38704,-2.327964 -1.31288,0 -3.52669,-0.419761 -4.91961,-0.932801 -1.73444,-0.638839 -2.39581,-0.03858 -2.09867,1.904725 0.43392,2.837643 5.76224,5.706932 8.14297,4.384962 0.69429,-0.385527 1.26235,-1.748541 1.26235,-3.028922 z m -1.68313,-5.559042 c 0,-0.888547 -0.75742,-1.615539 -1.68314,-1.615539 -0.92573,0 -1.68314,0.726992 -1.68314,1.615539 0,0.888546 0.75741,1.615539 1.68314,1.615539 0.92572,0 1.68314,-0.726993 1.68314,-1.615539 z m 26.93019,-4.736609 c 0,-1.793599 9.96363,-8.855971 11.03852,-7.824262 0.76076,0.730203 -8.62469,9.329793 -10.18238,9.329793 -0.47087,0 -0.85614,-0.677489 -0.85614,-1.505531 z M 399.48265,53.983072 c 0.0135,-0.66641 0.75998,-2.302143 1.65736,-3.634963 1.31936,-1.959583 1.63652,-1.727719 1.65737,1.211654 0.0142,1.99923 -0.73164,3.634963 -1.65737,3.634963 -0.92572,0 -1.67154,-0.545245 -1.65736,-1.211654 z"
         id="path3048"
         inkscape:connector-curvature="0" />
      <path
         style="fill:#2b2b2b"
         d="m 366.81965,158.8749 c -1.28298,-1.99254 3.30927,-10.8536 9.70324,-18.7231 2.82466,-3.47649 6.91318,-10.00326 9.08564,-14.50394 2.17244,-4.50068 4.59301,-8.56457 5.37905,-9.03086 2.54541,-1.50996 -0.13599,-9.9269 -2.99406,-9.39859 -2.65252,0.49032 -9.23554,9.63708 -15.46179,21.48334 -7.43039,14.13731 -13.34007,22.64502 -16.10508,23.18529 -2.21753,0.43328 -2.62476,-0.14061 -1.71962,-2.42331 1.55868,-3.93086 18.52856,-31.78592 24.7341,-40.59956 2.67713,-3.8023 4.86751,-7.32504 4.86751,-7.82831 0,-0.50326 -1.56639,-3.026485 -3.48088,-5.607153 -2.31954,-3.126658 -4.98693,-4.716434 -7.9949,-4.764991 l -4.51402,-0.07286 5.04941,-2.219229 c 2.77718,-1.220577 4.38861,-2.278275 3.58098,-2.350441 -0.80766,-0.07217 -0.77903,-1.039953 0.0636,-2.150637 0.84263,-1.110683 1.76016,-4.200401 2.03897,-6.86604 0.92541,-8.847645 10.75964,-16.124152 23.72395,-17.553741 4.00386,-0.441511 7.91312,-1.761485 8.68723,-2.933276 0.99697,-1.50917 1.41496,-1.070409 1.43322,1.504434 0.0172,2.414146 1.04329,3.634962 3.05542,3.634962 1.6663,0 3.87542,0.811809 4.90915,1.804019 1.38391,1.328332 3.46982,0.277561 7.91075,-3.984996 3.31716,-3.183964 6.03121,-5.424181 6.03121,-4.978263 0,1.970711 -5.5373,8.676039 -6.62962,8.028061 -1.36398,-0.80913 -1.15975,2.464511 0.60091,9.632176 0.65479,2.66564 1.54033,6.498365 1.96786,8.517167 0.64632,3.051991 1.31899,3.392304 3.99158,2.019424 4.30482,-2.211342 5.11869,-2.088564 5.11869,0.772182 0,1.522739 -1.60067,2.423309 -4.30719,2.423309 -2.44283,0 -3.8569,0.699273 -3.26693,1.615539 0.57213,0.888546 0.1434,1.615539 -0.95262,1.615539 -1.31662,0 -1.65018,1.644617 -0.98299,4.846617 0.75694,3.632681 0.38807,4.846617 -1.47274,4.846617 -1.36545,0 -2.48263,1.090489 -2.48263,2.423311 0,1.33282 -0.56806,2.34468 -1.26235,2.24858 -2.62539,-0.36338 -8.83647,2.22999 -8.83647,3.68957 0,0.83735 0.79058,1.05347 1.75686,0.48027 2.98332,-1.76975 6.65914,2.60385 6.65253,7.91536 l -0.007,5.05269 -3.24384,-5.10626 c -3.39152,-5.33871 -8.79876,-8.03734 -12.1368,-6.05718 -1.30832,0.77611 -1.50098,0.45151 -0.58051,-0.97804 1.0133,-1.57372 0.60048,-1.85341 -1.56074,-1.05738 -1.61573,0.59527 -3.7218,1.08231 -4.67973,1.08231 -0.95794,0 -1.37973,1.81748 -0.93732,4.03885 0.50881,2.55475 0.0362,4.03885 -1.28625,4.03885 -1.14984,0 -4.26381,4.1802 -6.91992,9.28935 -2.65612,5.10914 -5.44631,9.54734 -6.20042,9.86266 -0.75413,0.31532 -2.10572,2.1328 -3.00354,4.03885 -7.44662,15.80875 -14.46093,23.5425 -17.32218,19.09883 z m 43.3037,-71.266497 c 0.68844,-3.303942 1.78014,-4.603301 3.37427,-4.01614 2.7574,1.015617 8.31526,-3.734948 6.9146,-5.910236 -1.40614,-2.183826 -3.53514,-1.81968 -6.6086,1.130341 -1.4988,1.438599 -2.87837,2.347339 -3.06572,2.019424 -0.18735,-0.327918 -1.15216,-2.006926 -2.14401,-3.731134 -2.46311,-4.281743 -10.19751,-6.642168 -13.40144,-4.089923 -3.4388,2.739324 -3.39183,16.11031 0.0566,16.11031 1.38859,0 2.52471,1.332819 2.52471,2.961821 0,4.529593 1.6759,5.202439 6.72092,2.698336 2.92561,-1.452132 4.98298,-4.073893 5.62869,-7.172799 z m 2.79862,31.495457 c 0,-2.83774 1.00999,-3.25557 2.45282,-1.01474 0.53261,0.82715 0.1986,1.96054 -0.74223,2.51865 -0.94082,0.55811 -1.71059,-0.11865 -1.71059,-1.50391 z M 441.5353,82.658889 c 0,-0.888547 1.18082,-1.615539 2.62405,-1.615539 1.44322,0 2.15593,0.726992 1.5838,1.615539 -0.57214,0.888546 -1.75296,1.615539 -2.62405,1.615539 -0.87109,0 -1.5838,-0.726993 -1.5838,-1.615539 z m -6.73255,-12.285312 c 0,-0.812522 1.51483,-2.385343 3.36628,-3.495155 1.85145,-1.109812 3.36627,-1.76086 3.36627,-1.44677 0,0.314088 -1.51482,1.886909 -3.36627,3.495155 -1.85145,1.608247 -3.36628,2.259294 -3.36628,1.44677 z M 385.38311,59.233573 c -0.53285,-1.332819 -0.31621,-2.423308 0.48143,-2.423308 0.79762,0 1.88619,1.090489 2.41905,2.423308 0.53285,1.33282 0.31621,2.423309 -0.48143,2.423309 -0.79762,0 -1.88619,-1.090489 -2.41905,-2.423309 z m 35.18487,-2.311678 c -0.53262,-0.827149 -0.32483,-1.885658 0.4617,-2.352242 0.78654,-0.466584 1.43008,0.210173 1.43008,1.503908 0,2.724069 -0.53077,2.962077 -1.89178,0.848334 z m -39.62561,-6.573786 c 0,-0.888547 0.334,-1.615539 0.74223,-1.615539 0.40823,0 1.21034,0.726992 1.78248,1.615539 0.57213,0.888546 0.23813,1.615539 -0.74223,1.615539 -0.98036,0 -1.78248,-0.726993 -1.78248,-1.615539 z m 43.76156,0.09535 c 0,-0.836108 0.74875,-1.964355 1.66387,-2.507216 0.9541,-0.565987 1.23626,0.08249 0.66149,1.520194 -1.11894,2.798783 -2.32536,3.31086 -2.32536,0.987017 z"
         id="path3046"
         inkscape:connector-curvature="0" />
    </g>
  </g>
</svg>
