<?xml version="1.0" encoding="UTF-8" standalone="no"?>
<svg
   xmlns:dc="http://purl.org/dc/elements/1.1/"
   xmlns:cc="http://creativecommons.org/ns#"
   xmlns:rdf="http://www.w3.org/1999/02/22-rdf-syntax-ns#"
   xmlns:svg="http://www.w3.org/2000/svg"
   xmlns="http://www.w3.org/2000/svg"
   xmlns:sodipodi="http://sodipodi.sourceforge.net/DTD/sodipodi-0.dtd"
   xmlns:inkscape="http://www.inkscape.org/namespaces/inkscape"
   viewBox="0 0 512 512"
   id="svg8438"
   version="1.1"
   inkscape:version="0.48.4 r9939"
   width="100%"
   height="100%"
   sodipodi:docname="sword swipe.svg">
  <metadata
     id="metadata8464">
    <rdf:RDF>
      <cc:Work
         rdf:about="">
        <dc:format>image/svg+xml</dc:format>
        <dc:type
           rdf:resource="http://purl.org/dc/dcmitype/StillImage" />
        <dc:title></dc:title>
      </cc:Work>
    </rdf:RDF>
  </metadata>
  <defs
     id="defs8462">
    <linearGradient
       id="linearGradient3890">
      <stop
         style="stop-color:#701b1b;stop-opacity:1;"
         offset="0"
         id="stop3892" />
      <stop
         style="stop-color:#e31600;stop-opacity:1;"
         offset="1"
         id="stop3894" />
    </linearGradient>
    <linearGradient
       id="linearGradient3882">
      <stop
         style="stop-color:#600b0b;stop-opacity:1;"
         offset="0"
         id="stop3884" />
      <stop
         style="stop-color:#d11414;stop-opacity:1;"
         offset="1"
         id="stop3886" />
    </linearGradient>
    <linearGradient
       id="linearGradient3872">
      <stop
         style="stop-color:#800600;stop-opacity:1;"
         offset="0"
         id="stop3874" />
      <stop
         style="stop-color:#ff0004;stop-opacity:0;"
         offset="1"
         id="stop3876" />
    </linearGradient>
  </defs>
  <sodipodi:namedview
     pagecolor="#000000"
     bordercolor="#666666"
     borderopacity="1"
     objecttolerance="10"
     gridtolerance="10"
     guidetolerance="10"
     inkscape:pageopacity="0"
     inkscape:pageshadow="2"
     inkscape:window-width="1190"
     inkscape:window-height="1126"
     id="namedview8460"
     showgrid="false"
     inkscape:zoom="0.25"
     inkscape:cx="800.95612"
     inkscape:cy="-163.35822"
     inkscape:window-x="71"
     inkscape:window-y="197"
     inkscape:window-maximized="0"
     inkscape:current-layer="g8466" />
  <g
     id="g8466">
    <rect
       style="fill:#000000;fill-opacity:1;fill-rule:nonzero;stroke:none"
       id="rect3947"
       width="518.513"
       height="518.513"
       x="-1.5340621"
       y="-1.9108263" />
    <path
       sodipodi:type="arc"
       style="opacity:0.98999999;fill:#ffffff;fill-opacity:1;fill-rule:nonzero;stroke:none"
       id="path3073"
       sodipodi:cx="342.23969"
       sodipodi:cy="348.65833"
       sodipodi:rx="25.455845"
       sodipodi:ry="38.890873"
       d="m 367.32402,342.03823 a 25.455845,38.890873 0 1 1 -0.003,-0.0275 l -25.08121,6.64759 z"
       sodipodi:start="6.11213"
       sodipodi:end="12.394598"
       transform="translate(-45.254834,-124.45079)" />
    <path
       sodipodi:type="arc"
       style="opacity:0.98999999;fill:#ffffff;fill-opacity:1;fill-rule:nonzero;stroke:none"
       id="path3082"
       sodipodi:cx="266.57925"
       sodipodi:cy="125.21259"
       sodipodi:rx="50.204582"
       sodipodi:ry="12.020815"
       d="m 316.05113,123.16638 a 50.204582,12.020815 0 1 1 -0.006,-0.008 l -49.46574,2.0547 z"
       sodipodi:start="6.11213"
       sodipodi:end="12.394598"
       transform="matrix(0.62115476,0.78368793,-0.78368793,0.62115476,182.14932,-136.02291)" />
    <path
       transform="matrix(0.97468653,-0.22357588,0.22357588,0.97468653,17.383995,133.92144)"
       sodipodi:end="12.394598"
       sodipodi:start="6.11213"
       d="m 350.5289,336.38137 a 13.435029,38.890873 0 1 1 -0.002,-0.0275 l -13.23731,6.64758 z"
       sodipodi:ry="38.890873"
       sodipodi:rx="13.435029"
       sodipodi:cy="343.00146"
       sodipodi:cx="337.28995"
       id="path3086"
       style="opacity:0.98999999;fill:#ffffff;fill-opacity:1;fill-rule:nonzero;stroke:none"
       sodipodi:type="arc"
       inkscape:transform-center-y="-36.382903"
       inkscape:transform-center-x="-4.9226984" />
    <path
       sodipodi:type="arc"
       style="opacity:0.98999999;fill:#ffffff;fill-opacity:1;fill-rule:nonzero;stroke:none"
       id="path3084"
       sodipodi:cx="337.28995"
       sodipodi:cy="343.00146"
       sodipodi:rx="13.435029"
       sodipodi:ry="38.890873"
       d="m 350.5289,336.38137 a 13.435029,38.890873 0 1 1 -0.002,-0.0275 l -13.23731,6.64758 z"
       sodipodi:start="6.11213"
       sodipodi:end="12.394598"
       transform="translate(-7.0710678,-1.4142136)" />
    <path
       inkscape:connector-curvature="0"
       id="path3047"
       d="m 432.30275,462.24228 c -6.56715,-1.70271 -27.4099,-10.70125 -46.31723,-19.99678 -18.90734,-9.29552 -45.57539,-22.39214 -59.26237,-29.10361 l -24.88536,-12.2027 -4.72493,4.66649 c -7.06624,6.97886 -10.91341,5.75802 -18.4244,-5.8467 -8.72996,-13.48807 -9.79713,-14.21576 -18.82754,-12.83815 -5.94422,0.90679 -9.49907,-0.21269 -16.84263,-5.30468 -14.08923,-9.76917 -17.85282,-13.78103 -20.87314,-22.24996 -1.51948,-4.26061 -7.37605,-12.78024 -13.01461,-18.9325 -5.89337,-6.43029 -11.91373,-15.84004 -14.16074,-22.13304 -2.72503,-7.63175 -6.307,-12.68562 -11.8275,-16.68756 -4.35527,-3.15723 -9.23728,-8.38616 -10.84892,-11.61984 -3.70804,-7.44 -6.53992,-7.45753 -9.2163,-0.0571 -1.15811,3.20228 -3.97686,8.58497 -6.26388,11.96152 -2.28702,3.3766 -4.15822,8.03143 -4.15822,10.34416 0,5.03856 -10.10223,22.12106 -16.7396,28.30605 -2.60963,2.43176 -6.05849,7.09211 -7.66414,10.35634 -1.60564,3.26423 -5.06139,6.63052 -7.67944,7.48066 -8.84991,2.87378 -33.206645,19.18615 -38.474015,25.76713 -4.349241,5.43385 -5.010261,8.00275 -3.913926,15.21049 1.838948,12.08992 -1.337351,15.33629 -15.005354,15.33629 -14.045273,0 -18.531865,-4.30959 -12.164616,-11.68474 2.333849,-2.70326 4.819504,-7.48668 5.523673,-10.62981 0.704171,-3.14314 5.999296,-12.43531 11.766947,-20.64931 5.767651,-8.21401 11.064077,-16.8472 11.769836,-19.18489 0.705761,-2.33769 2.166756,-4.25036 3.246657,-4.25036 1.079899,0 1.963455,-1.95694 1.963455,-4.34875 0,-2.3918 1.894796,-5.4148 4.210657,-6.71777 2.577762,-1.45033 4.210657,-4.63426 4.210657,-8.21025 l 0,-5.8412 -4.87268,4.81243 c -9.013689,8.9022 -15.033472,5.38707 -17.398164,-10.15933 -1.486133,-9.7704 3.895005,-30.77025 12.221361,-47.69377 2.806822,-5.70492 3.754599,-10.72507 2.925011,-15.49313 -1.420303,-8.16315 0.358782,-11.94613 7.33853,-15.60436 3.316697,-1.73835 5.39641,-5.20149 6.193281,-10.31303 1.56163,-10.01718 6.81767,-18.21662 15.79977,-24.64769 3.98,-2.84964 6.95274,-6.09776 6.60608,-7.21806 -0.34665,-1.1203 -7.20828,-6.24889 -15.24806,-11.39686 -16.001926,-10.24624 -18.537742,-15.80994 -8.766482,-19.23407 4.555742,-1.59646 9.217262,-0.7412 21.053292,3.86272 8.36108,3.25225 18.04417,6.67292 21.51796,7.60149 3.47379,0.92856 9.34798,3.34028 13.05375,5.35938 8.69868,4.73948 18.72369,4.7797 20.43842,0.082 0.85928,-2.3541 -1.59874,-6.90662 -7.1434,-13.23037 -5.20954,-5.94155 -8.45348,-11.78361 -8.45348,-15.22401 0,-5.75685 1.8798,-7.03054 5.36859,-3.63758 1.10003,1.06982 8.57686,2.46446 16.61518,3.09919 14.13398,1.11607 14.80871,0.9362 20.49574,-5.46402 l 5.88062,-6.61808 -11.85314,-14.10565 c -6.51923,-7.7581 -15.50546,-16.64659 -19.96941,-19.7522 -4.46394,-3.1056 -8.11626,-6.61163 -8.11626,-7.79117 0,-1.179545 -4.82716,-4.716175 -10.72702,-7.859195 -10.47871,-5.58229 -36.44178,-28.964176 -36.84651,-33.183315 -0.32083,-3.34449 5.42143,-1.558006 29.95288,9.318695 12.58618,5.580431 27.31078,11.437617 32.72133,13.015968 5.41054,1.578349 11.56863,3.853647 13.68463,5.056212 9.91348,5.63405 45.13229,32.471995 70.18743,53.485225 15.24041,12.78183 31.02027,25.34799 35.06636,27.9248 11.69655,7.44914 26.98006,24.51626 35.22254,39.33314 4.18079,7.51544 9.49274,15.36689 11.80435,17.44766 2.31161,2.08077 4.20293,5.3059 4.20293,7.16695 0,1.86106 6.89259,11.58169 15.31688,21.60138 14.71867,17.50613 29.38969,38.89603 32.47421,47.34635 0.80796,2.21352 5.07018,9.42905 9.47156,16.03449 4.4014,6.60543 8.00254,13.88806 8.00254,16.18359 0,2.29553 6.15809,16.41019 13.68464,31.36593 7.52655,14.95573 13.68463,27.9588 13.68463,28.89574 0,0.93691 -1.42109,1.1302 -3.15799,0.42949 -5.45478,-2.20053 -3.61704,4.89775 7.31101,28.23899 6.88006,14.69512 10.66919,25.77514 11.05297,32.32061 l 0.58398,9.95986 -8.42132,0.42002 c -4.63172,0.231 -13.79443,-0.97312 -20.36156,-2.67584 z m 4.53937,-42.56358 c -0.0168,-0.91298 -0.91363,-3.12512 -1.99087,-4.91583 -2.42561,-4.03218 -5.27132,-1.51043 -3.56638,3.1604 1.25915,3.44958 5.61687,4.82613 5.55725,1.75543 z m -7.1237,-21.47663 c -0.74009,-3.09998 -2.27495,-5.63634 -3.41082,-5.63634 -2.70396,0 -2.62082,3.62626 0.21068,9.18829 2.96422,5.82276 4.92003,3.65197 3.20014,-3.55195 z M 311.14286,384.21663 c -6.19695,-5.06892 -9.56742,-29.27705 -4.07619,-29.27705 8.1036,0 6.06896,-10.13177 -7.93425,-39.50988 -7.61295,-15.97163 -13.84174,-31.111 -13.84174,-33.64304 0,-2.53204 -1.04521,-6.65689 -2.3227,-9.16631 -1.69662,-3.33277 -1.69243,-4.97205 0.0147,-6.0818 1.53316,-0.99615 -0.20422,-5.27867 -5.04595,-12.43795 -4.06048,-6.00529 -7.38339,-12.36234 -7.38339,-14.12677 0,-1.76444 -2.39424,-6.84015 -5.32054,-11.27936 -2.92628,-4.4392 -5.69277,-10.10333 -6.14773,-12.58694 -1.79622,-9.80538 -9.76753,-23.02785 -13.38002,-22.19423 -1.96549,0.45356 -3.2073,2.25948 -2.75954,4.01316 2.45113,9.60002 2.69226,14.29949 1.32428,25.80994 -1.42211,11.96578 -2.28858,13.4743 -15.37254,26.76346 -11.98611,12.17408 -14.66853,13.91411 -19.78996,12.8373 -3.25846,-0.68513 -5.92447,-0.75425 -5.92447,-0.15361 0,0.60063 2.39338,5.90404 5.31861,11.78536 5.88436,11.83077 5.31708,19.39978 -1.17999,15.74434 -6.08492,-3.42359 -8.34927,-2.5857 -8.34927,3.08948 0,8.58691 4.78424,11.02796 11.20594,5.71758 5.04425,-4.1713 5.97001,-4.2724 11.51564,-1.25757 3.72296,2.02395 9.72316,9.89523 15.68113,20.57108 5.30789,9.51097 12.49437,20.77863 15.96993,25.03924 l 6.31923,7.74656 2.23455,-6.08658 c 1.22901,-3.34762 2.53675,-6.08659 2.90613,-6.08659 0.36938,0 4.6561,3.90606 9.52609,8.68016 8.95185,8.77559 10.70046,14.54442 6.75673,22.29127 -1.15378,2.26642 -1.58421,5.52774 -0.95653,7.24737 1.90909,5.23013 14.0337,10.18551 25.16026,10.28312 10.36868,0.091 10.45649,0.035 5.85155,-3.73174 z m 119.36868,-8.80399 c -0.0257,-0.91299 -1.93301,-4.14995 -4.23834,-7.19324 -3.38489,-4.46837 -3.92073,-4.68134 -2.78436,-1.10665 2.19299,6.89854 7.14835,12.75509 7.0227,8.29989 z m -96.7983,-25.0145 c 0,-3.3438 -9.17388,-19.76756 -11.05297,-19.78787 -0.86845,-0.009 -1.579,0.33234 -1.579,0.75934 0,2.37523 5.12989,16.23791 6.87925,18.59004 2.50736,3.3713 5.75272,3.61867 5.75272,0.43849 z M 285.29068,243.43873 c 0,-3.55041 -5.85635,-9.23853 -7.61175,-7.3931 -0.65671,0.69041 -0.56998,3.32228 0.19264,5.84865 1.542,5.10761 7.41901,6.33105 7.41901,1.54445 z M 140.023,211.34584 c 0,-2.7899 -6.18014,-7.7915 -7.67961,-6.21513 -2.15598,2.26655 1.06159,8.15742 4.45554,8.15742 1.77324,0 3.22407,-0.87403 3.22407,-1.94229 z m 57.90573,-2.49994 c 0.7207,-1.22591 -0.21165,-2.84294 -2.07187,-3.59338 -4.03097,-1.62616 -6.2775,0.16582 -4.33987,3.46176 1.74822,2.97374 4.70522,3.03444 6.41174,0.13163 z m 10.50255,0.041 c 0.73758,-1.25463 -0.10749,-1.62568 -1.98108,-0.86985 -3.6473,1.47139 -4.31463,3.0578 -1.28626,3.0578 1.0896,0 2.5599,-0.98457 3.26734,-2.18796 z m -55.7763,-10.22202 c 0,-2.33398 -1.14489,-3.09489 -3.33019,-2.21331 -1.8316,0.7389 -3.78231,1.34345 -4.3349,1.34345 -0.5526,0 -0.41921,0.99599 0.29644,2.21331 2.07323,3.52661 7.36865,2.56115 7.36865,-1.34345 z m 91.10003,-66.1179 c -2.03688,-3.82638 -15.26375,-14.43089 -17.99946,-14.43089 -1.03027,0 1.1282,3.98395 4.79659,8.85322 3.72771,4.948 8.49525,8.85321 10.80817,8.85321 3.03552,0 3.67369,-0.87291 2.3947,-3.27554 z"
       style="fill:#b3b3b3" />
    <path
       inkscape:connector-curvature="0"
       id="path3047-1"
       d="m 245.6023,199.06572 c -1.42211,11.96578 5.55217,35.95126 -16.87254,51.76346 -7.92471,10.3122 -14.66852,13.91411 -19.78995,12.8373 -3.25846,-0.68513 -5.92447,-0.75425 -5.92447,-0.15361 0,0.60063 2.39338,5.90404 5.31861,11.78536 5.88436,11.83077 5.31708,19.39978 -1.17999,15.74434 -6.08492,-3.42359 -8.34927,-2.5857 -8.34927,3.08948 0,8.58691 4.78424,11.02796 11.20594,5.71758 5.04425,-4.1713 5.97001,-4.2724 11.51564,-1.25757 3.72296,2.02395 9.72315,9.89523 15.68112,20.57108 5.30789,9.51097 12.49437,20.77863 15.96993,25.03924 l 6.31923,7.74656 2.23455,-6.08658 c 1.22901,-3.34762 2.53675,-6.08659 2.90613,-6.08659 0.36938,0 4.6561,3.90606 9.52609,8.68016 8.95185,8.77559 10.70046,14.54442 6.75673,22.29127 -1.15378,2.26642 2.52547,7.37746 0.0704,7.49814 -7.68931,5.63583 -12.26659,7.6272 -21.297,9.00481 -5.94422,0.90679 -9.49907,-0.21269 -16.84263,-5.30468 -14.08923,-9.76917 -17.85281,-13.78103 -20.87313,-22.24996 -1.51948,-4.26061 -7.37605,-12.78024 -13.01461,-18.9325 -5.89337,-6.43029 -11.91373,-15.84004 -14.16074,-22.13304 -2.72503,-7.63175 -6.307,-12.68562 -11.8275,-16.68756 -4.35527,-3.15723 -9.23728,-8.38616 -10.84892,-11.61984 -3.70804,-7.44 -6.53992,-7.45753 -9.2163,-0.0571 -1.15811,3.20228 -3.97686,8.58497 -6.26388,11.96152 -2.28702,3.3766 -4.15822,8.03143 -4.15822,10.34416 0,5.03856 -10.10224,22.12106 -16.73961,28.30605 -2.60963,2.43176 -6.05849,7.09211 -7.66414,10.35634 -1.60564,3.26423 -5.06139,6.63052 -7.67944,7.48066 -8.84991,2.87378 -33.206644,19.18615 -38.474014,25.76713 -4.349241,5.43385 -5.010261,8.00275 -3.913926,15.21049 1.838948,12.08992 -1.337351,15.33629 -15.005354,15.33629 -14.045273,0 -18.531865,-4.30959 -12.164616,-11.68474 2.333849,-2.70326 4.819504,-7.48668 5.523673,-10.62981 0.704171,-3.14314 5.999296,-12.43531 11.766947,-20.64931 5.767651,-8.21401 11.064077,-16.8472 11.769836,-19.18489 0.705761,-2.33769 2.166756,-4.25036 3.246657,-4.25036 1.079899,0 1.963455,-1.95694 1.963455,-4.34875 0,-2.3918 1.894796,-5.4148 4.210662,-6.71777 2.57776,-1.45033 4.21065,-4.63426 4.21065,-8.21025 l 0,-5.8412 -4.872678,4.81243 c -9.013689,8.9022 -15.033472,5.38707 -17.398164,-10.15933 -1.486133,-9.7704 3.895005,-30.77025 12.221361,-47.69377 2.806822,-5.70492 3.754599,-10.72507 2.925011,-15.49313 -1.420303,-8.16315 0.358782,-11.94613 7.33853,-15.60436 3.3167,-1.73835 5.39641,-5.20149 6.19328,-10.31303 1.56163,-10.01718 6.81767,-18.21662 15.79977,-24.64769 3.98,-2.84964 6.95274,-6.09776 6.60608,-7.21806 -0.34665,-1.1203 -7.20828,-6.24889 -15.24806,-11.39686 -16.00192,-10.24624 -18.537741,-15.80994 -8.76648,-19.23407 4.55574,-1.59646 9.21726,-0.7412 21.05329,3.86272 8.36108,3.25225 18.04417,6.67292 21.51796,7.60149 3.47379,0.92856 9.34799,3.34028 13.05376,5.35938 8.69868,4.73948 18.72369,4.7797 20.43842,0.082 0.85928,-2.3541 -1.59874,-6.90662 -7.1434,-13.23037 -5.20954,-5.94155 -8.45348,-11.78361 -8.45348,-15.22401 0,-5.75685 1.8798,-7.03054 5.36859,-3.63758 1.10003,1.06982 8.57686,2.46446 16.61518,3.09919 14.13398,1.11607 14.80871,0.9362 20.49574,-5.46402 l 5.88062,-6.61808 m -67.30812,69.28128 c 0,-2.7899 -6.18014,-7.7915 -7.67961,-6.21513 -2.15598,2.26655 1.06159,8.15742 4.45554,8.15742 1.77324,0 3.22407,-0.87403 3.22407,-1.94229 z m 57.90574,-2.49994 c 0.7207,-1.22591 -0.21165,-2.84294 -2.07187,-3.59338 -4.03097,-1.62616 -6.2775,0.16582 -4.33987,3.46176 1.74822,2.97374 4.70522,3.03444 6.41174,0.13162 z m 10.50255,0.041 c 0.73758,-1.25463 -0.10749,-1.62568 -1.98108,-0.86985 -3.6473,1.47139 -4.31463,3.0578 -1.28626,3.0578 1.0896,0 2.5599,-0.98457 3.26734,-2.18795 z M 152.4875,198.9942 c 0,-2.33398 -1.14489,-3.09489 -3.33019,-2.21331 -1.83161,0.7389 -3.78232,1.34345 -4.33491,1.34345 -0.5526,0 -0.41921,0.99599 0.29644,2.21331 2.07323,3.52661 7.36866,2.56115 7.36866,-1.34345 z m 88.70532,-62.84236 c -75.40062,244.98413 -37.70031,122.49206 0,0 z"
       style="fill:#666666"
       sodipodi:nodetypes="ccssssssssscsssscsssssssssssssssssssssssscssssssssssssssssssscsssssssscsscssssscc" />
    <path
       inkscape:connector-curvature="0"
       id="path3039"
       d="m 430.28534,459.16774 c -6.51879,-2.19212 -21.67716,-9.00412 -33.68526,-15.13778 -12.00812,-6.13364 -31.16208,-15.80963 -42.56435,-21.5022 -11.40229,-5.69258 -20.24177,-10.86493 -19.64327,-11.49411 1.04669,-1.10039 53.90393,19.76226 60.37532,23.83002 11.17234,7.02266 30.61055,15.86009 43.68557,19.86133 8.39499,2.56904 15.26363,5.56997 15.26363,6.66872 0,3.12988 -10.45953,2.13624 -23.43164,-2.22598 z m 17.73973,-14.03604 c -2.27375,-3.15031 -7.44629,-26.21192 -6.17815,-27.5451 1.27798,-1.34352 13.97539,23.14954 13.97539,26.95824 0,4.05311 -5.02262,4.43112 -7.79724,0.58686 z m -32.86192,-36.28896 c -2.11051,-2.21874 -1.77351,-14.0637 0.40014,-14.0637 3.15849,0 6.95594,6.24032 6.22128,10.22345 -0.76796,4.16368 -4.34203,6.23656 -6.62142,3.84026 z m -30.41613,-6.74302 c -6.07419,-9.06439 -7.83407,-16.1739 -4.00366,-16.1739 2.84272,0 10.96049,19.45195 8.98464,21.52916 -0.44928,0.4723 -2.69072,-1.93757 -4.98098,-5.35526 z m -102.088,-3.88254 c -3.18431,-4.19554 -5.78965,-8.30396 -5.78965,-9.12981 0,-1.76495 9.10948,-0.0465 17.43515,3.28899 5.70363,2.28504 5.76574,2.49059 2.38953,7.90761 -4.60876,7.3946 -7.1366,7.02234 -14.03503,-2.06679 z m 25.79028,-0.11819 c -2.89483,-1.7397 -4.31592,-3.1631 -3.15799,-3.1631 1.15793,0 4.47382,1.4234 7.36865,3.1631 2.89482,1.7397 4.31592,3.1631 3.15799,3.1631 -1.15793,0 -4.47382,-1.4234 -7.36865,-3.1631 z M 69.970671,386.79532 c -2.711057,-2.85012 7.028084,-18.35145 18.118252,-28.838 6.683122,-6.31936 12.529887,-14.1585 14.159067,-18.98399 2.49475,-7.38925 2.3719,-8.68808 -1.21605,-12.85607 -4.564045,-5.30185 -2.405506,-11.53496 4.4788,-12.93317 5.37308,-1.09129 7.07243,-4.35419 7.11075,-13.65323 0.0257,-6.23747 -1.16112,-8.56378 -5.85668,-11.47976 -8.225499,-5.10813 -12.449786,-13.76175 -8.907943,-18.24827 1.474254,-1.86748 4.737533,-3.39541 7.251723,-3.39541 3.87659,0 5.00086,-2.0358 7.3983,-13.39664 2.80099,-13.27318 2.7759,-13.45275 -2.72372,-19.48752 -6.59424,-7.2359 -6.99814,-10.60067 -1.49297,-12.43756 2.23178,-0.74466 5.98942,-4.79573 8.35031,-9.00236 5.9457,-10.59404 8.26214,-9.55916 6.41239,2.86477 -1.66506,11.18342 -0.46713,22.68636 2.36258,22.68636 0.93982,0 2.09882,-3.23696 2.57555,-7.19324 0.78772,-6.53713 1.01432,-6.73901 2.48427,-2.2133 1.04194,3.20794 3.32279,4.97993 6.41001,4.97993 2.63589,0 5.3785,1.60534 6.09469,3.56743 0.93883,2.57201 3.14578,3.28295 7.9095,2.54793 6.18685,-0.9546 6.87696,-0.34857 10.84414,9.52305 2.68536,6.68205 5.84627,10.95169 8.63205,11.65986 2.41738,0.61453 6.52688,1.81188 9.13223,2.66079 4.06702,1.32517 4.73699,0.73657 4.73699,-4.1617 0,-3.13786 -2.13165,-7.83277 -4.73699,-10.43315 l -4.73699,-4.72795 5.15701,-3.65815 c 2.83636,-2.01198 7.88665,-6.80757 11.22287,-10.65684 3.33621,-3.84929 9.06844,-8.27015 12.73828,-9.82414 8.8394,-3.74303 19.65559,-12.3692 21.3582,-17.03366 0.91482,-2.50625 -0.43161,-5.25245 -4.07096,-8.30319 -5.90756,-4.95211 -10.1602,-23.27263 -8.07018,-34.76659 1.19103,-6.54999 -2.67772,-8.36734 -7.3518,-3.45354 -1.37022,1.44049 -3.0759,2.0045 -3.79041,1.25334 -0.7145,-0.75114 1.80518,-5.42669 5.59929,-10.39009 l 6.89839,-9.02437 20.15591,1.27252 c 11.08573,0.69989 21.34013,1.67563 22.78755,2.1683 1.47901,0.50344 2.65216,4.56146 2.67848,9.26513 0.0274,4.88002 1.76326,10.67626 4.16384,13.90261 4.78396,6.42962 5.39008,11.06652 1.44655,11.06652 -1.52026,0 -5.44299,2.93957 -8.7172,6.53237 -3.27421,3.59281 -8.65128,7.15539 -11.94905,7.91685 -7.89544,1.82307 -8.93851,4.08347 -5.30298,11.4921 2.24914,4.58338 2.5774,9.07626 1.2877,17.62424 -2.41492,16.00579 -5.18083,20.62025 -12.35981,20.62025 -5.58427,0 -5.95794,-0.56557 -5.7548,-8.71 0.26243,-10.52177 -0.22375,-11.13912 -7.59931,-9.64962 -4.70828,0.95084 -5.78965,2.35235 -5.78965,7.50367 0,5.97163 -0.30473,6.18846 -5.32043,3.78597 -8.018,-3.84062 -10.15396,-0.18083 -7.16869,12.2827 1.92467,8.0356 1.89623,11.01741 -0.12959,13.58356 -2.13135,2.69983 -1.42328,4.69156 3.9589,11.1359 6.9811,8.35881 8.74537,15.0788 3.39179,12.91908 -1.73949,-0.70175 -5.52908,-0.65151 -8.42132,0.11155 -4.34804,1.14733 -5.25862,2.72168 -5.25862,9.09199 0,4.44464 -1.05121,7.7044 -2.48452,7.7044 -1.36649,0 -6.53248,-4.56977 -11.47998,-10.15502 -4.94751,-5.58527 -9.92612,-9.55036 -11.06358,-8.81131 -3.05932,1.98774 -14.73323,25.35742 -17.47817,34.98907 -3.8904,13.65097 -24.22514,36.38804 -40.28228,45.04122 -7.63449,4.11422 -15.218905,6.94063 -16.854246,6.28089 -1.828851,-0.73778 -5.65357,2.47009 -9.93644,8.33393 -9.725585,13.31564 -9.503774,13.08357 -11.001003,11.50956 z m 342.692399,-3.0828 c -0.71564,-1.21732 -3.10315,-2.21331 -5.30556,-2.21331 -2.20242,0 -5.923,-2.16501 -8.26798,-4.81112 l -4.26356,-4.81113 5.41351,-7.46146 c 4.35854,-6.00743 4.91805,-8.08909 2.8711,-10.68203 -1.39832,-1.77128 -4.26527,-3.22051 -6.37102,-3.22051 -5.32231,0 -6.57635,-3.04921 -4.08604,-9.93518 3.01014,-8.32333 8.19274,-6.34503 14.08846,5.37779 2.7188,5.40598 6.34754,11.46033 8.06385,13.4541 1.71631,1.99376 3.12056,5.58837 3.12056,7.98801 0,2.39964 0.91637,5.32636 2.03638,6.50382 2.73457,2.87481 0.29178,12.02432 -3.21033,12.02432 -1.53352,0 -3.37373,-0.99599 -4.08937,-2.2133 z M 240.02612,374.8593 c -4.37121,-3.65195 -8.64634,-6.6399 -9.50031,-6.6399 -0.85397,0 -2.12071,-2.98586 -2.81498,-6.63527 -0.72853,-3.82945 -6.64937,-12.72293 -14.00178,-21.03156 -11.94339,-13.49667 -18.38844,-24.56467 -15.85517,-27.22785 0.60764,-0.6388 5.13428,-1.24766 10.05921,-1.353 8.25619,-0.17663 9.00636,0.28304 9.62058,5.89501 0.74023,6.76324 3.60844,7.71333 8.69012,2.8786 4.34348,-4.13238 6.13833,-2.71105 15.52004,12.29031 8.70312,13.91628 9.10315,15.26402 4.53044,15.26402 -8.6597,0 -7.09222,19.62928 2.25346,28.21963 8.24453,7.57817 0.82103,6.12869 -8.50161,-1.65999 z m 15.78996,2.21331 c 0,-2.9062 1.40356,-4.42661 4.0864,-4.42661 2.24753,0 4.73444,-1.1023 5.52649,-2.44959 1.78163,-3.0306 5.04475,1.73032 5.09218,7.42953 0.0246,2.95753 -1.70993,3.87328 -7.33642,3.87328 -5.96509,0 -7.36865,-0.84315 -7.36865,-4.4266 z m 117.89841,-7.74657 c -1.52041,-1.92592 -6.11352,-3.31995 -10.93881,-3.31995 -6.79191,0 -8.1861,-0.71058 -7.59956,-3.87328 0.41627,-2.24445 2.64739,-3.90124 5.30549,-3.93977 2.52294,-0.0365 5.26343,-0.77745 6.09,-1.64641 2.23454,-2.34914 -5.53987,-10.46028 -10.02606,-10.46028 -2.13638,0 -3.88435,-1.42687 -3.88435,-3.1708 0,-1.74395 -1.83477,-3.783 -4.07726,-4.53125 -2.24251,-0.74825 -4.37416,-3.55432 -4.73699,-6.23574 -0.8107,-5.99099 -9.50946,-8.05417 -11.45743,-2.71747 -1.12989,3.09541 -1.72159,2.94956 -4.41128,-1.08746 -5.60253,-8.40896 1.76151,-31.68462 11.22069,-35.46545 2.77253,-1.10816 5.04096,-3.0355 5.04096,-4.28294 0,-4.60407 3.75239,-2.08883 4.70576,3.15429 0.61849,3.40131 -0.12379,5.87003 -1.99124,6.62344 -5.06666,2.04396 -1.27669,21.05078 5.70742,28.6228 6.54284,7.09361 10.52601,6.21398 10.52601,-2.32457 0,-4.46054 0.84336,-5.42892 3.9776,-4.56726 7.19677,1.97852 9.9712,-1.69406 7.17115,-9.49268 -1.366,-3.80452 -1.76437,-8.929 -0.88779,-11.42012 1.73003,-4.91659 1.04024,-5.56841 16.58199,15.66928 4.67128,6.38328 6.42664,15.73281 2.95379,15.73281 -0.98074,0 -4.05979,-2.08132 -6.84232,-4.62516 -4.58212,-4.18908 -5.12832,-4.26599 -5.79312,-0.81574 -0.4037,2.09519 0.47719,6.1886 1.95753,9.09648 2.06779,4.06188 2.11592,5.89219 0.20759,7.89833 -3.5295,3.71051 -3.09117,5.65158 1.63217,7.22759 4.3154,1.43991 3.77322,5.55519 -2.4099,18.29134 -2.83735,5.84449 -4.45452,6.17912 -8.0221,1.65997 z m 5.54156,-10.60889 c -2.28477,-6.9868 -5.94966,-10.23704 -7.17732,-6.36522 -0.52277,1.6488 7.31052,13.65416 8.90912,13.65416 0.35848,0 -0.42083,-3.28003 -1.7318,-7.28894 z M 76.863142,320.48786 c 0,-9.15456 3.468095,-17.19799 6.55148,-15.19461 7.419201,4.82049 5.299765,23.08668 -2.67876,23.08668 -3.036014,0 -3.87272,-1.70509 -3.87272,-7.89207 z M 209.98692,254.90824 c 0.73141,-2.30674 12.1439,-7.06884 12.1439,-5.06729 0,0.41644 -1.48877,2.32229 -3.30837,4.2352 -3.88255,4.08169 -10.05004,4.6625 -8.83553,0.83209 z m 106.34865,-0.12066 c -1.89484,-1.52165 -4.09971,-5.61575 -4.89974,-9.09803 -1.35736,-5.90831 -1.11887,-6.21547 3.5691,-4.59657 2.76302,0.95414 7.10837,1.57754 9.65633,1.38533 6.2112,-0.46857 8.03001,3.27893 4.73389,9.75367 -2.98601,5.86557 -7.77165,6.80206 -13.05958,2.55561 z m -12.7987,-20.84196 c -2.42247,-2.54669 -1.53318,-5.16436 1.75444,-5.16436 1.73689,0 3.15799,1.49398 3.15799,3.31995 0,3.45623 -2.48997,4.39113 -4.91243,1.84441 z m -130.53038,-2.2133 c -0.77196,-0.81153 -1.40356,-3.57788 -1.40356,-6.14743 0,-8.61586 -5.91018,-14.67746 -13.76834,-14.1211 -7.26443,0.51433 -12.6264,-2.38926 -7.77368,-4.20955 3.10842,-1.16599 8.21722,-6.25741 9.24841,-9.21697 0.39287,-1.12754 2.6091,-2.39031 4.92496,-2.80615 3.06628,-0.55058 4.39809,0.63418 4.90029,4.3592 0.92166,6.83634 5.88913,8.49547 10.96809,3.66334 5.2312,-4.97697 5.7904,-0.0791 0.83939,7.35192 -1.88772,2.83333 -2.72557,6.82133 -1.96345,9.34569 2.35036,7.78512 -1.86439,16.09945 -5.97211,11.78105 z m -56.1421,-48.97499 c 0,-1.16971 1.53037,-3.46197 3.40082,-5.09392 2.94227,-2.56711 3.29711,-2.40456 2.63166,1.20556 -0.79295,4.30182 -6.03248,7.67907 -6.03248,3.88836 z m -16.84263,-8.20201 c -2.25034,-2.85056 -1.506171,-3.31996 5.26332,-3.31996 6.76949,0 7.51366,0.4694 5.26332,3.31996 -1.44149,1.82597 -3.80999,3.31995 -5.26332,3.31995 -1.45333,0 -3.82183,-1.49398 -5.26332,-3.31995 z m 72.98473,-2.58219 c -2.66912,-2.80601 -1.38722,-5.16438 2.8071,-5.16438 2.33926,0 4.21066,1.47554 4.21066,3.31996 0,3.36956 -4.45362,4.54006 -7.01776,1.84443 z"
       style="fill:#ffffff" />
    <path
       inkscape:connector-curvature="0"
       id="path3037"
       d="m 382.1358,435.5544 -5.26332,-3.33386 5.26332,1.44775 c 2.89483,0.79626 6.16335,2.33178 7.26339,3.41227 3.2158,3.15869 -1.3975,2.18936 -7.26339,-1.52616 z m -99.47678,-37.33722 c -3.18431,-4.19554 -5.78965,-8.30396 -5.78965,-9.12981 0,-1.76495 9.10948,-0.0465 17.43515,3.28899 5.70363,2.28504 5.76574,2.49059 2.38953,7.90761 -4.60876,7.3946 -7.1366,7.02234 -14.03503,-2.06679 z M 69.970671,386.79532 c -2.711057,-2.85012 7.028084,-18.35145 18.118252,-28.838 6.683122,-6.31936 12.529887,-14.1585 14.159067,-18.98399 2.49475,-7.38925 2.3719,-8.68808 -1.21605,-12.85607 -4.564045,-5.30185 -2.405506,-11.53496 4.4788,-12.93317 5.37308,-1.09129 7.07243,-4.35419 7.11075,-13.65323 0.0257,-6.23747 -1.16112,-8.56378 -5.85668,-11.47976 -8.225499,-5.10813 -12.449786,-13.76175 -8.907943,-18.24827 1.474254,-1.86748 4.737533,-3.39541 7.251723,-3.39541 3.87659,0 5.00086,-2.0358 7.3983,-13.39664 2.80099,-13.27318 2.7759,-13.45275 -2.72372,-19.48752 -6.59424,-7.2359 -6.99814,-10.60067 -1.49297,-12.43756 2.23178,-0.74466 5.98942,-4.79573 8.35031,-9.00236 5.9457,-10.59404 8.26214,-9.55916 6.41239,2.86477 -1.66506,11.18342 -0.46713,22.68636 2.36258,22.68636 0.93982,0 2.09882,-3.23696 2.57555,-7.19324 0.78772,-6.53713 1.01432,-6.73901 2.48427,-2.2133 1.04194,3.20794 3.32279,4.97993 6.41001,4.97993 2.63589,0 5.3785,1.60534 6.09469,3.56743 0.93883,2.57201 3.14578,3.28295 7.9095,2.54793 6.18685,-0.9546 6.87696,-0.34857 10.84414,9.52305 2.68536,6.68205 5.84627,10.95169 8.63205,11.65986 2.41738,0.61453 6.52688,1.81188 9.13223,2.66079 4.06702,1.32517 4.73699,0.73657 4.73699,-4.1617 0,-3.13786 -2.13165,-7.83277 -4.73699,-10.43315 l -4.73699,-4.72795 5.15701,-3.65815 c 2.83636,-2.01198 7.88665,-6.80757 11.22287,-10.65684 3.33621,-3.84929 9.06844,-8.27015 12.73828,-9.82414 8.8394,-3.74303 19.65559,-12.3692 21.3582,-17.03366 0.91482,-2.50625 -0.43161,-5.25245 -4.07096,-8.30319 -5.90756,-4.95211 -10.1602,-23.27263 -8.07018,-34.76659 1.19103,-6.54999 -2.67772,-8.36734 -7.3518,-3.45354 -4.9732,5.22826 -5.24652,-0.57881 -0.28901,-6.14058 4.0642,-4.55959 6.47128,-5.48418 11.8868,-4.56585 8.30723,1.40867 22.96028,13.38731 24.55686,20.07485 0.64374,2.69645 2.99377,7.11276 5.22226,9.81402 5.25364,6.36815 3.55409,12.7476 -4.14806,15.57029 -7.02186,2.57337 -7.10582,2.86126 -3.17244,10.87746 2.15927,4.40058 2.47616,9.0021 1.20166,17.44933 -2.41492,16.00579 -5.18083,20.62025 -12.35981,20.62025 -5.58427,0 -5.95794,-0.56557 -5.7548,-8.71 0.26243,-10.52177 -0.22375,-11.13912 -7.59931,-9.64962 -4.70828,0.95084 -5.78965,2.35235 -5.78965,7.50367 0,5.97163 -0.30473,6.18846 -5.32043,3.78597 -8.018,-3.84062 -10.15396,-0.18083 -7.16869,12.2827 1.92467,8.0356 1.89623,11.01741 -0.12959,13.58356 -2.13135,2.69983 -1.42328,4.69156 3.9589,11.1359 6.9811,8.35881 8.74537,15.0788 3.39179,12.91908 -1.73949,-0.70175 -5.52908,-0.65151 -8.42132,0.11155 -4.34804,1.14733 -5.25862,2.72168 -5.25862,9.09199 0,4.44464 -1.05121,7.7044 -2.48452,7.7044 -1.36649,0 -6.53248,-4.56977 -11.47998,-10.15502 -4.94751,-5.58527 -9.92612,-9.55036 -11.06358,-8.81131 -3.05932,1.98774 -14.73323,25.35742 -17.47817,34.98907 -3.8904,13.65097 -24.22514,36.38804 -40.28228,45.04122 -7.63449,4.11422 -15.218905,6.94063 -16.854246,6.28089 -1.828851,-0.73778 -5.65357,2.47009 -9.93644,8.33393 -9.725585,13.31564 -9.503774,13.08357 -11.001003,11.50956 z M 240.02612,374.8593 c -4.37121,-3.65195 -8.64634,-6.6399 -9.50031,-6.6399 -0.85397,0 -2.12071,-2.98586 -2.81498,-6.63527 -0.72853,-3.82945 -6.64937,-12.72293 -14.00178,-21.03156 -11.94339,-13.49667 -18.38844,-24.56467 -15.85517,-27.22785 0.60764,-0.6388 5.13428,-1.24766 10.05921,-1.353 8.25619,-0.17663 9.00636,0.28304 9.62058,5.89501 0.74023,6.76324 3.60844,7.71333 8.69012,2.8786 4.34348,-4.13238 6.13833,-2.71105 15.52004,12.29031 8.70312,13.91628 9.10315,15.26402 4.53044,15.26402 -8.6597,0 -7.09222,19.62928 2.25346,28.21963 8.24453,7.57817 0.82103,6.12869 -8.50161,-1.65999 z m 15.78996,2.21331 c 0,-2.9062 1.40356,-4.42661 4.0864,-4.42661 2.24753,0 4.73444,-1.1023 5.52649,-2.44959 1.78163,-3.0306 5.04475,1.73032 5.09218,7.42953 0.0246,2.95753 -1.70993,3.87328 -7.33642,3.87328 -5.96509,0 -7.36865,-0.84315 -7.36865,-4.4266 z M 76.863142,320.48786 c 0,-9.15456 3.468095,-17.19799 6.55148,-15.19461 7.419201,4.82049 5.299765,23.08668 -2.67876,23.08668 -3.036014,0 -3.87272,-1.70509 -3.87272,-7.89207 z M 209.98692,254.90824 c 0.73141,-2.30674 12.1439,-7.06884 12.1439,-5.06729 0,0.41644 -1.48877,2.32229 -3.30837,4.2352 -3.88255,4.08169 -10.05004,4.6625 -8.83553,0.83209 z m -36.98043,-23.17592 c -0.77196,-0.81153 -1.40356,-3.57788 -1.40356,-6.14743 0,-8.61586 -5.91018,-14.67746 -13.76834,-14.1211 -7.26443,0.51433 -12.6264,-2.38926 -7.77368,-4.20955 3.10842,-1.16599 8.21722,-6.25741 9.24841,-9.21697 0.39287,-1.12754 2.6091,-2.39031 4.92496,-2.80615 3.06628,-0.55058 4.39809,0.63418 4.90029,4.3592 0.92166,6.83634 5.88913,8.49547 10.96809,3.66334 5.2312,-4.97697 5.7904,-0.0791 0.83939,7.35192 -1.88772,2.83333 -2.72557,6.82133 -1.96345,9.34569 2.35036,7.78512 -1.86439,16.09945 -5.97211,11.78105 z m -56.1421,-48.97499 c 0,-1.16971 1.53037,-3.46197 3.40082,-5.09392 2.94227,-2.56711 3.29711,-2.40456 2.63166,1.20556 -0.79295,4.30182 -6.03248,7.67907 -6.03248,3.88836 z m -16.84263,-8.20201 c -2.25034,-2.85056 -1.506171,-3.31996 5.26332,-3.31996 6.76949,0 7.51366,0.4694 5.26332,3.31996 -1.44149,1.82597 -3.80999,3.31995 -5.26332,3.31995 -1.45333,0 -3.82183,-1.49398 -5.26332,-3.31995 z m 72.98473,-2.58219 c -2.66912,-2.80601 -1.38722,-5.16438 2.8071,-5.16438 2.33926,0 4.21066,1.47554 4.21066,3.31996 0,3.36956 -4.45362,4.54006 -7.01776,1.84443 z m 76.49361,-22.68637 c 0,-2.71868 1.35939,-4.61104 3.31235,-4.61104 1.96057,0 3.03458,1.50586 2.63166,3.68987 -1.02435,5.55267 -5.94401,6.31509 -5.94401,0.92117 z"
       style="fill:#434950" />
  </g>
</svg>
