<?xml version="1.0" encoding="UTF-8" standalone="no"?>
<svg
   xmlns:dc="http://purl.org/dc/elements/1.1/"
   xmlns:cc="http://creativecommons.org/ns#"
   xmlns:rdf="http://www.w3.org/1999/02/22-rdf-syntax-ns#"
   xmlns:svg="http://www.w3.org/2000/svg"
   xmlns="http://www.w3.org/2000/svg"
   xmlns:sodipodi="http://sodipodi.sourceforge.net/DTD/sodipodi-0.dtd"
   xmlns:inkscape="http://www.inkscape.org/namespaces/inkscape"
   viewBox="0 0 512 512"
   id="svg8438"
   version="1.1"
   inkscape:version="0.48.4 r9939"
   width="100%"
   height="100%"
   sodipodi:docname="t-shirt.svg">
  <metadata
     id="metadata8464">
    <rdf:RDF>
      <cc:Work
         rdf:about="">
        <dc:format>image/svg+xml</dc:format>
        <dc:type
           rdf:resource="http://purl.org/dc/dcmitype/StillImage" />
        <dc:title />
      </cc:Work>
    </rdf:RDF>
  </metadata>
  <defs
     id="defs8462">
    <linearGradient
       id="linearGradient3890">
      <stop
         style="stop-color:#701b1b;stop-opacity:1;"
         offset="0"
         id="stop3892" />
      <stop
         style="stop-color:#e31600;stop-opacity:1;"
         offset="1"
         id="stop3894" />
    </linearGradient>
    <linearGradient
       id="linearGradient3882">
      <stop
         style="stop-color:#600b0b;stop-opacity:1;"
         offset="0"
         id="stop3884" />
      <stop
         style="stop-color:#d11414;stop-opacity:1;"
         offset="1"
         id="stop3886" />
    </linearGradient>
    <linearGradient
       id="linearGradient3872">
      <stop
         style="stop-color:#800600;stop-opacity:1;"
         offset="0"
         id="stop3874" />
      <stop
         style="stop-color:#ff0004;stop-opacity:0;"
         offset="1"
         id="stop3876" />
    </linearGradient>
  </defs>
  <sodipodi:namedview
     pagecolor="#000000"
     bordercolor="#666666"
     borderopacity="1"
     objecttolerance="10"
     gridtolerance="10"
     guidetolerance="10"
     inkscape:pageopacity="0"
     inkscape:pageshadow="2"
     inkscape:window-width="1190"
     inkscape:window-height="1126"
     id="namedview8460"
     showgrid="false"
     inkscape:zoom="0.65186406"
     inkscape:cx="227.38759"
     inkscape:cy="189.326"
     inkscape:window-x="417"
     inkscape:window-y="115"
     inkscape:window-maximized="0"
     inkscape:current-layer="g8466" />
  <g
     id="g8466">
    <rect
       style="fill:#000000;fill-opacity:1;fill-rule:nonzero;stroke:none"
       id="rect3947"
       width="518.513"
       height="518.513"
       x="-1.5340621"
       y="-1.9108263" />
    <g
       id="g3004"
       transform="matrix(1.1852611,0,0,1,-54.39803,-1.5340622)">
      <path
         style="fill:#e5e6e9"
         d="m 160.63017,492.18377 c -4.77458,-18.61988 0.22988,-38.61447 -0.0998,-57.75692 2.16707,-58.68612 5.06351,-117.39314 4.78328,-176.13126 -2.53661,13.59159 -10.98295,31.39563 -26.25654,16.72201 -20.84431,-8.31815 -41.759027,-17.29081 -60.690909,-29.39202 8.695533,-35.81726 24.020159,-69.72169 32.786239,-105.54804 7.55571,-19.47559 10.34467,-42.632134 26.27867,-57.448147 25.99724,-16.418048 56.87532,-23.168401 82.8903,-39.305688 9.86034,-13.062901 34.44613,-0.980068 49.86355,-4.970915 12.6189,0.05588 25.2378,0.111767 37.8567,0.167651 3.35085,16.089729 23.61548,19.998837 36.53281,26.337475 16.63925,9.37242 38.44185,13.935258 49.42147,30.238771 17.19299,21.660113 23.23734,49.706753 33.44358,74.993163 7.46954,23.81459 18.5284,46.71115 23.51888,71.16322 -5.7938,19.46466 -30.85809,23.81456 -46.78505,33.52204 -19.74798,16.37286 -32.465,-3.06942 -33.47443,-22.62476 -1.69623,-12.57199 -6.55606,-17.56198 -5.27726,-1.51246 -0.556,77.90136 4.59246,155.73123 6.61568,233.56741 -7.12725,17.79685 -39.4512,4.8236 -56.05553,9.72454 -50.32011,0.18102 -100.74314,2.52743 -151.00554,0.0855 l -2.9285,-0.7886 -1.41759,-1.043 0,0 z"
         id="path3016"
         inkscape:connector-curvature="0" />
      <path
         style="fill:#dddde1"
         d="m 170.30379,492.62852 c -9.86461,1.68668 -10.5844,-4.72343 -9.39466,-12.82423 0.45727,-74.6276 5.083,-149.18654 5.86268,-223.79298 -5.18227,-8.66655 -4.75477,36.41815 -21.52532,20.33514 C 124.52105,265.3064 101.46083,258.7509 81.607282,246.07559 80.47433,226.21185 93.43877,207.30557 97.739551,187.88627 109.4046,156.09634 114.89723,121.75447 131.27394,91.904658 c 16.94292,-20.042455 44.98022,-23.869761 67.39731,-35.487204 13.15836,-1.950684 21.23303,-16.063353 32.89582,-17.897013 24.59694,0.532459 49.41547,-1.384375 73.833,1.574336 8.68331,18.319174 -12.79098,38.517311 -31.65634,38.240563 14.06763,12.523661 -22.67233,16.368764 -16.5246,33.78326 -1.67788,10.93912 -13.33184,-7.09023 -12.0881,8.44726 -15.302,8.64593 -16.18816,28.99205 -8.62372,43.86989 18.13404,9.14349 27.79095,-11.9784 39.06571,-19.65705 6.25584,-19.44585 19.15094,10.69694 20.90229,18.60646 13.99275,14.80878 29.41326,28.52308 29.9031,50.83892 3.5183,16.90535 5.31564,34.39023 12.56259,50.26236 5.9926,-13.1068 -4.21678,-26.14054 -0.70325,-40.18548 3.44884,-10.91334 -13.85484,-36.50601 -3.63579,-36.58658 2.71507,7.4243 6.31765,43.76467 12.62084,21.71278 -0.958,-17.00793 0.73545,-32.52426 16.92746,-39.90922 7.67966,-16.45368 12.98814,-35.58985 21.75906,-50.51145 -1.41325,14.5068 -5.02722,43.00604 12.8381,35.98374 7.36373,18.28276 0.30258,36.98241 -6.28294,53.91845 1.86755,14.48356 13.2024,24.2501 23.24536,10.6046 3.46402,14.15351 -4.04708,30.74039 1.5209,44.22361 -9.78951,5.63552 -27.39505,19.54067 -37.05671,12.94734 -5.49206,-17.50777 -8.58212,-36.1816 -17.35733,-52.32556 -5.13524,19.19807 -0.32386,44.00974 -1.97699,65.42246 1.72063,66.59713 7.67963,133.0284 8.69393,199.63949 -41.65867,4.87979 -83.83056,2.65371 -125.70104,3.82058 -24.50362,-0.0296 -49.04626,0.51965 -73.52881,-0.61268 z M 330.61955,321.7475 c 1.01373,-19.62012 -9.14433,-37.23669 -10.1158,-56.58681 -5.01285,-20.84851 -5.0213,-43.15311 -12.90059,-62.9184 -11.98309,10.26693 -0.63872,35.82324 -2.67224,51.81755 3.75835,19.63672 15.72756,36.80738 14.87677,57.43815 1.71347,7.47025 8.75623,37.38588 10.64802,13.03274 l 0.16384,-2.78323 z m 30.45643,-123.41858 c -7.2292,-10.70522 -4.73835,13.98637 0,0 z m 72.67513,53.43188 c -6.27864,-14.85424 10.83442,-17.75768 7.34055,-1.36381 -1.01632,2.93841 -5.31821,3.64444 -7.34055,1.36381 z m -1.87953,-20.63616 c -7.4447,-21.95643 12.92715,5.70628 0,0 z"
         id="path3014"
         inkscape:connector-curvature="0" />
      <path
         style="fill:#d0d0d2"
         d="m 246.11963,493.59103 c -28.29719,-2.60749 -56.81307,-1.52438 -85.21348,-2.10679 0.33024,-78.89505 7.05771,-157.70736 5.77442,-236.60495 -5.77159,-12.00804 -4.44382,31.98066 -16.50422,22.78598 -21.59536,-14.26856 -49.38142,-17.93362 -69.10745,-34.98451 12.100086,-40.6204 26.56733,-80.55672 38.2585,-121.33379 5.07698,-21.15721 17.09674,-41.150937 39.5045,-46.854559 19.51535,-10.377145 41.80071,-15.074989 60.34797,-27.071598 12.37614,-14.682413 33.96958,-6.065147 50.71869,-8.181772 11.91043,0.104403 23.82087,0.208805 35.7313,0.313208 2.05345,16.048211 -6.33941,32.889985 -23.59687,35.712166 -13.69554,2.21433 -27.63952,0.716835 -41.45241,0.866557 7.83298,18.720634 -18.49574,23.590776 -23.62466,38.487678 -8.53526,18.18002 -6.39586,43.04115 6.03858,59.06184 8.24954,11.6863 -11.28276,34.34733 9.45812,37.25436 2.48848,20.90026 3.65759,42.06621 6.84679,62.95586 2.73243,22.20521 2.18323,45.59226 5.83115,67.10215 12.46419,-19.89809 7.95917,-44.97256 10.72752,-67.39496 2.76051,-13.62705 -0.23105,-45.05626 12.52923,-46.08303 4.97886,19.25085 7.6432,39.34237 7.25522,59.47285 1.03213,42.07044 0.36456,84.38982 4.84425,126.23552 4.16437,17.77253 3.61789,37.95062 11.24287,54.55146 11.51164,-6.4622 2.59752,-36.07773 5.30055,-51.1881 -1.53821,-37.53678 2.22026,-75.10287 0.0738,-112.59086 -6.41575,-9.8995 2.83121,-34.78025 7.58608,-13.57522 4.52173,20.0079 10.16002,39.91666 12.76005,60.44087 6.27794,31.76851 11.23542,63.85159 18.77307,95.32249 1.19451,14.62509 17.99252,32.18791 8.63966,41.22736 -19.55316,10.35306 -42.92134,2.58938 -64.04341,4.40405 -11.64798,-0.78862 -23.17912,2.75203 -34.69987,1.77574 z M 136.45437,222.86415 c -2.05935,-12.22727 -9.18906,-16.29061 -4.29764,-1.728 0.94406,6.6715 7.26605,36.05293 6.79686,15.54081 -0.35737,-4.67381 -1.2352,-9.30245 -2.49922,-13.81281 z m 9.36979,-99.65278 c -5.22771,-17.28955 -3.48773,15.8416 -1.23883,22.98569 1.37444,14.36766 1.6809,3.28957 1.97791,-4.89998 0.11633,-6.03403 -0.0277,-12.08767 -0.73908,-18.08571 z m 216.77633,359.98698 c -5.49084,-14.7014 14.97028,-3.4933 3.04136,4.00432 l -1.00571,-0.66611 -2.03565,-3.33821 z m 1.31091,-13.90261 c -3.88338,-11.85781 6.74692,-17.49727 3.15504,-1.98124 2.23303,5.08084 -3.47116,4.78906 -3.15504,1.98124 z m 15.36278,-199.13436 c -5.70348,-19.16489 -10.83601,-38.56348 -17.7154,-57.28662 0.99293,-20.28794 5.22619,-40.95874 14.55239,-59.13861 15.42272,14.09947 21.36778,36.79281 8.35425,56.17494 -2.20797,21.14285 19.07151,36.59847 19.73066,57.25618 -4.30482,6.67958 -22.46943,17.35151 -24.9219,2.99411 z"
         id="path3012"
         inkscape:connector-curvature="0" />
      <path
         style="fill:#b3b3b4"
         d="m 176.12424,490.87585 c -6.40883,-1.10837 -18.27075,2.82149 -14.58739,-7.6113 2.77992,-79.1714 6.44485,-158.36511 6.30059,-237.59222 -6.41032,-0.0693 -10.81839,49.4292 -21.32078,22.82029 0.006,-21.33284 -0.77387,-43.05507 -12.67435,-61.69248 -2.95501,-9.31905 -13.61128,-20.64064 -7.9274,-2.8136 2.43714,14.12549 11.071,48.61136 -3.49971,50.22084 -12.373,-17.58598 -12.09737,-40.23853 -17.64764,-60.30032 -9.394037,12.75611 -2.27363,34.82146 -15.565439,44.78413 -11.924133,17.41408 -1.028657,-16.57347 2.000529,-22.78637 14.69971,-35.86091 20.34793,-74.53156 34.70644,-110.47209 8.92092,-25.152602 38.01589,-29.905489 59.21883,-40.163325 15.59724,-5.071158 32.90799,-10.28174 41.81922,-25.268368 26.07146,0.65273 52.43699,-1.415307 78.25428,2.382528 3.41494,22.017268 -19.78744,34.038623 -38.91829,32.63788 -16.34875,5.723674 -33.30477,-17.605928 -44.9618,-9.175061 -13.77668,14.440003 -8.06252,-17.428097 -19.06226,-1.03717 -16.68971,8.159457 -34.94361,13.06386 -50.28068,23.958983 -17.80419,11.293163 -14.68124,34.134103 -10.674,52.604713 3.18107,10.30526 2.77833,38.67869 10.04866,38.11211 2.79001,-24.57244 -4.81955,-49.66758 -0.68623,-73.88678 11.96799,12.39842 20.96105,29.86369 34.05783,42.40518 10.49314,18.02501 14.13416,39.93985 12.24259,60.76533 -0.78753,6.53821 -1.00139,29.36675 2.79571,10.18238 0.99812,-7.62406 8.83585,-43.66521 12.54451,-19.57215 2.55971,46.9701 -16.51242,91.4454 -18.60548,138.07056 -2.77271,36.76648 -7.0781,74.46193 3.29418,110.50197 3.87135,13.47959 -0.37254,35.18794 8.00132,41.73725 -9.47266,1.94893 -19.26608,1.39614 -28.87324,1.18709 z m -30.59,-291.90923 c -0.9152,-9.6412 -13.55391,-35.44351 -6.61036,-10.67085 0.0185,3.5742 8.85885,28.63631 6.61036,10.67085 z m 100.02668,291.75175 c -16.13713,-12.74692 1.8617,-38.02679 -0.33346,-56.27224 2.71518,-19.64875 6.67173,-38.86255 13.52919,-57.33538 6.04845,-23.40314 5.89752,17.63726 5.26112,24.75542 -0.83719,26.3646 0.92022,53.06123 -3.24163,79.15669 -2.72611,6.9579 -6.7016,14.54488 -15.21522,9.69551 z m 69.27399,0.38121 c -9.68228,-16.41357 -4.20235,-40.40617 -6.31095,-59.70851 -2.12292,-9.73755 6.99645,-34.87517 9.0145,-12.33291 4.8539,22.83913 11.25217,45.91974 10.63353,69.42677 -2.30958,4.5016 -9.26955,4.0368 -13.33708,2.61465 z M 226.3061,444.63464 c -11.36724,-34.53175 -14.1788,-72.26814 -7.61778,-108.18238 -0.33313,-7.96534 7.14061,-38.42283 8.77809,-14.41781 2.42942,40.04307 5.42529,80.35631 2.72454,120.42797 0.26709,2.24771 -2.26976,5.61158 -3.88485,2.17222 z m 142.288,-221.42053 c 4.78129,-10.66852 3.77329,10.29881 0,0 z m -4.40934,-10.23392 c -1.2843,-7.85164 8.64184,-34.22598 5.8674,-11.50034 -0.46429,2.28477 -1.31487,20.96386 -5.8674,11.50034 z"
         id="path3010"
         inkscape:connector-curvature="0" />
      <path
         style="fill:#8e8e8f"
         d="m 163.13021,486.8411 c 1.44035,-69.78579 5.61213,-139.55931 6.43501,-209.39145 -2.18877,-10.59617 5.74302,-35.41704 -4.13651,-37.01263 -5.44797,6.73652 -5.23874,37.59908 -14.31443,31.19408 -1.41481,-47.07685 2.96799,-94.35882 11.6714,-140.65584 15.22495,23.48845 34.28721,48.64494 29.07189,78.37697 -0.81661,22.68868 -6.25641,44.86664 -8.75782,67.29225 11.57901,-11.51988 14.47312,-37.89123 23.88228,-46.49739 -5.06496,37.39427 -15.45604,73.99529 -18.60651,111.73132 -5.70623,41.96038 -8.35459,84.22584 -11.39014,126.41574 -2.97556,6.83738 -0.65863,26.2116 -13.85517,18.54695 z M 114.96387,224.67886 c -7.39303,-29.03466 -8.81894,-60.13426 1.94085,-88.54041 4.41385,-11.30489 10.09921,-39.547826 18.42453,-38.777276 -4.46911,15.329806 7.9745,52.158676 1.05331,55.672286 -1.00363,-9.50216 -10.59214,-23.36146 -7.98795,-5.11047 -0.0815,13.79176 9.4906,40.08884 4.61455,46.65621 -3.01729,-11.03987 -14.14671,-26.49215 -11.73657,-5.00693 -3.21158,12.60415 14.61692,40.86754 -3.96202,41.49367 l -1.17642,-2.2385 -1.17028,-4.14858 0,0 z M 249.24401,70.184344 c -13.00744,-1.444417 -38.51095,-24.537771 -14.7807,-28.591095 22.55901,1.024803 45.21152,4.197347 67.64784,0.556863 7.69988,21.677154 -21.47233,32.134097 -39.61206,30.438412 -4.49612,-0.233632 -8.97174,-1.003756 -13.25508,-2.40418 z"
         id="path3008"
         inkscape:connector-curvature="0" />
      <path
         style="fill:#767675"
         d="m 165.68202,462.33038 c 1.76334,-67.43049 4.01334,-134.88882 7.98192,-202.22106 9.81419,9.48802 0.33099,36.7048 3.52061,52.55188 8.96301,18.89203 6.95235,39.43165 3.91766,60.17911 -3.58158,31.70131 -8.01821,63.31861 -10.73767,95.09943 -2.16476,13.87061 -6.37358,1.30797 -4.68252,-5.60936 z M 153.16458,259.8433 c 1.54098,-12.17517 2.52702,-24.40996 3.63972,-36.62919 6.82102,13.89024 4.92806,31.44246 -2.71415,44.36775 -2.38686,-1.51541 -0.71799,-5.56871 -0.92557,-7.73856 z m 9.49992,-33.01786 c -6.46195,-7.66367 7.55036,-28.15576 4.56674,-9.13678 4.96396,5.92675 3.73863,25.1599 -4.56674,9.13678 z m -4.57764,-23.0939 c 1.44872,-12.43878 3.67816,10.77341 0,0 z m -43.89181,-26.97517 c -3.7125,-24.03934 5.76106,-47.99054 14.82275,-69.85444 5.06369,-13.619901 2.7789,16.69056 -1.32746,19.81762 -0.86446,18.456 -3.81539,39.63706 -12.37142,53.90664 l -1.12391,-3.86982 4e-5,0 z M 230.9186,55.670484 c -10.82489,-12.892715 9.37615,-13.255618 8.93597,-0.655687 -1.81314,3.291823 -6.33201,1.095407 -8.93597,0.655687 z"
         id="path3006"
         inkscape:connector-curvature="0" />
    </g>
  </g>
</svg>
