<?xml version="1.0" encoding="UTF-8" standalone="no"?>
<svg
   xmlns:dc="http://purl.org/dc/elements/1.1/"
   xmlns:cc="http://creativecommons.org/ns#"
   xmlns:rdf="http://www.w3.org/1999/02/22-rdf-syntax-ns#"
   xmlns:svg="http://www.w3.org/2000/svg"
   xmlns="http://www.w3.org/2000/svg"
   xmlns:sodipodi="http://sodipodi.sourceforge.net/DTD/sodipodi-0.dtd"
   xmlns:inkscape="http://www.inkscape.org/namespaces/inkscape"
   viewBox="0 0 512 512"
   id="svg8438"
   version="1.1"
   inkscape:version="0.48.4 r9939"
   width="100%"
   height="100%"
   sodipodi:docname="vampyric embrace.svg">
  <metadata
     id="metadata8464">
    <rdf:RDF>
      <cc:Work
         rdf:about="">
        <dc:format>image/svg+xml</dc:format>
        <dc:type
           rdf:resource="http://purl.org/dc/dcmitype/StillImage" />
        <dc:title></dc:title>
      </cc:Work>
    </rdf:RDF>
  </metadata>
  <defs
     id="defs8462">
    <linearGradient
       id="linearGradient4077">
      <stop
         id="stop4079"
         offset="0"
         style="stop-color:#aa4400;stop-opacity:1;" />
      <stop
         style="stop-color:#ff9f00;stop-opacity:1;"
         offset="0.22752622"
         id="stop4081" />
      <stop
         style="stop-color:#803300;stop-opacity:1;"
         offset="0.4948855"
         id="stop4083" />
      <stop
         id="stop4085"
         offset="1"
         style="stop-color:#562200;stop-opacity:1;" />
    </linearGradient>
    <linearGradient
       id="linearGradient4057">
      <stop
         style="stop-color:#aa4400;stop-opacity:1;"
         offset="0"
         id="stop4059" />
      <stop
         id="stop4067"
         offset="0.22752622"
         style="stop-color:#ecd1a4;stop-opacity:1;" />
      <stop
         id="stop4065"
         offset="0.50136983"
         style="stop-color:#803300;stop-opacity:1;" />
      <stop
         style="stop-color:#562200;stop-opacity:1;"
         offset="1"
         id="stop4061" />
    </linearGradient>
    <linearGradient
       id="linearGradient3890">
      <stop
         style="stop-color:#701b1b;stop-opacity:1;"
         offset="0"
         id="stop3892" />
      <stop
         style="stop-color:#e31600;stop-opacity:1;"
         offset="1"
         id="stop3894" />
    </linearGradient>
    <linearGradient
       id="linearGradient3882">
      <stop
         style="stop-color:#600b0b;stop-opacity:1;"
         offset="0"
         id="stop3884" />
      <stop
         style="stop-color:#d11414;stop-opacity:1;"
         offset="1"
         id="stop3886" />
    </linearGradient>
    <linearGradient
       id="linearGradient3872">
      <stop
         style="stop-color:#800600;stop-opacity:1;"
         offset="0"
         id="stop3874" />
      <stop
         style="stop-color:#ff0004;stop-opacity:0;"
         offset="1"
         id="stop3876" />
    </linearGradient>
    <clipPath
       clipPathUnits="userSpaceOnUse"
       id="clipPath8376">
      <path
         style="fill:#ff00ff;fill-opacity:0.71428576;stroke:#000000;stroke-width:1px;stroke-linecap:butt;stroke-linejoin:miter;stroke-opacity:1"
         d="m 132.93607,314.71721 c -18.75439,-2.6482 -41.209306,-15.00127 -57.719183,0.0872 -14.632572,16.26402 -2.075155,41.46377 15.676843,49.39817 14.94638,6.42583 31.79998,7.64133 44.99002,18.3548 18.88157,12.67656 33.74901,36.21324 54.77809,45.17476 19.67803,12.42945 46.40674,18.90925 72.28436,15.29403 35.69784,-0.44414 60.68236,1.0828 95.28221,-9.91811 21.29965,-7.58431 46.4534,-16.56588 48.76742,-39.91128 15.5055,-69.17548 23.82494,-140.13958 22.24561,-211.07909 3.93899,-29.76399 -17.37653,-55.38471 -31.16915,-29.3739 -20.60533,21.8385 -10.85663,53.39088 -13.92803,79.60277 -12.67115,20.95558 -39.5345,4.51342 -36.8418,-19.09952 1.45819,-26.35967 -16.50294,-48.42312 -14.80626,-81.68971 -9.84916,-15.65873 -12.39304,-39.19665 -31.92202,-46.52752 -22.79813,-5.633297 -28.49969,25.04787 -22.06036,41.24795 8.57837,27.32674 9.17974,56.7085 20.45025,83.24182 -17.77505,18.67959 -25.25408,-7.50342 -35.36143,-32.60284 -2.63161,-18.85018 -6.72956,-31.2828 -8.19838,-45.38189 -4.97316,-16.26874 -12.26457,-33.261625 -20.86092,-46.773858 -11.19343,-21.409541 -46.04666,-1.515721 -36.14469,18.896448 9.58698,29.22098 22.25502,81.73486 30.69486,111.34888 9.79214,11.11296 -0.52886,22.40698 -8.30398,17.16719 -10.78604,-23.41232 -29.1287,-45.7668 -47.41268,-62.80573 -12.38005,-11.66833 -20.18258,-31.91042 -39.11983,-33.96625 -24.60914,2.55661 -26.98121,33.54309 -11.20737,48.45615 23.19408,41.17556 62.97938,73.31852 74.89468,120.4233 9.24868,21.59121 -11.23221,46.65988 -34.15183,37.14061 -18.31106,-5.06961 -25.39072,-28.22706 -45.70567,-29.53279"
         id="path8378"
         inkscape:connector-curvature="0"
         sodipodi:nodetypes="cccccccccccccccccccccccccccc" />
    </clipPath>
    <clipPath
       clipPathUnits="userSpaceOnUse"
       id="clipPath8442">
      <path
         style="fill:none;stroke:#ff00ff;stroke-width:1px;stroke-linecap:butt;stroke-linejoin:miter;stroke-opacity:1"
         d="m 222.73864,99.04964 c 1.40063,24.76016 -27.90493,28.77514 -45.48393,35.6962 -25.55589,11.41423 -30.38951,7.09173 -55.25684,20.47137 -11.84122,24.03423 -1.00008,33.18113 5.66675,51.52022 6.25698,27.14933 -19.58649,46.60948 -24.84578,71.47951 -7.850589,27.81202 16.82068,53.07367 18.28893,80.33071 4.9353,19.79827 18.08212,33.89671 20.26784,54.68225 -7.26962,7.36492 -16.77509,19.88827 -14.15478,28.3465 1.26717,4.09037 16.12768,0.0349 19.5343,3.56062 7.56304,7.82743 5.8995,22.46202 8.04699,30.21463 18.08356,11.55435 16.69726,-39.34089 23.95745,-13.52212 16.99228,17.11535 43.22481,14.3837 64.78462,17.20081 20.35807,1.44319 42.11143,3.89428 61.07864,-5.48049 2.07073,-3.13421 14.64908,-9.4644 15.45043,-12.75284 0.97028,-3.98166 0.38437,18.05225 3.04809,19.15858 7.61108,3.16114 18.54475,-9.02354 18.12943,-24.08849 0.63016,-15.1632 18.04973,-7.94921 19.46873,-12.18792 4.15209,-12.40278 -12.86709,-25.99561 -17.30571,-37.99176 4.38302,-26.41712 46.52422,-55.48054 54.06877,-80.92185 4.56952,-20.28842 13.07915,-15.13423 4.66394,-37.15777 -7.43559,-17.70568 -18.37956,-9.03902 -20.99933,-55.12572 -16.86225,-54.82604 29.5645,-34.98389 -13.98793,-81.02957 -18.05197,-22.23345 -31.2331,-19.16031 -74.59129,-38.71816 -4.52,-7.86966 15.43927,-43.214317 -4.79029,-58.856789 -19.01886,-16.048166 -54.82824,-15.865462 -67.75138,9.363145 -2.10407,11.963891 -0.6766,24.223305 2.71235,35.808934 z"
         id="path8444"
         inkscape:connector-curvature="0"
         sodipodi:nodetypes="cccccccssccccsscsccccccccc" />
    </clipPath>
  </defs>
  <sodipodi:namedview
     pagecolor="#000000"
     bordercolor="#666666"
     borderopacity="1"
     objecttolerance="10"
     gridtolerance="10"
     guidetolerance="10"
     inkscape:pageopacity="0"
     inkscape:pageshadow="2"
     inkscape:window-width="1190"
     inkscape:window-height="1126"
     id="namedview8460"
     showgrid="false"
     inkscape:zoom="0.70710678"
     inkscape:cx="359.63846"
     inkscape:cy="225.00817"
     inkscape:window-x="160"
     inkscape:window-y="130"
     inkscape:window-maximized="0"
     inkscape:current-layer="g8466" />
  <g
     id="g8466">
    <path
       inkscape:connector-curvature="0"
       d="M -0.58051677,0.1885736 H 513.53445 V 516.42957 H -0.58051677 z"
       id="path3978"
       style="fill:#000000" />
    <path
       sodipodi:type="arc"
       style="fill:#333333;fill-opacity:1;fill-rule:nonzero;stroke:none"
       id="path4121"
       sodipodi:cx="63.286057"
       sodipodi:cy="-74.545074"
       sodipodi:rx="39.244427"
       sodipodi:ry="23.688076"
       d="m 101.95774,-78.577314 a 39.244427,23.688076 0 0 1 9.3e-4,0.0033 l -38.672613,4.028989 z"
       sodipodi:start="6.11213"
       sodipodi:end="6.1122693" />
    <path
       sodipodi:type="arc"
       style="fill:#333333;fill-opacity:1;fill-rule:nonzero;stroke:none"
       id="path4125"
       sodipodi:cx="54.182056"
       sodipodi:cy="-54.392529"
       sodipodi:rx="15.46796"
       sodipodi:ry="16.793785"
       d="m 69.424272,-57.251206 a 15.46796,16.793785 0 0 1 3.67e-4,0.0023 l -15.242583,2.856372 z"
       sodipodi:start="6.11213"
       sodipodi:end="6.1122693" />
    <g
       id="g9190"
       transform="translate(-4.2426407,2.8284306)">
      <path
         style="fill:#a4a091"
         d="m -82.578651,251.07759 c 0,-79.33452 0,-158.669045 0,-238.003567 210.144511,0 420.289021,0 630.433531,0 0,158.669047 0,317.338087 0,476.007137 -210.14451,0 -420.28902,0 -630.433531,0 0,-79.33452 0,-158.66905 0,-238.00357 z"
         id="path9212"
         inkscape:connector-curvature="0" />
      <path
         style="fill:#918a75"
         d="m -82.578651,251.07759 c 0,-79.33452 0,-158.669045 0,-238.003567 210.144511,0 420.289021,0 630.433531,0 0,158.669047 0,317.338087 0,476.007137 -50.61134,-0.13309 -101.23917,0.53619 -151.83332,-1.13627 -36.46526,-15.22953 -75.25201,11.49682 -113.29042,0.76464 -121.76837,0.8668 -243.540019,0.11103 -365.309791,0.37163 0,-79.33452 0,-158.66905 0,-238.00357 z M 404.31867,481.91411 c -4.41106,-6.03974 -1.31334,9.06038 0,0 z m -77.13312,-193.5537 c -8.53445,-5.11887 0.23271,4.14079 0,0 z m 7.51343,-3.16308 c 9.10124,-15.98642 -7.80913,-1.22301 0,0 z m -1.4448,-9.70356 c 4.57727,-15.13508 -12.66029,-5.79812 0,0 z m -148.41397,-5.96968 c 1.95776,-16.43381 -10.70911,-4.64852 0,0 z m -8.34278,-6.22508 c 11.08941,-12.94397 54.46691,-24.32146 26.44797,-35.18648 13.55446,-9.1061 32.35186,-41.97865 0.6764,-33.57577 -24.13013,2.59855 -46.29404,48.32025 -22.12905,49.48568 -2.37129,4.91048 -12.06511,14.49972 -4.99532,19.27657 z m 93.19441,-24.87414 c -4.98064,-28.01312 -20.65289,17.09991 0,0 z m 65.62783,-1.51416 c 21.67874,-26.06527 -40.32347,-59.32494 -45.75668,-35.27227 13.30495,11.71985 24.55965,39.96756 45.75668,35.27227 z m -4.84348,-14.52105 c 0.65584,-18.19846 6.32807,13.56951 0,0 z m -65.47207,-15.22939 c 25.20665,-20.8121 -42.91515,-17.77749 -15.01784,3.41986 5.04482,1.638 11.51076,1.09758 15.01784,-3.41986 z M 230.21684,196.6576 c 2.28872,-9.71388 -7.99263,7.77651 0,0 z m 31.9281,-17.56053 c -9.45439,-34.45215 29.2397,-59.61097 42.79677,-75.99644 -17.42374,-28.713318 -44.41984,6.94868 -64.82805,4.9259 -17.4365,-8.282279 -1.94234,-10.301798 -3.13005,-20.204172 12.90943,-4.795916 44.67117,-12.229974 20.85094,-28.087188 -11.91144,4.465333 -12.79006,0.460463 -15.43434,-2.678952 -14.76883,4.106368 19.11625,18.37877 -7.10814,17.270153 -19.43321,8.249309 -80.48944,30.089139 -40.65603,51.413149 31.97615,7.48754 45.5948,35.38203 62.42534,58.8245 l 2.70515,-1.04035 2.37841,-4.4266 0,0 z M 247.4139,163.24294 c 1.57675,-5.46756 2.96029,6.42446 0,0 z M 184.79271,113.8218 c 3.5755,-9.53321 12.48053,0.44177 0,0 z m 73.17532,-2.99631 c 3.29409,-6.45924 3.00711,6.41377 0,0 z m -30.95879,-3.54172 c 3.60404,-7.489305 1.53755,6.53634 0,0 z m 39.02684,0.53255 c 8.99137,-7.72631 -1.882,4.90136 0,0 z m -6.42629,-4.07427 c 3.5979,-7.033058 4.38401,6.89159 0,0 z m 19.46651,-2.83338 c 8.97222,-9.987798 0.67565,6.99658 0,0 z M 239.31982,79.31301 c 2.0121,-15.411683 13.4119,7.845061 0,0 z m 26.38791,100.93019 c -2.93134,-6.46269 -1.71063,5.18563 0,0 z m -94.84481,-66.17679 c -6.92332,-3.96726 9.3949,16.44586 0,0 z m -4.92106,-2.85723 c -3.93675,2.85399 4.94895,4.13185 0,0 z m 76.54678,-10.30051 c -3.2941,-6.459222 -3.0071,6.41374 0,0 z m 8.4433,-8.500124 c -2.92011,-6.71449 -2.08171,6.143748 0,0 z m -5.62887,-5.583143 c -2.15323,-6.475509 -3.95714,5.303207 0,0 z m 14.07218,-0.08361 c -3.29408,-6.459233 -3.00712,6.413749 0,0 z M 271.68821,73.16501 c -6.71849,-2.042333 1.21185,7.387926 0,0 z m -50.13322,-2.384566 c -5.12364,-1.216492 6.76296,6.171501 0,0 z m 10.1848,1.086128 c -3.70724,-6.35623 -3.08982,7.305518 0,0 z m -0.50621,-4.05008 c 10.02685,-10.966005 -14.00915,7.076422 0,0 z"
         id="path9210"
         inkscape:connector-curvature="0" />
      <path
         style="fill:#7a8278"
         d="m -82.578651,251.07759 c 0,-79.33452 0,-158.669045 0,-238.003567 210.144511,0 420.289021,0 630.433531,0 0,158.678477 0,317.356947 0,476.035427 -43.35205,-0.24554 -86.70409,-0.49109 -130.05614,-0.73663 -10.59853,-40.59782 -51.4497,0.70813 -76.44658,-0.30622 -141.24192,1.05305 -282.625391,0.90636 -423.930811,1.01456 0,-79.33452 0,-158.66905 0,-238.00357 z M 408.05612,454.38336 c -7.54448,-10.66681 2.28389,10.14563 0,0 z m -4.88081,-11.60396 c -8.53444,-5.11886 0.23272,4.14078 0,0 z m -4.3272,-26.35662 c -6.49585,0.82187 8.08595,7.14176 0,0 z M 198.81918,300.57569 c -5.29164,-7.60249 2.64212,11.18851 0,0 z m 8.30256,-4.87243 c -12.1824,-16.66415 5.40189,12.44022 0,0 z m 124.35999,-6.97002 c 24.51726,0.60453 -5.99298,-45.11069 -7.6176,-13.98694 16.5231,2.99436 -11.01797,22.8184 7.6176,13.98694 z m 3.88328,-5.07182 c 2.75848,-4.9314 1.93079,6.08901 0,0 z M 186.3076,270.96392 c -7.75026,-26.01716 52.43012,-22.20642 28.90763,-45.40636 -1.03549,-19.59746 21.79861,-27.60617 32.10336,-13.06824 21.68044,-3.86683 54.66257,-16.58978 57.68415,17.8609 12.72238,29.65225 52.97018,8.79812 33.90558,-19.06482 -12.32822,-16.42643 -52.29594,-23.04686 -60.22865,-23.77701 -3.8536,18.54687 -20.96487,-5.53885 -12.20338,-15.66445 -9.27787,-28.27329 14.40667,-45.01102 35.22012,-57.68796 12.16167,-25.071047 -32.88104,-34.894254 -43.73517,-54.252986 -13.6894,-11.261395 -30.55355,-5.826278 -38.27043,5.292729 -7.86703,-0.151907 -0.61984,-17.390679 -14.31079,-5.536364 -10.21497,7.991019 -35.14129,25.819559 -8.67946,11.059169 17.40472,5.826345 -37.4508,22.074329 -31.87279,42.490532 6.4578,13.96748 13.15693,-11.30528 20.53311,10.44226 19.43956,15.92896 54.19473,19.12582 60.0442,49.84516 11.50505,19.67543 -6.25442,26.78447 -12.63372,12.79311 -26.3494,5.51549 -65.3228,14.10144 -66.00839,47.60514 0.32763,13.89577 5.16178,31.62895 19.54463,37.06919 z M 205.3732,136.739 c 0.53746,-7.70714 7.80324,3.47306 0,0 z m 39.4263,-36.1845 c 7.17379,-27.178667 18.08339,2.94376 0,0 z m 20.8493,-2.146724 c -4.69649,-5.475718 6.49227,-10.317433 0,0 z m -85.07774,-4.321851 c 9.7676,-11.687022 22.3274,-0.79626 0,0 z m 78.17487,-0.139686 c -0.65133,-8.063638 6.56837,4.267282 0,0 z m -56.363,-11.454508 c 16.14087,-10.508274 -6.62149,8.154084 0,0 z m 66.84284,-0.859914 c 7.34267,-9.865166 5.8428,9.541059 0,0 z m -58.35589,-3.31907 c 2.57945,-13.91025 10.96965,2.507478 0,0 z m -6.37612,-19.904711 c 11.54818,-10.234441 -0.51268,5.262769 0,0 z m 49.25262,200.377724 c -5.90332,-4.85308 -1.86688,5.5208 0,0 z m 0,-2.59819 c -2.78363,-5.16153 -6.47904,4.44207 0,0 z m -28.76512,-12.85671 c -0.0294,-8.01752 -13.24752,11.72619 0,0 z m 43.26464,-2.26925 c 8.18465,-31.3449 -32.42769,7.90338 0,0 z m 48.12167,-46.65153 c -5.27121,-6.54091 -4.32238,5.23284 0,0 z m -84.87282,-13.71795 c -8.53446,-5.11884 0.23273,4.14077 0,0 z m 89.09447,-55.69976 c -2.93134,-6.46269 -1.71063,5.18563 0,0 z M 158.90577,105.54242 c -3.93671,2.85399 4.94891,4.13186 0,0 z m 24.47972,-32.342769 c -4.4425,-3.676062 -0.97388,6.16088 0,0 z m 15.4794,-9.124863 c -2.92012,-6.714481 -2.08173,6.143748 0,0 z M 412.76198,487.66448 c 3.29406,-6.45922 3.00714,6.41371 0,0 z m -21.10827,-11.33351 c 5.73372,-10.11331 12.86479,5.63784 0,0 z"
         id="path9208"
         inkscape:connector-curvature="0" />
      <path
         style="fill:#89654f"
         d="m -82.578651,251.07759 c 0,-79.33452 0,-158.669045 0,-238.003567 210.144511,0 420.289021,0 630.433531,0 0,158.678977 0,317.357947 0,476.036917 -41.04385,-0.24604 -82.0877,-0.49208 -123.13155,-0.73812 -6.66833,-8.08764 -7.55296,-54.39909 -17.08417,-31.61385 -5.1433,25.7265 -46.0303,17.77223 -61.77634,31.42922 -41.15129,-2.91012 -82.4216,2.51003 -123.67515,0.84145 -101.58862,0.2989 -203.177594,-0.14084 -304.766321,0.0515 0,-79.33452 0,-158.66905 0,-238.00357 z M 310.38689,481.69587 c 4.10728,-13.15242 -12.73389,8.61964 0,0 z m 92.78842,-38.91647 c -8.53444,-5.11886 0.23272,4.14078 0,0 z m -3.6575,-27.00467 c -7.06546,2.94881 7.1625,7.60081 0,0 z M 198.81918,300.57569 c -5.29164,-7.60249 2.64212,11.18851 0,0 z m 14.96952,-2.06135 c -7.56208,-14.76028 -13.38694,4.32402 0,0 z m 117.69303,-9.7811 c 21.01172,2.47268 1.49915,-20.05704 3.29584,-26.24326 -19.3595,-6.42515 -14.60996,22.02138 -2.43182,19.46966 -1.30244,3.7516 -14.23125,9.09186 -0.86402,6.7736 z m 3.88328,-5.07182 c 2.75848,-4.9314 1.93079,6.08901 0,0 z m -149.0255,-12.6975 c -1.23236,-25.4985 68.60531,-18.28121 33.73236,-44.36736 -6.70506,-18.75029 16.9999,-31.86313 26.07874,-13.58437 21.89629,-2.30666 47.73287,-16.87932 59.48504,11.08809 12.81103,12.16319 -16.52954,17.56135 5.71109,21.71834 48.76901,19.77624 37.61852,-55.11224 0.31808,-58.42419 -35.84709,11.27652 -61.64876,-34.47463 -30.78913,-57.30407 8.81064,-13.81645 52.44209,7.20869 32.48158,-17.74039 -23.92901,-25.4079 -47.69686,-58.786114 -86.31731,-59.197498 -23.51427,-0.480673 -33.45558,15.944502 -49.19653,27.633018 10.14641,-5.944157 30.51464,-8.423964 10.19267,2.713065 -25.51608,11.022274 -43.88059,32.020665 -27.26141,58.270935 -14.46578,20.11038 22.96908,-9.85838 34.79991,-0.66607 20.14729,-4.04656 64.49857,32.34099 26.90468,37.81598 -18.58091,16.50988 -54.81651,13.92811 -58.63943,43.53195 -0.49607,16.86853 6.23909,41.58317 22.49966,48.51257 z m 36.44808,-31.26429 c 2.97349,-8.19294 6.01114,4.39052 0,0 z m 18.3087,-45.97986 c -5.46245,-31.49605 22.04347,-0.52824 0,0 z m 20.38979,-6.39313 c 6.87233,-7.00167 7.00464,7.21613 0,0 z m -89.35833,-52.41746 c 2.94796,-8.55944 1.30238,7.26625 0,0 z m 12.9393,-0.70834 c 0.23232,-9.56916 1.343,7.62395 0,0 z m -5.11252,-2.83338 c 0.71558,-18.89347 6.64646,7.96936 0,0 z m 65.34854,-28.25015 c 1.82596,-6.638022 4.25176,3.77307 0,0 z m 8.44331,-5.042012 c -12.03615,0.712218 3.93767,-7.681105 0,0 z m -71.7681,-4.806838 c 3.34498,-6.84885 4.1481,3.48507 0,0 z m 7.63472,-3.522285 c 4.64425,-8.517284 8.11726,1.839062 0,0 z m 12.76993,-7.254444 c 16.14087,-10.508274 -6.62149,8.154084 0,0 z m 8.48695,-4.178984 c 2.57945,-13.91025 10.96965,2.507478 0,0 z m 2.06719,-13.751848 c 7.53665,-7.654204 14.24914,2.54847 0,0 z m 15.47939,-7.569551 c 3.96371,-6.539912 3.27948,5.254471 0,0 z m -55.5851,211.086502 c -6.77372,-9.13484 -0.44871,5.29074 0,0 z m 80.91502,-9.29209 c -5.90332,-4.85308 -1.86688,5.5208 0,0 z m 0,-2.59819 c -2.78363,-5.16153 -6.47904,4.44207 0,0 z m 15.47939,-9.9474 c 18.55152,-25.6823 -35.58399,-26.90422 -18.52993,-0.38404 5.47678,2.98438 13.07047,3.88553 18.52993,0.38404 z m -103.64251,-89.4177 c -4.23369,-5.99017 0.91457,9.84145 0,0 z m -7.52768,-1.38497 c -6.85769,-7.66733 -3.92526,9.55053 0,0 z m 6.47907,-59.811892 c -3.93673,2.85397 4.94891,4.131872 0,0 z m 6.03089,-22.994937 c 1.57911,-9.886259 -9.4782,15.122335 0,0 z m 17.04161,-3.597475 c 2.74029,-7.692294 -7.89951,11.021846 0,0 z M 174.94219,66.19982 c 1.17949,-9.419082 -9.29438,12.104264 0,0 z"
         id="path9206"
         inkscape:connector-curvature="0" />
      <path
         style="fill:#666259"
         d="m -82.578651,251.09214 c 0,-79.33937 0,-158.678745 0,-238.018117 210.144511,0 420.289021,0 630.433531,0 0,158.678977 0,317.357947 0,476.036917 -41.04385,-0.24604 -82.0877,-0.49208 -123.13155,-0.73812 -2.95495,-12.41367 -8.09713,-41.58199 -18.95121,-41.1559 14.44094,32.46843 -30.8596,15.33906 -45.81008,33.89399 -25.91628,16.24762 -56.26622,-3.82717 -84.53251,7.25889 -119.24421,0.71648 -238.686488,0.15668 -358.008181,0.74046 0,-79.33937 0,-158.67875 0,-238.01812 z M 310.20982,481.66153 c 12.15921,-13.60381 -16.43458,7.71313 0,0 z m 10.59741,-14.47793 c -6.82507,-8.05082 1.78509,7.6196 0,0 z m -6.06911,-11.32245 c -2.50215,-6.25049 -3.94453,10.36974 0,0 z m 39.62433,-0.7805 c -5.21437,-7.28819 -2.50147,6.10268 0,0 z m 2.11082,-25.50038 c -3.29407,-6.45924 -3.00711,6.41375 0,0 z m -7.72023,-12.49448 c -6.93584,0.27375 0.62859,8.99676 0,0 z m 6.16814,-0.0722 c -7.68507,-10.60763 4.92958,14.60283 0,0 z m 24.06757,4.0666 c -2.92015,-6.71446 -2.08169,6.14377 0,0 z m 22.51549,-0.49157 c 0.14503,-12.04389 -13.38592,-4.34466 0,0 z m -8.44331,-12.43208 c -6.94559,-4.62324 -1.53638,9.40529 0,0 z m -114.50319,-71.7904 c -6.80637,-14.11071 -13.98953,10.58929 0,0 z m -26.72747,0.42107 c 26.93632,-7.08414 -20.3716,-19.53011 -1.54635,1.99949 l 0.9039,-0.37308 0.64245,-1.62641 z m 1.94434,-12.71595 c -3.16021,-7.85054 8.71493,7.80992 0,0 z m -11.98958,-2.15927 c -2.93133,-6.4627 -1.71064,5.18563 0,0 z m -52.51268,-5.97371 c -5.8958,-2.30589 6.22847,7.79174 0,0 z m 9.12347,1.0153 c -4.53944,-8.06134 -5.31183,5.37243 0,0 z m -12.77322,-1.59625 c 6.71304,-14.23061 -8.21303,3.30582 0,0 z m 14.64951,-3.66363 c -5.23382,-5.1072 -5.36565,6.43427 0,0 z m -2.81444,-3.75938 c -7.24244,-14.05215 -10.90935,11.12282 0,0 z m 4.1809,-4.49461 c -2.0482,-13.86224 -15.94316,2.38334 0,0 z m 13.07021,0.0553 c -8.46948,-31.69549 -26.22287,-1.02414 0,0 z m 88.19888,0.98216 c 13.06551,-2.67866 -10.11835,-1.09103 0,0 z m -117.29764,-7.71502 c -5.7286,4.30314 6.86719,9.64541 0,0 z m 2.84733,1.44979 c -3.93674,2.85397 4.94892,4.13189 0,0 z m 113.82386,-0.40679 c -5.38686,-4.33286 -1.76108,6.06189 0,0 z m 7.01855,-1.73546 c -0.26355,-13.53291 -9.13355,7.99837 0,0 z m -133.65396,-2.4915 c 19.37536,-19.95337 -16.25676,-16.58031 0,0 z m -1.17268,-5.19453 c -7.27274,-6.63498 6.57108,0.53265 0,0 z m 148.22984,3.42367 c 44.98058,7.18611 -5.39574,-61.5086 -4.82026,-12.26386 0.46695,9.87492 -12.39703,19.39224 4.82026,12.26386 l 0,0 z m 3.16333,-6.25082 c -10.72735,-17.11282 17.51881,-3.08328 0,0 z m -140.24767,-0.69904 c -1.04206,-2.85805 -0.10405,-9.0717 -1.42835,4.88991 l 1.42835,-4.88991 z m 6.21018,-0.48775 c -2.3972,-6.8104 -1.86433,8.04111 0,0 z m -6.54311,-12.63553 c 4.15677,-25.08812 68.13153,-21.75502 34.32296,-52.84619 -0.0107,-18.05042 15.14536,-10.00881 19.36285,-7.21853 31.24673,-9.43135 -0.68222,51.98007 28.84184,32.31151 10.15275,-14.65214 -11.88393,-40.52788 16.58875,-35.15355 23.11078,10.62892 17.12539,56.22021 52.56959,36.10286 26.97466,-27.03202 -13.04013,-64.35911 -44.28369,-58.61058 -40.13786,-4.49343 -27.62031,-64.41554 8.21108,-63.51421 15.76251,2.26563 23.50604,7.37907 11.4127,-9.45443 C 295.61285,87.885998 271.8154,65.233375 243.47504,53.894239 214.52811,47.856144 183.25502,62.05703 171.55316,89.481096 150.11534,102.50401 152.46921,122.6325 161.3004,141.66153 c -15.97242,21.18126 19.07003,-9.01632 29.80177,-0.7173 20.8036,-6.11833 69.96208,30.85347 31.37707,37.9751 -18.91663,16.6953 -55.64174,13.97836 -59.11567,44.3882 -1.27826,15.87042 8.15742,42.12407 21.92212,48.42666 z m 37.5019,-32.0346 c 2.97349,-8.19294 6.01114,4.39052 0,0 z m -3.51804,-9.87236 c 1.57676,-5.46753 2.96026,6.42447 0,0 z m 22.86728,-37.65125 c -2.42788,-7.15031 8.11422,-0.52615 0,0 z m 19.34925,-4.84938 c 6.87233,-7.00167 7.00464,7.21613 0,0 z m -19.7827,-2.96638 c -0.17903,-17.26979 14.76458,4.23509 0,0 z m -69.57563,-49.45108 c 2.94796,-8.55944 1.30238,7.26625 0,0 z m 12.9393,-0.70834 c 0.23232,-9.56916 1.343,7.62395 0,0 z m -5.11252,-2.83338 c 0.71558,-18.89347 6.64646,7.96936 0,0 z m -20.11062,-28.48133 c 3.99288,-4.240431 2.5468,3.83529 0,0 z m 93.4334,-5.755291 c -8.24693,-7.679017 6.62877,-1.781615 0,0 z m -62.85573,-7.47206 c 1.29383,-6.403666 4.40413,4.138868 0,0 z m -9.85052,-5.75036 c 3.29408,-6.459228 3.00711,6.413748 0,0 z m 0.72861,-4.039129 c 9.82485,-5.219466 14.06364,5.500978 0,0 z m 13.34357,-1.412548 c 2.2334,-6.052818 9.58956,2.408112 0,0 z m 22.04641,-12.493037 c 1.27567,-13.025746 14.15985,1.301135 0,0 z M 171.56768,266.43755 c -8.58157,-6.52538 10.24891,14.08296 0,0 z m 83.0289,-0.8094 c -3.93673,2.85398 4.94892,4.13188 0,0 z m -23.56033,-2.74483 c 17.94764,-11.27877 -13.48973,-4.83971 0.0313,0.0989 l -0.0313,-0.0989 z m 18.84028,-1.40506 c 18.24946,-25.86667 -28.05384,5.14908 0,0 z m 11.77622,0.15091 c 22.09741,-0.89343 -15.67018,-15.17364 -0.62654,1.87738 l 0.50114,-1.50166 1.4e-4,-4e-4 0.12526,-0.37532 0,0 z m 18.83077,-0.01 c -5.90333,-4.85309 -1.86688,5.52081 0,0 z M 165.58326,156.82247 c -4.23369,-5.99017 0.91457,9.84145 0,0 z m -7.52768,-1.38497 c -6.85769,-7.66733 -3.92526,9.55053 0,0 z m 8.4433,-64.52925 c -3.85103,-3.63378 -1.12629,6.01167 0,0 z m 3.52586,-16.925332 c 4.16164,-11.993847 -8.93023,10.274227 0,0 z m 4.91745,-7.783098 c 1.17949,-9.419082 -9.29438,12.104264 0,0 z m 13.3586,-6.358869 c -3.21384,-3.882139 -3.13568,8.249731 0,0 z M 375.09367,476.33097 c 7.27171,-10.35327 3.60144,7.22691 0,0 z"
         id="path9204"
         inkscape:connector-curvature="0" />
      <path
         style="fill:#554636"
         d="m -82.578651,251.07759 c 0,-79.33452 0,-158.669045 0,-238.003567 210.144511,0 420.289021,0 630.433531,0 0,158.685927 0,317.371847 0,476.057777 -36.02148,-0.056 -72.04295,-0.112 -108.06443,-0.168 -2.37181,-16.14103 -19.04527,-55.01484 -38.37768,-40.18544 14.0761,32.858 -43.659,17.78327 -56.12852,40.37592 -27.1345,12.68534 -23.95097,-38.53934 -42.79418,-15.66368 6.87574,-27.04328 -17.60729,-7.69753 -7.55799,7.24937 23.37811,14.81727 -30.23569,3.75863 -39.06211,7.83138 -112.81146,1.5088 -225.632908,0.0371 -338.448611,0.50983 -7e-6,-79.33453 1.3e-5,-158.66906 -10e-6,-238.00359 z M 249.77507,456.9776 c -13.40618,-9.7678 -15.97564,14.27146 0,0 z m 67.46167,-3.14696 c 10.85549,-17.37359 -16.54278,13.66817 0,0 z m 37.12571,1.25001 c -5.21437,-7.28819 -2.50147,6.10268 0,0 z m -130.16764,-8.45567 c -4.17416,-4.29813 -4.36271,6.61753 0,0 z m 89.95795,-0.62667 c 3.4357,-12.25949 -6.01759,8.08143 0,0 z m -41.60366,-1.54282 c -0.26688,-7.46727 -4.75643,9.77616 0,0 z m 6.5272,-2.12503 c 11.38221,-12.54574 -17.23189,13.11131 0,0 z m 77.39697,-12.75019 c -3.29407,-6.45924 -3.00711,6.41375 0,0 z m -7.72023,-12.49448 c -6.93584,0.27375 0.62859,8.99676 0,0 z m 6.16814,-0.0722 c -7.68507,-10.60763 4.92958,14.60283 0,0 z m 23.60418,1.71109 c -7.69113,-1.92475 2.38275,6.10815 0,0 z m 22.94758,1.29293 c 0.43202,-14.06772 -11.69742,-3.26903 0,0 z m -6.52922,-13.45854 c -12.27996,-5.42995 -2.29572,13.63128 0,0 z m -41.28488,1.60372 c -4.97782,-3.62457 0.30587,9.03495 0,0 z M 276.26186,395.4962 c -3.85104,-3.63376 -1.12627,6.01168 0,0 z m 2.29588,-59.13001 c -6.80637,-14.11071 -13.98953,10.58929 0,0 z m -26.72747,0.42107 c 26.93632,-7.08414 -20.3716,-19.53011 -1.54635,1.99949 l 0.9039,-0.37308 0.64245,-1.62641 z m 1.94434,-12.71595 c -3.16021,-7.85054 8.71493,7.80992 0,0 z m -11.98958,-2.15927 c -2.93133,-6.4627 -1.71064,5.18563 0,0 z m -52.51268,-5.97371 c -5.8958,-2.30589 6.22847,7.79174 0,0 z m 9.12347,1.0153 c -4.53944,-8.06134 -5.31183,5.37243 0,0 z m -12.77322,-1.59625 c 6.71304,-14.23061 -8.21303,3.30582 0,0 z m 14.64951,-3.66363 c -5.23382,-5.1072 -5.36565,6.43427 0,0 z m -2.81444,-3.75938 c -7.24244,-14.05215 -10.90935,11.12282 0,0 z m 4.1809,-4.49461 c -2.0482,-13.86224 -15.94316,2.38334 0,0 z m 13.07021,0.0553 c 3.32137,-19.38255 -27.71457,-12.38864 -6.76055,0.58629 1.64061,2.17903 5.60407,2.20022 6.76055,-0.58629 z m 88.19888,0.98216 c 13.06551,-2.67866 -10.11835,-1.09103 0,0 z M 185.61002,296.7622 c -5.7286,4.30314 6.86719,9.64541 0,0 z m 2.84733,1.44979 c -3.93674,2.85397 4.94892,4.13189 0,0 z m 112.80786,-1.80037 -0.20687,-0.61597 0.20687,0.61597 z m 7.7486,-0.55593 c -3.59393,-16.61339 -11.49576,2.88968 0,0 z M 175.6458,293.57823 c 19.37536,-19.95337 -16.25676,-16.58031 0,0 z m -1.17268,-5.19453 c -7.27274,-6.63498 6.57108,0.53265 0,0 z m 148.22984,3.42367 c 23.34516,12.1187 19.43253,-27.56559 19.10258,-25.31726 11.49707,-13.26237 2.48496,-42.11581 3.47345,-60.65194 -11.53857,-30.99991 -61.73726,-16.4324 -71.28868,-44.7693 6.46364,-24.48584 38.95169,-18.6137 51.75903,-26.59199 -14.10632,-32.49134 -42.10011,-57.810042 -70.8968,-77.669339 -26.06984,-18.835698 -60.26033,-0.558843 -79.94472,19.403865 -23.73522,21.157806 -36.68677,56.722024 -25.20234,87.223684 17.15232,4.43131 51.63314,-37.51751 73.59785,-6.68302 3.48579,42.78673 -67.30032,21.85288 -67.30816,62.70372 -2.31115,27.49377 27.75889,65.30283 50.94257,34.68216 16.78495,-10.71915 62.6083,2.40514 60.63087,0.94728 -7.89758,-7.16165 20.20075,-7.52753 7.11258,-20.87242 -18.74171,-18.97542 13.04272,-37.04966 16.50618,-10.69485 -1.02138,19.26173 12.86803,31.02782 29.95871,30.5153 -1.3193,7.34041 -25.91973,47.94552 1.55688,37.77411 z m -7.039,-3.81228 c 1.06867,-10.55643 7.3061,1.38727 0,0 z m -4.22165,-2.91699 c 2.75851,-4.93138 1.93074,6.08902 0,0 z m 14.42398,0.47845 c -10.72735,-17.11282 17.51881,-3.08328 0,0 z m 2.82172,-33.00985 c -1.68235,-8.50139 6.93675,11.0715 0,0 z m 5.26978,-5.63556 c 1.39421,-8.9538 4.25536,5.55574 0,0 z M 224.19481,239.8277 c 1.2938,-6.40367 4.40413,4.13883 0,0 z m 13.93254,-4.77115 c -22.18634,-5.01368 -14.34278,-40.35597 6.54408,-20.63097 18.83653,4.42687 -4.22928,9.54711 7.02617,18.22018 -2.42748,4.81222 -9.41467,4.02487 -13.57025,2.41079 z m 62.05721,-2.29737 c -13.25675,0.0947 1.61536,-8.67779 0,0 z m -66.9007,-61.11036 c 0.71609,-9.02399 4.44245,6.80488 0,0 z m 42.11719,-21.76596 c -0.43294,-8.17471 6.09373,4.98367 0,0 z m 9.05249,-11.56521 c 6.90013,-23.58634 14.34791,1.45836 0,0 z M 236.37528,50.552241 c 4.96237,-7.801567 1.99052,6.416985 0,0 z M 185.61862,284.85751 c -1.04206,-2.85805 -0.10405,-9.0717 -1.42835,4.88991 l 1.42835,-4.88991 z m 6.21018,-0.48775 c -2.3972,-6.8104 -1.86433,8.04111 0,0 z m 1.58184,-9.58626 c -4.94292,-0.57084 7.21809,6.03426 0,0 z m -21.52389,-7.98438 c -9.6358,-17.48179 1.84048,11.95184 0,0 z m 109.30037,2.69542 c -2.93131,-6.4627 -1.71065,5.18559 0,0 z m -26.59054,-3.86639 c -3.93673,2.85398 4.94892,4.13188 0,0 z m -117.95055,0.67612 c 4.41646,-15.81592 -12.10779,6.23813 0,0 z m 57.09888,-0.35145 c -6.09977,-11.01617 0.45394,7.89648 0,0 z m 37.29134,-3.0695 c 9.5,-2.1943 35.11636,-4.3033 11.65002,-12.32093 -10.13733,-2.19104 -35.63946,12.74634 -11.65002,12.32093 z m 49.44727,-1.26418 c -5.90333,-4.85309 -1.86688,5.52081 0,0 z m -109.76298,-1.1815 c -3.34498,-6.84887 -4.14812,3.48506 0,0 z m -5.90065,-4.43912 c -5.04616,1.06051 1.37962,7.15932 0,0 z m 115.66363,-3.50424 c -4.14563,-7.1603 -5.66772,7.4053 0,0 z m -53.79677,-88.98571 c -3.95003,-5.45686 -2.37364,6.36137 0,0 z M 203.3504,148.1083 c -8.53447,-5.1189 0.23286,4.141 0,0 z M 166.49888,81.50548 c -11.65088,5.409109 -7.80179,14.040543 0,0 z m 9.85053,-12.034674 c 12.58224,-4.181287 20.02783,-21.322155 2.15817,-9.480082 -11.83172,4.151736 -23.36319,29.849903 -2.15817,9.480082 z m 0.57068,3.890725 c 4.08956,-9.235221 -13.02102,14.227939 0,0 z m 97.93456,-8.679592 c -0.98795,-11.483438 -8.11356,-1.574709 0,0 z M 234.98348,43.494342 c -5.38644,-4.016096 -0.49256,9.831403 0,0 z M 402.20785,447.99721 c 2.33064,-6.14668 4.59508,7.06977 0,0 z"
         id="path9202"
         inkscape:connector-curvature="0" />
      <path
         style="fill:#49362b"
         d="m -82.578651,251.07759 c 0,-79.33452 0,-158.669045 0,-238.003567 210.144511,0 420.289021,0 630.433531,0 0,158.669047 0,317.338087 0,476.007137 -31.82182,-6.50177 -79.7637,14.77584 -99.92611,-14.49318 -14.98376,-6.40975 -17.76893,-12.99069 -9.1869,-19.89775 -7.4379,-17.82152 -55.27892,-17.17242 -32.86367,7.02895 -24.30599,10.07357 -51.41766,17.71987 -74.53651,26.92545 -20.77808,-6.47989 -3.55483,-58.42053 -31.13385,-32.25078 -5.70601,19.39624 -6.79498,42.03368 -34.27713,32.39694 -116.13573,0.67083 -232.345041,0.10175 -348.509361,0.29036 0,-79.33452 0,-158.66904 0,-238.00356 z M 245.58819,459.76915 c 14.74672,-1.77753 17.27161,-18.99189 1.19781,-12.0933 -7.69699,-9.1079 -52.85295,-8.76974 -24.55733,3.20067 11.57129,-3.30235 11.44061,18.14 23.35952,8.89263 z m -8.72842,-11.06359 c 3.12306,-6.33354 2.23231,6.46893 0,0 z m 118.11752,5.55908 c -8.12293,-3.65377 3.33774,-1.07111 1.50399,2.17051 l -1.50399,-2.17051 z m -40.30624,-7.3623 c 8.38114,-19.59697 -13.45042,9.98546 0,0 z m -31.75907,-6.12518 c 20.76283,-11.00241 2.72049,-65.74442 -11.89861,-45.79443 -6.37715,-1.05338 -20.51786,4.06994 -5.96215,7.28615 -10.25719,-12.78638 -29.29709,-1.16062 -11.46194,5.74103 14.67357,3.08306 14.38804,20.63893 26.97428,9.28887 2.72216,10.52629 -21.92757,39.70991 2.34842,23.47838 l 0,0 z m -0.91015,-29.41123 c -9.58674,-9.96801 5.30767,-10.42883 0,0 z M 253.265,403.4437 c 2.50215,-6.25049 3.94453,10.36972 0,0 z m 16.19532,0.63619 c 3.67444,-7.25276 4.32811,7.31558 0,0 z m 51.0688,33.90261 c -3.98171,-4.51884 0.0573,7.32041 0,0 z m 14.83589,-0.49458 c 7.54604,-15.3467 -9.42391,6.24215 0,0 z m 21.1679,-9.83097 c -9.97537,-2.21047 2.2661,9.73025 0,0 z m -91.52879,0.42302 c 12.69315,-5.0668 -5.49364,-1.06925 0,0 z m -8.91237,-4.8748 c -2.30063,-9.28082 -1.87093,6.91844 0,0 z m 96.91196,-2.07109 c 10.85381,-5.04098 -7.35626,-20.14115 -7.07915,-4.18304 -6.30145,4.88729 4.01872,8.49958 7.07915,4.18304 z m 46.85225,-7.17261 c -15.34034,-9.79334 7.81454,19.62862 0,0 z m -100.4112,4.78363 c 6.14479,-13.15125 -10.19877,1.66354 0,0 z m 79.54399,1.71031 c -3.11331,-10.6953 -4.55118,7.41367 0,0 z m -125.07059,-4.5816 c -5.67138,-4.98049 6.48008,12.96838 0,0 z m 113.81285,-3.37741 c -3.85105,-3.63375 -1.12626,6.01168 0,0 z m 28.12004,-5.93731 c -16.24931,-8.08982 -3.58834,18.71593 0,0 z m -137.03282,-16.2624 c -3.93674,2.85399 4.94893,4.13186 0,0 z m 27.29416,-1.09203 c -3.60407,-7.4893 -1.53753,6.53636 0,0 z m -26.73714,-4.33367 c -3.31462,-5.72224 -1.62263,8.0589 0,0 z m -0.91037,-7.99963 c -9.26247,-2.79308 2.66189,9.9351 0,0 z m 17.79698,-0.41689 c -2.69861,-19.38095 -2.6571,11.67008 0,0 z m -7.03609,-2.23213 c -4.69339,-3.51037 -2.71682,7.59084 0,0 z m -86.54388,0.1071 c -2.93135,-6.4627 -1.71063,5.18564 0,0 z m -6.20309,-22.78839 c -4.03838,-8.30926 1.56726,10.79257 1.03284,5.07964 l -1.03284,-5.07964 z m 98.95998,-4.63962 c 27.53927,-27.51041 -55.34562,-31.84836 -18.99725,-3.69491 6.35458,0.56988 14.39445,-2.48624 18.99725,3.69491 z M 250.93194,344.579 c -2.9201,-6.71448 -2.08172,6.14372 0,0 z m -12.66496,-11.86998 c -3.79019,-9.539 -13.42508,-2.39082 0,0 z m 45.03097,-4.91469 c -6.69847,-13.12068 -8.29321,6.22916 0,0 z m -41.06324,-4.70886 c -2.29568,-15.48712 -3.99276,11.06986 0,0 z m -10.36031,-2.68806 c -3.98169,-4.51886 0.0573,7.32041 0,0 z m -36.2119,-1.7661 c 21.2008,2.07085 -5.77174,-32.00903 -5.79844,-23.42034 -14.75162,-31.04715 20.3535,-46.71323 45.19227,-44.57571 -15.39206,3.15263 -21.0294,16.21754 -0.55387,11.66081 16.70817,-3.95688 30.42853,2.22167 43.96669,-2.70737 13.09233,13.03457 -13.39072,-20.74129 6.58146,-11.89624 33.99035,-6.27104 36.84575,28.63129 18.39589,48.85842 26.63882,7.06672 48.91148,-14.9766 45.00252,-40.95878 7.73683,-32.84847 -1.62272,-79.83238 -43.9135,-77.39523 -28.60034,2.42163 -32.30361,-35.02487 -3.70604,-35.61452 16.92454,3.75558 38.87904,-0.21021 20.88627,-20.82428 C 306.29063,102.06443 286.46218,78.637226 271.31512,64.486723 252.59344,52.501092 231.16543,32.635788 210.57464,52.956695 c -5.17507,0.529639 -26.57342,15.189622 -17.0643,0.572959 -31.74443,-1.612458 -31.51591,38.473252 -47.90165,56.381946 -4.68735,5.87952 -7.18938,18.35177 0.23089,6.40713 0.69309,15.8671 -8.24884,59.09331 8.90363,56.20608 10.01005,-23.95233 65.21596,-34.02331 61.08053,-1.68403 -16.95408,20.51264 -61.16821,9.36188 -60.62184,40.59497 -0.80027,14.0837 -0.88094,48.79835 9.80843,48.51946 21.65695,-25.58444 -3.08147,48.00273 20.43208,36.33965 6.17318,4.85239 -2.53948,27.53296 10.22009,22.33645 z m -9.08145,-15.99218 c 4.50936,-5.40903 2.78292,4.02178 0,0 z m 114.52935,-8.2804 c 1.72649,-6.37681 3.1852,7.78723 0,0 z m 13.52746,-0.21973 c 4.50937,-5.40904 2.78292,4.02179 0,0 z m 1.96425,-4.33861 c -9.31475,-6.4651 9.02491,0.32463 0,0 z m 9.17932,-5.52011 c -7.47545,-21.14367 13.97391,2.45508 0,0 z m 10.99079,-16.20243 c 3.29409,-6.45924 3.00711,6.41377 0,0 z m -13.96107,-14.75717 c -0.17126,-6.91643 1.86033,4.61522 0,0 z m -67.27644,-1.68232 c 4.50942,-5.40925 2.78304,4.02185 0,0 z m 5.62887,0 c 4.5094,-5.4093 2.78306,4.02184 0,0 z m -14.80509,-1.49901 c 7.85434,-6.45153 2.83347,4.2561 0,0 z m 88.36301,-3.21393 c -0.23726,-8.34242 4.38928,5.11951 0,0 z m -57.26164,-11.22181 c -26.3294,-25.98333 38.39219,-22.23006 5.85046,3.21362 l -3.22754,-0.28739 -2.62292,-2.92623 z m -0.49439,-12.95978 c -2.33063,-6.14669 -4.59508,7.06977 0,0 z m 6.00999,-0.26562 c -2.95079,-6.89106 -3.73587,5.11288 0,0 z m -49.93886,5.50744 c -20.98007,-15.62781 32.6295,-14.17683 12.62188,0.90447 4.49823,7.68252 -10.33382,0.0257 -12.62188,-0.90447 z m -8.73069,-17.16561 c -0.17125,-6.9164 1.86031,4.61524 0,0 z m 48.71502,-41.0506 c -4.43568,-16.36457 5.20782,5.32163 0,0 z M 165.21079,84.550105 c 10.05989,-12.453119 9.31068,-5.724174 0,0 z m -0.83848,-4.761221 c 3.44108,-7.438728 10.8373,-3.512313 0,0 z m 22.83755,235.551556 c 1.83223,-20.1318 -11.80023,5.80809 0,0 z m -2.41715,-1.76137 c 0.33287,-10.39705 5.14106,3.86752 0,0 z m 68.54404,-6.94707 c -2.75418,-8.32149 -4.90095,5.34276 0,0 z m 56.03196,-1.44666 c -5.13733,-1.31218 -1.40197,5.9834 0,0 z m 17.19231,-1.32265 c -2.59438,-11.89375 -8.62159,13.29681 0,0 z m -112.79386,0.39679 c 8.46192,-18.98683 -29.61745,-21.51548 -8.86891,-1.53599 1.44707,3.3604 6.32391,4.12376 8.86891,1.53599 z m 94.58276,-1.42906 c -8.49611,-6.96313 -9.14639,10.09598 0,0 z m -84.45378,-5.1958 c -5.354,1.39757 3.52561,5.61477 0,0 z m -57.39826,-2.97801 c -7.15546,-5.28683 -7.90601,6.96295 0,0 z M 286.816,285.0781 c -4.95615,-8.35313 -1.55818,5.71847 0,0 z m -126.89711,-4.8199 c 4.14936,-9.95674 -2.75386,7.90139 0,0 z m 148.70898,1.42975 c -3.345,-6.84885 -4.1481,3.48507 0,0 z m -30.10859,-4.72629 c -3.93672,2.85398 4.94893,4.13185 0,0 z m -89.50491,-0.4673 c -3.85106,-3.63376 -1.12627,6.01168 0,0 z m 5.62887,-0.62473 c -3.60404,-7.48931 -1.53755,6.53634 0,0 z m 28.88162,-6.26833 c -5.45668,-10.92762 -6.61523,0.25816 -0.2912,2.26581 l 0.2912,-2.26581 z m -50.21285,-2.77311 c -13.56248,-12.02476 1.66658,15.20011 0,0 z m -12.442,2.66635 c -3.34098,-5.40162 -3.48058,5.7756 0,0 z m 120.31711,0 c -2.93131,-6.4627 -1.71065,5.18559 0,0 z M 137.90981,267.5811 c 0.67464,-21.22007 -16.16622,-12.9966 -4.46323,1.39174 l 2.3067,0.35815 2.15653,-1.74989 z m 116.68677,-1.95295 c -3.93673,2.85398 4.94892,4.13188 0,0 z m 7.59311,0.8658 c -4.97782,-3.62457 0.30587,9.03495 0,0 z m 192.78882,-70.53456 c -11.15506,-11.26113 -4.84977,18.08861 0,0 z m -5.62887,2.07602 c 1.82593,-6.63802 4.25178,3.77303 0,0 z M 305.81343,163.86767 c -4.44251,-3.67603 -0.97385,6.16089 0,0 z m -20.36742,-4.60119 c -5.13734,-1.31219 -1.40198,5.98339 0,0 z m 254.78644,-7.35704 c 9.40468,-12.58184 -6.50731,-4.7958 0,0 z m -402.79954,-3.60282 c -4.59331,-5.84026 1.74399,7.25302 0,0 z m 3.03244,-6.314 c -4.53666,-6.98216 -2.44335,5.95049 0,0 z m -0.7036,-5.04201 c -3.31463,-5.72224 -1.62263,8.0589 0,0 z m 4.22165,-10.54155 c -2.9201,-6.71448 -2.08175,6.14372 0,0 z m 179.83726,-24.01927 c -7.43246,-8.607797 4.43834,9.28869 0,0 z m -177.9838,-8.78175 c 7.43595,-20.251697 -10.69117,13.16413 0,0 z m -28.5906,-8.384126 c 10.76328,-8.465289 -2.78839,-6.670282 0,0 z M 272.04021,61.404345 c -4.9159,-11.530014 -7.1195,0.295281 0,0 z M 199.12874,47.523462 c -8.53445,-5.118888 0.23289,4.140999 0,0 z M 300.88817,487.66448 c 7.74954,-7.99715 12.26816,7.42982 0,0 z m 0.0113,-14.14901 c 4.21723,-10.92622 8.3144,9.23223 0,0 z"
         id="path9200"
         inkscape:connector-curvature="0" />
      <path
         style="fill:#322f29"
         d="m -82.578651,251.07759 c 0,-79.33452 0,-158.669045 0,-238.003567 210.144511,0 420.289021,0 630.433531,0 0,158.669047 0,317.338087 0,476.007137 -30.06377,-3.23924 -61.28905,5.753 -90.53274,-3.58642 -17.91783,-18.47459 -21.18144,-51.7482 -56.61536,-44.23565 -13.7941,9.68514 0.28996,30.92608 -24.75367,29.78987 -21.08109,2.21863 -50.94106,35.2965 -55.82834,-1.98255 1.76497,-16.95751 0.71933,-37.80775 -15.48946,-15.63428 -10.81867,20.54162 -17.80771,45.08361 -47.06793,36.34671 -82.09803,-2.06532 -164.28284,0.0819 -246.435728,-0.71064 -31.236764,-0.0171 -62.47355,-0.0248 -93.710303,0.0129 0,-79.33451 0,-158.66908 0,-238.00356 z M 245.49775,460.16183 c 29.52668,-13.4966 63.69003,-31.09637 67.75933,-67.2217 -7.62523,8.96324 -16.73623,-2.41836 -19.94958,5.20173 -1.2983,-11.23759 -22.03925,-31.60937 -24.50759,-9.59213 2.63593,-16.02714 -5.41605,-11.76496 -7.00193,0.421 -1.49947,-24.14323 -7.82792,-5.90545 -8.44168,-1.73668 -0.70133,-36.11577 -27.67562,44.63637 1.66611,24.47535 -22.36896,21.2675 41.25148,18.94019 8.79365,31.3207 -19.97462,12.79744 -46.30235,-17.62383 -59.76403,-3.87444 -0.70736,16.95985 24.36138,10.29469 33.63668,22.43514 l 3.75543,0.0372 4.05361,-1.46616 0,0 z m 26.54246,-33.72384 c 1.20279,-8.95754 6.69501,1.12418 0,0 z m -11.68946,-0.76806 c -14.23533,-12.88498 12.92505,-5.89114 0,0 z m 20.42908,-18.10221 c -2.23566,-7.44579 7.40471,7.80234 0,0 z m 6.73977,0.76223 c 2.75849,-4.93142 1.93079,6.08901 0,0 z m 8.44331,0.79196 c 1.82593,-6.63804 4.25179,3.77304 0,0 z m -50.65984,-7.08344 c 3.42095,-12.86449 5.07607,6.86885 0,0 z m 19.81215,-11.29906 c -0.17126,-6.91643 1.86034,4.61522 0,0 z m 91.35805,65.71348 c -5.20996,-13.57612 -8.09975,9.10903 0,0 z m -19.4868,-20.61388 c 1.35995,-19.8628 -9.18511,16.54345 0,0 z m -84.489,-3.83266 c -6.53765,0.7815 8.14213,7.18809 0,0 z m 149.00677,0.4073 c -3.29406,-6.45922 -3.00714,6.41371 0,0 z m -78.04272,-1.51094 c 1.54689,-9.24948 -7.3727,9.88149 0,0 z m 34.25721,-1.67661 c 12.17475,-12.29368 -17.43769,-26.5555 -13.05453,-6.60204 12.15565,-16.37563 3.51922,14.59282 13.05453,6.60204 z m -172.92602,-2.39559 c -2.61234,-9.90353 -6.15851,5.52458 0,0 z m 217.30004,0.47316 c 15.64683,-13.56704 -28.49005,-26.59411 -6.73487,-8.36945 0.86798,2.33645 1.76627,10.30668 6.73487,8.36945 z M 207.3082,424.17069 c -2.00811,-9.92427 -7.65663,0.6844 0,0 z m 172.83998,-3.5664 c -6.17872,-14.32838 -7.4026,12.07679 0,0 z m -11.96107,-7.17742 c -0.66514,-13.40225 -6.28906,6.78043 0,0 z M 191.31998,397.67735 c -4.31956,-20.14548 -8.9366,10.97917 0,0 z m -5.81371,-13.41171 c 6.27336,-13.02623 -18.32047,-45.145 -9.50614,-14.29444 1.31118,2.95479 3.97136,27.24705 9.50614,14.29444 z M 179.86745,367.246 c 1.57673,-5.46756 2.96029,6.42445 0,0 z m 62.14594,13.81271 c -4.26864,2.65782 6.47069,7.92589 0,0 z m -19.2258,-13.10436 c -2.39715,-6.81046 -1.86439,8.04108 0,0 z m -11.72681,-3.17069 c 0.1262,-12.90133 -8.50264,1.68632 0,0 z m -9.86562,-6.41892 c -4.19936,4.84145 5.30834,10.2221 0,0 z m 113.06158,-7.73037 c -4.1803,-5.32939 0.251,13.36086 0,0 z m -35.74968,-3.44089 c 22.91619,-20.85705 -23.9657,-32.34863 -30.82098,-19.2425 -2.48467,19.02653 19.43605,15.37928 30.82098,19.2425 z m -30.38955,-17.48971 c 3.12306,-6.33354 2.2323,6.46895 0,0 z m 30.95879,0 c 2.39717,-6.81044 1.86437,8.04108 0,0 z m -105.56287,15.2294 c 1.37577,-8.49315 -6.5516,0.30678 0,0 z m 77.41851,-0.35417 c -3.29405,-6.45924 -3.00712,6.41374 0,0 z m -12.66496,-10.50929 c -4.96397,-17.26394 -11.73522,-3.67594 0,0 z m 5.11556,-10.02188 c -0.51359,-15.11062 -11.93376,5.68738 0,0 z m -36.68378,-3.47385 c -11.35134,-13.12622 25.82642,-24.55202 0.23055,-34.67868 -31.10652,16.68581 -17.80246,-36.97312 6.03548,-29.65928 3.1111,6.79477 3.21902,27.73082 12.46161,9.7007 14.4064,-2.04334 44.41844,-1.53397 52.04141,-3.6154 9.37072,14.18308 7.47757,-24.11441 -6.13118,-11.37889 26.70141,-18.02518 59.73486,20.33923 30.00846,40.45018 -5.19773,24.20263 28.21991,0.10098 39.38141,-1.5919 20.32859,-26.92645 11.40062,-67.5214 2.63475,-97.58435 -9.33624,-31.27037 -69.81869,0.72839 -59.32692,-39.85688 9.04035,-19.2207 62.49717,7.17541 39.86438,-25.43038 -22.7566,-24.3738 -32.51961,-63.161374 -67.62822,-73.801938 -20.99274,-25.310611 -42.72539,0.428803 -63.49638,5.195905 19.21442,-15.210982 -27.3528,-2.317837 -28.42555,12.652133 -9.24481,23.561728 -30.21898,46.31457 -27.09235,72.32956 5.94776,-5.04236 9.70873,-28.57896 7.18268,-5.03573 -7.77749,16.59081 8.31992,55.11895 21.8903,23.3867 12.02429,-24.94982 70.0217,-5.25434 40.3424,16.37257 -27.69127,4.6729 -59.03263,11.63449 -53.18862,48.39327 4.18128,14.46242 -11.3637,46.3925 8.36326,48.54965 -3.66936,-15.22237 15.4179,-30.27572 8.68793,-7.87765 3.92274,16.25926 -4.67286,29.11576 13.15917,40.45878 -1.1067,14.49864 9.3343,14.50165 23.00543,13.02163 z m -7.13026,-14.24556 c 1.57673,-5.46755 2.96029,6.42445 0,0 z m 106.24493,-1.33307 c 1.29381,-6.40366 4.40414,4.13885 0,0 z m -126.64959,-2.74353 c 0.99397,-9.13554 7.21781,2.61923 0,0 z m 24.18656,-0.262 c 2.92964,-11.87775 4.64024,5.60809 0,0 z m 99.30556,-0.85265 c 6.64343,-2.77101 -2.33819,-4.60377 0,0 z m -104.84648,-2.59462 c -7.66874,-19.51024 16.2088,5.71248 0,0 z m -19.05338,-6.38101 c 3.68069,-10.88335 0.45668,8.61885 0,0 z m 146.75838,-8.50782 c 4.87365,-6.46495 6.70186,9.76457 0,0 z m 0.76371,-4.14448 c -2.04856,-7.91639 5.25778,4.50911 0,0 z m -107.71225,-5.47311 c 0.0266,-10.83835 7.34259,-1.33717 0,0 z m 124.89057,-2.00626 c -4.38634,-15.50538 12.16879,12.50251 0,0 z m -108.00396,-10.2435 c 1.8259,-6.63806 4.25179,3.77303 0,0 z m -78.33512,-7.22938 c 0.93625,-8.63556 3.40221,5.83995 0,0 z m 67.07738,-2.06271 c 11.54822,-10.23441 -0.51272,5.26275 0,0 z m 4.92526,-2.83337 c 1.28402,-6.23152 5.08612,9.01658 0,0 z m 7.36111,0.48742 c 10.81603,-3.78203 4.09818,3.46406 0,0 z m 41.1879,-16.07099 c 8.39504,-12.3097 -15.14786,-19.9867 4.00435,-20.95639 10.36004,3.93021 10.19694,25.7438 -4.00435,20.95639 z m -47.8454,-8.56803 c 4.86114,-14.7825 31.39067,-5.5881 9.53669,1.61223 -2.94249,2.24591 -7.37532,1.17573 -9.53669,-1.61223 z m 77.77809,-84.3726 c 4.50923,-5.40887 2.78295,4.02158 0,0 z M 169.31332,80.366699 c 7.88195,-10.48111 -2.42221,6.80117 0,0 z m -5.62887,0.192936 c 6.13121,-9.33108 8.68678,-1.611424 0,0 z M 265.64987,61.147159 c -0.37797,-8.106417 9.49203,11.627239 0,0 z M 231.8744,320.39741 c -3.98169,-4.51886 0.0573,7.32041 0,0 z m 13.69253,-2.28655 c -8.53448,-5.11887 0.23272,4.14078 0,0 z m 80.29936,-12.35229 c 13.66461,-18.74787 -18.48845,13.23288 0,0 z m -69.89856,-0.66682 c -12.54187,-12.85055 -6.11461,12.46891 0,0 z m -10.66466,-1.68032 c -3.85105,-3.63375 -1.12626,6.01168 0,0 z m -20.59605,-5.89491 c -6.08096,-1.02571 1.0505,8.22039 0,0 z m -61.02257,-1.18853 c 4.75152,-5.47685 -0.87857,-1.83934 -3.22055,0.75366 l 3.22055,-0.75366 z m 59.80675,-2.74976 c -2.93133,-6.4627 -1.71064,5.18563 0,0 z m 64.0284,-7.55566 c -2.32394,-11.47039 -4.99937,6.81331 0,0 z m -49.25262,-4.5698 c -4.44251,-3.67605 -0.97386,6.16089 0,0 z m 70.0649,0.21116 c -3.48901,-8.27533 -6.3155,4.53218 0,0 z m -25.03393,-2.57675 c -4.88585,-6.40879 -7.35106,6.21205 0,0 z m -90.23453,-5.44997 c -7.81903,2.4326 8.51379,5.65503 0,0 z m 20.26931,1.9625 c 3.03322,-13.30259 -2.54254,11.03345 0,0 z m -76.12157,-2.82286 c -8.53444,-5.11886 0.23272,4.14078 0,0 z m 0.0906,-11.21299 c -10.63022,-39.55336 -6.63345,26.74526 0,0 z m 117.85181,6.43038 c -2.81615,-7.58094 -0.8898,9.85037 0,0 z m 35.1453,-13.26863 c -6.95395,-0.0857 4.37098,6.02982 0,0 z m 164.67961,-58.89885 c -18.24414,-16.00482 -6.41834,22.12373 0,0 z M 305.81343,163.86767 c -4.44251,-3.67603 -0.97385,6.16089 0,0 z m -20.59937,-2.74976 c -3.19007,-6.81505 -3.31075,6.88086 0,0 z m 175.25305,-8.38207 c -3.85292,-6.10179 0.6649,17.3052 0,0 z m -126.25134,0.28334 c -6.10878,-2.36338 6.37039,8.01165 0,0 z m 207.42173,0.30695 c 9.59738,-16.71088 -12.48515,-4.18755 0,0 z M 133.86747,134.90918 c -2.58149,-8.00726 -0.46303,16.95795 0,0 z M 117.24626,112.6308 c -2.09216,-14.356203 -1.34964,19.46985 0,0 z m 22.47369,-2.15948 c 9.86028,-14.737963 -13.80642,16.38088 0,0 z m 183.55072,-8.8543 c -13.67571,-13.545824 5.64549,9.05547 0,0 z M 132.70411,99.137814 c -3.59087,-7.255765 -0.90917,12.036736 0,0 z m 15.97942,-4.88724 c 10.23532,-18.17414 -13.86771,-11.291023 -5.87412,3.821648 l 2.87172,-0.216832 3.0024,-3.604816 z M 120.05898,80.637262 c 0.91899,-8.914974 -8.10517,15.115134 0,0 z m 79.06976,-33.1138 c -8.53445,-5.118888 0.23289,4.140999 0,0 z m 31.04674,-11.30399 c -7.85436,-6.451539 -2.83348,4.256093 0,0 z m 70.12635,452.352648 c 6.08432,-5.47988 9.33612,4.60894 0,0 z M 403.26326,466.8922 c -10.70948,-19.34372 20.47393,2.11947 0,0 z m 28.83624,-0.65469 c -12.69887,-8.2773 10.93561,0.76641 0,0 z"
         id="path9198"
         inkscape:connector-curvature="0" />
      <path
         style="fill:#4b0e07"
         d="m -82.578651,251.07759 c 0,-79.33452 0,-158.669045 0,-238.003567 210.131991,0 420.263981,0 630.395971,0 0.014,158.669047 0.028,317.338087 0.042,476.007137 -29.83217,-8.0139 -83.39963,18.67026 -94.61604,-19.1261 -6.65086,-24.8113 -60.84455,-50.26893 -60.08277,-10.81547 -8.14115,20.72449 -35.33723,13.96945 -52.67021,26.36353 -36.06482,8.68957 -9.55855,-46.82321 -25.60939,-48.86783 -24.43096,11.79027 -13.96644,64.59895 -49.68893,52.44587 -115.92352,0 -231.847047,0 -347.770571,0 -4e-5,-79.33452 8e-5,-158.66905 -6e-5,-238.00357 z M 246.29228,460.42307 c 27.08626,-15.15225 73.9382,-31.53374 70.30389,-68.78551 -13.5515,-7.04418 -8.38035,20.95283 -17.90959,0.36973 -6.41879,18.23478 -17.93275,-34.70718 -28.57713,-7.51075 0.95821,10.82305 -1.71549,-21.71178 -9.70225,-0.99315 -5.27817,-28.26712 -5.36616,21.32478 -7.88199,-3.53682 -4.21265,-17.59038 -7.00641,13.54401 -13.18355,2.3946 -3.21224,11.59431 2.7535,35.79498 -13.00849,27.21143 -12.80082,10.34022 -7.17859,-8.1944 -11.10495,10.85445 -6.63524,13.03289 -23.21816,26.3191 2.0275,33.5092 9.39157,3.31445 19.318,4.53539 29.03656,6.48682 z m 2.48354,-17.03009 c 10.81165,-15.68915 9.18176,17.64173 0,0 z m 14.82108,-0.23612 c 2.52156,-6.95072 4.02402,4.70817 0,0 z m -47.26506,-1.34729 c -4.66694,-20.47834 16.72156,1.83417 0,0 z m 16.32782,-0.54162 c 3.96604,-17.07085 2.23014,8.00745 0,0 z m 5.09611,-2.48533 c -3.79914,-21.75735 16.3294,2.84003 0,0 z m 17.44258,-0.23548 c 8.46394,-18.76921 21.33917,2.67746 0,0 z m 17.62545,-2.2376 c 6.45301,-12.55462 1.80597,11.4385 0,0 z m -39.9598,-7.50427 c -16.96613,-15.28672 36.35058,-17.78867 10.65415,-4.90754 l -5.39418,2.31067 -5.25997,2.59687 z m 13.84629,0.18471 c 2.52156,-6.95072 4.02403,4.70816 0,0 z m 15.4794,-6.49315 c 3.29408,-6.45925 3.0071,6.41377 0,0 z M 255.1536,418.412 c 7.46326,-11.07193 9.7062,6.38701 0,0 z m 49.91525,-7.29426 c -4.18376,-21.30713 21.20041,6.33383 0,0 z m -9.10594,-1.99583 c 1.82593,-6.63804 4.25179,3.77304 0,0 z m -50.65984,-7.72383 c 4.21428,-11.51612 4.12512,6.05929 0,0 z m -4.11055,-4.99192 c -0.17126,-6.91643 1.86034,4.61522 0,0 z m 35.77295,-12.1599 c 1.57673,-5.46756 2.96029,6.42445 0,0 z m 79.5078,72.20663 c -5.20996,-13.57612 -8.09975,9.10903 0,0 z m -19.4868,-20.61388 c 1.35995,-19.8628 -9.18511,16.54345 0,0 z m 64.51777,-3.42536 c -3.29406,-6.45922 -3.00714,6.41371 0,0 z M 188.16887,427.1756 c -11.12557,-27.42073 -7.09197,20.84798 0,0 z m 169.54986,2.0505 c 12.21376,-12.47474 -18.00093,-26.81395 -13.05453,-6.60204 12.15565,-16.37563 3.51922,14.59282 13.05453,6.60204 z m 45.19004,-2.44756 c 12.64279,-15.20613 -29.35388,-25.38483 -7.48346,-7.21187 0.57411,3.10917 3.03659,10.9823 7.48346,7.21187 z m -194.86159,-1.50596 c 9.88934,-16.97556 -36.2431,-1.78765 -4.4504,-0.97885 1.48346,0.32628 2.96693,0.65257 4.4504,0.97885 z m 172.101,-4.66829 c -6.14615,-14.85088 -9.1093,11.93095 0,0 z m -12.41717,-5.78337 c 5.88175,-7.13214 -6.88101,-1.65307 0,0 z m -163.14318,-9.5013 c -7.4821,-5.73912 -3.74021,13.24117 0,0 z m 21.0142,0.80169 c -4.44251,-3.67606 -0.97387,6.16089 0,0 z m -12.06578,-1.56998 c 5.79098,-17.22916 -12.47851,-13.82838 0,0 z m -20.39186,-2.86292 c -1.99795,-14.57415 -11.02005,-34.69982 7.5842,-35.25297 2.39004,-13.11818 -29.81385,0.30593 -20.99307,-19.28939 -19.49227,-1.52458 -6.10646,52.24362 13.40887,54.54236 l 0,0 z m -8.42588,-21.18035 c -2.10533,-13.49338 5.54599,10.53016 0,0 z m 43.69795,22.15514 c -2.92012,-6.7145 -2.08171,6.14377 0,0 z m -1.75902,-4.57222 c -4.37618,-13.07612 -14.50932,8.20367 0,0 z m -26.84953,-1.68563 c 8.85564,-12.07713 -14.35547,-6.36148 0,0 z m 14.09919,-4.72148 c -3.81349,4.15318 5.77098,9.3552 0,0 z m 93.23212,-2.29761 c -4.9822,6.2866 7.29238,7.70704 0,0 z m -95.60937,-5.84835 c -6.66531,-13.66946 -0.26994,13.18434 0,0 z m 8.4433,2.74977 c -4.44251,-3.67605 -0.97386,6.16089 0,0 z m -21.10826,-5.66676 c -6.01219,-9.19658 0.019,12.38135 0,0 z m 24.44296,-8.06234 c 6.8894,-16.84286 -11.15445,-6.0896 0,0 z m -17.96389,-2.09552 c -3.93672,2.85398 4.94892,4.13187 0,0 z m 152.53653,-0.38368 c -5.48248,-12.99497 -3.28311,11.03493 0,0 z m -205.45378,1.41669 c -3.29406,-6.45922 -3.00714,6.41371 0,0 z m 60.51036,-0.87556 c 1.2736,-23.82105 -16.21438,-7.56477 0,0 z m 135.98803,-4.36227 c -7.26062,1.3233 1.79694,9.04392 0,0 z m -132.66471,-1.13727 c -0.24421,-7.21157 -4.06696,7.96589 0,0 z m 124.73349,-3.54172 c -3.29409,-6.45924 -3.00711,6.41377 0,0 z m -8.44331,-3.62533 c -3.31463,-5.72224 -1.62262,8.05891 0,0 z m -16.50723,-11.60193 c -8.7236,-7.01182 -2.22274,20.60675 -0.0143,0.0557 l 0.0143,-0.0557 z m 11.38725,4.6021 c -5.07984,-6.91495 -4.26763,8.14972 0,0 z m -48.92353,-3.76061 c 22.91619,-20.85705 -23.9657,-32.34863 -30.82099,-19.2425 -2.48467,19.02653 19.43606,15.37928 30.82099,19.2425 z m -30.38955,-17.48971 c 3.12306,-6.33354 2.2323,6.46895 0,0 z m 30.95879,0 c 2.39717,-6.81044 1.86437,8.04108 0,0 z M 250.93194,344.579 c -3.29405,-6.45924 -3.00712,6.41374 0,0 z m -12.66496,-10.50929 c -4.96397,-17.26394 -11.73522,-3.67594 0,0 z m 5.11556,-10.02188 c -0.51359,-15.11062 -11.93376,5.68738 0,0 z m -36.68378,-3.47385 c -10.61939,-13.15217 27.06228,-27.42754 -1.85582,-34.95412 -20.16215,11.67134 -21.76338,-16.62861 -5.57343,-22.65362 6.1561,-20.2939 23.08533,29.35821 26.50519,1.14276 23.47315,-3.25249 49.00815,8.45068 65.89638,-7.8185 -16.44971,-16.55022 30.16798,-2.2394 16.22866,15.72313 -3.30865,14.94503 -15.0917,39.63479 9.68976,25.70489 37.28869,-0.99663 38.26516,-36.02247 34.92694,-64.13975 2.15763,-23.04116 -3.19221,-66.56376 -34.91201,-58.70153 -33.02981,9.2107 -38.35197,-37.49943 -3.24648,-28.63292 9.81569,4.73125 29.8362,13.02209 16.18888,-5.71451 -17.1226,-29.98597 -34.4038,-66.469632 -65.0141,-83.290238 C 255.31223,50.9497 223.25108,28.540123 226.04087,34.775923 238.5655,50.16154 195.81234,55.59346 202.39343,44.956516 c -26.81444,4.059791 -43.5245,30.198013 -59.34104,44.194488 -4.90082,11.373606 4.32195,20.540396 -7.45148,21.677116 4.86712,14.28884 -15.19351,33.58481 -7.24725,47.96641 18.52809,11.47963 14.98482,58.73204 15.4225,84.82218 -4.13664,23.37208 17.75761,46.67685 28.25793,30.13868 -3.9875,14.71221 2.09697,29.27667 13.66965,35.91368 -10.41754,15.51403 13.42818,9.18842 20.99502,10.90491 z m -7.13026,-14.24556 c 1.57673,-5.46755 2.96029,6.42445 0,0 z m 106.24493,-1.33307 c 1.29381,-6.40366 4.40414,4.13885 0,0 z m -126.64959,-2.74353 c 0.99397,-9.13554 7.21781,2.61923 0,0 z m 24.18656,-0.262 c 2.92964,-11.87775 4.64024,5.60809 0,0 z m 99.30556,-0.85265 c 6.64343,-2.77101 -2.33819,-4.60377 0,0 z m -104.84648,-2.59462 c -7.66874,-19.51024 16.2088,5.71248 0,0 z m -19.05338,-6.38101 c 3.68069,-10.88335 0.45668,8.61885 0,0 z m 146.75838,-8.50782 c 4.87365,-6.46495 6.70186,9.76457 0,0 z m 0.76371,-4.14448 c -2.04856,-7.91639 5.25778,4.50911 0,0 z m -107.71225,-5.47311 c 0.0266,-10.83835 7.34259,-1.33717 0,0 z M 343.45651,272.021 c -7.38617,-11.12173 13.09082,9.88094 0,0 z M 161.8763,265.21825 c 13.45027,-15.34199 12.76232,8.47852 0,0 z m 73.57625,-3.43188 c 1.8259,-6.63806 4.25179,3.77303 0,0 z m -67.21346,-3.85678 c -10.89202,-16.22033 14.32844,-3.78018 0,0 z m 110.1336,-29.519 c 4.95613,-8.35316 1.5582,5.71845 0,0 z m -42.31035,-6.3751 c 30.45113,-15.11148 -11.30538,17.27973 0,0 z m 50.05005,1.56826 c 3.34497,-6.84887 4.14811,3.48507 0,0 z m -16.88662,-3.44673 c 13.26336,-18.16683 23.22333,9.69 0,0 z m -99.57131,-45.4544 c -13.385,-42.37605 79.43489,-14.26809 31.076,3.54588 -10.42986,1.70556 -21.25194,0.2392 -31.076,-3.54588 z M 194.08622,166.46 c -3.93672,2.85397 4.94889,4.13186 0,0 z m -44.4292,-67.14872 c 0.82854,-16.517647 6.83812,1.28441 0,0 z M 286.89884,81.738332 c -6.54715,-8.019414 12.9302,10.743524 0,0 z M 231.8744,320.39741 c -3.98169,-4.51886 0.0573,7.32041 0,0 z m 13.69253,-2.28655 c -8.53448,-5.11887 0.23272,4.14078 0,0 z m 80.29936,-12.35229 c 13.66461,-18.74787 -18.48845,13.23288 0,0 z m -69.89856,-0.66682 c -12.54187,-12.85055 -6.11461,12.46891 0,0 z m -94.56526,-4.07591 c 10.46833,-19.10581 -16.16193,6.32878 0,0 z m 83.9006,2.39559 c -3.85105,-3.63375 -1.12626,6.01168 0,0 z m -20.59605,-5.89491 c -6.08096,-1.02571 1.0505,8.22039 0,0 z m 164.03335,-5.79276 c -7.70624,1.87709 4.20775,8.51604 0,0 z m 25.42883,3.18755 c -4.41104,-6.03979 -1.3134,9.06037 0,0 z m -190.678,-1.33308 c -2.93133,-6.4627 -1.71064,5.18563 0,0 z m 64.38571,-7.43761 c 4.73624,-12.11502 -7.84169,1.0914 0,0 z m 5.25002,-2.12503 c 2.2859,-11.55594 -6.68386,-3.17008 0,0 z m 73.19687,-7.88289 c -7.49314,5.3207 -0.0603,11.23646 0,0 z m -128.07836,3.54921 c -4.28864,-4.9817 -0.13158,15.38503 0,0 z m -69.8024,-1.05249 c -1.40581,-5.98014 -2.72799,9.72018 0,0 z m 115.45907,0.94393 c -5.77344,-9.72273 -9.27251,7.5505 0,0 z m 21.10917,-3.1559 c -6.50785,-2.75731 2.48003,9.51038 0,0 z m -110.56473,-1.42789 c -9.89292,-6.18225 5.96853,8.44429 0,0 z m 18.96212,1.34256 c -2.44643,-21.51678 -13.6182,8.03752 0,0 z m -72.58277,-3.65004 c 1.82794,-16.77961 -18.04345,-36.40424 -11.77581,-8.41628 0.8962,5.14723 5.52334,14.84636 11.77581,8.41628 z m 96.88407,-1.38717 c -3.93674,2.85397 4.94892,4.13189 0,0 z m 54.03129,0.94939 c -3.85106,-3.63377 -1.12628,6.01169 0,0 z m -5.62887,-2.34456 c -6.3957,-5.96215 -8.92875,6.1005 0,0 z m -30.95879,-1.9055 c -2.81615,-7.58094 -0.8898,9.85037 0,0 z m 40.80931,0.70834 c -3.31462,-5.72224 -1.62262,8.0589 0,0 z M 123.0071,235.06021 c -6.42009,4.35277 7.88323,5.8616 0,0 z M 456.76359,191.5767 c 2.93368,-12.50531 4.79432,-53.19954 -0.57188,-18.66549 -3.07322,15.83287 -36.02841,37.44003 -2.6899,28.76241 3.42759,-1.96564 4.39722,-6.54667 3.26178,-10.09692 z m -9.87658,-5.31258 c -0.28498,-16.01911 14.4816,-51.26456 -4.51041,-52.91951 -11.22545,16.71141 9.8483,40.17054 -7.41355,54.61781 3.83799,1.28248 8.82611,1.32387 11.92396,-1.6983 z m 93.93178,-14.52105 c -3.32782,-11.13764 -1.50503,8.97561 0,0 z m -235.00536,-7.08344 c -3.29408,-6.45925 -3.0071,6.41377 0,0 z m -192.81037,-7.43761 c -8.9113,-6.58633 2.40298,12.78704 0,0 z m 427.49425,-1.96342 c 13.24284,-29.44616 -19.12682,-3.88662 0,0 z m -8.82543,-1.93247 c -2.93132,-6.4627 -1.71066,5.18561 0,0 z M 120.0607,133.93007 c -6.58869,-3.19401 1.19249,16.33708 0,0 z m -4.16465,-1.9615 c 4.87027,-10.56486 31.10137,-41.191283 13.92949,-36.678802 -4.43286,12.971872 -14.57192,36.499632 -10.28628,8.104532 -1.99078,-30.692454 -12.17923,24.36133 -3.64321,28.57427 z m -3.70512,-6.85814 c -6.57498,8.17781 0.88984,7.35522 0,0 z m 431.4423,3.89589 c -4.40327,-7.34061 -1.41114,9.8425 0,0 z m -197.5675,-5.04695 c -3.93673,2.85399 4.94893,4.13187 0,0 z m -0.84262,-8.8791 c -0.96049,-26.784789 -18.70469,-5.53684 -4.83529,4.91397 l 2.18609,-1.55048 2.6492,-3.36349 z m -6.10552,-0.94918 c -2.94562,-8.48046 7.69119,3.36068 0,0 z m -8.68611,-4.74848 c -6.20247,-12.5307 -22.40056,-39.921474 -27.84095,-38.972269 10.31026,12.257757 11.87016,31.801879 27.84095,38.972269 z m 4.93353,-3.59914 c -4.44251,-3.67607 -0.97388,6.16089 0,0 z m -1.679,-5.62063 c -5.00734,1.04062 1.32973,7.05679 0,0 z m -20.67818,-5.328216 c -6.49585,0.821863 8.08595,7.141756 0,0 z m 18.41802,2.154899 c 2.92631,-13.589759 -14.76756,1.016432 0,0 z M 118.87083,84.180756 c 5.22144,-18.059887 -15.66499,23.314604 0,0 z M 309.432,90.182322 c -2.57489,-11.361239 -8.64281,-5.661079 0,0 z m 28.05831,-5.312156 c -8.56167,-13.617819 5.16627,16.153274 0,0 z M 299.23302,76.25623 c -0.74913,-8.200973 -5.49515,3.7499 0,0 z m 29.90316,-4.777562 c -6.89086,-3.354714 9.9578,10.078305 0,0 z m -187.70336,1.545176 c -8.53447,-5.118903 0.23289,4.141005 0,0 z M 295.93468,68.99896 c -9.20283,-7.232028 3.92261,6.701157 0,0 z m -8.40987,-2.793554 c -14.25005,-10.967098 7.69092,10.07971 0,0 z m -141.43058,-0.71393 c -2.93134,-6.462687 -1.71063,5.185632 0,0 z M 303.6948,62.649414 c -8.1886,3.769051 11.30409,11.63737 0,0 z m -6.08947,-2.95141 c -2.57693,-23.624049 -22.99926,6.021188 0,0 z m 9.61532,-4.158408 C 300.83427,44.012932 285.7026,47.16288 303.57063,54.379891 l 3.65002,1.159705 z m 8.44331,0.03506 c -2.92014,-6.714474 -2.08171,6.143733 0,0 z M 170.41347,48.491221 c 7.37067,-5.889221 -17.91153,5.850834 0,0 z m 84.03652,0 c -2.93134,-6.462679 -1.71063,5.185634 0,0 z m 34.47683,-7.08344 c -3.9637,-6.539887 -3.27948,5.254454 0,0 z m -84.16921,-3.801135 c -8.53445,-5.118884 0.23289,4.140999 0,0 z m -6.59633,-11.782432 c -4.53664,-6.982173 -2.44336,5.950493 0,0 z M 302.64719,488.14292 c 5.97228,-5.0398 2.79972,3.8708 0,0 z M 403.26326,466.8926 c -11.05052,-19.02041 19.33277,1.99312 0,0 z m -86.19208,-23.22906 c 2.96773,-6.84116 1.49244,9.13801 0,0 z m -2.81444,-5.58314 c 3.29409,-6.45924 3.00711,6.41377 0,0 z"
         id="path9196"
         inkscape:connector-curvature="0" />
      <path
         style="fill:#2d0f0a"
         d="m -82.578651,251.07759 c 0,-79.33452 0,-158.669045 0,-238.003567 210.131991,0 420.263981,0 630.395971,0 0.014,158.669047 0.028,317.338087 0.042,476.007137 -29.36862,-7.87766 -80.18159,17.50933 -94.04912,-16.53445 -4.50831,-23.54931 -31.49525,-29.52915 -45.50024,-36.1261 2.04674,-14.33525 -24.28138,-44.86822 -22.98984,-19.58071 4.26715,14.82863 -16.57436,20.35047 -5.91726,2.63202 -19.97155,-16.6393 -41.92827,-8.41164 -49.299,14.94239 -30.68667,-4.1556 -30.69118,38.71395 -47.83635,55.91912 -59.98998,-2.7462 -120.109,-0.59038 -180.15974,-1.25227 -61.562123,0 -123.124242,0 -184.686361,0 -4e-5,-79.33452 8e-5,-158.66905 -6e-5,-238.00357 z M 246.29228,460.42307 c 26.56307,-14.95529 74.61958,-31.68178 69.47251,-68.37513 -6.41112,-6.74302 -15.58533,13.51998 -20.54213,-1.65499 -4.04089,7.00964 -23.93016,-34.65016 -24.92188,-3.08807 -1.92417,-6.76051 -4.15809,-18.69059 -8.85734,-4.42841 -7.01961,-17.51552 -6.39311,-3.82564 -7.36805,2.79441 -3.3311,-18.76814 -6.87241,-10.98881 -10.80264,-0.25647 -10.729,-14.58015 2.05104,40.03474 -16.93958,24.15821 -12.80578,10.3358 -7.17163,-8.18921 -11.10536,10.85975 -6.63888,13.02696 -23.24464,26.3704 2.00004,33.56067 9.39821,3.31173 19.33114,4.52895 29.06443,6.43003 z m 2.48354,-17.03009 c 10.81165,-15.68915 9.18176,17.64173 0,0 z m 14.82108,-0.23612 c 2.52156,-6.95072 4.02402,4.70817 0,0 z m -47.26506,-1.34729 c -4.66694,-20.47834 16.72156,1.83417 0,0 z m 16.32782,-0.54162 c 3.96604,-17.07085 2.23014,8.00745 0,0 z m 5.09611,-2.48533 c -3.79914,-21.75735 16.3294,2.84003 0,0 z m 17.44258,-0.23548 c 8.46394,-18.76921 21.33917,2.67746 0,0 z m 17.62545,-2.2376 c 6.45301,-12.55462 1.80597,11.4385 0,0 z m -39.9598,-7.50427 c -16.96613,-15.28672 36.35058,-17.78867 10.65415,-4.90754 l -5.39418,2.31067 -5.25997,2.59687 z m 13.84629,0.18471 c 2.52156,-6.95072 4.02403,4.70816 0,0 z m 15.4794,-6.49315 c 3.29408,-6.45925 3.0071,6.41377 0,0 z M 255.1536,418.412 c 7.46326,-11.07193 9.7062,6.38701 0,0 z m 51.49325,-5.62054 c -4.2065,-19.67642 15.79042,-3.5129 0,0 z m -61.34378,-11.39338 c 4.21428,-11.51612 4.12512,6.05929 0,0 z m -4.11055,-4.99192 c -0.17126,-6.91643 1.86034,4.61522 0,0 z m 35.77295,-12.1599 c 1.57673,-5.46756 2.96029,6.42445 0,0 z m -88.7966,42.92934 c -11.12557,-27.42073 -7.09197,20.84798 0,0 z m 19.87831,-1.90302 c 9.88934,-16.97556 -36.2431,-1.78765 -4.4504,-0.97885 1.48346,0.32628 2.96693,0.65257 4.4504,0.97885 z m -3.45935,-19.95296 c -7.4821,-5.73912 -3.74021,13.24117 0,0 z m 21.0142,0.80169 c -4.44251,-3.67606 -0.97387,6.16089 0,0 z m -12.06578,-1.56998 c 5.79098,-17.22916 -12.47851,-13.82838 0,0 z m -20.39186,-2.86292 c -1.99795,-14.57415 -11.02005,-34.69982 7.5842,-35.25297 2.39004,-13.11818 -29.81385,0.30593 -20.99307,-19.28939 -19.49227,-1.52458 -6.10646,52.24362 13.40887,54.54236 l 0,0 z m -8.42588,-21.18035 c -2.10533,-13.49338 5.54599,10.53016 0,0 z m 43.69795,22.15514 c -2.92012,-6.7145 -2.08171,6.14377 0,0 z m -1.75902,-4.57222 c -4.37618,-13.07612 -14.50932,8.20367 0,0 z m -26.84953,-1.68563 c 8.85564,-12.07713 -14.35547,-6.36148 0,0 z m 14.09919,-4.72148 c -3.81349,4.15318 5.77098,9.3552 0,0 z m -2.37725,-8.14596 c -6.66531,-13.66946 -0.26994,13.18434 0,0 z m 8.4433,2.74977 c -4.44251,-3.67605 -0.97386,6.16089 0,0 z m -21.10826,-5.66676 c -6.01219,-9.19658 0.019,12.38135 0,0 z m 24.44296,-8.06234 c 6.8894,-16.84286 -11.15445,-6.0896 0,0 z m -17.96389,-2.09552 c -3.93672,2.85398 4.94892,4.13187 0,0 z m 152.53653,-0.38368 c -5.48248,-12.99497 -3.28311,11.03493 0,0 z m -205.45378,1.41669 c -3.29406,-6.45922 -3.00714,6.41371 0,0 z m 60.51036,-0.87556 c 1.2736,-23.82105 -16.21438,-7.56477 0,0 z m 135.98803,-4.36227 c -7.26062,1.3233 1.79694,9.04392 0,0 z m -132.66471,-1.13727 c -0.24421,-7.21157 -4.06696,7.96589 0,0 z m 124.73349,-3.54172 c -3.29409,-6.45924 -3.00711,6.41377 0,0 z m -8.44331,-3.62533 c -3.31463,-5.72224 -1.62262,8.05891 0,0 z m -16.50723,-11.60193 c -8.7236,-7.01182 -2.22273,20.60675 -0.0143,0.0557 l 0.0143,-0.0557 z m -43.51141,7.48006 c 31.92677,-17.00791 63.52724,-41.52684 77.20932,-75.85027 5.02936,-33.97662 7.56331,-71.67208 -10.8061,-102.32649 -19.68837,0.67009 -76.39289,-5.84391 -38.63807,-29.6646 15.6872,-6.14353 46.58632,20.71601 29.24212,-7.68007 -13.20671,-28.2839 -33.11076,-52.617007 -52.43346,-76.868862 -17.10261,-0.888303 -45.31854,-31.47137 -50.17147,-25.369825 5.40026,17.510704 -28.08692,16.57099 -28.10923,9.192363 -25.61932,7.153486 -40.97999,31.147867 -55.774,43.888138 -4.90069,11.375276 4.32337,20.538216 -7.45016,21.675686 4.86712,14.28884 -15.19351,33.58481 -7.24725,47.96641 18.88152,11.54904 14.35037,59.09281 15.95286,85.20452 -1.42872,20.06663 10.45941,48.64862 25.01525,28.1635 -4.17803,36.61859 26.84351,61.27851 59.9247,70.35716 13.57357,6.07226 27.7305,14.95841 43.28549,11.31234 z m -9.85561,-43.90351 c -19.15457,-19.86331 -65.14134,-5.58944 -70.67404,-37.42301 11.26085,-34.31778 32.12802,20.72813 51.78654,-7.01547 13.556,3.82002 51.15202,5.56459 46.15034,-12.30551 -7.85189,-12.05379 29.86909,7.02603 20.23476,22.70572 -6.97485,21.36844 -24.09981,35.22909 -47.4976,34.03827 z m -43.26018,-15.96663 c -3.93673,2.85398 4.94891,4.13189 0,0 z m 16.62492,-4.07697 c 7.39171,-14.57117 -15.39951,2.0382 0,0 z m 22.72411,-3.7387 c -5.48974,-10.57817 -5.05065,11.13518 0,0 z m 29.11174,-0.006 c 4.39966,-12.8323 -8.18913,2.43828 0,0 z m 5.25002,-2.12504 c 2.28588,-11.55597 -6.68385,-3.17012 0,0 z m -54.88149,-4.33367 c -4.28882,-4.98147 -0.13133,15.38501 0,0 z m 45.76165,-0.27957 c -6.68817,-8.80655 -7.62679,9.57888 0,0 z m 21.00419,-2.98489 c -6.50786,-2.75732 2.48004,9.51041 0,0 z m -92.05501,1.93143 c 6.69483,-15.10785 -15.31068,-1.5332 0,0 z m 24.7537,-7.05393 c -3.93674,2.85397 4.94892,4.13189 0,0 z m 54.03129,0.94939 c -3.85106,-3.63377 -1.12628,6.01169 0,0 z m 4.22165,-3.54172 c -3.31462,-5.72224 -1.62262,8.0589 0,0 z m -75.02947,36.98435 c 5.86443,-13.50291 10.39628,10.75879 0,0 z M 345.21553,273.7446 c 4.19318,-6.39435 7.33821,4.53059 0,0 z M 161.8763,265.21825 c 13.45027,-15.34199 12.76232,8.47852 0,0 z m 6.36279,-7.28866 c -10.89202,-16.22033 14.32844,-3.78018 0,0 z m 110.1336,-29.519 c 4.95613,-8.35316 1.5582,5.71845 0,0 z m -42.31035,-6.3751 c 30.45113,-15.11148 -11.30538,17.27973 0,0 z m 50.05005,1.56826 c 3.34497,-6.84887 4.14811,3.48507 0,0 z m -16.88662,-3.44673 c 13.26336,-18.16683 23.22333,9.69 0,0 z m -99.57131,-45.4544 c -13.385,-42.37605 79.43489,-14.26809 31.076,3.54588 -10.42986,1.70556 -21.25194,0.2392 -31.076,-3.54588 z M 194.08622,166.46 c -3.93672,2.85397 4.94889,4.13186 0,0 z m -44.4292,-67.14872 c 0.82854,-16.517647 6.83812,1.28441 0,0 z M 286.89884,81.738332 c -6.54715,-8.019414 12.9302,10.743524 0,0 z m 40.53175,269.215758 c -5.07984,-6.91495 -4.26763,8.14972 0,0 z M 161.40247,301.01584 c 10.46833,-19.10581 -16.16193,6.32878 0,0 z m 227.3379,-9.29208 c -7.70624,1.87709 4.20775,8.51604 0,0 z m 25.42883,3.18755 c -4.41104,-6.03979 -1.3134,9.06037 0,0 z M 366.3238,276.1327 c -7.49314,5.3207 -0.0603,11.23646 0,0 z m -197.88076,2.49672 c -1.40581,-5.98014 -2.72799,9.72018 0,0 z m -27.61714,-5.94734 c 1.82794,-16.77961 -18.04345,-36.40424 -11.77581,-8.41628 0.8962,5.14723 5.52334,14.84636 11.77581,8.41628 z m -17.8188,-37.62187 c -6.42009,4.35277 7.88323,5.8616 0,0 z M 456.76359,191.5767 c 2.93368,-12.50531 4.79432,-53.19954 -0.57188,-18.66549 -3.07322,15.83287 -36.02841,37.44003 -2.6899,28.76241 3.42759,-1.96564 4.39722,-6.54667 3.26178,-10.09692 z m -9.87658,-5.31258 c -0.28498,-16.01911 14.4816,-51.26456 -4.51041,-52.91951 -11.22545,16.71141 9.8483,40.17054 -7.41355,54.61781 3.83799,1.28248 8.82611,1.32387 11.92396,-1.6983 z m 93.93178,-14.52105 c -3.32782,-11.13764 -1.50503,8.97561 0,0 z m -235.00536,-7.08344 c -3.29408,-6.45925 -3.0071,6.41377 0,0 z m -192.81037,-7.43761 c -8.9113,-6.58633 2.40298,12.78704 0,0 z m 427.49425,-1.96342 c 13.24284,-29.44616 -19.12682,-3.88662 0,0 z m -8.82543,-1.93247 c -2.93132,-6.4627 -1.71066,5.18561 0,0 z M 120.0607,133.93007 c -6.58869,-3.19401 1.19249,16.33708 0,0 z m -4.16465,-1.9615 c 4.87027,-10.56486 31.10137,-41.191283 13.92949,-36.678802 -4.43286,12.971872 -14.57192,36.499632 -10.28628,8.104532 -1.99078,-30.692454 -12.17923,24.36133 -3.64321,28.57427 z m -3.70512,-6.85814 c -6.57498,8.17781 0.88984,7.35522 0,0 z m 431.4423,3.89589 c -4.40327,-7.34061 -1.41114,9.8425 0,0 z m -197.5675,-5.04695 c -3.93673,2.85399 4.94893,4.13187 0,0 z m -0.84262,-8.8791 c -0.96049,-26.784789 -18.70469,-5.53684 -4.83529,4.91397 l 2.18609,-1.55048 2.6492,-3.36349 z m -6.10552,-0.94918 c -2.94562,-8.48046 7.69119,3.36068 0,0 z m -8.68611,-4.74848 c -6.20247,-12.5307 -22.40056,-39.921474 -27.84095,-38.972269 10.31026,12.257757 11.87016,31.801879 27.84095,38.972269 z m 4.93353,-3.59914 c -4.44251,-3.67607 -0.97388,6.16089 0,0 z m -1.679,-5.62063 c -5.00734,1.04062 1.32973,7.05679 0,0 z m -20.67818,-5.328216 c -6.49585,0.821863 8.08595,7.141756 0,0 z m 18.41802,2.154899 c 2.92631,-13.589759 -14.76756,1.016432 0,0 z M 118.87083,84.180756 c 5.22144,-18.059887 -15.66499,23.314604 0,0 z M 309.432,90.182322 c -2.57489,-11.361239 -8.64281,-5.661079 0,0 z m 28.05831,-5.312156 c -8.56167,-13.617819 5.16627,16.153274 0,0 z M 299.23302,76.25623 c -0.74913,-8.200973 -5.49515,3.7499 0,0 z m 29.90316,-4.777562 c -6.89086,-3.354714 9.9578,10.078305 0,0 z m -187.70336,1.545176 c -8.53447,-5.118903 0.23289,4.141005 0,0 z M 295.93468,68.99896 c -9.20283,-7.232028 3.92261,6.701157 0,0 z m -8.40987,-2.793554 c -14.25005,-10.967098 7.69092,10.07971 0,0 z m -141.43058,-0.71393 c -2.93134,-6.462687 -1.71063,5.185632 0,0 z M 303.6948,62.649414 c -8.1886,3.769051 11.30409,11.63737 0,0 z m -6.08947,-2.95141 c -2.57693,-23.624049 -22.99926,6.021188 0,0 z m 9.61532,-4.158408 C 300.83427,44.012932 285.7026,47.16288 303.57063,54.379891 l 3.65002,1.159705 z m 8.44331,0.03506 c -2.92014,-6.714474 -2.08171,6.143733 0,0 z M 170.41347,48.491221 c 7.37067,-5.889221 -17.91153,5.850834 0,0 z m 84.03652,0 c -2.93134,-6.462679 -1.71063,5.185634 0,0 z m 34.47683,-7.08344 c -3.9637,-6.539887 -3.27948,5.254454 0,0 z m -84.16921,-3.801135 c -8.53445,-5.118884 0.23289,4.140999 0,0 z m -6.59633,-11.782432 c -4.53664,-6.982173 -2.44336,5.950493 0,0 z M 302.64719,488.14292 c 5.97228,-5.0398 2.79972,3.8708 0,0 z m 105.30626,-24.37201 c -4.62253,-9.7374 5.77083,2.57575 0,0 z m -93.69671,-2.93989 c 1.29381,-6.40366 4.40414,4.13885 0,0 z m 55.55905,-10.04286 c 2.84948,-12.37033 10.33624,7.18152 0,0 z m 9.4473,-3.49929 c 0.23229,-9.5691 1.34312,7.62417 0,0 z m -41.35072,-8.50013 c 8.85697,-20.56854 0.2985,16.92692 0,0 z m -23.65563,-0.70834 c 3.29409,-6.45924 3.00711,6.41377 0,0 z"
         id="path9194"
         inkscape:connector-curvature="0" />
      <path
         style="fill:#030303"
         d="m -82.578651,251.07759 c 0,-79.33452 0,-158.669045 0,-238.003567 142.080657,-0.121801 284.154551,1.358475 426.225331,-0.116547 62.83423,0.188047 125.6995,0.489389 188.46612,-0.04007 19.96805,-3.2081953 15.50822,14.864246 15.66273,27.621485 0.0299,149.514085 0.0598,299.028175 0.0897,448.542265 -29.42759,-5.57559 -61.89638,10.06716 -89.17068,-6.24293 -5.22214,-31.56525 -44.52519,-42.74147 -55.28515,-70.9673 -37.15935,-20.17582 -84.08634,5.57777 -101.34486,40.56669 -6.48904,27.14516 -22.25142,45.77403 -51.59489,36.9987 -111.01157,-0.96661 -222.031616,-0.0444 -333.048021,-0.35522 -2.2e-4,-79.33445 4.4e-4,-158.66931 -3.3e-4,-238.00351 z M 77.140558,480.58104 c -2.931311,-6.4627 -1.710656,5.18561 0,0 z m -49.692375,-2.38445 c -8.534436,-5.11886 0.232714,4.14079 0,0 z M 250.22834,463.58078 c -4.53664,-6.98219 -2.44337,5.95049 0,0 z m -7.03609,-1.69961 c 27.71135,-14.83664 66.08188,-24.75868 74.4972,-59.44218 -3.01014,-20.18225 -8.16695,-49.32256 9.06463,-58.38465 -19.00331,-13.25481 -21.1101,21.02225 -23.95055,23.98181 -26.92665,-5.8814 15.93015,8.05824 -0.64834,14.40609 -19.38482,-16.18941 -55.47118,-11.98702 -68.6241,-10.87769 -8.37314,-24.27642 -44.01488,-23.49825 -63.3443,-31.01558 -2.12593,19.98063 2.73645,50.99121 18.67777,68.04506 18.22898,5.18423 -20.18521,0.70993 -6.3009,18.97019 16.20003,14.80397 34.3304,35.02768 60.62859,34.31695 l 0,0 z m 16.183,-26.48258 c 2.62419,-9.2042 6.97522,2.67181 0,0 z m -21.10827,-13.6101 c 3.12306,-6.33355 2.23232,6.46894 0,0 z m -16.77551,-9.79877 c -0.17125,-6.9164 1.86032,4.61524 0,0 z m -27.21624,-3.1131 c -2.88162,-8.23605 6.25939,-2.59237 0,0 z m 23.5871,-4.79673 c 5.27123,-6.54094 4.32235,5.23287 0,0 z m 11.2784,-11.68768 c -9.04043,-29.02913 12.25791,-6.93994 0,0 z m -9.04662,-6.25922 c -6.08279,-8.0281 9.20358,-6.38035 0,0 z m 49.13166,-1.80312 c 1.39421,-8.9538 4.25536,5.55574 0,0 z m -77.39697,-2.20864 c 3.39929,-8.62603 0.91446,6.78433 0,0 z m 96.39441,-0.70835 c 1.57673,-5.46757 2.96031,6.42445 0,0 z m -80.80391,-3.42367 c -0.17123,-6.91639 1.86028,4.61524 0,0 z m 6.92498,-0.0344 c 0.72818,-7.83438 3.38951,5.62402 0,0 z m 3.52801,-2.19242 c 3.09612,-4.10987 3.35553,8.75245 0,0 z m -29.74532,-6.36263 c -0.75753,-9.15937 4.27959,6.02845 0,0 z m 80.54179,81.81455 c -3.93672,2.85398 4.94891,4.13188 0,0 z m -314.395897,-1.35143 c -8.534439,-5.11886 0.232721,4.14078 0,0 z M 160.87001,379.99619 c -2.92016,-6.71446 -2.08168,6.14374 0,0 z m 5.77125,-5.2592 c -6.92328,-3.96729 9.39489,16.44591 0,0 z m -14.46197,-7.67357 c -12.39404,5.2131 11.65852,10.99252 0,0 z m 205.7012,7.26602 c 14.5823,-15.68293 -20.24349,-2.74166 0,0 z m -8.69611,-4.65175 c 3.73916,-12.96216 -9.74763,6.08098 0,0 z m -63.54724,-4.20255 c -4.26867,2.65781 6.47073,7.92589 0,0 z m -46.42633,-3.41796 c -8.41338,-2.11812 2.43098,6.36522 0,0 z m 105.98038,0.23041 c -5.01029,-14.06932 -11.0269,10.37342 0,0 z m -117.33175,-4.57472 c -6.41424,-0.40815 5.7833,7.84165 0,0 z m 105.84001,-0.84711 c -6.85088,-11.1774 -0.91381,13.45465 0,0 z m -59.22616,-1.25475 c 34.86371,-20.30826 77.37422,-47.3847 79.78246,-92.04017 2.23174,-27.32176 -2.88782,-54.56923 -6.58746,-81.51985 -8.05194,-23.64473 -74.80649,1.07348 -50.71622,-32.96615 12.84453,-8.50554 51.95437,20.83605 33.99353,-9.39461 -6.24153,-20.56219 -27.51204,-36.65694 -30.82835,-56.625628 12.18161,12.553368 40.90646,45.247448 47.61805,39.891978 -2.39765,-37.680887 -24.55321,-66.086834 -56.96853,-81.69269 -9.37853,-4.257796 0.3274,11.474549 -6.82081,14.609646 9.2828,3.615824 18.61419,21.961704 2.73819,11.710639 -16.24789,-14.917707 -51.02454,-31.158914 -64.45449,-32.503954 2.36668,28.651364 -36.09739,-5.293505 -52.5758,11.713348 -21.57936,8.660944 35.66215,-3.277633 5.86855,6.263812 -19.44135,14.637787 -42.96053,23.213909 -50.7286,47.887599 -11.86299,30.42758 5.3323,-48.615017 -11.07926,-15.677327 0.98176,20.623827 -14.187099,46.180547 1.4465,58.044337 0.94837,-12.85738 19.64998,-40.2003 13.9398,-11.87719 -3.59431,13.15158 -8.54502,33.94605 3.22706,32.90505 6.76895,26.41922 21.80765,62.83087 -4.69983,80.35684 -6.69676,16.10735 10.39769,36.3598 16.13724,22.79848 13.54674,31.87193 33.77097,68.48983 71.29133,74.15507 19.52958,5.04893 38.34891,20.40891 59.41664,13.96077 z m -48.87126,-63.44947 c 3.96369,-6.5399 3.27947,5.25446 0,0 z m 62.83319,-0.66296 c -1.34305,-10.54853 3.90496,6.54515 0,0 z m -127.56521,-4.35809 c 1.14735,-15.13286 7.3794,1.91876 0,0 z m 133.10716,-6.42115 c -8.16567,-14.46521 12.01963,-37.82755 15.01212,-11.90729 -3.17887,2.31932 -11.11813,21.17109 -15.01212,11.90729 z m 9.28568,-19.276 c -8.53445,-5.11888 0.23271,4.14079 0,0 z m -98.76909,18.67636 c -20.71001,-3.701 6.73587,-35.30561 3.12658,-7.2613 0.64919,-0.35914 0.68936,13.60321 -3.12658,7.2613 z m -0.85417,-11.44938 c 1.9949,-11.47878 -4.76649,6.90118 0,0 z m 21.98398,11.0952 c 1.57819,-11.58845 10.54899,5.47108 0,0 z m 14.75424,-0.27646 c -18.34297,-14.44226 13.535,-3.5567 0,0 z m 0.70361,-2.9947 c -3.85106,-3.63376 -1.12627,6.01168 0,0 z m 9.85052,3.03504 c 5.87002,-18.15228 20.99881,7.75915 0,0 z m -89.13609,-3.58762 c 1.72649,-6.3768 3.18518,7.78724 0,0 z m 114.46601,-1.40522 c 0.72814,-7.83438 3.38952,5.62395 0,0 z m 10.83744,-1.7327 c -6.96997,-13.65398 15.41659,-3.15619 0,0 z m -123.41485,-1.10068 c 0.72816,-7.83438 3.38951,5.624 0,0 z m 30.95879,-0.79196 c 2.75851,-4.93138 1.93075,6.08902 0,0 z m -30.1523,-5.51859 c -5.31683,-6.59907 11.18389,5.57441 0,0 z m -26.08855,-6.43324 c -4.16229,-20.43883 12.45903,12.08543 0,0 z m 31.70501,-2.63032 c 4.3931,-9.64238 0.2116,5.6989 0,0 z m -28.71625,-9.50154 c 1.03229,-7.87655 1.03229,7.87655 0,0 z m 99.63065,-27.51904 c 10.69297,-4.5754 13.72863,4.45226 0,0 z m 31.81315,-0.66628 c 5.7322,-14.21614 11.05959,6.53783 0,0 z m -101.0099,-44.49117 c -14.64565,-34.64307 70.1994,-14.51391 28.31194,1.991 -9.44243,1.53607 -19.0966,0.26833 -28.31194,-1.991 z m 21.86135,-4.96226 c 1.10662,-6.67778 -9.05857,7.2139 0,0 z m 4.25687,-3.88191 c -4.59331,-5.84029 1.74398,7.25302 0,0 z m -63.01632,-54.89665 c 4.39308,-9.6424 0.21164,5.69889 0,0 z m 192.9329,-9.02932 c -7.27275,-6.634979 6.57108,0.53264 0,0 z m -12.8995,-4.72229 c 0.6274,-6.570547 4.85276,7.74898 0,0 z m 2.79921,-11.879669 c -19.21225,-15.484957 12.33179,-15.409067 6.59946,3.318795 4.17481,14.665104 -5.16402,0.158057 -6.59946,-3.318795 z m 18.25119,7.535352 c -2.25704,-7.444826 4.79748,5.434462 0,0 z m -8.24472,-2.172447 c -2.71359,-11.408762 4.09396,5.437129 0,0 z m 2.22861,-6.295118 c -11.71287,-11.450591 5.59744,-4.503564 3.55903,1.166011 l -3.55903,-1.166011 z m -22.77399,0.228908 c 0.33283,-10.397014 5.14109,3.867473 0,0 z m -5.62887,-8.042609 c 3.31463,-5.722239 1.62263,8.058899 0,0 z m 21.52209,-3.91706 c -22.52902,-12.751935 2.84254,-13.467357 0,0 z M 302.999,60.355774 c -21.73223,-17.036586 14.34153,-0.03048 2.76697,3.624642 -0.92232,-1.208214 -1.84465,-2.416428 -2.76697,-3.624642 z m -3.96367,3.412064 c -8.70729,-11.061981 7.50321,4.3257 0,0 z M 195.02435,46.218617 c 4.50922,-5.408953 2.78298,4.021609 0,0 z M 360.69492,355.20415 c -2.3972,-6.81041 -1.86432,8.0411 0,0 z m -211.08265,-11.3335 c -3.60404,-7.48931 -1.53755,6.53634 0,0 z m 29.55157,-14.79161 c -1.39421,-8.9538 -4.25535,5.55574 0,0 z m 210.43301,-35.85498 c -9.972,-10.75817 -1.93148,19.6276 0,0 z m 24.57235,1.77086 c -4.72718,-10.07838 -3.34225,9.72914 0,0 z m -48.44385,-14.94128 c 2.21082,-16.43778 -6.8467,12.81088 0,0 z m -0.80877,-11.85992 c 0.96625,-12.05689 -9.80069,-0.0601 0,0 z m 6.68428,-25.97043 c -4.55308,-5.60517 -2.40245,6.94736 0,0 z M 123.00143,230.20587 c -5.90038,8.6917 6.01485,11.38494 0,0 z m 334.11809,-33.2473 c -1.66139,-20.01239 9.99861,-42.5502 2.55632,-60.83339 8.18918,26.97856 -19.33172,60.60968 -34.34744,63.74678 8.56324,5.54437 26.70541,8.63035 31.79112,-2.91339 z m -7.76988,-9.60155 c 8.69023,-14.70637 7.35447,-77.07875 -10.42207,-45.97801 6.20366,12.32414 -9.61164,54.35301 10.42207,45.97801 z m 91.46915,-15.02366 c -0.67457,-19.34968 -4.38979,18.5019 0,0 z m -427.62855,-8.04672 c -1.66265,-23.65465 -4.29371,18.42184 -0.0118,0.10203 l 5e-5,-4.2e-4 0.0117,-0.10161 z m 192.62319,0.4566 c -3.25478,-11.04933 -5.64984,7.92364 0,0 z m 126.6496,-6.37509 c -0.47459,-8.40565 2.65902,3.06395 -1.0665,1.82782 l 1.0665,-1.82782 z m -314.65308,-12.0302 c -7.14602,6.17859 2.23059,11.415 0,0 z m 426.02613,-5.85961 c 0.50281,-36.43202 -18.34763,34.21889 0.13401,5.89625 l -0.13401,-5.89625 z m -11.58846,6.11852 c -0.64522,-19.63339 -3.7525,20.14502 0,0 z m -99.2726,1.779 c -5.38203,-6.09075 -1.19907,7.82387 0,0 z M 341.92585,96.304438 c -4.12521,2.537216 5.91309,7.217952 0,0 z m -46.5433,-28.68793 c -9.56198,-10.890486 2.56089,11.970887 0,0 z M 150.77192,65.025022 c -12.21051,-10.439522 -5.4543,17.152929 0,0 z m 7.98726,-10.867049 c 3.11518,-4.638498 -13.91786,7.373483 0,0 z m 111.12189,-8.287817 c -5.90516,-0.825013 -0.6657,9.485545 0,0 z m 36.49511,3.187795 c 7.11776,-14.689805 -14.71191,2.960174 0,0 z M 209.2918,38.043148 c -5.26168,-7.861059 -6.21038,4.921769 0,0 z m -11.57028,-7.519941 c -8.53445,-5.118883 0.23289,4.140997 0,0 z m 1.69185,-4.446286 c -5.3608,-16.8425302 -15.26719,10.650714 0,0 z"
         id="path9192"
         inkscape:connector-curvature="0" />
    </g>
  </g>
</svg>
