<?xml version="1.0" encoding="UTF-8" standalone="no"?>
<svg
   xmlns:dc="http://purl.org/dc/elements/1.1/"
   xmlns:cc="http://creativecommons.org/ns#"
   xmlns:rdf="http://www.w3.org/1999/02/22-rdf-syntax-ns#"
   xmlns:svg="http://www.w3.org/2000/svg"
   xmlns="http://www.w3.org/2000/svg"
   xmlns:sodipodi="http://sodipodi.sourceforge.net/DTD/sodipodi-0.dtd"
   xmlns:inkscape="http://www.inkscape.org/namespaces/inkscape"
   sodipodi:docname="wat1.svg"
   height="100%"
   width="100%"
   inkscape:version="0.48.4 r9939"
   version="1.1"
   id="svg2"
   viewBox="0 0 512 512"
   inkscape:export-filename="C:\Users\Chris\Documents\GitHub\bot-game\assets\forest_spirit.png"
   inkscape:export-xdpi="12.832031"
   inkscape:export-ydpi="12.832031">
  <sodipodi:namedview
     pagecolor="#ffffff"
     bordercolor="#666666"
     borderopacity="1"
     objecttolerance="10"
     gridtolerance="10"
     guidetolerance="10"
     inkscape:pageopacity="0"
     inkscape:pageshadow="2"
     inkscape:window-width="1185"
     inkscape:window-height="1030"
     id="namedview44"
     showgrid="false"
     inkscape:zoom="0.71191406"
     inkscape:cx="184.93194"
     inkscape:cy="396.27449"
     inkscape:window-x="100"
     inkscape:window-y="100"
     inkscape:window-maximized="0"
     inkscape:current-layer="svg2" />
  <metadata
     id="metadata48">
    <rdf:RDF>
      <cc:Work
         rdf:about="">
        <dc:format>image/svg+xml</dc:format>
        <dc:type
           rdf:resource="http://purl.org/dc/dcmitype/StillImage" />
        <dc:title></dc:title>
      </cc:Work>
    </rdf:RDF>
  </metadata>
  <defs
     id="defs46">
    <linearGradient
       id="linearGradient3926">
      <stop
         id="stop3928"
         offset="0"
         style="stop-color:#ffffff;stop-opacity:0;" />
      <stop
         style="stop-color:#ffffff;stop-opacity:0.49803922;"
         offset="0.5"
         id="stop3934" />
      <stop
         id="stop3930"
         offset="1"
         style="stop-color:#ffffff;stop-opacity:0;" />
    </linearGradient>
    <filter
       id="filter3108"
       x="0"
       y="0"
       width="1"
       height="1"
       inkscape:label="Lightness-Contrast"
       inkscape:menu="Color"
       inkscape:menu-tooltip="Increase or decrease lightness and contrast"
       color-interpolation-filters="sRGB">
      <feFlood
         id="feFlood3110"
         result="result1"
         flood-opacity="1"
         flood-color="rgb(0,0,0)" />
      <feBlend
         id="feBlend3112"
         in2="SourceGraphic"
         mode="normal"
         result="result2" />
      <feComposite
         id="feComposite3114"
         in2="SourceGraphic"
         k2="1"
         operator="arithmetic"
         result="result3" />
      <feComposite
         id="feComposite3116"
         in2="SourceGraphic"
         operator="in" />
    </filter>
    <filter
       id="filter7264"
       inkscape:label="Fluorescence"
       inkscape:menu="Color"
       inkscape:menu-tooltip="Oversaturate colors which can be fluorescent in real world"
       x="0"
       y="0"
       width="1"
       height="1"
       color-interpolation-filters="sRGB">
      <feColorMatrix
         id="feColorMatrix7266"
         type="hueRotate"
         values="0" />
      <feColorMatrix
         id="feColorMatrix7268"
         type="saturate"
         values="1" />
      <feColorMatrix
         id="feColorMatrix7270"
         type="matrix"
         values="2 -1 0 0 0 0 2 -1 0 0 -1 0 2 0 0 0 0 0 1 0 " />
    </filter>
    <filter
       id="filter7746"
       inkscape:label="Fluorescence"
       inkscape:menu="Color"
       inkscape:menu-tooltip="Oversaturate colors which can be fluorescent in real world"
       x="0"
       y="0"
       width="1"
       height="1"
       color-interpolation-filters="sRGB">
      <feColorMatrix
         id="feColorMatrix7748"
         type="hueRotate"
         values="0" />
      <feColorMatrix
         id="feColorMatrix7750"
         type="saturate"
         values="1" />
      <feColorMatrix
         id="feColorMatrix7752"
         type="matrix"
         values="2 -1 0 0 0 0 2 -1 0 0 -1 0 2 0 0 0 0 0 1 0 " />
    </filter>
  </defs>
  <rect
     style="opacity:0.98999999;fill:#0a0000;fill-opacity:1;fill-rule:nonzero;stroke:none"
     id="rect3171"
     width="516.97894"
     height="518.513"
     x="1.7468045"
     y="2.4831297" />
  <rect
     y="319.66696"
     x="-94.752312"
     height="57.982758"
     width="76.367531"
     id="rect3156"
     style="opacity:0.98999999;fill:#ffffff;fill-opacity:1;fill-rule:nonzero;stroke:none" />
  <g
     id="g11396"
     transform="matrix(1.0646812,0,0,1,-18.780062,-28.093278)">
    <path
       style="fill:#9f8c41"
       d="m 266.44531,432.08648 c -0.74772,-8.44749 -25.26467,5.62735 -27.45783,-4.41371 10.70356,-2.98118 -2.67243,-4.01922 -2.20363,-3.98145 -4.61501,-5.22535 -8.1293,10.94763 -16.74389,3.37216 -2.11121,-9.28117 -10.71433,-17.29768 5.14955,-15.68596 19.64818,-0.39236 39.37417,0.77709 58.9075,2.7592 -9.25574,5.17123 -9.08146,15.67542 -17.6517,17.94976 z M 235.92005,265.43795 c -7.0177,-5.31985 -6.24695,-17.00475 3.65401,-10.51652 -1.97987,1.15159 -0.48632,17.33734 -3.65401,10.51652 z"
       id="path11383"
       inkscape:connector-curvature="0" />
    <path
       style="fill:#886e2b"
       d="m 234.88011,506.06386 c 5.83923,-3.2276 -2.65584,3.43918 0,0 z m 8.90503,-0.37591 c 4.23968,-5.05995 -0.39332,4.89271 0,0 z m 3.36163,0.5 c 2.69252,-4.02999 2.35666,3.89339 0,0 z m 3,0.0338 c 5.10707,-8.39751 15.95599,3.60024 1.42168,0.42301 l -1.42168,-0.42301 z m -29.5,-55.83906 c -7.8286,-5.70988 -11.15146,-21.37879 -12.23403,-30.32373 3.63252,-4.77314 -8.93235,-13.78682 5.42709,-10.79903 24.69083,-0.27733 49.31931,1.26856 74.01454,1.31087 9.07649,0.0703 -1.69323,9.758 1.8186,13.20276 -13.58422,2.24274 -9.73861,29.32411 -29.29416,24.27949 -13.08435,1.86232 -26.5795,2.05083 -39.73204,2.32964 z m -0.5,-8.75376 c -2.77952,-1.90999 -1.95951,3.53544 0,0 z m 51.46778,-12.44098 c 1.16125,-6.72688 21.34365,-18.17496 3.00586,-16.04682 -19.99528,-0.27125 -41.23992,-5.02205 -60.47364,0.61353 2.8789,8.90486 12.91867,23.14239 18.88872,8.59211 5.53253,-0.87486 2.79346,5.42631 9.39343,0.66038 3.51004,6.16074 -11.41116,5.69955 2.44247,7.74235 9.08048,1.9587 20.91394,-3.53713 23.46354,0.45885 l 1.20964,-1.49714 2.06998,-0.52326 0,0 z m -84.46778,-71.38364 c 6.50986,-7.60955 17.87332,-18.79656 24.5398,-10.05582 6.15095,-8.86136 38.83003,0.52909 17.2411,4.1369 -14.21003,-2.34583 -29.10945,7.86826 -41.7809,5.91892 z m 56.53422,-1.56099 c 0.34507,-8.79238 9.50808,2.61164 0,0 z m 8.46578,-4.43405 c 1.57784,-12.52117 44.66691,-2.1748 18.21719,-0.2345 -6.07105,-3.0084 -17.52101,7.21568 -18.21719,0.2345 z m -12,-64.10539 c -6.39534,-13.61834 -25.21797,-41.34608 4.13789,-36.23524 5.49189,7.99492 -2.46512,25.87633 -1.4913,37.47533 -0.9721,0.6064 -2.60172,0.0453 -2.64659,-1.24009 z m -2.22598,-24.51546 c 9.57516,-13.42728 -15.66085,-11.43349 -4.1938,-1.65826 0.36344,1.37599 6.07214,11.08154 4.1938,1.65826 z m 45.885,10.71341 c 5.8237,-9.29359 -14.9932,-19.58006 -8.38255,-22.2746 12.82712,-3.88286 14.89523,32.18202 8.38255,22.2746 z m -85.34954,-13.3498 c 3.38802,-18.10133 8.72287,4.72664 0,0 z"
       id="path11381"
       inkscape:connector-curvature="0" />
    <path
       style="fill:#675119"
       d="m 222.14677,506.49954 c 8.26862,-13.63833 27.82077,-18.89531 41.00743,-12.706 19.02124,3.46655 3.41786,20.22691 -4.52149,11.94262 -2.60191,-5.82005 -13.59749,3.47952 -14.84757,-0.0483 -8.03459,1.2272 -7.13937,0.37356 -21.63837,0.81164 z m 52.00317,-0.9798 c -3.92131,-10.89388 16.85705,5.98771 1.11877,0.85548 l -1.11877,-0.85548 z m -62.00317,-52.21608 c -13.56538,-5.05128 -10.80098,-25.6102 -12.28427,-38.4354 -3.19633,-9.55036 4.4299,-8.63511 11.54807,-8.21117 17.39421,-0.58466 35.37708,0.97212 52.27553,-1.53277 11.02639,0.52573 27.07685,1.9597 35.81858,5.0027 -7.06169,13.50522 0.34872,42.18772 -23.55091,39.63916 -21.02209,3.35088 -42.57523,3.89061 -63.807,3.53748 z m 31.5,-3.72884 c 15.79801,-0.46252 33.724,-0.32687 37.96365,-17.82955 1.02289,-10.26402 11.20107,-5.97272 8.36823,-15.32121 4.013,-12.08697 -22.64223,-3.74305 -31.36566,-6.26053 -17.58243,-0.28131 -35.46322,-2.20389 -52.88578,-0.10568 5.84474,8.97506 -0.3283,18.38393 8.32468,28.32223 -2.91919,18.72818 19.35949,10.10712 29.59488,11.19474 z m -25.5,-7.32785 c 2.15095,-3.62489 2.78409,2.21242 0,0 z m -45.80166,-79.65732 c 7.5865,-6.65857 25.45559,-17.73984 37.70872,-24.86628 16.41746,-4.06828 32.86308,7.67949 49.72054,3.29684 16.6165,-6.68776 35.58842,1.93761 46.97786,12.92497 -19.19433,-5.19562 -39.1598,-1.43256 -57.85352,3.40504 -19.49294,-3.87879 -39.27115,-5.78235 -57.84286,4.21291 -5.95495,2.06236 -12.63443,3.56652 -18.71074,1.02652 z m 22.00461,-4.32127 c 12.33052,-8.65957 35.49688,-0.89892 42.48019,-11.71789 -11.97752,-4.60709 -26.72102,1.78023 -33.26732,-1.6321 -3.99442,1.40208 -27.92151,17.4123 -9.21287,13.34999 z m 53.60889,-3.34191 c -4.92657,-7.3441 -6.51077,7.71882 0,0 z m 7.82653,-1.23852 c 5.85392,-1.86626 37.20883,-3.73133 16.47041,-6.95697 -3.50481,-2.58215 -31.68746,1.36875 -16.47041,6.95697 z m 85.84592,0.42849 c -1.49061,-8.86902 3.85119,-0.0684 1.67462,3.07151 l -0.90442,-0.90226 -0.7702,-2.16925 z M 238.37595,298.28406 c -3.18559,-16.53397 -15.42997,-31.52353 -21.42871,-44.218 14.99348,-8.90329 34.36666,-5.66288 51.2174,-8.85425 18.04931,-2.98184 37.33369,31.0211 15.35732,37.74006 -5.31774,-5.87038 -1.27034,-36.36198 -21.81462,-26.12153 -10.31166,2.95177 -19.15482,14.13976 -2.2042,13.91516 7.94753,12.86394 -21.18251,1.32108 -10.67088,16.494 1.29294,6.84808 -1.78279,20.23532 -10.45631,11.04456 z m 5.48926,-15.34548 c -2.06138,-13.4609 12.44247,-39.51372 -12.43366,-30.51503 -12.13857,7.30204 7.26346,28.7888 11.3618,36.52042 1.43884,-1.62142 0.58999,-4.14869 1.07186,-6.00539 z m 42.69953,-8.00063 c 9.71296,-9.52508 -13.80051,-30.85011 -11.97392,-20.38937 9.74078,2.32781 7.69974,25.03924 11.97392,20.38937 z m -87.1373,3.67807 c -16.42703,-6.99891 1.09214,-40.82061 10.35036,-24.9152 -16.83001,5.11167 7.15042,32.96749 -10.35036,24.9152 z m 3.07698,-20.05188 c 2.50289,-14.23173 -9.24499,11.32606 0,0 z"
       id="path11379"
       inkscape:connector-curvature="0" />
    <path
       style="fill:#4e330a"
       d="m 208.32662,506.50229 c 2.43381,-15.43327 22.61465,-17.00279 35.7678,-21.33065 18.49415,-6.13227 35.5931,5.08164 46.8314,18.61235 8.30774,8.03155 -14.57388,0.66565 -17.25717,-2.03151 0.11183,14.06662 -1.78919,-13.30373 -11.84731,-8.97023 -15.09945,-5.47805 -31.63189,3.19304 -42.56495,14.30892 -3.64412,0.0229 -7.33207,0.10382 -10.92977,-0.58888 z m 59.82015,-0.31434 c 1.49294,-3.1602 2.25683,3.43448 0,0 z m 7.73097,0.34406 c 14.02957,-0.57475 -2.50683,1.27181 0,0 z m -60.73097,-48.09418 c -23.24668,0.23372 -21.79863,-24.49679 -20.8763,-41.33921 -2.09604,-22.37126 30.72996,-14.50562 45.35054,-13.88369 16.17951,2.12519 34.81433,-7.51171 49.45751,1.09329 9.58007,0.80863 18.81973,-0.0745 12.8759,11.94333 3.28133,16.13628 -0.32971,35.4692 -20.57516,36.41573 -19.03503,2.34118 -38.61636,1.42091 -57.20502,6.86986 -3.04794,0.0298 -6.04336,-0.57267 -9.02747,-1.09931 z m 32,-5.78631 c 15.16376,-3.69111 44.08696,4.4068 46.58249,-16.96357 0.59766,-8.38843 7.67973,-24.12559 2.43277,-27.7719 -19.04808,-1.83717 -36.04402,-3.52023 -55.12953,-1.46667 -13.79523,0.0974 -27.59048,0.19326 -41.38572,0.29006 0.47393,12.37419 -0.35813,25.1168 4.25967,36.78857 2.97555,18.71593 30.16398,6.52944 43.24033,9.12351 l -1e-5,0 z m -89.55731,-88.71357 c 0.42563,-11.688 13.69173,-22.40122 19.90157,-10.09892 17.27162,-4.77102 31.17833,-24.89423 51.17582,-19.47466 18.21762,8.35685 36.69259,-9.55247 54.18492,3.10158 6.87175,5.11139 33.52631,14.4519 27.61304,18.47031 -5.92588,-2.55543 -32.77595,-4.19715 -27.61605,-4.32919 8.34346,-2.02204 36.10835,6.75168 15.26812,-3.95897 -16.30135,-14.72572 -36.5105,-6.01908 -55.4659,-5.87533 -19.20574,-8.52533 -39.01695,-5.80844 -54.30138,9.56892 -6.10826,6.43712 -28.02118,11.44683 -6.74811,12.51624 7.62561,-1.2626 29.43385,-8.587 9.77681,-1.27402 -10.39687,0.86441 -27.59485,9.68424 -34.13299,4.84866 l 0.34414,-3.49466 1e-5,4e-5 z m 188.05731,3.25 c -5.60187,-6.26826 -24.50394,-0.74132 -20.17657,-16.42758 6.06094,1.63084 22.77356,-9.4341 13.17658,-12.57238 -10.54921,-3.20416 -3.94144,-24.80579 3.36855,-9.64116 9.97281,10.36651 11.20346,29.0413 9.31768,37.22866 -1.67183,1.45121 -3.37915,6.33599 -5.68624,1.41246 z m -2.03735,-13.25 c -3.98319,-12.28472 -0.45212,10.57744 0,0 z m -105.03353,4.27566 c -5.78813,-3.18321 -31.99099,-5.42594 -13.45251,-4.82825 6.90111,3.74276 26.6733,3.75513 27.61792,4.7454 -4.69422,0.50665 -9.46946,0.63328 -14.16541,0.0829 z m 20.07088,-3.02566 c 12.63745,-4.49976 3.18562,0.45141 -1.81031,1.40499 l 1.81031,-1.40499 0,0 z m -47.25,-0.68933 c 8.57466,-0.97291 0.36821,1.61039 0,0 z m 61.98834,-1.99775 c 9.67545,-0.48205 0.41432,1.3466 0,0 z m -37.73253,-52.75494 c -6.35337,-6.80178 -5.22902,-20.55093 -17.89693,-16.25363 -17.56594,3.79698 -34.25276,-12.97936 -25.67664,-30.09419 8.59223,-18.66349 31.188,-4.68784 46.70007,-8.98261 17.87325,-0.60521 40.71206,-8.0338 52.7063,10.14982 16.8404,18.19325 -6.44021,35.30994 -24.80944,31.05075 -23.14027,-10.16682 -3.12636,32.18901 -31.02336,14.12986 z m 10.15199,0.83584 c 8.25158,-8.56791 -6.59484,-28.42031 13.97055,-23.09205 6.52609,-11.14787 -23.84258,-7.65818 -3.9309,-17.57809 7.72422,-5.49867 15.89612,-5.21997 3.20328,-0.0815 -13.95912,7.85506 7.39414,0.81611 5.95088,13.36159 14.5272,23.34815 14.35787,-19.16881 8.52561,-17.46524 11.86648,6.81148 0.89983,40.41907 19.35226,20.91862 4.09475,-19.84215 -17.0298,-37.96216 -36.22948,-30.46462 -11.65746,3.95014 -37.02852,-1.78237 -39.44231,11.08341 12.64714,12.21753 15.23226,30.71206 24.88037,43.91045 l 3.71974,-0.59253 0,0 z m -38.6578,-21.18238 c -10.86456,-9.51071 3.57116,-22.94783 1.00782,-28.34257 -18.06114,-10.64932 -21.46209,34.83642 -1.00782,28.34257 z m 9.97235,-2.19175 c 19.20337,-10.49383 -15.92389,-33.61104 -9.6864,-8.99951 0.26874,3.91688 4.23283,14.86076 9.6864,8.99951 z M 399.14678,129.18795 c 3.68219,-4.02435 3.83641,3.91193 0,0 z m -5,-6.73045 c 4.76209,-12.8194 6.80609,6.51638 0,0 z m -8.4035,-6.75951 c -2.4865,-7.65759 12.09491,3.68338 0,0 z"
       id="path11377"
       inkscape:connector-curvature="0" />
    <path
       style="fill:#302904"
       d="m 201.74892,501.11331 c 2.11253,-17.47414 23.61771,-19.42507 38.89879,-20.92613 17.96821,-7.83726 36.57722,1.55698 51.22826,11.83545 9.12465,2.60566 17.55479,21.93501 1.82085,13.43379 -12.63063,-11.47428 -27.27821,-26.55585 -46.43074,-20.78974 -14.42162,4.19235 -34.05533,5.22783 -39.47719,21.09106 -0.10079,3.40986 -9.62196,1.94037 -6.03997,-4.64443 z m 1.51974,-15.82887 c -2.20866,-8.20573 8.5021,2.75236 0,0 z m 14.37811,-22.09649 c -18.71208,1.38017 -34.34575,-11.3722 -29.36882,-31.05873 -0.35054,-9.11409 0.55877,-24.66636 2.7746,-29.94127 8.68769,1.17468 26.00233,-4.69911 26.59422,-1.11112 -14.54022,0.70974 -28.47826,4.06347 -23.51563,22.08939 -3.02245,18.52682 4.04383,37.56213 25.8863,35.97851 18.10959,-2.16448 36.42981,-5.44095 54.86543,-5.74444 20.99497,1.86806 31.85285,-16.03128 27.64376,-34.3812 -0.70874,-8.31034 4.33941,-16.99302 -9.12089,-13.72735 -8.25797,-0.47915 -15.40667,-10.08557 -2.33973,-2.67688 8.51696,2.52675 20.13736,-2.5184 16.56082,10.69581 -3.97759,12.37642 10.78418,28.55845 -2.70592,35.45718 -2.49741,8.01375 -20.73108,6.95041 -31.88678,10.45417 -17.90211,-1.21715 -34.2779,0.84555 -51.94876,4.60104 l -3.4386,-0.63515 0,4e-5 z m 25.25,-59.66228 c 6.22279,-0.992 0.0776,1.73023 0,0 z m -11.75,-1.33772 c -18.15832,-1.38731 15.12506,-0.52876 5.45518,0.53363 l -2.33862,-0.22235 -3.11656,-0.31128 0,0 z m 18.75,0.33772 c 6.22279,-0.992 0.0776,1.73023 0,0 z m 8.52083,-0.94189 c 4.93302,-1.70771 0.71452,2.05759 0,0 z m 7.47917,-1.12804 c 12.67076,-0.60172 9.18438,0.94619 -0.50468,0.27035 l -0.47481,-0.12172 0.97949,-0.14863 z m 84.75001,-18.26779 c -13.30904,-5.64829 -20.42077,-27.58519 -38.58289,-24.55875 -9.59343,-1.75611 -12.35238,-4.11188 -0.96942,-1.76899 3.39186,-4.79816 -20.96305,-13.07621 -28.2427,-18.39427 -14.12957,-12.03061 -36.72455,3.20023 -46.95827,-1.83887 19.02305,-1.04383 39.26136,-9.28783 56.15263,5.5373 10.4774,5.68813 25.42164,17.45392 31.19886,1.35394 7.11405,-10.03648 10.6075,-27.997 7.31953,-39.7768 10.92436,7.05363 16.75339,22.94373 23.91696,34.51271 4.05103,14.218 9.62426,34.34503 -0.73327,45.88172 l -1.84144,-0.10526 -1.26003,-0.84273 4e-5,0 z m -0.5,-15 c 6.3578,-3.79548 -1.62786,-11.65715 1.48189,-19 -0.12323,-9.6831 -19.74262,-37.73434 -18.17929,-15.64026 11.25777,7.8985 9.15007,9.47935 -0.0219,17.78241 -18.72171,-3.77799 -1.61578,20.04541 7.07952,13.10781 2.97117,0.40696 7.39667,9.32484 9.63976,3.75004 z m -201.72463,4.25 c -2.308,-15.45374 14.37151,-36.67804 28.95327,-27.6134 2.30038,18.07579 32.98303,-14.23911 29.1888,-6.29861 -12.38528,8.75879 -28.65652,19.81565 -38.06063,11.36826 -12.22723,1.05 -17.29304,31.14932 0.53988,18.17659 8.71437,-1.91042 25.8091,-2.69165 7.07582,0.0721 -9.68605,-3.43316 -29.73613,30.36766 -27.69714,4.2951 z m 46.72463,-10.25 c 7.80324,-3.58796 -3.08334,3.35011 0,0 z m 5,-2 c 7.80324,-3.58796 -3.08334,3.35011 0,0 z m 49.25,-0.68933 c 8.57468,-0.97291 0.36819,1.61039 0,0 z m -44.25,-1.31067 c 7.80324,-3.58796 -3.08334,3.35011 0,0 z m 54.44113,-1.44483 c 9.73599,-5.0395 -4.80998,4.07985 0,0 z m -50.1703,-0.15934 c 4.93303,-1.70772 0.7145,2.0576 0,0 z m 59.47917,-2.10156 c 10.04966,-0.5826 1.7684,1.33181 0,0 z m 27.52083,0.10156 c 4.93303,-1.70772 0.7145,2.0576 0,0 z m -15.52083,-1.10156 c 10.04966,-0.5826 1.7684,1.33181 0,0 z m 9.5,0.0164 c 8.57468,-0.97291 0.36819,1.61039 0,0 z m -78.25,-18.31067 c 9.61681,-3.75526 -2.97997,3.27412 0,0 z m 16.58894,0.2556 c -8.92939,-1.76401 -16.37589,-2.50324 -3.19174,-1.7833 1.1508,-1.20096 9.98942,4.42308 3.19174,1.7833 z m 8.88251,-30.54104 c -6.74448,-9.62361 -19.26824,-22.20097 -27.14039,-20.15551 7.53735,0.68087 19.47372,-4.17375 20.08647,7.27183 3.26779,19.44858 28.72305,13.4115 24.69362,-4.93205 3.80823,-1.90602 31.40447,-0.31329 22.13088,-0.36472 -16.56755,-3.60407 -19.55746,12.46569 -29.5014,19.34904 -3.44232,0.17993 -7.01613,0.13805 -10.26918,-1.16859 z m 87.77855,-9.37684 c -5.14336,-10.37469 8.39389,-0.37365 0,0 z m -42.97917,-9.94189 c 4.93303,-1.70772 0.7145,2.0576 0,0 z m 44.72917,-1.00424 c -11.55671,-1.66438 1.82222,-7.58889 0.5,1.60841 l -0.5,-1.60841 0,0 z m -131.38512,-4.47989 c -7.74412,-9.11875 -5.65578,-10.8221 1.00715,-0.12001 l 2.26283,2.17663 -3.26998,-2.05662 z m 73.60191,0.5276 c -8.03223,-11.49173 -4.15611,-3.19847 4.13683,-0.48985 7.32735,-5.12122 -1.11279,5.79344 -4.13683,0.48985 z m -57.87716,-2.1893 c 12.15704,5.19086 6.9577,-22.38006 7.64721,-16.42784 9.32021,3.92654 -1.32406,21.80363 -7.64721,16.42784 z m 84.13469,-2.20034 c 6.71761,-22.34304 -20.60818,-38.32631 -40.21725,-32.10343 -17.91804,2.18197 -36.04409,1.7604 -53.88647,0.59631 -12.87983,1.4143 -12.85027,37.67952 -11.73871,12.39876 6.56626,-26.13489 32.29435,-10.6429 50.36811,-13.97359 16.40687,-0.0142 36.78233,-7.22208 49.01067,7.72328 9.45214,4.07989 10.07099,30.69778 6.46365,25.35867 z m -18.15425,-6.04966 c 0.55562,-13.22545 0.52214,13.25487 0,0 z m -70.24112,-0.41667 c 0.42737,-4.34507 0.92377,3.74279 0,0 z m 54.10086,-3.66701 c -9.97633,-0.31837 -8.07401,-2.28966 1.02112,-6.82788 -5.52505,1.46277 4.67726,12.5699 -1.02112,6.82788 z m -53.25914,-7.16632 c 9.81297,-1.47624 7.85889,-0.20927 -0.83088,1.20707 l 0.83084,-1.20707 4e-5,0 z m 59.35016,-2.35417 c 4.93303,-1.70772 0.7145,2.0576 0,0 z M 156.79667,165.18795 c 9.36486,-8.96975 10.96258,6.0949 -0.98776,2.5578 l 0.98776,-2.5578 z m 184.60011,0.34923 c -4.11329,-5.8848 10.34953,1.49693 0,0 z m 58.58088,-31.68925 c -8.98898,-10.65929 -24.16737,-18.14554 -32.48386,-26.30005 -13.45171,5.95488 1.45536,-11.99355 -10.52395,-0.96417 -2.69953,-2.07713 -6.96677,-13.90404 -13.02427,-3.34547 -7.69439,-5.153332 -16.84524,18.87299 -12.98118,2.48075 -11.05299,-21.553176 16.89855,-13.318709 26.02963,-13.447767 11.40769,3.915681 25.60495,2.465521 34.15275,10.808317 11.55924,3.15332 33.40483,24.36722 15.17206,33.01927 l -3.2189,-0.69357 -3.12228,-1.55731 z m 2.16912,-4.65998 c -3.68219,-4.02435 -3.83641,3.91193 0,0 z m -3.18358,-8.25 c -3.71011,-9.88334 -7.2045,11.1137 0,0 z m -8.31642,-5.75 c -8.65739,-8.07429 -6.23862,6.54964 0,0 z m -282.5,9.08179 c -2.67309,-10.48904 16.53247,-5.47936 1.70317,0.74948 l -1.23655,0.12013 -0.46662,-0.86961 0,0 z m 221.20267,-2.93537 c -0.0203,-7.46119 23.93135,-3.14659 6.19327,-0.83171 -2.09766,0.35768 -4.00586,3.03602 -6.19327,0.83171 z m -163.536,-1.81309 c -0.5453,-6.47315 8.68822,2.7904 0,0 z m -48.46667,-4.53333 c -4.17819,-11.37906 15.31459,4.23024 0,0 z m 48.25888,-5.86653 c -0.2616,-5.43645 6.55093,3.34039 0,-3e-5 l 0,3e-5 z m -1.64583,-8.43347 c -23.50866,-8.359467 31.91423,-9.03929 5.86351,2.03356 -2.15066,1.02619 -4.6514,-0.19563 -5.86351,-2.03356 z"
       id="path11375"
       inkscape:connector-curvature="0" />
    <path
       style="fill:#261801"
       d="m 188.15587,505.69891 c -3.48128,-10.2888 -1.57712,-24.09507 1.40428,-31.05544 -13.83765,-7.69648 -15.83581,-24.37723 -25.36368,-35.48011 7.87843,-11.36056 22.97156,-21.47246 20.4326,-38.32792 15.26395,-4.72175 37.14657,-7.29037 54.75017,-3.49698 15.56961,-0.3665 31.92159,-2.93595 48.97777,-1.78077 15.57334,0.76741 27.69436,7.77585 27.72209,24.9905 0.79188,13.52405 16.90356,11.94403 8.32898,24.39815 6.79459,13.21337 -20.55169,18.18744 -28.87282,25.27443 -6.78335,-10.3335 -7.79597,0.31003 -7.87493,4.96718 6.41468,7.04063 18.46043,-1.07377 16.02526,9.64179 9.88523,0.66095 19.07029,23.65379 6.17651,22.35821 -12.83336,-1.4671 -16.39405,-22.60196 -32.7737,-23.26134 -16.01851,-14.18788 -35.10575,-0.88624 -53.03361,-1.87096 -14.9504,1.68383 -22.05009,13.10401 -24.93928,24.90667 -3.59022,0.0847 -7.75985,0.93911 -10.95964,-1.26341 z m 18.25533,-20.10873 c 0.75353,-8.22175 -9.33227,0.99943 0,0 z m 78.39763,-15.65223 c 2.76908,-14.32979 -16.39656,6.85522 0,0 z m -56.09031,-6.72174 c 18.53901,-9.03178 37.16253,0.50776 56.28836,-6.49866 11.82747,-1.57255 17.37311,-2.48005 21.96786,-10.25868 9.2567,-7.03198 -2.84291,-23.54538 0.61321,-35.37062 3.21406,-13.59794 -15.27065,-3.81253 -22.04592,-10.73042 -21.60269,-1.09156 -43.064,4.30316 -64.67011,0.50419 -8.90277,-0.76153 -26.98922,-0.68664 -31.39555,3.3895 0.52453,16.17873 -4.86587,34.50048 2.22195,50.59822 10.16741,7.79992 24.82443,9.418 37.0202,8.36647 z m 82.42826,24.53076 c 2.52248,-3.91597 2.75406,2.10212 0,0 z m -3,-14.14235 c 3.27648,-7.5131 3.03503,8.52919 0,0 z m 27.39301,-35.99846 c -2.27105,-12.89805 8.38498,6.96612 0,0 z m 14.84468,-8.44443 c -2.87801,-13.13159 -0.7661,-29.08812 -9.53101,-42.66092 -1.53334,-24.99113 -28.57585,-28.53746 -48.09869,-32.08554 -18.95665,-3.35001 -35.76449,7.64427 -54.26615,4.94874 -18.97018,-9.09845 -37.62879,2.31729 -55.84237,7.94691 -24.06226,-4.54461 -19.82804,35.01942 -39.65772,32.80019 -10.08017,-14.00563 -5.28221,-37.10224 -2.63409,-53.86171 7.12479,-7.80331 12.0499,-20.03859 18.57421,-28.38119 9.04791,3.20723 3.76974,15.76273 16.6718,13.93371 11.05878,1.65388 7.3745,21.54269 20.33173,7.87681 15.80166,-13.49114 35.09164,-8.40001 53.52461,-8.42885 19.56798,-8.87262 38.19283,5.35282 55.18998,13.47465 16.25091,11.49774 5.24449,-20.30948 17.63996,-16.05981 5.86298,-18.54767 -2.96561,-35.89281 -5.52888,-53.90362 -8.51948,-14.57829 5.87982,-32.7548 13.56696,-12.76995 4.03988,10.98548 22.64483,10.3408 28.65059,23.00329 6.25061,8.49642 19.06984,0.71774 16.25572,15.44396 -2.18707,4.24043 1.65285,18.04575 -7.18115,10.38139 -4.28163,4.42027 -3.64142,3.56895 -9.41714,0.0886 2.83943,9.24988 -12.83137,-9.16418 -5.01961,6.59429 11.74265,12.72722 12.08971,28.44267 14.71411,43.17005 -0.73979,16.37816 1.95509,30.59534 -0.83527,46.76519 -8.03462,3.50226 -2.39519,32.40048 -17.10759,21.72378 z m 6.33154,-47.72378 c 6.01829,-18.47128 1.30811,-39.07618 -7.80811,-55.29642 -5.38782,-4.35657 -14.1116,-28.7882 -18.35613,-20.4179 2.47854,10.82188 0.58098,31.47981 -9.92111,38.11288 -9.2302,19.66565 -31.30148,-10.42818 -46.06611,-10.70488 -18.68286,-3.17527 -36.99101,6.34568 -55.79261,-0.51522 -14.40049,-1.83773 -35.23369,29.21369 -42.28355,10.02604 -16.95494,-5.82562 -30.92579,15.52527 -28.02297,31.7308 2.4405,19.4826 19.20099,-13.16618 30.46205,-7.45131 18.84901,-3.87597 37.69013,-18.64304 57.20925,-9.09215 19.5689,4.56824 37.75816,-8.90055 57.76022,-4.34868 18.89528,3.38147 38.28589,5.57314 49.4712,23.51354 1.78885,4.05341 9.67629,8.12188 13.34787,4.4433 z m 15.10973,-85.64423 c -11.11442,-7.97032 0.52118,9.15746 0,0 z m -43.69427,-2.35577 c -3.10713,-12.2913 -6.68763,6.52391 0,0 z m 0.0153,-10.21482 c -4.02111,-7.76688 -9.85087,0.0329 -1,0.35641 l 0.5,1.60841 0.5,-1.96482 0,0 z m -185,121.96482 c 2.69252,-4.02999 2.35666,3.89339 0,0 z m 15.48037,-97.03176 c 0.76879,-8.30299 9.05667,3.39417 0,0 z m 77.54019,-2.03194 c -10.03345,-13.11492 -22.32187,-21.15908 -38.98499,-24.82214 -16.93692,-11.06833 -11.09503,-38.57254 6.75202,-45.49654 18.69343,3.10367 37.88256,2.09151 56.89363,1.89806 8.15413,0.81181 17.65749,-2.65087 23.93054,4.12042 15.62806,8.72314 22.09495,35.09753 2.77799,43.38107 -16.76229,0.0842 -27.26035,7.98798 -35.66428,20.90455 -5.07579,1.18136 -10.61353,1.09357 -15.70491,0.0146 z m 16.92352,-3.87644 c 2.73709,-25.6 36.92404,-7.3906 44.07926,-28.8291 4.25968,-20.34386 -18.68533,-37.64814 -37.85471,-32.52081 -17.71164,1.02904 -35.85635,3.62469 -53.12973,-1.70995 -20.32425,4.46202 -24.32895,39.21569 -1.9601,43.75298 14.9319,0.13368 24.36618,6.85363 31.16096,19.54808 4.95641,2.90392 13.42181,4.68765 17.70432,-0.2412 z m 14.04371,-26.30986 c -11.5187,-9.44653 -2.3868,-28.57303 9.14513,-14.86838 1.6753,6.55052 2.09248,26.44559 -9.14513,14.86838 z m 6.44078,-4.32143 c 10.13013,-14.57407 -18.0184,-20.20567 -6.66054,-2.46661 0.43156,2.88643 4.43234,5.80357 6.66054,2.46661 z m -63.83966,3.32143 c -10.76857,-14.86073 9.39399,-24.7842 12.02436,-6.56636 -0.93059,4.56278 -7.65171,12.66798 -12.02436,6.56636 z m 8.21109,-4.95 c 3.46368,-9.02741 -6.42704,-6.22377 -5.88264,-10.45199 -3.52973,2.99854 1.08031,14.56073 5.88264,10.45199 z m -51.8,28.31803 c 2.93449,-5.79003 2.15396,2.66462 0,0 z m 2.40924,-7.49394 c -0.73204,-6.73951 4.97678,3.43111 0,0 z m -0.18007,-6.81159 c 3.83444,-5.43183 2.72218,4.41052 0,0 z m 154.77083,-34.8125 c 1.49294,-3.1602 2.25683,3.43448 0,0 z m 57,-9 c -21.17173,-0.36991 -21.52754,-21.2275 -36.44984,-31.72228 -19.01745,-14.08351 15.37662,-5.67102 16.67235,6.46819 4.96546,12.16983 33.96272,10.75038 24.01026,26.17386 l -2.04366,0.0116 -2.18911,-0.93134 0,0 z m -240.25,-68.69073 c -7.54958,-11.86617 24.16233,-14.81889 31.25,-10.40677 -4.22347,11.34986 -21.30567,10.29835 -31.25,10.40677 z m 22.90448,-4.80937 c 9.22661,-13.2697 -19.34989,6.24567 0,0 z m 174.35738,-1.7499 c -16.11625,-9.5325 30.09635,-0.1659 6.51963,2.10547 l -3.03868,-0.6226 -3.48095,-1.48287 0,0 z m 8.41703,-0.25 c -7.28026,-5.62936 -6.33956,4.70377 0,0 z m 58.23423,-27.005 c -14.74141,-8.43131 -25.66447,-25.39913 -44.39145,-26.23567 -15.17666,-2.10781 -43.72306,13.15175 -33.13467,-15.090848 1.10268,-20.110502 27.213,-7.196613 39.80953,-12.704157 11.66657,11.215541 30.87886,-0.412953 37.39503,16.855135 11.834,7.6013 29.05804,35.33445 5.18123,38.0021 l -2.45858,-0.22033 -2.40109,-0.60623 z m 7.29438,-2.9438 c 9.16599,-17.62034 -13.60605,-29.36436 -24.36431,-32.98564 -7.22267,-10.21596 -20.25531,-4.129085 -29.74594,-9.482287 -10.86968,-0.840239 -36.86673,-6.815203 -26.62944,15.098917 -1.89409,13.18666 6.96764,-9.607264 13.78219,-4.75829 6.73083,-9.796948 9.84161,2.30827 12.82308,3.97186 11.97931,-11.029378 -2.92777,6.91905 10.52395,0.96417 8.31647,8.15451 23.49488,15.64076 32.48385,26.30005 3.09614,1.89723 7.96298,3.65557 11.12662,0.89122 z M 98.381385,136.1919 c -11.585463,-16.31903 8.277765,-36.13347 22.269515,-40.00052 7.63188,-5.6027 22.55641,-9.950903 36.19206,-6.40029 5.49127,-1.47454 16.51611,4.116686 16.10931,-4.587895 5.88675,4.569888 21.31285,38.566995 0.12401,28.772845 -18.77447,-7.01314 -41.82077,-5.50893 -56.06342,9.8343 -4.62767,5.38246 -9.31627,19.87721 -18.631475,12.38156 z m 15.271705,-14.01054 c 5.61788,-13.7487 -15.497326,9.02547 0,0 l 0,0 z m 8.93791,-6.90317 c -1.06962,-11.55092 -13.8136,2.97993 0,0 z m 46.06014,-6.0973 c -2.57269,-7.4954 -6.0375,4.48301 0,0 z m 4.48877,-7.72884 c 16.54695,-12.171033 -31.97479,-7.151155 -9.18009,-0.7641 2.03439,3.5165 6.34909,2.33204 9.18009,0.7641 z m 1.72025,22.11596 c -6.22916,-5.94549 -24.70896,-1.28991 -24.30152,-6.52537 7.51028,-3.31516 35.56315,-0.98357 27.76224,6.63539 l -3.46072,-0.11002 z m -4.71339,-4.88006 c -8.6421,-7.08171 -4.39944,6.6422 0,0 z m 156.25,4.83352 c -5.75138,-11.77609 32.27799,-10.717 28.87642,-2.54242 -10.0849,-2.23638 -18.97952,3.44236 -28.87642,2.54242 z m 7.3,-2.26669 c 27.706,-6.87382 -18.52724,-2.48175 0,0 z"
       id="path11373"
       inkscape:connector-curvature="0" />
  </g>
</svg>
