<?xml version="1.0" encoding="UTF-8" standalone="no"?>
<svg
   xmlns:dc="http://purl.org/dc/elements/1.1/"
   xmlns:cc="http://creativecommons.org/ns#"
   xmlns:rdf="http://www.w3.org/1999/02/22-rdf-syntax-ns#"
   xmlns:svg="http://www.w3.org/2000/svg"
   xmlns="http://www.w3.org/2000/svg"
   xmlns:sodipodi="http://sodipodi.sourceforge.net/DTD/sodipodi-0.dtd"
   xmlns:inkscape="http://www.inkscape.org/namespaces/inkscape"
   sodipodi:docname="yumi.svg"
   height="100%"
   width="100%"
   inkscape:version="0.48.4 r9939"
   version="1.1"
   id="svg8438"
   viewBox="0 0 512 512"
   inkscape:export-filename="C:\Users\Chris\Documents\GitHub\bot-game\assets\kabuto.png"
   inkscape:export-xdpi="12.832031"
   inkscape:export-ydpi="12.832031">
  <metadata
     id="metadata8464">
    <rdf:RDF>
      <cc:Work
         rdf:about="">
        <dc:format>image/svg+xml</dc:format>
        <dc:type
           rdf:resource="http://purl.org/dc/dcmitype/StillImage" />
        <dc:title></dc:title>
      </cc:Work>
    </rdf:RDF>
  </metadata>
  <defs
     id="defs8462">
    <linearGradient
       id="linearGradient4077">
      <stop
         id="stop4079"
         offset="0"
         style="stop-color:#aa4400;stop-opacity:1;" />
      <stop
         style="stop-color:#ff9f00;stop-opacity:1;"
         offset="0.22752622"
         id="stop4081" />
      <stop
         style="stop-color:#803300;stop-opacity:1;"
         offset="0.4948855"
         id="stop4083" />
      <stop
         id="stop4085"
         offset="1"
         style="stop-color:#562200;stop-opacity:1;" />
    </linearGradient>
    <linearGradient
       id="linearGradient4057">
      <stop
         style="stop-color:#aa4400;stop-opacity:1;"
         offset="0"
         id="stop4059" />
      <stop
         id="stop4067"
         offset="0.22752622"
         style="stop-color:#ecd1a4;stop-opacity:1;" />
      <stop
         id="stop4065"
         offset="0.50136983"
         style="stop-color:#803300;stop-opacity:1;" />
      <stop
         style="stop-color:#562200;stop-opacity:1;"
         offset="1"
         id="stop4061" />
    </linearGradient>
    <linearGradient
       id="linearGradient3890">
      <stop
         style="stop-color:#701b1b;stop-opacity:1;"
         offset="0"
         id="stop3892" />
      <stop
         style="stop-color:#e31600;stop-opacity:1;"
         offset="1"
         id="stop3894" />
    </linearGradient>
    <linearGradient
       id="linearGradient3882">
      <stop
         style="stop-color:#600b0b;stop-opacity:1;"
         offset="0"
         id="stop3884" />
      <stop
         style="stop-color:#d11414;stop-opacity:1;"
         offset="1"
         id="stop3886" />
    </linearGradient>
    <linearGradient
       id="linearGradient3872">
      <stop
         style="stop-color:#800600;stop-opacity:1;"
         offset="0"
         id="stop3874" />
      <stop
         style="stop-color:#ff0004;stop-opacity:0;"
         offset="1"
         id="stop3876" />
    </linearGradient>
    <filter
       id="filter4074"
       inkscape:label="Black Light"
       inkscape:menu="Color"
       inkscape:menu-tooltip="Light areas turn to black"
       x="0"
       width="1"
       y="0"
       height="1"
       color-interpolation-filters="sRGB">
      <feColorMatrix
         id="feColorMatrix4076"
         type="luminanceToAlpha"
         result="result2" />
      <feComposite
         in2="SourceGraphic"
         id="feComposite4078"
         operator="arithmetic"
         in="result2"
         k3="2"
         result="result4" />
      <feBlend
         in2="result2"
         id="feBlend4080"
         in="result4"
         mode="multiply"
         result="result3" />
      <feComposite
         in2="SourceGraphic"
         id="feComposite4082"
         operator="in"
         in="result3" />
    </filter>
  </defs>
  <sodipodi:namedview
     pagecolor="#000000"
     bordercolor="#666666"
     borderopacity="1"
     objecttolerance="10"
     gridtolerance="10"
     guidetolerance="10"
     inkscape:pageopacity="0"
     inkscape:pageshadow="2"
     inkscape:window-width="1190"
     inkscape:window-height="1126"
     id="namedview8460"
     showgrid="false"
     inkscape:zoom="0.70710678"
     inkscape:cx="42.470423"
     inkscape:cy="504.97322"
     inkscape:window-x="160"
     inkscape:window-y="130"
     inkscape:window-maximized="0"
     inkscape:current-layer="svg8438"
     showguides="true"
     inkscape:guide-bbox="true" />
  <path
     style="fill:#000000"
     id="path3978"
     d="M -13.466093,0.1885736 H 514.89024 V 516.42957 H -13.466093 z"
     inkscape:connector-curvature="0" />
  <path
     sodipodi:type="arc"
     style="opacity:0.98999999;fill:#ff0000;fill-opacity:0.74970506;fill-rule:nonzero;stroke:none"
     id="path5005"
     sodipodi:cx="640"
     sodipodi:cy="124.5"
     sodipodi:rx="105"
     sodipodi:ry="118.5"
     d="m 743.4676,104.32865 a 105,118.5 0 0 1 0.002,0.0163 L 640,124.5 z"
     sodipodi:start="6.11213"
     sodipodi:end="6.1122693" />
  <g
     id="g6448" />
  <g
     id="g3374"
     transform="matrix(-2.974999,0,0,2.9490372,-425.27494,-276.69875)">
    <path
       style="fill:#000000"
       d="m -309,257 c 0,-2.2 0.40122,-4 0.89159,-4 0.49038,0 1.17252,-1.11931 1.51588,-2.48735 0.34336,-1.36804 1.74214,-3.2198 3.10841,-4.11501 1.43257,-0.93866 2.48412,-2.58433 2.48412,-3.88765 0,-4.20239 1.24319,-8.50999 2.45602,-8.50999 0.66331,0 1.8081,-1.125 2.54398,-2.5 0.73588,-1.375 1.71192,-2.5 2.16898,-2.5 0.45706,0 0.83102,-1.125 0.83102,-2.5 0,-1.375 0.49815,-2.5 1.10699,-2.5 0.63596,0 0.82622,-0.73167 0.44715,-1.71952 -0.36292,-0.94573 -0.35045,-1.41013 0.0277,-1.03198 0.90343,0.90344 5.41058,-4.8228 7.92586,-10.06963 1.34162,-2.79862 2.64549,-4.16467 3.9923,-4.18271 1.65861,-0.0222 1.74395,-0.19226 0.5,-0.99616 -0.90832,-0.587 -1.02862,-0.97541 -0.305,-0.98469 0.65725,-0.008 3.23432,-2.15281 5.72682,-4.76531 3.44765,-3.61363 4.53737,-5.52752 4.555,-8 0.0158,-2.21192 0.50229,-3.25 1.52318,-3.25 1.82725,0 1.92372,1.14047 0.25,2.95565 -0.6875,0.74561 0.43749,0.0481 2.49997,-1.55 2.41163,-1.86864 3.74998,-3.72973 3.75,-5.21467 2e-5,-1.50829 0.40574,-2.05827 1.16997,-1.58595 0.80137,0.49527 0.95531,0.16376 0.48866,-1.05233 -0.4987,-1.29959 -0.28997,-1.62522 0.77887,-1.21507 0.88973,0.34142 1.70193,-0.20149 2.07906,-1.38972 0.34041,-1.07252 1.52335,-2.43407 2.62875,-3.02566 1.10541,-0.5916 1.77285,-1.69321 1.48321,-2.44801 -0.33056,-0.86143 -0.0208,-1.17826 0.8321,-0.85099 0.78253,0.30029 1.63077,-0.33573 2.00022,-1.49978 0.35282,-1.11164 1.51848,-2.29951 2.59034,-2.63971 1.07187,-0.34019 1.94885,-1.23289 1.94885,-1.98376 0,-0.75087 0.9,-1.65087 2,-2 1.1,-0.34913 2,-1.50445 2,-2.56739 0,-1.06293 0.41539,-1.93261 0.92308,-1.93261 1.20095,0 7.07692,-5.87597 7.07692,-7.07692 0,-0.50769 0.53831,-0.92308 1.19625,-0.92308 3.53442,0 12.98576,-9.48466 11.21544,-11.25498 -0.2797,-0.2797 0.88437,-0.39002 2.58682,-0.24515 1.70245,0.14487 3.7171,-0.35834 4.477,-1.11824 0.7599,-0.75989 2.13692,-1.38163 3.06005,-1.38163 1.08108,0 1.47357,-0.53384 1.10281,-1.5 -0.39855,-1.03862 0.0676,-1.5 1.51546,-1.5 1.74534,0 1.88524,-0.248 0.84617,-1.5 -1.08106,-1.3026 -0.47207,-1.51559 4.62756,-1.61848 3.22984,-0.0652 6.40101,-0.0532 7.04703,0.0265 1.76563,0.21796 2.64399,-1.81925 1.42018,-3.29386 -1.26042,-1.51871 -0.45658,-2.61418 1.91826,-2.61418 2.4831,0 7.70695,-2.8279 8.35803,-4.52457 0.31139,-0.81149 1.48029,-1.47543 2.59756,-1.47543 1.11726,0 2.03138,-0.50008 2.03138,-1.11129 0,-0.73904 1.25615,-0.88227 3.75,-0.42759 3.52212,0.64215 3.62846,0.59008 1.75,-0.85691 -1.67526,-1.29046 -1.73323,-1.54577 -0.35699,-1.57241 0.90366,-0.0175 1.94037,-0.80669 2.3038,-1.75377 0.5518,-1.43799 0.8061,-1.48684 1.54195,-0.29622 0.75252,1.2176 1.25566,1.22534 3.4462,0.053 3.16526,-1.69399 3.30204,-3.02484 0.31504,-3.06521 -2.0094,-0.0272 -2.06287,-0.13941 -0.5,-1.04969 0.9625,-0.5606 1.75,-1.89692 1.75,-2.96959 0,-1.43501 0.68881,-1.95031 2.60699,-1.95031 2.07104,0 2.46907,0.35942 1.9361,1.74831 -0.42181,1.09921 0.46665,0.65848 2.39301,-1.18709 3.7172,-3.56131 3.88431,-4.14488 0.5639,-1.96926 -2.48366,1.62736 -3.05575,1.01987 -1.89301,-2.01017 0.71814,-1.87146 3.4989,-2.0759 5.19301,-0.38179 0.93333,0.93333 1.2,0.93333 1.2,0 0,-0.66 0.85934,-1.2 1.90964,-1.2 1.61328,0 1.89884,0.71502 1.84,4.60726 -0.059,3.90348 -0.60328,5.12551 -3.56305,8 C -156.22965,116.92507 -159,117.99654 -159,116 c 0,-0.55 0.39868,-1 0.88595,-1 1.20292,0 8.18562,-7.26177 7.57238,-7.87501 -1.37882,-1.37881 -15.87747,15.38782 -14.8058,17.12181 0.36107,0.58422 0.20237,0.78156 -0.35266,0.43853 -0.55503,-0.34303 -2.053,0.48744 -3.32882,1.84549 -1.92787,2.05211 -2.03687,2.46918 -0.64536,2.46918 0.92087,0 1.67431,0.45 1.67431,1 0,1.29566 -0.60906,1.26109 -2.89118,-0.16412 -1.61061,-1.00583 -2.56052,-0.45656 -6.98644,4.03979 -4.83138,4.90827 -6.378,7.01838 -4.12238,5.62433 0.594,-0.36711 0.97252,0.72542 0.93232,2.69098 -0.0636,3.10844 -0.13346,3.17263 -1.15281,1.05902 -0.59683,-1.2375 -1.43605,-2.25 -1.86494,-2.25 -1.2225,0 -2.11602,3.78992 -1.41457,6 0.62953,1.98346 -0.62945,2.50005 -5.4484,2.23558 -0.79661,-0.0437 -2.59661,0.89789 -4,2.09246 -2.06207,1.75526 -2.50325,2.93937 -2.29961,6.17196 l 0.252,4 -1.64881,-2.96926 c -1.58459,-2.8536 -1.67956,-2.88614 -2.43818,-0.8354 -0.43415,1.17362 -1.60558,2.59629 -2.60318,3.1615 -1.73153,0.98102 -1.72308,1.09688 0.18618,2.5536 1.56449,1.19367 1.66248,1.53288 0.45,1.55776 -0.8525,0.0175 -2.15602,-0.5307 -2.8967,-1.2182 -1.0829,-1.00514 -1.20037,-0.99203 -0.59965,0.0669 0.47834,0.8432 0.25935,1.20488 -0.60882,1.00552 -1.96352,-0.45091 -6.37198,4.32392 -6.003,6.5019 0.22163,1.30819 -0.20064,1.75294 -1.43748,1.51401 -1.94563,-0.37586 -7.49756,4.62269 -7.13512,6.42393 0.12692,0.63077 -0.24557,1.1673 -0.82777,1.1923 -1.50434,0.0646 -7.52865,5.28389 -7.20827,6.24504 0.14675,0.44023 -0.0344,0.80042 -0.40263,0.80042 -1.28789,0 -6.05074,5.02066 -6.93479,7.31017 -0.49061,1.2706 -1.34785,2.02846 -1.90496,1.68415 -0.55712,-0.34432 -2.29443,0.65545 -3.86069,2.22172 -2.27211,2.2721 -2.75228,3.49826 -2.37544,6.06586 0.43748,2.98074 -1.10376,4.67086 -1.94848,2.1367 -0.22929,-0.68787 -1.52738,-0.41494 -3.56711,0.75 -2.39151,1.36585 -3.05434,2.31471 -2.60747,3.73267 0.45185,1.43379 0.21614,1.75429 -0.95866,1.30347 -1.54184,-0.59166 -10.67296,7.3521 -10.67296,9.28511 0,0.49321 -0.99292,1.59221 -2.20648,2.44222 -2.17586,1.52403 -2.17933,1.56601 -0.25,3.0249 1.87769,1.41985 1.84336,1.4807 -0.85254,1.51123 -1.62439,0.0184 -2.54838,-0.38992 -2.19098,-0.9682 1.17843,-1.90674 -0.37474,-0.98383 -3.83267,2.27742 -2.84821,2.6862 -3.37607,3.79536 -2.92622,6.14863 0.39998,2.09234 0.21978,2.66781 -0.66429,2.12142 -0.66724,-0.41237 -0.98041,-1.35634 -0.69592,-2.09769 0.32817,-0.8552 0.002,-1.15 -0.89376,-0.80647 -0.77605,0.2978 -1.67615,1.37686 -2.00022,2.39792 -0.32408,1.02106 -1.42557,2.12191 -2.44777,2.44634 -1.0222,0.32444 -2.46168,1.35996 -3.19884,2.30116 -1.17736,1.50322 -1.14781,1.56123 0.24302,0.47715 1.26312,-0.98453 1.58334,-0.97447 1.58334,0.0497 0,0.70613 -0.79476,1.34374 -1.76613,1.41691 -2.18359,0.16453 -5.90054,3.76048 -5.90054,5.70849 0,0.79254 -0.44485,1.71592 -0.98855,2.05194 -0.59385,0.36703 -0.71873,-0.10849 -0.31276,-1.19098 0.59378,-1.5833 0.47105,-1.63541 -1.01146,-0.4295 -0.92798,0.75485 -1.68723,1.96683 -1.68723,2.6933 0,0.72647 -0.81713,1.90887 -1.81585,2.62756 -0.99872,0.71868 -2.1096,2.0942 -2.46862,3.0567 -0.45248,1.21307 -1.73626,1.75 -4.18415,1.75 -3.45328,0 -3.53138,-0.0885 -3.53138,-4 z m 27.57422,-24.87992 c -0.3129,-0.50627 0.6625,-2.32381 2.16754,-4.03899 1.50504,-1.71517 2.74134,-3.85884 2.74734,-4.76371 0.006,-0.90486 0.63604,-1.85482 1.4001,-2.11102 0.92641,-0.31064 1.12478,-0.038 0.59549,0.81842 -0.54538,0.88244 -0.39752,1.03938 0.47261,0.50161 0.73331,-0.45321 1.67986,-0.20256 2.24884,0.59549 0.75418,1.05785 0.84811,0.96208 0.40416,-0.41205 -0.42243,-1.30754 -0.11086,-1.71194 1.15567,-1.5 1.16984,0.19576 1.63962,-0.27402 1.44386,-1.44386 -0.21683,-1.29578 0.16227,-1.56265 1.5,-1.05595 1.71659,0.6502 1.71641,0.60367 -0.005,-1.13205 -2.17767,-2.19647 -1.73773,-4.07797 0.95357,-4.07797 1.09025,0 3.44762,-1.4625 5.23861,-3.25 3.3042,-3.29777 4.80385,-4.19384 3.507,-2.09549 -0.47891,0.77489 -0.25171,0.88929 0.69098,0.34789 3.19779,-1.83649 4.73592,-3.77816 4.16713,-5.2604 -0.41967,-1.09366 -0.21721,-1.33197 0.66721,-0.78537 1.0043,0.62069 1.03015,0.33711 0.12369,-1.35662 -1.59049,-2.97186 -0.63057,-3.97978 3.47963,-3.65365 1.93515,0.15354 3.7584,-0.10908 4.05167,-0.5836 C -244.12191,196.38824 -244.38508,196 -245,196 c -0.61492,0 -0.85206,-0.43035 -0.52699,-0.95633 0.32507,-0.52598 1.36413,-0.66365 2.30902,-0.30595 1.59728,0.60468 1.59503,0.52634 -0.032,-1.1151 -3.03791,-3.06478 -1.42791,-5.68744 2.12812,-3.46666 2.352,1.46885 5.35651,-0.38094 4.45109,-2.74041 -0.3716,-0.96839 -0.0677,-1.25241 0.9304,-0.86942 0.81527,0.31285 1.72373,-0.0604 2.01882,-0.82934 0.6664,-1.73662 -0.88804,-4.44052 -1.9451,-3.38346 -0.42648,0.42648 -0.11345,1.23521 0.69563,1.79717 1.28539,0.89282 1.28174,0.97009 -0.029,0.6123 -0.825,-0.22521 -1.5,-1.04697 -1.5,-1.82613 0,-0.98363 1.21933,-1.42002 3.98904,-1.42763 3.92054,-0.0108 3.98922,-0.0737 4,-3.66644 0.0138,-4.58442 0.98729,-5.60649 3.32509,-3.49081 1.71531,1.55234 2.00075,1.47087 4.69322,-1.33946 1.57676,-1.64578 2.37014,-2.99233 1.76308,-2.99233 -0.60707,0 -1.30598,0.5625 -1.55314,1.25 -0.24716,0.6875 -0.38339,-0.325 -0.30274,-2.25 0.14183,-3.38556 0.27641,-3.50036 4.11604,-3.51091 2.18318,-0.006 3.85691,-0.34351 3.71941,-0.75 -0.1375,-0.4065 -0.25,-1.41409 -0.25,-2.23909 0,-0.83333 -0.88889,-1.5 -2,-1.5 -2.50535,0 -2.54886,-1.19331 -0.12355,-3.38818 1.66065,-1.50288 1.94454,-1.5207 2.46861,-0.15499 0.32569,0.84874 1.16879,1.53628 1.87356,1.52786 0.89599,-0.0107 0.83024,-0.30687 -0.21862,-0.98469 -0.8793,-0.56825 -1.01231,-0.97571 -0.32143,-0.98469 0.64822,-0.008 1.97304,0.77219 2.94405,1.73469 1.68197,1.66723 1.73211,1.66196 1.06009,-0.11134 -0.53221,-1.40436 -0.33434,-1.71896 0.80595,-1.28139 1.04222,0.39994 1.51134,-0.0494 1.51134,-1.44767 0,-1.21974 0.43819,-1.75682 1.09977,-1.34794 0.73267,0.45282 0.70175,-0.064 -0.0926,-1.54834 -1.55258,-2.90102 -0.14959,-4.33665 4.33631,-4.43721 2.49582,-0.0559 3.25271,-0.45084 2.85618,-1.49015 -0.32716,-0.8575 -0.10724,-1.1469 0.55874,-0.7353 0.60403,0.37331 2.75724,-0.8411 4.78491,-2.69869 l 3.68668,-3.37744 -2.66096,-0.66786 c -3.25036,-0.81579 -5.08457,0.0672 -3.67294,1.76807 0.71075,0.8564 0.46108,1.19669 -0.87803,1.19669 -1.02915,0 -1.64152,-0.37161 -1.36081,-0.8258 0.8273,-1.3386 -4.99855,0.38511 -6.90721,2.04367 -0.9625,0.83637 -1.75,2.36676 -1.75,3.40087 0,1.54902 -0.3407,1.69786 -1.93426,0.84501 -2.99164,-1.60105 -5.20157,-1.23191 -5.77603,0.96482 -0.28766,1.1 -1.19326,2 -2.01246,2 -0.8192,0 -2.36759,1.11637 -3.44087,2.48083 -1.07329,1.36446 -2.26305,2.40466 -2.64392,2.31155 -0.38088,-0.0931 -2.38,0.85997 -4.4425,2.11794 -3.2805,2.00087 -4.2798,3.62422 -3.88042,6.30369 0.0585,0.39271 -0.46112,0.49622 -1.1548,0.23003 -0.72965,-0.27999 -1.74168,0.78889 -2.40114,2.53599 -0.62695,1.66098 -1.76937,3.01997 -2.53872,3.01997 -1.72042,0 -5.77492,5.31234 -5.77492,7.5665 0,1.02771 -0.54503,1.43833 -1.44881,1.09152 -0.87372,-0.33528 -1.69179,0.2096 -2.06094,1.37269 -0.33667,1.06077 -1.13652,1.8253 -1.77745,1.69898 -0.64092,-0.12633 -1.3198,0.78281 -1.50861,2.02031 -0.18881,1.2375 -0.76199,2.25 -1.27374,2.25 -0.51175,0 -0.93045,0.64468 -0.93045,1.43261 0,0.78794 -0.83713,1.69831 -1.86029,2.02305 -1.02317,0.32474 -3.28408,2.15506 -5.02425,4.06739 -1.74018,1.91232 -3.94055,3.48384 -4.88971,3.49226 -0.99756,0.009 -1.29468,0.32532 -0.70415,0.75 0.56188,0.40408 1.16207,2.2332 1.33376,4.0647 0.2916,3.11074 0.1731,3.25559 -1.79961,2.19983 -1.16147,-0.6216 -1.8476,-1.55761 -1.52474,-2.08001 0.32286,-0.52241 -0.088,-0.94983 -0.91298,-0.94983 -0.825,0 -1.82108,0.51953 -2.21352,1.15451 -0.41666,0.67417 -0.27678,0.88459 0.3362,0.50574 1.22808,-0.759 2.25929,1.48734 2.25929,4.92154 0,2.77426 -0.53739,2.89762 -4,0.91821 -3.42266,-1.95657 -4.61117,-1.85072 -2.80709,0.25 3.26307,3.79961 3.20977,4.43793 -0.34496,4.13167 -3.75375,-0.3234 -6.20766,0.7273 -5.26412,2.25396 0.33904,0.54859 -0.21541,1.60571 -1.23212,2.34914 -1.01671,0.74344 -1.56083,1.63944 -1.20916,1.99111 0.35167,0.35168 -0.61943,2.01766 -2.15802,3.7022 -3.14446,3.44275 -4.268,7.42374 -2.84537,10.08194 1.13147,2.11417 0.21691,4.05581 -1.45826,3.09597 -0.64949,-0.37215 -0.8809,-0.34199 -0.51423,0.067 1.01301,1.13 -3.06506,4.75017 -4.45314,3.95314 -0.66744,-0.38324 -0.89186,-0.34049 -0.49871,0.095 0.39314,0.43549 0.21674,1.74514 -0.39201,2.91032 -0.60875,1.16519 1.68928,-0.68485 5.10674,-4.11119 3.41746,-3.42634 5.95756,-6.64394 5.64467,-7.15021 z m -3.11534,-0.18661 c -1.02606,-1.66021 -0.10511,-1.89043 1.33055,-0.33261 0.70918,0.76953 0.84824,1.39914 0.30901,1.39914 -0.53922,0 -1.27702,-0.47994 -1.63956,-1.06653 z M -257,195.61317 c 0,-0.38324 0.9,-1.66283 2,-2.84354 1.1,-1.18072 2,-1.68165 2,-1.11318 0,0.56847 -0.9,1.84806 -2,2.84355 -1.1,0.99549 -2,1.49642 -2,1.11317 z m 18,-15.05415 c 0,-0.24254 0.45,-0.7191 1,-1.05902 0.55,-0.33992 1,-0.14148 1,0.44098 0,0.58246 -0.45,1.05902 -1,1.05902 -0.55,0 -1,-0.19844 -1,-0.44098 z M -192.5,141 c -0.33992,-0.55 -0.16803,-1 0.38197,-1 0.55,0 1.27811,0.45 1.61803,1 0.33992,0.55 0.16803,1 -0.38197,1 -0.55,0 -1.27811,-0.45 -1.61803,-1 z m -54.73637,57.9375 c 0.3166,-1.17107 0.18918,-1.15949 -0.6875,0.0625 -0.94467,1.31676 -1.19165,1.3203 -2.02176,0.029 -0.52009,-0.80907 -1.29456,-1.1221 -1.72104,-0.69563 -0.87713,0.87713 1.66588,2.79241 3.10417,2.33791 0.51563,-0.16293 1.11238,-0.94312 1.32613,-1.73374 z m 5.598,-7.4375 C -242.26552,189.86567 -244,189.43725 -244,190.91667 c 0,0.759 0.70084,1.27571 2.71862,2.00438 0.12023,0.0434 -0.0404,-0.59605 -0.35699,-1.42105 z m 16,-16 C -226.26552,173.86567 -228,173.43725 -228,174.91667 c 0,0.759 0.70084,1.27571 2.71862,2.00438 0.12023,0.0434 -0.0404,-0.59605 -0.35699,-1.42105 z m 10.402,-8.5625 c 0.3166,-1.17107 0.18918,-1.15949 -0.6875,0.0625 -0.94467,1.31676 -1.19165,1.3203 -2.02176,0.029 -0.52009,-0.80907 -1.29456,-1.1221 -1.72104,-0.69563 -0.87713,0.87713 1.66588,2.7924 3.10417,2.33791 0.51563,-0.16293 1.11238,-0.94312 1.32613,-1.73374 z m 27.62328,-29.12048 c -0.28881,-0.4673 -0.94401,-0.59075 -1.45601,-0.27432 -1.30838,0.80863 -1.16106,1.12397 0.52511,1.12397 0.80081,0 1.21971,-0.38234 0.9309,-0.84965 z M -185.8,134.8 c -0.64167,-0.64167 -1.49863,-0.8347 -1.90437,-0.42896 -0.40574,0.40574 -0.0888,1.13877 0.70437,1.62896 1.86759,1.15423 2.71091,0.31091 1.2,-1.2 z m 9.29292,-12.78855 c 0.35034,-0.56686 -0.0511,-0.7345 -0.94098,-0.39301 -1.73242,0.66479 -2.04939,1.38156 -0.61096,1.38156 0.51754,0 1.21592,-0.44485 1.55194,-0.98855 z m -86.02487,100.88789 c -0.3667,-1.15537 -0.17202,-2.59537 0.43261,-3.2 0.79912,-0.79912 1.09934,-0.22544 1.09934,2.10066 0,3.69357 -0.57713,4.10772 -1.53195,1.09934 z M -293,214.5 c 0,-0.825 0.45,-1.5 1,-1.5 0.55,0 1,0.675 1,1.5 0,0.825 -0.45,1.5 -1,1.5 -0.55,0 -1,-0.675 -1,-1.5 z m 32,-41.5 c 0,-1.28889 0.50641,-1.99786 1.25,-1.75 0.6875,0.22917 1.25,1.01667 1.25,1.75 0,0.73333 -0.5625,1.52083 -1.25,1.75 -0.74359,0.24786 -1.25,-0.46111 -1.25,-1.75 z m 26.5,-23 c -0.33992,-0.55 -0.14148,-1 0.44098,-1 0.58246,0 1.05902,0.45 1.05902,1 0,0.55 -0.19844,1 -0.44098,1 -0.24254,0 -0.7191,-0.45 -1.05902,-1 z m 38,-24 c -0.33992,-0.55 -0.14148,-1 0.44098,-1 0.58246,0 1.05902,0.45 1.05902,1 0,0.55 -0.19844,1 -0.44098,1 -0.24254,0 -0.7191,-0.45 -1.05902,-1 z"
       id="path3394"
       inkscape:connector-curvature="0" />
    <path
       style="fill:#1a1a1a"
       d="m -309,259.08179 c 0,-2.78382 1.07545,-5.1532 2.0622,-4.54335 0.46894,0.28982 1.53732,-0.7971 2.37417,-2.4154 0.83685,-1.61829 2.05602,-3.1205 2.70926,-3.33825 0.65324,-0.21775 1.1877,-1.81361 1.1877,-3.54636 0,-1.73275 0.375,-2.91869 0.83334,-2.63542 0.45833,0.28326 0.83333,-0.0783 0.83333,-0.80345 0,-0.72515 0.91746,-1.89143 2.0388,-2.59172 1.12135,-0.70029 1.79221,-1.67226 1.49081,-2.15993 -0.3014,-0.48767 0.16191,-1.59657 1.02956,-2.46422 0.96087,-0.96087 1.32903,-2.36058 0.9418,-3.58062 -0.37859,-1.19283 -0.18124,-2.00307 0.48787,-2.00307 0.61799,0 1.99308,-1.96555 3.05575,-4.36789 1.06267,-2.40234 2.61236,-4.93244 3.44377,-5.62245 0.8314,-0.69 1.51164,-1.79809 1.51164,-2.46242 0,-0.66433 1.79365,-3.19673 3.98588,-5.62755 2.19224,-2.43083 3.99224,-4.92105 4,-5.53382 0.008,-0.61277 3.41519,-4.1701 7.57204,-7.90518 5.66922,-5.09399 7.23108,-7.02575 6.25,-7.73021 -0.96773,-0.69488 -0.86504,-0.79744 0.39485,-0.39432 1.84617,0.5907 7.22067,-4.86201 6.2848,-6.37627 -0.58162,-0.94108 4.12825,-6.05209 5.28516,-5.73528 0.4,0.10954 1.33748,-1.074 2.08329,-2.63008 0.74581,-1.55609 2.62282,-3.55629 4.17114,-4.4449 1.54831,-0.88861 3.52319,-3.10052 4.38863,-4.91536 0.86544,-1.81484 2.70093,-3.72835 4.07887,-4.25224 1.37794,-0.52389 2.50534,-1.58735 2.50534,-2.36323 0,-2.17145 7.1638,-8.68703 10.25,-9.32253 1.5125,-0.31145 2.75,-1.19914 2.75,-1.97266 0,-0.77351 0.675,-1.6654 1.5,-1.98198 0.825,-0.31659 1.53553,-1.31496 1.57895,-2.21862 0.0499,-1.03753 0.26482,-1.18236 0.58333,-0.39301 0.75654,1.8749 3.13079,1.50517 4.29422,-0.66872 0.56478,-1.05529 2.38435,-2.21687 4.0435,-2.58128 1.65915,-0.36441 3.50142,-1.5684 4.09394,-2.67552 0.70039,-1.30871 1.74755,-1.83769 2.99306,-1.51198 1.141,0.29838 1.66235,0.091 1.28915,-0.51289 -0.39219,-0.63459 0.16844,-0.76154 1.49862,-0.33936 1.26089,0.4002 2.12523,0.24042 2.12523,-0.39286 0,-0.58707 0.91412,-1.06739 2.03138,-1.06739 1.11727,0 2.28384,-0.65787 2.59239,-1.46193 0.30854,-0.80407 1.45197,-1.74472 2.54093,-2.09035 1.19181,-0.37826 1.76108,-1.19874 1.43013,-2.0612 -0.43475,-1.13294 -0.14973,-1.21867 1.36193,-0.40966 2.58588,1.38392 3.04324,1.29617 3.04324,-0.58385 0,-1.01759 0.55016,-1.39587 1.5,-1.03138 0.825,0.31658 1.5,0.13972 1.5,-0.39301 0,-0.53274 0.50938,-0.96862 1.13197,-0.96862 0.62258,0 2.66386,-0.94677 4.53619,-2.10393 2.51293,-1.55308 3.13392,-2.42963 2.3718,-3.34792 -0.78329,-0.94381 -0.29419,-1.26499 2.02684,-1.33099 2.42906,-0.0691 4.7431,-1.74837 11.23332,-8.15207 C -151.68108,101.1532 -149,99.508172 -149,102.5 c 0,0.825 -0.47656,1.5 -1.05902,1.5 -0.58246,0 -0.78194,0.44831 -0.4433,0.99624 1.10607,1.78966 1.4254,5.07425 0.43373,4.46137 -0.53022,-0.32769 -0.70514,-1.01471 -0.3887,-1.52671 0.31643,-0.51199 0.17927,-0.9309 -0.3048,-0.9309 -1.08487,0 -14.23791,12.86645 -14.23791,13.92769 0,1.00805 -6.8761,8.07231 -7.85731,8.07231 -0.41856,0 -4.5594,3.86544 -9.20186,8.58988 -4.64246,4.72443 -8.97459,9.11193 -9.62696,9.75 -0.65238,0.63806 -22.96933,22.87262 -49.59324,49.41012 -26.6239,26.5375 -49.03098,48.25 -49.7935,48.25 -0.76253,0 1.75443,-3.14954 5.59323,-6.99898 3.8388,-3.84944 6.86714,-7.44944 6.72964,-8 -0.1375,-0.55056 0.3125,-0.88852 1,-0.75102 0.71938,0.14388 1.15623,-0.599 1.0291,-1.75 -0.12491,-1.13084 0.0352,-1.4109 0.36852,-0.64443 0.40515,0.93178 2.72547,-0.76411 7.42199,-5.42464 3.75791,-3.72912 6.59612,-7.16277 6.30714,-7.63035 -0.28897,-0.46757 0.0705,-0.72648 0.79892,-0.57536 0.8178,0.16968 1.21276,-0.49018 1.03263,-1.72522 -0.20236,-1.38751 -0.0273,-1.61089 0.57175,-0.7294 1.04968,1.54465 56.53245,-53.45595 55.5417,-55.05902 -0.36091,-0.58396 -0.13762,-0.71582 0.52191,-0.3082 1.61424,0.99765 6.37265,-4.625 4.81666,-5.69148 -0.75751,-0.51921 -0.58625,-0.69403 0.49332,-0.5036 2.43562,0.42964 17.35233,-14.25387 15.65156,-15.40687 -0.93443,-0.63347 -0.73964,-0.80196 0.68573,-0.59313 1.27853,0.18732 2.3474,-0.51341 2.98713,-1.9583 0.54791,-1.2375 1.56449,-2.25 2.25907,-2.25 0.69458,0 1.26287,-0.45 1.26287,-1 0,-1.30089 -0.12807,-1.28168 -3.85687,0.57848 -1.74028,0.86817 -2.94853,1.92737 -2.685,2.35378 0.69655,1.12704 -4.16563,3.11721 -5.94628,2.43391 -1.06347,-0.40809 -1.51185,0.0647 -1.51185,1.59423 0,1.76201 -0.40305,2.04645 -2.12523,1.49985 -1.57475,-0.4998 -1.92079,-0.34373 -1.33595,0.60255 0.56952,0.92151 0.30019,1.0894 -0.96732,0.60301 -1.25715,-0.48241 -1.90866,-0.0925 -2.29146,1.37133 -0.29419,1.12497 -1.26505,1.97501 -2.15746,1.88898 -4.06985,-0.39236 -6.03189,0.21278 -6.61155,2.03914 -0.39489,1.24418 -1.88406,2.2017 -4.05864,2.60965 -1.88919,0.35441 -3.20844,1.01079 -2.93167,1.45861 0.27677,0.44782 -1.52717,1.82824 -4.00875,3.0676 -2.48158,1.23937 -4.51197,2.85591 -4.51197,3.59231 0,0.73641 -1.6875,2.11915 -3.75,3.07275 -3.97625,1.83843 -5.40456,3.17472 -4.6677,4.36698 0.24768,0.40075 -0.0765,1.05427 -0.7205,1.45225 -0.77343,0.47801 -0.90143,0.28773 -0.37711,-0.56063 0.52908,-0.85608 0.33054,-1.12986 -0.59549,-0.82118 -0.76406,0.25469 -1.3892,1.10057 -1.3892,1.87973 0,1.98927 -2.58625,4.93671 -5.25,5.98322 -1.2375,0.48617 -2.25,1.37164 -2.25,1.96772 0,0.59607 0.5625,0.76006 1.25,0.36442 0.72625,-0.41793 0.90083,-0.33791 0.41667,0.19098 -0.45834,0.50068 -1.13334,0.91033 -1.5,0.91033 -1.32114,0 -5.16667,4.53545 -5.16667,6.09362 0,0.87649 -0.91802,1.83369 -2.04005,2.1271 -1.12202,0.29342 -2.70858,1.82629 -3.52568,3.40638 -0.8171,1.5801 -1.97222,2.8729 -2.56694,2.8729 -0.59472,0 -0.89634,0.5625 -0.67027,1.25 0.22607,0.6875 -0.62579,2.24642 -1.89301,3.46427 -1.26723,1.21784 -2.30405,1.83544 -2.30405,1.37244 0,-0.463 0.675,-1.40202 1.5,-2.08671 0.825,-0.68469 1.5,-1.70864 1.5,-2.27545 0,-0.56682 -0.9,0.007 -2,1.27545 -1.1,1.26831 -2.00689,3.24966 -2.01531,4.40301 -0.0105,1.44362 -0.26581,1.70234 -0.81929,0.83038 -0.57383,-0.90404 -1.78603,-0.0545 -4.23468,2.96771 -1.8869,2.32888 -3.95667,5.37386 -4.5995,6.76661 -0.64283,1.39276 -1.20533,1.91469 -1.25,1.15985 -0.0665,-1.12416 -0.36081,-1.14041 -1.62673,-0.0898 -0.85003,0.70546 -1.30518,1.90893 -1.01145,2.67438 0.29373,0.76545 0.0892,1.1168 -0.45449,0.78077 -1.39132,-0.85988 -1.23349,0.86214 0.21145,2.30708 0.86437,0.86437 0.88087,1.2 0.059,1.2 -0.62754,0 -1.4191,-0.45 -1.75902,-1 -0.94826,-1.53432 -2.5,-1.18734 -2.5,0.55902 0,0.85746 -0.45,1.2809 -1,0.94098 -0.94784,-0.5858 -1.46033,0.8628 -1.04782,2.96179 0.10396,0.52899 -0.46088,1.43702 -1.2552,2.01784 -2.18724,1.59934 -5.69499,8.66458 -5.71229,11.50556 -0.0118,1.93509 -0.22907,2.17684 -0.94258,1.04869 -0.74236,-1.17374 -1.13814,-0.91149 -1.98469,1.3151 -1.33531,3.51213 -1.32717,4.36627 0.0497,5.21723 0.75305,0.46541 0.89201,-0.0754 0.43449,-1.69098 -0.46279,-1.63422 -0.37799,-1.94996 0.27182,-1.01208 0.79737,1.15087 1.0253,1.15087 1.46358,0 0.28553,-0.74973 0.47012,-0.36239 0.41022,0.86077 -0.13545,2.7655 -2.13313,3.64867 -3.77586,1.6693 -1.71505,-2.0665 -3.13602,0.31852 -1.74184,2.92358 0.79407,1.48374 0.73917,1.74482 -0.23972,1.13983 -0.87953,-0.54358 -1.08785,-0.31082 -0.67791,0.75747 0.32549,0.8482 0.0645,2.11304 -0.58006,2.81075 -0.90245,0.97692 -0.88448,1.10631 0.0781,0.56284 0.6875,-0.38815 1.25,-0.26667 1.25,0.26996 0,0.53663 -0.3375,1.12568 -0.75,1.30902 -0.4125,0.18333 -2.00102,2.17702 -3.53004,4.43043 -1.52902,2.2534 -3.89152,4.69194 -5.25,5.41898 -1.35848,0.72704 -2.46996,1.92085 -2.46996,2.65291 0,0.75309 -1.08551,1.33102 -2.5,1.33102 -1.7978,0 -2.5,-0.53879 -2.5,-1.91821 z m 14,-11.67285 c 0,-0.19039 -0.675,-0.0872 -1.5,0.22943 -0.825,0.31659 -1.5,1.03256 -1.5,1.59106 0,0.58531 0.63541,0.48812 1.5,-0.22943 0.825,-0.68469 1.5,-1.40067 1.5,-1.59106 z M -298.5,238 c -0.33992,-0.55 -0.14148,-1 0.44098,-1 0.58246,0 1.05902,0.45 1.05902,1 0,0.55 -0.19844,1 -0.44098,1 -0.24254,0 -0.7191,-0.45 -1.05902,-1 z m 30.5,-31 c 0,-0.55 0.45,-1 1,-1 0.55,0 1,0.45 1,1 0,0.55 -0.45,1 -1,1 -0.55,0 -1,-0.45 -1,-1 z m 2,-14.5 c 0.68469,-0.825 1.46989,-1.5 1.74489,-1.5 0.275,0 -0.0602,0.675 -0.74489,1.5 -0.68469,0.825 -1.46989,1.5 -1.74489,1.5 -0.275,0 0.0602,-0.675 0.74489,-1.5 z m 6,-7.27057 c 0,-0.5585 0.675,-1.27447 1.5,-1.59106 0.825,-0.31658 1.5,-0.41982 1.5,-0.22943 0,0.19039 -0.675,0.90637 -1.5,1.59106 -0.86459,0.71755 -1.5,0.81474 -1.5,0.22943 z m 78.33333,-53.68544 c 0,-0.80081 0.38234,-1.21971 0.84965,-0.9309 0.4673,0.28881 0.59075,0.94401 0.27431,1.45601 -0.80862,1.30838 -1.12396,1.16106 -1.12396,-0.52511 z M -179.5,121 c 0.33992,-0.55 1.37898,-0.99311 2.30902,-0.98469 1.45727,0.0132 1.48367,0.14929 0.19098,0.98469 -1.95837,1.2656 -3.28218,1.2656 -2.5,0 z m 22.5,-17.94098 c 0,-0.51754 0.44485,-1.21592 0.98855,-1.55194 0.56686,-0.35034 0.7345,0.0511 0.39301,0.94098 -0.66479,1.73242 -1.38156,2.04939 -1.38156,0.61096 z"
       id="path3392"
       inkscape:connector-curvature="0" />
    <path
       style="fill:#eaebe6"
       d="m -309,259.92585 c 0,-0.639 1.36565,-2.79623 3.03478,-4.79383 1.66913,-1.99761 3.37932,-4.08202 3.80042,-4.63202 1.12639,-1.47116 2.5064,-4.88621 2.32356,-5.75 -0.0873,-0.4125 0.2229,-0.75 0.68937,-0.75 0.46647,0 1.69155,-1.9125 2.72239,-4.25 1.03086,-2.3375 2.16355,-4.475 2.5171,-4.75 0.84805,-0.65964 2.36979,-5.27383 2.08573,-6.32433 -0.1226,-0.45338 0.19109,-0.56847 0.69709,-0.25574 1.16368,0.71919 2.35794,-2.24138 1.4783,-3.66468 -0.37201,-0.60192 -0.18749,-0.77362 0.42476,-0.39524 0.59538,0.36797 1.37023,-0.2375 1.72189,-1.34549 0.35166,-1.10799 1.00658,-2.01452 1.45537,-2.01452 0.44879,0 1.08115,-0.7875 1.40525,-1.75 1.76336,-5.23674 6.32227,-11.17385 18.14399,-23.62907 3.85,-4.05632 9.45429,-10.24293 12.45397,-13.74803 12.2376,-14.2995 23.01947,-25.58249 27.24355,-28.50978 2.07208,-1.43595 3.52375,-3.00509 3.22593,-3.48697 -0.29781,-0.48188 0.39958,-0.87615 1.54976,-0.87615 1.23406,0 2.46194,-0.92225 2.99563,-2.25 0.49741,-1.2375 0.93291,-1.66997 0.96777,-0.96105 0.0418,0.8496 0.79834,0.60425 2.21954,-0.7198 1.18588,-1.10482 5.79838,-3.89369 10.25,-6.1975 4.45162,-2.30381 8.31885,-4.45489 8.59385,-4.78019 0.275,-0.32531 1.39191,-0.74766 2.48202,-0.93858 1.09011,-0.19091 3.18458,-1.20341 4.65437,-2.25 1.46979,-1.04658 3.12325,-1.90288 3.67435,-1.90288 1.31587,0 16.22398,-9.96449 18.30656,-12.23599 0.88951,-0.9702 1.85977,-1.76401 2.15613,-1.76401 0.29636,0 3.5799,-3.15 7.29676,-7 3.71687,-3.85 7.35911,-7 8.09387,-7 1.65898,0 1.71811,1.21783 0.13594,2.8 -0.66,0.66 -0.94201,1.2 -0.62669,1.2 0.31532,0 -3.52025,4.08578 -8.5235,9.07951 -5.00324,4.99373 -9.25638,8.60077 -9.45142,8.01565 -0.19504,-0.58512 -2.00697,0.24009 -4.02651,1.83381 -2.01953,1.59371 -10.53095,6.42417 -18.91426,10.73435 -19.21032,9.87675 -19.35313,9.95386 -21.75762,11.74856 -1.1,0.82103 -2.225,1.42841 -2.5,1.34973 -0.275,-0.0787 -2.525,1.73717 -5,4.03521 -2.475,2.29803 -4.79862,4.18386 -5.1636,4.19071 -0.86072,0.0162 -10.61199,9.97022 -13.8048,14.09186 -1.35763,1.75258 -4.39513,5.16895 -6.75,7.59194 -2.35488,2.42299 -4.29589,4.72566 -4.31335,5.11705 -0.0175,0.39139 -1.60203,2.27466 -3.52126,4.18503 -1.91923,1.91038 -3.26009,4.07125 -2.9797,4.80194 0.28039,0.73069 0.065,1.0536 -0.47874,0.71757 -0.5437,-0.33602 -1.02408,0.4281 -1.0675,1.69806 -0.0473,1.38315 -0.30213,1.74499 -0.63554,0.90238 -0.64711,-1.63536 -17.26682,15.50848 -17.27841,17.82331 -0.004,0.77916 -0.30471,1.11906 -0.66845,0.75531 -0.36375,-0.36374 -1.79211,1.02376 -3.17415,3.08334 -1.38204,2.05957 -2.79295,3.96968 -3.13536,4.24468 -1.68083,1.34993 -7.74717,13.75224 -7.09555,14.80659 -1.37383,1.73684 -3.00115,4.88805 -4.31997,7.52921 -4.25856,8.61865 -1.42712,6.9386 1.97504,2.98263 1.37433,-1.59805 2.49933,-2.43437 2.5,-1.85849 0.002,1.51052 -10.77435,11.88528 -11.31086,10.88178 -0.2475,-0.46295 -0.30897,-0.26901 -0.13659,0.43096 0.38563,1.56588 -2.61798,4.62251 -4.93405,5.02116 -0.93894,0.16161 -1.70716,-0.22899 -1.70716,-0.86799 z m 19.29606,-17.64279 c 4.61486,-3.65845 -2.48632,2.428 4.30546,-4.05693 l 57.70666,-57.77232 c 31.73866,-31.77477 57.97448,-57.50448 58.30183,-57.17713 0.7748,0.7748 -118.47031,120.05755 -121.67093,121.70933 -1.90058,0.98086 -1.60099,0.3841 1.35698,-2.70295 z"
       id="path3390"
       inkscape:connector-curvature="0"
       sodipodi:nodetypes="ssscsssssscsssssscsscsscsssssssssssssscscsscsscssccssccsccsssccsssc" />
    <path
       style="fill:#f2ead6"
       d="m -309,259.92585 c 7.47657,-10.03554 13.81734,-20.88785 18.50902,-32.48977 6.1274,-10.40824 12.96288,-20.37508 21.47517,-28.9932 17.74575,-18.31427 32.50147,-40.02579 54.03165,-54.28137 19.54667,-11.84724 42.89946,-19.08144 57.61858,-37.5578 1.80607,-4.14165 10.9873,-5.85464 5.08294,-0.0413 -8.44874,10.2181 -19.46114,17.80754 -31.19037,23.77769 -16.69438,8.92002 -34.83208,16.32206 -47.93191,30.52444 -14.26591,14.29765 -25.98274,30.90037 -40.4006,45.06449 -8.32949,8.82281 -15.32166,18.95308 -19.79001,30.25402 -4.47893,8.54389 -6.99233,18.9703 -15.47289,24.63487 l -1.00721,-0.3527 -0.92437,-0.53941 0,0 z m 20.16132,-18.24996 c 7.40435,-5.73804 -6.00354,7.74269 -0.0933,0.10151 l 0.0933,-0.10151 z m 114.56907,-114.87687 c 4.39067,-5.66199 4.60519,0.96428 -0.0427,2.54001 -5.22903,2.7998 -1.60622,-0.9956 0.0427,-2.54001 z"
       id="path3388"
       inkscape:connector-curvature="0" />
    <path
       style="fill:#e8dbc8"
       d="m -308.99878,260.25 c 6.7e-4,-0.4125 1.01317,-1.94969 2.25,-3.41598 5.84939,-6.93459 5.95494,-7.10728 13.3272,-21.80257 8.43786,-16.81941 23.24805,-37.73927 24.86513,-35.12279 0.56699,0.91741 -2.06795,4.53179 -6.55423,8.99054 -4.11902,4.09374 -10.86401,14.67544 -15.7123,24.64983 -5.17456,10.64562 -5.98732,12.19961 -9.12706,17.45097 -0.8221,1.375 -1.38351,2.87095 -1.24757,3.32433 0.13594,0.45338 -0.27237,0.50324 -0.90735,0.1108 -0.71447,-0.44157 -0.97419,-0.18404 -0.68142,0.67567 0.2602,0.76406 -0.69392,2.40115 -2.12026,3.63798 -2.65584,2.30295 -4.0943,2.83066 -4.09214,1.50122 z m 20.1601,-18.57411 c 1.83628,-1.82826 3.53087,-3.17357 3.76578,-2.98957 0.61118,0.47873 -5.12136,6.31368 -6.20287,6.31368 -0.49587,0 0.60082,-1.49585 2.43709,-3.32411 z m 20.85411,-43.59256 c 0.008,-0.32083 2.29154,-3.05833 5.07346,-6.08333 2.78193,-3.025 7.38748,-8.1876 10.23458,-11.47245 7.3964,-8.53362 25.50341,-26.65905 29.95375,-29.98422 5.24429,-3.91838 5.65402,-2.65554 0.49766,1.53386 -6.30284,5.12088 -18.02833,17.2853 -26.43331,27.42281 -13.60897,16.4142 -16.15903,19.16667 -17.75718,19.16667 -0.87142,0 -1.57745,-0.2625 -1.56896,-0.58334 z M -217,146.81869 c 0,-1.52853 -0.29781,-1.34968 15.06598,-9.0477 6.28871,-3.15095 11.88657,-6.07595 12.43969,-6.5 0.55312,-0.42404 3.02812,-1.86856 5.5,-3.21004 9.02305,-4.89675 17.66305,-11.53813 24.99433,-19.21257 4.125,-4.31808 7.8375,-7.85046 8.25,-7.84972 0.4125,7.4e-4 0.75,0.71529 0.75,1.58789 0,1.91384 -11.78647,14.41345 -13.59112,14.41345 -0.70076,0 -1.56183,0.90653 -1.91349,2.01452 -0.35166,1.10799 -1.05434,1.75807 -1.5615,1.44462 -0.50717,-0.31344 -2.42974,0.58002 -4.2724,1.98548 -1.84265,1.40546 -3.8703,2.55538 -4.50588,2.55538 -0.63559,0 -1.15561,0.37396 -1.15561,0.83102 0,0.45706 -1.2375,1.45334 -2.75,2.21396 -1.5125,0.76062 -4.1,2.29741 -5.75,3.41509 -1.65,1.11768 -3.225,1.94411 -3.5,1.83651 -0.68575,-0.26832 -14.91331,6.57986 -18,8.66398 -6.94286,4.68779 -10,6.17299 -10,4.85813 z m 45,-22.2117 c 0,-0.21616 3.38745,-4.30626 4.24102,-4.63381 0.88992,-0.34149 -1.39776,3.47141 -1.7481,4.03827 -0.58726,0.95021 -2.49292,1.40545 -2.49292,0.59554 z"
       id="path3386"
       inkscape:connector-curvature="0"
       sodipodi:nodetypes="sssssssssssssssscsssssscssssssssscssssssssssss" />
    <path
       style="fill:#d9ccb2"
       d="m -309,260.62032 c 0,-0.20882 2.00523,-2.96203 4.45607,-6.11822 2.45085,-3.1562 4.63924,-6.24785 4.8631,-6.87032 0.22386,-0.62248 0.74788,-0.81503 1.16448,-0.42789 0.4166,0.38713 -0.64679,2.47689 -2.3631,4.6439 -1.7163,2.16701 -3.12055,4.50065 -3.12055,5.18587 0,0.68522 -0.7875,1.84365 -1.75,2.57429 -1.70611,1.29513 -3.25,1.77604 -3.25,1.01237 z m 11,-16.16998 c 0,-0.85248 3.19758,-6.88928 3.94631,-7.45034 0.36698,-0.275 1.28806,-2.075 2.04685,-4 4.18506,-10.61726 21.64842,-34.69175 23.68656,-32.65361 0.30182,0.30181 -1.97765,3.15704 -5.06548,6.34495 -3.08783,3.1879 -5.61424,6.10435 -5.61424,6.481 0,0.37664 -0.5625,1.29159 -1.25,2.03322 -2.64963,2.85824 -5.44747,7.70105 -10.71372,18.54444 -3.00505,6.1875 -5.81755,11.25 -6.25,11.25 -0.43245,0 -0.78628,-0.24735 -0.78628,-0.54966 z m 31.16667,-47.35966 c 0.18333,-0.50012 4.20345,-5.11262 8.93361,-10.25 4.73015,-5.13737 10.07753,-11.04329 11.88308,-13.12427 1.80554,-2.08097 3.52767,-3.53872 3.82695,-3.23944 0.29928,0.29928 -0.32311,1.40497 -1.38308,2.45707 -3.94333,3.91407 -9.00332,9.90716 -11.42723,13.53453 -4.0559,6.06961 -9.12377,11.53143 -10.6997,11.53143 -0.80683,0 -1.31697,-0.40919 -1.13363,-0.90932 z M -240,167.89146 c 0,-1.17534 11.56638,-12.64177 15.80799,-15.6714 1.7556,-1.25396 3.19201,-1.81646 3.19201,-1.25 0,0.56647 -0.42173,1.02994 -0.93717,1.02994 -0.51545,0 -4.79045,3.78449 -9.5,8.40998 -4.70956,4.62548 -8.56283,7.99215 -8.56283,7.48148 z m 23,-20.71 c 0,-1.20855 1.8972,-2.61759 2.5907,-1.9241 0.2517,0.2517 -0.22824,1.02686 -1.06653,1.72258 -0.95039,0.78875 -1.52417,0.86462 -1.52417,0.20152 z m 4.29667,-2.84891 c 0.90339,-1.46618 15.80756,-9.56166 16.43969,-8.92952 0.25631,0.25631 -2.39154,1.90851 -5.88412,3.67156 -3.49257,1.76304 -7.4582,3.93001 -8.81251,4.81547 -1.35431,0.88547 -2.13868,1.08459 -1.74306,0.44249 z M -194.5,134 c 0.33992,-0.55 1.37898,-0.99311 2.30902,-0.98469 1.45727,0.0132 1.48367,0.14929 0.19098,0.98469 -1.95837,1.2656 -3.28218,1.2656 -2.5,0 z m 5.5,-2.41451 c 0,-0.22797 2.025,-1.5463 4.5,-2.9296 2.475,-1.3833 4.49653,-2.20927 4.4923,-1.83549 -0.004,0.37378 -1.78089,1.6921 -3.94812,2.9296 -3.89546,2.22433 -5.04418,2.64233 -5.04418,1.83549 z m 12,-6.85969 c 0,-0.71452 12.44228,-9.1947 13.16947,-8.9758 0.45679,0.1375 0.71803,-0.11765 0.58053,-0.567 -0.28341,-0.92618 11.35862,-14.14963 12.47525,-14.16986 0.39889,-0.007 0.26123,1.22436 -0.3059,2.73686 -1.18552,3.16169 -10.75134,13.25 -12.56376,13.25 -0.667,0 -1.80738,0.5625 -2.53416,1.25 -3.2874,3.1097 -10.82143,7.61825 -10.82143,6.4758 z"
       id="path3384"
       inkscape:connector-curvature="0" />
    <path
       style="fill:#c6b8a2"
       d="m -308.46173,259.76087 c 0.57593,-1.50084 4.47756,-4.15989 4.43031,-3.01934 -0.0173,0.41716 -1.13376,1.56054 -2.48105,2.54086 -1.54404,1.12347 -2.26464,1.30035 -1.94926,0.47848 z M -304,253.60699 c 0,-0.21616 0.69837,-0.661 1.55194,-0.98855 0.88992,-0.34149 1.29132,-0.17385 0.94098,0.39301 -0.58726,0.95021 -2.49292,1.40545 -2.49292,0.59554 z m 10.59824,-17.69598 c 2.50641,-4.99894 4.71053,-8.93557 4.89804,-8.74806 0.56651,0.56651 -7.83152,17.83705 -8.67351,17.83705 -0.42991,0 1.26905,-4.09004 3.77547,-9.08899 z M -288,225.05902 c 0,-0.51754 0.44485,-1.21592 0.98855,-1.55194 0.56686,-0.35034 0.7345,0.0511 0.39301,0.94098 -0.66479,1.73242 -1.38156,2.04939 -1.38156,0.61096 z M -281,214.5 c 0.68469,-0.825 1.46989,-1.5 1.74489,-1.5 0.275,0 -0.0602,0.675 -0.74489,1.5 -0.68469,0.825 -1.46989,1.5 -1.74489,1.5 -0.275,0 0.0602,-0.675 0.74489,-1.5 z m 8,-10 c 0.68469,-0.825 1.46989,-1.5 1.74489,-1.5 0.275,0 -0.0602,0.675 -0.74489,1.5 -0.68469,0.825 -1.46989,1.5 -1.74489,1.5 -0.275,0 0.0602,-0.675 0.74489,-1.5 z m 6.65185,-7.2543 c -0.2564,-0.41487 2.92616,-4.29256 7.07236,-8.61709 7.80047,-8.13596 8.00991,-8.18152 2.89,-0.62861 -5.52137,8.14513 -8.77586,11.1655 -9.96236,9.2457 z m 82.08148,-68.36979 c 0.67834,-0.68342 1.48524,-0.99067 1.79313,-0.68278 0.30789,0.30788 -0.24711,0.86705 -1.23333,1.24258 -1.4252,0.54268 -1.54006,0.42782 -0.5598,-0.5598 z M -173,122.22943 c 0,-0.5585 0.675,-1.27447 1.5,-1.59106 0.825,-0.31658 1.5,-0.41982 1.5,-0.22943 0,0.19039 -0.675,0.90637 -1.5,1.59106 -0.86459,0.71755 -1.5,0.81474 -1.5,0.22943 z M -165,116 c 0,-0.55 0.54205,-0.8875 1.20455,-0.75 0.6625,0.1375 1.225,-0.26257 1.25,-0.88904 0.025,-0.62647 2.40881,-3.63795 5.29737,-6.69217 5.1829,-5.48015 9.195,-8.834158 6.29191,-5.25987 -0.80089,0.98607 -1.53481,2.30995 -1.63092,2.94196 C -152.80209,106.76465 -162.95542,117 -164.14286,117 -164.61429,117 -165,116.55 -165,116 z m 6,-4.5 c 0.68469,-0.825 1.01989,-1.5 0.74489,-1.5 -0.275,0 -1.0602,0.675 -1.74489,1.5 -0.68469,0.825 -1.01989,1.5 -0.74489,1.5 0.275,0 1.0602,-0.675 1.74489,-1.5 z"
       id="path3382"
       inkscape:connector-curvature="0" />
    <path
       style="fill:#b1a793"
       d="m -266,196.71584 c 0,-0.70629 2.53074,-3.74379 5.62386,-6.75 5.78431,-5.62178 5.43321,-3.96816 -0.90962,4.28416 -2.9451,3.83171 -4.71424,4.75708 -4.71424,2.46584 z m 102.27103,-80.80771 c 0.97407,-0.56708 1.46442,-1.56589 1.08968,-2.21959 -0.37475,-0.6537 -0.30291,-0.84474 0.15963,-0.42454 0.94072,0.85459 6.65319,-4.1742 5.97966,-5.264 -0.23589,-0.38167 1.00043,-2.00031 2.74736,-3.59698 1.74694,-1.59666 2.57584,-2.11552 1.842,-1.15302 -0.73384,0.9625 -0.95574,1.75 -0.49311,1.75 0.46263,0 -1.83068,2.7 -5.09625,6 -3.26557,3.3 -6.40148,5.98632 -6.9687,5.96959 -0.56721,-0.0167 -0.23434,-0.49438 0.73973,-1.06146 z M -154,106.5 c 0.68469,-0.825 1.01989,-1.5 0.74489,-1.5 -0.275,0 -1.0602,0.675 -1.74489,1.5 -0.68469,0.825 -1.01989,1.5 -0.74489,1.5 0.275,0 1.0602,-0.675 1.74489,-1.5 z"
       id="path3380"
       inkscape:connector-curvature="0" />
    <path
       style="fill:#a89b77"
       d="m -266,196.61636 c 0,-0.761 1.8013,-3.011 4.00288,-5 6.20556,-5.60634 6.43793,-4.6553 0.6435,2.63364 C -264.472,198.17267 -266,198.95087 -266,196.61636 z M -160,112.5 c 1.29175,-1.375 2.57363,-2.5 2.84863,-2.5 0.275,0 -0.55688,1.125 -1.84863,2.5 -1.29175,1.375 -2.57363,2.5 -2.84863,2.5 -0.275,0 0.55688,-1.125 1.84863,-2.5 z m 3,-4.62582 c 0,-0.275 1.35,-1.79338 3,-3.37418 1.65,-1.5808 3,-2.64918 3,-2.37418 0,0.275 -1.35,1.79338 -3,3.37418 -1.65,1.5808 -3,2.64918 -3,2.37418 z"
       id="path3378"
       inkscape:connector-curvature="0" />
    <path
       style="fill:#3a3227"
       d="m -263.01452,193.51498 c 1.8578,-1.91676 3.60077,-3.26207 3.87327,-2.98957 0.65794,0.65795 -4.94975,6.47459 -6.24201,6.47459 -0.55499,0 0.51094,-1.56826 2.36874,-3.48502 z"
       id="path3376"
       inkscape:connector-curvature="0" />
  </g>
</svg>
