<?xml version="1.0" encoding="UTF-8" standalone="no"?>
<svg
   xmlns:dc="http://purl.org/dc/elements/1.1/"
   xmlns:cc="http://creativecommons.org/ns#"
   xmlns:rdf="http://www.w3.org/1999/02/22-rdf-syntax-ns#"
   xmlns:svg="http://www.w3.org/2000/svg"
   xmlns="http://www.w3.org/2000/svg"
   xmlns:sodipodi="http://sodipodi.sourceforge.net/DTD/sodipodi-0.dtd"
   xmlns:inkscape="http://www.inkscape.org/namespaces/inkscape"
   viewBox="0 0 512 512"
   id="svg8438"
   version="1.1"
   inkscape:version="0.48.4 r9939"
   width="100%"
   height="100%"
   sodipodi:docname="ass axe.svg">
  <metadata
     id="metadata8464">
    <rdf:RDF>
      <cc:Work
         rdf:about="">
        <dc:format>image/svg+xml</dc:format>
        <dc:type
           rdf:resource="http://purl.org/dc/dcmitype/StillImage" />
        <dc:title></dc:title>
      </cc:Work>
    </rdf:RDF>
  </metadata>
  <defs
     id="defs8462">
    <linearGradient
       id="linearGradient4077">
      <stop
         id="stop4079"
         offset="0"
         style="stop-color:#aa4400;stop-opacity:1;" />
      <stop
         style="stop-color:#ff9f00;stop-opacity:1;"
         offset="0.22752622"
         id="stop4081" />
      <stop
         style="stop-color:#803300;stop-opacity:1;"
         offset="0.4948855"
         id="stop4083" />
      <stop
         id="stop4085"
         offset="1"
         style="stop-color:#562200;stop-opacity:1;" />
    </linearGradient>
    <linearGradient
       id="linearGradient4057">
      <stop
         style="stop-color:#aa4400;stop-opacity:1;"
         offset="0"
         id="stop4059" />
      <stop
         id="stop4067"
         offset="0.22752622"
         style="stop-color:#ecd1a4;stop-opacity:1;" />
      <stop
         id="stop4065"
         offset="0.50136983"
         style="stop-color:#803300;stop-opacity:1;" />
      <stop
         style="stop-color:#562200;stop-opacity:1;"
         offset="1"
         id="stop4061" />
    </linearGradient>
    <linearGradient
       id="linearGradient3890">
      <stop
         style="stop-color:#701b1b;stop-opacity:1;"
         offset="0"
         id="stop3892" />
      <stop
         style="stop-color:#e31600;stop-opacity:1;"
         offset="1"
         id="stop3894" />
    </linearGradient>
    <linearGradient
       id="linearGradient3882">
      <stop
         style="stop-color:#600b0b;stop-opacity:1;"
         offset="0"
         id="stop3884" />
      <stop
         style="stop-color:#d11414;stop-opacity:1;"
         offset="1"
         id="stop3886" />
    </linearGradient>
    <linearGradient
       id="linearGradient3872">
      <stop
         style="stop-color:#800600;stop-opacity:1;"
         offset="0"
         id="stop3874" />
      <stop
         style="stop-color:#ff0004;stop-opacity:0;"
         offset="1"
         id="stop3876" />
    </linearGradient>
  </defs>
  <sodipodi:namedview
     pagecolor="#000000"
     bordercolor="#666666"
     borderopacity="1"
     objecttolerance="10"
     gridtolerance="10"
     guidetolerance="10"
     inkscape:pageopacity="0"
     inkscape:pageshadow="2"
     inkscape:window-width="1190"
     inkscape:window-height="1126"
     id="namedview8460"
     showgrid="false"
     inkscape:zoom="0.70710678"
     inkscape:cx="229.03672"
     inkscape:cy="551.40418"
     inkscape:window-x="160"
     inkscape:window-y="130"
     inkscape:window-maximized="0"
     inkscape:current-layer="g8466" />
  <g
     id="g8466">
    <path
       inkscape:connector-curvature="0"
       d="M -13.466093,0.1885736 H 514.89024 V 516.42957 H -13.466093 z"
       id="path3978"
       style="fill:#000000" />
    <path
       sodipodi:type="arc"
       style="fill:#333333;fill-opacity:1;fill-rule:nonzero;stroke:none"
       id="path4121"
       sodipodi:cx="63.286057"
       sodipodi:cy="-74.545074"
       sodipodi:rx="39.244427"
       sodipodi:ry="23.688076"
       d="m 101.95774,-78.577314 a 39.244427,23.688076 0 0 1 9.3e-4,0.0033 l -38.672613,4.028989 z"
       sodipodi:start="6.11213"
       sodipodi:end="6.1122693"
       transform="matrix(0.92592215,0,0,1,-12.92858,0)" />
    <path
       sodipodi:type="arc"
       style="fill:#333333;fill-opacity:1;fill-rule:nonzero;stroke:none"
       id="path4123"
       sodipodi:cx="65.584152"
       sodipodi:cy="-52.359596"
       sodipodi:rx="10.606602"
       sodipodi:ry="11.755651"
       d="m 76.035958,-54.360671 a 10.606602,11.755651 0 0 1 2.51e-4,0.0016 l -10.452057,1.999461 z"
       sodipodi:start="6.11213"
       sodipodi:end="6.1122693"
       transform="matrix(0.92592215,0,0,1,-12.92858,0)" />
    <path
       sodipodi:type="arc"
       style="fill:#333333;fill-opacity:1;fill-rule:nonzero;stroke:none"
       id="path4125"
       sodipodi:cx="54.182056"
       sodipodi:cy="-54.392529"
       sodipodi:rx="15.46796"
       sodipodi:ry="16.793785"
       d="m 69.424272,-57.251206 a 15.46796,16.793785 0 0 1 3.67e-4,0.0023 l -15.242583,2.856372 z"
       sodipodi:start="6.11213"
       sodipodi:end="6.1122693"
       transform="matrix(0.92592215,0,0,1,-12.92858,0)" />
    <g
       id="g4876"
       transform="matrix(-1.3515732,0.74555313,0.94185219,1.0698808,384.41054,-224.89823)">
      <g
         id="g4872">
        <path
           inkscape:connector-curvature="0"
           id="path4856"
           d="m 260.75,218.32558 c -2.91074,-2.03043 -2.83581,-2.90591 0.5,-5.84194 4.90091,-4.31358 9.07217,-2.6076 7.63408,3.1222 -1.03944,4.14147 -4.45754,5.28436 -8.13408,2.71974 z m 62.75,-0.61851 c 0,-1.02244 1.94461,-4.4123 4.32135,-7.53303 2.37674,-3.12072 5.79132,-7.83765 7.58796,-10.48206 5.7895,-8.52138 10.16673,-4.17852 7.04095,6.98566 -1.29912,4.64001 -8.47006,12.25656 -11.67792,12.4036 -0.97479,0.0447 -3.00984,0.17204 -4.52234,0.28302 -2.08616,0.15307 -2.75,-0.24697 -2.75,-1.65719 z"
           style="fill:#fcfcf4"
           sodipodi:nodetypes="sssssssscss" />
        <path
           style="fill:#fbd8ca"
           d="m 302.36845,415.53512 c 8.0456,-11.82952 3.21216,-28.1194 12.65182,-39.45954 5.78007,-11.35866 22.7904,-8.07328 25.87829,3.14768 -12.16321,-12.84584 -31.02101,3.81396 -26.48308,18.63794 -1.85434,7.10319 -7.27577,12.40435 -12.04703,17.67392 z M 158.59859,270.18539 c 4.30563,-13.94839 9.02531,-27.87288 14.19335,-41.46546 4.30185,-1.74203 11.45403,2.26539 9.67575,-6.5762 -3.8487,-10.85528 -11.12015,-20.21916 -14.61826,-31.33107 -4.88962,-12.61538 -10.46337,-26.23027 -8.74065,-39.91334 5.23652,-10.00989 17.65836,-13.61691 22.42466,-24.18175 7.65685,-8.4589 11.92265,-20.5555 25.79512,-18.122 23.52828,0.27137 47.01165,2.49794 70.49814,0.56587 15.69538,-2.15783 14.54082,16.72309 23.84404,24.35643 6.78619,4.79911 10.99761,20.61718 21.17793,10.00447 7.64496,-12.21079 17.86046,1.50695 23.9134,8.13411 12.88891,16.86242 17.80741,41.7864 7.12833,60.96265 -8.00664,9.894 -14.93824,22.08336 -28.24776,25.5165 -15.06792,9.22994 -34.93747,-4.86209 -22.39419,-20.81805 6.4117,-13.58585 9.17857,-30.62639 -0.0751,-43.66226 -1.66056,-6.19853 -21.976,-20.05263 -14.55422,-5.63393 5.96838,12.76788 14.36877,28.5593 3.45955,41.31922 -5.18367,13.20689 -15.64819,23.53877 -29.04234,28.23274 -15.7086,5.82964 -33.3471,3.51905 -48.56403,-2.7148 -1.61766,6.67187 7.11148,16.15105 3.36012,25.18432 -1.30009,13.41861 -1.63006,14.12038 -8.01731,25.75273 -11.95299,5.80896 -24.51624,6.01671 -34.07038,-5.96961 -4.29338,-8.2161 -15.41265,-0.84343 -17.14619,-9.64057 z m 107.85212,-51.15901 c 12.11474,-11.37997 -17.40664,-7.40349 -3.73406,0.30007 l 1.8849,0.15234 z m 64.32163,0.0549 c 9.83012,0.49147 19.0174,-26.27574 6.1336,-20.73799 -2.78503,5.48651 -19.46035,17.97317 -8.19313,20.85464 0.68651,-0.0389 1.37302,-0.0778 2.05953,-0.11665 z m -53.24072,-69.9083 c 1.7875,-13.27789 -23.05179,0.38913 -7.85189,2.9037 2.63436,1.60623 9.21113,2.02043 7.85189,-2.9037 z m 13.93439,1.36802 c 5.72742,-10.55196 -15.87427,-7.42293 -4.2398,0.6579 1.27325,0.72595 3.48954,1.08387 4.2398,-0.6579 z m 8.40486,213.0926 c -9.9496,-13.17288 -9.44331,-31.60656 -6.77348,-47.03163 6.88045,-14.1401 -14.65593,-10.77512 -14.82401,-24.46755 -5.24659,-12.34891 5.43776,-31.43927 20.07981,-26.02965 12.04189,1.8035 23.22658,-4.82898 32.35499,-12.1722 7.44868,-3.45831 2.59098,15.69785 1.72201,21.19059 -5.90481,10.16025 -10.97112,24.09395 -25.27574,23.72022 -10.82444,-1.17654 -13.22748,12.44505 -0.96466,11.27923 10.55761,1.41074 17.42975,-12.09275 25.99137,0.19858 9.88916,12.12474 4.61402,28.53869 5.64442,42.73467 -2.70994,12.00207 -18.51791,-1.26484 -26.30998,7.36555 -3.72834,1.46203 -7.53724,3.35351 -11.64473,3.21219 z"
           id="path4854"
           inkscape:connector-curvature="0"
           sodipodi:nodetypes="ccccccccccccccccccccccccccccccccccccccccccccccccccccccc" />
      </g>
      <path
         style="fill:#eba798"
         d="m 317.14584,419.21727 c -4.57926,-0.66148 -4.29279,1.05447 -8.57805,-3.57471 -5.04372,-1.08524 -2.77498,8.83783 -5.46019,-0.66964 5.75543,-7.47737 14.68729,-17.03972 12.29248,-28.90676 1.35707,-11.88957 22.61052,-16.46997 26.16928,-3.67847 0.59916,13.2334 -14.40023,17.58753 -24.67067,18.86231 3.01657,3.87703 23.39673,0.58585 10.56194,10.08987 -3.03241,2.62149 -4.55048,12.16568 -10.31479,7.8774 z m -99.5766,-155.58238 c 1.32984,-9.80447 0.66054,-20.7647 -5.5963,-28.51282 9.02265,0.87518 18.10623,5.9952 27.762,5.64383 14.82058,1.59202 29.82909,-4.24117 40.76506,-13.97799 7.35002,-5.31523 9.72872,-16.64411 15.29105,-23.73372 2.04676,3.69777 -2.90271,15.42894 4.34495,6.94232 6.92919,-8.18611 7.11026,-25.01761 5.68926,-31.03902 7.1106,15.40445 1.47623,32.47464 -6.10347,46.4821 -6.19564,13.51347 14.31108,17.17682 23.65796,13.43157 6.11752,-0.76275 14.73503,-7.51332 17.18305,-8.67543 -3.19594,8.24719 -22.22307,15.25572 -20.54266,19.56192 5.03029,0.4509 18.71702,-10.12542 13.1977,1.25518 -7.49731,10.95085 -21.94482,13.95048 -34.35055,15.46944 -8.40621,-1.48709 -15.07163,-2.71136 -17.59274,7.50856 -10.33956,8.50241 -0.90894,19.96904 2.24601,29.0482 3.13692,1.35063 18.62227,6.61917 7.87517,6.02182 -11.85615,-2.96385 -14.31016,-16.34299 -19.49597,-25.59625 -4.4489,-9.54834 -10.71191,-21.70727 -7.17689,-31.92034 11.43191,-1.98224 18.64145,12.95548 30.43027,11.99585 0.85579,-2.27339 -9.30528,-7.30532 -8.24496,-13.58472 -8.86727,-7.94146 2.12969,-16.65939 4.79286,-25.77439 -0.27739,-6.68357 -10.23903,8.18833 -13.81933,9.99871 -9.22661,7.00343 -19.18604,15.52349 -31.26099,16.04201 -6.34077,6.82423 -6.93569,14.45509 -13.25341,20.86578 -2.83195,0.20192 -0.18871,2.93771 -10.58531,8.32931 -5.22262,1.05443 -23.40955,14.28736 -12.72209,2.2771 3.53651,-5.51982 5.98495,-11.69532 7.50933,-18.05902 z m 83.7939,107.30291 c -10.48318,-13.72022 -15.19763,-31.92526 -13.72641,-49.04995 0.1291,-6.48698 8.62878,-12.43298 3.93887,-2.68251 -1.80005,14.07949 0.29182,29.07892 6.76814,41.77237 7.21288,7.49905 18.1612,-7.24134 28.38376,-3.60266 12.32106,-0.65625 8.7526,9.69043 -1.735,6.68461 -9.22046,-1.61409 -15.18719,9.12897 -19.04988,11.44814 -1.70851,-1.32873 -3.1376,-2.96804 -4.57948,-4.57 z m -2.64063,-62.4945 c -6.28739,-4.13887 4.84238,-12.28473 1.66823,-4.70419 3.26875,11.19068 21.78983,-2.88789 10.09619,-3.54575 -7.27047,4.59908 -8.3614,-3.27256 -0.10834,-2.09935 10.3012,1.54449 13.9853,-14.91165 19.59574,-15.09401 0.10851,7.14097 -9.63994,12.78639 -10.6235,14.4993 2.69688,2.60659 15.42793,12.7123 4.55779,8.24404 -6.97692,-4.35098 -10.37821,8.65906 -19.15724,4.16135 -2.03773,-0.19891 -4.24638,-0.31251 -6.02887,-1.46139 z M 178.5,229.0614 c -8.52465,1.07093 -2.66999,-13.34305 3.28361,-4.80457 4.7711,-3.30713 -1.68425,8.96144 -3.28361,4.80457 z m 164,-1.63235 c 3.40859,-4.32473 8.3409,-14.9001 11.30362,-12.67905 -2.58094,4.60303 -6.7825,11.16019 -11.30362,12.67905 z m -75.9922,-81.28193 c 2.33036,-6.85575 16.80013,1.06379 5.44936,0.6042 -1.81503,-0.091 -3.72641,0.14533 -5.44936,-0.6042 z"
         id="path4852"
         inkscape:connector-curvature="0"
         sodipodi:nodetypes="ccccccccccccccccccccccccccccccccccccccccccccccccccccccccccccc" />
    </g>
  </g>
</svg>
