<?xml version="1.0" encoding="UTF-8" standalone="no"?>
<svg
   xmlns:dc="http://purl.org/dc/elements/1.1/"
   xmlns:cc="http://creativecommons.org/ns#"
   xmlns:rdf="http://www.w3.org/1999/02/22-rdf-syntax-ns#"
   xmlns:svg="http://www.w3.org/2000/svg"
   xmlns="http://www.w3.org/2000/svg"
   xmlns:sodipodi="http://sodipodi.sourceforge.net/DTD/sodipodi-0.dtd"
   xmlns:inkscape="http://www.inkscape.org/namespaces/inkscape"
   viewBox="0 0 512 512"
   id="svg2"
   version="1.1"
   inkscape:version="0.48.4 r9939"
   width="100%"
   height="100%"
   sodipodi:docname="lightning overlays.svg">
  <metadata
     id="metadata48">
    <rdf:RDF>
      <cc:Work
         rdf:about="">
        <dc:format>image/svg+xml</dc:format>
        <dc:type
           rdf:resource="http://purl.org/dc/dcmitype/StillImage" />
        <dc:title></dc:title>
      </cc:Work>
    </rdf:RDF>
  </metadata>
  <defs
     id="defs46" />
  <sodipodi:namedview
     pagecolor="#ffffff"
     bordercolor="#666666"
     borderopacity="1"
     objecttolerance="10"
     gridtolerance="10"
     guidetolerance="10"
     inkscape:pageopacity="0"
     inkscape:pageshadow="2"
     inkscape:window-width="1185"
     inkscape:window-height="840"
     id="namedview44"
     showgrid="false"
     inkscape:zoom="0.921875"
     inkscape:cx="262.7743"
     inkscape:cy="204.7823"
     inkscape:window-x="100"
     inkscape:window-y="100"
     inkscape:window-maximized="0"
     inkscape:current-layer="svg2" />
  <path
     d="M 3.2542373,0 H 515.25424 V 512 H 3.2542373 z"
     id="path4"
     inkscape:connector-curvature="0" />
  <path
     inkscape:connector-curvature="0"
     id="path3980"
     d="m 524.5995,259.92055 c -0.0622,91.84179 -0.12436,183.68357 -0.18654,275.52536 -182.23724,-0.12338 -364.47449,-0.24676 -546.711729,-0.37014 0.124359,-183.68357 0.248718,-367.36715 0.373078,-551.050713 182.237241,0.12338 364.474491,0.24676 546.711731,0.37014 -0.0622,91.841789 -0.12436,183.683563 -0.18654,275.525353 z"
     style="fill:#d9afe2" />
  <path
     inkscape:connector-curvature="0"
     id="path3978"
     d="m 524.5995,259.92055 c -0.0622,91.84179 -0.12436,183.68357 -0.18654,275.52536 -182.23724,-0.12338 -364.47449,-0.24676 -546.711729,-0.37014 0.124359,-183.68357 0.248718,-367.36715 0.373078,-551.050713 182.237241,0.12338 364.474491,0.24676 546.711731,0.37014 -0.0622,91.841789 -0.12436,183.683563 -0.18654,275.525353 z M 52.991313,53.019013 c 14.12181,6.322383 22.975357,23.431421 32.646177,34.615321 8.75785,7.418081 1.909165,28.671356 18.92259,26.655016 8.89619,-0.30706 18.73632,12.11464 25.95643,5.25863 -5.61943,22.07036 33.4602,13.96218 27.51332,38.09277 13.76913,5.53117 24.17429,14.00454 28.84552,28.60383 -6.38037,19.43804 13.72056,19.09598 24.85351,19.24698 3.13845,13.20289 1.88147,22.34495 15.62912,27.29592 1.83666,8.89948 -11.74525,-5.50908 -2.08414,10.31447 -0.19291,6.6809 -10.23321,-6.11378 -15.6842,-1.96896 17.83037,1.65254 11.02587,19.30226 -2.24601,8.38865 9.41231,3.48798 24.57979,14.1708 4.31892,11.90204 3.85125,2.74523 18.07084,1.02316 8.59074,10.38087 -12.0842,-5.20492 11.27463,8.02374 -3.46887,4.32348 -7.01459,7.70789 -10.38981,9.82793 1.14814,1.66694 5.14816,4.82986 11.95395,13.03875 -1.46139,12.31675 -18.9123,-0.76293 -2.62716,-0.99522 -6.8199,13.90596 7.09792,16.13644 -3.92579,12.30119 -11.54318,6.1669 -8.87238,17.46457 -25.59315,23.95968 -20.39962,44.44175 -11.20714,11.49276 -30.39698,10.6181 -26.24094,32.96171 -18.43204,4.20886 -36.79194,8.04441 -39.82381,31.9716 -22.390252,2.94329 -20.663771,49.19894 -26.829665,48.34137 15.658815,-13.76569 5.517629,-42.42593 30.951225,-49.16069 -4.24637,-32.81102 44.93459,-14.99407 37.5265,-42.5651 6.21997,-12.8434 15.41957,-6.06267 25.81996,-16.98928 1.33534,-11.57064 -2.43902,-20.38251 6.59043,-25.60931 6.3547,-9.30641 11.92853,-28.45598 24.07866,-11.98379 12.91758,-7.70656 -5.48342,-27.62318 7.855,-27.05396 20.0743,-4.09118 12.57865,22.1828 12.73658,19.80302 9.52014,-30.36929 4.32532,6.62228 1.00101,16.40556 -6.84582,23.38309 6.19661,-11.36174 5.49913,-17.44805 2.12562,10.15516 3.01415,26.68632 2.25088,7.23695 -3.5657,-11.66356 8.72719,-20.84136 7.18242,-5.41693 15.18768,-18.54243 8.90117,12.86395 17.43269,21.9179 8.97382,20.55769 -2.11919,-3.48443 -2.75118,-11.64293 -5.28372,-19.0259 11.18084,19.52957 0.92633,-5.61585 -0.96321,-19.51184 7.9333,-13.66153 10.61293,3.33394 12.08581,1.58182 7.00822,2.52694 -2.60182,-5.22574 -0.16067,-11.73586 4.07787,-8.25111 -1.785,-18.31806 4.95376,10.38356 19.3671,-7.15824 22.24013,12.93027 11.3804,17.09526 27.46634,-8.81622 34.80383,10.8869 -2.61985,17.84132 25.24812,29.45385 32.02343,43.63 6.97299,-9.62809 30.73053,10.53219 20.66071,22.21197 1.17624,17.65136 12.19304,19.83671 25.72061,17.37846 15.30053,8.82447 18.28295,31.99476 37.54936,30.65595 13.87813,6.27619 29.39516,4.18434 35.32715,19.94141 -4.54637,-17.4848 -23.44491,-15.50685 -36.58038,-22.25449 -18.84806,-1.03875 -20.54749,-24.02973 -37.18414,-31.96735 -17.66373,8.62215 -25.79511,-11.74829 -20.29838,-26.64486 -10.54792,-10.48555 -18.96838,-17.41722 -29.90982,-16.04892 1.78828,-15.43523 -36.8808,-25.11623 -20.4392,-34.39228 3.96887,11.5736 15.4277,-6.27849 14.59967,11.47675 12.2951,7.15629 -5.00345,-19.21004 -10.64128,-7.6223 -8.435,-4.87743 -16.69414,-27.59291 -28.7082,-14.53199 -15.90606,5.73539 -15.02602,-18.06805 -25.30592,-18.84529 -10.61717,0.0905 0.68306,-11.29846 7.66826,-8.91362 15.84795,20.67275 -6.74645,-10.10104 -2.21458,-10.39403 -3.46927,11.01868 -9.05102,-2.17891 -2.89146,-3.23953 2.89927,-15.35186 19.13817,6.74963 21.81046,-13.52295 10.74348,2.00014 27.53669,9.1966 35.85698,16.70401 1.83844,9.50034 9.60049,-1.29174 14.80378,6.78371 5.52783,0.40844 5.06709,15.26084 4.61282,-0.97497 -8.82288,-2.11345 -12.63509,-3.85457 -18.93809,-3.95642 -3.85806,-17.1638 5.79048,-21.35223 15.78984,-4.1952 16.58693,-4.85547 -6.81401,1.98736 -9.88241,-12.67126 -10.69531,-12.62728 -6.53597,24.70558 -18.62793,5.33462 -11.24866,-4.38501 -24.53041,-14.11109 -29.29389,0.23907 -17.08101,-4.6067 -18.20674,-12.0209 -15.78923,-13.46028 1.24473,-1.41543 14.70246,-7.6361 22.47863,-5.85399 2.46367,-14.37062 -5.66474,-26.18989 17.02067,-21.22147 7.01543,-16.0408 20.95233,-25.06762 38.91328,-18.05711 5.55129,-4.59105 12.42673,0.0144 19.61335,-4.50484 4.84941,11.08599 3.78067,18.14024 12.47014,24.83571 -8.79413,22.57443 15.86851,21.35827 25.16909,7.7532 9.00647,6.7339 -6.81383,-5.35066 -9.84798,6.11905 -23.00277,15.75811 -8.51342,-19.1223 -20.87401,-22.16269 -2.39479,-3.88041 -4.32549,-27.45077 -17.90751,-13.81521 -21.3415,4.52261 -10.14408,-24.29314 -2.26461,-35.1517 14.68238,0.24902 28.89501,0.91852 32.1027,-13.39866 20.67456,7.06086 34.65798,-9.15811 30.21427,-27.08615 9.13343,-9.83401 25.98512,-2.19577 26.88311,-22.59442 10.6055,-13.128573 -8.52971,13.29542 -12.75787,14.74486 -29.14561,-6.30223 -5.32442,40.46585 -35.77149,33.80076 -18.5863,-5.29191 -14.81142,20.65309 -37.81394,10.25034 -16.96621,3.13104 -8.74042,21.79396 -15.97884,32.94345 -8.20635,5.63575 -21.29804,5.78616 -27.04006,9.28009 -1.59615,17.46088 -14.82682,-9.16885 1.69152,-11.50876 -11.87515,-9.98723 23.75874,-30.85076 2.00924,-16.43467 -3.75505,11.79439 -11.14817,20.55356 -10.92908,33.34361 14.88042,14.88938 -26.59584,1.16149 -19.16642,20.76919 11.4553,11.21661 -9.82353,8.12505 -16.96215,3.4812 -14.54949,-4.65832 -9.91648,-0.94923 -6.5285,-17.155 8.50415,-9.6095 -15.13383,13.75494 -5.08969,-3.44305 6.21624,-16.29576 -4.48204,8.53122 -0.74363,-11.64827 -3.31774,-12.63302 14.7704,-14.68916 6.84142,-29.20209 15.59751,0.31033 4.70386,-53.51489 6.6243,-19.32713 3.62555,15.4018 -15.55952,15.613 -7.30835,31.99589 -16.7745,-0.14354 -5.1053,37.71234 -15.52596,30.68795 7.64443,-13.06798 1.25769,-22.69265 0.90805,-3.52897 -6.14421,6.36874 -0.57973,-3.57833 -6.96374,-0.25139 -2.72189,-4.54833 -0.46633,12.63153 -3.64716,-4.92199 -3.1546,20.45787 -1.61386,-20.39796 -8.15707,-15.53287 6.86173,13.46842 4.11385,24.61366 -5.09697,6.8218 4.1349,-12.39099 -5.30254,-27.98259 -4.04238,-33.55741 2.79172,11.9323 0.54687,28.25784 6.58854,41.59516 -10.68189,-1.97137 -11.01041,-18.72287 -5.46787,1.10154 0.5532,15.49959 -3.37546,11.91067 -4.71567,8.7564 8.61771,15.95895 -24.76133,-0.0864 -16.3671,-8.52923 3.19847,-28.61498 -26.40613,1.04603 -28.2717,-19.93832 1.4759,-20.00909 -13.55384,-31.88577 -29.40808,-38.46261 -0.494,-20.31953 -7.86507,-19.0255 -24.10787,-23.85631 C 133.04211,119.0835 130.16749,112.9002 119.64491,118.73869 114.21226,104.66082 85.176956,118.01002 93.65569,94.694384 84.406733,77.958638 69.629569,64.523471 55.64694,53.486021 50.662437,52.612607 51.323468,42.119562 52.991313,53.019013 z M 246.07457,215.3798 c -0.475,9.19397 -2.59559,-5.49563 0,0 z m 2.35114,0.73303 c -0.52391,2.72502 -1.19206,-1.97058 0,0 z m -7.48356,0.27638 c 5.2435,9.78497 -3.84991,3.08475 0,0 z m 9.26174,1.90912 c -1.36472,1.92883 -1.36216,-1.93065 0,0 z m -5.94337,0.39958 c 3.83003,9.13715 -3.70721,-1.49713 0,0 z m 31.9195,9.84259 c 2.75641,9.17514 -6.00568,-4.23399 0,0 z m -2.84888,2.08787 c -5.68974,10.71238 -0.52725,-8.44217 0,0 z m 8.44903,10.95188 c -4.89592,5.11548 -2.11509,-3.40365 0,0 z m 2.33964,0.77778 c 7.55113,5.58242 16.39364,10.30474 -2.55817,8.53424 2.1342,-4.80515 -11.15913,-3.37715 2.55817,-8.53424 z m -61.16764,6.05129 c -0.64443,1.03388 -0.85137,-1.90534 0,0 z m 58.72767,5.42728 c -1.32564,1.90096 -0.89731,-1.94434 0,0 z m -0.18088,4.30497 c 0.63652,1.85573 -2.54608,-1.6342 0,0 z m 2.59482,3.9059 c 4.32956,9.55007 -6.83602,-4.81614 0,0 z m 3.09617,1.8977 c -2.56373,10.78242 -1.35938,-4.48487 0,0 z m 4.99326,0.14414 c 11.25051,3.73935 1.44771,5.90458 0,0 z m -9.98295,9.65867 c -0.88317,1.88897 -0.88056,-1.89019 0,0 z m -57.10642,7.77585 c -3.11048,1.89877 1.56968,-2.96879 0,0 z m 54.05962,1.3332 c -0.58515,3.38623 -3.57643,-2.33614 0,0 z m 4.46334,1.50029 c 4.1054,5.29451 -7.15911,-2.2333 0,0 z m -1.06972,2.84428 c -0.88317,1.889 -0.88057,-1.89019 0,0 z m -2.66985,0.53633 c -1.32562,1.90096 -0.89734,-1.94432 0,0 z m -3.15156,1.07053 c 3.3914,5.35678 -6.81399,1.2969 0,0 z m -45.59512,6.17841 c -3.68577,2.63521 0.88293,-2.80629 0,0 z m 46.26957,1.58462 c 1.55462,4.62357 -3.98891,-3.44512 0,0 z m -29.56799,7.70086 c 10.19759,6.44531 -6.49275,10.67453 0,0 z m -7.14062,0.81534 c -4.68184,12.05912 -2.75136,-3.1038 0,0 z M 257.086,304.8201 c 3.78512,6.1322 -5.50125,1.23825 0,0 z m 4.2536,5.31448 c -1.53299,12.01024 -2.79677,-8.17551 0,0 z M 150.89998,117.96733 c 1.6079,0.61261 0.008,-0.97484 0,0 z m -5.63303,7.16248 c 1.36216,1.93066 1.36472,-1.92882 0,0 z m 195.95221,45.73967 c 3.43586,13.01664 -0.24553,-6.48075 0,0 z m -85.84976,3.71571 c 0.65861,-4.72791 -0.4594,-4.05649 0,0 z m -0.51181,4.46414 c 1.19204,1.97058 0.5239,-2.72503 0,0 z m 18.86275,2.43439 c 1.19188,0.9687 0.599,-1.73948 0,0 z m -65.62626,1.16144 c 0.5796,3.69543 1.81225,-1.54805 0,0 z m 48.53647,1.47998 c 2.27722,1.88939 -0.67782,-2.65078 0,0 z m 8.54198,5.39307 c -2.00494,4.79762 3.65214,-4.85647 0,0 z m -4.62267,1.47674 c 0.54019,4.85048 2.20463,-2.19654 0,0 z m -8.03433,2.13641 c 12.20859,6.33382 -3.11736,-3.56554 0,0 z m 8.02879,8.49177 c -3.71348,24.91398 3.85715,-15.12293 -1e-5,0 l 1e-5,0 z m 21.41122,3.51237 c -0.3664,4.69155 1.95927,-4.76507 0,0 z m 2.1304,15.90386 c -3.64428,2.01261 5.94362,-2.57523 0,0 z m -141.73149,0.1457 c 0.84709,2.79944 0.85085,-2.79831 0,0 z m 140.9438,7.96116 c 1.53964,2.02311 2.73218,-2.90188 0,0 z m -122.79652,-0.16284 c 1.50553,0.932 1.29075,-1.70588 0,0 z m 4.27042,1.12781 c 1.19188,0.96871 0.59899,-1.73949 0,0 z m -4.45095,2.6559 c 0.9133,1.88709 0.36514,-1.9042 0,0 z m 130.80266,3.6182 c 1.51909,1.00012 0.74409,-1.76689 0,0 z m 6.04994,1.3366 c 0.74013,1.50626 2.10832,-3.90609 0,0 z m -105.80289,2.9799 c 3.54083,0.78798 0.67382,-0.81775 0,0 z m 13.20668,1.55233 c -3.4963,3.79799 5.47894,-3.27439 0,0 z m -17.03542,2.10132 c 0.24212,2.80927 0.87598,-2.81184 0,0 z m 136.67554,3.62218 c 1.19185,0.96873 0.59901,-1.73951 0,0 z m 20.28633,2.67265 c 3.03507,2.59998 -1.00222,-2.50774 0,0 z m -124.22067,0.45403 c 0.88056,1.89019 0.88317,-1.88897 0,0 z m -18.34483,8.57691 c 6.52354,4.22674 0.88523,-2.12397 0,0 z m 91.23045,11.75107 c 1.6079,0.61261 0.008,-0.97483 0,0 z m 6.46538,12.01389 c 0.88061,1.89017 0.88312,-1.88899 0,0 z m -4.98303,-0.0351 c 1.82158,3.43383 0.5596,-2.14447 0,0 z m -75.81651,4.3474 c 5.81527,-3.05902 -1.26199,1.41357 0,0 z m -16.47743,2.07948 c 2.1171,3.88744 -0.69297,-3.82357 0,0 z m 119.92044,4.65535 c 0.76891,2.83497 1.26134,-2.81171 0,0 z m -43.06815,0.50898 c 1.58852,2.76184 -0.075,-2.80931 0,0 z m 34.39353,0.66527 c 2.36917,0.73517 0.37878,-0.87398 0,0 z m -10.61127,1.27011 c 2.11283,0.83036 0.1035,0.5038 0,0 z m 5.62711,0.34093 c 2.3692,0.73517 0.37878,-0.87399 0,0 z m -11.12955,-0.14914 c 6.6433,6.7146 2.36254,-0.55494 0,0 z m -71.54565,4.83253 c 2.92521,2.65111 -0.20561,-2.86151 0,0 z m -46.271,-0.30039 c 0.91336,1.88706 0.36508,-1.90423 0,0 z m 2.57244,0.97711 c 2.30268,3.21139 1.15391,-3.43562 0,0 z m 82.84489,8.49809 c 0.84706,2.79943 0.85085,-2.79829 0,0 z m 9.60982,0.51692 c 3.40235,9.0637 1.9164,-2.21991 0,0 z m -20.64702,4.35059 c 1.04243,1.93797 0.0904,-2.65932 0,0 z m 28.99747,11.01404 c 3.52574,5.14744 -2.15213,-5.50442 0,0 z m 2.67138,2.47868 c 1.78426,8.68782 2.48678,-1.69474 0,0 z m -17.44301,3.43642 c 0.91333,1.88709 0.36511,-1.90421 0,0 z m 86.31135,3.28726 c 5.75237,11.95848 4.02948,-0.1736 0,0 z m 9.78525,4.2637 c -1.55684,6.91433 3.32,-9.03241 0,0 z m -70.61965,-0.26888 c 2.69645,4.8849 -1.55561,-4.70667 0,0 z m -19.78695,-0.0134 c 3.32259,4.96094 -1.75847,-4.70991 0,0 z m -40.76842,8.35406 c 0.17624,5.20552 1.39144,-4.28513 0,0 z m 34.70853,4.99175 c 4.43702,5.95543 0.12981,-2.92213 0.53774,-2.61852 l -0.53774,2.61852 z m -35.54574,0.64501 c -0.009,3.11056 1.85458,-4.72544 0,0 z m -1.69697,2.23401 c 2.20089,0.29105 1.22572,-2.69211 0,0 z m 66.2041,11.89706 c 0.86945,-0.43534 -0.87095,-2.24534 0,0 z m -67.1232,0.4679 c 1.6079,0.61261 0.008,-0.97483 0,0 z m 80.13824,19.57874 c 1.93557,3.70359 1.07076,-0.873 0,0 z m -80.87548,2.77183 c 1.19255,3.09718 -0.68082,-5.63476 0,0 z m -0.63811,4.75758 c 1.19187,0.9687 0.59899,-1.73949 0,0 z m 93.47092,5.16566 c 4.04964,6.76445 -1.83731,-4.93457 0,0 z m -93.96179,-0.22 c -0.91115,6.90452 2.28168,-4.47063 0,0 z m 100.13911,13.95655 c 1.19205,1.97058 0.52392,-2.72504 0,0 z m -1.24829,3.73434 c 0.347,1.99961 1.36249,-1.95633 0,0 z m 9.06279,19.91716 c 0.91336,1.88706 0.36508,-1.90422 0,0 z m -115.8672,16.60376 c 0.91336,1.88708 0.36509,-1.90421 0,0 z M 82.603565,473.4882 c -6.870568,8.80769 -17.961938,11.08344 -0.806347,4.07587 2.147468,0.68887 0.833654,-6.76596 0.806347,-4.07587 z m -12.058301,16.86352 c 1.424788,0.98428 2.313284,-7.42194 0,0 z"
     style="fill:#9b5db2" />
  <path
     inkscape:connector-curvature="0"
     id="path3976"
     d="m 524.5995,259.92055 c -0.0622,91.84179 -0.12436,183.68357 -0.18654,275.52536 -182.23724,-0.12338 -364.47449,-0.24676 -546.711729,-0.37014 0.124359,-183.68357 0.248718,-367.36715 0.373078,-551.050713 182.237241,0.12338 364.474491,0.24676 546.711731,0.37014 -0.0622,91.841789 -0.12436,183.683563 -0.18654,275.525353 z M 50.924452,23.890287 c -1.012303,15.444939 -1.848583,32.762986 14.531457,37.607327 4.691842,18.639051 31.110508,23.116498 24.313469,44.972946 10.518622,10.0955 21.536132,8.36061 29.055092,15.96364 12.94111,-1.92047 9.19025,-2.91285 13.62418,9.64091 15.40274,4.79684 23.49363,14.55148 28.17836,27.43307 12.4279,7.42567 21.09001,13.85652 26.81185,29.78512 -5.61285,18.58705 12.29017,17.37752 17.71872,27.93456 0.0516,13.26134 20.4065,24.10946 1.17619,16.44769 10.19073,6.98469 -8.65137,10.71465 -16.38492,6.03728 -5.26886,11.64159 -16.00671,-4.07867 -23.37879,5.19819 -7.69821,-9.1626 5.32377,-23.23899 -12.94461,-13.96371 -16.1926,-10.45051 -0.0121,-23.06696 -15.17022,-33.47247 -9.77744,-7.50771 -26.58119,10.10886 -36.03297,-0.20061 0.57477,-10.11805 -2.823505,-42.89716 -17.153068,-23.23297 -16.277008,3.7528 -14.946583,-34.71529 -29.7855,-16.02498 9.415903,13.15672 -7.152589,25.96448 -13.287535,9.01044 8.490944,21.31585 21.741338,1.81557 15.509368,-11.75389 18.09532,-7.6764 8.203484,21.38538 25.193046,20.07075 26.882749,-23.88464 9.268604,40.85134 31.994949,23.8964 15.87859,1.55663 22.99967,-7.06519 32.09566,10.67478 -13.36665,8.996 5.0687,24.29744 12.97647,21.77644 2.18446,13.6092 9.08415,17.69464 19.39509,12.23783 8.73367,5.4295 15.68807,-6.08022 25.51547,0.11408 16.79189,0.70945 0.89915,8.0757 -8.6314,1.42648 -0.92897,1.52797 15.28762,6.35294 8.28086,8.94306 16.39607,10.51851 -4.53675,-0.44839 -13.38524,4.22322 -20.0568,-4.1263 -0.4518,30.83536 -15.73015,7.23676 -6.66932,-10.32976 14.19907,27.53565 8.14062,1.78852 -8.46528,-10.96938 18.14052,-1.82551 18.53799,-4.86473 13.63261,-6.9027 14.35059,14.99775 1.56717,14.50058 -7.05818,0.0774 15.10164,1.41067 -0.11199,6.31638 10.2511,6.63804 -17.19176,3.84465 -17.12091,18.32787 -11.86689,-0.69037 -9.22346,-31.25797 -24.42753,-10.95372 -2.81948,-0.0964 20.61907,-9.7783 16.96032,9.98012 8.94047,11.55354 23.89654,-27.1531 26.03038,-2.75238 -6.99131,-4.83987 -22.75975,25.13881 -6.60995,5.4801 0.41269,-9.96618 17.83619,-5.53241 1.42661,1.74679 -11.71548,14.03001 -22.51613,27.75493 -23.08414,44.35514 2.21885,10.05973 -14.73235,11.09525 -21.71101,17.17318 -1.42015,14.44698 -3.17359,24.13973 -19.66636,24.37516 -11.75041,-2.15777 -19.89574,15.26929 -24.1009,27.52104 -15.119417,3.35467 -21.764164,24.84849 -20.851574,39.6371 -8.865222,12.2888 -15.074011,22.42737 -22.783574,30.36999 -9.199917,4.16761 8.75859,2.31793 5.859358,-6.99457 10.615824,-7.65482 22.683212,-20.89413 21.585888,-37.66896 3.13469,-16.78098 9.370672,-15.37229 20.091852,-20.66926 3.17006,-18.96731 9.15585,-23.26441 22.10433,-28.39333 18.52087,2.73489 16.63887,-11.19094 19.36825,-24.06737 16.64752,-9.15694 -7.64984,22.61206 9.46745,26.65379 -8.74167,10.01619 -18.17737,14.44996 -13.68223,25.94215 -10.27457,5.5025 -5.93883,25.68593 -3.96046,4.76822 10.8698,-8.81543 -1.4561,-19.45424 15.9388,-26.12981 2.89696,-9.88092 -10.13725,-18.28067 0.94651,-29.9521 5.03173,-10.05556 7.85717,-3.93307 15.01071,-12.8603 3.08056,13.45196 -3.17211,-23.17547 2.69861,-18.42012 1.74866,1.54075 17.1942,-26.16546 19.83005,-21.63871 7.90563,6.50674 19.55246,-8.72035 9.89812,6.99619 1.39678,9.1307 4.11343,-30.94705 11.92382,-19.21954 -4.94116,7.46193 -6.59963,21.49874 2.81343,3.21379 0.77587,-0.95759 0.0687,31.8625 0.27618,12.07583 -0.39096,-9.36205 8.42806,-8.47332 3.60295,-0.0604 6.6604,-6.91566 -12.45055,37.82213 2.37525,9.3843 5.90896,-17.35859 -0.0695,21.30499 -5.7418,25.75486 -2.09708,11.17695 5.66477,18.35692 -0.32189,29.97814 0.18915,17.7277 -4.62637,32.81399 -8.86467,49.26848 -12.47547,14.58814 13.72544,22.08765 2.59983,31.54119 -9.28939,20.75838 6.44991,-0.3145 4.76714,-8.33035 -11.74825,-6.69504 -8.32311,-18.41425 -5.28095,-30.99255 6.0628,-14.70583 8.33649,-24.43358 9.25643,-38.06533 -0.61207,-13.00507 1.62,-27.9581 4.74237,-43.34331 19.51877,10.48592 -2.34754,-37.57783 8.29489,-27.34296 6.23352,9.71452 22.2855,28.18138 2.50806,31.54429 -17.56447,6.31198 0.60275,28.67989 9.01518,10.71257 10.89657,-16.5751 12.24578,-1.22405 8.84129,10.19351 5.47906,11.03242 1.70026,31.2329 3.23262,6.74507 -6.92553,-10.6521 4.43535,-32.37802 4.66316,-15.88802 3.12539,-9.93621 -17.59392,-47.09133 -0.3129,-24.37332 5.38761,11.97254 5.09331,-1.51878 12.92911,15.07343 3.02209,10.6023 0.8708,22.04087 2.68785,4.46804 -2.85268,-13.85555 -27.40372,-38.52331 -18.39231,-40.85234 2.27053,13.72904 12.57761,0.81557 11.27578,17.53929 5.79334,17.76715 -3.32046,-23.64474 8.55549,0.81725 9.46632,7.60812 2.15036,12.82701 8.48752,9.2385 11.61425,6.6918 -13.55659,19.46527 3.89945,31.0241 15.38108,-4.47898 5.20696,26.25656 21.75312,26.38344 7.36497,13.88324 2.17535,28.20201 15.0588,41.0812 -7.83741,8.84995 11.26354,20.36316 -1.93649,5.4054 6.62451,-15.48388 -14.71915,-23.69126 -7.53681,-39.494 -7.54444,-15.42521 -18.75635,-14.34375 -18.10108,-32.8907 -13.79742,-2.63959 -18.36858,-17.28238 -7.0135,-26.55779 -9.27354,-12.65789 -6.95682,-11.56021 -6.42542,-12.92792 -12.54645,-8.51519 -9.18253,-23.6577 -2.14646,-15.68845 -13.18318,-13.92515 16.87608,5.83919 23.35413,0.43934 10.17496,15.97709 8.37819,18.99557 24.47776,28.81562 0.24113,8.86385 6.13551,-2.72212 3.50389,8.08028 6.21926,6.75085 12.03284,12.94441 19.50445,5.16401 12.28659,16.68242 12.62958,6.76501 12.40204,23.97531 0.66349,16.03531 10.39478,24.36845 24.67957,18.41872 16.4661,14.89619 24.53867,33.48287 48.62867,34.98663 12.93883,2.19793 19.69222,4.78285 25.99868,16.72492 8.22642,-2.88533 -8.37046,-6.87687 -8.19443,-16.1369 -15.58,0.0569 -28.90003,-9.78566 -44.14193,-14.68577 -4.6281,-15.27376 -18.48783,-27.04643 -31.9881,-32.29595 15.56791,13.18284 -19.79171,8.88379 -10.42282,-6.4503 9.36339,3.30406 -1.74196,-17.69491 -9.72653,-24.19232 -4.42507,0.16539 -6.34389,-14.21289 -17.45123,-2.8232 -1.03585,-11.28248 -21.29787,-22.07354 -24.18318,-34.88068 6.96822,9.64989 15.2078,-4.22091 17.32188,11.37372 9.53595,-2.67464 13.72168,12.54887 20.24945,-0.0707 11.01268,15.02017 2.9571,-8.17334 -4.24071,1.49017 -3.26315,4.18282 -14.12094,-5.72466 -17.27981,-8.01949 -4.21488,-10.53816 -19.35983,-0.0397 -24.4964,-17.6337 -9.89178,-8.56512 -19.78534,6.06434 -27.95131,-8.09096 -5.09027,-5.08752 -10.59775,-23.60822 -0.0784,-7.04519 4.447,-1.25488 11.00946,2.93405 21.0155,-0.98359 -0.92489,-14.71669 26.16164,13.07674 20.34322,1.34286 -8.63926,-2.29806 -13.24503,-10.65971 -22.85227,-6.05891 -6.19037,-3.06853 -17.92847,-0.61735 -10.7588,-9.26581 3.8062,-4.40251 25.12696,1.44306 4.2531,-3.28305 -16.78845,2.88783 -8.26553,-7.13893 -6.36115,-5.26506 -0.81925,-1.11694 5.10378,-10.75016 16.05644,-2.0192 12.79881,-12.49637 24.38587,4.84783 31.63858,9.30238 7.84729,-4.32134 14.59931,4.49635 15.05099,14.17351 7.42697,-18.87921 -16.58688,-16.49929 -18.43556,-20.24663 -6.72732,-23.608 8.14175,-6.69838 18.01111,-1.068 3.34006,-6.60216 13.79124,16.6081 14.58102,-1.74954 -0.74646,0.73476 -7.91522,12.63312 -10.8482,-2.68676 -10.18048,6.75179 -30.88893,-20.82989 -11.1413,-26.23861 5.529,-14.14836 19.26747,17.75862 22.66522,-0.39675 11.6227,2.215 11.61149,28.4436 26.1154,8.95365 8.20254,-6.24043 14.91477,-17.87901 24.56534,-13.23929 16.69192,-3.75455 -4.92661,-0.17891 -10.08154,-4.02662 -19.73284,18.53702 16.12316,-24.12692 -5.69837,-1.69949 -2.3342,16.10684 -24.29364,13.55193 -15.72127,-5.40054 -6.15936,-10.54512 -9.79636,-9.80647 -10.28015,-23.68555 -11.2097,-6.50581 -34.3679,10.37111 -24.19736,-15.37837 -0.76964,-10.75389 18.32887,-18.32684 4.30062,-15.07789 13.10637,-10.2797 27.83921,8.42848 33.21547,-10.01091 2.67771,-11.07647 19.72368,4.59016 31.23409,-12.91005 6.45283,-7.28523 -6.15409,-32.24757 18.308,-24.84205 5.6965,-16.99308 21.12145,-19.85689 30.13708,-31.645044 -10.07478,10.558484 -26.78845,9.413944 -31.30515,27.590164 -27.31844,-8.64729 -16.28247,29.21955 -24.67578,30.84081 -8.27994,1.36575 -13.22532,-3.79095 -27.99225,4.2401 3.37651,18.09465 -25.75258,4.79736 -32.62772,9.89347 5.02904,-16.30846 16.64619,-19.94102 31.50249,-27.35358 5.86443,-8.30274 -14.78069,-24.56426 -1.93629,-8.50492 9.51227,16.16089 -25.90544,9.00919 -23.07285,24.97018 -17.04144,7.33716 1.60156,47.93218 -23.72917,44.99165 -6.56495,8.34479 -19.21903,2.28799 -18.06589,12.14172 -14.29903,-6.28552 9.84986,-13.87083 1.78351,-24.25548 4.44963,-8.3915 19.25516,-16.67123 13.52953,-22.87826 -4.04179,11.61727 -15.58497,21.32583 -19.03527,34.66169 -7.90395,10.82558 11.46572,24.25884 -11.75653,21.99428 -8.13109,-4.92369 -24.19196,22.7334 -15.27717,4.19669 13.59811,-8.93004 9.51157,-7.62622 -0.15229,-1.75396 -14.43916,-1.9778 -0.82418,-8.05561 0.84923,-11.83291 -12.71123,11.55965 -21.31564,13.17536 -4.94413,0.22838 11.5496,-6.11034 32.75987,-12.25439 26.15857,-30.32204 10.4551,-11.36117 10.85417,-27.89538 30.14983,-28.96713 7.11298,-6.99064 0.65231,-19.91203 1.94178,-2.08754 -21.80896,1.5265 -22.14124,18.91463 -33.29939,31.59199 6.75372,15.15757 -11.23826,22.57902 -22.14926,25.46206 -21.65397,24.41726 -3.63568,-8.03933 -8.74286,-3.40745 -14.68053,27.15317 4.0797,-19.83803 12.35567,-24.83559 -7.11443,-20.67511 -5.90688,-45.61135 16.44155,-56.9535 -3.46755,-3.37352 -25.86092,21.5366 -22.12979,34.80481 5.46956,10.57153 5.54084,34.10513 -7.95205,37.52885 9.44816,-22.16014 -16.1772,28.42106 -6.78786,3.5185 5.61012,-13.23976 1.9664,-22.19163 11.33745,-33.90654 -0.38046,-15.38215 -1.07143,-29.15627 1.77449,-35.81854 -8.81447,8.59896 -1.72952,43.37357 -8.31648,38.267 -7.70583,4.40553 -3.59769,29.40742 -12.33814,20.72564 -7.90306,25.00892 -10.59097,-3.40255 4.98881,-8.50386 -2.15106,-11.12699 -5.62908,-21.88475 -6.37683,-28.24294 -1.7597,9.17654 10.69649,31.18695 -3.33732,31.02887 -1.7345,-25.18814 1.62262,21.3724 -8.10034,-1.5953 -2.76265,0.67116 1.63331,-31.10059 -2.21603,-28.5276 2.8248,15.36121 -6.82677,23.47343 -3.98101,36.10277 -5.36103,6.69511 -6.34051,-13.07989 -5.46285,2.37679 -6.8051,-12.16133 6.67652,-26.20776 -7.43444,-28.00022 5.73015,4.96509 12.10544,11.61907 1.10618,14.07613 -2.84949,-5.94838 0.40435,-19.25302 -5.23703,-8.13205 -3.35819,-15.4818 -8.54216,-26.54472 -20.68524,-36.6891 2.4896,-12.6817 1.09788,-34.705797 -8.77975,-39.405965 18.87705,17.363565 -2.51467,44.624005 23.30141,55.272205 2.29166,16.63748 0.48788,32.18772 5.70066,48.25221 1.03259,19.5999 -12.28162,-38.51901 -5.51426,-6.78 3.97191,14.15246 -0.61049,12.26513 1.0873,11.36738 4.32615,10.96815 -1.09018,20.99625 -2.16141,4.55647 -1.3167,-5.14421 0.49911,-19.11435 -8.00946,-22.86142 1.39022,-9.62009 -18.67912,-38.06638 -6.27811,-20.34697 1.63589,15.70446 7.13885,23.21041 13.27763,34.90715 -5.60849,2.45162 6.1321,22.40855 -3.9302,13.84042 -1.64003,20.80892 -10.15565,-18.9621 -12.32176,-26.3121 5.02557,-14.02941 -8.04333,-23.27128 -7.82244,-35.09461 -3.27372,13.88607 14.42611,20.36453 6.05823,34.07509 14.03422,19.33547 -30.16796,21.66906 -19.48347,-1.26209 -4.95558,-13.40918 -14.32644,-21.4295 -11.68276,-20.9775 -23.51842,-3.2087 -16.83025,-31.69907 -31.49708,-42.44638 13.94766,-5.33747 11.8277,-23.983028 -5.85533,-24.2172 -9.10311,-9.696006 1.8293,-20.011886 -9.57355,-30.374619 10.88384,-9.497583 -11.18591,-45.694073 0.76378,-18.924397 5.88026,12.065274 -9.21277,24.321028 6.00289,34.628672 -13.80316,19.880444 32.10536,17.50152 12.39494,35.267824 -16.93182,6.53934 19.53802,19.54407 -5.02897,16.35346 -15.21183,-1.09372 -9.63639,-26.71946 -25.71955,-16.19769 C 115.13689,101.99333 85.603563,119.44615 94.122078,93.498499 86.537613,74.59878 69.251487,68.211715 57.994375,53.197811 46.318722,55.157276 55.709624,16.421735 50.924442,23.890247 z M 233.83737,170.73482 c 9.53909,36.2185 -14.24605,-7.90475 0,0 z m 21.53699,12.3228 c -1.21909,5.54849 11.71211,4.61268 -0.81017,8.76739 0.21129,-2.00922 -7.49189,-18.87717 0.81017,-8.76739 z m 0.54393,6.45432 c 0.8722,2.81299 0.24591,-2.80895 0,0 z m -16.10101,-7.25896 c 2.18626,25.1815 -4.62884,-4.45855 0,0 z m -2.76252,0.78292 c 2.50456,8.2613 2.07781,29.76169 -1.78198,8.6159 -0.26682,-0.98206 -4.21007,-14.31845 1.78198,-8.6159 z m 5.27626,4.94237 c -1.15123,3.74777 -1.26405,-3.27998 0,0 z m -0.2961,4.51577 c -1.12203,2.93145 -0.55497,-3.70084 0,0 z m 18.43849,1.67297 c -0.33764,10.58021 -3.99618,-5.19319 -0.12196,-0.59283 l 0.12196,0.59283 z m 3.98478,-0.9805 c -2.17,6.23971 -3.341,-1.87476 0,0 z m -19.71194,0.59718 c 4.66839,10.55248 -4.47034,-4.24768 0,0 z m 12.03499,1.5138 c 1.04784,9.26285 -10.53663,-3.9893 0,0 z m -6.20706,1.80231 c -3.24365,4.1136 -2.1123,-4.62756 0,0 z m 28.11818,0.68792 c -3.62922,12.93698 -7.45621,0.84863 0,0 z m -9.83835,1.41942 c -0.87597,2.8118 -0.24211,-2.80925 0,0 z m 113.23864,5.63029 c 5.91628,9.6607 3.1143,18.61949 12.83389,24.51922 -6.51614,16.7313 6.63041,19.34095 12.7731,19.67691 -9.93525,12.50196 -20.66738,12.74813 -24.28108,-4.44256 -10.67825,-5.66112 -11.23297,15.43215 -20.17307,-4.00426 -14.49875,-5.16511 -17.97796,15.72013 -25.5623,23.92646 -13.22042,-7.77238 -21.54394,1.62299 -32.2064,-6.26029 -8.27635,19.23537 -15.72784,-7.08046 -0.17361,-4.05876 9.23178,-6.46415 -13.63799,2.29299 6.76894,-8.44545 0.32284,-20.92907 9.79653,17.87641 14.49703,1.18295 -3.71522,-11.994 26.59077,-5.11885 1.59536,-8.43298 -6.23374,26.61919 -19.41867,-9.76882 0.96254,-9.73477 -5.72234,-11.47792 16.1149,-24.84505 30.97429,-20.9136 8.09242,-0.06 13.21657,1.4768 21.99131,-3.01287 z m -27.18233,19.95579 c 0.90913,1.9404 1.19441,-3.12933 0,0 z m -4.84976,1.63144 c -6.79719,11.18523 4.72577,-1.96589 0,0 z m -19.10267,5.54653 c 1.73987,-0.73903 -1.72106,-4.09807 0,0 z m -15.47078,9.54697 c -0.36494,2.89504 2.14641,-2.20731 0,0 z m 12.46754,6.96841 c 1.81422,1.99494 -0.53639,-1.84563 0,0 z M 210.31144,204.90702 c 8.01402,10.37445 -1.22985,37.60348 -3.91251,12.1045 -8.65306,-9.10287 -7.31196,-13.34529 0.79367,-8.98479 -6.44018,-2.04927 0.0507,-4.37201 3.11884,-3.11971 z m -0.67943,6.90621 c 0.88055,1.8902 0.88315,-1.88898 0,0 z m 71.68428,-2.32734 c -1.10079,6.13661 -8.73057,6.52614 0,0 z m 11.23852,16.22479 c 1.77136,13.18773 -13.97455,6.53964 0,0 z m -5.69593,1.49171 c -1.44741,2.85154 -0.23497,-2.87118 0,0 z m 33.10117,0.80677 c 9.95688,3.07745 -11.29617,10.21064 -2.65299,2.27821 -8.92615,7.30567 -5.67639,-5.65008 2.65299,-2.27821 z m -11.04458,0.53248 c 0.98651,2.98308 -2.69377,-1.73377 0,0 z m -6.61314,1.17189 c 0.35919,4.2912 -5.03634,0.003 0,0 z m -139.13149,-0.17389 c 0.30209,1.64625 -4.52682,-0.0323 0,0 z m 52.50658,0.85635 c 1.27967,3.72273 -2.64237,-2.85924 0,0 z m 96.71447,4.39315 c 3.27084,10.03635 -9.25849,-5.88514 0,0 z m -9.52061,-0.84925 c -0.19458,1.96323 -2.92649,-1.74224 0,0 z m -13.66734,2.99451 c -0.55337,3.4854 -2.13717,-3.14269 0,0 l 0,0 z m 14.10515,0.9019 c 12.54478,12.24851 -16.11331,-0.85125 0,0 z m -11.47478,0.63852 c -0.59902,1.73947 -1.19184,-0.96874 0,0 z m 6.03708,12.27843 c -0.92609,3.10088 -1.11485,-1.82513 0,0 z m -0.0421,4.64139 c -0.76067,1.95442 -0.86657,-1.54863 0,0 z m -85.25073,0.27862 c 0.2698,2.55426 -3.80356,-3.08221 0,0 z m 96.50297,5.80562 c 6.41939,3.84208 22.52836,4.46606 4.47629,10.60339 -1.97723,-2.4387 -15.82601,-10.82596 -4.47629,-10.60339 z m 22.79068,2.0777 c 24.61165,11.19239 -19.02224,1.46811 0,-2e-4 l 0,2e-4 z m -118.92766,14.5841 c -2.06705,5.51687 -2.06242,-4.2287 0,0 z m 80.46291,2.61061 c -0.22997,2.09589 -1.90806,-2.11021 0,0 z m 5.4166,4.84689 c -2.2659,7.07312 -2.13554,-6.63895 0,0 z m -88.52895,-1.65745 c -1.23893,1.67299 -1.48356,-0.91813 0,0 z m 1.93131,3.15404 c -3.15569,6.42631 -4.964,-2.12296 0,0 z m 79.57225,4.14908 c -0.85085,2.79831 -0.84709,-2.79944 0,0 z m 17.44048,0.28088 c 6.16813,11.61686 -27.14791,-0.36742 -3.06726,0.46649 l 1.99546,-0.93536 1.0718,0.46887 z m -87.19287,9.33144 c -7.5641,14.82844 -12.87517,-2.81896 0,0 z m -13.89984,2.40734 c -1.45546,4.81306 -2.14327,-3.60408 0,0 z m -2.89372,-0.0249 c 1.57563,11.62597 -15.12582,3.52734 -16.46932,19.21536 -1.86344,-9.11252 11.42272,-15.26933 16.46932,-19.21536 z m 4.25389,2.58959 c 0.57865,15.74484 -10.26353,0.89004 0,0 z m 73.95811,2.31202 c 6.12286,13.57975 -6.11054,-3.40697 0,0 z m 12.98756,-0.14588 c 6.52143,9.58596 -10.4976,-0.19699 0,0 z m -17.12297,0.5676 c 6.10769,8.10804 -4.67598,12.0923 0,0 z m -68.56725,2.8451 c -1.37585,15.32928 -3.57304,-5.9667 0,0 z m 93.12402,0.93321 c 6.11075,7.8504 -8.06815,-0.20442 0,0 z m -79.37387,1.42792 c -1.85165,4.42069 -0.4307,-3.10853 0,0 z m 91.91888,0.93783 c 4.103,8.18798 -10.76923,-2.81246 0,0 l 0,0 z m -28.29625,-0.55083 c 3.48786,12.46607 -9.44521,-2.17637 0,0 z m -12.2816,2.86326 c 3.34744,8.6897 -4.75103,-7.92629 0,0 z m -76.9695,-1.26567 c -0.0674,15.83372 -15.33886,14.16964 0,0 z m 72.51287,1.36378 c -1.34575,0.89815 -0.36617,-1.09358 0,0 z m -17.82624,2.58067 c 7.02218,26.56895 -16.49196,-10.26477 0,0 z m -6.79445,-0.97571 c 1.60606,20.59017 -4.14274,-4.33041 0,0 z m 66.89348,-0.086 c -1.08569,7.19831 -15.9456,-0.3792 0,0 z m -30.4648,-0.0146 c 9.70773,15.86558 -13.73498,-3.80916 0,0 z m 35.8416,0.21817 c 9.97366,10.67135 -0.37,8.28539 0,0 z m 3.65501,1.51222 c 2.35479,7.19033 -5.49968,-3.49477 0,0 z m -48.54068,-0.32872 c 0.92838,3.72548 -2.85629,-3.64926 0,0 z m -17.29393,3.68836 c -0.21184,9.43434 17.44666,25.42123 6.56072,29.41389 -7.58651,2.49462 -20.08084,27.03647 -23.80914,8.95468 -0.0519,-13.71012 28.21762,-6.84401 15.29806,-21.24276 8.39488,-1.49765 -6.12721,-16.59493 1.95036,-17.12581 z m 10.60906,1.55394 c 4.87203,15.84728 -7.20728,-6.65711 0,0 z m -4.17523,0.90715 c -0.0534,2.60354 -1.19961,-1.90652 0,0 z m 66.85863,4.39369 c 12.65874,17.64819 -12.63545,-9.37671 0,0 z m -41.23593,-1.60387 c 10.64024,9.91111 -7.22428,-2.95262 0,0 z m -98.9471,0.69379 c -3.61232,12.30065 -5.3745,-2.82289 0,0 z m 99.87097,2.74061 c 9.31517,13.03571 -5.3296,-0.25283 0,0 z m -49.85571,1.72926 c 11.76121,26.55104 -20.80865,5.70966 0,0 z m 32.02494,-1.23831 c 9.80368,6.436 -10.20253,3.6837 0,0 z m -90.97455,6.90091 c -0.67471,7.27662 -3.7808,-3.68159 0,0 z m 157.02442,5.74781 c 5.8857,8.07518 -7.08881,-3.43753 0,0 z m -107.68367,12.30862 c 2.32791,18.50476 -7.57162,5.35614 0,0 z m 148.71072,23.01464 c 1.21352,9.86246 -4.23249,-4.43031 0,0 z m 29.01807,24.5486 c 2.74384,6.50737 -5.58965,-6.18673 0,0 z m 3.95134,4.71136 c 1.02804,3.53576 -2.29485,-4.35454 0,0 z M 267.02239,85.896966 c 0.52022,2.725733 1.19473,-1.968961 0,0 z m 142.36478,1.460476 c 2.35246,3.010433 -1.28655,-3.553642 0,0 z m 2.91728,13.035708 c -12.91948,22.81668 1.26563,7.26911 1.32663,-8.714744 -0.42061,2.908176 -0.80558,5.821746 -1.32663,8.714744 z m -78.96679,-6.917855 c -0.59193,4.717091 2.27172,-5.099803 0,0 z m 146.06904,0.660874 c 0.004,3.927404 1.6806,-4.558463 0,0 z M 71.066395,108.39736 c 1.323041,1.90276 0.89998,-1.9431 0,0 z m 329.214105,4.21491 c -2.05535,3.44167 3.17415,-2.79474 0,0 z m -310.532041,2.25537 c 3.454229,2.29418 -1.100046,-2.27025 0,0 z m 306.383671,5.91261 c -1.58323,4.12599 6.04675,-8.36587 0,0 z m -137.15757,1.21455 c -0.78902,6.37091 2.06648,-7.9162 0,0 z m -1.90444,8.32299 c 1.66641,-1.35408 1.23024,-7.45331 0,0 z m 29.14335,-1.26209 c 1.5078,0.942 0.22179,-2.50352 0,0 z m -30.02696,5.57534 c -5.19973,25.94707 0.69371,5.62566 0,0 z m 169.83534,5.87325 c 1.49335,0.73486 -1.40664,-2.5032 0,0 z m -159.2242,2.48603 c 1.22824,17.23736 4.06468,-4.29547 0,0 z m 153.92845,8.73536 c -1.15094,3.41856 3.60895,-4.04109 0,0 z m -192.19778,12.94758 c 0.90875,1.91967 1.53214,1.18512 0,0 z m 30.46584,6.58816 c -1.04116,11.38518 1.68465,-4.0425 0,0 z m 174.74765,37.58541 c -1.94504,10.18958 -1.9165,23.47972 -6.6661,20.06449 9.5256,5.37361 5.41816,-21.42729 8.96863,-21.07288 l -2.30247,1.00848 -6e-5,-9e-5 z m -10.62809,19.08448 c 1.6079,0.61261 0.008,-0.97484 0,0 z m -274.36755,24.80915 c -7.91781,9.68974 5.81373,-4.42144 0,0 z m 2.15923,-0.41178 c 0.90168,1.3615 6.49532,-0.49513 0,0 z m 3.81802,1.25143 c 1.60792,0.61263 0.008,-0.97484 0,0 z m 43.32682,1.31333 c 2.89035,1.71011 0.31122,-2.36388 0,0 z m -35.78668,0.43187 c 0.9126,3.15342 3.62889,-2.60908 0,0 z m 2.84727,0.25308 c 0.22052,1.31718 2.89862,-0.45574 0,0 z m 3.17507,1.57516 c 6.10593,9.97351 -0.42929,0.41808 -1e-5,0 l 1e-5,0 z m -21.71539,3.8832 c 7.12484,18.18427 -7.58304,0.0736 -15.7482,9.21612 10.12192,-5.04359 23.23173,8.15873 16.30319,-9.92675 1.9073,-2.34702 -4.54893,-4.41074 -0.55499,0.71063 z m 238.63074,19.09284 c 0.86941,-0.43533 -0.87094,-2.24534 0,0 z M 157.70093,293.1711 c -3.27829,15.12828 2.57565,-2.63929 0,0 z m 207.48549,2.44179 c 1.08883,-1.02895 0.11628,-1.91772 0,0 z m -11.8156,1.59218 c 3.67152,4.21331 -1.01135,-4.64413 0,0 z m -200.03453,0.88326 c 0.0183,1.41236 2.15089,-0.36179 0,0 z m 163.9047,3.12828 c 2.27632,1.97539 -0.55446,-1.79714 0,0 z m 23.31284,1.0706 c 13.9663,11.84706 34.18199,14.27572 41.08593,35.80046 9.77355,8.09313 21.75488,8.50528 3.43074,1.13329 -8.59491,-20.89965 -27.085,-28.08462 -44.51638,-37.35698 -3.0038,-0.15866 -1.15127,0.168 -2.9e-4,0.42323 z m 31.47241,18.3022 c -0.12441,2.69078 -2.03979,-1.95704 0,0 z M 180.5684,315.69094 c 1.61512,1.82633 -0.0507,-2.57576 0,0 z m -28.3138,2.93515 c 1.0424,1.93796 0.0904,-2.65933 0,0 z m 229.9528,6.24808 c 7.2534,5.08036 -3.64749,-5.9526 0,0 z m 3.88878,2.48865 c 7.94197,4.92297 -5.02346,-4.69834 0,0 z m 20.10884,1.98337 c 2.48438,11.76491 56.12603,19.2774 30.77834,14.46366 -10.07774,-4.1646 -24.77167,-7.58202 -30.77834,-14.46366 z m -15.83911,0.17206 c 5.37491,2.86422 -1.49791,-2.70389 0,0 z m 3.91507,0.27172 c -1.75428,2.09427 6.8696,-0.49519 0,0 z m 56.76425,10.263 c 0.92073,2.01185 1.72666,-1.93409 0,0 z m -124.04288,0.7043 c 1.29424,1.7964 1.83665,0.8915 0,0 z m -27.58638,2.42187 c 3.66775,3.79209 -2.0788,-3.58377 0,0 z m -180.63847,4.18278 c 0.8973,1.94433 1.32566,-1.90094 0,0 z m 157.1823,4.41151 c -0.10062,1.80782 1.75708,-5.2042 0,0 z m -2.94508,1.90468 c -0.48881,3.45722 1.70231,-3.00562 0,0 z m -92.36278,13.78023 c 1.23358,1.44742 -1.22338,-3.05715 0,0 z m 1.11098,1.47166 c 0.91336,1.88706 0.36508,-1.90423 0,0 z m 46.93367,7.70917 c 1.13732,1.30436 -1.13706,-2.94554 0,0 z m 25.3125,4.21048 c 1.19208,1.97055 0.52391,-2.72502 0,0 z m -80.61933,0.98993 c 0.91335,1.88709 0.36509,-1.90423 0,0 z m -106.964013,9.40254 c 1.505528,0.93199 1.290763,-1.70587 0,0 z m 318.656813,1.65982 c 2.69634,4.94125 -0.89055,-5.13452 0,0 z m -57.75892,-0.97087 c 1.19185,0.96874 0.59901,-1.7395 0,0 z m 86.83598,16.97831 c 0.91336,1.88706 0.36508,-1.90423 0,0 z M 227.49949,426.1441 c -0.47474,4.26561 2.6226,-3.70312 0,0 z m -2.00035,6.95607 c 1.63097,1.26606 0.79771,-2.53688 0,0 z M 60.144249,491.50541 c 0.131532,2.82173 3.681417,-2.76318 0,0 z"
     style="fill:#663090" />
  <path
     inkscape:connector-curvature="0"
     id="path3974"
     d="m 524.5995,259.92055 c -0.0622,91.84179 -0.12436,183.68357 -0.18654,275.52536 -182.23724,-0.12338 -364.47449,-0.24676 -546.711729,-0.37014 0.124359,-183.68357 0.248718,-367.36715 0.373078,-551.050713 182.237241,0.12338 364.474491,0.24676 546.711731,0.37014 -0.0622,91.841789 -0.12436,183.683563 -0.18654,275.525353 z M 32.676302,13.69257 c 16.323533,6.936264 -4.375204,41.843568 19.021218,39.373727 9.954515,2.58414 29.977613,25.471562 8.087275,21.799031 -10.384271,1.31866 -22.517818,-8.041737 -4.209566,1.85772 18.583164,-7.648 37.347321,12.294288 34.619468,32.089202 13.398693,7.95505 32.916593,10.70021 32.855063,32.16465 -7.20976,24.02791 18.92225,29.27223 34.98297,41.74212 3.70243,-26.77273 33.19173,-3.93069 26.90822,14.62652 13.42236,9.96501 2.56133,23.73233 -8.57122,11.66929 3.18329,-6.28924 -18.90205,-11.72486 -3.46941,-2.65739 2.35822,3.98193 15.83858,15.42966 24.54189,4.14547 8.64944,3.28435 10.92726,27.46889 -1.59622,21.21206 15.89208,8.36973 -18.49851,10.39113 -25.48214,8.79027 -9.74081,-6.47795 -1.08893,-15.22567 -16.26768,-13.33342 -16.70967,-6.85003 0.20364,-20.77128 -15.21547,-29.58089 -9.49403,-8.75304 -26.99521,9.76802 -36.73004,-0.8483 4.455,-15.7174 -7.859432,-26.6835 -8.853846,-39.34373 5.199877,12.9357 -17.564986,22.73365 -20.305212,7.85588 -1.531827,-21.6967 -26.3495,-10.80883 -16.13888,5.60471 -4.867704,16.60111 -31.353899,-23.86396 -16.38685,-4.71327 8.638057,22.46375 24.728147,4.85366 17.447053,-10.49521 16.469782,-4.25032 15.685511,36.31386 36.067627,13.42031 10.753478,9.07852 2.842617,44.83844 22.183318,30.9512 14.60031,-1.00927 24.43264,-4.7 29.3222,10.1328 -3.81912,21.47525 -3.20304,-10.06844 -12.21168,0.42361 7.41153,-0.95388 12.3685,23.69632 24.58147,23.50274 7.98566,4.89868 8.65302,18.59706 5.32451,15.48699 9.35169,11.84251 31.50555,-4.77028 33.36193,6.63183 -11.43243,-2.00202 -17.60228,10.42882 -17.93028,12.36248 -7.08829,-11.09959 -22.50018,-25.11419 -33.06719,-11.0517 -3.43035,3.00286 8.90462,21.35032 -7.49339,7.83236 -12.30294,6.99083 -12.00576,11.51952 0.67545,2.63303 16.76024,18.57015 2.71446,-18.4808 17.88828,-2.92405 9.90831,-17.23122 19.30729,4.33425 25.71592,13.46258 -2.68856,-10.32061 3.42802,-26.14703 15.06389,-12.71784 -11.29109,17.9987 -7.98432,5.39196 1.63743,4.97557 5.9749,11.2426 -7.41586,24.30695 -14.63458,30.15126 -8.28368,-4.9569 -8.99409,-29.02638 -22.92979,-10.31339 -2.51356,14.87373 -24.22628,-3.65953 -21.61548,3.45202 9.76952,0.64592 17.57006,9.94978 24.63737,-3.38769 11.50174,-16.02222 21.30848,20.84281 3.08141,10.73252 -18.3084,8.47223 -22.38339,37.54936 -42.03202,41.39176 23.38967,0.23637 25.13435,-44.8463 49.90479,-38.42495 12.15269,3.52464 27.86365,-20.01791 16.27821,3.22245 -9.55447,8.54412 -16.75008,8.6583 -24.42923,15.45617 4.1372,11.46255 -1.76735,-11.14113 13.07558,-2.65116 18.23741,-19.38491 -10.28556,24.84543 -9.45116,32.99105 -9.33908,12.88021 -20.88203,-2.89004 -27.41563,13.07254 -11.87566,4.46175 -3.18608,29.86422 -23.82516,29.92545 -7.55242,21.85539 -34.600975,34.69879 -30.365212,61.8535 -10.25757,13.28952 -13.483587,28.52527 -27.774411,31.9925 -6.382516,8.11956 15.924623,-0.55493 14.274825,-9.80567 8.088762,0.81903 15.518609,-25.69206 13.020648,-3.81444 -0.791471,3.21593 -21.414401,27.73459 -15.885194,23.44817 13.942341,-14.64934 21.144335,-28.06756 22.751621,-49.39691 -0.03576,-9.60036 17.922163,-38.66266 19.297073,-17.41224 0.30067,24.19916 -1.919,-17.69942 5.69923,-24.12762 9.44624,-16.19841 28.92687,-11.35279 29.61079,-11.4421 6.17772,-4.61086 8.51336,-36.74512 12.22143,-21.59763 -11.62684,13.54831 13.65179,24.32157 -8.52176,33.47053 -5.15063,6.33767 2.0112,14.30652 -8.14023,21.90366 -2.00941,11.93496 -8.64329,38.14568 -0.68176,12.69257 3.35928,-12.8046 8.09514,-23.61694 11.60512,-34.5735 21.74361,-8.66691 -9.15735,-32.9707 15.93568,-40.69085 20.2088,-12.26507 -11.52856,21.91417 9.73615,20.75877 1.80526,15.78312 0.0879,28.00929 4.49665,41.65024 -4.60558,28.52375 4.21049,-10.43124 -2.45646,-15.72837 -3.40358,-8.08831 7.95919,-28.41947 -6.62536,-28.91747 1.65898,-13.7895 2.66752,-37.28246 12.65935,-53.77712 14.46025,-15.62147 -2.63382,27.45592 5.04924,5.92372 0.5477,-17.26949 18.40312,-17.4405 13.14804,0.7269 7.1731,2.3832 -5.88987,34.19818 1.56265,12.20112 3.6925,-7.58592 -2.52366,-30.07142 8.07315,-23.57938 6.67351,-5.76742 11.08257,13.9333 6.38143,17.61249 17.17573,-6.72869 -7.94946,16.40325 3.55442,25.11367 -0.2733,14.22676 -1.45926,21.3539 -1.9051,32.58278 -0.19101,12.58632 -6.34655,23.78939 -7.92749,36.58813 -9.35967,11.52331 8.16157,23.82784 -0.35332,36.57502 1.01966,7.47423 -10.77045,39.02358 -0.47413,13.13112 -1.086,-9.14165 15.5249,-39.8363 12.75882,-16.97201 0.69881,-11.71205 3.33883,-32.28295 -2.44431,-42.79787 2.66953,-15.68551 5.15152,-35.70748 3.07776,-47.54132 0.11561,-18.241 1.81858,-20.47651 17.7398,-10.21058 -3.1011,11.20413 -10.18056,24.38641 -2.31189,35.68137 -2.00697,12.06598 -3.23296,-33.60498 5.43402,-37.03913 6.25711,9.13245 -12.25671,28.21642 2.01323,11.58963 13.97229,21.01359 -12.29031,-20.64819 3.98395,-20.895 10.79685,-16.94254 2.69937,16.8548 8.23715,23.35352 -1.0792,13.89625 2.31121,17.98762 1.93189,1.74076 13.23669,-0.002 1.66932,31.17957 21.89716,23.23211 5.80075,21.21575 3.01082,-10.45154 -10.73431,-2.51854 2.3e-4,-17.92418 -16.77207,-25.33206 -13.60895,-43.95595 2.79792,-7.75514 18.22465,30.30313 9.45883,9.05832 -6.69766,-7.13507 5.34439,-40.68187 9.93536,-12.80417 -1.3824,10.95769 4.80713,28.54321 1.60359,6.49143 -0.16971,-13.18801 12.8796,37.45679 13.11422,24.57221 -9.62436,-15.0422 -10.8279,-35.20915 -18.98606,-50.19152 10.0422,15.84871 4.78006,6.50171 2.42647,-5.29967 19.84826,6.75254 3.08044,32.07141 18.38323,41.48192 6.97193,1.70517 8.44925,24.64501 20.44325,26.53992 2.80311,16.25594 8.04519,30.48392 12.45272,46.47813 2.58066,9.53506 26.02577,34.53533 9.52991,12.23829 -12.2587,-10.93921 0.29284,-27.55743 -1.68494,-7.50623 3.61757,7.74093 20.88844,4.50834 19.5043,11.06769 -9.18577,-14.74099 -19.63268,-1.25643 -21.29131,-23.86028 -17.74534,-14.70323 -5.3353,-35.04093 -24.15752,-49.98901 -6.61524,-9.02156 -12.39625,-22.09664 -18.17826,-33.33284 6.69314,-14.29691 6.03298,-10.26346 20.43515,-0.74476 19.49211,1.77222 -12.16324,25.8212 7.11652,31.53948 -6.35734,6.23441 14.12745,29.09365 7.11107,11.35459 -12.56807,-1.45926 0.0975,-15.92205 -14.4012,-20.75672 14.70586,-12.95546 5.69536,-27.92212 -11.02119,-30.5598 -9.02836,-6.99102 -16.39541,-21.76498 0.27375,-12.86012 -10.09118,-8.14189 -12.52346,-5.47707 1.35108,-9.44781 -2.24318,13.36954 4.96788,-18.34303 12.0694,1.94476 8.23081,18.78651 26.4867,29.99751 38.08424,46.51567 -4.5309,11.77994 14.33676,32.75509 17.28365,27.67291 13.9975,7.32015 -24.13965,-11.98258 -15.27798,-22.5349 -9.1437,-22.49789 14.38231,0.0782 15.82577,11.89871 2.21742,12.91359 19.45307,24.60559 12.03066,30.04572 -1.63307,-17.75144 22.81687,-16.74436 20.71549,0.48346 7.50361,4.5706 4.85662,22.60023 11.1378,21.3083 -5.57552,-8.28862 -7.17812,-19.13628 -9.2948,-25.22005 10.75058,18.28133 33.65617,22.73093 53.20997,26.56743 7.83198,1.82443 7.63563,16.20471 18.2762,12.17473 18.96865,11.32278 -7.22275,-3.78962 -9.71906,-6.9975 -3.83414,-14.18078 -23.94988,-8.36032 -32.92049,-18.10063 -14.54204,2.89784 -29.02912,-28.0682 -9.38267,-11.39104 10.98084,10.16422 18.45931,8.29653 2.57978,1.45433 -13.83155,-11.20573 -30.27335,-24.03032 -45.36323,-35.29551 -7.59343,-13.59874 38.69342,23.54499 13.51279,1.2446 -19.86919,-5.82987 -24.51159,-24.72875 -41.91316,-37.4778 -12.05823,10.75064 -29.38737,-32.76119 -10.19987,-11.46498 8.24642,-0.41881 14.19127,7.14547 18.94573,1.59487 6.79678,5.26691 17.02867,9.1221 4.12018,-0.7273 -5.86091,-12.3866 -11.43495,9.4569 -17.80143,-5.88715 -11.75206,-7.44614 -26.48974,-14.185 -38.54332,-28.47478 -20.75018,9.04795 -4.78202,-15.55626 4.74152,-2.20052 15.0488,-3.97144 26.88639,8.62151 41.437,14.24501 10.90374,0.55035 26.18804,35.78528 36.99327,29.20864 -5.82263,-5.5967 13.19847,-5.71442 -5.3355,-4.23253 -17.57452,-3.2606 -19.17233,-24.35351 -0.25833,-11.88678 11.22429,-4.57238 14.19416,5.34604 25.86243,7.89481 11.43706,1.87358 11.14061,11.4471 12.85878,4.82961 19.56978,5.69959 8.52714,8.9178 17.79803,-2.1434 12.56774,0.24564 22.46503,-7.23912 29.01159,-4.58202 -19.69752,-5.60793 -43.52967,18.72189 -60.18597,-5.63321 -16.34327,-0.17791 -32.67754,-7.49552 -48.8567,-14.83021 -7.89561,-5.79915 -35.43105,-13.08467 -31.12607,-19.27152 5.7019,-2.74926 19.31386,14.86866 16.99209,1.00606 9.88412,10.04163 18.9455,6.4416 3.89153,2.41286 -12.1813,-14.89724 -0.81589,10.09933 -14.16596,-4.10828 -12.00929,-3.05528 -26.33952,-5.56851 -38.20359,-9.49601 -2.58011,-4.71218 24.18001,-4.48777 3.30944,-6.80293 7.712,-5.13205 23.6595,0.14535 5.13308,-4.81327 13.1597,-16.15773 22.92732,9.07238 33.75246,6.94512 11.14627,4.3323 11.69628,17.99029 20.57282,15.57831 -10.5881,-2.22075 -7.44712,-26.63988 -11.25197,-21.42189 8.58051,-4.68153 15.52156,11.8165 24.7984,-0.73825 3.27425,10.07293 13.87034,5.61529 1.43411,1.14827 -3.71529,-8.09481 -10.62588,7.20677 -7.91448,-9.68375 2.63749,-14.6261 -5.42319,29.34215 -12.19016,2.43089 -13.35986,5.25763 -27.04369,-21.43956 -9.25113,-27.7788 6.75385,-6.01355 18.10218,20.95293 20.37257,2.49276 12.03838,2.46979 13.39793,29.32926 27.32451,9.14353 15.0881,-1.03503 30.30713,-9.80404 31.37569,13.89966 21.52303,9.22503 11.84121,-14.0512 21.25843,-17.76405 11.72068,-12.62356 4.37255,28.49959 25.17725,14.31669 14.43178,6.016 10.82132,41.8301 11.04804,12.39079 -7.82998,-18.9657 -29.2428,-7.6618 -30.38203,-29.89484 -17.95244,-3.95497 -3.13334,30.95036 -27.12819,19.65617 2.43173,-24.8883 -18.68358,-12.05487 -25.74344,-17.56167 6.79165,-14.36664 25.99915,-4.20496 30.05814,-10.09211 -11.13439,-1.73998 -18.90234,-4.99541 -28.19359,0.46649 4.449,-16.92701 29.13582,-1.03121 20.69323,-20.82064 1.82901,-11.76644 8.17203,-8.99518 12.96218,-8.44602 -24.13788,-12.69617 -1.96631,29.64195 -26.74459,17.13926 -4.36074,14.78777 -26.79521,26.69578 -21.30966,1.6672 -9.69017,-8.15971 -4.8709,-19.7079 -16.36814,-27.64521 -8.76747,6.35285 -9.8107,1.30118 -18.98966,0.49785 -1.31592,-15.89607 8.38945,-24.06447 18.34064,-17.32681 24.46169,5.00256 27.54296,-25.00316 47.489,-27.81243 10.32475,-19.19984 8.06952,10.63104 24.03169,-3.27543 -15.66415,8.974 -17.03458,-12.41767 -12.73426,-10.65024 -18.1274,-4.34855 4.72358,-17.68448 14.31308,-17.68881 5.19288,-10.26612 9.23203,-20.95463 22.00495,-21.51762 7.45861,-15.000198 24.95986,-10.896798 5.28017,-12.547003 0.59567,-15.08147 -3.33826,18.985133 -17.93171,12.893673 -8.56212,16.87365 -32.04033,14.63114 -38.51517,33.59985 3.78814,11.98411 -15.84427,3.07383 -14.89963,16.39062 -17.41237,-4.062 -14.64209,22.20796 -33.83623,10.98855 -20.31672,8.85904 -7.90729,-3.8285 -1.36264,-11.61281 0.81302,-6.54521 36.27615,-11.51606 16.29631,-25.18272 2.16065,-6.8927 15.23789,-19.97705 21.95573,-11.84047 -5.73371,-8.1186 6.37618,-34.161034 -3.21778,-32.109819 9.65581,17.326499 -4.6948,29.311349 -16.59778,37.190079 -13.05168,5.76309 15.33918,21.57609 -9.05008,23.35335 -20.20648,4.54135 -23.43406,27.19523 -25.70573,47.67565 -1.23171,12.20302 -29.48066,15.35323 -22.73657,7.15493 -14.00693,-11.40543 11.4922,-19.43353 9.38257,-30.83985 5.61063,-13.06777 -10.08042,11.5723 -12.45339,15.85247 -6.24679,11.33877 -13.21325,24.44889 -23.03977,29.67857 -22.73743,5.79643 23.35511,-14.03439 10.37112,-30.418 11.30189,-9.7497 10.17238,-26.83264 29.65842,-27.59094 6.61463,-4.22211 4.1373,-32.71107 2.061,-11.22311 2.55358,16.68612 -29.84248,7.79156 -23.37894,27.99584 -16.42225,8.3129 -3.03012,36.17708 -29.49462,34.93021 -15.68657,3.09007 10.68701,-17.91277 -6.52641,-5.62941 -4.11229,-9.47477 17.92018,-29.21369 14.08763,-30.4212 -9.11834,17.23326 -14.70254,-26.45312 -5.33493,-32.76382 5.81656,-10.08066 26.94137,-11.9057 16.5443,-18.33203 -0.81716,-20.06199 29.08542,-28.066877 28.14264,-41.557778 -10.85546,-14.922413 20.02601,-19.246566 1.38799,-15.216114 -7.34584,9.271219 1.32988,26.081196 -11.55544,26.616133 -8.6505,-8.343889 -4.77299,-41.042421 -6.63588,-14.566336 15.13858,21.018434 -16.05089,28.594245 -15.63351,49.465685 -20.14015,22.27234 8.04415,-43.098822 -4.83043,-18.4259 0.0519,17.94981 -12.89292,37.28171 -15.60232,51.98126 -2.9047,-12.24232 0.89753,-18.8949 -1.92514,-20.49692 7.79385,-26.54874 -7.82453,14.12001 -7.09157,23.07353 -2.60703,14.8036 -11.9254,10.00142 -4.13793,-1.66572 1.97401,-11.76893 -6.85408,17.75504 -8.55897,-3.05111 -7.7785,-16.87695 20.3502,-16.52238 21.69226,-36.43581 1.84438,-0.91468 -9.86695,5.41275 -8.50626,13.00302 -5.98132,12.45395 -24.74551,4.63435 -15.02022,23.9687 5.83382,9.51163 -11.87467,35.53031 -6.87343,11.50512 1.11167,-23.04964 -1.23708,2.63345 -3.10941,-1.92234 -7.72593,-17.21903 3.11497,-49.96056 7.46754,-53.45546 -11.75369,10.65128 -3.93654,-21.22584 2.54018,-26.045226 -1.81462,-9.901331 14.67412,-16.257459 -1.57709,-6.69069 -2.39846,13.15003 -9.84573,-26.046761 -4.80123,-0.21122 10.18887,13.320091 -8.63863,26.201256 -4.01061,43.095676 -2.45485,23.39581 -9.12185,-11.84626 -5.64127,8.9546 5.83263,13.37153 2.61509,53.79107 -1.64667,20.91221 -2.2369,5.63511 5.6592,36.23033 -4.42244,13.83625 -15.16863,1.95299 11.32801,-33.94235 -5.56479,-11.63889 -0.55271,20.30745 -6.93008,-22.47782 -4.39379,2.31996 -1.94663,21.07857 -2.74134,-5.12618 -11.55085,-14.42928 2.06309,-11.54468 -8.38889,-17.32803 -2.29239,-29.32245 -2.5579,-5.69242 10.25072,-27.806193 2.54709,-23.297537 1.10646,15.445177 -14.19224,32.618537 0.16525,45.602267 -5.13731,18.46832 -16.18816,-12.62994 -8.4183,-18.53515 1.54523,-11.19922 -17.18395,-31.14023 -16.70911,-35.093829 9.6659,18.061769 17.51824,35.105969 14.07292,54.749959 13.73676,9.62396 13.00269,26.06529 13.51415,39.37913 -7.93054,-1.03226 -12.9936,-12.75552 -3.25472,3.00235 -6.7297,8.63076 -8.37511,-21.06165 -17.62824,-26.71439 -1.40416,4.29122 15.38513,22.12595 8.82748,34.13555 -4.75023,-12.29226 -11.74601,-30.96537 -13.8388,-42.60095 -6.41885,11.2184 16.61038,35.71535 3.59036,31.53448 -1.61283,-7.51074 13.31316,36.7533 -10.96773,16.53201 -4.42759,-16.11753 4.41968,-26.89408 -6.36053,-43.07286 2.35813,8.69887 10.15053,32.06136 -0.60414,26.47916 -10.48759,-17.73251 -22.15798,-31.71795 -27.77396,-50.66689 -14.05168,-10.39016 5.62854,-27.615273 -18.71968,-28.883508 -8.57413,-9.456007 0.15644,-20.902289 -10.115,-31.227355 13.00146,-11.78285 -15.18573,-49.526413 0.20413,-17.917536 6.68986,11.501312 -10.6622,23.919417 6.415,33.435471 -17.07161,19.974598 31.98726,19.239248 11.60392,34.339508 -11.29578,1.16813 -11.61735,-18.866254 -26.49318,-20.120015 20.69471,6.375475 15.37317,28.665765 30.70133,34.977965 C 136.58539,142.89537 135.4439,104.80156 117.52878,114.80906 105.34429,101.25314 104.62711,83.339289 89.902199,72.490918 71.561903,75.552661 60.772621,55.473982 52.883679,44.728859 50.840028,29.089231 56.977018,9.5616718 48.721823,18.090805 54.368054,26.189939 50.509237,71.107697 40.133935,42.154246 42.284198,34.78222 41.107441,13.833109 32.676302,13.69257 z m 58.443563,61.325623 c 10.454855,8.43293 12.477795,24.327423 19.591735,33.033647 -21.315698,7.52165 -16.837548,-23.818301 -24.455848,-33.538501 1.532075,-0.007 3.652728,-1.104697 4.864113,0.504854 z m 63.124595,46.257777 c 10.97305,7.0234 20.89646,53.31183 5.14838,24.39715 2.36704,-11.18574 -12.31615,-19.32431 -10.56357,-24.9726 l 3.25169,-0.8891 2.1635,1.46455 z m -26.26614,3.79879 c 5.15769,17.33304 31.08675,14.70226 31.74773,35.81672 16.12367,5.86968 1.10304,9.66962 -2.64219,19.96412 -19.29626,-12.60487 -39.92355,-20.01759 -33.96074,-45.1618 3.73054,-10.80053 -13.52164,-12.92188 4.8552,-10.61904 z m 310.67996,3.53826 c -2.40745,0.45601 -1.17527,-1.64546 0,0 z m -12.15451,6.62281 c -2.6499,7.74081 1.95709,-8.27934 0,0 z m 0.0486,9.8066 c -7.08993,17.24374 -22.08883,-5.75418 -3.23521,2.73147 1.70824,0.041 1.74016,-2.31443 3.23521,-2.73147 z m -198.45915,5.17245 c 2.84941,18.53281 -1.49868,10.29994 -1.77768,-2.96459 l 1.77765,2.96459 3e-5,0 z m -50.81637,10.40317 c -1.91038,0.91714 -1.84051,-1.64331 0,0 z m 227.4396,1.64888 c -2.10595,14.08219 -9.09848,-2.03112 0,0 z m 4.73464,0.60736 c 2.38794,12.9982 -25.0043,25.60095 -34.87889,17.57061 -15.21793,-6.74903 31.89174,-2.83132 34.87889,-17.57061 z m -115.43254,3.77105 c 13.06077,11.48983 -11.83005,35.81025 -1.95254,11.37816 2.53925,-9.71478 -12.32554,21.03595 -2.25491,-1.71248 1.87932,-2.17076 -0.45759,-11.98852 4.20745,-9.66568 z m -22.69404,4.18957 c 0.75716,8.50475 -4.2955,-3.18576 0,0 l 0,0 z m -38.43239,-0.11682 c -2.0049,7.72115 -2.73533,-2.72563 0,0 z m 145.45905,2.97301 c -2.12148,2.41245 -6.38018,-2.43056 0,0 z m -187.38554,8.51205 c -0.36511,1.90421 -0.91333,-1.88709 0,0 z m 32.56618,12.14876 c 0.0678,8.30496 -5.51999,-5.61594 0,0 z M 382.9036,206.0085 c 1.17426,18.29182 15.81766,19.17909 11.59703,41.22058 19.70298,0.05 7.1622,5.1233 -1.91291,11.79716 -4.93073,-12.3686 -14.05081,-21.28555 -22.51109,-11.04597 -8.75291,-18.87068 -26.64323,-2.24929 -27.7594,10.02416 -3.38732,8.23804 -35.89976,-0.57763 -26.76632,-4.43525 -4.05311,-11.27846 11.56343,4.00534 18.65841,-5.34087 11.97368,9.19092 -3.96362,-3.4118 -6.93281,-3.56117 4.8198,-7.82396 21.05325,-4.12057 25.36409,-17.69063 11.01329,-7.81575 31.44502,0.54324 12.34918,-5.35516 -24.41796,2.93365 8.45233,-17.47799 17.91382,-15.61285 z m -65.16045,2.76967 c 12.96126,16.6597 -24.02962,7.9498 -4.82791,6.54663 1.97919,-0.9669 1.18373,-10.55286 4.82791,-6.54663 z m 42.79726,0.56529 c 9.77527,2.38872 -8.99055,6.01575 -5.05203,13.34444 -9.17836,8.98284 -17.72694,17.91844 -29.48609,18.07016 -11.11016,6.7451 7.26728,-9.63989 11.78378,-12.13581 13.50068,-18.73953 1.87161,-6.56588 -4.98721,3.72354 -10.62622,-15.36387 16.84849,-25.41137 27.74155,-23.00233 z m -57.72698,1.20928 c -3.4279,1.84191 -3.11767,-1.18876 0,0 z m -149.29081,17.64593 c 3.73529,6.91558 -6.16643,-6.3768 0,0 z m 175.15539,3.35264 c -6.5177,2.21736 4.54254,-2.92689 0.0604,-0.0329 l -0.0604,0.0329 z m -168.35825,3.36839 c -1.84533,1.95501 -1.84264,-1.95753 0,0 z m 6.49329,3.64677 c 10.11689,10.73824 -6.33062,6.8352 0,0 z m 29.47495,4.50977 c -2.92407,8.86483 -20.058,14.53163 -26.09218,5.53546 7.04982,-9.28842 15.69219,3.22008 26.09218,-5.53546 z m -0.20581,4.78292 c -1.82646,1.92564 -1.36665,-1.97106 0,0 z m -42.3601,6.14698 c 29.11363,12.63833 -24.30795,8.82171 0,0 z m 194.33147,11.15227 c 15.8533,18.80479 -15.91561,6.42498 0,0 z m -13.19578,1.1386 c 8.23478,5.60907 -6.93022,-2.06737 0,0 z m -15.17795,2.09445 c -0.93923,4.84121 -2.60674,-3.34264 0,0 z m -117.73896,0.45897 c -1.32567,1.90093 -0.89729,-1.94433 0,0 z m 134.89717,1.70573 c -1.91097,2.10752 -0.22717,-2.09613 0,0 z m -154.89186,2.94457 c 1.95319,6.99908 -2.55136,-2.085 0,0 z m 173.69269,3.34641 c 0.79759,3.15127 -2.82078,-1.14426 0,0 z m -25.99366,18.52824 c 15.25259,8.32183 -12.74965,-3.30671 0,0 z m -8.84167,1.1024 c 19.3252,5.83511 5.67283,9.60224 -3.60984,2.11195 0.23697,-1.4695 1.72721,-3.98503 3.60984,-2.11195 z m 21.72707,7.67172 c 2.14531,4.33442 -6.42292,-3.27572 0,0 z m 16.80071,9.97601 c 12.47474,9.07923 -12.52716,-2.87422 0,0 z m 19.29573,8.62277 c 10.26871,7.56028 -10.06414,-0.51306 0,0 l 0,0 z m 9.29112,2.66073 c 18.00608,10.19134 -12.25576,-4.19524 0,0 z m -85.46527,0.78916 c -0.52391,2.72503 -1.19204,-1.97058 0,0 z m 118.16384,8.23324 c 12.71062,11.7605 -19.19743,-7.16154 0,0 z m -171.00865,6.27528 c 9.97905,15.54129 -20.3043,11.08066 0,0 l 0,0 z m -10.52099,0.0583 c -2.6062,7.1066 -2.47157,-1.71529 0,0 z m 23.17318,5.214 c 4.53352,12.08188 -4.16381,0.40071 -2.31201,-2.2884 l 2.31201,2.2884 0,0 z m 11.27055,0.54107 c 6.75075,11.44234 -7.33729,0.3842 0,0 z m 24.55848,0.66662 c 13.21759,15.60146 -13.73776,-0.70514 0,0 z m -58.26073,3.84174 c 1.24039,21.3611 -17.59357,8.68658 0,0 z m 17.04751,1.00119 c 5.06347,13.30555 -24.82067,22.74075 -15.05246,5.05717 4.97414,-2.7962 8.43937,-5.51193 15.05246,-5.05717 z m 104.45464,2.62687 c -1.46795,9.0633 -15.77342,-0.493 0,0 z m -207.07524,4.43821 c 7.45044,4.50466 -8.67798,17.57546 -5.16746,26.6594 -19.91229,12.01279 -12.94714,-21.27751 -0.77956,-21.50337 -0.10097,-2.72101 2.79879,-7.11937 5.94702,-5.15603 z m 118.98685,2.728 c -1.45368,7.82256 -0.948,-4.23723 0,0 z m 22.77991,-0.36346 c 13.01887,20.6584 0.7946,9.83994 0,0 z m -67.89739,2.29247 c 5.9961,4.60649 -2.95249,2.92635 0,0 z m 137.06536,4.76438 c 2.48859,6.93276 -7.4893,-5.5079 0,0 z m -134.31171,4.95784 c -1.28421,9.14991 -1.1861,-7.35627 0,0 z m 140.08067,0.93505 c 12.2189,9.02882 -11.86307,-0.4914 0,0 z m -62.4126,3.91622 c 7.52469,14.89303 -9.19787,-4.04569 0,0 z m -79.05969,6.38189 c 11.03373,6.20147 -6.38095,0.97518 0,0 z m 160.02106,5.35864 c 16.63787,13.12045 -13.24604,0.60744 0,0 z m -72.81594,4.32058 c -0.43785,7.49539 -5.97604,-4.52886 0,0 z m 71.79654,2.87798 c 19.56388,2.76184 -9.76151,4.67598 0,0 l 0,0 z m 13.57632,1.42645 c -1.73739,1.2225 -7.46796,-1.8605 0,0 z m -276.64611,4.38734 c -7.83091,6.83711 3.53374,-6.96967 0,0 z m 104.49857,3.66006 c 0.41053,20.07946 -6.97044,15.93377 -1.59499,-1.4516 l 1.10736,-1.88354 0.48763,3.33514 0,0 z m 95.70412,2.23356 c 4.15114,8.52524 -5.81122,-5.71679 0,0 z m -211.05037,1.21477 c -3.22953,14.73562 -9.57311,2.75879 0,0 z m 302.25653,0.97591 c 15.17224,14.09218 -5.58702,-2.14512 0,0 z m -189.9104,13.19353 c -2.80542,7.07686 -6.03677,28.03938 -6.81032,5.99679 2.40354,0.32197 5.84069,-9.33644 6.81032,-5.99679 z m 101.09571,0.90831 c 0.76535,3.48107 -2.57322,-3.47198 0,0 z m -101.08699,3.28466 c -1.37815,6.68441 -3.10935,-1.01503 0,0 z m 1.98491,6.83253 c 3.74537,3.73477 1.66488,41.24654 -6.39558,16.28887 -5.80432,-4.81089 3.23604,-16.7131 6.39558,-16.28887 z m 105.68364,3.15148 c 7.92248,16.25171 -9.7826,-5.61994 0,0 z m -236.167259,0.58074 c -2.962034,9.24306 -0.922528,-6.56594 0,0 z m 120.301619,5.19222 c 6.68395,16.96413 -7.53067,2.49865 0,0 l 0,0 z m 117.98786,5.44942 c -0.36509,1.90421 -0.91334,-1.88708 0,0 z m -245.772018,1.14718 c -0.05342,2.60354 -1.199596,-1.90653 0,0 z m 134.017208,10.45263 c -1.6792,19.03176 -7.54199,-10.38516 0,0 z m -6.82569,18.31321 c 2.29938,5.48328 -3.63887,-0.22294 0,0 z M 338.44632,18.232977 c 7.24339,12.720067 0.61348,32.755763 -7.30755,35.655301 18.66452,-8.488026 8.17985,-30.880569 7.30755,-35.655301 z m -139.29783,4.636562 c 2.36291,9.877322 -4.36214,28.306993 1.79677,7.889839 4.11165,-1.227557 -6.05445,-15.148163 -1.79677,-7.889839 z m 90.81156,10.481795 c 0.65773,-0.636545 -0.67476,-3.634888 0,0 z m 189.2337,-0.285723 c 1.45434,4.687235 2.00634,-4.250983 0,0 z M 285.0763,38.046478 c -3.21803,5.780863 7.51745,-5.460581 0,0 z m -89.05613,6.859548 c -5.18599,10.487012 3.59451,-6.376938 0,0 z m -4.78734,5.45404 c -2.80989,5.601479 3.7633,-4.096613 0,0 z m 294.88503,7.195408 c 3.94742,1.560343 -1.93747,-1.834572 0,0 z m -295.6013,1.797599 c 1.0277,2.972547 -0.91298,-5.443569 0,0 z m 298.86423,2.645041 c 1.4162,21.087834 2.08968,8.556307 0,0 z m -297.79985,-0.0679 c 3.03277,2.961744 -1.27472,-2.726994 0,0 z m 86.9925,11.090679 c 0.31809,3.645716 0.72894,-2.799037 0,0 z m 208.06465,4.715027 c -17.87102,7.669572 2.26513,0.509004 0,0 z m -258.8701,6.014038 c 0.36347,2.919357 0.68296,-3.548078 0,0 z M 75.821563,92.070849 c -9.395386,10.068051 -10.465067,36.954221 -8.951566,37.289981 -1.244336,-8.10156 0.489489,-17.13587 3.993291,-23.10147 -0.47013,-17.478097 13.841891,-14.035446 13.248167,1.13901 7.378064,10.19742 5.425693,44.20145 4.10255,39.58308 4.262131,-15.02121 3.666281,-29.55557 -3.413546,-40.61981 1.512633,-4.29011 -5.327414,-15.852479 -8.978896,-14.290791 z m -44.829966,4.1172 c 9.807073,10.550531 0.700643,-1.974846 0,0 z m 394.766473,4.588911 c 2.48086,1.74826 0.75787,-1.145749 0,0 z m -6.08623,1.97357 c -7.92841,27.65409 -0.80254,3.67423 2.75919,-1.04388 l -2.75919,1.0439 0,-2e-5 z m -136.46158,10.26689 c 5.32782,21.51897 2.08675,-4.22449 0,0 z m -35.60445,-0.19544 c 1.32311,1.90273 0.89992,-1.94313 0,0 z m 86.38095,8.53411 c 5.91246,11.8047 -2.18576,-7.35401 0,0 z m -307.44617,1.01644 c 1.809471,10.52537 -1.310418,-11.26231 0,0 z m 313.41526,0.53484 c -4.82186,3.6673 5.64892,-3.0667 0,0 z m 17.65306,6.28172 c -1.30548,7.18127 3.35282,-7.40721 0,0 z m -329.904626,0.11043 c -3.251164,17.63094 15.899517,-6.68493 20.367059,9.67441 25.981472,-0.52295 -3.339631,1.2417 -9.175467,-8.38042 -9.485961,10.87879 -12.970356,2.56151 -11.191592,-1.29399 z m 233.030536,21.70317 c 1.7746,2.13854 -0.47864,-2.68253 0,0 z m 200.41556,6.12817 c 1.61511,1.82636 -0.0507,-2.57574 0,0 z m 2.19286,1.21605 c 5.65567,19.84957 3.71565,1.44554 0,0 z m 5.01503,8.8057 c 1.6079,0.6126 0.008,-0.97484 0,0 z m -166.52673,25.35016 c 2.43262,1.95908 1.1734,-1.47922 0,0 z m 149.20616,12.77772 c -3.04551,3.13065 12.74961,0.4752 0,0 z M 99.69227,247.47207 c -1.240768,12.04748 -17.820955,23.94917 -3.589123,11.63124 -2.805272,-1.99082 8.123813,-15.61524 3.589123,-11.63124 z m 26.85891,7.24086 c -16.10135,10.08322 16.0061,-1.84962 0,0 z m -16.24824,3.05666 c 2.07297,1.92309 -1.24517,-2.53908 0,0 z m 1.70535,0.62483 c 1.60792,0.61262 0.007,-0.97485 0,0 z m -57.061041,2.89124 c -6.926714,14.93657 3.499899,20.3806 -0.447805,2.32413 5.709646,-6.66217 15.754721,13.76591 20.111892,-2.53808 -9.526215,16.47348 -10.758415,-6.0163 -19.664087,0.21395 z M 166.41745,330.0033 c 1.6079,0.61262 0.008,-0.97484 0,0 z m 239.51023,14.68062 c 1.94625,0.78555 0.31254,-0.91844 0,0 z m 2.7576,1.28932 c 11.82835,5.33858 29.49335,28.00663 9.38639,4.63054 0.99873,-3.86451 -11.74587,-7.52103 -9.38639,-4.63054 z m -189.13231,-0.46205 c -7.47191,7.72294 5.97835,3.68576 0,0 z m -99.26191,0.28284 c -6.37629,-2.78324 0.98176,14.20218 -12.89815,15.78854 -3.68472,14.3885 -11.636021,41.90309 -27.16123,18.7306 11.530732,23.1814 24.67456,0.30487 26.61775,-13.97567 -0.71762,-4.58632 24.53114,-24.79651 13.44163,-20.54347 z m 69.67157,3.53132 c 1.19188,0.96871 0.59898,-1.73949 0,0 z m 33.09988,2.68132 c 1.85085,2.92559 0.14134,-2.95723 0,0 z m -31.55243,0.51006 c -0.65012,3.99757 2.34581,-4.31723 0,0 z m 25.28464,2.29971 c 0.86941,-0.43533 -0.87095,-2.24534 0,0 z m 1.61357,6.12984 c 7.30131,29.4897 0.44791,-4.60848 0,0 z m -9.45137,4.62757 c 0.86943,-0.43533 -0.87094,-2.24534 0,0 z m 237.61311,12.9528 c 4.5614,4.30312 -2.2082,-4.53016 0,0 z m 5.16077,0.37113 c 5.33998,3.75376 3.70359,-1.81609 0,0 z m -377.891387,1.58453 c -5.177554,28.48536 -36.118094,1.21587 -40.943577,27.56461 -7.23655,23.48931 5.997302,-27.16615 20.491965,-11.54136 12.094622,2.00486 12.129178,-9.97342 12.142378,5.10333 -0.451572,17.717 1.672968,-20.682 11.404345,-23.58903 l -1.555416,0.13325 -1.539872,2.32921 1.77e-4,-1e-5 z m 203.939777,2.50422 c 0.20529,5.6879 0.75508,-5.6929 0,0 z m -2.34155,4.36454 c 6.35281,14.26208 2.64087,5.9126 0.99222,-2.11873 l -0.99222,2.11868 0,5e-5 z m 57.05085,26.00434 c -0.11956,14.19121 4.57139,12.36195 0,0 z m 38.95637,-0.16987 c 0.88055,1.89019 0.88316,-1.88898 0,0 z m 69.52496,0.81493 c -9.18411,1.85229 -8.66913,4.17781 0.59235,1.16944 l -0.62999,-1.93733 0.0377,0.76789 -4e-5,0 z m -100.77893,2.23216 c 2.11135,4.8498 0.9382,-4.34889 0,0 z m -96.16949,1.60709 c 7.53253,14.23768 9.32459,13.77021 0,0 z m -217.234523,1.01617 c -7.578648,7.10857 -16.702728,-5.23638 -4.360913,4.53564 1.89801,0.66433 10.676926,-9.90568 4.360913,-4.53564 z m 311.551553,1.30301 c 0.88061,1.89018 0.88313,-1.88901 0,0 z M 9.3717161,420.85491 c 3.1313499,0.75232 0.5988875,-0.82187 0,0 z M 249.049,432.99006 c 0.59549,2.16249 1.0318,-5.92931 0,0 z m 45.34629,2.68384 c 1.25206,2.65715 1.06374,-1.35851 0,0 z m 139.1656,6.01335 c 1.63512,2.589 1.90048,-1.71475 0,0 z m 12.53831,7.97153 c 1.6079,0.61264 0.008,-0.97474 0,0 z m -75.56895,0.11937 c 1.32308,1.90276 0.89994,-1.94312 0,0 z m -114.29229,1.39129 c 0.86944,-0.43534 -0.87095,-2.24534 0,0 z m -81.29309,-0.51332 c 0.80723,3.94361 2.24398,-1.70211 0,0 z m -68.36056,2.72623 c -3.75221,10.80238 0.53565,3.02059 0,0 z m 69.78192,0.76451 c 3.50825,11.73355 -2.55055,29.15282 2.43279,7.87552 0.212,-2.72537 -0.0411,-6.06063 -2.43279,-7.87552 z M 51.840282,499.91135 c 1.525772,-1.64418 0.499815,-2.53431 0,0 z"
     style="fill:#270e54" />
  <path
     inkscape:connector-curvature="0"
     id="path3972"
     d="m 524.5995,259.92055 c -0.0622,91.84179 -0.12436,183.68357 -0.18654,275.52536 -182.23724,-0.12338 -364.47449,-0.24676 -546.711729,-0.37014 0.124359,-183.68357 0.248718,-367.36715 0.373078,-551.050713 182.237241,0.12338 364.474491,0.24676 546.711731,0.37014 -0.0622,91.841789 -0.12436,183.683563 -0.18654,275.525353 z M 57.761395,0.52133082 C 60.787481,16.219463 40.896956,14.993996 44.287205,15.359352 56.544016,21.844031 44.340436,70.39334 41.019058,39.273025 45.180878,22.003228 35.142911,2.3673579 21.988951,23.134517 c -6.20344,-13.7844931 2.687245,12.428572 9.969658,-6.196512 12.03226,-2.192004 4.673241,26.23951 9.047228,35.173214 13.829065,0.881792 34.83469,25.81957 10.011014,20.778442 -13.13846,-6.091976 -20.015691,-0.918841 -3.063016,1.478707 19.627275,-0.01701 34.197873,13.977666 20.68253,33.450172 -5.138431,10.05896 -1.035998,37.97659 -21.817902,27.93121 -7.070071,-13.94606 -22.865195,10.37514 -19.190075,-13.53247 -1.464877,-15.84329 8.51812,14.49821 9.429702,-5.34533 14.890005,-9.19331 -19.040586,-33.534098 -1.33713,-14.299 6.579447,4.0443 -3.157574,32.03969 -6.080418,11.85855 -10.629075,4.18552 -1.952193,33.97613 10.814032,19.15969 15.535609,18.62141 33.378128,-5.65026 27.562263,-20.91981 6.016768,-3.55656 5.614458,-25.321435 13.360237,-6.68865 12.657589,17.42887 2.64488,34.71552 9.301589,50.70206 7.357437,15.09219 -21.659544,18.85326 -19.852921,-0.8032 -16.528711,-18.44358 -14.10292,11.98821 -21.244597,16.28366 -5.831386,-14.40849 -25.656476,-10.99959 -10.606763,-6.74723 10.624739,26.57921 22.775381,4.79277 24.276881,-7.91779 7.55906,8.6877 15.464254,27.91727 31.620411,17.41112 1.895602,16.30579 7.757656,38.51925 28.696006,28.50833 11.86377,-4.71954 12.95989,2.02447 2.87568,6.36076 15.33391,2.81661 31.12663,40.61938 10.61221,44.82527 -20.4428,-2.69274 -39.576884,-15.1689 -45.660246,7.28964 -9.451305,-5.23696 -17.25807,-6.80991 -24.104735,4.53596 -15.223366,-18.34271 -17.015294,7.84848 -12.544748,17.41547 -4.651958,12.5339 -12.633651,30.94156 -2.248203,10.20654 9.058988,-9.3333 -5.066444,-44.02552 13.544855,-25.48847 8.48166,-2.87171 13.982201,-15.08167 24.061276,-3.79316 9.331946,-1.84991 12.711531,-29.1888 23.371061,-8.50268 -28.591279,5.71991 45.35965,-4.34094 16.42058,11.07795 -6.32043,14.54623 -8.79218,15.23175 4.77171,5.26826 12.75866,0.72804 20.33217,19.7076 19.05427,-3.41748 17.90034,-16.4779 20.05682,18.45228 1.37303,19.67691 -4.23247,-10.79152 -0.23823,9.95294 -14.47168,0.70543 -18.33454,12.06604 21.69055,3.16028 11.47404,23.0905 -6.90396,15.44311 -22.57641,38.67003 -40.85596,28.15694 -10.54337,-7.3539 -25.995845,-7.64919 -6.17125,0.0961 26.82769,8.5529 -10.41293,27.40977 -6.04788,45.70879 -13.630918,11.07541 -22.968432,-24.4994 -29.142289,0.54558 -11.955316,16.43904 -34.636177,-4.39963 -38.983573,22.6003 -4.131044,20.19122 -23.0725001,-0.24807 -33.7732239,17.51823 16.3816319,-10.572 32.1624059,3.4368 38.4019239,-20.6077 2.860999,-19.4994 39.342072,-11.07258 29.48946,7.92607 4.452487,15.24467 13.448245,22.42374 2.768745,4.17788 -5.398266,-10.46305 3.711718,-52.64773 16.735418,-30.76679 24.848979,14.81685 14.892435,-27.24861 33.025689,-32.71145 11.43884,-14.26287 27.36019,-22.72846 39.90064,-37.65099 3.36958,-10.89917 22.83553,-13.46308 8.91636,1.3245 -13.72144,15.69489 2.90739,15.89382 -6.47423,30.01606 -19.10439,7.1732 -22.21825,28.44661 -38.46674,38.49086 -12.63046,16.41651 -27.153924,33.126 -34.419232,52.84125 -2.583821,18.99594 -13.207298,46.11086 -32.021257,48.03875 -3.898264,-17.07545 -22.118619,-34.0116 -19.036276,-22.58118 7.997014,-10.24261 14.904201,24.56025 20.507015,30.3691 -11.116654,5.10113 -4.447383,21.8163 -1.729937,3.25896 11.647703,-10.63423 22.992815,-2.7231 14.919715,7.41638 17.523775,-18.26852 27.232971,-39.77237 36.441312,-63.55579 15.81433,-13.96211 -4.91942,16.67052 -4.23314,24.27858 -4.908804,18.82592 6.84218,-19.96135 13.22402,-23.35919 -2.77413,-13.40986 21.05354,-49.81989 29.44525,-30.21345 12.31395,2.68512 -8.75144,32.55008 -2.94382,46.83425 4.55129,-20.67456 12.73852,-41.57297 26.1755,-58.37602 -6.38462,-25.41161 26.30972,-9.43955 12.96135,6.6314 7.38646,17.13481 6.71583,38.59033 -11.1057,43.4664 -10.08713,6.56095 -14.86844,10.40595 0.87283,3.47035 9.55043,-13.29613 2.16939,18.83587 8.13294,23.17557 1.24283,16.38183 -2.75113,-13.72786 0.98414,-18.67587 -1.12239,-15.7911 17.92061,-32.02643 4.82633,-50.46513 8.22809,-16.11568 -10.68724,-29.69648 4.61808,-40.10048 -2.57817,-9.761 14.88024,-35.48978 16.55124,-16.90675 2.84176,15.07612 -1.95336,38.97662 5.77177,11.6028 2.28807,-13.85481 9.4846,16.21933 -0.89044,24.75364 16.45295,-16.5134 1.56252,14.54939 3.65217,22.60417 -3.63577,17.09343 2.67193,-1.92154 2.91739,-8.86467 9.79458,18.04076 -12.63909,40.19568 -0.66415,59.95674 3.06666,12.83673 -6.92259,39.1748 -1.81795,42.54423 -1.07273,-13.42559 16.34912,-47.51693 21.93944,-21.17582 -1.93452,13.29659 9.72044,24.81602 0.0524,3.83024 -1.29365,-18.32324 -5.15608,-42.13903 -3.61044,-64.38505 -3.61579,-16.02963 16.19232,-25.76643 11.20301,-3.19015 8.54688,10.23559 -2.75087,22.38509 10.80112,28.46056 -8.54155,11.18537 12.17373,34.28367 0.3434,13.86874 6.72935,-17.04716 -11.43882,-21.92622 -5.02247,-37.27926 -11.76298,-8.56526 5.68472,-30.84018 14.09659,-20.75533 1.60615,-8.82061 6.17989,14.2686 6.43425,-4.99516 9.43431,6.7719 5.58531,23.3803 16.29385,11.77038 13.36178,10.48698 -3.65808,23.46546 10.82371,33.194 16.16613,23.56164 -8.97863,-12.3565 -3.80425,-14.65097 8.61347,-14.19209 -26.69096,-38.40261 0.82401,-37.68606 9.62844,4.10699 8.80748,26.91141 8.53598,4.36843 2.82252,-11.19567 22.88605,20.67872 19.37555,29.96425 11.4488,14.82817 12.54203,52.12382 28.01221,46.68043 11.12888,22.81859 -0.78847,-1.63586 -1.02821,-10.66799 6.97131,-12.24376 16.42749,16.7115 19.25585,3.47181 -9.65963,-0.76856 -13.84871,-13.73314 -22.61878,-12.56812 -6.79133,-11.20227 -11.09437,-45.21186 7.88399,-25.6485 -14.34198,22.06895 26.63088,6.99357 10.8373,25.6568 -4.2088,14.75566 24.60576,6.68613 23.36966,18.71595 1.71228,-18.95291 -36.57959,-6.46411 -16.58248,-22.0319 0.41559,-17.53286 -27.58001,-2.83352 -15.99265,-23.07409 -10.2366,-14.55488 -24.52643,-7.64192 -23.74313,-29.34384 -7.2005,-8.09599 -12.45438,-40.58632 2.81322,-36.66852 17.75492,16.52463 34.24109,35.96064 39.37458,59.08063 6.6111,19.91733 -7.28767,-26.1086 9.38439,-2.2787 8.49946,10.6555 19.56699,27.95739 7.91551,4.80873 19.55555,-12.41841 22.39495,34.94692 40.98089,24.78464 13.23795,-4.94656 20.93504,22.95359 15.81311,-0.24406 18.14723,-2.57099 22.852,14.46428 37.86056,13.90355 8.50792,2.30419 27.61197,27.94242 12.48205,8.28789 -12.074,-9.93504 -24.84242,-31.04834 -44.69852,-34.89914 -8.00803,-8.35012 -16.98688,-20.08218 -13.04088,-28.96386 -11.30532,-7.67747 5.03265,17.11682 -10.90856,4.97304 -12.21334,-18.54991 -36.75689,-24.69108 -45.60903,-46.21067 -13.17125,-16.73042 9.53303,-28.24227 13.85771,-8.97697 9.38063,4.41934 6.86304,23.58476 10.0617,9.95974 13.31475,9.67212 -25.23836,-25.00416 1.12431,-17.36706 15.72198,11.82582 27.62146,19.65631 39.94292,34.49133 14.25899,13.07391 -7.59268,-9.23697 10.39436,-0.54839 17.19204,6.15099 -14.3494,-7.13892 -21.22972,-11.91501 -6.3939,-10.61319 -25.15021,-22.0938 -26.92483,-30.09885 14.59363,-0.95025 27.31722,21.26433 27.54849,7.67035 5.25557,7.12788 26.64557,13.04732 7.92017,4.40185 -1.3339,-17.95546 21.41094,-1.15138 17.89178,-11.10336 5.55468,-10.72641 42.53295,8.74779 18.77836,-4.34237 -23.36083,-4.53699 -47.8628,13.3823 -68.9944,-7.10027 -8.81475,-3.44661 -45.32629,-11.36912 -35.63265,-18.07086 9.65017,-7.14045 37.17698,4.13674 11.15647,-5.24079 -11.02417,5.22539 -18.43513,-5.80388 -15.59423,-11.58309 -12.96033,-15.98984 29.99398,-9.08014 17.5759,-17.11219 -11.96648,6.73316 -6.34272,-29.58688 -19.89533,-11.90853 -7.66915,2.08937 -10.18791,-16.71707 -13.16257,-13.62637 -1.31704,-13.51379 14.98494,12.08996 21.4286,-0.93371 6.47799,28.03933 31.21669,-1.58008 47.86546,2.77291 0.82435,18.85055 29.65049,22.00315 23.65983,1.1436 4.75324,-8.58529 15.33273,-8.11428 12.86677,6.60644 13.52344,5.78926 33.85399,9.62351 26.13066,31.33594 7.25697,0.29514 11.74728,-0.63552 15.58177,1.69118 -6.66313,-12.3941 -17.30268,5.40588 -12.67963,-15.33029 -5.42072,-22.59807 -29.50012,-10.93203 -31.58562,-33.37301 -19.3268,-5.17145 -4.0196,31.86701 -27.28648,19.64321 -6.26387,-14.65872 -4.54937,-23.35031 8.17986,-28.09389 -16.43005,-3.9973 -9.00558,-33.63729 7.3958,-29.47844 7.34735,-1.04186 19.46799,10.10515 5.25809,-3.02954 1.65666,-20.54161 -6.5543,15.0522 -19.03792,0.85566 -5.94571,8.71524 -29.84992,38.46507 -38.9439,15.93968 -7.85908,-16.30331 -25.67463,-35.06384 3.46895,-39.42849 14.1157,-12.3677 30.35126,-22.74142 48.89477,-27.95897 15.07298,-0.84728 14.61267,17.21603 31.33396,14.77064 11.36173,0.89624 -17.5805,-7.14812 -16.03187,-6.88787 1.46002,-19.33969 -39.74001,-0.90688 -18.36257,-23.90749 9.48393,-9.85148 17.28944,-27.85392 30.47151,-36.97373 4.87008,-8.147224 41.4441,-24.700356 14.26341,-14.477846 -16.5548,11.061034 -10.25242,-8.913554 -1.00981,-14.580767 0.31329,-15.541552 -23.84189,-34.39602 -1.02369,-40.831363 -24.62001,-2.817609 -6.24242,27.1715 -0.0591,37.825869 -13.67688,9.337102 -8.58054,33.529467 -32.45047,31.892907 -19.21826,11.77447 -34.01357,27.35693 -50.35649,41.64809 -18.36098,6.41927 -16.27274,-34.2613 2.54888,-26.08691 13.21586,6.08484 6.60782,-18.839494 20.91827,-19.516826 8.86423,-12.722431 11.9013,-25.021678 0.95128,-4.836217 -7.18929,7.163515 -16.74313,12.951603 -16.92206,22.560293 -6.93187,-5.67435 3.8243,-34.055233 -3.26812,-35.117435 0.61449,16.41076 -6.31375,33.770185 -24.12967,42.249985 11.45426,26.00149 -29.22886,20.07069 -33.40763,44.99107 -4.80857,20.33132 -11.68361,-4.30067 -0.62527,-4.32135 -0.2358,-10.9771 5.14506,-33.83438 4.95722,-41.20405 -5.009,17.37741 -11.23054,32.7918 -29.47974,34.1898 -5.43049,8.567 -16.79109,32.21645 -21.22999,29.49078 -4.92236,-3.11168 9.86382,-26.26486 8.7398,-28.79592 -12.46319,25.72308 -22.99201,-14.0201 -7.36346,-20.85386 11.59972,-7.83517 21.01098,-19.2507 30.88344,-11.17064 8.06688,-7.62433 17.87568,-32.106072 4.61238,-9.97951 -6.14854,15.47647 -12.89595,-2.54573 -23.73182,7.37209 -7.31407,-16.96257 18.86657,-24.333425 23.75913,-37.178555 -1.80681,-6.900275 2.33526,-32.156387 8.37666,-14.472012 21.09577,-3.019029 -0.29336,31.908017 14.05875,8.49613 -8.68504,-9.971133 -11.91395,-13.167919 -19.75745,-18.047921 -9.24328,4.007243 -2.43855,40.358288 -14.84121,20.713637 -9.58007,-15.246919 3.41616,-33.548245 13.93038,-43.106159 27.97062,-1.120963 -10.60307,3.653933 -6.50862,-15.60792 1.21028,-11.907023 8.08046,-31.059896 -0.99077,-8.015652 1.2269,15.557834 2.74192,30.581913 -9.30254,41.245051 -6.94339,19.418474 9.27609,40.130459 -13.80429,52.046901 -8.73377,28.65277 -2.31314,-49.546042 -6.07316,-11.943579 -2.86369,12.872929 -10.36291,24.392689 -11.9525,34.160799 -5.60799,-8.0547 11.98456,-30.807067 -2.53207,-18.62845 -12.27444,21.612 -8.15004,-31.691067 -13.11461,-0.86191 -5.06987,12.86437 -30.77408,-1.73936 -14.14448,-14.467281 -0.43277,-15.950397 18.0393,-24.622843 7.9872,-38.903141 4.08138,9.301025 -3.12414,28.181211 -13.3381,17.211693 6.49187,-18.707479 4.43898,-18.713149 -3.63315,-1.53133 7.91857,15.864965 -1.88925,34.718119 -6.04296,48.812009 -1.59162,-9.92438 -19.92991,-26.456638 -4.53741,-6.39105 -0.92417,7.02082 -0.92172,40.19956 -11.46237,26.31166 -7.38895,-12.23608 -4.07321,8.3143 -9.45403,-9.74479 -10.6154,-18.03114 7.17167,-44.726194 0.2124,-58.397049 3.99512,22.68677 -16.62532,37.079829 -26.3989,10.793209 2.14865,-15.704918 -8.29908,-21.773863 -8.95891,-33.167163 14.03182,-12.808823 11.4646,-33.541855 -6.82655,-39.26168 -6.48149,-7.9156803 5.39998,13.585259 13.00621,11.091118 8.09868,11.534426 -21.25588,36.956337 -1.68278,40.21331 -0.71801,20.731708 12.838,39.903655 14.44631,58.492705 2.03151,6.05486 -0.15927,37.83159 -4.10266,20.27688 0.20096,-6.68901 -5.63077,7.65691 -8.07948,-7.95999 -0.31201,0.97417 3.13246,39.15493 -8.5429,18.27685 -8.28487,-12.2383 -28.63132,-10.00758 -29.6359,-31.49321 -1.02751,-15.55343 -7.67497,-23.999779 -21.65933,-30.547928 -4.36424,-21.87228 -0.94242,-45.606099 -16.97104,-65.072815 0.64437,5.961667 12.88262,31.872479 6.90572,46.437636 9.69911,16.85991 1.78435,33.230937 -11.40465,19.266303 C 138.77803,115.65477 93.4758,90.833881 96.925266,75.835843 77.153427,64.398044 50.309999,52.648998 54.19478,25.175992 50.978269,23.090424 65.186215,-13.443756 57.761415,0.52133084 z M 277.14642,115.43932 c 20.73311,4.71092 -12.4744,38.01588 -14.05964,12.71094 0.37052,-7.20302 3.47135,-5.08966 10.67714,-11.02482 -0.70961,-2.27168 2.28499,-2.19101 3.3825,-1.68612 z m -182.508674,6.49131 c 21.466764,2.41653 28.399944,22.64935 29.233344,40.35002 16.01893,-1.77944 23.44096,30.30115 40.44384,20.71304 9.01187,-9.18272 16.4848,33.10846 3.35845,12.22336 -3.1154,-25.56464 -3.22006,19.45831 11.78908,22.94369 13.24786,14.63937 -12.20062,9.67814 -21.92373,3.80865 -4.02578,-10.92368 -10.28239,-25.8639 -22.34716,-30.97822 -12.03929,0.75315 -32.62578,18.15248 -32.28854,-6.25174 1.31522,-19.1392 -21.1109,-33.75353 -10.318512,-53.00758 -0.328918,-3.55618 -7.052848,-12.04668 2.053228,-9.80122 z m 58.296214,84.34687 c -0.77867,5.76121 3.4635,-3.52402 0,0 z m 143.03376,-83.42326 c -2.53063,1.51655 0.15981,0.87435 0,0 z m -166.37386,20.10583 c 12.27758,-0.36784 37.63727,38.31953 18.17112,29.74896 -10.90893,-1.38784 -15.61988,-14.43965 -24.53659,-17.03667 1.05062,-3.41858 -0.0794,-14.99626 6.36547,-12.71229 z m 55.25189,3.67615 c 5.28185,13.04561 -16.44727,-4.86941 0,0 l 0,0 z m 26.18026,3.93812 c 2.39738,4.90202 -3.80733,-1.60243 0,0 z m 5.2319,0.43404 c -1.32563,1.90098 -0.89733,-1.94434 0,0 z m -2.67002,0.78647 c -2.03956,2.7387 -0.79821,-1.83591 0,0 z m 138.91355,6.63883 c 0.44802,6.52684 -8.77859,0.56293 0,0 z m 26.30759,62.3203 c -0.93446,3.40619 -2.89448,-3.11437 0,0 l 0,0 z m 4.49624,4.59486 c 8.17129,14.20786 -9.76925,18.72596 -17.97279,12.17354 -19.90317,-18.34446 18.63621,-3.47317 17.97279,-12.17354 z m -268.02552,31.06578 c -0.36512,1.9042 -0.91331,-1.88709 0,0 z m 52.52944,38.50807 c -10.90445,10.76989 0.98838,-4.01213 0,0 z m 230.86615,41.18442 c 19.40815,5.68199 -22.34993,0.257 0,0 z m 8.23438,3.81465 c 4.13411,3.69023 -6.15056,-3.50651 0,0 z m -86.44282,9.4834 c -1.14646,5.96209 -5.43637,-2.78156 0,0 z m -5.28039,9.17448 c 0.49714,12.52143 -10.29958,-0.0532 0,0 z m 5.38247,9.77166 c -2.20681,13.39217 -1.39813,-5.76983 0,0 z m -37.54949,9.67106 c 15.58628,16.1814 -13.08049,18.58455 0,0 z m -27.49718,14.05022 c 19.17461,17.46714 -13.21894,1.67607 0,0 z m 7.02117,0.59007 c -0.88312,1.889 -0.88061,-1.89016 0,0 z m 0.71116,1.02819 c 0.27654,5.41917 -2.70999,-0.20507 0,0 z m -24.24786,-0.0351 c -0.76067,1.9544 -0.86656,-1.54863 0,0 z m 9.94831,4.37907 c -1.03719,2.23055 -1.25909,-1.95594 0,0 z M 76.504089,488.32486 c -0.303274,5.02398 -1.752941,-2.22375 0,0 z M 282.35202,17.191879 c -7.12797,12.456767 14.72756,12.093934 2.06988,23.702187 -3.13658,5.028258 -14.03315,18.362883 -3.09281,7.247108 8.10611,-6.213594 16.65247,-23.974452 0.008,-24.25259 1.74029,-0.539472 2.80133,-13.746787 1.01453,-6.696705 z m 79.29465,16.528849 c -2.81018,5.759649 14.55937,-3.390644 0,0 z M 260.79434,46.079041 c -2.11383,29.157955 2.37191,-8.466556 0,0 z M 439.52108,70.70825 c 0.34818,3.445956 0.75381,-5.870831 0,0 z M 161.86423,319.40803 c 0.88056,1.89019 0.88317,-1.88897 0,0 z m 304.68982,26.38576 c 2.59703,1.49669 6.91925,-2.7596 0,0 z m 8.30105,0.67739 c 10.89498,7.80567 -1.07097,-3.10069 0,0 z m -14.74778,14.53121 c -1.46159,5.55892 3.74181,-1.79592 0,0 z m -41.38294,8.5958 c 14.25068,11.54569 12.39817,5.44162 0,0 z m -217.23602,11.53756 c -3.00142,5.46285 5.47226,-5.07845 0,0 z m 268.30655,3.14808 c -5.17866,8.14336 3.00736,-2.77102 0,0 z m -181.26966,10.26675 c -2.17923,2.65104 3.75965,-2.42923 0,0 z m 160.16395,8.22537 c 1.19207,1.97058 0.52392,-2.72502 0,0 z m 5.14455,2.55952 c 6.68509,8.14387 -1.66044,0.77844 10e-6,0 l -10e-6,0 z m 6.57202,57.14972 c -11.49827,4.37508 13.79118,-1.4677 9.03352,15.12715 15.62773,7.71887 -3.51512,-2.13037 -2.29709,-13.81727 -1.58603,-1.0235 -5.70663,-5.20118 -6.73643,-1.30988 z m -85.50574,5.96014 c 1.60791,0.61264 0.008,-0.97475 0,0 z m 1.95509,2.18346 c 1.92601,2.02933 -1.31203,-3.5518 0,0 z m 15.53022,7.38193 c 4.35095,7.36605 17.72873,-1.13361 19.08522,5.96342 -3.71177,-14.01285 -19.44392,-0.7767 -19.08522,-5.96342 z m 19.54123,9.60846 c 1.23358,1.44741 -1.22338,-3.05717 0,0 z M 63.60763,509.30225 c -8.540712,11.03645 8.557542,-5.58155 0,0 z"
     style="fill:#08030d" />
</svg>
