<?xml version="1.0" encoding="UTF-8" standalone="no"?>
<svg
   xmlns:dc="http://purl.org/dc/elements/1.1/"
   xmlns:cc="http://creativecommons.org/ns#"
   xmlns:rdf="http://www.w3.org/1999/02/22-rdf-syntax-ns#"
   xmlns:svg="http://www.w3.org/2000/svg"
   xmlns="http://www.w3.org/2000/svg"
   xmlns:sodipodi="http://sodipodi.sourceforge.net/DTD/sodipodi-0.dtd"
   xmlns:inkscape="http://www.inkscape.org/namespaces/inkscape"
   sodipodi:docname="suess boots.svg"
   height="100%"
   width="100%"
   inkscape:version="0.48.4 r9939"
   version="1.1"
   id="svg8438"
   viewBox="0 0 512 512">
  <metadata
     id="metadata8464">
    <rdf:RDF>
      <cc:Work
         rdf:about="">
        <dc:format>image/svg+xml</dc:format>
        <dc:type
           rdf:resource="http://purl.org/dc/dcmitype/StillImage" />
        <dc:title></dc:title>
      </cc:Work>
    </rdf:RDF>
  </metadata>
  <defs
     id="defs8462">
    <linearGradient
       id="linearGradient4077">
      <stop
         id="stop4079"
         offset="0"
         style="stop-color:#aa4400;stop-opacity:1;" />
      <stop
         style="stop-color:#ff9f00;stop-opacity:1;"
         offset="0.22752622"
         id="stop4081" />
      <stop
         style="stop-color:#803300;stop-opacity:1;"
         offset="0.4948855"
         id="stop4083" />
      <stop
         id="stop4085"
         offset="1"
         style="stop-color:#562200;stop-opacity:1;" />
    </linearGradient>
    <linearGradient
       id="linearGradient4057">
      <stop
         style="stop-color:#aa4400;stop-opacity:1;"
         offset="0"
         id="stop4059" />
      <stop
         id="stop4067"
         offset="0.22752622"
         style="stop-color:#ecd1a4;stop-opacity:1;" />
      <stop
         id="stop4065"
         offset="0.50136983"
         style="stop-color:#803300;stop-opacity:1;" />
      <stop
         style="stop-color:#562200;stop-opacity:1;"
         offset="1"
         id="stop4061" />
    </linearGradient>
    <linearGradient
       id="linearGradient3890">
      <stop
         style="stop-color:#701b1b;stop-opacity:1;"
         offset="0"
         id="stop3892" />
      <stop
         style="stop-color:#e31600;stop-opacity:1;"
         offset="1"
         id="stop3894" />
    </linearGradient>
    <linearGradient
       id="linearGradient3882">
      <stop
         style="stop-color:#600b0b;stop-opacity:1;"
         offset="0"
         id="stop3884" />
      <stop
         style="stop-color:#d11414;stop-opacity:1;"
         offset="1"
         id="stop3886" />
    </linearGradient>
    <linearGradient
       id="linearGradient3872">
      <stop
         style="stop-color:#800600;stop-opacity:1;"
         offset="0"
         id="stop3874" />
      <stop
         style="stop-color:#ff0004;stop-opacity:0;"
         offset="1"
         id="stop3876" />
    </linearGradient>
    <filter
       id="filter4074"
       inkscape:label="Black Light"
       inkscape:menu="Color"
       inkscape:menu-tooltip="Light areas turn to black"
       x="0"
       width="1"
       y="0"
       height="1"
       color-interpolation-filters="sRGB">
      <feColorMatrix
         id="feColorMatrix4076"
         type="luminanceToAlpha"
         result="result2" />
      <feComposite
         in2="SourceGraphic"
         id="feComposite4078"
         operator="arithmetic"
         in="result2"
         k3="2"
         result="result4" />
      <feBlend
         in2="result2"
         id="feBlend4080"
         in="result4"
         mode="multiply"
         result="result3" />
      <feComposite
         in2="SourceGraphic"
         id="feComposite4082"
         operator="in"
         in="result3" />
    </filter>
  </defs>
  <sodipodi:namedview
     pagecolor="#000000"
     bordercolor="#666666"
     borderopacity="1"
     objecttolerance="10"
     gridtolerance="10"
     guidetolerance="10"
     inkscape:pageopacity="0"
     inkscape:pageshadow="2"
     inkscape:window-width="1190"
     inkscape:window-height="1126"
     id="namedview8460"
     showgrid="false"
     inkscape:zoom="1.4142136"
     inkscape:cx="228.3918"
     inkscape:cy="185.44696"
     inkscape:window-x="99"
     inkscape:window-y="140"
     inkscape:window-maximized="0"
     inkscape:current-layer="svg8438"
     showguides="true"
     inkscape:guide-bbox="true"
     inkscape:snap-midpoints="true" />
  <path
     style="fill:#000000"
     id="path3978"
     d="M -13.466093,0.1885736 H 514.89024 V 516.42957 H -13.466093 z"
     inkscape:connector-curvature="0" />
  <path
     sodipodi:type="arc"
     style="opacity:0.98999999;fill:#ff0000;fill-opacity:0.74970506;fill-rule:nonzero;stroke:none"
     id="path5005"
     sodipodi:cx="640"
     sodipodi:cy="124.5"
     sodipodi:rx="105"
     sodipodi:ry="118.5"
     d="m 743.4676,104.32865 a 105,118.5 0 0 1 0.002,0.0163 L 640,124.5 z"
     sodipodi:start="6.11213"
     sodipodi:end="6.1122693" />
  <g
     id="g6448" />
  <g
     id="g7611"
     transform="matrix(-4.0776428,0,0,4.2675232,993.83617,-672.01247)">
    <path
       style="fill:#d2b188"
       d="m 168.06446,266.74716 c -3.81846,-1.92251 -7.53096,-3.49547 -8.25,-3.49547 -0.71903,0 -1.30733,-0.45 -1.30733,-1 0,-0.55 -0.68912,-1 -1.53138,-1 -0.84227,0 -1.79041,-0.675 -2.10699,-1.5 -0.31659,-0.825 -1.20246,-1.5 -1.96862,-1.5 -0.76615,0 -1.39301,-0.96117 -1.39301,-2.13593 0,-3.33734 4.35761,-13.83305 5.75,-13.84939 0.81264,-0.01 1.25,-1.58917 1.25,-4.51468 0,-4.35833 -0.0969,-4.5 -3.07692,-4.5 -3.95805,0 -9.39112,5.10221 -8.61075,8.08636 0.38877,1.48666 -0.11302,2.26756 -1.8916,2.94378 -1.65763,0.63023 -2.42073,1.69764 -2.42073,3.38609 0,1.35616 -0.43962,2.73743 -0.97693,3.06951 -1.47531,0.91179 -9.05233,-1.39842 -9.64407,-2.94045 -0.48066,-1.25259 0.88491,-4.86839 5.70694,-15.11101 1.05273,-2.23615 1.91406,-4.59865 1.91406,-5.25 0,-0.65136 0.675,-1.18428 1.5,-1.18428 0.96079,0 1.5,-0.96492 1.5,-2.68428 0,-2.84399 1.26382,-5.8138 9.28381,-21.81572 7.40394,-14.77274 7.63526,-15.18794 9.17266,-16.46387 0.77823,-0.64588 1.70465,-2.49323 2.05871,-4.10522 0.43935,-2.00037 1.25349,-2.93091 2.56428,-2.93091 1.05629,0 1.92054,-0.63828 1.92054,-1.4184 0,-1.76252 6.87979,-9.0108 11.58058,-12.20084 3.17963,-2.15776 4.55917,-2.38076 14.72795,-2.38076 8.5566,0 12.40315,0.44704 16.20559,1.88339 8.93009,3.37328 12.48588,5.12513 12.48588,6.15147 0,0.55441 1.07556,1.49808 2.39014,2.09704 1.31457,0.59896 2.96561,2.16431 3.66897,3.47856 0.70337,1.31425 1.84291,2.38954 2.53232,2.38954 0.68941,0 1.7744,1.57846 2.4111,3.50768 0.6367,1.92922 2.0216,3.97006 3.07756,4.53518 1.71254,0.91653 1.91991,2.20219 1.91991,11.90323 0,8.05877 -0.51468,12.51763 -1.9871,17.21482 -1.0929,3.4865 -1.9929,7.14071 -2,8.12047 -0.007,0.97977 -0.6879,2.04041 -1.5129,2.35699 -0.825,0.31659 -1.5,1.38742 -1.5,2.37963 0,1.86266 -3.97686,13.09418 -4.95101,13.98276 -1.19897,1.09363 -4.05108,7.25973 -4.08443,8.83028 -0.0605,2.84805 -2.29538,5.90503 -6.59041,9.01458 -9.30526,6.73688 -16.0071,8.79373 -31.37415,9.62897 -9.32341,0.50676 -9.62905,0.45138 -16.44267,-2.97912 z"
       id="path7627"
       inkscape:connector-curvature="0" />
    <path
       style="fill:#c7a073"
       d="m 173.00713,268.85938 c -5.93398,-1.86701 -8.49061,-3.47416 -8.57895,-5.39287 -0.0434,-0.94315 -0.28999,-1.20009 -0.54794,-0.57098 -0.6594,1.60819 -4.37705,0.43344 -7.34887,-2.32218 -1.37709,-1.27691 -3.0709,-2.32166 -3.76402,-2.32166 -1.82604,0 -1.48758,-3.88882 0.73978,-8.5 1.06268,-2.2 1.94741,-4.7875 1.96607,-5.75 0.0187,-0.9625 0.70893,-1.75 1.53393,-1.75 1.11111,0 1.5,-1.16667 1.5,-4.5 0,-4.30709 -0.12532,-4.5 -2.92327,-4.5 -3.76842,0 -9.07673,4.39878 -9.07673,7.52151 0,1.46546 -0.74946,2.58158 -2,2.97849 -1.38874,0.44077 -2,1.51303 -2,3.50837 0,3.9536 -1.41233,4.48778 -6.61354,2.50142 -3.81769,-1.45799 -4.36638,-2.01327 -3.81076,-3.85651 0.357,-1.1843 1.04851,-2.58078 1.53669,-3.10328 0.48819,-0.5225 0.90168,-1.6475 0.91888,-2.5 0.0172,-0.8525 1.13809,-3.8 2.49086,-6.55 1.35277,-2.75 2.4637,-5.5625 2.46873,-6.25 0.005,-0.6875 0.68414,-1.25 1.50914,-1.25 0.93961,0 1.5,-0.94887 1.5,-2.53984 0,-1.39691 0.9,-4.30398 2,-6.46016 1.1,-2.15618 2,-4.61325 2,-5.46016 0,-0.84691 0.45,-1.53984 1,-1.53984 0.55,0 1,-0.4357 1,-0.96823 0,-0.85674 4.61537,-10.51785 9.45028,-19.78177 0.93291,-1.7875 2.09518,-3.25 2.58282,-3.25 0.48764,0 1.42591,-1.8 2.08505,-4 0.74824,-2.4974 1.79856,-4 2.79603,-4 0.87868,0 2.21004,-1.38361 2.95859,-3.07469 0.74854,-1.69108 2.43339,-3.56331 3.74411,-4.16051 1.31072,-0.59721 2.38312,-1.60866 2.38312,-2.24768 0,-0.63902 1.84038,-2.36679 4.08974,-3.83948 3.85618,-2.52472 4.76995,-2.67764 16,-2.67764 7.27351,0 11.91026,0.38931 11.91026,1 0,0.55 1.08803,1 2.41784,1 5.14026,0 19.58216,9.35449 19.58216,12.684 0,0.7238 0.86425,1.316 1.92054,1.316 1.30221,0 2.12381,0.92546 2.55188,2.87442 0.34723,1.58093 1.73298,3.90937 3.07945,5.17432 2.27872,2.14074 2.44813,2.98701 2.44813,12.22919 0,7.93855 -0.53581,11.66284 -2.67246,18.57569 -1.46986,4.75551 -2.93236,8.87138 -3.25,9.14638 -0.31765,0.275 -1.664,3.65 -2.9919,7.5 -1.32789,3.85 -3.46539,8.67856 -4.75,10.73013 -1.2846,2.05157 -2.33564,4.39557 -2.33564,5.2089 0,2.34463 -3.37385,8.49666 -4.75,8.66137 -0.6875,0.0823 -1.8125,0.2263 -2.5,0.32005 -0.6875,0.0937 -1.14279,0.69664 -1.01175,1.33974 0.61242,3.00571 -15.59372,9.23981 -24.01978,9.23981 -4.09007,0 -6.16734,-1.41123 -7.63621,-5.18778 -0.81038,-2.08354 -0.97046,-1.89189 -1.6186,1.93778 -0.79637,4.7055 -1.40105,4.92248 -7.96366,2.85769 z m 14.87967,-10.45783 c -0.61855,-0.87822 -2.37967,1.15141 -2.37967,2.74249 0,3.0862 1.47627,3.40608 2.06314,0.44704 0.30972,-1.56167 0.45216,-2.99695 0.31653,-3.18953 z m -4.59539,-4.51419 c -0.31093,-2.99643 -0.37455,-2.93584 -1.43273,1.36433 -0.60904,2.475 -1.43517,5.4 -1.83584,6.5 -0.40068,1.1 0.24405,0.48605 1.43273,-1.36433 1.35583,-2.1106 2.03997,-4.53285 1.83584,-6.5 z m 4.56814,-2.49099 c -0.57202,-3.12326 -0.47538,-3.28085 1.39726,-2.27865 1.77785,0.95148 2.08379,0.71664 2.63105,-2.01968 0.96565,-4.82827 0.65851,-5.6151 -0.91592,-2.34635 -0.92046,1.91101 -1.24334,2.18554 -0.8895,0.75629 0.90757,-3.66592 -2.38081,-1.62025 -3.41472,2.12426 -1.07068,3.8777 -0.32789,10.49218 0.95125,8.47076 0.47031,-0.74322 0.57857,-2.8612 0.24058,-4.70663 z m -3.13549,-4.09441 c 0.9672,-3.30487 0.68651,-3.28391 -2.10568,0.15721 -2.14664,2.64554 -2.19732,2.91091 -0.5,2.61822 1.03881,-0.17914 2.21137,-1.42808 2.60568,-2.77543 z m 9.35187,-26.81598 c 0.92016,-5.09614 2.13711,-9.55253 2.70431,-9.90308 0.68596,-0.42395 0.8034,0.837 0.35072,3.76571 -1.4415,9.32608 -1.80697,16.44196 -0.76789,14.9509 0.89634,-1.2862 1.89537,-6.44721 2.71928,-14.04782 0.14905,-1.375 0.56815,-3.45539 0.93134,-4.62309 0.54385,-1.74859 0.0878,-2.32266 -2.58527,-3.25451 -3.73311,-1.30136 -3.97608,-1.18417 -4.17695,2.01457 -0.0816,1.29967 -0.59402,2.66807 -1.13867,3.0409 -0.54466,0.37283 -0.99029,2.95936 -0.99029,5.74786 0,2.99302 -0.33669,4.55879 -0.82188,3.82213 -0.45642,-0.69298 -0.58591,0.75315 -0.29122,3.25214 0.31234,2.64858 0.20063,3.75346 -0.27152,2.68549 -0.52067,-1.17772 -0.80219,0.1969 -0.80219,3.91697 l 0,5.73148 1.7336,-3.91697 c 0.95348,-2.15433 2.48646,-8.08654 3.40663,-13.18268 z m -7.91511,-7.51005 c -0.27532,-0.67983 -0.5309,-0.41978 -0.57474,0.58478 -0.0434,0.99496 -0.52895,1.5309 -1.07895,1.19098 -0.55506,-0.34304 -1,0.39712 -1,1.66349 l 0,2.28152 1.57475,-2.24826 c 0.86611,-1.23655 1.35163,-2.79918 1.07894,-3.47251 z m 1.05605,-5.72225 c -0.11536,-1.64891 -0.54724,-2.99891 -0.95974,-3 -0.90466,-0.002 -0.97734,2.24199 -0.14301,4.41622 0.92799,2.4183 1.3345,1.89624 1.10275,-1.41622 z m 18.0909,-18.50199 c 0,-2.917 -0.0221,-2.93083 -0.80064,-0.5 -0.44035,1.375 -0.80064,3.85 -0.80064,5.5 0,2.917 0.0221,2.93084 0.80064,0.5 0.44035,-1.375 0.80064,-3.85 0.80064,-5.5 z m -4.04593,3.25 c 0.10501,-1.2375 1.35734,-6.075 2.78296,-10.75 1.42562,-4.675 2.76019,-9.27803 2.96572,-10.22897 0.65875,-3.04798 -1.07697,-2.76291 -3.00012,0.49272 -1.02503,1.73524 -2.0451,2.61077 -2.26681,1.94562 -0.22172,-0.66515 -0.86377,-1.20937 -1.42678,-1.20937 -0.56301,0 -0.72673,0.77379 -0.36382,1.71952 0.36292,0.94574 0.32756,1.38724 -0.0786,0.98111 -0.40612,-0.40613 -1.77991,1.82153 -3.05285,4.95036 -2.51559,6.18319 -2.86289,7.68124 -1.24008,5.34901 0.76404,-1.09804 0.87845,-0.40898 0.42696,2.57143 -0.54202,3.57794 -0.33706,4.20608 1.69095,5.18232 3.22673,1.55328 3.34837,1.51901 3.56244,-1.00375 z m -3.67538,-3.25 c -0.005,-1.1 0.63465,-3.125 1.42067,-4.5 1.8261,-3.19442 1.83398,-2.51064 0.0288,2.5 -0.79258,2.2 -1.44486,3.1 -1.44951,2 z m 5.36515,-13.18658 c 0.84771,-1.75263 2.03939,-3.49443 2.64818,-3.87068 1.3416,-0.82916 -0.10501,2.01995 -2.56779,5.05726 -1.50531,1.85647 -1.51107,1.77131 -0.0804,-1.18658 z"
       id="path7625"
       inkscape:connector-curvature="0" />
    <path
       style="fill:#b08b62"
       d="m 173.00713,268.85938 c -5.70986,-1.7965 -8.5,-3.46528 -8.5,-5.08386 0,-0.77319 -0.44485,-1.68073 -0.98855,-2.01675 -0.55637,-0.34386 -0.74042,0.0356 -0.42101,0.86802 0.8372,2.18169 -3.44203,0.84345 -6.5662,-2.05344 -1.37709,-1.27691 -3.0709,-2.32166 -3.76402,-2.32166 -1.82604,0 -1.48758,-3.88882 0.73978,-8.5 1.06268,-2.2 1.94741,-4.7875 1.96607,-5.75 0.0187,-0.9625 0.70893,-1.75 1.53393,-1.75 1.11111,0 1.5,-1.16667 1.5,-4.5 0,-4.30709 -0.12532,-4.5 -2.92327,-4.5 -3.73258,0 -9.07673,4.39948 -9.07673,7.47226 0,1.45347 -0.73307,2.48618 -2,2.81749 -1.44572,0.37806 -2,1.36401 -2,3.55761 0,4.1183 -1.36379,4.66733 -6.61354,2.66243 -3.81769,-1.45799 -4.36638,-2.01327 -3.81076,-3.85651 0.357,-1.1843 1.04851,-2.58078 1.53669,-3.10328 0.48819,-0.5225 0.90168,-1.6475 0.91888,-2.5 0.0172,-0.8525 1.13809,-3.8 2.49086,-6.55 1.35277,-2.75 2.4637,-5.5625 2.46873,-6.25 0.005,-0.6875 0.68414,-1.25 1.50914,-1.25 0.93391,0 1.5,-0.94485 1.5,-2.50362 0,-1.377 0.9,-4.18283 2,-6.2352 1.1,-2.05236 2,-4.52573 2,-5.49637 0,-0.97065 0.45,-1.76481 1,-1.76481 0.55,0 1,-0.4357 1,-0.96823 0,-0.85449 4.66166,-10.61463 9.40161,-19.68421 0.90615,-1.73384 2.28665,-3.39769 3.06779,-3.69744 0.78114,-0.29975 1.72016,-2.14365 2.08672,-4.09756 0.4427,-2.35982 1.21862,-3.55256 2.31106,-3.55256 0.90453,0 2.25704,-1.38361 3.00559,-3.07469 0.74854,-1.69108 2.43339,-3.56331 3.74411,-4.16051 1.31072,-0.59721 2.38312,-1.69973 2.38312,-2.45006 0,-0.75033 1.03099,-1.75622 2.2911,-2.23531 1.2601,-0.47909 2.8902,-1.59295 3.62244,-2.47525 1.09063,-1.31413 3.56934,-1.60418 13.7089,-1.60418 7.58504,0 12.37756,0.3872 12.37756,1 0,0.55 1.10119,1 2.44709,1 4.88367,0 19.55291,9.48372 19.55291,12.64103 0,0.74743 0.86425,1.35897 1.92054,1.35897 1.32696,0 2.12716,0.94069 2.58903,3.04357 0.36766,1.67397 1.75342,4.12851 3.07945,5.45455 2.58513,2.58513 3.56607,9.27206 1.16098,7.9142 -1,-0.56458 -1,-0.43638 0,0.64098 1.48612,1.60109 1.68428,4.33313 0.25,3.4467 -0.55,-0.33992 -1,-0.16803 -1,0.38197 0,0.55 0.45,1.27811 1,1.61803 1.44679,0.89417 1.22741,7.72952 -0.37001,11.52868 -1.27488,3.03203 -1.45372,3.12681 -2.57551,1.36481 -1.15196,-1.80941 -1.17254,-1.80468 -0.46336,0.10651 1.07968,2.90967 0.58542,8.57905 -0.9545,10.94842 -0.73335,1.12837 -1.89945,3.85158 -2.59133,6.05158 -1.09918,3.49512 -3.92737,9.90525 -9.90325,22.44589 -0.90312,1.89523 -1.51037,3.86523 -1.34945,4.37777 0.16092,0.51253 -0.61003,0.69584 -1.71323,0.40734 -1.96583,-0.51407 -4.61515,1.39987 -3.49218,2.52285 1.01813,1.01813 -7.93163,5.60164 -14.04728,7.19415 -8.44576,2.19926 -13.17317,2.06239 -13.81711,-0.40005 -0.28076,-1.07363 -0.0454,-2.1071 0.52314,-2.29659 0.56849,-0.1895 1.38736,-2.95128 1.81971,-6.1373 0.43235,-3.18601 1.447,-6.54004 2.25478,-7.4534 0.80778,-0.91337 1.68026,-3.68566 1.93886,-6.16066 0.25859,-2.475 1.8542,-8.55 3.54579,-13.5 1.69159,-4.95 3.06337,-10.125 3.0484,-11.5 -0.015,-1.375 0.26304,-4.59397 0.61778,-7.15327 0.64476,-4.65157 0.64368,-4.6537 -2.98013,-5.84966 -1.99382,-0.65802 -3.81109,-1.01043 -4.03838,-0.78314 -0.22729,0.22729 -1.76875,7.3426 -3.42546,15.81181 -3.36879,17.22144 -4.9277,22.75342 -5.94709,21.10402 -0.38929,-0.6299 -1.27034,0.50718 -2.03809,2.63035 -1.33084,3.68038 -1.27054,4.9827 0.2079,4.48989 1.0504,-0.35013 0.93818,0.55834 -0.76082,6.15893 -0.81905,2.69991 -1.45755,5.84991 -1.41889,7 0.0692,2.05975 0.0845,2.06111 1.02052,0.0911 0.82816,-1.74306 0.88512,-1.67882 0.44337,0.5 -0.27878,1.375 -0.51302,3.2875 -0.52053,4.25 -0.0159,2.04275 -1.87647,2.13132 -7.51365,0.35769 z m -0.14384,-2.23458 c -0.62911,-0.25795 -0.95738,-1.45993 -0.72948,-2.67106 0.3874,-2.05872 0.35609,-2.07187 -0.48102,-0.20205 -1.01564,2.26857 -0.58433,3.5369 1.16336,3.42105 0.8598,-0.057 0.87291,-0.20936 0.0471,-0.54794 z m 2.57355,-14.18213 c 0.0387,-1.26996 0.51514,-2.03408 1.05884,-1.69806 0.57059,0.35265 0.73225,-0.0569 0.38235,-0.96876 -0.33341,-0.86885 -1.42207,-2.01636 -2.41925,-2.55003 -1.47578,-0.78982 -1.87739,-0.55213 -2.15891,1.27778 -0.19023,1.23645 0.0801,4.02139 0.60073,6.18875 0.77795,3.2386 1.08194,3.59492 1.70628,2 0.41782,-1.06736 0.79131,-2.97972 0.82996,-4.24968 z m 45.44435,-6.4661 c -0.32684,-1.10558 -0.0473,-1.67135 0.74119,-1.5 0.69628,0.15132 1.40138,-0.62488 1.56687,-1.72488 0.3009,-2 0.3009,-2 -0.62032,0 -0.85564,1.8576 -0.92914,1.822 -1.03229,-0.5 -0.0752,-1.69265 -0.86268,-0.40088 -2.43847,4 -1.28007,3.575 -2.09467,6.90303 -1.81021,7.39562 0.82675,1.43166 4.1726,-5.71099 3.59323,-7.67074 z m -45.73569,-1.22488 c -0.35062,-0.91371 -0.002,-1.5 0.89301,-1.5 0.80774,0 1.46862,-0.375 1.46862,-0.83333 0,-0.45834 -0.65564,-0.83334 -1.45697,-0.83334 -1.61978,0 -2.86004,2.34471 -1.98726,3.75691 0.91123,1.4744 1.70815,1.03991 1.0826,-0.59024 z m 51.29134,-9.85699 c 0.0387,-0.47134 -0.61512,-0.59397 -1.45285,-0.2725 -1.22896,0.47159 -1.32553,0.21525 -0.5,-1.32727 0.56273,-1.05147 1.00512,-2.27884 0.9831,-2.7275 -0.022,-0.44866 -0.71211,0.42314 -1.53354,1.93733 -1.19474,2.20233 -1.25534,3.19808 -0.30292,4.97769 1.15679,2.16149 1.21252,2.1685 1.96326,0.24694 0.42497,-1.08774 0.8043,-2.36334 0.84295,-2.83469 z m -44.46946,-3.76824 c -0.4539,-1.43014 -0.31241,-1.90143 0.43262,-1.44098 0.60892,0.37633 1.14156,0.0952 1.18364,-0.62477 0.0855,-1.46223 0.2696,-2.36045 1.80583,-8.80902 2.58025,-10.83103 2.8954,-13 1.88889,-13 -0.58648,0 -0.48975,-0.63424 0.22877,-1.5 1.02579,-1.23601 0.93735,-1.5 -0.50256,-1.5 -1.4146,0 -1.63126,0.58089 -1.1375,3.04971 0.33547,1.67734 0.21606,2.80628 -0.26535,2.50875 -0.48141,-0.29753 -1.16653,1.01146 -1.52248,2.90885 -0.35595,1.8974 -1.44039,5.85417 -2.40986,8.79282 -1.24407,3.77104 -1.51882,6.284 -0.93386,8.54143 0.45583,1.75914 1.07125,3.19844 1.36759,3.19844 0.29634,0 0.23526,-0.95635 -0.13573,-2.12523 z m 18.39918,-4.87477 c 0,-0.94548 -0.31771,-0.76064 -0.85943,0.5 -0.47269,1.1 -0.85943,2.675 -0.85943,3.5 0,0.94548 0.31771,0.76064 0.85943,-0.5 0.47269,-1.1 0.85943,-2.675 0.85943,-3.5 z m -22.42197,-13.6505 c 0.16672,-2.66722 0.52579,-6.1995 0.79792,-7.8495 0.27213,-1.65 0.2992,-2.2125 0.0602,-1.25 -0.23905,0.9625 -0.89083,1.75 -1.44841,1.75 -0.55758,0 -0.81209,0.5625 -0.56558,1.25 0.24651,0.6875 0.0578,2.01019 -0.41937,2.93931 -0.51608,1.0049 -0.47461,1.93218 0.10237,2.28878 0.53347,0.3297 0.69505,2.04451 0.35906,3.81068 -0.33598,1.76618 -0.29102,2.91851 0.0999,2.56073 0.39094,-0.35777 0.84721,-2.83277 1.01394,-5.5 z m 27.65943,-17.5995 c 0.0533,-0.6875 0.0626,-3.05 0.0206,-5.25 -0.0628,-3.29281 0.0988,-3.6464 0.91386,-2 0.75745,1.53001 0.86139,1.06001 0.44229,-2 -0.39782,-2.90467 -0.26804,-3.58925 0.47395,-2.5 1.17195,1.72045 1.26442,0.39851 0.16762,-2.39657 -0.567,-1.44495 -1.27041,-0.22931 -2.95396,5.10503 -2.07789,6.58385 -2.09744,10.29154 -0.0543,10.29154 0.49115,0 0.93661,-0.5625 0.9899,-1.25 z m -3.65917,-4.5 c 1.56076,-8.86392 5.78678,-19.70936 8.56228,-21.97379 1.25168,-1.0212 1.00336,-1.19194 -1.5,-1.03137 -3.07685,0.19736 -5.5,1.80649 -5.5,3.65235 0,0.57203 -0.6029,0.80869 -1.33979,0.52592 -1.90013,-0.72915 -3.03227,1.05472 -6.02757,9.49735 -2.7432,7.73209 -3.50703,11.97996 -1.63264,9.07954 0.84753,-1.31145 0.9713,-1.29923 0.98469,0.0972 0.013,1.35839 3.04054,3.61118 5.15402,3.83514 0.35129,0.0372 0.93584,-1.61982 1.29901,-3.68232 z M 186.4696,176.70647 c -0.62406,-0.75194 -0.84435,-1.83688 -0.48954,-2.41097 0.35481,-0.57409 0.40938,-1.04381 0.12127,-1.04381 -0.28811,0 -1.03613,0.95723 -1.66226,2.12718 -0.88104,1.64623 -0.84327,2.30959 0.16707,2.93401 1.87392,1.15815 3.20531,0.0104 1.86346,-1.60641 z m -2.35217,87.04522 c 0.82247,-3.67693 1.39483,-4.47511 1.37439,-1.91667 -0.008,1.05417 -0.47209,2.59167 -1.03038,3.41667 -0.74131,1.09546 -0.83408,0.69092 -0.34401,-1.5 z"
       id="path7623"
       inkscape:connector-curvature="0" />
    <path
       style="fill:#99734b"
       d="m 174.22463,269.16011 c -9.36162,-2.2044 -11.54615,-5.24861 -9.69475,-13.50993 0.57486,-2.56513 0.81983,-4.88924 0.54439,-5.16469 -0.27545,-0.27544 -0.81362,1.45541 -1.19595,3.84634 -0.56778,3.55073 -0.85148,3.9874 -1.54853,2.38351 -0.619,-1.42431 -0.6988,-1.13966 -0.29054,1.03635 0.30957,1.65 0.78497,3.75021 1.05645,4.66712 0.69901,2.3609 -3.31452,1.19784 -6.35351,-1.84115 -1.27928,-1.27928 -2.98051,-2.32597 -3.78051,-2.32597 -2.01748,0 -1.78111,-3.68344 0.54545,-8.5 1.06268,-2.2 1.94741,-4.7875 1.96607,-5.75 0.0187,-0.9625 0.70893,-1.75 1.53393,-1.75 1.11111,0 1.5,-1.16667 1.5,-4.5 0,-4.25322 -0.15232,-4.5 -2.77749,-4.5 -2.67087,0 -6.92367,2.23373 -8.4572,4.44204 -0.40408,0.58188 -0.74158,2.01798 -0.75,3.19133 -0.009,1.28433 -0.81127,2.34152 -2.01531,2.65638 -1.44572,0.37806 -2,1.36401 -2,3.55761 0,2.98011 -2.03846,5.53726 -2.73893,3.43585 -0.19633,-0.58899 -1.23539,-0.84118 -2.30902,-0.56042 -1.1186,0.29252 -1.95205,0.009 -1.95205,-0.66518 0,-0.6466 -0.39901,-0.92904 -0.88669,-0.62764 -1.99759,1.23458 -3.04756,-2.00281 -1.572,-4.84696 0.80228,-1.54639 1.45869,-3.32627 1.45869,-3.95527 0,-0.62901 1.125,-3.25696 2.5,-5.83989 1.375,-2.58293 2.5,-5.44433 2.5,-6.35868 0,-1.12034 0.59843,-1.50594 1.83519,-1.18252 1.5012,0.39257 1.74769,0.0222 1.35439,-2.03525 -0.26444,-1.38334 0.23241,-3.90931 1.10412,-5.61328 0.8717,-1.70397 2.57376,-5.34812 3.78234,-8.09812 2.11337,-4.80874 6.8697,-14.55467 10.32307,-21.15244 0.90752,-1.73384 2.28915,-3.39769 3.07029,-3.69744 0.78114,-0.29975 1.72016,-2.14365 2.08672,-4.09756 0.4427,-2.35982 1.21862,-3.55256 2.31106,-3.55256 0.90453,0 2.25704,-1.38361 3.00559,-3.07469 0.74854,-1.69108 2.43339,-3.56331 3.74411,-4.16051 1.31072,-0.59721 2.38312,-1.70272 2.38312,-2.4567 0,-0.75397 0.7875,-1.65834 1.75,-2.0097 0.9625,-0.35136 2.85732,-1.48908 4.21071,-2.52827 2.13646,-1.64048 4.01416,-1.86039 14.25,-1.66893 6.48411,0.12129 11.78929,0.59813 11.78929,1.05966 0,0.46153 0.92787,0.83914 2.06193,0.83914 5.16303,0 19.93807,9.39944 19.93807,12.684 0,0.7238 0.87961,1.316 1.95469,1.316 1.43836,0 2.12636,0.9151 2.6046,3.46438 0.35746,1.9054 1.27785,3.9855 2.04532,4.62244 0.93778,0.77829 1.3942,3.33151 1.39176,7.78563 -0.004,6.77617 -2.09754,13.60583 -8.47003,27.62755 -1.49977,3.3 -4.29169,10.275 -6.20427,15.5 -7.92821,21.65911 -9.94407,25.46422 -14.7287,27.80175 -4.40445,2.1518 -12.94234,4.19825 -17.51528,4.19825 l -2.82347,0 1.80645,-7.75802 c 0.99355,-4.26691 2.48216,-9.06045 3.30803,-10.65231 0.82587,-1.59186 2.02629,-6.00514 2.66761,-9.80728 0.64131,-3.80215 1.39193,-6.68708 1.66805,-6.41097 0.27611,0.27612 -0.24353,4.18148 -1.15476,8.67858 -1.60671,7.92944 -1.42078,10.94093 0.48906,7.92104 0.75408,-1.19237 0.93063,-1.09217 0.93197,0.52896 0.003,3.98095 -1.2029,6.5 -3.11241,6.5 -1.12811,0 -2.30679,1.04858 -2.88337,2.5651 -1.21369,3.19224 -1.21194,3.4349 0.0247,3.4349 0.55,0 1,-0.70156 1,-1.55902 0,-0.85746 0.40775,-1.30701 0.90612,-0.999 0.49837,0.30801 0.6975,1.57206 0.44252,2.80902 -0.38923,1.88818 -0.20214,1.79546 1.1661,-0.57789 1.7314,-3.00328 1.77667,-3.16635 4.02864,-14.51108 1.75576,-8.84492 1.71667,-11.59807 -0.0662,-4.66203 -1.25693,4.88999 -1.28732,4.92002 -1.3812,1.36481 -0.10326,-3.90997 2.73812,-12.01691 2.93175,-8.36481 0.11437,2.15714 2.94198,-6.01303 2.94176,-8.5 -1.2e-4,-1.33333 -0.10784,-1.33333 -0.96951,0 -0.86167,1.33333 -0.96956,1.33333 -0.97103,0 -9.1e-4,-0.825 0.30428,-2.625 0.67821,-4 l 0.67988,-2.5 0.71805,2.5 c 0.41886,1.45831 0.65072,-0.72855 0.55647,-5.24832 -0.12105,-5.80489 -0.50436,-7.74873 -1.52821,-7.75 -0.84474,-10e-4 -1.17897,-0.71932 -0.8752,-1.8809 0.38874,-1.48655 -0.34,-2.12833 -3.48746,-3.07133 -2.18839,-0.65566 -4.60705,-1.43315 -5.3748,-1.72777 -0.91449,-0.35093 -1.39589,0.17061 -1.39589,1.51231 0,1.12639 -0.44322,2.3219 -0.98494,2.6567 -0.60628,0.37471 -0.76136,-0.50917 -0.40338,-2.29908 0.47499,-2.37496 0.19736,-3.00828 -1.51506,-3.45609 -1.64754,-0.43084 -2.0999,-0.0864 -2.11193,1.6081 -0.008,1.18601 -0.45153,2.83138 -0.98469,3.65638 -0.80713,1.24894 -0.9869,1.16525 -1.0741,-0.5 -0.0576,-1.1 -0.71425,0.22132 -1.45922,2.93626 -0.74497,2.71494 -1.12817,5.30244 -0.85157,5.75 0.27661,0.44756 0.0752,0.81374 -0.44768,0.81374 -0.52284,0 -1.24577,1.2375 -1.60651,2.75 -0.36074,1.5125 -0.92444,3.64647 -1.25265,4.74216 -0.54351,1.8144 -0.42774,1.86332 1.29748,0.54823 1.50635,-1.14825 1.63828,-1.15688 0.64425,-0.0422 -0.6875,0.77097 -1.28163,2.32427 -1.32029,3.45177 -0.0653,1.90384 -0.12248,1.91724 -0.80238,0.18796 -0.55036,-1.39979 -1.03022,-0.57057 -1.93295,3.34027 -0.66046,2.86127 -0.90485,5.68122 -0.5431,6.26655 0.36999,0.59865 0.18792,0.77387 -0.41618,0.40052 -0.63254,-0.39093 -1.56386,0.82082 -2.26599,2.9483 -1.0453,3.16729 -1.3719,3.43218 -2.6526,2.15149 -1.05302,-1.05303 -1.2647,-2.50435 -0.75867,-5.20173 0.49002,-2.61201 0.95987,-3.33406 1.5567,-2.39228 0.47016,0.74191 0.85483,0.89892 0.85483,0.34892 0,-0.55 -0.3939,-1.62193 -0.87533,-2.38208 -0.61845,-0.97649 -1.35581,0.27072 -2.51262,4.25 -0.90051,3.09765 -1.89786,5.63208 -2.21634,5.63208 -0.31848,0 -0.33692,-0.63101 -0.041,-1.40223 0.60348,-1.57265 -0.20061,-2.79213 -1.36609,-2.07182 -0.41967,0.25936 -0.12761,2.58292 0.64902,5.16346 0.77663,2.58054 1.18073,6.2936 0.898,8.25124 l -0.51406,3.55935 1.49495,-3.5 1.49495,-3.5 -0.57834,4.25 c -0.65147,4.78745 1.16358,6.04448 2.16588,1.5 0.99345,-4.50433 1.26946,-4.9004 1.35263,-1.94098 0.0535,1.90237 0.4824,2.60465 1.32895,2.17584 0.6875,-0.34825 0.4625,0.0123 -0.5,0.80123 -0.9625,0.78892 -1.75,1.94729 -1.75,2.57415 0,0.62687 -0.53577,1.02726 -1.19061,0.88976 -0.65484,-0.1375 -1.3219,0.65 -1.48237,1.75 -0.16046,1.1 -0.0372,1.4375 0.27395,0.75 0.95492,-2.11005 3.26798,-1.46486 2.68878,0.75 -0.40136,1.5348 -0.0307,2 1.59362,2 1.355,0 2.11112,-0.6297 2.10132,-1.75 -0.0131,-1.49555 -0.15626,-1.5319 -0.98469,-0.25 -1.34768,2.08539 -1.2102,0.29922 0.38485,-5 1.04497,-3.4717 1.48308,-4.04298 1.91723,-2.5 0.30952,1.1 0.33608,-0.25 0.059,-3 -0.37085,-3.68114 -0.22517,-4.60434 0.55227,-3.5 0.93865,1.33333 1.07404,1.33333 1.2185,0 0.24081,-2.22274 0.88648,-11.98583 1.05813,-16 l 0.14967,-3.5 1.20354,2.92938 c 1.19287,2.90338 1.22317,2.86344 3.41467,-4.5 1.21611,-4.08616 2.56071,-8.11089 2.98798,-8.94384 0.42728,-0.83295 0.57593,-2.88355 0.33034,-4.55688 -0.27917,-1.90215 0.0954,-3.49217 0.99938,-4.24242 1.23518,-1.02511 1.42976,-0.33891 1.33515,4.70843 -0.0621,3.31172 -0.51506,5.65985 -1.03069,5.34283 -0.50597,-0.31107 -0.62822,0.19462 -0.27167,1.12376 0.67619,1.76212 -1.77925,16.48266 -2.92495,17.53526 -0.36127,0.33191 -0.42933,-0.65186 -0.15124,-2.18615 0.32588,-1.79798 0.10786,-2.65722 -0.6133,-2.41714 -0.61539,0.20488 -1.25775,1.23521 -1.42745,2.28964 -0.1697,1.05442 -0.53625,2.59213 -0.81455,3.41713 -0.2783,0.825 -0.52133,1.725 -0.54006,2 -0.0187,0.275 -0.41826,1.21788 -0.88784,2.0953 -1.42189,2.65682 -1.94154,7.20876 -0.95822,8.39359 0.97815,1.1786 0.1502,15.58268 -0.88582,15.41066 -0.33273,-0.0553 -2.30708,-0.50126 -4.38746,-0.99113 z m -2.14917,-36.49221 c -0.42051,-1.67543 -0.28284,-2.3578 0.39159,-1.94098 0.57204,0.35354 1.04008,-0.0322 1.04008,-0.8572 0,-0.825 -0.4176,-1.75809 -0.928,-2.07353 -1.26638,-0.78267 -2.35397,2.99172 -1.572,5.4555 0.93076,2.93256 1.82784,2.44235 1.06833,-0.58379 z m 1.73035,-7.08025 c -0.38771,-1.01034 -0.236,-1.41526 0.38617,-1.03073 1.08717,0.6719 5.85788,-14.09584 4.87211,-15.08161 -0.30633,-0.30632 -0.55696,0.26805 -0.55696,1.27638 0,1.00833 -0.24526,1.58807 -0.54503,1.28831 -0.29976,-0.29977 -0.017,-2.64201 0.62836,-5.20498 1.62695,-6.4612 0.58412,-6.70264 -2.49258,-0.57708 -2.57334,5.1234 -3.44703,7.86614 -1.59075,4.99375 0.53316,-0.825 0.97627,-0.9926 0.98469,-0.37244 0.008,0.62015 -0.66985,1.69618 -1.50727,2.39118 -0.97013,0.80514 -1.28063,2.02593 -0.85575,3.3646 0.6116,1.927 0.51711,1.97742 -1.14114,0.60882 -1.68867,-1.3937 -1.72839,-1.34282 -0.60197,0.77109 0.83892,1.57438 0.89801,2.79186 0.19412,4 -0.73082,1.25438 -1.02031,1.34328 -1.04227,0.32008 -0.0167,-0.77916 -0.266,-1.18107 -0.55395,-0.89312 -0.28794,0.28794 -0.21954,1.31575 0.15202,2.284 0.60328,1.57214 0.82422,1.50721 2.06525,-0.60687 1.351,-2.30141 1.37282,-2.30493 0.78344,-0.12629 -0.33345,1.23258 -0.32566,2.69508 0.0173,3.25 0.98686,1.59677 1.50604,1.17385 0.80421,-0.65509 z m 0.33964,-4.83609 c -0.33481,-0.87252 0.0523,-3.02942 0.86013,-4.79313 l 1.46889,-3.20674 -0.47659,4.40958 c -0.54185,5.01349 -0.98024,5.86316 -1.85243,3.59029 z m 32.36168,-9.55889 c 0,-1.13246 -0.45,-1.7809 -1,-1.44098 -0.55,0.33992 -1,1.26648 -1,2.05902 0,0.79254 0.45,1.44098 1,1.44098 0.55,0 1,-0.92656 1,-2.05902 z m -37.44396,-3.89447 c 1.42353,1.18143 1.59799,0.77471 2.80805,-6.54651 0.27272,-1.65 0.78101,-3.9 1.12953,-5 0.36732,-1.1593 -0.0215,-0.87362 -0.92503,0.67963 -0.8573,1.4738 -1.67344,4.29185 -1.81366,6.26234 -0.20893,2.93626 -0.45914,3.30453 -1.38666,2.04098 -1.01458,-1.38214 -1.19574,-1.37495 -1.75,0.0695 -0.34005,0.88615 -0.58274,2.13687 -0.53932,2.77939 0.0516,0.76415 0.25821,0.72143 0.59724,-0.12353 0.39017,-0.9724 0.8549,-1.01238 1.87985,-0.16175 z m 38.76022,-10.6867 c -0.90127,-0.36721 -0.87061,-1.52272 0.12851,-4.84255 0.97492,-3.23941 1.02215,-4.65584 0.18374,-5.51018 -0.84162,-0.8576 -0.75699,-1.06822 0.3329,-0.8285 0.97524,0.21449 2.02975,-1.34194 3.16983,-4.67858 1.80961,-5.29617 2.34447,-8.68919 1.10345,-7 -0.99213,1.35042 -3.23469,1.73151 -3.23469,0.54969 0,-0.52267 0.78375,-1.38892 1.74167,-1.92499 0.95792,-0.53608 1.41879,-1.29757 1.02417,-1.69219 -0.39463,-0.39463 -1.41368,-0.13973 -2.26457,0.56644 -1.30394,1.08217 -1.44755,1.02463 -0.91386,-0.36613 0.34826,-0.90755 1.76509,-1.93417 3.14852,-2.28139 1.92956,-0.48429 2.17797,-0.82011 1.06668,-1.44202 -4.16621,-2.33153 -12.66832,2.0897 -15.04479,7.82354 -0.85872,2.07188 -2.51532,6.24205 -3.68132,9.26705 -1.16601,3.025 -1.886,4.29975 -1.59998,2.83276 0.31698,-1.62575 0.0326,-2.86396 -0.72824,-3.17105 -0.79029,-0.31897 -0.64901,-0.53278 0.38509,-0.58276 1.68406,-0.0814 2.82907,-2.84581 2.85298,-6.88796 0.008,-1.28217 0.45836,-2.03417 1.01365,-1.69099 0.55,0.33992 1,0.16804 1,-0.38196 0,-1.95764 -1.66903,-1.98546 -3.32162,-0.0554 -1.9136,2.23492 -2.25482,4.41163 -0.52387,3.34185 0.72104,-0.44563 0.88282,-0.27393 0.4309,0.45729 -0.39798,0.64395 -1.07302,0.95487 -1.50008,0.69093 -0.42707,-0.26393 -1.44396,1.91822 -2.25977,4.84925 l -1.48329,5.32913 6.07887,2.72988 c 3.34337,1.50143 7.20386,3.34996 8.57886,4.10783 1.375,0.75788 3.175,1.35441 4,1.32562 0.91661,-0.032 1.03961,-0.23992 0.31626,-0.53463 z m -5.24597,-9.05079 c 0.0387,-0.44496 0.45702,-1.70902 0.92971,-2.80902 0.82859,-1.92823 0.86195,-1.92138 0.92971,0.19099 0.0387,1.20504 -0.37971,2.46909 -0.92971,2.80901 -0.55,0.33992 -0.96837,0.25398 -0.92971,-0.19098 z m 3.00429,-7.80902 c -0.004,-2.09358 2.82829,-7.84108 2.88998,-5.86481 0.0195,0.62436 -0.62195,2.64936 -1.42542,4.5 -1.00869,2.32334 -1.462,2.74578 -1.46456,1.36481 z m -20.29379,2.25 c 1.248,-2.8875 3.15787,-6.91415 4.24415,-8.94811 2.26199,-4.23538 2.6086,-6.05057 0.64173,-3.3607 -1.17291,1.60404 -1.33334,1.62429 -1.33334,0.16835 0,-0.9103 1.05,-1.91863 2.33334,-2.24072 3.0651,-0.76929 2.97678,-1.83161 -0.16738,-2.01303 -1.37461,-0.0793 -2.49929,0.28474 -2.49929,0.80902 0,0.52427 -0.36592,0.72707 -0.81317,0.45066 -0.44724,-0.27641 -2.02224,1.36211 -3.5,3.64115 -1.47775,2.27905 -2.68683,3.7965 -2.68683,3.37212 0,-0.42438 -0.72857,-0.043 -1.61905,0.84745 -0.89047,0.89048 -1.3692,1.86889 -1.06384,2.17426 0.30536,0.30536 0.13529,1.65965 -0.37793,3.00952 -0.6121,1.60995 -0.59013,2.24235 0.0638,1.83817 0.54838,-0.3389 0.99702,-1.26461 0.99702,-2.05715 0,-0.79254 0.47656,-1.44099 1.05902,-1.44099 0.58246,0 0.82725,-0.375 0.54399,-0.83333 -0.28327,-0.45833 0.14017,-0.83333 0.94098,-0.83333 1.5472,0 2.03671,2.271 0.61072,2.83333 -0.46491,0.18333 -1.15358,1.68333 -1.53038,3.33333 -0.53371,2.33714 -0.43825,2.66857 0.43204,1.5 0.91262,-1.22541 1.02685,-1.08811 0.624,0.75 -0.87369,3.98638 0.76702,2.39882 3.10042,-3 z m -1.78079,-7.03727 c 0,-0.36541 0.89832,-2.13776 1.99626,-3.93856 1.37045,-2.24774 1.99744,-2.71244 2,-1.48235 0.002,0.98549 -0.89626,2.75785 -1.99626,3.93856 -1.1,1.18071 -2,1.84777 -2,1.48235 z m 34.6954,79.79983 c 0.91468,-1.9181 1.79957,-3.35092 1.96643,-3.18406 0.54782,0.54782 -2.08183,6.6715 -2.86489,6.6715 -0.42052,0 -0.0162,-1.56935 0.89846,-3.48744 z m 9.38514,-21.51256 c 0.005,-0.825 0.62782,-2.85 1.38335,-4.5 1.06348,-2.32256 1.38401,-2.54837 1.41946,-1 0.0252,1.1 -0.59733,3.125 -1.38335,4.5 -0.81793,1.43081 -1.42499,1.85849 -1.41946,1 z"
       id="path7621"
       inkscape:connector-curvature="0" />
    <path
       style="fill:#8b6034"
       d="m 187.93902,267.14148 c -0.8925,-1.44408 -0.24076,-1.75088 1.995,-0.93913 1.69388,0.61501 1.72798,0.77593 0.28202,1.3308 -0.90467,0.34716 -1.92933,0.17091 -2.27702,-0.39167 z m 9.44201,-0.23785 c 1.153,-1.38928 4.39004,-17.0097 4.54106,-21.91299 0.0547,-1.77518 0.53137,-2.58979 1.33504,-2.28139 0.88997,0.34151 1.25441,-0.87941 1.26531,-4.23894 0.011,-3.38155 0.28586,-4.29358 0.97008,-3.21862 0.74956,1.17763 1.09551,0.80153 1.60968,-1.75 0.36021,-1.7875 1.00054,-3.25 1.42294,-3.25 1.16814,0 1.99359,-2.80619 1.33234,-4.52939 -0.50765,-1.32291 -0.77422,-1.28916 -1.97445,0.25 -1.22396,1.56958 -1.2641,1.43466 -0.34043,-1.14433 1.06696,-2.9791 0.28349,-9.7104 -0.90617,-7.78549 -0.37425,0.60555 -1.16963,-0.037 -1.86208,-1.50431 -0.66483,-1.40875 -0.95867,-2.31127 -0.65299,-2.00558 0.30569,0.30568 1.86754,0.0985 3.47078,-0.46038 1.99281,-0.6947 2.91983,-1.69703 2.9303,-3.16835 0.012,-1.67927 0.21494,-1.8367 0.92379,-0.71647 0.7529,1.18984 1.17839,1.21168 2.48468,0.12755 0.86692,-0.71948 1.57622,-2.01405 1.57622,-2.87682 0,-1.25111 -0.28921,-1.17571 -1.42858,0.37244 -1.34591,1.8288 -1.46852,1.83808 -2.11883,0.16027 -0.37964,-0.97947 -0.42651,-3.09952 -0.10417,-4.71122 0.32234,-1.61171 0.15081,-3.19938 -0.38117,-3.52816 -0.53199,-0.32879 -1.01211,-1.80873 -1.06693,-3.28877 l -0.0997,-2.69099 -0.86874,2.5 c -0.66829,1.92317 -0.77792,1.46171 -0.47516,-2 0.51826,-5.92561 1.39805,-7.99295 3.12028,-7.33207 0.77632,0.2979 1.11955,1.01402 0.76273,1.59137 -0.38819,0.6281 -0.16556,0.75108 0.5543,0.30619 0.93146,-0.57568 0.93417,-1.06755 0.012,-2.17868 -0.65508,-0.78933 -0.90194,-1.72426 -0.54856,-2.07764 0.35337,-0.35337 0.6425,-0.0909 0.6425,0.58318 0,0.67413 0.45,0.94757 1,0.60765 0.55,-0.33991 1.05625,-0.14147 1.125,0.44099 0.0687,0.58246 0.21794,1.39651 0.33153,1.80901 0.1136,0.4125 0.56825,2.0358 1.01035,3.60734 0.57136,2.03103 0.41157,3.09975 -0.55257,3.69563 -0.74602,0.46106 -1.02442,1.17026 -0.61868,1.57599 0.40574,0.40574 1.24048,0.23493 1.85498,-0.37957 0.82304,-0.82304 0.73369,-3.23555 -0.33928,-9.16071 -0.90408,-4.99249 -1.10173,-8.39828 -0.52108,-8.97893 1.06825,-1.06823 0.11223,-3.10975 -1.45625,-3.10975 -0.57638,0 -0.77998,0.69838 -0.45243,1.55194 0.34149,0.88993 0.17385,1.29132 -0.39301,0.94098 -0.5437,-0.33602 -1.02408,0.20311 -1.0675,1.19807 -0.0434,0.99496 -0.2832,1.31468 -0.53284,0.71049 -0.24964,-0.60419 0.0112,-2.3219 0.57973,-3.81714 0.79927,-2.10225 1.48688,-2.57476 3.03284,-2.08409 1.09957,0.34899 1.99922,0.20299 1.99922,-0.32445 0,-0.52744 -1.125,-1.24134 -2.5,-1.58644 -2.48796,-0.62444 -3.25667,-2.00368 -1.665,-2.98738 1.27488,-0.78792 8.16414,1.58609 8.17132,2.8158 0.003,0.59523 1.38263,1.86553 3.06479,2.82289 1.68215,0.95737 2.77578,2.19805 2.43029,2.75707 -0.34549,0.55901 0.0754,1.28636 0.93522,1.61632 0.85986,0.32995 1.56338,1.36178 1.56338,2.29293 0,0.93116 0.41416,2.12051 0.92035,2.64301 0.5062,0.5225 0.62767,3.2 0.26994,5.95 l -0.65043,5 -0.61973,-4.5 c -0.5544,-4.02556 -0.63396,-3.76198 -0.75462,2.5 -0.077,3.99411 0.21851,6.44291 0.68807,5.70267 0.67438,-1.06311 0.99042,-1.06311 1.75048,0 1.19955,1.67782 1.13194,4.20903 -0.12321,4.61307 -0.53947,0.17366 -1.56212,1.29866 -2.27257,2.5 -1.26441,2.13809 -1.27736,2.13142 -0.61277,-0.31574 0.37342,-1.375 0.88464,-3.175 1.13605,-4 0.40632,-1.33333 0.33121,-1.33333 -0.67591,0 -2.17489,2.87935 -5.19086,9.19812 -4.64895,9.74003 0.30042,0.30043 0.82996,-0.19318 1.17675,-1.0969 0.34679,-0.90372 1.00542,-1.64313 1.46363,-1.64313 1.07364,0 0.63082,3.71479 -0.87201,7.3151 -0.64629,1.5483 -1.17507,3.6858 -1.17507,4.75 0,1.06419 -0.3884,1.9349 -0.86311,1.9349 -1.433,0 -4.34919,10.74823 -3.72372,13.72451 0.32081,1.52652 0.12041,3.45049 -0.44532,4.27549 -0.76708,1.11863 -0.87771,0.73726 -0.43511,-1.5 0.50416,-2.54841 0.41912,-2.7243 -0.56493,-1.16848 -0.63714,1.00734 -0.93251,2.69546 -0.65638,3.75138 0.27613,1.05592 0.094,1.66768 -0.40469,1.35946 -0.49871,-0.30822 -0.90674,-0.009 -0.90674,0.66529 0,0.67413 -0.27085,0.95484 -0.60188,0.6238 -0.33104,-0.33104 0.16481,-2.91019 1.10188,-5.73145 0.93707,-2.82126 1.43292,-5.40041 1.10188,-5.73145 -0.33103,-0.33104 -0.60188,0.17467 -0.60188,1.1238 0,0.94913 -0.3375,1.51836 -0.75,1.26497 -0.69122,-0.4246 -1.12552,1.9492 -1.52635,8.34268 -0.0862,1.375 -0.44628,2.725 -0.80017,3 -0.35389,0.275 -1.65997,3.425 -2.90241,7 -1.24243,3.575 -3.21794,7.61138 -4.39002,8.96974 -1.37519,1.59375 -1.51035,1.99368 -0.38105,1.12755 0.9625,-0.7382 1.75,-0.93709 1.75,-0.44198 0,1.58157 -3.37468,3.84809 -7.61602,5.11511 -5.22644,1.5613 -5.88971,1.54387 -4.51008,-0.11848 z m 6.78976,-14.9846 c 1.427,-6.32936 0.90096,-7.54414 -0.65746,-1.51828 -0.61888,2.39302 -1.37936,5.25094 -1.68995,6.35094 -0.31771,1.12524 -0.18263,1.63581 0.30885,1.16734 0.48045,-0.45796 1.39781,-3.15796 2.03856,-6 z m 8.19577,-19.66734 c 0,-0.94548 -0.31771,-0.76064 -0.85943,0.5 -0.47269,1.1 -0.85943,2.675 -0.85943,3.5 0,0.94548 0.31771,0.76064 0.85943,-0.5 0.47269,-1.1 0.85943,-2.675 0.85943,-3.5 z m 1.10877,-13.78518 c 0.0268,-1.9247 -0.26296,-2.12744 -1.83672,-1.28519 -1.02768,0.55 -2.17647,0.69205 -2.55285,0.31567 -0.37638,-0.37639 -0.37293,0.12718 0.008,1.11903 0.53187,1.38604 0.87864,1.50139 1.49848,0.49848 0.44356,-0.71769 1.13843,-0.97292 1.54417,-0.56718 0.40574,0.40574 0.20521,1.2702 -0.44563,1.92104 -0.65115,0.65083 -1.18365,1.85434 -1.18365,2.67446 0,1.11717 0.3682,1.00432 1.4682,-0.45 0.8075,-1.06762 1.4825,-2.96946 1.5,-4.22631 z m 6.86183,-36.21482 c 0.018,-0.91898 -0.3035,-0.72531 -0.83003,0.5 -0.47269,1.1 -0.8462,2.9 -0.83003,4 0.0236,1.60779 0.1864,1.50973 0.83003,-0.5 0.44035,-1.375 0.81387,-3.175 0.83003,-4 z m -54.19023,83.72588 c -1.36539,-0.9984 -1.53827,-1.80991 -0.79886,-3.75 l 0.94362,-2.47588 0.76169,3 c 0.41893,1.65 1.25491,3.33061 1.85772,3.73469 0.73764,0.49445 0.74979,0.73969 0.0372,0.75 -0.58238,0.008 -1.84298,-0.55804 -2.80133,-1.25881 z m 9.88254,-1.62419 c -0.39197,-1.78458 -0.44484,-3.51252 -0.1175,-3.83986 0.32734,-0.32734 0.61402,0.26734 0.63708,1.3215 0.0304,1.38987 0.58954,0.95468 2.03435,-1.58333 2.13176,-3.74473 1.80802,-1.33273 -0.58501,4.35862 l -1.25627,2.98778 -0.71265,-3.24471 z m 17.60565,1.06498 c 0.62971,-1.00834 1.75853,-1.83334 2.50847,-1.83334 1.83191,0 1.7167,0.6781 -0.38646,2.27462 -2.49652,1.89513 -3.45646,1.69551 -2.12201,-0.44128 z m -32.61365,-1.98891 c -2.44268,-0.51073 -5.68685,-4.08962 -4.88427,-5.38821 0.32736,-0.52968 -0.45849,-0.80524 -1.77076,-0.62093 -2.13542,0.29993 -2.33234,-7.6e-4 -2.07509,-3.16862 0.15633,-1.925 0.71955,-3.65024 1.2516,-3.83386 0.53205,-0.18363 1.24916,-2.09613 1.59358,-4.25 0.62679,-3.91972 2.33931,-5.46149 2.40604,-2.16614 0.027,1.33561 0.37384,1.15802 1.46456,-0.75 1.66895,-2.91953 2.12908,-7.52082 0.5,-5 -0.73135,1.13169 -0.97313,0.66966 -0.98469,-1.88167 -0.0153,-3.37409 -0.0244,-3.38045 -4.07209,-2.83754 -4.20938,0.5646 -7.94322,3.68192 -7.94322,6.63167 0,0.88355 -0.9,2.16851 -2,2.85547 -1.1,0.68696 -2,2.3151 -2,3.6181 0,1.30299 -0.675,2.92928 -1.5,3.61397 -0.98947,0.82118 -1.5,0.87354 -1.5,0.15383 0,-0.60299 -0.73797,-0.80788 -1.64968,-0.45802 -1.35889,0.52146 -1.53451,0.1742 -0.99633,-1.9701 0.35934,-1.43173 0.2017,-2.88228 -0.35032,-3.22344 -0.55202,-0.34117 -1.00367,0.30625 -1.00367,1.43871 0,2.2413 -1.45577,2.74862 -2.59549,0.90451 -0.47475,-0.76816 -0.27032,-0.88059 0.61092,-0.33595 0.96167,0.59434 1.14954,0.36276 0.68589,-0.8455 -0.3512,-0.91522 -0.17235,-1.66404 0.39745,-1.66404 0.58557,0 0.75626,-0.8814 0.39259,-2.02722 -0.37799,-1.19094 0.19164,-3.76924 1.38083,-6.25 1.11333,-2.32253 2.48641,-5.46028 3.05128,-6.97278 1.04676,-2.80283 3.0442,-3.76426 3.11638,-1.5 0.0604,1.89631 3.96015,-6.34549 3.96015,-8.36954 0,-0.96934 0.45,-2.04054 1,-2.38046 0.55,-0.33992 0.97122,-1.37898 0.93605,-2.30902 -0.0669,-1.7681 -1.58499,1.15927 -4.30901,8.30902 -1.19128,3.12675 -1.53523,3.47813 -1.57551,1.60953 -0.0506,-2.34852 1.25486,-5.51629 7.31495,-17.74983 2.16152,-4.36347 3.48904,-6.00006 4.58761,-5.65567 1.20445,0.37759 1.25344,0.27499 0.22182,-0.4645 -1.09085,-0.78195 -1.0558,-1.59123 0.19898,-4.59433 0.83768,-2.00486 1.79758,-3.6452 2.1331,-3.6452 0.33552,0 0.28634,0.5625 -0.1093,1.25 -0.39564,0.6875 -0.33018,0.89549 0.14546,0.46219 0.47565,-0.4333 1.02514,-1.98509 1.22111,-3.44842 0.19597,-1.46334 1.19332,-3.24688 2.21634,-3.96343 1.02302,-0.71655 2.16842,-2.70688 2.54533,-4.42295 0.40561,-1.84674 1.45823,-3.32225 2.57918,-3.61539 1.04164,-0.27239 1.89389,-1.00987 1.89389,-1.63885 0,-1.42626 4.73968,-6.62315 6.04047,-6.62315 0.52774,0 0.95953,-0.675 0.95953,-1.5 0,-0.825 0.3375,-1.50168 0.75,-1.50373 0.4125,-0.002 2.325,-0.98725 4.25,-2.18931 3.95827,-2.47173 6,-3.0565 6,-1.71847 0,0.50133 -0.45,0.91151 -1,0.91151 -0.55,0 -1,0.48266 -1,1.07258 0,0.58992 1.18569,0.13992 2.63486,-1 5.18526,-4.07872 5.4001,-1.97678 0.30518,2.98583 -2.86917,2.79465 -5.79356,4.82805 -6.53463,4.54367 -2.31474,-0.88825 -4.22108,4.92399 -2.12414,6.47627 0.42971,0.31809 0.34018,1.66809 -0.19893,3 l -0.98022,2.42165 -0.67378,-2.27329 c -0.63233,-2.13344 -0.75656,-2.1642 -2.01926,-0.5 -1.81322,2.38977 -1.7431,3.3387 0.19184,2.59619 0.88051,-0.33788 1.99862,0.0137 2.48469,0.78139 0.73975,1.16828 0.88876,1.15128 0.91439,-0.10429 0.0272,-1.33333 0.15052,-1.33333 1.10965,0 0.95912,1.33334 1.02835,1.33334 0.62307,0 -0.63849,-2.10052 0.73449,-5.85907 1.43447,-3.92688 0.85507,2.36029 -1.1248,8.36927 -2.35291,7.14116 -0.5819,-0.58189 -1.75198,-0.79168 -2.60018,-0.46619 -1.01251,0.38853 -1.29385,0.18996 -0.81913,-0.57815 0.80711,-1.30593 -0.30705,-1.53188 -1.99527,-0.40462 -1.82048,1.21556 -3.16203,4.46604 -3.91455,9.48468 -0.39173,2.6125 -1.08105,4.75 -1.53181,4.75 -0.45077,0 -0.77866,1.43883 -0.72866,3.1974 0.05,1.75857 -0.4301,3.37107 -1.06689,3.58334 -1.72534,0.57511 -1.39862,2.91287 0.50943,3.64505 2.04971,0.78655 2.50774,0.32251 5.7494,-5.82473 2.80423,-5.31774 3.2332,-7.1207 1.42887,-6.00557 -0.72104,0.44563 -0.88282,0.27393 -0.4309,-0.45729 0.39798,-0.64395 1.06067,-0.9625 1.47263,-0.7079 0.41197,0.25461 1.96466,-1.93786 3.45043,-4.87216 2.56913,-5.07386 6.07124,-7.67973 6.99111,-5.20198 0.44318,1.19374 1.13722,-1.25145 2.15894,-7.60616 0.33161,-2.0625 1.08068,-3.75 1.6646,-3.75 0.58392,0 0.80266,-0.675 0.48607,-1.5 -0.31658,-0.825 -0.18851,-1.5 0.28461,-1.5 0.47311,0 1.14718,-1.1434 1.49793,-2.54089 0.35075,-1.3975 1.07453,-2.27094 1.60841,-1.94099 0.53387,0.32996 0.97068,-0.10164 0.97068,-0.9591 0,-2.66639 -0.16926,-3.06769 -1.17433,-2.78424 -0.53588,0.15113 -0.67582,-0.20822 -0.31097,-0.79856 0.44221,-0.71551 1.06157,-0.74284 1.85787,-0.082 0.65698,0.54525 1.72322,0.6646 2.36942,0.26522 1.63357,-1.0096 13.40776,-0.43548 16.342,0.79686 1.98358,0.83307 1.56583,0.94047 -2.33399,0.60003 -2.6125,-0.22806 -4.75,-0.0177 -4.75,0.46744 0,0.48516 -1.0125,0.83965 -2.25,0.78775 -4.40776,-0.18483 -4.8836,0.0703 -3.82393,2.05032 0.71691,1.33956 0.59544,2.39154 -0.43301,3.75 -0.7862,1.03848 -1.44376,1.41564 -1.46126,0.83814 -0.0175,-0.5775 0.48302,-1.56482 1.11225,-2.19405 0.85873,-0.85873 0.58853,-0.99878 -1.08344,-0.56155 -1.22512,0.32038 -2.61142,1.5327 -3.08066,2.69406 -0.54008,1.33665 -0.88944,1.56108 -0.952,0.61154 -0.0621,-0.94261 -0.62987,-0.57102 -1.52795,1 -0.78602,1.375 -1.44508,2.13594 -1.46456,1.69099 -0.0195,-0.44496 -0.46825,-0.54153 -0.99723,-0.2146 -0.60695,0.37511 -0.61608,1.5037 -0.0247,3.05902 0.93579,2.46131 -0.37329,3.63806 -1.35118,1.21459 -0.36368,-0.9013 -0.52641,-0.91777 -0.58333,-0.059 -0.0435,0.65505 0.371,1.4691 0.921,1.80902 0.55,0.33992 0.99311,1.37898 0.98469,2.30902 -0.0132,1.45728 -0.14929,1.48367 -0.98469,0.19098 -0.75538,-1.16887 -0.97275,-0.89293 -0.98469,1.25 -0.008,1.5125 0.4208,2.75 0.95383,2.75 0.53303,0 5.70803,2.32706 11.5,5.17123 11.44293,5.6191 12.20517,6.66867 8.56041,11.78728 -1.08376,1.52198 -1.72372,3.01399 -1.42214,3.31557 0.90805,0.90805 -6.85586,-1.06211 -10.98603,-2.78781 -2.12017,-0.88586 -4.47732,-1.37179 -5.23811,-1.07985 -0.7608,0.29195 -1.38327,0.12793 -1.38327,-0.36448 0,-0.49241 -0.7875,-1.05646 -1.75,-1.25345 -1.18442,-0.24241 -2.15115,0.62266 -2.99124,2.67668 l -1.24124,3.03483 0.5707,-3.25 c 0.31915,-1.81751 0.14493,-3.25 -0.39527,-3.25 -0.89042,0 -1.32481,1.53767 -2.64323,9.35654 -0.26492,1.5711 -0.94308,3.4125 -1.50702,4.09201 -0.56394,0.67951 -0.79774,1.46308 -0.51955,1.74127 0.46543,0.46542 -0.62401,4.59804 -5.28824,20.06018 -1.66139,5.50761 -3.23491,7.52814 -3.23491,4.15391 0,-1.87277 2.2654,-10.05558 5.51037,-19.90391 3.4856,-10.57864 5.63344,-19.45829 4.96734,-20.53607 -0.32766,-0.53016 -1.13169,-0.95234 -1.78673,-0.93817 -1.71932,0.0372 -13.17606,24.13573 -15.67636,32.97424 -2.42148,8.55989 -3.23267,14.2528 -1.91485,13.43834 1.03801,-0.64153 1.17063,0.69344 0.29545,2.97413 -0.33264,0.86682 -1.00764,1.32707 -1.5,1.02277 -0.8194,-0.50641 -1.40867,2.68549 -0.93335,5.05564 0.1093,0.54499 0.25918,1.79356 0.33308,2.77462 0.0791,1.04965 0.68471,1.57255 1.47165,1.27057 0.7355,-0.28224 1.06235,-0.0683 0.72632,0.47538 -0.33602,0.5437 -0.21376,0.98855 0.2717,0.98855 0.48546,0 1.38416,-1.6875 1.99713,-3.75 l 1.11448,-3.75 -0.55288,3.5 c -0.74191,4.69661 -1.45755,5.66942 -3.80901,5.17776 z m -3.28655,-9.58904 c 0.40722,-2.13024 0.24598,-2.27703 -1.38342,-1.25945 -2.15311,1.34463 -2.34247,2.30308 -0.59437,3.00845 0.6875,0.27741 1.31004,0.53991 1.38342,0.58333 0.0734,0.0434 0.34085,-1.00613 0.59437,-2.33233 z m -16.26534,-17.08872 c 0.007,-1.07007 -1.37733,0.73823 -3.06305,4 -0.68654,1.32841 -0.34697,1.16051 1.01125,-0.5 1.12468,-1.375 2.04799,-2.95 2.0518,-3.5 z m 10.05095,-28.54674 c 0.64638,-2.25378 0.62474,-2.9914 -0.0674,-2.29922 -0.56053,0.56053 -1.25504,2.32004 -1.54335,3.91002 -0.67765,3.737 0.38056,2.67879 1.61079,-1.6108 z m 44.64152,-38.49638 c 0.86742,-2.26045 0.089,-2.37904 -1.90492,-0.29021 -1.48065,1.55116 -1.5143,1.83333 -0.21862,1.83333 0.84227,0 1.79786,-0.6944 2.12354,-1.54312 z m -12.65492,-1.62288 c 0,-0.52362 -0.52647,-0.62665 -1.16994,-0.22897 -0.78665,0.48618 -0.96074,0.1779 -0.53138,-0.94098 0.3512,-0.91523 0.20267,-1.66405 -0.33006,-1.66405 -0.53274,0 -0.96862,0.675 -0.96862,1.5 0,0.825 -0.5625,1.50689 -1.25,1.51532 -0.88464,0.0108 -0.83808,0.27608 0.15932,0.90748 1.59648,1.01065 4.09068,0.34678 4.09068,-1.0888 z m 27.67044,91.40042 c 0.31404,-1.24607 0.96666,-2.51013 1.45027,-2.80902 1.36855,-0.84582 1.03519,0.98367 -0.57097,3.13347 -1.39917,1.87274 -1.43015,1.86131 -0.8793,-0.32445 z m -34.96429,-4.55779 c -0.35386,-0.92214 -0.25629,-1.67663 0.21683,-1.67663 0.47311,0 1.15589,-1.1781 1.51728,-2.618 0.36139,-1.4399 0.86196,-2.41311 1.11238,-2.16269 0.25042,0.25042 -0.14283,2.18301 -0.87389,4.29463 -0.99241,2.86649 -1.49224,3.41449 -1.9726,2.16269 z m 38.37768,-3.17663 c 0,-0.55 0.86228,-2.575 1.91617,-4.5 1.05389,-1.925 1.91617,-3.05 1.91617,-2.5 0,0.55 -0.86228,2.575 -1.91617,4.5 -1.05389,1.925 -1.91617,3.05 -1.91617,2.5 z m -35.02075,-7 c -0.14652,-1.76424 4.37005,-15.5 5.09669,-15.5 0.77061,0 0.0403,2.67491 -3.00302,11 -1.10584,3.025 -2.04799,5.05 -2.09367,4.5 z m 20.10689,-2 c -0.0162,-1.1 0.35734,-2.9 0.83003,-4 1.09501,-2.54822 1.09501,0.0808 0,3.5 -0.64363,2.00973 -0.8064,2.10779 -0.83003,0.5 z m -34.90911,-6.08333 c 0.0776,-1.72024 0.68999,-3.08334 1.38513,-3.08334 0.81143,0 0.96319,0.55221 0.43512,1.58334 -0.44597,0.87083 -1.06928,2.25833 -1.38513,3.08333 -0.31585,0.825 -0.51166,0.1125 -0.43512,-1.58333 z m 61.96657,-17.22669 c 0.0525,-2.16347 0.36812,-2.85625 0.91114,-2 0.6669,1.05157 0.83383,1.03053 0.84612,-0.10665 0.008,-0.77916 0.27553,-1.15645 0.59357,-0.8384 0.31804,0.31804 -0.0989,1.85554 -0.92646,3.41666 l -1.50472,2.83841 0.0804,-3.31002 z m -31.61713,-38.68998 c 0.82247,-3.67692 1.39483,-4.47511 1.37439,-1.91666 -0.008,1.05416 -0.47209,2.59166 -1.03038,3.41666 -0.74131,1.09546 -0.83408,0.69092 -0.34401,-1.5 z"
       id="path7619"
       inkscape:connector-curvature="0" />
    <path
       style="fill:#714d2b"
       d="m 166.04677,265.90433 c -1.29587,-0.94756 -1.4961,-1.56151 -0.67482,-2.0691 0.64229,-0.39695 0.86593,-1.21017 0.49698,-1.80715 -0.40038,-0.64782 -0.20538,-0.79775 0.48369,-0.37188 0.63498,0.39244 1.15451,1.54947 1.15451,2.57117 0,1.02171 0.5625,2.08463 1.25,2.36204 0.6875,0.27741 0.77351,0.53991 0.19113,0.58333 -0.58238,0.0434 -1.88805,-0.52736 -2.90149,-1.26841 z m 37.71503,-0.90264 c 0.25776,-0.6875 1.53328,-4.625 2.83448,-8.75 2.6423,-8.37644 3.83528,-7.30121 1.56122,1.40712 -0.80328,3.07608 -1.05323,5.59288 -0.55544,5.59288 0.49779,0 0.90507,-0.525 0.90507,-1.16667 0,-0.64166 0.33078,-0.83589 0.73506,-0.4316 0.40428,0.40428 -0.38322,1.59427 -1.75,2.64443 -2.87408,2.20827 -4.40255,2.49666 -3.73039,0.70384 z m -42.74033,-1.48471 c -3.97164,-1.00549 -6.77871,-6.42321 -3.20532,-6.18634 0.91611,0.0607 0.91706,0.1905 0.004,0.56229 -0.8493,0.34587 -0.72746,1.0199 0.42838,2.36982 0.88839,1.03757 1.934,1.68949 2.32357,1.44872 0.38957,-0.24077 1.2644,0.23229 1.94407,1.05123 0.67966,0.81894 1.06815,1.43679 0.8633,1.37299 -0.20484,-0.0638 -1.26599,-0.34222 -2.3581,-0.61871 z m -8.9441,-6.94283 c -0.36417,-0.94904 0.0236,-2.3449 0.89302,-3.21429 1.02825,-1.02825 1.53674,-1.13495 1.53674,-0.32246 0,0.66786 -0.48032,1.21429 -1.06739,1.21429 -0.61231,0 -0.79675,0.85269 -0.43261,2 0.76712,2.41698 -0.0211,2.69035 -0.92976,0.32246 z m 48.56082,-1.32246 c -0.0555,-0.825 0.54753,-3.3 1.3401,-5.5 1.18909,-3.3006 1.44873,-3.55414 1.48495,-1.45 0.0241,1.4025 -0.36243,2.9775 -0.85905,3.5 -0.49661,0.5225 -1.11941,1.85 -1.38399,2.95 -0.26566,1.10446 -0.52627,1.32834 -0.58201,0.5 z m -60.72353,-6.00784 c 0.66625,-2.38555 0.63009,-2.40973 -0.84542,-0.56516 -2.0534,2.567 -3.18825,1.24264 -1.71185,-1.99771 0.64633,-1.41854 0.94939,-2.94445 0.67345,-3.39092 -0.27593,-0.44647 0.19436,-1.38942 1.04508,-2.09546 2.04037,-1.69336 4.63028,-7.98176 3.98254,-9.66975 -0.60017,-1.564 2.29107,-9.27316 3.47779,-9.27316 0.44659,0 1.12448,-1.4625 1.50644,-3.25 0.38196,-1.7875 1.72357,-5.80644 2.98135,-8.93097 1.97106,-4.89642 2.05875,-5.60931 0.63498,-5.16212 -0.90854,0.28537 -0.30189,-0.7306 1.34811,-2.25771 1.65,-1.5271 2.24687,-2.49396 1.32639,-2.14858 -1.54383,0.57929 -1.55602,0.34189 -0.15724,-3.06131 1.64074,-3.99188 3.97021,-7.13902 2.73077,-3.68931 -0.39522,1.1 -0.38931,1.70493 0.0131,1.34429 0.40244,-0.36064 0.96637,-2.16064 1.25319,-4 0.28682,-1.83936 1.17047,-3.71323 1.96368,-4.16415 0.7932,-0.45093 2.14982,-2.58843 3.01471,-4.75 0.86492,-2.16158 2.1987,-3.93014 2.96398,-3.93014 0.76528,0 1.39142,-0.57196 1.39142,-1.27103 0,-0.69907 1.13984,-2.38657 2.53298,-3.75 1.39314,-1.36343 3.30564,-3.30301 4.25,-4.31017 0.94436,-1.00717 3.51702,-2.72012 5.71702,-3.80656 3.56993,-1.76296 3.75528,-1.77853 1.72395,-0.14484 -1.87793,1.51032 -2.05285,2.08026 -1,3.25833 1.0667,1.19357 1.0295,1.24422 -0.22678,0.30873 -1.13477,-0.845 -1.99079,-0.76229 -3.49513,0.33771 -1.58452,1.15863 -1.7156,1.62781 -0.64041,2.29232 0.85344,0.52745 0.97531,1.06826 0.33054,1.46674 -0.56174,0.34718 -1.21103,0.29093 -1.44286,-0.125 -0.23184,-0.41592 -0.26881,-0.15312 -0.0822,0.58402 0.58593,2.3141 -0.73292,3.34465 -2.50617,1.95831 -1.42225,-1.11193 -1.49939,-1.08298 -0.53668,0.20144 1.21028,1.61473 0.95678,5.27957 -0.58796,8.5 -0.52764,1.1 -1.68247,4.7 -2.5663,8 -0.88383,3.3 -1.87034,6.675 -2.19224,7.5 -0.32191,0.825 -0.76888,2.625 -0.99326,4 -0.22439,1.375 -0.89622,2.95 -1.49296,3.5 -0.75185,0.69296 -0.85571,0.59584 -0.33827,-0.31631 0.41068,-0.72397 0.7467,-2.86022 0.7467,-4.74722 0,-1.88699 0.34875,-3.21536 0.775,-2.95192 0.42625,0.26344 0.775,-0.63781 0.775,-2.00278 3e-5,-1.36497 -0.39372,-2.48177 -0.87497,-2.48177 -0.48125,0 -0.875,0.92656 -0.875,2.05902 0,1.13246 -0.34578,1.84531 -0.7684,1.58412 -0.42263,-0.2612 -0.59471,1.3465 -0.38241,3.57267 0.29673,3.11152 0.0882,3.86355 -0.90153,3.25184 -0.93196,-0.57598 -1.10252,-0.3136 -0.6176,0.95009 0.36847,0.96021 0.66994,2.0868 0.66994,2.50353 0,0.74762 4.40843,3.07873 5.82228,3.07873 0.40049,0 3.38681,-5.4 6.63627,-12 3.36469,-6.83407 6.5128,-12 7.31277,-12 1.44583,0 13.53138,5.12797 22.91932,9.72479 3.60519,1.76529 5.30936,3.2026 5.30936,4.47797 0,2.43323 -3.96808,7.79724 -5.7681,7.79724 -0.76559,0 -5.16845,-1.33293 -9.78415,-2.96207 -4.61569,-1.62913 -9.41717,-3.13495 -10.66996,-3.34625 -1.25278,-0.2113 -3.0847,-0.73396 -4.07092,-1.16147 -0.98622,-0.42751 -1.92779,-0.60919 -2.09237,-0.40375 -0.16458,0.20545 -3.72705,7.24647 -7.91659,15.64672 -4.50329,9.02932 -7.39085,15.97912 -7.0633,17 0.43464,1.35465 0.34081,1.4274 -0.43537,0.33755 -0.78785,-1.10625 -1.30822,-0.80066 -2.55429,1.5 l -1.56487,2.88927 -0.04,-2.88167 c -0.039,-2.80749 -0.14917,-2.86703 -4.27982,-2.31299 -4.50389,0.60409 -7.76026,3.45981 -7.76026,6.80544 0,1.03907 -0.62686,1.88922 -1.39301,1.88922 -1.50638,0 -2.60699,2.09371 -2.60699,4.95934 0,0.98768 -0.73991,2.40984 -1.64425,3.16037 -1.4695,1.21958 -1.57027,1.09975 -0.94822,-1.12755 z m -4.88682,-6.95865 c -0.35131,-0.56843 -0.16219,-1.03351 0.42027,-1.03351 0.58246,0 1.05902,-0.47656 1.05902,-1.05902 0,-0.58246 -0.44394,-0.78465 -0.98653,-0.44931 -0.62602,0.38691 -0.68248,-0.2122 -0.15449,-1.63948 0.45761,-1.23706 1.46405,-2.45805 2.23652,-2.71331 1.19417,-0.39462 1.19897,-0.21513 0.0321,1.1985 -0.80963,0.9808 -0.93635,1.66262 -0.30902,1.66262 1.63872,0 2.52807,-2.05339 1.3846,-3.19686 -1.18766,-1.18766 0.31811,-6.69912 2.26849,-8.30314 0.66876,-0.55 1.52865,-2.67171 1.91088,-4.71492 0.38222,-2.04321 1.05722,-3.93882 1.5,-4.21247 0.44277,-0.27365 0.14694,1.84807 -0.65742,4.71492 -0.80435,2.86686 -1.55566,6.56247 -1.66958,8.21247 -0.32735,4.74156 -5.74399,13.62209 -7.0348,11.53351 z m 36.24366,0.39426 c -0.90996,-1.47236 0.34899,-6.47574 1.45711,-5.79089 0.61338,0.37909 0.74252,-0.29414 0.3379,-1.76165 -0.52086,-1.88913 -0.44319,-2.04014 0.37952,-0.73787 0.73104,1.15716 0.64897,2.75064 -0.27984,5.43346 -0.72284,2.08786 -1.57545,3.37349 -1.89469,2.85695 z m 45.77974,-23.67777 c 0.35567,-2.33934 0.25563,-2.7046 -0.35699,-1.30355 -0.81646,1.86719 -0.87452,1.85695 -1.42586,-0.25138 -0.31611,-1.20881 -0.16671,-1.94565 0.332,-1.63743 0.49871,0.30822 0.90674,0.0573 0.90674,-0.55764 0,-0.61492 0.44485,-0.8431 0.98855,-0.50708 0.56686,0.35034 0.7345,-0.0511 0.39301,-0.94098 -0.32755,-0.85357 -0.0974,-1.55194 0.51145,-1.55194 0.60885,0 1.10699,-0.46973 1.10699,-1.04384 0,-0.57411 -0.7875,-0.91161 -1.75,-0.75 -1.49978,0.25183 -1.79228,-0.67131 -2.04569,-6.45616 -0.2431,-5.54955 -0.0208,-6.75 1.25,-6.75 0.93692,0 1.54569,-0.88741 1.54569,-2.25318 0,-1.23925 0.93938,-5.40175 2.08751,-9.25 2.57229,-8.62171 2.91109,-11.59693 1.52356,-13.37954 -0.87065,-1.11856 -1.18039,-0.94167 -1.62125,0.92586 -0.29974,1.26972 -1.20757,2.45445 -2.0174,2.63272 -0.92131,0.20282 -1.00456,0.10581 -0.22242,-0.25919 1.78502,-0.83301 1.61883,-6.41667 -0.19098,-6.41667 -0.79254,0 -1.70795,-0.43196 -2.03425,-0.95991 -0.34974,-0.5659 0.6609,-0.52272 2.46209,0.10518 1.68045,0.5858 3.51169,1.91777 4.06943,2.95992 0.55774,1.04215 1.64669,1.89481 2.41988,1.89481 0.77319,0 1.72772,0.52089 2.12118,1.15753 0.48493,0.78463 0.055,0.98482 -1.33467,0.62142 -2.09581,-0.54807 -2.42255,0.57414 -0.88442,3.03759 0.52065,0.83388 0.17938,1.78644 -0.9309,2.59829 -1.05902,0.77438 -1.44379,1.78193 -0.97202,2.54527 0.45383,0.73431 0.20369,1.6291 -0.59722,2.13639 -0.80515,0.50997 -0.90741,0.87926 -0.24596,0.8882 0.80691,0.0109 0.7477,1.09263 -0.20611,3.76531 -1.80859,5.06791 -1.78007,8.25 0.0739,8.25 0.825,0 1.5,-0.45 1.5,-1 0,-0.55 0.66535,-1 1.47856,-1 1.23854,0 1.28288,0.44642 0.2731,2.75 -0.66301,1.5125 -2.07214,3.53743 -3.13141,4.49985 -1.24064,1.12722 -1.9938,3.26216 -2.11665,6 -0.19129,4.26372 -2.19948,12.75015 -3.01709,12.75015 -0.24005,0 -0.21411,-1.4625 0.0576,-3.25 z m 0.76866,-14.5 c 0.34735,-3.07516 0.19826,-5.25 -0.35988,-5.25 -0.52409,0 -0.95289,2.55 -0.95289,5.66667 0,6.84628 0.51072,6.68418 1.31277,-0.41667 z m -8.53426,11.01103 c -0.34457,-1.31764 -0.0268,-2.33551 0.832,-2.66506 1.53238,-0.58803 1.62371,-0.0537 0.48721,2.85048 -0.73357,1.87454 -0.78231,1.86769 -1.31921,-0.18542 z m -62.69468,-1.76103 c 0,-0.55 0.86228,-2.575 1.91617,-4.5 1.05389,-1.925 1.91617,-3.05 1.91617,-2.5 0,0.55 -0.86228,2.575 -1.91617,4.5 -1.05389,1.925 -1.91617,3.05 -1.91617,2.5 z m 78.51688,-10 c 0.3773,-2.2 1.07148,-4.15 1.54264,-4.33333 0.47116,-0.18334 0.89218,-1.53333 0.9356,-3 l 0.0789,-2.66667 0.99483,2.72133 c 0.82384,2.25357 0.54511,3.45678 -1.62158,7 l -2.61641,4.27867 0.68598,-4 z m 1.95169,-21.79312 c -0.43971,-0.98622 -0.52588,-2.06673 -0.19148,-2.40113 0.3344,-0.33439 -0.17251,-1.20068 -1.12646,-1.92507 -0.95395,-0.72439 -1.22706,-1.33138 -0.6069,-1.34887 1.87583,-0.0529 3.55093,2.71456 3.12514,5.16315 -0.35581,2.04622 -0.49059,2.1037 -1.2003,0.51192 z"
       id="path7617"
       inkscape:connector-curvature="0" />
    <path
       style="fill:#56341c"
       d="m 146.36389,236.36138 c 1.03965,-0.65876 1.07313,-1.03499 0.14324,-1.60969 -0.66744,-0.4125 -0.82798,-1.03125 -0.35676,-1.375 0.47122,-0.34375 2.1529,-4.45 3.73707,-9.125 1.58417,-4.675 3.70649,-9.9625 4.71627,-11.75 1.99712,-3.53527 1.86785,-4.07157 -0.42802,-1.7757 -1.29907,1.29907 -1.54155,1.29907 -2.04005,0 -0.33771,-0.88006 0.0169,-1.4743 0.87982,-1.4743 1.66377,0 5.08441,-4.74059 4.11798,-5.70702 -0.35453,-0.35453 0.36022,-1.71419 1.58834,-3.02146 1.88919,-2.01096 2.00606,-2.51704 0.75915,-3.2875 -0.81059,-0.50086 -1.49428,-2.02184 -1.51932,-3.37997 -0.025,-1.35813 0.38893,-2.20082 0.91994,-1.87264 0.56874,0.3515 0.68308,-0.13917 0.27827,-1.19411 -0.82444,-2.14844 0.84114,-4.37657 4.30621,-5.76067 1.47121,-0.58766 2.01481,-1.21044 1.2911,-1.47916 -1.78322,-0.66212 -1.56106,-1.66104 1,-4.49646 1.2375,-1.37007 3.27471,-3.79828 4.52714,-5.39602 2.11097,-2.693 2.23086,-2.73169 1.64299,-0.53014 -0.4015,1.50357 -0.1363,2.6903 0.72286,3.23469 0.90784,0.57523 0.96279,0.86491 0.16603,0.87515 -0.65504,0.008 -1.47364,-0.44203 -1.8191,-1.001 -0.34546,-0.55897 -1.06887,-0.74391 -1.60758,-0.41097 -0.62876,0.3886 -0.60023,1.06228 0.0797,1.88156 0.75851,0.91394 0.63211,2.0951 -0.44528,4.16097 -0.82745,1.58661 -1.50722,3.44605 -1.51061,4.13209 -0.003,0.68603 -1.38612,4.16802 -3.07274,7.73776 -1.68662,3.56973 -2.74209,7.01546 -2.34549,7.65717 0.43308,0.70074 0.28757,0.89882 -0.36432,0.49593 -1.31036,-0.80985 -1.78185,-0.10222 -2.65884,3.99055 -0.60937,2.84383 -0.41518,3.1798 2.13241,3.6894 1.54155,0.30836 3.97049,0.85203 5.39764,1.20816 2.28014,0.56899 2.81302,0.18221 4.39417,-3.1894 0.98965,-2.1103 2.40949,-4.19677 3.15519,-4.6366 0.7457,-0.43983 1.36583,-2.01483 1.37806,-3.5 0.0122,-1.48517 0.90223,-3.82531 1.97777,-5.20031 1.07554,-1.375 1.96553,-3.08905 1.97776,-3.80901 0.0122,-0.71996 0.46709,-1.03409 1.01079,-0.69807 0.57359,0.35451 0.73038,-0.0618 0.37351,-0.99178 -0.50974,-1.32837 -0.12263,-1.48255 2.26146,-0.90066 4.3423,1.05984 22.52979,9.22325 25.37648,11.39017 l 2.5,1.90301 -1.96979,3.6689 c -1.08339,2.01789 -2.57155,3.89981 -3.30702,4.18203 -0.73547,0.28223 -6.82406,-1.34989 -13.5302,-3.62693 -6.70615,-2.27704 -12.65096,-4.13503 -13.21069,-4.12887 -0.55974,0.006 -4.60974,7.03817 -9,15.62669 -4.39027,8.58851 -8.54222,15.83566 -9.22656,16.10478 -0.68434,0.26912 -1.05153,0.80114 -0.81598,1.18227 0.23555,0.38113 0.0149,1.34648 -0.49043,2.14522 -0.70858,1.1201 -0.92221,0.90753 -0.93402,-0.92942 -0.0142,-2.20725 -0.31392,-2.34162 -4.09293,-1.83475 -2.24268,0.30081 -4.86562,1.26006 -5.82874,2.13167 -0.96312,0.87161 -2.16569,1.57786 -2.67238,1.56944 -0.50669,-0.008 -0.31072,-0.40217 0.4355,-0.875 z m 79.15798,-33.80067 c -0.008,-1.20504 0.4652,-2.4876 1.05179,-2.85014 1.63762,-1.0121 1.72686,-0.20349 0.28045,2.54112 -1.26356,2.39765 -1.3181,2.41031 -1.33224,0.30902 z m -68.74141,-3.28741 c 0.0838,-1.11188 0.50652,-2.02161 0.93947,-2.02161 1.10577,0 0.98438,2.7601 -0.15228,3.4626 -0.51671,0.31934 -0.87095,-0.3291 -0.78719,-1.44099 z m 61.72667,-0.64405 c 0,-1.32879 0.27149,-1.39713 1.5,-0.37756 0.825,0.68469 1.5,1.41479 1.5,1.62244 0,0.20766 -0.675,0.37756 -1.5,0.37756 -0.825,0 -1.5,-0.7301 -1.5,-1.62244 z"
       id="path7615"
       inkscape:connector-curvature="0" />
    <path
       style="fill:#1f0d06"
       d="m 148.24025,233.00169 c 0.53791,-0.6875 1.23502,-2.15 1.54913,-3.25 0.31411,-1.1 2.08704,-6.34874 3.93985,-11.66386 l 3.36875,-9.66386 5.79918,1.95779 c 5.98954,2.02206 8.60997,1.48869 8.60997,-1.75251 0,-0.75766 0.39752,-1.37756 0.88337,-1.37756 0.48585,0 1.15654,-0.7875 1.49041,-1.75 0.33388,-0.9625 1.62386,-3.55 2.86664,-5.75 1.24277,-2.2 2.92042,-5.72408 3.72812,-7.83129 1.34455,-3.5078 1.71925,-3.78115 4.43776,-3.23745 2.77835,0.55568 21.36351,9.20347 24.52771,11.41291 1.20269,0.83979 0.99877,1.65902 -1.26419,5.07857 -1.48401,2.24249 -2.86422,4.07726 -3.06714,4.07726 -0.20292,0 -5.92989,-1.8 -12.7266,-4 -6.79671,-2.2 -12.92758,-4 -13.62416,-4 -0.69657,0 -3.15006,3.79789 -5.45219,8.43975 -2.30212,4.64186 -4.61837,8.17234 -5.14722,7.84549 -0.52884,-0.32684 -0.65446,-0.0974 -0.27916,0.50983 0.72486,1.17286 -4.32827,11.16611 -5.65853,11.19052 -0.43185,0.008 -0.2909,-0.90917 0.31323,-2.038 0.60413,-1.12882 0.89716,-2.81632 0.65118,-3.75 -0.31985,-1.21408 -0.48027,-1.05674 -0.56323,0.55241 -0.11177,2.16802 -1.50263,3.04876 -2.36877,1.5 -0.23069,-0.4125 -0.28232,-0.1875 -0.11472,0.5 0.1676,0.6875 -0.46866,1.25689 -1.41389,1.26531 -1.4775,0.0132 -1.50817,0.15347 -0.21862,1.00003 1.25129,0.82144 1.12694,1.08695 -0.75,1.60132 -1.2375,0.33913 -2.25,1.28726 -2.25,2.10696 0,0.89947 -0.58201,1.26702 -1.46797,0.92704 -0.80739,-0.30982 -1.73395,-0.13297 -2.05902,0.39301 -0.32508,0.52598 -1.51959,0.95633 -2.65447,0.95633 -1.50568,0 -1.79907,-0.33788 -1.08542,-1.25 z m 11.7412,-32.70034 c 1.89388,-3.66236 1.89634,-4.04966 0.0257,-4.04966 -1.79341,0 -1.90783,-1.36944 -0.3566,-4.26794 0.86245,-1.61151 0.85746,-2.23177 -0.0203,-2.52436 -1.73277,-0.57758 3.31596,-4.2077 5.85202,-4.2077 1.77994,0 2.03684,0.3956 1.46115,2.25 -0.98272,3.16554 -7.35448,15.75 -7.97452,15.75 -0.28221,0 0.17345,-1.32765 1.01257,-2.95034 z"
       id="path7613"
       inkscape:connector-curvature="0" />
  </g>
</svg>
