<?xml version="1.0" encoding="UTF-8" standalone="no"?>
<svg
   xmlns:dc="http://purl.org/dc/elements/1.1/"
   xmlns:cc="http://creativecommons.org/ns#"
   xmlns:rdf="http://www.w3.org/1999/02/22-rdf-syntax-ns#"
   xmlns:svg="http://www.w3.org/2000/svg"
   xmlns="http://www.w3.org/2000/svg"
   xmlns:sodipodi="http://sodipodi.sourceforge.net/DTD/sodipodi-0.dtd"
   xmlns:inkscape="http://www.inkscape.org/namespaces/inkscape"
   viewBox="0 0 512 512"
   id="svg2"
   version="1.1"
   inkscape:version="0.48.4 r9939"
   width="100%"
   height="100%"
   sodipodi:docname="basic spell.svg">
  <metadata
     id="metadata26">
    <rdf:RDF>
      <cc:Work
         rdf:about="">
        <dc:format>image/svg+xml</dc:format>
        <dc:type
           rdf:resource="http://purl.org/dc/dcmitype/StillImage" />
      </cc:Work>
    </rdf:RDF>
  </metadata>
  <defs
     id="defs24" />
  <sodipodi:namedview
     pagecolor="#ffffff"
     bordercolor="#666666"
     borderopacity="1"
     objecttolerance="10"
     gridtolerance="10"
     guidetolerance="10"
     inkscape:pageopacity="0"
     inkscape:pageshadow="2"
     inkscape:window-width="1109"
     inkscape:window-height="1322"
     id="namedview22"
     showgrid="false"
     inkscape:zoom="0.921875"
     inkscape:cx="338.51056"
     inkscape:cy="427.46992"
     inkscape:window-x="0"
     inkscape:window-y="0"
     inkscape:window-maximized="0"
     inkscape:current-layer="g3016" />
  <g
     id="g3016"
     transform="translate(3.5491525e-6,-0.63753356)">
    <path
       id="path13822"
       d="M 0,0 H 512 V 512 H 0 z"
       inkscape:connector-curvature="0" />
    <path
       d="m 210.12255,320.30794 19.81399,49.69944 -76.97345,30.68749 -19.81399,-49.69943 z"
       id="path13828"
       inkscape:connector-curvature="0"
       style="fill:#aa4400" />
    <path
       d="m 221.20551,376.29685 19.81399,49.69944 -76.97345,30.68749 -19.81399,-49.69943 z"
       id="path13830"
       inkscape:connector-curvature="0"
       style="fill:#aa4400" />
    <path
       d="m 110.23651,318.79796 c 19.33521,-54.77249 12.60732,-102.28073 -14.016431,-102.78719 -6.144805,-0.11213 -13.416532,2.28188 -21.607736,7.5913 1.272692,50.75819 -26.75644,95.37343 -64.8269467,130.23698 V 503.93077 H 180.31869 c 16.28897,-5.39726 34.45613,-11.82239 57.23378,-22.19269 18.73343,-7.46795 7.95572,-42.11658 -4.67215,-47.88948"
       id="path13832"
       inkscape:connector-curvature="0"
       style="fill:#803300;stroke:#000000;stroke-width:18.68857956" />
    <path
       d="M 76.389627,332.08741 265.8152,256.56873 c 32.56486,-12.98296 51.96921,31.92944 18.11111,45.4282 l -136.61352,54.46413"
       id="path13834"
       inkscape:connector-curvature="0"
       style="fill:#aa4400;stroke:#000000;stroke-width:18.68857956" />
    <path
       d="m 226.58,381.68837 c 12.626,10.8562 21.65259,44.01534 7.50533,49.65743 l -58.82043,23.45043"
       id="path13836"
       inkscape:connector-curvature="0"
       style="fill:#552200;stroke:#000000;stroke-width:18.68857956" />
    <path
       d="m 220.87665,331.67813 c 11.11409,11.0001 16.05722,29.07569 10.47494,46.00755 l -62.64038,24.97355"
       id="path13838"
       inkscape:connector-curvature="0"
       style="fill:#803300;stroke:#000000;stroke-width:18.68857956" />
    <path
       style="fill:#ffff00;fill-rule:evenodd"
       inkscape:connector-curvature="0"
       id="path10335"
       d="m 344.16443,370.69833 c -15.48688,-25.69385 -16.72995,-25.55617 -46.09474,-21.03812 31.37889,-8.84182 39.27893,-20.83503 29.67431,-51.95971 15.93143,28.08957 22.16281,33.87309 49.08519,36.7579 -25.5584,5.23968 -36.08464,8.95133 -32.66476,36.23993 z" />
    <path
       style="fill:#ffff00;fill-rule:evenodd"
       inkscape:connector-curvature="0"
       id="path10339"
       d="m 334.91781,149.40032 c 23.17593,-17.50861 24.02883,-24.89421 0.042,-40.91587 23.12944,12.21856 40.15775,11.61681 77.27604,-2.48183 -29.00486,18.37887 -32.31204,20.20465 -18.50339,39.63839 -14.00593,-11.5256 -28.34604,-13.05369 -58.81464,3.75931 z" />
    <path
       style="fill:#ffffff;fill-rule:evenodd"
       inkscape:connector-curvature="0"
       id="path10345"
       d="m 369.12252,196.83655 c -17.20867,26.11382 -24.86177,31.74287 -52.33666,26.48658 20.30869,12.08781 21.0709,19.69259 16.5398,41.6434 14.35825,-25.59696 30.60206,-23.04521 56.75572,-20.64287 -21.54031,-12.61961 -28.83955,-18.96886 -20.95917,-47.48895 z" />
    <path
       style="fill:#ffff00;fill-rule:evenodd"
       inkscape:connector-curvature="0"
       id="path10339-8"
       d="m 498.67372,216.34931 c -23.17593,17.50861 -24.02883,24.8942 -0.042,40.91586 -23.12944,-12.21856 -40.15775,-11.61681 -77.27604,2.48183 29.00486,-18.37887 32.31204,-20.20465 18.50339,-39.63838 14.00593,11.5256 28.34604,13.05369 58.81464,-3.75931 z" />
    <path
       style="fill:#ffffff;fill-rule:evenodd"
       inkscape:connector-curvature="0"
       id="path10345-1"
       d="m 483.8871,96.357967 c -17.20867,26.113823 -24.86177,31.742873 -52.33666,26.486583 20.30869,12.08781 21.0709,19.69259 16.5398,41.64339 14.35825,-25.59695 30.60206,-23.0452 56.75572,-20.64286 -21.54031,-12.61961 -28.83955,-18.96886 -20.95917,-47.488953 z" />
  </g>
</svg>
