<?xml version="1.0" encoding="UTF-8" standalone="no"?>
<svg
   xmlns:dc="http://purl.org/dc/elements/1.1/"
   xmlns:cc="http://creativecommons.org/ns#"
   xmlns:rdf="http://www.w3.org/1999/02/22-rdf-syntax-ns#"
   xmlns:svg="http://www.w3.org/2000/svg"
   xmlns="http://www.w3.org/2000/svg"
   xmlns:sodipodi="http://sodipodi.sourceforge.net/DTD/sodipodi-0.dtd"
   xmlns:inkscape="http://www.inkscape.org/namespaces/inkscape"
   viewBox="0 0 512 512"
   id="svg14081"
   version="1.1"
   inkscape:version="0.48.5 r10040"
   width="100%"
   height="100%"
   sodipodi:docname="basic melee.svg">
  <metadata
     id="metadata14103">
    <rdf:RDF>
      <cc:Work
         rdf:about="">
        <dc:format>image/svg+xml</dc:format>
        <dc:type
           rdf:resource="http://purl.org/dc/dcmitype/StillImage" />
        <dc:title />
      </cc:Work>
    </rdf:RDF>
  </metadata>
  <defs
     id="defs14101" />
  <sodipodi:namedview
     pagecolor="#ffffff"
     bordercolor="#666666"
     borderopacity="1"
     objecttolerance="10"
     gridtolerance="10"
     guidetolerance="10"
     inkscape:pageopacity="0"
     inkscape:pageshadow="2"
     inkscape:window-width="1280"
     inkscape:window-height="692"
     id="namedview14099"
     showgrid="false"
     inkscape:zoom="0.921875"
     inkscape:cx="156.27295"
     inkscape:cy="296.90755"
     inkscape:window-x="0"
     inkscape:window-y="0"
     inkscape:window-maximized="1"
     inkscape:current-layer="svg14081" />
  <path
     d="m0,0h512v512h-512z"
     id="path14083" />
  <path
     style="fill:#ffffff"
     inkscape:connector-curvature="0"
     id="path14091"
     d="M 197.59381,34.095675 C 80.315499,66.49046 8.0878755,185.8974 29.084495,306.89475 32.485817,218.76127 90.556841,138.88441 177.54284,114.8565 284.60784,85.281827 394.46866,151.13291 423.15937,261.50205 446.3575,350.76058 409.18405,441.78144 337.51708,489.08224 449.01876,446.9507 512.83278,323.61168 481.50512,203.07595 448.34223,75.492749 321.35707,-0.09134408 197.59568,34.095675 z" />
  <path
     sodipodi:type="arc"
     style="fill:#000000;stroke:none"
     id="path3046"
     sodipodi:cx="289.08475"
     sodipodi:cy="302.10168"
     sodipodi:rx="162.16949"
     sodipodi:ry="162.16949"
     d="m 451.25424,302.10168 a 162.16949,162.16949 0 1 1 -324.33899,0 162.16949,162.16949 0 1 1 324.33899,0 z"
     transform="matrix(1.3712375,0,0,1.3712375,-147.99705,-131.13451)" />
  <g
     id="g3042">
    <path
       d="M 363.85821,323.62395 348.86632,344.9002 135.24277,194.28501 c -14.77745,-9.50417 -2.946,-31.53837 15.74031,-20.74858 z"
       id="path14087"
       inkscape:connector-curvature="0"
       style="fill:#c87137" />
    <path
       d="m 399.42861,329.90226 -49.18274,-36.50627 c -30.88661,90.99843 -92.85421,89.4398 -117.37549,24.59043 -53.92777,45.62817 -28.91497,127.26175 22.90472,163.36996 48.0988,33.51797 120.24233,25.74165 150.29917,-34.80374 -73.53209,0.37377 -81.63359,-58.77559 -6.64566,-116.65038 z"
       id="path14089"
       inkscape:connector-curvature="0"
       style="fill:#6f8a91;stroke:#000000;stroke-width:18.68857956000000100" />
  </g>
</svg>
