<?xml version="1.0" encoding="UTF-8" standalone="no"?>
<svg
   xmlns:dc="http://purl.org/dc/elements/1.1/"
   xmlns:cc="http://creativecommons.org/ns#"
   xmlns:rdf="http://www.w3.org/1999/02/22-rdf-syntax-ns#"
   xmlns:svg="http://www.w3.org/2000/svg"
   xmlns="http://www.w3.org/2000/svg"
   xmlns:sodipodi="http://sodipodi.sourceforge.net/DTD/sodipodi-0.dtd"
   xmlns:inkscape="http://www.inkscape.org/namespaces/inkscape"
   viewBox="0 0 512 512"
   id="svg2"
   version="1.1"
   inkscape:version="0.48.4 r9939"
   width="100%"
   height="100%"
   sodipodi:docname="basic range.svg">
  <metadata
     id="metadata28">
    <rdf:RDF>
      <cc:Work
         rdf:about="">
        <dc:format>image/svg+xml</dc:format>
        <dc:type
           rdf:resource="http://purl.org/dc/dcmitype/StillImage" />
      </cc:Work>
    </rdf:RDF>
  </metadata>
  <defs
     id="defs26" />
  <sodipodi:namedview
     pagecolor="#ffffff"
     bordercolor="#666666"
     borderopacity="1"
     objecttolerance="10"
     gridtolerance="10"
     guidetolerance="10"
     inkscape:pageopacity="0"
     inkscape:pageshadow="2"
     inkscape:window-width="1272"
     inkscape:window-height="1354"
     id="namedview24"
     showgrid="false"
     inkscape:zoom="0.4609375"
     inkscape:cx="362.78601"
     inkscape:cy="591.95718"
     inkscape:window-x="0"
     inkscape:window-y="0"
     inkscape:window-maximized="0"
     inkscape:current-layer="svg2" />
  <path
     d="m0,0h512v512h-512z"
     id="path4" />
  <path
     d="m 126.51907,491.27178 h 239.05244 l -114.85036,-219.55966 -4.72363,-70.78388 135.46277,-26.85035 -4.2978,-26.40998 -160.3356,24.88321 -49.1827,-5.57115 c -50.45814,-0.31158 -86.377697,9.51997 -104.038355,38.35408 21.083943,19.80437 62.813535,23.28374 95.421975,18.11558 l 20.29044,55.10906 z"
     id="path12"
     inkscape:connector-curvature="0"
     style="fill:#483e37" />
  <path
     d="m 225.00008,132.63717 c 2.98984,29.60352 -11.75059,55.33492 -32.92486,57.47357 -21.17426,2.13864 -40.76206,-20.12553 -43.7519,-49.72906 -2.98984,-29.60352 11.75042,-55.336737 32.92468,-57.475383 21.17426,-2.138646 40.76206,20.125533 43.75208,49.730873 z"
     id="path16"
     inkscape:connector-curvature="0"
     style="fill:#483e37" />
  <path
     style="fill:none;stroke:#4a2708;stroke-width:10.38899994;stroke-miterlimit:4;stroke-opacity:1;stroke-dasharray:none"
     inkscape:connector-curvature="0"
     id="path22"
     d="M 299.45424,28.441469 163.11723,208.18027 355.56926,358.79805 C 431.93317,228.502 408.98922,101.79629 299.45424,28.441469 z" />
  <path
     style="fill:#803300;stroke:#612803;stroke-width:15.50084114;stroke-miterlimit:4;stroke-opacity:1;stroke-dasharray:none"
     inkscape:connector-curvature="0"
     id="path18"
     d="M 169.95747,205.91208 441.12841,147.39566" />
  <path
     d="M 276.15749,6.4508517 C 428.3514,58.592594 460.19093,284.78842 336.37134,379.62951 396.64006,263.62209 385.71953,113.99992 276.15749,6.4508517 z"
     id="path10"
     inkscape:connector-curvature="0"
     style="fill:#803300" />
  <path
     d="m 156.95265,501.64549 64.84507,-179.2779 119.90635,183.81666"
     id="path14"
     inkscape:connector-curvature="0" />
  <path
     style="fill:#6f7c91"
     inkscape:connector-curvature="0"
     id="path20"
     d="m 416.80616,111.44164 18.47179,70.96988 55.41538,-46.66538 z" />
</svg>
