<?xml version="1.0" encoding="UTF-8" standalone="no"?>
<svg
   xmlns:dc="http://purl.org/dc/elements/1.1/"
   xmlns:cc="http://creativecommons.org/ns#"
   xmlns:rdf="http://www.w3.org/1999/02/22-rdf-syntax-ns#"
   xmlns:svg="http://www.w3.org/2000/svg"
   xmlns="http://www.w3.org/2000/svg"
   xmlns:xlink="http://www.w3.org/1999/xlink"
   xmlns:sodipodi="http://sodipodi.sourceforge.net/DTD/sodipodi-0.dtd"
   xmlns:inkscape="http://www.inkscape.org/namespaces/inkscape"
   viewBox="0 0 512 512"
   id="svg18008"
   version="1.1"
   inkscape:version="0.48.5 r10040"
   width="100%"
   height="100%"
   sodipodi:docname="bowie knife.svg">
  <metadata
     id="metadata18034">
    <rdf:RDF>
      <cc:Work
         rdf:about="">
        <dc:format>image/svg+xml</dc:format>
        <dc:type
           rdf:resource="http://purl.org/dc/dcmitype/StillImage" />
        <dc:title />
      </cc:Work>
    </rdf:RDF>
  </metadata>
  <defs
     id="defs18032">
    <linearGradient
       id="linearGradient3757">
      <stop
         style="stop-color:#808080;stop-opacity:1;"
         offset="0"
         id="stop3759" />
      <stop
         style="stop-color:#b6b3b0;stop-opacity:1;"
         offset="1"
         id="stop3761" />
    </linearGradient>
    <linearGradient
       inkscape:collect="always"
       xlink:href="#linearGradient3757"
       id="linearGradient3763"
       x1="265.85629"
       y1="184.59955"
       x2="325.76175"
       y2="237.52472"
       gradientUnits="userSpaceOnUse" />
    <linearGradient
       inkscape:collect="always"
       xlink:href="#linearGradient3757"
       id="linearGradient3779"
       x1="90.268333"
       y1="322.50851"
       x2="275.84885"
       y2="322.50851"
       gradientUnits="userSpaceOnUse" />
    <linearGradient
       inkscape:collect="always"
       xlink:href="#linearGradient3757"
       id="linearGradient3787"
       x1="15.779481"
       y1="455.15393"
       x2="93.993088"
       y2="455.15393"
       gradientUnits="userSpaceOnUse" />
  </defs>
  <sodipodi:namedview
     pagecolor="#ffffff"
     bordercolor="#666666"
     borderopacity="1"
     objecttolerance="10"
     gridtolerance="10"
     guidetolerance="10"
     inkscape:pageopacity="0"
     inkscape:pageshadow="2"
     inkscape:window-width="1920"
     inkscape:window-height="756"
     id="namedview18030"
     showgrid="false"
     inkscape:zoom="0.92187498"
     inkscape:cx="162.11271"
     inkscape:cy="256.74982"
     inkscape:window-x="5"
     inkscape:window-y="0"
     inkscape:window-maximized="0"
     inkscape:current-layer="svg18008" />
  <path
     d="M 4.3299628e-8,512 H 512 V 1.4433162e-8 H 4.3299628e-8 z"
     id="path18010"
     inkscape:connector-curvature="0" />
  <path
     style="fill:url(#linearGradient3763);fill-opacity:1"
     d="M 478.34375 17.625 C 433.7331 17.629009 384.06159 54.842311 352.78125 86.125 L 223.84375 215.0625 C 233.24935 225.64803 232.86168 241.88652 222.71875 252.03125 C 212.58072 262.17121 196.36724 262.51525 185.78125 253.125 L 169.96875 268.9375 L 244.9375 343.90625 L 422.9375 165.90625 C 412.4007 126.58105 470.99645 40.720934 494.5 19.375 C 489.21715 18.172749 483.82225 17.624508 478.34375 17.625 z "
     id="path18016" />
  <path
     d="M 62.09983,449.44546 C 110.56727,440.10192 184.88401,366.65875 191.63578,319.90951 147.88746,324.55233 72.207739,397.90604 62.09983,449.44546 z"
     id="path18018"
     inkscape:connector-curvature="0"
     style="fill:#a05a2c;fill-rule:evenodd" />
  <path
     d="M 239.98086,405.955 266.50508,379.43079 126.13632,239.06203 99.612103,265.58624 z"
     id="path18020"
     inkscape:connector-curvature="0"
     style="fill:url(#linearGradient3779);stroke:#000000;stroke-width:18.68754196000000100;fill-opacity:1;fill-rule:evenodd" />
  <path
     d="M 59.936951,494.26074 93.99309,460.2046 49.835621,416.04713 15.779481,450.10327 z"
     id="path18022"
     inkscape:connector-curvature="0"
     style="fill:url(#linearGradient3787);fill-opacity:1.0" />
  <path
     d="M 102.95246,459.94937 49.867195,406.8641"
     id="path18024"
     inkscape:connector-curvature="0"
     style="fill:#ffffff;stroke:#000000;stroke-width:18.68754196000000100" />
  <path
     d="m 281.65013,257.19064 8.1108,42.36428 132.53819,-132.53819 -42.84185,-7.63323 7.63322,40.07642 -40.55398,-7.15566 8.11079,39.59884 -40.07641,-7.63322 7.63323,40.07641 -40.55399,-7.15565 z"
     id="path18026"
     inkscape:connector-curvature="0"
     style="fill:#999999" />
</svg>
