<?xml version="1.0" encoding="UTF-8" standalone="no"?>
<svg
   xmlns:dc="http://purl.org/dc/elements/1.1/"
   xmlns:cc="http://creativecommons.org/ns#"
   xmlns:rdf="http://www.w3.org/1999/02/22-rdf-syntax-ns#"
   xmlns:svg="http://www.w3.org/2000/svg"
   xmlns="http://www.w3.org/2000/svg"
   xmlns:sodipodi="http://sodipodi.sourceforge.net/DTD/sodipodi-0.dtd"
   xmlns:inkscape="http://www.inkscape.org/namespaces/inkscape"
   viewBox="0 0 512 512"
   id="svg8438"
   version="1.1"
   inkscape:version="0.48.4 r9939"
   width="100%"
   height="100%"
   sodipodi:docname="broadsword.svg">
  <metadata
     id="metadata8464">
    <rdf:RDF>
      <cc:Work
         rdf:about="">
        <dc:format>image/svg+xml</dc:format>
        <dc:type
           rdf:resource="http://purl.org/dc/dcmitype/StillImage" />
        <dc:title></dc:title>
      </cc:Work>
    </rdf:RDF>
  </metadata>
  <defs
     id="defs8462">
    <linearGradient
       id="linearGradient4077">
      <stop
         id="stop4079"
         offset="0"
         style="stop-color:#aa4400;stop-opacity:1;" />
      <stop
         style="stop-color:#ff9f00;stop-opacity:1;"
         offset="0.22752622"
         id="stop4081" />
      <stop
         style="stop-color:#803300;stop-opacity:1;"
         offset="0.4948855"
         id="stop4083" />
      <stop
         id="stop4085"
         offset="1"
         style="stop-color:#562200;stop-opacity:1;" />
    </linearGradient>
    <linearGradient
       id="linearGradient4057">
      <stop
         style="stop-color:#aa4400;stop-opacity:1;"
         offset="0"
         id="stop4059" />
      <stop
         id="stop4067"
         offset="0.22752622"
         style="stop-color:#ecd1a4;stop-opacity:1;" />
      <stop
         id="stop4065"
         offset="0.50136983"
         style="stop-color:#803300;stop-opacity:1;" />
      <stop
         style="stop-color:#562200;stop-opacity:1;"
         offset="1"
         id="stop4061" />
    </linearGradient>
    <linearGradient
       id="linearGradient3890">
      <stop
         style="stop-color:#701b1b;stop-opacity:1;"
         offset="0"
         id="stop3892" />
      <stop
         style="stop-color:#e31600;stop-opacity:1;"
         offset="1"
         id="stop3894" />
    </linearGradient>
    <linearGradient
       id="linearGradient3882">
      <stop
         style="stop-color:#600b0b;stop-opacity:1;"
         offset="0"
         id="stop3884" />
      <stop
         style="stop-color:#d11414;stop-opacity:1;"
         offset="1"
         id="stop3886" />
    </linearGradient>
    <linearGradient
       id="linearGradient3872">
      <stop
         style="stop-color:#800600;stop-opacity:1;"
         offset="0"
         id="stop3874" />
      <stop
         style="stop-color:#ff0004;stop-opacity:0;"
         offset="1"
         id="stop3876" />
    </linearGradient>
  </defs>
  <sodipodi:namedview
     pagecolor="#000000"
     bordercolor="#666666"
     borderopacity="1"
     objecttolerance="10"
     gridtolerance="10"
     guidetolerance="10"
     inkscape:pageopacity="0"
     inkscape:pageshadow="2"
     inkscape:window-width="1190"
     inkscape:window-height="1126"
     id="namedview8460"
     showgrid="false"
     inkscape:zoom="1"
     inkscape:cx="135.31659"
     inkscape:cy="241.55145"
     inkscape:window-x="160"
     inkscape:window-y="130"
     inkscape:window-maximized="0"
     inkscape:current-layer="g8466" />
  <g
     id="g8466">
    <path
       inkscape:connector-curvature="0"
       d="M -13.466093,0.1885736 H 514.89024 V 516.42957 H -13.466093 z"
       id="path3978"
       style="fill:#000000" />
    <path
       sodipodi:type="arc"
       style="fill:#333333;fill-opacity:1;fill-rule:nonzero;stroke:none"
       id="path4121"
       sodipodi:cx="63.286057"
       sodipodi:cy="-74.545074"
       sodipodi:rx="39.244427"
       sodipodi:ry="23.688076"
       d="m 101.95774,-78.577314 a 39.244427,23.688076 0 0 1 9.3e-4,0.0033 l -38.672613,4.028989 z"
       sodipodi:start="6.11213"
       sodipodi:end="6.1122693"
       transform="matrix(0.92592215,0,0,1,-12.92858,0)" />
    <path
       sodipodi:type="arc"
       style="fill:#333333;fill-opacity:1;fill-rule:nonzero;stroke:none"
       id="path4123"
       sodipodi:cx="65.584152"
       sodipodi:cy="-52.359596"
       sodipodi:rx="10.606602"
       sodipodi:ry="11.755651"
       d="m 76.035958,-54.360671 a 10.606602,11.755651 0 0 1 2.51e-4,0.0016 l -10.452057,1.999461 z"
       sodipodi:start="6.11213"
       sodipodi:end="6.1122693"
       transform="matrix(0.92592215,0,0,1,-12.92858,0)" />
    <path
       sodipodi:type="arc"
       style="fill:#333333;fill-opacity:1;fill-rule:nonzero;stroke:none"
       id="path4125"
       sodipodi:cx="54.182056"
       sodipodi:cy="-54.392529"
       sodipodi:rx="15.46796"
       sodipodi:ry="16.793785"
       d="m 69.424272,-57.251206 a 15.46796,16.793785 0 0 1 3.67e-4,0.0023 l -15.242583,2.856372 z"
       sodipodi:start="6.11213"
       sodipodi:end="6.1122693"
       transform="matrix(0.92592215,0,0,1,-12.92858,0)" />
    <g
       id="g3177">
      <path
         style="fill:#979896"
         d="m 455.20825,476.35537 c 4.46647,-2.68284 6.56797,-8.7475 5.06483,-14.61647 -0.83279,-3.25162 -2.91945,-4.82658 -9.0586,-6.83721 -7.65901,-2.50839 -16.85129,-10.42403 -16.85129,-14.51094 0,-1.05624 -5.46676,-7.88822 -12.14836,-15.1822 -6.6816,-7.29398 -15.96905,-17.87871 -20.63878,-23.5216 l -8.49043,-10.25981 18.97191,-13.40334 c 10.43455,-7.37186 20.25481,-14.20783 21.8228,-15.19108 2.87836,-1.80492 2.10716,-6.82904 -1.04825,-6.82904 -0.90382,0 -10.37912,5.84872 -21.05623,12.99716 -10.67711,7.14843 -20.40033,13.01096 -21.60714,13.02784 -2.18328,0.0305 -7.11677,-4.89144 -51.42316,-51.30303 -12.77881,-13.38599 -41.22174,-43.00444 -63.20652,-65.81877 -36.3018,-37.67161 -47.27068,-49.10934 -66.3688,-69.20567 C 130.24117,112.6467 68.974605,49.704307 67.711898,50.373552 c -0.885437,0.469287 -1.494709,0.284702 -1.353964,-0.410189 0.734129,-3.624083 -0.747408,-5.381962 -6.528344,-7.746051 -5.388134,-2.203456 -6.598207,-2.272128 -7.912101,-0.449008 -2.775521,3.851252 -1.752376,5.089306 82.992831,100.425526 17.2346,19.3885 47.82616,53.87395 67.98125,76.63436 20.15507,22.7604 43.68654,49.31479 52.29213,59.00972 8.60558,9.69495 30.94885,34.86934 49.65172,55.94308 18.70286,21.07376 39.40767,44.30542 46.01068,51.62591 7.03733,7.80204 11.59491,14.22752 11.01336,15.52716 -0.54566,1.21944 -9.89124,8.22275 -20.76796,15.56289 -17.77055,11.99245 -19.49794,13.58409 -17.03513,15.69613 3.01935,2.58929 2.42259,2.88867 28.09352,-14.09378 10.89209,-7.20561 18.54024,-11.51695 20.43061,-11.51695 0.90016,0 19.54246,18.23907 34.97401,34.21753 5.40641,5.59802 10.73972,10.18997 11.85178,10.20431 3.67783,0.0475 11.74007,10.86694 12.7077,17.05366 0.58793,3.75901 2.37542,6.93827 4.67884,8.32185 4.79327,2.87915 13.60101,2.86752 18.41542,-0.0244 z"
         id="path3189"
         inkscape:connector-curvature="0" />
      <path
         style="fill:#83847b"
         d="m 449.98587,477.53874 c 5.6004,-0.9262 9.39876,-6.22431 9.39876,-13.10977 0,-5.42938 -0.54729,-6.04538 -7.7105,-8.67855 -8.40799,-3.09076 -17.31094,-11.00005 -17.31094,-15.37888 0,-1.51806 -1.21883,-3.62758 -2.7085,-4.6878 -3.76983,-2.68306 -38.41507,-42.40902 -38.32362,-43.94377 0.041,-0.68795 9.69212,-8.02961 21.44695,-16.3148 11.75483,-8.28517 21.37242,-15.69954 21.37242,-16.47639 0,-3.69995 -7.66225,-0.40639 -22.34057,9.60295 -8.84687,6.03279 -14.564,10.48962 -12.70474,9.90405 2.908,-0.91585 3.05533,-0.72868 1.05409,1.33922 -1.27951,1.32213 -3.46218,2.03009 -4.85038,1.57327 -1.3882,-0.45683 -3.99155,-0.15707 -5.78522,0.66615 -2.76896,1.27085 -5.37969,-0.72808 -17.29617,-13.24292 -19.41435,-20.38917 -37.86511,-39.67744 -56.9498,-59.53478 -8.91196,-9.27275 -25.78534,-26.86034 -37.49641,-39.08352 -11.71107,-12.22317 -28.97135,-30.16069 -38.35614,-39.86114 -9.38481,-9.70044 -21.88884,-22.68233 -27.78675,-28.84865 -67.85568,-70.94363 -80.21901,-83.32595 -84.63606,-84.76612 -3.71856,-1.21243 -4.10067,-1.77508 -1.98481,-2.9227 2.50652,-1.3595 1.03653,-2.17559 -2.74142,-1.52193 -0.98298,0.17007 -1.20782,-0.18768 -0.49962,-0.79501 1.7345,-1.48745 -5.5928,-10.1473 -7.65917,-9.0521 -0.89657,0.47519 -1.22437,-0.0428 -0.72847,-1.15102 1.13953,-2.546625 -11.13756,-13.548801 -14.04952,-12.590535 -2.235913,0.735794 -8.143993,-6.591163 -7.507358,-9.31033 0.197365,-0.842978 3.39e-4,-0.955251 -0.437804,-0.249494 -0.438161,0.705758 -3.624659,-1.018515 -7.081103,-3.831718 l -6.284456,-5.114911 4.935604,6.51392 c 2.714594,3.582656 5.632987,6.51392 6.48536,6.51392 0.852356,0 1.549739,0.994003 1.549739,2.208897 0,1.214892 3.999856,5.786471 8.888548,10.159063 4.8887,4.372593 9.36109,9.226918 9.93862,10.787388 0.57753,1.56047 3.37016,4.01253 6.20584,5.44903 2.83568,1.43649 4.74642,3.17984 4.24608,3.8741 -0.50034,0.69426 0.39387,1.69127 1.98715,2.21559 1.59328,0.52431 2.45771,1.93468 1.921,3.13415 -0.59458,1.32875 -0.20748,1.7736 0.99073,1.13855 1.08162,-0.57327 2.6686,-0.0918 3.52664,1.06991 2.11038,2.85732 2.0182,4.80596 -0.17247,3.6449 -0.98298,-0.52099 -1.78724,-0.21683 -1.78724,0.67589 2e-5,0.89273 1.6591,1.62314 3.68685,1.62314 2.46721,0 3.5588,0.88729 3.29981,2.68221 -0.60033,4.1606 1.974,7.94236 4.77837,7.0195 2.86368,-0.94238 3.4941,1.86947 0.74571,3.32613 -2.63246,1.39522 -2.21839,2.9483 2.01722,7.56605 2.70516,2.94924 4.35774,3.67327 5.71919,2.50573 3.00336,-2.57559 4.15529,-2.02853 8.24489,3.91558 4.07059,5.91648 3.32601,9.49099 -0.93584,4.49271 -1.39411,-1.635 -2.50917,-2.32363 -2.47791,-1.53028 0.10026,2.54549 4.34476,6.32881 6.42513,5.7271 1.10763,-0.32037 2.50586,0.51706 3.10722,1.86093 0.63318,1.41506 0.34976,2.04931 -0.67342,1.50701 -3.17241,-1.68139 -1.8558,2.23354 1.80771,5.37526 1.96597,1.68595 3.57449,3.64819 3.57449,4.36051 0,0.71233 1.80959,2.59073 4.0213,4.17422 2.21172,1.5835 3.01598,1.89731 1.78725,0.69736 -1.22873,-1.19995 -2.20185,-3.25078 -2.1625,-4.5574 0.0408,-1.34995 1.25853,-0.49734 2.82074,1.97473 1.51205,2.39272 2.31239,4.72496 1.77856,5.18275 -1.59903,1.3713 2.51419,6.72186 4.39933,5.72274 0.95801,-0.50777 1.52085,-0.29633 1.25076,0.46984 -0.2701,0.76618 4.09977,6.50755 9.71081,12.75859 18.31869,20.40816 26.4229,29.64436 32.16243,36.65489 11.74208,14.3423 17.69166,19.76429 20.7649,18.9235 2.4454,-0.669 2.52743,-0.53357 0.44454,0.73387 -2.08375,1.26796 -0.58457,3.76517 8.13801,13.55559 5.88077,6.60072 22.261,25.10578 36.40053,41.12236 40.34468,45.70052 55.59422,62.68087 69.85777,77.78655 3.33324,3.53004 4.89039,6.48896 4.03295,7.66344 -0.76821,1.05225 -1.418,2.94504 -1.44398,4.20621 -0.026,1.26119 -1.41221,2.29575 -3.08051,2.29903 -2.79769,0.006 -35.3879,20.49815 -35.35316,22.22996 0.009,0.42149 0.68711,1.67481 1.50813,2.78515 1.11528,1.50833 5.89884,-0.93486 18.91766,-9.66213 9.5837,-6.42454 19.15398,-12.50583 21.26727,-13.51398 2.11329,-1.00816 4.37043,-2.45918 5.01585,-3.22451 1.29094,-1.53076 13.80861,9.65997 33.2839,29.75561 6.94912,7.17048 15.09499,14.59708 18.10192,16.50356 6.28023,3.98185 9.90251,9.43509 11.59422,17.45481 0.94964,4.50186 2.28809,5.94312 6.76092,7.28026 3.06729,0.91697 5.65793,1.57329 5.75699,1.45849 0.0991,-0.11479 1.98263,-0.50682 4.1857,-0.87118 z M 264.51592,274.00492 c -2.42531,-2.83548 -2.38738,-2.90761 0.50574,-0.96185 1.72022,1.15695 3.12768,2.82374 3.12768,3.704 0,0.88025 -0.22759,1.31308 -0.50574,0.96185 -0.27815,-0.35124 -1.6856,-2.01804 -3.12768,-3.704 z m -15.97013,-14.9437 c -0.1226,-2.51078 3.27467,-0.93038 6.18321,2.87638 l 3.07598,4.0259 -4.6015,-2.87638 c -2.53083,-1.58201 -4.62679,-3.39366 -4.65769,-4.0259 z m -4.52427,-5.74757 c 0.60752,-0.84298 1.45925,-1.53269 1.89273,-1.53269 0.43348,0 0.78814,0.68971 0.78814,1.53269 0,0.84297 -0.85173,1.53268 -1.89273,1.53268 -1.041,0 -1.39566,-0.68971 -0.78814,-1.53268 z m -14.57699,-11.15786 c -1.13645,-0.60867 -1.67718,-2.38261 -1.20165,-3.94205 0.47553,-1.55945 -0.49998,-4.00559 -2.16781,-5.43586 -1.66782,-1.43029 -2.62226,-2.95223 -2.12099,-3.38211 0.50129,-0.42988 2.72165,1.39855 4.93417,4.06317 3.03492,3.65509 3.47482,5.13519 1.79141,6.02742 -1.58391,0.83948 -1.6574,1.48681 -0.25329,2.23101 1.08794,0.57661 1.97806,0.31797 1.97806,-0.57476 0,-2.43066 3.04339,-1.95539 4.21275,0.65787 1.0581,2.36466 -3.04188,2.56778 -7.17265,0.35531 z m -12.04169,-17.32493 c -0.66795,-1.49269 -0.26852,-2.19339 1.03751,-1.82006 2.67165,0.76371 4.14264,4.24717 1.79351,4.24717 -0.95974,0 -2.23369,-1.0922 -2.83102,-2.42711 z m -24.31782,-22.5211 c 0,-0.81554 1.17117,-0.64928 2.60259,0.3695 1.4314,1.01876 3.35779,1.45202 4.28083,0.9628 0.92304,-0.48921 2.15545,0.17694 2.73868,1.48035 0.60724,1.35704 0.30537,1.96964 -0.70633,1.43343 -0.97173,-0.51501 -1.76679,-0.0992 -1.76679,0.92429 0,1.15465 -1.35634,0.80804 -3.57449,-0.91344 -1.96597,-1.52577 -3.57449,-3.44139 -3.57449,-4.25693 z m -7.52629,-10.59311 c 1.69458,-1.45321 2.16455,-1.27087 2.16455,0.83978 0,1.48281 0.63192,2.36109 1.40426,1.95175 0.77236,-0.40935 1.40428,0.58998 1.40428,2.22074 0,2.89966 -0.0786,2.89756 -3.56883,-0.0955 -2.79393,-2.39601 -3.09883,-3.46355 -1.40426,-4.91677 z m -16.52519,-19.74132 c 1.53208,-2.12591 2.60453,-1.7295 2.60453,0.9627 0,1.31422 -0.81738,1.95627 -1.81639,1.42678 -0.99902,-0.52949 -1.3537,-1.60475 -0.78814,-2.38948 z m -27.43347,-28.28937 c 0.55027,-0.47189 1.54963,0.37875 2.22079,1.89032 0.9699,2.18438 0.76462,2.36043 -1.0005,0.85799 -1.22144,-1.03967 -1.77057,-2.27641 -1.22029,-2.74831 z m -6.38885,-19.96398 c -0.61033,-1.36397 -0.31072,-1.97919 0.7024,-1.44223 0.97173,0.51502 1.76678,1.58541 1.76678,2.37864 0,2.20466 -1.28104,1.71885 -2.46918,-0.93641 z M 91.212016,90.082474 c -1.223709,-1.264467 -2.627054,-2.299031 -3.118547,-2.299031 -0.491492,0 0.107592,1.034564 1.331302,2.299031 1.223709,1.264467 2.627054,2.299031 3.118547,2.299031 0.491492,0 -0.107592,-1.034564 -1.331302,-2.299031 z M 80.488542,68.179091 c 0,-0.613746 -1.578763,-1.961425 -3.508363,-2.994842 -2.891799,-1.548736 -3.338647,-1.499678 -2.542679,0.279154 1.037085,2.317663 6.051042,4.567912 6.051042,2.715688 z M 71.054226,57.504884 c -0.217543,-2.57102 -0.867654,-4.425688 -1.444702,-4.121486 -1.820703,0.959828 -8.780685,-3.993534 -8.780685,-6.249145 0,-1.893383 -5.110611,-5.331422 -7.925112,-5.331422 -2.647125,0 -0.412889,4.757332 5.451832,11.608539 3.554618,4.152527 5.922736,6.186858 5.262492,4.520734 -1.070346,-2.701044 -0.711038,-2.635047 3.315627,0.609024 l 4.516066,3.638338 -0.395518,-4.674582 z"
         id="path3187"
         inkscape:connector-curvature="0" />
      <path
         style="fill:#7e8078"
         d="m 456.60242,473.67955 c 2.90175,-3.55276 3.67764,-11.44993 1.41441,-14.39609 -0.72219,-0.9401 -3.21156,-2.21777 -5.53194,-2.83926 -5.96103,-1.5966 -18.1217,-11.38081 -18.1217,-14.58033 0,-1.47343 -4.66399,-7.77299 -10.36443,-13.99901 -13.5572,-14.8072 -30.74222,-34.83753 -30.74222,-35.83221 0,-1.13221 11.18152,-9.61386 28.14912,-21.35225 14.7205,-10.18383 17.374,-13.14403 11.78219,-13.14403 -3.62012,0 -21.55634,11.65778 -24.02679,15.61641 -0.98224,1.57393 -2.56973,2.44624 -3.52775,1.93849 -0.95803,-0.50776 -1.52087,-0.009 -1.25077,1.10659 0.30326,1.25343 -0.87607,1.85878 -3.08339,1.5827 -2.8795,-0.36015 -3.06299,-0.15266 -0.94372,1.06707 2.25453,1.29759 2.1796,1.66261 -0.52389,2.55228 -1.73507,0.57098 -3.62786,0.63235 -4.2062,0.13641 -0.57835,-0.49597 -2.46868,-0.25135 -4.20074,0.54358 -2.65492,1.2185 -7.47146,-3.06003 -30.68696,-27.25912 -15.14577,-15.78746 -36.74538,-38.26896 -47.99913,-49.95887 -11.25375,-11.68995 -24.88479,-25.91452 -30.2912,-31.61018 -21.12126,-22.25121 -74.2562,-77.61619 -77.9731,-81.24557 -2.15826,-2.10744 -12.52329,-12.79793 -23.03342,-23.75665 -42.16838,-43.96819 -45.52854,-46.86368 -47.99308,-41.35598 -0.50478,1.12807 0.92432,1.75632 3.77698,1.66041 2.67193,-0.0898 4.90244,0.80614 5.33929,2.14474 0.61635,1.88859 0.4426,1.92194 -0.97321,0.18681 -2.0747,-2.54266 -5.69761,-0.97963 -5.69761,2.45812 0,1.35522 0.52155,2.01677 1.15899,1.47011 1.22555,-1.05099 7.77724,4.67361 7.77724,6.79544 0,0.68493 2.33927,3.29753 5.19838,5.80577 2.85909,2.50823 6.65168,6.67027 8.42794,9.24896 1.77627,2.57869 3.79653,4.68853 4.48947,4.68853 0.69295,0 1.77975,2.02977 2.41514,4.5106 0.69597,2.7174 2.0401,4.2194 3.38104,3.77813 1.22419,-0.40286 3.31693,1.01592 4.65052,3.15284 1.33359,2.13692 3.09306,3.8853 3.90994,3.8853 0.81688,0 1.48524,1.00029 1.48524,2.22287 0,1.22258 1.40745,2.92588 3.12768,3.78511 1.72022,0.85924 2.17979,1.58322 1.02128,1.60885 -1.15853,0.0256 -3.37024,-1.03722 -4.91492,-2.3619 -1.5447,-1.32468 -2.80854,-1.77643 -2.80854,-1.00389 0,2.0262 6.38696,6.68659 8.44016,6.15854 0.95622,-0.24591 6.02292,3.93631 11.25937,9.29384 8.19731,8.38686 9.22896,10.14171 7.42136,12.62387 -1.15469,1.58561 -2.075,3.40957 -2.0451,4.05323 0.0298,0.64367 0.87411,-0.0366 1.87606,-1.51189 3.20574,-4.72 6.29428,-3.08867 6.46103,3.41264 l 0.15639,6.09484 -3.53028,-3.41264 c -1.94166,-1.87694 -0.88756,-0.10529 2.34242,3.93685 8.62841,10.79816 10.80649,11.96746 9.53755,5.12021 -0.64225,-3.46523 -0.31522,-5.5726 0.8647,-5.5726 1.04361,0 1.89749,0.55966 1.89749,1.24368 0,0.68402 1.46003,2.58762 3.24451,4.23023 1.78447,1.6426 7.98177,8.49731 13.77175,15.23271 5.78997,6.73537 12.77097,14.31528 15.51331,16.84421 5.25639,4.84737 6.88616,8.61301 2.32172,5.36441 -1.47448,-1.04942 -2.70645,-1.3063 -2.73771,-0.57084 -0.0313,0.73545 -1.04686,0.22213 -2.25686,-1.14068 -1.74833,-1.96914 -2.628,-2.08495 -4.28463,-0.56413 -1.6126,1.48041 -0.79804,3.1183 3.59729,7.23343 3.12506,2.92582 5.8989,5.9385 6.16411,6.69487 1.45955,4.16244 49.27979,55.64172 50.89275,54.78685 1.15504,-0.61217 1.37333,-0.27529 0.55624,0.85849 -1.91929,2.66315 4.29513,8.2302 7.02134,6.28991 1.45784,-1.03758 2.1117,-0.81951 2.1117,0.70434 0,1.21399 -0.67022,1.85205 -1.48938,1.41788 -3.61835,-1.91774 -0.71665,2.26303 9.58167,13.80527 6.08908,6.82456 17.12822,19.21438 24.53142,27.53291 7.4032,8.31854 14.50567,15.4686 15.78326,15.88903 1.87337,0.6165 1.88694,1.21489 0.0702,3.0922 -1.23901,1.28027 -2.26486,3.44128 -2.27967,4.80224 -0.0152,1.40209 -1.37406,2.38341 -3.13539,2.26434 -1.70964,-0.11557 -2.6675,0.40171 -2.12858,1.14951 0.53893,0.74781 -0.19505,1.35965 -1.63106,1.35965 -3.39864,0 -31.46892,18.71765 -30.8864,20.59548 1.08602,3.50096 5.22501,1.88369 19.22217,-7.5109 8.22681,-5.52165 18.11028,-11.84163 21.96327,-14.04441 l 7.00544,-4.00504 7.79305,7.46367 c 4.28618,4.10501 12.37517,12.29163 17.97555,18.19247 5.60037,5.90085 15.16116,14.9275 21.24621,20.05924 8.20391,6.91868 11.60885,11.07851 13.17272,16.09322 2.88988,9.2667 4.58109,10.5945 13.49412,10.5945 5.95408,0 8.35952,-0.78003 10.50464,-3.40641 z m -13.303,-2.8148 c 0,-0.89273 0.80426,-1.19687 1.78724,-0.67588 0.98299,0.52099 1.78725,1.2514 1.78725,1.62314 0,0.37174 -0.80426,0.67589 -1.78725,0.67589 -0.98298,0 -1.78724,-0.73042 -1.78724,-1.62315 z M 412.91624,370.61813 c 0,-0.39183 1.80959,-1.46444 4.02131,-2.38358 3.86156,-1.60478 3.88349,-1.57649 0.55202,0.71241 -3.64645,2.50532 -4.57333,2.84401 -4.57333,1.67117 z m -88.10706,-28.33142 c 0.76395,-2.08847 0.63567,-2.09782 -1.05925,-0.0772 -1.06068,1.26446 -1.95312,1.60932 -1.98322,0.76634 -0.03,-0.84298 -0.76928,-0.56483 -1.6426,0.61812 -1.16062,1.57209 -1.5158,1.15808 -1.32003,-1.53865 0.3824,-5.26739 6.82037,-5.25831 10.34921,0.0153 2.02718,3.02907 2.2468,4.76806 0.84319,6.67631 -1.72539,2.34572 -2.08706,2.27739 -3.97725,-0.75144 -1.1436,-1.83248 -1.68812,-4.40111 -1.21005,-5.70805 z m -10.19145,-11.98918 c -6.89936,-8.82307 -6.40218,-9.43295 1.53435,-1.88222 3.9872,3.7934 7.28376,7.39274 7.32567,7.99851 0.17712,2.55985 -4.71795,-0.81932 -8.86002,-6.11629 z m -12.51072,-9.54565 c 1.05215,-1.68596 2.31514,-3.06538 2.80664,-3.06538 0.49149,0 0.0327,1.37942 -1.0194,3.06538 -1.05215,1.68595 -2.31514,3.06537 -2.80663,3.06537 -0.49149,0 -0.0327,-1.37942 1.01939,-3.06537 z m -10.00052,-6.36757 c -0.7901,-1.09633 -0.49027,-1.35345 0.78814,-0.67588 4.016,2.1285 5.95119,-0.74798 3.05414,-4.53971 -4.13413,-5.4108 -3.3609,-6.02849 1.49108,-1.19113 3.88751,3.87577 4.00733,4.42703 1.34043,6.16747 -3.69366,2.41053 -5.07334,2.45999 -6.67379,0.23925 z m -8.56769,-15.62468 c 0.8496,-2.2956 0.44781,-2.77711 -1.72164,-2.0632 -1.55642,0.51219 -3.38202,0.16512 -4.05687,-0.77129 -0.74301,-1.03098 -0.41309,-1.27118 0.83638,-0.60896 2.58108,1.368 2.62437,0.0774 0.13136,-3.91739 -3.68146,-5.8991 -0.499,-4.26403 6.06293,3.11499 7.33988,8.25384 7.98516,9.74061 3.60144,8.29801 -2.35655,-0.77551 -2.73481,-0.35883 -1.78287,1.96396 1.17585,2.86908 1.13594,2.8681 -1.48534,-0.0366 -1.52064,-1.68511 -2.21102,-4.28896 -1.58538,-5.97944 z m -19.09923,-15.87179 -4.33284,-4.14492 4.37016,2.36023 c 2.4036,1.29814 4.68233,3.16334 5.06387,4.14492 1.09494,2.81696 -0.42386,2.11424 -5.10119,-2.36023 z m 3.42403,-3.57628 c -1.80882,-2.89235 -3.36893,-4.23501 -3.4669,-2.9837 -0.0979,1.25132 -0.70118,0.68257 -1.34044,-1.26388 -0.63926,-1.94645 -1.96654,-3.54744 -2.94953,-3.55777 -2.38881,-0.0251 -8.0426,-4.49342 -8.0426,-6.35628 0,-0.8439 1.03347,-0.74726 2.3985,0.22425 1.31917,0.93888 2.80228,1.36079 3.29579,0.93757 0.93698,-0.80352 17.5399,16.63274 17.5399,18.42026 0,2.58309 -4.46552,-0.67261 -7.43472,-5.42045 z m -57.79097,-64.4276 -0.80119,-3.71921 3.3841,3.78887 c 1.86126,2.08387 2.9541,4.38552 2.42855,5.11477 -1.38546,1.92244 -4.08131,-0.86647 -5.01146,-5.18443 z m 34.78397,43.46361 c 2.3472,-2.2843 2.27945,-2.43922 -0.64581,-1.47657 -2.48922,0.81914 -3.0126,0.50442 -2.19597,-1.32055 0.69419,-1.55136 0.35372,-2.01525 -0.96577,-1.3159 -1.12086,0.59405 -3.11397,-0.18192 -4.42917,-1.72437 -1.3152,-1.54246 -2.78505,-2.4668 -3.26632,-2.05406 -0.48127,0.41272 1.32001,2.93136 4.00284,5.59694 4.48785,4.45904 5.08756,4.6425 7.5002,2.29451 z m -8.87768,-11.25205 c 2.23479,-1.31137 2.11694,-1.49874 -0.70822,-1.12605 -1.86399,0.2459 -3.77791,-0.51106 -4.25316,-1.68212 -0.5927,-1.4605 -0.0897,-1.74434 1.60184,-0.90378 1.45587,0.72349 1.85587,0.65392 0.97655,-0.16983 -0.81917,-0.76738 -2.02556,-1.40581 -2.68087,-1.41871 -0.65533,-0.0123 -2.19683,-0.5709 -3.42556,-1.23998 -3.54007,-1.92764 -2.68158,2.74007 1.03435,5.62395 3.81625,2.96177 3.94306,2.97736 7.45507,0.91652 z m -14.29797,-12.08366 c 0,-0.89273 -0.80426,-1.62315 -1.78724,-1.62315 -0.98299,0 -1.78725,0.30415 -1.78725,0.67589 0,0.37174 0.80426,1.10215 1.78725,1.62315 0.98298,0.52099 1.78724,0.21684 1.78724,-0.67589 z m -28.59593,-31.51054 c -1.22371,-1.26447 -2.62705,-2.29903 -3.11855,-2.29903 -0.49149,0 0.1076,1.03456 1.33131,2.29903 1.2237,1.26446 2.62705,2.29903 3.11854,2.29903 0.4915,0 -0.10759,-1.03457 -1.3313,-2.29903 z m -8.15751,-8.87906 c -0.67116,-1.51157 -1.67052,-2.36221 -2.22079,-1.89031 -0.55028,0.4719 -0.001,1.70863 1.22029,2.74831 1.76512,1.50243 1.97041,1.32639 1.0005,-0.858 z m -51.69536,-73.14725 c 1.63524,-2.26902 0.0836,-3.42884 -3.73279,-2.79014 -2.79211,0.46728 -2.82172,0.7158 -0.29899,2.50894 2.00987,1.42861 3.14766,1.50796 4.03178,0.2812 z m -7.24518,-4.46461 c 0.56556,-0.78473 0.34492,-1.78895 -0.49026,-2.23161 -0.83519,-0.44265 -1.51853,0.1994 -1.51853,1.42679 0,2.58436 0.56359,2.81016 2.00879,0.80482 z m -9.75351,-9.21157 c 0,-0.89273 -0.80426,-1.62314 -1.78725,-1.62314 -0.98298,0 -1.78725,0.30415 -1.78725,0.67589 0,0.37174 0.80427,1.10215 1.78725,1.62314 0.98299,0.52099 1.78725,0.21684 1.78725,-0.67589 z m 2.42852,-5.03866 c -0.48854,-0.6779 -1.62775,-0.84062 -2.53154,-0.3616 -0.90381,0.47903 -1.22968,-0.0534 -0.72414,-1.18314 0.50552,-1.12975 -1.61858,-4.09684 -4.72024,-6.593526 -4.48386,-3.609305 -5.22989,-3.860197 -3.64096,-1.224462 1.09912,1.823232 3.01296,3.625508 4.25295,4.005057 1.23999,0.37955 1.72542,1.180796 1.07871,1.780548 -1.44948,1.344243 -19.377498,-15.041881 -19.377498,-17.710942 0,-0.684336 -1.781902,-2.062064 -3.959786,-3.061618 -3.833946,-1.759618 -3.819755,-1.665502 0.446812,2.961501 2.42363,2.628381 6.819379,7.531742 9.768334,10.896361 2.948958,3.364619 6.769198,6.537266 8.489418,7.050324 1.72022,0.51306 3.12768,1.913197 3.12768,3.111417 0,1.36934 1.61183,2.06417 4.33927,1.8706 2.3866,-0.16939 3.93954,-0.86262 3.45099,-1.54052 z M 70.377932,57.82127 c -0.584215,-1.305593 -3.172825,-4.332388 -5.752464,-6.726211 -2.579639,-2.393821 -5.727283,-5.463864 -6.99478,-6.822316 -1.267479,-1.358451 -3.077065,-2.469912 -4.021302,-2.469912 -2.987828,0 -1.871425,3.691303 2.960786,9.789685 3.257595,4.111177 5.098208,5.319512 6.063249,3.980442 1.010616,-1.402306 1.938501,-1.036973 3.427938,1.349678 2.335304,3.742069 5.923146,4.488992 4.316573,0.898634 z M 56.751739,49.248984 c -1.750929,-2.637779 -2.855947,-5.07685 -2.455622,-5.420157 0.400325,-0.343307 2.408957,1.819237 4.463646,4.805654 2.054671,2.986416 3.159707,5.425487 2.455604,5.420156 -0.704085,-0.0054 -2.712717,-2.167874 -4.463628,-4.805653 z"
         id="path3185"
         inkscape:connector-curvature="0" />
      <path
         style="fill:#71726d"
         d="m 456.60242,473.67955 c 2.8978,-3.54793 3.68459,-11.50618 1.41441,-14.3065 -0.72219,-0.89085 -3.92685,-2.52635 -7.12148,-3.63445 -7.10176,-2.46336 -16.53216,-10.47342 -16.53216,-14.0422 0,-1.44166 -5.04842,-8.03541 -11.2187,-14.65274 -13.89856,-14.90555 -29.88795,-33.53888 -29.88795,-34.83013 0,-1.26109 9.85525,-8.83416 28.14912,-21.63061 14.71438,-10.29261 17.23573,-13.04655 11.94466,-13.04655 -3.79435,0 -15.05591,7.51665 -14.56915,9.72433 0.21474,0.97395 -0.96026,1.77962 -2.61111,1.79036 -3.48952,0.0227 -5.91643,1.77784 -5.9778,4.32307 -0.0237,0.98348 -1.39963,1.69685 -3.05759,1.58529 -1.65796,-0.11158 -2.84496,0.57813 -2.63776,1.53268 0.2072,0.95455 -1.23179,1.58318 -3.19776,1.39697 -1.96598,-0.18622 -2.56416,0.0451 -1.3293,0.51408 3.59507,1.3653 0.66638,3.65621 -4.67409,3.65621 -2.69435,0 -5.92137,0.86214 -7.17117,1.91586 -1.31004,1.10451 -2.02907,1.21027 -1.69788,0.24972 0.31596,-0.91638 -6.66388,-9.13134 -15.51074,-18.25547 -8.84687,-9.12411 -19.10997,-19.75456 -22.80689,-23.62318 -3.69693,-3.86864 -7.57695,-6.84437 -8.62227,-6.61273 -1.04531,0.23162 -1.38846,-0.28947 -0.76253,-1.15798 1.52838,-2.12076 -11.49335,-15.59161 -13.85952,-14.33754 -1.0247,0.54311 -1.33847,0.2595 -0.69726,-0.63022 0.64121,-0.88973 -5.06541,-8.12807 -12.68138,-16.08521 C 284.67684,275.51238 207.33075,195.04256 203.93607,191.629 c -1.88951,-1.90001 -12.07186,-12.42077 -22.62744,-23.37949 -27.02058,-28.0525 -35.22,-36.07624 -36.09729,-35.3239 -0.41988,0.36007 1.73148,2.93758 4.78079,5.72779 5.96722,5.4602 6.53437,6.67521 3.79395,8.12765 -0.97173,0.51502 -1.40771,0.0384 -0.96887,-1.05907 0.43884,-1.0975 -2.67965,-5.3201 -6.92999,-9.38355 -6.55474,-6.26653 -7.91423,-6.97164 -8.95544,-4.64478 -0.67515,1.50882 -0.64384,2.24275 0.0695,1.63095 0.71342,-0.6118 4.4387,2.68534 8.2784,7.32698 3.83976,4.64164 7.72199,8.43935 8.62725,8.43935 0.90524,0 1.64591,1.03456 1.64591,2.29903 0,1.26446 0.62137,2.29903 1.38083,2.29903 0.75943,0 2.93412,2.4735 4.8326,5.49667 1.89849,3.02317 6.30374,8.13656 9.78948,11.36308 9.38442,8.6866 16.16751,16.29855 16.16751,18.14308 0,0.89613 1.01055,2.18089 2.24564,2.85501 2.92964,1.59899 20.98856,19.72457 20.98856,21.06601 0,0.56752 -0.92853,0.53973 -2.06339,-0.0618 -1.28868,-0.68301 -1.57782,-0.41985 -0.77013,0.70088 0.71129,0.98697 1.89845,1.47376 2.6381,1.08172 0.73967,-0.39201 6.91711,5.54284 13.72766,13.18858 6.81055,7.64573 19.03656,21.09976 27.16892,29.89785 8.13236,8.79807 14.3056,16.66323 13.71831,17.47815 -0.58729,0.8149 -0.35098,1.29212 0.52511,1.0605 1.52666,-0.40364 13.17325,11.11305 21.51298,21.27306 4.71311,5.7418 5.45781,9.6285 1.27438,6.65107 -2.39991,-1.70806 -2.40111,-1.43564 -0.0107,2.49452 5.05365,8.31002 2.70521,7.30973 -5.07017,-2.15957 -4.27643,-5.20805 -8.3403,-8.98467 -9.03088,-8.39247 -0.69055,0.5922 -0.78228,-1.22706 -0.20382,-4.04282 0.88628,-4.31411 0.59006,-4.9676 -1.88288,-4.15381 -1.98286,0.65253 -4.90159,-0.87588 -8.99969,-4.7127 -6.74263,-6.31277 -7.6285,-8.47987 -2.93741,-7.18575 2.47671,0.68324 2.60345,0.54323 0.60888,-0.67265 -1.38533,-0.84449 -3.56688,-1.19056 -4.84787,-0.76901 -1.62159,0.53364 -0.11689,3.27925 4.95357,9.0384 4.00545,4.54956 7.98736,7.89842 8.8487,7.44191 0.86133,-0.45651 1.11912,0.16881 0.57285,1.3896 -0.54625,1.22078 0.46828,3.1638 2.25454,4.31781 1.78625,1.15402 4.05199,3.22442 5.03498,4.60091 0.98298,1.37647 6.14733,7.43224 11.47633,13.45724 l 9.68909,10.95454 2.34608,-4.78497 2.34608,-4.78496 9.16085,8.93029 c 10.76966,10.49896 24.85399,25.93301 24.85399,27.23613 0,1.88908 -8.91263,-0.57318 -14.19289,-3.92101 -3.66836,-2.32584 -5.16487,-4.3563 -4.51163,-6.12133 0.5376,-1.4526 0.14977,-3.07981 -0.86201,-3.61602 -1.14008,-0.60424 -1.39227,0.0751 -0.66327,1.78687 1.09158,2.56308 0.8972,2.55172 -2.70133,-0.15794 -2.13266,-1.60586 -3.87755,-2.56284 -3.87755,-2.12661 0,1.8767 11.28183,12.67105 12.84361,12.28864 0.94602,-0.23162 1.18918,0.31546 0.54036,1.21576 -1.60177,2.22258 7.79795,12.55461 10.24286,11.2588 1.13388,-0.60098 1.43695,-0.32429 0.72575,0.66256 -0.67163,0.93194 2.50665,5.89803 7.06284,11.03573 7.62485,8.598 8.47767,9.12228 10.71802,6.58898 1.33871,-1.51377 2.4596,-2.02811 2.49086,-1.14299 0.0313,0.88513 -0.84024,2.37863 -1.93667,3.3189 -1.46652,1.25765 -0.68462,3.18121 2.95779,7.27648 2.72321,3.0618 5.83201,5.30792 6.90844,4.99139 1.07642,-0.31653 3.49161,0.79418 5.36707,2.46824 3.36231,3.00123 3.35609,3.03167 -0.44503,2.17924 -3.97943,-0.89242 -6.40983,0.97131 -6.49216,4.97846 -0.026,1.26446 -1.44604,2.20448 -3.15569,2.0889 -1.70964,-0.11557 -2.6675,0.40171 -2.12858,1.14951 0.53893,0.74781 -0.18489,1.35965 -1.60848,1.35965 -1.42359,0 -4.1228,1.20699 -5.99826,2.6822 -1.87545,1.47521 -2.16561,1.99249 -0.64481,1.14952 2.40501,-1.33309 2.4478,-1.1856 0.32854,1.13264 -1.34011,1.46592 -3.1597,2.28206 -4.04352,1.81362 -2.12368,-1.12556 -21.47004,13.0958 -20.20433,14.85206 1.78769,2.48057 3.98343,1.44925 20.76231,-9.75172 9.15507,-6.11159 19.01248,-12.42207 21.90537,-14.02329 l 5.25979,-2.91132 7.79387,7.50938 c 4.28663,4.13015 12.3569,12.33734 17.93395,18.23818 5.57705,5.90085 15.11875,14.9275 21.2038,20.05924 8.26375,6.96913 11.58582,11.04194 13.12679,16.09322 2.50699,8.21787 5.77239,10.5945 14.55643,10.5945 4.90378,0 7.45377,-0.91548 9.48826,-3.40641 z M 442.5958,470.0608 c -0.66794,-1.4927 -0.26852,-2.1934 1.03751,-1.82007 2.67164,0.76371 4.14265,4.24717 1.79351,4.24717 -0.95973,0 -2.23369,-1.0922 -2.83102,-2.4271 z m -21.63695,-104.861 c 0.60752,-0.84298 2.06244,-1.52212 3.23316,-1.50922 1.27898,0.0138 1.05854,0.61649 -0.55229,1.50922 -3.43352,1.90288 -4.05223,1.90288 -2.68087,0 z M 296.74527,319.88478 c 0,-0.47692 0.84862,-2.37362 1.88585,-4.21489 1.71904,-3.05171 1.66082,-3.10906 -0.65835,-0.64859 -2.18332,2.31636 -2.84508,2.38825 -4.6658,0.50689 -1.67887,-1.73479 -1.48912,-2.49587 0.90926,-3.64689 1.66698,-0.80003 2.46027,-2.24637 1.76285,-3.21409 -0.69742,-0.96774 -2.01673,-1.36271 -2.9318,-0.87771 -1.9027,1.00843 -2.27693,-1.32775 -0.46202,-2.88417 0.66096,-0.56681 3.37432,1.20119 6.02972,3.92888 4.00161,4.11057 4.51158,5.55492 2.9795,8.43854 -1.65517,3.11528 -4.84921,4.83575 -4.84921,2.61203 z m -134.93705,-167.73614 -5.36174,-5.35674 5.80855,4.50164 c 3.1947,2.4759 5.80855,5.17726 5.80855,6.00302 0,0.82576 -0.20106,1.21056 -0.44681,0.85511 -0.24575,-0.35546 -2.85959,-3.05682 -5.80855,-6.00303 z m 154.59675,181.72154 c 0,-0.37174 -0.80426,-1.10216 -1.78724,-1.62315 -0.98299,-0.52099 -1.78725,-0.21684 -1.78725,0.67588 0,0.89273 0.80426,1.62315 1.78725,1.62315 0.98298,0 1.78724,-0.30415 1.78724,-0.67588 z m -8.93622,-0.76635 c 0,-0.79322 -0.79506,-1.86362 -1.76679,-2.37864 -1.01311,-0.53696 -1.31273,0.0783 -0.7024,1.44223 1.18814,2.65526 2.46919,3.14108 2.46919,0.93641 z m -4.22475,-6.97875 c 0.56364,-1.25962 1.73558,-1.91351 2.6043,-1.45308 0.86873,0.46044 1.08722,-0.26298 0.48556,-1.60759 -1.2382,-2.7671 -1.20533,-2.78255 -4.04764,1.90236 -1.15072,1.8967 -1.63655,3.44854 -1.07963,3.44854 0.55693,0 1.47377,-1.03061 2.03741,-2.29023 z m -47.66221,-55.70432 c -0.11135,-1.98653 -5.30491,-6.92865 -5.30491,-5.0481 0,1.05384 -0.90595,1.43591 -2.01324,0.84905 -1.44969,-0.76835 -1.50591,-0.2896 -0.20087,1.71025 1.73122,2.65289 7.63781,4.60799 7.51902,2.4888 z m -17.3367,-15.57443 c -1.68332,-1.68595 -3.31226,-3.06537 -3.61987,-3.06537 -0.30762,0 0.30155,1.37942 1.3537,3.06537 1.05215,1.68596 2.6811,3.06538 3.61989,3.06538 0.93876,0 0.3296,-1.37942 -1.35372,-3.06538 z m -21.92587,-26.73156 c 0,-2.69221 -1.07246,-3.08861 -2.60454,-0.96271 -0.56556,0.78473 -0.21088,1.86001 0.78814,2.38949 0.99902,0.52948 1.8164,-0.11256 1.8164,-1.42678 z M 141.2549,126.86696 c -1.22371,-1.26446 -2.62706,-2.29903 -3.11855,-2.29903 -0.49149,0 0.10759,1.03457 1.3313,2.29903 1.22371,1.26447 2.62705,2.29903 3.11855,2.29903 0.49149,0 -0.10759,-1.03456 -1.3313,-2.29903 z m -7.14899,-6.89709 c 0,-0.84298 -0.35466,-1.53269 -0.78814,-1.53269 -0.43348,0 -1.2852,0.68971 -1.89273,1.53269 -0.60752,0.84298 -0.25285,1.53269 0.78814,1.53269 1.041,0 1.89273,-0.68971 1.89273,-1.53269 z M 116.7156,100.81128 c -2.01898,-2.52893 -5.56723,-5.972542 -7.88504,-7.652467 l -4.2142,-3.054409 4.07183,3.965657 c 2.71014,2.639482 3.65232,4.903152 2.81739,6.769039 -0.95267,2.12903 -0.58729,2.58385 1.51895,1.89073 1.52534,-0.50196 3.80578,-0.10442 5.06763,0.88343 1.26184,0.98785 0.6424,-0.27304 -1.37656,-2.80198 z m -9.47453,-3.448542 c -0.0309,-0.632234 -2.24262,-2.473549 -4.91492,-4.091812 l -4.858774,-2.942296 4.332834,4.091811 c 4.5531,4.299801 5.53307,4.829752 5.44086,2.942297 z m -8.880071,-8.722496 c 0,-0.37174 -0.80426,-1.102153 -1.787246,-1.623142 -0.982985,-0.52099 -1.787245,-0.216839 -1.787245,0.675889 0,0.892727 0.80426,1.623142 1.787245,1.623142 0.982986,0 1.787246,-0.30415 1.787246,-0.675889 z m -8.042606,-8.520234 c -1.779185,-1.685956 -3.637009,-3.065374 -4.128501,-3.065374 -0.491493,0 0.562071,1.379418 2.341256,3.065374 1.779185,1.685956 3.637009,3.065374 4.128502,3.065374 0.491492,0 -0.562071,-1.379418 -2.341257,-3.065374 z M 69.765068,57.129702 c -1.052152,-1.685956 -2.813625,-3.065374 -3.914372,-3.065374 -1.100747,0 -0.545682,1.379418 1.233503,3.065374 1.779186,1.685956 3.540641,3.065374 3.914372,3.065374 0.373731,0 -0.181352,-1.379418 -1.233503,-3.065374 z M 57.854255,50.066228 c -1.161781,-2.653711 -0.985005,-2.704474 2.089415,-0.599961 2.985398,2.043582 3.190949,2.043582 1.850014,0 -4.030757,-6.142909 -9.901073,-9.777803 -9.901073,-6.130748 0,0.842977 0.904793,1.360259 2.010651,1.149515 1.105859,-0.210745 2.416589,0.574969 2.912728,1.74603 0.552474,1.304029 0.119567,1.714469 -1.117028,1.059062 -3.019498,-1.600356 -2.435891,1.504165 0.702673,3.737947 2.311052,1.644823 2.530258,1.499678 1.45262,-0.961845 z"
         id="path3183"
         inkscape:connector-curvature="0" />
      <path
         style="fill:#52534d"
         d="m 455.81014,474.02058 c 3.57663,-3.06721 4.81553,-11.34107 2.20669,-14.73712 -0.72219,-0.9401 -3.32372,-2.23758 -5.78118,-2.88327 -8.05965,-2.1177 -13.76593,-6.70413 -18.55531,-14.91391 -2.59313,-4.44505 -8.32822,-11.8753 -12.74465,-16.51168 -4.41642,-4.63638 -12.78972,-14.19635 -18.60732,-21.24438 l -10.57746,-12.8146 17.94217,-12.47473 c 9.86818,-6.86111 20.05914,-13.96476 22.64657,-15.7859 2.58742,-1.82114 4.05748,-3.8703 3.2668,-4.55367 -0.79069,-0.6834 -2.10823,-0.312 -2.92786,0.82532 -0.81964,1.1373 -2.40436,1.58334 -3.5216,0.9912 -1.14981,-0.60941 -1.81823,-0.25314 -1.54025,0.82095 0.63033,2.43563 -30.71879,23.06963 -33.1178,21.79814 -1.0868,-0.57601 -1.42894,0.27785 -0.85955,2.14507 0.67392,2.21001 0.11248,3.05019 -1.95253,2.92187 -1.59414,-0.099 -2.67744,0.7333 -2.40734,1.84968 0.2701,1.11638 -0.33926,1.58969 -1.35414,1.05179 -1.01489,-0.5379 -2.99376,0.008 -4.39751,1.21076 -1.98266,1.70027 -2.07931,2.64625 -0.4331,4.23869 1.76863,1.71087 1.59817,1.71163 -1.03055,0.005 -2.30261,-1.49521 -2.63978,-2.57222 -1.25365,-4.00451 2.79176,-2.88475 -0.44246,-3.84122 -4.46321,-1.31994 -2.26264,1.41883 -3.46542,3.99714 -3.46542,7.42854 0,2.89049 -0.64341,4.91445 -1.4298,4.49765 -0.78639,-0.41678 -1.42979,-0.0274 -1.42979,0.86534 0,0.89273 -0.85173,1.62315 -1.89273,1.62315 -1.041,0 -1.38185,-0.86214 -0.75745,-1.91586 0.62439,-1.05372 -0.33347,-0.52134 -2.12858,1.18307 -5.31917,5.05039 -14.71682,10.19681 -16.70028,9.14556 -1.01405,-0.53746 -1.62273,-0.0638 -1.35263,1.0526 0.27188,1.12374 -0.70559,1.80173 -2.18977,1.51889 -1.47448,-0.281 -2.06429,0.0179 -1.31068,0.66415 0.75361,0.64625 -1.1127,2.07032 -4.14734,3.16455 -3.03465,1.09423 -5.04924,2.63933 -4.47687,3.43354 1.32594,1.83984 -8.75163,8.09287 -10.6599,6.61437 -0.78389,-0.60732 -0.84671,-0.24208 -0.13959,0.81164 1.98733,2.9615 3.1694,2.49803 16.40461,-6.43211 18.575,-12.53299 30.95577,-19.51814 32.83216,-18.52364 0.92299,0.48919 11.16083,10.3564 22.75074,21.92713 11.58991,11.57073 21.72053,21.27668 22.51248,21.56877 4.42094,1.63055 12.02747,10.91397 13.91741,16.98556 1.1995,3.85349 3.42815,7.86849 4.95256,8.92221 4.27698,2.95645 14.11113,2.33442 18.17365,-1.14947 z m -14.29797,-4.78572 c 0,-2.71782 0.44109,-2.93913 2.68087,-1.34502 1.47448,1.04941 2.68087,2.51328 2.68087,3.25303 0,0.73977 -1.20639,1.34503 -2.68087,1.34503 -1.54092,0 -2.68087,-1.38324 -2.68087,-3.25304 z m -18.76608,-22.80264 c 0.60752,-0.84298 1.45925,-1.53269 1.89273,-1.53269 0.43348,0 0.78814,0.68971 0.78814,1.53269 0,0.84297 -0.85172,1.53268 -1.89272,1.53268 -1.041,0 -1.39567,-0.68971 -0.78815,-1.53268 z m -56.29824,-55.08628 c 0,-0.89273 1.46833,-1.62314 3.26295,-1.62314 4.01678,0 11.57639,-6.61146 9.71093,-8.49296 -0.74623,-0.75264 0.0701,-0.43076 1.81409,0.71529 1.74398,1.14605 3.68761,1.6406 4.31918,1.09898 0.63157,-0.5416 0.21,-0.98475 -0.93681,-0.98475 -1.14682,0 -1.88406,-0.59039 -1.63831,-1.31196 0.68735,-2.01828 -16.70365,-20.06248 -18.98638,-19.69951 -1.10757,0.17611 -1.80208,-0.79479 -1.54335,-2.15755 0.25872,-1.36276 -0.7466,-3.34391 -2.23406,-4.40255 -2.18063,-1.552 -3.28041,-1.51739 -5.67794,0.17871 -2.67074,1.88936 -2.77387,1.78215 -1.01294,-1.05308 1.67477,-2.69648 0.78453,-4.42788 -6.10755,-11.87832 -4.43745,-4.79694 -8.45983,-8.72173 -8.93861,-8.72173 -0.82742,0 6.157,9.11279 8.22299,10.72881 0.53885,0.42149 2.18613,2.13386 3.6606,3.80527 2.63806,2.99038 2.60238,2.99594 -2.23405,0.34783 -2.98871,-1.63641 -4.91493,-2.01302 -4.91493,-0.96097 0,2.15145 -10.64369,-7.45359 -10.93523,-9.86814 -0.11653,-0.96457 -0.0561,-2.70955 0.13405,-3.87773 0.22916,-1.40741 -0.67649,-1.78753 -2.6845,-1.12673 -2.35934,0.77642 -2.82664,0.32919 -2.11036,-2.01969 0.50598,-1.65931 -0.20332,-4.25597 -1.57625,-5.77036 -2.3568,-2.59966 -2.43376,-2.58224 -1.37828,0.31194 0.95582,2.62087 0.6673,2.54659 -1.98971,-0.51234 -2.04455,-2.35384 -2.50414,-4.09521 -1.34351,-5.09054 1.6818,-1.44226 3.76947,0.27415 10.80723,8.88539 1.28029,1.56652 0.87816,0.68347 -0.89363,-1.96235 -4.35984,-6.51062 -18.41299,-21.14469 -18.41299,-19.17415 0,0.86892 0.80426,2.00612 1.78725,2.52711 0.98298,0.521 1.78724,1.59627 1.78724,2.38949 0,0.79323 -1.63785,0.0377 -3.63967,-1.67904 -2.00184,-1.71672 -3.08396,-3.8924 -2.40474,-4.83488 0.67923,-0.94248 0.46742,-1.3068 -0.4707,-0.80958 -0.93813,0.49721 -2.80012,-0.60322 -4.13776,-2.44538 -2.29182,-3.1562 -2.24119,-3.21681 0.87752,-1.05038 2.39902,1.66647 2.15395,0.94505 -0.89071,-2.62202 -2.3102,-2.70659 -4.89663,-4.55202 -5.74764,-4.10096 -0.85104,0.45104 -1.32632,0.15189 -1.05623,-0.66479 0.27011,-0.81669 -6.92581,-9.31688 -15.99092,-18.88934 -15.69257,-16.57083 -32.00831,-32.702 -27.29256,-26.98377 1.54902,1.87832 1.61074,2.6822 0.20589,2.6822 -1.92953,0 -2.69173,-1.92548 -2.19424,-5.54311 0.2863,-2.08185 -4.53526,-5.69196 -8.22174,-6.15595 -1.47816,-0.18605 -3.71607,-1.59753 -4.97315,-3.13664 -1.25708,-1.53911 -5.59637,-5.81304 -9.64285,-9.49764 -4.04651,-3.68459 -7.35727,-7.30213 -7.35727,-8.03897 0,-0.73682 -2.81491,-3.89897 -6.25536,-7.02697 -3.44045,-3.128 -6.25536,-6.39819 -6.25536,-7.26707 0,-1.71298 9.09647,6.7736 18.3447,17.11474 3.18071,3.55658 6.5265,6.48784 7.43508,6.51392 0.9086,0.026 0.0213,-1.50446 -1.97197,-3.40116 -1.99317,-1.8967 -11.89793,-12.06991 -22.01058,-22.60713 -10.11264,-10.53723 -19.46712,-20.19316 -20.78774,-21.45762 -1.32059,-1.26447 -4.4507,-4.36816 -6.95578,-6.89709 l -4.55469,-4.59807 3.76947,6.00196 c 2.0732,3.30107 5.74915,7.33738 8.16876,8.96957 3.73508,2.51955 4.05185,3.34894 2.098,5.4932 -1.99811,2.1928 -1.93066,2.2779 0.51195,0.6458 2.38176,-1.59142 3.7028,-0.79758 8.61197,5.17515 5.66344,6.89038 5.68525,6.9784 0.93518,3.77416 -2.67494,-1.8044 -5.23912,-2.95865 -5.69817,-2.56496 -0.91954,0.78857 8.45094,12.20912 20.99081,25.58318 4.45051,4.74658 15.33019,16.77068 24.17705,26.72024 21.78034,24.49505 63.69351,70.04499 66.19415,71.93772 1.11371,0.84298 5.17363,4.96131 9.02205,9.15185 3.84841,4.19053 8.60563,9.2417 10.5716,11.22481 3.72603,3.75854 12.20844,13.93175 19.64368,23.55926 2.38661,3.09031 5.17615,6.06228 6.19896,6.60438 2.71451,1.4387 2.27211,8.81381 -0.75072,12.5148 -2.3765,2.90969 -2.21637,3.51346 1.78725,6.73895 3.77462,3.04101 4.39763,3.16656 4.39763,0.88628 0,-1.71741 -0.78985,-2.24973 -2.23406,-1.50565 -1.53651,0.79163 -1.47328,0.34658 0.20251,-1.42536 2.73984,-2.89705 5.95264,-2.10272 4.51252,1.11565 -0.51558,1.15221 -0.0783,2.55024 0.97167,3.10675 1.05,0.55651 1.90909,0.28142 1.90909,-0.61131 z m 20.42567,-4.03165 c 2.68317,-2.30101 3.52009,-3.72224 2.19191,-3.72224 -0.33915,0 -2.07232,1.37942 -3.8515,3.06537 -3.81159,3.61189 -2.42581,4.16037 1.65959,0.65687 z M 345.6979,376.00373 c -1.09113,-1.30579 -2.87625,-3.75357 -3.96696,-5.43952 -1.09068,-1.68596 -2.00754,-2.2417 -2.03742,-1.23498 -0.0298,1.00671 1.75523,3.45449 3.96695,5.43952 2.21172,1.98501 3.12856,2.54075 2.03743,1.23498 z m -7.84598,-9.03369 c 0,-0.71233 -1.73302,-2.60903 -3.85115,-4.21489 l -3.85116,-2.91975 3.16308,4.21489 c 3.2615,4.34602 4.53923,5.1679 4.53923,2.91975 z m 84.22852,-2.91975 c 2.22311,-2.43094 2.15989,-2.48515 -0.67478,-0.57868 -1.72022,1.15694 -3.12768,2.36394 -3.12768,2.6822 0,1.26146 1.46766,0.44955 3.80246,-2.10352 z m -93.16475,-7.28027 c -1.2237,-1.26446 -2.62705,-2.29903 -3.11854,-2.29903 -0.4915,0 0.10759,1.03457 1.3313,2.29903 1.22371,1.26447 2.62705,2.29903 3.11855,2.29903 0.49149,0 -0.1076,-1.03456 -1.33131,-2.29903 z m 14.21849,-12.26149 c 0,-0.84298 -1.57276,-3.25696 -3.49501,-5.36441 -1.92226,-2.10744 -3.49501,-3.14201 -3.49501,-2.29903 0,0.84298 1.57275,3.25696 3.49501,5.36441 1.92225,2.10744 3.49501,3.14201 3.49501,2.29903 z m -96.43179,-107.5201 c 0,-0.84298 -2.01065,-3.15255 -4.46811,-5.1324 -2.45746,-1.97985 -4.46812,-2.91001 -4.46812,-2.06703 0,0.84298 2.01066,3.15255 4.46812,5.1324 2.45746,1.97985 4.46811,2.91001 4.46811,2.06703 z m -68.12265,-69.62126 c 0.11402,-1.32827 -1.99865,-4.08711 -4.69483,-6.13075 -3.93103,-2.97964 -4.26201,-3.06271 -1.67081,-0.41933 2.41579,2.46443 2.68243,3.5873 1.05651,4.44905 -1.27217,0.67426 -3.17493,-0.0203 -4.58453,-1.67347 -1.32537,-1.55437 -2.40974,-2.08905 -2.40974,-1.18817 0,0.90088 1.20639,2.49657 2.68086,3.54598 2.06134,1.4671 3.26589,1.49166 5.21242,0.10628 2.00965,-1.43031 2.70381,-1.23202 3.36717,0.96185 0.63653,2.10516 0.88501,2.18821 1.04295,0.34856 z m -12.3034,-14.44453 c -1.22371,-1.26446 -2.62706,-2.29903 -3.11855,-2.29903 -0.49149,0 0.10759,1.03457 1.3313,2.29903 1.22371,1.26447 2.62705,2.29903 3.11855,2.29903 0.49149,0 -0.1076,-1.03456 -1.3313,-2.29903 z m -5.36174,-6.13074 c -1.22371,-1.26447 -2.62706,-2.29904 -3.11855,-2.29904 -0.49149,0 0.10759,1.03457 1.3313,2.29904 1.22371,1.26446 2.62706,2.29903 3.11855,2.29903 0.49149,0 -0.10759,-1.03457 -1.3313,-2.29903 z"
         id="path3181"
         inkscape:connector-curvature="0" />
      <path
         style="fill:#262722"
         d="m 452.50582,476.05861 c 3.65354,-0.83168 7.37467,-8.18422 6.57854,-12.9985 -0.40537,-2.45133 -2.85825,-4.49013 -7.74234,-6.43531 -9.84191,-3.91971 -13.37565,-6.8442 -17.25707,-14.28173 -1.83359,-3.5135 -6.10456,-9.2322 -9.49105,-12.70824 -3.38649,-3.47605 -11.96192,-13.18856 -19.05652,-21.58337 -13.89333,-16.43954 -17.8498,-18.73763 -16.83757,-9.77999 0.68549,6.06617 7.49698,13.44561 11.26594,12.20533 1.32697,-0.43667 1.96147,-0.16789 1.41001,0.59731 -0.55146,0.76519 1.71345,3.86097 5.03314,6.87952 3.31968,3.01856 5.21297,5.48828 4.20732,5.48828 -1.00566,0 -0.49863,1.26016 1.12673,2.80036 2.76639,2.62144 2.68998,3.01403 -1.19603,6.14477 -2.28317,1.83942 -4.82369,2.82082 -5.6456,2.18088 -0.82191,-0.63995 -0.93756,-0.33152 -0.25699,0.68538 0.68057,1.01691 2.6191,1.40505 4.30785,0.86255 2.77912,-0.89279 2.81608,-0.71311 0.38957,1.89384 -1.47448,1.58411 -1.76667,2.41055 -0.64932,1.83652 1.11735,-0.57402 3.02542,-0.0167 4.24014,1.23848 1.21473,1.25518 1.58334,2.28215 0.81913,2.28215 -0.7642,0 0.009,1.32486 1.71744,2.94411 3.05891,2.89863 3.17523,2.89316 7.5295,-0.35357 2.43243,-1.81374 3.56674,-3.54235 2.5207,-3.84136 -1.04604,-0.29903 -1.37049,-1.28104 -0.72099,-2.18227 0.74773,-1.03753 0.32272,-1.18376 -1.15863,-0.39862 -1.54806,0.82047 -1.90812,0.64133 -1.06429,-0.52953 0.70138,-0.97323 0.85394,-1.76951 0.33902,-1.76951 -0.51492,0 -1.78738,1.3639 -2.8277,3.03088 -1.54317,2.47276 -1.39019,2.86592 0.83074,2.13506 1.49723,-0.49271 2.72223,-0.13233 2.72223,0.80083 0,1.60931 -0.83624,1.95234 -5.63045,2.30974 -4.56102,0.34002 -3.13545,-6.27535 2.06248,-9.57098 3.64101,-2.3085 4.93963,-2.62556 4.22651,-1.03188 -0.59039,1.31941 0.18862,2.70134 1.82663,3.24039 1.57082,0.51691 2.41106,1.5573 1.8672,2.31193 -0.54386,0.75465 0.0457,1.3721 1.31008,1.3721 1.27273,0 0.22831,1.77568 -2.33976,3.97798 l -4.63867,3.97798 6.01973,7.67119 c 3.31085,4.21915 6.01972,9.5603 6.01972,11.86921 0,5.94816 8.20385,8.99051 18.14263,6.72809 z m -12.65528,-9.77687 c -0.0965,-1.82456 1.32303,-2.2294 6.12975,-1.74817 7.58061,0.75894 8.1851,3.92 1.34043,7.00955 -4.40509,1.98837 -5.04094,1.9537 -6.12974,-0.33422 -0.66815,-1.404 -1.27135,-3.62122 -1.34044,-4.92716 z m -12.63633,-15.25146 c 0,-0.84298 0.85172,-1.53269 1.89272,-1.53269 1.041,0 1.39567,0.68971 0.78815,1.53269 -0.60752,0.84298 -1.45925,1.53269 -1.89273,1.53269 -0.43348,0 -0.78814,-0.68971 -0.78814,-1.53269 z m -14.54255,-13.63212 c 1.72671,-0.93816 1.8267,-1.49794 0.3433,-1.92197 -1.24111,-0.35479 -0.23226,-1.98575 2.47864,-4.00712 4.59054,-3.42294 6.52012,-2.64776 2.33757,0.93906 -1.22873,1.05372 -2.33459,2.57108 -2.45746,3.37191 -0.41905,2.73116 -0.67132,2.98873 -2.90428,2.96528 -1.63597,-0.0172 -1.58183,-0.37784 0.20223,-1.34716 z m -7.8977,-6.1545 c 0.55269,-0.7669 0.44706,-2.64101 -0.23473,-4.16468 -1.10185,-2.46239 -0.92469,-2.52035 1.59386,-0.52148 1.55841,1.23684 2.47399,2.7582 2.03462,3.38078 -0.43937,0.62258 0.46584,0.71577 2.01158,0.2071 2.39162,-0.78704 2.22905,-1.35727 -1.09092,-3.82655 -3.72893,-2.77345 -4.0599,-2.7826 -7.48878,-0.2071 -3.33538,2.50527 -3.50883,2.50959 -2.4688,0.0615 0.61524,-1.44822 0.34948,-3.04077 -0.59057,-3.53901 -0.94005,-0.49823 -1.70919,-0.091 -1.70919,0.90495 0,1.38262 -0.6088,1.37752 -2.57463,-0.0216 -1.41605,-1.00784 -2.10194,-2.98899 -1.5242,-4.40255 0.82341,-2.0147 0.56021,-2.18195 -1.21786,-0.77389 -1.80614,1.43031 -1.04042,3.0641 3.75826,8.01899 6.24465,6.44791 7.79843,7.24653 9.50136,4.88359 z m -4.36844,-1.671 c 0,-0.84298 0.85173,-1.53269 1.89273,-1.53269 1.04099,0 1.39566,0.68971 0.78814,1.53269 -0.60752,0.84298 -1.45924,1.53269 -1.89272,1.53269 -0.43348,0 -0.78815,-0.68971 -0.78815,-1.53269 z m -58.97911,-5.938 c 12.15697,-7.70664 21.05886,-15.12567 12.95754,-10.79911 -2.21172,1.18118 -4.02131,2.67141 -4.02131,3.31161 0,0.64021 -1.03905,1.164 -2.30901,1.164 -1.26995,0 -6.29658,3.10072 -11.17029,6.89047 -4.87369,3.78977 -8.45914,6.86954 -7.96765,6.84394 0.4915,-0.0256 6.12132,-3.36049 12.51072,-7.41091 z m 51.10632,-9.74563 c 2.77169,-2.78589 2.82319,-3.03597 0.277,-1.34501 -1.72023,1.1424 -3.18922,1.47538 -3.26443,0.73992 -0.0752,-0.73545 -0.40673,-2.54745 -0.73673,-4.02668 -0.32999,-1.47923 0.14679,-2.29371 1.05953,-1.80995 0.91272,0.48375 1.11999,1.62816 0.46058,2.54314 -0.76832,1.06611 -0.35364,1.21559 1.1546,0.41622 1.83732,-0.97381 1.56832,-1.79263 -1.22646,-3.73338 -1.96898,-1.3673 -3.37709,-3.67137 -3.12913,-5.12019 0.24796,-1.4488 -0.48333,-2.64474 -1.62509,-2.65765 -1.34163,-0.0153 -1.23268,-0.48186 0.308,-1.3194 1.90793,-1.03717 1.80018,-1.48801 -0.53964,-2.258 -1.60795,-0.52914 -2.51123,-0.38996 -2.00728,0.30932 0.98642,1.36872 -8.35746,7.88961 -11.30515,7.88961 -0.98068,0 2.08614,3.10369 6.81515,6.89709 4.729,3.7934 8.99333,6.89709 9.47628,6.89709 0.48295,0 2.41019,-1.53996 4.28277,-3.42213 z m -11.94804,-12.27939 c 2.32516,-1.90139 3.66728,-2.59493 2.98249,-1.54121 -0.71375,1.0983 -0.2467,1.92587 1.09446,1.93933 1.74763,0.0175 1.68286,0.37972 -0.256,1.43156 -1.42754,0.77445 -3.36139,1.00218 -4.29744,0.50606 -0.93606,-0.49611 -1.14976,-0.13595 -0.47491,0.80054 0.67485,0.93641 2.34561,1.33445 3.71279,0.88453 1.65452,-0.54447 2.30757,0.11863 1.95284,1.9828 -0.29313,1.54045 0.74011,4.18024 2.2961,5.8662 1.55598,1.68595 -0.33601,0.48279 -4.20441,-2.67369 l -7.03347,-5.73907 4.22755,-3.45705 z m -13.24321,4.97271 c -0.60752,-0.84297 -1.86138,-1.53268 -2.78635,-1.53268 -0.92497,0 -1.68177,0.68971 -1.68177,1.53268 0,0.84298 1.25386,1.53269 2.78635,1.53269 1.53249,0 2.28929,-0.68971 1.68177,-1.53269 z m 34.18976,-22.7402 c 3.06607,-2.245 12.06275,-8.54772 19.99262,-14.00603 7.92987,-5.4583 14.08318,-10.21128 13.67402,-10.56216 -0.76987,-0.66021 -13.78453,7.88978 -23.17526,15.22501 -2.94896,2.30347 -8.3094,5.51825 -11.9121,7.14397 -3.75415,1.69405 -6.03887,3.66556 -5.35216,4.61844 0.76805,1.06572 3.19952,0.19722 6.77288,-2.41923 z M 284.23455,289.40749 c 0,-0.62435 -1.72249,-3.20966 -3.82778,-5.74515 -3.15452,-3.79914 -3.3903,-4.84754 -1.34043,-5.9607 1.98561,-1.07828 1.85643,-1.35548 -0.64034,-1.37422 -1.72022,-0.0123 -3.12768,-0.75388 -3.12768,-1.64661 0,-0.89273 -0.71313,-1.24517 -1.58473,-0.78322 -1.94708,1.03196 -6.52363,-3.41256 -4.92531,-4.78321 0.63156,-0.54162 1.14831,-0.18009 1.14831,0.80337 0,0.98348 0.94445,1.78814 2.09878,1.78814 1.15434,0 0.35571,-1.59116 -1.77474,-3.53591 -3.11935,-2.84748 -3.44098,-3.93569 -1.65197,-5.58925 1.8024,-1.66595 1.71576,-1.80218 -0.45932,-0.72208 -4.47119,2.2203 -7.49871,2.11073 -6.44978,-0.23343 0.57092,-1.2759 -0.11331,-2.18083 -1.64891,-2.18083 -1.44363,0 -2.62478,-0.6897 -2.62478,-1.53268 0,-0.84298 -0.88324,-1.53269 -1.96276,-1.53269 -1.11477,0 -0.53567,1.90433 1.34044,4.40782 4.68751,6.25508 27.431,29.98493 27.431,28.62065 z"
         id="path3179"
         inkscape:connector-curvature="0" />
    </g>
  </g>
</svg>
