<?xml version="1.0" encoding="UTF-8" standalone="no"?>
<svg
   xmlns:dc="http://purl.org/dc/elements/1.1/"
   xmlns:cc="http://creativecommons.org/ns#"
   xmlns:rdf="http://www.w3.org/1999/02/22-rdf-syntax-ns#"
   xmlns:svg="http://www.w3.org/2000/svg"
   xmlns="http://www.w3.org/2000/svg"
   xmlns:xlink="http://www.w3.org/1999/xlink"
   xmlns:sodipodi="http://sodipodi.sourceforge.net/DTD/sodipodi-0.dtd"
   xmlns:inkscape="http://www.inkscape.org/namespaces/inkscape"
   viewBox="0 0 512 512"
   id="svg2"
   version="1.1"
   inkscape:version="0.48.4 r9939"
   width="100%"
   height="100%"
   sodipodi:docname="greaves.svg">
  <metadata
     id="metadata48">
    <rdf:RDF>
      <cc:Work
         rdf:about="">
        <dc:format>image/svg+xml</dc:format>
        <dc:type
           rdf:resource="http://purl.org/dc/dcmitype/StillImage" />
        <dc:title></dc:title>
      </cc:Work>
    </rdf:RDF>
  </metadata>
  <defs
     id="defs46">
    <linearGradient
       inkscape:collect="always"
       id="linearGradient3148">
      <stop
         style="stop-color:#aa4400;stop-opacity:1;"
         offset="0"
         id="stop3150" />
      <stop
         style="stop-color:#aa4400;stop-opacity:0;"
         offset="1"
         id="stop3152" />
    </linearGradient>
    <linearGradient
       inkscape:collect="always"
       id="linearGradient3124">
      <stop
         style="stop-color:#aa4400;stop-opacity:1;"
         offset="0"
         id="stop3126" />
      <stop
         style="stop-color:#aa4400;stop-opacity:0;"
         offset="1"
         id="stop3128" />
    </linearGradient>
    <linearGradient
       inkscape:collect="always"
       id="linearGradient3116">
      <stop
         style="stop-color:#803300;stop-opacity:1;"
         offset="0"
         id="stop3118" />
      <stop
         style="stop-color:#803300;stop-opacity:0;"
         offset="1"
         id="stop3120" />
    </linearGradient>
    <linearGradient
       inkscape:collect="always"
       id="linearGradient3108">
      <stop
         style="stop-color:#803300;stop-opacity:1;"
         offset="0"
         id="stop3110" />
      <stop
         style="stop-color:#803300;stop-opacity:0;"
         offset="1"
         id="stop3112" />
    </linearGradient>
    <linearGradient
       inkscape:collect="always"
       xlink:href="#linearGradient3108"
       id="linearGradient3114"
       x1="158.37288"
       y1="243.52542"
       x2="268.47458"
       y2="262.50848"
       gradientUnits="userSpaceOnUse" />
    <linearGradient
       inkscape:collect="always"
       xlink:href="#linearGradient3116"
       id="linearGradient3122"
       x1="397.01694"
       y1="246.77966"
       x2="471.86441"
       y2="247.86441"
       gradientUnits="userSpaceOnUse" />
    <linearGradient
       inkscape:collect="always"
       xlink:href="#linearGradient3124"
       id="linearGradient3130"
       x1="381.28815"
       y1="86.237289"
       x2="450.71185"
       y2="30.915255"
       gradientUnits="userSpaceOnUse" />
    <linearGradient
       inkscape:collect="always"
       xlink:href="#linearGradient3148"
       id="linearGradient3154"
       x1="169.22034"
       y1="74.847458"
       x2="235.93221"
       y2="49.898304"
       gradientUnits="userSpaceOnUse" />
  </defs>
  <sodipodi:namedview
     pagecolor="#ffffff"
     bordercolor="#666666"
     borderopacity="1"
     objecttolerance="10"
     gridtolerance="10"
     guidetolerance="10"
     inkscape:pageopacity="0"
     inkscape:pageshadow="2"
     inkscape:window-width="2560"
     inkscape:window-height="1378"
     id="namedview44"
     showgrid="false"
     inkscape:zoom="1.84375"
     inkscape:cx="221.75275"
     inkscape:cy="249.93035"
     inkscape:window-x="-8"
     inkscape:window-y="-8"
     inkscape:window-maximized="1"
     inkscape:current-layer="svg2" />
  <path
     d="m0,0h512v512h-512z"
     id="path4" />
  <path
     style="fill:url(#linearGradient3122);stroke:#000000;fill-opacity:1"
     d="m 304,125.27 c -32,96 32,256 32,352 32,16 64,18.539 96,0 0,-96 32,-256 0,-352 z"
     id="path10"
     inkscape:connector-curvature="0" />
  <path
     d="m 288,125.27 80,32 73.45,-32 c 0,-64 -41.45,-96 -73.45,-96 -32,0 -80,32 -80,96 z"
     id="path12"
     inkscape:connector-curvature="0"
     style="fill:url(#linearGradient3130);stroke:#000000;stroke-width:16;fill-opacity:1" />
  <g
     style="fill:none;stroke:#000000;stroke-width:16"
     id="g14">
    <path
       inkscape:connector-curvature="0"
       id="path16"
       d="m 304,285.27 c 42.39,46.32 87.78,75.884 134.86,96" />
    <path
       inkscape:connector-curvature="0"
       id="path18"
       d="m 448,285.27 c -41.11,33.31 -65.27,80.977 -128,96" />
    <path
       inkscape:connector-curvature="0"
       id="path20"
       d="m 320,381.27 c 28.813,43.36 72.865,66.4 112,96" />
    <path
       inkscape:connector-curvature="0"
       id="path22"
       d="m 336,477.27 c 41.07,-26.4 80.87,-53.938 104.44,-96" />
    <path
       inkscape:connector-curvature="0"
       id="path24"
       d="m 297.78,285.27 c 50.45,7.884 100.7,11.652 150.22,0" />
  </g>
  <path
     style="fill:url(#linearGradient3114);stroke:#000000;fill-opacity:1"
     d="m 208,125.27 c 32,96 -32,256 -32,352 -32,16 -64,18.539 -96,0 0,-96 -32,-256 0,-352 z"
     id="path28"
     inkscape:connector-curvature="0" />
  <path
     d="m 224,125.27 -80,32 -73.45,-32 c 0,-64 41.45,-96 73.45,-96 32,0 80,32 80,96 z"
     id="path30"
     inkscape:connector-curvature="0"
     style="fill:url(#linearGradient3154);stroke:#000000;stroke-width:16;fill-opacity:1" />
  <path
     style="fill:#552200;stroke:#000000;stroke-width:16"
     d="m 208,285.27 c -42.39,46.32 -87.78,75.884 -134.86,96"
     id="path34"
     inkscape:connector-curvature="0" />
  <path
     style="fill:none;stroke:#000000;stroke-width:16"
     d="m 64,285.27 c 41.11,33.31 65.27,80.977 128,96"
     id="path36"
     inkscape:connector-curvature="0" />
  <path
     style="fill:none;stroke:#000000;stroke-width:16"
     d="m 192,381.27 c -28.813,43.36 -72.865,66.4 -112,96"
     id="path38"
     inkscape:connector-curvature="0" />
  <path
     style="fill:none;stroke:#000000;stroke-width:16"
     d="m 176,477.27 c -41.07,-26.4 -80.87,-53.938 -104.44,-96"
     id="path40"
     inkscape:connector-curvature="0" />
  <path
     style="fill:none;stroke:#000000;stroke-width:16"
     d="m 214.22,285.27 c -50.45,7.884 -100.7,11.652 -150.22,0"
     id="path42"
     inkscape:connector-curvature="0" />
</svg>
