<svg xmlns="http://www.w3.org/2000/svg" viewBox="0 0 512 512"><path d="m0,0h512v512h-512z"/><g stroke="#000"><g fill="#fff"><path d="m304 125.27c-32 96 32 256 32 352 32 16 64 18.539 96 0 0-96 32-256 0-352z"/><path d="m288 125.27l80 32 73.45-32c0-64-41.45-96-73.45-96-32 0-80 32-80 96z" stroke-width="16"/></g><g stroke-width="16" fill="none"><path d="m304 285.27c42.39 46.32 87.78 75.884 134.86 96"/><path d="m448 285.27c-41.11 33.31-65.27 80.977-128 96"/><path d="m320 381.27c28.813 43.36 72.865 66.4 112 96"/><path d="m336 477.27c41.07-26.4 80.87-53.938 104.44-96"/><path d="m297.78 285.27c50.45 7.884 100.7 11.652 150.22 0"/></g><g fill="#fff"><path d="m208 125.27c32 96-32 256-32 352-32 16-64 18.539-96 0 0-96-32-256 0-352z"/><path d="m224 125.27l-80 32-73.45-32c0-64 41.45-96 73.45-96 32 0 80 32 80 96z" stroke-width="16"/></g><g stroke-width="16" fill="none"><path d="m208 285.27c-42.39 46.32-87.78 75.884-134.86 96"/><path d="m64 285.27c41.11 33.31 65.27 80.977 128 96"/><path d="m192 381.27c-28.813 43.36-72.865 66.4-112 96"/><path d="m176 477.27c-41.07-26.4-80.87-53.938-104.44-96"/><path d="m214.22 285.27c-50.45 7.884-100.7 11.652-150.22 0"/></g></g></svg>