<?xml version="1.0" encoding="UTF-8" standalone="no"?>
<svg
   xmlns:dc="http://purl.org/dc/elements/1.1/"
   xmlns:cc="http://creativecommons.org/ns#"
   xmlns:rdf="http://www.w3.org/1999/02/22-rdf-syntax-ns#"
   xmlns:svg="http://www.w3.org/2000/svg"
   xmlns="http://www.w3.org/2000/svg"
   xmlns:xlink="http://www.w3.org/1999/xlink"
   xmlns:sodipodi="http://sodipodi.sourceforge.net/DTD/sodipodi-0.dtd"
   xmlns:inkscape="http://www.inkscape.org/namespaces/inkscape"
   viewBox="0 0 512 512"
   id="svg3056"
   version="1.1"
   inkscape:version="0.48.5 r10040"
   width="100%"
   height="100%"
   sodipodi:docname="wooden sword.svg">
  <metadata
     id="metadata3078">
    <rdf:RDF>
      <cc:Work
         rdf:about="">
        <dc:format>image/svg+xml</dc:format>
        <dc:type
           rdf:resource="http://purl.org/dc/dcmitype/StillImage" />
        <dc:title></dc:title>
      </cc:Work>
    </rdf:RDF>
  </metadata>
  <defs
     id="defs3076">
    <linearGradient
       inkscape:collect="always"
       id="linearGradient3764">
      <stop
         style="stop-color:#d45500;stop-opacity:1;"
         offset="0"
         id="stop3766" />
      <stop
         style="stop-color:#d45500;stop-opacity:0;"
         offset="1"
         id="stop3768" />
    </linearGradient>
    <linearGradient
       inkscape:collect="always"
       xlink:href="#linearGradient3764"
       id="linearGradient3770"
       x1="362.88068"
       y1="294.54373"
       x2="186.85283"
       y2="114.47592"
       gradientUnits="userSpaceOnUse" />
    <linearGradient
       inkscape:collect="always"
       xlink:href="#linearGradient3764"
       id="linearGradient5735"
       gradientUnits="userSpaceOnUse"
       x1="362.88068"
       y1="294.54373"
       x2="186.85283"
       y2="114.47592" />
  </defs>
  <sodipodi:namedview
     pagecolor="#ffffff"
     bordercolor="#666666"
     borderopacity="1"
     objecttolerance="10"
     gridtolerance="10"
     guidetolerance="10"
     inkscape:pageopacity="0"
     inkscape:pageshadow="2"
     inkscape:window-width="1280"
     inkscape:window-height="476"
     id="namedview3074"
     showgrid="false"
     inkscape:zoom="0.5"
     inkscape:cx="386.1145"
     inkscape:cy="253.38565"
     inkscape:window-x="14"
     inkscape:window-y="0"
     inkscape:window-maximized="0"
     inkscape:current-layer="svg3056" />
  <g
     id="g5727"
     transform="matrix(0,-1,1,0,0,512)">
    <path
       inkscape:connector-curvature="0"
       id="path3058"
       d="M 512,512 512,0 0,0 0,512 z" />
    <path
       d="M 196.9047,401.15833 113.38917,317.64281 403.64524,27.386734 h 78.25843 V 116.15749 L 196.90283,401.15833 z"
       id="path3062"
       inkscape:connector-curvature="0"
       style="fill:url(#linearGradient5735);fill-opacity:1" />
    <path
       style="fill:#803300;stroke:#000000;stroke-width:18.68866539"
       inkscape:connector-curvature="0"
       id="path3066"
       d="M 57.985024,288.26524 227.18837,457.46859 254.85769,429.79927 85.654344,260.59592 z" />
    <path
       style="fill:#803300"
       inkscape:connector-curvature="0"
       id="path3068"
       d="M 48.628888,507.86486 C 28.009707,501.51247 15.122554,488.13372 9.1917154,468.42769 36.054928,456.93339 61.157917,440.1267 82.614921,418.66441 104.07193,397.20212 121.43099,371.55996 133.15788,344.46153 l 39.43717,39.43717 C 118.54222,407.02871 71.760217,453.81071 48.628888,507.86486 z" />
    <path
       d="M 361.09882,22.978098 H 489.9435 V 164.21143"
       id="path3070"
       inkscape:connector-curvature="0"
       style="fill:none;stroke:#000000;stroke-width:18.68857956" />
    <path
       sodipodi:nodetypes="cccccccccccccccccccc"
       style="fill:#552200"
       d="m 180.94008,341.6184 -12.03648,-7.43246 0.41302,0.41115 60.70424,-59.87821 61.94517,-61.94517 61.53215,-62.35819 61.9433,-61.11539 38.49172,-56.290182 27.76984,-0.514422 -0.59924,60.518025 -52.44763,9.501279 -9.49753,52.44389 -52.03275,9.08452 -9.4994,52.4495 -52.44577,9.49566 -9.4994,52.44764 -52.44576,9.49566 -9.08452,52.03462 -44.00659,9.32054 z"
       id="path3072"
       inkscape:connector-curvature="0" />
  </g>
</svg>
