<?xml version="1.0" encoding="UTF-8" standalone="no"?>
<svg
   xmlns:dc="http://purl.org/dc/elements/1.1/"
   xmlns:cc="http://creativecommons.org/ns#"
   xmlns:rdf="http://www.w3.org/1999/02/22-rdf-syntax-ns#"
   xmlns:svg="http://www.w3.org/2000/svg"
   xmlns="http://www.w3.org/2000/svg"
   xmlns:sodipodi="http://sodipodi.sourceforge.net/DTD/sodipodi-0.dtd"
   xmlns:inkscape="http://www.inkscape.org/namespaces/inkscape"
   sodipodi:docname="cardboard sword.svg"
   height="100%"
   width="100%"
   inkscape:version="0.48.4 r9939"
   version="1.1"
   id="svg8438"
   viewBox="0 0 512 512">
  <metadata
     id="metadata8464">
    <rdf:RDF>
      <cc:Work
         rdf:about="">
        <dc:format>image/svg+xml</dc:format>
        <dc:type
           rdf:resource="http://purl.org/dc/dcmitype/StillImage" />
        <dc:title></dc:title>
      </cc:Work>
    </rdf:RDF>
  </metadata>
  <defs
     id="defs8462">
    <linearGradient
       id="linearGradient4077">
      <stop
         id="stop4079"
         offset="0"
         style="stop-color:#aa4400;stop-opacity:1;" />
      <stop
         style="stop-color:#ff9f00;stop-opacity:1;"
         offset="0.22752622"
         id="stop4081" />
      <stop
         style="stop-color:#803300;stop-opacity:1;"
         offset="0.4948855"
         id="stop4083" />
      <stop
         id="stop4085"
         offset="1"
         style="stop-color:#562200;stop-opacity:1;" />
    </linearGradient>
    <linearGradient
       id="linearGradient4057">
      <stop
         style="stop-color:#aa4400;stop-opacity:1;"
         offset="0"
         id="stop4059" />
      <stop
         id="stop4067"
         offset="0.22752622"
         style="stop-color:#ecd1a4;stop-opacity:1;" />
      <stop
         id="stop4065"
         offset="0.50136983"
         style="stop-color:#803300;stop-opacity:1;" />
      <stop
         style="stop-color:#562200;stop-opacity:1;"
         offset="1"
         id="stop4061" />
    </linearGradient>
    <linearGradient
       id="linearGradient3890">
      <stop
         style="stop-color:#701b1b;stop-opacity:1;"
         offset="0"
         id="stop3892" />
      <stop
         style="stop-color:#e31600;stop-opacity:1;"
         offset="1"
         id="stop3894" />
    </linearGradient>
    <linearGradient
       id="linearGradient3882">
      <stop
         style="stop-color:#600b0b;stop-opacity:1;"
         offset="0"
         id="stop3884" />
      <stop
         style="stop-color:#d11414;stop-opacity:1;"
         offset="1"
         id="stop3886" />
    </linearGradient>
    <linearGradient
       id="linearGradient3872">
      <stop
         style="stop-color:#800600;stop-opacity:1;"
         offset="0"
         id="stop3874" />
      <stop
         style="stop-color:#ff0004;stop-opacity:0;"
         offset="1"
         id="stop3876" />
    </linearGradient>
    <filter
       id="filter4074"
       inkscape:label="Black Light"
       inkscape:menu="Color"
       inkscape:menu-tooltip="Light areas turn to black"
       x="0"
       width="1"
       y="0"
       height="1"
       color-interpolation-filters="sRGB">
      <feColorMatrix
         id="feColorMatrix4076"
         type="luminanceToAlpha"
         result="result2" />
      <feComposite
         in2="SourceGraphic"
         id="feComposite4078"
         operator="arithmetic"
         in="result2"
         k3="2"
         result="result4" />
      <feBlend
         in2="result2"
         id="feBlend4080"
         in="result4"
         mode="multiply"
         result="result3" />
      <feComposite
         in2="SourceGraphic"
         id="feComposite4082"
         operator="in"
         in="result3" />
    </filter>
  </defs>
  <sodipodi:namedview
     pagecolor="#000000"
     bordercolor="#666666"
     borderopacity="1"
     objecttolerance="10"
     gridtolerance="10"
     guidetolerance="10"
     inkscape:pageopacity="0"
     inkscape:pageshadow="2"
     inkscape:window-width="1190"
     inkscape:window-height="1126"
     id="namedview8460"
     showgrid="false"
     inkscape:zoom="0.70710678"
     inkscape:cx="106.10373"
     inkscape:cy="388.70509"
     inkscape:window-x="99"
     inkscape:window-y="140"
     inkscape:window-maximized="0"
     inkscape:current-layer="svg8438"
     showguides="true"
     inkscape:guide-bbox="true"
     inkscape:snap-midpoints="true" />
  <path
     style="fill:#000000"
     id="path3978"
     d="M -13.466093,0.1885736 H 514.89024 V 516.42957 H -13.466093 z"
     inkscape:connector-curvature="0" />
  <path
     sodipodi:type="arc"
     style="opacity:0.98999999;fill:#ff0000;fill-opacity:0.74970506;fill-rule:nonzero;stroke:none"
     id="path5005"
     sodipodi:cx="640"
     sodipodi:cy="124.5"
     sodipodi:rx="105"
     sodipodi:ry="118.5"
     d="m 743.4676,104.32865 a 105,118.5 0 0 1 0.002,0.0163 L 640,124.5 z"
     sodipodi:start="6.11213"
     sodipodi:end="6.1122693" />
  <g
     id="g6448" />
  <g
     id="g7669"
     transform="matrix(-2.2329886,0,0,2.9557812,818.94402,-509.05686)">
    <path
       style="fill:#faca8e"
       d="m 219.13097,338.39305 c -3.69226,-1.08503 -6.63746,-3.79367 -8.73921,-8.03728 -2.67032,-5.39159 -12.70803,-20.5 -13.61977,-20.5 -0.37156,0 -7.67842,3.42352 -16.23745,7.60783 -24.56507,12.00928 -24.1402,11.83254 -25.85097,10.75341 -0.84934,-0.53575 -2.77862,-3.38727 -4.28728,-6.33672 -2.73957,-5.35589 -3.00281,-9.86296 -0.82541,-14.13238 0.83171,-1.63082 16.6452,-12.63263 27.15178,-18.89013 3.1625,-1.88352 5.75,-3.70236 5.75,-4.04185 0,-0.93767 -6.34436,-10.41274 -7.22715,-10.79349 -0.42507,-0.18334 -0.77285,-0.78887 -0.77285,-1.34563 0,-0.55677 -1.0125,-2.42543 -2.25,-4.15259 -4.49116,-6.26826 -5.05611,-7.97145 -3.11495,-9.39086 0.96096,-0.70267 2.5612,-1.27759 3.55608,-1.27759 0.99488,0 1.80887,-0.41047 1.80887,-0.91216 0,-1.38294 12.01811,-9.29487 13.34522,-8.78561 0.63747,0.24462 3.63308,4.32766 6.65691,9.07342 5.14833,8.08006 5.68175,8.5965 8.39015,8.12304 1.59076,-0.27808 3.39076,-1.14394 4,-1.92413 0.60925,-0.78018 3.41726,-2.69113 6.24002,-4.24654 10.08862,-5.55907 39.55817,-23.39783 40.3677,-24.43571 0.275,-0.35258 1.96194,-0.95821 3.74876,-1.34586 1.78681,-0.38765 3.81181,-1.48694 4.5,-2.44288 0.68818,-0.95593 2.82624,-2.6078 4.75124,-3.67081 1.925,-1.06302 3.725,-2.20961 4,-2.54798 0.275,-0.33837 1.625,-0.96604 3,-1.39483 1.375,-0.42878 7.225,-4.03515 13,-8.01414 5.775,-3.979 12.975,-8.5034 16,-10.05424 3.025,-1.55084 5.725,-3.08931 6,-3.41882 1.38173,-1.65561 7.00475,-5.00275 8.40437,-5.00275 0.8776,0 1.59563,-0.44242 1.59563,-0.98315 0,-0.54074 2.3625,-2.16538 5.25,-3.61031 2.8875,-1.44494 6.15,-3.41447 7.25,-4.37674 1.98972,-1.74058 5.94196,-3.04979 16.57103,-5.48927 3.06407,-0.70323 6.43907,-1.72415 7.5,-2.26871 1.06093,-0.54457 3.45374,-1.2797 5.31734,-1.63364 l 3.38837,-0.64353 -0.67654,6.60344 c -0.4649,4.53765 -1.7546,8.74417 -4.12262,13.44642 -3.7604,7.46716 -3.69539,7.41299 -36.8307,30.69159 -7.23078,5.07985 -15.39688,10.83536 -18.14688,12.79003 -2.75,1.95467 -7.25,5.08749 -10,6.96183 -2.75,1.87433 -7.7,5.43618 -11,7.9152 -15.21393,11.42901 -29.42552,21.81654 -40.93922,29.92327 -6.89472,4.85454 -13.4064,9.93315 -14.4704,11.2858 -1.9276,2.45055 -1.92491,2.47985 0.75128,8.17357 1.47721,3.14281 4.14214,8.51387 5.92208,11.93568 1.77994,3.42182 3.23626,7.49604 3.23626,9.05384 0,3.35046 -4.49159,8.03454 -10.5,10.94999 -3.40583,1.65261 -4.57066,1.77322 -7.84169,0.81197 z"
       id="path7685"
       inkscape:connector-curvature="0" />
    <path
       style="fill:#fbc27b"
       d="m 218.83686,338.1705 c -4.06842,-1.38237 -6.68592,-4.6228 -13.34762,-16.52417 -2.94361,-5.25888 -7.52668,-11.71798 -8.3401,-11.75405 -0.45293,-0.0201 -5.62794,2.26578 -11.5,5.0797 -5.87206,2.81391 -14.88341,7.12 -20.02522,9.56909 -5.1418,2.4491 -9.96101,4.21795 -10.70934,3.93079 -0.74834,-0.28717 -2.58102,-2.90576 -4.07264,-5.8191 -4.14204,-8.09 -3.00633,-14.52776 3.27342,-18.55536 1.93666,-1.2421 4.04682,-1.95746 4.68925,-1.58968 0.64243,0.36779 0.85423,0.32024 0.47067,-0.10567 -0.85451,-0.94885 8.82745,-8.33373 16.81034,-12.82201 3.23115,-1.81668 6.01863,-4.04979 6.1944,-4.96248 0.17577,-0.91269 -1.31198,-4.20997 -3.30611,-7.32729 -3.75016,-5.86244 -4.16788,-9.98485 -0.73942,-7.29712 1.57274,1.23294 1.60755,1.19607 0.36572,-0.38738 -1.60381,-2.04502 -3.72993,-2.28102 -4.50453,-0.5 -0.29901,0.6875 -0.30011,-0.1 -0.002,-1.75 0.42304,-2.34501 0.30106,-2.67251 -0.55869,-1.5 -0.9553,1.30281 -1.29009,1.23709 -2.54678,-0.5 -0.79579,-1.1 -1.96488,-2.59986 -2.59797,-3.33302 -0.86733,-1.00442 -0.86767,-1.61644 -0.001,-2.48275 0.86631,-0.86631 1.29366,-0.59934 1.73361,1.08302 0.32123,1.22801 0.96736,2.23275 1.43596,2.23275 0.46859,0 0.62718,0.7875 0.35243,1.75 -0.27474,0.9625 0.0483,0.70345 0.71797,-0.57567 0.98923,-1.88962 0.95341,-2.48889 -0.19104,-3.19621 -1.13856,-0.70366 -1.03056,-1.01442 0.56341,-1.62116 1.08459,-0.41285 2.79214,-1.78706 3.79456,-3.0538 1.00242,-1.26674 2.32593,-2.30316 2.94113,-2.30316 0.6152,0 0.24504,0.66069 -0.82258,1.4682 -1.69806,1.28434 -1.72938,1.47218 -0.25015,1.5 0.93004,0.0175 1.9691,-0.4182 2.30902,-0.9682 0.94591,-1.53052 3.5,-1.18855 3.5,0.46861 0,0.96231 0.57699,1.24721 1.67361,0.8264 1.22047,-0.46834 1.0851,-0.0537 -0.5,1.53138 -1.19549,1.19549 -2.57861,2.06111 -3.07361,1.92361 -0.90832,-0.25231 -1.11264,0.21859 -1.08469,2.5 0.0117,0.95322 0.19588,0.96598 0.77581,0.0537 0.41827,-0.65795 2.63191,-1.30669 4.91921,-1.44165 3.33727,-0.19691 4.58357,0.23691 6.30959,2.19627 1.18298,1.3429 0.87876,0.57226 -0.67605,-1.71255 -1.55481,-2.28476 -4.06694,-4.98476 -5.58252,-5.99996 -3.08253,-2.0648 -3.54287,-3.34581 -1.20233,-3.34581 0.85746,0 1.29304,-0.43035 0.96797,-0.95633 -0.32507,-0.52598 -1.25163,-0.70283 -2.05901,-0.39301 -2.22391,0.85339 -1.75604,-0.98967 0.6294,-2.4794 1.15356,-0.72041 2.21223,-1.16616 2.35261,-0.99055 3.14261,3.93128 12.27761,18.75836 11.83176,19.20421 -0.3383,0.33829 0.10836,0.61508 0.99257,0.61508 0.8842,0 1.87361,-0.43035 2.19869,-0.95633 0.32507,-0.52598 1.24784,-0.70429 2.05059,-0.39624 0.81606,0.31315 1.73086,-0.14698 2.07496,-1.04368 0.33848,-0.88206 1.24227,-1.60375 2.00843,-1.60375 0.76615,0 1.39301,-0.47656 1.39301,-1.05902 0,-0.58246 0.46979,-0.76867 1.04398,-0.4138 0.57418,0.35487 2.13335,-0.0686 3.46481,-0.94098 1.33146,-0.87241 3.51353,-1.5862 4.84904,-1.5862 1.3355,0 2.66647,-0.62095 2.95771,-1.37989 0.39981,-1.04191 1.53793,-1.19549 4.64663,-0.62703 4.91353,0.8985 4.85667,0.85113 5.62363,4.68593 0.44926,2.24627 0.19253,3.19208 -0.98958,3.64569 -1.16183,0.44584 -1.60482,0.009 -1.62782,-1.60608 -0.0303,-2.12975 -0.13181,-2.10468 -2.53313,0.62566 -1.37584,1.56435 -3.04912,2.64178 -3.7184,2.3943 -0.66928,-0.24749 -2.79187,0.12585 -4.71687,0.82964 l -3.5,1.27962 4.35699,0.0761 c 3.72747,0.0651 4.25858,0.32893 3.67591,1.82608 -1.2592,3.23544 -1.04386,3.75104 1.4671,3.51274 2.25641,-0.21415 2.3178,-0.12969 0.63002,0.86683 -1.36658,0.80688 -1.53974,1.30819 -0.64323,1.86226 0.80708,0.49881 0.87275,0.97694 0.19197,1.39769 -0.56912,0.35174 -1.28714,-0.15563 -1.59559,-1.12747 -0.30845,-0.97185 -1.45339,-2.32442 -2.5443,-3.0057 -2.5605,-1.59908 -7.03887,0.24865 -7.03887,2.90415 0,1.01171 -0.45,1.83948 -1,1.83948 -2.07428,0 -0.90044,2.00603 1.25,2.13618 l 2.25,0.13618 -2.25,0.43337 c -1.2375,0.23836 -2.25,0.85207 -2.25,1.36382 0,0.51175 -1.15714,0.93045 -2.57143,0.93045 -3.60348,0 -5.31448,1.95046 -3.94753,4.5 0.58977,1.1 1.6228,2.1125 2.29563,2.25 1.74943,0.35752 1.51605,-1.42369 -0.27667,-2.11163 -1.70988,-0.65614 -2.04119,-2.63837 -0.44098,-2.63837 0.58246,0 0.81252,0.39884 0.51124,0.88631 -0.30127,0.48747 0.40068,1.13434 1.5599,1.43748 2.18652,0.57178 9.29811,-3.25632 11.58804,-6.23773 0.67,-0.87233 1.2325,-1.21792 1.25,-0.76797 0.0175,0.44996 1.37355,-0.13731 3.01346,-1.30503 1.63991,-1.16772 2.87741,-2.60461 2.75,-3.19309 -0.12741,-0.58848 0.39348,-1.2971 1.15754,-1.5747 0.92959,-0.33775 1.15319,-0.0483 0.67584,0.875 -0.39235,0.75885 0.0106,0.48489 0.89546,-0.6088 0.88485,-1.09369 2.18603,-1.99369 2.89151,-2 0.70548,-0.006 2.07203,-0.79897 3.03677,-1.76147 0.96474,-0.9625 2.18777,-1.75 2.71783,-1.75 0.58396,0 0.54345,-0.78535 -0.10278,-1.99285 -0.98669,-1.84363 -0.88322,-1.90932 1.38193,-0.87725 2.11942,0.96568 3.26736,0.61816 8.54173,-2.58585 3.52627,-2.1421 5.81315,-4.15468 5.42838,-4.77726 -0.39472,-0.63866 -0.1955,-0.78571 0.49026,-0.36189 1.04782,0.64759 16.18314,-8.84575 16.9872,-10.6549 0.18334,-0.4125 1.01898,-0.75 1.85699,-0.75 0.93501,0 1.30404,-0.57232 0.9552,-1.48138 -0.40929,-1.06658 0.0508,-1.4166 1.64301,-1.25 1.38966,0.1454 2.10936,-0.26075 1.93669,-1.09295 -0.15112,-0.72838 0.19418,-1.0345 0.76734,-0.68027 1.03294,0.63839 9.44471,-6.07331 10.02062,-7.9954 0.1648,-0.55 1.69175,-1.47195 3.39322,-2.04877 1.70148,-0.57682 2.96995,-1.62277 2.81882,-2.32433 -0.15112,-0.70156 0.18117,-0.99377 0.73843,-0.64937 1.55378,0.96029 8.23282,-4.71996 6.74461,-5.73601 -0.86092,-0.58778 -0.77705,-0.74314 0.29174,-0.54045 1.44118,0.2733 16,-10.59454 16,-11.94366 0,-0.36158 -0.54,-0.11741 -1.2,0.54259 -0.66,0.66 -1.6725,1.19311 -2.25,1.18469 -0.5775,-0.008 -0.375,-0.45843 0.45,-1 1.33333,-0.87528 1.33333,-1.10628 0,-2.07902 -1.21608,-0.8872 -1.12144,-0.96368 0.5,-0.40407 1.1,0.37965 2.5625,0.92024 3.25,1.20132 1.10424,0.45146 1.69608,-0.79914 1.38042,-2.91693 -0.0585,-0.39271 0.4516,-0.49988 1.13363,-0.23816 0.68204,0.26172 1.7326,-0.31697 2.33458,-1.28599 0.97826,-1.5747 0.60627,-1.79071 -3.50206,-2.03363 -3.30289,-0.1953 -5.05164,-0.87056 -6.21348,-2.39928 -1.25976,-1.65758 -1.75031,-1.81842 -2.2209,-0.72821 -0.36462,0.84472 -0.51645,0.60665 -0.38309,-0.60072 0.14507,-1.31344 1.42238,-2.38795 3.7209,-3.13014 1.925,-0.62158 3.43058,-1.52158 3.34573,-2 -0.0849,-0.47843 0.47765,-1.4501 1.25,-2.15929 1.16263,-1.06754 1.40999,-0.98151 1.43754,0.5 0.0282,1.51882 0.33801,1.42338 2.04834,-0.63106 2.39848,-2.88103 11.70861,-9.03708 13.88467,-9.18083 0.84355,-0.0557 3.10872,-0.0781 5.03372,-0.0498 3.08752,0.0454 3.20537,-0.0377 1,-0.70515 l -2.5,-0.75664 2.5,-0.67988 c 3.56779,-0.97025 5.2144,-0.86311 4.5,0.29282 -0.33992,0.55 -0.14148,1 0.44098,1 0.58246,0 1.05902,-0.38166 1.05902,-0.84813 0,-0.88114 6.4902,-4.10262 9.04159,-4.48789 0.80213,-0.12112 2.03152,-0.57818 2.732,-1.01569 0.99309,-0.62029 1.12476,0.15672 0.59782,3.52812 -0.37167,2.37797 -1.03971,4.46773 -1.48453,4.6439 -0.44481,0.17617 -0.53597,1.68422 -0.20257,3.35122 0.3334,1.667 0.19946,3.32286 -0.29765,3.67969 -0.4971,0.35683 -1.79996,2.85145 -2.89524,5.5436 -1.86417,4.58203 -3.24933,5.79614 -21.6767,19 -10.82691,7.75785 -24.68459,17.70518 -30.79485,22.10518 -6.11026,4.4 -12.60956,8.9015 -14.44288,10.00334 -1.83332,1.10184 -5.75064,3.90212 -8.70515,6.22284 -7.78066,6.11159 -20.96097,15.78809 -37.98172,27.88481 -8.19831,5.82658 -15.78921,11.71657 -16.86867,13.08887 -1.95041,2.47955 -1.95036,2.51916 0.008,6.35778 1.08383,2.12448 1.9706,4.46751 1.9706,5.20674 0,0.73923 1.34578,3.46613 2.99062,6.05978 1.64485,2.59365 3.50467,6.75718 4.13295,9.2523 1.09445,4.34647 1.02151,4.66382 -1.74062,7.5733 -1.58562,1.67021 -4.90795,4.05677 -7.38295,5.30349 -4.18506,2.10811 -4.78945,2.1684 -8.63581,0.86148 z m -29.3642,-43.51473 c 0,-1.61542 -0.29571,-1.90429 -1.11287,-1.08713 -0.61208,0.61207 -0.81052,1.60207 -0.44098,2.2 1.03439,1.67368 1.55385,1.30164 1.55385,-1.11287 z m 11.66667,0.90609 c 0,-0.71165 -0.6303,-1.88269 -1.40067,-2.60232 -1.17032,-1.09325 -1.34848,-1.0038 -1.08334,0.5439 0.2449,1.42951 1.49783,3.17112 2.40067,3.33702 0.0458,0.008 0.0833,-0.56695 0.0833,-1.2786 z m 10.83333,-12.70609 c 0.73784,-1.19384 -1.22178,-1.19384 -4,0 -1.78583,0.7674 -1.71184,0.86696 0.69098,0.92971 1.48004,0.0387 2.9691,-0.37971 3.30902,-0.92971 z m 30.5,-3.08935 c 1.66051,-1.35822 1.82841,-1.69779 0.5,-1.01125 -3.26177,1.68572 -5.07007,3.07046 -4,3.06305 0.55,-0.004 2.125,-0.92712 3.5,-2.0518 z m -5.60503,-0.0806 c -0.46474,-0.75196 -0.20512,-0.97118 0.7267,-0.61361 0.94394,0.36222 1.44976,-0.0882 1.44976,-1.29113 0,-1.70097 -0.13971,-1.72101 -1.76213,-0.25273 -1.53797,1.39183 -1.64922,3.32741 -0.19127,3.32741 0.275,0 0.17463,-0.52647 -0.22306,-1.16994 z m 11.60503,-5.07494 c 0,-0.55783 -0.66326,-0.44954 -1.5,0.24489 -0.825,0.68469 -1.5,1.69489 -1.5,2.24489 0,0.55783 0.66326,0.44954 1.5,-0.24489 0.825,-0.68469 1.5,-1.69489 1.5,-2.24489 z m -3.66122,-0.14941 c 1.4523,-2.21647 1.43962,-2.36051 -0.1707,-1.9394 -0.95673,0.25019 -1.73951,1.32762 -1.73951,2.39429 0,2.43741 0.0179,2.43314 1.91021,-0.45489 z m 14.75806,-6.85838 c 3.52174,-2.46021 8.20316,-5.70358 10.40316,-7.20748 2.2,-1.5039 3.87635,-3.17405 3.72522,-3.71143 -0.15112,-0.53739 0.165,-0.70528 0.7025,-0.37308 1.17877,0.72852 10.68811,-6.36189 10.2975,-7.6781 -0.15112,-0.50924 0.15528,-0.6601 0.68091,-0.33525 0.52562,0.32486 1.26171,0.0955 1.63576,-0.50976 0.44015,-0.71218 -0.15288,-0.97416 -1.6809,-0.74258 -1.29854,0.19682 -2.23734,0.94311 -2.08621,1.65843 0.15613,0.73901 -0.20889,1.00167 -0.84536,0.60831 -1.34939,-0.83397 -5.50426,1.11725 -8.92942,4.19346 -1.375,1.23492 -2.8375,2.2689 -3.25,2.29774 -0.4125,0.0288 -1.28601,0.0524 -1.94113,0.0524 -0.65512,0 -0.41845,0.565 0.52594,1.25555 1.60555,1.174 1.58549,1.36821 -0.30887,2.99021 -1.85156,1.58535 -2.44241,1.45937 -2.15636,-0.45977 0.0585,-0.39271 -0.57466,-0.45266 -1.4071,-0.13322 -1.1138,0.4274 -1.22986,0.9226 -0.43945,1.87499 0.77348,0.93198 0.73738,1.50228 -0.12898,2.03772 -0.71986,0.4449 -0.94249,0.32192 -0.5543,-0.30619 0.35682,-0.57734 -0.0779,-1.32856 -0.96601,-1.66937 -1.25774,-0.48264 -1.49227,-0.15118 -1.06071,1.49909 0.47293,1.8085 0.19589,2.05027 -1.89203,1.65114 -1.78821,-0.34184 -2.37547,-0.0615 -2.18354,1.04238 0.1444,0.83049 -0.3626,1.72755 -1.12666,1.99346 -0.88866,0.30928 -1.12118,0.0498 -0.64535,-0.72008 0.52259,-0.84558 0.11785,-0.81262 -1.36081,0.11081 -2.17567,1.35873 -2.79394,2.83328 -1.18797,2.83328 0.50416,0 1.14364,-0.5625 1.42105,-1.25 0.38017,-0.94216 0.52383,-0.95082 0.58333,-0.0352 0.11706,1.8012 -3.63562,3.60369 -4.22048,2.02719 -0.34485,-0.92952 -0.87417,-0.84979 -2.10387,0.31691 -1.50753,1.43029 -1.4063,1.54252 1.22694,1.36021 1.57853,-0.10928 5.75147,-2.2116 9.2732,-4.67181 z m 34.31457,-25.89067 c -0.33666,-0.54473 -0.004,-0.87158 0.73824,-0.72633 1.73688,0.33968 8.05566,-3.59168 7.18009,-4.46724 -0.36469,-0.3647 -0.13176,-0.66308 0.51762,-0.66308 1.48522,0 8.1236,-4.25268 8.14026,-5.21482 0.007,-0.39314 -0.94192,-1.22554 -2.1083,-1.84976 -1.67371,-0.89575 -1.95528,-0.86735 -1.33595,0.13475 0.56079,0.90738 0.29503,1.0818 -0.93126,0.61122 -1.15642,-0.44376 -1.48251,-0.28071 -1,0.5 0.46956,0.75978 0.17561,0.95113 -0.85411,0.55599 -0.91065,-0.34945 -2.32785,0.23481 -3.37428,1.39111 -1.54868,1.71127 -1.59739,2.12442 -0.34396,2.91725 1.08516,0.68638 1.124,0.92757 0.15122,0.93895 -0.7333,0.009 -0.9952,0.52307 -0.59549,1.16982 0.44563,0.72104 0.27393,0.88282 -0.45729,0.4309 -0.64395,-0.39798 -0.91193,-1.14251 -0.59549,-1.65451 0.31643,-0.51199 -0.12623,-0.9309 -0.98369,-0.9309 -0.85746,0 -1.55902,0.70156 -1.55902,1.55902 0,0.87898 -0.47971,1.26254 -1.09977,0.87932 -0.6886,-0.42558 -0.6274,0.20661 0.16372,1.69098 1.13395,2.12763 1.09978,2.23566 -0.33333,1.05376 -1.37055,-1.13032 -1.84576,-0.91777 -3.35371,1.5 -0.96629,1.5493 -2.23389,3.47434 -2.8169,4.27785 -0.583,0.80351 0.40778,0.4316 2.20175,-0.82647 1.79396,-1.25807 2.98631,-2.73308 2.64965,-3.27781 z m 7.6039,-7.60665 c 0.008,-0.4125 0.38565,-1.3338 0.83827,-2.04733 0.64721,-1.02028 1.12445,-0.9259 2.23469,0.44195 0.91065,1.12195 0.96805,1.47275 0.16173,0.98832 -0.6875,-0.41304 -1.25,-0.27442 -1.25,0.30804 0,0.58246 -0.45,1.05902 -1,1.05902 -0.55,0 -0.99311,-0.3375 -0.98469,-0.75 z m 13.11225,-5.94196 c 0.75484,-0.93058 0.84837,-1.37777 0.20785,-0.99377 -0.64052,0.38401 -1.35427,0.35789 -1.5861,-0.058 -0.23184,-0.41593 -0.26517,-0.14363 -0.0741,0.60511 0.22468,0.88035 -0.2049,1.14939 -1.21584,0.76146 -0.89886,-0.34493 -1.30361,-0.17975 -0.95232,0.38866 0.89155,1.44255 2.06463,1.21464 3.62048,-0.70342 z m 5.57146,-6.20424 c -0.99335,-1.22469 -0.88797,-1.36159 0.61433,-0.79811 0.99734,0.37409 3.1063,0.0115 4.68658,-0.80566 4.16377,-2.15316 4.4662,-3.34751 0.53617,-2.11743 -1.85986,0.58213 -3.16478,1.40919 -2.89982,1.83791 0.87819,1.42094 -1.36867,0.80687 -2.63628,-0.72051 -0.99708,-1.2014 -0.98827,-1.5 0.0442,-1.5 0.70901,0 1.02765,-0.26146 0.70809,-0.58102 -0.31956,-0.31956 -1.55689,-0.0588 -2.74963,0.57958 -2.07019,1.10794 -2.08973,1.24777 -0.43066,3.08103 0.9559,1.05622 1.24479,1.92041 0.642,1.92041 -0.60278,0 -1.37408,-0.45 -1.714,-1 -0.33992,-0.55 -1.15398,-0.98569 -1.80902,-0.9682 -0.65504,0.0175 -0.36018,0.66127 0.65524,1.43061 1.01543,0.76934 2.67999,1.33599 3.69902,1.25923 1.50494,-0.11337 1.62768,-0.41711 0.65378,-1.61784 z m -110.69902,64.81287 c 0,-0.59584 0.5625,-0.87956 1.25,-0.63049 0.6875,0.24906 1.99282,-0.19275 2.90072,-0.98181 1.11252,-0.9669 1.86573,-1.08677 2.31018,-0.36764 0.367,0.59382 -0.5048,1.50966 -1.96583,2.06514 -3.37135,1.28179 -4.49507,1.26049 -4.49507,-0.0852 z m 9.01531,-6.16667 c 0.008,-0.6875 0.45153,-1.925 0.98469,-2.75 0.75538,-1.16887 0.97276,-0.89294 0.98469,1.25 0.008,1.5125 -0.43469,2.75 -0.98469,2.75 -0.55,0 -0.99311,-0.5625 -0.98469,-1.25 z m 16.48469,-23.75 c 0.33992,-0.55 1.49148,-1 2.55902,-1 1.06754,0 1.94098,0.45 1.94098,1 0,0.55 -1.15156,1 -2.55902,1 -1.45136,0 -2.2915,-0.43284 -1.94098,-1 z m -5.42105,-2.19098 c -0.10297,-2.20549 1.79037,-3.3397 3.20818,-1.92189 0.81716,0.81716 0.68329,1.11287 -0.5038,1.11287 -0.88916,0 -1.84364,0.5625 -2.12105,1.25 -0.31056,0.76965 -0.53472,0.60019 -0.58333,-0.44098 z m 37.42105,-13.80902 c -0.33992,-0.55 0.30852,-1 1.44098,-1 1.13246,0 2.05902,0.45 2.05902,1 0,0.55 -0.64844,1 -1.44098,1 -0.79254,0 -1.7191,-0.45 -2.05902,-1 z m 0.70826,-7.67619 c -0.99192,-0.39801 -1.02153,-0.84388 -0.12755,-1.92106 1.65516,-1.99434 2.91929,-1.73572 2.91929,0.59725 0,2.02941 -0.47355,2.25396 -2.79174,1.32381 z"
       id="path7683"
       inkscape:connector-curvature="0" />
    <path
       style="fill:#e5b789"
       d="m 218.74996,337.9926 c -3.35927,-1.30214 -5.05826,-2.94037 -8.30901,-8.01187 -2.4554,-3.83066 -3.8421,-7.01142 -3.47445,-7.96952 0.33653,-0.87696 0.29631,-1.27892 -0.0894,-0.89324 -0.69742,0.69743 -8.40446,-8.87881 -8.40446,-10.44281 0,-1.53843 -2.14961,-0.81816 -12.82352,4.29682 -5.87206,2.81391 -14.88341,7.12 -20.02522,9.56909 -5.1418,2.4491 -9.96101,4.21795 -10.70934,3.93079 -0.74834,-0.28717 -2.58102,-2.90576 -4.07264,-5.8191 -4.15963,-8.12435 -3.00803,-14.52539 3.34706,-18.60426 2.85596,-1.83303 3.78405,-2.03857 4.51538,-1 0.7206,1.02334 0.83312,0.98602 0.51805,-0.17181 -0.45419,-1.66908 9.9638,-9.79812 17.42946,-13.6 5.21943,-2.65799 5.27709,-2.72221 6.21289,-6.92092 0.41729,-1.8723 0.33459,-2.50017 -0.22002,-1.6703 -0.65538,0.98066 -1.60003,0.11581 -3.59878,-3.29479 -1.49057,-2.54347 -2.48987,-5.16684 -2.22067,-5.8297 0.29834,-0.73462 0.52028,-0.58851 0.5684,0.37419 0.0483,0.96619 0.93925,1.54857 2.29475,1.5 1.47115,-0.0527 2.66572,0.84478 3.55457,2.6706 0.73632,1.5125 1.77534,2.75 2.30895,2.75 0.5336,0 1.39791,1.125 1.92068,2.5 0.52277,1.375 1.39751,2.5 1.94386,2.5 0.54636,0 0.73239,0.6801 0.41341,1.51134 -0.43185,1.1254 -0.12414,1.33643 1.205,0.82639 1.40824,-0.54039 1.64279,-0.31448 1.11134,1.07045 -0.37049,0.96547 -0.67361,2.37947 -0.67361,3.14222 0,0.82505 -0.61075,1.15246 -1.50772,0.80826 -2.41919,-0.92833 -6.7712,2.46674 -6.15967,4.80525 0.38291,1.46425 0.1285,1.84328 -0.95751,1.42653 -0.89344,-0.34284 -1.21727,-0.14408 -0.81794,0.50204 0.36356,0.58827 1.73694,0.79954 3.05193,0.4695 1.51433,-0.38008 2.39091,-0.16536 2.39091,0.58563 0,0.65215 -0.27857,0.90715 -0.61905,0.56668 -0.34047,-0.34048 -1.31345,0.0754 -2.16218,0.92408 -1.29557,1.29557 -1.32123,1.68027 -0.15991,2.39801 0.76077,0.47018 1.05125,1.18684 0.64551,1.59258 -0.40574,0.40574 -1.2702,0.20521 -1.92104,-0.44563 -1.49189,-1.49189 -3.78333,-1.53812 -3.78333,-0.0763 0,0.60884 0.66059,0.8535 1.46798,0.54367 0.80738,-0.30982 1.72327,-0.15022 2.03531,0.35467 0.31205,0.50489 -1.21801,1.82881 -3.40012,2.94204 -2.18211,1.11323 -4.28302,2.53462 -4.6687,3.15866 -0.80669,1.30525 6.94846,-3.05674 13.56553,-7.63012 2.475,-1.71059 6.84451,-4.16454 9.71002,-5.45322 2.8655,-1.28869 4.97963,-2.71582 4.69806,-3.17142 -0.28158,-0.4556 0.1519,-0.57361 0.96329,-0.26226 0.8791,0.33735 1.93061,-0.28474 2.60211,-1.53946 0.61978,-1.15806 1.58264,-1.82388 2.13971,-1.4796 0.55706,0.34429 1.77198,-0.0558 2.69982,-0.88896 0.92785,-0.83321 5.86412,-4.2536 10.9695,-7.60088 5.10537,-3.34727 9.53012,-6.73123 9.83275,-7.51989 0.30264,-0.78866 1.10391,-1.22148 1.78059,-0.96181 0.67669,0.25967 2.05919,-0.44375 3.07223,-1.56314 1.01304,-1.1194 2.19804,-2.03527 2.63333,-2.03527 0.43529,0 3.62805,-1.68302 7.09501,-3.74004 8.74753,-5.19008 8.8868,-5.27791 15.44943,-9.74311 5.8342,-3.96957 7.3336,-5.0698 9.63885,-7.0728 0.66842,-0.58078 2.10269,-1.39249 3.18727,-1.8038 1.65766,-0.62864 1.73735,-0.89914 0.5,-1.69707 -1.11689,-0.72025 -0.8689,-0.8882 1.02803,-0.69621 1.63827,0.16581 2.40529,-0.20346 2.22522,-1.0713 -0.15112,-0.72838 0.18653,-1.03923 0.75035,-0.69077 1.11046,0.6863 11.37909,-7.46357 10.50511,-8.33755 -0.29167,-0.29168 0.94336,-1.02859 2.7445,-1.6376 1.80115,-0.60901 3.15117,-1.68129 3.00004,-2.38285 -0.15112,-0.70156 0.19642,-0.98434 0.77233,-0.62841 1.03227,0.63797 7.67499,-4.48994 23.02431,-17.77382 5.21511,-4.51335 8.07166,-6.38237 8.55624,-5.5983 0.41129,0.66549 -0.0995,1.78723 -1.17532,2.58104 -1.04653,0.77221 -1.78231,2.00274 -1.63507,2.73452 0.14724,0.73177 -0.47891,1.61701 -1.39145,1.96718 -1.38907,0.53304 -1.45341,0.38878 -0.39526,-0.88622 0.69514,-0.83759 0.86983,-1.52289 0.3882,-1.52289 -1.25429,0 -6.92091,6.20921 -6.60338,7.23566 0.14621,0.4726 -0.3357,0.72542 -1.07089,0.56181 -3.1815,-0.708 -12.68165,8.51886 -11.86828,11.52686 0.1226,0.45338 -0.24559,0.53479 -0.81819,0.1809 -0.57259,-0.35388 -0.75334,-1.10901 -0.40165,-1.67805 0.35169,-0.56905 -0.56407,-0.24606 -2.03503,0.71775 -1.93467,1.26764 -2.37214,2.05472 -1.58149,2.84536 0.79065,0.79065 1.38418,0.68038 2.14568,-0.39865 0.87988,-1.24677 0.96028,-1.20436 0.48975,0.25836 -0.3293,1.02367 -0.0572,1.7368 0.65566,1.7182 1.85582,-0.0484 4.78521,-2.56828 3.95308,-3.40041 -0.40395,-0.40395 -0.28446,-0.64367 0.26554,-0.5327 2.33477,0.47105 3.67788,-0.12916 3.18181,-1.4219 -0.35446,-0.92369 0.0272,-1.24068 1.14301,-0.94921 0.96174,0.25123 3.27226,-1.0256 5.42518,-2.99806 2.0625,-1.88961 3.75,-3.27334 3.75,-3.07494 0,0.1984 1.9125,-1.00655 4.25,-2.67766 2.3375,-1.6711 5.48465,-3.79774 6.99368,-4.72585 1.50902,-0.92811 2.74652,-2.53007 2.75,-3.55991 0.005,-1.60689 0.23441,-1.68315 1.61453,-0.53775 1.35975,1.12849 1.80165,1.07016 2.86025,-0.37756 0.68861,-0.94174 1.65242,-1.71448 2.14178,-1.71722 1.57872,-0.009 6.97579,-4.92096 5.44863,-4.95907 -1.09329,-0.0273 -1.0128,-0.34916 0.33349,-1.3336 1.60577,-1.17416 1.50502,-1.2931 -1.05887,-1.25 -1.55842,0.0262 -2.83678,0.49764 -2.84079,1.04764 -0.004,0.55 -0.78647,2.10542 -1.73878,3.45648 -1.69859,2.40983 -1.75956,2.41933 -3.21089,0.5 -1.73995,-2.30102 -1.93653,-4.09525 -0.54303,-4.95648 0.55,-0.33992 1,-1.26648 1,-2.05902 0,-1.77145 -3.11442,-1.89169 -4.9467,-0.19098 -1.07737,1 -1.20556,1 -0.64099,0 0.38815,-0.6875 0.3014,-1.25 -0.19278,-1.25 -1.11399,0 -3.29054,-4.59566 -2.53458,-5.35162 0.30314,-0.30314 1.73554,-0.40612 3.18311,-0.22885 1.44756,0.17727 2.06944,0.12239 1.38194,-0.12194 -0.6875,-0.24433 -1.25,-0.8878 -1.25,-1.42993 0,-0.54213 0.49821,-0.67778 1.10713,-0.30145 0.74503,0.46046 0.88652,-0.0108 0.43262,-1.44098 -0.59505,-1.87483 -0.28366,-2.12589 2.64286,-2.13081 4.4385,-0.007 11.07914,-1.85134 12.31739,-3.42013 1.2298,-1.55808 6.75095,-4.47053 9.19676,-4.85137 0.99178,-0.15443 2.43663,-0.67563 3.21076,-1.15822 1.11441,-0.69471 1.27344,-0.37631 0.76366,1.52893 -0.35413,1.3235 -0.65002,3.44543 -0.65753,4.71539 -0.008,1.37466 -0.44411,2.04297 -1.07743,1.65156 -0.72311,-0.4469 -0.84101,0.53001 -0.36817,3.05049 0.38259,2.03937 0.29493,3.99616 -0.1948,4.34844 -0.48973,0.35227 -1.78655,2.84316 -2.88183,5.53531 -1.86417,4.58203 -3.24933,5.79614 -21.6767,19 -10.82691,7.75785 -24.68459,17.70518 -30.79485,22.10518 -6.11026,4.4 -12.60956,8.9015 -14.44288,10.00334 -1.83332,1.10184 -5.75064,3.90212 -8.70515,6.22284 -7.78066,6.11159 -20.96097,15.78809 -37.98172,27.88481 -8.19831,5.82658 -15.78921,11.71657 -16.86867,13.08887 -1.95041,2.47955 -1.95036,2.51916 0.008,6.35778 1.08383,2.12448 1.9706,4.46751 1.9706,5.20674 0,0.73923 1.34578,3.46613 2.99062,6.05978 1.64485,2.59365 3.50467,6.75718 4.13295,9.2523 1.09445,4.34647 1.02151,4.66382 -1.74062,7.5733 -1.58562,1.67021 -4.90795,4.06885 -7.38295,5.33031 -4.34974,2.217 -4.641,2.23893 -8.7227,0.65676 z m -41.34545,-43.41632 c 1.79948,-1.23097 2.77461,-1.37909 3.75,-0.56959 1.02045,0.8469 1.31815,0.61462 1.31815,-1.02848 0,-1.25566 0.63669,-2.12244 1.55902,-2.12244 0.85746,0 1.30465,-0.41157 0.99377,-0.91459 -0.31089,-0.50302 5e-5,-1.11642 0.69098,-1.3631 0.69093,-0.24667 0.9132,-0.81564 0.49393,-1.26437 -0.41926,-0.44873 -2.08854,0.16466 -3.70951,1.36309 -1.62096,1.19844 -3.35239,2.17897 -3.84762,2.17897 -0.49524,0 -1.74526,1.125 -2.77785,2.5 -1.03258,1.375 -2.78311,2.53163 -3.89007,2.57029 -2.00675,0.0701 -2.00679,0.0726 -0.0127,0.8635 1.1,0.43628 2.225,0.49106 2.5,0.12175 0.275,-0.36931 1.59433,-1.42007 2.93185,-2.33503 z m 45.29243,-1.94479 c 1.22335,-1.22335 2.73344,-2.29901 3.35574,-2.39034 2.36065,-0.34647 9.35888,-5.67522 8.74907,-6.66192 -0.37928,-0.61369 -0.14641,-0.72859 0.57412,-0.28328 0.69198,0.42767 2.97606,-0.41805 5.32212,-1.9706 4.00889,-2.65296 4.05586,-2.74873 1.91092,-3.89666 -1.20944,-0.64727 -1.88486,-1.49097 -1.50095,-1.87489 0.38392,-0.38392 0.19959,-0.69803 -0.40962,-0.69803 -1.91894,0 -2.30436,1.77847 -0.7272,3.35562 0.84397,0.84397 1.10179,1.77339 0.58119,2.09514 -0.51462,0.31806 -1.2234,-0.32825 -1.57506,-1.43624 -0.61028,-1.92281 -2.50461,-2.86213 -2.50461,-1.24192 0,0.42492 -1.59903,1.63373 -3.55341,2.68623 l -3.55341,1.91364 2.30341,1.29562 c 2.03883,1.14681 2.07368,1.26567 0.30341,1.03484 -1.1,-0.14343 -2.55735,-0.60864 -3.23855,-1.0338 -0.87466,-0.5459 -1.044,-0.26604 -0.57639,0.95254 0.50738,1.3222 0.27095,1.57543 -1.01145,1.08332 -1.10758,-0.42501 -1.67361,-0.13362 -1.67361,0.86158 0,1.2145 0.40123,1.28907 2.08565,0.38759 3.00267,-1.60698 3.42838,-0.52098 0.53812,1.37279 -2.10941,1.38214 -2.51441,1.40042 -2.99982,0.13545 -0.30865,-0.80432 -1.01118,-1.4624 -1.56118,-1.4624 -0.55,0 -0.78442,0.5625 -0.52093,1.25 0.26348,0.6875 -0.66885,2.4875 -2.07186,4 -3.03164,3.26823 -1.45938,3.7394 1.7543,0.52572 z m 26.77572,-18.30247 c 0,0.38214 1.6875,-0.60222 3.75,-2.18749 2.0625,-1.58526 5.00184,-3.66784 6.53187,-4.62796 1.56733,-0.98353 2.4822,-2.23053 2.09549,-2.85624 -0.40691,-0.65838 -0.23235,-0.82998 0.42869,-0.42143 1.81623,1.12249 22.96009,-13.79749 22.36062,-15.77857 -0.18334,-0.60586 -0.0136,-0.78182 0.37719,-0.39103 0.83725,0.83724 9.45614,-4.8672 9.45614,-6.25857 0,-0.52358 0.3375,-0.86217 0.75,-0.75242 0.4125,0.10975 2.28963,-0.76475 4.1714,-1.94334 l 3.4214,-2.14289 -2.74301,-1.2498 c -2.27745,-1.03767 -2.8944,-1.00485 -3.63493,0.19335 -0.49055,0.79372 -1.13332,1.33064 -1.42839,1.19314 -1.91396,-0.89192 -2.58668,0.0193 -0.9776,1.32416 1.06762,0.86578 1.43329,1.32301 0.81259,1.01605 -1.3574,-0.67129 -7.37146,2.17036 -7.37146,3.48303 0,0.50972 -0.47639,0.92676 -1.05864,0.92676 -1.21309,0 -7.62903,4.79511 -13.33828,9.9687 -2.14331,1.94222 -3.53922,2.90402 -3.10202,2.13735 0.55142,-0.96698 -0.15774,-0.83121 -2.31517,0.44321 -2.57129,1.5189 -2.90009,2.09681 -1.89798,3.33591 0.9566,1.18284 0.94902,1.34071 -0.036,0.74896 -1.82531,-1.09656 -9.05541,3.50528 -8.43049,5.36587 0.41247,1.22804 0.23101,1.27494 -1.00082,0.25868 -1.88112,-1.55193 -3.20321,-0.42462 -1.66943,1.42348 0.6236,0.75139 0.8447,1.6553 0.49132,2.00867 -0.35337,0.35338 -0.6425,0.1175 -0.6425,-0.52416 0,-1.64516 -1.86093,-1.4486 -3.70037,0.39084 -0.85663,0.85663 -2.19786,1.31179 -2.98051,1.01145 -0.90198,-0.34612 -1.16084,-0.12188 -0.70701,0.61243 0.4825,0.78072 0.15641,0.94376 -1,0.5 -1.01928,-0.39113 -1.46793,-0.25712 -1.10503,0.33006 0.33602,0.5437 -0.0906,0.98855 -0.94806,0.98855 -2.14911,0 -1.98146,3.75185 0.19098,4.27383 0.9625,0.23127 2.5375,-0.46059 3.5,-1.53746 0.9625,-1.07686 1.75,-1.64527 1.75,-1.26312 z m 103.92742,-73.10811 c 2.26226,-2.876 2.62817,-4.36514 1.07258,-4.36514 -0.55,0 -1,0.65747 -1,1.46105 0,0.80357 -0.98485,2.37857 -2.18856,3.5 -1.20371,1.12142 -1.68637,2.03895 -1.07258,2.03895 0.61379,0 2.04864,-1.18569 3.18856,-2.63486 z m 5.98925,-18.98937 c 1.29694,-1.16965 -0.79657,-0.9919 -2.91818,0.24777 l -2.49849,1.45989 2.5,-0.66594 c 1.375,-0.36627 2.6875,-0.83504 2.91667,-1.04172 z M 195.20183,289.2516 c -0.40104,-0.40104 -0.72917,-1.50602 -0.72917,-2.45551 0,-0.94949 -0.73259,-2.00746 -1.62797,-2.35105 -1.23889,-0.47541 -1.49291,-1.45695 -1.06287,-4.10699 0.31081,-1.91525 0.14339,-3.48228 -0.37203,-3.48228 -0.51542,0 -0.93713,0.45 -0.93713,1 0,0.55 -0.45,1 -1,1 -0.55,0 -1,-1.07686 -1,-2.39301 0,-1.31616 -0.675,-2.65203 -1.5,-2.96862 -0.825,-0.31658 -1.5,-1.26472 -1.5,-2.10699 0,-2.16157 0.76558,-1.91544 3.3356,1.07239 2.15729,2.508 2.39905,2.55601 6.57317,1.30542 3.95106,-1.18377 4.45519,-1.13193 5.71236,0.58736 2.29045,3.13237 1.68858,7.41139 -1.4561,10.35224 -1.55923,1.45817 -3.03111,3.24184 -3.27083,3.96371 -0.23973,0.72187 -0.76399,0.98438 -1.16503,0.58333 z m 9.27083,-19.51246 c 0,-0.64931 -0.89731,-0.88198 -2.14405,-0.55595 -1.48147,0.38741 -1.82333,0.23996 -1.10622,-0.47715 0.57081,-0.57081 1.83584,-0.88313 2.81118,-0.69405 1.94504,0.37706 3.2656,2.84378 1.52242,2.84378 -0.59583,0 -1.08333,-0.50248 -1.08333,-1.11663 z m -9.0308,-4.4332 c -1.19081,-1.92677 -2.72495,-4.06307 -3.40922,-4.74733 -1.94023,-1.94024 -4.00606,-6.0724 -3.72595,-7.45284 0.24517,-1.20825 -0.98345,-1.66235 -3.58403,-1.32465 -0.6875,0.0893 -1.25,-0.19916 -1.25,-0.64097 0,-0.84934 4.01408,-3.64898 4.44999,-3.10367 0.14038,0.17561 2.96145,4.37514 6.26905,9.33228 4.8672,7.29454 5.76609,9.2444 4.71454,10.22669 -1.03817,0.9698 -1.73437,0.5097 -3.46438,-2.28951 z m -25.08372,-0.70017 c -0.65169,-1.2375 -1.67626,-2.56876 -2.27682,-2.95836 -0.76892,-0.49881 -0.71494,-1.08536 0.18245,-1.98275 1.03253,-1.03253 1.38521,-0.85064 1.85828,0.95836 0.32113,1.22801 1.00795,2.23275 1.52626,2.23275 0.51831,0 0.63317,0.50031 0.25525,1.1118 -0.37792,0.6115 -0.067,1.5046 0.69098,1.98469 0.94423,0.59807 0.99565,0.87771 0.1633,0.8882 -0.66815,0.008 -1.74801,-0.99719 -2.3997,-2.23469 z m 158.9408,-49.75533 c 1.27946,-1.06634 2.0404,-2.40137 1.69099,-2.96673 -0.34942,-0.56537 -0.13046,-1.02794 0.48657,-1.02794 0.61703,0 0.98109,-1.00141 0.80902,-2.22535 -0.2082,-1.48088 0.27258,-2.34176 1.43714,-2.57332 1.20478,-0.23957 1.75,0.28249 1.75,1.67566 0,1.11299 0.7875,2.48231 1.75,3.04291 0.9625,0.56061 1.21406,1.03297 0.55902,1.04969 -0.65504,0.0167 -1.45695,-0.39994 -1.78203,-0.92592 -0.32507,-0.52598 -1.24904,-0.70382 -2.05327,-0.39521 -0.80423,0.30861 -1.25517,0.89615 -1.00208,1.30565 0.48889,0.79105 -3.9738,5.06888 -5.22925,5.01262 -0.40831,-0.0183 0.30444,-0.90573 1.58389,-1.97206 z m 7.17372,-28.37804 c 0,-0.88773 4.04569,-1.35173 4.55802,-0.52275 0.30801,0.49837 -0.59154,0.90612 -1.999,0.90612 -1.40746,0 -2.55902,-0.17252 -2.55902,-0.38337 z m 7.5,-2.61663 c 1.1,-0.47269 2.9,-0.88417 4,-0.9144 1.65073,-0.0454 1.73805,0.11431 0.5,0.9144 -0.825,0.53316 -2.625,0.94464 -4,0.9144 -2.28958,-0.0503 -2.33166,-0.12731 -0.5,-0.9144 z"
       id="path7681"
       inkscape:connector-curvature="0" />
    <path
       style="fill:#f8b570"
       d="m 221.97266,337.85577 c 1.70146,-0.73114 1.51487,-0.88858 -1.25,-1.05471 -1.7875,-0.10741 -3.76356,-0.25154 -4.39124,-0.32029 -0.62768,-0.0687 -2.22658,-1.925 -3.55311,-4.125 -1.94026,-3.21784 -2.01041,-3.53837 -0.35876,-1.63922 2.62706,3.02074 2.61076,2.19869 -0.0457,-2.30362 -2.14831,-3.64111 -3.58668,-4.78581 -2.51967,-2.00522 0.36243,0.94447 0.18191,1.2963 -0.46119,0.89885 -0.58119,-0.3592 -0.80233,-1.31601 -0.49141,-2.12624 0.62368,-1.62531 -1.79245,-4.62772 -2.86276,-3.55741 -0.36955,0.36954 -0.37643,-0.0981 -0.0153,-1.03919 0.40759,-1.06217 0.0969,-1.92587 -0.8192,-2.27741 -0.8117,-0.31148 -2.88615,-2.53018 -4.6099,-4.93046 l -3.13408,-4.36413 -18.48471,8.92203 c -10.1666,4.90711 -19.16384,8.92202 -19.99387,8.92202 -0.83003,0 -1.50915,0.45 -1.50915,1 0,1.5982 -2.15566,1.15674 -3.66228,-0.75 -2.62835,-3.32638 -5.33772,-9.17892 -5.33772,-11.53005 0,-3.82562 5.32768,-9.09962 13,-12.869 1.375,-0.67554 3.70989,-2.32609 5.18864,-3.6679 1.90589,-1.7294 3.45124,-2.29388 5.30803,-1.93893 1.97903,0.37831 2.48577,0.15251 2.07282,-0.92364 -0.30237,-0.78794 -0.10568,-1.15186 0.44021,-0.81449 0.54273,0.33543 1.96941,-0.0784 3.1704,-0.91958 1.61027,-1.12788 2.5297,-1.24222 3.50175,-0.43549 1.02045,0.8469 1.31815,0.61462 1.31815,-1.02848 0,-1.25566 0.63669,-2.12244 1.55902,-2.12244 0.85746,0 1.2809,-0.45 0.94098,-1 -0.33992,-0.55 -0.14148,-1 0.44098,-1 0.58246,0 1.05902,-0.45857 1.05902,-1.01905 0,-0.578 -1.04492,-0.75679 -2.41429,-0.41311 -2.32715,0.58408 -2.3841,0.47211 -1.57794,-3.10228 1.00377,-4.4506 0.498,-6.10004 -2.07695,-6.7734 -1.1584,-0.30293 -1.93082,-1.3718 -1.93082,-2.67186 0,-3.05156 3.12718,-2.24193 4.79695,1.24193 0.7217,1.50577 1.74876,2.73777 2.28237,2.73777 0.5336,0 1.39791,1.125 1.92068,2.5 0.52277,1.375 1.39751,2.5 1.94386,2.5 0.54636,0 0.73239,0.6801 0.41341,1.51134 -0.43185,1.1254 -0.12414,1.33643 1.205,0.82639 1.40824,-0.54039 1.64279,-0.31448 1.11134,1.07045 -0.37049,0.96547 -0.67361,2.37947 -0.67361,3.14222 0,0.82505 -0.61075,1.15246 -1.50772,0.80826 -2.41919,-0.92833 -6.7712,2.46674 -6.15967,4.80525 0.38291,1.46425 0.1285,1.84328 -0.95751,1.42653 -0.89344,-0.34284 -1.21727,-0.14408 -0.81794,0.50204 0.36356,0.58827 1.73694,0.79954 3.05193,0.4695 1.51433,-0.38008 2.39091,-0.16536 2.39091,0.58563 0,0.65215 -0.27857,0.90715 -0.61905,0.56668 -0.34047,-0.34048 -1.31345,0.0754 -2.16218,0.92408 -1.29557,1.29557 -1.32123,1.68027 -0.15991,2.39801 0.76077,0.47018 1.05125,1.18684 0.64551,1.59258 -0.40574,0.40574 -1.2702,0.20521 -1.92104,-0.44563 -1.49189,-1.49189 -3.78333,-1.53812 -3.78333,-0.0763 0,0.60884 0.66059,0.8535 1.46798,0.54367 0.80738,-0.30982 1.72327,-0.15022 2.03531,0.35467 0.31205,0.50489 -1.21801,1.82881 -3.40012,2.94204 -2.18211,1.11323 -4.28302,2.53462 -4.6687,3.15866 -0.83435,1.35 7.22139,-3.15473 13.56553,-7.58579 2.475,-1.72865 6.84451,-4.19997 9.71002,-5.49181 2.8655,-1.29184 4.93348,-2.79625 4.59549,-3.34313 -0.33811,-0.54707 -0.11195,-0.68371 0.50278,-0.30378 1.15875,0.71615 2.01797,0.20999 18.80779,-11.07948 5.56384,-3.74112 11.73051,-7.64918 13.7037,-8.68458 1.97319,-1.03539 4.44936,-2.68536 5.50259,-3.6666 1.05324,-0.98124 4.15992,-2.92167 6.90375,-4.31207 2.74382,-1.3904 6.29042,-3.58175 7.88132,-4.86965 1.59091,-1.28791 7.61756,-5.44121 13.39256,-9.22957 5.775,-3.78835 12.75,-8.74168 15.5,-11.0074 2.75,-2.26572 7.475,-5.88064 10.5,-8.03315 3.025,-2.15251 7.75,-5.84275 10.5,-8.20053 2.75,-2.35778 8.6789,-7.45088 13.17533,-11.31801 5.44302,-4.68124 8.41845,-6.63776 8.90277,-5.85411 0.41129,0.66549 -0.0995,1.78723 -1.17532,2.58104 -1.04653,0.77221 -1.78231,2.00274 -1.63507,2.73452 0.14724,0.73177 -0.47891,1.61701 -1.39145,1.96718 -1.38907,0.53304 -1.45341,0.38878 -0.39526,-0.88622 0.69514,-0.83759 0.86983,-1.52289 0.3882,-1.52289 -1.25429,0 -6.92091,6.20921 -6.60338,7.23566 0.14621,0.4726 -0.3357,0.72542 -1.07089,0.56181 -3.25259,-0.72382 -12.68949,8.5418 -11.83663,11.6218 0.14,0.5056 -0.43681,0.3455 -1.2818,-0.35578 -1.27881,-1.06132 -2.03332,-0.85689 -4.50098,1.21951 -1.63054,1.37201 -2.65207,2.80711 -2.27007,3.18912 0.382,0.382 0.24455,0.60376 -0.30545,0.49279 -2.98686,-0.60261 -3.81847,0.0868 -1.94113,1.60925 1.06762,0.86578 1.42547,1.31817 0.79521,1.0053 -1.1443,-0.56804 -6.11994,1.56151 -7.25449,3.10489 -0.32977,0.44861 -1.32341,1.26565 -2.20808,1.81565 -8.64309,5.37342 -15.77869,10.87352 -15.23925,11.74636 0.37809,0.61176 0.18415,0.77057 -0.45707,0.37427 -0.61261,-0.37861 -2.00926,-0.12918 -3.10367,0.55429 -1.60281,1.00097 -1.7566,1.53115 -0.79068,2.72583 0.94194,1.16503 0.93145,1.32234 -0.0489,0.73338 -1.82531,-1.09656 -9.05541,3.50528 -8.43049,5.36587 0.4215,1.25492 0.24671,1.28783 -1.06978,0.20144 -1.21275,-1.00078 -1.7441,-1.02268 -2.31713,-0.0955 -0.42661,0.69027 -0.32248,0.94284 0.2443,0.59255 0.54332,-0.33579 0.98785,0.0204 0.98785,0.79148 0,1.04963 -0.46077,1.1554 -1.83334,0.42082 -1.38001,-0.73854 -1.83335,-0.628 -1.83335,0.44704 0,1.67186 -2.70679,2.94142 -4.24475,1.99091 -0.62718,-0.38762 -0.77123,-0.18361 -0.35074,0.49675 0.39277,0.63552 0.12507,1.22298 -0.59549,1.30682 -0.71996,0.0838 -1.75902,0.25687 -2.30902,0.38465 -0.55,0.12779 -1.32636,0.28425 -1.72525,0.34769 -0.39889,0.0634 -0.30571,1.21881 0.20705,2.56748 0.74941,1.97109 0.64759,2.34288 -0.51901,1.89522 -0.79821,-0.30631 -1.20233,-0.95977 -0.89803,-1.45213 0.3043,-0.49237 0.10327,-0.89522 -0.44673,-0.89522 -1.82345,0 -2.15881,1.81636 -0.61955,3.35562 0.84397,0.84397 1.10179,1.77339 0.58119,2.09514 -0.51462,0.31806 -1.2234,-0.32825 -1.57506,-1.43624 -0.61028,-1.92281 -2.50461,-2.86213 -2.50461,-1.24192 0,0.42492 -1.59903,1.63373 -3.55341,2.68623 l -3.55341,1.91364 2.30341,1.29562 c 2.03883,1.14681 2.07368,1.26567 0.30341,1.03484 -1.1,-0.14343 -2.55735,-0.60864 -3.23855,-1.0338 -0.87466,-0.5459 -1.044,-0.26604 -0.57639,0.95254 0.50738,1.3222 0.27095,1.57543 -1.01145,1.08332 -1.10758,-0.42501 -1.67361,-0.13362 -1.67361,0.86158 0,1.2145 0.40123,1.28907 2.08565,0.38759 3.00267,-1.60698 3.42838,-0.52098 0.53812,1.37279 -2.10941,1.38214 -2.51441,1.40042 -2.99982,0.13545 -0.30865,-0.80432 -1.01118,-1.4624 -1.56118,-1.4624 -0.55,0 -0.78442,0.5625 -0.52093,1.25 0.26348,0.6875 -0.66885,2.4875 -2.07186,4 -3.03572,3.27264 -1.45724,3.73726 1.76153,0.51849 1.22732,-1.22732 2.68982,-2.2404 3.25,-2.25127 2.16229,-0.042 9.57023,-5.62449 8.90086,-6.70755 -0.41596,-0.67304 -0.23971,-0.83953 0.44245,-0.41793 1.43985,0.88987 3.90397,-0.44196 11.48562,-6.20785 5.71744,-4.34815 10.92291,-7.98673 25.21166,-17.62273 5.41456,-3.65145 17.7777,-12.66346 30.6817,-22.36517 2.58708,-1.94507 4.47621,-3.90472 4.19806,-4.35479 -0.27816,-0.45006 0.0801,-0.59795 0.7962,-0.32864 0.71607,0.2693 2.65194,-0.6684 4.30194,-2.08379 1.65,-1.41539 2.36797,-2.24636 1.59549,-1.8466 -0.93098,0.48179 -1.16054,0.33211 -0.6809,-0.44397 0.39798,-0.64395 1.14761,-0.90877 1.66584,-0.58849 0.51823,0.32028 4.63176,-2.19781 9.14119,-5.59577 4.50942,-3.39795 8.77932,-6.40081 9.48867,-6.67301 0.70934,-0.2722 1.28971,-1.40186 1.28971,-2.51036 0,-1.65119 0.26319,-1.79703 1.4562,-0.80692 1.60452,1.33163 2.06832,1.1283 8.3704,-3.66967 2.86953,-2.18467 3.73128,-3.29398 2.55887,-3.29398 -1.68676,0 -1.68645,-0.0594 0.007,-1.29764 1.60577,-1.17416 1.50502,-1.2931 -1.05887,-1.25 -1.55842,0.0262 -2.83678,0.49764 -2.84079,1.04764 -0.004,0.55 -0.78647,2.10542 -1.73878,3.45648 -1.69859,2.40983 -1.75956,2.41933 -3.21089,0.5 -1.74006,-2.30102 -1.93664,-4.09525 -0.54314,-4.95648 0.55,-0.33992 1,-1.26648 1,-2.05902 0,-1.77145 -3.11442,-1.89169 -4.9467,-0.19098 -1.07737,1 -1.20556,1 -0.64099,0 0.38815,-0.6875 0.3014,-1.25 -0.19278,-1.25 -1.11399,0 -3.29054,-4.59566 -2.53458,-5.35162 0.30314,-0.30314 1.73554,-0.40612 3.18311,-0.22885 1.44756,0.17727 2.06944,0.12239 1.38194,-0.12194 -0.6875,-0.24433 -1.25,-0.8878 -1.25,-1.42993 0,-0.54213 0.49821,-0.67778 1.10713,-0.30145 0.7332,0.45314 0.89456,0.0145 0.47775,-1.29878 -0.56231,-1.77168 -0.0481,-2.04302 4.82463,-2.54594 2.99972,-0.30959 6.94723,-1.20698 8.77226,-1.99419 4.68175,-2.01942 11.78035,-3.5976 12.31208,-2.73725 0.24627,0.39847 0.0135,3.37622 -0.51725,6.61722 -0.53076,3.241 -0.97451,6.11773 -0.98612,6.39273 -0.0116,0.275 -0.49369,-0.175 -1.0713,-1 -0.82056,-1.17201 -0.91075,-1.00471 -0.41249,0.76515 0.71262,2.53127 -1.92473,7.51292 -5.69207,10.75166 -5.75172,4.94467 -15.78814,11.4317 -16.98997,10.98144 -0.72856,-0.27294 -2.67465,0.40032 -4.32465,1.49615 -1.65,1.09583 -2.64667,1.99539 -2.21482,1.99901 0.43185,0.004 1.9084,-0.72937 3.28121,-1.62887 1.37282,-0.8995 2.74385,-1.38764 3.04674,-1.08475 0.30289,0.30289 -4.32365,3.95376 -10.28121,8.11304 -16.92873,11.81883 -25.33514,17.88517 -28.7158,20.72225 -1.71387,1.4383 -4.15838,2.94056 -5.43225,3.33838 -1.27387,0.39781 -4.42696,2.59802 -7.00688,4.88935 -2.57992,2.29133 -13.40596,10.40033 -24.05787,18.02 -13.36079,9.55742 -19.60003,13.4771 -20.11812,12.63881 -0.48698,-0.78795 -0.97292,-0.85608 -1.38223,-0.19379 -0.34718,0.56174 -0.0975,1.19927 0.55487,1.41672 0.65236,0.21745 -1.52896,2.29987 -4.84737,4.62761 -7.70898,5.40754 -9.08353,7.78278 -6.92237,11.962 1.78401,3.4499 2.30204,8.8256 0.5961,6.18584 -0.53316,-0.825 -0.97627,-1.03763 -0.98469,-0.47251 -0.0247,1.65926 3.04681,5.55215 3.94346,4.99799 0.45206,-0.27939 1.11901,1.07559 1.48211,3.01106 0.36309,1.93547 1.01961,3.29689 1.45893,3.02538 0.43932,-0.27151 1.2883,0.50348 1.88663,1.72221 2.24106,4.56482 2.26746,6.37763 0.13243,9.09189 -2.32774,2.95923 -10.82168,7.6646 -13.63563,7.55369 -1.56305,-0.0616 -1.53628,-0.1764 0.21676,-0.92971 z m 7.5,-4.08935 c 1.66051,-1.35822 1.82841,-1.69779 0.5,-1.01125 -3.26177,1.68572 -5.07007,3.07046 -4,3.06305 0.55,-0.004 2.125,-0.92712 3.5,-2.0518 z m -26,-20.79987 c 0,-1.06763 -3.919,-5.9164 -3.96673,-4.90783 -0.0661,1.39692 2.30755,5.79705 3.12724,5.79705 0.46172,0 0.83949,-0.40015 0.83949,-0.88922 z m 21.44444,-10.55522 c -0.94344,-1.43989 -1.92362,-2.40971 -2.17817,-2.15516 -0.51437,0.51436 3.03972,5.58914 3.56363,5.08842 0.18145,-0.17341 -0.44201,-1.49338 -1.38546,-2.93326 z m 0.82353,-5.55556 c 0.94185,-1.1 1.37936,-2.00689 0.97224,-2.01531 -0.40711,-0.008 -0.0652,-0.45153 0.75979,-0.98469 0.91752,-0.59295 1.0339,-0.97532 0.29969,-0.98469 -0.66017,-0.008 -1.56017,0.58113 -2,1.3101 -0.43983,0.72898 -1.58719,1.61485 -2.54969,1.96862 -0.9625,0.35376 -1.75,1.10732 -1.75,1.67459 0,1.71468 2.44571,1.15963 4.26797,-0.96862 z m 126.83651,-94.28564 c 2.00603,-1.52786 3.4441,-5.71436 1.96291,-5.71436 -0.58707,0 -1.06739,0.65747 -1.06739,1.46105 0,0.80357 -0.98485,2.37857 -2.18856,3.5 -2.35307,2.19221 -1.35762,2.77215 1.29304,0.75331 z m -182.10448,91.32374 c 0,-1.17209 4.80481,-2.56662 5.71324,-1.6582 0.83964,0.83965 0.27231,1.22226 -2.96324,1.99848 -1.60649,0.38539 -2.75,0.2439 -2.75,-0.34028 z m 24.72917,-4.64227 c -0.40104,-0.40104 -0.72917,-1.50602 -0.72917,-2.45551 0,-0.94949 -0.73259,-2.00746 -1.62797,-2.35105 -1.23889,-0.47541 -1.49291,-1.45695 -1.06287,-4.10699 0.31081,-1.91525 0.14339,-3.48228 -0.37203,-3.48228 -0.51542,0 -0.93713,0.45 -0.93713,1 0,0.55 -0.45,1 -1,1 -0.55,0 -1,-1.07686 -1,-2.39301 0,-1.31616 -0.675,-2.65203 -1.5,-2.96862 -0.825,-0.31658 -1.5,-1.26472 -1.5,-2.10699 0,-2.16157 0.76558,-1.91544 3.3356,1.07239 2.15729,2.508 2.39905,2.55601 6.57317,1.30542 3.95106,-1.18377 4.45519,-1.13193 5.71236,0.58736 2.29045,3.13237 1.68858,7.41139 -1.4561,10.35224 -1.55923,1.45817 -3.03111,3.24184 -3.27083,3.96371 -0.23973,0.72187 -0.76399,0.98438 -1.16503,0.58333 z m 9.27083,-19.51246 c 0,-0.64931 -0.89731,-0.88198 -2.14405,-0.55595 -1.48147,0.38741 -1.82333,0.23996 -1.10622,-0.47715 0.57081,-0.57081 1.83584,-0.88313 2.81118,-0.69405 1.94504,0.37706 3.2656,2.84378 1.52242,2.84378 -0.59583,0 -1.08333,-0.50248 -1.08333,-1.11663 z m -8.43341,-3.42208 c -1.62435,-2.47908 -1.61531,-2.50866 0.38499,-1.25945 1.12663,0.70359 2.04842,1.84601 2.04842,2.53871 0,1.85759 -0.57671,1.55441 -2.43341,-1.27926 z m -7.82859,-11.12416 c -0.26826,-0.46042 -0.17274,-1.70423 0.21227,-2.76402 0.6713,-1.84789 0.72901,-1.85129 1.40765,-0.0828 0.71625,1.86653 -0.72024,4.39098 -1.61992,2.84679 z m 141.08828,-40.34246 c 1.27946,-1.06634 2.0404,-2.40137 1.69099,-2.96673 -0.34942,-0.56537 -0.13046,-1.02794 0.48657,-1.02794 0.61703,0 0.98109,-1.00141 0.80902,-2.22535 -0.2082,-1.48088 0.27258,-2.34176 1.43714,-2.57332 1.20478,-0.23957 1.75,0.28249 1.75,1.67566 0,1.11299 0.7875,2.48231 1.75,3.04291 0.9625,0.56061 1.21406,1.03297 0.55902,1.04969 -0.65504,0.0167 -1.45695,-0.39994 -1.78203,-0.92592 -0.32507,-0.52598 -1.24904,-0.70382 -2.05327,-0.39521 -0.80423,0.30861 -1.25517,0.89615 -1.00208,1.30565 0.48889,0.79105 -3.9738,5.06888 -5.22925,5.01262 -0.40831,-0.0183 0.30444,-0.90573 1.58389,-1.97206 z"
       id="path7679"
       inkscape:connector-curvature="0" />
    <path
       style="fill:#b18b61"
       d="m 223.04248,337.52969 c 1.6884,-0.64566 4.3884,-2.18908 6,-3.42984 l 2.93018,-2.25592 -2.8151,1.00592 c -3.51573,1.25628 -3.95817,1.2571 -3.1849,0.006 0.33992,-0.55 1.43079,-1 2.42416,-1 0.99337,0 3.03198,-0.96426 4.53026,-2.14281 2.72206,-2.14117 2.88885,-3.46729 1.05113,-8.35719 -0.75164,-2 -0.75164,-2 0.72221,0 2.69775,3.66082 2.92342,7.03808 0.66237,9.91255 -2.3081,2.93428 -10.81528,7.63047 -13.60689,7.51137 -1.08172,-0.0462 -0.57558,-0.53789 1.28658,-1.25 z m -8.23733,-1.89975 c -0.52388,-0.7008 -1.73972,-2.62417 -2.70185,-4.27417 l -1.74934,-3 2.059,2.5 c 1.13245,1.375 2.55455,3.0921 3.16023,3.81579 0.60568,0.72368 0.89496,1.52205 0.64285,1.77416 -0.25211,0.25211 -0.88701,-0.11499 -1.41089,-0.81578 z m -61.97259,-10.031 c -4.54759,-6.89153 -5.4415,-10.59561 -3.31666,-13.74317 0.73864,-1.09415 0.91031,-0.34958 0.6345,2.75189 -0.24472,2.75184 0.0982,4.64721 0.97207,5.37244 0.7426,0.61631 1.35019,1.74046 1.35019,2.49811 0,1.50057 1.22544,1.81879 2.41667,0.62756 0.4125,-0.4125 1.05,-0.77123 1.41666,-0.79718 2.08088,-0.14725 23.75976,-12.52284 29.67796,-16.94194 1.65621,-1.23668 6.63924,-4.07261 11.07339,-6.30206 4.43416,-2.22945 11.17908,-6.17596 14.98871,-8.77001 13.3153,-9.06663 20.99144,-14.13752 29.42661,-19.43933 25.71849,-16.16502 43.76361,-28.97551 65.65016,-46.60603 10.0425,-8.08965 14.25981,-10.87854 8.67526,-5.73693 -6.75366,6.21801 -13.2009,11.54302 -19.71678,16.28481 -3.35666,2.44273 -7.00428,5.29136 -8.10582,6.33028 -5.28727,4.98665 -19.45357,14.94656 -36.20383,25.45383 -11.91905,7.4767 -29.02588,19.03647 -34.75056,23.48233 -5.92175,4.59892 -13.66107,9.79223 -14.59284,9.79223 -0.52557,0 -0.95559,0.47656 -0.95559,1.05902 0,0.58246 -0.44921,0.78139 -0.99825,0.44206 -0.54903,-0.33932 -1.99916,0.0841 -3.2225,0.94099 -1.22334,0.85686 -1.72662,1.55793 -1.11839,1.55793 0.60823,0 1.34812,0.7875 1.64419,1.75 0.29607,0.9625 1.93266,4.1125 3.63686,7 1.7042,2.8875 2.94073,5.25 2.74784,5.25 -0.19289,0 -1.77976,-1.98991 -3.52637,-4.42202 l -3.17566,-4.42203 -18.48471,8.92203 c -10.16659,4.90711 -19.16383,8.92202 -19.99386,8.92202 -0.83003,0 -1.50915,0.45 -1.50915,1 0,2.1076 -2.592,0.84691 -4.6401,-2.25683 z m 73.24615,-17.80963 c -1.05074,-1.79169 -1.32689,-2.87905 -0.62027,-2.44233 0.84981,0.52521 1.10571,0.32487 0.76895,-0.60201 -0.2776,-0.76406 -0.99479,-1.2821 -1.59374,-1.1512 -0.59896,0.13091 -0.84953,-0.38608 -0.55683,-1.14885 0.2927,-0.76276 0.0548,-1.6819 -0.52869,-2.04251 -0.64927,-0.40127 -0.0371,-1.60448 1.57785,-3.10115 1.4513,-1.34502 2.23552,-2.45238 1.7427,-2.4608 -0.49281,-0.008 -0.22102,-0.45153 0.60398,-0.98469 0.91752,-0.59295 1.0339,-0.97532 0.29969,-0.98469 -0.66017,-0.008 -1.56017,0.54792 -2,1.23632 -1.08583,1.69949 -6.14718,4.23422 -6.91723,3.46416 -0.94615,-0.94614 1.22848,-2.68568 12.11754,-9.69314 5.5,-3.53943 12.475,-8.29269 15.5,-10.5628 5.1741,-3.8829 15.45439,-11.08899 28,-19.62691 3.025,-2.05867 10.675,-7.6029 17,-12.32051 15.92344,-11.87676 34.08739,-24.77277 48.20058,-34.22134 1.81468,-1.21491 5.60269,-3.58693 8.41779,-5.27118 3.10768,-1.85928 6.22554,-4.81383 7.93673,-7.52102 1.5501,-2.45232 3.01085,-4.26628 3.2461,-4.03102 0.85597,0.85596 -3.90515,9.29343 -6.56736,11.63842 -5.75627,5.07039 -16.14226,11.86661 -17.40919,11.39196 -0.72856,-0.27294 -2.67465,0.40032 -4.32465,1.49615 -1.65,1.09583 -2.64667,1.99539 -2.21482,1.99901 0.43185,0.004 1.9084,-0.72937 3.28121,-1.62887 1.37282,-0.8995 2.74385,-1.38764 3.04674,-1.08475 0.30289,0.30289 -4.32365,3.95376 -10.28121,8.11304 -16.92873,11.81883 -25.33514,17.88517 -28.7158,20.72225 -1.71387,1.43829 -4.15838,2.94056 -5.43225,3.33838 -1.27387,0.39781 -4.42696,2.59802 -7.00688,4.88935 -2.57992,2.29133 -13.40596,10.40033 -24.05787,18.02 -13.36079,9.55742 -19.60003,13.4771 -20.11812,12.63881 -0.48698,-0.78795 -0.97292,-0.85608 -1.38223,-0.19379 -0.34718,0.56174 -0.0975,1.19927 0.55487,1.41672 0.65236,0.21745 -1.52896,2.29987 -4.84737,4.62761 -7.76902,5.44966 -9.08869,7.7728 -6.86169,12.07935 0.91123,1.76212 1.51698,4.11009 1.3461,5.2177 -0.26719,1.73192 -0.57581,1.56174 -2.20463,-1.21567 z m -55.60605,-13.82655 c 0,-0.96183 2.432,-2.12691 4.33179,-2.07519 0.64251,0.0175 0.2947,0.6925 -0.77292,1.5 -2.20359,1.66671 -3.55887,1.88576 -3.55887,0.57519 z m 150.99947,-81.60635 c 1.99324,-2.40171 5.09761,-3.9172 4.42301,-2.15923 -0.29288,0.76323 -1.70848,1.9235 -3.14578,2.57838 -2.35468,1.07287 -2.48107,1.03139 -1.27723,-0.41915 z"
       id="path7677"
       inkscape:connector-curvature="0" />
    <path
       style="fill:#976734"
       d="m 232.01971,331.62112 c 2.17412,-2.32905 4.06545,-4.42905 4.20295,-4.66666 0.1375,-0.23761 0.25,0.21769 0.25,1.01178 0,1.8396 -5.48022,7.88953 -7.14658,7.88953 -0.69262,0 0.51951,-1.90559 2.69363,-4.23465 z m -73.54705,-5.94238 c 7.43094,-3.09625 20.28372,-10.2482 32.38909,-18.02298 4.68373,-3.00816 4.94624,-3.06188 6.25,-1.27889 1.69006,2.3113 1.71866,3.13336 0.11091,3.18823 -0.6875,0.0235 -9.61286,3.92346 -19.83414,8.66667 -10.22128,4.7432 -19.22128,8.59354 -20,8.55632 -0.77872,-0.0372 -0.29086,-0.53643 1.08414,-1.10935 z m 37.56086,-17.92144 c 1.0106,-1.63519 -2.01378,-0.89424 -4.56086,1.11738 l -2.5,1.97444 3.25184,-1.09514 c 1.78851,-0.60233 3.50257,-1.50083 3.80902,-1.99668 z m -38.56086,15.25034 c 0,-0.46646 1.9107,-1.70396 4.246,-2.75 2.3353,-1.04603 9.8728,-5.4415 16.75,-9.76772 6.8772,-4.32622 15.77401,-9.60642 19.7707,-11.73378 3.99668,-2.12735 13.67168,-8.08023 21.5,-13.22862 20.99806,-13.80962 31.6627,-20.67175 32.12659,-20.67175 0.97592,0 26.55819,-17.6374 31.10671,-21.44616 2.75,-2.30274 8.825,-7.02653 13.5,-10.49731 4.675,-3.47077 9.0625,-6.75845 9.75,-7.30596 0.6875,-0.5475 1.25,-0.77008 1.25,-0.49462 0,0.27546 -2.57718,2.46805 -5.72706,4.87244 -3.14988,2.40439 -6.41238,4.8984 -7.25,5.54225 -0.83762,0.64386 -4.22294,3.37763 -7.52294,6.07505 -8.30093,6.78519 -25.74117,18.78574 -46.14033,31.74896 -4.32282,2.74706 -13.69532,8.99691 -20.82777,13.88856 -7.13246,4.89165 -17.48246,11.35668 -23,14.36673 -5.51755,3.01004 -10.2569,5.7805 -10.5319,6.15656 -0.74139,1.01385 -17.84345,11.5441 -22.71016,13.98334 -4.51052,2.2607 -6.28984,2.61772 -6.28984,1.26203 z m 67.66667,-20.81854 c -1.21336,-1.21336 -0.69229,-4.06731 0.99705,-5.46089 1.51378,-1.24875 1.5519,-1.16263 0.423,0.9557 -0.6824,1.28048 -0.9952,2.96798 -0.69511,3.75 0.59055,1.53895 0.33011,1.81025 -0.72494,0.75519 z m -6.00973,-5.00972 c -0.37202,-0.37202 4.84048,-4.33327 11.58333,-8.80277 18.3765,-12.18089 63.09615,-43.89415 72.25973,-51.24351 3.54891,-2.84628 21.49813,-15.27733 22.05898,-15.27733 0.37725,0 0.0683,0.7875 -0.68654,1.75 -1.24196,1.58363 -1.20712,1.62039 0.36655,0.38669 0.95644,-0.74982 1.50754,-1.7378 1.22465,-2.19552 -0.94451,-1.52825 15.72688,-11.83649 19.44,-12.02012 1.0964,-0.0542 1.19166,-0.24132 0.30416,-0.5974 -0.78684,-0.31569 0.3864,-1.58331 3,-3.2413 2.36071,-1.49757 5.0797,-3.51089 6.0422,-4.47403 0.9625,-0.96315 1.73503,-1.38153 1.71673,-0.92975 -0.0693,1.71041 -3.78499,5.08627 -13.46673,12.23499 -5.5,4.06105 -11.575,8.57675 -13.5,10.03489 -1.925,1.45814 -6.28578,4.42875 -9.69062,6.60136 -3.40484,2.1726 -11.4506,7.88769 -17.87946,12.70019 -6.42887,4.8125 -12.13198,8.75 -12.6736,8.75 -0.54161,0 -3.52085,2.15677 -6.62053,4.79282 -6.76849,5.7561 -36.94614,27.76763 -42.13579,30.73377 -1.29319,0.73912 -1.31077,0.62405 -0.12756,-0.83463 2.09013,-2.57672 0.63785,-2.0512 -5.38782,1.94962 -5.85605,3.88819 -6.72514,4.91609 -3.42747,4.05373 1.61669,-0.42278 1.82293,-0.25574 0.96323,0.78013 -0.60165,0.72495 -1.94564,1.09536 -2.98663,0.82313 -1.91992,-0.50206 -8.03375,2.47887 -8.03375,3.91704 0,0.96262 -1.42285,1.02821 -2.34306,0.108 z m 28.46445,-17.41676 4.37861,-4.09316 -4.5,3.27109 c -6.0434,4.393 -6.60953,4.91522 -5.32861,4.91522 0.58927,0 3.04177,-1.84192 5.45,-4.09315 z m 89.6117,-63.6806 c 3.4468,-2.40949 6.26691,-4.5448 6.26691,-4.74514 0,-0.50568 -14.14349,8.26025 -15.44354,9.57168 -2.21029,2.22963 3.0116,-0.51688 9.17663,-4.82654 z"
       id="path7675"
       inkscape:connector-curvature="0" />
    <path
       style="fill:#6c4c25"
       d="m 232.0096,332.43974 c 0.87067,-1.32882 2.34279,-2.70758 3.27137,-3.0639 0.99065,-0.38015 0.47532,0.61822 -1.24709,2.41603 -3.53616,3.69096 -4.1461,3.88617 -2.02428,0.64787 z m -68.53694,-7.99447 c 0,-0.7155 11.30175,-6.62108 11.77169,-6.15114 0.23688,0.23688 -2.31485,1.81663 -5.6705,3.51056 -3.35565,1.69393 -6.10119,2.88219 -6.10119,2.64058 z m 1.5,-5.39053 c 3.85,-2.06163 9.62571,-5.44365 12.83491,-7.51559 3.2092,-2.07194 5.55188,-3.30921 5.20595,-2.74949 -1.48404,2.40122 -21.6459,14.11542 -24.16457,14.0398 -0.48196,-0.0145 2.27371,-1.71309 6.12371,-3.77472 z m 11.58333,-1.61041 c 1.56404,-1.54443 19.2266,-12.61197 19.57357,-12.265 0.23839,0.2384 -1.64721,1.6528 -4.19023,3.14311 -5.67747,3.32721 -5.24444,4.43893 0.62452,1.60336 2.35646,-1.13852 4.76245,-2.05957 5.34664,-2.04678 1.38684,0.0303 -19.21441,9.97675 -20.66412,9.97675 -0.60887,0 -0.91954,-0.18515 -0.69038,-0.41144 z m 7.91667,-9.92015 c 0,-0.61207 9.42686,-6.31126 17.5,-10.57996 4.4,-2.32652 7.325,-3.55343 6.5,-2.72647 -0.825,0.82696 -5.1,3.39331 -9.5,5.703 -4.4,2.30969 -9.19447,5.03994 -10.65437,6.06723 -2.49658,1.75676 -3.84563,2.29566 -3.84563,1.5362 z m 35,-10.47091 c 0,-0.53915 5.03555,-4.29165 11.19012,-8.33889 14.38813,-9.46163 14.24996,-9.3797 13.34261,-7.91156 -0.40789,0.65998 -3.95509,3.25974 -7.88267,5.77725 -6.18952,3.96739 -6.87515,4.6883 -5.14555,5.41033 1.78755,0.74622 1.73498,0.82317 -0.50451,0.7385 -4.17781,-0.15794 -4.73506,0.0331 -7.92327,2.71576 -1.6922,1.4239 -3.07673,2.14777 -3.07673,1.60861 z m -8.56498,-5.09235 c 0.372,-0.60192 1.60561,-1.59171 2.74135,-2.19954 1.47955,-0.79183 1.87323,-0.79488 1.38861,-0.0108 -0.372,0.60192 -1.60561,1.59171 -2.74135,2.19954 -1.47955,0.79183 -1.87323,0.79488 -1.38861,0.0108 z m 6.00771,-4.01249 c 0.37625,-0.60879 2.11806,-1.80047 3.87068,-2.64818 2.9579,-1.43068 3.04306,-1.42492 1.18659,0.0804 -3.03731,2.46278 -5.88642,3.90939 -5.05727,2.56779 z m 28.91633,-8.82972 c 0.71832,-1.19601 8.14559,-6.62808 10.10294,-7.38898 0.52909,-0.20568 2.29375,-1.59033 3.92145,-3.07701 1.62771,-1.48668 3.33231,-2.47262 3.78801,-2.19098 0.4557,0.28163 0.82854,0.0903 0.82854,-0.42518 0,-0.51548 2.5875,-2.66574 5.75,-4.77837 3.1625,-2.11262 7.6625,-5.34755 10,-7.18872 2.3375,-1.84118 4.25,-3.09688 4.25,-2.79044 0,0.30644 0.7875,-0.0886 1.75,-0.87786 5.60745,-4.59819 12.88005,-9.5454 14.03211,-9.5454 0.73476,0 1.09863,-0.38396 0.80859,-0.85324 -0.29003,-0.46928 1.48342,-2.29724 3.94099,-4.06213 2.45757,-1.7649 4.46831,-2.9382 4.46831,-2.60734 0,0.74087 2.42433,-1.21522 5.2743,-4.25562 1.17461,-1.25309 2.70399,-2.06024 3.39865,-1.79368 0.69465,0.26657 1.57194,-0.0152 1.94953,-0.62617 0.41573,-0.67266 0.23113,-0.82938 -0.46797,-0.39731 -2.46001,1.52037 -1.00335,-0.27286 1.59549,-1.96415 2.39339,-1.55757 2.57202,-1.57249 1.37756,-0.11501 -0.75485,0.92106 -0.92245,1.67465 -0.37245,1.67465 1.52767,0 3.3235,-2.57075 2.48621,-3.55904 -0.40772,-0.48126 0.0705,-0.25207 1.06274,0.50932 1.6713,1.28247 1.4567,1.61122 -2.91596,4.46703 -12.03455,7.85986 -15.69154,10.39349 -21.09092,14.61219 -3.18845,2.49123 -8.06062,5.91362 -10.82704,7.60531 -2.76642,1.69168 -6.59142,4.52904 -8.5,6.30524 -1.90858,1.77619 -5.94514,4.97219 -8.97014,7.10221 -3.025,2.13002 -9.53599,6.79658 -14.46887,10.37013 -5.89011,4.26701 -9.21085,6.10584 -9.67378,5.35679 -0.51038,-0.8258 -1.1929,-0.74436 -2.47309,0.29512 -1.07025,0.86901 -1.47491,0.94741 -1.0252,0.19864 z m 7.47869,-3.01294 c 1.01076,-0.9625 2.67996,-2.2375 3.70933,-2.83333 1.48727,-0.86088 1.54803,-1.08334 0.29592,-1.08334 -1.86938,0 -8.91311,5.6006 -7.093,5.63977 0.6875,0.0148 2.07699,-0.7606 3.08775,-1.7231 z m 80.66558,-60.25539 c 0.89292,-1.44478 6.57531,-4.2493 7.24759,-3.57702 0.31078,0.31078 1.28147,0.007 2.15707,-0.67627 1.40633,-1.09654 1.433,-1.0385 0.2287,0.49767 -0.74982,0.95644 -1.77713,1.48323 -2.28291,1.17064 -0.50578,-0.31259 -2.50683,0.36814 -4.44677,1.51274 -1.93995,1.14459 -3.2466,1.6271 -2.90368,1.07224 z m 16.49667,-10.54627 c 0,-0.12008 1.14242,-0.96686 2.53871,-1.88175 2.43638,-1.59637 2.49134,-1.58757 1.36354,0.21833 -0.91724,1.46873 -3.90225,2.74116 -3.90225,1.66342 z"
       id="path7673"
       inkscape:connector-curvature="0" />
    <path
       style="fill:#5c350c"
       d="m 171.97266,315.33766 c 1.1,-0.89564 2.9,-2.07029 4,-2.61033 2,-0.98189 2,-0.98189 0,0.64655 -1.1,0.89564 -2.9,2.07029 -4,2.61033 -2,0.98189 -2,0.98189 0,-0.64655 z m 12.5,-7.85743 c 0,-0.2348 1.60204,-1.37213 3.56008,-2.52741 1.95805,-1.15527 3.27951,-1.64652 2.93659,-1.09166 -0.66971,1.08361 -6.49667,4.32961 -6.49667,3.61907 z m 16,-9.0731 c 0,-0.275 1.35,-1.19811 3,-2.05136 1.65,-0.85325 3,-1.32636 3,-1.05136 0,0.275 -1.35,1.19811 -3,2.05136 -1.65,0.85325 -3,1.32636 -3,1.05136 z m 37.5,-14.06947 c 1.1,-0.89564 2.9,-2.07029 4,-2.61033 2,-0.98189 2,-0.98189 0,0.64655 -1.1,0.89564 -2.9,2.07029 -4,2.61033 -2,0.98189 -2,0.98189 0,-0.64655 z m 20.38716,-13.27227 c -1.08377,-1.43553 -1.07072,-1.51397 0.0814,-0.48928 1.10887,0.98621 2.25076,0.4412 5.95177,-2.84073 2.51881,-2.23359 5.82409,-5.03275 7.34506,-6.22035 1.52097,-1.18759 3.53348,-2.94676 4.47224,-3.90926 0.93876,-0.9625 2.20083,-1.75 2.8046,-1.75 0.60377,0 2.86626,-1.49645 5.02776,-3.32543 2.1615,-1.82899 6.855,-5.27109 10.43,-7.64911 3.575,-2.37802 7.4,-5.33101 8.5,-6.5622 1.92997,-2.16015 7.08279,-4.21525 5.94236,-2.37 -0.30821,0.49871 -1.28383,0.90674 -2.16803,0.90674 -0.88421,0 -1.31861,0.28905 -0.96533,0.64232 0.35328,0.35328 -1.76839,2.26578 -4.71482,4.25 -13.00813,8.76009 -16.29724,11.16271 -18.51913,13.5278 -1.30117,1.38503 -2.69021,2.31772 -3.08675,2.07264 -0.39655,-0.24508 -1.52588,0.44379 -2.50963,1.53082 -0.98375,1.08703 -2.39389,1.97642 -3.13365,1.97642 -0.73975,0 -1.23251,0.37797 -1.09501,0.83992 0.1375,0.46196 -2.74748,3.14379 -6.41106,5.95963 -6.07776,4.67136 -6.7741,4.96999 -7.95178,3.41007 z m 56.61205,-41.2109 c -0.27981,-0.45273 0.28091,-0.70139 1.24603,-0.55258 0.96512,0.14882 2.12652,-0.22818 2.58089,-0.83778 0.54736,-0.73435 0.69779,-0.63168 0.44579,0.30427 -0.42579,1.58142 -3.48585,2.35926 -4.27271,1.08609 z"
       id="path7671"
       inkscape:connector-curvature="0" />
  </g>
</svg>
