<?xml version="1.0" encoding="UTF-8" standalone="no"?>
<svg
   xmlns:dc="http://purl.org/dc/elements/1.1/"
   xmlns:cc="http://creativecommons.org/ns#"
   xmlns:rdf="http://www.w3.org/1999/02/22-rdf-syntax-ns#"
   xmlns:svg="http://www.w3.org/2000/svg"
   xmlns="http://www.w3.org/2000/svg"
   xmlns:sodipodi="http://sodipodi.sourceforge.net/DTD/sodipodi-0.dtd"
   xmlns:inkscape="http://www.inkscape.org/namespaces/inkscape"
   viewBox="0 0 512 512"
   id="svg8438"
   version="1.1"
   inkscape:version="0.48.4 r9939"
   width="100%"
   height="100%"
   sodipodi:docname="cold sword.svg"
   inkscape:export-filename="C:\Users\Chris\Documents\botgame\myedits\honed blade.svg.png"
   inkscape:export-xdpi="90"
   inkscape:export-ydpi="90">
  <metadata
     id="metadata8464">
    <rdf:RDF>
      <cc:Work
         rdf:about="">
        <dc:format>image/svg+xml</dc:format>
        <dc:type
           rdf:resource="http://purl.org/dc/dcmitype/StillImage" />
        <dc:title></dc:title>
      </cc:Work>
    </rdf:RDF>
  </metadata>
  <defs
     id="defs8462">
    <linearGradient
       id="linearGradient4077">
      <stop
         id="stop4079"
         offset="0"
         style="stop-color:#aa4400;stop-opacity:1;" />
      <stop
         style="stop-color:#ff9f00;stop-opacity:1;"
         offset="0.22752622"
         id="stop4081" />
      <stop
         style="stop-color:#803300;stop-opacity:1;"
         offset="0.4948855"
         id="stop4083" />
      <stop
         id="stop4085"
         offset="1"
         style="stop-color:#562200;stop-opacity:1;" />
    </linearGradient>
    <linearGradient
       id="linearGradient4057">
      <stop
         style="stop-color:#aa4400;stop-opacity:1;"
         offset="0"
         id="stop4059" />
      <stop
         id="stop4067"
         offset="0.22752622"
         style="stop-color:#ecd1a4;stop-opacity:1;" />
      <stop
         id="stop4065"
         offset="0.50136983"
         style="stop-color:#803300;stop-opacity:1;" />
      <stop
         style="stop-color:#562200;stop-opacity:1;"
         offset="1"
         id="stop4061" />
    </linearGradient>
    <linearGradient
       id="linearGradient3890">
      <stop
         style="stop-color:#701b1b;stop-opacity:1;"
         offset="0"
         id="stop3892" />
      <stop
         style="stop-color:#e31600;stop-opacity:1;"
         offset="1"
         id="stop3894" />
    </linearGradient>
    <linearGradient
       id="linearGradient3882">
      <stop
         style="stop-color:#600b0b;stop-opacity:1;"
         offset="0"
         id="stop3884" />
      <stop
         style="stop-color:#d11414;stop-opacity:1;"
         offset="1"
         id="stop3886" />
    </linearGradient>
    <linearGradient
       id="linearGradient3872">
      <stop
         style="stop-color:#800600;stop-opacity:1;"
         offset="0"
         id="stop3874" />
      <stop
         style="stop-color:#ff0004;stop-opacity:0;"
         offset="1"
         id="stop3876" />
    </linearGradient>
  </defs>
  <sodipodi:namedview
     pagecolor="#000000"
     bordercolor="#666666"
     borderopacity="1"
     objecttolerance="10"
     gridtolerance="10"
     guidetolerance="10"
     inkscape:pageopacity="0"
     inkscape:pageshadow="2"
     inkscape:window-width="1190"
     inkscape:window-height="1126"
     id="namedview8460"
     showgrid="false"
     inkscape:zoom="1"
     inkscape:cx="148.22127"
     inkscape:cy="294.66255"
     inkscape:window-x="160"
     inkscape:window-y="130"
     inkscape:window-maximized="0"
     inkscape:current-layer="g8466" />
  <g
     id="g8466">
    <g
       id="g5295"
       transform="translate(8,42)" />
    <rect
       style="fill:#000000;fill-opacity:1;fill-rule:nonzero;stroke:none"
       id="rect5374"
       width="516"
       height="515"
       x="0.84330863"
       y="-1.5527599" />
    <path
       inkscape:connector-curvature="0"
       id="path5896"
       d="m 379.35362,369.43204 c -0.88353,0.3582 -17.78952,-14.96887 -18.41062,-16.69119 -0.0619,-0.17162 -3.89093,-4.26846 -8.50898,-9.10409 -4.61805,-4.83562 -8.45426,-8.95235 -8.52491,-9.14827 -1.26332,-3.50317 -13.14039,-10.64414 -12.9297,-7.77385 0.0523,0.71281 -0.20217,1.59316 -0.56555,1.95634 -0.98186,0.98136 -0.29709,2.20498 1.79466,3.20683 1.02185,0.48943 2.01558,1.32201 2.20828,1.85018 0.1929,0.52809 1.12707,1.58988 2.07639,2.35935 0.94932,0.76947 1.85991,1.7652 2.02352,2.21273 0.16382,0.44745 1.84599,2.42255 3.73861,4.38893 1.89263,1.96639 3.55981,3.90434 3.70486,4.30657 0.43318,1.20121 9.7142,11.92101 11.38645,13.15163 2.04211,1.50279 4.13429,4.31447 5.00307,6.72359 0.46298,1.28385 1.65649,2.60761 3.51093,3.89413 3.09833,2.14946 5.42576,5.14108 4.02471,5.17328 -0.45069,0.0104 -7.15148,-6.36517 -14.89063,-14.16784 -7.73915,-7.80267 -16.57293,-16.47803 -19.63061,-19.27859 -3.05769,-2.80056 -7.86315,-7.43015 -10.67881,-10.28799 -2.81566,-2.85783 -7.28165,-7.18624 -9.92443,-9.61869 -2.64278,-2.43245 -7.06223,-6.57695 -9.82101,-9.20999 -2.75878,-2.63305 -5.6948,-5.17191 -6.52449,-5.64191 -0.82969,-0.47 -3.03949,-2.6437 -4.91067,-4.83044 -3.12376,-3.65056 -19.16831,-18.80256 -22.89958,-21.62568 -0.87579,-0.66264 -5.35774,-5.00314 -9.95987,-9.64555 -4.60212,-4.64242 -8.80923,-8.7339 -9.34912,-9.09219 -3.42662,-2.27401 -16.7895,-14.57007 -18.85109,-17.34612 -3.09766,-4.17117 -3.08205,-4.11584 -1.00456,-3.55889 3.03178,0.81278 2.24197,-0.36872 -4.71502,-7.05338 -6.56175,-6.30489 -9.09499,-8.38486 -9.36174,-7.68667 -0.24287,0.63571 3.32009,4.34856 5.13009,5.3459 1.85099,1.01994 3.95253,3.27046 4.51788,4.83818 0.46375,1.28599 -1.3715,0.99857 -2.33531,-0.36573 -0.45592,-0.64537 -1.99986,-1.95798 -3.43096,-2.9169 -1.43111,-0.95893 -4.31689,-3.2828 -6.41284,-5.16416 -4.14733,-3.72271 -6.73879,-5.23067 -8.3929,-4.88382 -0.74149,0.15549 -1.17302,-0.2263 -1.42936,-1.2646 -0.51414,-2.08257 -3.40372,-5.40328 -6.48999,-7.45832 -4.39758,-2.92819 -11.58852,-10.2184 -11.81472,-11.97782 -0.24882,-1.93544 -5.27255,-6.14706 -6.96384,-5.83809 -1.81534,0.33164 -2.88977,-0.34146 -3.57408,-2.23904 -0.65482,-1.81584 -2.06107,-2.82089 -11.15336,-7.97134 -4.14223,-2.34642 -8.67587,-4.19429 -9.48531,-3.86613 -0.69429,0.28149 4.24349,3.98171 9.39031,7.03682 3.0813,1.82903 6.68445,4.20926 8.00702,5.28941 1.32256,1.08014 3.09265,2.14834 3.93354,2.37377 0.84089,0.22543 2.18093,1.19308 2.97788,2.15034 0.79695,0.95724 2.1239,2.21763 2.94879,2.80085 1.99867,1.41314 2.32959,2.55345 1.09589,3.77636 -1.4159,1.40353 -1.78232,1.25977 -8.52999,-3.34657 -11.24237,-7.67469 -11.31013,-7.72873 -11.52369,-9.18909 -0.28534,-1.95123 -3.78639,-4.61792 -5.52608,-4.20911 -3.20553,0.75328 -6.99774,-1.63826 -22.05333,-13.90781 -11.90346,-9.70075 -17.42396,-15.1335 -9.36459,-9.21575 1.6862,1.23812 3.59874,2.23026 4.25009,2.20475 0.80041,-0.0313 1.38244,0.50315 1.79566,1.649 1.04375,2.89433 3.56139,3.58588 4.22225,1.15978 1.06776,-3.91991 -2.27788,-8.03793 -9.66808,-11.90007 -2.68569,-1.40355 -5.57545,-3.36162 -6.4217,-4.35127 -0.84624,-0.98964 -1.77604,-1.7031 -2.06623,-1.58545 -0.65778,0.26668 -2.2191,-1.78049 -2.64908,-3.47343 -0.17721,-0.69772 -1.70304,-2.44028 -3.39072,-3.87236 -10.24475,-8.69314 -10.84549,-9.33753 -11.18788,-12.0008 -0.37901,-2.9481 1.88655,-2.6429 5.31336,0.71579 1.6566,1.62367 4.25593,3.71806 5.77629,4.6542 1.52036,0.93614 4.27594,2.66332 6.12351,3.83819 3.26084,2.07356 4.36475,2.72905 9.26674,5.50251 1.34425,0.76056 2.82082,2.23443 3.48906,3.48269 3.72901,6.9657 9.01293,10.06338 11.30321,6.62646 1.11769,-1.67726 2.88622,-1.10398 4.2053,1.36318 0.57911,1.08315 1.33691,2.2144 1.684,2.51389 0.37155,0.32059 0.23367,0.89478 -0.33529,1.39625 -1.2042,1.06137 -0.32599,2.82555 1.23562,2.48218 3.24725,-0.71401 3.76665,-0.6171 4.27696,0.79799 0.28552,0.79175 0.28038,1.92827 -0.0114,2.52559 -0.99195,2.03048 0.29041,3.43691 5.50097,6.0332 2.84784,1.41901 5.55976,3.13355 6.02648,3.8101 0.46672,0.67654 1.06749,1.14132 1.33505,1.03284 0.26756,-0.10847 1.16227,0.47916 1.98826,1.30586 0.82599,0.82669 3.69067,2.73479 6.36597,4.24022 2.6753,1.50543 6.40521,4.19523 8.2887,5.97733 4.30334,4.0717 7.36575,5.9133 7.56937,4.55188 0.27558,-1.84248 2.0905,-1.03178 2.93543,1.31121 0.56861,1.57676 1.89355,3.13739 4.54295,5.35109 2.05712,1.71883 4.36001,3.6934 5.11752,4.38795 2.92275,2.67979 7.41912,5.7799 10.43236,7.1928 1.72957,0.81099 3.31112,1.93609 3.51456,2.50021 0.20343,0.56413 1.33821,1.7929 2.52172,2.73059 1.18351,0.9377 2.33495,2.21265 2.55874,2.83323 0.22379,0.62058 0.82597,1.13964 1.33817,1.15347 0.5122,0.0138 1.10792,0.51433 1.32381,1.11225 0.84188,2.33111 4.29893,5.94903 12.34235,12.91596 3.17948,2.75396 6.48045,4.83546 7.20346,4.54233 0.38791,-0.15727 1.05405,0.43843 1.48032,1.32376 0.57315,1.19043 1.25149,1.59876 2.60429,1.56767 2.87005,-0.0659 3.47814,0.26815 4.21692,2.31678 0.38516,1.06806 1.67243,2.67749 2.91091,3.6394 3.351,2.60269 5.52177,5.63674 4.5429,6.34953 -0.42054,0.30623 -1.08226,0.25969 -1.47051,-0.10342 -0.38825,-0.36311 -1.64199,-1.22515 -2.78609,-1.91565 -1.1441,-0.6905 -2.88392,-2.05254 -3.86627,-3.02675 -5.23529,-5.19191 -6.17891,-2.35541 -1.07937,3.24458 2.05468,2.25633 5.28485,6.18129 7.17813,8.72215 1.89329,2.54084 4.57228,5.37561 5.9533,6.29948 1.38102,0.92386 2.61581,1.97052 2.74397,2.32591 0.12816,0.35539 0.99716,1.03895 1.93111,1.51903 0.93395,0.48007 2.85089,2.14277 4.25987,3.69488 2.39666,2.64011 4.39952,4.55978 10.2271,9.80238 1.30311,1.17229 3.76977,3.4676 5.48148,5.10069 1.71169,1.63309 4.24136,3.5342 5.62146,4.2247 1.3801,0.69049 3.51882,2.50967 4.75269,4.04262 1.23387,1.53294 3.45879,3.99365 4.94428,5.46822 1.48548,1.47457 3.48247,3.49834 4.43776,4.49727 0.9553,0.99892 2.28981,2.37912 2.96557,3.0671 0.67578,0.68798 1.86362,1.30423 2.63966,1.36943 1.14818,0.0965 1.60175,0.62925 2.43524,2.86053 0.70741,1.89382 1.67185,3.23684 3.11785,4.34179 1.15148,0.8799 2.92241,2.29511 3.9354,3.14491 2.23401,1.87408 4.48558,2.44558 3.96674,1.00683 -0.18845,-0.52256 -1.30098,-1.7354 -2.4723,-2.69521 -1.87606,-1.5373 -2.22748,-2.16364 -2.95122,-5.25986 -0.75903,-3.24721 -0.73282,-3.43091 0.34428,-2.4133 1.16983,1.1052 3.47556,0.80679 3.04261,-0.39379 -0.90138,-2.49952 -4.5049,-4.16624 -4.79624,-2.21837 -0.20729,1.38592 -1.06785,1.14272 -3.39402,-0.95917 -2.90251,-2.62266 -3.17772,-3.37254 -1.48902,-4.05719 1.41653,-0.5743 1.35235,-1.70782 -0.18446,-3.25784 -0.47253,-0.47657 -1.68956,-1.74164 -2.70452,-2.81127 -2.16403,-2.28054 -4.40816,-3.18826 -4.87316,-1.97112 -0.61048,1.5979 -1.58558,1.29747 -3.50033,-1.07849 -2.30427,-2.85929 -2.2194,-3.73415 0.24761,-2.55256 0.98998,0.47416 1.97365,0.60411 2.18594,0.28878 0.78063,-1.15959 6.59269,0.57362 8.98438,2.67922 2.52984,2.22721 3.37997,2.30841 3.93005,0.37534 0.28831,-1.01315 0.0199,-1.398 -1.61683,-2.31782 -1.52065,-0.85461 -2.06093,-1.56742 -2.39955,-3.16579 -0.35737,-1.68685 -0.98246,-2.42019 -3.42946,-4.02337 -1.80007,-1.17935 -4.33166,-3.72066 -6.35343,-6.37784 -4.12028,-5.41521 -4.1276,-5.4332 -1.28056,-3.14945 1.26888,1.01782 3.15016,2.39869 4.18063,3.06858 1.03048,0.66989 2.08976,1.81455 2.35396,2.54368 0.7968,2.19929 3.88115,4.49435 5.27842,3.92786 1.2267,-0.49734 2.89158,-0.0195 3.23325,0.92789 0.0969,0.26857 -0.42735,0.73295 -1.16488,1.03196 -1.80699,0.73261 -1.35451,1.70553 2.7375,5.88621 4.0265,4.11377 4.0356,4.13198 2.76437,5.53452 -1.44407,1.59324 -0.76854,3.37241 2.50948,6.60937 1.59911,1.57908 3.12968,3.48725 3.40128,4.24039 0.27159,0.75313 1.15723,1.67139 1.96808,2.04057 0.81085,0.36917 2.14423,1.68761 2.96307,2.92985 0.81884,1.24225 3.42235,4.30813 5.78556,6.81307 2.36322,2.50494 6.69374,7.2031 9.62339,10.44036 5.86476,6.48055 13.0024,13.63736 15.48116,15.52273 2.45071,1.86404 12.57793,12.92622 13.06162,14.26748 0.10628,0.29471 -0.0107,0.61852 -0.26002,0.71959 z M 366.4826,345.61662 c -0.42019,-0.21443 -4.49641,-4.12161 -9.05828,-8.68262 -4.56187,-4.56101 -8.767,-8.48279 -9.34474,-8.71507 -0.57774,-0.23228 -1.21231,-0.8712 -1.41015,-1.41982 -0.19785,-0.54863 -2.62002,-3.10878 -5.38262,-5.68924 -5.75092,-5.37178 -9.75622,-9.80334 -9.49005,-10.50005 0.10049,-0.26301 0.85652,0.30582 1.68008,1.26406 0.82356,0.95824 2.77996,2.5612 4.34755,3.56213 1.56759,1.00092 3.51822,2.72867 4.33473,3.83943 0.81652,1.11076 2.42042,2.81448 3.56423,3.78604 1.14381,0.97156 2.21874,2.15212 2.38871,2.62347 0.16998,0.47135 2.1399,2.74848 4.3776,5.06027 2.2377,2.3118 6.47343,6.69132 9.41273,9.73227 2.9393,3.04095 5.00039,5.35356 4.58021,5.13913 z m -61.84667,-50.13339 c -1.64348,-1.13114 -2.99147,-3.68443 -2.12964,-4.03384 0.53875,-0.21842 2.85871,2.62477 3.3884,4.1526 0.24896,0.71808 -0.0892,0.68618 -1.25876,-0.11876 z m -11.19699,-23.70332 c -0.57775,-0.48516 -2.11895,-1.74926 -3.42489,-2.80909 -2.66234,-2.16061 -3.71835,-3.884 -1.94243,-3.17 1.4834,0.5964 5.70027,4.6508 6.09186,5.85716 0.27564,0.84908 0.1638,0.86791 -0.72454,0.12193 z m 4.14442,15.09494 c -1.04059,1.04005 -3.30545,0.36911 -3.36373,-0.99647 -0.0961,-2.2526 0.074,-2.39469 1.84948,-1.54433 2.03912,0.97665 2.4274,1.62813 1.51425,2.5408 z m 2.21737,8.81302 c -0.35534,0.52786 -3.77507,-1.9396 -4.16492,-3.00515 -0.0881,-0.2408 -0.44686,-0.15128 -0.79723,0.19892 -0.75118,0.75079 -2.13381,-0.91356 -2.16874,-2.61062 -0.0275,-1.33642 1.74339,-0.97214 2.26174,0.46524 0.16297,0.45191 0.57513,0.54298 0.91591,0.20237 1.43771,-1.43695 5.13092,2.99989 3.95324,4.74924 z m -39.5928,-54.81533 c -2.0412,-0.9925 -2.85338,-1.06087 -3.81373,-0.32105 -0.68968,0.53132 -1.47946,0.71631 -1.8165,0.42548 -0.85791,-0.74025 -1.66079,-0.25784 -1.2886,0.77426 0.69805,1.93568 -0.64646,1.92955 -4.52932,-0.0207 -2.2411,-1.12562 -4.73303,-2.25192 -5.53762,-2.5029 -1.46274,-0.45627 -6.16741,-10.09248 -5.13233,-10.51214 0.69588,-0.28213 3.73183,1.69481 4.07836,2.65573 0.43917,1.21783 3.14348,2.48262 3.08044,1.44069 -0.0814,-1.34485 1.84629,-0.76742 3.57214,1.07 1.61015,1.71426 1.75352,1.73301 3.81615,0.49922 2.48911,-1.48892 6.42125,0.92196 8.90972,5.46272 l 1.25482,2.28969 -2.59353,-1.26104 z m -36.33699,-37.46205 c -0.21064,1.95721 -6.08259,-1.23819 -8.26256,-4.49632 -0.73514,-1.09871 -2.12788,-2.40862 -3.09499,-2.91091 -0.9671,-0.50228 -2.41009,-1.79711 -3.20663,-2.87739 -0.79653,-1.08027 -2.77805,-3.20411 -4.40336,-4.71963 -3.37918,-3.15093 -5.05353,-5.0761 -3.89164,-4.47462 1.5974,0.82693 10.32731,7.88679 13.05685,10.55905 1.57294,1.53993 4.40891,3.61892 6.30215,4.61997 3.70716,1.96015 3.74675,2.00879 3.50018,4.29985 z m -9.49606,0.27504 c -0.21298,0.31636 0.0312,1.29966 0.54253,2.1851 1.24737,2.15984 0.59196,2.88711 -2.33373,2.5896 -2.86677,-0.29152 -3.70007,-0.79502 -3.35025,-2.02432 0.49035,-1.72313 -4.72364,-7.1857 -12.6133,-13.21464 -3.10434,-2.37221 -8.49703,-7.72055 -8.89373,-8.82059 -0.49801,-1.38099 1.8444,-0.0207 6.22782,3.61657 7.27209,6.03427 12.33517,10.05404 14.04588,11.15154 l 1.45042,0.93051 -1.22761,-2.29098 -1.2276,-2.29097 1.53707,0.69982 c 0.84539,0.38491 1.6509,0.99842 1.79003,1.36336 0.1391,0.36494 0.97258,1.15882 1.85214,1.76418 1.71026,1.17711 2.83559,3.39717 2.20033,4.34082 z m -9.65676,-9.71306 c -0.7484,0.30343 -3.46257,-2.03884 -3.18871,-2.75178 0.12585,-0.3276 0.92461,-0.13451 1.77504,0.4291 1.69596,1.12396 2.22528,1.99363 1.41367,2.32268 z m -37.0285,-25.56482 c -0.35682,0.14467 -2.13788,-0.59527 -3.9579,-1.6443 l -3.30912,-1.90733 -0.49502,1.81729 c -0.60911,2.23611 -2.03352,2.32651 -3.38146,0.2146 -0.73449,-1.15078 -0.82141,-1.85007 -0.3365,-2.70738 0.58489,-1.0341 0.52804,-1.23504 -0.53961,-1.90748 -0.65635,-0.41338 -2.2604,-1.73571 -3.56455,-2.9385 -1.30414,-1.20279 -3.26593,-2.61119 -4.35952,-3.12977 -2.09587,-0.99388 -5.97899,-4.88029 -6.05007,-6.05522 -0.023,-0.38058 1.75746,0.0227 3.95665,0.89623 3.97871,1.58031 5.45213,1.70204 4.98691,0.412 -0.15032,-0.41685 0.32376,-0.73821 1.2351,-0.83722 3.2916,-0.35758 0.67558,-3.81513 -6.27413,-8.2924 -8.63266,-5.56148 -37.4565,-20.43932 -38.65619,-19.95294 -0.64911,0.26317 -9.154026,-2.16139 -11.640558,-3.31846 -8.329538,-3.87601 -12.868198,-2.31823 -4.778927,1.64025 6.67155,3.26472 7.488276,4.25342 4.075606,4.93375 -2.662243,0.53073 -2.710452,1.7299 -0.117018,2.91069 2.490173,1.13377 4.273787,3.16289 3.740232,4.25505 -0.635682,1.30122 -1.346918,0.92721 -5.703534,-2.99919 -3.344006,-3.01379 -4.088746,-3.41446 -5.376276,-2.89246 -1.036746,0.42033 -1.87486,0.23554 -2.736063,-0.60327 -1.060386,-1.0328 -6.01866,-1.9411 -6.318076,-1.15739 -0.05568,0.14574 2.150866,2.29547 4.903437,4.77718 2.752571,2.48171 5.063096,4.90332 5.134503,5.38137 0.144915,0.97019 -6.868209,-3.88582 -10.543114,-7.30024 -1.3059,-1.21333 -3.695591,-3.23682 -5.310426,-4.49665 -7.83111,-6.10948 -12.882253,-11.23502 -11.588759,-11.75944 0.964877,-0.39119 8.872574,-0.0104 13.240871,0.6376 5.272346,0.78212 5.677088,0.64232 4.842295,-1.67256 -0.39507,-1.09553 -0.380221,-1.94467 0.03697,-2.11381 1.191785,-0.48318 2.482372,0.57563 3.230578,2.65041 0.768273,2.13042 1.05377,2.32046 5.258511,3.50026 2.757757,0.7738 12.053919,3.45838 18.670878,5.39185 18.06805,5.27948 51.24017,25.67476 48.7938,29.99999 -0.57677,1.01973 -0.53653,1.13206 0.56409,1.57447 0.96794,0.38924 4.01531,3.40746 4.33484,4.29352 0.0457,0.12686 -0.39957,0.42636 -0.98959,0.66557 -1.08706,0.44073 -0.95867,2.07038 0.1845,2.342 1.8002,0.42771 9.84845,8.98172 8.83664,9.39193 z m -35.86775,-23.72801 c -0.31084,0.81361 -2.60697,0.21859 -2.96266,-0.76774 -0.17503,-0.48535 -0.98381,-0.81014 -1.79731,-0.72177 -1.24353,0.1351 -1.60847,-0.19814 -2.29163,-2.09254 -0.44691,-1.23928 -1.21539,-2.46245 -1.70774,-2.71817 -0.49236,-0.25571 -0.81229,-0.68191 -0.71098,-0.94711 0.10132,-0.26519 0.57293,-0.22528 1.04785,0.0882 7.80127,5.15237 8.84893,6.04288 8.42247,7.15911 z M 115.0253,104.38391 c -2.27597,0.9487 -4.66292,0.79712 -4.50094,-0.28584 0.18276,-1.22199 3.06875,-1.96794 4.84114,-1.2513 l 1.69919,0.68704 -2.03938,0.85011 z m -1.37477,28.83427 c -1.34329,2.11479 -1.41633,2.11505 -5.64535,0.0199 -4.79954,-2.37783 -7.51494,-6.4108 -4.79583,-7.12287 1.67529,-0.43872 3.34541,1.31521 1.83533,1.92743 -1.54387,0.62593 -0.25131,2.07644 2.98924,3.3545 3.68244,1.45235 5.22128,0.8992 2.23462,-0.80326 -3.7192,-2.12003 -3.09615,-3.02848 1.00132,-1.45997 3.27191,1.25248 3.70618,1.99753 2.38067,4.08431 z m 8.92691,30.74995 c -1.10128,-0.26166 -10.48061,-8.00002 -10.29268,-8.49192 0.18519,-0.48472 6.22093,4.0173 9.082,6.77421 1.08338,1.04393 1.62818,1.8169 1.21068,1.71771 z m -16.50439,-7.0056 c -0.011,1.68559 -0.22989,2.22351 -0.72948,1.79243 -0.88661,-0.76502 -1.16141,-2.78406 -0.54943,-4.03677 0.70938,-1.45205 1.29627,-0.42213 1.27891,2.24434 z"
       style="fill:#ffffff;fill-opacity:1" />
    <path
       inkscape:connector-curvature="0"
       id="path5894"
       d="m 383.20338,362.97399 c -0.23461,0.0951 -1.91619,-1.34818 -3.73683,-3.20733 -1.82065,-1.85915 -4.58137,-4.46407 -6.13494,-5.7887 -1.55357,-1.32464 -3.24362,-3.00062 -3.75566,-3.72441 -1.52408,-2.15432 -18.86221,-19.13459 -20.2458,-19.82791 -1.53527,-0.76934 -3.50967,0.83877 -2.94666,2.4 0.19778,0.54846 -0.9294,-0.27566 -2.50486,-1.83138 -3.3001,-3.25877 -3.68386,-3.8452 -1.62012,-2.47576 3.79037,2.51518 3.93293,-1.73052 0.17855,-5.31783 -4.64384,-4.4372 -7.99431,-2.74176 -3.49024,1.76616 0.86445,0.86519 1.50946,1.73605 1.43336,1.93525 -0.18218,0.47683 -4.52122,-4.5075 -4.94362,-5.67882 -0.18013,-0.49949 -1.22522,-1.47957 -2.32243,-2.17795 -1.09722,-0.69839 -2.19344,-1.82025 -2.43606,-2.49303 -0.24262,-0.67277 -1.74948,-2.5152 -3.34859,-4.09428 -3.27802,-3.23696 -3.95355,-5.01613 -2.50948,-6.60937 1.27123,-1.40254 1.26213,-1.42075 -2.76437,-5.53452 -4.09201,-4.18068 -4.54449,-5.1536 -2.7375,-5.88621 0.73753,-0.29901 1.26173,-0.76339 1.16488,-1.03196 -0.34167,-0.94743 -2.00655,-1.42523 -3.23325,-0.92789 -1.39727,0.56649 -4.48151,-1.72861 -5.27842,-3.92786 -0.26417,-0.72915 -1.32348,-1.87379 -2.35396,-2.54368 -1.03047,-0.66989 -2.91175,-2.05076 -4.18063,-3.06858 -2.84704,-2.28375 -2.83972,-2.26576 1.28056,3.14945 2.02177,2.65718 4.55336,5.19849 6.35343,6.37784 2.447,1.60318 3.07209,2.33652 3.42946,4.02337 0.33862,1.59837 0.87889,2.31118 2.39955,3.16579 1.63669,0.91982 1.90514,1.30467 1.61683,2.31782 -0.55008,1.93307 -1.40021,1.85187 -3.93005,-0.37534 -2.39169,-2.1056 -8.20375,-3.83881 -8.98438,-2.67922 -0.21229,0.31533 -1.19596,0.18538 -2.18594,-0.28878 -2.46701,-1.18159 -2.55188,-0.30673 -0.24761,2.55256 1.91475,2.37596 2.88985,2.67639 3.50033,1.07849 0.465,-1.21714 2.70913,-0.30942 4.87316,1.97112 1.01496,1.06963 2.23199,2.3347 2.70452,2.81127 1.53681,1.55002 1.60099,2.68354 0.18446,3.25784 -1.6887,0.68465 -1.41349,1.43453 1.489,4.05721 2.59626,2.34595 2.52904,2.3326 3.60658,0.71559 0.59707,-0.89599 0.99202,-1.06539 1.66684,-0.71489 0.6748,0.35047 0.56038,0.49086 -0.4829,0.59248 -1.1745,0.11439 -1.25755,0.30166 -0.58908,1.32835 0.42799,0.65735 0.54176,1.13901 0.25281,1.07036 -1.55196,-0.36874 1.25497,6.54296 3.36638,8.28927 2.68584,2.2214 3.31981,4.1861 1.00759,3.12256 -0.82987,-0.38172 -1.10154,-0.57819 -0.60369,-0.43661 1.8155,0.5163 1.27436,-0.88545 -0.74096,-1.91931 -1.68515,-0.8645 -1.91657,-0.86462 -1.2403,-6.5e-4 0.55713,0.71176 0.17599,0.6355 -1.15534,-0.2312 -3.6626,-2.38434 -5.00721,-3.84833 -5.95925,-6.48834 -0.76617,-2.12458 -1.21434,-2.64593 -2.35703,-2.74194 -0.77604,-0.0652 -1.96389,-0.68145 -2.63966,-1.36943 -0.67577,-0.68799 -2.01027,-2.06818 -2.96557,-3.06711 -0.95529,-0.99892 -2.95228,-3.02269 -4.43776,-4.49726 -1.48549,-1.47457 -3.71041,-3.93528 -4.94428,-5.46822 -1.23387,-1.53296 -3.37259,-3.35214 -4.75269,-4.04263 -1.38011,-0.69049 -3.90977,-2.5916 -5.62147,-4.22469 -1.7117,-1.63309 -4.17836,-3.9284 -5.48147,-5.1007 -5.82759,-5.24259 -7.83045,-7.16227 -10.2271,-9.80237 -1.40898,-1.55211 -3.32592,-3.21481 -4.25987,-3.69489 -0.93395,-0.48007 -1.79628,-1.14515 -1.9163,-1.47795 -0.12001,-0.3328 -1.51718,-1.52199 -3.10481,-2.64264 -1.58764,-1.12066 -2.9955,-2.36283 -3.12858,-2.76039 -0.1331,-0.39754 0.22313,-0.28174 0.79158,0.25737 2.53945,2.40832 3.98686,2.79687 5.9969,1.60981 1.60864,-0.95 2.12243,-0.96684 3.01368,-0.0988 1.04681,1.0195 2.8353,0.93462 2.4562,-0.11662 -0.32614,-0.90437 5.9161,-3.01241 6.8841,-2.32481 0.48224,0.34256 2.061,0.30911 3.50835,-0.0743 3.39898,-0.90044 3.0126,-2.39778 -1.68181,-6.51738 -3.46908,-3.04431 -8.27713,-8.20226 -8.09362,-8.68262 0.23312,-0.61016 2.77297,1.32082 6.12107,4.65368 6.41381,6.38463 7.99242,7.48095 10.20946,7.09032 1.1128,-0.19607 2.51227,-0.15127 3.10994,0.0995 0.59766,0.25082 2.54111,0.0884 4.31877,-0.36094 4.68463,-1.18413 10.31345,-0.37778 13.40175,1.91985 4.13264,3.07462 5.45595,5.82069 2.04621,4.24621 -3.73792,-1.72602 -16.99338,0.18726 -16.21489,2.34045 1.02457,2.83381 11.48292,10.57054 13.29559,9.83564 1.27425,-0.51662 2.65259,0.29028 3.22975,1.89075 1.14439,3.17339 4.17859,5.98489 10.27866,9.52426 6.94785,4.03127 7.95536,5.27262 2.49887,3.07885 -3.41028,-1.37109 -6.04569,-1.63779 -6.42308,-0.65 -0.1013,0.26515 1.45508,2.23272 3.45863,4.37237 l 3.64281,3.89027 2.39084,-1.42221 c 3.25514,-1.93634 13.27766,-2.52247 11.53559,-0.67463 -0.58951,0.62532 -3.18586,1.98767 -5.76965,3.02745 -4.94007,1.98801 -5.11052,2.17462 -3.24334,3.55094 0.94387,0.69575 1.26481,0.65581 1.6878,-0.21004 0.44423,-0.90931 0.70778,-0.68186 1.76297,1.52147 2.05623,4.29362 3.92009,5.20548 10.08526,4.93405 4.97399,-0.21899 10.59759,1.02837 10.14698,2.25067 -0.0975,0.26461 -1.73901,0.48858 -3.6477,0.49772 -5.7844,0.0277 -5.91459,0.19501 -3.78751,4.86755 1.14615,2.51774 2.37362,4.37476 3.33146,5.04015 0.83416,0.57946 1.63606,1.38467 1.782,1.78935 0.14593,0.40468 6.9222,7.68747 15.05837,16.18397 14.4575,15.09779 15.68465,16.49396 14.80923,16.84888 z m -30.71372,-32.22877 c -2.2377,-2.31179 -4.20762,-4.58892 -4.3776,-5.06027 -0.16997,-0.47135 -1.2449,-1.65191 -2.38871,-2.62347 -1.14381,-0.97156 -2.74771,-2.67528 -3.56423,-3.78604 -0.81651,-1.11076 -2.76714,-2.83851 -4.33473,-3.83943 -1.56759,-1.00093 -3.52399,-2.60389 -4.34755,-3.56213 -0.82356,-0.95824 -1.57959,-1.52707 -1.68008,-1.26406 -0.26617,0.69671 3.73913,5.12827 9.49005,10.50005 2.7626,2.58046 5.18477,5.14061 5.38262,5.68924 0.19784,0.54862 0.83241,1.18754 1.41015,1.41982 0.57774,0.23228 4.78287,4.15406 9.34474,8.71507 9.42621,9.42444 12.55708,11.9019 4.47807,3.54349 -2.9393,-3.04095 -7.17503,-7.42047 -9.41273,-9.73227 z m -24.58785,-21.8915 c -0.42694,-1.18391 -1.70571,-1.46099 -2.0908,-0.45303 -0.45426,1.18902 1.64778,3.22055 3.54798,3.42896 l 1.61947,0.17762 -1.37586,-1.12628 c -0.75673,-0.61944 -1.52208,-1.53172 -1.70079,-2.02727 z m -7.62406,7.90592 c -0.38389,-0.0912 -1.94826,-1.33196 -3.47637,-2.75722 -2.82369,-2.63364 -4.18636,-2.68337 -4.89908,-0.17878 -0.37129,1.30475 2.00118,3.08812 3.36996,2.53318 0.88002,-0.35679 1.19887,0.0114 2.04732,2.36418 1.53211,4.24852 5.88568,8.11778 5.55701,4.93881 -0.26147,-2.52898 -1.83989,-6.71985 -2.59884,-6.90017 z m -11.3076,-23.03362 c -1.37903,-1.74484 -2.23253,-2.30497 -3.18252,-2.08865 -1.14159,0.25995 -1.17495,0.41556 -0.27668,1.29049 0.56181,0.54719 1.31951,1.82136 1.68379,2.8315 0.4349,1.20599 1.1893,1.99692 2.19709,2.30347 2.106,0.64061 3.23449,0.11499 2.24135,-1.04394 -0.42826,-0.49974 -1.62662,-1.98154 -2.66303,-3.29287 z m 1.81891,8.75389 c -1.18385,-0.66934 -1.14256,0.69963 0.0611,2.02447 1.46756,1.61536 2.66044,1.27592 1.47141,-0.41869 -0.47293,-0.67402 -1.16254,-1.39663 -1.53247,-1.60578 z m -7.33354,-16.79222 c -2.02955,-1.13828 -3.01825,-0.83304 -3.1856,0.98348 -0.17868,1.93951 2.25922,3.00057 3.93247,1.71154 1.49153,-1.14903 1.39618,-1.49308 -0.74687,-2.69502 z m 0.81672,7.24896 c -1.48809,-1.95401 -2.47924,-1.90998 -1.74268,0.0774 0.59835,1.61455 3.91086,4.16197 3.36513,2.58791 -0.18724,-0.54003 -0.91733,-1.73945 -1.62245,-2.66534 z m 3.30055,11.96915 c -1.56871,-0.23294 -2.36496,0.68763 -1.84409,2.132 0.68585,1.90187 2.29959,3.16103 3.45226,2.69371 1.42522,-0.57782 0.0938,-4.57298 -1.60817,-4.82571 z m -10.25285,-27.00676 c -2.45487,-2.30813 -3.67155,-2.65508 -3.02517,-0.86267 0.19851,0.55047 0.072,1.51176 -0.28123,2.1362 -0.84729,1.49803 1.12719,3.80845 3.29836,3.85956 0.82366,0.0194 1.76515,0.26614 2.0922,0.54834 2.79714,2.41355 0.83416,-2.93756 -2.08418,-5.68142 z m -5.8375,-9.45944 c -1.29531,-1.21788 -2.83018,-2.40533 -3.41082,-2.63878 -1.77592,-0.714 -0.71991,1.00939 1.94243,3.17 1.30594,1.05983 2.84714,2.32393 3.42489,2.80909 2.1428,1.7994 0.46698,-1.0617 -1.9565,-3.34031 z m 11.91098,31.45244 c -0.9228,-1.14157 -2.26056,-0.48394 -1.77193,0.87105 0.40826,1.1321 1.88289,2.17497 2.6409,1.86765 0.50867,-0.20623 0.0761,-1.5696 -0.86897,-2.7387 z m -7.32431,-15.55799 c -1.77544,-0.85036 -1.94561,-0.70827 -1.84948,1.54433 0.0583,1.36558 2.32314,2.03652 3.36373,0.99647 0.91315,-0.91267 0.52487,-1.56415 -1.51425,-2.5408 z m -5.6159,-12.45421 c -1.63698,-0.30783 -1.8453,-0.20992 -2.34691,1.10303 -0.72744,1.90406 1.03895,2.95089 3.60432,2.13606 2.24149,-0.71195 1.45873,-2.72833 -1.25741,-3.23909 z m 7.24618,19.07952 c -0.67776,-0.35201 -1.51111,-0.36133 -1.8519,-0.0207 -0.34078,0.34061 -0.75293,0.24957 -0.91591,-0.20237 -0.51835,-1.43738 -2.28925,-1.80166 -2.26174,-0.46524 0.0349,1.69706 1.41756,3.36141 2.16874,2.61062 0.35037,-0.3502 0.70913,-0.43971 0.79723,-0.19892 0.3898,1.06557 3.80958,3.53301 4.16492,3.00515 0.62627,-0.93027 -0.7497,-4.02651 -2.10134,-4.72851 z m 47.69835,45.71547 c -0.92063,-0.49682 -8.58722,-8.06202 -8.29154,-8.18189 0.28819,-0.11684 5.95818,5.08033 7.67088,7.0312 0.74851,0.8526 1.0278,1.37041 0.62066,1.15069 z m -3.70048,1.48314 c -0.60141,0.55035 -0.85976,1.45182 -0.61255,2.13736 0.64551,1.78999 -0.66576,1.14117 -1.89399,-0.93715 -0.59408,-1.00527 -1.84571,-2.49903 -2.78138,-3.31945 -0.93567,-0.82042 -1.8456,-1.89204 -2.02207,-2.38138 -0.17646,-0.48934 -1.1569,-1.29014 -2.17876,-1.77957 -2.09175,-1.00185 -2.77652,-2.22546 -1.79466,-3.20682 0.36338,-0.36318 0.61787,-1.24354 0.56555,-1.95635 -0.15127,-2.06077 1.5403,-2.16447 3.77076,-0.23116 l 2.05538,1.78155 -1.93471,-1.22222 -1.93472,-1.22222 -0.63039,1.65003 c -0.34672,0.90752 -0.9066,1.93899 -1.24419,2.29217 -0.44683,0.46746 -0.084,0.8358 1.33368,1.35411 1.07111,0.39158 2.16384,1.31197 2.4283,2.04529 0.77752,2.15608 4.55632,4.76916 6.33973,4.38399 1.51609,-0.32744 1.53577,-0.30489 0.53402,0.61182 z m -9.70546,2.20299 c -2.6283,-1.5681 -6.25297,-5.58928 -5.89134,-6.53581 0.0558,-0.14603 1.08919,0.79734 2.29644,2.09638 1.20725,1.29904 3.21688,3.25109 4.46585,4.33789 l 2.27085,1.976 -3.1418,-1.87446 z m -19.85862,-19.3096 c -1.20261,-0.29219 -1.50551,-0.1125 -2.10055,1.24605 -0.96145,2.19511 -1.85174,1.49903 -1.04494,-0.81697 1.10267,-3.16533 -2.50915,-7.15526 -5.41186,-5.97842 -0.67518,0.27374 -1.67666,0.20753 -2.22551,-0.14713 -0.54885,-0.35465 -1.41508,-0.4757 -1.92495,-0.26898 -2.56915,1.04161 -4.77785,0.43472 -5.50041,-1.51136 l -0.71169,-1.91674 -0.51825,1.80608 c -0.61497,2.14319 0.33146,8.52269 1.54691,10.42703 0.69514,1.08908 0.65243,1.42728 -0.22515,1.78307 -0.60506,0.24531 -0.93729,0.84311 -0.75282,1.35463 0.68525,1.90021 -0.8807,1.27432 -3.25859,-1.30241 -2.77776,-3.01005 -4.50582,-6.78151 -3.08974,-6.74329 1.04879,0.0283 2.10235,-2.87184 1.88389,-5.18585 -0.46861,-4.96371 -0.0512,-8.11416 1.24467,-9.39445 1.73784,-1.71695 -0.87024,-6.64454 -3.89753,-7.36381 -0.37512,-0.0891 -0.8506,-0.62606 -1.05664,-1.19319 -0.20578,-0.56723 -2.08982,-2.3821 -4.18621,-4.03326 -2.09638,-1.65116 -4.53962,-3.79731 -5.42942,-4.76923 -2.37807,-2.59753 -3.86019,-3.27621 -6.57427,-3.01044 -3.84736,0.37675 -5.60717,-1.40474 -4.34526,-4.3988 0.74522,-1.76818 -0.22318,-3.65999 -3.66802,-7.16567 -0.74357,-0.75669 -1.21393,-1.43175 -1.04526,-1.50014 0.16868,-0.0684 2.17572,1.87261 4.46009,4.31332 2.28438,2.44071 4.98474,5.04508 6.0008,5.78749 3.61902,2.64432 19.85773,17.92534 23.20222,21.83386 1.87118,2.18674 4.08098,4.36044 4.91067,4.83044 0.82969,0.47 3.75808,3.01195 6.50754,5.64878 2.74945,2.63682 5.81272,5.51796 6.80727,6.40252 l 1.80826,1.60828 -1.40525,-0.34141 z m -0.33487,12.3889 c -0.54199,0.54172 -0.48042,1.12039 0.23957,2.25145 1.32499,2.0815 3.33615,7.20862 2.89747,7.38663 -0.62049,0.2518 -6.83965,-3.7444 -9.34585,-6.00529 -1.92233,-1.73418 -2.88511,-3.26606 -4.77572,-7.59859 -1.38674,-3.17788 -3.0351,-6.0942 -3.97791,-7.03781 -2.03838,-2.04013 -1.7379,-3.43888 0.6891,-3.20773 2.09412,0.19944 5.67903,4.17989 5.743,6.37665 0.2074,7.12278 3.03079,10.26197 5.18891,5.7693 l 1.08313,-2.25481 1.32249,1.32025 c 1.69572,1.69284 1.82594,2.11029 0.93581,2.99995 z m -4.54589,-9.38937 c -0.35113,1.53846 -1.55752,1.64665 -2.08394,0.18688 -0.39109,-1.08449 0.83009,-2.45414 1.75096,-1.96385 0.37234,0.19824 0.51705,0.97049 0.33298,1.77697 z m -39.52685,-96.1568 c -0.20671,0.0838 -2.57667,0.22437 -5.26658,0.31236 -5.72948,0.18743 -6.21987,0.72137 -3.69069,4.01842 0.98181,1.2799 2.04553,3.18797 2.36382,4.24017 0.31827,1.0522 1.92,3.51638 3.55937,5.47597 3.04725,3.64245 3.63978,5.54061 1.13396,3.63255 -4.19686,-3.19571 -5.48836,-3.6722 -8.30375,-3.06368 -3.35317,0.72476 -3.45153,0.85348 -1.688,2.20925 1.47806,1.13632 2.43675,3.09929 1.66621,3.41169 -0.26345,0.10681 -0.7665,-0.16147 -1.11791,-0.59618 -0.3514,-0.43471 -0.99228,-0.64711 -1.42418,-0.47201 -1.24583,0.5051 -0.74658,2.95743 0.89452,4.39394 l 1.47542,1.29149 -1.62424,-0.99311 c -0.94194,-0.57593 -1.93216,-1.84697 -2.35725,-3.02576 -0.78101,-2.16573 -1.36755,-2.50099 -4.25939,-2.43455 -1.3528,0.0311 -2.03114,-0.37724 -2.60429,-1.56767 -0.42627,-0.88533 -1.08066,-1.48579 -1.45421,-1.33434 -0.37355,0.15145 -1.77018,-0.46291 -3.10362,-1.36523 -3.86889,-2.61804 -4.27809,-3.26063 -0.79671,-1.25111 2.09275,1.20797 3.08722,1.50171 2.86758,0.84698 -0.18491,-0.55129 -0.82161,-1.19746 -1.41483,-1.43597 -0.59323,-0.2385 -1.40534,-1.28579 -1.8047,-2.32731 -0.39939,-1.04151 -1.11879,-2.36412 -1.59873,-2.93911 -0.49709,-0.59553 -0.76045,-1.46724 -0.61198,-2.02561 0.17085,-0.64252 -0.0156,-1.16945 -0.54111,-1.52963 -1.52943,-1.04821 -2.97375,-4.23637 -2.24786,-4.96189 0.43332,-0.43309 0.3673,-1.50914 -0.18687,-3.04585 -1.07154,-2.97137 -0.72144,-3.10785 2.94286,-1.14722 3.46201,1.85238 3.94408,1.49124 2.68179,-2.00908 -0.51341,-1.4237 -0.7751,-3.00313 -0.58151,-3.50983 1.00405,-2.62804 -4.08529,-1.60646 -5.71735,1.14765 -0.84909,1.43283 -0.89326,1.43179 -1.22311,-0.0288 -0.26623,-1.17888 -0.63751,-1.44715 -1.67217,-1.20824 -1.15676,0.26709 -1.21374,0.47243 -0.43754,1.57661 l 0.89241,1.26952 -1.80913,-0.99548 -1.80914,-0.99548 0.36598,1.93038 0.36598,1.93037 -1.68079,-1.41738 c -2.92056,-2.46287 -4.76651,-3.31457 -6.05323,-2.7929 -1.73775,0.70453 -0.94027,2.56535 1.7046,3.97744 1.15801,0.61826 2.77015,1.64169 3.58254,2.27429 0.81238,0.6326 2.09309,1.60877 2.84602,2.16928 1.29911,0.96711 1.31176,1.04229 0.24789,1.47361 -0.67622,0.27416 -1.67091,-0.086 -2.50672,-0.90763 -1.1989,-1.17855 -1.38317,-1.19693 -1.36721,-0.13639 0.0101,0.67417 0.38149,1.46808 0.82522,1.76425 0.44374,0.29618 1.29233,1.35631 1.88576,2.35586 0.59343,0.99954 2.09564,2.39144 3.33825,3.0931 1.24261,0.70167 2.43479,1.76242 2.64929,2.35722 0.21449,0.59479 0.87536,1.27659 1.46858,1.51509 0.59323,0.2385 1.17887,0.71172 1.30144,1.05158 0.29522,0.81865 -2.13456,-0.93088 -5.44368,-3.91964 -3.11704,-2.81529 -6.3694,-6.67822 -6.93013,-8.2311 -0.21589,-0.59793 -0.81161,-1.09844 -1.32381,-1.11226 -0.5122,-0.0138 -1.11438,-0.53288 -1.33817,-1.15346 -0.22379,-0.62058 -1.37522,-1.89554 -2.55874,-2.83324 -1.18351,-0.93769 -2.31829,-2.16646 -2.52172,-2.73058 -0.20344,-0.56412 -1.78499,-1.68922 -3.51456,-2.50021 -3.01324,-1.4129 -7.50961,-4.51301 -10.43236,-7.19281 -0.75751,-0.69454 -3.0604,-2.66912 -5.11752,-4.38794 -2.6494,-2.2137 -3.97434,-3.77434 -4.54295,-5.3511 -0.84493,-2.34299 -2.65985,-3.15369 -2.93543,-1.3112 -0.20362,1.36141 -3.26603,-0.48018 -7.56937,-4.55189 -1.88349,-1.7821 -5.6134,-4.47189 -8.2887,-5.97732 -2.6753,-1.50543 -5.53998,-3.41354 -6.36597,-4.24023 -0.82598,-0.82669 -1.7207,-1.41432 -1.98826,-1.30585 -0.26755,0.10848 -0.86833,-0.35631 -1.33505,-1.03285 -0.46672,-0.67654 -3.17864,-2.39108 -6.02648,-3.81009 -5.21056,-2.59629 -6.49292,-4.00272 -5.50097,-6.0332 0.29181,-0.59732 0.29695,-1.73384 0.0114,-2.52559 -0.51031,-1.41509 -1.02971,-1.512 -4.27696,-0.79799 -1.56161,0.34337 -2.43982,-1.42082 -1.23562,-2.48218 0.56896,-0.50147 0.70684,-1.07566 0.33529,-1.39626 -0.34709,-0.29948 -1.10489,-1.43073 -1.684,-2.51389 -1.31907,-2.46715 -3.08761,-3.04044 -4.2053,-1.36318 -2.29028,3.43692 -7.5742,0.33924 -11.30321,-6.62646 -0.66824,-1.24826 -2.14481,-2.72213 -3.48906,-3.48268 -4.90199,-2.77346 -6.0059,-3.42895 -9.26674,-5.50252 -1.84757,-1.17486 -4.60315,-2.90204 -6.12351,-3.83819 -1.52036,-0.93613 -4.11969,-3.03052 -5.77629,-4.6542 -3.29934,-3.23375 -5.56054,-3.62999 -5.36307,-0.93981 0.19423,2.64612 1.06303,3.59123 11.23759,12.22482 1.68768,1.43208 3.21351,3.17464 3.39072,3.87236 0.42998,1.69294 1.9913,3.74012 2.64908,3.47344 0.29019,-0.11765 1.21999,0.5958 2.06623,1.58545 0.84625,0.98964 3.73601,2.94771 6.4217,4.35126 7.3902,3.86215 10.73584,7.98016 9.66808,11.90007 -0.66085,2.42608 -3.17849,1.73453 -4.22224,-1.1598 -0.41322,-1.14585 -0.99525,-1.68034 -1.79566,-1.649 -0.65135,0.0255 -2.56389,-0.96663 -4.25009,-2.20475 -7.64687,-5.61486 -2.4296,-0.35431 7.9672,8.03327 3.33304,2.68892 7.47795,6.04563 9.2109,7.45936 1.73296,1.41372 3.99683,3.17188 5.03082,3.90702 1.19987,0.85308 1.43256,1.16753 0.64321,0.86921 -1.3212,-0.49933 -9.54819,-6.8983 -17.99163,-13.99392 -2.83734,-2.38441 -5.82237,-4.7162 -6.63341,-5.18176 -0.81103,-0.46555 -1.58949,-1.16503 -1.7299,-1.5544 -0.40248,-1.11607 -13.39647,-11.5543 -14.41763,-11.58185 -1.91237,-0.0516 -1.66082,1.64886 0.59527,4.02403 1.3668,1.43895 2.22124,2.83515 2.2875,3.73793 0.0743,1.01262 0.66187,1.76802 1.97624,2.54095 3.40684,2.00339 4.61313,3.06367 2.49054,2.18909 -0.98087,-0.40416 -3.12363,-0.99893 -4.76169,-1.32173 -8.3985,-1.655 -14.660894,-6.10403 -18.082315,-12.84632 -1.377374,-2.71427 -2.748911,-4.63612 -3.819233,-5.35165 -4.830309,-3.22914 -5.297977,-4.19305 -2.570818,-5.29872 3.681833,-1.49271 8.39493,1.76321 9.075761,6.26977 0.29966,1.98351 0.857177,3.31478 2.047222,4.88847 1.254385,1.65877 1.523932,2.32824 1.156918,2.87342 -0.300199,0.44593 -0.0886,0.52944 0.567862,0.22412 0.575493,-0.26767 1.483973,-0.45609 2.018823,-0.41873 1.43837,0.10047 2.32125,-4.32736 1.21,-6.06844 -0.4723,-0.73998 -1.21619,-1.2005 -1.65309,-1.02337 -0.43689,0.17713 -0.9683,-0.16029 -1.1809,-0.74982 -1.23217,-3.41682 -10.92728,-10.77627 -13.410633,-10.17986 -2.802165,0.67297 -3.942832,0.0215 -4.421419,-2.52505 -0.49708,-2.64499 -1.328693,-1.79591 -1.581839,1.61506 -0.139441,1.87887 0.121363,3.65165 0.702788,4.7771 0.50848,0.98426 0.833813,2.39069 0.722959,3.12541 -0.158309,1.04924 0.235382,1.75486 1.834999,3.28889 l 2.036549,1.95306 -1.2964,0.52559 c -1.082854,0.43902 -1.187627,0.82723 -0.636067,2.3567 0.887822,2.46193 0.288693,2.53449 -3.409494,0.4129 -5.303238,-3.04237 -8.850135,-7.73015 -6.249259,-8.25936 1.482196,-0.30159 2.621953,-3.14228 1.977631,-4.92899 -0.637864,-1.7688 -1.433759,-7.38918 -1.19811,-8.46071 0.495979,-2.25527 -0.731058,-5.33169 -2.637995,-6.61396 l -1.935912,-1.30175 -1.04686,3.21065 c -0.57577,1.76587 -0.877383,4.1686 -0.670247,5.33943 0.625297,3.53445 -0.08336,3.1965 -2.35348,-1.12233 -1.259343,-2.39587 -2.874728,-4.62646 -3.882576,-5.36124 -2.693801,-1.96391 -2.561269,-2.47851 0.942814,-3.66077 3.498336,-1.18033 3.617965,-2.85777 0.342014,-4.79576 -3.588892,-2.12312 -5.816986,-4.8836 -5.274321,-6.53459 0.761076,-2.31546 -8.105551,0.36847 -11.708686,3.54423 -2.060997,1.81654 -4.714391,-1.32472 -3.486676,-4.12775 0.370905,-0.84683 0.43559,-2.20183 0.14374,-3.01113 -1.304355,-3.61698 4.484012,-10.747449 7.580197,-9.337759 1.730987,0.78812 1.946021,0.68293 2.714187,-1.32771 0.347901,-0.91062 0.994607,-1.80246 1.437125,-1.98187 0.444408,-0.18017 0.609389,-0.86745 0.368548,-1.53531 -0.76279,-2.11521 1.4488,-3.05354 5.146261,-2.18342 3.599901,0.84715 7.962237,-0.99772 11.939816,-5.049464 0.87624,-0.892579 2.703497,-1.942346 4.074343,-2.340735 1.367067,-0.397284 5.297771,-1.746773 8.734899,-2.998863 8.658266,-3.154071 12.794783,-3.714781 17.581134,-2.38315 7.07527,1.968433 7.26022,3.476972 0.38227,3.117796 -2.74934,-0.143578 -4.193167,0.213626 -8.48763,2.099841 -11.98961,5.266085 -14.687902,6.334365 -18.476326,7.314945 -3.460334,0.89567 -4.062495,1.22617 -4.547635,2.496 -0.847593,2.21854 1.164673,2.69078 4.078889,0.95724 1.853639,-1.10265 2.318939,-1.15023 2.972477,-0.30392 0.426155,0.55186 1.313271,1.33833 1.971367,1.7477 1.113972,0.69297 1.069912,0.76514 -0.638483,1.04592 -2.226038,0.36586 -2.0442,1.52867 0.512632,3.278179 1.712209,1.17158 4.529866,0.75103 4.041499,-0.603209 -0.163054,-0.45215 0.201035,-0.51248 1.01525,-0.16822 2.718326,1.149339 3.185193,1.010509 2.135008,-0.63489 -0.85517,-1.33985 -0.835407,-1.53252 0.150331,-1.46556 3.906285,0.26535 5.192614,-1.25212 2.432736,-2.86988 -2.456324,-1.43983 -0.884143,-1.807 2.322356,-0.54237 3.824962,1.50857 7.485899,1.83558 8.816699,0.78755 1.55631,-1.22561 2.96906,-0.58943 6.42784,2.89455 3.06152,3.083819 3.71481,3.408289 10.69975,5.314319 4.09153,1.11649 8.81356,2.40552 10.49339,2.86452 1.67983,0.459 2.81734,1.04993 2.52778,1.31316 -0.52961,0.48146 -2.32039,0.29229 -9.00308,-0.95102 -5.43873,-1.01188 -10.80689,0.50043 -7.67398,2.16188 3.07974,1.63327 -2.60306,5.27992 -5.86643,3.7645 -0.81233,-0.37722 -3.1719,-1.43247 -5.24351,-2.345 -2.0716,-0.91253 -4.15581,-2.26902 -4.63156,-3.01441 -0.867613,-1.35935 -1.284705,-1.39502 -5.6643,-0.48441 -2.483413,0.51636 -2.515177,-1.52605 -0.05322,-3.42268 1.634275,-1.25901 0.924099,-2.59059 -1.372277,-2.57302 -4.326533,0.0331 -5.586397,2.20227 -2.830371,4.87318 2.107682,2.04258 3.054157,5.40664 1.939238,6.89263 -2.022479,2.6956 -1.216024,3.61949 3.895603,4.46288 2.187414,0.36091 5.153867,1.15844 6.592127,1.77229 4.26436,1.82004 12.83527,1.84612 15.04355,0.0458 0.22033,-0.17963 1.30183,-0.32184 2.40334,-0.31604 1.68422,0.009 2.53001,-0.44185 5.31797,-2.83394 4.10781,-3.52453 7.08598,-4.75823 13.96286,-5.78405 7.79445,-1.16271 8.25607,-0.82078 2.69712,1.9978 -2.61339,1.3251 -5.24623,2.9004 -5.85074,3.50067 -0.68772,0.6829 -1.29768,0.92007 -1.62965,0.63363 -1.21568,-1.04897 -4.72046,1.20196 -5.84582,3.75448 l -1.10446,2.50505 3.95318,1.90375 c 5.67406,2.73249 8.54845,2.32332 5.2151,-0.74236 -1.66609,-1.53231 -2.38592,-2.95922 -2.42391,-4.80486 -0.0418,-2.02964 0.92807,-1.50622 1.82678,0.98592 1.89626,5.25832 4.89523,6.77344 11.92282,6.02353 5.96002,-0.63599 9.47723,-0.27629 12.16757,1.24434 2.76233,1.56132 2.02563,2.04923 -3.28071,2.17276 -6.64748,0.15476 -7.07744,0.39197 -5.48535,3.0262 2.58793,4.28195 3.22796,7.40238 2.02641,9.87965 -1.40898,2.90495 -0.93045,4.10345 2.75281,6.8944 1.98695,1.5056 3.06146,2.74377 3.17979,3.6641 0.0983,0.76453 1.05535,2.26772 2.12681,3.34041 1.37288,1.37446 2.22597,2.8706 2.88912,5.06688 0.62385,2.06614 1.12985,2.99037 1.50133,2.74222 0.30818,-0.20587 1.1827,-0.009 1.94339,0.43641 1.25311,0.73454 1.29965,0.84453 0.49535,1.17062 -1.0614,0.43032 -1.04159,0.51086 0.57967,2.35559 5.91621,6.73173 12.59307,8.01469 17.4808,3.35893 1.8343,-1.74725 1.98697,-1.78646 3.74181,-0.96115 1.30293,0.61277 2.84139,0.59287 5.34518,-0.0692 6.12556,-1.61966 12.40219,0.0451 17.60327,4.66896 2.58455,2.29771 2.35382,3.034 -0.62309,1.98844 -5.14583,-1.80731 -7.77497,-1.76101 -12.40195,0.21842 -3.32286,1.42153 -5.00096,1.79594 -7.14947,1.59519 -4.43383,-0.4143 -6.14332,2.1773 -1.90306,2.88506 0.67466,0.11262 1.42438,0.75304 1.66604,1.42317 0.24166,0.67013 0.84296,1.22931 1.3362,1.24262 0.49326,0.0133 2.44861,1.10762 4.34523,2.4318 4.64543,3.24333 4.62414,2.35156 -0.0419,-1.75523 -6.22363,-5.47768 -4.30112,-7.4535 2.05505,-2.11203 5.52375,4.64193 9.4437,7.16746 11.18856,7.20854 0.86162,0.0203 1.84,0.672 2.40073,1.59918 3.12158,5.16154 5.50929,7.0846 14.3358,11.54604 9.09911,4.59924 10.73862,5.95628 4.02736,3.33349 -6.86058,-2.68114 -7.76123,-2.45512 -4.45594,1.11827 4.83483,5.22699 5.53376,5.55834 9.26791,4.39378 3.53408,-1.10216 11.61496,-1.8442 13.56927,-1.246 0.86097,0.26352 0.0464,0.80883 -3.669,2.45613 -6.40617,2.84031 -6.91974,4.36322 -3.01259,8.93323 2.83487,3.31582 5.22159,4.16423 10.84567,3.85535 6.17058,-0.33891 15.70194,1.6249 13.06849,2.69258 z m -10.18963,7.43261 c -2.71137,-2.19152 -2.79049,-2.2068 -4.89902,-0.94553 -2.06263,1.23379 -2.206,1.21504 -3.81615,-0.49922 -1.72586,-1.83744 -3.65351,-2.41485 -3.57214,-1.07 0.063,1.04193 -2.64127,-0.22286 -3.08044,-1.44069 -0.34653,-0.96092 -3.38248,-2.93786 -4.07836,-2.65573 -1.03508,0.41966 3.66958,10.05588 5.13233,10.51214 0.80459,0.25098 3.29652,1.37728 5.53762,2.5029 3.88286,1.95021 5.22737,1.95634 4.52932,0.0207 -0.37219,-1.0321 0.43069,-1.51451 1.2886,-0.77426 0.33704,0.29083 1.12682,0.10584 1.8165,-0.42548 0.96035,-0.73982 1.77252,-0.67147 3.81373,0.32105 l 2.59353,1.26104 -1.25482,-2.28969 c -0.69015,-1.25933 -2.49496,-3.29206 -4.0107,-4.51719 z m -9.12391,-5.69877 c -3.67278,-1.46786 -3.53372,-0.28877 0.32874,2.78735 1.46022,1.16293 2.83563,1.84603 3.05647,1.51799 0.6549,-0.97282 -1.31475,-3.47787 -3.38521,-4.30534 z m -0.55083,12.58005 c -1.22055,-0.20373 -1.26981,-0.0748 -0.54623,1.42974 0.6364,1.32326 1.11224,1.5704 2.3816,1.23693 1.86298,-0.48941 0.64997,-2.25183 -1.83537,-2.66667 z m -19.91946,-31.97897 c -0.47526,-0.11708 -1.57723,-1.04684 -2.44881,-2.06612 -1.29633,-1.516 -1.67657,-1.66518 -2.08957,-0.81978 -0.91623,1.87549 6.33029,8.18914 7.46483,6.50385 0.48675,-0.72303 -1.58818,-3.28825 -2.92645,-3.61795 z m -7.57098,-11.11837 c -1.89324,-1.00105 -4.72921,-3.08004 -6.30215,-4.61997 -2.72954,-2.67226 -11.45945,-9.73212 -13.05685,-10.55905 -1.16189,-0.60148 0.51246,1.32369 3.89164,4.47462 1.62531,1.51552 3.60683,3.63936 4.40336,4.71963 0.79654,1.08028 2.23953,2.37511 3.20663,2.87739 0.96711,0.50229 2.35985,1.8122 3.09499,2.91091 2.17997,3.25813 8.05192,6.45353 8.26256,4.49632 0.24657,-2.29106 0.20698,-2.3397 -3.50018,-4.29985 z m -3.03749,12.83433 c -0.71961,-0.12011 -1.44578,-0.59942 -1.61373,-1.06512 -0.35556,-0.98598 -4.31018,-1.04168 -5.27802,-0.0743 -0.89122,0.89076 -0.57352,1.54193 1.41671,2.90374 1.57151,1.07531 1.74034,1.05743 2.58598,-0.27388 0.84595,-1.3318 0.99852,-1.34749 2.34947,-0.24162 0.79462,0.65048 1.68057,1.08707 1.96878,0.97023 0.94622,-0.38363 -0.0922,-1.99582 -1.42919,-2.219 z m -5.15872,-12.60026 c -0.87956,-0.60536 -1.71302,-1.39925 -1.85214,-1.76418 -0.13911,-0.36495 -0.94464,-0.97845 -1.79003,-1.36336 l -1.53707,-0.69982 1.2276,2.29097 1.22761,2.29098 -1.45042,-0.93051 c -1.71071,-1.0975 -6.77379,-5.11727 -14.04588,-11.15154 -4.38342,-3.6373 -6.72583,-4.99756 -6.22782,-3.61657 0.3967,1.10004 5.78939,6.44838 8.89373,8.82059 7.88966,6.02894 13.10365,11.49151 12.6133,13.21464 -0.34982,1.2293 0.48348,1.7328 3.35025,2.02432 2.92569,0.29751 3.5811,-0.42976 2.33373,-2.5896 -0.51137,-0.88544 -0.75551,-1.86874 -0.54253,-2.1851 0.63526,-0.94365 -0.49007,-3.16371 -2.20033,-4.34082 z m -8.8701,-7.69492 c -0.85043,-0.56361 -1.64919,-0.7567 -1.77504,-0.4291 -0.27386,0.71294 2.44031,3.05521 3.18871,2.75178 0.81161,-0.32905 0.28229,-1.19872 -1.41367,-2.32268 z m 1.45434,9.59793 c -1.86178,-1.67259 -1.97811,-1.69001 -1.93414,-0.28974 0.0257,0.81944 -0.26315,1.79966 -0.64196,2.17826 -1.09005,1.08948 2.17534,5.85547 4.04643,5.90596 2.22735,0.0601 1.19786,-5.39742 -1.47033,-7.79448 z M 171.15088,172.0519 c -4.16082,-3.51677 -9.07363,-5.47849 -10.01369,-3.99853 -0.61652,0.97061 -1.57628,1.54084 -3.10697,1.84599 -2.43363,0.48516 -3.39627,2.04282 -2.18697,3.53881 1.30419,1.61337 6.93885,3.36592 8.43974,2.62502 2.71582,-1.34065 3.34646,-1.36013 3.79469,-0.11719 0.51382,1.42483 1.40779,1.29737 1.37704,-0.19632 -0.0152,-0.73781 0.47741,-1.11061 1.74214,-1.31847 2.03661,-0.33472 2.03102,-0.6238 -0.046,-2.37931 z m -7.37494,-8.76155 c -2.36502,-2.26965 -4.58035,-4.19323 -4.92296,-4.27463 -1.14317,-0.27162 -1.27156,-1.90127 -0.1845,-2.342 0.59002,-0.23921 1.03534,-0.53871 0.98959,-0.66557 -0.31953,-0.88606 -3.3669,-3.90428 -4.33494,-4.29348 -1.10058,-0.44248 -1.14084,-0.55464 -0.56486,-1.57318 0.6883,-1.21693 -3.07873,-5.62221 -7.10687,-8.31098 -3.67506,-2.4531 -4.28702,-3.06558 -2.01813,-2.01985 2.4309,1.1204 3.89043,0.66163 4.20251,-1.32094 0.35457,-2.25259 -7.43427,-8.80449 -9.47779,-7.97262 -0.31259,0.12726 -3.2707,-1.27073 -6.57356,-3.10665 l -6.0052,-3.33801 -0.93445,-3.11919 -0.93445,-3.11918 -2.69066,1.06309 c -1.47986,0.58473 -3.63254,0.90654 -4.78373,0.71515 -5.42824,-0.90245 -6.24591,1.69226 -1.37582,4.36584 3.65249,2.00514 3.58073,1.99448 -1.53144,-0.22766 -2.94992,-1.28225 -7.11345,-2.85428 -9.25229,-3.49341 -4.47934,-1.33856 -14.973057,-4.38392 -18.98193,-5.50876 -4.204741,-1.1798 -4.490238,-1.36984 -5.258511,-3.50026 -0.748206,-2.07478 -2.038793,-3.13359 -3.230578,-2.65041 -0.417189,0.16914 -0.432038,1.01828 -0.03697,2.11381 0.834793,2.31488 0.430051,2.45468 -4.842295,1.67256 -4.368297,-0.648 -12.275994,-1.02879 -13.240871,-0.6376 -1.293494,0.52442 3.757649,5.64996 11.588759,11.75944 1.614835,1.25983 4.004526,3.28332 5.310426,4.49665 3.674905,3.41442 10.688029,8.27043 10.543114,7.30024 -0.07141,-0.47805 -2.381932,-2.89966 -5.134503,-5.38137 -2.752571,-2.48171 -4.959118,-4.63144 -4.903437,-4.77718 0.299416,-0.78371 5.25769,0.12459 6.318076,1.15739 0.861203,0.83881 1.699317,1.0236 2.736063,0.60327 1.28753,-0.522 2.03227,-0.12133 5.376276,2.89246 4.356616,3.9264 5.067852,4.30041 5.703534,2.99919 0.533555,-1.09216 -1.250059,-3.12128 -3.740232,-4.25505 -2.593434,-1.18079 -2.545225,-2.37996 0.117018,-2.91069 3.41267,-0.68033 2.595944,-1.66903 -4.075606,-4.93375 -8.089271,-3.95848 -3.550611,-5.51626 4.778927,-1.64025 2.486532,1.15707 10.99145,3.58163 11.64056,3.31846 1.19969,-0.48638 30.02353,14.39146 38.65619,19.95294 6.94971,4.47727 9.56573,7.93482 6.27413,8.2924 -0.91134,0.099 -1.38542,0.42037 -1.2351,0.83722 0.46522,1.29004 -1.0082,1.16831 -4.98691,-0.412 -2.19919,-0.87351 -3.97968,-1.27681 -3.95665,-0.89623 0.0711,1.17493 3.9542,5.06134 6.05007,6.05522 1.09359,0.51858 3.05538,1.92698 4.35952,3.12977 1.30415,1.20279 2.9082,2.52512 3.56455,2.9385 1.06765,0.67244 1.1245,0.87338 0.53961,1.90748 -0.48491,0.85731 -0.39799,1.5566 0.3365,2.70738 1.34794,2.11191 2.77235,2.02151 3.38146,-0.2146 l 0.49502,-1.81729 3.30912,1.90733 c 5.92483,3.41498 5.94048,2.18548 0.0442,-3.473 z m -24.25625,-27.18726 c -1.88177,-1.161 -6.72386,-3.94469 -10.76022,-6.18598 -6.31644,-3.50736 -6.1149,-3.43209 1.44666,0.54028 4.83202,2.53845 9.67412,5.32214 10.76022,6.18598 1.13821,0.90529 0.52538,0.67642 -1.44666,-0.54028 z m 9.03875,9.6191 c -0.37345,-0.0887 -1.32042,-0.90292 -2.10438,-1.80932 -1.82711,-2.11246 -16.66223,-10.6241 -18.75741,-10.76205 -0.87482,-0.0576 -2.37199,-0.78861 -3.32704,-1.62446 -0.95506,-0.83584 -2.16556,-1.35576 -2.69002,-1.15537 -1.44277,0.55129 -3.35828,-0.33694 -3.8867,-1.80224 -0.41378,-1.14741 -1.07853,-1.36478 -2.19094,-0.71642 -0.17977,0.10479 -0.92738,-0.51591 -1.66133,-1.3793 -1.78822,-2.1036 -6.37623,-2.90437 -6.33922,-1.10643 0.0175,0.85262 0.95993,1.62089 3.31293,2.70085 1.93646,0.88877 3.94551,2.39337 4.88671,3.6597 1.78735,2.40478 3.67536,3.75697 4.67807,3.35044 0.74198,-0.30082 4.36939,1.83358 6.75948,3.97733 0.85614,0.7679 2.27738,1.89102 3.15832,2.49582 2.77514,1.90524 4.01439,4.66892 2.38906,5.32787 -2.99367,1.21372 -0.5129,6.34366 3.55685,7.35512 5.29852,1.31686 7.54052,-0.14413 4.65422,-3.03291 -1.83389,-1.83547 -1.74716,-2.55032 0.28592,-2.35669 0.81344,0.0775 2.07965,-0.26518 2.8138,-0.76146 0.91977,-0.62175 2.15597,-0.67783 3.97573,-0.18035 1.4525,0.39709 2.72257,0.50828 2.82235,0.24709 0.21382,-0.55968 -1.3607,-2.1954 -2.3364,-2.42722 z m 4.30041,15.35975 c -1.33403,-1.29933 -2.12696,-0.84347 -1.50978,0.86798 0.50066,1.38832 1.92028,2.50962 2.75095,2.17284 0.60282,-0.2444 -0.075,-1.90495 -1.24117,-3.04082 z m -24.90307,-20.4753 c -2.03101,-1.38365 -4.08137,-2.77239 -4.55638,-3.08611 -0.475,-0.31371 -0.94653,-0.35341 -1.04785,-0.0882 -0.10131,0.2652 0.2186,0.69141 0.71098,0.94711 0.49235,0.25572 1.26083,1.47889 1.70774,2.71817 0.68316,1.8944 1.0481,2.22764 2.29163,2.09254 0.8135,-0.0884 1.62228,0.23642 1.79731,0.72177 0.35569,0.98633 2.65182,1.58135 2.96266,0.76774 0.37447,-0.98016 -0.17332,-1.55726 -3.86609,-4.073 z M 112.14823,102.7752 c -0.83494,0.33851 -1.56569,0.9338 -1.62387,1.32287 -0.16198,1.08296 2.22497,1.23455 4.50094,0.28584 l 2.03938,-0.85012 -1.69919,-0.68704 c -0.93455,-0.37785 -2.38232,-0.41006 -3.21726,-0.0716 z m 20.22102,61.43488 c -1.19553,-1.25524 -2.72832,-2.26053 -3.4062,-2.23398 -1.2562,0.0492 -5.37674,-1.99846 -5.67263,-2.81894 -0.35792,-0.99251 -3.36133,-3.69277 -4.13044,-3.71352 -1.04822,-0.0283 -3.11223,-2.73152 -4.03109,-5.27953 -0.46114,-1.27873 -1.7478,-2.75733 -3.64554,-4.18935 -1.61307,-1.21722 -3.80118,-2.92746 -4.86247,-3.80052 l -1.92959,-1.58737 -0.45785,1.6808 c -0.25181,0.92445 -0.60018,1.73852 -0.77415,1.80905 -0.63769,0.25854 -1.03904,-1.95145 -0.59805,-3.29312 1.1132,-3.38676 -3.789317,-6.33019 -8.465881,-5.08284 l -2.658495,0.70908 3.079877,3.0167 c 2.188846,2.14395 3.505764,2.96462 4.551974,2.83668 1.170365,-0.14312 1.560085,0.16176 1.901405,1.48751 0.29524,1.14682 0.84395,1.73674 1.75718,1.88917 0.73034,0.12191 1.55166,0.8282 1.82515,1.56954 0.52306,1.4178 3.03847,3.63287 9.63698,8.48632 6.38909,4.69941 9.20923,6.97303 11.4089,9.19797 2.24274,2.2685 4.93752,3.25287 4.3356,1.58375 -0.18585,-0.51536 -0.005,-1.07183 0.40099,-1.2366 1.33149,-0.53982 2.61223,0.8071 3.05335,3.21111 0.4914,2.67802 1.8082,4.25585 1.77744,2.12979 -0.0337,-2.32903 -0.85423,-4.01748 -3.09646,-6.3717 z m -21.09939,-35.07621 c -4.09747,-1.56851 -4.72052,-0.66006 -1.00132,1.45997 2.98666,1.70246 1.44782,2.25561 -2.23462,0.80326 -3.24055,-1.27806 -4.53311,-2.72857 -2.98924,-3.3545 1.51008,-0.61222 -0.16004,-2.36615 -1.83533,-1.92743 -2.71911,0.71207 -0.004,4.74504 4.79583,7.12287 4.22902,2.09519 4.30206,2.09493 5.64535,-0.0199 1.32551,-2.08678 0.89124,-2.83183 -2.38067,-4.08431 z m 4.65029,28.57293 c -1.91226,-1.45506 -3.54819,-2.45883 -3.63539,-2.23059 -0.18793,0.4919 9.1914,8.23026 10.29268,8.49192 1.0602,0.25189 -2.50811,-3.10419 -6.65729,-6.26133 z m -6.49789,-22.6939 c -0.97478,-0.68126 -1.19343,-0.66887 -0.94789,0.0537 0.3954,1.16362 2.78122,3.05082 3.49239,2.7625 0.57533,-0.23326 -0.41156,-1.32555 -2.5445,-2.81623 z m -8.81368,-12.5958 c -1.220074,-0.75786 -2.112462,-0.89628 -2.604938,-0.40406 -1.077394,1.07683 -0.521604,2.03237 1.205783,2.07304 0.819465,0.0193 1.753485,0.26247 2.075585,0.5404 0.72591,0.62636 1.66864,0.29998 1.38726,-0.48027 -0.11431,-0.31699 -1.04297,-1.09508 -2.06369,-1.72911 z m -3.713884,4.57596 c -1.946681,0.43775 -1.927811,0.69258 0.159621,2.15576 1.295651,0.90818 1.638683,0.90407 2.092584,-0.025 0.767167,-1.57035 -0.291254,-2.57169 -2.252205,-2.13072 z m 7.899444,27.72513 c -0.61198,1.25271 -0.33718,3.27175 0.54943,4.03677 0.49959,0.43108 0.71851,-0.10684 0.72948,-1.79243 0.0174,-2.66647 -0.56953,-3.69639 -1.27891,-2.24434 z m 171.70599,111.59487 c -0.49394,0.20026 -6.2719,-3.16253 -6.4945,-3.77982 -0.41031,-1.13778 0.96074,-0.813 3.64489,0.86342 2.71632,1.69651 3.60789,2.60897 2.84961,2.9164 z m 8.39409,35.09825 c -0.49153,1.14855 -1.04627,3.09462 -1.23277,4.32458 l -0.33907,2.23629 -1.34499,-3.72285 c -0.73964,-2.04761 -1.93112,-4.49273 -2.64767,-5.43364 -1.71828,-2.25629 -1.57211,-2.42558 2.02733,-2.34803 3.75859,0.081 4.9221,1.70722 3.53703,4.94371 z m -23.79493,-42.24212 c -1.09338,0.54251 -6.25822,-2.61161 -9.32957,-5.6975 -0.86951,-0.87362 -1.9058,-1.66559 -2.30287,-1.75993 -1.64906,-0.39181 -0.88011,1.0209 2.68912,4.9404 2.0783,2.28227 3.72614,4.28724 3.66185,4.4555 -0.0643,0.16826 -1.88833,-1.66021 -4.05346,-4.06328 -5.24532,-5.82178 -4.49886,-8.81242 0.87115,-3.49016 0.98278,0.97404 2.87141,2.43315 4.19697,3.24248 1.32555,0.80933 2.47805,1.65817 2.56112,1.88632 0.0829,0.22821 0.73705,0.31366 1.45329,0.19003 1.14249,-0.1972 1.17345,-0.16087 0.2524,0.29614 z m -24.59693,-8.7643 c -1.72136,-0.67946 -2.86741,-1.88972 -5.63277,-5.94835 -1.3148,-1.92968 -3.02089,-3.79056 -3.79131,-4.13528 -0.77043,-0.34471 -2.09583,-1.65977 -2.94533,-2.92232 -0.8495,-1.26257 -2.43983,-2.68229 -3.53407,-3.15494 -1.09423,-0.47265 -2.63324,-1.49361 -3.42,-2.26882 -2.03601,-2.00606 -3.58986,-2.27452 -4.57845,-0.79101 -1.15582,1.73449 -1.34991,1.66149 -1.79693,-0.67579 -0.55897,-2.92261 -9.59875,-8.16539 -12.98646,-7.53173 -2.58991,0.48443 -3.38374,0.0309 -4.61037,-2.63393 l -0.94171,-2.04585 -0.35225,2.05282 c -0.43733,2.54861 0.57533,8.36668 1.81624,10.43493 0.78042,1.30074 0.75062,1.61959 -0.18692,1.9997 -0.77925,0.31593 -0.9746,0.84262 -0.64822,1.74768 0.71735,1.9892 -1.16003,0.9725 -4.1836,-2.26564 -2.91295,-3.11968 -4.89494,-7.50484 -3.05824,-6.7664 1.59938,0.64302 2.43384,-1.68934 1.99537,-5.57724 -0.19503,-1.7294 -0.25407,-4.01776 -0.13118,-5.08526 0.50992,-4.42985 -5.00891,-6.76155 -5.63906,-2.3825 l -0.35475,2.46524 -1.30834,-3.62122 c -1.73272,-4.79631 -3.937,-7.02791 -10.62539,-10.75688 -4.00566,-2.23327 -5.67433,-3.53835 -6.46933,-5.05974 -1.86969,-3.57805 -2.89996,-4.73619 -4.12037,-4.6318 -1.74023,0.14885 -6.81127,-1.4148 -7.54933,-2.32782 -0.34971,-0.43263 0.7057,-0.22209 2.34537,0.46788 1.63966,0.68996 3.63957,1.08367 4.44424,0.8749 1.79929,-0.46681 5.29315,2.1328 5.58942,4.15883 0.21356,1.46036 0.28132,1.51439 11.52369,9.18908 6.74767,4.60635 7.11409,4.7501 8.52999,3.34657 1.2337,-1.2229 0.90278,-2.36321 -1.09589,-3.77635 -0.82489,-0.58322 -2.15184,-1.84361 -2.94879,-2.80086 -0.79694,-0.95725 -2.13699,-1.9249 -2.97787,-2.15033 -0.84089,-0.22543 -2.61099,-1.29363 -3.93355,-2.37378 -1.32257,-1.08014 -4.92572,-3.46038 -8.00702,-5.2894 -5.14682,-3.05511 -10.0846,-6.75533 -9.39031,-7.03682 0.80944,-0.32817 5.34308,1.51971 9.48531,3.86613 9.09243,5.15039 10.49868,6.15544 11.1535,7.97128 0.68431,1.89758 1.75874,2.57068 3.57408,2.23904 1.69129,-0.30897 6.71502,3.90265 6.96384,5.83809 0.2262,1.75942 7.41714,9.04963 11.81472,11.97782 3.08627,2.05504 5.97585,5.37575 6.48999,7.45832 0.25634,1.0383 0.68787,1.42009 1.42936,1.2646 1.65411,-0.34685 4.24557,1.16111 8.3929,4.88382 2.09595,1.88136 4.98173,4.20523 6.41284,5.16416 1.4311,0.95892 2.97504,2.27153 3.43096,2.9169 0.96381,1.3643 2.79906,1.65172 2.33531,0.36573 -0.56535,-1.56772 -2.66689,-3.81824 -4.51788,-4.83818 -1.81,-0.99734 -5.37296,-4.71019 -5.13009,-5.3459 0.26675,-0.69819 2.79999,1.38178 9.36174,7.68667 6.95699,6.68466 7.7468,7.86616 4.71502,7.05338 -0.94752,-0.25403 -1.66783,-0.30953 -1.60069,-0.12335 0.34515,0.95709 5.27424,7.18533 6.49371,8.20524 1.32432,1.1076 1.3344,1.14875 0.16887,0.68868 z M 170.88618,111.52632 c -1.24846,2.94145 -2.90702,3.50804 -3.26443,1.11519 -0.14902,-0.99774 -0.48294,-2.83001 -0.74203,-4.07171 -1.22024,-5.84801 -1.08421,-6.24631 1.61169,-4.71914 2.35609,1.33467 3.51269,5.04178 2.39477,7.67566 z m 47.30801,140.02991 c -6.79039,-2.12743 -13.88966,-8.29179 -16.48915,-14.31766 -1.38981,-3.22171 -2.75794,-5.50559 -4.09435,-6.83485 -2.45019,-2.43708 -2.71161,-3.06684 -1.48033,-3.56603 2.94524,-1.19408 8.01988,3.4042 8.389,7.60151 0.57221,6.50675 4.91186,9.24293 6.87231,4.33304 1.07073,-2.68162 1.11141,-2.71442 1.61942,-1.30572 0.2866,0.79475 1.07687,1.77078 1.75615,2.16895 1.13856,0.6674 1.15761,0.84586 0.24383,2.28445 l -0.99121,1.56049 1.93984,1.92946 c 1.14367,1.13757 1.98081,2.48776 2.03968,3.28978 0.0549,0.74817 0.59928,1.84676 1.20969,2.44129 l 1.10984,1.08097 -2.12472,-0.66568 z m -8.91814,-18.7039 c -0.37733,1.56671 -1.81909,1.1466 -2.49472,-0.72692 -0.29721,-0.82415 -0.0684,-1.21812 0.82367,-1.41833 1.51954,-0.34104 2.09265,0.3947 1.67105,2.14525 z"
       style="fill:#aefcea;fill-opacity:1" />
    <path
       inkscape:connector-curvature="0"
       id="path5892"
       d="m 452.4831,438.68614 c -1.03038,1.02985 -3.29632,0.51826 -3.53195,-0.79742 -0.31106,-1.73686 2.82901,-2.74403 3.63677,-1.16648 0.3702,0.723 0.32701,1.5323 -0.10482,1.9639 z m -12.19832,-15.76711 c -0.26794,2.13375 -0.81943,4.31145 -1.22551,4.83932 -0.40608,0.52788 -1.41099,2.3479 -2.23311,4.0445 -2.16151,4.4606 -2.71432,4.45198 -9.48335,-0.14785 -8.38036,-5.69481 -28.28379,-22.65937 -29.03777,-24.75016 -0.0563,-0.15602 -1.67462,-1.61311 -3.59634,-3.23797 -4.0984,-3.4653 -4.09678,-3.64884 0.0668,-7.57883 1.68812,-1.59341 4.08695,-4.37321 5.33071,-6.17732 3.76526,-5.46159 5.88111,-6.02923 7.34479,-1.97044 0.83326,2.31062 11.21014,12.61695 22.14033,21.98978 2.55498,2.19095 4.57873,3.64746 8.41637,6.05735 2.73037,1.71456 2.87637,2.15902 2.27705,6.93162 z m -56.6844,-56.30575 c -1.7759,5.16646 -7.60487,5.53616 -9.45757,0.59984 -0.38782,-1.03332 -5.4591,-5.34852 -6.01892,-5.12156 -0.23635,0.0958 -1.13571,1.43031 -1.99858,2.96552 -1.81226,3.22439 -1.54268,3.72878 3.12648,5.84963 2.68249,1.21845 3.06461,1.64132 4.79998,5.31198 1.03701,2.19348 2.53658,4.7496 3.3324,5.68027 0.79581,0.93067 1.68047,2.33973 1.96591,3.13125 0.28544,0.79152 1.35504,1.83956 2.3769,2.32899 2.12993,1.02015 15.6656,15.18578 14.47093,15.67013 -0.45756,0.18552 -14.59461,-13.89436 -15.42717,-14.868 -0.83257,-0.97365 -2.30882,-2.06459 -3.28055,-2.4243 -1.04422,-0.38655 -2.35262,-1.61973 -3.19922,-3.0153 -0.78783,-1.2987 -1.94637,-2.68131 -2.57452,-3.07247 -0.62815,-0.39116 -2.75586,-2.28988 -4.72824,-4.21938 -3.59336,-3.51525 -8.03798,-4.34694 -6.93861,-1.29838 0.40117,1.11245 0.18364,1.20394 -2.05795,0.86548 -1.76282,-0.26615 -4.26216,-2.3543 -3.9127,-3.26899 0.0982,-0.25706 0.74883,-0.37223 1.44584,-0.25585 3.68019,0.61428 3.12485,-5.19657 -0.81406,-8.51808 -1.51972,-1.28151 -3.42837,-3.19723 -4.24145,-4.25716 -0.81308,-1.05993 -2.46952,-2.91137 -3.68099,-4.11431 -3.72463,-3.6984 -6.72294,-7.00077 -6.45489,-7.10944 0.14035,-0.0569 5.23423,5.04104 11.31974,11.32876 15.68028,16.20132 19.03963,19.27314 19.56715,17.89238 0.30206,-0.79062 -2.77729,-4.52163 -5.2411,-6.35025 -1.47689,-1.09613 -2.68282,-2.55299 -3.1225,-3.77224 -0.4326,-1.1996 -2.57877,-3.82477 -5.41832,-6.62766 -2.58609,-2.55269 -5.88504,-6.26553 -7.33101,-8.25075 -1.44596,-1.98522 -2.90604,-3.67531 -3.24461,-3.75574 -0.33857,-0.0804 -0.81178,-0.69032 -1.05158,-1.3553 -0.2398,-0.66496 -1.30705,-2.09008 -2.37167,-3.16693 -2.53036,-2.55942 -3.03301,-4.07623 -1.74224,-5.25742 1.00176,-0.91672 0.98208,-0.93926 -0.53401,-0.61183 -1.78341,0.38517 -5.56221,-2.22791 -6.33973,-4.38398 -0.26446,-0.73333 -1.35719,-1.65371 -2.4283,-2.0453 -1.41773,-0.51831 -1.78051,-0.88664 -1.33368,-1.35411 0.33759,-0.35317 0.90225,-1.39715 1.2548,-2.31994 l 0.64101,-1.67781 1.73922,1.24565 c 3.54798,2.54108 22.61274,21.71106 26.26251,26.40745 0.89826,1.15585 2.10861,2.39667 2.68966,2.75737 0.58105,0.36071 3.91599,3.47683 7.41096,6.92472 6.42442,6.33787 8.10076,7.57692 8.8152,6.51566 0.68823,-1.02233 -8.9479,-12.49163 -13.1368,-15.63594 -3.40557,-2.55632 -18.5509,-18.10436 -19.88412,-20.41284 -1.22271,-2.11714 0.40339,-4.18015 2.47617,-3.14146 1.38359,0.69332 18.72172,17.67359 20.2458,19.82791 0.51204,0.72379 2.20209,2.39977 3.75566,3.72441 1.55357,1.32463 4.31429,3.92955 6.13494,5.7887 3.02277,3.08669 4.51202,4.00114 3.94201,2.42051 -0.12175,-0.33763 -6.87824,-7.56556 -15.01441,-16.06206 -8.13617,-8.4965 -14.91244,-15.77929 -15.05837,-16.18397 -0.14594,-0.40468 -0.94784,-1.20989 -1.782,-1.78935 -0.95784,-0.66539 -2.18531,-2.52241 -3.33146,-5.04015 -2.12708,-4.67254 -1.99689,-4.83986 3.78751,-4.86755 1.90869,-0.009 3.55015,-0.23311 3.6477,-0.49772 0.45061,-1.2223 -5.17299,-2.46966 -10.14698,-2.25067 -6.16517,0.27143 -8.02903,-0.64043 -10.08526,-4.93405 -1.05519,-2.20333 -1.31874,-2.43078 -1.76297,-1.52147 -0.42299,0.86585 -0.74393,0.90579 -1.6878,0.21004 -1.86718,-1.37632 -1.69673,-1.56293 3.24334,-3.55094 2.5838,-1.03977 5.18014,-2.40213 5.76965,-3.02745 1.74207,-1.84784 -8.28045,-1.26171 -11.53559,0.67463 l -2.39084,1.42221 -3.64281,-3.89027 c -2.00355,-2.13965 -3.55993,-4.10722 -3.45863,-4.37237 0.37739,-0.98779 3.0128,-0.72109 6.42308,0.65 5.45649,2.19377 4.44898,0.95242 -2.49887,-3.07885 -6.10007,-3.53937 -9.13427,-6.35087 -10.27866,-9.52426 -0.57716,-1.60047 -1.9555,-2.40737 -3.22975,-1.89075 -1.81267,0.7349 -12.27102,-7.00183 -13.29559,-9.83564 -0.77835,-2.15325 12.47697,-4.06647 16.21489,-2.34045 3.40974,1.57448 2.08643,-1.17159 -2.04621,-4.24621 -3.0883,-2.29763 -8.71712,-3.10398 -13.40175,-1.91985 -1.77766,0.44934 -3.72111,0.61176 -4.31877,0.36094 -0.59767,-0.25082 -1.99714,-0.29562 -3.10994,-0.0995 -2.21704,0.39063 -3.79565,-0.70569 -10.20946,-7.09032 -3.3481,-3.33286 -5.88795,-5.26384 -6.12107,-4.65368 -0.18351,0.48036 4.62454,5.63831 8.09362,8.68262 4.69441,4.1196 5.08079,5.61694 1.68181,6.51738 -1.44735,0.38342 -3.02611,0.41687 -3.50835,0.0743 -0.968,-0.6876 -7.21024,1.42044 -6.8841,2.32481 0.3791,1.05124 -1.40939,1.13612 -2.45617,0.11657 -0.89125,-0.86807 -1.40504,-0.85123 -3.01368,0.0988 -2.96896,1.75336 -4.44026,0.69886 -10.70028,-7.66904 -2.07318,-2.77127 -4.83865,-6.12583 -6.14549,-7.45459 -3.56637,-3.6262 -3.57317,-5.7765 -0.008,-2.54798 9.05535,8.20039 14.79072,8.40937 6.57699,0.23964 -3.36224,-3.34423 -4.33937,-5.51938 -2.76601,-6.15727 0.4319,-0.1751 1.07278,0.0373 1.42418,0.47201 0.35141,0.43471 0.85446,0.70299 1.11791,0.59618 0.77054,-0.3124 -0.18815,-2.27537 -1.66621,-3.41169 -1.76353,-1.35577 -1.66517,-1.48449 1.688,-2.20925 2.81539,-0.60852 4.10689,-0.13203 8.30375,3.06368 2.50582,1.90806 1.91329,0.01 -1.13396,-3.63255 -1.63937,-1.95959 -3.24109,-4.42377 -3.55937,-5.47597 -0.31828,-1.0522 -1.38201,-2.96027 -2.36382,-4.24017 -2.52918,-3.29705 -2.03879,-3.83099 3.69069,-4.01842 5.90325,-0.19311 6.03413,-0.23512 4.15822,-1.33472 -2.40331,-1.40876 -6.44473,-1.97314 -11.96013,-1.67022 -5.62408,0.30888 -8.0108,-0.53953 -10.84567,-3.85535 -3.90715,-4.57001 -3.39358,-6.09292 3.01259,-8.93323 3.71538,-1.6473 4.52997,-2.19261 3.669,-2.45613 -1.95431,-0.5982 -10.03519,0.14384 -13.56927,1.246 -3.73415,1.16456 -4.43308,0.83321 -9.26791,-4.39378 -3.30529,-3.57339 -2.40464,-3.79941 4.45594,-1.11827 6.71126,2.62279 5.07175,1.26575 -4.02736,-3.33349 -8.82651,-4.46144 -11.21422,-6.3845 -14.3358,-11.54604 -0.56073,-0.92718 -1.53911,-1.5789 -2.40073,-1.59918 -1.74486,-0.0411 -5.66481,-2.56661 -11.18856,-7.20854 -6.35617,-5.34147 -8.27868,-3.36565 -2.05505,2.11203 4.66605,4.10679 4.68734,4.99856 0.0419,1.75523 -1.89662,-1.32418 -3.85197,-2.41849 -4.34523,-2.4318 -0.49324,-0.0133 -1.09454,-0.57249 -1.3362,-1.24262 -0.24166,-0.67013 -0.99138,-1.31055 -1.66604,-1.42317 -4.24026,-0.70776 -2.53077,-3.29936 1.90306,-2.88506 2.14851,0.20075 3.82661,-0.17366 7.14947,-1.59519 4.62698,-1.97943 7.25612,-2.02573 12.40195,-0.21842 2.97691,1.04556 3.20764,0.30927 0.62309,-1.98844 -5.20108,-4.62385 -11.47771,-6.28862 -17.60327,-4.66896 -2.50379,0.66203 -4.04225,0.68193 -5.34518,0.0692 -1.75484,-0.82531 -1.90751,-0.7861 -3.74181,0.96115 -4.88773,4.65576 -11.56459,3.3728 -17.4808,-3.35893 -1.62126,-1.84473 -1.64107,-1.92527 -0.57967,-2.35559 0.8043,-0.32609 0.75776,-0.43608 -0.49535,-1.17062 -0.76069,-0.44589 -1.63521,-0.64228 -1.94339,-0.43641 -0.37147,0.24815 -0.87748,-0.67608 -1.50133,-2.74222 -0.66315,-2.19628 -1.51624,-3.69242 -2.88912,-5.06688 -1.07146,-1.07269 -2.02853,-2.57588 -2.12681,-3.34041 -0.11833,-0.92033 -1.19284,-2.1585 -3.17979,-3.6641 -3.68326,-2.79095 -4.16179,-3.98945 -2.75281,-6.8944 1.20155,-2.47727 0.56152,-5.5977 -2.02641,-9.87965 -1.59209,-2.63423 -1.16213,-2.87144 5.48535,-3.0262 5.30634,-0.12353 6.04304,-0.61144 3.28071,-2.17276 -2.69034,-1.52063 -6.20755,-1.88033 -12.16757,-1.24434 -7.02759,0.74991 -10.02656,-0.76521 -11.92282,-6.02353 -0.89871,-2.49214 -1.86856,-3.01556 -1.82678,-0.98592 0.038,1.84564 0.75782,3.27255 2.42391,4.80486 3.33335,3.06568 0.45896,3.47485 -5.2151,0.74236 l -3.95318,-1.90375 1.10446,-2.50505 c 1.12536,-2.55252 4.63014,-4.80345 5.84582,-3.75448 0.33197,0.28644 0.94193,0.0493 1.62965,-0.63363 0.60451,-0.60027 3.23735,-2.17557 5.85074,-3.50067 5.55895,-2.81858 5.09733,-3.16051 -2.69712,-1.9978 -6.87688,1.02582 -9.85505,2.25952 -13.96286,5.78405 -2.78796,2.39209 -3.63375,2.84282 -5.31797,2.83394 -1.10151,-0.006 -2.18301,0.13641 -2.40334,0.31604 -2.20828,1.80033 -10.77919,1.77425 -15.04355,-0.0458 -1.43826,-0.61385 -4.404713,-1.41138 -6.592127,-1.77229 -5.111627,-0.84339 -5.918082,-1.76728 -3.895603,-4.46288 1.114919,-1.48599 0.168444,-4.85005 -1.939238,-6.89263 -2.756026,-2.67091 -1.496162,-4.84009 2.830371,-4.87318 2.296376,-0.0176 3.006552,1.31401 1.372277,2.57302 -2.461957,1.89663 -2.430193,3.93904 0.05322,3.42268 4.379595,-0.91061 4.796687,-0.87494 5.6643,0.48441 0.47575,0.74539 2.55996,2.10188 4.63156,3.01441 2.07161,0.91253 4.43118,1.96778 5.24351,2.345 3.26337,1.51542 8.94617,-2.13123 5.86643,-3.7645 -3.13291,-1.66145 2.23525,-3.17376 7.67398,-2.16188 6.68269,1.24331 8.47347,1.43248 9.00308,0.95102 0.28956,-0.26323 -0.84795,-0.85416 -2.52778,-1.31316 -1.67983,-0.459 -6.40186,-1.74803 -10.49339,-2.86452 -6.98494,-1.90603 -7.63823,-2.2305 -10.69975,-5.314319 -3.45878,-3.48398 -4.87153,-4.12016 -6.42784,-2.89455 -1.3308,1.04803 -4.991737,0.72102 -8.816699,-0.78755 -3.206499,-1.26463 -4.77868,-0.89746 -2.322356,0.54237 2.759878,1.61776 1.473549,3.13523 -2.432736,2.86988 -0.985738,-0.067 -1.005501,0.12571 -0.150331,1.46556 1.050185,1.645399 0.583318,1.784229 -2.135008,0.63489 -0.814215,-0.34426 -1.178304,-0.28393 -1.01525,0.16822 0.488367,1.354239 -2.32929,1.774789 -4.041499,0.603209 -2.556832,-1.749509 -2.73867,-2.912319 -0.512632,-3.278179 1.708395,-0.28078 1.752455,-0.35295 0.638483,-1.04592 -0.658096,-0.40937 -1.545212,-1.19584 -1.971367,-1.7477 -0.653538,-0.84631 -1.118838,-0.79873 -2.972477,0.30392 -2.914216,1.73354 -4.926482,1.2613 -4.078889,-0.95724 0.48514,-1.26983 1.087301,-1.60033 4.547635,-2.496 3.788424,-0.98058 6.486716,-2.04886 18.476326,-7.314945 4.294463,-1.886215 5.73829,-2.243419 8.48763,-2.099841 6.87795,0.359176 6.693,-1.149363 -0.38227,-3.117796 -4.786351,-1.331631 -8.922868,-0.770921 -17.581134,2.38315 -3.437128,1.25209 -7.367832,2.601579 -8.734899,2.998863 -1.370846,0.398389 -3.198103,1.448156 -4.074343,2.340735 -3.977579,4.051744 -8.339915,5.896614 -11.939816,5.049464 -3.697461,-0.87012 -5.909051,0.0682 -5.146261,2.18342 0.240841,0.66786 0.07586,1.35514 -0.368548,1.53531 -0.442518,0.17941 -1.089224,1.07125 -1.437125,1.98187 -0.768166,2.01064 -0.9832,2.11583 -2.714187,1.32771 -3.096185,-1.40969 -8.884552,5.720779 -7.580197,9.337759 0.29185,0.8093 0.227165,2.1643 -0.14374,3.01113 -1.227715,2.80303 1.425679,5.94429 3.486676,4.12775 3.603135,-3.17576 12.469762,-5.85969 11.708686,-3.54423 -0.542665,1.65099 1.685429,4.41147 5.274321,6.53459 3.275951,1.93799 3.156322,3.61543 -0.342014,4.79576 -3.504083,1.18226 -3.636615,1.69686 -0.942814,3.66077 1.007848,0.73478 2.623233,2.96537 3.882576,5.36124 2.270117,4.31883 2.978777,4.65678 2.35348,1.12233 -0.207136,-1.17083 0.09448,-3.57356 0.670247,-5.33943 l 1.04686,-3.21065 1.935912,1.30175 c 1.906937,1.28227 3.133974,4.35869 2.637995,6.61396 -0.235649,1.07153 0.560246,6.69191 1.19811,8.46071 0.644322,1.78671 -0.495435,4.6274 -1.977631,4.92899 -2.600876,0.52921 0.946021,5.21699 6.249259,8.25936 3.698187,2.12159 4.297316,2.04903 3.409494,-0.4129 -0.55156,-1.52947 -0.446787,-1.91768 0.636067,-2.3567 l 1.2964,-0.52559 -2.036549,-1.95306 c -1.599617,-1.53403 -1.993308,-2.23965 -1.834999,-3.28889 0.110853,-0.73472 -0.214479,-2.14115 -0.722959,-3.12541 -0.581425,-1.12545 -0.842229,-2.89823 -0.702788,-4.7771 0.253146,-3.41097 1.084759,-4.26005 1.581839,-1.61506 0.478587,2.54659 1.619254,3.19802 4.421419,2.52505 2.483353,-0.59641 12.178463,6.76304 13.410633,10.17986 0.2126,0.58953 0.74401,0.92695 1.1809,0.74982 0.4369,-0.17713 1.18079,0.28339 1.65309,1.02337 1.11125,1.74108 0.22837,6.16891 -1.21,6.06844 -0.53485,-0.0374 -1.44332,0.15107 -2.018823,0.41873 -0.656457,0.30533 -0.868061,0.22181 -0.567862,-0.22412 0.367014,-0.54518 0.09747,-1.21465 -1.156918,-2.87342 -1.190045,-1.57369 -1.747562,-2.90496 -2.047222,-4.88847 -0.680831,-4.50656 -5.393928,-7.76248 -9.075761,-6.26977 -2.727159,1.10567 -2.259491,2.06958 2.570818,5.29872 1.070322,0.71553 2.441859,2.63738 3.819233,5.35165 3.421421,6.74229 9.683815,11.19132 18.082315,12.84632 1.63806,0.3228 3.78082,0.91757 4.76169,1.32173 2.12259,0.87458 0.9163,-0.1857 -2.49054,-2.18909 -1.31438,-0.77292 -1.90191,-1.52833 -1.97624,-2.54095 -0.0663,-0.90278 -0.9207,-2.29898 -2.2875,-3.73793 -2.25609,-2.37517 -2.50764,-4.07564 -0.59527,-4.02403 1.02116,0.0276 14.01515,10.46578 14.41763,11.58185 0.14041,0.38937 0.91887,1.08885 1.7299,1.5544 0.81104,0.46556 3.79607,2.79735 6.63341,5.18176 4.61654,3.87961 13.29204,10.73904 18.79604,14.86141 2.26153,1.69384 6.88086,3.35801 8.53053,3.07321 1.11888,-0.19317 2.18094,1.00888 4.0476,4.58113 0.795,1.52138 2.46366,2.82647 6.46933,5.05974 6.68839,3.72897 8.89269,5.96055 10.62539,10.75687 l 1.30834,3.62123 0.35475,-2.46524 c 0.63015,-4.37905 6.14898,-2.04736 5.63905,2.38249 -0.12288,1.0675 -0.0638,3.35587 0.13119,5.08526 0.43846,3.8879 -0.39599,6.22027 -1.99538,5.57724 -1.83669,-0.73843 0.1453,3.64672 3.05825,6.7664 3.02357,3.23814 4.90095,4.25484 4.1836,2.26564 -0.32638,-0.90506 -0.13103,-1.43175 0.64822,-1.74768 0.93754,-0.3801 0.96734,-0.69896 0.18692,-1.9997 -1.24091,-2.06824 -2.25357,-7.88631 -1.81624,-10.43493 l 0.35225,-2.05282 0.94171,2.04585 c 1.22663,2.66485 2.02046,3.11837 4.61037,2.63394 3.38771,-0.63367 12.42749,4.60912 12.98646,7.53173 0.44702,2.33728 0.64111,2.41028 1.79693,0.67578 0.98858,-1.48351 2.54244,-1.21505 4.57845,0.79102 0.78676,0.7752 2.32577,1.79617 3.42,2.26882 1.09424,0.47265 2.68457,1.89236 3.53407,3.15493 0.8495,1.26256 2.1749,2.57761 2.94533,2.92233 0.77042,0.34472 2.54147,2.30268 3.93565,4.35103 1.39418,2.04835 3.25981,4.21743 4.14583,4.82017 0.88603,0.60274 3.42397,2.65325 5.63987,4.5567 2.21591,1.90344 4.70844,4.04113 5.53897,4.75042 3.61075,3.08364 -0.29978,0.31998 -5.08332,-3.59251 -2.89396,-2.36699 -5.73489,-4.21795 -6.31318,-4.11323 -1.09958,0.19911 -0.6234,0.68348 5.92939,6.03122 1.58409,1.29279 2.4278,2.56547 3.2899,4.96264 1.22129,3.39518 4.93864,9.51494 5.92213,9.74861 0.31814,0.0757 0.71613,0.51905 0.88428,0.98532 0.59721,1.65608 -3.075,0.96894 -5.13744,-0.9613 -1.07879,-1.00965 -2.63904,-2.14423 -3.46721,-2.5213 -0.82818,-0.37707 -1.74446,-1.34742 -2.03617,-2.15635 -1.68095,-4.66127 -8.10748,-9.88807 -11.3604,-9.23958 -2.0336,0.40541 -2.74157,0.1399 -5.27175,-1.97711 -1.60748,-1.34498 -4.66838,-3.17901 -6.802,-4.07563 -5.49517,-2.30924 -13.35958,-8.31309 -14.29802,-10.9154 -1.74932,-4.85085 -6.31038,-7.74809 -7.19748,-4.57192 -1.97666,7.07731 -11.78212,-7.37878 -16.41238,-24.1966 l -1.62001,-5.88412 -5.08678,-2.41557 c -5.77411,-2.74197 -5.59235,-2.74029 -7.08697,-0.0653 l -1.11197,1.99013 -3.54958,-0.45111 c -2.42555,-0.30826 -3.91838,-0.91006 -4.71425,-1.90046 -0.64057,-0.79714 -1.73453,-1.78338 -2.43102,-2.19163 -1.17145,-0.68668 -1.18793,-0.74018 -0.21988,-0.71406 1.14263,0.0308 1.46944,-2.18484 0.37444,-2.53862 -0.34283,-0.11077 -1.24779,-1.90654 -2.01103,-3.99061 -1.56634,-4.27696 -4.60765,-6.72282 -7.102,-5.71154 -0.9402,0.38118 -1.72055,0.0211 -3.02658,-1.39647 -0.96786,-1.05054 -2.63876,-2.65558 -3.71311,-3.56675 -1.07435,-0.91117 -2.25911,-2.50162 -2.63278,-3.53432 -2.08885,-5.77278 -7.58527,-10.16298 -10.99372,-8.7811 -2.37743,0.96388 -2.64873,0.902 -5.83538,-1.33112 -1.94944,-1.3661 -4.79193,-2.62619 -6.82161,-3.02405 -4.14589,-0.81268 -14.473552,-6.02094 -15.52364,-7.82862 -0.407763,-0.70194 -1.179581,-2.01442 -1.715145,-2.91659 -2.046583,-3.44753 -8.376341,-5.32005 -7.229026,-2.13854 0.908909,2.52041 -0.588921,4.9136 -2.286224,3.65288 -0.756881,-0.5622 -3.090516,-2.19963 -5.185858,-3.63875 -5.885767,-4.04243 -8.182736,-7.26827 -11.610433,-16.30555 -4.29588,-11.32629 -4.492168,-11.49093 -13.567768,-11.38021 l -3.349316,0.0409 -0.950787,2.83821 c -1.019644,3.04375 -4.687572,5.30427 -8.462543,5.21541 l -1.557853,-0.0367 -2.887727,-7.94493 -2.887727,-7.94494 1.193736,-0.91962 c 1.160939,-0.89435 1.144446,-1.02737 -0.600368,-4.84165 l -1.794102,-3.92203 1.924058,-2.96841 c 3.148782,-4.85791 6.260651,-8.390629 8.019022,-9.103529 1.042125,-0.4225 1.94035,-1.42591 2.434664,-2.71975 2.491164,-6.520523 13.921086,-11.486455 18.87746,-8.201652 2.476148,1.641048 7.839301,1.750844 6.58741,0.134857 -0.819394,-1.057703 -0.427253,-3.045118 0.941582,-4.772029 1.910953,-2.410841 8.452118,-4.410996 9.27832,-2.837119 0.619211,1.179567 2.682718,1.153752 5.704512,-0.07137 2.167886,-0.878921 1.561088,-1.766986 -1.139189,-1.667219 -4.73992,0.17512 -4.543077,-1.597287 0.402047,-3.620068 2.602636,-1.064626 3.2042,-1.063879 4.965687,0.006 1.719052,1.044062 2.55489,1.063536 5.873216,0.136811 8.321322,-2.323935 18.298642,-2.92333 18.902422,-1.13558 0.43314,1.282597 -0.44548,2.575703 -2.36223,3.476509 -3.05235,1.434505 -3.33325,2.521641 -1.23011,4.760765 3.71239,3.952433 3.44869,6.25549 -1.13384,9.902265 -4.91288,3.90969 -1.77238,9.50791 6.43292,11.467239 1.88901,0.45107 5.5455,1.384 8.12554,2.07317 5.29951,1.41558 10.10696,0.74119 10.06265,-1.41161 -0.0379,-1.84304 0.96195,-1.76885 7.83941,0.58164 7.57618,2.5893 7.5476,2.59221 8.20307,-0.8333 0.27329,-1.42817 1.13888,-3.197589 1.92354,-3.932039 0.78467,-0.73446 1.6876,-1.93112 2.00652,-2.65925 0.65113,-1.48662 6.31907,-1.6147 7.48756,-0.1692 0.31187,0.3858 2.38727,1.29109 4.61201,2.01176 7.16672,2.32151 8.8007,4.429879 7.25639,9.363119 -0.59108,1.88822 -0.62595,3.37882 -0.11235,4.80304 1.36005,3.7714 1.18346,4.10052 -3.14067,5.85364 -4.67054,1.89357 -6.94186,1.98957 -7.54435,0.31887 -0.54269,-1.50489 -1.63223,-1.78203 -3.86185,-0.98233 -0.95968,0.34423 -2.97974,0.28826 -4.48901,-0.12434 -1.50927,-0.4126 -3.45485,-0.46204 -4.32352,-0.10985 -1.01726,0.41242 -2.34025,0.24581 -3.71714,-0.46814 -4.66847,-2.42069 -12.04973,-0.4642 -10.84563,2.87477 1.77445,4.92057 4.37926,6.37048 9.89336,5.50693 14.32274,-2.24304 24.61252,4.0921 20.92136,12.88073 -2.00732,4.77943 -0.14557,13.50793 3.67585,17.23361 3.91527,3.81717 13.8141,9.60779 16.59883,9.70997 1.37374,0.0504 2.95763,0.60661 3.51976,1.23599 0.64628,0.72361 1.95875,1.07785 3.56977,0.9635 3.04316,-0.21599 3.02455,-0.5514 -0.12498,-2.25213 -2.96006,-1.5984 -3.18575,-3.16037 -0.60766,-4.2056 2.275,-0.92235 3.58582,-0.17121 5.09707,2.92078 0.25951,0.53095 3.17698,0.575 6.44669,0.0974 8.74414,-1.27737 18.17959,5.2198 11.5083,7.92453 -1.95085,0.79092 -2.0128,2.35461 -0.17829,4.49999 3.61514,4.22777 3.89301,8.23665 0.75316,10.86607 -5.03233,4.21426 -1.41158,9.75658 9.82142,15.03377 8.5723,4.02721 11.03268,4.36789 11.96513,1.65676 l 0.58514,-1.70131 2.9037,0.85625 c 16.342,4.81897 19.71883,14.17667 4.96203,13.75118 -6.88242,-0.19849 -7.49189,1.49043 -2.32826,6.45196 2.73852,2.63134 3.34563,2.76743 10.01897,2.24585 13.20735,-1.03227 20.16557,3.67038 18.44287,12.46443 -1.34266,6.85397 2.58598,12.81436 10.79173,16.37286 8.10311,3.5138 10.19475,4.75943 10.7971,6.42975 0.41888,1.16154 1.07318,1.54513 2.813,1.64913 2.79537,0.16711 3.15843,-0.4955 0.95012,-1.73405 -2.21167,-1.24042 -2.4673,-2.15806 -0.68756,-2.46815 0.84418,-0.14708 1.34385,-0.53567 1.20039,-0.93349 -0.13518,-0.37484 -0.004,-0.77938 0.29061,-0.89899 0.29501,-0.1196 0.77188,0.43557 1.05971,1.23372 0.66976,1.85725 1.70283,2.24631 5.83087,2.19594 8.7873,-0.10721 13.84659,3.41796 10.29291,7.1718 -1.2261,1.29515 -1.21804,1.42844 0.26877,4.44837 2.38537,4.84503 2.33143,6.15247 -0.38154,9.24711 -4.40994,5.03038 -2.29396,9.2603 7.15478,14.30264 6.8094,3.63385 9.32836,4.02258 11.10455,1.71368 1.40964,-1.83241 11.67919,3.09548 12.77325,6.12929 1.39167,3.85912 -0.12115,4.88544 -7.23861,4.91075 -5.52353,0.0196 -6.18103,0.50268 -5.02664,3.69288 1.33476,3.68936 3.50069,4.77768 8.78618,4.41565 12.03879,-0.82461 17.88283,3.38963 15.61661,11.26141 -0.52539,1.82495 -0.92862,3.39195 -0.89607,3.48222 0.0326,0.0903 0.33628,1.68925 0.67495,3.55327 0.78216,4.30501 1.99845,5.7768 7.82619,9.4702 4.43704,2.81202 6.24449,4.46438 5.30159,4.84666 -1.41803,0.57491 1.06618,4.16965 9.51028,13.76175 l 25.35927,28.41489 -24.96448,-22.80319 z m -4.06369,-5.18658 c -1.3453,-1.05662 -3.13779,-2.52596 -3.98331,-3.26521 -0.84553,-0.73924 -1.78353,-1.11674 -2.08446,-0.83889 -0.7837,0.72363 0.63441,3.17265 2.29925,3.97074 0.77798,0.37294 1.6435,1.31305 1.92337,2.08914 0.76243,2.11421 2.98457,4.81378 3.71776,4.51652 2.25596,-0.91463 1.3892,-3.91044 -1.87261,-6.4723 z m -3.52806,20.16531 c -0.6532,-0.48148 -1.29355,-0.59819 -1.42301,-0.25935 -0.29862,0.78163 1.90721,3.25136 2.63896,2.95469 0.78319,-0.31753 0.17204,-1.67224 -1.21595,-2.69534 z M 357.49251,339.0257 c -0.9997,-1.00054 -1.73876,-1.2788 -2.19237,-0.82542 -0.37637,0.37616 -0.91053,0.77565 -1.18704,0.88776 -0.65295,0.26472 0.92795,2.77174 3.2499,5.15376 1.99102,2.04252 2.88474,2.14934 2.66539,0.3186 -0.28233,-2.35641 -1.06324,-4.06079 -2.53588,-5.5347 z m 5.38002,17.97692 c -1.10447,-0.29609 -2.01551,-1.21012 -2.91273,-2.9223 -0.71806,-1.37029 -3.59526,-4.83108 -6.39378,-7.69064 l -5.08821,-5.1992 0.48731,2.51709 c 0.26802,1.3844 0.77498,2.93951 1.12658,3.4558 0.35161,0.51628 0.57816,1.60218 0.50345,2.41309 -0.26719,2.90023 3.51085,5.22465 7.0293,4.32474 1.68371,-0.43064 2.78917,0.82222 1.26921,1.43845 -0.59719,0.24212 -1.13594,0.77536 -1.1972,1.18499 -0.0613,0.40962 0.39792,0.53828 1.0204,0.2859 0.78648,-0.31886 1.60617,0.0959 2.68659,1.35941 1.03713,1.21288 1.90957,1.67443 2.62037,1.38626 1.45553,-0.59012 0.807,-2.02859 -1.15129,-2.55359 z m -55.61047,-83.9928 c -0.82865,0.09 -1.60262,0.41493 -1.71995,0.72201 -0.27481,0.7193 1.49496,1.16429 2.71636,0.683 1.43548,-0.56569 0.70885,-1.59028 -0.99641,-1.40501 z M 280.06378,253.6988 c -0.62886,-0.25283 -1.22299,-0.25131 -1.3203,0.003 -0.25298,0.66218 3.9112,5.21839 4.53737,4.96453 1.46199,-0.59274 -0.72152,-3.9646 -3.21707,-4.96792 z m 1.92893,8.63143 c -1.2666,-0.93363 -5.81436,0.29249 -5.37975,1.45043 0.43123,1.14894 1.48548,1.66838 2.97916,1.46788 0.80633,-0.10824 2.07821,-0.22543 2.82641,-0.26044 1.59767,-0.0748 1.39937,-1.31249 -0.42582,-2.65787 z m -9.17753,-8.37682 c -2.01787,-2.01959 -4.41199,-2.99004 -4.38702,-1.77825 0.0402,1.95271 -4.66917,3.08665 -6.96141,1.67618 -1.17821,-0.72497 -1.71317,-0.846 -1.26682,-0.2866 0.42492,0.53257 0.97021,1.5163 1.21174,2.18607 0.63182,1.75202 4.59007,3.62488 6.24397,2.95434 0.77862,-0.31567 1.50754,-0.21286 1.66921,0.23543 0.38623,1.07103 5.2759,3.46795 5.90412,2.8942 0.47199,-0.43107 -0.7949,-1.69076 -4.25687,-4.23265 -1.79961,-1.32133 -1.00308,-2.25122 1.22261,-1.42732 2.87092,1.06275 3.09614,0.25639 0.62047,-2.2214 z m 0.83534,9.44325 c -2.68415,-1.67642 -4.0552,-2.0012 -3.64489,-0.86342 0.2226,0.61729 6.00056,3.98008 6.4945,3.77982 0.75828,-0.30743 -0.13329,-1.21989 -2.84961,-2.9164 z m -6.39155,-0.62563 c -0.37056,-0.45841 -1.0015,-0.7006 -1.40207,-0.53819 -0.40057,0.1624 -1.18478,-0.14931 -1.74267,-0.69269 -1.65848,-1.61535 -2.01964,-0.78637 -0.92546,2.12423 0.9096,2.41967 1.16552,2.67569 2.23913,2.24042 0.66668,-0.27029 1.65406,-0.47951 2.19419,-0.46493 1.03517,0.0279 0.87697,-1.13476 -0.36312,-2.66884 z m -62.30766,-84.18104 c -2.08398,-0.19848 -2.99688,0.96169 -1.21647,1.54597 1.42672,0.46821 3.32805,-0.0805 3.04065,-0.87744 -0.10163,-0.28182 -0.92251,-0.58266 -1.82418,-0.66853 z m 22.76408,64.35471 c -1.01965,-0.67428 -3.42642,-2.55332 -5.34836,-4.17564 -4.03341,-3.40462 -4.96857,-3.40353 -4.34154,0.005 0.24702,1.34279 0.23539,2.84292 -0.0258,3.33361 -1.16601,2.19018 1.46641,7.66656 5.01961,10.44262 4.00843,3.13172 4.53017,3.01261 5.36035,-1.22375 0.35284,-1.80051 0.89371,-3.78987 1.20194,-4.4208 0.76503,-1.566 0.31672,-2.51757 -1.86616,-3.96108 z M 168.49141,103.85066 c -2.6959,-1.52717 -2.83193,-1.12887 -1.61169,4.71914 0.25909,1.2417 0.59301,3.07397 0.74203,4.07171 0.35741,2.39285 2.01597,1.82626 3.26443,-1.11519 1.11792,-2.63388 -0.0387,-6.34099 -2.39477,-7.67566 z m 49.50797,144.84899 c -0.0589,-0.80202 -0.89601,-2.15221 -2.03968,-3.28978 l -1.93984,-1.92946 0.99121,-1.56049 c 0.91378,-1.43859 0.89473,-1.61705 -0.24383,-2.28445 -0.67928,-0.39817 -1.46955,-1.3742 -1.75615,-2.16895 -0.50801,-1.4087 -0.54868,-1.3759 -1.61942,1.30572 -1.96045,4.90989 -6.3001,2.17371 -6.87231,-4.33304 -0.36912,-4.19731 -5.44376,-8.79559 -8.389,-7.60151 -1.23128,0.49919 -0.96986,1.12895 1.48033,3.56603 1.33641,1.32926 2.70454,3.61314 4.09435,6.83485 2.59949,6.02587 9.69876,12.19023 16.48915,14.31766 l 2.12472,0.66568 -1.10984,-1.08097 c -0.61041,-0.59453 -1.15478,-1.69312 -1.20969,-2.44129 z M 207.605,230.70708 c -0.89208,0.20021 -1.12088,0.59418 -0.82367,1.41833 0.67563,1.87352 2.11739,2.29363 2.49472,0.72692 0.4216,-1.75055 -0.15151,-2.48629 -1.67105,-2.14525 z m -43.5632,-79.45241 c -2.1107,-1.82124 -3.36718,-1.80081 -2.04468,0.0333 0.80804,1.12059 4.07508,3.78333 4.45365,3.62985 0.54293,-0.22012 -0.81917,-2.29132 -2.40897,-3.66311 z m -47.28651,9.81268 -4.9532,-3.93227 0.88029,2.96006 c 0.97107,3.2653 6.8055,8.14288 8.84946,7.39813 1.65365,-0.60258 0.35062,-2.35554 -4.77655,-6.42592 z m 227.95346,167.14947 c -1.16382,1.51287 -1.83887,1.21439 -4.81085,-2.12716 -5.03157,-5.65724 -2.89827,-8.08446 2.53916,-2.88899 3.07819,2.94121 3.37082,3.58737 2.27169,5.01615 z m -15.34976,-16.38717 c -1.9002,-0.20841 -4.00224,-2.23994 -3.54798,-3.42896 0.38509,-1.00796 1.66386,-0.7309 2.0908,0.45303 0.17871,0.49555 0.94406,1.40783 1.70079,2.02727 l 1.37586,1.12628 z m 5.0765,30.9204 c -2.2696,-1.44514 -7.15958,-2.15377 -7.32299,-1.06121 -0.0647,0.43239 0.40051,1.10721 1.03329,1.49979 2.92267,1.81228 5.38301,5.33526 7.68666,11.00658 1.37183,3.37726 3.02135,6.52267 4.04123,7.70608 l 1.7233,1.99957 -1.61989,0.17598 c -2.91079,0.31622 -6.66024,-2.71928 -8.04061,-6.50959 -1.91056,-5.24616 -6.24148,-9.56999 -8.84474,-8.83027 -1.36771,0.38863 -2.26426,0.11998 -3.63216,-1.08838 -0.99891,-0.88241 -4.03936,-2.92396 -6.75655,-4.53679 -6.40421,-3.8013 -10.06315,-7.17092 -11.21075,-10.32429 -1.63451,-4.49123 -5.53954,-6.75236 -6.04057,-3.49765 -1.08118,7.02334 -11.13302,-8.23027 -13.23828,-20.089 -1.44217,-8.12364 -2.72219,-10.0355 -8.13551,-12.15138 -4.28957,-1.67664 -5.17439,-1.64715 -5.69714,0.18986 -1.15291,4.05147 -10.74957,1.11503 -10.35495,-3.16846 0.0741,-0.80408 -0.17056,-1.72523 -0.54364,-2.047 -0.37308,-0.32177 -1.27888,-2.13441 -2.01288,-4.02809 -1.59736,-4.12108 -1.09308,-5.04892 2.04431,-3.76141 3.66012,1.50203 3.64084,-1.30409 -0.0403,-5.87195 -2.1042,-2.61104 -1.96005,-3.51033 0.74143,-4.62525 2.2314,-0.9209 -0.10337,-4.16881 -7.79439,-10.84279 -1.89578,-1.64508 -1.89925,-1.65366 -0.24302,-0.60108 2.07844,1.3209 11.53099,10.80466 13.57226,13.61706 1.36535,1.88113 1.43875,2.22054 0.8053,3.72351 -1.2619,2.99406 0.49791,4.77555 4.34527,4.3988 2.71408,-0.26578 4.1962,0.41291 6.57427,3.01044 0.88979,0.97191 3.33303,3.11807 5.42942,4.76923 2.09638,1.65116 3.98018,3.46613 4.18621,4.03326 0.20578,0.56723 0.68152,1.10407 1.05664,1.19319 3.02728,0.71926 5.63536,5.64686 3.89752,7.36381 -1.29587,1.28029 -1.71327,4.43073 -1.24467,9.39445 0.21846,2.31401 -0.83509,5.21415 -1.88389,5.18584 -1.41608,-0.0382 0.31199,3.73325 3.08975,6.7433 2.37788,2.57673 3.94384,3.20261 3.25858,1.3024 -0.18446,-0.51151 0.14776,-1.10931 0.75282,-1.35462 0.87758,-0.3558 0.92029,-0.69399 0.22517,-1.78308 -1.21545,-1.90433 -2.16188,-8.28384 -1.54691,-10.42702 l 0.51825,-1.80609 0.71169,1.91674 c 0.72258,1.94607 2.93126,2.55297 5.50041,1.51136 0.50988,-0.20671 1.37611,-0.0857 1.92496,0.26898 0.54884,0.35466 1.55032,0.42087 2.2255,0.14713 2.90272,-1.17684 6.51453,2.81309 5.41186,5.97842 -0.79156,2.27227 0.0748,3.03195 1.01352,0.88871 1.30499,-2.97945 11.66102,5.18491 17.18712,13.54978 0.86548,1.31006 3.18403,3.44388 5.15235,4.74183 1.96833,1.29795 3.64801,2.55571 3.73263,2.79501 0.0845,0.23937 -0.6524,-0.0783 -1.63782,-0.70572 z m -13.17688,-12.89827 c -7.51607,-7.66481 -8.19373,-7.80134 -7.21461,-1.45348 0.33515,2.17283 0.46525,4.48125 0.28913,5.12984 -0.71925,2.64865 0.86309,7.02996 3.51171,9.72263 3.18243,3.23582 3.85631,2.89277 4.8786,-2.48348 0.45904,-2.41411 1.09011,-4.91227 1.40237,-5.55147 0.76139,-1.55853 0.63746,-1.7904 -2.86694,-5.36415 z m -10.39611,0.58853 -1.32249,-1.32025 -1.08313,2.25481 c -2.15812,4.49267 -4.98151,1.35348 -5.18891,-5.7693 -0.064,-2.19676 -3.64888,-6.17721 -5.743,-6.37665 -2.427,-0.23115 -2.72749,1.16758 -0.6891,3.20773 0.94281,0.94361 2.59117,3.85993 3.97791,7.03781 1.89061,4.33253 2.85339,5.86441 4.77572,7.59859 2.5062,2.26089 8.72536,6.25709 9.34585,6.00529 0.43868,-0.17801 -1.57248,-5.30513 -2.89747,-7.38663 -0.71999,-1.13106 -0.78156,-1.70973 -0.23957,-2.25145 0.89013,-0.88966 0.75991,-1.30711 -0.93581,-2.99995 z m -5.30985,-7.80912 c -0.80841,0.80799 -0.41214,2.42162 0.65707,2.67566 0.92933,0.2208 1.58204,-2.5685 0.70972,-3.03293 -0.3622,-0.19284 -0.97725,-0.0321 -1.36679,0.35727 z M 281.35719,296.4676 c -3.59945,-0.0776 -3.74561,0.0917 -2.02733,2.34803 0.71655,0.94091 1.908,3.38605 2.64767,5.43364 l 1.34499,3.72285 0.33907,-2.23629 c 0.1865,-1.22996 0.74124,-3.17602 1.23277,-4.32458 1.38507,-3.23648 0.22156,-4.86272 -3.53703,-4.9437 z m 43.44199,21.62359 c -0.78156,0.31687 -2.53465,-1.0016 -2.9823,-2.24293 -0.39751,-1.10231 1.28025,-1.3427 2.31784,-0.3321 1.36305,1.3276 1.58829,2.20049 0.66446,2.57503 z m -1.92259,5.56862 c 0.32867,3.17897 -4.0249,-0.69029 -5.55701,-4.93881 -0.84845,-2.35276 -1.1673,-2.72097 -2.04732,-2.36418 -1.36878,0.55494 -3.74125,-1.22843 -3.36996,-2.53318 0.71272,-2.50459 2.07539,-2.45486 4.89908,0.17878 1.52811,1.42526 3.09248,2.66601 3.47637,2.75722 0.75895,0.18032 2.33737,4.37119 2.59884,6.90017 z M 311.66921,298.2286 c -1.55395,0.63001 -3.80475,-0.61209 -4.47447,-2.46924 -0.36428,-1.01014 -1.12198,-2.28431 -1.68379,-2.8315 -0.89827,-0.87491 -0.86491,-1.03054 0.27668,-1.29049 0.94999,-0.21632 1.80349,0.34381 3.18252,2.08865 1.03641,1.31133 2.23477,2.79313 2.66303,3.29287 0.52378,0.61122 0.53558,1.00718 0.036,1.20971 z m 0.92817,7.31937 c -0.72927,0.29567 -2.98757,-2.12218 -2.6957,-2.88615 0.28093,-0.73531 1.34359,-0.11002 2.41985,1.42387 0.52431,0.74724 0.63195,1.3179 0.27585,1.46228 z m -8.39499,-17.16526 c -1.67325,1.28903 -4.11115,0.22797 -3.93247,-1.71154 0.16735,-1.81652 1.15605,-2.12176 3.1856,-0.98348 2.14305,1.20194 2.2384,1.54599 0.74687,2.69502 z m 4.97857,21.3488 c -1.76211,0.71441 -4.65789,-3.16997 -3.31678,-4.44911 1.17712,-1.12272 2.83062,-0.24877 3.60804,1.90701 0.61135,1.69528 0.55357,2.19958 -0.29126,2.5421 z m -8.80953,-26.19155 c -0.20498,0.30449 -0.64028,0.32269 -0.96733,0.0405 -0.32705,-0.2822 -1.26854,-0.52895 -2.0922,-0.54834 -2.17117,-0.0511 -4.14565,-2.36153 -3.29836,-3.85956 0.35319,-0.62444 0.47974,-1.58573 0.28123,-2.1362 -0.64638,-1.79241 0.5703,-1.44546 3.02517,0.86267 2.45374,2.30707 3.72001,4.64787 3.05149,5.64093 z m 3.89096,19.09078 c -0.75801,0.30732 -2.23264,-0.73555 -2.6409,-1.86765 -0.48863,-1.35499 0.84913,-2.01262 1.77193,-0.87105 0.94506,1.1691 1.37764,2.53247 0.86897,2.7387 z m -12.55177,-27.51181 c -2.56537,0.81483 -4.33176,-0.232 -3.60432,-2.13606 0.50161,-1.31295 0.70993,-1.41086 2.34691,-1.10303 2.71614,0.51076 3.4989,2.52714 1.25741,3.23909 z m -56.763,-88.51249 c -0.71414,1.46183 -1.85031,1.32087 -3.45949,-0.42923 -0.73995,-0.80475 -1.92407,-2.01563 -2.63136,-2.69083 -0.70729,-0.67521 -2.02025,-1.94994 -2.91768,-2.83274 -0.89744,-0.8828 -2.12812,-1.58565 -2.73484,-1.56189 -0.60673,0.0238 -1.24815,-0.3589 -1.42538,-0.85037 -0.4271,-1.18433 0.74678,-2.29901 1.92293,-1.82597 0.51466,0.20699 2.36489,0.88702 4.11161,1.51116 5.52147,1.97295 5.66917,2.08172 6.69673,4.93113 0.5843,1.62026 0.75649,3.09576 0.43748,3.74874 z m 16.84962,47.32683 c -0.22084,0.32804 -1.59625,-0.35506 -3.05647,-1.51799 -3.86246,-3.07612 -4.00152,-4.25521 -0.32874,-2.78735 2.07044,0.82747 4.04011,3.33252 3.38521,4.30534 z m -2.10067,10.94138 c -1.26936,0.33347 -1.7452,0.0863 -2.3816,-1.23693 -0.93402,-1.9421 1.001,-2.06952 2.92783,-0.1928 0.94626,0.92165 0.897,1.05059 -0.54623,1.42973 z m -9.05642,-28.05982 c -0.23182,0.34435 0.0126,1.82966 0.54303,3.3007 1.29443,3.58946 0.82925,3.95713 -2.65076,2.09512 -3.66429,-1.96061 -4.01439,-1.82413 -2.94286,1.14723 0.55416,1.5367 0.62019,2.61276 0.18687,3.04584 -0.72589,0.72552 0.71843,3.91368 2.24786,4.96189 0.52555,0.36019 0.71194,0.88712 0.54111,1.52964 -0.14847,0.55836 0.11489,1.43007 0.61198,2.02561 0.47994,0.57498 1.19937,1.89758 1.59873,2.93911 0.39938,1.0415 1.21147,2.08881 1.8047,2.32731 0.59322,0.2385 1.2299,0.88469 1.41483,1.43596 0.39637,1.18147 -5.67982,-2.18119 -6.1133,-3.38322 -0.1512,-0.41927 -0.76027,-0.95746 -1.3535,-1.19596 -0.59322,-0.2385 -1.25409,-0.9203 -1.46858,-1.51509 -0.2145,-0.5948 -1.40668,-1.65555 -2.64929,-2.35722 -1.24261,-0.70166 -2.74482,-2.09356 -3.33825,-3.0931 -0.59343,-0.99955 -1.44203,-2.05968 -1.88576,-2.35586 -0.44373,-0.29617 -0.81509,-1.09008 -0.82522,-1.76425 -0.016,-1.06054 0.16831,-1.04216 1.36721,0.13639 0.83581,0.82163 1.8305,1.18179 2.50672,0.90763 1.06387,-0.43132 1.05122,-0.5065 -0.24789,-1.47361 -0.75293,-0.56051 -2.03364,-1.53668 -2.84602,-2.16928 -0.81239,-0.6326 -2.42453,-1.65603 -3.58254,-2.27429 -2.64487,-1.41209 -3.44235,-3.27291 -1.7046,-3.97744 1.28672,-0.52167 3.13266,0.33003 6.05323,2.7929 l 1.68079,1.41738 -0.36598,-1.93037 -0.36598,-1.93038 1.80913,0.99548 1.80914,0.99548 -0.89242,-1.26952 c -0.77619,-1.10418 -0.71921,-1.30952 0.43755,-1.57661 1.02682,-0.23709 1.40672,0.0321 1.66674,1.18104 0.32725,1.44607 0.36448,1.44452 1.31665,-0.0545 0.5924,-0.93262 1.80252,-1.78905 3.06019,-2.16575 2.05459,-0.61539 3.39504,0.0358 2.5765,1.25174 z m -9.77196,-2.96787 c -1.13454,1.68529 -8.38106,-4.62836 -7.46483,-6.50385 0.413,-0.8454 0.79324,-0.69622 2.08957,0.81978 0.87158,1.01928 1.97355,1.94904 2.44881,2.06612 1.33827,0.3297 3.4132,2.89492 2.92645,3.61795 z m -12.10573,0.31701 c -0.28821,0.11684 -1.17416,-0.31975 -1.96878,-0.97023 -1.35095,-1.10587 -1.50352,-1.09018 -2.34947,0.24162 -0.84564,1.33131 -1.01447,1.34919 -2.58598,0.27388 -1.99023,-1.36181 -2.30793,-2.01298 -1.41671,-2.90374 0.96784,-0.96733 4.92246,-0.91163 5.27802,0.0743 0.16795,0.4657 0.89412,0.94501 1.61373,1.06512 1.33704,0.22318 2.37541,1.83537 1.42919,2.219 z m -11.56134,-7.06205 c -0.21416,2.47147 -1.29246,2.46096 -3.50792,-0.0342 -2.13955,-2.40963 -2.3875,-3.05498 -1.51051,-3.93151 0.37881,-0.3786 0.66769,-1.35882 0.64196,-2.17826 -0.044,-1.40027 0.0724,-1.38285 1.93414,0.28974 2.24763,2.01924 2.684,3.06522 2.44233,5.8542 z M 143.07751,92.280741 c -0.8974,3.07905 -2.0604,3.54674 -5.30175,2.13206 -7.67265,-3.34863 -11.22367,-9.476344 -5.09134,-8.785699 1.19591,0.13469 2.43405,0.139607 2.75143,0.01093 0.31738,-0.128674 1.19668,0.27327 1.954,0.893211 0.75731,0.619934 2.43858,1.433711 3.73615,1.808392 2.83165,0.817656 2.85066,0.856026 1.9515,3.941076 z m 28.11935,82.150469 c -1.26473,0.20786 -1.75732,0.58066 -1.74214,1.31847 0.0307,1.49369 -0.86322,1.62115 -1.37704,0.19632 -0.44823,-1.24294 -1.07887,-1.22346 -3.79469,0.11719 -1.50089,0.7409 -7.13555,-1.01165 -8.43974,-2.62502 -1.2093,-1.49599 -0.24666,-3.05365 2.18697,-3.53881 1.53069,-0.30515 2.49045,-0.87538 3.10697,-1.84599 0.94006,-1.47996 5.85287,0.48176 10.01369,3.99853 2.077,1.75551 2.08259,2.04459 0.046,2.37931 z m -21.42855,-35.27724 c -0.6975,1.82568 -2.21049,1.76214 -5.29388,-0.22233 -9.49146,-6.10865 -14.43962,-8.91827 -22.18992,-12.59968 -4.7405,-2.25175 -8.70132,-4.32213 -8.80183,-4.60086 -0.42068,-1.16653 2.37819,-2.39745 4.93354,-2.16974 1.45805,0.12993 3.74074,-0.20557 5.07263,-0.74556 l 2.42162,-0.98179 0.93445,3.11918 0.93445,3.11919 6.0052,3.33802 c 3.30286,1.83591 6.27289,3.22907 6.60006,3.0959 2.42086,-0.98498 10.29245,6.26901 9.38368,8.64767 z m -5.39138,-2.76889 c -1.42992,-1.67174 -3.71751,-2.97236 -3.98706,-2.26684 -0.21419,0.56065 4.21185,4.72363 5.00281,4.70546 0.88424,-0.0203 0.7243,-0.4043 -1.01575,-2.43862 z m 6.51791,11.76433 c -0.0998,0.26119 -1.36985,0.15 -2.82235,-0.24709 -1.81976,-0.49748 -3.05596,-0.4414 -3.97573,0.18035 -0.73415,0.49628 -2.00036,0.83891 -2.8138,0.76146 -2.03308,-0.19363 -2.11981,0.52122 -0.28592,2.35669 2.8863,2.88878 0.6443,4.34977 -4.65422,3.03291 -4.06975,-1.01146 -6.55052,-6.1414 -3.55685,-7.35512 1.62533,-0.65895 0.38608,-3.42263 -2.38906,-5.32787 -0.88094,-0.6048 -2.30218,-1.72792 -3.15832,-2.49582 -2.39009,-2.14375 -6.0175,-4.27815 -6.75948,-3.97733 -1.00271,0.40653 -2.89072,-0.94566 -4.67807,-3.35044 -0.9412,-1.26633 -2.95025,-2.77093 -4.88671,-3.6597 -2.353,-1.07996 -3.29538,-1.84823 -3.31293,-2.70085 -0.037,-1.79794 4.551,-0.99717 6.33922,1.10643 0.73395,0.86339 1.48155,1.48407 1.66133,1.3793 1.11241,-0.64836 1.77716,-0.43099 2.19094,0.71642 0.52842,1.4653 2.44393,2.35351 3.8867,1.80224 0.52446,-0.20039 1.73496,0.31953 2.69002,1.15537 0.95505,0.83585 2.45222,1.56686 3.32704,1.62446 2.09518,0.13795 16.9303,8.64959 18.75741,10.76205 0.78396,0.9064 1.73093,1.72059 2.10438,1.80932 0.9757,0.23182 2.55022,1.86754 2.3364,2.42722 z m 3.20518,15.97335 c -0.83067,0.33678 -2.25029,-0.78452 -2.75095,-2.17284 -0.61718,-1.71145 0.17575,-2.16731 1.50978,-0.86798 1.1662,1.13587 1.84399,2.79642 1.24117,3.04082 z m -18.63431,6.45902 c 0.0308,2.12606 -1.28602,0.54826 -1.77744,-2.12979 -0.44112,-2.40401 -1.72186,-3.75093 -3.05335,-3.21111 -0.4064,0.16477 -0.58684,0.72124 -0.40099,1.2366 0.60192,1.66912 -2.09286,0.68475 -4.3356,-1.58375 -2.19967,-2.22494 -5.01981,-4.49856 -11.4089,-9.19797 -6.59851,-4.85345 -9.11392,-7.06852 -9.63698,-8.48632 -0.27349,-0.74134 -1.09481,-1.44763 -1.82515,-1.56954 -0.91323,-0.15243 -1.46194,-0.74235 -1.75718,-1.88917 -0.34132,-1.32575 -0.73104,-1.63063 -1.901405,-1.48751 -1.04621,0.12794 -2.363128,-0.69273 -4.551974,-2.83668 l -3.079877,-3.0167 2.658495,-0.70908 c 4.676564,-1.24735 9.579081,1.69608 8.465881,5.08284 -0.44099,1.34167 -0.0396,3.55166 0.59805,3.29312 0.17397,-0.0705 0.52234,-0.8846 0.77415,-1.80905 l 0.45785,-1.6808 1.92959,1.58737 c 1.06129,0.87306 3.2494,2.5833 4.86247,3.80052 1.89774,1.43202 3.1844,2.91062 3.64554,4.18935 0.91886,2.54801 2.98287,5.25124 4.03109,5.27953 0.76911,0.0207 3.77252,2.72101 4.13044,3.71352 0.29589,0.82048 4.41643,2.86813 5.67263,2.81894 2.4214,-0.0948 6.454,5.24196 6.50266,8.60568 z m -23.49895,-32.75265 c -0.71117,0.28832 -3.09699,-1.59888 -3.49239,-2.7625 -0.24552,-0.7226 -0.0269,-0.73499 0.94789,-0.0537 2.13294,1.49068 3.11983,2.58297 2.5445,2.81623 z m -9.59138,-12.90196 c -0.2776,0.11255 -0.76827,-0.0228 -1.09037,-0.30069 -0.3221,-0.27793 -1.25612,-0.52111 -2.075585,-0.5404 -1.727387,-0.0407 -2.283177,-0.99621 -1.205783,-2.07304 0.492476,-0.49222 1.384864,-0.3538 2.604938,0.40406 1.94532,1.20835 2.61852,2.16476 1.7668,2.51007 z m -3.228479,4.19661 c -0.453901,0.92911 -0.796933,0.93322 -2.092584,0.025 -2.087432,-1.46318 -2.106302,-1.71801 -0.159621,-2.15576 1.960951,-0.44097 3.019372,0.56037 2.252205,2.13072 z"
       style="fill:#156b8f;fill-opacity:1"
       sodipodi:nodetypes="sssscssscsssssscccscsssssscsssssscccsssssssssscsssssscscsscsssssssscscsscsssssscscsssssscsssscscsscsscssssccsssssssssssscssssscssscscssssscssssssscsssssssssscsscssscssssscsssssssssssssscssssscsssssssssssscsssssssssssscssssssscsssssssssccssssssssscsccssssssccsscsssssscsssssssssssssssccsssssssssscsscsscccssssssssssssssccsccccsscsssssssssscscssssscsssssssssscscssssssssssscssssscssssscssssccssssssssscsscsssscccsscssssscsssccsssssscscsssccscscccccccccssscsscscsscssssscssscssscssssscsscsssccssssscscssssssssscscssssccsccscscssssssscccscccsscsssssssssscssssssssssssccsscssssscsccsssssccccsscscccscscsssscscscssccsccssccssssssssssscsssscccccscssssssssscssssssssssssscsssccssscssssssssccsscscscscsssssccssssssscccccsssssccssscscsssssccccsccscccsssssccccssssssccssscsscccscssccscsscsssssssssscsssssscsssscssssssscsscsscscssscsscccccccccsscccscc" />
  </g>
</svg>
