<?xml version="1.0" encoding="UTF-8" standalone="no"?>
<svg
   xmlns:dc="http://purl.org/dc/elements/1.1/"
   xmlns:cc="http://creativecommons.org/ns#"
   xmlns:rdf="http://www.w3.org/1999/02/22-rdf-syntax-ns#"
   xmlns:svg="http://www.w3.org/2000/svg"
   xmlns="http://www.w3.org/2000/svg"
   xmlns:sodipodi="http://sodipodi.sourceforge.net/DTD/sodipodi-0.dtd"
   xmlns:inkscape="http://www.inkscape.org/namespaces/inkscape"
   viewBox="0 0 512 512"
   id="svg8438"
   version="1.1"
   inkscape:version="0.48.4 r9939"
   width="100%"
   height="100%"
   sodipodi:docname="compression shorts.svg"
   inkscape:export-filename="C:\Users\Chris\Documents\botgame\myedits\honed blade.svg.png"
   inkscape:export-xdpi="90"
   inkscape:export-ydpi="90">
  <metadata
     id="metadata8464">
    <rdf:RDF>
      <cc:Work
         rdf:about="">
        <dc:format>image/svg+xml</dc:format>
        <dc:type
           rdf:resource="http://purl.org/dc/dcmitype/StillImage" />
        <dc:title></dc:title>
      </cc:Work>
    </rdf:RDF>
  </metadata>
  <defs
     id="defs8462">
    <linearGradient
       id="linearGradient4077">
      <stop
         id="stop4079"
         offset="0"
         style="stop-color:#aa4400;stop-opacity:1;" />
      <stop
         style="stop-color:#ff9f00;stop-opacity:1;"
         offset="0.22752622"
         id="stop4081" />
      <stop
         style="stop-color:#803300;stop-opacity:1;"
         offset="0.4948855"
         id="stop4083" />
      <stop
         id="stop4085"
         offset="1"
         style="stop-color:#562200;stop-opacity:1;" />
    </linearGradient>
    <linearGradient
       id="linearGradient4057">
      <stop
         style="stop-color:#aa4400;stop-opacity:1;"
         offset="0"
         id="stop4059" />
      <stop
         id="stop4067"
         offset="0.22752622"
         style="stop-color:#ecd1a4;stop-opacity:1;" />
      <stop
         id="stop4065"
         offset="0.50136983"
         style="stop-color:#803300;stop-opacity:1;" />
      <stop
         style="stop-color:#562200;stop-opacity:1;"
         offset="1"
         id="stop4061" />
    </linearGradient>
    <linearGradient
       id="linearGradient3890">
      <stop
         style="stop-color:#701b1b;stop-opacity:1;"
         offset="0"
         id="stop3892" />
      <stop
         style="stop-color:#e31600;stop-opacity:1;"
         offset="1"
         id="stop3894" />
    </linearGradient>
    <linearGradient
       id="linearGradient3882">
      <stop
         style="stop-color:#600b0b;stop-opacity:1;"
         offset="0"
         id="stop3884" />
      <stop
         style="stop-color:#d11414;stop-opacity:1;"
         offset="1"
         id="stop3886" />
    </linearGradient>
    <linearGradient
       id="linearGradient3872">
      <stop
         style="stop-color:#800600;stop-opacity:1;"
         offset="0"
         id="stop3874" />
      <stop
         style="stop-color:#ff0004;stop-opacity:0;"
         offset="1"
         id="stop3876" />
    </linearGradient>
  </defs>
  <sodipodi:namedview
     pagecolor="#000000"
     bordercolor="#666666"
     borderopacity="1"
     objecttolerance="10"
     gridtolerance="10"
     guidetolerance="10"
     inkscape:pageopacity="0"
     inkscape:pageshadow="2"
     inkscape:window-width="1190"
     inkscape:window-height="1126"
     id="namedview8460"
     showgrid="false"
     inkscape:zoom="1"
     inkscape:cx="218.41979"
     inkscape:cy="341.339"
     inkscape:window-x="160"
     inkscape:window-y="130"
     inkscape:window-maximized="0"
     inkscape:current-layer="g8466" />
  <g
     id="g8466">
    <g
       id="g5295"
       transform="translate(8,42)" />
    <rect
       style="fill:#000000;fill-opacity:1.0;fill-rule:nonzero;stroke:none"
       id="rect5374"
       width="516"
       height="515"
       x="-1"
       y="-9.9423391e-007" />
    <path
       inkscape:connector-curvature="0"
       id="path5359"
       d="m 378.81237,461.06611 c -3.54384,-0.33303 -6.44334,-1.1176 -6.44334,-1.74346 0,-0.62588 -2.14895,-1.42548 -4.77541,-1.77689 -3.2995,-0.44146 -4.47689,-0.0944 -3.80952,1.12284 0.77386,1.41146 -0.7463,1.40112 -7.64489,-0.052 -4.73594,-0.99759 -10.38195,-2.10346 -12.54667,-2.45749 -3.91458,-0.6402 -3.91442,-0.64991 0.0293,-1.79793 2.18082,-0.63484 4.71165,-1.82423 5.62404,-2.6431 0.98288,-0.88212 1.28941,-0.29387 0.75217,1.44348 -0.88321,2.8563 -0.67387,2.88328 8.07338,1.04073 11.33211,-2.38705 12.45169,-2.36781 11.04944,0.18984 -0.76063,1.38734 0.0864,2.08654 2.54042,2.09672 2.02489,0.008 7.16589,0.41807 11.42448,0.91039 5.7011,0.65908 7.36097,0.46262 6.29463,-0.745 -0.92596,-1.04863 0.75032,-2.17654 4.64816,-3.12758 8.73638,-2.13161 7.51591,-3.81405 -2.32949,-3.21131 l -8.42591,0.51585 7.93026,-1.40777 c 4.36165,-0.77427 13.06016,-2.08861 19.33002,-2.92076 6.26987,-0.83213 11.39976,-2.05126 11.39976,-2.70918 0,-0.65792 1.31024,-1.19622 2.91163,-1.19622 1.77359,0 2.46558,0.81355 1.77045,2.08144 -0.62766,1.1448 -2.88269,2.08145 -5.01121,2.08145 -2.1418,0 -3.30833,0.63609 -2.61223,1.42443 0.69178,0.78344 2.75178,1.25177 4.57779,1.04072 4.6103,-0.53283 4.01275,8.55976 -0.68343,10.39921 -3.65209,1.43051 -33.7249,2.41416 -44.07381,1.44163 z m -0.49564,-16.4375 c -1.63562,-0.23208 -10.11109,-1.14072 -18.83438,-2.01919 -25.21961,-2.53975 -26.3414,-2.76017 -22.23414,-4.36895 1.91573,-0.75039 2.96566,-1.95039 2.33318,-2.66668 -0.6325,-0.7163 0.46392,-1.31087 2.43649,-1.32129 1.97258,-0.0111 5.81689,-0.33546 8.54292,-0.7223 4.40227,-0.62471 4.51309,-0.54803 0.99128,0.68582 -3.09861,1.08559 -2.01547,1.28366 4.95642,0.90633 4.90685,-0.26555 7.13724,-0.17562 4.95641,0.19985 -3.96513,0.68268 -3.96513,0.68268 0,1.90026 4.77307,1.46567 -7.16886,0.72895 -14.3736,-0.88672 -2.56671,-0.57561 -4.46077,-0.42209 -4.46077,0.3615 0,1.2702 23.13079,5.67576 29.73849,5.66409 1.63561,-0.003 6.90046,0.42994 11.69963,0.96185 l 8.72579,0.9671 -1.17457,-7.96541 c -0.87712,-5.94823 -0.45099,-8.47184 1.68269,-9.96524 3.3089,-2.31596 3.74098,-4.57686 0.87468,-4.57686 -1.09041,0 -1.98256,-2.49774 -1.98256,-5.55053 0,-3.05279 0.75666,-5.55052 1.68147,-5.55052 5.01139,0 12.19649,-22.53959 12.19649,-38.26026 0,-4.53618 0.7782,-6.14393 2.97385,-6.14393 2.39559,0 2.97385,-2.15854 2.97385,-11.10104 0,-6.47562 -0.82608,-11.10105 -1.98257,-11.10105 -1.09041,0 -1.98256,-2.49773 -1.98256,-5.55052 0,-3.05279 0.89215,-5.55052 1.98256,-5.55052 1.09041,0 1.9542,-2.65385 1.91952,-5.89744 -0.0595,-5.55791 -0.23513,-5.73804 -3.05214,-3.12892 -2.56066,2.37171 -3.25289,2.47115 -4.82983,0.69381 -1.14945,-1.29554 -1.12005,-2.24839 0.0783,-2.53722 3.56168,-0.85849 2.30278,-11.33233 -1.36212,-11.33233 -2.95069,0 -2.91974,-0.27948 0.30728,-2.77526 3.46281,-2.67814 3.46281,-2.87238 0,-5.55052 -3.22702,-2.49578 -3.25797,-2.77526 -0.30728,-2.77526 2.50626,0 3.28113,-1.31079 3.28113,-5.55053 0,-5.35205 -1.64051,-6.46472 -8.42591,-5.71484 -0.8178,0.0904 -1.48692,-1.70898 -1.48692,-3.99857 0,-2.77526 0.99128,-4.16289 2.97385,-4.16289 1.65213,0 2.97385,-1.23346 2.97385,-2.77527 0,-1.54181 -1.32172,-2.77526 -2.97385,-2.77526 -1.98257,0 -2.97385,-1.38763 -2.97385,-4.16289 0,-2.77526 0.99128,-4.16289 2.97385,-4.16289 1.96369,0 2.97385,-1.37478 2.97385,-4.04726 0,-2.22599 1.11519,-4.32826 2.47821,-4.6717 1.60994,-0.40566 0.56802,-1.79862 -2.97385,-3.9758 -2.99863,-1.84324 -5.45206,-4.42423 -5.45206,-5.73553 0,-1.3113 -1.11519,-2.43348 -2.47821,-2.49373 -1.98256,-0.0877 -1.98256,-0.24952 0,-0.80944 1.36302,-0.38495 2.47821,-2.25001 2.47821,-4.14457 0,-1.89457 0.96444,-4.70597 2.14319,-6.24755 1.17876,-1.54159 1.50269,-3.21773 0.71987,-3.72477 -0.78283,-0.50702 -1.82162,-0.14133 -2.30842,0.81267 -1.88581,3.69577 -4.51977,1.47196 -4.51977,-3.81598 0,-3.05279 0.89215,-5.55053 1.98256,-5.55053 10.87353,0 -0.66525,-4.03809 -13.87796,-4.8567 -16.3657,-1.01397 -21.97805,-3.46908 -7.93026,-3.46908 4.36164,0 7.93026,-0.57864 7.93026,-1.28589 0,-0.70724 1.56127,-1.54725 3.46949,-1.8667 3.15714,-0.52852 3.12322,-0.68509 -0.37675,-1.73902 -2.50415,-0.75408 -4.11832,-0.58691 -4.62598,0.47907 -1.03147,2.1658 -11.78718,2.11414 -12.82337,-0.0616 -0.9049,-1.90007 4.60687,-9.37975 6.92199,-9.39342 2.18711,-0.0125 1.81155,-22.13077 -0.47033,-27.69961 -1.44804,-3.53388 -1.31908,-5.07231 0.49565,-5.91325 1.79,-0.82945 0.97948,-2.0494 -2.99917,-4.51417 -2.99863,-1.85765 -5.45206,-4.03193 -5.45206,-4.83173 0,-0.79981 -2.8995,-1.50513 -6.44334,-1.56739 l -6.44334,-0.11319 6.44334,-1.97223 c 3.54384,-1.0847 6.44334,-2.59306 6.44334,-3.35188 0,-0.75882 -2.8995,-2.26717 -6.44334,-3.3519 -3.90462,-1.19516 -5.07634,-2.01683 -2.97385,-2.08543 2.69907,-0.0881 3.4695,-1.34571 3.4695,-5.66371 0,-3.87953 0.85073,-5.55053 2.82587,-5.55053 4.98379,0 3.33618,-27.51518 -1.6793,-28.04441 -6.64044,-0.7007 -5.585,-3.54654 1.96181,-5.289804 7.73124,-1.785861 6.28053,-4.068204 -2.61274,-4.110566 -2.45343,-0.01166 -4.46078,-0.575224 -4.46078,-1.252305 0,-1.734824 36.89855,-7.591689 39.83245,-6.322559 1.3692,0.592276 1.90328,0.46579 1.23395,-0.292231 -0.67493,-0.764339 7.89353,-2.638888 20.01498,-4.378749 11.65731,-1.673241 23.0796,-3.40416 25.38287,-3.846484 2.9695,-0.570273 4.51232,-0.06526 5.30348,1.735996 0.61366,1.397122 3.31188,6.911259 5.99603,12.253637 2.68414,5.342379 5.45363,11.456145 6.15438,13.586155 0.78401,2.38308 2.13217,3.50156 3.50488,2.90777 1.48546,-0.64257 1.67087,-0.3309 0.55496,0.93286 -2.08034,2.35596 -2.46752,17.93366 -0.42377,17.04959 0.81781,-0.35377 1.48692,-1.81837 1.48692,-3.25468 0,-1.43631 0.82297,-2.96747 1.82884,-3.40258 1.0651,-0.46073 1.0054,1.29617 -0.14294,4.20715 -1.08448,2.74903 -1.41914,6.00622 -0.7437,7.23819 0.67544,1.23197 1.65054,7.57565 2.1669,14.09707 0.51636,6.52142 1.99419,13.30271 3.28405,15.06954 1.86569,2.55562 1.79834,3.44896 -0.32937,4.36935 -1.71835,0.74331 -2.27598,2.57142 -1.55978,5.11336 1.27717,4.53279 -3.29939,18.77964 -5.03907,15.68672 -0.62393,-1.10927 -1.20487,0.48111 -1.29095,3.53417 -0.16495,5.84741 -4.85116,23.12898 -6.90165,25.45112 -0.66215,0.74989 -1.60147,5.94543 -2.08736,11.54563 -0.56719,6.53719 -0.25885,9.1887 0.86132,7.40693 1.36086,-2.1646 1.8061,-1.40125 2.02347,3.46907 0.22453,5.03054 0.64239,5.70487 2.14978,3.46908 1.3456,-1.99586 1.60441,-0.82674 0.92153,4.16289 -1.51692,11.0841 -1.8127,46.44148 -0.39677,47.43251 1.96193,1.37317 1.54059,5.99128 -0.54661,5.99128 -1.01046,0 -2.2452,-1.09276 -2.74385,-2.42836 -0.49868,-1.33559 -1.01999,1.94269 -1.15848,7.28506 -0.13858,5.34238 -0.7044,12.21116 -1.25758,15.26394 -0.75181,4.14902 -0.53117,4.84977 0.87376,2.77526 1.458,-2.15282 1.91078,-1.12302 2.01887,4.5917 0.0969,5.12369 -0.53992,7.07312 -2.09139,6.40199 -1.5967,-0.69068 -1.99337,1.64423 -1.39561,8.2148 0.49752,5.46874 0.13283,8.4903 -0.90233,7.47431 -1.03349,-1.01447 -1.32806,1.5359 -0.72704,6.29472 0.56085,4.44089 0.23523,7.66486 -0.73191,7.2465 -2.38782,-1.0329 -4.8735,8.06694 -4.82237,17.65427 0.0232,4.35797 -0.5819,7.21675 -1.34474,6.35285 -1.6892,-1.91301 -6.02053,8.74849 -6.40337,15.76188 -0.15186,2.78352 -0.78813,4.84409 -1.41374,4.57906 -2.10636,-0.89233 -6.2122,13.30658 -4.94924,17.11563 0.97661,2.94546 0.77498,3.31604 -0.91995,1.69079 -1.67178,-1.60303 -1.99173,-0.8061 -1.39206,3.46726 1.56601,11.15938 -23.98011,18.91991 -50.08697,15.21569 z m -210.152,-211.59338 c 0,-1.64543 -2.04897,-3.45844 -4.95642,-4.38562 -2.72603,-0.86935 -5.02978,-1.94872 -5.11944,-2.39862 -0.0897,-0.44988 -0.55004,-2.4504 -1.02307,-4.44559 -0.5167,-2.17943 0.33985,-4.32461 2.1456,-5.37353 4.72223,-2.74305 2.64036,-10.8481 -3.6091,-14.05079 -8.13221,-4.16759 -2.03644,-18.00808 10.63916,-24.15628 4.2908,-2.08123 7.27614,-4.37896 6.63408,-5.10608 -0.64206,-0.72713 0.71181,-2.54741 3.0086,-4.04508 2.29679,-1.49769 4.17598,-2.07429 4.17598,-1.28137 0,0.79293 1.74419,2.66248 3.87598,4.15455 3.48902,2.44202 3.7712,4.10101 2.82654,16.61726 -1.40168,18.57152 3.11393,21.22581 12.51657,7.35726 3.39068,-5.00115 13.55582,-12.81107 16.67446,-12.81107 3.24762,0 -0.0264,12.82404 -5.13681,20.12065 -2.67266,3.81598 -4.88728,6.42523 -4.92138,5.79831 -0.19742,-3.62968 -5.91674,3.94587 -8.63138,11.43275 -3.53972,9.76242 -4.05125,10.37216 -8.88374,10.58942 -1.8501,0.0831 -5.81725,0.25805 -8.81588,0.38859 -6.08161,0.26476 -7.34688,2.46255 -1.98256,3.44372 1.90822,0.34903 0.56998,0.70703 -2.97385,0.79557 -5.22026,0.13043 -6.44334,-0.37149 -6.44334,-2.64405 z"
       style="fill:#446de1" />
    <path
       inkscape:connector-curvature="0"
       id="path5357"
       d="m 329.48813,457.29844 c -18.63507,-2.57411 -21.95839,-6.58692 -11.51104,-13.89919 1.9085,-1.33579 2.22878,-2.18965 0.82134,-2.18965 -1.26892,0 -4.67822,-1.30947 -7.57624,-2.90992 -4.17269,-2.3044 -4.48209,-2.8097 -1.48688,-2.42835 8.84462,1.12611 2.34454,-21.13511 -7.45023,-25.51527 -1.65921,-0.74198 -1.60518,-1.02525 0.19849,-1.04073 1.36302,-0.0111 2.47821,-0.95789 2.47821,-2.10269 0,-1.14479 -0.89215,-2.08144 -1.98256,-2.08144 -1.09041,0 -1.98257,-2.26496 -1.98257,-5.03326 0,-5.03326 0,-5.03326 9.82867,-4.37224 8.9766,0.6037 35.80286,8.58942 37.42248,11.14003 0.36348,0.5724 3.40125,1.04073 6.75062,1.04073 5.96417,0 6.01576,-0.0572 2.50136,-2.77526 -1.97362,-1.5264 -2.83352,-2.77527 -1.91091,-2.77527 0.92262,0 -0.0198,-0.86824 -2.09248,-1.92943 -3.08817,-1.58049 -3.39091,-2.52157 -1.67398,-5.20361 2.35346,-3.67642 1.19085,-20.25253 -1.50219,-21.41746 -0.9581,-0.41444 -1.74198,-3.21442 -1.74198,-6.22216 0,-3.00775 -0.87517,-5.46863 -1.9448,-5.46863 -1.06964,0 -2.50458,-1.56108 -3.18878,-3.46908 -0.68419,-1.90799 -2.20993,-3.46907 -3.39055,-3.46907 -1.1806,0 -0.41477,-0.90273 1.70186,-2.00606 3.68374,-1.9202 3.56941,-2.07526 -2.67191,-3.6236 -6.02327,-1.49424 -6.24998,-1.76109 -2.97385,-3.50034 2.1289,-1.13021 2.55591,-1.90043 1.06827,-1.92692 -1.55903,-0.0278 -2.47821,-2.10286 -2.47821,-5.59465 0,-5.26596 -0.31092,-5.55052 -6.06471,-5.55052 -3.53828,0 -5.55427,-0.57806 -4.8394,-1.38764 0.67391,-0.76319 2.95696,-1.38763 5.07343,-1.38763 2.2127,0 3.84812,-0.94768 3.84812,-2.2299 0,-1.40373 -1.09265,-1.93644 -2.94909,-1.43784 -5.14563,1.38204 -12.91144,-5.06245 -12.91144,-10.71459 0,-2.77447 -0.80958,-5.0445 -1.79908,-5.0445 -0.9895,0 -2.2385,-3.27827 -2.77555,-7.28506 -0.53706,-4.00678 -2.37036,-11.03166 -4.07398,-15.61085 -3.81983,-10.26728 -7.21192,-34.6703 -7.21192,-51.88308 0,-11.73457 -0.35867,-12.96722 -3.96513,-13.62731 -4.37975,-0.80164 -6.32231,-43.62283 -2.06252,-45.46549 1.09302,-0.47281 1.85829,-10.18655 1.79846,-22.82824 -0.0634,-13.40618 0.74253,-23.11253 2.06252,-24.83882 2.94976,-3.85772 2.74203,-15.92769 -0.31154,-18.10157 -1.66827,-1.18767 -1.73308,-1.6185 -0.19825,-1.31825 1.25397,0.24531 2.43253,-0.17841 2.61903,-0.94161 0.57163,-2.33927 5.84866,-3.68918 10.50591,-2.6875 2.43142,0.52295 3.75486,0.4592 2.94096,-0.14166 -1.39944,-1.03316 8.96138,-6.27828 13.32294,-6.744695 1.11916,-0.119683 3.1891,-0.722121 4.59987,-1.338761 1.45889,-0.637661 3.83076,-0.385954 5.49998,0.583667 1.6142,0.937657 3.50813,1.30363 4.20871,0.813276 0.7006,-0.490355 0.23295,-0.891554 -1.03918,-0.891554 -1.27216,0 -2.31301,-0.661286 -2.31301,-1.469525 0,-0.808238 0.7993,-1.123768 1.77623,-0.701179 0.97692,0.42259 4.3225,-0.157245 7.43462,-1.288523 3.3517,-1.218367 5.92781,-1.498205 6.31925,-0.686452 0.36348,0.753729 2.59387,1.37998 4.95641,1.391666 8.74954,0.04328 10.1165,2.339085 2.44754,4.110566 -7.54681,1.743264 -8.60225,4.589104 -1.96181,5.289804 5.01548,0.52923 6.66309,28.04441 1.6793,28.04441 -1.97514,0 -2.82587,1.671 -2.82587,5.55053 0,4.318 -0.77043,5.57565 -3.4695,5.66371 -2.10249,0.0686 -0.93077,0.89027 2.97385,2.08543 3.54384,1.08473 6.44334,2.59308 6.44334,3.3519 0,0.75882 -2.8995,2.26718 -6.44334,3.3519 l -6.44334,1.97224 6.44334,0.11319 c 3.54384,0.0623 6.44334,0.76758 6.44334,1.56738 0,0.7998 2.45343,2.97408 5.45206,4.83174 3.97865,2.46476 4.78917,3.68471 2.99917,4.51417 -1.81473,0.84093 -1.94369,2.37937 -0.49565,5.91325 2.28188,5.56884 2.65744,27.6867 0.47033,27.6996 -2.31512,0.0139 -7.82689,7.49335 -6.92199,9.39342 1.03619,2.17572 11.7919,2.22738 12.82337,0.0616 0.50766,-1.06598 2.12183,-1.23315 4.62598,-0.47907 3.49997,1.05394 3.53389,1.2105 0.37675,1.73902 -1.90822,0.31945 -3.46949,1.15947 -3.46949,1.8667 0,0.70725 -3.56862,1.28589 -7.93026,1.28589 -14.04779,0 -8.43544,2.45511 7.93026,3.46908 13.21271,0.81862 24.75149,4.8567 13.87796,4.8567 -1.09041,0 -1.98256,2.49774 -1.98256,5.55053 0,5.28794 2.63396,7.51176 4.51977,3.81598 0.4868,-0.95399 1.52559,-1.31969 2.30842,-0.81266 0.78282,0.50704 0.45889,2.18317 -0.71987,3.72476 -1.17875,1.54159 -2.14319,4.35298 -2.14319,6.24756 0,1.89456 -1.11519,3.75962 -2.47821,4.14456 -1.98256,0.55992 -1.98256,0.7218 0,0.80944 1.36302,0.0602 2.47821,1.18243 2.47821,2.49373 0,1.3113 2.45343,3.89229 5.45206,5.73554 3.54187,2.17717 4.58379,3.57013 2.97385,3.97579 -1.36302,0.34344 -2.47821,2.44572 -2.47821,4.6717 0,2.67248 -1.01016,4.04726 -2.97385,4.04726 -1.98257,0 -2.97385,1.38763 -2.97385,4.16289 0,2.77526 0.99128,4.16289 2.97385,4.16289 1.65213,0 2.97385,1.23346 2.97385,2.77527 0,1.54181 -1.32172,2.77526 -2.97385,2.77526 -1.98257,0 -2.97385,1.38763 -2.97385,4.16289 0,2.28959 0.66912,4.08895 1.48692,3.99857 6.7854,-0.74988 8.42591,0.3628 8.42591,5.71485 0,4.23974 -0.77487,5.55052 -3.28113,5.55052 -2.95069,0 -2.91974,0.27948 0.30728,2.77526 3.46281,2.67814 3.46281,2.87238 0,5.55052 -3.22702,2.49578 -3.25797,2.77527 -0.30728,2.77527 3.6649,0 4.9238,10.47383 1.3621,11.33232 -1.19834,0.28883 -1.22774,1.24168 -0.0783,2.53723 1.57694,1.77733 2.26917,1.67789 4.82983,-0.69382 2.81701,-2.60912 2.99271,-2.42899 3.05214,3.12893 0.0347,3.24358 -0.82911,5.89743 -1.91952,5.89743 -1.09041,0 -1.98256,2.49773 -1.98256,5.55052 0,3.05279 0.89215,5.55052 1.98256,5.55052 1.15649,0 1.98257,4.62544 1.98257,11.10105 0,8.9425 -0.57826,11.10105 -2.97385,11.10105 -2.19565,0 -2.97385,1.60775 -2.97385,6.14393 2e-5,15.72064 -7.18508,38.26023 -12.19647,38.26023 -0.92481,0 -1.68147,2.49773 -1.68147,5.55052 0,3.05279 0.89215,5.55053 1.98256,5.55053 2.8663,0 2.43422,2.2609 -0.87468,4.57686 -2.13368,1.4934 -2.55981,4.01701 -1.68269,9.96524 l 1.17457,7.96541 -8.72579,-0.9671 c -4.79917,-0.53191 -10.06402,-0.96475 -11.69963,-0.96185 -6.6077,0.0111 -29.73849,-4.39389 -29.73849,-5.66409 0,-0.78359 1.89406,-0.93711 4.46077,-0.3615 7.20474,1.61567 19.14667,2.35239 14.3736,0.88672 -3.96513,-1.21758 -3.96513,-1.21758 0,-1.90026 2.18083,-0.37547 -0.0496,-0.4654 -4.95641,-0.19985 -6.97189,0.37733 -8.05503,0.17926 -4.95642,-0.90633 3.52181,-1.23385 3.41099,-1.31053 -0.99128,-0.68582 -2.72603,0.38684 -6.57034,0.71188 -8.54292,0.7223 -1.97257,0.0111 -3.06899,0.60499 -2.43649,1.32129 0.63248,0.71629 -0.41745,1.91629 -2.33318,2.66668 -3.09695,1.21305 -2.9367,1.43969 1.44521,2.04398 46.44426,6.40489 74.99212,5.95227 84.65073,-1.34212 4.53673,-3.42624 4.53673,-3.42624 4.53673,0.11433 0,2.22208 -1.10745,3.54057 -2.97385,3.54057 -1.63562,0 -2.97385,0.5383 -2.97385,1.19622 0,0.65792 -5.12989,1.87705 -11.39976,2.70918 -6.26986,0.83215 -14.96837,2.14649 -19.33002,2.92076 l -7.93026,1.40777 8.42591,-0.51585 c 9.8454,-0.60274 11.06587,1.0797 2.32949,3.21131 -3.35301,0.81812 -5.53074,2.12807 -4.8394,2.91102 0.69725,0.78961 -0.48861,1.42353 -2.66301,1.42353 -2.15598,0 -5.55421,0.37112 -7.55161,0.82471 -3.02036,0.68589 -3.13107,0.57269 -0.65779,-0.67256 2.35996,-1.18821 1.59999,-1.50168 -3.68161,-1.51854 -5.24339,-0.0168 -6.40054,-0.48618 -5.454,-2.21265 1.29489,-2.36181 -5.97613,-1.8482 -16.63775,1.17528 -4.95642,1.40556 -4.95642,1.40556 0,2.46015 8.37648,1.7823 -9.06019,1.31406 -23.05524,-0.61912 z m 104.78295,-49.4276 c 0.59087,-1.16439 2.16792,-5.84765 3.5046,-10.40723 2.39356,-8.16482 5.78146,-14.30387 5.90543,-10.70095 0.0904,2.63031 -7.57019,21.41236 -9.12908,22.38216 -0.74536,0.46369 -0.87179,-0.10962 -0.28095,-1.27398 z m 10.62126,-31.62719 c 0.58244,-4.82178 1.86958,-10.12947 2.86031,-11.79486 2.27224,-3.81954 0.63537,8.58921 -2.07168,15.70505 -1.47779,3.88456 -1.63564,3.10187 -0.78863,-3.91019 z m 12.3484,-83.16364 c -0.33696,-0.5724 -0.12213,-11.03166 0.47756,-23.24282 l 1.09021,-22.20209 0.39671,23.24282 c 0.35718,20.92658 -0.0444,25.46398 -1.96448,22.20209 z m -1.5133,-54.46451 c -0.28977,-4.89932 -0.74514,-5.64655 -2.11411,-3.46907 -1.12017,1.78177 -1.42851,-0.86974 -0.86132,-7.40693 0.48589,-5.6002 1.42521,-10.79574 2.08736,-11.54563 2.1155,-2.39578 6.74297,-19.70175 6.80542,-25.45112 0.0502,-4.61859 0.41656,-5.12207 2.1813,-2.99733 2.03298,2.44769 1.72176,5.88849 -1.21236,13.40405 -0.74489,1.90799 -1.84079,6.43514 -2.43533,10.06032 -0.59451,3.62519 -1.71206,6.59125 -2.48342,6.59125 -0.77136,0 -1.00066,4.85796 -0.50958,10.79545 0.49108,5.93749 0.44703,12.02572 -0.0979,13.5294 -0.54492,1.50368 -1.15696,-0.076 -1.36008,-3.51039 z m -280.62373,0 c 0.67391,-0.76319 -0.38863,-1.46151 -2.3612,-1.5518 -1.97258,-0.0903 -0.91004,-0.64086 2.3612,-1.22346 3.27123,-0.5826 4.38643,-1.13315 2.47821,-1.22346 -5.61992,-0.26593 -3.96491,-2.91787 1.98256,-3.17679 15.13901,-0.65907 13.61548,0.28588 17.69962,-10.97801 2.71464,-7.48688 8.43395,-15.06243 8.63138,-11.43275 0.0341,0.62692 2.24872,-1.98233 4.92138,-5.79831 5.11044,-7.29661 8.38443,-20.12065 5.13681,-20.12065 -3.11864,0 -13.28378,7.80992 -16.67446,12.81107 -9.40264,13.86855 -13.91825,11.21426 -12.51657,-7.35726 0.94466,-12.51625 0.66248,-14.17524 -2.82654,-16.61726 -2.13179,-1.49207 -3.87598,-3.36162 -3.87598,-4.15455 0,-0.79292 -1.87919,-0.21632 -4.17598,1.28137 -2.29679,1.49767 -3.64268,3.32698 -2.99087,4.06516 0.65181,0.73816 -1.26065,2.45752 -4.24992,3.82078 -2.98927,1.36325 -7.83764,4.26948 -10.77416,6.45825 l -5.33912,3.9796 1.86963,-4.56277 c 1.0283,-2.50953 1.86963,-4.72301 1.86963,-4.91885 0,-0.19583 1.33823,-0.35606 2.97385,-0.35606 1.63562,0 2.97385,-0.93665 2.97385,-2.08145 0,-1.14529 1.75537,-2.08144 3.90291,-2.08144 2.65473,0 3.53795,-0.66567 2.76173,-2.08145 -0.73295,-1.33689 0.0403,-2.08145 2.1618,-2.08145 1.99182,0 2.74142,-0.63593 1.88835,-1.60203 -0.82605,-0.9355 -0.54874,-1.22748 0.66654,-0.70178 2.51222,1.08671 5.0322,-2.88545 3.16912,-4.99537 -0.81991,-0.92854 -0.1512,-1.18351 1.75866,-0.67056 1.71163,0.45972 4.94104,-0.38481 7.26421,-1.89969 2.30043,-1.50004 4.1826,-2.15041 4.1826,-1.44526 0,0.70515 -2.30779,2.34046 -5.12843,3.634 -2.82063,1.29355 -4.64743,2.68858 -4.05954,3.10005 0.58789,0.41148 2.60285,-0.32551 4.4777,-1.63773 5.2895,-3.70222 24.28916,-0.7742 29.09522,4.48383 0.87199,0.954 3.27482,1.73454 5.33965,1.73454 11.66418,0 11.34565,11.40172 -0.96918,34.69077 -4.64099,8.77677 -9.55064,18.45549 -10.91034,21.50828 -3.07683,6.90808 -7.30907,10.39258 -12.70029,10.45641 -2.28443,0.027 -6.38389,0.94156 -9.10992,2.03227 -5.7257,2.29089 -12.70658,2.73509 -10.90411,0.69381 z m 27.95099,-53.52815 c 3.64022,-2.09794 1.18769,-7.5276 -3.40015,-7.5276 -2.22607,0 -3.74271,0.98062 -3.75572,2.42835 -0.0121,1.3356 -0.55565,4.92609 -1.20811,7.97888 -1.18629,5.55052 -1.18629,5.55052 2.29444,2.08144 1.91441,-1.90799 4.6457,-4.14046 6.06954,-4.96107 z m -45.59952,52.50798 c -2.35971,-1.6516 -1.11328,-3.03612 1.98431,-2.20417 2.7756,0.74548 2.83962,0.481 0.51438,-2.12499 -1.46067,-1.63706 -3.33332,-2.97645 -4.16144,-2.97645 -0.82812,0 -1.50567,-0.93665 -1.50567,-2.08145 0,-2.52037 -3.24177,-2.76301 -4.63468,-0.34691 -0.54999,0.954 -1.07041,0.32957 -1.1565,-1.38763 -0.0861,-1.71719 -0.92476,-3.12217 -1.86372,-3.12217 -2.05776,0 -4.51886,-17.00493 -2.60805,-18.02024 2.35376,-1.25069 6.29782,-6.84807 6.29782,-8.93783 0,-4.00992 2.97937,-3.19316 3.19555,0.87601 0.12193,2.29514 1.01408,4.5754 1.98256,5.0672 6.33713,3.21815 8.47305,11.32938 3.71166,14.09517 -1.80575,1.04892 -2.6623,3.1941 -2.1456,5.37353 0.47303,1.99519 0.9334,3.99571 1.02307,4.44559 0.0897,0.4499 2.45433,1.54869 5.25482,2.44179 3.56582,1.13715 4.90268,2.51019 4.46077,4.5815 -0.61651,2.88968 -7.99363,5.96981 -10.34928,4.32105 z m 309.11397,-50.65172 c -0.78359,-1.32604 -0.4944,-4.27884 0.64264,-6.56177 1.13705,-2.28293 1.55755,-6.34956 0.93447,-9.03696 -0.8597,-3.70797 -0.43964,-4.88618 1.74202,-4.88618 2.40093,0 2.59914,1.65861 1.20234,10.06032 -2.0079,12.0774 -2.65848,13.57733 -4.52147,10.42459 z m 2.28581,-26.03543 c -0.66873,-1.1448 -1.61061,-7.07692 -2.09303,-13.18249 -0.48242,-6.10558 -1.47909,-12.77301 -2.21486,-14.81652 -0.73577,-2.04351 -0.39225,-4.85346 0.76338,-6.24434 1.63542,-1.96832 2.15115,-2.06749 2.32666,-0.44742 0.12411,1.14479 0.58789,3.64253 1.0308,5.55052 0.44292,1.90799 1.2398,6.52158 1.77087,10.25241 0.53105,3.73083 1.39291,7.78965 1.91524,9.0196 1.35391,3.18809 -1.95309,12.51467 -3.49906,9.86824 z m -8.13115,-40.65705 c 0.12748,-8.2997 -0.60013,-10.82568 -6.38313,-22.161325 -3.21802,-6.307853 -3.33569,-7.950797 -0.56943,-7.950797 1.15476,0 1.61515,0.548589 1.0231,1.219085 -0.59206,0.670498 0.17803,3.012125 1.71127,5.203616 3.16122,4.518351 5.52716,11.896051 5.60285,17.471411 0.0291,2.13835 0.90461,3.40433 2.02061,2.92158 1.26359,-0.54659 1.46048,1.08487 0.54939,4.55231 -2.27,8.63936 -4.09771,8.05893 -3.95466,-1.25588 z"
       style="fill:#385fd3" />
    <path
       inkscape:connector-curvature="0"
       id="path5353"
       d="m 330.95699,459.13641 c -11.62942,-1.5987 -13.5343,-3.26408 -2.20442,-1.92725 4.90686,0.57896 13.8284,1.50507 19.82567,2.05802 l 10.90411,1.00537 -9.91283,0.0298 c -5.45206,0.0164 -13.82769,-0.50827 -18.61253,-1.16604 z m -24.01264,-4.85013 c -14.43788,-3.22685 -26.71242,-8.20745 -27.36687,-11.10455 -0.50149,-2.2201 -0.25789,-2.31785 1.45657,-0.5845 1.75406,1.77336 2.06328,1.78363 2.08915,0.0694 0.0236,-1.56494 0.55905,-1.64203 2.40944,-0.34691 4.08904,2.86199 15.46401,-1.04534 15.46401,-5.31192 0,-1.34152 -9.45283,-4.10775 -14.46688,-4.23352 -2.40212,-0.0602 -3.24675,-0.4258 -1.87694,-0.81233 1.36982,-0.38653 1.94512,-1.3205 1.27844,-2.0755 -4.66847,-5.287 -5.02362,-69.28773 -0.4043,-72.85894 3.95252,-3.0557 4.9255,-13.41843 2.90981,-30.99125 -0.74412,-6.48717 -1.85283,-17.72698 -2.46382,-24.97735 -0.611,-7.25037 -1.96401,-21.92457 -3.00668,-32.60933 -1.04267,-10.68475 -2.68449,-38.15984 -3.64849,-61.05575 -0.96399,-22.89591 -2.72926,-43.81444 -3.92283,-46.48563 -1.19356,-2.67119 -2.55503,-10.93934 -3.02547,-18.37367 -0.90847,-14.35631 -1.65168,-16.3171 -6.18476,-16.3171 -3.50307,0 -3.80757,3.68306 -0.37863,4.57952 1.62353,0.42445 1.18278,1.02065 -1.27798,1.72872 -2.53606,0.72975 -4.50512,0.36396 -6.06181,-1.1261 -4.59698,-4.4002 -6.61715,-0.0814 -8.28572,17.71377 -1.12953,12.0462 -1.99502,15.9647 -2.60515,11.79486 -0.91369,-6.24434 -0.91369,-6.24434 -2.2109,2.08144 -0.71347,4.57919 -0.83736,-1.66515 -0.2753,-13.8763 0.56206,-12.21115 1.59874,-23.72249 2.30376,-25.58075 1.67844,-4.42405 6.02207,-5.41842 6.02207,-1.37862 0,2.92111 0.21578,2.96928 3.62559,0.80945 1.99409,-1.26308 4.89359,-2.30608 6.44334,-2.31776 2.34011,-0.0177 2.31364,-0.27189 -0.15602,-1.49987 -2.28358,-1.13541 -1.69012,-1.28219 2.55665,-0.63235 5.18588,0.79354 14.62773,-2.00793 12.28761,-3.64582 -0.54507,-0.3815 3.25226,-2.11102 8.43851,-3.84338 5.18626,-1.73235 11.02188,-3.7247 12.96807,-4.42743 2.25533,-0.81436 4.7716,-0.73526 6.93898,0.21812 2.87145,1.26311 2.69875,1.3613 -1.1101,0.63117 -3.15686,-0.60515 -4.34687,-0.31269 -3.96513,0.97446 0.30062,1.0136 -0.78942,1.63891 -2.42841,1.39309 -2.38473,-0.35766 -2.4829,-0.0965 -0.49564,1.31825 3.05357,2.17388 3.2613,14.24385 0.31154,18.10157 -1.31999,1.72629 -2.12598,11.43264 -2.06252,24.83882 0.0599,12.64169 -0.70544,22.35543 -1.79847,22.82824 -4.25978,1.84266 -2.31722,44.66385 2.06253,45.46549 3.60646,0.66009 3.96513,1.89274 3.96513,13.62731 0,17.21278 3.39209,41.6158 7.21192,51.88308 1.70362,4.57919 3.53692,11.60407 4.07398,15.61085 0.53705,4.00679 1.78605,7.28506 2.77555,7.28506 0.9895,0 1.79908,2.27003 1.79908,5.0445 0,5.65214 7.76581,12.09663 12.91144,10.71459 1.85643,-0.4986 2.94909,0.0341 2.94909,1.43784 0,1.28222 -1.63542,2.2299 -3.84812,2.2299 -2.11647,0 -4.39952,0.62444 -5.07343,1.38763 -0.71487,0.80958 1.30112,1.38764 4.8394,1.38764 5.75379,0 6.06471,0.28456 6.06471,5.55052 0,3.49179 0.91918,5.5669 2.47821,5.59465 1.48764,0.0265 1.06063,0.79671 -1.06827,1.92692 -3.27613,1.73925 -3.04942,2.0061 2.97385,3.50034 6.24132,1.54834 6.35565,1.7034 2.67191,3.6236 -2.11663,1.10333 -2.88246,2.00606 -1.70186,2.00606 1.18062,0 2.70636,1.56108 3.39055,3.46907 0.6842,1.908 2.11914,3.46908 3.18878,3.46908 1.06963,0 1.94479,2.46088 1.94479,5.46863 0,3.00774 0.78389,5.80772 1.74199,6.22216 2.69303,1.16493 3.85565,17.74104 1.50219,21.41746 -1.71693,2.68204 -1.41419,3.62312 1.67398,5.20361 2.07348,1.06119 3.0151,1.92943 2.09248,1.92943 -0.92261,0 -0.0627,1.24887 1.91091,2.77527 3.5144,2.71803 3.46281,2.77526 -2.50136,2.77526 -3.34937,0 -6.38714,-0.46833 -6.75062,-1.04073 -1.61962,-2.55061 -28.44588,-10.53633 -37.42248,-11.14003 -9.82875,-0.66102 -9.82875,-0.66102 -9.82875,4.37224 0,2.7683 0.89216,5.03326 1.98257,5.03326 1.09041,0 1.98256,0.93665 1.98256,2.08144 0,1.1448 -1.11519,2.09101 -2.47821,2.10269 -1.80367,0.0154 -1.8577,0.29875 -0.19849,1.04073 9.79477,4.38016 16.29485,26.64138 7.45023,25.51527 -2.99521,-0.38135 -2.68581,0.12391 1.48688,2.42835 2.89802,1.60045 6.30732,2.90992 7.57624,2.90992 1.40744,0 1.08716,0.85386 -0.82134,2.18965 -6.87036,4.80867 -7.64414,7.54208 -2.94294,10.39587 5.14668,3.12421 4.00215,3.1937 -8.0898,0.49116 z m -182.56386,-16.7338 c -2.48203,-2.13437 -2.41275,-2.3099 0.59993,-1.52 1.8733,0.49116 3.9333,0.29586 4.57778,-0.434 0.64448,-0.72987 2.95609,-1.32704 5.13691,-1.32704 2.18083,0 3.45345,-0.57947 2.82806,-1.28772 -0.62539,-0.70826 0.66019,-1.68698 2.85684,-2.17496 2.19666,-0.48797 4.00611,-1.62569 4.021,-2.52826 0.0149,-0.90256 0.54374,-2.98905 1.17523,-4.63666 0.82293,-2.14707 0.1688,-3.12973 -2.30927,-3.46907 -2.7547,-0.37722 -3.62768,-2.30669 -4.29507,-9.49305 -1.00599,-10.8324 -5.31613,-15.66537 -5.83402,-6.54169 -0.59228,10.43409 -2.85109,16.49584 -5.84706,15.69117 -1.5084,-0.40513 -2.74255,-0.0277 -2.74255,0.83876 0,0.86645 -0.50789,1.21986 -1.12865,0.78539 -0.62075,-0.43448 0.0484,-2.11869 1.48693,-3.74269 2.16926,-2.44889 2.16486,-3.14911 -0.0258,-4.10358 -1.92672,-0.83948 -2.27095,-2.87958 -1.27234,-7.5405 0.75295,-3.5143 0.40125,-9.37781 -0.78156,-13.03002 -1.18281,-3.65221 -2.43936,-8.51368 -2.79235,-10.80327 -0.35298,-2.28959 -2.79305,-6.97285 -5.42237,-10.40723 -8.05249,-10.51802 -11.58843,-16.38758 -10.38125,-17.2325 0.63391,-0.44368 0.0591,-0.8067 -1.27743,-0.8067 -1.3365,0 -1.87862,-0.62444 -1.2047,-1.38763 0.67391,-0.7632 0.30848,-1.38763 -0.81206,-1.38763 -1.120542,0 -1.523822,-0.93666 -0.89618,-2.08145 0.62765,-1.1448 0.21369,-2.08145 -0.919902,-2.08145 -2.355229,0 -5.346241,-5.31679 -4.566928,-8.11812 0.322819,-1.16041 -0.400625,-1.47501 -1.900208,-0.82632 -1.474326,0.63774 -1.911414,0.46981 -1.117448,-0.42935 1.723484,-1.95183 -0.611047,-6.08869 -2.881701,-5.10647 -1.486469,0.643 -2.147801,-0.80206 -2.263797,-4.94657 -0.01071,-0.3816 0.505643,-2.56711 1.147384,-4.85671 0.641741,-2.28959 0.681783,-3.38235 0.08898,-2.42835 -2.861331,4.60476 -7.930925,1.00673 -6.843081,-4.85671 0.177004,-0.95399 -0.460762,-1.73454 -1.417239,-1.73454 -0.956475,0 -1.86254,-0.78054 -2.013474,-1.73453 -0.150933,-0.954 -1.894695,-5.87446 -3.875023,-10.93435 -2.146365,-5.48414 -3.212365,-11.64903 -2.639358,-15.26394 0.961239,-6.06413 0.961239,-6.06413 2.121108,-1.20742 0.637928,2.67119 2.078492,4.7398 3.201255,4.59691 1.163278,-0.14804 1.941434,2.23953 1.80902,5.55053 -0.127796,3.19567 0.878842,7.3714 2.236981,9.27939 1.358139,1.90799 3.001771,5.7823 3.652515,8.60955 0.86451,3.75602 1.964475,4.93064 4.084106,4.36134 2.099154,-0.56379 2.900934,0.24334 2.900934,2.9203 0,2.10545 0.851645,3.33103 1.976573,2.84442 1.284708,-0.55573 1.265291,0.45439 -0.05547,2.88581 -1.117624,2.05746 -1.561003,4.07052 -0.985289,4.47346 0.575717,0.40296 1.046755,0.004 1.046755,-0.88625 0,-6.68615 11.911047,7.5255 12.294767,14.66946 0.15315,2.85136 0.64637,4.41175 1.09604,3.46755 1.12211,-2.35612 4.45229,-2.16982 4.45229,0.2491 0,1.08118 0.901,2.17601 2.00221,2.43293 1.10122,0.25692 2.40961,1.94778 2.90755,3.75745 0.49793,1.80968 2.32061,4.80214 4.0504,6.64992 1.84517,1.97102 2.63832,4.62388 1.919,6.4185 -0.96539,2.40857 -0.7834,2.61638 0.85601,0.97747 1.14514,-1.14479 2.09574,-1.66418 2.11244,-1.15421 0.0166,0.50998 0.62804,2.01739 1.35855,3.34981 0.90555,1.65167 0.59011,2.10329 -0.99128,1.41922 -1.27572,-0.55184 -2.31948,-0.3789 -2.31948,0.3843 0,0.76319 0.75032,1.71219 1.66738,2.10889 0.91706,0.39669 1.73159,3.69371 1.81005,7.3267 0.0785,3.633 1.11246,6.8317 2.29775,7.10824 1.1853,0.27653 2.15508,2.01184 2.15508,3.85622 0,1.8444 0.78064,3.35345 1.73475,3.35345 0.95411,0 1.73474,-4.05882 1.73474,-9.0196 0,-4.96078 -0.5966,-9.0196 -1.32579,-9.0196 -1.29972,0 -4.77448,-10.51481 -7.1077,-21.50828 -1.76615,-8.32158 -7.02221,-19.22718 -10.09788,-20.95167 -1.49577,-0.83865 -2.13868,-1.93141 -1.42869,-2.42835 0.71,-0.49693 -0.19603,-0.90352 -2.01338,-0.90352 -1.81735,0 -3.19862,-0.46832 -3.0695,-1.04072 0.76528,-3.39231 -0.70842,-5.66044 -4.07864,-6.27729 -3.02589,-0.55385 -3.82043,-1.89177 -3.73376,-6.28733 0.0606,-3.07106 -1.332253,-7.02506 -3.095123,-8.78665 -1.76287,-1.76158 -3.205218,-4.58817 -3.205218,-6.2813 0,-1.69313 -0.793582,-3.4217 -1.763516,-3.84127 -3.56076,-1.5403 -6.847224,-25.30636 -3.688541,-26.67369 0.817809,-0.35401 1.486925,-1.57327 1.486925,-2.70947 0,-7.89672 16.161313,-10.22636 48.580433,-7.00285 6.35681,0.63208 14.86168,5.16589 14.86168,7.92251 0,1.39359 0.89216,2.9197 1.98257,3.39139 1.09041,0.47168 1.98257,6.55243 1.98257,13.51277 0,6.96035 1.089,14.76302 2.41999,17.33928 2.02134,3.91247 1.93969,4.90023 -0.49564,5.99596 -2.014,0.90616 -2.24106,1.63367 -0.73423,2.35256 3.79141,1.80883 6.03712,6.27987 8.53798,16.99847 1.33551,5.72398 3.26165,12.6652 4.28032,15.42494 1.01866,2.75973 1.8521,7.13573 1.8521,9.72446 0,2.5887 2.3393,7.78243 5.19844,11.5416 3.59677,4.72899 5.45944,9.64227 6.04554,15.94671 0.46589,5.01153 1.87306,10.94667 3.12703,13.18922 1.25397,2.24255 2.322,9.42354 2.37341,15.95776 0.084,10.67951 0.57605,12.20937 4.86759,15.13504 5.94428,4.05238 1.04815,7.19028 -14.23248,9.12149 -4.11934,0.52061 -7.10844,1.38336 -6.64243,1.91719 2.14382,2.45586 -47.60308,1.85946 -50.46903,-0.60506 z M 65.7513,276.77535 c -1.142878,-4.57918 -1.658508,-11.06186 -1.145844,-14.40595 0.606074,-3.95343 0.220184,-5.77223 -1.103225,-5.19975 -1.297926,0.56144 -1.997189,-1.76039 -1.930038,-6.40851 0.05791,-4.0089 -0.559507,-12.59662 -1.372056,-19.08379 -1.170343,-9.3437 -0.857395,-12.6142 1.505886,-15.73746 4.621319,-6.10742 5.315219,-2.34237 5.856276,31.77572 0.265564,16.74606 1.025359,27.94963 1.688432,24.89685 1.198233,-5.51667 1.205872,-5.5209 1.252357,-0.69382 0.107475,11.16112 -2.510501,13.8369 -4.751788,4.85671 z m 122.23909,-39.48408 c 1.63561,-0.7747 4.84292,-1.4181 7.12735,-1.42978 5.3802,-0.0275 9.6174,-3.50677 12.70029,-10.42848 1.3597,-3.05279 6.26935,-12.73151 10.91034,-21.50828 12.31483,-23.28905 12.63336,-34.69077 0.96918,-34.69077 -2.06483,0 -4.46766,-0.78054 -5.33965,-1.73454 -2.47485,-2.70758 -9.60154,-5.06948 -18.20042,-6.03187 -6.13948,-0.68714 -7.59935,-1.36792 -6.64931,-3.10076 0.85833,-1.56555 -0.1271,-1.34366 -3.34156,0.75239 -2.58787,1.68748 -5.89118,2.61487 -7.64047,2.14504 -2.00291,-0.53794 -2.58868,-0.26943 -1.67341,0.76709 1.95063,2.20908 -2.2064,7.20265 -5.99602,7.20265 -1.95544,0 -2.69113,0.77533 -1.97504,2.08145 0.77622,1.41578 -0.10699,2.08145 -2.76173,2.08145 -2.14754,0 -3.90291,0.93615 -3.90291,2.08144 0,1.1448 -1.30385,2.08145 -2.89743,2.08145 -2.86193,0 -5.25685,4.7514 -7.9547,15.78168 -1.09975,4.49635 -3.13563,8.17485 -6.60312,11.93075 -0.33189,0.35949 -1.47419,-0.26494 -2.53843,-1.38763 -1.33094,-1.40404 -1.45351,-0.74171 -0.39266,2.12163 2.38247,6.4305 1.88128,17.71148 -0.8153,18.35106 -1.39574,0.33103 -3.30548,-1.87723 -4.65337,-5.38079 -1.6479,-4.2834 -1.67888,-6.08392 -0.11094,-6.44972 1.19634,-0.27913 2.17516,-1.11673 2.17516,-1.86137 0,-0.74465 -1.04377,-0.90239 -2.31948,-0.35055 -1.4719,0.6367 -1.93966,0.28633 -1.28006,-0.95884 0.57168,-1.07918 2.61274,-5.3109 4.53569,-9.4038 5.27081,-11.21872 8.35616,-15.00747 9.58933,-11.77552 0.5384,1.41107 0.90378,0.69229 0.81194,-1.5973 -0.0918,-2.28959 0.8883,-5.52682 2.17807,-7.19384 1.28977,-1.66702 2.34503,-4.32086 2.34503,-5.89743 0,-1.57657 0.89216,-2.86649 1.98257,-2.86649 1.09041,0 1.98257,-0.93665 1.98257,-2.08144 0,-1.1448 0.87949,-2.08145 1.95443,-2.08145 1.07494,0 4.32067,-2.50263 7.21274,-5.56141 4.45044,-4.70699 5.74927,-5.30354 8.45403,-3.88291 2.61723,1.37466 2.77333,1.34473 0.86231,-0.1653 -2.59956,-2.0541 -0.18402,-8.26128 3.94439,-10.13588 1.58096,-0.71787 1.68123,-1.41078 0.30527,-2.10968 -3.07758,-1.56324 -2.33769,-5.20362 1.05762,-5.20362 1.76624,0 2.88754,1.18254 2.7613,2.91212 -0.11691,1.60167 1.44437,3.63637 3.46949,4.52156 3.12876,1.3676 3.68204,1.19065 3.68204,-1.17758 0,-1.53286 0.89215,-2.78702 1.98257,-2.78702 1.09041,0 1.98256,-2.56454 1.98256,-5.69899 0,-4.69301 0.56929,-5.54608 3.22514,-4.83276 1.77382,0.47642 4.62154,0.0749 6.32827,-0.89227 1.78045,-1.00894 2.53375,-1.09302 1.76731,-0.19725 -0.86135,1.00669 1.4681,1.87504 6.55842,2.44475 5.10201,0.57102 7.89422,1.61394 7.89422,2.94858 0,1.13577 1.33823,2.06505 2.97385,2.06505 1.98256,0 2.97385,1.38763 2.97385,4.16289 0,3.15828 0.90502,4.16289 3.7502,4.16289 5.72371,0 9.18836,24.05634 4.33321,30.08708 -1.11681,1.38723 -4.71826,9.70323 -8.0032,18.48 -7.44313,19.88672 -13.08678,30.77004 -16.68739,32.18038 -1.52676,0.59802 -3.33516,2.64686 -4.01868,4.55298 -1.21289,3.38238 -2.50183,3.81486 -17.0429,5.71859 -3.82394,0.50065 -4.27693,0.32707 -1.98256,-0.75963 z m 11.89539,-92.80339 c 0,-3.80314 0.84762,-5.31925 2.97385,-5.31925 1.63562,0 2.97385,0.49207 2.97385,1.09348 0,1.46261 13.68595,3.2038 15.45422,1.96617 2.22295,-1.55589 -5.78744,-4.90983 -11.7264,-4.90983 -2.98494,0 -6.82912,-0.98125 -8.54262,-2.18056 -2.83224,-1.98233 -3.11792,-1.69849 -3.14253,3.12217 -0.0149,2.9165 -0.56502,6.70771 -1.22252,8.4249 -0.71726,1.87331 -0.30992,3.12217 1.01836,3.12217 1.24501,0 2.21379,-2.32777 2.21379,-5.31925 z m -45.67728,92.04618 c -0.21521,-0.7632 -0.29634,-1.83349 -0.18029,-2.37842 0.11604,-0.54493 -1.26289,-0.59493 -3.0643,-0.11115 -2.19751,0.59022 -2.80357,0.34547 -1.84178,-0.74375 0.78843,-0.89285 0.55243,-1.62339 -0.52445,-1.62339 -4.72098,0 -8.32388,-4.26663 -5.35664,-6.34346 3.91682,-2.74144 5.07254,-2.49074 5.25454,1.13984 0.0861,1.7172 0.60651,2.34163 1.1565,1.38763 1.39291,-2.4161 4.63468,-2.17346 4.63468,0.34691 0,1.1448 0.67755,2.08145 1.50567,2.08145 0.82812,0 2.70077,1.33939 4.16144,2.97645 2.30222,2.58019 2.25079,2.86767 -0.38629,2.15939 -1.67314,-0.44937 -3.47536,-0.0716 -4.00493,0.83955 -0.52956,0.91111 -1.13893,1.03214 -1.35415,0.26895 z M 62.723559,204.27164 c -0.478308,-3.62519 -0.15127,-10.96228 0.726745,-16.30466 0.878019,-5.34238 1.675165,-11.58672 1.771435,-13.87631 0.172979,-4.11395 0.195025,-4.12211 1.874813,-0.69381 1.103891,2.25292 1.304576,0.4287 0.572462,-5.20362 -0.832101,-6.40153 -0.48329,-8.67269 1.331973,-8.67269 1.728725,0 2.110737,1.5458 1.285962,5.20361 -1.140798,5.05937 0.552325,3.68462 3.526287,-2.86321 0.67667,-1.48984 2.094773,-2.10454 3.476366,-1.5069 1.597385,0.69098 1.914503,0.24519 1.005286,-1.41318 -0.73051,-1.33241 -1.408661,-4.08869 -1.507002,-6.12506 -0.169775,-3.5155 -0.272767,-3.47472 -2.039251,0.80731 -1.023246,2.48039 -2.341137,4.5098 -2.928647,4.5098 -0.587508,0 -0.46642,-1.32707 0.269086,-2.94904 0.899902,-1.9845 0.619383,-2.63849 -0.857682,-1.99955 -3.342535,1.44589 -2.617729,-1.40418 0.872725,-3.43171 2.452793,-1.42477 2.552142,-2.01512 0.495642,-2.94517 -2.082701,-0.9419 -2.046466,-1.40019 0.190445,-2.40881 1.647943,-0.74304 2.310788,-2.4546 1.642901,-4.24219 -0.883618,-2.36499 -0.568804,-2.67666 1.4936,-1.47865 1.437261,0.83488 2.194814,2.63777 1.68345,4.00642 -0.511365,1.36866 0.400116,4.62398 2.025509,7.23405 1.728274,2.77527 3.02241,3.73735 3.116988,2.31722 0.08896,-1.3356 1.053891,-2.42836 2.144302,-2.42836 1.090411,0 1.982566,-0.81216 1.982566,-1.8048 0,-2.55285 4.662868,-9.27245 6.443339,-9.28542 0.817809,-0.006 1.486925,-1.20766 1.486925,-2.67045 0,-1.46279 1.01054,-2.89539 2.245645,-3.18355 3.705651,-0.86455 -0.0887,-6.6455 -4.361812,-6.6455 -4.0486,0 -4.539036,-1.22953 -4.151226,-10.40723 0.129006,-3.05279 -0.282484,-4.73689 -0.914405,-3.74244 -1.199246,1.88724 -6.49828,-1.70902 -6.633113,-4.50166 -0.03467,-0.71826 1.246806,-0.0938 2.847746,1.38763 2.745216,2.54035 2.92674,2.4173 3.191069,-2.16313 0.274383,-4.75463 0.31657,-4.72716 2.007146,1.30684 2.330108,8.31663 4.009942,10.39961 2.862817,3.54987 -0.51125,-3.05279 -0.436396,-4.76609 0.166338,-3.80734 0.602739,0.95875 1.901624,1.39464 2.886414,0.96865 0.984788,-0.42599 1.254857,0.2025 0.60015,1.39666 -0.654707,1.19415 0.02462,3.20143 1.509633,4.46062 2.109311,1.78856 2.157837,2.41715 0.221802,2.87322 -1.363015,0.32109 -2.478208,1.23265 -2.478208,2.0257 0,0.98102 0.81077,0.97094 2.536554,-0.0315 3.101866,-1.80181 15.002986,-1.7204 16.622526,0.1137 0.64602,0.73161 0.0538,1.81501 -1.31598,2.40755 -1.36981,0.59254 -1.87753,1.77159 -1.12828,2.62012 2.08611,2.36249 4.69053,1.84198 6.07651,-1.21444 1.43173,-3.15731 12.33462,-0.95922 19.34069,3.89919 3.30082,2.28897 3.10533,2.39933 -3.96513,2.23844 -11.73724,-0.26709 -17.2841,2.33892 -8.4284,3.9598 2.37235,0.43421 3.96514,1.89275 3.96514,3.63092 0,1.59784 0.89215,2.90517 1.98256,2.90517 1.09041,0 1.98257,-1.56109 1.98257,-3.46908 0,-1.90799 0.96116,-3.46908 2.13592,-3.46908 1.40834,0 1.78466,2.95425 1.10475,8.6727 -0.56715,4.76998 -1.08224,10.73895 -1.14464,13.26438 -0.0625,2.52875 -0.9595,4.22573 -1.99656,3.77712 -1.0357,-0.44801 -2.81906,0.40949 -3.96303,1.90558 -1.14396,1.49607 -3.98307,3.14291 -6.30912,3.65964 -3.04036,0.6754 -3.52405,1.24451 -1.72071,2.0246 1.66363,0.71963 0.4164,1.40669 -3.70318,2.03999 -4.90063,0.75336 -6.21166,1.673 -6.21166,4.35727 0,1.97757 -1.45291,3.7736 -3.46949,4.28884 -1.90822,0.48756 -5.59715,2.02905 -8.197629,3.42553 -5.871849,3.15324 -11.697312,3.23926 -16.428335,0.24255 -3.390849,-2.14782 -3.641667,-2.12536 -3.873752,0.3469 -0.13648,1.45389 -0.960652,-0.16653 -1.831487,-3.60091 -0.870836,-3.43439 -1.165737,-8.42986 -0.655337,-11.10105 l 0.928002,-4.85671 -2.900259,4.40047 c -1.59514,2.42025 -2.860735,7.72794 -2.812428,11.79486 0.111281,9.36854 -4.466523,33.06557 -6.38762,33.06557 -0.796821,0 -1.840108,-2.96606 -2.318416,-6.59125 z M 194.69072,187.96698 c 0.65246,-3.05279 1.19611,-6.64328 1.20811,-7.97888 0.0131,-1.44773 1.52965,-2.42835 3.75572,-2.42835 4.58784,0 7.04037,5.42966 3.40015,7.5276 -1.42384,0.82061 -4.15513,3.05308 -6.06954,4.96107 -3.48073,3.46908 -3.48073,3.46908 -2.29444,-2.08144 z M 75.984806,134.55384 c -0.67908,-0.76905 -0.173153,-1.39828 1.124282,-1.39828 1.586379,0 1.992112,-1.5823 1.238828,-4.83128 -0.618063,-2.66576 -0.218009,-5.22152 0.892521,-5.7019 1.106968,-0.47885 1.529707,-2.5197 0.939421,-4.53523 -0.590285,-2.01553 -0.554579,-2.8134 0.07934,-1.77305 0.863338,1.41685 1.519458,1.47608 2.614425,0.23605 0.804006,-0.91053 1.15155,2.17896 0.772323,6.86553 -0.66342,8.19865 -4.864093,14.30579 -7.661151,11.13816 z m 139.761504,-2.78591 -6.93898,-1.02229 6.93898,-0.32099 c 6.36204,-0.2943 6.52689,-0.40559 1.98257,-1.33851 -4.53553,-0.93112 -4.27844,-1.10205 3.02755,-2.01284 4.39117,-0.54742 10.19018,-0.37909 12.88668,0.37407 3.70772,1.03562 4.05707,1.4331 1.43322,1.6308 -7.68203,0.5788 -8.40685,0.79871 -7.93026,2.40593 0.53636,1.80881 -0.81956,1.84257 -11.39976,0.28383 z"
       style="fill:#2a48a6" />
    <path
       inkscape:connector-curvature="0"
       id="path5351"
       d="m 281.20134,442.94413 c -0.0159,-0.95399 -1.14554,-1.57843 -2.50856,-1.38763 -2.65311,0.37139 -2.74528,-0.58143 -0.54623,-5.64789 1.12112,-2.58302 0.53416,-3.37755 -2.96882,-4.0187 -4.07385,-0.74565 -4.27828,-1.34303 -3.05315,-8.92223 0.72923,-4.51132 0.52822,-8.12307 -0.45208,-8.12307 -2.18616,0 -9.06211,-34.26923 -7.81149,-38.93194 0.53267,-1.98602 1.1185,-0.51636 1.41402,3.54736 0.27752,3.81598 1.25439,8.81145 2.17087,11.10104 0.99305,2.48091 1.10247,-0.042 0.27084,-6.24434 -0.76751,-5.72397 -1.39985,-14.56319 -1.40522,-19.6427 -0.006,-5.19142 -0.79947,-8.89323 -1.81322,-8.45389 -1.06838,0.46304 -1.2616,-4.15215 -0.47405,-11.3233 0.73115,-6.6577 0.65056,-11.81121 -0.17922,-11.45226 -0.82969,0.35895 -1.21512,-6.93709 -0.85653,-16.21342 0.69872,-18.07469 -1.1621,-40.12848 -3.30872,-39.21384 -0.71962,0.30661 -1.53986,-2.18903 -1.82276,-5.54586 -0.40797,-4.8411 0.14771,-6.10334 2.68646,-6.10334 2.5386,0 3.04433,1.14832 2.44452,5.55052 -0.41594,3.05279 -0.0636,5.55052 0.78304,5.55052 0.84663,0 1.53932,2.49774 1.53932,5.55053 0,4.62543 0.66085,5.55052 3.96513,5.55052 2.18083,0 3.96514,-0.89979 3.96514,-1.99955 0,-2.43111 -3.36362,-4.12465 -4.29145,-2.16068 -0.36574,0.77418 -0.36011,-7.96401 0.0119,-19.41818 0.47094,-14.4552 0.0139,-20.82577 -1.49329,-20.82577 -1.5076,0 -1.81771,-4.34831 -1.01434,-14.22322 0.69453,-8.53707 0.24542,-17.5517 -1.1234,-22.549 -1.25429,-4.57918 -3.33309,-12.78946 -4.61956,-18.24506 -1.28863,-5.46479 -3.89707,-11.12218 -5.8085,-12.59793 -1.90822,-1.47327 -3.5322,-3.87838 -3.60884,-5.34467 -0.22677,-4.33865 -3.51295,1.88175 -3.68643,6.97803 -0.0948,2.78172 -0.7872,3.64008 -2.16095,2.67856 -1.3012,-0.91073 -1.48907,-5.83099 -0.52721,-13.80693 1.30332,-10.80734 1.63336,-11.59347 2.58081,-6.14763 0.78941,4.53741 1.53555,1.31322 2.72953,-11.79486 1.62154,-17.80209 3.63093,-22.12306 8.23741,-17.71377 1.55669,1.49006 3.52575,1.85585 6.06181,1.1261 2.46076,-0.70807 2.90151,-1.30427 1.27798,-1.72872 -3.42894,-0.89646 -3.12444,-4.57952 0.37863,-4.57952 4.53308,0 5.27629,1.96079 6.18476,16.3171 0.47044,7.43433 1.83191,15.70248 3.02547,18.37367 1.19357,2.67119 2.95884,23.58972 3.92283,46.48563 0.964,22.89591 2.60582,50.371 3.64849,61.05575 1.04267,10.68476 2.39568,25.35896 3.00668,32.60933 0.61099,7.25037 1.7197,18.49018 2.46382,24.97735 2.01569,17.57282 1.04271,27.93555 -2.90981,30.99125 -4.61932,3.57121 -4.26417,67.57194 0.4043,72.85894 0.66668,0.755 0.0914,1.68897 -1.27844,2.0755 -1.36981,0.38653 -0.52518,0.75208 1.87694,0.81233 5.01405,0.12572 14.46688,2.892 14.46688,4.23352 0,4.04074 -12.29766,8.50174 -15.00005,5.4413 -0.94535,-1.07059 -1.87236,-0.96552 -3.06051,0.34691 -1.25411,1.38531 -1.7124,1.42445 -1.73475,0.14814 z M 123.88742,440.2845 c -2.6677,-1.86715 -1.22853,-3.52348 1.62254,-1.86736 1.95108,1.13335 7.91237,1.53467 17.67225,1.1897 8.10041,-0.28629 14.30616,-0.0427 13.79056,0.54111 -1.14931,1.30157 -31.24337,1.42579 -33.08535,0.13654 z m 51.21629,-2.49515 c 3.27123,-1.10281 7.75653,-2.03327 9.96734,-2.06769 3.2506,-0.0506 8.70992,-1.95658 14.53972,-5.07612 0.39394,-0.21081 -1.3935,-1.82284 -3.97209,-3.58231 -4.19013,-2.85906 -4.69829,-4.46154 -4.78184,-15.07941 -0.0514,-6.53422 -1.11944,-13.71521 -2.37341,-15.95776 -1.25397,-2.24255 -2.66114,-8.17769 -3.12703,-13.18922 -0.5861,-6.30444 -2.44877,-11.21772 -6.04554,-15.94671 -2.85914,-3.75917 -5.19844,-8.9529 -5.19844,-11.5416 0,-2.58873 -0.83344,-6.96473 -1.8521,-9.72446 -1.01867,-2.75974 -2.94481,-9.70096 -4.28032,-15.42494 -2.50086,-10.7186 -4.74657,-15.18964 -8.53798,-16.99847 -1.50683,-0.71889 -1.27977,-1.4464 0.73423,-2.35256 2.43533,-1.09573 2.51698,-2.08349 0.49564,-5.99596 -1.33099,-2.57626 -2.41999,-10.37893 -2.41999,-17.33928 0,-6.96034 -0.89216,-13.04109 -1.98257,-13.51277 -1.09041,-0.47169 -1.98257,-1.9978 -1.98257,-3.39139 0,-2.75662 -8.50487,-7.29043 -14.86168,-7.92251 -32.41912,-3.22351 -48.580428,-0.89387 -48.580428,7.00285 0,1.1362 -0.669116,2.35546 -1.486925,2.70947 -3.158683,1.36733 0.127777,25.13339 3.688541,26.67369 0.969934,0.41957 1.763516,2.14814 1.763516,3.84127 0,1.69313 1.442348,4.51972 3.205218,6.2813 1.76287,1.76159 3.155668,5.71559 3.095118,8.78665 -0.0867,4.39556 0.70787,5.73348 3.73376,6.28733 3.37022,0.61685 4.84392,2.88498 4.07864,6.27729 -0.12912,0.5724 1.25215,1.04072 3.0695,1.04072 1.81735,0 2.72338,0.40659 2.01338,0.90352 -0.70999,0.49694 -0.0671,1.5897 1.42869,2.42835 3.07567,1.72449 8.33173,12.63009 10.09788,20.95167 2.33322,10.99347 5.80798,21.50828 7.1077,21.50828 0.72919,0 1.32579,4.05882 1.32579,9.0196 0,4.96078 -0.78063,9.0196 -1.73474,9.0196 -0.95411,0 -1.73475,-1.50905 -1.73475,-3.35345 0,-1.84438 -0.96978,-3.57969 -2.15508,-3.85622 -1.18529,-0.27654 -2.21928,-3.47524 -2.29775,-7.10824 -0.0785,-3.63299 -0.89299,-6.93001 -1.81005,-7.3267 -0.91706,-0.3967 -1.66738,-1.3457 -1.66738,-2.10889 0,-0.7632 0.89215,-1.00172 1.98256,-0.53004 2.30922,0.9989 2.46165,0.40698 0.71539,-2.77812 -1.02049,-1.86131 -1.62473,-1.95094 -3.10372,-0.4604 -1.26326,1.27314 -1.45382,0.89605 -0.61047,-1.20803 0.71932,-1.79462 -0.0738,-4.44748 -1.919,-6.4185 -1.72979,-1.84778 -3.55247,-4.84024 -4.0504,-6.64992 -0.49794,-1.80967 -1.80633,-3.50053 -2.90755,-3.75745 -1.10121,-0.25692 -2.00221,-1.35175 -2.00221,-2.43293 0,-2.41892 -3.33018,-2.60522 -4.45229,-0.2491 -0.44967,0.9442 -0.94289,-0.61619 -1.09604,-3.46755 -0.38372,-7.14396 -12.294762,-21.35561 -12.294762,-14.66946 0,0.89039 -0.471038,1.28921 -1.046751,0.88625 -0.575714,-0.40294 -0.132337,-2.416 0.985289,-4.47346 1.32076,-2.43142 1.340177,-3.44154 0.05547,-2.88581 -1.124932,0.48661 -1.976577,-0.73897 -1.976577,-2.84442 0,-2.67696 -0.80178,-3.48409 -2.900934,-2.9203 -2.119631,0.5693 -3.219596,-0.60532 -4.084106,-4.36134 -0.650744,-2.82725 -2.294376,-6.70156 -3.652515,-8.60955 -1.358139,-1.90799 -2.364781,-6.08372 -2.236981,-9.27939 0.132416,-3.311 -0.645742,-5.69857 -1.80902,-5.55053 -1.122763,0.14289 -2.621603,-1.92572 -3.330757,-4.59691 -1.289373,-4.85671 -1.289373,-4.85671 -1.55036,0.57818 -0.143538,2.98918 -0.763485,5.08319 -1.377648,4.65331 -0.614161,-0.42986 -1.532103,-16.92532 -2.03987,-36.65657 -0.941572,-36.58859 -1.896463,-44.07819 -4.927737,-38.65028 -0.968615,1.73444 -1.472232,-0.6074 -1.34285,-6.24434 0.147186,-6.4124 0.426393,-7.31489 0.965932,-3.12216 1.777567,13.81337 9.09249,-8.58716 8.871789,-27.16814 -0.04832,-4.06692 1.217288,-9.37461 2.812428,-11.79486 l 2.900259,-4.40047 -0.928002,4.85671 c -0.5104,2.67119 -0.215499,7.66666 0.655337,11.10105 0.870835,3.43438 1.695005,5.0548 1.831487,3.60091 0.232085,-2.47226 0.482903,-2.49472 3.873752,-0.3469 4.731023,2.99671 10.556486,2.91069 16.428335,-0.24255 2.600482,-1.39648 6.289412,-2.93797 8.197632,-3.42553 2.01658,-0.51524 3.46949,-2.31127 3.46949,-4.28884 0,-2.68427 1.31103,-3.60391 6.21166,-4.35727 4.11958,-0.6333 5.36681,-1.32036 3.70318,-2.03999 -1.80334,-0.78009 -1.31965,-1.3492 1.72071,-2.0246 2.32605,-0.51673 5.16516,-2.16357 6.30912,-3.65964 1.14397,-1.49609 2.92733,-2.35359 3.96303,-1.90558 1.03706,0.44861 1.93407,-1.24837 1.99656,-3.77712 0.0624,-2.52543 0.57749,-8.4944 1.14464,-13.26438 0.67991,-5.71845 0.30359,-8.6727 -1.10475,-8.6727 -1.17476,0 -2.13592,1.56109 -2.13592,3.46908 0,1.90799 -0.89216,3.46908 -1.98257,3.46908 -1.09041,0 -1.98256,-1.30733 -1.98256,-2.90517 0,-1.73817 -1.59279,-3.19671 -3.96514,-3.63092 -8.8557,-1.62088 -3.30884,-4.22689 8.4284,-3.9598 7.07046,0.16089 7.26595,0.0505 3.96513,-2.23844 -7.00607,-4.85841 -17.90896,-7.0565 -19.34069,-3.89919 -1.38598,3.05642 -3.9904,3.57693 -6.07651,1.21444 -0.74925,-0.84853 -0.24153,-2.02758 1.12828,-2.62012 1.36981,-0.59254 1.962,-1.67594 1.31598,-2.40755 -1.61953,-1.8341 -13.52066,-1.91551 -16.622525,-0.1137 -1.725784,1.00247 -2.536554,1.01255 -2.536554,0.0315 0,-0.79305 1.115193,-1.70461 2.478207,-2.0257 1.936036,-0.45607 1.88751,-1.08466 -0.221801,-2.87322 -1.485003,-1.25919 -2.16434,-3.26647 -1.509633,-4.46062 0.654707,-1.19416 0.384638,-1.82265 -0.60015,-1.39666 -0.98479,0.42599 -2.283675,-0.01 -2.886414,-0.96865 -0.602738,-0.95875 -0.677592,0.75455 -0.166342,3.80734 1.147125,6.84974 -0.532709,4.76676 -2.862817,-3.54987 -1.580305,-5.64042 -1.745308,-5.77383 -1.944092,-1.57186 -0.124942,2.64102 -1.049825,4.23154 -2.17708,3.74392 -1.145443,-0.49549 -1.442719,0.0954 -0.715381,1.42208 1.003,1.82943 1.594261,1.91072 3.047146,0.41898 1.201356,-1.23349 1.678209,6e-4 1.429548,3.69964 -0.606122,9.01656 -0.06993,10.40723 4.012642,10.40723 4.27311,0 8.067466,5.78095 4.361812,6.6455 -1.235105,0.28816 -2.245645,1.72076 -2.245645,3.18355 0,1.46279 -0.669116,2.6645 -1.486925,2.67045 -1.780471,0.013 -6.443339,6.73257 -6.443339,9.28542 0,0.99264 -0.892155,1.8048 -1.982566,1.8048 -1.090411,0 -2.055342,1.09276 -2.144292,2.42836 -0.09457,1.42013 -1.388714,0.45805 -3.116988,-2.31722 -1.625393,-2.61007 -2.528527,-5.88772 -2.006964,-7.28368 0.521564,-1.39596 0.13989,-2.8878 -0.848144,-3.3152 -0.988043,-0.4274 -1.796442,0.6127 -1.796442,2.31134 0,1.69863 -0.530975,2.71678 -1.179946,2.26256 -0.648969,-0.45423 -0.564072,-2.78847 0.188663,-5.1872 0.752734,-2.39874 1.835995,-4.03421 2.407247,-3.63438 2.928877,2.04997 6.624963,-4.03398 7.224614,-11.89207 0.640602,-8.39476 0.554176,-8.58485 -2.088808,-4.5942 -2.39603,3.61777 -2.630612,3.70863 -1.791413,0.69381 0.531105,-1.90799 1.576542,-6.74735 2.323193,-10.75413 1.549668,-8.31607 3.498529,-8.852306 11.47872,-3.15844 7.454369,5.31868 39.498129,16.37575 50.827539,17.53862 4.90686,0.50365 10.208,1.61102 11.78033,2.46083 1.57233,0.8498 2.32367,0.92066 1.66964,0.15746 -0.76861,-0.8969 4.88101,-1.21228 15.9756,-0.8918 9.4406,0.27271 27.42452,-0.29404 39.96425,-1.25945 12.53973,-0.9654 24.58381,-1.83145 26.76464,-1.92454 2.18082,-0.0931 5.01868,-0.62929 6.30634,-1.19154 1.28768,-0.56225 2.9868,-0.29118 3.77582,0.60239 0.89596,1.01468 0.57522,1.25292 -0.85429,0.63456 -1.4369,-0.62156 -2.28889,0.0365 -2.28889,1.76793 0,1.51692 -1.29575,3.66495 -2.87944,4.7734 -1.58369,1.10846 -2.5903,2.24582 -2.23691,2.52747 1.69105,1.34777 3.25533,23.62438 1.60891,22.91218 -1.06402,-0.46026 -2.36673,6.61646 -3.10176,16.84962 -1.04291,14.51929 -4.4736,30.77111 -5.1158,24.23441 -0.42728,-4.34919 -3.81997,-1.07777 -5.03675,4.85671 -3.1513,15.36962 -10.85887,28.79616 -19.51419,33.9937 -6.747,4.05159 -11.73882,5.31182 -6.49084,1.63868 1.7135,-1.1993 3.11546,-3.04158 3.11546,-4.09394 0,-1.05236 1.34874,-2.44168 2.9972,-3.08736 3.81246,-1.49331 9.33565,-12.03331 16.90867,-32.26706 3.28494,-8.77677 6.88639,-17.09277 8.0032,-18.48 4.85515,-6.03074 1.3905,-30.08708 -4.33321,-30.08708 -2.84518,0 -3.7502,-1.00461 -3.7502,-4.16289 0,-2.77526 -0.99129,-4.16289 -2.97385,-4.16289 -1.63562,0 -2.97385,-0.92928 -2.97385,-2.06505 0,-1.33464 -2.79221,-2.37756 -7.89422,-2.94858 -5.09032,-0.56971 -7.41977,-1.43806 -6.55842,-2.44475 0.76644,-0.89577 0.0131,-0.81169 -1.76731,0.19725 -1.70673,0.96717 -4.55445,1.36869 -6.32827,0.89227 -2.65585,-0.71332 -3.22514,0.13975 -3.22514,4.83276 0,3.13445 -0.89215,5.69899 -1.98256,5.69899 -1.09042,0 -1.98257,1.25416 -1.98257,2.78702 0,2.36823 -0.55328,2.54518 -3.68204,1.17758 -2.02512,-0.88519 -3.58639,-2.91989 -3.46949,-4.52156 0.12624,-1.72958 -0.99506,-2.91212 -2.7613,-2.91212 -3.39531,0 -4.1352,3.64038 -1.05762,5.20362 1.37596,0.6989 1.27569,1.39181 -0.30527,2.10968 -4.12842,1.8746 -6.54395,8.08178 -3.94439,10.13588 1.91102,1.51003 1.75492,1.53996 -0.86231,0.1653 -2.70476,-1.42063 -4.00359,-0.82408 -8.45403,3.88291 -2.89207,3.05878 -6.1378,5.56141 -7.21274,5.56141 -1.07494,0 -1.95443,0.93665 -1.95443,2.08145 0,1.14479 -0.89216,2.08144 -1.98257,2.08144 -1.09041,0 -2.03912,1.7172 -2.10823,3.81599 -0.12568,3.81598 -0.12568,3.81598 -2.0217,0.49891 -1.04281,-1.82439 -3.15604,-5.25878 -4.69606,-7.63197 -1.54002,-2.3732 -3.20323,-5.56376 -3.69602,-7.09016 -0.4928,-1.52639 -0.99948,-0.4817 -1.12597,2.32154 -0.20413,4.52383 -10.73409,14.39986 -17.80011,16.69471 -0.69534,0.22582 -3.73033,3.06443 -6.74443,6.30801 -3.01411,3.24359 -6.73725,5.89744 -8.27366,5.89744 -12.962579,0 -28.065456,34.64241 -18.587603,42.63553 1.34648,1.13556 3.401281,3.40302 4.566225,5.03881 4.256038,5.97626 17.804618,8.95614 40.661898,8.9432 21.98148,-0.0125 39.45114,1.24878 43.88928,3.1686 2.00635,0.86789 2.98785,7.7887 3.96831,27.98159 1.43176,29.4873 2.49392,38.6609 7.1095,61.40257 1.70385,8.39517 3.48609,19.79109 3.96053,25.32427 0.81914,9.55317 4.37715,14.3447 4.63682,6.24434 0.0985,-3.07291 0.64388,-2.60005 2.80071,2.42835 3.70726,8.64309 7.37333,33.17883 5.93264,39.70515 -0.73774,3.34193 -0.0451,7.63058 1.82122,11.27692 3.25069,6.35099 1.11753,8.65308 -8.06835,8.7073 -2.86804,0.0169 -3.03414,0.27192 -0.81707,1.25436 1.8602,0.82429 -1.75478,1.54429 -10.90412,2.17174 -7.52777,0.51625 -15.47118,1.19447 -17.652,1.50715 -2.18082,0.31269 -1.28867,-0.33378 1.98257,-1.43659 z M 227.14607,131.4841 c -0.47659,-1.60722 0.24823,-1.82713 7.93026,-2.40593 2.62385,-0.1977 2.2745,-0.59518 -1.43322,-1.6308 -2.6965,-0.75316 -8.49551,-0.92149 -12.88668,-0.37407 -7.30599,0.91079 -7.56308,1.08172 -3.02755,2.01284 4.54432,0.93292 4.37947,1.04421 -1.98257,1.33851 l -6.93898,0.32099 6.93898,1.02229 c 10.5802,1.55874 11.93612,1.52498 11.39976,-0.28383 z M 124.90794,435.26858 c -1.68394,-1.42016 -1.64215,-2.31972 0.16657,-3.58567 1.54583,-1.08196 1.70718,-2.04355 0.44847,-2.67286 -1.76707,-0.88349 -2.13188,-3.24929 -1.26825,-8.22446 0.16144,-0.93004 1.52769,-1.35952 3.03608,-0.95439 2.99598,0.80467 5.25479,-5.25708 5.84706,-15.69117 0.51789,-9.12368 4.82804,-4.29071 5.83403,6.54169 0.66739,7.18636 1.54036,9.11583 4.29507,9.49305 2.47806,0.33934 3.13219,1.322 2.30927,3.46907 -0.63149,1.64761 -1.16035,3.7341 -1.17524,4.63666 -0.0149,0.90257 -1.82433,2.04029 -4.02099,2.52826 -2.19666,0.48798 -3.48224,1.4667 -2.85684,2.17496 0.62539,0.70825 -0.52146,1.28772 -2.54855,1.28772 -2.02709,0 -4.61559,0.6509 -5.75222,1.44644 -1.43374,1.00351 -2.75495,0.86591 -4.31447,-0.4493 z m 71.28634,-84.25498 c -1.48513,-8.77677 -2.28791,-17.83106 -1.78398,-20.12065 0.52211,-2.37217 1.04403,-0.48198 1.2133,4.39417 0.16338,4.70637 1.2305,8.77483 2.37138,9.04101 1.28056,0.29876 1.84956,4.72374 1.48693,11.56358 l -0.58741,11.07964 -2.70022,-15.95775 z m -6.9217,-59.18368 c -1.98369,-16.42498 -1.56579,-40.72574 0.70037,-40.72574 1.25027,0 1.98257,9.48214 1.98257,25.67117 0,27.79283 -0.68219,31.62075 -2.68294,15.05457 z M 66.213549,179.72886 c 0.585824,-5.13727 1.926479,-10.92614 2.979232,-12.86418 1.052752,-1.93803 1.368121,-5.56065 0.700821,-8.05026 -0.76623,-2.85872 -0.338912,-4.9048 1.159742,-5.55307 1.687925,-0.73015 1.986939,-0.17511 1.03573,1.92253 -0.735506,1.62197 -0.856594,2.94904 -0.269086,2.94904 0.58751,0 1.905401,-2.02941 2.928647,-4.5098 1.766484,-4.28203 1.869476,-4.32281 2.039251,-0.80731 0.09834,2.03637 0.734333,4.71575 1.41331,5.95418 0.749618,1.36727 0.314724,2.09313 -1.107222,1.84803 -3.235198,-0.55767 -7.761642,9.06333 -8.848178,18.80688 -0.497374,4.46022 -1.397756,8.45487 -2.000849,8.87698 -0.603095,0.42212 -0.617224,-3.43574 -0.0314,-8.57302 z m 130.440081,-33.0439 c 0.6575,-1.71719 1.20763,-5.5084 1.22252,-8.4249 0.0246,-4.82066 0.31029,-5.1045 3.14253,-3.12217 1.7135,1.19931 5.55768,2.18056 8.54262,2.18056 5.93896,0 13.94935,3.35394 11.7264,4.90983 -1.76827,1.23763 -15.45422,-0.50356 -15.45422,-1.96617 0,-0.60141 -1.33823,-1.09348 -2.97385,-1.09348 -2.12623,0 -2.97385,1.51611 -2.97385,5.31925 0,2.99148 -0.96878,5.31925 -2.21379,5.31925 -1.32828,0 -1.73562,-1.24886 -1.01836,-3.12217 z m 56.76144,-24.23086 c 0,-2.20627 3.28315,-3.72084 15.36488,-7.08808 8.45069,-2.35524 13.6331,-3.37493 11.51647,-2.26596 -2.11663,1.10897 -3.03331,2.0163 -2.03707,2.0163 0.99624,0 -0.1362,0.95475 -2.51647,2.12167 -2.73306,1.33986 -6.36572,1.80982 -9.85833,1.27539 -4.24677,-0.64984 -4.84023,-0.50306 -2.55665,0.63235 2.46974,1.22798 2.49621,1.48222 0.15602,1.49987 -1.54975,0.0117 -4.44925,1.05468 -6.44334,2.31776 -3.39877,2.15288 -3.62551,2.12103 -3.62551,-0.5093 z"
       style="fill:#213891" />
    <path
       inkscape:connector-curvature="0"
       id="path5349"
       d="m 281.76158,450.43615 c -1.31078,-0.87703 -3.7642,-2.39974 -5.45206,-3.38384 -1.90745,-1.11211 -3.14358,-4.26292 -3.26642,-8.32578 -0.15246,-5.04149 -0.51812,-5.74309 -1.59888,-3.06746 -1.38252,3.42269 -1.41692,3.42798 -2.57257,0.39519 -0.8694,-2.28152 -0.15028,-3.30073 2.78972,-3.95384 5.94647,-1.32098 7.70735,0.91344 5.20936,6.61022 -2.08253,4.74926 -1.86473,5.27665 3.51836,8.51947 3.15608,1.90125 5.29224,3.75916 4.74703,4.12872 -0.5452,0.36955 -2.06375,-0.0457 -3.37454,-0.92268 z m -79.98789,-14.84739 c -2.36557,-1.04741 -2.23701,-1.27862 0.72064,-1.29607 9.18588,-0.0543 11.31904,-2.35631 8.06835,-8.7073 -1.86634,-3.64634 -2.55896,-7.93499 -1.82122,-11.27692 1.44069,-6.52632 -2.22538,-31.06206 -5.93264,-39.70515 -2.15683,-5.0284 -2.7022,-5.50126 -2.80071,-2.42835 -0.25967,8.10036 -3.81768,3.30883 -4.63682,-6.24434 -0.47444,-5.53318 -2.25668,-16.9291 -3.96053,-25.32427 -4.61558,-22.74167 -5.67774,-31.91527 -7.1095,-61.40257 -0.98046,-20.19289 -1.96196,-27.1137 -3.96831,-27.98159 -4.43814,-1.91982 -21.9078,-3.18105 -43.88928,-3.1686 -22.85728,0.0129 -36.40586,-2.96694 -40.661895,-8.9432 -1.164944,-1.63579 -3.219745,-3.90325 -4.566225,-5.03881 -9.477853,-7.99312 5.625024,-42.63553 18.5876,-42.63553 1.53641,0 5.25955,-2.65385 8.27366,-5.89744 3.0141,-3.24358 6.04909,-6.08219 6.74443,-6.30801 7.06602,-2.29485 17.59598,-12.17088 17.80011,-16.69471 0.12649,-2.80324 0.63419,-3.84793 1.12822,-2.32154 0.49404,1.5264 2.62093,5.42231 4.72644,8.65757 4.69396,7.21263 4.67302,8.14808 -0.31864,14.23834 -3.77162,4.60169 -3.91942,4.65077 -2.81495,0.93467 1.06522,-3.58402 0.40196,-3.32017 -7.6955,3.06118 -4.87365,3.84077 -9.22231,6.54233 -9.6637,6.00349 -0.44138,-0.53886 -0.48267,-0.11171 -0.0918,0.94929 0.39092,1.06097 -1.09353,2.81356 -3.29878,3.89466 -2.20525,1.08111 -4.00954,2.81897 -4.00954,3.86195 0,1.04295 -2.27831,3.79139 -5.0629,6.10763 -10.38281,8.63646 -0.59373,28.023 12.38924,24.536 1.42257,-0.38208 2.58648,-0.0898 2.58648,0.64938 0,0.73925 0.89216,1.34409 1.98257,1.34409 1.09041,0 1.99623,-1.09276 2.01292,-2.42835 0.0255,-2.03673 0.32782,-2.09916 1.87477,-0.3871 3.05917,3.38567 4.91223,0.30126 2.06001,-3.42889 -1.45717,-1.90569 -2.17337,-3.79807 -1.59156,-4.2053 0.58181,-0.40721 2.13222,0.99682 3.44535,3.12009 6.05504,9.79065 28.78874,16.44257 44.36235,12.98047 3.47702,-0.77297 9.4444,-1.73707 13.26084,-2.14248 16.14865,-1.71537 28.13994,-15.80636 32.8024,-38.54612 1.47061,-7.17251 4.08403,-8.56222 6.00863,-3.19513 2.63449,7.3468 -5.14726,25.5023 -14.20166,33.13371 -4.63865,3.90964 -7.98187,7.62033 -7.42941,8.246 0.55246,0.62565 -0.0737,2.04686 -1.39151,3.15822 -1.68745,1.42311 -1.73792,2.02066 -0.17068,2.02066 1.5995,0 2.22532,12.61773 2.22532,44.86673 0,24.67671 0.57019,45.26581 1.26706,45.75357 0.69689,0.48777 1.4306,3.24568 1.63044,6.12871 2.01106,29.01018 3.51668,43.48804 4.9465,47.5646 4.45737,12.70842 6.1825,22.48628 4.25423,24.11248 -3.17272,2.6757 -1.24737,9.58446 2.97835,10.68731 3.50637,0.9151 3.52467,1.04732 0.27342,1.97595 -7.07239,2.02003 -3.71047,8.99738 4.40173,9.13534 12.31176,0.20939 -1.89702,2.42493 -15.85125,2.47163 -6.5313,0.0219 -12.57682,0.3433 -13.4345,0.71431 -0.85767,0.37101 -2.85505,0.10088 -4.4386,-0.60026 z m -3.77871,-91.26063 c -1.14088,-0.26618 -2.208,-4.33464 -2.37138,-9.04101 -0.16927,-4.87615 -0.69119,-6.76634 -1.2133,-4.39417 -0.50393,2.28959 0.29885,11.34388 1.78398,20.12065 l 2.70022,15.95775 0.58741,-11.07964 c 0.36263,-6.83984 -0.20637,-11.26482 -1.48693,-11.56358 z m -6.03946,-67.55278 c 0,-16.18903 -0.7323,-25.67117 -1.98257,-25.67117 -2.26616,0 -2.68406,24.30076 -0.70037,40.72574 2.00075,16.56618 2.68294,12.73826 2.68294,-15.05457 z m 72.52353,106.84757 c 0.51145,-8.14437 0.22013,-9.99229 -1.09382,-6.93815 -1.58183,3.6768 -1.75796,3.35273 -1.50841,-2.77527 0.15543,-3.81598 -0.32861,-8.18702 -1.07561,-9.71341 -0.74699,-1.5264 -2.22592,-20.57163 -3.28653,-42.32274 -1.47365,-30.22123 -2.86745,-42.65623 -5.91041,-52.72997 -5.48118,-18.14553 -10.0165,-43.83856 -10.59341,-60.01262 -0.26536,-7.43984 -1.23,-13.52807 -2.14367,-13.5294 -0.91364,-0.001 -1.03059,-2.61481 -0.25987,-5.80775 0.77074,-3.19293 2.05414,-13.02777 2.85202,-21.85518 l 1.45068,-16.04985 0.29612,14.14132 c 0.25815,12.32908 4.02171,22.55661 4.40058,11.95865 0.17744,-4.96617 3.46521,-11.01493 3.68643,-6.7824 0.0767,1.46629 1.70062,3.8714 3.60884,5.34467 1.91143,1.47575 4.51987,7.13314 5.8085,12.59793 1.28647,5.4556 3.36527,13.66588 4.61956,18.24506 1.36882,4.9973 1.81793,14.01193 1.1234,22.549 -0.80337,9.87491 -0.49326,14.22322 1.01434,14.22322 1.50723,0 1.96423,6.37057 1.494,20.82577 -0.37262,11.45417 -0.37825,20.19236 -0.0119,19.41818 0.92782,-1.96397 4.29144,-0.27043 4.29144,2.16068 0,1.09976 -1.78431,1.99955 -3.96513,1.99955 -3.30428,0 -3.96513,-0.92509 -3.96513,-5.55052 0,-3.05279 -0.69269,-5.55053 -1.53933,-5.55053 -0.84661,0 -1.19897,-2.49773 -0.78303,-5.55052 0.5998,-4.4022 0.094,-5.55052 -2.44453,-5.55052 -2.53883,0 -3.09442,1.26224 -2.68645,6.10334 0.28289,3.35683 1.10314,5.85247 1.82275,5.54586 2.14662,-0.91464 4.00744,21.13915 3.30872,39.21384 -0.35858,9.27633 0.0268,16.57237 0.85653,16.21342 0.82969,-0.35895 0.91028,4.79456 0.17923,11.45226 -0.78756,7.17115 -0.59434,11.78634 0.47405,11.3233 1.01374,-0.43934 1.80772,3.26247 1.81321,8.45389 0.006,5.07951 0.56527,13.60651 1.24424,18.94889 0.67895,5.34238 0.75074,8.15233 0.1596,6.24434 -1.06478,-3.43625 -1.08847,-3.42967 -2.50416,0.69381 -0.81995,2.38831 -1.13203,-0.56933 -0.73208,-6.93815 z m -94.8274,-259.82054 c 6.81507,-0.27096 17.96701,-0.27096 24.78208,0 6.81507,0.27096 1.2391,0.49266 -12.39104,0.49266 -13.63014,0 -19.20611,-0.2217 -12.39104,-0.49266 z m -48.84719,-6.67686 c -8.05636,-2.67463 -14.21029,-5.16926 -13.67539,-5.54365 0.53489,-0.37438 7.12646,1.42926 14.64793,4.00808 7.52146,2.57883 15.01362,5.03903 16.64924,5.46712 2.64342,0.69186 2.64342,0.78685 0,0.85487 -1.63562,0.0421 -9.56542,-2.1118 -17.62178,-4.78642 z"
       style="fill:#172565" />
    <path
       style="fill:#0f0e1f"
       d="m 234.82766,440.53832 c -4.60132,-2.43874 -3.01547,-5.84647 3.10129,-6.66409 3.17244,-0.42406 2.42461,-0.67061 -2.43091,-0.80145 -8.11375,-0.21864 -11.44848,-7.19234 -4.40173,-9.20504 3.25125,-0.92863 3.23295,-1.06085 -0.27342,-1.97595 -4.22572,-1.10285 -6.15107,-8.01161 -2.97835,-10.68731 1.92827,-1.6262 0.20314,-11.40406 -4.25423,-24.11248 -1.42982,-4.07656 -2.93544,-18.55442 -4.9465,-47.5646 -0.19984,-2.88303 -0.93355,-5.64094 -1.63044,-6.12871 -0.69687,-0.48776 -1.26706,-21.07686 -1.26706,-45.75357 0,-32.249 -0.62582,-44.86673 -2.22532,-44.86673 -1.61213,0 -1.59297,-0.53329 0.0696,-1.93538 1.26218,-1.06447 2.04053,-2.57204 1.72968,-3.35017 -0.31086,-0.77813 2.93428,-4.36993 7.21141,-7.98178 7.54471,-6.37114 14.96183,-21.58847 15.00743,-30.78994 0.0492,-9.91565 3.06988,-0.85838 3.47179,10.40964 0.57687,16.17314 5.11199,41.86584 10.59305,60.01262 2.98872,9.89507 4.43389,22.35269 5.79514,49.95471 1.96405,39.82483 4.38765,62.64242 8.84343,83.25784 3.2185,14.89093 4.83699,30.52831 3.15962,30.52702 -0.6148,-4.7e-4 -0.80082,3.20297 -0.41341,7.11876 -58.09399,2.60048 -25.33466,5.274 -34.16107,0.53661 z"
       id="path5382" />
    <path
       style="fill:#0f0e1f"
       d="m 130.49597,233.10852 c 0,-0.73923 -1.16391,-1.03146 -2.58648,-0.64938 -12.98297,3.487 -22.77205,-15.89954 -12.38925,-24.536 2.7846,-2.31624 5.0629,-5.06468 5.0629,-6.10763 0,-1.04298 1.8043,-2.78084 4.00954,-3.86195 2.20525,-1.0811 3.6897,-2.83369 3.29879,-3.89466 -0.39092,-1.06097 -0.34963,-1.48815 0.0918,-0.94929 0.44138,0.53884 4.79005,-2.16272 9.6637,-6.00349 10.06076,-7.92858 10.30434,-6.63934 1.73567,9.18664 -7.64047,14.11164 -7.74779,21.68226 -0.45734,32.26032 2.44758,3.55131 0.25297,6.19619 -2.55902,3.08408 -1.54695,-1.71206 -1.84931,-1.64963 -1.87477,0.3871 -0.0167,1.33559 -0.92251,2.42835 -2.01292,2.42835 -1.09041,0 -1.98257,-0.60484 -1.98257,-1.34409 z"
       id="path5380" />
    <path
       style="fill:#b3b3b3"
       d="M 146.3565,122.03891 C 121.25219,119.00888 83.315637,101.1219 85.514382,93.352024 87.846554,85.110662 96.537108,63.183831 96.661574,65.226945 c 0.292187,4.796346 26.268936,18.575266 33.420416,17.727282 2.00492,-0.237733 6.49112,1.243772 9.96934,3.292234 21.21698,12.495549 102.51765,4.954949 165.38764,-15.339623 17.35919,-5.603591 56.10398,-13.343034 94.68598,-18.913951 16.90138,-2.440417 32.29105,-4.913641 34.19927,-5.496053 2.7559,-0.841139 3.46949,-0.380074 3.46949,2.24173 0,3.097601 5.79466,18.683198 8.71155,23.431056 2.03092,3.305733 -10.17841,6.672998 -38.45004,10.604305 -28.04741,3.900125 -25.78167,3.548295 -37.66876,5.849302 -25.68486,4.971867 -45.67412,9.761952 -74.34622,17.815803 -33.40664,9.38375 -46.35952,12.61008 -54.52057,13.58011 -28.14616,3.34546 -75.79991,4.35688 -95.16317,2.01977 z"
       id="path5378" />
    <path
       style="fill:#0f0e1f"
       d="m 179.06884,95.689532 c -119.379227,277.540308 -59.68961,138.770158 0,0 z"
       id="path5347" />
  </g>
</svg>
