<?xml version="1.0" encoding="UTF-8" standalone="no"?>
<svg
   xmlns:dc="http://purl.org/dc/elements/1.1/"
   xmlns:cc="http://creativecommons.org/ns#"
   xmlns:rdf="http://www.w3.org/1999/02/22-rdf-syntax-ns#"
   xmlns:svg="http://www.w3.org/2000/svg"
   xmlns="http://www.w3.org/2000/svg"
   xmlns:sodipodi="http://sodipodi.sourceforge.net/DTD/sodipodi-0.dtd"
   xmlns:inkscape="http://www.inkscape.org/namespaces/inkscape"
   sodipodi:docname="fancy gauntlets.svg"
   height="100%"
   width="100%"
   inkscape:version="0.48.4 r9939"
   version="1.1"
   id="svg8438"
   viewBox="0 0 512 512">
  <metadata
     id="metadata8464">
    <rdf:RDF>
      <cc:Work
         rdf:about="">
        <dc:format>image/svg+xml</dc:format>
        <dc:type
           rdf:resource="http://purl.org/dc/dcmitype/StillImage" />
        <dc:title></dc:title>
      </cc:Work>
    </rdf:RDF>
  </metadata>
  <defs
     id="defs8462">
    <linearGradient
       id="linearGradient4077">
      <stop
         id="stop4079"
         offset="0"
         style="stop-color:#aa4400;stop-opacity:1;" />
      <stop
         style="stop-color:#ff9f00;stop-opacity:1;"
         offset="0.22752622"
         id="stop4081" />
      <stop
         style="stop-color:#803300;stop-opacity:1;"
         offset="0.4948855"
         id="stop4083" />
      <stop
         id="stop4085"
         offset="1"
         style="stop-color:#562200;stop-opacity:1;" />
    </linearGradient>
    <linearGradient
       id="linearGradient4057">
      <stop
         style="stop-color:#aa4400;stop-opacity:1;"
         offset="0"
         id="stop4059" />
      <stop
         id="stop4067"
         offset="0.22752622"
         style="stop-color:#ecd1a4;stop-opacity:1;" />
      <stop
         id="stop4065"
         offset="0.50136983"
         style="stop-color:#803300;stop-opacity:1;" />
      <stop
         style="stop-color:#562200;stop-opacity:1;"
         offset="1"
         id="stop4061" />
    </linearGradient>
    <linearGradient
       id="linearGradient3890">
      <stop
         style="stop-color:#701b1b;stop-opacity:1;"
         offset="0"
         id="stop3892" />
      <stop
         style="stop-color:#e31600;stop-opacity:1;"
         offset="1"
         id="stop3894" />
    </linearGradient>
    <linearGradient
       id="linearGradient3882">
      <stop
         style="stop-color:#600b0b;stop-opacity:1;"
         offset="0"
         id="stop3884" />
      <stop
         style="stop-color:#d11414;stop-opacity:1;"
         offset="1"
         id="stop3886" />
    </linearGradient>
    <linearGradient
       id="linearGradient3872">
      <stop
         style="stop-color:#800600;stop-opacity:1;"
         offset="0"
         id="stop3874" />
      <stop
         style="stop-color:#ff0004;stop-opacity:0;"
         offset="1"
         id="stop3876" />
    </linearGradient>
    <filter
       id="filter4074"
       inkscape:label="Black Light"
       inkscape:menu="Color"
       inkscape:menu-tooltip="Light areas turn to black"
       x="0"
       width="1"
       y="0"
       height="1"
       color-interpolation-filters="sRGB">
      <feColorMatrix
         id="feColorMatrix4076"
         type="luminanceToAlpha"
         result="result2" />
      <feComposite
         in2="SourceGraphic"
         id="feComposite4078"
         operator="arithmetic"
         in="result2"
         k3="2"
         result="result4" />
      <feBlend
         in2="result2"
         id="feBlend4080"
         in="result4"
         mode="multiply"
         result="result3" />
      <feComposite
         in2="SourceGraphic"
         id="feComposite4082"
         operator="in"
         in="result3" />
    </filter>
  </defs>
  <sodipodi:namedview
     pagecolor="#000000"
     bordercolor="#666666"
     borderopacity="1"
     objecttolerance="10"
     gridtolerance="10"
     guidetolerance="10"
     inkscape:pageopacity="0"
     inkscape:pageshadow="2"
     inkscape:window-width="1190"
     inkscape:window-height="1126"
     id="namedview8460"
     showgrid="false"
     inkscape:zoom="1.4142136"
     inkscape:cx="249.14549"
     inkscape:cy="287.57129"
     inkscape:window-x="160"
     inkscape:window-y="130"
     inkscape:window-maximized="0"
     inkscape:current-layer="svg8438"
     showguides="true"
     inkscape:guide-bbox="true">
    <sodipodi:guide
       orientation="1,0"
       position="477.29708,73.539105"
       id="guide6302" />
  </sodipodi:namedview>
  <path
     style="fill:#000000"
     id="path3978"
     d="M -13.466093,0.1885736 H 514.89024 V 516.42957 H -13.466093 z"
     inkscape:connector-curvature="0" />
  <path
     sodipodi:type="arc"
     style="opacity:0.98999999;fill:#ff0000;fill-opacity:0.74970506;fill-rule:nonzero;stroke:none"
     id="path5005"
     sodipodi:cx="640"
     sodipodi:cy="124.5"
     sodipodi:rx="105"
     sodipodi:ry="118.5"
     d="m 743.4676,104.32865 a 105,118.5 0 0 1 0.002,0.0163 L 640,124.5 z"
     sodipodi:start="6.11213"
     sodipodi:end="6.1122693" />
  <g
     id="g6304"
     transform="matrix(1.167923,0,0,1.0831505,-28.182155,-15.468833)">
    <path
       sodipodi:end="12.394598"
       sodipodi:start="6.11213"
       d="m 329.34686,203.96369 c 5.61722,59.07061 -16.18993,115.22884 -48.70763,125.4329 -32.5177,10.20406 -63.43216,-29.41011 -69.04938,-88.48073 -5.61722,-59.07062 16.18993,-115.22884 48.70763,-125.4329 32.50121,-10.19888 63.40439,29.37068 69.04207,88.40401 l -58.8712,18.5528 z"
       sodipodi:ry="108.54089"
       sodipodi:rx="59.750523"
       sodipodi:cy="222.43977"
       sodipodi:cx="270.46835"
       id="path6300"
       style="opacity:0.98999999;fill:#ffffff;fill-opacity:1;fill-rule:nonzero;stroke:none"
       sodipodi:type="arc" />
    <g
       id="g6284">
      <path
         inkscape:connector-curvature="0"
         id="path6298"
         d="m 149.75147,465.59253 c -4.14378,-0.5007 -11.7069,-2.07157 -16.80694,-3.49081 -5.10003,-1.41926 -10.83757,-2.96369 -12.75009,-3.43209 -18.48733,-4.52779 -53.469786,-29.70581 -60.138783,-43.28385 -1.425889,-2.9031 -4.222182,-8.43502 -6.213983,-12.29315 -2.473941,-4.79203 -4.190774,-10.58785 -5.418168,-18.29107 -0.98819,-6.20195 -2.394621,-12.77831 -3.125402,-14.61412 -1.798407,-4.51781 -4.264869,-36.18367 -3.720411,-47.76477 0.563786,-11.99221 3.005445,-25.3738 8.106323,-44.42694 3.950057,-14.75452 11.045481,-38.15511 13.221742,-43.60509 0.589809,-1.47706 1.072382,-3.65674 1.072382,-4.84372 0,-1.18699 0.804885,-2.4697 1.788633,-2.85047 1.444652,-0.55917 1.534347,-1.17156 0.466397,-3.18431 -1.048701,-1.97647 -0.957603,-2.85978 0.44036,-4.26985 1.258005,-1.26889 1.474294,-2.54269 0.755526,-4.44955 -0.698486,-1.85306 -0.530234,-3.07089 0.549096,-3.9744 0.855891,-0.71647 1.287654,-2.33836 0.959472,-3.60417 -0.32818,-1.26583 -0.03536,-2.98372 0.6507,-3.81753 0.686065,-0.83381 0.949628,-2.66453 0.585694,-4.06825 -0.363934,-1.40373 -0.265775,-3.4808 0.218132,-4.61569 0.483908,-1.1349 0.933899,-8.37675 0.999983,-16.09301 l 0.120151,-14.02956 2.897747,-0.33829 c 2.436425,-0.28444 5.268789,2.36742 17.791192,16.65745 8.191397,9.34767 15.320407,16.72959 15.842257,16.40428 0.52185,-0.32531 3.0789,-3.73906 5.68234,-7.58609 4.54293,-6.713 4.75349,-7.43043 5.22987,-17.81967 1.34403,-29.31164 12.94053,-63.77875 28.71623,-85.350332 11.84669,-16.199088 25.5928,-26.208599 45.54576,-33.165059 12.47694,-4.349997 29.04423,-4.567545 42.88667,-0.563152 17.00436,4.919084 34.96041,15.44281 47.52306,27.852424 8.34455,8.242899 16.37932,18.361229 17.74119,22.341809 0.73476,2.14755 2.6507,4.9478 4.25768,6.22278 1.60697,1.27499 2.92176,2.82067 2.92176,3.43485 0,0.61418 1.86291,4.91639 4.13981,9.56047 2.2769,4.64407 5.18463,11.60042 6.46161,15.45855 1.27699,3.85813 2.99683,8.07471 3.82187,9.37019 0.82504,1.29546 1.86941,4.0515 2.32081,6.12452 0.45141,2.07302 1.3022,4.06925 1.89067,4.43609 0.58845,0.36684 1.0865,2.08272 1.10677,3.81308 0.0203,1.73036 0.80512,4.17072 1.74409,5.42303 0.93897,1.25232 1.39697,3.26293 1.01777,4.46803 -0.39523,1.25601 0.12062,3.09397 1.20873,4.30672 1.10952,1.23663 1.86651,3.99492 1.82192,6.63872 -0.042,2.48769 0.2558,11.09943 0.66168,19.1372 0.55957,11.08121 0.13845,20.29875 -1.74194,38.12899 -1.36395,12.93319 -2.16629,24.33923 -1.78297,25.34675 0.3833,1.00753 -0.17163,3.67804 -1.23319,5.93447 -2.56309,5.44806 -1.91428,8.40313 1.78053,8.10953 6.19201,-0.49206 19.76579,-2.68359 33.57769,-5.42122 7.96881,-1.57947 19.70469,-3.7454 26.07973,-4.81316 6.37505,-1.06775 14.98136,-2.66981 19.12514,-3.56014 33.33021,-7.16125 39.40936,-6.98945 39.40936,1.1137 0,2.94429 -0.8187,4.59586 -3.18752,6.43014 -24.91953,19.29629 -38.91188,31.84243 -64.04022,57.42123 -46.59146,47.42666 -103.99767,96.37487 -126.78857,108.10805 -4.38951,2.25978 -9.38544,5.11748 -11.10207,6.35041 -3.83739,2.7561 -21.23313,10.55243 -23.54536,10.55243 -0.92639,0 -2.92827,0.96758 -4.44862,2.15016 -2.97736,2.3159 -7.64541,3.78884 -23.04853,7.27263 -10.43088,2.3592 -29.46055,2.81321 -44.04576,1.05083 z m 106.1258,-198.08179 c 1.23748,-0.94407 3.09888,-1.73323 4.13646,-1.75369 1.03757,-0.0205 2.50748,-0.7919 3.26647,-1.71434 0.75899,-0.92243 3.48822,-2.78555 6.06497,-4.14024 10.02888,-5.27259 13.04091,-8.74038 16.02674,-18.45179 1.53053,-4.97807 2.69189,-9.84017 2.58082,-10.80471 -0.27573,-2.39415 2.09386,-8.18391 3.34945,-8.18391 0.56015,0 1.01847,-1.86528 1.01847,-4.14509 0,-2.8606 -0.89634,-5.0492 -2.89253,-7.06266 -1.59089,-1.60466 -3.65267,-4.40022 -4.58172,-6.21237 -0.92906,-1.81216 -4.57178,-6.36949 -8.09493,-10.1274 l -6.40572,-6.83259 -3.50128,3.95564 c -1.92572,2.1756 -3.50129,4.66816 -3.50129,5.53902 0,1.22701 -1.32301,1.40637 -5.87808,0.79689 -5.69178,-0.76157 -6.0316,-0.63973 -10.72167,3.84475 -2.66397,2.5472 -6.30287,5.54212 -8.08644,6.65542 -1.78358,1.11328 -4.25921,3.70541 -5.50139,5.76029 -2.76224,4.56939 -3.06972,13.88477 -0.52855,16.01201 0.95626,0.8005 1.73865,2.41219 1.73865,3.58155 0,1.16935 0.5301,2.45657 1.178,2.86045 0.64791,0.40389 0.87481,1.22919 0.50424,1.83398 -0.37059,0.6048 0.40329,2.48078 1.71974,4.16884 1.31643,1.68807 2.39352,3.72997 2.39352,4.53756 0,0.8076 1.03173,3.76176 2.29274,6.56484 1.26101,2.80305 2.3042,6.50569 2.3182,8.22806 0.0487,5.99311 6.21589,8.81954 11.10513,5.08949 z M 230.8884,245.54466 c 0,-4.55044 -2.10679,-10.30645 -5.3347,-14.57509 -2.64302,-3.49516 -3.26841,-3.82734 -4.16465,-2.212 -0.58002,1.04543 -2.37807,3.34119 -3.99565,5.1017 l -2.94108,3.20092 3.82764,3.22311 c 2.1052,1.7727 4.75571,3.2231 5.89002,3.2231 1.13431,0 2.71386,1.05222 3.51012,2.33826 1.90995,3.08478 3.2083,2.96337 3.2083,-0.3 z m 63.73688,-96.36716 c -2.61017,-8.29803 -12.97951,-25.06696 -14.53216,-23.50088 -0.31822,0.32098 0.21642,1.24909 1.18808,2.06247 0.97167,0.81339 1.76666,2.88326 1.76666,4.59972 0,3.10124 11.27876,23.01836 12.39652,21.89094 0.32153,-0.32433 -0.0471,-2.59784 -0.8191,-5.05225 z"
         style="fill:#999e9a" />
      <path
         inkscape:connector-curvature="0"
         id="path6296"
         d="M 150.33102,464.39705 C 139.40391,462.90827 117.45535,456.86748 109.183,453.07208 97.096205,447.5266 74.088965,431.37022 68.395996,424.4302 c -2.769683,-3.37639 -7.764602,-11.66302 -11.09982,-18.41474 -4.910137,-9.93996 -6.393305,-14.38931 -7.794449,-23.3826 -0.951729,-6.1087 -2.487559,-13.58924 -3.412955,-16.62341 -1.037336,-3.4012 -1.98122,-13.7127 -2.461428,-26.88999 -0.894433,-24.54392 1.095825,-41.42088 6.518802,-55.27808 0.503289,-1.28604 1.244916,-4.44269 1.64806,-7.01477 0.896861,-5.72204 2.64321,-11.70788 4.775257,-16.36782 0.882598,-1.92907 1.932623,-5.21725 2.33339,-7.30707 0.423487,-2.20829 1.434733,-3.79967 2.414523,-3.79967 1.257885,0 1.498126,-0.86213 0.946351,-3.39609 -0.406728,-1.86784 -0.236342,-3.70975 0.378637,-4.09312 0.614978,-0.38336 0.858628,-1.698 0.541444,-2.92141 -0.397771,-1.53425 0.175428,-2.46517 1.847465,-3.00044 2.782834,-0.89089 3.026613,-1.8795 0.97529,-3.95518 -1.159786,-1.17356 -0.882099,-1.89804 1.391741,-3.63097 2.506544,-1.91027 2.648007,-2.39897 1.202851,-4.15534 -1.425248,-1.73219 -1.380233,-2.18041 0.346908,-3.45426 2.275606,-1.67835 2.610924,-4.76957 0.64998,-5.99199 -0.929608,-0.5795 -0.708476,-1.29388 0.728598,-2.35378 1.294803,-0.95498 1.832335,-2.41259 1.443206,-3.9135 -0.341046,-1.31545 -0.203126,-2.39172 0.30649,-2.39172 1.861762,0 2.108205,-3.29821 0.482594,-6.4587 -1.982633,-3.8546 -1.505261,-4.70616 1.675627,-2.98907 3.675743,1.98423 4.713294,1.55169 6.78395,-2.8281 1.81217,-3.83305 1.808766,-4.35806 -0.0538,-8.29772 -1.604423,-3.39362 -2.301739,-3.94344 -3.611143,-2.84734 -1.281147,1.07246 -1.895067,0.84521 -2.916295,-1.07948 -0.711444,-1.34085 -0.963713,-2.97619 -0.560597,-3.63409 0.403115,-0.6579 0.205462,-1.83725 -0.439231,-2.62078 -1.137477,-1.38243 0.716549,-10.16427 2.145885,-10.16427 0.333328,0 7.542945,7.89163 16.021371,17.53695 8.478422,9.64532 15.876732,17.53695 16.440662,17.53695 0.56394,0 3.49984,-3.81429 6.52423,-8.4762 5.47102,-8.43323 5.49973,-8.5295 5.66701,-18.99836 0.56373,-35.27872 18.56056,-79.40029 40.75326,-99.911853 12.25256,-11.3244 32.39849,-20.336851 48.59354,-21.738733 22.40094,-1.93908 50.61509,9.616742 70.08421,28.704763 5.38002,5.274688 18.44854,21.048233 18.44854,22.267133 0,0.515 1.91994,3.4734 4.26655,6.57422 2.34659,3.10082 6.22261,9.58595 8.61336,14.41139 3.87021,7.81157 5.97567,12.94228 12.22311,29.78599 1.61237,4.34706 3.14788,10.5021 4.67461,18.73796 0.3576,1.92907 1.19629,4.19683 1.86373,5.03947 1.91935,2.42315 3.96949,21.90766 3.65224,34.71095 -0.33075,13.348 -1.47764,28.42342 -2.35286,30.9271 -0.32663,0.93437 -0.88561,7.47247 -1.24218,14.52912 -0.4381,8.67012 -1.17226,13.35877 -2.26425,14.46019 -0.88876,0.89647 -1.62305,2.24998 -1.63176,3.00783 -0.009,0.75785 -0.3438,2.61356 -0.74465,4.12381 l -0.72882,2.74588 9.14812,-0.84982 c 11.42942,-1.06176 10.85093,-0.9708 28.27325,-4.4456 7.9688,-1.58935 19.70468,-3.75068 26.07972,-4.80298 11.10253,-1.83266 20.86325,-3.76551 35.93207,-7.11542 10.72529,-2.38431 17.67726,-3.21868 20.61712,-2.47444 2.18642,0.5535 2.68079,1.46216 2.68079,4.9273 0,4.01232 -0.74463,4.85368 -13.3876,15.12655 -7.36318,5.98286 -17.40265,14.478 -22.30996,18.87809 -4.90731,4.40009 -11.55023,10.10461 -14.76207,12.67669 -3.21183,2.57209 -5.8471,5.08049 -5.85613,5.57423 -0.0284,1.54616 -34.57243,35.98012 -52.56151,52.39393 -19.83307,18.09633 -42.91275,37.52376 -58.72847,49.43498 -15.72575,11.84345 -18.22077,13.4864 -25.22635,16.61142 -3.44385,1.53621 -8.17427,4.3196 -10.51204,6.18531 -6.67214,5.32484 -36.09402,16.82178 -52.35313,20.4576 -9.2454,2.06742 -28.58048,2.38222 -41.14802,0.66995 z m 73.60279,-109.09559 c 0,-0.24277 -0.78239,-1.09636 -1.73865,-1.89685 -1.42396,-1.19201 -1.73865,-1.11212 -1.73865,0.44142 0,1.04326 0.78239,1.89684 1.73865,1.89684 0.95626,0 1.73865,-0.19863 1.73865,-0.44141 z m 9.11785,-10.20208 c -0.87104,-0.5566 -1.9749,-1.02006 -2.45303,-1.02991 -1.36365,-0.0281 -1.01733,2.87256 0.52921,4.43248 1.09199,1.10144 1.62968,0.99403 2.45303,-0.48996 0.71723,-1.2927 0.54797,-2.22429 -0.52921,-2.91261 z m -9.11785,-4.5552 c 0,-2.33826 -0.57955,-3.50739 -1.73865,-3.50739 -1.1591,0 -1.73865,1.16913 -1.73865,3.50739 0,2.33826 0.57955,3.50739 1.73865,3.50739 1.1591,0 1.73865,-1.16913 1.73865,-3.50739 z m 89.5404,-16.15296 c 4.57881,-4.66152 7.82392,-8.96562 7.82392,-10.37711 0,-1.32653 0.78239,-3.06681 1.73865,-3.8673 0.95625,-0.80049 1.73865,-2.63334 1.73865,-4.07298 0,-2.16163 -0.50473,-2.52024 -2.89775,-2.05882 -1.75116,0.33765 -2.89775,0.0192 -2.89775,-0.80478 0,-3.2079 -3.60185,1.07831 -7.79399,9.27484 -2.46655,4.82266 -5.46264,10.38972 -6.65795,12.37124 -2.0141,3.33888 -1.89378,7.50651 0.2166,7.50205 0.49814,-10e-4 4.42647,-3.58626 8.72962,-7.96714 z m -19.55188,3.68625 c 4.06493,-0.67729 5.04564,-1.60746 10.15585,-9.63246 6.15451,-9.66495 10.15096,-19.19578 10.99619,-26.22392 0.4916,-4.08781 0.33073,-4.4141 -1.83463,-3.72089 -1.95334,0.62534 -2.3735,0.25016 -2.3735,-2.11935 0,-1.58356 -1.51559,-6.48551 -3.36799,-10.89324 -6.04307,-14.3794 -8.51995,-24.31875 -7.75048,-31.10157 0.38315,-3.37739 0.74363,-7.19294 0.80107,-8.47898 0.27781,-6.22003 -5.84382,-21.4129 -11.07026,-27.47455 -1.38605,-1.60756 -3.26959,-4.04006 -4.18564,-5.40556 -9.08349,-13.54032 -12.55598,-18.08285 -17.02065,-22.26548 -4.65048,-4.3567 -5.64766,-4.80062 -9.41196,-4.18994 -3.82724,0.62089 -4.06564,0.50578 -2.6196,-1.26494 1.41024,-1.72688 1.25986,-1.94798 -1.32486,-1.94798 -3.24532,0 -5.23827,3.22642 -2.61914,4.24018 2.46106,0.95257 -0.18969,4.69549 -4.56926,6.45192 -1.93019,0.77409 -5.07202,2.49933 -6.98187,3.83387 -6.18708,4.3233 -11.10113,6.60348 -12.43684,5.77083 -0.71824,-0.44775 -5.5172,-0.71343 -10.66434,-0.59042 -13.9509,0.33342 -26.32444,6.87057 -17.18237,9.07775 1.75314,0.42327 6.46677,2.07535 10.47473,3.67129 7.28478,2.90075 10.67883,6.56505 10.67883,11.52912 0,1.10658 0.86613,2.97731 1.92473,4.15718 3.24536,3.61711 1.01834,3.51493 -3.76874,-0.17294 -15.20608,-11.71445 -13.83978,-11.14119 -26.55392,-11.14119 -10.22347,0 -12.20638,0.34665 -16.80693,2.93816 -4.6921,2.64309 -5.25065,3.41314 -5.56151,7.66752 -0.19006,2.60114 0.22353,6.01393 0.9191,7.58401 2.26177,5.10539 4.50876,8.6331 6.37621,10.01043 1.00668,0.74246 1.69727,1.80365 1.53465,2.35817 -0.69633,2.37436 2.5896,8.47858 7.32474,13.60707 5.33479,5.77793 6.5054,6.27337 10.28632,4.35353 1.26636,-0.64302 3.33858,-1.69524 4.60494,-2.33826 3.28033,-1.66566 5.81122,-1.44538 5.81122,0.50578 0,1.80427 1.48592,2.4329 8.69324,3.67773 8.03892,1.38846 9.04568,2.37537 8.39185,8.22636 -0.66187,5.92294 0.62642,7.41998 3.85173,4.47584 2.14294,-1.95612 2.24516,-1.95221 2.24516,0.0857 0,1.17432 -0.80202,3.02901 -1.78227,4.12155 -2.9996,3.3432 -0.0712,7.92528 6.0604,9.48258 2.76874,0.70321 5.26905,1.66205 5.55623,2.13075 0.28719,0.4687 4.38069,0.60241 9.09669,0.29714 5.6476,-0.36558 8.84908,-0.10698 9.37888,0.75771 0.44239,0.72202 2.07757,1.31276 3.63371,1.31276 3.10216,0 3.51608,-1.86879 2.91313,-13.15271 -0.30985,-5.79866 -0.0276,-6.20206 3.17993,-4.54453 1.07372,0.55486 4.21336,1.3574 6.97696,1.78341 l 5.02473,0.77457 -0.80323,-3.68878 -0.80325,-3.68877 5.2383,0.79232 c 3.26973,0.49457 5.52283,0.32796 5.99544,-0.44335 2.57906,-4.20912 -5.3984,-9.35425 -9.74375,-6.28431 -1.58194,1.11762 -3.01667,1.3296 -4.25769,0.62908 -1.56417,-0.88293 -1.18903,-1.48217 2.28289,-3.64649 7.50082,-4.67588 14.64425,-3.04186 14.64425,3.3498 0,1.85949 1.19282,4.29073 2.89775,5.90629 1.59376,1.51022 2.89775,3.70636 2.89775,4.88031 0,2.72181 -0.6698,2.68535 -3.74432,-0.20379 -3.35965,-3.15707 -5.33426,-2.94128 -6.2357,0.68142 -0.55295,2.22218 -1.32377,2.8687 -2.91867,2.44801 -1.19202,-0.31441 -2.49544,-0.0361 -2.89649,0.61843 -1.16767,1.90568 2.15059,3.28636 6.13281,2.5518 2.91475,-0.53766 3.92624,-0.1884 4.9293,1.70206 1.54288,2.90784 0.13282,4.03672 -3.79891,3.04137 -1.56371,-0.39586 -3.97068,-0.11107 -5.34884,0.63289 -2.14912,1.16013 -2.9093,0.91343 -5.34117,-1.73331 -3.15136,-3.4298 -7.75053,-3.62778 -8.36776,-0.3602 -0.40449,2.14131 8.45416,7.29115 10.42678,6.06145 0.58704,-0.36595 2.33373,-0.34477 3.88156,0.0471 4.8867,1.23709 4.82417,8.20514 -0.11838,13.19047 -3.08847,3.11519 -4.14544,23.3286 -1.31478,25.14376 1.69623,1.0877 3.54832,1.11707 9.36165,0.14847 z M 190.37089,316.29678 c -1.64914,-6.60603 -4.94878,-11.46736 -9.33712,-13.7563 -2.14845,-1.12062 -3.43681,-2.81552 -3.67569,-4.83553 -0.20391,-1.72436 -1.77959,-4.16864 -3.53633,-5.48574 -6.45127,-4.83676 -4.98729,0.66191 2.47857,9.30948 2.292,2.65478 6.51445,8.78465 9.38322,13.62193 5.59467,9.43367 6.83178,9.73617 4.68735,1.14616 z m -47.16038,-16.26512 -2.03074,-4.49898 -0.43207,3.90904 c -0.28932,2.61753 0.26503,4.68809 1.67788,6.26703 2.99379,3.34576 3.43084,0.18479 0.78493,-5.67709 z m -10.41955,-70.514 c 3.27926,-10.00787 3.98877,-16.91868 1.65647,-16.13452 -2.30598,0.77532 -7.73829,25.44674 -5.60302,25.44674 0.49238,0 2.26833,-4.1905 3.94655,-9.31222 z m 49.86884,-27.42497 c -0.83737,-2.20102 -4.03717,-3.37364 -5.41461,-1.98428 -1.6561,1.67044 0.10792,3.64758 3.25443,3.64758 1.93896,0 2.59948,-0.50859 2.16018,-1.6633 z m 116.66246,-43.55407 c -4.17689,-14.28407 -8.30884,-22.98328 -16.45421,-34.64192 -9.30693,-13.32122 -21.72237,-25.362404 -26.1507,-25.362404 -0.52001,0 -2.56373,2.499014 -4.54162,5.553364 -2.73701,4.22665 -3.46266,6.46113 -3.03738,9.35304 0.30731,2.08982 0.72639,3.79967 0.93129,3.79967 2.46699,0 6.58341,-2.97023 8.03184,-5.79542 2.24857,-4.38587 4.71842,-4.50075 8.94534,-0.41606 3.6102,3.48872 4.14291,5.93963 1.5123,6.95783 -1.12713,0.43626 -1.73865,2.24951 -1.73865,5.15539 0,2.46534 -0.52159,4.80759 -1.1591,5.205 -1.82015,1.13465 -1.3607,6.72361 0.96708,11.76398 1.1694,2.53212 2.23392,6.65153 2.3656,9.15428 0.1317,2.50274 0.76859,5.54774 1.41534,6.76666 0.64674,1.21892 0.81098,3.37596 0.36494,4.79342 -0.7175,2.28025 -0.59307,2.39484 1.07984,0.99442 1.13123,-0.94695 3.05384,-1.28837 4.78594,-0.84988 2.05135,0.51932 3.57594,0.0463 5.231,-1.62313 1.28472,-1.29584 2.33585,-2.81776 2.33585,-3.38205 0,-0.56428 0.76301,-1.6647 1.69559,-2.44536 1.37899,-1.15437 2.23773,-0.82933 4.5993,1.74089 1.59704,1.73816 3.20389,4.28536 3.57077,5.66047 0.36688,1.37511 2.33956,6.12853 4.38371,10.56316 l 3.71666,8.06296 0.36644,-4.37657 c 0.20961,-2.50345 -1.16729,-9.62162 -3.21717,-16.63174 z M 72.683068,189.7455 c -0.854889,-1.39521 0.230159,-3.52646 1.79537,-3.52646 1.410397,0 1.419545,3.16439 0.01168,4.04202 -0.593454,0.36996 -1.406628,0.13794 -1.807055,-0.51556 z"
         style="fill:#7c8682" />
      <path
         inkscape:connector-curvature="0"
         id="path6294"
         d="m 148.59237,463.83225 c -13.16211,-2.07424 -26.74445,-5.67231 -35.93207,-9.51871 -14.515045,-6.07672 -36.382747,-20.7957 -43.693296,-29.40964 -7.31524,-8.61946 -17.268065,-28.88856 -18.265295,-37.19758 -0.450659,-3.75493 -2.13557,-12.35129 -3.744248,-19.10302 -2.56356,-10.75943 -2.945786,-15.0921 -3.094211,-35.07389 -0.14881,-20.03363 0.165067,-24.35745 2.588538,-35.65847 1.516835,-7.07323 3.342416,-13.38653 4.056847,-14.02956 0.71443,-0.64302 1.392466,-3.14467 1.506746,-5.55923 0.114276,-2.41456 1.027071,-6.04661 2.028423,-8.07125 1.001353,-2.02463 1.820642,-4.93209 1.820642,-6.46104 0,-1.52894 0.779396,-3.08157 1.731991,-3.45027 0.952595,-0.36871 1.476516,-1.08733 1.164268,-1.59693 -1.045037,-1.70554 0.851617,-8.18148 2.396168,-8.18148 2.376816,0 3.176292,-2.25175 1.515932,-4.26968 -1.258529,-1.52955 -1.151824,-2.08941 0.651756,-3.41964 1.81451,-1.33828 1.915245,-1.88404 0.634957,-3.44005 -1.298698,-1.57837 -1.154035,-1.94639 0.987106,-2.51116 2.781538,-0.73367 3.07144,-1.82064 1.350587,-5.0639 -0.92514,-1.7436 -0.691878,-2.33219 1.159099,-2.92475 2.580182,-0.826 3.061151,-4.04289 0.926406,-6.19611 -1.081825,-1.09118 -0.944953,-1.40296 0.615928,-1.40296 2.648779,0 3.588523,-2.72755 1.982564,-5.75429 -1.045081,-1.96964 -0.952261,-2.42961 0.490294,-2.42961 0.978686,0 1.77943,-0.55296 1.77943,-1.22879 0,-0.67583 1.825581,-1.99816 4.056847,-2.93852 3.297561,-1.38973 4.056847,-2.33645 4.056847,-5.05828 0,-1.84169 0.737056,-3.96553 1.6379,-4.71963 0.900846,-0.75411 1.996486,-4.00088 2.434754,-7.21505 0.696441,-5.10756 0.414947,-6.42604 -2.233897,-10.46335 -3.214311,-4.8992 -4.966863,-5.72851 -6.055993,-2.86572 -0.36695,0.96454 -1.116601,1.7537 -1.665892,1.7537 -0.549292,0 -0.691024,-0.80876 -0.314962,-1.79725 0.376061,-0.98847 -0.195881,-2.77763 -1.270985,-3.97588 -1.282936,-1.42989 -1.530427,-2.44315 -0.720126,-2.94828 0.679034,-0.42329 1.234606,-2.03733 1.234606,-3.58676 0,-4.45625 2.198114,-2.67254 13.409432,10.88148 14.280997,17.26511 19.098257,22.47103 20.793417,22.47103 0.79906,0 2.89389,-2.87285 4.65518,-6.38411 1.76129,-3.51125 4.43145,-7.54877 5.93369,-8.97226 2.9093,-2.7568 3.56665,-6.19839 1.43743,-7.5257 -2.6631,-1.66013 2.18057,-32.84173 7.78663,-50.12723 4.64096,-14.30976 13.37088,-31.818425 21.12306,-42.364271 11.68916,-15.90159 24.7925,-25.10411 45.7894,-32.158033 18.1499,-6.097476 46.24355,-1.00694 67.0384,12.147283 4.42033,2.796174 17.27828,13.915137 20.53629,17.758854 1.03045,1.215694 4.11137,4.635399 6.84651,7.599345 2.73513,2.963946 6.3613,7.756481 8.05816,10.650082 1.69687,2.89359 4.51646,7.10246 6.26576,9.35303 3.69989,4.76014 10.17129,17.68583 13.80957,27.58267 7.50815,20.4236 8.36683,23.26789 9.82446,32.54242 0.29582,1.88227 1.2422,4.51281 2.10305,5.84565 0.86087,1.33286 1.47875,4.26474 1.37308,6.51532 -0.10571,2.25057 0.20396,4.63715 0.68806,5.3035 2.03954,2.80737 2.30045,24.06404 0.47107,38.37813 -2.2149,17.33057 -3.23714,29.86393 -3.00301,36.81916 0.11556,3.43434 -0.42097,5.5288 -1.64834,6.43405 -1.00085,0.73817 -2.13687,3.31331 -2.52448,5.72254 l -0.70474,4.3804 5.07783,-0.0601 c 7.27382,-0.0861 18.47125,-1.72739 31.15756,-4.56728 6.05629,-1.35572 14.141,-2.9484 17.96603,-3.53929 16.77437,-2.59129 22.51432,-3.58225 30.13658,-5.20291 4.46253,-0.94882 13.15159,-2.79723 19.30902,-4.10755 12.31083,-2.61979 18.3617,-2.2376 18.3617,1.15976 0,1.15308 0.28639,2.84928 0.63641,3.76932 0.42263,1.11091 -3.76296,5.21563 -12.46031,12.21958 -7.2032,5.80071 -17.26949,14.27627 -22.36953,18.83458 -15.40989,13.77307 -18.75276,16.56732 -19.83136,16.57672 -0.56783,0.005 -2.22158,2.10939 -3.675,4.67652 -1.45342,2.56714 -3.34942,4.66752 -4.21332,4.66752 -0.8639,0 -2.50081,1.4468 -3.63758,3.2151 -4.05428,6.30663 -50.84189,51.08159 -66.88714,64.00987 -3.1922,2.57208 -9.25524,7.59718 -13.4734,11.16687 -18.50772,15.66246 -39.60859,30.73451 -46.2684,33.04886 -2.58313,0.89766 -6.72848,3.25532 -9.21192,5.23927 -4.13831,3.30597 -18.81141,10.43841 -25.79187,12.53717 -1.59376,0.47918 -3.9266,1.58953 -5.18408,2.46745 -1.25747,0.87791 -3.26503,1.59622 -4.46122,1.59622 -1.19619,0 -3.8185,0.71969 -5.82736,1.59931 -12.03421,5.26942 -35.11671,6.77669 -55.23238,3.60663 z m 74.8859,-108.76956 c -0.38696,-1.01712 -0.70356,-2.06934 -0.70356,-2.33826 0,-0.26892 -0.78239,-0.48895 -1.73865,-0.48895 -2.09587,0 -2.24078,1.36413 -0.34773,3.27357 1.9807,1.99784 3.62004,1.73557 2.78994,-0.44636 z m 11.62057,-7.26637 c 0.38822,-3.57685 0.22499,-3.74475 -3.64065,-3.74475 -4.76733,0 -4.86927,0.33395 -1.43911,4.71426 3.22732,4.12129 4.55472,3.86795 5.07976,-0.96951 z m -9.42638,-5.90615 c 0,-4.38777 -1.70352,-6.41136 -4.48948,-5.33302 -3.60757,1.39632 -1.24339,10.3297 2.53926,9.59493 1.36072,-0.26433 1.95022,-1.55258 1.95022,-4.26191 z m 86.46161,-10.69902 c 0.65295,0 0.90322,-0.46344 0.55615,-1.02987 -1.07219,-1.74986 12.06184,-16.66317 15.90226,-18.05657 1.78947,-0.64925 1.87651,-1.1222 0.62614,-3.40197 -0.79874,-1.45633 -1.329,-3.26585 -1.17834,-4.02114 0.36576,-1.83366 -1.5253,-2.89681 -6.30939,-3.5471 -3.12608,-0.42492 -4.4341,0.0362 -6.21441,2.19108 -1.24021,1.5011 -2.27502,3.51844 -2.29959,4.48297 -0.0246,0.96453 -0.9547,3.12973 -2.06697,4.81157 -1.11229,1.68183 -3.54431,5.36258 -5.40451,8.17944 -1.91223,2.89562 -3.59684,4.47205 -3.87605,3.62715 -0.27163,-0.82192 0.45567,-2.92434 1.6162,-4.67204 6.12886,-9.22977 10.61998,-19.91821 11.56917,-27.53358 0.51002,-4.09176 0.35245,-4.41477 -1.81499,-3.72089 -1.96651,0.62954 -2.3735,0.25085 -2.3735,-2.20844 0,-1.63255 -1.29633,-5.92484 -2.88071,-9.53845 -1.5844,-3.61359 -4.14536,-10.60809 -5.69102,-15.54332 -2.47183,-7.89245 -2.69293,-10.02695 -1.83578,-17.72262 0.76197,-6.84104 0.57679,-10.02448 -0.849,-14.59509 -2.71212,-8.69417 -6.34613,-16.84702 -8.20161,-18.40026 -0.90249,-0.75548 -3.40257,-4.02694 -5.55575,-7.26992 -10.94715,-16.48792 -20.11117,-27.52523 -22.85355,-27.52523 -0.66647,0 -2.06944,-0.78292 -3.11773,-1.73981 -1.04828,-0.95689 -3.43654,-2.02814 -5.30722,-2.38054 -3.00824,-0.56672 -3.6356,-0.15751 -5.42966,3.54155 -1.11563,2.30026 -2.02842,4.94984 -2.02842,5.88793 0,0.93811 -0.65199,1.78004 -1.44887,1.87097 -5.68806,0.64902 -16.31377,-1.897 -18.37571,-4.403 -1.94983,-2.36972 -4.5165,-1.95471 -4.5165,0.73029 0,1.28604 -0.48446,2.33826 -1.07657,2.33826 -0.59212,0 -2.99309,1.82315 -5.33549,4.05144 -2.34241,2.22829 -5.37871,4.37517 -6.74735,4.77082 -1.36863,0.39567 -4.69952,1.72918 -7.40196,2.96335 -2.70246,1.23417 -5.37048,2.24395 -5.92896,2.24395 -1.50716,0 -7.12354,4.67576 -7.12354,5.9305 0,0.59635 2.21677,1.10737 4.92617,1.13559 2.70939,0.0282 6.81163,0.73094 9.11608,1.56159 5.72006,2.06181 17.25342,11.32857 17.25342,13.86267 0,1.13375 -0.1666,2.06138 -0.3702,2.06138 -0.20362,0 -3.14409,-2.08751 -6.5344,-4.6389 -8.13653,-6.1232 -12.59878,-7.48505 -21.94709,-6.69809 -10.62604,0.89452 -15.16267,2.48549 -20.68656,7.25465 -5.44645,4.70231 -7.32233,10.11231 -4.58448,13.22161 2.22948,2.53196 5.57865,10.43385 6.11283,14.42234 0.23442,1.75039 -0.32098,3.7183 -1.27476,4.51671 -2.11008,1.76637 -1.16561,3.48818 1.91338,3.48818 3.25785,0 11.28278,4.94988 16.02375,9.88364 4.60373,4.79095 8.65459,5.34915 13.11823,1.80766 4.23413,-3.35939 7.54545,-2.97389 9.87974,1.15017 1.4023,2.47749 2.5788,3.29642 4.05969,2.82587 3.12313,-0.99236 7.76717,2.5882 7.76717,5.98851 0,3.50435 1.53223,3.68864 4.63639,0.55762 2.98144,-3.00724 3.01785,-0.6814 0.0489,3.12561 -1.57883,2.02452 -1.95723,3.50347 -1.2437,4.86093 0.56404,1.07308 1.30804,2.87175 1.65332,3.99704 0.35661,1.16222 1.77001,2.04909 3.27214,2.05318 1.45439,0.004 4.03011,0.73648 5.72381,1.62782 2.10791,1.10931 5.40079,1.43266 10.4372,1.02489 6.3532,-0.51438 8.06911,-0.19508 12.56836,2.33877 l 5.21065,2.93449 -0.10339,-11.02854 c -0.0964,-10.28952 0.67318,-13.78769 2.40993,-10.95326 0.40042,0.65351 2.15773,1.1882 3.90512,1.1882 1.74739,0 3.75753,0.58549 4.46699,1.30109 1.83394,1.84981 3.81011,0.22962 3.81011,-3.12379 0,-2.47276 0.53255,-2.85382 3.98844,-2.85382 2.19364,0 4.28171,0.47863 4.64016,1.06363 1.23576,2.01681 -0.76977,4.78202 -3.46825,4.78202 -3.96499,0 -4.49909,1.95533 -1.14044,4.17506 3.56735,2.35763 3.70691,3.60406 0.51787,4.62498 -1.63747,0.52422 -3.25008,-0.0159 -5.00087,-1.67491 -3.41372,-3.23477 -8.8097,-3.31907 -8.8097,-0.13764 0,2.70126 8.05169,7.14526 11.36326,6.27176 1.15467,-0.30457 3.30932,0.43445 4.78811,1.64226 3.12249,2.55031 2.67337,5.40849 -1.6675,10.61197 -1.78891,2.14439 -3.0047,5.49577 -3.49676,9.63901 -0.41489,3.49339 -0.94382,7.66689 -1.17542,9.27445 -0.51994,3.60894 1.44344,8.97287 3.58821,9.80302 0.87817,0.3399 3.04719,-0.14516 4.82006,-1.07791 1.77285,-0.93277 4.91855,-1.69917 6.99044,-1.70313 3.27308,-0.006 3.76708,0.38616 3.76708,2.99248 0,1.64983 0.55374,4.04334 1.23055,5.31891 1.18707,2.23725 1.37286,2.1932 5.25629,-1.24599 2.21414,-1.96086 4.55994,-3.56521 5.21288,-3.56521 z m -22.13162,-47.95223 c -1.52294,-1.0084 -1.52776,-1.28798 -0.0388,-2.25349 1.09224,-0.70827 2.23154,-0.65711 3.18753,0.14316 3.24303,2.71477 0.52026,4.53965 -3.14865,2.11033 z m 4.94263,-9.78534 c -3.64187,-2.40093 -4.31677,-4.24189 -1.85812,-5.06853 1.91013,-0.64222 6.48997,3.69686 6.02819,5.71132 -0.36033,1.57191 -0.94812,1.4813 -4.17007,-0.64279 z m -5.36614,-11.92256 c -1.82669,-1.62022 -3.01656,-3.25318 -2.64415,-3.62882 1.08046,-1.0898 6.54496,3.01949 6.54496,4.92179 0,2.1926 0.0462,2.20794 -3.90081,-1.29297 z m -98.01616,57.99008 c -2.67833,-9.74875 -4.47874,-12.93641 -9.36427,-16.5797 -1.90826,-1.42305 -3.46956,-3.56147 -3.46956,-4.75206 0,-2.23201 -9.04602,-12.04359 -10.11229,-10.96808 -1.3017,1.31295 1.03815,6.57428 5.07279,11.40652 6.60191,7.90706 15.322,21.85158 16.82146,26.89962 2.49593,8.40277 3.47486,2.813 1.05187,-6.0063 z m -45.8212,-13.6938 c -0.43115,-1.73269 -1.64217,-5.02087 -2.69115,-7.30706 l -1.90725,-4.15669 -0.40468,5.0883 c -0.287,3.60858 0.17422,5.73353 1.58604,7.30706 2.83939,3.16465 4.33486,2.75693 3.41704,-0.93161 z m -13.33066,-73.74214 c 2.59282,-6.90979 4.74135,-27.6856 2.62739,-25.40635 -1.12565,1.21367 -5.55406,19.53741 -6.89511,28.53044 -1.0458,7.01297 1.03564,5.48931 4.26772,-3.12409 z M 99.695141,203.75599 c 2.206479,0 1.585339,-3.71453 -1.103973,-6.60194 -1.93457,-2.07708 -2.951548,-2.40515 -4.636396,-1.49563 -1.447185,0.78121 -2.898845,0.76527 -4.40611,-0.0484 -3.169825,-1.71113 -4.075355,0.40105 -1.723856,4.02095 1.05607,1.62572 1.508421,2.95585 1.005224,2.95585 -0.503197,0 0.312875,1.31822 1.813493,2.92939 l 2.728397,2.92937 2.474526,-2.34481 c 1.36099,-1.28962 3.092902,-2.34478 3.848695,-2.34478 z m 79.764469,0.53602 c 3.26283,0.6174 3.90573,0.39174 3.90573,-1.37095 0,-1.1605 -1.0985,-2.80197 -2.44111,-3.64769 -2.11962,-1.33518 -2.77821,-1.21826 -5.00087,0.88789 -1.40788,1.33409 -3.04775,2.4431 -3.64416,2.46449 -1.29913,0.0466 -6.30034,4.12758 -6.30034,5.14108 0,0.39225 2.15438,-0.39539 4.7875,-1.75034 3.43367,-1.76689 5.89199,-2.25454 8.69325,-1.72448 z m 119.84786,-46.20054 c -4.16598,-15.13912 -6.81805,-20.79719 -15.65334,-33.39562 -13.587,-19.37398 -21.29409,-27.330684 -26.47332,-27.330684 -1.00754,0 -3.11,1.194763 -4.67214,2.655034 -3.6867,3.44629 -12.08099,19.56851 -11.5024,22.09171 0.46101,2.01042 9.31004,6.81976 12.54813,6.81976 3.59671,0 6.22411,2.43326 6.97255,6.45734 0.41846,2.24986 1.24451,4.39218 1.83567,4.7607 0.59117,0.36852 0.74327,1.72382 0.338,3.01177 -0.49333,1.56777 0.0657,3.09595 1.69149,4.62368 2.79909,2.6303 3.14352,5.98241 0.81497,7.93164 -3.27489,2.74145 -2.99776,6.01263 0.87003,10.26964 3.59106,3.95244 3.90345,4.06015 8.3225,2.86971 2.52527,-0.68028 5.89539,-1.51895 7.48915,-1.86369 1.97407,-0.42701 3.58326,-2.13893 5.04833,-5.37059 1.18281,-2.60909 2.7476,-4.5446 3.4773,-4.30114 0.72968,0.24347 3.67389,5.34616 6.54266,11.33933 5.04515,10.53988 5.22764,10.75825 5.57328,6.66923 0.19654,-2.32509 -1.25375,-10.08212 -3.22286,-17.23782 z"
         style="fill:#81837d" />
      <path
         inkscape:connector-curvature="0"
         id="path6292"
         d="m 150.91057,463.96165 c -14.20253,-1.94188 -31.39981,-6.71493 -42.38202,-11.76299 -19.926858,-9.15955 -40.904135,-26.19245 -46.759317,-37.96713 -1.767447,-3.55431 -4.666972,-9.30088 -6.443389,-12.77016 -1.99756,-3.90116 -3.811477,-10.146 -4.754306,-16.36782 -0.838453,-5.53302 -2.337226,-12.69058 -3.330608,-15.90568 -4.225073,-13.67458 -4.611262,-53.61655 -0.677116,-70.03163 1.290321,-5.38382 2.346038,-10.59998 2.346038,-11.59146 0,-0.99148 0.651993,-2.4979 1.448874,-3.3476 0.796881,-0.84971 1.542375,-3.52047 1.656655,-5.93503 0.114276,-2.41456 1.027071,-6.04661 2.028423,-8.07125 1.001353,-2.02463 1.820642,-4.93209 1.820642,-6.46104 0,-1.52894 0.779396,-3.08157 1.731991,-3.45027 0.952595,-0.36871 1.476516,-1.08733 1.164268,-1.59693 -1.045037,-1.70554 0.851617,-8.18148 2.396168,-8.18148 2.376816,0 3.176292,-2.25175 1.515932,-4.26968 -1.251798,-1.52138 -1.180446,-2.0683 0.424229,-3.25182 1.23369,-0.90991 1.691497,-2.33943 1.269935,-3.96544 -0.490518,-1.89198 -0.142627,-2.54262 1.35952,-2.54262 1.630459,0 1.883267,-0.68313 1.314441,-3.55188 -0.519482,-2.61989 -0.224095,-3.73775 1.125737,-4.26021 1.298999,-0.50278 1.643983,-1.64655 1.18889,-3.94171 -0.448531,-2.26206 -0.108746,-3.43945 1.131093,-3.91933 1.019923,-0.39477 1.638703,-1.80446 1.457688,-3.32087 -0.462671,-3.87588 1.940935,-7.48273 5.918523,-8.88133 2.821617,-0.99213 3.501765,-1.89652 3.501765,-4.65634 0,-1.88377 0.737056,-4.04204 1.6379,-4.79614 0.900846,-0.75411 1.996486,-4.00088 2.434754,-7.21505 0.696441,-5.10756 0.414947,-6.42604 -2.233897,-10.46335 -3.214311,-4.8992 -4.966863,-5.72851 -6.055993,-2.86572 -0.36695,0.96454 -1.116601,1.7537 -1.665892,1.7537 -0.549292,0 -0.69593,-0.79586 -0.325865,-1.76858 0.370066,-0.97273 0.091,-2.47574 -0.620136,-3.34002 -1.557345,-1.89272 -0.397229,-8.92812 1.468295,-8.90434 0.717193,0.009 5.998338,5.65102 11.735878,12.5375 14.56707,17.4841 19.2181,22.52754 20.72163,22.46987 0.71569,-0.0275 4.23195,-4.62329 7.8139,-10.21298 5.78696,-9.03062 6.34597,-10.42551 5.01679,-12.51824 -2.84654,-4.48174 1.10201,-30.33005 7.77144,-50.87406 C 139.2556,96.367375 156.00247,73.071803 175.87759,62.642145 191.334,54.531246 201.097,51.7691 214.30914,51.7691 c 14.09464,0 24.66773,2.714419 39.36197,10.105365 12.55619,6.315555 22.39517,14.58036 35.37584,29.71596 12.56905,14.655635 23.43944,32.904695 29.20715,49.032545 13.87012,38.78404 16.78583,61.98541 12.56206,99.96061 -1.21583,10.93136 -1.97275,21.84278 -1.68203,24.24759 0.39517,3.26883 0.0613,4.55325 -1.32293,5.08901 -1.87781,0.72681 -4.89755,9.51021 -3.68879,10.72942 1.07468,1.08398 24.66975,-1.65828 37.16464,-4.31935 6.37504,-1.35771 14.72055,-2.9666 18.54558,-3.57529 12.28578,-1.95513 38.08148,-6.83892 52.04755,-9.85394 11.02031,-2.3791 14.24251,-1.59149 14.84675,3.62898 0.44924,3.88139 0.0643,4.37841 -8.27976,10.69101 -7.61639,5.76208 -32.09157,26.52708 -40.68597,34.5184 -1.61435,1.50108 -4.02039,3.31504 -5.34675,4.03103 -1.32634,0.71599 -3.07069,2.90691 -3.87634,4.86872 -0.85822,2.08986 -2.60647,3.85597 -4.22177,4.2649 -1.63329,0.41347 -3.53799,2.35806 -4.67321,4.77106 -1.05393,2.24022 -3.13763,4.63443 -4.63044,5.32049 -1.49281,0.68606 -2.7142,1.70048 -2.7142,2.25426 0,1.16028 -8.66881,9.86557 -20.74395,20.83126 -11.03992,10.02558 -16.92106,15.48958 -25.80338,23.9732 -4.04293,3.86145 -9.35765,8.59642 -11.81049,10.52217 -2.45284,1.92574 -9.23357,7.48257 -15.06829,12.34849 -17.07485,14.23975 -34.3322,26.57536 -43.19182,30.87366 -4.53319,2.1993 -9.8766,5.38592 -11.87425,7.08138 -1.99764,1.69545 -6.11259,4.03729 -9.14432,5.20407 -3.03173,1.16678 -8.9026,3.53195 -13.04638,5.25594 -26.44934,11.00401 -46.20382,13.97163 -70.70504,10.62161 z m 73.02324,-108.84003 c 0,-1.86671 -3.08045,-3.67613 -4.25004,-2.49643 -0.37,0.37322 -0.36388,1.49043 0.0137,2.48269 0.88892,2.33653 4.23642,2.34737 4.23642,0.0138 z m 31.67943,-4.88266 c 1.3827,-1.73329 6.05928,-6.69094 10.39241,-11.017 l 7.87842,-7.86556 4.16705,1.75618 c 3.92307,1.65333 4.54766,1.58712 10.66717,-1.13087 11.02101,-4.89499 11.71606,-4.96201 11.71606,-1.12948 0,1.82931 0.79887,4.47645 1.77527,5.88253 1.55536,2.2398 2.16562,2.3898 4.92617,1.21085 1.733,-0.74012 4.74051,-2.8257 6.68338,-4.63463 1.94286,-1.80893 4.02924,-3.29845 4.6364,-3.31004 1.52772,-0.0291 8.1337,-8.22559 9.09713,-11.28733 0.43438,-1.3805 1.54931,-3.14578 2.47758,-3.92286 2.05367,-1.71913 1.10221,-13.14398 -1.42179,-17.07276 -2.10956,-3.28366 -7.51594,-2.88248 -11.58861,0.85991 -2.73104,2.50959 -2.95816,2.55758 -2.18678,0.46217 0.47344,-1.28604 1.11281,-4.57422 1.42085,-7.30706 0.49869,-4.42436 0.2977,-4.9688 -1.83427,-4.9688 -1.6372,0 -2.39434,-0.75415 -2.39434,-2.38484 0,-1.31166 -1.07481,-4.50986 -2.38847,-7.10712 -1.31365,-2.59725 -3.1174,-8.90421 -4.00833,-14.01546 -0.89095,-5.11126 -1.95597,-9.84168 -2.36675,-10.51207 -0.41076,-0.6704 -0.89641,-5.25923 -1.0792,-10.19741 -0.43588,-11.77508 -5.15622,-25.56562 -11.07684,-32.36111 -1.12047,-1.28604 -5.57611,-7.59934 -9.90141,-14.02956 -8.43163,-12.53487 -18.65389,-23.5432 -22.82666,-24.58195 -4.9882,-1.24174 -9.52568,-1.15212 -9.27947,0.1833 0.13407,0.72721 -0.77872,2.25555 -2.02842,3.39631 -1.24971,1.14075 -2.2722,2.65299 -2.2722,3.36052 0,0.70753 -1.9022,1.88695 -4.22712,2.62093 -4.50893,1.42349 -9.74051,0.36475 -13.25063,-2.68161 -2.62265,-2.27613 -4.54513,-1.95885 -4.54513,0.75012 0,1.28604 -0.48446,2.33826 -1.07657,2.33826 -0.59212,0 -2.99309,1.82315 -5.33549,4.05144 -2.34241,2.22829 -5.37871,4.37517 -6.74735,4.77082 -1.36863,0.39567 -4.69952,1.72918 -7.40196,2.96335 -2.70246,1.23417 -5.37048,2.24395 -5.92896,2.24395 -1.50716,0 -7.12354,4.67576 -7.12354,5.9305 0,0.59635 2.21677,1.10737 4.92617,1.13559 2.70939,0.0282 6.81163,0.73094 9.11608,1.56159 5.72006,2.06181 17.25342,11.32857 17.25342,13.86267 0,1.13375 -0.1666,2.06138 -0.3702,2.06138 -0.20362,0 -3.14409,-2.08751 -6.5344,-4.6389 -8.13653,-6.1232 -12.59878,-7.48505 -21.94709,-6.69809 -10.77394,0.90697 -15.83684,2.68865 -20.99367,7.38785 -5.16096,4.70297 -6.91749,10.1008 -4.25917,13.08841 0.96284,1.0821 2.6252,4.18274 3.69412,6.8903 1.78621,4.52442 1.79425,5.22461 0.0994,8.65137 -2.092,4.22981 -0.90297,6.88556 3.08281,6.88556 3.18115,0 9.72802,4.08541 15.60186,9.73592 l 4.88529,4.69956 6.43494,-1.17647 c 4.86471,-0.88939 6.72323,-0.82612 7.61633,0.2593 0.64974,0.78968 3.11875,1.78192 5.48668,2.20498 8.32326,1.48705 8.36217,1.52243 8.36217,7.60174 0,4.81309 0.36917,5.72787 2.54288,6.30124 2.4072,0.63494 2.43812,0.78749 0.57955,2.85895 -2.51774,2.80615 -2.57207,5.41272 -0.0928,4.45311 1.05239,-0.40733 5.25573,0.98425 9.61046,3.18167 6.8253,3.44411 8.60823,3.85523 15.0874,3.479 6.35469,-0.36902 7.57085,-0.10499 9.00086,1.95432 0.90937,1.30956 2.40622,2.38101 3.32632,2.38101 0.92012,0 1.67293,0.48853 1.67293,1.08562 0,2.0576 3.64943,4.76003 6.42807,4.76003 5.22366,0 7.45613,7.98998 4.89999,17.53695 -0.92297,3.44716 -2.19953,4.64462 -8.10143,7.59934 -3.85321,1.92906 -7.58496,4.42808 -8.2928,5.55337 -0.70783,1.12528 -2.11377,2.04597 -3.12429,2.04597 -2.89419,0 -7.1694,5.38074 -7.15038,8.99939 0.009,1.80207 -0.49182,3.91107 -1.114,4.68668 -0.62217,0.7756 -0.80706,1.93925 -0.41085,2.58586 1.09816,1.79225 6.22051,-0.58446 9.13575,-4.23889 z m 20.44317,-47.70279 c -0.93599,-0.97074 -3.40112,-3.12547 -5.47809,-4.78828 -3.60101,-2.88296 -3.77305,-3.38439 -3.70648,-10.80316 0.0384,-4.27892 -0.0879,-8.83208 -0.28054,-10.11812 -0.30865,-2.05975 0.20187,-2.29124 4.28602,-1.9435 2.55002,0.21712 5.13191,0.87476 5.73754,1.46142 2.25456,2.18392 4.1148,1.04701 4.1148,-2.51483 0,-3.33635 0.25781,-3.55638 3.76707,-3.2151 2.88726,0.28079 3.85358,0.98073 4.13747,2.9969 0.29972,2.12864 -0.18482,2.63054 -2.53957,2.63054 -4.15103,0 -4.76741,1.91323 -1.34506,4.17506 3.54462,2.34261 3.70772,3.6038 0.59498,4.6003 -1.57593,0.5045 -3.44067,-0.1854 -5.71231,-2.11339 -2.33244,-1.97962 -4.29195,-2.68514 -6.35353,-2.28764 -4.47715,0.86327 -3.91185,4.70569 0.99665,6.77435 2.18767,0.92198 4.2836,2.17576 4.65763,2.78618 0.37403,0.61043 2.48683,0.81413 4.69512,0.45267 3.05198,-0.49955 4.18899,-0.20002 4.74017,1.24873 1.28737,3.38391 -0.65186,7.76082 -4.48221,10.11649 -4.49586,2.76497 -5.61131,2.8421 -7.82966,0.54138 z m 14.23582,-18.88451 c -2.22005,-0.90356 -1.72114,-2.7331 0.74531,-2.7331 1.20681,0 2.49442,0.78916 2.86138,1.75369 0.66178,1.73952 -0.77828,2.13057 -3.60669,0.97941 z m -77.3222,69.67517 c 1.35919,-2.21825 -0.62316,-2.76562 -2.64184,-0.72948 -1.80697,1.82262 -1.81014,1.97639 -0.0408,1.97639 1.05524,0 2.26242,-0.56111 2.68264,-1.24691 z m 22.61816,-3.51629 c 1.08486,-4.35269 0.0485,-5.75897 -4.24425,-5.75897 -4.49795,0 -4.9215,1.07339 -1.61464,4.09196 1.27501,1.16386 2.3182,2.86756 2.3182,3.78602 0,2.65763 2.76217,1.00455 3.54069,-2.11901 z m 54.3327,-0.92873 c 0.6375,-1.20149 0.83425,-2.5122 0.43721,-2.91268 -1.01288,-1.02163 -3.83294,1.54368 -3.83294,3.48668 0,2.32438 2.04093,1.97939 3.39573,-0.574 z m -65.18857,-2.78426 c 0.59531,-0.80378 1.05037,-3.30279 1.01125,-5.55337 -0.0619,-3.56008 -0.4457,-4.09195 -2.95298,-4.09195 -3.4675,0 -4.30403,2.80231 -2.29611,7.69182 1.5285,3.72202 2.57182,4.20297 4.23784,1.9535 z m -32.47123,-24.9393 c -2.18314,-9.43926 -5.65624,-15.86002 -9.94454,-18.38461 -2.09987,-1.23621 -3.5876,-3.07308 -3.5876,-4.4295 0,-2.64583 -8.67322,-12.5744 -9.9019,-11.33509 -1.49933,1.5123 0.58743,6.49865 4.8624,11.61873 6.60191,7.90706 15.322,21.85158 16.82146,26.89962 2.10759,7.09539 3.56199,3.46461 1.75018,-4.36915 z M 145.74158,305.8273 c -0.43115,-1.73269 -1.64217,-5.02087 -2.69115,-7.30706 l -1.90725,-4.15669 -0.40468,5.0883 c -0.287,3.60858 0.17422,5.73353 1.58604,7.30706 2.83939,3.16465 4.33486,2.75693 3.41704,-0.93161 z m -14.30421,-70.80147 c 3.62852,-9.14332 5.39388,-18.68978 4.48531,-24.25506 -0.99839,-6.11548 -1.38214,-5.41716 -4.6649,8.48911 -3.08003,13.04746 -4.12533,20.74034 -2.81741,20.73475 0.56477,-0.002 1.91343,-2.23837 2.997,-4.9688 z m 48.23739,-30.55293 c 4.69614,0.94735 5.72584,-2.19031 1.75319,-5.34224 l -2.991,-2.37309 -3.81501,3.20693 c -2.09824,1.76381 -5.16211,4.15217 -6.80859,5.30747 -4.99664,3.50607 -3.35372,4.2938 2.75542,1.32113 3.88476,-1.89028 6.8376,-2.57781 9.10599,-2.1202 z m -79.850355,-0.18584 c 2.310875,1.44056 1.298545,-4.41472 -1.233237,-7.13301 -1.93457,-2.07708 -2.951548,-2.40515 -4.636396,-1.49563 -1.447185,0.78121 -2.898845,0.76527 -4.40611,-0.0484 -3.169825,-1.71113 -4.075355,0.40105 -1.723856,4.02095 1.05607,1.62572 1.508421,2.95585 1.005224,2.95585 -0.503197,0 0.312875,1.31822 1.813493,2.92939 l 2.728397,2.92937 2.60379,-2.4673 c 1.432085,-1.35702 3.163997,-2.11808 3.848695,-1.69125 z M 304.43461,180.66567 c -2.33671,-19.1012 -9.76711,-41.80563 -16.54818,-50.56487 -1.74231,-2.25057 -4.14745,-5.67028 -5.34473,-7.59934 -4.07664,-6.56828 -16.28953,-20.59197 -19.91488,-22.867662 -4.79634,-3.010735 -8.68896,-2.81577 -11.11827,0.556872 -4.00247,5.55667 -10.93614,20.02922 -10.50228,21.92124 0.47381,2.06619 9.32291,6.8075 12.76171,6.83767 3.02742,0.0266 4.64826,1.39733 6.0503,5.1169 0.88914,2.35884 0.89579,3.77194 0.0227,4.83297 -0.89071,1.08252 -0.56636,3.49768 1.16651,8.68612 1.32013,3.95268 2.27823,9.01413 2.1291,11.24768 -0.21239,3.18091 0.49735,4.83614 3.27497,7.63779 3.32262,3.35138 3.83075,3.50027 8.06275,2.36252 2.48414,-0.66786 5.94154,-1.50889 7.68307,-1.86895 1.97965,-0.40928 3.85306,-1.9939 4.99835,-4.22784 1.53719,-2.9983 2.11376,-3.33726 3.58368,-2.10677 2.36919,1.98326 8.99939,16.43462 11.33781,24.71219 1.04451,3.69737 2.31596,6.7225 2.82545,6.7225 0.50949,0 0.29882,-5.12956 -0.46813,-11.39902 z m -39.3956,-10.13171 c -1.76732,-2.7206 -5.17313,-4.92741 -5.17313,-3.35195 0,1.15426 4.89847,6.1766 6.02427,6.1766 0.54106,0 0.15806,-1.27109 -0.85114,-2.82465 z m -129.19673,-5.61909 c 0,-1.69285 -3.22438,-0.92217 -3.93283,0.94002 -1.27389,3.34841 -0.73777,4.00298 1.61463,1.97136 1.27501,-1.10114 2.3182,-2.41126 2.3182,-2.91138 z m 159.51066,-35.76399 c -1.72485,-1.73977 -1.87319,-1.6921 -1.87319,0.60197 0,1.37025 0.65199,2.71934 1.44888,2.99798 2.24292,0.78428 2.51153,-1.49466 0.42431,-3.59995 z M 235.80522,124.857 c 0.30647,-1.61706 0.23341,-2.94011 -0.16234,-2.94011 -1.30103,0 -3.68938,4.7464 -2.97501,5.91228 1.0513,1.71575 2.51095,0.33294 3.13735,-2.97217 z"
         style="fill:#7a837b" />
      <path
         inkscape:connector-curvature="0"
         id="path6290"
         d="m 157.28561,464.21558 c -15.44763,-1.24792 -37.46667,-6.74885 -49.03049,-12.24911 -11.4241,-5.43381 -30.886324,-18.76567 -37.502575,-25.68971 -7.894307,-8.26157 -18.944041,-30.52372 -19.994927,-40.28424 -0.441262,-4.09839 -1.805695,-11.39743 -3.032075,-16.22009 -5.46175,-21.47798 -4.988364,-61.28984 0.931411,-78.3317 0.335047,-0.96453 0.504184,-2.62701 0.37586,-3.69439 -0.128324,-1.0674 0.800244,-2.6709 2.063484,-3.56337 1.454029,-1.02726 1.956211,-2.17852 1.368596,-3.13752 -0.921484,-1.5039 0.921626,-9.70853 2.549891,-11.35089 0.467314,-0.47136 0.849661,-2.6107 0.849661,-4.75411 0,-3.07818 0.472761,-3.8971 2.249792,-3.8971 2.858691,0 4.083418,-1.87996 1.800397,-2.76362 -2.286513,-0.88501 -2.226087,-3.08203 0.08477,-3.08203 1.28928,0 1.603135,-0.67889 1.08099,-2.33826 -0.513787,-1.6328 -0.20829,-2.33826 1.012583,-2.33826 2.568222,0 3.462446,-2.175 1.74993,-4.25631 -1.241221,-1.50853 -1.158775,-2.0048 0.487425,-2.93404 1.503518,-0.84868 1.706165,-1.637 0.840307,-3.26887 -0.895815,-1.68833 -0.589515,-2.51984 1.425293,-3.86919 2.212025,-1.48144 2.349648,-1.98205 0.996869,-3.62616 -1.353394,-1.64485 -1.191638,-2.21881 1.175019,-4.16931 2.201897,-1.81471 2.45803,-2.55563 1.295592,-3.74782 -1.877276,-1.9253 -1.846184,-3.35655 0.07292,-3.35655 0.836985,0 3.020949,-1.57832 4.853253,-3.50738 1.832304,-1.92907 4.366393,-3.50739 5.63131,-3.50739 1.264915,0 3.219375,-0.83937 4.343242,-1.86526 1.873419,-1.71008 2.328253,-1.69553 5.467788,0.17509 2.075139,1.23643 4.274523,1.7113 5.582016,1.20522 2.881224,-1.1152 3.390158,-0.76301 2.922343,2.02229 -0.485443,2.89024 -2.930446,5.47743 -5.176396,5.47743 -0.923734,0 -2.328844,0.78917 -3.122466,1.7537 -1.181784,1.43629 -1.102576,1.75369 0.437624,1.75369 1.328088,0 1.880574,1.05905 1.880574,3.60482 0,2.29549 0.508085,3.43399 1.398851,3.13451 1.649496,-0.5546 5.349351,-6.6116 5.471027,-8.95657 0.0466,-0.89798 2.040691,-4.58074 4.431331,-8.18391 5.35909,-8.07722 6.95975,-10.7293 7.83494,-12.98144 3.24013,-8.33796 7.94499,-15.25207 14.61682,-21.48045 4.22029,-3.93978 8.32357,-8.47851 9.11839,-10.08606 0.79483,-1.60755 3.57921,-5.15879 6.1875,-7.89163 2.6083,-2.73284 4.43866,-4.9688 4.06747,-4.9688 -0.37119,0 -3.0444,1.3358 -5.94047,2.96846 -5.91336,3.33364 -7.23361,2.61007 -6.00161,-3.28927 0.50791,-2.43217 0.39065,-3.35603 -0.3303,-2.60201 -0.61481,0.64302 -1.70128,4.22337 -2.41437,7.95635 -1.21814,6.37678 -7.29168,17.17994 -9.6586,17.17994 -1.69069,0 -1.03557,-13.30348 1.33111,-27.03083 5.72242,-33.19145 21.57566,-64.848699 40.73578,-81.34502 7.08742,-6.10206 18.24133,-11.991423 30.82507,-16.275914 8.27212,-2.816476 10.07948,-3.015777 21.7711,-2.400745 16.9667,0.892526 27.69817,4.227096 44.97854,13.97609 6.48761,3.660084 31.10511,28.59859 36.13106,36.602189 2.3869,3.80105 5.28444,7.96322 6.43898,9.24926 2.84236,3.16615 10.67811,19.36729 13.72667,28.38119 1.36476,4.03527 2.95284,8.24414 3.52909,9.35304 1.93919,3.73172 4.55192,12.49863 5.30461,17.79944 0.41089,2.8936 1.22535,6.83941 1.8099,8.76847 2.11324,6.97369 4.36367,23.59448 4.52,33.38291 0.0879,5.50017 -0.91999,19.56542 -2.23962,31.25612 -1.31964,11.69071 -2.06112,22.615 -1.64776,24.27621 0.56135,2.25598 0.16729,3.43318 -1.55708,4.65141 -1.32329,0.9349 -2.62135,3.60361 -3.04133,6.25271 -0.40298,2.54192 -1.38551,4.92821 -2.18341,5.30287 -0.79789,0.37464 0.89645,0.4351 3.76523,0.13434 2.86877,-0.30077 9.1279,-0.86345 13.90918,-1.2504 4.78129,-0.38694 9.73644,-1.14585 11.01144,-1.68647 2.08253,-0.88299 16.78537,-3.68497 37.67072,-7.17901 7.03517,-1.17696 23.11433,-4.22401 36.51162,-6.91908 12.65614,-2.54597 15.18479,-2.90015 18.12006,-2.5381 2.70712,0.33392 3.05892,0.89962 3.11515,5.00938 0.0519,3.79313 -0.50129,4.99257 -3.05176,6.61687 -4.7369,3.01674 -19.32348,15.01894 -30.55938,25.14501 -6.71728,6.05379 -10.6632,8.82993 -11.88076,8.35866 -1.11017,-0.42969 -1.82303,-0.0805 -1.82303,0.89283 0,2.15242 -5.48548,8.00477 -7.50295,8.00477 -0.88749,0 -1.97128,1.18374 -2.40838,2.63054 -1.09968,3.63977 -3.98248,6.7225 -6.28653,6.7225 -1.06388,0 -2.67315,1.70448 -3.58742,3.79967 -0.91193,2.08982 -2.81698,4.31264 -4.23345,4.9396 -1.41646,0.62696 -3.17492,2.59987 -3.90769,4.38423 -0.73278,1.78438 -1.71267,3.24431 -2.17757,3.24431 -0.46488,0 -6.2396,5.25779 -12.8327,11.68398 -6.59311,6.4262 -12.7998,11.94727 -13.79264,12.26906 -0.99285,0.32181 -2.84837,2.16496 -4.12338,4.09592 -1.27501,1.93096 -2.75592,3.51234 -3.29091,3.51418 -0.53499,0.002 -3.14295,2.24371 -5.79549,4.9819 -4.04118,4.17169 -21.85012,19.64446 -27.23826,23.66515 -0.86171,0.64303 -2.75343,2.26073 -4.20382,3.5949 -4.12408,3.79364 -30.68199,23.88375 -36.45207,27.57468 -2.85437,1.82587 -6.0265,3.31976 -7.04915,3.31976 -1.02263,0 -5.08506,2.36748 -9.0276,5.26108 -3.94252,2.8936 -7.50243,5.26109 -7.91088,5.26109 -0.40846,0 -3.93745,1.36713 -7.84218,3.03807 -14.13287,6.04783 -17.69768,7.38874 -27.59443,10.37976 -9.21482,2.78491 -13.79085,3.55451 -27.02817,4.5456 -2.55002,0.19092 -10.37394,-0.11633 -17.38649,-0.68286 z m 60.27315,-101.45793 c -0.394,-0.64302 -1.46797,-1.16913 -2.3866,-1.16913 -0.91864,0 -1.67024,0.52611 -1.67024,1.16913 0,0.64302 1.07397,1.16913 2.38661,1.16913 1.31263,0 2.06423,-0.52611 1.67023,-1.16913 z m 16.31017,-4.39817 c -1.32224,-1.33369 -5.29873,1.30165 -5.29873,3.51162 0,2.43062 0.0384,2.42694 2.89319,-0.27825 1.59124,-1.50783 2.67374,-2.96285 2.40554,-3.23337 z m 26.5765,-9.63139 c 6.56097,-6.43021 12.74742,-11.6913 13.74766,-11.6913 2.11372,0 4.21837,3.46151 4.21837,6.93793 0,2.77854 2.08471,3.11542 5.17493,0.83625 1.40494,-1.03622 1.918,-2.43782 1.49276,-4.07805 -0.84176,-3.24672 2.97567,-8.15963 7.97843,-10.26801 5.9369,-2.50206 6.21767,-2.22605 6.21767,6.11241 0,5.98515 0.35057,7.58874 1.55693,7.1218 0.85631,-0.33144 4.50747,-0.97446 8.1137,-1.42893 4.49572,-0.56656 6.55675,-1.34649 6.55675,-2.48122 0,-0.9102 3.12957,-4.82137 6.9546,-8.6915 3.82502,-3.87013 6.95459,-7.4633 6.95459,-7.98484 0,-0.52152 1.34777,-2.95145 2.99503,-5.39985 2.50145,-3.71799 2.78767,-4.91067 1.73675,-7.23714 -0.91172,-2.01833 -0.89539,-4.2392 0.0592,-8.06332 0.98289,-3.93719 0.98338,-5.61485 0.002,-6.60481 -0.72399,-0.72988 -1.31603,-2.27404 -1.31603,-3.43148 0,-1.45217 -0.8776,-2.10443 -2.83149,-2.10443 -2.82628,0 -10.83963,4.06526 -12.5722,6.37801 -0.50322,0.67174 -0.77243,-1.14615 -0.59825,-4.03975 0.28108,-4.66947 0.0255,-5.30309 -2.27258,-5.63468 -1.7645,-0.25459 -2.59738,-1.18562 -2.61472,-2.92283 -0.014,-1.40208 -1.02801,-4.77691 -2.25336,-7.49963 -2.64453,-5.87612 -5.83488,-23.50328 -5.83488,-32.2385 0,-9.38116 -9.21147,-32.73889 -14.20874,-36.02943 -0.61167,-0.40277 -2.22888,-2.56636 -3.5938,-4.80799 -4.98062,-8.17973 -11.65626,-17.9606 -15.59347,-22.84687 -4.02163,-4.99107 -4.02405,-5.00131 -0.89984,-3.80321 1.72297,0.66074 2.9033,0.80834 2.62296,0.32803 -0.28033,-0.48032 -0.0947,-1.97928 0.41257,-3.33101 0.68476,-1.82479 2.29659,-2.64771 6.25893,-3.19552 2.93516,-0.40578 6.96177,-1.58544 8.948,-2.62146 3.48709,-1.81885 3.71012,-1.78401 6.48261,1.01247 1.76696,1.78225 4.57323,8.00743 7.29649,16.18589 3.60153,10.81606 4.44079,12.48945 4.50886,8.99014 0.21102,-10.84862 -5.36452,-37.06647 -10.96271,-51.54997 -1.93973,-5.01843 -2.22326,-8.30515 -0.45181,-5.23743 2.36008,4.08708 5.70266,1.73613 5.70266,-4.01088 0,-4.04605 -3.5768,-10.31096 -5.88679,-10.31096 -2.77391,0 -4.90075,4.04274 -3.86257,7.34206 0.70357,2.23595 0.57145,2.37672 -0.99775,1.06313 -0.99479,-0.83275 -4.17645,-5.04159 -7.07036,-9.35298 -6.12383,-9.12336 -14.29348,-18.99102 -18.9239,-22.857071 -3.38667,-2.827608 -9.67926,-5.423383 -13.14721,-5.423383 -1.93288,0 -3.78966,3.938845 -3.94267,8.363704 -0.0368,1.06341 -1.47041,3.05004 -3.18587,4.41473 -1.71545,1.36469 -3.48093,3.65127 -3.92329,5.08129 -0.44236,1.43003 -1.13007,2.8631 -1.52824,3.18461 -2.00525,1.61918 -7.0773,10.76136 -7.0773,12.75658 0,2.63311 1.62028,3.17814 10.43189,3.50907 8.02794,0.3015 10.92455,2.20663 13.94853,9.17406 1.323,3.04823 2.86279,6.59445 3.42177,7.8805 0.55898,1.28604 1.35486,4.90453 1.76861,8.0411 0.41374,3.13656 1.05,6.48545 1.41391,7.44198 0.50783,1.33483 0.082,1.55356 -1.83189,0.94086 -1.79969,-0.57613 -2.49354,-0.30756 -2.49354,0.96523 0,0.96991 0.5216,2.08862 1.1591,2.48603 0.6375,0.39742 1.1591,1.16222 1.1591,1.69958 0,1.05761 -5.55577,-0.0468 -10.79712,-2.14624 -4.89464,-1.96061 -6.93324,-1.71918 -5.61073,0.66445 0.81433,1.46771 0.31073,2.96142 -1.97083,5.84561 -3.67326,4.64351 -5.25816,4.78251 -10.84778,0.95138 -2.34544,-1.60755 -5.03377,-2.92282 -5.9741,-2.92282 -2.92599,0 -13.47847,5.18834 -13.48007,6.62775 -0.005,3.76764 -4.44617,8.60736 -10.64097,11.59382 -7.57558,3.65214 -14.12028,9.18545 -13.3851,11.31665 0.30979,0.89808 2.21002,1.31534 5.02775,1.10403 2.49136,-0.18683 6.75914,0.45371 9.48396,1.42339 6.99505,2.48936 20.7585,13.53043 16.86661,13.53043 -0.41795,0 -2.37393,-1.23729 -4.34663,-2.74955 -6.98722,-5.35636 -10.67871,-6.60349 -19.54615,-6.60349 -12.31283,0 -19.18796,2.422 -26.8036,9.44251 -3.51043,3.23609 -6.70467,6.90731 -7.0983,8.15826 -0.39362,1.25093 -1.44988,2.27443 -2.34724,2.27443 -2.5169,0 -0.73271,6.75493 2.79493,10.58161 1.94167,2.10626 3.0165,4.67352 3.11147,7.43175 0.18078,5.25087 0.36232,5.42341 7.02795,6.67946 6.15907,1.1606 15.95331,7.01903 18.63427,11.1461 1.45689,2.24275 2.78888,2.74237 7.31114,2.74237 7.4749,0 13.61094,3.47359 22.63316,12.81258 2.90847,3.01058 3.5927,4.426 2.67735,5.53847 -1.72871,2.101 -0.32354,5.03155 2.41257,5.03155 1.26306,0 4.61504,1.57832 7.44884,3.50739 2.83382,1.92906 6.2513,3.50739 7.59443,3.50739 1.34313,0 6.98088,1.58629 12.52836,3.52508 8.15856,2.85136 10.92703,4.46213 14.48523,8.42792 5.01378,5.58811 6.06283,8.08328 5.07224,12.06426 -0.76575,3.07743 -9.54813,9.56144 -21.24466,15.68488 -7.68,4.0207 -7.98763,4.56356 -5.94126,10.48456 0.96473,2.79139 0.96473,4.11172 0,5.0848 -0.71671,0.72291 -1.30311,2.78749 -1.30311,4.58795 0,6.08707 4.10491,4.03114 16.80694,-8.41774 z m 15.06829,-48.6616 c -7.32549,-2.63266 -8.50517,-4.84313 -8.3887,-15.71867 0.0956,-8.93115 0.22714,-9.39404 2.50618,-8.82166 1.32286,0.33224 4.5887,0.95415 7.2574,1.38203 5.07287,0.81335 10.46829,5.21448 9.11004,7.43121 -1.22656,2.00179 -3.3218,1.43703 -6.25996,-1.68735 -3.07115,-3.26578 -7.27791,-3.77773 -9.44091,-1.14893 -1.76044,2.13956 -0.13966,4.52361 4.84175,7.1219 1.79958,0.93865 3.27194,2.48227 3.27194,3.4303 0,0.94802 0.5216,1.72367 1.1591,1.72367 0.63751,0 1.1591,-0.49066 1.1591,-1.09034 0,-2.08369 4.83509,-2.71769 6.66323,-0.87374 1.58505,1.59877 1.53553,2.18683 -0.47772,5.67353 -2.55813,4.43039 -4.82255,4.94241 -11.40145,2.57805 z m 6.37504,-26.74727 c 0,-3.06538 2.49923,-3.88183 5.67463,-1.85379 2.44238,1.55989 0.59684,4.77661 -2.74051,4.77661 -2.35699,0 -2.93412,-0.5749 -2.93412,-2.92282 z m -57.95495,82.5668 c 0,-2.35624 -3.08225,-5.60785 -4.22406,-4.45615 -0.37991,0.3832 -0.35737,2.0365 0.0501,3.67399 0.8545,3.43408 4.17397,4.05612 4.17397,0.78216 z m 64.33361,-2.48392 c 7.08956,-4.91996 8.66873,-10.47902 2.53574,-8.92641 -3.6612,0.92685 -11.29998,12.43631 -8.25392,12.43631 0.36327,0 2.93645,-1.57946 5.71818,-3.5099 z m -75.02909,-0.46541 c 0.69718,-1.5434 0.99704,-3.07908 0.66636,-3.41263 -0.91684,-0.92478 -6.20613,4.09101 -5.51078,5.22585 1.15752,1.88911 3.58189,0.98169 4.84442,-1.81322 z m 22.73054,-3.23306 c 0.9388,-4.73465 -0.87389,-6.82119 -5.92595,-6.82119 -3.25382,0 -3.89828,-0.3697 -3.31538,-1.90188 0.97663,-2.56708 -1.31674,-5.1129 -4.6059,-5.1129 -3.6684,0 -4.05309,1.05517 -2.5832,7.08534 1.59365,6.53794 1.52139,6.47022 4.93715,4.62635 3.48174,-1.87949 6.41281,-0.0422 6.41281,4.01987 0,5.73219 3.85306,4.29456 5.08047,-1.89559 z m -42.2085,-15.42091 c 0.0672,-14.61867 -4.75743,-27.87158 -11.63923,-31.97194 -1.98231,-1.18112 -3.39219,-3.00992 -3.39219,-4.40014 0,-2.15839 -8.01522,-12.31556 -9.71845,-12.31556 -1.96664,0 -0.33073,7.16827 2.47408,10.84098 1.75313,2.29562 5.45063,7.1496 8.21664,10.78664 6.40208,8.41808 12.05863,20.5688 12.15235,26.10422 0.04,2.36194 -0.32648,6.39887 -0.81439,8.97096 -0.82844,4.3673 -0.76903,4.5219 0.89862,2.33826 1.19842,-1.56927 1.79783,-4.97425 1.82257,-10.35342 z m -48.47886,-30.85841 c -1.16486,-3.05435 -2.48929,-6.59084 -2.94319,-7.85886 -0.6914,-1.93156 -1.00003,-2.02637 -1.90284,-0.58456 -2.37821,3.79805 1.57243,13.99679 5.42188,13.99679 1.20257,0 1.07577,-1.22269 -0.57585,-5.55337 z m -11.4506,-74.53203 c 2.6022,-8.45196 3.47435,-22.08518 1.43182,-22.38179 -1.44508,-0.20983 -6.196,18.79629 -7.05593,28.22744 -0.60138,6.59549 -0.52772,6.87502 1.23241,4.67652 1.02962,-1.28604 3.00588,-6.02102 4.3917,-10.52217 z m 35.15699,-21.04434 c 2.99745,-1.60755 7.3543,-2.92282 9.68186,-2.92282 6.64174,0 7.70557,-2.0916 3.36257,-6.61121 l -3.65394,-3.80254 -2.84636,2.25832 c -2.08899,1.65743 -3.3978,1.96062 -4.91895,1.13948 -1.48846,-0.8035 -2.48013,-0.62353 -3.51859,0.63855 -0.79528,0.96656 -1.12539,2.08074 -0.73357,2.47595 0.39181,0.39521 -0.57705,2.26424 -2.15303,4.15341 -5.19596,6.22849 -3.55901,7.14313 4.78001,2.67086 z m -79.471476,-21.1914 c -1.98938,-1.68845 -4.665917,-5.14362 -5.947861,-7.67819 -2.090718,-4.13361 -2.671087,-4.53291 -5.634321,-3.87644 -1.816936,0.40252 -3.611645,0.22897 -3.988246,-0.38565 -0.854986,-1.39537 0.458822,-8.37243 1.57656,-8.37243 0.812185,0 14.964749,16.30046 18.209586,20.97321 2.33081,3.35649 0.106672,3.00803 -4.215718,-0.6605 z"
         style="fill:#6c706d" />
      <path
         inkscape:connector-curvature="0"
         id="path6288"
         d="m 149.75147,463.21814 c -4.14378,-0.5265 -9.35973,-1.49963 -11.59099,-2.16248 -2.23127,-0.66285 -7.44721,-2.06438 -11.59099,-3.1145 -23.26193,-5.89512 -55.42524,-27.20355 -62.495195,-41.40353 -1.120526,-2.25058 -4.160346,-8.30082 -6.755155,-13.445 -3.157121,-6.25894 -4.985393,-11.67361 -5.526631,-16.36781 -0.444837,-3.85813 -1.861512,-10.9606 -3.148162,-15.78326 -4.748186,-17.79728 -5.225153,-62.85813 -0.76176,-71.9663 0.647685,-1.32169 1.013383,-3.16307 0.812663,-4.09196 -0.215187,-0.99583 0.586351,-1.75782 1.953251,-1.85688 1.275009,-0.0924 2.886467,-0.22394 3.581019,-0.29228 1.782732,-0.17544 3.953125,-5.43457 3.953125,-9.57891 0,-4.30652 4.124281,-12.75884 6.225638,-12.75884 0.848169,0 3.208527,0.58593 5.245242,1.30208 3.043803,1.07026 4.0711,0.96618 5.769953,-0.58456 1.136761,-1.03766 2.882752,-1.88665 3.879982,-1.88665 0.99723,0 2.113376,-0.78916 2.480326,-1.75369 0.366951,-0.96454 1.518882,-1.7537 2.559848,-1.7537 1.653925,0 1.786493,1.06636 1.050958,8.4539 -0.565588,5.6806 -1.45972,8.9169 -2.725613,9.86531 -1.731808,1.29748 -1.722871,1.53525 0.110706,2.94512 1.510786,1.16168 2.13998,3.94424 2.593899,11.47131 1.057343,17.53328 5.506517,29.22825 11.119446,29.22825 3.263798,0 4.93682,-2.91927 2.73117,-4.76564 -2.876564,-2.40799 -4.121044,-6.68177 -2.641501,-9.07139 1.009911,-1.63112 0.639357,-3.3449 -1.752764,-8.10639 -1.668378,-3.32089 -3.033418,-7.11482 -3.033418,-8.43096 0,-1.31614 -0.447116,-3.30654 -0.993591,-4.4231 -4.253783,-8.69136 -4.360631,-9.13743 -3.426767,-14.30598 0.522822,-2.8936 1.366285,-8.41774 1.874361,-12.27586 0.508077,-3.85813 1.593925,-8.24753 2.412995,-9.75422 0.819072,-1.50669 1.168113,-4.0299 0.775649,-5.60713 -0.861447,-3.46198 0.353734,-6.08655 1.757415,-3.79569 0.523153,0.8538 1.276485,1.22426 1.674073,0.82323 0.397586,-0.40103 0.07357,-1.77786 -0.720045,-3.05963 -2.133436,-3.44575 0.978609,-10.58845 9.526203,-21.86437 15.07125,-19.88187 19.67431,-26.37108 22.47562,-31.68521 1.59637,-3.02835 7.59502,-10.39868 13.33033,-16.3785 5.73529,-5.97982 10.42781,-11.41879 10.42781,-12.08659 0,-0.6678 3.6522,-5.39469 8.11601,-10.5042 4.46381,-5.1095 7.63714,-9.58853 7.05185,-9.95338 -1.27946,-0.7976 -6.94491,1.2511 -9.37025,3.38839 -0.95742,0.84373 -3.04475,1.92591 -4.63851,2.40486 -1.59376,0.47894 -5.37532,2.69041 -8.40347,4.91438 -3.02815,2.22395 -5.50572,3.73899 -5.50572,3.36675 0,-0.37224 2.30766,-5.85581 5.12813,-12.18569 2.82047,-6.3299 5.48089,-13.56719 5.91204,-16.08287 0.43115,-2.51569 1.80053,-6.76689 3.04304,-9.44711 1.24252,-2.68022 2.56401,-6.76812 2.93664,-9.08422 0.98588,-6.12787 -1.45284,-4.57738 -7.70203,4.89681 -9.03068,13.6911 -15.9745,32.36102 -18.01351,48.43302 -0.69512,5.47911 -4.52468,12.63804 -7.24192,13.53794 -2.10473,0.69705 -1.84615,-5.22375 0.96405,-22.07423 5.57781,-33.44541 19.99383,-63.961093 38.28563,-81.042631 12.39278,-11.572822 36.53431,-21.615024 52.10626,-21.674749 6.36136,-0.0244 17.16574,1.853372 24.12077,4.19212 7.27867,2.447578 17.95133,7.778421 19.03637,9.508398 0.50981,0.812828 1.8138,1.489785 2.89775,1.504348 1.78384,0.02397 5.78891,3.561962 25.59948,22.614034 10.48553,10.084073 25.20958,33.84207 31.61641,51.01467 6.52293,17.48381 7.97156,22.08246 8.65483,27.47455 0.40741,3.21511 1.18629,6.72014 1.73083,7.78896 0.54455,1.06883 1.25001,6.03142 1.5677,11.02799 0.31768,4.99658 1.17684,9.45824 1.90922,9.9148 0.78601,0.48998 1.02813,2.04973 0.59093,3.80675 -0.40852,1.64175 -0.19924,3.31419 0.46667,3.72931 1.50079,0.93557 0.89534,10.96304 -2.28002,37.76191 -1.31965,11.13735 -2.08129,21.52799 -1.69254,23.09031 0.50976,2.04861 0.22905,2.84058 -1.00684,2.84058 -1.04193,0 -2.28612,2.06229 -3.17404,5.26109 -0.80321,2.89359 -1.91419,5.26108 -2.46884,5.26108 -0.55465,0 -1.00846,0.77066 -1.00846,1.71256 0,1.82263 3.8955,4.49069 4.97171,3.40515 1.2173,-1.22783 9.00191,-2.54354 11.36357,-1.92062 2.21771,0.58496 2.15991,0.76527 -0.89715,2.79834 -1.79717,1.19519 -4.98768,2.17654 -7.09001,2.18077 -2.58167,0.005 -4.69413,0.95645 -6.50796,2.93053 -3.15939,3.43854 -4.38248,3.70027 -4.09774,0.87685 0.38099,-3.77783 -0.0503,-4.9688 -1.79927,-4.9688 -0.95625,0 -1.73865,-0.99998 -1.73865,-2.22217 0,-1.22219 -1.29888,-5.03648 -2.88642,-8.47619 -3.5688,-7.73253 -3.78559,-10.78416 -0.69585,-9.79501 2.04362,0.65422 2.19385,0.10861 1.96031,-7.11977 -0.217,-6.71662 -0.59297,-7.95518 -2.64751,-8.72178 -1.72107,-0.64218 -2.6078,-2.32759 -3.15263,-5.99225 -0.41693,-2.80432 -1.70692,-6.67257 -2.86667,-8.59612 -1.15974,-1.92354 -2.7865,-5.58916 -3.61502,-8.14582 -1.66629,-5.14185 -7.75664,-16.5604 -9.36898,-17.5655 -0.56574,-0.35268 -3.42821,-4.38269 -6.36102,-8.95559 -4.75487,-7.41389 -5.17822,-8.6049 -3.90894,-10.99709 1.17528,-2.21502 1.09107,-3.19439 -0.48294,-5.61744 -2.54483,-3.9175 -2.41925,-4.36048 0.99135,-3.49705 2.23366,0.56546 2.89775,0.28134 2.89775,-1.23976 0,-1.60605 0.70114,-1.82893 3.76707,-1.19749 6.69293,1.3784 10.21216,3.41895 10.94608,6.34681 0.39222,1.56469 1.41176,4.19523 2.26563,5.84565 0.85389,1.65041 1.55573,3.68451 1.55966,4.52021 0.003,0.83571 0.84916,3.16186 1.8783,5.16921 1.55214,3.02748 2.04689,3.33301 2.90184,1.79206 1.29309,-2.33061 -2.51337,-28.18454 -6.10624,-41.47441 -1.42909,-5.28608 -2.25159,-9.9608 -1.82782,-10.38825 0.42378,-0.42746 2.07243,0.0832 3.66366,1.13488 3.69762,2.44373 6.14287,2.60009 4.22582,0.27019 -0.74302,-0.90302 -1.04372,-2.87649 -0.66824,-4.38548 1.42152,-5.71279 -8.37908,-24.63953 -18.21845,-35.18314 -5.97018,-6.39747 -12.501,-8.22062 -12.501,-3.48978 0,1.0245 -3.62796,-1.86643 -8.33134,-6.6388 -4.58223,-4.649453 -9.66778,-9.138456 -11.30122,-9.975562 -4.59482,-2.354768 -18.80209,-5.622367 -19.73712,-4.539434 -0.45938,0.532046 -1.73793,3.9603 -2.84125,7.618339 -1.1033,3.65804 -2.74988,7.273687 -3.65906,8.034777 -0.90919,0.76109 -1.66552,3.02924 -1.68073,5.04032 -0.0152,2.01109 -0.58486,5.76095 -1.26589,8.33304 -2.89125,10.91949 -1.12494,20.71262 4.02789,22.33226 1.36488,0.42901 4.64275,2.33653 7.28415,4.23894 4.61466,3.32357 4.91658,3.38356 7.71659,1.53303 3.4707,-2.29376 3.69243,-2.04145 7.27016,8.27315 2.3641,6.81566 2.38632,7.27408 0.47656,9.82781 -2.41252,3.22604 -3.61935,2.86354 -12.18605,-3.66034 -6.06568,-4.61927 -9.54934,-5.52436 -6.36441,-1.65356 1.85225,2.25113 1.191,2.2343 -4.63778,-0.1181 -2.58937,-1.04502 -5.0775,-1.4991 -5.52918,-1.00906 -0.45168,0.49003 -0.16924,1.12584 0.62764,1.4129 1.70953,0.61583 1.92554,3.39933 0.34048,4.38743 -0.60963,0.38003 -4.61277,-0.12879 -8.89588,-1.13071 -4.28312,-1.00191 -8.08749,-1.40117 -8.45417,-0.88723 -0.36668,0.51393 -2.0795,1.84083 -3.80628,2.94868 -1.99383,1.27916 -3.6499,3.82927 -4.53794,6.98777 -0.7691,2.73544 -2.61624,6.17856 -4.10478,7.65138 -1.48854,1.47282 -2.70643,3.2957 -2.70643,4.05084 0,0.75514 -1.04011,2.4437 -2.31138,3.75235 -1.27126,1.30866 -3.6648,4.08924 -5.31898,6.17906 -3.77239,4.76586 -4.71757,4.76586 -5.45021,0 -0.63831,-4.15226 -3.40679,-12.05095 -4.67063,-13.32575 -0.43692,-0.44068 -0.79438,1.88594 -0.79438,5.17027 0,5.73677 -1.35851,8.62158 -2.88607,6.12857 -0.40042,-0.65351 -2.92838,-1.1882 -5.61767,-1.1882 -5.15835,0 -10.04185,2.55016 -10.04185,5.24387 0,0.88213 -0.91279,2.51037 -2.02842,3.6183 -3.9691,3.94167 -6.02734,7.92104 -4.84205,9.36157 1.75571,2.13381 1.54001,8.70959 -0.47453,14.46624 -1.00381,2.8685 -1.64686,5.39524 -1.42898,5.615 0.21787,0.21978 3.45474,-2.40234 7.19303,-5.82692 12.21795,-11.1926 14.93773,-12.54476 28.97791,-14.40663 6.92558,-0.9184 13.50475,-1.37891 14.62038,-1.02337 4.43734,1.41417 1.55589,2.55894 -7.67045,3.04739 -12.63718,0.66902 -19.75561,4.24455 -31.982,16.06427 -6.88245,6.65353 -9.46284,10.01315 -10.39053,13.5283 -1.66624,6.31349 -1.56177,9.38791 0.37404,11.00841 1.28437,1.07515 1.35326,2.0731 0.33155,4.80335 -2.0599,5.50447 0.0897,6.70037 7.69639,4.28183 7.85769,-2.49836 16.56581,-2.44776 21.15374,0.12291 1.96023,1.09833 5.50818,4.19554 7.88437,6.88267 3.38776,3.83111 4.26231,5.72382 4.05158,8.76847 -0.63036,9.10785 0.1185,12.73546 3.2293,15.6434 2.8951,2.70632 3.21054,2.76269 5.21595,0.93212 1.36824,-1.24896 2.13449,-3.56216 2.13449,-6.44373 0,-3.11653 0.50788,-4.49532 1.65585,-4.49532 2.44319,0 5.32316,3.33827 6.05227,7.01538 0.48838,2.46298 1.16038,3.08879 2.84083,2.64554 5.95822,-1.57159 -1.6592,6.30278 -8.71441,9.00839 -2.28382,0.87582 -2.99113,1.67609 -2.19296,2.48116 1.20129,1.21169 4.87548,-0.0352 14.92908,-5.06638 5.40218,-2.70343 9.06585,-1.67239 10.35106,2.91303 1.88743,6.73411 4.55234,10.23113 7.79663,10.23113 1.76755,0 3.21372,0.48574 3.21372,1.07942 0,1.5073 5.77186,8.27362 7.05762,8.27362 0.58084,0 1.05607,-0.78917 1.05607,-1.7537 0,-0.97427 1.03031,-1.75369 2.3182,-1.75369 2.64823,0 3.17578,3.24885 0.68416,4.21324 -0.89873,0.34786 -1.96376,1.95751 -2.36673,3.577 -0.48565,1.95171 -1.30256,2.72395 -2.42281,2.29036 -2.37999,-0.9212 -5.80719,0.48931 -3.97065,1.63417 2.02262,1.26087 0.20097,3.88684 -5.67361,8.17869 -3.64258,2.6612 -5.40889,3.33854 -6.31709,2.42248 -1.63289,-1.64702 -8.07875,-1.64315 -9.71358,0.006 -0.9159,0.92383 -0.82162,2.13743 0.34058,4.38424 0.88389,1.70874 1.61028,3.70815 1.61421,4.44313 0.0104,2.02342 -3.35289,2.90119 -5.88327,1.53525 -1.87981,-1.01474 -2.42738,-0.72866 -3.36465,1.75789 -0.6157,1.63342 -1.91476,2.96986 -2.88679,2.96986 -0.97203,0 -1.76734,0.74614 -1.76734,1.65808 0,6.75042 5.52098,7.32069 9.41473,0.97247 l 2.68912,-4.38424 0.6129,5.26108 c 0.33709,2.8936 1.00409,5.12956 1.48222,4.96881 0.47813,-0.16076 1.91251,-0.29229 3.18752,-0.29229 2.65866,0 3.25827,-4.42978 0.919,-6.7893 -1.87264,-1.88884 1.58203,-5.53003 4.26243,-4.49257 1.49114,0.57716 1.71689,1.64635 1.08282,5.12867 -0.44059,2.41973 -1.24789,4.57488 -1.79401,4.78921 -0.54612,0.21435 -0.99294,1.14217 -0.99294,2.06185 0,1.9629 -2.39501,6.53547 -4.05685,7.74538 -0.68657,0.49986 -0.0561,1.62741 1.54655,2.76584 4.00412,2.84432 1.58152,4.45711 -4.29686,2.86052 -2.63111,-0.7146 -4.78383,-1.77802 -4.78383,-2.36312 0,-0.58512 1.32111,-2.50167 2.9358,-4.25904 2.37641,-2.58637 2.65248,-3.47141 1.44887,-4.6448 -0.8178,-0.79729 -2.51507,-1.62252 -3.77167,-1.83384 -2.94938,-0.496 -6.10553,7.68872 -3.96709,10.28768 1.67865,2.04017 -1.55342,2.15753 -8.79127,0.31927 -4.96402,-1.26078 -5.04594,-1.36091 -4.39964,-5.37811 0.45365,-2.81967 0.15469,-4.41521 -0.96078,-5.12761 -2.73301,-1.74547 -5.37522,-1.1881 -6.01205,1.26823 -0.33343,1.28605 -1.17665,2.33826 -1.87384,2.33826 -1.95843,0 -1.50358,-2.02543 0.9787,-4.35805 3.59854,-3.38155 5.8196,-16.69857 4.63883,-27.81343 -1.74184,-16.39624 -5.28101,-25.11783 -12.03613,-29.66068 -2.28267,-1.5351 -4.08211,-3.37648 -3.99873,-4.09195 0.0833,-0.71547 0.0898,-1.97024 0.0143,-2.78839 -0.17502,-1.89564 -9.32132,-11.95746 -10.86947,-11.95746 -1.95838,0 -0.0588,9.49882 2.55163,12.75921 17.74996,22.16975 22.12783,32.13331 19.13953,43.55944 -3.00974,11.50812 -12.03504,17.55131 -26.02731,17.42747 -9.88549,-0.0875 -14.85926,-2.11568 -17.89341,-7.29653 -2.00191,-3.4183 -5.77252,-4.43435 -6.88463,-1.85516 -0.34658,0.80377 -0.34094,0.0445 0.0125,-1.68725 0.76192,-3.73295 -0.20675,-5.75077 -2.36051,-4.91715 -0.97446,0.37719 -1.59876,2.71251 -1.67842,6.27852 -0.11417,5.11407 0.28217,6.04016 3.99151,9.32518 9.0021,7.97235 13.04201,9.7499 22.45258,9.87912 7.31021,0.10031 9.76819,-0.39607 15.06573,-3.04283 7.25572,-3.62511 9.18884,-3.19032 4.10155,0.92249 -2.20597,1.7834 -3.34472,3.66859 -3.11466,5.15629 0.26407,1.70769 -0.28726,2.34507 -2.02842,2.34507 -1.31507,0 -2.39105,-0.64752 -2.39105,-1.43893 0,-0.79141 -1.69518,0.27629 -3.76707,2.37267 -2.2768,2.3037 -3.29794,4.14487 -2.5812,4.65404 0.65223,0.46333 2.05304,2.21904 3.11291,3.90157 1.5553,2.46898 3.06173,3.1691 7.8089,3.62919 3.23501,0.31353 6.83042,1.43594 7.98978,2.49423 5.21906,4.76406 25.75043,1.05221 35.84165,-6.47978 3.35382,-2.50327 8.83056,-5.41671 12.17054,-6.47432 6.83664,-2.16482 22.07382,-11.49632 26.4021,-16.16906 4.09969,-4.42597 8.29065,-6.40209 10.69693,-5.04382 1.28054,0.72283 2.77267,0.68674 4.23462,-0.10241 4.11521,-2.22144 4.71779,-1.27089 2.23729,3.52924 -1.96032,3.7935 -2.2046,5.29868 -1.21536,7.48861 1.21022,2.67912 1.35068,2.70179 6.23913,1.00735 2.75056,-0.95341 5.78343,-2.40992 6.73969,-3.23665 3.67159,-3.17434 12.29796,-5.55135 16.93774,-4.66723 2.47807,0.4722 7.23161,0.91071 10.56342,0.97445 5.68077,0.10873 6.18288,-0.11818 8.0666,-3.64461 1.65458,-3.09748 2.52797,-3.65032 4.95361,-3.13547 2.87069,0.60933 2.88673,0.57783 0.63742,-1.25066 -2.26742,-1.84321 -2.2423,-1.92714 1.44888,-4.84092 2.06595,-1.63084 3.75629,-3.59371 3.75629,-4.36193 0,-0.76822 2.43273,-4.2018 5.40607,-7.63018 3.41274,-3.93505 5.55663,-7.59183 5.8144,-9.91753 0.85389,-7.70396 0.85281,-9.65564 -0.008,-13.91398 -0.71946,-3.56033 -0.54934,-4.38424 0.90523,-4.38424 2.04045,0 2.32748,-1.32965 0.65188,-3.01975 -0.74631,-0.75277 -0.69605,-3.55546 0.14573,-8.12546 0.70675,-3.83696 1.39355,-8.33188 1.52622,-9.98872 0.36966,-4.61635 1.56205,-5.75606 6.02217,-5.75606 2.2549,0 6.78807,-0.78023 10.07371,-1.73384 6.18954,-1.79642 16.72869,-3.66473 29.73542,-5.27128 4.14378,-0.51182 9.09893,-1.50939 11.01144,-2.21681 1.91251,-0.70742 7.65005,-2.06894 12.75009,-3.02561 5.10004,-0.95667 11.61997,-2.23206 14.48874,-2.8342 2.86877,-0.60214 6.62537,-0.81406 8.348,-0.47092 2.7549,0.54875 3.10385,1.12052 2.89775,4.74801 -0.15608,2.7472 -1.00829,4.55624 -2.55251,5.41842 -1.27501,0.71185 -4.46961,3.13566 -7.09912,5.38623 -11.72134,10.03222 -14.02784,11.55585 -16.50441,10.9026 -1.53255,-0.40424 -2.4762,-0.10803 -2.4762,0.77743 0,0.85436 0.81703,1.14369 2.02843,0.71835 1.11563,-0.39173 -1.84102,2.88179 -6.57033,7.27448 -6.84119,6.35423 -9.17634,7.87534 -11.42451,7.44185 -3.15487,-0.60831 -4.85225,1.25542 -4.87963,5.35788 -0.0134,2.02412 -0.86319,2.83032 -3.5554,3.37343 -2.71372,0.54743 -3.69113,1.48758 -4.19655,4.0365 -0.7812,3.93985 -2.25542,5.34694 -6.17498,5.89381 -2.13748,0.29823 -3.23988,1.47788 -4.20179,4.49626 -1.1283,3.54051 -1.85838,4.14014 -5.4175,4.44951 -4.7723,0.41482 -8.63629,3.7344 -4.34683,3.7344 1.80417,0 2.42819,0.59564 2.14352,2.04598 -0.29552,1.50564 -1.53093,2.04597 -4.67786,2.04597 -2.52636,0 -5.1072,0.83724 -6.30682,2.04598 -1.9345,1.9492 -1.90915,2.04598 0.53602,2.04598 3.01332,0 3.30645,1.43259 0.73381,3.58618 -1.49557,1.25196 -2.27069,1.25838 -4.21297,0.0349 -2.08078,-1.31071 -2.7582,-1.11802 -5.38525,1.53175 l -3.00464,3.03099 3.25777,0 c 3.54765,0 3.70075,1.91935 0.31974,4.00844 -1.56723,0.96836 -2.36236,0.79849 -3.5036,-0.74852 -1.33461,-1.80912 -1.71742,-1.83081 -3.98897,-0.22599 -3.20654,2.26539 -3.18105,3.53184 0.0884,4.39423 2.46979,0.65145 2.49947,0.78861 0.58783,2.71679 -1.5725,1.58611 -2.31961,1.72172 -3.41248,0.6194 -0.76956,-0.77622 -2.30292,-1.41131 -3.40746,-1.41131 -2.38735,0 -4.17138,4.5946 -2.24927,5.79281 1.85338,1.15535 0.24705,4.72936 -2.12561,4.72936 -1.0793,0 -2.54283,-0.58549 -3.2523,-1.30109 -2.25062,-2.2701 -3.93304,0.0358 -3.13942,4.30274 0.57091,3.06953 0.30865,4.15609 -1.1383,4.71614 -1.03406,0.40024 -2.60942,0.11721 -3.5008,-0.62898 -1.94269,-1.62625 -3.31662,0.0353 -2.28072,2.75818 0.86922,2.28475 -1.45165,5.3517 -4.04983,5.3517 -1.04577,0 -2.41629,1.18374 -3.04559,2.63054 -0.70717,1.62582 -2.36164,2.77185 -4.33171,3.00048 -1.75313,0.20346 -3.20487,0.99263 -3.22608,1.7537 -0.062,2.22545 -4.2237,6.64484 -6.25735,6.64484 -1.02711,0 -2.45705,1.30516 -3.17764,2.90035 -0.72057,1.5952 -2.20539,3.18695 -3.29957,3.53724 -1.09419,0.35028 -2.92145,1.67567 -4.06059,2.9453 -1.13914,1.26962 -2.97353,2.30841 -4.07641,2.30841 -1.10288,0 -2.86082,1.31707 -3.90652,2.92682 -1.04571,1.60976 -3.84406,4.21764 -6.21858,5.7953 -2.37451,1.57764 -7.30376,4.99555 -10.95388,7.59533 -3.65013,2.59979 -7.43759,4.72689 -8.41658,4.72689 -1.80925,0 -15.0997,8.65706 -16.30144,10.61834 -0.36159,0.59013 -1.81458,1.07296 -3.22887,1.07296 -1.41429,0 -3.67663,0.7808 -5.02742,1.73511 -3.06102,2.16259 -14.25242,6.22874 -32.0308,11.63772 -12.5521,3.8189 -14.81021,4.15183 -27.23882,4.01587 -7.45366,-0.0815 -16.94246,-0.57905 -21.08624,-1.10557 z M 121.9234,372.14147 c 1.3069,-0.8334 1.40229,-1.43204 0.39077,-2.45232 -1.58673,-1.60045 -3.85837,-0.4783 -3.85837,1.90598 0,1.94508 1.02172,2.10606 3.4676,0.54634 z m -7.69908,-6.42355 c 0.69702,-1.83214 -0.74542,-3.39624 -1.9819,-2.14907 -1.10464,1.11421 -0.89548,3.86532 0.29387,3.86532 0.5693,0 1.32891,-0.77231 1.68803,-1.71625 z m 10.02697,-6.05424 c 0,-2.82196 -3.17592,-3.05566 -5.78343,-0.42559 -1.94485,1.96169 -2.19331,2.86186 -1.14242,4.13906 1.14395,1.39031 1.75658,1.3588 4.1344,-0.2127 1.5353,-1.01466 2.79145,-2.59002 2.79145,-3.50077 z m 7.69116,-14.94992 c -1.04261,-1.605 -1.89566,-4.14674 -1.89566,-5.64831 0,-2.69402 -1.90414,-5.53604 -3.70912,-5.53604 -1.94469,0 -0.78923,4.10424 2.69912,9.58741 1.99453,3.1351 3.89077,5.43354 4.21386,5.10765 0.3231,-0.3259 -0.26559,-1.90571 -1.3082,-3.51071 z m -27.31964,-4.21071 c 3.09831,-1.67252 2.80375,-4.00189 -0.71029,-5.61685 -3.959835,-1.81984 -5.161409,-1.70954 -5.161409,0.47376 0,2.02921 2.051849,6.35335 3.014729,6.35335 0.33823,0 1.62387,-0.54461 2.85697,-1.21026 z m 41.47927,-37.07874 c -2.14813,-4.43888 -3.26209,-8.60897 -3.27923,-12.27586 -0.0309,-6.62218 -1.74659,-7.34908 -2.7593,-1.16913 -1.96869,12.01355 0.73059,20.16749 6.67623,20.16749 l 2.61557,0 -3.25327,-6.7225 z m 36.78618,-25.71494 c -1.2662,-1.27716 -2.13446,0.75392 -1.22538,2.86648 0.862,2.00315 0.92449,2.00133 1.40476,-0.041 0.27644,-1.17562 0.19572,-2.44705 -0.17938,-2.8254 z M 96.517344,270.0139 c -0.885307,-0.89297 -1.24353,-0.0643 -1.24353,2.87663 0,5.37433 1.627991,7.02743 2.112855,2.14545 0.205814,-2.07229 -0.185382,-4.33221 -0.869325,-5.02208 z m 221.064736,4.30411 c 0.18744,-1.26331 -0.75271,-3.29512 -2.08923,-4.5151 l -2.43002,-2.21818 0.27947,4.7774 c 0.20861,3.56599 0.73837,4.71089 2.08922,4.51511 0.99537,-0.14426 1.96312,-1.29591 2.15056,-2.55923 z M 131.51733,237.25723 c 5.13065,-10.82832 8.09376,-32.00062 4.85768,-34.70956 -1.30645,-1.09364 -1.86663,-0.81665 -2.79414,1.38163 -1.32165,3.13241 -7.01138,32.48821 -7.01138,36.17478 0,3.61521 2.59288,2.12333 4.94784,-2.84685 z m 102.20058,-91.336 c -3.13457,-2.39138 -5.94723,-2.4176 -3.98861,-0.0372 0.79363,0.96453 2.52197,1.75369 3.84076,1.75369 2.35721,0 2.35972,-0.0291 0.14785,-1.71652 z m -48.98868,231.29795 c 0.20611,-1.04846 1.54194,-2.68666 2.96849,-3.64045 2.34158,-1.56557 2.66976,-1.5343 3.37585,0.32167 0.5066,1.33158 0.0253,2.61405 -1.36639,3.64044 -2.92521,2.15747 -5.43348,1.99539 -4.97795,-0.32166 z M 287.16246,342.9767 c -0.36224,-0.59118 0.12857,-1.86888 1.09069,-2.83931 0.96211,-0.97045 1.7493,-2.83573 1.7493,-4.14508 0,-2.47122 3.09466,-4.80116 6.37696,-4.80116 2.95052,0 1.05549,4.63348 -3.70574,9.06075 -4.53672,4.21851 -4.58219,4.241 -5.51121,2.7248 z m -7.30934,-44.12879 c -0.80086,-0.32566 -1.16127,-1.07329 -0.80092,-1.66139 1.02211,-1.66812 3.67635,-1.25665 4.41483,0.68442 0.66233,1.74095 -0.77782,2.13027 -3.61391,0.97697 z m -10.14133,-3.90696 c -3.26071,-3.63423 -0.8998,-4.36115 2.62319,-0.80768 2.28983,2.30966 2.63855,3.15311 1.30362,3.15311 -1.00235,0 -2.76941,-1.05545 -3.92681,-2.34543 z M 50.068951,287.34877 c 0,-0.96453 0.782392,-1.75369 1.738649,-1.75369 0.956256,0 1.738648,0.78916 1.738648,1.75369 0,0.96454 -0.782392,1.7537 -1.738648,1.7537 -0.956257,0 -1.738649,-0.78916 -1.738649,-1.7537 z m 230.128789,-5.54728 c -1.16221,-1.67364 -1.37168,-2.77602 -0.57821,-3.0428 1.36829,-0.46005 5.74653,3.10512 5.74653,4.67933 0,1.98989 -3.39702,0.91423 -5.16832,-1.63653 z M 53.712274,279.8581 c -1.166023,-0.73072 -1.221005,-1.20471 -0.212659,-1.8333 1.590517,-0.99149 2.784568,-0.11376 2.195797,1.61409 -0.241126,0.70763 -1.059424,0.79808 -1.983138,0.21921 z m 0.557076,-6.58314 c -0.393886,-1.03533 0.06636,-2.08839 1.085078,-2.48269 2.267906,-0.87782 3.302819,0.17768 2.428238,2.47652 -0.879863,2.31274 -2.634627,2.31581 -3.513316,0.006 z m 228.77851,-0.0415 c 0,-1.08874 0.78862,-1.68516 1.93237,-1.46141 2.90791,0.56884 3.3072,3.30083 0.48242,3.30083 -1.42376,0 -2.41479,-0.7549 -2.41479,-1.83942 z M 75.28544,170.43578 c 0.304666,-1.60755 0.958923,-2.92282 1.453903,-2.92282 1.590142,0 2.168997,3.17902 0.825588,4.53405 -2.078551,2.09654 -2.875442,1.53327 -2.279491,-1.61123 z m 204.63077,-54.62857 c -2.6291,-3.42408 -2.79103,-4.81266 -0.27979,-2.39898 1.48671,1.42893 2.41521,2.88844 2.06335,3.24336 -0.35187,0.35491 -1.15447,-0.0251 -1.78356,-0.84438 z"
         style="fill:#4f504e" />
      <path
         inkscape:connector-curvature="0"
         id="path6286"
         d="m 147.8776,460.08772 c -0.81036,-2.98261 -3.65675,-3.51802 -4.66156,-0.87685 -0.88984,2.33894 -2.73736,2.24031 -2.73736,-0.14614 0,-1.46531 -0.75579,-1.74737 -3.30442,-1.23324 -2.99221,0.60363 -3.25418,0.40161 -2.77283,-2.13822 0.70211,-3.70467 -3.6278,-4.93366 -8.44873,-2.39807 -4.35535,2.29071 -7.38221,2.31644 -8.23684,0.07 -0.36695,-0.96454 -1.88141,-1.75371 -3.36547,-1.75371 -3.69954,0 -8.64468,-2.01335 -8.64468,-3.51958 0,-0.85183 0.75571,-0.83126 2.41747,0.0658 1.32961,0.71774 2.70792,1.01203 3.06292,0.65396 1.01465,-1.02348 -2.08886,-4.21497 -4.09874,-4.21497 -0.99649,0 -2.8886,-0.99532 -4.2047,-2.21182 -1.31609,-1.21651 -5.135708,-3.64147 -8.488027,-5.38881 -3.35232,-1.74735 -6.382272,-3.64563 -6.733226,-4.2184 -0.350955,-0.57277 -1.634135,-1.0414 -2.851513,-1.0414 -1.58825,0 -2.004363,0.54949 -1.473265,1.94548 0.516427,1.35744 0.30637,1.67508 -0.694949,1.05087 -0.789302,-0.49203 -1.178087,-1.57016 -0.863966,-2.39583 0.74274,-1.95229 -2.390814,-6.44617 -4.494879,-6.44617 -0.897678,0 -2.19044,-1.05222 -2.872804,-2.33826 -0.682364,-1.28605 -2.004702,-2.33826 -2.938529,-2.33826 -0.933827,0 -1.697867,-1.02608 -1.697867,-2.28017 0,-1.25409 -0.680085,-2.70089 -1.511301,-3.21511 -2.313058,-1.43093 -8.803188,-11.72587 -9.643879,-15.29755 -0.410941,-1.74588 -1.39597,-3.9635 -2.188952,-4.92803 -1.511456,-1.83843 -2.880679,-7.50874 -3.246602,-13.44499 -0.118911,-1.92907 -0.646046,-4.17787 -1.171411,-4.99733 -0.525365,-0.81947 -0.606382,-3.0919 -0.180035,-5.04983 0.749542,-3.44217 0.849656,-3.49191 3.027544,-1.50388 1.663368,1.51835 2.062523,2.92785 1.526385,5.38999 -0.432486,1.98614 -0.141861,4.04392 0.718874,5.09001 1.254647,1.52485 1.938484,1.27344 5.194439,-1.90967 3.200205,-3.12861 4.105674,-3.47346 6.179996,-2.35371 1.914057,1.03323 3.048574,0.90344 5.339977,-0.61094 1.600257,-1.0576 2.909559,-2.54033 2.909559,-3.29494 0,-0.75462 1.043189,-3.43589 2.318198,-5.95839 2.634178,-5.2115 2.995342,-11.21393 0.880282,-14.62999 -1.154479,-1.86461 -1.133518,-2.81404 0.106335,-4.81654 1.088697,-1.75837 1.538438,-7.09983 1.524534,-18.10651 -0.0109,-8.5868 0.401513,-15.87496 0.916356,-16.1959 0.514843,-0.32095 2.592769,4.0127 4.617614,9.63031 4.678394,12.97948 13.043742,30.15197 14.557312,29.88341 0.6375,-0.11306 2.15479,-0.59607 3.37176,-1.07324 2.04342,-0.80123 2.15549,-0.44689 1.4652,4.63291 -0.55999,4.12093 -0.34811,5.65506 0.84479,6.11678 0.87574,0.33896 1.90026,2.16966 2.27672,4.06824 0.42552,2.14599 1.69865,3.84087 3.36522,4.47998 1.47442,0.56542 3.37519,1.87202 4.22393,2.90353 2.12967,2.5883 6.59361,2.35035 8.54192,-0.45533 0.89021,-1.28195 1.96298,-1.98343 2.38392,-1.55884 1.39461,1.40669 0.79325,5.91827 -0.98758,7.40901 -1.29732,1.08601 -1.42386,1.86736 -0.48683,3.00619 1.26383,1.53599 9.05368,4.67104 10.57946,4.25773 0.44304,-0.12001 1.92321,1.36501 3.28925,3.30004 2.78213,3.94094 11.24992,8.69732 17.63481,9.90549 2.31832,0.43869 5.88811,2.04259 7.9329,3.56425 3.88444,2.89065 6.33488,2.7183 5.16257,-0.36312 -0.58302,-1.53246 0.25409,-1.704 5.59992,-1.14748 3.45698,0.35988 8.29383,0.13736 10.74858,-0.49449 2.45475,-0.63185 6.54956,-1.3944 9.09958,-1.69456 2.55002,-0.30017 5.94038,-1.01222 7.53414,-1.58237 1.59376,-0.57014 4.44568,-1.38121 6.3376,-1.80238 5.58115,-1.24242 15.93248,-6.54827 20.66105,-10.59038 2.41792,-2.06689 7.09903,-5.00352 10.40248,-6.52585 3.30344,-1.52232 9.28432,-4.4763 13.29086,-6.5644 l 7.2846,-3.79655 -5.12225,6.34316 c -4.90626,6.07568 -5.07721,6.54536 -4.05415,11.13805 0.58745,2.6372 0.74468,6.09468 0.34938,7.68328 -0.77507,3.11485 -0.21814,3.33562 7.35874,2.91706 2.56957,-0.14195 4.00305,0.40621 4.50372,1.72222 0.51768,1.36074 1.55074,1.72378 3.50052,1.23018 4.88085,-1.23562 4.56668,2.37689 -0.64602,7.4286 -2.61386,2.53313 -4.75248,5.08134 -4.75248,5.66269 0,0.58134 1.34603,2.33243 2.99116,3.89133 2.60962,2.47279 3.16406,2.60859 4.34662,1.06456 1.36119,-1.77725 7.10943,-5.82957 8.26928,-5.82957 1.32332,0 0.51457,2.71168 -1.77679,5.95745 -1.31843,1.86757 -3.38645,3.39559 -4.59562,3.39559 -1.20917,0 -2.75679,1.05221 -3.43915,2.33826 -0.68236,1.28604 -2.20551,2.33826 -3.38477,2.33826 -1.17927,0 -2.99309,1.30692 -4.03073,2.90426 -1.03764,1.59734 -3.31036,3.26469 -5.05048,3.70521 -1.74014,0.44053 -5.20216,2.29026 -7.6934,4.11052 -2.49124,1.82026 -5.15282,3.30957 -5.91461,3.30957 -0.76181,0 -2.32154,1.0437 -3.46607,2.31935 -1.31024,1.46033 -2.98664,2.09931 -4.52627,1.72526 -1.67655,-0.40732 -3.64438,0.55008 -6.2595,3.04542 -3.1399,2.9961 -4.11926,3.38417 -5.5397,2.1951 -1.40699,-1.1778 -2.23259,-0.9639 -4.47275,1.15883 -1.511,1.4318 -3.71248,2.45687 -4.8922,2.27793 -1.17971,-0.17892 -3.70971,0.4753 -5.62222,1.45385 -1.91252,0.97855 -4.35916,1.57646 -5.43699,1.32868 -1.07783,-0.24777 -3.29722,0.43348 -4.93198,1.51389 -2.39733,1.58438 -3.30747,1.68377 -4.70513,0.51378 -1.35415,-1.13357 -2.10064,-1.14269 -3.41586,-0.0417 -0.92567,0.77489 -2.72518,1.07525 -3.99892,0.66748 -1.28096,-0.41007 -3.94282,0.10721 -5.95651,1.15755 -3.33612,1.7401 -3.81181,1.74267 -5.68723,0.0308 -1.83068,-1.67108 -2.20142,-1.68004 -3.51383,-0.085 -2.15381,2.61765 -3.50156,2.179 -3.50156,-1.13962 0,-3.79081 -1.57958,-3.73421 -3.32014,0.11897 -0.98032,2.17019 -1.78093,2.71533 -2.79403,1.90248 -2.11036,-1.69323 -10.08176,-1.03121 -11.33936,0.94174 -0.89188,1.3992 -1.22315,1.23103 -1.80683,-0.91721 z m 14.35833,-51.51479 c 0.25629,-0.77552 -0.60708,-1.38834 -1.95598,-1.38834 -2.40782,0 -3.12949,1.22767 -1.61791,2.75233 1.07387,1.08316 3.00928,0.34451 3.57389,-1.36399 z m 74.98819,-15.04987 c 4.77119,-2.29491 5.28629,-3.87542 1.26306,-3.87542 -3.3386,0 -10.61029,5.74812 -7.34833,5.80871 1.094,0.0203 3.83238,-0.84967 6.08527,-1.93329 z M 70.932734,380.32773 c 0,-0.8441 -0.767917,-1.1552 -1.833448,-0.74278 -1.008397,0.39031 -2.312384,0.70965 -2.897747,0.70965 -0.585365,0 -1.0643,1.5532 -1.0643,3.45156 l 0,3.45157 2.897747,-2.70878 c 1.593762,-1.48984 2.897748,-3.36237 2.897748,-4.16122 z m 55.636756,75.96031 c 0,-1.46482 1.23008,-1.46482 3.4773,0 1.40594,0.91645 1.23958,1.13675 -0.86933,1.15123 -1.43438,0.01 -2.60797,-0.5082 -2.60797,-1.15123 z M 96.143138,443.79083 c -1.115632,-0.29406 -2.028423,-1.02219 -2.028423,-1.61806 0,-1.65174 1.862061,-1.29281 3.477297,0.67028 0.793623,0.96453 1.248685,1.69267 1.01125,1.61808 -0.237435,-0.0746 -1.344491,-0.37623 -2.460124,-0.6703 z M 281.94232,411.91814 c -1.44396,-0.9204 -1.45753,-1.50294 -0.0948,-4.07119 1.90693,-3.59397 1.59009,-4.01841 -3.41201,-4.57075 -3.45813,-0.38186 -3.87659,-0.82022 -3.97305,-4.16188 -0.0882,-3.05469 0.60193,-4.15745 3.78842,-6.05374 2.20362,-1.31139 4.8472,-2.01424 6.08527,-1.61789 1.63784,0.52432 2.18904,0.12366 2.18904,-1.59118 0,-2.54447 2.54816,-3.9975 5.20618,-2.9687 1.04565,0.40473 2.03287,-0.18729 2.49813,-1.49811 1.43762,-4.05034 2.88877,-5.24148 4.62002,-3.79224 2.23218,1.86859 2.07874,2.39 -2.47258,8.40226 -2.7144,3.58571 -3.62092,5.63196 -2.73869,6.18191 0.72815,0.45393 2.16819,-0.31384 3.21557,-1.7144 1.65885,-2.21822 2.16714,-2.33711 4.05113,-0.94759 2.07379,1.52952 2.07715,1.70759 0.0899,4.76662 -1.4434,2.22196 -2.4308,2.80805 -3.28289,1.94858 -1.96688,-1.9839 -2.73884,-1.45388 -3.50417,2.4059 -0.61261,3.08953 -1.12173,3.53355 -3.3925,2.95869 -2.23439,-0.56565 -2.85161,-0.0728 -3.77073,3.01063 -1.21177,4.06525 -2.55445,4.93711 -5.1023,3.31308 z m -79.63141,-46.28809 c -1.0432,-2.74204 0.0829,-3.06401 1.68214,-0.48097 0.89547,1.4463 0.97239,2.28509 0.20952,2.28509 -0.66291,0 -1.51417,-0.81185 -1.89166,-1.80412 z m -87.33241,-8.525 c 0,-2.16978 1.39871,-4.86957 2.52282,-4.86957 1.61171,0 0.64828,4.98714 -1.07395,5.55923 -0.79688,0.2647 -1.44887,-0.0456 -1.44887,-0.68966 z m -6.70172,-8.55759 c 0.60384,-1.82719 3.12668,-2.12414 3.43177,-0.40393 0.11404,0.64302 -0.72842,1.35091 -1.87214,1.57306 -1.33318,0.25898 -1.89292,-0.16061 -1.55963,-1.16913 z m 91.31595,-1.93512 c 0,-1.27083 0.81833,-2.62734 1.81851,-3.01447 1.36078,-0.52669 1.72548,-0.0663 1.44887,1.82933 -0.47534,3.25759 -3.26738,4.27032 -3.26738,1.18514 z m -1.85456,-12.38146 c -0.4243,-1.11528 -0.19771,-2.60649 0.50355,-3.31381 0.92728,-0.93531 1.48541,-0.73302 2.04647,0.74173 0.4243,1.11528 0.19771,2.60649 -0.50355,3.31381 -0.92728,0.93531 -1.48541,0.73303 -2.04647,-0.74173 z m -10.99958,-0.027 c -0.34941,-0.35245 -2.69589,-0.82802 -5.21438,-1.05684 -2.51849,-0.22882 -5.70822,-1.02555 -7.08827,-1.77053 -1.38005,-0.74497 -3.64923,-1.35449 -5.04262,-1.35449 -1.48948,0 -4.59282,-2.16796 -7.53104,-5.26109 -4.6,-4.84252 -5.4523,-5.26108 -10.71302,-5.26108 -4.60028,0 -6.56574,0.68159 -10.07354,3.49337 -5.11263,4.09816 -11.67332,4.52896 -17.57255,1.15389 -2.74062,-1.56797 -3.97573,-1.75314 -4.97443,-0.7458 -0.9987,1.00735 -1.59998,0.90707 -2.42166,-0.40385 -1.51409,-2.4156 -1.39954,-4.56335 0.59752,-11.20343 2.42236,-8.05418 2.22253,-8.42028 -1.78446,-3.26939 -5.0111,6.44162 -6.77917,7.61328 -9.37455,6.21225 -1.18695,-0.64073 -2.15808,-1.81348 -2.15808,-2.60613 0,-0.79263 -1.2448,-3.28889 -2.76621,-5.54723 -1.521414,-2.25834 -3.687438,-7.51002 -4.813387,-11.67042 -1.12595,-4.16038 -2.839621,-8.97226 -3.80816,-10.69307 -1.503847,-2.67187 -1.572847,-4.87468 -0.47255,-15.08605 0.788159,-7.31456 1.87441,-12.32262 2.797606,-12.89812 2.902838,-1.80958 3.601774,1.09121 1.686225,6.99835 -3.566245,10.99751 -1.707888,18.85347 4.459866,18.85347 2.00782,0 2.01397,-0.11458 0.11953,-2.22606 -2.76577,-3.08259 -2.921308,-19.18192 -0.21447,-22.19883 1.01885,-1.13556 1.85245,-2.62457 1.85245,-3.30892 0,-1.55899 -3.304352,-2.90938 -4.814925,-1.96771 -1.543654,0.96228 -0.08087,-6.7369 2.749245,-14.47035 1.2878,-3.51898 3.49011,-6.98821 5.12002,-8.06542 1.91842,-1.26787 2.47619,-2.27759 1.69397,-3.06658 -1.4117,-1.42391 8.09602,-11.33653 10.87347,-11.33653 2.05466,0 4.5012,5.39808 3.56355,7.86269 -0.33768,0.88759 0.42343,5.38973 1.69134,10.00477 1.26793,4.61503 2.30531,9.58528 2.30531,11.045 0,1.45973 0.48608,2.65404 1.08018,2.65404 1.19974,0 5.09135,-5.29557 6.22897,-8.47619 1.0505,-2.93708 2.95743,-2.52196 4.54341,0.98903 1.1578,2.56307 1.06381,3.20839 -0.6044,4.15005 -1.08644,0.61327 -1.97537,2.46553 -1.97537,4.11613 0,2.42549 0.44462,2.88381 2.3182,2.38962 2.4039,-0.63408 2.51296,-0.37683 2.86972,6.76897 0.54873,10.99116 0.17291,10.27963 4.9542,9.37979 l 4.34662,-0.81803 -2.47239,2.73389 c -4.51451,4.99203 -6.45734,10.58616 -7.74685,22.30604 -1.07023,9.72687 -1.00323,12.08823 0.41448,14.60764 4.017,7.13861 12.01435,9.7072 16.41223,5.27126 l 2.32523,-2.34537 -3.05808,0.58966 c -10.25818,1.97794 -15.12336,-22.56194 -6.90803,-34.84391 4.11523,-6.1523 6.2115,-7.11551 5.89846,-2.7103 -0.19287,2.71415 0.37307,3.39653 3.61638,4.3605 3.24192,0.96357 3.74026,1.56389 3.17708,3.8272 -0.47368,1.90361 -0.0261,3.03085 1.53877,3.87559 2.76599,1.49313 4.96621,7.63937 4.05115,11.31677 -0.39447,1.58531 -0.17787,2.78425 0.50302,2.78425 6.40324,0 23.66221,27.83987 21.4357,34.57721 -0.54185,1.6396 -1.27106,2.69272 -1.62048,2.34029 z m -57.08106,-83.01954 c -0.3834,-1.00776 -1.23505,-1.83229 -1.89257,-1.83229 -1.33354,0 -1.63818,3.84028 -0.40342,5.08572 1.27247,1.28347 3.05894,-1.24799 2.29599,-3.25343 z m 68.29174,75.84384 c -1.83652,-1.8524 -2.26603,-3.21897 -3.55495,-11.31038 -0.53637,-3.36716 -0.34006,-4.229 0.85771,-3.76539 0.85431,0.33067 3.87563,-1.51466 6.71407,-4.10073 5.33839,-4.86378 8.82062,-6.68128 10.17429,-5.31033 0.43009,0.43558 -0.39161,1.75169 -1.826,2.92469 -1.43438,1.17302 -2.60797,2.85219 -2.60797,3.73149 0,0.87932 -0.99928,2.46177 -2.22062,3.51657 -1.75681,1.51724 -2.08809,2.91458 -1.58603,6.69004 0.41878,3.14931 0.1885,4.77223 -0.67713,4.77223 -0.72144,0 -1.31171,0.75811 -1.31171,1.68469 0,2.62591 -1.94678,3.19944 -3.96166,1.16712 z m -14.29415,-25.92271 c -2.66737,-1.80625 -3.546,-6.60374 -1.44888,-7.91105 0.63751,-0.39741 1.1591,0.4079 1.1591,1.78958 0,1.38168 1.12786,3.43332 2.50636,4.55922 3.17402,2.59241 1.27804,3.92869 -2.21658,1.56225 z m 2.00297,-22.81745 c -0.0388,-4.01351 -4.03354,-12.02764 -7.06162,-14.16693 -1.48585,-1.04973 -4.11948,-1.90861 -5.85252,-1.90861 -3.72035,0 -5.43771,-2.02815 -2.63569,-3.11269 3.12504,-1.20956 9.60748,1.79359 13.88477,6.43247 3.323,3.60391 3.95094,5.15633 3.97734,9.83293 0.0173,3.05435 -0.49023,5.55337 -1.12773,5.55337 -0.63751,0 -1.17055,-1.18374 -1.18455,-2.63054 z m 131.76813,-19.58293 c -0.8607,-2.6628 -2.12915,-10.80939 -2.09343,-13.44499 0.0436,-3.21629 2.67046,-11.10674 3.69763,-11.10674 0.46121,0 1.12553,3.28818 1.4763,7.30707 0.35075,4.01888 0.97338,8.64543 1.38358,10.28121 0.87307,3.4815 -3.42332,10.18336 -4.46408,6.96345 z m -5.7148,-20.58156 c -0.46486,-0.46887 -0.82933,-1.94854 -0.80993,-3.28818 0.0326,-2.24892 0.12771,-2.27543 1.24112,-0.34565 1.29658,2.2472 0.96493,5.04205 -0.43119,3.63383 z m -1.25881,-8.04758 c -0.80721,-2.12175 0.56224,-30.99648 1.47007,-30.99648 0.38726,0 1.35561,1.05221 2.15186,2.33826 2.85668,4.61385 3.80985,2.55729 3.11573,-6.7225 -0.37275,-4.98342 -1.16576,-11.91945 -1.76224,-15.41341 -0.59647,-3.49396 -1.0845,-8.59785 -1.0845,-11.34198 0,-2.74412 -0.78239,-8.01912 -1.73864,-11.72221 -1.87261,-7.25163 -2.21296,-10.61712 -0.94428,-9.33747 1.12042,1.13012 3.80366,9.14835 3.82457,11.42889 0.009,1.04655 0.77542,2.53733 1.70183,3.31284 0.92642,0.77551 1.70736,2.81283 1.73541,4.52738 0.0281,1.71457 0.33616,5.48487 0.68466,8.37847 0.34851,2.8936 0.61338,6.94151 0.58859,8.99537 -0.0248,2.05385 0.40594,4.01543 0.95718,4.35906 0.55123,0.34362 0.61127,2.78129 0.13342,5.41705 -0.91659,5.05583 -0.69661,5.3421 4.64826,6.04866 2.85918,0.37795 2.84761,0.41023 -0.86933,2.4256 -2.39602,1.29915 -3.76707,2.92878 -3.76707,4.47753 0,2.5316 -0.14193,2.52678 7.94084,0.26975 2.23989,-0.62548 2.6508,-0.36699 2.3087,1.45227 -0.28384,1.5094 -1.57247,2.32676 -4.05238,2.5704 -1.99991,0.19647 -4.55406,1.38021 -5.67588,2.63054 -1.91201,2.13103 -1.91778,2.40918 -0.0922,4.44395 1.70208,1.89705 1.73317,2.35008 0.24665,3.59445 -0.93549,0.78311 -1.86144,3.0945 -2.05767,5.13643 -0.20594,2.14305 -0.9523,3.59476 -1.76544,3.43384 -0.77476,-0.15332 -2.68637,0.21123 -4.248,0.81009 -2.10717,0.80808 -2.99686,0.67482 -3.4502,-0.51678 z m -7.70572,-0.79396 c -0.008,-2.29557 -7.38335,-16.394 -12.73034,-24.33595 -7.06516,-10.49394 -5.92215,-14.72421 3.55074,-13.14119 4.6894,0.78363 5.35462,1.33412 7.77101,6.43062 2.72652,5.7506 3.64335,11.19063 4.06659,24.1291 0.16839,5.14762 -0.20928,7.65474 -1.20347,7.98905 -0.79688,0.26797 -1.45143,-0.21426 -1.45453,-1.07163 z m 23.18764,-10.82616 c 0,-1.08452 0.99102,-1.83941 2.41478,-1.83941 2.82478,0 2.4255,2.73198 -0.48242,3.30082 -1.14375,0.22375 -1.93236,-0.37267 -1.93236,-1.46141 z M 309.93896,189.4926 c -1.50425,-1.51726 -1.95028,-10.29986 -0.5216,-10.27044 2.28054,0.047 3.52463,2.16048 3.94654,6.7046 0.46984,5.06028 -0.71762,6.29659 -3.42494,3.56584 z m -145.98853,-9.97526 c -5.49381,-0.4991 -6.08599,-1.3583 -2.4951,-3.62025 3.67131,-2.31261 1.94581,-2.81192 -2.31255,-0.66918 -2.05431,1.03368 -5.92054,2.15211 -8.59162,2.48539 l -4.85654,0.60595 6.08527,-6.31675 c 3.3469,-3.47422 6.08527,-6.92817 6.08527,-7.67544 0,-2.30299 13.28279,-15.15032 18.3707,-17.76845 2.6462,-1.36167 4.81128,-3.2304 4.81128,-4.15273 0,-4.22084 -20.61162,-2.82284 -26.4288,1.79256 -1.57372,1.2486 -3.8693,2.27018 -5.1013,2.27018 -3.02437,0 -1.83214,-3.72489 3.18072,-9.9376 5.02854,-6.23216 8.59686,-13.36478 9.44245,-18.87428 0.38056,-2.47958 1.64124,-6.42173 2.80152,-8.76034 1.62451,-3.27432 1.86507,-5.11199 1.04617,-7.99205 -1.26216,-4.438948 0.0183,-7.037244 4.90209,-9.947124 1.84968,-1.102087 3.1071,-2.26197 2.79426,-2.577518 -1.15428,-1.164262 -11.90829,6.209895 -19.2575,13.205102 -11.81375,11.24471 -22.40335,34.15477 -25.61336,55.41322 -1.94861,12.90477 -2.02793,13.18409 -4.64606,16.36058 l -2.40907,2.92282 0.73362,-9.35304 c 2.04716,-26.09975 12.91667,-57.61259 27.1785,-78.795816 10.24612,-15.218658 27.50826,-27.301938 46.93097,-32.85109 9.0334,-2.580884 29.33659,-2.693636 32.33982,-0.179597 0.90938,0.76124 2.40442,1.093389 3.32233,0.738107 0.9179,-0.355283 2.59781,0.389322 3.73311,1.654678 1.13531,1.265356 2.71402,2.04913 3.50823,1.741721 2.09586,-0.811214 4.51023,2.645244 3.78952,5.425125 -0.44379,1.711712 0.25211,2.926551 2.47116,4.313918 17.6887,11.059113 26.85045,18.04674 26.85045,20.478728 0,0.540842 -2.99917,-1.068685 -6.66482,-3.576727 -8.61126,-5.891836 -20.44018,-11.894869 -23.4387,-11.894869 -1.76608,0 -2.35125,0.765015 -2.35125,3.073888 l 0,3.073889 -7.83388,-0.778611 c -10.79724,-1.07314 -11.56711,-0.311681 -12.32092,12.186344 -0.57697,9.565852 -2.17014,15.480172 -6.08366,22.584182 -2.96341,5.37935 -2.43363,15.55004 1.1611,22.2906 1.67997,3.15013 3.05447,6.43831 3.05447,7.30707 0,2.09854 -5.37546,2.03781 -11.46568,-0.12954 -5.31575,-1.89174 -7.82949,-1.43412 -8.78394,1.59912 -0.34825,1.10675 -2.45448,4.01787 -4.68052,6.46916 -2.22603,2.45129 -4.04733,4.85245 -4.04733,5.33592 0,0.48346 -0.78239,1.53397 -1.73865,2.33446 -0.95626,0.80049 -1.77873,3.10087 -1.82773,5.11195 -0.12196,5.00606 -2.54131,12.72482 -4.15891,13.26869 -0.73046,0.24559 -1.95157,-1.45893 -2.71357,-3.78783 -1.71668,-5.2466 -3.03402,-5.79283 -8.45778,-3.50703 -4.56754,1.92495 -5.71793,3.10275 -2.09796,2.14791 1.20306,-0.31733 2.45907,-0.13355 2.79114,0.4084 0.77848,1.27049 -0.38069,7.4667 -1.34658,7.19799 -0.40381,-0.11235 -2.95097,-0.40564 -5.66037,-0.65179 z m 126.05202,-70.48259 c 0,-0.65497 -3.17802,-4.37653 -7.06228,-8.27015 -3.88426,-3.893607 -6.73468,-7.409731 -6.33427,-7.813603 0.40041,-0.403874 2.03476,0.687147 3.6319,2.424492 1.59713,1.737343 3.40437,3.158807 4.01607,3.158807 0.6117,0 1.11219,0.690732 1.11219,1.534964 0,0.84423 1.56478,3.04709 3.4773,4.89525 3.56578,3.4458 4.36565,5.26108 2.31819,5.26108 -0.6375,0 -1.1591,-0.53588 -1.1591,-1.19084 z"
         style="fill:#292925" />
    </g>
  </g>
</svg>
