<?xml version="1.0" encoding="UTF-8" standalone="no"?>
<svg
   xmlns:dc="http://purl.org/dc/elements/1.1/"
   xmlns:cc="http://creativecommons.org/ns#"
   xmlns:rdf="http://www.w3.org/1999/02/22-rdf-syntax-ns#"
   xmlns:svg="http://www.w3.org/2000/svg"
   xmlns="http://www.w3.org/2000/svg"
   xmlns:sodipodi="http://sodipodi.sourceforge.net/DTD/sodipodi-0.dtd"
   xmlns:inkscape="http://www.inkscape.org/namespaces/inkscape"
   sodipodi:docname="iron chestplate.svg"
   height="100%"
   width="100%"
   inkscape:version="0.48.4 r9939"
   version="1.1"
   id="svg8438"
   viewBox="0 0 512 512">
  <metadata
     id="metadata8464">
    <rdf:RDF>
      <cc:Work
         rdf:about="">
        <dc:format>image/svg+xml</dc:format>
        <dc:type
           rdf:resource="http://purl.org/dc/dcmitype/StillImage" />
        <dc:title></dc:title>
      </cc:Work>
    </rdf:RDF>
  </metadata>
  <defs
     id="defs8462">
    <linearGradient
       id="linearGradient4077">
      <stop
         id="stop4079"
         offset="0"
         style="stop-color:#aa4400;stop-opacity:1;" />
      <stop
         style="stop-color:#ff9f00;stop-opacity:1;"
         offset="0.22752622"
         id="stop4081" />
      <stop
         style="stop-color:#803300;stop-opacity:1;"
         offset="0.4948855"
         id="stop4083" />
      <stop
         id="stop4085"
         offset="1"
         style="stop-color:#562200;stop-opacity:1;" />
    </linearGradient>
    <linearGradient
       id="linearGradient4057">
      <stop
         style="stop-color:#aa4400;stop-opacity:1;"
         offset="0"
         id="stop4059" />
      <stop
         id="stop4067"
         offset="0.22752622"
         style="stop-color:#ecd1a4;stop-opacity:1;" />
      <stop
         id="stop4065"
         offset="0.50136983"
         style="stop-color:#803300;stop-opacity:1;" />
      <stop
         style="stop-color:#562200;stop-opacity:1;"
         offset="1"
         id="stop4061" />
    </linearGradient>
    <linearGradient
       id="linearGradient3890">
      <stop
         style="stop-color:#701b1b;stop-opacity:1;"
         offset="0"
         id="stop3892" />
      <stop
         style="stop-color:#e31600;stop-opacity:1;"
         offset="1"
         id="stop3894" />
    </linearGradient>
    <linearGradient
       id="linearGradient3882">
      <stop
         style="stop-color:#600b0b;stop-opacity:1;"
         offset="0"
         id="stop3884" />
      <stop
         style="stop-color:#d11414;stop-opacity:1;"
         offset="1"
         id="stop3886" />
    </linearGradient>
    <linearGradient
       id="linearGradient3872">
      <stop
         style="stop-color:#800600;stop-opacity:1;"
         offset="0"
         id="stop3874" />
      <stop
         style="stop-color:#ff0004;stop-opacity:0;"
         offset="1"
         id="stop3876" />
    </linearGradient>
    <filter
       id="filter4074"
       inkscape:label="Black Light"
       inkscape:menu="Color"
       inkscape:menu-tooltip="Light areas turn to black"
       x="0"
       width="1"
       y="0"
       height="1"
       color-interpolation-filters="sRGB">
      <feColorMatrix
         id="feColorMatrix4076"
         type="luminanceToAlpha"
         result="result2" />
      <feComposite
         in2="SourceGraphic"
         id="feComposite4078"
         operator="arithmetic"
         in="result2"
         k3="2"
         result="result4" />
      <feBlend
         in2="result2"
         id="feBlend4080"
         in="result4"
         mode="multiply"
         result="result3" />
      <feComposite
         in2="SourceGraphic"
         id="feComposite4082"
         operator="in"
         in="result3" />
    </filter>
  </defs>
  <sodipodi:namedview
     pagecolor="#000000"
     bordercolor="#666666"
     borderopacity="1"
     objecttolerance="10"
     gridtolerance="10"
     guidetolerance="10"
     inkscape:pageopacity="0"
     inkscape:pageshadow="2"
     inkscape:window-width="1190"
     inkscape:window-height="1126"
     id="namedview8460"
     showgrid="false"
     inkscape:zoom="1"
     inkscape:cx="286.23437"
     inkscape:cy="349.15199"
     inkscape:window-x="160"
     inkscape:window-y="130"
     inkscape:window-maximized="0"
     inkscape:current-layer="svg8438"
     showguides="true"
     inkscape:guide-bbox="true" />
  <path
     style="fill:#000000"
     id="path3978"
     d="M -13.466093,0.1885736 H 514.89024 V 516.42957 H -13.466093 z"
     inkscape:connector-curvature="0" />
  <path
     transform="matrix(0.92592215,0,0,1,-12.92858,0)"
     sodipodi:end="6.1122693"
     sodipodi:start="6.11213"
     d="m 76.035958,-54.360671 a 10.606602,11.755651 0 0 1 2.51e-4,0.0016 l -10.452057,1.999461 z"
     sodipodi:ry="11.755651"
     sodipodi:rx="10.606602"
     sodipodi:cy="-52.359596"
     sodipodi:cx="65.584152"
     id="path4123"
     style="fill:#333333;fill-opacity:1;fill-rule:nonzero;stroke:none"
     sodipodi:type="arc" />
  <path
     sodipodi:type="arc"
     style="opacity:0.98999999;fill:#ff0000;fill-opacity:0.74970506;fill-rule:nonzero;stroke:none"
     id="path5005"
     sodipodi:cx="640"
     sodipodi:cy="124.5"
     sodipodi:rx="105"
     sodipodi:ry="118.5"
     d="m 743.4676,104.32865 a 105,118.5 0 0 1 0.002,0.0163 L 640,124.5 z"
     sodipodi:start="6.11213"
     sodipodi:end="6.1122693" />
  <g
     id="g6122">
    <path
       style="fill:#9b9b9b"
       d="m 187.05,491.57128 c -1.32825,-0.73372 -5.37371,-1.80507 -8.98991,-2.38079 -8.32308,-1.32503 -16.77009,-6.2285 -16.77009,-9.73497 0,-1.48146 3.39849,-6.02965 7.55221,-10.10709 l 7.55221,-7.4135 0.5478,-34.66996 c 0.5215,-33.00519 2.53139,-55.54685 9.50789,-106.634 1.5468,-11.32671 2.41267,-20.98046 1.92418,-21.45277 -0.48849,-0.4723 -3.06856,0.35119 -5.73352,1.82999 -4.10767,2.27938 -5.79536,2.41131 -11.08555,0.8665 -3.43212,-1.00223 -8.31491,-3.69342 -10.85064,-5.98045 -5.06815,-4.57105 -5.02177,-3.21915 -1.00831,-29.38924 2.43247,-15.86119 1.36696,-24.35793 -5.47047,-43.62319 -4.89202,-13.78383 -5.36661,-16.51425 -4.22061,-24.28196 1.49823,-10.15508 2.9928,-13.28848 11.48663,-24.08197 3.431,-4.35992 6.24526,-8.91317 6.25391,-10.11834 0.027,-3.76549 7.58978,-17.59978 11.52388,-21.08023 2.06547,-1.82729 5.45078,-7.95667 7.52295,-13.62083 2.07215,-5.66417 4.67675,-10.29848 5.78797,-10.29848 2.96959,0 7.34947,-5.22439 7.34947,-8.76658 0,-1.69021 2.89657,-8.86441 6.4368,-15.942659 3.54024,-7.078254 9.35321,-20.081674 12.9177,-28.896489 6.66236,-16.475626 14.97886,-28.77987 21.31977,-31.542488 15.69589,-6.838429 38.11139,-5.945595 46.1653,1.838815 3.59864,3.478218 4.15927,5.424181 4.39047,15.239226 0.1457,6.188512 1.05139,13.223819 2.0125,15.634014 0.9611,2.410193 1.74746,8.060666 1.74746,12.556603 0,10.430059 2.8563,25.736708 5.5536,29.761228 1.14762,1.71233 5.75694,4.35278 10.24292,5.86766 9.74033,3.28924 11.98804,7.41468 6.89545,12.65593 -4.59307,4.72714 -4.20642,8.73313 2.41909,25.06307 3.12631,7.7055 6.39714,16.77013 7.2685,20.14361 2.58755,10.01779 16.52852,30.45703 28.70234,42.08131 6.65925,6.35864 11.36709,12.1618 11.36565,14.01 -0.01,12.93987 -22.01564,71.07304 -29.72568,78.52768 -3.91908,3.78926 -4.09137,3.81132 -9.67102,1.23871 -5.35851,-2.47065 -5.68021,-2.46612 -5.66948,0.0797 0.0166,3.93497 4.3337,56.62555 8.8941,108.55231 4.71376,53.6727 4.81791,57.729 1.51382,58.95489 -1.35338,0.50213 -10.945,-3.01554 -21.31471,-7.81708 -10.36972,-4.80154 -21.66999,-9.69067 -25.11171,-10.86477 -8.51668,-2.90532 -19.58071,-2.68933 -24.5833,0.47992 -2.26993,1.43805 -7.49705,3.44915 -11.61585,4.46913 -7.32376,1.81364 -7.47722,1.97765 -6.96722,7.44516 0.44579,4.77898 -0.0217,5.70826 -3.22,6.40053 -2.05783,0.44542 -8.67683,1.87276 -14.7089,3.17188 -6.03207,1.2991 -13.40662,2.36201 -16.38787,2.36201 -3.98341,0 -7.00448,1.44443 -11.3953,5.44833 -6.46589,5.89611 -6.75457,6.00817 -10.35443,4.01961 z"
       id="path6130"
       inkscape:connector-curvature="0" />
    <path
       style="fill:#69696a"
       d="m 185.44,489.99713 c 0,-0.79541 -3.80362,-2.51582 -8.4525,-3.82311 -4.64888,-1.30731 -9.9015,-3.41594 -11.6725,-4.68587 -3.12031,-2.23746 -2.94882,-2.5757 5.53883,-10.92492 l 8.75884,-8.61594 -0.37357,-19.88782 c -0.6179,-32.8957 2.59502,-71.70964 10.3188,-124.65689 1.79228,-12.28627 2.2377,-19.69018 1.24247,-20.65245 -0.99526,-0.96228 -3.86233,-0.27618 -7.99742,1.9138 l -6.44598,3.41385 -7.66173,-3.58611 c -10.19101,-4.76996 -11.77196,-8.38689 -8.20475,-18.77097 1.77554,-5.16859 2.86551,-13.5647 3.00129,-23.11921 0.19306,-13.58433 -0.33786,-16.49388 -5.61414,-30.76665 -5.51505,-14.91869 -5.736,-16.25348 -4.12286,-24.90666 0.93747,-5.02875 1.98278,-7.9173 2.32291,-6.41901 0.83638,3.68432 3.15013,3.44065 4.4328,-0.46683 0.57612,-1.75505 3.55343,-5.61392 6.61625,-8.57529 l 5.56877,-5.38429 -4.49525,-1.65338 -4.49526,-1.65338 5.00215,-4.1705 c 5.94931,-4.96019 9.24901,-12.34414 7.87744,-17.62787 -0.77676,-2.99235 0.28979,-5.13075 4.93345,-9.89136 3.25846,-3.34052 6.63153,-8.03476 7.49571,-10.43164 0.86418,-2.39688 2.22487,-4.35796 3.02376,-4.35796 0.79886,0 1.45249,-1.4827 1.45249,-3.29489 0,-2.6139 0.72162,-3.11243 3.49148,-2.41209 2.34564,0.59307 5.38381,-0.52206 9.2575,-3.39789 3.17131,-2.35438 9.02627,-5.60155 13.01102,-7.21595 3.98475,-1.61439 8.94815,-4.38177 11.0298,-6.14972 4.57701,-3.8873 10.58841,-15.666769 9.14643,-17.922642 -0.5705,-0.892515 0.50528,-10.557293 2.39062,-21.477287 2.624,-15.198291 4.40556,-21.237332 7.59666,-25.750879 5.24261,-7.415203 7.71971,-5.616582 7.5477,5.480363 l -0.12381,7.985813 2.16661,-6.050788 c 3.81459,-10.653191 13.78958,-17.716612 22.15324,-15.687002 5.59126,1.356827 7.4673,5.628237 8.15227,18.561222 0.32548,6.145372 1.01519,14.325653 1.53269,18.178403 5.44602,40.544647 5.45614,40.571007 17.20726,44.796237 10.05487,3.61533 11.86501,7.73864 6.03248,13.74141 l -3.64329,3.74964 2.89446,8.94052 c 1.59195,4.91729 4.983,13.41554 7.53565,18.885 2.55267,5.46947 4.64121,11.26074 4.64121,12.86951 0,3.41605 14.92086,29.56362 18.51674,32.44908 2.18402,1.75253 2.16473,2.16609 -0.17834,3.82263 -2.2647,1.60114 -1.54503,2.30874 5.21465,5.1272 4.31308,1.79834 9.94923,5.40266 12.52482,8.00962 l 4.68286,4.73993 -4.48145,16.78044 c -4.67343,17.49932 -16.26368,47.33444 -21.80852,56.13856 -4.17257,6.62522 -7.46296,7.71386 -13.38407,4.42818 -2.87047,-1.59286 -5.39868,-2.10147 -6.26797,-1.26097 -0.86931,0.8405 -0.75411,9.18726 0.28556,20.69336 0.9584,10.60656 3.92261,44.8529 6.58713,76.10299 2.66451,31.25008 5.17718,60.17067 5.5837,64.26799 0.56352,5.67962 0.16156,7.66394 -1.69172,8.35157 -1.33698,0.49604 -12.75283,-3.73193 -25.36856,-9.3955 -19.49263,-8.7508 -24.26332,-10.29652 -31.76376,-10.29157 -5.96617,0.005 -10.52713,1.00861 -14.07581,3.10058 -2.88736,1.70212 -7.75369,3.39506 -10.8141,3.76206 -7.66195,0.91885 -9.17154,2.12401 -8.65257,6.90768 0.58771,5.41741 -1.22489,8.02176 -5.56611,7.99735 -1.94011,-0.0109 -10.29273,1.19257 -18.56137,2.67437 -13.31425,2.38603 -15.56457,3.27859 -19.67331,7.80317 -4.30173,4.73709 -11.1778,6.99026 -11.1778,3.66276 z M 198.32,232.9529 c 0,-3.83866 -1.56663,-7.7668 -4.84009,-12.136 -4.1038,-5.47745 -5.70694,-6.46023 -10.5382,-6.46023 -6.0741,0 -13.60171,5.54321 -13.60171,10.01607 0,5.0531 5.4056,15.08276 9.15191,16.98062 3.24958,1.64624 5.3104,1.58266 11.87984,-0.36645 7.62509,-2.26234 7.94825,-2.58897 7.94825,-8.03401 z m -20.93,-24.16431 c 0,-1.73801 -9.43646,-9.99859 -11.42188,-9.99859 -2.34432,0 -7.89812,4.54813 -7.89812,6.46793 0,0.72347 2.13074,1.3154 4.73498,1.3154 2.60424,0 5.18275,0.7005 5.73002,1.55667 1.0433,1.63216 8.855,2.21316 8.855,0.65859 z m 27.37,-103.16801 c 0,-1.62949 1.08675,-3.83475 2.415,-4.90058 1.32825,-1.065833 2.415,-2.843549 2.415,-3.950482 0,-3.651244 18.88145,-47.48416 21.79521,-50.59719 3.36098,-3.590794 5.57479,-3.925845 5.57479,-0.843716 0,1.212901 0.89695,2.494354 1.99321,2.847672 1.54571,0.498171 1.31096,4.633777 -1.04566,18.420555 -3.0325,17.74091 -5.17731,24.783161 -7.54807,24.783161 -0.6895,0 -4.61402,2.812044 -8.72116,6.248985 -4.10712,3.436945 -9.58494,7.307675 -12.1729,8.601645 -4.40467,2.20228 -4.70542,2.16329 -4.70542,-0.61005 z"
       id="path6128"
       inkscape:connector-curvature="0" />
    <path
       style="fill:#515152"
       d="m 195.84557,481.24587 c 2.74404,-6.23118 5.33543,-20.98271 4.95897,-28.22893 -0.21418,-4.1224 -0.5206,-10.64752 -0.68094,-14.50027 -0.54917,-13.19624 -3.59147,-2.46078 -4.53894,16.01671 -0.75149,14.65524 -1.42294,18.01285 -4.19041,20.95412 -1.81254,1.92637 -4.49197,3.5025 -5.95425,3.5025 -3.2715,0 -9.66,-6.34102 -9.66,-9.58823 0,-2.72516 4.96262,-7.5351 7.77427,-7.5351 1.06064,0 1.99671,-2.55417 2.13935,-5.8375 0.27869,-6.41411 0.21146,-7.05438 -1.91008,-18.18953 -0.83368,-4.37568 -0.85958,-8.39563 -0.0602,-9.34 0.77188,-0.91189 1.79771,-11.49673 2.27962,-23.52189 0.48189,-12.02515 1.56585,-23.61787 2.40881,-25.76157 0.84297,-2.14372 2.03405,-8.76669 2.64686,-14.71775 1.08986,-10.58375 4.36107,-38.91338 6.64183,-57.5201 1.05347,-8.59434 0.93109,-9.16943 -1.53282,-7.20357 -2.28887,1.82624 -2.67767,1.79741 -2.67767,-0.19855 0,-1.28425 -1.06121,-3.18656 -2.35825,-4.22734 -1.89664,-1.52193 -3.33447,-1.22024 -7.34546,1.54122 -5.85876,4.03362 -11.8736,3.45884 -19.29103,-1.84344 -5.91311,-4.22692 -6.16015,-8.70777 -0.91027,-16.51086 2.14774,-3.19227 4.70321,-8.7518 5.67882,-12.3545 2.36084,-8.718 10.79444,-19.23822 18.26716,-22.78677 5.69465,-2.70419 6.29489,-2.71982 10.17012,-0.26477 2.26506,1.43495 4.40191,2.33478 4.74856,1.99962 0.34667,-0.33517 -0.0534,-4.67151 -0.88922,-9.63631 -1.67174,-9.93132 -6.10558,-16.71437 -17.15939,-26.25101 -3.75675,-3.24112 -7.25045,-7.17242 -7.76378,-8.7362 -0.51333,-1.56378 -3.17629,-3.4652 -5.91769,-4.22538 -7.2558,-2.012 -6.47218,-4.45632 1.52265,-4.74952 10.3954,-0.38126 11.01111,-0.91734 11.21964,-9.76875 0.21761,-9.23717 1.76337,-15.00272 3.51072,-13.09473 1.33934,1.46247 4.21717,12.13882 5.69212,21.11709 1.7217,10.48021 7.04018,9.11229 7.06901,-1.81816 0.0205,-7.77041 3.04939,-36.04055 3.95526,-36.9164 2.25837,-2.18357 2.58369,13.08263 0.50686,23.78656 -1.67265,8.62082 -2.03348,15.98816 -1.21134,24.73177 1.54079,16.38627 2.8201,9.9278 4.31685,-21.79333 1.81345,-38.43309 1.68683,-39.82502 -4.04666,-44.47837 -5.13667,-4.16901 -6.15467,-6.1133 -3.20079,-6.1133 0.95362,0 3.7299,-1.92637 6.16951,-4.28083 2.43961,-2.35446 8.15238,-5.5675 12.69504,-7.14009 8.93888,-3.09448 16.55824,-10.09849 23.35005,-21.464267 3.84697,-6.437732 17.26036,-38.098777 19.70202,-46.50481 2.28756,-7.875434 11.62606,-13.667728 19.10819,-11.852039 4.79624,1.163903 8.22037,9.844344 6.72587,17.050557 -0.56118,2.705899 -0.30324,8.072066 0.57323,11.924816 0.87645,3.85275 2.36366,13.942641 3.30489,22.42198 2.3163,20.866733 4.26987,24.412373 16.19074,29.385583 5.27264,2.19966 9.58662,4.98046 9.58662,6.17956 0,1.1991 -1.77272,3.79039 -3.93938,5.75843 -3.57412,3.24649 -3.92938,4.75103 -3.83174,16.22718 0.0794,9.31837 0.48978,11.66719 1.55897,8.92043 0.79822,-2.05068 1.79706,-3.39422 2.21964,-2.98565 2.48953,2.40707 12.04251,23.76418 12.04251,26.92284 0,2.07976 1.8009,6.34725 4.00199,9.48331 4.27256,6.0874 7.69252,15.86286 6.30763,18.02941 -1.18156,1.84848 -6.11357,1.63464 -8.17061,-0.35425 -1.22664,-1.18601 -3.00131,-0.52415 -6.14295,2.29098 -3.43207,3.07536 -4.18814,4.84423 -3.38805,7.92645 0.56646,2.1822 0.21393,5.44183 -0.7834,7.24361 -1.24728,2.25338 -1.31062,4.30854 -0.20286,6.58389 0.88574,1.81935 2.79839,8.21141 4.25034,14.20458 1.45195,5.99317 3.27749,12.99817 4.05676,15.56667 0.77928,2.5685 1.88707,6.90665 2.46174,9.64032 0.69401,3.30126 1.77667,4.69883 3.22404,4.16183 1.34186,-0.49785 2.50001,0.58299 3.01423,2.81301 0.45928,1.99183 0.60982,-0.19168 0.33451,-4.85224 -0.38064,-6.44337 0.1573,-9.05429 2.24529,-10.89667 1.5564,-1.37335 4.33273,-9.16607 6.40918,-17.98959 3.79746,-16.13665 6.73194,-22.57166 10.29306,-22.57166 3.19304,0 10.7291,8.34399 10.7291,11.87937 0,10.42584 -20.33269,65.52213 -26.68466,72.30846 -3.62543,3.87336 -7.17845,3.76866 -14.53553,-0.42833 l -5.98425,-3.41383 1.14794,17.03466 c 0.63136,9.36906 1.62288,23.33917 2.20338,31.04467 0.58051,7.7055 0.95594,17.68762 0.83429,22.1825 -0.12155,4.49487 -0.21772,9.5735 -0.2135,11.28583 0.066,26.79336 -1.15173,59.48476 -2.52229,67.715 -1.27406,7.65064 0.28439,10.10895 7.30901,11.52936 5.05968,1.02309 5.40199,1.47542 4.88888,6.46038 -0.30345,2.94814 -0.83735,5.64297 -1.18643,5.9885 -0.34909,0.34553 -10.34098,-3.62179 -22.20418,-8.81628 -27.21258,-11.91544 -35.69377,-13.26241 -47.3984,-7.52769 -4.80163,2.35256 -10.9447,4.04073 -14.70384,4.04073 -6.42129,0 -6.45559,-0.0319 -6.26743,-5.8375 0.10401,-3.21063 -1.42151,-12.49225 -3.39014,-20.62583 -2.73515,-11.30045 -3.53992,-19.19408 -3.41222,-33.46834 0.18573,-20.75883 -0.73822,-27.24166 -3.8825,-27.24166 -1.65313,0 -1.91005,-2.80941 -1.17446,-12.8425 1.39146,-18.97895 0.5734,-89.8159 -1.11008,-96.12417 -1.27217,-4.76703 -1.4746,-4.93686 -1.61879,-1.3581 -0.0906,2.24962 -1.15733,4.88666 -2.37042,5.86009 -1.21309,0.97341 -4.17603,6.01508 -6.58432,11.2037 -4.16325,8.96966 -4.42347,10.97917 -5.2884,40.83992 -2.26477,78.18951 -3.6226,113.20735 -4.80921,124.02772 -0.7042,6.42125 -0.68208,13.5303 0.0491,15.7979 0.73123,2.26758 1.10314,7.1365 0.82646,10.81981 -0.43257,5.75856 -1.27761,7.13285 -6.03086,9.808 -5.42823,3.05502 -5.50374,3.0564 -4.19162,0.0769 z m 112.14509,-27.5517 c 0.10481,-1.07021 0.006,-2.64634 -0.21716,-3.5025 -0.22431,-0.85617 -0.31413,-13.99055 -0.19962,-29.1875 0.11447,-15.19696 -0.41225,-27.63084 -1.17054,-27.63084 -1.67456,0 -4.12434,54.59599 -2.65115,59.08386 1.14934,3.5013 3.9369,4.31485 4.23847,1.23698 z m -0.60908,-77.50824 c -0.0589,-7.74198 -0.71347,-14.43857 -1.45441,-14.88132 -0.74094,-0.44276 -1.34717,6.28266 -1.34717,14.94539 0,8.98053 0.62513,15.37685 1.45441,14.88131 0.79991,-0.478 1.40614,-7.20343 1.34717,-14.94538 z m 0.12526,-79.7151 c -0.26973,-43.31696 -0.38087,-45.03159 -1.38728,-21.40416 -1.75284,41.15112 -1.72471,68.49333 0.0705,68.49333 1.04431,0 1.50698,-16.54517 1.31679,-47.08917 z M 200.10045,274.28558 c 5.17259,-10.63971 1.51226,-23.1666 -4.66148,-15.95308 -1.2582,1.4701 -1.46433,13.54152 -0.38542,22.57167 0.2192,1.83459 2.20049,-0.7637 5.0469,-6.61859 z m 109.11912,-57.4642 c 0.26774,-23.88708 -1.43527,-19.61364 -2.19957,5.51945 -0.37859,12.44937 -0.10207,18.93739 0.68805,16.14417 0.72656,-2.5685 1.40674,-12.31713 1.51152,-21.66362 z M 223.859,190.57443 c -0.74759,-16.933 -1.28013,-31.29325 -1.18344,-31.91168 0.0968,-0.61843 0.09,-3.58279 -0.0145,-6.58747 -0.20789,-5.95716 -5.5761,-10.96756 -8.60897,-8.03516 -0.96912,0.93701 -1.61628,16.6307 -1.64334,39.85099 -0.0374,32.07275 0.353,38.74391 2.39936,41.00123 1.34421,1.48281 3.78197,5.14774 5.41728,8.14433 l 2.97327,5.44833 1.00997,-8.56167 c 0.55548,-4.70891 0.39831,-22.41592 -0.34927,-39.3489 z m 100.67379,8.86658 c 1.25271,-3.15636 1.27778,-10.80046 0.0316,-9.59545 -1.6303,1.5763 -3.60957,12.05777 -2.27693,12.05777 0.69752,0 1.70797,-1.10803 2.24545,-2.46232 z M 311.02,183.69033 c 0,-4.27182 -0.46862,-5.30656 -1.81412,-4.00564 -1.02478,0.99083 -1.36169,3.49694 -0.77433,5.75966 1.48069,5.70411 2.58845,4.95344 2.58845,-1.75402 z m -123.66635,165.318 c -0.0425,-4.28083 0.54532,-9.18433 1.30635,-10.89666 1.79745,-4.04435 1.79745,7.18011 0,14.01 -1.05714,4.01688 -1.23984,3.58147 -1.30635,-3.11334 z M 156.52817,216.86494 c -2.13745,-5.43559 -1.77247,-6.00643 2.09299,-3.27358 2.28272,1.61388 2.58471,2.74375 1.31818,4.9319 -1.48608,2.56745 -1.81171,2.40914 -3.41117,-1.65832 z m 25.53616,-54.54767 c -1.43676,-1.38917 0.90609,-15.6756 2.57067,-15.6756 2.55206,0 2.82561,7.9937 0.42515,12.42339 -1.20255,2.21912 -2.55067,3.68261 -2.99582,3.25221 z m 30.83229,-60.81894 c 0,-0.85616 2.13452,-4.008413 4.74338,-7.004997 2.60886,-2.996583 4.74338,-4.747833 4.74338,-3.891666 0,0.856166 -2.13452,4.008416 -4.74338,7.005 -2.60886,2.996583 -4.74338,4.747833 -4.74338,3.891663 z m 3.18458,-17.158838 c -0.0753,-2.344831 8.92151,-24.494263 13.08466,-32.213042 4.20213,-7.791015 6.03336,-4.829841 2.86345,4.63031 -3.6803,10.983372 -15.80741,31.957573 -15.94811,27.582732 z"
       id="path6126"
       inkscape:connector-curvature="0" />
    <path
       style="fill:#202021"
       d="m 199.95465,477.8225 c 0.0129,-0.64213 0.72696,-2.21825 1.58535,-3.5025 1.26203,-1.88817 1.5654,-1.66476 1.58535,1.1675 0.0129,1.92638 -0.69985,3.5025 -1.58535,3.5025 -0.8855,0 -1.59891,-0.52538 -1.58535,-1.1675 z m 103.3355,-16.96737 c -9.42203,-4.42369 -18.67562,-7.54032 -24.955,-8.40491 -9.02899,-1.24316 -10.70616,-1.00829 -17.59801,2.4645 -7.55644,3.80765 -18.94714,5.21598 -18.94714,2.34259 0,-0.82282 1.4647,-2.8154 3.25489,-4.42797 3.11496,-2.8059 3.15423,-3.36056 0.91326,-12.90314 -4.17651,-17.78456 -9.06672,-65.68223 -10.74263,-105.21977 -0.90048,-21.24361 -1.42215,-78.62356 -1.15928,-127.51097 0.38192,-71.02728 0.0588,-89.37451 -1.60809,-91.31648 -1.7713,-2.0636 -0.87268,-4.03817 5.956,-13.08732 7.87999,-10.442289 17.8635,-32.033378 23.5019,-50.826888 2.1162,-7.053632 3.84449,-9.724229 7.80359,-12.058347 7.74521,-4.566257 10.72036,-3.982525 10.72036,2.103361 0,2.812215 1.38384,8.94159 3.07521,13.620833 2.91483,8.063938 2.93936,9.008724 0.47049,18.112687 -2.42474,8.941286 -2.41364,10.191065 0.16068,18.087016 4.17203,12.796768 12.23998,22.045968 22.43918,25.724578 6.02367,2.1726 8.4695,3.88539 8.4695,5.93111 0,4.38851 -4.83212,4.33209 -9.42647,-0.11006 -6.92985,-6.70031 -8.07349,-5.37677 -6.90477,7.99105 0.57543,6.58186 1.91366,14.28635 2.97383,17.12111 1.49746,4.00394 1.49634,7.17294 -0.005,14.20087 -2.43931,11.41874 -2.5173,60.69153 -0.142,89.71797 2.04805,25.02734 -0.51708,120.45037 -3.70571,137.85305 -2.95579,16.13194 -4.95754,15.07218 -3.67542,-1.94583 0.71003,-9.42458 0.55774,-15.1775 -0.4018,-15.1775 -1.87807,0 -4.82933,12.72094 -6.13951,26.46333 -0.53056,5.56508 -2.81649,17.61904 -5.07983,26.78658 -2.26334,9.16752 -3.75049,17.58708 -3.30476,18.71012 1.09188,2.75117 23.79481,13.77768 28.69008,13.93439 6.10649,0.19549 17.75845,4.66888 17.11208,6.56963 -1.16686,3.43141 -7.07603,2.14183 -21.74558,-4.74559 z M 195.89169,364.575 c 0.4625,-17.12333 1.8333,-39.44346 3.04624,-49.60027 1.21295,-10.15682 1.84787,-19.78869 1.41094,-21.40417 -0.90712,-3.35387 -3.02681,-3.86777 -4.08928,-0.99139 -0.39532,1.07021 -1.3038,1.4177 -2.01885,0.7722 -0.71506,-0.64551 0.12719,-2.74701 1.87176,-4.67 3.54533,-3.90806 9.44844,-17.88701 10.88912,-25.78617 0.51824,-2.84157 0.21873,-8.28813 -0.66561,-12.10349 -2.32543,-10.03281 -2.26633,-28.6715 0.10819,-34.10004 1.74119,-3.98077 2.13211,-4.21052 2.64878,-1.55667 0.33336,1.71233 2.14513,10.81883 4.02614,20.23667 4.34534,21.75613 4.07876,27.85739 -1.95327,44.70267 -4.97609,13.89644 -6.35794,25.43859 -10.67563,89.17066 -0.58004,8.56167 -2.04118,18.01842 -3.24699,21.015 -1.92567,4.78552 -2.09008,1.66087 -1.35148,-25.685 z m 116.25349,-42.84227 c -1.67293,-5.09159 -0.73836,-80.25557 1.01895,-81.95092 2.11158,-2.03711 5.69721,3.95507 6.5688,10.97755 0.43728,3.5231 1.91785,15.16189 3.29018,25.86397 1.37234,10.70209 2.49328,20.83432 2.49101,22.51608 -0.003,2.78281 -0.23213,2.83728 -2.5401,0.60576 -1.66419,-1.60906 -3.31957,-8.54663 -4.81542,-20.18106 -1.25371,-9.75101 -2.44577,-18.77986 -2.64903,-20.06411 -0.20327,-1.28425 -0.75319,13.076 -1.22207,31.91167 -0.51292,20.60508 -1.36628,32.68296 -2.14232,30.32106 z M 336.78,294.87334 c 0,-6.835 3.37693,-29.49062 5.81323,-39.00059 4.44213,-17.33965 10.36646,-35.28942 11.6473,-35.28942 0.69137,0 3.18191,1.94258 5.53452,4.31683 l 4.27748,4.31684 -6.26248,20.97899 c -6.67496,22.36083 -17.16521,48.22068 -19.56108,48.22068 -0.79694,0 -1.44897,-1.59451 -1.44897,-3.54333 z m -175.49,-6.94552 c 0,-2.58603 1.37885,-5.80179 3.1535,-7.35463 1.73443,-1.51764 4.37628,-6.35458 5.87079,-10.74877 6.36348,-18.71001 21.49405,-32.12551 26.9729,-23.91546 1.5402,2.30798 0.87906,3.63001 -4.08272,8.16383 -4.96685,4.53846 -6.10157,6.81081 -7.0444,14.10698 -0.77935,6.03113 -0.47971,9.8608 0.97751,12.49345 2.88293,5.20837 0.7076,6.88811 -10.789,8.33103 -5.18297,0.65052 -10.69145,1.70838 -12.24108,2.3508 -2.31987,0.96174 -2.8175,0.35642 -2.8175,-3.42723 z m 31.7505,-72.63468 c -4.12701,-4.62193 -8.52063,-11.25756 -9.76363,-14.74587 -2.09675,-5.88426 -2.04314,-6.40887 0.74218,-7.26362 4.0065,-1.22949 5.67703,-0.0299 6.9873,5.01779 0.60119,2.31596 3.2172,6.54996 5.81336,9.40887 3.27796,3.6097 4.72029,6.84628 4.72029,10.5922 0,2.96678 -0.22406,5.39416 -0.49792,5.39416 -0.27388,0 -3.87458,-3.78158 -8.00158,-8.40353 z M 314.24,198.1954 c 0,-1.28425 0.7245,-2.76792 1.61,-3.29707 0.8855,-0.52914 1.61,0.0887 1.61,1.37294 0,1.28425 -0.7245,2.76792 -1.61,3.29706 -0.8855,0.52915 -1.61,-0.0887 -1.61,-1.37293 z M 206.50179,128.11521 c -1.51578,-1.76591 -1.16815,-2.88398 1.69997,-5.46753 4.71233,-4.24477 5.93997,-4.09866 5.01169,0.59645 -1.06035,5.36306 -4.28223,7.70139 -6.71166,4.87108 z m 17.17571,1.02017 c -3.52595,-0.78048 -3.62219,-4.06496 -0.21563,-7.35868 3.50299,-3.38694 6.37623,-2.16046 5.71143,2.438 -0.67031,4.63661 -1.88119,5.72078 -5.4958,4.92068 z"
       id="path6124"
       inkscape:connector-curvature="0" />
  </g>
</svg>
