<?xml version="1.0" encoding="UTF-8" standalone="no"?>
<svg
   xmlns:dc="http://purl.org/dc/elements/1.1/"
   xmlns:cc="http://creativecommons.org/ns#"
   xmlns:rdf="http://www.w3.org/1999/02/22-rdf-syntax-ns#"
   xmlns:svg="http://www.w3.org/2000/svg"
   xmlns="http://www.w3.org/2000/svg"
   xmlns:sodipodi="http://sodipodi.sourceforge.net/DTD/sodipodi-0.dtd"
   xmlns:inkscape="http://www.inkscape.org/namespaces/inkscape"
   viewBox="0 0 512 512"
   id="svg10325"
   version="1.1"
   inkscape:version="0.48.4 r9939"
   width="100%"
   height="100%"
   sodipodi:docname="crappy wand.svg">
  <metadata
     id="metadata10351">
    <rdf:RDF>
      <cc:Work
         rdf:about="">
        <dc:format>image/svg+xml</dc:format>
        <dc:type
           rdf:resource="http://purl.org/dc/dcmitype/StillImage" />
        <dc:title></dc:title>
      </cc:Work>
    </rdf:RDF>
  </metadata>
  <defs
     id="defs10349" />
  <sodipodi:namedview
     pagecolor="#ffffff"
     bordercolor="#666666"
     borderopacity="1"
     objecttolerance="10"
     gridtolerance="10"
     guidetolerance="10"
     inkscape:pageopacity="0"
     inkscape:pageshadow="2"
     inkscape:window-width="2560"
     inkscape:window-height="1378"
     id="namedview10347"
     showgrid="false"
     inkscape:zoom="1.84375"
     inkscape:cx="251.49308"
     inkscape:cy="281.34047"
     inkscape:window-x="-8"
     inkscape:window-y="-8"
     inkscape:window-maximized="1"
     inkscape:current-layer="svg10325" />
  <path
     d="m0,0h512v512h-512z"
     id="path10327" />
  <path
     style="fill:#502d16;stroke:#000000;stroke-width:18.68857956000000100"
     inkscape:connector-curvature="0"
     id="path10333"
     d="M 240.60294,239.75564 9.2102866,468.54311 V 501.2313 H 54.56747 L 279.95735,279.11379 c 43.10147,-43.10708 59.21851,-69.29538 40.29632,-84.81625 -19.41931,-15.93014 -47.95116,13.75666 -79.65073,45.45623 z" />
  <path
     style="fill:#ffff00;fill-rule:evenodd"
     inkscape:connector-curvature="0"
     id="path10335"
     d="m 368.29565,429.84908 c -29.99122,-56.81135 -32.39849,-56.50694 -89.26506,-46.51713 60.76699,-19.55003 76.06586,-46.06808 57.46597,-114.88748 30.85212,62.10851 42.91954,74.89638 95.05624,81.27495 -49.49528,11.58539 -69.87994,19.79217 -63.25715,80.12966 z" />
  <path
     style="fill:#ffffff;fill-rule:evenodd"
     inkscape:connector-curvature="0"
     id="path10337"
     d="m 472.65392,196.09889 c -28.6596,41.13126 -30.91503,53.67785 -17.61485,91.67804 -18.33402,-34.85499 -32.71802,-42.4176 -88.09772,-55.84282 43.26635,3.58962 69.22633,1.9383 105.71409,-35.83632 z" />
  <path
     style="fill:#ffff00;fill-rule:evenodd"
     inkscape:connector-curvature="0"
     id="path10339"
     d="m 353.70159,158.13957 c 39.27088,-53.39474 40.7161,-75.918083 0.0712,-124.778191 39.19209,37.262053 68.04602,35.426946 130.94177,-7.568664 -49.1478,56.048719 -54.75171,61.616691 -31.35341,120.882355 -23.73259,-35.1488 -48.03145,-39.8089 -99.65952,11.4645 z" />
  <path
     style="fill:#ffffff;fill-rule:evenodd"
     inkscape:connector-curvature="0"
     id="path10341"
     d="m 74.209,202.42079 c 39.56844,27.01359 53.18109,30.95304 99.18951,29.5316 -46.32663,8.99526 -57.9215,17.95669 -83.906842,47.55382 9.476237,-26.97971 10.468124,-43.82682 -15.283066,-77.0836 z" />
  <path
     style="fill:#ffffff;fill-rule:evenodd"
     inkscape:connector-curvature="0"
     id="path10343"
     d="m 144.88792,26.523606 c -1.41181,36.448878 7.82969,51.284678 34.7525,85.535974 C 148.11718,80.555654 129.69758,73.573754 63.785345,60.762094 c 50.296225,0.51704 65.904685,-1.94656 81.103375,-34.236821 z" />
  <path
     style="fill:#ffffff;fill-rule:evenodd"
     inkscape:connector-curvature="0"
     id="path10345"
     d="m 246.41859,368.62296 c -17.20867,26.11382 -24.86177,31.74287 -52.33666,26.48658 20.30869,12.08781 21.0709,19.69259 16.5398,41.64339 14.35825,-25.59695 30.60206,-23.0452 56.75572,-20.64286 -21.54031,-12.61961 -28.83955,-18.96886 -20.95917,-47.48895 z" />
  <path
     style="fill:#ffff00;fill-rule:evenodd"
     inkscape:connector-curvature="0"
     id="path10345-2"
     d="m 258.83439,186.48072 c -37.74141,-11.97317 -47.00717,-10.59322 -48.27787,22.89066 -9.36628,-33.9402 -18.7024,-43.22588 -47.57989,-63.26793 36.27506,14.25698 37.7247,-4.91671 42.20241,-33.87615 9.68146,35.77302 15.56655,50.21767 53.65758,74.25582 z" />
  <path
     style="fill:#ffffff;fill-rule:evenodd"
     inkscape:connector-curvature="0"
     id="path10337-7"
     d="m 237.77917,57.191761 c 46.20188,12.986985 58.3899,10.988735 89.39116,-13.559075 -26.63346,28.15226 -29.35578,43.821096 -25.42242,99.056764 -9.41062,-40.91561 -18.55251,-64.230648 -63.97019,-85.498727 z" />
</svg>
