<?xml version="1.0" encoding="UTF-8" standalone="no"?>
<svg
   xmlns:dc="http://purl.org/dc/elements/1.1/"
   xmlns:cc="http://creativecommons.org/ns#"
   xmlns:rdf="http://www.w3.org/1999/02/22-rdf-syntax-ns#"
   xmlns:svg="http://www.w3.org/2000/svg"
   xmlns="http://www.w3.org/2000/svg"
   xmlns:sodipodi="http://sodipodi.sourceforge.net/DTD/sodipodi-0.dtd"
   xmlns:inkscape="http://www.inkscape.org/namespaces/inkscape"
   sodipodi:docname="knobby wand.svg"
   height="100%"
   width="100%"
   inkscape:version="0.48.4 r9939"
   version="1.1"
   id="svg8438"
   viewBox="0 0 512 512">
  <metadata
     id="metadata8464">
    <rdf:RDF>
      <cc:Work
         rdf:about="">
        <dc:format>image/svg+xml</dc:format>
        <dc:type
           rdf:resource="http://purl.org/dc/dcmitype/StillImage" />
        <dc:title></dc:title>
      </cc:Work>
    </rdf:RDF>
  </metadata>
  <defs
     id="defs8462">
    <linearGradient
       id="linearGradient4077">
      <stop
         id="stop4079"
         offset="0"
         style="stop-color:#aa4400;stop-opacity:1;" />
      <stop
         style="stop-color:#ff9f00;stop-opacity:1;"
         offset="0.22752622"
         id="stop4081" />
      <stop
         style="stop-color:#803300;stop-opacity:1;"
         offset="0.4948855"
         id="stop4083" />
      <stop
         id="stop4085"
         offset="1"
         style="stop-color:#562200;stop-opacity:1;" />
    </linearGradient>
    <linearGradient
       id="linearGradient4057">
      <stop
         style="stop-color:#aa4400;stop-opacity:1;"
         offset="0"
         id="stop4059" />
      <stop
         id="stop4067"
         offset="0.22752622"
         style="stop-color:#ecd1a4;stop-opacity:1;" />
      <stop
         id="stop4065"
         offset="0.50136983"
         style="stop-color:#803300;stop-opacity:1;" />
      <stop
         style="stop-color:#562200;stop-opacity:1;"
         offset="1"
         id="stop4061" />
    </linearGradient>
    <linearGradient
       id="linearGradient3890">
      <stop
         style="stop-color:#701b1b;stop-opacity:1;"
         offset="0"
         id="stop3892" />
      <stop
         style="stop-color:#e31600;stop-opacity:1;"
         offset="1"
         id="stop3894" />
    </linearGradient>
    <linearGradient
       id="linearGradient3882">
      <stop
         style="stop-color:#600b0b;stop-opacity:1;"
         offset="0"
         id="stop3884" />
      <stop
         style="stop-color:#d11414;stop-opacity:1;"
         offset="1"
         id="stop3886" />
    </linearGradient>
    <linearGradient
       id="linearGradient3872">
      <stop
         style="stop-color:#800600;stop-opacity:1;"
         offset="0"
         id="stop3874" />
      <stop
         style="stop-color:#ff0004;stop-opacity:0;"
         offset="1"
         id="stop3876" />
    </linearGradient>
    <filter
       id="filter4074"
       inkscape:label="Black Light"
       inkscape:menu="Color"
       inkscape:menu-tooltip="Light areas turn to black"
       x="0"
       width="1"
       y="0"
       height="1"
       color-interpolation-filters="sRGB">
      <feColorMatrix
         id="feColorMatrix4076"
         type="luminanceToAlpha"
         result="result2" />
      <feComposite
         in2="SourceGraphic"
         id="feComposite4078"
         operator="arithmetic"
         in="result2"
         k3="2"
         result="result4" />
      <feBlend
         in2="result2"
         id="feBlend4080"
         in="result4"
         mode="multiply"
         result="result3" />
      <feComposite
         in2="SourceGraphic"
         id="feComposite4082"
         operator="in"
         in="result3" />
    </filter>
  </defs>
  <sodipodi:namedview
     pagecolor="#000000"
     bordercolor="#666666"
     borderopacity="1"
     objecttolerance="10"
     gridtolerance="10"
     guidetolerance="10"
     inkscape:pageopacity="0"
     inkscape:pageshadow="2"
     inkscape:window-width="1190"
     inkscape:window-height="1126"
     id="namedview8460"
     showgrid="false"
     inkscape:zoom="1"
     inkscape:cx="232.37126"
     inkscape:cy="191.99105"
     inkscape:window-x="160"
     inkscape:window-y="130"
     inkscape:window-maximized="0"
     inkscape:current-layer="svg8438" />
  <path
     style="fill:#000000"
     id="path3978"
     d="M -13.466093,0.1885736 H 514.89024 V 516.42957 H -13.466093 z"
     inkscape:connector-curvature="0" />
  <path
     transform="matrix(0.92592215,0,0,1,-12.92858,0)"
     sodipodi:end="6.1122693"
     sodipodi:start="6.11213"
     d="m 101.95774,-78.577314 a 39.244427,23.688076 0 0 1 9.3e-4,0.0033 l -38.672613,4.028989 z"
     sodipodi:ry="23.688076"
     sodipodi:rx="39.244427"
     sodipodi:cy="-74.545074"
     sodipodi:cx="63.286057"
     id="path4121"
     style="fill:#333333;fill-opacity:1;fill-rule:nonzero;stroke:none"
     sodipodi:type="arc" />
  <path
     transform="matrix(0.92592215,0,0,1,-12.92858,0)"
     sodipodi:end="6.1122693"
     sodipodi:start="6.11213"
     d="m 76.035958,-54.360671 a 10.606602,11.755651 0 0 1 2.51e-4,0.0016 l -10.452057,1.999461 z"
     sodipodi:ry="11.755651"
     sodipodi:rx="10.606602"
     sodipodi:cy="-52.359596"
     sodipodi:cx="65.584152"
     id="path4123"
     style="fill:#333333;fill-opacity:1;fill-rule:nonzero;stroke:none"
     sodipodi:type="arc" />
  <path
     transform="matrix(0.92592215,0,0,1,-12.92858,0)"
     sodipodi:end="6.1122693"
     sodipodi:start="6.11213"
     d="m 69.424272,-57.251206 a 15.46796,16.793785 0 0 1 3.67e-4,0.0023 l -15.242583,2.856372 z"
     sodipodi:ry="16.793785"
     sodipodi:rx="15.46796"
     sodipodi:cy="-54.392529"
     sodipodi:cx="54.182056"
     id="path4125"
     style="fill:#333333;fill-opacity:1;fill-rule:nonzero;stroke:none"
     sodipodi:type="arc" />
  <g
     id="g4147"
     transform="matrix(-2.9248742,0,0,-2.824957,818.22251,946.82114)">
    <path
       style="fill:#a09d9d"
       d="m 253.57152,308.75701 c -7.93567,-8.11635 -27.28567,-27.81582 -43,-43.77659 -30.24031,-30.71455 -70.04422,-71.46292 -86.37395,-88.42343 -12.77815,-13.27174 -15.76099,-18.05121 -12.13423,-19.44292 2.46924,-0.94754 6.50827,1.71681 12.18802,8.03982 6.02668,6.70923 5.78075,6.45351 9.74864,10.13688 1.65,1.53168 6.98728,7.15838 11.86063,12.50376 4.87335,5.34538 11.51085,12.42733 14.75,15.73765 3.23915,3.31033 5.88937,6.22734 5.88937,6.48225 0,0.25492 2.6424,3.05595 5.872,6.22452 3.22959,3.16858 11.21709,11.38992 17.75,18.26965 19.24636,20.26814 47.15299,49.61772 57.46362,60.43488 5.2721,5.53108 12.57214,13.20652 16.22233,17.05652 6.26904,6.61221 8.57564,11.48943 5.44205,11.50701 -0.6875,0.004 -7.74282,-6.63364 -15.67848,-14.75 z"
       id="path4155"
       inkscape:connector-curvature="0" />
    <path
       style="fill:#575253"
       d="M 235.93435,290.2389 C 198.08394,252.0012 155.5,208.52304 155.5,208.11551 c 0,-0.15923 -7.7625,-8.18718 -17.25,-17.83988 -24.39734,-24.82216 -26.75,-27.48896 -26.75,-30.32176 0,-1.75828 0.54757,-2.45387 1.93169,-2.45387 2.06841,0 10.89836,6.8279 11.00456,8.50945 0.0351,0.5552 0.96375,1.57152 2.06375,2.25848 1.1,0.68696 2,1.9202 2,2.74054 0,0.82034 0.47492,1.49153 1.05538,1.49153 1.15265,0 8.26762,7.0994 19.94462,19.90098 4.125,4.52227 10.875,11.72811 15,16.01298 4.125,4.28487 15.36559,16.06963 24.9791,26.18835 9.6135,10.11873 22.8885,24.03479 29.5,30.92457 6.61149,6.88979 15.86078,16.56479 20.55398,21.5 4.69319,4.93522 13.58069,14.243 19.75,20.68396 10.49359,10.95566 13.0601,14.78916 9.90127,14.78916 -0.7236,0 -15.6861,-14.5175 -33.25,-32.2611 z"
       id="path4153"
       inkscape:connector-curvature="0" />
    <path
       style="fill:#423c3c"
       d="m 240.12914,294.34313 c -15.1543,-15.48628 -27.27581,-28.60581 -26.9367,-29.15451 0.33912,-0.5487 0.14839,-0.70828 -0.42383,-0.35463 -1.3087,0.80882 -43.52856,-42.10436 -42.71663,-43.4181 0.32817,-0.53099 0.22573,-0.901 -0.22765,-0.82225 -1.75825,0.30544 -3.32433,-0.13071 -3.32433,-0.92581 0,-0.45769 -8.4375,-9.4247 -18.75,-19.92669 -35.20337,-35.8502 -36.23026,-36.99744 -36.24341,-40.49114 -0.004,-0.9625 0.66841,-1.75 1.49341,-1.75 0.825,0 1.5,0.59656 1.5,1.32569 0,1.357 4.06104,5.67431 5.3375,5.67431 0.38974,0 -0.0572,-1.2375 -0.99319,-2.75 -1.27788,-2.06496 -0.79045,-1.79005 1.95669,1.10358 2.99104,3.15054 3.47333,4.19957 2.64356,5.75 -0.55821,1.04303 -0.8109,1.89642 -0.56153,1.89642 0.24937,0 1.23753,0.3009 2.19592,0.66867 1.44387,0.55406 1.63781,0.25412 1.13153,-1.75 -0.59217,-2.34411 -0.56508,-2.35717 0.87871,-0.42359 0.81934,1.09729 1.40505,2.89729 1.30157,4 -0.24469,2.60767 1.08055,5.64068 2.17035,4.96715 0.46835,-0.28945 0.59805,-1.18687 0.28823,-1.99426 -0.30983,-0.80738 -0.0955,-1.46797 0.47628,-1.46797 1.03004,0 1.41605,0.92774 2.60049,6.25 0.77063,3.46285 2.98724,3.69261 2.32747,0.24125 -0.3663,-1.91615 -0.18609,-2.26517 0.76291,-1.47757 1.13591,0.94273 2.90412,7.05461 2.25851,7.80666 -0.15125,0.17619 0.52196,0.76635 1.49603,1.31146 0.97407,0.54512 1.51001,1.41346 1.19098,1.92966 -0.31902,0.5162 -0.10349,0.93854 0.47897,0.93854 1.46821,0 1.32472,-1.55053 -0.49044,-5.29966 L 140.40107,183 l 2.03641,2.34466 c 1.12003,1.28957 2.49552,4.04965 3.05664,6.13351 0.56113,2.08387 1.67152,4.32937 2.46753,4.99 1.23518,1.02511 1.31901,0.75383 0.57197,-1.85094 -0.48143,-1.67865 -1.15272,-3.62925 -1.49175,-4.33466 -0.33903,-0.70541 -0.0371,-0.47178 0.67086,0.5192 0.708,0.99097 5.33727,6.01143 10.28727,11.15659 4.95,5.14516 15.975,16.69874 24.5,25.67463 18.48852,19.46638 32.27717,33.84986 49.07626,51.19337 11.77798,12.15967 14.9708,15.9879 11.80347,14.15251 -0.81459,-0.47204 -1.0384,-0.42665 -0.5464,0.1108 0.45834,0.50068 0.99915,0.68533 1.20182,0.41033 0.71198,-0.9661 8.37479,7.33771 7.76311,8.41251 -0.3404,0.59812 -0.25067,0.75389 0.19941,0.34617 1.11957,-1.01424 3.6378,1.21311 2.83681,2.50914 -0.35392,0.57266 -0.19527,0.76418 0.35256,0.4256 1.3435,-0.83033 7.71316,5.85003 6.87344,7.20872 -0.42583,0.68901 -0.0174,0.84234 1.13758,0.42708 0.99107,-0.35634 1.4673,-0.27904 1.0583,0.17176 -0.409,0.45079 0.16103,1.45328 1.26673,2.22775 1.1057,0.77446 1.70831,1.89685 1.33913,2.4942 -0.3899,0.63088 -0.20838,0.80003 0.4331,0.40357 0.94539,-0.58429 3.20468,2.10017 3.20468,3.80776 0,2.69843 -6.58212,-3.28126 -30.37086,-27.59113 z M 248,297.5 c -0.33992,-0.55 -1.15398,-0.99311 -1.80902,-0.98469 -0.71561,0.009 -0.59227,0.40223 0.30902,0.98469 1.92112,1.24153 2.2673,1.24153 1.5,0 z m -16.53932,-17.42825 c -2.44064,-2.43553 -4.6547,-4.21106 -4.92014,-3.94562 -0.26544,0.26544 0.17935,0.90126 0.98842,1.41293 0.80907,0.51167 1.1014,0.93721 0.64961,0.94563 -1.0101,0.0188 0.97917,1.96173 4.32143,4.2207 3.93757,2.66133 3.72373,2.11946 -1.03932,-2.63364 z M 219.8883,268.44179 c -3.23856,-3.36321 -9.6008,-9.87307 -14.1383,-14.46635 -4.5375,-4.59327 -8.25,-8.90431 -8.25,-9.58009 0,-0.67578 -0.25905,-0.96963 -0.57567,-0.65301 -0.31662,0.31661 -3.09486,-2.19589 -6.17387,-5.58334 C 177.35613,223.42287 168.5,214.92627 168.5,216.81181 c 0,0.68587 3.48019,4.41413 4.25,4.55295 0.4125,0.0744 0.64629,0.24774 0.51954,0.38524 -0.66122,0.71726 5.66489,6.59954 6.52548,6.06767 0.57413,-0.35483 0.70783,-0.1313 0.30821,0.51529 -0.4099,0.66325 1.30699,3.10474 4.0955,5.82395 2.6407,2.57509 4.69662,5.03218 4.56871,5.46021 -0.12791,0.42803 1.55319,2.03929 3.73578,3.58056 2.18259,1.54128 4.24083,3.62373 4.57387,4.62768 0.33304,1.00395 0.80443,1.62645 1.04755,1.38333 0.84011,-0.8401 7.3698,6.49129 6.71913,7.5441 -0.38022,0.6152 -0.17595,0.76153 0.48919,0.35044 1.44818,-0.89502 10.41184,8.19166 9.51394,9.6445 -0.36076,0.58371 -0.21557,0.78914 0.32263,0.45651 0.5382,-0.33262 2.07023,0.50259 3.40451,1.85603 1.33428,1.35344 3.29321,3.35131 4.35319,4.43971 1.05997,1.08839 2.13471,1.77142 2.3883,1.51783 0.25359,-0.2536 -2.18866,-3.2128 -5.42723,-6.57602 z M 152.6125,197.2125 c -0.81667,-0.81667 -1.1125,-0.70476 -1.1125,0.42083 0,1.98786 1.3447,3.33256 1.84167,1.84167 0.21083,-0.6325 -0.1173,-1.65063 -0.72917,-2.2625 z m -30.6552,-30.6434 c 0.31643,-0.512 0.16514,-1.18441 -0.3362,-1.49426 -0.50134,-0.30984 -1.16956,0.10906 -1.48493,0.9309 -0.6217,1.62012 0.88076,2.0849 1.82113,0.56336 z"
       id="path4151"
       inkscape:connector-curvature="0" />
    <path
       style="fill:#2a2626"
       d="M 249.36498,303.51477 C 226.12241,279.48721 226.13428,279.5 227.08691,279.5 c 0.43825,0 2.51048,1.83773 4.60496,4.08385 2.09447,2.24612 3.80813,3.77775 3.80813,3.40362 0,-0.37414 1.4328,0.93813 3.184,2.91614 3.4552,3.90272 5.06852,4.61043 4.20911,1.84639 -0.41631,-1.33893 -0.24145,-1.2802 0.74439,0.25 0.70867,1.1 1.30515,2.63626 1.3255,3.41391 0.0204,0.77765 0.66214,1.62353 1.4262,1.87973 0.93592,0.31383 1.14307,0.0156 0.63488,-0.91391 -0.41487,-0.75885 2.6307,1.99454 6.76794,6.11864 4.13724,4.12411 7.11608,7.74941 6.61963,8.05623 -0.97822,0.60457 7.62024,9.9454 9.15497,9.9454 0.51336,0 0.93338,0.45 0.93338,1 0,3.0314 -4.5524,-0.84255 -21.13502,-17.98523 z m 9.24537,5.23523 C 257.24742,306.26552 247.5,296.87619 247.5,298.04781 c 0,1.14574 4.75894,6.45089 5.79047,6.45507 0.39024,0.002 1.60953,1.35028 2.70953,2.99712 2.12992,3.18875 4.22402,4.19154 2.61035,1.25 z M 235.5,284 c -2.98742,-3.025 -5.20668,-5.5 -4.93168,-5.5 0.275,0 2.94426,2.475 5.93168,5.5 2.98742,3.025 5.20668,5.5 4.93168,5.5 -0.275,0 -2.94426,-2.475 -5.93168,-5.5 z m -14.56498,-9.64074 c -2.75862,-2.87711 -3.24548,-3.74894 -1.62853,-2.91623 1.26856,0.65329 2.55322,1.83078 2.85478,2.61664 0.30157,0.78586 0.90399,1.20901 1.33873,0.94033 0.77292,-0.47769 2.37712,2.45621 1.70856,3.12477 -0.18618,0.18619 -2.10927,-1.5083 -4.27354,-3.76551 z M 226.90499,275.25 225,273 l 2.25,1.90499 c 2.11444,1.79022 2.70524,2.59501 1.90499,2.59501 -0.18976,0 -1.20226,-1.0125 -2.25,-2.25 z M 209.47111,262.78568 C 205.912,259.0928 204.125,256.936 205.5,257.99278 c 1.375,1.05679 3.63541,3.06573 5.02314,4.46433 1.38773,1.39859 3.38595,3.02504 4.44048,3.61433 1.05454,0.5893 2.09413,1.6018 2.31019,2.25 0.87843,2.63529 -1.67051,0.8269 -7.8027,-5.53576 z m 7.5329,2.43438 c -1.03905,-1.22103 -4.14258,-4.69506 -6.89671,-7.72006 -3.69791,-4.06159 -3.07113,-3.61369 2.39661,1.71264 4.07228,3.96696 7.1758,7.44099 6.89672,7.72006 -0.27908,0.27908 -1.35756,-0.49161 -2.39662,-1.71264 z m -18.98609,-13.7017 c -2.13838,-2.18991 -3.63101,-4.23861 -3.31695,-4.55267 0.31406,-0.31406 1.52232,0.63837 2.68503,2.11651 1.1627,1.47813 2.114,2.33209 2.114,1.89767 0,-0.43441 0.9,0.0246 2,1.02013 2.05273,1.85769 2.61719,3.5 1.20295,3.5 -0.43838,0 -2.54664,-1.79174 -4.68503,-3.98164 z m -2.00121,-8.23066 c -8.24343,-8.5265 -12.10532,-13.44379 -6.11623,-7.7877 4.49959,4.24941 13.18501,14.0137 12.44264,13.98823 -0.18872,-0.006 -3.0356,-2.79672 -6.32641,-6.20053 z M 188.90499,242.25 187,240 l 2.25,1.90499 c 1.2375,1.04774 2.25,2.06024 2.25,2.25 0,0.80025 -0.80479,0.20945 -2.59501,-1.90499 z M 184.5,237.89235 c 0,-0.82763 1.94173,-1.29565 2.38691,-0.57533 0.28881,0.46731 -0.13009,0.84965 -0.9309,0.84965 -0.8008,0 -1.45601,-0.12345 -1.45601,-0.27432 z m -3.80383,-4.68996 c -1.75789,-1.81368 -3.19617,-3.64582 -3.19617,-4.07143 0,-0.77189 0.34492,-0.44519 4.92431,4.66417 3.4234,3.81957 2.11272,3.37002 -1.72814,-0.59274 z m -10.00854,-10.01121 c -2.3032,-2.34678 -4.18763,-4.81235 -4.18763,-5.47903 0,-0.66668 -0.5625,-1.09965 -1.25,-0.96215 -0.6875,0.1375 -1.25574,-0.50574 -1.26275,-1.42942 -0.007,-0.92368 -0.34452,-2.01118 -0.75,-2.41667 -0.40549,-0.40548 -0.73725,-0.12224 -0.73725,0.62942 0,1.00352 -0.29571,1.07096 -1.11287,0.2538 -1.28481,-1.28481 -0.23215,-3.6184 1.22577,-2.71735 0.53609,0.33132 1.63,0.0586 2.4309,-0.60614 0.89864,-0.7458 1.4562,-0.81067 1.4562,-0.16942 0,0.57151 -0.52191,1.21308 -1.15979,1.42571 -0.86808,0.28936 -0.87573,0.87623 -0.0304,2.33333 0.62116,1.07071 1.14306,1.52323 1.15979,1.00561 0.0167,-0.51762 0.70651,-0.0676 1.53286,1 1.48005,1.91218 1.49356,1.9113 0.90567,-0.0589 -0.46643,-1.56315 -0.373,-1.68413 0.42777,-0.55388 0.63627,0.89806 0.68058,2.08884 0.11692,3.14204 -0.70316,1.31388 -0.0873,2.39665 2.73389,4.80644 2.00284,1.71078 3.42711,3.32492 3.16504,3.58699 -0.26206,0.26206 -2.36091,-1.44362 -4.66411,-3.79041 z M 176,222.5 c -0.99549,-1.1 -1.39848,-2 -0.89553,-2 0.50294,0 1.4765,0.9 2.16346,2 0.68696,1.1 1.08995,2 0.89553,2 -0.19442,0 -1.16797,-0.9 -2.16346,-2 z m -17.51531,-13.19098 c -0.009,-1.34377 -0.32244,-1.83764 -0.75,-1.1814 -0.47579,0.73025 -2.36066,-0.50313 -5.34874,-3.5 -4.46756,-4.4807 -4.57217,-4.72287 -3.2951,-7.62762 1.36716,-3.10967 1.6027,-2.67687 1.74685,3.20985 0.0394,1.60964 0.38191,1.93782 1.26096,1.20827 0.82883,-0.68787 1.37007,-0.59699 1.72796,0.29014 0.40582,1.00593 0.75583,0.95985 1.58194,-0.20826 0.9154,-1.29439 1.06291,-1.26012 1.07613,0.25 0.008,0.9625 0.54994,1.6375 1.20338,1.5 1.38092,-0.29058 2.93573,7.05545 1.66016,7.8438 -0.46652,0.28833 -0.85512,-0.51482 -0.86354,-1.78478 z m 0.0153,-3.70203 c 0,-1.26299 -2.82608,-2.19742 -3.47421,-1.14873 -0.29604,0.47901 0.0271,1.09883 0.71798,1.37738 1.98148,0.79886 2.75623,0.73458 2.75623,-0.22865 z m 2.62354,2.35435 c -0.96498,-2.51469 -0.68031,-3.16355 0.49853,-1.13634 0.58369,1.00375 0.8506,2.03566 0.59313,2.29313 -0.25747,0.25747 -0.74872,-0.26309 -1.09166,-1.15679 z M 145.25,197.10795 c -0.9625,-0.73064 -1.75129,-1.72883 -1.75288,-2.21819 C 143.49554,194.40039 142.14684,193.1 140.5,192 c -1.64684,-1.1 -2.99554,-2.58906 -2.99712,-3.30902 -0.002,-0.71996 -0.41091,-1.05684 -0.90962,-0.74862 -0.49871,0.30822 -0.66939,-0.34723 -0.3793,-1.45656 0.91875,-3.5133 1.97896,-3.0784 3.7406,1.53438 1.84421,4.82901 3.50412,5.85341 3.61312,2.22982 0.0645,-2.14446 0.1075,-2.15618 0.91647,-0.25 1.78056,4.19551 3.16158,8.56354 2.67737,8.4682 -0.0888,-0.0175 -0.94902,-0.6296 -1.91152,-1.36025 z m -12.68416,-13.03787 c -1.36176,-1.44953 -1.96668,-2.92151 -1.50656,-3.66599 0.54267,-0.87806 0.26406,-1.05028 -0.94717,-0.58548 -1.01928,0.39113 -1.46793,0.25712 -1.10503,-0.33006 0.33602,-0.5437 0.1344,-0.98855 -0.44806,-0.98855 -0.58246,0 -1.98913,-0.93011 -3.12593,-2.06691 -1.63491,-1.63491 -1.82024,-2.36415 -0.8867,-3.48899 0.64913,-0.78214 1.53727,-1.20141 1.97366,-0.93171 0.43639,0.2697 0.57136,-0.52275 0.29995,-1.76101 -0.39623,-1.80765 -0.28256,-1.95574 0.57673,-0.75138 0.58861,0.825 0.81436,2.89966 0.50165,4.61036 -0.66678,3.64764 1.83251,5.43488 3.63321,2.59811 0.75219,-1.18498 0.95603,-1.24885 0.66526,-0.20847 -0.23057,0.825 0.4497,3.23111 1.51172,5.3469 2.33897,4.65978 1.9172,5.48033 -1.14273,2.22318 z M 121.5,172.55902 c 0,-0.58246 0.45,-1.05902 1,-1.05902 0.55,0 1,0.19844 1,0.44098 0,0.24254 -0.45,0.7191 -1,1.05902 -0.55,0.33992 -1,0.14148 -1,-0.44098 z M 117.23203,168.5 c -0.94185,-1.1 -1.51231,-2 -1.2677,-2 0.24462,0 -0.65979,-1.10455 -2.00979,-2.45455 -1.34999,-1.35 -2.44893,-3.0375 -2.44207,-3.75 0.007,-0.7125 1.81552,0.64599 4.01926,3.01887 2.20374,2.37287 3.73683,4.84787 3.40686,5.5 -0.32997,0.65212 0.56137,-0.0769 1.98074,-1.62008 1.67132,-1.81711 2.58067,-2.28639 2.58067,-1.33179 0,4.73403 -3.28818,6.11769 -6.26797,2.63755 z"
       id="path4149"
       inkscape:connector-curvature="0" />
  </g>
</svg>
