<?xml version="1.0" encoding="UTF-8" standalone="no"?>
<svg
   xmlns:dc="http://purl.org/dc/elements/1.1/"
   xmlns:cc="http://creativecommons.org/ns#"
   xmlns:rdf="http://www.w3.org/1999/02/22-rdf-syntax-ns#"
   xmlns:svg="http://www.w3.org/2000/svg"
   xmlns="http://www.w3.org/2000/svg"
   xmlns:sodipodi="http://sodipodi.sourceforge.net/DTD/sodipodi-0.dtd"
   xmlns:inkscape="http://www.inkscape.org/namespaces/inkscape"
   sodipodi:docname="falchion.svg"
   height="100%"
   width="100%"
   inkscape:version="0.48.4 r9939"
   version="1.1"
   id="svg8438"
   viewBox="0 0 512 512">
  <metadata
     id="metadata8464">
    <rdf:RDF>
      <cc:Work
         rdf:about="">
        <dc:format>image/svg+xml</dc:format>
        <dc:type
           rdf:resource="http://purl.org/dc/dcmitype/StillImage" />
        <dc:title></dc:title>
      </cc:Work>
    </rdf:RDF>
  </metadata>
  <defs
     id="defs8462">
    <linearGradient
       id="linearGradient4077">
      <stop
         id="stop4079"
         offset="0"
         style="stop-color:#aa4400;stop-opacity:1;" />
      <stop
         style="stop-color:#ff9f00;stop-opacity:1;"
         offset="0.22752622"
         id="stop4081" />
      <stop
         style="stop-color:#803300;stop-opacity:1;"
         offset="0.4948855"
         id="stop4083" />
      <stop
         id="stop4085"
         offset="1"
         style="stop-color:#562200;stop-opacity:1;" />
    </linearGradient>
    <linearGradient
       id="linearGradient4057">
      <stop
         style="stop-color:#aa4400;stop-opacity:1;"
         offset="0"
         id="stop4059" />
      <stop
         id="stop4067"
         offset="0.22752622"
         style="stop-color:#ecd1a4;stop-opacity:1;" />
      <stop
         id="stop4065"
         offset="0.50136983"
         style="stop-color:#803300;stop-opacity:1;" />
      <stop
         style="stop-color:#562200;stop-opacity:1;"
         offset="1"
         id="stop4061" />
    </linearGradient>
    <linearGradient
       id="linearGradient3890">
      <stop
         style="stop-color:#701b1b;stop-opacity:1;"
         offset="0"
         id="stop3892" />
      <stop
         style="stop-color:#e31600;stop-opacity:1;"
         offset="1"
         id="stop3894" />
    </linearGradient>
    <linearGradient
       id="linearGradient3882">
      <stop
         style="stop-color:#600b0b;stop-opacity:1;"
         offset="0"
         id="stop3884" />
      <stop
         style="stop-color:#d11414;stop-opacity:1;"
         offset="1"
         id="stop3886" />
    </linearGradient>
    <linearGradient
       id="linearGradient3872">
      <stop
         style="stop-color:#800600;stop-opacity:1;"
         offset="0"
         id="stop3874" />
      <stop
         style="stop-color:#ff0004;stop-opacity:0;"
         offset="1"
         id="stop3876" />
    </linearGradient>
    <filter
       id="filter4074"
       inkscape:label="Black Light"
       inkscape:menu="Color"
       inkscape:menu-tooltip="Light areas turn to black"
       x="0"
       width="1"
       y="0"
       height="1"
       color-interpolation-filters="sRGB">
      <feColorMatrix
         id="feColorMatrix4076"
         type="luminanceToAlpha"
         result="result2" />
      <feComposite
         in2="SourceGraphic"
         id="feComposite4078"
         operator="arithmetic"
         in="result2"
         k3="2"
         result="result4" />
      <feBlend
         in2="result2"
         id="feBlend4080"
         in="result4"
         mode="multiply"
         result="result3" />
      <feComposite
         in2="SourceGraphic"
         id="feComposite4082"
         operator="in"
         in="result3" />
    </filter>
  </defs>
  <sodipodi:namedview
     pagecolor="#000000"
     bordercolor="#666666"
     borderopacity="1"
     objecttolerance="10"
     gridtolerance="10"
     guidetolerance="10"
     inkscape:pageopacity="0"
     inkscape:pageshadow="2"
     inkscape:window-width="1190"
     inkscape:window-height="1126"
     id="namedview8460"
     showgrid="false"
     inkscape:zoom="1.4142136"
     inkscape:cx="298.51269"
     inkscape:cy="244.63761"
     inkscape:window-x="160"
     inkscape:window-y="130"
     inkscape:window-maximized="0"
     inkscape:current-layer="svg8438" />
  <path
     style="fill:#000000"
     id="path3978"
     d="M -13.466093,0.1885736 H 514.89024 V 516.42957 H -13.466093 z"
     inkscape:connector-curvature="0" />
  <path
     transform="matrix(0.92592215,0,0,1,-12.92858,0)"
     sodipodi:end="6.1122693"
     sodipodi:start="6.11213"
     d="m 101.95774,-78.577314 a 39.244427,23.688076 0 0 1 9.3e-4,0.0033 l -38.672613,4.028989 z"
     sodipodi:ry="23.688076"
     sodipodi:rx="39.244427"
     sodipodi:cy="-74.545074"
     sodipodi:cx="63.286057"
     id="path4121"
     style="fill:#333333;fill-opacity:1;fill-rule:nonzero;stroke:none"
     sodipodi:type="arc" />
  <path
     transform="matrix(0.92592215,0,0,1,-12.92858,0)"
     sodipodi:end="6.1122693"
     sodipodi:start="6.11213"
     d="m 76.035958,-54.360671 a 10.606602,11.755651 0 0 1 2.51e-4,0.0016 l -10.452057,1.999461 z"
     sodipodi:ry="11.755651"
     sodipodi:rx="10.606602"
     sodipodi:cy="-52.359596"
     sodipodi:cx="65.584152"
     id="path4123"
     style="fill:#333333;fill-opacity:1;fill-rule:nonzero;stroke:none"
     sodipodi:type="arc" />
  <path
     transform="matrix(0.92592215,0,0,1,-12.92858,0)"
     sodipodi:end="6.1122693"
     sodipodi:start="6.11213"
     d="m 69.424272,-57.251206 a 15.46796,16.793785 0 0 1 3.67e-4,0.0023 l -15.242583,2.856372 z"
     sodipodi:ry="16.793785"
     sodipodi:rx="15.46796"
     sodipodi:cy="-54.392529"
     sodipodi:cx="54.182056"
     id="path4125"
     style="fill:#333333;fill-opacity:1;fill-rule:nonzero;stroke:none"
     sodipodi:type="arc" />
  <g
     id="g4437"
     transform="matrix(0.4514667,0,0,0.75389824,21.379874,49.67086)">
    <path
       style="fill:#9f9e9e"
       d="m 994.20022,589.04525 c -44.19782,-29.31993 -83.97434,-66.9454 -135.25151,-83.94141 -45.82417,-13.15229 -82.39739,-70.02141 -128.12839,-65.31673 -12.74457,14.93112 13.67164,90.20706 -18.60316,54.39304 -19.44836,-34.49682 -54.84582,-0.2568 -77.03232,-37.5022 -24.521,-22.22237 -43.19195,-51.23592 -51.65854,-83.33833 35.70298,26.25586 77.76951,45.90757 117.33838,63.11763 24.7979,-28.72026 -14.15715,-60.7856 -44.48227,-47.72868 -41.35821,-7.59096 -66.51216,-45.01589 -102.02147,-64.294 C 402.24019,221.40029 231.67469,148.28442 82.850326,40.209921 68.712383,26.673944 27.326095,0.99550923 42.723384,-13.521067 152.9857,14.207124 240.89691,90.50468 339.89013,142.30931 c 106.81056,63.04724 212.21008,130.18504 328.01157,175.9107 18.15903,23.4142 68.23487,83.28892 87.72179,32.03175 -36.32199,-7.14099 -51.09805,-51.36453 -90.56035,-53.99551 -13.50604,-29.71038 48.26924,-8.82635 65.31359,-8.92793 43.8085,5.71475 46.24089,60.04937 93.35576,57.39265 -21.26354,8.1893 -74.70718,33.16959 -38.69932,64.81957 35.40836,8.36901 66.09619,29.98047 96.47839,50.00984 35.12067,22.52015 68.44288,50.1183 109.69231,60.00417 24.33833,5.19235 31.82383,25.05837 19.73473,40.12802 -10.5209,10.2278 -16.75927,16.40534 -4.7048,30.30857 -3.2916,3.63625 -8.77523,1.25847 -12.03358,-0.94589 z M 643.74389,379.70905 c -2.92581,-22.65271 -38.9668,-15.20233 -9.53441,-3.15565 -0.90499,0.96851 13.35063,12.55172 9.53441,3.15565 z"
       id="path4449"
       inkscape:connector-curvature="0" />
    <path
       style="fill:#ca7686"
       d="m 998,589.11956 c -45.17279,-24.67175 -79.83941,-66.88793 -130.49773,-81.70688 -41.66951,-18.9761 -78.76602,-46.75135 -116.58608,-71.51567 -51.43126,-18.27029 -1.88588,94.53822 -35.16261,61.87189 -10.93193,-25.44305 -36.93177,-26.50691 -54.03985,-22.23345 -36.35651,-24.16146 -66.29121,-60.24494 -77.08779,-103.11647 32.43125,30.3574 80.6119,51.96196 119.54804,64.43741 24.6457,-27.35558 -10.93375,-55.09946 -38.16886,-52.52441 -43.34014,-21.1269 -76.56911,-58.15037 -119.13102,-79.92672 -52.36804,-18.68321 67.20195,55.11327 17.13629,24.70919 C 402.38308,217.91208 218.16037,142.49394 62.128224,23.025093 41.980298,11.38206 35.172259,-25.86979 67.340912,-5.425038 182.78402,35.864691 278.66106,115.04316 386.30699,171.64091 c 93.19657,55.36184 187.02145,110.70896 287.61719,151.75302 13.27942,27.74761 65.086,78.88748 83.17082,30.86688 -9.25202,-10.01005 -20.26447,-19.23284 -18.65972,-27.46787 -23.18528,-9.91603 -38.68944,-37.27638 -66.26887,-36.07565 14.95615,5.69078 54.76308,29.16924 51.17331,35.24874 -10.78263,-18.26909 -71.77509,-25.58136 -53.94889,-43.229 42.32205,-1.99841 100.35275,7.46331 111.09214,51.70934 13.28931,7.72145 65.14277,11.48835 21.77577,18.46967 -43.80981,9.06617 -35.37857,68.9033 9.17031,66.19952 54.51715,26.80645 100.00121,69.7083 155.77715,93.70711 24.45809,5.50747 63.5945,22.10764 41.4119,43.47878 -12.60894,12.12818 -14.72467,20.83618 -3.0713,32.8226 l -3.5165,1.3084 -4.0303,-1.31289 0,0 z m -55.31667,-72.33623 c -4.83599,0.11868 4.76029,3.81167 0,0 z M 673.54922,463.42846 c 17.70726,-7.84959 1.27139,-29.9497 -1.48038,-4.48632 -31.38703,-1.74458 -12.29682,12.43705 1.48038,4.48632 z M 702.5,458 c -1.80018,-4.41351 -1.55711,3.99726 0,0 z m 138,-0.90336 c -17.46807,-6.00922 -42.71347,-33.28613 -54.85329,-27.32447 17.35115,10.75242 34.73318,22.45982 54.85329,27.32447 z M 642,450 c -2.30615,-5.24262 -2.0919,4.38537 0,0 z m -7.96102,-7.30017 c -6.64655,-15.66654 -7.00871,4.21439 0,0 z M 653.5,441.5 c -2.24871,-5.97229 -2.24871,5.97229 0,0 z m -30.02006,-9.02417 c -4.23706,-5.78721 0.32867,5.63056 0,0 z M 655.5,432.05902 c -0.9763,-6.15688 -3.83899,4.2011 0,0 z m 76.5884,-32.80396 c -5.86358,2.26298 6.7479,4.97176 0,0 z M 603.5,396.2 c -1.3758,-11.10502 -6.86683,5.58293 0,0 z m 40.40499,-8.3548 c -3.96246,-6.72452 11.43815,11.13589 0,0 z"
       id="path4447"
       inkscape:connector-curvature="0" />
    <path
       style="fill:#ad4d60"
       d="M 998,589.11956 C 952.75683,562.18195 915.33041,521.81991 863.994,505.701 816.6862,493.0967 780.17337,434.60339 733.26016,438.88518 c -18.56138,16.74902 -6.02709,67.31349 -8.92707,67.59038 -13.01927,-29.0051 -43.9381,-36.41232 -68.21366,-33.23997 -32.51402,-25.89123 -61.5441,-59.54269 -71.49349,-100.81661 32.72577,29.94058 80.61011,52.9215 119.81555,64.40361 25.22881,-26.64706 -10.74025,-54.41464 -37.67826,-51.30248 -37.7107,-21.09115 -70.5246,-49.88073 -106.73286,-73.34816 -12.6291,-15.06421 -48.53541,-15.93102 -14.70509,2.01742 16.65992,10.29368 48.69206,36.44749 14.82699,12.24685 C 399.41168,216.76154 216.93629,141.50512 62.128224,23.025093 41.980298,11.38206 35.172259,-25.86979 67.340912,-5.425038 182.7837,35.869968 278.66985,115.036 386.30733,171.65266 c 93.20512,55.38083 187.08523,110.63922 287.63088,151.82952 6.7607,36.43658 89.45985,77.79654 76.65344,18.91754 -26.90826,8.17164 -5.47679,-25.43469 -32.34468,-32.13892 -15.28229,-13.31903 -63.5303,-24.8511 -22.24785,-7.68558 20.81531,5.49448 46.05636,50.60916 18.89857,15.60631 -17.56416,-6.72415 -81.59917,-37.63473 -30.44553,-35.30301 42.18796,-2.46464 84.68471,16.76792 99.5158,52.93912 20.59477,3.81446 42.81374,19.34604 7.18842,23.92739 -47.85577,23.01974 4.21431,63.38738 35.20725,68.04309 43.05944,22.48615 81.06579,53.44425 122.57332,78.05666 25.36048,10.96271 55.41695,16.43739 73.47955,39.27994 -21.9187,-12.31287 -10.1822,30.71098 -27.31873,24.65293 1.08412,5.23062 20.82823,24.72984 2.90223,19.34191 z m -19.3125,-64.80267 c -3.83685,-4.18778 -1.74453,2.806 0,0 z m -36.00417,-7.53356 c -4.83599,0.11868 4.76029,3.81167 0,0 z M 720.3455,485.55197 c -3.75393,-5.75869 -1.45243,10.84662 0,0 z m -3.72537,-11.72276 c -2.86011,-14.98671 2.12871,15.05546 0,0 z m -43.07091,-10.40075 c 17.70726,-7.84959 1.27139,-29.9497 -1.48038,-4.48632 -31.38703,-1.74458 -12.29682,12.43705 1.48038,4.48632 z M 702.5,458 c -1.80018,-4.41351 -1.55711,3.99726 0,0 z m 138,-0.90336 c -17.46807,-6.00922 -42.71347,-33.28613 -54.85329,-27.32447 17.35115,10.75242 34.73318,22.45982 54.85329,27.32447 z m -183.49563,-5.1037 c 9.82596,-21.54083 -22.47873,-20.06367 -7.30842,-19.4506 10.16372,-1.77829 -8.61165,23.25126 7.30842,19.4506 z M 642,450 c -2.30615,-5.24262 -2.0919,4.38537 0,0 z m 21.0907,-3.74264 c -5.12436,-1.38804 -0.0626,5.76362 0,0 z m -27.97474,-5.81577 c -6.57822,-12.8746 -9.32561,4.2031 0,0 z M 641.5,443 c -2.20038,-4.48834 -2.20038,4.48834 0,0 z m -3,-5.87756 c 3.07264,-18.97287 -34.20867,-25.45306 -6.49368,-9.35344 0.24153,3.08423 0.0127,14.99024 6.49368,9.35344 z m -15.02006,-4.64661 c -4.23706,-5.78721 0.32867,5.63056 0,0 z M 735.9433,414.77749 c -3.91631,-13.90917 -13.34875,14.24994 0,0 z m -2.1276,-14.75973 c 37.74348,5.36486 -18.62381,-31.70248 -2.04515,2.53229 l 2.04515,-2.53229 z M 603.5,396.2 c -1.3758,-11.10502 -6.86683,5.58293 0,0 z m 151,-10.12857 c -4.6901,-14.73168 -6.026,13.27766 0,0 z M 655.6137,360.75 c 12.37564,-17.49625 5.48502,4.5386 0,0 z m -11.61307,-6.75198 c 27.67102,-25.96318 -54.85396,-29.10224 -13.12226,-3.48472 2.70268,2.60829 9.17278,8.0251 13.12226,3.48472 z m 130.89563,-5.58826 c 9.85207,-18.99579 -7.84761,5.99416 0,0 z M 606.4923,337.25 c -9.66572,-13.99891 -9.57159,2.18027 0,0 z m 10.40139,-5.68733 c 2.20141,-29.65652 -74.83629,-39.21853 -29.26294,-8.78827 15.64525,-3.87611 18.06014,6.78725 29.26294,8.78827 z m 139.53242,-10.97364 c 0.9529,-7.70722 -6.38581,6.12655 0,0 z M 619.5,318.18806 c -6.67813,-12.25804 -9.10848,1.75451 0,0 z m 121.77749,-2.74476 c 20.51274,-4.33993 -2.2946,-9.75187 -4.95574,-1.32799 l 4.95574,1.32799 z m -7.97838,-7.7643 c 2.21862,-18.36613 -28.56998,-2.88981 -2.7712,-3.72504 -1.41124,-0.2693 1.31299,13.61516 2.7712,3.72504 z M 556.5,305.2274 c 9.95368,-25.31181 -45.55788,-47.94063 -23.38773,-16.1837 6.57971,6.96492 15.031,11.70529 23.38773,16.1837 z m 6.52514,-4.26808 c 6.54403,-18.27806 -23.89008,0.63422 0,0 z M 713.4923,295.25 c -9.79949,-10.59657 -15.72158,5.2925 0,0 z M 506.5,274.5 c -7.48428,-10.53455 -0.48691,6.7666 0,0 z m 9.81144,-3.53896 c 1.55253,-14.60373 -15.48078,3.23081 0,0 z m -13.90927,-2.11026 c 20.41527,-29.2496 -60.45374,-24.32429 -10.77278,-8.75355 3.26847,2.24699 5.27009,11.4621 10.77278,8.75355 z m -30.17999,-25.51592 c -4.07374,-10.31453 -5.76732,6.89281 0,0 z m -7.65644,-1.37004 c 8.52334,-12.90855 -12.77465,2.48189 0,0 z m -23.12026,-9.15724 c -9.51688,-11.94682 23.30745,-7.38436 -4.87519,-13.78684 -10.3187,-2.88761 -0.68725,16.20325 4.87519,13.78684 z M 643.90499,387.8452 c -3.4523,-6.62166 11.48464,11.68897 0,0 z"
       id="path4445"
       inkscape:connector-curvature="0" />
    <path
       style="fill:#5f5759"
       d="m 998,589.11956 c -24.10737,-26.12046 -54.45351,-44.31219 -85.80227,-59.77798 -43.9081,-26.95889 -97.45035,-39.49227 -133.47582,-78.10944 -31.63443,-34.87599 -59.8978,-3.93103 -56.94238,26.01694 -17.1645,-18.55467 -0.73733,32.66368 -20.16471,1.01589 -16.28761,-24.14665 -45.72803,12.28702 -64.13275,-18.12947 -14.40042,-18.00513 -57.16823,-65.27017 -41.97919,-78.0354 29.01084,28.12573 75.59283,37.55895 103.93781,56.69983 40.41426,-27.92648 -13.00122,-55.68223 -40.39243,-59.2658 -46.85312,-23.85987 -83.6796,-66.0201 -133.28991,-83.80493 9.04993,16.35366 51.24954,38.29176 53.73328,44.29959 C 418.49365,225.30514 232.42584,150.53192 74.308951,31.586607 58.308046,21.259089 12.628091,-26.887049 57.638863,-8.312645 171.52869,28.001751 264.49993,106.42675 369.10671,161.48539 c 97.93406,58.23559 196.15315,117.08097 301.67236,160.76987 16.60707,27.15384 65.93282,78.63041 89.17689,31.24663 -27.10741,-20.82697 -48.07066,-60.38465 -85.02136,-61.57075 17.76986,3.56754 49.59063,27.08461 47.47388,36.37955 -10.86863,-25.5999 -56.04446,-23.00345 -61.47398,-44.86003 39.18163,-1.66961 88.5081,-0.71355 113.35463,34.59056 -5.00663,21.50903 62.28475,31.15365 17.30344,41.02713 -48.71334,19.38398 -0.80435,69.80243 33.40819,67.41907 57.01312,30.6031 105.74628,75.05816 165.19095,101.37453 45.20559,-0.91746 5.50556,30.21542 8.33764,50.89986 6.69215,1.27803 8.50395,15.53656 -0.52935,10.35775 z m -27.5,-43.99712 c -0.25304,-8.20647 -6.17746,3.99674 0,0 z m 21,-13.28151 c -14.5677,-2.0196 -7.90086,17.14558 0,0 z m -35.21058,-10.66671 c -2.86111,-22.84639 -14.17626,14.97198 0,0 z m -13.60609,-4.39089 c -4.83599,0.11868 4.76029,3.81167 0,0 z M 673.54922,463.42846 c 18.19865,-7.15302 0.32187,-30.65437 -1.06563,-4.4651 -16.01733,11.32921 5.74979,-25.52395 -13.94222,-12.69262 -2.92931,-14.78774 -50.34963,-39.3262 -40.61004,-30.05707 -3.38553,25.32511 38.78068,25.17354 30.09195,23.23082 -5.04392,14.54019 9.75489,36.1742 25.52594,23.98397 z M 702.5,458 c -1.80018,-4.41351 -1.55711,3.99726 0,0 z m 138,-0.90336 c -17.46807,-6.00922 -42.71347,-33.28613 -54.85329,-27.32447 17.35115,10.75242 34.73318,22.45982 54.85329,27.32447 z m -129.52964,-3.62595 c 14.44678,-13.64654 -18.79409,7.6946 0,0 z M 642,450 c -2.30615,-5.24262 -2.0919,4.38537 0,0 z m -18.52006,-17.52417 c -4.23706,-5.78721 0.32867,5.63056 0,0 z M 736.52412,415.2422 c 28.89127,-12.80635 7.37319,-51.61172 -7.73096,-21.78763 5.28914,6.59759 -4.28496,35.22017 7.73096,21.78763 z M 603.5,396.2 c -1.3758,-11.10502 -6.86683,5.58293 0,0 z m 53.65005,-35.45 c 25.09187,-19.46045 -10.77335,-4.86212 0,0 z m -12.61452,-5.29281 c 19.52045,-25.41032 -34.51066,-31.96018 -44.4933,-46.66984 -32.94259,-19.34663 -67.41412,-35.90288 -99.21193,-56.93569 -17.20185,-8.4896 -58.79457,-42.01684 -66.74174,-21.44047 16.40386,17.30796 6.78908,-19.5941 21.05771,3.77548 19.21031,33.92735 67.59722,37.09445 93.6093,66.76246 29.74927,13.56624 56.88434,32.85087 82.57524,51.68717 3.92756,2.34271 8.63841,3.51708 13.20472,2.82089 z M 783.5,351.44098 c -3.57522,-4.1242 -0.71896,5.90072 0,0 z m -6.76761,-2.87633 c -1.09222,-14.1749 -8.61283,10.32992 0,0 z m -18.6573,-28.00781 c -5.0699,-13.07828 -57.83196,-38.05496 -49.87323,-22.12734 15.76715,9.08183 32.72999,16.09806 49.87323,22.12734 z m -114.1701,67.28836 c -3.4523,-6.62166 11.48464,11.68897 0,0 z"
       id="path4443"
       inkscape:connector-curvature="0" />
    <path
       style="fill:#4c2633"
       d="M 998.47115,588.55845 C 931.203,519.52708 830.492,500.32205 759.66258,435.84251 c -34.73608,-29.19502 -42.13312,75.90622 -46.53624,21.52082 27.42379,-11.52926 -17.78924,-23.80454 -12.93804,4.41112 20.3996,6.97733 13.68429,42.04739 0.98384,9.67065 -45.68626,19.57297 -75.87301,-22.5749 -97.56155,-56.63818 -12.67375,-17.17243 -21.1571,-50.5534 4.94621,-20.71861 30.21755,14.64884 66.18455,37.6438 94.77347,43.08018 37.31969,-35.21134 -24.70421,-54.14509 -50.61229,-62.23421 -17.77552,-5.66119 -65.2202,-54.93521 -22.74889,-25.36216 16.1981,19.2265 46.66157,5.00939 18.12645,-13.07332 -38.67592,-23.49283 -78.1256,-45.72991 -117.75097,-67.11644 -31.54479,-14.74551 -59.92713,-47.6112 -95.89183,-45.49211 5.26843,17.70206 60.88941,35.64361 48.35869,40.51977 C 414.7839,243.75527 357.41942,199.69732 294.18703,168.44877 212.42899,122.98264 129.46181,77.471866 57.898988,16.704752 40.353333,5.8499893 33.445159,-25.411015 62.823699,-5.8941938 177.09471,33.242576 271.35722,111.69149 377.19279,167.54617 c 95.10218,56.58563 190.63314,113.56465 293.3403,155.48329 16.09958,25.76253 65.71189,78.63102 86.43806,36.15539 -8.04317,-13.52788 -24.09302,-36.78832 4.00026,-21.8248 28.46839,13.93098 -18.46381,-17.13787 -29.67166,-14.78397 -21.19868,-9.80164 -26.22193,-33.96078 -0.46274,-10.83784 27.04812,17.39838 27.63414,-11.70506 2.01588,-11.58052 -17.73417,-12.6685 -47.87685,-10.0825 -51.01288,-16.44595 42.22102,7.85391 68.7445,-2.25465 92.7888,39.91251 3.54329,21.88037 54.6398,25.17695 17.52506,31.9261 -40.00807,17.29101 -20.98391,66.29536 18.60965,65.90121 70.77239,32.75216 127.04591,93.7043 203.38308,114.4488 -12.5309,11.06121 -4.2973,31.42339 -20.40062,32.00212 -2.20433,6.4099 20.38722,21.677 4.72517,20.65594 z M 970.5,545.05902 c -2.45988,-13.56722 -6.43428,7.61961 0,0 z m 21,-13.21809 c -14.5677,-2.0196 -7.90086,17.14558 0,0 z m -35.21058,-10.66671 c -3.79122,-21.36118 -12.86234,14.47608 0,0 z m -11.14616,-1.68695 c -0.56274,-14.53131 -10.20092,5.41112 0,0 z M 670.56248,469.96656 c 23.6143,1.56067 4.59699,-52.57715 3.20362,-14.79954 -21.69652,8.98079 8.22605,-22.85887 -19.5905,-24.06012 -20.98407,-7.59833 -42.63617,-23.17821 -18.28441,-15.30758 -12.31487,-10.25173 -52.94026,-37.73941 -30.19108,-4.92597 14.42238,25.78378 35.83702,50.0573 64.86237,59.09321 z m -27.2967,-20.93725 c -5.84116,-11.14227 15.88017,15.36863 0,0 z M 655.5,446.59362 c 3.97656,-8.98448 3.48271,9.29235 0,0 z m -11,-4.44574 c 4.09868,-14.28988 9.1221,-2.37445 0,0 z m 16.97081,-0.68306 c -2.74556,-7.43293 6.7562,4.90716 0,0 z m -37.81342,-11.56339 c -14.72026,-20.29423 19.7934,16.4772 0,0 z M 718.5,466.44098 c -3.8903,-5.47269 -0.41449,7.68835 0,0 z M 843,457.57714 C 827.41627,448.62172 788.88559,415.02073 783.26417,429.06668 801.8014,440.8873 819.97494,456.49845 843,457.57714 z m -115.66736,-27.5185 c 10.8607,-14.42102 41.42872,-61.28695 4.00933,-40.39569 2.20695,6.51132 -16.93048,52.12632 -4.00933,40.39569 z M 668,427 c -1.80018,-4.41351 -1.55711,3.99726 0,0 z m -8,-2 c -6.29667,-8.10497 -4.69656,5.35876 0,0 z m 74.5,-4 c -2.20038,-4.48834 -2.20038,4.48834 0,0 z m 10.75621,-4.75 c -4.76314,-6.71495 -5.16207,9.77709 0,0 z m 23.05209,-0.99244 c -4.06747,-10.97572 -7.04679,9.86209 0,0 z M 726.5,408.12244 c 1.03048,-7.81522 -5.94851,1.97028 0,0 z M 729.5,406 c -2.20038,-4.48834 -2.20038,4.48834 0,0 z m -8.44069,-17.90404 c -9.41156,-6.91074 -0.11985,11.13211 0,0 z M 717.58179,385 c 4.30807,-11.71947 -10.91874,4.43049 0,0 z m 56.43331,-27.81823 c -11.89947,6.16883 -2.28411,10.4426 0,0 z m 9.4849,-5.80421 c -9.00517,-8.08585 -3.49958,10.14104 0,0 z m 22.41821,-1.98455 c 2.71277,-12.3374 -9.60638,7.13353 0,0 z M 759.85777,309.5 c -3.71246,-6.94106 -3.74501,6.97636 0,0 z M 957,509 c 5.41588,-6.06196 5.99385,6.53189 0,0 z M 769.67287,342.48007 c -5.89107,-12.75297 6.36423,5.28251 0,0 z M 757.5,333 c 1.38411,-3.79984 3.37503,6.98511 0,0 z m -37.91926,-8.90356 c -10.38811,-21.35981 -43.33508,-19.40527 -54.84524,-35.63976 20.30487,8.09438 40.73373,18.40986 54.84524,35.63976 z M 579.5,322.92887 c -16.51448,-3.09295 -26.15799,-30.56858 -7.49755,-7.33674 6.2519,1.95596 25.03084,14.66181 7.49755,7.33674 z m 29.95835,-2.47906 c 6.19903,-12.29489 7.15613,12.65484 0,0 z M 538,295 c 5.92025,-9.86362 7.44548,4.37589 0,0 z m -6.073,-3.47853 0.20597,-1.25271 -0.20597,1.25271 z M 519.12138,284 c -25.7361,-20.28561 -10.30487,-15.19025 0,0 z m -49.06915,-16.03742 c -22.09662,-13.54412 17.11345,7.51165 0,0 z m -4.00952,-5.89348 c 0.34603,-5.59997 3.78483,4.54125 0,0 z M 442.5448,232.05351 c -0.12029,-22.766 20.22969,20.29528 0,0 z"
       id="path4441"
       inkscape:connector-curvature="0" />
    <path
       style="fill:#28141c"
       d="m 993,585.62877 c -18.65777,-41.14519 -69.47407,-44.6197 -100.88055,-72.04523 -42.54286,-17.67432 -81.8903,-41.39477 -119.10932,-68.4675 -22.66892,-26.65833 -51.54363,-9.82699 -51.78892,22.17033 -4.90775,-47.98437 47.9345,-76.86635 60.56858,-120.40283 9.60647,-15.0781 34.3366,18.48897 3.69521,16.10483 -31.5111,15.27968 -16.04594,47.42319 -9.26939,65.95346 36.79175,20.8012 77.24008,33.56866 114.30415,54.09976 30.51711,16.70404 -22.17929,-22.35517 9.82182,-4.88255 31.41684,9.99373 41.75504,52.70788 76.79946,46.54155 -1.08941,26.41356 31.97626,4.33615 25.89276,34.90233 -10.26742,9.31731 -28.93863,-14.34705 -11.64766,8.95114 4.09892,4.45266 20.37416,22.10915 1.61386,17.07471 z M 971.5,545.7 c -0.90589,-11.55654 -8.29252,4.35668 0,0 z m -25.47282,-25.74398 c -0.76931,-15.40956 -14.21147,3.79687 0,0 z M 933.3125,513.0625 c -4.38686,-4.12767 -0.94199,6.87513 0,0 z M 928.5,509.94098 c -3.57522,-4.1242 -0.71896,5.90072 0,0 z M 745.56574,417.96482 c 0.38966,-11.86615 -9.42782,9.16773 0,0 z m 8.43981,-7.97095 c 2.46283,-9.54946 -10.06326,8.46382 0,0 z M 1008.5,534 c 8.6729,-6.42202 5.1694,13.47624 0,0 z m -9.58288,-2.13411 c 4.77518,-4.20097 6.96778,3.21089 0,0 z M 949.5,510.42668 c 3.94626,-5.87069 3.02698,7.16644 0,0 z M 709.14423,489.97115 c -4.90401,-38.58997 -61.22806,4.90468 -72.09549,-34.53979 -13.07916,-9.47326 -34.4934,-45.57171 -12.34039,-13.2989 12.24688,30.44433 81.69587,32.05605 49.13038,-9.77018 0.98351,-20.87274 24.77906,27.56982 33.43105,35.49843 3.52319,6.31215 9.21588,16.08768 1.87445,22.11044 z M 874.5,463.37756 876.86806,463.78389 874.5,463.37756 z M 713,463 c 2.64689,-4.70132 2.76965,5.07776 0,0 z m -44.97884,-3.96577 c -2.55759,-8.50063 7.27247,-0.29018 0,0 z M 860.25,455.37389 c -29.25473,-13.33167 13.66793,0.76144 1.93964,0.62788 l -1.93964,-0.62788 0,0 z m -197.47917,1.02194 c 2.62468,-2.52375 1.80111,2.60134 0,0 z M 842.75,451.33772 c -39.5305,-8.5785 -0.98527,-22.47094 0,0 z M 675.5,449.58179 c -7.88851,-11.9915 7.75344,3.67092 0,0 z M 706,447 c 2.57009,-6.48612 3.83502,3.73454 0,0 z m -34.83333,-4.66667 c -3.90131,-5.60075 5.6376,1.81258 0,0 z m 37.5,-2.08333 c 6.44751,-36.03297 23.4996,-15.43828 0,0 z M 813.5,435.06984 c -15.22009,-7.26927 -27.49456,-23.54921 -4.52379,-7.96183 -1.40674,-1.70143 16.9557,12.31825 4.52379,7.96183 z M 658.5,428 c 5.41588,-6.06196 5.99385,6.53189 0,0 z M 637,421 c 2.0919,-4.38537 2.30615,5.24262 0,0 z m 12.6875,-0.68311 c -9.77047,-6.97593 24.40639,8.63283 0,0 z M 636.25,414.42803 c -7.95699,-7.50954 17.03859,9.35341 0,0 z m 146.25163,-1.42702 c -0.95335,-5.37536 6.74277,3.25821 0,0 z m -161.14085,-8.05747 c -4.10362,-6.10911 10.63234,9.86866 0,0 z m 95.48656,1.28081 c -26.04679,-26.18593 4.06721,-30.39815 0,0 z M 612.37244,398.25 c -0.5597,-3.89621 6.18311,10.36217 0,0 z M 606.5,393.84965 c -1.54837,-6.23987 14.06338,18.21213 0,0 z M 722,383 c 2.64689,-4.70132 2.76965,5.07776 0,0 z m 16,-1 c 4.62193,-6.75767 4.22499,5.56054 0,0 z m -27.61062,-5.04551 c -4.24335,-9.18856 20.37341,12.46696 0,0 z m -23.29282,-2.79826 c -0.89398,-5.79039 5.4485,2.1051 0,0 z m 72.99495,-9.46566 c 2.41102,-15.50544 -25.91764,-42.94043 3.65778,-20.05478 3.69947,5.72754 6.20916,18.5203 -3.65778,20.05478 z M 682.4681,346.41608 c -3.69285,-14.57299 6.22133,7.42835 0,0 z M 772.5,335 c -4.55971,-9.31758 5.6264,5.4123 0,0 z m -92.25,-0.61289 c -22.2063,-2.55232 -30.89802,-23.56653 -4.22148,-8.31288 2.19933,0.4845 13.29234,7.95675 4.22148,8.31288 z m 84.25,-0.26467 c -0.0447,-8.69519 6.72197,3.60024 0,0 z m -3.25,-7.51449 c -4.02367,-9.83869 11.58265,1.29227 0,0 z m 8.95372,-3.13111 c -1.71804,-18.9725 12.976,1.17788 0,0 z m -33.99534,1.89821 c -18.22583,-6.69778 5.12427,-13.1225 0,0 z m 8.68115,-2.80232 c -4.31676,-17.01669 10.74962,5.46441 0,0 z M 763.5,316.05902 c -0.43668,-6.36148 3.07961,2.8341 0,0 z M 638.16159,314.3817 c -7.04741,-7.77573 17.21247,7.90887 0,0 z m 88.46845,-1.54508 c -5.60096,-11.2403 7.09204,4.73752 0,0 z M 767.5,311.53138 c 3.09546,-4.17946 1.24149,5.80463 0,0 z m -137,-1.0904 c 3.57522,-4.1242 0.71896,5.90072 0,0 z M 718.5,309 c 2.20038,-4.48834 2.20038,4.48834 0,0 z m -102,-3.13131 c -9.13264,-7.79646 18.77565,9.52371 0,0 z m 139.44113,-2.33689 c -2.25861,-6.2266 10.20312,10.76491 0,0 z M 668.5,293.21837 c -7.47393,-6.7646 22.24783,11.04819 0,0 z M 681.5,288 c 4.09507,-5.021 4.2607,7.91252 0,0 z m 8.27083,0.39583 c 2.62468,-2.52375 1.80111,2.60134 0,0 z M 545.75,272.46182 c -6.93811,-10.33257 12.02677,9.14743 0,0 z m -95.49021,-27.80237 c -11.46816,-11.15968 11.18678,4.62269 0,0 z M 489.25,242.21258 c -8.65408,-3.71125 7.38334,-2.47185 0,0 z M 430,232.85678 C 350.67459,208.38519 284.07512,156.62201 210.48548,119.87515 149.37541,84.898034 86.298141,48.99544 40.889205,-6.1471293 74.087671,-10.847633 101.27254,15.917709 131.54867,25.462834 216.99357,67.311032 290.4667,129.54398 375.76411,171.65636 c 21.41814,18.48497 70.19227,31.6037 55.46618,54.96902 9.49253,0.46901 3.6977,11.67753 -1.23029,6.2314 z m 13.68806,-1.81629 c 5.81572,-12.92029 8.63966,14.36311 0,0 z m 15.36797,-3.56063 c 7.87352,-14.99121 10.97811,15.11063 0,0 z"
       id="path4439"
       inkscape:connector-curvature="0" />
  </g>
</svg>
