<?xml version="1.0" encoding="UTF-8" standalone="no"?>
<svg
   xmlns:dc="http://purl.org/dc/elements/1.1/"
   xmlns:cc="http://creativecommons.org/ns#"
   xmlns:rdf="http://www.w3.org/1999/02/22-rdf-syntax-ns#"
   xmlns:svg="http://www.w3.org/2000/svg"
   xmlns="http://www.w3.org/2000/svg"
   xmlns:sodipodi="http://sodipodi.sourceforge.net/DTD/sodipodi-0.dtd"
   xmlns:inkscape="http://www.inkscape.org/namespaces/inkscape"
   sodipodi:docname="demonic.svg"
   height="100%"
   width="100%"
   inkscape:version="0.48.4 r9939"
   version="1.1"
   id="svg2"
   viewBox="0 0 512 512"
   inkscape:export-filename="C:\Users\Chris\Documents\GitHub\bot-game\assets\forest_spirit.png"
   inkscape:export-xdpi="12.832031"
   inkscape:export-ydpi="12.832031">
  <sodipodi:namedview
     pagecolor="#ffffff"
     bordercolor="#666666"
     borderopacity="1"
     objecttolerance="10"
     gridtolerance="10"
     guidetolerance="10"
     inkscape:pageopacity="0"
     inkscape:pageshadow="2"
     inkscape:window-width="1185"
     inkscape:window-height="1030"
     id="namedview44"
     showgrid="false"
     inkscape:zoom="0.35595703"
     inkscape:cx="-72.725462"
     inkscape:cy="857.43608"
     inkscape:window-x="100"
     inkscape:window-y="100"
     inkscape:window-maximized="0"
     inkscape:current-layer="svg2" />
  <metadata
     id="metadata48">
    <rdf:RDF>
      <cc:Work
         rdf:about="">
        <dc:format>image/svg+xml</dc:format>
        <dc:type
           rdf:resource="http://purl.org/dc/dcmitype/StillImage" />
        <dc:title></dc:title>
      </cc:Work>
    </rdf:RDF>
  </metadata>
  <defs
     id="defs46">
    <linearGradient
       id="linearGradient3926">
      <stop
         id="stop3928"
         offset="0"
         style="stop-color:#ffffff;stop-opacity:0;" />
      <stop
         style="stop-color:#ffffff;stop-opacity:0.49803922;"
         offset="0.5"
         id="stop3934" />
      <stop
         id="stop3930"
         offset="1"
         style="stop-color:#ffffff;stop-opacity:0;" />
    </linearGradient>
    <filter
       id="filter3108"
       x="0"
       y="0"
       width="1"
       height="1"
       inkscape:label="Lightness-Contrast"
       inkscape:menu="Color"
       inkscape:menu-tooltip="Increase or decrease lightness and contrast"
       color-interpolation-filters="sRGB">
      <feFlood
         id="feFlood3110"
         result="result1"
         flood-opacity="1"
         flood-color="rgb(0,0,0)" />
      <feBlend
         id="feBlend3112"
         in2="SourceGraphic"
         mode="normal"
         result="result2" />
      <feComposite
         id="feComposite3114"
         in2="SourceGraphic"
         k2="1"
         operator="arithmetic"
         result="result3" />
      <feComposite
         id="feComposite3116"
         in2="SourceGraphic"
         operator="in" />
    </filter>
    <filter
       id="filter7264"
       inkscape:label="Fluorescence"
       inkscape:menu="Color"
       inkscape:menu-tooltip="Oversaturate colors which can be fluorescent in real world"
       x="0"
       y="0"
       width="1"
       height="1"
       color-interpolation-filters="sRGB">
      <feColorMatrix
         id="feColorMatrix7266"
         type="hueRotate"
         values="0" />
      <feColorMatrix
         id="feColorMatrix7268"
         type="saturate"
         values="1" />
      <feColorMatrix
         id="feColorMatrix7270"
         type="matrix"
         values="2 -1 0 0 0 0 2 -1 0 0 -1 0 2 0 0 0 0 0 1 0 " />
    </filter>
  </defs>
  <rect
     style="opacity:0.98999999;fill:#0a0a0a;fill-opacity:1;fill-rule:nonzero;stroke:none"
     id="rect3171"
     width="516.97894"
     height="518.513"
     x="1.7468045"
     y="2.4831297" />
  <rect
     y="319.66696"
     x="-94.752312"
     height="57.982758"
     width="76.367531"
     id="rect3156"
     style="opacity:0.98999999;fill:#ffffff;fill-opacity:1;fill-rule:nonzero;stroke:none" />
  <g
     id="g7283"
     transform="matrix(1.6837675,0,0,2.6409328,-1042.0615,-454.96486)">
    <path
       style="fill:#e4472f"
       d="m 754.77344,316.78359 c -6.76081,-0.0763 -9.43647,-15.71195 -0.9896,-8.38914 -5.42589,-10.67559 5.89443,0.83665 3.96896,5.67959 -0.17796,1.47583 -1.56271,2.55111 -2.97936,2.70955 z m -33.4433,-21.84495 c -3.13251,-11.90719 15.53283,1.93277 1.60219,1.59805 l -1.60219,-1.59805 z m 102.93893,0.21545 c 2.83591,-3.57568 -3.74321,-8.15799 5.0295,-9.20454 5.3758,-3.18339 13.74396,4.74938 4.13611,5.05116 -3.19954,0.96432 -5.45368,5.09372 -9.16561,4.15338 z M 808.95758,289.275 c -4.06152,-6.63127 4.54628,3.17697 0.0575,-5.60931 -1.52116,-7.75449 5.48367,-27.1046 13.57387,-21.11515 3.87696,9.21884 8.90277,23.44038 -5.22393,26.34141 -2.40348,2.34737 -7.28893,6.5283 -8.40742,0.38305 z m -19.72997,-11.16449 c -7.05838,-7.34597 8.75848,-18.14434 6.34364,-3.81256 1.75552,5.00162 -2.52496,8.44821 -6.34364,3.81256 z m -41.7186,-4.54713 c 3.47688,-14.77495 10.25258,2.52405 0,0 z m -11.73557,-8.34321 c 1.48791,-7.87526 3.5158,4.67025 0,0 z m 68,-14.05902 c 3.1869,-4.26704 2.76948,3.44699 0,0 z m -11.33366,-15.66699 c 3.0936,-7.07109 10.45705,4.04799 0,0 z m -13.00842,-9.88394 c 2.35953,-4.8472 2.30099,2.62661 0,0 z m 1.99779,-14.99425 c 2.58498,-3.32731 1.26494,2.98007 0,0 z m -1.93019,-3.06263 c 0.21358,-9.40139 9.10413,-0.74757 0,0 z"
       id="path7305"
       inkscape:connector-curvature="0" />
    <path
       style="fill:#a05551"
       d="m 738.77344,314.16115 c 1.63539,-2.83796 1.36162,3.23408 0,0 z m 5.66487,-4.17354 c 1.98491,-13.21782 2.78107,9.71872 0,0 z m -8.43287,-1.82646 c 0.52309,-7.42096 0.63342,7.24054 0,0 z m 9.79696,-4.96094 c -2.36609,-4.72948 5.27941,3.8632 0,0 z m 60.20304,-9.03906 c 0.52309,-7.42096 0.63342,7.24054 0,0 z m -0.0854,-12.5 c 0.59638,-8.8834 1.5768,7.49168 0.0604,0.45134 l -0.0604,-0.45134 z m -70.9146,-2.5 c 0.52309,-7.42096 0.63342,7.24054 0,0 z m 60.92589,1 c 0.86033,-6.37478 0.61704,5.48031 0,0 z m 12.34211,-7.5 c -1.4671,-6.08897 5.76779,-9.25781 6.89441,-8.7205 -1.56951,0.573 -7.95807,15.17359 -6.89441,8.7205 z m -13.268,-1.5 c 0.52309,-7.42096 0.63342,7.24054 0,0 z m -57.50079,-5.08016 c 2.35176,-4.62545 -0.67782,5.18395 0,0 z m 54.51879,-0.27975 c -8.37954,-11.26195 6.87437,2.00354 0,0 z m -42.23469,-0.89009 c -0.28196,-7.43901 3.90476,1.32375 0,0 z m -10.85742,-3.75 c 0.86033,-6.37478 0.61704,5.48031 0,0 z m 77.84211,-5 c 1.05342,-5.66568 1.23491,5.6322 0,0 z m -13.59828,-4.5 c 2.35971,-4.87111 7.61598,0.79635 0.54566,-0.44335 0.33265,0.0326 -1.49299,3.97771 -0.54566,0.44335 z m -63.38641,-1.69098 c 0.19947,-5.39206 2.94272,0.16525 0,0 z m 3.98469,-9.50102 c -0.77597,-7.00137 12.33708,-2.8203 2.89987,-1.62898 -0.87298,0.11459 -1.63648,2.71084 -2.89987,1.62898 z m 53.36431,-4.72123 c 12.42311,-4.68752 -8.52947,5.04976 0,0 z m -9.28098,0.0487 c 4.14782,-5.67869 7.50522,2.35581 0,0 z m 17,-0.99182 c 6.88883,-2.70935 9.14196,0.86315 0,0 z m -46.08333,-2.03664 c 2.99473,-7.31678 4.10984,4.9394 0,0 z m -3.30615,-1.24647 c -0.56536,-5.8743 4.87382,2.81031 0,0 z m 21.66203,-0.59372 c 1.34863,-4.57288 4.29794,4.50192 0,0 z m -27.10588,-1.42908 c -3.60493,-5.62398 6.77997,2.89873 0,0 z m 35.75,-1.12492 c 5.03469,-4.96696 4.18549,3.21361 0,0 z m -47,-1.77182 c 2.93199,-3.40106 0.73565,4.55866 0,0 z m 4.75,0.80976 c -5.9148,-5.43319 7.3352,1.36506 0,0 z m 54.25,-0.84436 c 3.2247,-4.98559 3.49658,4.86582 0,0 z m -37.85574,-2.15638 c -1.50207,-6.51352 3.91107,8.29143 0,0 z m 33.85574,1.75 c 2.42443,-4.4818 2.60161,4.34115 0,0 z m 16.8026,-0.55878 c 6.28752,2.16177 15.50313,-12.02095 16.87831,-8.87145 -3.7582,4.20385 -14.83357,11.13637 -16.87831,8.87145 z m -90.44806,-1.03827 c -6.6834,-3.71845 -5.19835,-6.15565 1.0154,-0.98123 3.88067,2.00127 0.77268,3.03991 -1.0154,0.98123 z m 58.66064,-0.45295 c 0.75372,-5.85987 4.24377,-9.55003 1.51395,-1.57155 -0.26123,0.79557 -0.76521,1.24511 -1.51395,1.57155 z m -69.5039,-8.57312 c -2.34952,-6.46681 4.77229,7.21009 0,0 z m 69.48872,-5.98771 c 2.95457,-11.57701 -25.67238,0.12576 -9.92075,-9.15408 4.306,0.0281 11.99752,3.84838 9.92075,9.15408 z"
       id="path7303"
       inkscape:connector-curvature="0" />
    <path
       style="fill:#cc3926"
       d="m 740.52344,319.47182 c -0.86186,-3.86512 10.47353,-8.96271 7.31182,-9.33023 5.87632,12.84507 16.03451,-1.06777 4.91896,-6.23663 -0.0732,12.24704 -6.95292,-9.59106 3.72529,-4.74439 10.96275,7.95597 2.93678,27.28773 -11.16117,20.62613 l -2.41428,-0.21087 -2.38062,-0.10401 0,0 z m -10.73469,-1.33843 c 1.30424,-8.86771 7.95859,0.60659 0,0 z m -1.73763,-12.22224 c -2.17615,-8.35022 -12.77814,-5.59933 -15.8423,-2.38742 3.85386,-7.06928 4.38596,-24.99979 16.86563,-17.12626 2.62328,3.08255 6.02883,21.4094 -1.02333,19.51368 z m -1.47768,-9.95 c 7.78351,-9.13114 -11.33707,-7.59 -4.78314,-0.11125 l 2.38502,0.28353 2.39812,-0.17228 z m 82.31734,3.01095 c -2.95801,-5.32114 -1.09232,-12.01577 4.50891,-7.75859 12.86958,-2.57927 17.00861,-14.63968 10.5733,-24.97246 -2.3214,-4.00807 -5.34567,-12.72889 2.05321,-6.20555 2.24158,9.84707 4.32546,21.36303 16.26464,21.59683 7.06126,13.21974 -14.25133,20.35661 -24.60413,16.1241 -2.9532,-0.26066 -6.12964,-0.27891 -8.79593,1.21567 z m 19.66609,-5.31095 c 6.06234,0.51974 14.9743,-9.56968 3.62542,-7.87484 -8.71688,-2.98566 -10.67065,15.56051 -3.62542,7.87484 z m -39.3835,-13.00916 c -7.3468,-9.10188 14.11571,5.24846 1.40058,1.09846 -0.46686,-0.36615 -0.93372,-0.73231 -1.40058,-1.09846 z m -41.99542,-6.64535 c 6.47311,-4.34864 7.48056,3.68737 0,0 z m -13.86137,-5.77569 c -3.9144,-6.9313 7.68611,-12.13462 2.64552,-2.50157 0.34659,1.49258 -0.78336,4.76317 -2.64552,2.50157 z M 779.69913,228.849 c 3.84418,-7.95523 0.46426,-18.56729 2.06516,-24.97991 -4.58566,3.63869 -16.80488,-8.03197 -5.74424,-5.45994 6.14709,-5.06227 13.39491,-4.95575 10.51477,4.68472 3.97388,8.7211 10.18658,23.33235 -4.69938,25.01597 -0.7121,0.24639 -1.42421,0.49277 -2.13631,0.73916 z m 6.80172,-10.43785 c -0.73585,-7.18218 -1.09411,9.33292 0,0 z m -2.72741,-7.79797 c -2.73621,-3.27645 -2.33686,3.67524 0,0 z"
       id="path7301"
       inkscape:connector-curvature="0" />
    <path
       style="fill:#b13424"
       d="m 768.72537,326.34797 c -12.9796,-9.34868 -31.44199,1.94183 -43.59389,-9.26051 -6.19751,-7.71275 -25.17269,-7.97322 -14.79629,-22.25337 1.31787,-9.75663 14.43369,-14.8964 18.55953,-17.364 -3.17513,-7.94574 12.84026,-11.79231 6.28098,-1.28929 -0.35097,12.24672 -1.74781,28.01363 3.20732,38.04261 5.04797,0.33987 9.06086,0.29366 2.10648,2.8544 9.35392,9.63351 26.4246,0.56803 20.71823,-12.48706 -1.35803,-8.47835 -14.26868,-3.21637 -13.01364,-2.68826 -8.39468,-10.83054 16.5597,-6.06279 16.8523,3.14663 3.21487,5.17525 3.61853,11.46992 10.50481,9.20813 2.74404,4.24745 -3.97855,8.22133 -5.43423,12.04115 l -1.3916,0.0496 0,0 z m -36.20193,-8.68682 c 8.26376,-10.58842 -10.51276,4.59515 0,0 z m -1.73469,-12.75 c 6.43973,-9.68251 -7.13941,-31.29901 -14.07677,-13.98106 -1.34642,4.65645 -8.0375,19.19145 -0.0142,10.37261 3.67806,-8.7286 11.76195,8.82069 14.09094,3.60845 z m 78.26018,-2.07735 c -5.33275,-3.92527 -1.12158,-22.13554 -1.21163,-7.32518 4.51253,6.74087 15.74326,0.0615 22.79953,3.12059 9.20467,-2.64892 20.8899,-15.58288 5.70633,-19.37165 -13.06495,-3.11959 -3.66088,-17.77662 -15.0173,-22.60267 8.31163,-0.85754 13.07618,3.43235 13.4806,12.50318 2.66807,8.51402 22.32901,10.68153 10.79063,22.24888 -7.44254,10.54439 -20.05024,13.20327 -32.21741,12.70224 -1.548,-0.35263 -4.90453,2.03375 -4.33075,-1.27539 z m -18.27549,-15.63747 c -5.86666,-4.76475 -2.56216,-10.07968 3.60777,-4.99997 6.288,1.08343 -1.27421,10.97835 -3.60777,4.99997 z m -40.75,-9.34099 c -9.02921,-5.00826 13.16207,-4.83179 2.3571,0.61179 -0.8009,0.24622 -1.57835,-0.49729 -2.3571,-0.61179 z m -18.57513,-12.09909 c -8.34965,-4.607 10.16108,-14.17275 6.39463,-5.22411 -3.541,-9.49334 -2.92911,6.3436 -6.39463,5.22411 z m 26.20671,-35.27178 c -6.25545,-2.99506 2.81057,-14.01646 3.34794,-3.1576 0.73255,2.03638 -1.02536,4.81444 -3.34794,3.1576 z m 20.78509,-0.98999 c 1.11345,-5.06022 6.87896,4.01741 0,0 z m 5.33333,-1.77431 c 1.35108,-3.77248 2.74338,1.73041 0,0 z m -40.5,-2.16369 c -7.18623,1.89072 -19.4908,-10.51197 -5.06092,-7.5803 5.2461,-1.11519 19.6065,12.67278 5.06092,7.5803 z m 45.06641,-0.85634 c 11.94608,-7.94282 -8.08528,-19.29583 -2.19879,-30.01087 -4.72022,-1.59389 -19.13144,12.12609 -20.17003,1.16817 -0.20918,-4.80382 6.11671,-7.08218 6.30938,-1.14054 8.44115,-12.67977 27.26549,-0.0563 24.01149,13.03933 0.5695,5.31072 -0.005,21.31634 -7.95205,16.94391 z m 16.94067,0.47246 c 4.82473,-4.47431 4.54736,1.85883 0,0 z m -19.73236,-4.26145 c -1.67322,-5.67026 3.58178,-5.40601 0,0 z m -4.77472,-1.19098 c 1.35108,-3.77248 2.74338,1.73041 0,0 z m 0.66667,-4.22569 c -4.60913,-6.27359 4.26444,1.51116 0,0 z m -69.66667,-2.94098 c 1.57674,-2.55583 2.83988,1.99934 0,0 z m 101.0562,-11.28735 c -0.36181,-10.41762 7.10284,4.97369 0,0 z m -42.0562,-1.105 c 2.42443,-4.4818 2.60161,4.34115 0,0 z"
       id="path7299"
       inkscape:connector-curvature="0" />
    <path
       style="fill:#8c2819"
       d="m 767.77344,332.15105 c -13.9387,-10.66883 -32.47454,-3.31415 -47.77912,-9.79769 -13.38077,-1.64043 -22.56702,-15.91142 -11.78934,-26.60354 3.18844,-7.92 10.95091,-19.17832 12.8,-21.45424 0.88259,-4.96734 4.1052,-2.91895 3.64946,-9.56383 0.64697,-5.93919 10.71402,-12.05706 6.61075,-1.64829 -1.34808,8.64753 0.30581,18.50187 -10.8931,18.75822 -8.20343,5.61348 -20.28071,26.29684 -4.47886,29.48543 10.77345,1.64652 12.19723,13.84104 24.73897,10.74948 10.46963,-1.61891 23.35436,4.3914 31.47697,1.61449 5.09866,-5.55806 5.19882,-11.49591 -3.60196,-9.18419 -0.61512,-10.33943 -7.27501,-19.40566 -19.43417,-17.92223 -10.14824,0.66666 -2.40425,-11.01781 3.52424,-3.49864 10.29151,3.07301 17.03438,18.63265 29.03144,13.51254 5.93535,-9.06077 17.20764,4.08607 6.50762,7.66366 -0.61752,7.08606 -4.60194,11.88958 -11.43557,12.03244 -0.26705,6.90409 3.26402,10.8073 -8.92733,5.85639 z m -54.46165,-4.3382 c -1.84967,-8.99729 11.81374,4.57444 0.71327,0.37585 l -0.59611,-0.31411 -0.11716,-0.0617 z m 96.02643,-19.17918 c -4.5327,-4.67053 -3.14159,-11.57647 1.62825,-5.0926 12.35418,1.94759 25.76349,-0.90153 33.53447,-11.35741 10.3699,-6.7355 1.15967,-14.93838 -6.4298,-17.78522 -4.743,-6.22646 -3.90238,-17.48631 -12.96437,-19.7228 14.3939,-7.06185 18.56732,14.19458 28.03466,20.1738 4.09462,15.68054 -10.5188,30.24611 -25.3524,32.48967 -6.06288,1.24262 -12.28347,1.38056 -18.45081,1.29456 z m -73.48583,-4.88919 c 0.6129,-5.51907 0.93873,3.68641 0,0 z m 9.03892,-2.48932 c 1.30208,-5.12101 5.0496,2.37754 0,0 z m -41.54466,-2.09401 c 1.09355,-5.89501 3.20936,-4.13887 0,0 z m 31.97874,-2.25 c -2.44422,-4.6033 0.83506,-17.82328 1.11577,-5.46786 0.0641,0.73398 0.62049,11.10215 -1.11577,5.46786 z m 60.4233,-1.3151 c 1.16072,-4.35387 -15.19484,-11.91669 -5.81485,-8.75567 2.14297,2.63449 11.6703,-0.23745 6.57151,5.38539 4.86745,-0.0342 1.48729,10.19962 -0.75666,3.37028 z m -8.97525,-2.9349 c 2.2676,-5.42662 1.96157,5.11848 0,0 z m 18.07895,-3.91667 c 0.6129,-5.51907 0.93873,3.68641 0,0 z m -58.07895,-9.67463 c 7.54143,-7.21075 9.11789,8.73739 0,0 z m -29.92105,-2.32537 c 0.61292,-5.51903 0.93872,3.68641 0,0 z m 136.92105,-2.55194 c 3.40484,-2.10835 2.91034,3.37336 0,0 z m -156,-8.03139 c 1.63539,-2.83796 1.36162,3.23408 0,0 z m -11,-4.71613 c -7.32419,-4.05592 10.58982,-21.01492 4.5263,-5.46413 -0.91022,2.22374 -2.51422,4.15231 -4.5263,5.46413 z m 52.37241,-4.73166 c -1.22839,-8.77579 4.19216,6.40036 0,0 z m 84.18523,0.54105 c 2.89752,-1.72265 2.62595,3.04949 0,0 z m -89.55764,-0.92659 c 2.91662,-3.64213 2.74387,3.01155 0,0 z m -52.55836,-8.2611 c -1.39725,-7.4408 11.78981,-8.61544 3.52179,-1.91969 -0.51776,1.30804 -1.99644,2.62703 -3.52179,1.91969 z m 60.57367,-12.78057 c 8.2921,-4.09816 3.99365,5.54175 0,0 z m 37.71802,-4.24909 c 6.27341,-4.52306 -1.92983,3.43803 0,0 z m -26.34747,-2.31277 c -3.24038,-7.0951 -21.56135,-16.7345 -21.33573,-6.93998 13.91245,6.65623 -8.31632,5.3477 -8.97902,-2.65262 -7.03767,0.43844 -17.51669,-5.46065 -8.78854,-13.26431 10.42476,-7.26576 14.74591,13.52868 27.2755,9.71385 8.34314,-0.13649 23.26142,1.12312 13.99108,12.15833 1.08193,1.91162 -1.08083,3.81844 -2.16329,0.98473 z m 0.39704,-7.91568 c -6.88721,-10.87031 -1.05946,9.21817 0,0 z m -38.7829,-8.81413 c -2.20595,-2.81626 -2.56859,3.49136 0,0 z m 25.66667,14.5 c -4.60913,-6.27359 4.26444,1.51116 0,0 z m 49.83333,-0.33333 c 5.39836,-4.94881 3.33322,4.51503 0,0 z m 3.94113,-1.4682 c 3.39513,-9.35897 2.97428,-21.13747 -1.35892,-29.92826 -5.50336,-8.4518 -16.43377,-4.35677 -21.78041,-1.56706 -5.44207,-9.44368 -4.94053,16.36291 -9.23488,7.93358 3.8629,-8.35261 -10.14539,-27.17751 6.97857,-20.76154 10.85392,6.0933 21.63365,6.27489 32.13847,-0.10197 8.58709,2.49656 12.76353,16.7234 23.11588,12.34289 2.55698,8.65859 -5.99898,17.84841 -4.69111,25.8783 -6.67442,6.57924 -13.64306,6.76745 -22.10418,5.75845 -1.33071,3.23087 -2.14056,1.27652 -3.06342,0.44561 z m 15.55887,-1.09082 c -2.61597,-1.77506 -1.03184,3.23958 0,0 z m 1.24603,-10.94767 c 1.10975,-13.5892 -14.71018,-0.67317 -5.48926,3.36239 2.19997,-0.25943 4.16431,-1.6372 5.48926,-3.36239 z m 5.69777,-11.38831 c 0.28159,-10.68395 -7.13142,5.01829 0,0 z m -13.02044,-8.7482 c -12.2884,-5.91792 5.15528,12.7176 0,0 z m -97.32035,28.47653 c 3.53096,-3.79869 2.42933,3.55146 0,0 z m 115.39699,-4.33333 c 3.65225,-4.71077 -0.97265,4.73377 0,0 z m -63.98469,-3.58333 c -0.64213,-4.94373 3.31864,-1.90792 0,0 z M 731.31692,195.8166 c -1.81965,-9.36406 16.00065,-2.22914 2.37741,0.53617 l -1.24913,0.11826 -1.12828,-0.65443 z m 11.45652,-10.65545 c 4.31771,-8.26186 4.98385,8.02862 0,0 z m 74,1 c 2.42443,-4.4818 2.60161,4.34115 0,0 z"
       id="path7297"
       inkscape:connector-curvature="0" />
    <path
       style="fill:#742216"
       d="m 766.27344,334.59386 c -12.797,-8.28619 -30.5652,-10.0616 -44.02113,-2.31835 -14.70877,2.654 -22.52673,-13.21453 -21.8599,-25.63269 -2.49077,-5.28867 2.25756,-20.91424 3.68818,-7.69726 -6.01496,12.95823 6.33436,21.7238 17.52585,24.21664 13.84641,5.58198 30.09838,-1.5305 42.77707,7.3077 5.99324,5.64114 14.53221,2.81736 12.74682,-4.90148 12.01743,0.91468 11.46202,-11.01843 14.5582,-19.59435 -5.9915,-6.49265 -19.32686,9.81516 -25.39209,-3.71658 -5.52876,-8.90699 -27.22428,-7.11563 -20.66834,-22.96551 9.68267,-0.76825 -5.6871,12.63875 7.46637,13.47215 11.20655,0.0861 17.18831,19.60881 28.5003,10.06961 3.48921,-6.39238 7.88195,-19.79795 14.90921,-7.51182 1.78763,7.09434 -5.7659,11.20735 1.86035,12.62654 -8.98621,5.89053 -10.86576,16.89592 -14.40135,25.49655 -4.77591,4.17169 -12.51645,5.21605 -17.68954,1.14885 z m -46.8229,-7.03363 c -4.51926,-10.40452 -10.31395,7.07862 0,0 z m 75.15291,-28.72817 c 4.08737,-12.04117 -11.30284,-0.47453 -3.05366,2.06422 1.16716,-0.44785 2.04423,-1.36016 3.05366,-2.06422 z m 14.15485,10.3567 c -0.24036,-1.58125 10.34915,2.28036 13.08761,-1.16871 14.08913,-0.35291 31.60216,-10.53668 31.58028,-26.04161 -2.02872,-5.67109 -2.66062,-18.54026 5.9367,-9.43796 6.12725,9.50907 -4.83517,11.96503 -5.51413,22.10593 -5.14273,10.90788 -18.58572,13.33603 -29.12727,16.38827 -5.28626,0.55183 -11.16993,0.84468 -15.96319,-1.84592 z m 47.51514,-35.02761 c -3.4843,-4.08158 -2.30768,3.75002 0,0 z m -120.42105,26.58333 c 0.6129,-5.51907 0.93873,3.68641 0,0 z m -32.68601,-10.18531 c -11.71419,-3.29307 -4.20153,-25.42662 1.44858,-8.74448 -4.27148,1.48763 8.3918,19.41596 -1.44858,8.74448 z m -0.39294,-10.94599 c -2.70491,-3.37622 -2.14124,3.95596 0,0 z m 95,13.10699 c 1.35108,-3.77248 2.74338,1.73041 0,0 z m -84.18842,-10.55902 c -3.81511,-7.84853 13.2044,-8.95721 4.15045,-5.05024 -1.39146,1.516 -6.88882,13.85397 -4.15045,5.05024 z m 3.79259,-6.72917 c -2.11641,1.51991 1.88871,3.71627 0,0 z m 37.12704,3.64901 c 2.35176,-4.62545 -0.67782,5.18395 0,0 z m -66.73121,-4.91984 c 3.51119,-3.92775 5.05382,3.89416 0,0 z m 14.5,-2.00215 c -5.14455,0.24579 -12.47156,-11.24984 -4.25756,-3.92231 4.92962,2.23657 23.30435,3.9562 9.05794,4.61524 -1.59754,-0.23042 -3.17157,-0.71924 -4.80038,-0.69293 z m -15.5,-1.49785 c 1.72524,-3.7652 4.66824,5.83927 0,0 z m 32.63837,0 c 1.24719,-4.94408 1.93341,5.01188 0,0 z m 2.92618,0.25 c -5.38383,-6.13189 12.90741,-19.95645 3.60691,-9.15386 -1.75947,1.43622 -0.79611,11.13375 -3.60691,9.15386 z m 124.69925,-1.65078 c -0.29906,-10.76545 -17.70803,-17.65416 -19.16483,-17.31475 10.85093,-4.80882 21.61012,13.00941 19.16483,17.31475 z m -140.2638,-0.48259 c 3.27424,-3.38976 4.61476,1.34008 0,0 z m -5.75,-1.64779 c -6.68218,-5.81617 8.70669,2.15471 0,0 z m 159.78983,-1.42085 c 1.82304,-4.59019 -12.93649,-15.07344 -1.89837,-10.50712 7.11426,6.18043 10.58494,-3.55085 11.74888,-5.94673 10.94264,1.10386 6.20295,14.63111 -3.19208,12.57417 -2.33623,0.57515 -4.17879,4.93368 -6.65843,3.87968 z m -180.67116,-0.22683 c 1.35944,-7.71405 -6.05078,-19.14064 2.18264,-24.11009 -3.60811,14.294 8.15424,-7.0588 10.18267,4.38001 1.25622,6.88292 -0.70899,13.24357 -1.24795,2.86007 -6.26066,3.39201 -6.85283,12.32415 -4.57017,15.17491 -1.71303,1.60777 -4.26591,2.31677 -6.54719,1.6951 z m 176.8419,-0.92202 c -2.99459,-6.61725 4.05849,4.32942 0,0 z m -68.13162,-0.81581 c 0.6129,-5.51905 0.93873,3.6864 0,0 z m -100.9209,-3.46449 c 1.2828,-4.76187 4.71895,2.94152 0,0 z m 164.84195,-3.11884 c 1.63539,-2.83796 1.36162,3.23408 0,0 z m -120,-3 c 1.63539,-2.83796 1.36162,3.23408 0,0 z m 6.24188,-2.76672 c 0.46935,-5.98528 1.63126,6.05397 0,0 z m 76.75812,1.26672 c 2.1002,-5.01302 0.69898,4.98574 0,0 z m 7.27083,-3.10417 c 2.82419,-1.81491 2.18395,2.42436 0,0 z m -138.77083,-9.39583 c 3.75367,-3.45123 4.10464,4.53182 0,0 z m 114.57895,-2.41667 c 0.6129,-5.51905 0.93873,3.6864 0,0 z m -55.41228,-1.25 c -1.42496,-8.82803 6.75364,1.04722 0,0 z m -2.58772,-1.75 c 0.6129,-5.51905 0.93873,3.6864 0,0 z m 67.92105,-0.58333 c -2.20279,-3.9058 5.9246,4.4995 0,0 z m 8,-4 c 3.41355,-3.47588 2.72102,0.636 -0.11242,0.82143 l 0.11242,-0.82143 z m -89.55696,-4.72727 c 3.77765,-4.52929 12.01611,6.28196 2.20201,1.7394 -1.02965,-0.0846 -1.46101,-1.18258 -2.20201,-1.7394 z m 14.82779,2.1231 c 2.82419,-1.81491 2.18395,2.42436 0,0 z m 59.18346,-0.32187 c -4.98822,-7.38939 6.69318,-2.85647 0,0 z m 4.05279,-0.0625 c 2.78102,-1.92482 1.68273,3.51438 0,0 z m -8.50708,-2.45244 c 1.35108,-3.77248 2.74338,1.73041 0,0 z m 14,-0.39235 c 2.91662,-3.64213 2.74387,3.01155 0,0 z m 4.26448,-1.09851 c -1.56114,-3.92487 9.31512,0.25915 0.84777,1.12878 l -0.84777,-1.12878 z m -109.32318,-0.63889 c -5.36603,-4.85078 5.90763,-6.58903 0.34371,-0.8858 5.66982,-1.74239 5.43033,5.58019 -0.34371,0.8858 z m 16.61043,0.48703 c -8.33424,0.0233 2.32911,-10.71599 0.37078,-2.07492 5.39516,-1.19708 1.03059,3.92989 -0.37078,2.07492 z m 103.44827,0.64272 c 1.35108,-3.77248 2.74338,1.73041 0,0 z m -74.42857,-2.13045 c -3.31862,-7.52845 6.01296,3.56218 0,0 z m 69.23426,-1.9557 c 0.0705,-4.36592 0.70817,-7.28962 -1.33308,-6.50757 3.29707,-7.88223 11.73563,-25.17516 -3.57982,-20.528 -2.87746,-3.77865 -16.98643,-9.74646 -5.90653,-12.92176 11.38765,1.05265 28.45977,10.93717 22.92684,24.59852 -4.35536,6.2052 -12.22344,11.52467 -10.73146,17.04938 l -1.37595,-1.69057 0,0 z m 10.32285,-14.72287 c -1.84095,-4.95805 -4.21079,6.16796 0,0 z m -5.12854,-0.75 c -2.42443,-4.4818 -2.60161,4.34115 0,0 z m -7,-18 c -2.42443,-4.4818 -2.60161,4.34115 0,0 z m -104.44681,32.27802 c -7.21022,-3.59469 4.53958,-2.71493 0.97759,0.91637 l -0.4916,-0.46082 -0.48599,-0.45555 z m 42.83867,-1.69924 c -13.69373,0.34114 -29.3653,-1.39955 -37.18022,-13.43272 -5.26727,-1.00676 -14.29921,15.15459 -11.11466,2.58432 5.7668,-9.46015 22.06147,-5.60616 23.72039,-19.55231 4.81185,-11.25119 25.58526,-11.21236 29.06158,1.12207 2.86974,9.85218 -0.82477,24.05738 -4.48709,29.27864 l 0,0 z m -6.70212,-1.98424 c 9.99936,-0.008 8.38547,-16.72219 -2.70838,-13.21723 12.71376,-2.80194 -3.03195,-20.95514 -6.183,-6.74497 1.61043,8.66774 -3.78622,5.78519 -8.2406,5.73146 -7.98711,7.38766 9.79709,14.43688 14.97482,14.83342 l 2.15716,-0.60268 0,0 z m -13.48974,-19.59454 c 6.54138,-10.67173 -15.40393,3.34995 -0.84484,0.55431 l 0.56338,-0.36964 0.28146,-0.18467 z m 21.06533,-8.59675 c -9.76024,-2.42836 6.21565,10.19765 0,0 z m -11.26533,-1.40325 c -4.31771,-8.26186 -4.98385,8.02862 0,0 z m 56.46943,30.1361 c -5.30503,-11.51873 14.98944,-7.65573 5.329,-0.14534 -1.56343,0.72648 -3.86994,1.57522 -5.329,0.14534 z M 702.85239,204.74448 c 0.61292,-5.51903 0.93872,3.68641 0,0 z m 3,0 c 0.61292,-5.51903 0.93872,3.68641 0,0 z m 68.46748,0.36276 c -10.5882,-1.02424 -2.80188,-1.52055 2.6449,-0.0646 l -2.6449,0.0646 z m 59.45357,-0.38707 c 1.35108,-3.77248 2.74338,1.73041 0,0 z m -30.45223,-7.80902 c -9.13212,0.26822 -0.67396,-11.7014 1.28191,-2.16788 0.43668,0.59719 -0.43264,5.27892 -1.28191,2.16788 z m -20.45094,-11.13333 c -5.05301,-0.865 -17.57328,-8.84783 -6.03906,-5.39328 4.22069,5.28742 23.10792,-3.46966 19.61549,0.75788 -4.24663,1.96418 -8.41766,7.27023 -13.57643,4.6354 z"
       id="path7295"
       inkscape:connector-curvature="0" />
    <path
       style="fill:#6a1c12"
       d="m 766.05226,339.18452 c -11.52718,-6.39778 -28.6273,-13.4596 -39.81379,-3.62383 -14.46067,5.2444 -33.6937,-9.00798 -29.71868,-24.89806 2.63969,-11.67007 -0.46841,-25.46112 -9.70067,-33.41434 -4.6816,-4.75094 -15.67733,4.69727 -10.24494,-6.34514 -2.67763,-7.15136 -8.92673,-17.8942 -2.02636,-26.37566 7.26467,-4.41524 3.08964,13.89006 5.87973,19.22204 4.97937,3.4145 -7.72297,11.40251 2.19231,7.18377 11.58355,-5.19872 14.82171,7.70694 16.90244,16.97225 4.16095,3.54621 5.9518,5.86399 0.9498,4.80425 -0.18058,12.98045 -1.65472,31.48426 12.1082,38.14634 12.59846,3.36399 23.77653,-7.56022 37.21234,-2.29394 12.451,0.59644 29.74689,18.40402 36.98293,-0.15778 0.62305,-5.58678 5.04908,-20.22086 11.41538,-14.76153 -3.04914,4.0994 -9.17489,7.9459 -5.81555,15.43287 1.81038,10.09289 -19.86281,11.47949 -26.32314,10.10876 z m -73.77882,-65.02337 c -4.59833,-5.30845 -7.83723,4.25434 0,0 z m 105.5,58 c 3.94083,-4.11738 4.78363,4.32646 0,0 z m 6,-17.44098 c 0.84541,-4.60117 1.83289,3.47171 0,0 z m 5.16919,-2.08703 c 5.97033,-6.95879 22.08107,4.25615 29.49612,-6.29863 14.95831,-2.25006 16.06223,-16.68174 22.75876,-26.83702 5.3018,-2.1378 0.57301,14.68226 -3.94858,18.10133 -9.56866,12.01911 -25.99583,14.32758 -40.26222,16.2879 -2.72213,0.0471 -5.49353,-0.25017 -8.04408,-1.25358 z m -11.46079,-5.15448 c 3.52599,-3.10066 2.5778,4.03072 0,0 z m -27.0473,-3.69518 c -0.65825,-5.48878 -18.06103,-9.39497 -12.73392,-11.44948 7.85473,5.38478 21.83711,16.87241 25.64391,1.14108 7.65223,-5.09635 -6.73132,24.41585 -12.90999,10.3084 z m 22.3389,2.43669 c 6.65322,-5.99721 5.86391,2.97351 0,0 z m -48,-0.45203 c 2.49684,-4.13597 4.90775,0.71116 0,0 z m 50,-4.54797 c 1.77244,-5.57063 3.27802,4.29351 0,0 z m -6,-1.58831 c -0.58621,-11.60475 12.20174,0.43421 1.37038,1.40832 l -0.93703,-0.44447 -0.43335,-0.96385 z m -88,-6.02973 c 2.93199,-3.40106 0.73565,4.55866 0,0 z m 47.25,-2.93681 c -7.04171,-5.07794 10.44681,-12.37217 0.50874,-4.78903 -0.6733,1.37571 3.70606,8.5145 -0.50874,4.78903 z m -43.5,-4.48813 c -6.13753,-11.51785 6.76946,2.24636 0,0 z m 80.83323,-0.76604 c -1.11856,-12.95148 4.33217,-0.36351 0,0 z m -84.58323,-6.25 c 1.63539,-2.83796 1.36162,3.23408 0,0 z m 6,-5.90638 c 4.05357,-2.15901 4.46784,3.23438 0,0 z m -4.72917,-0.69779 c 2.82419,-1.81491 2.18395,2.42436 0,0 z m 10.17532,-0.48296 c -0.42153,-6.13763 3.53942,-0.48803 0,0 z m 6.22052,0.42046 c -2.93751,-3.86911 3.01391,-0.77012 0,0 z m -20,-1 c -2.93751,-3.86911 3.01391,-0.77012 0,0 z m 9.33333,-0.39235 c -7.20144,1.76638 -8.02251,-9.27149 -0.6939,-3.82056 3.99946,-1.56085 3.48886,7.56688 0.6939,3.82056 z m 12.24563,-1.44149 c 1.12475,-9.355 4.28676,5.17429 0,0 z m 133.31516,-0.0787 c -7.83063,-3.83718 9.24983,1.65995 0,0 z m 7.25302,-0.84954 c -4.96374,-4.01546 -9.70725,-20.58238 -1.09518,-8.434 2.11838,10.50729 11.42638,-0.0918 17.03807,-2.36007 4.15106,-5.15483 -6.62582,-11.32539 4.41066,-8.48402 9.26654,8.94212 -1.46411,16.53321 -10.62544,17.6136 -2.33368,3.44915 -6.83786,3.46545 -9.72811,1.66449 z m -48.81381,-3.07125 c 5.90765,-5.79082 -2.65947,4.2571 0,0 z m -116.66667,-0.8628 c 3.88747,-4.44609 2.55635,3.96695 0,0 z m 149.26968,-1.47053 c 1.28441,-2.92459 1.94392,2.5705 0,0 z m -118.52406,-4.58334 c 0.61292,-5.51903 0.93872,3.68641 0,0 z m 133.58772,-2.25 c -2.53621,-5.20205 -7.5071,-4.94651 0.26718,-7.60144 7.76152,-2.49685 15.23517,3.68865 5.17817,8.53974 -1.7716,0.82692 -4.08717,0.55589 -5.44535,-0.9383 z m -4.15959,-2.32188 c 2.74274,-1.93615 1.71482,3.53511 0,0 z m -33.23625,-3.61562 c 2.82419,-1.81491 2.18395,2.42436 0,0 z m 6,0 c 2.82419,-1.81491 2.18395,2.42436 0,0 z m -3.12759,-1.28614 c -0.88917,-4.74253 5.18262,3.26989 0,0 z m -144.64324,-7.10969 c 3.39156,-8.06922 4.7832,4.2125 0,0 z m 8.49849,-1.62354 c -7.04221,-4.18123 8.09945,2.86084 0,0 z m 26.00151,-12.37646 c 1.63539,-2.83796 1.36162,3.23408 0,0 z m 32,0 c -2.20279,-3.9058 5.9246,4.4995 0,0 z m -21.36163,-3.5 c 0.42887,-4.43383 2.54519,4.79023 0,0 z m 88.4494,-0.67903 c 2.82915,-6.1405 6.59613,-1.2229 0,0 z m -98.08777,-3.26195 c 1.35108,-3.77248 2.74338,1.73041 0,0 z M 823.2063,217.8829 c 0.24576,-6.81332 8.47016,-6.75959 1.57872,-1.21325 -0.25291,1.255 -5.32788,5.93547 -1.57872,1.21325 z m -79.68286,-2.80185 c -7.44247,-2.50335 -19.60149,-15.86589 -5.24596,-14.16032 5.67488,0.3391 3.99002,-19.49961 13.80113,-9.53692 4.04641,7.35665 -10.43261,12.32653 1.36586,11.07033 7.49589,0.65295 3.05889,10.05003 -1.74628,3.99719 -10.81784,0.48298 -5.06415,11.00417 2.39078,5.27925 5.60365,3.26582 -9.85526,4.65217 -10.56553,3.35047 z m 4.75,-20.9199 c -2.97703,-3.61866 -0.45013,3.61121 0,0 z m -47.5,17.22943 c 1.41472,-4.43737 5.90801,0.10732 0,0 z m 5.46194,-1.03181 c -6.08094,-11.32758 8.36747,-14.59606 15.73015,-16.33664 0.60368,-5.01126 10.52796,-15.22285 12.76075,-11.3164 -3.27477,12.21404 -15.01697,16.04413 -24.82906,21.2485 -2.35564,-0.20244 -4.51702,10.99992 -3.66184,6.40454 z m -19.46194,-0.59699 c 2.28502,-8.67435 15.1851,0.0465 3.57626,1.11197 -1.12823,0.35046 -3.45516,0.64914 -3.57626,-1.11197 z m 8.1875,-2.28374 c -6.416,-3.02632 0.56667,2.72 0,0 z m 5.8125,0.79076 c -5.83745,-2.20602 3.06911,-1.61621 0,0 z m 129.04685,-0.66411 c 5.00943,-4.9075 -0.39391,5.12104 0,0 z m -1.38018,-1.11021 c -0.96775,-6.05118 7.54774,0.3142 0,0 z m 3.94276,-0.15627 c 5.96601,-12.22637 -6.1612,-24.00388 -17.92049,-25.12402 -4.81188,-2.98749 14.73362,-4.07686 18.12196,0.32649 10.05047,5.2037 19.61214,21.99714 2.00417,23.36701 l -2.20564,1.43052 0,0 z m -8.60943,-2.17706 c 2.42443,-4.4818 2.60161,4.34115 0,0 z M 756.4802,190.38962 c -6.23139,-8.388 6.76552,-1.47618 0.85726,0.16401 l -0.66181,-0.12662 -0.19545,-0.0374 z m 25.54324,-8.57588 c -5.53458,-6.08536 19.13019,-1.30944 3.9184,1.00836 -1.37163,0.0552 -2.7227,-0.36342 -3.9184,-1.00836 z"
       id="path7293"
       inkscape:connector-curvature="0" />
    <path
       style="fill:#4d140e"
       d="m 758.94918,343.20666 c -8.69205,-10.18006 -22.59168,-3.78775 -33.39373,-1.7904 -11.74968,2.11535 -25.22354,-1.09029 -30.79093,-12.75511 -6.21963,-10.09054 -10.32331,-29.45827 -26.25831,-25.08608 -13.43522,5.86089 -18.96703,-12.47569 -20.07046,-22.46486 0.87371,-6.54239 20.85594,-1.95262 10.10357,-9.79358 -5.40226,-5.06089 -1.52938,-24.80822 6.45007,-32.15543 3.59598,-13.15787 21.25614,4.61286 7.23697,8.84562 -1.67191,9.24306 0.50327,16.24809 5.13214,24.22891 -8.26141,11.63093 14.22909,-3.65618 12.31745,8.65049 10.56738,10.42526 6.43168,25.61087 7.2209,38.42702 3.14808,12.70492 18.67913,20.8037 30.43361,15.35405 12.52392,-10.84221 26.42241,0.7657 39.46976,4.07237 10.42253,3.89643 31.94693,-2.77705 24.63887,-15.90167 3.22985,-11.4354 14.4356,-15.46204 23.56802,-8.79675 13.67804,-1.46108 28.51762,-3.68659 39.42299,-13.05695 7.77833,-7.69395 9.79969,-20.8438 11.94889,-28.10328 -1.93134,-4.60385 -9.68332,-4.85043 -5.85468,-0.11766 -4.29796,-3.11239 -9.38071,-18.88127 -3.03992,-7.02923 7.68523,7.27454 23.62297,0.35087 26.73091,-7.84741 -0.34949,-14.21468 -16.0358,-5.3115 -23.89074,-9.85729 -5.71208,0.60322 -10.48383,14.63245 -7.86621,2.01504 5.98412,-12.88794 21.81897,3.40319 32.00652,-4.39941 10.09232,3.89053 5.3397,20.56916 9.71413,28.22829 -9.19784,-3.19412 -18.15635,-4.096 -16.85401,7.93646 -15.45998,0.21496 -8.0524,22.08634 -19.42754,29.34979 -11.6191,7.94715 -28.24671,-1.96925 -39.96124,7.96882 -4.68808,5.77842 3.67381,20.7924 -8.19488,25.66356 -9.18172,2.69088 -16.62651,-9.65814 -26.50592,-1.75031 -7.67273,1.39088 -16.61959,3.48286 -23.61232,2.324 l -0.67391,-2.159 0,0 z m 43.82426,-11.04551 c -5.42133,-4.39714 -8.7099,3.26072 0,0 z m 2.45729,-18.0691 c -3.32219,-2.58474 0.81773,4.09378 0,0 z M 686.29728,288.19972 c -11.12299,-6.25348 -2.90051,5.93421 0,0 z m 185.66366,-13.72168 c -6.41698,-3.0268 0.56636,2.7198 0,0 z m -128.4375,38.02083 c 3.54573,-1.30368 2.72948,1.93616 0,0 z m 2.17431,-8.00742 c -5.33674,-6.48855 6.68035,6.00777 0,0 z m 49.45511,0.29028 c 0.64771,-7.86677 1.72341,2.86265 0,0 z m -23.87942,-3.62058 c -4.28042,-7.60856 -29.897,-8.43852 -17.29162,-19.73597 2.14994,10.9218 22.96341,21.81749 27.23398,7.22886 -0.0157,-5.72006 5.8244,-18.08644 4.90328,-5.36313 -0.20817,7.10584 -5.50141,22.84311 -14.84564,17.87024 z m -66.5,-2.5 c 1.44944,-4.75729 1.46478,4.30097 0,0 z m 32.232,-5.5 c 0.52309,-7.42096 0.63342,7.24054 0,0 z m 67.84695,0.58333 c 0.6129,-5.51907 0.93873,3.68641 0,0 z m 101.17105,-2.07916 c -7.06432,-11.16506 11.87127,-5.51855 3.04073,1.42717 -1.22812,-0.10233 -2.13312,-0.62236 -3.04073,-1.42717 z M 736.0458,279.16115 c 0.59239,-9.18335 0.55565,9.22511 0,0 z m -31.81348,0.93347 c -1.02661,-5.01897 2.40398,3.39795 0,0 z m -2.33885,-4.68347 c -6.19061,-5.03413 10.29685,-0.1751 1.12671,-0.31049 2.41732,2.43836 -1.47028,2.70746 -1.12671,0.31049 z m 94.07492,-2.75 c 0.20463,-7.07168 0.97932,5.36274 0,0 z m -119.19495,0.67041 c 2.88469,-5.62135 12.9968,-9.54372 4.23946,-1.6699 -1.212,0.91024 -2.62464,1.8712 -4.23946,1.6699 z m 13,-3.17041 c 1.71809,-3.13497 4.31746,4.17259 0,0 z m 23.40451,0.15451 c -5.40645,-1.80981 -11.99269,-8.07027 -2.57368,-3.31588 0.34794,0.39238 5.21179,2.42942 2.57368,3.31588 z m 6.59549,-3.65451 c 5.90765,-5.79082 -2.65947,4.2571 0,0 z m 132,0.059 c 1.35109,-3.77247 2.74338,1.73042 0,0 z m -152.72917,-3.16319 c 2.82419,-1.81491 2.18395,2.42436 0,0 z m 23.29312,-0.7019 c 2.63653,-5.03682 8.3618,-10.47903 2.78757,-2.07634 -0.0406,0.003 -2.92875,5.04154 -2.78757,2.07634 z m 85.59394,-1.69393 c 0.86033,-6.37478 0.61704,5.48031 0,0 z m 34.2471,-4.25 c -4.89183,-6.27974 6.48979,6.46088 0,0 z M 735.33773,253.868 c 3.81458,-5.81506 -0.9326,4.21262 0,0 z m 64.43571,0.29313 c 1.63539,-2.83796 1.36162,3.23408 0,0 z m 48.56429,-0.70687 c -0.48095,-4.25011 2.7249,5.01553 0,0 z m -154.56429,-2.23411 c 1.33817,-3.56241 2.50404,1.9934 0,0 z m 113.5,-2.24799 c -5.23454,-6.2007 6.63707,5.32348 0,0 z m 7.5,0.18897 c 1.05342,-5.66568 1.23491,5.6322 0,0 z m 10.5,1.23469 c 3.95302,-4.64551 -8.40746,0.18079 0.86678,-4.27097 4.1831,-0.63711 2.87576,6.10524 -0.86678,4.27097 z m -93.86865,-7.753 c 5.30416,-8.58817 7.73202,4.3944 0,0 z m 8.1771,-1.19508 c 4.6954,-2.98451 -6.31591,-5.00156 0.49277,-6.07769 7.86492,3.27315 1.39322,8.5048 -0.49277,6.07769 z m 59.2705,-0.70328 c 0.6129,-5.51905 0.93873,3.6864 0,0 z m -109.80812,-1.1875 c 2.82419,-1.81491 2.18395,2.42436 0,0 z m 68.12218,-0.97762 c 3.48996,-11.34463 9.00505,4.28307 0,0 z m 36.10699,0.0569 c -7.64564,-4.10812 9.16535,2.55104 0,0 z m -110.25,-0.16445 c 3.51266,-1.5414 4.3946,1.66847 0,0 z m 67.74849,-0.68713 c 8.40917,-2.81747 -6.67088,3.8494 0,0 z m 26.00151,0.013 c 6.21774,-5.57441 7.21981,5.63051 0,0 z m 42.5,0.36346 c 0.9349,-3.66495 1.72924,3.53491 0,0 z m -32.5,-2.5 c 0.58445,-5.22362 4.02126,5.68039 0,0 z m 36.70233,0.16667 c 1.70737,-5.26296 1.7758,4.78179 0,0 z m -16.4315,-0.27084 c 2.82419,-1.81491 2.18395,2.42436 0,0 z m -66.5375,-2.51992 c 6.27341,-4.52306 -1.92983,3.43803 0,0 z m 37.26667,0.12409 c -2.20279,-3.9058 5.9246,4.4995 0,0 z m 26.75,0.33772 c 3.54533,-1.30375 2.7299,1.93619 0,0 z m 7.25,-0.2787 c 1.33817,-3.56241 2.50404,1.9934 0,0 z m -58.5,-2.05902 c -3.46059,-3.77285 7.07328,3.59916 0,0 z m 27.5,0.60699 c 2.59021,-3.99106 4.8518,2.43856 0,0 z m -65.99801,-1.85699 c -1.76912,-0.0944 -7.69102,-7.60119 0.35684,-3.72234 3.96205,2.22536 6.60041,7.83222 -0.35684,3.72234 z m 70.73134,0.12591 c 6.27341,-4.52306 -1.92983,3.43803 0,0 z m 33.86144,-0.72257 c 0.98633,-4.89587 5.83918,0.99069 0,0 z m -85.59477,-1.15334 c -2.20279,-3.9058 5.9246,4.4995 0,0 z m 56,0.059 c 1.33817,-3.56241 2.50404,1.9934 0,0 z m -96.72917,-1.66319 c 2.82419,-1.81491 2.18395,2.42436 0,0 z m 132.97917,-1.80581 c 2.00655,-5.41868 10.3361,-12.70378 4.05444,-3.02184 -0.75785,0.65719 -3.3517,5.67975 -4.05444,3.02184 z m -120.69763,-1.53216 c -4.358,-6.05298 3.13307,0.0872 1.72538,1.22207 l -1.72538,-1.22207 z m 17.44763,1.01546 c -7.24221,-4.88088 8.04149,2.51606 0,0 z m -9.12755,-3.82332 c -2.52461,-4.39035 5.87947,6.38631 0,0 z m 120.69184,0.0431 c -0.48095,-4.25011 2.7249,5.01553 0,0 z m -194.06429,-2.29313 c 3.4843,-4.08158 2.30768,3.75002 0,0 z m 51.5,-1.98464 c -6.28549,-2.77966 -18.52562,-4.36745 -7.71547,-12.01717 6.87662,-5.21314 24.79293,-7.76741 14.38253,-20.04567 -7.38222,-8.92247 13.32722,-2.7883 18.14917,-5.28268 5.8305,-0.9101 21.56491,1.31224 10.0677,7.40733 -6.47768,3.73053 -2.55328,13.17328 -11.51734,8.57623 -8.45233,0.3701 -15.24907,22.34249 -20.02596,13.45164 7.78543,4.91529 7.20142,-6.53859 -0.71043,-2.62363 -10.63497,0.006 -4.02197,11.56224 -0.69488,11.59378 l -1.93528,-1.05983 -4e-5,0 z m 9,1.54366 c 1.35108,-3.77248 2.74338,1.73041 0,0 z m 133.07895,-1.25 c 3.53088,-8.38522 5.60137,5.1255 0,0 z M 703.77344,215.5983 c -7.6367,-11.64628 7.01433,0.54744 0,0 z m 54,0.95996 c 1.91482,-7.00691 5.86199,-0.0755 0,0 z m -47.51008,-1.4135 c -8.10832,-1.87596 3.29773,-0.20806 0,0 z m 116.51008,-0.48369 c 5.90765,-5.79082 -2.65947,4.2571 0,0 z m -151.26903,-1.15594 c 5.10806,-2.08641 2.21788,2.05944 0,0 z m 69.9313,-1.73675 c -3.7104,-10.63395 17.35887,0.0521 4.04523,1.44151 -1.38105,1.42103 -3.41103,-0.0643 -4.04523,-1.44151 z m 84.51326,1.47136 c -2.56819,-7.11807 4.37182,-3.11683 2.96057,-3.04796 7.53207,-5.63167 18.07809,-14.56377 6.28435,-22.86418 -4.35104,-2.6115 -11.02323,-10.82384 -0.76566,-8.38111 10.18139,4.44577 30.42866,3.21426 31.66242,16.17477 -4.55769,7.54334 -13.98661,12.63304 -20.28319,17.69161 -5.82049,-1.57615 -13.6562,-8.74992 -16.35415,0.57428 l -1.15729,0.22723 -2.34705,-0.37464 0,0 z m 29.0953,0.31716 c 2.82419,-1.81491 2.18395,2.42436 0,0 z m -98.27083,-3.07418 c 2.8464,-5.62234 4.69876,-2.85129 0,0 z m -57,-1.9293 c 1.57674,-2.55583 2.83988,1.99934 0,0 z m 72,-0.97566 c -5.19428,-0.36145 -11.08399,-3.21495 -2.4661,-3.33671 2.21759,0.20897 8.26553,6.61114 2.4661,3.33671 z m -72,-2.35767 c 1.33817,-3.56241 2.50404,1.9934 0,0 z m 43,-11.05902 c 1.63539,-2.83796 1.36162,3.23408 0,0 z M 691.85239,180.7444 c 0.61291,-5.51902 0.93872,3.68639 0,0 z"
       id="path7291"
       inkscape:connector-curvature="0" />
    <path
       style="fill:#2c0b07"
       d="m 687.95139,354.91687 c -1.78833,-4.97453 7.63737,-11.05417 -2.50448,-8.15856 -10.37034,-1.62848 -13.44131,-15.38568 -4.42455,-19.82687 2.65223,-16.74858 -17.47047,-10.58366 -26.48633,-13.57655 -9.82118,-6.52234 -13.39422,-19.68457 -25.29793,-23.64038 -2.32705,-7.91535 7.96256,-17.38948 12.47918,-24.89186 8.84022,-8.8552 8.22191,-22.93972 13.40261,-33.89603 2.83782,-13.67266 29.10718,2.72847 12.55601,4.05413 -6.69788,8.98576 -12.29966,18.6579 -11.5554,30.52765 0.35804,3.51742 1.42752,10.41772 4.66805,5.95188 2.55304,8.89894 -4.41667,6.87733 -9.44714,5.74195 -7.35004,9.06243 3.46394,30.83558 16.97119,26.70132 15.46811,-3.64148 20.1164,11.0812 25.18344,21.91635 4.96179,13.44114 18.44804,18.23718 31.93,15.43197 11.37704,-1.36127 24.60029,-8.03739 34.20724,1.80878 10.81967,8.61591 26.28756,-5.67522 38.17959,-0.87422 9.74134,10.20522 23.4795,-4.38504 18.65419,-15.10797 -4.69084,-15.79583 20.32057,-12.27444 29.98231,-12.47178 15.31934,0.79481 19.01172,-16.2912 22.25035,-27.74843 1.68738,-6.77873 11.64576,-1.53176 9.8927,-11.71568 1.42682,-11.15002 20.88808,6.34679 14.90333,-6.63327 -5.91887,-8.06118 1.72875,-27.58038 -15.41753,-22.72206 11.71293,-1.99812 -3.5887,-11.50748 3.34859,-16.52969 2.41581,12.04609 -4.09358,-10.0214 4.41337,-11.95812 9.92195,-7.1367 30.20636,0.4707 24.4794,14.837 -1.44691,8.45998 -6.74904,12.12034 -14.18577,13.7905 6.41988,8.59962 19.09358,16.60866 14.69811,29.47402 0.1901,7.77158 -10.96163,13.27818 -1.39924,20.35495 1.80075,9.83495 5.66177,30.52734 -9.34341,29.11396 -6.19815,1.09676 -14.17496,4.30285 -9.19316,-4.59884 -0.60094,-12.07428 -0.49131,-24.29474 2.91009,-35.57967 -8.22632,-6.81493 -9.7091,13.18351 -17.14307,16.81557 -9.58631,6.16105 -12.81233,25.47145 -26.64606,21.63584 -5.95921,-2.50443 -24.74642,-8.59523 -23.36249,-0.56676 8.36499,4.57805 8.54628,11.84368 15.69412,18.06129 7.34296,10.43291 -1.88562,20.58205 -13.45509,15.3088 -11.41509,-1.80752 -25.70033,4.73039 -34.65327,-5.34457 -9.10037,-13.13759 -20.73083,10.79035 -32.78468,5.43037 -6.3921,0.68767 -18.89521,-0.39979 -14.73443,-9.89577 -12.89671,0.94977 -26.60135,-0.0293 -38.84211,3.96265 -5.53391,0.7487 -16.51438,7.17173 -19.92773,4.8181 z m 10.82205,-4.75572 c -2.42443,-4.4818 -2.60161,4.34115 0,0 z m 156.89606,1.68506 c -7.19462,-7.11619 1.75762,-20.27465 7.19391,-24.85962 12.48437,-6.36657 7.20923,13.70071 -1.41681,15.87936 -4.3623,0.65087 -0.50148,19.98936 -5.7771,8.98026 z m 27.10394,-22.18506 c 8.71369,-6.68997 9.40776,6.8104 0,0 z M 741.04427,313.55698 c 2.8242,-1.81496 2.18389,2.42467 0,0 z m 1.72917,-3.89583 c 0.92919,-6.93548 1.28694,6.91647 0,0 z m 61,1 c 3.65225,-4.71077 -0.97265,4.73377 0,0 z m 2.07895,-3.91667 c 0.6129,-5.51907 0.93873,3.68641 0,0 z m -68.92106,-1.58333 c 0.86033,-6.37478 0.61704,5.48031 0,0 z m 63.45321,0.42893 c -8.6655,-2.73525 2.79465,-3.92164 0.60914,0.43632 l -0.54778,-0.39237 -0.0614,-0.0439 z m -56.27777,-0.88494 c 2.71126,-4.20164 -0.0857,4.80839 0,0 z m -37.75082,-9.54399 c 2.89894,-7.5247 -0.8965,5.4376 0,0 z m 58.97034,-2.07318 c -8.75722,0.38444 -14.68766,-17.81396 -7.55474,-17.29023 1.20422,9.44747 17.33455,26.22334 20.55111,9.71117 -0.31775,-6.1699 11.51588,-20.99864 5.71151,-6.5333 -1.98381,8.57089 -7.65769,26.03317 -18.70788,14.11236 z m -6.94868,-12.65599 c -2.11642,1.51991 1.88873,3.71626 0,0 z m -75.88384,9.1066 c -5.28098,-6.16376 9.48072,1.79311 0.64704,0.31244 l -0.60677,-0.293 -0.0403,-0.0194 z m 28.3103,-3.87743 c -0.15652,-4.40531 4.06214,-3.06131 0,0 z m 94.04832,-3.91667 c 0.6129,-5.51907 0.93873,3.68641 0,0 z m 58.92105,-3.58333 c 2.42443,-4.4818 2.60161,4.34115 0,0 z m -149.86329,-3.15271 c 0.33643,-8.98836 6.65465,1.14264 0,0 z m -7.40338,0.0286 c 6.27341,-4.52306 -1.92983,3.43803 0,0 z m 155.83096,-0.58278 c -0.48095,-4.25011 2.7249,5.01553 0,0 z m 7.70654,0.1027 c 2.82419,-1.81491 2.18395,2.42436 0,0 z m -67.19188,-1.8125 c 0.6129,-5.51905 0.93873,3.6864 0,0 z M 695.9061,271.77773 c -6.06185,-5.89424 8.09444,4.09402 0,0 z m 112.59855,-3.53642 c -0.32778,-5.18912 1.92169,4.38189 0,0 z m -122.23121,-3.08016 c 10.0887,-9.14183 -3.93234,7.16095 -1.41169,1.8621 l 1.41169,-1.8621 z m 162.5,3.05902 c 0.59156,-4.42481 2.47398,-0.2212 0.4309,0.84195 l -0.4309,-0.84195 z m 5.27083,-0.66319 c 2.82419,-1.81491 2.18395,2.42436 0,0 z m -2.27083,-2.00348 c 1.57674,-2.55583 2.83988,1.99934 0,0 z m -149.72917,-1.99652 c 2.82419,-1.81491 2.18395,2.42436 0,0 z m 49.46038,-2.31567 c -0.32778,-5.18912 1.92169,4.38189 0,0 z m 92.87587,-2.27766 c -3.23486,-7.55925 7.12015,7.63764 1.50946,1.70635 l -1.50946,-1.70635 z m -28.44919,-1.8025 c 0.86033,-6.37478 0.61704,5.48031 0,0 z m -12.95522,0.14642 c -1.98988,-7.6641 5.88433,3.16786 0,0 z m 7.87628,0.13497 c -7.67101,-0.1864 3.67109,-3.21753 0,0 z m -86.07895,-1.22237 c 1.33817,-3.56241 2.50404,1.9934 0,0 z m -19.96937,-0.55902 c -0.15652,-4.40531 4.06214,-3.06131 0,0 z m 145.19459,-0.67567 c -5.60116,-3.88493 4.33705,0.43961 0,0 z m -43.5837,-0.59534 c 1.29065,-8.64978 8.00531,-0.59464 0,0 z m 16.85848,-1.22899 c 5.95327,-6.27643 -2.97244,5.70771 0,0 z m -11.42105,-0.41667 c 0.6129,-5.51905 0.93873,3.6864 0,0 z m -113.53495,-0.51215 c 1.08241,-4.89711 5.89273,-1.44761 0,0 z m 80.456,-3.87118 c -3.61447,-5.74058 -4.44612,-22.22939 6.08662,-13.76658 11.22599,-1.23085 -2.87874,23.00388 -6.08662,13.76658 z m 3,-10.2 c -3.40055,-5.32656 -6.73569,4.48543 0,0 z m 46.70362,10.89637 c 4.96402,-2.84676 2.19968,3.91304 0,0 z m 24.7193,-1.27312 c -5.50832,-5.15361 10.34744,-7.74784 1.16363,-1.99293 -0.19354,-0.38382 -0.80763,4.76571 -1.16363,1.99293 z m 16.7154,0.0434 c -0.0819,-5.00517 3.2771,4.50709 0,0 z M 739.33773,246.868 c 3.81458,-5.81506 -0.9326,4.21262 0,0 z m 17.06165,-2.64463 c 1.11802,-9.74261 -20.37418,2.58857 -6.60233,-5.6711 4.95212,-5.86552 9.37419,-3.20033 8.02823,1.1715 4.63548,0.14262 -1.11539,12.91138 -1.4259,4.4996 z m -28.41868,1.26805 c -10.47526,-1.44439 -1.57339,-20.37388 4.16477,-9.04539 3.56154,0.12276 10.90981,-3.95223 5.83637,1.44513 -8.39294,3.81167 -3.93718,4.74772 -0.16292,5.86142 -2.66282,2.20168 -6.63609,4.02074 -9.83822,1.73884 z m 3.08249,-8.33029 c -2.44548,-7.13279 -1.10409,5.86327 0,0 z m 95.98108,9.39583 c 2.82419,-1.81491 2.18395,2.42436 0,0 z m 38,0 c 2.82419,-1.81491 2.18395,2.42436 0,0 z m -56.03566,-3.10351 c -11.71735,-1.42095 4.40858,-5.55898 1.69605,0.63094 l -1.69605,-0.63094 z m -169.23517,-1.25218 c -7.47886,-1.86938 -17.26297,-3.43335 -13.48535,-13.53567 -3.64843,-14.78271 11.16488,-21.5476 19.13863,-28.34921 4.04745,4.67465 -4.24528,7.95691 -0.14395,12.39149 -2.21583,6.24581 9.66784,5.07332 5.29846,13.51755 -3.16024,5.76064 0.73953,22.16304 -10.80779,15.97584 z m 3,-24.04014 c -2.63628,-3.35991 -2.64281,3.9134 0,0 z m 154.25,23.7795 c -3.87537,-9.0137 10.49213,3.89094 0,0 z m 20.33276,-0.42443 c -3.92352,-5.73246 6.68473,-2.5705 0.01,-7.25013 5.2923,-8.57032 16.19773,-17.28554 25.44855,-18.34294 -3.22427,5.49817 -9.2906,10.99163 -4.88613,13.2094 -3.65848,6.5911 -12.085,-0.25359 -13.76105,2.66011 3.29007,6.60107 0.57558,10.52319 -6.81137,9.72356 z m 7.41724,-2.74808 c -2.59021,-3.99106 -4.8518,2.43856 0,0 z m -0.25,-2.85699 c -3.00116,-4.15715 -8.10663,-0.92513 0,0 z m 5.25,-6.30902 c -2.61597,-1.77506 -1.03184,3.23958 0,0 z m 5.41191,-9.42907 c -3.52307,0.78938 2.20471,3.49411 0,0 z m -157.80492,20.4063 c -2.28963,-6.16217 4.05854,3.79369 0,0 z m 134.39301,0.14081 c 0.99204,-5.09346 1.85324,3.58326 0,0 z m 2.5,-0.55902 c -1.63229,-7.32011 3.38916,4.83641 0,0 z m -75.8717,0.20759 c 3.14131,-4.65268 5.06422,4.354 0,0 z m -21.27639,-2.95759 c -0.33413,-6.90725 -8.6156,-2.81995 -4.1297,-8.32671 5.51627,-0.4088 12.72245,12.48564 6.31132,7.79955 -0.59282,1.84599 -2.4129,5.19878 -2.18162,0.52716 z m 83.62803,1.22583 c -2.93514,-5.92796 4.47374,4.98905 0,0 z m -120.97994,-0.97583 c 2.1002,-5.01302 0.69898,4.98574 0,0 z m 11,1.05902 c 1.35108,-3.77248 2.74338,1.73041 0,0 z m 114.69058,-0.92296 c -6.68911,-4.50021 2.95222,-2.34673 0,0 z m 2.94779,-0.13606 c -0.23261,-7.51661 2.38277,5.66994 0,0 z m 21,0 c 0.42887,-4.43383 2.54519,4.79023 0,0 z m -154.08558,-1.41459 c -0.32724,-5.6645 5.00563,2.589 0,0 z m 73.31965,-1.83541 c -2.52458,-4.39033 5.87945,6.38631 0,0 z m 63.12756,0.75 c -2.20279,-3.9058 5.9246,4.4995 0,0 z m -103.884,-2.75 c 2.80256,-3.33562 0.7703,7.25786 0,0 z m 90.32513,0.19483 c -2.50326,-3.3612 6.51087,3.99667 0,0 z m 57.8297,-2.049 c 2.82419,-1.81491 2.18395,2.42436 0,0 z m -109.27083,-1.39583 c -2.20279,-3.9058 5.9246,4.4995 0,0 z m -37.72505,-2 c 2.67759,-8.29764 3.47307,3.41358 0,0 z m 31.99588,1.39583 c 2.82419,-1.81491 2.18395,2.42436 0,0 z m -48.60416,-1.0625 c 2.81399,-7.7527 10.2858,-1.86317 0.99397,-0.88987 0.82732,0.55226 3.41289,3.0522 -0.99397,0.88987 z m 84.41228,-1.75 c 0.6129,-5.51905 0.93873,3.6864 0,0 z m -76.07895,-1.4667 c 6.51098,-3.79153 7.0417,3.10166 0,0 z m 120,0.10561 c 0.29288,-2.845 8.01713,-6.34577 3.65431,-1.28032 6.2499,-3.72074 -1.77254,3.22086 -3.65431,1.28032 z m -105,-1.22224 c 1.63539,-2.83796 1.36162,3.23408 0,0 z m -13.66667,-3.45601 c 2.76796,-3.32676 0.19052,4.19838 0,0 z m 7.99133,0.79802 c -3.99332,-5.42219 2.21515,-1.85337 0,0 z m -17.57466,-2.4313 c -12.44624,-13.381 11.57582,4.56241 0,0 z m 134.94244,0.73018 c -0.79857,-7.77544 4.40327,2.00454 0,0 z m -68.05407,-1.14089 c -0.23261,-7.51661 2.38277,5.66994 0,0 z m -56.43837,-0.7 c -4.56176,-6.88089 5.36477,2.29343 0,0 z m -6.7,-1.8 c 0.9349,-3.66495 1.72924,3.53491 0,0 z m 2.5,0.55902 c 1.35108,-3.77248 2.74338,1.73041 0,0 z m 6.48069,-2.61986 c -1.65892,-6.84363 3.80817,4.99036 0,0 z m 125.51931,1.11986 c 1.33817,-3.56241 2.50404,1.9934 0,0 z m 7,-0.5 c 1.3772,-5.04827 2.38289,2.83468 0,0 z m 25,0.46417 c 7.96508,-5.04487 -15.61336,3.65091 -7.36305,-6.6171 7.06858,-5.09857 22.08766,-11.51169 11.00601,-21.72511 -4.06389,-2.06863 -23.31082,-1.07854 -13.25383,-6.88615 14.18736,-2.23291 30.09924,2.38877 34.57061,17.24975 0.35966,10.30859 -11.29406,21.57509 -21.90928,18.406 l -1.53064,-0.22764 -1.51982,-0.19975 0,0 z m 23,-0.11463 c 2.27168,-9.43019 8.68315,1.15897 -0.89203,0.89782 l 0.89203,-0.89782 z M 674.1213,212.92646 c 4.56302,-10.61752 7.39064,-25.53129 -6.61633,-29.96972 4.35797,-7.61348 17.99643,-3.11216 25.93626,-2.29545 11.27371,2.71191 9.31459,19.46134 -2.22576,19.8722 -11.37837,-2.10026 -7.1079,18.19663 -17.09417,12.39297 z m 161.65214,-0.26531 c 1.44944,-4.75729 1.46478,4.30097 0,0 z m 44,0.55902 c 1.33817,-3.56241 2.50404,1.9934 0,0 z m -223.72917,-0.66319 c 2.82419,-1.81491 2.18395,2.42436 0,0 z m 121.84517,-0.58913 c -1.25117,-5.85443 -17.87112,-4.71072 -5.6489,-5.644 2.01616,0.45504 8.35992,2.67385 5.6489,5.644 z m -83.116,-0.8067 c -2.20279,-3.90579 5.92462,4.49952 0,0 z m -68,-0.94098 c 1.33817,-3.56241 2.50404,1.9934 0,0 z m 211.25,0.2077 c -6.18534,-6.19803 7.42506,-1.50305 0,0 z M 645.8024,209.20021 c -0.3182,-8.619 10.21635,-0.17791 0,0 z m 52.9911,-0.56323 c 3.90787,-3.96109 -1.37937,4.77569 0,0 z m -32.02006,-20.47583 c 3.1869,-4.26704 2.76948,3.44699 0,0 z"
       id="path7289"
       inkscape:connector-curvature="0" />
    <path
       style="fill:#190603"
       d="m 632.04427,355.55698 c 2.8242,-1.81496 2.18389,2.42467 0,0 z m 11.97917,-0.0852 c 3.24867,-13.95237 -25.18171,-2.68624 -17.25,-19.02873 0,-15.09398 0,-30.18796 0,-45.28194 16.28071,-1.76627 18.26545,20.96235 32.20679,23.69542 10.69733,-3.81613 29.15204,2.59742 19.37611,15.84182 -9.98252,8.48454 4.52303,17.66216 12.5033,16.33509 -3.81146,13.40604 -19.41602,8.18565 -30.26278,8.81089 -5.52371,-0.0819 -11.07358,0.32361 -16.57342,-0.37255 z m 50.73262,-0.0505 c 13.82177,-9.80274 31.27859,-7.02933 47.02649,-9.69332 8.90422,-0.0988 7.83706,14.847 -1.70405,10.12051 -15.10206,-0.24642 -30.22885,0.57686 -45.32244,-0.42719 z m 79.13926,-0.178 c 2.05551,-11.2193 26.95062,-11.10383 20.84989,0.62068 -6.93585,1.13402 -13.90757,-0.45371 -20.84989,-0.62068 z m 72.56909,-0.23524 c -2.91583,-9.3437 -4.41499,-19.49758 -13.10682,-24.79687 2.27098,-5.77355 -15.31908,-9.92927 -3.26141,-11.68023 10.75545,-1.80813 21.41951,10.22944 31.30603,2.11107 6.84779,-10.78736 16.9718,-19.36147 23.84333,-30.50696 2.30445,-10.8648 11.20487,-6.8962 8.25652,2.40413 -5.05459,8.73207 -2.73974,26.92707 -2.1624,33.79677 8.87642,-3.36565 25.31221,-4.28382 19.32273,9.97516 1.84411,9.45304 0.79357,23.93308 -12.54727,18.66461 -12.79117,0.70622 -30.15998,2.95677 -40.25865,-1.10212 -1.2089,-11.25309 15.9569,-16.06847 11.36648,-28.02393 -9.1024,-1.30959 -17.00802,11.77719 -15.80598,22.29169 7.18438,5.8962 -1.13808,10.67601 -6.95256,6.86668 z m 44.30903,-25.34693 c -8.71369,-6.68997 -9.40776,6.8104 0,0 z m -194,20.5 c 2.42443,-4.4818 2.60161,4.34115 0,0 z m 41.27048,-38.93072 c -1.07717,-10.36331 2.99973,6.89444 3.34,-3.2027 0.79606,-4.76374 0.45824,-17.63518 2.19038,-5.57616 0.99946,2.86998 -0.86887,14.26104 -5.53038,8.77886 z m 63.07264,-3.0349 c -2.29138,-6.13832 -1.65091,-4.87464 2.81143,-6.39567 -1.00143,-5.34429 -5.36565,-3.44804 -0.64422,-9.82308 1.34566,-7.45935 -3.44796,-24.66347 5.28106,-25.37096 -8.08335,9.15125 -0.33553,24.34266 -3.95685,37.36824 -3.04853,2.9908 3.02152,9.0073 -3.71847,6.02613 l 0.22705,-1.80466 z m -64.11112,-8.03438 c 0.52309,-7.42096 0.63342,7.24054 0,0 z m 28.92686,-10.05933 c -2.56339,-6.1115 -13.6648,-17.37461 -8.52696,-20.9683 9.52376,1.71265 12.17404,27.74747 18.95379,11.81826 -0.32278,-5.69222 9.74378,-16.37544 9.8935,-12.31122 -7.62523,5.97512 -5.15675,29.8313 -18.98057,22.55524 l -1.33976,-1.09398 z m -59.15886,0.14112 c -0.20063,-5.5492 7.40756,-6.48489 1.11177,-1.01799 0.0244,1.12009 -0.33483,5.29664 -1.11177,1.01799 z m 36.57673,-1.08179 c 0.3273,-5.86859 1.94466,-19.34492 3.82196,-19.93475 -2.33985,6.43928 -0.7218,13.69707 -3.82196,19.93475 z m -6.41884,-3 c 0.86033,-6.37478 0.61704,5.48031 0,0 z m 61.96464,1 c -2.38602,-1.88213 0.24807,-7.95417 0.32007,-2.39846 l -0.32007,2.39846 z M 626.77344,263.28243 c 0,-7.29289 0,-14.58579 0,-21.87868 9.34686,-2.68255 25.26337,6.11632 23.13511,-10.85544 3.2979,-6.63501 -1.29892,-13.0009 -4.62703,-15.81447 9.36273,1.17237 17.64666,9.95468 26.81806,13.72973 5.7122,4.0734 7.5747,7.43809 1.24136,0.61133 -13.45139,-9.57137 -23.67732,5.69296 -23.17003,18.25341 -2.15572,14.10625 -14.80101,21.27748 -18.38299,34.23645 -7.45704,9.14722 -4.14398,-16.65396 -5.01448,-18.28233 z m 131.07895,18.46201 c 0.6129,-5.51907 0.93873,3.68641 0,0 z m -52.35142,-1.51724 c -0.40365,-7.36646 2.91002,5.07987 0,0 z m 7.67087,-2.39588 c -7.66481,-5.53906 6.06753,-4.41889 -0.005,1.9059 l 0.005,-1.9059 z m 83.90126,-2.67021 c 0.71577,-8.21043 0.36711,8.79019 0,0 z m -93.78958,1.01631 c 1.72295,-3.79431 3.45391,2.61494 0,0 z m 103.05421,-0.72318 c -0.48095,-4.25011 2.7249,5.01553 0,0 z m 57.43571,0.70687 c 2.42443,-4.4818 2.60161,4.34115 0,0 z m -126.9144,-2.5 c 1.07582,-10.44328 2.1421,3.49928 0,0 z m 124.89434,-1.02417 c 0.63849,-6.09318 5.68698,5.88127 0,0 z m -170.72994,-2.74785 c -8.77149,0.38956 1.25107,-12.06338 1.61282,-2.75114 3.31393,3.07833 3.35332,4.74008 -1.61282,2.75114 z m 22.69784,-1.2835 c 3.35833,1.02388 6.40871,-4.58201 7.16693,-5.654 -0.30955,2.57575 -5.19446,12.57326 -7.16693,5.654 z m 79.70683,-4.5167 c -5.20106,-10.39688 7.56709,8.70443 0.66486,1.08094 l -0.35302,-0.57393 -0.31184,-0.50701 z m 54.46095,-0.026 c -2.14694,-9.16944 5.71139,6.12075 0.11554,0.56029 l -0.11554,-0.56029 z m -60.47725,0.59817 c 1.95185,-5.82769 0.4913,4.98906 0,0 z m 15.33688,-1.0651 c -1.19169,-6.48526 5.7656,-6.11081 1.58027,0.29553 0.63985,2.04206 -1.83724,2.2211 -1.58027,-0.29553 z m 7.38149,0.0524 c 0.1971,-5.10752 1.74115,-20.54809 5.39422,-8.10361 2.03245,3.19543 -1.66451,12.10896 -5.39422,8.10361 z m 3.06291,-1.58276 c 3.6701,-10.72022 -7.36549,5.75689 0,0 z m -14.86002,-0.80801 c -1.32669,-6.25616 4.91848,-0.81627 0,0 z m -106.43289,-2.4753 c 4.95666,-6.30599 -2.10506,6.74259 0,0 z m 95.87326,1.93783 c 1.35108,-3.77248 2.74338,1.73041 0,0 z m 63.63617,-1.05328 c 3.85301,-4.16268 1.4016,5.39286 0,0 z M 714.44507,259.4111 c 2.56888,-8.39339 1.56971,-26.21457 -8.57003,-20.15203 -1.27597,-4.55704 -11.9138,-11.54957 -2.39818,-13.10361 -0.80141,-8.73339 -6.53408,-0.10974 -6.70551,-3.61009 -5.80563,-4.74409 1.53147,-14.51934 3.11666,-6.62344 -2.89429,5.97271 3.40965,-2.54334 3.76201,5.07693 4.37477,2.50806 7.85647,15.7285 10.40553,11.49817 1.67562,6.38634 5.44642,8.69263 8.03852,2.75228 -2.28711,8.79409 -6.85112,14.56128 -7.649,24.16179 z m -4.30595,-25.01531 c -0.14528,-8.07298 -4.68674,1.2542 0,0 z m -2.17818,-7.9178 c -6.416,-3.02632 0.56667,2.72 0,0 z m -10.1875,-11.48356 c -2.20595,-2.81626 -2.56859,3.49136 0,0 z m 25,43.66667 c 2.2676,-5.42662 1.96157,5.11848 0,0 z m 18.15789,-1.5 c 0.86033,-6.37478 0.61704,5.48031 0,0 z m 104.34211,0.86102 c -3.85933,-6.22228 -18.54276,-9.93057 -19.0349,-12.99399 7.15661,2.47272 14.7571,6.63232 19.0349,12.99399 z m 58.11668,-2.86102 c -6.61188,-4.93892 -7.99119,-13.96897 1.49986,-12.44681 3.04997,-10.37232 7.16114,-4.37136 5.91554,3.01878 0.53951,5.63744 0.85149,21.74936 -7.4154,9.42803 z m -207.21207,-0.1012 c -5.232,-8.76714 11.11269,4.76852 2.45495,-0.21831 0.0684,0.24695 -3.1508,2.72269 -2.45495,0.21831 z m 105.37011,-0.1488 c -1.82221,-8.62898 4.02262,-5.50528 0,0 z m 2.22528,0.78518 c 3.66081,-4.6334 5.62023,-0.59236 0,0 z m -77.25,-1.26348 c 3.98735,-7.15248 12.35199,-2.67147 0,0 z m 52.04332,-1.57257 c 6.78255,-1.54134 9.88753,-19.70196 17.13361,-10.62823 -10.26786,-3.9614 -6.04912,20.1055 -17.13361,10.62823 z m -44.29332,0.30087 c 0.9349,-3.66495 1.72924,3.53491 0,0 z m 2.22688,-0.93643 c 1.5932,-4.93857 2.26646,4.6541 0,0 z m 81.35207,0.51976 c 0.6129,-5.51905 0.93873,3.6864 0,0 z m 1.92105,0.52366 c 4.09005,-6.8491 6.46832,2.989 0,0 z m 30.58295,0.0272 c -1.70487,-5.52296 3.71979,1.67924 0,0 z M 740.77344,252.2791 c 0.40309,-4.3412 3.13332,0.88085 0,0 z m 105.5,-0.11803 c 0.9349,-3.66495 1.72924,3.53491 0,0 z M 698.43136,250.712 c 1.88948,-3.7504 1.14358,4.33687 0,0 z m 55.54208,0.24907 c -0.7656,-4.60014 -8.09701,-12.04501 1.53892,-10.23878 -0.88135,4.10338 5.42649,3.15345 1.58505,9.66405 -0.46021,1.30471 -2.24424,1.8684 -3.12397,0.57473 z m 66.47186,-0.72008 c -0.22113,-5.943 4.46356,-4.02895 0,0 z m -126.65655,-2.82992 c 0.1771,-8.64287 1.8864,6.80039 0,0 z m 158.46536,0.56128 c -2.6583,-8.1743 4.02792,-2.70083 -0.42273,2.04507 0.1409,-0.68168 0.28185,-1.3634 0.42273,-2.04507 z m -44.48067,0.18872 c -2.20279,-3.9058 5.9246,4.4995 0,0 z m 9.16764,-2.05105 c 3.17623,-6.72224 -1.45022,7.21961 0,0 z m 25.33236,1.05105 c 2.25095,-3.60158 2.69299,3.48603 0,0 z m -117.75,-1.39205 c -7.35105,-8.89629 10.70021,3.69225 2.29318,1.04991 l -2.29318,-1.04991 z m 13.8191,0.28025 c -4.64469,-7.54484 6.45545,2.43199 0,0 z m 127.4309,0.10343 c 8.45991,-2.85745 7.46034,2.58997 0,0 z m -88.8,-1.19163 c -3.98692,-7.99493 4.60196,3.23902 0,0 z m 34.28992,0.18369 c -6.64037,-5.56201 -0.62218,-13.24177 5.94012,-11.14323 -9.16114,1.31253 3.13455,13.21186 -5.92696,6.32711 -0.43339,-0.13149 2.52785,8.37558 -0.0132,4.81612 z m 22.51008,0.37154 c -8.58923,-3.18789 -11.85465,-15.75038 -1.46548,-11.99936 -1.91072,-3.48342 6.96855,-0.93944 9.833,-5.43101 2.90531,0.0857 20.58201,0.38542 10.88643,3.85797 -9.16002,-4.94724 -19.60684,7.95481 -23.89872,5.04295 1.31139,2.42542 6.04701,5.5247 4.64477,8.52945 z m -6.39583,-11.0844 c -2.11642,1.51991 1.88872,3.71626 0,0 z m 48.89583,9.72917 c -3.92309,-2.70271 11.8173,2.43224 0,0 z m -9.02699,-1.04367 c -6.47682,-0.70942 -10.90846,-5.21566 -1.72922,-2.11913 1.50793,0.13136 6.30544,3.52423 1.72922,2.11913 z m -174.15734,-1.20633 c -6.98522,-11.69108 5.55888,-2.57666 0,0 z m 50.68433,0.85699 c 2.59021,-3.99106 4.8518,2.43856 0,0 z m 16,-1.04797 c 0.94985,-6.64504 1.50387,3.91216 0,0 z m 41.07895,0.77277 c -2.58358,-4.47365 1.01208,-6.33322 0,0 z m 19.29831,-0.58179 c 3.60945,-10.80719 5.15776,0.24856 0,0 z m 60.05842,-0.82108 c -2.75072,-5.79553 -4.50978,-16.30746 -2.26422,-20.66319 6.91839,-3.03653 3.69529,13.99877 3.84316,11.49706 -6.49018,-13.55946 2.67455,13.41894 -1.57894,9.16613 z m -77.43568,-1.37697 c -4.60911,-15.70508 7.15677,8.01309 0,0 z m -124.64828,-0.31203 c -3.92934,-4.65665 3.2854,-0.0371 0,0 z m 51.25527,-1.82171 c -1.97084,-6.38032 3.98231,4.40277 0,0 z m 85.39301,1.14081 c 1.35108,-3.77248 2.74338,1.73041 0,0 z m -134,-1.52384 c 4.30889,-4.64707 8.35275,4.26556 0,0 z m 17.27083,0.36065 c 2.82419,-1.81491 2.18395,2.42436 0,0 z m 153.72917,-0.39583 c 1.66402,-3.74187 5.06807,4.67528 0,0 z m 14.58928,0.14446 c 3.97702,-2.10687 4.90931,3.35469 0,0 z M 731.77344,236.5682 c 2.16034,-5.70624 6.97345,0.0758 0,0 z m 17.65638,-2.23433 c -2.72256,-5.71543 4.93156,4.38914 0,0 z m 71.59362,1.16492 c -4.16376,-2.89724 2.12051,-2.01161 1.36966,0.0719 l -1.36966,-0.0719 z m -68.17105,-2.1229 c 5.51749,-5.93607 4.54266,6.92216 0,0 z m 29.92105,0.78518 c 3.41355,-3.47588 2.72102,0.636 -0.11242,0.82143 l 0.11242,-0.82143 z M 686.7413,232.6998 c 15.33389,-6.15419 -16.77299,-12.30203 -2.77887,-10.14332 6.18314,-1.3071 10.96342,-5.88442 9.1764,3.40218 4.0501,3.62338 -7.78507,9.55933 -6.39753,6.74114 z m 101.03214,1.06826 c 2.49684,-4.13597 4.90775,0.71116 0,0 z m -68,-1.632 c -1.10267,-6.09894 -12.05863,-10.87959 -10.75482,-15.48344 3.5876,10.3304 23.27455,9.18378 25.3592,14.62821 -3.48169,-0.31463 -18.9093,-5.5829 -8.99072,0.84422 -0.71975,0.85332 -6.77749,2.73235 -5.61366,0.011 z m -1,-5.97499 c -2.42443,-4.4818 -2.60161,4.34115 0,0 z m 21,6.05902 c 1.33817,-3.56241 2.50404,1.9934 0,0 z m 4.25,0.2787 c -4.16376,-2.89724 2.12051,-2.01161 1.36966,0.0719 l -1.36966,-0.0719 z m 19.00218,-2.83772 c 0.35605,-8.91827 0.80538,7.37185 0,0 z m 35.79557,2.55067 c -5.7933,-0.6308 2.98195,-6.16732 1.28425,-0.0384 1.635,1.29674 -0.46393,2.61262 -1.28425,0.0384 z m 4.41091,-0.11755 c 3.56884,-7.54755 20.58702,-2.98263 6.35832,0.54466 -2.05112,0.55191 -4.55735,0.98791 -6.35832,-0.54466 z m -120.21773,-2.48144 c 6.09736,-4.76108 10.97106,2.77307 0,0 z m 144.75907,0.60734 c 1.33817,-3.56241 2.50404,1.9934 0,0 z m -52.93232,-1.09758 c 0.34173,-5.76254 7.1712,-14.08684 2.20119,-3.90983 -0.64615,1.0894 -0.31604,3.95966 -2.20119,3.90983 z m 42.02924,-2.34466 c -1.74695,-7.25757 4.21822,4.88263 0,0 z m 18.57427,-0.27892 c 3.68639,-8.60741 13.57781,-16.38584 20.47938,-7.06646 5.36205,0.71889 18.2495,4.14717 5.31508,3.40605 -6.18946,0.56576 -18.8104,-5.26586 -21.26242,1.96965 5.25634,-4.10536 -3.16071,5.25954 -4.53204,1.69076 z m -12.33786,-3.771 c 5.40712,-11.40397 5.63062,2.6351 0,0 z M 759.7276,220.0755 c -1.64565,-6.28323 3.52484,5.86692 0,0 z m 71.04584,1.14467 c 1.33817,-3.56241 2.50404,1.9934 0,0 z m -164.26903,-1.71496 c 5.10807,-2.0864 2.21787,2.05943 0,0 z m -6.73097,-1.51253 c -10.94984,-3.95817 3.90445,-1.85237 3.7532,0.41072 l -1.40384,-0.0901 -2.34936,-0.32061 z m 247,0.16847 c -8.80067,-6.10087 -21.52834,0.97523 -26.5319,-6.12628 -1.70001,-2.21747 12.93843,-10.61029 6.16479,-18.1448 -1.55136,-5.68327 -16.98577,-15.90862 -2.85808,-14.79287 9.03413,1.0246 20.56046,-2.63282 24.09622,7.72743 11.22474,5.85224 -13.08881,26.55505 -4.74931,10.5189 -8.75095,-1.35378 0.6446,18.3261 4.86019,5.12771 4.37475,-8.85858 5.29347,21.10612 -0.98191,15.68991 z m -17.20455,-5.75 c 4.55639,-9.81973 -11.52046,8.18204 0,0 z m -60.40328,4.28371 c 1.00972,-7.85019 2.58058,3.41725 0,0 z m 28.10783,0.46629 c -3.46059,-3.77285 7.07328,3.59916 0,0 z m -198.5,-3.02783 c -9.59038,-1.14536 -17.9277,-1.68839 -12.05934,-13.45113 -4.24763,0.94372 -18.49771,19.33855 -19.8862,5.12957 -0.29936,-11.50307 5.08805,-28.31682 19.21315,-27.12517 11.42792,-1.10618 23.15482,0.9072 29.82062,11.08365 8.31523,7.48589 -3.84333,21.03835 -2.54545,25.10709 -4.86001,0.39666 -9.71556,-0.25756 -14.54278,-0.74401 z m -0.8125,-1.65528 c -6.416,-3.02632 0.56667,2.72 0,0 z m 6.8125,-0.39381 c -1.50262,-7.18802 -12.48036,-10.73114 -5.24124,-1.23693 0.99573,1.28633 4.05287,3.72527 5.24124,1.23693 z m -16.89863,-3.30094 c 6.96077,-7.06246 -8.97982,0.73864 0.41506,1.03656 l -0.25047,-0.62553 -0.16459,-0.41103 z m 21.39863,-20.62214 c -2.25095,-3.60158 -2.69299,3.48603 0,0 z m 14,26 c 3.75367,-3.45123 4.10464,4.53182 0,0 z m 93.32758,-2.50597 c -1.91728,-8.04879 4.18729,8.55259 0,0 z m 62.81079,2.00597 c -6.17454,-5.37285 10.06248,-1.13423 0.11241,0.66602 l -0.11214,-0.66442 -2.7e-4,-0.002 z m 12.63246,-0.10417 c 2.82419,-1.81491 2.18395,2.42436 0,0 z m -91.27083,-1.33681 c 0.59156,-4.42481 2.47398,-0.2212 0.4309,0.84195 l -0.4309,-0.84195 z m 98.08333,0.54548 c 4.61834,-2.92268 10.16002,1.47289 1.77526,0.32841 l -1.77526,-0.32841 z m -95.08333,-4.6045 c 3.41355,-3.47588 2.72102,0.636 -0.11242,0.82143 l 0.11242,-0.82143 z m 4.75,-0.66228 c 3.54533,-1.30375 2.7299,1.93619 0,0 z"
       id="path7287"
       inkscape:connector-curvature="0" />
    <path
       style="fill:#050303"
       d="m 626.77344,351.53615 c 2.2859,-14.8562 30.52874,4.82612 9.79273,4.49182 -3.53112,0.27768 -11.45108,1.58792 -9.79273,-4.49182 z m 274,3.90414 c 6.22526,-5.95448 8.60408,3.23816 0,0 z M 739.32549,311.24537 c -3.02224,-18.61981 -3.14136,-38.05492 2.85862,-56.08412 1.12812,-4.07863 -3.41832,-13.67577 -4.40663,-4.97499 -13.62909,-4.50663 -16.80152,23.83856 -27.04351,14.97917 -7.93022,-1.42276 -23.06328,-0.52208 -15.66538,-13.03195 3.80414,-10.98976 -5.67693,-18.98996 -15.85923,-15.14616 -3.52711,-12.0783 -19.84401,-12.5951 -28.26613,-20.85317 -7.7571,-6.98322 11.37945,-0.87801 15.69633,-1.60038 6.34786,2.34187 28.13428,-3.95046 21.8175,7.46328 -4.23612,0.91117 -14.18245,0.06 -3.65851,2.29752 9.84947,-0.13037 5.48164,7.49664 0.37567,10.49118 5.45747,-2.03116 14.20054,-12.93585 17.67394,-8.36521 -8.89262,2.08793 0.37998,7.35295 3.0421,11.79986 7.78253,-1.77481 11.30392,1.45865 9.25667,9.91749 -1.29169,4.29971 -0.12503,13.13573 0.69848,3.50036 2.32853,-5.78073 7.02783,-20.84229 8.25705,-7.11366 10.27238,6.31027 26.25204,-10.12958 32.15533,6.16488 12.69886,-11.11588 0.84915,-28.6902 8.15396,-41.55172 15.02741,-5.60425 15.92581,14.45055 11.27066,23.13025 -1.27896,7.22366 3.43911,31.25298 11.78572,17.23249 4.2928,-16.05728 21.95548,0.65121 29.11186,-8.66341 3.30037,12.17933 -20.93819,1.37827 -17.33556,16.94817 4.84596,8.36074 6.04894,22.92142 2.81168,34.3086 -6.18234,-3.57193 -0.46567,-29.1297 -11.54856,-30.7152 -9.01938,6.38518 -12.45917,16.61505 -17.59448,24.82128 -7.40357,2.62954 -1.29605,-8.2835 -8.51234,-10.09919 -7.03761,-6.68258 -16.09042,-22.39512 -18.31261,-4.78712 -3.62044,11.97156 -3.17361,24.63687 -4.50589,36.92179 l -0.84087,1.69399 -1.41584,1.31597 -3e-5,0 z m -39.05205,-55.08422 c 0.75615,-5.1502 5.5395,-13.30603 -1.72389,-5.36123 -2.17361,2.49866 -4.47274,8.04845 1.72389,5.36123 z m 6.4144,-4 c -4.38403,0.72569 1.49779,7.19713 0,0 z m -6.9144,-13.5 c -0.2339,-5.67283 -4.07819,5.35355 0,0 z m -14.16423,-8.70672 c 8.56266,-1.47242 0.68343,-3.18661 -2.13776,-0.38829 l 2.13776,0.38829 z m -16.1048,-10.48627 c -4.37911,-1.68474 -1.94783,1.79837 0,0 z m -4.73097,-1.14872 c -6.33622,-6.12328 -14.24562,0.22216 0,0 z m 138,90.02317 c 1.23237,-9.43945 3.63881,4.15468 0,0 z m -2.80343,-5.44461 c -1.05913,-12.75509 8.80263,1.32887 0,0 z m -92.49783,-14.80102 c -5.38282,-5.69051 5.20584,-19.96884 4.31586,-7.72733 -1.26397,1.95968 -1.53232,7.89719 -4.31586,7.72733 z m 97.41201,-15.43583 c 1.15844,-8.03717 3.38005,8.19112 0.033,0.44477 l -0.033,-0.44477 z m 59.22258,1.09534 c 2.85384,-3.84747 1.2619,4.49067 0,0 z m -176.73532,-6.43676 c -0.71652,-7.20342 6.5394,2.67173 0,0 z m 116.61273,-3.82358 c -0.95954,-14.39651 8.48188,11.48007 0,0 z m 45.97259,1.44833 c -3.77383,-9.63236 -20.40965,-25.54684 -29.02563,-15.69857 -7.49797,7.03922 -1.46113,-13.80698 6.72952,-8.50916 6.03805,1.26462 6.8326,7.21497 6.12965,-1.17535 2.36106,-11.71663 19.43827,-5.51494 23.08971,-10.00382 -6.30726,-1.16276 -19.04541,0.35874 -17.01655,-6.62195 7.35018,-4.05275 24.43961,1.98329 26.22765,-0.86445 -7.33035,-1.99973 -19.22965,-5.28647 -22.61353,-9.56399 11.15711,0.0359 21.77589,4.51353 33.07895,1.63609 13.24698,0.097 -2.63233,7.27219 0.074,13.83926 0.53057,5.75872 9.90572,19.76944 -2.86547,15.55712 5.42814,5.79015 -15.63874,-1.74154 -19.84399,-1.21364 -3.57143,3.69945 -3.18168,8.52787 -7.00471,10.45537 2.72578,3.60509 8.2964,11.12426 3.79989,10.52773 1.08682,0.87516 0.92699,3.93918 -0.75948,1.63536 z m -5.18333,-17.67634 c -3.46568,-6.0551 -3.93113,3.34224 0,0 z m 21.4714,-5.87379 c -6.97533,-3.3494 -9.21187,0.34413 -0.39399,1.38311 4.75656,0.78962 3.4588,-0.6415 0.39399,-1.38311 z m -11.4714,-4.2332 c -4.06514,-3.9997 -4.44197,1.3109 0,0 z m 16,0.61658 c -4.30693,-3.58693 -6.72648,1.61527 0,0 z m -11.5,-20.61658 c -3.88529,-4.37324 -2.64299,2.09551 0,0 z m -49.19442,44.48204 c 5.15025,-10.99835 6.78235,4.15486 0,0 z m -4.30558,-5.48204 c 9.46754,-9.5928 4.26627,3.27622 0,0 z m -68.92105,-16.41667 c 0.6129,-5.51905 0.93873,3.6864 0,0 z m 13.19188,0.8125 c 2.82419,-1.81491 2.18395,2.42436 0,0 z m 53.74448,-2.14583 c 3.7988,-1.6286 1.77632,4.53479 0,0 z m 10.5201,-2.13842 c 0.54182,-8.12145 6.97162,6.29034 0,0 z m 12.1958,-1.03142 c -0.32778,-5.18912 1.92169,4.38189 0,0 z m -93.65226,-0.88918 c -5.47292,1.02675 -16.24253,-8.8918 -4.38603,-5.06249 5.34887,6.48646 21.35262,-5.39223 22.58323,4.14857 -7.81071,-4.2677 -11.24199,-0.7414 -18.1972,0.91392 z m -8.07895,-4.58399 c -2.49684,-4.13597 -4.90775,0.71116 0,0 z m 29,4.42439 c 3.40486,-2.10833 2.91032,3.37337 0,0 z m 76.45888,-0.0979 c -0.34599,-4.10434 3.07932,3.81105 0,0 z m -45.95888,-0.93311 c 3.18888,-6.20171 22.69134,-5.41842 18.14292,-1.42416 -6.02533,0.7418 -12.28348,-0.58998 -18.14292,1.42416 z m -74.42105,-1.41702 c 0.61292,-5.51903 0.93872,3.68641 0,0 z m 102.92105,-3.63068 c 5.02104,-1.53508 13.91019,-4.6408 4.64639,0.53851 -1.49692,0.49486 -3.39334,0.65899 -4.64639,-0.53851 z M 706.04427,226.557 c 2.82419,-1.81491 2.18395,2.42436 0,0 z m 10.72917,-0.39583 c 2.42443,-4.4818 2.60161,4.34115 0,0 z m -23.91218,-1.92456 c 3.40168,-9.6017 10.02898,2.76543 0,0 z m 4.91218,-6.01642 c 0.59156,-4.42481 2.47398,-0.2212 0.4309,0.84195 l -0.4309,-0.84195 z m -6.40435,-5.44768 c 4.33738,-5.9416 7.09231,5.41061 0,0 z m -31.57021,-1.5859 c -8.4187,-10.69802 6.40494,-5.44238 3.87713,1.88543 -1.53937,0.34376 -2.79977,-1.11324 -3.87713,-1.88543 z m 239.1921,-5.60121 c -2.57591,-6.64597 8.83727,-11.09914 1.55954,-2.54943 4.68962,7.50993 10.18581,-15.38956 8.80564,-2.46306 -1.22654,4.00893 -6.51305,10.74007 -10.36518,5.01249 z m -272.21754,-9.42423 c 3.32913,-4.67241 4.02,4.63844 0,0 z m 0,-10.41667 c -3.89025,-10.78415 14.63196,-4.81456 5.21283,1.98186 -2.12567,5.9897 -7.32479,4.05964 -5.21283,-1.98186 z m 277.45128,-2.58016 c 2.33013,-12.16042 11.54516,9.65468 0.3768,3.40069 -0.49561,-1.0829 -0.31717,-2.24976 -0.3768,-3.40069 z"
       id="path7285"
       inkscape:connector-curvature="0" />
  </g>
</svg>
