<?xml version="1.0" encoding="UTF-8" standalone="no"?>
<svg
   xmlns:dc="http://purl.org/dc/elements/1.1/"
   xmlns:cc="http://creativecommons.org/ns#"
   xmlns:rdf="http://www.w3.org/1999/02/22-rdf-syntax-ns#"
   xmlns:svg="http://www.w3.org/2000/svg"
   xmlns="http://www.w3.org/2000/svg"
   xmlns:sodipodi="http://sodipodi.sourceforge.net/DTD/sodipodi-0.dtd"
   xmlns:inkscape="http://www.inkscape.org/namespaces/inkscape"
   viewBox="0 0 512 512"
   id="svg8438"
   version="1.1"
   inkscape:version="0.48.4 r9939"
   width="100%"
   height="100%"
   sodipodi:docname="dexterous hands.svg">
  <metadata
     id="metadata8464">
    <rdf:RDF>
      <cc:Work
         rdf:about="">
        <dc:format>image/svg+xml</dc:format>
        <dc:type
           rdf:resource="http://purl.org/dc/dcmitype/StillImage" />
        <dc:title></dc:title>
      </cc:Work>
    </rdf:RDF>
  </metadata>
  <defs
     id="defs8462">
    <linearGradient
       id="linearGradient4077">
      <stop
         id="stop4079"
         offset="0"
         style="stop-color:#aa4400;stop-opacity:1;" />
      <stop
         style="stop-color:#ff9f00;stop-opacity:1;"
         offset="0.22752622"
         id="stop4081" />
      <stop
         style="stop-color:#803300;stop-opacity:1;"
         offset="0.4948855"
         id="stop4083" />
      <stop
         id="stop4085"
         offset="1"
         style="stop-color:#562200;stop-opacity:1;" />
    </linearGradient>
    <linearGradient
       id="linearGradient4057">
      <stop
         style="stop-color:#aa4400;stop-opacity:1;"
         offset="0"
         id="stop4059" />
      <stop
         id="stop4067"
         offset="0.22752622"
         style="stop-color:#ecd1a4;stop-opacity:1;" />
      <stop
         id="stop4065"
         offset="0.50136983"
         style="stop-color:#803300;stop-opacity:1;" />
      <stop
         style="stop-color:#562200;stop-opacity:1;"
         offset="1"
         id="stop4061" />
    </linearGradient>
    <linearGradient
       id="linearGradient3890">
      <stop
         style="stop-color:#701b1b;stop-opacity:1;"
         offset="0"
         id="stop3892" />
      <stop
         style="stop-color:#e31600;stop-opacity:1;"
         offset="1"
         id="stop3894" />
    </linearGradient>
    <linearGradient
       id="linearGradient3882">
      <stop
         style="stop-color:#600b0b;stop-opacity:1;"
         offset="0"
         id="stop3884" />
      <stop
         style="stop-color:#d11414;stop-opacity:1;"
         offset="1"
         id="stop3886" />
    </linearGradient>
    <linearGradient
       id="linearGradient3872">
      <stop
         style="stop-color:#800600;stop-opacity:1;"
         offset="0"
         id="stop3874" />
      <stop
         style="stop-color:#ff0004;stop-opacity:0;"
         offset="1"
         id="stop3876" />
    </linearGradient>
  </defs>
  <sodipodi:namedview
     pagecolor="#000000"
     bordercolor="#666666"
     borderopacity="1"
     objecttolerance="10"
     gridtolerance="10"
     guidetolerance="10"
     inkscape:pageopacity="0"
     inkscape:pageshadow="2"
     inkscape:window-width="1190"
     inkscape:window-height="1126"
     id="namedview8460"
     showgrid="false"
     inkscape:zoom="1"
     inkscape:cx="277.17231"
     inkscape:cy="185.79124"
     inkscape:window-x="160"
     inkscape:window-y="130"
     inkscape:window-maximized="0"
     inkscape:current-layer="g8466" />
  <g
     id="g8466">
    <path
       inkscape:connector-curvature="0"
       d="M -13.466093,0.1885736 H 514.89024 V 516.42957 H -13.466093 z"
       id="path3978"
       style="fill:#000000" />
    <path
       sodipodi:type="arc"
       style="fill:#333333;fill-opacity:1;fill-rule:nonzero;stroke:none"
       id="path4121"
       sodipodi:cx="63.286057"
       sodipodi:cy="-74.545074"
       sodipodi:rx="39.244427"
       sodipodi:ry="23.688076"
       d="m 101.95774,-78.577314 a 39.244427,23.688076 0 0 1 9.3e-4,0.0033 l -38.672613,4.028989 z"
       sodipodi:start="6.11213"
       sodipodi:end="6.1122693"
       transform="matrix(0.92592215,0,0,1,-12.92858,0)" />
    <path
       sodipodi:type="arc"
       style="fill:#333333;fill-opacity:1;fill-rule:nonzero;stroke:none"
       id="path4123"
       sodipodi:cx="65.584152"
       sodipodi:cy="-52.359596"
       sodipodi:rx="10.606602"
       sodipodi:ry="11.755651"
       d="m 76.035958,-54.360671 a 10.606602,11.755651 0 0 1 2.51e-4,0.0016 l -10.452057,1.999461 z"
       sodipodi:start="6.11213"
       sodipodi:end="6.1122693"
       transform="matrix(0.92592215,0,0,1,-12.92858,0)" />
    <path
       sodipodi:type="arc"
       style="fill:#333333;fill-opacity:1;fill-rule:nonzero;stroke:none"
       id="path4125"
       sodipodi:cx="54.182056"
       sodipodi:cy="-54.392529"
       sodipodi:rx="15.46796"
       sodipodi:ry="16.793785"
       d="m 69.424272,-57.251206 a 15.46796,16.793785 0 0 1 3.67e-4,0.0023 l -15.242583,2.856372 z"
       sodipodi:start="6.11213"
       sodipodi:end="6.1122693"
       transform="matrix(0.92592215,0,0,1,-12.92858,0)" />
    <path
       inkscape:connector-curvature="0"
       id="path4731"
       d="m 49.205659,379.91169 c -1.639213,-3.03476 -4.807553,-16.88986 -6.165713,-26.96254 -0.489863,-3.63304 -1.941559,-8.85229 -3.225989,-11.59836 -2.708043,-5.78969 -2.003397,-29.15352 0.879281,-29.15421 1.070126,-2.6e-4 1.317203,-0.71958 0.549057,-1.5985 -0.768146,-0.87891 -0.553281,-2.79147 0.477478,-4.25013 1.030761,-1.45865 2.958775,-8.70623 4.284477,-16.10573 1.415448,-7.90042 4.536591,-16.07733 7.561515,-19.81 4.968069,-6.13044 15.959,-33.57558 15.959,-39.85075 0,-1.68333 1.846945,-3.73132 4.104322,-4.5511 2.769543,-1.00577 3.826617,-3.14043 3.250413,-6.56388 -0.46965,-2.79036 -0.326689,-4.47013 0.317691,-3.73283 1.947794,2.22867 8.597504,-6.82774 10.124408,-13.78869 0.786895,-3.58734 2.35787,-5.8668 3.491057,-5.06546 1.133188,0.80134 2.060339,-1.26168 2.060339,-4.58449 0,-3.32281 1.500958,-7.75887 3.335463,-9.85791 2.27029,-2.59767 2.496236,-3.81644 0.707521,-3.81644 -1.445366,0 -2.014252,-0.70218 -1.26419,-1.5604 2.83327,-3.24184 8.037741,4.42484 5.437421,8.00984 -1.963238,2.70667 -1.734661,3.0627 1.15246,1.79505 3.13368,-1.37591 3.53691,0.0363 3.10474,10.8733 -0.27317,6.85002 -1.3375,12.45459 -2.36518,12.45459 -1.02767,0 -1.40188,0.86389 -0.83155,1.91976 0.57032,1.05588 -0.19065,5.15421 -1.69104,9.10742 -3.590395,9.45989 -11.935978,41.66742 -13.189999,50.90325 -0.614812,4.52808 0.660347,10.92762 3.368827,16.90686 2.396951,5.29152 4.37272,8.57019 4.390597,7.28594 0.01783,-1.28425 1.0356,-0.69567 2.261607,1.30796 1.696663,2.77281 1.869266,2.19725 0.722611,-2.4096 -1.34298,-5.39561 -1.130222,-5.69525 1.960154,-2.76062 1.906653,1.81057 2.943223,4.261 2.303473,5.4454 -0.63975,1.18441 -0.0953,2.15347 1.20992,2.15347 1.3052,0 1.82792,1.00932 1.16159,2.24293 -0.66633,1.23361 1.66519,4.5867 5.18115,7.45131 3.51596,2.86461 6.39266,4.04107 6.39266,2.61435 0,-1.42671 0.71636,-2.4646 1.59192,-2.30641 4.49718,0.81247 6.89834,-0.69657 6.89834,-4.33535 0,-2.22625 0.5583,-3.40893 1.24067,-2.62816 1.98846,2.2752 9.10017,-5.88108 7.99672,-9.17128 -1.60142,-4.77501 5.77869,-27.7197 10.00557,-31.10725 4.47632,-3.58746 1.24019,-14.70507 -4.45443,-15.30301 -1.71293,-0.17987 -4.15707,-0.45309 -5.43144,-0.60716 -3.63785,-0.43984 -3.25928,-22.13795 0.38625,-22.13795 1.64563,0 2.99206,1.18397 2.99206,2.63103 0,1.44707 1.14843,2.19303 2.55206,1.65768 3.17913,-1.21253 12.56619,7.83646 11.04696,10.6491 -0.61279,1.13449 -0.0592,2.0627 1.23016,2.0627 3.38485,0 12.77951,11.31614 11.04362,13.30235 -0.80481,0.92086 -0.0306,1.31 1.72056,0.86474 2.22889,-0.56673 3.38335,1.5579 3.84898,7.08355 0.3736,4.43363 -0.32412,7.89309 -1.59193,7.89309 -1.24137,0 -2.25705,3.86022 -2.25705,8.57827 0,4.71804 -1.38399,12.36827 -3.07554,17.00051 -1.69155,4.63223 -2.63388,8.42224 -2.09408,8.42224 0.5398,0 -0.35623,3.66321 -1.99118,8.14046 -1.63495,4.47725 -3.669,12.94715 -4.52011,18.82199 -2.35399,16.24858 -8.57367,27.33789 -11.88974,21.19866 -0.97681,-1.80844 -3.69125,-1.71719 -9.0436,0.30397 -4.20632,1.58838 -9.41184,2.24737 -11.56782,1.46443 -2.3477,-0.85258 -5.89668,0.53806 -8.84836,3.4672 -2.71062,2.68992 -6.19383,4.89076 -7.74046,4.89076 -1.54663,0 -7.847775,2.61242 -14.002549,5.80536 -23.219593,12.0458 -38.285064,16.04823 -41.061152,10.90869 z m 137.590901,-3.85132 c -124.53104,90.62642 -62.26552,45.31321 0,0 z m -35.65639,-19.09463 c 1.80388,-3.15005 4.2037,-13.14577 5.33294,-22.2127 1.12923,-9.06693 5.41154,-28.50711 9.51623,-43.20041 7.85308,-28.11113 9.30774,-40.04787 4.88797,-40.10982 -1.7688,-0.0248 -1.59192,-0.82194 0.53064,-2.39145 2.41847,-1.78831 2.49815,-2.36321 0.33147,-2.39146 -3.55204,-0.0463 -1.51514,-21.80135 3.05135,-32.58986 1.64169,-3.87854 2.99926,-9.34299 3.01684,-12.14322 0.0439,-6.98828 4.80481,-22.0564 7.39702,-23.41116 6.64619,-3.47347 7.43837,88.47413 0.883,102.48924 -1.32936,2.84212 -2.70054,9.11026 -3.04709,13.92922 -0.34654,4.81895 -1.33635,11.49396 -2.19959,14.83334 -0.86324,3.33939 -0.80001,5.26142 0.14049,4.2712 0.94051,-0.99022 2.9719,-0.60213 4.51419,0.86242 2.02627,1.92417 4.64101,1.93019 9.42564,0.0219 4.09489,-1.63333 7.98895,-1.80372 10.20525,-0.44655 3.1532,1.93089 3.52347,0.83151 3.08182,-9.15022 -0.27608,-6.23962 -0.5503,-12.67659 -0.60937,-14.30436 -0.0591,-1.62789 -1.54012,-2.33063 -3.29124,-1.56176 -1.75111,0.76886 -3.18385,0.12362 -3.18385,-1.43388 0,-1.5575 -0.95515,-2.15637 -2.12256,-1.33083 -1.16742,0.82554 -2.12257,-0.26735 -2.12257,-2.42864 0,-2.1613 -0.94229,-3.26329 -2.09397,-2.44887 -1.33401,0.94336 -1.44275,-0.54711 -0.29961,-4.1068 3.7573,-11.70004 26.28254,-6.86957 31.23726,6.69874 3.29673,9.02793 5.61277,10.92793 5.00637,4.10706 -0.87636,-9.85782 0.7315,-13.28709 12.76779,-27.23118 15.23935,-17.65483 14.50967,-17.53188 14.61168,-2.46206 0.0478,7.0458 -0.76302,11.60289 -1.91882,10.78557 -1.10076,-0.77842 -2.00141,0.22655 -2.00141,2.23327 0,2.00672 -2.1491,5.46324 -4.77577,7.68115 -3.19862,2.70084 -3.89958,4.41723 -2.12257,5.19739 1.55983,0.6848 2.65321,5.51773 2.65321,11.72768 0,12.77254 2.00833,13.85303 20.82488,11.20393 13.3959,-1.88596 13.3959,-1.88596 18.54852,8.1742 12.37205,27.437 11.75232,21.41007 7.62201,26.08444 -2.55791,2.92678 -15.39485,-0.77762 -31.75685,-1.57023 -24.41484,-1.18271 -27.64969,-2.38136 -29.16009,-10.80509 -2.65552,-14.81012 -5.09374,-21.59038 -3.87061,-10.76344 1.44995,12.83451 -0.49882,20.13873 -5.37302,20.13873 -2.0768,0 -7.02699,1.89894 -11.00044,4.21987 -3.97344,2.32091 -11.67022,4.23347 -17.10395,4.25013 -5.43372,0.017 -8.81451,0.78338 -7.51286,1.70384 1.30165,0.92048 -0.79085,1.57087 -4.65001,1.44531 -3.88192,-0.12629 -7.82865,1.27504 -8.83419,3.13664 -1.07963,1.9988 -1.45149,-2.53203 -0.91592,-11.15989 l 0.90162,-14.52479 -2.87686,12.63762 c -3.59373,15.78667 -7.10749,19.86628 -18.17214,21.09848 -8.7526,0.97474 -8.7526,0.97474 -5.47283,-4.75266 z m 142.5399,-36.96011 c -1.64603,-3.62735 -9.77238,-19.07916 -18.05854,-34.33732 -13.88632,-25.57027 -17.68448,-36.90711 -13.38384,-39.94834 0.92507,-0.65417 1.82048,0.91484 1.9898,3.48669 0.32713,4.96884 15.91693,29.35504 23.96608,37.48868 2.64375,2.67151 8.94955,12.21139 14.01287,21.19974 5.06332,8.98836 11.13545,17.72113 13.4936,19.4062 2.35815,1.68507 4.28756,3.76969 4.28756,4.63254 -9.43345,17.42292 -22.34188,-3.38666 -26.30753,-11.92819 z m 25.24625,0.17326 c -2.33482,-0.64257 -5.20029,-2.31547 -6.3677,-3.71752 -1.45727,-1.75018 -1.18815,-1.93929 0.8586,-0.60335 1.99795,1.30411 2.48166,1.02112 1.46665,-0.85802 -0.83298,-1.54214 -2.94723,-2.80389 -4.69834,-2.80389 -1.75112,0 -2.70076,-0.89441 -2.11028,-1.98758 0.89226,-1.65191 -19.31266,-30.49573 -24.12647,-34.44209 -11.08517,-9.08757 -20.22776,-37.36801 -12.93649,-40.01587 2.24888,-0.81669 7.91573,-5.86361 12.59302,-11.21538 14.54072,-16.63751 36.48702,-13.40133 46.82315,6.90449 1.91785,3.76769 2.17283,3.60438 2.22999,-1.42818 0.0692,-6.0979 -5.61775,-12.77295 -15.8547,-18.60916 -6.66046,-3.79722 -14.56165,-11.99429 -23.38026,-24.25578 -11.47062,-15.9489 -16.26367,-52.72076 -7.22447,-55.42544 4.10848,-1.22931 10.44035,9.27256 10.44035,17.31607 0,3.01119 19.07703,22.69394 36.08363,37.2293 8.91245,7.61737 37.85894,24.84995 42.40393,25.24412 1.77718,0.15413 5.38243,0.46718 8.01167,0.69566 2.62922,0.22849 7.88258,4.16029 11.67412,8.73734 9.9632,12.02737 38.44734,8.15515 38.57244,-3.74405 0.017,-1.51594 1.89399,-1.13616 2.64565,-4.35048 0.89768,-3.83872 0.59146,-5.29604 -0.89232,-4.24678 -1.42533,1.00794 -1.84583,-0.21027 -1.13942,-3.30104 0.61574,-2.69417 1.95941,-5.4924 2.9859,-6.21829 1.02649,-0.72589 1.86635,-3.44109 1.86635,-6.03376 0,-8.05531 6.08763,-5.3755 7.22193,3.17913 3.02822,22.83827 3.27367,29.10655 1.30453,33.31649 -1.4994,3.20568 -1.40654,6.70641 0.30391,11.45442 3.55678,9.87334 -5.55412,29.75861 -13.69209,29.88404 -2.13468,0.0329 -15.06977,10.3552 -16.01017,12.77625 -0.38916,1.00181 -2.07362,1.82148 -3.7433,1.82148 -1.66967,0 -4.69433,0.96538 -6.72147,2.14529 -4.95727,2.88544 -12.74127,6.46724 -21.7275,9.99793 -4.08594,1.60537 -9.33929,3.85987 -11.67411,5.01002 -2.33483,1.15014 -9.71098,3.18296 -16.39146,4.51737 -6.68048,1.33441 -16.70199,5.20109 -22.27005,8.59263 -5.56807,3.39153 -10.60893,6.03965 -11.20191,5.8847 -0.593,-0.15495 -2.98849,-0.80747 -5.32331,-1.45007 z M 332.857,247.95847 c 4.81107,-5.582 1.65626,-7.6773 -10.73193,-7.12772 -10.00705,0.44395 -13.16267,-0.30278 -14.79342,-3.50063 -1.14011,-2.23572 -2.10198,-2.77842 -2.13747,-1.206 -0.0395,1.75275 -2.52838,2.50217 -6.43224,1.93687 -8.65676,-1.25357 -8.03752,2.03778 1.09427,5.81604 4.10408,1.69806 6.95397,4.02787 6.33308,5.17736 -0.6209,1.14949 -0.0993,2.8181 1.15921,3.70803 1.25847,0.88993 3.18258,4.30988 4.27579,7.59989 1.0932,3.29001 2.8786,5.3518 3.96754,4.58176 1.08892,-0.77004 2.55404,-0.33709 3.25581,0.96211 0.70174,1.29921 2.58144,1.78897 4.17708,1.08837 1.59566,-0.7006 3.71417,0.1668 4.70781,1.92755 1.17514,2.08236 2.03894,-0.61875 2.47126,-7.72752 0.36555,-6.0109 1.55949,-11.96715 2.65321,-13.23611 z M 107.73096,229.49176 c 0,-5.11446 11.35365,-8.17252 17.15429,-4.62045 8.27058,5.06457 4.87419,9.89021 -6.54146,9.29421 -8.37408,-0.4372 -10.61283,-1.42312 -10.61283,-4.67376 z m 295.37651,-7.73817 c -5.57846,-6.3829 4.21115,-43.13292 11.48994,-43.13292 1.66554,0 3.02825,-2.22008 3.02825,-4.93351 0,-2.71343 1.31251,-5.5098 2.9167,-6.21415 1.60417,-0.70435 4.68684,-5.04161 6.85037,-9.63835 2.16353,-4.59675 4.59249,-8.35772 5.39769,-8.35772 2.84436,0 5.77003,23.04825 4.0077,31.57238 -0.96657,4.67514 -1.85516,6.52319 -1.97467,4.10679 -0.1195,-2.4164 -1.188,-3.707 -2.37445,-2.86799 -1.18645,0.83901 -1.59305,2.56992 -0.90351,3.84647 0.68952,1.27655 0.46631,2.16451 -0.49602,1.97323 -4.39694,-0.87395 -7.18315,0.45608 -5.90653,2.81954 0.77007,1.42566 -0.48796,3.15705 -2.79559,3.84753 -2.30766,0.69048 -5.508,4.16882 -7.11191,7.72963 -1.6039,3.56081 -4.26534,7.68228 -5.91428,9.15881 -1.64894,1.47653 -2.40703,4.44698 -1.68462,6.60099 1.66053,4.9513 -1.27483,7.21276 -4.52907,3.48927 z"
       style="fill:#c3a4a2"
       sodipodi:nodetypes="sssssssssssssssssssssssssscsssssssscssssssssssssssssssssssssssscccssssssssssssscsscsssssssssccsssssccssssscsssscsscccsssssscccsssscssssssssssssscssssssssscssssssscssscssscsscssssssssssssssssscsssssss" />
    <path
       inkscape:connector-curvature="0"
       id="path4729"
       d="m 50.630939,386.51374 c -7.327608,-8.54295 -8.676884,-11.65992 -8.555882,-19.76506 0.153864,-10.3061 2.42016,-7.23588 5.074593,6.87469 2.233492,11.87291 14.081889,10.61655 43.117161,-4.57192 6.154774,-3.21961 12.455919,-5.85381 14.002549,-5.85381 1.54663,0 5.02984,-2.20084 7.74046,-4.89076 2.95168,-2.92914 6.50066,-4.31978 8.84836,-3.4672 2.15598,0.78294 7.44088,0.094 11.74424,-1.53107 5.84938,-2.20883 8.02972,-2.24939 8.63823,-0.16053 0.44767,1.5367 1.92631,2.0804 3.28587,1.20825 8.2752,-5.30858 -3.8121,5.06192 -14.27907,12.25098 -8.32691,5.71916 -13.55043,7.92054 -15.63184,6.58774 -1.94477,-1.24528 -6.44284,-0.15713 -11.90366,2.8796 -4.827722,2.6847 -7.583728,5.34831 -6.124463,5.91914 1.459264,0.57083 2.653208,2.10418 2.653208,3.40746 0,1.30328 -0.955155,1.69415 -2.122567,0.86861 -1.167411,-0.82555 -2.122566,-0.45921 -2.122566,0.81408 0,1.27326 -2.149099,2.26811 -4.775775,2.21074 -2.626676,-0.0573 -10.65132,1.57551 -17.832542,3.62864 -13.056766,3.73292 -13.056766,3.73292 -21.756306,-6.40948 z m 81.963211,-14.07385 c 6.39265,-7.78317 17.04405,-14.64302 18.51319,-11.92311 5.04137,9.33338 19.85806,-3.11736 23.6778,-19.89686 l 2.87686,-12.63762 -0.90162,14.52479 c -0.53557,8.62786 -0.16371,13.15869 0.91592,11.15989 1.00554,-1.8616 4.95227,-3.26293 8.83419,-3.13664 3.85916,0.12556 5.95166,-0.52483 4.65001,-1.44531 -1.30165,-0.92046 2.07914,-1.68721 7.51286,-1.70384 5.43373,-0.017 13.13051,-1.92922 17.10395,-4.25013 3.97345,-2.32093 8.92364,-4.21987 11.00044,-4.21987 4.8742,0 6.82297,-7.30422 5.37302,-20.13873 -1.22313,-10.82694 1.21509,-4.04668 3.87061,10.76344 1.5104,8.42373 4.74525,9.62238 29.16009,10.80509 16.362,0.79261 21.19894,0.24701 23.75685,-2.67977 2.86744,-3.28093 3.44565,-3.21562 5.39191,0.60896 6.14243,12.07041 1.57431,-7.82636 -5.10367,-22.22941 -8.93025,-19.26071 -8.02984,-21.40302 1.16262,-2.76612 4.95279,10.04139 7.38235,12.85296 10.10034,11.6885 3.21702,-1.37826 3.26404,-1.0576 0.46497,3.17159 -1.71264,2.58767 -2.3153,3.93722 -1.33924,2.99901 0.97604,-0.93821 3.00889,-0.2936 4.51744,1.43249 2.45226,2.80589 15.85491,2.67141 15.85491,-0.15908 0,-0.60249 -2.86803,-3.85676 -6.37339,-7.23165 -3.50537,-3.37492 -5.89873,-7.01494 -5.31862,-8.08899 0.58014,-1.07402 -0.13372,-2.49372 -1.58621,-3.15488 -1.45256,-0.66118 -4.55134,-5.41645 -6.88616,-10.56729 -2.33482,-5.15085 -6.89879,-11.95132 -10.14213,-15.11217 -15.3695,-14.97857 -30.31216,-43.85985 -24.7334,-47.8049 1.08667,-0.76844 1.97575,0.73048 1.97575,3.33093 0,4.16228 13.09518,28.76631 17.02534,31.98823 7.02357,5.75791 24.89471,32.88381 22.71065,34.4716 -1.68402,1.22426 -0.96307,1.89671 2.05942,1.92088 2.55778,0.0204 5.33204,1.29894 6.16502,2.84108 0.84716,1.56837 0.59058,2.15054 -0.58224,1.32116 -1.15323,-0.81551 -2.09678,-0.15179 -2.09678,1.47487 0,4.77449 16.44637,2.86925 24.95431,-2.89087 4.19101,-2.83741 13.26498,-6.28862 20.16439,-7.66934 6.8994,-1.38071 14.45467,-3.45142 16.7895,-4.60156 2.33482,-1.15015 7.58817,-3.40465 11.67411,-5.01002 8.98623,-3.53069 16.77023,-7.11249 21.7275,-9.99793 2.02714,-1.17991 5.0518,-2.14529 6.72147,-2.14529 1.66968,0 3.35414,-0.81967 3.7433,-1.82148 0.9404,-2.42105 13.87549,-12.74334 16.01017,-12.77625 8.13797,-0.12544 17.24887,-20.0107 13.69209,-29.88404 -1.71045,-4.74801 -1.80331,-8.24874 -0.30391,-11.45442 1.96914,-4.20994 1.72369,-10.47822 -1.30453,-33.31649 -1.1343,-8.55463 -7.22193,-11.23444 -7.22193,-3.17913 0,2.59267 -0.83986,5.30787 -1.86635,6.03376 -1.02649,0.72589 -2.37016,3.52412 -2.9859,6.21829 -0.70641,3.09078 -0.28591,4.30898 1.13942,3.30104 1.48378,-1.04926 1.79,0.40806 0.89232,4.24678 -0.75166,3.21432 -1.37971,7.08454 -1.39565,8.60048 -0.0427,4.05887 -20.73397,11.11807 -27.56008,9.40261 -5.93792,-1.49225 -15.80809,-12.17046 -14.14391,-15.30183 2.47205,-4.65145 6.05475,-62.19877 6.26148,-100.57521 l 0.23279,-43.214807 34.33868,0 34.33869,0 1.04072,9.107416 c 3.72137,32.566381 -1.06224,79.610221 -10.40622,102.338581 -2.44526,5.94783 -3.49958,16.71844 -3.80383,38.8583 -0.57465,41.81578 -7.12106,56.64332 -30.32273,68.68048 -7.44355,3.86175 -14.07298,8.62931 -14.73208,10.59457 -1.21396,3.6197 -32.29542,15.71373 -40.38407,15.71373 -2.41967,0 -8.4277,1.62622 -13.35122,3.61384 -11.70133,4.72379 -30.88226,6.42318 -37.96696,3.3638 -3.61976,-1.56313 -4.86289,-1.57544 -3.49523,-0.0345 1.16741,1.31521 5.4656,3.41416 9.55155,4.66436 7.42898,2.27304 7.42898,2.27304 1.59192,5.43722 -3.21038,1.74032 -5.83706,4.1473 -5.83706,5.34885 0,2.64295 -10.52691,0.98761 -16.33414,-2.56849 -3.23117,-1.97861 -4.18401,-1.79307 -4.18401,0.81476 0,1.85726 0.55718,3.17283 1.23818,2.92348 -4.0857,4.19043 -8.8115,3.16924 -17.73317,3.46192 -25.13855,2.41975 2.77673,-1.13492 -34.15118,-2.5681 -3.53435,-0.094 -8.45198,-1.79433 -10.9281,-3.77878 -3.77413,-3.0247 -4.6837,-3.06638 -5.62563,-0.25777 -1.23293,3.67626 -27.01015,13.76905 -47.06492,18.42775 -7.00446,1.62714 -14.21555,4.45202 -16.02462,6.27753 -3.91952,3.95512 -19.62671,10.70792 -28.54927,12.27384 -3.50223,0.61464 -7.77796,1.67294 -9.50161,2.3518 -1.92179,0.75689 -1.35515,-0.93141 1.46502,-4.36502 z M 407.63654,218.26432 c -0.72241,-2.15401 0.0357,-5.12446 1.68462,-6.60099 1.64894,-1.47653 4.31038,-5.598 5.91428,-9.15881 1.60391,-3.56081 4.80425,-7.03915 7.11191,-7.72963 2.30763,-0.69048 3.56566,-2.42187 2.79559,-3.84753 -1.27662,-2.36346 1.50959,-3.69349 5.90653,-2.81954 0.96233,0.19128 1.18554,-0.69668 0.49602,-1.97323 -0.68954,-1.27655 -0.28294,-3.00746 0.90351,-3.84647 1.18645,-0.83901 2.25495,0.45159 2.37445,2.86799 0.11951,2.4164 1.0081,0.56835 1.97467,-4.10679 1.76233,-8.52413 -1.16334,-31.57238 -4.0077,-31.57238 -0.8052,0 -3.23416,3.76097 -5.39769,8.35772 -2.16353,4.59674 -5.2462,8.934 -6.85037,9.63835 -1.60419,0.70435 -2.9167,3.50072 -2.9167,6.21415 0,2.71343 -1.36271,4.93351 -3.02825,4.93351 -7.27879,0 -17.0684,36.75002 -11.48994,43.13292 3.25424,3.72349 6.1896,1.46203 4.52907,-3.48927 z m -256.57909,135.8259 c 0.82387,-1.66969 0.45281,-3.0358 -0.82457,-3.0358 -1.54002,0 -1.66527,-1.43196 -0.37176,-4.25013 1.07291,-2.33757 2.64711,-9.05683 3.49822,-14.93167 0.85111,-5.87484 2.88516,-14.34474 4.52011,-18.82199 1.63495,-4.47725 2.53098,-8.14046 1.99118,-8.14046 -0.5398,0 0.40253,-3.79001 2.09408,-8.42224 1.69155,-4.63224 3.07554,-12.28247 3.07554,-17.00051 0,-4.71805 1.01568,-8.57827 2.25705,-8.57827 1.26781,0 1.96553,-3.45946 1.59193,-7.89309 -0.46563,-5.52565 -1.62009,-7.65028 -3.84898,-7.08355 -1.75111,0.44526 -2.52537,0.0561 -1.72056,-0.86474 1.69874,-1.9437 -7.62426,-13.30235 -10.91835,-13.30235 -1.22048,0 -1.98026,-1.36611 -1.68841,-3.0358 0.29185,-1.6697 -0.90209,-2.67151 -2.65321,-2.22626 -1.75111,0.44525 -2.5249,0.0556 -1.71951,-0.86595 2.13572,-2.44369 -3.09532,-8.04127 -6.22894,-6.66539 -1.46541,0.64342 -2.66438,-0.04 -2.66438,-1.51862 0,-1.47867 -1.34643,-2.68849 -2.99206,-2.68849 -3.64553,0 -4.0241,21.69811 -0.38625,22.13795 1.27437,0.15407 3.71851,0.4273 5.43144,0.60716 5.69462,0.59794 8.93075,11.71555 4.45443,15.30301 -4.22688,3.38755 -11.60699,26.33224 -10.00557,31.10725 1.10345,3.2902 -6.00826,11.44648 -7.99672,9.17128 -0.68237,-0.78077 -1.24067,0.28498 -1.24067,2.36833 0,4.1752 -5.60721,7.68033 -7.29316,4.55903 -0.58377,-1.08077 2.19929,-5.07582 6.18458,-8.87788 5.17682,-4.93881 7.65857,-9.70706 8.69081,-16.69785 0.79465,-5.38175 2.83715,-12.21639 4.53888,-15.18809 2.83499,-4.95066 2.63479,-5.96982 -2.39095,-12.17144 -3.01677,-3.72259 -5.48503,-7.46385 -5.48503,-8.31391 0,-0.85006 -5.19545,-2.03854 -11.54544,-2.64106 -15.50359,-1.47108 -19.511671,-5.2192 -14.77155,-13.81347 3.34346,-6.062 3.33105,-6.15813 -0.28718,-2.22297 -2.07997,2.26216 -5.09336,11.00528 -6.696422,19.42916 -6.025527,31.66331 -6.095743,30.09609 1.733961,38.70075 3.936411,4.32603 5.347821,6.30725 3.136461,4.40271 -3.734142,-3.21603 -3.913308,-3.03147 -2.514167,2.58977 1.146655,4.60685 0.974052,5.18241 -0.722611,2.4096 -1.226007,-2.00363 -2.243731,-2.59221 -2.261607,-1.30796 -0.01788,1.28425 -1.942813,-1.95228 -4.277636,-7.19229 -4.836923,-10.85544 -5.47426,-21.23844 -1.591925,-25.93445 1.459265,-1.76511 2.685743,-4.30217 2.725509,-5.63793 0.170081,-5.71306 6.316758,-32.06252 8.740797,-37.46985 1.45407,-3.24361 2.15869,-6.79551 1.56584,-7.8931 -0.59286,-1.09759 -0.23709,-1.99561 0.79058,-1.99561 1.02768,0 2.09201,-5.60457 2.36518,-12.45459 0.43217,-10.83702 0.0289,-12.24921 -3.10474,-10.8733 -2.934662,1.28853 -3.133791,0.93657 -1.07556,-1.90106 3.62224,-4.99392 -0.80439,-7.27916 -4.938144,-2.54931 -1.845234,2.11132 -3.354971,6.55742 -3.354971,9.88023 0,3.99424 -0.841489,5.4464 -2.483273,4.28541 -1.684804,-1.19142 -2.033864,-0.41605 -1.085595,2.41145 0.830208,2.47546 0.545767,3.56508 -0.700576,2.68372 -1.15404,-0.81609 -2.098255,0.16373 -2.098255,2.17738 0,2.01364 -2.369992,6.58719 -5.266648,10.16345 -2.896657,3.57625 -4.812452,7.34315 -4.257324,8.37089 1.147045,2.12359 -5.373347,5.57076 -7.00527,3.70351 -1.312629,-1.50192 8.48909,-18.28687 10.692184,-18.30983 0.875559,-0.009 1.591925,-1.52211 1.591925,-3.36219 0,-1.84007 1.278146,-4.55932 2.840321,-6.04277 1.562177,-1.48345 3.976393,-7.03583 5.364923,-12.33864 2.862259,-10.93098 5.011839,-13.19723 10.594733,-11.16978 8.36972,3.03952 11.58268,25.41442 5.88855,41.00756 -2.86264,7.83923 -2.8241,7.94859 2.65321,7.52889 3.05693,-0.23424 3.88652,0.0521 1.84355,0.63639 -8.80034,2.51674 -4.00451,9.55583 6.89834,10.12506 11.22512,0.58606 14.76568,-4.07142 6.91602,-9.09777 -5.7203,-3.66287 -1.86885,-5.66368 7.16821,-3.72384 5.75575,1.23549 11.64427,5.56273 20.04254,14.72847 13.38006,14.60278 14.59163,15.21224 14.93848,7.51453 0.18528,-4.11211 0.48645,-4.41263 1.21692,-1.21433 0.53388,2.33757 2.0946,4.26687 3.46827,4.28732 1.45842,0.0217 1.17288,1.01672 -0.68628,2.39146 -2.12256,1.56951 -2.29944,2.36666 -0.53064,2.39145 4.41977,0.062 2.96511,11.99869 -4.88797,40.10982 -4.10469,14.6933 -8.41287,34.3422 -9.57372,43.66423 -1.16086,9.32201 -3.17838,18.06513 -4.48338,19.42916 -1.66525,1.74053 -1.92609,1.57483 -0.87479,-0.5558 z M 35.829377,332.6372 c -0.146117,-2.78283 -0.930091,-5.8199 -1.742156,-6.74908 -2.294093,-2.6249 -2.616209,-8.83472 -0.458272,-8.83472 1.064115,0 1.934753,-1.96721 1.934753,-4.37156 0,-2.40436 1.026594,-5.54619 2.281322,-6.98186 1.254727,-1.43566 3.678384,-6.84546 5.385904,-12.02179 l 3.104582,-9.41149 -1.330711,9.71458 c -0.731891,5.34301 -2.192106,10.90802 -3.244922,12.36667 -1.052817,1.45866 -1.285728,3.37122 -0.517582,4.25013 0.768146,0.87892 0.225911,1.59803 -1.204966,1.59803 -1.430877,0 -2.188597,0.81966 -1.683819,1.82148 0.504776,1.00182 0.20313,6.73949 -0.670343,12.75038 -0.873463,6.0109 -1.70767,8.65205 -1.85379,5.86923 z M 180.84095,309.76746 c 0.86324,-3.33938 1.85305,-10.01439 2.19959,-14.83334 0.34655,-4.81896 1.6848,-11.01669 2.9739,-13.77274 3.03605,-6.49095 4.69424,-18.77676 5.34433,-39.59704 0.75316,-24.12099 2.9729,-23.3053 2.9729,1.09245 0,25.11355 -0.16418,24.78643 13.47942,26.8573 12.96599,1.96803 18.78359,5.05924 18.78359,9.98077 0,2.73534 -0.94573,2.47541 -4.09214,-1.12471 -8.13499,-9.30808 -26.24344,-9.44191 -28.35348,-0.20957 -0.61575,2.69417 -0.25347,4.28604 0.80507,3.53748 1.05854,-0.74854 1.92462,0.40734 1.92462,2.56864 0,2.16129 0.95515,3.25418 2.12257,2.42864 1.16741,-0.82554 2.12256,-0.22666 2.12256,1.33083 0,1.5575 1.33862,2.24407 2.9747,1.52571 1.76874,-0.7766 3.40919,0.59494 4.04642,3.38313 1.01543,4.44292 -1.62601,6.81001 -3.12975,2.80468 -1.66813,-4.44322 -18.42325,-9.87672 -19.6036,-6.35723 -0.62428,1.86147 -0.31066,3.38449 0.69695,3.38449 2.1075,0 -2.15844,18.10967 -4.96786,21.08945 -1.06933,1.13418 -1.19763,-0.6157 -0.29979,-4.08894 z m 91.05068,-26.34666 -8.33541,-14.20345 -8.22165,8.1319 c -4.5219,4.47254 -8.7212,7.56029 -9.3318,6.86165 -0.61058,-0.69864 0.98133,-2.94641 3.53755,-4.99507 2.55625,-2.04865 4.64772,-5.36668 4.64772,-7.3734 0,-2.00672 0.90065,-3.01169 2.00141,-2.23327 1.1558,0.81732 1.96654,-3.73977 1.91882,-10.78557 -0.0454,-6.71048 -0.46825,-12.20088 -0.93961,-12.20088 -2.25309,0 -24.55003,27.29755 -26.24834,32.13513 -1.23926,3.52995 -1.98233,4.12239 -2.06852,1.64922 -0.21358,-6.12649 23.59217,-36.03767 28.7564,-36.13154 3.64773,-0.0663 4.2927,1.04822 3.46689,5.99108 -0.94573,5.66069 4.20933,17.73697 17.36478,40.67887 2.10637,3.67332 3.37017,6.67877 2.80845,6.67877 -0.56171,0 -4.77223,-6.39155 -9.35669,-14.20344 z m 56.70572,-13.72597 c -0.3422,-1.33575 -0.49545,-3.29511 -0.34055,-4.35413 0.15495,-1.05901 -1.5843,-0.78284 -3.86496,0.61373 -2.80541,1.71793 -4.57897,1.73875 -5.48337,0.0644 -0.73522,-1.36115 -2.15993,-1.89272 -3.166,-1.18127 -1.00608,0.71146 -2.42919,0.18283 -3.16245,-1.1747 -0.73327,-1.35755 -0.3217,-2.46826 0.91461,-2.46826 1.23631,0 2.00905,-1.30121 1.7172,-2.89157 -0.29185,-1.59036 1.37967,-3.28845 3.71449,-3.77352 3.1535,-0.65516 3.50459,-0.30192 1.36532,1.37366 -2.34151,1.83398 -2.36492,2.61974 -0.12523,4.20352 2.40268,1.69908 5.14745,-1.98097 4.62282,-6.19803 -0.0832,-0.66787 0.95165,-2.06718 2.29944,-3.10958 1.34779,-1.04239 -0.41494,-1.16491 -3.91718,-0.27228 -3.50223,0.89264 -7.56164,2.69899 -9.0209,4.01412 -2.95296,2.66129 -9.7599,-2.1566 -7.90327,-5.59388 0.58899,-1.09044 -2.28698,-3.37193 -6.39107,-5.06999 -9.13179,-3.77826 -9.75103,-7.06961 -1.09427,-5.81604 3.90387,0.5653 6.39268,-0.18412 6.43225,-1.93687 0.0354,-1.57242 0.99735,-1.02972 2.13746,1.206 1.63075,3.19785 4.78637,3.94458 14.79342,3.50063 12.38819,-0.54958 15.543,1.54572 10.73193,7.12772 -1.09372,1.26896 -2.35957,7.22521 -2.81302,13.23611 -0.45344,6.01089 -1.10443,9.83601 -1.44663,8.50025 z m 1.53062,-38.21914 c -0.82247,-2.31996 -6.31013,-7.60786 -12.19482,-11.75087 -5.88467,-4.14302 -10.18061,-8.49324 -9.54654,-9.66716 0.63409,-1.17391 -0.7945,-3.52592 -3.17462,-5.22667 -2.38012,-1.70075 -4.32749,-4.01943 -4.32749,-5.15261 0,-1.13319 3.10426,0.945 6.89835,4.61818 3.79408,3.67319 6.69219,7.48337 6.44027,8.46707 -0.25195,0.9837 1.18078,1.35548 3.18384,0.82618 5.43237,-1.43548 15.74979,10.09594 14.91089,16.66544 -0.59496,4.65922 -0.90876,4.83411 -2.18988,1.22044 z M 172.47668,203.4255 c 1.13613,-19.61382 5.12298,-30.92871 11.74525,-33.33362 4.8799,-1.77216 11.22124,2.86348 9.15358,6.69145 -0.73366,1.35827 -1.13628,11.87278 -0.89471,23.36556 0.54972,26.15319 -2.49328,24.01396 -4.02042,-2.82635 -0.68091,-11.96729 -1.98033,-19.47345 -3.25575,-18.80688 -2.60894,1.3635 -7.35348,16.441 -7.39702,23.50668 -0.0176,2.85276 -1.45486,8.31721 -3.19397,12.14322 -3.00774,6.61696 -3.11201,6.09292 -2.13696,-10.74006 z m 215.00268,10.32286 c -0.62584,-0.71609 -5.51101,-0.3983 -9.63369,-0.82158 -8.11587,-0.83327 -33.14622,-16.42413 -45.12267,-26.66029 -17.0066,-14.53536 -36.08363,-34.21811 -36.08363,-37.2293 0,-8.04351 -6.33187,-18.54538 -10.44035,-17.31607 -9.08836,2.71938 -4.17795,39.93492 7.28286,55.19603 6.73295,8.96554 6.81338,11.19893 0.14519,4.03114 -32.96532,-42.33237 -13.65767,-81.78775 14.59586,-55.61636 3.46846,3.33939 19.02669,24.57161 21.12937,24.57161 39.45432,25.50552 66.72821,63.11662 58.12706,53.84482 z"
       style="fill:#9b6a62"
       sodipodi:nodetypes="csssssssssssssssscscccsscsssscssssssssssssssscssssssscssssssssscssssssssssssscccsssssssscssssscccsssssscssssssscsssssssssssssssssssssssssssssssssssssssssssssssssssssssssssssssssssscsssssscsssssssscsssssssssscsssssssssssssssscssssssssssscscsscssscsssscccssssssssscsssssscsssscssscssscssssssssssscssssscccc" />
  </g>
</svg>
