<?xml version="1.0" encoding="UTF-8" standalone="no"?>
<svg
   xmlns:dc="http://purl.org/dc/elements/1.1/"
   xmlns:cc="http://creativecommons.org/ns#"
   xmlns:rdf="http://www.w3.org/1999/02/22-rdf-syntax-ns#"
   xmlns:svg="http://www.w3.org/2000/svg"
   xmlns="http://www.w3.org/2000/svg"
   xmlns:sodipodi="http://sodipodi.sourceforge.net/DTD/sodipodi-0.dtd"
   xmlns:inkscape="http://www.inkscape.org/namespaces/inkscape"
   sodipodi:docname="demon sword.svg"
   height="100%"
   width="100%"
   inkscape:version="0.48.4 r9939"
   version="1.1"
   id="svg8438"
   viewBox="0 0 512 512">
  <metadata
     id="metadata8464">
    <rdf:RDF>
      <cc:Work
         rdf:about="">
        <dc:format>image/svg+xml</dc:format>
        <dc:type
           rdf:resource="http://purl.org/dc/dcmitype/StillImage" />
        <dc:title></dc:title>
      </cc:Work>
    </rdf:RDF>
  </metadata>
  <defs
     id="defs8462">
    <linearGradient
       id="linearGradient4077">
      <stop
         id="stop4079"
         offset="0"
         style="stop-color:#aa4400;stop-opacity:1;" />
      <stop
         style="stop-color:#ff9f00;stop-opacity:1;"
         offset="0.22752622"
         id="stop4081" />
      <stop
         style="stop-color:#803300;stop-opacity:1;"
         offset="0.4948855"
         id="stop4083" />
      <stop
         id="stop4085"
         offset="1"
         style="stop-color:#562200;stop-opacity:1;" />
    </linearGradient>
    <linearGradient
       id="linearGradient4057">
      <stop
         style="stop-color:#aa4400;stop-opacity:1;"
         offset="0"
         id="stop4059" />
      <stop
         id="stop4067"
         offset="0.22752622"
         style="stop-color:#ecd1a4;stop-opacity:1;" />
      <stop
         id="stop4065"
         offset="0.50136983"
         style="stop-color:#803300;stop-opacity:1;" />
      <stop
         style="stop-color:#562200;stop-opacity:1;"
         offset="1"
         id="stop4061" />
    </linearGradient>
    <linearGradient
       id="linearGradient3890">
      <stop
         style="stop-color:#701b1b;stop-opacity:1;"
         offset="0"
         id="stop3892" />
      <stop
         style="stop-color:#e31600;stop-opacity:1;"
         offset="1"
         id="stop3894" />
    </linearGradient>
    <linearGradient
       id="linearGradient3882">
      <stop
         style="stop-color:#600b0b;stop-opacity:1;"
         offset="0"
         id="stop3884" />
      <stop
         style="stop-color:#d11414;stop-opacity:1;"
         offset="1"
         id="stop3886" />
    </linearGradient>
    <linearGradient
       id="linearGradient3872">
      <stop
         style="stop-color:#800600;stop-opacity:1;"
         offset="0"
         id="stop3874" />
      <stop
         style="stop-color:#ff0004;stop-opacity:0;"
         offset="1"
         id="stop3876" />
    </linearGradient>
    <filter
       id="filter4074"
       inkscape:label="Black Light"
       inkscape:menu="Color"
       inkscape:menu-tooltip="Light areas turn to black"
       x="0"
       width="1"
       y="0"
       height="1"
       color-interpolation-filters="sRGB">
      <feColorMatrix
         id="feColorMatrix4076"
         type="luminanceToAlpha"
         result="result2" />
      <feComposite
         in2="SourceGraphic"
         id="feComposite4078"
         operator="arithmetic"
         in="result2"
         k3="2"
         result="result4" />
      <feBlend
         in2="result2"
         id="feBlend4080"
         in="result4"
         mode="multiply"
         result="result3" />
      <feComposite
         in2="SourceGraphic"
         id="feComposite4082"
         operator="in"
         in="result3" />
    </filter>
  </defs>
  <sodipodi:namedview
     pagecolor="#000000"
     bordercolor="#666666"
     borderopacity="1"
     objecttolerance="10"
     gridtolerance="10"
     guidetolerance="10"
     inkscape:pageopacity="0"
     inkscape:pageshadow="2"
     inkscape:window-width="1190"
     inkscape:window-height="1126"
     id="namedview8460"
     showgrid="false"
     inkscape:zoom="1"
     inkscape:cx="310.27548"
     inkscape:cy="216.51103"
     inkscape:window-x="160"
     inkscape:window-y="130"
     inkscape:window-maximized="0"
     inkscape:current-layer="svg8438" />
  <path
     style="fill:#000000"
     id="path3978"
     d="M -13.466093,0.1885736 H 514.89024 V 516.42957 H -13.466093 z"
     inkscape:connector-curvature="0" />
  <path
     transform="matrix(0.92592215,0,0,1,-12.92858,0)"
     sodipodi:end="6.1122693"
     sodipodi:start="6.11213"
     d="m 101.95774,-78.577314 a 39.244427,23.688076 0 0 1 9.3e-4,0.0033 l -38.672613,4.028989 z"
     sodipodi:ry="23.688076"
     sodipodi:rx="39.244427"
     sodipodi:cy="-74.545074"
     sodipodi:cx="63.286057"
     id="path4121"
     style="fill:#333333;fill-opacity:1;fill-rule:nonzero;stroke:none"
     sodipodi:type="arc" />
  <path
     transform="matrix(0.92592215,0,0,1,-12.92858,0)"
     sodipodi:end="6.1122693"
     sodipodi:start="6.11213"
     d="m 76.035958,-54.360671 a 10.606602,11.755651 0 0 1 2.51e-4,0.0016 l -10.452057,1.999461 z"
     sodipodi:ry="11.755651"
     sodipodi:rx="10.606602"
     sodipodi:cy="-52.359596"
     sodipodi:cx="65.584152"
     id="path4123"
     style="fill:#333333;fill-opacity:1;fill-rule:nonzero;stroke:none"
     sodipodi:type="arc" />
  <path
     transform="matrix(0.92592215,0,0,1,-12.92858,0)"
     sodipodi:end="6.1122693"
     sodipodi:start="6.11213"
     d="m 69.424272,-57.251206 a 15.46796,16.793785 0 0 1 3.67e-4,0.0023 l -15.242583,2.856372 z"
     sodipodi:ry="16.793785"
     sodipodi:rx="15.46796"
     sodipodi:cy="-54.392529"
     sodipodi:cx="54.182056"
     id="path4125"
     style="fill:#333333;fill-opacity:1;fill-rule:nonzero;stroke:none"
     sodipodi:type="arc" />
  <g
     id="g4486"
     transform="matrix(1.2600587,0,0,1.149166,-56.339925,-21.058494)">
    <path
       style="fill:#9a938b"
       d="M 409.65407,439.62415 C 319.95162,357.13984 238.52789,266.26758 151.61439,180.96046 c -6.7317,-11.99886 -19.81359,-11.8845 -17.33462,4.40873 -6.64658,17.12795 9.76122,32.50458 16.64374,41.81635 -5.10704,19.17112 -30.52885,38.9333 -48.1566,22.11128 -22.074046,-20.25047 -23.339221,-53.9364 -18.627803,-81.59322 1.346432,-8.86171 5.46791,-23.8007 7.938035,-6.49181 12.480248,18.6195 36.330008,-2.71751 29.413508,-20.20536 -2.93666,-16.50658 19.14414,-20.10865 14.31738,-38.84318 3.82263,-14.670788 -11.75529,-24.618025 -16.79592,-31.212234 4.35059,-20.887444 32.44133,-41.179608 50.09878,-21.89664 21.55296,21.601305 21.61457,55.935094 15.60238,83.912244 -4.44156,19.73957 -7.15212,-22.10856 -23.00088,-8.65046 -24.12821,12.537 -2.74133,33.63272 11.03256,43.7633 84.01691,87.8951 172.22093,171.76264 254.11321,261.69211 7.02195,14.17977 -9.32784,27.39378 -17.20409,9.85258 z m -33.04345,-47.94852 c -3.13234,-1.28815 0.45049,2.03278 0,0 z M 365.51661,379.7693 c -1.22441,-3.64397 -0.58611,3.43131 0,0 z m -9.94861,-9.24039 c -2.59883,-2.39109 -0.51007,3.47407 0,0 z m -10.99584,-10.09294 c -1.22436,-3.64396 -0.58613,3.43129 0,0 z M 117.04911,219.67377 c 3.38813,-12.2541 -7.37956,1.78913 0,0 z M 105.02008,202.8693 c -3.47085,-6.94069 -3.01971,6.46781 0,0 z m 14.21251,-12.09564 c 0.58998,-11.51569 -5.04339,4.85718 0,0 z m 33.59533,-88.56414 c -1.2249,-11.322103 -3.0317,9.14718 0,0 z m 13.19286,-12.923553 c -1.12926,-9.541153 -2.10728,7.660463 0,0 z M 153.8816,76.552182 c -1.59146,-8.624952 -1.57066,7.355363 0,0 z"
       id="path4498"
       inkscape:connector-curvature="0" />
    <path
       style="fill:#8a837b"
       d="M 414.13648,443.20776 C 318.18815,355.59868 232.29709,257.83662 138.45804,168.06987 c -7.62947,15.53161 -5.36495,41.38008 0.41618,50.07405 -3.12101,-6.50046 -5.2795,-6.36294 -2.23079,0.72949 -9.63404,0.34334 6.18009,12.16125 -3.9227,17.56767 -3.08238,20.24069 -27.1875,23.09358 -36.217637,5.52202 -18.203226,-25.7121 -16.713042,-60.53741 -8.240359,-89.5104 -0.37552,3.0301 13.282356,26.53761 25.691366,13.54805 15.12835,-11.88682 0.0218,-36.84818 18.28303,-43.93713 6.67338,-16.4216 6.88325,-43.443862 -14.08313,-49.042151 4.32219,-20.899235 32.81384,-42.879124 50.92448,-23.528896 15.61114,15.939026 19.40922,39.534006 18.46683,60.995657 -10.80069,-6.68652 1.05078,41.13142 -10.30256,20.76241 -6.82108,-27.64555 -39.73691,5.3201 -22.12266,20.07675 16.8432,18.69228 36.06932,35.26221 53.09456,53.9386 67.93048,69.57527 137.18082,137.88158 203.73527,208.77683 11.13923,4.89478 24.11227,32.00369 7.37274,33.77576 l -2.41963,-1.74985 -2.76655,-2.86097 0,0 z m -36.57682,-51.35513 c -3.1765,-6.2233 -2.70194,5.86301 0,0 z m -8.37777,-0.48333 c -1.2098,-3.58285 -1.2098,3.58285 0,0 z m 5.23611,-10.47222 c -1.56272,-8.78607 -3.36049,5.82254 0,0 z m -8.22606,-1.12778 c -0.74588,-6.59502 0.77948,5.2983 0,0 z m -10.10033,-8.76723 c -2.69863,-5.76058 -1.75289,5.5169 0,0 z m 7.65818,-2.38133 c -5.96023,-4.7867 1.5106,7.13358 0,0 z m -15.51235,1.48189 c -1.59772,-4.84116 -1.3185,3.32254 0,0 z m -3.27232,-9.90833 c -2.55617,-5.81098 -2.02311,4.67616 0,0 z m 7.72302,-1.69167 c -2.85916,-5.8873 -1.95907,5.52413 0,0 z m -15.34835,0.30633 c -3.13242,-1.2882 0.45047,2.03279 0,0 z m -2.31271,-10.7579 c -1.49726,-6.36105 -3.34032,4.93581 0,0 z m 7.35615,-0.42343 c -1.4498,-6.05423 -3.344,1.7313 -0.58082,1.64009 l 0.58082,-1.64009 z m -122.95412,-118.223 c 0.48339,-10.75401 -11.79347,0.90103 -8.77014,-13.28411 -9.88975,-14.91118 -23.28784,-31.28963 -38.88688,-39.06974 -7.40875,6.25637 6.40686,21.63567 6.32286,5.71738 2.54892,18.2675 17.1645,30.29257 30.52389,41.76979 3.28998,2.22095 6.94215,3.93798 10.81027,4.86668 z m -29.42304,-26.32376 c -10.57857,-13.04931 11.77185,-10.06443 0,0 z m 1.57197,-4.80324 c -3.09245,-5.78525 -0.59272,5.60006 0,0 z m 2.95801,1.62736 c -1.36975,-5.30594 2.05441,3.18434 0,0 z m -9.14166,-0.8453 c 0.28972,-3.85869 1.62384,1.73373 0,0 z m -3.12563,-5.85706 c -0.92591,-5.69802 1.83585,-4.50129 0.55264,0.0256 l -0.55264,-0.0256 z m -49.7591,32.86667 c -1.59771,-4.84119 -1.31851,3.32253 0,0 z m 81.68334,-4.42088 c -2.63073,-4.08865 -0.95609,4.64953 0,0 z m -96.64365,-0.96484 c 5.49856,-13.05553 -10.28918,-1.22648 0,0 z m 14.53488,-3.00795 c -3.13234,-1.28815 0.45049,2.03278 0,0 z m 2.51988,-2.78005 c -1.70487,-3.20518 -0.28414,5.78554 0,0 z m -1.05524,-3.625 c -3.29989,0.0825 1.93575,6.70963 0,0 z m 1.05524,-3.56795 c -1.20982,-3.5828 -1.20976,3.58283 0,0 z m -29.27242,-3.49413 c 1.54018,-10.30514 -7.859754,4.47208 0,0 z m 75.80104,-8.00238 c -0.71735,-4.15404 -5.0852,1.6727 0,0 z m -47.92953,-6.87015 c 1.58228,-16.781 -2.30193,12.0591 0,0 z m -13.76192,1.8578 c 2.11446,-14.0779 -7.23273,4.59112 0,0 z m 50.24477,-13.86207 c 1.16879,-7.06108 -4.66014,0.54519 0,0 z m -4.05164,-3.22975 c 9.08567,-12.30746 -21.17216,-10.39248 -3.93543,-1.30465 -4.93831,3.13801 3.48404,4.82958 3.93543,1.30465 z m -2.7553,-3.98657 c 1.8235,-5.33175 2.63341,3.52294 0,0 z m -1.04722,-1.94266 c 0.94057,-5.96644 3.31297,2.30158 0,0 z m -4.28926,4.79244 c -2.84559,-4.70983 1.7898,5.82087 0,0 z m 2.71842,-0.0625 c 0.68216,-3.58718 -3.64912,4.86147 0,0 z m -6.80694,-3.86666 c -1.22438,-3.64397 -0.58613,3.43129 0,0 z m 7.85417,-5.31667 c -1.21296,-4.76359 -1.40541,5.01172 0,0 z m -6.80695,-1.45 c -1.20979,-3.58283 -1.20979,3.58283 0,0 z m 3.48455,-3.52933 c -6.58371,-4.4439 7.45031,10.61414 0,0 z m -10.29149,-5.62552 c -4.19238,-5.08151 0.0647,5.69509 0,0 z m 4.28706,-0.20549 c -3.13242,-1.2882 0.45047,2.03279 0,0 z m -26.50313,-17.15394 c 4.09016,-10.21123 -7.11716,-2.87204 0,0 z m 27.34746,-30.71239 c 5.19232,-13.471749 -9.026,-1.20714 0,0 z m 13.4568,-15.756663 c -4.70462,-11.4812 -0.98759,10.423559 0,0 z m -12.04305,-13.05 c -1.98867,-9.539119 -1.87981,10.814655 0,0 z M 126.74994,249.32635 c 0.28973,-3.85869 1.62384,1.73376 0,0 z m 9.94861,-15.52372 c 1.20983,-3.58282 1.20978,3.58284 0,0 z m -2.74896,-1.60687 c 2.69781,-2.05196 0.667,2.11376 0,0 z m 7.57545,-3.37581 c 2.24139,-6.88528 1.77241,3.94349 0,0 z m 3.96055,-2.91734 c -5.12163,-7.09025 9.32362,-3.23556 0,0 z m -7.38287,-1.4299 c -2.80622,-5.88998 4.10806,-1.84946 0,0 z m 48.38023,-106.10619 c 0.28317,-4.84119 0.5648,3.20581 0,0 z m 0.56494,-4.43055 c 0.46284,-4.34158 0.46287,4.34154 0,0 z"
       id="path4496"
       inkscape:connector-curvature="0" />
    <path
       style="fill:#837060"
       d="M 411.33258,440.33797 C 316.14969,353.87208 231.78524,256.47762 138.49569,168.06959 c -1.51083,7.26903 -5.14388,16.07662 -2.65284,3.46272 -2.99791,-21.89561 -24.21213,-5.66219 -28.37419,3.22216 8.58886,-11.34813 18.96828,-26.61459 14.60618,-43.82407 18.33429,-6.05843 16.21609,-33.905751 10.16303,-48.168976 -26.03508,-8.819641 -3.09619,-36.498553 14.80037,-39.77437 20.69821,-4.468977 35.77346,20.160353 32.80915,36.455298 -3.31134,5.769817 -3.82152,-22.867121 -14.41982,-8.817543 -10.07704,5.804736 4.09435,20.021643 -7.8891,16.740231 -11.93915,11.447206 -25.26114,28.48235 -14.56789,45.74041 7.71869,10.16178 15.81325,-18.90804 24.26576,-11.81167 -26.6164,5.24621 -17.09833,37.5338 2.58015,44.81417 83.04198,85.84911 168.4602,169.50472 250.14749,256.57757 13.3247,8.97869 7.0081,39.00866 -8.6314,17.65245 z m -33.77292,-48.48534 c -3.1765,-6.2233 -2.70194,5.86301 0,0 z m -8.37777,-0.48333 c -1.2098,-3.58285 -1.2098,3.58285 0,0 z m 5.23611,-11.11667 c -3.82573,-8.31928 -1.73433,7.85452 0,0 z m -7.95782,-0.29721 c -2.89605,-6.96533 -2.51306,5.6849 0,0 z m -10.36857,-8.88612 c -2.49188,-6.43939 -2.25139,5.61129 0,0 z m 7.75968,-1.20833 c -3.47299,-7.45872 -1.92562,6.56605 0,0 z m -15.61385,0.24166 c -1.55999,-4.07235 -1.37423,3.47021 0,0 z m -3.00321,-8.31117 c 1.78608,-6.88934 -5.12623,-0.16468 0,0 z m -7.46901,-2.32216 c -1.59771,-4.84119 -1.31852,3.32253 0,0 z m 15.18472,-0.88611 c -2.60927,-8.96977 -2.37301,6.84058 0,0 z M 335.14716,347.8693 c -2.9623,-6.29504 -1.656,6.03658 0,0 z m 7.55351,0.32169 c 0.21519,-9.07125 -5.05769,4.49027 0,0 z M 219.42911,228.44455 c -10.45239,-20.92926 -28.49061,-36.40096 -44.5827,-52.85293 -7.72711,-1.02655 -10.4718,10.89201 -6.82331,-4.1158 -0.28201,-13.22078 -34.5085,-34.89415 -22.99776,-9.94366 14.11576,16.30689 31.36085,29.46463 45.33784,45.96562 8.05129,8.67637 16.54031,19.35799 29.06593,20.94677 z m -8.00389,-2.97388 c -1.77278,-15.46716 9.22742,3.62869 0,0 z m -22.54009,-23.24582 c -0.2017,-13.92842 8.09932,4.43811 0,0 z M 144.7837,157.00721 c -3.90928,-14.74845 11.32698,1.60497 0,0 z m 3.17249,-3.45115 c -2.91479,-6.07144 -1.70774,5.66669 0,0 z m -3.92708,-4.49787 c 1.76277,-8.05534 0.74644,5.15335 0,0 z m 25.55726,26.98611 c -3.09246,-5.78547 -0.59271,5.60016 0,0 z m -31.20416,-22.45427 c 7.80271,-12.06997 -2.02206,-3.67388 -8.52558,-6.96884 0.48472,1.53199 8.77051,10.52048 8.52558,6.96884 z m -1.11871,-0.31945 c -5.97406,-4.05743 0.91804,-3.45754 0,0 z m -4.75384,-7.43461 c -1.22436,-3.64396 -0.58613,3.43129 0,0 z m -6.28333,-5.85706 c -1.69835,-1.78019 -0.22013,3.86267 0,0 z m 4.4322,-5.50128 c -7.34779,-0.816 0.67185,10.29241 0,0 z m -4.49664,0.11675 c 0.15371,-13.79441 -6.59455,6.48658 0,0 z m 25.19777,-49.658413 c -1.20979,-3.582826 -1.20979,3.582826 0,0 z m 3.79569,-3.647129 c -3.27381,0.506372 0.92591,8.287821 0,0 z m 2.16115,0.869375 c -3.69105,0.670364 0.44054,5.758281 0,0 z m -2.97127,-3.286448 c 4.50819,-11.806044 -6.47729,-4.246013 -2.76808,1.662313 l 2.76808,-1.662313 z m 21.43715,-18.585798 c -3.60084,-5.02494 0.67406,4.908942 0,0 z M 108.90115,253.08653 C 81.65542,234.37249 79.183105,197.03956 84.623645,167.26785 c -1.732418,-9.43045 9.171057,-19.68827 6.943632,-4.45553 14.588663,9.35419 9.400313,22.26314 9.862473,38.14119 -11.750913,14.19033 -7.002638,30.9632 7.67403,42.18206 3.65125,4.15465 12.17832,11.11932 -0.20263,9.95096 z M 93.238831,216.45969 c -0.253126,-5.76125 -2.109884,3.56036 0,0 z m 7.952339,-21.98406 c -3.132581,-1.28816 0.45053,2.03281 0,0 z M 89.573553,170.4396 c -1.743977,-3.38594 -1.181474,3.95226 0,0 z m -0.207263,-5.0085 c -1.247663,1.57444 1.084585,2.96092 0,0 z m 28.62407,84.22084 c 2.01178,-1.63492 0.61719,1.91492 0,0 z m -0.14181,-28.84225 c -0.32911,-3.65297 2.33531,1.32313 0,0 z m -4.7125,-5.31667 c 0.0934,-9.22663 1.50081,2.90691 0,0 z m 23.3007,-1.99039 c -4.03729,-8.47518 4.20742,4.62584 0,0 z m -33.1075,-4.45069 c 2.01183,-1.63497 0.61717,1.91495 0,0 z m 2.21444,-0.38264 c -5.16011,-6.60739 6.60235,-7.43517 0,0 z m -3.93703,-2.43879 c -0.42808,-4.15066 2.57443,5.56071 0,0 z m 17.15821,-13.058 1.89059,-3.00607 -1.89059,3.00607 z m -15.19469,-15.10395 c 2.91351,-2.31043 1.17236,2.11663 0,0 z m 30.52636,-1.78259 c -2.04303,-7.88787 2.81843,-2.08125 0,0 z m 44.27164,-44.61058 c -1.56822,-6.60682 2.35492,2.98417 0,0 z m -12.3474,-27.40609 c -3.87449,-11.74193 9.05752,-15.515486 2.00264,-1.74497 0.36453,0.18395 -1.22308,3.31459 -2.00264,1.74497 z m 2.9344,-13.271528 c -1.24763,1.574425 1.08452,2.960942 0,0 z m -15.50107,11.855538 c 1.25237,-5.701971 2.39666,3.07951 0,0 z m -0.65177,-5.83401 c 0.3208,-8.50258 1.12761,8.60764 0,0 z m -3.01351,0.483334 c 1.85031,-4.138103 1.94237,2.823886 0,0 z M 162.87911,92.6693 c 0.61714,-3.422717 1.20133,3.619337 0,0 z m 3.95464,-2.18731 c -3.34911,-7.455911 2.84008,-2.95878 0,0 z m 2.37003,-3.048801 c 0.28317,-4.841187 0.5648,3.205821 0,0 z"
       id="path4494"
       inkscape:connector-curvature="0" />
    <path
       style="fill:#726e66"
       d="M 414.21244,442.98931 C 366.75351,398.69464 320.39261,353.25926 275.59006,306.26767 230.96114,260.12008 186.63647,213.63454 140.07622,169.41227 c -5.71035,5.72139 -5.4158,15.15081 -4.21888,2.11614 -1.44171,-17.81376 -21.52033,-11.14984 -23.63445,-1.0831 -13.670353,12.80924 9.41719,-14.25929 10.06519,-21.27485 5.37034,-6.94124 -6.11868,-26.54018 2.24233,-11.76093 9.17493,0.9791 1.41277,-0.32441 3.04326,-3.802 7.7115,-16.12641 13.99256,-36.755162 3.22197,-52.973938 -7.4602,-6.505612 -18.86433,-2.827347 -9.09083,-15.502779 7.46234,-18.75309 34.8864,-33.210847 48.88773,-12.820232 8.41348,7.466494 12.17236,22.403441 7.44426,28.684297 2.50524,-17.796823 -17.54772,-15.392392 -16.86877,0.265133 7.47686,9.881066 -8.9171,2.794924 -10.41787,14.683844 -12.90932,6.106125 -16.93967,39.496135 -2.85021,39.405045 4.29689,-9.59632 30.27819,-21.22953 8.2948,-8.42221 -17.962,16.89667 8.05346,34.31263 19.48935,45.64646 53.28467,54.81462 107.22348,108.99086 160.1667,164.13468 16.44448,14.02276 30.27573,30.85138 45.59428,46.01579 15.04878,16.62198 31.76622,31.73753 45.67582,49.38003 3.4013,8.77677 -5.30726,25.01715 -12.90846,10.88566 z m -45.5978,-47.06021 c -0.89761,-4.26702 -2.97676,-0.4685 0,0 z m 9.29279,-4.97815 c -5.20089,-5.0837 0.38758,7.22872 0,0 z m -8.46374,0.41835 c -2.69837,-4.25215 -0.77108,3.51909 0,0 z m 10.99584,-0.96667 c -1.22441,-3.64392 -0.58609,3.43131 0,0 z m -3.92709,-2.69429 c -1.97868,-4.28172 -1.8432,2.58894 0,0 z m -19.71653,-4.5974 c -2.06571,-3.53104 1.22882,5.16331 0,0 z m 18.3784,-3.06777 c -4.4073,-9.48837 -3.03206,9.62474 0,0 z m -8.44943,-0.20796 c -3.68091,-8.85457 -2.72071,7.25227 0,0 z m -7.75341,0.90076 c -2.69834,-4.25215 -0.77111,3.51907 0,0 z M 346.143,372.5193 c -2.3083,-5.61867 0.5629,4.96386 0,0 z m 10.47222,-1.34658 c -3.21594,-10.70883 -4.71238,8.28336 0,0 z m 7.71884,-1.28197 c -1.85635,-10.77312 -5.45571,7.18446 0,0 z m -15.57301,0.31531 c -1.45437,-5.23465 -3.04471,3.33883 0,0 z m -12.63956,-7.75355 c -4.58519,-5.65055 2.21818,5.32825 0,0 z m 9.4979,-1.9514 c -2.93858,-9.47384 -3.49486,5.8813 0,0 z m -8.0125,-1.73839 c -4.02831,-3.54714 2.17854,6.5332 0,0 z m 15.65722,-0.50175 c -1.50686,-7.73575 -3.79452,3.42351 -0.80638,2.45432 l 0.80638,-2.45432 z m -9.73917,-4.91345 c -3.32705,-8.86779 -5.5094,2.05356 0,0 z m 4.39503,-0.24233 c -0.87096,-3.95473 -1.58363,6.19798 0,0 z m -12.24919,-4.91313 c -0.77899,-12.18818 -6.28271,5.68305 0,0 z m 7.33055,-0.71067 c -3.04779,-11.21829 -4.92183,8.20249 0,0 z m -5.70537,-0.86508 c -3.69775,-1.61679 1.99314,4.24954 0,0 z m -22.56963,-24.73427 c -1.2165,-5.87241 -2.40585,2.77497 0,0 z m -10.05887,-9.19858 c -2.60573,-3.82994 1.05954,4.58782 0,0 z M 299.018,307.2693 c -6.85459,-5.72098 1.16553,3.63772 0,0 z m -4.71778,-4.93736 c -6.86566,-3.59539 2.86704,3.66557 0,0 z m -3.42902,-3.24857 c -3.07861,-7.93177 -4.91763,0.87743 0,0 z m -70.91848,-70.14234 c -15.48206,-29.94574 -43.54448,-50.22684 -65.27594,-75.27767 -12.2726,-16.66726 -18.1515,6.99737 -4.81587,13.59154 18.37962,20.07451 39.59834,37.15433 57.46283,57.60474 3.30945,3.08693 7.99442,5.7251 12.62898,4.08139 z m -8.7003,-4.26527 c -2.04779,-12.13462 8.93471,5.93773 0,0 z m -22.36729,-22.45091 c -5.74096,-11.75626 8.47426,-0.25807 0,0 z m -21.39982,-21.27982 c -5.47902,-10.78117 8.78826,-7.01585 0,0 z m -22.53988,-23.58649 c -2.63033,-12.36528 9.54694,1.91919 0,0 z m -4.31979,-0.88924 c 0.61713,-3.42272 1.20132,3.61935 0,0 z m -21.72986,4.35 c 1.37576,-5.01067 -2.79119,5.60782 0,0 z m 19.47264,-7.66367 c 3.00791,-8.94538 4.40568,-8.38075 -2.89342,-5.1716 -14.34263,-8.97264 3.66597,12.27573 2.89342,5.1716 z m -1.10492,0.11495 c -5.97406,-4.05743 0.91804,-3.45754 0,0 z m 2.57672,-2.71538 c -2.10029,-1.87576 0.255,5.84802 0,0 z m -7.33056,-4.71923 c -1.22436,-3.64396 -0.58613,3.43129 0,0 z m 6.28334,-0.96667 c -2.50065,-4.56559 -2.65724,4.52731 0,0 z m 12.56666,-59.933333 c -1.20979,-3.582826 -1.20979,3.582826 0,0 z m 3.79569,-3.647129 c -3.27381,0.506372 0.92591,8.287821 0,0 z m 2.16115,0.869375 c -3.69105,0.670364 0.44054,5.758281 0,0 z m -2.97127,-3.286448 c 4.50819,-11.806044 -6.47729,-4.246013 -2.76808,1.662313 l 2.76808,-1.662313 z m 21.43715,-18.585798 c -3.60084,-5.02494 0.67406,4.908942 0,0 z M 108.90115,253.08653 C 81.65542,234.37249 79.183105,197.03956 84.623645,167.26785 c -1.732418,-9.43045 9.171057,-19.68827 6.943632,-4.45553 14.588663,9.35419 9.400313,22.26314 9.862473,38.14119 -11.750913,14.19033 -7.002638,30.9632 7.67403,42.18206 3.65125,4.15465 12.17832,11.11932 -0.20263,9.95096 z M 93.238831,216.45969 c -0.253126,-5.76125 -2.109884,3.56036 0,0 z m 7.952339,-21.98406 c -3.132581,-1.28816 0.45053,2.03281 0,0 z M 89.573553,170.4396 c -1.743977,-3.38594 -1.181474,3.95226 0,0 z m -0.207263,-5.0085 c -1.247663,1.57444 1.084585,2.96092 0,0 z m 28.62407,84.22084 c 2.01178,-1.63492 0.61719,1.91492 0,0 z m -0.14181,-28.84225 c -0.32911,-3.65297 2.33531,1.32313 0,0 z m -4.7125,-5.31667 c 0.0934,-9.22663 1.50081,2.90691 0,0 z m 23.3007,-1.99039 c -4.03729,-8.47518 4.20742,4.62584 0,0 z m -33.1075,-4.45069 c 2.01183,-1.63497 0.61717,1.91495 0,0 z m 2.21444,-0.38264 c -5.16011,-6.60739 6.60235,-7.43517 0,0 z m -3.93703,-2.43879 c -0.42808,-4.15066 2.57443,5.56071 0,0 z m 17.15821,-13.058 1.89059,-3.00607 -1.89059,3.00607 z m -15.19469,-15.10395 c 2.91351,-2.31043 1.17236,2.11663 0,0 z m 30.52636,-1.78259 c -2.04303,-7.88787 2.81843,-2.08125 0,0 z m 10.59799,-43.6007 c 2.83918,-1.91539 0.73092,2.00463 0,0 z m 33.67365,-1.00988 c -1.56822,-6.60682 2.35492,2.98417 0,0 z m -12.3474,-27.40609 c -3.87449,-11.74193 9.05752,-15.515486 2.00264,-1.74497 0.36453,0.18395 -1.22308,3.31459 -2.00264,1.74497 z m 2.9344,-13.271528 c -1.24763,1.574425 1.08452,2.960942 0,0 z m -15.50107,11.855538 c 1.25237,-5.701971 2.39666,3.07951 0,0 z m -0.65177,-5.83401 c 0.3208,-8.50258 1.12761,8.60764 0,0 z m -3.01351,0.483334 c 1.85031,-4.138103 1.94237,2.823886 0,0 z M 162.87911,92.6693 c 0.61714,-3.422717 1.20133,3.619337 0,0 z m 3.95464,-2.18731 c -3.34911,-7.455911 2.84008,-2.95878 0,0 z m 2.37003,-3.048801 c 0.28317,-4.841187 0.5648,3.205821 0,0 z"
       id="path4492"
       inkscape:connector-curvature="0" />
    <path
       style="fill:#714a30"
       d="M 416.56408,444.94113 C 379.528,410.16488 342.66703,375.23566 307.57307,338.49085 250.94369,282.19488 197.42418,222.76049 138.93531,168.32326 c -13.43063,0.71015 -21.66354,-35.86506 -4.82088,-15.1926 10.01175,5.23049 6.59976,-25.94207 16.77579,-7.30981 39.3702,43.90708 82.42838,84.30919 122.88584,127.18667 29.4211,29.57429 58.23628,59.71924 87.83199,89.10747 21.55717,22.81842 43.73852,45.06958 64.78694,68.37761 4.09284,5.53928 -1.94423,26.68626 -9.83091,14.44853 z m -48.82212,-50.51072 c -4.23769,-5.36162 2.08704,5.74121 0,0 z m 10.24683,-2.33611 c -3.16818,-8.84947 -3.38112,7.17248 0,0 z m -8.5451,-0.725 c -2.69837,-4.25215 -0.77108,3.51909 0,0 z m 10.99584,-0.96667 c -1.22441,-3.64392 -0.58609,3.43131 0,0 z m -3.92709,-2.69429 c -1.97868,-4.28172 -1.8432,2.58894 0,0 z m -19.8333,-4.72487 c -2.37459,-3.96157 2.49499,9.67503 0,0 z m 18.49517,-2.9403 c -4.4073,-9.48837 -3.03206,9.62474 0,0 z m -8.44943,-0.20796 c -4.09457,-9.88444 -2.78684,8.51044 0,0 z m -7.75341,0.90076 c -2.69834,-4.25215 -0.77111,3.51907 0,0 z M 347.6702,374.684 c -0.98394,-8.75501 -4.83105,0.16647 0,0 z m 8.94502,-3.51128 c -3.21594,-10.70883 -4.71238,8.28336 0,0 z m 7.72661,-0.82842 c -2.15995,-12.74351 -4.63703,8.35394 0,0 z m -15.58078,-0.13824 c -1.45437,-5.23465 -3.04471,3.33883 0,0 z M 336.718,362.5625 c -7.00611,-4.41875 4.14566,5.1195 0,0 z m 8.90139,-2.06139 c -2.93858,-9.47384 -3.49486,5.8813 0,0 z m -8.0125,-1.73839 c -4.02831,-3.54714 2.17854,6.5332 0,0 z m 15.65722,-0.50175 c -1.50686,-7.73575 -3.79452,3.42351 -0.80638,2.45432 l 0.80638,-2.45432 z m -9.73917,-4.91345 c -3.32705,-8.86779 -5.5094,2.05356 0,0 z m 4.39503,-0.24233 c -0.87096,-3.95473 -1.58363,6.19798 0,0 z m -12.24919,-4.91313 c -0.7733,-12.29886 -6.2332,5.8652 0,0 z m 7.33055,-0.71067 c -3.04779,-11.21829 -4.92183,8.20249 0,0 z m -5.70537,-0.86508 c -3.69775,-1.61679 1.99314,4.24954 0,0 z m -22.56963,-24.73427 c -1.2165,-5.87241 -2.40585,2.77497 0,0 z m -10.05887,-9.19858 c -2.60573,-3.82994 1.05954,4.58782 0,0 z M 299.018,307.2693 c -6.85459,-5.72098 1.16553,3.63772 0,0 z m -4.71778,-4.93736 c -6.86566,-3.59539 2.86704,3.66557 0,0 z m -3.42902,-3.24857 c -3.07861,-7.93177 -4.91763,0.87743 0,0 z m -71.48349,-69.07971 c -8.17899,-24.11898 -30.84824,-38.7839 -46.81691,-57.43052 -8.01316,-7.1697 -21.4673,-29.89005 -30.86645,-21.95905 1.8917,22.58557 29.49703,31.39343 40.90681,49.36396 11.00073,11.27933 21.47216,24.49659 36.77655,30.02561 z m -7.9873,-4.57881 c -4.95396,-8.69962 7.83308,2.9322 0,0 z M 189.0652,201.43161 c -4.53763,-9.20545 6.23462,4.42371 0,0 z m -22.52453,-22.74178 c -3.9004,-12.45824 8.53642,5.50926 0,0 z M 144.9018,156.79152 c -4.50981,-8.10958 9.15806,0.54385 0,0 z m -53.784944,70.48611 c -7.861571,-11.83781 -7.962741,-43.0102 -5.909079,-45.24371 -1.851332,13.07113 8.120923,44.34712 5.909079,45.24371 z M 85.384664,185.4693 c -1.209795,-3.58283 -1.209795,3.58283 0,0 z m -2.011769,18.36667 c 0.462832,-4.34158 0.462856,4.34154 0,0 z m 2.587574,-33.05128 c 0.709932,-13.46113 1.076621,7.07458 0,0 z m 1.036366,-8.27372 c 1.47695,-2.97826 1.029618,5.64823 0,0 z m 1.175227,-8.28825 c 5.193684,-10.40059 -2.89839,13.15263 0,0 z m 34.286478,-15.39509 c -6.89923,-8.53391 2.4915,-15.02808 0,0 z m 15.27284,-3.37497 c -16.4174,-16.39923 9.1857,2.95169 0,0 z m 12.05745,0.23331 c 2.85223,-5.57557 -1.43382,4.9368 0,0 z m 1.57083,-2.30257 c -0.34668,-5.76048 2.17274,1.64979 0,0 z m 1.75393,-2.77898 c 1.54931,-6.83921 4.44558,-1.78744 0,0 z m 4.0058,-5.626 c 3.09089,-4.43034 3.82433,-0.13028 0,0 z M 132.25076,81.075227 c -2.13104,-6.600635 3.79882,5.369347 0,0 z m -14.40221,-5.581671 c 6.10684,-3.943344 10.20239,2.335199 0,0 z m 1.85501,-4.024128 c -0.79557,-5.282235 3.41466,3.736909 0,0 z m 2.07208,-4.900128 c 3.97027,-7.30099 -2.49491,6.613783 0,0 z"
       id="path4490"
       inkscape:connector-curvature="0" />
    <path
       style="fill:#512d1c"
       d="M 420.0998,447.79629 C 386.1037,414.83365 351.07963,382.94492 318.26731,348.76621 260.67774,291.07749 205.24334,231.18348 146.22377,174.9313 c -6.48563,-6.11678 -31.92869,-23.70899 -17.87312,-28.17407 3.51579,14.41999 17.71864,1.58657 16.35657,-2.71182 -12.4661,19.73839 15.98759,29.39229 24.53543,43.12075 13.65472,13.5936 26.75809,27.9541 41.14442,40.24272 8.4549,6.46993 15.68298,21.94288 28.86216,29.82797 25.20926,17.55511 42.5142,43.35697 64.93491,63.97237 21.2743,21.36679 43.88314,41.39708 63.77631,64.02879 18.90834,10.62677 27.95428,31.94081 45.82067,43.75526 2.1545,11.86366 16.01442,14.41729 11.91874,1.61441 1.38076,5.11822 3.41079,18.7219 -5.60006,17.18861 z m -50.10259,-54.01032 c -6.87406,-6.41561 0.75081,10.93755 0,0 z m 7.30065,3.38333 c -2.54595,-7.13619 -4.89111,1.52891 0,0 z m -17.80278,-11.6 c -2.77888,-10.37253 -7.23821,2.0539 0,0 z m 0.0811,-4.30831 c -5.12379,-10.219 0.83681,7.11143 0,0 z m -4.0082,-4.87502 c -2.51799,-7.73889 -4.10231,3.39062 0,0 z m -8.24688,-2.89118 c -6.86793,-10.58052 1.9953,6.76342 0,0 z m 1.96354,-2.23216 c -0.22316,-7.10299 -5.49427,0.48561 0,0 z m -5.23611,-6.28195 c -6.21475,-10.53664 0.63822,5.76314 0,0 z m -5.34495,-1.52388 c -3.40419,-8.84379 -6.65031,3.70456 0,0 z m 0.10884,-2.8275 c -0.22316,-7.103 -5.49427,0.48562 0,0 z M 207.38605,225.61997 c -2.6454,-11.45866 -3.31937,0.42062 0,0 z m 212.20431,199.9653 c 2.83881,-1.9151 0.73085,2.00454 0,0 z m -2.97216,-3.18164 c -12.62257,-9.73173 8.72192,3.53463 0,0 z m -8.42729,-4.93433 c -1.50151,-3.67347 3.80163,3.73618 0,0 z m -2.09497,-1.93492 c -7.31374,-0.4198 0.91274,-5.27008 0,0 z m -8.63905,-5.31508 c -2.12125,-4.54103 5.84609,5.93754 0,0 z m 0.3167,-6.01004 c -7.65214,-5.82028 5.73835,-2.78245 0,0 z m -3.72018,-1.23996 c 0.74053,-3.72319 2.64625,4.34709 0,0 z m 0,-4.83333 c 0.74052,-3.7232 2.64627,4.34706 0,0 z m -10.33009,-9.64977 c -9.82332,-8.32321 10.44262,5.5061 0,0 z m -4.11075,-3.15857 c -5.95029,-6.30453 4.4392,0.0788 0,0 z m -15.53589,-1.43128 c -3.65321,-4.50313 4.28827,-0.56578 0,0 z m 8.24687,-0.16988 c 2.45298,-2.32662 1.59039,3.60991 0,0 z m 3.18301,-0.49328 c 0.28317,-4.84119 0.5648,3.20581 0,0 z m -13.89199,-9.83295 c -1.91629,-4.60674 4.71886,3.6994 0,0 z m 7.20869,-0.56585 c -9.83314,-9.07424 8.94729,4.11436 0,0 z m -11.42262,-1.76509 c -1.55433,-3.57474 5.00309,4.5521 0,0 z m 2.42006,-5.70673 c -10.57345,-8.16053 3.08603,-4.89838 0,0 z m -4.68932,-1.90688 c -0.60227,-5.1133 3.23788,3.2526 0,0 z m -2.18144,-8.81972 c -0.87285,-3.08263 2.80501,3.76074 0,0 z m 0.23098,-2.47 c -1.88388,-4.04229 4.06736,5.60306 0,0 z m -12.53584,-1.39667 c 0.76846,-3.57294 1.69476,3.94129 0,0 z m -4.74332,-12.15502 c 1.74394,-2.65087 3.36493,6.45817 0,0 z M 211.67966,224.9093 c -4.67298,-7.53261 6.56259,3.62658 0,0 z m -22.22729,-23.0841 c -7.39953,-8.22532 6.41764,2.15056 0,0 z m -22.27965,-22.34923 c -4.77333,-7.75951 6.49749,2.01727 0,0 z m 3.03694,-11.40667 c 0.61715,-3.42272 1.20132,3.61936 0,0 z m -3.65711,-2.95548 c -3.72621,-6.15772 7.6701,7.71318 0,0 z m -4.72066,-4.94036 c -6.38051,-4.16155 -15.8651,-18.94119 -4.50439,-5.96036 0.30562,0.75191 11.38972,10.73087 4.50439,5.96036 z m -17.03409,-4.76813 c -1.89904,-9.02385 5.14651,7.37772 0,0 z m -55.573321,-2.00685 c 0.323304,-7.92137 0.774766,7.67152 0,0 z m 34.121991,-15.43159 c -4.83113,-6.2064 -3.14745,-13.41028 0,0 z m 32.20208,-10.98092 c 2.81659,-5.52952 -1.39085,4.91188 0,0 z M 132.50966,81.552634 c -0.44919,-5.014388 2.21072,5.580013 0,0 z M 117.84855,75.2693 c 1.20981,-3.582834 1.2098,3.582834 0,0 z"
       id="path4488"
       inkscape:connector-curvature="0" />
  </g>
</svg>
