<?xml version="1.0" encoding="UTF-8" standalone="no"?>
<svg
   xmlns:dc="http://purl.org/dc/elements/1.1/"
   xmlns:cc="http://creativecommons.org/ns#"
   xmlns:rdf="http://www.w3.org/1999/02/22-rdf-syntax-ns#"
   xmlns:svg="http://www.w3.org/2000/svg"
   xmlns="http://www.w3.org/2000/svg"
   xmlns:sodipodi="http://sodipodi.sourceforge.net/DTD/sodipodi-0.dtd"
   xmlns:inkscape="http://www.inkscape.org/namespaces/inkscape"
   sodipodi:docname="arcane boots.svg"
   height="100%"
   width="100%"
   inkscape:version="0.48.4 r9939"
   version="1.1"
   id="svg8438"
   viewBox="0 0 512 512">
  <metadata
     id="metadata8464">
    <rdf:RDF>
      <cc:Work
         rdf:about="">
        <dc:format>image/svg+xml</dc:format>
        <dc:type
           rdf:resource="http://purl.org/dc/dcmitype/StillImage" />
        <dc:title></dc:title>
      </cc:Work>
    </rdf:RDF>
  </metadata>
  <defs
     id="defs8462">
    <linearGradient
       id="linearGradient4077">
      <stop
         id="stop4079"
         offset="0"
         style="stop-color:#aa4400;stop-opacity:1;" />
      <stop
         style="stop-color:#ff9f00;stop-opacity:1;"
         offset="0.22752622"
         id="stop4081" />
      <stop
         style="stop-color:#803300;stop-opacity:1;"
         offset="0.4948855"
         id="stop4083" />
      <stop
         id="stop4085"
         offset="1"
         style="stop-color:#562200;stop-opacity:1;" />
    </linearGradient>
    <linearGradient
       id="linearGradient4057">
      <stop
         style="stop-color:#aa4400;stop-opacity:1;"
         offset="0"
         id="stop4059" />
      <stop
         id="stop4067"
         offset="0.22752622"
         style="stop-color:#ecd1a4;stop-opacity:1;" />
      <stop
         id="stop4065"
         offset="0.50136983"
         style="stop-color:#803300;stop-opacity:1;" />
      <stop
         style="stop-color:#562200;stop-opacity:1;"
         offset="1"
         id="stop4061" />
    </linearGradient>
    <linearGradient
       id="linearGradient3890">
      <stop
         style="stop-color:#701b1b;stop-opacity:1;"
         offset="0"
         id="stop3892" />
      <stop
         style="stop-color:#e31600;stop-opacity:1;"
         offset="1"
         id="stop3894" />
    </linearGradient>
    <linearGradient
       id="linearGradient3882">
      <stop
         style="stop-color:#600b0b;stop-opacity:1;"
         offset="0"
         id="stop3884" />
      <stop
         style="stop-color:#d11414;stop-opacity:1;"
         offset="1"
         id="stop3886" />
    </linearGradient>
    <linearGradient
       id="linearGradient3872">
      <stop
         style="stop-color:#800600;stop-opacity:1;"
         offset="0"
         id="stop3874" />
      <stop
         style="stop-color:#ff0004;stop-opacity:0;"
         offset="1"
         id="stop3876" />
    </linearGradient>
    <filter
       id="filter4074"
       inkscape:label="Black Light"
       inkscape:menu="Color"
       inkscape:menu-tooltip="Light areas turn to black"
       x="0"
       width="1"
       y="0"
       height="1"
       color-interpolation-filters="sRGB">
      <feColorMatrix
         id="feColorMatrix4076"
         type="luminanceToAlpha"
         result="result2" />
      <feComposite
         in2="SourceGraphic"
         id="feComposite4078"
         operator="arithmetic"
         in="result2"
         k3="2"
         result="result4" />
      <feBlend
         in2="result2"
         id="feBlend4080"
         in="result4"
         mode="multiply"
         result="result3" />
      <feComposite
         in2="SourceGraphic"
         id="feComposite4082"
         operator="in"
         in="result3" />
    </filter>
  </defs>
  <sodipodi:namedview
     pagecolor="#000000"
     bordercolor="#666666"
     borderopacity="1"
     objecttolerance="10"
     gridtolerance="10"
     guidetolerance="10"
     inkscape:pageopacity="0"
     inkscape:pageshadow="2"
     inkscape:window-width="1190"
     inkscape:window-height="1126"
     id="namedview8460"
     showgrid="false"
     inkscape:zoom="0.70710678"
     inkscape:cx="197.65584"
     inkscape:cy="237.5577"
     inkscape:window-x="160"
     inkscape:window-y="130"
     inkscape:window-maximized="0"
     inkscape:current-layer="svg8438"
     showguides="true"
     inkscape:guide-bbox="true" />
  <path
     style="fill:#000000"
     id="path3978"
     d="M -13.466093,0.1885736 H 514.89024 V 516.42957 H -13.466093 z"
     inkscape:connector-curvature="0" />
  <path
     sodipodi:type="arc"
     style="opacity:0.98999999;fill:#ff0000;fill-opacity:0.74970506;fill-rule:nonzero;stroke:none"
     id="path5005"
     sodipodi:cx="640"
     sodipodi:cy="124.5"
     sodipodi:rx="105"
     sodipodi:ry="118.5"
     d="m 743.4676,104.32865 a 105,118.5 0 0 1 0.002,0.0163 L 640,124.5 z"
     sodipodi:start="6.11213"
     sodipodi:end="6.1122693" />
  <g
     id="g6448" />
  <g
     id="g6606"
     transform="translate(1.4142136,-16.970563)">
    <path
       style="fill:#8bd69f"
       d="m 212.47694,474.38533 c -12.10002,-2.85668 -24.10468,-8.88545 -34.31405,-17.23263 -13.16704,-10.76535 -22.08859,-16.18792 -26.63332,-16.18792 -5.00352,0 -29.52285,-13.22592 -34.0994,-18.39348 -5.46423,-6.16988 -4.95821,-30.8122 0.63273,-30.8122 0.92035,0 1.67336,-6.20835 1.67336,-13.79632 0,-7.58799 1.30695,-18.87218 2.90433,-25.07597 8.39814,-32.61619 11.57157,-54.60467 10.09503,-69.94795 -2.53905,-26.38438 -7.39522,-67.42008 -10.47021,-88.47558 l -2.97117,-20.34466 -5.61834,0 -5.61835,0 1.1912,-15.61334 c 0.65517,-8.58733 1.19621,-27.80655 1.20233,-42.70936 0.0106,-25.841764 0.17572,-27.042725 3.56702,-25.944482 2.84379,0.920935 3.36578,0.409729 2.60653,-2.552679 -0.83277,-3.249272 0.32666,-3.8669 9.43997,-5.028684 5.71414,-0.72845 18.69091,-0.98424 28.83728,-0.568422 l 18.44793,0.756032 0.55173,-6.687125 c 0.40281,-4.882309 1.38819,-6.622917 3.65096,-6.449219 2.06791,0.158739 2.7351,-0.730344 2.00496,-2.67176 -0.95564,-2.540983 1.06711,-2.753126 15.96362,-1.674243 26.69747,1.933571 93.47022,17.772479 101.34987,24.040818 1.02015,0.811536 4.35881,1.898493 7.41926,2.415461 11.38171,1.922589 12.05628,2.74837 12.05628,14.758553 l 0,11.15267 12.17823,0 c 6.69803,0 13.78224,0.87591 15.74273,1.94645 1.96048,1.07055 6.58831,6.8191 10.28408,12.77455 3.69576,5.95546 8.50553,12.86111 10.68837,15.3459 2.68304,3.05419 3.06743,4.23957 1.18656,3.659 -1.53022,-0.47234 -5.70355,-5.02276 -9.27407,-10.11204 -11.56957,-16.49085 -17.48787,-21.72133 -24.57772,-21.72133 -3.52029,0 -8.91307,0.89368 -11.98394,1.98595 -5.28286,1.87906 -5.64629,2.6768 -6.75256,14.8217 -1.83409,20.13534 -3.02752,24.20707 -7.73687,26.39642 -2.9491,1.37102 -4.01289,3.12618 -3.3834,5.58231 0.54889,2.14165 -0.98079,5.88525 -3.80333,9.30784 -6.69545,8.11887 -7.87921,12.7569 -7.63343,29.90824 0.23827,16.62788 5.16333,29.59571 14.68027,38.65354 2.65136,2.52345 4.82064,5.13407 4.82064,5.8014 0,0.66734 -3.54733,1.03984 -7.88295,0.82783 -5.58757,-0.27327 -8.05885,-1.28045 -8.48704,-3.45894 -0.33225,-1.69036 -1.48387,-2.51861 -2.55914,-1.84053 -1.0959,0.69106 -1.5946,0.12945 -1.13481,-1.27794 1.38026,-4.22497 5.22543,-4.27376 5.22543,-0.0663 0,2.73701 1.18488,3.94276 3.87451,3.94276 3.75735,0 3.73413,-0.17033 -0.76801,-5.6295 -2.55339,-3.09623 -5.63457,-8.69657 -6.84708,-12.44522 -2.12652,-6.57441 -2.29824,-6.67927 -4.85015,-2.96182 -3.25201,4.73727 -3.65658,14.51423 -0.89517,21.63287 2.52878,6.51896 2.54258,6.97377 0.21184,6.97377 -1.02015,0 -1.8767,-1.49036 -1.90345,-3.31192 -0.0267,-1.82155 -1.62853,0.0946 -3.5595,4.25818 -1.93095,4.16356 -3.5784,6.36362 -3.66097,4.88902 -0.21895,-3.90946 -2.01893,-1.41366 -4.68309,6.49345 -1.89327,5.6191 -1.87626,8.24572 0.0898,13.86163 3.30007,9.42683 3.314,13.73986 0.03,9.3276 -2.25527,-3.03023 -2.60344,-2.91347 -4.59211,1.53997 -1.18352,2.65033 -1.39712,4.34284 -0.47467,3.76115 0.92244,-0.58169 1.73297,3.71045 1.80119,9.53806 0.0683,5.82764 0.93858,11.5971 1.93413,12.82105 0.99553,1.22394 1.73293,4.99349 1.63865,8.37678 -0.0942,3.38327 0.92873,8.24884 2.27334,10.81234 3.0527,5.82003 26.72128,25.7953 36.75047,31.01583 4.1201,2.14467 7.96487,4.68154 8.54392,5.63753 0.57908,0.95599 7.10437,4.91603 14.50066,8.8001 7.39631,3.88407 18.03849,10.30372 23.6493,14.26589 14.42279,10.18492 24.58659,12.43627 38.0778,8.43452 12.75338,-3.78289 16.16924,-2.86653 15.3723,4.12387 -1.19409,10.47407 -31.56314,24.47486 -64.57898,29.77231 -6.05194,0.97104 -6.49185,1.51137 -6.49185,7.97395 0,6.76527 -0.29638,7.05676 -12.29723,12.09466 -23.62877,9.91926 -44.26049,13.78482 -76.73382,14.37693 -19.28644,0.35165 -33.24877,-0.30214 -39.87849,-1.86733 z"
       id="path6616"
       inkscape:connector-curvature="0" />
    <path
       style="fill:#6cca8d"
       d="m 213.40434,473.93214 c -14.57022,-3.30488 -21.70208,-7.14616 -41.59556,-22.4037 -7.61096,-5.83733 -15.72291,-10.56366 -18.13074,-10.56366 -5.63707,0 -29.36741,-12.19332 -35.086,-18.02817 -3.22118,-3.28667 -4.42022,-6.61722 -4.42022,-12.27791 0,-4.69663 0.73335,-7.30538 1.85481,-6.59818 1.02015,0.64331 1.85482,0.21749 1.85482,-0.94626 0,-1.16376 0.87756,-1.56253 1.95014,-0.88616 1.33048,0.83901 1.65094,-3.61637 1.00854,-14.02172 -0.54212,-8.78076 -0.18909,-15.726 0.83207,-16.36996 0.97553,-0.61516 1.83958,0.84795 1.92012,3.25138 0.13551,4.04416 0.28684,3.97722 2.03017,-0.89819 1.39208,-3.89312 1.25789,-6.03752 -0.51412,-8.21608 -3.89999,-4.79473 -2.10706,-16.11567 3.49761,-22.08464 3.47451,-3.70032 4.81668,-6.92068 4.43436,-10.63963 -0.30155,-2.93325 0.64491,-6.5506 2.10323,-8.03858 1.86975,-1.90776 2.42621,-5.74826 1.88736,-13.02599 -0.92186,-12.45061 -1.87458,-21.33921 -2.42472,-22.62199 -0.2232,-0.52044 -0.7307,-4.35281 -1.12777,-8.51636 -0.39707,-4.16356 -1.26045,-11.40247 -1.91863,-16.08647 -0.65817,-4.68401 -1.44999,-12.77455 -1.7596,-17.979 -0.30961,-5.20445 -2.38299,-22.663 -4.6075,-38.79678 -2.22451,-16.13379 -4.27651,-32.10197 -4.55999,-35.48486 -0.55283,-6.59717 1.78843,-8.46088 3.28642,-2.61608 0.52839,2.06165 3.13065,3.94882 6.24447,4.52853 6.64401,1.23693 25.40045,9.3245 29.31732,12.6413 1.95524,1.6557 2.91604,1.76939 2.91604,0.34505 0,-1.16834 -0.6547,-2.12425 -1.4549,-2.12425 -1.75118,0 -7.81917,-10.14017 -7.81917,-13.06655 0,-4.47215 3.49765,-1.76843 4.05013,3.13079 0.46173,4.09438 1.4618,5.11104 4.68877,4.76654 2.95329,-0.31528 3.80663,0.34714 3.04749,2.36566 -0.93437,2.48443 1.14851,3.68234 5.30389,3.05037 0.72839,-0.11076 0.79522,1.20554 0.14849,2.92514 -0.78892,2.0977 -0.46177,2.67624 0.99416,1.75813 1.30238,-0.82128 2.17002,-0.18871 2.17002,1.58207 0,3.56658 2.37204,3.742 7.90813,0.58482 2.28149,-1.30111 4.30028,-2.37893 4.48621,-2.39516 1.25055,-0.10914 7.98036,-30.42823 7.86218,-35.42057 -0.0805,-3.40202 -0.62862,-4.90804 -1.21795,-3.34671 -1.71759,4.55045 -10.09491,11.107 -12.82543,10.03789 -1.37693,-0.53912 -2.50351,0.0234 -2.50351,1.24997 0,1.4414 -0.98402,1.22615 -2.78222,-0.60861 -1.53022,-1.56133 -2.78222,-4.70255 -2.78222,-6.98048 0,-2.34588 -3.21696,-7.32713 -7.41925,-11.48824 -8.45654,-8.37365 -8.59373,-8.69313 -4.17333,-9.71911 2.5082,-0.58215 1.81388,-1.58148 -3.05494,-4.39695 -3.46548,-2.00396 -7.61564,-5.13393 -9.22258,-6.95549 -1.60695,-1.82156 -4.27732,-3.31192 -5.93416,-3.31192 -4.12183,0 -14.71126,5.54887 -14.71126,7.70872 0,0.96465 -2.7982,1.75391 -6.21822,1.75391 l -6.21821,0 -1.23316,-16.36912 c -1.1889,-15.781765 -0.54262,-20.701046 2.17785,-16.577107 0.70965,1.075738 6.29826,3.473018 12.41914,5.327287 6.12089,1.85427 14.66712,4.99473 18.99163,6.9788 4.3245,1.98408 8.75576,3.60741 9.84723,3.60741 1.09147,0 1.39341,0.97584 0.67097,2.16853 -0.93189,1.53849 0.24884,1.79672 4.06387,0.88878 3.93905,-0.93746 4.6332,-0.76593 2.59517,0.64127 -2.47309,1.70759 -2.47309,1.95628 0,2.23827 1.53022,0.17449 3.61688,0.42294 4.63703,0.55214 1.02015,0.12918 3.10681,1.05193 4.63703,2.05055 3.68061,2.40194 22.73444,10.36578 24.82729,10.37695 0.90317,0.005 3.61556,-2.1639 6.02753,-4.81938 l 4.38541,-4.82815 -6.50583,-2.77358 c -3.57821,-1.52547 -21.31459,-7.49305 -39.41418,-13.26129 -34.42926,-10.972417 -44.96462,-15.105264 -44.96462,-17.638864 0,-1.49688 19.88625,-3.016577 34.31405,-2.622261 11.49652,0.314202 34.21178,4.846995 33.14184,6.613399 -0.52709,0.870185 -0.2703,1.42353 0.57064,1.229656 0.84094,-0.193874 3.96824,0.671421 6.94957,1.922876 2.98133,1.251457 6.57201,1.824554 7.97929,1.273549 1.40729,-0.551003 2.04876,-0.159938 1.42549,0.869021 -0.62326,1.028967 0.79405,1.883391 3.14959,1.898722 6.65572,0.04332 26.57161,6.876392 23.60261,8.097982 -1.44457,0.59436 0.29484,0.64076 3.86536,0.10312 4.93184,-0.74264 5.82328,-0.49144 3.70962,1.04534 -1.53022,1.11259 -2.22448,2.03592 -1.54281,2.05186 0.68168,0.0159 2.6966,0.59953 4.47761,1.29686 2.32488,0.91028 2.82768,0.59014 1.78268,-1.13508 -1.14874,-1.89649 -0.62648,-1.95025 2.47794,-0.25502 2.16342,1.18135 3.93346,2.59404 3.93346,3.13929 0,0.54525 -0.96363,0.3837 -2.1414,-0.359 -1.2591,-0.79399 -1.64045,-0.52333 -0.92555,0.6569 1.26695,2.09167 8.04355,1.07914 9.56266,-1.42882 1.54146,-2.54484 -22.71275,-11.882867 -61.7636,-23.779391 -15.08565,-4.595721 -17.17525,-5.745572 -16.69332,-9.185897 0.46864,-3.345408 1.65867,-3.849452 7.97015,-3.37579 4.08059,0.306239 9.08858,1.300581 11.12888,2.209648 8.12178,3.618714 16.00906,5.535926 18.60039,4.521318 1.50148,-0.587886 2.72996,-0.126133 2.72996,1.02612 0,1.19856 3.3731,2.107199 7.88296,2.1235 8.69918,0.03145 22.54956,4.247375 20.57443,6.262669 -0.6894,0.703418 1.18099,1.291982 4.15641,1.307921 5.61454,0.03007 10.97432,2.524022 10.97432,5.106436 0,0.818633 0.83467,1.18587 1.85482,0.81608 3.86283,-1.400225 10.66445,-0.660698 14.8265,1.612056 3.70534,2.02336 4.88504,1.82217 8.28907,-1.413638 l 3.96888,-3.772747 -20.96147,-5.874353 c -11.52882,-3.230894 -31.02191,-8.020076 -43.31797,-10.642627 -12.29606,-2.62255 -26.90272,-6.259894 -32.45923,-8.082987 l -10.10277,-3.314714 9.88834,-0.583155 c 5.43859,-0.320735 10.86391,0.202677 12.05629,1.163137 1.19237,0.960461 8.5463,2.311983 16.34206,3.003383 19.50661,1.730026 77.90623,19.404513 73.53295,22.254553 -1.59057,1.036565 -0.84023,1.51445 2.25139,1.433908 2.55037,-0.06645 6.30637,0.302634 8.34667,0.820168 2.04029,0.517536 5.69542,1.006133 8.12254,1.085772 4.28117,0.140482 4.37575,0.479922 3.16806,11.37141 l -1.24482,11.22662 10.11439,-1.06513 c 16.84649,-1.77406 23.27835,1.65847 30.8472,16.46242 1.86262,3.64311 5.16111,8.54002 7.32998,10.88202 2.16887,2.342 3.15166,4.25818 2.18395,4.25818 -0.96769,0 -5.58839,-5.93013 -10.26819,-13.17808 -9.71943,-15.05311 -12.57747,-17.11239 -23.70009,-17.07649 -14.7703,0.0477 -15.76504,0.85112 -17.15598,13.85656 -2.52702,23.62804 -3.21091,26.08391 -7.86619,28.24813 -2.43975,1.13422 -4.31215,3.40304 -4.16089,5.04182 0.53634,5.81127 -0.20759,7.61014 -5.03665,12.17894 -4.88417,4.62094 -6.17538,11.03269 -6.73227,33.43017 -0.21213,8.53236 8.20314,27.35673 15.34102,34.31677 3.03382,2.95821 4.8474,5.37858 4.03021,5.37858 -3.54948,0 -13.36289,-12.31946 -16.29704,-20.4588 -1.75972,-4.88144 -4.01864,-9.72698 -5.01983,-10.76787 -1.20192,-1.24957 -1.36642,-1.0736 -0.4842,0.51797 0.73488,1.32577 -0.0645,6.15293 -1.77669,10.72703 -2.6021,6.95203 -2.74635,9.44954 -0.87918,15.22217 1.22852,3.7981 1.73314,7.41633 1.12138,8.04052 -0.61173,0.62417 -1.11226,-0.23426 -1.11226,-1.90765 0,-1.67337 -0.82511,-3.56283 -1.83357,-4.19876 -1.00846,-0.63594 -1.39833,0.001 -0.86637,1.41546 0.53195,1.41444 -0.27961,5.50394 -1.80345,9.0878 -1.94193,4.56706 -2.7958,5.38393 -2.85469,2.73103 -0.0729,-3.28509 -0.41219,-3.14343 -2.5684,1.0724 -4.4202,8.64246 -4.95396,14.4169 -2.09645,22.68063 1.53367,4.43523 2.45874,8.40051 2.05572,8.81174 -0.40301,0.4112 -1.62051,-1.85074 -2.70554,-5.02653 -2.19604,-6.42767 -4.22109,-7.91167 -2.70061,-1.97906 0.53499,2.08733 -0.11555,5.13295 -1.44547,6.76807 -1.43062,1.75882 -1.70938,3.49372 -0.68263,4.24812 0.95456,0.70133 1.9283,5.89885 2.1639,11.55007 0.2356,5.65119 1.12745,10.76101 1.98191,11.35515 0.85443,0.59412 1.62566,4.39149 1.71382,8.4386 0.0881,4.04709 1.15177,9.15691 2.36354,11.35516 2.88325,5.23037 23.08475,22.41466 33.33163,28.35333 4.9737,2.88254 9.01174,6.98501 10.55032,10.71862 2.91653,7.07741 3.18411,10.05865 0.76597,8.53376 -0.94967,-0.59887 -2.25093,-0.2233 -2.89169,0.83457 -0.69218,1.14272 1.13787,1.92339 4.50886,1.92339 6.48354,0 7.41757,2.69973 1.96429,5.67758 -2.0403,1.11413 -3.70963,3.699 -3.70963,5.74416 0,2.04515 -0.86403,3.71847 -1.92007,3.71847 -1.3018,0 -1.28078,1.2188 0.0653,3.78505 2.3873,4.55141 5.47567,4.79922 10.31067,0.82737 2.55371,-2.09782 2.9264,-3.24407 1.28192,-3.94275 -3.23897,-1.37617 -2.89726,-6.23945 0.53279,-7.58244 1.56821,-0.61402 4.49629,0.40259 6.50686,2.2591 3.46353,3.19818 3.48836,3.56403 0.47258,6.96416 -2.41099,2.71829 -2.70608,4.36502 -1.21668,6.7898 4.62255,7.52562 16.02051,2.75239 11.95157,-5.00509 -1.46071,-2.78482 -1.33452,-3.95765 0.50319,-4.67719 3.64359,-1.42661 7.45412,1.66656 6.1909,5.02541 -1.54869,4.11787 4.78327,5.7652 12.35699,3.21484 4.09725,-1.37971 7.67242,-1.46607 10.63606,-0.25693 2.45531,1.00175 3.42089,1.87536 2.1457,1.94133 -1.27518,0.0661 -2.31851,0.94488 -2.31851,1.95311 0,2.50621 11.40879,-2.06568 25.96421,-10.40477 3.98765,-2.2846 5.00349,-2.27767 7.28449,0.0498 4.60246,4.69604 -0.15488,11.01293 -13.10864,17.40613 -16.41168,8.09979 -32.95597,13.55605 -45.58404,15.03353 -5.92073,0.6927 -12.70637,2.82268 -15.14836,4.75501 -2.4329,1.92511 -3.5255,3.5002 -2.42799,3.5002 1.09753,0 2.51977,-0.86552 3.16053,-1.92339 1.66377,-2.74677 4.61834,-0.37336 4.61834,3.70996 0,6.26496 -17.54236,14.39179 -45.44293,21.05229 -22.60966,5.39744 -65.19531,6.70275 -83.46661,2.55841 z m -0.12011,-19.91798 c -1.71722,-2.83503 -6.3435,-1.92873 -5.23261,1.02507 0.56248,1.4956 2.20083,2.25801 3.64076,1.6942 1.43994,-0.56378 2.15627,-1.78747 1.59185,-2.71927 z m 51.1812,-1.62031 c -4.76655,-3.07575 -0.16137,-4.78313 13.54083,-5.02015 8.7255,-0.15083 14.79106,0.71218 17.63451,2.5093 4.77551,3.01824 7.82599,1.786 4.35245,-1.75817 -4.42984,-4.51991 -2.19607,-5.38912 8.93402,-3.47642 0.51008,0.0876 -0.32459,0.99679 -1.85481,2.02029 -2.92493,1.95634 3.77243,1.11358 16.69332,-2.10065 5.69402,-1.41644 5.43724,-1.49457 -2.08934,-0.63568 -8.6451,0.98654 -22.02324,-3.45132 -22.02324,-7.30564 0,-0.95948 -1.29534,-1.23732 -2.87856,-0.61742 -1.88069,0.73636 -2.41819,0.36704 -1.55053,-1.0654 0.90359,-1.4918 0.27563,-1.78041 -1.96501,-0.90313 -2.48216,0.97187 -3.01902,0.56087 -2.18031,-1.66921 0.61196,-1.62719 0.38213,-2.49787 -0.51074,-1.93482 -0.89287,0.56304 -2.65483,-0.24436 -3.9155,-1.79423 -1.26064,-1.54987 -3.2411,-2.81795 -4.40102,-2.81795 -1.15991,0 -3.16342,-1.72284 -4.45224,-3.82853 -1.94871,-3.18381 -2.99857,-3.47072 -6.23446,-1.7037 -2.19713,1.19978 -3.39458,1.30503 -2.75054,0.24177 0.62732,-1.03567 -0.0799,-2.36089 -1.57158,-2.94494 -1.4917,-0.58406 -3.28519,-0.11583 -3.98555,1.04035 -0.82474,1.36158 -0.41793,1.56283 1.15459,0.57121 1.66738,-1.05145 1.9821,-0.79498 1.00464,0.81874 -0.98567,1.62729 -2.01669,1.74444 -3.35295,0.381 -1.32133,-1.34819 -3.04685,-1.35877 -5.47367,-0.0335 -2.50258,1.36657 -4.31984,1.27832 -6.18407,-0.30031 -1.45203,-1.22957 -4.02072,-1.695 -5.70823,-1.03426 -2.49241,0.97586 -2.65398,0.69207 -0.86097,-1.51232 1.71632,-2.11007 1.67879,-3.04687 -0.16879,-4.21191 -3.02332,-1.90651 -9.01917,-2.40449 -7.96334,-0.6614 1.49458,2.46743 -5.57841,7.38009 -8.22376,5.71192 -2.68827,-1.69521 -2.35361,-2.35706 5.86295,-11.59497 3.00509,-3.37863 1.87929,-5.41001 -1.23588,-2.23 -1.71936,1.75514 -10.39648,2.06987 -9.3481,0.33908 0.41731,-0.68894 -0.89092,-2.77588 -2.90715,-4.63765 -3.84364,-3.54917 -4.8646,-9.38922 -1.96148,-11.21994 0.96682,-0.60967 0.50669,-3.52451 -1.06325,-6.73552 -3.15126,-6.44528 -5.2536,-7.49516 -3.82177,-1.90851 0.82112,3.20382 0.4405,3.46763 -2.60423,1.80501 -4.75636,-2.59728 -7.44937,-0.61077 -6.17812,4.5573 0.89703,3.64673 0.22593,4.26785 -5.05479,4.6784 -3.34903,0.26039 -6.71318,1.61118 -7.47589,3.00179 -0.76272,1.39061 -6.53479,4.49276 -12.82682,6.89366 l -11.44006,4.36528 9.07805,4.33097 c 4.99292,2.38205 10.8998,4.36133 13.12638,4.39844 2.38167,0.0397 4.53307,1.62573 5.22573,3.8525 0.64757,2.08178 2.40566,3.78505 3.90688,3.78505 2.06398,0 1.78675,1.03247 -1.13706,4.23462 -4.59482,5.03225 -4.35226,14.24427 0.45594,17.31591 2.584,1.65076 3.79151,1.23658 6.06946,-2.08177 1.56404,-2.27838 4.07711,-5.40099 5.58461,-6.93914 1.50755,-1.53823 2.74096,-3.34886 2.74096,-4.02372 0,-0.67487 2.43866,-3.71527 5.41926,-6.75647 5.49323,-5.60492 10.05147,-5.83751 12.01631,-0.61312 0.80719,2.14628 0.28857,2.3319 -2.40535,0.86084 -2.67412,-1.46026 -4.20468,-0.95348 -6.91381,2.28923 -1.91366,2.29058 -2.22738,3.22409 -0.69716,2.0745 2.21142,-1.66136 3.7169,-0.87814 7.33809,3.81766 3.11822,4.04357 3.41087,4.91065 0.92741,2.74774 -3.40251,-2.96334 -3.90038,-2.93452 -7.995,0.46298 -2.4016,1.99272 -5.00271,3.22193 -5.78026,2.73162 -0.77754,-0.49032 -2.98593,1.00461 -4.90753,3.32206 l -3.49381,4.21356 4.17333,-3.60524 c 4.95088,-4.27694 5.53624,-2.11602 0.92741,3.42361 -3.09136,3.71568 -3.09136,3.77932 0,1.33668 2.73562,-2.16155 3.25039,-2.15642 3.27432,0.0326 0.0241,2.20093 0.2746,2.20082 1.64139,-7.6e-4 1.60019,-2.57751 2.60471,-2.53256 22.1925,0.99333 4.12961,0.74333 6.74341,0.29501 7.72467,-1.32499 1.16955,-1.93084 2.59495,-1.69096 6.74213,1.13466 2.89247,1.97072 5.88503,3.39375 6.65014,3.16226 0.76511,-0.23148 1.39111,0.43078 1.39111,1.47166 0,1.04089 1.46066,1.87949 3.24592,1.86356 2.72244,-0.0244 2.80589,-0.31293 0.51742,-1.78963 z m -56.21331,-64.44143 c -3.7989,-4.52702 -4.04208,-5.86905 -0.83602,-4.61375 2.81243,1.10118 7.58341,8.42043 5.48877,8.42043 -0.80207,0 -2.89581,-1.713 -4.65275,-3.80668 z m 173.01285,35.66033 c 1.93362,-1.21899 1.36788,-1.36797 -1.85482,-0.48842 -2.55037,0.69607 -5.88903,2.05485 -7.41925,3.01953 -1.93363,1.21899 -1.36789,1.36797 1.85481,0.48842 2.55037,-0.69607 5.88904,-2.05485 7.41926,-3.01953 z M 230.27389,397.1613 c 3.49215,-4.01303 3.48916,-4.0368 -0.25579,-2.0357 -3.17818,1.69822 -3.83303,1.43087 -4.06107,-1.65806 -0.16452,-2.22839 0.52945,-3.17746 1.75725,-2.40318 1.25582,0.7919 1.4963,0.39987 0.63102,-1.02865 -1.05066,-1.73458 -2.27432,-1.49918 -4.92362,0.94715 -4.05159,3.7412 -4.57004,7.60086 -1.20697,8.98549 3.86174,1.58993 4.39436,1.40442 8.05918,-2.80705 z m 72.41815,-8.24099 c -0.58719,-1.56133 -0.25915,-2.83879 0.72896,-2.83879 0.98814,0 1.79661,-0.85163 1.79661,-1.89252 0,-1.04089 -1.1498,-1.89253 -2.55511,-1.89253 -1.4053,0 -3.62353,-1.31354 -4.92938,-2.91899 -1.612,-1.98182 -2.98096,-2.29999 -4.26388,-0.99099 -1.28292,1.30901 -0.89129,3.05356 1.21976,5.43367 1.71014,1.92813 3.10936,4.50316 3.10936,5.7223 0,1.21915 1.34129,2.21664 2.98067,2.21664 1.88743,0 2.58907,-1.04119 1.91301,-2.83879 z m -95.32508,-13.87024 c 0.48792,-1.90375 -0.30443,-5.09739 -1.76079,-7.09698 -2.44339,-3.3548 -2.54538,-3.19708 -1.32047,2.04196 l 1.32745,5.67758 -4.32369,-3.78505 -4.3237,-3.78505 3.58226,5.14498 c 4.24309,6.09409 5.6254,6.45949 6.81894,1.80256 z m -18.07519,-15.01975 c -1.02015,-0.76473 -1.93828,-2.45497 -2.0403,-3.75608 -0.45341,-5.78286 -0.93287,-6.34394 -4.44831,-5.20549 -2.03851,0.66015 -6.25066,1.27409 -9.36031,1.36431 -7.50011,0.21756 -4.31328,3.56394 6.18455,6.49416 9.64997,2.69358 12.16974,2.98118 9.66437,1.1031 z m 76.35243,-13.06513 c -0.68231,-0.6962 0.22191,-2.97168 2.0094,-5.05662 1.78748,-2.08496 2.20663,-3.16835 0.93145,-2.40756 -1.34139,0.80029 -2.31852,0.38615 -2.31852,-0.98266 0,-1.30126 -1.18298,-0.71522 -2.62887,1.30235 -2.41264,3.36657 -1.07069,8.41031 2.23771,8.41031 0.55518,0 0.45116,-0.56962 -0.23117,-1.26582 z m 32.92678,-175.95623 c 1.76714,-4.6987 -0.18066,-5.34028 -2.54241,-0.83748 -1.13941,2.1723 -1.29622,3.94714 -0.34872,3.94714 0.94688,0 2.2479,-1.39935 2.89113,-3.10966 z M 277.0677,104.7044 c -0.62309,-3.29966 -10.80117,-7.28622 -10.80117,-4.23062 0,0.95087 1.27819,1.72886 2.84042,1.72886 1.56226,0 3.32088,1.27745 3.90808,2.83879 1.45961,3.881 4.79679,3.60347 4.05267,-0.33703 z m -164.75069,65.62917 c 1.85481,-1.22305 2.00938,-1.84423 0.4637,-1.86355 -2.74089,-0.0343 -3.14335,-12.80051 -0.53615,-17.0069 0.94906,-1.53119 1.97961,-2.38283 2.29011,-1.89253 0.31051,0.4903 2.04504,3.76352 3.85451,7.27381 3.07103,5.95766 3.08303,6.53674 0.18033,8.7024 -1.71029,1.27602 -2.51551,3.30087 -1.78938,4.49967 0.85184,1.40633 -0.19922,2.16934 -2.96255,2.15065 -3.44557,-0.0233 -3.73891,-0.38761 -1.50057,-1.86355 z m 34.60156,-3.31038 c -1.73973,-2.87218 2.10631,-7.30556 4.3509,-5.01533 1.44433,1.4737 1.25138,2.69449 -0.68505,4.33426 -1.48263,1.2555 -3.13226,1.56198 -3.66585,0.68107 z m -5.85195,-8.04478 c -1.35254,-2.23294 0.40187,-5.67757 2.89168,-5.67757 0.95994,0 1.74535,1.70327 1.74535,3.78505 0,3.9915 -2.69853,5.09286 -4.63703,1.89252 z"
       id="path6614"
       inkscape:connector-curvature="0" />
    <path
       style="fill:#52a069"
       d="m 224.53322,475.86422 c -2.04029,-0.47919 -8.07666,-1.77214 -13.41416,-2.87327 -12.70575,-2.62119 -17.66968,-5.28123 -37.04818,-19.85324 -8.90347,-6.69511 -18.1146,-12.17293 -20.46917,-12.17293 -5.57585,0 -29.32829,-12.23129 -35.00967,-18.02817 -2.99478,-3.05567 -4.42022,-6.67392 -4.42022,-11.21997 0,-6.58463 0.0656,-6.64296 3.51294,-3.12549 1.93212,1.97141 9.65278,7.17826 17.15702,11.57077 7.50425,4.39254 23.44503,14.74749 35.42396,23.01102 11.97892,8.26352 25.44911,16.68068 29.93374,18.70478 13.51283,6.09889 42.11694,8.5843 66.54526,5.78212 11.46868,-1.31557 21.89548,-2.46646 23.17066,-2.55752 3.44736,-0.24615 2.8241,-1.34186 -1.85481,-3.26079 -4.05648,-1.66364 -4.03483,-1.71493 0.77284,-1.83153 2.72038,-0.0661 5.22438,0.66886 5.56444,1.63297 1.23722,3.50776 44.20639,-11.37722 44.20639,-15.31357 0,-0.99162 0.83466,-1.27662 1.85481,-0.63331 1.02015,0.64331 1.85481,2.80832 1.85481,4.81112 0,6.19659 -21.3422,15.46851 -50.07996,21.75678 -13.3618,2.92377 -60.01688,5.40481 -67.7007,3.60023 z m 17.15703,-11.69783 c 6.37592,-0.36956 16.80925,-0.36956 23.18517,0 6.37592,0.36955 1.15926,0.67192 -11.59259,0.67192 -12.75184,0 -17.9685,-0.30237 -11.59258,-0.67192 z m 68.21501,-9.58203 c 8.18901,-3.01781 17.37033,-6.93352 20.40295,-8.70157 l 5.51383,-3.21467 -11.5506,0.85751 -11.55059,0.8575 -18.12642,-12.40588 c -9.96953,-6.82326 -19.13305,-12.41832 -20.36335,-12.4335 -1.23032,-0.0151 -1.76582,-0.80537 -1.19003,-1.75594 1.14566,-1.89143 -6.76358,-8.33043 -9.23091,-7.515 -0.84093,0.27794 -1.09888,-0.20471 -0.57321,-1.07257 0.52566,-0.86784 -1.2903,-3.71024 -4.03546,-6.31644 -7.3739,-7.00058 -8.82728,-7.49625 -9.15031,-3.12064 -0.4258,5.76747 -4.41769,7.49151 -8.63307,3.72849 -3.42801,-3.06016 -3.54232,-3.03255 -2.35632,0.56887 1.22737,3.72705 1.20376,3.72875 -1.5403,0.11147 -2.50488,-3.30204 -3.66104,-2.76313 -2.97994,1.38902 0.13536,0.82525 -1.43513,0.58237 -3.48998,-0.53971 -3.78819,-2.06866 -5.11211,-5.6921 -2.07974,-5.6921 3.88141,0 3.71112,-6.18028 -0.26095,-9.47065 -4.05717,-3.36086 -4.21603,-3.35605 -5.50898,0.16616 -0.73223,1.99477 -2.61023,3.62686 -4.17333,3.62686 -3.50488,0 -3.5214,-1.76393 -0.0602,-6.42952 2.73493,-3.6866 2.01521,-7.72724 -1.0339,-5.80447 -0.93798,0.59147 -1.24073,-0.1601 -0.6728,-1.67023 1.69582,-4.50909 -2.56855,-5.46115 -4.86349,-1.08581 -3.06183,5.8374 -5.82159,1.96616 -3.77895,-5.30089 1.1785,-4.19276 0.97189,-6.91967 -0.70119,-9.25427 -2.22324,-3.10228 -2.50547,-3.0555 -4.4993,0.74575 -1.42496,2.71671 -3.15802,3.65207 -5.24941,2.83321 -2.52636,-0.98917 -2.31473,0.017 1.10899,5.27492 l 4.23113,6.49737 -4.73473,-5.63754 c -4.17211,-4.96761 -4.43895,-6.09204 -2.24557,-9.46263 1.36904,-2.1038 3.22202,-3.89864 4.11774,-3.98855 3.74502,-0.37586 7.9095,-3.16979 8.98424,-6.02747 0.99654,-2.64972 0.67382,-2.6192 -2.40963,0.22803 -3.22368,2.9767 -3.66839,3.00005 -4.70376,0.24707 -0.62891,-1.67223 -2.07346,-2.454 -3.2101,-1.73722 -1.3974,0.88119 -1.66149,7.7e-4 -0.81552,-2.71884 1.47351,-4.73702 0.4621,-5.09423 -3.3656,-1.1887 -2.82067,2.87806 -8.61697,2.03388 -8.61697,-1.25495 0,-0.99095 0.64933,-1.39226 1.44296,-0.8918 0.79364,0.50046 3.5063,-0.80063 6.02815,-2.89132 2.52185,-2.0907 3.60194,-3.28918 2.4002,-2.6633 -1.20678,0.62851 -2.71592,-0.56887 -3.37092,-2.67455 -1.77908,-5.71939 -6.47085,-4.73974 -6.66624,1.39191 -0.12461,3.91007 -0.80767,2.85103 -2.74645,-4.25818 -2.90278,-10.64406 -3.54187,-34.2273 -0.97146,-35.84819 0.92438,-0.58292 1.31345,-2.54935 0.8646,-4.36988 -0.5449,-2.21009 1.05386,-4.38133 4.81116,-6.53393 3.09499,-1.77314 5.61447,-4.32805 5.59885,-5.67758 -0.0226,-1.95486 -0.34738,-1.94023 -1.59748,0.0719 -1.17448,1.8905 -1.84852,1.43533 -2.68025,-1.80988 -0.61115,-2.38452 -0.72695,-4.72755 -0.25733,-5.20672 0.46961,-0.47915 0.85485,0.3353 0.8561,1.80988 0.001,1.56274 1.93556,0.38738 4.63703,-2.81772 4.76407,-5.65216 6.05995,-10.58762 2.77996,-10.58762 -1.02015,0 -1.85481,-1.70328 -1.85481,-3.78506 0,-2.08178 0.83466,-3.78505 1.85481,-3.78505 2.9756,0 2.13941,-6.00459 -1.39111,-9.98942 -2.29716,-2.59276 -3.16092,-6.45778 -2.9551,-13.22297 0.18955,-6.23088 -0.28493,-8.6314 -1.36271,-6.89429 -1.06093,1.70993 -1.66371,1.85726 -1.68193,0.41109 -0.0156,-1.23968 0.70551,-2.71677 1.60252,-3.28243 2.24241,-1.41406 3.9501,-8.65755 2.04106,-8.65755 -0.84984,0 -1.92688,1.49037 -2.39341,3.31192 -0.6812,2.65967 -0.89063,2.52803 -1.06341,-0.66845 -0.19432,-3.59474 -1.08111,-3.89548 -9.15306,-3.1041 -6.60845,0.6479 -9.7161,0.0822 -11.9238,-2.17033 -1.64225,-1.67564 -5.13026,-3.04662 -7.75114,-3.04662 -5.20062,0 -25.20507,-13.55347 -21.74258,-14.7311 5.83826,-1.98566 -3.46103,-13.57623 -13.51973,-16.85088 -2.99668,-0.97558 -5.78432,-2.8017 -6.19476,-4.05805 -0.54038,-1.65412 0.45097,-1.81878 3.5937,-0.59689 2.38697,0.92806 7.67862,2.74595 11.75921,4.03976 10.23204,3.24422 19.38161,7.54317 25.94128,12.18857 13.11313,9.28642 14.12698,9.35706 24.83841,1.73073 1.25675,-0.89479 11.30831,-41.22576 11.33275,-45.47168 0.0132,-2.27424 0.99326,-6.53243 2.17814,-9.46263 1.18488,-2.93021 2.03555,-5.91741 1.89037,-6.63822 -0.14518,-0.72081 1.90474,-3.05116 4.55537,-5.17854 4.43134,-3.55656 4.54048,-3.96874 1.35556,-5.11955 -1.90508,-0.68837 -6.24632,-2.38963 -9.64721,-3.78059 -3.40088,-1.39095 -20.03043,-6.85636 -36.95455,-12.14534 -16.92412,-5.288987 -33.75624,-11.179923 -37.40469,-13.090971 l -6.63357,-3.474634 10.20148,-0.578713 c 18.72752,-1.062387 44.58303,-0.199626 46.88116,1.564352 1.24927,0.958901 5.79106,2.875495 10.09287,4.259094 4.30182,1.383599 7.38256,3.240275 6.84609,4.125947 -1.01451,1.674883 3.63027,2.357489 13.15464,1.933232 4.74507,-0.211369 5.01819,0.0057 1.85481,1.474113 -3.62662,1.68345 -3.62132,1.72496 0.23719,1.855 2.17074,0.0732 6.94326,1.41047 10.6056,2.97181 3.66233,1.56133 8.5636,2.84235 10.89169,2.8467 2.3281,0.004 8.20554,2.0645 13.06097,4.57808 7.80162,4.03878 9.14785,4.24388 11.57836,1.76394 1.51265,-1.54341 3.80003,-2.26294 5.08304,-1.59894 1.28301,0.664 0.66341,-0.1043 -1.37689,-1.70732 -2.04029,-1.60302 -4.66402,-3.74407 -5.83049,-4.75789 -1.16649,-1.01382 -2.50903,-1.44728 -2.98341,-0.96325 -0.47439,0.48403 -4.52799,-0.67475 -9.00801,-2.57507 -4.48001,-1.90032 -18.8736,-6.765088 -31.98575,-10.810595 -21.56166,-6.652444 -27.98586,-10.227666 -24.59485,-13.687618 0.64664,-0.65979 2.2832,0.345761 3.6368,2.234558 1.3536,1.888796 3.64031,2.958406 5.08157,2.376911 1.93045,-0.778862 1.76576,-1.096607 -0.62544,-1.206675 -1.78526,-0.08218 -3.24592,-0.973602 -3.24592,-1.98095 0,-1.126483 1.60654,-1.196495 4.17333,-0.181872 2.29533,0.907317 3.96466,2.583147 3.70963,3.724067 -0.25504,1.140919 0.99696,2.052161 2.78222,2.02498 3.70575,-0.05642 34.45991,7.291153 40.91048,9.774052 2.35286,0.905642 3.77017,2.484879 3.14959,3.509419 -0.63164,1.042788 0.0757,1.391378 1.60681,0.791886 1.50432,-0.589003 4.45008,0.678891 6.54612,2.817537 2.35349,2.40135 5.00745,3.41999 6.93952,2.66351 2.11206,-0.82695 2.69282,-0.50555 1.78743,0.98918 -0.78392,1.29419 -0.24478,2.21414 1.29761,2.21414 1.45132,0 4.78184,2.18667 7.40117,4.85925 l 4.76242,4.85925 4.19622,-7.43934 c 2.30792,-4.09163 6.77747,-9.24399 9.9323,-11.449675 4.99561,-3.49264 7.37042,-3.854627 18.39613,-2.804095 l 12.66005,1.20625 -1.22655,11.06176 c -1.08753,9.80791 -0.84819,11.08664 2.11146,11.2813 2.83674,0.18656 2.8801,0.34371 0.28876,1.04639 -2.36567,0.64148 -3.55992,5.07998 -5.32689,19.79769 -2.05462,17.11352 -2.71547,19.1744 -6.74991,21.04999 -2.45976,1.14353 -4.34854,3.41996 -4.19728,5.05874 0.53539,5.80105 -0.20443,7.60715 -4.9586,12.1051 -4.79976,4.54108 -6.82241,14.20514 -7.00225,33.45632 -0.0749,8.0276 8.2994,27.27737 15.15946,34.84618 l 4.99587,5.51203 -5.07735,-3.61949 c -4.87601,-3.476 -14.3982,-19.80936 -14.3982,-24.6972 0,-1.29553 -0.9765,-2.97129 -2.17002,-3.72392 -1.45259,-0.91601 -1.7842,-0.34258 -1.00306,1.73446 0.64184,1.70658 -0.13262,6.27643 -1.72099,10.15523 -2.30778,5.63562 -2.47888,8.44541 -0.85175,13.98676 2.77493,9.45023 2.42207,11.45216 -0.81129,4.60273 -1.4741,-3.12267 -2.24531,-3.85925 -1.71381,-1.63686 1.17634,4.91871 -2.90672,15.02743 -4.80436,11.89454 -1.95169,-3.22212 -7.91251,14.21495 -6.45791,18.89118 0.67927,2.18369 0.5528,3.97034 -0.28105,3.97034 -0.83387,0 -1.70986,2.1291 -1.94669,4.73132 -0.23682,2.60222 -0.5656,6.22168 -0.73061,8.04323 -0.50516,5.57645 2.19987,23.9693 3.68066,25.0266 0.76694,0.5476 1.5131,4.61988 1.65814,9.04953 0.32673,9.97874 2.26395,12.83639 17.25563,25.45449 16.67346,14.03361 20.30008,17.33574 20.29988,18.48354 -4.3e-4,2.38585 -18.51217,0.82753 -20.77341,-1.74871 -2.06806,-2.35616 -1.96857,-2.40693 0.69845,-0.3565 2.74213,2.1082 3.0629,1.76104 2.71171,-2.93476 -0.45274,-6.05366 -2.44178,-10.0477 -5.0038,-10.0477 -0.95994,0 -1.74534,1.27746 -1.74534,2.83879 0,1.56133 -0.80848,2.83879 -1.79661,2.83879 -0.98812,0 -1.34244,1.49036 -0.78735,3.31192 0.77282,2.5361 0.4484,2.42527 -1.38499,-0.47313 -1.31683,-2.08178 -2.43988,-7.12631 -2.49567,-11.21008 -0.10387,-7.60072 -3.75945,-11.37688 -5.78913,-5.98004 -0.61977,1.6479 -2.80906,2.99617 -4.86512,2.99617 -2.8262,0 -3.25776,-0.59079 -1.76881,-2.42135 2.22557,-2.73618 2.3767,-14.273 0.20494,-15.64252 -0.78164,-0.49289 -2.68082,0.3891 -4.22041,1.96001 -1.5396,1.57089 -4.57747,2.85618 -6.75085,2.85618 -2.17336,0 -3.50389,0.73911 -2.95672,1.64245 0.54719,0.90336 -0.84817,1.54209 -3.10079,1.41939 -2.53588,-0.13815 -4.33763,1.03824 -4.73103,3.08887 -0.51664,2.6931 0.69928,3.31192 6.50767,3.31192 4.86128,0 8.16348,1.21601 10.33748,3.80668 1.75694,2.09369 3.19444,4.19753 3.19444,4.67524 0,2.77227 10.3292,23.15165 16.67524,32.90007 4.09053,6.28364 7.43733,12.31781 7.43733,13.40929 0,1.09147 1.572,1.9845 3.4933,1.9845 1.92131,0 3.91522,1.64621 4.43089,3.65827 0.68384,2.66818 2.87587,3.82063 8.09929,4.25818 5.79683,0.48559 7.27465,1.41143 7.7544,4.8581 0.32598,2.342 1.78665,4.25818 3.24592,4.25818 1.45928,0 2.65322,1.27746 2.65322,2.83879 0,3.33862 4.31539,3.50148 23.93407,0.90319 19.04172,-2.52189 36.60864,-7.20012 46.95089,-12.50346 9.9695,-5.11221 11.48775,-5.44717 9.61152,-2.12054 -0.77519,1.37443 -0.62676,1.70484 0.35423,0.78856 0.92867,-0.86742 1.68849,-2.49973 1.68849,-3.62735 0,-1.12762 1.15952,-2.4446 2.57671,-2.9266 1.44915,-0.49287 2.05676,-0.0189 1.38855,1.08519 -0.73072,1.20635 0.24105,1.5802 2.52403,0.97106 3.8351,-1.02329 4.55741,0.67903 2.55137,6.01299 -2.59296,6.89451 -41.46367,22.94127 -60.56929,25.00445 -5.89751,0.63687 -11.14874,1.86124 -11.66941,2.72084 -1.17424,1.93857 -17.11609,9.5421 -22.04286,10.5134 -1.99602,0.39351 -4.08269,1.44131 -4.63704,2.32845 -0.55436,0.88712 -4.76392,2.18386 -9.35458,2.88162 -6.95045,1.05644 -5.85604,0.35081 6.54246,-4.21827 z m 49.21806,-23.9291 c 12.97065,-2.53247 38.02399,-11.96657 36.34041,-13.68438 -0.40303,-0.41123 -5.22328,1.08975 -10.7117,3.3355 -5.48839,2.24575 -19.16024,6.03246 -30.38186,8.41493 -11.22162,2.38246 -17.89895,4.40846 -14.83851,4.50222 3.06044,0.0939 11.87669,-1.06195 19.59166,-2.56827 z M 258.21239,335.0042 c 2.36795,-3.08813 1.40925,-6.41016 -1.3481,-4.67136 -0.94964,0.59885 -1.72664,0.18692 -1.72664,-0.9154 0,-1.10232 -0.626,-2.00422 -1.39111,-2.00422 -0.76511,0 -1.39111,2.48394 -1.39111,5.51987 0,5.87355 2.31388,6.69177 5.85696,2.07111 z m -8.13751,-4.05107 c -1.11829,-1.14102 -3.09392,-1.40575 -4.39027,-0.58827 -1.74111,1.09795 -1.41982,1.8335 1.2295,2.81485 4.39133,1.62661 5.89738,0.56567 3.16077,-2.22658 z m -57.02057,-6.54066 c 0.14093,-0.95181 -0.0916,-1.09184 -0.51662,-0.31117 -0.42506,0.78067 -1.57691,1.41939 -2.55967,1.41939 -0.98277,0 -0.28721,-2.09311 1.54567,-4.65139 2.12227,-2.96216 4.51132,-4.29043 6.57844,-3.65751 3.3909,1.03826 3.99419,-1.46387 1.72445,-7.15207 -1.15614,-2.89738 -1.61874,-2.86252 -5.57557,0.42028 -2.37315,1.96889 -3.85907,4.3322 -3.30205,5.25181 0.55702,0.9196 -1.04864,1.26993 -3.56814,0.77851 -4.15532,-0.81049 -4.5809,-0.28694 -4.5809,5.63555 0,3.59097 0.56212,7.10259 1.24915,7.80358 1.43832,1.46756 8.62214,-2.9495 9.00524,-5.53698 z m 54.66408,0.37856 c 0,-0.99609 -1.46066,-3.51292 -3.24592,-5.59292 -2.98929,-3.48286 -2.99675,-3.68929 -0.0944,-2.61107 2.24444,0.83381 2.85461,0.3815 2.12007,-1.57162 -1.14201,-3.03656 -4.04097,-3.4815 -7.61227,-1.16834 -3.66488,2.3738 0.53957,12.75506 5.16585,12.75506 2.01672,0 3.66674,-0.815 3.66674,-1.81111 z m 7.41926,-12.82033 c 0,-2.16405 -0.96117,-2.98762 -2.69462,-2.3089 -1.64366,0.64355 -2.54794,3.21296 -2.31852,6.5879 0.33393,4.91234 0.63613,5.17127 2.69462,2.30888 1.27519,-1.77318 2.31852,-4.73773 2.31852,-6.58788 z m -62.13625,-6.22541 c 2.04029,-1.54799 2.66629,-2.8416 1.39111,-2.87472 -1.27519,-0.0331 -2.31852,-1.73674 -2.31852,-3.78585 0,-2.53415 -0.88978,-3.37727 -2.78222,-2.63631 -1.53022,0.59916 -2.795,2.91442 -2.81062,5.14506 -0.0232,3.31224 -0.358,3.53531 -1.82642,1.21691 -1.33788,-2.11232 -1.80527,-1.02734 -1.82641,4.23966 -0.0262,6.54148 0.21784,6.86724 3.21752,4.29412 1.78526,-1.53137 4.91526,-4.05087 6.95556,-5.59887 z m 59.11605,-27.14487 c 0.49962,-0.82482 -0.70312,-1.62355 -2.67274,-1.77493 -1.96963,-0.1514 -3.58113,0.52347 -3.58113,1.49968 0,2.15439 4.98281,2.3737 6.25387,0.27525 z m 10.54453,-32.21466 c -1.3706,-0.46615 -0.93776,-1.67641 1.18773,-3.3209 3.14556,-2.43374 3.09629,-2.59103 -0.8291,-2.64764 -3.44946,-0.0498 -4.17334,0.96479 -4.17334,5.84912 0,5.21706 0.34977,5.61312 2.98561,3.3811 1.99641,-1.69058 2.2711,-2.77123 0.8291,-3.26168 z M 204.06,227.89945 c 1.78051,-2.77265 2.22662,-4.40386 0.99136,-3.62491 -1.64026,1.03435 -1.8801,0.20406 -0.88938,-3.0789 0.7461,-2.47235 0.696,-3.85604 -0.11132,-3.07487 -0.80733,0.78118 -1.6062,3.33609 -1.77526,5.67758 -0.16907,2.34149 -0.86422,4.04435 -1.54478,3.78413 -0.68056,-0.26022 -1.68408,-0.47313 -2.23004,-0.47313 -0.54597,0 -0.12637,-1.65159 0.93242,-3.6702 1.0989,-2.09506 1.21419,-4.11849 0.26864,-4.71476 -0.91105,-0.5745 -2.21425,1.9892 -2.896,5.69712 -0.68175,3.70793 -1.73449,8.05773 -2.33944,9.66624 -1.75966,4.67885 5.70886,-0.13859 9.5938,-6.1883 z m 61.0867,-1.90715 c 0.62252,-1.65527 0.59178,-3.90122 -0.0683,-4.991 -0.66009,-1.08978 0.69524,-3.44021 3.01188,-5.22318 4.14642,-3.19124 4.15287,-3.25755 0.41455,-4.25502 -2.89017,-0.77116 -4.06796,0.0862 -4.92944,3.58847 -0.62257,2.53096 -0.61723,5.45152 0.0111,6.49014 0.6291,1.03861 0.13503,3.12854 -1.09777,4.64428 -1.32135,1.62532 -1.46825,2.75588 -0.35744,2.75588 1.03592,0 2.39282,-1.35431 3.01535,-3.00957 z m 12.24871,-40.11298 c 0,-0.81784 -1.66933,-1.48699 -3.70963,-1.48699 -2.04029,0 -3.70962,0.66915 -3.70962,1.48699 0,0.81784 1.66933,1.48698 3.70962,1.48698 2.0403,0 3.70963,-0.66914 3.70963,-1.48698 z m 22.25776,-17.79999 c 0,-0.84195 -0.83466,-1.53081 -1.85481,-1.53081 -1.02015,0 -1.85482,0.78198 -1.85482,1.73774 0,0.95576 -0.48547,3.29776 -1.07883,5.20445 -0.98719,3.17229 -0.82968,3.15471 1.85481,-0.20694 1.61351,-2.0205 2.93365,-4.3625 2.93365,-5.20444 z m -47.8722,-46.00517 c 1.6792,-3.72449 1.66036,-3.72627 -1.17803,-0.11141 -1.58651,2.0205 -2.81864,5.00122 -2.73811,6.62384 0.1265,2.54847 0.2869,2.56364 1.17803,0.11141 0.56739,-1.56133 1.79954,-4.54206 2.73811,-6.62384 z m 59.56862,-18.39515 c 2.62226,-4.27906 2.68401,-4.963276 0.36603,-4.0557 -1.5336,0.60047 -2.78838,1.78263 -2.78838,2.62702 0,0.84439 -0.55032,3.09528 -1.22293,5.00197 -1.47362,4.17729 -0.54883,3.27077 3.64528,-3.57329 z M 198.14593,453.47259 c 2.82949,-1.27874 4.70749,-2.91284 4.17333,-3.63134 -0.53416,-0.7185 -0.41294,-0.8787 0.26938,-0.35598 0.68233,0.52271 2.97766,-0.52851 5.10074,-2.33608 2.12308,-1.80755 1.40866,-0.53195 -1.58761,2.83466 -2.99626,3.36662 -7.16959,6.05196 -9.27406,5.96742 -3.23412,-0.12983 -3.03009,-0.51354 1.31822,-2.47868 z M 167.7268,438.00615 c -3.44148,-3.67298 -8.9699,-7.87296 -12.28538,-9.33329 -3.31548,-1.46033 -6.02814,-3.55025 -6.02814,-4.64424 0,-3.01152 3.67889,-2.38038 4.8896,0.83882 0.58495,1.55536 1.70867,2.42111 2.49715,1.92389 0.78848,-0.49723 4.51645,2.06259 8.28437,5.68844 3.76793,3.62587 7.57675,6.59248 8.46405,6.59248 2.43396,0 3.98019,3.3768 2.09156,4.56776 -0.91078,0.57435 -4.47173,-1.96088 -7.91321,-5.63386 z m -32.22462,-21.06302 c -6.1677,-3.71845 -6.55881,-4.26976 -2.31852,-3.2682 3.20674,0.75745 5.10074,0.42589 5.10074,-0.89287 0,-1.15375 -0.80589,-2.0977 -1.79087,-2.0977 -2.67677,0 -12.38771,-10.2009 -12.70753,-13.34869 -0.15299,-1.50578 -0.75426,-5.71851 -1.33615,-9.36162 -0.85135,-5.33015 -0.65666,-5.97406 0.99682,-3.29693 1.13014,1.82981 1.54304,4.17181 0.91755,5.20444 -0.6255,1.03264 0.46877,1.87754 2.43169,1.87754 1.96293,0 5.71409,1.72167 8.33592,3.82593 2.62183,2.10426 5.76976,3.59463 6.9954,3.31192 1.22564,-0.2827 2.84947,1.72339 3.6085,4.45802 0.75904,2.7346 4.60967,8.03428 8.55695,11.77707 5.08156,4.8183 6.26118,6.82 4.04043,6.85626 -1.72506,0.0282 -3.69726,-0.87463 -4.38268,-2.00621 -0.8974,-1.48156 -1.81062,-1.48156 -3.26265,0 -2.94347,3.00331 -4.4281,2.53879 -5.52156,-1.72763 -0.53355,-2.08177 -1.9851,-3.78505 -3.22566,-3.78505 -1.73123,0 -1.71016,0.67056 0.0907,2.88453 3.7128,4.56461 1.49177,4.42486 -6.52905,-0.41081 z M 172.59845,384.189 c -0.66156,-1.09218 1.05705,-1.88026 4.06386,-1.86355 4.04554,0.0225 4.58828,0.43906 2.42798,1.86355 -3.56363,2.34981 -5.06852,2.34981 -6.49184,0 z m -15.05539,-6.03563 c -0.59717,-0.98589 -2.39527,-1.2798 -3.99578,-0.65313 -1.60051,0.62666 -3.39408,0.39037 -3.98571,-0.5251 -0.59164,-0.91545 -3.55623,-2.86047 -6.58799,-4.32228 -3.03176,-1.46179 -5.53576,-3.50944 -5.56444,-4.55033 -0.0872,-3.16467 9.36833,-3.24054 11.92631,-0.0958 1.31278,1.61404 3.53666,2.93455 4.94197,2.93455 1.40531,0 2.55511,0.74279 2.55511,1.65064 0,0.90786 3.4501,2.21355 7.66688,2.90156 4.21678,0.68799 7.17853,1.74917 6.58167,2.35817 -1.89513,1.93366 -12.4076,2.16792 -13.53802,0.30168 z m -0.71053,-40.98832 c 0,-0.88183 -1.878,-2.52745 -4.17333,-3.65697 l -4.17333,-2.05364 4.17333,-0.12812 c 2.29533,-0.0704 4.17333,0.72359 4.17333,1.76448 0,1.04089 2.29533,1.90556 5.10074,1.9215 3.97475,0.0225 4.48656,0.43397 2.31852,1.86355 -3.45035,2.27512 -7.41926,2.42983 -7.41926,0.2892 z m 19.53605,-58.8576 c -0.66376,-1.09585 -3.45292,-2.05008 -6.19812,-2.12052 -4.84301,-0.12433 -4.87082,-0.18754 -0.93608,-2.12793 4.78867,-2.36159 14.14059,-0.45046 13.11768,2.68067 -0.99093,3.03322 -4.53357,3.96147 -5.98348,1.56778 z m 12.07341,-7.25176 c -1.99345,-2.20706 -2.11537,-3.19483 -0.4637,-3.75657 2.44092,-0.83019 3.15882,-9.90936 0.78353,-9.90936 -0.80154,0 -1.45735,-1.70327 -1.45735,-3.78505 0,-2.08178 0.65581,-3.78505 1.45735,-3.78505 0.80155,0 1.45735,-1.44023 1.45735,-3.20051 0,-2.78563 0.34078,-2.725 2.62886,0.46777 1.80293,2.51578 2.04275,4.38885 0.76335,5.96178 -2.1827,2.68345 -0.19692,13.99877 2.86896,16.34787 1.30602,1.00067 0.91572,1.21672 -1.04422,0.57803 -1.7724,-0.57758 -3.38122,0.085 -3.70963,1.5278 -0.45752,2.01 -1.15072,1.91573 -3.2845,-0.44671 z m -18.16206,-16.92751 c -3.31548,-0.4198 -6.02814,-1.56097 -6.02814,-2.53591 0,-2.81168 11.90587,-2.05723 15.8751,1.00599 3.55123,2.74063 3.54974,2.77528 -0.10919,2.53591 -2.04029,-0.13342 -6.42229,-0.58617 -9.73777,-1.00599 z m 5.43248,-16.0822 c -1.24575,-1.27107 -3.70801,-2.33562 -5.4717,-2.36566 -5.3461,-0.091 -5.41639,-3.79783 -0.0839,-4.42637 5.3672,-0.63264 16.35277,4.24396 16.35277,7.25915 0,2.63354 -8.1018,2.28303 -10.79714,-0.46712 z m 180.41371,-99.41222 c -3.82327,-5.98511 -8.70377,-13.01111 -10.84554,-15.61334 l -3.8941,-4.73131 5.28124,4.73131 c 2.90468,2.60223 6.79667,7.71205 8.64885,11.35516 1.85218,3.64311 5.14212,8.54002 7.31099,10.88202 2.16887,2.342 3.15739,4.25818 2.19669,4.25818 -0.96068,0 -4.87484,-4.89691 -8.69813,-10.88202 z m -30.04186,-20.75392 c 2.80541,-0.43362 7.39607,-0.43362 10.20148,0 2.8054,0.43362 0.51007,0.78841 -5.10074,0.78841 -5.61081,0 -7.90614,-0.35479 -5.10074,-0.78841 z M 272.75838,90.614735 C 266.63749,88.59484 247.44017,83.6579 230.09767,79.643758 193.97773,71.283342 182.1517,68.162757 183.0764,67.236057 c 1.48702,-1.490245 68.36529,10.010138 71.13384,12.232173 1.02015,0.818766 5.51147,2.104478 9.98073,2.857137 5.67826,0.956265 7.35436,1.867083 5.56444,3.023787 -1.60971,1.040256 -1.75636,1.666084 -0.39466,1.684295 1.19175,0.0159 3.69575,0.535137 5.56444,1.153769 2.89881,0.959655 2.98916,0.794521 0.61541,-1.124788 -2.37376,-1.919309 -2.28341,-2.084444 0.6154,-1.124789 1.86869,0.618633 4.37269,1.13783 5.56445,1.153769 1.27236,0.01703 1.01833,0.845633 -0.61541,2.007355 -2.13946,1.521318 -1.49669,1.800996 2.78222,1.210586 3.06044,-0.422283 4.39995,-0.387705 2.97669,0.07684 -2.21377,0.722568 -2.21377,1.086238 0,2.516505 4.32345,2.793266 -1.63822,1.826268 -14.10557,-2.287962 z"
       id="path6612"
       inkscape:connector-curvature="0" />
    <path
       style="fill:#366f46"
       d="m 227.31545,475.71651 c -24.6764,-3.67619 -32.20755,-6.98844 -55.01449,-24.19562 -9.02537,-6.80939 -17.19531,-11.63421 -18.92183,-11.17448 -3.68434,0.98109 -23.09776,-9.5103 -21.19344,-11.45336 0.74173,-0.7568 -0.0824,-0.81571 -1.83142,-0.13096 -4.08361,1.59894 -16.18245,-10.38056 -16.18245,-16.02281 0,-3.98819 0.0225,-3.98664 6.95555,0.47813 3.82555,2.4636 15.71955,9.76947 26.43109,16.23524 10.71155,6.46578 25.73554,16.33886 33.38665,21.94017 19.3538,14.16879 25.79399,16.13925 56.94518,17.4232 40.96797,1.68857 69.77182,-4.39543 103.03248,-21.76271 0.76511,-0.39951 1.39111,1.03351 1.39111,3.1845 0,13.67836 -78.08303,30.97821 -114.99843,25.4787 z m 75.11994,-39.51454 c -5.10073,-3.86759 -7.60473,-6.37952 -5.56444,-5.5821 9.64112,3.76815 31.74183,5.13145 48.70501,3.00442 21.25286,-2.66492 36.3258,-7.57769 52.8301,-17.21907 6.87724,-4.01749 12.98354,-6.51296 13.56955,-5.5455 2.07643,3.42805 -9.57751,12.44275 -23.96369,18.53673 -18.37272,7.78265 -34.19103,11.26189 -57.75433,12.70306 l -18.54813,1.13444 -9.27407,-7.03198 z m 3.24593,-6.0044 c 1.78525,-0.47601 4.70659,-0.47601 6.49184,0 1.78526,0.47603 0.3246,0.86551 -3.24592,0.86551 -3.57052,0 -5.03118,-0.38948 -3.24592,-0.86551 z m -20.17457,-6.88264 c -3.18987,-1.22193 -12.3712,-8.36292 -20.40295,-15.86891 -8.03175,-7.50596 -16.48118,-15.2706 -18.77652,-17.25471 -4.23212,-3.65831 -5.82239,-7.26559 -2.19446,-4.97781 1.08838,0.68632 1.82415,0.0978 1.63505,-1.30772 -0.81179,-6.034 0.33086,-7.28689 6.64576,-7.28689 4.60643,0 6.8579,0.98277 7.58745,3.31192 2.73811,8.7416 6.53688,13.92029 21.48588,29.2907 15.88985,16.33778 16.62718,18.92286 4.01979,14.09342 z M 241.1236,402.94429 c -0.75268,-1.2426 -3.74549,-1.58467 -7.52872,-0.86049 -3.67686,0.70379 -6.27943,0.43079 -6.27943,-0.6587 0,-1.02336 1.46066,-1.87394 3.24592,-1.89016 1.78526,-0.017 5.85135,-0.38146 9.03576,-0.81163 4.91553,-0.66401 5.65312,-0.24864 4.88441,2.75068 -1.04426,4.07445 -1.62621,4.32928 -3.35794,1.4703 z m -8.43312,-11.72335 c -3.46634,-2.37777 -6.56916,-6.21013 -6.89515,-8.51636 -0.32599,-2.30624 -0.18559,-4.19316 0.312,-4.19316 2.97555,0 6.77256,2.6526 6.77256,4.73131 0,1.33861 1.19739,2.90267 2.66088,3.47567 3.11925,1.2213 7.51173,8.82575 5.09793,8.82575 -0.90519,0 -4.48188,-1.94544 -7.94822,-4.32321 z m 5.75385,-7.97821 c 0,-1.56133 -0.88393,-2.83878 -1.96428,-2.83878 -1.08036,0 -1.45434,-0.84189 -0.83107,-1.87086 0.64981,-1.0728 -0.0947,-1.39006 -1.74535,-0.74378 -1.84913,0.724 -2.87856,0.0633 -2.87856,-1.84762 0,-1.63607 -1.79589,-3.95536 -3.99087,-5.15395 -3.42136,-1.86828 -3.82286,-1.73253 -2.81349,0.95131 1.54599,4.1107 -3.4635,6.07242 -7.27172,2.84761 -2.38759,-2.0218 -3.18109,-1.9916 -4.49103,0.17109 -0.87509,1.44469 -1.17955,3.30611 -0.67658,4.13647 0.50297,0.83033 -0.38677,1.50973 -1.9772,1.50973 -1.59042,0 -2.89168,-0.85164 -2.89168,-1.89253 0,-1.04089 0.6547,-1.89253 1.4549,-1.89253 0.80019,0 2.8517,-2.41268 4.55891,-5.3615 2.57995,-4.4563 4.06682,-5.21732 8.80675,-4.50751 5.64035,0.84467 5.67794,0.79462 3.43546,-4.57425 -3.4702,-8.30825 -5.26036,-9.6688 -6.47682,-4.92248 -0.59564,2.32404 -1.76405,4.22554 -2.59647,4.22554 -0.83242,0 -2.09202,1.85984 -2.79911,4.13295 -1.25431,4.03235 -1.35115,4.00532 -3.97754,-1.10923 -2.35458,-4.58525 -2.35285,-5.63681 0.0139,-8.39113 3.54687,-4.12785 6.16638,-12.62465 3.34325,-10.84437 -1.12953,0.71222 -2.05362,2.39015 -2.05362,3.72873 0,1.33859 -1.5567,3.87122 -3.45934,5.62809 -3.28667,3.03487 -3.57283,2.91477 -5.73283,-2.40595 -1.25042,-3.08014 -1.69096,-7.47298 -0.97898,-9.76184 0.88454,-2.84359 0.63726,-3.7471 -0.7808,-2.85287 -1.29308,0.81542 -2.50405,-0.8786 -3.21278,-4.49431 -1.27973,-6.52874 -3.33141,-7.38496 -6.00693,-2.50686 -0.99433,1.81289 -2.48952,2.60065 -3.32264,1.75059 -0.83313,-0.85007 -0.0483,-2.38298 1.74413,-3.40643 1.7924,-1.02348 4.94379,-3.70614 7.00308,-5.96146 3.52683,-3.86259 3.5521,-4.17908 0.43526,-5.45231 -1.99143,-0.81352 -0.72411,-1.10567 3.18295,-0.73377 8.89915,0.84709 17.12181,-6.39284 10.29594,-9.06543 -1.70907,-0.66918 -2.34565,-0.14269 -1.74822,1.44583 0.51675,1.374 -0.4046,3.02447 -2.04745,3.6677 -2.1427,0.83896 -3.70568,-0.56306 -5.52964,-4.96021 -1.41477,-3.41071 -1.7826,-6.40959 -0.82923,-6.7606 0.94238,-0.34697 1.71342,-1.46177 1.71342,-2.47735 0,-1.01559 -0.74721,-1.37532 -1.66046,-0.79943 -2.10009,1.32432 -3.90398,-3.36462 -3.90398,-10.14779 0,-6.83886 5.25482,-11.49369 12.97517,-11.49369 8.1421,0 6.41827,-1.58842 -2.37994,-2.19299 -3.78709,-0.26024 -6.88561,-0.78574 -6.88561,-1.1678 0,-2.04599 5.34958,-5.72724 6.67359,-4.59233 0.85293,0.73111 0.37996,-0.226 -1.05103,-2.12689 -1.52989,-2.03227 -1.88678,-3.9815 -0.86626,-4.73132 2.21895,-1.63031 2.7962,-8.20639 0.59873,-6.82066 -0.90497,0.57067 -1.6454,-0.71594 -1.6454,-2.85915 0,-2.14321 0.66706,-3.89675 1.48236,-3.89675 0.81531,0 1.14816,-2.92093 0.73969,-6.49095 -0.52675,-4.60378 -1.497,-6.1956 -3.33718,-5.47509 -1.42697,0.55871 -2.5945,0.0731 -2.5945,-1.07916 0,-1.15226 0.77505,-2.09501 1.72233,-2.09501 5.93467,0 10.66865,-20.5214 5.48767,-23.78853 -1.40748,-0.88756 -1.73161,-0.59493 -0.88648,0.80033 0.73274,1.2097 0.0803,3.47691 -1.44997,5.03824 -1.7435,1.77895 -3.21676,2.12139 -3.94614,0.91723 -1.07291,-1.77131 3.92978,-8.48807 6.35936,-8.53827 3.11824,-0.0644 13.11618,-5.43775 13.11618,-7.0492 0,-1.03432 -1.991,-0.54951 -4.42444,1.07736 -5.63628,3.76813 -6.62155,2.65482 -4.82868,-5.45616 1.37275,-6.21036 0.3639,-8.18345 -2.62494,-5.13384 -0.7521,0.76739 -2.72935,1.40612 -4.3939,1.4194 -1.66454,0.0132 -3.60909,2.15323 -4.32123,4.75545 l -1.2948,4.73131 -0.17453,-4.73131 c -0.096,-2.60222 0.71323,-7.99345 1.7983,-11.9805 1.47333,-5.41373 2.71121,-6.96009 4.88904,-6.10739 2.33232,0.91319 2.48183,0.60778 0.74671,-1.52541 -1.72465,-2.12034 -0.76718,-4.55449 4.6697,-11.87161 3.76154,-5.06242 7.51663,-9.47996 8.34464,-9.81676 0.828,-0.3368 0.48658,-1.73777 -0.75872,-3.11328 -1.2453,-1.37551 -2.89018,-2.11423 -3.65529,-1.64161 -0.76511,0.47263 -1.39111,-0.0159 -1.39111,-1.0855 0,-1.06965 -1.35373,-1.41478 -3.0083,-0.76696 -2.60212,1.01883 -2.4613,1.59885 1.04301,4.2959 l 4.0513,3.11803 -4.40757,4.63421 c -5.75836,6.05445 -11.5147,16.11909 -14.2963,24.99628 -1.22608,3.91292 -2.93347,6.67031 -3.7942,6.12754 -0.86072,-0.54277 -1.94863,0.51393 -2.41758,2.34823 -0.58012,2.26919 -0.91133,1.82295 -1.03634,-1.39622 -0.10105,-2.60223 1.9029,-12.39605 4.45321,-21.76405 2.55031,-9.368 5.39296,-21.37359 6.317,-26.67909 2.43433,-13.977 6.7358,-23.4591 10.6826,-23.54862 7.94131,-0.18013 -11.99384,-7.9815 -55.75542,-21.81917 -14.8505,-4.695825 -21.17944,-7.486731 -19.47554,-8.588244 3.36473,-2.17518 27.46971,-2.140942 34.24293,0.04864 2.95764,0.956116 10.22526,3.217327 16.15028,5.024912 6.69892,2.043684 9.90041,3.836622 8.46593,4.741212 -1.81929,1.14724 -1.77863,2.10407 0.19239,4.5273 1.41776,1.74302 2.97721,2.28349 3.60382,1.24901 1.3119,-2.16587 18.51782,0.70316 21.31147,3.55362 1.01117,1.03172 3.0665,1.87586 4.5674,1.87586 1.5009,0 4.39877,1.49037 6.43972,3.31192 2.04094,1.82156 3.10073,2.24738 2.35509,0.94627 -0.82843,-1.4456 -0.29859,-2.36566 1.36234,-2.36566 1.87418,0 2.41206,1.32201 1.73248,4.25818 -0.87861,3.79608 -0.7088,3.92747 1.56475,1.21072 3.25274,-3.88681 7.29204,-5.25835 11.15484,-3.78761 2.81689,1.07252 2.81689,1.72846 0,8.93488 -2.48528,6.35804 -3.69182,7.54109 -6.61132,6.48264 -3.45751,-1.25351 -3.44275,-1.42585 0.46371,-5.41172 4.74404,-4.84051 3.13912,-5.58914 -1.93583,-0.90299 -2.36815,2.18671 -6.26838,3.11689 -12.20235,2.91017 l -8.72168,-0.30384 10.20148,2.57242 c 5.61081,1.41483 11.87081,3.11969 13.9111,3.78858 3.15737,1.03512 4.39993,-0.48419 8.34666,-10.20574 5.78915,-14.25979 7.70588,-14.96499 7.94159,-2.92185 0.0408,2.08178 2.03343,5.73821 4.4282,8.1254 l 4.35412,4.34035 1.83951,-4.93669 c 1.01174,-2.71517 1.83953,-5.60203 1.83953,-6.41524 0,-2.23971 5.68591,-13.67906 9.80358,-19.72362 2.46798,-3.622874 4.77937,-5.061512 7.12608,-4.435356 1.91031,0.509715 3.47329,0.211807 3.47329,-0.662015 0,-2.343074 10.06357,-1.639706 13.52866,0.945553 1.8994,1.417108 2.59874,3.743128 1.92077,6.388438 -1.00244,3.91119 -1.21541,3.95926 -3.56178,0.80393 -1.37258,-1.84581 -2.52214,-2.42346 -2.5546,-1.28367 -0.0325,1.13979 1.61035,3.61378 3.65064,5.49776 2.0403,1.88399 3.70963,2.49724 3.70963,1.36279 0,-1.13446 0.96945,-4.46009 2.15433,-7.39029 1.18489,-2.93021 2.01956,-5.966377 1.85481,-6.747044 -0.16471,-0.780667 0.64436,-1.419395 1.79798,-1.419395 1.39163,0 1.71061,2.388358 0.94783,7.096969 -0.63232,3.90334 -1.15887,9.01316 -1.17009,11.35516 -0.0111,2.342 -0.90435,4.25818 -1.9847,4.25818 -1.08036,0 -1.36387,-1.06455 -0.63003,-2.36566 0.77518,-1.37443 0.62676,-1.70484 -0.35423,-0.78855 -0.92867,0.86741 -1.79283,2.35777 -1.92035,3.31192 -0.55996,4.18996 -1.05359,4.34258 -2.55036,0.78855 -1.52104,-3.61161 -1.60006,-3.58993 -1.72444,0.47313 -0.10962,3.57948 -1.1651,4.25819 -6.62222,4.25819 -6.24364,0 -8.50067,-2.29491 -4.64702,-4.72503 1.01466,-0.63984 2.82065,-3.0321 4.0133,-5.31614 1.98424,-3.79999 1.8977,-3.92483 -1.0187,-1.46964 -6.0275,5.07431 -7.28621,9.59909 -3.77239,13.56077 1.76964,1.99519 4.1315,3.61457 5.24858,3.59864 1.11706,-0.0159 0.77904,-0.85454 -0.75118,-1.86355 -2.01227,-1.32686 -0.34401,-1.84259 6.02814,-1.86355 6.9751,-0.0229 8.81037,-0.68602 8.81037,-3.18319 0,-1.73481 0.40553,-2.74043 0.90118,-2.2347 0.49564,0.50572 0.0313,8.5253 -1.03191,17.82128 -1.61274,14.10098 -2.68416,17.59237 -6.46562,21.06919 -2.49289,2.29208 -4.53253,6.1889 -4.53253,8.65961 0,4.93961 -7.74046,13.61007 -10.10579,11.32 -0.81617,-0.79019 -0.90667,0.47948 -0.20112,2.82148 0.70556,2.342 0.50668,4.25818 -0.44192,4.25818 -0.94861,0 -1.4212,2.342 -1.0502,5.20445 0.37098,2.86244 0.11741,8.18517 -0.56368,11.82829 l -1.2382,6.62384 -1.48312,-5.67758 c -1.21005,-4.63228 -1.30757,-4.28384 -0.52966,1.89253 2.03081,16.12438 1.90585,19.15001 -1.07259,25.97027 -2.47311,5.66312 -3.55043,6.59118 -5.49223,4.73131 -1.3286,-1.27253 -0.95929,0.0283 0.82068,2.89075 2.03369,3.27043 2.44355,5.20445 1.10295,5.20445 -1.52527,0 -1.59284,1.03058 -0.23707,3.61538 1.37978,2.63054 1.14802,5.07935 -0.85071,8.9895 -2.2773,4.45512 -2.76912,4.72685 -2.87607,1.58906 -0.11333,-3.32761 -0.34336,-3.2383 -1.90284,0.73896 -0.97561,2.48819 -2.96987,7.1722 -4.43166,10.40889 -1.4618,3.23669 -2.41121,8.86561 -2.1098,12.50872 0.61532,7.43704 -2.4735,16.48309 -4.49097,13.1524 -0.698,-1.15236 -1.16391,1.16547 -1.03535,5.15075 0.14968,4.63805 1.05596,7.07566 2.51822,6.77282 1.40482,-0.29094 2.28448,1.7131 2.28448,5.20445 0,6.31379 -3.94988,7.52485 -9.79228,3.00242 -2.88787,-2.23542 -2.94014,-2.69585 -0.41815,-3.6833 3.84033,-1.50364 1.71348,-10.37178 -3.52563,-14.7004 -3.85043,-3.18128 -3.85052,-3.18516 -0.15896,-7.44561 l 3.69351,-4.26269 -4.01534,1.02403 -4.01533,1.02404 3.54469,-5.93136 c 1.9496,-3.26226 3.54783,-8.67958 3.55164,-12.03847 0.006,-4.44125 1.28757,-6.96325 4.70186,-9.24586 4.6753,-3.12566 5.1786,-6.30391 0.52921,-3.34192 -2.76252,1.75994 -7.07895,2.67132 -7.07895,1.49468 0,-1.9652 7.72174,-8.38156 9.06633,-7.53365 1.93461,1.21994 5.77222,-11.73587 5.77222,-19.48696 0,-3.26213 0.67513,-5.93114 1.5003,-5.93114 0.82517,0 3.1205,-1.32444 5.10074,-2.94319 3.45741,-2.82629 3.43467,-2.86123 -0.5729,-0.87968 -3.211,1.58768 -4.17988,1.50266 -4.20173,-0.36873 -0.02,-1.71005 -0.56228,-1.58933 -1.82641,0.40655 -1.09982,1.73644 -1.80904,1.95668 -1.82642,0.56717 -0.0148,-1.24939 1.19797,-2.97189 2.69688,-3.82777 1.49889,-0.85589 3.25078,-4.94348 3.89305,-9.08354 0.64228,-4.14006 1.54591,-8.15636 2.00809,-8.9251 0.46217,-0.76875 -0.45504,-0.89054 -2.03823,-0.27066 -1.58321,0.61989 -2.87856,2.68897 -2.87856,4.59795 0,3.97965 -2.84367,6.35625 -5.55763,4.64482 -3.09044,-1.94883 3.12536,-11.73456 9.52174,-14.99037 7.19934,-3.66453 6.71392,-3.68451 7.7492,0.319 0.53237,2.05876 0.83977,1.52169 0.81243,-1.41939 -0.0243,-2.60223 0.6278,-6.43459 1.44889,-8.51637 1.42507,-3.61307 1.32812,-3.63792 -2.13378,-0.54682 -3.44504,3.07604 -3.62668,3.05234 -3.62668,-0.47313 0,-2.04125 0.54185,-3.71136 1.20411,-3.71136 0.66226,0 1.06103,-1.91619 0.88614,-4.25819 -0.17491,-2.342 0.26204,-5.10982 0.97094,-6.15071 2.60169,-3.82011 3.97701,-17.97899 1.74638,-17.97899 -1.33348,0 -1.69946,1.60832 -0.96894,4.25818 0.64564,2.342 0.49323,3.3817 -0.33871,2.31043 -0.83194,-1.07126 -3.38908,-1.82634 -5.68255,-1.67796 -3.81693,0.24696 -4.11318,-0.42514 -3.49966,-7.93969 0.36864,-4.51522 -0.0723,-7.74119 -0.98,-7.16883 -0.90765,0.57236 -1.52923,2.04098 -1.38131,3.2636 0.54982,4.54429 -0.21952,7.14678 -1.81522,6.14053 -2.61033,-1.64607 -5.24732,2.98525 -6.65369,11.68584 -0.71418,4.41833 -2.18952,8.59519 -3.27852,9.28191 -1.16916,0.73727 -1.43801,0.35382 -0.65654,-0.93634 0.7279,-1.20172 0.43953,-2.18494 -0.64082,-2.18494 -1.08036,0 -1.96429,2.10236 -1.96429,4.67192 0,2.95733 -0.85089,4.3406 -2.31852,3.76914 -1.52044,-0.59203 -2.3884,1.09526 -2.52152,4.90184 -0.21674,6.1968 -5.45286,26.5258 -8.59497,33.36944 -1.04303,2.27179 -1.45627,5.30087 -0.91828,6.73131 1.01047,2.68678 -2.24297,17.75645 -4.66026,21.58595 -0.76624,1.21388 -0.14916,2.6446 1.40267,3.25222 2.07648,0.81301 2.49204,2.87815 1.65837,8.24153 -0.61183,3.93617 -1.86347,8.59107 -2.78142,10.34419 -0.91796,1.75312 -1.66902,6.05389 -1.66902,9.55725 0,3.50337 -1.0016,7.39172 -2.22577,8.64079 -1.22418,1.24906 -1.53931,2.27103 -0.7003,2.27103 0.83902,0 0.48642,1.27745 -0.78355,2.83879 -1.77498,2.18219 -1.80492,3.45857 -0.12945,5.51841 1.73047,2.1275 1.4713,2.909 -1.25784,3.79281 -1.89058,0.61225 -4.49255,4.09041 -5.78216,7.72927 -1.2896,3.63883 -3.25473,6.61608 -4.36696,6.61608 -1.11222,0 -0.4322,1.79268 1.51117,3.98375 1.94337,2.19105 3.70033,6.44923 3.90436,9.46263 0.20403,3.01337 0.68396,8.03379 1.06652,11.15646 0.38255,3.12266 0.84162,7.60246 1.02015,9.9551 0.17852,2.35264 2.34253,6.49802 4.8089,9.21196 5.92108,6.51546 10.54797,20.44517 8.24891,24.83416 -2.12782,4.06208 -3.45916,4.24418 -3.45916,0.47313 z m -21.21715,-42.01698 c -1.85585,-4.93461 -3.18571,-1.43808 -1.67967,4.41628 1.02943,4.00161 1.58171,4.52851 2.10195,2.0053 0.38811,-1.88236 0.19808,-4.77208 -0.42228,-6.42158 z m 0.22558,-39.48576 c -0.98479,-7.45619 -2.40074,-9.81049 -4.51212,-7.50229 -0.76511,0.83642 -0.34258,1.90274 0.93896,2.36957 1.28154,0.46685 1.85367,1.63533 1.27139,2.59664 -1.13454,1.87303 0.65298,9.28405 2.23929,9.28405 0.52455,0 0.55267,-3.03659 0.0625,-6.74797 z m -0.71881,-32.52194 c 1.35643,-7.20466 0.27615,-7.49896 -2.09126,-0.56975 -1.08503,3.17581 -1.27884,5.77419 -0.43068,5.77419 0.84815,0 1.98303,-2.342 2.52194,-5.20444 z m 3.16224,-33.70403 c 0,-2.54079 -0.92397,-4.61962 -2.05326,-4.61962 -1.12929,0 -1.58307,1.25018 -1.00841,2.77818 0.57466,1.528 0.23302,3.29012 -0.75922,3.91582 -0.99223,0.6257 -1.31544,1.94433 -0.71823,2.93027 1.7938,2.96144 4.53912,-0.0654 4.53912,-5.00465 z m 5.83921,-24.38659 c -0.51711,-0.98338 -1.97898,1.14571 -3.2486,4.73132 -3.35904,9.4865 -2.91721,11.31735 0.88819,3.68049 1.81535,-3.64311 2.87753,-7.42842 2.36041,-8.41181 z m 7.14449,-21.34945 c 0,-5.93227 -0.88844,-5.24597 -2.59564,2.00508 -0.82819,3.51761 -0.59886,4.94441 0.66648,4.14649 1.06103,-0.66909 1.92916,-3.4373 1.92916,-6.15157 z M 213.51008,172.6494 c -0.56823,-0.57978 -1.03314,0.36525 -1.03314,2.10006 0,1.73482 -0.80847,3.15421 -1.7966,3.15421 -0.98813,0 -1.28262,-1.49036 -0.65442,-3.31192 0.83408,-2.41853 0.5681,-2.77578 -0.986,-1.32438 -1.5982,1.49259 -1.55071,3.24276 0.19071,7.02802 l 2.3189,5.04049 1.49685,-5.81616 c 0.82327,-3.19889 1.03193,-6.29053 0.4637,-6.87032 z m 14.0077,0.22512 c 4.27935,-5.0706 6.30381,-9.85338 2.27714,-5.37974 -1.87379,2.08178 -5.49355,5.79807 -8.04392,8.25843 -3.61059,3.48317 -3.81129,4.04563 -0.90665,2.54095 2.05171,-1.06283 5.05475,-3.50167 6.67343,-5.41964 z m 72.13539,-4.60581 c 0,-2.24379 -0.94417,-3.12424 -2.6388,-2.46073 -3.15682,1.23601 -5.22741,6.04167 -3.69394,8.57332 1.60174,2.64435 6.33274,-1.9222 6.33274,-6.11259 z M 239.168,162.76347 c 0.77539,-4.4683 0.63262,-5.3921 -0.4387,-2.83879 -2.4555,5.85229 -4.35188,15.66171 -2.37814,12.30142 0.91708,-1.56134 2.18466,-5.81952 2.81684,-9.46263 z m 25.24372,-13.66782 c 0,-1.03254 1.29534,-1.37017 2.87855,-0.75028 1.64125,0.64261 2.39436,0.32769 1.7521,-0.73265 -1.29208,-2.13313 7.8515,-15.12967 10.64433,-15.12967 1.01805,0 1.39089,1.49037 0.82852,3.31192 -3.86135,12.50739 -3.89126,12.88172 -0.82437,10.317 2.10715,-1.76212 3.30001,-1.86112 4.21542,-0.34985 1.40611,2.3214 8.32765,-2.9112 8.32765,-6.2956 0,-1.04089 -1.78027,-0.27017 -3.95613,1.71271 -3.91015,3.56334 -3.942,3.55886 -2.74034,-0.38575 0.77264,-2.53633 0.17806,-4.8697 -1.63118,-6.40181 -2.32024,-1.96477 -2.41378,-2.94691 -0.50559,-5.30835 6.17611,-7.64311 -6.2808,2.20685 -14.40505,11.3904 -4.85993,5.49358 -9.75745,9.70445 -10.8834,9.35749 -1.12595,-0.34697 -1.42841,4.9e-4 -0.67217,0.77213 0.75627,0.77164 0.33893,2.69461 -0.9274,4.27328 -1.6669,2.07805 -0.89452,1.93544 2.79832,-0.51666 2.8054,-1.86283 5.10074,-4.23177 5.10074,-5.26431 z m -17.31393,0.97652 c 0.001,-1.25533 -0.63355,-1.88143 -1.41073,-1.39133 -0.77719,0.49009 -1.77641,-1.03773 -2.22049,-3.39517 -0.78155,-4.14886 -0.81553,-4.15561 -1.06003,-0.21072 -0.21783,3.51481 -1.59234,4.18157 -9.99036,4.8463 -5.35577,0.42392 -10.05124,0.54111 -10.43438,0.26043 -0.38313,-0.28068 1.9122,-2.75013 5.10074,-5.48766 3.18854,-2.73753 5.79735,-5.70984 5.79735,-6.60514 0,-0.89529 -3.13,1.30063 -6.95556,4.87983 l -6.95555,6.50764 -3.20468,-4.23847 c -2.2979,-3.03917 -3.21635,-3.42537 -3.24592,-1.36488 -0.0748,5.2145 8.37428,8.50372 21.81459,8.49236 8.71821,-0.007 12.76345,-0.73408 12.76502,-2.29319 z M 187.60526,99.914276 c -1.69966,-0.970518 -4.10218,-1.345718 -5.33892,-0.833781 -1.26078,0.521883 -0.82266,0.996435 0.99728,1.080205 1.78526,0.0822 3.24593,1.05131 3.24593,2.15363 0,1.10232 0.94185,1.41028 2.093,0.68437 1.4247,-0.89841 1.10626,-1.88329 -0.99729,-3.084424 z m -30.77273,-4.33548 c 4.36334,-2.545025 3.92543,-2.695664 -7.41925,-2.55219 -6.63096,0.08386 -10.38696,0.562163 -8.34666,1.062897 2.04029,0.500734 4.50256,1.679397 5.4717,2.619254 2.39859,2.326115 4.82566,2.059704 10.29421,-1.129961 z M 292.57218,362.42495 c -3.03095,-2.60222 -6.38438,-4.73132 -7.4521,-4.73132 -3.61975,0 -3.78169,-2.99751 -0.17695,-3.27458 1.96962,-0.1514 3.58112,0.4661 3.58112,1.37214 0,0.90607 1.46273,2.12107 3.25053,2.70003 2.85155,0.92344 9.20291,8.66504 7.10898,8.66504 -0.44045,0 -3.28068,-2.12909 -6.31162,-4.73131 z M 269.3054,351.06979 c 0.58721,-1.56133 1.81301,-2.83878 2.72402,-2.83878 0.91099,0 1.65636,1.27745 1.65636,2.83878 0,1.56134 -1.22581,2.83879 -2.72401,2.83879 -1.6593,0 -2.30671,-1.10957 -1.65637,-2.83879 z m -11.20643,-12.00574 c -0.64186,-1.05967 -0.2632,-2.49661 0.84145,-3.19321 2.85174,-1.79829 4.6917,0.66494 2.31106,3.09398 -1.33209,1.35917 -2.36956,1.39182 -3.15251,0.0992 z m 8.97785,-4.94376 c -1.64167,-2.55646 -2.44633,-5.53719 -1.78811,-6.62384 0.65822,-1.08667 0.31283,-1.97576 -0.76752,-1.97576 -1.08036,0 -1.96429,-0.85163 -1.96429,-1.89252 0,-1.04089 2.01374,-1.89253 4.47498,-1.89253 4.11121,0 4.45046,0.69161 4.17333,8.5078 -0.16582,4.67929 -0.49108,8.51165 -0.7226,8.51636 -0.23152,0.004 -1.76413,-2.08306 -3.40579,-4.63951 z m -15.6488,-10.11362 c 0,-1.99031 4.02856,-6.05608 6.00066,-6.05608 0.852,0 0.65571,1.70327 -0.43622,3.78505 -1.96046,3.73763 -5.56444,5.20854 -5.56444,2.27103 z m -61.20885,-14.57245 c 0,-1.56133 0.83467,-2.83878 1.85482,-2.83878 1.02015,0 1.85481,1.27745 1.85481,2.83878 0,1.56134 -0.83466,2.83879 -1.85481,2.83879 -1.02015,0 -1.85482,-1.27745 -1.85482,-2.83879 z m 56.56212,-38.81279 c -0.63582,-1.04969 0.77559,-2.6537 3.13647,-3.56446 5.4517,-2.10312 6.45197,-1.19134 2.79097,2.54409 -3.36493,3.43334 -4.36191,3.60496 -5.92744,1.02037 z m -51.72664,-27.5804 c -1.59083,-4.22992 -1.46538,-4.57653 1.65637,-4.57653 1.54568,0 2.78222,1.68225 2.78222,3.78505 0,4.51225 -2.84823,5.02014 -4.43859,0.79148 z m 64.77755,-8.26663 c -1.26346,-2.08589 5.36996,-6.22769 7.11786,-4.44426 1.89293,1.93143 1.34092,4.67967 -0.68353,3.40305 -1.02015,-0.64331 -1.85481,-0.26775 -1.85481,0.83457 0,2.49173 -3.1104,2.63208 -4.57952,0.20664 z m 12.34655,-53.20396 c 0.4463,-1.36616 1.90699,-2.85653 3.24592,-3.31192 1.39111,-0.47313 2.08667,0.23657 1.62296,1.65596 -0.4463,1.36617 -1.90699,2.85653 -3.24592,3.31192 -1.39111,0.47313 -2.08667,-0.23656 -1.62296,-1.65596 z"
       id="path6610"
       inkscape:connector-curvature="0" />
    <path
       style="fill:#245931"
       d="m 240.63516,475.94908 c 0.52485,-0.53553 9.21929,-1.28796 19.32096,-1.67208 14.21139,-0.54039 16.0587,-0.36244 8.16522,0.78651 -11.96629,1.74181 -28.85876,2.28606 -27.48618,0.88557 z m 38.61506,-5.65015 c 0,-1.56134 1.30127,-2.83879 2.89169,-2.83879 1.59043,0 2.41989,0.7789 1.84326,1.73088 -0.57664,0.95198 1e-4,2.16221 1.28164,2.68938 1.28155,0.52718 0.45208,1.02573 -1.84326,1.1079 -2.53816,0.0908 -4.17333,-0.96286 -4.17333,-2.68937 z m 10.02436,-1.23868 c -0.77386,-1.27757 -0.5133,-1.67405 0.62745,-0.9547 1.07299,0.67663 4.7102,0.66715 8.08272,-0.021 5.10645,-1.04204 5.52601,-1.47426 2.509,-2.58466 -2.25439,-0.82974 -0.4701,-1.24746 4.72386,-1.10592 4.59067,0.1251 10.84896,-0.48051 13.9073,-1.34577 3.05835,-0.86529 5.01158,-1.01302 4.34052,-0.3283 -1.3043,1.33082 -26.96268,8.43866 -30.65834,8.49292 -1.21497,0.017 -2.80461,-0.95079 -3.53251,-2.1525 z m 37.33246,-9.26776 c 0.75332,-1.24365 -0.71905,-1.56184 -4.07699,-0.88104 -4.89274,0.99196 -4.9563,0.93173 -0.91937,-0.87111 2.4968,-1.11506 5.534,-1.25316 7.15858,-0.32552 2.47719,1.41449 2.44546,1.75861 -0.25979,2.81782 -1.87616,0.73459 -2.62033,0.44507 -1.90243,-0.74015 z m 8.04439,-4.33477 c 1.1362,-1.39687 1.5614,-3.05448 0.94486,-3.68354 -0.61653,-0.62907 0.64271,-1.0082 2.79832,-0.84253 4.68958,0.36043 4.68398,0.33766 1.00456,4.09189 -3.64702,3.72118 -7.72466,4.09408 -4.74774,0.43418 z m -28.60245,-17.50513 c -4.02777,-2.60733 -5.65388,-4.34526 -3.61359,-3.86207 14.31032,3.38896 40.80347,1.86037 64.45477,-3.71889 3.00881,-0.70978 5.10074,-0.40926 5.10074,0.73271 0,1.06479 1.8333,1.44681 4.074,0.84895 3.50078,-0.9341 3.6236,-1.24826 0.87286,-2.23279 -2.33931,-0.83725 -0.92026,-2.00825 5.27086,-4.3495 4.65959,-1.76209 7.91827,-2.28965 7.24153,-1.17236 -0.80826,1.33437 0.12223,1.5934 2.71142,0.75489 8.62165,-2.79204 3.23149,0.75872 -8.30534,5.47112 -9.7023,3.96309 -12.80203,4.53281 -14.91711,2.74174 -2.07244,-1.75492 -3.17112,-1.74551 -4.90979,0.0422 -1.75469,1.80405 -1.53675,2.02981 1.00602,1.04208 1.78526,-0.69348 3.24592,-0.43859 3.24592,0.56641 0,1.66955 -23.13077,6.22978 -29.67701,5.85084 -1.53023,-0.0886 -7.83344,0.33089 -14.00715,0.93215 -9.84865,0.95915 -12.12282,0.51194 -18.54813,-3.64739 z m -158.35053,1.20793 c -1.70115,-1.07274 -1.4541,-1.78755 0.94206,-2.72573 1.78634,-0.69942 3.9991,-0.50521 4.91723,0.43159 2.19822,2.24292 -2.8229,4.2089 -5.85929,2.29414 z m 249.66518,-17.86494 c -0.56425,-1.50032 0.21672,-3.21441 1.73552,-3.80908 1.5583,-0.61014 2.26771,-0.26609 1.62823,0.78963 -1.48283,2.44806 0.27136,2.36945 5.02268,-0.22509 3.07859,-1.68112 3.3298,-2.42452 1.26918,-3.75606 -2.01617,-1.30284 -1.83723,-1.66637 0.83138,-1.68912 4.82003,-0.0411 2.88277,4.06183 -3.79745,8.04263 -4.78431,2.851 -5.82289,2.95145 -6.68954,0.64709 z m -117.9308,-2.12479 c -7.10453,-3.98352 -20.23531,-18.57077 -19.1984,-21.32788 0.64871,-1.72485 1.61215,-1.15437 3.06215,1.81317 1.1636,2.38141 4.18587,5.39862 6.71613,6.7049 2.53027,1.30628 3.83542,2.38761 2.90034,2.40296 -0.93509,0.0151 1.56891,2.97318 5.56444,6.57295 7.78883,7.01739 7.97653,7.77069 0.95534,3.8339 z m -51.12746,-31.12624 c -1.8293,-2.06248 -2.78794,-5.06187 -2.15539,-6.74381 1.16815,-3.10603 4.87509,-2.17904 4.87509,1.21911 0,1.04089 -0.96363,1.28487 -2.14139,0.54217 -1.32675,-0.83665 -1.63792,-0.51916 -0.81795,0.83456 0.7279,1.20172 2.5262,2.18494 3.99621,2.18494 1.47002,0 2.67276,1.27746 2.67276,2.83879 0,3.89724 -2.49765,3.55702 -6.42933,-0.87576 z M 215.99045,373.539 c -1.20303,-1.47903 -1.62689,-3.26098 -0.94192,-3.95989 2.57547,-2.62782 6.80714,-1.97447 8.5339,1.31762 1.40291,2.67467 1.01237,3.61921 -1.80754,4.37162 -1.97842,0.52788 -4.58141,-0.25032 -5.78444,-1.72935 z m -8.14025,-12.0433 c -1.42153,-2.34686 4.8918,-11.44584 7.40896,-10.67803 2.8445,0.86767 3.35479,6.73047 0.85345,9.80567 -2.57868,3.1703 -6.61252,3.5962 -8.26241,0.87236 z m -5.3934,-7.08668 c -2.06756,-2.10959 -1.12158,-3.47903 2.60088,-3.76514 2.0403,-0.15689 3.70963,0.42249 3.70963,1.28732 0,2.03787 -4.86826,3.9494 -6.31051,2.47782 z m -2.21691,-8.36895 c -1.19016,-1.9649 5.10454,-10.9632 7.60001,-10.86426 3.11887,0.12358 9.43912,3.31749 6.84609,3.45954 -1.33539,0.0732 -1.85446,1.07988 -1.15348,2.23714 1.83397,3.02777 -3.22444,5.66351 -6.13656,3.19751 -1.83943,-1.55762 -2.17032,-1.37957 -1.3735,0.73911 1.11307,2.95961 -4.06749,4.0624 -5.78256,1.23096 z m -2.60146,-8.21796 c 0,-1.56133 1.3542,-2.83879 3.00933,-2.83879 2.46466,0 2.59141,0.51381 0.7003,2.83879 -1.26997,1.56134 -2.62417,2.83879 -3.00934,2.83879 -0.38516,0 -0.70029,-1.27745 -0.70029,-2.83879 z m 12.9247,-8.9895 c -0.0546,-3.94311 -0.2413,-4.01312 -2.52299,-0.94626 -2.91346,3.91604 -12.25652,4.5003 -12.25652,0.76646 0,-3.29871 5.98685,-8.80969 9.57039,-8.80969 1.53255,0 3.91344,-2.14861 5.29086,-4.77469 2.55966,-4.88 5.62626,-5.37535 7.01229,-1.1327 0.42628,1.30482 -1.03673,2.85584 -3.25113,3.44669 -3.54536,0.94598 -3.88148,1.94809 -2.8146,8.39132 0.66637,4.02438 0.72088,7.31706 0.12114,7.31706 -0.59974,0 -1.11699,-1.91618 -1.14943,-4.25819 z m 55.17763,2.83879 c -0.40958,-0.78066 -0.12464,-3.54848 0.63307,-6.15071 1.28778,-4.42239 1.38981,-4.32972 1.56262,1.4194 0.17844,5.93295 -0.64004,7.69641 -2.19569,4.73131 z m -5.03867,-13.62543 c 0,-0.92308 0.53348,-3.09685 1.18552,-4.83059 0.94571,-2.51458 1.50279,-2.64161 2.75382,-0.62792 2.23518,3.59778 2.00322,4.81013 -1.15712,6.04752 -1.53022,0.59914 -2.78222,0.33409 -2.78222,-0.58901 z m -58.06934,-4.55911 c -0.48828,-1.29833 0.67706,-2.45167 2.62872,-2.60167 4.09469,-0.31473 4.70577,2.40557 0.87712,3.90464 -1.44579,0.56607 -3.02342,-0.0202 -3.50584,-1.30297 z m -1.48175,-7.12069 c -2.12795,-1.4283 -1.95303,-2.22744 0.98906,-4.51846 1.96582,-1.53081 3.02933,-3.33925 2.36334,-4.01878 -0.66599,-0.67953 -2.48305,-0.15821 -4.03793,1.15844 -2.33528,1.97752 -2.82704,1.85984 -2.82704,-0.67658 0,-2.22977 1.65057,-3.0341 6.02814,-2.93748 5.83322,0.12869 15.7563,3.25011 11.1871,3.519 -1.24317,0.0732 -1.81804,1.30898 -1.2775,2.74626 1.268,3.37153 -8.76063,7.1873 -12.42517,4.7276 z m 57.93159,-1.66326 c 0.31132,-8.40193 -0.15469,-10.62939 -1.70379,-8.14314 -0.97524,1.56531 -2.25662,1.6813 -4.14491,0.37517 -2.33779,-1.61703 -2.22007,-2.2187 0.81359,-4.15827 1.95078,-1.24724 4.94167,-3.54516 6.64641,-5.10649 3.68603,-3.37595 7.42745,-4.44598 7.42745,-2.12425 0,0.91343 -1.252,2.72098 -2.78222,4.01677 -1.53022,1.2958 -2.84089,4.59371 -2.91259,7.3287 -0.0718,2.735 -0.89285,6.67599 -1.82481,8.75777 -1.54797,3.45787 -1.67929,3.37608 -1.51913,-0.94626 z m -63.23727,-15.61334 c 0.12761,-4.8921 7.12339,-11.21291 11.01533,-9.95255 4.32377,1.40021 4.70014,4.2741 1.17949,9.00629 -2.8167,3.78598 -12.28806,4.5209 -12.19482,0.94626 z m 59.33823,-6.27391 c 0.99491,-2.66998 1.80891,-7.75794 1.80891,-11.30656 0,-5.2548 1.03254,-6.99684 5.56444,-9.38802 3.06044,-1.6148 5.56444,-3.90769 5.56444,-5.09535 0,-1.18763 0.56318,-1.58472 1.2515,-0.8824 0.6883,0.70231 2.76161,-1.07193 4.60732,-3.94276 3.93195,-6.11578 4.90253,-6.36554 7.35573,-1.89279 2.0241,3.6904 0.73966,7.0976 -2.65884,7.05301 -1.35223,-0.017 -1.12993,-0.79125 0.57317,-1.99427 2.29411,-1.6205 2.13141,-1.8585 -0.9274,-1.35658 -2.38969,0.39213 -3.72868,2.09754 -3.76316,4.79303 -0.0295,2.30138 -1.19561,5.2669 -2.59149,6.59002 -2.09134,1.98231 -2.33699,1.8228 -1.3958,-0.90626 0.62819,-1.82155 0.3337,-3.31192 -0.65442,-3.31192 -0.98813,0 -1.79661,2.65919 -1.79661,5.9093 0,4.79014 -0.48147,5.50161 -2.54217,3.75661 -2.08073,-1.76196 -2.4163,-1.04982 -1.8488,3.92343 0.66085,5.79121 0.55668,5.90347 -2.22123,2.3941 -2.78028,-3.51232 -2.86107,-3.42863 -1.75327,1.81603 0.75679,3.58284 0.31623,6.04494 -1.26474,7.068 -4.20872,2.7235 -5.17389,1.78197 -3.30758,-3.22662 z m -48.85507,-9.1088 c -1.12404,-2.98878 2.02967,-6.85447 5.59201,-6.85447 3.26136,0 3.0383,2.8749 -0.50345,6.48866 -3.55513,3.62742 -3.85383,3.64888 -5.08856,0.36581 z m 6.14846,-10.63952 c 0,-1.04089 0.83466,-1.89253 1.85481,-1.89253 1.02015,0 1.85481,-1.41939 1.85481,-3.15421 0,-1.73481 0.49355,-2.65064 1.09677,-2.03515 1.54731,1.57878 -0.98803,8.97442 -3.07657,8.97442 -0.9514,0 -1.72982,-0.85164 -1.72982,-1.89253 z m -6.60185,-2.07413 c -1.98935,-3.28427 4.22705,-8.67608 6.88095,-5.9682 1.64401,1.67742 1.59289,2.90206 -0.21386,5.12334 -2.79797,3.43989 -4.93147,3.71024 -6.66709,0.84486 z m 0.0581,-17.64986 c 0.82565,-13.95995 5.426,-19.93005 12.3459,-16.02192 2.41962,1.36652 5.02531,2.30365 5.79042,2.08251 0.76511,-0.22114 1.39111,0.87539 1.39111,2.43672 0,3.61528 -0.87068,3.57257 -4.59287,-0.2253 -3.97172,-4.05248 -5.52429,-2.09533 -5.52429,6.96384 0,4.10047 -0.64497,7.45541 -1.43327,7.45541 -0.78829,0 -1.43326,0.90189 -1.43326,2.00422 0,1.10232 0.83466,1.47787 1.85481,0.83457 1.02015,-0.64331 1.85481,-0.21036 1.85481,0.9621 0,1.31226 -1.51507,1.6411 -3.94119,0.85544 -2.44602,-0.79214 -4.51508,-0.32887 -5.45394,1.22111 -0.84747,1.39913 -1.2249,-2.36921 -0.85824,-8.5687 z m 62.21463,3.56644 c 1.00559,-2.69865 1.82833,-7.81006 1.82833,-11.35868 0,-5.2548 1.03253,-6.99683 5.56444,-9.38803 3.06044,-1.61479 5.56444,-3.62381 5.56444,-4.46449 0,-2.62655 5.35247,-1.66767 6.41164,1.14863 0.55378,1.47243 -0.24498,4.50071 -1.775,6.72952 -3.15991,4.60316 -3.7473,2.90951 -0.8841,-2.54922 1.53121,-2.91926 1.35209,-3.4044 -0.9274,-2.51189 -1.55384,0.60838 -2.82514,2.66805 -2.82514,4.57703 0,1.90899 -0.83467,3.99722 -1.85482,4.64053 -1.02014,0.6433 -1.85481,2.82265 -1.85481,4.843 0,2.02035 -0.88393,3.67336 -1.96428,3.67336 -1.08036,0 -1.44843,-0.85163 -0.81794,-1.89252 0.63049,-1.04089 0.17194,-1.89253 -1.01902,-1.89253 -1.37414,0 -1.7469,1.70117 -1.02016,4.6556 0.85418,3.47248 0.20495,5.16903 -2.55466,6.67598 -3.41576,1.86521 -3.55946,1.6436 -1.87152,-2.88629 z m -59.01526,-28.09298 c -0.19279,-5.23259 1.04056,-7.36691 7.15368,-12.37942 7.80703,-6.40147 14.76521,-6.63392 14.71042,-0.49143 -0.0245,2.75129 -0.27681,2.79829 -1.85481,0.3456 -1.62348,-2.52337 -2.02935,-2.52337 -3.65283,0 -1.00452,1.56134 -1.83919,3.90334 -1.85481,5.20445 -0.0156,1.30111 -0.65607,2.15275 -1.42323,1.89252 -0.76716,-0.26022 -3.97122,2.27729 -7.12014,5.63892 l -5.72532,6.11204 -0.23296,-6.32268 z m 65.59961,-5.42828 c 1.28113,-5.46466 2.86242,-12.37825 3.51396,-15.36352 0.65154,-2.98527 1.77001,-4.83048 2.48547,-4.10047 0.71545,0.73001 1.17448,1.89505 1.02003,2.58897 -0.15443,0.69393 0.35611,2.53914 1.13454,4.10047 0.77843,1.56134 1.91997,5.00173 2.53677,7.64531 0.90277,3.86931 0.40249,4.86177 -2.56573,5.08991 -2.02794,0.15587 -3.20254,-0.5167 -2.61022,-1.4946 0.59233,-0.97789 0.0957,-1.77799 -1.10363,-1.77799 -1.33291,0 -1.76617,1.61709 -1.1145,4.15971 0.58636,2.28783 0.16415,5.26856 -0.93821,6.62384 -3.89286,4.786 -4.66138,2.35137 -2.35848,-7.47163 z m -8.43725,-3.78505 c 0.0148,-1.30111 0.84204,-3.64311 1.83648,-5.20444 1.38444,-2.17364 1.71758,-1.61935 1.42187,2.36565 -0.37423,5.04281 -3.31558,7.60543 -3.25835,2.83879 z m -55.67281,-9.93576 c 0,-5.32271 0.55107,-5.57642 5.83954,-2.68856 3.60365,1.96782 3.61619,2.13915 0.34177,4.67112 -4.88876,3.78029 -6.18131,3.36573 -6.18131,-1.98256 z m 76.02204,3.31192 c -0.0148,-0.78067 -0.58219,-3.54848 -1.26279,-6.15071 -1.15876,-4.43043 -1.0392,-4.52929 1.88015,-1.55457 3.42031,3.4852 4.20076,9.12468 1.26277,9.12468 -1.02015,0 -1.8662,-0.63873 -1.88013,-1.4194 z m -60.1787,-10.31481 c 0.81015,-5.33133 0.67916,-5.62192 -0.89557,-1.98661 -1.86488,4.30516 -4.80599,5.20536 -10.15903,3.10944 -5.16462,-2.02214 -3.22189,-8.06574 4.20472,-13.08036 5.98851,-4.04358 7.9504,-4.50528 12.17704,-2.86564 2.77111,1.075 5.19272,1.95454 5.38134,1.95454 0.18863,0 0.47268,-1.91618 0.63123,-4.25818 0.15855,-2.342 1.26948,-8.30346 2.46872,-13.24769 1.6563,-6.82846 3.03613,-8.98949 5.73987,-8.98949 1.95768,0 3.5848,-1.06455 3.61583,-2.36566 0.0312,-1.30626 0.90673,-0.87578 1.9552,0.96125 1.04433,1.8298 1.38859,4.16923 0.765,5.19873 -0.72373,1.19485 0.68146,1.16762 3.88539,-0.0753 4.52919,-1.75701 4.77382,-1.64544 2.50581,1.1429 -3.52566,4.33455 -3.93231,8.91949 -0.6781,7.64534 4.17433,-1.63441 2.96464,1.35839 -2.05613,5.08693 l -4.57876,3.40027 -0.21816,-7.18533 c -0.21038,-6.9287 -0.27257,-6.85391 -1.74173,2.0943 -0.83797,5.1038 -2.5234,9.91012 -3.7454,10.68072 -1.23594,0.77938 -1.81653,3.56448 -1.30845,6.27644 0.53812,2.87224 0.17621,4.41048 -0.88083,3.7439 -0.98683,-0.6223 -2.44227,-0.0616 -3.23431,1.24599 -2.13516,3.525 -5.56444,0.47149 -5.56444,-4.95469 0,-6.6383 -3.04514,-3.98406 -4.49861,3.92114 -1.57277,8.55406 -5.0393,10.89567 -3.77063,2.54703 z m -23.83044,-0.83118 c -0.65236,-0.66563 -0.7338,-1.95698 -0.18097,-2.86966 1.18557,-1.95729 4.45845,-0.26958 4.45845,2.29906 0,2.03463 -2.51395,2.36998 -4.27748,0.5706 z m 83.18078,-4.70435 c 0.8419,-2.70657 0.57946,-3.59851 -0.80243,-2.72709 -3.60038,2.2704 -2.29279,-8.42995 1.65611,-13.55222 2.04029,-2.64656 3.68308,-5.76161 3.65064,-6.92235 -0.0325,-1.16074 -1.37078,-0.40716 -2.97406,1.67461 -2.91506,3.78506 -2.91506,3.78506 -1.89471,0 0.56119,-2.08177 1.58375,-7.19159 2.27235,-11.35515 0.6886,-4.16356 2.91497,-10.38272 4.94749,-13.82036 2.03252,-3.43764 3.2411,-6.71389 2.68573,-7.28055 -0.55537,-0.56666 -4.02531,-1.11752 -7.71098,-1.22411 l -6.70121,-0.19382 4.6793,-2.50158 c 3.80133,-2.03221 5.39039,-2.05018 8.4693,-0.0957 2.08451,1.32321 3.53819,3.6833 3.23038,5.24463 -0.3078,1.56134 0.92507,4.48974 2.73973,6.50757 1.81464,2.01783 3.21615,5.85019 3.11447,8.51636 l -0.18489,4.8476 -1.41461,-4.73132 c -1.52517,-5.10105 -2.43349,-3.8346 -4.67999,6.52514 -0.66536,3.06838 -1.77841,4.77165 -2.47343,3.78505 -1.70051,-2.41394 -5.9007,-3.16137 -5.9007,-1.05004 0,1.96453 5.65557,4.79277 8.29462,4.14798 0.9915,-0.24225 0.37248,1.17212 -1.37565,3.14304 -2.41376,2.72141 -6.91897,18.60688 -6.91897,24.39645 0,0.37838 -0.8909,0.68795 -1.97981,0.68795 -1.17461,0 -1.47098,-1.63578 -0.72868,-4.02205 z m -93.48922,-3.18313 c -0.38503,-3.771 3.73194,-19.29018 5.11735,-19.29018 0.67097,0 0.90199,3.4018 0.51338,7.55956 -0.3886,4.15776 -1.39432,7.12586 -2.23492,6.59578 -0.84061,-0.53009 -1.89171,0.96502 -2.33579,3.32246 -0.44409,2.35744 -0.92109,3.17301 -1.06002,1.81238 z m 22.00517,-7.86844 c 0,-2.1184 1.20274,-3.85163 2.67276,-3.85163 4.43502,0 5.10152,3.45801 1.08882,5.6492 -3.20616,1.75077 -3.76158,1.48535 -3.76158,-1.79757 z m 79.02437,2.14754 c -0.60549,-0.99963 0.16637,-2.31369 1.71524,-2.92013 1.54886,-0.60644 3.57782,-3.03768 4.50881,-5.40275 1.62398,-4.12559 1.69745,-4.1392 1.81024,-0.33527 0.13336,4.49579 -6.33397,11.46525 -8.03429,8.65815 z m -63.20879,-4.02465 c -0.71304,-1.17718 -0.27097,-3.40106 0.98237,-4.94195 1.25335,-1.54089 1.76341,-3.3275 1.13347,-3.97025 -0.62994,-0.64275 -2.62688,0.65114 -4.43764,2.87531 -4.60034,5.6506 -11.63897,3.65017 -11.63897,-3.30787 0,-6.96356 4.94262,-10.54165 15.174,-10.98486 l 8.68215,-0.37609 -2.82241,9.83872 c -3.14989,10.98037 -5.14634,14.04773 -7.07297,10.86699 z m -32.29561,-13.32968 c 0.0861,-1.56133 0.82475,-4.96788 1.64152,-7.5701 l 1.48504,-4.73132 0.15649,4.73132 c 0.0861,2.60222 -0.65262,6.00877 -1.64152,7.5701 -1.59823,2.52337 -1.78062,2.52337 -1.64152,0 z m 107.36589,-2.09501 c 0,-1.15225 -1.252,-1.60479 -2.78222,-1.00566 -1.53022,0.59915 -2.78222,0.36377 -2.78222,-0.52305 0,-1.79893 7.69996,-4.29081 9.03851,-2.92506 0.4696,0.47916 -0.0937,0.8712 -1.25191,0.8712 -1.15814,0 -1.6253,1.27746 -1.0381,2.83879 0.58722,1.56134 0.56101,2.83879 -0.0582,2.83879 -0.61919,0 -1.12582,-0.94275 -1.12582,-2.09501 z m -28.21889,-1.90761 c -1.11309,-2.95964 3.36586,-8.21355 4.87625,-5.71998 0.53133,0.87718 -0.12501,3.11728 -1.45846,4.97799 -1.93407,2.69879 -2.62541,2.84887 -3.41779,0.74199 z m -72.86844,-3.56748 c -0.63049,-1.04089 -0.63049,-2.74417 0,-3.78506 0.63048,-1.04088 0.14896,-1.89252 -1.07006,-1.89252 -1.57031,0 -1.87185,-2.56479 -1.03444,-8.79857 1.43837,-10.70742 4.25489,-14.91024 7.91503,-11.81082 2.91476,2.46822 3.40634,7.36171 0.73953,7.36171 -0.98813,0 -1.34508,1.20059 -0.79321,2.66797 0.55187,1.46739 -0.19447,5.08684 -1.65853,8.04324 -1.46407,2.95639 -2.28957,6.4398 -1.83445,7.74092 0.98709,2.82194 -0.63572,3.16109 -2.26387,0.47313 z m 24.18602,-9.54243 c 8.94648,-9.34406 8.02669,-11.08628 -1.46456,-2.77407 l -7.88296,6.90371 -0.59205,-7.03673 c -0.69577,-8.26926 1.92159,-10.708 9.86612,-9.19284 7.90858,1.5083 15.76592,4.80184 15.76592,6.60855 0,0.84685 -0.78203,3.63844 -1.73785,6.20353 -1.47345,3.95428 -3.15539,4.76481 -11.05543,5.32765 l -9.31758,0.66384 6.41839,-6.70364 z m 75.99614,0.15129 c -0.63532,-2.04246 -0.27198,-5.39732 0.80744,-7.45525 1.30141,-2.48117 1.33602,-4.13678 0.10276,-4.91449 -1.02289,-0.64505 -1.85982,0.10466 -1.85982,1.66598 0,1.56133 -0.90485,3.40939 -2.01081,4.1068 -1.27722,0.80542 -1.78472,-0.33651 -1.39111,-3.13016 0.45614,-3.23736 2.21068,-4.72818 6.64784,-5.6486 5.95892,-1.23609 6.02815,-1.16782 6.02815,5.94545 0,4.01836 -1.28708,8.50913 -2.91471,10.16987 -3.70928,3.78468 -4.0154,3.74283 -5.40972,-0.7396 z m -54.97672,-1.96402 c -0.56435,-7.62263 0.14504,-11.72187 3.06062,-17.68503 1.50773,-3.08375 2.74131,-6.75342 2.74131,-8.15483 0,-1.40142 0.939,-2.54803 2.08666,-2.54803 1.34784,0 1.6762,2.09405 0.92741,5.91415 -0.63759,3.25277 -1.15926,7.61524 -1.15926,9.69436 0,3.14492 -0.46737,3.38443 -2.78109,1.42519 -2.39692,-2.02972 -2.62617,-1.5648 -1.65974,3.36569 0.61674,3.1464 0.22428,7.29552 -0.87213,9.22027 -1.81997,3.19493 -2.02398,3.08771 -2.34378,-1.23177 z m -6.71806,-8.9702 c -3.25947,-1.13571 -2.88832,-5.54195 0.58126,-6.90042 1.59488,-0.62446 2.3415,-2.05708 1.65915,-3.1836 -0.80696,-1.33223 -2.67292,-0.67533 -5.33786,1.87916 -3.04673,2.92045 -6.53511,3.92738 -13.60595,3.92738 -5.22982,0 -10.10578,-0.98564 -10.83547,-2.1903 -0.96166,-1.58764 0.92204,-1.89954 6.84608,-1.13358 9.33313,1.20675 15.59205,-0.57432 15.59205,-4.43695 0,-1.45644 1.89823,-2.92291 4.21829,-3.25883 2.73485,-0.39598 4.03941,0.26956 3.70963,1.89252 -0.27976,1.37681 0.59671,2.26929 1.94772,1.98328 1.38384,-0.29296 1.90424,0.39154 1.19183,1.56766 -0.6955,1.14822 -1.80086,4.01679 -2.45639,6.3746 -0.65551,2.35781 -2.23516,3.92339 -3.51034,3.47908 z m 54.78837,-16.37221 c 2.76614,-4.57032 5.58408,-7.97156 6.26205,-7.55831 0.67797,0.41325 1.64795,-0.31849 2.15548,-1.62608 1.30327,-3.35766 -0.0695,9.00341 -1.51661,13.65515 -0.83735,2.69191 -2.79804,3.83892 -6.56221,3.83892 l -5.36809,0 5.02938,-8.30968 z m -83.29393,4.99776 c -0.1208,-0.78067 -0.11502,-2.07583 0.0128,-2.87814 0.12787,-0.80231 -1.65128,-1.13939 -3.95368,-0.74906 -2.3024,0.39032 -3.13264,0.34358 -1.84496,-0.10388 1.28767,-0.44746 1.86441,-1.60075 1.28164,-2.56286 -1.23787,-2.04364 -0.3955,-2.18244 3.64469,-0.60055 1.61371,0.6318 2.93397,2.38534 2.93397,3.89674 0,1.5114 0.83467,2.22166 1.85482,1.57835 1.02014,-0.6433 1.85481,-0.26774 1.85481,0.83457 0,2.25031 -5.44122,2.80047 -5.78409,0.58483 z m 97.70305,-9.44482 c -0.73764,-3.42674 -0.0916,-7.52607 1.73636,-11.01735 2.87381,-5.488867 2.89525,-5.426777 1.67436,4.84883 -1.48782,12.52214 -1.88746,13.24493 -3.41072,6.16852 z m -34.39134,2.69656 c -0.041,-2.22742 3.70263,-9.27841 6.93526,-13.06237 2.10057,-2.458837 3.62438,-2.788479 6.2535,-1.3528 4.12381,2.25186 4.70911,5.91404 0.69394,4.34195 -1.53022,-0.59914 -2.78222,-0.0963 -2.78222,1.11735 0,1.21368 -0.96615,1.59745 -2.14698,0.8528 -1.48172,-0.93436 -1.81102,-0.043 -1.06276,2.87659 0.85264,3.3268 0.45148,3.98273 -1.87803,3.07063 -1.62927,-0.63792 -3.64226,-0.0665 -4.47331,1.2699 -0.83105,1.33637 -1.52379,1.73505 -1.5394,0.88595 z m 19.77572,-11.99944 c -2.54039,-2.59205 -1.13507,-4.435745 3.38105,-4.435745 2.55037,0 4.63703,0.901898 4.63703,2.004215 0,1.10232 1.04334,1.3916 2.31852,0.64285 1.27518,-0.74876 1.66095,-0.62488 0.85728,0.27529 -1.89918,2.12717 -9.57522,3.16495 -11.19388,1.51339 z"
       id="path6608"
       inkscape:connector-curvature="0" />
  </g>
</svg>
