<?xml version="1.0" encoding="UTF-8" standalone="no"?>
<svg
   xmlns:dc="http://purl.org/dc/elements/1.1/"
   xmlns:cc="http://creativecommons.org/ns#"
   xmlns:rdf="http://www.w3.org/1999/02/22-rdf-syntax-ns#"
   xmlns:svg="http://www.w3.org/2000/svg"
   xmlns="http://www.w3.org/2000/svg"
   xmlns:sodipodi="http://sodipodi.sourceforge.net/DTD/sodipodi-0.dtd"
   xmlns:inkscape="http://www.inkscape.org/namespaces/inkscape"
   sodipodi:docname="crossbow.svg"
   height="100%"
   width="100%"
   inkscape:version="0.48.4 r9939"
   version="1.1"
   id="svg8438"
   viewBox="0 0 512 512">
  <metadata
     id="metadata8464">
    <rdf:RDF>
      <cc:Work
         rdf:about="">
        <dc:format>image/svg+xml</dc:format>
        <dc:type
           rdf:resource="http://purl.org/dc/dcmitype/StillImage" />
        <dc:title></dc:title>
      </cc:Work>
    </rdf:RDF>
  </metadata>
  <defs
     id="defs8462">
    <linearGradient
       id="linearGradient4077">
      <stop
         id="stop4079"
         offset="0"
         style="stop-color:#aa4400;stop-opacity:1;" />
      <stop
         style="stop-color:#ff9f00;stop-opacity:1;"
         offset="0.22752622"
         id="stop4081" />
      <stop
         style="stop-color:#803300;stop-opacity:1;"
         offset="0.4948855"
         id="stop4083" />
      <stop
         id="stop4085"
         offset="1"
         style="stop-color:#562200;stop-opacity:1;" />
    </linearGradient>
    <linearGradient
       id="linearGradient4057">
      <stop
         style="stop-color:#aa4400;stop-opacity:1;"
         offset="0"
         id="stop4059" />
      <stop
         id="stop4067"
         offset="0.22752622"
         style="stop-color:#ecd1a4;stop-opacity:1;" />
      <stop
         id="stop4065"
         offset="0.50136983"
         style="stop-color:#803300;stop-opacity:1;" />
      <stop
         style="stop-color:#562200;stop-opacity:1;"
         offset="1"
         id="stop4061" />
    </linearGradient>
    <linearGradient
       id="linearGradient3890">
      <stop
         style="stop-color:#701b1b;stop-opacity:1;"
         offset="0"
         id="stop3892" />
      <stop
         style="stop-color:#e31600;stop-opacity:1;"
         offset="1"
         id="stop3894" />
    </linearGradient>
    <linearGradient
       id="linearGradient3882">
      <stop
         style="stop-color:#600b0b;stop-opacity:1;"
         offset="0"
         id="stop3884" />
      <stop
         style="stop-color:#d11414;stop-opacity:1;"
         offset="1"
         id="stop3886" />
    </linearGradient>
    <linearGradient
       id="linearGradient3872">
      <stop
         style="stop-color:#800600;stop-opacity:1;"
         offset="0"
         id="stop3874" />
      <stop
         style="stop-color:#ff0004;stop-opacity:0;"
         offset="1"
         id="stop3876" />
    </linearGradient>
    <filter
       id="filter4074"
       inkscape:label="Black Light"
       inkscape:menu="Color"
       inkscape:menu-tooltip="Light areas turn to black"
       x="0"
       width="1"
       y="0"
       height="1"
       color-interpolation-filters="sRGB">
      <feColorMatrix
         id="feColorMatrix4076"
         type="luminanceToAlpha"
         result="result2" />
      <feComposite
         in2="SourceGraphic"
         id="feComposite4078"
         operator="arithmetic"
         in="result2"
         k3="2"
         result="result4" />
      <feBlend
         in2="result2"
         id="feBlend4080"
         in="result4"
         mode="multiply"
         result="result3" />
      <feComposite
         in2="SourceGraphic"
         id="feComposite4082"
         operator="in"
         in="result3" />
    </filter>
  </defs>
  <sodipodi:namedview
     pagecolor="#000000"
     bordercolor="#666666"
     borderopacity="1"
     objecttolerance="10"
     gridtolerance="10"
     guidetolerance="10"
     inkscape:pageopacity="0"
     inkscape:pageshadow="2"
     inkscape:window-width="1190"
     inkscape:window-height="1126"
     id="namedview8460"
     showgrid="false"
     inkscape:zoom="0.5"
     inkscape:cx="215.54519"
     inkscape:cy="267.78497"
     inkscape:window-x="160"
     inkscape:window-y="130"
     inkscape:window-maximized="0"
     inkscape:current-layer="svg8438" />
  <path
     style="fill:#000000"
     id="path3978"
     d="M -13.466093,0.1885736 H 514.89024 V 516.42957 H -13.466093 z"
     inkscape:connector-curvature="0" />
  <path
     transform="matrix(0.92592215,0,0,1,-12.92858,0)"
     sodipodi:end="6.1122693"
     sodipodi:start="6.11213"
     d="m 101.95774,-78.577314 a 39.244427,23.688076 0 0 1 9.3e-4,0.0033 l -38.672613,4.028989 z"
     sodipodi:ry="23.688076"
     sodipodi:rx="39.244427"
     sodipodi:cy="-74.545074"
     sodipodi:cx="63.286057"
     id="path4121"
     style="fill:#333333;fill-opacity:1;fill-rule:nonzero;stroke:none"
     sodipodi:type="arc" />
  <path
     transform="matrix(0.92592215,0,0,1,-12.92858,0)"
     sodipodi:end="6.1122693"
     sodipodi:start="6.11213"
     d="m 76.035958,-54.360671 a 10.606602,11.755651 0 0 1 2.51e-4,0.0016 l -10.452057,1.999461 z"
     sodipodi:ry="11.755651"
     sodipodi:rx="10.606602"
     sodipodi:cy="-52.359596"
     sodipodi:cx="65.584152"
     id="path4123"
     style="fill:#333333;fill-opacity:1;fill-rule:nonzero;stroke:none"
     sodipodi:type="arc" />
  <path
     transform="matrix(0.92592215,0,0,1,-12.92858,0)"
     sodipodi:end="6.1122693"
     sodipodi:start="6.11213"
     d="m 69.424272,-57.251206 a 15.46796,16.793785 0 0 1 3.67e-4,0.0023 l -15.242583,2.856372 z"
     sodipodi:ry="16.793785"
     sodipodi:rx="15.46796"
     sodipodi:cy="-54.392529"
     sodipodi:cx="54.182056"
     id="path4125"
     style="fill:#333333;fill-opacity:1;fill-rule:nonzero;stroke:none"
     sodipodi:type="arc" />
  <g
     id="g4393"
     transform="matrix(0.02308513,2.0091801,-1.879966,0.02160048,710.796,-334.4386)">
    <path
       style="fill:#d2cfcd"
       d="m 182.66667,373.33333 c -1.29855,-1.29854 -0.64309,-12.35394 0.982,-16.56309 2.4608,-6.37374 11.21931,-19.22613 19.98046,-29.31968 9.85684,-11.3559 50.63702,-54.73783 72.33556,-76.95056 40.951,-41.9214 68.56027,-70.8172 68.84952,-72.05776 0.45145,-1.93618 -7.54095,-10.26219 -12.06798,-12.57171 -4.61376,-2.35376 -5.6316,-4.44306 -3.26308,-6.69807 1.25087,-1.19092 1.8858,-1.32541 2.20521,-0.46708 0.75511,2.02914 19.72139,15.32362 21.77792,15.26531 1.09776,-0.0311 -3.40514,-4.4136 -7.43527,-7.23641 -1.32569,-0.92855 -2.11877,-1.97985 -1.76241,-2.33622 0.35637,-0.35636 3.10548,0.98329 6.10914,2.977 3.00366,1.99372 6.122,3.62494 6.92966,3.62494 0.80766,0 5.07084,-3.4875 9.47374,-7.75 4.40291,-4.2625 10.19084,-9.48323 12.86207,-11.60163 4.6711,-3.70436 4.85679,-4.04669 4.85679,-8.95341 l 0,-5.10178 4.86311,-1.38666 c 2.84692,-0.81177 6.32965,-1.11154 8.40046,-0.72305 4.09119,0.76751 8.83783,5.08021 9.79684,8.9012 0.94916,3.78177 -0.36682,11.15469 -2.45022,13.72758 -1.6177,1.99777 -2.0919,2.08671 -5.19519,0.97442 -3.41108,-1.22262 -3.42073,-1.2174 -8.415,4.55189 C 381.94512,174.67619 371.64464,185 370.18683,185 c -0.80649,0 -2.04166,-0.78679 -2.74483,-1.74843 -2.21131,-3.02415 -2.80436,-0.48892 -0.99431,4.25062 1.18528,3.10362 3.18117,5.64992 6.28817,8.02229 2.50346,1.91154 4.85369,3.47552 5.22273,3.47552 0.87399,0 4.04141,6.64946 4.04141,8.48424 0,0.77901 0.73818,1.82949 1.6404,2.33439 2.0063,1.12278 0.94124,3.18137 -1.64596,3.18137 -1.18163,0 -3.27029,-2.08321 -5.58493,-5.57037 -2.13457,-3.21586 -5.85002,-7.02003 -8.79011,-9 -5.81151,-3.9137 -6.60554,-4.11411 -6.65484,-1.67963 -0.0631,3.11845 -2.30921,5.9938 -14.03854,17.97166 -6.34367,6.47809 -24.55966,25.50077 -40.47998,42.27263 -15.92032,16.77186 -35.08306,36.83409 -42.58386,44.58273 -13.99944,14.46201 -15.85999,16.97691 -17.74588,23.98722 -1.02764,3.81999 -1.55222,4.2659 -8.72899,7.41985 -14.98209,6.58415 -36.91612,22.82137 -46.28803,34.26591 -5.24786,6.40843 -6.90909,7.60685 -8.43261,6.08333 z"
       id="path4413"
       inkscape:connector-curvature="0" />
    <path
       style="fill:#c2bcb8"
       d="m 183.36616,371.51181 c -1.27238,-3.31576 0.28482,-13.08368 2.91656,-18.29496 3.30145,-6.53739 14.29436,-21.39905 22.72073,-30.71685 9.93229,-10.98304 74.74091,-78.86265 107.39228,-112.48112 16.28235,-16.76461 29.58508,-31.16461 29.56163,-32 -0.0609,-2.17044 -6.71365,-9.28968 -11.70736,-12.52833 C 330.4799,163.04546 328.83037,161 330.62869,161 c 0.75884,0 11.17276,7.03447 17.26511,11.66236 4.65899,3.53908 8.1062,4.32054 8.1062,1.83764 0,-0.825 0.43683,-1.5 0.97074,-1.5 0.53391,0 4.47141,-3.41166 8.75,-7.58147 4.27859,-4.16981 10.60584,-9.88481 14.06054,-12.69999 l 6.28129,-5.11852 -0.64534,-4.30338 c -0.63098,-4.20767 -0.56566,-4.33668 2.9366,-5.80001 12.71353,-5.31206 22.58768,5.13425 17.15136,18.1452 -1.53081,3.66373 -2.41318,3.86565 -7.82215,1.79003 -0.93589,-0.35913 -2.76276,0.8109 -4.84291,3.10166 -1.83707,2.02308 -4.46513,4.88427 -5.84013,6.35821 -1.375,1.47394 -4.48646,5.04829 -6.91435,7.94301 -2.42789,2.89472 -5.70025,6.17877 -7.27192,7.2979 l -2.85758,2.03477 -1.90709,-2.3337 c -1.50356,-1.8399 -2.16924,-2.07601 -3.14598,-1.11581 -2.55468,2.51141 0.76794,9.24537 8.15802,16.53387 4.58453,4.52151 7.1826,7.97132 7.86528,10.44377 0.56068,2.0306 0.83753,3.87389 0.61523,4.09619 -0.2223,0.2223 -2.07081,-1.91564 -4.10779,-4.75097 -4.05351,-5.64218 -11.37076,-11.73584 -15.26646,-12.7136 -2.9226,-0.73353 -5.51132,2.01375 -4.60079,4.88259 0.42921,1.35232 -2.81806,5.31869 -12.74531,15.56773 -7.32669,7.56419 -19.59272,20.4962 -27.25784,28.7378 -7.66511,8.2416 -25.5203,27.13472 -39.67818,41.98472 -14.15788,14.85 -26.77064,28.31894 -28.02835,29.93097 -1.25771,1.61203 -3.05535,5.21203 -3.99474,8 -1.69132,5.01957 -1.81178,5.1227 -12.34474,10.56903 -15.07814,7.79653 -27.4225,16.83395 -39.28316,28.75955 -7.67473,7.71675 -10.41777,9.92577 -10.86809,8.75226 z M 349.5077,192.15853 c 1.62807,-1.36183 1.69095,-4.65853 0.0889,-4.65853 -1.5839,0 -6.8328,7.30874 -6.1002,8.49411 0.50555,0.818 1.2551,0.62226 2.56117,-0.66883 1.01555,-1.00391 2.56813,-2.42894 3.45017,-3.16675 z m 51.30414,-44.89705 c -0.18414,-0.95618 -1.15448,-1.89637 -2.1563,-2.0893 -1.55997,-0.30042 -1.66095,-0.0508 -0.70333,1.73852 1.35362,2.52926 3.32576,2.77118 2.85963,0.35078 z"
       id="path4411"
       inkscape:connector-curvature="0" />
    <path
       style="fill:#b3adaa"
       d="m 183.66667,371.33333 c -1.25148,-1.25147 -0.66986,-9.2846 0.982,-13.56309 2.38619,-6.18047 11.03645,-18.9661 19.50376,-28.8278 13.54499,-15.77556 77.31975,-82.8439 125.1601,-131.62388 19.88672,-20.27731 19.2075,-18.84607 12.37131,-26.06856 -4.01549,-4.2424 -2.03084,-4.16125 3.61429,0.14777 8.77571,6.69865 7.68487,6.91724 18.53373,-3.71388 5.31748,-5.21075 12.66536,-11.9903 16.32863,-15.06568 l 6.66048,-5.59158 -1.08583,-3.53797 c -1.30758,-4.26049 -0.54373,-5.28175 4.8926,-6.54132 5.47456,-1.26843 9.72826,-0.22897 12.98845,3.17393 2.35736,2.46056 2.80918,3.78031 2.79257,8.15712 -0.0109,2.87188 -0.5973,6.27921 -1.30311,7.57183 -1.14118,2.08996 -1.76024,2.2787 -5.59013,1.70438 -4.18408,-0.62744 -4.41302,-0.51628 -8.03164,3.89977 -4.1989,5.1242 -5.55772,5.52363 -7.80946,2.29563 -0.86323,-1.2375 -1.59312,-1.7426 -1.62197,-1.12245 -0.0289,0.62016 0.62255,1.68776 1.44755,2.37245 2.71987,2.25729 1.58391,4.59087 -5.62054,11.54618 l -7.12055,6.87431 -1.87711,-2.31813 C 366.57102,178.24867 364,178.98513 364,182.50073 c 0,4.79597 3.05882,9.98731 9.53566,16.18366 3.87012,3.70253 6.46434,7.01335 6.46434,8.25 0,2.85145 -0.34832,2.64876 -3.41713,-1.98852 -2.48976,-3.7623 -13.49843,-11.97306 -15.98791,-11.92452 -1.56324,0.0305 -6.83971,7.77362 -6.1061,8.96062 0.71521,1.15724 -14.86899,16.68652 -17.62258,17.56047 -1.02645,0.32578 -1.86628,1.37526 -1.86628,2.33218 0,1.94405 -24.16783,28.51304 -61.43929,67.54349 -23.73739,24.85766 -27.53609,29.66412 -28.98385,36.67302 -0.42911,2.07746 -1.87749,3.15968 -7.30604,5.45906 -13.79311,5.84237 -39.5568,24.92892 -47.7511,35.37551 -4.02921,5.13669 -4.65372,5.60697 -5.85305,4.40763 z M 352,189.89926 c 0,-0.9099 -0.69344,-2.22987 -1.54098,-2.93327 -1.2969,-1.07633 -2.10868,-0.73935 -5.12523,2.12756 -3.81228,3.62316 -8.79746,13.3472 -7.72898,15.07604 C 338.43842,205.51839 352,192.07444 352,189.89926 z m 49,-42.79227 C 401,145.53908 399.22573,144 397.41821,144 c -0.90128,0 -0.35295,2.66526 0.78179,3.8 1.73801,1.73801 2.8,1.47517 2.8,-0.69301 z m -68.55887,16.33784 c -1.86402,-1.49339 -1.85176,-1.51185 0.30887,-0.46481 1.2375,0.59969 2.25,1.29951 2.25,1.55516 0,0.76522 -0.51861,0.54424 -2.55887,-1.09035 z"
       id="path4409"
       inkscape:connector-curvature="0" />
    <path
       style="fill:#aaa29c"
       d="m 183.45619,369.68147 c -1.6326,-6.50481 2.9778,-17.43071 12.9775,-30.75454 10.3914,-13.84574 66.32903,-73.20592 141.94405,-150.62889 9.79788,-10.03215 9.66809,-9.60049 4.88752,-16.25541 -1.99106,-2.77171 -1.32225,-2.49134 5.13478,2.1525 4.06119,2.92077 8.59996,3.72973 8.59996,1.53279 0,-1.50464 13.95728,-15.28712 22.5,-22.2182 3.3,-2.67744 6.39341,-5.20335 6.87424,-5.61313 0.49237,-0.41962 0.36577,-2.19776 -0.28982,-4.07083 -1.04013,-2.97168 -0.93509,-3.51208 0.98654,-5.07576 3.29608,-2.6821 12.07457,-2.38905 15.45168,0.51581 3.06949,2.64027 4.37301,7.64545 3.40249,13.06462 -0.96848,5.40773 -2.21446,6.38324 -6.1891,4.8456 -3.18012,-1.23027 -3.31899,-1.16268 -8.03762,3.91189 l -4.80158,5.16379 -2.44447,-2.29647 c -3.14861,-2.95797 -4.09704,-2.04453 -1.41604,1.36381 1.53571,1.95234 1.81738,3.08579 1.09996,4.42631 C 383.05362,171.76832 372.47839,182 371.47015,182 c -0.35726,0 -1.43911,-0.97504 -2.4041,-2.16676 C 366.54939,176.72529 364,178.01873 364,182.40352 c 0,5.50758 1.69343,8.6188 8.56576,15.7373 3.53883,3.66559 6.43209,7.04597 6.42946,7.51195 -0.003,0.46598 -1.46513,-0.72953 -3.25,-2.65668 -3.89226,-4.20253 -13.15715,-10.28897 -14.95816,-9.82655 -0.70788,0.18175 -9.05626,8.26369 -18.55196,17.95985 -11.6548,11.90086 -17.07663,18.12001 -16.68551,19.13924 0.35251,0.91863 -0.74712,2.82581 -2.80827,4.87061 -1.8632,1.84842 -5.99788,6.51076 -9.18816,10.36076 -3.19029,3.85 -18.68237,20.64922 -34.42684,37.33159 C 249.81763,313.8862 245,319.63298 245,323.5397 c 0,3.1802 -2.78991,5.93773 -8,7.90712 -11.22757,4.24397 -35.3604,21.74156 -45.86508,33.25464 -6.88035,7.54083 -7.01422,7.62765 -7.67873,4.98001 z M 315.18195,239.5 c 0.6265,-1.375 1.68675,-2.5 2.35612,-2.5 1.77633,0 3.78256,-2.6838 2.56756,-3.43471 -1.05689,-0.6532 -8.10563,5.84109 -8.10563,7.46804 0,1.91118 2.06618,0.91552 3.18195,-1.53333 z M 322,222.44098 C 322,222.19844 321.55,222 321,222 c -0.55,0 -1,0.47656 -1,1.05902 0,0.58246 0.45,0.7809 1,0.44098 0.55,-0.33992 1,-0.81648 1,-1.05902 z m 11.35511,-9.88826 C 337.66008,209.1311 353,191.80662 353,190.36633 c 0,-1.14485 -3.4663,-6.37549 -4.05959,-6.12591 -1.02315,0.43041 -14.38836,16.05737 -16.22815,18.9744 -0.94174,1.49315 -1.71226,3.20452 -1.71226,3.80305 0,0.59853 -1.125,2.74382 -2.5,4.76732 -2.6882,3.95605 -3.40195,7.12112 -1.25,5.54305 0.6875,-0.50415 3.4348,-2.65314 6.10511,-4.77552 z m 68.05515,-64.17947 C 402.20001,146.31521 400.32978,144 397.87756,144 c -2.29125,0 -2.32054,0.3943 -0.26255,3.53518 1.88203,2.87235 2.92615,3.10291 3.79525,0.83807 z"
       id="path4407"
       inkscape:connector-curvature="0" />
    <path
       style="fill:#a39a94"
       d="m 183.67336,368.11679 c -1.86903,-9.34513 10.35764,-28.5792 33.82627,-53.21291 6.6002,-6.92787 17.17256,-18.17787 23.49413,-25 12.66343,-13.66616 17.24543,-18.43772 69.84374,-72.73326 C 330.72688,196.63947 347,179.15893 347,178.32499 c 0,-0.83393 -0.9885,-2.90447 -2.19667,-4.60118 -2.32205,-3.26103 -1.71177,-3.06569 4.59671,1.47132 2.14502,1.54268 4.45411,2.80487 5.13131,2.80487 0.6772,0 2.47677,-1.6875 3.99906,-3.75 3.71006,-5.02668 13.45518,-14.52242 21.75673,-21.19999 l 6.77543,-5.44999 -0.64222,-4.28258 c -0.59708,-3.98163 -0.45415,-4.35409 2.03382,-5.30002 6.79714,-2.58427 15.83951,0.32019 17.14101,5.50579 0.85377,3.4017 -0.0315,12.31314 -1.3547,13.63631 -0.72238,0.72238 -2.12602,0.64972 -4.57821,-0.237 l -3.53643,-1.27879 -4.70307,5.23095 -4.70308,5.23095 -2.85984,-2.73991 C 381.766,161.35969 381,161.0449 381,162.19046 c 0,0.86056 0.675,2.12485 1.5,2.80954 2.64723,2.19701 1.63438,4.71747 -4.47629,11.13915 l -5.97629,6.28047 -2.93423,-2.81118 -2.93424,-2.81118 -1.65029,2.51866 c -2.03082,3.09942 -0.92905,8.19457 3.02592,13.99334 l 2.59806,3.80926 -4.03648,-2.05926 C 363.89609,193.92667 361.49362,193 360.77733,193 c -0.71628,0 -8.04671,6.77923 -16.28983,15.06495 C 328.79708,223.83645 326,226.17948 326,223.55136 c 0,-0.83546 3.19629,-4.56379 7.10286,-8.28519 C 340.60105,208.12341 353,192.61034 353,190.37167 c 0,-0.72783 -0.82329,-2.67712 -1.82952,-4.33174 l -1.82953,-3.00841 -8.32335,9.23424 c -4.57785,5.07883 -13.71456,14.83924 -20.30381,21.6898 -6.58925,6.85055 -11.47046,12.62555 -10.84712,12.83333 1.5641,0.52137 1.42062,2.72779 -0.26856,4.12968 -2.01806,1.67485 -2.97491,6.23052 -1.50006,7.14203 0.87282,0.53943 0.327,1.95649 -1.94201,5.04186 -1.73582,2.36035 -3.15604,4.62438 -3.15604,5.03118 0,0.40681 1.42816,0.88065 3.17368,1.053 l 3.17368,0.31336 -4.29949,5 c -4.62004,5.37278 -25.94438,28.131 -43.10179,46 -13.14352,13.68865 -15.50856,16.83547 -17.08625,22.73425 -1.24422,4.652 -1.35501,4.74741 -11.30818,9.73788 -13.63794,6.838 -27.0769,16.588 -38.97694,28.27787 -5.45892,5.3625 -10.01517,9.75 -10.125,9.75 -0.10984,0 -0.4592,-1.29744 -0.77635,-2.88321 z M 307,230.31622 c 0,-0.99248 -1.02422,-0.63679 -3.41313,1.18532 -4.94331,3.77044 -5.3848,6.05488 -0.5521,2.85675 C 305.21565,232.91506 307,231.09613 307,230.31622 z M 395,151 c 0,-0.55 -0.47656,-1 -1.05902,-1 -0.58246,0 -0.7809,0.45 -0.44098,1 0.33992,0.55 0.81648,1 1.05902,1 0.24254,0 0.44098,-0.45 0.44098,-1 z m 6.5,-4.08333 c 0,-1.89299 -0.59591,-2.48524 -2.75,-2.73309 -3.15189,-0.36267 -3.40524,0.43593 -1.15671,3.64615 1.95638,2.79312 3.90671,2.33729 3.90671,-0.91306 z M 321.5,228 c 0.33992,-0.55 1.06803,-1 1.61803,-1 0.55,0 0.72189,0.45 0.38197,1 -0.33992,0.55 -1.06803,1 -1.61803,1 -0.55,0 -0.72189,-0.45 -0.38197,-1 z"
       id="path4405"
       inkscape:connector-curvature="0" />
    <path
       style="fill:#978f88"
       d="m 184,366.52024 c 0,-11.61445 8.09493,-23.45439 38.5,-56.31149 27.13165,-29.31968 40.58522,-43.45756 80.45901,-84.5515 23.39755,-24.11351 42.98147,-44.46456 43.51983,-45.22456 0.64955,-0.91696 0.58487,-2.42557 -0.19227,-4.48443 l -1.17111,-3.10263 2.69227,1.73054 c 1.48075,0.95179 3.54934,2.31512 4.59688,3.02962 2.17278,1.48201 5.59539,0.23529 5.59539,-2.03817 0,-1.51897 13.11476,-14.5702 22.78343,-22.67308 6.23961,-5.22913 6.27906,-5.29504 5.65604,-9.44962 -0.60422,-4.02922 -0.5076,-4.22552 2.61579,-5.31434 10.44121,-3.63982 17.8801,1.87856 16.69582,12.38544 -0.71686,6.35998 -1.94738,7.54344 -6.4171,6.17165 -3.53624,-1.08531 -3.65926,-1.02672 -7.56839,3.60454 -4.3937,5.20535 -5.68411,5.66917 -7.53352,2.70779 -0.68696,-1.1 -1.6952,-2 -2.24054,-2 -1.51177,0 -1.1816,2.59737 0.50847,4 0.825,0.68469 1.5,1.99138 1.5,2.90375 C 384,169.65501 373.13822,181 371.46155,181 c -0.53925,0 -1.54252,-0.9 -2.22948,-2 -2.86707,-4.59092 -6.91111,-0.4654 -5.73964,5.8553 0.37152,2.00458 1.57441,5.1072 2.67309,6.8947 2.25267,3.66499 1.44318,4.0467 -3.18103,1.5 -3.03751,-1.67286 -3.22843,-1.67064 -4.33104,0.0503 -0.6344,0.99018 -5.42716,5.71518 -10.65059,10.5 -5.22343,4.78482 -8.82343,7.74665 -8,6.58184 0.82343,-1.1648 4.30993,-5.87193 7.74779,-10.46029 6.53219,-8.71823 6.75744,-9.67411 3.46601,-14.70881 -0.82229,-1.25782 -1.84028,-2.15782 -2.2622,-2 -0.42191,0.15781 -3.32946,3.21193 -6.46122,6.78693 -3.13176,3.575 -15.24049,16.175 -26.9083,28 -11.6678,11.825 -22.0728,22.81143 -23.12222,24.41429 l -1.90804,2.91429 2.70035,-0.67774 c 2.56784,-0.64449 2.67078,-0.52987 2.09766,2.33571 -0.47245,2.36224 -0.25152,3.01345 1.02231,3.01345 0.89375,0 1.625,0.23465 1.625,0.52144 0,0.99879 -5.50877,8.98683 -6.9975,10.1468 -0.82465,0.64253 -1.22875,1.43885 -0.89801,1.76959 0.33075,0.33074 2.33048,-0.98247 4.44385,-2.91824 3.96783,-3.63439 6.84092,-4.5917 6.27498,-2.09082 -0.17782,0.78583 -5.31625,6.74833 -11.41871,13.25 -42.66679,45.45795 -43.94742,46.97756 -45.35718,53.82123 -0.53291,2.58701 -1.92093,3.66863 -10.08271,7.85703 -16.30719,8.36839 -36.33114,23.49115 -44.46472,33.58124 -2.2,2.72921 -4.3375,4.98459 -4.75,5.01196 -0.4125,0.0274 -0.75,-1.96612 -0.75,-4.42999 z M 396,152.05902 c 0,-1.17986 -1.95035,-2.442 -2.66667,-1.72569 C 392.61702,151.04965 393.87916,153 395.05902,153 395.57656,153 396,152.57656 396,152.05902 z m 5.83466,-5.19369 c -0.24515,-1.73272 -1.07015,-2.44996 -3.08466,-2.68175 -3.36651,-0.38736 -3.57779,1.30637 -0.56324,4.51521 2.47633,2.63594 4.1605,1.78947 3.6479,-1.83346 z m -68.22596,69.71199 c 0.30027,-0.78248 1.27341,-1.70184 2.16255,-2.04304 1.32812,-0.50964 1.28666,-0.25575 -0.2323,1.42269 -2.17821,2.40688 -2.67736,2.5673 -1.93025,0.62035 z"
       id="path4403"
       inkscape:connector-curvature="0" />
    <path
       style="fill:#8f8479"
       d="m 184,366.53702 c 0,-10.52103 13.64193,-30.58146 34.32697,-50.47775 5.40483,-5.19874 11.41593,-11.84613 13.358,-14.77198 1.94208,-2.92586 4.99762,-6.54994 6.7901,-8.05351 1.79248,-1.50358 8.15637,-8.1187 14.14199,-14.70026 10.19564,-11.21075 28.63675,-30.38113 66.88837,-69.53352 25.73243,-26.33838 28.44639,-29.46824 27.77588,-32.03226 -0.57876,-2.21318 -0.55129,-2.21027 3.9325,0.41741 4.1097,2.40844 4.63584,2.50094 5.85692,1.02962 0.73789,-0.88909 1.44402,-2.3143 1.56919,-3.16712 0.29802,-2.03053 8.59385,-10.45793 20.04694,-20.36484 9.04229,-7.82159 9.1701,-7.9947 8.12207,-11.00108 -1.54554,-4.43351 0.64589,-6.26048 7.59097,-6.3285 4.37875,-0.0429 5.9233,0.40521 7.94804,2.30582 3.07587,2.8873 4.23741,8.83729 2.6589,13.62022 -1.27894,3.87523 -1.59998,4.01264 -5.69174,2.43605 -2.65022,-1.02114 -3.09285,-0.77621 -7.55725,4.18169 l -4.74216,5.26636 -2.32229,-2.18168 C 382.50718,161.12784 380,160.27879 380,161.59227 c 0,0.32575 0.9,1.73644 2,3.13486 1.1,1.39842 2,3.05849 2,3.68903 0,0.63055 -2.68965,3.80803 -5.97699,7.06107 l -5.97699,5.91463 -2.33746,-2.19593 C 368.42295,177.98817 366.66075,177 365.79254,177 c -3.34646,0 -3.80216,7.64588 -0.7906,13.26481 2.12013,3.9557 1.65461,4.44709 -2.44386,2.5797 -2.33525,-1.06401 -2.96757,-0.74734 -7.98719,4 -2.99814,2.83552 -5.71894,5.15549 -6.04621,5.15549 -0.87248,0 1.41795,-4.07381 4.11014,-7.31038 l 2.33768,-2.81038 -2.5031,-4.93962 C 351.0927,184.22283 349.57795,182 349.1033,182 c -0.47466,0 -2.65736,2.3625 -4.85046,5.25 -2.1931,2.8875 -14.73466,16.10072 -27.87015,29.36271 -22.82324,23.04305 -47.88393,49.74467 -49.65074,52.90178 -1.62542,2.90447 0.91729,1.41792 5.30984,-3.10431 2.45202,-2.5244 6.31297,-5.88129 8.57989,-7.45976 l 4.12169,-2.86993 -1.87169,3.6712 c -1.02942,2.01915 -1.87308,4.36354 -1.8748,5.20975 C 280.9933,266.73346 269.34927,282 268.00132,282 266.89152,282 253,297.94539 253,299.21928 c 0,0.50788 4.06699,-2.59618 9.03776,-6.89793 C 274.8165,281.26252 277,279.59238 277,280.87683 c 0,1.29114 -9.65461,12.64716 -21.2866,25.03789 -7.49494,7.98383 -10.95514,13.44053 -12.12108,19.11483 -0.41678,2.02833 -2.55798,3.56738 -10.80604,7.76715 -13.94751,7.10183 -27.39771,16.85196 -38.56132,27.9533 -5.11604,5.0875 -9.50958,9.25 -9.76342,9.25 C 184.20769,370 184,368.44166 184,366.53702 z M 395.62571,150.46701 C 394.92909,148.65164 393,148.52894 393,150.3 c 0,1.82046 2.37154,4.08538 2.83183,2.70451 0.19626,-0.58877 0.1035,-1.73064 -0.20612,-2.5375 z M 402.15,149 c 0.0825,-1.1 0.195,-2.525 0.25,-3.16667 0.12866,-1.501 -5.29046,-3.34287 -6.44335,-2.18998 -1.12929,1.12929 2.79976,7.35665 4.64155,7.35665 0.77099,0 1.4693,-0.9 1.5518,-2 z"
       id="path4401"
       inkscape:connector-curvature="0" />
    <path
       style="fill:#857a70"
       d="m 184.31242,368.37176 c -1.45214,-3.78421 4.31192,-16.36955 12.30328,-26.86321 10.72585,-14.08437 13.28266,-16.91297 17.02186,-18.83129 2.09707,-1.07587 7.28709,-5.42568 11.53337,-9.66626 5.86809,-5.86022 7.59368,-8.19511 7.19193,-9.73141 -0.55505,-2.12253 4.1815,-8.43019 7.77428,-10.35299 3.28611,-1.75867 2.11531,0.8892 -2.64203,5.97517 l -4.50488,4.81609 2.07746,2.64107 c 1.94722,2.47549 1.59221,3.21895 -1.31769,2.75949 C 233.3375,309.05329 233,309.45 233,310 c 0,0.55 -0.66063,1 -1.46806,1 -0.80744,0 -2.1058,1.21716 -2.88525,2.7048 -1.85249,3.53559 -0.31723,7.2952 2.97903,7.2952 2.60616,0 9.37428,-5.48065 9.37428,-7.59105 0,-0.76112 1.6875,-2.46879 3.75,-3.79481 2.0625,-1.32603 6,-4.74197 8.75,-7.591 2.75,-2.84903 6.26794,-5.84704 7.81765,-6.66226 2.74505,-1.44401 2.78821,-1.42721 1.67526,0.65237 -0.62831,1.17401 -4.54596,5.81381 -8.70589,10.31066 -7.6476,8.267 -11.18723,14.11157 -11.31075,18.67609 -0.0583,2.1557 -1.44264,3.16829 -10.0516,7.35255 -12.06856,5.86574 -30.67311,19.55911 -40.72646,29.97558 -5.36981,5.56377 -7.45631,7.16285 -7.88579,6.04363 z m 54.19766,-58.35545 c -0.34546,-0.55897 0.0734,-1.01631 0.9309,-1.01631 1.75653,0 2.01516,0.60006 0.62812,1.45729 -0.512,0.31644 -1.21356,0.11799 -1.55902,-0.44098 z M 240,300.5348 c 0,-2.3716 5.90151,-8.40701 12.43054,-12.71259 3.3382,-2.20138 5.50696,-3.42195 4.81946,-2.71236 -0.6875,0.70958 -1.25,1.94151 -1.25,2.73763 0,1.71997 -12.94572,14.13502 -14.75,14.14536 -0.6875,0.004 -1.25,-0.65218 -1.25,-1.45804 z m 4.83472,-12.1691 c 0.5659,-1.02613 2.50934,-3.4407 4.31874,-5.3657 1.80941,-1.925 5.05534,-5.525 7.2132,-8 4.10899,-4.71291 46.86178,-48.89615 73.95106,-76.42539 10.09634,-10.2603 15.23824,-14.89299 14.21564,-12.80782 -0.88115,1.79674 -12.5029,14.17174 -25.82611,27.5 C 305.38403,226.59506 290.38868,242 285.38424,247.5 c -12.9086,14.18685 -39.5218,41.93085 -40.63895,42.3657 -0.52948,0.2061 -0.49045,-0.44853 0.0894,-1.5 z M 350,199.67269 c 0,-0.21873 1.30102,-2.0348 2.89115,-4.03572 l 2.89115,-3.63804 -2.64115,-4.99105 c -1.45345,-2.74663 -3.35023,-4.99484 -4.21796,-4.99947 -1.18204,-0.006 -1.46657,-0.75949 -1.1365,-3.00841 0.24217,-1.65 0.63246,-3 0.8673,-3 0.23485,0 1.77744,0.99842 3.42798,2.21872 3.42116,2.52938 6.18088,1.67286 6.74035,-2.09196 0.42853,-2.88377 9.50186,-12.57145 19.54983,-20.87356 4.47032,-3.69358 8.41484,-7.1189 8.76561,-7.6118 0.35076,-0.49291 0.40832,-2.60673 0.12791,-4.69738 -0.50242,-3.74579 -0.44883,-3.81761 3.67733,-4.92867 8.57144,-2.30805 14.44162,2.17068 14.44162,11.01844 0,6.41318 -1.43439,8.06736 -5.92118,6.8285 -3.22545,-0.89059 -3.65491,-0.71427 -6.70481,2.75273 -1.79225,2.03735 -3.78486,4.41993 -4.42804,5.29462 -1.04787,1.42507 -1.41833,1.35651 -3.56445,-0.65964 -4.33977,-4.07696 -6.34952,-2.53266 -2.71581,2.08685 2.49494,3.17181 1.99711,4.3087 -4.79326,10.9464 l -4.89328,4.78324 -2.78592,-2.5819 c -3.26725,-3.02799 -4.58969,-2.83882 -6.42036,0.91838 -1.33815,2.74637 -0.84676,5.4561 2.35082,12.96336 0.70004,1.64355 0.54593,1.73308 -1.29096,0.75 -3.40871,-1.82428 -5.70994,-1.29393 -8.03581,1.85196 -1.90859,2.58152 -6.18156,5.8334 -6.18156,4.7044 z m 46,-47.61367 c 0,-2.19922 -1.50635,-3.48215 -3.0027,-2.55735 -0.66681,0.41211 -0.65502,1.26937 0.0352,2.55902 1.33562,2.49564 2.96752,2.49472 2.96752,-0.002 z m 6.46118,-3.76037 C 403.24517,145.17499 401.13025,143 397.30887,143 c -2.98581,0 -2.91745,1.51332 0.25631,5.67434 2.84798,3.7339 3.88452,3.65436 4.896,-0.37569 z"
       id="path4399"
       inkscape:connector-curvature="0" />
    <path
       style="fill:#706862"
       d="m 185,366.58241 c 0,-1.08513 1.05323,-3.1226 2.34052,-4.52769 1.28729,-1.4051 2.93887,-4.12972 3.67019,-6.05472 2.96555,-7.80607 15.66452,-23.1588 20.11934,-24.32376 1.65484,-0.43275 1.79348,-0.0502 1.23885,3.41824 -0.44762,2.7993 -0.26874,3.90552 0.63157,3.90552 1.53267,0 11.72622,-5.74876 12.54625,-7.07559 0.98022,-1.58603 8.71016,-5.21005 12.70328,-5.95565 4.86863,-0.90909 5.09065,1.14468 0.31059,2.87317 -11.24681,4.0669 -31.73213,18.37564 -45.31059,31.64889 -6.15398,6.01566 -8.25,7.5633 -8.25,6.09159 z M 333,196.5 c 9.71553,-9.75609 13.48319,-12.81675 6.46273,-5.25 -10.43397,11.24589 -13.97581,14.75 -14.90882,14.75 -0.55792,0 3.24282,-4.275 8.44609,-9.5 z m 26.7391,-5.23104 c -3.95587,-1.1561 -5.10488,-2.06562 -6.79518,-5.37888 -1.11885,-2.19314 -2.68895,-4.23874 -3.4891,-4.54579 -1.47115,-0.56453 -2.0906,-4.36314 -0.70482,-4.32205 0.4125,0.0122 1.875,0.90222 3.25,1.97776 1.375,1.07554 3.27167,1.96553 4.21482,1.97776 1.9652,0.0255 3.78518,-2.85218 3.78518,-5.98495 0,-1.86271 9.89907,-12.56289 16.64571,-17.99281 11.29883,-9.09369 11.47752,-9.31116 10.8248,-13.17453 -0.51221,-3.03179 -0.26929,-3.86279 1.38859,-4.75006 2.19561,-1.17506 9.02094,-1.44241 11.5961,-0.45423 2.47164,0.94846 4.54653,5.79461 4.52949,10.57916 -0.0182,5.10562 -1.18256,7.41833 -3.12289,6.20273 -0.74899,-0.46923 -2.08942,-0.73374 -2.97874,-0.5878 -1.08195,0.17756 -1.80976,-0.69878 -2.19974,-2.64868 -0.65854,-3.29268 -3.43944,-4.96571 -4.34246,-2.61249 -0.32088,0.83622 0.20774,2.39462 1.17473,3.46312 1.69334,1.87113 1.62162,2.10934 -1.94567,6.46276 C 389.53282,161.96599 387.44623,164 386.93305,164 386.41987,164 385.1,163.1 384,162 c -1.1,-1.1 -2.45,-2 -3,-2 -1.54285,0 -1.18248,3.60367 0.5,5 0.825,0.68469 1.5,1.89483 1.5,2.6892 0,1.81834 -8.97958,12.3108 -10.53574,12.3108 -0.63486,0 -1.96877,-0.9 -2.96426,-2 -2.04583,-2.26061 -4.52462,-2.57538 -6.3,-0.8 -1.74217,1.74217 -1.48106,9.95372 0.402,12.64216 0.8811,1.25795 1.4436,2.40665 1.25,2.55267 -0.1936,0.14602 -2.4944,-0.36062 -5.1129,-1.12587 z M 403,146.91586 C 403,144.06516 401.48168,143 397.41821,143 c -3.11751,0 -3.0517,1.47837 0.27979,6.28571 2.48373,3.58403 2.8014,3.75181 4,2.11262 0.7161,-0.97932 1.302,-2.99644 1.302,-4.48247 z"
       id="path4397"
       inkscape:connector-curvature="0" />
    <path
       style="fill:#2c2a2a"
       d="M 369.02822,176.41618 C 367.11874,175.08728 364.75624,174 363.77822,174 362.8002,174 362,173.51659 362,172.92576 c 0,-1.80827 11.20474,-12.93904 13.6404,-13.55036 1.25836,-0.31582 2.54462,-1.31699 2.85835,-2.22481 0.31372,-0.90783 2.79553,-3.40429 5.51513,-5.54769 2.7196,-2.1434 5.20936,-4.7309 5.53281,-5.75 0.65368,-2.05956 2.95348,-2.47066 4.03469,-0.72122 0.38468,0.62242 -0.0388,1.54478 -0.94098,2.04969 -2.0184,1.12955 -2.05973,3.68002 -0.10161,6.26931 1.35493,1.79167 1.17668,2.25638 -2.18667,5.70076 l -3.66186,3.75008 -2.47999,-1.95076 C 382.84628,159.87784 380.86064,159 379.79775,159 c -1.54059,0 -1.79347,0.45632 -1.24686,2.25 0.37712,1.2375 1.30744,2.96043 2.06739,3.82874 2.25459,2.57607 1.63786,4.24685 -3.36828,9.12504 l -4.75,4.62859 -3.47178,-2.41619 z m 21.98923,-34.2437 C 390.45785,141.98595 390,141.19583 390,140.41667 390,139.43548 391.20446,139 393.91821,139 c 7.73735,0 9.86081,2.57759 2.59924,3.15512 -2.4654,0.19608 -4.9404,0.2039 -5.5,0.0174 z"
       id="path4395"
       inkscape:connector-curvature="0" />
  </g>
</svg>
