<?xml version="1.0" encoding="UTF-8" standalone="no"?>
<svg
   xmlns:dc="http://purl.org/dc/elements/1.1/"
   xmlns:cc="http://creativecommons.org/ns#"
   xmlns:rdf="http://www.w3.org/1999/02/22-rdf-syntax-ns#"
   xmlns:svg="http://www.w3.org/2000/svg"
   xmlns="http://www.w3.org/2000/svg"
   xmlns:sodipodi="http://sodipodi.sourceforge.net/DTD/sodipodi-0.dtd"
   xmlns:inkscape="http://www.inkscape.org/namespaces/inkscape"
   sodipodi:docname="lizardfingers.svg"
   height="100%"
   width="100%"
   inkscape:version="0.48.4 r9939"
   version="1.1"
   id="svg8438"
   viewBox="0 0 512 512">
  <metadata
     id="metadata8464">
    <rdf:RDF>
      <cc:Work
         rdf:about="">
        <dc:format>image/svg+xml</dc:format>
        <dc:type
           rdf:resource="http://purl.org/dc/dcmitype/StillImage" />
        <dc:title></dc:title>
      </cc:Work>
    </rdf:RDF>
  </metadata>
  <defs
     id="defs8462">
    <linearGradient
       id="linearGradient4077">
      <stop
         id="stop4079"
         offset="0"
         style="stop-color:#aa4400;stop-opacity:1;" />
      <stop
         style="stop-color:#ff9f00;stop-opacity:1;"
         offset="0.22752622"
         id="stop4081" />
      <stop
         style="stop-color:#803300;stop-opacity:1;"
         offset="0.4948855"
         id="stop4083" />
      <stop
         id="stop4085"
         offset="1"
         style="stop-color:#562200;stop-opacity:1;" />
    </linearGradient>
    <linearGradient
       id="linearGradient4057">
      <stop
         style="stop-color:#aa4400;stop-opacity:1;"
         offset="0"
         id="stop4059" />
      <stop
         id="stop4067"
         offset="0.22752622"
         style="stop-color:#ecd1a4;stop-opacity:1;" />
      <stop
         id="stop4065"
         offset="0.50136983"
         style="stop-color:#803300;stop-opacity:1;" />
      <stop
         style="stop-color:#562200;stop-opacity:1;"
         offset="1"
         id="stop4061" />
    </linearGradient>
    <linearGradient
       id="linearGradient3890">
      <stop
         style="stop-color:#701b1b;stop-opacity:1;"
         offset="0"
         id="stop3892" />
      <stop
         style="stop-color:#e31600;stop-opacity:1;"
         offset="1"
         id="stop3894" />
    </linearGradient>
    <linearGradient
       id="linearGradient3882">
      <stop
         style="stop-color:#600b0b;stop-opacity:1;"
         offset="0"
         id="stop3884" />
      <stop
         style="stop-color:#d11414;stop-opacity:1;"
         offset="1"
         id="stop3886" />
    </linearGradient>
    <linearGradient
       id="linearGradient3872">
      <stop
         style="stop-color:#800600;stop-opacity:1;"
         offset="0"
         id="stop3874" />
      <stop
         style="stop-color:#ff0004;stop-opacity:0;"
         offset="1"
         id="stop3876" />
    </linearGradient>
    <filter
       id="filter4074"
       inkscape:label="Black Light"
       inkscape:menu="Color"
       inkscape:menu-tooltip="Light areas turn to black"
       x="0"
       width="1"
       y="0"
       height="1"
       color-interpolation-filters="sRGB">
      <feColorMatrix
         id="feColorMatrix4076"
         type="luminanceToAlpha"
         result="result2" />
      <feComposite
         in2="SourceGraphic"
         id="feComposite4078"
         operator="arithmetic"
         in="result2"
         k3="2"
         result="result4" />
      <feBlend
         in2="result2"
         id="feBlend4080"
         in="result4"
         mode="multiply"
         result="result3" />
      <feComposite
         in2="SourceGraphic"
         id="feComposite4082"
         operator="in"
         in="result3" />
    </filter>
  </defs>
  <sodipodi:namedview
     pagecolor="#000000"
     bordercolor="#666666"
     borderopacity="1"
     objecttolerance="10"
     gridtolerance="10"
     guidetolerance="10"
     inkscape:pageopacity="0"
     inkscape:pageshadow="2"
     inkscape:window-width="1190"
     inkscape:window-height="1126"
     id="namedview8460"
     showgrid="false"
     inkscape:zoom="1.4142136"
     inkscape:cx="249.14549"
     inkscape:cy="287.57129"
     inkscape:window-x="160"
     inkscape:window-y="130"
     inkscape:window-maximized="0"
     inkscape:current-layer="svg8438"
     showguides="true"
     inkscape:guide-bbox="true" />
  <path
     style="fill:#000000"
     id="path3978"
     d="M -13.466093,0.1885736 H 514.89024 V 516.42957 H -13.466093 z"
     inkscape:connector-curvature="0" />
  <path
     transform="matrix(0.92592215,0,0,1,-12.92858,0)"
     sodipodi:end="6.1122693"
     sodipodi:start="6.11213"
     d="m 76.035958,-54.360671 a 10.606602,11.755651 0 0 1 2.51e-4,0.0016 l -10.452057,1.999461 z"
     sodipodi:ry="11.755651"
     sodipodi:rx="10.606602"
     sodipodi:cy="-52.359596"
     sodipodi:cx="65.584152"
     id="path4123"
     style="fill:#333333;fill-opacity:1;fill-rule:nonzero;stroke:none"
     sodipodi:type="arc" />
  <path
     sodipodi:type="arc"
     style="opacity:0.98999999;fill:#ff0000;fill-opacity:0.74970506;fill-rule:nonzero;stroke:none"
     id="path5005"
     sodipodi:cx="640"
     sodipodi:cy="124.5"
     sodipodi:rx="105"
     sodipodi:ry="118.5"
     d="m 743.4676,104.32865 a 105,118.5 0 0 1 0.002,0.0163 L 640,124.5 z"
     sodipodi:start="6.11213"
     sodipodi:end="6.1122693" />
  <path
     sodipodi:type="arc"
     style="opacity:0.98999999;fill:#ffffff;fill-opacity:1;fill-rule:nonzero;stroke:none"
     id="path6248"
     sodipodi:cx="155"
     sodipodi:cy="239.5"
     sodipodi:rx="54"
     sodipodi:ry="65.5"
     d="m 208.21191,228.35044 a 54,65.5 0 1 1 -0.007,-0.0463 L 155,239.5 z"
     sodipodi:start="6.11213"
     sodipodi:end="12.394598"
     transform="translate(-55,32)" />
  <path
     transform="translate(-1.9999999,-27)"
     sodipodi:end="12.394598"
     sodipodi:start="6.11213"
     d="m 208.21191,228.35044 a 54,65.5 0 1 1 -0.007,-0.0463 L 155,239.5 z"
     sodipodi:ry="65.5"
     sodipodi:rx="54"
     sodipodi:cy="239.5"
     sodipodi:cx="155"
     id="path6252"
     style="opacity:0.98999999;fill:#ffffff;fill-opacity:1;fill-rule:nonzero;stroke:none"
     sodipodi:type="arc" />
  <path
     sodipodi:type="arc"
     style="opacity:0.98999999;fill:#ffffff;fill-opacity:1;fill-rule:nonzero;stroke:none"
     id="path6254"
     sodipodi:cx="155"
     sodipodi:cy="239.5"
     sodipodi:rx="54"
     sodipodi:ry="65.5"
     d="m 208.21191,228.35044 a 54,65.5 0 1 1 -0.007,-0.0463 L 155,239.5 z"
     sodipodi:start="6.11213"
     sodipodi:end="12.394598"
     transform="translate(184,-82)" />
  <path
     transform="matrix(0.46830715,-0.10371154,0.16741547,0.60012264,243.41258,-9.0934168)"
     sodipodi:end="12.394598"
     sodipodi:start="6.11213"
     d="m 208.21191,228.35044 a 54,65.5 0 1 1 -0.007,-0.0463 L 155,239.5 z"
     sodipodi:ry="65.5"
     sodipodi:rx="54"
     sodipodi:cy="239.5"
     sodipodi:cx="155"
     id="path6256"
     style="opacity:0.98999999;fill:#ffffff;fill-opacity:1;fill-rule:nonzero;stroke:none"
     sodipodi:type="arc" />
  <path
     transform="translate(175.86827,64.724657)"
     sodipodi:end="12.394598"
     sodipodi:start="6.11213"
     d="m 208.21191,228.35044 a 54,65.5 0 1 1 -0.007,-0.0463 L 155,239.5 z"
     sodipodi:ry="65.5"
     sodipodi:rx="54"
     sodipodi:cy="239.5"
     sodipodi:cx="155"
     id="path6258"
     style="opacity:0.98999999;fill:#ffffff;fill-opacity:1;fill-rule:nonzero;stroke:none"
     sodipodi:type="arc" />
  <path
     sodipodi:type="arc"
     style="opacity:0.98999999;fill:#ffffff;fill-opacity:1;fill-rule:nonzero;stroke:none"
     id="path6260"
     sodipodi:cx="155"
     sodipodi:cy="239.5"
     sodipodi:rx="54"
     sodipodi:ry="65.5"
     d="m 208.21191,228.35044 a 54,65.5 0 1 1 -0.007,-0.0463 L 155,239.5 z"
     sodipodi:start="6.11213"
     sodipodi:end="12.394598"
     transform="translate(219.70889,57.300036)" />
  <g
     id="g6172"
     transform="translate(-34.272078,-1.100505)">
    <path
       style="fill:#999692"
       d="m 375.8975,460.18305 c -24.19166,-12.31327 -7.21499,-43.71493 -13.81369,-64.60244 -0.63557,-11.93487 -4.65056,-18.63219 -2.93796,-2.41707 -1.91888,20.71371 2.78331,46.48208 -11.932,62.95001 -28.21848,13.20041 -36.31874,-22.39471 -33.37441,-43.07121 1.21396,-7.8717 0.50915,-33.36502 -9.92222,-15.42339 -13.9094,16.37472 -43.27036,3.2205 -34.88423,-18.62843 -18.60299,-24.09037 16.77254,-40.41218 24.96408,-59.56742 3.48961,-19.61635 15.31574,-35.63224 21.38594,-54.15194 3.94548,-17.96271 15.91632,-40.90949 -3.77541,-54.09338 -26.19498,-1.60717 -46.1208,21.97698 -40.78213,48.28875 -0.0108,25.92449 -23.61983,43.02152 -21.35598,69.35214 -5.3716,25.62813 -39.59558,12.65458 -58.34605,18.04054 -18.12537,-0.81446 0.29137,-49.45798 -15.45876,-21.33144 -11.12346,18.1701 -20.55932,53.40673 -47.10546,49.19936 -14.68255,-5.67129 2.72333,-43.23103 -9.56152,-19.02004 -12.4967,18.90673 -38.718991,14.61383 -42.161476,-6.68143 -32.62058,1.28977 -1.956196,-36.81907 -26.870126,-47.72952 2.193505,-23.9262 3.216551,-45.29616 16.000128,-66.36217 7.250151,-17.61259 30.472866,-25.31614 29.312314,-47.6063 3.504135,-22.6668 29.71828,-32.44889 49.36284,-38.04007 28.00497,-8.877 56.62523,-21.90921 72.41573,-48.11508 13.90656,-18.669145 22.74996,-42.262054 44.32554,-53.811654 14.6492,-9.317454 31.83656,-15.007501 49.28107,-14.944739 22.64376,13.24107 27.43607,41.636407 38.78365,62.719156 19.84072,-2.804856 36.77905,-30.642913 59.67568,-13.024125 41.42177,19.327832 73.01173,64.867292 64.68562,111.691872 -6.34807,20.70887 -17.7961,42.45741 -4.13536,63.37831 12.99371,18.45259 3.02798,39.23533 3.45337,59.12818 3.65773,20.62972 10.78464,41.30589 6.92028,62.45375 0.78124,17.36492 7.30974,45.87914 -13.83696,53.0338 -14.96345,4.66098 -22.83141,-31.08721 -22.2072,-6.26821 1.55672,27.13025 -25.12079,37.47121 -41.97008,19.6305 -4.81388,9.85861 -13.54804,21.0269 -26.13522,15.02369 z m -40.62408,-58.53151 c 0.64289,-5.28966 -7.73688,4.52575 0,0 z m 47.76096,-0.49223 c 0.44763,-4.38679 -6.3322,5.47421 0,0 z m -48.67063,-49.59199 c 5.42571,-11.72417 -18.49953,5.02077 0,0 z m 44.96258,-5.77459 c 17.96488,-9.83461 -19.6921,2.53207 0,0 z m 41.23839,-1.96896 c 2.34673,-6.18503 -6.22595,7.55597 0,0 z m 8.22778,-3.43098 c 3.424,-2.89161 -9.76935,3.53089 0,0 z M 135.62359,324.69815 c -0.52023,-6.65978 -3.87936,3.42156 0,0 z M 99.100298,310.59084 c 3.366312,-11.81174 -11.270942,3.03863 0,0 z m 52.843662,-32.39532 c 5.30855,-14.69848 -10.8361,5.04059 0,0 z M 324.12,274.41167 c 11.68354,-14.61202 -10.34847,-9.61095 -1.42703,3.4303 l 1.42703,-3.4303 z m 53.75109,-10.98309 c 8.45164,-21.14504 -13.15129,-9.56961 -3.36431,1.50586 l 3.36431,-1.50586 z m -260.25815,-2.61893 c -3.30274,-4.9686 -3.31213,6.19717 0,0 z m 43.35206,-0.6803 c 10.69685,-7.51464 14.43321,-38.03484 2.82037,-12.17045 -0.31693,1.65575 -11.48664,17.52348 -2.82037,12.17045 z m 259.62021,-4.28387 c 0.86918,-14.61709 -8.1473,-9.46288 -4.27082,2.25002 4.28122,-1.56747 3.80528,5.99973 4.27082,-2.25002 l 0,0 z M 86.465,243.55805 c -2.082895,-5.92105 -4.584533,4.45048 0,0 z m 57.7375,-24.13669 c -6.84147,-8.42049 -10.27832,6.68585 0,0 z M 197.47,203.59754 c -1.77876,-4.26152 -1.77876,4.26152 0,0 z m -37.399,-20.69367 c 0.34001,-6.65586 -6.43556,3.64307 0,0 z m 164.57973,-47.96664 c -5.09301,-4.29605 1.12489,5.81075 0,0 z m 6.54677,-1.49561 c 3.59943,-10.59679 12.22222,-11.90275 13.85803,-18.90577 -6.72941,-6.34109 -22.64783,14.13246 -15.5387,14.19526 -0.01,0.89993 -3.05278,11.20151 1.68067,4.71051 z m 19.62499,-21.01964 c 6.77058,-5.86755 -12.78284,6.60918 0,0 z M 346.47,108.60891 c -3.27431,-5.2405 -0.87563,6.55236 0,0 z m 26.24905,-20.537994 c -3.87467,-5.02009 0.16618,7.106955 0,0 z m 7.27595,-1.550752 c -6.00716,-6.501033 -9.46679,3.689812 0,0 z m 5.63097,-4.692801 c 6.93822,-5.465649 -13.4687,5.576605 0,0 z m -69.9341,-28.791144 -0.2248,3.263387 0.2248,-3.263387 z"
       id="path6188"
       inkscape:connector-curvature="0" />
    <path
       style="fill:#a1916d"
       d="m 378.8775,460.14786 c -26.85485,-8.15733 -9.91603,-41.83263 -15.74599,-61.7926 0.36654,-11.71226 -5.58303,-27.65524 -5.09292,-6.06517 -1.45067,22.00407 5.47136,59.03018 -21.69628,66.53834 -24.348,-3.3461 -20.92999,-31.85431 -21.90797,-49.99235 0.42082,-9.88412 1.262,-30.21865 -9.67126,-13.47512 -13.04168,14.79635 -38.67232,11.04063 -35.54916,-11.59305 -12.04273,-22.85319 4.98835,-43.24156 22.05623,-56.35637 6.84821,-22.28347 17.81837,-42.65146 25.47664,-64.48181 4.92749,-17.38961 15.3536,-43.02974 -6.93444,-52.92748 -22.09379,0.26873 -42.87987,18.34501 -39.97274,42.23609 6.93322,26.61716 -23.08022,43.95744 -19.45763,69.60953 1.13419,28.51775 -33.51293,20.30508 -51.20875,25.1969 -23.60069,4.40943 -12.41615,-27.82964 -17.36599,-32.97719 -14.56398,20.37579 -19.82676,49.56393 -44.36687,61.14243 -25.86397,7.67517 -4.86117,-47.5606 -18.03048,-21.4636 -10.97555,18.75122 -39.49727,17.62967 -40.542742,-5.03904 -33.605002,2.44662 -4.402183,-38.9551 -27.036703,-48.62356 0.463576,-20.0518 0.876828,-40.9297 13.41271,-57.42049 0.353855,-21.41384 25.712651,-25.92205 29.888464,-45.37313 -4.853922,-16.60043 11.730141,-26.02789 19.002741,-34.15865 32.3385,-18.1198 75.39527,-20.98966 97.72515,-54.1356 19.15823,-21.900722 28.65431,-54.08116 57.96408,-65.47459 7.82151,-3.610142 29.58252,-11.075003 30.44421,-8.0075 -18.92922,9.336875 23.43406,-8.54952 13.07684,12.433147 -3.73989,5.34511 -1.43084,17.310498 4.79193,11.29777 -2.97294,-11.255063 -4.80885,-32.862688 6.56329,-12.418615 13.57053,12.973815 15.17599,46.816253 29.64765,49.9763 13.65698,-10.920255 27.65354,-3.730709 37.40782,-17.519561 22.94823,-0.285111 41.53133,19.078443 57.17339,33.907989 23.67135,27.21942 32.8288,68.61671 16.89047,101.77847 -1.78285,-23.3345 -1.51799,27.76495 -14.9496,10.97097 1.24474,23.27273 16.40742,34.83034 23.39038,55.96794 -1.6119,19.84183 -3.4683,41.74042 2.98392,62.63546 6.60528,19.61833 -0.21262,40.53148 3.75485,60.43649 4.1811,22.84832 -26.28492,37.12668 -33.92526,10.8885 -9.36024,5.11195 -1.03893,41.21372 -26.05385,38.51124 -12.39271,-4.54063 -21.62669,-18.95392 -27.28247,1.72827 -2.94659,5.26648 -9.60158,7.46625 -14.85966,4.03964 z m -34.29368,-15.0166 c -0.37588,-19.05461 -3.03764,19.96377 0,0 z m 1.745,-15.97089 c 0.23702,-16.95928 -5.68214,14.54731 0,0 z m 124.32261,-8.60267 c 2.7547,-17.17508 -6.96986,12.97896 0,0 z m -0.6707,-18.41798 c -1.30801,-19.86938 -3.1654,20.72095 0,0 z m -78.43823,2.1942 c -4.68693,-4.86712 -5.96766,4.87991 0,0 z m -54.94791,-2.86986 c -6.15845,-9.22392 -16.28024,7.37821 0,0 z m 47.8442,-0.56689 c -1.14189,-9.1481 -9.03038,8.11026 0,0 z m -55.06228,-5.15562 c 14.27069,-9.56606 -13.52825,4.57657 0,0 z m 48.75599,-1.10532 c 12.10601,-9.13275 -12.32837,6.16603 0,0 z m -50.06142,-5.05947 c 1.43697,-11.80517 -9.38851,8.13868 0,0 z m 47.84215,-0.65985 c 1.52204,-9.06832 -8.78889,3.14211 0,0 z m -49.03495,-7.59883 c 6.33525,-11.5962 -12.40695,5.70698 0,0 z m 47.9186,-3.75599 c 3.83587,-16.42228 -11.73121,1.12727 0,0 z m 16.9356,-18.37448 c -1.87236,-3.2669 -5.21187,5.73051 0,0 z m -58.29998,-6.70477 c 9.08864,-8.43062 -17.9773,-6.47965 -6.79019,-17.94965 4.85069,-11.45973 -5.81621,-25.40245 -4.53197,-6.20761 0.98599,7.34406 -1.98963,29.50529 11.32216,24.15726 z m 55.54962,-2.46107 c 1.11058,-6.11926 -5.00298,3.3342 0,0 z m -9.20175,-3.80625 c 18.10504,-5.9484 -22.81392,-9.10303 -8.48813,-25.14729 1.76419,-11.20858 -5.31249,-19.78204 -5.7584,-3.73815 -0.82403,9.45814 -2.50949,35.684 14.24653,28.88544 z m 40.8371,-1.19199 c 24.02604,-3.43801 -1.81462,-17.95681 -2.59794,0.9289 l 2.59794,-0.9289 z m -1.86963,-4.6557 c -5.79882,-13.78235 -8.3067,6.20447 0,0 z m -7.05455,-8.76045 c 1.18924,-8.23781 -5.37579,-34.00991 -3.64315,-10.63221 0.9752,1.0213 0.46023,15.88874 3.64315,10.63221 z m -275.62486,-5.94042 c 7.78508,-14.87841 -11.84175,-0.27503 0,0 z m 2.44004,-9.21564 c 17.38973,-12.91072 -13.16406,-0.0902 0,0 z m -39.250882,-5.2428 c 13.548652,-25.52214 -17.225321,2.56262 0,0 z m 66.751682,-3.22225 c -0.73824,-3.74788 -2.9046,5.15854 0,0 z M 149.045,301.541 c -8.026,-14.43125 -8.75674,13.81837 0,0 z m -86.42,-8.42589 c -1.816514,-6.96707 -1.741801,6.92913 0,0 z m 45.12528,-0.37052 c 10.64476,-22.7844 -15.868481,6.42644 0,0 z m -41.079115,-3.63051 c 2.403923,-9.28144 -6.260542,8.11137 0,0 z m 258.875805,-6.60622 c 4.21948,-4.47183 10.36225,-26.41487 3.84114,-12.76097 -3.80934,-34.74831 -18.63251,28.60662 -3.84114,12.76097 z m -255.068836,0.48012 c -1.361047,-5.36583 -4.480391,4.4854 0,0 z m 82.793606,-6.60744 c 13.26759,-26.97686 -18.62958,10.96052 0,0 z M 75.29,278.38928 c -3.588206,-3.3779 -3.588206,3.3779 0,0 z m 286.8801,-2.21084 c 2.298,-15.49401 -9.93662,6.23746 -0.33828,0.81008 l 0.33828,-0.81008 z M 81.068843,269.88926 c 4.860502,-20.24925 -12.351503,12.60117 0,0 z m 287.989447,-3.27885 c 1.18659,-9.04361 1.58731,-20.66081 -1.94504,-5.10094 -5.66041,1.39076 4.67108,14.22412 1.94504,5.10094 z m 7.02888,-1.39688 c 11.95741,-4.25924 0.66249,-40.00752 -2.30868,-15.8884 -0.13281,3.76929 -7.79886,19.5529 2.30868,15.8884 z m -210.93838,-1.62459 c 8.72952,-6.1433 19.19419,-39.52967 1.10851,-22.96288 -2.81944,5.95687 -21.04819,29.7618 -1.10851,22.96288 z m 246.36785,-2.83191 c 4.14936,-17.84341 -5.09287,-4.93085 -1.09464,3.99618 l 0.56413,-0.41926 0.53051,-3.57692 z m -293.74441,1.3102 c 8.0297,-18.92554 -13.66121,5.44937 0,0 z m 299.26144,-0.74698 c 17.41598,-0.5787 -8.77552,-39.20486 -1.67999,-9.13934 0.36602,1.57752 -2.35052,12.72975 1.67999,9.13934 z m 45.3591,-1.10841 c -3.87956,-6.50009 0.78685,7.38877 0,0 z m -75.73335,-9.48739 c -5.27487,-9.39416 3.3309,14.77166 0,0 z m -260.48256,-2.39447 c 2.7448,-10.32373 31.42096,-40.27164 6.98125,-24.63212 -2.98524,4.33004 -14.2692,26.48895 -6.98125,24.63212 z m -55.968589,-2.10502 c -2.769206,-2.95257 -2.134042,4.20032 0,0 z m 19.440018,-2.71266 c 11.139531,-9.49679 -13.882177,2.07592 -3.021468,0.77686 l 3.021468,-0.77686 z M 207.155,234.5044 c -4.84181,-4.50646 -1.33279,7.11595 0,0 z m -105.66241,-2.35036 c 6.30567,-5.24306 21.57432,-34.58983 7.87605,-14.67337 -0.48772,2.25929 -16.83162,17.60727 -7.87605,14.67337 z m 277.97023,-1.03037 c -0.79482,-5.71598 -2.8247,7.9516 0,0 z M 173.63,224.91125 c -0.9229,-15.70157 -23.09013,4.624 -3.28005,3.13747 2.14232,2.90252 4.16458,-1.34336 3.28005,-3.13747 z m -85.60049,-5.61907 c 7.5815,-3.28173 17.11256,-30.96457 4.380529,-12.98199 -1.127119,1.62528 -14.05868,18.37093 -4.380529,12.98199 z m 91.53262,-6.9754 c 10.19678,-20.30497 -14.35578,-13.68517 -12.07581,0.25803 2.79638,3.37263 10.13491,4.85576 12.07581,-0.25803 z m 9.35356,-5.73862 c -5.11302,-15.87224 1.47046,19.37636 0,0 z m -43.50742,3.41349 c 0.24786,-18.22991 -16.18045,7.80113 0,0 z m 49.82673,-3.16976 c 19.69347,-12.18079 -10.27392,-11.79001 0,0 z m 151.98,-3.47677 c -7.84069,-4.98595 -10.86499,-40.31804 -12.20615,-30.83529 3.40415,10.20861 1.0509,25.14914 12.20615,30.83529 z m -224.245,-3.1265 c -2.52181,-14.33962 -9.80606,6.35782 0,0 z m 27.87509,-3.01519 c -4.60448,-19.82074 -9.99082,9.37053 0,0 z m 208.15547,0 c -5.88462,-7.81575 -6.47891,8.03714 0,0 z m -255.04851,-4.26274 c -4.468578,-13.72854 -6.242058,11.0295 0,0 z m 247.57501,2.46003 c 10.36385,-15.66376 21.46132,-42.09297 5.84591,-57.78464 -22.87193,-12.16773 -29.46973,13.77842 -18.86341,29.69096 4.17883,7.75328 1.37341,28.70492 13.0175,28.09368 z m 2.8615,-53.04244 c -1.73563,-8.32361 11.57289,4.92108 0,0 z M 154.26,191.53862 c -3.17776,-3.30207 -1.44695,4.20866 0,0 z m 2.54657,-4.29993 c 11.65644,-7.86533 -7.56705,-9.43495 0,0 z M 111.795,184.51857 c -6.74518,-14.99901 -16.132374,4.58064 0,0 z m 17.74328,-9.88087 c 18.4365,-18.4736 -11.40402,-0.11816 0,0 z M 332.3965,157.45259 c -2.85087,-7.02038 1.9872,13.46556 0,0 z M 268.245,152.8779 c -1.39615,-4.70046 -2.9986,2.65015 0,0 z m 63.38574,-15.74038 c 8.05017,-9.11483 13.03303,-18.77143 15.96454,-21.67132 -11.75247,-12.44159 -34.67481,21.50274 -18.98665,21.60914 0.2112,2.01384 0.10857,7.28516 3.02211,0.0622 z m -6.74233,-4.26274 c 1.82017,-7.92355 5.57261,1.14015 0,0 z m 13.43988,-8.26492 c -2.60957,-9.14191 5.53139,3.33125 0,0 z m 13.85563,-12.5658 c 13.91512,-8.75098 -15.67212,6.31556 0,0 z m -4.44873,-4.6786 c 11.25874,-8.749089 -11.28232,6.25485 0,0 z m 12.67722,-12.366062 c -4.55106,-0.401661 -0.93858,6.053592 0,0 z m -38.61589,-16.28152 c -6.12635,-7.337608 -15.85613,-33.161751 -18.12067,-29.156729 1.25287,6.408979 22.7858,40.078559 18.12067,29.156729 z m -2.58119,-11.417141 c -3.28217,-4.827534 0.84479,5.415147 0,0 z m 8.46576,0.276592 c -0.88292,-8.004361 1.35836,-13.917032 -3.90596,-10.693473 -9.59003,-2.201683 2.26897,8.105327 0.0319,11.570491 l 3.87409,-0.877015 c 0,0 0,-3e-6 0,-3e-6 z M 310.57031,50.574802 c -1.48438,-3.276447 -2.76267,5.490942 0,0 z m -0.99711,-4.892465 c -3.06311,-11.336926 -2.04098,8.517717 0,0 z M 301.77,40.792572 c -3.82883,-4.839801 -2.38514,4.921204 0,0 z M 462.80436,242.93102 c -7.10228,-14.99697 9.62684,3.25437 0,0 z M 379.65975,80.869629 c 8.73767,-6.472136 7.91461,0.406611 0,0 z"
       id="path6186"
       inkscape:connector-curvature="0" />
    <path
       style="fill:#86785b"
       d="m 378.8775,460.14786 c -26.85485,-8.15733 -9.91603,-41.83263 -15.74599,-61.7926 0.36654,-11.71226 -5.58303,-27.65524 -5.09292,-6.06517 -1.45067,22.00407 5.47136,59.03018 -21.69628,66.53834 -24.348,-3.3461 -20.92999,-31.85431 -21.90797,-49.99235 0.42082,-9.88412 1.262,-30.21865 -9.67126,-13.47512 -13.04168,14.79635 -38.67232,11.04063 -35.54916,-11.59305 -12.03477,-22.84155 4.96803,-43.23923 22.05028,-56.33101 7.03267,-22.08199 17.35052,-42.58685 25.37743,-64.21753 4.91223,-17.20442 14.64583,-41.31614 -5.07713,-53.09214 -20.63517,-0.73988 -43.5184,15.72051 -41.75144,38.92724 7.80275,26.3242 -19.69525,44.21743 -19.18309,68.90439 2.67511,28.22659 -28.41495,27.02855 -47.35533,28.12791 -24.4954,8.03012 -19.22633,-21.89227 -20.83141,-32.73084 -15.19773,20.3227 -20.0981,50.15192 -45.00287,61.85408 -25.86398,7.67517 -4.86115,-47.5606 -18.03047,-21.4636 -10.97555,18.75123 -39.497279,17.62967 -40.54275,-5.03904 -33.767316,2.58128 -4.085878,-38.86951 -27.074901,-48.33691 -1.660356,-19.90979 4.118006,-37.77331 11.537366,-52.72014 2.335484,-22.27813 23.593723,-28.60089 31.294768,-49.21372 -3.598869,-19.65106 16.752997,-30.09572 29.059447,-40.53999 32.13322,-12.89455 70.18914,-20.49658 90.46143,-51.59863 16.65936,-20.064948 25.3352,-47.777379 50.2102,-59.790617 8.30089,-3.161006 9.99452,0.210302 19.04871,-1.502437 -0.26819,1.629651 21.02261,0.404829 23.90552,12.696023 11.53187,10.379809 16.22471,46.995841 31.78382,40.976856 4.80783,-2.864784 3.72526,-7.796789 6.48165,-8.073392 6.67925,21.417927 -26.6719,26.517277 -25.26771,49.396857 -0.0538,23.47851 16.09281,-13.55654 25.70612,-17.5778 17.99357,-17.43792 42.03182,-35.950741 67.15509,-19.19883 12.02809,-1.26538 29.42184,30.32551 33.50647,9.58814 -7.89086,2.12729 -27.2561,-7.94326 -10.0659,-9.64617 -14.67846,-0.2832 -11.75911,-18.132169 -1.16028,-2.44363 14.13825,13.15534 28.09124,28.72845 33.22553,50.52313 0.16926,11.31005 8.07742,30.32381 2.7117,47.41893 -0.12344,6.62566 -8.38194,23.39192 -5.51767,7.54168 -4.20877,6.10482 -3.00597,30.95478 -14.99888,19.73368 1.44977,8.79215 10.67218,23.48318 1.01829,23.00235 0.93434,21.18316 27.92372,16.22667 22.61948,39.97446 -4.76233,21.03753 -0.20785,41.94986 4.6673,62.51166 1.06445,21.1013 1.91292,42.69585 0.0672,63.7653 -2.25222,30.29839 -33.15181,5.99624 -35.30248,1.02741 2.95445,23.50381 -16.62187,53.27691 -39.32659,28.70331 -9.0724,-2.9018 -9.17906,22.46799 -25.73527,15.22297 z m -34.29368,-15.0166 c -0.37588,-19.05461 -3.03764,19.96377 0,0 z m 1.745,-15.97089 c 0.23702,-16.95928 -5.68214,14.54731 0,0 z m 124.32261,-8.60267 c 2.7547,-17.17508 -6.96986,12.97896 0,0 z m -0.6707,-18.41798 c -1.30801,-19.86938 -3.1654,20.72095 0,0 z m -126.56983,4.22092 c 2.86202,-9.58881 -9.17161,4.25692 0,0 z m 48.31785,-0.0807 c 10.27457,-10.3159 -17.85736,2.62951 0,0 z M 338.6803,401.5318 c 2.65557,-21.58679 -27.2632,4.9334 -3.65133,1.26289 1.35379,0.0275 2.4405,-0.81536 3.65133,-1.26289 z m -9.3453,-4.49082 c 4.52974,-8.03011 8.99434,2.23066 0,0 z m 55.21449,4.79887 c 5.20711,-19.98981 -18.56551,10.25873 0,0 z m 54.31864,-2.95394 c 2.86848,-12.87044 -20.58608,-10.06725 -14.34251,-4.62974 -0.67928,4.44945 16.14966,-3.27753 14.34251,4.62974 z m -60.29211,-3.93115 c 13.96234,-10.12995 -14.67271,6.01445 0,0 z m -50.41324,-5.36855 c 1.02591,-11.75065 -9.28009,8.19496 0,0 z m 47.75045,-0.66928 c 1.52204,-9.06832 -8.78889,3.14211 0,0 z m -49.03495,-7.59883 c 6.33525,-11.5962 -12.40695,5.70698 0,0 z m 47.9186,-3.75599 c 3.83587,-16.42228 -11.73121,1.12727 0,0 z m 18.05345,-18.15466 c -1.71195,-6.87904 -8.59804,7.33294 0,0 z m -47.13156,0.38187 c 0.7089,-5.8182 -6.49148,3.60483 0,0 z m -0.67186,-3.59197 c -1.92909,-10.67038 -9.65167,5.77441 0,0 z M 333.805,352.88338 c 19.29278,-5.47493 -19.40383,-8.96643 -7.37185,-23.22206 4.36979,-11.52777 -5.94809,-17.02116 -3.85819,-1.94641 0.37648,7.60913 -4.63912,34.69628 11.23004,25.16847 z m 57.75767,0.65121 c 1.11846,-18.23938 -30.29522,-13.12749 -20.6929,-35.61662 -2.66087,-27.35337 -14.11478,28.64249 3.02146,31.11587 9.37666,-0.0901 12.58894,-5.07 13.40545,5.49925 l 4.26599,-0.9985 0,0 z m 79.32233,-2.31845 c -4.8024,-3.12246 -2.78412,5.88522 0,0 z m -51.405,0.003 c -2.779,-4.67046 -3.003,2.82642 0,0 z m 0.94954,-4.61167 c 7.70479,-3.1227 23.84281,-8.46314 7.18541,-12.79426 -10.22368,0.72401 -21.8133,6.7118 -8.78919,14.00473 l 1.60378,-1.21047 z m 47.47546,0.43649 c -0.2859,-8.87179 -3.74285,3.83939 -0.0138,0.022 l 0.0138,-0.022 z m -32.631,-2.15601 -0.77849,1.32187 0.77849,-1.32187 z m -94.50862,-0.27056 c -3.98594,-4.11466 -3.42466,5.06799 0,0 z m 118.88547,-3.10721 c 17.92299,-3.60794 -7.34088,-9.22649 -2.44894,0.61795 0.81631,-0.20598 1.63263,-0.41197 2.44894,-0.61795 z m -47.95756,-9.9029 c 1.18924,-8.23781 -5.37579,-34.00991 -3.64315,-10.63221 0.9752,1.0213 0.46023,15.88874 3.64315,10.63221 z m -275.01677,-0.90285 c -3.04461,-9.35449 16.20144,-27.44589 -2.98631,-16.41867 -0.89298,2.7383 -5.71429,21.79294 2.98631,16.41867 z M 102.11,316.92387 c -10.078815,-3.20031 11.40787,-24.09217 -5.587706,-15.09949 -8.59196,5.82865 -5.036667,16.61344 5.587706,15.09949 z m 11.3658,-0.16992 c -3.27728,-6.69241 -4.59132,4.83374 0,0 z m 52.53347,-8.76768 c -0.73824,-3.74788 -2.9046,5.15854 0,0 z m -16.97568,-6.29546 c -7.95096,-14.47492 -8.91839,13.21986 0,0 z m -85.376069,-5.91214 c -0.693377,-13.82182 -4.916469,3.97606 0,0 z m 44.092759,-3.03408 c 10.64476,-22.7844 -15.868481,6.42644 0,0 z m -41.216386,-2.14837 c 16.167422,-18.21225 -12.6906,0.38158 0,0 z M 169.16,287.27796 c -3.62331,-7.01459 -3.16671,4.66359 0,0 z m -18.46358,-2.05537 c -4.32335,-1.52947 1.89249,5.15619 0,0 z m 173.51532,-0.0517 c 15.80348,-5.57482 5.0364,-44.28071 -3.47363,-17.11281 -3.12286,6.24858 -11.25942,21.17268 3.47363,17.11281 z M 153.2866,278.58304 c 19.4417,-19.64534 -21.28697,-5.41295 -2.06012,2.21331 l 2.06012,-2.21331 z M 75.29,278.38928 c -3.588206,-3.3779 -3.588206,3.3779 0,0 z m 286.8801,-2.21084 c 2.298,-15.49401 -9.93662,6.23746 -0.33828,0.81008 l 0.33828,-0.81008 z M 81.068843,269.88926 c 4.860502,-20.24925 -12.351503,12.60117 0,0 z M 374.035,268.22457 c 23.27774,-0.0143 10.25185,-31.41689 3.18608,-37.18488 0.82675,7.85684 -23.89856,43.24462 -3.18608,37.18488 z m 81.19024,-1.26719 c 1.33743,-10.64424 -11.36726,-28.78668 -3.19376,-8.42424 0.80203,1.7867 -1.3469,9.96169 3.19376,8.42424 z m -43.1781,-2.14751 c 27.0436,12.31392 6.9629,-45.607 -0.5428,-20.4905 -0.68857,5.91973 -4.55258,16.07962 0.5428,20.4905 z m -246.89835,-1.22093 c 8.72952,-6.1433 19.19419,-39.52967 1.10851,-22.96288 -2.81944,5.95687 -21.04819,29.7618 -1.10851,22.96288 z m -41.69976,-1.07874 c 5.96743,-16.79989 -25.391991,-2.63751 -5.63331,1.40945 1.35903,-0.002 4.98408,0.88953 5.63331,-1.40945 z m 2.72783,-14.18022 c 2.7448,-10.32373 31.42096,-40.27164 6.98125,-24.63212 -2.83823,3.69118 -14.40901,27.40176 -6.98125,24.63212 z m -55.968589,-2.10502 c -2.769206,-2.95257 -2.134042,4.20032 0,0 z m 22.823079,-0.79328 c 9.681,-14.20493 -23.410096,2.34584 -1.320062,0.12168 l 1.212867,-0.1118 0.107195,-0.01 z M 207.155,234.5044 c -4.84181,-4.50646 -1.33279,7.11595 0,0 z m -105.66241,-2.35036 c 6.30567,-5.24306 21.57432,-34.58983 7.87605,-14.67337 -0.48772,2.25929 -16.83162,17.60727 -7.87605,14.67337 z M 173.63,224.91125 c -0.9229,-15.70157 -23.09013,4.624 -3.28005,3.13747 2.14232,2.90252 4.16458,-1.34336 3.28005,-3.13747 z m -85.60049,-5.61907 c 7.5815,-3.28173 17.11256,-30.96457 4.380529,-12.98199 -1.127119,1.62528 -14.05868,18.37093 -4.380529,12.98199 z m 91.53262,-6.9754 c 10.19678,-20.30497 -14.35578,-13.68517 -12.07581,0.25803 2.79638,3.37263 10.13491,4.85576 12.07581,-0.25803 z m 11.65986,-0.24417 c 5.74296,-8.36604 23.87422,-14.40084 24.0315,-25.89861 -9.5974,3.97597 -42.85848,13.97391 -24.0315,25.89861 z m -1.42898,-7.3568 c 0.10598,-4.04455 3.08522,5.82811 0,0 z m -44.38474,5.27584 c 0.24786,-18.22991 -16.18045,7.80113 0,0 z M 347.215,203.34512 c -7.84069,-4.98595 -10.86499,-40.31804 -12.20615,-30.83529 3.40415,10.20861 1.0509,25.14914 12.20615,30.83529 z m -224.245,-3.1265 c -2.52181,-14.33962 -9.80606,6.35782 0,0 z m 27.87509,-3.01519 c -4.60448,-19.82074 -9.99082,9.37053 0,0 z m 208.15547,0 c -5.88462,-7.81575 -6.47891,8.03714 0,0 z m -255.04851,-4.26274 c -4.468578,-13.72854 -6.242058,11.0295 0,0 z m 247.57501,2.46003 c 10.36385,-15.66376 21.46132,-42.09297 5.84591,-57.78464 -22.87193,-12.16773 -29.46973,13.77842 -18.86341,29.69096 4.17883,7.75328 1.37341,28.70492 13.0175,28.09368 z m 2.8615,-53.04244 c -1.73563,-8.32361 11.57289,4.92108 0,0 z m -199.7122,50.41329 c 12.05362,-0.99007 -5.53552,-5.76698 10.10378,-7.97892 9.46951,-2.72674 17.40169,-22.24119 1.66453,-10.72473 -6.36047,1.80876 -24.67224,12.54664 -11.76831,18.70365 z m -42.88136,-8.253 c -6.74518,-14.99901 -16.132374,4.58064 0,0 z m 14.155,-6.25809 c 9.68687,3.0659 28.57473,-31.03378 9.92264,-13.72279 -1.97178,2.06049 -18.32876,13.47553 -9.92264,13.72279 z m 206.4465,-20.80789 c -2.85087,-7.02038 1.9872,13.46556 0,0 z M 268.245,152.8779 c -1.39615,-4.70046 -2.9986,2.65015 0,0 z m 69.285,-48.12343 c -4.52138,-6.680146 -4.59847,3.03231 0,0 z M 269.735,52.404176 c 5.97554,-4.266159 -9.71327,4.717427 0,0 z M 462.80436,242.93102 c -7.10228,-14.99697 9.62684,3.25437 0,0 z M 323.85141,143.76891 c -1.88253,-4.01786 4.55035,0.65968 0,0 z m 96.18734,-41.982 c -6.72305,-11.117452 10.76834,7.59077 0,0 z m -83.74167,-3.628772 c 0.42237,-7.377512 4.85417,5.717792 0,0 z m 40.72373,-1.322901 c 13.38118,-10.305091 12.93994,0.627123 0,0 z m -47.18914,-1.097979 c -3.03178,-7.256322 7.60979,-0.625111 0,0 z m 59.62025,-2.304061 c -0.5519,-5.776612 5.93864,2.864689 0,0 z M 410.54,90.441125 c 1.84604,-3.822747 1.43632,3.610462 0,0 z m -71.19898,-2.024262 c 0.57266,-4.783081 3.71616,3.044789 0,0 z M 332.315,86.268777 c 3.97005,-4.874966 6.61226,4.082517 0,0 z m 9.43667,0.167954 c -2.99792,-8.088856 6.00323,1.529871 0,0 z m -2.6075,-5.683655 c 2.58148,-3.893767 2.20627,3.518692 0,0 z M 332.6875,66.802285 c -15.50559,-7.241064 7.86299,-8.183627 0,0 z"
       id="path6184"
       inkscape:connector-curvature="0" />
    <path
       style="fill:#6c6b6d"
       d="m 378.8775,460.14786 c -26.85485,-8.15733 -9.91603,-41.83263 -15.74599,-61.7926 0.36654,-11.71226 -5.58303,-27.65524 -5.09292,-6.06517 -1.45067,22.00407 5.47136,59.03018 -21.69628,66.53834 -24.348,-3.3461 -20.92999,-31.85431 -21.90797,-49.99235 0.42082,-9.88412 1.262,-30.21865 -9.67126,-13.47512 -13.04469,14.79809 -38.66865,11.038 -35.55231,-11.59315 -11.96477,-22.75394 4.86174,-43.22412 22.0177,-56.16781 6.77489,-22.11924 17.55963,-42.31504 25.37151,-63.95086 4.75459,-17.35799 14.85553,-41.61952 -5.03548,-53.52191 -20.63517,-0.73988 -43.5184,15.72051 -41.75144,38.92724 7.72586,26.29073 -19.48664,44.14977 -19.27343,68.8061 2.26178,28.08089 -28.17253,27.39509 -47.26502,28.22624 -24.49541,8.02994 -19.22628,-21.89228 -20.83137,-32.73088 -15.19773,20.3227 -20.0981,50.15192 -45.00287,61.85408 -25.86397,7.67517 -4.86117,-47.5606 -18.03048,-21.4636 -10.97555,18.75122 -39.49727,17.62967 -40.542742,-5.03904 -33.850163,2.59343 -3.923439,-38.84961 -27.164922,-48.30753 2.111257,-15.67121 -2.258215,-38.70779 12.185595,-45.03124 -3.969162,-14.93689 3.389259,-28.9701 18.607909,-27.61128 -2.613983,-14.62293 16.988842,-30.32872 15.503319,-46.8475 17.131911,-21.02348 42.806161,-30.16582 67.504571,-38.67368 29.55081,-9.63466 50.50956,-33.88086 65.12359,-60.260059 6.78703,-11.526082 25.18364,-38.138065 35.81716,-32.623742 -12.47675,15.634918 19.23033,-7.514712 29.28985,-0.481427 20.56743,8.985924 22.90615,35.739747 34.29647,53.085398 19.47567,13.44189 -24.75396,28.76737 -10.54672,48.54571 10.59808,-2.73191 18.77979,-25.11209 31.78998,-32.49211 12.74192,-9.93986 28.07701,-21.941558 44.76502,-20.821516 20.13024,5.520366 36.35278,19.500746 51.38086,33.340096 -5.17096,-19.99367 16.41871,-8.68267 11.34087,5.21503 5.19343,21.63701 18.19067,43.18603 11.64941,66.0968 0.28044,4.28438 -6.1218,18.98272 -5.69796,6.61762 0.55431,12.82868 -9.29188,22.95351 -13.15564,21.23176 4.91634,10.54185 9.09433,25.70098 -4.6284,10.23217 -1.21073,12.71162 5.72927,31.64037 21.39567,30.15753 16.00319,15.4166 -2.77474,36.45772 5.24359,54.94022 0.42432,16.80694 18.0836,46.66762 -3.40423,53.94005 1.61267,7.70176 16.81351,-3.05379 9.91477,12.53615 4.24758,15.1327 -3.65,49.71713 -24.37362,36.48425 -4.63373,-7.1174 -14.32463,-21.85907 -13.78898,-3.29392 6.82779,24.12445 -25.77043,40.95705 -39.22504,18.5879 -7.67862,5.49652 -10.08329,24.71656 -23.81277,16.87381 z M 344.67953,446.3203 c 0.12193,-20.84813 -3.7481,18.53616 -0.16829,1.04431 l 0.16829,-1.04431 z m 1.64344,-17.44832 c -2.76321,-15.07103 -3.7257,13.93847 0,0 z m 124.32846,-8.31428 c 2.7547,-17.17508 -6.96986,12.97896 0,0 z M 332.315,413.94635 c -12.21085,-7.55539 12.23581,-13.86425 7.47501,-1.16888 14.38378,-7.80309 -0.0382,-26.82528 -12.16041,-24.32692 0.39907,1.54887 -16.44459,23.04927 0.67452,24.52805 -0.10265,0.19211 9.09721,4.55977 4.01088,0.96775 z m 14.14896,0.23656 c 2.40501,-7.78832 -8.92882,6.23341 0,0 z m 39.05761,0.9187 c 11.58144,-6.26496 10.54981,-3.77151 5.58411,-5.02825 16.4013,-9.1152 -12.71169,-30.91771 -18.61451,-9.5552 -4.7301,7.98404 6.23211,15.1465 13.0304,14.58345 z m 84.45824,-13.34952 c -0.45424,-20.18657 -3.86094,20.23129 -0.0472,1.11668 l 0.0472,-1.11668 z m -29.46697,4.12286 c 13.11178,-10.95468 -17.95431,-31.19085 -17.43713,-9.85832 9.00401,3.42166 13.30457,1.39451 13.74665,11.8479 l 1.50828,-0.33735 2.1822,-1.65223 z m -64.59961,-16.95804 c 1.52204,-9.06832 -8.78889,3.14211 0,0 z m -49.03495,-7.59883 c 6.33525,-11.5962 -12.40695,5.70698 0,0 z m 47.9186,-3.75599 c 3.83587,-16.42228 -11.73121,1.12727 0,0 z m 96.12731,-4.1808 c -7.02571,-3.05516 0.59684,5.46803 0,0 z m -124.55718,-7.88926 c 3.41797,-7.16051 -7.28747,4.25592 0,0 z m -19.7339,-4.78738 c -3.74622,-12.80488 17.73827,-5.21571 17.99204,-0.83377 11.20939,-11.88587 -11.61558,-21.25108 -18.27029,-21.68492 1.47252,-8.12936 -1.49682,-32.55262 -2.98521,-11.76372 -4.65833,9.8878 -1.0214,42.46757 3.26346,34.28239 l 0,2e-5 z m 66.388,-0.69867 c 4.96741,-16.14818 -5.31094,-26.83855 -20.4301,-23.78249 -3.1506,-4.86733 -1.37091,-40.80194 -6.49239,-19.52006 -2.21714,11.89325 -3.48488,53.71998 15.98015,34.12776 6.93787,-13.78498 -1.18868,20.68396 10.94234,9.17479 z m 44.58575,-3.96788 c -2.38781,-8.71865 0.42167,-14.88549 2.89582,-15.02713 -8.85152,-19.05336 -43.58463,0.57106 -20.4523,11.01887 14.99257,-22.19686 9.22866,-0.72081 17.55648,4.00826 z m 33.2719,-3.85855 c 0.75704,-10.79854 -4.4e-4,-26.9566 -14.83606,-15.38523 -7.37879,11.53588 15.26722,0.82358 10.63036,16.47261 l 1.60326,0.24658 2.60244,-1.33396 0,0 z M 152.61093,336.39856 c 9.64864,-11.3332 -27.86113,-3.27916 -8.97663,-18.62154 -2.1875,-22.43672 -28.15796,24.66716 -0.93479,15.79337 18.92698,2.74225 -26.28771,3.33153 -0.45438,4.87094 3.4051,-0.33171 7.48154,0.33086 10.3658,-2.04277 z m 259.08236,-4.79118 c 1.18924,-8.23781 -5.37579,-34.00991 -3.64315,-10.63221 0.9752,1.0213 0.46023,15.88874 3.64315,10.63221 z m -297.84965,-8.94751 c -8.98533,-3.7187 -13.692,4.96814 -1.22361,0.30216 l 1.18249,-0.29201 0.0411,-0.0102 z M 108.07,319.89621 c 14.44072,-2.03445 4.50486,-10.98372 -3.75718,-3.79836 -7.462583,-4.50366 8.14823,-25.69717 -9.687319,-13.3471 -10.389052,9.43496 1.977832,24.37944 13.444499,17.14546 z m 57.93927,-11.90994 c -0.73824,-3.74788 -2.9046,5.15854 0,0 z m -16.97568,-6.29546 c -7.95096,-14.47492 -8.91839,13.21986 0,0 z m -83.05609,1.49057 c -4.156488,-8.26617 15.814259,-27.01851 -0.79743,-19.35149 -3.469076,4.45914 -9.610346,19.51849 0.79743,19.35149 z m 41.77278,-10.43679 c 10.64476,-22.7844 -15.868481,6.42644 0,0 z m 46.14788,-1.17956 c 5.19154,-3.029 -6.70152,-14.82471 5.96234,-9.64015 11.5529,-18.98268 -22.48312,-18.3958 -13.87911,0.96778 -0.1544,4.39474 1.30477,13.6003 7.91677,8.67237 z m 18.37208,-3.55979 c -12.51813,-20.91617 -7.20308,10.81096 0,0 z m 151.0966,-1.28424 c 14.03567,-6.0428 13.69826,-51.80057 -0.83003,-24.16124 -4.1535,7.20647 -15.89351,23.81045 0.83003,24.16124 z M 74.111569,279.46892 c 3.110356,-5.02461 -5.535201,1.76367 0,0 z M 362.1701,276.17844 c 2.298,-15.49401 -9.93662,6.23746 -0.33828,0.81008 l 0.33828,-0.81008 z m 20.16869,-1.37141 c 14.20921,-7.02597 3.18119,-49.20064 -6.85839,-38.11562 -8.93032,9.71726 -15.60347,46.821 5.32289,30.0187 13.64082,-1.83151 -11.16853,16.60756 1.5355,8.09692 z m 43.46627,-1.05993 c 6.51789,-9.3256 -9.45997,8.95737 0,0 z M 377.76,273.35149 c -2.05886,-4.24446 -1.89421,4.24233 0,0 z M 81.068843,269.88926 c 4.860502,-20.24925 -12.351503,12.60117 0,0 z m 50.841157,0.4078 c -1.65307,-6.08792 -2.89203,3.92069 0,0 z m -18.04102,-1.86342 c 2.70708,-7.04788 -7.29304,1.51921 0,0 z M 415.01,266.42438 c 24.90549,6.80877 11.53945,-26.53998 -1.22363,-31.31882 -1.48821,6.68512 -11.98784,33.47794 1.22363,31.31882 z m -288.70624,-1.65686 c 13.34222,-19.10487 -31.335934,-7.70391 -9.17586,-0.57737 2.95135,0.52638 6.24471,2.48482 9.17586,0.57737 z m 38.84503,-1.17858 c 8.72952,-6.1433 19.19419,-39.52967 1.10851,-22.96288 -2.81944,5.95687 -21.04819,29.7618 -1.10851,22.96288 z m -38.97193,-15.25896 c 2.7448,-10.32373 31.42096,-40.27164 6.98125,-24.63212 -2.83823,3.69118 -14.40901,27.40176 -6.98125,24.63212 z m -29.153583,-1.62381 c 8.657883,-20.17479 -29.918867,-1.12862 -5.434357,0.58721 1.94266,0.61771 3.593858,0.0177 5.434357,-0.58721 z m -26.815006,-0.48121 c -2.769206,-2.95257 -2.134042,4.20032 0,0 z M 207.155,234.5044 c -4.84181,-4.50646 -1.33279,7.11595 0,0 z m -105.66241,-2.35036 c 6.30567,-5.24306 21.57432,-34.58983 7.87605,-14.67337 -0.48772,2.25929 -16.83162,17.60727 -7.87605,14.67337 z M 173.63,224.91125 c -0.9229,-15.70157 -23.09013,4.624 -3.28005,3.13747 2.14232,2.90252 4.16458,-1.34336 3.28005,-3.13747 z m -85.60049,-5.61907 c 9.965439,-6.71382 15.52832,-30.73073 2.670242,-10.4243 -1.062639,1.79232 -12.250338,15.29196 -2.670242,10.4243 z m 106.24323,-7.48113 c 8.91451,-13.5969 3.06867,14.36266 9.61881,-0.62767 -0.21619,-13.12972 16.14415,-19.75328 16.4063,-28.19403 -14.14443,2.86823 -47.29806,17.21875 -29.07101,32.11753 l 3.0459,-3.29583 z m -14.71061,0.50573 c 10.19678,-20.30497 -14.35578,-13.68517 -12.07581,0.25803 2.79638,3.37263 10.13491,4.85576 12.07581,-0.25803 z m -34.15386,-2.32513 c 0.24786,-18.22991 -16.18045,7.80113 0,0 z m 64.60714,-4.10544 c 3.14925,-8.2067 -5.58438,7.82707 0,0 z M 347.215,203.34512 c -7.84069,-4.98595 -10.86499,-40.31804 -12.20615,-30.83529 3.40415,10.20861 1.0509,25.14914 12.20615,30.83529 z m -224.245,-3.1265 c -2.52181,-14.33962 -9.80606,6.35782 0,0 z m 28.1465,-2.44483 c 16.69629,-9.01628 30.77469,-21.93352 45.6085,-33.59054 -19.66399,4.51727 -45.55952,9.28178 -50.57221,28.08405 -6.32624,1.4123 6.84563,12.01952 4.96371,5.50649 z m 207.88406,-0.57036 c -5.88462,-7.81575 -6.47891,8.03714 0,0 z m -255.04851,-4.26274 c -4.468578,-13.72854 -6.242058,11.0295 0,0 z m 247.57501,2.46003 c 10.36385,-15.66376 21.46132,-42.09297 5.84591,-57.78464 -22.87193,-12.16773 -29.46973,13.77842 -18.86341,29.69096 4.17883,7.75328 1.37341,28.70492 13.0175,28.09368 z m 2.8615,-53.04244 c -1.73563,-8.32361 11.57289,4.92108 0,0 z M 122.97,185.96529 c -1.85958,-2.11502 -1.29839,3.38325 0,0 z m -11.175,-1.44672 c -6.74518,-14.99901 -16.132374,4.58064 0,0 z m 15.5761,-3.82845 c 11.07984,-0.78978 35.46529,-32.89939 11.31527,-18.50115 -4.15899,0.63687 -27.4424,19.44234 -11.31527,18.50115 z m 11.38359,-11.63048 c 2.9367,-5.23154 1.56332,2.90728 0,0 z m 5.10345,-5.34537 c 12.44006,-8.74884 -6.67044,7.5768 0,0 z m 57.80529,-2.90269 c -4.11424,-1.06204 -2.32549,4.72678 0,0 z m 130.73307,-3.35899 c -2.85087,-7.02038 1.9872,13.46556 0,0 z M 268.245,152.8779 c -1.39615,-4.70046 -2.9986,2.65015 0,0 z m 187.74,-18.60105 c -2.08291,-5.92107 -4.5845,4.45049 0,0 z m 6.81936,108.65417 c -7.10228,-14.99697 9.62684,3.25437 0,0 z M 340.19718,103.32981 c 0.9403,-6.739626 3.36927,2.00991 0,0 z m 5.68255,-6.084606 c 0.8524,-7.709421 2.50233,8.353366 0,0 z"
       id="path6182"
       inkscape:connector-curvature="0" />
    <path
       style="fill:#515051"
       d="m 379.995,459.81326 c -28.70458,-8.79606 -9.87335,-45.85529 -16.65941,-67.39021 0.26223,-11.02822 -6.49122,-19.78442 -5.37641,-3.07554 -1.48985,21.42907 3.37645,48.82281 -12.27489,65.24841 -1.73998,-5.60088 4.74983,-38.50132 -2.25531,-25.66372 4.25634,16.17363 -6.58671,41.43708 -22.06895,21.12632 -9.927,-18.74971 -2.92541,-41.06318 -8.23946,-60.6908 -10.81455,4.7384 -34.20908,29.74014 -42.88287,3.31824 3.45076,-17.0733 -14.95662,-32.77722 4.40308,-47.11427 22.1043,-15.40176 23.74663,-41.1693 35.02786,-63.0868 7.05449,-19.5722 19.37002,-42.64054 10.50603,-63.16956 -10.69623,-21.17243 -44.65784,-0.4492 -48.5336,16.5019 0.13172,25.74491 -6.30908,49.31106 -20.50454,70.06299 1.20514,21.27907 -7.48787,43.24838 -32.52535,37.51548 -16.62557,5.0013 -43.33805,4.35797 -34.49951,-20.87317 2.70598,-25.1548 -13.68478,11.15345 -18.37218,19.97918 -5.62092,15.9697 -32.77224,49.04994 -42.73549,20.12599 -0.005,-7.49762 5.20518,-25.90673 -5.3109,-10.07853 -6.14877,22.05162 -40.91269,19.7524 -36.645834,-5.4286 -26.513576,5.92809 -14.001767,-29.17183 -15.676307,-43.79162 -6.161503,-10.27431 18.991643,-20.12648 5.519216,-25.44242 -17.438189,1.53551 -2.08194,44.54264 -18.440851,24.4006 -0.952641,-13.82417 2.331238,-31.71242 4.791437,-42.90187 15.008089,-1.80382 1.212061,-35.5981 25.366324,-31.34065 -3.724163,-9.63609 1.571562,-17.51307 3.789367,-7.04724 14.079548,-5.83545 19.519008,-22.5597 8.627248,-32.48834 6.67606,-17.69561 27.5765,-27.77896 43.81859,-35.79892 29.60099,-10.0873 61.45428,-21.8849 78.50632,-50.15339 13.64317,-16.467635 20.83378,-35.465198 37.04566,-48.910176 9.97543,-9.336745 15.53868,-3.647481 6.35943,3.387736 21.00318,-17.300443 52.0026,-6.35363 57.66886,20.533425 4.03231,11.222338 14.04011,28.006635 17.48079,32.672005 -7.80955,8.50868 -28.56595,37.26088 -11.85519,40.27441 10.7527,-19.05404 26.56201,-34.05487 45.4155,-45.29052 22.22264,-18.473726 48.5935,-0.27895 66.52622,15.18425 8.74794,7.01327 13.3024,16.55852 11.81801,0.45015 15.80315,-3.13711 10.07194,28.46946 18.57472,39.42814 2.60718,13.41894 9.0135,31.42238 1.25453,43.09947 2.4471,-9.06807 -3.29701,-38.00732 -5.42433,-13.99414 -0.78604,18.81545 -12.38643,39.02846 -30.82486,21.98055 -14.82734,8.89734 -4.52646,28.02905 10.45349,26.55334 7.80951,15.38984 10.20291,32.01512 28.00518,36.84214 10.71466,18.49488 -5.19726,39.52574 5.19446,58.51884 2.18396,14.28433 -14.7828,-11.97407 -22.316,2.41952 -1.33669,10.20707 17.55602,2.3133 14.52938,17.94397 8.79953,-1.29809 -3.95616,-21.23993 9.40087,-6.97187 5.52471,10.02378 3.16978,18.27635 2.1501,27.36831 -9.11802,5.73058 -9.80094,7.58526 -0.0469,8.78152 0.31876,16.43572 7.70512,41.87497 -14.29163,47.39472 -12.33513,5.1656 -18.94057,-29.3566 -22.90791,-6.47169 4.92859,24.51825 -18.95403,40.52826 -36.87846,20.96412 -12.24238,-3.38762 -7.62219,21.57476 -24.68553,15.09832 z m -60.26704,-32.61554 c -2.26909,-10.39801 1.34828,14.63777 0,0 z m 151.84638,-6.07843 c 1.64878,-16.58543 -7.85659,0.81047 -2.47818,4.09715 l 2.47818,-4.09715 z m -153.13768,-6.85917 c 0.0563,-16.00977 -3.08371,12.43825 0,0 z m 21.7447,2.49915 c -17.5004,2.35467 -6.92955,-22.14109 -1.56618,-9.67487 2.46757,14.15015 14.43606,-12.48087 1.26595,-13.32036 6.33837,-2.4784 -18.07159,-5.37002 -9.9577,-17.39353 -13.21503,-1.6042 -3.43388,26.00411 -9.23634,31.45996 5.50247,4.34669 11.88291,10.2477 19.49427,8.9288 z m 50.44625,-2.62153 c 15.63475,-6.87288 -3.57521,-3.65136 1.36274,-3.664 15.4759,-19.31563 -25.18181,-20.87166 -13.90288,-39.79022 -19.03986,-5.4547 -0.0199,25.35785 -6.85578,34.77609 3.17858,6.84375 11.79771,14.18587 19.39592,8.67813 z m -44.10863,0.63201 c 4.5632,-8.73962 -9.96487,4.90298 0,0 z m 124.05334,-5.77177 c 5.22096,-17.7028 -7.3418,-15.66764 -3.20544,0.31884 0.0944,3.13565 2.88106,0.71174 3.20544,-0.31884 z m -29.65661,-2.69173 c 14.72603,-12.45005 -5.0398,-11.53104 -1.53563,-15.55678 -4.183,-18.88946 -32.684,15.4085 -5.83629,5.5987 5.51419,2.23716 -3.93025,18.7187 7.37192,9.95808 z m -17.80942,-20.57339 c 1.79682,-10.10505 -8.88661,7.5215 0,0 z m -3.00273,-10.26933 c 8.07648,-18.65996 -7.4484,-6.2033 0,0 z m 50.82063,-2.08224 c -7.02571,-3.05516 0.59684,5.46803 0,0 z m -145.29703,-5.13003 c 1.17432,-9.85214 -5.73476,7.24354 -3e-5,0 l 3e-5,0 z m 20.89182,-2.30928 c 6.01619,-8.91625 -8.35334,3.80596 0,0 z M 330.825,364.1909 c -17.08768,-9.46743 12.89903,-14.06371 13.63872,-4.16653 13.31755,-18.86078 -22.62895,-16.88179 -15.02913,-34.64967 -10.05784,-26.34853 -8.44636,21.39949 -8.56749,30.33387 -4.15423,5.65767 5.91441,9.39875 9.9579,8.48233 z m 40.56386,-0.48175 c 1.13174,-12.09358 -6.10032,0.83401 0,0 z m 20.77308,-3.18728 c 5.01174,-13.14103 -0.15826,-26.22925 -15.05895,-28.54916 9.94673,-9.09612 1.29289,-35.57181 -12.36321,-20.96924 3.35968,15.24483 -8.67358,45.16919 14.40424,47.89655 -1.91433,-11.41365 10.37744,-15.89518 6.58055,-0.25876 -0.60244,3.90017 4.45216,5.65993 6.43737,1.88061 z m 48.13917,-6.14948 c -3.3501,-3.78996 -6.70262,-17.91899 1.94198,-8.24193 -2.14369,-20.23162 -37.82679,-6.65393 -21.61441,-29.31518 6.87403,-3.58238 12.72886,4.65656 9.22754,-8.77673 -13.09131,-14.11926 -31.40269,2.20814 -20.97946,18.05179 0.76751,8.41142 8.03461,38.07189 15.25949,18.66944 16.95232,-16.08799 3.22861,30.41119 16.16486,9.61261 z m 29.09389,2.25058 c -3.17774,-3.30203 -1.44698,4.20861 0,0 z M 91.227595,355.25313 c 0.667901,-10.70251 -7.290879,1.4652 0,0 z M 146.81,338.13785 c 10.9982,2.94991 17.20869,-27.57356 6.06007,-9.72122 -13.89036,5.60364 -14.50224,-6.30847 -9.11962,-11.16289 9.63691,-3.55012 -1.74826,-7.95533 5.49438,-15.24826 -8.98579,-9.81551 -8.58442,11.61761 -16.85632,14.51516 -7.96159,12.8793 6.4621,22.40465 16.29922,18.72432 -10.18575,-0.74462 -24.89005,1.24844 -7.31184,3.39886 1.81697,-0.0872 3.62204,-0.35071 5.43411,-0.50597 z m 16.2482,-15.67605 c -4.70663,-0.2828 -1.94267,6.27315 0,0 z m -55.31128,1.61186 c 17.55434,-3.11142 -24.462976,-0.79373 -1.06565,-4.04968 22.25889,-4.65176 -15.03226,-1.68332 -3.32424,-14.46087 3.14359,-6.21362 15.47861,-28.895 1.048,-20.88234 -6.261318,13.21815 -29.838334,43.38858 3.34189,39.39289 z m 339.60411,-10.25091 c -6.46557,-13.3516 2.667,20.25152 0.64862,4.38093 l -0.64862,-4.38093 z m -228.47048,0.80393 c -13.2777,-2.19806 -16.58356,8.80169 -2.09984,0.92068 l 1.11549,-0.48909 0.98435,-0.43159 z M 164.69,314.10411 c 6.95864,-15.49039 -6.87967,-0.65036 -0.26474,0.96647 l 0.26474,-0.96647 z m -47.68,-0.35544 c -2.5207,-9.09354 -3.6677,3.94392 0,0 z m 109.56398,-1.28472 c 9.75427,-1.66539 14.10179,-14.32782 2.2741,-3.86144 0.045,-0.16784 -9.00258,6.7212 -2.2741,3.86144 z m 242.51438,-7.52549 c -3.01627,0.21388 2.50594,5.59327 0,0 z m -143.57335,-1.30915 c 11.73041,-6.99184 -10.84193,0.83475 0,0 z m -155.85517,-4.72687 c 0.60559,-13.64043 -3.25775,15.41705 0,0 z m 73.57799,1.88892 c -3.15167,-5.26354 -4.90348,5.89242 0,0 z M 312.2,300.04477 c -3.21239,-5.35315 -0.72543,6.33056 0,0 z m 55.12319,-0.33325 c 12.83785,-13.1514 -15.71545,1.28705 0,0 z m 27.38556,-0.15527 c -5.23364,-1.90492 -1.59603,1.51681 0,0 z m 34.12761,-2.20304 c -5.48284,-4.16594 -8.3376,2.72876 0,0 z m 31.24614,0.41217 c -7.31628,-3.25195 -6.27636,2.8676 0,0 z m -138.04028,-3.20334 c 10.03331,-3.2672 -4.84502,-11.95569 8.21247,-16.68742 6.15365,-9.68111 6.75261,-42.01935 -5.30131,-19.37662 -12.93627,10.65015 -10.85284,26.04812 -2.91116,36.06404 z M 318.16,270.3428 c 1.21868,-5.78716 1.9402,2.959 0,0 z m -145.58054,17.74206 c -10.8102,-19.18044 -6.5571,12.46707 -0.23939,3.23586 l 0.23939,-3.23586 z m -18.6813,3.48017 c 5.19154,-3.029 -6.70152,-14.82471 5.96234,-9.64015 -0.56123,-18.10301 19.27721,-23.65406 22.52325,-43.49556 -21.97993,-14.06346 -22.87909,25.36212 -35.67782,34.20186 -1.17457,5.56028 -5.1837,26.92434 7.19223,18.93385 z m 309.12709,-5.3583 c -8.49054,-5.47395 -4.3252,3.82343 0,0 z m -216.77334,-7.67284 c 4.86291,-18.14113 -7.89052,20.03209 0,0 z m -70.50161,2.93194 c -0.83306,-5.40301 -3.31458,8.33856 0,0 z m 189.06898,-1.20205 c -1.97726,-13.15165 13.00562,-12.17505 20.40784,-10.71299 -15.05936,18.46378 14.96405,-9.94408 2.27781,-19.22428 -2.95553,-8.69849 -3.77552,-19.2163 1.48414,-4.98112 17.06404,-0.86745 6.05607,34.51811 29.41033,20.31476 30.75251,8.63387 -9.12335,-55.3551 -7.58412,-18.99058 -3.51057,17.95428 -4.42566,-22.40283 -21.9155,-15.69912 -15.28517,-11.82369 -20.8918,33.60843 -21.49872,11.8464 -20.34139,-1.99427 -12.89637,42.98658 -2.58178,37.44693 l 0,0 z m -0.0327,-20.47556 c 4.51522,-21.714 1.28546,8.78207 0,0 z m 42.49158,0.96881 c 2.26959,-7.99933 -0.10078,6.58621 0,0 z M 178.3933,276.38691 c -0.20205,-3.94432 -3.25459,5.19545 0,0 z m 247.31435,-2.41023 c 7.91832,-10.82115 -11.62207,10.52517 0,0 z m -347.233269,0.42359 c 19.985379,-16.1982 -12.450817,-13.19472 0,0 z M 377.76,273.28691 c -2.24643,-3.37169 -1.89111,4.40952 0,0 z m -195.935,-2.32513 c -2.34562,-3.27859 -1.85213,4.37846 0,0 z m -49.915,-0.66472 c -1.65307,-6.08792 -2.89203,3.92069 0,0 z m -17.66933,-1.94086 c -4.06545,-8.48752 24.2317,-0.006 13.36518,-16.46161 4.28933,-9.90058 33.00677,-31.36286 10.92716,-34.19022 -12.28157,13.10593 -18.77794,31.85855 -28.64039,45.84748 -0.54419,2.35031 0.9484,7.57636 4.34805,4.80435 z m 75.01039,-12.5224 c 6.76292,-14.52855 -8.54159,11.91246 0,0 z m 245.00935,-0.34478 c 13.65984,-16.85495 -17.11202,-8.06178 0,0 z M 71.338604,249.42495 c 2.71575,-15.7123 -13.749732,10.86611 0,0 z M 349.45,246.09961 c 17.79441,-1.14257 26.9098,-33.30842 27.43152,-35.20989 0.83306,20.83875 44.78814,6.7779 40.05816,-2.47891 -20.45171,-4.62341 24.74541,-3.90962 2.4896,-15.45906 -1.452,0.97524 17.28569,-5.1108 0.16631,-9.52337 -17.505,-2.84856 -28.53915,-11.4664 -14.47086,-27.45509 10.1873,-10.39921 -4.47347,-25.44025 -1.42738,-39.79839 -18.75057,-24.942268 -46.26987,-0.95957 -61.67486,15.00535 -21.06907,11.61729 -9.75491,37.11123 -4.86804,54.62688 4.49521,15.08722 7.78809,37.07247 13.92697,23.99991 6.71683,2.67616 15.95739,6.85958 7.19657,17.32299 0.66452,2.42687 -23.0403,30.44504 -8.82799,18.96958 z m -1.11006,-45.20664 c -5.48451,-10.12549 9.87865,8.09801 0,0 z m 53.63256,-9.26059 c -8.31083,-3.52021 17.7574,1.3342 0.0949,0.009 l -0.0949,-0.009 z m -8.53624,-53.09934 c 9.17692,-2.25718 -2.89473,-11.43822 6.44248,-2.38017 0.7151,3.84185 -4.21438,4.80215 -6.44248,2.38017 z M 194.69919,246.61248 c 6.44206,-9.4561 -4.16575,-3.54402 -3.53412,1.43199 l 0.60585,0.0731 2.92827,-1.50507 z m -97.61794,0.23462 c -3.048264,-15.85828 31.9712,-26.07705 19.85133,-38.34481 -13.34343,9.45432 -24.087414,28.75744 -34.493736,37.04891 4.210929,2.9992 9.915827,1.1106 14.642406,1.2959 z m 103.03346,-8.17882 c 10.91897,-15.51602 -9.70724,-8.19588 -1.01314,1.67815 l 0.58707,-0.40504 0.42607,-1.27311 z m 6.60686,-1.05173 c 6.55755,-10.60026 -11.3851,-0.87192 0,0 z m -29.3584,-9.79889 c 5.12957,-18.61388 -32.94184,-3.58385 -8.06094,0.6668 1.86682,1.30267 7.11733,3.15332 8.06094,-0.6668 z m 6.19658,-10.95031 c -0.10769,-17.96452 5.78974,6.91217 11.39064,-7.54086 10.80764,-3.90282 0.48372,14.30357 9.01042,2.48534 -1.17141,-16.02484 17.32711,-19.22277 19.41195,-30.91658 -8.46291,-0.63924 -42.03863,23.19601 -23.03959,4.40121 14.02156,-6.85368 51.8452,-7.78484 39.08432,-31.52022 -4.76023,8.33586 -6.79509,-13.95124 -13.23342,-0.59331 -14.52117,11.44874 -27.92758,27.03703 -45.8107,38.95748 -9.31086,9.40159 -30.62847,25.23198 3.18638,24.72694 z m 89.15525,-0.86911 c -1.72799,-6.82553 -1.72799,6.82553 0,0 z m -122.90329,-4.33117 c 3.25257,-17.3974 -33.59163,-2.92063 -8.3348,0.49462 2.08118,1.6065 8.19441,4.88504 8.3348,-0.49462 z m 61.38635,-7.19038 c 3.62388,-12.3958 -7.59127,13.74469 0,0 z m -85.67114,-4.52165 c -3.52607,-17.86604 -15.77405,8.95047 -0.60829,2.83612 0.20276,-0.94537 0.40553,-1.89075 0.60829,-2.83612 z m 27.85902,-0.52985 c 8.77452,-11.91694 26.29153,-16.54789 36.10183,-29.22978 11.44531,-5.37816 17.02922,-14.1423 1.02543,-6.02675 -17.8635,3.96158 -51.03973,16.51903 -50.45878,32.64711 4.19439,1.72156 8.7834,2.74839 13.33152,2.60942 z m 28.43906,-29.3762 c 1.83716,-6.00547 8.59075,0.0733 0,0 z m -71.91729,26.91895 c -3.3519,-5.52651 -14.842656,-14.75222 -9.67076,-1.94322 2.16202,1.3258 7.6071,5.96281 9.67076,1.94322 z m 21.24645,-4.8023 c -17.1424,-15.67775 21.28974,-17.96121 19.29359,-34.51544 -13.88073,-0.4803 -46.16346,28.89703 -19.29359,34.51544 z m 7.60053,-23.106 c 2.9367,-5.23154 1.56332,2.90728 0,0 z m 5.10345,-5.34537 c 12.44006,-8.74884 -6.67044,7.5768 0,0 z m -30.33313,22.16907 c 7.72775,-5.63617 9.71587,-27.85113 -1.96546,-12.35262 -14.676685,0.34132 -12.78001,18.64114 1.96546,12.35262 z M 433.34604,170.0497 c 12.53953,-8.78383 -3.33129,-37.91557 -8.78311,-19.14295 2.21159,1.84152 7.99945,28.49038 8.78311,19.14295 z M 271.225,156.46544 c -3.04624,-14.0634 -12.0835,-1.30164 0,0 z M 229.92136,145.4446 c -8.79722,-4.92995 2.51832,4.25694 0,0 z m 8.37464,-6.71824 c 4.30763,-8.42535 -8.7627,2.42259 0,0 z m 37.55558,-6.22272 c 1.34381,-18.73817 -7.15182,1.78416 -0.48075,4.32574 0.49524,-1.42429 -0.36046,-2.98208 0.48075,-4.32574 z m 180.13342,1.77321 c -2.08291,-5.92107 -4.5845,4.45049 0,0 z m -244.36,-8.1837 c 1.34524,-4.17373 -4.85765,4.45729 0,0 z m 13.48131,-2.41453 c 1.46839,-4.42839 -5.54743,5.10284 0,0 z m 34.65161,-0.87941 c 3.60429,-10.69884 -7.68633,3.1244 0,0 z m -38.4282,-2.55722 c 3.61503,-12.82634 -6.12887,5.68445 0,0 z m 33.50528,-0.3492 c -3.1919,-7.4762 -1.30223,7.02054 0,0 z m 8.60762,-2.00514 c 0.34905,-5.93291 -5.176,3.16713 0,0 z m 4.67075,-7.16585 c -2.82232,-4.80149 -2.15636,5.47298 0,0 z m 21.60108,-14.080324 c 7.52626,-8.106959 27.34879,-2.685626 18.17447,-20.378467 5.31959,-18.233279 -28.97991,-32.833933 -24.11371,-9.052017 4.53538,12.412173 15.04833,18.627998 4.31016,27.976402 -1.0086,6.288256 0.63581,2.649932 1.62908,1.454082 z m -5.34033,-4.456502 c 4.4006,-12.254643 -5.95206,4.979056 0,0 z M 250.0883,63.1559 c -4.81704,0.789106 -3.75692,4.869828 0,0 z m 212.73007,178.40239 c -4.75411,-10.63189 7.22728,5.42817 0,0 z M 430.6223,224.32996 c -5.05449,-13.81572 4.26993,1.05505 0,0 z M 340.19718,103.32981 c 0.9403,-6.739626 3.36927,2.00991 0,0 z m 5.68255,-6.084606 c 0.8524,-7.709421 2.50233,8.353366 0,0 z"
       id="path6180"
       inkscape:connector-curvature="0" />
    <path
       style="fill:#554b38"
       d="m 378.8775,458.93021 c -26.41469,-7.8201 -8.94047,-41.25136 -15.08627,-60.69431 0.87574,-11.60256 -6.52453,-30.16447 -6.59317,-7.01162 -0.45697,19.2458 3.06919,47.82438 -10.58544,60.16315 1.11059,-6.84744 2.37192,-40.52091 -4.36194,-21.67275 4.24293,13.1846 -5.31016,40.90334 -19.55081,20.88464 -4.16746,-13.20009 3.24176,-29.6211 -1.92003,-40.70182 6.93317,3.13099 26.27094,14.90637 25.71413,2.98547 -11.16189,8.60603 -26.10727,-8.64258 -9.40014,-7.92295 5.69265,18.37539 12.96093,-2.43942 4.75439,-10.76695 8.8648,-2.21856 -20.42766,-9.77394 -8.90964,-19.58727 -21.03556,-2.05935 -3.85445,28.50217 -17.69939,36.61851 1.80563,-11.05803 -0.38348,-35.38392 -12.21149,-15.82368 -17.31972,22.91034 -42.37507,-4.97922 -32.81934,-25.81564 -12.77263,4.83404 1.69265,-28.31931 13.14891,-32.49111 19.07372,-13.30616 14.18022,-38.66349 27.5965,-56.08238 6.70092,-20.14483 18.48637,-43.03964 9.07473,-64.14876 -14.64602,-19.30936 -49.65901,3.24292 -49.96359,25.07399 -1.92492,13.75548 1.21234,45.42839 -13.37128,46.12532 1.05692,-12.46997 -6.75555,20.17471 -7.42555,27.68874 2.82642,32.28301 -32.69865,29.25073 -54.73365,28.31189 -20.7503,10.78168 -0.93717,-49.90646 -17.61194,-24.09809 -6.42653,9.86744 -16.31882,41.24968 -24.45801,35.43541 4.5425,-9.02797 11.85701,-19.97722 -3.88902,-13.9843 -14.98982,0.23267 12.14362,9.27339 0.62918,19.7158 -5.82742,18.54896 -33.77542,12.83256 -24.33685,-7.70211 0.97192,-24.9184 -11.54507,21.31596 -27.447726,12.74861 -24.642008,3.30492 -9.959602,-29.79182 -11.881684,-32.09623 0.655787,12.57252 -18.880832,19.37293 -8.838778,3.99257 3.631429,-14.58279 -17.207292,-18.55759 -9.323704,-35.85419 -4.722561,-15.48738 20.199452,-21.25587 15.922509,-39.24743 -11.000979,3.22766 -12.771434,18.60509 -21.831511,25.48316 0.325714,9.36525 -3.584768,29.57522 -9.135761,10.10935 6.232647,-14.4694 -4.455321,-38.17236 12.36491,-41.39693 3.905158,-3.07527 15.096683,-12.36469 3.306065,-13.47333 -8.817342,6.43875 5.431043,-10.47301 3.54642,-12.22781 10.064568,2.95059 13.370865,-7.50466 11.49781,-8.4948 15.774124,4.8703 22.5741,-26.21834 17.8689,-25.35379 24.43365,0.65946 -3.431619,-12.4096 -6.160171,-8.80501 1.727538,-13.76773 26.223111,10.09152 24.522981,-10.8955 5.92053,-10.22743 -7.3589,19.08372 8.88853,14.72915 6.90978,8.17417 37.71712,12.40214 31.55077,4.32411 -8.2339,-7.35578 24.47983,-12.75481 26.91926,-24.81518 5.9656,-5.1696 24.5982,-13.60633 8.80025,-2.58249 -14.63773,8.37899 -45.03851,39.17104 -18.23349,49.51099 11.91361,-0.63605 28.04655,-16.07467 20.79783,-2.92421 11.33428,4.33961 21.3376,-31.87095 9.48246,-9.19526 -8.20922,-1.50926 11.58812,-21.76759 20.82876,-20.46475 9.38038,-7.85475 34.15795,-16.64753 22.20089,-27.70318 17.25908,13.31585 34.0397,-16.5777 50.26278,-24.23472 14.84916,-13.03054 36.60998,-29.81014 17.85219,-50.471867 -3.62414,-26.708471 -35.06603,-46.716997 -52.83396,-18.76477 -12.69361,18.46675 -28.33482,34.559731 -40.62661,53.278267 6.41728,-18.947582 27.75234,-37.231619 39.27676,-56.423379 1.5495,-5.38513 -16.00758,16.235363 -20.00591,23.20343 -17.72189,26.294159 -41.25533,48.193119 -68.38519,64.543669 -19.62137,10.1363 0.32551,17.17427 9.75205,5.46309 6.94592,-5.71104 34.75703,-28.32182 18.04834,-10.49043 -12.41446,20.50533 -36.83728,22.81567 -53.93783,36.21075 -12.60455,13.2984 2.58616,-12.28494 -8.32994,0.37081 -4.70606,13.38385 -25.72951,-2.04122 -6.45352,-5.24215 7.36074,-4.34788 32.70418,-25.29254 9.70011,-17.15991 -10.21905,2.99523 -20.27232,16.13163 -22.32645,4.22257 -4.57623,6.66375 -22.557221,15.39454 -7.7111,4.11916 25.98057,-22.50535 65.74317,-21.65847 89.23517,-48.17296 20.23054,-20.095575 30.12565,-50.439269 57.99886,-62.226315 21.06919,-14.302173 46.91032,-9.449784 54.05643,16.861795 4.00933,13.528741 19.24516,32.49825 19.34756,36.98872 -9.7055,10.32406 -26.81075,36.13223 -12.96542,41.58327 15.90759,-25.35813 39.22434,-47.74611 68.59232,-56.09667 21.87587,0.754751 47.87219,29.49081 56.62706,32.9716 -1.61886,-23.47563 13.82878,1.67792 11.88511,12.17663 3.58489,20.05821 16.54227,41.1252 9.04751,61.29998 1.71376,-16.70111 -4.91797,-49.33215 -16.41448,-51.10829 -1.84483,16.18267 -3.53937,33.63406 -1.589,48.49486 -10.30809,2.91863 -29.34349,-3.83115 -11.26405,-11.18736 4.45473,-21.24372 12.39176,-51.43164 -7.02705,-67.26346 -19.53543,-16.15604 -47.4572,-33.191898 -68.7568,-9.31254 -18.37517,12.65402 -44.85695,31.19546 -31.84737,56.957 7.46734,14.2122 6.32939,40.39735 14.59195,48.94987 23.63029,-11.29423 -13.38946,39.10987 7.02852,13.1032 3.63927,-8.91723 7.74971,-25.83432 5.41263,-6.43701 -5.79559,16.50932 -30.93811,30.3831 -21.39738,49.44826 13.67539,15.34887 14.19748,-22.33403 18.33353,0.65206 0.90217,17.13029 16.27929,7.79177 11.85171,-3.75977 3.89772,-0.3046 14.45809,7.83163 7.58175,-2.2071 19.30605,-11.13821 -6.51539,19.99584 9.35909,5.37021 8.16757,-7.34768 3.71854,-30.66017 5.8059,-9.73777 3.4038,16.235 18.17705,7.12009 22.19384,3.82142 6.43188,0.84311 5.15318,-6.882 14.0859,-1.4812 6.32454,-9.4953 12.42502,18.56209 23.40551,3.15797 1.64378,-9.82874 -12.91985,-42.49623 -1.35713,-17.7366 -0.51348,14.12536 11.77885,17.217 19.29081,21.22466 9.32992,20.22433 -6.3149,40.75036 7.10723,60.70929 0.0312,9.3117 -10.63231,-13.12123 -19.08343,-2.44822 -13.93286,0.64345 -0.0221,16.91259 8.85515,10.67989 -3.13008,7.10913 6.52147,31.24574 4.44546,11.88139 6.63189,-6.46281 -4.701,-21.60781 8.03038,-6.43582 5.84253,15.51234 -1.07029,26.55187 -8.07482,37.60986 -0.25047,3.93254 13.86787,-10.79835 10.11226,3.78081 2.25302,10.20635 -4.34268,44.25857 -3.73844,16.01728 1.04924,-10.43349 1.7072,-7.83235 -1.02231,-0.72715 -6.80771,-34.04601 -15.82168,24.97403 -0.24498,19.93549 -13.91187,24.87846 -34.21937,-33.00106 -33.46099,2.2729 4.75684,10.89006 -17.58999,37.86524 -8.36892,16.36976 7.90691,-10.28388 3.50098,-39.67001 -3.0765,-16.20439 -15.12629,5.41225 -0.13154,9.88218 -4.689,20.73766 -0.37748,17.97736 -28.92832,-20.5363 -28.68611,4.91334 -3.80201,5.28094 -10.91439,7.43374 -17.13499,6.0819 z m 8.84711,-8.05496 c 0.68492,-10.69463 -9.7531,4.38753 0,0 z m 3.89825,-3.97107 c 5.4151,-9.57357 11.81931,-34.56989 -5.33944,-20.81177 -18.67082,-11.01094 -20.46823,18.77217 -4.31799,20.85924 5.92068,-5.44051 7.21633,4.33729 9.65743,-0.0475 z m -6.68227,-4.59311 c 3.23637,-4.48776 5.30171,3.49868 0,0 z m 6.93473,-28.26835 c 17.29878,-7.6556 -8.71499,-26.2207 -0.57798,-27.49068 -9.37166,0.7236 -20.25345,-7.4505 -9.42227,-15.0277 -19.1387,-13.84941 -13.08146,20.38834 -11.23984,25.84407 -5.02698,11.58575 11.38666,23.91661 21.24009,16.67431 z m -0.0641,-4.6968 c 8.60179,-5.88651 -3.87701,4.91882 0,0 z M 431.4,413.39506 c -2.55751,-8.3911 -8.82101,4.14649 0,0 z m -10.29673,-2.86079 c -2.7692,-2.95255 -2.13403,4.20032 0,0 z m 19.65021,-3.57911 c 12.83577,-3.98177 -0.48214,-22.24927 -0.87236,-12.88666 0.21727,-12.97862 -7.79972,-11.95568 -15.82162,-6.07009 15.91175,-11.60305 -15.90876,-5.34713 -4.02522,7.3287 4.1258,12.51929 20.8797,-7.94674 13.73745,11.9103 -0.62589,5.04867 5.5553,0.37682 6.98175,-0.28225 z M 318.905,393.43756 c -4.36953,2.12842 -1.04482,-1.49962 0,0 z m 48.425,-0.79388 c -2.4899,-4.1826 -2.57186,4.74315 0,0 z m 84.185,-6.91082 c -3.1919,-7.4762 -1.30223,7.02054 0,0 z m -29.79721,-12.25015 c 1.57666,-25.77408 -10.96961,17.73423 0,0 z m 15.47784,2.5763 c -4.97511,-3.57397 1.44217,5.59707 0,0 z m 34.06463,-4.03311 c -6.24538,-11.83089 -2.96498,8.65834 0,0 z m -186.01581,-0.24383 c -4.92481,-12.26054 -4.84381,3.5269 0,0 z m 63.46055,0 c -4.40506,-5.51317 -4.01077,4.77602 0,0 z m -23.12403,-1.3087 c 4.31226,-8.13584 13.803,-2.61822 0.57201,-10.93304 5.49007,-17.43712 22.64882,12.53041 21.30528,-7.62529 -5.19026,-14.43349 -21.26694,-14.50389 -14.56988,-32.4999 -15.94036,-16.35887 -12.0654,21.17601 -12.59992,31.68408 1.07139,3.63406 -1.43188,24.86317 5.29251,19.37415 z m 118.25258,-1.98523 c -1.46497,1.62668 1.8522,5.49301 0,0 z m -47.52376,-4.55078 c -12.56772,-7.4561 -1.04343,11.97467 0,0 z m -48.73635,1.273 c -0.0905,-7.75066 -8.50064,6.92711 0,0 z m 24.65999,-0.0162 c 1.24759,-14.25571 31.59018,5.5032 21.00459,-15.85018 -5.07909,-12.39043 11.28499,-36.09613 -9.68441,-44.76213 -27.44042,-3.61983 -20.88477,27.49986 -18.9531,44.52675 1.40526,5.80704 3.95673,11.3621 7.63292,16.08556 z m 10.50922,-5.9209 c -5.39038,-17.3165 8.56798,-10.19508 0,0 z m -250.46015,3.98329 c -2.87259,-6.76063 -1.79782,6.54082 0,0 z m 306.195,-3.5612 c 10.73811,-6.11525 -11.97815,-19.85193 4.35428,-14.23942 -17.92374,-8.48884 -2.35533,-46.09055 -25.91342,-42.68726 -21.60574,7.66066 -6.53751,35.94566 -0.12058,49.34005 8.23707,-3.45415 17.82256,14.32117 21.67972,7.58663 z M 428.42,354.13883 c -16.36694,-25.92996 21.14751,0.62639 0,0 z m -321.84,4.03409 c 2.42341,-8.57335 13.67833,-44.60578 3.30388,-21.0413 -0.0104,2.40226 -6.93218,30.50696 -3.30388,21.0413 z m 20.10359,0.62717 c -2.74712,-5.11373 -0.67029,9.28551 0,0 z M 444.81,360.58968 c -1.39613,-4.70046 -2.99861,2.65011 0,0 z m -26.21177,-3.39945 c -2.38802,-7.7084 -2.0032,8.57745 0,0 z M 92.106288,355.63981 c 0.458781,-12.172 -9.43615,3.31379 0,0 z m 47.943662,-0.9777 c -16.27331,-11.78526 -11.95997,5.26595 0,0 z M 95.7775,343.49297 c -8.987188,-6.86045 1.894387,5.4683 0,0 z m 314.42261,-3.04529 c -3.28396,-2.28599 0.52752,5.41546 0,0 z M 144.9475,338.83742 c 22.85701,-3.65738 20.22717,-29.70378 28.54529,-49.5692 5.44867,-6.87067 11.45531,-30.00653 2.35672,-11.35902 -17.24414,8.44484 -3.78939,30.87377 -18.75674,44.96299 -4.58895,12.72409 -26.71697,2.94575 -10.57633,-4.81281 5.51201,-4.05335 0.97028,-32.53244 -4.69046,-14.9844 -8.86883,10.97156 -25.99701,40.0615 3.12152,35.76244 z m -7.45,-3.05491 c 4.77244,-5.84473 15.45258,2.68153 1.2838,0.18585 l -1.20544,-0.17451 -0.0784,-0.0113 z M 197.47,324.59565 c -3.55827,1.42895 -0.87134,4.86516 0,0 z m 251.61383,-4.16024 c -1.97082,-21.72546 -8.05921,-0.003 -0.0306,5.90078 l 0.15254,-2.0182 -0.1219,-3.88258 z m -341.24631,4.04084 c 18.44384,-3.95913 -23.793207,-1.50504 -0.68713,-4.47344 12.45674,3.50865 16.84636,-24.38278 7.08611,-7.02066 -12.12558,7.79242 -17.286737,-6.52408 -6.37014,-11.51854 9.38262,-6.63762 5.97903,-31.4453 -4.06739,-15.89357 -8.638861,12.54763 -30.539058,46.18035 4.03855,38.90621 z m 102.17852,-5.04966 c 11.45887,-3.8726 31.79755,-4.7481 31.47448,-20.0199 -11.11449,11.71889 -30.82533,11.15224 -39.94452,22.15517 2.9838,0.11306 5.72338,-1.21346 8.47004,-2.13527 z m 252.46757,-10.3753 c -6.60461,-14.10746 3.19389,16.66393 0,0 z m -144.7505,4.58585 c 3.41023,-5.897 -6.55973,4.98088 0,0 z m 13.63937,-11.66161 c 3.02765,-15.25847 -20.95176,15.19099 0,0 z m -19.17494,0.0593 c 2.00658,-7.63277 -4.22775,-1.40417 -1.38718,1.20785 l 1.38718,-1.20785 z m 56.36322,-0.69873 c 21.45126,-8.76248 -6.44956,-15.44097 -8.36319,-1.95527 1.13765,3.25387 6.07163,5.51672 8.36319,1.95527 z M 124.8325,299.31547 c -2.68815,-5.49279 -0.76973,0.64631 -0.74356,1.9972 l 0.74356,-1.9972 z m 276.0225,1.63301 c -14.38946,-7.3608 -14.89708,2.97084 0,0 z m 38.74,-1.24549 c -4.85404,-6.50611 -5.03209,6.39991 0,0 z m -9.3125,-2.39554 c -14.83974,-3.96418 -5.04059,3.32912 2.92582,1.89129 l -2.92582,-1.89129 z m 32.0119,1.27186 c -9.35975,-6.69153 -12.68532,4.52718 0,0 z m -139.56937,-2.10246 c 9.71969,0.0201 12.14333,-20.27528 1.71648,-9.03494 10.46848,-8.18487 12.53899,-42.58761 9.99245,-41.21821 -13.09385,10.96246 -29.62442,40.70019 -11.70893,50.25315 z M 126.695,292.25421 c -5.01756,-1.22809 -1.50249,8.76118 0,0 z m 22.35,2.67839 c 11.85452,3.00536 -1.87102,-3.28899 7.15989,-4.5842 -6.86567,-10.80472 2.67646,-8.46144 7.13033,-13.99397 9.97536,3.022 -8.73892,-8.86383 5.20384,-8.98092 8.74583,-10.0597 25.49027,-40.04624 -0.43549,-31.26909 -8.42216,18.34703 -32.25098,38.59658 -19.05857,58.82818 l 0,0 z m 258.48879,-0.21645 c 2.20251,-10.51194 -6.69235,3.97871 0,0 z M 245.42745,283.22572 c 4.5551,-8.55555 3.47072,-19.76739 -1.34378,-5.02544 -10.44781,6.85449 0.98283,22.26755 1.34378,5.02544 z M 394.895,293.5299 c -9.19525,-5.03697 -15.92512,-1.6207 -1.71151,0.98688 l 1.24986,-0.0546 0.46165,-0.93225 z m 19.18375,-2.18009 c 2.50073,-8.64823 -8.20847,6.10004 0,0 z M 427.675,290.8729 c -2.22675,-4.69468 -3.48517,1.99405 0,0 z m -28.31,-1.65219 c -6.30385,-5.30539 -11.88121,1.05613 0,0 z m 40.75043,-1.20591 c -13.97707,-8.02908 -19.8902,2.53733 0,0 z m 24.16829,-1.90087 c -15.36941,-4.33226 -10.33312,1.44684 0,0 z M 115.52,277.85041 c -12.60529,-19.86757 20.74518,-7.0584 14.62196,-26.70676 17.23538,-1.64041 26.75183,-45.67539 4.1089,-30.2235 -6.97566,18.08479 -31.7703,37.03165 -20.86605,56.78908 l 2.13519,0.14118 0,0 z m 310.3371,-3.44878 c 11.69993,-14.02306 -14.38407,8.98915 -1.20935,0.82989 l 1.20935,-0.82989 z m -293.38964,-4.34004 c -3.63385,-7.98239 -3.27718,4.69609 0,0 z m 11.93681,-4.70274 c -1.78571,-3.76047 -2.71637,4.55335 0,0 z m 46.73102,-11.31446 c 7.65417,-8.77212 8.57002,-17.01899 16.70438,-18.45173 1.83298,-16.19676 -15.14248,-12.53747 -12.75824,2.82067 -5.42532,5.85151 -19.51949,40.67033 -3.94614,15.63106 z m 70.15452,4.52917 c -0.33535,-7.95259 -4.91233,4.50446 0,0 z M 81.971307,250.29394 c -5.88038,-7.40133 10.613235,4.43561 1.946387,-3.55181 C 100.68181,248.9047 113.30254,231 121.08185,215.64912 c 1.80628,-19.47914 -21.784036,3.36723 -23.650728,13.39597 -5.698205,8.03902 -23.471097,12.74912 -17.407061,24.12108 l 1.947246,-2.87223 z m 69.634263,-7.7905 c 7.12483,-17.5866 -12.72284,22.90066 0,0 z m -40.7263,7.35453 c -2.53856,-4.19926 -2.89028,5.06875 0,0 z M 246.64,239.79209 c -3.89625,-7.14629 -6.99064,1.98125 0,0 z m 27.13292,-20.45287 c -2.16939,-16.54468 -8.86816,28.66819 -0.42099,0.89923 l 0.42099,-0.89923 z m -94.62164,10.16282 c 9.24498,-19.09961 -37.3789,-10.64322 -11.96219,-1.38816 3.70936,0.3965 9.27209,6.99775 11.96219,1.38816 z m 45.7482,-5.99918 c 11.91528,-9.69486 38.71415,-31.50688 38.72262,-36.77707 -13.63966,7.05336 -38.63205,31.54994 -38.72262,36.77707 z M 153.73513,213.2311 c 2.57801,-21.29844 -42.32217,-5.60565 -11.04359,-0.0734 3.04692,1.46491 10.14338,6.64245 11.04359,0.0734 z m 72.65207,-14.96351 c 10.86688,-21.2341 -19.30392,26.06767 -1.98233,2.16351 l 1.98233,-2.16351 z m -98.5408,5.91741 c 10.66341,-15.68679 -27.63641,-8.91092 -5.35497,-0.49125 0.90035,0.43199 6.00199,4.40807 5.35497,0.49125 z m 39.88496,-36.27249 c 4.56847,-8.71568 -11.80246,4.69965 0,0 z m -5.27636,-3.0361 c 6.97374,-5.25094 -14.75331,2.52577 0,0 z m 1.23939,-10.00446 c 13.01114,-5.30234 -5.61108,3.48623 -4.27185,1.0642 l 4.27185,-1.0642 z M 455.985,134.20679 c -2.77583,-4.69754 -3.30785,3.10716 0,0 z m 0.34436,-4.67331 c -4.02149,-1.89306 -1.25966,3.94547 0,0 z M 316.65568,437.24545 c -1.25681,-8.82938 5.2012,3.32666 0,0 z M 316.431,424.00551 c 0.0339,-9.0287 2.6898,4.01576 0,0 z m 161.67592,-56.9818 c -1.27858,-6.22113 4.61826,3.88798 0,0 z m -321.22118,-22.725 c -1.71284,-7.15787 5.72445,-0.50982 0,0 z m -88.430721,-8.47154 c -10.914301,-10.1036 8.928297,0.0815 0,0 z M 351.95841,245.95133 c 16.89385,-1.6522 26.81962,-36.51364 24.85493,-33.22908 15.77655,17.54525 -8.36766,27.6536 -24.85493,33.22908 z m 57.35256,-1.66398 c 1.05829,-13.17436 2.34578,5.6135 0,0 z m 10.9769,-5.44494 c -2.38358,-7.50303 -27.93225,-10.34865 -9.85427,-17.3717 8.61047,-7.43434 20.25866,-13.56911 8.00367,1.07445 -6.18219,10.62247 29.89897,24.80364 4.64539,19.75201 l -2.79479,-3.45476 z m 43.28371,2.95188 c -5.22023,-9.80678 5.34498,1.66675 0,0 z M 428.42,208.34525 c -0.90472,-16.68887 12.80368,-4.10703 0,0 z M 181.825,169.88607 c 4.43084,-6.47165 2.78767,2.10025 0,0 z m -43.07031,-0.82643 c 2.9367,-5.23154 1.56332,2.90728 0,0 z m 5.10345,-5.34537 c 12.44006,-8.74884 -6.67044,7.5768 0,0 z m 319.91873,-12.48376 c -0.24329,-4.42786 3.77883,3.41605 0,0 z m -203.31489,-3.00654 c -6.30365,-9.68949 8.45596,7.35248 0,0 z M 205.665,132.70092 c 8.50454,-12.26399 10.46323,0.60305 0,0 z m 8.34768,-6.30924 c 6.49532,-5.92823 10.25661,-1.14786 0,0 z m 126.1845,-23.06187 c 0.9403,-6.739626 3.36927,2.00991 0,0 z m 5.68255,-6.084606 c 0.8524,-7.709421 2.50233,8.353366 0,0 z M 269.50692,87.232846 c -0.5008,-5.204539 4.51131,2.568855 0,0 z M 239.935,68.519148 c 3.13371,-10.52746 38.92371,-28.979558 17.32949,-11.012055 -5.60213,3.944181 -11.7334,7.059682 -17.32949,11.012055 z"
       id="path6178"
       inkscape:connector-curvature="0" />
    <path
       style="fill:#2f2e2e"
       d="m 381.34414,459.34467 c -21.14384,-0.16636 -17.9669,-30.04064 -15.89274,-44.03006 0.11217,-8.50586 -1.01922,-34.36224 -7.13665,-34.54441 -2.36489,20.10053 1.7005,61.18837 -10.34004,67.26453 -5.73284,-18.68395 9.46128,-43.17919 -4.36783,-57.73111 -16.4998,-0.99309 -7.23117,-25.16292 -22.15698,-12.0049 1.84936,7.534 -1.52129,31.59576 -6.17625,28.00915 4.13167,-12.58117 -3.29304,-28.78175 -12.10347,-10.72844 -15.72449,19.2872 -41.43965,1.58689 -32.21325,-20.55814 -15.74843,-13.49107 10.77053,-34.2225 22.95335,-49.52321 4.36998,-15.02049 13.84842,-42.80726 20.12517,-49.23774 -2.47137,18.28901 17.1947,27.54491 22.65642,6.26262 10.44274,-2.61823 17.694,-11.86934 21.89025,0.86859 12.99644,5.82291 7.62717,-15.28611 18.68125,-4.46315 9.06655,-4.95152 12.48704,-9.99676 21.36177,-3.35345 9.34704,-2.80261 14.31053,-6.96158 20.71986,1.27763 10.06152,-8.01565 18.50372,-3.724 28.13287,-1.94181 6.19871,-15.01884 13.24913,6.29815 23.25419,5.55733 -1.81307,16.30459 -1.3564,37.99654 -0.0476,51.8484 -7.33632,-1.61659 -12.66383,-20.22913 -8.51827,-4.43629 -21.6237,3.51347 -8.92912,21.41178 2.48706,28.69071 9.62774,13.55218 -17.88288,20.96874 3.29952,29.28558 10.94164,1.03003 12.04656,-0.47027 8.3995,7.94692 -4.88426,9.93719 -8.07303,-10.09593 -10.11153,6.77443 1.06641,8.57302 -6.64692,27.04536 6.09963,26.76875 -27.78138,11.91267 -23.9938,-28.64888 -31.57733,-41.51114 -17.64508,-17.67173 -34.77505,13.84667 -11.59953,21.20599 4.44835,5.90675 -19.22589,1.77067 -2.23681,7.09679 20.06879,9.15737 -17.15171,17.37213 -1.12355,27.95874 -3.27858,21.45943 -29.20932,-11.80858 -29.72337,10.31564 -3.45702,4.44618 -9.07894,7.19538 -14.73563,6.93205 z m 3.59645,-3.08281 c 17.52369,-11.58057 12.07661,-35.37494 14.37493,-54.57823 -1.77527,-7.235 -11.83494,-11.3021 -5.85476,-15.10295 -10.36706,-0.66418 -23.27966,-5.58618 -12.17958,-15.07573 -19.53012,-11.81362 3.64035,-10.77033 14.05978,-6.15403 12.98097,-15.02798 -7.38405,-34.13993 -1.59818,-52.50937 -9.97584,-21.55046 -40.59342,-1.95072 -30.0974,18.1083 -2.66475,21.54343 9.65885,40.85775 5.70072,62.84588 -4.26633,14.97614 12.32062,25.41104 0.4519,37.75266 1.62144,8.88237 2.94126,23.04049 7.94672,19.57755 -0.79305,4.28613 3.60374,6.27392 7.19587,5.13592 z m -2.69918,-5.23154 0.95996,-0.13044 -0.95996,0.13044 z m 0.86522,-28.22488 c 4.27243,-6.6935 3.42103,6.16905 0,0 z m -6.81505,-7.97815 c -2.50444,-4.32583 5.53623,3.66676 0,0 z m 42.27216,28.82407 c 7.66747,-17.84169 -9.64576,14.71877 0,0 z m -49.75515,-30.5982 c -1.20309,-3.86966 -1.59037,6.30972 0,0 z m 48.63708,-5.4253 c 1.09257,-8.01545 -4.30829,3.73971 0,0 z M 318.16,398.61797 c 3.70006,-6.09867 -3.86048,-9.06657 0,0 z m 49.49033,-6.38505 c -4.3769,-2.84964 -0.703,5.27655 0,0 z m 84.06167,-5.02574 c 0.47169,-7.84164 -5.77191,2.38119 0,0 z m -55.327,-3.77315 c -0.90081,-12.49745 -9.2961,1.2102 0,0 z m 24.12682,-6.19938 c 12.01699,-18.28564 -13.17493,-7.65549 -0.76956,1.55907 l 0.76956,-1.55907 z m 18.00636,0.91696 c 2.48058,-14.95982 -10.5471,1.40148 0,0 z M 313.3175,376.94904 c -1.50714,-4.00804 -2.39898,4.91782 0,0 z m -30.54288,-0.89729 c 10.07389,-13.36195 -7.00744,-11.05063 0,0 z m 161.48682,-6.78857 c -2.45439,-16.33727 -0.65584,14.28597 0,0 z m -94.81144,3.1612 c -3.46087,-8.61171 -7.5236,3.31677 0,0 z m -23.33532,-2.10843 c 12.89133,-2.01865 34.97655,-8.08661 22.21553,-25.26236 -16.21931,-5.21957 -17.17712,-17.98141 -13.32495,-30.36684 -27.64476,-2.38019 -9.44843,30.10901 -15.28827,46.17215 0.0861,3.87009 1.54291,9.57001 6.39769,9.45705 z m 12.57733,-6.37577 c -1.00112,-5.95733 -1.09088,1.46203 1.27089,1.65706 l -1.27089,-1.65706 z m 26.40299,-1.41289 c -2.9294,-9.27008 -2.0749,6.94645 0,0 z m 74.5,-0.8559 c 8.09019,-6.22456 -0.33454,-27.85142 -8.97176,-40.418 9.04056,-24.33787 -30.59361,-24.93166 -25.22221,-2.07081 6.06678,12.22154 1.94186,33.43779 14.14654,38.56868 5.20261,-12.42041 12.90115,8.58136 20.04743,3.92013 z m 9.80875,-40.06223 c 1.62617,-14.50097 -9.56472,-14.25733 -2.9847,0.67976 1.69937,7.26965 4.16768,4.55685 2.9847,-0.67976 z m 14.01333,-9.5462 c -4.09646,-19.93241 -2.42183,12.04143 0.0443,0.42069 l -0.0443,-0.42069 10e-6,0 z M 343.49,315.97891 c -4.40505,-5.51318 -4.01077,4.77603 0,0 z m -25.7025,-2.30111 c 5.17388,-6.33459 -9.59978,7.12967 0,0 z m 10.73438,-9.13426 c 22.01006,-19.48846 -25.00991,7.2052 0,0 z m -15.72784,-4.77008 c -6.92637,-4.02442 0.0278,12.18306 0,0 z m 55.47762,1.86902 c 3.63117,-12.66313 41.0403,-5.45326 17.59572,-12.03372 -7.46236,-4.18886 -39.57184,10.70403 -17.59572,12.03372 z M 401.6,300.7974 c -8.52098,-7.21885 -21.06171,3.79736 0,0 z m 37.995,-1.09441 c -7.8969,-6.64172 -27.44254,-1.20345 -7.89756,-0.53945 2.32579,0.28857 5.99206,3.34009 7.89756,0.53945 z m 23.12221,-1.88922 c -20.99861,-6.84078 -2.54412,6.56604 0,0 z m -52.49915,-3.68632 c 5.04343,-8.35791 26.73552,-0.40494 8.03712,-6.74301 -5.9215,-1.26304 -23.20434,10.49197 -8.03712,6.74301 z m -93.97827,-7.90146 c -3.42481,3.85198 0.71906,7.97705 0,0 z m 83.70107,2.87354 c -7.71834,-7.30451 -12.9999,1.50975 0,0 z m 40.15762,-1.02875 c -13.37892,-7.54536 -17.8719,0.93713 -2.34061,0.73834 0.7802,-0.24611 1.56041,-0.49223 2.34061,-0.73834 z M 466.415,287.2587 c -12.22641,-8.21676 -16.01996,2.47357 0,0 z M 328.298,455.72219 c -18.39912,-11.64757 -0.47368,-52.83372 15.09157,-32.21288 -5.01759,9.22971 5.16374,43.12909 -15.09157,32.21288 z m 9.6045,-10.69846 c -1.90385,-3.07688 -3.33174,3.40022 0,0 z m 92.7525,6.67475 c 0.54046,-9.68704 13.861,-22.7954 5.65158,-5.77049 l -2.35534,3.36388 -3.29624,2.40661 z m -114.01801,-14.8541 c -2.13285,-6.40444 6.08351,2.34388 0,0 z m 4.47258,-18.6961 c -7.89883,-17.86264 24.88003,6.03498 0,0 z m 115.77746,-3.57651 c -3.81288,-12.41599 15.79334,8.01634 0,0 z m 39.58326,-2.57257 c 0.40758,-15.84823 5.09738,9.03258 0.0199,1.09679 l -0.0199,-1.09679 z m -10.92311,-27.17541 c -7.74886,-6.01859 7.37909,1.16032 0,0 z M 131.5375,373.92681 c -12.18558,-4.47669 0.92939,-44.38586 -14.57005,-20.49127 -11.71608,27.3717 -46.253348,8.0054 -31.710737,-16.9696 11.055364,-16.4506 -18.036213,29.43673 -7.900882,1.91422 2.017904,-8.22893 2.248012,-21.20687 -6.247796,-14.39061 -8.074955,-3.62226 0.07293,-20.65598 0.448335,-19.54525 14.213864,-5.95038 0.832352,-26.68608 12.820613,-37.43691 -7.632684,-14.95425 -11.71942,14.2438 -22.527753,18.34323 -7.675888,6.34432 6.690908,31.06125 -8.8556,17.77038 0.0025,-19.75776 1.941754,-40.23765 19.249352,-51.97929 5.790428,-11.22999 -15.625434,-3.53909 -2.18121,-14.93267 19.727857,-2.54969 4.093782,12.11175 8.274784,19.91684 11.331173,4.1104 31.272834,-1.04392 22.962674,-16.73126 15.41907,-0.98034 31.92674,-44.90392 7.41584,-27.01864 -6.25407,5.67313 -18.158091,34.07754 -24.26371,14.3255 11.957543,-7.75874 19.1316,-24.62157 27.37092,-33.14684 -6.21162,-13.68031 -24.802235,5.87108 -15.237449,-9.74309 22.085529,-0.70135 39.174239,18.78507 61.773239,17.85852 16.15187,-9.51464 -3.57318,13.06363 14.48258,15.90739 25.89514,9.4839 41.64911,-11.79099 54.64383,-29.86951 17.58073,-12.28369 35.00453,-21.95159 51.81952,-35.24075 14.84124,-13.60026 31.45155,-25.43985 45.67708,-39.66346 6.58039,-8.8112 -11.23061,-39.035699 2.32652,-15.808291 16.54721,21.662491 -23.18676,38.690831 -10.3785,61.733711 -1.03804,14.87731 19.0518,-31.91385 10.23843,-9.07924 3.88118,23.0372 13.61255,45.79378 16.34913,68.37727 27.32381,-10.13983 -12.8353,41.21519 9.86102,14.12819 4.05056,-8.44781 7.74218,-26.80516 4.95103,-7.28476 -3.91794,9.20973 -25.14155,41.76193 -21.77849,19.55299 -7.15887,4.07319 -23.26591,31.73557 -15.76176,8.30614 6.72623,-15.26063 3.69831,-53.26625 -20.47009,-42.43818 -26.68415,7.15855 -34.3128,30.94269 -32.18535,56.60834 1.4795,10.61303 -14.73999,36.56984 -9.52548,12.23056 -13.07537,14.97377 -2.24443,44.72939 -21.09847,53.61895 -14.0086,7.75205 10.5091,10.37123 -4.00529,8.89139 -16.29783,-0.97975 -52.13687,15.02846 -49.5002,-12.94652 2.96241,-9.38019 0.47386,-25.27945 -7.08064,-9.08651 -6.92421,9.95031 -16.34296,39.28062 -22.29108,36.2504 1.40353,-7.53443 14.01572,-27.29384 2.22729,-19.3135 -1.56468,-11.92074 11.56623,-3.36033 6.6908,-15.55331 7.66542,-21.21916 14.99466,-41.93422 24.74228,-62.53123 3.05846,-11.63623 16.33977,-12.35902 14.83831,-20.75928 7.18532,9.04539 19.42691,-4.09072 5.62604,-1.57657 0.55019,-10.89579 -9.08855,-19.19977 -13.10591,-4.26562 -7.4045,15.12511 -9.80545,40.32823 -27.05575,46.41547 -5.35933,-14.08999 33.29857,-46.66655 1.29331,-43.30065 -11.46414,17.20549 -28.59591,35.95002 -25.67149,57.16782 -1.81041,17.74694 -32.04991,38.75367 -4.47705,50.34147 19.94376,4.83023 6.48221,34.03225 -8.20219,31.44403 z m 1.1175,-10.67022 c -2.92484,-6.6873 -1.80979,6.30187 0,0 z m -28.16452,-0.92005 c 6.61507,-10.66158 14.58097,-45.94085 5.04362,-31.76696 8.98217,6.79034 -12.049562,27.91446 -5.04362,31.76696 z m -12.316661,-6.87981 c -0.577702,-14.64386 -10.088693,5.34005 0,0 z m 48.501731,0.24318 c -13.04385,-13.82813 -17.65466,3.02275 0,0 z M 96.388566,343.38344 c -9.378744,-7.06895 3.255374,7.67485 0,0 z m 94.592294,-4.54073 c 9.31991,-6.71992 -7.11201,2.43671 0,0 z M 99.13,338.45518 c -2.633568,-4.35997 -2.37381,4.2397 0,0 z m 108.20557,-3.21627 c -4.62168,-5.66948 -8.73165,5.83708 0,0 z m 14.38962,-1.37062 c 0.0273,-7.33546 -10.752,6.33063 0,0 z m -24.26976,-8.17162 c 12.41324,-12.5737 43.96097,-4.54849 43.39256,-26.95227 -11.73747,15.31534 -38.41394,10.74728 -45.44532,29.91106 0.68425,-0.98626 1.36851,-1.97253 2.05276,-2.95879 z m -88.13433,-0.81099 c 11.56019,-2.73707 16.84187,-27.17019 3.20936,-16.82712 -6.72006,-7.59385 9.94061,-36.87847 -8.41995,-24.35568 -5.504275,11.82482 -28.40807,37.12344 -5.374538,42.18014 3.556718,0.26178 7.114148,-0.26609 10.585128,-0.99734 z m 15.8057,-24.64317 c 6.81813,-14.86728 -6.21272,-9.30688 0,0 z m -31.351488,-2.42869 c -1.484399,-3.27647 -2.762652,5.49093 0,0 z m 151.963968,-14.969 c 4.89365,-10.72635 4.25566,-20.93089 -2.42894,-5.33623 -9.77787,8.02572 -1.34222,28.92487 2.42894,5.33623 z M 124.8325,277.32594 c -9.4334,-6.26299 4.32207,-10.55921 3.85844,-2.12769 19.16109,-0.11835 -4.15394,-17.19019 6.49511,-20.91012 1.78335,-10.52248 28.25108,-36.89426 2.03937,-37.9975 -9.65935,16.52319 -21.69353,32.62457 -29.06034,49.01577 -1.2177,10.31845 7.12789,17.58015 16.66742,12.01954 z m 19.6274,-12.45965 c -1.40502,-4.34291 -2.94676,6.71947 0,0 z m -4.58917,-0.5629 c 11.17764,-11.14737 -11.46124,6.1313 0,0 z M 261.54,257.85062 c -3.5147,-6.36074 -2.88454,6.42923 0,0 z m -116.88249,-1.2087 c 4.8931,-5.94396 13.66937,-30.52762 3.29982,-10.5853 0.0466,0.95934 -8.38677,14.35247 -3.29982,10.5853 z m 122.62396,-7.97995 c -5.12141,-9.74216 14.9352,-30.8725 3.19853,-33.13321 -1.36893,1.99741 -7.74949,54.2514 -3.19853,33.13321 z M 111.05,250.04335 c -3.13512,-3.9274 -2.98616,4.5902 0,0 z m 136.335,-10.00913 c -5.33103,-7.62447 -9.45681,2.02517 0,0 z m -67.85352,-10.5859 c 9.41373,-19.70109 -38.02341,-11.14411 -12.23398,-1.04704 3.89394,0.34455 9.98075,8.03586 12.23398,1.04704 z m 45.76472,-5.54206 c 11.65021,-12.05999 38.01873,-28.31604 39.96415,-38.35022 -17.05187,7.98686 -34.56468,24.62042 -42.9618,40.17254 0.53866,2.36476 3.19784,-1.81339 2.99765,-1.82232 z M 154.26,213.3954 c 2.54422,-16.30903 -27.88161,-10.57725 -23.70391,-10.09114 4.90763,-16.64481 -30.19704,-7.6679 -7.65279,0.76607 9.50819,4.17517 20.60741,16.01165 31.3567,9.32507 z m 67.46672,-7.89844 c 1.65899,-16.31777 41.53071,-13.71066 30.97841,-28.3878 -15.77893,-2.98139 -37.89823,29.23674 -31.29391,29.09864 l 0.3155,-0.71084 z m 85.3231,-15.04153 c -1.00791,-27.8715 -3.97375,18.34205 0,0 z m -21.81007,-23.1079 c -4.15399,-7.94594 -0.0674,12.78523 0,0 z M 475.355,370.9372 c -18.64297,-5.15398 11.82958,-32.33882 1.09122,-10.21008 -2.58751,3.83769 8.75648,17.77856 -1.09122,10.21008 z m -352.33263,-6.64722 c -1.80635,-9.8253 5.58683,1.38238 0,0 z M 157.24,342.76367 c 1.53072,-5.60469 1.46151,4.06901 0,0 z m 318.16786,-4.24223 c -2.67837,-5.00091 3.77144,2.43079 0,0 z M 66.443125,333.51428 c 1.78127,-3.23214 1.035573,2.32267 0,0 z m 83.061155,-10.31841 c -4.00926,-9.52896 -2.784,-31.25778 15.6763,-26.66827 1.01434,3.5484 -5.54047,35.99347 -15.6763,26.66827 z M 328.59,281.7146 c 3.1555,-8.82935 11.96895,-9.81348 0,0 z m 118.00448,-30.98838 c -7.5102,-13.96061 6.2451,4.63727 0,0 z M 351.685,246.26441 c 14.69318,-5.3898 25.64633,-20.77204 25.3568,-36.49691 13.74861,20.59332 -7.42641,30.93433 -25.3568,36.49691 z m 70.30608,-6.04604 c -6.69238,-8.19638 -27.94254,-15.37036 -7.08523,-21.07484 11.84658,-12.144 9.58058,-2.95062 1.91789,5.18367 -1.48801,8.63616 26.54995,22.95479 5.16734,15.89117 z m 41.59758,1.21351 c -3.90676,-9.10992 3.83083,3.34493 0,0 z m -33.91512,-35.34984 c 2.62497,-15.96014 4.27038,4.89328 0,0 z m 38.79112,-10.45196 c 1.83331,-13.09304 -5.43795,-46.96386 -17.31488,-42.84291 -3.93632,14.01679 -0.66264,34.97001 -6.58454,44.20543 -17.01708,3.11003 3.0069,-19.2095 -1.37846,-28.89571 9.88247,-26.19236 -6.38416,-49.16062 -29.33258,-60.60615 -6.94326,-8.51683 -42.00897,-9.510939 -16.00106,-8.473889 24.33599,6.589669 43.72179,25.683779 58.38416,45.513549 11.41465,17.52724 17.20523,39.52752 12.46096,60.2151 l -0.35338,-4.5474 0.11978,-4.56802 0,0 z m -368.40341,1.60766 c -8.437906,-4.4824 7.45429,1.67078 0,0 z m 65.28553,-1.2212 c -19.18226,-1.34971 21.69982,-15.02165 24.97689,-25.83193 10.75571,-5.61624 -17.25151,15.22431 -21.5197,22.84873 l -3.45719,2.9832 z M 143.085,185.48525 c 10.50142,-7.80374 -0.39277,-17.05105 -3.17547,-3.56259 -22.08883,-0.0153 21.46923,-24.0501 28.96051,-29.31537 -9.08688,-7.2749 -36.5476,19.56305 -42.44095,10.37342 -22.18756,6.33649 19.29669,-13.47565 28.24152,-15.62284 24.00373,-8.22672 47.47539,-20.73811 61.7981,-42.46703 13.51007,-20.434316 27.74708,-42.445257 52.41268,-50.287796 8.45108,-6.623567 43.50955,-6.073215 16.82135,-3.661737 -22.306,8.333367 -31.61886,32.643038 -47.259,48.876278 -4.80361,8.488505 -21.48822,28.541415 -8.50514,8.368195 8.27909,-14.624577 33.46006,-38.492242 33.6281,-47.339391 -23.68061,27.509597 -42.02254,60.787381 -74.0245,79.860641 -8.35359,5.82146 -28.71904,14.99257 -20.68021,23.74751 -10.72286,4.50298 -15.13025,16.56431 -25.77699,21.03071 z m 10.77219,-19.42631 c 17.29625,1.01034 9.75789,-8.163 0,0 z m -35.71164,15.44985 c 2.73141,-9.57461 4.66785,-3.36944 -0.1058,1.12505 l 0.1058,-1.12505 z m 55.98112,-15.24254 c 7.60748,-9.76509 29.41195,-25.34013 33.21461,-25.7556 -9.52098,10.05285 -18.70228,23.10189 -33.21461,25.7556 z m 161.02478,-30.98699 c 8.08792,-13.01519 37.52357,-31.92806 40.97921,-31.75077 -15.3262,8.22546 -28.1028,20.24929 -40.97921,31.75077 z m -126.47831,-4.89187 c 12.23165,-9.00364 -5.03211,7.47598 0,0 z m 35.01799,-66.355764 c 12.62122,-13.002539 6.7019,-0.32482 -2.97482,3.633668 l -0.10417,-0.290104 3.07899,-3.343564 z"
       id="path6176"
       inkscape:connector-curvature="0" />
    <path
       style="fill:#0c0c0c"
       d="m 336.22625,456.13609 c -5.00834,-16.94183 11.65807,-7.16834 0,0 z m 30.86099,-3.94112 c 1.79301,-9.38138 -9.41844,-30.51761 2.12812,-33.0187 -1.09365,10.71987 5.67222,23.81968 -2.12812,33.0187 z m -17.54195,-14.72792 c -0.18523,-20.30982 4.68393,-40.66955 -2.14967,-60.23617 9.29106,-15.52583 3.38384,-35.42914 -1.84927,-46.17963 18.19992,-23.89766 -38.49296,-26.66406 -27.73889,0.16132 -1.66826,20.90932 1.91602,-1.27846 -4.72438,-5.58362 -3.80371,24.57524 8.65571,45.42805 -6.06784,66.74615 -10.64535,10.74708 -28.46711,13.97857 -26.93392,-3.96916 6.96882,-6.97432 10.78065,-34.94235 -2.32588,-15.54849 -2.00806,8.98425 -1.91178,42.09699 -5.95105,16.84749 -0.25269,-6.84019 10.60467,-35.48528 3.07082,-28.97466 -2.8218,22.15777 -12.97304,-5.50989 1.69166,-10.22497 11.33978,-18.83206 37.5588,-28.19843 31.22792,-54.54768 -2.00302,-10.2388 9.35688,-23.85889 5.5812,-5.36819 -6.29018,8.78849 -4.78331,28.114 6.02761,13.99954 -3.56601,9.61419 -11.20235,13.64617 3.77,7.88003 13.10262,-5.07655 17.04969,-21.84711 34.59398,-10.02031 17.75351,10.64895 -6.53627,40.29511 6.11165,57.97149 5.15454,6.74336 2.22702,44.30493 -1.65392,19.73087 -4.01037,-26.96407 -6.50191,13.90554 -5.35166,22.27201 -1.57788,11.92452 -0.30425,38.92721 -6.75469,41.60703 l -0.32395,-2.70592 -0.2502,-3.85713 -2e-5,0 5e-4,0 z m -58.32327,-73.23518 c 9.08648,-0.75392 22.07429,-2.89895 12.85885,-10.49575 -6.12271,-13.59805 -32.57449,3.79036 -14.83919,11.40371 l 1.98034,-0.90796 z M 356.155,304.35325 c -8.31231,-10.27534 -12.89998,4.92071 0,0 z m -44.3275,-10.46309 c 2.25947,-10.50783 -4.79252,-2.93665 -1.50339,1.57855 l 1.50339,-1.57855 z m 94.12618,150.35852 c -18.85858,-12.74282 7.3259,-35.60635 -8.0776,-50.89543 -6.83257,-19.60156 12.44673,-40.67696 -0.0536,-58.10157 0.20452,-15.57735 -6.21221,-40.93607 -27.38178,-32.05937 19.0914,-6.05807 40.5702,-2.27087 59.84949,-2.34015 7.22391,-0.0524 38.64414,-3.59301 31.47676,2.56915 -29.18761,-3.69026 -13.31182,33.91726 -8.16925,46.16147 9.47769,2.83886 -4.48293,14.04904 10.68269,6.934 9.09376,12.58529 -14.66824,3.35729 -4.55566,14.61796 -2.96558,18.09283 4.68522,38.65913 -5.03681,55.01199 -7.09382,-18.34135 1.88151,-37.63652 -9.76778,-52.94685 2.75131,-20.3634 1.58894,-37.88586 -9.39468,-52.62621 -1.81841,26.31913 1.70289,-21.11627 -11.40771,-20.154 -28.07532,-3.33224 -16.874,35.87099 -13.58803,47.17507 3.48363,11.36138 8.00895,29.56961 4.25905,44.04236 5.42217,8.32864 4.31665,11.58005 -0.50847,13.3356 1.83891,10.32937 2.95499,42.94997 -8.32671,39.27598 0,0 4e-5,0 4e-5,0 z m 4.23399,-18.635 c -0.38895,-7.15941 -5.66581,2.8061 0,0 z m -6.16982,-32.71166 c -1.50411,-16.40137 -4.1134,11.8433 0,0 z m -2.76655,-15.2291 c -5.47023,-5.96223 0.60389,7.61975 0,0 z m 50.38554,-4.80032 c -2.64129,-8.66869 -0.89206,7.25016 0,0 z m -43.77787,-6.75542 c -2.05479,-13.24864 -10.10681,6.30931 0,0 z M 449.28,358.98333 c 5.54013,-14.59126 -8.86836,-2.4802 0,0 z m -111.97648,83.07846 c -8.56472,-8.64164 9.93188,-6.93786 0,0 z m -1.51185,-11.50555 c -5.91506,-23.02274 13.75846,0.10371 0,0 z m 90.30437,-3.93981 c -5.05714,-21.62668 10.98709,-5.09748 0,0 z m 34.20545,-0.61181 c -7.95521,-24.67275 14.3535,-1.68604 0,0 z M 320.395,414.45523 c 1.60279,-5.8937 2.99579,4.68678 0,0 z m 128.32625,0.23219 c -4.9329,-7.38614 4.64673,-0.60801 0,0 z m 14.03498,-6.29706 c -5.23946,-11.39234 5.80755,-22.63259 2.74535,-4.78771 -0.0478,0.55382 -0.25616,10.05069 -2.74535,4.78771 z m -97.96089,-1.13884 c -1.04174,-15.98694 8.05723,-10.72224 0,0 z m 83.01835,-4.59806 c 0.5156,-7.06815 4.29533,-1.00554 0,0 z M 319.65,396.62922 c 1.61712,-6.33037 2.12465,4.67376 0,0 z m 128.90766,-0.85954 c 0.94922,-5.52726 1.24554,5.67148 0,0 z m -7.77823,-8.7973 c -1.93353,-10.85357 -0.0459,-30.7231 1.39297,-9.29468 -0.0723,1.993 4.45798,14.2342 -1.39297,9.29468 z m -104.55318,-2.59332 c -5.57858,-10.80066 13.38176,3.57245 0,0 z m 86.97875,-5.22371 c 2.92807,-5.28558 5.30641,2.31182 0,0 z m 5.68062,-0.62865 c -0.15847,-6.40829 4.73939,2.45643 0,0 z M 336.04,373.81004 c 3.74238,-4.34727 5.49094,3.22646 0,0 z m -17.4283,-2.73825 c 3.216,-4.73077 0.35413,3.5234 0,0 z m 20.20638,0.25156 c -0.80039,-7.93252 8.38664,3.83099 0,0 z M 331.57,369.06942 c 4.55529,-2.86032 6.96936,3.86292 0,0 z m -203.72559,-6.20035 c 1.8831,-14.51842 3.43174,-2.04285 0.28772,3.64148 l -0.28772,-3.64148 z m 254.2061,4.00683 c 2.69045,-6.57025 6.98763,4.33949 0,0 z m 39.66449,-3.88043 c 12.24198,-4.85803 9.94587,1.77759 0,0 z m -311.80659,-2.41098 c 0.8013,-19.25793 11.77253,-37.14271 15.14391,-54.67452 4.54391,-13.17297 4.83788,-32.2014 19.74539,-36.77092 -1.32249,10.16764 -5.15392,18.50307 -10.17654,15.38672 22.39097,14.95036 -15.68894,30.65815 -7.79084,49.69768 5.65056,8.69631 10.88363,14.97169 -0.35559,13.87854 0.77008,-17.84239 -11.58718,12.02286 -16.56633,12.4825 z m 21.16373,-48.15569 c 1.82634,-10.10968 -5.4801,7.27292 0,0 z M 137.87,300.86555 c -2.69508,-3.24586 -2.69504,3.24586 0,0 z m 283.59667,57.6116 c 2.8074,-8.30518 10.95564,5.96638 0,0 z m -276.12401,-3.89406 c 0.0195,-9.59465 4.27573,-3.92321 0.86079,1.07437 l -0.86079,-1.07437 z m 11.1565,1.6768 c 7.76687,-20.3103 14.10113,-43.03559 18.81758,-62.41507 -1.94486,-12.03281 13.03301,-7.32428 8.78757,-19.24475 4.16623,-11.15475 12.81605,-30.11428 29.97308,-34.94933 14.62058,-19.75104 35.03098,-34.6724 53.89168,-49.88002 19.05421,-11.06285 -3.49981,-33.60132 17.21038,-40.00494 19.79842,-11.95545 -16.2797,13.59329 -3.76877,15.83222 -0.45333,15.51053 26.27066,-7.7945 17.91784,-14.27084 -4.45107,-15.78092 26.4071,-39.21737 28.88097,-32.9369 -16.62581,16.53379 -20.25165,45.06796 -14.48306,63.45254 1.72885,-10.82226 10.57732,-36.63238 14.22733,-12.43722 8.43104,17.43351 5.34646,40.91977 18.59328,54.71791 0.80043,11.79925 -23.6064,34.86881 -23.90904,29.8681 9.15164,-18.04019 -1.96703,-35.387 -10.17935,-54.16309 -2.84104,-9.52015 -6.31492,-31.41384 -11.03239,-8.77465 -6.46318,12.84172 -29.96449,6.20652 -24.58548,19.21162 -18.2858,7.90901 -2.80095,37.65392 -19.69261,48.16331 13.97312,2.17069 -0.31013,49.72305 2.64469,19.74561 -3.60366,-9.68933 -13.62196,43.26244 -15.79813,13.7578 2.14266,-10.107 18.2503,-44.96026 -0.31443,-21.82658 -12.28638,11.38196 3.29864,36.18784 -20.9073,39.77674 -10.61292,6.0808 -19.98103,-7.45863 -22.00451,6.8129 -7.91641,2.44204 -14.03185,34.49184 -15.73877,13.02481 -1.85433,-10.88323 7.67533,-35.11611 -6.38605,-13.60635 -13.71578,10.46073 -10.07367,28.04413 -22.14451,40.14618 z M 189.722,326.75202 c -3.83422,-3.47342 0.75739,7.80539 0,0 z m -14.602,-8.75258 c 6.89963,-10.72247 -8.27107,4.2641 0,0 z m 2.42125,-6.40897 c 3.80509,-7.28128 -8.02969,3.26538 0,0 z m 17.29149,-20.60673 c -5.6383,-6.58712 -1.73182,9.8239 0,0 z m 5.20555,-7.4168 c -3.92264,-8.7654 -1.17289,11.06938 0,0 z m 8.93065,-16.6795 c -5.19283,-8.04302 -5.11296,12.61432 0,0 z M 192.106,264.28348 c 6.03204,-9.34301 -6.42919,3.41068 0,0 z m 52.18424,-15.7233 c -7.10764,-6.70832 -5.02268,2.64673 0,0 z m 7.25812,-1.75002 c -3.20413,0.20673 2.36529,5.57636 0,0 z m -28.40298,-0.46302 c 1.03658,-14.98039 41.09475,3.92368 15.37258,-12.28719 -5.2691,-2.68792 -25.25714,6.62017 -15.37258,12.28719 z m 16.38811,-23.80986 c 5.764,-7.93074 -6.04821,-2.4118 0,0 z m 37.45018,-26.83689 c -2.53384,-6.82135 -5.68213,5.85503 0,0 z m 10.07258,-1.5817 c 1.70324,-8.83931 -9.38116,4.96193 0,0 z m 24.00863,-14.78835 c -3.42591,-1.85113 1.36137,8.87495 0,0 z m 3.79709,176.04401 c -0.19414,-7.96106 10.41685,-6.91317 0,0 z m 161.40446,-2.22734 c -3.36655,-5.57951 6.09757,1.73176 0,0 z M 84.23,351.63093 c 1.255319,-12.47104 9.962586,-2.92928 0,0 z m 19.70035,-3.55864 c -2.67678,-9.6143 10.96127,-22.48234 3.48141,-6.32434 -1.05,0.90342 -0.49443,8.31352 -3.48141,6.32434 z M 77.922426,346 c -2.599635,-19.72911 13.36802,-40.34694 1.023631,-58.70642 10.066551,-2.32697 -5.076771,-13.01743 8.542562,-19.84387 15.584351,-1.79616 -13.175396,-9.39229 6.568205,-8.86134 17.995726,0.94268 6.052206,-14.60638 18.742726,-21.10412 5.66838,-10.29564 24.06998,-33.94129 0.60143,-30.30818 -8.08939,5.29534 -19.927662,27.44676 -25.070569,22.6379 7.903388,-16.36047 21.755239,-39.86537 40.758189,-20.91005 24.75622,4.10184 -7.33487,17.59415 -7.22972,31.43629 -6.05287,12.20534 -17.0921,5.61712 -13.61326,19.39367 -8.343162,13.85337 0.19344,23.52944 -13.865789,35.90471 C 83.105669,310.38726 92.551213,333.49112 77.922426,346 z M 90.19,288.00513 c -6.240151,-6.88997 -5.161188,9.5346 0,0 z m 2.98,-10.00337 c -1.778742,-4.26151 -1.778786,4.26149 0,0 z m -3.725,-3.93981 c -2.489917,-4.18258 -2.571841,4.74314 0,0 z m 4.873134,0.40055 c -0.367925,-4.81953 -4.359527,3.13776 0,0 z m 6.761276,-8.39602 c 4.90293,-11.63409 -6.725887,5.10489 0,0 z m 115.88634,76.02259 c 14.19071,-5.5935 12.98921,1.84662 0,1e-5 l 0,-1e-5 z M 88.382544,340.19903 c 4.492192,-8.63507 4.987387,2.65186 0,0 z M 235.21675,331.2848 c -17.53952,-7.88501 11.71591,-34.14655 13.27196,-17.47289 -3.81496,5.99745 -11.20948,-8.87409 -10.20049,5.14482 -1.19221,2.33233 1.57517,12.71534 -3.07147,12.32807 z M 91.3075,328.76714 c 4.844302,-6.29795 4.139299,2.37276 0.0055,1.78644 l -0.0055,-1.78644 z m 123.67,1.42827 c -10.26243,-3.70683 -23.5639,-2.99898 -4.92406,-9.03324 18.50039,-14.5062 24.86462,12.08682 4.92406,9.03324 z m 252.9233,-2.33235 c -6.04913,-6.79667 -0.74663,-28.48076 1.58978,-9.1715 -0.41544,2.13839 6.10265,19.91929 -1.58978,9.1715 z m -317.64579,-5.32324 c -4.39188,-12.46808 13.02462,5.97765 0,0 z m 4.62765,-6.73402 c -10.22723,-18.17674 17.6767,-10.49945 2.39226,0.76925 l -2.39226,-0.76925 z m 3.10234,-10.28998 c -2.71102,-5.00119 -2.36651,4.88027 0,0 z m 141.13416,8.45253 c 1.8326,-13.82921 12.49575,-3.6e-4 0,0 z m -185.7043,-7.14616 c -5.19257,-7.21838 5.62595,-0.92838 2.57405,1.12177 l -2.57405,-1.12177 z m -37.176692,-0.39205 c -4.807741,-13.33322 16.450256,4.62755 0,0 z M 311.455,306.439 c 2.83108,-11.12131 2.98187,3.4965 0,0 z M 54.609208,301.65111 c -0.719148,-22.43087 11.692721,1.97439 0,0 z m 59.979542,-2.99408 c -7.62535,-11.21716 18.63077,-22.79007 7.59962,-4.52831 -0.21812,4.86016 -2.58428,11.19134 -7.59962,4.52831 z m 3.19245,-1.31202 c 1.39052,-6.53181 -5.13966,3.47277 0,0 z m 43.72551,2.7455 c -15.44405,-6.79435 15.74955,1.36478 0,0 z m 270.04243,-3.47936 c -9.83892,-11.46245 16.52988,-3.16803 10.79551,-15.14669 4.00446,7.4945 37.06641,7.22338 22.58731,15.81191 -10.34027,-16.10471 -24.46282,-2.58234 -33.38282,-0.66522 z m 8.18555,-0.4443 c 2.93666,-5.23154 1.56335,2.90726 0,0 z m -109.0772,-0.83612 c 8.06449,-10.57003 16.31586,-9.90174 21.5658,-1.24965 2.77516,-5.30512 -2.81936,-14.97083 7.96039,-5.61623 12.68251,-9.91437 36.39451,-18.30748 16.82177,0.89791 -15.43934,0.60557 -28.98958,10.46456 -46.34796,5.96797 z m 70.48905,-7.86504 c -5.58789,-8.04576 16.00535,-11.00378 15.30271,-11.09379 6.26759,7.67298 -12.78173,16.23772 -15.30271,11.09379 z M 56.728447,286.06324 c -9.216779,-15.42123 29.880585,-19.67447 5.77698,-6.02496 -4.857992,0.70314 -1.399727,13.11815 -5.77698,6.02496 z m 409.520093,-0.19648 c -15.56789,-9.30689 13.96929,-7.19233 1.48583,0.89463 l -1.04346,-0.62828 -0.44237,-0.26635 z M 126.695,283.1386 c -16.1675,-3.8259 12.68096,-4.79496 0,0 z m 308.37959,-2.54205 c -24.92916,-6.63893 11.8686,-6.593 0,0 z m 6.01041,-1.43223 c 2.69508,-3.24586 2.69504,3.24586 0,0 z m -272.71712,-3.54677 c -1.5533,-13.36768 8.90255,7.08807 0,0 z m 74.57081,0.34773 c 1.59121,-7.68079 2.71627,1.93923 0,0 z M 63.406702,270.29732 c -10.202238,-4.84056 25.488209,-17.33791 6.994052,-4.46656 -2.243435,1.40926 -5.497183,1.97624 -6.994052,4.46656 z m 109.951268,-0.48978 c -3.02672,-12.7424 19.29849,-28.03313 5.93664,-6.72931 -0.52413,1.82529 -1.63624,11.8869 -5.93664,6.72931 z m -34.37047,-3.04392 c 5.79993,-4.80744 -2.09251,5.40269 0,0 z m 8.94,-1.51299 c -6.74713,-8.66574 19.71678,-33.70377 4.73879,-32.69648 -1.80352,9.70708 -23.05394,34.28186 -10.14141,10.98392 6.56797,-15.77364 13.39478,-29.98064 26.5528,-10.51385 -9.30163,9.34895 -10.31524,24.31898 -21.15018,32.22641 z m -71.023333,-9.33762 c 2.581475,-3.89378 2.206279,3.51868 0,0 z m -3.684819,-3.81452 c 3.661531,-8.2532 0.163702,5.17762 0,0 z m 3.716359,-9.38986 c -1.333124,-9.3504 8.247967,2.2387 0,0 z M 185.1818,236.48761 c -14.0414,-20.37611 22.16664,3.61346 0,0 z m 235.37817,0.31674 c -6.13636,-8.90678 8.34583,9.00198 0,0 z m -230.47594,-9.70763 c -2.9983,-17.52795 9.9594,3.40762 0.24991,0.31041 l -0.24991,-0.31041 z m 18.75071,-5.87477 c -7.67425,-14.02629 20.11746,-16.75815 8.22488,-0.69106 -1.38326,3.44582 -7.07541,5.52307 -8.22488,0.69106 z m 73.43348,-3.66189 c 7.27976,-5.62004 22.64465,-8.50935 6.09214,-2.04014 0.43946,-0.68351 -8.94639,4.96311 -6.09214,2.04014 z M 136.0075,200.10984 c 5.42145,-4.21701 7.53976,4.76233 0,0 z m 99.78394,-4.57274 c 4.66095,-5.6488 9.99709,-1.74085 0,0 z m -123.81019,-2.91595 c 1.48689,-10.40581 13.14131,3.22424 0,0 z M 95.405,188.17839 c 0.683814,-8.5205 6.33261,0.91615 0,0 z m 59.9725,-15.19509 c 8.8392,-7.63841 -3.07106,7.30622 0,0 z m 106.76378,0.96881 c 3.22595,-21.74004 16.69081,-2.10858 0,0 z m 183.07897,-12.3757 c -2.8008,-9.44792 6.5994,-38.59349 4.13326,-14.37343 -0.83487,1.03679 -3.14472,20.77556 -4.13326,14.37343 z m -313.869,1.09917 c 11.33688,-16.76279 36.33457,-15.47216 52.50844,-26.90133 25.95419,-13.70248 38.52806,-41.56988 57.48717,-62.315855 5.48016,-7.375325 28.73909,-20.81961 13.09379,-3.11658 -17.79023,23.959539 -35.5737,48.712335 -60.31635,66.002645 -16.35374,14.88054 -49.64618,19.60189 -62.77305,26.33112 z m 49.65333,-1.27065 c 12.42366,-9.61186 -6.65634,9.21292 0,0 z m 275.10227,-14.03201 c -6.44096,-12.37658 8.99023,13.03429 0,0 z"
       id="path6174"
       inkscape:connector-curvature="0" />
  </g>
</svg>
