<?xml version="1.0" encoding="UTF-8" standalone="no"?>
<svg
   xmlns:dc="http://purl.org/dc/elements/1.1/"
   xmlns:cc="http://creativecommons.org/ns#"
   xmlns:rdf="http://www.w3.org/1999/02/22-rdf-syntax-ns#"
   xmlns:svg="http://www.w3.org/2000/svg"
   xmlns="http://www.w3.org/2000/svg"
   xmlns:sodipodi="http://sodipodi.sourceforge.net/DTD/sodipodi-0.dtd"
   xmlns:inkscape="http://www.inkscape.org/namespaces/inkscape"
   viewBox="0 0 512 512"
   id="svg8438"
   version="1.1"
   inkscape:version="0.48.4 r9939"
   width="100%"
   height="100%"
   sodipodi:docname="fire ball.svg">
  <metadata
     id="metadata8464">
    <rdf:RDF>
      <cc:Work
         rdf:about="">
        <dc:format>image/svg+xml</dc:format>
        <dc:type
           rdf:resource="http://purl.org/dc/dcmitype/StillImage" />
        <dc:title />
      </cc:Work>
    </rdf:RDF>
  </metadata>
  <defs
     id="defs8462" />
  <sodipodi:namedview
     pagecolor="#ffffff"
     bordercolor="#666666"
     borderopacity="1"
     objecttolerance="10"
     gridtolerance="10"
     guidetolerance="10"
     inkscape:pageopacity="0"
     inkscape:pageshadow="2"
     inkscape:window-width="970"
     inkscape:window-height="873"
     id="namedview8460"
     showgrid="false"
     inkscape:zoom="1.3037281"
     inkscape:cx="193.16358"
     inkscape:cy="240.66094"
     inkscape:window-x="164"
     inkscape:window-y="105"
     inkscape:window-maximized="0"
     inkscape:current-layer="g8466" />
  <g
     id="g8466">
    <path
       id="path8440"
       d="m0,0h512v512h-512z" />
    <path
       style="fill:#ffffff"
       inkscape:connector-curvature="0"
       d="m 716.546,281.32466 -32.67118,-27.17291 -60.21743,3.54082 48.89519,5.92165 37.71521,30.57301"
       id="path8454-5-8-6" />
    <path
       inkscape:connector-curvature="0"
       id="path3023"
       d="m 258.17939,405.08829 c -4.71688,-0.84256 -10.49419,-2.20762 -12.83846,-3.03345 -7.94489,-2.79886 -22.81633,-11.91322 -27.87253,-17.08245 -5.00921,-5.12118 -5.02895,-5.17162 -4.32041,-11.03542 0.93198,-7.713 -0.49267,-11.29425 -10.47531,-26.33249 -14.61647,-22.01884 -29.53722,-58.13607 -27.92201,-67.58817 1.3089,-7.65966 0.78269,-22.04896 -0.94006,-25.70633 -0.90193,-1.91479 -4.52686,-6.22716 -8.0554,-9.58306 -7.2728,-6.91696 -7.85511,-8.28606 -8.03406,-18.88955 -0.14572,-8.63417 -2.66935,-22.46581 -4.33639,-23.76715 -0.60799,-0.47461 -2.44564,-0.87101 -4.08367,-0.8809 -2.2536,-0.0136 -3.50896,-1.00553 -5.15957,-4.07681 -1.19974,-2.23235 -3.14249,-4.39372 -4.31722,-4.80305 -3.14155,-1.09464 -6.25838,-7.49195 -6.26902,-12.86718 -0.005,-2.584 0.82667,-7.25855 1.8484,-10.3879 1.79016,-5.4829 1.78483,-5.74821 -0.14643,-7.29854 -1.10226,-0.88485 -2.4867,-1.78542 -3.07654,-2.00126 -1.67823,-0.61415 1.17871,-8.80135 5.81462,-16.66306 7.82322,-13.26683 5.11133,-16.89731 -11.92785,-15.96817 -5.00379,0.27286 -6.50272,0.93335 -10.0172,4.41405 -2.2731,2.25125 -6.12464,5.08608 -8.55897,6.29963 -7.4924,3.73505 -20.498541,2.60234 -25.583013,-2.22804 -1.044596,-0.99239 -2.895187,-5.54232 -4.112426,-10.11094 -1.217238,-4.56862 -2.956376,-10.12534 -3.864752,-12.34826 -0.908376,-2.22292 -1.971878,-5.35643 -2.363339,-6.96336 -0.450781,-1.85044 -1.921929,-3.38311 -4.012336,-4.18013 C 65.74012,101.31415 60.59006,97.859419 56.110865,94.329117 46.268911,86.572123 45.5437,83.861914 52.493153,80.809248 c 3.189887,-1.401212 9.153777,-2.18349 20.199349,-2.649529 14.514639,-0.612408 16.02205,-0.47582 20.394578,1.847976 6.140463,3.26337 11.12118,9.002223 12.86416,14.822271 1.1052,3.690392 2.05749,4.814536 4.6031,5.433794 1.76529,0.42942 3.98773,1.13984 4.93875,1.5787 2.04667,0.94446 8.92018,-8.841784 11.49329,-16.36367 3.40367,-9.949862 6.93903,-12.200551 14.64661,-9.324344 5.54477,2.06912 5.74422,2.060594 13.8886,-0.593758 8.80511,-2.869686 14.99801,-2.763638 20.5808,0.35243 1.60805,0.897534 5.81237,2.005433 9.34294,2.461996 8.85815,1.145509 20.64172,7.506376 23.95039,12.928632 3.2157,5.269888 4.42415,12.331524 3.16399,18.488824 -0.53722,2.62491 -0.76985,4.9997 -0.51697,5.27733 0.25288,0.27763 5.25851,-0.0749 11.12363,-0.78346 7.42699,-0.89721 12.15735,-0.92078 15.58421,-0.0776 2.7062,0.66581 8.67007,1.08192 13.25305,0.92468 6.79473,-0.2331 9.25982,0.20142 13.35589,2.35426 3.22168,1.69326 7.05864,2.64937 10.69871,2.6659 6.91437,0.0315 12.57951,2.71524 19.38891,9.18533 2.82672,2.68588 5.71202,4.9012 6.41177,4.92296 0.69975,0.0217 6.32741,0.54523 12.50592,1.16328 12.12945,1.21334 21.39742,0.48369 21.39742,-1.68455 0,-0.7445 -2.76829,-4.32348 -6.15176,-7.95331 l -6.15176,-6.59967 -9.39797,-1.15984 c -7.42378,-0.91619 -10.28927,-1.83793 -13.64086,-4.38783 -3.80227,-2.89277 -5.57672,-6.26273 -3.44048,-6.53405 0.44132,-0.056 6.90264,-0.46477 14.35847,-0.90827 15.5437,-0.92461 18.00513,-2.19697 18.00513,-9.307221 l 0,-4.080579 6.6,0.819764 c 7.73437,0.960648 15.01067,4.729065 19.87336,10.292476 4.89369,5.59888 11.00537,22.81893 11.94932,33.66798 0.68046,7.82071 1.06137,8.90391 3.90048,11.0916 1.73051,1.33345 5.90846,5.49668 9.28433,9.25161 3.37588,3.75493 7.07012,6.82715 8.20942,6.82715 7.49888,0 18.2837,23.92343 18.2837,40.55784 0,4.43711 1.14135,8.89089 4.37641,17.07774 2.40704,6.09138 5.77891,14.61851 7.49305,18.9492 1.71415,4.33068 3.86772,11.46603 4.78573,15.85634 0.918,4.3903 2.66267,11.60248 3.87705,16.02707 4.4577,16.24168 0.61625,26.94428 -20.2375,56.3833 -1.89739,2.67854 -5.19787,7.77706 -7.33439,11.33005 -2.13652,3.553 -5.65738,8.83844 -7.82415,11.74544 -2.16676,2.90699 -6.17091,8.7582 -8.89811,13.0027 -13.13427,20.44158 -31.73765,31.62995 -52.59245,31.62995 -3.27017,0 -11.14765,1.76883 -18.92028,4.24841 -12.17968,3.8855 -14.68819,4.28271 -29.36537,4.65004 -9.89608,0.24768 -19.33572,-0.18562 -24.62423,-1.13027 z"
       style="fill:#fdf201" />
    <path
       inkscape:connector-curvature="0"
       id="path3021"
       d="m 280.12894,405.59838 c 11.0921,-0.6768 17.29796,-1.74375 26.74679,-4.59849 6.76693,-2.04448 15.91433,-3.94489 20.32755,-4.22314 7.75599,-0.48901 7.8096,-0.47465 1.60481,0.43008 -3.53058,0.5148 -11.71509,2.66676 -18.18781,4.78215 -10.75294,3.51424 -13.19972,3.87398 -28.35159,4.16841 l -16.58301,0.32225 14.44326,-0.88126 z m -21.14243,-0.86347 c 1.02289,-0.29397 2.94866,-0.30464 4.27949,-0.0237 1.33082,0.28094 0.49391,0.52147 -1.8598,0.53451 -2.35372,0.013 -3.44258,-0.21683 -2.41969,-0.51081 z m -6.94169,-1.14541 c 0.73554,-0.32583 1.93914,-0.32583 2.67468,0 0.73554,0.32583 0.13373,0.59243 -1.33734,0.59243 -1.47107,0 -2.07287,-0.2666 -1.33734,-0.59243 z m -19.96291,-8.00076 c -4.94821,-2.85253 -9.76263,-6.11156 -10.69871,-7.24228 -1.52047,-1.8366 -1.52199,-1.90873 -0.0142,-0.67634 0.92824,0.75873 6.2241,4.02305 11.76858,7.25403 5.54447,3.23098 9.59942,5.86922 9.011,5.86276 -0.58843,-0.007 -5.11841,-2.34564 -10.06661,-5.19817 z m -16.22622,-12.06951 -2.5937,-3.23 2.94214,2.84746 c 2.74988,2.66139 3.43278,3.61253 2.5937,3.61253 -0.19163,0 -1.5156,-1.4535 -2.94214,-3.22999 z m -2.67238,-13.07108 c 0.0433,-3.18195 0.43239,-5.17642 0.8647,-4.43214 1.0464,1.80152 1.00081,6.85439 -0.0786,8.72174 -0.50242,0.86907 -0.83174,-0.92821 -0.78603,-4.2896 z m 135.95233,3.38109 c 0.36367,-0.646 1.38338,-1.17454 2.26602,-1.17454 0.88265,0 1.30727,0.52854 0.9436,1.17454 -0.36367,0.646 -1.38338,1.17454 -2.26602,1.17454 -0.88265,0 -1.30727,-0.52854 -0.9436,-1.17454 z m -29.9896,-2.40807 c -1.0166,-1.80584 0.3759,-2.97097 1.74907,-1.46346 0.76836,0.84353 0.78681,1.5005 0.0561,1.9963 -0.59905,0.40645 -1.41137,0.16667 -1.80516,-0.53284 z m -20.97823,-2.25103 c -2.19344,-2.00609 -2.27015,-2.31515 -0.58312,-2.34908 2.73742,-0.0551 6.26338,2.21111 5.51331,3.54348 -0.93445,1.6599 -2.12459,1.37157 -4.93019,-1.1944 z m 9.24285,-5.16451 c -1.76529,-0.89929 -5.29934,-2.2637 -7.85345,-3.03201 -4.01175,-1.20679 -4.81702,-1.13694 -5.9161,0.51319 -1.45589,2.18585 -5.09242,1.14627 -10.33998,-2.95589 -3.11091,-2.4319 -8.52154,-3.15908 -8.52154,-1.14529 0,0.646 -1.29285,1.17454 -2.87299,1.17454 -2.14862,0 -4.43852,-1.85085 -9.08228,-7.34089 -3.41511,-4.0375 -6.21453,-7.89154 -6.22093,-8.56453 -0.0146,-1.53789 -8.82227,-11.10908 -10.22286,-11.10908 -1.08271,0 -3.69708,7.96623 -3.69708,11.26533 0,1.36393 -0.53247,1.65832 -1.87228,1.03516 -1.02975,-0.47895 -4.03876,-1.04162 -6.68669,-1.25038 -7.86181,-0.6198 -9.37692,-1.42909 -11.89923,-6.35602 -1.9106,-3.73203 -3.01779,-4.69409 -5.4023,-4.69409 -2.34488,0 -3.59977,-1.04446 -5.75211,-4.78757 -4.00737,-6.96915 -4.35713,-8.3793 -1.96614,-7.92689 1.81771,0.34395 2.00285,-0.37517 1.86915,-7.26044 -0.12628,-6.50388 -0.7272,-8.72641 -4.03435,-14.92126 -4.49776,-8.42509 -5.98103,-9.86123 -5.98103,-5.79097 0,6.81567 -3.72313,8.98411 -6.8935,4.01493 -2.2998,-3.60466 -2.08304,-9.50454 0.55801,-15.18791 l 2.22348,-4.7848 -2.75842,-3.16085 c -2.01576,-2.30986 -2.75841,-4.41338 -2.75841,-7.81309 0,-5.88917 -3.20838,-12.55543 -6.53502,-13.57826 -1.40739,-0.43273 -4.4158,-0.83947 -6.68537,-0.90386 -3.51445,-0.0997 -4.01862,0.18777 -3.39924,1.93837 1.95754,5.53269 2.85752,15.93552 2.21008,25.54633 -0.70987,10.53745 -0.69669,10.61463 4.1662,24.40171 2.68308,7.60696 5.85452,15.93154 7.04764,18.49907 1.19313,2.56752 1.88828,4.66823 1.54479,4.66823 -1.06133,0 -9.82041,-21.21928 -12.80722,-31.02605 -2.03087,-6.66807 -2.63212,-10.46404 -2.12627,-13.42419 1.31365,-7.68747 0.79123,-22.07425 -0.93461,-25.73819 -0.90193,-1.91479 -4.52686,-6.22716 -8.0554,-9.58306 -7.2728,-6.91696 -7.85511,-8.28606 -8.03406,-18.88955 -0.14572,-8.63417 -2.66935,-22.46581 -4.33639,-23.76715 -0.60799,-0.47461 -2.44564,-0.87101 -4.08367,-0.8809 -2.2536,-0.0136 -3.50896,-1.00553 -5.15957,-4.07681 -1.19974,-2.23235 -3.14249,-4.39372 -4.31722,-4.80305 -3.04811,-1.06207 -6.25904,-7.43844 -6.26372,-12.43867 -0.002,-2.34832 0.80769,-7.0288 1.79976,-10.40109 1.80006,-6.11886 1.79862,-6.13567 -0.69767,-8.20285 -3.46026,-2.86544 -2.51056,-8.32896 3.09369,-17.7975 8.08712,-13.66347 5.49867,-17.28323 -11.68888,-16.346 -5.00379,0.27286 -6.50272,0.93335 -10.0172,4.41405 -5.82565,5.76965 -11.9018,8.50142 -18.977146,8.53187 -6.065673,0.0261 -12.379218,-1.66087 -14.335444,-3.83045 -0.715737,-0.79379 -0.651674,-0.92879 0.193542,-0.4078 2.449006,1.50951 2.574152,-1.68219 0.399556,-10.19019 -2.604065,-10.18829 -2.786138,-15.96952 -0.6012,-19.0894 1.545557,-2.20691 1.697938,-2.14825 4.756974,1.83096 2.840445,3.69488 3.387539,3.95794 5.40599,2.5995 1.436214,-0.9666 3.639894,-1.22427 6.11341,-0.71484 3.615508,0.74464 4.165418,0.43549 8.433898,-4.74123 3.93827,-4.77626 4.86134,-5.36442 6.71216,-4.27699 3.00301,1.7644 2.89908,1.82667 6.47534,-3.879783 3.39088,-5.410647 9.28794,-8.953898 14.90207,-8.953898 1.64969,0 7.05616,1.340435 12.0144,2.978743 4.95824,1.638309 14.07012,3.509976 20.24863,4.159264 13.31519,1.39928 16.68555,3.453369 10.39833,6.337344 -2.1507,0.98655 -5.77699,1.79372 -8.05841,1.79372 -4.63344,0 -7.68928,2.72074 -7.68928,6.8461 0,2.98652 0.50354,3.06842 6.01725,0.97869 4.07382,-1.54399 15.50785,-0.99455 21.53194,1.03466 3.36804,1.13453 3.21108,-2.28101 -0.26747,-5.82023 -3.35184,-3.4103 -3.35895,-4.21377 -0.0372,-4.21377 1.4506,0 4.31594,1.61792 6.36744,3.59539 3.27609,3.15786 4.02922,3.42435 6.18898,2.18999 1.35246,-0.77297 2.59894,-1.53146 2.76995,-1.68554 0.17101,-0.15409 -0.70732,-2.17482 -1.95186,-4.49051 -2.0056,-3.731835 -2.10085,-4.583015 -0.83796,-7.488942 2.12695,-4.894186 6.65201,-5.110621 8.85969,-0.423763 1.89691,4.027122 2.41817,11.646385 1.19483,17.464685 l -0.81494,3.87588 8.38824,-0.93636 c 4.61352,-0.51499 10.31399,-0.84183 12.66771,-0.72631 2.35372,0.11545 8.21398,0.37836 13.02281,0.58411 7.52227,0.32184 8.41875,0.57331 6.41922,1.80063 -1.27825,0.78462 -3.61964,1.4453 -5.20309,1.46818 -1.58345,0.0229 -3.17656,0.57017 -3.54023,1.21617 -0.36367,0.646 -3.79382,1.17455 -7.62257,1.17455 -7.40184,0 -11.10017,1.36994 -11.10017,4.11173 0,0.92399 -1.44433,3.30207 -3.20962,5.28461 -1.76528,1.98255 -3.20961,4.36063 -3.20961,5.28462 0,2.41959 3.47791,4.11173 8.45099,4.11173 3.39245,0 4.57578,0.56365 5.54807,2.64273 0.67974,1.45349 2.66009,4.29615 4.40076,6.317 2.26871,2.63388 3.06546,4.59581 2.81377,6.92879 -0.37486,3.47476 -1.75802,4.69438 -6.60013,5.81976 -2.15356,0.50052 -2.85737,1.22726 -2.41479,2.49345 1.17888,3.37268 -2.23891,8.36622 -6.47982,9.46729 -3.07971,0.7996 -4.15219,1.76851 -4.7715,4.31081 -1.12302,4.60998 -2.95993,6.7123 -8.01481,9.1729 -2.70399,1.31622 -5.49631,3.96898 -7.26321,6.90016 -1.57872,2.61902 -5.48593,6.59868 -8.68266,8.84366 -3.19672,2.24499 -6.25584,5.00015 -6.79803,6.12257 -2.29467,4.75038 -0.63809,35.55366 2.28945,42.57126 3.45331,8.27792 5.32651,13.62023 6.5863,18.78396 l 1.28949,5.28545 1.9809,-5.68406 c 1.28342,-3.68273 2.85861,-6.05043 4.4737,-6.72456 1.91319,-0.79856 2.49281,-1.93882 2.49281,-4.90404 0,-4.90703 5.70639,-14.13672 14.71073,-23.79361 6.10818,-6.55084 8.10466,-9.98638 5.80331,-9.98638 -0.48585,0 -1.95781,1.25558 -3.271,2.79017 -3.10749,3.63138 -14.26284,6.48504 -16.69354,4.27038 -2.79061,-2.5426 -2.07804,-5.64427 5.06243,-22.03598 2.48108,-5.69557 4.24309,-6.51468 3.78993,-1.76181 -0.27072,2.83942 0.0155,3.18093 2.36672,2.8243 1.47107,-0.22313 2.79695,-0.75167 2.94639,-1.17454 1.29115,-3.65351 5.16226,-8.89989 7.76789,-10.52754 2.03501,-1.2712 3.18295,-2.93326 3.18729,-4.61475 0.004,-1.71832 1.39549,-3.66126 4.01877,-5.61312 5.87814,-4.37361 10.39185,-8.05039 14.18914,-11.55821 3.49114,-3.225 7.87334,-4.07416 9.16692,-1.77632 0.50822,0.90275 3.11305,1.0866 8.13522,0.57417 4.45229,-0.45429 8.21489,-0.26773 9.46968,0.46952 1.54058,0.90516 2.90544,0.75584 5.24819,-0.57418 4.19461,-2.38134 6.13521,-2.26746 9.39969,0.55162 1.49613,1.292 3.45994,2.34909 4.364,2.34909 0.90406,0 2.40382,0.72448 3.3328,1.60996 1.79215,1.70823 13.24438,5.94736 19.08839,7.06571 6.07183,1.16196 14.33079,8.03346 20.76301,17.27493 3.33641,4.7936 6.39566,10.2974 6.7983,12.23067 0.40266,1.93326 1.84623,6.6863 3.20795,10.56229 1.36171,3.87599 3.8054,12.70447 5.43043,19.61885 l 2.9546,12.5716 -2.00876,11.2159 c -1.56662,8.74727 -1.72509,11.52731 -0.71998,12.63076 2.34002,2.56896 4.57118,-1.7183 5.69537,-10.94381 0.5819,-4.77535 1.54611,-10.41499 2.14268,-12.53255 0.59656,-2.11757 1.24103,-8.4601 1.43214,-14.09453 0.19111,-5.63442 0.3958,-10.86833 0.45486,-11.6309 0.0591,-0.76258 1.14512,-1.55539 2.41343,-1.76182 2.23461,-0.3637 4.39586,-5.71864 6.69654,-16.59203 0.54123,-2.55794 1.14889,-3.13946 2.71161,-2.59495 1.10774,0.38598 2.32372,0.15174 2.70218,-0.52053 0.99628,-1.76972 4.36968,-1.49965 5.85789,0.46898 0.70321,0.93021 2.30247,1.85517 3.5539,2.05545 4.05063,0.64827 6.43595,7.1264 6.55575,17.80438 0.10228,9.11402 -0.003,9.5619 -2.1835,9.3171 -2.13662,-0.23985 -2.36285,0.51168 -3.35887,11.15817 -0.58737,6.27842 -1.09363,13.26523 -1.12502,15.52623 -0.0313,2.26099 -0.38582,7.75509 -0.78763,12.2091 l -0.73058,8.09818 2.51229,-1.93183 c 4.10211,-3.15434 6.02469,-2.40552 8.29585,3.23112 3.19512,7.92982 3.71769,12.16076 2.24206,18.15301 -2.32143,9.42686 -5.29709,10.96908 -9.40242,4.87307 -1.30514,-1.93799 -2.7746,-3.52363 -3.26546,-3.52363 -0.49087,0 -1.67452,2.24632 -2.63034,4.99181 -2.20122,6.32285 -6.49711,11.4518 -9.59175,11.4518 -1.31633,0 -3.49126,0.84427 -4.83319,1.87615 -2.3226,1.78598 -2.34689,1.95352 -0.50552,3.48627 1.06388,0.88558 3.49903,1.62694 5.41142,1.6475 1.9124,0.0206 3.47708,0.65175 3.47708,1.40269 0,2.99487 -6.96918,13.03172 -11.3422,16.3348 -2.55294,1.92832 -5.91471,5.33832 -7.47061,7.57776 -3.94063,5.67191 -9.50613,7.40912 -15.41759,4.81241 -2.4343,-1.06932 -4.88678,-1.63157 -5.44993,-1.24947 -0.56316,0.38211 -6.18836,1.17255 -12.50047,1.75656 -6.3121,0.584 -12.68014,1.34562 -14.15122,1.69247 -1.47107,0.34685 -4.119,-0.10512 -5.88429,-1.00446 z m 64.91672,-60.35537 c 2.50638,-3.23803 7.26076,-14.03927 6.53189,-14.83946 -2.15253,-2.36312 -4.77073,-0.24504 -7.77586,6.29052 -1.77376,3.85758 -3.22502,7.82166 -3.22502,8.80908 0,2.41954 2.5078,2.27355 4.46899,-0.26014 z M 175.70874,229.55179 c 0.90639,-1.61006 -2.5297,-6.06413 -4.67818,-6.06413 -2.41349,0 -3.29114,2.20597 -1.98602,4.99181 0.98281,2.09785 5.66292,2.85092 6.6642,1.07232 z m 5.97032,-70.63053 c 1.24504,-1.91957 2.70773,-6.48523 3.25044,-10.14592 1.24646,-8.40787 3.0795,-10.59368 10.2555,-12.22917 3.73716,-0.85173 6.32176,-2.19883 7.36946,-3.84097 2.93,-4.59244 1.98928,-5.60245 -2.93333,-3.1494 -2.50083,1.24623 -6.63912,2.27748 -9.19622,2.29167 -5.59307,0.031 -9.3642,2.71023 -15.17563,10.78153 -3.57068,4.9592 -4.01614,6.20218 -3.13479,8.74708 0.56502,1.63154 1.02732,4.14767 1.02732,5.59142 0,6.04906 5.1209,7.22098 8.53725,1.95376 z m 11.15926,-11.66232 c 2.27256,-2.75686 0.44486,-4.44258 -1.95738,-1.80532 -1.83601,2.01564 -2.23015,4.0378 -0.787,4.0378 0.49723,0 1.73219,-1.00463 2.74438,-2.23248 z m -83.88878,-25.48202 c 0,-2.8731 -1.91262,-2.79184 -3.67199,0.15598 -2.26377,3.79298 -1.13095,6.12632 1.63846,3.37485 1.11843,-1.11121 2.03353,-2.70008 2.03353,-3.53083 z m 35.30575,-4.64378 c 0,-1.00108 0.73453,-3.37953 1.63228,-5.28545 1.38899,-2.94881 1.40459,-3.4653 0.10463,-3.4653 -0.84019,0 -2.05616,1.6645 -2.70215,3.6989 -1.46002,4.59805 -1.49465,6.87199 -0.10463,6.87199 0.58843,0 1.06987,-0.81907 1.06987,-1.82014 z m 67.20883,-10.8982 c 0.3874,-2.89036 -0.57787,-3.17147 -3.24679,-0.94559 -1.40796,1.17423 -1.5418,1.85236 -0.57506,2.91369 1.74957,1.92073 3.41562,1.06278 3.82185,-1.9681 z m 175.42275,252.91251 c 0.60643,-1.292 2.47078,-3.66853 4.14299,-5.28119 l 3.04038,-2.93208 -3.20133,4.10663 c -5.07266,6.50719 -5.14266,6.57938 -3.98204,4.10664 z m -140.84056,-1.63298 c -1.10294,-0.76724 -1.14253,-1.21943 -0.1648,-1.88281 0.70892,-0.48101 2.06426,-0.0195 3.01816,1.02773 1.44363,1.58487 1.47102,1.89779 0.1648,1.8828 -0.86163,-0.009 -2.2198,-0.47236 -3.01816,-1.02772 z m 148.55886,-8.93792 c 0.73253,-0.96899 1.5726,-1.76181 1.86681,-1.76181 0.29421,0 -0.0644,0.79282 -0.79694,1.76181 -0.73253,0.969 -1.57259,1.76182 -1.8668,1.76182 -0.29422,0 0.0644,-0.79282 0.79693,-1.76182 z m 12.03605,-77.10345 c -0.73553,-0.81044 -1.33733,-2.76341 -1.33733,-4.33995 0,-3.3994 4.21283,-13.10735 5.68802,-13.10735 1.32917,0 0.24957,10.18525 -1.60624,15.15367 -1.12723,3.01784 -1.67311,3.47405 -2.74445,2.29363 z m 18.61313,-3.05915 c -0.82604,-1.77649 -2.29958,-7.11545 -3.27452,-11.86435 -0.97494,-4.7489 -3.43699,-13.16577 -5.47123,-18.70415 -2.03424,-5.53839 -3.53422,-10.25028 -3.33329,-10.47086 0.99651,-1.094 8.72397,20.54357 11.30072,31.64302 1.61217,6.94448 2.78475,12.62634 2.60573,12.62634 -0.17902,0 -1.00136,-1.4535 -1.82741,-3.23 z M 205.27198,211.51791 c -0.0187,-1.09237 0.47945,-2.33452 1.10702,-2.76034 1.88574,-1.27947 2.15012,0.0693 0.48673,2.48313 -1.3694,1.98717 -1.56387,2.021 -1.59375,0.27721 z m 158.74498,-19.46727 c -1.25108,-0.92531 -4.71754,-11.31967 -4.71754,-14.14582 0,-2.10103 5.54605,-1.34681 11.00377,1.49642 3.546,1.84732 9.17806,10.57616 7.80007,12.08896 -0.3684,0.40444 -2.37706,0.0576 -4.46371,-0.77078 -3.26043,-1.29432 -4.05829,-1.24343 -5.67417,0.362 -2.12767,2.11389 -2.33268,2.16421 -3.94842,0.96922 z m -129.89248,-8.90269 c 0,-1.79287 2.844,-4.76035 5.58255,-5.82494 3.2822,-1.2759 3.42033,1.83404 0.20685,4.65692 -3.49455,3.06978 -5.7894,3.53276 -5.7894,1.16802 z m 111.60101,-13.43754 c -1.96876,-1.37434 -3.669,-7.07557 -2.37245,-7.95528 3.12867,-2.12281 10.84125,4.41901 9.0213,7.65187 -0.79864,1.41864 -4.7903,1.60079 -6.64885,0.30341 z m -54.10083,-7.90891 c -2.22153,-2.63021 -2.8666,-2.81839 -5.80571,-1.69356 -2.13274,0.81621 -4.58409,0.88836 -6.90547,0.20327 l -3.59896,-1.06217 4.27949,-2.11945 c 7.62251,-3.77514 25.87527,-5.68362 28.80743,-3.01207 1.55359,1.41551 1.56639,1.79147 0.12069,3.54524 -1.27829,1.55068 -1.34188,2.26405 -0.3034,3.40412 2.06366,2.26557 -0.95512,3.65491 -7.9864,3.67562 -5.16529,0.0152 -6.49436,-0.4389 -8.60767,-2.941 z m 86.87485,-6.14373 -3.68696,-4.40454 4.01202,4.04768 c 2.20661,2.22622 4.01202,4.20826 4.01202,4.40454 0,0.8969 -0.90535,0.052 -4.33708,-4.04768 z m -25.24755,0.3525 c -1.85503,-0.88604 -5.32988,-4.51941 -7.72189,-8.07414 -5.25029,-7.80237 -5.63452,-7.92194 -26.60745,-8.28003 -8.71492,-0.1488 -16.39138,-0.64105 -17.05881,-1.09389 -0.66743,-0.45286 -3.29625,-3.59662 -5.84184,-6.98615 l -4.62833,-6.16279 4.53451,4.40454 c 2.49398,2.4225 5.13493,4.42233 5.86877,4.4441 0.73385,0.0217 6.3894,0.54522 12.56791,1.16328 11.91828,1.19221 21.39742,0.4907 21.39742,-1.58352 0,-0.68893 -1.32396,-2.80352 -2.94214,-4.69909 -2.9064,-3.40462 -2.91001,-3.42818 -0.29791,-1.93914 2.91505,1.66174 11.71534,1.70788 13.20795,0.0693 0.54834,-0.60199 0.36079,-2.81604 -0.44604,-5.26559 -1.85927,-5.64475 -0.34353,-7.55381 4.3154,-5.43522 6.43651,2.92694 10.51884,9.63428 15.61341,25.65309 0.26984,0.84844 0.97545,1.21366 1.56805,0.8116 0.59258,-0.40207 1.07742,-0.14151 1.07742,0.57902 0,0.72055 1.56469,2.95978 3.47708,4.9761 l 3.47708,3.66601 -3.92896,-3.13519 -3.92896,-3.13517 -0.70014,3.49954 c -0.7534,3.76583 -5.08986,8.25518 -7.90176,8.18038 -0.9504,-0.0253 -3.24574,-0.77093 -5.10077,-1.65698 z m -88.90362,-13.15229 c -3.67233,-1.98744 -4.85614,-6.28654 -1.73108,-6.28654 2.6088,0 8.95271,4.64543 8.95271,6.55578 0,2.18134 -2.8928,2.07349 -7.22163,-0.26924 z m -27.54918,-8.63563 c -0.36367,-0.646 -0.17977,-1.17454 0.40866,-1.17454 0.58842,0 1.36741,0.52854 1.73108,1.17454 0.36367,0.646 0.17977,1.17454 -0.40866,1.17454 -0.58843,0 -1.36741,-0.52854 -1.73108,-1.17454 z m 9.82944,-7.80582 c -1.59433,-1.75031 -0.67983,-3.7037 1.44795,-3.09284 1.20092,0.34477 2.01336,1.18722 1.80541,1.87208 -0.48222,1.58822 -2.29803,2.26956 -3.25336,1.22076 z M 181.41296,78.248373 c 0.72433,-0.321734 2.16866,-0.341318 3.20961,-0.04352 1.04095,0.297798 0.44831,0.561036 -1.31698,0.584972 -1.76529,0.02394 -2.61697,-0.219716 -1.89263,-0.541451 z"
       style="fill:#fccf01" />
    <path
       inkscape:connector-curvature="0"
       id="path3019"
       d="m 311.91757,361.3547 c -0.34233,-0.37582 -3.18147,-1.02967 -6.3092,-1.45299 -5.44651,-0.73716 -5.68681,-0.91824 -5.68681,-4.2856 0,-2.90731 -0.47884,-3.57704 -2.76626,-3.86895 -1.53936,-0.19644 -3.37687,0.45473 -4.14301,1.46818 -2.06244,2.72823 -7.0575,2.20071 -11.80227,-1.24643 -4.47433,-3.25066 -5.35406,-5.04594 -5.87288,-11.98487 -0.43182,-5.77538 0.28348,-6.71673 3.0324,-3.99065 4.69781,4.6588 9.71512,4.31792 11.63743,-0.79064 1.49954,-3.98502 1.08806,-7.02431 -1.42607,-10.53321 -2.51627,-3.51187 -2.54589,-4.76388 -0.16045,-6.78005 1.71018,-1.44544 1.6407,-1.55834 -0.80241,-1.30403 -2.52347,0.26268 -2.67472,-0.047 -2.67542,-5.47621 -6e-4,-4.66491 -0.4058,-5.92818 -2.13975,-6.67108 -3.39485,-1.4545 -9.12193,-1.22285 -9.55903,0.38664 -0.2193,0.80749 -0.76206,2.52526 -1.20614,3.81726 -0.44409,1.292 -0.70836,2.82005 -0.58728,3.39565 0.31016,1.47446 -3.16583,9.3483 -4.58556,10.38726 -0.64854,0.47461 -3.1738,0.87101 -5.61167,0.8809 -3.04393,0.0123 -4.63592,0.6 -5.08188,1.87587 -1.16141,3.32268 -0.70239,4.01483 2.66252,4.01483 4.14455,0 9.52653,4.08483 9.52653,7.23048 0,2.13064 -0.46328,2.29268 -4.54695,1.59036 -2.58301,-0.44424 -5.37375,-1.83788 -6.46117,-3.22659 -1.05282,-1.34452 -5.02471,-4.19391 -8.82644,-6.33198 l -6.91222,-3.88739 0,3.84989 c 0,5.25406 -1.86493,7.41172 -7.14919,8.27141 -6.05417,0.98495 -9.34197,-0.63402 -12.7419,-6.27432 -2.00328,-3.32333 -3.61952,-4.74549 -5.39306,-4.74549 -2.62478,0 -3.00034,-0.81852 -1.86538,-4.06554 0.60956,-1.74392 0.8425,-1.73434 2.69995,0.11111 3.14787,3.1275 4.68887,0.59281 3.45285,-5.67935 -0.73872,-3.74861 -1.4567,-4.96228 -2.78934,-4.715 -0.987,0.18314 -2.5726,-0.97065 -3.52354,-2.56396 -2.33931,-3.91954 -0.43791,-8.37937 3.06164,-7.18124 1.27358,0.43603 3.34994,1.06574 4.61412,1.39935 1.59742,0.42154 2.98431,2.57402 4.54695,7.05695 1.23664,3.54771 2.24844,6.66764 2.24844,6.93314 0,0.26552 -1.23891,0.48276 -2.75312,0.48276 -2.05653,0 -2.65499,0.52008 -2.36529,2.05545 0.58957,3.12456 6.06325,2.17949 9.25352,-1.59768 l 2.66061,-3.15008 2.43511,3.10797 c 2.66431,3.40049 3.60763,3.84905 3.60763,1.71549 0,-0.76586 0.99093,-2.55048 2.20209,-3.96582 l 2.20209,-2.57335 -2.64863,-3.37507 c -1.9307,-2.46025 -3.61509,-3.3751 -6.21411,-3.3751 l -3.56548,0 0,-8.78085 0,-8.78086 -4.46614,-2.71 c -2.77039,-1.68105 -5.54331,-4.72787 -7.30307,-8.02447 -3.14197,-5.88589 -4.61424,-6.0966 -6.85221,-0.98068 -0.82691,1.8903 -1.84189,3.5881 -2.25549,3.7729 -0.41361,0.1848 -1.6034,1.01945 -2.64399,1.8548 -1.56141,1.25343 -1.6748,1.96432 -0.64902,4.06855 0.68364,1.40234 1.94819,2.54973 2.81013,2.54973 1.78729,0 2.14057,4.17049 0.45044,5.31724 -2.62315,1.77981 -7.02386,-5.64367 -9.07053,-15.30086 -1.51263,-7.13738 -0.32515,-12.02912 3.04812,-12.55651 1.97673,-0.30906 2.37512,-1.24131 2.66142,-6.22768 0.18666,-3.25122 1.0983,-6.78811 2.04593,-7.93767 1.54093,-1.8693 1.88772,-1.89614 3.52192,-0.27252 1.58892,1.57863 1.97329,1.58851 3.11365,0.08 0.71553,-0.94651 2.32642,-1.88481 3.57975,-2.08509 1.81581,-0.29016 2.28909,-1.19933 2.32952,-4.47505 0.0481,-3.90202 0.26786,-4.14074 4.32393,-4.69817 3.75248,-0.51571 4.33998,-1.01664 4.8213,-4.1109 0.39276,-2.52493 1.22843,-3.63001 2.94843,-3.89896 1.91885,-0.30004 2.40033,0.19354 2.40033,2.46068 0,1.55981 -0.90364,3.73382 -2.0081,4.83112 -2.05129,2.03801 -4.01388,12.66755 -2.75257,14.90806 1.0734,1.90672 3.46238,-0.97145 4.28999,-5.16845 0.40521,-2.05485 1.63975,-5.13906 2.74345,-6.85378 2.82159,-4.38366 2.63407,-9.53037 -0.40049,-10.99196 -1.64546,-0.79254 -2.51269,-2.3584 -2.74054,-4.94832 -0.21071,-2.39518 -1.3657,-4.6804 -3.13988,-6.21253 -3.31522,-2.86287 -4.47222,-10.88778 -2.01418,-13.9703 0.81936,-1.02754 1.81986,-3.05746 2.22333,-4.51096 0.61484,-2.21502 1.49087,-2.64273 5.41276,-2.64273 2.57355,0 4.99548,-0.56185 5.38206,-1.24855 0.94672,-1.68166 -2.57394,-5.79867 -4.95876,-5.79867 -3.65012,0 -3.10877,-2.19384 1.42628,-5.78001 8.49255,-6.71564 13.53958,-8.74306 21.48665,-8.63125 5.2848,0.0743 7.85479,0.65672 9.31934,2.11179 1.56331,1.55319 3.08095,1.83484 6.68751,1.24109 3.88773,-0.64004 5.18319,-0.32085 7.77282,1.91517 2.46768,2.13072 4.6549,2.73854 10.62242,2.95187 9.58495,0.34266 26.12943,3.02534 28.9123,4.68811 2.52218,1.50702 15.68025,17.39095 17.47866,21.09962 0.68425,1.41103 1.24408,4.78596 1.24408,7.49985 0,3.66612 0.64414,5.58971 2.50622,7.48426 1.81752,1.84922 3.28821,6.08203 5.35201,15.40375 4.22258,19.07239 3.72466,24.22894 -2.47087,25.58929 -3.55671,0.78093 -4.20698,3.13369 -1.53817,5.5653 1.22501,1.11614 1.53806,2.71686 1.1047,5.64863 -0.3326,2.25012 -0.0852,4.77836 0.54978,5.61832 2.10601,2.78586 0.0485,7.2691 -4.50702,9.82052 -3.33664,1.86875 -4.17421,2.9177 -3.68392,4.6136 0.34902,1.20722 0.13354,2.53489 -0.47882,2.95039 -0.61237,0.41549 -1.11339,1.58178 -1.11339,2.59174 0,1.49911 0.29469,1.56782 1.6048,0.37414 0.88265,-0.8042 1.60481,-2.19027 1.60481,-3.08017 0,-1.96247 0.24441,-1.98054 3.66252,-0.27078 2.07877,1.03983 3.06676,1.00701 4.32984,-0.14381 1.91448,-1.74432 2.23139,0.0228 0.37047,2.06573 -1.93581,2.12521 -0.79444,2.4914 4.46636,1.43298 5.50205,-1.10695 6.42849,-0.75899 6.42849,2.41446 0,1.75005 0.74578,2.27977 3.20962,2.27977 2.68964,0 3.20961,0.46447 3.20961,2.86703 0,1.57688 -0.48144,3.19371 -1.06987,3.59296 -0.58843,0.39925 -1.06987,2.52403 -1.06987,4.72173 0,4.62342 -3.36326,8.78552 -7.09929,8.78552 -1.32898,0 -4.68,1.32136 -7.4467,2.93636 -2.76671,1.61499 -5.91182,2.93636 -6.98913,2.93636 -2.6387,0 -10.56102,3.54167 -10.56102,4.7213 0,0.51843 1.53806,2.3634 3.4179,4.09994 4.36037,4.02797 9.36781,3.405 14.23177,-1.77056 2.10897,-2.24409 4.02516,-3.33646 5.07607,-2.89374 0.9285,0.39116 3.15204,-0.11986 4.94122,-1.13561 3.60671,-2.04757 9.77854,-2.48896 9.77854,-0.69932 0,1.97907 -4.61894,4.57392 -9.62885,5.40935 -6.76749,1.12851 -8.69318,3.26619 -7.89275,8.76158 0.75712,5.19801 0.31627,5.46097 -10.55675,6.29677 -3.96871,0.30507 -7.64191,0.84376 -8.16266,1.19709 -1.34999,0.91598 -24.30059,1.94585 -25.04917,1.12405 z m 40.6355,-37.40645 c 2.32262,-2.24327 2.58958,-2.90764 1.17986,-2.93635 -2.86036,-0.0583 -7.27197,2.5275 -7.27197,4.26232 0,2.46187 2.80163,1.85208 6.09211,-1.32597 z m -90.64748,-9.7271 c -0.0196,-0.4845 -1.36372,-2.99015 -2.98705,-5.56813 -3.76303,-5.97602 -7.82468,-7.75036 -10.85334,-4.7413 -1.19467,1.18693 -2.17214,2.89594 -2.17214,3.79778 0,2.40397 6.77655,5.1412 10.63218,4.29463 2.57971,-0.56642 3.27615,-0.3136 3.27615,1.1893 0,1.04975 0.48144,1.90863 1.06987,1.90863 0.58843,0 1.05388,-0.39641 1.03433,-0.88091 z m 69.32423,-20.17513 c 1.02177,-0.59884 2.70028,-1.37507 3.73003,-1.72496 1.98043,-0.6729 2.65177,-5.40804 0.76674,-5.40804 -0.60805,0 -2.79059,1.8499 -4.85009,4.1109 -3.62368,3.97821 -3.47327,5.26481 0.35332,3.0221 z m -88.54637,-9.55141 c 0,-0.60788 -0.48144,-1.10523 -1.06987,-1.10523 -0.58843,0 -1.06987,0.82402 -1.06987,1.83114 0,1.00713 0.48144,1.50447 1.06987,1.10522 0.58843,-0.39925 1.06987,-1.22326 1.06987,-1.83113 z m 77.03073,-8.22181 c 0,-0.68412 -0.48144,-0.9172 -1.06987,-0.51795 -0.58843,0.39925 -1.06987,0.95899 -1.06987,1.24387 0,0.28487 0.48144,0.51795 1.06987,0.51795 0.58843,0 1.06987,-0.55974 1.06987,-1.24387 z m -9.62884,-21.59041 c 0,-1.87061 -1.94113,-3.61524 -2.87803,-2.58668 -0.88012,0.96623 0.49377,4.27917 1.77459,4.27917 0.60689,0 1.10344,-0.76162 1.10344,-1.69249 z m -79.78033,-2.87259 c 0.7281,-1.29335 -1.99815,-3.92568 -2.96567,-2.86351 -0.38717,0.42507 -0.70396,1.47757 -0.70396,2.33891 0,1.74971 2.75798,2.14399 3.66963,0.5246 z m 33.94901,-6.00581 c 3.52016,0 7.87264,-6.79499 6.77794,-10.58155 -0.58536,-2.02473 0.14754,-2.77858 4.73718,-4.87255 4.92504,-2.24701 5.42968,-2.82657 5.42968,-6.2358 0,-4.8657 0.7753,-5.59065 3.71642,-3.47501 1.32072,0.95003 3.19131,1.39452 4.15687,0.98775 0.97593,-0.41115 1.75555,-0.16218 1.75555,0.56062 0,0.71512 -0.82929,1.30021 -1.84287,1.30021 -1.48539,0 -1.36377,0.3684 0.627,1.8992 1.6906,1.3 2.28937,2.65691 1.89778,4.30079 -0.31463,1.32088 -0.0972,3.37553 0.48301,4.56588 0.90302,1.85241 1.93576,2.06479 7.1667,1.47384 3.36141,-0.37973 6.75944,-0.91336 7.55119,-1.18582 1.72408,-0.59331 -17.85707,-22.21057 -21.16152,-23.36198 -1.21571,-0.4236 -2.21039,-1.29291 -2.21039,-1.93179 0,-0.63888 -1.56469,-2.7382 -3.47708,-4.66517 l -3.47709,-3.50357 4.54696,-4.16216 c 4.8913,-4.47737 6.24888,-7.81086 1.90991,-4.68971 -1.45037,1.0433 -3.97794,1.90025 -5.61682,1.90433 -2.16702,0.006 -3.46254,0.93903 -4.74962,3.42286 -3.22483,6.22329 -11.37693,9.73604 -8.39395,3.61697 0.63716,-1.30699 0.67769,-2.47655 0.0995,-2.86889 -1.44402,-0.97977 -3.74573,0.27389 -4.93646,2.68871 -4.39246,8.90799 -4.55291,7.90617 2.50762,15.65746 0.58843,0.646 2.33934,2.4505 3.89091,4.00999 3.43691,3.45444 2.51265,6.21307 -2.73099,8.15133 -3.69018,1.36403 -6.07415,6.14869 -6.23823,12.5202 -0.0447,1.73837 -0.56283,3.48734 -1.15126,3.88659 -2.39332,1.62386 -0.85084,2.70341 2.40015,1.67982 1.90845,-0.6009 4.75784,-1.09255 6.33191,-1.09255 z m 0.89673,-31.71268 c 0,-0.646 0.75057,-1.17454 1.66795,-1.17454 0.91737,0 1.37039,0.52854 1.00672,1.17454 -0.36367,0.646 -1.11425,1.17455 -1.66795,1.17455 -0.5537,0 -1.00672,-0.52855 -1.00672,-1.17455 z m 53.8893,26.91387 c 2.76559,-0.84304 4.4962,-0.87135 5.21226,-0.0853 2.20592,2.42174 4.10332,0.10113 3.37969,-4.13354 -0.59297,-3.47002 -0.36781,-4.13981 1.57961,-4.69889 3.0624,-0.87918 2.87163,-4.37412 -0.36588,-6.70295 -3.30867,-2.37999 -3.78219,-2.37171 -3.78219,0.0661 0,1.07963 -0.78861,2.91962 -1.75246,4.08887 -1.4557,1.7659 -1.51655,2.43796 -0.35937,3.9687 1.15082,1.52231 1.12396,2.13824 -0.15441,3.54168 -1.35007,1.48216 -1.84084,1.47333 -3.84693,-0.0693 -1.2647,-0.9725 -2.45273,-2.91135 -2.64009,-4.30856 -0.49454,-3.68802 -3.01533,-4.16543 -3.01533,-0.57107 0,1.615 -0.55747,3.14037 -1.23884,3.38971 -1.63725,0.59915 -0.24342,6.79193 1.52669,6.78312 0.72433,-0.004 3.18009,-0.57448 5.45725,-1.26862 z m -69.93737,-6.78269 c 0,-1.84783 0.32033,-5.94405 0.71184,-9.10272 0.66539,-5.36837 0.58999,-5.63274 -1.1559,-4.05263 -1.22986,1.11307 -1.68627,2.71763 -1.33639,4.69817 0.31211,1.76679 -0.13361,3.82115 -1.08027,4.97908 -1.87749,2.29646 -0.99548,6.83779 1.32801,6.83779 0.97314,0 1.53271,-1.22656 1.53271,-3.35969 z m 83.83391,-13.66278 c 0.67969,-1.94455 -3.14745,-6.4684 -5.47221,-6.4684 -1.0352,0 -1.25507,0.78817 -0.73719,2.64273 1.48948,5.33393 4.93928,7.45938 6.2094,3.82567 z m -22.85125,-9.40476 c 0,-0.96899 -0.72216,-1.76181 -1.60481,-1.76181 -1.67068,0 -2.12259,1.38913 -0.89155,2.7406 1.23102,1.35147 2.49636,0.85535 2.49636,-0.97879 z m -9.09391,-2.93636 c -0.36367,-0.64599 -1.62409,-1.17454 -2.80095,-1.17454 -1.17686,0 -1.8422,0.52855 -1.47853,1.17454 0.36367,0.646 1.6241,1.17455 2.80095,1.17455 1.17686,0 1.8422,-0.52855 1.47853,-1.17455 z m 22.4673,-5.87271 c -0.36367,-0.646 -0.87353,-1.17455 -1.13301,-1.17455 -0.25949,0 -0.4718,0.52855 -0.4718,1.17455 0,0.646 0.50986,1.17454 1.13302,1.17454 0.62316,0 0.83546,-0.52854 0.47179,-1.17454 z m 9.62884,0 c -0.36367,-0.646 -1.14265,-1.17455 -1.73108,-1.17455 -0.58843,0 -0.77233,0.52855 -0.40866,1.17455 0.36367,0.646 1.14266,1.17454 1.73108,1.17454 0.58843,0 0.77233,-0.52854 0.40866,-1.17454 z m -20.86249,-3.37982 c 0,-1.69763 -3.03181,-3.92673 -4.23262,-3.11197 -2.16378,1.46812 -1.15796,4.1427 1.55794,4.1427 1.47108,0 2.67468,-0.46383 2.67468,-1.03073 z m -44.92276,-9.56444 c 1.40312,-2.87824 0.56671,-4.6739 -2.17707,-4.6739 -1.94806,0 -4.25399,3.14152 -4.25399,5.79551 0,2.26431 5.22466,1.35311 6.43106,-1.12161 z m -0.0118,152.71494 c 0,-0.64599 0.72216,-1.17454 1.60481,-1.17454 0.88264,0 1.6048,0.52855 1.6048,1.17454 0,0.646 -0.72216,1.17455 -1.6048,1.17455 -0.88265,0 -1.60481,-0.52855 -1.60481,-1.17455 z M 394.6052,310.11924 c 0,-2.52135 -4.64357,-6.76261 -7.40407,-6.76261 -1.35061,0 -3.41089,1.33865 -4.58733,2.98056 -1.68873,2.35693 -2.44849,2.69546 -3.63106,1.618 -2.2365,-2.03773 -1.85688,-8.89998 0.64426,-11.64583 2.39243,-2.62649 3.06599,-2.78444 5.28904,-1.24031 1.05615,0.73358 2.94466,0.17195 5.97273,-1.77623 l 4.42823,-2.84901 1.30596,2.67896 c 1.68711,3.46081 1.16132,17.49911 -0.68042,18.16668 -0.73553,0.26661 -1.33734,-0.25999 -1.33734,-1.17021 z m -176.79623,-19.3177 c -3.1054,-0.89091 -2.26323,-10.93579 0.91687,-10.93579 0.81968,0 1.49034,0.81141 1.49034,1.80314 0,0.99173 0.76366,3.08266 1.69703,4.64653 2.56334,4.29489 1.03855,5.96156 -4.10424,4.48612 z m 151.38679,-10.48837 c -1.9124,-2.30412 -3.47708,-4.91464 -3.47708,-5.80113 0,-0.8865 1.48797,-3.47232 3.30661,-5.74629 l 3.3066,-4.13447 -2.45182,-4.35527 c -2.97999,-5.29347 -3.13723,-14.8331 -0.34003,-20.62959 1.01548,-2.10432 2.79495,-5.82373 3.95437,-8.26533 1.6176,-3.40647 2.57618,-4.27615 4.12032,-3.73812 1.38554,0.48279 2.01227,0.12779 2.01227,-1.1398 0,-1.37406 1.11928,-1.84096 4.41322,-1.84096 4.31825,0 4.39961,-0.0747 3.7808,-3.47151 -0.50497,-2.77184 -0.30833,-3.33495 0.9757,-2.79402 1.82797,0.77008 4.73861,6.40016 4.73861,9.16593 0,1.35002 -0.6753,1.65645 -2.52639,1.1464 -2.34766,-0.64687 -2.57769,-0.2717 -3.25129,5.30294 -0.39869,3.29948 -0.41993,7.78359 -0.0472,9.96468 0.57487,3.36416 0.17872,4.53882 -2.6118,7.74451 -1.80921,2.07838 -3.0272,4.24472 -2.70668,4.81409 1.23976,2.20221 -0.81524,5.46047 -3.86647,6.13041 -3.24076,0.71157 -4.46917,3.10559 -1.59353,3.10559 0.87143,0 1.87452,1.4535 2.2291,3.23 1.24251,6.22529 1.34283,6.36239 3.65969,5.00113 1.18555,-0.69658 2.15558,-2.305 2.15558,-3.57428 0,-1.26927 0.53757,-2.30776 1.1946,-2.30776 0.75502,0 0.94402,1.18853 0.51364,3.22999 -0.37452,1.7765 -0.97547,5.21204 -1.33545,7.63454 -0.48918,3.29184 -1.16797,4.40453 -2.68697,4.40453 -1.11786,0 -2.30958,-0.79281 -2.64828,-1.76181 -0.85937,-2.45858 -2.83481,-2.196 -4.4181,0.58727 -1.7899,3.1465 -2.3477,2.98076 -6.40004,-1.90167 z m 11.63171,-49.39652 c -1.2612,-2.38105 -1.56576,-1.61893 -0.53336,1.33468 0.3669,1.04969 0.89248,1.66111 1.16794,1.3587 0.27546,-0.30241 -0.01,-1.51443 -0.63458,-2.69338 z m -209.29043,11.42433 c -12.24012,-1.29485 -13.58633,-2.90295 -13.81586,-16.50361 -0.14572,-8.63417 -2.66935,-22.46581 -4.33639,-23.76715 -0.60799,-0.47461 -2.4021,-0.87101 -3.98692,-0.8809 -2.92535,-0.0182 -6.21242,-3.66822 -6.21242,-6.89827 0,-0.91268 -1.23723,-2.91823 -2.7494,-4.45676 -2.54809,-2.59255 -2.69509,-3.29035 -2.00772,-9.53104 0.84792,-7.69839 1.91282,-9.67005 5.22289,-9.67005 3.2032,0 7.60508,-5.37855 9.57509,-11.69957 0.89812,-2.88178 1.41276,-5.48132 1.14363,-5.77679 -0.26913,-0.29547 -2.61337,1.13739 -5.20941,3.18413 -3.26719,2.57588 -5.93953,3.72134 -8.68182,3.72134 l -3.96176,0 0.42868,-7.39086 c 0.29617,-5.10649 1.13874,-8.48564 2.72601,-10.93283 4.74306,-7.31272 8.86316,-17.48008 8.86316,-21.87205 0,-2.87086 0.75525,-5.26605 2.13975,-6.78601 2.82157,-3.09762 3.90717,-2.96301 4.71831,0.58504 1.78658,7.81476 23.38448,14.80728 34.06514,11.02891 3.16461,-1.1195 4.63204,-1.10966 6.94348,0.0465 2.82838,1.41479 2.85862,1.524 0.86476,3.12458 -1.13634,0.9122 -4.50162,1.67525 -7.47841,1.69567 -6.07656,0.0417 -7.70458,1.24919 -15.39423,11.41809 -3.67931,4.86557 -4.57444,6.91537 -4.35022,9.96179 0.16672,2.26518 -0.89338,6.61465 -2.5891,10.6228 -3.47279,8.20863 -3.47344,8.22222 -0.4642,9.67161 1.32397,0.63769 3.12938,2.88457 4.01202,4.99306 2.01889,4.82279 5.47631,5.94811 9.36917,3.04948 1.6139,-1.20171 4.08647,-2.44921 5.49462,-2.77221 2.80807,-0.6441 5.32921,-4.06286 4.03993,-5.47828 -0.44727,-0.49103 -1.74768,-0.2521 -2.88979,0.53093 -1.14211,0.78305 -2.80527,1.42372 -3.69589,1.42372 -2.94219,0 -1.68339,-3.56135 2.13244,-6.03302 2.06346,-1.33658 3.95902,-3.56506 4.21235,-4.95219 0.25333,-1.38712 0.75618,-4.04326 1.11746,-5.90253 0.6664,-3.42966 5.19763,-9.28369 7.97167,-10.29884 2.91631,-1.06722 0.34524,-4.525 -3.37881,-4.54408 -4.58602,-0.0235 -2.07458,-1.91097 3.95655,-2.97355 2.36577,-0.41681 5.32944,-1.47235 6.58596,-2.34565 2.54201,-1.76672 3.59971,-1.18963 3.59971,1.96404 0,2.12388 1.88153,2.9515 12.64756,5.56322 10.3473,2.51017 14.4575,11.11006 7.13346,14.92558 -2.20874,1.15065 -4.01568,3.09203 -4.38614,4.71248 -0.37052,1.6207 -2.23079,3.61908 -4.51662,4.85194 -2.5993,1.40193 -4.95591,4.14485 -7.11498,8.2813 -2.13497,4.09029 -4.13421,6.42981 -5.90302,6.90777 -3.67855,0.99397 -7.26586,4.78537 -10.00089,10.56986 -2.13125,4.50751 -9.80336,12.23408 -15.43111,15.54062 -3.28024,1.92729 -3.06739,5.7898 0.39878,7.23656 2.08137,0.86877 2.5871,1.67612 2.00504,3.20093 -0.42812,1.12151 -1.07886,6.79043 -1.4461,12.5976 -0.75576,11.95106 0.0235,11.26157 -11.36641,10.05665 z m 6.41871,-10.81341 c 0.70468,-0.73078 0.28771,-2.59121 -1.22267,-5.45535 -1.93786,-3.67473 -3.01238,-4.45941 -6.95365,-5.07786 -2.56389,-0.4023 -4.82779,-0.57223 -5.0309,-0.37761 -0.88093,0.84414 1.23824,7.71849 3.24116,10.5139 1.82495,2.54703 2.74677,2.92629 5.54285,2.2805 1.84462,-0.42605 3.83506,-1.27366 4.42321,-1.88358 z m 51.02,1.28303 c 0.25744,-0.84788 1.09996,-1.77283 1.87228,-2.05545 0.8024,-0.29364 1.2036,0.14682 0.93613,1.02773 -0.25744,0.84786 -1.09996,1.77282 -1.87227,2.05545 -0.8024,0.29363 -1.20361,-0.14682 -0.93614,-1.02773 z m -18.89405,-6.74593 c -1.29536,-1.4221 -0.35581,-3.8269 3.03918,-7.77883 1.98187,-2.30699 4.17227,-4.19453 4.86755,-4.19453 0.69528,0 2.68455,-0.80639 4.42062,-1.79197 l 3.15649,-1.79198 -0.0164,3.84743 c -0.018,4.22461 -0.44922,5.13857 -3.96495,8.40352 -2.35204,2.18426 -10.41379,4.50159 -11.50251,3.30636 z m 154.56711,-41.92422 c 0,-1.07667 0.6018,-1.73735 1.33734,-1.46818 1.51458,0.55426 1.34809,2.44303 -0.26747,3.03424 -0.58843,0.21534 -1.06987,-0.48939 -1.06987,-1.56606 z M 296.9148,161.05617 c -2.67317,-1.64234 -2.22976,-3.64125 0.59955,-2.70281 1.32397,0.43914 2.80066,1.19739 3.28153,1.685 1.37886,1.39819 -1.87363,2.25115 -3.88108,1.01781 z m 55.11925,-7.53147 c -2.8053,-2.15714 -7.01004,-10.6528 -6.08534,-12.29538 0.3512,-0.62383 2.28407,-1.13425 4.29528,-1.13425 5.0332,0 7.65494,-4.20382 5.95686,-9.55151 -1.47165,-4.63463 -1.48154,-5.71756 -0.0522,-5.71756 1.4091,0 5.59834,10.33533 7.45959,18.40365 1.24088,5.37912 1.19428,6.41645 -0.40898,9.10272 -2.12909,3.56731 -7.35141,4.12499 -11.16524,1.19233 z M 89.338302,139.21416 c -1.551745,-2.84879 -6.065676,-21.0308 -6.065676,-24.43241 0,-4.81602 0.909017,-5.05262 4.279485,-1.11391 2.884336,3.37061 4.531267,3.67196 6.419227,1.17454 1.641716,-2.17168 3.286367,-2.23075 5.805493,-0.20849 1.836249,1.47405 1.842339,1.74997 0.11941,5.40772 -1.335025,2.83424 -1.63344,5.30819 -1.127459,9.34705 l 0.688107,5.49262 -4.448686,2.60689 c -5.009533,2.93555 -5.010835,2.93595 -5.669901,1.72599 z m 242.679398,-2.64272 -3.20961,-0.89662 3.47708,-0.13897 c 1.91239,-0.0765 3.47708,-0.73222 3.47708,-1.45731 0,-0.91521 0.48716,-0.87451 1.59303,0.13307 1.72378,1.57058 1.20838,3.6203 -0.85377,3.39541 -0.70081,-0.0764 -2.71852,-0.54245 -4.48381,-1.03558 z m -29.70929,-1.94498 c 0.72434,-0.32173 2.16866,-0.34131 3.20962,-0.0436 1.04095,0.29779 0.44831,0.56103 -1.31698,0.58497 -1.76529,0.024 -2.61697,-0.21971 -1.89264,-0.54146 z m -169.03966,-8.2218 c 0.72433,-0.32173 2.16866,-0.34131 3.20961,-0.0436 1.04096,0.2978 0.44831,0.56103 -1.31698,0.58497 -1.76528,0.024 -2.61697,-0.21971 -1.89263,-0.54145 z m 3.49744,-3.73199 c 0,-2.93352 -1.55907,-3.16174 -5.34936,-0.78303 -3.94183,2.47381 -6.80578,2.12447 -9.62884,-1.17454 -1.382,-1.615 -3.07635,-2.93636 -3.76523,-2.93636 -0.68887,0 -2.08997,-1.01595 -3.11357,-2.25766 -1.79193,-2.17378 -1.65717,-2.47684 3.62708,-8.15728 8.09681,-8.703848 22.53162,-13.916225 24.32557,-8.783916 0.37351,1.068611 0.0463,4.372016 -0.72705,7.340896 -0.7734,2.96888 -1.94414,8.13703 -2.60167,11.48476 -1.29051,6.57053 -2.76693,9.38104 -2.76693,5.26713 z"
       style="fill:#fba201" />
    <path
       inkscape:connector-curvature="0"
       id="path3017"
       d="m 312.76002,358.56017 c -0.36367,-0.64599 -2.49558,-1.17454 -4.73757,-1.17454 -3.85824,0 -4.11013,-0.22837 -4.7072,-4.26767 -0.52302,-3.53832 -0.15154,-4.82516 2.17363,-7.52971 2.33387,-2.71467 3.42189,-3.15205 6.48395,-2.60653 3.12828,0.55732 3.62311,0.34054 3.3032,-1.44711 -0.66107,-3.69407 -3.69514,-4.89263 -7.03732,-2.77997 -2.24343,1.41811 -3.75117,1.60461 -6.1774,0.76409 -1.76529,-0.61155 -3.8282,-1.32479 -4.58424,-1.58497 -1.06804,-0.36755 -0.99438,-1.11017 0.33021,-3.32956 1.60589,-2.69067 1.577,-2.90105 -0.49764,-3.62393 -1.42823,-0.49765 -2.2025,-1.77186 -2.2025,-3.62465 0,-2.24225 0.55922,-2.85721 2.59826,-2.85721 1.42905,0 3.37638,-0.85425 4.32741,-1.89833 2.52627,-2.77343 -0.17801,-7.06321 -4.11844,-6.53305 -3.24102,0.43605 -3.28261,0.0862 -1.38537,-11.65347 0.68905,-4.26366 1.90838,-8.6173 2.70963,-9.67472 2.03867,-2.69051 0.71831,-7.82582 -2.01213,-7.82582 -1.16564,0 -2.11936,0.39985 -2.11936,0.88856 0,0.96349 -7.54096,3.80961 -10.09376,3.80961 -0.86267,0 -2.04716,0.92495 -2.63218,2.05545 -0.89759,1.73448 -1.4048,1.82619 -3.24825,0.58727 -2.65016,-1.78106 -4.35336,-1.88487 -4.35336,-0.26531 0,0.66157 -1.73068,3.96497 -3.84595,7.34089 -4.43743,7.08202 -7.5647,8.18994 -7.07443,2.50633 0.41358,-4.79455 -1.93661,-7.09037 -5.06843,-4.95116 -1.90366,1.3003 -2.74951,1.22064 -5.5199,-0.51984 -1.79946,-1.1305 -3.9668,-2.05546 -4.81632,-2.05546 -2.24697,0 -4.09255,-5.93393 -2.64354,-8.4995 1.91304,-3.38714 1.31836,-6.4797 -2.0577,-10.70102 -3.41194,-4.26616 -3.88678,-6.57933 -2.1021,-10.24028 1.60445,-3.29125 2.39512,-2.88004 5.78584,3.00905 2.64757,4.59835 3.20465,5.03457 4.31006,3.37492 1.05123,-1.5783 1.68412,-1.6624 3.68101,-0.48914 1.99756,1.17366 2.75886,1.07179 4.43495,-0.59346 1.11288,-1.10568 2.30888,-2.99771 2.65777,-4.20451 0.34889,-1.20681 1.38022,-2.19419 2.29184,-2.19419 1.64923,0 1.63387,-0.29049 -0.38662,-7.31997 -0.40805,-1.41963 0.23212,-2.37549 2.11814,-3.16271 1.48661,-0.6205 3.02222,-2.23259 3.41245,-3.58241 2.40317,-8.3125 11.60132,-11.84211 16.32877,-6.26584 2.88646,3.40472 4.54223,2.65573 4.54223,-2.05472 0,-3.99759 0.13078,-4.04777 4.33261,-1.66233 2.68406,1.52378 3.15649,2.48369 3.15649,6.41368 0,4.65663 0.26539,5.106 5.61682,9.51052 3.25955,2.68279 3.78771,5.8912 1.33734,8.12378 -2.25342,2.05315 -1.99586,6.29467 0.53494,8.80908 2.97104,2.95181 2.82068,6.37751 -0.26747,6.09384 -3.44153,-0.31613 -4.05085,2.05506 -0.63948,2.48854 2.06911,0.26293 3.18271,1.37626 4.11189,4.1109 2.78585,8.19897 3.13496,8.70422 2.96635,4.29308 -0.20152,-5.27197 0.78815,-7.00274 4.00423,-7.00274 1.83269,0 3.5074,-1.5115 5.89388,-5.3195 3.06333,-4.88799 3.23406,-5.65111 2.10476,-9.40772 -1.11896,-3.72218 -0.97669,-4.41742 1.58904,-7.76494 1.76591,-2.304 2.55174,-4.38273 2.10475,-5.56771 -1.74866,-4.63582 -1.66163,-5.69312 0.52017,-6.31949 1.40886,-0.40447 2.46827,-1.93209 2.87028,-4.13882 0.39642,-2.17602 1.64624,-4.00245 3.30746,-4.8334 1.9591,-0.97996 2.46132,-1.87582 1.88576,-3.36383 -2.38228,-6.15897 1.2035,-9.50144 8.5663,-7.98502 3.11827,0.64221 3.82231,1.4657 5.28658,6.18354 2.13385,6.8752 4.51978,24.67092 3.46323,25.83084 -0.43782,0.48064 -1.61546,0.24653 -2.61698,-0.52026 -4.54615,-3.48063 -8.91343,-5.19929 -11.44165,-4.50267 -3.89441,1.07307 -3.40763,4.57813 0.95284,6.86092 2.53798,1.32869 3.65623,2.72422 3.70376,4.62209 0.0374,1.49529 0.37981,4.70076 0.76085,7.12326 0.62057,3.94538 0.45601,4.40453 -1.57852,4.40453 -1.24923,0 -3.20914,0.64298 -4.35536,1.42885 -1.73875,1.1921 -2.60415,1.00671 -5.22295,-1.11888 -2.73784,-2.22221 -3.56329,-2.37188 -6.4604,-1.17135 -3.8594,1.59929 -4.16405,3.18386 -1.18177,6.14683 2.54856,2.53207 2.74797,4.1109 0.51921,4.1109 -0.89129,0 -2.55657,1.68977 -3.70061,3.75505 -2.70913,4.89066 -1.26548,7.17711 3.8645,6.12056 3.32155,-0.68409 3.59638,-0.51076 3.59638,2.26802 0,1.65479 0.79635,3.49797 1.76967,4.09595 1.54888,0.95162 1.41542,1.34207 -1.06987,3.12981 -3.29823,2.37252 -3.51217,3.70782 -1.06891,6.67172 1.68495,2.04402 1.57961,2.14794 -2.17739,2.14794 -3.54192,0 -3.83653,0.22867 -2.86425,2.22314 0.86104,1.76628 0.61139,2.56747 -1.21484,3.89867 -3.53993,2.58038 -1.5461,4.59667 3.6444,3.68548 4.85171,-0.85173 4.85022,-0.76681 -0.11417,6.48955 l -2.71204,3.96414 5.31092,4.82183 c 2.921,2.65202 6.84326,6.55001 8.71615,8.66221 1.87287,2.11221 4.28008,3.87217 5.34935,3.91105 1.06926,0.0389 -1.37146,1.05162 -5.42382,2.25059 -7.6699,2.26926 -10.80645,2.0394 -9.8415,-0.72122 0.82708,-2.36619 -1.20988,-7.47276 -2.98081,-7.47276 -1.62993,0 -8.16134,7.55246 -8.16134,9.43722 0,1.49758 -3.9673,1.4639 -4.81442,-0.0409 z M 318.64431,327.84 c 0,-1.56018 -2.59793,-1.16229 -4.8774,0.747 -1.77735,1.4887 -1.84891,1.90347 -0.49639,2.87694 1.58713,1.1423 5.37379,-1.41131 5.37379,-3.62394 z m -15.81626,-16.4769 c -1.63425,-1.79414 -2.84012,-0.47027 -1.93372,2.1229 0.5352,1.53111 0.99918,1.68282 1.95096,0.63793 0.95179,-1.04491 0.94768,-1.70151 -0.0172,-2.76083 z m 0.7465,-11.561 1.69637,-2.8385 -2.90853,2.31561 c -1.59968,1.27358 -2.92365,2.75605 -2.94215,3.29438 -0.0611,1.77735 2.42831,0.11664 4.15431,-2.77149 z m 4.37105,-8.87606 c 0,-1.02284 -0.57172,-1.65048 -1.27047,-1.39477 -1.98378,0.72595 -2.31281,3.25446 -0.42349,3.25446 0.93167,0 1.69396,-0.83686 1.69396,-1.85969 z m -51.35382,-0.55655 c 0,-2.49788 -2.457,-12.29732 -3.35508,-13.38137 -0.53462,-0.64533 -0.92441,0.86519 -0.92441,3.58236 0,2.584 -0.54537,5.2969 -1.21193,6.02867 -1.87273,2.05596 -0.23124,5.01204 2.78316,5.01204 1.48954,0 2.70826,-0.55877 2.70826,-1.2417 z m 15.42476,-16.21948 c 0.31506,-0.55967 -0.31521,-1.89987 -1.4006,-2.97824 -1.87406,-1.86194 -1.94733,-1.8107 -1.45486,1.01757 0.52058,2.98964 1.78675,3.85905 2.85546,1.96067 z m 66.69536,-3.18299 c -1.05296,-1.15596 -2.94965,0.61862 -2.94965,2.75975 0,1.79291 0.14072,1.7897 1.8086,-0.0413 0.99472,-1.09205 1.50819,-2.31533 1.14105,-2.7184 z m -56.37037,78.30913 c -3.07408,-4.73953 -2.81607,-5.57887 1.97337,-6.41966 2.30228,-0.40417 4.89081,-1.03179 5.75229,-1.39471 2.42981,-1.02363 3.37087,4.97671 1.31956,8.41369 -2.33999,3.92066 -6.28297,3.65941 -9.04522,-0.59932 z m 54.49059,-15.96866 c 0,-0.969 0.48144,-1.76182 1.06987,-1.76182 0.58843,0 1.06988,0.79282 1.06988,1.76182 0,0.969 -0.48145,1.76181 -1.06988,1.76181 -0.58843,0 -1.06987,-0.79281 -1.06987,-1.76181 z m 12.83846,-2.78028 c 0,-1.48889 8.62995,-7.51693 9.45881,-6.60699 0.94295,1.03521 -5.85941,7.62545 -7.87089,7.62545 -0.87335,0 -1.58792,-0.4583 -1.58792,-1.01846 z m -118.34707,-1.85566 c -0.66347,-1.89813 2.68882,-7.60245 4.50151,-7.65987 1.27641,-0.0404 3.64881,4.9354 3.64881,7.6529 0,2.33541 -7.33424,2.34168 -8.15032,0.007 z m 105.50861,0.007 c 0,-0.28487 0.48144,-0.84461 1.06987,-1.24386 0.58843,-0.39925 1.06988,-0.16617 1.06988,0.51795 0,0.68412 -0.48145,1.24386 -1.06988,1.24386 -0.58843,0 -1.06987,-0.23307 -1.06987,-0.51795 z m 7.22163,-10.14702 c -2.08227,-1.33146 -2.53329,-6.36604 -0.68279,-7.62161 0.65423,-0.44389 1.5659,-0.13845 2.02595,0.67877 0.80088,1.42263 2.64236,1.28044 8.28569,-0.63978 3.97876,-1.35382 3.15047,3.69009 -1.06988,6.51503 -3.87544,2.59409 -5.79689,2.83375 -8.55897,1.06759 z m -10.8973,-2.13266 c -0.9033,-1.60457 3.14342,-6.49483 4.57228,-5.52535 1.69029,1.14686 1.56164,2.53646 -0.43809,4.73184 -1.89552,2.08096 -3.26178,2.3432 -4.13419,0.79351 z m 30.62306,-0.19575 c 0.25744,-0.84788 1.09995,-1.77282 1.87227,-2.05545 0.8024,-0.29364 1.20361,0.14681 0.93614,1.02772 -0.25745,0.84787 -1.09997,1.77282 -1.87228,2.05545 -0.8024,0.29364 -1.2036,-0.14682 -0.93613,-1.02772 z M 286.2807,301.26509 c -3.31955,-0.46664 -4.05014,-2.60664 -0.8899,-2.60664 1.12873,0 2.81378,-0.32081 3.74455,-0.71293 1.09401,-0.46088 1.69231,-0.0701 1.69231,1.10522 0,2.30247 -0.87811,2.73011 -4.54696,2.21435 z m 50.55142,-0.25755 c 0,-0.646 0.48144,-1.17454 1.06987,-1.17454 0.58843,0 1.06988,0.52854 1.06988,1.17454 0,0.646 -0.48145,1.17454 -1.06988,1.17454 -0.58843,0 -1.06987,-0.52854 -1.06987,-1.17454 z M 227.25337,277.46797 c -2.57009,-2.86747 -3.3746,-5.19962 -4.52016,-13.10316 -1.42461,-9.82879 -1.06891,-12.67317 1.0855,-8.68027 1.51873,2.81476 3.82459,5.34529 7.46814,8.19576 1.56069,1.22098 2.83763,2.89492 2.83763,3.71986 0,0.82493 2.04613,3.36643 4.54695,5.64778 5.43606,4.95898 4.67971,6.72379 -3.13586,7.31702 -4.5406,0.34466 -5.52862,-0.0248 -8.2822,-3.09699 z m -19.13334,-1.87694 c -0.99031,-1.0872 0.20229,-2.77254 1.9619,-2.77254 0.90099,0 1.26018,0.70926 0.89228,1.76182 -0.65302,1.86822 -1.72675,2.24845 -2.85418,1.01072 z m 4.60702,-9.23253 c 0,-3.37478 0.0501,-3.39611 3.69421,-1.57327 3.36235,1.68186 3.4604,2.84475 0.31781,3.76933 -3.7285,1.09696 -4.01202,0.94177 -4.01202,-2.19606 z m 99.17049,2.18526 c -0.85475,-0.93837 0.11147,-2.77253 1.46056,-2.77253 0.5537,0 1.00673,0.79282 1.00673,1.76182 0,1.81632 -1.26241,2.33346 -2.46729,1.01071 z m -63.31751,-2.97972 c -1.05112,-4.46722 -4.20963,-7.24342 -7.4639,-6.56047 -1.49169,0.31305 -2.71217,0.3074 -2.71217,-0.0126 0,-1.64484 2.64983,-10.44686 3.52794,-11.71883 1.36118,-1.97175 2.89129,-1.85959 2.89129,0.21195 0,0.92407 1.08325,1.84902 2.40721,2.05545 1.5168,0.23649 2.52963,1.31901 2.73818,2.92658 0.25407,1.95856 1.31041,2.73293 4.54695,3.33324 2.3188,0.43008 4.21599,0.97492 4.21599,1.21073 0,2.15851 -2.86622,6.41202 -4.32072,6.41202 -1.01064,0 -2.56957,1.18923 -3.46431,2.64273 l -1.62679,2.64272 -0.73967,-3.14355 z m 70.72796,-7.48252 c -0.47565,-1.36082 -1.51783,-1.80124 -3.35167,-1.41637 -2.26859,0.4761 -2.66137,0.11952 -2.66137,-2.41611 0,-1.63604 -0.79945,-3.94445 -1.77656,-5.12977 -2.36112,-2.86428 -0.94274,-4.25516 1.681,-1.6484 1.642,1.63136 2.50723,1.77963 4.28605,0.7345 1.91103,-1.12282 2.22874,-0.9766 2.22874,1.02566 0,1.28434 0.56467,3.69571 1.25482,5.35863 0.8688,2.09335 0.91251,3.3993 0.14207,4.24512 -0.77045,0.84582 -1.32513,0.61408 -1.80308,-0.75326 z m 52.49511,-1.47727 c -3.46079,-3.9657 -3.59386,-6.55465 -0.61283,-11.92307 l 2.25401,-4.05916 1.85793,4.1934 c 2.48277,5.60368 3.3756,12.13168 1.8833,13.76998 -1.70517,1.872 -2.16874,1.70137 -5.38241,-1.98115 z m 9.79139,-9.03176 c -0.80597,-0.88482 0.29846,-7.64122 1.24906,-7.64122 1.51694,0 2.14368,3.6557 1.02143,5.9578 -1.17371,2.40768 -1.43459,2.6011 -2.27049,1.68342 z m -78.25386,-4.12303 c 3.98606,-4.10164 5.67484,-4.44955 5.67484,-1.1691 0,1.70752 -0.71325,2.34909 -2.61154,2.34909 -1.43634,0 -2.90908,0.52854 -3.27275,1.17454 -0.36367,0.646 -1.23461,1.1721 -1.93542,1.16911 -0.70081,-0.004 0.26437,-1.58862 2.14487,-3.52364 z M 162.4431,235.2331 c -1.61588,-1.77397 -2.12595,-3.85878 -2.0834,-8.51544 l 0.0564,-6.16636 2.63188,5.82886 c 1.44754,3.20587 3.10723,6.35071 3.68821,6.98854 1.59013,1.74575 1.2689,4.21348 -0.54852,4.21348 -0.88264,0 -2.56769,-1.05708 -3.74455,-2.34908 z m 95.75527,-9.39318 c -0.98942,-1.75753 0.38315,-3.5268 2.73603,-3.5268 2.67082,0 2.6718,1.91674 0.002,3.48548 -1.37976,0.81067 -2.29691,0.82452 -2.73782,0.0413 z m 79.68415,-4.99498 c -0.0107,-0.8075 -1.45503,-3.79404 -3.20961,-6.63674 -1.75458,-2.84271 -3.19014,-5.61757 -3.19014,-6.16635 0,-1.71712 3.60234,-1.08421 7.08009,1.24392 3.73502,2.50036 5.31698,7.19438 3.60687,10.70236 -1.25252,2.56933 -4.25653,3.16968 -4.28721,0.85681 z m -162.60096,-0.88091 c -0.88265,-0.62622 -2.8498,-1.14667 -4.37145,-1.15656 -2.90964,-0.0189 -9.76397,-7.27313 -12.02906,-12.73082 -0.64228,-1.54758 -3.33432,-3.94506 -5.9823,-5.32773 -3.89245,-2.03248 -4.9537,-3.26272 -5.54121,-6.42359 -0.39967,-2.15031 -1.74263,-4.69087 -2.98434,-5.64569 -3.98796,-3.06656 -2.89058,-7.32511 4.02949,-15.63708 l 6.28713,-7.55173 1.75917,3.73467 c 0.96754,2.05406 3.00582,4.63143 4.52953,5.72748 2.4424,1.7569 2.69946,2.56085 2.17132,6.791 -0.86438,6.92333 0.39526,8.6533 4.86195,6.67734 1.93887,-0.85772 5.45099,-2.13096 7.8047,-2.82945 2.35372,-0.69848 5.85882,-2.23574 7.78911,-3.41614 5.03909,-3.08147 7.24427,-2.67996 10.42494,1.89808 l 2.8098,4.04424 -2.74315,5.1388 c -1.56422,2.93025 -5.49985,7.33125 -9.1574,10.2402 -7.08244,5.63284 -7.9679,7.35716 -6.92174,13.47928 0.72953,4.26919 0.0757,4.98295 -2.73649,2.9877 z m 124.10507,0.1628 c 0,-0.65929 0.51426,-1.54763 1.1428,-1.9741 0.62855,-0.42647 0.88438,-1.51475 0.56852,-2.41841 -0.76695,-2.19417 0.6457,-2.07094 4.56451,0.39819 3.19133,2.01077 3.28431,1.99458 6.23846,-1.08571 2.83439,-2.95542 3.16382,-3.031 6.00719,-1.37832 5.74976,3.34197 2.63568,5.16966 -11.67496,6.85213 -4.42208,0.5199 -6.84652,0.38046 -6.84652,-0.39378 z m -64.19228,-9.23329 c 0,-3.11659 2.48235,-5.30255 5.47414,-4.82055 3.23251,0.52076 3.95006,3.32015 0.85101,3.32015 -1.32666,0 -3.29255,0.87473 -4.36863,1.94386 -1.83447,1.82259 -1.95652,1.79493 -1.95652,-0.44346 z m 88.79932,-2.67495 c 0,-0.64599 0.2123,-1.17454 0.47179,-1.17454 0.25949,0 0.76934,0.52855 1.13301,1.17454 0.36367,0.646 0.15137,1.17455 -0.47179,1.17455 -0.62316,0 -1.13301,-0.52855 -1.13301,-1.17455 z m -75.96086,-2.70145 c 0,-1.67916 2.08668,-4.34581 3.40065,-4.34581 0.45812,0 0.28456,1.32136 -0.3857,2.93636 -1.30039,3.13325 -3.01495,3.93479 -3.01495,1.40945 z m 33.82064,-4.13318 c -0.36739,-0.6526 1.14044,-2.37105 3.35072,-3.81878 2.21028,-1.44773 5.09447,-3.83943 6.40931,-5.31487 1.94734,-2.1852 3.13765,-2.55605 6.41923,-2 2.21573,0.37544 4.20541,0.84598 4.42153,1.04563 0.21611,0.19966 0.64712,2.83882 0.9578,5.86482 l 0.56487,5.50181 -3.63248,-0.84437 c -4.46134,-1.03704 -8.8346,-1.04474 -13.93736,-0.0245 -2.25845,0.45153 -4.16538,0.27997 -4.55362,-0.40968 z m 38.1282,-3.77286 c -4.333,-1.91205 -2.40742,-5.83612 2.86383,-5.83612 2.86429,0 5.71891,3.90863 4.12922,5.65385 -1.47459,1.61886 -3.6113,1.67456 -6.99305,0.18227 z m -71.14644,-3.67796 c -3.12746,-1.25365 -4.06206,-4.50724 -1.29472,-4.50724 0.90609,0 3.52782,-1.05316 5.82607,-2.34035 2.74093,-1.53512 4.41819,-1.91485 4.87485,-1.10365 0.79962,1.42039 -1.48039,8.14217 -2.7618,8.14217 -0.46891,0 -1.49375,0.2224 -2.27741,0.49421 -0.78367,0.27183 -2.74881,-0.0365 -4.36699,-0.68514 z m -45.737,-27.99811 c -1.80587,-1.938 -4.22967,-3.52364 -5.38624,-3.52364 -2.47722,0 -2.66105,-2.13243 -0.64134,-7.4392 1.45453,-3.82179 1.62818,-3.92334 12.54739,-7.33848 0.93796,-0.29335 3.34517,1.05326 5.34935,2.99249 2.00419,1.93923 4.00506,3.53431 4.44638,3.54463 1.61863,0.0378 0.65986,4.21348 -1.64328,7.15693 -2.72679,3.48486 -8.58574,8.1309 -10.25357,8.1309 -0.62442,0 -2.61282,-1.58564 -4.41869,-3.52363 z m -39.58524,-22.08142 c 0,-1.65985 2.50908,-3.75854 4.49346,-3.75854 2.22821,0 2.47693,1.27419 0.64192,3.28872 -1.44019,1.5811 -5.13538,1.91916 -5.13538,0.46982 z m -36.37562,-29.31087 c 0,-0.646 0.72216,-1.83252 1.60481,-2.63672 0.8952,-0.81564 1.6048,-0.94283 1.6048,-0.28763 0,0.646 -0.72216,1.83252 -1.6048,2.63672 -0.89521,0.81564 -1.60481,0.94283 -1.60481,0.28763 z"
       style="fill:#fc6d00" />
  </g>
</svg>
