<?xml version="1.0" encoding="UTF-8" standalone="no"?>
<svg
   xmlns:dc="http://purl.org/dc/elements/1.1/"
   xmlns:cc="http://creativecommons.org/ns#"
   xmlns:rdf="http://www.w3.org/1999/02/22-rdf-syntax-ns#"
   xmlns:svg="http://www.w3.org/2000/svg"
   xmlns="http://www.w3.org/2000/svg"
   xmlns:sodipodi="http://sodipodi.sourceforge.net/DTD/sodipodi-0.dtd"
   xmlns:inkscape="http://www.inkscape.org/namespaces/inkscape"
   viewBox="0 0 512 512"
   id="svg8438"
   version="1.1"
   inkscape:version="0.48.4 r9939"
   width="100%"
   height="100%"
   sodipodi:docname="fur hat.svg">
  <metadata
     id="metadata8464">
    <rdf:RDF>
      <cc:Work
         rdf:about="">
        <dc:format>image/svg+xml</dc:format>
        <dc:type
           rdf:resource="http://purl.org/dc/dcmitype/StillImage" />
        <dc:title></dc:title>
      </cc:Work>
    </rdf:RDF>
  </metadata>
  <defs
     id="defs8462">
    <linearGradient
       id="linearGradient4077">
      <stop
         id="stop4079"
         offset="0"
         style="stop-color:#aa4400;stop-opacity:1;" />
      <stop
         style="stop-color:#ff9f00;stop-opacity:1;"
         offset="0.22752622"
         id="stop4081" />
      <stop
         style="stop-color:#803300;stop-opacity:1;"
         offset="0.4948855"
         id="stop4083" />
      <stop
         id="stop4085"
         offset="1"
         style="stop-color:#562200;stop-opacity:1;" />
    </linearGradient>
    <linearGradient
       id="linearGradient4057">
      <stop
         style="stop-color:#aa4400;stop-opacity:1;"
         offset="0"
         id="stop4059" />
      <stop
         id="stop4067"
         offset="0.22752622"
         style="stop-color:#ecd1a4;stop-opacity:1;" />
      <stop
         id="stop4065"
         offset="0.50136983"
         style="stop-color:#803300;stop-opacity:1;" />
      <stop
         style="stop-color:#562200;stop-opacity:1;"
         offset="1"
         id="stop4061" />
    </linearGradient>
    <linearGradient
       id="linearGradient3890">
      <stop
         style="stop-color:#701b1b;stop-opacity:1;"
         offset="0"
         id="stop3892" />
      <stop
         style="stop-color:#e31600;stop-opacity:1;"
         offset="1"
         id="stop3894" />
    </linearGradient>
    <linearGradient
       id="linearGradient3882">
      <stop
         style="stop-color:#600b0b;stop-opacity:1;"
         offset="0"
         id="stop3884" />
      <stop
         style="stop-color:#d11414;stop-opacity:1;"
         offset="1"
         id="stop3886" />
    </linearGradient>
    <linearGradient
       id="linearGradient3872">
      <stop
         style="stop-color:#800600;stop-opacity:1;"
         offset="0"
         id="stop3874" />
      <stop
         style="stop-color:#ff0004;stop-opacity:0;"
         offset="1"
         id="stop3876" />
    </linearGradient>
    <clipPath
       clipPathUnits="userSpaceOnUse"
       id="clipPath8376">
      <path
         style="fill:#ff00ff;fill-opacity:0.71428576;stroke:#000000;stroke-width:1px;stroke-linecap:butt;stroke-linejoin:miter;stroke-opacity:1"
         d="m 132.93607,314.71721 c -18.75439,-2.6482 -41.209306,-15.00127 -57.719183,0.0872 -14.632572,16.26402 -2.075155,41.46377 15.676843,49.39817 14.94638,6.42583 31.79998,7.64133 44.99002,18.3548 18.88157,12.67656 33.74901,36.21324 54.77809,45.17476 19.67803,12.42945 46.40674,18.90925 72.28436,15.29403 35.69784,-0.44414 60.68236,1.0828 95.28221,-9.91811 21.29965,-7.58431 46.4534,-16.56588 48.76742,-39.91128 15.5055,-69.17548 23.82494,-140.13958 22.24561,-211.07909 3.93899,-29.76399 -17.37653,-55.38471 -31.16915,-29.3739 -20.60533,21.8385 -10.85663,53.39088 -13.92803,79.60277 -12.67115,20.95558 -39.5345,4.51342 -36.8418,-19.09952 1.45819,-26.35967 -16.50294,-48.42312 -14.80626,-81.68971 -9.84916,-15.65873 -12.39304,-39.19665 -31.92202,-46.52752 -22.79813,-5.633297 -28.49969,25.04787 -22.06036,41.24795 8.57837,27.32674 9.17974,56.7085 20.45025,83.24182 -17.77505,18.67959 -25.25408,-7.50342 -35.36143,-32.60284 -2.63161,-18.85018 -6.72956,-31.2828 -8.19838,-45.38189 -4.97316,-16.26874 -12.26457,-33.261625 -20.86092,-46.773858 -11.19343,-21.409541 -46.04666,-1.515721 -36.14469,18.896448 9.58698,29.22098 22.25502,81.73486 30.69486,111.34888 9.79214,11.11296 -0.52886,22.40698 -8.30398,17.16719 -10.78604,-23.41232 -29.1287,-45.7668 -47.41268,-62.80573 -12.38005,-11.66833 -20.18258,-31.91042 -39.11983,-33.96625 -24.60914,2.55661 -26.98121,33.54309 -11.20737,48.45615 23.19408,41.17556 62.97938,73.31852 74.89468,120.4233 9.24868,21.59121 -11.23221,46.65988 -34.15183,37.14061 -18.31106,-5.06961 -25.39072,-28.22706 -45.70567,-29.53279"
         id="path8378"
         inkscape:connector-curvature="0"
         sodipodi:nodetypes="cccccccccccccccccccccccccccc" />
    </clipPath>
    <clipPath
       clipPathUnits="userSpaceOnUse"
       id="clipPath8442">
      <path
         style="fill:none;stroke:#ff00ff;stroke-width:1px;stroke-linecap:butt;stroke-linejoin:miter;stroke-opacity:1"
         d="m 222.73864,99.04964 c 1.40063,24.76016 -27.90493,28.77514 -45.48393,35.6962 -25.55589,11.41423 -30.38951,7.09173 -55.25684,20.47137 -11.84122,24.03423 -1.00008,33.18113 5.66675,51.52022 6.25698,27.14933 -19.58649,46.60948 -24.84578,71.47951 -7.850589,27.81202 16.82068,53.07367 18.28893,80.33071 4.9353,19.79827 18.08212,33.89671 20.26784,54.68225 -7.26962,7.36492 -16.77509,19.88827 -14.15478,28.3465 1.26717,4.09037 16.12768,0.0349 19.5343,3.56062 7.56304,7.82743 5.8995,22.46202 8.04699,30.21463 18.08356,11.55435 16.69726,-39.34089 23.95745,-13.52212 16.99228,17.11535 43.22481,14.3837 64.78462,17.20081 20.35807,1.44319 42.11143,3.89428 61.07864,-5.48049 2.07073,-3.13421 14.64908,-9.4644 15.45043,-12.75284 0.97028,-3.98166 0.38437,18.05225 3.04809,19.15858 7.61108,3.16114 18.54475,-9.02354 18.12943,-24.08849 0.63016,-15.1632 18.04973,-7.94921 19.46873,-12.18792 4.15209,-12.40278 -12.86709,-25.99561 -17.30571,-37.99176 4.38302,-26.41712 46.52422,-55.48054 54.06877,-80.92185 4.56952,-20.28842 13.07915,-15.13423 4.66394,-37.15777 -7.43559,-17.70568 -18.37956,-9.03902 -20.99933,-55.12572 -16.86225,-54.82604 29.5645,-34.98389 -13.98793,-81.02957 -18.05197,-22.23345 -31.2331,-19.16031 -74.59129,-38.71816 -4.52,-7.86966 15.43927,-43.214317 -4.79029,-58.856789 -19.01886,-16.048166 -54.82824,-15.865462 -67.75138,9.363145 -2.10407,11.963891 -0.6766,24.223305 2.71235,35.808934 z"
         id="path8444"
         inkscape:connector-curvature="0"
         sodipodi:nodetypes="cccccccssccccsscsccccccccc" />
    </clipPath>
  </defs>
  <sodipodi:namedview
     pagecolor="#000000"
     bordercolor="#666666"
     borderopacity="1"
     objecttolerance="10"
     gridtolerance="10"
     guidetolerance="10"
     inkscape:pageopacity="0"
     inkscape:pageshadow="2"
     inkscape:window-width="1190"
     inkscape:window-height="1126"
     id="namedview8460"
     showgrid="false"
     inkscape:zoom="0.64"
     inkscape:cx="241.12458"
     inkscape:cy="72.277023"
     inkscape:window-x="160"
     inkscape:window-y="130"
     inkscape:window-maximized="0"
     inkscape:current-layer="g8466"
     showguides="true"
     inkscape:guide-bbox="true" />
  <g
     id="g8466">
    <path
       inkscape:connector-curvature="0"
       d="M -0.58051677,0.1885736 H 513.53445 V 516.42957 H -0.58051677 z"
       id="path3978"
       style="fill:#000000" />
    <path
       sodipodi:type="arc"
       style="fill:#333333;fill-opacity:1;fill-rule:nonzero;stroke:none"
       id="path4121"
       sodipodi:cx="63.286057"
       sodipodi:cy="-74.545074"
       sodipodi:rx="39.244427"
       sodipodi:ry="23.688076"
       d="m 101.95774,-78.577314 a 39.244427,23.688076 0 0 1 9.3e-4,0.0033 l -38.672613,4.028989 z"
       sodipodi:start="6.11213"
       sodipodi:end="6.1122693" />
    <path
       sodipodi:type="arc"
       style="fill:#333333;fill-opacity:1;fill-rule:nonzero;stroke:none"
       id="path4125"
       sodipodi:cx="54.182056"
       sodipodi:cy="-54.392529"
       sodipodi:rx="15.46796"
       sodipodi:ry="16.793785"
       d="m 69.424272,-57.251206 a 15.46796,16.793785 0 0 1 3.67e-4,0.0023 l -15.242583,2.856372 z"
       sodipodi:start="6.11213"
       sodipodi:end="6.1122693" />
    <g
       id="g9568"
       transform="matrix(1.0901627,0,0,1.0161839,160.77638,-697.44688)">
      <path
         style="fill:#cd976d"
         d="m -48.80307,987.71535 c -18.242551,-20.79113 -24.6978,-48.225 -38.334602,-70.35119 -7.186823,-12.2764 3.551706,-20.77661 -3.509893,-33.04606 5.218952,-20.99563 8.759862,-43.44685 28.060051,-56.89604 25.848148,-16.10672 10.520155,-44.17906 12.978712,-67.05552 7.559671,-12.37864 22.695897,2.49025 24.416329,-15.38396 11.434316,8.57802 37.534197,-1.54675 52.78932,12.50816 10.108716,-2.29557 -0.07176,15.67339 12.57092,9.82262 6.832756,28.5181 44.714081,-0.92795 42.359767,-20.39679 14.099438,-15.04796 31.198336,-30.34233 53.040206,-35.75363 5.69947,13.04338 40.65609,22.92057 35.26753,28.55186 -20.15958,1.91315 -8.119,14.89508 1.63942,15.44064 -8.11701,11.21992 29.71065,25.2235 7.23529,33.01453 -10.06339,14.50536 23.14855,20.24004 10.16497,33.05758 10.95829,8.49595 14.93721,23.84446 25.60685,30.38131 -0.53078,24.01821 4.97412,52.73992 -1.02477,77.02649 -13.20529,35.23878 -19.71236,72.54675 -33.06151,107.78825 -16.73061,47.7002 -37.27885,96.4824 -74.03769,132.3297 -18.986303,16.5887 -50.425278,22.3773 -70.098435,3.6553 -42.4966124,-33.0035 -57.98634,-87.3647 -74.028625,-136.3221 -4.577217,-15.9762 -8.530926,-32.1269 -12.03384,-48.37115 z M -14.6193,968.5466 c 2.967034,-5.00669 -5.473941,1.74541 0,0 z m 48.1259,-36.59333 c 6.238307,-6.30382 -9.350593,0.27152 0,0 z"
         id="path9532"
         inkscape:connector-curvature="0" />
      <path
         style="fill:#977253"
         d="m 57.08446,1190.8856 c -47.9167549,4.893 -103.04659,8.013 -142.069869,-25.5479 -21.096211,-22.512 -7.713849,-55.2125 2.69426,-79.3675 -2.467431,-12.2471 -4.275395,-22.9885 10.278503,-24.41 14.301182,-17.5964 46.392371,-35.1176 33.766149,-61.1267 -9.591157,-24.67141 -29.36519,-43.3256 -36.850227,-68.86931 -10.93448,-19.53354 -12.103537,-41.88458 -6.445226,-61.12257 2.4034,-20.85911 15.509809,-39.42142 32.393624,-51.3084 18.860422,-15.44771 -10.349858,-39.99072 6.031391,-56.31461 9.796506,-1.88769 13.441576,-1.11364 17.851937,-8.18138 12.40104,5.98605 25.37412861,-10.05999 39.232781,2.91231 9.557021,6.85954 27.226118,9.30229 18.414512,19.76113 11.901253,-0.90224 24.510585,11.41556 37.044147,-2.68032 16.056474,-13.5988 18.778607,-34.30763 38.370888,-46.32674 21.43263,-17.07064 47.98966,1.78277 49.84541,25.42116 7.91353,5.24587 7.16949,21.80261 21.24621,21.48206 -4.68489,13.21033 -13.37825,24.91661 2.76997,34.66505 9.21695,20.07417 26.26856,37.75867 28.42805,60.13007 -1.33013,33.22901 -0.95907,66.97602 -8.37926,99.55396 -11.173,13.65043 4.72118,29.12945 -6.15168,40.57359 3.27668,26.8045 33.38599,35.792 47.56001,55.8964 18.33572,21.5923 37.25977,45.1944 43.14628,73.497 5.12256,26.6934 -20.72895,42.4279 -43.6973,45.1738 -50.8173,9.21 -102.86398,6.1949 -154.268245,6.2055 -10.403776,-0.093 -20.808534,-0.1289 -31.212315,-0.017 z m -111.9309,-144.7837 c 10.270694,-6.4201 -7.255774,-0.3165 0,0 z m 73.14339,-16.6053 c 23.296883,4.5656 39.027043,-30.33977 8.65882,-31.62219 -10.153853,-1.30169 -39.387209,8.93499 -14.944067,6.03629 21.26628,0.015 4.383051,11.7644 -5.5858683,13.3972 -7.6793647,7.6503 5.3905023,13.4081 11.8711153,12.1887 z m 43.9225,-23.7829 c 13.725068,1.8516 33.025476,-17.67986 14.120096,-25.5671 21.275784,-28.25229 -21.670979,-49.31274 -45.496267,-39.67735 -17.796575,-7.00923 -42.569361,-15.886 -50.257879,8.38138 -16.441329,15.09535 4.02512,36.92772 20.6255851,22.75378 20.6953259,-1.76432 -6.3821951,21.98509 -16.2289711,14.29602 17.3778417,21.67747 53.939217,-13.20101 63.921192,16.01407 4.315123,1.6225 8.645076,3.5266 13.316244,3.7992 z m 17.36501,-24.52085 c 2.129014,-0.94403 -2.129014,-0.94403 0,0 z m -43.25,-47.59548 c 8.112963,-12.01721 -21.310133,-4.44291 -3.02195,-0.2024 l 3.02195,0.2024 z M 161.66779,763.79249 c 5.61481,-0.64805 -6.69163,-0.74953 0,0 z m 85.91667,298.90041 c -2.12903,-0.944 2.12903,-0.944 0,0 z m -287.44098,-37.3542 c -6.465292,-0.5888 4.020948,-2.1768 0,0 z"
         id="path9526"
         inkscape:connector-curvature="0" />
      <path
         style="fill:#885b2d"
         d="m 96.47388,1190.8856 c -66.22187,0 -132.44374,0 -198.66561,0 6.900143,-38.1742 11.547588,-77.3327 24.581798,-113.9107 12.023125,-22.3853 41.12638,-34.6502 47.05513,-59.3978 -4.516849,-22.87801 -19.233064,-42.90414 -30.514784,-62.20001 -9.393654,-15.4071 -14.897906,-34.78281 -20.556946,-50.91951 1.547064,-13.37159 -1.170768,-20.71999 7.272472,-32.39011 -3.542822,-12.56198 -4.041699,-15.70181 6.369494,-23.97683 5.001415,-20.8644 33.385178,-23.95129 27.018125,-48.92302 -9.739752,-22.43661 1.859133,-36.98177 25.235119,-38.72871 15.04376483,-11.4311 27.477315,3.57415 43.808922,8.97676 -2.031942,21.02535 35.063917,14.94548 47.520011,4.44975 11.239476,-19.2824 25.956729,-41.41689 48.956669,-47.1732 27.1541,-1.08571 23.2966,33.24341 40.69945,44.95887 19.0425,8.3958 -20.5799,26.78516 7.11418,31.94892 14.03202,12.9381 14.85499,32.51631 28.81229,47.54021 11.38307,20.40957 3.20973,43.99951 3.81913,66.00027 -0.10133,29.48724 -10.01399,57.59439 -12.44278,86.73751 -2.30714,27.5216 25.11778,42.4719 41.4957,59.9163 14.84789,17.2945 30.99268,33.3821 46.52188,50.0661 16.68958,17.3988 15.60992,42.8763 14.12124,65.1455 -4.7458,24.597 -33.45717,7.3375 -50.24205,11.4871 -49.32135,1.0269 -98.64864,0.1064 -147.97944,0.3926 z M 31.43677,1082.2189 c 23.662999,-11.409 -13.555079,-20.7304 -21.4392974,-20.0587 -13.8742487,-8.0115 -12.280507,27.1675 1.4481944,11.8512 5.508497,9.4005 19.674029,0.5661 19.991103,8.2075 z m 13.64769,-0.849 c 4.287135,-0.5073 -4.44516,-0.9454 0,0 z m 6.14098,-0.8489 c 9.943592,-5.3778 37.231129,-7.9816 33.318034,-21.9775 -12.646408,7.6792 -31.569646,10.7398 -41.736695,16.4761 1.942111,2.9851 5.479024,3.9082 8.418661,5.5014 z m -61.25512,-5.9557 c 21.346741,-7.4888 -11.748963,-24.5763 -1.56784,-2.4889 0.522613,0.8296 1.045227,1.6593 1.56784,2.4889 z m -5.18303,-11.8795 c 10.2302374,-20.8328 -16.410467,-5.77 -0.146408,3.1746 l 0.146408,-3.1746 0,0 z m 29.8234,-28.0426 c 27.980177,0.4818 52.752388,-20.2776 74.436586,-34.74928 7.642417,-23.11368 -4.075965,-54.17897 -27.328202,-63.91897 -15.507341,-11.24542 -34.48571,-6.53001 -49.660698,-6.10992 -4.4131213,-10.28439 -10.1462399,-28.5382 -18.4356225,-9.86916 -3.7528365,14.98481 -13.0463525,27.98729 -25.8295105,32.91703 -7.219319,24.43921 16.426235,42.91539 21.74996,65.3199 4.0308535,9.8263 13.3473637,19.9045 25.067487,16.4104 z M 4.5138297,1012.0067 c -24.8098147,-2.0037 21.8301043,-9.3351 2.6165735,-0.1505 -0.8721912,0.05 -1.7443823,0.1003 -2.6165735,0.1505 z m 1.07063,-12.69623 c -13.7362579,7.83953 -14.3062084,-13.62953 -0.691624,-4.53571 10.8222023,-3.10498 44.4553473,-0.12163 15.5783713,3.34267 -4.961737,0.40471 -9.938556,0.62724 -14.8867473,1.19304 z m -23.8333297,-8.2131 -0.64441,-1.09128 0.64441,1.09128 z m 14.3247797,-7.61842 c -14.5609257,-0.60454 9.6538914,-6.27997 0,0 z m 4.22862001,-8.02608 c -13.78234471,-2.26517 16.03513429,-2.43484 0,0 z M 27.33446,936.18647 c -3.645783,-9.88772 10.682394,5.17364 0,0 z m 91.41667,96.50983 c 2.77473,-2.5717 -3.0009,-0.4673 0,0 z m 1.73342,-29.6824 c 11.78617,-13.14264 -17.56675,-18.3427 -3.42888,-3.38134 l 3.42888,3.38134 z m 1.06853,-16.7273 c 7.07692,-16.13153 -15.09512,-10.7256 0,0 z m -11.72546,-18.95577 c 2.28704,-9.65951 -4.44042,4.73496 0,0 z m -165.85015,-6.51298 c 8.883833,-5.38578 -1.3396,-12.43719 0,0 z m 172.60699,-0.84896 c 2.12901,-0.94403 -2.12901,-0.94403 0,0 z m 3.30687,-9.74056 c 0.40021,-3.97549 -3.80764,-0.92842 0,0 z m -3.74785,-2.99381 c 3.21734,-1.93751 -4.90168,-0.70052 0,0 z m -141.52569,-8.48959 c 6.53348,-9.80667 -14.137077,-2.09152 0,0 z m -7.5618,-10.59703 c 12.785134,-9.71749 -4.225805,-17.03834 0,0 z m 71.52847,-2.9863 c 2.129014,-0.94403 -2.129014,-0.94403 0,0 z m -91,-15.92897 c 4.434885,-14.18151 -19.418774,0.70746 0,0 z"
         id="path9522"
         inkscape:connector-curvature="0" />
      <path
         style="fill:#684a2b"
         d="m 96.47388,1190.8856 c -66.22187,0 -132.44374,0 -198.66561,0 6.879243,-38.7504 11.871017,-78.3767 25.377768,-115.4415 12.26225,-21.5756 41.144491,-32.9157 45.544809,-57.9063 -3.101215,-22.10809 -16.614946,-40.99957 -28.114042,-59.54985 -13.095249,-14.9127 -12.027526,-34.60198 -23.473985,-51.32019 4.079565,-10.21126 1.775712,-13.84513 0.662797,-23.38476 12.890471,-16.73229 36.288833,-2.64982 21.993793,14.66307 -21.295789,15.97883 14.039549,18.49386 15.032727,15.98996 -8.210795,16.10169 16.954648,-2.32516 9.764151,-12.29393 23.608889,3.09666 4.921652,-7.88113 -1.306566,-12.53319 18.813941,-6.37568 40.6346039,7.3807 22.651749,24.25521 3.552318,14.91212 3.544235,30.13217 -14.118397,32.81712 -16.868893,21.25694 6.436517,44.73053 13.936014,64.86276 5.2117917,30.9117 48.220314,34.9464 66.941009,13.8882 6.785514,-6.3341 29.913685,-19.0266 27.986528,-4.4084 20.500795,-16.0162 14.099315,-43.46046 5.832969,-64.21853 -8.58071,-25.28246 -36.76573,-22.33975 -57.040586,-30.52683 -10.91146,3.20996 -8.706503,7.12958 -10.352768,-4.52228 -14.0973072,-12.24202 -19.28729502,-35.0019 -41.772916,-40.55118 -10.468972,-3.87923 -20.049726,-24.17632 -19.937426,-5.60414 -16.477649,0.53512 -51.188886,-12.78028 -23.622238,-28.38611 2.621281,-21.16996 35.188627,-22.9946 24.630158,-49.03444 -7.761299,-18.31516 -0.244569,-33.63664 19.655494,-35.10197 17.3884497,-12.15037 33.249867,-1.61002 49.984024,6.04901 0.508967,25.52469 44.270359,15.48781 54.703003,-1.91394 5.177176,-21.54642 31.191801,-44.78628 53.428361,-38.09602 17.20496,13.06265 16.65065,38.89266 35.05504,50.38073 -7.55159,9.91571 -13.97302,21.19804 3.2562,27.0755 14.47396,10.27854 9.73127,27.90362 24.06491,40.32686 14.85039,22.0369 6.39905,48.42009 6.29376,72.85507 -0.8228,23.99708 -5.7185,47.65832 -12.13839,70.58838 -5.36272,27.38949 10.81111,50.83159 32.34313,65.56359 22.97785,22.2735 44.43115,46.0878 64.66137,70.8738 5.21213,20.0117 17.71688,68.7056 -15.68752,64.6642 -59.18514,-0.4953 -118.37908,0.1859 -177.56932,-0.06 z m -43.83942,-43.4125 c 15.046648,1.5331 50.26204,-2.7576 49.50328,-16.8949 -20.995293,0.1894 -41.880603,7.57 -62.703795,1.3281 -11.736104,-5.1376 -31.7419411,2.9674 -11.311206,11.3403 7.931965,2.7316 16.541281,1.6745 24.511721,4.2265 z m 33.00902,-5.8271 c -7.9535,-1.4024 6.128979,-1.5776 0,0 z m -9.05902,-16.1302 c 2.129028,-0.944 -2.129028,-0.944 0,0 z m 11.72727,-3.3959 c 18.15204,3.0974 19.78871,-21.5294 4.685774,-17.5139 2.880274,12.2087 -2.077698,15.633 -8.238474,3.8597 -15.666748,-12.178 -8.381419,16.7073 3.5527,13.6542 z m -17.34233,-2.5468 c 3.566055,-16.0217 -16.317458,-6.15 0,0 z M 3.7577397,1096.8354 c 5.7408651,-13.052 -6.2844824,4.4959 0,0 z m -7.42275,-2.1016 c 0.713926,-11.5972 0.7370676,-17.8363 12.6699776,-10.2751 27.1151017,-0.078 59.4723247,1.2026 80.3690827,-18.2341 3.50903,-24.0232 -25.322256,7.289 -38.197015,0.6315 -23.253269,-3.1902 -46.7352326,-6.7351 -67.150718,-18.1883 -10.777036,13.6061 6.6455192,33.29 12.3086727,46.066 z M 51.04947,1046.5626 c 14.835871,-8.2506 -5.596217,-14.2257 0,0 z m 67.46857,-12.7343 c 8.8967,-4.93 -7.91428,-8.045 0,0 z m -57.90941,-4.2618 c 4.117167,-6.5039 -5.333005,3.65 0,0 z m 24.30152,0.8659 c 17.25381,-3.872 -5.890366,-7.3055 0,0 z m -19.22856,-6.7916 c 6.141536,1.5801 1.110676,-5.2244 0,0 z m 25.40287,-1.2735 c 4.877825,-2.048 -3.18562,-0.3556 0,0 z m 17,-3.8203 c 7.96913,0.3689 -4.87788,-3.318 0,0 z m 11.99691,-13.3366 c 24.62078,-7.13634 -11.18093,-36.4626 2.40205,-42.94285 -4.20991,-10.42249 -18.98733,-14.03947 -8.09268,-0.19996 -10.63919,-10.31314 -24.308262,-2.01161 -8.9688,7.06172 10.50028,13.9094 -5.870992,25.43356 14.65943,36.08109 z m 5.17046,-13.63256 c -5.42364,-2.63949 5.45395,-5.72056 0,0 z m -9.16737,-4.44228 c -6.28523,-4.37209 6.28568,-6.35263 0,0 z m 20.16463,0.84896 c 0.0864,-8.28503 -10.00303,-2.91266 0,0 z m 4.35595,-6.79167 c 3.67802,-15.94573 -17.66611,-4.39154 0,0 z m -9.46388,-3.39583 c 4.65593,-8.67437 -9.94579,-3.16644 0,0 z m 3.41144,-10.1875 c 4.48807,-13.86391 -14.81409,-6.9694 0,0 z m -190.41587,-6.94795 c 11.894955,-7.48066 -5.662003,-9.32907 0,0 z m 195.39009,-4.35519 c 1.70165,-8.70284 -10.27699,0.0313 0,0 z m -11.71284,-1.43124 c 6.35279,-15.62076 -33.798856,-15.13314 -10.31197,-3.11527 3.29681,1.27245 9.82848,-2.67515 10.31197,3.11527 z m -33.6705,-0.84896 c 3.217327,-1.93749 -4.901662,-0.70051 0,0 z m 1.27965,-5.9427 c 9.05091,-17.24485 -24.051084,-16.52431 -4.644263,-3.07964 l 2.142352,1.5015 2.501911,1.57814 z m -120.80534,-9.33855 c 6.53348,-9.80667 -14.137077,-2.09152 0,0 z m 118.62166,-8.48958 c -0.24826,-4.80143 -9.002495,-1.66781 0,0 z m -123.19921,-5.13271 c 16.953469,-30.19841 -19.352941,8.01895 0,0 z m 68.54422,0.039 c 2.129014,-0.94403 -2.129014,-0.94403 0,0 z m 136,-5.94271 c 2.12901,-0.94403 -2.12901,-0.94403 0,0 z M 30.26114,915.79485 c 10.980342,-2.09607 -12.495972,-1.79171 0,0 z m -6.67668,-11.00821 c 2.129014,-0.94403 -2.129014,-0.94403 0,0 z m -3.75,-2.6139 c 4.568491,-6.41924 -8.508809,1.97832 0,0 z m -6.36418,-2.2578 c -2.812506,-7.12613 -8.3537876,1.96746 0,0 z m -1.13582,-6.24799 C 2.0286296,886.83844 21.266869,852.01727 1.8374079,871.77344 -8.007664,881.9761 -1.1160549,894.37271 12.33446,893.66695 z m 136.25,-2.46364 c 2.12901,-0.94403 -2.12901,-0.94403 0,0 z m -27.91667,-4.24479 c 5.48808,-2.07385 -7.31434,-2.00806 0,0 z m -99.59732,-0.84896 c 12.316289,-9.54622 -16.0727048,-3.27783 0,0 z m -32.8803,-4.03826 c 8.6837409,-14.67008 -11.310723,-5.59727 0,0 z m 4.7512797,-7.85252 c 11.5976991,-11.59375 -6.9410847,-15.17208 0,0 z M 37.58446,871.67727 c 2.129014,-0.94403 -2.129014,-0.94403 0,0 z m -52.6932,-7.53943 c 1.042587,-18.46072 -6.091055,6.28162 0,0 z m 17.5633797,-2.13967 c 3.7126461,-12.18319 29.8551363,-16.30683 24.3301023,-29.57 -9.597477,13.96219 -21.9518544,-14.71497 -31.1861411,5.85657 -5.6689249,8.01173 -3.6341903,20.95467 6.8560388,23.71343 z m 2.58282,-12.39382 c -4.83784621,-8.8753 10.6601653,-5.42319 0,0 z M 18.36584,862.26947 c 13.247067,-7.20782 -14.5374394,-4.03206 -3.176523,-0.47282 l 3.176523,0.47282 z m 11.21862,-7.73688 c 9.397054,-0.43322 -9.010238,-0.14108 0,0 z m -42.50591,-2.80275 c 15.9442288,-16.0438 -17.109728,-14.4049 0,0 z m 34.07501,-0.0394 c 5.972951,-4.27708 -4.205914,-2.97427 0,0 z m 74.9309,-20.76318 c 4.28716,-0.50739 -4.445224,-0.94546 0,0 z m -10.87244,-8.50259 c 14.84993,-5.2049 -11.91065,-0.82257 0,0 z m -35.12756,-5.50523 c 11.122715,-7.53727 -7.616478,0.14496 0,0 z m 38.1875,-3.16591 c 7.610184,-4.85443 -6.010948,-1.57695 0,0 z m -19.67724,-1.50336 c 19.048281,3.60827 18.834055,-25.65244 3.267464,-9.85861 5.594945,9.42944 -10.829919,7.29851 -3.267464,9.85861 z m 9.98974,-7.64062 c -2.129014,-0.94403 2.129014,-0.94403 0,0 z m -39.32874,5.09375 c 14.030292,-3.38594 -6.886564,-9.94295 0,0 z m 52.87649,-1.69792 c 9.60267,-1.3684 2.509619,-11.66074 0,0 z m -29.15474,-1.69792 c 7.331494,-2.60779 -2.889094,-4.28198 0,0 z M 8.0206197,997.65671 c -24.1706307,-0.20868 6.5375583,-3.82492 14.2623183,-1.39682 -4.629246,1.32174 -9.50975,1.045 -14.2623183,1.39682 z M 32.07087,995.47853 c -12.490337,-2.58763 12.076339,-1.26773 0,0 z M 2.5844597,974.40121 c -8.5898637,-1.45666 8.6192873,-1.7158 0,0 z"
         id="path9520"
         inkscape:connector-curvature="0" />
      <path
         style="fill:#50321a"
         d="m -76.64639,1190.8856 c -19.507127,8.6873 -23.97074,-16.4084 -6.677575,-23.0997 10.403572,-16.629 -11.723325,-31.3655 3.753711,-45.5104 -2.910315,-23.6629 0.705536,-49.3391 21.179272,-64.6582 15.108291,-11.9978 24.879259,-24.1486 35.565615,-37.4225 -13.588077,-11.9176 -11.342753,-35.41373 -23.749129,-49.34378 -4.754942,-10.64461 -3.464086,-27.56873 -18.319031,-22.95005 -11.317925,-9.92704 6.342646,-37.56427 17.215253,-19.85929 19.446129,-20.75388 18.426824,22.69755 13.0481,34.26725 -0.384782,22.96714 20.696009,40.37107 25.2520202,63.09687 11.1666719,20.9314 46.2556148,13.4899 63.4350148,2.1468 5.538703,-0.8518 -18.483217,34.7559 -2.611209,23.5835 0.244405,-19.8122 27.545586,-34.6983 31.949152,-15.836 19.225986,-8.6741 32.165506,-26.7637 52.559436,-33.2912 4.50544,-1.6159 -4.78183,-23.96122 12.50593,-19.35004 14.41504,4.66786 -23.34738,-23.43768 -1.19216,-20.72531 -9.1289,-16.37396 25.88872,-6.63796 5.58357,-18.93268 -13.61867,-1.52074 -18.15177,-2.64916 -29.70445,-10.52145 -18.88066,0.91572 -33.299678,-10.09236 -48.405723,-17.02373 -14.626604,3.51383 -0.521722,20.74943 -18.334022,15.99498 -11.972831,1.18595 -36.206271,-7.4892 -16.802529,-17.35477 -4.625251,-6.12172 -37.4140261,3.48144 -17.433938,-6.43223 16.759276,-0.0655 -19.8812852,-26.18789 2.062897,-14.81994 16.444535,-7.47983 5.773818,-19.48135 -8.149011,-18.63841 4.101915,-11.09767 37.321232,13.60886 27.74127,-2.44559 -19.807865,-7.57287 17.674157,-6.31171 -3.689385,-9.93734 -20.486629,-1.05965 21.039658,-17.92096 0.05566,-18.98381 -22.025243,5.66306 7.057614,-15.4912 9.937161,-23.41841 5.969132,-8.34256 16.066938,-3.33443 10.43158,5.86342 10.049959,-9.77271 46.18129,3.13276 20.560518,9.47376 -34.671059,-8.69129 18.243074,21.34711 18.441946,4.02529 12.021256,-2.02845 20.374186,-15.88979 3.976426,-20.42143 20.11747,-1.17805 -6.880354,-33.37849 -21.084593,-25.0765 -21.205926,7.22417 -47.284288,-0.32366 -64.293854,16.75404 -5.015895,6.79067 10.845254,4.36182 3.181774,14.72267 -5.097919,13.07153 -5.917749,-9.99287 -12.6675428,2.49373 -17.6228211,5.37147 -49.8848402,17.41852 -35.6135312,35.80306 -9.403398,-10.30084 -19.182392,-7.99413 -30.501516,-5.27973 -10.346734,-15.21152 9.503634,-18.47368 16.209665,-29.33828 6.62461,-10.30862 6.696514,-34.00372 -2.141522,-47.42925 7.875168,-20.24222 32.245387,13.81923 44.10535827,-5.22682 -1.53593421,-11.43846 12.46829273,-15.56647 1.61323623,-5.12322 2.7871129,18.26852 18.5224795,-19.7541 21.8504745,2.64692 10.463411,22.25479 42.45135,10.57957 55.902591,-2.94677 11.355178,-17.91168 27.18406,-36.94655 49.12424,-37.96339 17.67411,6.9456 32.68938,38.54825 28.21157,56.28197 -11.77045,20.51391 34.27652,16.52426 21.54918,39.02066 20.07209,14.15813 27.94423,34.97121 25.72595,59.27297 -1.9149,24.03474 -3.3509,45.44972 -6.46933,69.48376 -6.03019,20.80977 -8.33325,43.32991 -5.62517,64.78257 16.24536,25.3469 42.00979,43.0985 61.07784,66.3232 17.08612,18.6634 42.09719,37.5738 40.09611,65.3725 7.08899,19.947 -0.66656,45.5225 -25.91556,37.8887 -56.59701,-0.1163 -113.19397,0.1489 -169.79098,0.062 -11.247363,-11.8832 28.09303,-14.2597 15.69925,-31.7368 1.65852,-13.7898 28.06651,-39.582 5.37402,-44.6029 -18.1347,7.0607 -36.704079,20.716 -57.101638,14.5616 19.372929,-0.9258 61.024228,-6.5181 54.817228,-30.7559 -11.15068,0.9732 -38.627856,-12.5319 -32.147202,-14.0053 5.862547,-1.566 5.872052,-18.5306 16.341452,-10.9019 -2.104108,-1.9763 -6.896225,-15.7459 -0.02,-5.6674 -6.201423,-32.5332 -40.742023,8.945 -60.403481,-5.2964 -20.009554,0.3206 -38.3202029,-11.7615 -51.114058,-21.3009 -24.180634,11.8403 3.7135244,44.9134 -5.161352,66.2316 3.631022,28.4545 -33.008306,21.6273 -35.926655,49.0747 -6.533283,15.8913 4.02655,43.0991 -22.352648,34.0139 l -2.735672,0.3854 0,-3e-4 z m 307.23085,-0.849 c 2.12903,-0.944 -2.12903,-0.944 0,0 z m -15.89235,-2.5469 c 7.64404,-6.0828 -8.79206,-2.9585 0,0 z m 14.05902,-5.3767 c 2.77502,-2.5718 -3.00097,-0.4675 0,0 z m -6.57784,-7.6355 c 18.76087,-0.8451 29.97958,-12.6777 13.3292,-27.6058 -8.58565,-14.3846 -32.70373,-26.232 -29.49564,0.5247 0.87915,10.2587 4.83116,24.1771 16.16644,27.0811 z m 1.41117,-3.118 c -2.12886,-0.944 2.12886,-0.944 0,0 z m 20,-8.4896 c -2.12906,-0.944 2.12906,-0.944 0,0 z m -28.3455,-14.6175 c -5.81107,-0.9827 6.36123,-4.2096 0,0 z m 53.61694,2.6949 c 16.13975,-26.4289 -27.92707,-46.352 -49.46101,-42.9442 -16.22743,9.5735 21.9766,10.3438 24.32148,22.6913 7.69835,7.4766 14.961,16.0866 25.13953,20.2529 z m -17.27144,-27.1295 c -2.12906,-0.944 2.12906,-0.944 0,0 z m -323.65833,23.7497 c 1.713618,-6.7318 -4.538025,1.1199 0,0 z m -6.34167,-5.0726 c 2.128857,-0.944 -2.128857,-0.944 0,0 z m -0.059,-16.9791 c 9.188778,-2.4187 -7.46852,-4.122 0,0 z m 52.39005,-17.315 c 6.874336,-8.5538 -1.056031,-17.4498 0,0 z m 250.91895,-7.3586 c 1.2982,-7.8661 -12.41361,3.2747 0,0 z m -298.71862,-13.5296 c 4.975775,-1.5422 -3.963311,-2.6784 0,0 z m 5.05376,-5.0937 c 10.651088,-0.4392 0.129767,-5.5823 0,0 z m 109.91486,-26.3177 c 7.966885,0.3677 -4.879019,-3.3182 0,0 z m 17,-4.2448 0.827212,-1.6148 -0.827212,1.6148 z m -17.53054,-4.0321 c 13.333087,-2.1052 -4.738827,-4.7486 0,0 z m 40.03054,-2.7596 c 2.129053,-0.944 -2.129053,-0.944 0,0 z m -61,-0.8489 c 5.964634,-2.4253 -5.382258,-1.0829 0,0 z m 42.04966,-2.5469 c 16.143642,0.9044 3.281951,-16.0927 0,0 z m 32.05598,0 c 9.86132,-3.4589 39.82159,-8.2158 22.84092,-22.852 1.05337,14.2307 -20.718186,9.7252 -22.84092,22.852 z m -16.10564,-0.849 c 2.129053,-0.944 -2.129053,-0.944 0,0 z m 49.60478,-8.12 c 15.36361,-14.174 -11.4049,-13.999 0,0 z m -145.43811,-6.5952 c 2.774797,-2.5717 -3.000931,-0.4673 0,0 z m 176.09543,-33.49396 c 1.9691,-6.88586 -4.56847,1.29478 0,0 z m -12.09543,-1.31337 c 2.77482,-2.57171 -3.00089,-0.46712 0,0 z m -41.10765,-65.08681 c 6.37936,-1.22727 -6.534075,-1.362 0,0 z m 76.56854,-2.55005 c 21.07748,-14.98013 -30.05468,-10.41647 -5.78392,-1.71828 l 3.20787,1.24675 2.57605,0.47153 z m -19.04774,-1.69474 c 2.3767,-16.1003 -22.5735,-3.87604 0,0 z M 61.19139,919.21889 c 17.648145,-7.89355 -18.407567,-26.24001 -4.578079,-4.21966 l 2.096296,2.3339 2.481783,1.88576 z m 133.39307,-2.54687 c 2.12901,-0.94403 -2.12901,-0.94403 0,0 z M 38.08172,911.57827 c -0.393812,-16.56503 -13.753548,-5.63509 0,0 z m 45.56176,0 c 2.626235,-3.69081 -4.984414,-0.12408 0,0 z m 62.69098,-0.9494 c -5.46338,-16.05765 -23.0447,-1.03662 0,0 z m 14,-0.77149 c 0.40376,-14.37633 -28.01479,-12.46574 -6.79838,-4.65668 2.37915,1.39409 4.33695,3.3885 6.79838,4.65668 z m -117.19098,-2.5239 c 2.848309,-4.14267 -4.993415,-0.0846 0,0 z m 81.79098,-4.68343 c 1.20322,-5.25818 -5.35064,0.60583 0,0 z m 46.87222,-2.10824 c 5.22492,-13.87163 -20.86711,-22.34165 -29.61076,-10.83617 7.98858,6.40092 20.75005,5.2253 29.61076,10.83617 z m -41.6872,-5.09375 c 5.13329,-16.76271 -30.729229,-11.19233 -8.04017,-2.19299 l 4.06153,0.96179 3.97864,1.2312 z M 29.58446,894.5991 c 2.129014,-0.94403 -2.129014,-0.94403 0,0 z m 159.5,-1.27344 c 3.86888,-3.18515 -4.12211,0.32374 0,0 z m -58.44098,-5.51823 c 2.62623,-3.6908 -4.98441,-0.12406 0,0 z m 43.37404,-2.54687 c -2.66225,-17.27351 -18.35458,-24.37621 -22.53079,-5.92088 6.63932,3.78532 15.00978,4.996 22.53079,5.92088 z m -35.18306,-0.88295 c -2.6467,-9.04367 -10.48863,2.67599 0,0 z m -83.75,-27.13268 c 4.287161,-0.50737 -4.445216,-0.94544 0,0 z m 1,-4.24479 c 4.258012,-1.88805 -4.258012,-1.88805 0,0 z m 3,-2.54687 c 4.287165,-0.50737 -4.445228,-0.94544 0,0 z m 11.25,-1.81353 c 19.529232,-1.71173 -3.267582,-10.8476 -5.215712,-2.61439 l 1.868762,1.20163 3.34695,1.41276 z m -9.75,-7.52501 c 4.951918,-11.91142 -25.99012,0.73854 -4.161643,-1.949 1.661017,-0.32333 2.765924,1.37438 4.161643,1.949 z m 47.11803,0 c 0.74777,-2.82461 -3.16283,-0.009 0,0 z m 50.80334,-2.15973 c 11.14642,-7.99756 -14.80327,0.44124 0,0 z m -91.42137,-0.38715 c 4.287161,-0.50737 -4.445216,-0.94544 0,0 z m 97.25,-5.16077 c 6.22175,-6.94616 -11.77176,1.09794 0,0 z m -105.75,-0.78194 c 2.129014,-0.94403 -2.129014,-0.94403 0,0 z m 19.11803,-2.54687 c 8.536533,-3.22602 -14.735253,-0.16161 0,0 z m -9.61803,-2.54688 c 4.258012,-1.88805 -4.258012,-1.88805 0,0 z m -96.3325,-3.44722 c 8.396036,-16.59455 -11.184014,2.73782 0,0 z m 188.43666,-0.42775 c 1.77649,-12.29612 -13.0639,-1.37186 0,0 z M -3.2148103,811.68064 c 7.7747866,-12.56163 -9.0302207,2.87115 0,0 z m 166.5492703,2.19589 c 3.74297,-14.87767 -26.01832,-8.94937 -6.28138,-1.80699 l 3.09802,1.03486 3.18336,0.77213 z m -153.25,-6.29566 c 4.877922,-2.04811 -3.1856087,-0.3556 0,0 z m 6.07065,-0.0371 c 10.297674,-10.03003 -10.6267049,-4.36391 0,0 z m 95.42935,-7.17904 c 2.12901,-0.94403 -2.12901,-0.94403 0,0 z m 0.5,-56.88021 c 4.25803,-1.88806 -4.25803,-1.88806 0,0 z m -161.5,447.40108 c -2.129028,-0.944 2.129028,-0.944 0,0 z m 29,0 c -2.129028,-0.944 2.129028,-0.944 0,0 z m 7,0 c -2.129028,-0.944 2.129028,-0.944 0,0 z m 48,0 c -2.129028,-0.944 2.129028,-0.944 0,0 z m 5,0 c -2.129028,-0.944 2.129028,-0.944 0,0 z m 3,0 c -2.129028,-0.944 2.129028,-0.944 0,0 z m 10,0 c -2.129028,-0.944 2.129028,-0.944 0,0 z m 9,0 c -2.129028,-0.944 2.129028,-0.944 0,0 z m 5,-0.542 c -7.491982,2.0507 4.967742,-4.1777 0,0 z m 19,0.542 c -2.129028,-0.944 2.129028,-0.944 0,0 z m 3.16667,-0.283 -0.644407,-1.0912 0.644407,1.0912 z m 4,0 -0.644407,-1.0912 0.644407,1.0912 z m 19,-36.5052 -0.6444,-1.0912 0.6444,1.0912 z m -143.28168,-11.6025 c -5.262022,-12.7528 15.01911,-5.3012 0,0 z m 80.11501,-12.7343 c -8.589921,-1.4567 8.619449,-1.716 0,0 z m 6,0 c -2.129028,-0.944 2.129028,-0.944 0,0 z M 44.117,1126.3647 c -3.736716,-9.1271 -26.237273,-29.1325 -20.980535,-31.4209 9.431807,8.374 19.267744,18.307 20.980535,31.4209 z m -10.43987,-0.8489 c -13.463962,1.6376 -14.669217,-24.4647 -3.323155,-6.9938 0.894247,1.3431 8.661752,6.8179 3.323155,6.9938 z M 13.2147,1114.4793 c -11.2761874,-6.2517 0.167728,-14.2489 0,0 z m 41.42878,-0.8489 c -6.020172,-0.832 2.999248,-3.2557 0,0 z m -1.47646,-3.8637 c -9.781074,-0.025 -31.71043,-28.6208 -10.506141,-14.3662 4.664864,3.7282 8.910413,8.4654 10.506141,14.3662 z m -34.34259,-4.03 c -4.577528,3.6203 1.544934,-13.1565 0,0 z m 51.01903,-0.7364 c -9.764706,-5.0258 -37.660342,-18.5552 -9.577096,-18.4623 15.698835,-1.5187 0.418881,12.6734 9.577096,18.4623 z m -55.14097,-6.6512 c -3.162894,-0.01 0.747841,-2.8246 0,0 z m 69.9438,0 c -14.169445,0.068 -14.999049,-27.6867 -1.800047,-9.946 1.983389,2.8355 2.900392,6.5849 1.800047,9.946 z m 3.43817,-5.0937 c -4.287148,-0.5074 4.445223,-0.9455 0,0 z m 13.89214,-72.9615 c -13.488485,-15.0429 -5.10152,-54.4307 -9.725294,-60.54717 16.126404,10.77829 8.611344,35.45239 10.561174,46.23667 14.90808,-16.55131 9.07018,11.7237 -0.83588,14.3105 z m -31.11714,-2.6846 c 5.954318,-5.2946 15.402307,0.979 0,0 z m 34.32434,-16.6352 c -5.558987,-1.70823 3.97833,-5.21065 0,0 z m -72.09934,-6.19792 c -4.287161,-0.50737 4.445216,-0.94544 0,0 z m 91.84167,-18.6983 c -5.15752,2.37873 1.60818,-8.77154 0,0 z M 88.62287,953.17723 c -13.163481,-4.05547 3.567572,-12.21244 0,0 z m 16.09759,-0.84896 c -14.398154,-5.11467 4.21129,-10.49679 0,0 z m -25.386,-11.09776 c -9.64801,-6.87053 -10.664142,-14.34676 0,0 z m 35.82673,0.0613 c -12.22518,1.01237 -5.55651,-14.10367 0,0 z m -132.2375,-4.5615 c -21.9098,-1.0848 3.700073,-25.46527 6.237561,-4.16927 -0.418564,2.84381 -3.496355,4.73921 -6.237561,4.16927 z m -3.83923,-6.05048 c 3.868868,-3.18516 -4.122118,0.32375 0,0 z m 44,-2.54688 c -4.543404,-1.15536 7.027203,-4.55657 0,0 z m -42.5,-6.36718 c -13.612401,-7.10403 12.2076656,-6.21824 0,0 z m 43.88922,0 c 0.023,-8.97336 9.484261,2.74231 0,0 z m -97.37376,-3.39584 c -18.98252,-1.42347 6.979502,-29.63354 1.771544,-6.38238 1.615144,2.3295 3.671475,7.88951 -1.771544,6.38238 z m 51.82314,-3.96297 c -15.217914,-6.6435 12.9763569,-9.90369 0,0 z m 7.83948,-8.92139 c -11.379481,-8.92847 11.8836316,-8.82242 0,0 z m 25.90525,0.0796 c -12.02429455,-0.12062 -2.633398,-7.95363 0,0 z m -44.08333,-0.94413 c -9.691941,-0.22021 8.25816,-0.41713 0,0 z m 10.5,-0.68343 c -4.258012,-1.88805 4.258012,-1.88805 0,0 z m 24.1180297,-9.33854 c -11.4282427,-1.71333 3.2358677,-2.6952 0,0 z m -12.61803,-1.69792 c -2.1289977,-0.94402 2.1289983,-0.94402 0,0 z M -69.72456,891.9653 c -24.489019,2.86172 13.194018,-20.48699 0.233707,-3.28756 -5.850161,0.33437 2.47433,0.18326 -0.233707,3.28756 z m 59.8090197,-5.00685 c -2.9542367,-2.84519 5.3071285,-0.24104 0,0 z M -17.41554,881.8647 c -2.129014,-0.94403 2.129014,-0.94403 0,0 z m 9.1666697,-2.82986 -0.64441,-1.09128 0.64441,1.09128 z m 4.7619,-2.26389 c -6.3386754,-12.8601 15.7728693,-4.37899 0,0 z M -30.89522,874.22407 c -7.797839,-4.41701 0.208613,-11.05122 0,0 z m 65.04016,-1.69792 c -13.077918,-0.47298 -20.095849,-16.03244 -3.267666,-8.48663 2.099809,2.3269 2.873744,5.47264 3.267666,8.48663 z m -53.921,-3.04453 c -8.744209,1.06547 5.1452,-6.3495 0,0 z M 1.0254397,867.4324 c -6.9730733,-1.22725 8.5907036,-1.80131 0,0 z M -61.27253,865.66746 c -19.641772,-0.91684 -8.345369,-20.58574 1.873106,-5.08707 1.250875,1.91923 0.110901,4.43834 -1.873106,5.08707 z m 50.49647,-2.97751 c -8.225853,-5.09721 5.8514221,-9.12723 0,0 z m 31.86052,-7.14296 c -9.59961,2.99697 6.498841,-5.12032 0,0 z m 4.73697,-27.16667 c 1.898439,-13.69071 30.576042,-15.00036 8.911969,-3.21474 -2.989183,1.01452 -6.093993,1.74415 -8.911969,3.21474 z m 38.29104,-6.80439 c -8.409652,0.85918 6.199833,-3.6643 0,0 z m 26.47199,-4.37898 c -8.387014,-0.78955 10.80267,-2.27144 0,0 z m -59.5,-1.12653 c -4.33113,0.24055 6.68784,-4.826 0,0 z M -8.2324303,774.20617 c -3.0808687,1.41171 3.170703,-6.28607 0,0 z m -14.6388897,-1.8571 c -10.571238,-7.22515 10.632356,-3.49373 0,0 z m 7.6924,-1.00838 c -8.440205,-16.45235 30.10846,-14.43632 6.1375661,-4.89865 -2.2239251,1.41784 -3.8687861,3.54018 -6.1375661,4.89865 z"
         id="path9518"
         inkscape:connector-curvature="0" />
      <path
         style="fill:#27170e"
         d="m -68.99636,1190.0366 c -12.888825,-15.4596 21.078733,-43.3914 13.38017,-47.0302 -7.852912,8.2745 -19.774386,14.0859 -6.497595,1.1194 9.357454,-16.5804 -29.566792,-0.758 -9.044103,-17.5995 10.990444,-11.1646 -0.3447,-25.242 -1.374487,-30.4043 12.761289,-17.3645 4.395097,-32.688 25.06213,-45.3559 11.534206,-15.3367 39.0889727,-24.3006 27.138346,3.1789 1.124547,22.0465 -3.871648,41.9683 -13.264644,63.2489 -3.524354,24.2563 -35.037608,37.8584 -28.664168,64.0817 7.697049,11.8631 1.282774,9.1608 -6.735649,8.761 z m 0.58082,-63.6719 c 2.128857,-0.944 -2.128857,-0.944 0,0 z m 11,-56.0312 c 2.129028,-0.944 -2.129028,-0.944 0,0 z m 163.19098,120.5391 c -0.86734,-5.0286 8.45981,2.8104 0,0 z m 12.65426,0.013 c 8.37603,-12.5668 4.96403,-21.2246 -4.37179,-9.3765 12.46319,-21.7891 25.10102,-48.2084 15.42625,-73.4892 -3.36274,-17.7804 -31.873444,-25.0245 -20.02496,-46.6494 -0.45403,-13.7999 -32.874448,-14.2407 -8.59409,-19.1775 23.65666,0.089 41.13427,-14.0093 44.38317,-36.522 7.81754,7.0558 13.82988,12.9368 9.16418,-2.8634 -5.24306,-19.06994 5.97759,8.4664 8.22915,-9.30795 0.78937,-13.66288 -14.78616,-36.47336 6.68667,-38.68997 0.68934,-8.84941 -0.0212,-18.7693 10.24446,-13.93079 26.19843,-7.96829 7.85993,30.93628 6.4218,42.35797 -0.16112,25.90474 4.50089,51.76574 28.14493,66.30444 25.22654,26.916 53.62162,51.4538 75.02274,81.5857 8.90152,12.4897 1.17777,19.9243 -5.90988,4.5646 -14.47664,-20.3277 -40.51738,-29.0035 -64.28652,-31.2927 -30.70835,4.6335 24.71863,27.1927 9.63758,27.0166 -18.74667,-21.4047 -36.74518,7.4186 -37.40676,24.7648 -7.30311,17.5469 -18.98936,39.8801 -41.70731,34.6713 -8.46827,0 -16.93654,0 -25.40481,0 -0.3159,-4.2329 -4.2922,2.8502 -5.65481,0.034 z m 36.69096,-17.2334 c 5.88806,-9.0468 -2.83905,-12.1644 0,0 z m 3.63047,-14.4611 c 2.77473,-2.5717 -3.0009,-0.4673 0,0 z m 82.58333,-54.0835 c -2.92364,-16.0049 -48.75238,-6.7587 -18.33362,-2.9849 6.16345,0.5175 12.50333,0.6826 18.33362,2.9849 z m -120.38837,-33.0762 c 8.42548,-5.538 -8.5484,-5.2338 0,0 z m 43.12916,-47.5417 c 13.5471,-5.7601 -15.77108,-6.3031 0,0 z m 2.63677,-22.9889 c 9.52208,-8.17814 -11.60555,-1.71764 0,0 z m 6.9635,-6.72462 c 0.32825,-4.69464 -5.29193,-0.58693 0,0 z m -3.02304,-4.24479 c 4.54348,-14.60599 -16.52726,-5.13482 0,0 z m 21.93198,-44.99479 c 2.12901,-0.94403 -2.12901,-0.94403 0,0 z m 83.77568,245.336 c -13.0717,-7.4477 -31.31668,-33.9687 -27.28924,-41.3953 13.89811,7.8883 27.51514,29.9381 27.28924,41.3953 z m -9.77568,-0.836 c -2.12903,-0.944 2.12903,-0.944 0,0 z m 21,-3.3958 c -2.12903,-0.944 2.12903,-0.944 0,0 z m -1.29437,-3.3959 c -8.89664,-15.2919 10.68744,-17.5143 0,0 z M 58.20606,1063.9584 c -17.839914,-8.0933 40.560281,-15.7395 13.444681,-3.9362 -4.200943,2.0666 -8.716932,3.7413 -13.444681,3.9362 z m -19.3716,-2.1275 c -0.986308,-4.8627 5.093823,1.3081 0,0 z m -5.78777,-3.5187 c -14.794449,4.2702 -7.554503,-11.8207 0,0 z m -20.40336,-3.2858 c -23.397279,-7.7078 16.323851,-13.3822 0,0 z M 35.4243,1039.771 c 3.378726,-5.6969 10.874716,0.06 1.164662,-0.2453 l -1.164662,0.2453 z m 59.66016,-8.9141 c -4.288644,0.9836 3.179069,-3.3779 0,0 z m -114,-12.3099 c -5.352043,-0.1051 5.321378,-1.7786 0,0 z m 150.60699,-1.6979 c -4.23903,-3.3583 5.22206,-6.7614 0,0 z m -153.91754,-1.7021 c -5.062858,-11.1658 -0.0837,-23.64179 5.325283,-6.5868 0.274886,3.1702 -2.323563,6.0033 -5.325283,6.5868 z m 142.81055,-1.6937 c -2.12903,-0.944 2.12903,-0.944 0,0 z m -149.08334,-6.7917 c -12.837565,-10.73056 5.879337,-18.55437 0,0 z M 99.72891,988.83348 c -9.357026,-7.24386 1.82152,-23.0562 0.266789,-4.62805 l -0.266789,4.62805 z m -133.47778,-8.48959 c -2.084133,-12.77146 -26.469687,-48.57764 -1.5093,-45.38347 11.639841,13.3645 -9.507309,31.56028 1.5093,45.38347 z m 225.65928,-5.9239 c -4.71586,2.11845 0.283,-6.40314 0,0 z M -63.0033,946.85609 c -6.274852,-3.90649 1.179314,-8.65898 0,0 z m 222.83776,-8.98661 c -17.29575,-12.48573 -46.0476,-16.44303 -60.523732,-22.51425 16.936102,-15.43804 47.164562,-1.78199 61.453442,12.35184 2.59918,2.51298 5.87539,10.35402 -0.92971,10.16241 z m -4.75,-10.161 c 4.25803,-1.88806 -4.25803,-1.88806 0,0 z m -172.00559,8.02629 c -8.986157,2.35049 -0.817805,-11.50573 -4.258572,-9.97381 6.082561,-2.02324 14.9211463,9.63851 4.258572,9.97381 z m 203.67226,-0.66865 -0.64441,-1.09128 0.64441,1.09128 z m -142.72554,-4.816 c -16.202253,-15.59497 33.970879,-5.46013 4.638147,-0.99936 l -4.638147,0.99936 z M 16.60955,913.27618 c -0.06903,-11.23492 11.347803,3.02241 0,0 z m 159.99311,-1.16585 c -15.29759,2.55443 0.68804,-12.60285 0,0 z m -82.7682,-3.09807 c -9.38391,-20.3776 -50.507982,-0.564 -46.583722,-24.36764 17.752194,-11.80797 48.957483,1.59951 46.583722,24.36764 l 0,0 z m -45.56779,-4.74574 c -6.954676,1.58801 -1.206965,-5.78933 0,0 z m 152.97402,-2.53325 c -6.7469,1.50009 2.25186,-4.47213 0,0 z m -10.59721,-0.3425 c -6.02033,-0.83175 2.99922,-3.25571 0,0 z m -90.02288,-1.69792 c -17.106715,-4.26923 -0.31042,-18.82512 2.82902,-4.89242 l -0.90648,2.26097 -1.92254,2.63145 z M 77.33446,872.6133 c -16.016826,8.28697 -10.784484,-16.60763 0,0 z m 39.58333,-0.1227 c -8.59107,1.99556 -41.18579,-13.64888 -24.940205,-14.87133 6.688783,4.90439 17.307345,0.29565 6.878609,-6.43146 17.108186,-4.97381 31.946666,-5.31637 45.644796,-4.69841 -19.81575,-13.71849 -11.28606,-42.45654 -35.48554,-52.33811 -16.114497,-4.95311 -33.299109,-7.55633 -49.971495,-2.75487 -16.909757,5.79381 -34.701707,2.27541 -51.6585332,4.44815 -13.9011179,9.63741 -47.1451268,13.59158 -36.1758888,-12.36481 15.864578,8.52522 34.0396363,6.70189 44.090346,-10.26412 0.99545,22.21808 42.654795,14.31387 58.049705,5.50984 13.938587,-9.4054 18.686031,-32.22845 41.495876,-25.13418 17.11747,-6.61326 19.91201,11.49439 27.89831,19.20058 9.96583,-20.15494 18.22546,27.66824 0.15114,27.48096 -6.91857,20.84228 10.19976,38.4789 20.97769,50.43157 -14.9827,-0.60674 -28.90787,3.14704 -33.99779,19.58159 -3.01951,1.65628 -19.40253,-7.80302 -12.95702,2.2046 z m 11.70129,-94.75202 c 4.06391,-3.40964 -6.69542,0.49747 0,0 z m -13.86795,-20.95372 c 2.77483,-2.57173 -3.00088,-0.46706 0,0 z M 98.08446,871.67723 c -4.287161,-0.50739 4.44523,-0.94545 0,0 z m 98.25,-0.91192 c -13.55714,2.47877 -3.34819,-8.80022 0,0 z m -15.84501,-1.69242 c -11.02561,1.88856 -1.53444,-7.48267 0,0 z m 16.3981,-3.74412 c -28.28416,-3.89931 19.24784,-12.10811 0,0 z m -28.23937,-6.51708 c -6.10169,-0.93749 6.30368,-2.412 0,0 z m 26.07929,-3.35423 c -20.34434,-5.52636 10.55088,-10.53818 0,0 z m -237.04481,-7.55107 c -11.119766,-13.60016 28.397143,-15.48796 5.905147,-3.23219 -1.915566,1.17243 -3.930772,2.16518 -5.905147,3.23219 z m 232.1518,-0.86195 c -11.08696,2.69605 2.49243,-4.97434 0,0 z m -8.75,-0.83596 c -7.94197,-1.47862 7.06519,-1.44152 0,0 z m 4.49274,-4.425 c -14.80604,-0.1284 8.1651,-8.29511 0,0 z m -8.49274,-2.36667 c -13.57571,2.20747 8.08322,-4.1859 0,0 z m -198.83333,-5.09375 c -7.958752,-4.71364 7.047096,-8.41431 0,0 z m 12.6052597,-3.39583 c -6.6634837,-14.67694 18.9207633,-5.89928 0,0 z M 170.58446,824.13556 c -2.12901,-0.94403 2.12901,-0.94403 0,0 z m 2.52595,-5.94271 c -8.65373,-15.04077 17.22521,-1.79178 0,0 z M 21.08446,778.29181 c -5.858441,-4.92115 5.277013,-2.68149 0,0 z"
         id="path9516"
         inkscape:connector-curvature="0" />
    </g>
  </g>
</svg>
