<?xml version="1.0" encoding="UTF-8" standalone="no"?>
<svg
   xmlns:dc="http://purl.org/dc/elements/1.1/"
   xmlns:cc="http://creativecommons.org/ns#"
   xmlns:rdf="http://www.w3.org/1999/02/22-rdf-syntax-ns#"
   xmlns:svg="http://www.w3.org/2000/svg"
   xmlns="http://www.w3.org/2000/svg"
   xmlns:sodipodi="http://sodipodi.sourceforge.net/DTD/sodipodi-0.dtd"
   xmlns:inkscape="http://www.inkscape.org/namespaces/inkscape"
   sodipodi:docname="raider armor.svg"
   height="100%"
   width="100%"
   inkscape:version="0.48.4 r9939"
   version="1.1"
   id="svg8438"
   viewBox="0 0 512 512">
  <metadata
     id="metadata8464">
    <rdf:RDF>
      <cc:Work
         rdf:about="">
        <dc:format>image/svg+xml</dc:format>
        <dc:type
           rdf:resource="http://purl.org/dc/dcmitype/StillImage" />
        <dc:title></dc:title>
      </cc:Work>
    </rdf:RDF>
  </metadata>
  <defs
     id="defs8462">
    <linearGradient
       id="linearGradient4077">
      <stop
         id="stop4079"
         offset="0"
         style="stop-color:#aa4400;stop-opacity:1;" />
      <stop
         style="stop-color:#ff9f00;stop-opacity:1;"
         offset="0.22752622"
         id="stop4081" />
      <stop
         style="stop-color:#803300;stop-opacity:1;"
         offset="0.4948855"
         id="stop4083" />
      <stop
         id="stop4085"
         offset="1"
         style="stop-color:#562200;stop-opacity:1;" />
    </linearGradient>
    <linearGradient
       id="linearGradient4057">
      <stop
         style="stop-color:#aa4400;stop-opacity:1;"
         offset="0"
         id="stop4059" />
      <stop
         id="stop4067"
         offset="0.22752622"
         style="stop-color:#ecd1a4;stop-opacity:1;" />
      <stop
         id="stop4065"
         offset="0.50136983"
         style="stop-color:#803300;stop-opacity:1;" />
      <stop
         style="stop-color:#562200;stop-opacity:1;"
         offset="1"
         id="stop4061" />
    </linearGradient>
    <linearGradient
       id="linearGradient3890">
      <stop
         style="stop-color:#701b1b;stop-opacity:1;"
         offset="0"
         id="stop3892" />
      <stop
         style="stop-color:#e31600;stop-opacity:1;"
         offset="1"
         id="stop3894" />
    </linearGradient>
    <linearGradient
       id="linearGradient3882">
      <stop
         style="stop-color:#600b0b;stop-opacity:1;"
         offset="0"
         id="stop3884" />
      <stop
         style="stop-color:#d11414;stop-opacity:1;"
         offset="1"
         id="stop3886" />
    </linearGradient>
    <linearGradient
       id="linearGradient3872">
      <stop
         style="stop-color:#800600;stop-opacity:1;"
         offset="0"
         id="stop3874" />
      <stop
         style="stop-color:#ff0004;stop-opacity:0;"
         offset="1"
         id="stop3876" />
    </linearGradient>
    <filter
       id="filter4074"
       inkscape:label="Black Light"
       inkscape:menu="Color"
       inkscape:menu-tooltip="Light areas turn to black"
       x="0"
       width="1"
       y="0"
       height="1"
       color-interpolation-filters="sRGB">
      <feColorMatrix
         id="feColorMatrix4076"
         type="luminanceToAlpha"
         result="result2" />
      <feComposite
         in2="SourceGraphic"
         id="feComposite4078"
         operator="arithmetic"
         in="result2"
         k3="2"
         result="result4" />
      <feBlend
         in2="result2"
         id="feBlend4080"
         in="result4"
         mode="multiply"
         result="result3" />
      <feComposite
         in2="SourceGraphic"
         id="feComposite4082"
         operator="in"
         in="result3" />
    </filter>
  </defs>
  <sodipodi:namedview
     pagecolor="#000000"
     bordercolor="#666666"
     borderopacity="1"
     objecttolerance="10"
     gridtolerance="10"
     guidetolerance="10"
     inkscape:pageopacity="0"
     inkscape:pageshadow="2"
     inkscape:window-width="1190"
     inkscape:window-height="1126"
     id="namedview8460"
     showgrid="false"
     inkscape:zoom="1"
     inkscape:cx="286.23437"
     inkscape:cy="349.15199"
     inkscape:window-x="160"
     inkscape:window-y="130"
     inkscape:window-maximized="0"
     inkscape:current-layer="svg8438"
     showguides="true"
     inkscape:guide-bbox="true" />
  <path
     style="fill:#000000"
     id="path3978"
     d="M -13.466093,0.1885736 H 514.89024 V 516.42957 H -13.466093 z"
     inkscape:connector-curvature="0" />
  <path
     transform="matrix(0.92592215,0,0,1,-12.92858,0)"
     sodipodi:end="6.1122693"
     sodipodi:start="6.11213"
     d="m 76.035958,-54.360671 a 10.606602,11.755651 0 0 1 2.51e-4,0.0016 l -10.452057,1.999461 z"
     sodipodi:ry="11.755651"
     sodipodi:rx="10.606602"
     sodipodi:cy="-52.359596"
     sodipodi:cx="65.584152"
     id="path4123"
     style="fill:#333333;fill-opacity:1;fill-rule:nonzero;stroke:none"
     sodipodi:type="arc" />
  <path
     sodipodi:type="arc"
     style="opacity:0.98999999;fill:#ff0000;fill-opacity:0.74970506;fill-rule:nonzero;stroke:none"
     id="path5005"
     sodipodi:cx="640"
     sodipodi:cy="124.5"
     sodipodi:rx="105"
     sodipodi:ry="118.5"
     d="m 743.4676,104.32865 a 105,118.5 0 0 1 0.002,0.0163 L 640,124.5 z"
     sodipodi:start="6.11213"
     sodipodi:end="6.1122693" />
  <path
     sodipodi:type="arc"
     style="opacity:0.98999999;fill:#ffffff;fill-opacity:1;fill-rule:nonzero;stroke:none"
     id="path6035"
     sodipodi:cx="272.5"
     sodipodi:cy="196.5"
     sodipodi:rx="119.5"
     sodipodi:ry="106.5"
     d="m 390.25598,178.37132 a 119.5,106.5 0 1 1 -0.0146,-0.0753 L 272.5,196.5 z"
     sodipodi:start="6.11213"
     sodipodi:end="12.394598"
     transform="matrix(0.6216584,0.30038369,-0.11035219,0.22837913,59.782295,10.268962)" />
  <path
     transform="matrix(0.52903647,-0.44363267,0.16297768,0.19435254,113.31246,238.69964)"
     sodipodi:end="12.394598"
     sodipodi:start="6.11213"
     d="m 390.25598,178.37132 a 119.5,106.5 0 1 1 -0.0146,-0.0753 L 272.5,196.5 z"
     sodipodi:ry="106.5"
     sodipodi:rx="119.5"
     sodipodi:cy="196.5"
     sodipodi:cx="272.5"
     id="path6039"
     style="opacity:0.98999999;fill:#ffffff;fill-opacity:1;fill-rule:nonzero;stroke:none"
     sodipodi:type="arc" />
  <g
     id="g6000">
    <path
       style="fill:#cbcbac"
       d="M 226.50387,475.17963 C 201.07954,467.30889 179.32095,450.63821 153.5346,443.40611 137.03527,437.26213 119.10821,436.30418 102.70121,429.98826 90.233821,416.26585 80.940451,397.93735 88.740347,379.43174 99.54901,342.53409 97.247207,302.62742 85.373699,266.28496 74.185363,250.14184 79.253635,232.342 97.21745,224.80877 c 15.05417,-21.11264 20.81594,-47.27218 28.40318,-71.70908 7.84753,-24.8781 -2.89764,-50.66331 0.95048,-75.646414 8.0279,-16.616498 32.71442,-25.585182 48.37336,-14.605621 4.82135,18.687536 21.55328,30.853596 37.91505,40.146845 12.25318,12.70608 40.27351,3.94497 43.91673,22.99274 5.00464,-2.074 9.09925,-13.992 20.65405,-11.03963 25.97138,-3.83872 53.42694,-14.20631 69.69859,-35.766368 1.53338,-25.003066 34.69756,-23.817955 46.68902,-7.194391 15.64259,15.092109 -3.07364,35.598039 -8.41497,51.353529 -4.20406,21.16927 -4.84936,43.27319 -3.72541,64.76083 12.12639,13.76009 13.87657,33.99299 26.8838,47.99182 9.54216,15.20448 34.87722,14.29745 29.06844,37.6361 0.12991,8.95542 2.63179,18.83333 1.28362,27.24912 -12.67437,10.26965 -21.1026,25.34877 -20.1249,42.10205 -0.46587,24.065 5.21822,48.59629 0.31411,72.372 -8.41091,18.62583 -31.65223,16.58248 -47.0494,25.88216 -29.33153,11.72483 -57.22612,28.06332 -88.22999,34.94428 -18.96676,2.23254 -38.51235,2.57859 -57.31934,-1.09911 z m 16.18686,-278.58846 c 3.41686,-19.30309 -14.51762,-4.77159 -2.21716,2.03354 l 2.21716,-2.03354 0,0 z m -10.70735,-61.39406 c -7.6291,-7.02306 -32.92849,-13.32857 -46.60238,-20.85634 -17.83398,-15.151896 -16.10491,31.58866 4.75839,22.04517 14.40817,3.85637 27.84834,0.93378 41.84399,-1.18883 z m 73.51918,-2.3462 c 9.9064,-4.45443 26.03431,-4.2476 30.50603,-15.5754 -13.78363,7.32315 -39.0854,9.98899 -46.6546,18.28632 5.50689,0.98975 11.03286,-0.89143 16.14857,-2.71092 z M 146.17722,105.46524 c -7.15904,-14.765182 -9.83479,17.1757 0,0 z"
       id="path6022"
       inkscape:connector-curvature="0" />
    <path
       style="fill:#a7a898"
       d="m 224.97404,472.96851 c -27.91949,-10.10473 -52.52072,-28.3706 -81.85793,-35.01069 -16.19093,-5.95502 -39.03229,-1.82827 -47.019888,-21.01095 -14.838692,-15.92446 -3.500413,-37.53462 -1.76474,-55.96378 8.999908,-24.33632 2.245624,-50.66514 -1.446504,-75.43783 0.790874,-18.26014 -24.033196,-39.56273 -1.954898,-52.7162 22.52068,-18.71559 27.39827,-49.46208 36.97752,-75.59 6.73365,-13.30684 3.09179,-30.59944 5.42665,-42.81125 11.25952,-2.32499 17.96188,17.56688 18.98672,-1.59534 2.67671,-20.362105 -9.90039,-17.461949 -21.44034,-9.79598 -6.02313,-16.12705 2.28946,-42.0213 23.00188,-40.41267 6.9819,1.632335 18.36451,-3.105062 19.76403,6.831322 6.88764,10.454822 5.04463,24.295207 15.00655,32.500198 -5.60286,3.5946 -18.27901,-14.960602 -15.25535,1.46759 -9.75557,6.76814 -12.99109,-28.588673 -15.13592,-5.704351 -0.29187,27.052461 5.35113,54.538691 -1.98179,81.122631 9.44082,3.50645 6.83909,-42.79972 31.05178,-31.82702 13.46044,-0.24346 35.26045,5.49876 40.29893,-8.39111 12.6632,0.91636 23.15226,-3.69743 31.56675,9.13605 4.66644,-7.58818 5.52741,-24.41451 18.61577,-10.58028 19.44831,8.60584 40.80599,1.03982 58.08992,-9.38858 14.88969,-8.25443 10.37873,24.88963 14.25271,34.16702 3.03787,19.02988 4.88891,43.32207 19.21465,56.43268 5.15358,-19.83081 -12.3485,-38.87602 -8.62599,-56.79366 -0.62444,-17.72648 0.16018,-34.75482 9.97243,-49.92749 2.90668,-13.083062 -5.4595,-8.71336 -10.10119,-5.07257 -1.01491,-12.979453 -34.01425,-1.45671 -13.19792,-14.951626 0.26724,-20.291513 20.57777,-39.577914 38.8018,-22.203309 15.92218,10.290051 10.38651,33.479605 -2.96486,43.866245 -7.22129,16.67741 -9.63902,35.23316 -8.21485,53.58279 -1.15451,20.08785 7.72587,38.06957 19.03406,53.58515 8.33296,15.94405 22.57043,28.04784 38.36773,35.9214 5.27363,21.22214 10.77317,45.90292 -10.81914,60.40801 -8.91669,28.4344 -0.71811,58.75315 -2.75196,87.98285 -0.21701,25.6425 -31.68611,25.78526 -48.80608,35.32296 -26.39309,10.71821 -51.98492,23.93852 -78.26033,34.59245 -22.25127,-0.018 -44.88072,2.7549 -66.8302,-1.73466 z m 28.08723,-168.60796 c -17.92514,-14.60549 -2.74676,9.81578 0,0 z m -11.97892,-91.10746 c 7.27361,-9.09504 7.01476,-43.69471 -6.72047,-35.58371 -1.20316,7.24254 -8.84349,46.49319 6.72047,35.58371 z m -92.4621,-75.24774 c -1.68547,-24.22603 -23.62062,12.56988 -1.93703,9.17516 2.04934,-2.65191 1.80858,-6.06685 1.93703,-9.17516 z m 93.02745,-12.53727 c -8.15008,-4.17496 -11.7338,6.17819 -16.66216,-6.55731 -17.81822,-14.13414 48.47091,10.12996 16.66216,6.55731 z m 41.33964,1.83594 c 17.03514,-10.04218 6.46148,7.57213 0,0 z m -14.65823,-3.91945 c 10.81199,-12.58199 7.00307,6.09951 0,0 z"
       id="path6020"
       inkscape:connector-curvature="0" />
    <path
       style="fill:#95976b"
       d="m 240.04179,473.84361 c -27.55582,-3.26607 -50.13358,-21.38902 -76.0431,-30.04115 -17.49458,-8.5389 -37.37712,-8.86795 -55.37438,-15.49314 -18.03884,-12.41262 -23.86054,-34.69583 -14.017954,-54.3083 6.587594,-40.5712 5.465444,-83.62783 -10.375089,-122.03216 -3.500921,-18.53682 23.770703,-23.36965 27.640493,-41.22403 4.52685,-14.73352 7.64076,-35.26955 26.54359,-34.08207 -15.80885,-0.53374 -13.02671,-27.17095 -1.54638,-30.32048 20.92752,18.84459 9.12966,-30.71343 19.70192,-21.77699 2.2372,21.59522 -1.18591,43.53994 -2.53718,64.85864 17.55797,-7.72219 5.87221,-41.57832 30.38509,-38.5709 17.2375,-1.22321 35.85567,2.31455 52.19138,0.0484 -25.88325,-11.55078 20.0602,-15.68405 18.43164,1.17299 13.02081,0.022 25.61899,-18.43616 41.38828,-7.57555 13.91033,3.86956 29.84852,-3.64656 39.69266,-6.79377 7.52107,16.03364 14.39916,32.409 16.42239,50.95519 4.62126,10.85353 7.91008,39.07527 21.70378,35.51689 3.72544,-7.53033 -11.19141,-29.6155 6.65923,-20.63678 5.45193,9.62216 10.01651,21.28949 14.22095,27.72344 11.67123,10.60886 25.93726,21.035 36.91029,31.27151 4.58069,19.93549 5.99606,41.78448 -13.10442,54.2963 -8.96559,29.68288 1.5445,60.76875 -1.67691,90.95508 -4.30297,23.39992 -32.21721,21.72771 -48.66308,31.71238 -27.2635,11.1027 -53.5079,25.15616 -81.94309,33.08919 -15.45839,1.73307 -31.08924,2.96192 -46.61011,1.25533 z m 145.71375,-62.89217 c 15.14221,-15.00398 -32.16204,-12.20354 -9.77215,2.24203 3.35563,-0.109 6.699,-0.89622 9.77215,-2.24203 z m -57.42817,-53.05549 c -9.74966,-6.33601 -18.35425,-1.20444 -2.88081,2.46317 1.7446,2.41338 9.6976,0.15646 2.88081,-2.46317 z m -69.77041,-48.18036 c -0.92876,-13.14886 -27.88436,-13.94081 -9.80182,-1.64834 1.94919,1.31433 8.8443,6.05589 9.80182,1.64834 z m 48.86076,-10.17253 c -7.28097,-6.42813 -27.37059,-11.09732 -9.77215,-0.80758 1.57824,2.75129 7.41552,2.17951 9.77215,0.80758 z m -63.28893,-82.60287 c 5.55859,-13.38052 7.52155,-47.50495 -9.40788,-47.77469 -4.14083,14.77256 -14.34114,41.19193 0.26587,51.28318 3.37887,0.37411 6.84447,-1.02959 9.14201,-3.50849 z m 121.31108,-39.71238 c -13.12905,-12.1263 9.82782,-20.93563 6.85549,-3.84327 -2.05452,8.26667 -1.44741,17.07814 -6.85549,3.84327 z m -1.4162,-38.55319 c -6.01078,-21.02064 24.98905,3.67737 2.03816,2.64308 l -2.03816,-2.64308 z M 134.21844,125.56295 c -1.94713,-23.9827 19.70494,13.4444 0,0 z m 240.6368,-14.69687 c -1.72449,-20.188805 18.56132,6.20314 0,0 z m 5.25969,-10.30597 c -8.39672,-4.863893 -10.91627,-13.004788 -20.86639,-6.505556 -18.24138,-14.44605 12.04479,-41.176838 25.2688,-22.292909 15.58164,12.151001 1.25097,9.616938 -6.01105,13.018046 11.87268,3.075218 22.66456,19.750169 1.60864,15.780419 z M 131.51899,92.831239 c 1.13778,-23.417618 12.31798,11.592871 0.7354,6.49675 l -0.55506,-2.589509 -0.18034,-3.907241 0,0 z m 16.4905,0.362575 c -12.64012,-6.60671 -8.32371,-40.684541 7.70187,-22.597631 18.16496,-12.872506 21.79682,36.988207 5.11236,14.846859 -8.39254,-5.764071 -1.48551,13.779014 -12.81423,7.750772 z"
       id="path6018"
       inkscape:connector-curvature="0" />
    <path
       style="fill:#7d8166"
       d="m 223.62806,470.82248 c -28.16962,-11.93544 -54.36229,-29.25589 -84.80366,-35.47004 -18.11148,-3.25048 -38.905818,-7.22993 -45.46149,-27.36125 -5.508419,-19.0961 2.410429,-39.95538 6.9183,-58.84316 1.97041,-28.93506 -2.617953,-58.41798 -10.852496,-86.14785 -17.947173,-20.12204 10.613936,-28.48717 17.774706,-44.70084 11.06374,-10.29713 8.57644,-26.77631 16.73889,-39.02388 8.4003,1.30033 19.75227,0.12121 26.7449,5.66221 3.98809,19.07103 19.45361,-17.19081 33.94919,-9.17562 20.03207,-6.54977 45.68163,-8.9259 58.92746,-26.44703 15.16373,12.10799 34.18864,1.71305 51.82464,10.80802 8.52443,2.57333 16.97844,5.37195 25.46593,8.06329 4.54878,9.90385 8.38289,20.19197 13.93619,29.58898 3.23214,-7.78967 7.1867,-44.72671 13.24289,-19.04397 5.96223,15.72228 11.33542,42.76928 26.38574,47.9416 4.09874,-8.38959 -11.40542,-33.87151 7.55083,-22.12932 0.53597,11.36932 10.96219,17.09438 11.18355,27.47693 13.15892,8.5096 24.2508,20.67396 37.60292,28.40261 6.20373,20.37094 8.09182,42.65286 -11.25427,55.50585 -7.08083,21.16357 -3.97047,44.36513 -2.87967,66.31482 5.72011,20.00089 -2.64878,45.276 -25.76943,47.86214 -33.78922,12.928 -66.44283,29.24686 -99.88799,42.66861 -22.41556,-0.16407 -45.2719,2.73969 -67.33713,-1.9521 z m 158.59595,-58.68111 c 22.10733,-6.21893 -18.90794,-24.22547 -12.3862,-2.53469 -0.0596,8.82938 7.84505,4.05667 12.3862,2.53469 z m -52.81895,-53.99332 c -8.17022,-6.90556 -26.51863,-4.20709 -7.73834,1.32294 2.95139,1.5435 18.15734,2.79178 7.73834,-1.32294 z m -51.30379,-18.59277 c -12.18974,-9.06048 -10.42916,7.82074 0,0 z m -19.54431,-29.83969 c 2.23651,-9.77615 -26.97493,-16.10329 -16.39366,-7.54977 3.68533,3.04598 12.61262,12.95419 16.39366,7.54977 z m 19.54431,-6.85158 c -9.05977,-13.64072 -8.54393,8.02662 0,0 z m 60.46519,0.54503 c -13.72475,-1.72881 -8.22158,2.88273 0.98532,0.38459 l -0.98532,-0.38459 0,0 z m -31.14874,-2.62475 c -4.46145,-8.7331 -33.39284,-14.55461 -11.90876,-3.85093 3.20266,1.20762 9.3568,9.44772 11.90876,3.85093 z m -67.63377,-80.19786 c 15.74575,-10.5079 13.37342,-56.46354 -7.07036,-53.23013 -6.13711,16.62917 -9.15691,38.72902 -2.35718,54.86363 3.22736,0.8502 6.40703,-0.86448 9.42754,-1.6335 z m 123.76272,-47.90091 c -6.89839,-17.04597 21.13941,-1.13988 4.19211,3.66117 l -1.43223,-0.6246 -2.75988,-3.03657 0,0 z m -229.26699,-4.01087 c -3.37394,-4.68367 10.57979,-7.31791 -1.76145,-11.99401 -4.39903,-13.70236 16.70436,-3.71658 20.82478,-2.88604 -2.86953,6.66288 -9.74238,20.99126 -19.06333,14.88005 z M 365.2363,138.85511 c -5.17534,-19.95979 21.89716,4.26817 0,0 z M 133.96203,122.97236 c 8.75789,-8.72985 9.58372,8.47833 0,0 z M 383.64051,98.715075 c -9.73686,-12.542734 17.69853,-1.50544 2.88586,2.030505 l -2.88586,-2.030505 0,0 z M 369.6249,82.363065 c -0.76229,-11.765211 13.72499,-21.453919 8.97547,-4.873115 -2.57187,0.09146 -10.07009,16.291482 -8.97547,4.873115 z M 146.57406,78.480108 c -8.77877,-19.765671 9.39608,-6.12101 3.29966,4.483366 l -0.96559,-0.872016 -2.33407,-3.61135 z"
       id="path6016"
       inkscape:connector-curvature="0" />
    <path
       style="fill:#6f726a"
       d="m 226.78633,470.91156 c -22.2798,-7.04283 -41.16249,-21.91552 -63.61706,-28.82107 -17.9472,-7.98482 -38.1204,-8.8422 -56.01872,-16.6318 -18.908967,-14.3638 -18.168992,-36.99464 -10.364501,-57.22408 9.405401,-32.78201 2.750805,-67.07465 -4.257017,-99.57969 -11.587266,-15.22889 -6.6043,-30.12591 8.785058,-39.50655 14.61114,-13.26982 14.97583,-30.83644 23.52836,-47.14545 14.55575,-7.16464 20.62964,10.80351 29.48038,14.68268 12.22796,-11.4972 30.5172,-9.409 45.26282,-16.36866 12.76028,-0.73883 28.41251,-22.59542 25.79801,2.33456 2.01243,13.23969 -6.92907,54.11535 17.02322,38.21384 14.09373,-16.59539 7.42432,-39.78109 1.06752,-58.22285 -2.23704,-19.30154 20.6017,3.5162 31.49031,-4.19473 17.44731,1.08932 -10.3654,17.15169 8.71021,18.57466 14.71785,11.1926 35.07411,12.0391 48.0167,25.92419 15.62472,18.17243 7.15442,-37.19604 19.5676,-8.97397 6.55694,9.48871 12.27285,41.25653 25.18375,34.04136 4.93896,-8.46497 -14.22662,-33.88293 5.31973,-21.93911 -2.80057,11.40977 10.50066,15.3637 10.31565,26.34276 15.11749,7.14841 22.81216,22.21811 38.24993,29.27969 1.28226,17.22284 12.8787,38.06223 -8.05595,50.04564 -15.0788,21.78222 -6.49026,49.85064 -6.19678,74.37762 4.07945,16.51204 -0.45131,37.72166 -19.81573,41.179 -37.70069,12.61742 -72.02158,34.46603 -110.55,44.54273 -19.49264,2.42653 -39.56979,2.71135 -58.92349,-0.93077 z m -6.67362,-44.08188 c -10.97612,-1.65689 -19.53571,1.89458 -2.44011,0.84249 -1.21855,0.41594 6.49088,-0.436 2.44011,-0.84249 z M 148.62025,415.3593 c -9.3236,-4.21243 -14.18662,-0.1935 -1.93792,1.37948 0.33193,2.14586 7.35089,-0.46641 1.93792,-1.37948 z m 235.65674,-2.13332 c 25.10333,-10.51274 -22.64677,-28.6238 -17.24785,-3.36858 1.98263,8.2608 11.78077,5.14574 17.24785,3.36858 z M 339.17722,362.1906 c -4.46756,-6.79687 -43.63738,-13.91779 -20.76583,-4.08281 6.13704,1.71534 14.95995,7.65491 20.76583,4.08281 z m 6.84656,-15.12176 c -7.66649,-6.57352 -26.3078,-2.26746 -7.02178,0.83599 1.86524,-0.25363 6.43058,1.17963 7.02178,-0.83599 z m -66.77675,-5.23907 c -4.16828,-11.55837 -18.25995,-3.27702 -3.43385,2.05716 l 1.83358,-0.60429 1.60027,-1.45287 0,0 z m 4.96183,-19.60113 c -3.44021,-7.57352 -17.58518,5.64622 -2.50164,1.52962 l 2.50164,-1.52962 z M 231.68354,311.3995 c -8.75788,-8.72986 -9.58374,8.47832 0,0 z m 26.87342,-1.78831 c 1.23619,-13.39658 -33.885,-17.91927 -14.29177,-4.13017 3.04319,2.25818 13.52264,13.545 14.29177,4.13017 z m 19.54431,-6.87501 c -10.24078,-17.79934 -7.6465,16.63384 0,0 z m 75.73417,0 c -9.51545,-2.25728 -26.14853,-4.20844 -32.3425,0.91595 9.43424,1.20401 26.00455,2.92461 32.3425,-0.91595 z m -46.41772,-4.33467 c -4.86958,-5.70929 -41.48202,-18.48519 -21.76759,-5.79185 3.09682,6.01541 37.47751,15.73551 21.76759,5.79185 l 0,0 z m -47.46165,-15.1339 c 13.55193,2.8166 11.01011,-3.77768 -1.02457,-3.63389 -6.84203,-4.62401 -32.94217,4.20698 -13.0229,3.69217 4.55853,-1.20354 9.42268,-0.53945 14.04747,-0.0583 z M 364.42804,171.55794 c -1.50423,-15.7995 16.81395,5.86597 1.73547,2.39724 l -1.73547,-2.39724 0,0 z M 132.60895,155.27109 c -1.3048,-15.06982 22.16791,7.22006 2.56328,1.6375 l -2.56328,-1.6375 0,0 z m 232.32451,-19.1541 c 3.58095,-12.12764 14.62218,8.69996 0,-3e-5 l 0,3e-5 z"
       id="path6014"
       inkscape:connector-curvature="0" />
    <path
       style="fill:#6b6c4f"
       d="m 234.19329,471.36606 c -28.9248,-5.98286 -52.42502,-26.06119 -80.91193,-33.68032 -20.41795,-6.88868 -48.00106,-4.58754 -57.721888,-28.35566 -11.776529,-20.74597 9.208138,-44.8683 5.107498,-67.96792 1.41869,-30.06557 -1.934709,-60.76496 -13.781288,-88.64786 -1.82288,-17.00373 22.225298,-25.02059 27.512258,-40.94294 1.52218,-14.00834 11.20692,-43.98321 29.33624,-24.84511 5.27981,6.25712 6.40917,17.80995 14.09383,6.91493 17.76505,-9.30509 39.49717,-10.05624 57.76001,-19.63233 14.97589,-15.4162 7.73154,20.58219 8.91816,29.6442 -6.30439,15.77706 12.78505,37.52585 22.50032,16.09966 7.39175,-17.62049 7.36198,-37.33912 0.33234,-55.05749 -9.49369,-21.51537 16.53605,0.28309 27.74847,-6.47458 17.15996,1.3225 -10.52105,17.28762 8.74698,18.76101 18.6185,9.5969 37.36709,17.10607 50.67386,33.60629 18.13577,11.8778 2.08116,-40.81179 16.10715,-16.66896 6.52015,16.08988 12.64987,34.06627 27.65052,44.31368 -1.89914,-8.30017 2.74214,-29.20752 8.92215,-12.03342 4.93894,9.95533 20.64873,14.66177 24.75432,27.73048 10.37353,0.3194 26.4004,20.64283 6.84093,17.15052 -15.75322,7.55728 25.10018,4.05938 15.67248,21.05413 -0.75753,11.97121 -15.06038,15.97338 -20.63557,24.38472 -0.55672,27.88788 -1.52398,55.91159 2.4913,83.5743 0.50115,25.96909 -28.87948,27.47849 -46.35428,36.36839 -36.01757,14.0514 -70.58015,36.97181 -110.40383,37.12971 -8.50199,-0.13965 -16.95632,-1.20067 -25.36003,-2.42543 z M 331.8481,430.5201 c -2.42289,-3.28716 -41.01141,-3.08372 -36.1818,1.4618 12.00767,0.81955 24.33515,0.84508 36.1818,-1.4618 z m -111.73539,-3.69042 c -10.97612,-1.65689 -19.53571,1.89458 -2.44011,0.84249 -1.21855,0.41594 6.49088,-0.436 2.44011,-0.84249 z m 169.24724,-2.95116 c 2.65491,-10.71863 -17.82666,5.69026 -2.174,1.61947 l 2.174,-1.61947 z m -240.7397,-8.51922 c -9.3236,-4.21243 -14.18662,-0.1935 -1.93792,1.37948 0.33193,2.14586 7.35089,-0.46641 1.93792,-1.37948 z m 233.37595,-0.24063 c 27.19368,-0.40342 9.12473,-32.11554 -9.59029,-21.59768 -18.1815,5.57631 -8.232,32.49682 9.59029,21.59768 z m -1.28734,-41.81391 c -22.23575,-8.69563 -45.07565,-16.47467 -68.26278,-22.34963 -22.9642,-1.33347 13.18533,12.92317 20.44955,13.62691 15.47297,3.51414 32.16206,10.53183 47.81323,8.72272 z m -6.10759,-21.91563 c -16.21126,-3.05136 -32.39429,-9.44784 -49.07339,-8.87889 -10.87243,0.79628 13.81201,7.20563 17.68067,7.67907 9.62767,0.11858 34.39964,6.86031 36.66928,3.34185 -1.75882,-0.71403 -3.51789,-1.42789 -5.27656,-2.14203 z m -142.91773,-0.5974 c -4.14296,-8.97954 -24.90567,-13.50986 -9.19868,-1.47458 2.29821,1.69582 7.20762,5.4611 9.19868,1.47458 z m 48.86076,-10.11228 c -3.04337,-8.79733 -23.92243,-5.16845 -8.45748,2.27425 2.42639,1.52357 8.05053,1.44745 8.45748,-2.27425 z m 97.72152,-5.17245 c -6.43482,-6.67345 -43.18574,-5.07096 -18.32278,0.30837 5.68226,0.0652 13.51867,3.09741 18.32278,-0.30837 z m -94.05696,-13.27836 c -3.44021,-7.57352 -17.58518,5.64622 -2.50164,1.52962 l 2.50164,-1.52962 z m 100.03075,-4.13972 c -8.42188,-6.18007 -32.84868,-5.60566 -36.18567,0.8447 11.84868,1.27244 24.6077,2.27454 36.18567,-0.8447 z M 261,310.47378 c 2.49826,-12.15946 -31.48653,-19.13018 -24.60305,-11.26528 7.23562,4.84267 16.29057,19.90421 24.36477,13.74829 L 261,310.47378 z m -28.09494,0.92572 c -6.41505,-8.91832 -14.97147,7.62124 0,0 z m 47.63924,-7.14724 c -1.76432,-13.82096 -21.30475,-5.06506 -6.19501,2.13164 1.91165,0.95895 6.19405,1.09182 6.19501,-2.13164 z m 79.22013,0.87625 c 4.98275,-6.40802 -21.61995,-4.46708 -29.39619,-6.04925 -26.19895,0.64153 -47.09007,-19.30601 -73.17157,-19.72139 -8.02401,-3.39691 -30.89034,4.52832 -10.59024,4.385 21.96264,-3.04254 39.37596,10.99007 58.09676,19.55884 17.51284,4.92814 37.09208,3.65825 55.06124,1.8268 z M 234.12658,285.40955 c -8.75788,-8.72986 -9.58374,8.47832 0,0 z m 140.09621,-76.98034 c 0.72078,-16.77873 12.65092,11.90484 0,0 z m -8.98649,-37.08666 c -4.36982,-13.38748 14.10375,4.24722 0,0 z M 132.60895,155.27109 c -1.3048,-15.06982 22.16791,7.22006 2.56328,1.6375 l -2.56328,-1.6375 0,0 z m 233.44168,-20.38667 c 6.12047,-11.38388 5.09082,10.96029 0,0 z"
       id="path6012"
       inkscape:connector-curvature="0" />
    <path
       style="fill:#50534a"
       d="m 235.9837,471.48739 c -24.82164,-3.71885 -44.47554,-21.23451 -68.08257,-28.78758 -17.69444,-7.33232 -36.26053,-12.25236 -54.87525,-16.45933 -16.098837,-10.64626 -27.828743,-28.30481 -16.392239,-46.54893 1.65662,-19.75508 12.144449,-38.02474 5.975739,-58.32486 -2.860396,-24.79585 -4.332519,-50.67441 -17.095857,-72.80275 10.948018,-11.49959 23.935327,-26.24224 33.155317,-39.95683 -5.39629,-11.67863 11.43649,-37.31512 19.11613,-20.59756 -6.43773,9.18202 -8.10776,28.24343 4.88981,11.11492 13.48181,1.33355 29.89099,5.57125 45.20463,8.72346 11.06525,5.5644 21.79639,2.31154 21.95455,-9.14705 16.60906,0.39803 6.86336,41.32881 29.60988,30.66752 16.66145,-14.64835 18.23741,-40.71976 12.56385,-60.95737 -8.59818,-16.37948 13.9927,-3.83086 8.44451,6.63642 8.13551,12.38454 22.76474,17.19474 22.76482,33.66025 17.98809,9.86411 40.23899,-4.30442 58.28224,8.31911 10.21488,4.79294 1.89897,-24.03366 6.21904,-21.74137 9.28633,14.79923 15.76562,32.45457 29.56913,43.48491 4.65996,-1.50987 1.33934,-28.2798 8.30737,-12.87467 5.65497,10.50803 21.42936,14.52327 23.72564,28.28955 11.40222,0.65894 31.5146,18.83961 7.78943,16.31734 -14.7749,9.0316 27.84372,5.3204 16.99941,23.65454 -8.65804,14.53832 -25.83768,23.29903 -21.32326,44.1562 -1.26468,21.28867 0.70365,42.61328 3.56901,63.59584 -1.6215,13.59287 -18.28538,32.91146 -28.07848,17.86108 -12.14876,0.41708 1.55654,13.73816 -14.54121,14.63321 -34.24856,14.53657 -67.45515,34.91187 -105.11338,38.80164 -10.90352,0.74738 -21.83041,-0.32606 -32.63826,-1.71769 z m 11.43839,-35.01126 c -15.71821,-13.88818 -39.27632,-11.94799 -59.10824,-13.77909 -18.46891,-1.29077 -36.92522,-7.39275 -52.48081,-17.28038 -2.82039,-19.268 -32.9313,-18.73309 -17.25699,1.4032 -8.21929,14.56359 25.14581,7.62725 33.93016,13.07846 27.40721,10.19504 57.33481,8.26544 85.58874,14.56585 1.99474,-0.46752 11.11112,9.21106 9.32714,2.01196 z m 79.29368,-4.87251 c 22.29158,-1.04401 41.34775,-14.28044 62.94758,-18.52652 22.36364,-12.77241 -10.78411,-31.27454 -23.80295,-17.34473 -16.07515,6.36323 7.94588,22.97379 -11.69264,25.36029 -25.20345,8.44278 -52.89061,3.42476 -77.92832,11.69575 13.76256,3.02177 34.39789,-1.14009 50.47633,-1.18479 z m -189.08919,-5.41518 c -15.84033,-8.9239 -3.12711,8.71277 0,0 z m 128.2595,-4.61887 c -5.87999,-9.58915 -30.17673,2.671 -8.71859,1.55287 2.70801,-0.42399 6.52751,0.525 8.71859,-1.55287 z m 116.0443,-48.6082 c -19.69075,-8.52995 -41.06365,-12.68407 -61.21319,-20.12962 -8.94267,-4.73393 -28.0652,-1.35963 -8.56224,5.00474 22.09038,8.4005 45.21699,14.70279 68.55391,18.32282 4.83003,0.86896 6.124,-0.95687 1.22152,-3.19794 z m -127.1423,-15.9298 c -3.4316,-13.38765 -14.18853,7.83176 0,0 z m -13.33238,-2.31549 c -5.22101,-4.06526 -37.25504,-23.40545 -20.10916,-6.18176 4.77698,2.46129 16.00115,11.138 20.10916,6.18176 z m 141.6962,0.16807 c -15.93303,-8.61227 -35.22421,-10.60916 -53.11794,-13.41008 -23.49748,4.5639 23.38523,10.32525 32.58025,12.64763 6.0715,0.5978 15.66696,5.14129 20.53769,0.76245 z M 282.98734,342.15427 c -4.37502,-12.46591 -30.44882,-5.55385 -8.97058,0.99232 2.50427,0.34945 7.66951,2.35278 8.97058,-0.99232 z M 383.1519,335.507 c -13.66436,-6.42049 -30.22436,-3.87178 -45.27785,-4.25336 -11.09517,-0.30431 8.14969,2.35598 11.68745,3.3814 10.86045,1.18522 23.19053,4.51056 33.5904,0.87196 z m -97.56091,-11.18872 c 16.68175,-14.37707 -32.34633,0.9945 -7.14839,1.9776 2.45578,-0.32879 4.89519,-0.92663 7.14839,-1.9776 z m 108.55458,-6.29652 c -10.77883,-5.17987 -34.72955,-5.731 -49.83391,-1.28983 7.7533,6.33669 35.74749,2.46952 49.83391,1.28984 l 0,-1e-5 z M 261.46478,307.83775 c -7.18812,-17.46577 -42.41703,-15.49907 -16.0983,1.3659 4.09465,6.60902 20.50318,12.00325 16.0983,-1.3659 z m -23.77097,3.46641 c -8.64721,-11.79192 -24.47847,7.04366 -5.81076,4.427 3.07419,-0.41604 13.81007,1.36275 5.81076,-4.427 z m 41.31221,-10.25195 c -17.24439,-16.63072 -7.60586,16.65663 1.42627,3.41623 l -0.35455,-1.57056 -1.07177,-1.84567 5e-5,0 z m 88.10396,4.07119 c 4.32281,-7.63172 -24.41478,-4.66856 -33.10478,-6.27056 -19.42167,1.76004 -35.97483,-8.27851 -53.0656,-15.55755 -19.76808,-7.83113 -42.71619,-8.11704 -61.27366,3.15472 -9.51601,0.27668 -23.22177,15.61925 -7.5267,9.78864 15.33828,-6.43569 32.00294,-14.35454 50.09293,-10.56185 21.3319,1.69487 36.55344,22.32739 58.78486,20.54922 15.33354,0.41045 30.88416,1.19499 46.09295,-1.10262 z m -42.59099,-15.45653 c 7.18697,-11.96362 -32.68452,-9.3126 -9.77853,1.36991 3.26594,1.7832 6.88556,0.20044 9.77853,-1.36991 z m 48.86076,-83.49057 c 4.22666,-9.26535 10.40849,9.85221 0.30522,1.3315 l -0.30522,-1.3315 z"
       id="path6010"
       inkscape:connector-curvature="0" />
    <path
       style="fill:#4c4e33"
       d="m 231.68354,469.68225 c -28.96814,-9.57515 -54.93953,-26.50646 -83.9767,-36.10095 -9.64769,-6.25507 -12.6284,-12.67101 -28.02989,-8.73354 -16.07968,-1.12587 -40.073525,-31.15321 -16.01377,-39.59219 8.10824,-8.71364 3.6516,-7.91941 -4.608874,-8.69721 0.627131,-18.71556 8.940174,-37.97415 4.177214,-57.63896 1.07886,-12.37005 -10.664997,-33.58777 7.89669,-31.27144 3.11932,-9.72951 2.45938,-28.92109 -8.48958,-13.5769 -6.910946,10.51554 -4.005946,-19.5173 -13.995909,-21.27003 2.860262,-15.30642 22.883209,-24.74709 28.623839,-40.6306 3.93928,-8.31147 2.99818,-37.10071 21.07478,-26.71271 -4.41872,7.23187 -10.99481,37.35313 1.25407,17.1133 5.14136,-15.45849 10.6448,9.35387 21.80019,1.57325 17.41125,4.31121 34.81661,9.41175 52.73092,13.16624 7.40852,10.31032 26.3026,30.41229 35.54369,7.85913 10.44461,-10.55201 2.33646,-41.88148 20.48024,-38.55795 14.89515,4.97566 6.50589,28.28594 26.73016,28.00836 18.30369,3.48295 31.09998,18.95436 49.54776,21.4349 17.34561,8.31663 -7.15317,-42.05226 9.43065,-21.00714 7.94214,9.74855 22.93044,36.75458 31.16324,34.62556 -7.4002,-11.59329 -2.08686,-21.89642 10.32926,-10.77753 11.95955,8.70111 16.24798,28.08655 -1.64306,25.17829 4.37118,21.15758 33.26524,10.20174 37.83504,26.33624 3.83505,13.68727 -25.89254,23.81453 -14.44714,6.73626 24.46289,-6.72594 -10.00961,-12.51383 -19.54023,-11.24432 -7.35561,14.91368 -29.20962,13.24924 -45.42088,11.97574 -14.71655,-0.66676 -17.20118,-20.65818 -35.41903,-20.3479 -10.32921,-5.6267 -19.74983,-0.145 -23.8214,7.59261 -21.795,-6.31501 -45.51568,-13.44505 -67.50719,-3.36071 -8.65003,4.54648 -29.11924,11.33931 -29.04604,17.74749 20.01128,4.87041 31.44477,-17.58642 51.60552,-13.79241 19.62071,-1.93719 34.72048,11.40414 51.94973,17.84287 30.26409,10.96094 62.54175,3.79816 93.35718,0.15909 20.04078,4.40748 -13.06118,9.00151 -19.86328,7.81122 -23.13159,0.70996 -46.47698,2.44635 -69.49236,-0.57518 -5.59463,8.13453 23.8426,7.95428 31.45291,9.42064 21.65454,1.77999 43.48845,3.38032 65.1694,1.77363 20.68626,11.79355 -16.68405,11.68984 -24.97954,8.72446 -20.43469,-1.84491 -41.19066,-4.82588 -61.6324,-2.83054 16.47714,9.06442 37.22226,8.65851 55.84433,10.64882 12.79606,0.61999 48.67107,-1.99259 34.70813,18.57346 -17.11823,-2.43252 -33.25292,-10.70249 -50.62632,-13.1299 -12.22491,-1.31196 -35.09989,-9.36454 -41.12238,-1.36835 21.17025,9.8712 45.07396,13.60316 68.23598,15.98412 12.50187,-6.61965 37.42631,19.62357 12.99327,14.32214 -30.90737,-6.14877 -59.83911,-20.33578 -91.14822,-24.51267 -15.93303,5.75214 15.8121,13.66871 22.23579,15.98474 22.78354,7.53909 46.1926,13.05159 69.58932,18.00118 23.29368,2.02084 20.83622,35.81602 1.88251,38.28717 -19.43703,-7.72502 21.9221,-10.76893 2.25313,-24.40783 -13.6697,-12.11962 -34.11076,-9.64432 -51.05615,-13.44941 3.94878,10.57076 0.68184,27.60194 11.27275,32.37716 -27.74507,16.96912 -62.68411,4.89971 -91.56416,18.27276 9.12347,4.9857 31.60703,0.5471 45.61816,0.91923 20.83706,0.85815 39.49126,-8.57551 58.47716,-15.50003 17.35672,4.84267 -8.32259,21.17474 -18.01538,22.47337 -29.66802,12.71349 -58.551,31.53465 -92.16587,29.81099 -10.55756,0.19125 -21.19132,0.0449 -31.63726,-1.64802 z m -8.64747,-21.08319 c -11.79221,-8.31898 -13.9109,3.72058 -0.9192,4.21079 4.7469,2.35699 4.51545,-3.71463 0.9192,-4.21079 z m 94.08533,-5.00064 c 7.10849,-9.60775 -33.18635,-0.89918 -11.95913,2.06165 4.03872,0.0402 8.28164,-0.21765 11.95913,-2.06165 z m -63.50484,-1.70772 c -9.66666,-17.09377 -32.69695,-17.05039 -50.1716,-18.59808 -22.94554,-1.39405 -47.01048,-5.02673 -66.90454,-17.13567 -1.91187,-17.36241 -33.44246,-21.75344 -18.19652,-0.76432 -8.08119,17.66746 29.10146,8.89262 39.68855,17.16589 26.0573,8.60705 54.7726,4.41435 80.4794,13.88292 4.02848,0.98737 11.84246,10.14863 15.10471,5.44926 z m 16.55909,-19.53036 c -4.0146,-14.9286 -38.45972,1.3824 -14.76465,2.84601 4.82063,-0.54001 10.61337,0.0509 14.76465,-2.84601 z m -147.06347,-53.4975 c 9.85586,-11.31751 -22.14394,11.38698 0,0 z m 144.59909,-13.58648 c -17.6249,-4.42574 -37.74408,-4.06927 -51.28557,-19.1067 -16.51208,-6.8982 4.16613,18.9121 13.1826,18.167 11.63432,3.64076 26.85518,5.89603 38.10297,0.9397 z m 12.83303,-3.80902 c -6.12044,-11.3839 -5.09083,10.96028 0,0 z m 4.86013,-9.20478 c -4.22503,-9.81036 -34.984,-14.23926 -17.72626,-0.4689 2.48878,2.48492 29.39279,12.12848 17.72626,0.4689 z M 122.85965,328.88207 c -3.61616,-11.3279 -23.18278,4.19487 -5.02402,1.84419 1.72243,-0.28473 3.77339,-0.4241 5.02402,-1.84419 z m 164.47018,-5.69331 c 19.67174,-15.42696 -36.72397,0.71503 -11.67766,3.27089 4.02916,-0.37865 8.14196,-1.20915 11.67766,-3.27089 z m -23.88679,-11.64344 c 2.62557,-16.74983 -44.66019,-26.44939 -24.28833,-6.90874 4.97008,3.69996 23.59741,23.55053 24.28833,6.90874 z m -19.54431,3.81767 c -4.64223,-12.27333 -27.02822,-11.60861 -24.44782,0.55917 7.86752,0.80945 16.88544,1.94005 24.44782,-0.55917 z m -114.82278,-5.8976 c -7.33971,-11.68803 -27.46885,1.87331 -6.82405,1.89146 2.08872,-0.41784 5.47696,0.23383 6.82405,-1.89146 z m 152.75627,-2.4928 c 3.07561,-13.88613 -25.86332,-17.53646 -11.84264,-1.34268 2.63231,3.37036 8.91901,5.43055 11.84264,1.34268 z m 132.26483,-40.33356 c -4.36979,-13.38746 14.10375,4.24723 0,0 z"
       id="path6008"
       inkscape:connector-curvature="0" />
    <path
       style="fill:#3d4130"
       d="m 232.90506,469.65676 c -20.7578,-2.97009 -36.23065,-18.77108 -55.84171,-25.18104 -19.734,-4.13754 -29.51339,-23.22841 -50.16494,-22.61894 -9.46232,1.64089 -16.50574,-6.09316 -2.92994,-4.04377 29.45625,2.16661 57.38153,13.90413 87.14151,14.02856 13.21176,-3.24924 38.71306,14.88952 42.36493,8.03088 -6.93528,-7.03498 -21.55166,-18.09404 -3.01634,-14.4996 9.26339,4.66789 30.21757,-4.08933 10.95878,-8.50952 -19.85228,-5.51791 -39.12411,2.64709 -58.56976,4.67433 -18.90342,-1.03264 -47.25272,-0.8657 -55.96994,-20.85153 -4.96783,-5.87468 -6.69245,-19.50228 -16.76415,-16.51924 -7.0764,0.22599 -14.1528,0.45197 -21.2292,0.67795 13.7904,-14.09513 33.47084,-20.38945 51.46904,-27.24321 10.43061,0.66173 33.62883,-13.05199 10.36044,-7.59141 -18.45432,2.47259 -36.05234,15.53449 -54.8471,11.52959 2.30783,-15.06241 35.78166,-9.894 34.63389,-19.88912 -9.89093,-0.12729 -45.18925,1.70474 -21.05824,-9.03766 17.69062,-1.6086 5.73166,-9.40346 -4.68729,-10.54767 -7.08676,-8.65795 31.16237,-8.5958 8.08837,-16.51497 -10.45704,-6.73975 12.12498,-10.40566 -3.73702,-17.58 -4.86954,-10.15844 -3.46831,-31.50039 -19.25463,-27.34585 7.05202,-20.63131 17.32547,-41.16677 34.2221,-55.48639 13.59853,13.31349 31.16061,23.23773 49.47632,27.90836 15.50073,-5.23573 28.51868,-0.40709 42.4218,4.49981 15.54394,-7.25052 27.40071,-25.29155 45.33844,-10.05862 20.79186,-1.33812 41.41049,-2.80499 59.83482,10.5126 10.04827,7.09731 19.19288,2.87779 12.25335,-9.28205 -3.50278,-8.81109 -1.11446,-21.13191 6.05706,-7.65504 11.53339,18.53341 27.04015,33.89553 40.87019,50.3374 9.12493,14.15046 45.8671,4.80525 28.85941,29.89493 -14.4083,15.67431 -17.20835,-7.97792 -0.48411,-8.3376 -11.11075,-7.43161 -34.1195,-15.2369 -41.23001,1.59718 -14.68429,5.59027 -37.87553,7.98863 -44.07587,-8.26013 -15.31757,-6.84651 -35.66691,-17.6011 -51.25855,-6.47183 -21.44129,-0.48258 -43.97399,-10.24123 -65.0927,-0.31589 -16.94755,7.33741 -33.30538,16.01291 -50.32882,23.21778 12.9436,-1.0666 26.90536,1.36533 38.95423,-3.70816 16.37982,-18.04207 21.79972,11.13636 36.98274,17.91357 21.26072,7.32323 9.01723,-20.72226 -5.2082,-21.65682 -16.09475,-1.5424 -10.76223,-10.53426 2.67928,-8.4376 19.98567,-1.98907 36.66435,10.12024 53.33101,18.87565 30.57012,6.41063 61.99628,1.88457 92.78771,-0.0312 13.80371,5.14344 -16.50004,5.76721 -22.01569,5.80275 -24.11651,0.4001 -48.41684,1.45692 -72.38662,-1.56343 5.0589,13.26756 33.01027,8.89279 47.66635,11.98046 19.68223,2.13278 39.78506,-0.0376 59.24732,3.56995 -8.03967,10.82035 -33.92217,2.16909 -48.97817,3.47686 -13.91261,0.32814 -37.73765,-4.39953 -45.62575,0.15719 29.45878,9.7177 60.87922,11.43506 91.53893,13.7506 9.34738,5.29522 2.20866,21.8752 -7.20908,11.73375 -27.81505,-8.69824 -57.03091,-14.51901 -86.17119,-15.54737 7.19686,11.6738 32.72827,12.61691 47.78644,16.7241 14.47919,6.85125 39.16997,0.3524 46.2217,16.67775 -29.19077,-1.80185 -57.07656,-12.83485 -84.89553,-21.29522 -8.5278,-4.24911 -35.48634,-3.75224 -15.12581,6.0875 30.71221,11.11053 62.2933,20.37764 94.14001,27.26573 23.32479,2.12667 13.15384,42.36819 -6.01898,33.38469 -11.16483,-2.93744 4.18177,-4.83345 8.03375,-7.181 9.92389,-1.99516 -2.9454,-18.96927 -8.83501,-20.68057 -27.01929,-6.43858 -54.66076,-11.09515 -80.37536,-21.98597 -14.93772,2.94138 16.27998,9.24866 20.20612,14.04458 20.17506,2.55215 14.04905,22.32914 6.59594,34.01422 2.15103,0.86421 26.72116,-6.02412 10.36884,3.52438 -25.7721,7.07257 -53.89443,1.3454 -78.90748,11.48234 -8.53332,3.3089 -14.70569,15.67366 -0.5852,8.64133 29.97639,-9.9376 64.28305,0.7246 92.40433,-16.52919 14.84898,-12.46424 19.19938,9.98223 3.45393,12.40248 -21.60065,9.56005 -42.66724,20.44631 -64.36663,29.65258 -22.38867,6.80627 -46.42656,7.64212 -69.50406,4.38575 z m 73.21539,-15.20388 c -2.89063,-10.98018 -17.41229,-2.43571 -3.43385,2.05717 l 1.83358,-0.60429 1.60027,-1.45288 0,0 z m -79.32298,-3.24978 c -9.99395,-6.88016 -0.0677,-16.11383 -16.69032,-14.11664 -12.90267,-0.88911 11.54696,8.30979 -4.36953,11.56535 1.29665,3.39766 19.30674,8.41497 21.05985,2.55129 z m 91.61392,-8.80767 c -7.66712,-9.70571 -32.57595,3.19621 -12.42232,3.92029 3.97121,-0.93312 9.41956,-0.82423 12.42232,-3.92029 z M 268.32911,355.5198 c -12.68209,-5.83844 -31.24202,-2.53681 -43.33456,-13.46934 -6.55705,-8.95172 -24.97556,-9.69854 -10.65036,2.8324 13.20738,14.42473 34.78704,16.10585 52.76642,11.96441 l 1.2185,-1.32747 0,0 z m 13.77477,-4.05246 c 24.28487,-4.18179 -25.05107,-30.35647 -19.5242,-14.37351 6.11679,6.08289 15.54446,8.75672 13.3628,16.99183 2.3335,1.78551 5.34294,-0.34841 6.1614,-2.61832 z m 2.18345,-25.87943 c 26.51778,-12.76702 -24.60179,-11.97274 -15.93905,1.3744 5.218,3.30704 10.78738,0.28328 15.93905,-1.3744 z m -74.59113,-7.69093 c -8.75791,-8.72983 -9.58371,8.47832 0,0 z m 35.14224,-3.11881 c -4.28361,-14.10155 -33.48705,-9.44111 -24.49206,2.45534 6.60859,-0.15852 21.37605,3.53793 24.49206,-2.45534 z m 37.30035,-8.87392 c 0.77147,-17.3649 -27.56726,-10.99037 -10.59031,2.04476 3.23792,1.80621 8.82656,1.83426 10.59031,-2.04476 z m -71.68563,-23.6044 c 9.96561,-12.69042 -23.82628,5.41281 -3.83026,2.04711 l 3.83026,-2.04711 z m 27.49818,-16.92422 c 9.49353,-4.10789 15.57338,-22.61115 0.86537,-9.65105 -3.8469,5.94986 -27.87912,17.16612 -22.13345,18.70918 8.28586,1.03407 15.37097,-3.77295 21.26808,-9.05813 z M 94.059073,405.25209 c -9.933494,-18.51313 16.159887,-11.7055 5.427326,1.16765 l -2.629863,0.28735 -2.797458,-1.455 -5e-6,0 z m 5.700421,-33.20938 c 4.941936,-12.95524 4.430876,12.33416 0,0 z m 5.814436,-26.96914 c -0.95568,-15.97553 20.15615,2.4729 1.74002,2.37467 l -1.74002,-2.37467 z m -2.46894,-47.7081 c -2.0479,-13.1562 10.86292,8.81228 0,0 l 0,0 z m 310.99206,-30.72644 c -4.36979,-13.38746 14.10375,4.24723 0,0 z m -17.53409,-6.71114 c -7.47858,-6.88962 -21.62122,-36.83784 -0.61059,-21.11917 4.82842,5.44957 24.19614,30.1689 0.61059,21.11917 z M 103.37609,239.85834 c 0.72911,-17.154 23.82103,6.34657 0,0 z m 8.59859,-13.42675 c -3.28001,-13.49272 18.83959,-12.02344 8.21562,-25.39941 2.94803,-5.97112 8.99186,-25.03686 15.00691,-13.47548 -11.09354,11.64845 -3.66173,32.85803 -19.56622,41.41199 -5.33587,4.98699 -3.25462,2.96098 -3.65631,-2.5371 z"
       id="path6006"
       inkscape:connector-curvature="0" />
    <path
       style="fill:#333528"
       d="m 235.77858,469.12157 c -24.24251,-3.80972 -43.02838,-21.47263 -65.89611,-29.35734 -7.0539,-8.01564 -24.26435,-14.92149 -28.43087,-19.23018 25.25426,6.41463 50.78719,12.85315 77.07086,12.70152 18.32173,-1.29969 32.31014,20.28016 50.15062,8.16124 9.68028,-5.52126 39.51967,-7.90304 19.8111,7.099 -7.78264,6.1918 14.59996,10.11209 18.56585,8.22623 7.08593,-9.81158 24.81946,-15.82667 16.24744,-19.70857 17.67252,-0.94041 34.31337,-13.40088 50.71364,-13.62946 0.003,17.85938 -29.46202,16.27785 -41.49442,27.03246 -20.76803,11.18909 -43.12715,20.29461 -67.16843,19.71128 -9.85861,0.38496 -19.77826,0.32155 -29.56968,-1.00618 z m -6.53807,-17.59293 c -10.07275,-12.39301 3.17819,-5.63699 9.77215,-5.37039 -10.30122,-8.67217 -39.25619,-16.25871 -46.75735,-7.2196 8.25127,1.97776 18.58699,4.22043 8.80008,10.52129 5.66591,6.19573 21.66233,6.81031 28.18512,2.0687 z m 121.5921,-14.06407 c -4.26533,-7.04905 -25.82222,7.74689 -6.0716,3.00636 2.06814,-0.65638 4.78753,-0.9579 6.0716,-3.00636 z m -96.67312,1.28568 c -12.55015,-19.27942 24.94901,-7.21346 3.40969,2.27608 l -1.35646,-0.47368 -2.05323,-1.8024 0,0 z m 17.01207,-20.90218 c -20.55304,-8.40955 -43.00287,-4.9041 -63.65782,0.7908 -19.97255,3.1317 -44.93082,0.80686 -53.66347,-20.0128 0.18406,-23.25467 -21.62122,-19.90555 -36.95608,-17.67202 20.4941,-15.70785 46.9795,-21.33879 70.85666,-30.481 10.18236,-8.90803 -24.45937,-0.77592 -31.38999,1.35002 -8.84872,1.63809 -28.349,12.42796 -32.34913,4.16621 7.38972,-7.43018 36.85436,-5.18684 31.29024,-15.43919 -7.53901,-0.39519 -38.53651,-1.67539 -16.89846,-7.99618 23.30915,-4.25742 -26.64099,-16.62356 2.42105,-16.85591 8.78272,1.84262 20.48116,-5.21077 5.96341,-7.81886 -19.22102,-5.77121 -1.19282,-6.43543 8.65185,-4.89345 16.69767,1.51223 33.48736,1.59828 50.20294,0.86964 0.30054,12.49557 -14.17082,5.0725 -16.16259,11.24313 16.95899,1.93388 11.85675,24.92752 27.6156,33.44349 14.13183,12.00788 34.1527,12.80623 51.56796,9.67421 14.14153,-10.59097 29.31239,-6.48517 44.14087,2.77297 10.08912,6.23689 44.09836,10.99277 41.97286,16.88015 -21.41274,-3.12435 -41.23962,-17.13686 -63.51137,-13.85885 0.13698,8.59432 19.87086,28.79363 31.65663,19.75627 15.99038,1.50955 21.2129,19.1919 3.45298,22.50032 -12.4913,15.52499 -33.14378,20.31592 -51.61741,12.85066 l -3.58673,-1.26956 0,-5e-5 z m -12.6146,-36.29414 c -7.00859,-11.02373 -15.0983,16.88246 -1.49252,3.06091 l 1.0916,-1.57719 0.40092,-1.48372 z M 280.5443,365.3135 c -9.74804,-8.8854 -13.42594,12.68538 0,0 z m -60.01264,-1.70717 c -4.6557,-12.05851 -33.03453,2.2891 -9.14734,1.89264 3.00193,-0.33948 6.58368,0.0253 9.14734,-1.89264 z m -125.3208,40.22588 c -7.97247,-13.25185 10.16836,-9.33582 2.92848,2.22558 l -1.108537,-0.43285 -1.819943,-1.79273 z m 274.91422,-39.63887 c -9.93288,-1.00085 -40.48161,-11.99919 -14.3732,-7.75351 9.14128,3.49863 37.55352,5.08832 34.77132,12.07352 -6.85686,-1.1463 -13.63079,-2.74062 -20.39812,-4.32001 z M 240.82535,348.50381 c -10.45084,-2.88733 -38.47281,-18.45069 -27.71007,-28.38255 17.59389,-6.43717 39.3011,6.62731 52.7708,-3.30719 5.97859,-7.04369 24.76179,-6.40621 13.46441,-20.93565 14.2036,-2.67032 21.20604,17.94441 23.94082,29.33791 5.29508,6.36182 28.2065,10.44039 27.56363,11.82828 -7.00201,-0.13487 -31.65529,-2.38992 -17.59648,7.52265 12.30455,6.27295 -8.68514,2.10691 -13.03697,2.52378 -13.7622,-1.06737 -29.19734,-23.03906 -41.00956,-13.62315 1.87733,7.76372 24.53364,17.27757 4.35291,16.56468 -7.59477,0.14828 -15.2575,-0.1354 -22.73949,-1.52876 z m 58.6525,-9.48999 c -7.61622,-8.78579 -8.67063,11.27386 0,0 z m -12.74748,-13.42591 c 15.84383,-4.52657 4.74226,-16.44529 -6.49564,-9.82705 -12.06026,-1.74623 -22.48612,15.73577 -4.64022,12.64236 3.81448,-0.45327 7.53847,-1.49181 11.13586,-2.81531 z m 74.43419,18.15519 c -7.56354,-0.58675 -34.83018,-7.85829 -12.96538,-5.19106 7.85934,1.77392 28.70807,3.31896 29.32495,7.09741 -5.49665,-0.16636 -10.93681,-1.06091 -16.35957,-1.90635 z m -37.86709,-18.77453 c -10.83758,0.74716 -17.23973,-7.04157 -2.77008,-4.42113 14.82637,1.33315 29.54908,3.56249 44.30172,5.51286 -13.84835,-0.11975 -27.7139,-0.0236 -41.53164,-1.09173 z M 211.54442,308.73462 c -0.58978,-14.62374 28.92356,-16.01066 15.81356,-3.83261 -5.91001,-2.18554 -11.68178,11.79128 -15.81356,3.83261 z m 44.68856,-9.13484 c -5.61671,-5.21062 -31.34352,-11.34094 -9.75713,-12.39428 9.25148,0.72597 35.04044,-0.53192 17.87208,9.45195 4.07552,11.75496 -2.73593,8.20487 -8.11495,2.94233 z m 163.56449,3.37142 c 10.63927,-15.78625 15.04905,4.17744 0,0 z m -261.40506,-4.59117 c -19.29998,-2.62623 -36.44553,-25.8309 -24.61409,-43.12923 13.39531,-14.72817 -8.21227,-4.73245 -13.51307,1.32594 -7.90122,-10.46008 10.09378,-37.94689 22.61503,-43.77747 11.71513,13.76331 23.28425,31.33347 45.20457,26.0325 14.42972,-4.32817 51.77376,-3.24831 41.72264,18.10815 -13.57712,11.77141 -33.19312,15.24866 -44.91878,29.78094 -1.4926,7.04308 23.35983,0.92369 4.49338,7.89902 -9.77064,1.71103 -21.45367,8.08426 -30.98968,3.76015 z m 161.2405,-23.88598 c -16.89709,-5.80891 -35.84622,-3.79392 -52.26007,-8.76848 3.86033,-11.62095 -21.86625,-40.0135 1.30189,-38.63621 19.00209,9.59422 41.50672,-1.38986 60.32474,9.76202 12.04626,6.61019 36.42097,16.79818 27.84147,-6.96405 1.52973,-15.29972 17.81517,19.09715 26.37211,25.38281 6.12631,7.85468 28.60585,27.39346 4.22245,23.21132 -22.92031,0.88569 -45.52587,3.50598 -67.80259,-3.98741 z m 74.59455,-22.1134 c -5.12034,-6.69439 -14.17849,-23.07997 0.61345,-11.08737 10.26244,4.76787 13.38172,30.27478 -0.61345,11.08737 z M 115.71894,220.549 c 0.4538,-18.83909 18.66006,4.61186 0,0 z"
       id="path6004"
       inkscape:connector-curvature="0" />
    <path
       style="fill:#292b1c"
       d="m 233.03482,468.01454 c -10.06698,1.27244 -33.22079,-14.40198 -10.87367,-12.21824 8.8965,0.68626 11.31743,-10.73057 21.55819,-7.09331 -2.31763,-6.22224 -28.77598,-17.84456 -8.69017,-10.99131 14.50434,13.95679 30.87051,7.56492 46.859,0.42192 27.28311,-10.23722 -17.4174,25.73143 7.20677,18.53934 11.87439,-2.19475 22.00783,7.91857 5.37285,9.42042 -20.24769,3.15921 -41.01824,3.45946 -61.43297,1.92118 z m 86.59809,-16.60645 c 4.05165,-10.20213 28.26866,-8.58966 8.55063,-0.74879 -2.15886,0.29699 -7.71944,4.61416 -8.55063,0.74879 z m -64.35453,-13.68734 c -5.64443,-10.51526 17.25393,-3.48844 0.97908,0.42101 l -0.97908,-0.42101 0,0 z m -84.06003,-5.10231 c -18.47632,-8.55942 34.72962,2.21448 9.73466,1.88775 -3.29277,-0.30929 -6.59491,-0.81034 -9.73466,-1.88775 z m 192.45941,-1.85574 c -15.94555,1.27226 12.9949,-14.74627 7.43087,-4.85902 -2.55673,8.5873 3.24184,7.06598 -7.43087,4.85902 z m -90.46257,-15.13798 c -17.12227,-8.22562 -34.76515,-10.64159 -52.97582,-3.88676 -12.59101,1.775 -46.00262,-5.19241 -29.53018,-22.10477 -4.58958,-22.595 32.27669,-16.13987 34.20361,-28.1014 -19.09585,-10.59419 -40.64972,0.8244 -59.91646,5.34288 -7.8852,1.63727 -30.031,13.745 -31.41905,6.66192 22.14231,-13.26074 48.91602,-16.17269 71.57889,-27.98021 15.50373,3.59126 30.12924,19.06568 48.88497,15.04893 16.38123,4.34678 30.67331,-14.9334 44.47501,-3.54982 -13.70343,6.87048 -35.24862,2.91594 -48.08052,16.33835 -14.69289,6.93834 -17.94926,32.56376 4.76723,23.92301 14.74209,-2.28452 18.07299,-25.32553 35.7046,-13.26962 10.0292,7.17443 31.06863,8.52373 36.21714,10.14976 -21.56665,1.78151 -16.59366,32.82266 -39.4277,24.58253 -4.89665,-0.69323 -9.72738,-1.80265 -14.48172,-3.1548 z m -28.29584,-71.19633 c -6.20998,-14.70199 -5.29497,12.36474 -15.79686,-1.93259 -14.67689,-5.13519 -23.58409,-24.70365 -1.15258,-23.39282 19.02735,-2.10381 3.5734,6.29678 3.63123,13.94426 8.38258,4.89315 11.44231,-21.26814 23.49268,-9.22925 16.05234,-2.35682 -4.21568,12.76933 9.49544,17.84041 16.42181,11.93254 -17.93795,11.06244 -19.66991,2.76999 z m -61.08522,-2.4058 c 7.11471,-1.60758 26.90292,-16.1163 17.91759,-0.002 -4.92736,1.01952 -14.40881,3.55227 -17.91759,0.002 z m 94.28357,-7.4855 c -12.43701,-4.74687 -4.91109,-5.56812 4.27465,-6.67714 7.34366,-4.72524 23.59425,-6.96997 12.30715,5.53718 -4.68124,7.65797 -10.25153,5.79133 -16.5818,1.13996 z m -141.20563,1.80002 c 13.85866,-2.84706 41.53018,-7.92641 48.24981,-5.25821 -15.20851,4.30435 -33.19722,7.11117 -48.24981,5.25821 z m 24.53413,-13.70424 c -20.12228,-4.57955 15.7375,-5.56962 21.74502,-4.3966 11.18311,-0.79133 15.90066,4.38642 1.66991,4.2627 -7.78572,0.59416 -15.62553,0.74355 -23.41493,0.1339 z m 121.54114,-13.3992 c 4.04685,-5.62908 -6.52079,-19.286 6.15876,-9.47979 19.85749,7.73069 -9.22426,20.87563 -6.15876,9.47979 z m -69.71617,-2.29435 c -0.70126,-9.3205 23.44789,-10.55827 8.50204,-1.56596 -2.47008,0.86882 -5.86006,3.2344 -8.50204,1.56596 z m 39.32202,-11.85241 c -5.88499,-2.98768 -21.51468,-5.72961 -5.26113,-6.29376 10.23948,-3.78482 25.55703,5.28483 8.97057,8.60373 l -3.70944,-2.30997 z m 126.24594,-23.74945 c -13.71172,-5.69904 -17.66374,-29.31546 -17.91643,-40.07364 11.22104,12.84844 22.06644,27.1709 33.01423,40.71374 3.05054,6.36948 -13.28017,-0.34709 -15.0978,-0.6401 z M 167.32539,266.9831 c -16.9403,-1.79654 -26.80388,-24.64571 -2.46741,-22.02641 18.45938,5.36453 43.40475,-11.90353 55.67783,5.19665 10.72592,17.55044 -23.94603,15.78527 -33.68673,21.87185 -6.86307,0.46425 -13.35482,-2.42906 -19.52369,-5.04209 z m 134.57993,0.13562 c -13.79033,-2.3147 -44.50412,-18.20941 -31.02027,-33.00804 19.85923,3.55309 39.95101,5.77125 60.06425,7.63138 9.69598,2.39232 43.70582,25.26705 20.33208,28.36719 -16.45784,2.05373 -33.5579,3.00379 -49.37606,-2.99053 z M 121.76976,243.71734 c 1.4816,-11.53616 26.25667,-39.2028 16.75973,-11.62673 -1.32302,5.1634 -13.02712,19.91269 -16.75973,11.62673 z"
       id="path6002"
       inkscape:connector-curvature="0" />
  </g>
</svg>
