<?xml version="1.0" encoding="UTF-8" standalone="no"?>
<svg
   xmlns:dc="http://purl.org/dc/elements/1.1/"
   xmlns:cc="http://creativecommons.org/ns#"
   xmlns:rdf="http://www.w3.org/1999/02/22-rdf-syntax-ns#"
   xmlns:svg="http://www.w3.org/2000/svg"
   xmlns="http://www.w3.org/2000/svg"
   xmlns:sodipodi="http://sodipodi.sourceforge.net/DTD/sodipodi-0.dtd"
   xmlns:inkscape="http://www.inkscape.org/namespaces/inkscape"
   sodipodi:docname="health potion.svg"
   height="100%"
   width="100%"
   inkscape:version="0.48.4 r9939"
   version="1.1"
   id="svg2"
   viewBox="0 0 512 512">
  <sodipodi:namedview
     pagecolor="#ffffff"
     bordercolor="#666666"
     borderopacity="1"
     objecttolerance="10"
     gridtolerance="10"
     guidetolerance="10"
     inkscape:pageopacity="0"
     inkscape:pageshadow="2"
     inkscape:window-width="1185"
     inkscape:window-height="1030"
     id="namedview44"
     showgrid="false"
     inkscape:zoom="0.65186406"
     inkscape:cx="-117.31514"
     inkscape:cy="577.54308"
     inkscape:window-x="100"
     inkscape:window-y="100"
     inkscape:window-maximized="0"
     inkscape:current-layer="svg2" />
  <metadata
     id="metadata48">
    <rdf:RDF>
      <cc:Work
         rdf:about="">
        <dc:format>image/svg+xml</dc:format>
        <dc:type
           rdf:resource="http://purl.org/dc/dcmitype/StillImage" />
        <dc:title></dc:title>
      </cc:Work>
    </rdf:RDF>
  </metadata>
  <defs
     id="defs46">
    <filter
       id="filter3108"
       x="0"
       y="0"
       width="1"
       height="1"
       inkscape:label="Lightness-Contrast"
       inkscape:menu="Color"
       inkscape:menu-tooltip="Increase or decrease lightness and contrast"
       color-interpolation-filters="sRGB">
      <feFlood
         id="feFlood3110"
         result="result1"
         flood-opacity="1"
         flood-color="rgb(0,0,0)" />
      <feBlend
         id="feBlend3112"
         in2="SourceGraphic"
         mode="normal"
         result="result2" />
      <feComposite
         id="feComposite3114"
         in2="SourceGraphic"
         k2="1"
         operator="arithmetic"
         result="result3" />
      <feComposite
         id="feComposite3116"
         in2="SourceGraphic"
         operator="in" />
    </filter>
  </defs>
  <rect
     style="opacity:0.98999999;fill:#000000;fill-opacity:1;fill-rule:nonzero;stroke:none"
     id="rect3171"
     width="516.97894"
     height="518.513"
     x="-3.0681245"
     y="-1.9108258" />
  <path
     sodipodi:type="arc"
     style="opacity:0.98999999;fill:#ffffff;fill-opacity:1;fill-rule:nonzero;stroke:none"
     id="path3034"
     sodipodi:cx="323.68713"
     sodipodi:cy="336.34988"
     sodipodi:rx="168.74684"
     sodipodi:ry="161.84357"
     d="m 489.97123,308.80049 a 168.74684,161.84357 0 1 1 -0.0206,-0.11439 l -166.26345,27.66378 z"
     sodipodi:start="6.11213"
     sodipodi:end="12.394598"
     transform="translate(-70.56686,-26.079057)" />
  <rect
     style="opacity:0.98999999;fill:#ffffff;fill-opacity:1;fill-rule:nonzero;stroke:none"
     id="rect3036"
     width="90.509666"
     height="84.373421"
     x="210.16652"
     y="103.93946" />
  <g
     id="g3014">
    <path
       style="fill:#eae9e4"
       d="M 203.48121,464.39387 C 170.47062,455.03212 141.25507,434.76876 120.39695,407.5807 76.537058,355.88097 77.053836,275.74588 114.95646,220.90147 c 4.36525,-5.61505 19.39318,-33.46348 22.95206,-16.93496 6.46679,-16.65876 23.04217,-28.81993 39.01046,-39.29617 20.14546,-5.82627 34.45739,-18.39424 30.47422,-40.84478 -0.89256,-8.95055 1.48769,-24.913168 -4.38563,-30.230176 -17.64363,5.119147 -17.6141,-23.507119 -10.53339,-31.404934 16.83782,4.236252 23.32063,-7.473107 18.6222,-22.204251 8.40848,-15.784615 38.51836,-4.228273 55.10893,-8.281328 15.54633,-0.384394 43.98405,-4.36091 33.35756,20.711414 -3.28051,15.844521 30.59227,2.570985 22.04101,24.983124 4.48843,14.741626 -8.89774,15.417886 -17.45269,18.51851 -1.56962,8.453501 -3.4403,36.819761 -8.84335,13.935381 -15.30056,-2.45086 -35.12307,2.77007 -52.30251,-0.0315 -22.95781,-4.1427 -13.35976,27.71888 -18.89222,41.42192 6.50877,3.26255 22.76155,-1.94141 32.21461,-0.32695 10.10097,-0.19488 20.20421,-0.0931 30.30638,-0.11857 -4.56129,-10.21445 3.77084,-31.33748 8.92655,-10.79271 -0.56364,8.01349 2.43635,17.01117 5.42026,4.22632 7.28403,15.9748 29.20357,17.45455 41.70836,29.46365 20.53341,14.44869 35.82916,34.68268 52.35095,53.22737 36.5428,53.5599 34.7943,130.64261 -6.87676,180.97603 -20.36085,24.29657 -46.0033,46.46179 -76.78028,55.7513 -31.80966,5.59065 -64.45705,3.33876 -96.57844,2.47865 -3.80637,-0.32593 -7.60486,-0.84493 -11.32353,-1.7349 z m 96.05974,-56.55468 c -11.44388,-9.332 5.01301,9.79807 0,0 z m 20.85631,-35.11134 c 16.78122,-8.01065 5.41157,-27.26603 -9.08063,-14.40852 -17.02869,2.77441 -19.79304,24.21935 0.79659,18.454 2.95989,-0.91337 5.65987,-2.44135 8.28404,-4.04548 z M 216.61478,357.26622 c 3.09982,-4.317 15.63675,-4.79129 1.71328,-5.36979 -3.6306,-10.56804 -22.60463,-3.64638 -8.53141,2.45445 4.90343,-1.96049 4.3314,11.19908 6.81813,2.91534 l 0,0 z m 124.18582,-6.78927 c 1.70783,-13.87111 -29.58044,-0.0802 -7.78486,2.02733 2.65122,1.28112 7.95081,3.03516 7.78486,-2.02733 z m -82.58008,-36.56981 c 20.56027,-1.21994 39.41654,-8.30186 58.23848,-15.97342 25.46163,-4.46171 52.87201,4.33388 77.06857,-7.46249 1.89581,-13.61499 -20.03285,-26.17139 -30.20069,-36.5687 -6.74667,-3.41292 -8.82089,-9.09169 -7.65098,-16.34365 0.77464,-20.31068 -12.44132,-40.8167 -30.63148,-49.06074 -8.2723,-6.46321 -27.15908,-17.14012 -31.50021,-0.92323 15.13077,8.87021 -16.27345,10.89296 -20.24445,18.18604 -15.81347,-7.85881 -33.65485,-11.18424 -52.43169,-8.79867 -14.75215,-2.02169 -29.61715,10.05097 -42.02671,10.14818 5.92071,-17.62635 29.03371,-20.00113 39.41751,-28.15663 -7.57849,-6.50302 -3.24558,-16.99083 -15.51985,-6.35892 -7.37632,3.36388 -25.47725,21.42324 -15.59047,3.14452 16.06753,-14.3021 -15.26521,4.56615 -19.01465,10.42182 -10.03845,3.55294 -11.77576,20.17895 -16.95088,21.09083 -12.15838,10.21341 9.7697,26.35066 -4.84676,39.29888 -12.14097,15.01775 -9.77537,37.12376 -29.19637,45.87336 -5.40131,18.39122 25.51718,2.07132 34.13094,15.35663 25.99342,9.52267 54.44821,3.48802 81.31691,8.21574 8.49041,0.42204 17.46774,0.56239 25.63278,-2.08955 z m 1.71209,-84.43692 c -1.39881,-7.23172 7.12858,3.45398 0,0 z m -73.74945,-2.89696 c 5.45696,-10.1864 3.41633,9.61764 0,0 z m 67.72113,-1.46877 c 2.79164,-2.78918 5.04022,4.55023 0,0 l 0,0 z m -10.66184,-2.98859 c -1.1356,-7.27533 23.38477,-10.69082 9.12949,-3.71446 0.014,5.36628 -5.0833,6.75301 -9.12949,3.71446 z M 168.9831,191.75892 c -4.36879,-7.60496 19.86761,-8.42461 4.32105,1.25655 l -1.42843,0.82324 -2.89262,-2.07979 z m -61.54975,109.84655 c -6.91092,-12.64988 0.0837,12.46287 0,0 z m 6.89646,-20.80101 c 7.3381,-16.66861 10.00369,-35.4329 21.3028,-50.20593 -17.10833,0.13555 -22.33647,23.88153 -26.41169,38.19033 -3.10238,7.13416 -6.16846,37.14503 3.13559,16.22978 l 0.99745,-2.07945 0.97585,-2.13473 0,0 z m 187.7733,-108.46868 c 4.61668,-13.48662 -14.11758,7.67389 -1.76496,2.40069 l 1.76496,-2.40069 z m 12.65365,-5.19397 c -6.94292,-5.9502 -2.65553,6.13278 0,0 z M 310.0145,79.232831 c 2.42998,-17.731368 -12.48294,13.61981 -1.07862,2.964731 l 1.07862,-2.964731 z"
       id="path3032"
       inkscape:connector-curvature="0" />
    <path
       style="fill:#d1d6cd"
       d="m 221.94032,463.28816 c -24.32551,-0.76646 -47.57623,-9.56701 -66.7917,-24.43194 -39.04153,-27.53231 -65.237128,-72.88982 -66.354606,-120.96775 -0.924797,-6.62589 -0.02075,-36.38718 4.595999,-25.56916 1.330601,22.57454 9.763967,-26.09786 10.097577,-3.78913 -3.15944,28.66874 -4.323305,59.07113 8.46946,85.744 4.35665,-13.4502 14.86711,11.00878 23.46669,12.63612 12.92188,14.10763 30.25027,25.14881 48.5112,13.37698 11.64079,-2.26012 35.3989,-6.8997 41.0438,-2.98207 -9.34596,-0.0157 -32.98009,9.98537 -11.72424,12.57731 16.44105,10.87806 36.86764,5.56487 55.09404,8.59707 7.20163,-9.47441 36.91937,6.81338 41.56459,-9.14242 -6.07758,-7.00669 -28.13875,-12.93894 -6.1897,-10.86491 15.78272,1.4983 29.20304,15.55649 44.96789,3.47958 18.1528,-5.28282 36.12314,-13.57892 46.62564,-30.24441 4.8721,-6.22835 19.97608,-38.42236 16.83673,-13.39785 -8.55043,34.0018 -34.27312,60.7921 -60.87302,82.24397 -19.51514,16.01569 -44.67616,26.06903 -70.18932,22.35391 -19.81367,-1.49707 -39.56283,-0.78842 -59.15103,0.3807 z m 22.44332,-54.17196 c -1.29512,-5.97183 22.80529,-5.72779 28.52964,-3.6126 -5.10532,4.5832 -20.86494,4.68562 -28.52964,3.6126 z m -22.09188,-6.70895 c 9.2637,-1.53996 3.35502,2.21979 0,0 z m 192.30858,-68.39824 c 0.83592,-14.23347 4.97252,-7.52912 1.34157,1.76955 l -1.02174,-0.14102 -0.31983,-1.62853 z m 0.81,-21.26014 c -5.18766,-23.71594 -19.44693,-45.65605 -41.42365,-56.86937 -13.31935,-4.18995 -22.02002,-27.59481 -2.17064,-28.34164 -6.56344,-21.02687 -27.09724,-33.86361 -36.80916,-53.3031 20.89603,12.23809 36.54151,31.81601 52.56638,49.60425 18.99101,23.45602 30.73546,53.15777 30.91944,83.45678 0.3094,1.10377 -1.13091,9.79419 -3.08237,5.45308 z M 127.08148,255.82845 c -8.42158,-16.30205 32.77281,-35.78346 16.20693,-14.902 -3.71314,1.36645 -6.5164,22.05646 -16.20693,14.902 z m -24.57042,-4.02337 c 5.07295,-17.74139 16.13119,-34.54956 29.06744,-47.50894 0.38965,7.60978 0.1785,9.64874 6.969,5.79867 -1.39899,11.82638 -10.92327,13.24037 -17.58237,12.76398 -6.37742,5.46361 -12.43214,32.08806 -18.45407,28.94629 z m 256.62516,-32.16549 c -7.73945,-9.51101 7.42557,2.65568 0,0 z M 146.51037,198.54708 c 4.25048,-7.75706 21.23762,-17.56582 7.5258,-3.88503 -0.87253,1.0445 -11.2007,11.47394 -7.5258,3.88503 z m 42.49835,-34.89357 c 7.80392,-2.44309 18.87982,-21.49718 23.51807,-8.41266 1.88312,2.64101 -33.15571,17.45025 -23.51807,8.41266 z m 27.08649,-6.45096 c -5.65193,-7.32268 -0.38478,-36.84343 7.82636,-20.98195 -0.79658,9.7214 -12.94583,18.448 3.70733,20.41044 -2.36102,1.5019 -10.39787,5.07287 -11.53369,0.57151 z m 26.00606,1.33349 c -11.22008,1.34959 -14.74954,-5.09298 -1.58441,-5.28307 20.59798,-1.07263 41.54306,-0.58421 61.96851,1.61855 14.37652,6.3396 0.70654,5.03232 -6.64992,4.80271 -17.91282,-0.3031 -35.8272,-0.57573 -53.73418,-1.13819 z m 46.03654,-12.91235 c -6.33589,-13.4557 8.77191,-15.61837 5.29757,-0.65745 0.45688,6.15295 -4.6426,7.24209 -5.29757,0.65745 z m -67.22089,-41.25636 c -11.50699,-4.05782 -15.09292,-15.870001 -29.259,-13.735932 -1.97843,-8.56146 -2.90075,-18.099117 0.006,-26.751741 7.44644,0.355539 14.89289,0.711078 22.33933,1.066616 -0.0197,-9.602583 -2.26766,-19.456416 -0.229,-28.888275 18.45026,-5.158863 39.29292,-1.688195 58.61635,-2.519055 14.91905,-1.183983 33.89171,-0.489216 25.65525,19.534503 -8.47322,24.080908 29.73679,-0.58485 22.03585,25.023232 5.0845,21.430873 -22.96805,4.382285 -22.42758,21.902137 -8.23136,-3.720342 -12.04958,14.480965 -24.98738,8.854425 -16.25464,0.43235 -32.50966,-0.16421 -48.76237,-0.39999 -0.99595,-1.36196 -1.99183,-2.72405 -2.98782,-4.08592 z m 89.5291,-19.799611 c 12.3884,-9.899946 -8.78667,-27.911918 -7.27897,-7.354598 -8.03124,5.73399 1.40884,16.125311 7.27897,7.354598 z M 207.4853,83.937772 c 12.82785,-2.219273 -5.91959,-9.320826 -3.10614,-17.603089 -13.46095,-3.282627 -7.45865,26.292672 3.10614,17.603089 z"
       id="path3030"
       inkscape:connector-curvature="0" />
    <path
       style="fill:#b9c4b6"
       d="M 197.59137,458.37767 C 167.39866,450.67082 142.755,428.70985 122.28054,406.11822 99.472232,377.15019 87.433245,338.7651 91.220615,301.96701 c 3.120372,-1.52243 2.056686,17.26896 5.777799,2.73572 1.19744,-8.92684 7.328046,-22.65854 4.075086,-4.98555 -2.845419,30.2296 -0.37749,63.4092 16.79229,89.24215 15.21741,-7.57984 27.83926,14.92242 41.84026,19.70654 9.78443,8.55155 19.48268,0.77695 26.06207,-2.71718 6.16157,16.58485 31.33429,16.92136 46.21774,23.62104 20.45677,1.0058 44.42105,7.72713 62.96895,-1.20063 7.19743,-6.75535 19.87814,-13.16084 20.24176,-21.44927 4.76822,6.43842 -2.75186,13.61887 10.21132,7.09691 18.66916,-5.88537 39.65043,-6.98073 54.31088,-21.65752 15.33866,-4.02563 21.42392,-30.74921 30.13681,-32.43856 -5.2734,21.11608 -18.59315,39.78253 -32.64359,56.11728 -13.40194,8.636 -23.02881,23.46177 -38.34346,23.49398 7.76949,11.09425 -22.70003,20.16266 -32.95244,19.61194 -3.83202,-14.81987 -23.07841,-7.27408 -37.13091,-9.602 -20.38174,-0.1276 -40.93451,-5.14263 -61.15239,-2.03622 10.45109,5.64618 -28.72591,1.11534 -7.58614,8.2402 17.28049,2.31579 8.93676,5.58875 -2.45528,2.63183 z m -3.49599,-46.37828 c -6.71717,-9.40391 10.39911,-14.73803 4.76561,-0.51822 0.20056,3.01699 -3.98302,2.51051 -4.76561,0.51822 z M 412.0224,294.02 c -8.28777,-19.39846 -25.74743,-32.67598 -43.06817,-43.60583 -11.33462,-6.06786 -8.97945,-20.91719 3.97057,-21.80427 3.59427,-6.62688 -13.36922,-29.62522 1.5634,-16.07362 19.11822,19.19485 33.67607,43.39926 38.10962,70.37908 1.92771,1.48275 4.58976,21.5906 -0.57542,11.10464 z M 127.69575,253.46509 c -1.78076,-12.72725 16.9687,-21.83182 8.40651,-3.43187 -1.35344,2.4987 -5.72591,7.30095 -8.40651,3.43187 z m 15.3329,-18.72 c 2.69521,-8.08496 5.33638,7.37076 0,0 z m 61.81199,-79.02969 c 10.30189,-5.49541 -4.41618,8.33075 0,0 z m 41.78804,1.4675 c -16.61723,-3.58079 15.62082,-3.56133 20.19544,-3.25382 9.30067,-1.07589 31.86355,2.74548 9.70292,2.70779 -9.98309,-0.25838 -19.93263,1.3626 -29.89836,0.54603 z m 42.54016,-13.29365 c -5.04601,-19.6998 10.20028,-1.89736 0,0 z m -73.06125,-1.51055 c -3.195,-20.84057 16.70173,0.84811 0,0 z m 4.48958,-42.30605 c -3.40375,-12.597174 -8.33841,-20.452556 -11.48395,-31.3045 15.08847,-7.547103 -7.81319,-41.933456 21.11746,-33.835786 21.44472,-0.39143 42.96765,-1.909515 64.38696,-0.499754 8.31868,11.24514 -3.19375,30.77928 5.35106,43.871335 -7.55125,11.739884 -9.63277,35.178995 -30.65338,29.222895 -14.93858,0.26687 -29.88029,0.13592 -44.82045,0.18353 -1.29922,-2.5459 -2.59856,-5.09184 -3.8977,-7.63772 z M 191.70694,86.537898 c -4.75019,-9.455624 3.86843,-30.911461 4.84902,-9.808408 0.0652,8.268878 10.96585,16.706294 -4.19448,11.371213 l -0.65454,-1.562805 z m 121.59684,-0.742893 c 1.82845,-5.173803 1.86584,-29.582403 5.13688,-11.789422 1.10235,3.567038 -0.11032,21.656248 -5.13688,11.789422 z"
       id="path3028"
       inkscape:connector-curvature="0" />
    <path
       style="fill:#9fad9e"
       d="m 320.57616,449.72923 c 0.35022,-8.48453 0.51078,-23.80372 -13.7602,-21.46157 -0.20598,-8.43584 23.81895,-9.61231 32.64914,-15.09963 19.69566,-2.14049 34.87992,-16.2206 51.45114,-25.51612 12.03678,-1.09263 -9.67115,19.11899 -12.70513,24.65183 -8.86764,8.267 -21.47562,12.878 -26.6325,22.52307 -9.19729,-6.7394 -33.97646,11.43175 -17.88156,12.62199 -1.34314,1.37772 -18.83033,9.02123 -13.12089,2.28043 z m -140.42984,-3.34988 c 10.95659,-6.87793 11.92692,9.26958 -0.76901,1.68364 l 0.76901,-1.68364 z m 69.18246,-1.45269 c -19.39683,-1.64405 -39.12311,-0.48852 -57.89723,-6.56873 -17.95764,-3.81071 -39.29156,-0.79958 -51.65661,-17.47686 -22.31939,-18.42179 -37.94848,-44.17962 -43.556956,-72.62585 -3.262299,-10.46336 -7.920539,-32.34911 2.853941,-35.88134 0.691026,23.41673 0.957595,47.59712 12.396645,68.78153 2.74486,5.60594 10.36569,24.1397 12.38035,8.85435 19.55164,6.01178 33.64638,25.01612 55.04623,26.01401 14.42247,6.54627 28.07281,12.16944 42.2773,17.7758 29.52256,3.77993 59.46216,-0.88418 88.94538,1.58015 4.01917,18.67166 -26.76282,8.35099 -38.68809,10.65831 -7.37132,-0.2111 -14.76087,-0.35421 -22.10096,-1.11137 z m -82.16538,-5.88595 c 4.01714,-4.4633 14.8154,4.29562 2.0904,1.01864 l -2.0904,-1.01864 z m 233.5627,-64.21948 c 6.24296,-12.84388 7.12982,-8.02683 0.65495,1.44945 l -0.52452,0.0416 -0.13043,-1.49104 0,0 z m 4.36973,-95.13111 c -8.61898,-19.13147 -33.59032,-22.5721 -41.97508,-40.62729 10.81341,-18.207 33.58051,-2.19791 39.0277,13.77172 0.45119,2.58257 13.13859,38.4657 2.94738,26.85557 z M 128.36308,252.5268 c 0.48902,-11.31301 12.35612,-14.17529 5.78201,-0.99233 -1.27576,0.97822 -4.5358,3.01044 -5.78201,0.99233 z M 289.7708,139.77857 c 1.20735,-7.4693 1.47073,5.9976 0,0 z m -53.41,-33.06619 c -18.99638,1.31419 -22.16776,-26.782633 -20.81437,-40.033442 0.91528,-13.583853 -7.58144,-37.400856 15.45789,-31.554404 22.22803,-0.377189 44.46066,-0.159296 66.69093,-0.217711 -0.87106,11.650413 -1.37971,23.85637 -5.23654,34.648109 7.85869,10.727621 -3.08207,25.383288 -8.56193,35.828388 -15.70474,2.22442 -31.72276,1.87961 -47.53598,1.32906 z M 193.28388,85.91882 c -3.68741,-7.023857 1.93918,-26.147056 2.02877,-7.924193 -0.63132,0.923142 1.3449,11.209243 -2.02877,7.924193 z"
       id="path3026"
       inkscape:connector-curvature="0" />
    <path
       style="fill:#998a71"
       d="m 264.54459,443.83791 c -12.48348,0.48888 -14.37307,-4.0975 -2.1061,-6.09969 13.45628,-0.14277 34.86641,-3.83992 44.02841,1.49003 -12.31393,6.497 -28.32339,4.60814 -41.92231,4.60966 z m -62.00443,-6.5241 c -14.05378,-10.08846 18.23349,5.70186 0,0 l 0,0 z m -25.30448,-4.44294 c -17.64586,-5.83137 -34.52882,-11.95364 -46.72852,-27.16234 -11.28935,-11.1455 -0.51761,-15.37567 8.62392,-5.93783 8.42232,7.52001 28.67041,12.5995 31.01384,20.20856 -17.19736,2.74988 28.95023,15.77206 7.09076,12.89161 z m 151.21531,-3.80966 c -17.29922,-6.78936 15.56807,-15.18147 22.82372,-16.24141 12.42017,-2.26013 27.33715,-20.35876 35.75716,-18.55306 -11.11464,14.4183 -26.31397,28.75662 -44.90126,34.16319 -4.47535,1.00186 -9.13168,1.28434 -13.67962,0.63128 z M 95.272011,326.86384 c 0.786008,-12.65561 0.986529,11.5784 0,0 z M 403.26207,274.61368 c -2.92693,-9.4947 9.04017,3.11464 0,0 z M 254.07441,106.6501 c -18.08059,1.75638 -35.71059,-1.82285 -35.93805,-23.455221 -6.9721,-11.986034 5.57228,-16.436934 -1.70616,-28.213192 1.39897,-5.867961 -6.7331,-20.868095 3.79117,-18.643755 25.03927,0.247671 50.1517,-1.908185 75.13038,-0.182045 0.85931,10.665503 3.69807,30.511517 -11.83852,31.685163 14.4302,7.730867 5.94518,27.784254 -0.56928,36.8272 -9.54754,1.15977 -19.2532,2.32361 -28.86954,1.98185 z"
       id="path3024"
       inkscape:connector-curvature="0" />
    <path
       style="fill:#7c9282"
       d="m 264.54459,443.83791 c -12.48348,0.48888 -14.37307,-4.0975 -2.1061,-6.09969 13.45628,-0.14277 34.86641,-3.83992 44.02841,1.49003 -12.31393,6.497 -28.32339,4.60814 -41.92231,4.60966 z m -62.00443,-6.5241 c -14.05378,-10.08846 18.23349,5.70186 0,0 l 0,0 z m -25.30448,-4.44294 c -17.64586,-5.83137 -34.52882,-11.95364 -46.72852,-27.16234 -11.28935,-11.1455 -0.51761,-15.37567 8.62392,-5.93783 8.42232,7.52001 28.67041,12.5995 31.01384,20.20856 -17.19736,2.74988 28.95023,15.77206 7.09076,12.89161 z m 151.21531,-3.80966 c -17.29922,-6.78936 15.56807,-15.18147 22.82372,-16.24141 12.42017,-2.26013 27.33715,-20.35876 35.75716,-18.55306 -11.11464,14.4183 -26.31397,28.75662 -44.90126,34.16319 -4.47535,1.00186 -9.13168,1.28434 -13.67962,0.63128 z M 95.272011,326.86384 c 0.786008,-12.65561 0.986529,11.5784 0,0 z M 403.26207,274.61368 c -2.92693,-9.4947 9.04017,3.11464 0,0 z M 246.28561,105.24749 c -19.64275,2.56418 -20.92551,-14.843467 -28.19912,-28.193043 -5.75097,-11.99364 34.99986,-8.384408 10.32055,-12.732446 -9.02169,2.022854 -11.216,-3.227815 -10.71205,-11.353068 -7.7943,-24.735067 25.56836,-12.595128 39.99573,-15.748019 12.4285,-0.02847 24.85699,-0.05694 37.28549,-0.08541 2.1105,17.30952 -4.76514,32.264944 -24.29036,29.526656 11.48652,5.247128 25.89247,16.4519 11.71766,27.587514 6.47492,16.090432 -29.03174,10.900802 -36.1179,10.997812 z"
       id="path3022"
       inkscape:connector-curvature="0" />
    <path
       style="fill:#748b7a"
       d="m 264.54459,440.52649 c 5.06781,-4.66582 17.21407,-1.84741 3.879,1.39715 l -2.31872,-0.22445 -1.56028,-1.1727 0,0 z m 62.51254,-14.65608 c 1.24971,-10.46263 43.07861,-16.37949 19.57695,-3.81724 -5.69796,3.17092 -13.11784,5.45976 -19.57695,3.81724 z m -171.78109,-2.64713 c -4.22817,-8.43459 13.2688,0.48743 0,0 z m -2.98795,-8.62021 c -10.09314,-2.54178 -22.35955,-19.48604 -4.50279,-7.94393 9.18721,3.88685 29.61056,16.68209 7.62474,9.26804 l -3.12195,-1.32415 0,4e-5 z m 93.99752,-309.35558 c -19.64275,2.56418 -20.92551,-14.843467 -28.19912,-28.193043 -5.75097,-11.99364 34.99986,-8.384408 10.32055,-12.732446 -9.02169,2.022854 -11.216,-3.227815 -10.71205,-11.353068 -7.7943,-24.735067 25.56836,-12.595128 39.99573,-15.748019 12.4285,-0.02847 24.85699,-0.05694 37.28549,-0.08541 2.1105,17.30952 -4.76514,32.264944 -24.29036,29.526656 11.48652,5.247128 25.89247,16.4519 11.71766,27.587514 6.47493,16.090432 -29.03174,10.900802 -36.1179,10.997812 z"
       id="path3020"
       inkscape:connector-curvature="0" />
    <path
       style="fill:#887153"
       d="m 246.28561,105.24749 c -19.64275,2.56418 -20.92551,-14.843467 -28.19912,-28.193043 -5.75097,-11.99364 34.99986,-8.384408 10.32055,-12.732446 -9.02169,2.022854 -11.216,-3.227815 -10.71205,-11.353068 -7.7943,-24.735067 25.56836,-12.595128 39.99573,-15.748019 12.4285,-0.02847 24.85699,-0.05694 37.28549,-0.08541 2.1105,17.30952 -4.76514,32.264944 -24.29036,29.526656 11.48652,5.247128 25.89247,16.4519 11.71766,27.587514 6.47492,16.090432 -29.03174,10.900802 -36.1179,10.997812 z"
       id="path3018"
       inkscape:connector-curvature="0" />
    <path
       style="fill:#6a5237"
       d="m 246.53727,103.22016 c -10.13256,1.54522 -12.72381,-5.24571 -12.04402,-10.39334 -17.2928,-8.264791 -11.68515,-26.247365 6.74672,-25.533698 -8.16748,-4.218126 -34.44558,-29.127725 -10.53547,-29.087389 18.19869,0.366807 37.50557,-2.242549 54.98355,1.536427 5.76422,13.317851 0.17688,28.237612 -16.98584,24.036432 -26.74894,1.968557 33.40709,15.98912 3.6511,26.777213 -9.62759,6.941456 12.97479,8.490901 -4.08629,13.219195 -7.14023,1.39969 -14.67847,1.2796 -21.72975,-0.55484 z"
       id="path3016"
       inkscape:connector-curvature="0" />
  </g>
  <path
     sodipodi:type="arc"
     style="opacity:0.70353986;fill:#800000;fill-opacity:1;fill-rule:nonzero;stroke:none"
     id="path3038"
     sodipodi:cx="257.72244"
     sodipodi:cy="318.70816"
     sodipodi:rx="141.13373"
     sodipodi:ry="131.92935"
     d="m 398.5443,309.94238 a 141.13373,131.92935 0 1 1 -281.70279,0.87291 l 140.88093,7.89287 z"
     sodipodi:start="6.2166933"
     sodipodi:end="9.4846402"
     transform="matrix(1.1304135,0,0,1.1395122,-39.746736,-50.599912)" />
</svg>
