<?xml version="1.0" encoding="UTF-8" standalone="no"?>
<svg
   xmlns:dc="http://purl.org/dc/elements/1.1/"
   xmlns:cc="http://creativecommons.org/ns#"
   xmlns:rdf="http://www.w3.org/1999/02/22-rdf-syntax-ns#"
   xmlns:svg="http://www.w3.org/2000/svg"
   xmlns="http://www.w3.org/2000/svg"
   xmlns:sodipodi="http://sodipodi.sourceforge.net/DTD/sodipodi-0.dtd"
   xmlns:inkscape="http://www.inkscape.org/namespaces/inkscape"
   viewBox="0 0 512 512"
   id="svg8438"
   version="1.1"
   inkscape:version="0.48.4 r9939"
   width="100%"
   height="100%"
   sodipodi:docname="thunderball.svg">
  <metadata
     id="metadata8464">
    <rdf:RDF>
      <cc:Work
         rdf:about="">
        <dc:format>image/svg+xml</dc:format>
        <dc:type
           rdf:resource="http://purl.org/dc/dcmitype/StillImage" />
        <dc:title></dc:title>
      </cc:Work>
    </rdf:RDF>
  </metadata>
  <defs
     id="defs8462" />
  <sodipodi:namedview
     pagecolor="#ffffff"
     bordercolor="#666666"
     borderopacity="1"
     objecttolerance="10"
     gridtolerance="10"
     guidetolerance="10"
     inkscape:pageopacity="0"
     inkscape:pageshadow="2"
     inkscape:window-width="2560"
     inkscape:window-height="1378"
     id="namedview8460"
     showgrid="false"
     inkscape:zoom="1.84375"
     inkscape:cx="150.40354"
     inkscape:cy="223.23151"
     inkscape:window-x="-8"
     inkscape:window-y="-8"
     inkscape:window-maximized="1"
     inkscape:current-layer="g8466" />
  <g
     id="g8466">
    <path
       id="path8440"
       d="m0,0h512v512h-512z" />
    <path
       style="fill:#0000ff;fill-rule:evenodd"
       inkscape:connector-curvature="0"
       d="M 17.690523,20.083629 366.24936,171.32283 263.61542,214.60932 425.37816,304.66585 314.12317,460.50431 98.608337,223.36492 177.50592,192.01483 z"
       id="path8444" />
    <path
       style="fill:#000000;stroke:#00ffff;stroke-width:18.68844985999999900;stroke-opacity:1"
       inkscape:connector-curvature="0"
       d="m 475.21354,393.47525 c 0,49.26853 -39.93986,89.20839 -89.20839,89.20839 -49.26853,0 -89.20839,-39.93986 -89.20839,-89.20839 0,-49.26853 39.93986,-89.20839 89.20839,-89.20839 49.26853,0 89.20839,39.93986 89.20839,89.20839 z"
       id="path8446" />
    <path
       style="fill:#ffffff"
       inkscape:connector-curvature="0"
       d="m 366.84264,417.61427 -49.75086,-48.0932 43.94619,-36.48197 -53.06809,-47.26529 79.60027,40.63084 -37.31362,44.7741 56.38345,27.36569"
       id="path8448" />
    <path
       style="fill:#ffffff"
       inkscape:connector-curvature="0"
       d="m 339.77145,394.63698 -73.68653,37.0004 7.02195,-52.24179 9.74078,25.38675 68.56079,-33.52594"
       id="path8452"
       inkscape:transform-center-x="84.067797"
       inkscape:transform-center-y="3.7966102" />
    <path
       style="fill:#ffffff"
       inkscape:connector-curvature="0"
       d="m 367.18132,418.40297 27.90205,40.0571 51.42724,-5.21972 -41.75776,-8.72944 -32.20977,-45.06938"
       id="path8454" />
    <path
       style="fill:none;stroke:#000000;stroke-width:18.68857956"
       inkscape:connector-curvature="0"
       d="M 83.549079,219.68514 205.80977,172.30959"
       id="path8456" />
    <path
       style="fill:none;stroke:#000000;stroke-width:18.68857956"
       inkscape:connector-curvature="0"
       d="m 224.14887,241.59189 150.78881,-63.6776"
       id="path8458" />
    <path
       style="fill:#ffffff"
       inkscape:connector-curvature="0"
       d="m 264.80383,239.02115 17.64851,-19.44687 47.10152,43.45889 -38.43565,-24.42797 -16.62912,16.53785"
       id="path8450" />
    <path
       style="fill:#ffffff"
       inkscape:connector-curvature="0"
       d="m 142.20669,259.69061 -56.192821,-20.16871 27.737591,-34.94391 -6.48307,25.57906 51.87016,19.44733"
       id="path8452-4" />
    <path
       style="fill:#ffffff"
       inkscape:connector-curvature="0"
       d="m 444.00027,313.33775 -27.52075,-46.32607 -76.69462,-41.81982 58.01391,41.10364 32.15467,52.83233"
       id="path8454-5" />
    <path
       style="fill:#ffffff"
       inkscape:connector-curvature="0"
       d="M 121.02045,68.580903 93.118413,28.5238 41.691186,33.74352 83.448943,42.47295 115.6587,87.542333"
       id="path8454-5-8" />
    <path
       style="fill:#ffffff"
       inkscape:connector-curvature="0"
       d="m 340.48132,194.56578 27.89286,-24.21994 -48.27183,-33.56702 25.18994,30.98704 -23.98376,22.23912"
       id="path8450-8" />
    <path
       style="fill:#ffffff"
       inkscape:connector-curvature="0"
       d="m 277.98739,171.979 -30.70564,-38.89336 -70.49865,-12.40569 54.96245,19.79767 35.65236,44.0191"
       id="path8454-5-8-9" />
    <path
       style="fill:#ffffff"
       inkscape:connector-curvature="0"
       d="m 404.50511,399.62411 56.19282,-20.16871 -27.73759,-34.94391 6.48307,25.57906 -51.87016,19.44733"
       id="path8452-4-8" />
    <path
       style="fill:#ffffff"
       inkscape:connector-curvature="0"
       d="m 716.546,281.32466 -32.67118,-27.17291 -60.21743,3.54082 48.89519,5.92165 37.71521,30.57301"
       id="path8454-5-8-6" />
    <path
       style="fill:#ffffff"
       inkscape:connector-curvature="0"
       d="m 285.8704,319.41519 -27.52075,-46.32607 -76.69462,-41.81982 58.01391,41.10364 32.15467,52.83233"
       id="path8454-5-6" />
    <path
       style="fill:#ffffff"
       inkscape:connector-curvature="0"
       d="m 238.05926,394.34497 -46.32607,-27.52075 -41.81982,-76.69462 41.10364,58.01391 52.83233,32.15467"
       id="path8454-5-2" />
    <path
       style="fill:#ffffff"
       inkscape:connector-curvature="0"
       d="M 182.19485,187.15853 135.86878,159.63778 94.048965,82.943164 135.1526,140.95707 l 52.83233,32.15467"
       id="path8454-5-2-3" />
  </g>
</svg>
