<?xml version="1.0" encoding="UTF-8" standalone="no"?>
<svg
   xmlns:dc="http://purl.org/dc/elements/1.1/"
   xmlns:cc="http://creativecommons.org/ns#"
   xmlns:rdf="http://www.w3.org/1999/02/22-rdf-syntax-ns#"
   xmlns:svg="http://www.w3.org/2000/svg"
   xmlns="http://www.w3.org/2000/svg"
   xmlns:sodipodi="http://sodipodi.sourceforge.net/DTD/sodipodi-0.dtd"
   xmlns:inkscape="http://www.inkscape.org/namespaces/inkscape"
   viewBox="0 0 512 512"
   id="svg12293"
   version="1.1"
   inkscape:version="0.48.4 r9939"
   width="100%"
   height="100%"
   sodipodi:docname="fire arrow.svg">
  <metadata
     id="metadata12327">
    <rdf:RDF>
      <cc:Work
         rdf:about="">
        <dc:format>image/svg+xml</dc:format>
        <dc:type
           rdf:resource="http://purl.org/dc/dcmitype/StillImage" />
        <dc:title></dc:title>
      </cc:Work>
    </rdf:RDF>
  </metadata>
  <defs
     id="defs12325" />
  <sodipodi:namedview
     pagecolor="#ffffff"
     bordercolor="#666666"
     borderopacity="1"
     objecttolerance="10"
     gridtolerance="10"
     guidetolerance="10"
     inkscape:pageopacity="0"
     inkscape:pageshadow="2"
     inkscape:window-width="2560"
     inkscape:window-height="1378"
     id="namedview12323"
     showgrid="false"
     inkscape:zoom="1"
     inkscape:cx="-24.75544"
     inkscape:cy="273.26619"
     inkscape:window-x="-8"
     inkscape:window-y="-8"
     inkscape:window-maximized="1"
     inkscape:current-layer="svg12293" />
  <path
     d="m0,0h512v512h-512z"
     id="path12295" />
  <path
     style="fill:#00ffff;stroke:#000000;stroke-width:18.68928719000000200"
     inkscape:connector-curvature="0"
     id="path12299"
     d="M 469.37517,470.95607 C 405.4533,534.87794 261.99206,495.05507 148.94495,382.00795 35.897838,268.96084 -3.923704,125.50094 59.998168,61.579064 123.92004,-2.3428089 267.38128,37.480067 380.42706,150.52585 493.47284,263.57162 533.29705,407.0342 469.37517,470.95607 z" />
  <path
     inkscape:connector-curvature="0"
     id="path12301"
     d="M 389.747,392.72412 C 351.00232,431.4688 238.94941,382.23375 139.46922,282.75357 39.989039,183.27338 -9.2448371,71.221645 29.499843,32.476965 68.244522,-6.2677148 180.29743,42.967334 279.77644,142.44635 379.25546,241.92536 428.49168,353.97944 389.747,392.72412 z" />
  <path
     style="fill:#000080"
     inkscape:connector-curvature="0"
     id="path12305"
     d="m 73.098126,16.403702 11.5701,68.970204 -69.577583,-10.962721 49.33972,71.263295 74.987927,-5.54864 5.55051,-74.989797 z" />
  <path
     style="fill:#00ffff"
     inkscape:connector-curvature="0"
     id="path12307"
     d="M 200.87382,371.24751 C 130.14875,352.29729 69.788379,323.72058 29.886392,293.08065 59.971268,358.93921 146.3312,422.18884 258.52435,452.25316 z" />
  <path
     style="fill:#00ffff"
     inkscape:connector-curvature="0"
     id="path12309"
     d="m 275.77017,428.44951 c -96.90029,0 -183.848906,-11.97938 -245.347416,-31.24917 61.014476,55.82653 193.075456,94.56982 346.790896,94.57169 z" />
  <path
     style="fill:#00ffff"
     inkscape:connector-curvature="0"
     id="path12311"
     d="M 370.62406,208.42325 C 351.67571,137.70006 323.09713,77.337817 292.45907,37.437699 358.31763,67.522575 421.56539,153.8825 451.62971,266.07566 z" />
  <path
     style="fill:#00ffff"
     inkscape:connector-curvature="0"
     id="path12313"
     d="M 427.82606,283.31774 C 427.827,186.41932 415.84668,99.470702 396.57876,37.972192 452.40715,98.984799 491.15045,231.04765 491.15232,384.76122 z" />
  <path
     style="fill:#00ffff"
     inkscape:connector-curvature="0"
     id="path12315"
     d="m 178.27559,318.34948 c -28.1992,-38.77506 -46.29349,-77.74449 -52.59714,-109.06468 -15.83484,43.8621 -0.71578,110.20655 44.01534,171.71628 z" />
  <path
     style="fill:#00ffff"
     inkscape:connector-curvature="0"
     id="path12317"
     d="M 318.00636,184.1281 C 279.23129,155.9289 240.26374,137.83462 208.94355,131.53096 252.80751,115.69613 319.1501,130.8208 380.65983,175.54817 z" />
  <path
     style="fill:#00ffff"
     inkscape:connector-curvature="0"
     id="path12319"
     d="m 228.16849,358.43088 c -26.73962,-33.32361 -43.45282,-67.14059 -48.71552,-94.5773 -17.08323,39.20304 -4.18251,97.26846 38.23309,150.13097 z" />
  <path
     style="fill:#ffffff"
     inkscape:connector-curvature="0"
     id="path12319-5-7-2"
     d="M 255.99604,440.93952 C 204.46527,441.31398 153.4407,435.82823 113.05335,426.70776 167.76503,453.58624 253.45309,471.896 335.198,471.30337 z" />
  <path
     style="fill:#0000ff"
     inkscape:connector-curvature="0"
     id="path12319-5"
     d="M 221.04619,402.45558 C 171.351,388.83462 126.9832,368.55168 95.81317,346.95252 c 30.22477,46.11218 97.21681,90.73057 176.04872,112.33956 z" />
  <path
     style="fill:#00ffff"
     inkscape:connector-curvature="0"
     id="path12321"
     d="m 360.63688,233.02303 c -33.32361,-26.73775 -67.14246,-43.45281 -94.57543,-48.71365 39.20117,-17.0851 97.26472,-4.18624 150.1291,38.22936 z" />
  <path
     style="fill:#ffffff;stroke:#000000;stroke-width:18.68857956000000100"
     inkscape:connector-curvature="0"
     id="path12303"
     d="M 119.44394,94.133244 92.341757,121.23729 345.68228,398.14224 287.35522,414.04996 491.7952,493.58856 412.25848,288.55989 397.53001,346.29638 119.4458,94.133244 z" />
  <path
     style="fill:#ffffff"
     inkscape:connector-curvature="0"
     id="path12319-5-7"
     d="m 203.43069,353.48459 c -44.52845,-26.9276 -80.51706,-58.92324 -102.39231,-88.59948 9.54129,53.42543 57.39288,115.44061 128.02779,158.158 z" />
  <path
     style="fill:#ffffff"
     inkscape:connector-curvature="0"
     id="path12313-7"
     d="m 433.01921,278.05442 c 3.22972,-66.64327 -1.03088,-126.7903 -10.49393,-169.64462 31.32394,43.5786 50.07187,135.52842 44.95046,241.24722 z" />
  <path
     style="fill:#0000ff"
     inkscape:connector-curvature="0"
     id="path12311-8"
     d="M 391.64184,229.76143 C 380.19328,172.64849 362.92615,123.9026 344.41468,91.68102 c 39.79163,24.29523 78.00583,94.0357 96.17064,184.63796 z" />
  <path
     style="fill:#ffffff"
     inkscape:connector-curvature="0"
     id="path12319-2"
     d="M 347.85638,200.42027 C 318.77729,155.85538 285.62489,119.03893 255.82735,95.862473 307.0028,109.12977 369.44833,159.60139 415.57846,230.29438 z" />
</svg>
