<?xml version="1.0" encoding="UTF-8" standalone="no"?>
<svg
   xmlns:dc="http://purl.org/dc/elements/1.1/"
   xmlns:cc="http://creativecommons.org/ns#"
   xmlns:rdf="http://www.w3.org/1999/02/22-rdf-syntax-ns#"
   xmlns:svg="http://www.w3.org/2000/svg"
   xmlns="http://www.w3.org/2000/svg"
   xmlns:sodipodi="http://sodipodi.sourceforge.net/DTD/sodipodi-0.dtd"
   xmlns:inkscape="http://www.inkscape.org/namespaces/inkscape"
   sodipodi:docname="hammered chestplate.svg"
   height="100%"
   width="100%"
   inkscape:version="0.48.4 r9939"
   version="1.1"
   id="svg8438"
   viewBox="0 0 512 512">
  <metadata
     id="metadata8464">
    <rdf:RDF>
      <cc:Work
         rdf:about="">
        <dc:format>image/svg+xml</dc:format>
        <dc:type
           rdf:resource="http://purl.org/dc/dcmitype/StillImage" />
        <dc:title></dc:title>
      </cc:Work>
    </rdf:RDF>
  </metadata>
  <defs
     id="defs8462">
    <linearGradient
       id="linearGradient4077">
      <stop
         id="stop4079"
         offset="0"
         style="stop-color:#aa4400;stop-opacity:1;" />
      <stop
         style="stop-color:#ff9f00;stop-opacity:1;"
         offset="0.22752622"
         id="stop4081" />
      <stop
         style="stop-color:#803300;stop-opacity:1;"
         offset="0.4948855"
         id="stop4083" />
      <stop
         id="stop4085"
         offset="1"
         style="stop-color:#562200;stop-opacity:1;" />
    </linearGradient>
    <linearGradient
       id="linearGradient4057">
      <stop
         style="stop-color:#aa4400;stop-opacity:1;"
         offset="0"
         id="stop4059" />
      <stop
         id="stop4067"
         offset="0.22752622"
         style="stop-color:#ecd1a4;stop-opacity:1;" />
      <stop
         id="stop4065"
         offset="0.50136983"
         style="stop-color:#803300;stop-opacity:1;" />
      <stop
         style="stop-color:#562200;stop-opacity:1;"
         offset="1"
         id="stop4061" />
    </linearGradient>
    <linearGradient
       id="linearGradient3890">
      <stop
         style="stop-color:#701b1b;stop-opacity:1;"
         offset="0"
         id="stop3892" />
      <stop
         style="stop-color:#e31600;stop-opacity:1;"
         offset="1"
         id="stop3894" />
    </linearGradient>
    <linearGradient
       id="linearGradient3882">
      <stop
         style="stop-color:#600b0b;stop-opacity:1;"
         offset="0"
         id="stop3884" />
      <stop
         style="stop-color:#d11414;stop-opacity:1;"
         offset="1"
         id="stop3886" />
    </linearGradient>
    <linearGradient
       id="linearGradient3872">
      <stop
         style="stop-color:#800600;stop-opacity:1;"
         offset="0"
         id="stop3874" />
      <stop
         style="stop-color:#ff0004;stop-opacity:0;"
         offset="1"
         id="stop3876" />
    </linearGradient>
    <filter
       id="filter4074"
       inkscape:label="Black Light"
       inkscape:menu="Color"
       inkscape:menu-tooltip="Light areas turn to black"
       x="0"
       width="1"
       y="0"
       height="1"
       color-interpolation-filters="sRGB">
      <feColorMatrix
         id="feColorMatrix4076"
         type="luminanceToAlpha"
         result="result2" />
      <feComposite
         in2="SourceGraphic"
         id="feComposite4078"
         operator="arithmetic"
         in="result2"
         k3="2"
         result="result4" />
      <feBlend
         in2="result2"
         id="feBlend4080"
         in="result4"
         mode="multiply"
         result="result3" />
      <feComposite
         in2="SourceGraphic"
         id="feComposite4082"
         operator="in"
         in="result3" />
    </filter>
  </defs>
  <sodipodi:namedview
     pagecolor="#000000"
     bordercolor="#666666"
     borderopacity="1"
     objecttolerance="10"
     gridtolerance="10"
     guidetolerance="10"
     inkscape:pageopacity="0"
     inkscape:pageshadow="2"
     inkscape:window-width="1190"
     inkscape:window-height="1126"
     id="namedview8460"
     showgrid="false"
     inkscape:zoom="1"
     inkscape:cx="286.23437"
     inkscape:cy="349.15199"
     inkscape:window-x="160"
     inkscape:window-y="130"
     inkscape:window-maximized="0"
     inkscape:current-layer="svg8438"
     showguides="true"
     inkscape:guide-bbox="true" />
  <path
     style="fill:#000000"
     id="path3978"
     d="M -13.466093,0.1885736 H 514.89024 V 516.42957 H -13.466093 z"
     inkscape:connector-curvature="0" />
  <path
     transform="matrix(0.92592215,0,0,1,-12.92858,0)"
     sodipodi:end="6.1122693"
     sodipodi:start="6.11213"
     d="m 76.035958,-54.360671 a 10.606602,11.755651 0 0 1 2.51e-4,0.0016 l -10.452057,1.999461 z"
     sodipodi:ry="11.755651"
     sodipodi:rx="10.606602"
     sodipodi:cy="-52.359596"
     sodipodi:cx="65.584152"
     id="path4123"
     style="fill:#333333;fill-opacity:1;fill-rule:nonzero;stroke:none"
     sodipodi:type="arc" />
  <path
     sodipodi:type="arc"
     style="opacity:0.98999999;fill:#ff0000;fill-opacity:0.74970506;fill-rule:nonzero;stroke:none"
     id="path5005"
     sodipodi:cx="640"
     sodipodi:cy="124.5"
     sodipodi:rx="105"
     sodipodi:ry="118.5"
     d="m 743.4676,104.32865 a 105,118.5 0 0 1 0.002,0.0163 L 640,124.5 z"
     sodipodi:start="6.11213"
     sodipodi:end="6.1122693" />
  <g
     id="g6052"
     transform="translate(22,-2)">
    <path
       style="fill:#9e9b94"
       d="m 233.41236,481.48426 c -24.05485,-17.20488 -55.9397,-15.87038 -83.29857,-8.68164 -23.86909,-9.1011 -41.66501,-32.37445 -47.44834,-56.85897 -9.66816,-25.59853 17.9089,-45.48183 11.45587,-69.63274 -9.29157,-21.3053 -3.58651,-44.5363 -8.58634,-66.87334 -2.51163,-27.15667 -8.371355,-54.174 -9.80039,-81.28278 5.33544,-46.32395 15.96895,-91.94999 27.60144,-137.008568 6.02043,-26.076377 32.23346,-32.826179 55.18004,-26.644215 14.93615,-5.674922 52.6978,17.724885 24.72584,25.891777 -17.89706,5.29098 18.21913,10.276151 25.08751,9.589269 31.16878,0.306837 60.99971,-12.396606 84.95467,-31.843523 21.03924,-13.017159 49.69158,-15.996066 73.33775,-9.038646 25.18383,13.932086 -19.06855,22.433058 -13.35202,41.113564 -8.40365,43.473732 -18.67003,91.939452 2.69643,133.323952 7.10174,16.79175 30.29966,20.72946 41.67834,21.29536 -4.67885,17.9233 7.53664,34.16852 3.62089,50.84613 -13.72244,19.30186 -16.36293,41.89892 -14.01716,64.95942 1.10783,20.85098 7.66429,42.90024 -6.93876,61.02087 -15.90646,23.42822 -38.3788,42.29451 -62.55542,56.73674 -27.7113,13.91129 -57.71819,25.35141 -88.82665,27.80615 -5.47974,-0.005 -11.10343,-1.33537 -15.51513,-4.71881 z"
       id="path6074"
       inkscape:connector-curvature="0" />
    <path
       style="fill:#87837b"
       d="m 230.26488,477.65969 c -23.11354,-15.66981 -52.78839,-13.08059 -78.76495,-7.66379 -24.18675,-7.81937 -41.27357,-32.69846 -46.64549,-56.60997 -6.860003,-23.54316 12.51384,-41.07186 19.55849,-58.80126 -4.30639,-12.58806 -4.58384,-36.58413 14.06696,-22.64387 22.75641,6.49453 -1.80648,-10.41659 -11.15155,-10.71122 -15.45913,-10.83279 -8.09211,-34.45345 -16.14105,-50.70346 -0.35779,-23.99719 43.80126,18.31398 38.43163,-11.52663 0.49108,-16.05325 6.75147,-45.52712 -6.47525,-52.90725 -13.98436,1.46317 -20.36759,-15.8055 -2.44576,-12.37591 1.17083,-13.81387 -33.77112,-12.11991 -31.77547,6.85432 -6.93746,-16.4411 -5.2609,-35.82041 -3.11933,-53.33823 5.30932,-24.39274 12.45372,-48.371573 15.85639,-73.146842 3.00758,-28.835026 29.16588,-45.917758 56.21166,-36.830482 14.50434,-6.435816 50.73002,15.953117 22.59382,22.612064 -17.40155,8.41412 18.26858,12.552508 25.63257,12.190626 31.22721,1.314857 61.40921,-11.152293 85.53352,-30.392651 19.21885,-12.674977 43.88336,-15.956623 66.28126,-12.946418 16.10567,3.934429 12.37854,19.474154 -0.39976,24.463149 -10.76959,19.86563 -11.18099,43.648716 -15.0325,65.603574 -3.16592,31.78008 -4.07841,68.84109 18.52194,94.18583 9.67539,17.12184 40.21842,5.23452 32.26053,29.45327 3.22576,17.10962 11.47134,34.72584 -5.26151,48.32197 -3.72316,21.93406 -8.18064,46.25519 -2.62654,68.77941 8.77267,20.62457 -5.982,42.24722 -19.21713,57.39563 -33.92237,39.7006 -85.38488,60.04563 -135.98527,67.37956 -7.14096,0.0196 -14.08591,-2.61115 -19.90721,-6.64142 z m -111.35215,-51.4508 c -4.08157,-10.7007 -11.73839,-14.16184 -5.18848,-0.68586 1.02793,5.91205 7.75307,10.61826 5.18848,0.68586 z M 233.08,114.142 c -5.43101,-9.91405 -3.79348,9.2208 0,0 z M 98.463808,205.045 c -1.650336,-15.8598 6.546932,-0.8172 0.571061,1.07398 l -0.531135,-0.99889 -0.03993,-0.0751 z"
       id="path6072"
       inkscape:connector-curvature="0" />
    <path
       style="fill:#817d76"
       d="m 232.11854,477.77874 c -25.75421,-17.13616 -58.34399,-12.71959 -87.08748,-7.73316 -24.24628,-18.66225 -48.568591,-49.55081 -38.09536,-81.89394 1.73186,-14.21569 14.26895,-18.10881 21.42409,-24.99895 -0.12293,-10.70337 -12.12687,-43.40752 9.61627,-29.54098 9.9654,8.06549 21.33937,-1.98335 6.79442,-6.90688 -20.74069,-1.63409 -30.84318,-23.43615 -9.47698,-34.03956 11.95713,-3.78655 15.12141,-15.5577 4.52764,-19.50744 21.17074,7.64339 10.54809,-21.88443 13.10861,-33.59865 -0.30478,-15.77831 -1.64621,-31.59427 -5.0465,-47.02793 -9.81513,-13.62841 -32.04702,-7.50197 -39.93933,-7.32102 -6.96446,-20.0513 -1.74905,-40.88434 4.33771,-60.32576 6.88112,-27.668118 6.98529,-59.278871 25.75669,-82.236331 18.96257,-11.131146 44.39723,-4.68004 64.52666,-1.964042 15.32293,8.565727 3.01075,20.597307 -8.79817,21.606418 9.31068,13.148566 32.87457,11.009723 48.45403,9.821217 26.6785,-2.803156 51.82942,-14.648132 71.93163,-32.179099 19.67774,-8.18154 43.37743,-15.647032 64.33643,-9.913196 16.41395,3.998837 11.34071,21.215993 -3.10454,22.110814 -7.3,21.387265 -10.98653,44.63169 -14.12522,67.205999 -3.14815,30.42723 -1.52792,63.91322 15.25158,90.27933 14.40606,14.54175 40.84131,17.35755 36.08445,42.43632 7.38837,13.28494 6.76672,29.02068 -5.41043,37.87905 -6.64184,27.67788 -6.17901,56.74329 0.48969,84.3173 0.0458,24.07074 -22.29896,40.87314 -36.9767,57.64911 -30.21846,29.29101 -71.65833,42.48255 -111.98247,50.53099 -9.34711,1.47157 -19.06345,2.15669 -26.59672,-4.64961 z M 121.22615,428.48908 c 2.24561,-17.60833 -21.643113,-11.88833 -7.03354,1.45996 4.27397,7.03394 10.62598,10.66015 7.03354,-1.45996 z M 130.376,381.67 c -9.24333,-18.14248 -3.37753,14.7547 0,0 z M 342.80698,175.3474 c -5.44511,-9.56987 -20.99143,-19.06865 -12.90448,-3.36568 -7.92095,10.00495 8.85618,6.22089 12.90448,3.36568 z m 6.92573,-25.49065 c 0.26259,-13.43985 -23.30235,7.54619 -5.27048,2.69514 1.84134,-0.4239 4.23519,-0.83093 5.27048,-2.69514 z M 210.84775,125.29191 c 6.29547,-9.45636 -4.12985,-24.09495 -5.16398,-6.67957 -2.54764,3.72138 1.06592,14.75002 5.16398,6.67957 z m 28.61497,-6.92445 c 16.73364,-19.13004 -34.32497,-3.41587 -9.41124,5.40124 3.47789,-1.17448 6.28206,-3.58743 9.41124,-5.40124 z M 115.704,266.746 c -3.54984,-9.93729 15.46908,9.29194 0,0 z"
       id="path6070"
       inkscape:connector-curvature="0" />
    <path
       style="fill:#716e69"
       d="m 235.50742,479.59955 c -23.87176,-16.97591 -54.98719,-16.83083 -82.51436,-11.11023 -16.64482,2.85062 -39.89453,-32.87743 -36.61464,-31.4762 5.42364,5.50003 22.42713,15.76153 9.15267,1.97149 -8.6823,-8.19477 0.4469,-16.72669 2.04098,-16.68995 -13.80284,-5.85284 -31.07525,-13.45775 -19.78898,-31.43737 -2.43359,-9.89811 17.60671,-29.43461 15.10191,-13.70614 -4.08396,8.60634 5.63619,45.93598 11.20896,23.68268 -3.13458,-20.77343 -3.75038,-41.58187 -7.39581,-62.27681 0.0273,-19.13265 33.62679,15.53808 25.05231,-9.10129 -7.26141,-10.38017 -39.41927,-11.00884 -18.46983,-25.07834 6.80696,-8.15136 28.36979,-2.81816 19.2712,-19.88128 1.98909,-20.11068 4.78462,-40.01927 0.5,-60.09376 5.08732,-22.80083 -13.86201,-51.31672 -38.50161,-40.95186 -11.34151,2.35976 -10.69104,-27.527 -6.77995,-38.47839 7.14517,-24.13679 10.05519,-49.152607 15.73295,-73.596942 4.83414,-16.752211 16.35951,-38.823766 37.21513,-34.988645 16.27929,7.135937 47.13068,-7.894144 49.52519,17.672167 -3.72581,6.724067 -27.46221,5.723195 -10.09895,15.226499 27.24947,9.238984 57.68559,2.653123 83.35454,-8.687389 19.29466,-8.140512 32.91368,-27.266607 55.16396,-28.391266 15.90293,-3.053101 45.80198,-10.800346 50.23895,11.142309 -20.75983,10.151955 -19.84087,34.657434 -25.03214,54.159016 -7.18483,35.757611 -6.77591,74.794821 9.30351,108.110951 13.61109,18.39542 41.7067,21.63521 38.93316,48.39518 13.90839,22.27474 -14.52001,37.29407 -10.19847,60.9897 0.16986,22.53316 1.80052,43.81161 5.75346,66.07924 -5.1477,16.90127 -18.32866,30.60038 -30.28994,43.40578 -17.22574,17.08595 -36.82916,31.93796 -59.9148,40.06681 -23.66954,9.78143 -48.69002,18.13275 -74.46764,18.87892 -2.79696,-0.55641 -5.29165,-2.06968 -7.48176,-3.83488 z M 345.69099,176.51504 c -21.48456,-9.32935 23.67175,-34.48079 -5.42844,-32.47919 -11.39186,-2.73352 -10.77772,-15.54797 -18.08215,-0.88755 -8.6488,6.56874 -10.03598,15.47934 1.66395,7.16459 7.2306,8.50016 -13.38419,34.0571 8.53214,28.06438 4.48164,-0.0776 9.04911,-0.33734 13.3145,-1.86223 z m -68.62708,-44.11523 c -9.09662,-2.43238 0.8677,13.47137 0,0 z M 209.92707,131.569 c 4.61891,-9.18088 7.53803,-45.292906 -4.14198,-31.585255 1.29333,9.161265 -21.8125,17.611685 -3.96614,24.751105 2.94064,5.68214 -0.12486,21.20238 8.10812,6.83415 z m 12.64083,3.768 c -1.8726,-15.2302 -9.40753,4.21081 -0.18291,0.58366 l 0.18291,-0.58366 z m 119.09337,-11.0622 c -3.70891,-15.15485 -20.04168,14.55309 -2.15154,4.37598 l 1.14763,-1.20086 1.00391,-3.17512 z m -101.58925,-4.73283 c 24.56358,-15.88109 -30.05404,-23.252352 -20.94177,2.2804 3.10721,9.59702 16.02209,1.15483 20.94177,-2.2804 z m 112.33265,-4.09816 c -2.93977,-9.94915 -4.37755,16.87439 -0.0727,0.55712 l 0.0727,-0.55712 z"
       id="path6068"
       inkscape:connector-curvature="0" />
    <path
       style="fill:#65625c"
       d="m 230.0521,475.81312 c -24.16496,-15.90757 -54.2287,-10.69826 -81.20074,-8.98932 -9.75971,-0.47372 -28.72577,-16.19118 -12.49931,-21.84927 -9.28557,-1.41577 -17.53581,-21.05455 -2.36618,-16.37227 -10.54769,-14.82837 11.33899,-18.02873 3.18425,-34.44423 -6.16583,-18.86418 5.62786,-30.30047 5.73816,-48.50659 22.40447,-3.97481 10.43306,-35.18929 12.00857,-52.44827 2.0566,-9.67461 -0.1333,-40.71478 6.86168,-35.06553 8.56018,12.54961 13.63658,-29.28583 -4.00871,-21.98348 -8.91827,-16.59226 3.12073,-46.46424 -20.9114,-52.58229 -20.79545,0.1739 -38.287266,-15.13828 -28.26778,-36.09014 5.57054,-25.29254 11.1088,-50.601052 15.69039,-76.070705 3.60936,-24.297975 26.56188,-42.164878 50.15896,-32.066199 12.00759,-2.251523 48.64335,2.407238 29.33309,18.602346 -25.74975,4.910682 9.95109,20.403292 21.86839,16.03191 30.16479,0.135146 60.64814,-9.019026 83.37433,-29.406571 20.64284,-10.930874 47.47347,-20.912129 70.32822,-12.405872 16.21623,8.017291 1.39944,19.754353 -6.39193,24.010469 -9.24015,34.216878 -17.99908,69.484212 -13.25243,105.185732 2.06297,26.14956 13.31328,55.39157 39.39874,65.72131 13.17957,4.71391 8.83967,20.36321 8.88406,26.32558 16.4283,12.569 1.02206,30.55211 -8.51665,38.39791 2.15472,24.456 -3.14242,51.23335 6.57342,73.03045 5.16861,28.22395 -19.00209,49.83273 -37.08834,67.7479 -28.73327,27.24004 -67.57546,39.20049 -105.12416,48.31972 -11.31921,1.68303 -24.09286,1.95067 -33.77463,-5.09259 z M 202.61711,259.39141 c 2.38949,-13.49468 -4.63581,-14.86243 -3.26351,-0.68135 -0.12734,14.66793 2.92054,18.66447 3.26351,0.68135 z M 337.88,232.61163 c -6.99761,-5.9748 -1.97648,11.71853 0,0 z M 166.4272,197.6032 c -11.51871,-4.24144 5.38863,8.0964 0,0 z m 180.47463,-20.16692 c -9.38123,-11.38767 17.63057,-33.98183 2.14234,-37.03247 -11.65245,8.70713 -19.27516,-8.45364 -3.90796,-5.04135 11.87658,-4.49534 17.15442,-40.233594 -4.60562,-31.58246 -14.35981,-3.48753 -20.68664,6.35202 -4.59949,8.31116 -12.65634,1.01028 -11.83185,31.12631 -20.50804,11.65163 -9.31193,-10.81095 -16.1551,25.27623 -22.72149,5.60948 -7.54032,-23.20566 -30.64498,9.76471 -23.63919,23.68393 -1.5869,8.36152 2.7131,25.37022 5.18264,7.01302 -0.0714,-9.5415 9.41455,-35.67062 5.19291,-11.66398 -2.84607,21.73151 29.73629,9.29602 26.56858,31.47426 12.30118,2.46109 28.01571,-0.0299 40.89532,-2.42322 z m -81.16087,-33.59814 c 7.43691,-14.42339 -14.5983,-13.76439 -7.8427,0.53176 0.0937,15.69976 7.29168,12.44 7.8427,-0.53176 z m -17.46496,0.14212 c 1.65418,-15.15085 -22.62898,0.73675 -4.15301,0.52796 -0.56961,-0.60874 7.30566,1.66067 4.15301,-0.52796 z m -15.72,-13.81344 c 7.34364,-10.09384 38.42599,-22.96291 11.51266,-30.1664 -4.21926,-25.631898 -21.27504,4.15465 -28.08306,0.78291 5.46664,-23.515383 -20.81582,-9.064258 -27.57081,0.82592 -16.44571,-4.667893 2.04325,19.57605 1.35843,25.44998 5.07533,11.62293 25.25926,9.78587 24.21984,8.6995 0.88533,12.85681 14.1444,-4.65219 18.56294,-5.59191 z M 110.92982,407.08247 c -16.36772,-9.52134 18.01278,-30.4393 8.58577,-9.00915 6.36631,4.87422 -3.87012,18.68026 -8.58577,9.00915 z"
       id="path6066"
       inkscape:connector-curvature="0" />
    <path
       style="fill:#615d58"
       d="m 230.27677,475.78303 c -24.69608,-16.76461 -55.68219,-9.8013 -83.49441,-9.38732 -8.57123,0.64381 -21.85548,-18.92849 -5.96645,-9.57934 2.55509,-4.9955 -10.09203,-11.77121 1.63275,-14.60649 -8.93772,0.38953 -26.60205,-13.30218 -9.25402,-10.41043 7.64532,-19.20875 14.71497,-39.47115 14.84043,-62.22734 3.6599,-21.6631 12.98865,-41.79033 8.18319,-64.65741 2.42188,-13.3819 -4.99099,-39.8155 13.49666,-37.34731 11.24105,-15.14657 3.74564,-39.43685 -12.62737,-41.88123 -1.03237,-21.62905 -7.47772,-48.14825 -34.82857,-45.57354 -22.323283,-8.33706 -13.48896,-33.72333 -8.58927,-50.54635 6.11021,-24.77084 6.45357,-51.350875 17.20212,-74.714852 10.14148,-20.172235 33.90339,-20.85574 50.21784,-12.045977 10.63432,-9.0314 41.84522,3.417672 23.12525,14.36384 -13.58829,0.280018 -19.04554,10.281479 -2.52433,13.458427 27.03554,9.35353 57.018,2.07502 82.34071,-9.008197 19.71635,-11.058075 36.87661,-28.799777 60.76411,-29.070909 12.51706,-5.767409 49.24293,-2.955014 40.84873,14.207466 -25.29504,6.248502 -11.04784,41.480492 -29.70726,55.840012 -16.22076,-14.687213 -33.66176,6.16637 -50.10492,7.52097 -13.46979,-1.03661 2.13245,21.83334 -12.80536,9.98383 -13.01088,-3.09463 -29.23321,11.61538 -45.12714,12.89173 -11.87673,-0.29917 -28.9724,21.90107 -21.30425,25.45685 2.67119,-10.45031 11.80339,-13.86052 14.27248,-0.79113 8.53317,-10.07262 20.77644,-7.11047 14.17655,6.7909 -2.59084,7.96456 3.2559,22.87648 5.27345,6.80708 -1.04003,-9.84884 9.14743,-17.64337 6.23457,-3.26331 -2.19422,20.49059 8.65282,13.60427 9.65217,-1.15543 5.88116,5.50035 1.15245,14.3878 13.19099,8.94592 13.97071,-3.99136 11.43547,2.51546 0.63682,7.46447 16.19133,1.14569 34.27583,-2.20322 51.04029,-3.44219 15.75202,0.29934 3.16193,-33.5165 18.24329,-23.62054 0.0353,27.79018 11.95815,57.5898 37.57744,71.311 8.17846,10.8142 0.1226,26.44779 15.95192,34.50282 12.93352,21.59304 -33.08068,19.65036 -21.90602,45.27758 3.60059,15.35279 12.10949,31.07118 9.35815,47.28617 16.39443,20.02332 -1.05959,46.2703 -15.70083,61.76375 -21.52861,24.27408 -48.85989,43.89682 -80.56677,52.12235 -20.53995,6.54095 -42.26377,15.87943 -64.06299,12.23557 -3.39867,-1.27133 -6.62091,-2.97515 -9.68995,-4.90144 z M 320.71166,334.099 c -8.02742,-10.88505 7.67068,-41.64895 -4.94334,-41.3673 -3.22404,12.59476 -5.50656,42.13109 4.94334,41.3673 z M 203.7039,258.739 c 4.1505,-10.41375 -7.02787,-22.71254 -4.9728,-5.41172 -4.38295,8.83876 3.77286,37.94113 4.78499,13.04361 0.12295,-2.54202 0.1817,-5.08697 0.18781,-7.63189 z m 133.0936,-17.427 c 5.20555,-7.00252 7.61326,-39.6237 -5.01404,-20.63221 1.02928,11.52834 -11.06507,34.01799 -0.91043,38.40225 3.45953,-5.36365 2.9678,-12.19387 5.92447,-17.77004 z m 17.61669,14.601 c 1.90357,-10.00438 8.49863,-30.68533 3.8227,-33.94024 -2.10586,6.46145 -17.15233,39.65142 -3.8227,33.94024 z M 175.97861,203.161 c -5.9019,-12.12428 -27.73838,-10.90182 -8.95626,0.44086 2.12838,1.42063 15.34107,7.96761 8.95626,-0.44086 z M 280.24,186.676 c -5.97293,-7.37354 -14.25997,7.96919 0,0 z M 111.68988,163.87053 c -8.13037,-9.67726 4.59057,15.09759 0,0 z m 109.20876,-24.4251 c 9.67482,-9.13443 39.50919,-17.8238 39.6075,-21.8256 -8.38395,4.06531 -25.15135,5.64128 -7.57198,-1.11838 11.42813,-2.32707 16.38268,-19.408737 0.24799,-16.31943 -6.19696,-14.027609 -21.27084,-24.38894 -30.07443,-5.877848 -9.24905,7.543948 -2.20049,-15.680945 -15.65811,-10.308909 -10.99052,4.991476 -25.57766,13.829767 -33.14621,18.227777 9.27971,16.6916 16.44167,33.6682 37.27506,41.11605 3.5595,0.69892 7.16133,-1.10395 9.32018,-3.89366 z M 161.66868,128.743 c -4.39647,-10.80926 -2.39989,14.99091 0,0 z M 327.4,75.363001 c -7.35184,-10.143511 -4.24239,12.369661 0,0 z M 111.512,396.742 c 5.43101,-9.91405 3.79348,9.2208 0,0 z M 403.79113,244.91585 c 0.74709,-17.26808 14.02438,9.51315 0,0 z M 336.832,141.46 c 3.79099,-16.22834 15.7135,6.54935 0,0 z m 16.4239,-4.83664 c 0.48554,-16.49339 7.10297,8.20211 0,0 z"
       id="path6064"
       inkscape:connector-curvature="0" />
    <path
       style="fill:#56524c"
       d="M 230.984,475.75027 C 209.08428,460.72082 181.34626,464.29 156.30441,464.92114 c -0.20814,-9.99606 -29.18588,1.76084 -11.77119,-8.47017 -2.40289,-10.19524 -8.93277,-26.64443 -3.6295,-39.02089 13.58859,-6.57199 4.67886,-29.01078 13.41977,-39.3863 1.25776,-8.72823 6.78717,1.01524 4.20893,-11.69391 0.14613,-30.93718 -2.51092,-61.98157 0.90511,-92.83103 24.46287,0.55624 19.69554,-31.24578 12.62173,-46.54792 -5.58119,-11.49672 -8.45799,-17.74362 -14.13096,-7.00758 -7.03316,-8.001 -5.43179,-33.48506 5.20497,-15.24081 8.89074,9.62013 28.44239,0.64307 10.71449,-7.56259 -18.95283,-9.36931 -41.10564,-13.36987 -58.88912,-23.90047 3.42774,-2.15015 20.54696,-0.42802 6.4012,-6.42308 -23.019595,-12.15687 -0.90076,-41.92673 -1.21594,-61.30377 0.83064,-23.826328 4.26002,-55.096345 29.0748,-66.181697 14.62845,-10.439677 25.91265,14.757039 36.62856,0.289059 17.32208,-6.015013 34.4347,19.681816 9.01344,19.971603 -7.1372,15.317131 28.94924,17.744559 41.361,15.919136 32.33049,-1.559479 60.51782,-19.262856 85.4642,-38.340397 9.33078,-6.490383 11.76458,18.725247 23.36174,6.915441 -19.65084,-12.771929 24.25611,-19.04171 34.27117,-9.486515 21.13137,3.274466 -1.20255,15.483775 -7.33139,20.775467 -2.10689,21.079452 -8.80878,47.710543 -35.33783,41.545038 -17.59934,9.472015 -41.81834,4.273025 -54.35902,20.569635 -8.28874,-11.9934 -9.85965,12.15987 -24.06135,11.35295 -22.61105,2.70115 -39.2408,21.79495 -46.77174,39.22559 -2.52,9.89313 2.09364,18.01365 4.20643,3.36171 1.21837,-11.66761 6.63128,15.65533 9.23659,0.36849 8.11482,-17.44998 12.58314,4.75966 12.28666,1.96885 18.7668,-22.67288 10.39173,13.53145 7.94513,17.41879 7.21594,0.93219 11.86447,8.07737 22.14147,5.51954 -6.73509,2.71306 -4.409,-44.263 -3.18176,-16.66691 12.55685,22.84662 41.01844,-4.37286 61.64917,1.94779 16.93725,2.50447 29.55758,-4.79233 28.24544,-22.82996 8.53046,-1.06812 5.43408,29.35668 13.8536,37.50555 3.51446,20.6531 37.64753,26.89693 28.70154,49.58765 -1.77538,14.67756 29.42166,8.41429 16.7397,27.94834 -12.81869,10.12592 -41.23163,10.88575 -27.85872,35.19475 10.85518,20.38004 16.0022,41.74135 21.59329,62.90777 -2.70654,26.72938 -24.38948,46.60025 -43.00077,63.95183 -29.3506,25.69953 -68.11515,36.37636 -105.44642,44.19113 -10.03181,2.29942 -19.32245,1.96644 -27.58483,-4.71298 z m 39.824,-5.53227 c 2.3839,-9.92186 -9.92027,8.91121 0,0 z m 45.26886,-44.34401 c 11.20442,-11.17743 -19.1653,5.56342 0,8e-5 l 0,-8e-5 z m 16.57689,-55.76395 c 23.32953,3.62164 24.16314,-42.72354 -0.60476,-24.71253 -7.51829,3.88188 -18.10646,40.02627 0.60476,24.71253 z M 364.10402,358.12 c 2.0318,-16.13297 -7.58585,18.72081 -1.56829,4.22646 l 1.56829,-4.22646 z m -53.61935,1.30181 c -3.24396,-7.32937 -3.69674,12.45058 -0.78257,2.6441 l 0.78257,-2.6441 z M 325.304,337.37043 c -12.69299,-12.86371 11.39471,-50.26183 -9.83781,-49.38391 -6.12097,11.23073 -13.09192,59.33497 9.83781,49.38391 z m 20.37779,-9.30811 c 4.60435,-5.84298 14.48754,-25.19627 2.20117,-9.53649 -15.13621,2.59563 12.97386,-36.51741 -7.07199,-28.95968 -9.8489,11.445 -19.24549,37.08323 2.65122,41.12434 l 1.28393,-0.93885 0.93567,-1.68932 0,0 z M 358.84,288.412 c -7.24898,-14.92554 -8.18151,15.4475 0,0 z M 204.31757,260.70859 c 4.14211,-9.79245 -5.74597,-34.04231 -6.21823,-10.34511 -0.0932,9.26652 -2.81923,36.12229 4.59859,32.9901 1.35613,-7.46948 1.33154,-15.08566 1.61964,-22.64499 z m 136.61691,12.76159 c -3.44759,-11.63173 -10.6689,7.36174 0,0 z m -4.143,-27.44818 c 2.39931,-11.36454 13.03462,-44.35362 0.051,-41.70287 -4.88654,17.22788 -29.45486,46.52342 -10.22513,59.23328 7.16259,-2.13342 8.36537,-11.41841 10.17417,-17.53041 z m 19.90345,11.35095 c 8.38747,-12.89608 8.4857,-45.76457 4.15342,-49.53239 -6.72594,14.88602 -19.86666,41.57372 -9.89599,53.75678 l 3.10166,-1.85173 2.64091,-2.37266 0,0 z M 162.19531,137.21107 c 6.44584,-9.38839 -4.81911,-19.66858 -4.17846,-4.49854 -1.169,7.74219 -3.06881,44.51601 1.06222,21.34573 1.02862,-5.61759 2.05303,-11.23601 3.11624,-16.84719 z m 56.21269,7.99625 c 11.03045,-21.57145 50.16416,-13.76472 51.76777,-39.04246 6.22084,-20.000618 -30.96883,-4.55314 -20.55675,-26.115337 -13.40351,-10.247334 -28.59612,19.621082 -30.86277,2.096213 -15.70289,-4.081328 -31.80531,11.066644 -45.6213,15.222109 -4.06981,6.813945 1.48511,14.702685 -7.77892,14.097655 16.3124,10.37176 31.56108,21.97275 45.70728,35.31459 2.34298,1.96864 6.84922,2.4693 7.34469,-1.57277 z m -25.152,-4.58249 c -1.89726,-15.51361 -25.39068,1.40718 -5.99366,1.86402 1.41872,0.68049 6.4026,1.43217 5.99366,-1.86402 z M 302.248,90.592 c -7.11982,-8.241708 -8.37225,8.079633 0,0 z m 25.75877,-15.070124 c -3.35498,-16.359519 -9.67167,12.89702 0,0 z M 166.008,49.144 c -7.11982,-8.241708 -8.37225,8.079633 0,0 z"
       id="path6062"
       inkscape:connector-curvature="0" />
    <path
       style="fill:#4b4843"
       d="m 232.032,475.59192 c -20.71434,-14.3598 -46.99555,-11.43448 -70.82291,-11.66937 -11.84098,-10.21209 -31.62344,-33.81275 -14.82286,-45.20476 23.81586,4.76068 15.73881,-35.77902 15.63448,-51.93844 -0.4606,-28.12133 -3.50779,-56.26991 -1.19964,-84.38395 9.11109,4.22035 19.3998,2.85768 16.86502,-5.63049 19.26207,-10.97155 0.81219,-28.53031 0.72672,-44.84509 -11.99183,-15.75132 24.4767,-28.13731 -1.51043,-36.61846 -21.79181,-9.00199 8.2385,-20.48547 16.8624,-24.02506 -6.57673,-10.20819 2.0253,-19.30398 6.75246,-29.32901 -10.14901,-12.78007 17.96042,7.00636 9.93837,17.26509 0.62425,8.79875 -10.33328,33.29793 0.67121,33.9325 10.40777,-12.55269 8.20831,15.12114 23.15344,6.09908 8.16163,-2.86368 19.38652,-0.10438 28.95064,0.18667 -0.72604,14.06448 41.18989,7.25309 25.93197,31.15371 -9.19565,14.1542 -5.24076,45.03377 17.10361,30.34211 7.73417,-0.78728 26.08663,8.6073 10.09823,9.77688 7.51294,17.69696 -39.16336,8.67739 -14.89997,7.26161 25.55994,-14.13932 -36.52517,-4.27154 -16.57171,1.73068 6.00522,8.81265 13.28964,27.96534 20.30195,40.85242 -7.62861,13.02517 6.38739,29.72085 -6.57468,40.7049 -1.55911,17.42072 13.45019,20.05456 13.23592,0.52678 0.78701,-7.57094 9.72602,-28.36313 10.04751,-8.82534 -8.39152,15.55996 4.17293,53.96776 -17.30286,54.78298 -2.61393,-7.24674 -3.11843,-26.57464 -11.66186,-10.14355 -1.03722,20.12218 21.24353,46.0948 35.61314,19.97758 0.063,-12.60822 -11.19842,-32.93741 10.90809,-32.57798 4.96307,-4.16903 14.60661,-7.45592 13.06159,3.27056 16.1989,-15.95003 13.75854,-42.62011 29.52524,-58.88767 21.55858,-2.82036 13.8792,26.20195 23.76668,36.45921 4.03469,26.5517 -18.71224,46.48843 -35.38772,63.79481 -21.64255,22.05053 -50.52043,34.17424 -79.76757,42.39952 -18.0068,4.2796 -41.58938,15.27337 -58.62646,3.56208 z m 43.84453,-3.54693 c 18.48142,-11.93756 -30.81147,-6.10584 -7.76446,2.40792 2.67383,-0.50322 5.21283,-1.49896 7.76446,-2.40792 z m 24.47608,-7.8852 c 17.94736,-13.47188 -21.78346,4.59769 -1.46989,0.76232 l 1.00429,-0.52085 0.4656,-0.24147 0,0 z M 228.888,454.14488 c -11.89282,-21.91241 -6.66328,13.39007 0,0 z m -20.13625,-12.34097 c 0.79857,-15.51169 -12.72082,10.12304 0,0 z M 388.184,354.46319 c -6.87962,-16.02771 -8.47195,13.86261 0,0 z M 264.64907,297.25838 c -7.96333,9.41605 0.19948,39.7966 0.46332,12.44427 0.32478,-4.13499 0.64722,-8.3814 -0.46332,-12.44427 z m -62.86276,-2.41084 c 3.6531,-18.47727 7.3113,-45.52119 0.50236,-59.52412 -10.37179,16.51291 -3.21267,38.4047 -5.79995,57.09967 -0.88824,3.77343 2.87982,7.29694 5.29759,2.42445 z M 270.808,281.19001 c -3.87429,-8.31078 -6.62205,-40.45772 -8.9313,-14.73643 0.57394,4.43326 1.65753,18.33854 8.9313,14.73643 z M 207.8959,202.219 c -3.63749,-12.19432 -1.37451,14.12769 0,0 z m -59.76065,195.38248 c 2.66942,-18.45567 15.13071,9.17456 0,0 z M 352.552,331.69737 c 9.5393,-10.28852 20.59884,-22.10818 11.51593,-34.75993 6.67734,-12.95222 21.31561,7.97492 9.3502,15.75014 -6.45899,10.5214 12.96276,16.5729 -3.85605,21.31034 -4.72407,2.23541 -17.02729,6.83379 -17.01008,-2.30055 z m -23.056,-48.82618 c 5.83654,-23.44793 6.0297,18.54493 0,0 z m 37.728,2.96058 c 1.52033,-14.12917 -34.3707,-2.06226 -17.73762,-15.61306 -9.43491,-0.22817 -21.77146,-8.51264 -5.03487,-5.45375 18.19577,2.8 41.67323,-17.97913 23.48441,-33.08997 -0.25007,-11.58207 -0.28681,-35.87505 -8.23584,-38.04095 -1.23525,8.90945 -10.07182,34.61407 -14.52707,27.37556 2.36096,-10.56295 -2.83212,-37.92472 -14.71413,-17.53065 -1.07905,7.32482 -11.62391,34.3059 -12.68504,14.4966 3.23468,-7.1132 13.63256,-31.48209 -1.53148,-16.87548 -5.02177,10.05196 -9.77644,32.21063 -19.80434,32.12281 0.90644,-10.76745 26.03521,-36.4378 2.33807,-33.96596 -9.94124,8.70122 -38.36362,-7.33279 -14.44384,-10.12897 11.00759,-1.25357 35.82435,-10.34436 38.42536,-2.26982 -0.85473,12.95426 21.38555,-9.47967 27.49964,-1.8159 9.44526,-3.65691 6.80388,-23.88297 10.79103,-3.43838 1.46438,20.05678 23.21321,32.47765 27.03545,48.30236 -10.04177,8.72107 -3.15815,26.69338 3.38979,8.07888 6.42479,-5.68787 -5.32826,21.10372 10.40981,18.64827 25.10668,2.87398 4.1972,35.19006 -12.67162,22.04044 -9.24006,-5.77547 -18.87142,7.0742 -21.98771,7.15797 z m 35.26929,-17.34706 c -4.21894,-11.10315 -6.44091,18.90601 0,0 z M 144.50654,182.67308 c -3.80645,-9.27905 -4.54168,-32.34027 -19.99974,-19.99609 -23.92474,-12.21089 5.91563,-40.92238 -2.65621,-61.08329 0.85875,-23.643832 4.87885,-54.551826 31.01425,-63.17391 15.65451,-4.230902 19.20908,5.289683 7.25215,12.257473 16.84772,6.836989 33.36709,-23.637141 47.32942,-3.753931 8.87309,14.53855 -36.05451,10.945457 -10.38267,23.230926 11.37446,8.052419 -10.68912,10.308539 -2.94601,18.158899 -22.06613,-8.657909 -37.19354,19.469353 -37.54585,40.067783 -5.6691,16.71067 3.27857,43.11018 -12.06534,54.29214 z m 2.15712,-108.68383 c -6.53663,-8.252928 -6.00269,9.534252 0,0 z M 134.568,70.81 c -5.43101,-9.914052 -3.79347,9.220801 0,0 z m 14.37907,-19.782 c 11.51887,-10.537396 -26.03536,8.778613 -4.07564,1.004309 1.26519,-0.528978 2.74123,-0.627943 4.07564,-1.004309 z m -18.61044,128.09013 c -5.00688,-8.85478 12.79322,4.76854 0,0 z m 38.58454,-12.06821 c -8.27054,-21.60322 26.49525,-12.63774 11.60978,2.41919 -2.83383,2.18156 -13.8257,4.5293 -11.60978,-2.41919 z m 52.82997,-25.7904 c 3.96907,-7.66372 31.38626,-13.21724 11.10245,-4.07752 -1.69934,1.8846 -18.06982,14.14923 -11.10245,4.07752 z m -55.56246,-17.91896 c -12.0268,-19.86688 31.66117,7.26947 7.48716,4.62677 l -4.12123,-1.69402 -3.36593,-2.93275 z m 98.78762,-1.01163 c 9.22116,-11.25131 8.31747,6.95165 0,0 z m 5.8317,-12.59996 c 23.92219,-9.843329 -18.16243,-39.448519 13.42877,-45.120013 11.55391,-6.072673 30.30911,-28.249815 38.91484,-22.237688 -1.71747,11.704527 30.50051,1.093888 23.1311,2.039869 -18.46393,-14.586349 21.45146,-18.069352 30.05437,-8.382001 28.31181,5.854557 -18.65873,18.309915 -8.53201,37.703353 -0.64498,23.322465 -25.15058,21.42156 -41.4678,24.745522 -18.427,3.741798 -37.6372,8.270208 -55.52927,11.250958 z m 41.396,-18.319397 c 18.08314,-12.440257 -39.33797,-5.445205 -12.67793,2.151438 4.25141,-0.563209 8.453,-1.428403 12.67793,-2.151438 z M 328.88868,77.404 c 10.72453,-3.898035 12.27371,-12.120039 -1.81929,-7.986807 -4.51411,-6.140702 -20.06188,-9.884731 -11.87822,-1.015178 5.69707,2.449698 5.63283,20.579237 13.69751,9.001985 z m 9.70299,-21.77442 c -12.75696,-6.914969 -1.33169,13.125074 0,0 z M 251.944,89.716287 c 10.99464,-18.251298 15.6362,11.575063 0,0 z"
       id="path6060"
       inkscape:connector-curvature="0" />
    <path
       style="fill:#46423c"
       d="m 230.42393,474.20302 c -18.68221,-13.22925 -43.57219,-8.36611 -63.47318,-17.57739 -18.45615,2.86008 -31.44897,-24.42557 -20.56485,-35.83526 27.72927,5.1762 17.77379,-36.46455 16.81744,-53.83115 -1.98624,-16.91116 -3.67141,-55.10704 0.37999,-58.60028 -1.63305,19.87177 11.86645,14.91168 13.74394,-0.0275 -1.1544,-16.86392 13.70926,-19.31308 20.02909,-3.9534 7.66349,6.10557 4.64676,-19.02695 10.15714,-24.49403 9.81478,-19.17409 -13.93911,-43.46261 7.41615,-57.81109 13.14045,-6.69832 30.54717,-23.80675 44.00224,-19.15847 6.56574,13.01224 -13.33948,18.11217 -16.13906,27.39055 8.66901,-0.0192 22.55787,-4.8512 18.46931,11.0532 -4.1775,25.99472 2.8502,51.85717 -1.55789,78.0818 -0.82742,8.55921 2.83607,31.72352 6.00291,11.7594 5.19029,-14.2654 -7.81975,-54.64446 17.35542,-47.29815 13.09006,15.15623 -5.26297,35.78481 4.42038,52.59672 5.77472,3.35554 -8.17452,12.60455 6.53941,8.49434 17.354,-3.76105 -7.37529,14.81645 -0.4555,24.47541 0.0769,21.41322 -7.07657,38.0261 5.30043,57.60488 -15.13377,13.54987 20.02675,0.35714 25.83267,-2.80147 15.68462,-7.08243 6.31431,-25.62408 5.81763,-33.75189 13.28173,-7.9976 15.1241,13.49189 11.6859,11.74853 18.1714,-10.95582 25.77761,-32.63577 27.69377,-52.01738 6.91188,-19.29271 31.7182,-20.66636 29.47032,2.5912 10.0664,16.58173 7.44589,36.70483 -5.8288,50.63455 -21.71941,28.16822 -50.792,53.10136 -85.9391,61.91634 -11.20703,2.14334 9.32208,-8.79288 -4.53082,-13.20283 -2.46123,-9.87854 -18.55643,-18.48657 -15.02998,-1.46412 6.77339,11.81258 4.75047,28.11452 -12.64938,22.99113 19.01563,0.11983 -8.54012,-35.86188 -6.17405,-13.90151 -10.64168,3.0844 -13.89203,8.69095 -10.14986,17.32027 -10.8582,-1.98717 -17.66195,7.30448 -28.64167,-2.93241 z m 15.87376,-4.2478 c -0.0306,-11.39805 -11.98732,6.04063 0,0 z M 233.08,465.8848 c 0.59783,-9.25045 -3.7077,-27.27714 -15.08452,-16.39435 4.27285,7.05609 2.98949,23.40548 15.08452,16.39435 z m -36.82369,-22.18278 c 6.33435,2.31041 18.29645,2.41154 18.98756,-5.46259 -7.14576,-4.30915 -41.08343,4.14694 -23.78211,7.97139 l 2.54006,-0.98995 2.25449,-1.51885 0,0 z m 68.11636,-71.81183 c 2.7322,-8.31042 -4.82737,-22.11412 -3.82295,-6.04041 -1.90686,8.46666 2.07011,36.02579 3.58672,12.98691 0.13532,-2.31312 0.21285,-4.62957 0.23623,-6.9465 z M 388.94198,357.178 c 1.30359,-23.42614 -20.39766,11.93006 0,0 z M 202.24059,338.809 c 0.27275,-12.87095 -3.44145,-15.84512 -2.84004,-1.3463 -1.16435,9.29559 4.34812,19.6575 2.99093,4.0901 -0.0503,-0.9146 -0.10059,-1.8292 -0.15089,-2.7438 z m 103.53567,68.9544 c -6.38124,-14.37041 6.88001,-43.56547 10.95652,-45.62758 -3.12329,13.38386 0.39811,39.04711 -10.95652,45.62758 z M 149.58933,395.8 c 6.07042,-8.87818 7.19537,8.75069 0,0 z M 188.3954,287.9127 c -14.63303,-5.79923 13.89103,-19.04059 6.46085,-1.05829 1.14235,6.16003 -4.04971,5.05247 -6.46085,1.05829 z m 180.98834,-9.3917 c -17.26515,-4.85935 -11.86772,-19.64704 2.87525,-21.41649 12.46713,-6.57376 40.14458,-2.81068 41.1341,12.03513 -1.80181,10.67917 -15.65945,13.3258 -9.17285,-0.54519 -6.06016,-13.58373 -8.61766,24.54434 -21.80167,6.76834 -4.62695,-3.80964 -10.99308,-2.66737 -13.03483,3.15821 z M 382.42,268.30149 c -0.5318,-11.31443 -31.92983,6.80404 -8.37973,1.96302 2.85209,-0.32217 5.73414,-0.78954 8.37973,-1.96302 z M 269.26845,269.572 c 2.06877,-20.68872 14.70817,17.9768 0.41583,3.31815 -0.13861,-1.10605 -0.27722,-2.2121 -0.41583,-3.31815 z m 38.30907,-1.75382 c 3.92053,-11.05804 11.39949,8.11608 0,0 z m -114.05574,-8.18381 c -12.78444,-6.4997 -10.82369,-32.78228 -9.30263,-39.03589 14.61792,-4.46348 9.86162,-18.29249 4.27015,-26.40282 5.80193,-13.91084 23.50541,-10.34058 14.43847,4.89369 -5.74903,11.72979 -6.04075,23.94143 6.7917,18.63063 -13.56052,11.89799 -12.39437,25.73095 -16.19769,41.91439 z m 76.62954,-19.70464 c -9.35539,-9.47906 4.01921,-42.16013 7.41036,-16.10238 -0.92,5.48993 -1.61983,13.66772 -7.41036,16.10238 z m 99.93672,-3.30416 c 3.50765,-8.75492 -5.39582,-39.99448 10.03439,-19.46136 8.29553,7.63611 1.77368,28.5525 -10.03439,19.46136 z M 220.897,211.05025 c 7.26259,-11.24179 6.10134,5.47223 0,0 z m 127.02841,0.58875 c -5.64382,-8.08585 5.76273,-38.46709 8.32997,-15.69059 -1.00266,4.86223 -0.74061,17.07132 -8.32997,15.69059 z M 275,194.48618 c 7.12395,-8.52523 31.81679,-4.15983 8.52903,-0.87061 -2.48125,0.65662 -6.25019,3.56564 -8.52903,0.87061 z m 34.99031,0.40504 c 1.01859,-13.19748 13.61331,5.93712 0,0 z M 358.327,181.966 c 0.46642,-13.56909 4.19101,13.53661 0,0 z M 145.39906,165.481 c 2.42176,-25.82972 -33.73066,5.09581 -28.3861,-20.56297 6.16081,-14.78199 18.57836,-26.23523 4.75546,-40.54851 3.28872,-6.039455 24.96624,-0.73597 7.07249,-8.134591 -13.18307,-9.718662 -3.46431,-37.486899 12.56786,-42.089184 15.26277,-7.45135 38.417,7.177544 44.94049,-13.682021 21.18808,-8.221773 30.00846,24.600094 3.66766,18.733301 -2.47135,4.733644 9.5998,24.72079 -3.4899,13.872346 -9.01892,-6.027105 -12.25685,20.869296 -21.37634,17.645166 -10.74899,24.275213 -8.60229,51.756193 -15.71221,76.959113 -4.23203,6.78388 -4.70035,1.76595 -4.03941,-2.19265 z m 3.24899,-38.59609 c -3.25312,7.86145 2.31846,15.15184 0,0 z m 7.7037,-37.388997 c 1.60644,-15.296661 -24.82187,8.383658 -2.61074,2.147735 l 1.52416,-0.825756 1.08658,-1.321979 z m -9.48138,-15.054281 c 8.06044,-7.523003 9.15656,-14.816551 -0.81276,-4.868354 -5.53222,0.02265 -25.68456,-0.862459 -12.29628,4.025188 5.06478,-0.884593 10.55313,10.71687 13.10904,0.843166 z M 205.832,150.88 c 5.62216,-12.76618 3.56802,11.96061 0,0 z m -37.728,-30.144 c -10.2982,-12.7243 22.70223,11.54735 0,0 z M 282.85239,98.274782 c 0.22579,-9.497628 3.97977,-28.674204 -1.13712,-27.906837 12.64706,-9.94832 31.53541,-35.983851 43.83394,-20.907048 11.15157,-8.439569 22.48216,0.414313 27.84126,6.277148 7.40155,-8.160234 -26.15063,-21.140609 -2.28388,-23.995357 11.77153,-3.89619 31.039,6.853344 35.66001,10.82825 -15.45506,5.581904 -20.9349,16.524807 -20.4679,32.46532 -2.91029,25.413552 -32.03206,17.448417 -49.28923,24.196153 -8.93348,-1.881125 -35.19862,14.276699 -34.15708,-0.957629 z M 307.488,94.065324 c 16.60116,-1.041072 17.53779,-7.65668 3.1401,-13.706668 -5.32167,-9.907527 -18.6875,-16.53688 -17.94824,0.545564 -7.53777,15.717264 1.54696,20.12749 14.80814,13.161104 z m 52.70027,-10.091317 c 1.59514,-18.154446 -32.32487,8.41614 -8.02653,2.703469 2.78508,-0.0755 6.25486,-0.03229 8.02653,-2.703469 z M 330.10331,77.404 c 13.15067,-5.234738 13.81453,-14.037297 -1.15909,-9.077649 -7.05755,-2.391394 -19.53667,-16.414636 -17.42013,0.367877 9.60879,0.151401 7.57915,22.19665 18.57922,8.709772 z M 339.976,55.738 c -6.1344,-11.480853 -21.33741,11.088406 -2.68233,4.606848 1.92766,-0.51854 3.1529,-2.678462 2.68233,-4.606848 z M 254.04,89.851567 c 7.72332,-13.260535 8.86774,7.911831 0,0 z M 142.9841,45.975238 c 2.5961,-14.380414 40.21565,-4.42848 15.15556,-0.166391 -5.02087,0.210381 -10.2542,2.317555 -15.15556,0.166391 z"
       id="path6058"
       inkscape:connector-curvature="0" />
    <path
       style="fill:#413d37"
       d="m 235.176,476.70602 c -17.25605,-15.55451 -44.16502,-8.73744 -61.2896,-21.04223 -20.04393,4.59559 -31.30896,-13.74028 -29.90474,-30.60189 29.92216,1.78139 24.81832,-34.29679 20.57901,-54.99963 -3.02982,-9.13236 -3.87196,-30.58759 10.24338,-17.50821 19.66401,7.3437 -13.53904,-12.67839 5.09342,-10.25004 14.87337,-4.69675 -15.86595,-17.32333 0.76998,-26.69296 3.75164,-8.73347 6.02946,-25.62536 16.53926,-9.80813 10.31764,12.3057 2.28591,-19.10516 17.8901,-18.14216 9.80438,-7.00394 38.64442,-14.04471 15.12854,-22.20838 -8.13051,-0.27289 23.41392,-31.37067 18.97136,-10.12128 -5.50381,14.56352 21.03574,22.04421 1.214,29.06862 -9.85929,4.72962 -34.86538,8.02734 -34.05436,15.83492 12.40196,-1.40283 45.99383,-27.34688 42.57133,-1.94044 0.74092,33.07524 -2.11075,66.34605 1.18351,99.38979 9.14974,-4.2447 4.62676,-40.31195 11.76273,-18.35055 17.30577,7.13476 15.88341,24.7317 20.81353,40.01217 0.2046,14.39069 -9.51373,31.835 -25.52869,32.66162 0.90929,16.30785 -42.73178,19.36897 -29.85294,2.31877 -1.24434,-15.9786 -43.59818,-2.37195 -16.70268,-14.02671 -5.59897,-7.08579 -39.68853,-5.39601 -34.52663,5.99131 11.8284,1.13241 28.02653,5.27307 35.33428,11.88713 -15.00892,16.55081 39.92251,6.08694 21.46767,22.1636 l -4.08533,-1.30413 -3.61713,-2.33119 0,0 z m -31.44,-139.19883 c 3.38003,-8.00308 -5.23372,-29.30403 -5.90332,-9.73485 -4.55661,10.20146 5.40754,41.48516 5.86134,13.98384 l 0.042,-4.24899 z m 78.88214,127.47723 c -11.74675,-14.64323 18.2651,-6.48439 2.4176,1.2691 -0.9151,-0.10828 -1.56577,-0.97066 -2.4176,-1.2691 z m 28.01386,-3.29384 c 17.63662,-8.12504 -12.73457,-4.8496 -10.4235,-19.66429 -3.45946,-18.86691 27.89491,-8.95998 34.12115,-26.05031 12.7435,-14.77626 27.02443,-28.4709 36.23576,-45.81699 -5.59189,-14.54459 7.61606,-42.36946 25.05089,-31.00242 5.41866,19.28302 18.16032,42.09024 0.31485,60.92344 -20.64442,28.35002 -48.70245,53.79973 -83.24419,62.89032 l -1.41442,-0.24487 -0.64054,-1.03488 0,0 z M 332.64,450.436 c -3.61526,-7.0772 -11.30362,7.45903 0,0 z m 55.1248,-90.8088 c 13.17836,-16.18977 -17.38169,-11.26805 -5.66563,1.79322 2.42378,0.74576 3.7284,-0.59595 5.66563,-1.79322 z m -81.52788,44.29099 c -2.42908,-6.92649 4.68199,-37.55423 7.34446,-27.0794 -2.05312,8.78032 1.23194,21.32564 -7.34446,27.0794 z m 22.35786,-7.90471 c 3.46025,-14.77118 12.28057,5.42621 0,0 z m -52.59564,-21.07584 c -2.55943,-13.59201 18.26022,-20.67269 7.86472,-4.97531 -1.58733,3.18637 -4.14681,14.09763 -7.86472,4.97531 z m -10.21152,-17.92455 c -5.33976,-19.51506 12.74954,2.49854 0,0 z m 0.84129,-16.32009 c 9.63829,-8.57982 -5.72923,-35.58599 9.71445,-34.12873 7.02906,9.03852 -4.29319,37.39651 -9.71445,34.12873 z m -103.36567,1.14385 c -8.99011,-15.2746 10.4769,-16.97475 4.9564,-1.7532 l -2.33622,1.59121 -2.62018,0.16199 z m 29.29409,-52.79686 c -6.95168,-14.46983 9.96096,-13.41272 0,0 z m 192.64394,-14.18077 c -3.51956,-6.31519 7.56996,-17.85642 -7.79942,-10.76627 -10.66208,4.23191 -18.30942,-2.399 -3.95497,-4.69187 13.91142,-7.64497 37.1154,0.41951 20.14528,17.29957 -2.21197,3.72066 -7.23743,1.39286 -8.39089,-1.84143 z m 18.42964,-0.10626 c -4.31534,-14.83278 14.99328,-18.03777 8.25682,-1.75654 -0.98911,3.93628 -9.0197,10.85038 -8.25682,1.75654 z m -193.76389,-15.072 c -7.72853,-20.27095 1.1318,-40.43633 22.04698,-46.36689 6.03547,-9.64527 31.72758,-12.949 20.68204,3.08074 -17.67417,9.53646 -37.1037,21.20786 -38.39943,42.79202 l -2.02929,0.97497 -2.3003,-0.48084 z m -21.89767,-19.52943 c -4.97327,-12.66369 15.48805,-24.27504 10.09347,-5.06105 0.46426,10.38657 -12.15551,30.3671 -10.09347,5.06105 z m 183.61578,-3.36635 c -2.76881,-25.17062 20.26492,5.09539 0,0 z m -101.81488,-8.64626 c -1.4701,-14.36679 7.95271,3.17983 0,0 z m 103.89388,-8.747 c -12.83054,-19.83122 23.97741,13.08486 1.94984,1.84745 l -1.94984,-1.84745 z m -23.53546,-18.96274 c -3.8594,-20.0806 14.74664,-3.29489 0.77338,3.74512 l -0.56253,-1.19995 -0.21085,-2.54517 z M 197.448,200.08638 c 3.6011,-21.94388 5.50198,13.18076 0,0 z M 150.24087,139.105 c 5.53643,-10.67527 -5.13528,-28.47203 -5.32052,-8.02408 2.17135,16.7826 -36.37651,32.83181 -22.59116,6.54577 8.6852,-10.2078 16.6106,-20.88742 2.4313,-31.23056 -4.55937,-10.85217 40.45655,5.63159 19.63621,-6.19601 -14.10479,-0.700737 -24.22581,-12.031598 -14.3516,-17.849593 -8.5384,-15.895259 20.43066,4.914231 20.93417,-11.319253 15.84621,-20.959878 -22.19954,14.104936 -21.19642,-10.532894 13.50068,-10.316831 30.0396,-6.600776 45.70216,-5.148955 5.13276,-15.955392 33.00845,-22.402446 32.57248,-1.587562 -7.48893,4.320127 -31.60549,3.480574 -17.11173,16.340332 -15.41895,-14.552891 -23.16435,16.299476 -30.08197,27.119995 -6.16236,19.49037 -4.75199,40.60067 -11.33651,59.96148 -0.15084,-6.03583 0.31006,-12.06191 0.71359,-18.07867 z m 7.04669,-49.543648 c 6.60111,-16.034284 -33.3425,4.076858 -7.45005,4.711707 3.07286,-0.06361 6.21262,-1.797537 7.45005,-4.711707 z m 135.70626,12.593268 c 5.13733,-10.221971 45.11532,-6.661879 21.19661,-19.332311 -4.71078,-12.316503 -24.49595,-28.1268 -22.64346,-3.443189 0.49436,7.379402 -7.69368,30.05146 -6.77936,9.828533 2.0062,-18.847936 12.40338,-43.054963 34.02008,-44.040991 2.50611,11.730392 -16.95324,23.293905 1.41621,32.457449 11.94052,9.433906 35.12424,-19.382613 10.52058,-10.509974 -18.71125,-4.168107 6.0519,-5.61503 10.72222,-6.558451 -6.52503,-12.149975 12.55082,-17.385689 5.86611,-4.287747 14.85336,2.221099 6.44771,-13.90551 -3.51246,-15.981847 0.0501,-20.972079 49.61595,-3.18156 21.74472,10.970076 -7.65368,4.138315 9.74336,3.710583 2.67671,13.729769 0.36694,6.065033 -6.55625,19.374935 -10.01555,7.551966 -8.92302,2.356194 -26.95211,20.547033 -5.83466,14.785247 4.85526,7.248415 -23.95386,7.091867 -32.12859,10.131881 -8.9818,2.022611 -17.90038,5.264279 -27.24916,4.699589 z m 33.47857,-47.18351 c -3.52016,-15.880587 21.57348,-3.079337 4.12369,-0.378305 l -4.12369,0.378305 z M 145.048,44.498088 c 4.07704,-12.933445 36.37036,-1.786798 11.5847,0.722922 -3.58037,0.54334 -9.24875,3.476849 -11.5847,-0.722922 z m 232.656,1.163033 c 4.21018,-20.243926 19.65697,5.978924 0,0 z"
       id="path6056"
       inkscape:connector-curvature="0" />
    <path
       style="fill:#34312a"
       d="m 233.36761,474.81943 c -15.83086,-12.18248 25.76007,8.96721 1.59846,0.86333 l -0.99541,-0.53762 -0.60305,-0.32571 z M 204.784,463.624 c -6.64026,-0.18014 -33.70421,-2.99695 -14.77514,-8.77158 -14.48567,-6.98024 -41.2893,6.21661 -40.44763,-19.29981 7.78417,-11.61999 34.69103,-25.44153 29.51945,-47.6926 6.53238,-13.4539 -13.76895,-37.38139 10.41165,-29.13409 4.94485,-20.26687 12.55462,21.51826 15.52024,-0.16499 0.82326,-7.5361 -1.74866,-29.1963 11.21009,-21.01065 -2.81334,-9.17968 -20.2643,-13.21104 -8.82831,-26.36621 10.55673,-13.95743 35.78211,-20.55396 49.18339,-20.25271 -5.76664,6.66573 -8.13029,16.57591 -18.13528,8.49842 -18.72401,8.70902 -20.14562,36.40392 -13.91984,51.34493 10.62776,2.42098 33.76909,-26.16677 31.64288,-4.21773 -9.30524,9.08499 -29.23468,6.24119 -33.92412,18.65806 12.67931,-0.007 39.49683,-21.95915 34.11311,2.41858 3.94488,17.83603 -5.78396,46.0081 4.44828,57.42093 10.42132,-1.70707 36.38616,0.88382 18.30676,14.54315 -7.84074,3.46963 -31.05546,5.59325 -20.01472,18.34776 -21.43351,3.32519 -30.75144,-27.70168 -53.15903,-22.09462 -8.63739,-0.2098 -36.87899,-1.103 -30.76984,9.98405 6.5867,-0.17261 53.5665,20.19505 29.61806,17.78911 z m 6.15641,-52.52326 c -2.09415,-10.87776 -5.95273,-30.24834 -9.88355,-35.96532 0.52113,7.00921 -3.48382,53.36676 9.88355,35.96532 z M 245.656,405.7807 c -8.34547,-5.83889 -16.18423,-27.32426 1.63985,-17.02097 7.45387,-13.94775 0.49508,-32.42695 -17.20039,-21.08088 -18.45205,8.26978 -5.59564,23.58021 3.71021,31.38605 -3.77417,3.60823 10.30078,15.08559 11.85033,6.7158 z m 36.03101,54.5463 c 7.97168,-11.72267 5.55586,13.05109 0,0 z m 44.66499,-4.54645 c 11.39028,-0.49576 20.58286,-19.06151 3.62008,-9.61294 -13.35705,9.82279 -38.26743,-17.22943 -12.01809,-17.53651 19.94858,-9.24587 33.36589,-29.12375 49.27839,-44.04528 7.47048,-7.38746 17.36644,-19.30975 2.7482,-23.67148 -6.90064,-13.15698 25.1667,-32.41787 20.22446,-18.35814 -14.2294,2.4325 -13.95095,30.54474 2.59579,15.77455 23.35319,5.23291 8.57536,39.91035 -4.6519,50.85652 -18.00452,22.06234 -40.5464,41.79657 -68.08493,50.61492 1.02512,-2.57811 4.5742,-2.30739 6.288,-4.02164 z m -65.37315,-42.33346 c -4.10381,-19.938 20.40989,-21.84758 26.56141,-4.92732 10.47615,10.4372 -26.8142,7.02405 -26.56141,4.92732 z M 169.676,392.82901 c -7.64695,-11.14772 7.78369,-6.22274 0,0 z m 23.056,-67.82461 c -8.33015,-10.22481 12.19917,-20.3339 0,0 z m 11.004,-24.20966 c 2.77023,-11.73851 24.37032,-10.6566 6.85403,-1.45561 -1.54992,1.00782 -7.31778,6.94255 -6.85403,1.45561 z m 27.248,-15.70853 c 5.32283,-5.44994 36.64978,-13.03904 17.75993,-2.70163 -5.53891,1.22422 -12.20803,6.7628 -17.75993,2.70163 z m 157.2,-9.86221 c -6.30689,-13.42862 18.22806,-23.01369 6.9693,-3.71858 -0.65406,3.41602 -3.97821,10.41275 -6.9693,3.71858 z m 16.69426,-1.76015 c 4.05928,-25.72853 13.47848,8.42486 -1.04248,1.89775 l 1.04248,-1.89775 z M 239.71562,260.03841 c 5.97643,-15.34928 5.92333,10.55928 0.0404,0.78383 l -0.0404,-0.78383 z m -90.65539,-146.6169 c -9.78866,-13.616262 18.98497,6.79583 0,0 z m -17.72242,-5.99885 c 2.74667,-11.483494 15.37102,8.89459 0,0 z m 20.491,-5.99766 c 3.77008,-20.790269 17.08173,1.51832 1.12051,1.27229 L 151.82881,101.425 z M 321.112,94.36 C 346.76215,93.156836 297.54871,76.943129 315.88238,74.557325 331.5579,99.031649 344.18392,54.029254 361.14471,57.956196 375.41994,71.730326 333.45404,73.328938 338.9925,90.67376 336.48297,94.281277 321.22356,98.791466 321.112,94.36 z M 134.55893,83.040764 c -2.11936,-10.593849 20.49844,1.381147 18.2347,-14.387631 4.89735,-13.268069 19.09977,-15.069998 20.32444,-0.700011 -8.68728,6.782025 -28.40811,23.061168 -38.55914,15.087642 z m 2.84948,-16.030526 c -19.6345,-8.683618 35.47552,-21.389605 13.13734,-3.843754 -3.19249,2.991433 -8.81907,8.077836 -13.13734,3.843754 z m 169.36703,-4.426869 c -6.60461,-5.860995 -14.54353,-3.948932 -2.23514,-12.055944 14.3057,-9.857378 16.19529,1.611237 4.45962,7.050107 -0.90042,0.91222 -1.33021,9.287284 -2.22448,5.005837 z M 183.24867,54.03411 c -7.46491,-28.579947 43.68544,-1.225188 15.76683,3.959181 -5.05019,-0.83398 -13.61842,2.871896 -15.76683,-3.959181 z M 342.072,53.068999 c 5.12245,-13.159611 7.16868,10.809895 0,0 z M 327.4,51.910871 c 7.37553,-14.233798 9.473,7.867075 0,0 z m 25.85223,-6.521318 c -29.31871,-11.010469 24.95231,-25.224893 15.88538,-0.221822 -4.17267,5.659377 -11.44718,4.89784 -15.88538,0.221822 z m 24.45177,0.935623 c 6.40445,-20.153567 18.22451,3.950079 0,0 z M 145.048,43.668791 c 6.0152,-6.332256 33.11525,-2.547836 11.93035,1.158946 -3.90817,0.16945 -8.6443,1.971172 -11.93035,-1.158946 z"
       id="path6054"
       inkscape:connector-curvature="0" />
  </g>
</svg>
