<?xml version="1.0" encoding="UTF-8" standalone="no"?>
<svg
   xmlns:dc="http://purl.org/dc/elements/1.1/"
   xmlns:cc="http://creativecommons.org/ns#"
   xmlns:rdf="http://www.w3.org/1999/02/22-rdf-syntax-ns#"
   xmlns:svg="http://www.w3.org/2000/svg"
   xmlns="http://www.w3.org/2000/svg"
   xmlns:xlink="http://www.w3.org/1999/xlink"
   xmlns:sodipodi="http://sodipodi.sourceforge.net/DTD/sodipodi-0.dtd"
   xmlns:inkscape="http://www.inkscape.org/namespaces/inkscape"
   sodipodi:docname="jet pack.svg"
   height="100%"
   width="100%"
   inkscape:version="0.48.4 r9939"
   version="1.1"
   id="svg2"
   viewBox="0 0 512 512"
   inkscape:export-filename="C:\Users\Chris\Documents\GitHub\bot-game\assets\jet_pack.png"
   inkscape:export-xdpi="12.832031"
   inkscape:export-ydpi="12.832031">
  <sodipodi:namedview
     pagecolor="#ffffff"
     bordercolor="#666666"
     borderopacity="1"
     objecttolerance="10"
     gridtolerance="10"
     guidetolerance="10"
     inkscape:pageopacity="0"
     inkscape:pageshadow="2"
     inkscape:window-width="1185"
     inkscape:window-height="1030"
     id="namedview44"
     showgrid="false"
     inkscape:zoom="0.35595703"
     inkscape:cx="113.94662"
     inkscape:cy="457.65535"
     inkscape:window-x="100"
     inkscape:window-y="100"
     inkscape:window-maximized="0"
     inkscape:current-layer="svg2" />
  <metadata
     id="metadata48">
    <rdf:RDF>
      <cc:Work
         rdf:about="">
        <dc:format>image/svg+xml</dc:format>
        <dc:type
           rdf:resource="http://purl.org/dc/dcmitype/StillImage" />
        <dc:title></dc:title>
      </cc:Work>
    </rdf:RDF>
  </metadata>
  <defs
     id="defs46">
    <linearGradient
       id="linearGradient3926">
      <stop
         style="stop-color:#ffffff;stop-opacity:0;"
         offset="0"
         id="stop3928" />
      <stop
         id="stop3934"
         offset="0.5"
         style="stop-color:#ffffff;stop-opacity:0.49803922;" />
      <stop
         style="stop-color:#ffffff;stop-opacity:0;"
         offset="1"
         id="stop3930" />
    </linearGradient>
    <filter
       color-interpolation-filters="sRGB"
       inkscape:menu-tooltip="Increase or decrease lightness and contrast"
       inkscape:menu="Color"
       inkscape:label="Lightness-Contrast"
       height="1"
       width="1"
       y="0"
       x="0"
       id="filter3108">
      <feFlood
         flood-color="rgb(0,0,0)"
         flood-opacity="1"
         result="result1"
         id="feFlood3110" />
      <feBlend
         result="result2"
         mode="normal"
         in2="SourceGraphic"
         id="feBlend3112" />
      <feComposite
         result="result3"
         operator="arithmetic"
         k2="1"
         in2="SourceGraphic"
         id="feComposite3114" />
      <feComposite
         operator="in"
         in2="SourceGraphic"
         id="feComposite3116" />
    </filter>
    <linearGradient
       inkscape:collect="always"
       xlink:href="#linearGradient3926"
       id="linearGradient3932"
       x1="261.04938"
       y1="95.705795"
       x2="348.2187"
       y2="81.287977"
       gradientUnits="userSpaceOnUse"
       gradientTransform="matrix(1.8584051,0,0,1.8288183,-230.61099,-2.5230639)" />
  </defs>
  <rect
     y="-0.49661246"
     x="-0.23969027"
     height="518.513"
     width="516.97894"
     id="rect3171"
     style="opacity:0.98999999;fill:#000000;fill-opacity:1;fill-rule:nonzero;stroke:none" />
  <rect
     style="opacity:0.98999999;fill:url(#linearGradient3932);fill-opacity:1;fill-rule:nonzero;stroke:none"
     id="rect3154"
     width="144.55"
     height="372.43295"
     x="271.97043"
     y="-40.078598"
     transform="matrix(0.60489823,0.79630279,-0.67008498,0.7422844,0,0)" />
  <g
     id="g3134"
     transform="matrix(1.2688735,0,0,1,-68.162402,-29.698485)">
    <g
       id="g3124">
      <g
         id="g3115">
        <g
           id="g3097">
          <path
             style="opacity:0.98999999;fill:#ffffff;fill-opacity:1;fill-rule:nonzero;stroke:none"
             d="m 228.98252,308.13201 c 11.5359,8.42847 23.07181,16.85695 34.60773,25.28543 1.03359,35.75804 2.06719,71.51609 3.10079,107.27413 -11.53592,-8.42848 -23.07183,-16.85695 -34.60773,-25.28543 -1.0336,-35.75805 -2.0672,-71.51609 -3.10079,-107.27413 z"
             id="rect3095"
             inkscape:connector-curvature="0" />
          <path
             style="opacity:0.98999999;fill:#ffffff;fill-opacity:1;fill-rule:nonzero;stroke:none"
             d="m 248.4227,86.771484 c 23.30949,16.256806 46.61899,32.513606 69.92849,48.770406 -14.04154,34.05143 -28.08307,68.10285 -42.12461,102.15428 -23.3095,-16.2568 -46.61899,-32.5136 -69.92849,-48.7704 14.04153,-34.05143 28.08307,-68.10286 42.12461,-102.154286 z"
             id="rect3085"
             inkscape:connector-curvature="0" />
          <path
             style="opacity:0.98999999;fill:#ffffff;fill-opacity:1;fill-rule:nonzero;stroke:none"
             d="m 204.82345,82.169304 c 7.67268,7.333782 15.34537,14.667571 23.01807,22.001356 -4.622,15.36133 -9.24399,30.72265 -13.86599,46.08397 -7.67269,-7.33379 -15.34538,-14.66758 -23.01806,-22.00136 4.62199,-15.36132 9.24399,-30.722645 13.86598,-46.083966 z"
             id="rect3087"
             inkscape:connector-curvature="0" />
          <path
             style="opacity:0.98999999;fill:#ffffff;fill-opacity:1;fill-rule:nonzero;stroke:none"
             d="m 239.25107,63.894017 c 0.89327,10.576234 1.78654,21.152468 2.67981,31.728703 -13.63537,8.45042 -27.27074,16.90084 -40.90612,25.35127 -0.89327,-10.57624 -1.78654,-21.152471 -2.67981,-31.728706 13.63538,-8.450426 27.27075,-16.900846 40.90612,-25.351267 z"
             id="rect3089"
             inkscape:connector-curvature="0" />
          <path
             style="opacity:0.98999999;fill:#ffffff;fill-opacity:1;fill-rule:nonzero;stroke:none"
             d="m 283.70417,213.46508 c 1.16051,12.85018 2.32102,25.70036 3.48153,38.55054 -17.71465,10.26731 -35.42929,20.53462 -53.14394,30.80193 -1.16051,-12.85019 -2.32102,-25.70036 -3.48153,-38.55054 17.71465,-10.26731 35.42929,-20.53462 53.14394,-30.80193 z"
             id="rect3091"
             inkscape:connector-curvature="0" />
          <path
             style="opacity:0.98999999;fill:#ffffff;fill-opacity:1;fill-rule:nonzero;stroke:none"
             d="m 229.74955,218.38937 c 11.96855,8.42847 23.9371,16.85695 35.90564,25.28543 1.07236,35.75805 2.14472,71.51609 3.21708,107.27414 -11.96854,-8.42848 -23.93709,-16.85696 -35.90564,-25.28543 -1.07236,-35.75805 -2.14472,-71.5161 -3.21708,-107.27414 z"
             id="rect3093"
             inkscape:connector-curvature="0" />
        </g>
      </g>
    </g>
    <g
       id="g3105">
      <g
         id="g3069"
         transform="matrix(1.8039336,0,0,1.8385975,-1200.3627,-214.5569)">
        <path
           style="fill:#e7d9b1"
           d="m 622.90659,434.89351 c 12.33044,-5.42934 3.85997,5.51834 0,0 z m 189.65163,-61.07873 c -10.56508,-0.0599 -30.35063,-4.87569 -21.51062,-19.44855 4.37103,-5.03939 -0.0726,-11.53784 -0.23568,-17.32986 -4.50419,-13.60379 -0.88237,-27.28995 0.008,-41.03326 -0.72935,-13.97429 -1.02912,-29.01766 -6.77692,-41.84706 -3.53527,-4.79755 -14.87888,-2.5422 -14.82907,-9.38292 0.78066,-10.4202 -8.31895,-16.44805 -0.98213,-25.40329 2.32774,-13.08 0.36985,-25.00236 0.90121,-37.48136 -0.31587,-8.13625 9.9517,-16.22701 6.96436,-3.33809 -5.07811,8.03017 6.83141,12.46759 4.35523,1.15033 5.90609,-5.17347 -0.30259,-11.76724 3.78394,-18.07096 -4.50364,4.16294 -11.98552,10.21147 -6.19746,-0.59701 9.71201,-1.76622 0.77004,-13.81762 13.1019,-15.1009 8.89134,-2.55125 12.08767,18.11872 16.34916,3.04171 7.81566,-8.26532 29.00199,-12.12552 32.34423,3.92785 5.65671,10.9871 -15.81346,21.72617 -7.66088,27.86141 4.06715,-0.82653 11.32694,-10.56017 11.47466,1.07509 -6.52008,10.3221 1.20878,19.91848 12.03708,20.60762 5.26059,-6.0868 23.28438,-15.74125 18.876,-0.29068 -5.40818,10.14736 -16.11653,11.52972 -23.29604,21.36172 -3.67959,2.6922 -14.76112,14.46438 -15.0917,5.42875 2.98652,-1.60032 -4.21385,-8.19045 -6.20015,-8.51925 -5.23591,10.92723 -0.33556,24.25814 -2.74169,36.20645 2.47394,7.23959 -9.0607,1.59689 -5.74331,11.06648 -0.15778,11.97767 -7.66933,23.77054 -6.20653,35.01062 10.06243,6.98548 4.48351,17.72403 -3.24792,22.39692 -1.57475,8.64129 12.62682,12.18324 3.68914,20.02996 -6.92754,14.77263 13.4038,18.41171 14.82617,28.76937 -5.28649,2.77233 -12.39222,1.23339 -17.9912,-0.0911 z m -8.32174,-53.1919 c -0.50203,-16.11942 -3.98954,13.71771 -0.22468,1.92417 l 0.22468,-1.92417 0,0 z m 4.53273,-13.69803 c -1.99614,-5.19828 -4.29996,7.30772 0,0 z m 2.13629,-17.60614 c -1.55636,-13.36553 4.60004,-27.50548 -2.54441,-39.94583 -1.60681,-7.71417 -16.63557,-1.04961 -5.83282,2.62603 5.72834,12.06638 4.56649,28.10397 0.41522,40.8682 -2.42422,9.10714 12.45135,7.99796 7.95195,-1.63633 l 0.0101,-1.91207 0,0 z m 10.1,-33.94583 c 5.16993,-7.06832 -3.9211,-18.92273 -6.64295,-7.76553 2.76839,2.63713 0.78454,11.27444 6.64295,7.76553 z m -12.08179,-20.58333 c -2.88149,-4.25454 -3.49846,5.26405 0,0 z m 6,-7.35765 c -3.00197,-5.78918 -3.45337,3.98859 0,0 z m -2,-5.61804 c -2.77952,-1.90999 -1.95951,3.53544 0,0 z m 20.72162,-14.75967 c 5.39569,-9.05478 -21.40767,-11.61087 -9.89833,-0.79442 3.02723,2.05419 8.91756,8.40983 9.89833,0.79442 z m -27.70797,-16.93131 c 5.34074,-12.61065 -18.97306,1.44695 -1.76365,1.14362 l 1.23995,-0.29206 0.5237,-0.85156 z m 15.66535,-3.95089 c 7.01089,-3.83187 -15.56342,-7.34633 -16.31357,-14.52616 0.97733,5.04163 8.36827,20.17159 16.31357,14.52616 z m -17.39961,-5.21265 c 2.71267,-7.39472 -7.35327,4.14866 0,0 z m -8.27939,-17.14548 c -3.18747,-5.05557 -2.75619,6.98917 0,0 z m -3.5,-2.94098 c -5.68326,-5.43136 -6.01009,5.30764 0,0 z"
           id="path3083"
           inkscape:connector-curvature="0" />
        <path
           style="fill:#a79c9d"
           d="m 815.92371,374.20791 c -12.02396,-0.99555 -34.8008,-5.53944 -23.36647,-22.36852 0.98983,-13.88191 -5.69748,-27.38599 -2.63495,-41.36216 2.04298,-19.11906 0.29633,-38.40062 -4.27274,-57.03426 -6.10592,-3.28799 -18.89856,-3.35695 -16.22507,-13.07669 0.89843,-8.07634 -7.61186,-12.3578 -1.13923,-20.33609 2.98495,-11.82032 0.93405,-25.0616 2.86514,-35.46758 5.37804,4.23719 11.85497,7.2265 9.92896,-3.18512 3.03396,-5.14369 7.76875,-5.91238 1.94174,-12.90568 0.61333,-12.03951 20.04161,5.96738 12.8706,-7.13645 -4.17314,-4.38163 -19.88225,-4.34006 -8.82121,-12.75375 11.99291,-11.42413 15.5693,22.29925 20.77338,2.63863 6.84642,-9.58054 21.62524,-13.93355 29.75073,-2.82651 5.93994,12.93762 -6.09955,23.40358 -12.55833,32.90031 -8.71541,1.2536 -0.82655,-9.86482 -10.69043,-6.36816 -6.65468,2.79624 -9.09261,-10.34897 -12.57519,0.97988 -0.31239,9.12126 -11.57287,7.3829 -6.91781,16.15354 -2.22559,11.29034 30.18731,1.22802 13.50059,-3.10133 -2.24654,-8.76734 3.94787,-6.79685 5.1286,0.002 10.94249,-1.17201 18.33268,-6.78875 26.06569,-12.38906 9.86896,5.27391 -11.53555,23.98996 5.79203,23.55113 6.06751,3.03802 12.5532,4.28811 16.72378,-1.95048 12.10886,-10.54583 14.46864,6.92098 5.66019,9.40116 2.90089,4.82398 -9.54997,1.53818 -9.22889,8.59398 -6.47803,4.36935 -15.11626,16.34927 -21.28653,13.87315 1.29476,-7.05652 -9.10299,-14.96263 -1.3048,-20.7049 2.89891,-10.4458 -8.07898,-10.80075 -15.12157,-12.06464 -5.31398,7.47932 0.86781,20.24443 0.32553,24.03404 -7.4618,-7.55484 -24.69372,3.67834 -18.19905,8.45321 1.64709,-12.92265 11.28198,-3.058 11.55425,3.42917 -4.21764,0.61068 -14.10608,-2.64178 -8.19395,6.06393 -13.03857,-12.25387 -6.47463,11.38569 -8.25081,15.12204 -3.35173,10.47301 -1.51204,25.75968 0.96709,37 5.37812,13.09531 -7.527,23.18336 -0.72874,35.91324 5.67238,5.64848 11.51905,8.15743 18.9777,9.57198 -3.32191,9.62367 -5.03751,26.64136 9.16635,29.81898 10.78447,8.68999 -4.19434,10.17772 -10.47658,7.53085 z M 782.23472,230.52626 c -0.99662,-11.72983 -13.87675,3.39638 -3.40863,3.07425 1.87629,0.13713 3.22744,-1.42147 3.40863,-3.07425 z m 65.14882,-22.31703 c 6.77745,-6.31567 -16.5343,-5.48622 -3.43545,1.16365 l 1.37279,-0.34182 2.06266,-0.82183 0,0 z m -51.23168,-35.42317 c -5.39754,-5.96909 -0.32676,10.92889 0,0 l 0,0 z m 36.77185,-19.41318 c -7.06594,-3.1807 1.18721,3.79283 0,0 z m -27,159.41667 c 2.87528,-4.35869 3.47358,5.27228 0,0 z m 17.405,-55.93915 c 0.82496,-7.3213 -0.31812,-15.92692 -4.16021,-20.47752 12.31751,0.17153 6.85095,16.2367 6.4698,22.81644 -1.28313,0.31772 -2.23536,-1.3221 -2.30959,-2.33892 z m -10.405,-1.47752 c 1.78676,-5.70949 1.71544,5.48861 0,0 z m -12.06325,-11.57622 c 0.19235,-9.9522 8.21824,5.66522 0,0 z m 8.79242,-2.02795 c -3.25835,-6.00378 3.63319,-1.25653 0,0 z m -37.72917,-63.7047 c 4.96769,-21.46257 3.79287,13.28325 0,0 z m 6,-14.36183 c 4.23221,-8.24602 6.98044,-1.96575 0,0 z"
           id="path3081"
           inkscape:connector-curvature="0" />
        <path
           style="fill:#a88c76"
           d="m 814.42371,372.93436 c -12.88208,-0.46861 -32.47903,-6.65712 -20.73941,-22.39723 -0.52424,-14.53648 -5.54549,-28.85398 -2.6554,-43.54476 1.242,-18.28031 0.65084,-36.96568 -5.20953,-54.49024 -5.13188,-1.95878 -10.26377,-3.91756 -15.39566,-5.87633 2.78215,-7.98728 -6.25559,-15.49498 -2.25771,-20.80921 3.04563,-12.5256 3.37067,-28.37536 3.1979,-39.34879 4.4192,6.24196 11.82152,4.68931 10.39386,-4.67768 4.14132,-3.51409 6.19051,-6.96502 2.3822,-13.32303 2.98323,-9.01831 13.27844,1.92116 8.77303,7.38576 2.07168,10.20145 -3.44664,26.95107 13.3609,21.49524 10.1683,-3.88138 18.70528,-14.10411 30.00207,-15.06046 4.68396,-10.21757 5.08598,16.42558 -3.76287,14.45759 -3.48432,5.82971 -15.48005,-6.55472 -13.71285,6.44241 -6.03086,6.24426 10.45378,22.93676 -1.51938,16.05105 -8.70346,-4.02958 -22.25214,5.51697 -14.95242,15.89919 -10.95444,-10.90352 -2.81503,5.9239 -5.77822,12.64714 2.05372,8.25284 -2.09384,19.68473 0.16934,30.5888 2.19382,13.90999 2.02186,27.24602 -0.66511,40.85087 -1.74056,10.80741 12.39998,15.37886 16.44016,20.43882 0.19756,-9.98517 6.49143,1.81426 1.93278,6.20863 -5.49227,13.22479 10.18873,18.84598 14.18682,26.86483 -3.76345,3.13673 -9.88538,1.18954 -14.1905,0.1974 z m -36.5,-127.50246 c -3.74455,-6.28582 -3.44296,3.71384 0,0 z m 7,-3.93658 c -4.24195,-8.50395 -3.82233,3.75235 0,0 z m -6,-0.7937 c -9.4883,-6.90654 10.8659,-8.48602 0.53245,-14.98011 -7.68662,-3.6607 -6.70068,18.90188 -0.53245,14.98011 z m 19.1038,-13.62494 c -4.71814,-2.02609 1.42293,4.84551 0,0 z m -9.1038,-58.7038 c -2.69252,-4.02999 -2.35666,3.89339 0,0 z m 35.68333,90.35 c -1.7133,-7.31631 -0.13425,-11.33426 1.54781,-2.39701 0.4298,0.48135 0.0142,4.24407 -1.54781,2.39701 z m 0.34708,-14.28555 c -7.33925,-6.97901 1.34182,-7.11058 1.14618,-0.48687 l -0.84887,1.09666 -0.29731,-0.60979 0,0 z m -23.33656,-0.70393 c 0.0375,-7.29853 5.29186,2.81203 0,0 z m 9.26838,-11.90603 c -9.41895,2.32208 -4.28136,-13.27557 -1.22785,-3.60014 1.86664,0.66903 7.92124,8.50015 1.22785,3.60014 z m 29.05308,-4.19602 c -6.28284,-6.16517 -9.14657,-12.34169 -3.50153,-18.9503 -3.59321,-7.82622 4.03745,-13.90191 7.87433,-6.60375 -15.23529,2.22489 10.52158,13.95304 6.36189,1.8805 5.52439,2.7771 20.886,-15.15949 19.75,-3.58492 -6.0923,9.7694 -14.6156,18.52348 -24.94776,25.2149 -1.5043,-0.44837 -5.8843,5.86832 -5.53693,2.04357 z m -1.79864,-11.4418 c -5.33677,-2.05677 1.80062,6.67546 0,0 z M 808.52526,189.5372 c -1.6545,-10.24865 5.50949,-3.7114 1.96337,0.81289 l -1.1352,-0.18442 -0.82817,-0.62849 0,2e-5 z m -12.20429,-6.57146 c -0.33531,-10.27007 7.50156,-26.31374 -9.10331,-26.6845 -9.5225,-7.30056 13.99485,-12.93698 13.99793,0.13488 3.37138,8.65702 7.60207,-8.23482 12.87547,-10.31589 6.27053,-8.30388 28.57954,-0.20034 21.90508,7.84874 -10.9035,-5.41512 -5.10345,2.32629 1.46488,3.4224 0.75801,8.05084 -6.83008,9.0937 -8.48429,16.87411 -4.74476,13.48265 -10.28282,-4.09052 -19.85741,-1.48494 -6.12077,-12.61602 -8.88599,14.2804 -12.79835,10.2052 z m 31.60274,-17.59286 c -3.69532,-3.79508 -2.34673,3.30333 0,0 z"
           id="path3079"
           inkscape:connector-curvature="0" />
        <path
           style="fill:#926967"
           d="m 815.92371,373.20791 c -12.08758,-1.03893 -34.04833,-5.40293 -22.36167,-21.63262 0.63972,-13.84817 -5.6209,-27.29807 -2.65893,-41.23263 1.53572,-19.2346 0.85786,-38.84944 -4.58597,-57.46978 -5.29781,-2.1392 -10.59562,-4.2784 -15.89343,-6.41759 2.43678,-9.09762 -7.02188,-16.4805 -1.37371,-24.18633 1.84997,-11.68668 3.26715,-25.98083 2.34901,-35.84504 3.81717,5.53452 12.69792,6.74166 10.35743,-3.17909 -0.16938,-5.70899 8.46732,-1.03455 5.30754,-10.0205 -10.06925,-11.26086 12.6462,-8.7266 5.29924,2.70752 1.31834,7.10753 0.0877,15.31562 1.20094,21.25696 10.84257,3.00234 20.96157,-0.65677 28.09594,-8.29551 5.84882,-4.35819 15.22685,-6.50181 16.65773,-8.46194 4.0291,13.14316 -8.32576,19.78267 -18.09801,16.21684 -1.41808,12.53745 -6.54949,23.68402 -19.92683,26.3205 -7.97597,3.75656 -2.17701,20.69796 -3.91717,30.17104 -2.63402,12.44967 0.61634,26.03789 0.72757,38.93415 3.34347,12.72925 -7.64185,27.00976 2.41733,38.22369 7.71487,1.34976 12.06802,16.62953 14.77541,5.47755 2.92075,8.54828 -5.5261,26.30316 9.92155,31.21835 12.47964,6.34874 -2.70655,9.35797 -8.29397,6.21443 z M 792.69639,241.40733 c -1.08328,-10.79799 -3.71118,19.54295 0.0504,1.5669 l -0.0504,-1.5669 z m -15.00185,3.77805 c -3.83445,-5.43183 -2.72217,4.41052 0,0 z m 7.22917,-3.69006 c -4.24195,-8.50395 -3.82233,3.75235 0,0 z m -6,-1.56342 c -5.66407,-6.52838 6.18525,-4.73903 6.5,-11.37707 7.29753,-3.71909 -19.46475,-6.63483 -11.03982,3.91157 -1.40321,2.96773 0.0506,12.6713 4.53982,7.4655 z m -1,-44.61804 c -2.7384,-3.48232 -2.07417,4.95907 0,0 z m 57,-6.88196 c -3.09867,-9.30536 -3.47622,7.74169 0,0 z m -46,-20.05902 c -2.69252,-4.02999 -2.35666,3.89339 0,0 z m 35.75,89.42304 c -3.3558,-7.51102 3.13009,-5.66888 0,0 z m -22.25,-14.42304 c 0.26392,-3.66733 3.00162,3.36878 0,0 z m -3.25945,-10.98643 c -3.65089,-9.2408 7.82666,7.18739 0,0 z m 11.75945,-1.01357 c 1.49294,-3.1602 2.25683,3.43448 0,0 z m -5.4421,-0.77543 c -2.76598,-13.66138 11.24097,0.33447 0,0 z m 31.1921,-8.03008 c -5.0011,-3.97408 -3.51845,-12.71255 0.0315,-3.07574 7.75532,1.14643 -7.68229,-22.62719 5.49047,-10.01863 8.4445,4.76609 7.30358,-6.81896 11.03262,-5.73696 6.15228,-0.73886 22.4583,-14.89667 14.09425,0.64925 -7.14733,8.10236 -15.33248,21.36699 -27.27903,21.73328 l -1.49066,-1.3555 -1.87908,-2.1957 -5e-5,0 z m 0.25,-21.80148 c 7.08334,-4.48357 6.28999,5.16676 0,0 z m -28,-12.97634 c 2.88149,-4.25454 3.49846,5.26405 0,0 z m -12,-6.92339 c -1.03629,-6.63982 4.23828,-13.72303 1.13382,-18.87672 -2.87039,-7.59833 -22.25099,-4.17239 -8.95076,-13.75292 10.85462,-5.571 14.07751,23.91606 18.16015,4.87634 5.36791,-11.16627 28.53069,-15.21278 30.25689,-0.0948 -10.85626,-4.58919 -9.73181,3.74001 -0.50112,4.50914 7.58555,12.64564 -24.22579,2.44188 -7.46687,9.84562 10.23349,3.54734 -9.77175,4.48621 -2.11054,7.97796 -2.60696,12.21363 -7.5821,-7.79065 -15.70674,-2.05719 -7.70785,-10.04436 -10.95442,4.86335 -14.52845,9.26859 l -0.28638,-1.69608 0,5e-5 z m 19,-20.49328 c -2.69252,-4.02999 -2.35666,3.89339 0,0 z"
           id="path3077"
           inkscape:connector-curvature="0" />
        <path
           style="fill:#67585d"
           d="m 815.42371,372.80353 c -11.57094,-0.70887 -33.26133,-4.54835 -21.64047,-20.51921 0.71638,-15.33948 -6.7812,-30.59644 -1.87993,-45.8871 2.51659,-17.416 -0.60264,-35.22316 -5.27128,-52.00164 -6.23864,-6.25606 -21.15101,-6.40642 -16.03271,-19.29687 -8.38681,-7.97183 3.1596,-16.29113 0.51664,-27.17664 3.43059,-6.31822 -1.50496,-18.3862 1.40706,-20.78231 4.29406,9.82885 11.97993,2.31003 10.22679,-5.52996 8.09081,3.83152 1.86907,-11.8265 3.30904,-15.66848 10.08993,-3.64326 -6.01898,5.62164 3.66486,2.23157 6.23717,2.73588 0.16012,18.17986 3.58724,25.17948 -0.50554,14.13201 28.202,-5.36401 24.41474,10.12 1.33964,12.42025 -11.49345,17.54627 -19.91104,17.38443 -7.32241,10.99956 2.22245,23.99938 -3.44536,35.63934 1.02956,17.01693 3.02425,34.20384 1.57576,51.22192 -6.66506,15.48917 6.05932,24.44156 15.38491,33.25067 1.68262,-1.85066 3.27504,-8.78778 5.12974,-1.91984 -10.12731,13.45907 3.13071,25.37439 12.28145,33.0757 -2.43148,4.02853 -9.65938,1.642 -13.31744,0.67894 z M 792.28209,250.0811 c 1.92761,-5.17261 2.47119,-20.42461 -2.21909,-7.6038 -1.45118,1.56614 -0.41814,14.41538 2.21909,7.6038 z m -13.98338,-3.50597 c 1.17451,-3.77364 -0.70529,-9.49454 0.4282,-11.20225 5.24538,0.12577 13.95548,-13.45813 4.02548,-9.42232 -16.2575,-6.81051 -8.36395,12.93086 -6.74423,21.00845 0.66566,0.61295 1.88178,0.46591 2.29055,-0.38388 z m 6.625,-5.64323 c -4.00718,-7.79977 -3.84817,4.94936 0,0 z m 18,-38.55902 c -6.75922,-3.55367 -12.42337,2.40259 -1.15766,0.70625 l 1.15766,-0.70625 z m -25.16585,-6.93971 c -2.19574,-6.68471 -3.86834,8.59863 0,0 z m 27.16585,32.99873 c 3.28194,-9.10397 5.7373,7.57937 0,0 z m 33.25,-4.69989 c -5.87603,-3.17999 7.72435,-5.1034 0.43904,-10.23756 -1.44504,-7.9109 -2.5862,-8.74441 4.54451,-3.08199 9.94237,1.08954 18.23211,-16.51152 26.02866,-11.97811 -4.33022,11.44692 -13.96213,20.6361 -24.32477,26.86231 -2.18963,1.6452 -5.30917,0.53747 -6.68744,-1.56465 z m -4.71878,-5.65226 c -0.85821,-7.19872 3.3941,3.26269 0,0 z m -10.03122,-22.33679 c -6.81336,-3.38947 9.74282,-15.1636 8.31767,-10.20842 0.48942,7.50404 5.0943,7.50542 -1.78288,11.82336 -2.09646,2.127 -4.85871,-0.28618 -6.53479,-1.61494 z m -14.5,-7.37008 c 2.69252,-4.02999 2.35666,3.89339 0,0 z m -11.36163,-9.5 c 2.84635,-4.84456 0.20213,5.00453 0,0 z m 25.85317,-1.52664 c -3.29086,-8.28832 -14.19545,-0.4696 -17.00239,-8.84493 -3.15604,7.04847 -12.7613,4.60731 -6.88999,-2.63478 2.25583,-12.17691 -21.02482,-6.54519 -11.97927,-16.47548 11.35886,-9.42958 14.17193,16.97163 16.6473,13.26195 2.83345,-10.19517 11.50774,-21.69988 23.50089,-18.90567 6.98109,-0.49596 15.61669,11.73238 2.85347,7.9184 -5.14736,3.73348 -0.89118,10.01151 6.54847,9.51669 -0.95445,6.4578 -22.76936,-2.96764 -10.05013,7.3016 3.08223,1.50643 -9.5876,3.93261 -0.776,7.66765 0.89997,2.57831 -2.15333,4.77149 -2.85235,1.19457 z m -22.49154,-6.97336 c -2.39488,-3.99516 -1.59482,3.71895 0,0 z m 15,-9.94098 c -3.49504,-9.6373 -3.44948,7.62933 0,0 z m 13,-13.05902 c -2.39488,-3.99516 -1.59482,3.71895 0,0 z m 0,22.58333 c 3.60532,-5.57007 2.84398,4.14447 0,0 z"
           id="path3075"
           inkscape:connector-curvature="0" />
        <path
           style="fill:#502c2d"
           d="m 814.42371,371.93436 c -10.52361,-1.07826 -31.30716,-4.5135 -20.12268,-19.2842 1.21572,-12.49931 -4.01081,-24.86804 -2.50735,-37.52764 0.79321,-20.60055 2.50516,-42.09762 -4.92174,-61.73555 -8.52498,-2.40287 -10.20713,-12.81108 -1.25973,-10.44392 2.30054,-7.05672 -14.60871,-5.45429 -2.08874,-8.65645 2.52381,-5.1639 9.41138,-13.15312 -0.92264,-8.63643 -6.62688,-3.10692 -16.19303,2.94984 -11.73741,-9.18271 -0.56677,-5.89169 1.79798,-10.47346 5.30161,-12.12825 -7.54218,-4.85775 5.01218,-5.64513 4.96987,-12.31131 1.32046,-7.40867 9.02217,-12.21431 7.63,-21.65502 6.85115,8.39376 -4.03147,30.89837 12.52183,28.43986 9.42243,1.16701 20.77015,-4.2556 15.20988,9.49202 -0.42367,11.05483 -15.53192,11.64547 -18.58261,10.72683 -3.10034,11.52384 -12.30628,24.33297 -6.97986,36.19576 1.26649,-5.60544 5.44084,-13.87268 3.93712,-2.29127 -1.10971,16.12422 0.6621,32.38168 1.55818,48.43211 -5.33162,14.39029 -2.18303,31.05833 12.84133,37.2662 2.82124,4.85018 4.35728,5.41018 0.0692,8.09304 3.12598,10.04334 9.24282,19.56515 18.31722,24.43335 -1.8472,4.34196 -9.56436,1.33813 -13.23346,0.77358 z m 3.5,-5.56148 c -2.69252,-4.02999 -2.35666,3.89339 0,0 z m -14.4309,-163.1118 c -2.80259,-7.14736 -17.61277,0.18185 -3.60066,0.93747 1.19105,-0.0412 2.73577,0.11639 3.60066,-0.93747 z m -32.11298,42.0408 c 2.83439,-6.24834 -4.6852,-14.79676 -2.70615,-17.8972 6.6924,-1.39518 6.10971,20.42337 2.70615,17.8972 z m 34.54388,-16.929 c 2.69252,-4.02999 2.35666,3.89339 0,0 z m 34.05962,-4.42817 c 0.93334,-4.97898 1.59821,-9.10823 -0.60396,-13.45005 6.86592,5.11497 21.90099,-12.2134 21.439,-0.6655 -3.44446,5.28199 -13.92427,18.51051 -20.83504,14.11555 z m 7.94038,-8.57183 c -2.39488,-3.99516 -1.59482,3.71895 0,0 z m 13.75,-10.69555 c -5.80015,-5.92997 15.11975,-11.01645 3.7832,-0.68609 l -1.07636,0.94047 -2.70684,-0.25438 z m -37.58551,-8.90179 c -5.1693,-5.71605 11.84782,-14.57551 6.08028,-1.86574 0.31058,4.386 -3.51372,3.94125 -6.08028,1.86574 z m -50.58154,-2.26845 c -1.16321,-5.30336 3.46628,1.78346 0,0 z m 50.05542,-16.63421 c 1.77848,-5.43218 3.49768,4.95672 0,0 z m -8.43359,-4.23881 c -10.95661,0.63636 -12.63739,-18.37069 -3.20478,-21.18446 7.08889,-17.53983 24.9746,3.41055 9.81757,11.32798 -3.87921,3.89264 6.29601,13.03017 -4.45814,10.01429 l -2.15467,-0.15781 2e-5,0 z m 3.15685,-5.76119 c -4.68399,-5.37534 -0.26755,5.032 0,0 z m -1.53487,-6.31526 c -3.42917,-15.35453 -8.02248,9.56916 0,0 z m -15.75287,7.40429 c -0.0433,-8.1723 7.03754,4.592 0,0 z m -2.92853,-6.9343 c -0.5659,-8.85352 -20.65201,-3.86283 -8.10235,-11.9039 6.31972,-3.74244 17.0108,17.85021 8.10235,11.9039 z m 28.60464,1.65594 c -4.40847,-6.03234 20.3931,1.51864 2.77003,0.44543 l -2.77003,-0.44543 z m 5,-12 c -11.22215,-14.60612 14.74924,3.36881 0,0 z"
           id="path3073"
           inkscape:connector-curvature="0" />
        <path
           style="fill:#1b1216"
           d="m 813.92371,371.16556 c -12.72637,0.42242 -29.5581,-6.07151 -18.28498,-20.58432 -2.62118,-8.04285 -2.48137,-26.32413 8.87144,-13.78241 9.08917,4.68151 1.5378,17.81326 10.5151,24.18399 -2.42804,8.90839 8.45322,4.57262 10.45229,10.30293 -3.45489,1.78964 -7.99437,0.98414 -11.55385,-0.12019 z m -21.33333,-44.45935 c -1.08583,-6.84107 -0.50577,-18.17593 0.69052,-5.43768 -0.29731,1.27208 3.1078,8.13428 -0.69052,5.43768 z m 1.66147,-27.83333 c 0.5194,-13.42608 0.57141,12.66385 -7e-5,0 l 7e-5,0 z m -2.08475,-27 c -2.22955,-6.04376 -0.36258,-18.81174 1.21863,-5.47461 1.17225,4.9983 0.2182,16.92852 -1.21863,5.47461 z m -8.99339,-21.99087 c -5.79028,-2.14855 -2.8976,-8.71348 1.73328,-5.10828 0.42266,-7.26599 -2.3703,-10.25486 4.07847,-16.77708 3.28535,-9.90262 -8.43135,-0.0633 -13.23174,-5.17452 -9.19562,4.62544 -3.8835,-16.35627 1.16999,-17.9027 1.69091,-6.80396 7.94775,-12.59826 7.40956,-19.54705 13.53683,-13.79931 -1.73754,26.87725 16.89098,19.82646 5.51026,-3.89017 9.68212,-8.45522 14.38009,-1.01973 1.48984,9.90949 -11.76513,16.9322 -16.52753,10.94971 -8.36975,9.20922 -8.03119,27.50388 -13.46091,35.76181 l -2.44219,-1.00914 0,5.2e-4 z m -5.25,-29.50913 c -2.69252,-4.02999 -2.35666,3.89339 0,0 z m 13,-10.05902 c -2.03304,-2.19464 -2.26407,3.34627 0,0 z m -18.92105,33.64235 c 0.79372,-5.0751 0.96128,4.06263 0,0 z m -1.85889,-12.49081 c -4.58222,-9.67102 7.80465,6.92414 0,0 l 0,0 z m 71.77994,-8.09252 c 3.00235,-3.00287 12.17842,-6.07167 3.59275,0.0783 -0.68386,0.37044 -3.41918,1.9145 -3.59275,-0.0783 z m 11.51881,-7.94074 c -11.9505,-4.84143 13.92036,-14.71624 4.80757,-2.09115 -1.11755,0.78586 -4.19949,6.09189 -4.80757,2.09115 z m 8.48606,-12.03603 c -0.61192,-8.3137 8.69113,0.52953 0,0 z m -36.30631,-7.77323 c 0.44237,-15.68237 8.9429,0.17029 0,0 z m -16.32803,-27 c -7.93084,-9.7568 3.36984,-20.17085 11.41008,-24.08995 11.33017,3.44304 3.79675,15.15023 -2.59913,19.83677 2.0701,-6.09444 -8.88889,-16.03893 -7.80979,-3.1302 4.64642,3.66629 8.68346,15.43218 -1.00116,7.38338 z m -12.24843,-10.5 c -1.39033,-5.79709 -17.62287,-2.80519 -6.85533,-8.02376 5.6308,-0.15076 12.20504,7.91292 8.76753,11.11506 -0.6374,-1.03043 -1.2748,-2.06087 -1.9122,-3.0913 z m 34.19232,-9.5 c -2.8448,-8.401 9.34282,6.49233 0,0 l 0,0 z"
           id="path3071"
           inkscape:connector-curvature="0" />
      </g>
    </g>
  </g>
  <rect
     style="opacity:0.98999999;fill:#ffffff;fill-opacity:1;fill-rule:nonzero;stroke:none"
     id="rect3156"
     width="76.367531"
     height="57.982758"
     x="-94.752312"
     y="319.66696" />
</svg>
