<?xml version="1.0" encoding="UTF-8" standalone="no"?>
<svg
   xmlns:dc="http://purl.org/dc/elements/1.1/"
   xmlns:cc="http://creativecommons.org/ns#"
   xmlns:rdf="http://www.w3.org/1999/02/22-rdf-syntax-ns#"
   xmlns:svg="http://www.w3.org/2000/svg"
   xmlns="http://www.w3.org/2000/svg"
   xmlns:sodipodi="http://sodipodi.sourceforge.net/DTD/sodipodi-0.dtd"
   xmlns:inkscape="http://www.inkscape.org/namespaces/inkscape"
   sodipodi:docname="leatherplate armor.svg"
   height="100%"
   width="100%"
   inkscape:version="0.48.4 r9939"
   version="1.1"
   id="svg8438"
   viewBox="0 0 512 512">
  <metadata
     id="metadata8464">
    <rdf:RDF>
      <cc:Work
         rdf:about="">
        <dc:format>image/svg+xml</dc:format>
        <dc:type
           rdf:resource="http://purl.org/dc/dcmitype/StillImage" />
        <dc:title></dc:title>
      </cc:Work>
    </rdf:RDF>
  </metadata>
  <defs
     id="defs8462">
    <linearGradient
       id="linearGradient4077">
      <stop
         id="stop4079"
         offset="0"
         style="stop-color:#aa4400;stop-opacity:1;" />
      <stop
         style="stop-color:#ff9f00;stop-opacity:1;"
         offset="0.22752622"
         id="stop4081" />
      <stop
         style="stop-color:#803300;stop-opacity:1;"
         offset="0.4948855"
         id="stop4083" />
      <stop
         id="stop4085"
         offset="1"
         style="stop-color:#562200;stop-opacity:1;" />
    </linearGradient>
    <linearGradient
       id="linearGradient4057">
      <stop
         style="stop-color:#aa4400;stop-opacity:1;"
         offset="0"
         id="stop4059" />
      <stop
         id="stop4067"
         offset="0.22752622"
         style="stop-color:#ecd1a4;stop-opacity:1;" />
      <stop
         id="stop4065"
         offset="0.50136983"
         style="stop-color:#803300;stop-opacity:1;" />
      <stop
         style="stop-color:#562200;stop-opacity:1;"
         offset="1"
         id="stop4061" />
    </linearGradient>
    <linearGradient
       id="linearGradient3890">
      <stop
         style="stop-color:#701b1b;stop-opacity:1;"
         offset="0"
         id="stop3892" />
      <stop
         style="stop-color:#e31600;stop-opacity:1;"
         offset="1"
         id="stop3894" />
    </linearGradient>
    <linearGradient
       id="linearGradient3882">
      <stop
         style="stop-color:#600b0b;stop-opacity:1;"
         offset="0"
         id="stop3884" />
      <stop
         style="stop-color:#d11414;stop-opacity:1;"
         offset="1"
         id="stop3886" />
    </linearGradient>
    <linearGradient
       id="linearGradient3872">
      <stop
         style="stop-color:#800600;stop-opacity:1;"
         offset="0"
         id="stop3874" />
      <stop
         style="stop-color:#ff0004;stop-opacity:0;"
         offset="1"
         id="stop3876" />
    </linearGradient>
    <filter
       id="filter4074"
       inkscape:label="Black Light"
       inkscape:menu="Color"
       inkscape:menu-tooltip="Light areas turn to black"
       x="0"
       width="1"
       y="0"
       height="1"
       color-interpolation-filters="sRGB">
      <feColorMatrix
         id="feColorMatrix4076"
         type="luminanceToAlpha"
         result="result2" />
      <feComposite
         in2="SourceGraphic"
         id="feComposite4078"
         operator="arithmetic"
         in="result2"
         k3="2"
         result="result4" />
      <feBlend
         in2="result2"
         id="feBlend4080"
         in="result4"
         mode="multiply"
         result="result3" />
      <feComposite
         in2="SourceGraphic"
         id="feComposite4082"
         operator="in"
         in="result3" />
    </filter>
  </defs>
  <sodipodi:namedview
     pagecolor="#000000"
     bordercolor="#666666"
     borderopacity="1"
     objecttolerance="10"
     gridtolerance="10"
     guidetolerance="10"
     inkscape:pageopacity="0"
     inkscape:pageshadow="2"
     inkscape:window-width="1190"
     inkscape:window-height="1126"
     id="namedview8460"
     showgrid="false"
     inkscape:zoom="1"
     inkscape:cx="331.08759"
     inkscape:cy="210.24531"
     inkscape:window-x="160"
     inkscape:window-y="130"
     inkscape:window-maximized="0"
     inkscape:current-layer="svg8438"
     showguides="true"
     inkscape:guide-bbox="true" />
  <path
     style="fill:#000000"
     id="path3978"
     d="M -13.466093,0.1885736 H 514.89024 V 516.42957 H -13.466093 z"
     inkscape:connector-curvature="0" />
  <path
     sodipodi:type="arc"
     style="opacity:0.98999999;fill:#ff0000;fill-opacity:0.74970506;fill-rule:nonzero;stroke:none"
     id="path5005"
     sodipodi:cx="640"
     sodipodi:cy="124.5"
     sodipodi:rx="105"
     sodipodi:ry="118.5"
     d="m 743.4676,104.32865 a 105,118.5 0 0 1 0.002,0.0163 L 640,124.5 z"
     sodipodi:start="6.11213"
     sodipodi:end="6.1122693" />
  <g
     id="g6448" />
  <g
     id="g7287"
     transform="matrix(1.3343406,0,0,1.0800303,-89.728067,-6.901005)">
    <path
       style="fill:#ba7b82"
       d="m 259.68974,454.97156 c -4.10118,-13.05159 -12.49543,4.79036 -20.88664,-1.92826 -3.28396,3.50886 -10.38751,-1.62622 -17.17303,2.38289 -12.33778,-8.25374 -29.36153,-9.4832 -38.68122,-22.518 -15.43846,-15.98449 -9.95691,-39.66177 -11.70323,-59.66311 -0.6182,-20.82799 -0.35659,-41.81773 4.55846,-62.1532 -4.14274,-24.20093 -0.83893,-49.19103 -4.44927,-73.58634 6.14128,-15.265 0.94519,-32.03413 1.85188,-48.32725 0.31094,-33.755 -1.97475,-67.83081 2.8655,-101.343265 -13.2807,-3.355959 -20.42634,8.298389 -23.0002,19.954995 -10.10864,29.70892 -14.96692,60.77654 -19.77226,91.66004 1.44064,12.35827 -15.13406,17.51616 -11.23804,2.37428 5.48638,-33.70222 9.85903,-68.31083 23.05965,-100.04313 9.55394,-12.505763 11.50657,-29.606916 22.77303,-41.234948 7.35896,-5.739694 27.60057,21.526757 17.51555,2.17802 11.31726,-8.830718 31.18965,-9.102725 45.87209,-13.80466 16.27754,3.184744 31.43881,9.819147 48.75621,7.585854 17.11221,4.62309 28.48249,-13.13493 44.10152,-1.362653 17.74258,1.738787 34.08474,11.218339 51.93063,9.261244 11.22158,12.203869 -22.50115,8.779914 -8.99431,10.470098 11.92125,3.252939 21.46116,10.563036 22.59098,24.548025 8.39738,25.89178 16.57798,51.92772 23.79368,78.13671 1.96332,11.04122 1.18255,22.26252 1.15638,33.40557 -10.85995,-20.18712 -16.78361,-42.40032 -20.51545,-64.91138 -5.34433,-16.92371 -6.58165,-35.13877 -13.12117,-51.544353 -19.39523,-15.099736 -17.98599,18.375523 -15.03105,30.225223 6.72057,71.58619 4.69088,143.60013 2.4137,215.33635 -0.12935,31.21109 2.51863,62.75834 -2.42287,93.71271 -4.91236,19.59199 -25.36607,17.08293 -40.21166,22.27003 -17.93424,4.08603 -36.70113,2.76615 -55.02194,4.53874 -5.974,0.83729 -9.73431,1.3844 -11.01692,-5.62023 z"
       id="path7301"
       inkscape:connector-curvature="0" />
    <path
       style="fill:#9f6061"
       d="m 268.97381,458.87919 c -10.48185,0.38511 -11.48253,-14.97587 -23.20482,-6.88404 -22.05673,1.28871 -47.18045,-2.36873 -63.34013,-18.72016 -12.61905,-16.25852 -9.15984,-38.51535 -10.94822,-57.7879 -1.55133,-21.93007 1.9908,-43.6119 4.25401,-65.30181 -0.97909,-25.71381 -1.81517,-51.4931 -4.20844,-77.07208 3.602,-37.37015 1.71727,-75.17547 2.82198,-112.72444 -1.27164,-9.6704 3.42736,-37.760518 2.75969,-33.974701 -19.91222,-2.071269 -24.72201,20.031071 -28.9338,34.934341 -7.93846,29.45027 -12.13415,59.83106 -17.58859,89.7146 -18.22463,3.01945 -2.50581,-27.07088 -3.66838,-37.45731 5.20377,-25.55899 7.99962,-52.58528 20.59249,-75.810071 9.33673,-11.128392 9.97929,-34.061988 25.15069,-38.059886 6.05353,2.843758 22.521,19.47029 12.77714,2.475657 13.23456,-6.861657 35.62271,-12.330914 52.46458,-12.5923 14.96419,7.97841 32.0729,7.210026 48.65485,6.795885 15.909,-1.848265 30.74537,-7.376424 46.06677,0.92439 14.86377,2.759751 30.41842,7.814425 44.54564,8.514011 6.73684,11.899871 -24.65395,6.707852 -9.11355,9.144605 15.98764,2.943445 21.79156,20.263236 24.06328,35.288889 9.59077,31.15956 24.21534,62.63101 22.25237,95.79816 -10.53405,-12.5376 -14.48946,-30.21508 -16.26807,-46.33369 -3.47953,-19.50587 -10.768,-38.25136 -12.38498,-58.07304 -8.22151,-23.518438 -29.82496,-3.951436 -21.31395,13.69726 4.35658,39.50126 6.23801,79.34162 6.16559,119.0726 -3.66071,63.6243 -1.16795,127.36472 -3.46966,191.01592 1.19028,16.60132 -17.39566,22.58628 -30.15842,26.61592 -11.28394,1.65591 -26.58708,5.78319 -33.15215,4.18781 -11.09952,3.68502 -23.27151,3.1796 -34.81592,2.61138 z m -31.6272,-171.62073 c -11.25471,-14.80506 -3.35187,10.88517 0,0 z m 64.96589,2.4337 c -9.64974,-19.22135 -7.25651,6.70864 0,0 z m -52.88788,-51.29223 c -15.04337,-1.85141 -6.36028,7.28599 2.24424,0.93439 l -2.24424,-0.93439 0,0 z m -1.27323,-31.61947 c 2.93051,-11.11695 -11.17743,-15.82844 -3.32699,-4.08664 -1.39438,5.04023 2.13566,15.07793 3.32699,4.08664 z m 10.57664,3.04775 c 12.15157,-1.20118 1.93415,-26.30632 2.74638,-8.28067 4.14864,9.61793 -15.44945,6.1318 -3.79695,-1.20074 -7.8903,-0.57097 -11.16352,18.47151 1.05057,9.48141 z m 23.60573,-0.0982 c -15.53563,-3.14967 15.70628,-8.50885 -0.93608,-8.64499 -4.05619,-6.12849 -12.2111,19.42098 1.13202,9.59225 l -0.19594,-0.94726 0,0 z m -6.0105,-14.9039 c -7.23613,-6.38122 -4.09924,20.01516 -0.7092,2.67104 l 0.7092,-2.67104 z m 4.86033,-14.86318 c -9.26628,-1.32855 -12.30443,17.53078 -2.87221,4.35154 l 1.49296,-1.91466 1.37925,-2.43688 z m 14.08594,7.52373 c -4.67329,-1.36268 -17.36107,-3.19468 -5.01247,-3.76942 6.42252,-4.08096 10.12872,-11.24969 1.0791,-2.44347 -13.87961,-2.0554 8.95106,-17.03375 5.17839,-25.9361 2.76199,-18.2408 -13.51637,12.24445 -19.53875,-3.36778 -5.75018,7.4939 -7.86033,27.02705 5.21063,26.68151 -5.06314,11.40871 3.12954,13.91648 13.0831,8.83526 z m 17.28258,-0.43085 c -2.6323,-5.95448 -3.22688,-7.16111 2.70222,-10.70992 -9.74367,-5.09612 -7.32535,10.59177 -8.75824,8.87112 -14.97715,-0.98937 2.38093,11.57122 6.05602,1.8388 z m 13.23695,1.19543 c -2.57348,-6.14706 -18.83177,5.49911 -3.94929,2.0994 1.28297,-0.35751 3.5543,-0.38415 3.94929,-2.0994 z m -67.13275,-3.8525 c 0.37298,-2.72674 -11.7244,-5.38987 -0.78808,-7.89324 2.0714,-12.79628 9.38219,3.65417 9.15566,-9.17431 0.17226,-14.97645 -31.49482,-24.99986 -22.2715,-2.17049 2.15945,7.09335 11.07069,3.27682 4.47821,13.32409 6.56866,10.28191 -17.08139,4.25614 -2.89022,9.81412 4.08173,-0.0461 9.77196,-0.098 12.31593,-3.90017 z m 64.73096,-6.94046 c 10.7359,-5.08816 -5.27797,-26.63688 -2.34061,-11.97802 3.87752,1.54546 -10.19686,19.85827 2.34061,11.97802 z m -7.17418,-12.51795 c -1.50971,-12.32933 -9.99281,17.23093 -0.14154,2.94623 l 0.14154,-2.94623 z m -49.11543,-12.23921 c -0.92586,-10.88365 -31.06314,-5.14838 -11.12846,-2.20298 6.75686,-2.18538 7.97497,13.83367 11.12846,2.20298 z m 36.38867,-5.09455 c 3.75618,-1.61437 18.6826,-12.68306 3.79066,-8.23225 -8.50446,-0.44699 -5.03832,16.08663 -3.79066,8.23225 z m -9.23894,-3.19619 c 6.49125,0.65657 3.85551,-14.96305 -3.37102,-9.05317 6.44065,-6.56299 10.24475,-24.43208 5.60419,-29.96857 -8.00568,-0.21323 -23.02698,2.92344 -7.09679,6.3276 -11.37959,0.24001 -19.41953,22.3284 -13.4026,33.15034 7.59014,-4.79155 12.63899,-0.4378 14.46485,0.0768 1.02505,-0.90639 2.56466,-1.02688 3.80137,-0.53301 z m 33.56439,-10.17527 c 1.78748,-8.95007 -5.59643,-12.43336 -6.19632,-16.01182 0.26109,9.61543 -7.76922,11.24675 1.69737,16.25972 -0.96753,7.93213 3.31054,19.46036 4.44157,5.15463 l 0.0754,-2.57313 -0.018,-2.8294 0,0 z m -79.49537,8.91076 c 8.4292,-1.7272 28.93882,4.68492 15.98488,-7.49362 9.60179,-8.66055 -8.39634,-27.65805 6.87126,-27.0029 -7.05532,-9.017855 -16.37912,7.59117 -24.23733,-3.99404 -9.32789,4.23538 10.417,3.97891 0.4566,10.5151 -1.21704,5.43849 -7.30794,32.74765 0.92459,27.97546 z m -29.01032,-3.90732 c 6.27886,-11.44163 -15.4068,10.59966 0,0 l 0,0 z m -2.50756,-16.01101 c -11.43283,-12.33296 6.19502,22.36495 1.37532,2.28128 l -1.37532,-2.28128 z m 100.37433,-3.31376 c -8.29722,-13.05304 -3.00691,17.04261 0,0 z m -37.65669,-10.56102 c -7.42353,-4.54967 -1.46189,-8.80716 -1.61005,-13.268015 -5.67229,7.273145 -14.43879,3.058545 -3.75484,13.159545 2.05766,2.66411 7.82101,8.45421 5.36489,0.10847 z m -44.51109,-1.02061 c 11.84363,-1.70338 -9.6665,-6.7339 -7.51768,3.18485 1.63227,-2.44216 4.47931,-4.47239 7.51768,-3.18485 z"
       id="path7299"
       inkscape:connector-curvature="0" />
    <path
       style="fill:#a03446"
       d="m 258.94817,453.85305 c -10.52782,-8.05033 -31.01492,2.47419 -45.33968,-4.48633 -22.10801,-3.20247 -42.28451,-22.36366 -40.858,-45.69584 -2.00064,-29.85266 -2.39009,-59.9348 2.78174,-89.50293 -0.25948,-26.32893 -0.99379,-52.79827 -3.84201,-78.99071 7.70647,-13.68764 1.05035,-27.78383 2.11975,-42.88764 0.22154,-33.6632 -1.08397,-67.52674 2.258,-101.047412 9.9567,-9.788561 -18.44675,-4.013441 -19.08356,5.893416 -16.16719,34.586306 -16.72218,73.774726 -27.16791,110.068496 -12.62888,14.29917 -6.19017,-17.23132 -4.5117,-24.39152 5.69375,-29.12769 9.62001,-59.42846 22.72066,-86.326569 9.19113,-9.57407 10.21158,-28.903223 21.31079,-37.116883 7.77665,-1.065533 25.85417,21.742125 16.0812,2.89608 13.82967,-6.332586 36.41324,-13.536733 53.76223,-11.962483 14.08563,8.330967 31.24168,5.880288 47.3227,6.175591 14.50127,-0.77704 28.23837,-8.029702 41.32851,0.275491 16.41885,2.62694 33.35749,8.530107 49.30379,8.914736 3.20446,10.462953 -25.41083,8.501191 -3.95979,10.430871 14.05185,6.680579 16.47079,23.606054 20.35371,38.256296 3.10571,15.85804 13.98824,31.95818 11.68665,47.89472 8.89146,4.95345 9.79902,28.45199 9.09811,42.49323 -10.201,-8.3101 -14.09357,-30.44656 -15.84597,-45.53818 -3.46828,-18.88627 -10.62525,-36.93697 -12.89859,-56.10978 1.11041,-22.24592 -28.62528,-13.586898 -22.04293,5.22376 4.30253,40.71019 3.93819,81.77497 7.43949,122.55153 -7.72916,10.08712 -0.16183,27.13672 -2.58587,42.89639 -0.54189,53.716 -1.01449,107.43268 -1.50644,161.14916 -4.67647,7.28983 -16.94021,8.37631 -19.1716,13.33231 -15.97545,3.61495 -28.12476,8.01804 -44.61587,8.66567 -12.68561,2.85046 -31.35153,0.095 -40.46253,-1.1684 -1.35675,3.57379 -3.62999,0.0351 -3.67488,-1.89307 z m -14.99995,-31.26941 c -4.42055,-18.11552 -8.4369,12.36956 0,0 z m 32.54006,-65.2099 c 9.86447,-4.42066 -17.72573,0.29954 -7.59394,3.85842 1.96548,-2.21896 4.79609,-3.26058 7.59394,-3.85842 z m 42.25781,-31.73196 c -1.99378,-13.08712 -5.56525,3.43319 -9.39062,6.14538 -0.43225,9.39764 11.18743,-2.12963 9.39062,-6.14538 z m -28.17187,-4.97981 c -5.73596,-9.02853 -4.99643,15.87927 0,0 z m -18.78125,-7.8071 c -5.08057,-8.17402 -24.555,0.56079 -6.05948,0.7671 1.67802,-0.83078 6.57781,3.19545 6.05948,-0.7671 z m -29.01264,-3.97811 c -4.73284,-4.4131 -17.38375,6.32517 -3.62061,2.96617 1.62519,-0.006 6.55522,-0.25635 3.62061,-2.96617 z m -7.5819,-11.24351 c -0.96513,-1.20434 13.07668,4.72825 13.78094,-3.63536 13.70471,8.19711 35.13138,7.11099 49.7507,1.18602 9.11949,-17.98524 -26.93694,-11.41742 -37.51247,-12.19858 -9.70362,8.28452 -24.47447,-11.50846 -30.02846,3.33513 2.9811,7.08511 -8.32092,19.01425 4.40804,12.62899 l -0.39875,-1.3162 0,0 z m 5.32702,-8.03835 c 2.54273,-5.108 -9.86563,-0.0599 -0.42584,-6.57372 8.93629,-1.89683 -1.02753,16.48856 0.42584,6.57372 z m -0.21716,-19.70709 c 14.68662,-2.47928 30.04044,-1.78121 44.89038,-0.44573 10.08093,13.9793 28.13751,-10.34477 10.87828,-16.69125 -11.68963,5.66905 -32.72639,3.57244 -44.81893,5.43318 -5.49302,-9.16333 -12.91935,12.05596 -17.9391,2.18159 -5.24279,9.25142 5.0035,5.7833 3.09162,12.76496 1.54575,-0.28016 4.40703,-1.24212 3.89775,-3.24275 z m 62.00421,-27.84212 c -1.04446,-7.12473 -26.80054,-3.82973 -29.50068,-0.49947 9.75156,-1.14565 24.3545,5.01863 29.50068,0.49947 z m -37.57309,-2.39087 c -7.70688,-3.04415 -28.10184,-5.14989 -29.3056,2.23429 9.61135,0.0165 20.44927,1.86469 29.3056,-2.23429 z m 30.0258,-8.2063 c -1.93471,-10.30403 -15.71198,-7.05976 -2.86617,-17.15777 5.33558,-9.38532 5.9562,-26.2674 -8.90203,-17.57569 -14.34806,-10.51614 -13.52071,14.10141 -7.41875,21.9651 8.67971,-13.28021 9.30518,19.90244 1.9693,4.17362 -4.76893,-2.00137 1.12362,8.93949 -7.94156,5.18767 0.61322,8.37308 19.15684,2.66399 25.15921,3.40707 z m -48.61111,-3.1503 c 1.64267,3.38092 29.80321,4.10821 11.36758,-4.78172 1.13955,1.57867 -21.9755,0.78477 -13.88751,7.7159 l 1.66777,-0.8949 0.85216,-2.0393 0,2e-5 z m 9.20527,-14.02618 c 3.14257,-5.26404 6.88263,10.0326 9.26617,-3.58284 3.24659,-12.14075 1.67693,-21.15833 -12.71195,-14.78892 -14.66222,-8.35689 -7.78316,14.27403 -7.92976,17.68336 -9.99644,4.03566 9.70187,6.82833 11.37554,0.6884 z m 68.82868,-8.6759 c 1.21873,-12.76547 -2.39252,-7.87151 -7.00085,-2.11341 11.0433,9.14291 -10.48092,1.59761 0.37789,8.98977 6.63263,4.34465 5.66323,-2.75208 6.62296,-6.87636 z m -57.31445,-20.485 c -1.70556,-13.38012 8.67519,-32.12605 -6.05683,-40.52599 5.2161,-1.70607 22.03187,4.32755 30.85327,3.27735 -0.77204,8.4234 -17.50543,-1.00863 -19.32941,4.84812 -0.24054,12.43382 -0.48106,24.86764 -0.72158,37.30146 6.29178,-1.03525 22.44189,2.10635 21.20326,-4.91483 -3.2268,-4.51813 -2.08106,-10.99073 2.50805,-4.99434 -0.15794,-13.23726 -0.61586,-29.65306 14.05472,-34.24436 5.55373,8.7352 11.80308,-7.35622 17.19243,1.37866 5.00625,-10.52032 -1.46708,-29.05327 -0.20153,-35.3048 11.41419,-6.47851 -15.9589,-4.03865 -20.55495,-6.48315 -1.59032,7.01201 7.93444,13.13425 2.15017,21.23729 1.1953,8.97193 -8.56089,29.62802 -9.05644,12.16502 6.93944,-7.62666 4.49253,-31.34044 -4.83348,-34.08948 -9.26769,2.45383 -19.88838,-1.6706 -14.9579,-9.754476 -3.27382,5.443346 -4.43857,13.351356 -10.50277,3.22724 -9.52009,9.913356 -34.05898,3.881766 -29.5365,25.807426 -1.70906,9.6195 1.77548,13.66809 3.96293,15.42568 -2.85626,11.72859 -12.4519,-4.84888 -8.30572,-8.5974 -8.35662,-10.74705 15.35458,-29.73286 -7.22276,-25.57177 -17.32866,1.89512 -17.79641,27.20187 -10.90917,37.20175 -3.35051,-12.77545 9.07807,4.21567 17.75347,1.78687 16.32473,4.62526 11.21619,29.54648 6.91058,41.42867 5.19853,2.35797 24.95994,9.15095 25.60016,-0.60494 z m 4.44235,-58.13616 c 5.48007,-8.63526 -12.02015,-17.10218 2.48697,-15.67569 -6.40689,-8.32341 -9.94163,-13.038798 -0.56775,-3.63625 3.80594,8.5966 0.43757,26.35263 -1.91038,31.70897 -0.55522,-4.1103 -0.26653,-8.27676 -0.009,-12.39703 z m 54.42656,57.09228 c -2.0668,-8.99118 6.94488,-27.92667 -1.53777,-30.80104 -0.69365,6.30268 -17.8255,-6.42855 -20.8881,1.07365 0.55141,8.74368 5.73602,19.39603 -0.58719,26.54144 0.84585,3.06578 -6.50077,12.14995 5.78493,9.68805 5.441,-0.91794 19.29013,3.4961 17.22813,-6.5021 z m -87.99056,1.79315 c -0.73508,-7.74156 -13.93717,5.46105 -2.05915,1.68854 l 2.05915,-1.68854 z M 217.96901,166.7335 c 6.35778,-6.78768 -10.81557,-7.61784 -4.40466,3.33054 0.83095,5.66644 1.65621,-3.86119 4.40466,-3.33054 z M 339.875,145.21574 c -10.8924,-7.43686 -5.5574,7.89545 1.52689,1.15434 l -1.52689,-1.15434 z m 15.00859,-1.39098 c 3.16857,-6.38958 0.44032,-26.80592 -1.3418,-9.17543 0.24374,4.41548 -7.29655,19.30688 1.34185,9.17543 l -5e-5,0 z M 329.11311,98.255735 c 2.49485,-4.875306 -20.88034,6.869015 -5.01746,3.484075 2.0332,-0.3494 4.23528,-1.4225 5.01746,-3.484075 z M 206.96988,61.968145 c -5.79597,-4.432377 -19.41676,4.388549 -4.51361,1.649964 l 2.04636,-0.423492 2.46725,-1.226472 z"
       id="path7297"
       inkscape:connector-curvature="0" />
    <path
       style="fill:#6c5050"
       d="m 258.94817,453.85305 c -10.52782,-8.05033 -31.01492,2.47419 -45.33968,-4.48633 -22.10801,-3.20247 -42.28451,-22.36366 -40.858,-45.69584 -2.00064,-29.85266 -2.39009,-59.9348 2.78174,-89.50293 -0.25948,-26.32893 -0.99379,-52.79827 -3.84201,-78.99071 7.70647,-13.68764 1.05035,-27.78383 2.11975,-42.88764 0.22154,-33.6632 -1.08397,-67.52674 2.258,-101.047412 9.9567,-9.788561 -18.44675,-4.013441 -19.08356,5.893416 -16.16719,34.586306 -16.72218,73.774726 -27.16791,110.068496 -12.62888,14.29917 -6.19017,-17.23132 -4.5117,-24.39152 5.69375,-29.12769 9.62001,-59.42846 22.72066,-86.326569 9.19113,-9.57407 10.21158,-28.903223 21.31079,-37.116883 7.77665,-1.065533 25.85417,21.742125 16.0812,2.89608 13.82967,-6.332586 36.41324,-13.536733 53.76223,-11.962483 14.08563,8.330967 31.24168,5.880288 47.3227,6.175591 14.50127,-0.77704 28.23837,-8.029702 41.32851,0.275491 16.41885,2.62694 33.35749,8.530107 49.30379,8.914736 3.20446,10.462953 -25.41083,8.501191 -3.95979,10.430871 14.05185,6.680579 16.47079,23.606054 20.35371,38.256296 3.10571,15.85804 13.98824,31.95818 11.68665,47.89472 8.61598,5.22542 10.17925,29.08524 8.43457,42.94777 -10.45063,-12.73795 -13.67695,-31.70289 -15.46624,-48.23956 -4.55142,-18.67326 -10.15166,-37.08216 -13.25267,-56.08738 -0.89411,-22.449024 -30.01834,-7.107224 -21.05047,9.93151 3.29134,31.67298 2.94084,63.63599 5.00252,95.35712 -2.89901,4.50342 7.09126,29.6604 -2.03509,32.25754 3.50605,30.81793 0.36778,62.04891 0.97286,93.02258 -0.32291,34.49211 -0.63212,68.98435 -0.94739,103.47653 -4.67647,7.28984 -16.94021,8.37631 -19.1716,13.33231 -15.49864,3.85632 -28.50517,7.32522 -43.64622,9.22544 -9.74479,5.17598 -13.7815,-7.85685 -19.54578,0.9445 -3.56845,-9.1104 -15.13072,7.47256 -20.29428,-4.53446 -2.3291,2.98971 -3.93658,5.6963 -5.26729,-0.0313 z M 246.75129,422.2785 c 7.87937,2.09108 -13.67179,-12.93057 -7.45276,1.63107 0.27619,6.04491 3.92868,-3.97214 7.45276,-1.63107 z m 61.36936,-18.09114 c -0.23623,-20.95152 -11.18263,11.39179 -0.72414,6.97465 1.73,-1.86201 1.65483,-4.76549 0.72414,-6.97465 z M 272.9668,393.22397 c 6.07991,-5.30854 -15.63212,1.85299 -6.42012,3.90667 1.63151,-2.00941 3.98018,-3.23091 6.42012,-3.90667 z m 24.66584,-7.71678 c 10.10404,-3.39813 -8.61509,-2.94102 -4.13932,5.57675 0.91495,-1.61953 1.24415,-6.47175 4.13932,-5.57675 z m -21.816,-0.60744 c 1.66416,-1.4634 3.04036,4.08277 5.59522,-5.59919 1.25591,-8.81977 14.86286,-18.44988 -0.73306,-22.82754 -22.68141,-7.54145 -9.98866,20.41313 -10.72775,29.12295 -13.59341,-1.2634 1.9933,8.38483 5.86559,-0.69622 z m -1.67602,-22.63122 c -13.11322,-8.87671 21.70994,0.64436 4.67135,1.91379 l -2.08731,-0.80402 -2.58404,-1.10977 0,0 z m 32.3948,22.63122 c 0.22595,-7.57542 17.80615,-22.93409 5.85733,-26.34429 -6.72312,12.24883 -21.28478,-9.48307 -18.80482,8.67588 -2.95664,9.6299 12.34571,16.27736 13.12888,20.62337 l -0.18139,-2.95496 0,0 z m -22.26217,-36.70123 c 8.18423,-4.27077 12.36615,-32.22858 -3.11303,-29.24013 -9.62185,3.52615 -13.65532,-3.95493 -12.24446,10.10639 -0.73034,6.55704 -1.1476,28.17596 3.13733,17.56985 3.58992,5.2044 5.86868,11.88707 12.22016,1.56389 z m 32.12519,2.63143 c -6.70438,-8.66114 13.9486,-35.22921 -11.12206,-30.918 -13.47052,-8.85784 -12.88791,26.65667 -5.98038,23.5097 3.92574,-7.11106 0.9223,11.58591 -3.79491,6.41983 1.61065,5.18876 17.15949,3.96487 20.89735,0.98847 z m -54.87102,-19.30517 c 7.88705,-12.33466 -6.01159,-15.70311 -14.48544,-10.60814 -9.55422,-6.77233 -8.73152,22.5127 3.23528,18.92551 5.75203,2.4279 9.94006,-3.50197 11.25016,-8.31737 z m 79.27023,3.56901 c 4.37303,-5.11985 -0.71369,-27.73443 -3.98067,-13.89555 2.09215,-2.04779 -9.15977,27.26348 3.98067,13.89555 z M 233.57672,322.92356 c 8.32844,-8.32481 -18.03745,0.0807 -3.97656,1.50105 0.68559,-1.30666 2.58542,-2.37283 3.97656,-1.50105 z m 38.21625,-10.06869 c -5.08057,-8.17402 -24.555,0.56079 -6.05948,0.7671 1.67802,-0.83078 6.57781,3.19545 6.05948,-0.7671 z m -29.01264,-3.97811 c -4.73284,-4.4131 -17.38375,6.32517 -3.62061,2.96617 1.62519,-0.006 6.55522,-0.25635 3.62061,-2.96617 z m -7.1342,-10.24731 c 2.26772,-3.45115 10.81898,4.48903 13.33245,-4.63338 14.31544,9.30764 33.944,3.95847 50.51084,5.23938 1.17052,0.41834 6.27469,-18.09317 -6.87823,-15.3137 -16.64615,-6.34428 -34.35717,5.39299 -48.14914,-2.33657 -10.04127,-5.6544 -15.9638,6.14932 -13.91289,15.49767 -8.09069,4.827 5.1627,4.62273 5.09697,1.5466 z m 0.93199,-12.49549 c 9.03688,-12.02572 9.08384,7.9923 0,0 z m 90.08357,9.20982 c 2.25852,-3.53825 5.1461,2.14754 5.80402,-3.81904 8.72228,1.18708 2.68832,-9.24896 -2.96075,-4.9279 8.88554,-6.27081 -15.58105,-6.16119 -6.32521,-1.99125 4.78291,3.86746 12.29596,8.97066 1.57342,5.82012 -10.64767,-2.68494 -11.16421,2.58939 -1.31174,2.89931 -7.52683,4.28268 0.56973,6.1529 3.22026,2.01876 z m -86.35462,-25.45597 c 15.13195,-2.47389 31.60087,-0.29141 47.01906,1.62951 18.3821,14.5807 20.53197,-28.49243 3.28437,-15.7553 -15.94966,-1.27461 -33.98463,4.80353 -45.61776,1.20446 -4.55584,8.05654 -8.49731,4.50348 -12.4203,4.45676 -3.22808,8.90422 5.66798,4.53356 3.8381,11.70732 1.54541,-0.28 4.40725,-1.24218 3.89653,-3.24275 z m 95.64147,-1.42 c 9.95387,-5.919 -10.38871,-21.81815 -10.5155,-8.23015 -12.20664,-2.87698 0.30689,9.48513 2.14856,11.54516 3.01951,-0.3064 5.94289,-1.49648 8.36694,-3.31501 z m 29.02133,-17.45639 c -3.86195,2.45863 1.84129,17.35719 0,0 z m -62.65737,-8.96573 c -1.04446,-7.12473 -26.80054,-3.82973 -29.50068,-0.49947 9.75156,-1.14565 24.3545,5.01863 29.50068,0.49947 z m -37.57309,-2.39087 c -7.70688,-3.04415 -28.10184,-5.14989 -29.3056,2.23429 9.61135,0.0165 20.44927,1.86469 29.3056,-2.23429 z m 30.00894,-27.42285 c 1.07787,-10.05103 2.22045,-22.97124 -11.32962,-15.63522 -16.10209,-11.98324 -14.94845,18.01124 -10.33347,26.69915 10.78028,5.18383 -13.56321,5.18645 1.57843,9.06988 5.24477,-2.18328 19.91738,4.14851 19.37475,-4.36786 0.23664,-5.25531 0.47328,-10.51067 0.70991,-15.76595 z m 23.63808,19.64491 c 6.02169,-2.43931 7.14106,-26.89205 4.38244,-35.44674 -5.12111,5.9254 -25.13449,-7.27403 -18.66124,8.56623 2.69098,3.84411 -4.93117,33.4929 11.18767,25.36692 l 1.6312,0.43069 1.45993,1.0829 0,0 z M 264.75,228.89594 c -7.38374,-4.79478 3.04265,-19.10437 1.03982,-29.63477 3.82255,-11.37944 -11.6132,-1.88807 -16.8865,-2.51003 -12.51208,-7.2607 -6.73609,21.44037 -2.44642,28.97881 2.28122,6.73017 13.85632,7.24841 18.2931,3.16599 z m 102.96686,-14.34518 c -4.27423,-2.0781 -5.1679,20.89066 -0.59268,3.93745 l 0.43348,-2.16765 0.1592,-1.7698 z M 216.79424,201.51453 c -2.26137,-21.79517 -5.83859,19.93933 -0.20536,3.20014 l 0.2054,-3.20014 -4e-5,0 z m 127.74013,4.0705 c -1.27419,-6.54034 -15.02349,9.61075 -1.28329,3.0993 l 0.97279,-1.27132 0.3105,-1.82798 z m -10.27839,-4.12431 c -2.89861,-15.08579 -5.27649,9.31135 -0.12489,2.78056 l 0.12489,-2.78056 0,0 z M 266.8736,185.11114 c -1.70556,-13.38012 8.67519,-32.12605 -6.05683,-40.52599 5.2161,-1.70607 22.03187,4.32755 30.85327,3.27735 -0.77204,8.4234 -17.50543,-1.00863 -19.32941,4.84812 -0.24054,12.43382 -0.48106,24.86764 -0.72158,37.30146 5.78241,-0.50686 24.79754,0.99716 20.129,-4.55242 11.76723,-7.80931 -1.72609,-25.60507 9.33606,-34.07247 7.85798,-8.78926 13.35897,1.01308 21.20297,-7.35757 10.96463,7.63759 2.6959,-22.975 5.81335,-30.87835 7.06186,-8.37795 -20.9673,-8.59197 -23.44027,-5.15503 4.36607,9.66108 1.75293,33.85577 -3.00613,38.28549 -9.85957,-6.80927 6.16187,-9.17958 0.1746,-19.92066 3.02894,-7.89907 -0.37441,-16.43619 -5.96407,-21.5765 -6.33469,4.07579 -27.28321,-4.849111 -12.97583,-5.831147 -8.17171,-17.193593 -4.61786,16.584177 -13.51481,-0.0176 -8.71866,7.650384 -35.02649,3.459824 -30.28981,25.106454 -1.70906,9.6195 1.77548,13.66809 3.96293,15.42568 -5.58795,12.38322 -12.77006,-9.04172 -8.05801,-16.29052 -1.7136,-9.9464 10.17117,-21.74567 -7.47047,-17.87865 -17.32867,1.89511 -17.79641,27.20187 -10.90917,37.20175 -3.35051,-12.77545 9.07807,4.21567 17.75347,1.78687 16.32473,4.62526 11.21619,29.54648 6.91058,41.42867 5.19853,2.35797 24.95994,9.15095 25.60016,-0.60494 z m 4.44235,-58.13616 c 5.48007,-8.63526 -12.02015,-17.10218 2.48697,-15.67569 -6.40689,-8.32341 -9.94163,-13.038798 -0.56775,-3.63625 3.80594,8.5966 0.43757,26.35263 -1.91038,31.70897 -0.55522,-4.1103 -0.26653,-8.27676 -0.009,-12.39703 z m 54.54622,60.67857 c -1.23862,-10.3022 6.69283,-30.07214 -1.66959,-34.38733 -0.58393,6.62273 -18.69653,-7.48612 -20.73792,2.09193 0.0843,11.84289 -0.5574,23.74183 -3.37243,35.2844 8.35548,-0.89766 19.05551,2.35961 25.77994,-2.989 z m -87.88167,-2.16976 c -1.41638,-3.25468 -23.5932,-3.1526 -9.40391,2.62949 3.18051,0.14731 7.2048,0.0705 9.40391,-2.62949 z m 3.29294,-18.09444 c -4.71914,-17.21926 -3.85403,24.04303 0,0 z m -22.20493,2.59443 c 2.77995,7.33824 8.60785,-10.04332 13.87356,3.18075 1.00619,0.41853 -11.79734,-21.63305 -0.87797,-7.90027 6.41383,-0.99693 -2.83707,-10.86089 6.34706,-14.6051 -11.21274,-2.2496 -15.24367,16.08086 -18.00911,6.16843 -7.49903,6.10574 -1.10841,-18.88939 -5.97228,-1.81325 -0.91348,6.5833 -2.6397,22.25259 3.6023,12.58447 l 1.03644,2.38497 0,0 z m 135.8684,-26.8631 c 2.68378,-7.53122 3.64814,-31.45475 -5.28034,-18.93285 -7.01377,-11.72139 -4.29483,10.01571 -9.2202,9.50573 -1.59765,7.57448 -14.24343,15.58299 2.896,13.52387 3.84637,-0.3688 9.86192,0.32868 11.60454,-4.09675 z m -19.79317,-10.45697 c -3.61008,-11.54844 -4.75783,16.48534 0,0 l 0,0 z M 186.54272,119.48608 c -2.8391,0.0901 0.27275,19.40958 0.45461,4.52367 l -0.12036,-2.48325 -0.33428,-2.04042 3e-5,0 z m 155.67994,-7.74243 c -8.17159,-9.75177 -9.84607,9.40336 0,0 z M 328.9857,98.593909 c 3.41326,-8.556102 -17.73867,7.511041 -7.55621,3.260701 2.71321,0.0769 6.2569,-0.49383 7.55621,-3.260701 z m -62.35767,-3.24011 c 7.03072,-6.878202 0.15309,-30.002681 -5.46601,-12.884621 -10.97154,-4.683777 -7.45774,3.389636 -1.51133,7.205806 -14.40839,-6.136799 -5.21464,6.390269 2.32928,3.79864 -3.5801,5.409915 2.0555,3.940422 4.64806,1.880175 z M 206.96988,61.968145 c -5.79597,-4.432377 -19.41676,4.388549 -4.51361,1.649964 l 2.04636,-0.423492 2.46725,-1.226472 z"
       id="path7295"
       inkscape:connector-curvature="0" />
    <path
       style="fill:#8f152c"
       d="m 258.86297,451.16323 c -0.32102,-12.6841 -15.35837,9.00285 -20.07575,-4.69876 -1.90676,10.2185 -7.81687,-4.17571 -12.70072,4.28489 -13.94909,1.86327 -27.2441,-8.83911 -36.70283,-12.53538 -10.76865,-6.31041 -8.69986,-16.4737 -14.93815,-21.9104 -2.33226,-30.71441 -3.4292,-61.86286 0.003,-92.53742 3.70668,-15.22407 7.31638,-30.86802 4.36113,-46.60342 -0.0124,6.78407 -0.84637,39.63145 -5.14092,17.12456 0.80835,-18.1862 1.58842,-36.45309 -1.44023,-54.51311 4.99969,-15.71119 3.07601,-30.86989 2.00952,-47.24867 -0.11536,-33.53786 -1.17323,-67.22632 1.74361,-100.660227 10.41495,-16.156982 -15.22259,4.650318 -13.34274,-9.227381 0.46625,-8.255864 9.47494,4.257399 5.54062,-4.565638 -13.14424,3.37499 -13.32733,27.190916 -19.99782,39.311996 -7.58492,25.64005 -10.7974,52.42063 -16.82053,78.49204 2.53597,9.35478 -10.7695,25.20399 -8.30267,6.50794 5.40846,-35.64066 8.8018,-72.72952 25.80537,-105.168339 7.90353,-10.609256 11.33686,-35.308129 25.27912,-35.316295 3.48623,3.906813 21.75228,14.774879 11.60283,1.414697 6.68551,-10.378091 29.37263,-5.48226 40.88863,-12.999011 16.33876,-1.847337 31.6677,10.546129 49.31916,6.47212 14.03763,2.349994 25.70086,-5.684425 38.63171,-3.233919 12.10047,3.13083 26.16929,3.487399 36.74362,9.85295 -14.14301,1.439257 6.01845,6.129684 8.52656,1.287013 2.24055,8.391534 17.68403,-7.883514 15.06549,5.518361 -10.00052,3.809759 -16.27494,4.248113 -2.49497,5.539485 15.49763,3.362859 -11.31276,7.208424 2.57887,8.548625 9.80745,-2.366483 12.5491,-1.531089 2.4628,3.954145 -9.19033,2.782879 -16.63007,-2.096974 -14.35788,9.604572 -1.17803,7.824756 -6.85747,29.981316 -14.94328,24.503136 -5.35736,-6.83483 -3.14065,12.00369 -7.73008,11.33177 -0.65831,7.20228 -14.59656,14.94157 1.89507,13.54536 17.86625,6.00952 10.99026,-12.57387 19.03199,-19.44152 8.49494,14.74925 3.95253,35.14902 5.96464,52.08585 -0.21741,19.60771 2.3259,39.38767 1.00386,58.83951 -0.39842,3.95956 -6.8875,-6.95801 -6.48331,1.43199 9.43153,12.87254 3.47265,32.97399 5.61081,48.75035 -0.10394,47.19747 1.48536,94.55089 -1.30273,141.65096 -4.82354,17.56415 -26.6734,16.55344 -40.03996,22.5136 -11.41402,0.98642 -25.46705,7.36549 -35.5425,2.66552 -2.57876,-1.77633 -9.2675,5.74238 -11.56119,-1.44623 -4.83084,9.37701 -16.37302,-0.79523 -19.24929,0.36439 l -0.90077,-3.49011 -2e-5,0 z m 33.89389,-24.42338 c -1.40799,-17.23613 -6.67252,19.41679 -0.12117,3.01706 l 0.12117,-3.01706 0,0 z m -44.44045,-4.81281 c 11.71719,1.05242 -8.30691,-4.96974 -9.20937,-4.36973 -4.00649,13.75226 2.82907,6.25756 9.20937,4.36973 z m 59.80424,-17.73968 c -0.23623,-20.95152 -11.18263,11.39179 -0.72414,6.97465 1.73,-1.86201 1.65483,-4.76549 0.72414,-6.97465 z m -33.98003,-11.00753 c -3.27722,-9.02315 -16.32445,10.70517 -3.34907,1.6317 l 3.34907,-1.6317 z m 12.7154,0.088 c 0.16583,-21.25288 -9.31962,7.07644 -0.0802,3.79909 l 0.0802,-3.79924 0,1.5e-4 z m 27.19476,3.24433 c -19.20025,-12.05807 9.47551,-28.19032 1.25308,-44.9188 -4.27383,-9.94132 12.22188,-33.82075 -4.12626,-36.21616 -10.30266,10.05436 -10.71702,-5.52643 -7.23079,-11.90385 -3.99458,-0.6332 -8.10532,13.65501 -11.0249,1.93022 1.08919,-7.67247 16.14743,-2.99183 9.33353,-14.98898 -8.34274,-15.00218 -31.34531,-5.09132 -45.68808,-9.05384 -11.83798,5.70261 -20.2442,-14.79951 -4.46936,-11.08774 -12.71592,5.60061 6.47986,5.50929 7.14416,8.06252 7.13075,-7.9369 32.64916,-13.25198 33.75342,0.76855 2.75308,-6.60899 17.31503,-5.73351 11.0777,-0.4157 5.62432,-5.00621 9.0209,-11.64412 -0.31416,-11.15391 0.16672,-6.99192 9.40346,-28.20603 -0.40542,-13.33892 -15.84334,-1.74425 -0.54443,-12.08372 6.00181,-10.81667 -7.95733,-1.00084 1.47758,-7.75119 -9.25966,-5.93836 -21.80713,0.17303 -43.92563,-1.6554 -65.53154,1.52875 0.51343,11.09421 23.12179,-0.93821 31.81969,5.12421 7.14498,-6.03537 26.62623,16.89924 17.73421,3.94616 7.42982,-0.8438 -11.81008,-5.62372 2.45132,-4.14282 14.3071,-1.17996 -0.25354,17.0208 -10.01807,11.06546 -15.35079,0.0216 -30.69246,-0.62527 -46.03801,-0.96228 -0.26087,11.69808 9.7554,20.46674 7.23474,32.38661 -12.26377,-1.16741 3.48327,-20.23777 -7.58221,-12.26171 3.89064,13.24361 -2.81777,23.86988 -1.46888,35.4018 14.64691,13.68874 11.25677,-20.02092 27.81758,-10.02608 -6.70412,-0.78133 -15.94872,6.22456 -4.15646,5.52787 -2.34884,6.35511 -14.23402,7.10004 -1.00684,7.58884 15.0226,0.64873 30.06059,0.80428 45.09198,1.15424 -0.0398,10.35622 -2.01591,21.00235 -0.3307,31.15085 10.42176,-6.0337 1.154,-1.01882 3.70039,5.62423 -15.34411,-0.58589 7.51248,9.77426 11.75566,9.35627 -8.91016,7.5927 -21.57658,-9.98074 -17.9392,9.18275 2.41174,10.64275 13.42395,16.13738 16.23084,27.82267 0.49677,1.65902 4.92376,2.77156 4.19043,-0.39618 z m -35.54964,-85.73123 c -7.61627,-5.06274 2.41509,-13.90925 5.73194,-5.66248 -1.21517,-16.68746 14.01824,10.7094 -3.28147,6.04104 l -2.45047,-0.37856 0,0 z m 20.12883,76.09323 c 8.23893,-11.69428 -16.25566,5.6733 -2.78452,3.02257 l 1.21961,-1.2802 1.56491,-1.74237 0,0 z m -22.81333,-1.97439 c 1.66416,-1.4634 3.04036,4.08277 5.59522,-5.59919 -0.18126,-9.97108 13.02502,-13.1601 6.60698,-23.68888 -0.85647,8.2803 -24.30972,-1.99004 -15.13588,-8.69533 -0.33827,12.36631 28.73668,2.55982 11.11916,2.10609 7.30079,-5.46117 12.00357,-28.60916 3.05061,-32.47357 -7.14182,-0.36018 -19.97882,11.00381 -11.7078,-1.28652 -13.49678,8.2124 -5.31782,32.81104 -8.1749,47.3629 -3.50948,9.00113 11.27628,24.12813 -2.42003,23.81184 0.91515,5.50079 9.20841,1.24158 11.06664,-1.53734 z m -1.67602,-22.63122 c -13.11322,-8.87671 21.70994,0.64436 4.67135,1.91379 l -2.08731,-0.80402 -2.58404,-1.10977 0,0 z m -11.73828,-12.37821 c -5.21442,-12.4322 -8.16149,1.94818 -0.31965,2.53122 l 0.31965,-2.53122 z m -0.71941,-18.39444 c 3.22899,-7.9894 5.87566,-20.68456 -5.51514,-12.51777 -8.41103,4.98779 -16.02981,-8.12319 -15.44558,6.87217 -4.61231,14.29707 18.25554,20.66574 20.96072,5.6456 z m 79.11472,3.59791 c -0.25932,-8.55249 10.20197,-27.4594 -4.356,-15.91222 5.00836,-1.81719 -11.45973,29.56413 4.356,15.91222 z M 233.7619,323.04011 c 8.32191,-4.95273 -15.12232,-12.13461 -0.2374,-4.02814 -11.84122,-1.37206 -8.71806,10.83125 0.2374,4.02814 z m 92.27085,-3.99955 c -11.47578,-4.44368 4.03851,10.99334 7e-5,0 l -7e-5,0 z m 9.51237,-8.25757 c 1.20597,-6.05802 2.23114,-34.06726 -2.97051,-20.21049 7.74886,6.55169 -5.96416,11.16046 1.55039,17.06455 -6.46766,-0.32747 -13.51621,-13.099 -8.69789,1.15176 3.92305,-1.62824 6.71148,7.81292 10.11801,1.99418 z m 27.80644,-10.27585 c -4.583,-11.73361 -9.33787,13.05471 0,0 z m -169.69739,-18.4145 c -2.47785,-1.9257 0.001,26.47691 0.40343,6.57488 l -0.10086,-3.50318 -0.30257,-3.0717 z m 28.139,10.11213 c -1.87817,-17.526 -4.20944,13.9239 -0.0307,5.94455 l 0.0689,-2.67636 -0.0383,-3.26819 0,0 z m 125.64955,-7.72127 c 1.88668,-9.66561 -3.09756,-12.82483 -2.56199,-1.75158 -0.71993,6.84015 0.99616,22.28585 2.09625,7.31271 l 0.22971,-2.60054 0.23603,-2.96059 z m -20.78103,10.86028 c 1.35112,-4.92892 10.11999,7.8071 3.90128,-2.85545 -7.17596,-5.83264 -24.06775,-0.50331 -7.38069,0.1161 -6.42344,7.09521 -1.23496,6.26011 3.47941,2.73935 z m 2.86101,-8.71751 c 1.80137,-3.60719 15.65733,-12.55254 4.12668,-11.63685 4.20731,11.80073 -22.26049,1.9709 -7.81036,12.23454 0.56273,1.46948 6.0734,2.46398 3.68368,-0.59769 z m 34.32964,-7.52221 c -3.33426,-24.25243 -4.20664,22.00198 0,0 z M 335.7666,268.60327 c 9.58124,-9.88455 -1.1039,-8.86613 -7.18153,-4.12173 -5.92356,2.65441 4.60991,-5.25351 4.13585,-5.76982 6.91454,-0.13032 -8.89356,-23.22953 -3.04634,-4.9933 -2.28006,4.26234 -7.24324,8.00104 -10.10165,8.04455 7.45255,5.24914 3.69405,15.87084 16.19367,6.8403 z m 15.68166,-0.85581 c -1.54039,-16.96322 -9.1931,-1.17385 -0.57308,1.26641 l 0.57308,-1.26641 z m 13.56011,-15.54061 c -2.67971,-1.90476 0.0506,21.86241 0.41969,5.37945 l -0.10492,-2.86624 -0.31477,-2.51321 0,0 z m -12.59383,-6.09601 c 1.86861,-15.11517 -6.72141,3.74234 -2.31594,8.5765 1.41026,-2.657 1.64272,-5.70309 2.31594,-8.5765 z M 236.57812,228.61709 c -4.20997,-7.08966 -13.63967,10.57754 -1.41866,1.86942 l 1.03758,-0.94788 0.38108,-0.92154 z m 30.51954,-1.06282 c -4.97568,-4.16449 -7.06607,0.0465 -2.67858,-8.86978 2.12056,-7.7674 3.26121,-36.36693 6.07372,-31.98061 5.4538,6.17824 9.24893,4.36455 0.99739,9.64727 -3.56354,11.71619 -1.10661,24.10657 -0.87105,36.13108 7.80251,0 15.60503,0 23.40754,0 0.36568,-12.8294 1.08497,-25.79271 2.20174,-38.45507 -11.75443,-0.3719 -3.82251,-2.50331 1.05867,-5.86006 -0.97587,-5.59927 4.17024,-14.18794 -1.13127,-16.17805 16.80435,-5.37591 -7.36715,28.90944 15.6087,19.71222 22.47407,3.93138 12.42483,-25.21237 17.59784,-38.59347 -12.86157,-2.99478 12.84687,-18.84784 4.59235,-25.71838 -8.15542,20.05046 -2.67232,-20.44611 2.8019,-25.66284 7.38374,-15.292738 -9.02111,12.66292 -17.03445,4.21781 -8.02643,-6.031514 -12.74947,6.1076 -10.93674,-9.548844 -4.93773,-0.712221 -11.15685,14.117914 -21.92968,7.744914 -4.97698,1.42136 -12.0558,-8.090731 -3.86976,-5.078375 -3.64358,-13.659015 -14.58032,10.046335 -13.70812,-7.940761 -0.31554,-6.870104 2.19323,-25.130587 -7.75468,-10.794619 0.0459,4.406186 -15.01389,-1.775329 -4.40244,6.770825 7.74738,5.478619 -15.44223,-2.452994 -1.2286,6.094133 9.47915,-2.444343 10.21622,14.704307 0.16708,5.73218 -5.92129,11.822647 -19.27654,-4.713893 -21.30972,-6.502661 7.75351,20.700058 -30.59754,1.461477 -21.93719,25.192628 0.40394,10.54758 3.01365,24.2193 -9.09878,23.2568 5.47692,8.14364 29.67999,-0.48966 28.80803,10.51681 -7.70779,-4.06049 -9.8417,18.65391 -10.35093,3.02203 -2.85457,-12.51579 -2.06389,14.66113 -5.2418,-0.34387 -1.85403,-19.30226 -9.85452,27.86723 3.2867,17.75461 1.08492,-5.11977 12.68268,-1.67932 13.11724,0.71256 -4.3039,-4.53702 -9.29066,-18.96724 -1.02366,-6.78336 1.82146,-3.14143 5.93934,-20.0713 6.11049,-4.98182 -2.38952,8.6841 1.92151,20.10057 3.61997,4.7705 1.7371,1.21878 0.28793,15.55573 0.44752,22.18873 2.81795,4.94252 18.12462,-0.55764 20.85351,4.49244 -6.09666,3.27618 -19.40673,-2.33247 -22.39743,2.78602 1.40856,11.11527 -1.59378,24.64226 7.21904,33.13077 -16.52908,-1.56651 5.29249,8.20059 11.83825,2.96689 2.34825,-0.63134 6.45541,-0.44878 7.0972,-3.54865 z M 265.935,181.06028 c 1.58212,-7.5946 6.87031,-20.20024 5.59726,-4.7049 1.54723,2.00116 -6.2539,9.44485 -5.59726,4.7049 z m 48.84825,49.24073 c 1.9011,1.37966 11.47557,5.85445 8.03754,-5.15359 1.31382,-7.1547 4.95025,-40.118 -4.78762,-25.98198 -7.41435,-10.43856 -26.52809,-0.0752 -12.36521,8.14003 -4.40979,9.18199 4.93794,23.61572 -8.05002,23.23008 1.23763,4.25562 16.32867,3.96031 17.16531,-0.23454 z m -96.98638,-3.42825 c -12.42129,-9.48492 -5.66945,8.40538 0,0 z m -1.67068,-21.89818 c 1.25428,-6.04975 4.44348,-18.34819 -2.82154,-7.46506 -2.63898,3.61947 3.31279,19.13685 2.82154,7.46506 z m 128.40818,0.61045 c -1.27419,-6.54034 -15.02349,9.61075 -1.28329,3.0993 l 0.97279,-1.27132 0.3105,-1.82798 z M 185.58487,192.7439 c -3.65911,3.10464 1.91508,21.88958 1.38265,6.13208 -0.13074,-2.05405 -0.0704,-4.38879 -1.38265,-6.13208 z m 148.59368,8.17951 c -5.76083,-10.58444 -5.95937,-0.54818 -2.84479,4.59851 -1.86038,4.96919 5.47384,-3.43203 2.84479,-4.59851 z m -95.99198,-4.01278 c 4.92065,-8.85029 -3.5196,-9.01048 2.77223,-18.01193 -4.91629,4.82009 -25.85212,5.37391 -8.60912,9.29789 10.97956,1.10907 -8.29543,14.6277 5.6881,11.09538 l 0.37947,-1.0409 -0.2307,-1.34044 2e-5,0 z m 116.9482,0.90409 c -3.11491,-6.23164 -16.74147,0.22597 -3.09253,2.22643 l 1.68293,-0.55661 1.4096,-1.66982 z m -19.95508,-9.56345 c -8.17155,-9.75177 -9.84611,9.40332 0,0 z m -116.53383,-3.5863 c -10.0659,-12.17723 -2.30089,12.42414 0,0 z m -31.10757,-62.16243 c -0.764,-8.05249 11.4764,-23.463308 -3.79276,-14.63239 -4.60182,6.25729 4.34183,14.12989 1.46338,24.68072 1.25038,8.92004 2.26094,-8.98191 2.32938,-10.04833 z M 357.77522,111.047 c -3.95107,-3.70692 -33.107,-5.10609 -17.15037,2.22932 5.67569,-0.0901 11.87467,0.0991 17.15037,-2.22932 z m -147.02131,-5.35554 c 2.57477,-3.55346 11.70385,-16.714633 2.17726,-7.419981 -4.98828,3.946171 -17.35982,11.967561 -3.14297,9.863151 l 0.70544,-1.06485 0.26027,-1.37832 0,0 z m 89.21093,-6.95645 c -2.36483,-14.088809 -8.3175,6.44334 -0.68962,2.43317 l 0.68962,-2.43317 0,0 z m 29.73699,-0.141101 c 0.15466,-7.558309 -20.18468,8.314621 -3.99344,3.195451 1.70535,-0.0343 4.18598,-1.0532 3.99344,-3.195451 z m -80.03754,-2.858973 c -5.51191,-14.613405 -8.28497,5.731424 -0.14303,2.911029 l 0.14303,-2.911029 0,0 z M 173.19141,73.489848 c -5.53042,-3.650987 -4.10894,-14.65871 -5.69492,-1.595225 0.0612,2.429522 5.66659,6.533338 5.69492,1.595225 z m 90.39023,-5.358699 c -4.7632,-5.431125 17.24693,-2.026733 2.66676,-6.26592 -9.171,-0.408615 -15.02984,0.975552 -10.02723,7.440609 -3.218,5.445377 5.25335,-4.296339 7.36047,-1.174689 z m 36.3832,-2.610844 c -8.35806,-13.052253 -5.5767,11.748512 0,0 z m -90.38476,-4.002091 c 1.34574,-3.853016 -32.25014,3.264052 -12.32528,2.187306 4.14043,-0.418824 8.38445,-0.746992 12.32528,-2.187306 z m 197.8422,130.917066 c -4.89802,-6.09441 -9.43922,-37.13383 0.70028,-18.55013 12.49972,8.20887 -15.05847,-1.60747 1.38896,6.93202 -1.81747,7.91528 8.95684,20.01802 3.66101,25.38191 -2.05748,-4.52764 -3.90179,-9.1482 -5.75025,-13.7638 z m -8.00015,-31.66106 c -0.57519,-12.14963 1.50416,3.28508 6.18803,-4.99655 3.34008,2.60168 -5.08761,11.51429 -6.18803,4.99655 z"
       id="path7293"
       inkscape:connector-curvature="0" />
    <path
       style="fill:#5f161f"
       d="m 258.86297,451.16323 c -0.32102,-12.6841 -15.35837,9.00285 -20.07575,-4.69876 -1.90676,10.2185 -7.81687,-4.17571 -12.70072,4.28489 -13.94909,1.86327 -27.2441,-8.83911 -36.70283,-12.53538 -10.76865,-6.31041 -8.69986,-16.4737 -14.93815,-21.9104 -2.33226,-30.71441 -3.4292,-61.86286 0.003,-92.53742 3.70668,-15.22407 7.31638,-30.86802 4.36113,-46.60342 -0.0124,6.78407 -0.84637,39.63145 -5.14092,17.12456 0.80835,-18.1862 1.58842,-36.45309 -1.44023,-54.51311 4.99969,-15.71119 3.07601,-30.86989 2.00952,-47.24867 -0.11536,-33.53786 -1.17323,-67.22632 1.74361,-100.660227 10.41495,-16.156982 -15.22259,4.650318 -13.34274,-9.227381 0.46625,-8.255864 9.47494,4.257399 5.54062,-4.565638 -13.14424,3.37499 -13.32733,27.190916 -19.99782,39.311996 -7.58492,25.64005 -10.7974,52.42063 -16.82053,78.49204 2.53597,9.35478 -10.7695,25.20399 -8.30267,6.50794 5.40846,-35.64066 8.8018,-72.72952 25.80537,-105.168339 7.90353,-10.609256 11.33686,-35.308129 25.27912,-35.316295 3.48623,3.906813 21.75228,14.774879 11.60283,1.414697 6.68551,-10.378091 29.37263,-5.48226 40.88863,-12.999011 16.33876,-1.847337 31.6677,10.546129 49.31916,6.47212 14.03763,2.349994 25.70086,-5.684425 38.63171,-3.233919 12.10047,3.13083 26.16929,3.487399 36.74362,9.85295 -14.14301,1.439257 6.01845,6.129684 8.52656,1.287013 2.24055,8.391534 17.68403,-7.883514 15.06549,5.518361 -10.00052,3.809759 -16.27494,4.248113 -2.49497,5.539485 15.49763,3.362859 -11.31276,7.208424 2.57887,8.548625 9.80745,-2.366483 12.5491,-1.531089 2.4628,3.954145 -9.35326,2.712304 -16.56356,-2.027211 -14.43702,9.755088 -0.6305,6.73891 -1.93838,20.72547 -10.33681,17.36709 14.92504,-8.13549 -12.46679,-7.87342 -16.22016,-6.16838 -0.96299,11.98099 2.11463,27.76246 -2.71537,36.73882 11.16411,3.35981 27.13435,2.91459 23.50537,-12.99314 10.03182,-13.74842 8.79885,17.89876 9.48447,25.21684 0.56021,26.58808 1.56454,53.22261 2.21127,79.76871 -2.62788,41.65729 -0.77538,83.63693 -1.26305,125.42266 -0.70577,23.09361 1.17963,46.51934 -2.13786,69.38073 -7.0386,16.72036 -28.36172,13.73982 -41.39773,21.54866 -7.06075,0.1529 -20.74551,2.87733 -24.16534,2.37832 4.75181,-5.61707 7.47469,-16.9865 6.90937,-19.00354 8.70913,-18.60026 -14.30892,0.49475 -14.98149,-3.39861 1.63635,-8.07968 -0.3266,-18.58274 -2.77256,-4.16007 -4.36054,11.08379 3.41941,20.6135 7.62342,27.77459 -6.61352,-1.37222 -7.75879,-3.57216 -14.50761,-0.39539 -2.27125,-7.15181 -14.7182,8.27596 -18.05207,-3.6003 -3.48114,5.80474 -4.45474,1.57348 -5.35147,-2.72293 z m 15.2045,-2.90562 c 2.90513,-10.26405 2.9925,11.11921 5.15677,-4.29692 0.35713,-20.59461 -27.28699,-1.069 -10.88109,8.90453 3.01939,2.0838 5.05103,-2.81247 5.72432,-4.60761 z m 53.7291,-6.17638 c -6.53158,-6.12992 8.12034,-2.14375 -2.7702,-7.67046 -13.17229,-4.71741 -3.31907,24.57458 1.73453,11.32959 0.28861,-0.89056 2.31416,-2.57144 1.03567,-3.65913 z m -78.04762,2.41866 c 3.41384,-7.49418 4.81358,-22.75072 -3.63407,-15.40245 -2.05925,-17.0969 -9.43696,30.30516 3.63407,15.40245 z m -19.93578,-4.6103 c 5.71463,-9.93901 -1.78486,-10.857 -6.62545,-19.39747 -7.21789,-1.87096 -9.67302,-4.68231 -0.96887,-6.91693 -10.9778,-5.74869 -12.02575,15.57973 -3.49223,8.57846 -8.12128,9.38289 -3.84015,31.83424 11.08655,17.73594 z m 116.66663,-4.96584 c 0.0113,-18.46452 -13.56114,6.88176 -3.99712,8.67818 2.93216,-1.71949 3.49616,-5.64698 3.99712,-8.67818 z M 245.23145,423.2872 c 12.26038,-1.03564 3.16598,-3.36047 -2.86559,-4.55691 -2.69637,-11.56569 -7.87613,16.53258 1.89774,4.26371 l 0.96785,0.2932 z m 66.47167,-0.98716 c -2.54747,-3.29941 -12.07076,5.81682 -4.60112,-4.60911 12.57852,-8.9859 0.69763,-26.65084 1.46062,-31.59575 8.2655,6.84512 5.05616,-18.93077 7.13718,-25.13593 -4.09323,-7.8001 -6.84304,-5.28424 0.40694,-9.34664 3.78278,-8.87155 5.39843,-40.71039 -5.65033,-34.94274 -14.69422,8.33349 -3.98109,-10.52722 -8.14391,-13.65718 -0.86288,10.84389 -15.36558,5.54217 -6.42583,-2.12349 17.10468,-1.22428 1.1025,-25.18519 -11.68375,-18.49448 -12.89718,-3.77503 -38.48431,6.90514 -41.24924,-9.86548 3.2784,-4.5548 14.04111,-2.74739 4.03451,1.50936 9.08344,0.76954 10.01504,7.87103 17.25185,-0.0348 10.97921,-5.29904 27.41176,-3.84299 30.3615,4.39798 6.78313,-10.28489 10.90444,1.36841 11.60289,-0.96638 4.29507,-7.48923 5.5637,-8.9309 -2.44535,-9.90091 0.16672,-6.99192 9.40346,-28.20603 -0.40542,-13.33892 -15.84334,-1.74425 -0.54443,-12.08372 6.00181,-10.81667 -7.95733,-1.00084 1.47758,-7.75119 -9.25966,-5.93836 -21.80713,0.17303 -43.92563,-1.6554 -65.53154,1.52875 0.51343,11.09421 23.12179,-0.93821 31.81969,5.12421 7.14498,-6.03537 26.62623,16.89924 17.73421,3.94616 7.42982,-0.8438 -11.81008,-5.62372 2.45132,-4.14282 14.36496,0.46009 -2.77635,16.98877 -12.60153,11.12953 -14.48813,-0.17173 -28.96972,-0.68394 -43.45451,-1.02633 -0.26087,11.69808 9.7554,20.46674 7.23474,32.38661 -12.26377,-1.16741 3.48327,-20.23777 -7.58221,-12.26171 3.89064,13.24361 -2.81777,23.86988 -1.46888,35.4018 14.64691,13.68874 11.25677,-20.02092 27.81758,-10.02608 -6.70412,-0.78133 -15.94872,6.22456 -4.15646,5.52787 -2.34782,6.35483 -14.23461,7.09991 -1.00786,7.58879 14.01541,4.23407 43.6383,-8.12344 44.93432,11.46598 -2.50029,12.10527 -1.16757,30.08322 0.74559,33.12054 -8.18896,2.28091 -2.56613,17.248 -4.1084,24.88555 -1.72567,12.02701 6.32847,-1.8385 12.08255,9.08216 12.28883,9.9735 -8.97106,5.61213 -11.94759,4.31302 1.35399,12.03162 -0.74798,41.0072 18.64629,26.81551 z M 278.50114,310.78091 c -7.61627,-5.06274 2.41509,-13.90925 5.73194,-5.66248 -1.21517,-16.68746 14.01824,10.7094 -3.28147,6.04104 l -2.45047,-0.37856 0,0 z m -0.56844,107.59092 c 5.38811,-8.83578 13.85867,-31.09903 4.22421,-33.73938 9.65462,-1.89938 7.91638,-24.93186 4.77608,-28.32469 -7.16672,6.90833 -7.73369,-1.55151 -14.09966,-2.20281 4.91025,-3.01067 18.4528,3.59747 17.54341,-4.83073 5e-4,-10.73029 1.99672,-21.69897 0.0598,-32.25252 -8.24646,-3.41667 -22.8937,11.51439 -15.72104,-2.05469 -11.75259,9.18454 -6.1708,29.23267 -8.53545,43.03653 -0.35549,10.36007 -0.71097,20.72015 -1.06646,31.08022 6.77968,-2.77524 25.88577,5.51643 13.21364,5.22004 -10.70497,-8.03948 -14.21484,2.67524 -10.95219,6.50908 -10.23298,8.0269 12.74123,25.4372 -4.56886,20.67336 -0.0476,6.01144 16.34071,4.46378 15.12648,-3.11441 z m 54.81613,-16.5245 c -0.24858,-6.33818 -11.14243,-5.43328 -13.85877,-9.07909 -1.34384,6.99119 7.8625,14.34076 8.46579,23.0917 3.31097,-3.74355 4.95928,-9.07872 5.39298,-14.01261 z m -104.13435,7.47817 c -9.44431,-4.8471 12.55766,-9.7868 0.44311,-11.39665 -4.75168,-5.70581 -3.88087,-16.57904 -9.1986,-4.84984 -5.47301,6.52434 -3.69567,8.99111 -0.003,11.19193 -16.11142,5.35386 9.75182,5.27259 6.24079,10.4454 l 1.56853,-2.35178 0.94943,-3.03906 0,0 z m 24.39724,-2.67806 c 17.45612,-9.91629 -17.16703,-17.0609 -11.03226,-0.70043 -0.0745,9.58297 9.50768,10.90935 11.03226,0.70043 z m 98.64804,-9.58136 c -9.51089,-9.47308 -8.51036,22.23058 -2.09592,8.85439 2.16986,-2.37717 6.78433,-6.28478 2.09592,-8.85439 z M 259.6831,376.53173 c 0.69673,-7.62759 3.49854,-30.77371 -4.32373,-13.74747 -0.76801,-6.1878 -8.44169,-14.83378 -10.42506,-2.91205 -8.46692,4.99914 -6.51379,19.97186 -5.02107,26.82068 6.46006,0 12.92011,0 19.38017,0 0.1299,-3.38705 0.25979,-6.77411 0.38969,-10.16116 z m 77.66899,7.17258 c -3.97842,-8.52486 4.62067,-19.17271 1.48736,-21.93817 -14.56506,-14.61528 -26.49318,26.43946 -5.95422,22.03166 1.78796,1.45772 5.28255,5.43107 4.46686,-0.0935 z m -117.616,-1.59391 c -0.57089,-10.36199 10.78524,10.76909 11.44923,-4.48784 2.26164,-7.55218 3.83281,-32.18616 -7.05829,-17.87977 -6.45791,-10.41969 -15.24794,10.81518 -6.33016,11.26839 -3.18575,3.49281 -8.99881,15.81121 1.93922,11.09922 z M 201.8522,365.94931 c -0.66947,-3.75687 -2.28612,-23.49476 -5.84481,-10.14888 0.98032,-0.66852 2.56494,17.53053 5.84481,10.14888 z m 161.49936,-8.23951 c -5.29715,-15.27226 -8.84324,22.7027 -0.26296,1.96526 l 0.26299,-1.96526 -3e-5,0 z m -99.36114,-24.87241 c 1.10914,-8.87519 2.73498,-22.29409 -10.37959,-14.67352 -7.022,0.46529 -16.7773,-2.06755 -12.8815,8.27486 -1.98026,10.02395 9.4278,22.17909 -0.63352,22.9597 10.00627,9.2888 25.66068,-15.28951 18.71951,1.32321 5.6381,7.45363 4.06908,-16.29418 5.1751,-17.88425 z m 74.53404,17.41411 c 5.31565,-10.14203 2.61271,-23.96628 7.3395,-34.47991 -7.53475,3.84964 -18.54453,1.43087 -24.76141,5.34647 7.2342,3.27724 5.52012,29.11402 0.29294,16.65025 -2.00707,8.38998 7.21807,7.96986 0.29693,12.45825 5.10308,3.80851 11.33079,-1.86175 16.83204,0.0249 z m -106.293,-10.95744 c 6.29703,-10.30945 -4.01315,-23.17445 -15.62529,-18.5913 -2.65107,11.08358 -1.66978,28.70191 14.04408,29.05795 2.49878,-2.67545 1.37046,-7.19608 1.58121,-10.46665 z m 119.57989,-7.59101 c 4.40754,0.88851 3.55477,-20.03248 -2.91841,-6.29311 -3.63336,6.23537 -1.44333,10.44378 2.70387,4.50004 l 0.21454,1.79314 0,-7e-5 z m 6.80694,-18.48797 c -2.98007,-7.16929 1.50793,22.45309 1.02945,20.1096 0.62842,-6.67399 2.00469,-13.8037 -1.02945,-20.1096 z m -123.05661,7.13137 c -2.60054,-6.88338 -12.24814,-5.6847 -2.38905,-0.95191 -10.17899,-1.58916 6.77246,10.30118 2.38905,0.95191 z m 99.76401,-8.36802 c 6.32559,-8.55587 -5.26311,-28.63527 1.98181,-27.31712 1.30181,-10.19076 4.29288,-22.87552 -2.92358,-26.65609 0.37391,-8.11984 -8.96932,-18.18808 -5.34381,-3.44188 -4.9642,0.26387 -12.36859,-13.28782 -7.06646,0.15801 -12.20142,12.63737 7.61991,17.13033 13.75775,18.15332 -1.98919,11.78266 -20.9944,5.78643 -17.652,15.79294 -8.85874,6.45133 10.99039,11.61742 6.00343,20.87943 4.99255,-3.48502 6.6507,5.64931 11.24286,2.43139 z m -8.11162,-7.96586 c -4.30469,-7.57153 8.39281,-4.94405 5.69163,-12.95419 5.94341,6.2575 -4.94293,10.95861 0.94682,16.58624 -2.73483,0.75467 -5.63994,-1.013 -6.63845,-3.63205 z m 33.0726,-0.49785 c 1.59413,-8.0533 7.6678,-28.19418 0.93461,-31.22679 -0.99345,7.78422 -0.27237,14.97407 -9.2582,8.54433 -3.30272,5.9533 -5.88233,20.34119 -4.47142,5.92611 1.84533,-9.28465 -2.71636,-17.41576 -2.75553,-3.29518 -0.37994,8.47835 -1.30249,18.66247 5.30293,18.1536 1.33885,4.54692 7.18019,4.38513 10.24761,1.89793 z m -6.91265,-2.08545 c 2.26666,-5.00488 7.9478,-21.09931 5.70082,-5.31297 4.04857,4.44589 -8.48019,9.57885 -5.70082,5.31297 z M 193.65417,282.09264 c -2.47785,-1.9257 0.001,26.47691 0.40343,6.57487 l -0.10086,-3.50317 -0.30257,-3.0717 z m 28.14112,10.18783 c 1.23304,-9.46206 -7.01513,-1.18959 -10.27776,-10.02944 -12.62237,3.09762 -11.85424,14.09909 0.82613,14.4982 5.29995,-14.67804 7.63729,6.80491 9.45484,1.13581 l 0.0486,-2.39235 -0.0518,-3.21222 0,0 z m -7.36787,-22.48935 c 2.34234,-4.8155 10.66095,-8.2904 -1.66647,-8.70893 -10.31927,-1.96955 -15.11194,0.33489 -6.6553,8.85535 1.19706,0.91129 9.78663,3.81636 8.32177,-0.14642 z m 137.02084,-2.04366 c -1.54039,-16.96322 -9.1931,-1.17385 -0.57308,1.26641 l 0.57308,-1.26641 z m 14.01694,-13.14974 c 0.88565,-11.10111 -2.21914,-8.65657 -3.55261,-0.59772 -0.44799,-11.48861 -9.93073,-11.54685 -5.49175,1.61584 3.8477,3.75151 8.85593,3.29583 8.10455,11.53391 1.24217,-4.0669 0.89425,-8.36669 0.93981,-12.55203 z m -12.90243,-10.16117 c 1.10676,-22.39682 -7.13435,24.47183 -0.70194,3.97894 l 0.34344,-1.87201 0.3585,-2.10693 0,0 z M 189.625,246.82741 c -4.82989,-19.84521 -1.85347,18.4278 0,0 z m 46.95312,-18.21032 c -4.20997,-7.08966 -13.63967,10.57754 -1.41866,1.86942 l 1.03758,-0.94788 0.38108,-0.92154 z m 30.51954,-1.27896 c -6.74129,-4.98989 2.43969,-26.66376 1.34538,-39.39264 2.82844,-10.00472 2.39379,5.81641 9.1095,4.7478 -12.7001,3.87 -6.66807,22.03269 -7.31488,32.55479 -2.32743,8.81546 4.92822,7.52919 11.24352,7.23415 5.49925,-0.71111 15.22752,2.99703 12.87505,-5.91902 -0.96955,-10.46673 4.70561,-25.42907 -0.57713,-32.54188 -12.88981,-2.4301 10.4722,-2.52314 3.14792,-11.86507 7.90441,-2.7561 -6.65261,-14.91184 3.75717,-11.00027 5.92697,5.17581 -5.99979,21.95701 3.40424,20.99296 11.81399,0.0493 26.84603,0.18771 22.95247,-16.53163 -0.0717,-9.60551 4.78107,-23.66489 -1.5463,-26.46959 2.26309,-7.2452 14.17956,-15.67179 8.46011,-21.75831 -8.34973,19.75602 -2.51592,-14.36054 0.49092,-20.88337 4.91227,-7.72079 7.02961,-15.479745 -1.73449,-3.92959 -8.25638,5.37834 -21.51347,1.62861 -24.62552,0.2147 6.81102,-8.234734 -4.84052,-9.323356 -6.0482,-0.70725 -6.20117,9.55916 -33.76017,-4.703969 -16.3757,-4.8038 6.94799,1.879003 9.90871,-4.888332 11.76728,4.90009 6.61566,-13.118763 -5.31391,-28.812924 1.62776,-38.953812 -7.14364,-1.721746 -7.85326,12.027293 -14.89033,11.334651 0.50428,6.086539 -10.55809,-4.628531 -4.25299,5.993005 6.37406,9.395832 -3.5815,11.894721 -6.94664,18.438343 -6.95822,-8.643389 -1.24204,-26.691475 -8.58685,-32.113371 -16.54586,0.455572 -16.88041,20.592508 -18.15424,31.682419 5.26275,3.273875 3.20895,-11.054305 9.81183,-0.410223 21.94766,-0.833151 -10.11036,7.432218 -11.4668,4.398398 -6.04434,-6.463954 -15.91459,-19.604291 -10.04047,-31.450625 -5.11491,-14.733452 -16.18877,12.487925 -17.35708,19.728566 0.66864,9.222799 -27.37331,18.864979 -7.77268,17.469859 5.703,-9.645794 10.12106,-20.915731 22.53086,-14.515766 11.05161,7.412576 -6.09058,11.742736 -14.04698,9.960156 -13.52232,3.5665 3.93538,40.44555 -11.383,33.61829 -3.98777,-11.28091 -0.98259,-30.85379 -17.34495,-27.4776 11.99459,-10.882403 -17.50408,1.13246 -4.86216,4.98861 0.86285,10.1846 -1.02066,20.49425 9.33426,25.21946 -20.33615,-3.8015 9.17869,12.59327 5.70231,-2.04741 6.37195,11.79933 31.3016,1.79978 32.82496,12.56548 -8.07771,-1.12528 -17.75134,8.02032 -16.45569,-3.00203 -2.9609,6.16061 -7.04024,27.46668 3.88178,24.76287 -6.0082,7.34461 -3.0424,5.13474 1.70088,6.28382 -0.97479,6.80426 5.12548,9.66056 14.90468,11.48036 -6.11271,3.64302 -1.6995,15.46719 1.99884,6.77698 4.97291,-8.77856 -3.45757,-8.92494 2.55233,-17.82392 -11.79745,11.37038 -6.11114,-3.57532 -4.34969,-9.96234 8.95649,7.69065 3.37163,25.96508 21.13809,21.10804 15.01517,3.28502 -10.35521,2.85988 -16.13987,2.80058 -0.63611,8.01003 0.17312,18.40051 1.47316,26.96383 2.65439,8.01198 7.4434,7.271 -1.31222,7.96717 0.51439,7.18463 22.68813,4.42018 25.54956,-0.62586 z m 47.68559,2.96288 c 12.35322,9.39286 7.65969,-19.21275 10.2153,-28.83551 0.4649,-11.91495 -32.10125,-9.00713 -24.02428,6.77854 3.64592,11.68814 -11.7738,29.92787 9.79112,24.69733 0.87951,-0.41507 4.88559,-0.38393 4.01786,-2.64036 z m -96.98638,-4.07814 c -10.1483,-3.11239 1.45084,-7.20047 7.35269,-1.19133 17.88549,-2.56386 4.21753,-42.02476 -8.68305,-21.32318 -2.84022,-3.24582 8.22947,-15.32948 -2.50142,-8.80944 -7.15861,15.00041 11.26924,12.97248 9.07137,24.86729 -6.47948,-2.25464 -9.01273,-13.61566 -9.60945,-0.52752 -10.04269,6.14995 -3.96264,7.99019 2.02221,10.85268 l 1.65803,-1.74589 0.68962,-2.12261 z m 127.7237,2.30467 c -1.75348,-11.44856 4.64367,-7.14977 5.31646,-0.6734 0.22448,-7.79716 -1.79174,-20.4363 3.08796,-21.07368 -8.6079,-5.47808 9.08301,-12.68091 -6.7062,-10.84386 -8.31149,-0.22047 -24.2735,-1.23554 -15.79347,9.05071 -4.90012,6.37462 4.39752,32.68075 14.09525,23.54023 z m -143.30831,-7.99962 c 8.74351,-5.17016 -12.54909,-19.57839 -4.32274,-8.15288 -8.15293,1.64399 8.49567,17.25804 4.32274,8.15288 z M 185.58487,192.7439 c -3.65911,3.10464 1.91508,21.88958 1.38265,6.13208 -0.13074,-2.05405 -0.0704,-4.38879 -1.38265,-6.13208 z m 149.59482,-3.96846 c 6.46314,-6.78749 19.61538,-4.7905 18.97265,-11.5221 -1.19641,-8.35937 -4.72298,-28.63 -17.47867,-16.72363 -14.5677,2.30515 4.87235,22.71905 -5.85362,18.67232 11.70317,6.51556 -12.41088,10.23502 3.3252,10.89176 l 1.03444,-1.31835 0,0 z m -2.18264,-18.91226 c 1.36279,-12.73501 7.22888,-2.97247 0.42151,3.851 l -0.42151,-3.851 z m -114.35119,14.80179 c -10.0659,-12.17723 -2.30089,12.42414 0,0 z m -26.07678,-1.79314 c 2.38524,-5.57786 10.12884,8.03504 9.23143,-1.79258 12.10895,12.04548 3.1071,-5.87311 -1.53215,-8.95981 5.6567,-3.61671 0.64984,-24.13884 -5.11469,-13.72847 -6.68985,-2.43469 -0.45462,21.33994 -6.59725,27.18484 1.66085,1.15081 3.65846,-1.43114 4.01266,-2.70398 z M 329.70183,98.593909 c -2.53201,-8.945512 -7.09413,-33.472156 -19.20685,-18.894352 -5.32373,9.649418 2.81419,20.785613 8.21517,14.710341 10.32788,4.330123 -0.28231,4.941138 -0.22136,7.359132 3.49877,-0.20895 10.41513,1.81232 11.21304,-3.175121 z M 173.19141,73.489848 c -5.53042,-3.650987 -4.10894,-14.65871 -5.69492,-1.595225 0.0612,2.429522 5.66659,6.533338 5.69492,1.595225 z m 98.60156,-10.148554 c -6.68946,-5.128246 -29.35943,2.541231 -9.39063,2.055327 2.90753,-0.464409 7.16675,0.38834 9.39063,-2.055327 z m -62.21289,-1.82308 c 1.34574,-3.853016 -32.25014,3.264052 -12.32528,2.187306 4.14043,-0.418824 8.38445,-0.746992 12.32528,-2.187306 z m 197.8422,130.917066 c -4.89802,-6.09441 -9.43922,-37.13383 0.70028,-18.55013 12.49972,8.20887 -15.05847,-1.60747 1.38896,6.93202 -1.81747,7.91528 8.95684,20.01802 3.66101,25.38191 -2.05748,-4.52764 -3.90179,-9.1482 -5.75025,-13.7638 z m -8.00015,-31.66106 c -0.57519,-12.14963 1.50416,3.28508 6.18803,-4.99655 3.34008,2.60168 -5.08761,11.51429 -6.18803,4.99655 z"
       id="path7291"
       inkscape:connector-curvature="0" />
    <path
       style="fill:#271010"
       d="m 308.60182,447.99773 c 3.18189,-15.33417 5.52924,-8.29521 7.15416,0.8576 9.601,3.9136 -13.45196,12.56405 -7.15416,-0.8576 z M 196.08105,442.7061 c -8.93268,-3.5898 -4.36938,-16.91249 -11.16924,-7.53386 -14.03206,-14.71543 -12.08311,-35.69796 -12.40947,-54.39613 0.15517,-23.93613 -2.20661,-48.89785 5.92048,-71.82481 8.92559,-0.59107 4.47413,-17.37242 8.47613,-20.49208 -1.71748,10.39097 5.58205,14.19818 6.38342,23.68896 8.48383,-8.5584 -1.10826,-23.71901 -0.98416,-35.43498 -2.68217,6.43047 1.36077,13.39231 -6.7378,7.72657 -0.41576,-17.75822 -11.63274,-7.67364 -7.74508,4.90048 1.2721,6.53721 -1.89295,21.70166 -3.92405,6.66344 1.22041,-10.25931 -3.2263,-35.78098 9.41593,-36.07179 5.52737,4.87827 5.54956,2.10762 3.53712,9.64875 11.39509,1.51629 1.19444,-22.97822 1.59879,-30.73099 -8.63046,11.35759 -8.20563,-6.73286 -14.66089,-2.18378 2.33282,19.30515 -5.69731,-9.70061 3.53568,-14.48032 8.00023,-16.7474 4.05066,10.76986 16.72856,4.44185 11.87934,2.95219 31.99511,-0.006 33.14103,14.22284 4.26528,-8.89875 10.27589,12.2081 20.41179,2.58238 10.14766,-2.06467 21.94901,1.64873 33.21654,1.87586 1.10479,15.82362 8.51695,0.15762 7.14846,-0.35563 4.4103,15.53928 -22.3475,6.75166 -31.85943,9.04714 -8.46529,0 -16.93059,0 -25.39588,0 -1.06462,10.33474 1.21469,21.85275 -4.27955,30.98818 7.77285,10.21052 -5.42613,21.50456 7.22813,29.45032 -9.29378,-2.31349 -21.80277,-7.18116 -21.31792,6.13996 -8.10254,-1.95492 1.71354,-12.70825 -9.94672,-6.46111 2.91118,6.43922 -9.83108,-2.47238 -8.64725,5.31472 -10.31628,-9.53061 3.45188,24.575 -13.22611,15.83301 -8.57531,1.21627 -0.53068,12.97486 1.93181,3.81691 11.41764,0.66898 -17.22435,8.9878 -2.19148,14.91432 2.65739,6.41205 2.2185,10.79308 6.31496,9.53648 6.42066,17.42568 -18.32989,-7.16428 -6.05011,6.68355 7.3724,7.39364 8.844,7.40071 10.97548,-2.39935 3.53302,6.28843 4.60157,11.99031 -3.9478,12.85661 1.92731,6.96543 -1.71578,12.98825 -2.23377,6.97 -0.9931,7.34419 5.98239,20.21321 9.58872,22.15048 -5.72025,16.60345 -5.18701,-2.19954 -9.37003,-9.47392 -7.93177,5.33686 -5.56582,-18.18332 -8.11459,-6.45468 1.12204,6.6302 0.72761,12.33765 6.68007,11.38281 2.47977,9.99274 1.19715,20.04751 9.09803,26.16762 -7.82363,10.20045 22.38764,9.67281 7.75067,13.83228 l -2.13847,-1.06395 -2.73185,-1.47814 -1.5e-4,0 z m -17.7248,-87.5726 c -7.54616,-2.77393 0.93377,14.58564 1.23252,1.52418 l -1.23252,-1.52418 z m 7.05858,-40.62877 c -9.66372,-0.67102 2.46081,2.16002 0.22807,9.24502 1.54669,-2.79938 1.7838,-6.57713 -0.22807,-9.24502 z m 32.41799,-16.87148 c 5.68283,5.50793 5.70391,-10.96241 3.67293,-15.32962 -7.29939,-0.33919 -14.59877,-0.67838 -21.89816,-1.01757 -1.18701,10.56259 7.06207,26.37599 18.22518,16.34719 l 5e-5,0 z m 3.46307,-32.50644 c 2.24923,-9.92539 -11.92323,-10.55372 -5.18097,-15.82772 -10.44543,10.21019 -7.79425,1.18265 -8.1727,-0.82937 -5.98815,5.36936 -6.80018,7.4501 -8.90325,6.14673 -11.86503,16.64817 22.11916,26.9184 22.25692,10.51036 z m 38.96586,172.96964 c -2.6998,-6.18181 -1.10005,-32.59362 1.82063,-28.15855 1.51927,8.63018 0.94102,22.99801 -1.82063,28.15855 z m -25.99534,-18.52919 c 5.08025,-22.36976 3.78359,16.75638 0,0 z m 99.8855,-0.87544 c 4.52194,-21.60197 2.79208,15.90766 0,0 l 0,0 z m 30.36395,-13.46974 c 2.22586,-9.27136 -7.01453,-34.97505 3.34567,-32.47588 -5.99672,9.0515 3.76802,25.59436 -0.11643,40.30105 -0.47589,17.87993 -4.3627,0.3198 -3.22924,-7.82517 l 0,0 z m -156.10961,10.30228 c 5.20526,-16.57035 4.54131,12.7519 0,0 z m 141.68138,1.34529 c 4.64259,-5.53308 0.81383,-12.19855 8.03845,-2.66491 -1.624,0.78201 -16.46396,9.18278 -8.03845,2.66491 z m -90.03294,-25.39503 c 0.275,-12.54327 8.41206,5.158 1.34685,4.40442 l -0.70009,-1.02732 -0.64676,-3.3771 z m 28.82818,-0.14608 c 3.88252,-8.94938 12.27558,9.43957 0.0886,1.99426 l -0.0886,-1.99426 z m -54.6524,-2.16976 c 6.16338,-12.72459 5.72739,14.25315 0,0 l 0,0 z m 102.63728,1.2077 c -9.16,-9.38909 17.91064,-4.15898 2.86907,1.78853 l -2.86907,-1.78853 0,0 z m -22.81697,-1.28272 c 3.22724,-7.06299 15.4592,7.10654 1.55165,1.67778 l -1.13485,-0.75235 -0.4168,-0.92543 z m 34.94911,-2.9351 c 2.67813,-8.17707 15.62631,-8.08378 3.60518,-0.34112 11.89363,-4.97562 -10.20344,11.59998 -3.60518,0.34112 z m -32.0568,-30.53698 c 1.6183,-16.74102 1.27316,15.98018 0,0 z m -53.95383,-1.09581 c 4.35139,-20.32336 2.13259,15.87825 0,0 z m -30.6121,-0.19055 c -4.02603,-4.67275 11.33784,-12.3271 7.28107,0.089 -0.37912,5.67839 -5.51933,2.92981 -7.28107,-0.089 z m -23.26591,-3.23417 c -4.85904,-10.70678 11.90967,4.34394 1.91797,3.05333 l -1.91797,-3.05333 0,0 z m 139.58209,0.48637 c 4.56336,-5.38868 2.08269,-16.42863 9.95736,-3.31649 -8.20268,-5.58548 -0.66141,8.1246 -9.95736,3.31649 z m -159.0324,-11.12026 c 3.12639,-8.39657 3.40391,-9.50567 4.68457,-1.8377 11.05707,-0.027 -4.19606,7.90565 -4.68457,1.8377 z m 114.30832,-24.59992 c 0.72831,-7.16449 -1.00895,-19.72782 -5.44052,-5.95504 -11.62426,-7.25454 11.67447,-9.58662 3.90243,-20.08848 2.92389,-9.83723 5.63436,17.63187 7.33943,0.31456 1.21338,-7.51649 -4.35039,-22.59465 -7.63799,-7.32329 -18.83051,-10.81867 18.92952,-13.3086 26.29182,-9.48092 -5.10892,5.37542 -3.04511,4.58185 -11.42783,1.98289 3.43271,6.24253 3.73566,4.73841 -2.43177,8.09461 -4.84775,11.02328 0.58795,25.31821 8.81676,19.59433 0.2893,16.81796 -19.67339,-11.08474 -17.51855,8.47491 2.73488,3.09977 8.32963,1.88365 -0.0687,5.31497 l -1.825,-0.92857 -5e-5,3e-5 z m 12.42918,-0.89033 c 10.89241,-7.43685 5.55739,7.89545 -1.52689,1.15433 l 1.52689,-1.15433 z m 10.92512,-0.59772 c 15.08381,2.15209 7.19763,-16.32328 7.26921,-15.15255 7.57667,-8.67216 2.56685,-30.96551 6.73945,-44.43871 -0.9327,-7.80241 -3.81825,-12.76015 -1.16376,-14.17474 -2.82204,-4.49198 -17.04199,8.88859 -7.33643,-1.72099 -16.07111,-7.93017 -14.65473,8.0022 -15.00269,17.93386 -2.03188,8.18748 -4.77837,12.77048 -10.52291,4.0619 -4.32309,9.56453 1.87464,-14.20402 2.82432,-17.76312 -3.5693,-15.94859 8.47044,-0.72386 13.90034,-13.85665 12.53995,10.04228 30.90611,0.56059 44.86862,-1.07197 0.86794,12.25803 -26.56987,1.20916 -21.02831,19.38158 -3.13069,8.36064 1.97051,25.56684 1.98114,24.65497 -6.58046,8.49088 -10.70385,29.76431 -2.68757,37.58757 13.81391,3.39536 -12.36682,6.56973 -16.27831,6.03911 -0.58414,-0.53538 -3.88803,0.36448 -3.5631,-1.48026 z m -83.70247,-8.06304 c 3.42572,-7.96177 10.1931,10.97376 0.27787,1.50615 l -0.27787,-1.50615 z m 33.51268,-0.9027 c 2.08297,-13.92029 5.57223,12.53016 11.15502,-3.13843 8.59983,6.85799 -10.22125,12.73574 -11.15502,3.13843 z m -96.25999,-16.73604 c -0.26959,-15.42778 3.3466,4.65744 0.29887,6.01825 l -0.21859,-2.26525 -0.0803,-3.753 z m 48.69732,-1.79314 c 3.74862,-13.84001 12.69957,-4.97053 0,0 z m 48.09101,-5.58061 c -7.90071,-4.2924 14.9425,2.73988 3.94808,-6.81711 6.35136,2.90647 15.15286,-7.42236 7.54862,4.33594 3.86127,3.55936 -9.42482,6.32325 -11.4967,2.48117 z m 44.43684,-30.09194 c 7.54347,-14.85367 7.58461,9.33689 -1.2504,2.97454 l 1.2504,-2.97454 0,0 z m -23.05676,0.21178 c -4.35139,-14.38663 16.19113,1.74145 1.60279,2.84327 l -1.60279,-2.84327 z m 32.94086,-2.19533 c 2.87441,-12.67389 8.99717,11.82039 0,0 z M 232.2093,233.88316 c -3.07332,-11.23485 21.95793,6.4291 7.73541,-0.46075 -2.61922,-4.49591 -4.14476,4.46039 -7.73541,0.46075 z M 122.95159,210.15594 c 1.81891,-28.72661 7.58309,-57.28187 14.30349,-85.26254 7.85924,-19.87678 16.10416,-40.162956 27.97256,-57.919981 -2.28437,17.188268 -14.09459,31.203684 -16.94862,48.267871 -5.87958,17.51217 -7.55674,36.13188 -12.29484,53.99982 -3.66095,13.68104 -1.64848,32.46673 -10.95294,42.64758 l -1.07933,-0.53057 -1.00032,-1.20218 0,0 z m 50.23982,-12.99707 c 3.65766,-30.3292 3.64581,20.31852 0,0 z m 37.5971,-1.1373 c -0.62687,-14.92076 -12.85192,10.49506 -8.31038,-4.52157 -22.62359,4.30139 18.08966,-14.64525 12.54353,1.07577 -0.76243,2.63449 -5.10529,11.74983 -4.23315,3.4458 l 0,0 z m 28.32262,0 c 0.33911,-9.05102 11.51408,-4.37399 1.52583,1.79315 0.37148,2.34147 -4.4645,1.58642 -1.52583,-1.79315 z m 108.39375,-2.18114 c -11.15958,-9.22279 24.53172,0.0439 3.47026,1.09178 l -3.47026,-1.09177 0,-1e-5 z M 181.4082,187.44008 c -5.85321,-5.90794 -12.13783,-21.74464 -0.76859,-6.77447 1.90874,7.41433 18.06637,4.29257 7.13368,11.20935 -2.69774,-0.51249 -4.57869,-2.5668 -6.36509,-4.43488 z m 29.75587,-28.47688 c 2.37638,-7.71929 -4.60169,-12.64819 -9.18084,-12.52678 6.70223,-1.93387 24.04224,-6.1828 12.25505,4.84647 -2.23961,2.69138 -2.3188,24.22331 -2.80663,15.08965 -0.0892,-2.46978 -0.17839,-4.93956 -0.26758,-7.40934 z m -36.50538,-4.48287 c -0.79047,-15.11164 -3.85789,-32.0335 0.87572,-46.2483 13.97638,-2.44506 -5.61667,-5.25872 0.22684,-14.920481 8.9982,-16.57391 -8.0009,0.04499 -13.72121,-8.465102 3.88688,-5.225629 12.5342,-2.667014 4.41307,-9.383443 3.03239,-7.347962 -0.69126,-20.21522 9.31763,-10.411125 5.89071,0.605401 19.02829,11.406007 9.97502,-1.700129 9.4655,-9.285027 33.41746,-7.794979 47.20661,-14.185687 15.77276,6.995413 32.67728,9.350351 50.1125,7.60674 17.6102,-2.356635 33.42786,-6.389892 50.90483,1.247911 6.06155,0.275126 25.78452,7.566091 8.09984,4.629555 -24.43573,-6.804746 9.80772,11.635516 16.75912,1.530299 2.94209,9.597238 18.22671,-7.619168 16.09225,6.031257 -10.00053,3.809759 -16.27494,4.248112 -2.49497,5.539485 15.00663,2.992424 -12.88389,9.350781 4.42465,8.14639 13.22569,-0.361198 -9.3455,8.031287 -13.9567,6.49363 7.74774,10.79715 -18.96183,28.21955 -5.56968,9.99573 3.39375,-8.804589 -25.14976,-14.311665 -12.42923,-20.553873 -1.57151,14.260539 6.98418,0.409487 -1.58633,-3.050705 -14.41852,-8.159799 -12.28891,19.882867 -5.01862,28.101628 -3.89791,0.62768 -4.68923,-4.28895 -10.86668,1.99999 4.75717,-13.625886 2.69825,-31.290988 0.53391,-46.324744 -5.46721,-1.672131 -29.33434,-7.388536 -14.32465,2.881419 -6.94401,-0.905682 -10.78725,4.386244 -2.84084,4.088825 -4.86217,15.430786 -11.55957,3.902956 -11.11999,-5.585333 -9.76274,-3.247441 -28.93155,1.218799 -25.52118,8.361143 -2.67917,-15.911142 -26.80675,-7.771271 -29.14233,2.603274 -4.24683,4.475963 -2.97799,-13.680105 -10.77778,-11.232049 11.38672,-6.641773 -6.73691,-10.344918 -10.69746,-3.554773 -12.33097,5.065814 -8.65505,27.951798 -8.33839,40.224346 11.20839,0.317354 -8.99388,13.997772 -4.02825,2.657032 -0.44366,-7.527651 2.01666,-25.081615 -8.65629,-13.683712 -18.82816,-0.741656 -23.04194,25.883062 -18.23417,40.325102 1.90538,5.50193 -2.83137,20.85451 7.69675,15.8421 -8.12325,3.12124 -6.49162,21.35683 -11.45592,5.36101 -3.71332,-2.32967 1.90554,22.09614 -5.10308,8.53362 l -0.75497,-2.90103 -2e-5,0 z m 19.63582,-86.523623 c -0.92915,-2.718441 -2.73564,6.304227 -5.68018,8.192873 3.02802,2.393997 10.56515,-5.633489 5.68018,-8.192873 z m 18.46714,-5.624574 c 6.08939,-10.664634 -35.50784,4.90249 -10.49341,0.736357 11.99555,-3.067879 2.16836,13.984503 10.49341,-0.736357 z m 140.71027,93.648577 c -1.74296,-8.32468 9.36915,-34.31694 13.36572,-13.86802 5.1591,12.45698 -9.5663,14.7415 -12.66372,16.87548 l -0.702,-3.00746 0,0 z M 191.97266,100.98669 c 5.15582,-6.264861 26.11032,3.40051 8.21679,2.62803 -2.53881,-0.366 -6.82193,0.18978 -8.21679,-2.62803 z m 103.29687,1.81233 c 5.02072,-4.611362 14.04347,-11.199247 6.31505,-0.14951 -0.54949,1.58417 -12.33347,2.97348 -6.31505,0.14951 z"
       id="path7289"
       inkscape:connector-curvature="0" />
  </g>
</svg>
