<?xml version="1.0" encoding="UTF-8" standalone="no"?>
<svg
   xmlns:dc="http://purl.org/dc/elements/1.1/"
   xmlns:cc="http://creativecommons.org/ns#"
   xmlns:rdf="http://www.w3.org/1999/02/22-rdf-syntax-ns#"
   xmlns:svg="http://www.w3.org/2000/svg"
   xmlns="http://www.w3.org/2000/svg"
   xmlns:sodipodi="http://sodipodi.sourceforge.net/DTD/sodipodi-0.dtd"
   xmlns:inkscape="http://www.inkscape.org/namespaces/inkscape"
   sodipodi:docname="elegant plate.svg"
   height="100%"
   width="100%"
   inkscape:version="0.48.4 r9939"
   version="1.1"
   id="svg8438"
   viewBox="0 0 512 512">
  <metadata
     id="metadata8464">
    <rdf:RDF>
      <cc:Work
         rdf:about="">
        <dc:format>image/svg+xml</dc:format>
        <dc:type
           rdf:resource="http://purl.org/dc/dcmitype/StillImage" />
        <dc:title></dc:title>
      </cc:Work>
    </rdf:RDF>
  </metadata>
  <defs
     id="defs8462">
    <linearGradient
       id="linearGradient4077">
      <stop
         id="stop4079"
         offset="0"
         style="stop-color:#aa4400;stop-opacity:1;" />
      <stop
         style="stop-color:#ff9f00;stop-opacity:1;"
         offset="0.22752622"
         id="stop4081" />
      <stop
         style="stop-color:#803300;stop-opacity:1;"
         offset="0.4948855"
         id="stop4083" />
      <stop
         id="stop4085"
         offset="1"
         style="stop-color:#562200;stop-opacity:1;" />
    </linearGradient>
    <linearGradient
       id="linearGradient4057">
      <stop
         style="stop-color:#aa4400;stop-opacity:1;"
         offset="0"
         id="stop4059" />
      <stop
         id="stop4067"
         offset="0.22752622"
         style="stop-color:#ecd1a4;stop-opacity:1;" />
      <stop
         id="stop4065"
         offset="0.50136983"
         style="stop-color:#803300;stop-opacity:1;" />
      <stop
         style="stop-color:#562200;stop-opacity:1;"
         offset="1"
         id="stop4061" />
    </linearGradient>
    <linearGradient
       id="linearGradient3890">
      <stop
         style="stop-color:#701b1b;stop-opacity:1;"
         offset="0"
         id="stop3892" />
      <stop
         style="stop-color:#e31600;stop-opacity:1;"
         offset="1"
         id="stop3894" />
    </linearGradient>
    <linearGradient
       id="linearGradient3882">
      <stop
         style="stop-color:#600b0b;stop-opacity:1;"
         offset="0"
         id="stop3884" />
      <stop
         style="stop-color:#d11414;stop-opacity:1;"
         offset="1"
         id="stop3886" />
    </linearGradient>
    <linearGradient
       id="linearGradient3872">
      <stop
         style="stop-color:#800600;stop-opacity:1;"
         offset="0"
         id="stop3874" />
      <stop
         style="stop-color:#ff0004;stop-opacity:0;"
         offset="1"
         id="stop3876" />
    </linearGradient>
    <filter
       id="filter4074"
       inkscape:label="Black Light"
       inkscape:menu="Color"
       inkscape:menu-tooltip="Light areas turn to black"
       x="0"
       width="1"
       y="0"
       height="1"
       color-interpolation-filters="sRGB">
      <feColorMatrix
         id="feColorMatrix4076"
         type="luminanceToAlpha"
         result="result2" />
      <feComposite
         in2="SourceGraphic"
         id="feComposite4078"
         operator="arithmetic"
         in="result2"
         k3="2"
         result="result4" />
      <feBlend
         in2="result2"
         id="feBlend4080"
         in="result4"
         mode="multiply"
         result="result3" />
      <feComposite
         in2="SourceGraphic"
         id="feComposite4082"
         operator="in"
         in="result3" />
    </filter>
  </defs>
  <sodipodi:namedview
     pagecolor="#000000"
     bordercolor="#666666"
     borderopacity="1"
     objecttolerance="10"
     gridtolerance="10"
     guidetolerance="10"
     inkscape:pageopacity="0"
     inkscape:pageshadow="2"
     inkscape:window-width="1190"
     inkscape:window-height="1126"
     id="namedview8460"
     showgrid="false"
     inkscape:zoom="1"
     inkscape:cx="286.23437"
     inkscape:cy="349.15199"
     inkscape:window-x="160"
     inkscape:window-y="130"
     inkscape:window-maximized="0"
     inkscape:current-layer="svg8438"
     showguides="true"
     inkscape:guide-bbox="true" />
  <path
     style="fill:#000000"
     id="path3978"
     d="M -13.466093,0.1885736 H 514.89024 V 516.42957 H -13.466093 z"
     inkscape:connector-curvature="0" />
  <path
     transform="matrix(0.92592215,0,0,1,-12.92858,0)"
     sodipodi:end="6.1122693"
     sodipodi:start="6.11213"
     d="m 76.035958,-54.360671 a 10.606602,11.755651 0 0 1 2.51e-4,0.0016 l -10.452057,1.999461 z"
     sodipodi:ry="11.755651"
     sodipodi:rx="10.606602"
     sodipodi:cy="-52.359596"
     sodipodi:cx="65.584152"
     id="path4123"
     style="fill:#333333;fill-opacity:1;fill-rule:nonzero;stroke:none"
     sodipodi:type="arc" />
  <path
     sodipodi:type="arc"
     style="opacity:0.98999999;fill:#ff0000;fill-opacity:0.74970506;fill-rule:nonzero;stroke:none"
     id="path5005"
     sodipodi:cx="640"
     sodipodi:cy="124.5"
     sodipodi:rx="105"
     sodipodi:ry="118.5"
     d="m 743.4676,104.32865 a 105,118.5 0 0 1 0.002,0.0163 L 640,124.5 z"
     sodipodi:start="6.11213"
     sodipodi:end="6.1122693" />
  <g
     id="g5877">
    <path
       style="fill:#a89b98"
       d="m 268.83905,476.51719 c -21.04001,-4.44022 -122.69006,-30.50944 -128.96259,-33.07379 -3.09176,-1.26397 -8.11369,-5.64046 -11.15985,-9.7255 -6.03288,-8.09042 -6.02336,-7.55342 -0.91354,-51.49568 1.4695,-12.63709 1.24134,-16.86716 -1.11103,-20.59901 -4.46416,-7.082 -3.8117,-21.10422 1.18564,-25.48094 3.63024,-3.17939 4.14592,-6.25497 4.14592,-24.72664 0,-16.43422 -0.73894,-21.9308 -3.34418,-24.8754 -2.37958,-2.68954 -3.52171,-8.85377 -3.95964,-21.37066 -0.64592,-18.462 -3.02472,-27.01324 -19.96699,-71.77667 -4.831068,-12.76425 -9.810491,-23.20771 -11.065383,-23.20771 -6.637338,0 -27.901534,31.82777 -27.978316,41.87731 -0.03317,4.34175 -7.923157,3.00353 -9.347047,-1.58535 -1.835259,-5.91463 -9.4119,-7.27383 -18.616928,-3.33977 -4.291615,1.83416 -9.521858,3.33484 -11.622765,3.33484 -4.999484,0 -8.000615,-5.99916 -6.640871,-13.27488 1.215402,-6.50337 -0.811054,-7.30954 -6.775191,-2.69533 -6.5805623,5.09112 -9.20629,3.90952 -9.20629,-4.14289 0,-6.62283 2.6389066,-10.09453 25.393777,-33.40764 22.770131,-23.32875 66.702876,-72.505243 80.327254,-89.915002 9.42893,-12.048657 15.44429,-13.690189 54.28411,-14.813578 40.7542,-1.178758 39.59429,-1.570863 54.68189,18.485037 l 9.80426,13.032755 9.00977,-1.26317 c 11.99016,-1.68102 26.6257,-9.497131 39.18685,-20.927723 5.64921,-5.140777 15.35418,-13.416436 21.56655,-18.390353 10.10878,-8.09355 12.06849,-8.882832 18.65665,-7.514048 4.04879,0.84119 20.50462,1.319386 36.56853,1.062658 l 29.20712,-0.466778 5.51499,6.704084 c 3.03324,3.687246 5.51499,7.514414 5.51499,8.504816 0,1.675156 42.93907,61.127462 57.56997,79.709852 18.20987,23.12798 25.34848,32.74896 25.34848,34.16311 0,0.85744 -6.09465,-4.61554 -13.54369,-12.16217 -11.00958,-11.15385 -13.91262,-13.12606 -15.51545,-10.5406 -3.07605,4.96178 -2.58314,7.48755 6.25657,32.05984 4.56051,12.67714 8.29184,24.38311 8.29184,26.01327 0,5.37454 -6.00551,5.44787 -12.16264,0.14849 -6.32844,-5.44682 -10.63993,-6.69974 -10.63993,-3.09197 0,3.78081 -7.10023,2.22628 -13.40715,-2.93537 -5.02743,-4.11449 -7.01654,-4.63167 -10.88305,-2.82968 -3.28825,1.53249 -6.19736,1.52173 -9.53823,-0.0353 -3.93154,-1.8323 -6.05858,-6.81776 -11.67954,-27.37507 -3.77992,-13.82413 -7.60081,-25.96004 -8.49087,-26.9687 -2.43327,-2.75745 -7.27375,8.44964 -11.04683,25.57656 -4.10801,18.64727 -4.23716,26.91138 -0.5165,33.05187 2.43776,4.0232 2.30816,8.1908 -0.90433,29.08049 -2.06243,13.41134 -4.67461,28.10148 -5.80485,32.64473 -1.21555,4.88625 -1.75821,33.62155 -1.3285,70.34721 l 0.72645,62.08674 -16.94207,30.13012 c -11.50858,20.46713 -21.27167,34.79731 -30.44222,44.68288 l -13.50019,14.55276 -11.37535,-0.19932 c -6.25645,-0.10951 -17.43877,-1.47878 -24.84961,-3.04275 z"
       id="path5895"
       inkscape:connector-curvature="0" />
    <path
       style="fill:#978379"
       d="M 265.72961,473.34393 C 250.90794,470.01919 216.43034,461.53716 189.11272,454.495 142.40458,442.45418 139.0115,441.24833 132.18214,434.26277 l -7.2622,-7.42827 3.43293,-31.1281 c 3.09228,-28.03923 3.11798,-31.75108 0.25894,-37.40632 -3.61573,-7.15195 -2.38498,-18.68496 2.43017,-22.77257 3.79485,-3.22148 4.50914,-47.87262 0.78613,-49.142 -3.18794,-1.08697 -6.05822,-18.87552 -3.75573,-23.27615 2.21969,-4.24238 -3.69178,-24.73362 -19.31414,-66.94964 -9.177167,-24.79928 -10.95497,-28.09491 -15.155607,-28.09491 -6.49443,0 -20.039958,16.12607 -25.854639,30.78017 -2.5375,6.39498 -5.29355,11.62724 -6.124554,11.62724 -0.831005,0 -3.199322,-1.90833 -5.262926,-4.24074 -4.513059,-5.10092 -10.343953,-5.36218 -20.718438,-0.92831 -11.402948,4.87342 -14.313179,2.90012 -12.764758,-8.6552 0.827646,-6.17644 0.49225,-9.49982 -0.958722,-9.49982 -3.175265,0 -14.2726743,6.95005 -14.2726743,8.93865 0,0.91476 -0.8395493,1.6632 -1.8656652,1.6632 -1.0261159,0 -1.8656652,-3.30557 -1.8656652,-7.34571 0,-5.25904 1.0788308,-7.69594 3.7978271,-8.57866 5.8336836,-1.89388 74.5311846,-76.57531 102.3782416,-111.29594 11.10242,-13.842861 22.66812,-18.112369 31.64416,-11.681523 3.42372,2.452917 6.66848,2.74899 14.45373,1.318854 5.52141,-1.014271 18.35633,-1.674904 28.52206,-1.468071 l 18.48314,0.376059 11.81893,13.474317 11.81895,13.47432 9.58963,-1.344463 c 13.1957,-1.85004 27.71526,-9.824683 44.30656,-24.334713 29.05249,-25.40805 32.42261,-27.012944 42.06522,-20.03197 4.28796,3.104359 9.83145,3.710648 33.92766,3.710648 l 28.80222,0 10.58404,17.042969 c 5.82121,9.373634 15.88314,23.686134 22.35981,31.805555 30.23665,37.905868 33.03424,42.020668 29.82003,43.860568 -6.76254,3.87106 -5.96501,14.71232 2.82082,38.34492 4.64414,12.49204 8.44388,23.65797 8.44388,24.81319 0,3.50529 -5.33458,2.36204 -11.27291,-2.41589 -4.86302,-3.91273 -6.26938,-4.15703 -10.52378,-1.82809 -4.3463,2.37927 -5.65742,2.04543 -11.40914,-2.90501 -7.02658,-6.04769 -9.37365,-6.76503 -11.36284,-3.47284 -1.89568,3.13743 -8.4543,2.57193 -11.33398,-0.97724 -1.38233,-1.70369 -5.93507,-15.22363 -10.11721,-30.04431 -4.18214,-14.82069 -8.59122,-27.28334 -9.79798,-27.69479 -2.71396,-0.92535 -12.69452,30.30087 -14.57702,45.60714 -0.86759,7.05449 -0.42887,14.24363 1.17207,19.20548 2.11188,6.5454 1.96681,11.1617 -0.83061,26.43201 -1.86415,10.17586 -2.84893,19.396 -2.18843,20.48917 0.66053,1.0932 -0.25329,4.86415 -2.03071,8.37992 -2.70953,5.35949 -3.18596,15.39035 -2.94873,62.08311 0.15568,30.62994 0.25915,60.6703 0.23004,66.75634 -0.0469,9.79227 -1.76226,14.1223 -14.9083,37.63078 -8.17048,14.6109 -18.28506,31.22214 -22.47687,36.91389 -9.18656,12.4738 -24.33802,25.77917 -29.06543,25.52407 -1.88737,-0.10178 -15.55838,-2.90542 -30.38006,-6.23016 z M 132.0236,183.84245 c 0,-5.17909 -0.93283,-9.41652 -2.07296,-9.41652 -1.14013,0 -2.07296,4.82714 -2.07296,10.72699 0,6.61138 0.79533,10.2242 2.07296,9.41652 1.14013,-0.72075 2.07296,-5.54789 2.07296,-10.72699 z m 105.72103,-70.90726 c 0,-1.16621 -0.93283,-2.12038 -2.07296,-2.12038 -1.14013,0 -2.07296,0.95417 -2.07296,2.12038 0,1.1662 0.93283,2.12037 2.07296,2.12037 1.14013,0 2.07296,-0.95417 2.07296,-2.12037 z"
       id="path5893"
       inkscape:connector-curvature="0" />
    <path
       style="fill:#897067"
       d="m 272.98498,474.3743 c -19.28269,-3.96354 -130.87261,-32.71678 -133.82643,-34.48288 -1.36085,-0.81367 -5.01236,-4.58925 -8.11446,-8.3902 l -5.6402,-6.91084 3.62229,-29.97054 c 2.77562,-22.96525 3.06474,-30.88377 1.2369,-33.87754 -3.58918,-5.87862 -2.90226,-18.94873 1.24228,-23.63685 5.44483,-6.15898 5.22588,-44.63238 -0.30172,-53.01689 -3.09037,-4.68763 -3.62726,-8.14975 -2.61696,-16.87529 1.42457,-12.3033 -2.21507,-26.09811 -18.60696,-70.52346 C 98.7853,166.35066 97.0494,163.94737 89.367353,168.1527 c -6.97703,3.81939 -19.953368,22.2926 -23.601448,33.59919 -2.544809,7.8872 -6.295949,11.84859 -6.295949,6.64884 0,-1.13932 -2.187036,-3.53726 -4.860081,-5.32876 -4.386765,-2.94006 -5.888056,-2.91769 -15.41545,0.22969 -14.647991,4.83897 -17.302243,3.37498 -15.690325,-8.65421 1.578068,-11.77657 -1.126212,-12.50534 -12.092955,-3.25888 -7.0159506,5.9154 -9.2021685,5.067 -4.9413618,-1.91757 1.2440792,-2.03938 1.0623531,-2.5012 -0.5765327,-1.46515 -1.3162883,0.83212 -2.3932515,0.50246 -2.3932515,-0.73256 0,-1.23503 1.3257868,-2.24551 2.9461928,-2.24551 4.7883542,0 92.8172392,-95.979409 103.9069682,-113.291559 4.13122,-6.449225 17.66326,-16.051036 22.62108,-16.051036 2.11047,0 7.45416,3.889143 11.87485,8.642541 8.03305,8.637615 8.04325,8.641308 17.89583,6.479985 5.422,-1.189407 18.12758,-2.348986 28.23462,-2.576844 l 18.37643,-0.414286 8.49369,9.923336 8.49369,9.923335 11.09656,-2.193161 c 15.05105,-2.974735 27.51746,-10.309512 47.06582,-27.691801 9.05532,-8.051937 19.46975,-16.313166 23.14316,-18.358288 6.6375,-3.695338 6.73396,-3.678892 15.54721,2.65122 8.70706,6.253829 9.18859,6.34217 26.48845,4.859473 36.07871,-3.092156 34.12233,-3.596188 42.98308,11.073919 4.29246,7.106703 11.72293,17.841078 16.51217,23.854166 25.31847,31.78841 40.57014,53.14825 38.46277,53.86678 -1.30276,0.44418 -3.36085,3.88278 -4.57356,7.64134 -1.92617,5.96984 -1.15474,9.59012 6.1023,28.63757 8.2057,21.53732 10.03378,29.98627 6.48808,29.98627 -1.00051,0 -3.02267,-1.48334 -4.49366,-3.29632 -5.20224,-6.41166 -10.32262,-7.9149 -14.32866,-4.20658 -3.45101,3.19456 -4.17793,3.03669 -10.30683,-2.23837 -5.71747,-4.92098 -7.28331,-5.35405 -11.78035,-3.2582 -7.60779,3.54561 -12.23538,-0.0392 -15.27005,-11.82916 -6.89144,-26.77376 -13.85823,-48.08659 -15.952,-48.80048 -1.33281,-0.45443 -4.80562,7.13029 -8.18053,17.86648 -5.78609,18.40664 -6.27415,24.29993 -4.96928,60.00337 0.32496,8.89166 -3.95666,25.90448 -7.04844,28.00661 -1.52404,1.03621 -1.41092,2.31842 0.36478,4.13473 3.38807,3.46555 3.27333,9.15302 -0.24488,12.13967 -2.20024,1.86779 -2.67165,9.19223 -2.14844,33.37995 0.52722,24.37207 0.008,32.29479 -2.42657,37.11278 -2.19885,4.34937 -2.50382,7.25913 -1.05171,10.03448 1.12483,2.14985 2.31918,16.2152 2.65411,31.25632 l 0.60896,27.3475 -8.50279,15.90278 c -16.80471,31.42984 -20.15582,37.24986 -27.02199,46.93009 -3.83232,5.40298 -10.70257,13.27485 -15.26721,17.49306 -9.35588,8.64578 -14.00588,9.19479 -37.30887,4.40485 z M 200.43133,371.62037 c 0,-1.1662 -0.93283,-2.12037 -2.07296,-2.12037 -1.14013,0 -2.07296,0.95417 -2.07296,2.12037 0,1.1662 0.93283,2.12037 2.07296,2.12037 1.14013,0 2.07296,-0.95417 2.07296,-2.12037 z m 35.24034,-9.66681 c 0,-1.81813 -0.94805,-2.70636 -2.10677,-1.97385 -1.15872,0.7325 -1.5701,2.22007 -0.91413,3.3057 1.777,2.94103 3.0209,2.39264 3.0209,-1.33185 z m -49.75107,-3.05541 c 0,-1.16621 -0.93283,-2.12037 -2.07296,-2.12037 -1.14013,0 -2.07296,0.95416 -2.07296,2.12037 0,1.1662 0.93283,2.12037 2.07296,2.12037 1.14013,0 2.07296,-0.95417 2.07296,-2.12037 z m 69.44421,-2.12037 c -0.70465,-1.16621 -2.15895,-2.12037 -3.23179,-2.12037 -1.07284,0 -1.95062,0.95416 -1.95062,2.12037 0,1.1662 1.45431,2.12037 3.23179,2.12037 1.77748,0 2.65526,-0.95417 1.95062,-2.12037 z m 52.86051,-12.72222 c 0,-1.16621 -0.93283,-2.12037 -2.07296,-2.12037 -1.14013,0 -2.07296,0.95416 -2.07296,2.12037 0,1.1662 0.93283,2.12037 2.07296,2.12037 1.14013,0 2.07296,-0.95417 2.07296,-2.12037 z m 12.43777,-2.12037 c 0,-1.16621 -0.93283,-2.12038 -2.07296,-2.12038 -1.14013,0 -2.07296,0.95417 -2.07296,2.12038 0,1.1662 0.93283,2.12037 2.07296,2.12037 1.14013,0 2.07296,-0.95417 2.07296,-2.12037 z m 25.91202,-2.12038 c -0.70464,-1.1662 -5.36881,-2.12037 -10.36481,-2.12037 -4.996,0 -9.66017,0.95417 -10.36481,2.12037 -0.79604,1.31748 3.1287,2.12038 10.36481,2.12038 7.23611,0 11.16084,-0.8029 10.36481,-2.12038 z M 132.0236,185.02778 c 0,-7.0679 -0.92131,-12.72222 -2.07296,-12.72222 -1.15164,0 -2.07296,5.65432 -2.07296,12.72222 0,7.0679 0.92132,12.72222 2.07296,12.72222 1.15165,0 2.07296,-5.65432 2.07296,-12.72222 z m 106.75751,-71.7392 c 0,-4.15078 -4.03922,-3.79906 -4.83375,0.4209 -0.48488,2.57539 0.22826,3.62314 2.04459,3.00385 1.53403,-0.52304 2.78916,-2.06418 2.78916,-3.42475 z M 143.64083,85.944637 c -2.1072,-2.155389 -3.84586,1.089641 -2.11695,3.95106 1.30604,2.161541 1.79431,2.163214 2.49647,0.0085 0.48009,-1.473201 0.3093,-3.255025 -0.37952,-3.959607 z"
       id="path5891"
       inkscape:connector-curvature="0" />
    <path
       style="fill:#70544e"
       d="M 268.83905,472.49423 C 256.8677,469.88416 223.32325,461.71508 194.29582,454.3407 145.36917,441.91097 140.9987,440.41619 134.39145,433.85256 l -7.12724,-7.08019 1.82758,-20.68481 c 1.00517,-11.37663 1.84283,-31.36483 1.86146,-44.41824 0.023,-16.11049 0.86614,-24.58949 2.62508,-26.39861 3.70951,-3.81539 3.53399,-43.99683 -0.2166,-49.58363 -4.03387,-6.00879 -5.2983,-15.3462 -2.96137,-21.86869 3.26801,-9.1212 -27.79597,-97.26911 -35.068199,-99.51039 -4.800742,-1.47957 -21.163124,16.72077 -27.642032,30.74702 l -6.380078,13.81228 -5.121435,-4.92137 c -4.777629,-4.591 -5.709137,-4.74221 -13.876055,-2.25245 -19.803877,6.03741 -18.517231,6.49526 -17.73951,-6.31258 0.690814,-11.37662 0.674102,-11.41194 -5.199266,-10.98728 l -5.892308,0.42603 6.928789,-7.55276 C 24.2211,173.11287 36.556689,160.03991 47.822685,148.21586 66.602626,128.50567 103.693,85.831928 109.81523,76.891319 c 1.40729,-2.055137 4.41459,-4.098875 6.6829,-4.541645 2.38945,-0.466418 4.40563,-2.824617 4.79329,-5.606437 0.36802,-2.640773 2.93331,-6.31889 5.70065,-8.173593 4.60167,-3.084083 5.46391,-3.0824 10.09247,0.01972 2.78352,1.865542 7.79828,7.461738 11.14391,12.435994 l 6.08296,9.044087 30.42311,-0.218436 c 27.36912,-0.196516 30.9468,0.20292 35.6399,3.978926 11.01615,8.863481 35.75282,-0.103226 60.9024,-22.076295 31.06345,-27.139975 34.74706,-28.414722 44.88586,-15.533162 l 5.9017,7.498256 20.72961,-2.971176 c 29.32589,-4.203279 32.12684,-3.477117 40.64601,10.53777 3.86766,6.362674 10.69096,16.054514 15.16292,21.537418 4.47196,5.482907 15.04835,18.847225 23.50313,29.698485 l 15.37232,19.72957 -3.29176,7.09551 c -1.81046,3.90253 -3.29176,8.34212 -3.29176,9.86574 0,1.52363 3.82708,13.12905 8.50463,25.78983 4.67756,12.66078 7.93099,23.60637 7.22987,24.32352 -0.70112,0.71715 -4.16356,-0.88071 -7.69429,-3.5508 -5.53541,-4.18609 -7.08124,-4.49248 -11.22399,-2.22464 -4.18259,2.28964 -5.66093,1.94445 -11.42131,-2.66683 -5.72529,-4.58319 -7.42062,-4.98657 -12.58213,-2.99377 -8.63291,3.33309 -10.49928,0.29352 -19.33352,-31.48658 -4.21437,-15.16065 -8.53956,-28.48012 -9.61155,-29.59883 -2.37176,-2.47512 -8.71577,6.09038 -9.24562,12.48318 -0.20024,2.41638 -1.91135,10.11843 -3.80239,17.11565 -5.05398,18.70078 -6.36581,33.5075 -3.4606,39.06007 3.12062,5.96432 -0.98399,34.26297 -5.34476,36.84853 -3.74093,2.21804 -3.63954,6.66488 0.22678,9.94702 4.0754,3.45964 2.17077,6.28077 -3.25964,4.82821 -3.83044,-1.02459 -4.23747,-0.34764 -3.62564,6.03008 0.73379,7.64885 1.11377,7.47676 -12.60416,5.70856 -8.0804,-1.04156 -7.35613,4.19058 1.07914,7.79567 5.29341,2.26231 8.441,2.62844 9.88641,1.14996 4.66039,-4.76697 5.52206,-1.19762 5.23489,21.68514 -0.36737,29.27474 -0.81967,31.27546 -7.07033,31.27546 -7.46212,0 -8.60669,4.33321 -2.37168,8.97896 4.0576,3.02338 5.49847,5.95797 5.49847,11.1987 0,7.35556 -9.59849,34.19867 -14.30121,39.99468 -2.207,2.72007 -2.03621,5.08119 0.97217,13.441 2.00723,5.5777 4.3305,10.94788 5.16284,11.9337 1.83681,2.1755 -13.6508,32.32125 -24.13433,46.97611 -9.4605,13.22475 -22.71242,24.44742 -28.55776,24.18471 -2.44199,-0.10973 -14.23473,-2.33504 -26.20609,-4.94511 z m -67.45977,-98.60697 c 1.53304,-2.53724 -2.36654,-5.05121 -5.12769,-3.3057 -2.31831,1.46556 -0.79636,5.27955 2.10678,5.27955 1.00555,0 2.36497,-0.88824 3.02091,-1.97385 z m 17.7087,-7.69296 c 0,-3.49876 -3.27619,-4.08988 -5.1824,-0.93504 -1.69052,2.79787 0.78816,6.76837 3.25268,5.21036 1.06134,-0.67094 1.92972,-2.59484 1.92972,-4.27532 z m -52.34227,-1.46513 c -0.97821,-3.00175 -4.31173,-2.67178 -5.35515,0.53009 -0.38005,1.1662 0.86373,2.12037 2.76395,2.12037 1.90021,0 3.06625,-1.19271 2.5912,-2.65046 z m -15.41689,-6.01577 c -1.6228,-1.65993 -2.64343,-1.65993 -3.64637,0 -2.15649,3.56905 0.89385,7.42571 3.64637,4.61024 1.6228,-1.65991 1.6228,-2.95033 0,-4.61024 z m 86.41581,3.3653 c 0,-1.7493 -1.39924,-3.18055 -3.10944,-3.18055 -1.71019,0 -3.10944,1.43125 -3.10944,3.18055 0,1.74931 1.39925,3.18056 3.10944,3.18056 1.7102,0 3.10944,-1.43125 3.10944,-3.18056 z m -51.82403,-3.18055 c 0,-4.47203 -3.01591,-5.706 -5.1824,-2.12037 -1.51161,2.50176 0.44914,6.36111 3.23178,6.36111 1.07284,0 1.95062,-1.90833 1.95062,-4.24074 z m 70.11444,-1.4395 c -0.89022,-4.72826 -4.577,-4.8301 -5.45801,-0.15076 -0.43698,2.32096 0.57975,3.71065 2.71481,3.71065 2.07999,0 3.15161,-1.39065 2.7432,-3.55987 z m 19.0229,-3.73628 c 0,-1.68048 -0.86839,-3.60438 -1.92972,-4.27533 -2.46452,-1.558 -4.94321,2.4125 -3.25268,5.21037 1.90621,3.15483 5.1824,2.56372 5.1824,-0.93504 z m 16.58369,-4.24074 c 0,-1.68048 -0.86838,-3.60438 -1.92972,-4.27533 -2.46452,-1.558 -4.9432,2.4125 -3.25268,5.21037 1.90621,3.15483 5.1824,2.56372 5.1824,-0.93504 z m -120.23176,-3.3057 c 0,-1.16621 -1.39925,-2.12037 -3.10944,-2.12037 -1.71019,0 -3.10944,0.95416 -3.10944,2.12037 0,1.1662 1.39925,2.12037 3.10944,2.12037 1.71019,0 3.10944,-0.95417 3.10944,-2.12037 z m 136.81545,-2.29706 c 0,-5.16745 -4.84403,-4.43703 -5.85263,0.88249 -0.39673,2.0923 0.66077,3.53494 2.5912,3.53494 1.92294,0 3.26143,-1.81292 3.26143,-4.41743 z m 42.9778,-1.30268 c 1.1922,-3.65836 -7.94562,-9.14085 -14.93583,-8.96117 -8.86341,0.22781 -20.68001,4.95565 -21.36459,8.54798 -0.46708,2.45102 2.88594,3.00857 17.47575,2.90594 11.33823,-0.0797 18.34049,-1.00698 18.82467,-2.49275 z m -194.30398,-7.00212 c 0,-1.1662 -0.93283,-2.12037 -2.07296,-2.12037 -1.14013,0 -2.07296,0.95417 -2.07296,2.12037 0,1.16621 0.93283,2.12037 2.07296,2.12037 1.14013,0 2.07296,-0.95416 2.07296,-2.12037 z m 201.07725,-24.38426 c 0,-1.7493 -1.39925,-3.18055 -3.10944,-3.18055 -1.71019,0 -3.10944,1.43125 -3.10944,3.18055 0,1.74931 1.39925,3.18056 3.10944,3.18056 1.71019,0 3.10944,-1.43125 3.10944,-3.18056 z m -164.239,-15.5052 c 0.4513,-1.38488 -0.65644,-2.51794 -2.46164,-2.51794 -1.8052,0 -3.28219,1.51076 -3.28219,3.35724 0,3.74443 4.46259,3.09233 5.74383,-0.8393 z m -28.5464,-5.6985 c 0,-1.7493 -0.87778,-3.18055 -1.95063,-3.18055 -2.61395,0 -4.48608,3.31114 -2.82993,5.00517 2.33454,2.38792 4.78056,1.45434 4.78056,-1.82462 z m 47.67811,-1.18533 c 0,-1.09737 -1.39925,-1.99522 -3.10944,-1.99522 -3.20565,0 -4.11837,2.50195 -1.78383,4.88989 1.65615,1.69403 4.89327,-0.22092 4.89327,-2.89467 z m -60.11588,-4.11559 c 0,-1.16621 -1.39925,-2.12038 -3.10944,-2.12038 -1.7102,0 -3.10945,0.95417 -3.10945,2.12038 0,1.1662 1.39925,2.12037 3.10945,2.12037 1.71019,0 3.10944,-0.95417 3.10944,-2.12037 z m 24.87553,-2.12038 c 0,-1.1662 -0.93283,-2.12037 -2.07296,-2.12037 -1.14013,0 -2.07296,0.95417 -2.07296,2.12037 0,1.16621 0.93283,2.12038 2.07296,2.12038 1.14013,0 2.07296,-0.95417 2.07296,-2.12038 z m 53.897,0 c 0,-1.1662 -0.98789,-2.12037 -2.19531,-2.12037 -1.20741,0 -1.61877,0.95417 -0.91413,2.12037 0.70464,1.16621 1.69253,2.12038 2.19531,2.12038 0.50277,0 0.91413,-0.95417 0.91413,-2.12038 z m 20.72961,-7.59798 c 0,-1.84651 -1.10772,-2.97957 -2.46164,-2.51794 -3.84372,1.31054 -4.48124,5.87518 -0.82054,5.87518 1.8052,0 3.28218,-1.51076 3.28218,-3.35724 z m 20.72962,-3.93891 c 0,-1.68048 -0.86839,-3.60437 -1.92972,-4.27532 -2.46453,-1.55801 -4.94321,2.41249 -3.25269,5.21036 1.90622,3.15484 5.18241,2.56372 5.18241,-0.93504 z m 60.11588,-10.85214 c 0,-0.51427 -0.93284,-0.93504 -2.07296,-0.93504 -1.14013,0 -2.07297,1.01048 -2.07297,2.24552 0,1.23503 0.93284,1.65579 2.07297,0.93504 1.14012,-0.72076 2.07296,-1.73124 2.07296,-2.24552 z m -199.9364,-69.81992 c 2.20901,-15.06762 -2.80089,-27.81326 -6.05318,-15.39984 -1.68739,6.44049 -1.63827,21.74789 0.0754,23.50077 3.05575,3.12564 4.64828,0.96748 5.97777,-8.10093 z m 107.81256,-79.33757 c -1.77994,-2.94586 -6.71884,-3.01034 -8.4709,-0.1106 -0.73551,1.21729 -0.17102,3.65059 1.2543,5.40734 2.26739,2.79451 2.96871,2.80835 5.60614,0.1106 1.65802,-1.69592 2.38272,-4.12923 1.61046,-5.40734 z M 145.49785,88.403268 c 0,-2.219254 -1.63245,-4.356579 -3.62768,-4.749611 -3.64825,-0.718657 -5.25192,5.709646 -2.20252,8.82879 2.44905,2.505056 5.8302,0.139393 5.8302,-4.079179 z"
       id="path5889"
       inkscape:connector-curvature="0" />
    <path
       style="fill:#644539"
       d="m 279.20386,474.02043 c -10.83284,-1.9243 -131.87458,-32.70548 -136.81545,-34.79247 -2.85032,-1.20397 -7.43927,-5.08864 -10.19766,-8.63258 l -5.01526,-6.44355 3.46746,-30.63263 c 2.39556,-21.1631 2.8245,-31.8615 1.38758,-34.60782 -3.01485,-5.76213 -2.55081,-15.52881 0.96363,-20.28158 4.41698,-5.97333 4.47042,-50.80248 0.0659,-55.30772 -3.61242,-3.69502 -4.19736,-16.99591 -0.7984,-18.1548 3.72926,-1.27152 -1.23726,-19.98466 -16.48584,-62.11635 -13.67649,-37.78803 -13.87825,-38.1731 -20.336992,-38.81493 -5.263168,-0.52303 -8.008061,0.91072 -14.207951,7.42129 -4.226468,4.43826 -10.416125,13.59132 -13.754795,20.34015 l -6.070307,12.27058 -5.923327,-3.57902 c -5.528545,-3.34049 -6.620662,-3.34571 -16.386391,-0.0785 -5.754688,1.92531 -11.115851,3.50056 -11.913695,3.50056 -0.797843,0 -0.828249,-5.41654 -0.06757,-12.03676 1.587449,-13.81561 5.116355,-18.64279 42.932519,-58.72723 12.241597,-12.97587 24.504673,-25.97791 27.251276,-28.89342 2.746603,-2.91551 6.719183,-8.163422 8.827953,-11.662033 2.10877,-3.498611 7.16583,-9.992341 11.2379,-14.430512 4.07208,-4.43817 7.40378,-10.053333 7.40378,-12.478142 0,-5.29642 5.38753,-9.264318 10.07874,-7.422961 1.8628,0.731172 6.42054,5.813846 10.12833,11.294836 3.70779,5.48099 8.69684,12.354855 11.08679,15.275256 l 4.34537,5.309821 34.64984,-0.514347 c 49.84217,-0.739863 60.95727,-4.377152 88.29247,-28.892677 28.71763,-25.75535 32.74521,-26.604043 44.80039,-9.440351 l 7.21815,10.276915 8.71283,-2.891275 c 15.79905,-5.242773 29.33528,-7.355694 36.69782,-5.728302 5.65844,1.250726 8.71664,3.92304 13.8944,12.141239 3.65148,5.795646 12.2201,17.216703 19.04139,25.380129 6.82129,8.163426 16.93902,21.044674 22.48384,28.625004 9.59706,13.12016 9.94577,14.06449 7.2571,19.65322 -4.3381,9.01729 -3.96995,11.84901 4.56707,35.1289 4.37233,11.92299 7.42904,22.21071 6.79272,22.86159 -0.63634,0.65088 -4.01002,-0.97419 -7.49711,-3.61126 -6.01356,-4.5477 -6.54244,-4.60743 -10.26717,-1.1595 -3.73409,3.45659 -4.25096,3.35636 -10.52097,-2.04015 -5.64674,-4.86009 -7.3184,-5.3377 -11.63731,-3.32486 -7.35421,3.42743 -10.98394,1.03352 -13.4728,-8.88569 -4.06475,-16.19976 -14.35553,-49.04693 -16.34729,-52.17894 -1.63586,-2.57236 -2.85868,-2.11791 -7.20304,2.67694 -2.87798,3.17641 -4.7519,7.05686 -4.16427,8.62322 0.58762,1.56637 -0.89011,10.3805 -3.28388,19.58695 -2.81283,10.81815 -4.20401,21.98909 -3.93305,31.58161 0.49162,17.40491 -1.57794,29.61882 -5.59679,33.03045 -1.57838,1.33989 -2.33331,3.32402 -1.67765,4.40917 0.65566,1.08515 0.14366,3.2651 -1.1376,4.84434 -1.28134,1.57923 -2.69831,4.82906 -3.14881,7.22184 -1.7667,9.38357 -9.67884,17.07046 -19.05029,18.50795 -6.95631,1.06701 -8.99549,2.28654 -8.99549,5.37978 0,2.74887 1.4767,3.99999 4.72115,3.99999 4.76479,0 13.93551,5.32976 13.93551,8.09893 0,0.82353 -2.09343,2.43921 -4.65206,3.5904 -2.55864,1.15119 -4.94532,4.00141 -5.30378,6.33382 -0.35843,2.33241 -1.21502,5.67199 -1.90353,7.4213 -0.6885,1.7493 -1.49529,7.81594 -1.79287,13.48142 -0.74533,14.19 -4.25865,22.46793 -12.84255,30.25919 -7.6524,6.94576 -8.15574,13.50515 -1.037,13.51397 3.38019,0.004 3.73037,3.07377 4.13744,36.26851 0.46066,37.56244 1.47637,42.18061 9.27713,42.18061 3.21143,0 3.74868,0.97075 2.64037,4.77083 -2.76463,9.47912 -12.30429,24.04426 -22.21609,33.91944 -10.50003,10.46125 -15.15858,11.68579 -32.64183,8.58016 z m -77.39574,-99.36204 c 1.72773,-4.60536 -2.65844,-8.93632 -5.79797,-5.725 -2.65346,2.71416 -1.00964,9.04809 2.34822,9.04809 1.21169,0 2.76408,-1.49539 3.44975,-3.32309 z m 18.83518,-6.74754 c 1.13342,-3.48193 -5.36167,-5.96745 -8.14752,-3.11788 -1.19216,1.21942 -1.50891,3.30729 -0.70386,4.63969 1.83157,3.0313 7.69757,2.02277 8.85138,-1.52181 z m -52.34287,-2.65159 c 0,-1.71737 -1.63246,-3.44405 -3.62768,-3.83709 -2.54529,-0.50138 -3.62769,0.64349 -3.62769,3.83709 0,3.1936 1.0824,4.33847 3.62769,3.83709 1.99522,-0.39304 3.62768,-2.11972 3.62768,-3.83709 z m 70.13568,-0.90517 c 1.58072,-4.21347 -4.28044,-8.99416 -7.27346,-5.93269 -2.86245,2.92792 -0.71795,8.95823 3.18571,8.95823 1.62398,0 3.46348,-1.36149 4.08775,-3.02554 z m -84.12757,-2.80436 c 1.13342,-3.48192 -5.36166,-5.96744 -8.14752,-3.11787 -1.19217,1.21942 -1.50891,3.30729 -0.70386,4.63969 1.83157,3.0313 7.69757,2.02277 8.85138,-1.52182 z m 33.29497,-3.20602 c 0.47906,-2.54444 -0.63726,-3.6863 -3.60387,-3.6863 -2.96662,0 -4.29792,1.36176 -4.29792,4.3962 0,5.43377 6.86114,4.81734 7.90179,-0.7099 z m 69.83426,-1.56593 c 0,-4.59851 -8.08737,-3.96505 -8.96612,0.70229 -0.56691,3.01105 0.35756,3.72515 4.11754,3.18055 2.66672,-0.38627 4.84858,-2.13354 4.84858,-3.88284 z m 18.7796,-6.15764 c -1.77995,-2.94585 -6.71884,-3.01033 -8.47091,-0.11069 -0.73551,1.21731 -0.17102,3.6506 1.25431,5.40735 2.26738,2.79452 2.96871,2.80835 5.60613,0.11068 1.65802,-1.69593 2.38273,-4.12923 1.61047,-5.40734 z m 17.10717,-1.76941 c -1.04064,-5.52723 -7.90179,-6.14367 -7.90179,-0.7099 0,3.03444 1.33131,4.39621 4.29791,4.39621 2.96661,0 4.08294,-1.14186 3.60388,-3.68631 z m -121.91467,-2.6748 c 0,-4.38983 -5.00104,-5.85138 -7.25536,-2.12037 -1.73516,2.87174 0.60619,6.36111 4.26826,6.36111 1.64291,0 2.9871,-1.90834 2.9871,-4.24074 z m 138.51435,-1.61195 c 0.49774,-3.56854 -0.37365,-4.74917 -3.50534,-4.74917 -4.96165,0 -7.31668,3.2073 -5.63889,7.67954 1.77321,4.7266 8.37114,2.61223 9.14423,-2.93037 z m -151.9886,-9.13757 c 0,-1.63614 -1.63246,-3.29639 -3.62768,-3.68942 -3.57324,-0.70388 -5.05044,3.79536 -2.20252,6.70843 2.17289,2.22257 5.8302,0.32876 5.8302,-3.01901 z m 35.49107,-41.29584 c -1.09019,-2.90597 -1.90906,-3.07564 -4.44674,-0.92139 -2.41419,2.04944 -2.56758,3.30962 -0.68521,5.6296 3.0993,3.81985 6.99164,0.24889 5.13195,-4.70821 z m -26.16274,-4.14446 c 0,-1.76697 -1.84264,-3.18055 -4.14593,-3.18055 -2.30329,0 -4.14592,1.41358 -4.14592,3.18055 0,1.76697 1.84263,3.18056 4.14592,3.18056 2.30329,0 4.14593,-1.41359 4.14593,-3.18056 z m 45.60515,-1.06018 c 0,-4.38983 -5.00104,-5.85138 -7.25537,-2.12037 -1.73515,2.87174 0.60619,6.36111 4.26827,6.36111 1.64291,0 2.9871,-1.90834 2.9871,-4.24074 z m -59.56772,-1.2675 c 2.01729,-2.06342 -0.75247,-7.21399 -3.87939,-7.21399 -1.58821,0 -2.88766,1.90834 -2.88766,4.24075 0,3.99176 4.03715,5.76558 6.76705,2.97324 z m 25.47549,-3.15799 c 2.13623,-3.53555 -2.66834,-7.58989 -5.52801,-4.66482 -2.39204,2.44674 -0.89494,6.96994 2.30693,6.96994 1.00556,0 2.45504,-1.03731 3.22108,-2.30512 z m 53.34409,-4.29532 c -3.49874,-3.57876 -7.65634,-0.17302 -4.51506,3.69852 1.73468,2.13797 3.16206,2.40482 4.66118,0.87141 1.49911,-1.53339 1.45437,-2.93284 -0.14614,-4.56993 z m 21.17088,-4.14908 c 0,-1.63614 -1.63245,-3.29639 -3.62768,-3.68942 -3.57324,-0.70388 -5.05044,3.79535 -2.20252,6.70843 2.1729,2.22257 5.8302,0.32876 5.8302,-3.01901 z m -89.80299,-5.15326 c -0.54562,-3.11983 -5.05754,-2.58128 -6.13746,0.73259 -0.59605,1.82907 0.405,2.59005 2.78928,2.12037 2.04545,-0.40292 3.55214,-1.68676 3.34818,-2.85296 z m 110.53261,-1.06019 c 0,-1.71737 -1.63246,-3.44405 -3.62768,-3.83708 -2.54529,-0.50139 -3.62769,0.64349 -3.62769,3.83708 0,3.1936 1.0824,4.33847 3.62769,3.83709 1.99522,-0.39303 3.62768,-2.11971 3.62768,-3.83709 z m 17.62017,-3.05541 c 0,-1.68048 -0.86838,-3.60437 -1.92972,-4.27532 -2.46452,-1.55801 -4.9432,2.41249 -3.25268,5.21036 1.90621,3.15484 5.1824,2.56372 5.1824,-0.93504 z m -141.47961,-3.83579 c -0.97822,-3.00175 -4.31173,-2.67177 -5.35515,0.53009 -0.38005,1.16621 0.86373,2.12037 2.76394,2.12037 1.90022,0 3.06626,-1.19271 2.59121,-2.65046 z m 157.03588,0.51512 c 0.70959,-1.17445 -0.20842,-2.72357 -2.04004,-3.4425 -3.96898,-1.55788 -6.18097,0.15881 -4.27314,3.3164 1.72134,2.84889 4.63288,2.90705 6.31318,0.12617 z m 15.53815,-2.17194 c 0,-2.53844 -5.84704,-5.26133 -7.55234,-3.51703 -1.81531,1.85683 1.26378,5.70394 4.56524,5.70394 1.64291,0 2.9871,-0.9841 2.9871,-2.18691 z m -189.4667,-64.70269 c 1.56583,-6.38147 0.10327,-27.85399 -2.04705,-30.05348 -3.10161,-3.17254 -5.35517,5.22928 -5.38584,20.07966 -0.0251,12.17774 0.60629,15.37268 3.03821,15.37268 1.68847,0 3.66607,-2.42949 4.39468,-5.39886 z m 41.16144,-36.86203 c 1.53304,-2.53724 -2.36655,-5.05121 -5.1277,-3.3057 -2.31831,1.46557 -0.79636,5.27955 2.10678,5.27955 1.00555,0 2.36497,-0.88823 3.02092,-1.97385 z m 38.43831,-4.38726 c 0,-2.35596 -1.38198,-4.24074 -3.10944,-4.24074 -3.1559,0 -4.25219,4.48544 -1.72747,7.0679 2.62808,2.68819 4.83691,1.39714 4.83691,-2.82716 z m 138.88841,-15.90278 c 0,-1.7493 -0.93283,-3.18055 -2.07296,-3.18055 -1.14013,0 -2.07296,1.43125 -2.07296,3.18055 0,1.74931 0.93283,3.18056 2.07296,3.18056 1.14013,0 2.07296,-1.43125 2.07296,-3.18056 z M 143.90307,116.78575 c 7.4802,-3.17128 10.92311,-5.83823 10.92311,-8.46126 0,-7.63909 -8.84415,-24.493871 -14.71347,-28.040256 -5.43087,-3.281462 -6.4089,-3.296504 -12.28394,-0.188925 -10.35784,5.478744 -10.32431,8.079605 0.37727,29.261841 1.06793,2.1138 1.36806,5.69193 0.66697,7.95139 -1.66588,5.36876 1.38364,5.26268 15.03006,-0.5228 z m 96.95101,-3.85056 c 0,-3.31083 -1.33914,-5.50664 -3.63395,-5.9587 -4.1034,-0.80831 -6.77193,4.26879 -4.88595,9.29596 1.97705,5.26997 8.5199,2.70712 8.5199,-3.33726 z m 92.24678,-8.48149 c 0,-1.1662 -0.98789,-2.12037 -2.19531,-2.12037 -1.20742,0 -1.61878,0.95417 -0.91413,2.12037 0.70464,1.16621 1.69253,2.12037 2.1953,2.12037 0.50278,0 0.91414,-0.95416 0.91414,-2.12037 z"
       id="path5887"
       inkscape:connector-curvature="0" />
    <path
       style="fill:#512d2a"
       d="m 276.09442,472.27062 c -17.88468,-3.43763 -131.59669,-32.54296 -134.92445,-34.53481 -1.327,-0.79427 -4.88174,-4.47004 -7.89942,-8.16837 l -5.48669,-6.72422 3.1975,-26.14152 c 1.91458,-15.65281 2.66983,-31.75787 1.88234,-40.13942 -0.87315,-9.29322 -0.47544,-15.60285 1.18332,-18.77316 3.60149,-6.88334 4.13275,-50.74481 0.65768,-54.29936 -1.4746,-1.50832 -2.65143,-5.43453 -2.61517,-8.72488 0.063,-5.71853 0.20021,-5.80088 3.10944,-1.86656 2.9763,4.02502 3.04352,4.01397 3.04352,-0.49966 0,-11.798 -11.88035,-54.3738 -21.71747,-77.82922 -12.209,-29.11088 -12.26929,-29.41269 -8.16339,-40.86358 5.03871,-14.05237 17.34334,-26.39629 34.26495,-34.37434 13.09568,-6.17424 14.27256,-7.26298 14.27256,-13.20365 0,-8.556388 -6.28188,-18.573003 -19.92548,-31.771655 -12.11921,-11.72398 -12.91322,-13.291928 -7.75607,-15.316169 5.71704,-2.244007 11.19397,3.417341 22.49809,23.25563 6.8923,12.09573 11.86,18.672974 13.69918,18.137764 1.58706,-0.461835 6.6169,-0.618568 11.17741,-0.34829 4.56052,0.27027 10.15751,0.4165 12.43777,0.32494 2.28026,-0.0915 12.54142,-0.411901 22.80258,-0.711885 17.94096,-0.524503 18.63223,-0.725722 18.01984,-5.245423 -0.49563,-3.658034 0.65327,-4.992957 5.1824,-6.021453 21.07783,-4.786463 28.30531,-8.894927 51.2269,-29.119939 27.45803,-24.227777 32.24545,-24.721386 41.80346,-4.310162 3.17972,6.790297 5.96136,12.622266 6.18143,12.959931 0.22006,0.337664 5.8825,-0.778444 12.58316,-2.48024 39.68994,-10.080194 41.6481,-9.902961 49.91001,4.517366 3.16068,5.516629 11.15355,16.132938 17.76192,23.591799 6.60839,7.458856 16.17542,19.156936 21.26006,25.995726 l 9.24483,12.43415 -3.34331,8.54689 c -3.29247,8.41688 -3.22885,8.87648 4.1822,30.21456 4.13904,11.91721 7.51689,22.33891 7.50631,23.15932 -0.0104,0.82042 -2.79628,-0.13375 -6.19048,-2.12037 -5.23524,-3.06418 -6.83744,-3.18806 -10.56338,-0.81675 -3.77167,2.40041 -4.98161,2.25065 -8.56518,-1.06018 -2.77097,-2.56008 -7.40553,-3.85547 -13.79392,-3.85547 -9.61305,0 -9.62306,-0.008 -12.37115,-9.54166 -10.91296,-37.86043 -15.50519,-51.27136 -17.87514,-52.2016 -1.49826,-0.58807 -5.2901,1.36325 -8.42632,4.33629 -4.49312,4.25932 -5.1949,6.0308 -3.30965,8.35435 1.68948,2.08225 1.78084,4.59464 0.31092,8.54927 -3.52772,9.49079 -8.37225,32.96118 -8.37225,40.56115 0,4.78042 -1.92999,9.56675 -5.7182,14.18092 -15.97737,19.46108 -22.72984,34.41437 -21.44703,47.49425 0.34134,3.48034 -1.09208,4.84609 -6.40891,6.10642 -3.76674,0.89288 -8.60953,1.41725 -10.76178,1.16529 -2.15223,-0.25199 -4.65243,0.76539 -5.55599,2.26082 -2.46535,4.08025 1.73415,10.36433 6.95089,10.40123 2.52517,0.017 5.94067,0.90573 7.58996,1.97304 2.4747,1.60145 2.11243,2.69508 -2.07296,6.25811 -2.78942,2.37464 -4.26479,4.34926 -3.27856,4.38806 0.98623,0.0388 0.42691,2.21742 -1.2429,4.84138 -1.74741,2.74586 -3.18602,10.62074 -3.38938,18.55324 -0.67452,26.31191 -3.32783,33.92592 -11.82239,33.92592 -2.65407,0 -5.72566,1.64516 -6.82578,3.6559 -2.86361,5.23401 0.8876,11.1867 7.04952,11.1867 5.06812,0 7.14172,4.82611 3.15614,7.34566 -1.09811,0.69419 -1.51146,8.55951 -0.94411,17.96475 0.55506,9.20148 0.21281,17.2334 -0.76055,17.84873 -0.97338,0.61533 -1.20783,6.34069 -0.52103,12.72303 1.05536,9.80733 2.5991,13.10272 9.96924,21.28124 4.79627,5.32237 8.72051,10.24406 8.72051,10.93711 0,3.75564 -11.7039,20.78236 -18.78082,27.32216 -8.94667,8.26764 -10.40164,8.4636 -32.00673,4.3109 z M 203.8893,374.63651 c 0.69018,-1.83974 -0.27192,-4.9067 -2.13802,-6.81548 -3.14191,-3.21376 -3.64392,-3.21376 -6.78582,0 -4.23813,4.33505 -2.29284,10.16045 3.39291,10.16045 2.35182,0 4.84074,-1.50523 5.53093,-3.34497 z m 16.23516,-7.25688 c 0,-3.31083 -1.33913,-5.50664 -3.63394,-5.95869 -4.10341,-0.80832 -6.77193,4.2688 -4.88595,9.29596 1.97705,5.26997 8.51989,2.70712 8.51989,-3.33727 z m -51.16161,-2.65046 c -0.43479,-3.13141 -2.08711,-4.77084 -4.80834,-4.77084 -2.72123,0 -4.37356,1.63943 -4.80834,4.77084 -0.54339,3.91352 0.32066,4.77083 4.80834,4.77083 4.48767,0 5.35172,-0.85731 4.80834,-4.77083 z m 67.57576,3.48379 c 1.80345,-0.70787 3.27899,-3.57037 3.27899,-6.36111 0,-3.93827 -1.11041,-5.07407 -4.96062,-5.07407 -5.7181,0 -8.64844,5.5432 -5.18614,9.81042 2.72336,3.35648 2.55646,3.317 6.86777,1.62476 z m -82.05051,-5.90454 c 0.84316,-4.4783 -3.06924,-7.80784 -7.24754,-6.16779 -2.94039,1.15414 -3.77577,7.39246 -1.32555,9.89871 2.57157,2.63039 7.80414,0.35324 8.57309,-3.73092 z m 33.50546,-0.22972 c 2.05884,-2.53749 2.05884,-3.82362 0,-6.36111 -3.59633,-4.43242 -7.76861,-3.9664 -9.32244,1.04121 -2.45317,7.90603 4.16147,11.68072 9.32244,5.3199 z m 70.10785,-4.78031 c 0.87437,-6.29839 -5.45019,-8.96316 -9.11287,-3.83959 -3.5844,5.01404 -1.38094,10.05457 4.04891,9.2621 2.73861,-0.39969 4.65092,-2.44739 5.06396,-5.42251 z m 18.64894,-4.21313 c -0.73582,-6.52095 -7.16567,-9.24365 -9.17582,-3.8855 -1.92402,5.12859 0.65957,9.69839 5.48308,9.69839 3.51825,0 4.22341,-1.11002 3.69274,-5.81289 z m 18.29769,-1.6354 c 1.42371,-3.79498 -2.68496,-9.51467 -6.83474,-9.51467 -3.52946,0 -5.75607,5.16433 -4.11387,9.54166 1.55122,4.13487 9.39452,4.11551 10.94861,-0.0269 z m -122.74979,-3.87023 c 1.68588,-2.76655 1.47182,-4.13334 -0.88838,-5.67233 -1.71019,-1.11516 -3.83834,-2.04217 -4.72922,-2.06002 -2.47158,-0.0496 -4.16238,5.91231 -2.74684,9.68553 1.4981,3.99327 5.27879,3.11046 8.36444,-1.95318 z m -12.63467,-10.79035 c 0.62428,-1.66402 -0.25557,-4.20603 -1.95522,-5.64886 -2.48783,-2.11195 -3.72396,-1.97514 -6.34094,0.70168 -1.78788,1.82877 -2.61884,4.37076 -1.84659,5.64887 2.01547,3.33569 8.8043,2.86602 10.14275,-0.70169 z m 35.58535,-40.44206 c 0,-6.31476 -8.09201,-5.68386 -8.97601,0.69981 -0.56928,4.11099 0.12684,4.82304 4.14592,4.24074 3.22006,-0.46655 4.83009,-2.11339 4.83009,-4.94055 z m -26.9485,-6.36111 c 0,-4.68428 -6.46647,-6.95602 -9.87525,-3.46926 -1.52404,1.55889 -1.35929,3.24026 0.54779,5.59071 3.60808,4.44689 9.32746,3.14608 9.32746,-2.12145 z m 44.65501,2.01395 c 2.19702,-2.7078 2.09416,-3.87286 -0.58373,-6.61199 -3.7655,-3.85163 -7.79446,-2.1409 -7.79446,3.3096 0,6.94684 4.10754,8.56589 8.37819,3.30239 z m -58.51668,-6.78478 c -0.84289,-4.52356 -9.97739,-6.43804 -9.97739,-2.09115 0,4.0558 2.02124,5.8018 6.71638,5.8018 2.64564,0 3.72382,-1.22685 3.26101,-3.71065 z m 25.26296,-2.52532 c 0,-5.89425 -4.30172,-7.79603 -7.50344,-3.31726 -3.29118,4.60388 -1.96673,7.43286 3.47985,7.43286 2.60083,0 4.02359,-1.4553 4.02359,-4.1156 z m 54.74473,2.3076 c 1.70582,-2.82321 -4.08071,-9.62127 -6.75215,-7.93248 -4.04072,2.55443 -2.83366,9.74048 1.63614,9.74048 2.21297,0 4.51518,-0.81361 5.11601,-1.808 z m 19.66382,-5.34454 c 3.20565,-3.95093 0.68833,-9.81043 -4.2147,-9.81043 -5.02977,0 -7.20327,5.42003 -3.83718,9.56866 3.17652,3.91503 5.02643,3.97059 8.05188,0.24177 z m -89.95576,-8.77929 c 0,-5.93292 -6.07162,-5.27544 -6.90547,0.74777 -0.53243,3.84597 0.16571,4.79159 3.10944,4.21171 2.15996,-0.42549 3.79603,-2.56298 3.79603,-4.95948 z m 111.75388,1.88066 c 1.50157,-4.00247 -2.10857,-9.27291 -6.35174,-9.27291 -3.52946,0 -5.75607,5.16433 -4.11387,9.54167 1.59408,4.24914 8.84051,4.06305 10.46561,-0.26876 z m 17.48236,-5.9632 c 1.0563,-5.57342 -2.93301,-8.82445 -6.80012,-5.54163 -2.39798,2.03566 -2.63378,3.67095 -0.98397,6.82416 2.52847,4.83255 6.75719,4.13582 7.78409,-1.28253 z m -141.93074,-2.32978 c 0.70889,-1.88961 -0.12816,-3.79129 -1.99052,-4.5223 -3.87097,-1.5194 -8.10678,2.24975 -6.15623,5.47799 2.03416,3.3666 6.73196,2.8155 8.14675,-0.95569 z m 157.32368,0.61035 c 1.46416,-4.29345 -0.72255,-7.95139 -4.75334,-7.95139 -2.06326,0 -4.15811,1.19271 -4.65525,2.65046 -1.46415,4.29346 0.72255,7.95139 4.75334,7.95139 2.06326,0 4.15812,-1.19271 4.65525,-2.65046 z M 132.8383,200.75714 c 1.969,-5.24849 1.41276,-29.1591 -0.76012,-32.6746 -3.53099,-5.71279 -6.04501,0.49047 -7.51734,18.54882 -1.3574,16.64855 -1.22439,17.47975 2.79702,17.47975 2.32219,0 4.7884,-1.50929 5.48044,-3.35397 z m 42.34343,-41.68224 c -0.8373,-6.00297 -7.91778,-7.89951 -7.91778,-2.12081 0,4.80252 1.70696,6.86998 5.67207,6.86998 1.8271,0 2.66189,-1.76539 2.24571,-4.74917 z m 40.34395,-0.0217 c 1.3507,-3.85312 -2.29464,-10.07176 -5.90402,-10.07176 -4.27895,0 -6.05042,5.74688 -2.94954,9.56867 3.11973,3.84501 7.59295,4.09919 8.85356,0.50309 z m 137.60863,-17.63558 c 1.72773,-4.60536 -2.65845,-8.93633 -5.79797,-5.725 -2.65347,2.71414 -1.00964,9.04808 2.34821,9.04808 1.21169,0 2.76409,-1.49539 3.44976,-3.32308 z M 245.53418,115.53671 c 1.13095,-3.47044 -7.50489,-11.44835 -11.54467,-10.66515 -5.03888,0.97689 -5.91184,12.39293 -1.21623,15.90497 3.01815,2.2574 4.42105,2.24363 7.83782,-0.0769 2.28893,-1.55454 4.50432,-3.87786 4.92308,-5.16292 z m 88.71479,-9.14739 c 1.77887,-2.94409 -2.16409,-7.094829 -5.02287,-5.28759 -2.38071,1.50501 -0.85632,7.59271 1.90124,7.59271 0.95086,0 2.35558,-1.0373 3.12163,-2.30512 z M 28.375535,195.31658 c 0,-4.3141 10.615343,-16.98882 20.211374,-24.13237 5.985676,-4.4559 10.883047,-8.65945 10.883047,-9.34121 0,-2.8116 8.8394,-6.60842 12.567428,-5.39813 4.24074,1.37674 5.638681,7.3792 1.718576,7.3792 -1.425803,0 -1.795883,2.04507 -0.975276,5.38941 1.127164,4.59369 0.41989,5.71121 -4.790405,7.56907 -4.276871,1.52503 -7.091912,4.68265 -9.372745,10.51338 -2.959988,7.56692 -3.976716,8.34955 -11.050321,8.50596 -4.284714,0.0948 -10.35568,0.3648 -13.491034,0.60011 -3.135354,0.23532 -5.700644,-0.25312 -5.700644,-1.08542 z"
       id="path5885"
       inkscape:connector-curvature="0" />
    <path
       style="fill:#49231a"
       d="m 282.3133,471.84922 c -11.20848,-1.65773 -28.93022,-5.8187 -47.67811,-11.19456 -11.40129,-3.26925 -30.43912,-8.16099 -42.30629,-10.87053 -11.86717,-2.70951 -22.59475,-5.91072 -23.83905,-7.1138 -4.58991,-4.43778 -14.05407,-7.41943 -19.28651,-6.07613 -4.64247,1.19184 -5.23641,0.80027 -4.30605,-2.83877 1.20714,-4.72169 -3.99171,-9.1258 -10.7726,-9.1258 -5.07021,0 -5.274,-5.4843 -1.39861,-37.63937 2.98206,-24.74286 5.02081,-28.59905 11.5755,-21.89444 3.46235,3.54153 5.25105,4.03589 8.38847,2.31839 3.06298,-1.67674 4.4174,-1.39766 5.84049,1.20342 1.11401,2.03613 3.84442,3.09854 6.8478,2.66448 3.75787,-0.54311 4.99505,-2.03486 4.99505,-6.02285 0,-4.60339 -0.93683,-5.31581 -7.11948,-5.41403 -3.91571,-0.0621 -7.49157,-1.25492 -7.94635,-2.65046 -0.96439,-2.95936 -10.05874,-3.43568 -11.76239,-0.61605 -2.04047,3.37705 -9.45218,-0.1374 -10.65859,-5.0541 -0.64055,-2.61051 0.30248,-8.33803 2.09563,-12.7278 2.27649,-5.57299 3.26028,-14.83468 3.26028,-30.69312 0,-12.49144 0.61595,-23.34176 1.36879,-24.11181 0.75283,-0.77006 2.67139,0.50216 4.26346,2.82715 1.59208,2.32499 5.05965,4.22726 7.70572,4.22726 2.64607,0 5.97231,1.43125 7.39164,3.18055 3.63341,4.47812 8.48287,3.95157 9.76417,-1.06018 0.5963,-2.33241 2.72683,-4.24074 4.73451,-4.24074 4.76759,0 9.09286,-5.44043 7.56439,-9.51468 -1.74607,-4.65423 -9.11871,-3.93977 -10.66178,1.03319 -1.62464,5.23586 -11.69571,5.80708 -15.68555,0.88969 -1.58574,-1.95441 -4.71544,-2.96069 -7.50919,-2.4144 -4.10228,0.80211 -4.79024,0.0653 -4.79024,-5.13043 0,-5.10176 0.8475,-6.06708 5.32658,-6.06708 4.28831,0 5.19746,-0.89757 4.66416,-4.60474 -0.86162,-5.98952 -4.4868,-7.08327 -8.81236,-2.6588 -5.11114,5.22805 -4.34787,7.34049 -12.57048,-34.79045 -3.29832,-16.89994 -3.28333,-17.85649 0.34409,-21.95641 2.95027,-3.33457 3.79265,-7.7458 3.79265,-19.86082 0,-24.64827 -8.38607,-28.09341 -10.77413,-4.42619 -0.66395,6.58024 -1.91737,11.96408 -2.78538,11.96408 -2.07898,0 -8.88751,-11.92472 -11.95504,-20.93851 -5.09917,-14.9837 10.70126,-37.51314 35.23799,-50.245 7.62816,-3.95817 14.67078,-8.66145 15.65027,-10.45173 1.47778,-2.70104 2.93131,-2.84486 8.53988,-0.84498 3.99029,1.42283 11.59046,1.87031 18.5536,1.09239 28.031,-3.13163 29.17981,-3.04943 32.6286,2.33445 1.79195,2.79741 2.6532,6.8748 1.93859,9.17781 -0.70723,2.27925 -0.35305,4.14409 0.78708,4.14409 1.14013,0 2.64682,1.84938 3.34819,4.10973 0.70136,2.26036 4.53168,5.20905 8.5118,6.55265 6.0886,2.05538 7.01636,3.16934 5.84828,7.02221 -0.76355,2.51861 -2.66533,5.34233 -4.22616,6.27494 -1.56086,0.9326 -2.80824,3.31801 -2.77199,5.30092 0.0611,3.34283 0.2664,3.33516 2.81975,-0.10536 1.51459,-2.04086 4.51663,-3.7408 6.67118,-3.77765 5.93599,-0.10155 14.48231,-8.90775 15.95513,-16.44034 1.16793,-5.97317 0.15982,-7.91851 -9.27076,-17.89125 -9.81541,-10.3796 -18.28816,-22.073398 -18.30643,-25.265893 -0.004,-0.744865 3.49037,-2.025289 7.76586,-2.845389 13.26941,-2.545262 27.86302,-11.272043 48.26287,-28.860549 23.32844,-20.113506 27.82053,-21.908374 34.23552,-13.679216 4.79279,6.148186 9.23015,18.737368 9.23015,26.18671 0,6.593497 3.87838,7.766647 9.09715,2.751745 2.95882,-2.843235 7.37259,-4.46289 12.16196,-4.46289 4.13473,0 7.99655,-0.792584 8.58187,-1.761299 1.60014,-2.648291 23.46899,-7.196532 27.81632,-5.785186 2.0864,0.677344 6.00939,5.264398 8.71774,10.193451 2.70832,4.929056 10.13589,14.698878 16.50568,21.710716 6.3698,7.01184 15.63575,18.24844 20.591,24.97023 l 9.00956,12.22144 -3.43995,9.21338 c -2.76106,7.39511 -2.97416,10.42315 -1.07974,15.34338 1.29811,3.3715 3.49903,11.61646 4.89092,18.32213 2.45714,11.83755 2.40229,12.19213 -1.88577,12.19213 -2.4291,0 -5.46406,1.07148 -6.74438,2.38108 -1.7218,1.76119 -3.93683,1.20918 -8.5082,-2.12037 -6.96785,-5.07503 -10.86319,-5.63003 -14.36623,-2.04687 -2.75876,2.82184 -8.79429,-1.03836 -8.79429,-5.62465 0,-6.34485 -17.06849,-56.52369 -19.55926,-57.50135 -4.72419,-1.8543 -13.75654,8.57027 -13.32137,15.37468 0.22279,3.48321 -2.1936,10.58786 -5.67029,16.67174 -3.33218,5.83102 -8.25399,15.21677 -10.93738,20.85723 -3.29265,6.92119 -5.56122,9.55741 -6.97767,8.10854 -1.41648,-1.44886 -4.47623,0.21486 -9.41125,5.11731 -4.02183,3.99528 -8.50571,7.26414 -9.96416,7.26414 -4.65175,0 -8.18664,20.874 -5.25977,31.05965 1.51391,5.26847 1.0859,8.07529 -2.0308,13.3175 l -3.94901,6.64212 4.67246,1.92078 c 4.58124,1.88327 4.58636,1.92339 0.2621,2.05517 -2.42567,0.074 -5.56412,1.55644 -6.97431,3.29446 -1.68895,2.08161 -4.36174,2.69853 -7.83171,1.8077 -3.76456,-0.96644 -6.04453,-0.26574 -7.98988,2.45552 -2.13044,2.98018 -3.35494,3.27063 -5.6336,1.33625 -4.63471,-3.93443 -9.97488,-0.57213 -9.24976,5.82386 0.84013,7.41005 8.94387,8.99052 11.06401,2.15779 1.2887,-4.15317 1.68936,-4.29307 3.3905,-1.18378 1.29098,2.35961 4.63781,3.52594 10.11794,3.52594 9.15013,0 10.82944,3.31879 3.18382,6.29214 -5.03019,1.95621 -5.98133,3.80729 -8.47918,16.50184 -0.74577,3.79017 -2.17238,6.89121 -3.17027,6.89121 -0.99788,0 -2.42928,3.353 -3.18091,7.45113 -0.75162,4.09812 -2.79446,8.26849 -4.53966,9.26748 -2.3922,1.36936 -2.91262,4.18006 -2.11465,11.42135 0.94386,8.56545 0.52759,9.85239 -3.84613,11.89076 -3.10719,1.44811 -4.90453,4.08963 -4.90453,7.20808 0,6.56072 3.71525,10.0112 10.7794,10.0112 3.19236,0 5.80429,0.95416 5.80429,2.12037 0,1.1662 -1.16604,2.14096 -2.5912,2.1661 -3.04854,0.0539 -24.35729,20.55021 -24.35729,23.42872 0,1.08349 -0.93284,1.96999 -2.07297,1.96999 -1.14012,0 -2.07296,2.35185 -2.07296,5.22633 0,3.13889 -1.7384,6.17796 -4.35251,7.60897 -3.23013,1.76827 -4.08765,3.79986 -3.3254,7.87843 0.5649,3.02265 -0.008,7.19153 -1.27373,9.26418 -1.84121,3.01567 -1.384,4.76663 2.28894,8.76571 2.52437,2.74851 4.58974,6.63553 4.58974,8.63784 0,5.49746 5.28761,6.4694 14.5569,2.67576 11.18986,-4.5797 22.36491,-4.28379 30.53001,0.80843 7.57564,4.72459 7.65062,4.91725 4.36046,11.20557 -1.30719,2.49834 -2.49322,6.49081 -2.63565,8.87218 -0.18574,3.10623 -1.52415,4.19432 -4.73624,3.85046 -2.67775,-0.28663 -4.74285,0.8607 -5.13798,2.85461 -0.74482,3.75845 -13.00858,8.67086 -19.31733,7.73779 z m -36.99004,-49.9104 c -0.56785,-1.43556 -0.99786,0.25238 -0.95562,3.75099 0.0423,3.49862 0.50684,4.67317 1.03242,2.61012 0.52558,-2.06306 0.49102,-4.92556 -0.0767,-6.36111 z m -41.78249,-49.25826 c 0,-8.09202 -7.71975,-10.2169 -11.42065,-3.14354 -3.47864,6.64855 -1.05343,10.97228 5.70822,10.17674 4.81916,-0.56699 5.71243,-1.6668 5.71243,-7.0332 z m 15.68349,0.98559 c 4.72268,-2.58531 5.24762,-8.95708 1.03271,-12.53515 -6.78134,-5.75672 -15.3298,5.7584 -9.04624,12.18567 3.01599,3.08497 3.01645,3.08499 8.01353,0.34948 z m 21.62982,-10.70395 c 0,-6.63598 -0.52245,-7.24461 -6.21889,-7.24461 -5.24735,0 -6.32158,0.91337 -6.8763,5.84669 -0.50383,4.48089 0.46465,6.30518 4.14592,7.80943 7.13281,2.91462 8.94927,1.61326 8.94927,-6.41151 z m -51.6545,2.29706 c 2.31561,0 0.48057,-10.4106 -2.2425,-12.72222 -4.1219,-3.4991 -9.32833,0.68924 -9.32833,7.50422 0,5.1 3.27457,7.61894 7.94315,6.11019 1.51841,-0.4907 3.15087,-0.89219 3.62768,-0.89219 z m 70.31115,-7.4213 c 0,-5.64784 -0.69415,-6.36111 -6.19049,-6.36111 -4.32378,0 -6.4082,1.15628 -6.91245,3.8345 -1.2949,6.87768 1.32987,10.27288 7.3905,9.55982 4.81916,-0.56699 5.71244,-1.6668 5.71244,-7.03321 z m 19.2865,-4.50017 c 0.43572,-4.58008 -0.40916,-7.02837 -2.74137,-7.94379 -5.06217,-1.98696 -11.36273,2.40708 -11.36273,7.92444 0,6.40103 1.83878,8.02782 8.21428,7.26733 4.21099,-0.50231 5.38557,-1.94775 5.88982,-7.24798 z m -105.65127,-6.92207 c 0.62759,-4.54016 -2.32972,-8.60122 -6.32732,-8.68881 -2.57173,-0.0564 -6.14467,8.6422 -4.90599,11.94398 1.91574,5.10651 10.41803,2.64272 11.23331,-3.25517 z m -14.48813,-6.35736 c 4.69546,-3.04371 1.90874,-9.71515 -4.36762,-10.45614 -4.79872,-0.56654 -5.68291,0.12076 -5.68291,4.41743 0,7.71546 3.87351,10.0428 10.05053,6.03871 z m 37.37887,-40.05524 c 2.30315,-4.40191 -0.57908,-11.07719 -4.78288,-11.07719 -4.3649,0 -7.87355,5.75527 -6.40127,10.50009 1.6565,5.33856 8.5079,5.69209 11.18415,0.5771 z m 17.86888,-11.07719 c 0,-3.78781 -1.25605,-5.48424 -4.40032,-5.94313 -4.80251,-0.70091 -7.6269,3.92782 -5.63559,9.23579 2.06374,5.501 10.03591,2.88544 10.03591,-3.29266 z m 21.34789,-5.50813 c 0.86787,-6.18283 -4.75862,-10.73834 -8.91012,-7.2141 -3.77437,3.2041 -3.969,6.75413 -0.56138,10.23968 3.65977,3.74347 8.74955,2.11759 9.4715,-3.02558 z m 21.14782,-6.98724 c 0,-6.40133 -3.90781,-9.48238 -9.32833,-7.35476 -3.12746,1.22757 -4.30251,9.4415 -1.72746,12.07543 0.76007,0.77747 3.55857,1.41358 6.21888,1.41358 3.95262,0 4.83691,-1.12146 4.83691,-6.13425 z m -91.23221,-1.26005 c 3.44442,-4.24517 1.15004,-9.56866 -4.12402,-9.56866 -2.35182,0 -4.81754,1.4434 -5.47937,3.20755 -1.19117,3.17515 2.45969,9.51467 5.47937,9.51467 0.86093,0 2.71673,-1.4191 4.12402,-3.15356 z m 109.55198,1.29103 c 1.52491,-0.98869 2.45775,-4.07512 2.07296,-6.85874 -0.99133,-7.1716 -11.03246,-8.40903 -12.77968,-1.57493 -2.01106,7.86624 4.12594,12.70034 10.70672,8.43367 z M 177.31212,160.75932 c 1.01665,-5.39975 -5.54724,-10.4781 -9.35986,-7.24154 -3.44681,2.92602 -3.52466,6.55693 -0.21322,9.94411 3.54196,3.62296 8.65384,2.17983 9.57308,-2.70257 z m 45.89005,-2.82072 c -0.0846,-4.08638 -4.11435,-7.1034 -11.01906,-8.2495 -6.91402,-1.14765 -7.60586,-0.81848 -7.60586,3.61882 0,2.68472 1.51251,6.59083 3.36112,8.68024 3.05996,3.45854 3.8958,3.51612 9.32833,0.64261 3.28195,-1.73599 5.95292,-3.84746 5.93547,-4.69217 z m 131.37795,-16.37841 c 1.77555,-4.73284 -0.69173,-9.54167 -4.89557,-9.54167 -4.20384,0 -6.67112,4.80883 -4.89557,9.54167 0.65628,1.7493 2.85928,3.18055 4.89557,3.18055 2.03629,0 4.23929,-1.43125 4.89557,-3.18055 z M 334.82618,103.113 c -0.40505,-2.15134 -2.3582,-4.230985 -4.34032,-4.621441 -2.64413,-0.520856 -3.60389,0.696135 -3.60389,4.569791 0,5.41764 3.81595,8.49685 6.93153,5.59327 0.96202,-0.89655 1.41772,-3.39028 1.01268,-5.54162 z M 139.52841,74.086306 c -7.9253,-7.645468 -9.53908,-12.04001 -4.42137,-12.04001 3.06837,0 14.64876,16.494987 12.86286,18.321728 -0.51518,0.526955 -4.31384,-2.299817 -8.44149,-6.281718 z"
       id="path5883"
       inkscape:connector-curvature="0" />
    <path
       style="fill:#431b15"
       d="m 263.27672,465.72875 c -2.90173,-7.73475 2.231,-14.46212 16.97797,-22.25265 12.43308,-6.56817 15.46918,-7.3858 21.331,-5.74455 7.99937,2.23972 9.64435,5.31899 6.8531,12.82841 -1.57184,4.22878 -3.98205,5.7955 -10.7023,6.95685 -5.77732,0.99839 -8.99657,2.76218 -9.64081,5.28207 -1.63884,6.41026 -22.58559,8.88302 -24.81896,2.92987 z m -14.01519,-2.74111 c -1.49825,-2.47967 0.79799,-8.67283 3.21562,-8.67283 1.01813,0 1.85118,0.87614 1.85118,1.94695 0,1.07083 0.5662,3.45625 1.25826,5.30093 1.35899,3.62248 -4.2357,4.88291 -6.32506,1.42495 z m -21.58937,-8.25331 c -6.49159,-3.75942 -12.42206,-5.30156 -21.06103,-5.47668 -10.50307,-0.21291 -12.592,-0.98118 -16.50467,-6.07014 l -4.47963,-5.82637 5.46424,-2.12501 c 3.00533,-1.16875 6.30352,-2.12502 7.32931,-2.12502 2.68259,0 6.58215,-8.18257 5.08245,-10.66466 -1.4671,-2.4281 0.9038,-11.42035 2.56349,-9.7227 0.61079,0.62475 1.79961,4.99042 2.64183,9.70146 1.3419,7.50615 1.05295,8.56553 -2.33628,8.56553 -4.17139,0 -5.19867,3.14898 -1.74046,5.33517 1.16992,0.73959 8.21835,1.43918 15.66316,1.55466 12.26418,0.19019 13.91471,0.75389 17.56603,5.99897 8.68094,12.47007 3.01827,18.50309 -10.18844,10.85479 z m -54.18933,-18.56781 c 0,-1.81813 0.93283,-2.71598 2.07296,-1.99522 1.14013,0.72075 2.07296,2.20832 2.07296,3.3057 0,1.09737 -0.93283,1.99522 -2.07296,1.99522 -1.14013,0 -2.07296,-1.48756 -2.07296,-3.3057 z m -2.07296,-8.23119 c 0,-3.72449 1.24389,-4.27289 3.02092,-1.33185 0.65595,1.08563 0.24458,2.5732 -0.91414,3.3057 -1.15873,0.73251 -2.10678,-0.15572 -2.10678,-1.97385 z m -40.74409,-17.6182 c 0.68709,-5.53947 1.8661,-16.75093 2.62001,-24.91435 0.75392,-8.16343 2.25735,-16.60208 3.34095,-18.75256 1.87665,-3.72432 2.20401,-3.68527 6.89522,0.82268 3.78024,3.63258 4.46182,5.61797 2.93222,8.54141 -1.09604,2.09482 -1.99281,5.67074 -1.99281,7.94651 0,2.27577 -1.3935,6.87078 -3.09667,10.21115 -1.70317,3.34037 -3.10242,7.60081 -3.10944,9.46765 -0.0215,5.71412 -4.43674,16.74927 -6.7015,16.74927 -1.34305,0 -1.67302,-3.74265 -0.88798,-10.07176 z m 74.98376,-19.89582 c -11.65193,-2.78985 -14.09929,-6.07872 -4.52339,-6.07872 4.25859,0 9.95576,-1.48309 12.6604,-3.29577 6.29772,-4.22079 10.06238,0.2516 4.06342,4.82729 -2.16942,1.6547 -3.71118,3.89536 -3.42615,4.97925 0.28503,1.08389 0.28503,1.87487 0,1.75772 -0.28503,-0.11725 -4.23346,-1.10255 -8.77428,-2.18977 z m -14.57226,-33.76335 c -1.23634,-5.75774 -2.12215,-6.4084 -7.93832,-5.83102 -4.96901,0.4933 -6.7062,1.79866 -7.20858,5.4167 -0.51682,3.72194 -1.42558,4.35642 -4.14593,2.8946 -1.91621,-1.02972 -8.6146,-2.50965 -14.88531,-3.28874 -23.65643,-2.93913 -23.37549,-2.79147 -21.8361,-11.4778 0.75417,-4.25558 1.8222,-17.75619 2.3734,-30.00133 1.1604,-25.77931 1.92149,-29.39238 5.43452,-25.79901 1.33078,1.36121 4.13647,2.47494 6.23487,2.47494 2.09839,0 6.65684,2.14687 10.12987,4.77083 l 6.31459,4.77083 3.53386,-4.45952 c 1.94362,-2.45274 5.65002,-5.61794 8.23643,-7.03382 3.4294,-1.87733 4.52863,-4.11436 4.06009,-8.2627 -0.82652,-7.31795 -8.62839,-9.03547 -11.97644,-2.63651 -2.38822,4.56448 -11.25296,6.03678 -13.54157,2.24903 -0.70464,-1.1662 -3.55819,-2.12037 -6.34122,-2.12037 -2.78304,0 -5.06007,-0.39905 -5.06007,-0.88676 0,-0.48772 -0.52052,-2.27424 -1.15671,-3.97005 -0.78543,-2.09361 0.59337,-3.42548 4.29564,-4.1494 4.3704,-0.85457 5.83466,-0.0375 7.37894,4.11706 2.93221,7.88869 11.24823,6.01662 11.24823,-2.53214 0,-5.56267 -0.69031,-6.31455 -5.49954,-5.99009 -3.97497,0.26816 -5.80728,-0.83269 -6.60964,-3.97109 -0.94399,-3.69235 -2.18726,-4.1354 -8.30845,-2.9608 l -7.19836,1.38129 -2.24532,-10.70902 c -5.75009,-27.42494 -7.05476,-40.13903 -4.4485,-43.35119 3.43365,-4.23192 5.15041,-25.89223 2.78328,-35.11669 -2.91045,-11.3418 -7.48733,-9.40942 -10.04425,4.24074 -1.20149,6.41412 -3.06715,11.51655 -4.14593,11.33874 -2.69625,-0.44441 -11.28973,-17.45259 -11.28973,-22.34458 0,-6.32884 9.3666,-23.36449 16.91683,-30.76776 3.80722,-3.73311 13.39828,-9.78938 21.31347,-13.45836 13.56474,-6.28777 14.54568,-6.45484 17.08044,-2.90908 2.05498,2.87463 5.32293,3.69093 13.85674,3.46126 8.67628,-0.23349 11.9811,0.61898 14.81439,3.82134 3.33344,3.76764 3.35537,4.23628 0.25523,5.45312 -2.19528,0.86168 -3.39161,3.80778 -3.39161,8.35227 0,13.34294 -6.50098,20.47383 -14.18839,15.56317 -5.98739,-3.8247 -11.08486,-0.80554 -10.30773,6.10513 0.65042,5.78395 0.79273,5.83647 14.06406,5.18977 14.8063,-0.72149 18.72391,-2.80303 18.72391,-9.94854 0,-2.62992 1.3438,-5.92243 2.98622,-7.3167 1.64243,-1.39426 2.47239,-3.90469 1.84436,-5.57872 -0.89626,-2.38903 -0.11243,-2.65419 3.64415,-1.23275 6.28388,2.37772 7.57339,6.70687 1.99776,6.70687 -5.9712,0 -7.40623,5.07159 -4.22492,14.93149 2.17294,6.73466 2.17027,8.86296 -0.0145,11.55562 -1.47289,1.81531 -2.31184,3.51927 -1.86434,3.78657 0.4475,0.26732 3.61214,2.46524 7.03252,4.88428 3.42039,2.41905 9.29438,5.48284 13.05332,6.80844 3.75894,1.3256 9.24854,4.35253 12.19909,6.72652 8.35681,6.7238 14.40992,5.67662 17.20166,-2.97587 1.80269,-5.58715 3.6579,-7.44634 7.93436,-7.95139 3.9685,-0.46868 5.59246,-1.88473 5.61932,-4.89992 0.0207,-2.33241 1.11011,-7.58032 2.42076,-11.66204 1.31063,-4.08171 2.80219,-14.34842 3.31459,-22.81491 l 0.93159,-15.39362 -9.57124,-5.32897 c -9.27789,-5.16566 -28.22787,-25.923952 -28.22787,-30.921567 0,-1.356503 3.73133,-3.607196 8.29185,-5.001539 14.2786,-4.365573 25.2224,-11.230649 43.48594,-27.278834 23.52297,-20.669642 26.71309,-22.360218 32.34902,-17.143128 10.18263,9.425922 13.29572,25.754167 8.80652,46.190669 -2.86542,13.044419 -2.86836,14.878189 -0.0284,17.783009 1.74151,1.78133 4.63796,2.66118 6.43656,1.95521 4.2497,-1.66806 4.21599,-9.14604 -0.0522,-11.589288 -4.50313,-2.577713 -2.89424,-9.318249 2.93354,-12.290154 2.61622,-1.334162 6.60882,-4.459171 8.87246,-6.944461 2.26355,-2.48529 6.36892,-4.518708 9.12298,-4.518708 2.75403,0 11.22904,-2.310002 18.83333,-5.133334 7.60428,-2.823335 15.14387,-4.61604 16.75464,-3.983793 1.61078,0.63225 4.37256,4.005543 6.1373,7.496209 1.76473,3.490666 9.8925,14.133925 18.06173,23.651684 29.56729,34.448095 29.634,34.580625 23.75572,47.196335 -1.16753,2.50569 -1.59251,8.70778 -0.9444,13.78241 2.9927,23.43216 2.67236,27.70434 -2.24912,29.9957 -3.61506,1.68312 -5.53248,1.35604 -8.57812,-1.46325 -4.23612,-3.92132 -9.02949,-4.60745 -16.17036,-2.31465 -3.98985,1.28107 -4.80484,0.35672 -6.84942,-7.76856 -1.27641,-5.07245 -5.58541,-19.39759 -9.57559,-31.83364 -7.21654,-22.49165 -11.7153,-28.68065 -16.30492,-22.43087 -1.17021,1.5935 -3.7601,3.52381 -5.75533,4.28959 -1.99522,0.76579 -3.62768,2.53986 -3.62768,3.94238 0,1.40253 -1.47645,4.21882 -3.28098,6.25841 -1.80453,2.0396 -5.42985,7.8178 -8.05625,12.84046 -2.6264,5.02265 -6.51374,10.02011 -8.63855,11.10547 -2.12481,1.08536 -5.26252,2.78315 -6.97272,3.77287 -1.71019,0.98973 -4.32164,2.39071 -5.80323,3.11331 -3.50177,1.70788 -23.47755,-19.20474 -27.21392,-28.49024 -2.70068,-6.71166 -2.54537,-7.29479 3.69775,-13.88335 3.58425,-3.78259 6.51683,-8.54448 6.51683,-10.58196 0,-2.52574 -3.63763,0.10657 -11.43185,8.27247 l -11.43184,11.977 1.34975,16.55475 c 1.19363,14.64003 0.83754,17.40248 -3.07889,23.8843 -5.62143,9.30368 -5.57823,14.54754 0.2046,24.82509 l 4.63318,8.2344 -4.63318,5.04457 c -6.01239,6.54629 -5.86619,12.04804 0.46281,17.41381 2.80277,2.37622 5.70241,6.94435 6.44362,10.15141 1.41726,6.13224 -0.73439,7.14768 -12.9375,6.10567 -2.91195,-0.24863 -4.97919,1.13567 -5.84034,3.91098 -0.87769,2.8286 -3.13104,4.29585 -6.59747,4.29585 -3.62101,0 -4.92225,-0.91225 -4.16821,-2.92217 0.60294,-1.6072 0.15983,-3.88013 -0.9849,-5.05095 -1.39291,-1.42476 -1.18511,-3.59636 0.62833,-6.56656 2.05244,-3.36164 2.1275,-5.03311 0.30954,-6.89265 -3.63374,-3.71675 -8.89761,-0.57437 -8.89761,5.31156 0,7.15654 -4.83296,11.56295 -11.29617,10.29917 -2.92123,-0.57119 -6.70524,0.14482 -8.40888,1.59097 -3.95428,3.35683 -4.02969,10.59174 -0.11049,10.59174 4.6089,0 6.29225,4.56709 2.48635,6.74568 -2.15634,1.23433 -3.40049,4.70137 -3.40049,9.47596 l 0,7.52946 8.81009,-1.08415 c 13.58495,-1.67172 24.93256,-4.67202 30.0062,-7.93362 6.31461,-4.05936 10.59743,-0.053 7.43758,6.95761 -3.44332,7.63949 -7.22633,23.03325 -8.31958,33.85392 -0.758,7.50257 -2.23596,10.78128 -5.99588,13.30121 -2.74439,1.83936 -4.98985,4.6602 -4.98985,6.26854 0,2.51605 -9.80871,7.57984 -14.68237,7.57984 -0.89427,0 -1.92111,-2.6158 -2.28187,-5.81289 -0.74894,-6.63717 -5.18945,-8.35244 -10.78612,-4.16647 -3.57221,2.67182 -3.61012,3.30258 -0.56081,9.33413 3.79598,7.5085 2.8737,9.12671 -5.20171,9.12671 -3.83881,0 -5.87338,-1.10177 -5.87338,-3.18056 0,-3.72053 -3.26964,-4.22588 -5.32565,-0.82313 -0.78341,1.29661 -0.16583,3.15306 1.37235,4.12546 5.89836,3.72876 -1.36277,6.10327 -19.42335,6.35176 -4.38228,0.0602 -7.29465,0.99282 -6.61479,2.11802 0.66807,1.10566 -0.63194,2.0103 -2.8889,2.0103 -2.89085,0 -4.51481,-1.91527 -5.49517,-6.48093 z m -15.90733,-9.96653 c 0.48551,-5.15301 -0.3037,-7.2375 -3.10944,-8.21277 -2.06804,-0.71884 -5.62575,-3.46326 -7.906,-6.09869 -2.28026,-2.63543 -6.23725,-5.44216 -8.79331,-6.23718 -3.71299,-1.15481 -5.14919,-0.3189 -7.14322,4.15758 -3.07488,6.90298 -0.0933,12.77405 6.36152,12.52664 2.74495,-0.10517 4.3926,1.12757 4.3926,3.28658 0,5.23714 4.54792,8.79843 10.35025,8.10486 4.19522,-0.50149 5.32238,-1.95235 5.8476,-7.52702 z m 21.02076,-43.86639 c 1.36725,-1.6851 2.1811,-5.26323 1.80855,-7.95139 -0.93336,-6.73464 -10.84574,-8.02535 -14.08513,-1.83406 -4.68886,8.96158 6.01959,17.49709 12.27658,9.78545 z m 19.56553,-10.18847 c 2.90689,-4.74324 -0.5114,-10.86265 -6.58627,-11.7907 -5.52699,-0.84435 -8.86476,5.35014 -6.43357,11.93989 2.13282,5.78104 9.43678,5.69735 13.01984,-0.14927 z m 53.08281,-1.59027 c 0,-1.16621 -1.92072,-2.12037 -4.26826,-2.12037 -2.34755,0 -3.69174,0.95416 -2.9871,2.12037 0.70464,1.1662 2.62536,2.12037 4.26827,2.12037 1.6429,0 2.98709,-0.95417 2.98709,-2.12037 z m -33.01895,-2.20163 c 3.75119,-2.05349 3.80817,-2.62419 0.84697,-8.48148 -3.3058,-6.5389 -8.75045,-8.10115 -13.01857,-3.73541 -3.37843,3.45569 -3.12518,7.10231 0.76996,11.0865 3.82177,3.90918 5.9416,4.11935 11.40164,1.13039 z m 26.45422,-64.76826 c 4.78365,-1.53051 1.55117,-5.45761 -6.95414,-8.44847 -9.64025,-3.38995 -12.30689,-1.62713 -9.39386,6.20994 2.12728,5.72312 4.45896,6.0424 16.348,2.23853 z m 3.13131,-19.5278 c -1.51488,-5.92534 -9.00434,-6.4119 -9.00434,-0.58497 0,2.60551 1.69524,4.37022 4.66416,4.85525 5.96256,0.97411 5.73754,1.1955 4.34018,-4.27028 z m 17.84011,2.87128 c 1.36212,-1.67878 2.17597,-5.73399 1.80856,-9.01157 -0.52405,-4.67476 -1.86672,-6.1009 -6.22925,-6.61642 -8.04597,-0.95079 -11.50657,6.21186 -6.44115,13.33168 4.26102,5.98914 7.33783,6.63961 10.86184,2.29631 z m 72.70865,-63.80213 c 3.66945,-4.52255 -0.54739,-13.71961 -6.29047,-13.71961 -5.09227,0 -7.12176,4.42916 -5.34583,11.66678 1.48067,6.03441 7.53863,7.10314 11.6363,2.05283 z m -62.2398,133.77127 c 0,-0.51427 0.93283,-1.52476 2.07296,-2.24551 1.14013,-0.72076 2.07296,-0.29999 2.07296,0.93504 0,1.23503 -0.93283,2.24551 -2.07296,2.24551 -1.14013,0 -2.07296,-0.42076 -2.07296,-0.93504 z M 255.65164,262.4213 c -0.72682,-1.93741 -0.004,-3.18056 1.85118,-3.18056 1.67441,0 3.04439,1.43125 3.04439,3.18056 0,1.7493 -0.83304,3.18055 -1.85118,3.18055 -1.01815,0 -2.38811,-1.43125 -3.04439,-3.18055 z M 139.64609,73.040099 c -5.77554,-6.166232 -7.43125,-11.988786 -2.97732,-10.470188 2.90243,0.989602 10.8581,14.01053 9.44405,15.456926 -0.50447,0.516002 -3.4145,-1.72803 -6.46673,-4.986738 z"
       id="path5881"
       inkscape:connector-curvature="0" />
    <path
       style="fill:#30120d"
       d="m 275.84944,457.03917 c 0.81535,-0.83402 4.46895,-2.50382 8.1191,-3.71065 4.46742,-1.47707 6.85313,-3.75362 7.29902,-6.96509 0.69998,-5.04133 3.37528,-6.26042 5.61259,-2.55759 1.78673,2.95711 -2.19518,7.58284 -9.92105,11.52516 -6.47643,3.30475 -13.76635,4.42562 -11.10966,1.70817 z M 133.11665,396.0743 c 1.32625,-24.87308 2.5309,-30.81504 6.24735,-30.81504 5.28392,0 4.98436,7.60045 -1.16997,29.68518 l -6.20427,22.26389 1.12689,-21.13403 z m 2.93961,-46.8574 c -2.13001,-2.62521 -2.18314,-4.76486 -0.25382,-10.22231 1.34203,-3.79618 2.44005,-16.08123 2.44005,-27.30008 0,-11.21886 0.8018,-20.90482 1.78178,-21.52433 3.17207,-2.00528 12.70594,3.86985 11.74423,7.23723 -5.77879,20.23406 -6.21957,49.72387 -0.79574,53.23904 1.87747,1.21678 0.30903,1.83648 -4.70284,1.85812 -4.32933,0.0191 -8.66273,-1.37618 -10.21366,-3.28767 z m 33.28065,-46.38342 c 0,-1.81814 0.93283,-3.3057 2.07296,-3.3057 1.14013,0 2.07296,0.89785 2.07296,1.99522 0,1.09738 -0.93283,2.58495 -2.07296,3.3057 -1.14013,0.72076 -2.07296,-0.17705 -2.07296,-1.99522 z M 145.49785,276.2037 c -1.73515,-2.87174 0.60619,-6.36111 4.26827,-6.36111 1.6429,0 2.9871,1.90834 2.9871,4.24074 0,4.38983 -5.00104,5.85138 -7.25537,2.12037 z m 30.79624,-3.44961 c -1.30412,-0.54695 -1.91344,-2.78472 -1.35403,-4.97284 0.85682,-3.35141 -0.56623,-4.22121 -9.03015,-5.51934 -5.52599,-0.84756 -11.1111,-3.02899 -12.41137,-4.84764 -1.94429,-2.71943 -3.31159,-2.86506 -7.69957,-0.82005 -6.3129,2.94214 -6.42116,2.80173 -9.40486,-12.19607 -5.58894,-28.09336 -6.0565,-34.35535 -3.10476,-41.58144 2.99078,-7.32163 3.52852,-25.54716 1.02536,-34.7519 -2.24683,-8.26216 -7.20144,-6.45391 -9.54647,3.48411 -1.14013,4.83177 -3.00579,9.12552 -4.14592,9.54167 -2.6539,0.96867 -9.32088,-12.57339 -9.32511,-18.94127 -0.008,-12.48417 14.53927,-31.12224 30.82544,-39.49301 17.60821,-9.05028 18.12203,-9.00293 22.92909,2.11277 5.14836,11.90489 5.26775,14.92795 1.00205,25.37072 -2.49384,6.1051 -2.75371,9.22586 -1.08093,12.98117 1.91955,4.30931 3.67125,4.94384 13.64793,4.94384 10.03135,0 11.44573,0.51963 11.44573,4.20503 0,2.9232 3.19987,5.86359 10.49717,9.64599 7.37563,3.82299 10.28446,6.51337 9.78187,9.04729 -0.45412,2.28956 -2.5601,3.52667 -5.7678,3.38818 -2.77888,-0.12 -6.31452,1.07272 -7.85698,2.65046 -1.54246,1.57774 -4.03729,2.86861 -5.54406,2.86861 -3.22639,0 -5.25612,4.62427 -5.25612,11.97485 0,7.76376 3.6722,13.43574 8.88302,13.72047 3.51047,0.19181 3.14705,0.56757 -1.54387,1.59625 -4.93468,1.08214 -6.43767,2.7963 -7.6815,8.76071 -1.95496,9.37447 -0.54529,14.26267 4.59431,15.93123 5.30974,1.72378 5.10754,3.78176 -0.62428,6.35396 -3.19943,1.43577 -4.86815,4.2572 -5.31374,8.98429 -0.6147,6.52111 -2.50177,7.84293 -7.94045,5.56196 z m 1.33466,-81.13834 c 0,-1.04144 -1.39924,-2.44274 -3.10944,-3.11401 -1.89409,-0.74346 -3.10944,-0.003 -3.10944,1.89351 0,1.71271 1.39925,3.11401 3.10944,3.11401 1.7102,0 3.10944,-0.85208 3.10944,-1.89351 z m 238.66718,-18.24664 c -2.4838,-4.30602 -7.2193,-8.87284 -10.52333,-10.14849 -5.07676,-1.96009 -6.70839,-4.63842 -10.53344,-17.29082 -2.48938,-8.23431 -6.29488,-18.12705 -8.45669,-21.98387 -2.16179,-3.85682 -3.93054,-9.34328 -3.93054,-12.19213 0,-6.13631 0.30464,-6.06792 -8.04692,-1.80633 -4.98311,2.54275 -8.50694,2.90878 -14.31098,1.4865 -7.18903,-1.76168 -7.66685,-2.37253 -7.20006,-9.20442 1.11639,-16.339106 1.58422,-17.863896 5.7189,-18.63957 2.28026,-0.427782 5.54518,-2.042324 7.25537,-3.587872 4.81284,-4.349497 23.21634,-11.886001 26.18204,-10.721931 1.45866,0.572541 4.47863,4.665598 6.71107,9.095681 2.23243,4.430083 10.4722,15.210948 18.31061,23.957472 19.32711,21.56628 23.42289,27.31786 23.42289,32.89207 0,6.49059 -5.23612,10.9526 -7.08124,6.03434 -2.52592,-6.733 -5.71907,0.49466 -7.53467,17.05465 -2.44334,22.2854 -4.24499,25.00236 -9.98301,15.05472 z m -77.77426,-27.49358 c -1.84133,-2.87448 -3.34785,-6.20598 -3.34785,-7.40333 0,-1.19735 -1.86567,-3.36878 -4.14592,-4.82539 -2.28026,-1.45661 -4.14593,-3.73328 -4.14593,-5.05927 0,-1.32598 -1.39925,-3.59871 -3.10944,-5.0505 -1.71019,-1.4518 -3.10944,-5.3853 -3.10944,-8.74111 0,-3.35582 -0.54963,-6.10149 -1.22139,-6.10149 -0.67174,0 -5.15205,4.13687 -9.95621,9.19304 -9.3261,9.81531 -18.57118,13.23519 -26.95994,9.97284 -2.73259,-1.06269 -5.38746,-1.50348 -5.89971,-0.97952 -4.10703,4.20097 -38.97407,-23.90859 -38.82495,-31.300386 0.0309,-1.53381 7.70203,-6.492267 17.04684,-11.018791 11.28509,-5.466383 21.18566,-12.327089 29.48342,-20.430848 18.19589,-17.77047 27.48363,-23.742015 32.58407,-20.949911 5.56291,3.045277 11.93853,18.071381 11.99419,28.267994 0.0251,4.588308 -1.47445,13.883416 -3.3322,20.655796 -3.72538,13.580856 -2.48629,17.340796 6.92021,20.998946 3.24136,1.26054 4.74936,3.56841 4.74936,7.2685 0,2.98183 1.24653,8.49191 2.77008,12.24462 6.68422,16.46418 5.76718,24.59608 -1.49519,13.25881 z M 138.81907,72.118056 c -4.32834,-5.724538 -4.90754,-7.951389 -2.06814,-7.951389 1.59447,0 3.9616,2.385416 5.2603,5.300926 2.45207,5.504795 0.31049,7.282959 -3.19216,2.650463 z"
       id="path5879"
       inkscape:connector-curvature="0" />
  </g>
</svg>
