<?xml version="1.0" encoding="UTF-8" standalone="no"?>
<svg
   xmlns:dc="http://purl.org/dc/elements/1.1/"
   xmlns:cc="http://creativecommons.org/ns#"
   xmlns:rdf="http://www.w3.org/1999/02/22-rdf-syntax-ns#"
   xmlns:svg="http://www.w3.org/2000/svg"
   xmlns="http://www.w3.org/2000/svg"
   xmlns:sodipodi="http://sodipodi.sourceforge.net/DTD/sodipodi-0.dtd"
   xmlns:inkscape="http://www.inkscape.org/namespaces/inkscape"
   sodipodi:docname="velvet gloves.svg"
   height="100%"
   width="100%"
   inkscape:version="0.48.4 r9939"
   version="1.1"
   id="svg8438"
   viewBox="0 0 512 512">
  <metadata
     id="metadata8464">
    <rdf:RDF>
      <cc:Work
         rdf:about="">
        <dc:format>image/svg+xml</dc:format>
        <dc:type
           rdf:resource="http://purl.org/dc/dcmitype/StillImage" />
        <dc:title></dc:title>
      </cc:Work>
    </rdf:RDF>
  </metadata>
  <defs
     id="defs8462">
    <linearGradient
       id="linearGradient4077">
      <stop
         id="stop4079"
         offset="0"
         style="stop-color:#aa4400;stop-opacity:1;" />
      <stop
         style="stop-color:#ff9f00;stop-opacity:1;"
         offset="0.22752622"
         id="stop4081" />
      <stop
         style="stop-color:#803300;stop-opacity:1;"
         offset="0.4948855"
         id="stop4083" />
      <stop
         id="stop4085"
         offset="1"
         style="stop-color:#562200;stop-opacity:1;" />
    </linearGradient>
    <linearGradient
       id="linearGradient4057">
      <stop
         style="stop-color:#aa4400;stop-opacity:1;"
         offset="0"
         id="stop4059" />
      <stop
         id="stop4067"
         offset="0.22752622"
         style="stop-color:#ecd1a4;stop-opacity:1;" />
      <stop
         id="stop4065"
         offset="0.50136983"
         style="stop-color:#803300;stop-opacity:1;" />
      <stop
         style="stop-color:#562200;stop-opacity:1;"
         offset="1"
         id="stop4061" />
    </linearGradient>
    <linearGradient
       id="linearGradient3890">
      <stop
         style="stop-color:#701b1b;stop-opacity:1;"
         offset="0"
         id="stop3892" />
      <stop
         style="stop-color:#e31600;stop-opacity:1;"
         offset="1"
         id="stop3894" />
    </linearGradient>
    <linearGradient
       id="linearGradient3882">
      <stop
         style="stop-color:#600b0b;stop-opacity:1;"
         offset="0"
         id="stop3884" />
      <stop
         style="stop-color:#d11414;stop-opacity:1;"
         offset="1"
         id="stop3886" />
    </linearGradient>
    <linearGradient
       id="linearGradient3872">
      <stop
         style="stop-color:#800600;stop-opacity:1;"
         offset="0"
         id="stop3874" />
      <stop
         style="stop-color:#ff0004;stop-opacity:0;"
         offset="1"
         id="stop3876" />
    </linearGradient>
    <filter
       id="filter4074"
       inkscape:label="Black Light"
       inkscape:menu="Color"
       inkscape:menu-tooltip="Light areas turn to black"
       x="0"
       width="1"
       y="0"
       height="1"
       color-interpolation-filters="sRGB">
      <feColorMatrix
         id="feColorMatrix4076"
         type="luminanceToAlpha"
         result="result2" />
      <feComposite
         in2="SourceGraphic"
         id="feComposite4078"
         operator="arithmetic"
         in="result2"
         k3="2"
         result="result4" />
      <feBlend
         in2="result2"
         id="feBlend4080"
         in="result4"
         mode="multiply"
         result="result3" />
      <feComposite
         in2="SourceGraphic"
         id="feComposite4082"
         operator="in"
         in="result3" />
    </filter>
  </defs>
  <sodipodi:namedview
     pagecolor="#000000"
     bordercolor="#666666"
     borderopacity="1"
     objecttolerance="10"
     gridtolerance="10"
     guidetolerance="10"
     inkscape:pageopacity="0"
     inkscape:pageshadow="2"
     inkscape:window-width="1190"
     inkscape:window-height="1126"
     id="namedview8460"
     showgrid="false"
     inkscape:zoom="1"
     inkscape:cx="189.20211"
     inkscape:cy="179.64238"
     inkscape:window-x="160"
     inkscape:window-y="130"
     inkscape:window-maximized="0"
     inkscape:current-layer="svg8438"
     showguides="true"
     inkscape:guide-bbox="true" />
  <path
     style="fill:#000000"
     id="path3978"
     d="M -13.466093,0.1885736 H 514.89024 V 516.42957 H -13.466093 z"
     inkscape:connector-curvature="0" />
  <path
     sodipodi:type="arc"
     style="opacity:0.98999999;fill:#ff0000;fill-opacity:0.74970506;fill-rule:nonzero;stroke:none"
     id="path5005"
     sodipodi:cx="640"
     sodipodi:cy="124.5"
     sodipodi:rx="105"
     sodipodi:ry="118.5"
     d="m 743.4676,104.32865 a 105,118.5 0 0 1 0.002,0.0163 L 640,124.5 z"
     sodipodi:start="6.11213"
     sodipodi:end="6.1122693" />
  <g
     transform="matrix(-0.79400959,1.9248386,-1.9110385,-0.78831701,848.63356,-180.40035)"
     id="g6398">
    <path
       inkscape:connector-curvature="0"
       id="path6400"
       d="M 254.24429,289.96166 C 251.42541,287.98336 249,283.39919 249,280.04966 c 0,-3.21792 -0.20148,-3.19433 -3.84615,0.45034 -1.82609,1.82609 -4.03847,3 -5.65385,3 -5.1138,0 -10.4766,-8.14483 -10.49442,-15.93856 l -0.006,-2.43856 -2.03895,2.18856 c -2.36318,2.53657 -5.8804,2.79875 -9.86986,0.73572 -5.3274,-2.75491 -5.42727,-3.88295 -4.05188,-45.76709 1.61423,-49.1578 1.6151,-49.75759 0.0733,-50.71048 -0.69978,-0.43249 -3.46462,-6.93844 -6.14411,-14.45767 -2.67948,-7.51924 -6.47121,-17.39521 -8.42608,-21.9466 -4.00161,-9.31675 -6.74285,-18.82386 -5.72178,-19.84423 4.72425,-4.72102 34.1236,-12.43022 51.17937,-13.42043 12.26372,-0.71199 44.56819,0.95821 51.29506,2.65205 6.75658,1.70133 7.39872,2.89092 5.26296,9.74984 -0.97534,3.1336 -5.63825,15.59745 -10.3616,27.69745 l -8.58791,22 -0.90423,36 c -0.77958,31.03718 -0.66604,38.72683 0.82356,55.78025 1.68131,19.24807 1.67728,19.83642 -0.14982,21.86803 -2.80419,3.11807 -5.44099,3.73761 -9.62761,2.26208 -3.6612,-1.29034 -3.75,-1.2646 -3.75,1.08695 0,3.18233 -1.72934,6.85257 -3.85399,8.17943 -3.35893,2.09769 -7.55697,2.43047 -9.90172,0.78492 z"
       style="fill:#9b9b9b" />
    <path
       inkscape:connector-curvature="0"
       id="path6402"
       d="m 252.58834,287.42261 c -1.4242,-1.69256 -2.87172,-4.84256 -3.21671,-7 -0.34498,-2.15743 -1.01973,-3.92261 -1.49944,-3.92261 -0.4797,0 -0.87219,0.36515 -0.87219,0.81144 0,2.15663 -4.30353,5.18856 -7.36464,5.18856 -5.69363,0 -9.63104,-6.05094 -9.64033,-14.8151 l -0.005,-4.6849 -2.24864,2.80988 c -2.65256,3.31461 -7.28614,3.87368 -11.1457,1.3448 -4.47415,-2.93158 -5.08001,-7.56186 -3.78963,-28.96236 0.63648,-10.55578 1.42857,-29.42293 1.76019,-41.92701 0.57512,-21.68527 0.51097,-22.85164 -1.38972,-25.26798 -1.09597,-1.3933 -2.97701,-5.77396 -4.18007,-9.73479 -2.14875,-7.07428 -8.39792,-23.3542 -12.01367,-31.29723 -1.01015,-2.21908 -2.0663,-5.14408 -2.34699,-6.5 -0.28065,-1.35592 -0.7864,-3.75973 -1.12385,-5.34179 -0.49662,-2.32831 -0.31801,-2.76308 0.93725,-2.28139 0.93074,0.35716 1.5508,0.0535 1.5508,-0.75957 0,-2.64238 10.0458,-5.98622 32,-10.65153 9.79124,-2.08065 12.08626,-2.18784 34,-1.58792 24.25121,0.6639 35.16498,1.719 37.45698,3.62118 1.38927,1.153 0.14359,5.32651 -7.29683,24.44719 -1.69322,4.35131 -2.84538,8.28881 -2.56035,8.75 0.28503,0.46118 0.0939,0.83852 -0.42464,0.83852 -1.49614,0 -5.32601,10.412 -4.62114,12.56316 0.45571,1.39076 0.36585,1.56159 -0.31873,0.60591 -0.70979,-0.9909 -1.39333,-0.23135 -2.67544,2.97296 -1.14117,2.85205 -1.35738,4.42546 -0.64097,4.66426 1.72444,0.57482 1.25021,2.18608 -0.66888,2.27266 -0.9625,0.0434 -1.3,0.26824 -0.75,0.49961 0.55,0.23137 0.88413,2.33334 0.74251,4.67105 -1.44665,23.88034 -2.2311,42.15473 -2.20783,51.43314 0.0238,9.49186 -0.22829,11.32622 -1.66731,12.13154 -1.58293,0.88585 -1.58833,1.40428 -0.0814,7.81724 0.88768,3.77766 1.91407,9.46192 2.28087,12.63169 0.36681,3.16976 1.04467,5.99668 1.50637,6.28202 0.4617,0.28535 0.58376,1.18513 0.27125,1.99952 -0.31251,0.81439 -0.12941,2.03748 0.4069,2.71797 0.5363,0.6805 1.04746,3.67176 1.1359,6.64724 0.25455,8.56388 -4.38579,12.16507 -11.13725,8.64317 -2.51047,-1.30958 -2.75,-1.27849 -2.75,0.35694 0,3.66277 -2.14341,7.74342 -4.93283,9.39117 -4.33885,2.56302 -7.5136,2.14534 -10.47883,-1.37864 z m -14.65309,-58.50063 c -0.63902,-0.76998 -1.58273,-1.13985 -2.09712,-0.82194 -0.55309,0.34183 -0.46049,1.15007 0.22662,1.97798 0.63902,0.76998 1.58273,1.13985 2.09711,0.82194 0.55309,-0.34183 0.4605,-1.15007 -0.22661,-1.97798 z"
       style="fill:#ae4751" />
    <path
       inkscape:connector-curvature="0"
       id="path6404"
       d="m 252.58834,287.42261 c -1.4242,-1.69256 -2.87172,-4.84256 -3.21671,-7 -0.34498,-2.15743 -1.01973,-3.92261 -1.49944,-3.92261 -0.4797,0 -0.87219,0.36515 -0.87219,0.81144 0,2.15663 -4.30353,5.18856 -7.36464,5.18856 -5.69363,0 -9.63104,-6.05094 -9.64033,-14.8151 l -0.005,-4.6849 -2.24864,2.80988 c -2.65256,3.31461 -7.28614,3.87368 -11.1457,1.3448 -4.47415,-2.93158 -5.08001,-7.56186 -3.78963,-28.96236 0.63648,-10.55578 1.42857,-29.42293 1.76019,-41.92701 0.57512,-21.68527 0.51097,-22.85164 -1.38972,-25.26798 -1.09597,-1.3933 -2.97701,-5.77396 -4.18007,-9.73479 -2.14875,-7.07428 -8.39792,-23.3542 -12.01367,-31.29723 -1.01015,-2.21908 -2.0663,-5.14408 -2.34699,-6.5 -0.28065,-1.35592 -0.7864,-3.75973 -1.12385,-5.34179 -0.49662,-2.32831 -0.31801,-2.76308 0.93725,-2.28139 0.93074,0.35716 1.5508,0.0535 1.5508,-0.75957 0,-2.64238 10.0458,-5.98622 32,-10.65153 9.79124,-2.08065 12.08626,-2.18784 34,-1.58792 24.25121,0.6639 35.16498,1.719 37.45698,3.62118 1.38927,1.153 0.14359,5.32651 -7.29683,24.44719 -1.69322,4.35131 -2.84538,8.28881 -2.56035,8.75 0.28503,0.46118 0.0939,0.83852 -0.42464,0.83852 -1.49614,0 -5.32601,10.412 -4.62114,12.56316 0.45571,1.39076 0.36585,1.56159 -0.31873,0.60591 -0.70979,-0.9909 -1.39333,-0.23135 -2.67544,2.97296 -1.14117,2.85205 -1.35738,4.42546 -0.64097,4.66426 1.72444,0.57482 1.25021,2.18608 -0.66888,2.27266 -0.9625,0.0434 -1.3,0.26824 -0.75,0.49961 0.55,0.23137 0.88413,2.33334 0.74251,4.67105 -1.44665,23.88034 -2.2311,42.15473 -2.20783,51.43314 0.0238,9.49186 -0.22829,11.32622 -1.66731,12.13154 -1.58293,0.88585 -1.58833,1.40428 -0.0814,7.81724 0.88768,3.77766 1.91407,9.46192 2.28087,12.63169 0.36681,3.16976 1.04467,5.99668 1.50637,6.28202 0.4617,0.28535 0.58376,1.18513 0.27125,1.99952 -0.31251,0.81439 -0.12941,2.03748 0.4069,2.71797 0.5363,0.6805 1.04746,3.67176 1.1359,6.64724 0.25455,8.56388 -4.38579,12.16507 -11.13725,8.64317 -2.51047,-1.30958 -2.75,-1.27849 -2.75,0.35694 0,3.66277 -2.14341,7.74342 -4.93283,9.39117 -4.33885,2.56302 -7.5136,2.14534 -10.47883,-1.37864 z m -14.65309,-58.50063 c -0.63902,-0.76998 -1.58273,-1.13985 -2.09712,-0.82194 -0.55309,0.34183 -0.46049,1.15007 0.22662,1.97798 0.63902,0.76998 1.58273,1.13985 2.09711,0.82194 0.55309,-0.34183 0.4605,-1.15007 -0.22661,-1.97798 z M 252,146.68783 c 0,-0.44669 -0.8708,-2.61453 -1.93512,-4.81741 -1.06432,-2.20288 -2.22497,-5.16007 -2.57922,-6.57154 l -0.64411,-2.56631 7.05267,2.07693 c 3.87897,1.14232 7.24401,1.87749 7.47787,1.63372 0.58552,-0.61033 0.95275,-7.51152 0.68874,-12.94322 -0.1203,-2.475 -0.46267,-3.88658 -0.76083,-3.13685 -0.43451,1.0926 -0.69933,1.10876 -1.33426,0.0814 -0.59988,-0.97063 -2.26954,-0.40165 -6.87895,2.34416 -3.34773,1.99423 -6.08679,3.2324 -6.08679,2.75148 0,-0.48092 0.9,-2.97401 2,-5.54021 2.48467,-5.79649 2.48187,-6.21229 -0.0472,-7.01499 C 246.22674,112.1198 233,114.39552 233,115.72975 c 0,0.57698 1.37599,3.28533 3.05777,6.01855 1.68176,2.73323 2.80125,5.22602 2.48773,5.53953 -0.31352,0.31352 -3.04593,-0.45617 -6.07202,-1.71042 -8.01801,-3.32328 -8.75952,-2.71296 -8.32515,6.85215 0.1976,4.35126 0.66868,8.22078 1.04683,8.59893 0.37816,0.37816 3.36031,-0.93605 6.62701,-2.92046 3.2667,-1.98442 6.23297,-3.60803 6.59172,-3.60803 0.35875,0 -0.71165,2.5875 -2.37866,5.75 -1.66702,3.1625 -3.03191,6.0875 -3.03309,6.5 -0.001,0.4125 4.27286,0.75 9.49786,0.75 5.225,0 9.5,-0.36548 9.5,-0.81217 z"
       style="fill:#4f4d4e" />
    <path
       inkscape:connector-curvature="0"
       id="path6406"
       d="m 254.30135,288.74184 c -2.66,-2.10734 -4.48227,-6.60679 -3.60336,-8.8972 0.44754,-1.16628 0.26835,-1.44187 -0.59183,-0.91025 -0.93126,0.57555 -1.07201,-0.0995 -0.57411,-2.75352 0.39222,-2.09073 0.19073,-4.2588 -0.49706,-5.34843 -1.0007,-1.58538 -1.09565,-1.44033 -0.70424,1.07583 0.24883,1.59954 0.0463,3.39954 -0.45005,4 -0.49636,0.60045 -1.83023,2.32923 -2.96416,3.84173 -1.52146,2.0294 -2.92772,2.75 -5.36668,2.75 -3.79104,0 -6.62379,-2.37392 -4.02345,-3.37176 0.89998,-0.34536 1.31811,-0.18569 0.97359,0.37176 -0.34975,0.5659 0.0883,0.71149 1.04082,0.34596 1.27287,-0.48844 1.51099,-1.44669 1.05327,-4.23854 -0.32529,-1.98408 -0.58132,-4.16992 -0.56895,-4.85742 0.0124,-0.6875 0.0399,-2.0375 0.0612,-3 0.0213,-0.9625 -0.12229,-4.9 -0.31906,-8.75 -0.20596,-4.02962 0.15677,-8.28152 0.85481,-10.02004 0.66692,-1.66102 1.44131,-7.06102 1.72087,-12 0.46049,-8.13554 0.31082,-9.19154 -1.59165,-11.22996 -2.17913,-2.33485 -5.23145,-2.86504 -7.65626,-1.3299 -1.17528,0.74406 -1.0777,1.44413 0.59691,4.28238 1.24119,2.10366 1.7421,4.13475 1.31825,5.34521 -0.37599,1.07377 -0.7959,8.70231 -0.93315,16.95231 -0.13724,8.25 -0.43572,15.1875 -0.66329,15.41667 -0.22757,0.22916 -0.44539,-6.52084 -0.48405,-15 C 230.89106,242.9375 230.45224,235.1 229.95456,234 c -0.57915,-1.28006 -0.84454,3.57953 -0.73726,13.5 0.11952,11.05297 -0.16016,15.5 -0.97484,15.5 -0.62836,0 -1.72746,0.6533 -2.44246,1.45177 -1.12225,1.25327 -1.06072,1.27072 0.45,0.12756 2.20535,-1.66878 2.34601,0.1818 0.17857,2.34924 -3.63574,3.63574 -11.53885,-0.18091 -8.34454,-4.02982 0.98771,-1.19011 0.88086,-1.32251 -0.60663,-0.7517 -1.38325,0.5308 -1.6053,0.36076 -0.94949,-0.72711 0.73068,-1.21204 0.60828,-1.219 -0.83595,-0.0475 -1.83173,1.48582 -2.31969,2.63355 -0.69196,1.62756 0.55,-0.33992 1,-0.10398 1,0.52432 0,0.62829 -0.55965,0.9558 -1.24366,0.72779 -1.9068,-0.63559 -1.99176,-6.43305 -0.64856,-44.25211 1.42992,-40.26088 1.33422,-47.35412 -0.66878,-49.56741 -1.98556,-2.19401 -7.66009,-18.91406 -7.00156,-20.63015 0.29681,-0.77347 0.108,-1.13954 -0.41958,-0.81348 -0.52757,0.32606 -1.235,-0.66307 -1.57207,-2.19806 -0.33706,-1.535 -0.87389,-3.4659 -1.19295,-4.2909 -0.80459,-2.08044 -0.98403,-2.78505 -1.12784,-4.42857 -0.0687,-0.78572 -0.81988,-2.12345 -1.66918,-2.97275 -2.80493,-2.80494 -5.5616,-10.32902 -4.83907,-13.20782 0.47614,-1.8971 0.33744,-2.48058 -0.47091,-1.981 -0.73526,0.45442 -1.14348,-0.1192 -1.13925,-1.60084 0.006,-2.18182 0.11604,-2.14376 1.99341,0.69098 1.09275,1.65 1.98979,3.7875 1.99341,4.75 0.004,0.9625 0.34409,1.74968 0.75659,1.74929 0.81823,-7.7e-4 1.37011,-3.2722 1.60147,-9.49311 0.14313,-3.84853 0.32971,-4.05795 5.12881,-5.75657 2.73915,-0.96952 5.43915,-1.60735 6,-1.41741 0.56085,0.18993 2.49708,-0.26936 4.30275,-1.02065 4.62045,-1.92246 19.04064,-4.53856 20.39684,-3.70038 0.74063,0.45773 0.84878,0.24421 0.31432,-0.62058 -0.66988,-1.08388 3.46312,-1.20531 23.23296,-0.68256 13.22629,0.34972 27.24801,1.16436 31.15938,1.81031 6.94515,1.14696 10.38225,2.97948 8.16203,4.35165 C 298.47185,109.32641 298,109.14148 298,108.55902 298,107.97656 297.53417,107.5 296.96482,107.5 c -0.70185,0 -0.69052,0.64401 0.0352,2 0.5887,1.1 0.69079,2 0.22686,2 -0.46392,0 -0.75148,1.80232 -0.63901,4.00515 0.11247,2.20284 -0.19878,4.25439 -0.69168,4.55902 -0.49289,0.30463 -0.90985,-0.0352 -0.92658,-0.75515 -0.0181,-0.78042 -0.45574,-0.57781 -1.08368,0.50172 -0.5793,0.99591 -0.82871,2.39594 -0.55424,3.1112 0.27447,0.71525 -0.81287,3.90133 -2.41632,7.08018 -1.60346,3.17885 -2.91537,6.86787 -2.91537,8.19782 0,1.5768 -0.40272,2.1692 -1.15752,1.7027 -0.79309,-0.49015 -0.97998,-0.0365 -0.59362,1.44099 0.31014,1.186 0.15603,2.15637 -0.34248,2.15637 -0.49851,0 -0.90638,0.96005 -0.90638,2.13344 0,1.17339 -1.56683,5.2079 -3.48183,8.96556 -2.0987,4.11809 -3.22292,7.50683 -2.83006,8.5306 0.49151,1.28086 0.30263,1.48801 -0.76817,0.84249 -1.1318,-0.6823 -1.18608,-0.5634 -0.26751,0.58595 1.88083,2.35337 2.18792,11.57936 0.34757,10.44196 -0.62662,-0.38727 -1,1.75628 -1,5.74098 0,3.49746 -0.48921,6.84823 -1.08713,7.44615 -0.78285,0.78285 -0.78285,1.2752 0,1.75902 1.73726,1.07369 1.20203,3.82537 -1.35149,6.94819 -1.53325,1.87509 -2.92921,2.67849 -3.96404,2.28139 -1.04026,-0.39919 -1.59734,-0.0717 -1.59734,0.93899 0,0.85357 -0.5625,1.36466 -1.25,1.13575 -1.6775,-0.55854 -2.23395,-3.83334 -0.80176,-4.71848 1.47727,-0.91301 -2.4996,-11.9226 -4.59745,-12.72762 -0.97771,-0.37518 -1.27389,-1.41725 -0.90417,-3.18116 0.6007,-2.86591 -0.75861,-6.04545 -1.83793,-4.29907 -0.35272,0.57071 -0.19871,1.31121 0.34224,1.64553 0.54096,0.33434 0.71201,1.96561 0.38012,3.62506 -0.33189,1.65944 0.0992,6.2545 0.95785,10.21122 0.85871,3.95673 2.07907,10.56905 2.71191,14.69405 1.6399,10.68917 1.87702,11.34628 3.58329,9.9302 1.01563,-0.8429 1.4159,-0.85778 1.4159,-0.0526 0,0.61734 0.45,1.12244 1,1.12244 1.54685,0 1.18983,-1.41912 -0.92926,-3.6937 -1.75159,-1.8801 -1.81063,-2.47308 -0.6411,-6.43856 0.74825,-2.53705 1.97602,-4.50326 2.92927,-4.69106 1.33893,-0.2638 1.64178,0.56475 1.64483,4.5 0.002,3.00072 0.73363,6.02035 1.93533,7.99115 1.46168,2.39717 1.62123,3.28692 0.65586,3.65737 -0.8033,0.30826 -1.10715,1.6382 -0.82049,3.59133 0.4643,3.16345 -1.28527,6.50383 -2.88775,5.51344 C 271.39901,227.62857 271,226.56362 271,225.56343 c 0,-1.0002 -0.65367,-2.36104 -1.45261,-3.0241 -1.16396,-0.966 -1.8969,-0.79162 -3.68856,0.87756 -1.68153,1.56659 -1.85569,2.08311 -0.70238,2.08311 0.84347,0 2.24625,0.7875 3.1173,1.75 1.46532,1.61916 1.40928,1.75 -0.74952,1.75 -1.28329,0 -2.12466,-0.3375 -1.86972,-0.75 0.88307,-1.42884 -0.74763,-0.74116 -2.81936,1.18895 -1.89967,1.76981 -2.00711,2.53311 -1.23166,8.75 l 0.84956,6.81105 0.54863,-6.5 c 0.36416,-4.31447 0.74149,-5.65941 1.12223,-4 0.55377,2.41352 0.60047,2.38757 1.34985,-0.75 0.42693,-1.7875 1.18881,-3.25 1.69305,-3.25 1.65835,0 5.06028,3.82354 4.38052,4.92341 -0.36595,0.59212 -0.18881,1.07659 0.39365,1.07659 0.58246,0 1.05902,1.14293 1.05902,2.53984 0,1.39691 0.93012,4.36302 2.06693,6.59136 1.13682,2.22834 2.1842,5.02292 2.32751,6.21017 0.14331,1.18724 0.50622,2.83363 0.80646,3.65863 0.52262,1.43605 2.58467,11.42431 3.56936,17.28945 0.67653,4.0296 -2.11377,6.71055 -6.98426,6.71055 -2.14722,0 -3.66068,-0.39375 -3.36325,-0.875 0.29742,-0.48125 -0.57602,-0.875 -1.94099,-0.875 -2.06687,0 -2.48176,0.48063 -2.48176,2.875 0,1.58125 -0.49815,2.875 -1.10699,2.875 -0.60884,0 -0.839,0.69837 -0.51145,1.55194 0.34149,0.88992 0.17385,1.29132 -0.39301,0.94098 -0.5437,-0.33602 -0.98855,0.064 -0.98855,0.88905 0,3.06204 -6.5868,4.32517 -9.69865,1.85987 z M 257,288 c -0.68469,-0.825 -1.69489,-1.5 -2.24489,-1.5 -0.55783,0 -0.44954,0.66326 0.24489,1.5 0.68469,0.825 1.69489,1.5 2.24489,1.5 0.55783,0 0.44954,-0.66326 -0.24489,-1.5 z m 7.82646,-6.00687 c -0.29711,-0.29711 -1.31734,-0.24199 -2.26718,0.12249 -1.35704,0.52075 -1.44304,0.83819 -0.40149,1.4819 1.33022,0.82212 3.68156,-0.5915 2.66867,-1.60439 z M 264.68933,263.75 c -0.25153,-0.9625 -0.45733,-0.175 -0.45733,1.75 0,1.925 0.2058,2.7125 0.45733,1.75 0.25152,-0.9625 0.25152,-2.5375 0,-3.5 z m -17.96593,-20.5 c -0.22183,-1.7875 -0.40333,-0.325 -0.40333,3.25 0,3.575 0.1815,5.0375 0.40333,3.25 0.22182,-1.7875 0.22182,-4.7125 0,-6.5 z m 12.63826,-26.93653 c -0.73995,-2.85259 -2.05745,-11.74009 -2.92777,-19.75 -1.44474,-13.29651 -3.1502,-22.35187 -3.35494,-17.81347 -0.0913,2.02274 -1.64364,2.33492 -2.48639,0.5 -0.31575,-0.6875 -0.38563,-0.35 -0.15529,0.75 0.53195,2.54027 1.84413,13.91042 2.13501,18.5 0.3659,5.7734 2.95094,18.34219 4.26766,20.75 0.67674,1.2375 1.82368,2.25 2.54876,2.25 1.08763,0 1.0829,-0.90761 -0.027,-5.18653 z M 243.89521,199.6292 c -0.12621,-14.12066 -0.57911,-21.6043 -1.40032,-23.13874 -1.11736,-2.08782 -1.26977,-1.83995 -1.9188,3.12079 -1.10255,8.42708 -0.65686,24.88662 0.67391,24.88798 1.11728,10e-4 0.90706,3.78566 -0.25,4.50077 -0.55,0.33992 -1,1.96803 -1,3.61803 0,1.74536 0.41821,2.74153 1,2.38197 0.58342,-0.36058 1,0.65628 1,2.44098 0,1.68246 0.46839,3.05902 1.04088,3.05902 0.69387,0 0.97868,-6.95771 0.85433,-20.8708 z m -17.2514,-5.61504 C 225.73979,191.65832 224,193.14498 224,196.2733 c 0,2.45884 0.12108,2.53419 1.63674,1.01853 0.9243,-0.9243 1.36266,-2.35101 1.00707,-3.27767 z m 4.2859,-5.26416 C 230.89106,188.3375 230.47269,187.1 230,186 c -0.76156,-1.77225 -0.86743,-1.68684 -0.92972,0.75 -0.0386,1.5125 0.37972,2.75 0.92972,2.75 0.55,0 0.96837,-0.3375 0.92971,-0.75 z m -9.44224,-6.19294 c 0.39709,-1.80794 1.13635,-2.75491 1.91684,-2.45541 1.23291,0.47311 6.55376,-8.0415 5.56568,-8.9064 -0.25849,-0.22628 -2.12589,-0.20473 -4.14977,0.0479 -2.63178,0.32848 -3.52691,0.85766 -3.14301,1.85808 0.29522,0.76933 0.14819,1.39879 -0.32674,1.39879 -0.47493,0 -1.39206,1.6875 -2.03807,3.75 -0.646,2.0625 -1.47871,4.5375 -1.85046,5.5 -0.50733,1.3135 -0.17019,1.75 1.35162,1.75 1.43098,0 2.21771,-0.86588 2.67391,-2.94294 z m 49.16752,-3.8858 C 269.74474,177.66545 269,175.65457 269,174.20264 c 0,-1.86035 -0.4162,-2.48016 -1.40947,-2.09901 -2.4705,0.94802 0.30031,8.39637 3.12347,8.39637 1.43978,0 1.43401,-0.17897 -0.059,-1.82874 z m -51.43461,-3.21942 c 0.39369,-2.68241 0.27091,-2.8717 -1.02325,-1.57754 -0.80884,0.80884 -1.19821,2.18051 -0.86526,3.04816 0.89271,2.32637 1.38781,1.94082 1.88851,-1.47062 z M 278,172.15369 c 0,-0.12555 -1.4625,-0.28705 -3.25,-0.3589 -2.93944,-0.11814 -3.01111,-0.058 -0.75,0.62977 2.14032,0.65099 4,0.52506 4,-0.27087 z M 251.72568,143.25 c -0.0291,-3.50719 -0.25428,-4.42202 -0.67833,-2.75581 -0.59649,2.34376 -0.73769,2.23699 -2.34106,-1.77023 C 247.76783,136.37852 247,134.06582 247,133.58462 c 0,-0.48119 2.8125,0.0253 6.25,1.12549 3.4375,1.10022 6.99142,2.21847 7.8976,2.485 1.41691,0.41674 1.61107,-0.33309 1.3867,-5.35526 -0.1435,-3.21192 -0.32242,-7.75616 -0.3976,-10.09832 -0.13035,-4.06052 -0.23575,-4.19998 -2.26735,-3 -1.70215,1.00537 -2.2217,1.00708 -2.58334,0.008 -0.24897,-0.68753 -0.91332,-1.25003 -1.47633,-1.25003 -0.56301,0 -0.78086,0.63272 -0.48411,1.40604 0.52743,1.37445 -2.15359,4.59396 -3.82557,4.59396 -0.46339,0 -1.66545,0.74474 -2.67126,1.65499 -2.59471,2.34817 -2.32219,0.10127 0.7465,-6.15499 1.34888,-2.75 2.23538,-4.2125 1.97002,-3.25 -0.88945,3.22605 0.92105,1.77585 5.31864,-4.2602 3.93643,-5.40308 7.1361,-7.64039 7.1361,-4.9898 0,0.55 0.675,1 1.5,1 1.73978,0 1.99213,3.57541 0.52475,7.4349 -0.75942,1.99743 -0.665,2.5651 0.42668,2.5651 0.77105,0 1.64242,-0.7875 1.93637,-1.75 0.56683,-1.85605 -0.19159,4.86326 -0.9312,8.25 -0.24022,1.1 0.21347,0.65 1.00821,-1 l 1.44498,-3 0.0805,4 c 0.076,3.77255 2.87784,10.80175 2.98955,7.5 0.0451,-1.33333 0.15845,-1.33333 1.02012,0 1.41054,2.18265 1.21396,3.29608 -0.46797,2.65066 -0.80739,-0.30982 -1.73395,-0.13297 -2.05902,0.39301 -0.32507,0.52598 0.33551,0.95633 1.46797,0.95633 1.13246,0 2.05902,0.4132 2.05902,0.91821 0,0.50502 0.25608,1.74252 0.56907,2.75 0.31299,1.00749 -0.12107,0.70679 -0.96456,-0.66821 l -1.53364,-2.5 -0.0354,3.19098 c -0.0195,1.75504 0.36358,3.43759 0.85126,3.73899 1.56925,0.96986 3.35624,-2.32141 2.91025,-5.36011 -0.2477,-1.68771 0.005,-2.86752 0.59033,-2.75916 1.44136,0.2667 2.46574,-8.93419 1.59328,-14.3107 -0.60695,-3.74031 -0.77121,-3.99354 -0.97301,-1.5 -0.1915,2.36636 -0.42498,1.94393 -1.10542,-2 -0.47445,-2.75 -0.6397,-5.61708 -0.36723,-6.37128 0.27248,-0.75421 -0.65959,-2.44171 -2.07126,-3.75 -2.19522,-2.03447 -3.5808,-2.37872 -9.57417,-2.37872 -4.11109,0 -6.76774,0.38793 -6.42745,0.93854 0.31903,0.5162 -0.21691,1.40251 -1.19098,1.96959 -0.97407,0.56708 -1.46758,1.04474 -1.0967,1.06146 0.37088,0.0167 -0.28588,1.10843 -1.45949,2.42601 -1.58426,1.77863 -2.65934,2.1963 -4.17433,1.62175 -1.15362,-0.4375 -5.77408,-0.0661 -10.63048,0.8544 L 231.32005,115 l 3.96029,5.79636 c 2.17815,3.18799 3.67108,6.08555 3.31761,6.43902 -0.35346,0.35347 -2.9951,-0.39116 -5.87031,-1.65473 -9.66416,-4.24712 -9.28472,-4.4864 -8.88042,5.59996 0.19443,4.85066 0.64626,9.35067 1.00407,10.00002 0.44437,0.80642 2.54517,-0.0652 6.62817,-2.75 3.28769,-2.16185 6.36772,-3.93063 6.84453,-3.93063 0.47681,0 -0.52603,2.46818 -2.22853,5.48485 -1.7025,3.01667 -3.09546,5.92478 -3.09546,6.46248 0,0.54258 4.11618,1.12446 9.25,1.3076 5.0875,0.18149 9.31058,0.42338 9.38461,0.53753 0.074,0.11415 0.11502,-2.15496 0.0911,-5.04246 z m 18.25901,-12.5 c 0.0166,-2.43836 -0.96227,-2.87242 -2.65665,-1.17804 -0.76261,0.76261 -0.75164,1.75069 0.038,3.42393 1.24788,2.64422 2.59322,1.49038 2.61865,-2.24589 z M 267,127.5 c 0,-0.55 -0.1882,-1 -0.41821,-1 -0.23002,0 -1.22778,-0.31066 -2.21724,-0.69035 -1.6069,-0.61663 -1.64234,-0.51389 -0.33179,0.96196 C 265.70337,128.65295 267,128.97124 267,127.5 z m -54,-15.39301 c 0,-0.76616 -0.62407,-1.63249 -1.38682,-1.92518 -0.97287,-0.37333 -1.23654,0.0425 -0.88336,1.39301 0.57901,2.21416 2.27018,2.6106 2.27018,0.53217 z M 291,111 c 0,-1.68627 0.55333,-2.5 1.7,-2.5 3.00824,0 -0.0132,-1.71117 -4.12278,-2.33493 -3.73356,-0.56669 -3.81797,-0.522 -1.75,0.92647 1.22227,0.8561 2.17278,2.59072 2.17278,3.96516 0,1.34382 0.45,2.4433 1,2.4433 0.55,0 1,-1.125 1,-2.5 z m -35.57003,-6.61331 C 254.42114,102.75437 253,103.47708 253,105.62245 c 0,1.76625 0.24988,1.91506 1.48899,0.88669 0.81894,-0.67966 1.24239,-1.63477 0.94098,-2.12245 z"
       style="fill:#493636" />
    <path
       inkscape:connector-curvature="0"
       id="path6408"
       d="m 257.31532,289.85134 c 0.80137,-0.80136 -1.14665,-3.35134 -2.56021,-3.35134 -0.55,0 -0.3824,0.74867 0.37244,1.66372 1.24054,1.50381 1.1627,1.55197 -0.80983,0.50106 -2.62202,-1.39695 -3.33853,-3.41169 -3.89253,-10.94543 -0.23132,-3.14564 -0.8463,-7.29435 -1.36662,-9.21935 l -0.94605,-3.5 0.11593,4.5 c 0.1213,4.70898 -2.42606,11 -4.45413,11 -0.88483,0 -0.8785,-0.29582 0.0257,-1.2 1.48358,-1.48358 1.54987,-2.8 0.14098,-2.8 -0.58246,0 -0.79993,0.41921 -0.48327,0.93158 0.31666,0.51237 -0.44428,1.69274 -1.69098,2.62304 -1.51339,1.12931 -1.68513,1.49483 -0.51673,1.09981 0.9625,-0.32541 1.75,-0.12862 1.75,0.43732 0,0.57755 -1.64517,0.89282 -3.75,0.71862 -2.52873,-0.20929 -3.75,-0.79888 -3.75,-1.81037 0,-0.825 0.72794,-1.38145 1.61766,-1.23656 1.41788,0.23092 1.63425,-1.40359 1.75205,-13.23579 0.0739,-7.42457 0.57456,-16.54312 1.11254,-20.26344 1.35815,-9.39219 1.25454,-18.56415 -0.23225,-20.55961 -1.77204,-2.3783 -6.82786,-3.05796 -9.16938,-1.23265 -1.73077,1.34921 -1.77028,1.66977 -0.402,3.26215 2.12031,2.46758 2.87264,4.96875 2.1001,6.98194 -0.54135,1.41075 -0.88977,1.18837 -1.95847,-1.25 -1.12833,-2.57441 -1.28282,-0.78743 -1.17011,13.53396 0.0891,11.32103 -0.21226,16.5 -0.96014,16.5 -0.5995,0 -1.675,0.6533 -2.39,1.45177 -1.12225,1.25327 -1.06073,1.27072 0.45,0.12756 2.32274,-1.75761 2.25636,0.15244 -0.0787,2.26568 -2.04037,1.84651 -5.71761,2.19802 -6.68134,0.63868 -0.34546,-0.55897 -0.97028,-0.80484 -1.38848,-0.54638 -0.64447,0.3983 -0.69353,-2.88299 -0.0663,-4.43731 0.11096,-0.275 0.11632,-0.95 0.0119,-1.5 -0.10442,-0.55 0.40103,-0.41876 1.12322,0.29164 1.08329,1.06561 1.05204,1.45667 -0.17857,2.23469 -0.82041,0.51867 -0.98424,0.94994 -0.36409,0.95836 0.62016,0.008 1.68776,-0.65969 2.37245,-1.48469 0.8601,-1.03636 0.89795,-1.5 0.12244,-1.5 C 220.45881,261.5 220,259.6606 220,257 c 0,-5.40716 -2.37755,-6.27292 -3.43275,-1.25 l -0.68276,3.25 -1.41046,-4 c -1.12806,-3.19913 -1.29996,-8.80522 -0.85858,-28 0.30354,-13.2 0.79796,-24.675 1.09871,-25.5 0.30076,-0.825 0.62253,-5.66192 0.71505,-10.74871 0.0925,-5.0868 0.5963,-9.67817 1.11951,-10.20306 0.60196,-0.60389 0.82549,1.04806 0.60873,4.49872 -0.1884,2.99918 0.0366,5.4451 0.5,5.43538 0.4634,-0.01 1.90279,-2.25971 3.19864,-5 1.29585,-2.74028 2.90001,-4.98233 3.56479,-4.98233 1.27901,0 4.57912,-6.10017 4.57912,-8.46438 0,-0.76808 1.0125,-1.54032 2.25,-1.71607 2.65704,-0.37736 3.02999,-3.14195 0.48984,-3.63114 -0.96809,-0.18643 -3.2712,0.59491 -5.11803,1.73631 -1.84683,1.1414 -4.27976,2.07528 -5.40651,2.07528 -1.12675,0 -2.24953,0.5625 -2.49506,1.25 -0.24554,0.6875 -0.80872,0.91182 -1.25151,0.49849 -0.44279,-0.41333 -0.19876,-1.88441 0.54229,-3.26908 0.74105,-1.38466 1.60423,-2.12465 1.91817,-1.64442 0.31395,0.48023 1.47081,-0.0251 2.57081,-1.12308 2,-1.99623 2,-1.99623 0,-1.51261 -1.80415,0.43626 -1.96566,0.0585 -1.64931,-3.85784 0.22634,-2.80194 -0.056,-4.34146 -0.79607,-4.34146 -1.6294,0 -1.03383,-9.07075 0.63769,-9.71217 1.78804,-0.68613 1.6534,-2.28783 -0.19231,-2.28783 -1.69817,0 -2.01136,-1.56593 -0.5,-2.5 0.55,-0.33992 1.03163,-1.82898 1.07028,-3.30902 0.0628,-2.40282 0.16232,-2.47681 0.92972,-0.69098 0.60144,1.39964 0.90423,1.54973 1.00866,0.5 0.0821,-0.825 0.59535,-0.28008 1.1406,1.21094 0.85299,2.33253 1.4003,2.62915 3.92105,2.125 1.91993,-0.38399 2.92969,-0.17785 2.92969,0.59808 0,0.65121 0.44485,0.90908 0.98855,0.57306 0.56686,-0.35034 0.7345,0.0511 0.39301,0.94098 -0.32755,0.85357 -0.92239,1.55194 -1.32188,1.55194 -0.39949,0 -0.72635,0.62417 -0.72635,1.38705 0,0.76288 0.7125,1.27068 1.58334,1.12843 0.87083,-0.14225 2.08261,0.13621 2.69283,0.61879 0.61023,0.48258 3.64751,0.98729 6.74952,1.12157 3.10202,0.13429 5.64024,0.58166 5.6405,0.99416 2.6e-4,0.4125 -0.44952,0.75 -0.99952,0.75 -0.55,0 -1,0.47716 -1,1.06036 0,0.61383 1.57921,0.92967 3.75,0.75 3.26826,-0.27049 4.00693,-0.83225 5.75,-4.37289 1.1,-2.23439 3.29444,-5.38439 4.87654,-7 1.58209,-1.61561 2.57277,-2.38263 2.20149,-1.70448 -0.37127,0.67814 -0.37813,2.81564 -0.0153,4.75 0.47808,2.54837 1.17998,3.51701 2.54851,3.51701 2.1437,0 2.16362,-0.11017 0.9584,-5.30215 -0.61732,-2.65939 -0.5538,-3.69255 0.21136,-3.4375 1.3164,0.4388 4.44182,-2.35228 4.21081,-3.76035 -0.0902,-0.55 0.0247,-0.6625 0.25537,-0.25 0.23069,0.4125 0.96051,0.75 1.62182,0.75 0.66131,0 1.20238,0.87507 1.20238,1.9446 0,1.36998 -0.34529,1.65804 -1.16852,0.97482 -1.80763,-1.5002 -2.42219,4.97137 -0.83858,8.83058 1.3751,3.35109 3.43567,4.40067 3.43567,1.75 0,-0.825 0.41762,-1.5 0.92804,-1.5 0.51043,0 1.23728,-2.475 1.61523,-5.5 0.37795,-3.025 1.00124,-5.5 1.38509,-5.5 0.38386,0 0.80706,-2.10852 0.94046,-4.68559 0.1334,-2.57707 0.48013,-5.07 0.7705,-5.53983 0.87507,-1.41589 -1.74276,-14.82868 -2.77024,-14.19367 -0.56007,0.34614 -0.69229,-0.43712 -0.3225,-1.91046 0.44346,-1.76692 0.04,-3.08388 -1.37978,-4.50365 -1.72167,-1.72167 -3.82789,-2.09475 -14.83666,-2.62806 -7.27136,-0.35226 -14.77981,-0.19651 -17.33014,0.35948 -4.32304,0.94245 -4.35464,0.97474 -0.80364,0.8211 2.033,-0.088 4.0205,0.16421 4.41667,0.56038 0.39617,0.39616 0.14716,0.7203 -0.55335,0.7203 -0.7213,0 -1.02403,0.65052 -0.69805,1.5 0.37313,0.97237 -0.0289,1.5053 -1.14302,1.51506 -1.8608,0.0163 -7.07374,1.81807 -11.47284,3.9654 -2.91736,1.42406 -5.21644,0.5613 -2.71681,-1.01952 0.99621,-0.63002 1.06756,-0.93526 0.22104,-0.94563 -0.6875,-0.008 -1.24311,-0.80281 -1.23469,-1.76531 0.0131,-1.49555 0.15626,-1.5319 0.98469,-0.25 0.64625,1 0.97448,1.08333 0.98469,0.25 0.0194,-1.58657 2.71701,-1.64489 3.24195,-0.0701 0.22621,0.67864 1.13821,0.89406 2.14671,0.50706 0.96438,-0.37006 1.47333,-1.12602 1.13101,-1.67991 -0.3436,-0.55596 0.41191,-1.05902 1.68662,-1.12306 1.69417,-0.0851 1.84303,-0.23778 0.55902,-0.57333 -0.9625,-0.25152 -1.75089,-0.76182 -1.75199,-1.13399 -0.001,-0.37218 -1.35109,-0.77106 -3,-0.88642 -3.02113,-0.21136 -4.06504,1.05301 -1.74801,2.11718 0.6875,0.31575 0.33259,0.35311 -0.78868,0.083 -1.12128,-0.2701 -4.54668,0.16216 -7.612,0.96058 -5.96686,1.55416 -13.44914,2.28247 -14.33617,1.39545 -0.29773,-0.29773 0.78687,-0.57909 2.41021,-0.62524 1.62334,-0.0461 3.99218,-0.64898 5.26409,-1.3396 2.45438,-1.3327 11.47235,-3.0965 16.06255,-3.14164 1.5125,-0.0149 2.75,-0.45596 2.75,-0.9802 0,-1.026 41.8819,-0.31808 50.25,0.84936 6.1973,0.8646 6.1973,2.52062 0,1.80105 l -4.75,-0.55152 2.75,1.80227 c 1.78336,1.16876 2.75538,2.68749 2.76531,4.32065 0.008,1.38511 0.45843,3.19339 1,4.01839 0.87528,1.33333 1.0941,1.33333 1.96938,0 0.54158,-0.825 0.99158,-2.08906 1,-2.80902 0.009,-0.80269 0.49881,-1.00202 1.26531,-0.51531 0.6875,0.43653 1.5875,0.80059 2,0.80901 1.28842,0.0263 1.11081,0.88774 -1.06059,5.14403 -1.15847,2.2708 -2.34043,5.41983 -2.62658,6.99786 -0.28616,1.57803 -1.17712,3.34944 -1.97993,3.93646 -0.8028,0.58703 -1.42074,2.43564 -1.37319,4.10803 0.0917,3.22425 -0.89622,5.63457 -2.02881,4.95001 -0.37449,-0.22635 -0.79315,1.84398 -0.93034,4.60075 -0.17922,3.6013 -1.37562,7.12485 -4.25,12.51677 C 277.06434,162.62239 276.03116,166.5 278,166.5 c 0.55,0 0.9478,1.9125 0.884,4.25 -0.0638,2.3375 -0.3218,3.4625 -0.57333,2.5 -0.25152,-0.9625 -0.98682,-1.77077 -1.63399,-1.79616 -10.91542,-0.42816 -19.78788,-0.50931 -20.11322,-0.18397 -0.22602,0.22602 0.19705,2.13418 0.94015,4.24035 0.7431,2.10617 1.18223,4.65299 0.97585,5.65959 -0.20638,1.00661 -0.65745,4.00893 -1.00237,6.67184 -0.34492,2.66291 -0.84388,4.62489 -1.10881,4.35996 -1.13357,-1.13357 -2.139,-17.25005 -1.15111,-18.45161 0.71784,-0.8731 0.67562,-1.25 -0.14004,-1.25 -0.79367,0 -0.95676,-1.12471 -0.5091,-3.51096 0.41465,-2.21027 0.20698,-4.05521 -0.56056,-4.98004 -1.32498,-1.59651 -5.75383,-1.71366 -7.75747,-0.20519 -1.90226,1.43214 -1.51306,7.49745 0.62861,9.79627 2.12516,2.28109 3.08726,6.86733 3.1257,14.89992 0.0145,3.025 0.37468,4.95174 0.80047,4.28164 0.42578,-0.6701 0.87226,2.9299 0.99217,8 0.11992,5.0701 0.60852,11.69336 1.08578,14.71836 0.85022,5.38883 0.87332,5.41915 1.14271,1.5 l 0.27495,-4 0.5998,4.46 c 0.4974,3.69849 1.02495,4.5595 3.08973,5.04271 1.67985,0.39312 2.08652,0.83201 1.25,1.34901 -1.66121,1.02669 -1.57694,2.64828 0.13764,2.64828 0.75765,0 1.93775,0.675 2.62244,1.5 0.99514,1.19908 0.99075,1.5 -0.0219,1.5 -0.96326,0 -1.12707,1.84731 -0.68368,7.70993 0.36294,4.79886 0.23935,7.1587 -0.32732,6.25 -1.0086,-1.61736 -0.46663,3.80788 1.05292,10.54007 0.49657,2.2 1.39387,7.16173 1.99399,11.02606 0.60013,3.86433 1.55537,7.68933 2.12275,8.5 0.74977,1.07125 0.84948,0.51771 0.36496,-2.02606 -2.91623,-15.31047 -4.44766,-34.70265 -2.65291,-33.59344 0.62299,0.38503 1.32017,-0.79041 1.71402,-2.88982 0.36514,-1.94635 1.0403,-3.77146 1.50035,-4.05579 0.99475,-0.61479 2.93681,2.72121 2.93681,5.04474 0,0.90044 0.675,2.31217 1.5,3.13717 0.825,0.825 1.5,2.36785 1.5,3.42857 0,1.06071 0.34044,1.92857 0.75652,1.92857 0.83166,0 3.24348,7.06248 3.24348,9.49782 0,0.84112 0.39369,2.31071 0.87487,3.26575 1.03104,2.0464 4.14567,15.05504 4.13353,17.26419 -0.0134,2.43219 -3.74343,4.97224 -7.30172,4.97224 -2.833,0 -3.30042,-0.36194 -3.49441,-2.70583 -0.12316,-1.48821 -0.73082,-3.17571 -1.35034,-3.75 -0.82551,-0.76524 -0.96657,-0.18786 -0.52804,2.16145 0.47683,2.55458 0.3006,3.09135 -0.86777,2.64301 -1.31516,-0.50468 -2.01008,1.2063 -1.58454,3.90137 0.0651,0.4125 -0.33158,0.75 -0.88158,0.75 -0.55,0 -1,-0.40787 -1,-0.90638 0,-0.49851 -0.9,-0.67103 -2,-0.38337 -1.1,0.28766 -2,0.0928 -2,-0.4331 0,-0.52587 -1.2375,-1.53735 -2.75,-2.24775 -1.58593,-0.74488 -2.22087,-1.48305 -1.5,-1.74384 0.71026,-0.25696 1.25,-2.14341 1.25,-4.36889 0,-3.25 -0.34043,-3.91667 -2,-3.91667 -1.60976,0 -2,0.66667 -2,3.41667 0,1.87916 -0.5625,3.64364 -1.25,3.92105 -0.72518,0.29262 -0.49048,0.53753 0.55902,0.58333 0.99496,0.0434 1.52636,0.53629 1.1809,1.09526 -0.34547,0.55897 -1.04702,0.75742 -1.55902,0.44098 C 252.41891,277.64086 252,278.11008 252,279 c 0,0.88992 0.42742,1.35387 0.94983,1.03101 0.5224,-0.32287 1.46886,0.38281 2.10324,1.56816 0.89854,1.67893 0.86467,2.33364 -0.15327,2.96276 -0.71869,0.44417 1.28468,0.59513 4.45193,0.33547 5.44634,-0.44651 5.70255,-0.36734 4.72456,1.46006 -0.56874,1.06269 -2.47277,2.43371 -4.23118,3.04669 -1.75841,0.61299 -2.89682,0.81422 -2.52979,0.44719 z M 222.77878,247.5 c -0.0372,-2.83144 -0.19477,-2.54492 -0.82479,1.5 -0.42833,2.75 -0.75807,6.575 -0.73277,8.5 0.0372,2.83144 0.19477,2.54492 0.82479,-1.5 0.42833,-2.75 0.75807,-6.575 0.73277,-8.5 z m 24.0912,-3.51177 c -0.14657,-4.68147 -0.66404,-9.06897 -1.14993,-9.75 -0.5246,-0.73528 -0.65006,1.60504 -0.30885,5.76177 0.31602,3.85 0.57778,8.2375 0.58169,9.75 0.004,1.5125 0.26282,2.75 0.57535,2.75 0.31253,0 0.44831,-3.83029 0.30174,-8.51177 z m 7.57295,-8.70756 0.69332,-5.71934 -3.31813,-1.40062 c -3.96855,-1.67517 -6.04648,-0.4605 -3.52526,2.06072 1.60952,1.60952 1.71076,1.59482 1.77053,-0.25714 0.14292,-4.42903 2.27231,3.45008 2.82483,10.45238 0.21344,2.70504 0.86518,0.55201 1.55471,-5.136 z m -9.8593,-35.3806 c -0.24758,-12.42995 -0.70518,-22.85495 -1.01689,-23.16666 -1.30015,-1.30015 -0.54093,-13.40207 0.93326,-14.87627 2.189,-2.18899 1.88282,-3.63239 -0.5,-2.35714 -1.1,0.5887 -2,1.50453 -2,2.03518 0,0.53065 -1.125,0.96482 -2.5,0.96482 -2.40693,0 -3.48183,1.48008 -1.57353,2.16667 1.2286,0.44203 1.55997,14.37412 0.57281,24.08333 -0.57045,5.61073 -0.47208,7.75 0.35638,7.75 0.62939,0 1.14434,1.37656 1.14434,3.05902 0,1.7847 -0.41658,2.80156 -1,2.44098 -0.55,-0.33992 -1,0.0835 -1,0.94098 0,0.85746 0.45,1.55902 1,1.55902 0.55,0 1,0.92656 1,2.05902 0,1.13246 -0.45,1.7809 -1,1.44098 -0.62658,-0.38725 -1,1.75402 -1,5.73419 0,6.28123 0.0363,6.36413 3.25,7.4184 1.7875,0.5864 3.3701,1.12946 3.51688,1.2068 0.14679,0.0773 0.0643,-10.02936 -0.18325,-22.45932 z M 240.27236,168.5 c 0,-2.475 0.19502,-3.4875 0.43337,-2.25 0.23836,1.2375 0.23836,3.2625 0,4.5 -0.23835,1.2375 -0.43337,0.225 -0.43337,-2.25 z m -14.79831,48.75 C 226.84747,210.88295 226.61982,205 225,205 c -1.11881,0 -1.52768,1.27063 -1.60891,5 -0.0599,2.75 -0.44618,6.2375 -0.8584,7.75 -0.57449,2.10786 -0.40044,2.75 0.7454,2.75 0.87609,0 1.78511,-1.34534 2.19596,-3.25 z m -0.56496,-14.5 c 1.004,-0.9625 2.12209,-3.39228 2.48465,-5.39952 0.36255,-2.00723 1.32228,-4.19983 2.13272,-4.87244 0.81045,-0.67261 1.50517,-1.95533 1.54382,-2.85048 0.0546,-1.26401 0.2403,-1.19317 0.83139,0.31716 0.53844,1.37576 1.12809,-0.33018 2.01546,-5.83093 1.32878,-8.23709 0.93773,-10.5841 -1.0402,-6.24302 -0.65888,1.44608 -1.60605,2.62923 -2.10483,2.62923 -0.49878,0 -0.65571,1.0125 -0.34872,2.25 0.30699,1.2375 0.29888,1.6847 -0.018,0.99377 C 229.51422,181.80084 228,183.32569 228,186.16601 c 0,1.89192 -0.39959,2.39463 -1.55194,1.95243 -0.94059,-0.36094 -1.29592,-0.1813 -0.90204,0.45603 0.35745,0.57836 0.008,1.8107 -0.77554,2.73854 -1.4919,1.76565 -3.77048,8.74737 -3.77048,11.55301 0,2.12657 1.61995,2.07849 3.90909,-0.11602 z m 31.79664,-20.5 c -0.23835,-1.2375 -0.43337,-0.225 -0.43337,2.25 0,2.475 0.19502,3.4875 0.43337,2.25 0.23836,-1.2375 0.23836,-3.2625 0,-4.5 z m 14.93021,-15.43277 c -2.32674,-1.2191 -2.88457,-1.21146 -4.15292,0.0569 -1.79322,1.79322 -0.44808,2.42113 3.83881,1.79195 l 3.00187,-0.44058 -2.68776,-1.40827 z m -6.37296,-4.41959 c -0.3221,-1.23172 0.0273,-2.46775 0.84362,-2.98469 1.11359,-0.70514 1.04197,-0.8854 -0.3566,-0.89764 -1.74664,-0.0153 -2.53697,3.86439 -1.08333,5.31802 1.0686,1.06861 1.18065,0.79884 0.59631,-1.43569 z M 237,157.5 c 0,-0.55 -0.675,-1 -1.5,-1 -0.825,0 -1.5,0.45 -1.5,1 0,0.55 0.675,1 1.5,1 0.825,0 1.5,-0.45 1.5,-1 z m -12.4843,-12.92849 c -0.69938,-3.18429 -1.87882,-3.91102 -3.11119,-1.917 -0.44465,0.71945 -0.27404,0.88289 0.45273,0.43372 0.75777,-0.46833 1.38347,0.36533 1.78645,2.38022 0.34111,1.70554 0.82865,2.89255 1.08341,2.63778 0.25477,-0.25477 0.15964,-1.8454 -0.2114,-3.53472 z M 231.27236,240.5 c 0,-2.475 0.19502,-3.4875 0.43337,-2.25 0.23836,1.2375 0.23836,3.2625 0,4.5 -0.23835,1.2375 -0.43337,0.225 -0.43337,-2.25 z m 29.15898,-25 c -0.37937,-3.85 -1.01733,-7 -1.41769,-7 -0.40037,0 -0.74062,-2.3625 -0.75613,-5.25 -0.0155,-2.8875 -0.13308,-5.7 -0.26128,-6.25 -0.3904,-1.67497 -0.0257,-7.86282 0.43617,-7.40092 1.20842,1.20842 4.46608,17.42808 4.95105,24.65092 0.44917,6.68974 0.28762,8.25 -0.85421,8.25 -1.01106,0 -1.60265,-1.97394 -2.09791,-7 z M 269.8,195.3 c 1.73964,-1.73964 1.54941,-5.14806 -0.24881,-4.45802 -1.9904,0.76379 -2.95137,-2.72833 -1.42386,-5.17426 1.20417,-1.92819 1.24913,-1.9254 3.01427,0.18745 1.78573,2.13749 1.79198,2.13199 1.82513,-1.60517 0.0242,-2.72417 0.46203,-3.75 1.60066,-3.75 1.17822,0 1.38349,0.55865 0.82675,2.25 -0.40735,1.2375 -0.79763,4.28478 -0.86729,6.77172 -0.15322,5.47036 -0.9713,6.97828 -3.78587,6.97828 -1.66521,0 -1.87431,-0.26667 -0.94098,-1.2 z m 2.27389,-18.21097 c -0.80813,-0.97374 -0.8433,-1.61351 -0.1135,-2.06455 1.59335,-0.98474 5.03961,0.41227 5.03961,2.04291 0,1.84376 -3.40148,1.85871 -4.92611,0.0216 z M 215.116,173.70951 c -0.0638,-0.70977 -1.08672,-2.60346 -2.27315,-4.20819 -1.8861,-2.5511 -1.98034,-3.13554 -0.75,-4.65147 0.77393,-0.95357 0.88127,-1.41846 0.23852,-1.03308 -0.74807,0.44853 -1.40644,-0.38207 -1.82945,-2.30804 -0.36346,-1.6548 -1.05773,-3.00873 -1.54283,-3.00873 -1.32734,0 -3.26529,-7.94767 -3.06366,-12.56432 0.0976,-2.23537 -0.29113,-5.16037 -0.86389,-6.5 -0.92574,-2.16518 -0.98371,-2.04698 -0.52196,1.06432 0.47882,3.22636 0.36094,3.12278 -1.50779,-1.32491 -1.11498,-2.6537 -1.71012,-5.3537 -1.32255,-6 0.4703,-0.78426 0.1861,-0.75528 -0.8545,0.0871 -1.33951,1.08442 -1.83834,0.61732 -3.54076,-3.31552 -1.91378,-4.42111 -2.05009,-11.2627 -0.16514,-8.28867 0.46779,0.73807 0.85743,2.08131 0.86585,2.98496 0.0267,2.86465 2.50727,2.84527 2.60208,-0.0203 0.23536,-7.11403 0.94671,-10.39024 2.37521,-10.93937 1.14583,-0.44047 0.90052,-0.7688 -0.96198,-1.28759 -2.45577,-0.68404 -2.45903,-0.69812 -0.18426,-0.79604 1.27366,-0.0548 3.21492,-0.58091 4.31392,-1.16907 2.35062,-1.25802 5.06854,0.38931 4.23334,2.56581 -0.63221,1.6475 2.58414,3.50358 6.07126,3.50358 2.3267,0 2.56574,0.37267 2.56574,4 0,2.83351 -0.42422,4 -1.45469,4 -1.90963,0 -3.30142,6.91467 -1.60306,7.96431 0.92515,0.57178 0.85925,1.575 -0.28306,4.30893 -0.81894,1.96 -1.22728,3.82534 -0.90742,4.1452 0.31986,0.31986 0.0566,0.58156 -0.5851,0.58156 -1.56547,0 -1.49575,2.72257 0.0833,3.25404 0.97451,0.328 0.94752,0.78715 -0.12245,2.08334 -0.75484,0.91444 -0.92485,1.66262 -0.3778,1.66262 0.54705,0 1.28246,1.8 1.63426,4 0.41387,2.58824 1.16487,4 2.12781,4 2.03928,0 2.08595,7.83338 0.0513,8.61414 -0.79027,0.30326 -1.19213,1.18914 -0.89301,1.96862 0.34011,0.88631 -0.10404,1.41724 -1.18559,1.41724 -1.39846,0 -1.49882,0.27787 -0.52441,1.45196 0.66276,0.79858 0.99506,2.26108 0.73845,3.25 -0.25662,0.98892 -0.51878,1.21732 -0.58258,0.50755 z M 199.5,129.5 c -0.37544,-1.1829 -0.90761,-1.92572 -1.18261,-1.65072 -0.275,0.275 -0.19283,1.46782 0.18261,2.65072 0.37544,1.1829 0.90761,1.92572 1.18261,1.65072 0.275,-0.275 0.19283,-1.46782 -0.18261,-2.65072 z m 52.8901,11.41813 c -0.82506,-3.2873 -0.117,-3.84587 3.2974,-2.60124 1.54687,0.56387 2.25,1.06074 1.5625,1.10416 -0.6875,0.0434 -1.25,0.7058 -1.25,1.47196 0,2.66054 -2.94331,2.68102 -3.6099,0.0251 z M 219,128.05902 c 0,-1.95746 0.49878,-3.55902 1.10841,-3.55902 0.67553,0 0.86936,-0.95242 0.49633,-2.43872 -0.74405,-2.96453 0.65257,-4.02913 3.37459,-2.57234 1.12943,0.60445 2.02067,0.67266 2.02067,0.15465 0,-0.50972 -1.125,-1.20913 -2.5,-1.55423 -1.375,-0.34511 -2.5,-1.06889 -2.5,-1.60841 0,-0.53952 -1.77344,-0.98095 -3.94098,-0.98095 -2.16754,0 -4.16723,-0.36608 -4.44376,-0.8135 -0.27653,-0.44743 1.71365,-0.52917 4.42262,-0.18164 C 222.45271,115.19952 224,114.37613 224,110.8 c 0,-1.67938 0.57415,-2.3 2.12781,-2.3 1.92238,0 2.06605,0.38618 1.48818,4 -0.39218,2.45258 -0.2482,4 0.37219,4 0.5565,0 1.01182,0.70156 1.01182,1.55902 0,0.87585 0.48033,1.26215 1.09613,0.88157 0.68294,-0.42208 0.95381,0.0269 0.71857,1.19098 -0.31198,1.54388 -1.12914,1.81118 -4.70434,1.53884 -2.73441,-0.2083 -4.09694,0.0423 -3.70226,0.6809 0.34349,0.55577 0.16718,1.29314 -0.39179,1.63861 C 221.45734,124.33538 221,125.91492 221,127.5 c 0,1.58508 -0.45,3.16008 -1,3.5 -0.59512,0.3678 -1,-0.82295 -1,-2.94098 z M 266,120.5 c 0,-1.86667 0.26667,-2.13333 1.2,-1.2 0.93333,0.93333 0.93333,1.46667 0,2.4 -0.93333,0.93333 -1.2,0.66667 -1.2,-1.2 z m -2.86382,-0.84362 C 263.053,118.22489 262.22161,117.10921 261,116.78975 258.91429,116.24432 258.2069,114.5 260.07143,114.5 c 2.00106,0 4.06989,2.98744 3.63452,5.24834 -0.43351,2.25129 -0.43361,2.25127 -0.56977,-0.092 z M 252,118.44718 c 0,-1.21661 2.48616,-2.28513 4.08043,-1.7537 0.63053,0.21017 -0.0296,0.91797 -1.46701,1.57289 C 252.97333,119.01364 252,119.08098 252,118.44718 z M 255,115 c 0,-0.275 0.9,-1.4 2,-2.5 2.21527,-2.21527 2.53296,-1.86436 0.96482,1.06574 C 257.03947,115.29477 255,116.28138 255,115 z m 38,-5.55902 c 0,-0.58246 0.49821,-0.7511 1.10713,-0.37477 0.75115,0.46423 0.8819,-0.0254 0.40666,-1.52276 -0.6008,-1.89297 -0.36849,-2.1598 1.63265,-1.87523 1.4463,0.20567 2.42533,1.09199 2.57571,2.33178 0.13342,1.1 -0.012,1.4375 -0.32312,0.75 C 297.61348,107.01421 296,107.18235 296,109 c 0,0.825 -0.675,1.5 -1.5,1.5 -0.825,0 -1.5,-0.47656 -1.5,-1.05902 z"
       style="fill:#343130" />
  </g>
  <g
     id="g6386"
     transform="matrix(1.3099262,-1.6185018,-1.606898,-1.3005347,160.95292,967.72476)">
    <path
       style="fill:#9b9b9b"
       d="M 254.24429,289.96166 C 251.42541,287.98336 249,283.39919 249,280.04966 c 0,-3.21792 -0.20148,-3.19433 -3.84615,0.45034 -1.82609,1.82609 -4.03847,3 -5.65385,3 -5.1138,0 -10.4766,-8.14483 -10.49442,-15.93856 l -0.006,-2.43856 -2.03895,2.18856 c -2.36318,2.53657 -5.8804,2.79875 -9.86986,0.73572 -5.3274,-2.75491 -5.42727,-3.88295 -4.05188,-45.76709 1.61423,-49.1578 1.6151,-49.75759 0.0733,-50.71048 -0.69978,-0.43249 -3.46462,-6.93844 -6.14411,-14.45767 -2.67948,-7.51924 -6.47121,-17.39521 -8.42608,-21.9466 -4.00161,-9.31675 -6.74285,-18.82386 -5.72178,-19.84423 4.72425,-4.72102 34.1236,-12.43022 51.17937,-13.42043 12.26372,-0.71199 44.56819,0.95821 51.29506,2.65205 6.75658,1.70133 7.39872,2.89092 5.26296,9.74984 -0.97534,3.1336 -5.63825,15.59745 -10.3616,27.69745 l -8.58791,22 -0.90423,36 c -0.77958,31.03718 -0.66604,38.72683 0.82356,55.78025 1.68131,19.24807 1.67728,19.83642 -0.14982,21.86803 -2.80419,3.11807 -5.44099,3.73761 -9.62761,2.26208 -3.6612,-1.29034 -3.75,-1.2646 -3.75,1.08695 0,3.18233 -1.72934,6.85257 -3.85399,8.17943 -3.35893,2.09769 -7.55697,2.43047 -9.90172,0.78492 z"
       id="path6396"
       inkscape:connector-curvature="0" />
    <path
       style="fill:#ae4751"
       d="m 252.58834,287.42261 c -1.4242,-1.69256 -2.87172,-4.84256 -3.21671,-7 -0.34498,-2.15743 -1.01973,-3.92261 -1.49944,-3.92261 -0.4797,0 -0.87219,0.36515 -0.87219,0.81144 0,2.15663 -4.30353,5.18856 -7.36464,5.18856 -5.69363,0 -9.63104,-6.05094 -9.64033,-14.8151 l -0.005,-4.6849 -2.24864,2.80988 c -2.65256,3.31461 -7.28614,3.87368 -11.1457,1.3448 -4.47415,-2.93158 -5.08001,-7.56186 -3.78963,-28.96236 0.63648,-10.55578 1.42857,-29.42293 1.76019,-41.92701 0.57512,-21.68527 0.51097,-22.85164 -1.38972,-25.26798 -1.09597,-1.3933 -2.97701,-5.77396 -4.18007,-9.73479 -2.14875,-7.07428 -8.39792,-23.3542 -12.01367,-31.29723 -1.01015,-2.21908 -2.0663,-5.14408 -2.34699,-6.5 -0.28065,-1.35592 -0.7864,-3.75973 -1.12385,-5.34179 -0.49662,-2.32831 -0.31801,-2.76308 0.93725,-2.28139 0.93074,0.35716 1.5508,0.0535 1.5508,-0.75957 0,-2.64238 10.0458,-5.98622 32,-10.65153 9.79124,-2.08065 12.08626,-2.18784 34,-1.58792 24.25121,0.6639 35.16498,1.719 37.45698,3.62118 1.38927,1.153 0.14359,5.32651 -7.29683,24.44719 -1.69322,4.35131 -2.84538,8.28881 -2.56035,8.75 0.28503,0.46118 0.0939,0.83852 -0.42464,0.83852 -1.49614,0 -5.32601,10.412 -4.62114,12.56316 0.45571,1.39076 0.36585,1.56159 -0.31873,0.60591 -0.70979,-0.9909 -1.39333,-0.23135 -2.67544,2.97296 -1.14117,2.85205 -1.35738,4.42546 -0.64097,4.66426 1.72444,0.57482 1.25021,2.18608 -0.66888,2.27266 -0.9625,0.0434 -1.3,0.26824 -0.75,0.49961 0.55,0.23137 0.88413,2.33334 0.74251,4.67105 -1.44665,23.88034 -2.2311,42.15473 -2.20783,51.43314 0.0238,9.49186 -0.22829,11.32622 -1.66731,12.13154 -1.58293,0.88585 -1.58833,1.40428 -0.0814,7.81724 0.88768,3.77766 1.91407,9.46192 2.28087,12.63169 0.36681,3.16976 1.04467,5.99668 1.50637,6.28202 0.4617,0.28535 0.58376,1.18513 0.27125,1.99952 -0.31251,0.81439 -0.12941,2.03748 0.4069,2.71797 0.5363,0.6805 1.04746,3.67176 1.1359,6.64724 0.25455,8.56388 -4.38579,12.16507 -11.13725,8.64317 -2.51047,-1.30958 -2.75,-1.27849 -2.75,0.35694 0,3.66277 -2.14341,7.74342 -4.93283,9.39117 -4.33885,2.56302 -7.5136,2.14534 -10.47883,-1.37864 z m -14.65309,-58.50063 c -0.63902,-0.76998 -1.58273,-1.13985 -2.09712,-0.82194 -0.55309,0.34183 -0.46049,1.15007 0.22662,1.97798 0.63902,0.76998 1.58273,1.13985 2.09711,0.82194 0.55309,-0.34183 0.4605,-1.15007 -0.22661,-1.97798 z"
       id="path6394"
       inkscape:connector-curvature="0" />
    <path
       style="fill:#4f4d4e"
       d="m 252.58834,287.42261 c -1.4242,-1.69256 -2.87172,-4.84256 -3.21671,-7 -0.34498,-2.15743 -1.01973,-3.92261 -1.49944,-3.92261 -0.4797,0 -0.87219,0.36515 -0.87219,0.81144 0,2.15663 -4.30353,5.18856 -7.36464,5.18856 -5.69363,0 -9.63104,-6.05094 -9.64033,-14.8151 l -0.005,-4.6849 -2.24864,2.80988 c -2.65256,3.31461 -7.28614,3.87368 -11.1457,1.3448 -4.47415,-2.93158 -5.08001,-7.56186 -3.78963,-28.96236 0.63648,-10.55578 1.42857,-29.42293 1.76019,-41.92701 0.57512,-21.68527 0.51097,-22.85164 -1.38972,-25.26798 -1.09597,-1.3933 -2.97701,-5.77396 -4.18007,-9.73479 -2.14875,-7.07428 -8.39792,-23.3542 -12.01367,-31.29723 -1.01015,-2.21908 -2.0663,-5.14408 -2.34699,-6.5 -0.28065,-1.35592 -0.7864,-3.75973 -1.12385,-5.34179 -0.49662,-2.32831 -0.31801,-2.76308 0.93725,-2.28139 0.93074,0.35716 1.5508,0.0535 1.5508,-0.75957 0,-2.64238 10.0458,-5.98622 32,-10.65153 9.79124,-2.08065 12.08626,-2.18784 34,-1.58792 24.25121,0.6639 35.16498,1.719 37.45698,3.62118 1.38927,1.153 0.14359,5.32651 -7.29683,24.44719 -1.69322,4.35131 -2.84538,8.28881 -2.56035,8.75 0.28503,0.46118 0.0939,0.83852 -0.42464,0.83852 -1.49614,0 -5.32601,10.412 -4.62114,12.56316 0.45571,1.39076 0.36585,1.56159 -0.31873,0.60591 -0.70979,-0.9909 -1.39333,-0.23135 -2.67544,2.97296 -1.14117,2.85205 -1.35738,4.42546 -0.64097,4.66426 1.72444,0.57482 1.25021,2.18608 -0.66888,2.27266 -0.9625,0.0434 -1.3,0.26824 -0.75,0.49961 0.55,0.23137 0.88413,2.33334 0.74251,4.67105 -1.44665,23.88034 -2.2311,42.15473 -2.20783,51.43314 0.0238,9.49186 -0.22829,11.32622 -1.66731,12.13154 -1.58293,0.88585 -1.58833,1.40428 -0.0814,7.81724 0.88768,3.77766 1.91407,9.46192 2.28087,12.63169 0.36681,3.16976 1.04467,5.99668 1.50637,6.28202 0.4617,0.28535 0.58376,1.18513 0.27125,1.99952 -0.31251,0.81439 -0.12941,2.03748 0.4069,2.71797 0.5363,0.6805 1.04746,3.67176 1.1359,6.64724 0.25455,8.56388 -4.38579,12.16507 -11.13725,8.64317 -2.51047,-1.30958 -2.75,-1.27849 -2.75,0.35694 0,3.66277 -2.14341,7.74342 -4.93283,9.39117 -4.33885,2.56302 -7.5136,2.14534 -10.47883,-1.37864 z m -14.65309,-58.50063 c -0.63902,-0.76998 -1.58273,-1.13985 -2.09712,-0.82194 -0.55309,0.34183 -0.46049,1.15007 0.22662,1.97798 0.63902,0.76998 1.58273,1.13985 2.09711,0.82194 0.55309,-0.34183 0.4605,-1.15007 -0.22661,-1.97798 z M 252,146.68783 c 0,-0.44669 -0.8708,-2.61453 -1.93512,-4.81741 -1.06432,-2.20288 -2.22497,-5.16007 -2.57922,-6.57154 l -0.64411,-2.56631 7.05267,2.07693 c 3.87897,1.14232 7.24401,1.87749 7.47787,1.63372 0.58552,-0.61033 0.95275,-7.51152 0.68874,-12.94322 -0.1203,-2.475 -0.46267,-3.88658 -0.76083,-3.13685 -0.43451,1.0926 -0.69933,1.10876 -1.33426,0.0814 -0.59988,-0.97063 -2.26954,-0.40165 -6.87895,2.34416 -3.34773,1.99423 -6.08679,3.2324 -6.08679,2.75148 0,-0.48092 0.9,-2.97401 2,-5.54021 2.48467,-5.79649 2.48187,-6.21229 -0.0472,-7.01499 C 246.22674,112.1198 233,114.39552 233,115.72975 c 0,0.57698 1.37599,3.28533 3.05777,6.01855 1.68176,2.73323 2.80125,5.22602 2.48773,5.53953 -0.31352,0.31352 -3.04593,-0.45617 -6.07202,-1.71042 -8.01801,-3.32328 -8.75952,-2.71296 -8.32515,6.85215 0.1976,4.35126 0.66868,8.22078 1.04683,8.59893 0.37816,0.37816 3.36031,-0.93605 6.62701,-2.92046 3.2667,-1.98442 6.23297,-3.60803 6.59172,-3.60803 0.35875,0 -0.71165,2.5875 -2.37866,5.75 -1.66702,3.1625 -3.03191,6.0875 -3.03309,6.5 -0.001,0.4125 4.27286,0.75 9.49786,0.75 5.225,0 9.5,-0.36548 9.5,-0.81217 z"
       id="path6392"
       inkscape:connector-curvature="0" />
    <path
       style="fill:#493636"
       d="m 254.30135,288.74184 c -2.66,-2.10734 -4.48227,-6.60679 -3.60336,-8.8972 0.44754,-1.16628 0.26835,-1.44187 -0.59183,-0.91025 -0.93126,0.57555 -1.07201,-0.0995 -0.57411,-2.75352 0.39222,-2.09073 0.19073,-4.2588 -0.49706,-5.34843 -1.0007,-1.58538 -1.09565,-1.44033 -0.70424,1.07583 0.24883,1.59954 0.0463,3.39954 -0.45005,4 -0.49636,0.60045 -1.83023,2.32923 -2.96416,3.84173 -1.52146,2.0294 -2.92772,2.75 -5.36668,2.75 -3.79104,0 -6.62379,-2.37392 -4.02345,-3.37176 0.89998,-0.34536 1.31811,-0.18569 0.97359,0.37176 -0.34975,0.5659 0.0883,0.71149 1.04082,0.34596 1.27287,-0.48844 1.51099,-1.44669 1.05327,-4.23854 -0.32529,-1.98408 -0.58132,-4.16992 -0.56895,-4.85742 0.0124,-0.6875 0.0399,-2.0375 0.0612,-3 0.0213,-0.9625 -0.12229,-4.9 -0.31906,-8.75 -0.20596,-4.02962 0.15677,-8.28152 0.85481,-10.02004 0.66692,-1.66102 1.44131,-7.06102 1.72087,-12 0.46049,-8.13554 0.31082,-9.19154 -1.59165,-11.22996 -2.17913,-2.33485 -5.23145,-2.86504 -7.65626,-1.3299 -1.17528,0.74406 -1.0777,1.44413 0.59691,4.28238 1.24119,2.10366 1.7421,4.13475 1.31825,5.34521 -0.37599,1.07377 -0.7959,8.70231 -0.93315,16.95231 -0.13724,8.25 -0.43572,15.1875 -0.66329,15.41667 -0.22757,0.22916 -0.44539,-6.52084 -0.48405,-15 C 230.89106,242.9375 230.45224,235.1 229.95456,234 c -0.57915,-1.28006 -0.84454,3.57953 -0.73726,13.5 0.11952,11.05297 -0.16016,15.5 -0.97484,15.5 -0.62836,0 -1.72746,0.6533 -2.44246,1.45177 -1.12225,1.25327 -1.06072,1.27072 0.45,0.12756 2.20535,-1.66878 2.34601,0.1818 0.17857,2.34924 -3.63574,3.63574 -11.53885,-0.18091 -8.34454,-4.02982 0.98771,-1.19011 0.88086,-1.32251 -0.60663,-0.7517 -1.38325,0.5308 -1.6053,0.36076 -0.94949,-0.72711 0.73068,-1.21204 0.60828,-1.219 -0.83595,-0.0475 -1.83173,1.48582 -2.31969,2.63355 -0.69196,1.62756 0.55,-0.33992 1,-0.10398 1,0.52432 0,0.62829 -0.55965,0.9558 -1.24366,0.72779 -1.9068,-0.63559 -1.99176,-6.43305 -0.64856,-44.25211 1.42992,-40.26088 1.33422,-47.35412 -0.66878,-49.56741 -1.98556,-2.19401 -7.66009,-18.91406 -7.00156,-20.63015 0.29681,-0.77347 0.108,-1.13954 -0.41958,-0.81348 -0.52757,0.32606 -1.235,-0.66307 -1.57207,-2.19806 -0.33706,-1.535 -0.87389,-3.4659 -1.19295,-4.2909 -0.80459,-2.08044 -0.98403,-2.78505 -1.12784,-4.42857 -0.0687,-0.78572 -0.81988,-2.12345 -1.66918,-2.97275 -2.80493,-2.80494 -5.5616,-10.32902 -4.83907,-13.20782 0.47614,-1.8971 0.33744,-2.48058 -0.47091,-1.981 -0.73526,0.45442 -1.14348,-0.1192 -1.13925,-1.60084 0.006,-2.18182 0.11604,-2.14376 1.99341,0.69098 1.09275,1.65 1.98979,3.7875 1.99341,4.75 0.004,0.9625 0.34409,1.74968 0.75659,1.74929 0.81823,-7.7e-4 1.37011,-3.2722 1.60147,-9.49311 0.14313,-3.84853 0.32971,-4.05795 5.12881,-5.75657 2.73915,-0.96952 5.43915,-1.60735 6,-1.41741 0.56085,0.18993 2.49708,-0.26936 4.30275,-1.02065 4.62045,-1.92246 19.04064,-4.53856 20.39684,-3.70038 0.74063,0.45773 0.84878,0.24421 0.31432,-0.62058 -0.66988,-1.08388 3.46312,-1.20531 23.23296,-0.68256 13.22629,0.34972 27.24801,1.16436 31.15938,1.81031 6.94515,1.14696 10.38225,2.97948 8.16203,4.35165 C 298.47185,109.32641 298,109.14148 298,108.55902 298,107.97656 297.53417,107.5 296.96482,107.5 c -0.70185,0 -0.69052,0.64401 0.0352,2 0.5887,1.1 0.69079,2 0.22686,2 -0.46392,0 -0.75148,1.80232 -0.63901,4.00515 0.11247,2.20284 -0.19878,4.25439 -0.69168,4.55902 -0.49289,0.30463 -0.90985,-0.0352 -0.92658,-0.75515 -0.0181,-0.78042 -0.45574,-0.57781 -1.08368,0.50172 -0.5793,0.99591 -0.82871,2.39594 -0.55424,3.1112 0.27447,0.71525 -0.81287,3.90133 -2.41632,7.08018 -1.60346,3.17885 -2.91537,6.86787 -2.91537,8.19782 0,1.5768 -0.40272,2.1692 -1.15752,1.7027 -0.79309,-0.49015 -0.97998,-0.0365 -0.59362,1.44099 0.31014,1.186 0.15603,2.15637 -0.34248,2.15637 -0.49851,0 -0.90638,0.96005 -0.90638,2.13344 0,1.17339 -1.56683,5.2079 -3.48183,8.96556 -2.0987,4.11809 -3.22292,7.50683 -2.83006,8.5306 0.49151,1.28086 0.30263,1.48801 -0.76817,0.84249 -1.1318,-0.6823 -1.18608,-0.5634 -0.26751,0.58595 1.88083,2.35337 2.18792,11.57936 0.34757,10.44196 -0.62662,-0.38727 -1,1.75628 -1,5.74098 0,3.49746 -0.48921,6.84823 -1.08713,7.44615 -0.78285,0.78285 -0.78285,1.2752 0,1.75902 1.73726,1.07369 1.20203,3.82537 -1.35149,6.94819 -1.53325,1.87509 -2.92921,2.67849 -3.96404,2.28139 -1.04026,-0.39919 -1.59734,-0.0717 -1.59734,0.93899 0,0.85357 -0.5625,1.36466 -1.25,1.13575 -1.6775,-0.55854 -2.23395,-3.83334 -0.80176,-4.71848 1.47727,-0.91301 -2.4996,-11.9226 -4.59745,-12.72762 -0.97771,-0.37518 -1.27389,-1.41725 -0.90417,-3.18116 0.6007,-2.86591 -0.75861,-6.04545 -1.83793,-4.29907 -0.35272,0.57071 -0.19871,1.31121 0.34224,1.64553 0.54096,0.33434 0.71201,1.96561 0.38012,3.62506 -0.33189,1.65944 0.0992,6.2545 0.95785,10.21122 0.85871,3.95673 2.07907,10.56905 2.71191,14.69405 1.6399,10.68917 1.87702,11.34628 3.58329,9.9302 1.01563,-0.8429 1.4159,-0.85778 1.4159,-0.0526 0,0.61734 0.45,1.12244 1,1.12244 1.54685,0 1.18983,-1.41912 -0.92926,-3.6937 -1.75159,-1.8801 -1.81063,-2.47308 -0.6411,-6.43856 0.74825,-2.53705 1.97602,-4.50326 2.92927,-4.69106 1.33893,-0.2638 1.64178,0.56475 1.64483,4.5 0.002,3.00072 0.73363,6.02035 1.93533,7.99115 1.46168,2.39717 1.62123,3.28692 0.65586,3.65737 -0.8033,0.30826 -1.10715,1.6382 -0.82049,3.59133 0.4643,3.16345 -1.28527,6.50383 -2.88775,5.51344 C 271.39901,227.62857 271,226.56362 271,225.56343 c 0,-1.0002 -0.65367,-2.36104 -1.45261,-3.0241 -1.16396,-0.966 -1.8969,-0.79162 -3.68856,0.87756 -1.68153,1.56659 -1.85569,2.08311 -0.70238,2.08311 0.84347,0 2.24625,0.7875 3.1173,1.75 1.46532,1.61916 1.40928,1.75 -0.74952,1.75 -1.28329,0 -2.12466,-0.3375 -1.86972,-0.75 0.88307,-1.42884 -0.74763,-0.74116 -2.81936,1.18895 -1.89967,1.76981 -2.00711,2.53311 -1.23166,8.75 l 0.84956,6.81105 0.54863,-6.5 c 0.36416,-4.31447 0.74149,-5.65941 1.12223,-4 0.55377,2.41352 0.60047,2.38757 1.34985,-0.75 0.42693,-1.7875 1.18881,-3.25 1.69305,-3.25 1.65835,0 5.06028,3.82354 4.38052,4.92341 -0.36595,0.59212 -0.18881,1.07659 0.39365,1.07659 0.58246,0 1.05902,1.14293 1.05902,2.53984 0,1.39691 0.93012,4.36302 2.06693,6.59136 1.13682,2.22834 2.1842,5.02292 2.32751,6.21017 0.14331,1.18724 0.50622,2.83363 0.80646,3.65863 0.52262,1.43605 2.58467,11.42431 3.56936,17.28945 0.67653,4.0296 -2.11377,6.71055 -6.98426,6.71055 -2.14722,0 -3.66068,-0.39375 -3.36325,-0.875 0.29742,-0.48125 -0.57602,-0.875 -1.94099,-0.875 -2.06687,0 -2.48176,0.48063 -2.48176,2.875 0,1.58125 -0.49815,2.875 -1.10699,2.875 -0.60884,0 -0.839,0.69837 -0.51145,1.55194 0.34149,0.88992 0.17385,1.29132 -0.39301,0.94098 -0.5437,-0.33602 -0.98855,0.064 -0.98855,0.88905 0,3.06204 -6.5868,4.32517 -9.69865,1.85987 z M 257,288 c -0.68469,-0.825 -1.69489,-1.5 -2.24489,-1.5 -0.55783,0 -0.44954,0.66326 0.24489,1.5 0.68469,0.825 1.69489,1.5 2.24489,1.5 0.55783,0 0.44954,-0.66326 -0.24489,-1.5 z m 7.82646,-6.00687 c -0.29711,-0.29711 -1.31734,-0.24199 -2.26718,0.12249 -1.35704,0.52075 -1.44304,0.83819 -0.40149,1.4819 1.33022,0.82212 3.68156,-0.5915 2.66867,-1.60439 z M 264.68933,263.75 c -0.25153,-0.9625 -0.45733,-0.175 -0.45733,1.75 0,1.925 0.2058,2.7125 0.45733,1.75 0.25152,-0.9625 0.25152,-2.5375 0,-3.5 z m -17.96593,-20.5 c -0.22183,-1.7875 -0.40333,-0.325 -0.40333,3.25 0,3.575 0.1815,5.0375 0.40333,3.25 0.22182,-1.7875 0.22182,-4.7125 0,-6.5 z m 12.63826,-26.93653 c -0.73995,-2.85259 -2.05745,-11.74009 -2.92777,-19.75 -1.44474,-13.29651 -3.1502,-22.35187 -3.35494,-17.81347 -0.0913,2.02274 -1.64364,2.33492 -2.48639,0.5 -0.31575,-0.6875 -0.38563,-0.35 -0.15529,0.75 0.53195,2.54027 1.84413,13.91042 2.13501,18.5 0.3659,5.7734 2.95094,18.34219 4.26766,20.75 0.67674,1.2375 1.82368,2.25 2.54876,2.25 1.08763,0 1.0829,-0.90761 -0.027,-5.18653 z M 243.89521,199.6292 c -0.12621,-14.12066 -0.57911,-21.6043 -1.40032,-23.13874 -1.11736,-2.08782 -1.26977,-1.83995 -1.9188,3.12079 -1.10255,8.42708 -0.65686,24.88662 0.67391,24.88798 1.11728,10e-4 0.90706,3.78566 -0.25,4.50077 -0.55,0.33992 -1,1.96803 -1,3.61803 0,1.74536 0.41821,2.74153 1,2.38197 0.58342,-0.36058 1,0.65628 1,2.44098 0,1.68246 0.46839,3.05902 1.04088,3.05902 0.69387,0 0.97868,-6.95771 0.85433,-20.8708 z m -17.2514,-5.61504 C 225.73979,191.65832 224,193.14498 224,196.2733 c 0,2.45884 0.12108,2.53419 1.63674,1.01853 0.9243,-0.9243 1.36266,-2.35101 1.00707,-3.27767 z m 4.2859,-5.26416 C 230.89106,188.3375 230.47269,187.1 230,186 c -0.76156,-1.77225 -0.86743,-1.68684 -0.92972,0.75 -0.0386,1.5125 0.37972,2.75 0.92972,2.75 0.55,0 0.96837,-0.3375 0.92971,-0.75 z m -9.44224,-6.19294 c 0.39709,-1.80794 1.13635,-2.75491 1.91684,-2.45541 1.23291,0.47311 6.55376,-8.0415 5.56568,-8.9064 -0.25849,-0.22628 -2.12589,-0.20473 -4.14977,0.0479 -2.63178,0.32848 -3.52691,0.85766 -3.14301,1.85808 0.29522,0.76933 0.14819,1.39879 -0.32674,1.39879 -0.47493,0 -1.39206,1.6875 -2.03807,3.75 -0.646,2.0625 -1.47871,4.5375 -1.85046,5.5 -0.50733,1.3135 -0.17019,1.75 1.35162,1.75 1.43098,0 2.21771,-0.86588 2.67391,-2.94294 z m 49.16752,-3.8858 C 269.74474,177.66545 269,175.65457 269,174.20264 c 0,-1.86035 -0.4162,-2.48016 -1.40947,-2.09901 -2.4705,0.94802 0.30031,8.39637 3.12347,8.39637 1.43978,0 1.43401,-0.17897 -0.059,-1.82874 z m -51.43461,-3.21942 c 0.39369,-2.68241 0.27091,-2.8717 -1.02325,-1.57754 -0.80884,0.80884 -1.19821,2.18051 -0.86526,3.04816 0.89271,2.32637 1.38781,1.94082 1.88851,-1.47062 z M 278,172.15369 c 0,-0.12555 -1.4625,-0.28705 -3.25,-0.3589 -2.93944,-0.11814 -3.01111,-0.058 -0.75,0.62977 2.14032,0.65099 4,0.52506 4,-0.27087 z M 251.72568,143.25 c -0.0291,-3.50719 -0.25428,-4.42202 -0.67833,-2.75581 -0.59649,2.34376 -0.73769,2.23699 -2.34106,-1.77023 C 247.76783,136.37852 247,134.06582 247,133.58462 c 0,-0.48119 2.8125,0.0253 6.25,1.12549 3.4375,1.10022 6.99142,2.21847 7.8976,2.485 1.41691,0.41674 1.61107,-0.33309 1.3867,-5.35526 -0.1435,-3.21192 -0.32242,-7.75616 -0.3976,-10.09832 -0.13035,-4.06052 -0.23575,-4.19998 -2.26735,-3 -1.70215,1.00537 -2.2217,1.00708 -2.58334,0.008 -0.24897,-0.68753 -0.91332,-1.25003 -1.47633,-1.25003 -0.56301,0 -0.78086,0.63272 -0.48411,1.40604 0.52743,1.37445 -2.15359,4.59396 -3.82557,4.59396 -0.46339,0 -1.66545,0.74474 -2.67126,1.65499 -2.59471,2.34817 -2.32219,0.10127 0.7465,-6.15499 1.34888,-2.75 2.23538,-4.2125 1.97002,-3.25 -0.88945,3.22605 0.92105,1.77585 5.31864,-4.2602 3.93643,-5.40308 7.1361,-7.64039 7.1361,-4.9898 0,0.55 0.675,1 1.5,1 1.73978,0 1.99213,3.57541 0.52475,7.4349 -0.75942,1.99743 -0.665,2.5651 0.42668,2.5651 0.77105,0 1.64242,-0.7875 1.93637,-1.75 0.56683,-1.85605 -0.19159,4.86326 -0.9312,8.25 -0.24022,1.1 0.21347,0.65 1.00821,-1 l 1.44498,-3 0.0805,4 c 0.076,3.77255 2.87784,10.80175 2.98955,7.5 0.0451,-1.33333 0.15845,-1.33333 1.02012,0 1.41054,2.18265 1.21396,3.29608 -0.46797,2.65066 -0.80739,-0.30982 -1.73395,-0.13297 -2.05902,0.39301 -0.32507,0.52598 0.33551,0.95633 1.46797,0.95633 1.13246,0 2.05902,0.4132 2.05902,0.91821 0,0.50502 0.25608,1.74252 0.56907,2.75 0.31299,1.00749 -0.12107,0.70679 -0.96456,-0.66821 l -1.53364,-2.5 -0.0354,3.19098 c -0.0195,1.75504 0.36358,3.43759 0.85126,3.73899 1.56925,0.96986 3.35624,-2.32141 2.91025,-5.36011 -0.2477,-1.68771 0.005,-2.86752 0.59033,-2.75916 1.44136,0.2667 2.46574,-8.93419 1.59328,-14.3107 -0.60695,-3.74031 -0.77121,-3.99354 -0.97301,-1.5 -0.1915,2.36636 -0.42498,1.94393 -1.10542,-2 -0.47445,-2.75 -0.6397,-5.61708 -0.36723,-6.37128 0.27248,-0.75421 -0.65959,-2.44171 -2.07126,-3.75 -2.19522,-2.03447 -3.5808,-2.37872 -9.57417,-2.37872 -4.11109,0 -6.76774,0.38793 -6.42745,0.93854 0.31903,0.5162 -0.21691,1.40251 -1.19098,1.96959 -0.97407,0.56708 -1.46758,1.04474 -1.0967,1.06146 0.37088,0.0167 -0.28588,1.10843 -1.45949,2.42601 -1.58426,1.77863 -2.65934,2.1963 -4.17433,1.62175 -1.15362,-0.4375 -5.77408,-0.0661 -10.63048,0.8544 L 231.32005,115 l 3.96029,5.79636 c 2.17815,3.18799 3.67108,6.08555 3.31761,6.43902 -0.35346,0.35347 -2.9951,-0.39116 -5.87031,-1.65473 -9.66416,-4.24712 -9.28472,-4.4864 -8.88042,5.59996 0.19443,4.85066 0.64626,9.35067 1.00407,10.00002 0.44437,0.80642 2.54517,-0.0652 6.62817,-2.75 3.28769,-2.16185 6.36772,-3.93063 6.84453,-3.93063 0.47681,0 -0.52603,2.46818 -2.22853,5.48485 -1.7025,3.01667 -3.09546,5.92478 -3.09546,6.46248 0,0.54258 4.11618,1.12446 9.25,1.3076 5.0875,0.18149 9.31058,0.42338 9.38461,0.53753 0.074,0.11415 0.11502,-2.15496 0.0911,-5.04246 z m 18.25901,-12.5 c 0.0166,-2.43836 -0.96227,-2.87242 -2.65665,-1.17804 -0.76261,0.76261 -0.75164,1.75069 0.038,3.42393 1.24788,2.64422 2.59322,1.49038 2.61865,-2.24589 z M 267,127.5 c 0,-0.55 -0.1882,-1 -0.41821,-1 -0.23002,0 -1.22778,-0.31066 -2.21724,-0.69035 -1.6069,-0.61663 -1.64234,-0.51389 -0.33179,0.96196 C 265.70337,128.65295 267,128.97124 267,127.5 z m -54,-15.39301 c 0,-0.76616 -0.62407,-1.63249 -1.38682,-1.92518 -0.97287,-0.37333 -1.23654,0.0425 -0.88336,1.39301 0.57901,2.21416 2.27018,2.6106 2.27018,0.53217 z M 291,111 c 0,-1.68627 0.55333,-2.5 1.7,-2.5 3.00824,0 -0.0132,-1.71117 -4.12278,-2.33493 -3.73356,-0.56669 -3.81797,-0.522 -1.75,0.92647 1.22227,0.8561 2.17278,2.59072 2.17278,3.96516 0,1.34382 0.45,2.4433 1,2.4433 0.55,0 1,-1.125 1,-2.5 z m -35.57003,-6.61331 C 254.42114,102.75437 253,103.47708 253,105.62245 c 0,1.76625 0.24988,1.91506 1.48899,0.88669 0.81894,-0.67966 1.24239,-1.63477 0.94098,-2.12245 z"
       id="path6390"
       inkscape:connector-curvature="0" />
    <path
       style="fill:#343130"
       d="m 257.31532,289.85134 c 0.80137,-0.80136 -1.14665,-3.35134 -2.56021,-3.35134 -0.55,0 -0.3824,0.74867 0.37244,1.66372 1.24054,1.50381 1.1627,1.55197 -0.80983,0.50106 -2.62202,-1.39695 -3.33853,-3.41169 -3.89253,-10.94543 -0.23132,-3.14564 -0.8463,-7.29435 -1.36662,-9.21935 l -0.94605,-3.5 0.11593,4.5 c 0.1213,4.70898 -2.42606,11 -4.45413,11 -0.88483,0 -0.8785,-0.29582 0.0257,-1.2 1.48358,-1.48358 1.54987,-2.8 0.14098,-2.8 -0.58246,0 -0.79993,0.41921 -0.48327,0.93158 0.31666,0.51237 -0.44428,1.69274 -1.69098,2.62304 -1.51339,1.12931 -1.68513,1.49483 -0.51673,1.09981 0.9625,-0.32541 1.75,-0.12862 1.75,0.43732 0,0.57755 -1.64517,0.89282 -3.75,0.71862 -2.52873,-0.20929 -3.75,-0.79888 -3.75,-1.81037 0,-0.825 0.72794,-1.38145 1.61766,-1.23656 1.41788,0.23092 1.63425,-1.40359 1.75205,-13.23579 0.0739,-7.42457 0.57456,-16.54312 1.11254,-20.26344 1.35815,-9.39219 1.25454,-18.56415 -0.23225,-20.55961 -1.77204,-2.3783 -6.82786,-3.05796 -9.16938,-1.23265 -1.73077,1.34921 -1.77028,1.66977 -0.402,3.26215 2.12031,2.46758 2.87264,4.96875 2.1001,6.98194 -0.54135,1.41075 -0.88977,1.18837 -1.95847,-1.25 -1.12833,-2.57441 -1.28282,-0.78743 -1.17011,13.53396 0.0891,11.32103 -0.21226,16.5 -0.96014,16.5 -0.5995,0 -1.675,0.6533 -2.39,1.45177 -1.12225,1.25327 -1.06073,1.27072 0.45,0.12756 2.32274,-1.75761 2.25636,0.15244 -0.0787,2.26568 -2.04037,1.84651 -5.71761,2.19802 -6.68134,0.63868 -0.34546,-0.55897 -0.97028,-0.80484 -1.38848,-0.54638 -0.64447,0.3983 -0.69353,-2.88299 -0.0663,-4.43731 0.11096,-0.275 0.11632,-0.95 0.0119,-1.5 -0.10442,-0.55 0.40103,-0.41876 1.12322,0.29164 1.08329,1.06561 1.05204,1.45667 -0.17857,2.23469 -0.82041,0.51867 -0.98424,0.94994 -0.36409,0.95836 0.62016,0.008 1.68776,-0.65969 2.37245,-1.48469 0.8601,-1.03636 0.89795,-1.5 0.12244,-1.5 C 220.45881,261.5 220,259.6606 220,257 c 0,-5.40716 -2.37755,-6.27292 -3.43275,-1.25 l -0.68276,3.25 -1.41046,-4 c -1.12806,-3.19913 -1.29996,-8.80522 -0.85858,-28 0.30354,-13.2 0.79796,-24.675 1.09871,-25.5 0.30076,-0.825 0.62253,-5.66192 0.71505,-10.74871 0.0925,-5.0868 0.5963,-9.67817 1.11951,-10.20306 0.60196,-0.60389 0.82549,1.04806 0.60873,4.49872 -0.1884,2.99918 0.0366,5.4451 0.5,5.43538 0.4634,-0.01 1.90279,-2.25971 3.19864,-5 1.29585,-2.74028 2.90001,-4.98233 3.56479,-4.98233 1.27901,0 4.57912,-6.10017 4.57912,-8.46438 0,-0.76808 1.0125,-1.54032 2.25,-1.71607 2.65704,-0.37736 3.02999,-3.14195 0.48984,-3.63114 -0.96809,-0.18643 -3.2712,0.59491 -5.11803,1.73631 -1.84683,1.1414 -4.27976,2.07528 -5.40651,2.07528 -1.12675,0 -2.24953,0.5625 -2.49506,1.25 -0.24554,0.6875 -0.80872,0.91182 -1.25151,0.49849 -0.44279,-0.41333 -0.19876,-1.88441 0.54229,-3.26908 0.74105,-1.38466 1.60423,-2.12465 1.91817,-1.64442 0.31395,0.48023 1.47081,-0.0251 2.57081,-1.12308 2,-1.99623 2,-1.99623 0,-1.51261 -1.80415,0.43626 -1.96566,0.0585 -1.64931,-3.85784 0.22634,-2.80194 -0.056,-4.34146 -0.79607,-4.34146 -1.6294,0 -1.03383,-9.07075 0.63769,-9.71217 1.78804,-0.68613 1.6534,-2.28783 -0.19231,-2.28783 -1.69817,0 -2.01136,-1.56593 -0.5,-2.5 0.55,-0.33992 1.03163,-1.82898 1.07028,-3.30902 0.0628,-2.40282 0.16232,-2.47681 0.92972,-0.69098 0.60144,1.39964 0.90423,1.54973 1.00866,0.5 0.0821,-0.825 0.59535,-0.28008 1.1406,1.21094 0.85299,2.33253 1.4003,2.62915 3.92105,2.125 1.91993,-0.38399 2.92969,-0.17785 2.92969,0.59808 0,0.65121 0.44485,0.90908 0.98855,0.57306 0.56686,-0.35034 0.7345,0.0511 0.39301,0.94098 -0.32755,0.85357 -0.92239,1.55194 -1.32188,1.55194 -0.39949,0 -0.72635,0.62417 -0.72635,1.38705 0,0.76288 0.7125,1.27068 1.58334,1.12843 0.87083,-0.14225 2.08261,0.13621 2.69283,0.61879 0.61023,0.48258 3.64751,0.98729 6.74952,1.12157 3.10202,0.13429 5.64024,0.58166 5.6405,0.99416 2.6e-4,0.4125 -0.44952,0.75 -0.99952,0.75 -0.55,0 -1,0.47716 -1,1.06036 0,0.61383 1.57921,0.92967 3.75,0.75 3.26826,-0.27049 4.00693,-0.83225 5.75,-4.37289 1.1,-2.23439 3.29444,-5.38439 4.87654,-7 1.58209,-1.61561 2.57277,-2.38263 2.20149,-1.70448 -0.37127,0.67814 -0.37813,2.81564 -0.0153,4.75 0.47808,2.54837 1.17998,3.51701 2.54851,3.51701 2.1437,0 2.16362,-0.11017 0.9584,-5.30215 -0.61732,-2.65939 -0.5538,-3.69255 0.21136,-3.4375 1.3164,0.4388 4.44182,-2.35228 4.21081,-3.76035 -0.0902,-0.55 0.0247,-0.6625 0.25537,-0.25 0.23069,0.4125 0.96051,0.75 1.62182,0.75 0.66131,0 1.20238,0.87507 1.20238,1.9446 0,1.36998 -0.34529,1.65804 -1.16852,0.97482 -1.80763,-1.5002 -2.42219,4.97137 -0.83858,8.83058 1.3751,3.35109 3.43567,4.40067 3.43567,1.75 0,-0.825 0.41762,-1.5 0.92804,-1.5 0.51043,0 1.23728,-2.475 1.61523,-5.5 0.37795,-3.025 1.00124,-5.5 1.38509,-5.5 0.38386,0 0.80706,-2.10852 0.94046,-4.68559 0.1334,-2.57707 0.48013,-5.07 0.7705,-5.53983 0.87507,-1.41589 -1.74276,-14.82868 -2.77024,-14.19367 -0.56007,0.34614 -0.69229,-0.43712 -0.3225,-1.91046 0.44346,-1.76692 0.04,-3.08388 -1.37978,-4.50365 -1.72167,-1.72167 -3.82789,-2.09475 -14.83666,-2.62806 -7.27136,-0.35226 -14.77981,-0.19651 -17.33014,0.35948 -4.32304,0.94245 -4.35464,0.97474 -0.80364,0.8211 2.033,-0.088 4.0205,0.16421 4.41667,0.56038 0.39617,0.39616 0.14716,0.7203 -0.55335,0.7203 -0.7213,0 -1.02403,0.65052 -0.69805,1.5 0.37313,0.97237 -0.0289,1.5053 -1.14302,1.51506 -1.8608,0.0163 -7.07374,1.81807 -11.47284,3.9654 -2.91736,1.42406 -5.21644,0.5613 -2.71681,-1.01952 0.99621,-0.63002 1.06756,-0.93526 0.22104,-0.94563 -0.6875,-0.008 -1.24311,-0.80281 -1.23469,-1.76531 0.0131,-1.49555 0.15626,-1.5319 0.98469,-0.25 0.64625,1 0.97448,1.08333 0.98469,0.25 0.0194,-1.58657 2.71701,-1.64489 3.24195,-0.0701 0.22621,0.67864 1.13821,0.89406 2.14671,0.50706 0.96438,-0.37006 1.47333,-1.12602 1.13101,-1.67991 -0.3436,-0.55596 0.41191,-1.05902 1.68662,-1.12306 1.69417,-0.0851 1.84303,-0.23778 0.55902,-0.57333 -0.9625,-0.25152 -1.75089,-0.76182 -1.75199,-1.13399 -0.001,-0.37218 -1.35109,-0.77106 -3,-0.88642 -3.02113,-0.21136 -4.06504,1.05301 -1.74801,2.11718 0.6875,0.31575 0.33259,0.35311 -0.78868,0.083 -1.12128,-0.2701 -4.54668,0.16216 -7.612,0.96058 -5.96686,1.55416 -13.44914,2.28247 -14.33617,1.39545 -0.29773,-0.29773 0.78687,-0.57909 2.41021,-0.62524 1.62334,-0.0461 3.99218,-0.64898 5.26409,-1.3396 2.45438,-1.3327 11.47235,-3.0965 16.06255,-3.14164 1.5125,-0.0149 2.75,-0.45596 2.75,-0.9802 0,-1.026 41.8819,-0.31808 50.25,0.84936 6.1973,0.8646 6.1973,2.52062 0,1.80105 l -4.75,-0.55152 2.75,1.80227 c 1.78336,1.16876 2.75538,2.68749 2.76531,4.32065 0.008,1.38511 0.45843,3.19339 1,4.01839 0.87528,1.33333 1.0941,1.33333 1.96938,0 0.54158,-0.825 0.99158,-2.08906 1,-2.80902 0.009,-0.80269 0.49881,-1.00202 1.26531,-0.51531 0.6875,0.43653 1.5875,0.80059 2,0.80901 1.28842,0.0263 1.11081,0.88774 -1.06059,5.14403 -1.15847,2.2708 -2.34043,5.41983 -2.62658,6.99786 -0.28616,1.57803 -1.17712,3.34944 -1.97993,3.93646 -0.8028,0.58703 -1.42074,2.43564 -1.37319,4.10803 0.0917,3.22425 -0.89622,5.63457 -2.02881,4.95001 -0.37449,-0.22635 -0.79315,1.84398 -0.93034,4.60075 -0.17922,3.6013 -1.37562,7.12485 -4.25,12.51677 C 277.06434,162.62239 276.03116,166.5 278,166.5 c 0.55,0 0.9478,1.9125 0.884,4.25 -0.0638,2.3375 -0.3218,3.4625 -0.57333,2.5 -0.25152,-0.9625 -0.98682,-1.77077 -1.63399,-1.79616 -10.91542,-0.42816 -19.78788,-0.50931 -20.11322,-0.18397 -0.22602,0.22602 0.19705,2.13418 0.94015,4.24035 0.7431,2.10617 1.18223,4.65299 0.97585,5.65959 -0.20638,1.00661 -0.65745,4.00893 -1.00237,6.67184 -0.34492,2.66291 -0.84388,4.62489 -1.10881,4.35996 -1.13357,-1.13357 -2.139,-17.25005 -1.15111,-18.45161 0.71784,-0.8731 0.67562,-1.25 -0.14004,-1.25 -0.79367,0 -0.95676,-1.12471 -0.5091,-3.51096 0.41465,-2.21027 0.20698,-4.05521 -0.56056,-4.98004 -1.32498,-1.59651 -5.75383,-1.71366 -7.75747,-0.20519 -1.90226,1.43214 -1.51306,7.49745 0.62861,9.79627 2.12516,2.28109 3.08726,6.86733 3.1257,14.89992 0.0145,3.025 0.37468,4.95174 0.80047,4.28164 0.42578,-0.6701 0.87226,2.9299 0.99217,8 0.11992,5.0701 0.60852,11.69336 1.08578,14.71836 0.85022,5.38883 0.87332,5.41915 1.14271,1.5 l 0.27495,-4 0.5998,4.46 c 0.4974,3.69849 1.02495,4.5595 3.08973,5.04271 1.67985,0.39312 2.08652,0.83201 1.25,1.34901 -1.66121,1.02669 -1.57694,2.64828 0.13764,2.64828 0.75765,0 1.93775,0.675 2.62244,1.5 0.99514,1.19908 0.99075,1.5 -0.0219,1.5 -0.96326,0 -1.12707,1.84731 -0.68368,7.70993 0.36294,4.79886 0.23935,7.1587 -0.32732,6.25 -1.0086,-1.61736 -0.46663,3.80788 1.05292,10.54007 0.49657,2.2 1.39387,7.16173 1.99399,11.02606 0.60013,3.86433 1.55537,7.68933 2.12275,8.5 0.74977,1.07125 0.84948,0.51771 0.36496,-2.02606 -2.91623,-15.31047 -4.44766,-34.70265 -2.65291,-33.59344 0.62299,0.38503 1.32017,-0.79041 1.71402,-2.88982 0.36514,-1.94635 1.0403,-3.77146 1.50035,-4.05579 0.99475,-0.61479 2.93681,2.72121 2.93681,5.04474 0,0.90044 0.675,2.31217 1.5,3.13717 0.825,0.825 1.5,2.36785 1.5,3.42857 0,1.06071 0.34044,1.92857 0.75652,1.92857 0.83166,0 3.24348,7.06248 3.24348,9.49782 0,0.84112 0.39369,2.31071 0.87487,3.26575 1.03104,2.0464 4.14567,15.05504 4.13353,17.26419 -0.0134,2.43219 -3.74343,4.97224 -7.30172,4.97224 -2.833,0 -3.30042,-0.36194 -3.49441,-2.70583 -0.12316,-1.48821 -0.73082,-3.17571 -1.35034,-3.75 -0.82551,-0.76524 -0.96657,-0.18786 -0.52804,2.16145 0.47683,2.55458 0.3006,3.09135 -0.86777,2.64301 -1.31516,-0.50468 -2.01008,1.2063 -1.58454,3.90137 0.0651,0.4125 -0.33158,0.75 -0.88158,0.75 -0.55,0 -1,-0.40787 -1,-0.90638 0,-0.49851 -0.9,-0.67103 -2,-0.38337 -1.1,0.28766 -2,0.0928 -2,-0.4331 0,-0.52587 -1.2375,-1.53735 -2.75,-2.24775 -1.58593,-0.74488 -2.22087,-1.48305 -1.5,-1.74384 0.71026,-0.25696 1.25,-2.14341 1.25,-4.36889 0,-3.25 -0.34043,-3.91667 -2,-3.91667 -1.60976,0 -2,0.66667 -2,3.41667 0,1.87916 -0.5625,3.64364 -1.25,3.92105 -0.72518,0.29262 -0.49048,0.53753 0.55902,0.58333 0.99496,0.0434 1.52636,0.53629 1.1809,1.09526 -0.34547,0.55897 -1.04702,0.75742 -1.55902,0.44098 C 252.41891,277.64086 252,278.11008 252,279 c 0,0.88992 0.42742,1.35387 0.94983,1.03101 0.5224,-0.32287 1.46886,0.38281 2.10324,1.56816 0.89854,1.67893 0.86467,2.33364 -0.15327,2.96276 -0.71869,0.44417 1.28468,0.59513 4.45193,0.33547 5.44634,-0.44651 5.70255,-0.36734 4.72456,1.46006 -0.56874,1.06269 -2.47277,2.43371 -4.23118,3.04669 -1.75841,0.61299 -2.89682,0.81422 -2.52979,0.44719 z M 222.77878,247.5 c -0.0372,-2.83144 -0.19477,-2.54492 -0.82479,1.5 -0.42833,2.75 -0.75807,6.575 -0.73277,8.5 0.0372,2.83144 0.19477,2.54492 0.82479,-1.5 0.42833,-2.75 0.75807,-6.575 0.73277,-8.5 z m 24.0912,-3.51177 c -0.14657,-4.68147 -0.66404,-9.06897 -1.14993,-9.75 -0.5246,-0.73528 -0.65006,1.60504 -0.30885,5.76177 0.31602,3.85 0.57778,8.2375 0.58169,9.75 0.004,1.5125 0.26282,2.75 0.57535,2.75 0.31253,0 0.44831,-3.83029 0.30174,-8.51177 z m 7.57295,-8.70756 0.69332,-5.71934 -3.31813,-1.40062 c -3.96855,-1.67517 -6.04648,-0.4605 -3.52526,2.06072 1.60952,1.60952 1.71076,1.59482 1.77053,-0.25714 0.14292,-4.42903 2.27231,3.45008 2.82483,10.45238 0.21344,2.70504 0.86518,0.55201 1.55471,-5.136 z m -9.8593,-35.3806 c -0.24758,-12.42995 -0.70518,-22.85495 -1.01689,-23.16666 -1.30015,-1.30015 -0.54093,-13.40207 0.93326,-14.87627 2.189,-2.18899 1.88282,-3.63239 -0.5,-2.35714 -1.1,0.5887 -2,1.50453 -2,2.03518 0,0.53065 -1.125,0.96482 -2.5,0.96482 -2.40693,0 -3.48183,1.48008 -1.57353,2.16667 1.2286,0.44203 1.55997,14.37412 0.57281,24.08333 -0.57045,5.61073 -0.47208,7.75 0.35638,7.75 0.62939,0 1.14434,1.37656 1.14434,3.05902 0,1.7847 -0.41658,2.80156 -1,2.44098 -0.55,-0.33992 -1,0.0835 -1,0.94098 0,0.85746 0.45,1.55902 1,1.55902 0.55,0 1,0.92656 1,2.05902 0,1.13246 -0.45,1.7809 -1,1.44098 -0.62658,-0.38725 -1,1.75402 -1,5.73419 0,6.28123 0.0363,6.36413 3.25,7.4184 1.7875,0.5864 3.3701,1.12946 3.51688,1.2068 0.14679,0.0773 0.0643,-10.02936 -0.18325,-22.45932 z M 240.27236,168.5 c 0,-2.475 0.19502,-3.4875 0.43337,-2.25 0.23836,1.2375 0.23836,3.2625 0,4.5 -0.23835,1.2375 -0.43337,0.225 -0.43337,-2.25 z m -14.79831,48.75 C 226.84747,210.88295 226.61982,205 225,205 c -1.11881,0 -1.52768,1.27063 -1.60891,5 -0.0599,2.75 -0.44618,6.2375 -0.8584,7.75 -0.57449,2.10786 -0.40044,2.75 0.7454,2.75 0.87609,0 1.78511,-1.34534 2.19596,-3.25 z m -0.56496,-14.5 c 1.004,-0.9625 2.12209,-3.39228 2.48465,-5.39952 0.36255,-2.00723 1.32228,-4.19983 2.13272,-4.87244 0.81045,-0.67261 1.50517,-1.95533 1.54382,-2.85048 0.0546,-1.26401 0.2403,-1.19317 0.83139,0.31716 0.53844,1.37576 1.12809,-0.33018 2.01546,-5.83093 1.32878,-8.23709 0.93773,-10.5841 -1.0402,-6.24302 -0.65888,1.44608 -1.60605,2.62923 -2.10483,2.62923 -0.49878,0 -0.65571,1.0125 -0.34872,2.25 0.30699,1.2375 0.29888,1.6847 -0.018,0.99377 C 229.51422,181.80084 228,183.32569 228,186.16601 c 0,1.89192 -0.39959,2.39463 -1.55194,1.95243 -0.94059,-0.36094 -1.29592,-0.1813 -0.90204,0.45603 0.35745,0.57836 0.008,1.8107 -0.77554,2.73854 -1.4919,1.76565 -3.77048,8.74737 -3.77048,11.55301 0,2.12657 1.61995,2.07849 3.90909,-0.11602 z m 31.79664,-20.5 c -0.23835,-1.2375 -0.43337,-0.225 -0.43337,2.25 0,2.475 0.19502,3.4875 0.43337,2.25 0.23836,-1.2375 0.23836,-3.2625 0,-4.5 z m 14.93021,-15.43277 c -2.32674,-1.2191 -2.88457,-1.21146 -4.15292,0.0569 -1.79322,1.79322 -0.44808,2.42113 3.83881,1.79195 l 3.00187,-0.44058 -2.68776,-1.40827 z m -6.37296,-4.41959 c -0.3221,-1.23172 0.0273,-2.46775 0.84362,-2.98469 1.11359,-0.70514 1.04197,-0.8854 -0.3566,-0.89764 -1.74664,-0.0153 -2.53697,3.86439 -1.08333,5.31802 1.0686,1.06861 1.18065,0.79884 0.59631,-1.43569 z M 237,157.5 c 0,-0.55 -0.675,-1 -1.5,-1 -0.825,0 -1.5,0.45 -1.5,1 0,0.55 0.675,1 1.5,1 0.825,0 1.5,-0.45 1.5,-1 z m -12.4843,-12.92849 c -0.69938,-3.18429 -1.87882,-3.91102 -3.11119,-1.917 -0.44465,0.71945 -0.27404,0.88289 0.45273,0.43372 0.75777,-0.46833 1.38347,0.36533 1.78645,2.38022 0.34111,1.70554 0.82865,2.89255 1.08341,2.63778 0.25477,-0.25477 0.15964,-1.8454 -0.2114,-3.53472 z M 231.27236,240.5 c 0,-2.475 0.19502,-3.4875 0.43337,-2.25 0.23836,1.2375 0.23836,3.2625 0,4.5 -0.23835,1.2375 -0.43337,0.225 -0.43337,-2.25 z m 29.15898,-25 c -0.37937,-3.85 -1.01733,-7 -1.41769,-7 -0.40037,0 -0.74062,-2.3625 -0.75613,-5.25 -0.0155,-2.8875 -0.13308,-5.7 -0.26128,-6.25 -0.3904,-1.67497 -0.0257,-7.86282 0.43617,-7.40092 1.20842,1.20842 4.46608,17.42808 4.95105,24.65092 0.44917,6.68974 0.28762,8.25 -0.85421,8.25 -1.01106,0 -1.60265,-1.97394 -2.09791,-7 z M 269.8,195.3 c 1.73964,-1.73964 1.54941,-5.14806 -0.24881,-4.45802 -1.9904,0.76379 -2.95137,-2.72833 -1.42386,-5.17426 1.20417,-1.92819 1.24913,-1.9254 3.01427,0.18745 1.78573,2.13749 1.79198,2.13199 1.82513,-1.60517 0.0242,-2.72417 0.46203,-3.75 1.60066,-3.75 1.17822,0 1.38349,0.55865 0.82675,2.25 -0.40735,1.2375 -0.79763,4.28478 -0.86729,6.77172 -0.15322,5.47036 -0.9713,6.97828 -3.78587,6.97828 -1.66521,0 -1.87431,-0.26667 -0.94098,-1.2 z m 2.27389,-18.21097 c -0.80813,-0.97374 -0.8433,-1.61351 -0.1135,-2.06455 1.59335,-0.98474 5.03961,0.41227 5.03961,2.04291 0,1.84376 -3.40148,1.85871 -4.92611,0.0216 z M 215.116,173.70951 c -0.0638,-0.70977 -1.08672,-2.60346 -2.27315,-4.20819 -1.8861,-2.5511 -1.98034,-3.13554 -0.75,-4.65147 0.77393,-0.95357 0.88127,-1.41846 0.23852,-1.03308 -0.74807,0.44853 -1.40644,-0.38207 -1.82945,-2.30804 -0.36346,-1.6548 -1.05773,-3.00873 -1.54283,-3.00873 -1.32734,0 -3.26529,-7.94767 -3.06366,-12.56432 0.0976,-2.23537 -0.29113,-5.16037 -0.86389,-6.5 -0.92574,-2.16518 -0.98371,-2.04698 -0.52196,1.06432 0.47882,3.22636 0.36094,3.12278 -1.50779,-1.32491 -1.11498,-2.6537 -1.71012,-5.3537 -1.32255,-6 0.4703,-0.78426 0.1861,-0.75528 -0.8545,0.0871 -1.33951,1.08442 -1.83834,0.61732 -3.54076,-3.31552 -1.91378,-4.42111 -2.05009,-11.2627 -0.16514,-8.28867 0.46779,0.73807 0.85743,2.08131 0.86585,2.98496 0.0267,2.86465 2.50727,2.84527 2.60208,-0.0203 0.23536,-7.11403 0.94671,-10.39024 2.37521,-10.93937 1.14583,-0.44047 0.90052,-0.7688 -0.96198,-1.28759 -2.45577,-0.68404 -2.45903,-0.69812 -0.18426,-0.79604 1.27366,-0.0548 3.21492,-0.58091 4.31392,-1.16907 2.35062,-1.25802 5.06854,0.38931 4.23334,2.56581 -0.63221,1.6475 2.58414,3.50358 6.07126,3.50358 2.3267,0 2.56574,0.37267 2.56574,4 0,2.83351 -0.42422,4 -1.45469,4 -1.90963,0 -3.30142,6.91467 -1.60306,7.96431 0.92515,0.57178 0.85925,1.575 -0.28306,4.30893 -0.81894,1.96 -1.22728,3.82534 -0.90742,4.1452 0.31986,0.31986 0.0566,0.58156 -0.5851,0.58156 -1.56547,0 -1.49575,2.72257 0.0833,3.25404 0.97451,0.328 0.94752,0.78715 -0.12245,2.08334 -0.75484,0.91444 -0.92485,1.66262 -0.3778,1.66262 0.54705,0 1.28246,1.8 1.63426,4 0.41387,2.58824 1.16487,4 2.12781,4 2.03928,0 2.08595,7.83338 0.0513,8.61414 -0.79027,0.30326 -1.19213,1.18914 -0.89301,1.96862 0.34011,0.88631 -0.10404,1.41724 -1.18559,1.41724 -1.39846,0 -1.49882,0.27787 -0.52441,1.45196 0.66276,0.79858 0.99506,2.26108 0.73845,3.25 -0.25662,0.98892 -0.51878,1.21732 -0.58258,0.50755 z M 199.5,129.5 c -0.37544,-1.1829 -0.90761,-1.92572 -1.18261,-1.65072 -0.275,0.275 -0.19283,1.46782 0.18261,2.65072 0.37544,1.1829 0.90761,1.92572 1.18261,1.65072 0.275,-0.275 0.19283,-1.46782 -0.18261,-2.65072 z m 52.8901,11.41813 c -0.82506,-3.2873 -0.117,-3.84587 3.2974,-2.60124 1.54687,0.56387 2.25,1.06074 1.5625,1.10416 -0.6875,0.0434 -1.25,0.7058 -1.25,1.47196 0,2.66054 -2.94331,2.68102 -3.6099,0.0251 z M 219,128.05902 c 0,-1.95746 0.49878,-3.55902 1.10841,-3.55902 0.67553,0 0.86936,-0.95242 0.49633,-2.43872 -0.74405,-2.96453 0.65257,-4.02913 3.37459,-2.57234 1.12943,0.60445 2.02067,0.67266 2.02067,0.15465 0,-0.50972 -1.125,-1.20913 -2.5,-1.55423 -1.375,-0.34511 -2.5,-1.06889 -2.5,-1.60841 0,-0.53952 -1.77344,-0.98095 -3.94098,-0.98095 -2.16754,0 -4.16723,-0.36608 -4.44376,-0.8135 -0.27653,-0.44743 1.71365,-0.52917 4.42262,-0.18164 C 222.45271,115.19952 224,114.37613 224,110.8 c 0,-1.67938 0.57415,-2.3 2.12781,-2.3 1.92238,0 2.06605,0.38618 1.48818,4 -0.39218,2.45258 -0.2482,4 0.37219,4 0.5565,0 1.01182,0.70156 1.01182,1.55902 0,0.87585 0.48033,1.26215 1.09613,0.88157 0.68294,-0.42208 0.95381,0.0269 0.71857,1.19098 -0.31198,1.54388 -1.12914,1.81118 -4.70434,1.53884 -2.73441,-0.2083 -4.09694,0.0423 -3.70226,0.6809 0.34349,0.55577 0.16718,1.29314 -0.39179,1.63861 C 221.45734,124.33538 221,125.91492 221,127.5 c 0,1.58508 -0.45,3.16008 -1,3.5 -0.59512,0.3678 -1,-0.82295 -1,-2.94098 z M 266,120.5 c 0,-1.86667 0.26667,-2.13333 1.2,-1.2 0.93333,0.93333 0.93333,1.46667 0,2.4 -0.93333,0.93333 -1.2,0.66667 -1.2,-1.2 z m -2.86382,-0.84362 C 263.053,118.22489 262.22161,117.10921 261,116.78975 258.91429,116.24432 258.2069,114.5 260.07143,114.5 c 2.00106,0 4.06989,2.98744 3.63452,5.24834 -0.43351,2.25129 -0.43361,2.25127 -0.56977,-0.092 z M 252,118.44718 c 0,-1.21661 2.48616,-2.28513 4.08043,-1.7537 0.63053,0.21017 -0.0296,0.91797 -1.46701,1.57289 C 252.97333,119.01364 252,119.08098 252,118.44718 z M 255,115 c 0,-0.275 0.9,-1.4 2,-2.5 2.21527,-2.21527 2.53296,-1.86436 0.96482,1.06574 C 257.03947,115.29477 255,116.28138 255,115 z m 38,-5.55902 c 0,-0.58246 0.49821,-0.7511 1.10713,-0.37477 0.75115,0.46423 0.8819,-0.0254 0.40666,-1.52276 -0.6008,-1.89297 -0.36849,-2.1598 1.63265,-1.87523 1.4463,0.20567 2.42533,1.09199 2.57571,2.33178 0.13342,1.1 -0.012,1.4375 -0.32312,0.75 C 297.61348,107.01421 296,107.18235 296,109 c 0,0.825 -0.675,1.5 -1.5,1.5 -0.825,0 -1.5,-0.47656 -1.5,-1.05902 z"
       id="path6388"
       inkscape:connector-curvature="0" />
  </g>
</svg>
