<?xml version="1.0" encoding="UTF-8" standalone="no"?>
<svg
   xmlns:dc="http://purl.org/dc/elements/1.1/"
   xmlns:cc="http://creativecommons.org/ns#"
   xmlns:rdf="http://www.w3.org/1999/02/22-rdf-syntax-ns#"
   xmlns:svg="http://www.w3.org/2000/svg"
   xmlns="http://www.w3.org/2000/svg"
   xmlns:sodipodi="http://sodipodi.sourceforge.net/DTD/sodipodi-0.dtd"
   xmlns:inkscape="http://www.inkscape.org/namespaces/inkscape"
   viewBox="0 0 512 512"
   id="svg14081"
   version="1.1"
   inkscape:version="0.48.4 r9939"
   width="100%"
   height="100%"
   sodipodi:docname="lightning melee.svg">
  <metadata
     id="metadata14103">
    <rdf:RDF>
      <cc:Work
         rdf:about="">
        <dc:format>image/svg+xml</dc:format>
        <dc:type
           rdf:resource="http://purl.org/dc/dcmitype/StillImage" />
        <dc:title></dc:title>
      </cc:Work>
    </rdf:RDF>
  </metadata>
  <defs
     id="defs14101" />
  <sodipodi:namedview
     pagecolor="#ffffff"
     bordercolor="#666666"
     borderopacity="1"
     objecttolerance="10"
     gridtolerance="10"
     guidetolerance="10"
     inkscape:pageopacity="0"
     inkscape:pageshadow="2"
     inkscape:window-width="1949"
     inkscape:window-height="846"
     id="namedview14099"
     showgrid="false"
     inkscape:zoom="0.4609375"
     inkscape:cx="-872.17842"
     inkscape:cy="322.73668"
     inkscape:window-x="0"
     inkscape:window-y="0"
     inkscape:window-maximized="0"
     inkscape:current-layer="svg14081" />
  <path
     d="m0,0h512v512h-512z"
     id="path14083" />
  <path
     style="fill:#c87137"
     inkscape:connector-curvature="0"
     id="path14087"
     d="M 363.85821,323.62395 348.86632,344.9002 135.24277,194.28501 c -14.77745,-9.50417 -2.946,-31.53837 15.74031,-20.74858 z" />
  <path
     style="fill:#ffffff;stroke:#000000;stroke-width:18.68857956000000100"
     inkscape:connector-curvature="0"
     id="path14089"
     d="m 399.42861,329.90226 -49.18274,-36.50627 c -30.88661,90.99843 -92.85421,89.4398 -117.37549,24.59043 -53.92777,45.62817 -28.91497,127.26175 22.90472,163.36996 48.0988,33.51797 120.24233,25.74165 150.29917,-34.80374 -73.53209,0.37377 -81.63359,-58.77559 -6.64566,-116.65038 z" />
  <path
     style="fill:#800080"
     inkscape:connector-curvature="0"
     id="path14091"
     d="M 197.59381,34.095675 C 80.315499,66.49046 8.0878755,185.8974 29.084495,306.89475 32.485817,218.76127 90.556841,138.88441 177.54284,114.8565 284.60784,85.281827 394.46866,151.13291 423.15937,261.50205 446.3575,350.76058 409.18405,441.78144 337.51708,489.08224 449.01876,446.9507 512.83278,323.61168 481.50512,203.07595 448.34223,75.492749 321.35707,-0.09134408 197.59568,34.095675 z" />
  <path
     style="fill:#800080"
     inkscape:connector-curvature="0"
     id="path14093"
     d="M 361.21163,67.553815 C 229.56959,19.575644 81.55494,34.939346 19.781846,100.78245 82.284654,62.801339 190.43219,57.732333 288.07416,93.317049 z" />
  <path
     style="fill:#800080"
     inkscape:connector-curvature="0"
     id="path14095"
     d="M 62.114139,174.87682 C 50.506441,245.16025 71.722746,317.79663 126.26042,374.18404 76.244727,289.52057 97.977625,158.10113 183.30898,109.16507 l -65.03771,11.34785 z" />
  <path
     style="fill:#800080"
     inkscape:connector-curvature="0"
     id="path14093-8"
     d="M 458.98564,234.04633 C 459.06933,113.33899 408.59832,16.317131 344.17592,9.0084939 388.46488,32.394248 420.85016,106.72115 420.78942,196.25158 z" />
  <path
     style="fill:#ffffff"
     inkscape:connector-curvature="0"
     d="m 409.40465,422.5271 31.57371,-39.979 -27.88985,-30.32679 33.67894,-39.29077 -50.51723,33.77567 23.68058,37.21989 -35.78299,22.7486"
     id="path8448" />
  <path
     style="fill:#ffffff"
     inkscape:connector-curvature="0"
     d="m 474.37243,205.07841 -92.2492,-51.19109 -1.46683,-58.717048 -94.16165,-49.293825 109.44482,34.10242 15.74066,68.016903 76.03741,22.29409"
     id="path8448-8" />
  <path
     style="fill:#ffffff"
     inkscape:connector-curvature="0"
     d="M 343.94978,109.2741 239.09551,97.611116 203.90769,144.63941 98.592362,130.32229 l 108.982678,35.55164 52.21037,-46.34809 74.90658,25.84024"
     id="path8448-8-9" />
  <path
     style="fill:#ffffff"
     inkscape:connector-curvature="0"
     d="m 503.00883,291.29575 -49.69927,-43.87956 -30.70052,14.11244 -49.20135,-45.54595 45.20704,58.8704 39.10285,-7.67561 30.68531,41.2583"
     id="path8448-83" />
  <path
     style="fill:#ffffff"
     inkscape:connector-curvature="0"
     d="M 219.22108,73.3479 137.08171,81.860215 109.51675,47.536259 27.016209,57.985718 112.38962,32.038084 153.2895,65.86559 211.96883,47.005894"
     id="path8448-8-9-5" />
  <path
     style="fill:#ffffff"
     inkscape:connector-curvature="0"
     d="m 83.434974,234.89696 7.770596,82.21285 -34.571359,27.25403 9.704398,82.5915 -25.176006,-85.60413 34.195278,-40.5929 -18.329292,-58.84716"
     id="path8448-8-9-5-5" />
  <path
     style="fill:#ffffff"
     inkscape:connector-curvature="0"
     d="m 46.449635,98.893625 -17.972434,47.667725 35.76923,20.44798 -20.187234,47.64989 37.905051,-47.4973 -33.846999,-28.29259 27.205722,-32.52338"
     id="path8448-1" />
</svg>
