<?xml version="1.0" encoding="UTF-8" standalone="no"?>
<svg
   xmlns:dc="http://purl.org/dc/elements/1.1/"
   xmlns:cc="http://creativecommons.org/ns#"
   xmlns:rdf="http://www.w3.org/1999/02/22-rdf-syntax-ns#"
   xmlns:svg="http://www.w3.org/2000/svg"
   xmlns="http://www.w3.org/2000/svg"
   xmlns:sodipodi="http://sodipodi.sourceforge.net/DTD/sodipodi-0.dtd"
   xmlns:inkscape="http://www.inkscape.org/namespaces/inkscape"
   viewBox="0 0 512 512"
   id="svg12293"
   version="1.1"
   inkscape:version="0.48.4 r9939"
   width="100%"
   height="100%"
   sodipodi:docname="lightning arrow.svg">
  <metadata
     id="metadata12327">
    <rdf:RDF>
      <cc:Work
         rdf:about="">
        <dc:format>image/svg+xml</dc:format>
        <dc:type
           rdf:resource="http://purl.org/dc/dcmitype/StillImage" />
        <dc:title />
      </cc:Work>
    </rdf:RDF>
  </metadata>
  <defs
     id="defs12325" />
  <sodipodi:namedview
     pagecolor="#ffffff"
     bordercolor="#666666"
     borderopacity="1"
     objecttolerance="10"
     gridtolerance="10"
     guidetolerance="10"
     inkscape:pageopacity="0"
     inkscape:pageshadow="2"
     inkscape:window-width="2560"
     inkscape:window-height="1378"
     id="namedview12323"
     showgrid="false"
     inkscape:zoom="1"
     inkscape:cx="-180.75544"
     inkscape:cy="273.26619"
     inkscape:window-x="-8"
     inkscape:window-y="-8"
     inkscape:window-maximized="1"
     inkscape:current-layer="svg12293" />
  <path
     d="m0,0h512v512h-512z"
     id="path12295"
     style="opacity:1" />
  <path
     style="fill:#800080;stroke:#000000;stroke-width:18.68928719000000200"
     inkscape:connector-curvature="0"
     id="path12299"
     d="M 469.37517,470.95607 C 405.4533,534.87794 261.99206,495.05507 148.94495,382.00795 35.897838,268.96084 -3.923704,125.50094 59.998168,61.579064 123.92004,-2.3428089 267.38128,37.480067 380.42706,150.52585 493.47284,263.57162 533.29705,407.0342 469.37517,470.95607 z" />
  <path
     inkscape:connector-curvature="0"
     id="path12301"
     d="M 389.747,392.72412 C 351.00232,431.4688 238.94941,382.23375 139.46922,282.75357 39.989039,183.27338 -9.2448371,71.221645 29.499843,32.476965 68.244522,-6.2677148 180.29743,42.967334 279.77644,142.44635 379.25546,241.92536 428.49168,353.97944 389.747,392.72412 z" />
  <path
     style="fill:#800080;opacity:1"
     inkscape:connector-curvature="0"
     id="path12305"
     d="m 73.098126,16.403702 11.5701,68.970204 -69.577583,-10.962721 49.33972,71.263295 74.987927,-5.54864 5.55051,-74.989797 z" />
  <path
     style="fill:#800080"
     inkscape:connector-curvature="0"
     id="path12307"
     d="M 200.87382,371.24751 C 130.14875,352.29729 69.788379,323.72058 29.886392,293.08065 59.971268,358.93921 146.3312,422.18884 258.52435,452.25316 z" />
  <path
     style="fill:#800080"
     inkscape:connector-curvature="0"
     id="path12309"
     d="m 275.77017,428.44951 c -96.90029,0 -183.848906,-11.97938 -245.347416,-31.24917 61.014476,55.82653 193.075456,94.56982 346.790896,94.57169 z" />
  <path
     style="fill:#800080"
     inkscape:connector-curvature="0"
     id="path12311"
     d="M 370.62406,208.42325 C 351.67571,137.70006 323.09713,77.337817 292.45907,37.437699 358.31763,67.522575 421.56539,153.8825 451.62971,266.07566 z" />
  <path
     style="fill:#800080"
     inkscape:connector-curvature="0"
     id="path12313"
     d="M 427.82606,283.31774 C 427.827,186.41932 415.84668,99.470702 396.57876,37.972192 452.40715,98.984799 491.15045,231.04765 491.15232,384.76122 z" />
  <path
     style="fill:#800080"
     inkscape:connector-curvature="0"
     id="path12315"
     d="m 178.27559,318.34948 c -28.1992,-38.77506 -46.29349,-77.74449 -52.59714,-109.06468 -15.83484,43.8621 -0.71578,110.20655 44.01534,171.71628 z" />
  <path
     style="fill:#800080"
     inkscape:connector-curvature="0"
     id="path12317"
     d="M 318.00636,184.1281 C 279.23129,155.9289 240.26374,137.83462 208.94355,131.53096 252.80751,115.69613 319.1501,130.8208 380.65983,175.54817 z" />
  <path
     style="fill:#800080"
     inkscape:connector-curvature="0"
     id="path12319"
     d="m 228.16849,358.43088 c -26.73962,-33.32361 -43.45282,-67.14059 -48.71552,-94.5773 -17.08323,39.20304 -4.18251,97.26846 38.23309,150.13097 z" />
  <path
     style="fill:#800080"
     inkscape:connector-curvature="0"
     id="path12321"
     d="m 360.63688,233.02303 c -33.32361,-26.73775 -67.14246,-43.45281 -94.57543,-48.71365 39.20117,-17.0851 97.26472,-4.18624 150.1291,38.22936 z" />
  <path
     style="fill:#ffffff;stroke:#000000;stroke-width:18.68857956000000100"
     inkscape:connector-curvature="0"
     id="path12303"
     d="M 119.44394,94.133244 92.341757,121.23729 345.68228,398.14224 287.35522,414.04996 491.7952,493.58856 412.25848,288.55989 397.53001,346.29638 119.4458,94.133244 z" />
  <path
     style="fill:#ffffff"
     inkscape:connector-curvature="0"
     d="m 448.7563,334.45862 -24.27373,-78.93112 28.32934,-33.69584 -26.24413,-78.90992 42.00523,78.72394 -25.2573,46.68158 29.87704,53.91023"
     id="path8448-8-9-5-5" />
  <path
     style="fill:#ffffff"
     inkscape:connector-curvature="0"
     d="m 340.50915,234.23221 -66.80004,-48.54987 2.4257,-43.9554 -68.36309,-47.34995 80.85595,37.73875 7.82731,52.49604 56.25939,25.17602"
     id="path8448-8-9-5-5-5"
     inkscape:transform-center-x="-108.24304"
     inkscape:transform-center-y="43.073042" />
  <path
     style="fill:#ffffff"
     inkscape:connector-curvature="0"
     d="m 202.40306,375.92761 -82.46969,-53.40988 2.99471,-48.35549 -84.3994,-52.08985 99.82278,41.51653 9.6634,57.75108 69.45647,27.69623"
     id="path8448-8-9-5-5-5-2"
     inkscape:transform-center-x="-133.63421"
     inkscape:transform-center-y="47.384805" />
  <path
     style="fill:#ffffff"
     inkscape:connector-curvature="0"
     d="m 339.60765,455.58595 -82.41279,-5.24089 -26.17894,35.39243 -82.85067,-7.16214 86.33726,22.53388 39.52306,-35.42638 59.38255,16.51254"
     id="path8448-8-9-5-5-5-2-3"
     inkscape:transform-center-x="-106.12948"
     inkscape:transform-center-y="40.654103" />
  <path
     style="fill:#ffffff"
     inkscape:connector-curvature="0"
     d="m 197.14774,417.79639 -41.24461,-29.90154 -29.15324,29.11437 -40.64361,-32.03331 35.82619,49.08432 36.21374,-25.19237 24.20205,34.81641"
     id="path8448-1-2" />
  <path
     style="fill:#ffffff"
     inkscape:connector-curvature="0"
     d="m 376.88966,173.29223 -22.38219,-45.76306 33.68429,-23.72608 -24.58547,-45.536696 42.21015,43.716016 -31.03175,31.35475 30.14804,29.81639"
     id="path8448-1-2-4" />
</svg>
