<?xml version="1.0" encoding="UTF-8" standalone="no"?>
<svg
   xmlns:dc="http://purl.org/dc/elements/1.1/"
   xmlns:cc="http://creativecommons.org/ns#"
   xmlns:rdf="http://www.w3.org/1999/02/22-rdf-syntax-ns#"
   xmlns:svg="http://www.w3.org/2000/svg"
   xmlns="http://www.w3.org/2000/svg"
   xmlns:sodipodi="http://sodipodi.sourceforge.net/DTD/sodipodi-0.dtd"
   xmlns:inkscape="http://www.inkscape.org/namespaces/inkscape"
   sodipodi:docname="long sword.svg"
   height="100%"
   width="100%"
   inkscape:version="0.48.4 r9939"
   version="1.1"
   id="svg8438"
   viewBox="0 0 512 512">
  <metadata
     id="metadata8464">
    <rdf:RDF>
      <cc:Work
         rdf:about="">
        <dc:format>image/svg+xml</dc:format>
        <dc:type
           rdf:resource="http://purl.org/dc/dcmitype/StillImage" />
        <dc:title></dc:title>
      </cc:Work>
    </rdf:RDF>
  </metadata>
  <defs
     id="defs8462">
    <linearGradient
       id="linearGradient4077">
      <stop
         id="stop4079"
         offset="0"
         style="stop-color:#aa4400;stop-opacity:1;" />
      <stop
         style="stop-color:#ff9f00;stop-opacity:1;"
         offset="0.22752622"
         id="stop4081" />
      <stop
         style="stop-color:#803300;stop-opacity:1;"
         offset="0.4948855"
         id="stop4083" />
      <stop
         id="stop4085"
         offset="1"
         style="stop-color:#562200;stop-opacity:1;" />
    </linearGradient>
    <linearGradient
       id="linearGradient4057">
      <stop
         style="stop-color:#aa4400;stop-opacity:1;"
         offset="0"
         id="stop4059" />
      <stop
         id="stop4067"
         offset="0.22752622"
         style="stop-color:#ecd1a4;stop-opacity:1;" />
      <stop
         id="stop4065"
         offset="0.50136983"
         style="stop-color:#803300;stop-opacity:1;" />
      <stop
         style="stop-color:#562200;stop-opacity:1;"
         offset="1"
         id="stop4061" />
    </linearGradient>
    <linearGradient
       id="linearGradient3890">
      <stop
         style="stop-color:#701b1b;stop-opacity:1;"
         offset="0"
         id="stop3892" />
      <stop
         style="stop-color:#e31600;stop-opacity:1;"
         offset="1"
         id="stop3894" />
    </linearGradient>
    <linearGradient
       id="linearGradient3882">
      <stop
         style="stop-color:#600b0b;stop-opacity:1;"
         offset="0"
         id="stop3884" />
      <stop
         style="stop-color:#d11414;stop-opacity:1;"
         offset="1"
         id="stop3886" />
    </linearGradient>
    <linearGradient
       id="linearGradient3872">
      <stop
         style="stop-color:#800600;stop-opacity:1;"
         offset="0"
         id="stop3874" />
      <stop
         style="stop-color:#ff0004;stop-opacity:0;"
         offset="1"
         id="stop3876" />
    </linearGradient>
  </defs>
  <sodipodi:namedview
     pagecolor="#000000"
     bordercolor="#666666"
     borderopacity="1"
     objecttolerance="10"
     gridtolerance="10"
     guidetolerance="10"
     inkscape:pageopacity="0"
     inkscape:pageshadow="2"
     inkscape:window-width="1190"
     inkscape:window-height="1126"
     id="namedview8460"
     showgrid="false"
     inkscape:zoom="1"
     inkscape:cx="295.98519"
     inkscape:cy="289.35678"
     inkscape:window-x="160"
     inkscape:window-y="130"
     inkscape:window-maximized="0"
     inkscape:current-layer="svg8438" />
  <path
     style="fill:#000000"
     id="path3978"
     d="M -13.466093,0.1885736 H 514.89024 V 516.42957 H -13.466093 z"
     inkscape:connector-curvature="0" />
  <path
     transform="matrix(0.92592215,0,0,1,-12.92858,0)"
     sodipodi:end="6.1122693"
     sodipodi:start="6.11213"
     d="m 101.95774,-78.577314 a 39.244427,23.688076 0 0 1 9.3e-4,0.0033 l -38.672613,4.028989 z"
     sodipodi:ry="23.688076"
     sodipodi:rx="39.244427"
     sodipodi:cy="-74.545074"
     sodipodi:cx="63.286057"
     id="path4121"
     style="fill:#333333;fill-opacity:1;fill-rule:nonzero;stroke:none"
     sodipodi:type="arc" />
  <path
     transform="matrix(0.92592215,0,0,1,-12.92858,0)"
     sodipodi:end="6.1122693"
     sodipodi:start="6.11213"
     d="m 76.035958,-54.360671 a 10.606602,11.755651 0 0 1 2.51e-4,0.0016 l -10.452057,1.999461 z"
     sodipodi:ry="11.755651"
     sodipodi:rx="10.606602"
     sodipodi:cy="-52.359596"
     sodipodi:cx="65.584152"
     id="path4123"
     style="fill:#333333;fill-opacity:1;fill-rule:nonzero;stroke:none"
     sodipodi:type="arc" />
  <path
     transform="matrix(0.92592215,0,0,1,-12.92858,0)"
     sodipodi:end="6.1122693"
     sodipodi:start="6.11213"
     d="m 69.424272,-57.251206 a 15.46796,16.793785 0 0 1 3.67e-4,0.0023 l -15.242583,2.856372 z"
     sodipodi:ry="16.793785"
     sodipodi:rx="15.46796"
     sodipodi:cy="-54.392529"
     sodipodi:cx="54.182056"
     id="path4125"
     style="fill:#333333;fill-opacity:1;fill-rule:nonzero;stroke:none"
     sodipodi:type="arc" />
  <path
     sodipodi:type="arc"
     style="opacity:0.98999999;fill:#ffffff;fill-opacity:1;fill-rule:nonzero;stroke:none"
     id="path3786"
     sodipodi:cx="230.625"
     sodipodi:cy="165.5"
     sodipodi:rx="66.625"
     sodipodi:ry="12.25"
     d="m 296.27765,163.41478 a 66.625,12.25 0 1 1 -0.10691,-0.11077"
     sodipodi:start="6.11213"
     sodipodi:end="12.386132"
     sodipodi:open="true"
     transform="matrix(0.70953952,0.70466564,-0.70466564,0.70953952,146.85962,-91.942295)" />
  <g
     id="g3764"
     transform="matrix(0.74426365,0,0,1.357783,190.49634,-77.51333)">
    <path
       style="fill:#dce8f1"
       d="m -215.90454,74.57473 c 4.0453,0.65893 9.06626,2.40654 16,5.56899 10.63185,4.84916 236.50285,117.58556 262,130.76906 30.79615,15.92339 39.41987,20.19744 50.17128,24.86568 2.5692,1.11554 4.9623,2.49913 5.31798,3.07465 0.62964,1.01877 20.91344,11.01737 22.35055,11.01737 0.39638,0 3.85707,2.02197 7.69044,4.49326 3.83336,2.4713 7.30881,4.4963 7.72322,4.5 0.97234,0.009 18.44194,8.69918 46.74653,23.25468 70.06417,36.03017 81.43206,41.7127 82.05439,41.01702 0.37636,-0.42073 2.14086,-6.27615 3.9211,-13.01205 l 3.2368,-12.24709 -3.10614,-3.53771 c -3.6452,-4.15164 -4.06546,-8.5088 -1.10615,-11.46811 1.1,-1.1 2.41547,-2 2.92327,-2 0.50781,0 2.20619,-1.0795 3.77419,-2.39889 2.72012,-2.28882 4.83594,-2.97056 8.43006,-2.71626 0.89514,0.0633 3.70764,2.64185 6.25,5.73003 3.48049,4.22772 4.62248,6.45118 4.62248,9 0,3.50513 -2.82526,7.38512 -5.37756,7.38512 -2.84692,0 -3.633,3.14475 -5.22142,20.88858 -1.57975,17.64704 -1.57237,18.26606 0.23385,19.59947 1.02582,0.7573 7.94013,3.95778 15.36513,7.1122 25.45395,10.81376 34.60021,15.98823 60.61633,34.29351 l 6.11633,4.30353 5.58427,-1.15929 c 12.98705,-2.6961 22.68307,5.44917 22.68307,19.05522 0,8.13699 -4.84346,14.00372 -13.04548,15.80159 -9.64255,2.11362 -17.98962,-2.96777 -21.80985,-13.27704 l -1.89646,-5.11777 -12.87411,-4.56108 c -19.29691,-6.83658 -31.46429,-12.65062 -46.92163,-22.42097 -17.14817,-10.83909 -23.5195,-14.4763 -25.39946,-14.49984 -1.80395,-0.0226 -35.28208,17.84746 -36.2877,19.36974 -0.40408,0.61168 -0.74158,2.54251 -0.75,4.29072 -0.025,5.20127 -5.4778,8.74983 -9.84973,6.41005 -1.11138,-0.5948 -2.6968,-0.822 -3.52315,-0.5049 -1.96271,0.75316 -8.31224,-2.28087 -9.10685,-4.35159 -1.19692,-3.11914 0.64868,-15.41639 2.60775,-17.37546 2.05534,-2.05534 5.01083,-2.37972 7.84794,-0.86134 1.02288,0.54742 2.75775,0.65992 3.85526,0.25 2.85246,-1.06542 19.15347,-15.25186 19.15347,-16.66888 0,-0.65161 -5.5125,-4.04639 -12.25,-7.54395 -6.7375,-3.49757 -15.625,-8.2496 -19.75,-10.56007 -6.67253,-3.73739 -23.70379,-12.83438 -31.60075,-16.87909 -1.59459,-0.81672 -10.54925,-5.27525 -19.89925,-9.90784 -9.35,-4.6326 -22.85,-11.56499 -30,-15.40532 -32.4161,-17.41098 -47.81938,-25.28018 -49.48375,-25.28018 -1.08538,0 -5.07077,-2.04075 -13.93285,-7.1344 -2.52087,-1.44893 -7.9584,-4.36525 -12.0834,-6.48071 -4.125,-2.11547 -8.85,-4.82718 -10.5,-6.02602 -1.65,-1.19884 -6.15,-3.59822 -10,-5.33196 -10.72219,-4.82843 -24.55242,-11.97552 -29,-14.98642 -4.31772,-2.92299 -13.92166,-8.10759 -39,-21.0538 -8.8,-4.54283 -22.3,-11.51651 -30,-15.49706 -15.87884,-8.20865 -51.82349,-26.55714 -93,-47.47324 -88.75207,-45.08266 -86.17908,-43.57326 -90.97033,-53.36621 -3.7325,-7.62896 -2.62567,-9.52682 6.47033,-11.09461 0.825,-0.1422 2.625,-0.0753 4,0.14868 z m 184.84133,106.05442 c -1.47395,1.47395 19.07042,11.59616 21.58077,10.63285 2.92651,-1.12301 1.12617,-2.77558 -8.22847,-7.5531 -9.19894,-4.698 -11.25891,-5.17314 -13.3523,-3.07975 z m 24.55776,11.99133 c 0.071,1.93576 0.63146,2.75259 1.89279,2.75874 0.98553,0.005 2.11053,0.51487 2.5,1.13346 0.38947,0.61859 7.90812,4.82003 16.70812,9.33652 8.8,4.51649 16.4275,8.61894 16.95,9.11654 1.62689,1.54938 5.01314,0.99404 6.27678,-1.02937 1.12079,-1.79467 0.0781,-2.48695 -14.46193,-9.60174 -8.6184,-4.21719 -16.5912,-8.09541 -17.71733,-8.61826 -1.12614,-0.52285 -4.07252,-2.02551 -6.54752,-3.33924 -5.7172,-3.03469 -5.7212,-3.03451 -5.60091,0.24335 z"
       id="path3784"
       inkscape:connector-curvature="0" />
    <path
       style="fill:#cad0d5"
       d="m -214.40454,75.50391 c 3.94911,0.96115 9.2852,3.32208 27.68045,12.24708 33.52729,16.26676 204.48317,101.577 238.81955,119.1755 44.1057,22.6056 54.7758,27.94399 55.85298,27.94399 0.80896,0 4.39686,1.96056 13.49618,7.3748 1.73296,1.03114 7.20084,3.65587 12.15084,5.83274 4.95,2.17687 9.73497,4.61791 10.63327,5.42455 0.8983,0.80663 10.1233,5.66546 20.5,10.79739 10.3767,5.13193 41.33926,20.85972 68.8057,34.95065 27.46643,14.09093 50.28658,25.61987 50.71145,25.61987 0.42487,0 1.23292,-1.6875 1.79566,-3.75 0.56275,-2.0625 2.1495,-7.8 3.52612,-12.75 1.37663,-4.95 2.50854,-9.54684 2.51538,-10.2152 0.007,-0.66837 -1.33758,-2.75277 -2.98758,-4.63202 -1.65,-1.87924 -3,-4.51646 -3,-5.86048 0,-2.76772 3.76004,-6.7923 6.34584,-6.7923 0.94431,0 1.96014,-0.6338 2.2574,-1.40844 0.29726,-0.77465 1.85548,-1.95314 3.46271,-2.61888 2.43866,-1.01012 3.33694,-0.93872 5.42815,0.4315 1.37824,0.90306 2.5059,2.06604 2.5059,2.58439 0,0.51836 1.35,2.3235 3,4.01143 4.82866,4.93965 4.06989,11.16177 -1.58888,13.02933 -4.07171,1.34379 -3.84354,0.47204 -5.98732,22.87523 l -1.66545,17.40456 2.37083,1.78855 c 1.30395,0.9837 8.44582,4.35534 15.87082,7.49253 23.98401,10.13367 34.83396,16.10296 52.5,28.88381 13.76547,9.9589 13.68048,9.92207 19.61031,8.49953 6.66928,-1.59994 11.24701,-0.54896 15.89357,3.64893 4.83851,4.3713 6.70668,9.87005 6.14692,18.09273 -0.22348,3.2829 -5.58843,8.84262 -10.38466,10.7617 -9.33943,3.73689 -18.8863,-1.37081 -22.18918,-11.87152 -1.86182,-5.91924 -1.53478,-5.69446 -14.07696,-9.67538 -18.28411,-5.80343 -35.44984,-14.30105 -56.55724,-27.99777 -7.45649,-4.83855 -14.75752,-9.09862 -16.22453,-9.46681 -2.70452,-0.6788 -12.89548,4.17875 -31.21823,14.88026 -8.11097,4.73726 -8.46427,5.1224 -8.48469,9.24933 -0.0206,4.17212 -3.0511,6.86615 -6.73027,5.98308 -1.53177,-0.36765 -4.51233,-0.76063 -6.62345,-0.87328 -5.96406,-0.31823 -7.85878,-3.34861 -7.20133,-11.51766 0.72369,-8.99212 4.00316,-12.15024 9.54001,-9.18701 2.93095,1.5686 5.76709,-0.0722 16.23678,-9.39376 6.77048,-6.02798 10.42991,-8.60638 12.21472,-8.60638 1.40152,0 2.54823,-0.38583 2.54823,-0.8574 0,-0.47157 -3.4875,-2.93291 -7.75,-5.46963 -12.19243,-7.25604 -23.53078,-15.01579 -24.6487,-16.8691 -1.2861,-2.13213 1.64243,-8.80387 3.86442,-8.80387 0.82395,0 9.89445,3.61178 20.15668,8.02617 10.26223,4.41439 18.84086,7.84391 19.06362,7.62114 0.48897,-0.48897 -6.56552,-4.4531 -20.68602,-11.62408 -5.775,-2.93278 -23.35993,-11.96931 -39.07763,-20.08116 -32.69442,-16.87349 -45.49572,-22.87816 -55.42237,-25.99683 -6.38265,-2.00525 -18.6236,-7.76552 -47.5,-22.35225 -5.775,-2.9172 -11.85,-5.95515 -13.5,-6.751 -1.65,-0.79585 -10.65,-5.32871 -20,-10.07304 -9.35,-4.74432 -18.575,-9.31358 -20.5,-10.1539 -1.925,-0.84032 -30.95,-15.41625 -64.5,-32.39096 -54.33154,-27.48919 -84.19999,-41.85743 -85.11349,-40.94394 -1.09864,1.09864 1.39663,4.97233 4.5451,7.05589 8.97329,5.93825 83.27032,45.5933 105.15434,56.12473 3.62227,1.74318 7.89727,4.09764 9.5,5.23215 2.66487,1.88635 10.51431,5.77552 22.57562,11.18557 2.56386,1.15001 4.81386,2.47952 5,2.95446 0.27785,0.70894 8.2317,4.74141 14.83843,7.52282 0.825,0.34733 2.175,1.02976 3,1.51653 0.825,0.48677 3.075,1.62142 5,2.52144 1.925,0.90003 5.75,3.04957 8.5,4.77677 2.75,1.72719 16.62262,9.37168 30.82804,16.98776 28.22928,15.13481 54.12886,31.7559 49.58229,31.81949 -1.84232,0.0258 -10.61368,-4.40897 -46.08866,-23.30209 -14.12308,-7.52162 -26.40351,-13.67567 -27.28984,-13.67567 -1.57791,0 -5.53112,-1.94298 -12.53183,-6.15932 -1.925,-1.15937 -7.325,-4.14555 -12,-6.63595 -4.675,-2.4904 -9.71015,-5.36643 -11.18922,-6.39118 -1.47907,-1.02475 -7.10407,-3.88485 -12.5,-6.35577 -5.39593,-2.47093 -10.93578,-5.12944 -12.31078,-5.90781 -1.375,-0.77836 -4.51939,-2.36751 -6.98754,-3.53143 -2.46815,-1.16393 -5.39315,-2.94642 -6.5,-3.9611 -1.79487,-1.64539 -38.19571,-20.8153 -94.51246,-49.77345 -10.725,-5.51481 -46.95,-23.87705 -80.5,-40.80499 -33.55,-16.92793 -64.04148,-32.77297 -67.75884,-35.2112 -10.11329,-6.63334 -15.89114,-16.01212 -12.02168,-19.51393 1.94628,-1.76136 8.44773,-2.93159 11.78052,-2.12044 z m 36.09501,22.47766 c 2.48031,2.74866 16.70089,9.89537 19.63279,9.86667 l 2.2722,-0.0222 -2.5,-2.05317 c -2.95957,-2.4306 -17.8854,-9.83529 -19.90499,-9.87484 -1.04276,-0.0204 -0.91386,0.51675 0.5,2.08357 z"
       id="path3782"
       inkscape:connector-curvature="0" />
    <path
       style="fill:#bac4cd"
       d="m -210.40454,77.4276 c 6.6332,2.34847 257.74112,127.26472 292.41651,145.46564 8.47908,4.45062 18.15408,9.23046 21.5,10.62186 3.34592,1.39141 10.19203,4.96558 15.21359,7.9426 5.02155,2.97703 9.57967,5.41278 10.12915,5.41278 1.76859,0 12.643,5.26026 15.80979,7.64764 1.68797,1.27253 6.05432,3.66728 9.703,5.32167 6.3487,2.87864 69.84939,35.17948 110.56926,56.24317 10.63771,5.50271 19.70952,9.61851 20.15958,9.14622 1.06563,-1.11826 7.23477,-24.1874 7.24289,-27.08432 0.003,-1.22409 -1.40002,-3.82725 -3.11877,-5.78479 -1.71875,-1.95755 -3.125,-3.74735 -3.125,-3.97733 0,-2.05413 2.80883,-5.59857 5.05798,-6.38263 1.53027,-0.53345 3.71824,-1.90585 4.86216,-3.04977 3.0984,-3.0984 6.53564,-2.6622 9.22084,1.17014 1.25245,1.7875 3.03167,3.802 3.95383,4.47667 3.96493,2.9008 2.96259,10.71885 -1.51842,11.84351 -1.3719,0.34433 -2.93958,1.16251 -3.48375,1.81819 -0.54416,0.65568 -1.69451,8.37403 -2.55633,17.15189 -0.86183,8.77786 -1.76272,17.14178 -2.00198,18.58651 -0.23927,1.44472 0.10512,3.35353 0.76532,4.24181 0.66019,0.88827 10.20035,5.56837 21.20035,10.40021 22.11035,9.71216 33.64404,16.2128 51.22048,28.869 10.05094,7.23733 12.11384,8.34623 14.26485,7.66799 1.38307,-0.43609 5.21467,-0.7958 8.51467,-0.79934 9.69489,-0.0104 14.84769,5.19023 16.1653,16.31536 0.74412,6.28291 -1.3242,10.30796 -7.00873,13.63931 -5.22228,3.06046 -11.68363,3.34557 -16.55934,0.7307 -3.19449,-1.71322 -4.244,-3.23899 -8.71298,-12.66687 -1.82265,-3.84511 -2.27658,-4.10893 -13.88425,-8.06955 -6.6,-2.25197 -16.5,-6.074 -22,-8.4934 -9.82678,-4.32271 -31.19448,-16.68117 -40.91057,-23.66149 -10.37265,-7.452 -9.7612,-7.48587 -26.43216,1.46386 -21.92162,11.76852 -23.15436,12.6462 -23.17258,16.49818 -0.008,1.7806 -0.34592,3.73259 -0.75,4.33776 -1.33497,1.99929 -4.68896,3.16682 -6.73469,2.34435 -1.1,-0.44224 -3.65686,-0.83571 -5.68191,-0.87437 -5.41379,-0.10334 -7.74942,-3.75649 -7.07777,-11.07028 0.70751,-7.70411 2.39181,-9.33888 8.79729,-8.53857 5.79712,0.7243 5.83943,0.69984 18.71981,-10.82112 5.23577,-4.68318 8.62217,-6.97146 10.41765,-7.0395 4.90679,-0.18595 3.51389,-2.46367 -4.35899,-7.12797 -21.12166,-12.51358 -25.31608,-15.61077 -25.31608,-18.69357 0,-3.10862 1.92022,-5.77927 4.15534,-5.77927 1.14673,0 10.41685,3.61405 20.60026,8.03122 16.84374,7.30616 21.44723,8.77161 18.59508,5.91946 -1.41809,-1.41809 -25.44956,-13.94558 -68.85068,-35.89153 -23.27777,-11.77049 -40.31909,-19.74738 -45.94945,-21.50852 -9.73807,-3.04599 -10.877,-3.58598 -64.62575,-30.64047 -20.11636,-10.12559 -37.58303,-18.86016 -38.81483,-19.41016 -1.23179,-0.55 -31.79795,-15.91887 -67.9248,-34.15304 -62.98219,-31.78877 -94.84886,-47.34696 -96.97721,-47.34696 -0.54669,0 -1.2952,0.78497 -1.66336,1.74438 -0.46465,1.21085 0.19082,2.44145 2.14301,4.02339 5.196,4.21054 42.89437,24.66005 101.81239,55.22822 31.36484,16.27287 35.0161,18.2112 36.31816,19.28001 0.72499,0.59511 6.11101,3.27088 11.96893,5.94616 5.85793,2.67527 11.33976,5.48436 12.18184,6.24243 1.77768,1.60031 14.33469,7.53541 15.94281,7.53541 0.59855,0 1.08826,0.43194 1.08826,0.95986 0,0.52792 1.79275,1.49698 3.98389,2.15346 2.19115,0.65648 4.73589,2.02455 5.65499,3.04014 0.9191,1.0156 2.10499,1.84654 2.6353,1.84654 0.53031,0 3.49806,1.5351 6.59501,3.41134 3.09695,1.87623 15.80935,8.79443 28.24979,15.37376 21.52034,11.3814 30.66331,16.86535 39.17713,23.49846 2.08787,1.62665 3.57838,3.17528 3.31226,3.44141 -0.26613,0.26612 -15.53197,-7.43813 -33.9241,-17.12055 -18.39213,-9.68243 -34.09281,-17.60442 -34.89039,-17.60442 -0.79759,0 -6.13999,-2.64357 -11.87202,-5.87461 -5.73202,-3.23103 -13.34686,-7.52209 -16.92186,-9.53568 -3.575,-2.0136 -11.675,-6.1517 -18,-9.19578 -6.325,-3.04409 -12.175,-5.95365 -13,-6.4657 -0.825,-0.51205 -3.80489,-2.00513 -6.62198,-3.31797 -2.81709,-1.31283 -5.42168,-2.87188 -5.78797,-3.46455 -0.80369,-1.3004 -12.6447,-7.6153 -70.09005,-37.37957 -14.3,-7.40929 -57.5,-29.36141 -96,-48.7825 -38.5,-19.42108 -73.01981,-37.24187 -76.7107,-39.60175 -6.7335,-4.30528 -12.30691,-10.61172 -13.46852,-15.23995 -1.35831,-5.41192 7.08507,-7.80459 16.17922,-4.58482 z m 26.5,17.34564 c 0,2.5442 25.32954,16.09724 30.08444,16.09724 2.258,0 2.25002,-0.0415 -0.5757,-2.99087 -2.76916,-2.89039 -18.12234,-11.44783 -23.41697,-13.05198 -3.6203,-1.09687 -6.09177,-1.11893 -6.09177,-0.0544 z"
       id="path3780"
       inkscape:connector-curvature="0" />
    <path
       style="fill:#b1bac5"
       d="m -210.26996,77.79051 c 2.82403,1.03384 10.24903,4.50244 16.5,7.708 10.30277,5.28334 11.09039,5.87707 8.42384,6.35012 l -2.94159,0.52185 3.27205,2.75314 c 5.04348,4.24366 15.57091,10.19717 26.88156,15.20216 5.64874,2.49959 10.48624,4.5447 10.75,4.5447 1.38114,0 0.0909,-2.2041 -2.99297,-5.11289 -1.90989,-1.80146 -3.32894,-3.41897 -3.15345,-3.59447 0.56535,-0.56534 17.70511,7.76071 90.62598,44.02377 61.07773,30.37354 139.33417,69.88285 156.5,79.0121 2.75,1.46253 8.825,4.44087 13.5,6.61853 4.675,2.17766 10.525,5.16298 13,6.63403 2.475,1.47105 8.51408,4.41666 13.42017,6.5458 4.90609,2.12913 9.6671,4.54712 10.58002,5.37331 0.91293,0.82618 8.37385,4.81354 16.57984,8.86079 8.20598,4.04726 32.91997,16.58526 54.91997,27.86223 65.73725,33.69622 68.58999,35.08681 69.70062,33.97618 0.55966,-0.55966 2.5813,-6.96204 4.49252,-14.2275 l 3.47495,-13.20992 -3.08404,-4.29446 c -1.69623,-2.36195 -3.08405,-5.16365 -3.08405,-6.22599 0,-2.17064 2.94345,-5.24151 5.02402,-5.24151 0.7516,0 2.59938,-1.18113 4.10618,-2.62474 3.37462,-3.23309 7.1372,-2.66939 9.27285,1.38923 0.79169,1.50453 2.40097,3.54095 3.57618,4.52537 1.61773,1.3551 2.06194,2.69107 1.82876,5.5 -0.26243,3.16129 -0.85788,3.97889 -4.02519,5.52683 -4.26332,2.08359 -3.87341,0.5632 -6.2669,24.43688 -0.89623,8.93947 -1.34617,16.71204 -0.99986,17.27238 0.83006,1.34308 9.61358,5.7282 21.98396,10.97537 19.95188,8.46303 34.18238,16.4771 50.5,28.43962 12.10082,8.87117 12.25372,8.93515 17.89713,7.48879 9.92139,-2.54278 17.85309,1.96336 20.70127,11.76075 2.02811,6.97645 1.24467,11.1041 -2.8588,15.0621 -9.49648,9.15982 -23.40458,5.8781 -26.62973,-6.28348 -0.58793,-2.21699 -1.64067,-4.7646 -2.33942,-5.66135 -0.69875,-0.89674 -6.67045,-3.41856 -13.27045,-5.60403 -21.38214,-7.08031 -33.40256,-13.02704 -56.44523,-27.92453 -7.94487,-5.13649 -15.4363,-9.58783 -16.64761,-9.89185 -1.55959,-0.39143 -7.12097,2.12267 -19.05477,8.61396 -17.03597,9.26659 -21.74972,12.79969 -20.70594,15.51975 0.3154,0.82191 -0.19102,2.66112 -1.12537,4.08713 -1.43048,2.18318 -2.19817,2.49363 -4.85995,1.96539 -1.73862,-0.34504 -4.59478,-0.60309 -6.34701,-0.57345 -2.06405,0.0349 -3.92207,-0.7363 -5.27656,-2.19017 -1.80885,-1.94158 -2.02103,-3.10926 -1.5741,-8.66251 0.69098,-8.58568 1.46417,-9.36808 8.47407,-8.575 l 5.63831,0.6379 10.14436,-9.10517 c 6.936,-6.22547 10.91773,-9.10517 12.58964,-9.10517 1.3449,0 2.95716,-0.61679 3.5828,-1.37064 0.9202,-1.10878 -1.87444,-3.1832 -14.62755,-10.85782 -16.85821,-10.14499 -19.11498,-12.40597 -17.258,-17.2902 1.40523,-3.69602 2.86863,-3.33051 24.24396,6.05541 16.40816,7.20483 21.3288,8.59273 17.68943,4.98943 -1.63258,-1.61639 -30.28291,-16.61706 -74.44048,-38.97537 -19.3293,-9.787 -33.5569,-16.32125 -40,-18.37064 -5.5,-1.74941 -16.3,-6.39664 -24,-10.32717 -22.77177,-11.62406 -72.6375,-36.58106 -77.5,-38.78751 -4.31205,-1.95667 -174.23621,-87.69113 -184.85473,-93.26761 -2.8299,-1.48617 -5.14527,-2.32826 -5.14527,-1.87132 0,0.45694 1.30555,1.37158 2.90122,2.03253 3.83784,1.58968 7.33979,5.41725 7.48328,8.1791 0.0804,1.54666 1.63663,3.12456 5.1155,5.18658 14.03986,8.32182 55.86141,30.91868 91.24776,49.30265 21.86373,11.35867 41.32058,21.48924 43.23743,22.51236 1.91686,1.02312 3.85938,1.86022 4.31672,1.86022 0.45734,0 2.26401,1.08242 4.01481,2.40538 1.7508,1.32296 8.35828,4.96151 14.68328,8.08566 6.325,3.12415 14.875,7.39285 19,9.48599 4.125,2.09314 8.175,4.07673 9,4.40798 0.825,0.33124 2.175,1.04421 3,1.58438 0.825,0.54017 3.075,1.65919 5,2.48672 1.925,0.82753 6.20986,3.22356 9.52192,5.32451 3.31205,2.10096 15.68705,8.9467 27.5,15.21277 11.81294,6.26607 25.30308,13.77754 29.97808,16.69217 8.9081,5.55374 15.15384,10.30104 13.56356,10.30947 -0.87403,0.005 -50.01468,-25.40134 -59.24163,-30.62823 -2.29794,-1.30174 -4.90337,-2.3668 -5.78984,-2.3668 -1.66483,0 -6.08652,-2.21683 -13.03209,-6.5337 -2.2,-1.36736 -6.025,-3.4658 -8.5,-4.6632 -2.475,-1.19739 -7.77475,-4.14448 -11.77722,-6.54909 -4.00247,-2.4046 -11.20247,-6.15811 -16,-8.34112 -4.79753,-2.18301 -9.62278,-4.49063 -10.72278,-5.12803 -1.1,-0.6374 -4.5414,-2.39895 -7.64755,-3.91454 -3.10616,-1.5156 -5.80616,-3.15887 -6,-3.65171 -0.19385,-0.49285 -17.31381,-9.73822 -38.04437,-20.54527 -36.26924,-18.90753 -53.36096,-27.62101 -154.30808,-78.66736 -25.3,-12.79356 -48.41812,-24.8593 -51.37359,-26.81277 -8.67559,-5.73426 -14.09164,-14.65655 -10.85913,-17.88907 2.34479,-2.34478 9.52158,-2.52417 15.3673,-0.38411 z m 588.8243,316.01344 c 0.36253,0.58659 1.4201,1.05222 2.35014,1.03473 1.48464,-0.0279 1.45585,-0.2097 -0.23602,-1.48967 -2.05508,-1.55476 -3.20345,-1.30764 -2.11412,0.45494 z m 8.01082,4.86957 c 0.67194,0.67193 3.5303,-1.82222 3.5303,-3.08047 0,-0.5679 -0.90276,-0.21556 -2.00613,0.78298 -1.10337,0.99854 -1.78925,2.03241 -1.52417,2.29749 z"
       id="path3778"
       inkscape:connector-curvature="0" />
    <path
       style="fill:#a8afb6"
       d="m -214.90454,76.55988 c 1.375,0.22938 8.125,3.17076 15,6.53642 10.12716,4.95776 12.05842,6.22976 10.17376,6.70085 l -2.32623,0.58146 2.32623,2.09591 c 5.01877,4.52186 13.07983,9.22578 30.86342,18.00993 22.63314,11.17957 36.30402,19.7081 35.54882,22.17701 -0.74824,2.44612 2.60412,4.56219 37.914,23.93191 27.56152,15.11925 42.83219,23.15954 105,55.28444 8.8,4.54735 17.125,9.02802 18.5,9.95703 2.35469,1.59093 9.55594,5.12897 20.16157,9.90557 2.56386,1.15472 4.81386,2.45216 5,2.8832 0.37676,0.87247 12.07156,6.65525 15.58843,7.70808 1.2375,0.37046 2.25,1.03476 2.25,1.47622 0,0.44145 2.025,1.36961 4.5,2.06257 2.475,0.69296 4.5,1.60848 4.5,2.0345 0,0.42602 2.5875,2.24285 5.75,4.0374 6.15392,3.49201 7.7397,4.35194 36.52217,19.80505 17.91367,9.61771 29.88218,16.94574 31.22483,19.1182 0.34157,0.55267 0.41883,1.00485 0.17169,1.00485 -0.24714,0 -13.21119,-6.75794 -28.80901,-15.01765 -15.59783,-8.25971 -29.48468,-15.28825 -30.85968,-15.61897 -1.375,-0.33073 -6.25713,-2.68528 -10.84917,-5.23235 -4.59205,-2.54707 -9.99205,-5.46482 -12,-6.48389 -2.00796,-1.01907 -7.70083,-4.24943 -12.65083,-7.17858 -4.95,-2.92914 -12.6,-6.90771 -17,-8.84127 -9.59309,-4.21562 -19.25305,-9.30473 -22,-11.59014 -1.1,-0.91517 -4.7,-3.04323 -8,-4.72901 -11.55325,-5.90189 -34.14422,-17.67342 -50.5,-26.31416 -9.075,-4.79431 -52.95,-27.08012 -97.5,-49.52401 -44.55,-22.4439 -83.25,-42.2396 -86,-43.99045 -8.59479,-5.47207 -15.33027,-14.15229 -13.89132,-17.90214 0.49525,-1.29061 6.76922,-3.85933 8.39132,-3.43562 0.275,0.0718 1.625,0.31827 3,0.54764 z m 70,33.9984 c 3.48943,1.23271 60.08995,29.07541 122,60.01376 56.47812,28.22384 77.8514,39.06345 115.5,58.57658 2.75,1.42532 7.25,3.54539 10,4.71127 8.09166,3.43053 9.83757,4.29809 13,6.45986 3.20581,2.19141 8.0835,4.61159 18.5,9.17917 3.575,1.56763 9.02959,4.54252 12.12131,6.61089 3.09172,2.06837 5.9531,3.76067 6.35863,3.76067 0.90496,0 14.68231,6.93556 79.71116,40.12683 27.8801,14.23024 51.36067,25.87317 52.17904,25.87317 1.53436,0 2.63808,-3.13838 6.56475,-18.66661 2.67703,-10.58647 2.6372,-11.14792 -1.06135,-14.96386 -3.77588,-3.89573 -3.41368,-7.7478 0.90405,-9.61461 1.49732,-0.64738 3.99444,-2.20708 5.54914,-3.46599 1.55469,-1.25891 3.28619,-2.28893 3.84777,-2.28893 0.56158,0 3.21917,2.3625 5.90577,5.25 6.57799,7.06991 6.76288,12.729 0.4541,13.89947 -3.12791,0.58032 -4.30164,4.46122 -5.54986,18.35053 -0.64257,7.15 -1.41214,15.56202 -1.71016,18.69338 l -0.54186,5.69338 6.38376,3.0363 c 3.51106,1.66997 12.99324,5.92771 21.0715,9.46165 17.30135,7.5687 28.89627,14.22342 45.30874,26.00425 6.59807,4.73607 12.67306,8.60853 13.5,8.60546 0.82693,-0.003 3.23236,-0.48563 5.34539,-1.07237 9.35806,-2.59851 17.71042,2.51631 20.25933,12.40639 1.82088,7.06527 0.77075,11.33934 -3.71303,15.11219 -9.11364,7.66863 -22.20929,4.64352 -24.95069,-5.76363 -1.74609,-6.62866 -3.44179,-8.47703 -9.35348,-10.1956 -9.42211,-2.73908 -27.7578,-10.02799 -37.28079,-14.82008 -8.66808,-4.36189 -27.18287,-15.68326 -35.61113,-21.7754 -6.73769,-4.87016 -8.43253,-4.73255 -20.45398,1.66066 -15.52688,8.25746 -24.55903,13.5809 -25.98811,15.31707 -0.6875,0.83523 -1.25,2.9525 -1.25,4.70503 0,4.03677 -2.12421,5.88035 -5.74425,4.98538 -1.51566,-0.37472 -4.28068,-0.76517 -6.14448,-0.86768 -5.48101,-0.30146 -7.39082,-3.76802 -6.40612,-11.62797 0.95462,-7.61975 2.51367,-9.10427 7.62156,-7.25723 1.87846,0.67926 4.22711,0.92353 5.21922,0.54282 0.99211,-0.38071 6.30925,-4.64161 11.81587,-9.46868 7.14295,-6.26146 10.88745,-8.86229 13.06693,-9.0759 5.56416,-0.54536 4.1891,-3.07736 -4.14587,-7.63408 -4.28057,-2.34018 -11.49368,-6.58446 -16.02912,-9.43172 -7.08333,-4.44677 -8.33529,-5.65141 -8.87756,-8.54196 -0.45204,-2.40958 -0.17478,-3.82164 0.97646,-4.97287 1.47701,-1.47702 3.14891,-0.94137 20.55896,6.58672 18.53724,8.01549 22.0884,9.17893 22.0884,7.23664 0,-1.23779 -3.66115,-3.31036 -32,-18.11515 -46.21803,-24.14522 -73.67861,-37.52463 -84.00202,-40.92767 -5.7037,-1.88018 -16.24907,-6.39864 -23.43417,-10.04103 -41.32617,-20.94976 -75.15844,-37.90432 -78.37735,-39.27772 -9.06364,-3.86712 -167.78399,-84.71905 -175.29332,-89.29417 -4.61623,-2.81248 -13.11814,-7.50094 -18.89314,-10.41879 -5.775,-2.91786 -11.93053,-6.46674 -13.67895,-7.88641 -1.74842,-1.41967 -4.22342,-3.34867 -5.5,-4.28667 -2.40828,-1.76956 -2.36986,-2.00716 0.17895,-1.10674 z m 522.75,282.8122 c -0.1375,0.55 1.1,1.12269 2.75,1.27264 2.86899,0.26073 2.91443,0.20556 1.04044,-1.26348 -2.08626,-1.63544 -3.38309,-1.63857 -3.79044,-0.009 z m 8.8067,3.72251 c -0.85618,1.22237 -1.5567,2.58275 -1.5567,3.02305 0,1.20624 4.74952,-2.15044 5.38465,-3.80555 0.88096,-2.29576 -2.09845,-1.68671 -3.82795,0.7825 z"
       id="path3776"
       inkscape:connector-curvature="0" />
    <path
       style="fill:#878e98"
       d="m -210.40454,79.30447 c 2.75,1.32455 4.4375,2.44376 3.75,2.48714 -3.23468,0.2041 -0.24771,4.11097 4.71819,6.17126 1.35751,0.56321 7.65751,4.07512 14,7.80425 6.3425,3.72912 16.03181,9.15455 21.53181,12.0565 13.19303,6.961 19.4957,11.19693 19.49807,13.10436 0.004,2.96156 3.7274,5.16828 67.12754,39.78045 15.19409,8.29493 42.64409,22.80074 61,32.23512 47.17938,24.24875 56.16107,28.98317 57.95313,30.5482 0.86831,0.7583 1.83014,1.37873 2.13741,1.37873 1.4091,0 21.78385,10.07599 21.78385,10.77284 0,0.43278 2.28761,1.67344 5.08357,2.75702 2.79597,1.08358 5.55107,2.53264 6.12245,3.22014 0.57138,0.6875 2.06062,1.25 3.30944,1.25 1.24881,0 2.50778,0.61818 2.79771,1.37373 0.28994,0.75555 2.16413,1.68083 4.16487,2.05617 2.00075,0.37535 4.38669,1.55717 5.30208,2.62627 0.9154,1.06911 2.01826,1.94383 2.4508,1.94383 0.43255,0 4.94504,2.38518 10.02776,5.30039 5.08273,2.91522 18.25323,10.14991 29.26779,16.07709 11.01456,5.92718 21.13956,11.6691 22.5,12.7598 l 2.47353,1.98311 -3.5,-1.69969 c -1.925,-0.93483 -13.71315,-7.03692 -26.19588,-13.5602 -12.48274,-6.52327 -23.52011,-11.8605 -24.52749,-11.8605 -1.00739,0 -2.71925,-0.60896 -3.80412,-1.35324 -2.09899,-1.44002 -8.48064,-5.07914 -17.47251,-9.96365 -9.81776,-5.33314 -13.39288,-7.32059 -19.84607,-11.03266 -3.49033,-2.00775 -6.75894,-3.65045 -7.26357,-3.65045 -0.50462,0 -1.69889,-0.4335 -2.65393,-0.96333 -0.95504,-0.52983 -3.53643,-1.82547 -5.73643,-2.87921 -9.66536,-4.62943 -13.11559,-6.48865 -14.80786,-7.97949 -3.69525,-3.25541 -71.74695,-38.48433 -154.18494,-79.81829 -46.74604,-23.43821 -87.61963,-44.39877 -90.83019,-46.57902 -5.85301,-3.9747 -11.67701,-11.45666 -11.67701,-15.00119 0,-2.03265 3.6392,-3.78662 7.8151,-3.7666 1.47669,0.007 4.9349,1.09658 7.6849,2.42112 z m 117,57.74405 c 3.17396,1.07929 170.40251,84.36509 181.5,90.39349 3.575,1.94202 6.9275,3.95788 7.45,4.4797 0.5225,0.52183 1.52635,0.94877 2.23078,0.94877 1.54503,0 15.86601,6.93554 22.81922,11.05117 2.75,1.62773 5.675,3.22703 6.5,3.554 10.11063,4.00708 14.564,6.10305 17.27137,8.12872 1.77575,1.32863 9.07863,5.23444 16.22863,8.67958 12.4651,6.00616 28.16834,14.55325 24,13.06292 -27.26639,-9.74869 -37.38325,-14.15131 -50.5,-21.97641 -3.025,-1.80463 -7.975,-4.30589 -11,-5.55836 -3.025,-1.25247 -6.21043,-2.87671 -7.07874,-3.60942 -0.86831,-0.73271 -2.27012,-1.3322 -3.11514,-1.3322 -0.84502,0 -2.60959,-0.80977 -3.92126,-1.79949 -1.31167,-0.98971 -5.36731,-3.04195 -9.01253,-4.56052 -3.64522,-1.51858 -8.99618,-4.28699 -11.89103,-6.15204 -2.89485,-1.86504 -6.5188,-3.66673 -8.05323,-4.00375 -1.53443,-0.33702 -3.26453,-1.18468 -3.84466,-1.8837 -0.58013,-0.69901 -2.97372,-1.88256 -5.3191,-2.63011 -2.34537,-0.74755 -5.3375,-2.1717 -6.64917,-3.16478 -1.31167,-0.99309 -2.82609,-1.80561 -3.36538,-1.80561 -0.53929,0 -24.6661,-12.10329 -53.61514,-26.8962 -28.94904,-14.79291 -63.43462,-32.35431 -76.63462,-39.02532 -13.2,-6.67102 -25.11477,-13.24273 -26.47727,-14.6038 -2.66217,-2.65938 -2.21639,-2.89271 2.47727,-1.29664 z m 396.3,142.02196 c 0.66,0.66 1.2,1.70037 1.2,2.31194 0,0.61157 1.35,2.11004 3,3.32994 4.96701,3.67227 3.83928,11.15812 -1.68095,11.15812 -1.54815,0 -2.44425,0.72286 -2.78926,2.25 -0.97591,4.3197 -4.31808,39.13812 -3.86913,40.30808 0.45385,1.1827 10.17552,5.96314 22.33934,10.98493 18.10111,7.47297 35.75191,17.74988 58.45184,34.0327 3.48233,2.49789 5.55966,3.35993 7,2.90482 11.55853,-3.65221 20.79624,0.29533 23.44673,10.01947 2.23775,8.20984 0.85946,13.25036 -4.53479,16.58419 -5.01258,3.09794 -9.24975,4.0236 -13.35626,2.91783 -7.18261,-1.93407 -12.13242,-10.68486 -7.5577,-13.36128 3.21197,-1.87915 8.55943,-7.81676 7.94101,-8.81738 -0.72056,-1.16589 -5.18661,1.54647 -7.98739,4.85099 l -2.09656,2.47363 -3.79299,-2.57399 c -2.08614,-1.4157 -4.58966,-2.57399 -5.56338,-2.57399 -3.15513,0 -26.14151,-9.1047 -37.95051,-15.03186 -6.325,-3.17463 -18.02066,-10.09118 -25.99037,-15.3701 -9.96678,-6.60174 -15.39709,-9.59804 -17.39486,-9.59804 -2.7368,0 -16.62197,6.84314 -30.11477,14.84171 -8.51827,5.04966 -9.5,6.04774 -9.5,9.65829 0,1.90629 -0.79457,3.9091 -1.97448,4.9769 -1.69265,1.53183 -2.3958,1.61236 -4.92628,0.56421 -1.62349,-0.67248 -3.77248,-0.9671 -4.77552,-0.65472 -2.21022,0.68832 -3.32934,-0.037 -5.62655,-3.64658 -1.46792,-2.30654 -1.55153,-3.12832 -0.5087,-5 0.68635,-1.2319 1.26223,-3.81481 1.27973,-5.73981 l 0.0318,-3.5 5.5,-0.0578 c 3.025,-0.0318 6.06324,-0.1443 6.75164,-0.25 0.6884,-0.1057 5.48672,-4.01718 10.66293,-8.69218 6.47118,-5.84458 10.18489,-8.5 11.88758,-8.5 1.36195,0 3.51303,-0.8395 4.78016,-1.86556 l 2.30387,-1.86557 -3.94309,-2.45466 c -2.1687,-1.35006 -5.96809,-3.46596 -8.44309,-4.70199 -2.475,-1.23603 -8.30355,-4.59904 -12.95233,-7.47337 -8.21211,-5.07752 -8.46014,-5.34279 -8.72741,-9.33412 -0.17187,-2.56654 0.18966,-4.28643 0.96343,-4.58335 0.68119,-0.2614 7.30852,2.17477 14.72741,5.4137 21.58162,9.42207 26.13987,11.11395 27.16939,10.08443 1.3316,-1.3316 -4.11513,-5.65786 -12.33437,-9.797 -3.76537,-1.89621 -6.84612,-3.66372 -6.84612,-3.92779 0,-0.26408 3.86103,1.42908 8.58007,3.76257 l 8.58007,4.24271 1.83374,-2.25434 c 1.00855,-1.23988 3.03555,-7.31488 4.50444,-13.5 1.46889,-6.18511 3.04751,-11.63799 3.50805,-12.11752 1.2134,-1.26341 0.0964,-3.715 -3.21029,-7.04591 -3.96419,-3.99323 -3.50837,-7.50967 1.26365,-9.74863 1.95786,-0.91859 4.15046,-2.38193 4.87245,-3.25188 1.55966,-1.87928 4.19859,-2.05095 5.86782,-0.38172 z M 296.06498,311.24 c 0.70731,0.70731 1.0106,-0.0515 0.96709,-2.41952 -0.0596,-3.24171 -0.12177,-3.30393 -1.03048,-1.03048 -0.64038,1.60213 -0.61897,2.76764 0.0634,3.45 z m -15.96952,36.63048 c 0,0.55 0.45,1 1,1 0.55,0 1,-0.45 1,-1 0,-0.55 -0.45,-1 -1,-1 -0.55,0 -1,0.45 -1,1 z m -7,10.58333 c 0,1.76593 2.15276,1.45839 2.77083,-0.39583 0.21771,-0.65313 -0.31666,-1.1875 -1.1875,-1.1875 -0.87083,0 -1.58333,0.7125 -1.58333,1.58333 z m 104.3229,34.01759 c -0.71792,1.87087 1.23302,3.36203 4.4271,3.38377 2.68592,0.0183 2.93158,-1.74681 0.5,-3.59264 -2.36788,-1.79748 -4.18678,-1.72037 -4.9271,0.20887 z m 17.70606,10.36002 c -1.70166,1.07616 -1.38977,1.526 1.72104,2.48222 1.8308,0.56276 2.25,0.30644 2.25,-1.37577 0,-2.19888 -1.55748,-2.63283 -3.97104,-1.10645 z M 250.65433,310.42565 c 1.83031,1.46637 1.7984,1.48719 -0.55887,0.36454 -3.06103,-1.45781 -3.62834,-1.91971 -2.3578,-1.91971 0.53655,0 1.84905,0.69982 2.91667,1.55517 z"
       id="path3774"
       inkscape:connector-curvature="0" />
    <path
       style="fill:#7b8592"
       d="m -215.19791,81.80555 c 1.33469,3.39779 2.3136,4.22866 7.16956,6.08531 6.2845,2.40284 7.13391,2.81519 19.12885,9.28623 4.67777,2.52356 9.42329,5.44378 10.54561,6.48938 1.12231,1.0456 2.69504,2.15872 3.49496,2.4736 1.16901,0.46018 1.18265,0.58801 0.0695,0.65146 -0.80118,0.0457 -0.18899,1.02725 1.45254,2.32895 3.66829,2.90889 52.87714,30.89165 72.53985,41.25 15.85326,8.35153 19.23916,10.4141 17.18449,10.4682 -0.66439,0.0175 -29.91439,-14.32204 -65,-31.86561 -65.03023,-32.51655 -71.14071,-36.04173 -74.82555,-43.16743 -2.85058,-5.51242 -1.56954,-7.93516 4.19576,-7.93516 1.97969,0 2.81971,0.81731 4.0444,3.93507 z M 5.09546,187.2223 c 15.19568,6.90948 66.35257,32.85789 67.97251,34.47783 1.30309,1.30309 1.00853,1.39283 -2.4976,0.76093 -2.1862,-0.39402 -4.49461,-1.39056 -5.12979,-2.21453 -0.63518,-0.82398 -2.21018,-1.81246 -3.5,-2.19662 -7.20438,-2.1458 -69.7749,-35.02939 -66.84512,-35.13008 0.275,-0.009 4.775,1.92666 10,4.30247 z m 28.5,33.73895 c 0.55,0.54492 1.9,1.63311 3,2.4182 1.1,0.78508 1.55,1.4395 1,1.45426 -0.55,0.0148 -2.35,-1.07975 -4,-2.43223 -1.65,-1.35249 -2.55,-2.45276 -2,-2.44504 0.55,0.008 1.45,0.45989 2,1.00481 z m 48.3189,4.51646 c 2.3754,1.42357 4.15251,2.75469 3.94915,2.95806 -0.7959,0.79589 -7.85088,-1.99933 -9.41868,-3.73173 -2.4924,-2.75407 0.22428,-2.3698 5.46953,0.77367 z m -38.0689,1.42393 c 1.2375,0.49742 2.25,1.14389 2.25,1.43662 0,0.97061 -1.59154,0.55204 -3.55887,-0.93598 -2.21231,-1.67331 -1.90296,-1.79163 1.30887,-0.50064 z m 47.75,4.03092 c 3.19465,2.04021 3.20312,2.04414 11.25,5.22843 2.8875,1.14264 5.25,2.39732 5.25,2.78819 0,2.18618 -19.43377,-6.16075 -20.43824,-8.77835 -0.66542,-1.73407 0.33243,-1.54106 3.93824,0.76173 z m 22,10.13287 c 1.1,0.62377 2.225,1.45951 2.5,1.8572 0.275,0.39769 2.1875,1.42568 4.25,2.28443 2.0625,0.85875 3.75,2.03433 3.75,2.61239 0,1.44837 -1.00116,1.22343 -4.5,-1.01105 -1.65,-1.05374 -3.675,-2.18246 -4.5,-2.50826 -0.825,-0.3258 -2.5125,-0.99611 -3.75,-1.48958 -2.39797,-0.95621 -3.08678,-2.96044 -1,-2.90967 0.6875,0.0167 2.15,0.54077 3.25,1.16454 z m -41.00708,0.7936 c 0.35034,0.56686 -0.0511,0.7345 -0.94098,0.39301 -1.73242,-0.66479 -2.04939,-1.38156 -0.61096,-1.38156 0.51754,0 1.21592,0.44485 1.55194,0.98855 z m 7.00708,3.01145 c 0.33992,0.55 -0.057,1 -0.88197,1 -0.825,0 -1.77811,-0.45 -2.11803,-1 -0.33992,-0.55 0.057,-1 0.88197,-1 0.825,0 1.77811,0.45 2.11803,1 z m 6.25219,2.70602 c 1.23871,0.23851 2.68934,1.25047 3.22362,2.24879 0.53429,0.99832 2.13238,2.10651 3.55131,2.46264 2.42335,0.60822 11.57476,6.58255 10.08308,6.58255 -0.84984,0 -6.75671,-3.19838 -12.1102,-6.55728 -2.2,-1.38033 -5.35,-3.15201 -7,-3.93706 -2.94492,-1.40117 -2.21598,-1.65998 2.25219,-0.79964 z m 49.28321,4.1298 c 3.04447,1.4653 7.54447,4.05507 10,5.75505 2.45553,1.69998 8.7396,5.02366 13.9646,7.38596 9.54293,4.3145 13.85656,6.95142 9,5.50168 -4.9563,-1.4795 -22.14678,-9.4488 -24.67974,-11.44123 -1.42449,-1.12051 -2.92939,-2.03728 -3.34423,-2.03728 -0.41484,0 -3.83451,-1.8 -7.59927,-4 -7.66848,-4.4812 -5.8697,-5.26886 2.65864,-1.16418 z m 166.33312,26.86603 c 1.14229,1.14229 0.66235,2.05682 -1.35648,2.58475 -1.09338,0.28593 -2.41213,1.63553 -2.93057,2.99912 -0.70634,1.85781 -1.83732,2.58371 -4.51204,2.89597 -2.18044,0.25455 -3.56943,-0.011 -3.56943,-0.68249 0,-1.63693 2.17007,-3.4992 4.07756,-3.4992 0.92265,0 2.25814,-0.69957 2.96775,-1.5546 1.72134,-2.07408 4.53997,-3.52679 5.32321,-2.74355 z m 3.50183,5.75683 c 4.58413,1.65944 5.34374,3.40648 4.25727,9.79132 -0.0702,0.4125 -1.67505,0.75 -3.56635,0.75 -3.96566,0 -3.27566,-2.89833 -6.16684,25.90357 l -1.747,17.40357 2.92628,2.3458 c 1.60946,1.29019 6.07629,3.5469 9.92629,5.0149 11.45281,4.36694 28.13417,12.10638 37.62347,17.45569 9.79005,5.51884 30.91418,20.27766 32.17622,22.48059 0.971,1.6949 4.883,1.78014 11.50856,0.25078 4.47941,-1.03397 5.42056,-0.92255 9.69806,1.14815 3.64796,1.76595 5.15092,3.23642 6.53643,6.3951 4.23714,9.65985 3.23803,15.4111 -3.3887,19.50665 -7.21981,4.46208 -16.14178,3.52004 -20.09334,-2.1216 -1.99977,-2.85507 -2.0055,-6.67529 -0.0112,-7.44058 0.85225,-0.32704 3.38354,-2.35672 5.62509,-4.5104 3.89612,-3.7434 4.15913,-3.84015 5.97409,-2.19763 2.14433,1.94059 4.54226,0.60845 3.55163,-1.97308 -0.9241,-2.40818 -6.01078,-2.95799 -9.95688,-1.07622 l -3.53115,1.68389 -3.01386,-3.3731 c -3.01054,-3.36938 -3.01625,-3.37095 -5.1677,-1.42391 -1.31384,1.189 -1.95933,2.69295 -1.65512,3.85627 0.4428,1.69325 0.0853,1.84032 -3.18846,1.3117 -5.01774,-0.81025 -24.80521,-8.40902 -36.28311,-13.93343 -9.36706,-4.50844 -30.52552,-17.5275 -36.07635,-22.19822 -1.60482,-1.35037 -4.64723,-2.97335 -6.76091,-3.60662 -3.69461,-1.10693 -4.26266,-0.92941 -14.70494,4.59542 -14.53361,7.68948 -26.30276,14.59857 -27.12266,15.92238 -0.368,0.59418 -0.90987,2.87443 -1.20415,5.06722 -0.56109,4.18083 -2.48154,5.4606 -5.84347,3.89402 -0.93038,-0.43353 -3.26659,-0.80909 -5.19159,-0.83458 -2.85114,-0.0377 -3.55924,-0.46346 -3.81955,-2.29633 -0.17575,-1.2375 -0.73825,-2.25 -1.25,-2.25 -2.51554,0 1.57336,-6.8228 4.9021,-8.17972 1.19774,-0.48824 0.89279,-0.69951 -1.08255,-0.75 -1.6952,-0.0433 -2.75,-0.62299 -2.75,-1.51126 0,-2.28283 1.87809,-2.85216 5.06036,-1.53402 4.30548,1.78339 7.77508,-0.0226 18.70813,-9.73806 5.13854,-4.56627 10.23188,-8.28694 11.34425,-8.28694 1.11031,0 2.86185,-0.45122 3.89231,-1.0027 1.25242,-0.67028 2.07903,-0.67028 2.49328,0 1.1266,1.82288 5.65174,1.14482 6.19383,-0.9281 0.2777,-1.06195 1.08553,-1.708 1.79517,-1.43569 0.90981,0.34913 1.2187,-0.41448 1.04758,-2.58975 -0.32814,-4.17132 -1.27946,-4.85349 -3.11461,-2.23343 -1.60911,2.29733 -5.19505,2.85349 -8.18387,1.26929 -0.95504,-0.50621 -4.66143,-2.32855 -8.23643,-4.04964 -12.42553,-5.98194 -22.5,-12.51269 -22.5,-14.58556 0,-1.06943 -0.36406,-2.50692 -0.80902,-3.19442 -0.92324,-1.42649 -0.0882,-3.25 1.48819,-3.25 0.58363,0 9.36064,3.6 19.50446,8 10.14383,4.4 19.31476,8 20.37985,8 2.34289,0 2.53479,-2.25859 0.34622,-4.07494 -1.31286,-1.08958 -1.35647,-1.50347 -0.25,-2.37245 2.92534,-2.29743 3.79155,-4.52039 5.87446,-15.07555 1.19138,-6.03738 2.79608,-11.68749 3.566,-12.5558 0.76991,-0.86831 1.39984,-2.10581 1.39984,-2.75 0,-0.64419 0.4875,-1.17126 1.08333,-1.17126 2.42516,0 0.047,-2.50766 -2.46731,-2.60162 -5.87263,-0.21948 -5.92679,-4.39838 -0.057,-4.39838 2.96269,0 3.44098,-0.33263 3.44098,-2.39301 0,-1.31616 0.7118,-2.66616 1.58179,-3 0.86998,-0.33385 1.65748,-0.5533 1.75,-0.48768 0.0925,0.0656 1.68487,0.66834 3.53856,1.33937 z m -9.79427,25.7323 c -0.0877,3.10082 1.4255,4.55027 2.31914,2.22149 0.33263,-0.86683 0.57054,-3.90174 0.5287,-6.74426 l -0.0761,-5.16821 -1.34784,3.5 c -0.74131,1.925 -1.38208,4.71094 -1.42392,6.19098 z m -3.70199,21.05902 c -0.52881,1.7875 -0.69206,4.6 -0.36279,6.25 0.50891,2.55014 0.69195,2.70009 1.22064,1 1.29633,-4.16854 1.91364,-10.5 1.02374,-10.5 -0.50607,0 -1.35278,1.4625 -1.88159,3.25 z m -23.93308,1.65456 c 1.18061,1.91025 11.83916,7.19606 13.89671,6.89168 2.05349,-0.30379 2.01998,-0.4157 -0.66608,-2.22441 -2.14603,-1.44507 -10.33883,-4.7887 -13.48066,-5.5017 -0.16996,-0.0386 -0.0574,0.33692 0.25003,0.83443 z m 21.55899,12.15446 c 0,0.58246 0.45,0.7809 1,0.44098 0.55,-0.33992 1,-0.81648 1,-1.05902 0,-0.24254 -0.45,-0.44098 -1,-0.44098 -0.55,0 -1,0.47656 -1,1.05902 z m 4,5.41793 c 0,1.87256 3.54712,4.10436 7.75,4.8762 3.74417,0.6876 3.95616,0.32119 1.40095,-2.4215 -1.22209,-1.31176 -2.46772,-1.74733 -3.67361,-1.28458 -1.42571,0.5471 -1.68417,0.3343 -1.18233,-0.97346 0.49359,-1.28628 0.0709,-1.67361 -1.82639,-1.67361 -1.51054,0 -2.46862,0.57321 -2.46862,1.47695 z m -14,4.02305 c -0.68469,0.825 -2.20229,1.5125 -3.37244,1.52778 -2.20747,0.0288 -8.40286,5.53026 -7.37987,6.55324 0.99789,0.9979 14.67049,-7.20111 14.72652,-8.83102 0.0453,-1.31861 -2.68505,-0.80334 -3.97421,0.75 z m -24.48554,15.62397 c -1.97992,1.16818 -3.35833,2.36549 -3.06314,2.66069 0.67905,0.67904 7.54868,-2.97211 7.54868,-4.01206 0,-1.14272 -0.52794,-0.98367 -4.48554,1.35137 z m -11.51446,4.87603 c 0,0.55 0.47656,1 1.05902,1 0.58246,0 0.7809,-0.45 0.44098,-1 -0.33992,-0.55 -0.81648,-1 -1.05902,-1 -0.24254,0 -0.44098,0.45 -0.44098,1 z m 150.33164,28.27241 c -0.78808,1.27514 2.40907,3.72759 4.85949,3.72759 2.10916,0 2.59515,-4.56878 0.55887,-5.25391 -1.69033,-0.56873 -4.63646,0.26118 -5.41836,1.52632 z m -12.52262,-6.42273 c 2.4809,0.69873 3.36869,2.25775 1.61799,2.84132 -0.59015,0.19671 -1.89739,-0.55329 -2.90499,-1.66667 -1.0076,-1.11338 -1.64975,-1.97947 -1.42701,-1.92465 0.22275,0.0548 1.44405,0.39232 2.71401,0.75 z"
       id="path3772"
       inkscape:connector-curvature="0" />
    <path
       style="fill:#737986"
       d="m -217.11821,82.67765 c 3.68568,5.98998 5.45319,7.27792 20.71367,15.09341 6.6,3.38012 15.15,8.08278 19,10.45036 3.85,2.36758 13.075,7.69738 20.5,11.84401 7.425,4.14663 18.9,10.65665 25.5,14.46671 6.6,3.81006 17.175,9.55018 23.5,12.75581 6.325,3.20564 11.95,6.27935 12.5,6.83048 1.51175,1.51485 0.86294,1.21779 -24.55353,-11.24189 -88.56406,-43.41592 -96.57322,-47.74721 -101.90717,-55.1105 -2.90291,-4.00736 -4.06847,-8.89556 -2.12109,-8.89556 0.50502,0 1.57483,-0.25197 2.37736,-0.55992 0.97591,-0.3745 2.46312,1.07175 4.49076,4.36709 z m 517.08694,198.4478 c -1.4447,1.23477 -2.87581,2.98753 -3.18024,3.89503 -0.37633,1.12182 -1.69623,1.65 -4.12327,1.65 -4.4799,0 -4.58759,-1.47678 -0.24015,-3.29325 1.83128,-0.76516 3.91138,-2.0922 4.62244,-2.94897 0.71106,-0.85678 2.25024,-1.55554 3.42039,-1.55281 2.0226,0.005 1.99797,0.11572 -0.49917,2.25 z m 6.12673,4.00984 c 1.99193,1.02144 2.56389,2.16964 2.8144,5.64987 l 0.3144,4.36791 -3.3144,-0.5075 c -4.1583,-0.63671 -6.22036,0.0142 -4.98041,1.57216 0.56247,0.70672 0.36636,6.18273 -0.50686,14.15275 -0.78337,7.15 -1.51495,16.73352 -1.62572,21.2967 l -0.20141,8.2967 4.5,2.39379 c 2.475,1.31659 7.2,3.38361 10.5,4.59338 19.26342,7.06192 47.71712,23.11198 63.48322,35.80938 4.83487,3.89382 6.99598,5.0532 8.5,4.56001 1.10923,-0.36373 4.98523,-0.88565 8.61333,-1.15982 6.25755,-0.47287 6.77542,-0.34145 10.07707,2.55744 2.44256,2.14459 4.00847,4.79966 5.25089,8.90308 1.62519,5.36764 1.6426,6.15295 0.21237,9.57598 -1.22487,2.93153 -2.68899,4.25535 -6.84744,6.19132 -2.90919,1.35438 -6.31639,2.4669 -7.57156,2.47227 -4.44867,0.019 -9.14072,-2.76056 -10.90494,-6.46017 l -1.70742,-3.58051 3.44724,-2.86556 c 1.89598,-1.57606 4.56245,-3.84407 5.92549,-5.04003 1.39531,-1.22428 2.63341,-1.70898 2.83333,-1.10921 0.5415,1.62449 5.17296,1.26911 5.83168,-0.44748 1.51537,-3.94898 -6.95463,-6.23172 -11.20213,-3.01907 -2.85036,2.1559 -3.68716,1.89105 -6.34222,-2.00741 l -2.40108,-3.52554 -2.34892,2.20669 c -1.2919,1.21368 -2.34891,2.81737 -2.34891,3.56376 0,0.74639 -0.61399,1.59268 -1.36441,1.88064 -2.02711,0.77788 -25.56788,-8.02925 -37.90857,-14.18244 -11.54696,-5.75742 -33.56796,-19.30161 -35.84411,-22.04619 -1.66191,-2.00394 -7.01359,-4.35771 -9.90796,-4.35771 -2.02172,0 -27.34745,13.49373 -35.47495,18.9013 -3.45611,2.2995 -4.06799,3.26778 -4.5,7.12109 -0.52413,4.67497 -2.28833,5.99879 -5.80841,4.35852 -0.93038,-0.43353 -3.25562,-0.80909 -5.16722,-0.83458 -4.09259,-0.0546 -5.70773,-3.29336 -2.11134,-4.23384 2.1308,-0.55722 2.61144,-1.45469 1.41812,-2.64801 -0.36787,-0.36786 -1.44819,0.0365 -2.40072,0.89848 -0.99056,0.89645 -1.98368,1.1599 -2.32014,0.61549 -0.32355,-0.52351 0.0818,-1.50793 0.90072,-2.18759 0.81894,-0.67966 1.48899,-1.85565 1.48899,-2.61331 0,-1.36006 1.07105,-1.75335 4,-1.46878 1.0923,0.10613 0.9724,-0.26937 -0.44113,-1.38152 -1.06762,-0.83999 -2.53012,-1.52725 -3.25,-1.52725 -0.71988,0 -1.30887,-0.40186 -1.30887,-0.89301 0,-1.55948 3.06804,-2.14095 5.21991,-0.9893 3.70852,1.98474 8.83584,-0.54725 17.93381,-8.85617 9.25127,-8.4489 14.95344,-11.08108 19.50889,-9.00548 2.97321,1.35469 2.94189,2.08248 -0.1611,3.74315 -2.915,1.56006 -4.34583,0.72308 -2.52157,-1.47502 0.69572,-0.8383 0.82959,-1.52417 0.29749,-1.52417 -1.17465,0 -4.26958,3.29745 -4.29752,4.57874 -0.0111,0.50669 -2.02877,2.91605 -4.48381,5.35412 -2.45504,2.43808 -4.32794,4.56864 -4.162,4.73457 0.80564,0.80564 14.88476,-7.17795 18.00866,-10.21184 1.95696,-1.90057 4.25541,-3.45559 5.10767,-3.45559 0.85227,0 1.54957,-0.45 1.54957,-1 0,-0.55 -0.675,-1 -1.5,-1 -2.48662,0 -1.65529,-1.40774 1.77164,-3 2.94528,-1.36847 3.36721,-2.15941 4.81188,-9.02014 2.18402,-10.37193 3.15045,-20.2425 1.90668,-19.47381 -0.54461,0.33659 -0.9902,1.25863 -0.9902,2.04899 0,0.79035 -0.95375,4.19292 -2.11944,7.56128 -1.49513,4.32031 -1.94643,7.38648 -1.5321,10.40931 0.42856,3.12672 0.21717,4.42708 -0.78203,4.8105 -0.78643,0.30179 -1.57627,-0.26577 -1.85542,-1.33325 -0.28837,-1.10272 -3.27725,-3.16709 -7.34854,-5.07551 -6.55927,-3.07466 -20.36247,-8.03056 -20.36247,-7.31093 0,0.33454 4.84922,3.10361 11.63051,6.64143 3.44464,1.79708 4.17292,3.12755 2.33405,4.26403 -1.22087,0.75454 -11.58246,-3.21135 -14.46456,-5.5363 -1.1,-0.88735 -4.13965,-2.70962 -6.75477,-4.04948 -7.4674,-3.82594 -9.47491,-5.59772 -8.00888,-7.06847 0.98203,-0.98521 0.90261,-1.60911 -0.38612,-3.03315 -3.40673,-3.76439 1.32605,-2.84485 14.18945,2.75689 7.12818,3.10417 15.53888,6.716 18.69045,8.02628 8.86196,3.68441 13.96621,2.79115 8.64988,-1.51375 l -2.11999,-1.71666 2.53309,-1.65975 c 1.48217,-0.97115 2.80253,-3.02215 3.18252,-4.94363 0.35718,-1.80613 1.03969,-4.40888 1.51669,-5.78388 0.477,-1.375 1.15628,-5.08777 1.50951,-8.2506 0.35323,-3.16283 1.28482,-6.39319 2.0702,-7.17857 0.78538,-0.78539 1.42797,-2.13512 1.42797,-2.9994 0,-0.86429 0.67881,-1.57143 1.50847,-1.57143 1.24126,0 1.29441,-0.34277 0.30005,-1.93501 -0.91416,-1.4638 -1.91497,-1.7937 -4.10978,-1.35474 -2.46044,0.49209 -2.84516,0.29226 -2.53167,-1.31499 0.23315,-1.19536 1.28611,-1.95119 2.8513,-2.04672 1.3649,-0.0833 3.03882,-0.1958 3.71984,-0.25 0.68102,-0.0542 1.13102,-1.11104 1,-2.34854 -0.18439,-1.74168 0.32659,-2.30842 2.26179,-2.50857 1.375,-0.14222 3.625,0.31831 5,1.02338 z m -3,4.23519 c 0,0.825 0.675,1.5 1.5,1.5 1.56157,0 1.98397,-1.1827 0.83333,-2.33333 -1.15063,-1.15064 -2.33333,-0.72824 -2.33333,0.83333 z m -7.4827,16.44791 c -1.31182,3.94952 -1.40456,5.39424 -0.4596,7.1599 1.56821,2.93023 2.47703,1.22694 3.39233,-6.35781 0.86757,-7.18932 -0.67143,-7.61023 -2.93273,-0.80209 z m 6.4827,39.4703 c 0,1.59682 1.44475,3.58179 2.60699,3.58179 1.73148,0 1.84507,-2.65092 0.14301,-3.33772 -1.64584,-0.66411 -2.75,-0.76211 -2.75,-0.24407 z m -10,4.46678 c 0,2.5125 3.87435,4.9255 8.51958,5.30613 4.99244,0.40907 5.22987,-1.09276 0.69008,-4.36507 -4.50862,-3.24984 -9.20966,-3.7302 -9.20966,-0.94106 z m -28,8.68538 c 0,0.275 0.9,0.0183 2,-0.57037 1.1,-0.5887 2,-1.29537 2,-1.57037 0,-0.275 -0.9,-0.0183 -2,0.57037 -1.1,0.5887 -2,1.29537 -2,1.57037 z m -7,5.48865 c 0,0.58246 0.45,0.7809 1,0.44098 0.55,-0.33992 1,-0.81648 1,-1.05902 0,-0.24254 -0.45,-0.44098 -1,-0.44098 -0.55,0 -1,0.47656 -1,1.05902 z m -2.92377,5.62746 c -2.42685,1.5889 -3.73613,3.05362 -3.20466,3.58509 1.00748,1.00748 9.12843,-3.69345 9.12843,-5.28412 0,-1.60301 -1.56661,-1.15368 -5.92377,1.69903 z m 85.43385,4.32983 c 0.34546,0.55897 1.04702,0.75742 1.55902,0.44098 1.38704,-0.85724 1.12841,-1.45729 -0.62812,-1.45729 -0.85746,0 -1.27636,0.45734 -0.9309,1.01631 z m -97.01008,0.98369 c -0.33992,0.55 0.0835,1 0.94098,1 0.85746,0 1.55902,-0.45 1.55902,-1 0,-0.55 -0.42344,-1 -0.94098,-1 -0.51754,0 -1.2191,0.45 -1.55902,1 z M 392.8871,402.6996 c -1.22815,1.19216 0.72644,3.17228 4.08107,4.13437 3.7841,1.08527 5.00071,-0.46297 3.12213,-3.97314 -0.9154,-1.71044 -1.7202,-2.02743 -3.827,-1.50737 -1.46731,0.3622 -2.9866,0.96796 -3.3762,1.34614 z M 279.47051,340.57886 c 0.31382,0.31382 0.33125,0.95781 0.0388,1.4311 -0.70205,1.13593 -3.4138,1.11012 -3.4138,-0.0325 0,-1.10376 2.59467,-2.17899 3.37505,-1.39861 z m 102.9311,56.9311 c 0.35171,0.35171 0.39562,1.03405 0.0976,1.51631 -0.63918,1.03422 -2.40371,0.14245 -2.40371,-1.21481 0,-1.07509 1.35536,-1.25229 2.30615,-0.3015 z"
       id="path3770"
       inkscape:connector-curvature="0" />
    <path
       style="fill:#5b616c"
       d="m -217.49898,85.4834 c 3.94565,4.34107 7.4418,6.68684 17.86681,11.98786 7.12868,3.62488 15.94618,8.51561 19.59444,10.8683 3.64825,2.35269 10.00819,5.96731 14.13319,8.03249 9.67813,4.84535 22.83093,12.41585 23.52659,13.54145 1.12241,1.81611 -6.90573,-1.83518 -36.52659,-16.61269 -31.38354,-15.6569 -39.05008,-20.32558 -42.81935,-26.07567 -2.11551,-3.22725 -2.95225,-7.46564 -1.43065,-7.24679 0.4125,0.0593 2.9575,2.5366 5.65556,5.50505 z m 513.03654,198.16251 c 1.25601,1.25601 0.41043,2.22457 -1.9421,2.22457 -1.375,0 -2.5,-0.39752 -2.5,-0.88337 0,-1.04731 3.63767,-2.14563 4.4421,-1.3412 z m 7.11175,1.3117 c 0.36954,0.59793 0.2103,1.54872 -0.35385,2.11287 -1.26163,1.26163 -3.2,0.19612 -3.2,-1.75902 0,-1.68362 2.57364,-1.93987 3.55385,-0.35385 z m 5.27948,1.91287 c -0.50335,1.51005 -2.11144,1.66567 -2.58333,0.25 -0.22917,-0.6875 0.33333,-1.25 1.25,-1.25 0.91667,0 1.51667,0.45 1.33333,1 z m -13.25249,3.13081 c 0.85233,1.37908 -1.10523,3.28117 -2.49371,2.42304 -0.59792,-0.36954 -1.08713,-1.04718 -1.08713,-1.50588 0,-1.33025 2.87106,-2.06562 3.58084,-0.91716 z m 7.91916,0.86919 c 0.90632,1.46646 -0.3471,3 -2.45203,3 -1.85302,0 -3.41561,-2.29903 -2.3124,-3.40223 0.95528,-0.95529 4.08894,-0.69073 4.76443,0.40223 z m 5.5,1 c 1.1813,0.73008 1.2305,1.1695 0.24164,2.15836 -0.96572,0.96572 -1.50831,0.97497 -2.44164,0.0416 -0.76524,-0.76524 -0.85279,-1.54721 -0.24164,-2.15836 0.58801,-0.58801 1.53156,-0.6041 2.44164,-0.0416 z m -7.33583,5.56722 c 0.78813,2.05384 -0.79372,3.58878 -2.56825,2.49206 -1.51127,-0.93402 -0.81522,-4.05928 0.90408,-4.05928 0.58452,0 1.3334,0.70525 1.66417,1.56722 z m -4.66417,4.36768 c 0,1.7991 -2.06121,6.33722 -2.62314,5.77529 -0.84831,-0.84831 0.63904,-6.71019 1.7026,-6.71019 0.50629,0 0.92054,0.42071 0.92054,0.9349 z m 4.26923,6.3151 c -0.24044,2.8875 -1.07439,9.71676 -1.8532,15.17614 -2.01611,14.13261 -1.90006,17.21402 0.67363,17.88706 1.65346,0.43238 1.94311,1.03078 1.38761,2.86663 -1.00734,3.32906 -1.58677,3.6664 -5.30435,3.0881 -2.79003,-0.43401 -3.24282,-0.8606 -2.80509,-2.64274 0.96532,-3.93009 5.81509,-32.07762 6.35353,-36.87519 0.72788,-6.48556 2.09286,-6.04464 1.54787,0.5 z m -6.27481,7.8 c -0.009,3.87956 -2.06812,10.27891 -2.99911,9.31989 -1.05369,-1.08542 0.37137,-9.13657 1.88512,-10.65032 0.82609,-0.82609 1.11811,-0.47734 1.11399,1.33043 z m -31.49442,9.59312 c 9.35,4.10457 19.21251,8.04325 21.9167,8.75262 4.27646,1.12181 4.93184,1.63578 5.03302,3.94701 0.13128,2.99893 -0.62482,3.35612 -2.44972,1.15725 -0.68469,-0.825 -1.70744,-1.5 -2.27277,-1.5 -0.56534,0 -3.32274,-1.11174 -6.12756,-2.47053 -5.67387,-2.7487 -24.82341,-9.63907 -25.34343,-9.11904 -0.29921,0.29921 6.42228,4.61548 11.07098,7.10933 1.00497,0.53913 1.67997,1.43024 1.5,1.98024 -0.46166,1.41085 -3.88933,0.75377 -5.99134,-1.14852 -0.97383,-0.88131 -4.56787,-3.03117 -7.98675,-4.77747 -6.33248,-3.2345 -8.48253,-5.55622 -5.18246,-5.59625 1.55309,-0.0188 1.45118,-0.3163 -0.66667,-1.946 -1.64582,-1.26648 -2.15833,-2.2531 -1.5,-2.88764 0.64848,-0.62505 6.97579,1.65946 18,6.499 z m 26.5,3.35688 c 0,0.55 -0.64844,1 -1.44098,1 -0.79254,0 -1.7191,-0.45 -2.05902,-1 -0.33992,-0.55 0.30852,-1 1.44098,-1 1.13246,0 2.05902,0.45 2.05902,1 z m 32,21.57529 c 5.775,2.49843 15.675,7.24551 22,10.54905 11.84837,6.1884 34.60764,21.42317 36.16713,24.20981 1.14637,2.04846 -3.93163,9.57468 -6.49602,9.6279 -3.29135,0.0683 -28.94256,-10.01546 -39.25463,-15.4314 -12.66236,-6.65033 -31.5428,-18.82287 -33.07776,-21.32579 -1.02775,-1.67586 -0.8942,-1.84254 1.16148,-1.44957 1.61675,0.30906 2.65773,-0.18187 3.42479,-1.61512 0.60611,-1.13253 1.02212,-2.41488 0.92448,-2.84966 -0.47233,-2.10303 1.53509,-6.28884 3.00894,-6.27417 0.90287,0.009 6.36659,2.06052 12.14159,4.55895 z m 17.3229,23.02563 c -0.62175,1.62024 1.13594,3.3557 3.4271,3.38377 1.30709,0.016 1.73676,-3.16459 0.58333,-4.31802 -1.20482,-1.20483 -3.38443,-0.69707 -4.01043,0.93425 z m -65.8229,-21.60092 c -0.33992,0.55 -1.51803,1 -2.61803,1 -1.1,0 -1.72189,-0.45 -1.38197,-1 0.33992,-0.55 1.51803,-1 2.61803,-1 1.1,0 1.72189,0.45 1.38197,1 z m 20.25,0.66454 c 2.21594,0.89014 1.33169,2.02878 -1.64115,2.1133 -1.59014,0.0452 -5.41514,1.50665 -8.5,3.24764 -3.08487,1.74099 -5.60885,2.67248 -5.60885,2.06998 0,-0.6025 0.34971,-1.09546 0.77714,-1.09546 0.42743,0 2.19337,-1.29353 3.92433,-2.87451 3.04807,-2.78399 8.49006,-4.48869 11.04853,-3.46095 z m -30.35631,11.7519 c -0.33422,0.87096 -1.04702,1.58356 -1.58401,1.58356 -1.31439,0 -0.49134,-2.27278 1.0035,-2.77106 0.73075,-0.24358 0.95424,0.21359 0.58051,1.1875 z m -6.76901,3.38182 c -0.87278,1.41219 -5.86863,3.87677 -9.45527,4.66453 -1.95691,0.42981 -3.25262,0.14187 -4.13251,-0.91833 -0.70499,-0.84945 -1.87513,-1.54446 -2.60033,-1.54446 -0.72519,0 -1.56563,-0.3998 -1.86762,-0.88844 -0.302,-0.48865 2.03394,-0.82686 5.19098,-0.75159 3.15704,0.0753 7.49262,-0.26221 9.63463,-0.74997 2.72581,-0.62069 3.69516,-0.56419 3.23012,0.18826 z m -14.10505,6.2335 c 0.38836,0.62838 0.23556,1.61305 -0.33954,2.18815 -1.3439,1.3439 -4.47714,0.17169 -3.93038,-1.47044 0.5566,-1.67168 3.38637,-2.14732 4.26992,-0.71771 z m 9.9676,0.94757 c 0.33289,0.53864 0.11364,1.89794 -0.48723,3.02067 -0.60087,1.12273 -0.82587,2.47273 -0.5,3 0.77718,1.25751 -1.24859,5 -2.70644,5 -0.62484,0 -1.92158,-0.71087 -2.88163,-1.5797 -1.38059,-1.24942 -2.18544,-1.34429 -3.84941,-0.45376 -1.15712,0.61927 -2.54455,0.85358 -3.08319,0.52069 -1.67128,-1.03292 -1.07806,-3.22815 1.02067,-3.77698 1.1,-0.28766 2,-1.24014 2,-2.11663 0,-0.89231 0.82626,-1.59362 1.87756,-1.59362 1.03265,0 2.43775,-0.675 3.12244,-1.5 1.40783,-1.69633 4.5749,-1.99685 5.48723,-0.52067 z m 150.08577,13.03839 c 3.27191,1.6196 4.50119,3.04921 6.25,7.26854 2.79745,6.74933 2.7761,10.90584 -0.073,14.21751 -2.96438,3.44566 -12.20501,6.49892 -16.25,5.36928 -5.65606,-1.57957 -10.33273,-9.87305 -5.56739,-9.87305 1.06294,0 2.21826,-0.9 2.56739,-2 0.86095,-2.71261 2.35295,-2.51698 3.48356,0.45676 1.03249,2.71564 8.30379,6.75394 10.58492,5.87859 2.15563,-0.82719 1.74144,-2.55031 -1.45395,-6.04882 -2.17603,-2.38244 -3.44382,-3.01318 -5.15638,-2.56534 -1.57205,0.4111 -2.05074,0.23764 -1.55551,-0.56367 0.39347,-0.63663 2.25526,-1.15752 4.13732,-1.15752 2.86954,0 3.52953,-0.42869 4.08845,-2.65559 1.25377,-4.99545 -6.21526,-7.16078 -12.85558,-3.72693 -2.9331,1.51676 -3.21105,1.50371 -4.46382,-0.20957 -1.83691,-2.51212 -1.25979,-3.56362 2.75136,-5.01294 5.04963,-1.82454 8.92989,-1.64572 13.51263,0.62275 z m 1.427,13.98228 c 1.95837,1.2656 3.28218,1.2656 2.5,0 -0.33992,-0.55 -1.37898,-0.99311 -2.30902,-0.98469 -1.45727,0.0132 -1.48367,0.14929 -0.19098,0.98469 z"
       id="path3768"
       inkscape:connector-curvature="0" />
    <path
       style="fill:#0c1525"
       d="m 322.09546,352.18764 c 16.66579,7.58655 29.95153,14.79512 41.38027,22.45207 16.45777,11.02628 16.59896,11.22077 12.12255,16.69855 -2.40172,2.93898 -2.47172,2.95539 -7.21403,1.69152 -6.10515,-1.62709 -7.09223,-2.61402 -4.96516,-4.96441 0.922,-1.01881 1.67637,-2.30969 1.67637,-2.86864 0,-2.07092 -3.85408,-4.47262 -6.66157,-4.15121 -2.52365,0.28892 -2.82105,0.69481 -2.68174,3.65995 0.14701,3.12888 -0.007,3.29523 -2.5,2.69162 -4.0583,-0.98279 -24.36772,-10.91132 -30.8757,-15.094 -16.26137,-10.45119 -19.28099,-12.49971 -19.28099,-13.08034 0,-0.34748 0.76331,-1.18993 1.69625,-1.87211 0.93294,-0.68219 2.18308,-2.9818 2.7781,-5.11025 0.7388,-2.64281 1.7071,-3.95035 3.05374,-4.12361 1.08455,-0.13953 6.24691,1.69235 11.47191,4.07086 z m -5.64134,10.19056 c -0.80157,2.08887 2.28693,6.49228 4.55361,6.49228 1.02639,0 2.92851,-0.9 4.22695,-2 l 2.36078,-2 -2.36078,-2 c -2.79438,-2.36733 -7.95011,-2.65639 -8.78056,-0.49228 z m 20.24732,10.74228 c -2.66851,4.26184 4.35608,7.65938 7.85118,3.79733 1.80375,-1.99312 1.80375,-2.10154 0,-4.09466 -2.18926,-2.41911 -6.24652,-2.26546 -7.85118,0.29733 z"
       id="path3766"
       inkscape:connector-curvature="0" />
  </g>
</svg>
