<?xml version="1.0" encoding="UTF-8" standalone="no"?>
<svg
   xmlns:dc="http://purl.org/dc/elements/1.1/"
   xmlns:cc="http://creativecommons.org/ns#"
   xmlns:rdf="http://www.w3.org/1999/02/22-rdf-syntax-ns#"
   xmlns:svg="http://www.w3.org/2000/svg"
   xmlns="http://www.w3.org/2000/svg"
   xmlns:sodipodi="http://sodipodi.sourceforge.net/DTD/sodipodi-0.dtd"
   xmlns:inkscape="http://www.inkscape.org/namespaces/inkscape"
   sodipodi:docname="leather boots.svg"
   height="100%"
   width="100%"
   inkscape:version="0.48.4 r9939"
   version="1.1"
   id="svg8438"
   viewBox="0 0 512 512">
  <metadata
     id="metadata8464">
    <rdf:RDF>
      <cc:Work
         rdf:about="">
        <dc:format>image/svg+xml</dc:format>
        <dc:type
           rdf:resource="http://purl.org/dc/dcmitype/StillImage" />
        <dc:title></dc:title>
      </cc:Work>
    </rdf:RDF>
  </metadata>
  <defs
     id="defs8462">
    <linearGradient
       id="linearGradient4077">
      <stop
         id="stop4079"
         offset="0"
         style="stop-color:#aa4400;stop-opacity:1;" />
      <stop
         style="stop-color:#ff9f00;stop-opacity:1;"
         offset="0.22752622"
         id="stop4081" />
      <stop
         style="stop-color:#803300;stop-opacity:1;"
         offset="0.4948855"
         id="stop4083" />
      <stop
         id="stop4085"
         offset="1"
         style="stop-color:#562200;stop-opacity:1;" />
    </linearGradient>
    <linearGradient
       id="linearGradient4057">
      <stop
         style="stop-color:#aa4400;stop-opacity:1;"
         offset="0"
         id="stop4059" />
      <stop
         id="stop4067"
         offset="0.22752622"
         style="stop-color:#ecd1a4;stop-opacity:1;" />
      <stop
         id="stop4065"
         offset="0.50136983"
         style="stop-color:#803300;stop-opacity:1;" />
      <stop
         style="stop-color:#562200;stop-opacity:1;"
         offset="1"
         id="stop4061" />
    </linearGradient>
    <linearGradient
       id="linearGradient3890">
      <stop
         style="stop-color:#701b1b;stop-opacity:1;"
         offset="0"
         id="stop3892" />
      <stop
         style="stop-color:#e31600;stop-opacity:1;"
         offset="1"
         id="stop3894" />
    </linearGradient>
    <linearGradient
       id="linearGradient3882">
      <stop
         style="stop-color:#600b0b;stop-opacity:1;"
         offset="0"
         id="stop3884" />
      <stop
         style="stop-color:#d11414;stop-opacity:1;"
         offset="1"
         id="stop3886" />
    </linearGradient>
    <linearGradient
       id="linearGradient3872">
      <stop
         style="stop-color:#800600;stop-opacity:1;"
         offset="0"
         id="stop3874" />
      <stop
         style="stop-color:#ff0004;stop-opacity:0;"
         offset="1"
         id="stop3876" />
    </linearGradient>
    <filter
       id="filter4074"
       inkscape:label="Black Light"
       inkscape:menu="Color"
       inkscape:menu-tooltip="Light areas turn to black"
       x="0"
       width="1"
       y="0"
       height="1"
       color-interpolation-filters="sRGB">
      <feColorMatrix
         id="feColorMatrix4076"
         type="luminanceToAlpha"
         result="result2" />
      <feComposite
         in2="SourceGraphic"
         id="feComposite4078"
         operator="arithmetic"
         in="result2"
         k3="2"
         result="result4" />
      <feBlend
         in2="result2"
         id="feBlend4080"
         in="result4"
         mode="multiply"
         result="result3" />
      <feComposite
         in2="SourceGraphic"
         id="feComposite4082"
         operator="in"
         in="result3" />
    </filter>
  </defs>
  <sodipodi:namedview
     pagecolor="#000000"
     bordercolor="#666666"
     borderopacity="1"
     objecttolerance="10"
     gridtolerance="10"
     guidetolerance="10"
     inkscape:pageopacity="0"
     inkscape:pageshadow="2"
     inkscape:window-width="1190"
     inkscape:window-height="1126"
     id="namedview8460"
     showgrid="false"
     inkscape:zoom="0.70710678"
     inkscape:cx="197.65584"
     inkscape:cy="237.5577"
     inkscape:window-x="160"
     inkscape:window-y="130"
     inkscape:window-maximized="0"
     inkscape:current-layer="svg8438"
     showguides="true"
     inkscape:guide-bbox="true" />
  <path
     style="fill:#000000"
     id="path3978"
     d="M -13.466093,0.1885736 H 514.89024 V 516.42957 H -13.466093 z"
     inkscape:connector-curvature="0" />
  <path
     sodipodi:type="arc"
     style="opacity:0.98999999;fill:#ff0000;fill-opacity:0.74970506;fill-rule:nonzero;stroke:none"
     id="path5005"
     sodipodi:cx="640"
     sodipodi:cy="124.5"
     sodipodi:rx="105"
     sodipodi:ry="118.5"
     d="m 743.4676,104.32865 a 105,118.5 0 0 1 0.002,0.0163 L 640,124.5 z"
     sodipodi:start="6.11213"
     sodipodi:end="6.1122693" />
  <g
     id="g6448" />
  <g
     id="g6560">
    <path
       style="fill:#d68c98"
       d="m 215.30539,454.78773 c -11.87806,-2.74839 -22.13815,-7.79406 -33.57088,-16.5094 -15.53638,-11.84358 -22.95397,-16.24518 -27.37649,-16.24518 -5.01476,0 -29.54874,-12.97835 -34.07774,-18.02695 -5.71736,-6.37331 -5.14352,-30.1982 0.72735,-30.1982 0.8564,0 1.57012,-6.05133 1.58606,-13.4474 0.016,-7.39607 1.27072,-18.45539 2.7884,-24.57628 9.24069,-37.26801 11.6528,-53.65619 10.10114,-68.6281 -3.98246,-38.42634 -7.93888,-70.87434 -11.36451,-93.20438 -2.03455,-13.26215 -2.13996,-13.44739 -7.65267,-13.44739 l -5.58971,0 1.19755,-18.08444 c 0.65866,-9.94643 1.20188,-28.82377 1.20716,-41.94963 0.009,-22.411236 0.22128,-23.809845 3.48409,-22.956601 2.62633,0.6868 3.26261,0.09838 2.60653,-2.410475 -0.73114,-2.795903 0.76967,-3.523682 9.52138,-4.617137 5.71414,-0.713935 18.73052,-0.963036 28.9253,-0.55356 l 18.53596,0.744502 0,-5.681488 c 0,-3.533419 1.52077,-6.983616 4.02234,-9.125523 3.50727,-3.003021 6.0255,-3.290058 19.66579,-2.241582 25.45578,1.956686 92.23597,17.68348 99.65696,23.469302 1.02015,0.795365 4.35882,1.860662 7.41926,2.367328 11.8057,1.954471 12.41356,2.704845 11.74438,14.49787 l -0.6155,10.847344 12.05629,-0.3326 c 6.7089,-0.18508 13.91568,0.68204 16.2485,1.95502 2.30572,1.25819 7.59759,7.67965 11.75972,14.26991 4.16213,6.59025 8.94601,12.75373 10.63084,13.69661 1.68484,0.94289 2.46446,2.31321 1.73251,3.04517 -1.99465,1.99464 -6.55713,-2.48102 -14.59482,-14.31701 -11.10894,-16.35866 -16.32345,-18.76019 -31.55049,-14.53051 -6.66737,1.85203 -6.70736,1.92444 -7.9346,14.36446 -2.04847,20.76471 -2.98565,23.96419 -7.64079,26.08522 -2.97093,1.35364 -4.03884,3.07141 -3.40835,5.48244 0.5489,2.09897 -0.98079,5.76797 -3.80333,9.12236 -6.69545,7.95709 -7.87921,12.50269 -7.63343,29.31225 0.23827,16.29654 5.16334,29.00596 14.68027,37.8833 2.65137,2.47316 4.82065,4.97716 4.82065,5.56443 0,0.58729 -3.756,1.0678 -8.34666,1.0678 -7.65899,0 -8.349,-0.38204 -8.37506,-4.63704 -0.0224,-3.6748 -0.40151,-4.05969 -1.82642,-1.85481 -1.09981,1.70184 -1.80904,1.91769 -1.82642,0.55587 -0.0148,-1.22449 1.22507,-2.92783 2.75709,-3.78519 2.46119,-1.37735 2.42812,-2.46857 -0.28414,-9.37329 -2.72223,-6.93013 -3.31967,-7.44633 -5.27935,-4.56147 -3.90559,5.7494 -4.43583,11.71547 -1.72427,19.40082 3.29218,9.33106 3.30168,9.16819 -0.49554,8.50975 -1.83391,-0.31801 -4.14018,1.38636 -5.5371,4.09202 -1.3863,2.68506 -2.43687,3.46585 -2.4957,1.85481 -0.0558,-1.53022 -1.41563,-0.35559 -3.02168,2.6103 -2.815,5.19848 -2.7074,11.99955 0.39891,25.2119 0.99463,4.23054 0.85904,4.35533 -1.54672,1.42355 -2.45565,-2.99255 -2.7849,-2.88878 -4.78878,1.50928 -1.18352,2.59752 -1.39712,4.2563 -0.47467,3.6862 0.92244,-0.57009 1.73297,3.63651 1.80119,9.34801 0.0683,5.7115 0.91035,11.34144 1.87138,12.51097 0.96104,1.16954 1.74271,5.22705 1.73703,9.01673 -0.007,4.46997 1.52078,8.79421 4.34848,12.31036 6.15717,7.65621 25.48101,23.25959 34.51037,27.86603 4.19125,2.13822 8.1565,4.75502 8.8117,5.81516 0.65519,1.06012 7.18048,4.92859 14.50063,8.5966 7.32017,3.66798 17.29853,9.57892 22.17415,13.1354 4.87562,3.55647 12.80495,7.67204 17.62073,9.14573 7.76403,2.37587 10.17261,2.33998 21.26061,-0.31684 6.87756,-1.64796 13.34622,-2.47616 14.37481,-1.84046 2.99094,1.84851 2.16171,9.37931 -1.37575,12.49427 -4.61649,4.06512 -19.90855,11.40397 -32.92294,15.80012 -10.7125,3.61861 -14.61169,4.54457 -28.74961,6.82736 -6.01123,0.97062 -6.49185,1.53846 -6.49185,7.67001 0,6.38475 -0.43212,6.80681 -12.07252,11.79129 -22.45637,9.61591 -44.18158,13.64755 -76.95853,14.28152 -19.42663,0.37575 -33.20059,-0.24129 -39.87849,-1.78644 z m 90.88586,-220.73067 c 0,-0.35197 -1.66933,-2.15067 -3.70963,-3.99711 -3.60058,-3.25849 -3.70962,-3.23968 -3.70962,0.63993 0,2.76056 1.14761,3.99711 3.70962,3.99711 2.0403,0 3.70963,-0.28798 3.70963,-0.63993 z"
       id="path6570"
       inkscape:connector-curvature="0" />
    <path
       style="fill:#cc7988"
       d="m 220.86983,455.50818 c -15.36089,-2.88806 -23.76994,-6.91037 -42.30584,-20.23621 -10.12818,-7.28134 -20.21487,-13.23882 -22.41487,-13.23882 -5.35082,0 -29.18672,-12.12701 -34.72863,-17.66892 -5.32038,-5.32038 -6.32423,-18.81315 -1.53637,-20.65041 1.58612,-0.60864 2.74572,-2.87778 2.57691,-5.04252 -0.16881,-2.16475 -0.11196,-4.77056 0.12633,-5.79071 0.2383,-1.02015 0.64102,-6.44547 0.89494,-12.05629 0.85422,-18.87543 2.95004,-30.25365 6.48771,-35.22185 2.26495,-3.18084 3.5457,-8.18811 3.59916,-14.07139 0.0456,-5.02336 0.911,-12.05471 1.92303,-15.62523 1.78736,-6.30592 1.81458,-6.2528 0.95044,1.85481 -0.8272,7.76101 -0.69169,8.09011 1.93122,4.69025 1.55147,-2.011 2.35702,-4.86508 1.79013,-6.34238 -1.1088,-2.88951 -3.10343,-17.95998 -6.28683,-47.50042 -9.69879,-90.0001 -9.69132,-89.95846 -16.12231,-89.95846 l -4.50246,0 1.20365,-37.55997 c 0.66201,-20.65799 1.42401,-37.826475 1.69333,-38.152195 0.26931,-0.32572 2.03161,0.237423 3.91621,1.251433 6.6564,3.581482 19.45661,7.743119 20.95937,6.814364 0.83731,-0.517487 2.55383,0.301923 3.81448,1.820912 1.26064,1.51899 3.35073,2.761798 4.64464,2.761798 3.88968,0 17.67086,6.726298 16.39507,8.002078 -2.47101,2.47102 5.10313,3.42409 8.07261,1.0158 2.14622,-1.74062 2.68155,-1.80514 1.72173,-0.20751 -0.93429,1.55512 -0.13545,2.31851 2.42617,2.31851 2.1005,0 3.8191,0.83467 3.8191,1.85482 0,1.02014 1.59977,1.85481 3.55506,1.85481 1.95528,0 3.83984,0.85434 4.1879,1.89854 0.34807,1.0442 3.66233,2.39016 7.36502,2.99103 5.34285,0.86702 7.5546,0.27005 10.71736,-2.89271 l 3.98518,-3.98518 -6.73448,-2.81385 c -3.70396,-1.54761 -20.05474,-6.988449 -36.33507,-12.090748 -35.87093,-11.24205 -49.99739,-16.536068 -48.89297,-18.32307 1.47254,-2.382614 40.38733,-3.744618 49.1683,-1.720874 4.59067,1.058006 10.85066,2.391295 13.9111,2.962861 3.06045,0.571564 7.00294,2.298845 8.76111,3.838397 1.75816,1.539553 6.34882,3.042132 10.20147,3.339065 7.70092,0.593531 32.51406,9.015678 31.0057,10.524042 -0.51926,0.519262 1.17144,0.539698 3.75712,0.04541 3.46362,-0.662103 4.70123,-0.109341 4.70123,2.099762 0,1.649147 0.88393,2.998449 1.96428,2.998449 1.08036,0 1.38151,-0.942948 0.66922,-2.095442 -0.79315,-1.283351 -0.29645,-1.732624 1.28164,-1.159258 1.41719,0.514901 2.4271,1.698022 2.24423,2.629161 -0.42358,2.15688 8.17227,2.94623 9.45645,0.868381 1.63745,-2.649429 -23.9101,-12.402906 -54.4636,-20.792977 -21.58348,-5.926882 -24.21588,-7.375342 -24.21588,-13.324627 0,-5.702742 1.161,-5.709762 18.1026,-0.109462 4.34562,1.436511 11.02295,2.989541 14.83851,3.45118 15.67616,1.896638 26.10626,4.423701 27.48839,6.66004 0.54905,0.888383 3.08493,1.615242 5.6353,1.615242 2.55037,0 4.21195,0.687815 3.6924,1.528476 -0.51957,0.840661 0.47452,1.526523 2.20904,1.524135 1.73453,-0.0024 6.9097,0.171014 11.50037,0.385327 7.59488,0.354572 8.03698,0.624263 4.90841,2.994311 -3.17987,2.408896 -3.00146,2.592226 2.37379,2.439395 3.19664,-0.09089 7.79986,0.898586 10.22939,2.198833 3.82527,2.047221 4.94929,1.868493 8.3862,-1.333485 l 3.96888,-3.697567 -20.96147,-5.804147 c -11.52882,-3.192281 -27.22149,-7.011116 -34.87259,-8.486299 -21.51175,-4.147605 -46.9989,-10.457237 -50.07997,-12.397862 -2.76246,-1.73995 15.21886,-1.135306 33.2141,1.116865 12.00222,1.502122 39.15585,8.173884 45.8958,11.276794 3.21461,1.479932 6.97061,2.682335 8.34666,2.672009 5.67259,-0.04257 25.64235,8.175575 23.38011,9.621602 -1.50854,0.964257 -0.69513,1.447643 2.30696,1.370993 2.55037,-0.06512 6.30636,0.296603 8.34666,0.803824 2.04029,0.507223 5.69543,0.986084 8.12254,1.064137 4.27917,0.137608 4.37532,0.47407 3.17296,11.101522 l -1.23993,10.95961 11.13729,-1.0099 c 15.33565,-1.39058 20.33228,1.14211 28.95471,14.67657 3.95374,6.20613 8.32826,12.4235 9.72115,13.81638 1.39288,1.39288 1.71365,2.53251 0.71283,2.53251 -1.00084,0 -5.64863,-5.81197 -10.32844,-12.91548 -9.87202,-14.98479 -12.49415,-16.76154 -24.73668,-16.76154 -13.04837,0 -14.64947,1.99686 -17.10292,21.33036 -1.71315,13.49965 -2.89802,17.29534 -6.19337,19.8401 -2.24123,1.73072 -4.18734,4.23472 -4.32471,5.56444 -0.13744,1.32971 -0.34603,3.42722 -0.4637,4.66112 -0.11759,1.2339 -2.37683,4.24899 -5.02037,6.70021 -4.88977,4.53404 -7.06279,15.28917 -6.72025,33.26085 0.16916,8.87665 7.38387,24.60612 15.00146,32.70629 3.24963,3.45549 5.55544,6.63568 5.12403,7.06709 -1.8001,1.8001 -14.25368,-13.46257 -17.12989,-20.99376 -3.01101,-7.88422 -3.18692,-8.01381 -5.31378,-3.91429 -3.99575,7.70181 -4.46409,12.6909 -1.96944,20.97996 1.35604,4.50579 1.71299,7.72725 0.79325,7.1588 -0.91975,-0.56844 -1.67228,-2.18701 -1.67228,-3.59681 0,-1.40981 -0.82512,-3.07324 -1.83358,-3.6965 -1.00846,-0.62327 -1.39832,0.001 -0.86636,1.38725 0.53194,1.38625 -0.27962,5.39426 -1.80346,8.90671 -1.94193,4.47605 -2.7958,5.27664 -2.85469,2.6766 -0.0729,-3.21962 -0.41219,-3.08079 -2.56839,1.05103 -4.42021,8.47025 -4.95397,14.12962 -2.09646,22.22868 1.53367,4.34685 2.45874,8.23311 2.05573,8.63614 -0.40302,0.40302 -1.62052,-1.81386 -2.70555,-4.92636 -2.19604,-6.29958 -4.22109,-7.75401 -2.70061,-1.93962 0.53499,2.04573 -0.11555,5.03066 -1.44547,6.6332 -1.43062,1.72378 -1.70938,3.4241 -0.68263,4.16347 0.95456,0.68735 1.9283,5.7813 2.1639,11.31991 0.2356,5.53858 1.29552,10.60608 2.35539,11.26111 1.05986,0.65504 1.77818,2.80078 1.59627,4.76835 -0.82246,8.89589 0.62224,13.80349 5.35776,18.2001 16.01075,14.86492 22.59972,20.09724 29.69323,23.57948 7.85936,3.85818 14.05003,10.30329 12.42387,12.93447 -0.46893,0.75875 1.02653,0.89532 3.32327,0.30349 3.72,-0.95861 3.89799,-0.73724 1.63027,2.02779 -1.4001,1.70711 -4.04644,3.10386 -5.88077,3.10386 -6.49577,0 -7.09281,22.38684 -0.66286,24.85424 2.56437,0.98406 10.01666,-1.5964 10.01666,-3.46839 0,-3.58645 -4.19206,-10.25697 -6.44594,-10.25697 -1.55546,0 -2.82813,-1.32687 -2.82813,-2.94861 0,-3.46769 7.60687,-10.13806 9.92652,-8.70444 0.87913,0.54333 0.55301,1.63396 -0.72469,2.42365 -3.23129,1.99704 -0.62884,7.78204 3.1706,7.04798 1.71026,-0.33044 5.40459,1.69453 8.20959,4.49994 2.80501,2.80541 6.88979,5.10074 9.0773,5.10074 3.0409,0 3.71816,0.81652 2.87658,3.46811 -0.86657,2.73032 0.0738,3.70302 4.42069,4.57239 3.03677,0.60736 7.91545,0.26971 10.84149,-0.75031 3.47125,-1.21008 6.88708,-1.22848 9.82914,-0.0529 l 4.50904,1.80167 -4.5443,0.1176 c -3.45633,0.0894 -4.02741,0.63446 -2.38532,2.27654 1.64208,1.64209 5.8385,0.3403 17.52798,-5.43744 13.1824,-6.51563 15.74568,-7.22837 18.01649,-5.0097 4.61951,4.5135 -0.18691,10.7435 -13.11182,16.99534 -16.74377,8.099 -33.47853,13.4507 -46.2272,14.7832 -6.0456,0.63188 -11.97182,2.32947 -13.16936,3.77243 -1.70743,2.05732 -1.6187,2.50088 0.41111,2.05517 4.54971,-0.99901 4.16714,6.98958 -0.47635,9.9466 -7.32839,4.66684 -23.9986,10.58689 -41.36266,14.68905 -18.41063,4.34941 -63.87666,6.44536 -78.82957,3.63399 z m -4.63703,-20.49134 c -0.63049,-1.02014 -2.39834,-1.85481 -3.92856,-1.85481 -1.53022,0 -2.26637,0.83467 -1.63588,1.85481 0.63048,1.02015 2.39833,1.85482 3.92855,1.85482 1.53023,0 2.26637,-0.83467 1.63589,-1.85482 z m 1.56177,-8.02143 c 0.67124,0.67125 1.22045,0.24667 1.22045,-0.94349 0,-1.29355 3.03027,-2.16396 7.53366,-2.16396 l 7.53366,0 -1.02121,-6.42572 c -0.78704,-4.9523 -0.43917,-6.20238 1.51709,-5.45169 1.39607,0.53571 4.21959,-1.16337 6.27449,-3.77575 2.404,-3.05617 5.56998,-4.74978 8.87911,-4.74978 6.45203,0 4.31061,-2.50226 -2.50025,-2.92154 -10.5031,-0.64659 -10.53907,-0.65937 -8.26318,-2.93526 1.62635,-1.62634 2.80103,-1.60449 4.84287,0.0901 1.68719,1.40024 3.11575,1.55756 3.81848,0.42053 0.61755,-0.99921 0.0805,-2.46088 -1.19336,-3.24819 -2.97748,-1.84018 -8.94846,-2.30197 -7.90353,-0.61125 1.61486,2.61289 -5.58931,7.22882 -8.43131,5.40218 -1.76134,-1.13205 -2.06212,-2.25781 -0.84221,-3.15209 3.10226,-2.27417 9.00523,-12.25199 6.1777,-10.44219 -3.07818,1.97024 -10.73221,2.30937 -10.26744,0.45495 0.1855,-0.74013 -2.40704,-4.28711 -5.7612,-7.88216 -7.4628,-7.9988 -11.53372,-7.18349 -11.49385,2.30193 0.0212,5.04554 0.48383,6.05237 1.82641,3.97488 1.53658,-2.37768 1.80214,-2.31026 1.82641,0.46371 0.0325,3.71352 -4.70299,4.41434 -6.26652,0.9274 -1.36408,-3.04211 -0.12167,16.72371 1.42819,22.72147 0.65903,2.55037 0.68735,3.54946 0.0629,2.22021 -0.86332,-1.83784 -1.74283,-1.61565 -3.6712,0.92741 -3.36842,4.44213 -3.27858,6.12645 0.32679,6.12645 2.0016,0 2.59691,1.00006 1.81236,3.04456 -0.97687,2.5457 -0.70546,2.66044 1.65637,0.70031 1.55356,-1.28943 2.82467,-3.49416 2.82467,-4.89946 0,-1.40531 0.86086,-2.55511 1.91303,-2.55511 1.05216,0 2.45507,-1.46067 3.11757,-3.24593 1.24341,-3.35064 9.76587,-11.58631 11.99394,-11.59032 1.81259,-0.004 7.08804,5.53415 7.08804,7.44001 0,0.88708 -0.82511,2.12282 -1.83357,2.74607 -1.07532,0.66458 -1.38648,-0.24895 -0.75244,-2.20905 0.84691,-2.61818 0.67857,-2.77595 -0.77705,-0.72823 -1.02199,1.4377 -1.36179,3.9417 -0.75509,5.56444 0.98939,2.64633 0.73275,2.66368 -2.49013,0.16823 -3.32001,-2.57068 -3.40094,-2.53698 -1.06452,0.44328 1.39078,1.77402 3.47744,2.69492 4.63703,2.04642 1.16985,-0.65425 1.05569,-0.0466 -0.25645,1.36507 -1.95455,2.1028 -3.03403,2.12626 -6.22224,0.13521 -2.12159,-1.32495 -3.30349,-1.51271 -2.62646,-0.41724 1.07162,1.73392 -1.06241,2.75082 -4.79526,2.285 -0.64364,-0.0803 -2.73031,1.69884 -4.63703,3.95369 l -3.46678,4.09963 4.17333,-3.5334 c 4.95088,-4.19171 5.53624,-2.07385 0.92741,3.3554 -2.43805,2.87203 -2.51099,3.25861 -0.29304,1.55324 1.62408,-1.24876 3.50208,-1.72125 4.17333,-1.05001 z m 79.79524,-0.33504 c 5.1332,-2.67716 11.78417,-2.60851 16.27668,0.16805 1.2581,0.77754 1.67794,0.54294 0.9978,-0.55752 -0.64579,-1.04495 -3.69609,-2.9445 -6.77842,-4.22124 -3.08233,-1.27676 -5.60425,-3.20028 -5.60425,-4.27448 0,-1.07421 -2.02426,-0.0514 -4.49838,2.27291 l -4.49839,4.22601 0.52623,-6.63213 c 0.28943,-3.64767 -0.0957,-6.24773 -0.85588,-5.77793 -0.76018,0.46981 -2.41356,-0.38862 -3.67422,-1.9076 -1.49398,-1.80013 -5.28081,-2.67384 -10.87533,-2.50921 -4.7208,0.13893 -6.70526,0.61431 -4.40993,1.05641 2.29533,0.44211 4.17333,1.55424 4.17333,2.47143 0,0.91717 1.26146,1.18352 2.80325,0.59187 2.00589,-0.76973 2.47703,-0.22557 1.65637,1.91303 -0.63078,1.64381 -2.93558,2.99403 -5.12177,3.00046 -2.45223,0.007 -5.16499,2.10351 -7.08168,5.47233 l -3.10679,5.46061 9.59864,0.67641 c 5.27924,0.37202 10.85064,0.82567 12.38086,1.0081 1.53022,0.18232 5.17157,-0.91446 8.09188,-2.43751 z m -34.05927,-12.97388 c 0,-6.63096 -0.70106,-12.05629 -1.55793,-12.05629 -0.85687,0 -2.68848,3.4256 -4.07026,7.61243 -1.45981,4.42325 -4.08575,8.19448 -6.26801,9.00175 -3.49903,1.29438 -3.3793,1.59299 1.75174,4.36959 9.2916,5.02804 10.14446,4.27749 10.14446,-8.92748 z m 85.81977,-15.30221 c 2.42543,-2.68868 2.51929,-3.80317 0.54671,-6.49185 -3.18509,-4.34134 -7.04054,-4.09687 -9.99488,0.63377 -2.08242,3.33449 -1.94964,4.23849 0.94493,6.43287 4.38645,3.32534 5.02384,3.28227 8.50324,-0.57479 z M 173.8887,385.56262 c -0.54847,-0.54847 -1.97652,-0.39196 -3.17346,0.34778 -1.61357,0.99726 -1.52559,1.74923 0.3403,2.90851 2.4733,1.53666 4.87068,-1.21876 2.83316,-3.25629 z m 20.58868,2.73611 c -1.14641,-3.43923 -5.13938,-4.00966 -5.13938,-0.73419 0,1.61523 1.32156,2.93678 2.93679,2.93678 1.61523,0 2.6064,-0.99117 2.20259,-2.20259 z m 37.38429,-7.83375 c 1.51038,-1.81991 1.57034,-2.98894 0.19685,-3.83779 -1.08632,-0.67139 -1.54021,-1.92443 -1.00864,-2.78452 1.40893,-2.2797 -4.2775,-1.11471 -6.78155,1.38934 -1.60131,1.60132 -1.54042,2.83687 0.24589,4.98923 2.94116,3.54388 4.5639,3.59771 7.34745,0.24374 z m 75.06986,-8.04809 c -1.5794,-6.79721 -10.01435,-13.43692 -10.01435,-7.88296 0,1.02015 0.83467,1.85481 1.85482,1.85481 1.02015,0 1.85481,1.28723 1.85481,2.86052 0,3.06294 3.71195,8.08151 6.06348,8.19781 0.78455,0.0388 0.89311,-2.22478 0.24124,-5.03018 z m -86.70028,-5.83038 c -1.42284,-1.63899 -3.04734,-4.23198 -3.60999,-5.76221 -0.84007,-2.2847 -1.04919,-2.22943 -1.16944,0.30915 -0.0805,1.70023 -0.99413,3.37392 -2.0302,3.71927 -1.10312,0.36771 -0.64955,2.39002 1.09452,4.88003 2.39016,3.41243 3.50393,3.81585 5.64019,2.04291 2.27959,-1.89189 2.29036,-2.63717 0.0749,-5.18915 z m -30.2202,-26.19895 c 3.13281,-2.93185 -1.01166,-5.53064 -8.82004,-5.53064 -9.67039,0 -11.00969,1.10168 -7.01337,5.76904 2.32584,2.71637 4.45222,3.3132 8.65799,2.43005 3.06623,-0.64386 6.29517,-1.84467 7.17542,-2.66845 z m 77.22912,-14.91418 c 0,-1.08036 0.82511,-1.45433 1.83357,-0.83107 1.06207,0.6564 1.35587,-0.11166 0.69827,-1.82534 -0.62443,-1.62721 -1.26838,-2.71389 -1.43103,-2.41486 -0.16267,0.29904 -1.41372,2.00437 -2.78018,3.78963 -1.65401,2.16091 -1.78856,3.24592 -0.40255,3.24592 1.14505,0 2.08192,-0.88393 2.08192,-1.96428 z m -83.1566,-153.69814 c 6.63972,-0.13854 6.84972,-0.36515 8.81036,-9.50728 2.50492,-11.68001 2.64013,-16.76121 0.34982,-13.14622 -1.35242,2.13465 -1.7786,2.13465 -2.73669,0 -0.62415,-1.39062 -0.66894,-0.6504 -0.0995,1.64493 0.57489,2.31746 0.15486,4.27644 -0.94453,4.40519 -1.0889,0.12751 -2.84492,0.33618 -3.90227,0.4637 -1.05736,0.12752 -2.51803,1.1274 -3.24593,2.22196 -1.85413,2.78809 -7.81531,4.76265 -7.81531,2.58871 0,-0.98813 -1.19575,-1.7966 -2.65723,-1.7966 -1.46147,0 -3.15211,-1.55925 -3.75698,-3.46501 -0.60486,-1.90575 -2.56788,-4.79364 -4.36226,-6.41753 -2.99441,-2.70991 -3.43662,-2.67373 -5.38135,0.44026 -1.77573,2.84341 -1.07915,4.49506 4.3018,10.19988 3.53135,3.74389 5.86733,7.70235 5.19107,8.79656 -1.52266,2.46372 2.41239,5.0861 6.44983,4.29825 1.64854,-0.32169 6.05818,-0.64875 9.7992,-0.7268 z m -18.85814,-4.41855 c 1.53022,-0.61778 0.51845,-0.91361 -2.24839,-0.65739 -2.76683,0.25622 -5.68816,1.18768 -6.49184,2.06991 -0.80369,0.88223 -0.41792,1.00364 0.85727,0.2698 1.35079,-0.77734 2.33037,-0.32082 2.34692,1.09374 0.0193,1.65108 0.46444,1.7751 1.39111,0.38758 0.74949,-1.12222 2.6147,-2.54586 4.14493,-3.16364 z m -13.67814,-7.68441 c -1.70539,-2.60275 -4.00543,-4.73228 -5.1112,-4.73228 -1.10578,0 -1.54032,-1.22526 -0.96566,-2.72282 0.57467,-1.49755 0.2407,-3.21981 -0.74215,-3.82724 -0.98285,-0.60743 -3.00469,-3.45919 -4.49299,-6.33723 l -2.70599,-5.23281 9.21103,0 c 9.01028,0 11.9764,1.82354 6.42881,3.95235 -4.02707,1.54533 -3.4167,4.89369 0.89207,4.89369 2.37234,0 4.08667,-1.64308 4.83811,-4.63704 0.6401,-2.55037 1.91507,-4.63703 2.83327,-4.63703 0.96438,0 0.93664,-1.37089 -0.0657,-3.24592 -0.95432,-1.78526 -2.30298,-4.91526 -2.99702,-6.95555 -1.23474,-3.6298 -1.29064,-3.63245 -2.59766,-0.12313 -1.47422,3.95827 -2.71871,2.63398 -4.48545,-4.77303 -1.47247,-6.17331 -6.7643,-8.69962 -6.7643,-3.22926 0,3.42256 -0.76224,3.68567 -7.41926,2.56097 -5.18268,-0.8756 -7.41925,-0.59171 -7.41925,0.94175 0,1.20738 -1.78762,4.70571 -3.97249,7.77407 -2.96652,4.16609 -3.39564,5.93536 -1.69455,6.98669 1.40211,0.86655 2.05234,4.53229 1.69119,9.53422 -0.55564,7.69565 -0.29378,8.18911 4.94048,9.30981 3.74934,0.80277 4.33399,1.29616 1.81759,1.53389 -2.5184,0.23793 -1.02936,1.4969 4.63703,3.92058 4.59067,1.96356 9.59866,4.32216 11.12888,5.24132 4.56446,2.74175 6.39999,-1.03014 3.01519,-6.196 z m 149.85214,-2.21553 c 1.76714,-4.60507 -0.18065,-5.23387 -2.54241,-0.82079 -1.13941,2.12901 -1.29622,3.86849 -0.34872,3.86849 0.94688,0 2.2479,-1.37147 2.89113,-3.0477 z M 279.8803,92.340049 c -0.39842,-2.100886 -2.57289,-3.399206 -6.16414,-3.68044 -5.07238,-0.397225 -5.19042,-0.282965 -1.37525,1.331339 2.29533,0.971221 4.17333,2.627419 4.17333,3.680441 0,1.053021 0.89587,1.914583 1.9908,1.914583 1.09496,0 1.71381,-1.460665 1.37526,-3.245923 z"
       id="path6568"
       inkscape:connector-curvature="0" />
    <path
       style="fill:#ca656a"
       d="m 227.36168,456.23715 c -2.0403,-0.46963 -8.07667,-1.73682 -13.41417,-2.81601 -12.70575,-2.56895 -17.66967,-5.17599 -37.04818,-19.45763 -8.90347,-6.56169 -18.11459,-11.93036 -20.46917,-11.93036 -5.73028,0 -28.71628,-11.71278 -34.66999,-17.66649 -3.41405,-3.41404 -4.75186,-6.70272 -4.73149,-11.63112 0.0212,-5.11931 0.48683,-6.16188 1.82641,-4.08903 1.52447,2.35895 1.80233,2.27175 1.82641,-0.57318 0.0156,-1.84546 0.86307,-2.83953 1.88321,-2.20904 1.17019,0.72321 1.85482,-3.72686 1.85482,-12.05629 0,-7.26145 0.73304,-12.74958 1.62898,-12.19586 0.89594,0.55371 2.1675,-1.68583 2.82569,-4.97678 0.70183,-3.50913 0.4117,-6.24522 -0.70157,-6.61631 -4.21842,-1.40613 -1.97772,-14.55211 3.69763,-21.69358 3.67276,-4.62159 5.21351,-8.24639 4.48321,-10.54734 -0.61198,-1.92819 0.2234,-5.54493 1.8564,-8.03721 3.51001,-5.35696 4.38013,-22.9047 1.23221,-24.85021 -1.19047,-0.73577 -1.6296,-2.73168 -0.97583,-4.43538 0.65377,-1.7037 0.58088,-4.5583 -0.16198,-6.34356 -0.74286,-1.78526 -1.18898,-7.62792 -0.99138,-12.98369 0.19761,-5.35578 -0.4161,-9.73777 -1.3638,-9.73777 -0.9477,0 -1.7356,-2.29533 -1.75089,-5.10074 -0.0747,-13.69496 -7.79912,-73.06248 -10.87711,-83.59767 -1.2041,-4.12135 -0.95218,-4.2471 5.92409,-2.9571 3.94991,0.74101 11.36601,3.29583 16.48022,5.67738 5.1142,2.38155 10.23969,4.33825 11.38996,4.34821 1.15027,0.01 3.13047,1.27012 4.40044,2.80034 1.26997,1.53022 3.61371,2.78222 5.2083,2.78222 1.5946,0 4.75189,1.74045 7.01621,3.86767 4.01756,3.7743 4.24431,3.78653 9.39361,0.50654 7.18049,-4.5738 7.26195,-4.73588 11.80591,-23.49013 4.26987,-17.62304 3.16221,-23.93314 -2.77668,-15.81814 -3.01798,4.12382 -3.11316,4.13989 -2.00215,0.33801 1.56606,-5.35908 -5.68707,-13.54873 -12.45001,-14.05755 -3.59375,-0.27037 -7.7539,-3.32622 -13.85937,-10.18042 -6.62804,-7.44086 -9.97994,-9.79408 -13.95056,-9.79408 -5.91376,0 -19.91709,6.54693 -19.91709,9.31177 0,2.0998 -12.91656,2.51931 -13.1167,0.426 -1.48002,-15.47983 -1.43064,-31.995529 0.0957,-31.995529 1.04068,0 1.89215,0.808471 1.89215,1.7966 0,0.988132 1.26263,1.312086 2.80584,0.7199 1.54321,-0.592186 3.87996,-0.185259 5.19276,0.904266 1.31281,1.089532 5.89284,2.541588 10.17785,3.226789 4.76095,0.761305 7.79094,2.235663 7.79094,3.79098 0,1.399838 1.46066,2.555213 3.24592,2.567501 1.78526,0.01224 6.87845,2.098953 11.31821,4.637033 4.43976,2.53808 9.65642,4.61469 11.59258,4.61469 2.28376,0 3.5203,1.30305 3.5203,3.70963 0,3.03845 1.25845,3.72152 6.95555,3.77535 3.82556,0.0361 9.00017,1.19802 11.49913,2.58193 5.22643,2.89436 8.2137,2.14601 15.54092,-3.89321 4.71562,-3.88669 4.90314,-4.44701 1.85482,-5.54217 -1.86515,-0.67009 -7.21835,-2.68926 -11.896,-4.48706 -4.67765,-1.7978 -21.00424,-7.067638 -36.28131,-11.710759 -15.27706,-4.643123 -31.06455,-9.829256 -35.08329,-11.524741 -6.32837,-2.669898 -6.81006,-3.262068 -3.59719,-4.422181 2.0403,-0.736716 14.14295,-1.214189 26.8948,-1.061052 17.77867,0.213504 25.02057,1.062129 31.05609,3.639237 4.32902,1.848442 7.45786,4.029169 6.953,4.846058 -0.50487,0.81689 0.66721,1.070726 2.60462,0.564082 1.93741,-0.506644 5.4859,0.150184 7.88552,1.459623 2.39962,1.309439 6.86695,2.233521 9.92739,2.053516 4.71853,-0.277526 5.0005,-0.06998 1.85482,1.365208 -3.40988,1.555727 -3.32744,1.703023 1.02014,1.822855 2.60138,0.07171 5.52271,0.875904 6.49185,1.787119 0.96914,0.911212 6.07763,2.557483 11.35219,3.65838 5.27456,1.100895 12.54885,3.663448 16.16506,5.694565 5.89633,3.31176 6.86734,3.40056 9.40751,0.86039 1.55789,-1.5579 3.88227,-2.300093 5.16528,-1.64932 1.28301,0.65076 0.71255,-0.13069 -1.26769,-1.73656 -1.98024,-1.605872 -4.74216,-2.919768 -6.13761,-2.919768 -1.39544,0 -2.07957,-0.740428 -1.52027,-1.645396 0.55931,-0.904969 -0.0167,-1.530968 -1.28163,-1.39111 -2.10403,0.232766 -42.16782,-12.129232 -59.79778,-18.451074 -10.30237,-3.694277 -12.34896,-5.268531 -11.09558,-8.534799 1.21002,-3.15325 8.05143,-2.373365 23.15187,2.639191 4.59066,1.523861 13.35465,3.847684 19.47554,5.164055 6.12088,1.316368 12.13211,3.620212 13.35828,5.119652 1.22617,1.499439 3.52151,2.230428 5.10074,1.62442 1.57923,-0.606009 2.87133,-0.319561 2.87133,0.636553 0,0.956114 1.28613,1.244853 2.85807,0.641643 1.7665,-0.677869 2.65201,-0.182254 2.31851,1.297685 -0.29675,1.316938 1.54712,3.504567 4.09749,4.861396 2.55037,1.356831 4.43838,3.27303 4.19559,4.258218 -0.24282,0.985188 1.00918,1.270968 2.78222,0.635068 1.77301,-0.635899 2.66722,-0.536307 1.98712,0.22132 -1.41369,1.574842 6.05123,9.664946 8.24371,8.934116 0.79349,-0.2645 1.91653,0.75383 2.49564,2.26296 0.74174,1.93294 2.78211,0.19594 6.90393,-5.877447 9.33275,-13.751532 12.91113,-15.570178 27.85214,-14.155384 l 12.72702,1.20515 -1.19906,10.598301 -1.19904,10.5983 12.64415,-0.90469 c 11.73678,-0.83976 13.07833,-0.53936 18.69409,4.18598 3.32744,2.79987 7.60995,8.11567 9.51668,11.8129 1.90673,3.69722 5.24129,8.60023 7.41016,10.89556 2.16887,2.29533 3.15166,4.17333 2.18395,4.17333 -0.96769,0 -5.58838,-5.81197 -10.26819,-12.91548 -9.71943,-14.75315 -12.57747,-16.7714 -23.70008,-16.73621 -16.7006,0.0528 -15.92697,-1.08628 -19.29162,28.406 -1.02659,8.99837 -1.98209,11.15175 -5.6999,12.8457 -2.45661,1.1193 -4.3428,3.34919 -4.19154,4.95531 0.53316,5.66173 -0.19723,7.44889 -4.78156,11.69973 -3.74567,3.47318 -4.98626,7.10733 -6.49888,19.03775 -1.9848,15.65446 -1.10252,20.82109 6.01887,35.2464 2.01449,4.08059 5.8662,9.85024 8.55937,12.82145 l 4.89667,5.40219 -5.07735,-3.54737 c -4.87601,-3.40673 -14.39819,-19.41462 -14.39819,-24.20505 0,-1.26972 -0.97651,-2.91209 -2.17002,-3.64972 -1.4526,-0.89775 -1.7842,-0.33575 -1.00307,1.6999 0.64184,1.67257 -0.13262,6.15136 -1.72099,9.95287 -2.36945,5.67091 -2.49928,8.20903 -0.72319,14.13713 1.19063,3.97392 1.68957,7.70048 1.10879,8.28126 -0.58078,0.58078 -1.05596,-0.28589 -1.05596,-1.92593 0,-1.64003 -0.96363,-3.57743 -2.1414,-4.30534 -1.36472,-0.84344 -1.63628,-0.50618 -0.74875,0.92989 0.76596,1.23934 0.35298,4.7633 -0.91769,7.83101 -1.47528,3.56163 -2.79752,4.78941 -3.65818,3.39683 -0.81639,-1.32092 -2.61877,1.14707 -4.57113,6.25925 -2.99766,7.84928 -3.01415,9.05385 -0.2355,17.2087 1.64327,4.82276 2.66937,9.08703 2.28021,9.47619 -0.38914,0.38914 -1.59529,-1.83907 -2.68032,-4.95157 -2.85122,-8.17904 -2.9735,-7.98067 -4.22888,6.86086 -0.47617,5.6293 1.74082,22.55548 3.27545,25.00745 0.80931,1.29308 1.57871,5.37219 1.70977,9.06468 0.28544,8.04225 2.70577,11.73807 13.94145,21.28845 19.79716,16.82767 24.47508,20.19638 27.37454,19.71318 2.64419,-0.44065 2.6169,-0.2381 -0.20095,1.4915 -1.79335,1.10077 -4.03099,1.52526 -4.97257,0.94333 -0.94158,-0.58192 -2.23624,-0.20976 -2.877,0.82703 -1.78261,2.88433 -6.83894,2.26337 -14.85721,-1.82456 -7.86031,-4.00742 -11.02757,-4.69205 -9.38097,-2.0278 0.57169,0.92502 -0.83972,1.28493 -3.13646,0.7998 -3.67828,-0.77694 -3.7891,-0.63483 -0.92996,1.19255 2.07065,1.32343 3.24592,4.40839 3.24592,8.52018 0,5.16862 0.91867,6.79487 4.63703,8.20859 3.73567,1.4203 4.63704,3.03382 4.63704,8.30075 0,3.59576 0.79673,6.53776 1.77051,6.53776 0.97378,0 3.85716,2.08666 6.40753,4.63703 2.55037,2.55037 6.55298,4.65145 8.89468,4.66909 5.13507,0.0386 13.45508,8.21966 11.52889,11.33628 -1.02925,1.66538 1.96811,1.89271 12.29782,0.93266 7.51233,-0.69819 14.11185,-1.87648 14.66559,-2.61839 0.55373,-0.74192 5.18012,-1.43733 10.28086,-1.54533 5.11368,-0.10833 15.51462,-2.51196 23.18517,-5.3581 7.6511,-2.83892 15.91704,-5.12329 18.36875,-5.07634 2.95452,0.0566 3.65183,-0.4127 2.06793,-1.39161 -3.4767,-2.14873 3.80582,-5.68907 8.94046,-4.34633 4.25801,1.1135 4.70311,2.21457 2.84868,7.04712 -2.52134,6.57051 -40.90112,22.27099 -59.89975,24.5039 -6.03052,0.70877 -12.80564,3.00443 -16.73341,5.66993 -3.63002,2.46343 -8.94754,4.94847 -11.8167,5.52232 -3.17186,0.6344 -4.54841,1.71162 -3.51181,2.74822 1.87266,1.87265 18.92995,-5.5688 18.92995,-8.25843 0,-0.87709 0.83466,-1.07883 1.85481,-0.44835 1.02015,0.63049 1.85482,2.75236 1.85482,4.71526 0,6.0731 -21.34221,15.16026 -50.07997,21.32323 -13.3618,2.8655 -60.01688,5.2971 -67.70069,3.52848 z m 21.33035,-8.23661 c 0,-1.05669 -5.48715,-1.85481 -12.75184,-1.85481 -7.01351,0 -15.56884,-0.53723 -19.01184,-1.19384 -3.443,-0.6566 -5.66094,-0.54444 -4.92876,0.24927 0.73218,0.7937 8.24418,2.04564 16.69332,2.78209 8.44915,0.73646 16.40542,1.45896 17.68061,1.60555 1.27518,0.1466 2.31851,-0.56811 2.31851,-1.58826 z m 54.01594,-7.11566 c -2.42588,-0.3431 -5.7012,0.66671 -7.27851,2.24403 -2.58725,2.58724 -2.1557,2.64828 4.41067,0.62381 6.12929,-1.8897 6.5821,-2.34252 2.86784,-2.86784 z m -98.5078,0.65232 c -1.25695,-1.51453 -5.91758,-4.56772 -10.35696,-6.78485 -7.75656,-3.87382 -9.2674,-7.15476 -3.29469,-7.15476 1.56552,0 3.28294,1.66933 3.81649,3.70963 0.53355,2.04029 1.70741,3.70962 2.60857,3.70962 0.90117,0 1.63849,-1.66933 1.63849,-3.70962 0,-2.4266 1.23654,-3.70963 3.57519,-3.70963 1.96636,0 5.7131,-2.71266 8.32609,-6.02814 2.613,-3.31548 4.76016,-4.93555 4.77147,-3.60016 0.0119,1.41046 0.95076,1.85309 2.24016,1.05619 1.22078,-0.75449 0.34725,1.25769 -1.94117,4.47149 -2.28842,3.21378 -4.95657,6.33508 -5.92922,6.93622 -0.97265,0.60113 -1.76845,2.59958 -1.76845,4.441 0,3.85957 9.39078,5.7071 29.00848,5.7071 6.6284,0 11.79741,0.81268 11.79741,1.85481 0,3.46744 12.02365,2.01319 15.33555,-1.85481 3.5121,-4.10185 14.51966,-4.99544 24.89189,-2.02071 4.14206,1.18791 8.67758,0.87143 15.28997,-1.06693 5.17059,-1.51572 9.40107,-3.08585 9.40107,-3.48918 0,-0.40335 -3.54733,-0.35321 -7.88296,0.11147 -4.33563,0.4646 -6.63096,0.37393 -5.10074,-0.2015 1.53022,-0.57544 4.03422,-1.51333 5.56444,-2.08422 4.63989,-1.73104 10.14656,-1.95314 11.12888,-0.44885 0.51008,0.7811 3.43141,0.2402 6.49185,-1.20199 4.54522,-2.14186 4.75109,-2.46759 1.12392,-1.7783 -2.56018,0.48652 -3.7383,0.15487 -2.78222,-0.78323 0.91207,-0.89492 4.57963,-1.99525 8.15015,-2.44521 3.57051,-0.44995 1.68589,-0.58428 -4.18802,-0.29849 -9.83471,0.47847 -11.59813,-0.0905 -22.28318,-7.18881 -23.57902,-15.66422 -27.71633,-18.19951 -26.5074,-16.24342 0.74278,1.20184 0.17695,1.59406 -1.41728,0.98233 -1.45957,-0.56008 -2.54625,-2.42853 -2.41485,-4.15208 0.14616,-1.91604 -1.01462,-3.03494 -2.98705,-2.87945 -1.77428,0.13986 -2.76835,-0.48614 -2.20905,-1.39111 0.5593,-0.90505 0.13299,-1.64548 -0.94736,-1.64548 -1.08036,0 -1.96429,-1.252 -1.96429,-2.78222 0,-1.53022 -0.90954,-2.78222 -2.0212,-2.78222 -1.11167,0 -3.5879,-1.878 -5.50273,-4.17333 l -3.48153,-4.17333 -0.0618,4.90229 c -0.0625,4.96554 -4.57497,8.50061 -6.62232,5.18792 -1.77363,-2.86977 -4.40826,-0.16378 -3.65396,3.75292 0.45675,2.37167 -0.13911,3.24692 -1.78122,2.61677 -1.35711,-0.5208 -3.02692,-0.0417 -3.71068,1.06464 -1.48524,2.40317 -4.70826,0.79321 -4.66808,-2.3318 0.0171,-1.32732 0.74611,-1.09855 1.82647,0.57318 0.9889,1.53022 1.91512,2.15622 2.05826,1.39111 0.86579,-4.62784 0.64384,-6.1846 -1.0688,-7.4966 -1.10431,-0.84596 -0.42592,-1.23909 1.60033,-0.92741 1.93446,0.29759 3.87601,-0.71095 4.31455,-2.24117 0.47446,-1.65557 0.17676,-2.03113 -0.73499,-0.92741 -1.75737,2.12723 -8.90184,2.49041 -10.8596,0.55203 -0.7237,-0.71653 0.0644,-2.68297 1.75124,-4.36985 2.35867,-2.35865 2.57533,-3.65954 0.93806,-5.63234 -1.17096,-1.4109 -2.99806,-2.02816 -4.06024,-1.37171 -1.07765,0.66603 -1.3813,0.30375 -0.68699,-0.81966 0.68434,-1.10729 0.49086,-2.47887 -0.42995,-3.04794 -0.9208,-0.56909 -2.10828,0.62522 -2.63882,2.65405 -0.53055,2.02882 -2.29478,3.68876 -3.92051,3.68876 -3.70951,0 -3.69675,-0.8546 0.0993,-6.64808 2.41102,-3.67967 2.50878,-4.54581 0.46371,-4.10807 -1.49293,0.31954 -2.39051,-0.69024 -2.11743,-2.3821 0.26071,-1.61525 -0.78262,-2.9368 -2.31852,-2.9368 -1.53589,0 -2.79254,1.20219 -2.79254,2.67154 0,1.70517 -1.09144,2.25269 -3.01731,1.51368 -1.65952,-0.63684 -4.17382,-0.19806 -5.58731,0.97505 -2.08547,1.73078 -2.12857,2.69846 -0.22861,5.13274 2.07639,2.66032 1.97675,2.71398 -0.88045,0.47418 -3.44927,-2.70391 -12.54408,-1.51954 -12.54408,1.63357 0,1.00071 -2.65341,1.81948 -5.89646,1.81948 -3.24305,0 -8.54523,0.95781 -11.78263,2.12847 -5.24401,1.89625 -6.35869,1.65596 -10.21724,-2.20259 -2.74581,-2.74581 -4.59979,-3.52487 -5.06525,-2.12847 -1.01578,3.04733 -4.13469,2.77328 -4.13469,-0.3633 0,-1.41124 -1.59089,-2.98191 -3.53531,-3.49039 -2.68047,-0.70097 -3.76072,0.25468 -4.46756,3.95227 -1.00444,5.25437 1.97077,8.51079 5.27237,5.7707 1.36181,-1.1302 2.79688,0.43256 4.3556,4.74314 1.27855,3.53578 3.43331,6.42868 4.78836,6.42868 1.35504,0 2.89691,1.12887 3.42636,2.5086 0.52945,1.37974 6.515,4.92707 13.30122,7.88295 l 12.33859,5.37436 -1.21489,6.47772 c -1.65032,8.79949 -2.26951,9.47518 -7.48362,8.16652 -2.75681,-0.6919 -4.52336,-0.33239 -4.52336,0.9206 0,1.13075 0.93687,2.05589 2.08193,2.05589 1.52612,0 1.51886,0.67844 -0.0272,2.54134 -1.65963,1.99973 -0.81863,3.52292 3.94622,7.14722 5.21568,3.96721 19.51919,12.24212 21.58466,12.48722 0.37995,0.0451 -0.3376,-1.15718 -1.59455,-2.67173 z M 181.91875,428.525 c 0,-0.51008 -0.20867,-1.55341 -0.46371,-2.31852 -0.25503,-0.76511 1.42224,-1.48619 3.72727,-1.60241 3.33831,-0.16823 3.76381,0.30339 2.0914,2.31852 -2.04763,2.46725 -5.35496,3.45692 -5.35496,1.60241 z m 36.26874,-13.74949 c -1.92954,-3.12206 0.79979,-6.49571 3.26265,-4.03285 1.45203,1.45202 1.45203,2.58082 0,4.03285 -1.45203,1.45204 -2.36524,1.45204 -3.26265,0 z m -7.28728,-44.90899 c -4.27923,-4.99778 -2.7842,-6.49281 1.62296,-1.62296 1.85776,2.05279 2.99052,4.11959 2.51725,4.59287 -0.47328,0.47327 -2.33637,-0.86318 -4.14021,-2.96991 z m 0.89861,55.41255 4.1653,-6.02814 -4.9664,4.49664 c -2.73152,2.47317 -4.9664,5.18584 -4.9664,6.02815 0,2.80613 1.56407,1.5867 5.7675,-4.49665 z m -41.59028,-6.05019 c -3.89025,-3.57291 -9.52424,-7.76368 -12.51999,-9.31284 -2.99575,-1.54917 -5.44682,-3.62989 -5.44682,-4.62384 0,-0.99396 -1.36924,-1.80718 -3.04276,-1.80718 -3.96084,0 -19.215,-7.62338 -19.215,-9.60286 0,-0.8393 -1.18245,-1.52603 -2.62765,-1.52603 -1.44521,0 -2.97543,-0.626 -3.4005,-1.39111 -0.42506,-0.76511 -0.64531,-0.5912 -0.48944,0.38649 0.28314,1.77599 14.87263,11.14658 30.63016,19.67327 4.59067,2.48409 8.764,4.96262 9.27407,5.50787 2.18216,2.33261 11.72618,9.20937 12.77013,9.20126 0.62753,-0.006 -2.04196,-2.93214 -5.9322,-6.50503 z m 191.92765,-7.25615 c 12.58486,-2.44212 27.52167,-7.49522 27.52167,-9.31053 0,-0.42518 -2.71266,0.0614 -6.02814,1.08128 -3.31548,1.01989 -15.20947,3.79809 -26.4311,6.17381 -11.22162,2.37572 -17.76371,4.40432 -14.53797,4.50805 3.22574,0.10368 11.98974,-0.99997 19.47554,-2.45261 z M 208.68106,359.76441 c 3.53859,-3.5386 3.53631,-4.1929 -0.035,-10.06899 l -2.81827,-4.63703 0.83814,5.44688 c 0.97472,6.33445 -0.30162,10.74375 -2.68376,9.27151 -0.91325,-0.56442 -1.66045,-0.1423 -1.66045,0.93805 0,2.85499 3.00272,2.40622 6.35936,-0.95042 z m -2.64974,-4.27744 c 0,-0.89523 -1.252,-2.66676 -2.78222,-3.93673 -3.02002,-2.50639 -3.39753,-1.90688 -1.65637,2.63051 1.19182,3.10583 4.43859,4.06132 4.43859,1.30622 z m 91.99039,-2.36851 c 0.81997,-1.32675 0.50881,-1.63791 -0.81794,-0.81793 -1.28164,0.7921 -2.1414,0.11852 -2.1414,-1.6777 0,-1.65064 0.83467,-2.4853 1.85481,-1.85481 3.01914,1.86592 2.11407,-0.2629 -1.28345,-3.01882 -2.13241,-1.72971 -2.69182,-1.80251 -1.74534,-0.22711 0.76611,1.27519 0.57855,2.31852 -0.4168,2.31852 -0.99535,0 -2.14342,-1.00114 -2.5513,-2.22474 -0.46852,-1.40558 -1.17936,-1.08388 -1.93056,0.87373 -0.6686,1.74234 0.0521,4.33967 1.64691,5.93437 3.38661,3.38661 5.59302,3.5941 7.38507,0.69449 z m -103.4283,-5.27817 c 0.45071,-1.35214 -0.33871,-3.36587 -1.75426,-4.47497 -1.41556,-1.10911 -2.84574,-4.51432 -3.17817,-7.56716 -0.33244,-3.05282 -0.77529,-5.72145 -0.98412,-5.93029 -0.20882,-0.20881 -4.74917,-0.87927 -10.08966,-1.48987 -11.29891,-1.29186 -15.97641,1.15564 -16.4685,8.61713 -0.28095,4.25998 0.56192,5.08671 6.27975,6.15939 3.63234,0.68142 9.45829,2.76864 12.94656,4.63824 7.03259,3.76924 12.00189,3.78706 13.2484,0.0475 z m 86.63854,-8.34634 c 0.2512,-1.02015 0.75313,-3.00248 1.11543,-4.40518 0.36229,-1.40271 -0.38463,-2.93293 -1.65981,-3.40049 -1.27519,-0.46758 -2.31852,0.40187 -2.31852,1.93209 0,1.53022 -0.98244,3.1097 -2.18321,3.50995 -1.41413,0.47139 -1.59378,1.6693 -0.51,3.40051 0.92027,1.47001 1.49298,4.34208 1.2727,6.38237 -0.31547,2.92189 0.0482,2.72497 1.71311,-0.9274 1.16248,-2.55037 2.31913,-5.4717 2.5703,-6.49185 z m -83.08359,2.57454 c -1.78525,-1.00732 -3.24592,-3.1811 -3.24592,-4.83066 0,-1.64954 -0.50851,-2.49068 -1.13002,-1.86917 -0.62151,0.62153 -0.0117,3.65645 1.35508,6.74427 1.69884,3.83796 3.08335,5.00881 4.37595,3.70063 1.28852,-1.30403 0.85687,-2.49701 -1.35509,-3.74507 z m 74.65625,-12.66654 c 0,-1.98009 -0.83467,-4.11602 -1.85481,-4.74651 -1.02015,-0.63049 -1.84204,-2.14042 -1.82642,-3.35539 0.0167,-1.32733 0.74606,-1.09855 1.82642,0.57317 1.08035,1.67173 1.80935,1.9005 1.82641,0.57318 0.0464,-3.61042 -3.09099,-4.4467 -5.55299,-1.48016 -1.26065,1.51898 -4.06789,2.8277 -6.2383,2.90823 -2.71393,0.10072 -3.07741,0.46971 -1.16401,1.18167 1.53023,0.56939 4.27541,2.59015 6.10041,4.49059 4.27383,4.45053 6.88329,4.39565 6.88329,-0.14486 z m -10.27775,-0.23288 c -0.67242,-1.08801 -1.68823,-1.5126 -2.25732,-0.9435 -0.5691,0.56909 -1.94854,0.27631 -3.06545,-0.65063 -1.26029,-1.04595 -3.39468,-0.68801 -5.62589,0.94348 -3.30979,2.42018 -2.96941,2.62887 4.28805,2.62887 5.11101,0 7.45329,-0.69567 6.66061,-1.97822 z m -0.85113,-13.58803 c 0,-1.29998 -1.23876,-2.36362 -2.75277,-2.36362 -1.89866,0 -2.1914,0.67641 -0.9435,2.18005 0.9951,1.19901 1.19051,2.86306 0.43424,3.69785 -0.75624,0.83482 -0.33167,0.91743 0.94351,0.18363 1.27519,-0.73384 2.31852,-2.39789 2.31852,-3.69787 z M 199.84861,296.7019 c 0,-3.65395 -3.57112,-2.36394 -4.13743,1.49457 -0.25571,1.74223 0.52483,2.64563 1.84732,2.13816 1.25956,-0.48335 2.29011,-2.11807 2.29011,-3.63273 z m -16.07505,-14.70717 c 0,-1.31193 -1.252,-2.86576 -2.78222,-3.45298 -2.00409,-0.76904 -2.78222,0.19671 -2.78222,3.45298 0,3.25627 0.77813,4.22202 2.78222,3.45298 1.53022,-0.58722 2.78222,-2.14105 2.78222,-3.45298 z M 302.48162,154.58549 c 0,-0.82516 -0.83466,-1.5003 -1.85481,-1.5003 -1.02015,0 -1.85481,0.7664 -1.85481,1.70312 0,0.93671 -0.48548,3.23204 -1.07884,5.10073 -0.98718,3.10908 -0.82967,3.09186 1.85482,-0.20281 1.6135,-1.98024 2.93364,-4.27557 2.93364,-5.10074 z M 253.03949,113.6704 c 1.58539,-3.82555 2.18091,-6.95555 1.32341,-6.95555 -0.8575,0 -2.06335,2.00913 -2.67966,4.46472 -0.61632,2.4556 -1.67446,6.00293 -2.35141,7.88296 -2.16592,6.01508 0.7191,1.81935 3.70766,-5.39213 z m 61.13855,-22.201912 c 2.62226,-4.193794 2.68401,-4.864376 0.36603,-3.974885 -1.5336,0.588502 -2.78838,1.747104 -2.78838,2.574672 0,0.827568 -0.55032,3.033599 -1.22293,4.902294 -1.47361,4.094054 -0.54882,3.205595 3.64528,-3.502081 z M 115.14546,145.66594 c 0,-10.82991 2.50713,-12.04596 5.58813,-2.71044 1.67366,5.07123 1.65473,7.17992 -0.0833,9.27407 -3.96405,4.77638 -5.50487,2.93921 -5.50487,-6.56363 z m 60.05327,-4.56279 c -0.63663,-1.65905 -0.75654,-3.41744 -0.26645,-3.90753 1.57073,-1.57073 7.16777,1.43455 6.48523,3.48218 -1.1142,3.34259 -4.9974,3.6082 -6.21878,0.42535 z m 97.60588,-63.244788 c -7.65111,-2.443266 -21.8618,-6.102566 -31.57929,-8.131779 -46.77777,-9.768147 -63.2845,-14.782946 -49.01236,-14.890105 4.1316,-0.03102 8.41911,0.850714 9.52781,1.959412 1.1087,1.108698 8.78763,2.479965 17.06429,3.04726 8.27665,0.567295 15.04847,1.630071 15.04847,2.361725 0,0.731654 4.64831,1.810028 10.32958,2.396387 5.68126,0.586359 11.31525,1.860759 12.51999,2.832 1.20472,0.971242 5.84706,2.369434 10.31633,3.107095 4.8638,0.802784 7.21301,1.905403 5.8519,2.746623 -3.0342,1.875231 5.87439,4.131407 10.45107,2.646828 2.55436,-0.828583 2.7682,-0.654395 0.86492,0.704534 -1.96278,1.401402 -1.34036,2.237665 2.78222,3.738163 10.39608,3.78387 -0.49088,1.848463 -14.16493,-2.518143 z"
       id="path6566"
       inkscape:connector-curvature="0" />
    <path
       style="fill:#a25761"
       d="m 227.36168,456.23715 c -2.0403,-0.46963 -8.07667,-1.73682 -13.41417,-2.81601 -12.70575,-2.56895 -17.66967,-5.17599 -37.04818,-19.45763 -8.90347,-6.56169 -18.11459,-11.93036 -20.46917,-11.93036 -5.73028,0 -28.71628,-11.71278 -34.66999,-17.66649 -3.29332,-3.29331 -4.7599,-6.7564 -4.7599,-11.23968 l 0,-6.47979 4.17333,3.93626 c 2.29534,2.16494 10.016,7.29747 17.15703,11.4056 7.14103,4.10814 17.56106,10.50732 23.15561,14.22043 5.59455,3.7131 11.1729,7.38741 12.39633,8.16515 1.22343,0.77774 2.82636,0.44011 3.56207,-0.75029 0.75498,-1.22158 0.53711,-1.66959 -0.50018,-1.02851 -1.0108,0.6247 -4.8977,-1.75034 -8.63754,-5.27788 -3.73985,-3.52752 -7.58945,-6.41368 -8.55467,-6.41368 -2.44196,0 -11.22015,-8.35516 -11.22015,-10.67942 0,-1.04907 -1.37005,-2.43313 -3.04457,-3.07569 -2.5645,-0.98411 -2.66906,-0.71587 -0.66309,1.70118 3.74723,4.51513 1.55101,4.39333 -6.49381,-0.36015 -6.1677,-3.64436 -6.55881,-4.18468 -2.31852,-3.20308 2.80541,0.64944 5.10074,0.61337 5.10074,-0.0801 0,-2.34368 -5.27974,-6.56047 -8.21417,-6.56047 -1.60309,0 -2.91471,-0.89428 -2.91471,-1.98731 0,-1.093 -1.252,-3.2393 -2.78222,-4.76952 -1.6755,-1.67549 -2.78222,-6.21385 -2.78222,-11.40909 0,-8.33979 0.0962,-8.48959 2.88967,-4.5013 1.58932,2.26907 2.37473,4.95879 1.74535,5.97714 -0.62938,1.01837 0.0973,1.85157 1.61487,1.85157 1.51756,0 4.15704,1.39784 5.86551,3.10631 1.70847,1.70847 4.88645,3.23745 7.06216,3.39774 2.68839,0.19806 4.46911,2.0811 5.5578,5.87711 0.94124,3.2819 4.01191,6.9814 7.44513,8.96975 3.21375,1.86125 7.77895,4.87027 10.14489,6.68673 l 4.3017,3.30262 -7.08392,-1.11843 c -3.89616,-0.61515 -7.69714,-2.03271 -8.44663,-3.15014 -0.78559,-1.17126 -1.34976,-1.24618 -1.33212,-0.17695 0.0427,2.59103 4.71727,8.48816 5.83913,7.3663 0.50748,-0.50748 3.91284,1.89738 7.56746,5.34414 3.65463,3.44677 7.94215,6.76469 9.52782,7.37316 1.58567,0.60848 2.44011,2.2606 1.89875,3.67137 -1.9567,5.09906 18.78817,17.56169 36.28829,21.80045 11.59431,2.80829 57.342,3.20199 65.50513,0.56374 3.6009,-1.1638 -2.73748,-1.60864 -20.40295,-1.43195 l -25.62664,0.25637 23.18517,-1.47846 c 12.75184,-0.81315 26.32442,-2.04517 30.16131,-2.73783 5.74983,-1.03803 6.78865,-0.77088 5.90966,1.51974 -0.92893,2.42077 0.26627,2.38744 9.26865,-0.25837 7.76078,-2.28092 9.34535,-3.27672 6.36156,-3.99781 -2.97632,-0.71928 -0.76909,-2.0932 8.79523,-5.47462 11.39128,-4.02735 12.2685,-4.67138 8.13169,-5.97016 -4.07992,-1.28091 -3.95799,-1.36204 1.01477,-0.67517 3.10848,0.42937 6.86448,-0.0644 8.34666,-1.09723 1.89163,-1.31816 -0.77292,-1.60963 -8.93976,-0.97784 -11.01024,0.85175 -12.1549,0.54045 -21.33035,-5.80101 -21.51192,-14.86762 -28.00622,-18.71482 -29.761,-17.63029 -1.02282,0.63213 -1.2582,0.19753 -0.53061,-0.97974 0.74749,-1.20946 -1.31477,-4.4259 -4.81415,-7.50852 -3.36701,-2.966 -8.46014,-7.56816 -11.31811,-10.22705 -5.32157,-4.95087 -7.97436,-6.28318 -5.93258,-2.97952 0.63049,1.02015 0.17305,1.85481 -1.01639,1.85481 -1.18949,0 -1.70297,1.19808 -1.14108,2.66238 1.45779,3.7989 -2.82475,4.77958 -6.58381,1.50767 -3.47437,-3.02411 -9.8911,-1.74306 -7.84577,1.56635 0.90301,1.4611 0.13479,1.44605 -2.66466,-0.0521 -4.9919,-2.67158 -5.0099,-5.09259 -0.0496,-6.66694 3.78389,-1.20097 3.74967,-1.37282 -1.32907,-6.67388 -4.98941,-5.20781 -5.27273,-5.27963 -6.60636,-1.6745 -0.76635,2.0716 -2.67227,3.7666 -4.23536,3.7666 -3.55081,0 -3.55314,-0.89999 -0.0163,-6.29791 2.57643,-3.93213 2.51702,-4.69381 -0.67349,-8.63391 l -3.4992,-4.32133 -2.28056,4.26127 c -3.18132,5.94434 -6.0396,2.42687 -3.94961,-4.8605 1.22216,-4.26144 0.94163,-6.81878 -1.06177,-9.67903 -2.40708,-3.4366 -2.38669,-4.22347 0.17583,-6.786 1.59431,-1.59425 2.8987,-3.43521 2.8987,-4.09102 0,-0.65582 -1.39493,0.20253 -3.09983,1.90744 -2.89657,2.89657 -3.26816,2.89223 -5.66677,-0.0662 -2.30811,-2.84684 -2.37617,-2.76987 -0.67505,0.76339 1.04053,2.16119 1.3648,4.45652 0.72059,5.10073 -0.6442,0.6442 -0.16814,1.17128 1.05793,1.17128 1.64034,0 1.71453,0.96169 0.28084,3.64056 -1.27668,2.38549 -3.02472,3.22752 -5.07052,2.44247 -2.52635,-0.96946 -2.31473,0.0167 1.10899,5.16981 l 4.23114,6.36789 -4.67117,-5.44545 c -4.62673,-5.39367 -4.63825,-5.49168 -1.21164,-10.3039 2.32756,-3.26876 2.90932,-5.73527 1.77799,-7.53824 -0.92483,-1.47391 -1.17231,-4.34915 -0.54994,-6.38945 1.05935,-3.47287 0.90868,-3.51819 -2.36086,-0.71005 -5.98787,5.14282 -9.51196,3.61907 -11.69674,-5.05747 -2.39447,-9.50931 -2.55783,-14.27346 -0.44463,-12.96743 2.51581,1.55486 9.91373,-4.60528 8.85234,-7.37121 -0.53525,-1.39484 0.13324,-3.6425 1.48551,-4.99479 1.35229,-1.35229 3.07637,-4.40479 3.83129,-6.78333 1.37256,-4.32457 1.37252,-4.32459 -3.23261,-0.85092 -2.53286,1.91054 -4.24397,4.41505 -3.80246,5.56561 0.51273,1.33615 -0.86029,1.774 -3.80048,1.21194 -3.90954,-0.74736 -4.7224,-0.0827 -5.39417,4.40996 l -0.79095,5.28993 -0.27791,-4.95621 c -0.20783,-3.70643 1.67714,-6.62964 7.47521,-11.59258 4.26421,-3.65 6.76821,-6.63638 5.56444,-6.63638 -1.20377,0 -2.24734,-1.87799 -2.31904,-4.17333 -0.1244,-3.9821 -0.20341,-4.00335 -1.72445,-0.4637 -1.11029,2.58377 -1.67321,2.86524 -1.85482,0.92741 -0.1806,-1.92725 -0.69831,-1.66305 -1.68469,0.8598 -1.26827,3.24382 -1.57097,3.05623 -2.76866,-1.71573 -0.94886,-3.78055 -0.57867,-5.78642 1.25757,-6.81402 5.39698,-3.02031 11.4512,-8.90239 9.22393,-8.96167 -1.27519,-0.0339 -2.37143,0.98163 -2.43609,2.25681 -0.0647,1.27519 -0.91726,0.31935 -1.89466,-2.12409 -0.9774,-2.44344 -1.34182,-4.87788 -0.80984,-5.40988 0.53199,-0.532 0.96726,0.0558 0.96726,1.30616 0,1.25038 0.83466,1.75756 1.85481,1.12708 1.02015,-0.63049 1.85481,-3.18376 1.85481,-5.67392 0,-2.49016 0.80848,-4.52756 1.79661,-4.52756 0.98813,0 1.32672,1.46067 0.75243,3.24592 -0.88135,2.73982 -0.7321,2.81212 0.95722,0.46371 2.52665,-3.51243 2.6677,-8.01489 0.20337,-6.49185 -1.05197,0.65015 -1.85481,-0.90815 -1.85481,-3.60016 0,-2.61057 0.83466,-4.7465 1.85481,-4.7465 2.74401,0 2.24988,-5.76116 -0.78289,-9.12802 -1.45075,-1.61055 -3.19022,-5.14255 -3.8655,-7.84889 -0.97642,-3.91321 -0.58896,-4.86257 1.89252,-4.63704 1.71617,0.15597 4.42105,-1.63799 6.01085,-3.98658 1.5898,-2.3486 2.1338,-4.12776 1.20889,-3.95368 -3.7699,0.70951 -4.49731,-0.3042 -2.6693,-3.71987 1.13705,-2.12459 1.23105,-4.026 0.22963,-4.64491 -0.93251,-0.57632 -2.33951,2.50302 -3.12667,6.84298 -0.78716,4.33996 -1.75896,6.41996 -2.15956,4.62221 -0.40059,-1.79775 -1.49984,-2.79182 -2.44278,-2.20905 -0.94295,0.58277 -1.71444,0.22491 -1.71444,-0.79524 0,-1.02014 0.83466,-2.37066 1.85481,-3.00115 1.02015,-0.63048 1.84203,-2.55774 1.82641,-4.28279 -0.0245,-2.70298 -0.2769,-2.75193 -1.82641,-0.35424 -1.4901,2.30577 -1.80267,2.14695 -1.82526,-0.92741 -0.0242,-3.29796 -1.05653,-3.6383 -9.30247,-3.06691 -7.52568,0.52149 -9.27522,0.0842 -9.27522,-2.31851 0,-2.20219 -1.84188,-2.96124 -7.18563,-2.96124 -4.32313,0 -10.78845,-1.98813 -16.22962,-4.99073 -10.45672,-5.77032 -12.34363,-7.91681 -9.72892,-11.06734 3.03691,-3.65926 -5.11761,-13.07678 -12.52655,-14.46671 -3.70623,-0.69529 -6.26406,-2.2769 -6.26406,-3.87332 0,-3.1453 0.75191,-3.29612 5.12591,-1.02821 1.77142,0.91847 8.21615,3.2138 14.32164,5.10073 6.10549,1.88693 15.0787,6.08738 19.94048,9.33433 11.5867,7.73821 15.42091,8.80367 21.94952,6.09943 3.85267,-1.59583 5.95897,-4.19187 7.28488,-8.97875 4.63461,-16.73207 9.27974,-36.46527 9.27974,-39.42167 0,-1.78175 0.96945,-5.58922 2.15433,-8.46103 1.18489,-2.87182 2.03555,-5.79949 1.89037,-6.50594 -0.14518,-0.70645 1.90474,-2.99036 4.55538,-5.07535 4.43507,-3.48863 4.54315,-3.89026 1.35555,-5.0371 -1.90508,-0.68541 -7.29095,-2.71712 -11.9686,-4.51492 -4.67765,-1.7978 -21.00424,-7.067638 -36.28131,-11.710759 -34.32794,-10.433211 -43.61969,-14.165585 -39.21009,-15.750192 1.74901,-0.628514 13.43433,-1.113889 25.96739,-1.078611 17.61849,0.0496 24.77734,0.839784 31.5603,3.483616 4.82511,1.880713 8.37129,4.069341 7.8804,4.86362 -0.49089,0.794278 0.90847,0.973169 3.1097,0.397537 2.74251,-0.717184 3.58457,-0.370833 2.67531,1.100383 -1.37615,2.226662 2.24921,2.924228 12.80312,2.463478 4.58808,-0.200302 4.91417,0.02728 1.85844,1.297061 -3.30914,1.375078 -3.11052,1.655355 1.85481,2.617313 14.24536,2.759825 29.35284,7.302241 35.18968,10.580604 5.7492,3.22913 6.70328,3.30842 9.24345,0.76825 1.55789,-1.5579 3.88227,-2.300093 5.16528,-1.64932 1.28301,0.65076 0.71255,-0.13069 -1.26769,-1.73656 -1.98024,-1.605872 -4.74216,-2.919768 -6.13761,-2.919768 -1.39544,0 -2.13185,-0.655808 -1.63649,-1.457353 0.49539,-0.801544 -0.49868,-1.555645 -2.20904,-1.675777 -3.40477,-0.239147 -29.09516,-8.603278 -54.60393,-17.777637 -8.939,-3.214955 -15.94707,-6.711238 -15.57349,-7.769515 0.89866,-2.545717 7.04337,-1.32626 9.48774,1.882901 1.06454,1.397615 7.74592,3.452313 14.84752,4.565991 7.10159,1.11368 13.77892,2.737228 14.8385,3.607885 1.05959,0.870657 6.09985,2.185146 11.20059,2.921086 11.12787,1.605542 16.32253,4.02717 14.60388,6.807999 -0.73245,1.185135 -0.4221,1.52681 0.73647,0.810779 2.68256,-1.657921 11.73359,2.583579 10.3366,4.843954 -0.66963,1.083485 0.62585,1.250422 3.30409,0.425761 2.42309,-0.746097 3.84916,-0.765962 3.16906,-0.04415 -1.42747,1.515032 6.07878,9.590649 8.24371,8.869009 0.79349,-0.2645 1.91653,0.75383 2.49564,2.26296 0.74174,1.93294 2.78211,0.19594 6.90393,-5.877447 9.33275,-13.751532 12.91113,-15.570178 27.85214,-14.155384 l 12.72702,1.20515 -1.19906,10.598301 -1.19904,10.5983 12.64415,-0.90469 c 11.73678,-0.83976 13.07833,-0.53936 18.69409,4.18598 3.32744,2.79987 7.60995,8.11567 9.51668,11.8129 1.90673,3.69722 5.24129,8.60023 7.41016,10.89556 2.16887,2.29533 3.15166,4.17333 2.18395,4.17333 -0.96769,0 -5.58838,-5.81197 -10.26819,-12.91548 -9.71943,-14.75315 -12.57747,-16.7714 -23.70008,-16.73621 -16.7006,0.0528 -15.92697,-1.08628 -19.29162,28.406 -1.02659,8.99837 -1.98209,11.15175 -5.6999,12.8457 -2.45661,1.1193 -4.3428,3.34919 -4.19154,4.95531 0.53316,5.66173 -0.19723,7.44889 -4.78156,11.69973 -3.74567,3.47318 -4.98626,7.10733 -6.49888,19.03775 -1.9848,15.65446 -1.10252,20.82109 6.01887,35.2464 2.01449,4.08059 5.8662,9.85024 8.55937,12.82145 l 4.89667,5.40219 -5.07735,-3.54737 c -4.87601,-3.40673 -14.39819,-19.41462 -14.39819,-24.20505 0,-1.26972 -0.97651,-2.91209 -2.17002,-3.64972 -1.4526,-0.89775 -1.7842,-0.33575 -1.00307,1.6999 0.64184,1.67257 -0.13262,6.15136 -1.72099,9.95287 -2.36945,5.67091 -2.49928,8.20903 -0.72319,14.13713 1.19063,3.97392 1.68957,7.70048 1.10879,8.28126 -0.58078,0.58078 -1.05596,-0.28589 -1.05596,-1.92593 0,-1.64003 -0.96363,-3.57743 -2.1414,-4.30534 -1.36472,-0.84344 -1.63628,-0.50618 -0.74875,0.92989 0.76596,1.23934 0.35298,4.7633 -0.91769,7.83101 -1.47528,3.56163 -2.79752,4.78941 -3.65818,3.39683 -0.81639,-1.32092 -2.61877,1.14707 -4.57113,6.25925 -2.99766,7.84928 -3.01415,9.05385 -0.2355,17.2087 1.64327,4.82276 2.66937,9.08703 2.28021,9.47619 -0.38914,0.38914 -1.59529,-1.83907 -2.68032,-4.95157 -2.85122,-8.17904 -2.9735,-7.98067 -4.22888,6.86086 -0.47617,5.6293 1.74082,22.55548 3.27545,25.00745 0.80931,1.29308 1.57871,5.37219 1.70977,9.06468 0.28544,8.04225 2.70577,11.73807 13.94145,21.28845 19.89669,16.91227 24.47727,20.18909 27.37454,19.58303 1.68282,-0.35202 2.41962,0.009 1.63736,0.80404 -2.53383,2.57261 -21.73797,2.08454 -21.99472,-0.559 -0.12742,-1.31297 -0.34896,-3.84789 -0.4921,-5.63314 -0.52983,-6.608 -6.6953,-11.30511 -6.6953,-5.10074 0,1.53022 -0.88393,2.78222 -1.96428,2.78222 -1.08036,0 -1.37524,1.04333 -0.65529,2.31852 1.03007,1.8245 0.79067,1.83841 -1.12357,0.0653 -1.33792,-1.23924 -2.5165,-5.76463 -2.61911,-10.05639 -0.18923,-7.9157 -3.80257,-11.83648 -5.8915,-6.3928 -0.61977,1.61506 -2.80906,2.93646 -4.86512,2.93646 -2.8262,0 -3.25776,-0.57902 -1.76881,-2.3731 2.22558,-2.68165 2.37671,-13.98858 0.20494,-15.33082 -0.78164,-0.48306 -2.68082,0.38135 -4.2204,1.92096 -3.40576,3.40575 -7.09385,3.57881 -10.24503,0.48075 -1.29703,-1.27518 -2.19979,-1.48385 -2.00613,-0.4637 0.19368,1.02014 0.22675,3.10681 0.0735,4.63703 -0.21677,2.16451 -0.93864,1.95863 -3.25141,-0.92741 -2.39627,-2.99023 -2.75679,-3.08273 -1.85912,-0.47698 0.67224,1.95141 -0.31432,4.56299 -2.48914,6.58915 -3.50908,3.26918 -3.34731,3.35395 6.22054,3.25919 11.46663,-0.11352 13.85383,1.71894 18.59916,14.27752 2.07296,5.48609 4.49592,8.86562 6.42159,8.9568 1.75586,0.0831 2.13543,0.53578 0.8782,1.04724 -2.45989,1.00069 -1.1605,5.8251 2.59129,9.62103 1.34164,1.35743 1.96508,3.23543 1.38541,4.17333 -0.57965,0.93791 0.11315,1.70528 1.53937,1.70528 1.42631,0 4.18822,3.3291 6.13761,7.39798 1.94937,4.06889 4.58766,7.40755 5.86285,7.41926 1.27518,0.0111 2.31851,1.24391 2.31851,2.73824 0,3.13335 5.57255,6.5571 10.67245,6.5571 3.70518,0 12.81884,9.05525 11.93287,11.85639 -0.65636,2.07522 27.78564,-0.33874 30.01919,-2.54783 0.88942,-0.87968 2.71647,-1.17756 4.06011,-0.66196 3.72757,1.4304 22.811,-3.01335 33.78768,-7.86777 5.3866,-2.38221 11.2306,-3.87058 12.98666,-3.3075 2.50005,0.80165 2.63537,0.62663 0.62372,-0.80662 -2.10397,-1.49902 -1.9064,-2.18508 1.09124,-3.78937 3.81947,-2.04413 11.67933,-0.95064 11.67933,1.62484 0,4.71482 -3.54545,8.15509 -13.6808,13.27492 -15.40427,7.78137 -35.10715,14.30482 -47.48796,15.72281 -5.63286,0.64514 -12.01428,2.54534 -14.18094,4.22266 -2.16664,1.67733 -8.63531,4.64589 -14.3748,6.5968 -9.89536,3.36353 -15.11903,8.02694 -6.2621,5.59044 7.75403,-2.13307 21.79406,-8.99868 21.79406,-10.65731 0,-0.90598 0.83467,-1.13138 1.85482,-0.50089 1.02014,0.63049 1.85481,2.75235 1.85481,4.71525 0,6.0731 -21.34221,15.16026 -50.07996,21.32323 -13.3618,2.8655 -60.01689,5.29711 -67.7007,3.52849 z m 134.77451,-44.26442 c 13.69645,-2.65781 28.66971,-7.95796 27.05198,-9.57567 -0.47884,-0.47886 -3.28173,0.0742 -6.22862,1.22885 -2.94689,1.15471 -14.5393,4.01454 -25.76093,6.35516 -11.22162,2.34063 -17.76371,4.34054 -14.53797,4.44427 3.22574,0.10368 11.98974,-0.99997 19.47554,-2.45261 z M 195.99614,322.55466 c -2.79525,-6.03297 -6.65814,-5.53155 -6.65814,0.86423 0,6.62977 1.40283,8.0421 5.467,5.50399 2.62102,-1.63685 2.84025,-2.80894 1.19114,-6.36822 z m 66.31436,-8.57419 c -0.49012,-0.79301 -1.80993,-0.87395 -2.93296,-0.17992 -1.30099,0.80406 -1.62526,0.1764 -0.89371,-1.73009 0.78884,-2.05564 0.34365,-2.68331 -1.42249,-2.00558 -1.41385,0.54254 -2.12593,2.37804 -1.5824,4.07887 0.54352,1.70083 1.34845,4.26386 1.78873,5.69565 0.6216,2.02141 1.37416,1.81872 3.36721,-0.90695 1.4117,-1.9306 2.16572,-4.15901 1.67562,-4.952 z m -8.05403,2.12864 c 0,-2.42777 -3.21411,-3.58369 -6.47997,-2.33044 -2.06588,0.79274 -2.40787,1.62248 -1.02182,2.4791 2.79886,1.72978 7.50179,1.6366 7.50179,-0.14875 z m -3.70962,-8.98223 c 0,-1.9896 -1.46067,-4.55663 -3.24593,-5.7045 -3.09136,-1.98764 -3.09136,-2.03896 0,-1.07778 3.5772,1.11224 4.0669,-0.26969 1.52101,-4.29211 -1.41564,-2.23664 -2.42393,-2.14032 -6.66173,0.63639 -3.65059,2.39195 -4.44144,3.82412 -2.94052,5.32504 1.12921,1.12919 2.0531,3.55549 2.0531,5.39176 0,2.32469 1.40828,3.33866 4.63703,3.33866 3.36111,0 4.63704,-0.99539 4.63704,-3.61746 z m 7.41925,-11.51734 c 0,-2.12092 -0.96116,-2.92808 -2.69462,-2.26289 -1.64366,0.63073 -2.54794,3.14894 -2.31851,6.45663 0.33392,4.81444 0.63612,5.06822 2.69461,2.26287 1.27519,-1.73785 2.31852,-4.64332 2.31852,-6.45661 z m -3.02019,-32.70531 c 0.49961,-0.80838 -0.70312,-1.59119 -2.67275,-1.73956 -1.96963,-0.14838 -3.58113,0.51305 -3.58113,1.46979 0,2.11147 4.98281,2.3264 6.25388,0.26977 z m 10.54452,-31.57271 c -1.3706,-0.45687 -0.93776,-1.64301 1.18773,-3.25473 3.14556,-2.38524 3.0963,-2.5394 -0.8291,-2.59488 -3.44945,-0.0488 -4.17333,0.94557 -4.17333,5.73256 0,5.1131 0.34976,5.50128 2.9856,3.31373 1.99641,-1.65689 2.27111,-2.71601 0.8291,-3.19668 z m 2.48473,-19.98709 c 0.62251,-1.62228 0.59177,-3.82347 -0.0683,-4.89154 -0.66009,-1.06806 0.69524,-3.37166 3.01188,-5.1191 4.14642,-3.12764 4.15287,-3.19263 0.41455,-4.17023 -2.89017,-0.75579 -4.06795,0.0845 -4.92944,3.51697 -0.62257,2.48052 -0.61723,5.34288 0.0111,6.3608 0.62909,1.01792 0.13503,3.0662 -1.09777,4.55174 -1.32135,1.59293 -1.46826,2.70097 -0.35745,2.70097 1.03592,0 2.39283,-1.32732 3.01536,-2.94961 z m 34.50646,-56.75894 c 0,-0.82516 -0.83466,-1.5003 -1.85481,-1.5003 -1.02015,0 -1.85481,0.7664 -1.85481,1.70312 0,0.93671 -0.48548,3.23204 -1.07884,5.10073 -0.98718,3.10908 -0.82967,3.09186 1.85482,-0.20281 1.6135,-1.98024 2.93364,-4.27557 2.93364,-5.10074 z M 253.03949,113.6704 c 1.58539,-3.82555 2.18091,-6.95555 1.32341,-6.95555 -0.8575,0 -2.06335,2.00913 -2.67966,4.46472 -0.61632,2.4556 -1.67446,6.00293 -2.35141,7.88296 -2.16592,6.01508 0.7191,1.81935 3.70766,-5.39213 z m 61.13855,-22.201912 c 2.62226,-4.193794 2.68401,-4.864376 0.36603,-3.974885 -1.5336,0.588502 -2.78838,1.747104 -2.78838,2.574672 0,0.827568 -0.55032,3.033599 -1.22293,4.902294 -1.47361,4.094054 -0.54882,3.205595 3.64528,-3.502081 z m -106.2919,349.916822 -6.49185,-2.62337 8.34666,1.11852 c 4.59066,0.61521 9.59866,1.83384 11.12888,2.70809 4.7383,2.70711 -5.70115,1.73966 -12.98369,-1.20324 z M 164.29802,362.6656 c -4.08059,-0.79296 -8.04034,-1.06808 -8.79945,-0.61139 -2.08196,1.25254 -14.38572,-8.71272 -14.38572,-11.65153 0,-5.15462 12.62973,-2.38019 20.00001,4.39348 1.3875,1.27518 4.9671,2.31852 7.95468,2.31852 4.19541,0 5.43195,0.84446 5.43195,3.70962 0,2.0403 -0.626,3.61364 -1.39111,3.49633 -0.76511,-0.11723 -4.72977,-0.86208 -8.81036,-1.65503 z m -3.37128,-41.99971 c -0.52345,-0.52345 -4.98705,-2.06065 -9.91911,-3.41598 l -8.96737,-2.46425 8.81036,-0.16582 c 4.8457,-0.0913 8.81036,0.61076 8.81036,1.55996 0,0.9492 1.878,2.00006 4.17334,2.33526 3.40042,0.49659 3.60577,0.84033 1.10874,1.85602 -1.68552,0.68561 -3.49287,0.81829 -4.01632,0.29482 z m 8.73775,-60.32184 c -0.53051,-0.85837 0.26983,-2.03438 1.77854,-2.61332 4.28038,-1.64253 12.8898,-0.0985 13.7307,2.46256 0.87107,2.65286 -13.87426,2.79622 -15.50924,0.1508 z m 21.60595,-4.81146 c -1.99415,-2.18063 -2.11596,-3.1537 -0.4637,-3.70445 1.23249,-0.41083 2.24089,-2.51368 2.24089,-4.67298 0,-2.97251 0.5212,-3.40483 2.14601,-1.78003 1.46478,1.4648 1.61198,3.88698 0.4637,7.63048 -1.517,4.94554 -1.94806,5.19385 -4.3869,2.52698 z m -11.87726,-14.34376 c -0.61766,-1.6096 -3.39126,-2.78222 -6.58082,-2.78222 -6.98723,0 -9.1923,-3.23603 -3.22553,-4.73359 5.41903,-1.36009 16.04154,3.64832 16.04154,7.56344 0,3.5772 -4.85845,3.54008 -6.23519,-0.0477 z m 11.26153,-2.78478 c -0.61137,-2.3379 -0.23996,-3.26054 1.00326,-2.49218 1.26475,0.78166 1.59821,-0.21707 0.92807,-2.77966 -1.27163,-4.86275 0.6577,-5.2268 3.50846,-0.66202 1.56675,2.50878 1.51162,4.12097 -0.22202,6.49185 -2.98951,4.08841 -4.03186,3.97694 -5.21777,-0.55799 z m -9.1684,-13.79375 c -2.78821,-1.45451 -7.37887,-2.91004 -10.20147,-3.23449 -6.84905,-0.7873 -6.55537,-4.13752 0.43243,-4.93301 6.34654,-0.7225 17.62073,4.61672 17.62073,8.34479 0,3.15477 -1.53061,3.12021 -7.85169,-0.17728 z M 279.29646,79.540148 C 275.21587,77.99974 253.6021,72.606916 231.26585,67.556094 188.20545,57.818985 179.34494,54.933095 192.21296,54.836478 c 4.1316,-0.03102 8.41911,0.850714 9.52781,1.959412 1.1087,1.108698 8.78763,2.479965 17.06429,3.04726 8.27665,0.567295 15.04847,1.630071 15.04847,2.361725 0,0.731654 4.64831,1.810028 10.32958,2.396387 5.68126,0.586359 11.31525,1.860759 12.51999,2.832 1.20472,0.971242 5.9464,2.393832 10.53707,3.161311 6.32782,1.057904 7.46575,1.708893 4.70464,2.691446 -3.22784,1.148637 -3.05169,1.444185 1.54884,2.598849 2.85499,0.716554 6.9979,0.797097 9.20646,0.17899 2.84929,-0.797427 3.28124,-0.615043 1.48721,0.627951 -1.94637,1.348534 -1.30592,2.196739 2.78222,3.684698 2.92083,1.063099 4.05861,1.93999 2.52839,1.948647 -1.53022,0.0087 -6.12088,-1.244595 -10.20147,-2.785005 z"
       id="path6564"
       inkscape:connector-curvature="0" />
    <path
       style="fill:#5e2e37"
       d="m 225.50686,455.41697 c -20.14558,-3.02993 -38.17804,-11.05073 -39.10929,-17.39572 -0.24253,-1.65243 0.11119,-2.97786 0.78604,-2.94542 2.09457,0.10071 8.53082,5.49958 6.68223,5.60521 -0.96009,0.0549 3.26238,1.85422 9.38326,3.99859 9.79926,3.43303 15.45016,3.90926 47.29775,3.98597 39.1844,0.0944 50.07113,-1.72468 76.49651,-12.78191 16.90935,-7.07543 18.09898,-7.3244 18.09898,-3.78782 0,6.55891 -37.49734,19.21369 -69.09216,23.31756 -15.51036,2.01464 -37.16169,2.01617 -50.54332,0.004 z M 173.57209,431.2057 c -5.10074,-4.03015 -9.10521,-8.04061 -8.89882,-8.9121 0.20638,-0.8715 -2.51542,-1.35518 -6.04845,-1.07484 -4.64933,0.3689 -10.11817,-1.5211 -19.79878,-6.84232 -15.74586,-8.65517 -20.4444,-12.54672 -19.16717,-15.87512 0.51403,-1.33957 0.12614,-2.43556 -0.862,-2.43556 -0.98813,0 -1.7966,-1.30883 -1.7966,-2.90851 0,-2.456 0.80515,-2.33521 5.17485,0.77627 2.84616,2.02665 10.14949,6.38082 16.22961,9.67593 20.44281,11.07894 46.60537,29.12896 46.60537,32.15388 0,4.11997 -0.91858,3.75394 -11.43801,-4.55763 z m 134.93768,-11.14203 c -7.98393,-5.2438 -7.62664,-7.28513 0.92741,-5.2987 16.63758,3.86361 52.69178,0.14134 73.29408,-7.56697 5.46276,-2.04388 14.67288,-6.57077 20.46691,-10.05975 5.79404,-3.489 11.02395,-5.55184 11.62203,-4.58411 2.00279,3.24056 -10.22499,12.39837 -24.47643,18.33125 -17.69587,7.36682 -34.28665,10.86416 -57.5909,12.14018 -16.44383,0.90036 -18.8011,0.61236 -24.2431,-2.9619 z m -24.80822,-17.98199 c -2.67795,-1.77854 -10.67896,-8.72371 -17.78004,-15.43373 -10.92756,-10.32579 -12.68205,-12.81908 -11.4204,-16.22962 1.9743,-5.33704 9.02943,-5.48352 9.02943,-0.18747 0,4.08081 4.00759,9.14158 7.23913,9.14158 1.06682,0 3.23454,2.504 4.81716,5.56444 1.58262,3.06044 4.10804,5.56444 5.61207,5.56444 1.50403,0 2.73459,0.94762 2.73459,2.10583 0,1.1582 2.03516,3.99193 4.52255,6.29718 2.48742,2.30526 4.01764,4.6963 3.40049,5.31343 -1.69268,1.69268 -2.84415,1.39107 -8.15498,-2.13608 z m -42.42877,-18.99961 c -1.53022,-0.98892 -1.94756,-1.87466 -0.92741,-1.96833 1.02015,-0.0937 3.25769,-0.44145 4.97231,-0.77285 2.0413,-0.39452 2.77317,0.29479 2.12007,1.99675 -1.16925,3.04703 -2.37638,3.1928 -6.16497,0.74443 z m -1.35839,-9.43086 c -0.74186,-2.8369 -1.40631,-3.22695 -2.49533,-1.46487 -1.96805,3.18436 -9.12998,-3.04401 -9.12998,-7.93989 0,-4.85304 1.95923,-4.2477 8.49843,2.62575 7.192,7.55961 9.0112,10.64543 6.27591,10.64543 -1.17586,0 -2.59293,-1.73989 -3.14903,-3.86642 z m -30.17344,-12.62846 c 0,-0.91101 1.11289,-2.08342 2.47308,-2.60538 1.3602,-0.52196 2.47309,0.22341 2.47309,1.65637 0,1.43295 -1.11289,2.60538 -2.47309,2.60538 -1.36019,0 -2.47308,-0.74538 -2.47308,-1.65637 z m 9.43048,-4.49358 c -3.99843,-3.99844 -2.1291,-6.83375 4.50551,-6.83375 l 6.51674,0 -2.71247,-6.49184 c -1.99282,-4.76951 -2.12245,-6.48432 -0.48859,-6.46345 4.92832,0.0629 6.85154,3.23867 6.55436,10.82291 -0.16916,4.31722 -0.79539,7.18914 -1.39162,6.38206 -2.03008,-2.74808 -6.21338,-2.64348 -5.14958,0.12872 1.27347,3.31862 -5.00375,5.28592 -7.83435,2.45533 z m -7.34578,-9.85214 c -1.79792,-3.94599 -1.71964,-5.45803 0.40831,-7.8873 3.4926,-3.98711 6.06142,-12.27258 3.27014,-10.54747 -1.12944,0.69802 -2.05352,2.28639 -2.05352,3.52969 0,1.24328 -1.57564,3.60964 -3.50141,5.25853 -3.27483,2.80399 -3.6349,2.705 -5.56444,-1.52987 -2.798,-6.14094 -2.59613,-9.11969 0.85167,-12.56749 1.60309,-1.6031 2.06968,-2.91471 1.03688,-2.91471 -1.03281,0 -2.44877,0.92377 -3.14656,2.05283 -1.88288,3.04657 -4.45213,-1.85698 -4.48625,-8.56221 -0.0259,-5.09013 5.8207,-11.65296 9.48852,-10.65089 1.96089,0.53572 6.66293,-5.74623 7.98046,-10.66194 1.12723,-4.20571 1.00118,-4.33779 -1.35512,-1.41993 -1.42888,1.7694 -3.18554,2.6295 -3.9037,1.91135 -0.71816,-0.71817 -0.79633,0.0217 -0.1737,1.64429 0.68533,1.78595 -0.0466,3.40234 -1.85496,4.09625 -2.14271,0.82223 -3.70568,-0.55185 -5.52964,-4.86138 -1.41478,-3.34274 -1.78261,-6.28186 -0.82923,-6.62587 0.94237,-0.34007 1.71341,-1.43264 1.71341,-2.42799 0,-0.99535 -0.74721,-1.34791 -1.66046,-0.78349 -0.91325,0.56442 -2.16525,-0.28926 -2.78222,-1.89705 -1.92169,-5.00785 -1.23101,-13.38864 1.19676,-14.5216 1.85481,-0.86556 1.85481,-1.29837 0,-2.16393 -1.27519,-0.5951 -2.31852,-1.89635 -2.31852,-2.89169 0,-0.99535 1.04333,-1.16021 2.31852,-0.36637 1.27518,0.79384 4.2407,1.19491 6.59005,0.89126 2.34934,-0.30365 5.47934,0.45031 6.95555,1.67545 1.89805,1.57526 2.68401,1.61788 2.68401,0.14561 0,-3.66647 0.28742,-4.74376 2.99349,-11.22031 2.67018,-6.39065 1.32096,-9.56848 -3.92089,-9.23491 -1.02015,0.0649 -0.81148,0.53903 0.4637,1.05357 1.27518,0.51454 2.31852,2.22019 2.31852,3.79031 0,2.2472 -0.55698,2.39251 -2.61709,0.68278 -1.78907,-1.4848 -2.9974,-1.55666 -3.8191,-0.22713 -0.6611,1.06969 0.0993,1.94489 1.68969,1.94489 3.09814,0 3.74334,3.20706 1.39034,6.91085 -1.20982,1.90433 -13.32218,2.66705 -13.33348,0.83962 -0.0119,-1.93456 5.37682,-5.50253 6.66991,-4.41622 0.85292,0.71653 0.37996,-0.2215 -1.05104,-2.08452 -1.52989,-1.99177 -1.88678,-3.90215 -0.86625,-4.63703 2.34849,-1.69111 2.72949,-8.00165 0.39603,-6.55947 -1.19313,0.73738 -1.37575,-1.65359 -0.5153,-6.74655 0.94468,-5.59149 0.73364,-7.51843 -0.72472,-6.61712 -1.13162,0.69938 -2.0575,0.38768 -2.0575,-0.69267 0,-1.08036 0.83466,-1.96428 1.85481,-1.96428 1.02015,0 1.85482,-0.80847 1.85482,-1.7966 0,-0.98813 -1.252,-1.31617 -2.78222,-0.72896 -1.53023,0.5872 -2.78222,0.19991 -2.78222,-0.86063 0,-1.06055 1.66933,-2.4581 3.70962,-3.10566 3.7238,-1.18189 4.41895,-2.79079 3.80663,-8.81036 -0.1816,-1.78526 0.44121,-3.24593 1.38401,-3.24593 0.94281,0 1.31287,-2.09938 0.82237,-4.66529 -0.8837,-4.62277 -0.92111,-4.63153 -4.10442,-0.96114 -3.3005,3.80549 -5.61821,3.27579 -5.61821,-1.28402 0,-1.4204 0.83466,-2.06669 1.85481,-1.43621 1.02015,0.63049 1.85794,0.47108 1.86176,-0.35424 0.004,-0.82531 3.75983,-3.04392 8.34667,-4.93022 4.58684,-1.88631 8.3397,-4.20089 8.3397,-5.1435 0,-0.94261 -2.08666,-0.34661 -4.63703,1.32446 -4.62191,3.02839 -4.63775,3.01794 -4.85668,-3.20317 -0.12081,-3.4328 -0.10013,-6.9295 0.046,-7.77044 0.14608,-0.84094 -0.79841,-0.863 -2.09887,-0.049 -1.30046,0.81397 -3.60606,1.50201 -5.12356,1.52897 -1.54457,0.0275 -3.28503,2.49844 -3.95388,5.61347 l -1.19479,5.56444 -0.21945,-5.73336 c -0.36416,-9.51368 4.49987,-22.27811 12.08572,-31.71601 3.9437,-4.90653 8.00503,-9.53419 9.02518,-10.28368 1.20942,-0.88855 1.16683,-1.37259 -0.12242,-1.39111 -4.77315,-0.0686 -19.12307,19.89774 -22.98728,31.98421 -1.22609,3.83495 -2.93348,6.5374 -3.7942,6.00544 -0.86073,-0.53196 -1.94864,0.50369 -2.41758,2.30144 -0.58012,2.22396 -0.91134,1.78662 -1.03634,-1.36841 -0.10105,-2.55036 1.91087,-12.14902 4.47093,-21.33035 2.56006,-9.18133 5.38806,-21.38099 6.28445,-27.11035 1.98051,-12.65862 6.5556,-22.04221 10.74696,-22.04221 8.08683,0 -14.10641,-9.13454 -41.02209,-16.884335 -10.85169,-3.12451 -13.72926,-4.570118 -11.12888,-5.590831 3.25913,-1.279291 3.26987,-1.385898 0.15183,-1.507044 -1.8881,-0.07336 -2.81992,-0.996758 -2.1309,-2.111629 0.67347,-1.089693 2.39206,-1.533222 3.8191,-0.985618 1.42703,0.547602 2.59461,0.225308 2.59461,-0.716212 0,-0.94152 -5.634,-2.003844 -12.52,-2.360723 l -12.51999,-0.648868 13.9111,-0.220739 c 7.65111,-0.121417 17.24977,0.879597 21.33036,2.224451 7.39272,2.436448 7.39851,2.445887 1.61822,2.639676 -3.19057,0.106966 -6.8401,1.446482 -8.11007,2.976703 -1.97535,2.380151 -1.40506,2.778116 3.94622,2.753818 4.72119,-0.02144 5.57293,-0.469353 3.47304,-1.826411 -1.53022,-0.988905 -1.94756,-1.798008 -0.92741,-1.798008 1.02015,0 3.10681,0.821885 4.63703,1.826411 2.47309,1.623476 2.47309,2.040612 0,3.754228 -2.11285,1.464012 -0.99725,1.867018 4.63704,1.675097 11.08256,-0.377505 11.70981,-0.197289 12.95365,3.721691 0.66594,2.098194 2.22574,3.201163 3.7175,2.628717 1.41359,-0.542442 2.15574,-2.066212 1.64923,-3.386155 -1.08445,-2.82602 8.51129,-1.240983 20.6307,3.407807 6.39373,2.452524 6.7783,2.890894 2.78222,3.171474 -3.6292,0.25482 -3.22607,0.57845 1.85481,1.48903 3.57052,0.6399 6.77007,0.53002 7.11012,-0.24417 1.53159,-3.48696 3.41095,-0.91902 2.56522,3.50509 -0.65529,3.42796 -0.28813,4.51037 1.21487,3.58146 1.1847,-0.73218 1.66943,-2.11529 1.07718,-3.07358 -1.28847,-2.08478 6.5267,-5.30655 9.82667,-4.05101 2.93315,1.11598 2.93315,4.16507 0,11.12635 -1.79208,4.25318 -3.12053,5.22079 -5.85075,4.26157 -3.35608,-1.1791 -3.31552,-1.4429 0.81345,-5.28962 2.39013,-2.22674 3.62802,-4.04862 2.75087,-4.04862 -0.87714,0 -3.15277,1.40994 -5.05696,3.13321 -2.4022,2.17397 -6.42192,3.06761 -13.12974,2.91892 l -9.66759,-0.21429 8.76003,1.55716 c 4.81802,0.85643 11.42217,2.8852 14.67589,4.50837 3.25374,1.62317 6.04017,2.73894 6.19206,2.47948 0.15191,-0.25946 2.2973,-5.68841 4.76754,-12.06433 2.47026,-6.37592 5.1318,-11.59259 5.91457,-11.59259 0.78277,0 1.55387,3.13 1.71353,6.95555 0.56324,13.49392 1.02256,16.38827 3.26592,20.58005 2.46909,4.61354 0.023,9.80932 -4.15554,8.82701 -1.2006,-0.28224 -1.52208,-0.15147 -0.71438,0.29062 0.80768,0.44209 0.49681,1.97462 -0.69083,3.40564 -1.18763,1.43101 -1.43113,2.5753 -0.5411,2.54285 2.203,-0.0803 8.11006,-4.67343 8.11006,-6.30612 0,-0.72551 1.10044,-2.41955 2.44542,-3.76454 1.34498,-1.34498 4.71796,-5.14617 7.49549,-8.44708 2.77753,-3.30091 5.3593,-5.68818 5.73725,-5.30504 0.37796,0.38313 -0.35358,4.7867 -1.62563,9.78572 -1.64631,6.46977 -2.66984,8.15875 -3.55167,5.86076 -0.68135,-1.77559 -0.68983,-4.11666 -0.0189,-5.20237 0.74324,-1.20259 0.33375,-1.42628 -1.04784,-0.57241 -1.24731,0.77089 -1.80694,2.60271 -1.2436,4.07072 0.68409,1.78276 -0.0438,2.49038 -2.19207,2.1309 -2.52029,-0.42174 -3.76817,1.78652 -5.76651,10.20441 -1.40262,5.90844 -2.99515,10.29768 -3.53898,9.75387 -1.79689,-1.7969 -5.76669,2.90755 -4.731,5.60651 0.62007,1.61564 -0.14542,2.64661 -1.96497,2.64661 -1.63938,0 -2.81167,0.626 -2.60512,1.39111 0.76897,2.8484 -2.45618,15.30221 -3.96279,15.30221 -0.8604,0 -2.15118,3.12809 -2.86842,6.9513 -0.71723,3.82322 -2.21218,7.51255 -3.3221,8.19851 -1.1099,0.68596 -2.13672,5.69587 -2.28183,11.13313 -0.14504,5.43726 -1.74332,13.17806 -3.55161,17.20178 -3.12428,6.95199 -3.12701,7.43343 -0.0549,9.6798 2.66319,1.94737 2.81752,2.86443 0.87573,5.20413 -1.29643,1.5621 -1.62895,2.86797 -0.73893,2.90191 0.89002,0.0339 -0.27772,1.64292 -2.59498,3.57552 -2.52445,2.10538 -3.44164,3.99065 -2.28826,4.7035 1.05872,0.65432 1.43632,1.98027 0.83911,2.94657 -0.5972,0.9663 -2.07148,1.14958 -3.27618,0.40728 -1.20469,-0.7423 -0.72968,0.88406 1.05557,3.6141 4.06944,6.22309 4.05093,7.30812 -0.20849,12.21926 -2.1649,2.49615 -3.12277,5.71785 -2.56599,8.63046 0.48864,2.55612 0.13221,4.6475 -0.79203,4.6475 -0.92425,0 -1.64756,2.21385 -1.60734,4.91967 0.0932,6.27105 -3.82022,7.76302 -5.60783,2.13799 -1.23709,-3.89274 -1.58191,-5.90124 -2.4854,-14.47692 -0.22702,-2.15479 -0.74734,-2.00041 -2.30731,0.68458 -1.1078,1.90675 -1.29108,3.99341 -0.4073,4.63703 0.88379,0.64364 1.78311,3.60492 1.99848,6.58066 0.21538,2.97571 1.13776,5.89704 2.04974,6.49184 2.54312,1.65862 6.37548,14.80164 5.20523,17.85125 -0.61942,1.61417 0.0606,2.70573 1.68572,2.70573 3.16624,0 3.38626,2.35236 0.99867,10.67742 -1.25003,4.35859 -1.12228,6.02373 0.46371,6.0443 1.30562,0.0167 1.08599,0.72597 -0.54423,1.75691 -1.80264,1.13997 -3.21391,0.97242 -4.14493,-0.49212 -0.9217,-1.44987 -1.44161,-0.93306 -1.49795,1.48903 -0.0475,2.04029 -2.01204,6.84157 -4.36573,10.66952 l -4.27945,6.95989 -2.22433,-4.88189 z m 8.35382,-21.55789 c -0.59401,-4.33562 -1.31673,-10.11778 -1.60606,-12.84925 -0.28932,-2.73146 -1.23021,-5.65279 -2.09086,-6.49185 -0.86064,-0.83904 -1.02331,1.81312 -0.36147,5.89371 0.66183,4.08059 1.35639,10.54925 1.54347,14.3748 0.18707,3.82555 1.07246,6.95555 1.96753,6.95555 0.89507,0 1.14139,-3.54733 0.54739,-7.88296 z m -7.23888,-10.66517 c 0.15369,-2.0403 0.0995,-3.70963 -0.12047,-3.70963 -0.21996,0 -1.82924,1.66933 -3.5762,3.70963 -3.005,3.50958 -2.9985,3.70962 0.12047,3.70962 1.96707,0 3.40947,-1.4962 3.5762,-3.70962 z m -1.58246,-36.91016 c 1.39953,-0.88655 2.2277,-2.56257 1.84039,-3.7245 -0.4258,-1.2774 -1.97461,-0.6289 -3.91755,1.64028 -3.33196,3.89146 -2.34273,4.88404 2.07716,2.08422 z m 11.18163,-56.29422 c 0.10168,-2.80541 -0.59173,-5.10074 -1.54093,-5.10074 -2.16979,0 -3.18742,6.63621 -2.13319,13.9111 0.80146,5.53061 0.81452,5.53625 2.1478,0.92741 0.73778,-2.55037 1.42463,-6.93237 1.52632,-9.73777 z m -2.6776,-12.64986 c -1.12831,-1.82564 -6.41158,-0.1698 -6.41158,2.00948 0,0.8155 1.65994,1.04863 3.68876,0.51809 2.02882,-0.53055 3.25409,-1.66796 2.72282,-2.52757 z m 8.77848,-11.82395 c -0.55935,-0.96379 -2.05577,1.12288 -3.32539,4.63703 -3.49909,9.68513 -2.7671,12.96035 1.01345,4.53457 1.83091,-4.08059 2.87128,-8.20781 2.31194,-9.1716 z m 2.43928,-11.69506 c -1.88247,-1.78525 -5.99317,-3.39991 -9.1349,-3.58811 -5.18742,-0.31076 -4.94539,-0.0302 2.63444,3.0536 10.7079,4.35645 10.51366,4.34048 6.50046,0.53451 z m 5.02929,-9.77334 c 1.00357,-6.83777 -1.46513,-4.88297 -3.32235,2.63074 -0.8704,3.52136 -0.66942,4.96964 0.5823,4.19603 1.05131,-0.64974 2.28433,-3.72179 2.74005,-6.82677 z m -24.03302,-7.38368 c 0.87632,0 1.07747,0.83467 0.44698,1.85481 -0.63049,1.02015 -0.36675,1.85482 0.58609,1.85482 1.8957,0 4.65576,-11.14234 3.13642,-12.66168 -0.51716,-0.51716 -0.94029,0.39457 -0.94029,2.02608 0,1.63149 -1.59223,3.47171 -3.53828,4.08936 -1.94605,0.61766 -4.08217,2.5519 -4.74692,4.29833 -0.96897,2.54564 -0.74548,2.71555 1.12702,0.8568 1.28461,-1.27519 3.05266,-2.31852 3.92898,-2.31852 z m 13.3668,-4.17333 c 3.50678,-2.29533 7.26463,-6.26 8.35079,-8.81037 1.74445,-4.09606 1.67766,-4.25928 -0.5725,-1.39903 -1.40104,1.7809 -5.7027,5.74556 -9.55925,8.81036 -8.25986,6.56411 -7.28279,7.33165 1.78096,1.39904 z m 14.90238,0.4637 c -0.63048,-1.02015 -2.97507,-1.79615 -5.2102,-1.72445 -3.91805,0.12569 -3.93076,0.18757 -0.35424,1.72445 5.10535,2.19384 6.92031,2.19384 5.56444,0 z m 2.58099,-17.62073 c -0.0339,-3.70962 -0.0339,-3.70962 -1.49533,0 -0.80377,2.0403 -1.96857,6.21363 -2.58843,9.27407 l -1.12702,5.56444 2.62235,-5.56444 c 1.44229,-3.06044 2.60709,-7.23377 2.58843,-9.27407 z m 7.00218,-9.73777 c 2e-5,-1.27518 -0.63432,-2.31851 -1.40964,-2.31851 -0.77533,0 -1.79139,-1.46067 -2.25792,-3.24593 -0.63833,-2.44262 -0.90151,-2.21311 -1.06342,0.92741 -0.18739,3.63469 -1.23257,4.17699 -8.09811,4.20173 -4.33563,0.0156 -8.88667,0.66639 -10.11342,1.44615 -1.22675,0.77977 3.43345,1.39299 10.35601,1.36271 8.80326,-0.0385 12.58649,-0.75193 12.5865,-2.37356 z m -17.14761,-7.72253 c 6.21102,-6.86309 1.98829,-5.92375 -4.61863,1.02742 -3.92255,4.12693 -4.93358,5.9616 -2.63468,4.78105 2.05171,-1.05362 5.3157,-3.66743 7.25331,-5.80847 z m 25.64759,-2.98691 c 0.4922,-2.57472 0.17213,-5.12798 -0.71117,-5.67391 -0.88333,-0.54593 -1.60606,1.56066 -1.60606,4.6813 0,6.88587 1.10055,7.3573 2.31723,0.99261 z m 36.31247,218.54169 c -3.39375,-2.7542 -6.51824,-5.2582 -6.94331,-5.56444 -0.42505,-0.30627 -0.26092,-1.06875 0.36475,-1.69441 0.62566,-0.62569 4.31211,1.87108 8.1921,5.54834 8.27801,7.84552 7.2669,8.9174 -1.61354,1.71051 z m -21.93638,-10.75831 c 1.26997,-1.53022 2.62417,-2.78222 3.00932,-2.78222 0.38517,0 0.70031,1.252 0.70031,2.78222 0,1.53022 -1.3542,2.78222 -3.00933,2.78222 -2.46467,0 -2.59141,-0.50356 -0.7003,-2.78222 z M 260.92742,322.163 c -0.64186,-1.03855 -0.2632,-2.44685 0.84146,-3.12957 2.85174,-1.76247 4.69169,0.65169 2.31106,3.03232 -1.33209,1.33209 -2.36956,1.36409 -3.15252,0.0972 z m 9.09565,-4.66547 c -1.65506,-2.52596 -2.32398,-5.79089 -1.58237,-7.72352 0.88393,-2.30349 0.60774,-2.92947 -0.88532,-2.0067 -1.19352,0.73764 -2.17003,0.45723 -2.17003,-0.62313 0,-1.08035 2.01374,-1.96428 4.47498,-1.96428 4.11122,0 4.45046,0.67782 4.17333,8.33826 -0.16582,4.58604 -0.49108,8.34204 -0.72259,8.34666 -0.23152,0.004 -1.71113,-1.96065 -3.288,-4.36729 z m -15.7666,-10.09185 c 0,-1.95066 4.02857,-5.93541 6.00066,-5.93541 0.85201,0 0.65571,1.66933 -0.43622,3.70963 -1.96046,3.66314 -5.56444,5.10474 -5.56444,2.22578 z m 8.05627,-6.66954 c -1.65334,-1.88661 -1.41054,-3.03995 1.0589,-5.0302 5.46918,-4.40785 7.57816,-3.83603 7.57816,2.0547 0,6.03982 -4.57143,7.61468 -8.63706,2.9755 z m -69.26511,-7.61253 c 0,-1.53022 0.83466,-2.78222 1.85481,-2.78222 1.02015,0 1.85481,1.252 1.85481,2.78222 0,1.53022 -0.83466,2.78222 -1.85481,2.78222 -1.02015,0 -1.85481,-1.252 -1.85481,-2.78222 z m 68.6845,-3.41232 c -0.031,-1.87677 -1.9344,-5.0099 -4.22973,-6.96254 l -4.17333,-3.55023 5.56444,-4.78297 c 5.175,-4.44821 5.25272,-4.69236 1.11053,-3.48858 -3.82722,1.11225 -4.25511,0.80754 -3.04102,-2.16559 0.77709,-1.90299 1.8529,-7.06332 2.39065,-11.46742 0.69987,-5.73164 2.23956,-8.8342 5.41743,-10.91643 5.70357,-3.73712 4.49632,-4.94023 -2.3466,-2.33855 l -5.33016,2.02651 4.41512,-4.69967 c 2.42832,-2.58483 5.00453,-4.3354 5.72492,-3.89019 1.6307,1.00783 5.57023,-11.77631 5.57023,-18.07591 0,-3.13491 2.08906,-6.25879 6.36809,-9.52257 3.50245,-2.67145 7.16915,-4.85718 8.14822,-4.85718 3.09928,0 4.01298,5.43125 1.74944,10.39918 -1.97172,4.32744 -2.32139,4.45986 -3.61559,1.36913 -0.88005,-2.10171 -1.21661,-0.10454 -0.87245,5.17721 0.43614,6.69319 -0.0397,8.5108 -2.1472,8.20148 -2.98039,-0.43743 -12.66614,7.67711 -11.06944,9.27379 0.54851,0.54853 2.46599,-0.47138 4.26106,-2.26643 7.05375,-7.05376 12.03355,-2.7789 7.31055,6.27565 -1.84142,3.53021 -2.69417,4.13369 -2.702,1.91218 -0.006,-1.78525 -0.89536,-3.24592 -1.97571,-3.24592 -1.08036,0 -1.48708,0.77212 -0.90383,1.71581 0.58322,0.94371 0.0243,3.98984 -1.24202,6.76918 l -2.30246,5.05333 -1.26888,-4.45064 c -0.69787,-2.44786 -1.06611,1.94785 -0.81832,9.76824 0.28434,8.97376 -0.43534,15.8159 -1.95097,18.54814 -2.11091,3.80541 -2.40944,3.89908 -2.4672,0.77418 -0.0362,-1.95527 -0.55928,-3.06152 -1.1625,-2.4583 -1.70652,1.70654 1.1513,8.98082 3.06387,7.79877 0.93501,-0.57787 1.1761,0.31467 0.53575,1.98341 -0.84268,2.196 -1.54545,2.4173 -2.54427,0.8012 -0.98902,-1.60029 -1.95087,-1.25023 -3.39511,1.23559 -1.93713,3.33425 -2.01729,3.33642 -2.07151,0.0562 z m -29.73342,-8.64397 c 0,-1.02014 1.252,-1.85481 2.78222,-1.85481 1.53022,0 2.78222,0.83467 2.78222,1.85481 0,1.02015 -1.252,1.85482 -2.78222,1.85482 -1.53022,0 -2.78222,-0.83467 -2.78222,-1.85482 z M 249.979,255.76863 c -1.95976,-1.95976 0.53676,-4.37832 4.51943,-4.37832 3.31791,0 3.42351,0.30914 0.95043,2.78222 -3.10999,3.10998 -3.76488,3.30108 -5.46986,1.5961 z m -52.09589,-27.71519 c -1.59083,-4.14563 -1.46538,-4.48534 1.65637,-4.48534 1.54567,0 2.78222,1.64873 2.78222,3.70963 0,4.42233 -2.84824,4.9201 -4.43859,0.77571 z m 64.77754,-8.1019 c -1.22386,-1.98025 5.34225,-6.13131 7.02954,-4.44403 1.05367,1.05367 -3.08934,6.20578 -4.99028,6.20578 -0.52274,0 -1.44041,-0.79279 -2.03926,-1.76175 z m 11.99877,-11.05844 c 0,-0.97725 0.71785,-3.70916 1.59522,-6.0709 2.72461,-7.33423 4.37344,-19.52395 2.21162,-16.35037 -1.04237,1.53023 -1.90801,1.86825 -1.92363,0.75118 -0.0148,-1.11707 1.61972,-3.52256 3.63406,-5.34553 3.54952,-3.21227 3.72113,-3.16021 5.56445,1.68809 1.04609,2.75142 1.90198,6.66683 1.90198,8.70092 0,2.03409 0.626,3.31145 1.39111,2.83859 0.76511,-0.47287 1.39111,1.0591 1.39111,3.40436 0,3.06266 -0.91457,4.08799 -3.24593,3.63901 -1.78525,-0.34381 -3.24592,0.0656 -3.24592,0.90988 0,0.84425 -2.08667,2.90223 -4.63703,4.5733 -2.55037,1.67106 -4.63704,2.23873 -4.63704,1.26147 z m -5.53604,-14.53831 c 0.0369,-4.20846 3.11889,-9.06357 4.73053,-7.45192 1.74306,1.74305 -0.71746,10.69785 -2.93945,10.69785 -1.00071,0 -1.8067,-1.46067 -1.79108,-3.24593 z m 19.46169,-9.65167 c -0.68287,-4.0419 -0.70226,-9.04819 -0.043,-11.12509 0.89167,-2.80938 0.51416,-3.51356 -1.4745,-2.75044 -2.0555,0.78876 -2.54393,-0.39231 -2.11428,-5.11241 0.3073,-3.37598 0.13225,-5.08961 -0.38892,-3.80807 -0.5212,1.28154 -1.72896,1.84719 -2.68391,1.25701 -0.95494,-0.59019 -0.0955,-2.47339 1.90979,-4.18489 4.33922,-3.70348 7.51175,-20.73255 3.86244,-20.73255 -1.49173,0 -1.90591,1.74362 -1.21162,5.10074 0.58019,2.80541 0.61674,4.10429 0.0812,2.88642 -0.5355,-1.21788 -2.08728,-1.78697 -3.44841,-1.26466 -1.36112,0.52231 -3.0048,0.092 -3.65263,-0.95616 -1.6498,-2.66945 2.8361,-9.29098 5.58084,-8.23773 1.24422,0.47745 4.01678,-1.01521 6.16126,-3.31703 3.90004,-4.18622 5.35446,-8.3137 2.2544,-6.39775 -2.15673,1.33293 -6.15183,-3.51167 -4.3674,-5.29608 0.75624,-0.75626 0.54034,-1.20662 -0.47981,-1.0008 -4.01198,0.80943 -4.98804,-0.18946 -2.78222,-2.8473 4.76595,-5.74262 -0.48783,-2.47456 -9.35352,5.81825 -5.05704,4.73027 -9.19461,7.7538 -9.19461,6.71896 0,-1.03483 1.2111,-2.88663 2.69131,-4.11511 1.48022,-1.22847 3.24433,-5.92134 3.92023,-10.42858 0.67591,-4.50725 1.96881,-8.195 2.87312,-8.195 0.90432,0 1.64422,-1.08492 1.64422,-2.41094 0,-1.32602 2.29533,-5.957402 5.10074,-10.291958 3.47727,-5.372637 6.10554,-7.619706 8.25772,-7.060025 1.73635,0.451541 3.4327,-0.0061 3.76968,-1.017108 0.39812,-1.194346 3.26227,-1.124642 8.17799,0.199027 6.78591,1.827257 7.47065,2.532173 6.64665,6.84258 -0.63984,3.347139 -1.36883,4.076975 -2.40221,2.404953 -0.81599,-1.320279 -0.99889,-3.275026 -0.40646,-4.343881 0.59241,-1.068854 0.013,-0.959569 -1.28848,0.242859 -1.90046,1.756373 -1.58928,3.173164 1.58271,7.205689 3.35556,4.265894 3.95997,4.494604 4.02606,1.523394 0.0427,-1.922834 1.74643,-6.417392 3.78595,-9.987908 l 3.70822,-6.491848 -1.12894,8.887401 c -0.62093,4.888071 -1.45159,14.069395 -1.84594,20.402945 -1.38638,22.26635 -3.01111,29.57378 -7.59452,34.15719 -2.43197,2.43198 -4.42178,6.34114 -4.42178,8.68703 0,3.89448 -5.02373,10.40464 -8.02901,10.40464 -0.68478,0 -1.24506,-1.39111 -1.24506,-3.09136 0,-1.70025 0.54921,-2.54215 1.22045,-1.87091 0.67126,0.67125 2.34059,0.29083 3.70963,-0.84538 3.15891,-2.62167 3.29793,-9.60676 0.17064,-8.57526 -3.80354,1.25457 -7.10703,9.3271 -6.45516,15.77402 0.33524,3.31547 -0.10684,6.02814 -0.98231,6.02814 -0.87551,0 -1.01829,0.92799 -0.31732,2.06219 0.70097,1.1342 0.12427,2.79075 -1.28164,3.68122 -1.85103,1.17242 -1.91658,1.62687 -0.23764,1.64744 2.65428,0.0325 3.18244,8.54961 0.62808,10.12829 -0.92976,0.57462 -2.24917,-2.26225 -2.93205,-6.30416 z m 14.61938,-47.38384 c 0.90898,-4.06374 0.73691,-4.81409 -0.63808,-2.78222 -1.03552,1.53022 -1.89554,4.38199 -1.91116,6.33728 -0.0378,4.74544 1.02371,3.26495 2.54924,-3.55506 z m 3.44387,-11.14511 c 0.70091,-3.66656 0.37684,-4.22776 -1.52833,-2.6466 -1.32983,1.10365 -1.96084,3.19761 -1.40226,4.65325 1.41292,3.68201 1.90793,3.34307 2.93059,-2.00665 z m -6.02151,-10.24674 c -2.09731,-1.40174 -1.18409,-1.78801 3.70963,-1.56908 9.76567,0.43688 11.12888,0.0443 11.12888,-3.20491 0,-1.8297 -1.02946,-2.58562 -2.66602,-1.95762 -1.54875,0.59431 -3.0132,-0.29416 -3.49447,-2.12007 -0.59066,-2.24095 -0.89019,-1.94526 -1.04361,1.03021 -0.18002,3.492 -1.27501,4.17333 -6.707,4.17333 -7.53906,0 -7.76957,-0.57274 -2.78222,-6.91313 4.64241,-5.901873 4.86823,-9.083976 0.32201,-4.53776 -5.39778,5.39778 -6.31655,9.75614 -2.86147,13.57395 1.71292,1.89276 4.02837,3.4286 5.14545,3.41298 1.11706,-0.0156 0.77904,-0.86518 -0.75118,-1.8879 z m -25.61961,51.88034 c 0.44631,-1.33894 1.90699,-2.79961 3.24592,-3.24592 1.39111,-0.4637 2.08667,0.23185 1.62297,1.62296 -0.44631,1.33895 -1.90699,2.79961 -3.24593,3.24593 -1.39111,0.4637 -2.08666,-0.23186 -1.62296,-1.62297 z"
       id="path6562"
       inkscape:connector-curvature="0" />
  </g>
</svg>
