<?xml version="1.0" encoding="UTF-8" standalone="no"?>
<svg
   xmlns:dc="http://purl.org/dc/elements/1.1/"
   xmlns:cc="http://creativecommons.org/ns#"
   xmlns:rdf="http://www.w3.org/1999/02/22-rdf-syntax-ns#"
   xmlns:svg="http://www.w3.org/2000/svg"
   xmlns="http://www.w3.org/2000/svg"
   xmlns:sodipodi="http://sodipodi.sourceforge.net/DTD/sodipodi-0.dtd"
   xmlns:inkscape="http://www.inkscape.org/namespaces/inkscape"
   viewBox="0 0 512 512"
   id="svg8438"
   version="1.1"
   inkscape:version="0.48.4 r9939"
   width="100%"
   height="100%"
   sodipodi:docname="morning star.svg">
  <metadata
     id="metadata8464">
    <rdf:RDF>
      <cc:Work
         rdf:about="">
        <dc:format>image/svg+xml</dc:format>
        <dc:type
           rdf:resource="http://purl.org/dc/dcmitype/StillImage" />
        <dc:title></dc:title>
      </cc:Work>
    </rdf:RDF>
  </metadata>
  <defs
     id="defs8462">
    <linearGradient
       id="linearGradient4077">
      <stop
         id="stop4079"
         offset="0"
         style="stop-color:#aa4400;stop-opacity:1;" />
      <stop
         style="stop-color:#ff9f00;stop-opacity:1;"
         offset="0.22752622"
         id="stop4081" />
      <stop
         style="stop-color:#803300;stop-opacity:1;"
         offset="0.4948855"
         id="stop4083" />
      <stop
         id="stop4085"
         offset="1"
         style="stop-color:#562200;stop-opacity:1;" />
    </linearGradient>
    <linearGradient
       id="linearGradient4057">
      <stop
         style="stop-color:#aa4400;stop-opacity:1;"
         offset="0"
         id="stop4059" />
      <stop
         id="stop4067"
         offset="0.22752622"
         style="stop-color:#ecd1a4;stop-opacity:1;" />
      <stop
         id="stop4065"
         offset="0.50136983"
         style="stop-color:#803300;stop-opacity:1;" />
      <stop
         style="stop-color:#562200;stop-opacity:1;"
         offset="1"
         id="stop4061" />
    </linearGradient>
    <linearGradient
       id="linearGradient3890">
      <stop
         style="stop-color:#701b1b;stop-opacity:1;"
         offset="0"
         id="stop3892" />
      <stop
         style="stop-color:#e31600;stop-opacity:1;"
         offset="1"
         id="stop3894" />
    </linearGradient>
    <linearGradient
       id="linearGradient3882">
      <stop
         style="stop-color:#600b0b;stop-opacity:1;"
         offset="0"
         id="stop3884" />
      <stop
         style="stop-color:#d11414;stop-opacity:1;"
         offset="1"
         id="stop3886" />
    </linearGradient>
    <linearGradient
       id="linearGradient3872">
      <stop
         style="stop-color:#800600;stop-opacity:1;"
         offset="0"
         id="stop3874" />
      <stop
         style="stop-color:#ff0004;stop-opacity:0;"
         offset="1"
         id="stop3876" />
    </linearGradient>
  </defs>
  <sodipodi:namedview
     pagecolor="#000000"
     bordercolor="#666666"
     borderopacity="1"
     objecttolerance="10"
     gridtolerance="10"
     guidetolerance="10"
     inkscape:pageopacity="0"
     inkscape:pageshadow="2"
     inkscape:window-width="1190"
     inkscape:window-height="1126"
     id="namedview8460"
     showgrid="false"
     inkscape:zoom="0.70710678"
     inkscape:cx="204.49403"
     inkscape:cy="551.40418"
     inkscape:window-x="160"
     inkscape:window-y="130"
     inkscape:window-maximized="0"
     inkscape:current-layer="g8466" />
  <g
     id="g8466">
    <path
       inkscape:connector-curvature="0"
       d="M -13.466093,0.1885736 H 514.89024 V 516.42957 H -13.466093 z"
       id="path3978"
       style="fill:#000000" />
    <path
       sodipodi:type="arc"
       style="fill:#333333;fill-opacity:1;fill-rule:nonzero;stroke:none"
       id="path4121"
       sodipodi:cx="63.286057"
       sodipodi:cy="-74.545074"
       sodipodi:rx="39.244427"
       sodipodi:ry="23.688076"
       d="m 101.95774,-78.577314 a 39.244427,23.688076 0 0 1 9.3e-4,0.0033 l -38.672613,4.028989 z"
       sodipodi:start="6.11213"
       sodipodi:end="6.1122693"
       transform="matrix(0.92592215,0,0,1,-12.92858,0)" />
    <path
       sodipodi:type="arc"
       style="fill:#333333;fill-opacity:1;fill-rule:nonzero;stroke:none"
       id="path4123"
       sodipodi:cx="65.584152"
       sodipodi:cy="-52.359596"
       sodipodi:rx="10.606602"
       sodipodi:ry="11.755651"
       d="m 76.035958,-54.360671 a 10.606602,11.755651 0 0 1 2.51e-4,0.0016 l -10.452057,1.999461 z"
       sodipodi:start="6.11213"
       sodipodi:end="6.1122693"
       transform="matrix(0.92592215,0,0,1,-12.92858,0)" />
    <path
       sodipodi:type="arc"
       style="fill:#333333;fill-opacity:1;fill-rule:nonzero;stroke:none"
       id="path4125"
       sodipodi:cx="54.182056"
       sodipodi:cy="-54.392529"
       sodipodi:rx="15.46796"
       sodipodi:ry="16.793785"
       d="m 69.424272,-57.251206 a 15.46796,16.793785 0 0 1 3.67e-4,0.0023 l -15.242583,2.856372 z"
       sodipodi:start="6.11213"
       sodipodi:end="6.1122693"
       transform="matrix(0.92592215,0,0,1,-12.92858,0)" />
    <g
       id="g3127"
       transform="matrix(1.2064449,-0.11762541,0.12227886,1.1605324,-80.098247,-14.731882)">
      <path
         style="fill:#9a9392"
         d="m 408.32259,465.21788 c -1.45589,0.10295 -4.33538,-1.44922 -6.39886,-3.44927 -2.06348,-2.00005 -3.92628,-3.0663 -4.13956,-2.36945 -0.21328,0.69685 -2.97598,1.65478 -6.13933,2.12873 -7.23873,1.08456 -10.50871,-1.85961 -8.68466,-7.81937 0.72153,-2.35745 0.56064,-4.87633 -0.35752,-5.59751 -0.91817,-0.72118 -19.89737,-26.87823 -42.17603,-58.12679 -22.27864,-31.24854 -41.15575,-56.64512 -41.94914,-56.43682 -0.79338,0.20832 -1.20041,-0.41229 -0.90454,-1.37899 0.29589,-0.96676 -0.60494,-1.67693 -2.00184,-1.57814 -4.67555,0.33061 -6.6161,-2.73948 -5.02257,-7.94607 1.25147,-4.08893 0.62057,-6.37451 -3.41952,-12.38805 -2.72477,-4.05572 -5.49719,-7.53837 -6.16096,-7.7392 -0.66377,-0.20084 -2.74744,-3.34095 -4.6304,-6.97801 -2.90824,-5.61754 -17.80952,-27.52186 -31.90639,-46.90122 -6.00732,-8.25844 -32.77829,-46.37705 -53.6359,-76.371 -18.4759,-26.56897 -44.00369,-62.82117 -55.75891,-79.183634 l -5.81565,-8.094965 -1.83419,9.07454 c -1.0088,4.990999 -1.20701,12.970259 -0.44047,17.731689 0.76655,4.76143 1.4204,11.62997 1.453,15.26343 0.127,14.1539 1.29603,30.43902 2.84025,39.56597 1.42855,8.44334 1.55384,11.56274 0.87062,21.67559 -0.37624,5.56888 1.09296,20.73812 2.44039,25.19664 3.14514,10.407 4.54823,25.61616 2.71872,29.47038 -1.03114,2.1723 -1.53006,3.76681 -1.1087,3.54335 0.42135,-0.22345 2.01378,1.72082 3.53872,4.3206 4.41406,7.52527 11.44288,8.41346 25.60112,3.23505 6.54915,-2.39538 12.21254,-4.26294 12.58533,-4.15015 0.37278,0.11279 -1.00815,5.71358 -3.06874,12.44617 l -3.74652,12.2411 9.29722,2.09822 c 5.11347,1.15401 9.12,2.67724 8.90336,3.38508 -0.21662,0.70776 -2.636,3.59905 -5.3764,6.42508 -2.7404,2.82601 -4.96279,5.88348 -4.93865,6.79435 0.0241,0.91088 3.71374,4.80581 8.19911,8.65542 4.48537,3.84959 8.41352,7.48075 8.7292,8.06924 0.31569,0.58849 -4.34317,2.45973 -10.35304,4.15833 -6.00986,1.69858 -11.19252,3.9345 -11.51702,4.96869 -0.32449,1.03419 -1.15779,1.70855 -1.85177,1.49857 -1.75697,-0.5316 -7.9529,8.91116 -7.74591,11.80497 0.10353,1.44727 -0.79966,2.0803 -2.31425,1.62203 -3.78067,-1.14391 -4.95606,1.48101 -6.65896,14.8711 -1.072,8.42934 -2.06759,12.1273 -3.17,11.77448 -0.88395,-0.2829 -4.40275,-3.55851 -7.81957,-7.27914 -7.66092,-8.34209 -10.7946,-9.4807 -13.55025,-4.92343 -2.58459,4.27436 -2.55329,4.28384 -5.79134,-1.75228 -4.6394,-8.64839 -17.3992,-9.48952 -32.90947,-2.16942 -6.915838,3.26394 -7.576683,0.10169 -2.697538,-12.90816 l 4.375376,-11.66659 -9.700811,-2.93517 c -5.335446,-1.61434 -9.524432,-3.51145 -9.308857,-4.2158 0.215575,-0.70435 3.319833,-3.65396 6.898352,-6.55467 3.578518,-2.90072 6.141499,-5.79461 5.695511,-6.43086 -0.445987,-0.63626 -4.417871,-3.9855 -8.826408,-7.44276 -4.408538,-3.45725 -8.425732,-6.95034 -8.927094,-7.76243 -0.501368,-0.81206 4.341439,-2.61431 10.761789,-4.00497 14.196989,-3.07509 21.49751,-9.07066 19.9315,-16.36879 -1.227451,-5.72032 -0.706496,-7.32775 1.75658,-5.41996 2.51613,1.94889 4.1712,-2.86234 4.52382,-13.15055 0.13773,-4.01875 0.86416,-7.63231 1.61428,-8.03012 0.75012,-0.39781 5.46557,3.29468 10.47877,8.20551 l 9.11491,8.92879 0.48998,-4.95472 c 0.26949,-2.72509 -0.30278,-7.22606 -1.27172,-10.00216 -0.96893,-2.7761 -2.1022,-12.56239 -2.51838,-21.7473 -0.41618,-9.18491 -1.30823,-20.57267 -1.98234,-25.30614 -1.38896,-9.753 -2.60804,-24.69536 -3.51339,-43.06382 -0.33994,-6.8971 -0.9012,-13.92902 -1.24725,-15.62648 -2.65879,-13.04232 -2.30345,-28.31934 0.92797,-39.895289 1.90055,-6.808361 3.98588,-16.183471 4.63407,-20.833578 1.5511,-11.127512 4.29472,-13.995786 10.31358,-10.782183 2.43533,1.300277 5.45351,4.140251 6.70707,6.311062 1.71406,2.968238 2.84157,3.648672 4.54719,2.744143 2.24997,-1.19322 6.0414,2.953102 12.09537,13.227512 3.11594,5.288187 16.04838,24.017643 31.57641,45.730603 7.34812,10.27496 17.90843,25.24622 23.46735,33.26947 26.64348,38.45487 64.6846,93.17556 73.58951,105.85571 5.45296,7.76471 11.29447,14.53521 12.98117,15.04555 1.8347,0.55512 3.43439,2.91598 3.98189,5.87652 0.50335,2.72174 2.82741,7.59063 5.16459,10.81977 3.83279,5.2955 4.67708,5.78671 8.6114,5.01006 3.68776,-0.72798 4.47382,-0.45712 5.08556,1.75237 0.39797,1.43742 0.40896,3.67876 0.0244,4.98079 -0.63737,2.15826 76.72153,111.52178 83.64514,118.25042 1.62079,1.57514 4.63783,3.8747 6.70454,5.11012 4.08584,2.44241 4.04798,3.35538 -0.46125,11.11963 -2.48452,4.27801 -2.64905,5.78409 -0.94144,8.61765 2.51423,4.17202 1.42255,8.60607 -2.18162,8.86093 z M 151.4426,301.20959 c -1.85433,-0.56106 -5.30527,4.47662 -4.67983,6.8316 0.26822,1.00995 1.24225,1.63814 2.16452,1.39599 2.18572,-0.57385 4.35538,-7.67084 2.51531,-8.22759 z m -9.00179,-14.25329 c -0.83389,-0.25231 -1.73604,0.25967 -2.00477,1.13772 -0.26874,0.87805 0.32197,1.38363 1.3127,1.12352 0.99072,-0.26012 1.89287,-0.77209 2.00477,-1.13772 0.11191,-0.36563 -0.47881,-0.87121 -1.3127,-1.12352 z m -6.6663,-53.34179 c -1.35618,1.16008 -2.11894,-0.61049 -2.64847,-6.1482 -0.7593,-7.9403 -2.93122,-10.46491 -5.82522,-6.77121 -1.05775,1.35003 -0.89558,1.87641 0.46783,1.51844 1.4063,-0.36922 1.50305,0.19716 0.29669,1.73686 -1.19735,1.52822 -1.10651,2.10529 0.27433,1.74274 1.42427,-0.37394 1.44779,0.45535 0.0759,2.67432 -2.49822,4.04064 -1.55975,9.23755 1.75797,9.73502 2.6119,0.39164 6.24032,-1.98279 7.04435,-4.6098 0.25376,-0.82912 -0.39574,-0.77429 -1.44334,0.12183 z m -7.2445,1.36722 c -0.42771,-1.48826 -0.57003,-3.3843 -0.31627,-4.21342 0.25376,-0.82912 0.81133,-0.28982 1.23904,1.19844 0.42771,1.48826 0.57003,3.3843 0.31627,4.21342 -0.25376,0.82912 -0.81133,0.28982 -1.23904,-1.19844 z m 5.74295,-12.3062 c -0.60887,0.3229 -0.51531,1.68024 0.20789,3.01634 1.04511,1.9308 1.27225,1.81034 1.10702,-0.58709 -0.11434,-1.65898 -0.70605,-2.75215 -1.31491,-2.42925 z m -3.59217,-16.69065 c -0.88311,-0.2672 -0.97636,-1.0366 -0.20722,-1.70979 0.76913,-0.67318 0.67588,-1.44258 -0.20722,-1.70978 -1.81285,-0.54852 -2.54174,1.04118 -2.26315,4.93588 0.10439,1.45931 0.91545,2.46279 1.80236,2.22993 2.22961,-0.58539 2.8299,-3.15481 0.87523,-3.74624 z m 0.39796,-11.13555 c -0.54331,-1.95514 -0.95318,-2.03279 -2.21681,-0.41998 -1.61235,2.05789 -1.19964,4.05387 0.97423,4.71162 1.60425,0.48539 2.09705,-1.21666 1.24257,-4.29164 z m -2.78878,-22.06279 c -0.49404,-7.06627 -2.86882,-9.79908 -6.07598,-6.99202 -0.9101,0.79656 -0.82997,1.2071 0.18367,0.94097 2.12823,-0.55877 2.47568,10.87512 0.39013,12.83841 -0.79015,0.74383 -0.73051,1.02169 0.13252,0.61747 0.86304,-0.40421 2.10763,0.71364 2.76581,2.48394 1.11873,3.0093 1.25886,3.02681 2.15221,0.26889 0.52555,-1.6225 0.72879,-6.19344 0.45164,-10.15766 z m -1.56441,-23.29403 c -2.19745,0.57694 -2.96684,-9.16959 -0.86881,-11.00588 1.08271,-0.94765 0.94462,-1.28892 -0.38073,-0.94095 -2.85969,0.7508 -3.63717,4.056 -2.45622,10.44183 0.77116,4.16997 1.45123,5.0143 2.98268,3.70308 2.53146,-2.16743 2.71344,-2.72064 0.72307,-2.19808 z m -2.5935,-32.83956 c -0.8384,-4.75306 -1.77447,-8.7176 -2.08016,-8.81009 -0.30568,-0.0925 -1.39067,1.40977 -2.4111,3.33836 -1.12393,2.12423 -1.14423,3.31982 -0.0515,3.03292 1.14409,-0.30038 0.93962,1.01139 -0.55907,3.58665 -1.84743,3.1745 -1.84242,3.67874 0.0229,2.31146 1.94885,-1.42846 2.05854,-1.16862 0.59886,1.41879 -0.98283,1.74215 -1.04624,2.97307 -0.14091,2.73538 0.90533,-0.2377 1.73077,0.75223 1.83431,2.19982 0.10355,1.4476 0.79755,2.81634 1.54222,3.04166 2.36481,0.71552 2.816,-3.94533 1.24441,-12.85495 z m -5.60874,10.82501 c -0.52026,0.27591 -0.0747,2.04468 0.99011,3.93062 1.84979,3.27622 1.89193,3.25387 0.94592,-0.50164 -0.54456,-2.16185 -1.41578,-3.70488 -1.93603,-3.42898 z"
         id="path3139"
         inkscape:connector-curvature="0" />
      <path
         style="fill:#8d827b"
         d="m 408.64933,464.12808 c -1.45972,0.10322 -3.94652,-1.10102 -5.52622,-2.6761 -2.39639,-2.38939 -3.91685,-2.63547 -9.17895,-1.48553 -4.84985,1.05986 -6.62504,0.83786 -7.68447,-0.96097 -1.07147,-1.8193 -1.2517,-1.78694 -0.81093,0.14562 0.35248,1.5454 0.0896,1.94584 -0.69546,1.05917 -0.69421,-0.78412 -1.12636,-3.43826 -0.96032,-5.8981 0.23742,-3.51758 -8.69189,-17.03985 -41.82401,-63.33693 -28.89948,-40.38262 -43.46976,-59.44705 -46.40613,-60.71995 -4.77571,-2.07025 -5.91835,-4.45169 -4.46823,-9.3124 1.10417,-3.70132 -3.04945,-14.63754 -5.88534,-15.49559 -1.01947,-0.30846 -3.02134,-2.58185 -4.44861,-5.05196 -1.42726,-2.47012 -5.70654,-9.0417 -9.50947,-14.60352 -3.80294,-5.5618 -6.5287,-10.70347 -6.05723,-11.42592 0.47146,-0.72245 0.0763,-1.10853 -0.87802,-0.85796 -0.95439,0.25057 -2.07099,-0.95867 -2.48136,-2.68721 -0.41036,-1.72855 -0.97633,-2.47126 -1.25771,-1.6505 -0.28136,0.82077 -2.22557,-2.03463 -4.32044,-6.3453 -2.09488,-4.31069 -3.22418,-6.09451 -2.50955,-3.96407 0.71462,2.13045 -0.57714,0.005 -2.87056,-4.72221 -2.29342,-4.72765 -5.03292,-8.36915 -6.08777,-8.0922 -1.05486,0.27697 -3.07074,-2.26122 -4.47973,-5.64039 -1.40899,-3.37919 -2.37283,-4.975 -2.14185,-3.54626 0.23098,1.42873 -1.06566,-0.44597 -2.88141,-4.16601 -1.81574,-3.72003 -2.88329,-5.15482 -2.37231,-3.18842 0.51097,1.9664 -0.55657,0.53161 -2.37232,-3.18842 -1.81575,-3.72004 -3.07232,-5.58262 -2.79238,-4.13907 0.30108,1.55259 0.10227,1.94094 -0.48674,0.95079 -0.54764,-0.92063 -0.75525,-2.46582 -0.46136,-3.43377 0.29394,-0.96795 -0.62924,-2.1206 -2.05143,-2.56143 -1.42237,-0.44025 -3.16583,-2.04444 -3.87475,-3.56358 -1.11692,-2.39345 -0.96918,-2.36215 1.10706,0.23449 1.31779,1.64814 1.07815,0.57516 -0.53253,-2.38442 -1.61069,-2.95956 -3.54123,-5.22015 -4.2901,-5.02353 -1.86262,0.48903 -10.38604,-11.22511 -8.78528,-12.07404 0.70401,-0.37335 0.12149,-1.02937 -1.2945,-1.4578 -1.41599,-0.42844 -2.65581,-1.91535 -2.75516,-3.30426 -0.0993,-1.38891 -0.7796,-2.70652 -1.51168,-2.92803 -2.2444,-0.67908 -17.56935,-22.97847 -16.26649,-23.66942 0.67182,-0.35624 0.38594,-0.90057 -0.63531,-1.20956 -1.91751,-0.58018 -26.13704,-33.98485 -40.22148,-55.47529 -4.39671,-6.708631 -9.35044,-13.245841 -11.00828,-14.527152 -1.65785,-1.281296 -2.8015,-3.024803 -2.54146,-3.874439 0.26004,-0.849636 -0.50058,-1.839315 -1.69027,-2.199279 -1.18969,-0.359963 -2.14948,-1.947447 -2.13285,-3.52774 0.0166,-1.580294 -1.76125,3.441082 -3.95082,11.158597 -2.18958,7.717533 -4.43844,13.893103 -4.99747,13.723493 -1.36301,-0.41351 -0.41426,-7.29008 2.34517,-16.997948 1.24488,-4.379572 2.33835,-8.495864 2.42993,-9.147316 0.0916,-0.651436 0.94428,-3.43727 1.89491,-6.190744 1.40939,-4.082286 2.16653,-4.689543 4.10215,-3.29017 1.34425,0.971828 1.01953,-0.330889 -0.74871,-3.003695 -2.43853,-3.685984 -2.59969,-4.997041 -0.73573,-5.985546 1.3127,-0.69617 3.09994,-1.038608 3.97164,-0.760991 0.87189,0.276985 0.49894,0.803097 -0.82834,1.167711 -1.85462,0.509475 -1.69197,1.691472 0.70261,5.106189 1.71372,2.443786 3.91771,4.232726 4.89776,3.975409 1.07573,-0.282427 1.12387,-1.228098 0.12148,-2.386213 -0.91323,-1.055109 -0.91812,-1.705128 -0.0109,-1.444486 0.90707,0.261275 1.99871,1.124734 2.42543,1.920195 0.42673,0.795461 2.73619,2.148208 5.13214,3.006086 2.39595,0.857862 5.46878,3.437262 6.8285,5.731971 2.72374,4.596647 12.91236,19.260473 36.34389,52.307438 8.48976,11.97362 15.50858,22.78614 15.5974,24.02781 0.0888,1.24168 0.81157,2.08692 1.60613,1.8783 0.79455,-0.20861 3.6949,3.67518 6.44521,8.63065 2.7503,4.95546 4.81595,7.99038 4.59032,6.74425 -0.22562,-1.24613 0.56416,-0.11791 1.75507,2.50718 1.19092,2.62508 2.80963,4.96783 3.59715,5.20611 0.78752,0.23827 2.2232,2.52564 3.1904,5.08303 0.9672,2.5574 1.95486,4.06256 2.19479,3.34482 0.23994,-0.71776 1.19557,-0.15933 2.12364,1.24093 0.92807,1.40028 1.12941,3.03434 0.44742,3.63124 -1.10681,0.96874 0.72169,2.35217 3.71585,2.81139 0.60266,0.0924 1.95644,2.3672 3.00841,5.05505 1.05197,2.68784 2.11909,4.29359 2.37137,3.56833 0.25229,-0.72525 1.25753,0.5592 2.23387,2.85438 0.97635,2.29516 2.21987,3.93718 2.76338,3.64895 0.54351,-0.28824 2.08277,2.02088 3.42058,5.1314 1.33782,3.11051 2.90421,5.40524 3.48088,5.09941 0.57667,-0.30581 1.40282,1.21845 1.83589,3.38724 l 0.7874,3.94328 -4.20492,-4.51678 c -2.31272,-2.48425 -3.95704,-5.32675 -3.65406,-6.31667 0.30297,-0.98993 0.16697,-1.76339 -0.30223,-1.7188 -2.36882,0.2251 -23.93813,-30.65281 -22.37049,-32.02488 0.6531,-0.57163 0.13196,-0.9647 -1.15809,-0.87347 -3.73714,0.26426 -4.04344,4.49949 -0.61407,8.49092 1.73549,2.01992 3.63689,4.93494 4.22535,6.47778 0.58845,1.54286 2.32098,3.18905 3.85006,3.65821 1.52909,0.46914 2.46872,1.87055 2.08808,3.11423 -0.72032,2.35351 3.17605,9.19642 5.66531,9.9496 0.78611,0.23785 2.37506,2.94219 3.531,6.00964 1.15594,3.06744 2.98918,5.8457 4.07386,6.17389 1.08467,0.32819 2.24347,1.6579 2.57511,2.95492 1.58456,6.19706 17.46453,25.60452 21.19165,25.89903 0.69194,0.0547 1.33956,1.23846 1.43915,2.63064 0.0996,1.39217 0.90672,2.34071 1.79361,2.10785 0.88692,-0.23286 1.30114,0.59418 0.9205,1.83786 -0.38065,1.24368 -0.0525,2.98359 0.72914,3.86648 0.89908,1.01552 1.2118,0.81679 0.85123,-0.54093 -0.3135,-1.1804 0.68378,-2.98843 2.21617,-4.01783 2.16416,-1.45381 2.26809,-1.74231 0.46559,-1.29228 -2.76417,0.69012 -6.19345,-3.83991 -4.21662,-5.57012 0.75871,-0.66407 -0.31436,-0.87302 -2.38462,-0.46436 -2.07026,0.40869 -3.41519,0.24668 -2.98871,-0.35999 0.42646,-0.60669 -0.24156,-3.17637 -1.48448,-5.71041 -1.24292,-2.53403 -1.6226,-5.1651 -0.84371,-5.84683 0.79919,-0.69949 2.49425,1.17782 3.89072,4.30907 1.36101,3.05168 3.06392,5.54894 3.78426,5.54943 0.72033,5e-4 1.62758,1.59284 2.01611,3.53855 0.38851,1.94571 1.4498,3.34247 2.35842,3.10393 0.9086,-0.23857 2.09742,1.21216 2.6418,3.22382 0.54439,2.01167 1.81519,3.90731 2.824,4.21254 1.00881,0.30524 2.16628,1.95254 2.57216,3.66067 0.4059,1.70813 0.94286,2.51036 1.19326,1.78274 0.25036,-0.72763 2.83609,2.6489 5.74597,7.50337 8.10617,13.52331 12.42996,19.8578 12.81815,18.77895 0.19396,-0.53899 0.85949,0.33105 1.47894,1.93349 1.19763,3.09793 5.52448,7.23422 7.74409,7.403 0.73397,0.0558 0.68961,0.66591 -0.0986,1.35577 -2.14099,1.87391 0.32966,2.13584 3.98787,0.42278 2.87949,-1.3484 3.10556,-1.2156 2.21673,1.3022 -0.69481,1.96816 7.32424,14.35283 26.90731,41.5559 15.34339,21.31369 34.51763,47.95498 42.60941,59.20286 8.09177,11.24788 15.16387,20.58731 15.71574,20.75429 0.55187,0.16698 1.74269,1.6817 2.64624,3.36603 0.90356,1.68434 2.6631,2.99028 3.9101,2.9021 4.34947,-0.30757 3.18751,3.46739 -1.80958,5.87997 -2.76994,1.33695 -5.35736,3.48084 -5.75012,4.76411 -1.15141,3.76202 1.81984,3.48095 4.98591,-0.47163 l 2.92038,-3.64588 -2.1168,3.99069 c -1.47444,2.77964 -1.51048,5.01802 -0.11865,7.37601 1.09901,1.86192 1.33972,2.5942 0.53495,1.62728 -0.82109,-0.9865 -2.17537,-1.13474 -3.08592,-0.33778 -1.75573,1.53671 0.73552,5.36062 3.08971,4.74252 0.79034,-0.20751 1.31442,0.0232 1.16459,0.51275 -0.14982,0.48951 -1.46672,0.97448 -2.92644,1.0777 z M 312.88937,313.73754 c -5.59368,3.76209 -5.70009,6.4169 -0.13245,3.30437 2.6064,-1.45708 4.56634,-3.37767 4.35543,-4.26796 -0.21092,-0.89029 -2.11125,-0.45668 -4.22298,0.96359 z m -18.37219,-20.29776 c -2.71957,-5.0696 -3.51107,-2.62088 -1.03749,3.20957 1.04096,2.4536 2.17488,3.61998 2.51983,2.59198 0.34499,-1.02799 -0.32208,-3.63869 -1.48234,-5.80155 z m -6.75738,-18.51547 c -0.93493,-1.41063 -1.80369,-2.22559 -1.93057,-1.81103 -0.12688,0.41456 0.53425,1.90789 1.46918,3.31852 0.93493,1.41063 1.80369,2.22559 1.93057,1.81103 0.12688,-0.41456 -0.53425,-1.90789 -1.46918,-3.31852 z m -6.25055,-3.42888 -3.45207,-4.45355 0.6146,4.25255 c 0.33803,2.33893 1.06102,3.63975 1.60665,2.89074 0.63031,-0.86526 1.57167,-0.48726 2.5817,1.03668 0.87431,1.31917 1.70476,2.02243 1.84543,1.56281 0.14068,-0.45961 -1.29766,-2.83977 -3.19631,-5.28923 z M 255.69119,249.8019 c -1.10477,-0.85571 -2.08055,-1.32099 -2.16839,-1.03398 -0.0878,0.28701 0.60523,1.67599 1.54016,3.08662 0.97979,1.47832 1.89833,1.91633 2.16838,1.03398 0.25769,-0.84193 -0.43539,-2.2309 -1.54015,-3.08662 z m -6.69129,-9.55898 -3.7197,-5.13779 2.98313,6.15025 c 3.10354,6.39846 3.75482,7.21856 4.19413,5.28132 0.14423,-0.63578 -1.41171,-3.468 -3.45756,-6.29378 z m -6.0009,-8.50946 c -0.93493,-1.41062 -1.80368,-2.22559 -1.93056,-1.81103 -0.12688,0.41456 0.53425,1.9079 1.46918,3.31852 0.93493,1.41063 1.80368,2.22559 1.93056,1.81103 0.12688,-0.41456 -0.53425,-1.90789 -1.46918,-3.31852 z m -8.60292,-12.48551 c -2.53163,-3.63593 -4.70677,-6.27161 -4.83365,-5.85705 -0.12688,0.41456 1.84064,3.72861 4.37227,7.36454 2.53163,3.63593 4.70677,6.2716 4.83365,5.85705 0.12688,-0.41456 -1.84064,-3.72861 -4.37227,-7.36454 z M 222.20625,201.578 c -1.75125,-2.08687 -2.94899,-2.9091 -2.66165,-1.82715 0.5491,2.06752 5.31812,7.34537 5.65188,6.25488 0.10662,-0.34837 -1.23898,-2.34085 -2.99023,-4.42773 z m -6.00327,-23.01924 c -1.10477,-0.8557 -2.08055,-1.32099 -2.16839,-1.03398 -0.0879,0.28701 0.60522,1.676 1.54015,3.08662 0.9798,1.47833 1.89834,1.91633 2.16839,1.03398 0.25768,-0.84193 -0.43539,-2.2309 -1.54015,-3.08662 z m -5.90213,-7.77852 c -0.93493,-1.41063 -1.80369,-2.22559 -1.93057,-1.81103 -0.12688,0.41456 0.53425,1.90789 1.46918,3.31852 0.93493,1.41062 1.80369,2.22559 1.93057,1.81103 0.12688,-0.41456 -0.53425,-1.90789 -1.46918,-3.31852 z m -6.87954,-10.31698 c -0.36773,-0.11127 -0.87623,0.47607 -1.12999,1.30519 -0.25376,0.82912 0.26116,1.7261 1.14426,1.9933 0.8831,0.2672 1.3916,-0.32013 1.12999,-1.30519 -0.26162,-0.98505 -0.77653,-1.88204 -1.14426,-1.9933 z m -5.52068,-7.3523 c -2.04339,-2.99848 -5.9405,-8.87595 -8.66024,-13.06105 -2.71975,-4.18509 -6.90404,-9.99878 -9.29845,-12.91928 -2.3944,-2.92051 -4.57218,-5.8132 -4.83951,-6.42821 -1.05827,-2.4346 -12.09295,-18.25857 -15.51445,-22.248062 l -3.63319,-4.236322 1.74147,5.004659 c 0.95781,2.752545 2.30793,5.199325 3.00026,5.437285 1.23681,0.42511 4.70528,5.69136 11.55814,17.54915 4.28119,7.4079 10.32068,15.47589 11.95505,15.97039 0.6735,0.20379 3.73923,4.29061 6.81274,9.08183 8.31096,12.95584 9.58963,14.58117 10.11658,12.85946 0.26228,-0.85694 -1.195,-4.01138 -3.2384,-7.00985 z M 147.27877,81.710404 c -0.99072,0.260117 -2.03814,1.284029 -2.32759,2.275359 -0.31622,1.082995 0.33657,1.077359 1.63552,-0.01413 2.76873,-2.326525 2.92845,-2.848387 0.69207,-2.261234 z m -3.25368,-2.513901 c -1.66263,1.241172 -2.81955,2.635886 -2.57093,3.099364 0.24863,0.463463 1.81239,-0.172838 3.47503,-1.414026 1.66263,-1.241173 2.81955,-2.635887 2.57093,-3.099365 -0.24863,-0.463463 -1.81239,0.172839 -3.47503,1.414027 z m 1.1534,-5.508265 c -2.76927,-0.776789 -6.08554,1.208323 -5.52766,3.308924 0.45587,1.716469 1.29914,1.74132 3.49386,0.102927 3.32694,-2.483603 3.61573,-2.968076 2.0338,-3.411851 z M 299.88936,288.31153 c -1.50238,-1.65391 -2.30592,-3.23282 -1.78567,-3.50873 0.52025,-0.2759 1.74946,1.07728 2.73159,3.00708 1.70611,3.35241 1.66397,3.37476 -0.94592,0.50165 z m -37.30668,-46.6869 c -1.65798,0.43529 -8.23124,-11.97385 -7.47308,-14.10787 0.20787,-0.585 1.43414,1.2469 2.72509,4.07093 1.29095,2.82401 2.75685,4.91732 3.25754,4.65177 0.50072,-0.26552 1.42505,0.73665 2.05407,2.22707 0.68606,1.62552 0.46053,2.8892 -0.56362,3.1581 z m -15.56192,9.44368 c -0.93493,-1.41063 -1.59606,-2.90396 -1.46918,-3.31852 0.12688,-0.41456 0.99563,0.4004 1.93056,1.81103 0.93493,1.41062 1.59606,2.90396 1.46918,3.31852 -0.12688,0.41456 -0.99563,-0.40041 -1.93056,-1.81103 z m -59.59309,61.88676 c -2.61213,0.47756 -5.13892,0.22408 -5.61508,-0.56328 -0.47616,-0.78738 -0.6499,-0.49315 -0.38608,0.65382 0.27959,1.21556 -0.9174,2.10198 -2.86968,2.12513 -1.84214,0.0218 -3.61658,0.8354 -3.94321,1.80791 -0.32661,0.97249 -2.1026,2.79406 -3.94662,4.04791 -2.72305,1.85156 -3.02936,1.83622 -1.63087,-0.0817 0.94704,-1.29878 1.06103,-2.56137 0.25331,-2.80576 -0.80772,-0.24439 -1.68845,0.27406 -1.95719,1.15211 -0.26874,0.87805 -1.12816,0.87409 -1.90983,-0.009 -0.89104,-1.00642 -1.21203,-0.8176 -0.86046,0.50618 0.95515,3.59646 -3.87396,10.35303 -7.42974,10.39519 -1.83422,0.0217 -3.06597,0.54095 -2.73722,1.15378 0.79879,1.48903 -3.73595,4.38942 -4.86644,3.11253 -0.4875,-0.55062 -1.17744,-0.0501 -1.53322,1.11236 -0.50911,1.66344 0.13304,1.96648 3.01564,1.42308 2.01436,-0.37973 4.48199,-1.43696 5.4836,-2.34939 1.00162,-0.91244 3.54318,-1.90962 5.64792,-2.21597 3.82295,-0.55643 3.82261,-0.55552 -0.34624,0.89949 -2.29517,0.80106 -4.56297,2.73047 -5.03954,4.28758 -0.47657,1.55711 -1.50358,2.63834 -2.28225,2.40274 -1.33076,-0.40265 -2.25197,3.42794 -2.87668,11.96191 -0.14863,2.03035 0.51659,3.48497 1.47827,3.23248 0.96168,-0.25249 1.25865,1.10413 0.65994,3.01472 -0.59867,1.9106 -1.38219,2.64376 -1.74108,1.62927 -0.35888,-1.01449 -1.47927,-2.29037 -2.48974,-2.8353 -1.01047,-0.54492 -4.0595,-3.54956 -6.77563,-6.67696 -5.72305,-6.58964 -9.68471,-7.6045 -11.83383,-3.03147 -0.83484,1.77642 -1.92184,3.10764 -2.41555,2.95826 -1.73863,-0.52606 -7.42955,-14.41416 -6.30853,-15.39532 0.62445,-0.54655 0.12854,-1.29836 -1.10202,-1.67069 -1.23055,-0.37233 -2.36954,-1.64344 -2.53108,-2.82469 -0.16153,-1.18125 -0.37787,-0.32603 -0.48076,1.90048 -0.16874,3.65186 -0.37419,3.76586 -2.09842,1.16433 -2.65598,-4.00734 -6.59534,-1.93765 -4.3343,2.27719 1.45521,2.71268 1.24058,2.99899 -2.12394,2.83326 -2.0585,-0.1014 -7.65366,1.26474 -12.433683,3.03585 -8.574372,3.17702 -8.686946,3.17114 -8.392151,-0.43853 0.164342,-2.01231 1.416401,-7.99237 2.782357,-13.28901 2.229572,-8.64542 2.741379,-9.47235 5.004614,-8.08611 1.904747,1.16667 2.274937,0.961 1.514284,-0.84129 -0.553727,-1.31199 -0.421234,-2.69597 0.294431,-3.07551 0.715669,-0.37953 0.505225,-0.9309 -0.467645,-1.22526 -0.972872,-0.29436 -1.457423,-1.55276 -1.076782,-2.79644 0.380642,-1.24367 -0.167215,-2.52122 -1.21746,-2.839 -1.050245,-0.31777 -2.367739,-2.27096 -2.927763,-4.34042 -1.744508,-6.44648 -3.057799,-3.0892 -1.836987,4.69605 0.638945,4.07462 0.993093,7.95935 0.786996,8.63274 -0.206097,0.67338 -3.610793,0.22832 -7.565991,-0.98903 l -7.191268,-2.21336 5.715675,-0.93191 c 3.143621,-0.51255 5.457084,-1.41396 5.141027,-2.00312 -0.316056,-0.58917 -1.627692,-0.51275 -2.914745,0.1698 -1.287052,0.68256 -3.592785,0.86199 -5.123848,0.39874 -2.511314,-0.75985 -2.238923,-1.27904 2.78326,-5.30503 6.852353,-5.49314 7.567385,-7.5177 3.551922,-10.05701 -7.706712,-4.87361 -13.073789,-10.31686 -10.791646,-10.9448 1.655378,-0.45548 1.456057,-0.91908 -0.690363,-1.60574 -2.228741,-0.71306 -1.137147,-1.44964 4.175547,-2.81779 3.956267,-1.01881 9.012264,-2.07993 11.235543,-2.35802 2.22328,-0.27808 4.805416,-1.73983 5.738084,-3.24833 0.932667,-1.5085 2.095121,-2.29166 2.583231,-1.74035 0.488106,0.55132 1.735188,-1.97348 2.771291,-5.61066 1.0361,-3.63716 1.33195,-6.4683 0.65743,-6.29142 -0.67451,0.17689 -1.477,-0.62201 -1.7833,-1.77533 -0.3063,-1.15332 -0.0294,-1.50113 0.61533,-0.77291 0.64473,0.72822 2.29186,1.03008 3.66029,0.6708 2.09464,-0.54995 2.57242,-2.05052 3.02159,-9.48984 0.29344,-4.86013 1.23668,-9.45203 2.09609,-10.20423 0.85941,-0.75219 0.72631,-1.62065 -0.29578,-1.9299 -1.02208,-0.30926 -1.40952,-0.80029 -0.86098,-1.09121 1.47982,-0.78478 9.20512,6.88611 8.676,8.6149 -0.25015,0.81733 0.35577,1.27323 1.3465,1.01311 0.99072,-0.26012 1.61604,0.1324 1.38959,0.87228 -0.22644,0.73986 0.41487,1.68904 1.42514,2.10927 1.01025,0.42031 3.57675,1.7773 5.70328,3.01571 2.40358,1.39975 4.05519,1.63487 4.36536,0.62145 0.69509,-2.27108 7.33081,-3.36808 8.99604,-1.4872 0.86631,0.97849 -0.18644,1.88365 -2.85668,2.45617 l -4.22857,0.90665 4.25612,0.97835 c 2.34087,0.5381 4.41846,0.44794 4.61688,-0.20034 0.19841,-0.64828 1.33898,-0.88271 2.53459,-0.52095 2.38931,0.72293 0.19093,6.30984 -4.19328,10.65674 -1.35175,1.34025 -2.24988,2.82427 -1.99583,3.29783 0.25404,0.47357 2.92927,-2.11582 5.94496,-5.75421 3.975,-4.79576 6.31042,-6.3649 8.49113,-5.70508 1.65443,0.50058 4.16915,0.33497 5.58828,-0.36802 2.8244,-1.39912 14.35133,-5.5275 17.61055,-6.30724 1.4703,-0.35176 1.08643,2.11034 -1.36616,8.76233 -5.31887,14.42601 -5.12287,14.99097 5.89187,16.98227 l 9.32783,1.68635 -5.94413,5.68746 c -3.26928,3.12811 -6.2228,6.59794 -6.56338,7.71072 -0.34059,1.1128 3.21006,4.93741 7.89033,8.49914 9.28357,7.0649 9.95334,10.21782 2.46153,11.58749 z m -14.26756,-1.88025 -0.0604,-4.13601 -1.28138,3.73002 c -0.70475,2.05151 -0.93143,4.94768 -0.50372,6.43594 0.69125,2.40527 0.84034,2.45038 1.34181,0.40599 0.31029,-1.26496 0.53697,-4.16114 0.50372,-6.43594 z m 1.2257,-13.11469 c -0.77103,0.9557 -1.11511,2.2722 -0.76462,2.92558 0.3505,0.65336 0.98135,-0.12858 1.40189,-1.73764 0.46474,-1.77816 0.21479,-2.24406 -0.63726,-1.18793 z m -17.15652,18.17705 c -2.07674,-0.62836 -3.48597,-0.33358 -3.21858,0.67325 0.26161,0.98505 1.8402,2.20387 3.50798,2.70849 1.66778,0.50462 2.40304,1.46828 1.6339,2.14146 -1.54827,1.35513 0.55124,2.44374 2.60868,1.35263 2.27477,-1.20637 -0.69733,-5.71558 -4.53198,-6.87583 z m -0.86756,-26.29973 c -1.30745,-1.49075 -2.5682,-2.08637 -2.80166,-1.32359 -0.23346,0.76279 -1.23794,1.00019 -2.23218,0.52758 -3.09739,-1.47237 -4.97662,-4.35434 -3.61589,-5.54532 1.91578,-1.67679 -6.74565,-3.80735 -10.2138,-2.51242 -4.89549,1.82788 -4.83916,7.69499 0.1599,16.65394 2.59694,4.65404 5.29967,11.18139 6.00607,14.50523 l 1.28437,6.04335 2.83625,-4.08311 c 11.45017,-16.48379 12.58532,-19.69533 8.57694,-24.26566 z m -24.98215,40.33369 c -0.83333,1.35042 -1.43091,3.39318 -1.32798,4.53946 0.10294,1.14628 0.78475,0.0414 1.51514,-2.45532 0.73038,-2.49671 0.64616,-3.43457 -0.18717,-2.08415 z m -14.9228,-9.86654 c -1.59198,0.66423 -2.61991,1.71959 -2.28428,2.34523 0.33562,0.62565 1.55038,0.33168 2.69945,-0.65325 3.0066,-2.57714 2.88584,-3.06927 -0.41517,-1.69198 z m -6.74374,2.23051 c -0.84176,0.221 -1.33122,1.15209 -1.08769,2.06908 0.62234,2.34332 1.16842,2.26589 1.94639,-0.27599 0.36948,-1.2072 -0.0169,-2.0141 -0.8587,-1.79309 z m -0.59382,-16.01329 c -1.25084,-0.37846 -2.05437,-1.40652 -1.78564,-2.28457 0.26874,-0.87805 -0.36133,-1.3733 -1.40016,-1.10056 -1.2912,0.33901 -1.53303,1.33884 -0.76436,3.16012 1.2933,3.06431 5.0793,4.65454 5.76302,2.42062 0.25376,-0.82912 -0.56203,-1.81714 -1.81286,-2.19561 z m 44.40024,43.52488 c -0.10294,-1.14628 0.49465,-3.18904 1.32798,-4.53947 0.83332,-1.35042 0.91754,-0.41256 0.18715,2.08415 -0.73038,2.4967 -1.41219,3.6016 -1.51513,2.45532 z M 136.63953,242.78846 c -0.1034,-1.16366 0.41565,-2.85958 1.15346,-3.76872 0.7378,-0.90914 0.8224,0.0429 0.188,2.11574 -0.6344,2.0728 -1.23806,2.81664 -1.34146,1.65298 z m -5.06789,6.31737 -3.23022,3.11328 0.98373,-3.82008 c 0.54105,-2.10104 1.1185,-5.07638 1.28323,-6.61186 0.38869,-3.6232 2.77824,-2.88209 3.57517,1.10874 0.42058,2.10625 -0.41472,4.09221 -2.61189,6.20986 z m -3.17299,-33.51714 c -0.1034,-1.16366 0.41566,-2.85959 1.15346,-3.76873 0.73781,-0.90913 0.82241,0.0429 0.18801,2.11575 -0.63441,2.0728 -1.23806,2.81664 -1.34147,1.65298 z m -3.62668,1.339 c -0.35049,-0.65336 -0.006,-1.96987 0.76462,-2.92558 0.85206,-1.05612 1.102,-0.59022 0.63726,1.18794 -0.42054,1.60905 -1.05139,2.391 -1.40188,1.73764 z m 1.78657,-20.0654 c -0.56437,-2.23745 -1.42397,-3.85945 -1.91023,-3.60444 -0.48625,0.255 -0.32154,-1.65545 0.36603,-4.24547 1.15213,-4.34001 1.3448,-4.43939 2.45874,-1.26783 0.66474,1.8927 0.95385,4.2737 0.64246,5.29109 -0.31138,1.0174 -0.55821,3.20992 -0.54851,4.87227 0.0114,1.95128 -0.34603,1.5807 -1.00849,-1.04562 z m -2.10859,-33.9399 c -1.96819,-0.59552 -1.66954,-7.47895 0.37145,-8.56134 0.87075,-0.46178 1.34918,0.0408 1.06317,1.11684 -0.28599,1.07603 -0.38794,3.29346 -0.22654,4.92762 0.16391,1.65949 -0.36943,2.77063 -1.20808,2.51688 z m -3.34407,-24.6954 c -1.94182,0.86968 -2.11058,0.0386 -0.80078,-3.94339 1.76662,-5.37081 3.48887,-6.18662 3.80256,-1.80122 0.26192,3.66169 -0.16188,4.47273 -3.00178,5.74461 z m 5.37568,-45.960826 c -0.3505,-0.65336 -0.006,-1.969867 0.76462,-2.925575 0.85206,-1.056126 1.102,-0.590224 0.63726,1.187938 -0.42054,1.609053 -1.05139,2.390998 -1.40188,1.737638 z"
         id="path3137"
         inkscape:connector-curvature="0" />
      <path
         style="fill:#857874"
         d="m 406.30189,463.9708 c -0.8452,-0.25573 -2.51443,-1.57973 -3.7094,-2.94222 -1.69169,-1.92885 -3.58755,-2.16807 -8.56389,-1.08058 -4.91561,1.07422 -6.7093,0.85661 -7.76891,-0.94252 -1.0761,-1.82714 -1.26585,-1.76454 -0.86681,0.28599 0.35377,1.81802 0.15762,2.01189 -0.63797,0.63052 -0.63186,-1.09708 -0.9253,-3.54014 -0.65211,-5.42903 0.75939,-5.25064 -83.59849,-123.00569 -89.37047,-124.75212 -2.36551,-0.71573 -4.20208,-1.82731 -4.08124,-2.47017 0.12088,-0.64285 0.50248,-2.68455 0.84811,-4.53708 0.86607,-4.64195 -1.43016,-11.7506 -5.32577,-16.4874 -1.79314,-2.18033 -5.19826,-7.5316 -7.56692,-11.8917 -5.58343,-10.27766 -9.98708,-16.78124 -9.22034,-13.61713 0.4083,1.68485 0.14295,1.97455 -0.81626,0.89113 -0.78167,-0.88289 -1.11293,-2.6125 -0.73615,-3.84359 0.3938,-1.28665 -0.48625,-2.38699 -2.06975,-2.58792 -1.51517,-0.19225 -2.50305,-1.22688 -2.19531,-2.29918 0.7033,-2.45053 -2.44677,-6.13758 -4.73125,-5.53779 -0.94342,0.2477 -1.06009,-0.12312 -0.25927,-0.82404 1.87959,-1.64511 -1.22058,-6.37374 -3.74431,-5.71112 -1.05867,0.27795 -1.48446,-0.26429 -0.94621,-1.20496 1.29506,-2.26328 -14.30897,-24.27821 -16.75335,-23.63646 -1.11163,0.29186 -1.22934,-0.0872 -0.28402,-0.91462 0.88798,-0.77719 0.91791,-1.71649 0.0665,-2.08733 -0.85141,-0.37077 -2.37486,-1.0171 -3.38551,-1.43613 -1.01066,-0.41895 -1.56126,-1.66452 -1.2236,-2.76774 0.81964,-2.67804 -3.35134,-8.04374 -5.8209,-7.4882 -1.07894,0.24271 -1.28603,0.0392 -0.46019,-0.45224 0.82584,-0.49143 1.02026,-2.03382 0.43205,-3.42752 -1.3061,-3.09466 -4.12553,-4.20685 -3.36032,-1.32555 0.34297,1.29138 0.008,1.4565 -0.89214,0.43979 -0.79272,-0.89536 -0.93959,-2.06705 -0.3264,-2.60375 1.77815,-1.55632 -2.84756,-8.01557 -5.28243,-7.37629 -1.3174,0.34588 -1.60954,0.065 -0.73161,-0.7034 0.80384,-0.70356 0.0334,-2.98105 -1.71214,-5.06109 -2.17731,-2.5946 -3.03784,-3.04081 -2.74104,-1.4213 0.23795,1.29834 -0.46995,0.0454 -1.57312,-2.78424 -1.10316,-2.82967 -2.68968,-4.96529 -3.52559,-4.74583 -0.83592,0.21948 -1.77064,-0.54397 -2.07676,-1.69791 -0.37046,-1.39493 0.0415,-1.50713 1.23054,-0.33515 0.98309,0.96898 0.51786,-0.11108 -1.03385,-2.40014 -1.55172,-2.28906 -3.57715,-3.96347 -4.50097,-3.72093 -0.92381,0.24254 -0.95316,-0.19484 -0.0652,-0.97208 0.96629,-0.84574 0.62955,-1.7111 -0.83871,-2.15535 -1.34926,-0.40825 -1.82391,-1.29305 -1.05478,-1.96623 1.28148,-1.12161 -0.54565,-2.54572 -3.77756,-2.9443 -0.72371,-0.0893 -0.73694,-0.66901 -0.0293,-1.28834 1.29411,-1.13267 -2.14474,-4.94073 -4.63254,-5.12991 -0.73398,-0.0558 -0.75845,-0.60567 -0.0544,-1.2219 1.37608,-1.20441 -4.44206,-9.15469 -6.70632,-9.16394 -0.75012,-0.003 -0.76427,-0.53034 -0.0315,-1.17173 0.73282,-0.6414 -0.04,-2.10519 -1.71736,-3.25289 -1.67736,-1.1477 -3.82806,-4.07536 -4.77934,-6.50594 -0.95127,-2.43057 -2.70348,-4.71388 -3.89379,-5.07403 -1.19031,-0.36015 -1.95658,-1.33319 -1.70282,-2.16231 0.25376,-0.82912 -0.33422,-1.74822 -1.30663,-2.04244 -0.97241,-0.29422 -2.53814,-1.8765 -3.47939,-3.51619 -7.50294,-13.07022 -11.32075,-19.07986 -12.31155,-19.37964 -0.63825,-0.19312 -2.2027,-2.00056 -3.47655,-4.01654 -1.27385,-2.01598 -5.53197,-7.90684 -9.46249,-13.090762 -6.91127,-9.115232 -7.03676,-9.516287 -3.81424,-12.189686 1.83269,-1.52039 2.70715,-2.953459 1.94325,-3.18459 -0.76389,-0.231132 -2.09305,0.478491 -2.95368,1.576939 -2.38213,3.040371 -7.91074,0.741542 -6.81632,-2.834267 0.59966,-1.959268 0.0824,-2.909256 -1.52225,-2.795779 -1.80434,0.127589 -2.02992,-1.014845 -0.87557,-4.434346 1.54639,-4.58085 3.51424,-5.511486 4.42252,-2.091485 0.26161,0.985055 1.22341,2.017255 2.13733,2.293779 0.91391,0.276523 0.8472,-1.411341 -0.14826,-3.75081 -0.99546,-2.339469 -1.09827,-3.111764 -0.22845,-1.716212 2.32054,3.723151 5.8885,4.395563 5.65025,1.064858 -0.1621,-2.266161 0.10076,-2.313158 1.46079,-0.261137 0.91215,1.37626 1.03611,3.296603 0.27546,4.26743 -2.3249,2.967343 0.95006,4.767872 3.70461,2.036766 1.41971,-1.407622 3.28906,-2.345146 4.15414,-2.083401 0.86507,0.261744 -0.40152,1.844643 -2.81464,3.517546 -2.41313,1.672916 -4.11106,3.556957 -3.77319,4.18678 0.33786,0.629823 2.362,-0.11958 4.49809,-1.665328 4.62828,-3.349203 4.9103,-3.084852 17.73824,16.627159 4.48758,6.895826 8.58035,12.665266 9.09504,12.820996 0.5147,0.15573 1.98292,2.0765 3.26271,4.26839 7.23904,12.39823 12.46809,20.21261 13.81102,20.63941 0.83809,0.26676 1.98219,2.17756 2.54221,4.24702 0.56002,2.06947 1.54417,3.48373 2.18699,3.14283 0.64282,-0.34091 1.71209,1.03463 2.37615,3.05674 0.66406,2.02212 1.90705,3.49288 2.7622,3.26836 0.85515,-0.22451 2.16742,1.45722 2.91616,3.73719 0.74874,2.27998 2.19162,4.43031 3.20639,4.77853 1.01477,0.34821 1.42437,1.39863 0.91023,2.33427 -0.51414,0.93563 0.47001,2.12621 2.18701,2.64572 1.82637,0.5526 2.50245,1.48664 1.62925,2.25092 -0.82185,0.71932 -0.17528,2.11148 1.43888,3.09809 1.61228,0.98546 2.64219,2.73677 2.28868,3.89181 -0.73782,2.41068 -3.84166,-1.57775 -26.19843,-33.66484 -25.62183,-36.7732 -31.24254,-44.275428 -33.13429,-44.225855 -1.91359,0.05013 24.83279,43.258245 27.38802,44.244645 0.81483,0.31457 1.70154,1.57465 1.97046,2.80022 0.26891,1.22558 2.81263,5.09263 5.6527,8.59347 2.84008,3.50084 5.75933,7.39924 6.48723,8.66313 0.7279,1.26387 3.27699,4.50447 5.66464,7.20132 2.38766,2.69685 4.15051,5.52641 3.91744,6.2879 -0.23306,0.76149 0.42551,1.65429 1.46348,1.98402 1.03775,0.33046 2.99808,2.80808 4.35579,5.50749 2.06881,4.1133 8.0928,13.494 25.35777,39.48781 1.24742,1.87808 4.37774,6.26417 6.95627,9.74687 2.57853,3.48269 5.12956,7.32584 5.66897,8.54033 2.51984,5.67345 24.56958,32.55201 26.36978,32.14465 1.11864,-0.25314 1.4226,-0.0923 0.67548,0.35739 -1.49776,0.90149 1.99503,9.78566 4.0973,10.42175 0.72484,0.21931 3.09186,3.61558 5.26004,7.54723 3.72428,6.75344 16.65106,23.78873 18.46878,24.33872 2.66728,0.80703 1.98165,-5.92022 -1.01186,-9.92826 -1.93883,-2.59591 -3.25109,-5.54121 -2.91612,-6.54512 0.33492,-1.00391 0.94477,-0.41102 1.35514,1.31752 0.41036,1.72854 1.46622,2.95375 2.34634,2.72266 0.88013,-0.23107 1.92409,1.20175 2.31992,3.18406 0.39583,1.98232 1.61486,3.36917 2.70894,3.08192 1.15302,-0.30272 1.35288,0.0347 0.47545,0.8027 -0.8326,0.72872 -0.27212,2.17455 1.24553,3.21296 2.9768,2.0368 3.04366,4.23559 0.1519,4.99482 -0.99073,0.26012 -2.13934,1.57738 -2.55249,2.92724 -0.57706,1.88545 0.52725,1.8109 4.76455,-0.32165 l 5.51571,-2.77594 33.64747,46.66525 c 18.50611,25.66591 37.60811,52.20744 42.44887,58.98119 4.84078,6.77375 9.44327,12.51012 10.22775,12.74748 0.78449,0.23736 1.9838,2.05443 2.66514,4.03794 0.93813,2.73106 1.85163,3.35068 3.76371,2.5529 3.45137,-1.44004 0.053,3.03442 -5.0793,6.68756 -4.22798,3.00947 -5.0263,8.27235 -0.99999,6.59244 2.86896,-1.19703 3.68864,2.9637 1.20769,6.13022 -0.86064,1.09844 -0.80958,2.22568 0.11358,2.505 0.92312,0.27931 1.47076,1.1862 1.217,2.01532 -0.25376,0.82911 -1.15292,1.29825 -1.99812,1.04251 z m -8.05496,-11.49617 c -0.99072,0.26012 -1.89287,0.77209 -2.00478,1.13771 -0.1119,0.36563 0.47882,0.87122 1.31271,1.12353 0.83388,0.2523 1.73603,-0.25967 2.00477,-1.13772 0.26874,-0.87805 -0.32198,-1.38363 -1.3127,-1.12352 z M 309.25076,310.25088 c -0.99073,0.26011 -2.00894,1.1513 -2.2627,1.98041 -0.25376,0.82912 0.34921,1.29468 1.33993,1.03456 0.99072,-0.26011 2.00894,-1.15129 2.2627,-1.98041 0.25376,-0.82912 -0.34921,-1.29468 -1.33993,-1.03456 z m -11.00852,0.78688 c -0.93493,-1.41063 -1.80368,-2.22559 -1.93057,-1.81103 -0.12688,0.41456 0.53426,1.90789 1.46919,3.31852 0.93493,1.41063 1.80368,2.22559 1.93056,1.81103 0.12688,-0.41456 -0.53425,-1.90789 -1.46918,-3.31852 z m -6.35251,-8.41261 c -1.67866,-1.67375 -2.42705,-1.69162 -2.92341,-0.0699 -0.36694,1.19891 0.62395,2.57046 2.20196,3.04792 1.78264,0.53937 2.25774,1.40322 1.25462,2.28119 -1.00832,0.88253 -0.82264,1.20518 0.49452,0.85936 2.49509,-0.65509 2.10147,-2.9986 -1.02769,-6.11862 z m -50.40814,-73.46136 c -9.73359,-14.01392 -21.44192,-30.56096 -26.01852,-36.77121 -13.18403,-17.89017 -2.2689,-0.31028 14.89243,23.98573 8.5449,12.09736 19.059,27.50824 23.36469,34.2464 4.30567,6.73816 9.29184,13.61824 11.08037,15.28907 4.54811,4.24879 -1.89141,-5.89969 -23.31897,-36.74999 z m -48.85682,-69.63996 c -4.13035,-6.95461 -14.29459,-21.95818 -16.53227,-24.40354 -1.01919,-1.11375 -1.4785,-0.8553 -1.36248,0.76666 0.0963,1.34576 1.31615,3.14431 2.71086,3.99679 1.3947,0.85247 2.91521,3.79443 3.37889,6.53769 0.46369,2.74326 1.70226,5.06242 2.7524,5.15368 1.05014,0.0913 1.70172,0.84431 1.44796,1.67343 -0.25376,0.82912 0.44337,1.59594 1.54917,1.70405 1.1058,0.1081 1.58045,0.99291 1.05478,1.96623 -0.52568,0.97332 -0.1469,2.01441 0.84171,2.31354 0.98862,0.29912 2.92514,2.49663 4.30338,4.88335 1.37824,2.38673 2.70898,3.67595 2.95719,2.86495 0.24822,-0.81099 -1.1475,-4.16658 -3.10159,-7.45683 z M 150.06155,81.363089 c 1.26422,-1.134259 0.86073,-1.212857 -1.44411,-0.281293 -3.30596,1.336212 -5.34314,4.45269 -2.40666,3.68172 0.91086,-0.239152 2.37244,0.900521 3.24796,2.532611 0.87553,1.632074 2.15921,3.114424 2.85263,3.29409 0.69343,0.179668 0.0761,-1.468777 -1.37172,-3.663201 -1.63211,-2.47366 -1.9658,-4.588042 -0.8781,-5.563927 z M 134.68639,78.95981 c -1.06118,0.908011 -2.2296,2.671883 -2.59649,3.919722 -0.513,1.744766 0.0381,1.760331 2.38578,0.06744 1.67907,-1.210752 2.84749,-2.974624 2.59648,-3.919722 -0.26304,-0.990446 -1.27368,-1.019014 -2.38577,-0.06744 z m 167.70856,228.22781 c -1.50238,-1.6539 -2.30592,-3.23281 -1.78567,-3.50872 0.52026,-0.2759 1.74947,1.07727 2.73159,3.00708 1.70612,3.35241 1.66397,3.37475 -0.94592,0.50164 z m -6.91909,-16.71649 c -5.15581,-6.65154 -5.26301,-9.14122 -0.1331,-3.09072 2.40759,2.83966 4.21604,5.72053 4.01876,6.40195 -0.19699,0.68152 -1.94582,-0.80863 -3.88566,-3.31123 z m -6.49301,-13.60911 c -1.21908,-1.68401 -2.50468,-2.96374 -2.85689,-2.84383 -2.0166,0.68649 -3.29698,-1.04401 -3.14046,-4.24439 0.17522,-3.58263 0.20406,-3.58173 1.51994,0.0481 0.73773,2.03501 1.96012,3.88725 2.71643,4.11609 0.75629,0.22883 1.96062,1.66926 2.67627,3.20095 1.1374,2.43434 1.02219,2.39948 -0.91529,-0.27694 z m -14.34047,13.85844 c -0.93493,-1.41063 -1.59607,-2.90396 -1.46918,-3.31852 0.12688,-0.41456 0.99563,0.4004 1.93056,1.81103 0.93493,1.41062 1.59606,2.90396 1.46918,3.31851 -0.12688,0.41456 -0.99563,-0.4004 -1.93056,-1.81102 z m 1.66049,-27.6409 c -0.89995,-1.35784 -1.24397,-2.67686 -0.7645,-2.93112 1.46504,-0.77695 3.04269,1.16761 2.71267,3.34352 -0.24512,1.61604 -0.66228,1.52774 -1.94817,-0.4124 z m -7.35896,-12.10359 c -0.13022,-0.41687 -0.82245,-2.41752 -1.53827,-4.44591 -1.20389,-3.41139 -1.15,-3.4726 0.71857,-0.81623 1.11103,1.57947 1.80326,3.58013 1.53828,4.44591 -0.26499,0.86578 -0.58835,1.23308 -0.71858,0.81623 z m -78.22484,57.89878 c -1.96076,0.0233 -6.66989,1.63125 -10.46474,3.57333 l -6.89974,3.53106 0.21705,-4.35589 c 0.19448,-3.90305 0.0137,-4.08118 -1.73885,-1.71355 -1.09862,1.48419 -1.4904,4.23405 -0.89385,6.27382 0.76182,2.60488 0.41684,4.13015 -1.22038,5.39556 -1.9062,1.47331 -2.00864,1.37182 -0.62148,-0.61576 1.40516,-2.01336 0.67485,-2.67433 -4.74223,-4.29203 -8.54667,-2.5523 -11.65024,-1.68054 -9.04784,2.54144 1.07982,1.75183 3.24044,3.88359 4.80139,4.73725 2.50073,1.36761 1.83268,2.06874 -5.61988,5.89822 -4.65189,2.39036 -8.28179,5.00953 -8.06645,5.82037 0.21534,0.81083 2.7193,1.89174 5.56436,2.40201 4.07758,0.73133 4.53953,1.1021 2.18178,1.75114 -2.67262,0.73573 -2.99348,1.61246 -3.01395,8.23552 -0.0195,6.30964 -0.3375,7.31694 -2.13797,6.77218 -1.66313,-0.50322 -9.63208,-7.96293 -12.10627,-11.33267 -0.2524,-0.34375 0.42263,-1.33159 1.50014,-2.19517 1.07748,-0.86358 -0.52981,-0.0707 -3.57175,1.7619 l -5.53081,3.33206 1.11243,-4.60468 c 0.61183,-2.53258 1.16154,-5.33102 1.22156,-6.21876 0.06,-0.88773 0.61364,-3.54343 1.23027,-5.90154 0.61663,-2.35812 0.41499,-4.10208 -0.44809,-3.87548 -0.86307,0.2266 -2.30414,3.35497 -3.20238,6.95194 -1.97682,7.91616 -3.1941,9.3147 -5.31812,6.10997 -1.30913,-1.97522 -1.11854,-2.76206 1.01182,-4.17719 2.25893,-1.50054 2.09398,-1.76631 -1.1834,-1.90679 -2.89005,-0.12388 -3.44344,-0.62875 -2.29536,-2.09408 1.24004,-1.58269 0.84122,-1.79827 -2.21188,-1.19557 -2.97978,0.58821 -3.38564,1.1268 -2.02938,2.69304 0.93242,1.07677 1.01304,1.75134 0.17915,1.49903 -2.75947,-0.83493 -4.91349,-4.33396 -3.45426,-5.61115 0.78944,-0.69095 0.68339,-1.85917 -0.23564,-2.59605 -1.15844,-0.92882 -0.95908,-1.17549 0.64995,-0.80419 3.89782,0.89947 11.80789,-2.73832 10.60364,-4.87655 -1.43585,-2.54946 -13.81697,-3.9305 -14.03566,-1.5656 -0.0956,1.03362 -1.04756,1.16676 -2.16331,0.30255 -1.09593,-0.84887 -2.22244,-0.79244 -2.50335,0.12538 -0.28091,0.91783 -1.53416,1.35912 -2.78499,0.98066 -2.08263,-0.63014 -2.40677,-2.7395 -0.88243,-5.74247 0.32859,-0.64733 -0.2408,-0.95689 -1.26531,-0.68791 -1.02451,0.26899 -2.415358,-1.94504 -3.090767,-4.92005 -0.675408,-2.97501 -1.738408,-5.56823 -2.362221,-5.76271 -0.623802,-0.19451 -0.602895,-2.08955 0.04648,-4.21128 0.649379,-2.12173 0.474795,-3.67235 -0.387962,-3.44584 -2.494047,0.65482 -6.371262,8.90704 -5.719181,12.17265 0.462593,2.31666 -0.547529,3.23619 -4.561223,4.15216 -6.487124,1.48043 -7.271258,-0.84797 -1.607799,-4.77418 5.130054,-3.55643 6.044423,-7.97393 2.070649,-10.00373 -1.566812,-0.80032 -4.89385,-3.29787 -7.393419,-5.55011 l -4.544669,-4.09498 7.099476,1.16014 7.099471,1.16016 -6.374392,-2.17609 c -6.506458,-2.22115 -7.891952,-4.791 -2.641733,-4.89995 1.604638,-0.0333 6.363673,-0.90337 10.575636,-1.93351 4.211964,-1.03013 7.901366,-1.79937 8.19867,-1.70941 0.297305,0.09 0.476119,1.77937 0.397366,3.75425 -0.07875,1.97488 0.409158,3.29778 1.084242,2.93977 0.675089,-0.35802 0.898906,-2.29621 0.497368,-4.30708 -0.401534,-2.01089 -0.118396,-3.47108 0.629198,-3.24488 0.74759,0.2262 1.55136,-1.37495 1.78614,-3.5581 0.23478,-2.18315 -0.0883,-3.8344 -0.71792,-3.66944 -0.62963,0.16495 -0.75623,-1.30971 -0.28131,-3.27704 0.9265,-3.83806 2.96509,-3.13871 7.6639,2.62914 1.30638,1.60359 3.42513,3.20568 4.70835,3.5602 1.28322,0.35449 -0.72707,-2.24529 -4.4673,-5.77733 -5.31689,-5.02096 -6.19554,-6.55312 -4.02771,-7.02335 1.52499,-0.33081 2.54788,-1.44799 2.2731,-2.48262 -0.27478,-1.03464 0.62187,-2.18882 1.99258,-2.56484 2.01285,-0.55217 2.01967,-0.83147 0.0355,-1.4522 -2.85717,-0.89381 -2.53969,-11.10955 0.34761,-11.1852 1.17771,-0.0309 1.37467,-1.08878 0.58287,-3.1307 -0.65776,-1.69624 0.6411,-0.56151 2.88637,2.52162 2.24526,3.08313 3.63571,6.48022 3.08987,7.54908 -0.54582,1.06887 0.25021,3.33924 1.76898,5.04525 2.71311,3.04764 2.72982,3.03362 0.9557,-0.80115 -1.37446,-2.9709 -1.2823,-3.91831 0.38589,-3.96708 1.20537,-0.0352 2.76536,1.28641 3.46664,2.93695 0.75823,1.78456 1.08993,2.00727 0.81831,0.54944 -0.3058,-1.64132 0.0272,-1.90491 1.00762,-0.79754 0.80541,0.90971 5.64152,2.89621 10.74691,4.41446 6.98874,2.07834 8.72128,3.05809 7.01122,3.96499 -1.24922,0.66249 -2.99799,3.57883 -3.88615,6.48074 -1.96713,6.42723 0.11911,5.37363 6.8537,-3.46127 3.52683,-4.62675 5.09653,-5.79262 5.17872,-3.84644 0.0851,2.01616 0.87181,2.58658 2.82924,2.05147 2.40974,-0.65876 2.45941,-0.82117 0.44655,-1.46033 -1.36543,-0.43356 -0.34233,-1.27863 2.57644,-2.12807 2.66267,-0.77492 7.20426,-2.21774 10.09244,-3.20628 8.9995,-3.08027 10.12528,-1.48478 6.74507,9.55943 l -2.99489,9.78526 8.3389,2.5231 c 7.45304,2.25506 8.18743,2.82083 6.91308,5.32584 -0.7842,1.54152 -2.80295,3.87507 -4.48613,5.18571 -4.91291,3.82549 -4.98854,7.15893 -0.24443,10.77327 2.40121,1.82937 6.43682,4.88628 8.96801,6.79312 4.17445,3.14474 4.27084,3.47089 1.03717,3.50923 z m -16.27284,-10.99928 c -0.7378,0.90914 -1.25686,2.60507 -1.15345,3.76873 0.1034,1.16366 0.70705,0.41982 1.34146,-1.65298 0.6344,-2.0728 0.5498,-3.02488 -0.18801,-2.11575 z m -11.33204,-8.93904 c -0.88054,-0.99458 -1.2123,-0.81864 -0.87207,0.46247 0.32034,1.20617 -0.3831,1.78566 -1.68822,1.39077 -1.23056,-0.37232 -2.25822,-1.46339 -2.28369,-2.4246 -0.0469,-1.77153 -14.68645,-7.12633 -25.46755,-9.31544 -6.33199,-1.28572 -7.65274,0.82777 -3.0339,4.8549 1.55144,1.3527 3.01273,4.75961 3.24732,7.5709 0.44891,5.37991 3.29773,11.74501 5.56353,12.43057 0.73744,0.22313 1.86364,3.34335 2.50265,6.93382 1.89885,10.66915 5.07008,13.1077 7.0631,5.43125 1.18714,-4.57241 4.67194,-10.05607 10.8901,-17.13656 1.3543,-1.54211 2.24271,-3.63097 1.97423,-4.64188 -0.26848,-1.01092 0.33567,-2.05433 1.34255,-2.31868 2.35683,-0.61879 2.50879,-1.26447 0.76195,-3.23752 z m 7.99008,-32.70034 c -1.85607,1.11999 -8.6922,8.76238 -8.0199,8.9658 0.94245,0.28515 7.64371,-6.22673 8.29377,-8.05939 0.26599,-0.74992 0.14276,-1.1578 -0.27387,-0.90641 z m -48.14828,47.88396 c -0.28867,-0.0873 -0.44356,0.97757 -0.34421,2.36648 0.0993,1.38891 0.87345,2.73492 1.72023,2.99113 0.88741,0.2685 1.03323,-0.73395 0.34421,-2.36649 -0.65746,-1.55777 -1.43156,-2.90378 -1.72023,-2.99112 z m -1.077,-9.51958 c 0.52569,-1.71757 -2.72773,-1.17818 -4.19588,0.69565 -1.17886,1.50462 -0.94927,2.09368 0.7687,1.97221 1.34729,-0.0953 2.57897,0.38015 2.73705,1.05653 0.15808,0.67636 0.33463,0.2569 0.39231,-0.93209 0.0577,-1.18901 0.1917,-2.44554 0.29782,-2.7923 z m -12.25542,11.17554 c -0.96133,-0.33205 -1.32722,-1.36924 -0.81308,-2.30487 1.37153,-2.49593 -1.91492,-3.00197 -3.8076,-0.58629 -2.20689,2.8167 1.92662,8.2719 5.225,6.8957 2.57849,-1.07583 2.28725,-3.00578 -0.60432,-4.00454 z m 3.38276,-60.66746 c -0.93493,-1.41063 -1.84393,-2.09408 -2.02001,-1.51877 -0.17608,0.5753 0.39183,2.37322 1.26202,3.99536 0.8702,1.62214 1.77921,2.30558 2.02002,1.51876 0.24082,-0.78682 -0.3271,-2.58472 -1.26203,-3.99535 z m 110.69042,-61.26541 c -1.01894,-1.13615 -2.76219,-2.49752 -3.87388,-3.02529 -1.1117,-0.52776 -2.76363,-2.43731 -3.67095,-4.24345 -1.547,-3.07952 -1.45297,-3.05756 1.51091,0.35289 1.73832,2.00021 3.63016,3.3877 4.20409,3.08334 0.57392,-0.30437 1.63726,0.89823 2.36296,2.67244 1.14449,2.79795 1.07378,2.95182 -0.53313,1.16007 z m -69.84971,165.41347 c -0.3505,-0.65337 -0.006,-1.96987 0.76461,-2.92558 0.85206,-1.05613 1.102,-0.59021 0.63727,1.18794 -0.42055,1.60906 -1.05139,2.391 -1.40189,1.73763 z m -27.51935,-1.29207 c -1.16988,-0.35397 -0.7377,-5.12537 0.49352,-5.44863 0.74179,-0.19476 1.04708,0.98566 0.67842,2.62315 -0.36866,1.6375 -0.89604,2.90896 -1.17194,2.82548 z m 10.2489,-93.3914 c -5.42052,-0.26701 -6.61236,-1.82056 -2.08267,-2.71473 1.83227,-0.3617 4.04664,0.15022 4.92081,1.1376 1.10949,1.25315 0.25251,1.72937 -2.83814,1.57713 z m -36.18138,85.86535 c -10.587533,3.10653 -11.29076,2.85606 -5.974927,-2.12814 1.826139,-1.71222 3.524735,-3.79244 3.774659,-4.62272 0.24997,-0.83027 -1.13444,0.0479 -3.076363,1.95159 -5.500727,5.39234 -6.70823,3.36363 -3.750314,-6.30083 2.654157,-8.67198 2.822119,-8.85791 7.383926,-8.1739 2.567399,0.38497 4.152569,1.15106 3.522599,1.70244 -0.62996,0.55137 0.58305,1.52546 2.69557,2.16465 2.71989,0.82295 4.11879,2.66456 4.79289,6.30965 0.52357,2.83113 0.8822,5.37536 0.79697,5.65384 -0.0852,0.27848 -4.65949,1.82802 -10.16501,3.44342 z m 30.4914,-91.56701 c -0.82455,-0.24948 -1.18775,-1.47116 -0.80711,-2.71484 0.38065,-1.24368 0.65993,-2.76509 0.62063,-3.38092 -0.0393,-0.61581 0.70335,-1.13997 1.65033,-1.16478 0.94699,-0.0248 1.34234,1.70072 0.87856,3.83451 -0.46378,2.1338 -1.51786,3.67551 -2.34241,3.42603 z m -2.48796,-33.28279 c -0.1034,-1.16366 0.41566,-2.85959 1.15346,-3.76873 0.73781,-0.90913 0.82241,0.0429 0.18801,2.11575 -0.63441,2.0728 -1.23806,2.81664 -1.34147,1.65298 z m -38.504039,99.94016 c -2.66318,-0.80579 -2.778454,-1.82901 -0.279952,-2.485 0.922265,-0.24214 1.894382,0.37885 2.160261,1.37997 0.265878,1.00112 -0.580261,1.49839 -1.880309,1.10503 z M 126.27775,190.74936 c -0.73173,-1.97986 -1.08887,-4.31149 -0.79365,-5.1814 0.29521,-0.86991 1.13545,0.0383 1.86718,2.01811 0.73173,1.97987 1.08888,4.3115 0.79366,5.18141 -0.29522,0.8699 -1.13546,-0.0383 -1.86719,-2.01812 z M 82.934065,316.30162 c -3.34068,-0.99251 -4.793455,-1.75441 -3.228389,-1.69313 1.565065,0.0613 4.298348,0.87334 6.073963,1.80456 1.775614,0.93122 0.495106,0.88107 -2.845574,-0.11143 z M 123.99104,161.13645 c -0.31969,-0.0967 -0.5228,-1.64159 -0.45136,-3.43302 0.0714,-1.79144 0.63218,-2.68982 1.24609,-1.9964 1.0721,1.21093 0.40163,5.7914 -0.79473,5.42942 z m -1.30928,-23.86717 c -0.33841,-0.63083 -0.44343,-1.71263 -0.23338,-2.404 0.21005,-0.69136 -0.0664,-2.31914 -0.61425,-3.61728 -0.66272,-1.57026 -0.48082,-2.20435 0.54345,-1.89443 0.84678,0.2562 1.62532,1.66416 1.73008,3.12881 0.24236,3.38815 -0.62115,6.28703 -1.42589,4.7869 z m -3.18979,-31.84806 c -0.32773,-0.0992 -0.67716,-1.31668 -0.77651,-2.70558 -0.0993,-1.38891 0.48023,-2.32534 1.28795,-2.08095 0.80772,0.24439 1.15714,1.46191 0.7765,2.70558 -0.38064,1.24368 -0.96022,2.18011 -1.28794,2.08095 z m 3.92423,-16.10709 c -0.53067,-4.757708 0.83049,-9.205072 2.30692,-7.537445 0.67706,0.764735 0.52054,3.540587 -0.34782,6.168557 -1.33086,4.02768 -1.63855,4.242669 -1.9591,1.368888 z m 5.4266,-22.240876 c -0.69491,-0.210257 -0.96117,-1.370008 -0.59169,-2.577205 0.36948,-1.207212 1.13341,-1.673514 1.69762,-1.03623 0.56422,0.637269 0.83047,1.79702 0.59169,2.577205 -0.23879,0.780186 -1.00271,1.246488 -1.69762,1.03623 z"
         id="path3135"
         inkscape:connector-curvature="0" />
      <path
         style="fill:#6c6262"
         d="m 405.68881,463.78531 c -1.22084,-0.36939 -2.43376,-1.47757 -2.69537,-2.46263 -0.73793,-2.77854 -7.19841,-4.11993 -10.24104,-2.12634 -2.49256,1.63316 -2.83175,1.51593 -3.82897,-1.32347 -0.6018,-1.71345 -1.95868,-2.88838 -3.01533,-2.61096 -1.05664,0.27742 -1.63068,-0.44469 -1.27564,-1.6047 0.35503,-1.16 -5.76447,-11.00225 -13.59888,-21.87166 -7.83442,-10.86941 -27.19893,-37.97098 -43.03224,-60.2257 -19.08217,-26.82118 -30.01467,-40.83434 -32.42664,-41.56413 -3.03741,-0.91903 -3.59678,-2.32677 -3.38459,-8.51772 0.17578,-5.12861 -0.94726,-9.07672 -3.64022,-12.79738 -2.14192,-2.95935 -3.43204,-5.62584 -2.86693,-5.92553 0.5651,-0.29969 3.0083,2.229 5.42936,5.61931 4.10112,5.74304 11.72145,10.6912 10.733,6.96935 -0.67877,-2.55582 -11.52969,-15.77128 -12.93702,-15.75616 -0.68559,0.007 -0.84238,-0.69816 -0.34843,-1.56784 0.49395,-0.86968 0.0551,-2.21041 -0.97528,-2.9794 -1.28894,-0.96198 -1.6938,-0.63487 -1.29775,1.04855 0.3166,1.34568 0.20665,1.84093 -0.24424,1.10057 -0.45095,-0.74037 -0.51774,-1.52159 -0.14839,-1.73603 1.09103,-0.63347 -6.79904,-12.71083 -31.21011,-47.77339 -12.65777,-18.18086 -25.85915,-37.15656 -29.3364,-42.1682 -3.47724,-5.01165 -8.91742,-12.81107 -12.08928,-17.33206 -3.17186,-4.52098 -11.95822,-17.21903 -19.52524,-28.21788 -7.56702,-10.99886 -17.71122,-25.34949 -22.54267,-31.8903 -4.83145,-6.54082 -10.1622,-14.20414 -11.84611,-17.02963 -2.57593,-4.32222 -3.39047,-4.84944 -5.13427,-3.32317 -1.49973,1.31263 -1.26209,3.0838 0.85974,6.40779 1.61274,2.52652 2.2887,4.39897 1.50208,4.16097 -0.78661,-0.23801 -3.17797,-3.15501 -5.31411,-6.48222 -2.13614,-3.32722 -4.44291,-6.24874 -5.12615,-6.49228 -1.68421,-0.60035 -11.38114,-15.144162 -10.97718,-16.464014 0.51489,-1.682297 13.79056,-10.740577 14.31324,-9.766231 0.26052,0.485639 -0.82661,1.739775 -2.41584,2.786992 -2.47595,1.631491 -2.60838,2.103421 -0.92524,3.297349 1.08035,0.766341 2.96259,3.253589 4.18276,5.52722 4.2605,7.93894 28.20901,43.678644 40.95006,61.112054 7.06397,9.66556 16.63563,23.45123 21.27035,30.63482 4.63472,7.18361 8.95212,13.78022 9.59423,14.65913 0.6421,0.87893 5.31603,7.64743 10.3865,15.04111 5.07046,7.39369 14.60357,21.00179 21.18468,30.24022 11.1517,15.65453 17.60592,24.90547 36.819,52.77318 4.16428,6.04008 8.64288,11.74347 9.95247,12.67418 1.30959,0.93072 2.22017,2.21792 2.02352,2.86044 -0.19666,0.64254 1.21785,2.10999 3.14335,3.261 3.84845,2.3005 3.93007,5.04851 0.15786,5.31525 -1.32491,0.0937 -3.18308,1.15845 -4.12928,2.36612 -1.6335,2.08486 1.27077,1.01533 12.40847,-4.56962 1.97176,-0.98874 4.20565,-1.60991 4.9642,-1.3804 1.46854,0.44434 81.20819,110.07994 87.24343,119.95271 1.96524,3.21482 4.02978,5.60297 4.58786,5.307 0.5581,-0.29596 0.82243,0.0901 0.58742,0.85799 -0.23501,0.76786 -2.05117,1.83055 -4.0359,2.36151 -3.50819,0.93854 -6.00125,5.14617 -4.59849,7.76107 0.38173,0.71157 1.74109,0.8569 3.02084,0.32295 1.64251,-0.68532 2.38082,-0.21553 2.5105,1.59743 0.10104,1.41254 -0.55562,2.34456 -1.45923,2.07116 -0.95567,-0.28916 -1.08655,1.39379 -0.31286,4.02306 1.12564,3.8253 0.98888,4.41693 -0.8896,3.84856 z m -6.665,-11.89916 c -1.26984,-0.38422 -6.48055,3.37986 -7.07885,5.11356 -0.25619,0.74232 1.27458,0.53471 3.40166,-0.46136 3.788,-1.77383 5.60264,-4.06962 3.67719,-4.6522 z m 0.47526,-8.9152 c -0.99072,0.26012 -1.89287,0.77209 -2.00478,1.13772 -0.1119,0.36562 0.47882,0.87121 1.31271,1.12352 0.83388,0.25231 1.73603,-0.25966 2.00477,-1.13771 0.26874,-0.87805 -0.32198,-1.38364 -1.3127,-1.12353 z M 314.52465,320.08204 c -0.99072,0.26012 -2.03814,1.28403 -2.3276,2.27536 -0.31652,1.0829 0.33658,1.07736 1.63553,-0.0141 2.76873,-2.32653 2.92846,-2.84839 0.69207,-2.26124 z m -18.23015,4.53632 c -0.8256,0.21676 -1.69646,1.03245 -1.93525,1.81263 -0.23878,0.78019 0.13441,1.59055 0.82931,1.80081 0.69492,0.21026 1.56579,-0.60544 1.93526,-1.81263 0.36948,-1.20721 -0.004,-2.01758 -0.82932,-1.80081 z M 150.55648,101.26959 c -3.35092,-1.752749 -3.43391,-1.662677 -2.23188,2.42222 1.38886,4.71979 3.04436,5.82644 4.93589,3.2995 1.81334,-2.42247 1.22552,-3.66631 -2.70401,-5.72172 z M 139.89598,86.8885 c -1.56674,0.653698 -3.06103,1.960007 -3.32063,2.9029 -0.25962,0.942907 0.93271,0.700654 2.64961,-0.538332 4.01019,-2.893935 4.28826,-3.873804 0.67102,-2.364568 z m 171.46434,227.29484 c -0.99073,0.26012 -1.47764,-0.58462 -1.08201,-1.87726 0.39561,-1.29261 1.40158,-2.14377 2.23547,-1.89146 0.83389,0.25231 1.32079,1.09708 1.08201,1.87726 -0.23879,0.78019 -1.24475,1.63135 -2.23547,1.89146 z m -61.95713,-65.48666 c -3.97102,-4.88679 -13.18973,-17.39002 -20.48602,-27.78496 -7.2963,-10.39494 -18.11571,-25.73304 -24.04312,-34.08468 -5.92742,-8.35163 -12.13129,-17.30929 -13.78638,-19.90591 l -3.00926,-4.7211 3.25378,3.62364 c 1.78957,1.99302 3.92852,3.61377 4.75321,3.60169 0.82468,-0.0121 3.76479,3.45214 6.53357,7.69824 2.76877,4.24612 13.09433,19.13737 22.94569,33.09169 9.85136,13.9543 20.86964,30.32034 24.48506,36.36896 l 6.57349,10.99751 -7.22002,-8.88508 z m -66.30429,58.10251 c -3.52925,-0.31438 -5.47685,0.36744 -5.81628,2.03619 -1.18922,5.84657 -2.42674,6.54256 -3.07898,1.73163 -0.49903,-3.68078 -0.97867,-4.36302 -1.67915,-2.38836 -0.77688,2.19001 -1.70788,2.3295 -4.48149,0.67153 -4.69229,-2.80493 -4.6832,-1.74056 0.0316,3.70296 l 3.92087,4.52687 -3.96334,-0.3287 c -2.17983,-0.18079 -7.34115,-1.05493 -11.46958,-1.94253 -7.03982,-1.51356 -7.38409,-1.79258 -5.54039,-4.49031 1.08122,-1.58206 3.14939,-4.74194 4.59592,-7.02196 2.49358,-3.93038 2.58465,-3.94556 1.75494,-0.29255 -0.86564,3.81117 -0.83755,3.81074 2.59174,-0.0394 4.88666,-5.48631 5.66186,-9.13723 3.20129,-15.07695 l -2.13884,-5.1631 -13.46323,-1.63267 c -8.8863,-1.07764 -13.81827,-2.29455 -14.50762,-3.57958 -1.40021,-2.61015 -5.95015,-3.87111 -7.87841,-2.18341 -0.85512,0.74846 -0.87534,2.12824 -0.0449,3.06619 2.58928,2.92458 -0.98501,7.12713 -5.15494,6.06102 -6.91613,-1.76819 -7.7223,-1.71383 -8.42061,0.56777 -0.38064,1.24368 -1.41462,2.04262 -2.29772,1.77542 -0.8831,-0.2672 -0.91108,-1.09374 -0.0622,-1.83675 0.84891,-0.74301 -0.54031,-0.74474 -3.08716,-0.004 -4.38561,1.27578 -4.54942,1.21346 -3.09579,-1.17761 0.84417,-1.38859 1.00309,-5.4348 0.35315,-8.99157 l -1.1817,-6.46689 3.60496,3.49414 c 4.15963,4.03176 7.17761,5.305 6.49662,2.74083 -0.27127,-1.02142 0.42353,-1.07823 1.64219,-0.13431 1.74035,1.348 1.64633,1.94302 -0.53382,3.37841 -2.35967,1.55357 -2.20682,1.62526 1.41164,0.66211 2.23182,-0.59407 4.22779,-1.63536 4.43548,-2.31396 0.2077,-0.67861 -0.36372,-1.03919 -1.26983,-0.8013 -0.9061,0.2379 -1.69435,-0.23119 -1.75166,-1.04241 -0.0573,-0.81124 -2.97921,-4.25959 -6.49312,-7.663 -3.5139,-3.40342 -5.20668,-5.86485 -3.76173,-5.46983 1.69439,0.46325 2.56305,-0.17838 2.44655,-1.80708 -0.16522,-2.30983 1.95309,-2.70875 5.2931,-0.9968 0.6873,0.35224 1.16008,-0.61121 1.05065,-2.14108 -0.14597,-2.04065 0.35881,-2.34955 1.89506,-1.15963 1.1517,0.89208 4.21883,1.00383 6.81583,0.24835 4.64939,-1.35252 4.6799,-1.33204 1.98923,1.33573 -3.7475,3.7156 -3.92017,5.01472 -0.47551,3.57749 2.45348,-1.02368 2.60287,-0.82171 0.98505,1.33169 -1.04887,1.3961 -1.18733,2.19987 -0.30769,1.78615 0.87964,-0.41371 2.1441,-2.15304 2.8099,-3.86518 0.99576,-2.56061 2.3081,-2.83785 7.39613,-1.56253 l 6.18557,1.55041 -3.55834,3.32494 c -3.1818,2.97312 -3.46817,3.89638 -2.70626,8.72521 l 0.85208,5.40027 5.12169,-7.43124 c 2.81692,-4.08719 6.03731,-7.67164 7.15641,-7.96546 1.26428,-0.33194 1.47409,0.18133 0.55412,1.35553 -0.81434,1.03936 -0.73385,3.17449 0.17886,4.74475 1.46805,2.52566 1.68362,2.37041 1.86879,-1.34585 0.18655,-3.74373 0.5507,-3.99387 3.34654,-2.2987 2.79014,1.69171 2.99292,1.55459 1.83296,-1.23944 -1.132,-2.72664 -0.70991,-3.39085 3.19566,-5.02873 2.47497,-1.03793 5.35968,-1.65167 6.41049,-1.36387 1.0508,0.2878 2.15278,-0.26815 2.44883,-1.23546 0.29606,-0.9673 0.81061,-1.25109 1.14345,-0.63064 0.33284,0.62046 -1.10041,2.86769 -3.18499,4.99386 -4.2616,4.34661 -4.80773,5.36854 -3.13886,5.87349 0.63718,0.19279 3.17132,-2.00521 5.63144,-4.88446 5.78821,-6.77434 8.85255,-6.08792 5.24107,1.17402 -1.46848,2.9528 -3.1294,6.84305 -3.69094,8.64501 -0.57361,1.84061 -2.18635,3.157 -3.68049,3.00411 -2.3863,-0.24419 -2.44283,0.0472 -0.55021,2.8367 1.16012,1.70987 1.88158,2.20042 1.60325,1.09012 -0.34498,-1.37613 1.00912,-1.39312 4.2539,-0.0534 2.61798,1.08095 5.25841,2.1635 5.86763,2.40566 2.58482,1.02745 -0.12965,3.29863 -4.89999,4.09979 -3.7189,0.62458 -5.20353,0.3235 -5.33601,-1.0821 -0.10095,-1.0711 -0.6923,-0.47745 -1.31412,1.31921 -0.62182,1.79667 -0.57663,3.89236 0.10043,4.65709 0.67706,0.76474 1.41092,0.80261 1.63081,0.0842 0.21989,-0.71846 4.12858,-2.52903 8.68599,-4.02351 8.17528,-2.68088 10.01668,-1.17688 3.93368,3.21287 -1.7169,1.23898 -3.40821,3.18905 -3.75848,4.33349 -0.58936,1.92562 1.7883,8.05201 2.97699,7.67066 0.28866,-0.0926 2.23775,1.54191 4.33131,3.63226 l 3.80647,3.80064 -5.30597,-0.47264 z m -8.9387,-8.15537 c -0.83332,1.35043 -1.43091,3.39319 -1.32798,4.53946 0.10294,1.14628 0.78475,0.0414 1.51514,-2.45532 0.73038,-2.4967 0.64616,-3.43457 -0.18716,-2.08414 z m -4.42845,-3.43012 c -1.77955,-0.53844 -2.13417,0.62025 -1.61485,5.27621 0.33697,3.02101 0.53689,2.94082 1.75564,-0.70412 0.75645,-2.26234 0.6931,-4.31978 -0.14079,-4.57209 z m -8.0967,-24.1842 c -2.20132,-2.56815 -2.82082,-1.05076 -1.4596,3.57512 0.70715,2.40315 0.5992,4.7772 -0.23989,5.27566 -0.83909,0.49847 -0.49045,0.6677 0.77476,0.37607 2.53454,-0.58419 3.14153,-6.64066 0.92474,-9.22688 z m -5.54023,-4.64826 c -0.36773,-0.11126 -0.87622,0.47608 -1.12998,1.3052 -0.25376,0.82911 0.26115,1.7261 1.14426,1.9933 0.8831,0.2672 1.39159,-0.32013 1.12998,-1.30519 -0.26161,-0.98505 -0.77652,-1.88204 -1.14426,-1.99331 z m -4.12898,11.10387 c -0.99072,0.26012 -1.89287,0.77209 -2.00477,1.13772 -0.11191,0.36563 0.47881,0.87121 1.3127,1.12352 0.83389,0.25231 1.73604,-0.25967 2.00478,-1.13772 0.26873,-0.87805 -0.32198,-1.38363 -1.31271,-1.12352 z m -0.20422,52.86918 c -5.73014,2.91899 -12.33881,7.40483 -14.68594,9.96852 -4.05091,4.42466 -8.36025,5.76336 -6.34946,1.97246 0.51758,-0.97577 1.41051,-5.15438 1.9843,-9.28579 0.95048,-6.84362 0.73493,-7.4508 -2.42368,-6.82728 -1.90682,0.37641 -3.28789,1.35858 -3.06905,2.1826 0.75199,2.83147 -4.47589,3.59233 -8.32333,1.21137 l -3.78894,-2.34477 8.51323,-3.58716 c 8.10608,-3.41559 8.50328,-3.83411 8.30526,-8.75094 -0.11438,-2.84008 -0.91007,-8.73042 -1.76819,-13.08961 -0.85812,-4.35922 -1.22024,-8.10615 -0.80471,-8.32651 1.30095,-0.68993 10.24539,19.01 9.59542,21.13367 -0.33957,1.10947 0.71701,3.60737 2.34795,5.55088 2.71171,3.23141 3.23456,3.39088 6.11279,1.86453 2.31678,-1.22865 2.87298,-2.31953 2.10746,-4.13335 -0.67123,-1.59041 -0.40952,-2.6297 0.73807,-2.931 0.97794,-0.25676 2.04622,0.63345 2.37395,1.97829 0.81842,3.35826 5.99334,8.22479 8.14522,7.65981 3.51317,-0.92238 1.21418,0.54583 -9.01037,5.75433 z m -29.0095,-1.89155 c -1.41902,0.75253 -1.72343,1.42759 -0.7734,1.71505 2.02375,0.61232 4.36241,-0.62794 3.65846,-1.94018 -0.29973,-0.55874 -1.59801,-0.45744 -2.88506,0.22513 z m 24.34425,23.53991 c -4.35974,-2.24819 -10.58759,-7.77676 -10.19722,-9.05223 0.52775,-1.72431 8.86437,-5.14767 12.5194,-5.14098 2.97962,0.005 3.28584,0.6119 2.09596,4.15082 -0.76641,2.27943 -1.32457,5.85794 -1.24034,7.95224 0.13469,3.34946 -0.24783,3.60106 -3.1778,2.09015 z m 44.99492,-209.67966 c -1.76831,-2.4088 -6.84522,-9.5684 -11.28202,-15.91023 -6.05177,-8.65022 -26.63947,-37.09233 -30.6836,-42.389673 -0.23034,-0.30172 0.12698,-1.313296 0.79404,-2.247939 0.76762,-1.075547 3.00289,1.265803 6.08916,6.378113 2.68197,4.442622 12.49911,19.097039 21.81588,32.565379 9.31676,13.46834 16.83653,24.82452 16.71061,25.23595 -0.12592,0.41142 -1.67575,-1.2228 -3.44407,-3.6316 z m -10.88633,11.21273 c -2.75482,-2.72974 -8.40486,-10.82182 -16.62955,-23.81717 -3.20883,-5.07007 -3.38309,-6.0564 -0.97537,-5.52051 1.64914,0.36705 3.14984,2.28381 3.43067,4.3818 0.27456,2.05113 1.37897,3.81024 2.45425,3.90911 1.07528,0.0989 1.73518,0.89818 1.46644,1.77623 -0.26874,0.87805 0.44722,1.35075 1.59102,1.05045 1.20781,-0.31711 1.46916,-0.0117 0.62341,0.72854 -0.80092,0.70102 1.40959,5.28045 4.91224,10.17653 6.746,9.42969 7.83717,11.98238 3.12689,7.31502 z m -56.06827,158.65656 c -5.53888,3.5 -12.50206,3.92724 -13.80214,0.84685 -1.51604,-3.5921 4.09197,-6.256 9.63766,-4.57804 l 4.35229,1.31686 -1.72336,-7.52156 c -1.9733,-8.61241 -1.70958,-11.30182 0.74505,-7.59825 0.93493,1.41063 1.44605,3.39412 1.1358,4.40779 -0.31024,1.01365 0.42469,3.4837 1.63316,5.48901 2.63814,4.37761 2.53204,4.78717 -1.97846,7.63734 z m 3.76809,-23.24193 c -1.07952,0.93328 -2.33172,0.73542 -3.46797,-0.54796 -2.13275,-2.40894 -0.12914,-3.85363 2.9607,-2.13481 1.30807,0.72765 1.51329,1.81304 0.50727,2.68277 z m 7.92098,-34.48849 c -1.76746,0.13921 -3.46206,-0.21013 -3.76578,-0.77629 -0.96202,-1.79332 1.67433,-2.31743 4.37714,-0.87018 2.47702,1.32635 2.44761,1.40555 -0.61137,1.64647 z m -27.60113,82.58847 c -2.42887,1.85367 -18.941264,6.65785 -18.555896,5.39873 0.192069,-0.62755 1.642572,-2.21167 3.223343,-3.52027 1.580771,-1.3086 4.314384,-4.07048 6.074695,-6.13752 2.854868,-3.3523 2.892578,-3.73646 0.349128,-3.5566 -1.783317,0.12611 -3.59703,-1.31509 -4.841843,-3.84739 -2.633489,-5.35724 -1.173189,-5.81679 5.436483,-1.71084 5.90171,3.66617 10.77101,11.49882 8.31409,13.37389 z m 3.66578,-39.33124 c -8.88151,4.99715 -10.07121,6.57872 -8.09994,10.76793 0.85023,1.80683 0.26979,1.52242 -1.80067,-0.88231 -1.88594,-2.19043 -2.55788,-4.69457 -1.75563,-6.54273 0.91904,-2.11724 0.56508,-2.94218 -1.20862,-2.81675 -2.952429,0.20878 -2.564225,-1.85303 1.13351,-6.02022 2.1499,-2.42284 3.72862,-2.62449 8.18415,-1.04543 3.03621,1.07612 6.16909,1.38872 6.96191,0.6948 0.79282,-0.69392 2.21752,-0.71413 3.16599,-0.0449 1.08714,0.76704 -1.34501,2.94378 -6.5807,5.88962 z m 18.70526,-51.10371 c -0.52269,-4.68614 0.20578,-7.06629 1.15346,-3.76872 0.42771,1.48826 0.42871,3.71214 0.002,4.94195 -0.5113,1.47436 -0.90496,1.07472 -1.15569,-1.17323 z m -20.56683,58.28812 c -1.36168,-0.41201 -1.23757,-1.2171 0.44474,-2.8851 1.28342,-1.27249 2.60822,-2.2305 2.944,-2.1289 0.33578,0.10159 0.13564,1.39989 -0.44475,2.88509 -0.58039,1.48521 -1.90518,2.44322 -2.94399,2.12891 z m -17.696312,30.98455 c -0.350493,-0.65336 -0.0064,-1.96987 0.764618,-2.92557 0.85206,-1.05613 1.101997,-0.59022 0.637263,1.18793 -0.420544,1.60906 -1.051391,2.391 -1.401886,1.73764 z m -2.711643,-2.41403 c 0.06164,-1.55611 0.87836,-4.27376 1.814939,-6.03922 0.936575,-1.76545 0.886143,-0.49227 -0.112072,2.8293 -0.998216,3.32156 -1.764507,4.76603 -1.702867,3.20992 z m 1.733441,-35.31891 c -3.134987,4.62673 -3.259086,4.65569 -3.774807,0.88092 -0.293288,-2.14671 -2.00625,-4.78362 -3.806581,-5.85981 -3.420063,-2.04442 -3.927241,-4.78168 -0.679345,-3.66642 5.21737,1.79151 8.889328,2.07779 9.303272,0.7253 0.253761,-0.82912 -1.585436,-2.1268 -4.087105,-2.88372 -3.032326,-0.91749 -4.317797,-2.12998 -3.856414,-3.63747 0.380642,-1.24368 1.414616,-2.04261 2.297719,-1.77541 0.883102,0.2672 1.441598,-0.13185 1.241105,-0.8868 -0.200498,-0.75493 1.518969,-1.64708 3.821039,-1.98256 2.302064,-0.33547 4.346316,-0.005 4.54278,0.73507 0.872283,3.28442 -2.04478,13.98701 -5.001663,18.3509 z M 126.6733,189.94854 c -0.36773,-0.11127 -0.88264,-1.00826 -1.14426,-1.99331 -0.26161,-0.98506 0.24689,-1.57239 1.12999,-1.30519 0.8831,0.2672 1.39802,1.16419 1.14426,1.9933 -0.25376,0.82912 -0.76226,1.41646 -1.12999,1.3052 z M 86.939141,309.14432 c -1.171331,-0.35441 -1.506475,-1.43981 -0.744763,-2.412 0.76171,-0.97219 1.880836,-1.20749 2.486949,-0.52289 1.685794,1.9041 0.645123,3.65722 -1.742186,2.93489 z M 141.10488,81.07769 c -7.98046,5.766504 -13.7452,6.176894 -12.11874,0.862739 0.5436,-1.776108 -0.088,-3.320807 -1.53712,-3.759264 -1.93888,-0.586643 -1.94896,-1.07906 -0.0476,-2.324856 1.85291,-1.214057 2.0074,-1.878921 0.66621,-2.867117 -0.96035,-0.707599 -1.08905,-1.665419 -0.286,-2.128515 0.80305,-0.46308 2.24692,0.345209 3.2086,1.796197 1.4443,2.179159 2.41715,2.325063 5.59152,0.838579 5.87346,-2.750424 5.47617,-0.480458 -0.79591,4.547504 -3.09367,2.480012 -5.32027,5.076938 -4.94798,5.770922 0.58663,1.093539 5.02952,-1.468546 14.49222,-8.357215 1.36954,-0.996994 2.69628,-1.380896 2.94831,-0.853122 0.25203,0.52779 -2.97605,3.441151 -7.17351,6.474148 z m -18.45465,51.65255 c -0.36773,-0.11126 -0.88264,-1.00825 -1.14426,-1.99331 -0.26161,-0.98505 0.24689,-1.57239 1.12999,-1.30519 0.8831,0.2672 1.39802,1.16419 1.14426,1.99331 -0.25376,0.82912 -0.76226,1.41645 -1.12999,1.30519 z m 1.91943,-47.184832 c -1.01529,-3.532807 -0.40451,-5.528436 1.15346,-3.768723 0.67706,0.764735 0.86948,2.534381 0.4276,3.932542 -0.69237,2.190764 -0.91088,2.168131 -1.58106,-0.163819 z"
         id="path3133"
         inkscape:connector-curvature="0" />
      <path
         style="fill:#492c31"
         d="m 401.98624,459.37084 c -1.35254,-0.40923 -1.61472,-1.45474 -0.66786,-2.66324 0.85733,-1.09425 2.0547,-1.42941 2.6608,-0.74481 1.73811,1.96317 0.45928,4.15002 -1.99294,3.40805 z m 1.51428,-13.85381 c -1.33781,1.23557 -2.35157,3.3762 -2.25281,4.75695 0.11442,1.59956 -0.32974,1.93521 -1.22408,0.92505 -0.77202,-0.87199 -2.46224,-0.80177 -3.75605,0.15604 -2.21532,1.63997 -9.08331,3.53715 -10.85945,2.99975 -0.4456,-0.13483 -0.029,-1.24215 0.92573,-2.46073 1.01895,-1.3005 1.00173,-2.02284 -0.0417,-1.74889 -0.97767,0.25669 -4.59989,-3.54503 -8.04936,-8.44827 -43.68244,-62.09216 -79.13396,-110.64168 -81.30004,-111.33736 -2.55052,-0.81915 -2.52775,-0.90367 0.43064,-1.59863 1.71796,-0.40356 3.38146,-1.57637 3.69665,-2.60621 0.3152,-1.02985 4.56027,-3.93946 9.43348,-6.4658 4.87322,-2.52635 8.6218,-3.81378 8.33018,-2.86095 -0.29162,0.95281 -1.33645,1.94406 -2.32184,2.20278 -0.98539,0.25872 -2.97689,1.73815 -4.42556,3.28765 -1.64218,1.75651 -0.45343,1.4382 3.1569,-0.84543 l 5.79083,-3.66271 4.09656,5.53274 c 2.25311,3.04303 3.73271,6.11268 3.288,6.82146 -0.44471,0.70879 0.51571,1.6894 2.13428,2.17913 1.61856,0.48972 3.14285,1.64348 3.38729,2.56388 0.24444,0.92041 6.34908,9.73713 13.56587,19.5927 32.3697,44.20561 56.39436,77.55716 58.10855,80.66755 2.10689,3.82293 1.44522,7.062 -2.11409,10.3493 z m -2.78085,-3.94409 c -3.30545,2.38477 -3.46062,4.2293 -0.28566,3.39571 1.05663,-0.27742 2.25054,-1.65807 2.65313,-3.06812 0.64269,-2.25089 0.35377,-2.29088 -2.36747,-0.32759 z M 333.11035,339.70576 c -2.76967,-0.83802 -1.8684,2.3078 1.51034,5.2717 3.55719,3.12045 3.56139,3.11825 1.6685,-0.87787 -1.04372,-2.2034 -2.47419,-4.18062 -3.17884,-4.39383 z m -35.82253,-16.79034 -5.60203,2.81939 0.44977,-4.18218 c 0.34905,-3.24567 0.89932,-3.83399 2.45733,-2.62723 1.10415,0.85524 3.20175,1.05671 4.66135,0.44771 5.17297,-2.15833 3.54943,0.76629 -1.96642,3.54231 z m -50.55203,-78.60953 c -2.11641,-2.8568 -6.36956,-8.55128 -9.45145,-12.65442 -4.85624,-6.46543 -13.39602,-18.65768 -27.41557,-39.14125 -4.49951,-6.57411 -3.29742,-8.25713 1.29429,-1.81211 22.38306,31.41731 38.30009,54.58224 38.80137,56.46976 0.34067,1.2827 -1.11222,-0.005 -3.22864,-2.86198 z M 179.96742,287.48 c -2.2996,0.81551 -3.27815,1.34999 -2.17458,1.18775 1.29901,-0.19097 1.40112,0.68417 0.28958,2.48198 -1.82558,2.9527 -2.88377,3.0204 -6.26577,0.40085 -3.24514,-2.51356 -2.06098,-3.74184 5.8692,-6.08788 7.6204,-2.2544 9.54031,-0.55688 2.28157,2.0173 z m -4.56425,18.12826 c -0.10294,-1.14628 0.49465,-3.18903 1.32798,-4.53946 0.83333,-1.35043 0.91755,-0.41256 0.18716,2.08414 -0.73038,2.49671 -1.41219,3.6016 -1.51513,2.45532 z m -5.47209,1.60715 c -0.1034,-1.16366 0.41565,-2.85959 1.15346,-3.76872 0.7378,-0.90914 0.8224,0.0429 0.188,2.11574 -0.6344,2.0728 -1.23806,2.81664 -1.34146,1.65298 z m 3.30583,-9.29407 c -0.41849,-0.12662 -2.68852,-2.31938 -5.04451,-4.8728 -3.14004,-3.40319 -4.20268,-6.35951 -3.98048,-11.07383 0.16671,-3.53718 0.7756,-5.89757 1.35308,-5.24532 0.57747,0.65226 0.78054,3.61212 0.45127,6.57748 -0.44169,3.97766 0.41787,6.22254 3.2777,8.56032 3.44949,2.8198 5.95183,6.66198 3.94294,6.05415 z m -27.6514,44.22824 c -2.94673,0.9819 -5.86981,1.63032 -6.49574,1.44093 -1.60535,-0.48573 5.90127,-4.79081 9.64069,-5.52898 5.16339,-1.01927 2.74388,2.1258 -3.14495,4.08805 z m 22.61544,-70.52394 c -2.17499,-0.5395 -10.8118,-8.17143 -9.83415,-8.68989 0.52531,-0.27859 3.22385,1.62987 5.99673,4.24105 2.7729,2.61116 4.49973,4.61315 3.83742,4.44884 z m -23.47685,59.47995 c -5.60057,1.62923 -6.14363,1.45346 -8.72047,-2.82245 -1.99251,-3.3063 -2.44132,-3.39896 -9.08179,-1.87514 -3.84213,0.88167 -6.89261,1.29893 -6.77885,0.92723 0.40819,-1.33368 13.75291,-4.22513 15.08091,-3.26763 2.70825,1.95265 9.31105,4.02193 8.99126,2.8178 -0.45917,-1.72894 4.57285,-3.63236 5.42134,-2.05068 1.37902,2.57066 -0.51824,4.99259 -4.9124,6.27087 z m -36.51515,4.78842 c -0.88995,-0.26927 -2.43775,-2.21997 -3.43955,-4.33488 -1.0018,-2.11491 -2.60871,-4.08349 -3.57092,-4.37463 -0.96221,-0.29113 -2.773309,-1.91204 -4.024659,-3.60202 -2.012541,-2.71797 -1.676076,-2.64588 2.914679,0.62456 5.05502,3.60119 11.35282,12.66499 8.12045,11.68697 z m -3.5559,3.07014 c -1.58687,0.11779 -3.41838,-0.38806 -4.07003,-1.12409 -0.651652,-0.73604 -1.791189,-0.59062 -2.532305,0.32316 -0.741117,0.91378 -1.181504,0.92682 -0.978638,0.029 0.202869,-0.89785 1.587989,-2.54256 3.078043,-3.6549 2.41001,-1.7991 2.96756,-1.67816 5.04867,1.09512 2.13114,2.83997 2.08255,3.13665 -0.54574,3.33174 z m 8.77412,-42.4584 c -2.97862,1.14753 -3.01593,1.07798 -0.39823,-0.74236 2.74921,-1.91181 4.23867,-2.33366 3.85894,-1.09294 -0.0958,0.31303 -1.65313,1.13892 -3.46071,1.8353 z m 7.39381,-20.23416 c -0.4984,-0.56296 -0.71439,-2.80703 -0.47997,-4.98681 0.23442,-2.17979 0.83401,-3.50266 1.33242,-2.93972 0.49841,0.56295 0.71439,2.80702 0.47997,4.98681 -0.23442,2.17979 -0.834,3.50266 -1.33242,2.93972 z m -8.24893,5.54741 c -4.02765,1.19152 -7.15589,1.65056 -6.95165,1.02008 0.46782,-1.4441 13.21921,-5.15397 13.82614,-4.02255 0.24668,0.45983 -2.84684,1.81094 -6.87449,3.00247 z m 4.73663,-20.64283 c -4.29787,0.8484 -5.70186,0.44756 -3.91385,-1.11734 2.24587,-1.96575 8.3154,-2.79468 7.78551,-1.06336 -0.25376,0.82912 -1.99601,1.81044 -3.87166,2.1807 z m 43.28685,-149.90664 c -0.93493,-1.41063 -1.59607,-2.90396 -1.46918,-3.31852 0.12688,-0.41456 0.99563,0.4004 1.93056,1.81103 0.93493,1.41063 1.59606,2.90396 1.46918,3.31852 -0.12688,0.41456 -0.99563,-0.40041 -1.93056,-1.81103 z M 93.759568,294.46256 c -1.678781,1.97665 -1.71554,0.95354 -0.149575,-4.16298 1.565965,-5.1165 2.169681,-5.94583 2.456494,-3.37446 0.209147,1.87508 0.276456,3.74842 0.149575,4.16298 -0.12688,0.41456 -1.232302,1.93307 -2.456494,3.37446 z M 145.58872,90.258039 c -0.36773,-0.111264 -0.88264,-1.008252 -1.14425,-1.993307 -0.26162,-0.985055 0.24688,-1.57239 1.12998,-1.30519 0.8831,0.267199 1.39802,1.164188 1.14426,1.993307 -0.25376,0.829118 -0.76225,1.416454 -1.12999,1.30519 z m -5.79129,-9.164169 c -7.36864,4.416943 -5.423,2.310156 3.36069,-3.639037 2.61333,-1.769999 4.56972,-2.660437 4.34753,-1.97875 -0.22223,0.681693 -3.6909,3.209708 -7.70822,5.617787 z m 0.21844,5.104324 c -3.12426,2.124904 -3.1466,2.097952 -0.56223,-0.67885 1.48019,-1.590412 3.00839,-2.795704 3.396,-2.678426 1.16019,0.35104 0.58587,1.031465 -2.83377,3.357276 z m -7.65088,-8.600115 c -1.82297,-0.704259 -3.15105,-1.814476 -2.9513,-2.467143 0.48146,-1.573065 2.20579,-0.933849 4.44455,1.647601 1.43134,1.650425 1.11165,1.82588 -1.49325,0.819542 z"
         id="path3131"
         inkscape:connector-curvature="0" />
      <path
         style="fill:#372328"
         d="m 405.46474,441.85926 c -0.3505,-0.65336 -0.006,-1.96987 0.76469,-2.92555 0.85205,-1.05613 1.10199,-0.59022 0.63725,1.18793 -0.42057,1.60905 -1.05139,2.391 -1.40188,1.73764 z m -4.88944,5.73085 c -3.25986,3.19059 -12.4939,6.84823 -13.33423,5.28175 -0.23024,-0.42918 3.52765,-2.75355 8.35087,-5.16525 4.82322,-2.41171 8.67154,-4.16245 8.55185,-3.89054 -0.11967,0.27192 -1.72552,1.97023 -3.56849,3.77404 z m -5.30665,-3.60995 c -1.70537,0.71154 -2.98755,0.68129 -2.84928,-0.0672 0.13828,-0.74851 -0.75669,0.18703 -1.9888,2.07898 -1.57502,2.41851 -3.06042,3.02052 -5.00258,2.02747 -3.82258,-1.95452 -17.66325,-20.63342 -16.223,-21.894 2.46202,-2.15487 7.78938,1.16628 9.81793,6.12062 l 2.11683,5.16998 0.25907,-4.03934 c 0.1425,-2.22163 -0.14866,-5.08919 -0.64702,-6.37235 -1.21264,-3.12232 4.42926,-1.49032 6.18913,1.79028 0.98445,1.83515 1.39366,1.94149 1.84142,0.47851 0.31663,-1.03453 -0.64894,-3.96878 -2.14572,-6.52056 -3.71118,-6.32697 -2.85277,-7.76726 1.37699,-2.31041 1.89712,2.4475 3.90443,4.5877 4.46068,4.75601 2.06993,0.62629 3.51436,5.3045 2.70694,8.76721 -0.70779,3.03546 -1.09543,3.184 -2.55657,0.97947 -1.39012,-2.09743 -2.07658,-2.28845 -3.55953,-0.9905 -1.0105,0.88443 -2.45315,0.91242 -3.20592,0.0622 -2.23251,-2.52162 -2.19263,0.32362 0.0461,3.28833 1.13274,1.50007 2.90123,2.41987 3.92996,2.044 1.02873,-0.37588 3.36974,0.22132 5.20223,1.32711 3.01488,1.81927 3.03687,2.13357 0.23113,3.30423 z m 3.69318,-15.17202 c -0.78468,-0.23742 -1.63829,-1.22839 -1.8969,-2.20216 -0.26963,-1.01526 0.41637,-1.08382 1.60801,-0.16079 2.31991,1.7969 2.46978,3.02282 0.28889,2.36295 z m -6.58285,-8.58012 c -0.93493,-1.41063 -1.628,-2.79961 -1.54015,-3.08662 0.0878,-0.28702 1.06362,0.17827 2.16838,1.03398 1.10477,0.85571 1.79784,2.24469 1.54016,3.08662 -0.27005,0.88234 -1.18859,0.44434 -2.16839,-1.03398 z m -7.57048,-5.1021 c -1.79162,-0.0706 -2.74064,-0.58079 -2.10892,-1.1337 0.63172,-0.5529 0.39662,-1.60818 -0.5224,-2.34505 -0.91905,-0.73688 -0.15974,-0.94104 1.68733,-0.45369 4.41253,1.16424 5.11653,4.09694 0.94399,3.93244 z m -8.02202,-8.90262 c -1.53159,0.10831 -2.27658,-0.68047 -1.8767,-1.98701 0.39988,-1.30653 1.46049,-1.54899 2.67178,-0.61077 1.10477,0.85571 1.94929,1.74986 1.87671,1.98701 -0.0726,0.23714 -1.27489,0.51199 -2.67179,0.61077 z m -8.78329,11.15235 c -3.5029,0.51047 -5.16938,4.6e-4 -7.78024,-2.38106 -1.8274,-1.66686 -2.83729,-3.46677 -2.24422,-3.99979 0.59308,-0.53302 0.26343,-1.88954 -0.73254,-3.01449 -3.68275,-4.15965 0.53493,-3.04442 5.37398,1.42097 2.7542,2.54153 5.91646,4.5567 7.02722,4.47816 4.13241,-0.29222 2.64471,2.8712 -1.6442,3.49621 z m 2.68184,-7.00573 c -2.39763,-0.72545 -6.5277,-6.56657 -5.58095,-7.89309 0.65567,-0.91865 0.45298,-1.89392 -0.45041,-2.16726 -0.90338,-0.27334 -1.87434,0.26052 -2.1577,1.18633 -0.28336,0.92583 -1.7306,0.94044 -3.21609,0.0325 -1.62675,-0.9943 -3.32409,-0.85544 -4.26788,0.34916 -1.26289,1.61186 -1.89428,1.50618 -3.25345,-0.54455 -0.92755,-1.39949 -1.84112,-2.03923 -2.03015,-1.42163 -0.18902,0.61761 -1.07831,0.0145 -1.97619,-1.34022 -0.89789,-1.35473 -1.02325,-3.24074 -0.27861,-4.19116 1.55273,-1.9818 -2.10674,-5.39613 -4.97613,-4.64277 -1.08425,0.28467 -1.25943,-0.0723 -0.40327,-0.82164 0.8501,-0.74405 0.15188,-2.24892 -1.59253,-3.43235 -3.97285,-2.69524 -10.13704,-12.07802 -9.02471,-13.73691 0.46717,-0.6967 -0.42458,-2.04542 -1.98168,-2.99714 -1.55708,-0.95172 -2.62544,-2.40224 -2.37413,-3.22336 0.25132,-0.82113 -0.61439,-1.41719 -1.92379,-1.3246 -2.43775,0.17238 -6.4439,-6.16252 -4.53676,-7.17393 0.58108,-0.30817 -0.77391,-2.05657 -3.01107,-3.88534 -2.23718,-1.82878 -3.56184,-3.99702 -2.9437,-4.81832 0.61815,-0.8213 0.88866,-2.78878 0.60106,-4.3722 -0.41906,-2.30739 0.0308,-2.54057 2.2657,-1.17452 1.5337,0.93744 2.97676,2.4131 3.2068,3.27925 0.65106,2.45144 3.20013,2.6717 3.91432,0.33821 0.35349,-1.15498 -0.34744,-2.86688 -1.55762,-3.80424 -1.21019,-0.93736 -1.73491,-1.95111 -1.16605,-2.25279 1.08206,-0.57385 11.70551,9.18569 11.33095,10.40948 -0.11836,0.38673 -1.63465,-0.13925 -3.36952,-1.1689 -1.90886,-1.13283 -1.60717,-0.49781 0.76372,1.60952 5.53406,4.91743 8.01331,10.86715 5.93145,14.23437 -0.95919,1.55142 -1.5225,2.88774 -1.25183,2.96963 0.27068,0.0819 1.51543,0.94151 2.76612,1.91024 1.98426,1.53693 2.1742,1.26165 1.49083,-2.16063 -0.43072,-2.15706 -0.26415,-4.19717 0.37016,-4.53356 0.63433,-0.33641 0.40166,-2.19848 -0.51703,-4.13793 -1.59913,-3.37598 -1.49252,-3.39717 2.50062,-0.49729 2.29403,1.66597 4.25449,4.19681 4.3566,5.62412 0.13537,1.89256 -0.41355,2.13099 -2.02764,0.88079 -1.85214,-1.43459 -2.01524,-1.24511 -0.99965,1.16124 0.66749,1.58155 3.13663,3.45739 5.48699,4.16853 2.35034,0.71114 4.50061,2.14866 4.77835,3.19447 0.27776,1.04582 1.99524,3.04843 3.81665,4.45026 2.45544,1.8898 2.84356,3.22507 1.50119,5.16455 -2.08294,3.00949 1.49296,10.46232 5.61884,11.71068 1.48975,0.45075 2.49657,2.49736 2.37994,4.83782 -0.11116,2.23111 0.7353,4.3402 1.88102,4.68686 1.14573,0.34666 2.16443,1.76668 2.26379,3.15559 0.0994,1.38891 -0.0611,2.45214 -0.35656,2.36275 z m -16.14477,-18.06163 c -1.84517,-2.78399 -2.30289,-2.3901 -2.00829,1.72828 0.10476,1.46464 0.79975,2.84733 1.54443,3.07264 2.0972,0.63455 2.34775,-1.9585 0.46386,-4.80092 z m -10.58047,-11.43677 c -0.42771,-1.48826 -0.98527,-2.02755 -1.23903,-1.19843 -0.25376,0.82911 -0.11145,2.72515 0.31626,4.21341 0.42772,1.48826 0.98527,2.02756 1.23903,1.19844 0.25377,-0.82912 0.11146,-2.72516 -0.31626,-4.21342 z m -12.7049,-24.79255 c -1.1561,0.0562 -3.10912,-0.86957 -4.34002,-2.05739 -3.06776,-2.96033 -3.13662,-1.62763 -0.22404,4.33682 2.19741,4.49992 2.62508,4.77038 4.00281,2.5313 2.65277,-4.3113 2.72331,-4.91588 0.56125,-4.81073 z m 29.21801,33.08309 c -0.93493,-1.41063 -1.49225,-3.24314 -1.23849,-4.07226 0.25737,-0.84092 1.21302,-0.37342 2.16126,1.05728 0.93493,1.41063 1.49225,3.24314 1.23848,4.07226 -0.25737,0.84092 -1.21302,0.37342 -2.16125,-1.05728 z m -17.93857,-33.80073 c -1.06904,-1.88722 -1.40136,-3.71893 -0.73849,-4.07047 0.66288,-0.35154 1.53756,1.19255 1.94371,3.43129 0.70598,3.89133 0.65295,3.91946 -1.20522,0.63918 z M 327.04906,341.1136 c -2.19236,-0.74421 -5.5583,-5.90431 -5.01319,-7.68537 0.26808,-0.87589 -0.27273,-2.15344 -1.20181,-2.83896 -0.92908,-0.68553 -1.17233,-1.55099 -0.54058,-1.92322 0.63178,-0.37225 2.72969,2.38461 4.66206,6.12635 1.93236,3.74175 2.87444,6.58629 2.09352,6.3212 z m -9.25643,-1.10124 c -2.59896,-0.78637 -7.01984,-7.67177 -6.34387,-9.88039 0.65009,-2.12405 2.65612,-2.58177 4.62646,-1.05562 1.03275,0.79993 1.65678,2.1764 1.38671,3.0588 -0.27007,0.88241 0.25842,3.18658 1.17445,5.1204 1.54974,3.27169 1.49111,3.46326 -0.84375,2.75681 z m -8.38274,4.68026 c -2.98962,-3.5626 -4.78497,-8.69076 -3.91211,-11.17443 0.23475,-0.66795 1.27852,0.79303 2.31947,3.24662 1.04096,2.45361 2.12328,3.70757 2.40516,2.78659 0.28187,-0.92097 1.17336,-1.47453 1.98108,-1.23014 0.8077,0.24438 0.81191,1.28247 0.009,2.30684 -0.80259,1.02438 -0.86752,2.53085 -0.14432,3.34772 0.7232,0.81687 1.11477,2.13918 0.87014,2.93848 -0.24464,0.79931 -1.83255,-0.20046 -3.52872,-2.22168 z m -4.33792,-17.2398 c -2.61249,2.11881 -5.66814,3.60313 -6.79036,3.29848 -1.20856,-0.32812 0.67017,-2.41969 4.60846,-5.13053 9.51362,-6.54857 10.98836,-5.31031 2.1819,1.83205 z m -10.69737,-3.80931 c -1.53686,0.10867 -2.2641,-0.6902 -1.85251,-2.035 0.74624,-2.4382 3.28519,-2.27602 3.95678,0.25275 0.2342,0.88183 -0.71272,1.68385 -2.10427,1.78225 z m -54.5023,-89.81293 c -2.33824,-2.77933 -8.42005,-11.17953 -13.51513,-18.66712 -5.09509,-7.48758 -10.52397,-15.32392 -12.06417,-17.4141 -2.78524,-3.77978 -2.78154,-3.78013 0.68362,-0.0654 3.07794,3.29959 13.53226,17.95524 25.23461,35.37581 l 3.91243,5.82417 -4.25136,-5.05334 z m -93.68162,107.17727 c -2.97863,1.14753 -3.01593,1.07798 -0.39824,-0.74236 2.74922,-1.91181 4.23868,-2.33366 3.85894,-1.09294 -0.0958,0.31304 -1.65312,1.13892 -3.4607,1.8353 z m -39.88255,-8.29812 c -1.20895,-0.93639 -2.01268,-2.30833 -1.78606,-3.04874 0.59332,-1.93857 1.38766,-1.40077 2.77051,1.87574 1.01476,2.40435 0.85344,2.59656 -0.98445,1.173 z"
         id="path3129"
         inkscape:connector-curvature="0" />
    </g>
  </g>
</svg>
