<?xml version="1.0" encoding="UTF-8" standalone="no"?>
<svg
   xmlns:dc="http://purl.org/dc/elements/1.1/"
   xmlns:cc="http://creativecommons.org/ns#"
   xmlns:rdf="http://www.w3.org/1999/02/22-rdf-syntax-ns#"
   xmlns:svg="http://www.w3.org/2000/svg"
   xmlns="http://www.w3.org/2000/svg"
   xmlns:sodipodi="http://sodipodi.sourceforge.net/DTD/sodipodi-0.dtd"
   xmlns:inkscape="http://www.inkscape.org/namespaces/inkscape"
   viewBox="0 0 512 512"
   id="svg8438"
   version="1.1"
   inkscape:version="0.48.4 r9939"
   width="100%"
   height="100%"
   sodipodi:docname="nimble.svg"
   inkscape:export-filename="C:\Users\Chris\Documents\botgame\myedits\honed blade.svg.png"
   inkscape:export-xdpi="90"
   inkscape:export-ydpi="90">
  <metadata
     id="metadata8464">
    <rdf:RDF>
      <cc:Work
         rdf:about="">
        <dc:format>image/svg+xml</dc:format>
        <dc:type
           rdf:resource="http://purl.org/dc/dcmitype/StillImage" />
        <dc:title></dc:title>
      </cc:Work>
    </rdf:RDF>
  </metadata>
  <defs
     id="defs8462">
    <linearGradient
       id="linearGradient4077">
      <stop
         id="stop4079"
         offset="0"
         style="stop-color:#aa4400;stop-opacity:1;" />
      <stop
         style="stop-color:#ff9f00;stop-opacity:1;"
         offset="0.22752622"
         id="stop4081" />
      <stop
         style="stop-color:#803300;stop-opacity:1;"
         offset="0.4948855"
         id="stop4083" />
      <stop
         id="stop4085"
         offset="1"
         style="stop-color:#562200;stop-opacity:1;" />
    </linearGradient>
    <linearGradient
       id="linearGradient4057">
      <stop
         style="stop-color:#aa4400;stop-opacity:1;"
         offset="0"
         id="stop4059" />
      <stop
         id="stop4067"
         offset="0.22752622"
         style="stop-color:#ecd1a4;stop-opacity:1;" />
      <stop
         id="stop4065"
         offset="0.50136983"
         style="stop-color:#803300;stop-opacity:1;" />
      <stop
         style="stop-color:#562200;stop-opacity:1;"
         offset="1"
         id="stop4061" />
    </linearGradient>
    <linearGradient
       id="linearGradient3890">
      <stop
         style="stop-color:#701b1b;stop-opacity:1;"
         offset="0"
         id="stop3892" />
      <stop
         style="stop-color:#e31600;stop-opacity:1;"
         offset="1"
         id="stop3894" />
    </linearGradient>
    <linearGradient
       id="linearGradient3882">
      <stop
         style="stop-color:#600b0b;stop-opacity:1;"
         offset="0"
         id="stop3884" />
      <stop
         style="stop-color:#d11414;stop-opacity:1;"
         offset="1"
         id="stop3886" />
    </linearGradient>
    <linearGradient
       id="linearGradient3872">
      <stop
         style="stop-color:#800600;stop-opacity:1;"
         offset="0"
         id="stop3874" />
      <stop
         style="stop-color:#ff0004;stop-opacity:0;"
         offset="1"
         id="stop3876" />
    </linearGradient>
  </defs>
  <sodipodi:namedview
     pagecolor="#000000"
     bordercolor="#666666"
     borderopacity="1"
     objecttolerance="10"
     gridtolerance="10"
     guidetolerance="10"
     inkscape:pageopacity="0"
     inkscape:pageshadow="2"
     inkscape:window-width="1190"
     inkscape:window-height="1126"
     id="namedview8460"
     showgrid="false"
     inkscape:zoom="0.70710678"
     inkscape:cx="61.091834"
     inkscape:cy="455.09869"
     inkscape:window-x="160"
     inkscape:window-y="130"
     inkscape:window-maximized="0"
     inkscape:current-layer="g8466" />
  <g
     id="g8466">
    <g
       id="g5295"
       transform="translate(8,42)" />
    <rect
       style="fill:#000000;fill-opacity:1;fill-rule:nonzero;stroke:none"
       id="rect5374"
       width="516"
       height="515"
       x="-1.9851207"
       y="-0.13856962" />
    <path
       style="fill:#cab79c"
       d="m 239.90541,349.59947 c 1.01548,-2.59173 -6.85746,1.45409 -2.83038,-1.8717 -11.07786,2.14432 6.73831,-5.06493 0.59006,-5.7999 -0.29762,3.00467 -10.09291,-3.28371 -2.88228,2.20247 -0.20963,1.01129 -8.91477,-0.88229 -7.451,-0.79396 8.05434,-3.40608 -7.19554,-4.68784 -5.14363,-2.86429 1.46839,-3.99049 -5.20351,-8.98917 -3.82559,-3.08264 -5.1761,-5.59164 4.63684,-2.72558 3.79165,-3.69577 -8.37849,-4.18631 0.53239,-12.44447 2.37735,-19.11831 1.81373,-7.13189 -5.27974,10.79939 -3.57365,2.01136 0.2562,-10.22256 0.12679,-20.36231 3.11074,-29.81108 3.20273,-8.90154 12.25662,-13.78431 16.96003,-21.20028 0.99594,-6.07167 7.34318,-16.18717 10.45061,-17 -0.95963,-4.87166 10.05648,-16.43092 12.20763,-14.95669 -3.42665,-6.63443 9.51847,-13.13413 12.27466,-20.03533 8.34073,-11.77787 84.70394,-81.65616 96.27691,-80.87417 16.34374,1.10436 19.88933,17.99019 21.22115,19.44471 8.02105,8.76004 -70.75009,78.97762 -74.29161,74.94389 1.61227,-1.64072 -26.29954,61.38498 -24.99433,69.09634 -1.37243,11.56283 -6.63633,22.98713 -13.49106,32.56389 -3.24772,2.96809 -7.84955,12.17084 -11.15626,14.38263 1.12991,-4.09761 -1.69991,-3.74525 -2.60002,0.46527 -3.51993,4.47402 -15.71148,1.29649 -20.50592,-1.64737 -0.12722,-2.37264 9.3275,1.60284 4.58802,-2.09735 -7.41846,-0.0167 -4.42847,-7.06867 -12.779,-1.90405 -6.16794,4.98552 11.94964,-3.6819 5.622,5.00934 2.7294,5.42244 -10.2379,0.54271 -2.06482,4.81066 4.62982,0.23665 12.2849,2.07919 3.15841,1.85091 -0.57274,-0.89798 -6.54051,2.22843 -5.03967,-0.0288 z"
       id="path5711"
       inkscape:connector-curvature="0"
       sodipodi:nodetypes="cccccccccccccccssccccccccccccc" />
    <path
       style="fill:#cab79c"
       d="m 256.35179,343.17756 c 2.72077,-1.63094 9.86374,-1.54452 2.39326,-3.07526 -2.72915,0.54999 -17.34851,-2.96504 -8.38907,-0.026 7.64522,-0.60528 -0.85121,7.50313 5.99581,3.10128 z"
       id="path5709" />
    <path
       style="fill:#cab79c"
       d="m 383.37853,154.42963 c 3.14566,0.66412 9.06578,-8.69282 1.31638,-3.43811 -3.65426,2.40295 -6.91794,14.76783 -1.31638,3.43811 z"
       id="path5689" />
    <path
       style="fill:#cab79c"
       d="m 318.7561,186.01032 c -212.50407,217.32645 -106.25203,108.66323 0,0 z"
       id="path5685" />
    <path
       style="fill:#cab79c"
       d="m 404.1221,142.38604 c -3.39373,-2.18578 0.55718,-7.71688 -4.79692,-8.54539 6.0233,4.36327 4.28137,-8.70515 6.2026,-0.57902 3.61491,-3.78307 -1.91143,6.80759 -2.1944,6.03018 2.28873,-0.32217 1.15917,6.61146 0.78872,3.09423 z"
       id="path5677" />
    <path
       style="fill:#cab79c"
       d="m 373.17973,140.49703 c -3.88881,-8.3597 1.04444,-4.18281 4.72001,-1.22285 -3.01003,-0.0829 -2.35538,1.09157 -4.68963,2.79269 l -0.0304,-1.56984 0,0 z"
       id="path5675" />
    <path
       style="fill:#cab79c"
       d="m 238.0061,346.63788 c -3.2509,0.28057 -8.85017,-6.15735 -2.25,-2.1192 -0.18486,-5.64512 7.18906,4.60987 2.25,2.1192 z"
       id="path5673" />
    <path
       style="fill:#cab79c"
       d="m 289.14305,296.82721 c -192.762033,143.44853 -96.38102,71.72426 0,0 z"
       id="path5665" />
    <path
       style="fill:#cab79c"
       d="m 371.68097,180.23114 c 0.5248,-7.92206 11.74155,-11.49302 14.39559,-18.97571 -3.50874,7.43893 -10.10041,8.67316 -11.49803,17.41805 -0.60467,0.58397 -1.7215,2.58732 -2.89756,1.55766 z"
       id="path5645" />
    <path
       style="fill:#cab79c"
       d="m 385.0061,158.0415 c 0.31221,-7.33519 10.40288,-0.11789 4.21834,-0.49651 0.0369,2.14417 -3.51282,2.20706 -4.21834,0.49651 z"
       id="path5639" />
    <path
       style="fill:#cab79c"
       d="m 357.93842,142.55487 c -5.72732,2.3418 8.87977,-10.42215 2.95949,-5.18515 -0.8205,16.0443 -1.08191,5.30137 -2.95949,5.18515 z"
       id="path5637" />
    <path
       style="fill:#cab79c"
       d="m 389.91821,142.64837 c -2.25917,-3.07013 -15.96409,-0.0334 -7.97924,-5.13303 3.40862,-0.49748 17.19921,11.06126 7.97924,5.13303 z"
       id="path5635" />
    <path
       style="fill:#bb6932;fill-opacity:1"
       d="m 404.2561,139.89723 c 1.53522,-5.79722 1.70284,-11.24541 -4.44785,-5.17096 -6.91024,4.46752 -19.46816,4.62957 -14.8894,-5.67526 2.87792,-11.41039 14.1607,-17.4952 19.51409,-27.51548 3.40362,-5.595871 1.29042,10.48068 4.78228,4.48722 1.63569,-7.097426 6.69896,4.73686 1.6223,7.78287 -4.34839,8.68183 3.2838,18.51243 -6.58142,26.09161 z"
       id="path5633" />
    <path
       style="fill:#cab79c"
       d="m 377.91958,128.79776 c 0.0462,-11.44008 5.99446,1.28958 -0.39495,1.25873 0.13165,-0.41957 0.2633,-0.83915 0.39495,-1.25873 z"
       id="path5631" />
    <path
       style="fill:#cab79c"
       d="m 397.54585,91.51086 c -3.49695,-5.577445 5.73487,-10.334424 2.08068,-2.019293 0.16446,1.233948 -1.95995,6.76485 -2.08068,2.019293 z"
       id="path5629" />
    <path
       style="fill:#cab79c"
       d="m 405.63639,91.386089 c -3.327,-4.411589 3.85976,-16.286359 1.22613,-5.095111 -0.0968,0.760922 0.62736,10.881804 -1.22613,5.095111 z"
       id="path5405" />
    <path
       inkscape:connector-curvature="0"
       id="path5403"
       d="m 193.22258,447.90237 c 2.59406,-0.20525 7.09406,-0.20738 10,-0.005 2.90594,0.20264 0.78352,0.37057 -4.71648,0.37317 -5.5,0.003 -7.87758,-0.16319 -5.28352,-0.36844 z m 21.28352,-1.33227 c -4.78607,-0.71956 -4.71209,-0.74296 1.72903,-0.54683 3.70097,0.11269 6.17597,-0.14645 5.5,-0.57586 -0.67597,-0.42941 -2.60153,-0.78764 -4.27903,-0.79606 -1.6775,-0.008 -3.4775,-0.44073 -4,-0.96069 -4.01541,-3.99589 -16.54939,-8.83691 -20.07684,-7.75431 -3.68173,1.12995 -3.68173,1.12995 -0.8902,2.27099 1.74236,0.71219 2.36074,1.40727 1.64533,1.84941 -2.12859,1.31554 -5.12829,-0.43229 -5.12829,-2.9881 0,-2.75971 -2.09447,-3.22864 -4.02594,-0.90135 -2.50593,3.01946 6.15397,7.21026 10.15109,4.91242 4.54716,-2.61404 5.151,-2.75231 6.99375,-1.6015 1.01968,0.6368 2.48692,1.15782 3.26054,1.15782 3.63169,0 2.37591,2.93742 -1.6796,3.9288 l -4.19984,1.02665 4,-0.44938 c 2.56883,-0.2886 3.49122,-0.13204 2.57801,0.43759 -0.7821,0.48783 -5.42118,0.85556 -10.30907,0.81718 -4.88789,-0.0384 -8.36598,-0.39185 -7.72909,-0.78547 0.66013,-0.40798 -0.43324,-1.01419 -2.54312,-1.41 -2.0356,-0.38189 -3.95511,-0.44032 -4.26558,-0.12985 -0.31047,0.31046 0.52302,0.60001 1.85218,0.64343 1.32917,0.0434 1.85809,0.30461 1.17539,0.58043 -3.11747,1.25945 -8.25872,-1.72614 -8.25872,-4.79595 0,-1.6398 -0.40775,-2.72946 -0.90612,-2.42145 -0.49837,0.30801 -0.67088,1.45956 -0.38337,2.55902 0.36347,1.38989 0.0302,1.999 -1.09388,1.999 -1.12929,0 -1.65768,-0.97973 -1.75281,-3.25 -0.11419,-2.72505 -0.20863,-2.84619 -0.58468,-0.75 -0.54746,3.05166 -2.27914,5.12696 -2.27914,2.73138 0,-1.00115 -0.54744,-1.45854 -1.36858,-1.14344 -0.81673,0.31341 -1.58965,-0.32019 -1.91682,-1.57131 -0.44179,-1.68942 -1.05233,-1.96997 -3.14441,-1.44489 -1.48221,0.37201 -3.20108,0.14956 -4.00598,-0.51845 -1.13445,-0.94151 -1.49775,-0.71917 -1.86006,1.13834 -0.45025,2.30837 -0.45025,2.30837 -1.19934,0.0373 -0.59103,-1.79184 -1.03984,-2.02977 -2.12695,-1.12755 -1.11298,0.92369 -1.40404,0.59132 -1.51404,-1.72893 -0.11182,-2.35843 -0.21373,-2.46982 -0.56955,-0.62244 -0.48066,2.49552 -0.48461,2.49792 -2.70674,1.64522 -0.86682,-0.33264 -1.38332,-0.91662 -1.14777,-1.29775 0.23555,-0.38113 0.0389,-1.32301 -0.43704,-2.09306 -0.67211,-1.0875 -1.13657,-0.80475 -2.08024,1.26639 -1.21087,2.65755 -3.314,2.91307 -2.30355,0.27986 0.29238,-0.76191 -0.19154,-2.66 -1.07536,-4.21798 -1.60694,-2.83269 -1.60694,-2.83269 -1.29796,1.42641 0.18918,2.60783 -0.0893,4.1163 -0.71832,3.89078 -0.56501,-0.20257 -0.94673,-1.52629 -0.84827,-2.9416 0.13736,-1.97438 -0.26717,-2.53968 -1.73809,-2.42888 -1.26267,0.0951 -1.57981,0.48172 -0.92902,1.13251 1.51177,1.51177 1.17997,2.44143 -0.76191,2.1347 -1.22964,-0.19423 -1.66791,-1.03762 -1.47393,-2.83638 0.15184,-1.40799 -0.14369,-2.8194 -0.65674,-3.13648 -0.51961,-0.32113 -0.71421,0.42078 -0.43932,1.67487 0.40141,1.83131 0.2873,1.97151 -0.61156,0.75138 -0.96833,-1.31442 -1.23264,-1.28349 -2.13644,0.25 -1.4358,2.43617 -2.92614,2.18463 -2.96242,-0.5 -0.0278,-2.05384 -0.12197,-2.0926 -1.08072,-0.44455 -0.82966,1.42616 -1.34848,1.558 -2.46959,0.62756 -1.15603,-0.95942 -1.43392,-0.73785 -1.49823,1.19455 -0.0434,1.30484 -0.30592,1.80994 -0.58333,1.12244 -0.77285,-1.91532 -2.33772,-1.48489 -2.33772,0.64301 0,1.04116 -0.675,2.15203 -1.5,2.46862 -0.90455,0.3471 -1.5,0.005 -1.5,-0.86163 0,-0.86424 -0.59573,-1.20863 -1.49426,-0.86383 -0.82184,0.31537 -1.24528,0.97625 -0.94098,1.46861 1.36092,2.20201 -11.18938,0.92405 -13.30472,-1.35478 -2.354771,-2.53677 -4.024247,-9.62912 -1.83987,-7.81625 0.695115,0.57689 1.63164,0.7153 2.08117,0.30757 0.44952,-0.40772 0.53474,0.0462 0.18937,1.00868 -0.34537,0.9625 -0.24455,1.75 0.22404,1.75 0.46859,0 1.11162,0.99285 1.42895,2.20633 0.31733,1.21348 0.86467,1.91863 1.2163,1.567 0.35163,-0.35163 0.13224,-2.1758 -0.48752,-4.05371 -1.20463,-3.65007 -0.70484,-6.26299 1.34871,-7.05101 0.88313,-0.33888 1.13875,0.31886 0.84439,2.17269 -0.33193,2.09042 -0.19496,2.33809 0.64081,1.1587 0.58464,-0.825 1.06987,-2.27167 1.07829,-3.21482 0.0158,-1.76998 3.7367,-4.39713 4.76763,-3.3662 0.31956,0.31956 0.056,0.58102 -0.58565,0.58102 -0.64166,0 -1.16666,0.525 -1.16666,1.16667 0,0.64166 0.29609,0.87057 0.65799,0.50867 0.36189,-0.36189 1.14939,-0.26344 1.75,0.21879 1.34953,1.08354 15.52297,3.50824 16.25108,2.78013 0.52256,-0.52256 -6.108,-2.65791 -8.28662,-2.66868 -2.12601,-0.0105 -3.59868,-2.70479 -1.84604,-3.37734 0.88379,-0.33914 1.31677,-0.18352 0.98463,0.3539 -0.73472,1.18879 3.91911,2.45051 6.03866,1.63716 0.8548,-0.32801 1.31546,-0.21014 1.0237,0.26194 -0.29177,0.47209 1.37236,0.88909 3.69806,0.92668 19.86271,0.32101 28.00961,-0.31665 25.57937,-2.00209 -0.93869,-0.65101 -0.66937,-0.74534 0.88273,-0.30917 2.77865,0.78086 17.38515,-0.57781 15.04536,-1.39949 -0.93527,-0.32844 3.32407,-0.6354 9.4652,-0.68213 6.14113,-0.0467 10.28598,0.25914 9.21079,0.67971 -1.6005,0.62605 -1.41103,0.77854 1.04509,0.84113 1.65,0.042 4.28434,0.74628 5.85408,1.56497 1.56974,0.8187 3.21663,1.26446 3.65976,0.9906 1.61087,-0.99557 3.98616,0.77756 3.98616,2.97564 0,2.69033 6.45712,3.75519 16.98313,2.80072 6.82746,-0.61909 8.404,0.34155 7.36359,4.48687 -0.31353,1.24921 -0.0912,2.84832 0.49415,3.55359 0.76061,0.91647 0.66234,2.41052 -0.34444,5.23701 -0.77475,2.1751 -1.4284,4.74222 -1.45254,5.70472 -0.0241,0.9625 -0.52045,1.75 -1.10291,1.75 -0.58246,0 -0.80012,-0.41891 -0.48369,-0.9309 0.31644,-0.512 0.16915,-1.18194 -0.32729,-1.48875 -0.49644,-0.30682 -1.13665,0.33708 -1.42269,1.4309 -0.55939,2.13911 -1.53227,2.22707 -10.20731,0.92281 z m -67.13837,-19.43406 c 0.36128,-0.94149 1.89047,-1.5 4.10698,-1.5 1.94227,0 3.53139,-0.48652 3.53139,-1.08116 0,-0.74028 -3.11787,-0.90213 -9.88864,-0.51335 -8.03072,0.46113 -10.12044,0.28849 -11.12244,-0.91884 -0.67859,-0.81766 -1.74121,-1.47976 -2.36136,-1.47134 -0.67922,0.009 -0.59692,0.35168 0.20698,0.86127 1.00559,0.63743 0.75911,1.04282 -1,1.64467 -2.03857,0.69747 -1.82908,0.85128 1.65248,1.21324 2.19287,0.22797 4.29607,0.91454 4.67379,1.5257 0.50199,0.81224 1.05408,0.80636 2.05203,-0.0219 1.0258,-0.85133 1.9772,-0.79756 3.82622,0.21625 3.27726,1.79692 3.64896,1.80083 4.32257,0.0454 z m 193.5181,15.57161 c -1.44115,-0.31439 -3.8249,-2.01183 -5.29723,-3.7721 -1.47233,-1.76027 -3.21821,-2.99759 -3.87973,-2.74961 -2.46181,0.92286 -4.87063,-7.71009 -2.55128,-9.14353 0.80278,-0.49614 0.6158,-1.10336 -0.61743,-2.00512 -1.4667,-1.07248 -2.17599,-1.02675 -4.15149,0.26765 -1.31041,0.85862 -2.38554,1.17187 -2.38916,0.69611 -0.004,-0.47576 -0.90066,0.48499 -1.99341,2.13499 -2.20335,3.32695 -2.70596,6.01377 -0.60795,3.25 1.69554,-2.23359 2.25611,-2.20346 2.87271,0.15444 0.55295,2.11447 -0.55886,2.431 -14.26476,4.0612 -4.125,0.49064 -7.63906,0.92408 -7.80902,0.96321 -0.16996,0.0391 0.0121,0.59068 0.40451,1.22566 0.45139,0.73036 0.27329,0.88242 -0.48479,0.41391 -0.65907,-0.40733 -1.9661,-0.19527 -2.9045,0.47125 -0.93841,0.66651 0.76807,-1.05445 3.79217,-3.82435 4.85499,-4.44688 5.63968,-5.71951 6.70591,-10.87576 0.66414,-3.21176 1.032,-4.16031 0.81747,-2.10788 -0.21453,2.05242 0.0303,3.99148 0.54409,4.30901 1.00757,0.62271 1.21022,-0.36802 1.03106,-5.04069 l -0.11503,-3 1.42785,3 c 1.60398,3.37008 2.10031,1.97168 0.65212,-1.83734 -1.05998,-2.78797 1.31665,-3.25675 3.00282,-0.59229 0.68592,1.08389 0.90842,1.11306 0.92003,0.12061 0.008,-0.71996 0.46016,-1.03408 1.00386,-0.69806 0.58718,0.3629 0.72119,-0.0858 0.33006,-1.10503 -0.42579,-1.10959 -0.2718,-1.477 0.43577,-1.03969 0.60184,0.37196 1.30111,-0.11672 1.55394,-1.08596 0.31796,-1.21895 0.50016,-0.99151 0.59099,0.73776 0.15977,3.04177 1.0459,4.44119 3.35069,5.29156 2.15987,0.7969 2.18829,0.30699 0.16162,-2.7861 -1.11096,-1.69555 -1.37619,-3.41324 -0.8824,-5.71482 0.94833,-4.42031 1.16694,-4.68286 3.41056,-4.09614 1.79499,0.4694 1.73965,0.67815 -0.751,2.83282 -2.57312,2.22601 -2.60275,2.35835 -0.68878,3.07643 1.1,0.4127 2.30658,1.20972 2.68129,1.77115 0.37471,0.56144 0.99943,-0.30574 1.38826,-1.92705 1.06313,-4.43293 1.5036,-4.78843 3.10328,-2.50456 0.80521,1.14959 1.89437,1.82419 2.42037,1.49911 0.52599,-0.32508 0.8327,-0.0141 0.68158,0.69104 -0.70105,3.27106 6.59816,1.50489 7.56084,-1.82948 0.69512,-2.40762 1.56927,-3.27103 3.54357,-3.5 2.39337,-0.27758 2.64507,-0.73788 2.90036,-5.30396 0.3712,-6.63933 0.93873,-8.18172 2.45323,-6.66722 0.64197,0.64197 1.97722,1.16722 2.96722,1.16722 1.38227,0 1.8,0.79327 1.8,3.41821 0,1.88002 0.26745,4.24252 0.59433,5.25 0.50573,1.5587 0.41913,1.60816 -0.58088,0.33179 -0.9537,-1.21727 -1.06214,-0.98166 -0.57528,1.25 0.40735,1.86721 0.19255,2.75492 -0.66912,2.76531 -0.87136,0.0105 -0.79899,0.31909 0.23095,0.98469 1.21813,0.78721 1.08603,0.97225 -0.70295,0.98469 -3.35613,0.0233 -7.07031,2.04026 -7.61868,4.13721 -0.27012,1.03295 -0.0902,1.8781 0.39992,1.8781 0.49207,0 0.61024,2.68656 0.26392,6 -0.43878,4.19806 -0.28402,6 0.51533,6 1.86761,0 1.2963,1.9898 -0.60754,2.116 -1.66667,0.11048 -1.66667,0.13778 0,0.57333 2.83123,0.73987 2.00171,2.0724 -1,1.60639 -2.39386,-0.37165 -2.54273,-0.25644 -1.14953,0.88957 1.08987,0.89651 1.35156,1.95427 0.82028,3.31561 -0.59314,1.51984 -0.79703,1.60752 -0.85046,0.36573 -0.0719,-1.67177 -4.07029,-3.41344 -4.07029,-1.77301 0,0.49851 0,1.24388 0,1.65638 0,0.4125 0.4275,0.75 0.95,0.75 1.41214,0 3.35609,2.20585 2.38713,2.70874 -0.46042,0.23896 -2.01625,0.17725 -3.4574,-0.13713 z M 98.149498,438.56544 c -1.925089,-0.771 -2.236225,-1.42343 -1.699203,-3.56309 0.540163,-2.15218 0.365943,-2.50743 -0.976961,-1.99211 -1.021503,0.39199 -1.485842,0.18161 -1.238297,-0.56102 0.73211,-2.19633 2.417315,-1.88498 3.577307,0.66092 0.890446,1.95432 0.872867,2.53496 -0.07769,2.56594 -0.675708,0.022 0.04292,0.72919 1.59695,1.5715 2.223136,1.20497 3.483566,1.30207 5.912156,0.45545 3.34389,-1.16568 5.11673,-0.53521 2.73337,0.97207 -1.85858,1.17541 -6.75544,1.12077 -9.827632,-0.10966 z M 354.4479,429.54187 c -0.37193,-0.60179 -1.71688,-0.89524 -2.98878,-0.6521 -2.40462,0.45967 -4.64401,-3.83811 -2.68807,-5.15887 1.9508,-1.3173 2.25119,-4.41954 0.60417,-6.23948 -1.58343,-1.74967 -1.56265,-1.85538 0.36478,-1.85538 1.33279,0 1.99556,0.60884 1.90499,1.75 -0.0772,0.97223 0.45015,1.62773 1.18647,1.47488 0.90985,-0.18887 1.12386,0.35977 0.68261,1.75 -0.35351,1.11382 -0.20455,2.02512 0.33102,2.02512 0.53558,0 0.72001,0.97037 0.40987,2.15637 -0.31015,1.18601 -0.15552,1.90419 0.34362,1.59596 0.49913,-0.30823 0.97242,0.52141 1.05173,1.84363 0.15792,2.63251 -0.16653,2.98596 -1.20241,1.30987 z m 39.64188,-284.305 c -1.79847,-2.16703 -0.0533,-10.31813 1.94474,-9.08326 0.48962,0.3026 1.7973,-0.0163 2.90594,-0.70865 3.25556,-2.03313 4.53317,0.13637 2.68507,4.55948 -1.47715,3.53533 -1.45909,3.63119 0.6816,3.61629 2.19615,-0.0153 6.19187,-1.94038 4.08764,-1.96938 -0.66113,-0.009 -0.90622,-1.08827 -0.60501,-2.66394 0.38165,-1.99645 0.18634,-2.45086 -0.79318,-1.84549 -0.83864,0.51831 -1.05602,0.40919 -0.61296,-0.3077 0.37759,-0.61096 1.34712,-0.85734 2.15451,-0.54752 0.99614,0.38226 1.46797,-0.0949 1.46797,-1.48465 0,-1.12639 0.45,-2.32609 1,-2.66601 0.55,-0.33992 1,-2.58992 1,-5 0,-2.41008 0.43035,-4.64794 0.95633,-4.97301 1.46092,-0.9029 0.0746,-3.47611 -1.53909,-2.85686 -0.77948,0.29912 -1.41724,0.076 -1.41724,-0.49575 0,-0.57178 0.9,-1.32525 2,-1.67438 1.1,-0.34913 2.03656,-0.94195 2.08124,-1.31739 0.49206,-4.13442 0.80432,-6.10823 1.34186,-8.48198 0.80436,-3.55205 -0.11199,-5.20372 -2.01213,-3.62675 -1.0845,0.90006 -1.41097,0.88654 -1.41097,-0.0584 0,-0.68198 -0.66793,-0.97312 -1.5,-0.65383 -0.93317,0.3581 -1.5,-0.006 -1.5,-0.96443 0,-1.89485 2.5127,-4.551153 3.43381,-3.630053 0.36954,0.369546 0.39243,-0.05636 0.0509,-0.946468 -0.34157,-0.890103 -0.14035,-1.915444 0.44715,-2.278536 0.58746,-0.363093 1.06814,-1.997733 1.06814,-3.632536 0,-3.124974 2.61907,-5.143995 3.92717,-3.027432 1.035,1.674657 0.45129,17.944725 -0.69604,19.401115 -0.52718,0.66919 -0.96808,1.89172 -0.97977,2.71672 -0.0117,0.825 -0.48022,4.20192 -1.04117,7.50427 -0.56095,3.30235 -0.78156,8.11894 -0.49023,10.70354 0.29132,2.5846 0.16172,5.50768 -0.28799,6.49573 -0.84044,1.84649 -1.11607,2.8964 -1.31662,5.01507 -0.0647,0.68354 -0.80692,0.95324 -1.69037,0.61423 -1.13775,-0.4366 -1.48478,-0.0874 -1.25,1.25766 0.19392,1.11099 -0.28001,1.89314 -1.17498,1.93913 -0.825,0.0424 -2.625,0.38589 -4,0.76332 -5.17373,1.42016 -7.91466,1.5148 -8.91632,0.30788 z m -20.44531,-10.10083 c 0.36449,-0.94984 -0.0138,-1.5 -1.03138,-1.5 -0.88385,0 -1.60699,-0.43166 -1.60699,-0.95924 0,-1.59871 5.4169,-10.04076 6.44272,-10.04076 0.5265,0 0.41728,0.54 -0.24272,1.2 -1.8689,1.8689 -1.60017,4.377 0.3,2.8 1.67184,-1.38751 1.9702,-0.29195 0.53747,1.97361 -0.59375,0.93889 -0.55555,1.7062 0.10526,2.1146 0.62076,0.38365 -0.0209,1.69904 -1.59824,3.27639 -3.00022,3.00022 -3.73133,3.28586 -2.90612,1.1354 z m 6.36163,-2.36514 c 0,-0.47583 0.9,-2.00931 2,-3.40773 2.88662,-3.66974 2.39758,-4.79992 -0.531,-1.22713 -2.57959,3.14704 -3.43552,2.36866 -1.12986,-1.02749 1.46258,-2.15434 1.59565,-9.15097 0.21649,-11.3825 -0.62924,-1.01812 -0.50405,-1.17617 0.4598,-0.58047 0.96971,0.59931 1.14808,0.35895 0.66596,-0.89743 -0.44044,-1.14778 -0.27899,-1.48145 0.48759,-1.00768 0.77953,0.48178 0.9656,0.0182 0.5818,-1.44944 -0.31034,-1.18676 -0.15623,-1.90557 0.34248,-1.59735 0.79224,0.48963 1.4099,-2.52457 1.00038,-4.88197 -0.0788,-0.45338 0.3253,-0.53479 0.8979,-0.1809 0.57259,0.35388 0.72236,1.17483 0.33281,1.82433 -0.39168,0.65306 0.0581,0.55907 1.00627,-0.21028 0.95438,-0.77439 1.47563,-2.1439 1.17569,-3.08894 -0.29637,-0.93377 0.17146,-3.39777 1.03962,-5.475553 0.86815,-2.077787 1.35638,-4.356524 1.08495,-5.063862 -0.27143,-0.707337 0.13627,-2.117307 0.906,-3.133267 1.62048,-2.138851 1.53995,-2.292625 2.0801,3.971862 0.26474,3.070298 0.0509,4.59371 -0.58927,4.198062 -0.56998,-0.352265 -0.76387,0.0069 -0.44805,0.829864 0.30621,0.797974 -0.82395,5.571954 -2.51146,10.608834 -3.2419,9.67644 -3.61713,11.50147 -2.18237,10.61474 0.4872,-0.30111 1.67558,-3.46505 2.64083,-7.03099 0.96526,-3.56594 2.09083,-6.27598 2.50127,-6.02231 0.41044,0.25367 0.6959,-0.0964 0.63434,-0.77802 -0.23512,-2.60333 1.55609,-9.739241 2.44468,-9.739241 0.51213,0 0.66865,-1.045891 0.34782,-2.324203 -0.38328,-1.527111 0.003,-2.810494 1.12519,-3.742158 1.54294,-1.280523 1.63956,-1.200639 0.9969,0.824203 -0.84974,2.677291 0.18248,2.927409 2.03109,0.492158 1.56665,-2.0638 1.82651,-7.863457 0.39205,-8.75 -0.55,-0.339919 -1.01431,-0.02898 -1.0318,0.690983 -0.0175,0.719959 -0.65268,2.128081 -1.41154,3.12916 -1.20453,1.589024 -1.30792,1.028277 -0.81425,-4.416063 0.48704,-5.37113 0.34972,-6.153411 -0.98993,-5.63934 -0.9733,0.373493 -1.72443,-0.04947 -2.00704,-1.130184 -0.60524,-2.314427 9.13836,-2.095941 12.77434,0.286446 2.79436,1.830934 3.22162,3.245665 0.98022,3.245665 -0.825,0 -1.5,-0.626558 -1.5,-1.392351 0,-0.765792 -0.47185,-1.10073 -1.04856,-0.744305 -0.71986,0.444896 -0.69022,1.079814 0.0945,2.025394 0.62871,0.757543 0.9292,1.954981 0.66776,2.660973 -0.27615,0.74572 -0.94734,0.09607 -1.6017,-1.550294 -0.61949,-1.558654 -0.87157,-3.246154 -0.56018,-3.75 0.31144,-0.503846 0.14214,-0.916084 -0.37617,-0.916084 -0.90638,0 -2.13363,3.225707 -2.162,5.682612 -0.008,0.650437 0.88635,1.468262 1.98635,1.817388 1.42466,0.45217 2.02022,1.550315 2.07029,3.817388 0.14939,6.76478 1.58553,7.53115 2.84709,1.519301 1.16263,-5.540376 3.58492,-8.260023 5.1301,-5.759861 1.00618,1.628023 -0.0898,5.120924 -1.44373,4.601359 -0.75091,-0.288153 -1.06217,0.958272 -0.92234,3.693442 0.19324,3.779656 0.14114,3.874967 -0.61685,1.128371 -0.70783,-2.564832 -0.84509,-2.664088 -0.94625,-0.684259 -0.14648,2.867163 -1.84844,6.171939 -4.27529,8.301554 -1.01366,0.889516 -1.84302,2.174746 -1.84302,2.856076 0,0.68134 -1.125,2.12371 -2.5,3.20529 -1.375,1.08157 -2.5,2.60369 -2.5,3.38249 0,2.26046 -3.14497,5.32045 -4.8111,4.6811 -0.97271,-0.37327 -1.26401,-0.1728 -0.8119,0.55873 0.39313,0.6361 -0.41917,2.1184 -1.83595,3.35028 -1.39758,1.21518 -2.54105,3.0017 -2.54105,3.97006 0,0.96836 -0.45,2.03876 -1,2.37868 -0.55,0.33992 -1,1.2847 -1,2.09951 0,0.81481 -0.98463,2.81325 -2.18806,4.44098 -2.14282,2.89833 -3.81194,3.81538 -3.81194,2.09437 z"
       style="fill:#da955b"
       sodipodi:nodetypes="cccccssscsssssssssscscssscccsssssssssssssssscscscsssscssssssscsscsscsssssssssssssssssssssssssssssssscscssscscsscsscsssscsssscsccsssssscssssccssssscscssscscssssssssssssssssssssssssscssssssssscsssssssssscssssssssscssssssscsssscssssssssssssssscssccssscssssssssccsssssssssssssssssssscssssssssscssssssscssscsssssssscsscscssssssssssssssssssss" />
    <path
       inkscape:connector-curvature="0"
       id="path5401"
       d="m 207.82331,448.11992 c -0.36789,-0.3679 -7.67727,-0.60924 -16.24305,-0.53632 -10.38275,0.0884 -15.57416,-0.2206 -15.57416,-0.92694 0,-0.67178 -2.01276,-0.89593 -5.5,-0.61249 -3.025,0.24586 -5.5,0.0797 -5.5,-0.36926 0,-1.1037 -4.35437,-1.82005 -18,-2.96121 -20.55399,-1.71891 -30.64867,-2.1065 -28.5,-1.09427 1.31162,0.6179 -1.614,0.73821 -8.5,0.34955 -12.7605,-0.72023 -18.798553,-2.80023 -7,-2.41137 3.46642,0.11424 6.96055,-1.29435 5.88319,-2.37171 -0.30738,-0.30738 -1.94787,-0.0747 -3.64552,0.51713 -2.4286,0.84662 -3.68903,0.74952 -5.912162,-0.45545 -1.554031,-0.84231 -2.315646,-1.54948 -1.692477,-1.5715 0.800366,-0.0283 0.717439,-1.24631 -0.282441,-4.14849 -1.42518,-4.13661 -0.661004,-6.89155 1.911609,-6.89155 0.559522,0 1.568851,-0.75427 2.242951,-1.67616 1.0683,-1.46099 1.21914,-1.30053 1.17508,1.25 -0.0278,1.60939 0.32339,4.23078 0.78044,5.82531 0.56998,1.98849 0.49525,2.69165 -0.23789,2.23854 -0.5879,-0.36335 -1.36979,-2.03052 -1.73753,-3.70483 -0.84729,-3.85768 -4.175899,-3.77388 -3.645823,0.0918 0.659044,4.80619 3.891283,6.97535 10.393903,6.97535 3.23658,0 5.63573,-0.40285 5.33143,-0.89522 -0.3043,-0.49236 0.11914,-1.15324 0.94098,-1.46861 0.89853,-0.34481 1.49426,-4.2e-4 1.49426,0.86382 0,0.8667 0.59545,1.20873 1.5,0.86163 0.825,-0.31659 1.5,-1.42746 1.5,-2.46862 0,-2.1279 1.56487,-2.55833 2.33772,-0.64301 0.27741,0.6875 0.53991,0.1824 0.58333,-1.12244 0.0643,-1.9324 0.3422,-2.15397 1.49823,-1.19455 1.12111,0.93044 1.63993,0.7986 2.46959,-0.62756 0.95875,-1.64805 1.05296,-1.60929 1.08072,0.44455 0.0363,2.68463 1.52662,2.93617 2.96242,0.5 0.90379,-1.53349 1.16811,-1.56442 2.13644,-0.25 0.89886,1.22013 1.01297,1.07993 0.61155,-0.75138 -0.27488,-1.25409 -0.0803,-1.996 0.43933,-1.67487 0.51305,0.31708 0.80858,1.72849 0.65674,3.13648 -0.19398,1.79876 0.24429,2.64215 1.47393,2.83638 1.94188,0.30673 2.27368,-0.62293 0.76191,-2.1347 -0.65079,-0.65079 -0.33366,-1.03739 0.92902,-1.13251 1.47092,-0.1108 1.87545,0.4545 1.73809,2.42888 -0.0985,1.41531 0.28326,2.73903 0.84827,2.9416 0.62901,0.22552 0.9075,-1.28295 0.71832,-3.89078 -0.30899,-4.2591 -0.30899,-4.2591 1.29796,-1.42642 0.88382,1.55798 1.36774,3.45607 1.07536,4.21798 -1.01045,2.63321 1.09268,2.37769 2.30355,-0.27986 0.94367,-2.07114 1.40813,-2.35389 2.08024,-1.26639 0.47592,0.77005 0.64345,1.75908 0.37228,2.19784 -0.27117,0.43876 -0.27828,0.79775 -0.0158,0.79775 0.26248,0 1.15323,0.2594 1.97945,0.57645 1.01612,0.38993 1.64569,-0.17635 1.9456,-1.75 0.38199,-2.0043 0.46225,-1.9287 0.57957,0.54599 0.11,2.32025 0.40106,2.65262 1.51404,1.72893 1.08711,-0.90222 1.53593,-0.66429 2.12695,1.12755 0.74909,2.27108 0.74909,2.27108 1.19934,-0.0373 0.36231,-1.85751 0.72562,-2.07985 1.86007,-1.13834 0.80489,0.66801 2.52376,0.89046 4.00598,0.51845 2.09207,-0.52508 2.70261,-0.24453 3.1444,1.44489 0.32718,1.25112 1.1001,1.88472 1.91683,1.57131 0.82113,-0.3151 1.36857,0.14229 1.36857,1.14344 0,2.39558 1.73168,0.32028 2.27914,-2.73138 0.37605,-2.09619 0.47049,-1.97505 0.58468,0.75 0.0951,2.27027 0.62352,3.25 1.75281,3.25 1.12403,0 1.45735,-0.60911 1.09388,-1.999 -0.28751,-1.09946 -0.115,-2.25101 0.38337,-2.55902 0.49837,-0.30801 0.90612,0.78622 0.90612,2.43162 0,3.01441 2.74168,5.02212 4.97404,3.64244 0.54557,-0.33718 2.61911,-0.30779 4.60787,0.0653 2.06859,0.38807 3.1204,0.98461 2.45794,1.39403 -0.63689,0.39362 2.8412,0.74708 7.72909,0.78547 4.88789,0.0384 9.52697,-0.32935 10.30907,-0.81718 0.91321,-0.56963 -0.009,-0.72619 -2.57801,-0.43759 l -4,0.44938 4.19984,-1.02665 c 4.05551,-0.99138 5.31129,-3.9288 1.6796,-3.9288 -0.77362,0 -2.24086,-0.52102 -3.26054,-1.15782 -1.84275,-1.15081 -2.44659,-1.01254 -6.99375,1.6015 -3.99712,2.29784 -12.65702,-1.89296 -10.15109,-4.91242 1.93147,-2.32729 4.02594,-1.85836 4.02594,0.90135 0,2.55581 2.9997,4.30364 5.12829,2.9881 0.71541,-0.44214 0.097,-1.13722 -1.64533,-1.84941 -2.79153,-1.14104 -2.79153,-1.14104 0.8902,-2.27099 3.52745,-1.0826 16.06143,3.75842 20.07684,7.75431 0.5225,0.51996 2.3225,0.95227 4,0.96069 1.6775,0.008 3.60306,0.36665 4.27903,0.79606 0.67597,0.42941 -1.79903,0.68855 -5.5,0.57586 -6.44112,-0.19613 -6.5151,-0.17273 -1.72903,0.54683 2.75,0.41346 3.81875,0.82243 2.375,0.90884 -1.44375,0.0864 -3.92188,0.41647 -5.50694,0.73349 -1.58507,0.31701 -3.18295,0.27538 -3.55085,-0.0925 z m 16.86077,-2.36049 c 0.30217,-1.15549 0.95558,-1.84986 1.45202,-1.54304 0.49644,0.30681 0.64373,0.97675 0.32729,1.48875 -0.31643,0.51199 -0.13832,0.9309 0.3958,0.9309 0.53411,0 1.25777,-1.6967 1.60813,-3.77046 0.35036,-2.07375 1.10131,-4.43625 1.66878,-5.25 0.7695,-1.10346 0.87317,-0.75621 0.40782,1.36611 -0.36302,1.65566 -0.12184,3.45065 0.57674,4.29238 1.53114,1.84492 0.28414,3.13223 -3.83152,3.95536 -2.84145,0.56829 -3.09994,0.42243 -2.60506,-1.47 z m 82.9994,-2.73617 c 1.19756,-0.27901 2.71516,-1.15527 3.37244,-1.94725 1.66292,-2.0037 -1.95152,-1.98155 -4.60869,0.0282 -2.52193,1.90749 -5.07761,1.92149 -5.80276,0.0318 -0.31658,-0.825 -1.06628,-1.5 -1.666,-1.5 -0.59972,0 -0.76503,0.52647 -0.36734,1.16994 0.49297,0.79765 0.16751,0.95675 -1.02277,0.5 -0.96021,-0.36844 -2.15903,-0.66991 -2.66405,-0.66991 -0.50501,0 -0.91821,-0.43588 -0.91821,-0.96862 0,-0.53273 0.74882,-0.68126 1.66404,-0.33006 1.03675,0.39784 1.41787,0.24023 1.01102,-0.41807 -0.35917,-0.58115 0.10339,-1.67012 1.02791,-2.41994 0.92452,-0.74982 1.37215,-0.84796 0.99473,-0.21809 -0.37742,0.62986 0.01,1.41221 0.85998,1.73854 0.8854,0.33976 1.28509,0.17086 0.93524,-0.39521 -0.33602,-0.5437 -0.4719,-1.02057 -0.30194,-1.0597 0.16996,-0.0391 3.68402,-0.47257 7.80902,-0.96321 13.7059,-1.6302 14.81771,-1.94673 14.26476,-4.0612 -0.6166,-2.3579 -1.17717,-2.38803 -2.87271,-0.15444 -2.09801,2.76377 -1.5954,0.077 0.60795,-3.25 1.09275,-1.65 1.98979,-2.61075 1.99341,-2.13499 0.004,0.47576 1.07875,0.16251 2.38916,-0.69611 1.9755,-1.2944 2.68479,-1.34013 4.15149,-0.26765 1.23323,0.90176 1.42021,1.50898 0.61743,2.00512 -2.32683,1.43807 0.0925,10.06536 2.56285,9.13909 0.66789,-0.25043 2.5274,1.13764 4.13225,3.08459 2.12578,2.57894 3.56066,3.44898 5.28565,3.20493 2.24266,-0.31728 2.99251,-2.33498 0.86776,-2.33498 -0.55,0 -1,-0.3375 -1,-0.75 0,-0.4125 0,-1.15787 0,-1.65638 0,-0.49851 0.9,-0.67103 2,-0.38337 2.22127,0.58088 2.69432,3.72234 0.75,4.98073 -1.72425,1.11596 -12.68034,1.02613 -11.99251,-0.0983 0.32377,-0.52929 -1.4771,-0.62881 -4.3221,-0.23886 -6.19271,0.84881 -22.66324,1.71027 -19.75801,1.03342 z m 39.82262,-9.45522 c -1.69504,-0.67075 -1.73316,-0.80215 -0.25,-0.86171 1.89903,-0.0763 2.48419,-2.07029 0.60754,-2.07029 -0.79935,0 -0.95411,-1.80194 -0.51533,-6 0.34632,-3.31344 0.22815,-6 -0.26392,-6 -0.49008,0 -0.66533,-0.86315 -0.38945,-1.91812 0.55424,-2.11942 5.46737,-4.57986 7.51034,-3.7611 0.71545,0.28673 0.20231,0.55685 -1.14031,0.60027 -2.3634,0.0764 -2.37932,0.1257 -0.5,1.54715 1.06762,0.8075 1.39275,1.4825 0.72251,1.5 -0.72206,0.0188 -0.95842,0.70985 -0.58006,1.69584 0.41008,1.06866 0.24572,1.42126 -0.45938,0.98548 -0.62714,-0.38759 -1.40102,0.29249 -1.80472,1.58596 -0.38873,1.24549 -1.12223,2.53221 -1.62999,2.85938 -2.00256,1.29032 0.21936,5.62271 2.64579,5.15887 1.2719,-0.24314 2.62374,0.0615 3.00409,0.67688 0.38035,0.61542 0.3206,1.0545 -0.13278,0.97575 -2.50687,-0.43548 -4.22221,0.30908 -4.50478,1.95536 -0.24446,1.42421 -0.78955,1.67573 -2.31955,1.07028 z m -204.46094,-6.47743 c -1.84902,-1.01381 -2.80042,-1.06758 -3.82622,-0.21625 -0.99795,0.82823 -1.55004,0.83411 -2.05203,0.0219 -0.37772,-0.61116 -2.48092,-1.29773 -4.67379,-1.5257 -3.48156,-0.36196 -3.69106,-0.51577 -1.65249,-1.21324 1.75912,-0.60185 2.0056,-1.00724 1,-1.64467 -0.80389,-0.50959 -0.88619,-0.85204 -0.20698,-0.86127 0.62016,-0.008 1.68277,0.65368 2.36137,1.47134 1.002,1.20733 3.09172,1.37997 11.12244,0.91884 6.77077,-0.38881 9.88864,-0.22696 9.88864,0.51332 0,0.59464 -1.58912,1.08116 -3.53139,1.08116 -2.21651,0 -3.7457,0.55851 -4.10698,1.5 -0.67361,1.7554 -1.04531,1.75149 -4.32257,-0.0454 z m 165.97625,-4.20457 c -0.008,-2.3375 -0.41771,-4.25 -0.90952,-4.25 -0.49182,0 -0.82932,-1.08645 -0.75,-2.41432 0.10533,-1.76338 0.46942,-2.1446 1.35041,-1.41391 0.6634,0.55022 1.7884,0.7033 2.5,0.34016 0.71159,-0.36313 0.5348,-0.0356 -0.39286,0.72784 -1.33106,1.09544 -1.51621,2.14379 -0.87821,4.9726 0.44464,1.97148 0.42303,4.19271 -0.048,4.93607 -0.5539,0.87408 -0.86188,-0.14988 -0.87179,-2.89844 z m -104.01531,0.35699 c 0,-2.40303 -2.35344,-4.12462 -4.13405,-3.02414 -0.52446,0.32413 -1.56086,0.0853 -2.30311,-0.5307 -0.74226,-0.61602 -3.31005,-1.49268 -5.7062,-1.94814 -3.70839,-0.70489 -2.94307,-0.84763 5.14336,-0.95926 13.04734,-0.18012 17.87801,-0.53312 17.42074,-1.273 -0.21355,-0.34553 0.90192,-0.88628 2.47883,-1.20166 1.57691,-0.31539 3.9321,-0.82465 5.23377,-1.13171 1.30166,-0.30706 3.02805,-0.12863 3.83641,0.3965 1.77112,1.15055 -3.26639,6.06184 -6.21975,6.0639 -0.9625,6.7e-4 -1.75,0.45122 -1.75,1.00122 0,0.55 -1.35,1 -3,1 -2.94029,0 -3.69312,1.62343 -1.5,3.23469 0.55,0.40408 -1.3625,0.74158 -4.25,0.75 -4.87501,0.0142 -5.25,-0.15562 -5.25,-2.3777 z m -85.5,-0.74793 c -2.75,-0.50449 -5.675,-1.20061 -6.5,-1.54692 -0.825,-0.34631 -1.8375,-0.55822 -2.25,-0.4709 -1.39098,0.29444 -0.76352,-1.09493 1.3045,-2.88851 1.67506,-1.45277 2.64467,-1.59638 5.25,-0.77758 1.75753,0.55235 5.13978,1.45713 7.51612,2.01061 2.37634,0.55348 4.12323,1.20372 3.88198,1.44498 -0.48248,0.48247 -7.04176,-0.93339 -10.2026,-2.20231 -1.74514,-0.70058 -1.83338,-0.59785 -0.69243,0.80617 0.71916,0.88498 2.97837,1.89134 5.02045,2.23634 4.76837,0.80562 7.78324,2.54134 4.17198,2.40191 -1.375,-0.0531 -4.75,-0.5093 -7.5,-1.01379 z m 15.75983,-2.02224 c -0.96791,-0.38294 1.61517,-0.73573 5.74017,-0.78399 4.125,-0.0483 11.55,-0.75318 16.5,-1.56648 4.95,-0.81331 10.575,-1.42641 12.5,-1.36245 4.32667,0.14376 -12.36309,2.6727 -24.24017,3.67304 -4.80709,0.40487 -9.53209,0.42282 -10.5,0.0399 z m 187.49085,0.40592 c -0.96212,-0.21402 -2.01221,-1.59369 -2.33352,-3.06593 -0.32131,-1.47225 -0.72662,-3.15884 -0.90068,-3.74799 -0.17406,-0.58916 1.24613,-2.83916 3.15599,-5 1.90985,-2.16085 3.18829,-3.36632 2.84098,-2.67882 -0.43709,0.8652 0.3102,1.25 2.42753,1.25 2.91242,0 4.05657,1.26545 2.18818,2.42017 -0.47896,0.29602 -1.16743,2.01008 -1.52993,3.80902 -0.36555,1.81409 -0.97978,2.79296 -1.37916,2.19787 -0.39604,-0.59012 -1.62007,-1.41061 -2.72007,-1.82331 -1.91397,-0.71808 -1.88434,-0.85042 0.68878,-3.07643 2.49065,-2.15467 2.54599,-2.36342 0.751,-2.83282 -2.24362,-0.58672 -2.46223,-0.32417 -3.41056,4.09614 -0.50218,2.34072 -0.22439,4.02564 0.9623,5.83676 1.86616,2.84813 1.77367,3.17467 -0.74084,2.61534 z m 12.85211,-6.40905 c 0.29447,-0.47647 0.95776,-0.60528 1.47398,-0.28624 1.05236,0.65039 3.92323,-1.85173 3.92323,-3.41932 0,-0.5581 0.83272,-1.60274 1.85049,-2.32143 1.01777,-0.71868 2.43012,-3.1067 3.13856,-5.3067 2.97159,-9.22797 4.06498,-10.02184 8.9814,-6.52104 2.63004,1.87275 2.73219,2.23062 1.90323,6.66782 -1.2356,6.61383 -1.85701,6.59183 -1.17239,-0.0415 0.52425,-5.07954 0.39657,-5.60528 -1.36139,-5.60528 -1.06694,0 -2.46515,-0.52525 -3.10712,-1.16722 -1.5145,-1.5145 -2.08203,0.0279 -2.45323,6.66722 -0.25529,4.56608 -0.50699,5.02638 -2.90036,5.30396 -1.97597,0.22916 -2.84635,1.09034 -3.53743,3.5 -0.77353,2.69714 -1.41283,3.21165 -4.0955,3.29604 -1.74839,0.055 -2.93795,-0.28984 -2.64347,-0.76631 z m -85.28102,-67.23161 c -1.74803,-0.60614 -3.54803,-1.51128 -4,-2.01141 -0.48636,-0.53818 -0.005,-0.60185 1.17823,-0.15598 1.1,0.41434 4.36213,1.08567 7.24918,1.49184 2.88704,0.40617 5.48818,0.9775 5.7803,1.26962 0.98318,0.98317 -6.99884,0.51864 -10.20771,-0.59407 z M 386.0061,119.96325 c 0,-0.59003 1.52282,-5.74253 3.38405,-11.45 1.86123,-5.70747 3.70038,-12.287353 4.08701,-14.621971 0.58708,-3.544975 2.58364,-7.183576 2.50449,-4.564257 -0.17878,5.916828 -9.97555,36.003978 -9.97555,30.636228 z m -5.50471,-4.07721 c 0.3901,-0.9625 1.16368,-3.1 1.71906,-4.75 0.55538,-1.65 1.84447,-4.8 2.86464,-7 1.02018,-2.2 2.55153,-5.800001 3.40301,-8.000001 1.14624,-2.961602 1.39529,-3.229589 0.95938,-1.032309 -0.32382,1.632231 -1.6169,5.23223 -2.87352,8 -1.25663,2.76777 -3.06068,7.16981 -4.00902,9.78231 -0.94834,2.6125 -1.96018,4.75 -2.24854,4.75 -0.28835,0 -0.20511,-0.7875 0.18499,-1.75 z"
       style="fill:#bb6932"
       sodipodi:nodetypes="cssssssssscscsssssssssscscssssssssccsssscssscsssssssssssssssscsssssssscscsssssssssscssssscscsssssssscssssscsssssscscsssscsssssssssssssccscssssscscsssssccsscscssccssssscccsssssscccssssssssssssssssssssscssssscssssccsssssscsssssssscssssssssssssscsscsssssssssssssssss" />
    <path
       inkscape:connector-curvature="0"
       id="path5399"
       d="m 232.99656,451.03512 c -0.2984,-5.08773 -0.30043,-11.55849 -0.006,-17.99393 0.17875,-3.90216 0.06,-7.52365 -0.26393,-8.04774 -1.32186,-2.13881 1.03099,-3.62654 4.65899,-2.94592 4.64742,0.87186 11.13217,-1.01913 15.76402,-4.59686 2.00415,-1.54805 4.04164,-2.81463 4.52776,-2.81463 0.48612,0 1.66261,-0.90951 2.61441,-2.02114 1.68344,-1.96611 1.65546,-2.00679 -1.02776,-1.49402 -1.51707,0.28992 -2.19581,0.26193 -1.50831,-0.0622 2.39584,-1.12934 1.22621,-2.42264 -2.19062,-2.42264 -1.89254,0 -3.7191,-0.45 -4.05902,-1 -0.33992,-0.55 -1.41924,-1 -2.3985,-1 -2.83586,0 -4.09601,-3.97509 -2.62063,-8.26667 0.69216,-2.01336 1.05908,-3.86004 0.81539,-4.10374 -1.02115,-1.02115 5.479,-12.58936 11.53033,-20.52036 3.58294,-4.69587 7.10993,-9.67898 7.83776,-11.07359 1.01162,-1.93838 1.32478,-2.10953 1.32949,-0.72662 0.003,0.99496 0.45616,1.5309 1.00616,1.19098 0.55,-0.33992 1.04981,-0.029 1.11069,0.69098 0.31587,3.73546 -0.58145,6.62233 -3.04439,9.79442 -2.7683,3.56537 -7.08042,11.87263 -7.04925,13.58032 0.009,0.51386 1.25158,-1.09072 2.76045,-3.56572 8.07138,-13.23951 11.14615,-17.57056 9.58413,-13.5 -0.3942,1.02725 0.0589,1.5 1.43776,1.5 1.42388,0 1.88037,0.51238 1.5591,1.75 -0.24984,0.9625 0.22797,2.65 1.06182,3.75 0.8357,1.10245 1.53036,1.43903 1.54789,0.75 0.0175,-0.6875 0.677,-1.25 1.46558,-1.25 0.94411,0 1.29344,0.7739 1.02287,2.26601 -0.31902,1.75932 0.27775,2.57084 2.66884,3.62924 1.75409,0.77644 3.63385,2.68107 4.36705,4.42483 0.94548,2.24864 1.38292,2.60369 1.64738,1.33711 0.31516,-1.50936 0.52523,-1.45774 1.6839,0.4138 0.88126,1.42344 0.93016,1.89499 0.14628,1.41053 -0.64766,-0.40027 -0.44567,0.38923 0.44886,1.75445 0.89453,1.36522 1.36012,3.33313 1.03466,4.37313 -0.35829,1.14488 0.0133,0.90457 0.94187,-0.6091 0.8435,-1.375 1.54959,-1.91094 1.56907,-1.19098 0.0198,0.73132 0.54494,0.99412 1.18995,0.59549 0.72914,-0.45064 0.88248,-0.27337 0.41617,0.48112 -0.44016,0.7122 0.30513,2.01544 1.84549,3.22709 1.72717,1.35859 2.58383,3.00302 2.58383,4.95986 0,1.61008 0.82893,3.75635 1.84207,4.76949 1.74783,1.74783 3.70551,6.61477 2.31467,5.75446 -0.36121,-0.22343 -0.69516,1.91345 -0.74211,4.74862 -0.0469,2.83517 -0.29944,5.82985 -0.56109,6.65485 -0.26164,0.825 -0.78279,2.4 -1.1581,3.5 -0.37532,1.1 -2.70043,3.35 -5.16693,5 -2.4665,1.65 -4.49443,3.51801 -4.50653,4.15113 -0.0874,4.57726 -12.8324,13.16209 -19.27276,12.98183 -2.61292,-0.0731 -4.75042,0.21311 -4.75,0.63609 4.3e-4,0.42298 -1.01172,0.51547 -2.24922,0.20555 -1.2375,-0.30993 -3.22932,-0.63677 -4.42626,-0.72631 -1.77172,-0.13253 -2.11056,-0.68193 -1.82282,-2.95554 0.41564,-3.28422 0.70511,-3.19461 -3.98688,-1.23417 -2.05162,0.85722 -3.98157,1.30722 -4.28879,1 -0.65393,-0.65392 -0.99464,-0.42015 5.02475,-3.44754 5.16712,-2.59875 6.02144,-4.04409 2.5,-4.22952 -3.50824,-0.18474 -5.19054,0.22255 -5.94563,1.43947 -0.38259,0.6166 -0.96787,0.84884 -1.30062,0.51609 -0.33275,-0.33275 1.67011,-3.20489 4.4508,-6.38253 5.56161,-6.35557 6.06323,-8.44668 0.8554,-3.56589 -3.94238,3.6948 -4.76547,3.86377 -4.1958,0.86134 0.39174,-2.06468 0.35424,-2.08527 -0.45524,-0.25 -0.48518,1.1 -0.69029,2.51292 -0.45581,3.13983 0.23448,0.62691 -0.61529,2.20841 -1.88839,3.51445 -1.27309,1.30604 -3.72505,4.01187 -5.4488,6.01295 -3.55915,4.13178 -6.91546,6.2196 -8.8222,5.48792 -0.715,-0.27437 -1.78192,-0.0169 -2.37094,0.57208 -0.76124,0.76124 -1.10314,0.52177 -1.18231,-0.82815 z m 5.10736,-46.39908 c -0.17564,-3.3154 -0.44179,-3.97938 -1.01106,-2.5223 -0.90152,2.30749 -3.0556,-0.56729 -3.11856,-4.16196 -0.0307,-1.75147 -0.0804,-1.75168 -1.404,-0.006 -1.55564,2.05179 -2.03454,1.56269 -3.03472,-3.09926 -0.55124,-2.56944 -1.09826,-3.16483 -2.49917,-2.7202 -1.09336,0.34702 -2.02262,-0.028 -2.3805,-0.96058 -0.32287,-0.84129 -1.27616,-1.5297 -2.11843,-1.5297 -0.84226,0 -1.53138,-0.43588 -1.53138,-0.96862 0,-0.53273 0.62948,-0.72706 1.39885,-0.43182 0.76937,0.29523 1.69592,0.0561 2.05902,-0.53139 0.36309,-0.58749 0.008,-1.06817 -0.78848,-1.06817 -0.85339,0 -1.99459,-1.84904 -2.77733,-4.5 -1.375,-4.65683 -3.41401,-6.4278 -2.3027,-2 0.38661,1.5404 0.20201,2.5 -0.48095,2.5 -0.60963,0 -1.10841,0.43588 -1.10841,0.96862 0,0.53273 0.61582,0.7323 1.36848,0.44347 1.12446,-0.43149 1.16999,0.10906 0.25531,3.03139 -1.58515,5.06447 -2.25974,4.46559 -3.59717,-3.19348 -1.08247,-6.19895 -0.44918,-29.84336 0.70961,-26.49377 0.23902,0.69093 0.89428,0.97213 1.45611,0.6249 0.66809,-0.41291 0.77288,0.50073 0.30287,2.64067 -1.12094,5.10363 -2.14452,18.9782 -1.40008,18.9782 0.36757,0 0.97984,-3.73982 1.3606,-8.31072 0.38075,-4.5709 1.07811,-8.93501 1.54968,-9.69803 0.52578,-0.85073 0.70118,0.33309 0.4535,3.06072 l -0.4039,4.44803 0.99282,-4.5 c 0.54605,-2.475 0.8008,-5.2875 0.56612,-6.25 -0.23469,-0.9625 0.0115,-1.75 0.54706,-1.75 0.53557,0 0.70026,-0.86173 0.36598,-1.91496 -0.82556,-2.60112 0.44403,-7.26712 1.84235,-6.77096 0.62186,0.22065 1.02451,1.25274 0.89476,2.29355 -1.1639,9.33687 -1.18003,9.8879 -0.22104,7.55002 0.52845,-1.2883 0.70839,-2.7508 0.39986,-3.25 -0.30852,-0.49921 -0.0578,-0.90765 0.55708,-0.90765 0.61492,0 0.83992,-0.45 0.5,-1 -0.33992,-0.55 -0.11492,-1 0.5,-1 0.61492,0 0.8431,-0.44485 0.50708,-0.98855 -0.34985,-0.56607 0.0498,-0.73497 0.93524,-0.39521 0.85041,0.32633 1.25776,1.10868 0.90523,1.73854 -0.45143,0.80659 -0.26435,0.7972 0.63272,-0.0317 0.87931,-0.81255 2.0461,-0.8833 3.76834,-0.22851 1.76172,0.66981 2.94773,0.5749 4.03675,-0.32302 1.3533,-1.11585 1.39962,-1.00411 0.37836,0.91276 -1.58386,2.97285 -1.47056,4.11763 0.18364,1.85538 0.80755,-1.10439 1.60059,-1.43288 1.97942,-0.81991 0.34764,0.56249 1.99133,0.86445 3.65265,0.67102 1.85352,-0.21581 3.02057,0.1044 3.02057,0.82878 0,0.84342 0.30758,0.87289 1.07726,0.10321 0.65065,-0.65065 2.35094,-0.79001 4.29343,-0.3519 1.76889,0.39895 4.32162,0.60621 5.67274,0.46059 1.35111,-0.14562 2.82063,-0.30226 3.26559,-0.3481 0.44496,-0.0458 0.4998,-0.58364 0.12188,-1.19513 -0.37792,-0.6115 -0.067,-1.5046 0.69098,-1.98469 2.06714,-1.3093 3.16004,-1.08056 2.54129,0.53188 -0.30295,0.78947 -0.0136,1.65394 0.64301,1.92105 0.67043,0.27274 0.45445,0.52028 -0.49265,0.56461 -2.21334,0.10356 -13.81353,11.33935 -13.81353,13.37955 0,1.40555 0.30479,1.42175 2.75,0.14621 1.5125,-0.789 3.29667,-1.43731 3.96482,-1.4407 0.66815,-0.003 1.6777,-0.87107 2.24345,-1.92818 0.56575,-1.05712 1.73872,-2.63212 2.60661,-3.5 1.4373,-1.43731 1.42697,-1.57798 -0.1159,-1.57798 -1.38671,0 -1.46979,-0.27001 -0.45812,-1.48899 0.67967,-0.81894 1.63477,-1.24239 2.12245,-0.94098 0.48768,0.3014 0.93155,-0.041 0.98637,-0.76101 0.10763,-1.41345 1.63646,2.83869 1.80064,5.00813 0.0548,0.72444 -1.39716,2.74944 -3.22664,4.5 -7.1358,6.82803 -17.45705,25.68433 -17.80986,32.53756 -0.11377,2.20982 -0.20542,2.291 -0.55673,0.49313 -0.2313,-1.18369 0.23726,-4.67119 1.04125,-7.75 0.80399,-3.07881 1.1161,-5.59784 0.69358,-5.59784 -0.80833,0 -3.99386,14.71564 -4.11298,19 -0.0949,3.41298 -1.67712,-0.10003 -2.02676,-4.5 -0.13661,-1.71917 -0.52179,-0.43833 -0.90218,3 -0.6444,5.8248 -0.67075,5.8686 -0.90218,1.5 z m 11.48129,-24.25 c 1.03556,-2.3375 2.56641,-4.79819 3.40187,-5.4682 1.14123,-0.91522 1.19037,-1.2261 0.19759,-1.25 -1.88494,-0.0454 -4.02124,2.3474 -5.71495,6.40104 -2.65065,6.34388 -0.68505,6.63857 2.11549,0.31716 z"
       style="fill:#1f8478" />
    <path
       inkscape:connector-curvature="0"
       id="path5397"
       d="m 230.82752,451.7709 c -1.64155,-1.94698 -5.16302,-2.76967 -14.82142,-3.4626 -2.61873,-0.18788 -1.28725,-0.39588 3.1849,-0.49755 4.2267,-0.0961 8.80091,-0.59902 10.16492,-1.11761 2.68806,-1.022 3.65018,0.0915 3.65018,4.22469 0,1.56552 0.29271,1.8255 1.12186,0.99635 0.61702,-0.61702 1.70685,-0.89736 2.42185,-0.62299 1.90674,0.73168 5.26305,-1.35614 8.8222,-5.48792 1.72375,-2.00108 4.17571,-4.70691 5.4488,-6.01295 1.2731,-1.30604 2.12287,-2.88754 1.88839,-3.51445 -0.23448,-0.62691 -0.0294,-2.03983 0.45581,-3.13983 0.80948,-1.83527 0.84698,-1.81468 0.45524,0.25 -0.56967,3.00243 0.25342,2.83346 4.1958,-0.86134 5.20783,-4.88079 4.70621,-2.78968 -0.8554,3.56589 -2.78069,3.17764 -4.78355,6.04978 -4.4508,6.38253 0.33275,0.33275 0.91803,0.10051 1.30062,-0.51609 0.75509,-1.21692 2.43739,-1.62421 5.94563,-1.43947 3.52144,0.18543 2.66712,1.63077 -2.5,4.22952 -6.01939,3.02739 -5.67868,2.79362 -5.02475,3.44754 0.30722,0.30722 2.23717,-0.14278 4.28879,-1 4.69199,-1.96044 4.40252,-2.05005 3.98688,1.23417 -0.28774,2.27361 0.0511,2.82301 1.82282,2.95554 1.19694,0.0895 3.18876,0.41638 4.42626,0.72631 1.2375,0.30992 2.24965,0.21743 2.24922,-0.20555 -4.2e-4,-0.42298 2.13708,-0.70922 4.75,-0.63609 6.73443,0.18849 13.07221,-3.89491 18.97017,-12.22236 1.20344,-1.69916 3.78458,-4.17416 5.73585,-5.5 1.95127,-1.32583 3.8571,-3.3106 4.23518,-4.4106 0.37807,-1.1 0.90148,-2.675 1.16312,-3.5 0.26165,-0.825 0.51414,-3.81968 0.56109,-6.65485 0.047,-2.83517 0.3809,-4.97205 0.74211,-4.74862 1.39084,0.86031 -0.56684,-4.00663 -2.31467,-5.75446 -1.01314,-1.01314 -1.84207,-3.15941 -1.84207,-4.76949 0,-1.85797 -0.83916,-3.59325 -2.29704,-4.75 -3.45831,-2.74399 -4.55251,-4.84761 -1.73799,-3.34133 1.21348,0.64944 2.33223,1.03183 2.48613,0.84977 0.15389,-0.18206 1.52439,-2.35602 3.04555,-4.83102 10.87306,-17.69096 23.45322,-22.6639 37.98187,-15.01424 11.54779,6.08017 18.52148,13.80833 18.52148,20.52529 l 0,2.59073 -3.34439,-2.55089 c -5.51975,-4.21011 -6.61144,-3.53825 -9.66656,5.94911 -0.70844,2.2 -2.12079,4.58802 -3.13856,5.3067 -1.01777,0.71869 -1.85049,1.76333 -1.85049,2.32143 0,3.03676 -5.89915,4.92283 -6.11535,1.9552 -0.0634,-0.87083 -0.17594,-2.15156 -0.25,-2.84607 -0.13601,-1.27548 -5.40684,-5.21849 -6.99212,-5.23067 -0.47161,-0.004 -3.23164,2.48414 -6.13339,5.52837 -4.87979,5.11938 -9.50914,7.72325 -9.50914,5.34861 0,-0.55088 -0.46971,-0.71131 -1.0438,-0.3565 -0.5741,0.35481 -1.65211,0.14027 -2.39558,-0.47676 -1.11014,-0.92133 -1.34201,-0.0852 -1.29714,4.6776 0.0718,7.6231 -2.11467,11.92848 -8.26374,16.27209 -6.27744,4.43429 -6.25367,4.55572 1.25026,6.38719 l 6.25,1.52542 -5,-0.0452 c -8.79973,-0.0795 -9.30217,0.0666 -13.89265,4.03965 -6.72601,5.82132 -9.6205,6.45074 -25.99725,5.65322 -7.76055,-0.37793 -15.4601,-0.74883 -17.1101,-0.82423 -1.65,-0.0754 -5.025,0.20644 -7.5,0.6263 -3.83034,0.64978 -4.7498,0.46711 -6.17858,-1.22752 z m -85.82142,-7.67354 c -6.875,-0.71222 -15.2,-1.36401 -18.5,-1.44842 -3.3,-0.0844 -6.9,-0.56634 -8,-1.07095 -3.20793,-1.47162 38.80367,1.42394 44.20589,3.04678 4.19935,1.2615 -2.30912,1.06763 -17.70589,-0.52741 z m 86.01101,-7.71132 c 0.0141,-5.45492 1.06311,-11.82134 1.86661,-11.32869 0.98656,0.60488 0.0671,15.57869 -0.95662,15.57869 -0.50655,0 -0.91605,-1.9125 -0.90999,-4.25 z m -17.67768,-13.16917 c 0,-1.06915 0.9171,-1.58083 2.83334,-1.58083 1.55833,0 2.83333,-0.45 2.83333,-1 0,-0.55 0.7875,-1.00055 1.75,-1.00122 2.34393,-0.002 8.16172,-5.11721 6.5,-5.71544 -0.6875,-0.2475 -1.25,-1.01999 -1.25,-1.71663 0,-0.69665 -1.26923,-3.02165 -2.82051,-5.16667 -9.67371,-13.37628 -14.09532,-38.32677 -10.26584,-57.92869 2.51155,-12.85588 2.28659,-12.50145 5.07305,-7.99286 4.72365,7.64302 42.42632,17.25213 39.68754,10.11497 -0.87234,-2.27329 4.84139,-4.22069 6.75857,-2.30351 4.73308,4.73308 2.96095,13.47402 -4.81447,23.74714 -6.77067,8.9456 -13.38261,20.53198 -12.32208,21.5925 0.24369,0.2437 -0.12323,2.09038 -0.81539,4.10374 -1.47538,4.29158 -0.21523,8.26667 2.62063,8.26667 0.97926,0 2.05858,0.45 2.3985,1 0.33992,0.55 2.16648,1 4.05902,1 3.41683,0 4.58646,1.2933 2.19098,2.42265 -0.6875,0.32412 -0.009,0.35211 1.50831,0.0622 2.68322,-0.51277 2.7112,-0.47209 1.02776,1.49402 -0.9518,1.11163 -2.12829,2.02114 -2.61441,2.02114 -0.48612,0 -2.52361,1.26658 -4.52776,2.81463 -4.63185,3.57773 -11.1166,5.46872 -15.76402,4.59686 -2.0882,-0.39175 -3.86775,-0.25399 -4.23939,0.32819 -1.20389,1.88591 -19.80716,2.67594 -19.80716,0.84115 z m 26.56885,-23.08083 c 0.34964,4.39997 1.93187,7.91298 2.02676,4.5 0.11912,-4.28436 3.30465,-19 4.11298,-19 0.42252,0 0.11041,2.51903 -0.69358,5.59784 -0.80399,3.07881 -1.27255,6.56631 -1.04125,7.75 0.35131,1.79787 0.44296,1.71669 0.55673,-0.49313 0.35281,-6.85323 10.67406,-25.70953 17.80986,-32.53756 1.82948,-1.75056 3.28146,-3.77556 3.22664,-4.5 -0.16418,-2.16944 -1.69301,-6.42158 -1.80064,-5.00813 -0.0548,0.71996 -0.49869,1.06241 -0.98637,0.76101 -0.48768,-0.30141 -1.44278,0.12204 -2.12245,0.94098 -1.01167,1.21898 -0.92859,1.48899 0.45812,1.48899 1.54287,0 1.5532,0.14067 0.1159,1.57798 -0.86789,0.86788 -2.04086,2.44288 -2.60661,3.5 -0.56575,1.05711 -1.5753,1.92479 -2.24345,1.92818 -0.66815,0.003 -2.45232,0.6517 -3.96482,1.4407 -2.44521,1.27554 -2.75,1.25934 -2.75,-0.14621 0,-2.0402 11.60019,-13.27599 13.81353,-13.3796 0.9471,-0.0443 1.16308,-0.29187 0.49265,-0.56461 -0.65661,-0.26711 -0.94596,-1.13158 -0.64301,-1.92105 0.61875,-1.61244 -0.47415,-1.84118 -2.54129,-0.53188 -0.75796,0.48009 -1.0689,1.37319 -0.69098,1.98469 0.37792,0.61149 0.32308,1.1493 -0.12188,1.19513 -0.44496,0.0458 -1.91448,0.20248 -3.26559,0.3481 -1.35112,0.14562 -3.90385,-0.0616 -5.67274,-0.46059 -1.94249,-0.43811 -3.64278,-0.29875 -4.29343,0.3519 -0.76968,0.76968 -1.07726,0.74021 -1.07726,-0.10321 0,-0.72438 -1.16705,-1.04459 -3.02057,-0.82878 -1.66132,0.19343 -3.30501,-0.10853 -3.65265,-0.67102 -0.37807,-0.61173 -1.21507,-0.25859 -2.08285,0.87878 -1.37389,1.8007 -1.41312,1.77559 -0.74022,-0.47374 0.4559,-1.52396 0.34384,-2.14859 -0.31266,-1.74285 -0.56277,0.34782 -2.12884,0.21203 -3.48016,-0.30174 -1.68133,-0.63924 -2.85902,-0.56258 -3.73062,0.24285 -0.89707,0.82895 -1.08415,0.83834 -0.63272,0.0317 0.35253,-0.62986 -0.0548,-1.41221 -0.90523,-1.73854 -0.8854,-0.33976 -1.28509,-0.17086 -0.93524,0.39521 0.33602,0.54375 0.10784,0.9886 -0.50708,0.9886 -0.61492,0 -0.83992,0.45 -0.5,1 0.33992,0.55 0.11492,1 -0.5,1 -0.61492,0 -0.8656,0.40844 -0.55708,0.90765 0.30853,0.4992 0.12859,1.9617 -0.39986,3.25 -0.95899,2.33788 -0.94286,1.78685 0.22104,-7.55002 0.12975,-1.04081 -0.2729,-2.0729 -0.89476,-2.29355 -1.39832,-0.49616 -2.66791,4.16984 -1.84235,6.77096 0.33428,1.05323 0.16959,1.91496 -0.36598,1.91496 -0.53558,0 -0.78175,0.7875 -0.54706,1.75 0.23468,0.9625 -0.0201,3.775 -0.56612,6.25 l -0.99282,4.5 0.4039,-4.44803 c 0.24768,-2.72763 0.0723,-3.91145 -0.4535,-3.06072 -0.47157,0.76302 -1.16893,5.12713 -1.54968,9.69803 -0.38076,4.5709 -0.99303,8.31072 -1.3606,8.31072 -0.74444,0 0.27914,-13.87457 1.40008,-18.9782 0.47001,-2.13994 0.36522,-3.05358 -0.30287,-2.64067 -0.56183,0.34723 -1.21709,0.066 -1.45611,-0.6249 -1.15879,-3.34959 -1.79208,20.29482 -0.70961,26.49377 1.33743,7.65907 2.01202,8.25795 3.59717,3.19348 0.91468,-2.92233 0.86915,-3.46288 -0.25531,-3.03139 -0.75266,0.28883 -1.36848,0.0893 -1.36848,-0.44347 0,-0.53274 0.49878,-0.96862 1.10841,-0.96862 0.68296,0 0.86756,-0.9596 0.48095,-2.5 -1.11131,-4.4278 0.9277,-2.65683 2.3027,2 0.78274,2.65096 1.92394,4.5 2.77733,4.5 0.79676,0 1.15157,0.48068 0.78848,1.06817 -0.3631,0.5875 -1.28965,0.82662 -2.05902,0.53139 -0.76937,-0.29524 -1.39885,-0.10091 -1.39885,0.43182 0,0.53274 0.68912,0.96862 1.53138,0.96862 0.84227,0 1.79556,0.68841 2.11843,1.5298 0.35788,0.93263 1.28714,1.3076 2.3805,0.96058 1.40091,-0.44463 1.94793,0.15076 2.49917,2.7202 1.00018,4.66195 1.47908,5.15105 3.03472,3.09926 1.32362,-1.74578 1.37332,-1.74557 1.404,0.006 0.063,3.59467 2.21704,6.46945 3.11856,4.16196 0.56927,-1.45708 0.83542,-0.7931 1.01106,2.5223 0.23143,4.3686 0.25778,4.3248 0.90218,-1.5 0.38039,-3.43833 0.76557,-4.71917 0.90218,-3 z m 6.09782,-16.03212 c 0,-3.35407 4.90901,-10.4907 7.17857,-10.43608 0.99278,0.0239 0.94364,0.33478 -0.19759,1.25 -0.83546,0.67001 -2.36631,3.1307 -3.40187,5.4682 -1.58264,3.57234 -3.57911,5.64622 -3.57911,3.71788 z m 14.00946,3.09784 c -0.0177,-1.74948 4.31915,-10.05439 7.15925,-13.70962 1.55721,-2.00415 2.83129,-4.68165 2.83129,-5.95 0,-2.80305 1.51971,-1.46511 2.37837,2.0939 0.33174,1.375 0.3348,1.90742 0.007,1.18317 -0.58057,-1.28192 -3.7374,2.91996 -9.82672,13.07974 -1.39673,2.3304 -2.54378,3.81667 -2.54898,3.30281 z"
       style="fill:#185046" />
  </g>
</svg>
