<?xml version="1.0" encoding="UTF-8" standalone="no"?>
<svg
   xmlns:dc="http://purl.org/dc/elements/1.1/"
   xmlns:cc="http://creativecommons.org/ns#"
   xmlns:rdf="http://www.w3.org/1999/02/22-rdf-syntax-ns#"
   xmlns:svg="http://www.w3.org/2000/svg"
   xmlns="http://www.w3.org/2000/svg"
   xmlns:sodipodi="http://sodipodi.sourceforge.net/DTD/sodipodi-0.dtd"
   xmlns:inkscape="http://www.inkscape.org/namespaces/inkscape"
   viewBox="0 0 512 512"
   id="svg8438"
   version="1.1"
   inkscape:version="0.48.4 r9939"
   width="100%"
   height="100%"
   sodipodi:docname="notsure6.svg">
  <metadata
     id="metadata8464">
    <rdf:RDF>
      <cc:Work
         rdf:about="">
        <dc:format>image/svg+xml</dc:format>
        <dc:type
           rdf:resource="http://purl.org/dc/dcmitype/StillImage" />
        <dc:title></dc:title>
      </cc:Work>
    </rdf:RDF>
  </metadata>
  <defs
     id="defs8462">
    <linearGradient
       id="linearGradient3890">
      <stop
         style="stop-color:#701b1b;stop-opacity:1;"
         offset="0"
         id="stop3892" />
      <stop
         style="stop-color:#e31600;stop-opacity:1;"
         offset="1"
         id="stop3894" />
    </linearGradient>
    <linearGradient
       id="linearGradient3882">
      <stop
         style="stop-color:#600b0b;stop-opacity:1;"
         offset="0"
         id="stop3884" />
      <stop
         style="stop-color:#d11414;stop-opacity:1;"
         offset="1"
         id="stop3886" />
    </linearGradient>
    <linearGradient
       id="linearGradient3872">
      <stop
         style="stop-color:#800600;stop-opacity:1;"
         offset="0"
         id="stop3874" />
      <stop
         style="stop-color:#ff0004;stop-opacity:0;"
         offset="1"
         id="stop3876" />
    </linearGradient>
    <clipPath
       clipPathUnits="userSpaceOnUse"
       id="clipPath3171">
      <path
         style="fill:#ff0000"
         d="m 195.25,600.09375 c -0.55,0 -1,0.675 -1,1.5 0,0.825 0.45,1.5 1,1.5 0.55,0 1,-0.675 1,-1.5 0,-0.825 -0.45,-1.5 -1,-1.5 z m 5.3125,4 c -2.1,0 -2.43333,0.25417 -1.5,1.1875 1.84386,1.84386 1.43137,3.59339 -1.03125,4.375 -3.65925,1.1614 -7.78125,4.69049 -7.78125,6.65625 0,2.10614 -4.33874,4.13582 -7.03125,3.28125 -0.97815,-0.31045 -2.51937,-1.6777 -3.40625,-3.03125 -2.19913,-3.3563 -5.17039,-3.15893 -7.0625,0.5 -0.84843,1.64069 -3.00306,3.74519 -4.78125,4.65625 -1.77819,0.91105 -3.50496,2.0698 -3.84375,2.59375 -0.37282,0.57659 -1.41377,0.46345 -2.65625,-0.3125 -1.65465,-1.03335 -2.36715,-1.04929 -3.59375,-0.0312 -0.83697,0.69462 -1.27534,1.84498 -1,2.5625 0.50755,1.32265 -1.27469,1.91043 -10.59375,3.375 -3.57139,0.56128 -4.92088,1.37519 -6.75,4.09375 -2.36508,3.51509 -3.03066,8.51256 -1.28125,9.59375 0.55,0.33992 1,1.49496 1,2.5625 0,1.47544 -0.70016,1.9375 -2.90625,1.9375 -2.3037,0 -3.10334,0.60303 -3.90625,2.90625 -0.72595,2.08245 -1.8867,3.10213 -4.125,3.59375 -2.22411,0.4885 -4.29088,2.23524 -7.1875,6.15625 -3.50913,4.75014 -4.4116,5.41484 -6.5625,4.875 -1.49038,-0.37406 -2.23135,-0.23282 -1.875,0.34375 0.32739,0.52973 1.91338,1.26966 3.53125,1.625 3.55529,0.78088 8.26198,4.31028 7.46875,5.59375 -0.31434,0.50863 -3.18661,2.68859 -6.40625,4.875 -4.45587,3.02593 -6.14106,4.88045 -7.0625,7.75 -0.66579,2.07342 -1.89767,4.5592 -2.71875,5.5 -1.71018,1.95957 -1.35723,4.91042 1.4375,12.25 1.70832,4.48644 2.38655,5.18078 6.78125,6.8125 2.68526,0.99702 5.37744,2.5236 6,3.375 0.64519,0.88235 2.20068,1.38413 3.59375,1.1875 1.94757,-0.2749 2.39151,-0.87663 2.1875,-2.90625 -0.21303,-2.11921 0.34682,-2.7687 3.40625,-3.875 3.33018,-1.20421 3.81885,-1.13707 5.0625,0.5625 0.75523,1.03209 2.06645,4.2375 2.90625,7.125 1.18328,4.06845 1.95416,5.25 3.5,5.25 1.09713,0 2.88679,0.48345 3.96875,1.0625 1.41082,0.75504 2.93645,0.69429 5.375,-0.1875 3.24141,-1.17211 3.57228,-1.06355 7.34375,2.34375 2.17595,1.96584 4.92462,3.87893 6.09375,4.25 2.35188,0.74646 8.04885,-2.17612 11.90625,-6.125 1.84668,-1.89048 2.68263,-2.15133 4.25,-1.3125 1.07313,0.57433 1.9375,1.91935 1.9375,3 0,1.41373 0.69009,1.96875 2.4375,1.96875 2.8513,0 5.5625,2.39016 5.5625,4.90625 0,0.97547 0.9,2.59826 2,3.59375 1.1,0.99549 2,2.88007 2,4.1875 0,5.41833 2.71811,9.27949 8.21875,11.71875 7.4175,3.2893 9.07705,5.48163 9.59375,12.625 0.25362,3.50623 0.89812,5.96583 1.5625,5.96875 2.22647,0.01 7.04708,4.79948 8.15625,8.09375 0.93363,2.77292 1.79513,3.49687 4.96875,4.15625 2.11308,0.43903 4.31318,1.19719 4.90625,1.6875 0.59307,0.49031 2.44375,1.03259 4.09375,1.21875 2.61262,0.29478 3,0.74814 3,3.4375 0,1.77697 1.06572,4.47237 2.53125,6.375 2.47092,3.20787 2.67627,3.27319 6.25,2.09375 4.04932,-1.33639 5.69503,-0.82832 5.78125,1.75 0.14177,4.23973 5.96607,18.91383 9.28125,23.375 4.31869,5.81158 4.95578,11.32647 1.65625,14.3125 -3.27433,2.96323 -2.6572,8.32497 1.59375,13.78125 3.37822,4.33609 3.55072,4.93913 2.90625,9.625 -0.37771,2.7463 -1.31655,5.51123 -2.09375,6.15625 -2.05244,1.70337 -1.73621,3.9375 0.5625,3.9375 1.88645,0 2.43089,1.0251 3.25,6.375 0.15891,1.03793 1.30364,2.28526 2.5625,2.75 1.86236,0.68755 2.457,0.40998 3.1875,-1.40625 0.61232,-1.52238 0.92552,-1.70379 0.96875,-0.59375 0.0349,0.89515 -0.6125,2.19031 -1.4375,2.875 -1.69604,1.40759 -2.0157,5.56324 -0.5,6.5 1.57819,0.97538 1.15684,3.68645 -0.90625,5.93745 -3.00858,3.2828 -3.57509,8.0214 -1.25,10.2188 1.07302,1.0141 2.11564,2.6962 2.3125,3.75 0.24866,1.3311 1.71025,2.2468 4.8125,3 3.77659,0.9168 4.56768,1.5565 5.15625,4.0938 1.36472,5.8831 3.78368,16.0666 4.75,19.9374 0.60833,2.4368 2.40388,5.2206 4.6875,7.3126 3.42772,3.1403 3.65743,3.6744 3.1875,7.8437 -0.33686,2.9886 -0.0739,4.9261 0.8125,5.8125 0.73153,0.7315 2.29274,4.2132 3.46875,7.7188 1.17601,3.5054 2.70379,7.0499 3.40625,7.875 0.70247,0.825 2.68838,5.0319 4.40625,9.3437 1.71787,4.3118 4.27382,9.16955 5.65625,10.81245 1.38242,1.6429 2.5,3.6424 2.5,4.4375 0,0.7951 1.73626,3.3623 3.84375,5.6875 2.1075,2.3253 5.26233,6.3563 7.03125,8.9688 1.76893,2.6124 3.58686,4.75 4.03125,4.75 1.21173,0 8.0648,9.5037 14.9375,20.6874 3.35735,5.4633 7.24269,10.9827 8.625,12.2813 2.44039,2.2927 2.57909,2.2979 4.53125,0.5313 1.10576,-1.0008 2,-2.2634 2,-2.8126 0,-1.574 5.06919,-11.8769 7.46875,-15.1874 1.19594,-1.6501 3.02118,-5.0251 4.0625,-7.5 1.04132,-2.475 3.26655,-6.1452 4.9375,-8.1563 7.57295,-9.1149 12.53125,-20.4265 12.53125,-28.56245 0,-5.0806 1.70147,-3.8853 3.5,2.46875 0.89516,3.1624 1.86385,6.5638 2.15625,7.5624 0.72455,2.4747 6.26115,8.6876 7.75,8.6876 0.66288,0 3.74577,-1.5408 6.84375,-3.4063 3.09797,-1.8655 5.82139,-3.1786 6.0625,-2.9375 0.24112,0.2412 0.75885,-0.76 1.125,-2.2188 0.42879,-1.7084 0.10412,-3.4892 -0.90625,-5.0312 -1.58034,-2.4119 -1.35644,-2.7517 1.59375,-2.4688 0.88648,0.085 2.93553,-1.3657 4.5625,-3.21865 1.62697,-1.8531 3.47595,-3.6926 4.125,-4.0937 0.045,-0.028 0.0831,-0.029 0.125,0 3.81609,-79.35234 3.15967,-125.09453 -0.3125,-163.4688 -0.005,-0.006 0.005,-0.0251 0,-0.0312 -0.35073,-0.44123 -0.625,-1.10131 -0.625,-1.6875 0,-0.57558 0.25313,-1.05086 0.59375,-1.28125 -0.003,-1.08864 0.003,-2.76701 0,-3.84375 L 429,808.84375 c -1.69655,-1.12352 -2.41478,-2.81691 -2.875,-6.875 -0.66733,-5.88418 -2.53289,-10.5427 -6.375,-15.78125 -2.31232,-3.15278 -3.51462,-7.82866 -1.71875,-6.71875 1.54014,0.95186 -0.99904,-11.96304 -3.375,-17.15625 -1.32664,-2.89969 -2.40625,-6.95344 -2.40625,-9.03125 0,-2.07782 -0.52934,-4.3106 -1.15625,-4.9375 -0.62691,-0.62691 -1.48199,-3.31609 -1.90625,-6 -1.20024,-7.59272 -3.45119,-12.25 -5.96875,-12.25 -1.18071,0 -3.35264,-0.61753 -4.8125,-1.375 -1.45986,-0.75747 -4.90625,-1.89877 -7.65625,-2.53125 -3.84931,-0.88531 -5.86376,-2.12401 -8.78125,-5.375 -2.08429,-2.32254 -4.2354,-5.23125 -4.75,-6.46875 -0.85272,-2.05063 -1.59096,-2.25 -8.4375,-2.25 l -7.5,0 -2.40625,-3.75 c -1.32807,-2.0625 -4.24497,-5.73647 -6.46875,-8.15625 -3.14576,-3.42302 -4.82444,-4.43944 -7.59375,-4.625 -6.83799,-0.45818 -11.13058,-5.34708 -9.9375,-11.3125 0.48959,-2.44795 0.13439,-2.99718 -2.4375,-4.0625 -2.40101,-0.99453 -3.37695,-0.9901 -5.0625,0.0625 -1.91632,1.19676 -2.60379,0.80899 -7.96875,-4.5 l -5.875,-5.8125 -4.875,1.03125 c -9.25813,1.92469 -11.52111,2.62722 -11.5625,3.625 -0.09,2.17025 -2.79122,7.5 -3.8125,7.5 -0.59573,0 -2.713,-0.675 -4.6875,-1.5 -1.97451,-0.825 -4.85101,-1.5 -6.375,-1.5 -2.82547,4e-5 -3.96875,-1.48654 -3.96875,-5.125 0,-2.88825 -2.82801,-7.875 -4.46875,-7.875 -3.23193,0 -6.50898,-4.38688 -6.9375,-9.3125 -0.23057,-2.65024 -1.12185,-5.62339 -2,-6.59375 -0.87816,-0.97035 -2.32076,-3.83125 -3.1875,-6.375 -1.64916,-4.83999 -3.80866,-6.34917 -7.46875,-5.1875 -1.5674,0.49748 -2.21126,0.14465 -2.625,-1.4375 -0.30056,-1.14931 -1.10564,-2.09375 -1.78125,-2.09375 -0.67561,0 -2.03576,-0.9 -3.03125,-2 -0.99549,-1.1 -2.42583,-2 -3.1875,-2 -4.92247,0 -15.66797,-8.96483 -16.65625,-13.90625 -1.21504,-6.0752 -9.52789,-8.69013 -18.15625,-5.6875 -2.19856,0.76509 -4.33606,1.19333 -4.75,0.9375 -0.41394,-0.25583 -0.75,-2.23871 -0.75,-4.40625 0,-3.61489 -0.21091,-3.9375 -2.6875,-3.9375 z m -100.25,15 c -5.93049,0 -8.70377,2.33396 -5.53125,4.65625 2.15401,1.57675 5.58168,1.0919 9.25,-1.28125 3.25915,-2.10845 1.85424,-3.375 -3.71875,-3.375 z m -20.875,10.09375 c -0.38833,10e-4 -0.71018,0.0853 -0.875,0.25 -0.71223,0.71244 1.55198,3.65625 2.8125,3.65625 1.50909,0 0.96621,-3.03366 -0.65625,-3.65625 -0.42436,-0.16285 -0.89292,-0.25128 -1.28125,-0.25 z m 174.90625,1.90625 c -1.04116,0 -2.15217,0.675 -2.46875,1.5 -0.58769,1.53148 2.36096,2.20155 3.71875,0.84375 1.24518,-1.24518 0.64962,-2.34375 -1.25,-2.34375 z m -170.5625,6.46875 c -0.94245,0.006 -2.16639,0.37187 -3.125,1 -1.27815,0.83748 -3.03065,1.53125 -3.875,1.53125 -0.87986,0 -1.53125,0.85903 -1.53125,2.03125 0,1.81715 0.41833,1.97642 3.75,1.375 4.85081,-0.87565 7.25,-2.14889 7.25,-3.84375 0,-0.74681 -0.75375,-1.62243 -1.65625,-1.96875 -0.22562,-0.0866 -0.49835,-0.12706 -0.8125,-0.125 z m 117.03125,43.84375 c 0.75829,-0.004 1.59556,0.24431 2.84375,0.65625 3.3853,1.11725 3.59375,1.4426 3.59375,5.5625 0,2.39988 0.45,4.62883 1,4.96875 1.11333,0.68807 1.35439,4.80187 0.34375,5.8125 -0.35665,0.35666 -1.69951,0.38891 -3,0.0625 -1.30049,-0.3264 -3.0236,-0.061 -3.8125,0.59375 -0.86042,0.71408 -3.49878,1.01643 -6.625,0.78125 -4.18204,-0.31462 -5.37575,-0.78119 -6,-2.46875 -1.08122,-2.9228 2.64602,-9.93312 7.25,-13.59375 2.12626,-1.69058 3.14243,-2.36913 4.40625,-2.375 z M 212.78125,689.5 c 0.19671,-0.004 0.4099,0.0426 0.59375,0.15625 1.23154,0.76113 1.09184,3.19001 -0.21875,4 -0.59792,0.36954 -1.56748,0.18252 -2.15625,-0.40625 -1.09191,-1.09191 0.40431,-3.72054 1.78125,-3.75 z m 5.90625,17.59375 c 0.66475,0 1.6155,1.69006 2.125,3.75 0.72723,2.94023 1.72757,4.12351 4.65625,5.5 2.30619,1.08391 3.97039,2.66866 4.34375,4.15625 0.33219,1.32353 1.70278,3.43948 3.03125,4.6875 3.02777,2.84445 3.08844,5.69271 0.15625,6.78125 -1.2375,0.45941 -3.89955,1.13357 -5.90625,1.5 -2.00671,0.36643 -4.8341,1.61168 -6.28125,2.75 l -2.625,2.0625 -7.375,-6.59375 c -4.05341,-3.62778 -7.85161,-6.59375 -8.4375,-6.59375 -1.86134,0 -3.2535,-3.9266 -2.9375,-8.28125 0.32351,-4.45822 -0.0243,-4.27023 6.3125,-3.59375 0.55001,0.0587 1.77928,-0.20323 2.71875,-0.59375 1.28306,-0.53334 1.86893,-0.0793 2.34375,1.8125 0.91926,3.66263 3.31715,4.24236 3.21875,0.78125 -0.0877,-3.08522 2.80268,-8.125 4.65625,-8.125 z M 232.25,789.1875 c -0.34786,0 -0.70233,0.20233 -1.09375,0.59375 -1.32782,1.32782 0.50428,2.79029 2.1875,1.75 0.78285,-0.48382 0.78285,-0.96715 0,-1.75 -0.39141,-0.39142 -0.74589,-0.59375 -1.09375,-0.59375 z m 129.6875,262.25 c -0.95737,0.074 -1.6875,0.8699 -1.6875,2.1563 0,1.7995 1.72864,2.8287 3.5625,2.125 1.85112,-0.7103 1.82235,-2.0554 -0.0312,-3.5938 -0.62093,-0.5153 -1.26933,-0.7318 -1.84375,-0.6875 z m 41.625,15.9063 c 0.13989,0.068 0.24797,0.1027 0.40625,0.1874 0.1217,0.065 0.32838,0.1265 0.53125,0.1876 -0.36225,-0.1727 -0.68681,-0.3191 -0.9375,-0.375 z"
         id="path3173"
         inkscape:connector-curvature="0"
         sodipodi:nodetypes="ssssssssssssssscsssssssssscscssssssssssssssssssssssssscssssssssssssssssscsscsscsscscccsssccssccscccsccsscssccccccscccsssssssssssssccsssscccccsscsssssssssssssssssssscscsssssccssssscsssscscscssscsssssssssscccsscssssssssscscccccccc" />
    </clipPath>
    <clipPath
       clipPathUnits="userSpaceOnUse"
       id="clipPath3175">
      <path
         style="fill:#ff0000"
         d="m 195.25,600.09375 c -0.55,0 -1,0.675 -1,1.5 0,0.825 0.45,1.5 1,1.5 0.55,0 1,-0.675 1,-1.5 0,-0.825 -0.45,-1.5 -1,-1.5 z m 5.3125,4 c -2.1,0 -2.43333,0.25417 -1.5,1.1875 1.84386,1.84386 1.43137,3.59339 -1.03125,4.375 -3.65925,1.1614 -7.78125,4.69049 -7.78125,6.65625 0,2.10614 -4.33874,4.13582 -7.03125,3.28125 -0.97815,-0.31045 -2.51937,-1.6777 -3.40625,-3.03125 -2.19913,-3.3563 -5.17039,-3.15893 -7.0625,0.5 -0.84843,1.64069 -3.00306,3.74519 -4.78125,4.65625 -1.77819,0.91105 -3.50496,2.0698 -3.84375,2.59375 -0.37282,0.57659 -1.41377,0.46345 -2.65625,-0.3125 -1.65465,-1.03335 -2.36715,-1.04929 -3.59375,-0.0312 -0.83697,0.69462 -1.27534,1.84498 -1,2.5625 0.50755,1.32265 -1.27469,1.91043 -10.59375,3.375 -3.57139,0.56128 -4.92088,1.37519 -6.75,4.09375 -2.36508,3.51509 -3.03066,8.51256 -1.28125,9.59375 0.55,0.33992 1,1.49496 1,2.5625 0,1.47544 -0.70016,1.9375 -2.90625,1.9375 -2.3037,0 -3.10334,0.60303 -3.90625,2.90625 -0.72595,2.08245 -1.8867,3.10213 -4.125,3.59375 -2.22411,0.4885 -4.29088,2.23524 -7.1875,6.15625 -3.50913,4.75014 -4.4116,5.41484 -6.5625,4.875 -1.49038,-0.37406 -2.23135,-0.23282 -1.875,0.34375 0.32739,0.52973 1.91338,1.26966 3.53125,1.625 3.55529,0.78088 8.26198,4.31028 7.46875,5.59375 -0.31434,0.50863 -3.18661,2.68859 -6.40625,4.875 -4.45587,3.02593 -6.14106,4.88045 -7.0625,7.75 -0.66579,2.07342 -1.89767,4.5592 -2.71875,5.5 -1.71018,1.95957 -1.35723,4.91042 1.4375,12.25 1.70832,4.48644 2.38655,5.18078 6.78125,6.8125 2.68526,0.99702 5.37744,2.5236 6,3.375 0.64519,0.88235 2.20068,1.38413 3.59375,1.1875 1.94757,-0.2749 2.39151,-0.87663 2.1875,-2.90625 -0.21303,-2.11921 0.34682,-2.7687 3.40625,-3.875 3.33018,-1.20421 3.81885,-1.13707 5.0625,0.5625 0.75523,1.03209 2.06645,4.2375 2.90625,7.125 1.18328,4.06845 1.95416,5.25 3.5,5.25 1.09713,0 2.88679,0.48345 3.96875,1.0625 1.41082,0.75504 2.93645,0.69429 5.375,-0.1875 3.24141,-1.17211 3.57228,-1.06355 7.34375,2.34375 2.17595,1.96584 4.92462,3.87893 6.09375,4.25 2.35188,0.74646 8.04885,-2.17612 11.90625,-6.125 1.84668,-1.89048 2.68263,-2.15133 4.25,-1.3125 1.07313,0.57433 1.9375,1.91935 1.9375,3 0,1.41373 0.69009,1.96875 2.4375,1.96875 2.8513,0 5.5625,2.39016 5.5625,4.90625 0,0.97547 0.9,2.59826 2,3.59375 1.1,0.99549 2,2.88007 2,4.1875 0,5.41833 2.71811,9.27949 8.21875,11.71875 7.4175,3.2893 9.07705,5.48163 9.59375,12.625 0.25362,3.50623 0.89812,5.96583 1.5625,5.96875 2.22647,0.01 7.04708,4.79948 8.15625,8.09375 0.93363,2.77292 1.79513,3.49687 4.96875,4.15625 2.11308,0.43903 4.31318,1.19719 4.90625,1.6875 0.59307,0.49031 2.44375,1.03259 4.09375,1.21875 2.61262,0.29478 3,0.74814 3,3.4375 0,1.77697 1.06572,4.47237 2.53125,6.375 2.47092,3.20787 2.67627,3.27319 6.25,2.09375 4.04932,-1.33639 5.69503,-0.82832 5.78125,1.75 0.14177,4.23973 5.96607,18.91383 9.28125,23.375 4.31869,5.81158 4.95578,11.32647 1.65625,14.3125 -3.27433,2.96323 -2.6572,8.32497 1.59375,13.78125 3.37822,4.33609 3.55072,4.93913 2.90625,9.625 -0.37771,2.7463 -1.31655,5.51123 -2.09375,6.15625 -2.05244,1.70337 -1.73621,3.9375 0.5625,3.9375 1.88645,0 2.43089,1.0251 3.25,6.375 0.15891,1.03793 1.30364,2.28526 2.5625,2.75 1.86236,0.68755 2.457,0.40998 3.1875,-1.40625 0.61232,-1.52238 0.92552,-1.70379 0.96875,-0.59375 0.0349,0.89515 -0.6125,2.19031 -1.4375,2.875 -1.69604,1.40759 -2.0157,5.56324 -0.5,6.5 1.57819,0.97538 1.15684,3.68645 -0.90625,5.93745 -3.00858,3.2828 -3.57509,8.0214 -1.25,10.2188 1.07302,1.0141 2.11564,2.6962 2.3125,3.75 0.24866,1.3311 1.71025,2.2468 4.8125,3 3.77659,0.9168 4.56768,1.5565 5.15625,4.0938 1.36472,5.8831 3.78368,16.0666 4.75,19.9374 0.60833,2.4368 2.40388,5.2206 4.6875,7.3126 3.42772,3.1403 3.65743,3.6744 3.1875,7.8437 -0.33686,2.9886 -0.0739,4.9261 0.8125,5.8125 0.73153,0.7315 2.29274,4.2132 3.46875,7.7188 1.17601,3.5054 2.70379,7.0499 3.40625,7.875 0.70247,0.825 2.68838,5.0319 4.40625,9.3437 1.71787,4.3118 4.27382,9.16955 5.65625,10.81245 1.38242,1.6429 2.5,3.6424 2.5,4.4375 0,0.7951 1.73626,3.3623 3.84375,5.6875 2.1075,2.3253 5.26233,6.3563 7.03125,8.9688 1.76893,2.6124 3.58686,4.75 4.03125,4.75 1.21173,0 8.0648,9.5037 14.9375,20.6874 3.35735,5.4633 7.24269,10.9827 8.625,12.2813 2.44039,2.2927 2.57909,2.2979 4.53125,0.5313 1.10576,-1.0008 2,-2.2634 2,-2.8126 0,-1.574 5.06919,-11.8769 7.46875,-15.1874 1.19594,-1.6501 3.02118,-5.0251 4.0625,-7.5 1.04132,-2.475 3.26655,-6.1452 4.9375,-8.1563 7.57295,-9.1149 12.53125,-20.4265 12.53125,-28.56245 0,-5.0806 1.70147,-3.8853 3.5,2.46875 0.89516,3.1624 1.86385,6.5638 2.15625,7.5624 0.72455,2.4747 6.26115,8.6876 7.75,8.6876 0.66288,0 3.74577,-1.5408 6.84375,-3.4063 3.09797,-1.8655 5.82139,-3.1786 6.0625,-2.9375 0.24112,0.2412 0.75885,-0.76 1.125,-2.2188 0.42879,-1.7084 0.10412,-3.4892 -0.90625,-5.0312 -1.58034,-2.4119 -1.35644,-2.7517 1.59375,-2.4688 0.88648,0.085 2.93553,-1.3657 4.5625,-3.21865 1.62697,-1.8531 3.47595,-3.6926 4.125,-4.0937 0.045,-0.028 0.0831,-0.029 0.125,0 3.81609,-79.35234 3.15967,-125.09453 -0.3125,-163.4688 -0.005,-0.006 0.005,-0.0251 0,-0.0312 -0.35073,-0.44123 -0.625,-1.10131 -0.625,-1.6875 0,-0.57558 0.25313,-1.05086 0.59375,-1.28125 -0.003,-1.08864 0.003,-2.76701 0,-3.84375 L 429,808.84375 c -1.69655,-1.12352 -2.41478,-2.81691 -2.875,-6.875 -0.66733,-5.88418 -2.53289,-10.5427 -6.375,-15.78125 -2.31232,-3.15278 -3.51462,-7.82866 -1.71875,-6.71875 1.54014,0.95186 -0.99904,-11.96304 -3.375,-17.15625 -1.32664,-2.89969 -2.40625,-6.95344 -2.40625,-9.03125 0,-2.07782 -0.52934,-4.3106 -1.15625,-4.9375 -0.62691,-0.62691 -1.48199,-3.31609 -1.90625,-6 -1.20024,-7.59272 -3.45119,-12.25 -5.96875,-12.25 -1.18071,0 -3.35264,-0.61753 -4.8125,-1.375 -1.45986,-0.75747 -4.90625,-1.89877 -7.65625,-2.53125 -3.84931,-0.88531 -5.86376,-2.12401 -8.78125,-5.375 -2.08429,-2.32254 -4.2354,-5.23125 -4.75,-6.46875 -0.85272,-2.05063 -1.59096,-2.25 -8.4375,-2.25 l -7.5,0 -2.40625,-3.75 c -1.32807,-2.0625 -4.24497,-5.73647 -6.46875,-8.15625 -3.14576,-3.42302 -4.82444,-4.43944 -7.59375,-4.625 -6.83799,-0.45818 -11.13058,-5.34708 -9.9375,-11.3125 0.48959,-2.44795 0.13439,-2.99718 -2.4375,-4.0625 -2.40101,-0.99453 -3.37695,-0.9901 -5.0625,0.0625 -1.91632,1.19676 -2.60379,0.80899 -7.96875,-4.5 l -5.875,-5.8125 -4.875,1.03125 c -9.25813,1.92469 -11.52111,2.62722 -11.5625,3.625 -0.09,2.17025 -2.79122,7.5 -3.8125,7.5 -0.59573,0 -2.713,-0.675 -4.6875,-1.5 -1.97451,-0.825 -4.85101,-1.5 -6.375,-1.5 -2.82547,4e-5 -3.96875,-1.48654 -3.96875,-5.125 0,-2.88825 -2.82801,-7.875 -4.46875,-7.875 -3.23193,0 -6.50898,-4.38688 -6.9375,-9.3125 -0.23057,-2.65024 -1.12185,-5.62339 -2,-6.59375 -0.87816,-0.97035 -2.32076,-3.83125 -3.1875,-6.375 -1.64916,-4.83999 -3.80866,-6.34917 -7.46875,-5.1875 -1.5674,0.49748 -2.21126,0.14465 -2.625,-1.4375 -0.30056,-1.14931 -1.10564,-2.09375 -1.78125,-2.09375 -0.67561,0 -2.03576,-0.9 -3.03125,-2 -0.99549,-1.1 -2.42583,-2 -3.1875,-2 -4.92247,0 -15.66797,-8.96483 -16.65625,-13.90625 -1.21504,-6.0752 -9.52789,-8.69013 -18.15625,-5.6875 -2.19856,0.76509 -4.33606,1.19333 -4.75,0.9375 -0.41394,-0.25583 -0.75,-2.23871 -0.75,-4.40625 0,-3.61489 -0.21091,-3.9375 -2.6875,-3.9375 z m -100.25,15 c -5.93049,0 -8.70377,2.33396 -5.53125,4.65625 2.15401,1.57675 5.58168,1.0919 9.25,-1.28125 3.25915,-2.10845 1.85424,-3.375 -3.71875,-3.375 z m -20.875,10.09375 c -0.38833,10e-4 -0.71018,0.0853 -0.875,0.25 -0.71223,0.71244 1.55198,3.65625 2.8125,3.65625 1.50909,0 0.96621,-3.03366 -0.65625,-3.65625 -0.42436,-0.16285 -0.89292,-0.25128 -1.28125,-0.25 z m 174.90625,1.90625 c -1.04116,0 -2.15217,0.675 -2.46875,1.5 -0.58769,1.53148 2.36096,2.20155 3.71875,0.84375 1.24518,-1.24518 0.64962,-2.34375 -1.25,-2.34375 z m -170.5625,6.46875 c -0.94245,0.006 -2.16639,0.37187 -3.125,1 -1.27815,0.83748 -3.03065,1.53125 -3.875,1.53125 -0.87986,0 -1.53125,0.85903 -1.53125,2.03125 0,1.81715 0.41833,1.97642 3.75,1.375 4.85081,-0.87565 7.25,-2.14889 7.25,-3.84375 0,-0.74681 -0.75375,-1.62243 -1.65625,-1.96875 -0.22562,-0.0866 -0.49835,-0.12706 -0.8125,-0.125 z m 117.03125,43.84375 c 0.75829,-0.004 1.59556,0.24431 2.84375,0.65625 3.3853,1.11725 3.59375,1.4426 3.59375,5.5625 0,2.39988 0.45,4.62883 1,4.96875 1.11333,0.68807 1.35439,4.80187 0.34375,5.8125 -0.35665,0.35666 -1.69951,0.38891 -3,0.0625 -1.30049,-0.3264 -3.0236,-0.061 -3.8125,0.59375 -0.86042,0.71408 -3.49878,1.01643 -6.625,0.78125 -4.18204,-0.31462 -5.37575,-0.78119 -6,-2.46875 -1.08122,-2.9228 2.64602,-9.93312 7.25,-13.59375 2.12626,-1.69058 3.14243,-2.36913 4.40625,-2.375 z M 212.78125,689.5 c 0.19671,-0.004 0.4099,0.0426 0.59375,0.15625 1.23154,0.76113 1.09184,3.19001 -0.21875,4 -0.59792,0.36954 -1.56748,0.18252 -2.15625,-0.40625 -1.09191,-1.09191 0.40431,-3.72054 1.78125,-3.75 z m 5.90625,17.59375 c 0.66475,0 1.6155,1.69006 2.125,3.75 0.72723,2.94023 1.72757,4.12351 4.65625,5.5 2.30619,1.08391 3.97039,2.66866 4.34375,4.15625 0.33219,1.32353 1.70278,3.43948 3.03125,4.6875 3.02777,2.84445 3.08844,5.69271 0.15625,6.78125 -1.2375,0.45941 -3.89955,1.13357 -5.90625,1.5 -2.00671,0.36643 -4.8341,1.61168 -6.28125,2.75 l -2.625,2.0625 -7.375,-6.59375 c -4.05341,-3.62778 -7.85161,-6.59375 -8.4375,-6.59375 -1.86134,0 -3.2535,-3.9266 -2.9375,-8.28125 0.32351,-4.45822 -0.0243,-4.27023 6.3125,-3.59375 0.55001,0.0587 1.77928,-0.20323 2.71875,-0.59375 1.28306,-0.53334 1.86893,-0.0793 2.34375,1.8125 0.91926,3.66263 3.31715,4.24236 3.21875,0.78125 -0.0877,-3.08522 2.80268,-8.125 4.65625,-8.125 z M 232.25,789.1875 c -0.34786,0 -0.70233,0.20233 -1.09375,0.59375 -1.32782,1.32782 0.50428,2.79029 2.1875,1.75 0.78285,-0.48382 0.78285,-0.96715 0,-1.75 -0.39141,-0.39142 -0.74589,-0.59375 -1.09375,-0.59375 z m 129.6875,262.25 c -0.95737,0.074 -1.6875,0.8699 -1.6875,2.1563 0,1.7995 1.72864,2.8287 3.5625,2.125 1.85112,-0.7103 1.82235,-2.0554 -0.0312,-3.5938 -0.62093,-0.5153 -1.26933,-0.7318 -1.84375,-0.6875 z m 41.625,15.9063 c 0.13989,0.068 0.24797,0.1027 0.40625,0.1874 0.1217,0.065 0.32838,0.1265 0.53125,0.1876 -0.36225,-0.1727 -0.68681,-0.3191 -0.9375,-0.375 z"
         id="path3177"
         inkscape:connector-curvature="0"
         sodipodi:nodetypes="ssssssssssssssscsssssssssscscssssssssssssssssssssssssscssssssssssssssssscsscsscsscscccsssccssccscccsccsscssccccccscccsssssssssssssccsssscccccsscsssssssssssssssssssscscsssssccssssscsssscscscssscsssssssssscccsscssssssssscscccccccc" />
    </clipPath>
    <clipPath
       clipPathUnits="userSpaceOnUse"
       id="clipPath3179">
      <path
         style="fill:#ff0000"
         d="m 195.25,600.09375 c -0.55,0 -1,0.675 -1,1.5 0,0.825 0.45,1.5 1,1.5 0.55,0 1,-0.675 1,-1.5 0,-0.825 -0.45,-1.5 -1,-1.5 z m 5.3125,4 c -2.1,0 -2.43333,0.25417 -1.5,1.1875 1.84386,1.84386 1.43137,3.59339 -1.03125,4.375 -3.65925,1.1614 -7.78125,4.69049 -7.78125,6.65625 0,2.10614 -4.33874,4.13582 -7.03125,3.28125 -0.97815,-0.31045 -2.51937,-1.6777 -3.40625,-3.03125 -2.19913,-3.3563 -5.17039,-3.15893 -7.0625,0.5 -0.84843,1.64069 -3.00306,3.74519 -4.78125,4.65625 -1.77819,0.91105 -3.50496,2.0698 -3.84375,2.59375 -0.37282,0.57659 -1.41377,0.46345 -2.65625,-0.3125 -1.65465,-1.03335 -2.36715,-1.04929 -3.59375,-0.0312 -0.83697,0.69462 -1.27534,1.84498 -1,2.5625 0.50755,1.32265 -1.27469,1.91043 -10.59375,3.375 -3.57139,0.56128 -4.92088,1.37519 -6.75,4.09375 -2.36508,3.51509 -3.03066,8.51256 -1.28125,9.59375 0.55,0.33992 1,1.49496 1,2.5625 0,1.47544 -0.70016,1.9375 -2.90625,1.9375 -2.3037,0 -3.10334,0.60303 -3.90625,2.90625 -0.72595,2.08245 -1.8867,3.10213 -4.125,3.59375 -2.22411,0.4885 -4.29088,2.23524 -7.1875,6.15625 -3.50913,4.75014 -4.4116,5.41484 -6.5625,4.875 -1.49038,-0.37406 -2.23135,-0.23282 -1.875,0.34375 0.32739,0.52973 1.91338,1.26966 3.53125,1.625 3.55529,0.78088 8.26198,4.31028 7.46875,5.59375 -0.31434,0.50863 -3.18661,2.68859 -6.40625,4.875 -4.45587,3.02593 -6.14106,4.88045 -7.0625,7.75 -0.66579,2.07342 -1.89767,4.5592 -2.71875,5.5 -1.71018,1.95957 -1.35723,4.91042 1.4375,12.25 1.70832,4.48644 2.38655,5.18078 6.78125,6.8125 2.68526,0.99702 5.37744,2.5236 6,3.375 0.64519,0.88235 2.20068,1.38413 3.59375,1.1875 1.94757,-0.2749 2.39151,-0.87663 2.1875,-2.90625 -0.21303,-2.11921 0.34682,-2.7687 3.40625,-3.875 3.33018,-1.20421 3.81885,-1.13707 5.0625,0.5625 0.75523,1.03209 2.06645,4.2375 2.90625,7.125 1.18328,4.06845 1.95416,5.25 3.5,5.25 1.09713,0 2.88679,0.48345 3.96875,1.0625 1.41082,0.75504 2.93645,0.69429 5.375,-0.1875 3.24141,-1.17211 3.57228,-1.06355 7.34375,2.34375 2.17595,1.96584 4.92462,3.87893 6.09375,4.25 2.35188,0.74646 8.04885,-2.17612 11.90625,-6.125 1.84668,-1.89048 2.68263,-2.15133 4.25,-1.3125 1.07313,0.57433 1.9375,1.91935 1.9375,3 0,1.41373 0.69009,1.96875 2.4375,1.96875 2.8513,0 5.5625,2.39016 5.5625,4.90625 0,0.97547 0.9,2.59826 2,3.59375 1.1,0.99549 2,2.88007 2,4.1875 0,5.41833 2.71811,9.27949 8.21875,11.71875 7.4175,3.2893 9.07705,5.48163 9.59375,12.625 0.25362,3.50623 0.89812,5.96583 1.5625,5.96875 2.22647,0.01 7.04708,4.79948 8.15625,8.09375 0.93363,2.77292 1.79513,3.49687 4.96875,4.15625 2.11308,0.43903 4.31318,1.19719 4.90625,1.6875 0.59307,0.49031 2.44375,1.03259 4.09375,1.21875 2.61262,0.29478 3,0.74814 3,3.4375 0,1.77697 1.06572,4.47237 2.53125,6.375 2.47092,3.20787 2.67627,3.27319 6.25,2.09375 4.04932,-1.33639 5.69503,-0.82832 5.78125,1.75 0.14177,4.23973 5.96607,18.91383 9.28125,23.375 4.31869,5.81158 4.95578,11.32647 1.65625,14.3125 -3.27433,2.96323 -2.6572,8.32497 1.59375,13.78125 3.37822,4.33609 3.55072,4.93913 2.90625,9.625 -0.37771,2.7463 -1.31655,5.51123 -2.09375,6.15625 -2.05244,1.70337 -1.73621,3.9375 0.5625,3.9375 1.88645,0 2.43089,1.0251 3.25,6.375 0.15891,1.03793 1.30364,2.28526 2.5625,2.75 1.86236,0.68755 2.457,0.40998 3.1875,-1.40625 0.61232,-1.52238 0.92552,-1.70379 0.96875,-0.59375 0.0349,0.89515 -0.6125,2.19031 -1.4375,2.875 -1.69604,1.40759 -2.0157,5.56324 -0.5,6.5 1.57819,0.97538 1.15684,3.68645 -0.90625,5.93745 -3.00858,3.2828 -3.57509,8.0214 -1.25,10.2188 1.07302,1.0141 2.11564,2.6962 2.3125,3.75 0.24866,1.3311 1.71025,2.2468 4.8125,3 3.77659,0.9168 4.56768,1.5565 5.15625,4.0938 1.36472,5.8831 3.78368,16.0666 4.75,19.9374 0.60833,2.4368 2.40388,5.2206 4.6875,7.3126 3.42772,3.1403 3.65743,3.6744 3.1875,7.8437 -0.33686,2.9886 -0.0739,4.9261 0.8125,5.8125 0.73153,0.7315 2.29274,4.2132 3.46875,7.7188 1.17601,3.5054 2.70379,7.0499 3.40625,7.875 0.70247,0.825 2.68838,5.0319 4.40625,9.3437 1.71787,4.3118 4.27382,9.16955 5.65625,10.81245 1.38242,1.6429 2.5,3.6424 2.5,4.4375 0,0.7951 1.73626,3.3623 3.84375,5.6875 2.1075,2.3253 5.26233,6.3563 7.03125,8.9688 1.76893,2.6124 3.58686,4.75 4.03125,4.75 1.21173,0 8.0648,9.5037 14.9375,20.6874 3.35735,5.4633 7.24269,10.9827 8.625,12.2813 2.44039,2.2927 2.57909,2.2979 4.53125,0.5313 1.10576,-1.0008 2,-2.2634 2,-2.8126 0,-1.574 5.06919,-11.8769 7.46875,-15.1874 1.19594,-1.6501 3.02118,-5.0251 4.0625,-7.5 1.04132,-2.475 3.26655,-6.1452 4.9375,-8.1563 7.57295,-9.1149 12.53125,-20.4265 12.53125,-28.56245 0,-5.0806 1.70147,-3.8853 3.5,2.46875 0.89516,3.1624 1.86385,6.5638 2.15625,7.5624 0.72455,2.4747 6.26115,8.6876 7.75,8.6876 0.66288,0 3.74577,-1.5408 6.84375,-3.4063 3.09797,-1.8655 5.82139,-3.1786 6.0625,-2.9375 0.24112,0.2412 0.75885,-0.76 1.125,-2.2188 0.42879,-1.7084 0.10412,-3.4892 -0.90625,-5.0312 -1.58034,-2.4119 -1.35644,-2.7517 1.59375,-2.4688 0.88648,0.085 2.93553,-1.3657 4.5625,-3.21865 1.62697,-1.8531 3.47595,-3.6926 4.125,-4.0937 0.045,-0.028 0.0831,-0.029 0.125,0 3.81609,-79.35234 3.15967,-125.09453 -0.3125,-163.4688 -0.005,-0.006 0.005,-0.0251 0,-0.0312 -0.35073,-0.44123 -0.625,-1.10131 -0.625,-1.6875 0,-0.57558 0.25313,-1.05086 0.59375,-1.28125 -0.003,-1.08864 0.003,-2.76701 0,-3.84375 L 429,808.84375 c -1.69655,-1.12352 -2.41478,-2.81691 -2.875,-6.875 -0.66733,-5.88418 -2.53289,-10.5427 -6.375,-15.78125 -2.31232,-3.15278 -3.51462,-7.82866 -1.71875,-6.71875 1.54014,0.95186 -0.99904,-11.96304 -3.375,-17.15625 -1.32664,-2.89969 -2.40625,-6.95344 -2.40625,-9.03125 0,-2.07782 -0.52934,-4.3106 -1.15625,-4.9375 -0.62691,-0.62691 -1.48199,-3.31609 -1.90625,-6 -1.20024,-7.59272 -3.45119,-12.25 -5.96875,-12.25 -1.18071,0 -3.35264,-0.61753 -4.8125,-1.375 -1.45986,-0.75747 -4.90625,-1.89877 -7.65625,-2.53125 -3.84931,-0.88531 -5.86376,-2.12401 -8.78125,-5.375 -2.08429,-2.32254 -4.2354,-5.23125 -4.75,-6.46875 -0.85272,-2.05063 -1.59096,-2.25 -8.4375,-2.25 l -7.5,0 -2.40625,-3.75 c -1.32807,-2.0625 -4.24497,-5.73647 -6.46875,-8.15625 -3.14576,-3.42302 -4.82444,-4.43944 -7.59375,-4.625 -6.83799,-0.45818 -11.13058,-5.34708 -9.9375,-11.3125 0.48959,-2.44795 0.13439,-2.99718 -2.4375,-4.0625 -2.40101,-0.99453 -3.37695,-0.9901 -5.0625,0.0625 -1.91632,1.19676 -2.60379,0.80899 -7.96875,-4.5 l -5.875,-5.8125 -4.875,1.03125 c -9.25813,1.92469 -11.52111,2.62722 -11.5625,3.625 -0.09,2.17025 -2.79122,7.5 -3.8125,7.5 -0.59573,0 -2.713,-0.675 -4.6875,-1.5 -1.97451,-0.825 -4.85101,-1.5 -6.375,-1.5 -2.82547,4e-5 -3.96875,-1.48654 -3.96875,-5.125 0,-2.88825 -2.82801,-7.875 -4.46875,-7.875 -3.23193,0 -6.50898,-4.38688 -6.9375,-9.3125 -0.23057,-2.65024 -1.12185,-5.62339 -2,-6.59375 -0.87816,-0.97035 -2.32076,-3.83125 -3.1875,-6.375 -1.64916,-4.83999 -3.80866,-6.34917 -7.46875,-5.1875 -1.5674,0.49748 -2.21126,0.14465 -2.625,-1.4375 -0.30056,-1.14931 -1.10564,-2.09375 -1.78125,-2.09375 -0.67561,0 -2.03576,-0.9 -3.03125,-2 -0.99549,-1.1 -2.42583,-2 -3.1875,-2 -4.92247,0 -15.66797,-8.96483 -16.65625,-13.90625 -1.21504,-6.0752 -9.52789,-8.69013 -18.15625,-5.6875 -2.19856,0.76509 -4.33606,1.19333 -4.75,0.9375 -0.41394,-0.25583 -0.75,-2.23871 -0.75,-4.40625 0,-3.61489 -0.21091,-3.9375 -2.6875,-3.9375 z m -100.25,15 c -5.93049,0 -8.70377,2.33396 -5.53125,4.65625 2.15401,1.57675 5.58168,1.0919 9.25,-1.28125 3.25915,-2.10845 1.85424,-3.375 -3.71875,-3.375 z m -20.875,10.09375 c -0.38833,10e-4 -0.71018,0.0853 -0.875,0.25 -0.71223,0.71244 1.55198,3.65625 2.8125,3.65625 1.50909,0 0.96621,-3.03366 -0.65625,-3.65625 -0.42436,-0.16285 -0.89292,-0.25128 -1.28125,-0.25 z m 174.90625,1.90625 c -1.04116,0 -2.15217,0.675 -2.46875,1.5 -0.58769,1.53148 2.36096,2.20155 3.71875,0.84375 1.24518,-1.24518 0.64962,-2.34375 -1.25,-2.34375 z m -170.5625,6.46875 c -0.94245,0.006 -2.16639,0.37187 -3.125,1 -1.27815,0.83748 -3.03065,1.53125 -3.875,1.53125 -0.87986,0 -1.53125,0.85903 -1.53125,2.03125 0,1.81715 0.41833,1.97642 3.75,1.375 4.85081,-0.87565 7.25,-2.14889 7.25,-3.84375 0,-0.74681 -0.75375,-1.62243 -1.65625,-1.96875 -0.22562,-0.0866 -0.49835,-0.12706 -0.8125,-0.125 z m 117.03125,43.84375 c 0.75829,-0.004 1.59556,0.24431 2.84375,0.65625 3.3853,1.11725 3.59375,1.4426 3.59375,5.5625 0,2.39988 0.45,4.62883 1,4.96875 1.11333,0.68807 1.35439,4.80187 0.34375,5.8125 -0.35665,0.35666 -1.69951,0.38891 -3,0.0625 -1.30049,-0.3264 -3.0236,-0.061 -3.8125,0.59375 -0.86042,0.71408 -3.49878,1.01643 -6.625,0.78125 -4.18204,-0.31462 -5.37575,-0.78119 -6,-2.46875 -1.08122,-2.9228 2.64602,-9.93312 7.25,-13.59375 2.12626,-1.69058 3.14243,-2.36913 4.40625,-2.375 z M 212.78125,689.5 c 0.19671,-0.004 0.4099,0.0426 0.59375,0.15625 1.23154,0.76113 1.09184,3.19001 -0.21875,4 -0.59792,0.36954 -1.56748,0.18252 -2.15625,-0.40625 -1.09191,-1.09191 0.40431,-3.72054 1.78125,-3.75 z m 5.90625,17.59375 c 0.66475,0 1.6155,1.69006 2.125,3.75 0.72723,2.94023 1.72757,4.12351 4.65625,5.5 2.30619,1.08391 3.97039,2.66866 4.34375,4.15625 0.33219,1.32353 1.70278,3.43948 3.03125,4.6875 3.02777,2.84445 3.08844,5.69271 0.15625,6.78125 -1.2375,0.45941 -3.89955,1.13357 -5.90625,1.5 -2.00671,0.36643 -4.8341,1.61168 -6.28125,2.75 l -2.625,2.0625 -7.375,-6.59375 c -4.05341,-3.62778 -7.85161,-6.59375 -8.4375,-6.59375 -1.86134,0 -3.2535,-3.9266 -2.9375,-8.28125 0.32351,-4.45822 -0.0243,-4.27023 6.3125,-3.59375 0.55001,0.0587 1.77928,-0.20323 2.71875,-0.59375 1.28306,-0.53334 1.86893,-0.0793 2.34375,1.8125 0.91926,3.66263 3.31715,4.24236 3.21875,0.78125 -0.0877,-3.08522 2.80268,-8.125 4.65625,-8.125 z M 232.25,789.1875 c -0.34786,0 -0.70233,0.20233 -1.09375,0.59375 -1.32782,1.32782 0.50428,2.79029 2.1875,1.75 0.78285,-0.48382 0.78285,-0.96715 0,-1.75 -0.39141,-0.39142 -0.74589,-0.59375 -1.09375,-0.59375 z m 129.6875,262.25 c -0.95737,0.074 -1.6875,0.8699 -1.6875,2.1563 0,1.7995 1.72864,2.8287 3.5625,2.125 1.85112,-0.7103 1.82235,-2.0554 -0.0312,-3.5938 -0.62093,-0.5153 -1.26933,-0.7318 -1.84375,-0.6875 z m 41.625,15.9063 c 0.13989,0.068 0.24797,0.1027 0.40625,0.1874 0.1217,0.065 0.32838,0.1265 0.53125,0.1876 -0.36225,-0.1727 -0.68681,-0.3191 -0.9375,-0.375 z"
         id="path3181"
         inkscape:connector-curvature="0"
         sodipodi:nodetypes="ssssssssssssssscsssssssssscscssssssssssssssssssssssssscssssssssssssssssscsscsscsscscccsssccssccscccsccsscssccccccscccsssssssssssssccsssscccccsscsssssssssssssssssssscscsssssccssssscsssscscscssscsssssssssscccsscssssssssscscccccccc" />
    </clipPath>
    <clipPath
       clipPathUnits="userSpaceOnUse"
       id="clipPath3183">
      <path
         style="fill:#ff0000"
         d="m 195.25,600.09375 c -0.55,0 -1,0.675 -1,1.5 0,0.825 0.45,1.5 1,1.5 0.55,0 1,-0.675 1,-1.5 0,-0.825 -0.45,-1.5 -1,-1.5 z m 5.3125,4 c -2.1,0 -2.43333,0.25417 -1.5,1.1875 1.84386,1.84386 1.43137,3.59339 -1.03125,4.375 -3.65925,1.1614 -7.78125,4.69049 -7.78125,6.65625 0,2.10614 -4.33874,4.13582 -7.03125,3.28125 -0.97815,-0.31045 -2.51937,-1.6777 -3.40625,-3.03125 -2.19913,-3.3563 -5.17039,-3.15893 -7.0625,0.5 -0.84843,1.64069 -3.00306,3.74519 -4.78125,4.65625 -1.77819,0.91105 -3.50496,2.0698 -3.84375,2.59375 -0.37282,0.57659 -1.41377,0.46345 -2.65625,-0.3125 -1.65465,-1.03335 -2.36715,-1.04929 -3.59375,-0.0312 -0.83697,0.69462 -1.27534,1.84498 -1,2.5625 0.50755,1.32265 -1.27469,1.91043 -10.59375,3.375 -3.57139,0.56128 -4.92088,1.37519 -6.75,4.09375 -2.36508,3.51509 -3.03066,8.51256 -1.28125,9.59375 0.55,0.33992 1,1.49496 1,2.5625 0,1.47544 -0.70016,1.9375 -2.90625,1.9375 -2.3037,0 -3.10334,0.60303 -3.90625,2.90625 -0.72595,2.08245 -1.8867,3.10213 -4.125,3.59375 -2.22411,0.4885 -4.29088,2.23524 -7.1875,6.15625 -3.50913,4.75014 -4.4116,5.41484 -6.5625,4.875 -1.49038,-0.37406 -2.23135,-0.23282 -1.875,0.34375 0.32739,0.52973 1.91338,1.26966 3.53125,1.625 3.55529,0.78088 8.26198,4.31028 7.46875,5.59375 -0.31434,0.50863 -3.18661,2.68859 -6.40625,4.875 -4.45587,3.02593 -6.14106,4.88045 -7.0625,7.75 -0.66579,2.07342 -1.89767,4.5592 -2.71875,5.5 -1.71018,1.95957 -1.35723,4.91042 1.4375,12.25 1.70832,4.48644 2.38655,5.18078 6.78125,6.8125 2.68526,0.99702 5.37744,2.5236 6,3.375 0.64519,0.88235 2.20068,1.38413 3.59375,1.1875 1.94757,-0.2749 2.39151,-0.87663 2.1875,-2.90625 -0.21303,-2.11921 0.34682,-2.7687 3.40625,-3.875 3.33018,-1.20421 3.81885,-1.13707 5.0625,0.5625 0.75523,1.03209 2.06645,4.2375 2.90625,7.125 1.18328,4.06845 1.95416,5.25 3.5,5.25 1.09713,0 2.88679,0.48345 3.96875,1.0625 1.41082,0.75504 2.93645,0.69429 5.375,-0.1875 3.24141,-1.17211 3.57228,-1.06355 7.34375,2.34375 2.17595,1.96584 4.92462,3.87893 6.09375,4.25 2.35188,0.74646 8.04885,-2.17612 11.90625,-6.125 1.84668,-1.89048 2.68263,-2.15133 4.25,-1.3125 1.07313,0.57433 1.9375,1.91935 1.9375,3 0,1.41373 0.69009,1.96875 2.4375,1.96875 2.8513,0 5.5625,2.39016 5.5625,4.90625 0,0.97547 0.9,2.59826 2,3.59375 1.1,0.99549 2,2.88007 2,4.1875 0,5.41833 2.71811,9.27949 8.21875,11.71875 7.4175,3.2893 9.07705,5.48163 9.59375,12.625 0.25362,3.50623 0.89812,5.96583 1.5625,5.96875 2.22647,0.01 7.04708,4.79948 8.15625,8.09375 0.93363,2.77292 1.79513,3.49687 4.96875,4.15625 2.11308,0.43903 4.31318,1.19719 4.90625,1.6875 0.59307,0.49031 2.44375,1.03259 4.09375,1.21875 2.61262,0.29478 3,0.74814 3,3.4375 0,1.77697 1.06572,4.47237 2.53125,6.375 2.47092,3.20787 2.67627,3.27319 6.25,2.09375 4.04932,-1.33639 5.69503,-0.82832 5.78125,1.75 0.14177,4.23973 5.96607,18.91383 9.28125,23.375 4.31869,5.81158 4.95578,11.32647 1.65625,14.3125 -3.27433,2.96323 -2.6572,8.32497 1.59375,13.78125 3.37822,4.33609 3.55072,4.93913 2.90625,9.625 -0.37771,2.7463 -1.31655,5.51123 -2.09375,6.15625 -2.05244,1.70337 -1.73621,3.9375 0.5625,3.9375 1.88645,0 2.43089,1.0251 3.25,6.375 0.15891,1.03793 1.30364,2.28526 2.5625,2.75 1.86236,0.68755 2.457,0.40998 3.1875,-1.40625 0.61232,-1.52238 0.92552,-1.70379 0.96875,-0.59375 0.0349,0.89515 -0.6125,2.19031 -1.4375,2.875 -1.69604,1.40759 -2.0157,5.56324 -0.5,6.5 1.57819,0.97538 1.15684,3.68645 -0.90625,5.93745 -3.00858,3.2828 -3.57509,8.0214 -1.25,10.2188 1.07302,1.0141 2.11564,2.6962 2.3125,3.75 0.24866,1.3311 1.71025,2.2468 4.8125,3 3.77659,0.9168 4.56768,1.5565 5.15625,4.0938 1.36472,5.8831 3.78368,16.0666 4.75,19.9374 0.60833,2.4368 2.40388,5.2206 4.6875,7.3126 3.42772,3.1403 3.65743,3.6744 3.1875,7.8437 -0.33686,2.9886 -0.0739,4.9261 0.8125,5.8125 0.73153,0.7315 2.29274,4.2132 3.46875,7.7188 1.17601,3.5054 2.70379,7.0499 3.40625,7.875 0.70247,0.825 2.68838,5.0319 4.40625,9.3437 1.71787,4.3118 4.27382,9.16955 5.65625,10.81245 1.38242,1.6429 2.5,3.6424 2.5,4.4375 0,0.7951 1.73626,3.3623 3.84375,5.6875 2.1075,2.3253 5.26233,6.3563 7.03125,8.9688 1.76893,2.6124 3.58686,4.75 4.03125,4.75 1.21173,0 8.0648,9.5037 14.9375,20.6874 3.35735,5.4633 7.24269,10.9827 8.625,12.2813 2.44039,2.2927 2.57909,2.2979 4.53125,0.5313 1.10576,-1.0008 2,-2.2634 2,-2.8126 0,-1.574 5.06919,-11.8769 7.46875,-15.1874 1.19594,-1.6501 3.02118,-5.0251 4.0625,-7.5 1.04132,-2.475 3.26655,-6.1452 4.9375,-8.1563 7.57295,-9.1149 12.53125,-20.4265 12.53125,-28.56245 0,-5.0806 1.70147,-3.8853 3.5,2.46875 0.89516,3.1624 1.86385,6.5638 2.15625,7.5624 0.72455,2.4747 6.26115,8.6876 7.75,8.6876 0.66288,0 3.74577,-1.5408 6.84375,-3.4063 3.09797,-1.8655 5.82139,-3.1786 6.0625,-2.9375 0.24112,0.2412 0.75885,-0.76 1.125,-2.2188 0.42879,-1.7084 0.10412,-3.4892 -0.90625,-5.0312 -1.58034,-2.4119 -1.35644,-2.7517 1.59375,-2.4688 0.88648,0.085 2.93553,-1.3657 4.5625,-3.21865 1.62697,-1.8531 3.47595,-3.6926 4.125,-4.0937 0.045,-0.028 0.0831,-0.029 0.125,0 3.81609,-79.35234 3.15967,-125.09453 -0.3125,-163.4688 -0.005,-0.006 0.005,-0.0251 0,-0.0312 -0.35073,-0.44123 -0.625,-1.10131 -0.625,-1.6875 0,-0.57558 0.25313,-1.05086 0.59375,-1.28125 -0.003,-1.08864 0.003,-2.76701 0,-3.84375 L 429,808.84375 c -1.69655,-1.12352 -2.41478,-2.81691 -2.875,-6.875 -0.66733,-5.88418 -2.53289,-10.5427 -6.375,-15.78125 -2.31232,-3.15278 -3.51462,-7.82866 -1.71875,-6.71875 1.54014,0.95186 -0.99904,-11.96304 -3.375,-17.15625 -1.32664,-2.89969 -2.40625,-6.95344 -2.40625,-9.03125 0,-2.07782 -0.52934,-4.3106 -1.15625,-4.9375 -0.62691,-0.62691 -1.48199,-3.31609 -1.90625,-6 -1.20024,-7.59272 -3.45119,-12.25 -5.96875,-12.25 -1.18071,0 -3.35264,-0.61753 -4.8125,-1.375 -1.45986,-0.75747 -4.90625,-1.89877 -7.65625,-2.53125 -3.84931,-0.88531 -5.86376,-2.12401 -8.78125,-5.375 -2.08429,-2.32254 -4.2354,-5.23125 -4.75,-6.46875 -0.85272,-2.05063 -1.59096,-2.25 -8.4375,-2.25 l -7.5,0 -2.40625,-3.75 c -1.32807,-2.0625 -4.24497,-5.73647 -6.46875,-8.15625 -3.14576,-3.42302 -4.82444,-4.43944 -7.59375,-4.625 -6.83799,-0.45818 -11.13058,-5.34708 -9.9375,-11.3125 0.48959,-2.44795 0.13439,-2.99718 -2.4375,-4.0625 -2.40101,-0.99453 -3.37695,-0.9901 -5.0625,0.0625 -1.91632,1.19676 -2.60379,0.80899 -7.96875,-4.5 l -5.875,-5.8125 -4.875,1.03125 c -9.25813,1.92469 -11.52111,2.62722 -11.5625,3.625 -0.09,2.17025 -2.79122,7.5 -3.8125,7.5 -0.59573,0 -2.713,-0.675 -4.6875,-1.5 -1.97451,-0.825 -4.85101,-1.5 -6.375,-1.5 -2.82547,4e-5 -3.96875,-1.48654 -3.96875,-5.125 0,-2.88825 -2.82801,-7.875 -4.46875,-7.875 -3.23193,0 -6.50898,-4.38688 -6.9375,-9.3125 -0.23057,-2.65024 -1.12185,-5.62339 -2,-6.59375 -0.87816,-0.97035 -2.32076,-3.83125 -3.1875,-6.375 -1.64916,-4.83999 -3.80866,-6.34917 -7.46875,-5.1875 -1.5674,0.49748 -2.21126,0.14465 -2.625,-1.4375 -0.30056,-1.14931 -1.10564,-2.09375 -1.78125,-2.09375 -0.67561,0 -2.03576,-0.9 -3.03125,-2 -0.99549,-1.1 -2.42583,-2 -3.1875,-2 -4.92247,0 -15.66797,-8.96483 -16.65625,-13.90625 -1.21504,-6.0752 -9.52789,-8.69013 -18.15625,-5.6875 -2.19856,0.76509 -4.33606,1.19333 -4.75,0.9375 -0.41394,-0.25583 -0.75,-2.23871 -0.75,-4.40625 0,-3.61489 -0.21091,-3.9375 -2.6875,-3.9375 z m -100.25,15 c -5.93049,0 -8.70377,2.33396 -5.53125,4.65625 2.15401,1.57675 5.58168,1.0919 9.25,-1.28125 3.25915,-2.10845 1.85424,-3.375 -3.71875,-3.375 z m -20.875,10.09375 c -0.38833,10e-4 -0.71018,0.0853 -0.875,0.25 -0.71223,0.71244 1.55198,3.65625 2.8125,3.65625 1.50909,0 0.96621,-3.03366 -0.65625,-3.65625 -0.42436,-0.16285 -0.89292,-0.25128 -1.28125,-0.25 z m 174.90625,1.90625 c -1.04116,0 -2.15217,0.675 -2.46875,1.5 -0.58769,1.53148 2.36096,2.20155 3.71875,0.84375 1.24518,-1.24518 0.64962,-2.34375 -1.25,-2.34375 z m -170.5625,6.46875 c -0.94245,0.006 -2.16639,0.37187 -3.125,1 -1.27815,0.83748 -3.03065,1.53125 -3.875,1.53125 -0.87986,0 -1.53125,0.85903 -1.53125,2.03125 0,1.81715 0.41833,1.97642 3.75,1.375 4.85081,-0.87565 7.25,-2.14889 7.25,-3.84375 0,-0.74681 -0.75375,-1.62243 -1.65625,-1.96875 -0.22562,-0.0866 -0.49835,-0.12706 -0.8125,-0.125 z m 117.03125,43.84375 c 0.75829,-0.004 1.59556,0.24431 2.84375,0.65625 3.3853,1.11725 3.59375,1.4426 3.59375,5.5625 0,2.39988 0.45,4.62883 1,4.96875 1.11333,0.68807 1.35439,4.80187 0.34375,5.8125 -0.35665,0.35666 -1.69951,0.38891 -3,0.0625 -1.30049,-0.3264 -3.0236,-0.061 -3.8125,0.59375 -0.86042,0.71408 -3.49878,1.01643 -6.625,0.78125 -4.18204,-0.31462 -5.37575,-0.78119 -6,-2.46875 -1.08122,-2.9228 2.64602,-9.93312 7.25,-13.59375 2.12626,-1.69058 3.14243,-2.36913 4.40625,-2.375 z M 212.78125,689.5 c 0.19671,-0.004 0.4099,0.0426 0.59375,0.15625 1.23154,0.76113 1.09184,3.19001 -0.21875,4 -0.59792,0.36954 -1.56748,0.18252 -2.15625,-0.40625 -1.09191,-1.09191 0.40431,-3.72054 1.78125,-3.75 z m 5.90625,17.59375 c 0.66475,0 1.6155,1.69006 2.125,3.75 0.72723,2.94023 1.72757,4.12351 4.65625,5.5 2.30619,1.08391 3.97039,2.66866 4.34375,4.15625 0.33219,1.32353 1.70278,3.43948 3.03125,4.6875 3.02777,2.84445 3.08844,5.69271 0.15625,6.78125 -1.2375,0.45941 -3.89955,1.13357 -5.90625,1.5 -2.00671,0.36643 -4.8341,1.61168 -6.28125,2.75 l -2.625,2.0625 -7.375,-6.59375 c -4.05341,-3.62778 -7.85161,-6.59375 -8.4375,-6.59375 -1.86134,0 -3.2535,-3.9266 -2.9375,-8.28125 0.32351,-4.45822 -0.0243,-4.27023 6.3125,-3.59375 0.55001,0.0587 1.77928,-0.20323 2.71875,-0.59375 1.28306,-0.53334 1.86893,-0.0793 2.34375,1.8125 0.91926,3.66263 3.31715,4.24236 3.21875,0.78125 -0.0877,-3.08522 2.80268,-8.125 4.65625,-8.125 z M 232.25,789.1875 c -0.34786,0 -0.70233,0.20233 -1.09375,0.59375 -1.32782,1.32782 0.50428,2.79029 2.1875,1.75 0.78285,-0.48382 0.78285,-0.96715 0,-1.75 -0.39141,-0.39142 -0.74589,-0.59375 -1.09375,-0.59375 z m 129.6875,262.25 c -0.95737,0.074 -1.6875,0.8699 -1.6875,2.1563 0,1.7995 1.72864,2.8287 3.5625,2.125 1.85112,-0.7103 1.82235,-2.0554 -0.0312,-3.5938 -0.62093,-0.5153 -1.26933,-0.7318 -1.84375,-0.6875 z m 41.625,15.9063 c 0.13989,0.068 0.24797,0.1027 0.40625,0.1874 0.1217,0.065 0.32838,0.1265 0.53125,0.1876 -0.36225,-0.1727 -0.68681,-0.3191 -0.9375,-0.375 z"
         id="path3185"
         inkscape:connector-curvature="0"
         sodipodi:nodetypes="ssssssssssssssscsssssssssscscssssssssssssssssssssssssscssssssssssssssssscsscsscsscscccsssccssccscccsccsscssccccccscccsssssssssssssccsssscccccsscsssssssssssssssssssscscsssssccssssscsssscscscssscsssssssssscccsscssssssssscscccccccc" />
    </clipPath>
    <clipPath
       clipPathUnits="userSpaceOnUse"
       id="clipPath3187">
      <path
         style="fill:#ff0000"
         d="m 195.25,600.09375 c -0.55,0 -1,0.675 -1,1.5 0,0.825 0.45,1.5 1,1.5 0.55,0 1,-0.675 1,-1.5 0,-0.825 -0.45,-1.5 -1,-1.5 z m 5.3125,4 c -2.1,0 -2.43333,0.25417 -1.5,1.1875 1.84386,1.84386 1.43137,3.59339 -1.03125,4.375 -3.65925,1.1614 -7.78125,4.69049 -7.78125,6.65625 0,2.10614 -4.33874,4.13582 -7.03125,3.28125 -0.97815,-0.31045 -2.51937,-1.6777 -3.40625,-3.03125 -2.19913,-3.3563 -5.17039,-3.15893 -7.0625,0.5 -0.84843,1.64069 -3.00306,3.74519 -4.78125,4.65625 -1.77819,0.91105 -3.50496,2.0698 -3.84375,2.59375 -0.37282,0.57659 -1.41377,0.46345 -2.65625,-0.3125 -1.65465,-1.03335 -2.36715,-1.04929 -3.59375,-0.0312 -0.83697,0.69462 -1.27534,1.84498 -1,2.5625 0.50755,1.32265 -1.27469,1.91043 -10.59375,3.375 -3.57139,0.56128 -4.92088,1.37519 -6.75,4.09375 -2.36508,3.51509 -3.03066,8.51256 -1.28125,9.59375 0.55,0.33992 1,1.49496 1,2.5625 0,1.47544 -0.70016,1.9375 -2.90625,1.9375 -2.3037,0 -3.10334,0.60303 -3.90625,2.90625 -0.72595,2.08245 -1.8867,3.10213 -4.125,3.59375 -2.22411,0.4885 -4.29088,2.23524 -7.1875,6.15625 -3.50913,4.75014 -4.4116,5.41484 -6.5625,4.875 -1.49038,-0.37406 -2.23135,-0.23282 -1.875,0.34375 0.32739,0.52973 1.91338,1.26966 3.53125,1.625 3.55529,0.78088 8.26198,4.31028 7.46875,5.59375 -0.31434,0.50863 -3.18661,2.68859 -6.40625,4.875 -4.45587,3.02593 -6.14106,4.88045 -7.0625,7.75 -0.66579,2.07342 -1.89767,4.5592 -2.71875,5.5 -1.71018,1.95957 -1.35723,4.91042 1.4375,12.25 1.70832,4.48644 2.38655,5.18078 6.78125,6.8125 2.68526,0.99702 5.37744,2.5236 6,3.375 0.64519,0.88235 2.20068,1.38413 3.59375,1.1875 1.94757,-0.2749 2.39151,-0.87663 2.1875,-2.90625 -0.21303,-2.11921 0.34682,-2.7687 3.40625,-3.875 3.33018,-1.20421 3.81885,-1.13707 5.0625,0.5625 0.75523,1.03209 2.06645,4.2375 2.90625,7.125 1.18328,4.06845 1.95416,5.25 3.5,5.25 1.09713,0 2.88679,0.48345 3.96875,1.0625 1.41082,0.75504 2.93645,0.69429 5.375,-0.1875 3.24141,-1.17211 3.57228,-1.06355 7.34375,2.34375 2.17595,1.96584 4.92462,3.87893 6.09375,4.25 2.35188,0.74646 8.04885,-2.17612 11.90625,-6.125 1.84668,-1.89048 2.68263,-2.15133 4.25,-1.3125 1.07313,0.57433 1.9375,1.91935 1.9375,3 0,1.41373 0.69009,1.96875 2.4375,1.96875 2.8513,0 5.5625,2.39016 5.5625,4.90625 0,0.97547 0.9,2.59826 2,3.59375 1.1,0.99549 2,2.88007 2,4.1875 0,5.41833 2.71811,9.27949 8.21875,11.71875 7.4175,3.2893 9.07705,5.48163 9.59375,12.625 0.25362,3.50623 0.89812,5.96583 1.5625,5.96875 2.22647,0.01 7.04708,4.79948 8.15625,8.09375 0.93363,2.77292 1.79513,3.49687 4.96875,4.15625 2.11308,0.43903 4.31318,1.19719 4.90625,1.6875 0.59307,0.49031 2.44375,1.03259 4.09375,1.21875 2.61262,0.29478 3,0.74814 3,3.4375 0,1.77697 1.06572,4.47237 2.53125,6.375 2.47092,3.20787 2.67627,3.27319 6.25,2.09375 4.04932,-1.33639 5.69503,-0.82832 5.78125,1.75 0.14177,4.23973 5.96607,18.91383 9.28125,23.375 4.31869,5.81158 4.95578,11.32647 1.65625,14.3125 -3.27433,2.96323 -2.6572,8.32497 1.59375,13.78125 3.37822,4.33609 3.55072,4.93913 2.90625,9.625 -0.37771,2.7463 -1.31655,5.51123 -2.09375,6.15625 -2.05244,1.70337 -1.73621,3.9375 0.5625,3.9375 1.88645,0 2.43089,1.0251 3.25,6.375 0.15891,1.03793 1.30364,2.28526 2.5625,2.75 1.86236,0.68755 2.457,0.40998 3.1875,-1.40625 0.61232,-1.52238 0.92552,-1.70379 0.96875,-0.59375 0.0349,0.89515 -0.6125,2.19031 -1.4375,2.875 -1.69604,1.40759 -2.0157,5.56324 -0.5,6.5 1.57819,0.97538 1.15684,3.68645 -0.90625,5.93745 -3.00858,3.2828 -3.57509,8.0214 -1.25,10.2188 1.07302,1.0141 2.11564,2.6962 2.3125,3.75 0.24866,1.3311 1.71025,2.2468 4.8125,3 3.77659,0.9168 4.56768,1.5565 5.15625,4.0938 1.36472,5.8831 3.78368,16.0666 4.75,19.9374 0.60833,2.4368 2.40388,5.2206 4.6875,7.3126 3.42772,3.1403 3.65743,3.6744 3.1875,7.8437 -0.33686,2.9886 -0.0739,4.9261 0.8125,5.8125 0.73153,0.7315 2.29274,4.2132 3.46875,7.7188 1.17601,3.5054 2.70379,7.0499 3.40625,7.875 0.70247,0.825 2.68838,5.0319 4.40625,9.3437 1.71787,4.3118 4.27382,9.16955 5.65625,10.81245 1.38242,1.6429 2.5,3.6424 2.5,4.4375 0,0.7951 1.73626,3.3623 3.84375,5.6875 2.1075,2.3253 5.26233,6.3563 7.03125,8.9688 1.76893,2.6124 3.58686,4.75 4.03125,4.75 1.21173,0 8.0648,9.5037 14.9375,20.6874 3.35735,5.4633 7.24269,10.9827 8.625,12.2813 2.44039,2.2927 2.57909,2.2979 4.53125,0.5313 1.10576,-1.0008 2,-2.2634 2,-2.8126 0,-1.574 5.06919,-11.8769 7.46875,-15.1874 1.19594,-1.6501 3.02118,-5.0251 4.0625,-7.5 1.04132,-2.475 3.26655,-6.1452 4.9375,-8.1563 7.57295,-9.1149 12.53125,-20.4265 12.53125,-28.56245 0,-5.0806 1.70147,-3.8853 3.5,2.46875 0.89516,3.1624 1.86385,6.5638 2.15625,7.5624 0.72455,2.4747 6.26115,8.6876 7.75,8.6876 0.66288,0 3.74577,-1.5408 6.84375,-3.4063 3.09797,-1.8655 5.82139,-3.1786 6.0625,-2.9375 0.24112,0.2412 0.75885,-0.76 1.125,-2.2188 0.42879,-1.7084 0.10412,-3.4892 -0.90625,-5.0312 -1.58034,-2.4119 -1.35644,-2.7517 1.59375,-2.4688 0.88648,0.085 2.93553,-1.3657 4.5625,-3.21865 1.62697,-1.8531 3.47595,-3.6926 4.125,-4.0937 0.045,-0.028 0.0831,-0.029 0.125,0 3.81609,-79.35234 3.15967,-125.09453 -0.3125,-163.4688 -0.005,-0.006 0.005,-0.0251 0,-0.0312 -0.35073,-0.44123 -0.625,-1.10131 -0.625,-1.6875 0,-0.57558 0.25313,-1.05086 0.59375,-1.28125 -0.003,-1.08864 0.003,-2.76701 0,-3.84375 L 429,808.84375 c -1.69655,-1.12352 -2.41478,-2.81691 -2.875,-6.875 -0.66733,-5.88418 -2.53289,-10.5427 -6.375,-15.78125 -2.31232,-3.15278 -3.51462,-7.82866 -1.71875,-6.71875 1.54014,0.95186 -0.99904,-11.96304 -3.375,-17.15625 -1.32664,-2.89969 -2.40625,-6.95344 -2.40625,-9.03125 0,-2.07782 -0.52934,-4.3106 -1.15625,-4.9375 -0.62691,-0.62691 -1.48199,-3.31609 -1.90625,-6 -1.20024,-7.59272 -3.45119,-12.25 -5.96875,-12.25 -1.18071,0 -3.35264,-0.61753 -4.8125,-1.375 -1.45986,-0.75747 -4.90625,-1.89877 -7.65625,-2.53125 -3.84931,-0.88531 -5.86376,-2.12401 -8.78125,-5.375 -2.08429,-2.32254 -4.2354,-5.23125 -4.75,-6.46875 -0.85272,-2.05063 -1.59096,-2.25 -8.4375,-2.25 l -7.5,0 -2.40625,-3.75 c -1.32807,-2.0625 -4.24497,-5.73647 -6.46875,-8.15625 -3.14576,-3.42302 -4.82444,-4.43944 -7.59375,-4.625 -6.83799,-0.45818 -11.13058,-5.34708 -9.9375,-11.3125 0.48959,-2.44795 0.13439,-2.99718 -2.4375,-4.0625 -2.40101,-0.99453 -3.37695,-0.9901 -5.0625,0.0625 -1.91632,1.19676 -2.60379,0.80899 -7.96875,-4.5 l -5.875,-5.8125 -4.875,1.03125 c -9.25813,1.92469 -11.52111,2.62722 -11.5625,3.625 -0.09,2.17025 -2.79122,7.5 -3.8125,7.5 -0.59573,0 -2.713,-0.675 -4.6875,-1.5 -1.97451,-0.825 -4.85101,-1.5 -6.375,-1.5 -2.82547,4e-5 -3.96875,-1.48654 -3.96875,-5.125 0,-2.88825 -2.82801,-7.875 -4.46875,-7.875 -3.23193,0 -6.50898,-4.38688 -6.9375,-9.3125 -0.23057,-2.65024 -1.12185,-5.62339 -2,-6.59375 -0.87816,-0.97035 -2.32076,-3.83125 -3.1875,-6.375 -1.64916,-4.83999 -3.80866,-6.34917 -7.46875,-5.1875 -1.5674,0.49748 -2.21126,0.14465 -2.625,-1.4375 -0.30056,-1.14931 -1.10564,-2.09375 -1.78125,-2.09375 -0.67561,0 -2.03576,-0.9 -3.03125,-2 -0.99549,-1.1 -2.42583,-2 -3.1875,-2 -4.92247,0 -15.66797,-8.96483 -16.65625,-13.90625 -1.21504,-6.0752 -9.52789,-8.69013 -18.15625,-5.6875 -2.19856,0.76509 -4.33606,1.19333 -4.75,0.9375 -0.41394,-0.25583 -0.75,-2.23871 -0.75,-4.40625 0,-3.61489 -0.21091,-3.9375 -2.6875,-3.9375 z m -100.25,15 c -5.93049,0 -8.70377,2.33396 -5.53125,4.65625 2.15401,1.57675 5.58168,1.0919 9.25,-1.28125 3.25915,-2.10845 1.85424,-3.375 -3.71875,-3.375 z m -20.875,10.09375 c -0.38833,10e-4 -0.71018,0.0853 -0.875,0.25 -0.71223,0.71244 1.55198,3.65625 2.8125,3.65625 1.50909,0 0.96621,-3.03366 -0.65625,-3.65625 -0.42436,-0.16285 -0.89292,-0.25128 -1.28125,-0.25 z m 174.90625,1.90625 c -1.04116,0 -2.15217,0.675 -2.46875,1.5 -0.58769,1.53148 2.36096,2.20155 3.71875,0.84375 1.24518,-1.24518 0.64962,-2.34375 -1.25,-2.34375 z m -170.5625,6.46875 c -0.94245,0.006 -2.16639,0.37187 -3.125,1 -1.27815,0.83748 -3.03065,1.53125 -3.875,1.53125 -0.87986,0 -1.53125,0.85903 -1.53125,2.03125 0,1.81715 0.41833,1.97642 3.75,1.375 4.85081,-0.87565 7.25,-2.14889 7.25,-3.84375 0,-0.74681 -0.75375,-1.62243 -1.65625,-1.96875 -0.22562,-0.0866 -0.49835,-0.12706 -0.8125,-0.125 z m 117.03125,43.84375 c 0.75829,-0.004 1.59556,0.24431 2.84375,0.65625 3.3853,1.11725 3.59375,1.4426 3.59375,5.5625 0,2.39988 0.45,4.62883 1,4.96875 1.11333,0.68807 1.35439,4.80187 0.34375,5.8125 -0.35665,0.35666 -1.69951,0.38891 -3,0.0625 -1.30049,-0.3264 -3.0236,-0.061 -3.8125,0.59375 -0.86042,0.71408 -3.49878,1.01643 -6.625,0.78125 -4.18204,-0.31462 -5.37575,-0.78119 -6,-2.46875 -1.08122,-2.9228 2.64602,-9.93312 7.25,-13.59375 2.12626,-1.69058 3.14243,-2.36913 4.40625,-2.375 z M 212.78125,689.5 c 0.19671,-0.004 0.4099,0.0426 0.59375,0.15625 1.23154,0.76113 1.09184,3.19001 -0.21875,4 -0.59792,0.36954 -1.56748,0.18252 -2.15625,-0.40625 -1.09191,-1.09191 0.40431,-3.72054 1.78125,-3.75 z m 5.90625,17.59375 c 0.66475,0 1.6155,1.69006 2.125,3.75 0.72723,2.94023 1.72757,4.12351 4.65625,5.5 2.30619,1.08391 3.97039,2.66866 4.34375,4.15625 0.33219,1.32353 1.70278,3.43948 3.03125,4.6875 3.02777,2.84445 3.08844,5.69271 0.15625,6.78125 -1.2375,0.45941 -3.89955,1.13357 -5.90625,1.5 -2.00671,0.36643 -4.8341,1.61168 -6.28125,2.75 l -2.625,2.0625 -7.375,-6.59375 c -4.05341,-3.62778 -7.85161,-6.59375 -8.4375,-6.59375 -1.86134,0 -3.2535,-3.9266 -2.9375,-8.28125 0.32351,-4.45822 -0.0243,-4.27023 6.3125,-3.59375 0.55001,0.0587 1.77928,-0.20323 2.71875,-0.59375 1.28306,-0.53334 1.86893,-0.0793 2.34375,1.8125 0.91926,3.66263 3.31715,4.24236 3.21875,0.78125 -0.0877,-3.08522 2.80268,-8.125 4.65625,-8.125 z M 232.25,789.1875 c -0.34786,0 -0.70233,0.20233 -1.09375,0.59375 -1.32782,1.32782 0.50428,2.79029 2.1875,1.75 0.78285,-0.48382 0.78285,-0.96715 0,-1.75 -0.39141,-0.39142 -0.74589,-0.59375 -1.09375,-0.59375 z m 129.6875,262.25 c -0.95737,0.074 -1.6875,0.8699 -1.6875,2.1563 0,1.7995 1.72864,2.8287 3.5625,2.125 1.85112,-0.7103 1.82235,-2.0554 -0.0312,-3.5938 -0.62093,-0.5153 -1.26933,-0.7318 -1.84375,-0.6875 z m 41.625,15.9063 c 0.13989,0.068 0.24797,0.1027 0.40625,0.1874 0.1217,0.065 0.32838,0.1265 0.53125,0.1876 -0.36225,-0.1727 -0.68681,-0.3191 -0.9375,-0.375 z"
         id="path3189"
         inkscape:connector-curvature="0"
         sodipodi:nodetypes="ssssssssssssssscsssssssssscscssssssssssssssssssssssssscssssssssssssssssscsscsscsscscccsssccssccscccsccsscssccccccscccsssssssssssssccsssscccccsscsssssssssssssssssssscscsssssccssssscsssscscscssscsssssssssscccsscssssssssscscccccccc" />
    </clipPath>
    <clipPath
       clipPathUnits="userSpaceOnUse"
       id="clipPath3191">
      <path
         style="fill:#ff0000"
         d="m 195.25,600.09375 c -0.55,0 -1,0.675 -1,1.5 0,0.825 0.45,1.5 1,1.5 0.55,0 1,-0.675 1,-1.5 0,-0.825 -0.45,-1.5 -1,-1.5 z m 5.3125,4 c -2.1,0 -2.43333,0.25417 -1.5,1.1875 1.84386,1.84386 1.43137,3.59339 -1.03125,4.375 -3.65925,1.1614 -7.78125,4.69049 -7.78125,6.65625 0,2.10614 -4.33874,4.13582 -7.03125,3.28125 -0.97815,-0.31045 -2.51937,-1.6777 -3.40625,-3.03125 -2.19913,-3.3563 -5.17039,-3.15893 -7.0625,0.5 -0.84843,1.64069 -3.00306,3.74519 -4.78125,4.65625 -1.77819,0.91105 -3.50496,2.0698 -3.84375,2.59375 -0.37282,0.57659 -1.41377,0.46345 -2.65625,-0.3125 -1.65465,-1.03335 -2.36715,-1.04929 -3.59375,-0.0312 -0.83697,0.69462 -1.27534,1.84498 -1,2.5625 0.50755,1.32265 -1.27469,1.91043 -10.59375,3.375 -3.57139,0.56128 -4.92088,1.37519 -6.75,4.09375 -2.36508,3.51509 -3.03066,8.51256 -1.28125,9.59375 0.55,0.33992 1,1.49496 1,2.5625 0,1.47544 -0.70016,1.9375 -2.90625,1.9375 -2.3037,0 -3.10334,0.60303 -3.90625,2.90625 -0.72595,2.08245 -1.8867,3.10213 -4.125,3.59375 -2.22411,0.4885 -4.29088,2.23524 -7.1875,6.15625 -3.50913,4.75014 -4.4116,5.41484 -6.5625,4.875 -1.49038,-0.37406 -2.23135,-0.23282 -1.875,0.34375 0.32739,0.52973 1.91338,1.26966 3.53125,1.625 3.55529,0.78088 8.26198,4.31028 7.46875,5.59375 -0.31434,0.50863 -3.18661,2.68859 -6.40625,4.875 -4.45587,3.02593 -6.14106,4.88045 -7.0625,7.75 -0.66579,2.07342 -1.89767,4.5592 -2.71875,5.5 -1.71018,1.95957 -1.35723,4.91042 1.4375,12.25 1.70832,4.48644 2.38655,5.18078 6.78125,6.8125 2.68526,0.99702 5.37744,2.5236 6,3.375 0.64519,0.88235 2.20068,1.38413 3.59375,1.1875 1.94757,-0.2749 2.39151,-0.87663 2.1875,-2.90625 -0.21303,-2.11921 0.34682,-2.7687 3.40625,-3.875 3.33018,-1.20421 3.81885,-1.13707 5.0625,0.5625 0.75523,1.03209 2.06645,4.2375 2.90625,7.125 1.18328,4.06845 1.95416,5.25 3.5,5.25 1.09713,0 2.88679,0.48345 3.96875,1.0625 1.41082,0.75504 2.93645,0.69429 5.375,-0.1875 3.24141,-1.17211 3.57228,-1.06355 7.34375,2.34375 2.17595,1.96584 4.92462,3.87893 6.09375,4.25 2.35188,0.74646 8.04885,-2.17612 11.90625,-6.125 1.84668,-1.89048 2.68263,-2.15133 4.25,-1.3125 1.07313,0.57433 1.9375,1.91935 1.9375,3 0,1.41373 0.69009,1.96875 2.4375,1.96875 2.8513,0 5.5625,2.39016 5.5625,4.90625 0,0.97547 0.9,2.59826 2,3.59375 1.1,0.99549 2,2.88007 2,4.1875 0,5.41833 2.71811,9.27949 8.21875,11.71875 7.4175,3.2893 9.07705,5.48163 9.59375,12.625 0.25362,3.50623 0.89812,5.96583 1.5625,5.96875 2.22647,0.01 7.04708,4.79948 8.15625,8.09375 0.93363,2.77292 1.79513,3.49687 4.96875,4.15625 2.11308,0.43903 4.31318,1.19719 4.90625,1.6875 0.59307,0.49031 2.44375,1.03259 4.09375,1.21875 2.61262,0.29478 3,0.74814 3,3.4375 0,1.77697 1.06572,4.47237 2.53125,6.375 2.47092,3.20787 2.67627,3.27319 6.25,2.09375 4.04932,-1.33639 5.69503,-0.82832 5.78125,1.75 0.14177,4.23973 5.96607,18.91383 9.28125,23.375 4.31869,5.81158 4.95578,11.32647 1.65625,14.3125 -3.27433,2.96323 -2.6572,8.32497 1.59375,13.78125 3.37822,4.33609 3.55072,4.93913 2.90625,9.625 -0.37771,2.7463 -1.31655,5.51123 -2.09375,6.15625 -2.05244,1.70337 -1.73621,3.9375 0.5625,3.9375 1.88645,0 2.43089,1.0251 3.25,6.375 0.15891,1.03793 1.30364,2.28526 2.5625,2.75 1.86236,0.68755 2.457,0.40998 3.1875,-1.40625 0.61232,-1.52238 0.92552,-1.70379 0.96875,-0.59375 0.0349,0.89515 -0.6125,2.19031 -1.4375,2.875 -1.69604,1.40759 -2.0157,5.56324 -0.5,6.5 1.57819,0.97538 1.15684,3.68645 -0.90625,5.93745 -3.00858,3.2828 -3.57509,8.0214 -1.25,10.2188 1.07302,1.0141 2.11564,2.6962 2.3125,3.75 0.24866,1.3311 1.71025,2.2468 4.8125,3 3.77659,0.9168 4.56768,1.5565 5.15625,4.0938 1.36472,5.8831 3.78368,16.0666 4.75,19.9374 0.60833,2.4368 2.40388,5.2206 4.6875,7.3126 3.42772,3.1403 3.65743,3.6744 3.1875,7.8437 -0.33686,2.9886 -0.0739,4.9261 0.8125,5.8125 0.73153,0.7315 2.29274,4.2132 3.46875,7.7188 1.17601,3.5054 2.70379,7.0499 3.40625,7.875 0.70247,0.825 2.68838,5.0319 4.40625,9.3437 1.71787,4.3118 4.27382,9.16955 5.65625,10.81245 1.38242,1.6429 2.5,3.6424 2.5,4.4375 0,0.7951 1.73626,3.3623 3.84375,5.6875 2.1075,2.3253 5.26233,6.3563 7.03125,8.9688 1.76893,2.6124 3.58686,4.75 4.03125,4.75 1.21173,0 8.0648,9.5037 14.9375,20.6874 3.35735,5.4633 7.24269,10.9827 8.625,12.2813 2.44039,2.2927 2.57909,2.2979 4.53125,0.5313 1.10576,-1.0008 2,-2.2634 2,-2.8126 0,-1.574 5.06919,-11.8769 7.46875,-15.1874 1.19594,-1.6501 3.02118,-5.0251 4.0625,-7.5 1.04132,-2.475 3.26655,-6.1452 4.9375,-8.1563 7.57295,-9.1149 12.53125,-20.4265 12.53125,-28.56245 0,-5.0806 1.70147,-3.8853 3.5,2.46875 0.89516,3.1624 1.86385,6.5638 2.15625,7.5624 0.72455,2.4747 6.26115,8.6876 7.75,8.6876 0.66288,0 3.74577,-1.5408 6.84375,-3.4063 3.09797,-1.8655 5.82139,-3.1786 6.0625,-2.9375 0.24112,0.2412 0.75885,-0.76 1.125,-2.2188 0.42879,-1.7084 0.10412,-3.4892 -0.90625,-5.0312 -1.58034,-2.4119 -1.35644,-2.7517 1.59375,-2.4688 0.88648,0.085 2.93553,-1.3657 4.5625,-3.21865 1.62697,-1.8531 3.47595,-3.6926 4.125,-4.0937 0.045,-0.028 0.0831,-0.029 0.125,0 3.81609,-79.35234 3.15967,-125.09453 -0.3125,-163.4688 -0.005,-0.006 0.005,-0.0251 0,-0.0312 -0.35073,-0.44123 -0.625,-1.10131 -0.625,-1.6875 0,-0.57558 0.25313,-1.05086 0.59375,-1.28125 -0.003,-1.08864 0.003,-2.76701 0,-3.84375 L 429,808.84375 c -1.69655,-1.12352 -2.41478,-2.81691 -2.875,-6.875 -0.66733,-5.88418 -2.53289,-10.5427 -6.375,-15.78125 -2.31232,-3.15278 -3.51462,-7.82866 -1.71875,-6.71875 1.54014,0.95186 -0.99904,-11.96304 -3.375,-17.15625 -1.32664,-2.89969 -2.40625,-6.95344 -2.40625,-9.03125 0,-2.07782 -0.52934,-4.3106 -1.15625,-4.9375 -0.62691,-0.62691 -1.48199,-3.31609 -1.90625,-6 -1.20024,-7.59272 -3.45119,-12.25 -5.96875,-12.25 -1.18071,0 -3.35264,-0.61753 -4.8125,-1.375 -1.45986,-0.75747 -4.90625,-1.89877 -7.65625,-2.53125 -3.84931,-0.88531 -5.86376,-2.12401 -8.78125,-5.375 -2.08429,-2.32254 -4.2354,-5.23125 -4.75,-6.46875 -0.85272,-2.05063 -1.59096,-2.25 -8.4375,-2.25 l -7.5,0 -2.40625,-3.75 c -1.32807,-2.0625 -4.24497,-5.73647 -6.46875,-8.15625 -3.14576,-3.42302 -4.82444,-4.43944 -7.59375,-4.625 -6.83799,-0.45818 -11.13058,-5.34708 -9.9375,-11.3125 0.48959,-2.44795 0.13439,-2.99718 -2.4375,-4.0625 -2.40101,-0.99453 -3.37695,-0.9901 -5.0625,0.0625 -1.91632,1.19676 -2.60379,0.80899 -7.96875,-4.5 l -5.875,-5.8125 -4.875,1.03125 c -9.25813,1.92469 -11.52111,2.62722 -11.5625,3.625 -0.09,2.17025 -2.79122,7.5 -3.8125,7.5 -0.59573,0 -2.713,-0.675 -4.6875,-1.5 -1.97451,-0.825 -4.85101,-1.5 -6.375,-1.5 -2.82547,4e-5 -3.96875,-1.48654 -3.96875,-5.125 0,-2.88825 -2.82801,-7.875 -4.46875,-7.875 -3.23193,0 -6.50898,-4.38688 -6.9375,-9.3125 -0.23057,-2.65024 -1.12185,-5.62339 -2,-6.59375 -0.87816,-0.97035 -2.32076,-3.83125 -3.1875,-6.375 -1.64916,-4.83999 -3.80866,-6.34917 -7.46875,-5.1875 -1.5674,0.49748 -2.21126,0.14465 -2.625,-1.4375 -0.30056,-1.14931 -1.10564,-2.09375 -1.78125,-2.09375 -0.67561,0 -2.03576,-0.9 -3.03125,-2 -0.99549,-1.1 -2.42583,-2 -3.1875,-2 -4.92247,0 -15.66797,-8.96483 -16.65625,-13.90625 -1.21504,-6.0752 -9.52789,-8.69013 -18.15625,-5.6875 -2.19856,0.76509 -4.33606,1.19333 -4.75,0.9375 -0.41394,-0.25583 -0.75,-2.23871 -0.75,-4.40625 0,-3.61489 -0.21091,-3.9375 -2.6875,-3.9375 z m -100.25,15 c -5.93049,0 -8.70377,2.33396 -5.53125,4.65625 2.15401,1.57675 5.58168,1.0919 9.25,-1.28125 3.25915,-2.10845 1.85424,-3.375 -3.71875,-3.375 z m -20.875,10.09375 c -0.38833,10e-4 -0.71018,0.0853 -0.875,0.25 -0.71223,0.71244 1.55198,3.65625 2.8125,3.65625 1.50909,0 0.96621,-3.03366 -0.65625,-3.65625 -0.42436,-0.16285 -0.89292,-0.25128 -1.28125,-0.25 z m 174.90625,1.90625 c -1.04116,0 -2.15217,0.675 -2.46875,1.5 -0.58769,1.53148 2.36096,2.20155 3.71875,0.84375 1.24518,-1.24518 0.64962,-2.34375 -1.25,-2.34375 z m -170.5625,6.46875 c -0.94245,0.006 -2.16639,0.37187 -3.125,1 -1.27815,0.83748 -3.03065,1.53125 -3.875,1.53125 -0.87986,0 -1.53125,0.85903 -1.53125,2.03125 0,1.81715 0.41833,1.97642 3.75,1.375 4.85081,-0.87565 7.25,-2.14889 7.25,-3.84375 0,-0.74681 -0.75375,-1.62243 -1.65625,-1.96875 -0.22562,-0.0866 -0.49835,-0.12706 -0.8125,-0.125 z m 117.03125,43.84375 c 0.75829,-0.004 1.59556,0.24431 2.84375,0.65625 3.3853,1.11725 3.59375,1.4426 3.59375,5.5625 0,2.39988 0.45,4.62883 1,4.96875 1.11333,0.68807 1.35439,4.80187 0.34375,5.8125 -0.35665,0.35666 -1.69951,0.38891 -3,0.0625 -1.30049,-0.3264 -3.0236,-0.061 -3.8125,0.59375 -0.86042,0.71408 -3.49878,1.01643 -6.625,0.78125 -4.18204,-0.31462 -5.37575,-0.78119 -6,-2.46875 -1.08122,-2.9228 2.64602,-9.93312 7.25,-13.59375 2.12626,-1.69058 3.14243,-2.36913 4.40625,-2.375 z M 212.78125,689.5 c 0.19671,-0.004 0.4099,0.0426 0.59375,0.15625 1.23154,0.76113 1.09184,3.19001 -0.21875,4 -0.59792,0.36954 -1.56748,0.18252 -2.15625,-0.40625 -1.09191,-1.09191 0.40431,-3.72054 1.78125,-3.75 z m 5.90625,17.59375 c 0.66475,0 1.6155,1.69006 2.125,3.75 0.72723,2.94023 1.72757,4.12351 4.65625,5.5 2.30619,1.08391 3.97039,2.66866 4.34375,4.15625 0.33219,1.32353 1.70278,3.43948 3.03125,4.6875 3.02777,2.84445 3.08844,5.69271 0.15625,6.78125 -1.2375,0.45941 -3.89955,1.13357 -5.90625,1.5 -2.00671,0.36643 -4.8341,1.61168 -6.28125,2.75 l -2.625,2.0625 -7.375,-6.59375 c -4.05341,-3.62778 -7.85161,-6.59375 -8.4375,-6.59375 -1.86134,0 -3.2535,-3.9266 -2.9375,-8.28125 0.32351,-4.45822 -0.0243,-4.27023 6.3125,-3.59375 0.55001,0.0587 1.77928,-0.20323 2.71875,-0.59375 1.28306,-0.53334 1.86893,-0.0793 2.34375,1.8125 0.91926,3.66263 3.31715,4.24236 3.21875,0.78125 -0.0877,-3.08522 2.80268,-8.125 4.65625,-8.125 z M 232.25,789.1875 c -0.34786,0 -0.70233,0.20233 -1.09375,0.59375 -1.32782,1.32782 0.50428,2.79029 2.1875,1.75 0.78285,-0.48382 0.78285,-0.96715 0,-1.75 -0.39141,-0.39142 -0.74589,-0.59375 -1.09375,-0.59375 z m 129.6875,262.25 c -0.95737,0.074 -1.6875,0.8699 -1.6875,2.1563 0,1.7995 1.72864,2.8287 3.5625,2.125 1.85112,-0.7103 1.82235,-2.0554 -0.0312,-3.5938 -0.62093,-0.5153 -1.26933,-0.7318 -1.84375,-0.6875 z m 41.625,15.9063 c 0.13989,0.068 0.24797,0.1027 0.40625,0.1874 0.1217,0.065 0.32838,0.1265 0.53125,0.1876 -0.36225,-0.1727 -0.68681,-0.3191 -0.9375,-0.375 z"
         id="path3193"
         inkscape:connector-curvature="0"
         sodipodi:nodetypes="ssssssssssssssscsssssssssscscssssssssssssssssssssssssscssssssssssssssssscsscsscsscscccsssccssccscccsccsscssccccccscccsssssssssssssccsssscccccsscsssssssssssssssssssscscsssssccssssscsssscscscssscsssssssssscccsscssssssssscscccccccc" />
    </clipPath>
    <clipPath
       clipPathUnits="userSpaceOnUse"
       id="clipPath3973">
      <rect
         style="fill:#ff0000;fill-opacity:1;fill-rule:nonzero;stroke:none"
         id="rect3975"
         width="500.16187"
         height="312.9241"
         x="203.33347"
         y="408.41309"
         transform="matrix(0.85296994,0.52196005,-0.2031247,0.97915288,0,0)" />
    </clipPath>
    <filter
       id="filter4848"
       inkscape:menu-tooltip="Make the lightest parts of the object progressively transparent"
       inkscape:menu="Transparency utilities"
       inkscape:label="Light eraser"
       height="1"
       width="1"
       y="0"
       x="0"
       color-interpolation-filters="sRGB">
      <feColorMatrix
         id="feColorMatrix4850"
         result="result14"
         type="luminanceToAlpha"
         in="SourceGraphic" />
      <feComposite
         id="feComposite4852"
         in2="result14"
         in="SourceGraphic"
         result="fbSourceGraphic"
         operator="out" />
      <feBlend
         id="feBlend4854"
         in2="fbSourceGraphic"
         mode="normal"
         result="result15" />
    </filter>
    <filter
       id="filter4961"
       inkscape:menu-tooltip="Make the lightest parts of the object progressively transparent"
       inkscape:menu="Transparency utilities"
       inkscape:label="Light eraser"
       height="1"
       width="1"
       y="0"
       x="0"
       color-interpolation-filters="sRGB">
      <feColorMatrix
         id="feColorMatrix4963"
         result="result14"
         type="luminanceToAlpha"
         in="SourceGraphic" />
      <feComposite
         id="feComposite4965"
         in2="result14"
         in="SourceGraphic"
         result="fbSourceGraphic"
         operator="out" />
      <feBlend
         id="feBlend4967"
         in2="fbSourceGraphic"
         mode="normal"
         result="result15" />
    </filter>
  </defs>
  <sodipodi:namedview
     pagecolor="#000000"
     bordercolor="#666666"
     borderopacity="1"
     objecttolerance="10"
     gridtolerance="10"
     guidetolerance="10"
     inkscape:pageopacity="0"
     inkscape:pageshadow="2"
     inkscape:window-width="1926"
     inkscape:window-height="1151"
     id="namedview8460"
     showgrid="false"
     inkscape:zoom="0.90509668"
     inkscape:cx="220.98212"
     inkscape:cy="449.79039"
     inkscape:window-x="100"
     inkscape:window-y="162"
     inkscape:window-maximized="0"
     inkscape:current-layer="g8466" />
  <g
     id="g8466">
    <rect
       style="fill:#000000;fill-opacity:1;fill-rule:nonzero;stroke:none"
       id="rect3947"
       width="518.513"
       height="518.513"
       x="-1.5340621"
       y="-1.9108263" />
    <rect
       style="opacity:0.98999999;fill:#ffffff;fill-opacity:1;fill-rule:nonzero;stroke:none"
       id="rect3980"
       width="380.06989"
       height="372.33591"
       x="69.605827"
       y="72.267967" />
    <g
       id="g3954"
       transform="matrix(-1.3203992,0,0,1.0979932,591.25543,-46.355485)">
      <path
         style="fill:#99eda3"
         d="m 83.324242,281.08544 c 0,-71.19968 0,-142.39935 0,-213.599028 115.702908,0 231.405818,0 347.108728,0 0,142.399348 0,284.798708 0,427.198058 -115.70291,0 -231.40582,0 -347.108728,0 0,-71.19968 0,-142.39935 0,-213.59903 z M 297.85672,405.72839 c 10.69804,-7.33868 -34.0936,-4.48092 -34.53756,4.67949 6.95456,10.81076 25.60073,-1.2791 34.53756,-4.67949 z m 16.7257,-26.66174 c -11.8537,0.70563 -8.54819,21.88003 -1.37279,4.49488 0.4576,-1.49829 0.91519,-2.99659 1.37279,-4.49488 z m -19.75017,-86.1359 c 20.22757,-12.87594 28.6484,-43.68265 7.73137,-60.18295 -7.37458,-12.25059 -37.84636,-36.01942 -43.34342,-15.64557 11.67246,17.85419 40.42857,38.79986 15.8025,60.01043 -20.10106,6.72216 -34.27029,43.64482 -1.86494,30.84803 8.12659,-3.5591 14.8938,-9.44552 21.67449,-15.02994 z m -148.12597,-49.6282 c -4.92364,-27.46673 -11.10529,12.55024 1.90864,13.79744 1.41103,-4.62778 -0.45363,-9.40844 -1.90864,-13.79744 z m 6.90608,-95.47155 c 7.00293,-13.16523 -7.52553,-14.69524 -6.67315,-0.11402 -5.50888,21.34952 -10.05216,43.20616 -9.82843,65.35912 7.90897,-21.07257 11.42259,-43.4088 16.50158,-65.2451 z"
         id="path3976"
         inkscape:connector-curvature="0" />
      <path
         style="fill:#8edc75"
         d="m 83.324242,281.08544 c 0,-71.19968 0,-142.39935 0,-213.599028 115.702908,0 231.405818,0 347.108728,0 0,142.399348 0,284.798708 0,427.198058 -115.70291,0 -231.40582,0 -347.108728,0 0,-71.19968 0,-142.39935 0,-213.59903 z M 209.57299,429.29921 c -15.99963,-4.04092 -0.97795,7.69094 0.8797,0.39167 l -0.8797,-0.39166 0,-10e-6 z m 24.10477,-3.91925 c -15.99963,-4.04092 -0.97795,7.69095 0.8797,0.39167 l -0.8797,-0.39166 c 0,0 0,-1e-5 0,-1e-5 z m 74.23811,-20.16577 c -4.47157,-11.31785 -35.33433,0.19642 -48.6559,-0.61465 -19.22131,-0.35662 -38.85337,-3.55147 -57.38067,3.69698 -14.24231,6.4102 25.32898,-3.79342 29.67173,7.84674 16.21301,4.22771 32.48831,4.89533 48.13425,-1.97553 9.57231,-2.42554 19.1131,-5.12101 28.23059,-8.95354 z m -123.35158,5.62576 c -14.47424,-12.4114 -15.56987,5.51735 0,0 z m 38.16589,-12.74002 c -8.96772,-7.52517 -43.57564,8.36833 -16.5067,3.51765 5.5519,-0.89807 11.1709,-1.66454 16.5067,-3.51765 z m 94.86594,-15.11403 c 25.09858,-18.78873 -24.2987,-2.01624 -13.6679,8.35262 5.28704,-1.39759 9.29996,-5.30529 13.6679,-8.35262 z m 35.70158,-9.79812 c 11.56996,-13.27353 -31.63369,12.44223 0,0 z M 246.4332,325.55045 c 22.85081,-5.07864 49.00997,-8.72248 63.44306,-29.55124 15.83912,-12.81933 19.29354,-34.17751 12.60282,-52.64628 -8.82895,-24.867 -35.99755,-40.26482 -61.39863,-40.31772 -14.17667,-1.09149 -33.72905,15.61021 -10.17478,20.31958 21.62268,11.38919 27.11248,41.23806 4.49674,54.70986 -16.95084,15.60601 -39.62599,21.95536 -60.32501,30.86745 7.87966,18.54932 34.41496,30.44225 51.3558,16.61835 z m -70.89051,-48.63334 c -33.8493,-38.69986 -29.88005,-98.74218 -2.74517,-139.90818 5.28196,-12.11826 32.68251,-40.549239 8.35625,-42.021775 -5.30967,-9.940049 -14.29117,-17.70553 -16.49214,-0.623362 -11.42823,27.416247 -44.60557,42.065087 -46.84964,73.809737 0.249,19.11582 5.87569,37.66291 7.45154,56.91717 4.45203,22.49876 10.5641,45.1279 21.10267,65.53712 11.35868,13.27762 51.07554,18.31708 33.37498,-8.27925 l -1.9673,-2.84207 -2.23119,-2.58939 0,0 z"
         id="path3974"
         inkscape:connector-curvature="0" />
      <path
         style="fill:#71dc8e"
         d="m 83.324242,281.08544 c 0,-71.19968 0,-142.39935 0,-213.599028 115.702908,0 231.405818,0 347.108728,0 0,142.399348 0,284.798708 0,427.198058 -115.70291,0 -231.40582,0 -347.108728,0 0,-71.19968 0,-142.39935 0,-213.59903 z M 209.57299,429.29921 c -15.99963,-4.04092 -0.97795,7.69094 0.8797,0.39167 l -0.8797,-0.39166 0,-10e-6 z M 266.6898,418.0051 c 14.34097,-5.88874 46.745,-9.278 49.80608,-15.99382 -34.40691,1.05033 -68.92482,0.41984 -103.10945,-3.27805 -8.81051,-1.0413 -40.55206,-0.14176 -31.56331,9.7583 20.6193,1.14784 41.09804,5.95999 61.02682,9.01726 -7.54937,1.63918 -32.14314,13.38347 -10.82733,8.92733 11.68239,-2.25704 23.20527,-5.25665 34.66719,-8.43102 z m -83.4225,-12.11487 c 11.23054,-4.06778 20.3442,4.03514 3.88337,1.71707 0.0184,-0.0466 -7.67643,-0.0584 -3.88337,-1.71707 z m 26.70743,-3.71635 c 10.66837,-5.30317 18.06,7.44612 0,0 z M 318.50692,382.9859 c 23.29186,-17.17198 -21.30423,-5.4416 -15.96347,8.72496 6.26651,-0.34981 11.00705,-5.47764 15.96347,-8.72496 z m 42.49282,-12.68158 c -7.83512,-7.01525 -38.83231,11.02089 -15.37513,6.95448 5.15076,-2.07138 11.97999,-1.77206 15.37513,-6.95448 z M 246.9597,337.91454 c 28.38018,2.24809 51.16677,-18.88244 70.06754,-37.21733 16.72245,-23.49121 10.02735,-59.21008 -8.93014,-79.41343 -17.56894,-14.95469 -46.40373,-25.90861 -66.94616,-10.4466 -8.47141,12.44426 21.82364,12.79692 23.81612,26.31783 19.08292,25.60135 -15.50865,48.74467 -36.24303,57.86007 -17.44612,4.79837 -44.98581,16.52825 -24.42812,36.74112 10.85468,16.03709 27.69291,4.36334 42.66379,6.15834 z m -71.41701,-60.99743 c -33.8493,-38.69986 -29.88005,-98.74218 -2.74517,-139.90818 5.28196,-12.11826 32.68251,-40.549239 8.35625,-42.021775 -5.30967,-9.940049 -14.29117,-17.70553 -16.49214,-0.623362 -11.42823,27.416247 -44.60557,42.065087 -46.84964,73.809737 0.249,19.11582 5.87569,37.66291 7.45154,56.91717 4.45203,22.49876 10.5641,45.1279 21.10267,65.53712 11.35957,13.27801 51.07679,18.31732 33.37444,-8.28098 l -1.96716,-2.8419 -2.23079,-2.58783 0,0 z"
         id="path3972"
         inkscape:connector-curvature="0" />
      <path
         style="fill:#62cf70"
         d="m 83.324242,281.08544 c 0,-71.19968 0,-142.39935 0,-213.599028 115.712878,0 231.425768,0 347.138648,0 -0.0767,142.399348 -0.15342,284.798708 -0.23013,427.198058 -115.63617,0 -231.27235,0 -346.908518,0 0,-71.19968 0,-142.39935 0,-213.59903 z M 209.57299,429.29921 c -15.99963,-4.04092 -0.97795,7.69094 0.8797,0.39167 l -0.8797,-0.39166 0,-10e-6 z M 266.6898,418.0051 c 14.39189,-5.91071 46.5498,-9.21558 49.87135,-16.00879 -33.04022,0.71645 -66.25542,1.06662 -99.05186,-3.17528 -13.08686,-0.75075 -45.49492,-1.26027 -43.11385,12.58556 21.35102,-0.29482 41.8004,0.65786 62.21784,5.25413 20.52993,-1.53373 -34.9823,14.61444 -4.59067,9.7754 11.68247,-2.25706 23.20515,-5.25661 34.66719,-8.43102 z m -83.4225,-12.11487 c 11.23054,-4.06778 20.3442,4.03514 3.88337,1.71707 0.0184,-0.0466 -7.67643,-0.0584 -3.88337,-1.71707 z m 26.70743,-3.71635 c 10.66837,-5.30317 18.06,7.44612 0,0 z m 105.99289,-17.32449 c 9.41215,-9.18471 42.74493,-6.62446 39.3545,-14.15434 -17.02714,1.98764 -52.15661,2.47901 -52.81362,21.79485 5.34318,-0.29166 9.08786,-5.18102 13.45912,-7.64051 z M 246.9597,337.91454 c 31.1962,2.08594 55.53085,-22.37223 75.0991,-43.44437 15.8666,-20.40805 11.48715,-49.60091 -4.78616,-68.31139 -14.25919,-18.62626 -39.56554,-33.94517 -63.30522,-26.42636 -10.48568,3.64186 -44.79837,16.92636 -16.46922,22.41826 26.35772,8.40776 29.18057,48.42156 1.73194,57.72688 -21.62994,12.43428 -52.172,9.46833 -64.29524,-14.48543 -21.5662,-27.68671 -27.42003,-66.63536 -12.66159,-98.82839 4.73755,-27.30792 38.42747,-38.43195 41.4565,-64.23839 -2.68581,-18.420823 -27.06948,-9.608337 -26.5605,-28.712941 -15.74542,15.857631 -28.94251,36.868981 -43.88547,54.513911 -14.78137,20.69228 -32.32042,40.89901 -40.424355,65.20324 2.813289,14.50201 14.795375,-12.26916 19.515385,4.89752 5.61988,23.02085 8.92801,46.762 19.62156,68.48462 6.53844,26.82442 24.6217,42.5818 50.66686,48.55314 17.85025,7.68276 29.45583,32.6225 52.03303,23.5085 4.05204,-0.63249 8.15729,-1.0474 12.26338,-0.8588 z"
         id="path3970"
         inkscape:connector-curvature="0" />
      <path
         style="fill:#52a05e"
         d="m 83.324242,281.08544 c 0,-71.19968 0,-142.39935 0,-213.599028 30.645788,0 61.291588,0 91.937378,0 -27.19285,44.165978 -71.00176,79.351878 -84.306838,131.140658 -2.735213,8.92822 -5.505412,25.80843 4.955672,10.82527 23.759046,-17.47305 10.534336,23.875 18.549036,35.12254 11.65758,19.79634 23.42817,39.44299 34.33395,59.8139 10.93148,21.7679 40.97528,8.79839 55.0235,30.48176 15.40981,22.51108 41.00449,5.66531 61.32717,2.57133 22.08674,-6.51506 42.41517,-20.74374 57.92573,-37.89406 16.78378,-16.00492 18.07056,-42.49974 6.30647,-61.7786 -12.74167,-22.85362 -35.48317,-44.59688 -63.71038,-41.21374 -15.48113,2.33064 -46.3329,7.02465 -43.42381,25.90434 28.12484,-3.46167 42.66703,38.6265 15.57286,51.51973 -24.15773,10.2338 -55.9275,3.87521 -68.31141,-21.02601 -23.70611,-36.43993 -19.38882,-91.72207 16.98573,-118.41677 16.09302,-14.82764 32.96139,-29.16236 52.31073,-39.595436 -1.71628,-15.772216 -33.22848,-2.360406 -44.78422,-13.324341 -19.92647,-19.600638 26.93682,-10.127574 37.56877,-13.062927 66.27162,-1.583666 132.56716,-0.720142 198.84839,-1.399093 -0.59434,98.081867 1.57436,196.229327 -2.07802,294.260817 -6.76783,23.21327 6.31735,45.98181 1.74096,70.47764 0.70528,20.91525 0.17057,41.86202 0.33706,62.79105 -115.70291,0 -231.40582,0 -347.108728,0 0,-71.19968 0,-142.39935 0,-213.59903 z M 209.57299,429.29921 c -15.99963,-4.04092 -0.97795,7.69094 0.8797,0.39167 l -0.8797,-0.39166 0,-10e-6 z m 57.11681,-11.36474 c 17.60731,-6.35485 55.58046,-12.30159 61.07039,-15.68143 -29.78884,-5.85193 -59.79214,3.26831 -89.62232,-1.77758 -22.91647,-2.17989 -47.01726,-4.38569 -68.92139,4.37759 3.87792,16.48287 32.88363,3.08104 46.3678,9.11437 9.62919,1.78428 42.41084,2.24302 17.34653,7.7542 -26.14051,9.14821 9.95534,3.7645 18.24181,0.3526 5.18901,-1.31681 10.35511,-2.72166 15.51718,-4.13975 z m -75.99888,-11.84134 c 10.66836,-5.30317 18.06,7.44611 0,0 z m -91.16043,-7.43024 c -9.11298,-17.98902 -6.328453,14.04755 -0.515026,3.37158 l 0.515026,-3.37158 z m 213.4778,-11.75775 c 10.19894,-8.04006 46.87364,-7.52652 42.17439,-16.45251 -17.31182,2.29846 -50.88422,2.38561 -53.1277,22.01395 4.33129,0.56213 7.64158,-3.50556 10.95331,-5.56144 z"
         id="path3968"
         inkscape:connector-curvature="0" />
      <path
         style="fill:#37904f"
         d="m 83.972053,444.71406 c 3.136622,-10.13324 -5.056693,-39.95896 6.521475,-38.07362 7.506765,10.42525 36.990152,-2.13416 33.266702,-1.78869 -13.0451,-15.78685 -49.427505,-7.45016 -40.296708,-35.56163 0.398598,-43.94684 -1.487384,-88.08611 2.456365,-131.88653 3.446166,-11.32296 27.792813,-39.79372 21.548173,-12.38212 -3.24581,22.64809 3.87496,42.61017 23.81935,52.60219 12.92907,15.9454 15.1686,43.65168 35.37822,51.40269 25.02551,-18.27591 41.28273,20.30775 60.90184,30.51543 18.79362,5.07444 0.18739,-21.52373 19.34136,-13.59602 23.07404,1.09299 43.30961,-10.1997 59.42841,-25.68419 18.97385,-14.55274 41.5377,-36.27385 33.80914,-62.68539 -8.39784,-29.25023 -29.77702,-60.92823 -62.59589,-64.23823 -28.87072,-4.41079 -62.94818,11.38975 -70.94787,40.85583 8.96731,5.16089 23.35903,-19.96234 34.5736,-1.95354 21.21883,23.57256 -11.70129,49.82804 -35.43026,36.41662 -32.17394,-5.34049 -48.73063,-40.60528 -44.7705,-70.58179 4.04558,-33.17239 22.44631,-64.79831 51.73462,-81.7923 19.8723,-13.96407 42.74746,-26.314973 67.70164,-25.966952 -12.99464,-9.843137 -37.11296,-6.551652 -54.55122,-8.998166 -11.39991,1.304816 -44.51575,-2.080509 -18.2994,-10.995079 21.01373,-3.696461 42.63667,-1.465797 63.92752,-2.664041 52.98083,-0.353744 105.96297,-0.08756 158.94438,-0.17212 0,101.726898 0,203.453808 0,305.180708 -8.83842,0.94148 -17.67683,1.88297 -26.51525,2.82445 9.05837,3.65219 18.11674,7.30437 27.17511,10.95656 -0.86133,36.07878 -1.72265,72.15756 -2.58398,108.23634 -115.16578,0 -230.33155,0 -345.497328,0 0.320157,-16.6568 0.640394,-33.31361 0.960501,-49.97041 z M 224.73103,429.88204 c 35.15536,-6.96687 69.9857,-16.03867 103.47673,-28.89438 -3.04011,-4.85408 -28.91506,0.9352 -13.22088,-11.66029 9.3551,-13.56129 50.62408,-5.23345 45.02067,-20.19103 -25.14495,-1.37878 -52.87951,5.88198 -67.34432,26.9093 -26.02069,7.5223 -54.2047,1.99801 -81.09166,2.64643 -17.70519,-0.68499 -46.36512,-1.71204 -54.48466,13.95004 21.46026,1.13467 63.21309,-5.01313 71.49477,9.74779 -7.02688,4.02323 -37.41888,6.03499 -27.95554,12.29817 7.94867,-2.00129 16.00165,-3.57761 24.10489,-4.80603 z M 139.2674,401.68398 c -9.08805,5.3055 6.14786,16.12346 0,0 z m 245.56474,-36.07395 c -25.50148,-20.73841 4.19408,20.50358 0,0 z M 83.43867,133.13382 c -0.03814,-21.88247 -0.07628,-43.764939 -0.114428,-65.647408 28.626638,0.588644 57.460268,-1.736192 85.891608,2.66879 -10.94394,22.870138 -32.01512,38.708198 -45.15181,60.253028 -15.64587,21.42934 -29.143473,44.40485 -40.510943,68.373 -0.03814,-21.88247 -0.07628,-43.76494 -0.114427,-65.64741 z"
         id="path3966"
         inkscape:connector-curvature="0" />
      <path
         style="fill:#327046"
         d="m 83.398064,458.43143 c -4.663852,-21.95792 4.48428,-54.87391 33.058346,-43.0433 17.0803,5.07825 34.79079,-19.37132 47.41268,-9.29013 -27.0314,7.57132 12.90076,7.55541 21.49367,7.09826 11.83922,0.58561 41.89944,-0.36861 41.24039,8.52283 -6.45582,2.4522 -42.00256,11.97663 -21.1619,11.36289 41.20344,-7.03256 82.21561,-17.03435 121.45782,-31.25571 7.8979,-6.50716 -29.06141,1.92504 -12.99111,-12.01431 20.82135,-14.47028 54.14246,-10.49803 71.22944,-23.31258 -17.8879,-6.10999 -41.39078,8.64118 -62.03216,6.59894 -22.80951,2.21568 -25.83439,32.92049 -52.42596,26.57343 -36.92103,-1.73885 -74.46477,2.37556 -110.93757,-5.02757 -12.44266,-6.07107 -32.05584,-22.17342 -23.20139,-2.64573 -16.51493,-5.49901 -44.136825,0.0651 -53.181054,-12.82358 0.303621,-45.81724 -1.195324,-91.76011 1.738894,-137.47984 2.717859,-17.63843 26.29133,-15.24859 20.43655,3.97552 4.20795,15.26659 4.14115,32.9682 14.63367,45.66041 7.14017,-26.0396 21.86643,14.20138 29.3047,22.14516 9.04823,10.34756 12.03378,30.05538 26.97622,32.74233 -8.1015,-17.29319 9.53595,-24.63138 19.50811,-10.64356 15.88018,7.39371 36.12756,44.78197 52.11015,23.11564 9.42478,-19.05259 33.28786,-9.65167 47.06425,-25.17032 17.52981,-12.06259 34.4511,-26.71392 45.02258,-45.326 11.57787,-33.19577 -10.84957,-65.90645 -33.13201,-88.67411 -20.1499,-21.60098 -55.00179,-20.40021 -75.8623,-0.53495 -13.60821,7.46476 -38.35189,30.24249 -22.38002,42.1427 11.22054,-6.12883 31.71972,-20.79014 32.91202,3.11912 1.29173,27.19437 -36.20017,26.83329 -51.83699,13.42017 -35.0648,-24.23436 -34.71955,-78.20884 -9.65528,-109.58588 25.75047,-33.50139 68.05555,-50.581209 109.28462,-53.598669 17.88058,-10.335932 -19.32903,-13.895267 -27.6863,-14.823362 -18.69706,-1.894099 -37.79823,-1.668765 -55.99269,-6.940307 19.46047,-8.187899 41.37703,-2.859328 61.88645,-4.994451 54.246,-0.447676 108.4941,-0.151332 162.74108,-0.238059 0,101.726898 0,203.453808 0,305.180708 -8.83842,0.94148 -17.67683,1.88297 -26.51525,2.82445 9.05837,3.65219 18.11674,7.30437 27.17511,10.95656 -0.86133,36.07878 -1.72265,72.15756 -2.58398,108.23634 -115.06154,0 -230.12307,0 -345.184608,0 0.02461,-12.08435 0.04921,-24.1687 0.07382,-36.25304 z M 83.663936,131.1742 C 83.550705,109.94494 83.437473,88.715675 83.324242,67.486412 108.96378,68.237424 134.82068,65.537658 160.26961,69.798074 167.4558,92.553218 136.15133,103.45552 127.60841,121.77312 111.56069,141.6504 98.536922,163.768 86.918945,186.46418 81.417556,168.51855 84.933689,149.56923 83.663936,131.1742 z"
         id="path3964"
         inkscape:connector-curvature="0" />
      <path
         style="fill:#20562c"
         d="m 83.324242,467.36919 c 0.199367,-17.98037 -0.582987,-52.63759 26.859348,-45.96594 31.69155,0.96256 62.76729,-12.27628 94.47959,-6.29605 10.23588,-3.71197 33.38289,7.40497 10.72127,9.42492 -9.07795,-1.32109 -36.52196,13.68337 -12.45485,10.28517 49.86788,-8.5888 98.75025,-21.83564 147.95762,-33.45207 -10.96153,-1.66603 -50.52623,-3.80336 -26.48442,-15.50086 19.58453,-2.52961 38.90934,-14.01591 57.41797,-12.48664 19.72595,17.87293 5.79856,-21.84898 -11.15409,-12.03093 -19.85958,9.12748 -42.66301,8.59298 -62.61897,17.70688 -10.13628,22.22098 -36.0249,20.39899 -57.86867,21.02305 -24.22895,-3.51406 -48.2127,-4.06313 -72.29373,-2.46353 -24.57989,-3.94138 -39.2566,-25.42679 -59.11128,-37.16253 -12.92986,-7.7698 -26.70155,8.01767 -6.86905,8.8591 11.53606,24.6426 -36.468053,11.98434 -28.615187,-9.37875 2.305575,-38.95732 -4.281692,-78.98943 6.060642,-117.22611 9.174374,-20.75325 16.287905,4.77082 15.014415,15.3394 4.51308,15.84043 9.88392,39.86563 23.37769,47.0137 -3.00926,-18.32189 4.59802,-11.95296 11.14361,-0.34342 12.82516,19.31315 22.92498,41.71926 42.64324,55.2062 17.19124,0.13744 -18.25734,-34.93393 8.36184,-27.69051 20.15972,12.85565 33.40872,35.64977 58.05622,41.46833 8.00796,8.13429 48.08659,6.52343 23.87709,-2.59118 -12.83187,-3.08294 -24.18341,-21.58964 -2.30378,-18.94902 22.48841,-11.14578 44.36996,-26.28323 62.7678,-42.6338 16.3583,-19.49064 21.08274,-48.21755 7.49408,-70.42368 -13.71038,-28.69679 -36.8229,-55.79792 -68.09645,-65.17002 -24.03276,-6.62672 -41.70344,12.80129 -54.44345,30.10709 -17.23885,10.28625 -12.75933,36.71883 -26.35484,45.60455 -23.37866,-17.03366 -23.68116,-50.84035 -16.3561,-76.31961 14.13044,-50.76692 71.16831,-77.593172 120.88221,-72.53122 23.57919,-3.837116 -7.10816,-30.064235 -20.39979,-24.753219 -21.92107,-4.044948 -44.63612,0.03536 -66.34516,-5.599595 73.81129,-5.103435 147.86475,-2.290426 221.80059,-2.952484 -0.10298,102.212298 -0.20595,204.424608 -0.30893,306.636908 -9.85412,-4.59459 -39.8298,-4.05951 -17.92145,7.65128 25.77162,3.36491 15.14401,29.27025 17.19296,47.60288 -1.12741,17.51652 1.46319,37.14213 -5.90036,53.05947 4.11041,18.80454 -23.43127,7.06153 -34.84638,10.90368 -101.77201,2.34558 -203.57509,0.61214 -305.361248,1.07243 0,-9.01462 0,-18.02925 0,-27.04387 z m 335.838688,-1.09927 c -8.02106,5.99626 4.78061,14.78612 0.38402,1.16836 l -0.36826,-1.12042 -0.0158,-0.0479 z M 394.778,389.92623 c -9.08806,5.30554 6.14786,16.12342 0,0 z m -14.83748,-59.09327 c -14.8532,-1.43013 -13.51041,15.32989 0,0 z m -236.35435,-8.59541 c -15.08662,-14.41538 -2.2041,14.66376 0,0 z m 256.95688,-0.78385 c 19.56511,-20.82067 -23.65042,-8.01015 -8.23247,4.67181 3.09823,-0.8036 5.6201,-2.94097 8.23247,-4.67181 z M 225.02303,245.52526 c -8.10322,-11.59839 12.88536,-20.98219 7.7508,-4.41615 1.58124,9.98249 -4.06547,21.70977 -7.7508,4.41615 z M 83.478178,129.21457 c -0.05131,-20.57605 -0.102624,-41.152105 -0.153936,-61.728158 27.056368,0.782404 54.433708,-2.207642 81.194848,3.111538 -12.17055,24.358265 -35.1975,40.90403 -49.23902,64.14446 -12.19508,17.75603 -21.922691,37.02694 -31.647956,56.20032 -0.05131,-20.57605 -0.102624,-41.15211 -0.153936,-61.72816 z"
         id="path3962"
         inkscape:connector-curvature="0" />
      <path
         style="fill:#173424"
         d="m 83.324242,469.51898 c -3.044861,-21.4841 16.483542,-44.94134 38.173638,-43.6109 27.09923,4.35309 51.80275,-12.82029 79.25217,-8.57497 11.43887,0.13411 27.55642,5.46377 8.47598,8.56406 -9.15669,-1.0558 -27.91015,16.64397 -8.58936,11.36857 37.62786,-9.4175 76.3513,-13.71542 113.82358,-23.81749 10.02254,-9.92885 40.1085,1.06568 40.20238,-13.30132 -8.65621,-7.32581 -43.03454,2.9384 -36.67091,-9.17775 20.20628,-9.10349 45.54242,-8.82462 65.11238,-14.48392 7.5241,6.06586 12.12071,35.27758 12.33009,30.37229 -1.93784,-9.34958 -5.98999,-40.94657 10.35484,-22.6596 21.75601,-0.14948 8.01283,32.55373 23.10735,34.44179 8.75165,19.62098 -8.69195,36.79737 -12.31286,54.30434 3.57216,7.85062 11.16158,-2.08772 7.07886,10.48314 2.81694,20.2694 -30.46036,5.091 -43.15877,10.18048 -68.46365,0.70232 -137.1329,2.49451 -205.47019,-1.47474 -21.98706,-7.90708 -46.17746,5.35508 -69.6385,2.25537 -16.022549,3.76133 -26.045589,1.44222 -22.070678,-15.59604 0,-3.0911 0,-6.18221 0,-9.27331 z M 214.73173,394.9037 c -18.82335,-5.28396 -41.19608,9.37089 -56.24992,-9.87932 -23.8554,-17.24592 -48.5852,-34.53257 -67.789918,-56.93151 -9.640587,-19.85155 -10.349026,-52.26518 5.526061,-67.26701 6.028497,21.48036 14.544667,41.51633 32.731937,56.50192 13.41725,20.8487 34.65436,31.50724 52.47269,47.52237 13.24124,12.06426 19.09222,1.73149 9.28137,-10.74573 -12.86868,-24.30646 15.06791,-7.01645 22.16349,2.23037 14.88877,12.51074 32.19038,24.92072 52.47214,25.0386 14.06616,15.34295 49.2326,-13.03096 18.37057,-19.3804 -1.43958,-12.19915 20.86739,-21.05292 30.99666,-28.41488 16.54402,-13.12696 36.19966,-27.57534 41.9734,-48.90441 3.18582,-21.82442 -5.20564,-43.66806 -15.16587,-62.54353 -16.91819,-15.9424 -26.63629,-38.70065 -46.65336,-51.19027 -19.96999,-15.89458 -49.85614,-17.57716 -67.04755,3.60813 -9.91918,13.96792 -27.76566,50.37879 -47.46415,35.38915 -6.37856,-24.39681 -1.10271,-53.02904 19.99699,-68.89393 19.1985,-19.878 46.49356,-32.88348 74.4944,-30.16663 14.64836,-1.76481 54.61791,13.27756 49.86262,-10.85237 -5.04405,-14.245854 -27.67734,-22.233696 -30.94323,-32.481631 45.54148,-0.131188 91.11751,-0.01867 136.67291,-0.05621 4.17424,12.305458 -6.10589,19.079752 -14.07508,20.253486 -1.56971,12.024191 20.80774,13.495082 12.99087,28.847142 1.49767,53.2473 2.28895,106.7647 -0.86046,159.86942 -0.76796,9.47202 -21.16565,25.90832 -15.39562,8.52265 -10.84927,-7.74832 -31.80552,12.63461 -8.01463,10.33626 8.64447,12.34451 -22.88701,22.17719 -29.92041,32.84717 -9.40531,1.98822 -31.26081,21.5044 -8.8401,13.81248 25.83158,-5.56767 37.83571,-29.52363 56.51245,-44.09957 14.98014,-9.93538 4.29878,22.74434 7.39979,32.9424 -2.71403,12.63316 4.2633,40.97999 -11.5595,41.01563 -21.57448,-7.85915 -44.28115,-17.701 -66.02098,-4.4058 -18.79035,4.37697 -44.87526,1.29098 -54.08978,22.38523 -18.0342,17.17915 -47.07147,8.40106 -69.65338,8.15848 -4.76343,-0.83246 -9.48912,-1.87326 -14.17441,-3.06769 z m 194.113,-258.83044 c -10.48123,-23.74452 0.88871,31.45471 5.67847,23.73715 -0.5963,-7.95727 -0.91258,-17.04266 -5.67847,-23.73715 z M 90.555674,373.18778 c 3.341947,-13.7597 11.850806,11.94802 0,0 z m 175.964846,-9.79812 c -6.41247,-16.85262 25.38502,14.65978 2.71069,2.28266 -0.90356,-0.76089 -1.80713,-1.52177 -2.71069,-2.28266 z M 83.398064,350.6521 c 3.453747,-21.55837 15.244518,24.43443 0.695823,5.34975 -0.666181,-1.69579 -0.424762,-3.57758 -0.695823,-5.34975 z m 0.100098,-223.39715 c -0.05797,-19.92285 -0.115947,-39.845692 -0.17392,-59.768538 25.458868,0.716375 51.238898,-2.077117 76.397868,3.087862 -13.29433,26.754283 -39.89751,44.015176 -53.88379,70.528226 -8.649977,14.6647 -15.375184,30.34072 -22.166238,45.92098 -0.05797,-19.92284 -0.115947,-39.84569 -0.17392,-59.76853 z"
         id="path3960"
         inkscape:connector-curvature="0" />
      <path
         style="fill:#0e2c16"
         d="m 83.324242,473.12861 c -5.998401,-17.90295 13.522744,-27.53068 22.739318,-10.01947 9.71498,9.18328 21.55268,5.96696 10.02858,-6.71944 -3.16939,-22.73932 29.59543,-3.59929 31.20785,-24.05796 6.21816,-10.52302 26.3628,-0.70897 20.41164,-13.10669 15.9643,-0.93788 35.50513,-2.13363 49.96409,2.53486 -9.65518,0.0267 -41.33822,13.06078 -20.3354,20.54311 14.15095,4.08763 18.0283,-14.32319 34.22533,-11.79889 22.04964,-2.89622 45.33872,4.07567 66.46083,-5.10279 16.97968,-20.05166 46.18777,-11.50101 67.6915,-20.01799 -11.39535,-14.20996 -35.42763,-4.60236 -51.48762,-10.2589 10.09118,-13.48552 35.63145,-2.3344 50.61545,-11.74775 27.37185,-18.8206 23.16975,27.30295 29.15977,33.25089 2.67297,-11.33618 31.69935,-31.29135 24.58332,-7.41878 0.78012,12.99049 -15.87133,34.3624 -8.29124,42.2062 8.28675,-10.18568 15.01361,-35.4331 19.29866,-38.42124 0.56345,16.59432 4.2268,37.09705 -12.69029,46.17503 -6.01423,13.98245 12.21897,39.70174 -14.63986,35.16883 -17.67179,-2.90189 -57.28778,12.04736 -46.53566,-17.8167 1.52379,-9.40399 1.9018,-43.38313 -2.6518,-18.25658 -4.75055,15.96103 2.38845,44.09808 -22.62384,36.3223 -20.58871,0.19892 -41.36493,1.06813 -61.73911,-2.54782 -5.73109,-6.98656 -19.28834,7.64097 -21.74958,-6.58255 -19.35239,13.21895 -44.93927,9.25337 -66.83371,8.37052 -4.15118,-5.14205 20.03782,-16.39502 2.14293,-15.7599 -23.44965,6.51194 -45.84059,18.76684 -71.0406,16.64639 -13.685669,-0.40084 -33.464572,5.38376 -27.910558,-14.1815 0,-2.46772 0,-4.93545 0,-7.40318 z M 402.8876,461.97548 c -14.18115,-3.68483 -10.90239,27.64274 -1.78052,7.76008 1.12855,-2.19369 3.16877,-5.12102 1.78052,-7.76008 z m -18.83803,-8.44311 c 0.1569,-20.77221 -17.49561,37.03914 -3.16362,9.32489 1.2415,-3.04053 2.30528,-6.15447 3.16362,-9.32489 z M 256.87861,435.89575 c -6.92067,-12.27044 -25.31345,4.40198 -6.94692,3.91925 2.42479,-0.0713 6.53456,-0.73925 6.94692,-3.91925 z m 133.07843,-6.77704 c -8.94272,5.39337 5.76406,15.97365 0,0 z m -88.78591,4.09974 c -15.99963,-4.04091 -0.97797,7.69094 0.87969,0.39168 l -0.87969,-0.39166 0,-2e-5 z M 225.5424,397.82783 c -13.79857,-13.99409 -50.99521,8.02649 -52.76335,-13.37592 16.98957,-9.48607 40.69429,5.75975 55.16891,-2.82474 -15.56237,-10.85107 -35.10396,-19.46283 -41.99805,-38.67443 10.36409,-9.97083 25.1112,18.0133 37.1922,22.74924 18.32724,13.32854 41.48645,23.59452 64.35575,20.35095 8.94128,-4.77768 16.2328,-6.67632 7.89945,4.64645 -18.441,12.50066 -43.42208,8.77433 -64.75551,7.9957 l -2.5546,-0.40352 -2.5448,-0.46373 z m -31.3362,-8.96306 c -7.00088,-6.70666 -24.31245,-1.4717 -7.36794,1.51918 2.73087,1.78599 16.92272,3.4209 7.36794,-1.51918 z m 202.48009,2.28017 c -1.95506,-7.1783 -4.10465,-21.23713 3.12571,-7.6745 19.34486,4.26088 4.63822,22.42405 -3.12571,7.6745 z m -97.23448,-22.85622 c -12.93345,-5.38632 -12.57857,-20.26418 0.0493,-20.37418 9.50686,-8.55874 24.37389,-18.46521 31.98053,-23.84969 -3.64561,23.62633 12.30635,-13.24996 23.11336,-13.46018 12.46786,-1.95656 23.71135,-13.08131 34.49295,-9.89044 -3.88818,17.56842 -19.07822,31.62888 -37.39666,38.90555 -8.6171,9.25741 -37.50798,12.35687 -36.34577,16.711 24.97622,6.64975 46.96061,-11.56891 68.22612,-17.07092 12.77792,7.62831 10.65044,2.72799 15.1726,-8.04544 13.40738,-5.84567 14.31532,-33.82724 28.41969,-28.55908 0.57065,17.54703 14.57618,53.2164 -14.54641,51.75054 -1.63991,-4.66654 32.58498,20.97365 7.42606,17.40363 -22.51409,-8.22363 -46.72405,-17.85025 -69.26157,-3.95425 -16.55594,4.63245 -34.99628,7.42986 -51.33018,0.43346 z m 16.18218,-1.69749 c -15.99963,-4.0409 -0.97794,7.69094 0.8797,0.39168 l -0.8797,-0.39166 0,-2e-5 z m 105.15707,-38.70611 c -14.08917,-8.73528 -10.24597,15.39555 0,0 z M 154.0868,362.40984 c -12.66575,-4.59239 -28.81142,4.09307 -35.78536,-14.18034 -8.14513,-10.98427 -15.82776,-22.46588 -27.386405,-23.99407 -10.814307,-11.67085 2.229405,-48.38737 13.145305,-22.39331 6.61914,10.59615 6.41852,31.56464 19.69837,34.61317 -7.41487,-8.95599 -6.47923,-39.82799 5.09029,-15.66916 9.11217,20.29947 36.14113,29.51646 45.10226,46.15414 -5.22544,6.09103 -15.05761,-1.10466 -19.86446,-4.53043 z m 111.81878,0.33816 c -7.75185,-13.6276 29.05056,14.32815 4.94409,3.93651 -1.82973,-1.08977 -3.34718,-2.54622 -4.94409,-3.93651 z M 94.279206,271.28732 c 2.013817,-26.7602 3.791573,25.04171 0.02567,2.47331 l -0.02567,-2.47331 z m 277.141164,7.03785 c 16.51628,-16.48043 18.95554,-36.33556 12.83077,-57.75234 17.70365,-2.91325 -21.09256,-14.59837 -15.05746,4.04096 -16.02842,19.3293 -34.55037,-15.89886 -43.04608,-26.49216 -8.40078,-16.69792 -19.44372,-33.1086 -36.29095,-41.80219 -18.03685,-16.5154 -45.01092,-12.39586 -63.08695,1.62333 -9.92603,9.92362 -25.77628,6.45635 -32.78858,8.10393 7.17624,-33.73333 43.52662,-58.57982 77.64817,-51.34125 24.83823,2.16032 52.60776,0.68095 70.18944,18.54878 23.93724,-6.79313 -9.37695,-28.13504 -14.40913,-40.410743 -9.89064,-6.763283 -25.95457,-26.991055 -3.39215,-24.834105 17.17128,8.758097 34.85342,12.423623 51.89805,1.255931 25.90205,-3.372621 19.41389,34.733617 19.89256,51.401447 -0.84754,10.71347 -0.16667,11.29627 -6.75357,3.84254 -9.58196,17.97607 7.5604,41.15098 3.48632,62.52879 4.40331,11.91941 -0.14982,36.86805 18.48526,23.96157 11.15203,20.43566 16.11604,-34.74738 18.13143,-8.28279 0.3449,25.0154 2.42595,50.33131 -2.42918,75.07478 -20.06867,8.73611 -42.8511,4.99137 -63.87905,9.52637 -1.69197,-3.22491 6.61362,-6.02134 8.5711,-8.99285 z m 49.37069,-50.14958 c -11.84533,-15.49477 -11.57952,15.11574 0,0 z m -48.20954,-27.43474 c -4.24734,-21.32016 -22.28166,20.83076 -1.25486,4.97239 1.77859,-0.97188 2.31718,-3.36067 1.25486,-4.97239 z m -16.37116,-61.64651 c -8.94272,5.39337 5.76406,15.97365 0,0 z m 7.80597,107.00042 c 10.37561,-24.62506 8.29503,25.21486 0.64677,2.74257 l -0.64677,-2.74257 z M 189.38524,183.33554 c 9.51108,-15.25845 14.80297,8.36865 0,0 z M 83.940885,125.29532 c -0.257917,-19.26964 -0.515833,-38.539272 -0.77375,-57.808908 17.451685,1.764391 41.149855,-4.850425 53.832495,6.766802 11.60642,-15.233246 30.46607,-2.155312 13.85816,10.531591 -24.01951,20.694585 -42.4174,47.029965 -57.534305,74.760055 -3.200963,19.34891 -11.868092,11.64347 -8.867586,-3.11555 -0.277967,-10.37601 -0.355598,-20.75583 -0.515014,-31.13399 z m 340.417345,33.31361 c -0.94949,-15.88264 -25.88212,-46.96703 0.84358,-51.75854 4.70905,19.94842 6.4124,48.21867 1.62546,64.27206 -1.53853,-4.02976 -1.36488,-8.39067 -2.46904,-12.51352 z m -1.15669,-87.20327 c 3.34197,-13.759701 11.85079,11.948041 0,0 z"
         id="path3958"
         inkscape:connector-curvature="0" />
      <path
         style="fill:#0a1612"
         d="m 69.936117,479.56982 c -1.483326,-87.80668 4.249869,-175.53079 6.723277,-263.27419 1.603359,-43.04782 3.337442,-86.09617 6.049958,-129.090703 6.700582,120.202063 8.526185,240.693573 19.106388,360.663843 -5.982887,22.84947 27.58066,31.36408 27.18982,6.1783 14.50639,-9.83009 38.85547,-22.69359 52.35761,-19.87612 -8.27104,7.4675 -12.10817,9.03078 0.28284,8.95372 3.56537,9.36855 24.57214,21.55012 10.55749,4.69111 9.43006,-12.86491 39.74262,-2.23083 56.54693,-7.90432 17.63181,-2.47242 41.12231,2.49643 55.20661,-6.18121 -15.76635,-8.40314 16.17726,-8.28721 21.164,-16.6771 12.62999,-10.25964 33.90434,-5.32885 44.72363,-10.75391 -5.85882,-7.37218 -26.82104,-12.54619 -7.4986,-17.23159 11.76402,-6.37163 22.87268,-16.0761 23.50596,4.11224 2.77597,32.3792 -8.09721,64.17106 -16.41861,95.0721 -2.82514,8.47401 -9.82022,29.24603 -11.55675,9.40096 -5.43001,-24.00894 3.94502,-51.20672 -6.0315,-73.47152 -6.48092,25.0146 1.27448,53.56401 -2.26922,79.8863 -6.75351,10.05082 -31.31163,2.17507 -45.33558,4.81577 -15.9664,3.92003 -33.77556,-9.13668 -44.68995,-1.27806 -9.35966,2.45571 -9.64433,-26.28863 -20.12336,-8.27737 -10.79481,12.91378 -47.77967,13.24078 -48.47802,-0.71561 5.43469,-16.36401 -26.98626,-2.49882 -34.41679,-0.3705 -12.55122,14.03896 -32.571,20.26726 -50.60316,14.33344 -8.092787,-1.29885 -16.185576,-2.5977 -24.278364,-3.89655 -3.90487,-9.70301 -7.809739,-19.40602 -11.714609,-29.10903 z m 162.569673,14.26 c -6.63778,-10.69948 -45.87605,-3.4838 -18.03539,3.35436 5.74836,2.37976 15.40638,4.50516 18.03539,-3.35436 z m 15.63484,-21.41887 c -22.2296,-6.37011 4.47631,31.72761 2.51405,5.70662 -0.28813,-1.9173 -0.41406,-4.6956 -2.51405,-5.70662 z m -75.12654,-23.696 c -9.08808,5.30554 6.14787,16.12343 0,0 z m 200.51887,57.11757 c 5.27959,-25.68972 12.94667,-51.01122 24.37581,-74.66675 3.49046,-4.55631 -1.4258,-23.8762 8.54614,-7.80091 8.86254,26.85674 -19.35274,46.62212 -21.16288,72.21335 -0.78918,5.74522 -4.18212,18.25679 -11.75907,10.25431 z m 19.16914,-4.66775 c 12.25305,-22.75897 23.45233,-45.96932 31.94256,-70.42703 3.3328,-11.00198 6.60604,-15.16467 5.40844,-1.51016 1.73881,20.66429 -21.7651,32.99415 -15.49299,54.13411 8.34143,11.32251 -13.95767,33.41344 -7.7841,12.31062 3.8928,-15.29426 -11.20534,6.34269 -8.59615,12.86972 -3.15699,-1.18357 -5.66156,-3.92142 -5.47776,-7.37726 z m 16.03658,-135.81549 c -10.2338,-10.17486 35.70755,7.14754 8.93383,2.37887 l -4.50621,-1.04103 -4.42762,-1.33784 z m -13.79577,-13.71737 c 7.00175,-5.72793 37.13949,-24.42184 27.76467,-4.55135 -4.54015,3.77837 -29.04785,16.79618 -27.76467,4.55135 z m -78.60586,-3.37693 c 2.92657,-5.52278 16.56062,-2.74101 9.36813,-12.38587 12.29836,2.02102 28.91125,-10.389 38.06645,-7.05477 -10.74655,9.57525 -35.3347,26.98271 -47.43458,19.44064 z m -181.99048,-5.02252 c -7.54562,-23.68271 22.04615,23.05503 0,0 z m -31.73851,-20.2187 c -11.432861,0.0547 -19.085491,-10.22323 -12.360092,-20.12855 1.161839,11.94498 24.358682,9.92556 13.974442,22.36072 l -1.61435,-2.23217 z M 425.99262,261.8158 c 2.61991,-16.58275 4.50092,13.46548 0,0 z m 1.11326,-31.68059 c -2.07984,-13.40281 4.05662,-15.59452 3.00631,-1.3278 -0.41198,14.48242 -3.78188,18.48974 -3.00631,1.3278 z m -88.27105,-45.30265 c 6.52316,-18.77064 13.0677,20.49408 0.3804,3.13335 -0.1268,-1.04445 -0.2536,-2.0889 -0.3804,-3.13335 z m -14.46286,-23.28419 c -20.18211,-11.40079 -39.02683,-29.25455 -63.42886,-29.52655 21.84476,-8.67161 48.93065,-1.86247 66.19081,14.20992 14.00125,5.10987 13.17535,35.26396 -2.76195,15.31663 z M 83.864049,108.64088 C 79.328154,90.226896 74.792258,71.812913 70.256363,53.398929 118.78555,49.112362 167.46321,50.617648 216.02824,53.207163 c 74.52739,2.798127 149.10199,5.355576 223.44483,11.528451 9.41642,19.733101 -0.0218,42.456696 2.82273,63.448626 -2.63917,122.40245 -3.82085,244.90615 -11.00053,367.14476 -5.67544,11.29812 -2.68446,-29.49033 -4.38487,-38.00279 -4.3441,-124.0476 -4.01671,-248.22795 -9.88828,-372.227001 -11.9752,-15.874261 -36.99128,0.0888 -54.1475,-6.590296 -66.55992,-2.457438 -133.23919,-12.498629 -199.84376,-6.030566 -24.83856,3.316428 -39.74006,23.29755 -49.27018,43.768013 -4.78691,9.20491 -13.61812,13.25024 -22.720806,9.08811 20.235556,7.57247 -9.561843,31.33956 -6.145836,9.81553 -0.628405,-8.82313 -0.776435,-17.67004 -1.029989,-26.50912 z M 416.62664,123.567 c -10.13091,-11.41358 22.83749,-23.03282 7.97887,-7.76683 -3.56316,4.36791 -8.26814,24.01365 -7.97887,7.76683 z"
         id="path3956"
         inkscape:connector-curvature="0" />
    </g>
  </g>
</svg>
