<?xml version="1.0" encoding="UTF-8" standalone="no"?>
<svg
   xmlns:dc="http://purl.org/dc/elements/1.1/"
   xmlns:cc="http://creativecommons.org/ns#"
   xmlns:rdf="http://www.w3.org/1999/02/22-rdf-syntax-ns#"
   xmlns:svg="http://www.w3.org/2000/svg"
   xmlns="http://www.w3.org/2000/svg"
   xmlns:sodipodi="http://sodipodi.sourceforge.net/DTD/sodipodi-0.dtd"
   xmlns:inkscape="http://www.inkscape.org/namespaces/inkscape"
   viewBox="0 0 512 512"
   id="svg2"
   version="1.1"
   inkscape:version="0.48.4 r9939"
   width="100%"
   height="100%"
   sodipodi:docname="notsure21.svg">
  <metadata
     id="metadata48">
    <rdf:RDF>
      <cc:Work
         rdf:about="">
        <dc:format>image/svg+xml</dc:format>
        <dc:type
           rdf:resource="http://purl.org/dc/dcmitype/StillImage" />
        <dc:title></dc:title>
      </cc:Work>
    </rdf:RDF>
  </metadata>
  <defs
     id="defs46">
    <filter
       id="filter3108"
       x="0"
       y="0"
       width="1"
       height="1"
       inkscape:label="Lightness-Contrast"
       inkscape:menu="Color"
       inkscape:menu-tooltip="Increase or decrease lightness and contrast"
       color-interpolation-filters="sRGB">
      <feFlood
         id="feFlood3110"
         result="result1"
         flood-opacity="0.44137931034482758"
         flood-color="rgb(0,0,0)" />
      <feBlend
         id="feBlend3112"
         in2="SourceGraphic"
         mode="normal"
         result="result2" />
      <feComposite
         id="feComposite3114"
         in2="SourceGraphic"
         k2="1"
         operator="arithmetic"
         result="result3" />
      <feComposite
         id="feComposite3116"
         in2="SourceGraphic"
         operator="in" />
    </filter>
  </defs>
  <sodipodi:namedview
     pagecolor="#ffffff"
     bordercolor="#666666"
     borderopacity="1"
     objecttolerance="10"
     gridtolerance="10"
     guidetolerance="10"
     inkscape:pageopacity="0"
     inkscape:pageshadow="2"
     inkscape:window-width="1185"
     inkscape:window-height="1030"
     id="namedview44"
     showgrid="false"
     inkscape:zoom="0.921875"
     inkscape:cx="160.27574"
     inkscape:cy="318.50045"
     inkscape:window-x="100"
     inkscape:window-y="100"
     inkscape:window-maximized="0"
     inkscape:current-layer="svg2" />
  <g
     id="g3069"
     transform="matrix(0.86384507,0,0,0.7956483,18.667769,65.521539)"
     style="filter:url(#filter3108)">
    <path
       style="fill:#dadee5"
       d="m -193.29689,245.0732 c 0,-107.70353 0,-215.407061 0,-323.110592 307.83852,0 615.67704,0 923.51556,0 0,215.407062 0,430.814132 0,646.221192 -307.83852,0 -615.67704,0 -923.51556,0 0,-107.70353 0,-215.40707 0,-323.1106 z"
       id="path3085"
       inkscape:connector-curvature="0" />
    <path
       style="fill:#abb4c6"
       d="m -193.29689,551.07202 c -4.50435,-43.09626 19.65635,-78.89019 37.862,-114.34415 2.60978,-14.60066 19.30003,-45.63723 15.09067,-12.10744 0.64525,45.98034 -1.86551,98.97043 -13.98156,140.4955 -12.02808,9.67736 -47.99103,9.51622 -38.97111,-14.04391 z m 47.76579,-54.85834 c 8.9299,-28.43183 -11.70761,9.61816 0,0 z m -5.03663,-41.38839 c -8.96696,-1.70559 3.17216,14.59877 0,0 z m 9.69428,110.41629 c 9.37986,-61.7168 -1.86393,-126.03534 18.29542,-186.14316 19.97432,-36.43447 17.244,14.00818 21.45942,2.95055 4.275097,35.91917 12.642604,74.97169 23.676655,111.92137 -2.890314,30.54495 40.732871,83.63618 -16.608099,75.10223 -15.677986,-0.30369 -31.214076,-2.58726 -46.823396,-3.83099 z m 156.883409,-2.59394 c 6.393899,-36.87759 35.374413,-110.42828 21.524449,-124.86623 -4.113365,18.45284 -16.52531,41.03513 -11.918013,7.65526 4.218277,-52.57728 5.330655,-105.89156 2.64287,-158.40316 C 16.441742,257.07622 -10.356703,349.7836 3.8316328,298.43631 29.928408,263.28054 25.075794,201.75539 65.565201,181.91366 87.179609,171.06131 142.00247,195.15049 141.5713,185.4886 102.85987,161.42885 75.62201,107.28823 121.87025,76.253701 153.33522,38.647055 186.89398,-0.67507895 231.25242,-22.84383 c 21.68343,-7.07371 57.74298,6.819444 71.04468,-10.793561 -52.95571,-6.365066 -108.39137,6.824299 -143.11234,49.192003 C 122.17411,35.92769 90.68535,126.62082 45.21133,77.858085 16.93865,40.006048 10.924933,-8.5760233 3.9681017,-53.87615 1.3104773,-3.2056464 11.322476,53.055314 45.800231,92.337849 106.31679,132.30417 -5.3259977,179.69853 -3.3245428,149.01604 23.969903,184.08914 -28.54379,148.28654 -35.890701,133.84011 -47.660445,120.70134 -91.012581,81.522287 -90.789648,93.768607 c 19.093812,31.250423 70.636793,53.148523 76.475093,82.720813 -32.306896,33.42176 -86.495255,18.30845 -123.795745,43.5683 -16.8265,12.65959 -65.44869,63.66924 -53.78153,11.02599 -3.39177,-83.18659 0.23859,-166.405294 -0.67105,-249.614297 -1.26636,-19.810427 -0.54705,-39.669321 -0.73351,-59.506805 120.588419,-0.821809 241.10697,3.147919 361.68582,0.24191 159.92152,-1.31766 319.86971,-1.147248 479.76565,2.274528 -5.83761,46.577425 -32.08523,87.124427 -67.97239,116.354419 -27.15029,24.466286 -59.88439,43.611412 -80.69487,74.435885 37.11579,-36.273192 83.67065,-60.098843 127.41817,-86.924462 40.30234,-22.2452426 12.44866,-88.076839 40.77546,-105.228999 36.40148,-13.631487 78.50748,6.692915 61.73569,49.410526 1.50505,198.549285 0.51497,397.105085 0.80203,595.657385 -27.46724,-4.0076 -65.9031,10.09807 -82.25244,-20.66521 3.98481,22.64477 -12.79644,16.00815 -15.56585,0.26045 15.86769,32.35734 -30.96645,10.69748 -19.94318,0.42654 -7.19645,32.20989 -18.27736,7.11072 -31.14868,-0.38826 -18.88135,25.69615 5.45,-75.40746 -16.80859,-29.36228 -0.50837,30.64281 -13.00786,60.58525 -48.45471,49.72876 -166.98926,0 -333.97852,0 -500.967777,0 0.310663,-1.84538 0.621372,-3.6908 0.932016,-5.53616 z M 586.56069,535.57077 c -3.96606,-10.93689 -1.35987,15.56019 0,0 z M 206.16484,507.60032 c -16.61255,-24.51273 -8.97302,-59.65953 -25.62064,-82.63376 2.46644,39.23361 -1.51789,73.62471 32.44103,100.63695 -0.21407,-6.61125 -4.63759,-12.04403 -6.82039,-18.00319 z m 420.54893,14.78431 c 8.53145,-19.01211 -23.62686,-37.68075 -6.31582,-7.63674 0.40239,1.63076 2.43042,18.52535 6.31582,7.63674 z m 9.60351,-23.2644 c -9.5914,1.48258 12.8682,17.17437 0,0 z m 9.42395,-0.85146 c -4.05915,3.58609 3.68983,5.91024 0,0 z m -88.16942,-25.91265 c -9.94745,-29.9198 13.53564,-110.65754 46.10899,-60.74191 4.49723,17.16847 -11.34364,81.09145 8.65792,66.1967 11.15773,-46.20699 8.14554,-90.61418 -7.7525,-134.34249 -9.83981,-21.8057 -25.49139,-77.82039 -47.73432,-69.54422 -16.6841,36.50877 16.76469,80.88844 -12.61598,108.29031 5.71256,34.03158 -0.42628,76.7382 11.35767,105.51818 1.75878,-4.9393 1.65591,-10.23027 1.97822,-15.37657 z m 39.25017,-113.53993 c 2.60478,-7.05201 3.43955,8.8179 0,0 z m -6.49882,-8.45524 c -7.32483,-18.29568 19.65282,3.02903 0,0 z m -6.22418,-15.46673 c -13.59197,-17.91833 -0.0658,-42.52477 5.99984,-10.92653 4.01839,5.35875 3.02542,25.43184 -5.99984,10.92653 z m -10.07985,-3.59109 c -8.57969,-9.53913 7.96334,0.76184 0,0 z M 564.66995,283.927 c -22.88477,-17.27523 19.13073,-1.12747 0,0 z M 632.566,485.14136 c 2.66718,-19.14052 -8.67591,1.3069 0,0 z m -59.68702,-15.60192 c -3.94826,-8.15585 -3.94826,8.15585 0,0 z M 114.13559,430.24531 c 26.96683,-37.26243 21.15271,-96.33947 11.17656,-135.35456 -13.70528,33.66496 -14.15636,75.79186 -22.69372,112.59622 -0.66772,7.10254 -3.375023,33.53377 11.51716,22.75834 z m 599.15815,-3.57868 c -8.34431,3.857 7.85067,13.45012 0,0 z M 233.47776,416.16075 c -7.24293,-24.56067 -11.29027,-79.23703 0.94059,-86.63183 16.01732,32.08089 38.8447,14.96827 17.72401,-9.52784 33.54069,-10.63647 -21.90485,-38.12861 -0.78856,-60.67002 -37.39378,-2.82874 -11.03471,-67.49026 -46.9578,-81.5114 -6.5589,26.36482 5.28239,59.88313 5.52005,89.1819 4.09575,39.51554 7.76351,79.3198 0.70018,118.67025 -6.23178,10.33555 17.41055,52.52495 22.86153,30.48894 z M 212.02383,224.9417 c 6.29246,-11.80393 7.31971,7.41447 0,0 z m 379.55754,184.32584 c 5.54922,-16.5068 -15.26666,1.51 0,0 z M 339.0509,372.35327 c 5.32834,-20.95142 -9.03078,-31.84535 -2.75528,-2.46292 -4.58671,4.02634 3.41835,7.43393 2.75528,2.46292 z M 597.85524,298.9669 c -4.05916,3.5861 3.68985,5.91026 0,0 z m -30.43247,-42.31808 c -11.56402,-14.17185 -8.9562,12.72648 0,0 z m -388.74811,-8.55589 c -8.92613,-10.1563 0.85529,7.18785 0,0 z m 364.45373,-31.66518 c -4.05915,3.58609 3.68983,5.91023 0,0 z M 249.64854,197.75952 c 29.50439,0.88682 18.75867,-44.85609 8.61288,-47.83044 -7.98108,5.77501 -22.16102,55.60561 -8.61288,47.83044 z M 589.09108,181.04909 C 641.49237,150.43273 658.85683,87.736204 680.21918,35.031663 682.141,6.9338766 646.42694,103.7476 653.70452,76.908358 634.12253,112.89409 623.46937,162.771 580.42073,177.69772 c -28.98717,9.1469 -4.71394,15.23755 8.67035,3.35137 l 0,0 z m -630.245492,2.85338 c -14.844575,-20.95323 -36.604728,-5.6737 -5.820429,1.25368 l 5.820429,-1.25368 z m -36.703033,-18.3487 c -8.254971,-10.3639 -3.264428,8.04084 0,0 z m 35.171818,-0.0709 c 17.414013,-33.01826 -22.321631,1.07393 0,0 z m -44.150441,-3.27556 c -10.109049,-6.14978 -1.875224,5.11403 0,0 z m 57.719722,-38.92973 c -3.570466,-8.93808 -2.435785,7.07156 0,0 z m 295.867026,-6.78006 c -2.24689,-25.270331 -11.65632,12.87618 0,0 z m 227.76052,-8.8791 c 9.11766,-9.351575 40.79755,-35.800202 8.85709,-18.901588 -6.00044,0.996833 -34.2187,29.231998 -8.85709,18.901588 z M 213.84647,99.048988 c 12.84216,-21.25164 -17.18646,10.545182 0,0 z m 12.17974,-5.33068 c -10.51608,-4.287346 1.84665,4.800327 0,0 z M -154.83877,38.683997 c -17.26947,-17.227106 -34.65548,-10.840988 -4.68632,-0.733464 -1.98044,0.953011 7.03897,4.669955 4.68632,0.733464 z M 582.28516,566.17065 c 1.24521,-6.78512 4.15397,8.28856 0,0 z m -775.58205,-121.9144 c 1.08398,-46.39312 2.9355,-92.88671 0.22905,-139.17744 11.48651,-49.30696 62.25133,-81.48108 107.70792,-96.22997 14.795721,-13.2575 75.104878,-3.22035 40.578282,14.91098 -42.237652,-11.1368 -66.659482,43.64597 -90.140572,71.1935 -6.57207,14.91948 -49.57898,42.25466 -36.67327,49.86846 15.98409,-25.28376 35.64805,-12.49436 19.88414,11.57658 -13.02514,45.92342 -11.57325,98.17257 -41.08769,138.54709 -1.85939,-16.85472 0.42069,-33.80244 -0.49786,-50.6892 z m 51.93834,-187.02396 c 23.42082,-24.9137 -38.56578,12.76748 -38.20168,27.80247 -24.46544,36.27579 20.48798,-18.78266 38.20168,-27.80247 z m 72.4441,225.18292 c -11.68823,-14.52101 8.34473,-2.42755 0,0 z m -9.682355,-58.50718 c -5.212508,-16.97028 23.399692,-54.40106 13.989519,-16.64636 0.447685,3.08272 -12.85627,31.83569 -13.989519,16.64636 z m -9.433788,-5.20063 c -12.423997,-16.16659 16.497704,-72.57648 4.466196,-25.05571 -2.82722,6.37353 6.616132,24.69421 -4.466196,25.05571 z m -67.375317,-13.35244 c -7.79517,-18.82584 29.67784,-46.43274 0,0 z m 135.024995,-33.4533 c -0.479168,-16.1615 14.2573749,-21.73031 0,0 z M -146.9861,367.44759 c -4.13028,-22.22434 26.36001,-41.7085 7.13289,-10.14318 -0.84603,-0.18299 -4.97257,16.95293 -7.13289,10.14318 z m 34.06927,-9.42829 c 6.29885,-21.90712 24.637708,-14.56068 0,0 z m 59.857488,-101.87377 c 2.604819,-7.05198 3.439521,8.8179 0,0 z m 45.1080059,-71.39327 c 5.3465387,-21.05482 21.4599811,17.08431 0,0 z M 95.129795,172.11771 c -9.484089,4.9139 -42.453739,-3.06903 -16.71858,-10.16757 -22.972435,-60.19092 64.612985,22.78975 16.71858,10.16757 z M 595.5033,40.362369 c 5.15296,-14.319299 5.25306,7.063404 0,0 z m 13.62076,-7.391231 c 14.46559,-30.714877 25.76774,-5.242366 0,0 z m 28.76335,-38.7919129 c 3.21227,-46.6459441 17.77418,-10.6382821 0,0 z"
       id="path3083"
       inkscape:connector-curvature="0" />
    <path
       style="fill:#959ba9"
       d="m -193.29689,557.5141 c -15.6811,-17.74365 40.39319,-43.08688 5.71699,-33.49862 -13.10273,-25.61238 37.06002,-97.29271 35.16398,-39.19759 -2.45702,33.77857 17.70655,108.01166 -40.09294,78.69844 l -0.78803,-6.00223 0,0 z m 53.8296,0.10066 c 6.47306,-49.23793 6.48442,-99.28969 7.60319,-148.57389 0.11756,-20.8328 34.160065,-55.49876 21.97636,-13.71361 7.19708,17.38466 -24.73793,47.88266 7.72888,28.61432 18.809849,19.97666 15.405535,59.20027 24.980358,84.51304 -26.834308,19.35429 4.753562,40.68027 7.524273,53.20235 -10.165078,8.90265 -72.408801,12.82101 -69.813061,-4.04221 z m 23.37083,-37.74656 c 7.97025,-16.7953 -26.94936,7.94747 0,0 z M 19.963341,558.53551 C 31.424939,505.5389 57.935349,455.1452 55.290926,399.68317 56.751435,366.20998 85.871002,307.68634 71.960505,290.04634 57.558795,307.14103 53.005238,371.88284 40.050926,359.28484 41.441211,306.8985 60.623038,256.44757 77.731941,207.99192 98.250968,168.16519 141.85484,199.05084 166.536,199.07419 146.65572,169.0036 82.129661,153.45924 109.77377,106.90748 140.22441,67.732683 171.79445,27.845506 208.35894,-5.8896777 239.64246,-36.68654 293.4216,-2.3051351 321.41085,-33.434973 273.24235,-41.419262 217.19267,-40.975345 180.48018,-3.7425704 144.05847,28.211309 106.80383,59.566902 73.47369,94.336265 29.541841,76.325022 15.249048,13.367088 8.6751276,-31.912921 -11.751234,-69.05249 21.96192,-88.41753 55.012699,-77.660597 c 192.454631,-0.469181 385.033931,-1.282851 577.525031,0.922204 23.90441,40.308241 -21.08298,85.6069845 -50.30707,109.909647 -19.10125,12.524225 -49.13381,20.094484 -43.03508,33.271795 -34.46202,13.918228 -67.15369,28.139345 -73.36724,71.625661 30.1967,1.03085 53.4481,-38.462535 79.04071,-55.379517 33.80099,-22.86738 74.11826,-38.674461 99.86036,-72.9833212 32.66472,-15.9631263 -16.47788,-88.0427178 36.12296,-87.4767488 46.90303,-14.739026 58.27522,27.37137 48.70821,63.356136 1.22298,194.197361 0.42812,388.399131 0.65809,582.598541 -38.6789,6.01219 -81.02887,-2.61186 -81.06452,-47.01871 -11.54732,5.21111 12.62933,28.09112 -13.51882,20.90336 -9.85134,1.79765 -8.82692,45.08638 -17.54396,7.45818 -13.28416,-7.5901 -29.88572,-3.96286 -35.71272,-23.38094 -9.6395,42.88479 -10.42612,-36.96292 13.86077,-4.49889 14.10421,24.04672 8.47466,-35.69255 24.94411,0.28007 10.50022,10.70355 9.087,-52.69419 8.07678,-46.8691 -30.58071,26.40513 1.75768,-56.1536 -7.54096,-75.31973 -15.42649,-40.61591 -16.14846,-85.3461 -28.64096,-126.53489 9.59258,30.66993 -18.8527,20.07302 -17.17571,-6.13049 -19.23659,-27.05133 -48.41029,-78.02419 8.45773,-78.72935 49.08196,-26.95852 73.49069,-82.95488 91.26569,-133.503033 4.82844,-17.238911 24.677,-75.982462 5.79964,-31.440598 -29.43326,39.268279 -41.62726,87.949711 -68.84214,127.486521 -23.43359,33.323 -67.56739,21.12126 -95.85387,35.377 4.34688,39.43899 29.75627,79.194 25.03831,122.78043 -0.127,63.60602 -5.37952,127.44214 5.40765,190.6048 2.7355,30.87579 13.99492,81.0744 -33.4558,68.65081 -61.26733,1.98092 -122.78989,-5.56624 -183.85604,2.09063 -21.52818,-13.93509 27.20314,-81.04914 -0.65016,-31.533 -17.3254,40.22878 -75.11814,27.44291 -109.57852,28.86373 -27.89346,-11.42573 -0.71181,-49.62377 -5.0147,-40.83255 -17.12996,-37.21236 -21.92605,-78.31099 -32.65736,-117.47456 -13.0561,42.41128 -5.30908,90.57777 0.73665,132.56295 7.88928,49.15964 -63.70434,22.71488 -92.583574,20.23025 -17.645833,1.70939 -57.731728,19.83292 -70.152845,-3.67118 z m 27.587548,-3.94048 c 8.568604,-19.18575 14.48897,-64.51557 2.7218,-69.85993 -10.506305,21.41202 -12.810304,47.85572 -2.7218,69.85993 z m 26.208927,-21.8408 c -8.010765,-18.89559 4.613472,29.27755 0,0 z m 174.995564,-6.79708 c 24.25343,5.29775 35.17994,-46.07509 12.33205,-21.71076 -19.23751,-13.68531 -42.04932,-26.62285 -5.03866,-28.25163 10.62663,-36.39706 -40.10948,-72.063 -21.54796,-111.79208 13.9058,-28.48104 34.26987,48.80717 41.05058,-2.69318 9.19858,-35.15345 -31.82286,-72.70715 -12.25095,-101.66491 -35.72615,-7.29754 -28.11029,-18.72251 -5.88866,-33.52219 1.84023,-11.97447 -10.14343,-45.87124 13.80589,-30.40403 -5.67338,-40.151 13.00653,-105.204822 -42.45634,-114.87738 6.14157,-13.128168 31.21287,-63.79571 -0.97575,-46.359424 -20.97933,19.865415 -39.62645,85.134574 10.56994,66.055314 34.29642,8.70443 15.44629,92.65711 -15.18726,74.12974 -40.64496,-30.85973 -28.69126,36.43446 -24.52742,58.75506 3.54048,38.62219 17.57003,76.58741 15.78439,115.31685 -13.21727,34.18521 -27.11359,80.80714 12.72918,98.15356 -4.41328,24.45118 -24.90537,89.08374 21.60097,78.86506 z M 229.98355,207.84317 c 3.23145,-48.16935 24.99411,28.63209 0,0 z m 130.8289,313.91936 c -4.17403,-9.53275 -2.73002,0.2137 -0.82512,4.38399 l 0.82512,-4.38399 z m -235.97232,-9.04722 c 21.44398,-33.29649 -20.57309,-33.5203 -39.106535,-50.2935 -0.505062,19.9307 22.114385,47.66021 36.642345,57.45009 l 2.46419,-7.15659 z m 525.95119,-3.09878 c -3.9194,-42.81392 -39.46104,11.11995 0,0 z M 494.20914,495.82921 c -2.77353,-20.9559 -5.27523,17.99885 0,0 z m 181.90115,0.88776 c -3.32245,-11.696 -5.03917,11.45142 0,0 z m -31.40232,-26.06673 c -1.49967,-25.35777 -12.61915,0.16125 0,0 z m 52.3469,0.0531 c 6.8356,-32.66789 -16.21907,8.47894 0,0 z m 12.31094,-24.36837 c -6.20722,1.82505 2.26718,7.90449 0,0 z M 115.88384,432.29616 c 50.34164,-23.78763 32.30792,-88.53303 24.92623,-131.71567 -12.04875,-28.07881 28.94698,-70.75356 16.59304,-80.83335 -23.39705,30.27471 -47.20932,64.4013 -44.9269,105.82236 -2.6017,36.8713 -18.374832,83.98896 -10.34536,115.07796 5.24341,-1.82846 8.06595,-7.41997 13.75299,-8.3513 z m 599.76211,-2.51643 c -12.40047,-21.22526 -2.59731,28.96178 0,0 z m -188.97972,-21.1906 c -8.6332,-38.86544 -2.80274,-83.79165 -26.28706,-117.7111 -4.01928,38.20947 16.80751,116.44437 27.82842,128.66134 l -1.02898,-6.76486 -0.51238,-4.18538 z m 146.00032,6.95348 c 19.8949,11.83607 29.81956,-4.95144 3.19161,-4.93288 -30.46654,-13.44132 -21.78562,23.17658 -3.19161,4.93288 z m -298.34287,-9.03293 c -3.29398,-24.8225 -1.90143,31.49887 0,0 z m -37.9682,-1.89433 c 25.16094,-13.12042 0.19041,-84.27089 -1.52287,-78.26991 -3.53109,19.42791 -22.22534,75.08044 1.52287,78.26991 z M 636.1569,347.18523 c -1.32387,-26.20655 -17.09801,1.21946 0,0 z m -19.59714,-2.32716 c -12.42191,-12.63063 1.63344,11.14809 0,0 z m 8.49848,-17.749 c -2.97529,-27.19147 -17.04952,7.45898 0,0 z M 150.88368,305.68503 c 7.1555,-18.95483 -13.49631,10.41434 0,0 z m 524.03057,-48.02964 c -4.47322,3.84043 5.70178,10.05724 0,0 z m -90.77524,-8.4839 c -12.81677,-21.65536 6.56086,23.28293 0,0 z m -400.00217,1.65004 c -6.0056,-39.34774 -24.64589,8.69339 0,0 z m -94.665357,-14.8075 c 9.118947,-21.38874 -15.611929,23.45045 0,0 z m 485.972817,0 c -4.29585,-8.26865 -1.11576,6.66243 0,0 z m 93.75009,-16.60849 c -4.94208,-26.30332 -5.87575,16.21135 0,0 z M 508.74596,169.58007 c -7.90519,-8.9858 -4.24514,8.07863 0,0 z m 6.82874,-1.9901 c -4.50695,-4.28788 -3.58804,8.69523 0,0 z m -19.65535,-8.02924 c -8.14191,-20.44569 -16.15073,7.00604 0,0 z M 152.11681,147.51406 c 0.12305,-14.56521 -13.86457,11.26795 0,0 z m 6.98809,-27.75945 c 31.8781,-17.56122 -2.71815,-60.933751 -22.56392,-23.931502 24.95781,-10.375476 -21.34085,33.764722 12.2301,31.626682 l 5.14881,-2.74515 5.18501,-4.95003 z M 429.2994,71.108135 c -12.14061,-17.687654 3.0541,17.932317 0,0 z m 150.42044,-1.178993 c 3.90649,-10.760139 -9.18081,13.112643 0,0 z m 68.11143,-24.661089 c 16.21693,-54.3607763 -19.8566,2.807983 0,0 z M 262.31583,18.897224 c -7.7268,-19.82322755 -14.74925,8.427229 0,0 z m 10.30926,-0.253583 c 17.08941,-16.6873986 -19.60831,6.282994 0,0 z M 697.7246,-9.8279079 c -5.85211,-4.8577731 -0.32838,12.4503914 0,0 z M 657.71273,-61.386963 c -4.05916,3.58609 3.68983,5.910231 0,0 z M 604.51794,566.17065 c 8.33376,-10.49115 2.40346,9.26947 0,0 z m 37.55439,-0.13388 c 0.008,-11.50547 6.74946,8.68882 0,0 z M -77.543906,536.678 c -8.989183,-16.07951 11.112206,-8.68087 0,0 z M 557.14618,522.78877 c -0.0176,-32.86674 -0.67722,-75.98195 13.3966,-101.97418 -23.27549,-16.69166 29.52365,-30.73067 29.72413,0.36484 -1.05491,27.12355 3.15312,66.57373 -0.79203,85.26319 -15.35328,2.49696 -42.35794,-9.63909 -42.3287,16.34615 z M 574.5892,484.9736 c -4.66462,-15.24865 -9.15555,10.97236 0,0 z m -0.30216,-16.10428 c -7.10603,-11.30909 -4.37434,12.75919 0,0 z m 15.69408,-0.45527 c -7.36848,-9.94588 -0.65631,12.93076 0,0 z m 0,-47.19021 c -5.78681,-9.38906 -6.56065,9.34989 0,0 z m -399.87654,84.11611 c -11.60355,-17.67133 11.03289,5.69488 0,0 z m -382.26902,-16.55077 c 1.4567,-43.24736 -9.9329,-91.24869 12.15264,-130.78847 7.79786,-18.09503 44.14173,-31.83507 23.33512,-0.046 -9.55207,43.46901 -8.57316,94.05197 -35.48776,130.83443 z m 46.75354,-9.06517 c 2.70085,-16.37305 4.77044,12.19628 0,0 z m -2.90276,-16.72731 c 0.18076,-53.59076 17.27103,20.45464 0,0 z m -2.22788,-34.61458 c 3.24499,-28.70847 13.93898,-4.71067 2.63293,6.16321 l -2.63293,-6.16321 z m 78.669844,-11.95354 c 1.057057,-16.47942 5.464011,7.51156 0,0 z m -34.194744,-15.83953 c -1.8565,-27.65419 16.329824,-16.76095 0,0 z m 18.802818,-6.54274 c 3.465271,-12.60431 2.110214,10.26928 0,0 z M -193.29689,364.57949 c -6.88808,-22.5524 26.57621,-10.68429 0,0 z m 2.13777,-19.17547 c -8.73855,-48.27534 40.69816,-90.19386 82.60017,-100.31408 7.57892,15.50838 -31.3094,25.25363 -19.43374,40.13568 -6.89859,11.29076 -54.91106,61.39405 -29.36881,23.72766 14.29495,-18.47173 10.11488,-25.13346 -3.57763,-4.96526 -10.34984,13.54006 -14.37462,32.61741 -30.21999,41.416 z m -2.13777,-51.75882 c 1.17373,-25.41417 38.95137,-29.02587 9.84706,-4.91765 -0.3503,3.38909 -13.24694,19.28363 -9.84706,4.91765 z m 0,-36.43747 c 0.65854,-11.89274 30.7009,-37.88601 2.86243,-24.45672 -4.18645,-35.54572 -18.67753,-118.81412 44.39865,-89.63126 25.99971,11.2112 76.747863,24.75794 83.314185,43.8982 -36.488456,21.84482 -83.519335,25.95309 -112.788555,59.15842 -4.92876,2.96519 -10.51683,15.18634 -17.78671,11.03136 z m 108.064147,-78.93711 c -10.516169,-4.2873 1.846616,4.80003 0,0 z m -56.696647,58.8901 c 9.40938,-18.56787 84.791003,-36.79407 47.531084,-6.14319 -15.422634,4.72021 -31.763534,3.52203 -47.531084,6.14319 z m 74.033186,-20.57081 c 24.868039,-25.99816 -12.985615,27.97211 0,0 z m 19.397433,-0.0364 c 5.392219,-28.83371 31.390602,8.466 0,0 z m 3.01722,-25.05392 c 8.908272,-15.48689 16.559387,10.15616 0,0 z M -44.080718,175.49 c 2.853588,-46.26376 36.352506,16.85645 0,0 z m -28.485547,-9.77882 c -34.559085,-27.5194 -113.837325,-11.3343 -119.877655,-63.53387 -9.41024,-38.327607 -0.11447,-96.8387913 42.70043,-47.755845 29.05972,3.583972 69.350859,53.662645 96.551895,81.339935 8.783935,14.37395 0.152371,36.55237 -19.37467,29.94978 z m 50.632818,1.45315 c -5.735,-17.36007 16.223062,13.01625 0,0 z m 15.90499,-8.81387 c -34.855874,-24.65942 30.764562,12.37903 0.7081861,0.40935 l -0.7081861,-0.40935 0,0 z M 18.008909,157.0489 C -29.931845,135.93622 -59.660932,89.175916 -96.46876,54.04648 c -22.03832,-32.09433 22.19828,58.43202 -13.86783,17.077839 -20.32751,-31.8734 -83.51783,-35.905601 -80.69036,-76.4674896 -4.12177,-26.1812124 -15.54146,-80.4614704 27.62911,-72.6941814 54.88122,0 109.762439,0 164.6436585,0 C -0.86068835,-12.283337 7.9476237,60.128916 56.117236,109.35899 74.988322,128.48792 32.929544,157.4148 18.008909,157.0489 z M -111.17232,53.872591 c -13.8648,-11.692298 6.09513,10.75098 0,0 z M -144.55579,8.5280634 c -4.29584,-8.26863886 -1.11577,6.6624396 0,0 z M -47.797484,118.06579 c -16.439921,-23.586731 24.907929,17.31855 0,0 z m 535.165764,-0.44447 c 4.75157,-15.1269 6.34044,6.86312 0,0 z M -70.405798,99.407412 c -27.037813,-36.358561 40.480387,28.597288 0,0 z M 644.70797,-75.905432 c 1.82775,-8.233574 4.49459,4.391009 0,0 z"
       id="path3081"
       inkscape:connector-curvature="0" />
    <path
       style="fill:#79859b"
       d="m -193.29689,557.5141 c -9.88886,-50.53834 75.27268,-33.15186 38.63585,8.65601 -9.58252,5.64374 -41.34235,9.2902 -38.63585,-8.65601 z m 53.96824,5.11048 c -14.83001,-48.84966 59.068608,-58.12216 59.626506,-8.61624 -1.846761,24.79065 -57.445686,17.8483 -59.626506,8.61624 z m 64.036526,1.53292 c 10.394627,-14.08278 13.699605,14.19479 0,0 z m 106.968858,1.50986 c -12.599256,-17.11052 9.669102,-81.71492 7.354899,-31.21954 -0.07473,8.39518 13.525161,41.34158 -7.354899,31.21954 z m 17.388207,-1.54123 c -3.997257,-42.41402 26.958127,12.65276 0,0 z M 112.146,553.89953 c 7.99992,-27.81296 42.96787,-89.40726 17.49908,-102.62091 -27.8655,20.10744 -42.443594,-5.99049 -9.11693,-12.99923 46.15927,-29.18181 71.5575,-88.37928 58.50818,-141.7079 -7.03164,-21.4331 10.58502,-66.73568 21.66234,-24.19661 22.84684,45.8704 3.8871,94.66072 -5.58466,139.93206 13.56795,39.49414 5.99918,80.25811 32.61988,115.30672 14.65421,18.2914 11.79516,57.26935 -4.93062,18.32044 -21.23428,-45.4917 -30.54011,-96.64908 -38.81364,-145.06062 -18.54605,38.53632 -8.27947,84.61261 -8.53534,126.24175 8.94867,22.77457 5.89724,53.4371 -25.4287,38.82557 -10.90823,-0.94506 -54.76441,14.43744 -37.87959,-12.04127 z m 37.57461,-6.85381 c 28.66652,0.91507 -11.9741,-60.66926 -6.12995,-12.51172 -1.43044,5.11978 -1.29558,28.25444 6.12995,12.51172 z m 63.50871,15.60192 c 10.81666,-19.23985 11.66934,23.28883 0,0 z m 109.95842,4.4949 c 20.61951,-39.09466 27.96309,-83.74713 48.5361,-122.74478 5.76248,24.61909 -37.82537,85.03172 -12.09641,84.31702 4.64156,-41.78817 31.74307,-84.74438 15.70528,-126.09918 -11.15184,8.96364 -3.33447,60.75863 -41.0637,59.76661 -30.80175,16.69054 -76.48948,26.32673 -78.39622,-23.51485 -1.13412,-19.49367 -39.89581,-73.27095 -8.20781,-71.35861 -2.4774,25.77447 34.20217,56.13092 40.82182,16.72138 -10.68648,-19.00491 8.42974,-79.68854 5.4062,-66.13925 -28.41431,-1.21673 -49.66362,-56.82506 -9.84354,-56.26525 -20.31103,-5.70233 -69.46472,-18.85571 -21.56569,-30.26087 17.82429,-41.65709 -1.14204,-91.30565 13.6771,-135.626063 12.82573,-13.820272 -1.35008,-48.352633 -5.38052,-15.850242 -19.63703,33.560385 -16.9129,-40.53243 -0.33935,-52.773484 18.02918,-39.327763 -55.36405,-12.577417 -56.56941,16.524016 -16.88027,25.327086 -20.46457,89.848833 21.6442,58.715583 37.36822,5.22291 8.8495,82.94301 -19.31755,46.42657 -50.42267,3.94504 -4.88126,83.86591 -35.81753,87.45101 -21.6254,-22.9057 14.9232,-68.63307 -23.08373,-80.88776 20.07341,-20.58669 43.37234,-82.206365 25.912,-92.294691 -14.91075,6.613773 -69.91687,33.871072 -32.71458,8.477234 33.01868,-28.541393 44.90011,-86.178784 96.17667,-88.38316 22.7097,-5.04922 90.68108,11.8799589 89.14987,-11.453844 -41.83268,-19.106595 -93.29186,-14.837002 -133.6317,6.361573 C 173.36428,-5.4100527 151.14197,30.616528 120.88963,35.361689 124.2254,64.937168 71.912451,78.120702 69.506335,95.963011 32.400841,63.697829 12.043851,14.867032 10.314756,-33.821369 -13.709838,-74.554582 31.69308,-87.038397 63.131859,-77.914011 c 190.604671,0.243238 381.225721,-1.508294 571.815121,1.701418 12.02737,44.402724 -25.85245,88.177224 -59.86841,112.122708 -40.61338,14.090077 -75.08749,39.610667 -105.71619,66.366455 -22.85715,2.80495 -43.54114,-54.922265 -53.9976,-37.417452 6.79714,23.095526 55.77673,43.439832 50.02996,51.618702 -8.92908,23.10716 -24.41527,33.39374 -46.46378,41.22853 25.22977,13.19122 63.25128,-20.7855 78.27158,20.95364 17.27061,44.46069 35.78722,90.9606 37.40068,139.25487 0.47282,19.83461 -8.28674,65.89963 -11.8337,21.06395 -8.37129,-32.2606 -12.44499,-72.47907 -42.29501,-92.69293 0.52616,50.7341 23.40254,98.52425 20.47473,149.81841 2.68979,51.25482 40.63046,90.83264 46.14355,140.9087 8.2855,57.26651 -65.90917,18.25609 -97.46671,32.46715 -45.09695,8.06411 -18.20732,-62.99386 -35.76505,-66.42016 3.72548,19.80672 7.03622,88.53387 -28.19767,56.64505 -0.79175,-24.51941 -5.38152,-29.39367 -3.67715,-2.77078 -2.39339,25.15403 -51.15795,9.29892 -23.66987,-8.12191 -15.86458,-3.53466 -20.099,19.22794 -35.1286,18.3302 z m 180.78463,-55.43008 c 6.42356,-22.66093 -30.59956,-51.62915 -19.37225,-12.4015 0.90517,8.94053 13.13652,34.44526 19.37225,12.4015 z M 307.79581,431.17077 c -4.49461,-4.39099 -1.82772,8.2336 0,0 z m 27.15914,-15.08638 c 50.54056,-8.79131 -4.82135,-84.11254 0.269,-97.7619 -15.69431,29.39096 -13.78992,71.34209 -13.15178,101.06691 l 5.98634,0.31778 6.89644,-3.62279 0,0 z M 93.441489,-48.343428 c -4.473191,3.840426 5.701757,10.057232 0,0 z M 605.37305,566.17065 c 2.60481,-7.05198 3.43953,8.8179 0,0 z m 19.85043,-1.17123 c -9.39353,-28.86739 16.52042,9.98998 0,0 z m 16.91917,1.17123 c 1.24521,-6.78512 4.15397,8.28856 0,0 z m 19.14439,-7.54932 c 1.5295,-31.37332 -11.43006,-65.91811 -31.23266,-87.10228 -26.73604,34.84376 -9.13782,-41.14644 -4.90593,-54.94159 16.4831,-22.06622 -33.58475,-58.55628 -0.3317,-74.29627 12.54769,16.07999 15.26134,45.22554 14.66737,13.06836 -1.33409,-38.49268 -49.93668,-57.35565 -49.5567,-99.47938 -11.95306,-23.21881 -64.88099,-72.62434 -6.1997,-63.14592 10.85687,2.1835 45.93432,9.43353 17.97431,-5.21717 C 626.53012,145.35874 667.91831,111.391 674.24127,60.098456 679.07302,41.543882 700.61526,-1.851447 691.69575,-5.6971812 680.4646,40.619752 644.30606,62.960587 634.2038,104.72236 c -7.81421,47.20898 -51.50357,73.22715 -96.64432,70.64052 -34.14759,-2.39912 -73.29452,-52.05332 -21.26697,-64.69567 31.89457,-0.48981 12.60063,-29.535911 42.92922,-37.371128 32.85287,-22.196313 0.85641,21.624245 2.90453,14.752142 25.81459,-15.424873 54.53633,-68.478638 79.84876,-61.410891 -8.25808,14.622824 -8.4025,51.123422 6.96536,19.220349 22.01284,-37.6597062 -13.39008,-102.994984 31.16388,-125.25985 58.90188,-13.289675 55.31498,50.912056 47.96257,90.982517 5.64908,95.571361 1.02577,191.829061 1.4062,287.667871 -0.9656,89.65099 1.679,179.27758 0.74564,268.93558 -20.53462,-9.01824 -55.9125,13.13251 -68.93163,-9.56247 z m 7.36393,-48.52032 c 22.77195,-19.61379 -7.4792,-36.40202 0,0 z m -11.9715,-24.51954 c -6.57232,-13.87798 -12.76736,10.42806 0,0 z m 22.23278,-3.96313 c -3.94826,-8.15585 -3.94826,8.15585 0,0 z m 18.69214,-13.91191 c 1.56865,-32.8286 -17.65578,28.91385 0,0 z m -51.8351,4.94611 c -0.0223,-39.1223 -22.07929,-4.64221 0,0 z m 19.46125,-14.18542 c -4.80524,-10.56644 -2.01567,9.52597 0,0 z m 46.12067,-11.92758 c 30.00461,-37.80604 -84.09087,-54.33368 -49.30026,-24.6986 23.6088,-9.47885 57.80191,1.49886 45.33034,32.64552 l 3.96992,-7.94692 z m -77.33127,-13.74009 c -6.24759,-12.34418 -5.37044,8.13191 0,0 z m 13.5183,-36.82681 c -10.95518,-15.94255 -21.18287,9.92153 0,0 z m 69.84897,-4.92804 c 3.61793,-22.22724 -11.08224,13.77846 0,0 z M 652.55905,288.87403 c -7.64946,-1.23948 -0.48654,10.35632 0,0 z m 26.72385,-16.00802 c 0.37524,-30.16699 -13.62153,-7.94236 -0.0677,7.88595 l 0.8678,-3.88729 -0.8001,-3.99866 z m -8.03655,-48.4276 c 5.88484,-39.68481 -30.7526,-0.66686 0,0 z M 554.92173,165.55377 c -2.98655,-8.18829 -7.95585,10.55045 0,0 z m -4.27553,-59.38793 c -1.61633,-12.338769 -8.94489,12.5527 0,0 z M 716.53696,-54.510862 c -10.84213,1.667499 2.55516,12.775879 0,0 z m 5.13064,-11.447629 c 3.32528,-13.942842 -7.92425,15.833121 0,0 z M 295.25425,546.71019 c 22.9817,-9.42294 15.62149,-59.92941 45.96995,-51.46682 -19.33415,13.34159 -19.41801,47.03849 -45.96995,51.46682 z m 304.26916,-2.50716 c -25.36455,-18.25835 6.76956,-27.28481 4.89713,-1.74452 2.50848,5.54798 -5.42139,6.21486 -4.89713,1.74452 z m 21.37983,1.02566 c -12.58528,-24.27721 14.3622,-3.84134 0,0 z m -43.60471,-3.44126 c -6.67284,-35.30778 12.64266,-11.88551 0,0 z m 59.69401,-5.94968 c -2.00806,-29.50167 9.08087,24.58942 0,0 z m -539.55305,1.14222 c 2.44935,-9.67191 2.80387,10.70948 0,0 z m 199.18685,-3.12082 c -2.65815,-10.32971 8.31458,5.40465 0,0 z m 313.87735,0.1011 c 3.94826,-8.15585 3.94826,8.15585 0,0 z M 95.057145,528.76272 c -9.025882,-24.63137 11.340055,1.9297 0,0 z M 81.477498,528.5918 c -9.265709,-24.52902 21.292862,-9.92743 0,0 z m -274.774388,-5.58506 c 2.63981,-32.75293 46.76238,-88.82738 39.36797,-23.06901 -2.46983,18.96768 -23.10604,25.10627 -39.36797,23.06901 z m 19.76814,-10.12055 c 1.58168,-12.88906 -19.87494,18.40508 0,0 z m 81.474229,9.85394 c -43.366659,-0.38693 -60.445759,-51.13564 -30.832299,-80.21451 19.87425,-24.22454 24.638267,5.47419 18.76899,15.29078 19.792099,-33.78703 17.298469,36.38652 26.542125,50.42942 2.466092,9.46107 -5.548011,16.68715 -14.478816,14.49431 z m 702.972391,-0.82621 c -6.31495,-21.17448 13.44127,6.61628 0,0 z m 21.8186,-1.61268 c -16.76265,-12.54289 14.27291,-4.09309 0,0 z m 11.9715,-2.4462 c 3.94828,-8.15586 3.94824,8.15586 0,0 z m -312.96916,-0.88775 c 1.06899,-8.06013 5.71045,3.97315 0,0 z m 224.79403,-5.90632 c -1.18592,-35.1628 13.77352,-73.75416 11.98625,-102.85878 41.00174,-16.0775 27.54713,51.82173 30.99789,77.84237 14.8989,26.06648 -33.56552,14.56938 -42.98414,25.01641 z m 17.74775,-26.94676 c -8.91004,-14.76744 -6.52386,17.35744 0,0 z m 16.00647,0.52386 c -6.20574,-7.05184 -4.02464,9.71379 0,0 z m -16.00647,-15.60192 c -8.04588,-14.18452 -3.79464,14.58527 0,0 z m 16.27101,1.65705 c -1.7264,-20.92242 -14.2934,12.97103 0,0 z m -0.99803,-37.89375 c -6.1395,-8.09662 -3.58273,9.91004 0,0 z m 0.42755,-10.45022 c -4.40103,-13.679 -7.09659,11.90421 0,0 z M 62.163197,508.85642 c -7.832034,-39.33628 30.306067,17.19081 0,0 z m 3.466244,-24.01726 c -3.37112,-16.04998 12.106736,-0.34592 0,0 z m -258.926331,-8.18659 c 5.40507,-35.48546 -12.96699,-81.90836 22.21738,-106.85134 -51.12403,37.60202 33.29969,-69.62636 14.16841,-16.55305 -14.87852,40.817 -4.1657,98.09143 -36.34231,128.21884 l -0.0435,-4.81445 z M 59.814782,465.68005 C 70.384788,423.51946 74.017133,379.46331 81.146068,337.08003 78.576825,285.88024 111.28208,243.59089 117.57462,195.6172 c 15.87513,-5.50865 0.98976,52.30194 15.29677,11.59568 32.83589,-9.72134 -15.86222,41.09032 -11.58191,55.89621 -13.48406,50.59194 -18.20119,103.01908 -24.452825,154.66213 -6.80199,20.68149 -22.921445,33.73049 -33.424206,49.68478 l -3.597667,-1.77595 0,0 z m -205.656242,-1.34478 c -5.40195,-12.67152 9.81962,-5.89027 0,0 z m 14.16508,-31.53582 c -8.67597,-16.4276 26.72471,-86.87261 19.97786,-40.01376 -0.47619,14.8585 0.11933,38.09842 -19.97786,40.01376 z m -17.92322,-3.35763 c -4.23517,-22.76506 17.19197,-6.06224 0,0 z m 713.92751,-2.17853 c 4.5873,-8.58937 5.38167,8.331 0,0 z m 51.30642,-40.263 c 3.94825,-8.15581 3.94825,8.15581 0,0 z m -806.01819,-27.11428 c 13.95317,-20.50646 -6.01565,16.24861 0,0 z m -2.34296,-8.20441 c 2.98553,-12.57663 3.6716,9.42145 0,0 z m -0.57007,-12.75043 c 1.57569,-43.96963 42.54834,-81.38647 82.4548,-91.93592 0.12149,20.96482 -51.70881,33.64573 -57.25989,64.94956 -5.97576,8.26584 -17.63372,28.69388 -25.19491,26.98636 z m 801.45914,-1.27712 c -23.66441,-51.94255 29.25809,4.63699 0,0 z m -770.67529,-19.6565 c -0.11319,-16.97643 51.96604,-53.86638 21.62572,-19.68201 -6.66466,6.99249 -11.24746,17.3943 -21.62572,19.68201 z m 324.00206,-18.09944 c -5.00389,-19.03246 16.75222,-37.4405 7.47848,-8.34133 -0.41945,-1.47227 -5.06639,15.93187 -7.47848,8.34133 z m -354.78591,-6.06317 c 0.11359,-23.57149 33.63046,-23.36552 8.18395,-4.14286 -0.31782,3.56799 -11.75002,17.13357 -8.18395,4.14286 z m 776.0096,-10.51758 c -1.75707,-15.9994 -41.4582,-76.7902 -6.84704,-39.84745 2.57257,4.95261 29.57018,60.8878 6.84704,39.84745 z m -776.0096,-25.7736 c 10.91494,-12.94276 48.23412,-54.04705 7.7534,-29.70211 -12.27877,-20.74045 -10.24255,-65.74765 0.46673,-87.60123 35.16913,-3.20541 79.94978,17.19279 104.793731,35.04381 -42.267171,-7.21532 21.442897,18.08938 -12.392406,21.349 -46.192625,-6.38634 -64.405765,44.66183 -100.621455,60.91053 z m 11.16165,-43.28558 c -6.33047,-0.90721 -2.35728,8.03668 0,0 z m 44.40432,21.78629 c 8.8463,-18.09298 49.29712,-16.25548 15.07527,-3.388 -4.55931,-0.0406 -10.16149,7.90269 -15.07527,3.388 z m 35.07537,-4.62491 c 10.80124,-33.51028 44.108324,-6.27497 0,0 z m 203.83613,-1.5708 c 5.06181,-15.02447 4.67899,7.59266 0,0 z m -171.342062,-7.78971 c 3.245928,-13.04009 17.348337,-5.13637 0,0 z m -61.233178,-8.36446 c 21.83613,-20.71784 27.83855,2.17314 0,0 z m 85.176174,-0.83179 c 15.065891,-16.27792 19.910577,4.51361 0,0 z M 233.4015,205.81678 c 8.33376,-10.49115 2.40346,9.26947 0,0 z m 19.0974,-1.34211 c -9.44775,-30.77724 30.17462,0.4348 0,0 z m -324.940667,-12.0789 c 2.153097,-25.12828 29.194747,6.78768 0,0 z m 29.643709,-2.6842 c 4.565251,-8.32208 5.807581,8.66826 0,0 z m 1.745591,-15.04843 c 8.60727,-18.61111 21.500586,11.17341 0,0 z m 270.178437,0.95638 c 3.94826,-8.15585 3.94826,8.15585 0,0 z M -76.563276,162.48958 c -33.617954,-26.67033 -110.550974,-10.17585 -115.975544,-62.30152 -4.36886,-26.80564 -7.17158,-88.630011 32.54749,-51.565381 41.6057,28.044031 92.472603,55.283141 107.795591,106.717701 2.973135,15.99762 -16.052962,10.69566 -24.367537,7.1492 z m 200.405926,-6.44897 c -20.19546,-29.8207 39.59426,-14.65216 12.82334,6.69008 -5.21479,3.47276 -14.02359,0.7528 -12.82334,-6.69008 z M 20.741865,157.00433 C -44.770252,120.14977 -83.970058,52.891119 -142.75593,7.6894124 -166.40894,-11.223975 -225.22002,-60.89511 -173.65774,-81.211901 c 47.43404,6.834642 96.426177,1.471338 144.521548,3.173062 48.187096,-13.960659 22.809864,43.231032 32.9596244,71.703971 4.5947234,34.5446 15.1302336,68.874487 34.8064716,97.920616 -4.125411,16.914432 46.289783,30.836552 10.880856,43.360342 -9.222811,7.6561 -15.935074,19.82139 -28.768895,22.05824 z m 8.289065,-43.86329 c -10.551612,-6.53466 -1.95434,13.74635 0,0 z m 14.355006,-3.11711 c -1.087574,-10.318646 -6.88496,14.87067 0,0 z m 114.957524,15.24288 c 7.31283,-12.80536 28.78611,-5.69658 0,0 z m -223.831481,-22.4754 c -20.443912,-18.93897 14.378676,4.06512 0,0 z M 231.69129,74.962017 c 6.32014,-7.079447 7.13958,7.883124 0,0 z m 278.33733,0.67988 c -1.71813,-26.949517 29.94943,-1.729879 0,0 z m -620.38013,-5.852469 c -22.75755,-34.612862 -102.90454,-40.850928 -79.12734,-96.336602 35.2015,9.64583 51.56882,55.469019 75.91923,81.880266 1.26466,2.901134 13.45597,17.297687 3.20811,14.456336 z m 637.60238,-1.076466 c 22.61994,-12.113516 -10.48888,11.860489 0,0 z m -637.82968,-18.04965 c -22.86223,-20.141226 19.738253,4.018505 0,0 z"
       id="path3079"
       inkscape:connector-curvature="0" />
    <path
       style="fill:#69738d"
       d="m -193.29689,558.99228 c -13.86373,-46.78022 71.20587,-39.76604 41.04456,5.37141 -8.60593,7.15426 -42.09224,11.96156 -41.04456,-5.37141 z m 54.99837,0.63563 c -22.12339,-57.30699 90.707598,-30.14457 47.519335,8.13333 -12.235875,-9.96935 -46.571925,13.79013 -47.519335,-8.13333 z m 63.006396,6.66155 c 1.827755,-8.23357 4.494587,4.39101 0,0 z m 5.130642,-0.11881 c 4.565246,-8.32208 5.807584,8.66826 0,0 z m 104.242674,-5.53616 c -11.380615,-14.10684 5.194052,-74.25539 3.992446,-26.85454 -0.406199,4.83725 8.131044,46.99524 -3.992446,26.85454 z m 17.18252,6.66155 c 2.350565,-7.55906 8.01092,6.10065 0,0 z m 6.840856,-1.12539 c 3.94825,-8.15582 3.94825,8.15582 0,0 z m 55.565192,-1.50986 c -1.56945,-38.56036 30.63124,-21.85052 13.24519,2.46026 -4.18708,2.57722 -10.53252,2.07651 -13.24519,-2.46026 z m 56.59866,-1.00658 c 6.4491,-39.26664 -25.90391,-65.92302 -30.6113,-97.52136 11.28191,-40.06408 38.96244,-73.51408 43.7547,-115.92961 10.73266,-17.65265 7.34973,19.02354 20.11563,9.06097 4.09293,32.23602 -23.24361,58.11872 -2.54627,91.14323 -4.04767,40.17071 -15.08152,-22.05496 -11.04296,-35.78103 -9.05913,-39.53661 -20.72455,29.47027 -18.35809,42.11971 -5.60743,30.69335 10.38297,90.52209 -1.31171,106.90809 z m 60.09479,-3.92598 c -6.99679,-15.96135 -31.96088,-83.74001 -8.82086,-37.96884 0.88808,5.59887 27.58418,45.27778 8.82086,37.96884 z m 121.04306,6.44242 c 8.33377,-10.49115 2.40345,9.26947 0,0 z m 6.84086,0 c 6.95908,-9.66146 0.96863,7.49319 0,0 z m 13.02912,0.50329 c -11.37786,-31.72878 6.66622,-104.3384 20.65205,-107.49307 13.18794,16.98117 18.82817,-19.42128 18.31963,9.87793 -0.86142,28.26206 -22.29678,36.65307 -8.48811,67.4712 11.98965,28.07451 -21.55953,37.56589 -13.40298,4.10763 2.00369,-17.92541 -9.52098,-42.03341 -10.20412,-8.58586 -4.00897,9.19783 12.45169,38.5249 -6.87647,34.62217 z m 52.75065,-2.01315 c -3.64268,-51.58542 2.20054,-108.11153 -27.86836,-153.37218 -5.50012,40.39762 -32.76867,-56.29225 -26.22061,2.02215 -1.94615,27.22031 -49.98722,50.84994 -63.15992,44.94069 10.20474,-33.01222 85.93295,-33.87377 44.71452,-82.93891 -8.34681,-18.03676 -7.22755,-94.18625 -25.78208,-46.21729 -2.86987,39.59896 -8.52621,81.4189 -34.08617,109.33482 0.29224,32.51375 -35.9153,35.17412 -31.73368,-0.50813 19.24697,-25.45003 47.77082,-45.21806 34.11815,-82.60289 -4.64642,-20.02333 46.38416,-70.99546 12.93257,-44.53876 -31.70419,8.22412 -59.34822,-41.96104 -17.83173,-46.52377 -10.96881,-16.98426 -75.45405,-14.04273 -30.64572,-28.00273 29.02525,-30.74591 5.23662,-87.84043 18.12577,-129.39665 30.28189,-25.25331 26.62731,-59.558715 6.96362,-91.357364 2.07607,-54.465357 93.29372,-20.3207332 107.86128,16.918806 6.2909,25.891354 48.75321,52.240878 40.72021,74.299338 -23.97195,-9.602038 36.55445,54.95669 -8.12332,29.14077 -18.50944,-19.90817 -26.68972,36.65351 -5.93108,29.16648 43.74586,14.99454 74.71168,55.53755 88.40203,98.19065 -6.35832,-15.47171 -56.7543,-75.578 -42.78539,-22.46511 19.31357,48.31617 24.9501,101.53658 28.93386,152.69264 -1.82153,58.75269 62.17829,99.64543 52.25527,159.9723 -19.92229,36.08052 -86.75021,7.49314 -120.85922,11.24514 z m 75.44484,-28.18411 c 36.40615,-35.49147 -30.52959,-107.61437 -54.95367,-77.55115 20.8287,22.11987 28.86673,65.22468 54.95367,77.55115 z m 30.07755,-43.65069 c -11.81959,-9.83972 3.96056,15.56136 0,0 z M 388.72788,374.4181 c -10.14617,-31.86522 -0.55247,20.63857 0,0 z m -0.4672,-139.53093 c 12.16307,-40.52754 -27.13133,15.68894 0,0 z M 277.01196,214.87595 c -4.51759,-16.17727 -1.82971,14.52051 0,0 z m 47.82909,-14.59534 c -2.9859,-23.31746 -18.68565,5.57134 0,0 z m 12.99149,-25.57912 c 2.82991,-29.93767 -18.25821,17.85488 0,0 z m -11.30496,-6.12799 c -8.67437,-5.71588 1.84758,21.1801 0,0 z m 299.36804,395.584 c 4.01156,-16.14472 2.57177,14.30837 0,0 z m 37.05464,2.68419 c -0.78463,-43.92238 -9.43607,-87.58735 -9.74368,-131.02475 -7.45201,-27.80412 19.72828,3.25035 22.87907,-18.58444 22.26019,-1.52971 39.57739,22.04181 19.24757,32.83797 -12.08084,35.05445 -13.88765,-39.87706 -13.4878,0.82065 -4.36421,13.25528 -29.64549,79.16934 -1.78843,46.05532 4.39359,-15.61467 23.77837,-22.7631 22.92691,-1.30815 -9.69826,-33.79741 42.25336,-89.88321 -19.55291,-85.07566 -46.92087,1.88005 -32.76179,-49.7111 -48.26978,-81.51301 -14.60003,-22.38701 35.95085,-53.70321 -1.11351,-24.11894 -46.06392,20.83156 -26.68584,-59.91348 -59.92884,-72.79598 -15.42519,-17.16782 -15.06891,-45.78786 11.73869,-35.07055 14.80753,-1.33859 51.3949,7.15843 19.67938,-9.65042 13.3759,-37.17806 55.13578,-57.24616 61.87089,-98.512179 5.33697,-32.087376 31.2959,-82.5339025 27.54845,-102.831265 -16.27405,20.713454 -19.54984,72.765793 -44.93113,74.279511 14.81912,-44.675998 -4.24929,-97.712465 23.16129,-138.106896 25.76964,-7.446255 66.84497,3.722772 36.95047,34.264563 7.4292,-20.626351 28.7799,-40.254896 19.35953,-2.730198 1.71801,204.805694 -0.55612,409.606904 0.72228,614.406514 -29.41327,5.81277 -39.33304,-15.32642 -59.06231,-0.0952 l -8.2061,-1.24685 -4e-5,0 z m 27.93349,-32.09026 c -7.92522,-13.19333 -1.56826,17.32689 0,0 z m -9.94775,-3.24052 c -7.55379,-3.84898 6.71045,11.16198 0,0 z M 667.67348,467.023 c -2.06324,-31.13187 -7.63173,14.58032 0,0 z m 3.72096,-19.08299 c -4.05916,3.5861 3.68985,5.91026 0,0 z m 46.73252,-64.34392 c -3.37726,-11.89697 -5.78398,-5.31276 -1.04737,8.75399 l 1.04737,-8.75399 z m -39.04831,-85.42732 c 11.80722,-19.95489 -14.98416,-69.65916 -3.67197,-20.98511 0.37707,11.23125 0.13319,54.99644 3.67197,20.98511 z m -61.7341,-29.35203 c -10.50153,-5.77929 1.29594,15.37347 0,0 z m 7.75612,-19.94877 c 15.1038,-19.76549 -22.9418,13.29577 0,0 z m 47.31388,-25.58037 c 12.03505,-42.65255 -36.47492,-4.91603 -0.66267,8.83031 l 1.42539,-2.22965 -0.76272,-6.60066 z m -37.96786,-19.26859 c -4.91538,-11.73208 -8.66019,4.37748 0,0 z m 51.28023,-22.10324 c -9.77488,-4.48713 3.51098,18.85999 0,0 z m -86.40994,359.96314 c 0.008,-11.50547 6.74946,8.68882 0,0 z m 20.85055,-0.80816 c -1.27258,-12.08129 -2.9166,4.0724 2.15624,2.75143 l -2.15624,-2.75143 z m -813.46442,-18.18283 c 3.46528,-12.60432 2.11021,10.26928 0,0 z m 97.508881,-3.095 c -51.538861,11.66928 -50.096341,-89.98947 -9.553271,-74.54628 -1.12969,23.11612 -3.24254,15.74533 8.767513,5.03257 10.407327,11.83467 31.061189,77.47266 0.785758,69.51371 z m -10.892421,-43.58345 c -14.38909,5.19956 -3.76903,19.03162 0,0 z m 15.99638,-1.75597 c -7.368484,-9.94589 -0.656317,12.93076 0,0 z m 702.89795,44.2893 c 4.97802,-7.42873 1.35241,10.4166 0,0 z m -800.99187,-9.56097 c 3.17599,-21.40646 43.16783,-59.51467 31.54331,-13.38923 -5.99908,7.04451 -23.11529,25.65678 -31.54331,13.38923 z m 20.8962,2.56679 c 27.23809,-15.81849 -3.65671,14.69909 0,0 z m 818.7573,-13.18672 c 1.17971,-9.75008 6.82342,13.93417 0,0 z m -844.17242,-21.63698 c -4.87109,-32.67948 4.85474,-97.51299 16.22288,-104.03617 -44.05692,25.52626 46.41851,-67.84954 17.14822,-18.26692 -8.61329,38.25494 -7.56892,108.83209 -34.29133,125.5973 l 0.92023,-3.29421 0,0 z m 837.08967,-13.53936 c -7.43758,-17.00035 11.10602,-6.14285 0,0 z m 1.84014,-17.87087 c -21.57391,-1.16119 6.67411,-12.13546 0,0 z m -345.53307,-4.15935 c 0.77051,-8.28776 6.95914,10.53295 0,0 z m -431.01491,-11.57561 c -8.88132,-20.08767 29.92569,-80.50502 18.94967,-27.62859 -2.19787,9.29147 -4.77325,31.36898 -18.94967,27.62859 z m 761.19265,-3.68532 c -2.18446,-20.51011 15.97171,10.95375 0,0 z m -778.072,-1.68263 c 6.76685,-13.62713 1.37022,9.26712 0,0 z M 629.7436,401.77222 c -13.2754,-23.21635 19.58043,4.29127 0,0 z m -385.26803,-5.84381 c -21.67639,-28.65229 22.54521,-18.00525 4.181,5.15101 -2.46811,-0.72766 -2.87603,-3.35056 -4.181,-5.15101 z m 393.31132,-6.02218 c -31.09031,5.63228 -16.08927,-57.89095 -1.6381,-17.82107 0.78777,3.40276 13.91415,24.15901 1.6381,17.82107 z M 87.178206,369.61879 c -7.353392,-38.9185 -0.756483,-85.61955 27.066384,-115.27599 0.52673,37.14835 -12.38957,108.97158 -27.422952,123.35216 l 0.356568,-8.07617 z m -280.475096,-5.65091 c 1.069,-8.06015 5.71045,3.97317 0,0 z m 832.0725,-1.71551 c -3.08935,-24.13965 5.98751,9.55382 0,0 z m -14.42955,-16.29379 c -6.93893,-15.64871 10.88484,8.86707 0,0 z m -816.50281,-2.57655 c -0.29573,-45.02617 40.26919,-84.43958 81.55448,-95.11115 -23.62226,27.21928 -64.57358,47.85973 -74.30391,89.36612 l -3.33507,3.02474 -3.9155,2.72029 z m 390.96841,-19.13059 c 7.33152,-14.08367 -21.16404,-84.36162 4.51518,-46.72101 10.56983,5.93562 0.78139,85.66975 -4.51518,46.72101 z m 409.11491,12.39763 c 1.14991,-15.10386 13.58814,8.10414 0,0 z m -420.84112,-18.5236 c 5.42496,-29.91894 1.1565,25.0303 0,0 z m 418.2876,2.44086 c 6.41049,-15.27517 5.76813,14.0652 0,0 z m -753.02357,-22.07884 c 10.775,-23.30346 29.30954,-16.88731 6.13665,1.13672 -8.7029,11.35569 -23.44287,18.98486 -6.13665,-1.13672 z m 336.89719,4.66179 c -9.28401,-15.53445 10.6266,-11.97649 0,0 z m -382.48938,-8.16946 c 2.34564,-23.33311 29.02225,-21.87984 5.69147,-2.70319 -0.0229,0.95117 -9.1097,16.04433 -5.69147,2.70319 z m 782.36708,-2.59759 c -23.56488,-26.94657 9.52773,-25.72922 0,0 z m -782.12539,-35.3818 c 8.39783,-17.37709 63.29313,-57.98509 27.74466,-21.72356 -7.871,8.34637 -15.17717,20.45265 -27.74466,21.72356 z m 771.01064,2.85123 c -16.87373,-11.75099 -21.89724,-46.11969 -3.32708,-14.25706 0.64108,1.98447 12.11001,20.35547 3.32708,14.25706 z m -771.30651,-25.73197 c 1.82774,-8.23357 4.49459,4.391 0,0 z m 61.5677,-1.20958 c 21.52063,-19.74506 30.36473,-3.02725 0,0 z m 36.646441,-8.4717 c 13.422552,-19.22621 9.925344,13.11546 0,0 z m 268.791349,1.095 c 17.17975,-43.64703 -2.18843,-92.38661 15.22776,-136.429358 2.97607,-19.052497 33.23163,-65.244186 0.72839,-53.626935 19.50627,-8.601913 14.51989,-18.087055 12.15051,-25.5799748 8.7272,-11.6421699 67.50065,-37.5421842 52.81263,-6.6531178 C 213.73855,15.403057 185.95124,83.096528 207.97626,111.582 c 31.66915,-22.002888 63.75437,25.96454 25.35931,37.02696 -52.86989,-13.07133 -50.05692,41.5873 -43.88403,76.22963 -3.84177,4.78541 -11.04243,2.03094 -15.74294,0.69482 z m -359.23522,-5.01488 c 27.78354,-23.05152 -14.52942,5.27751 -5.66504,-22.0055 -7.8949,-27.12201 -3.32977,-80.89428 35.15124,-47.78407 15.12945,8.1433 5.34285,-10.49276 24.86464,0.54677 18.56045,5.95848 66.796748,24.48632 22.6487,20.87204 13.063977,8.12307 36.697928,21.82159 4.00151,25.78912 -29.29236,0.71958 -52.80274,19.50918 -81.00105,22.58164 z m 62.76031,-28.29062 c 16.96605,-23.79635 -24.68915,14.01782 0,0 z m -14.94862,-2.51634 c -8.25497,-10.3639 -3.26444,8.04084 0,0 z m -15.92637,-5.4015 c -10.51616,-4.28731 1.84661,4.80004 0,0 z m 19.34679,-24.79575 c -8.92608,-10.1563 0.85534,7.18788 0,0 z m 65.843242,61.5199 c 1.068997,-8.06015 5.710451,3.97316 0,0 z m -15.391926,-4.0263 c 1.068997,-8.06015 5.710451,3.97316 0,0 z M 251.96885,200.75827 c 3.63371,-31.08228 21.5911,12.60751 0,0 z M -70.161482,189.7824 c 7.73925,-17.24514 19.299019,3.25116 0,0 z m 549.833802,-0.0708 c 0.77051,-8.28776 6.95914,10.53295 0,0 z m -16.8171,-3.35525 c -3.61305,-10.47862 8.30254,5.32956 0,0 z m 65.13064,-18.93972 c -23.19977,-12.15565 -58.84313,-39.29148 -14.975,-51.64798 49.75764,0.32199 63.99149,-46.145452 97.84718,-72.345972 12.79629,-17.105619 39.89496,-23.365528 21.74936,4.994285 -9.87152,18.051419 -8.85179,43.501391 8.5475,12.747026 2.15987,41.352671 -21.98568,93.959621 -65.89853,102.033761 -18.46429,-8.14109 -31.89296,5.37143 -47.27051,4.21888 z m 12.705,-8.90885 c -5.88689,-7.29276 -4.49084,10.10912 0,0 z m -19.1183,-11.07233 c -5.68824,-8.56274 -7.6588,9.23834 0,0 z m 98.13475,-43.38728 c -1.99983,-8.034192 -3.11213,12.24864 0,0 z M -68.451268,166.1311 C -103.2292,137.2483 -171.76766,145.71816 -192.25065,112.1289 c 2.70362,-22.657213 -8.74679,-78.190732 5.50035,-78.795467 46.49487,34.216773 108.039524,58.750419 129.660225,116.818247 4.275823,8.58764 -2.26664,17.30083 -11.361193,15.97942 z m 660.142608,-4.60363 c 20.60377,-17.87962 -8.40786,17.82246 0,0 z m -130.36249,-4.03383 c 23.8099,-15.09088 -11.9089,12.86572 0,0 z M 22.190074,154.50283 c 8.182662,-21.21295 -40.106522,4.87075 -42.678784,-23.58634 0.612887,-16.35844 2.732502,-24.41784 -12.471596,-18.4546 C -72.068099,83.288087 -95.61052,38.229578 -135.03036,9.3983984 c -17.68396,-24.6399954 -92.99859,-60.0128704 -41.31459,-87.7170424 39.00097,-0.385987 78.009365,1.640737 117.161238,0.276423 30.217773,1.145734 73.442371,-11.84568 59.37455298,32.983489 C 1.3568096,2.3601032 11.491174,50.652086 36.468002,91.488777 c -20.38389,-4.631944 17.830592,38.975013 -0.53391,30.130803 26.048309,-30.500559 26.64016,20.61604 -0.210022,24.32479 -3.767201,3.256 -7.80575,8.66755 -13.533996,8.55846 z m 4.088489,-36.06782 c 15.643241,-26.730842 -30.4905972,19.43015 -2.18473,1.44546 l 1.923075,-1.27234 0.261655,-0.17312 z m 96.862077,29.07788 c 5.41659,-15.79985 17.63544,4.96008 0,0 z m -285.1905,-3.3069 c 7.54438,0.97203 -0.89185,-5.32375 0,0 z m 97.01902,-12.11568 c 4.747022,-7.9703 4.714586,14.37646 0,0 z m 531.449,-17.03023 c -7.15142,-15.672141 15.94503,6.59267 0,0 z M 463.9797,98.235054 C 412.29519,60.255911 384.39549,-3.2716873 327.27465,-34.771811 274.64207,-46.161629 212.14714,-44.345054 173.63599,-1.3747044 164.24342,21.828305 117.501,35.318731 115.89142,28.134664 129.42415,56.878613 76.226824,82.533882 54.082498,80.39641 19.194007,48.393315 17.619672,-2.8090157 6.7106166,-45.927789 2.2372629,-105.22888 85.705336,-65.447271 120.68869,-77.081935 c 172.3862,-0.537871 344.81415,-2.854963 517.17842,1.1924 -2.75034,58.832498 -45.91229,120.739731 -107.61073,126.233945 -27.78365,7.930964 -33.77013,51.7584 -66.27668,47.890644 z m 23.70925,-30.687698 c -10.51609,-4.287342 1.84666,4.800325 0,0 z M 95.728524,-35.761239 c 2.528536,-22.244534 -9.03598,-27.646472 -4.279639,-2.866644 0.237055,18.319807 8.263934,34.4667028 4.279639,2.866644 z M 71.216214,95.764568 c -1.258075,-10.951138 11.774606,4.111434 0,0 z M 541.07506,91.28179 c 7.71878,-15.608449 54.40009,-36.741265 20.06323,-8.112825 -4.06098,1.050774 -19.7785,20.162865 -20.06323,8.112825 z M 513.02149,69.208783 c 5.30162,-10.549447 8.30445,3.017512 0,0 z m -631.92407,-7.533961 c -19.61579,-26.02019 -101.83407,-44.369352 -64.0494,-84.311578 30.93591,19.8603539 51.95885,56.287377 70.7717,87.722729 0.54267,4.696467 -11.77468,-8.669118 -6.7223,-3.411151 z m 301.85277,-4.712346 c 1.82775,-8.233574 4.49459,4.391009 0,0 z"
       id="path3075"
       inkscape:connector-curvature="0" />
    <path
       style="fill:#565d6c"
       d="m -193.29689,558.11805 c -1.38847,-24.65314 29.84903,-52.30453 41.8132,-16.4632 15.3029,31.19422 -42.48416,38.08697 -41.8132,16.4632 z m 55.40398,6.54274 c -17.4122,-53.56865 82.463727,-43.9709 50.935992,0.13787 -16.315312,5.05758 -34.699422,5.3975 -50.935992,-0.13787 z m 67.731428,1.62867 c 1.827755,-8.23357 4.494587,4.39101 0,0 z m 105.167797,-7.66813 c -5.153151,-12.51308 0.957228,-52.09974 1.911678,-17.95277 0.461204,2.63893 6.260451,42.7683 -1.911678,17.95277 z m 200.105405,7.54932 c 2.40644,-8.18759 6.33342,8.34354 0,0 z m 189.4719,-0.62253 c -1.15913,-55.60195 3.33301,-116.79743 -30.31605,-164.70761 -16.93668,13.19149 -25.73236,-33.60785 -26.86012,4.91711 -2.18008,21.45078 -8.3786,33.33119 -4.91429,3.55617 -10.0871,-33.67676 -18.10233,-73.72477 -24.27951,-103.54986 -27.56676,-8.49999 48.25252,-56.60791 13.65978,-65.53407 -4.2682,28.69201 -58.29186,96.99117 -77.62595,39.14612 -4.36523,-5.68573 50.67847,-11.23838 12.21418,-24.7794 -15.42478,-2.062 -66.31399,-10.6798 -23.94785,-19.32576 38.07547,-31.60745 -5.20034,-85.093 17.174,-124.43767 3.37876,-25.871783 55.97393,-40.191448 50.29657,-36.573335 -10.25673,-23.202249 -60.82041,-71.2043794 -15.11755,-78.5448378 49.21806,1.9408364 86.71225,47.3011058 99.81333,91.5496878 -3.46128,18.777685 8.9722,33.636145 -17.05853,21.572915 6.0978,25.44636 -39.09906,51.96964 -13.5519,74.89211 21.71685,-37.85603 84.37785,3.46539 65.26959,40.54334 5.43735,18.40128 15.83732,61.86909 -5.75267,25.36079 1.49876,39.75605 25.89784,75.76192 30.45589,115.67223 3.92839,42.76922 16.69619,85.82136 48.96524,112.90335 -29.14487,-0.63733 -69.30642,-61.18122 -90.51505,-27.53375 13.60146,34.4843 60.98246,89.20831 32.26952,118.07282 -13.36306,1.96547 -28.33412,-14.00086 -40.17863,-3.20035 z m 22.49665,-47.39241 c -3.45863,-29.89011 -4.78804,32.31169 0,0 z M 399.31874,388.51015 c -0.87512,-31.72509 -2.11267,-64.14082 -24.14615,-90.3263 -4.9006,29.35892 -10.27043,77.17571 24.14615,90.3263 l 0,0 z M 329.47065,270.74087 c 15.70106,-9.13038 1.81319,-52.63319 -13.15141,-27.38902 -20.89703,-26.088 9.40175,44.04781 13.15141,27.38902 z M 436.0798,259.33549 c -6.5943,-38.06246 -21.01389,2.34237 0.78033,10.91003 l 0.5332,-4.59703 -1.31353,-6.313 z m -31.6569,-23.92541 c 3.272,-40.5122 -53.63584,5.99856 -9.86494,11.88945 10.72381,9.78131 10.76495,-5.3188 9.86494,-11.88945 z m 12.04578,-5.9885 c 4.9639,-17.72689 -18.19801,-41.08197 -9.3571,-10.47075 -1.68111,7.48896 12.09214,30.68126 9.3571,10.47075 z m -128.34033,0.553 c -4.29585,-8.26865 -1.11576,6.66243 0,0 z m 47.03152,-10.06757 c -10.0046,-15.32019 28.00771,-13.90452 2.07408,-24.95763 30.16852,-35.75438 -35.74648,-59.90864 -27.96198,-9.48792 1.10293,11.71797 7.90354,46.06954 25.8879,34.44555 z m -11.97213,-11.8617 c 5.5886,-13.78704 9.14199,6.84382 0,0 z m 8.55107,-8.14917 c 5.91607,-4.82882 -3.9212,-4.81068 0,0 z m 15.39192,22.02584 c -3.57047,-8.93808 -2.43578,7.07154 0,0 z m -51.30642,-24.03899 c -3.20903,-19.20402 -4.0655,13.03168 0,0 z m 9.41365,-183.329695 c -2.6737,-15.52485637 -10.01567,8.804676 0,0 z M 488.08811,565.03571 c 12.46981,-8.04426 -2.62721,10.91924 0,0 z m 11.25167,1.25375 c 1.82774,-8.23357 4.49459,4.391 0,0 z m 7.94952,-5.65497 c 7.67036,-12.14198 13.24536,-75.64311 28.2007,-44.39751 -2.99871,9.22563 -13.78896,67.39996 -28.2007,44.39751 z m 118.60632,5.53616 c 4.5873,-8.58937 5.38165,8.331 0,0 z m 37.46391,1.50986 c -8.87486,-25.21829 11.61188,-96.10731 39.86708,-76.19218 -1.18666,2.48006 4.02163,-47.738 12.17276,-64.49946 12.00869,-16.30366 1.70997,-80.8189 -7.53644,-35.49371 14.58229,31.51247 -5.8087,12.10764 -15.26799,7.06532 4.46917,28.5432 -38.70596,-2.36838 -40.25206,-4.57997 -0.40673,-38.35738 -37.56652,-81.96589 5.86116,-109.77151 -16.28816,28.14474 -68.64997,26.42698 -57.76296,-15.36133 1.22666,-21.52381 -58.6887,-64.03151 -6.17854,-70.328 6.77894,27.78696 80.34702,-12.91797 53.48809,26.79609 -15.25738,5.32444 -49.49656,39.82084 -15.27406,19.58263 44.49986,-43.26915 43.33355,31.70745 42.31658,61.51869 8.52233,17.672 8.17615,-41.60519 2.74973,-53.32095 -11.90123,-23.44278 6.58314,-69.50924 9.55721,-77.61966 -8.12139,41.84949 -61.10618,33.59801 -77.46674,5.15953 6.15349,-15.09054 35.8391,-21.55991 12.71684,-19.72654 53.29706,-47.43188 55.34774,-122.536631 82.24461,-184.124158 5.63891,-16.003548 30.4282,-74.11615 25.09626,-28.160229 -0.002,206.527617 -0.14321,413.042657 0.52749,619.558697 -25.06434,10.23809 -50.79962,-14.07816 -41.59792,-39.63673 -8.3539,14.52522 4.75764,49.76359 -25.2611,39.13347 z m 17.57647,-36.1696 c -7.55379,-3.84898 6.71045,11.16198 0,0 z M 657.05002,380.59177 c -10.52493,-2.37905 6.1726,11.24938 0,0 z m 57.75054,-41.4038 c -1.0129,-30.59113 -5.81476,24.21442 0,0 z m -62.39663,-10.56904 c -0.77051,-8.28775 -6.95913,10.53295 0,0 z m 50.87887,-39.08867 c -4.82683,-11.575 -4.23519,10.37098 0,0 z m -89.93239,-5.55251 c 27.40292,-32.42483 -22.73369,-6.5401 0.1313,2.09096 l -0.1313,-2.09096 z m 28.37575,-22.29606 c 25.18474,-15.58593 -19.10779,2.31444 0,0 z m -46.6144,-47.81231 c -3.94824,-8.15582 -3.94824,8.15582 0,0 z M 727.8315,210.3883 c -4.05917,3.58611 3.68988,5.91023 0,0 z M 221.11262,530.43723 c -8.81228,-19.11348 8.73622,10.06867 0,0 z m 151.69751,-3.90748 c -1.11162,-25.59688 7.57531,8.04097 0,0 z m -566.10702,-3.64183 c 3.46528,-12.60432 2.11021,10.26928 0,0 z m 100.151621,-2.92036 c -40.301931,2.93689 -61.297631,-67.13778 -19.963001,-68.78147 5.28742,11.40753 -12.27021,60.28038 6.75053,25.04794 8.143208,-18.87033 12.124589,-34.71585 9.92167,-4.57221 7.813235,8.5016 30.40147,50.30166 3.290801,48.30574 z m -94.960381,-8.43987 c 5.44782,-16.4549 37.7769,-62.07144 28.39321,-17.54354 -5.06795,10.41484 -16.09041,19.80702 -28.39321,17.54354 z m 23.8824,0.2879 c 11.52934,-9.63602 9.46769,-0.48848 -0.33314,1.75333 l 0.33314,-1.75333 z m 327.70282,-11.95388 c 6.83192,-31.0387 -31.50141,-20.19872 -17.46211,-38.86559 2.262,-20.7352 40.53728,-82.07658 25.31697,-29.74327 -4.52934,20.73144 7.60178,53.23705 -7.85486,68.60886 z M 660.0999,497.8546 c -10.78209,-18.47425 -9.53783,-67.36498 -2.0536,-73.90859 23.5749,0.80275 29.60316,53.06871 13.54976,43.45889 5.91778,-37.19541 -20.32912,-15.10598 -7.42203,7.4055 0.62908,4.95246 8.05523,50.14541 -4.07413,23.0442 z m -450.53144,4.48536 c -0.6702,-8.20412 4.04912,9.56656 0,0 z M -193.29689,476.921 c -4.36464,-32.24584 0.56919,-105.22005 28.7505,-101.71694 -6.26588,36.76596 -5.85402,77.14786 -27.41018,108.70452 l -0.98423,-1.83992 -0.35609,-5.14766 0,0 z m 388.23406,-14.80614 c -14.63151,-64.24766 20.10836,18.53324 0,0 z m 490.08867,3.64177 c 14.09644,-16.61022 -31.72651,-58.29508 8.23087,-41.80534 25.55092,8.85791 -4.98534,28.88996 -8.23087,41.80534 z m -39.55486,-2.43204 c -3.83308,-16.41036 8.61087,6.81331 0,0 z m -373.58966,-7.8772 c 2.39557,-17.89542 3.19217,13.28503 0,0 z m 373.76576,-11.63035 c -28.30711,-5.95674 13.75967,-8.47348 0,0 z m -774.74766,-15.54718 c -14.60861,-20.11667 28.26894,-49.75827 10.17925,-13.88482 -3.78047,-0.53615 -14.42835,31.82515 -10.17925,13.88482 z m 759.09214,-3.93194 c 1.08037,-16.55367 16.34137,11.24019 0,0 z m -440.63041,-5.12723 c -14.24195,-20.96959 29.31447,-58.13914 2.9901,-17.56862 -0.90857,5.78027 1.73654,12.77586 -2.9901,17.56862 z m 441.80256,-18.01836 c -6.82387,-11.28828 10.03109,3.62574 0,0 z m -824.4606,-5.90183 c 0.84518,-11.91395 5.80203,4.08853 0,0 z m 374.53687,-5.35069 c -1.62103,-28.46014 22.40462,-8.89444 0,0 z m 122.44364,-5.17211 c -1.73485,-14.33814 8.26925,-63.55234 16.43195,-24.64945 0.18384,6.73206 -3.34342,39.46009 -16.43195,24.64945 z m 335.32364,2.90363 c -8.57967,-9.53914 7.96334,0.76186 0,0 z m -832.30415,-4.50988 c -0.28545,-18.85995 56.50103,-56.98723 23.71551,-20.63691 -7.41366,7.25056 -12.28532,18.82749 -23.71551,20.63691 z m 817.05595,-1.69733 c -27.05998,-28.74251 33.86808,-11.97319 5.75245,5.01374 l -2.00053,-1.46545 -3.75192,-3.54829 z m -738.38611,-3.52301 c 8.15984,-11.90169 -1.95066,8.86303 0,0 z m -77.5297,-34.55908 c 8.2871,-36.25236 24.36459,-70.64596 63.2474,-88.27222 31.927427,-4.88036 -55.14692,36.47627 -50.20064,67.89231 -0.46094,8.81807 -8.92783,13.50464 -13.04676,20.37991 z m 496.53213,-11.74337 c 6.59857,-12.8982 7.3233,12.75471 0,0 z M 89.058894,316.15556 c 0.949918,-26.89866 4.154461,12.10226 0,0 z M -149.61538,304.46113 c 9.64079,-22.25239 27.18566,-23.42854 3.98209,-3.65912 -1.32737,1.2197 -2.65473,2.43941 -3.98209,3.65912 z m -43.67512,-9.375 c 4.74684,-24.449 31.29876,-22.38872 0,0 z m 779.42364,-10.93237 c -10.46509,-29.23463 15.66347,18.49084 0,0 z m -388.30171,-4.857 c -6.29632,-20.31131 13.8321,23.88257 0,0 z m -391.12832,-21.9556 c 7.20693,-21.3713 12.60453,0.47314 0,0 z m 759.63312,-13.90757 c -14.5068,-21.58353 19.03803,12.8058 0,0 z M -166.8238,230.04168 c 14.16487,-19.0756 16.21678,0.29639 0,0 z m 340.29749,-8.25364 c 0.008,-11.50546 6.74948,8.68882 0,0 z m -366.77058,-5.02186 c 0.36079,-28.62679 -9.00628,-101.05748 38.98783,-62.90324 12.58495,9.70394 38.8964,12.51861 13.49387,-2.06154 20.06233,0.16955 74.039779,22.54095 26.84918,21.28736 -13.08155,12.35993 -63.20546,13.26157 -24.50143,22.58891 13.18049,-3.17934 55.75805,-21.13912 47.440751,-3.47305 -29.629121,3.67321 -75.103311,26.87085 -83.958591,14.42545 -6.17639,3.25331 -11.94086,7.24087 -18.31161,10.13611 z m 376.24708,-2.77799 c 2.32036,-21.0814 4.48262,17.84259 0,0 z m 84.93646,-3.00291 c -1.00664,-18.80389 9.56677,6.876 0,0 z m 335.82571,-5.08987 c -3.26969,-11.46779 10.37661,7.6114 0,0 z m -350.35273,-8.47339 c 8.36945,-16.46874 6.15877,12.68585 0,0 z m 304.12743,2.35531 c 4.5873,-8.58938 5.38166,8.33101 0,0 z m 10.26128,-0.79119 c 4.12174,-8.73108 7.24186,5.59616 0,0 z m -679.81006,-21.35347 c 1.2452,-6.78512 4.15396,8.28853 0,0 z m 40.190024,-16.1052 C -106.90861,134.23918 -177.37066,142.5254 -193.4964,102.84494 c -6.98711,-26.924651 0.29431,-89.320776 34.35739,-49.956234 37.35291,29.708268 72.615345,63.466764 102.568771,100.169284 6.978057,13.30297 -6.706523,15.25272 -15.301457,8.46948 z m 637.929576,1.1108 c 3.3027,-26.80301 -62.28592,11.28244 -38.14278,-14.09658 -28.34533,6.08103 -8.75322,-30.4784 -24.01972,-11.43832 -25.66101,-1.65368 13.24632,-33.91899 28.56153,-23.2293 44.57254,-8.04426 64.72064,-80.813028 101.79552,-80.177962 10.23759,24.354355 -46.464,67.263952 -37.35187,58.791834 32.73678,-18.095834 11.26651,46.963458 22.11992,13.304888 7.9596,-16.30385 29.31057,-55.700488 16.51678,-14.492439 -5.36959,37.298109 -37.06912,54.566099 -63.38348,73.336619 l -6.0959,-1.99874 z m -29.09339,-22.36769 c -5.71045,-3.97317 -1.069,8.06016 0,0 z M 526.7032,124.06881 c -6.25801,-5.55147 -5.32178,9.12908 0,0 z m 102.50103,-17.90297 c -19.36857,18.94682 -10.81266,24.519 0,0 z m -50.73608,10.71777 c 36.55117,-14.13936 -39.17564,-4.45113 0,0 z M 183.92746,152.3245 c -6.19747,-25.84646 8.69525,-81.723053 17.44161,-85.06678 -15.65646,29.355865 4.17923,65.14749 35.52255,47.03511 36.08549,32.77744 -41.11508,37.22417 -52.96416,38.03167 z M 3.4852583,146.7618 C -35.207977,145.9571 -4.7296687,88.101626 -0.24927017,98.085195 -49.825189,133.84309 -71.972762,59.910379 -104.10965,35.480526 c -22.5772,-42.3804242 -90.10021,-50.18952 -89.2508,-104.005925 12.24505,-19.406626 40.20739,-5.679596 59.85266,-9.501647 44.214929,0.02845 88.429853,0.0569 132.64477785,0.08535 C -2.7037041,-20.587364 4.8855178,38.860946 32.907071,89.777886 14.882636,99.828642 14.607106,129.63009 9.1348088,148.79751 L 3.4852583,146.7618 z m 14.3161327,-5.99357 c -0.90725,-23.19884 27.108784,-26.73633 8.144643,-3.61804 l -8.144643,3.61804 z m 14.736777,-2.9456 c -5.55933,-29.83802 43.870633,-22.28263 11.964085,-1.5507 -2.54952,2.46262 -10.097862,7.81425 -11.964085,1.5507 z M -76.269092,123.6111 c -20.604895,-7.62627 -40.701278,-47.734249 -8.511804,-16.29932 2.321985,2.22852 23.996939,21.51533 8.511804,16.29932 z M 466.28964,94.621059 C 428.23185,65.387238 397.68136,28.469294 366.73617,-7.6846244 333.64894,-49.582125 281.81031,-42.072514 236.59432,-40.785508 192.34668,-30.598053 169.30629,15.903069 127.00321,29.859006 90.982218,-0.66502916 137.69697,54.020311 104.52634,60.291927 87.948997,64.390782 105.22732,42.930857 87.728842,64.655121 46.660732,104.94313 20.017561,31.958474 16.356913,-1.4191627 4.6196577,-37.923019 -2.7434673,-99.241774 55.927292,-77.680476 c 50.326298,-13.341841 20.397226,53.807298 45.538688,63.689457 -12.358189,-35.556629 -12.760467,-82.999868 38.13818,-63.505976 145.31575,-2.359963 290.89237,1.792934 436.04337,-0.578668 31.66395,-11.115642 84.59839,4.104109 50.60787,43.336507 -14.64106,48.016634 -57.35622,80.618289 -105.19259,90.873298 -17.40336,3.238022 -80.13455,18.981492 -30.48005,13.427045 26.33345,2.075687 -14.78157,36.785513 -24.29312,25.059872 z m 89.05965,-69.989222 c 26.44707,-26.1501511 -25.80985,19.639626 -10.1705,8.701888 3.60687,-2.64897 6.84089,-5.730931 10.1705,-8.701888 z M 101.41324,5.3085491 c -9.381796,-7.2382233 3.3161,14.8641609 0,0 z M 546.30356,89.181883 c 9.6684,-16.985161 36.72923,-21.442228 9.66584,-4.096839 -1.36438,0.01455 -9.56467,10.216067 -9.66584,4.096839 z m 106.3482,-28.851775 c 13.33821,-43.129346 -8.6608,-115.348115 30.95761,-139.276913 28.89024,-9.009849 47.90177,20.139249 21.98869,39.786993 -15.77183,31.6792463 -31.49481,81.765474 -52.9463,99.48992 z m -771.50534,-1.409555 c -22.23958,-19.603828 -101.77411,-52.5488685 -62.41578,-78.487948 30.01661,13.9204425 49.51054,65.065884 62.41578,78.487948 z m -52.21053,-44.856327 c -3.45912,-6.0219977 -3.27005,9.625008 0,0 z m 391.63901,3.698093 c -4.61284,-26.7715491 50.03605,-17.62468797 13.20285,-4.977542 -3.71174,2.37385 -8.21951,6.542541 -13.20285,4.977542 z"
       id="path3073"
       inkscape:connector-curvature="0" />
    <path
       style="fill:#1d2224"
       d="m -193.03474,558.12755 c 5.79523,-36.26762 61.67182,-16.52651 27.23616,7.58933 -7.41712,3.01244 -32.69102,8.62169 -27.23616,-7.58933 z m 61.40166,-6.03458 c -5.38549,-40.88632 58.541891,-15.49214 20.25379,8.97203 17.674572,9.31094 -47.32875,10.98562 -20.25379,-8.97203 z m 23.4191,-23.33364 c -5.29819,3.65642 -4.10914,2.83583 0,0 z m 16.064682,37.63214 c 3.175385,-8.76723 9.988789,10.02752 0,0 z m 756.886028,-7.26685 c 8.4953,-29.54808 13.10575,33.07193 -0.11455,1.18951 z m 17.59595,7.16484 c 1.82775,-8.23357 4.49459,4.391 0,0 z m 9.95639,-7.91977 c 9.57846,-18.51672 -12.94371,-67.47385 4.1822,-66.70022 8.23622,21.12916 11.4396,64.57033 -3.29101,74.23481 l -0.89119,-7.53459 z m 14.89126,4.04015 c 10.78676,-49.66272 -5.11327,-103.74459 11.08591,-150.97028 -0.99613,-22.47261 19.11949,-33.95091 9.36959,-4.53476 5.29664,53.62 1.25388,107.53025 2.57087,161.279 -7.16572,-3.67567 -18.04722,2.40706 -23.02637,-5.77396 z m 9.35663,-3.28522 c -3.46529,-12.60433 -2.11021,10.26928 0,0 z m -39.04704,-5.86861 c -10.83632,-27.60843 16.58255,18.87921 0,0 z m -776.698851,4.47757 c 5.223739,-16.66764 1.893182,7.97923 0,0 z M -177.1747,530.8973 c 13.75528,-7.98847 -6.32251,8.69043 0,0 z m 848.57396,-2.13458 c -8.01202,-20.35392 11.5271,-2.49501 0,0 z M -94.532031,515.67414 c -27.664819,3.99708 -6.806839,-55.59771 -4.170288,-16.49083 1.380379,3.74503 22.512664,25.85886 4.170288,16.49083 z m -90.213789,-7.56165 c 7.36211,-30.10359 41.24872,-10.43428 0,0 z m 53.61065,-7.44421 c 1.6315,-27.24744 19.51833,2.7506 0,0 z m 792.94528,-17.1556 c 3.32991,-9.89401 2.8099,13.81631 0,0 z m -854.53693,-0.97632 c 3.41523,-12.86009 3.26408,9.12037 0,0 z m 62.03572,-2.08925 c 2.15219,-34.62314 28.91951,3.11649 0,0 z m -62.23883,-24.35169 c -8.26732,-19.47866 16.33042,-66.5046 20.0842,-35.66456 -9.43419,8.88344 -2.58812,37.72113 -20.0842,35.66456 z m 8.18411,-40.02327 c -5.71043,-3.97318 -1.06902,8.06012 0,0 z m 872.78348,32.19389 c -0.71433,-19.58615 13.01706,11.4609 0,0 z m -25.91742,-6.50696 c -9.14566,-29.46581 6.81929,-4.96497 0.91673,1.08307 z m 29.52313,-2.99044 c -5.83426,-16.52557 10.25544,5.22513 0,0 z m -527.50553,-5.34708 c 3.08397,-19.01982 4.11106,13.03079 0,0 z m 483.99056,-4.14512 c 3.94826,-8.15585 3.94826,8.15585 0,0 z m 25.08314,-1.34211 c 0.68465,-18.8513 18.74602,9.09925 0,0 z m 34.77435,-15.65085 c 2.35196,-15.92413 5.07263,10.79832 0,0 z m -834.58443,-5.03288 c 1.71668,-11.80171 5.76125,7.4375 0,0 z m -65.34431,-1.48008 c -0.1818,-13.06092 8.8974,-0.87035 0,0 z m 868.01541,-3.7873 c -10.24839,-13.38113 -9.24436,-30.6811 -26.33939,-38.44412 -7.98939,-16.92201 18.18671,-52.6387 30.38239,-26.78017 -19.12366,-27.30136 42.74797,-51.00907 28.71952,-10.92281 6.31192,14.96045 6.22581,84.24403 -14.07817,54.6316 -1.38499,-18.98128 -15.00466,-47.30117 -7.7454,-10.86311 1.21273,9.27894 9.30008,41.88014 -10.93895,32.37861 z m 3.35927,-30.38484 c -10.75538,-2.75663 2.86488,12.2267 0,0 z m 1.81105,-10.32204 c 0.26694,-20.68407 -15.26292,-0.90173 0,0 z m -12.59191,-6.48646 c -8.72506,-10.08549 -6.14757,9.00977 0,0 z M -175.1576,387.5501 c -1.33661,-14.40788 11.11639,0.62623 0,0 z m -18.13929,-4.57611 c 3.94826,-8.15585 3.94826,8.15585 0,0 z m 817.74469,-5.53617 c -16.00529,-16.32936 5.067,-13.46317 0,0 z m 96.77089,1.12964 c -6.81018,-51.61949 -19.07174,-104.78927 7.11533,-153.1966 2.22848,40.1815 1.86851,89.42777 1.50339,132.84863 -1.61702,7.25549 2.7684,20.44279 -8.61872,20.34797 z m 6.71219,-68.57017 c -4.47316,3.84042 5.70173,10.05724 0,0 z m -372.67663,62.74969 c -12.33848,-21.09002 -0.4792,5.11647 0,0 z m -532.18816,-10.91107 c 16.83757,-22.00897 -9.07527,21.12652 0,0 z m -15.50787,-25.16438 c 1.2452,-6.78512 4.15396,8.28853 0,0 z m 844.83626,-16.12322 c -18.89737,-25.48707 39.72701,-49.21309 18.58258,-10.42867 -4.51294,5.20318 -10.48332,13.36338 -18.58258,10.42867 z m -11.10694,-14.07403 c 14.4516,-32.04126 -11.01153,85.57873 0.33668,3.42336 z m -35.10568,-6.12762 c -1.68295,-15.2163 10.76496,4.64097 0,0 z m 21.42397,-1.81083 c -31.36601,-31.32214 68.31734,-55.24705 28.30703,-18.56929 -9.39998,2.74914 -19.35332,23.93619 -28.30703,18.56929 z m 57.91729,-3.58518 c -5.87969,-26.15118 19.59051,5.50256 0,0 z m 10.49127,-17.66705 c -24.73924,-23.95607 -21.61744,-69.0631 -4.1628,-96.28441 6.18452,-10.48819 30.27644,-60.06699 17.05128,-52.37752 -12.71055,24.51181 -37.96138,94.33319 -71.47109,55.46576 13.58141,-51.85131 37.70066,-100.304477 50.6766,-152.393149 12.44181,-32.7870185 21.72973,-67.499322 40.44844,-97.372276 1.06886,89.517967 4.8491,179.877155 -1.44796,268.904735 -9.64061,21.68387 -4.53187,69.81516 -31.09447,74.05686 z m -888.66238,-19.88875 c 2.04628,-17.61544 2.5591,6.65926 0,0 z m 821.96403,1.88922 c 1.069,-8.06016 5.71045,3.97317 0,0 z m -339.47747,-8.45414 c -34.38132,2.26416 -20.39282,-26.71088 4.13647,-12.30796 10.55902,5.45448 12.62178,20.21588 -4.13647,12.30796 z m 370.28751,-2.23371 c 0.32876,-15.16336 10.56076,7.01806 0,0 z m -11.99768,-3.98324 c 5.2104,-23.9433 17.32511,-0.69658 0,0 z m -46.3338,-6.08251 c -11.86519,-27.11864 20.01465,-25.04744 0,0 z m 15.29459,-9.22891 c -11.52327,-24.95289 27.22826,-8.37622 8.61769,-11.25596 -6.36721,-21.71896 -3.28164,41.10371 -8.61769,11.25596 z M 367.6533,225.03642 c -4.8528,-18.93437 14.1854,-47.93797 8.50712,-12.74107 0.26465,7.41107 -9.90599,37.43656 -8.50712,12.74107 z m 219.93106,7.74902 c -20.88158,-10.03632 20.58544,-7.17225 0,0 z m 45.36589,-2.55922 c 3.50067,-9.40001 3.16167,5.94566 0,0 z m -341.17548,-6.5222 c -17.2154,-14.36337 -4.44137,-44.00414 2.39761,-11.39381 2.90046,4.32031 7.32407,21.45648 -2.39761,11.39381 z m 352.9332,-1.78204 c 3.94826,-8.15585 3.94826,8.15585 0,0 z m -64.98813,-5.26767 c -22.11254,-9.56269 21.53543,-1.13106 0,0 z m 64.41806,-4.12704 c 2.78587,-14.68184 12.75345,9.179 0,0 z m -837.43479,-22.4672 c -14.25074,-36.0954 51.86669,3.69071 11.17756,9.8678 -12.56745,19.38439 -12.26397,0.67449 -11.17756,-9.8678 z m 21.37768,7.70411 c 6.95909,-9.66151 0.96864,7.4932 0,0 z m 426.69839,-1.00658 c 5.70227,-11.16515 4.92015,10.82288 0,0 z m -351.448979,-9.05918 c 5.101857,-8.45429 11.165308,10.38232 0,0 z m 491.736019,-2.52495 c -2.9903,-25.60889 6.7831,16.29369 0,0 z m -539.29048,-2.78872 c 1.44583,-11.86038 10.75937,6.72996 0,0 z m 435.41023,-0.0205 c -25.12567,-10.74777 5.66906,-89.510512 -1.79766,-35.34838 -1.78845,9.75857 18.63681,32.19292 1.79766,35.34838 z m 326.24776,-2.61095 c 7.31758,-20.73169 25.76307,-1.69392 0,0 z m -786.12278,-5.03622 c -37.59933,2.6882 -16.49136,-55.50481 8.12973,-21.37852 24.60606,1.89494 43.21692,33.05221 6.18764,23.20056 -4.83285,0.22943 -9.68394,-0.46265 -14.31737,-1.82204 z m 44.65583,-15.23776 c -8.86853,-8.251 -1.14546,0.3824 6.34602,3.16034 z m 59.019621,2.26482 c -4.17369,-11.48369 15.504198,7.42035 0,0 z m 694.329639,-7.26266 c 16.68754,-19.75065 -10.76847,16.94613 0,0 z m -709.365695,-3.33076 c 5.688849,-10.69203 4.777431,8.54837 0,0 z m -15.765037,-3.81099 c -33.621988,-21.80545 -108.013258,-17.62826 -97.218578,-75.451748 -7.38001,-33.675447 22.69948,-37.812633 38.30922,-10.6762 21.44468,28.052434 78.801185,48.191368 74.613453,85.018278 -4.342272,3.69995 -10.795244,3.40095 -15.704095,1.10967 z m -3.420428,-6.9503 c -12.59335,-14.07123 3.197535,11.57473 0,0 z m 638.69461,6.91209 c -1.4418,-25.65012 73.12912,-23.94575 41.2007,-6.06798 -8.08276,-25.4566 -19.93272,26.83717 -41.2007,6.06798 z m -173.208,-6.91209 c -12.12623,-49.311546 13.28072,19.33993 0,0 z M 197.2892,129.23491 c 6.59703,-31.641118 75.29567,-15.15597 35.8466,13.16168 -13.6617,4.27036 -17.11263,-42.868175 -21.19998,3.79204 l -8.43114,2.32694 z m 131.88429,10.03245 c -48.95829,16.09063 -12.15818,-59.073398 14.66376,-21.29758 9.35243,10.98291 0.30997,28.1864 -14.66376,21.29758 z m -15.46497,-9.81115 c -1.05106,-12.07446 -9.0947,8.73317 0,0 z m 204.44361,7.1255 c 5.79974,-24.33765 55.166,-13.46962 15.90751,-2.16325 -3.50652,1.80192 -12.24038,8.9701 -15.90751,2.16325 z m -533.518834,-8.18869 c -5.751848,-42.097211 43.993244,4.87369 3.869275,4.66433 -1.289758,-1.55478 -2.579517,-3.10955 -3.869275,-4.66433 z m 515.797494,3.94606 c 5.17401,-11.68113 15.64225,-5.98466 0,0 z m 95.63748,-10.88144 c 3.48819,-22.684463 18.68699,0.0363 0,0 z M 45.277963,117.23817 c 8.333773,-10.49115 2.403455,9.26947 0,0 z m -78.145315,-9.59346 C -68.804829,65.605449 -109.99718,28.164735 -146.26953,-13.031593 c -24.25515,-10.412522 -74.94746,-70.335833 -19.21498,-63.469308 45.82661,-4.452112 91.563917,1.70796 137.224194,-0.594909 46.874538,-6.026158 22.4182195,57.429743 27.8790385,85.7403522 0.53297334,16.2033108 -4.8157534,47.3674938 11.0138125,35.6528008 19.079599,20.779406 8.211127,58.371107 -20.778523,39.842308 -6.737439,6.934941 -7.591187,34.757069 -22.721364,23.505059 z M 1.8599051,54.251736 c -8.4624936,-0.902572 10.0555269,13.829166 0,0 z M -29.116346,9.149865 c -15.26302,-7.2164919 2.825285,19.240023 0,0 z M 575.01675,95.685922 c -3.88886,-22.89335 59.1774,-61.963225 31.30523,-19.109945 -7.07433,9.916219 -17.31384,23.110498 -31.30523,19.109945 z M 357.84504,90.612581 c -11.76049,-14.896001 4.02536,-18.652316 0,0 z M 50.63225,70.43243 C 16.437472,51.355846 22.706207,-18.928199 18.152742,-31.418096 c -27.3518128,-9.25777 5.311586,-80.170684 29.066959,-36.739803 0.599294,-29.985751 52.851729,8.181475 41.168614,34.09505 C 79.506176,-5.8537677 109.55706,20.60051 101.85852,42.748765 76.192578,59.251301 97.14062,14.08741 80.149386,35.503162 84.827912,54.402903 56.668898,64.74166 60.980835,65.655822 66.357521,83.119836 67.788433,84.118579 50.63225,70.43243 z m 3.65996,-11.198148 c -5.237894,-8.471234 -3.739406,10.270531 0,0 z M 68.171281,29.162852 C 82.656397,3.1092691 60.082955,19.390384 62.348669,33.609966 z M 88.88842,5.5083382 C 81.518746,-22.398661 72.12987,1.2758394 86.510529,11.308875 z M 32.61506,7.2892936 c 1.68236,-12.4626598 -11.911858,15.2541914 0,0 z M 484.34433,76.581637 c 14.4562,-20.719377 13.69753,10.487595 0,0 z M 446.32315,63.280573 c 6.95518,-14.303856 32.68741,-28.242749 9.30577,-29.255035 -10.9744,17.068119 -37.13242,42.432144 -42.29802,6.531294 -27.58583,-34.7423317 -58.02088,-78.404814 -103.47974,-88.085414 -39.73041,-3.501043 -86.06939,-5.453268 -116.21572,25.687706 -23.61096,31.781098 -90.26166,62.562246 -88.67358,-2.403614 -8.882199,-26.416484 -12.086382,-64.133141 28.0404,-54.768886 51.77463,3.265878 103.76179,-0.89617 155.69936,1.928692 69.63156,-1.348255 139.80429,0.609951 209.08822,-1.05368 16.69587,13.695133 -13.86757,64.537687 3.96196,23.654864 16.66174,-44.611236 80.77588,-19.278548 115.37605,-17.786324 33.72962,51.345792 -38.83046,71.58545042 -69.08175,95.128752 -25.40429,28.754367 -63.9618,46.307969 -101.72295,40.421645 z m 35.03794,-66.7914051 c 12.37194,-27.0664169 -14.79395,18.8878231 0,0 z M 139.51789,-11.05821 c -4.05915,3.5860838 3.68982,5.9102359 0,0 z m 229.84563,-23.815264 c -4.97798,-7.428775 -1.35246,10.416565 0,0 z m 253.89719,88.194128 c -1.05042,-15.317918 14.37828,-12.767533 0,0 z M 535.56825,48.969433 C 550.05247,32.694798 589.98304,-10.702081 601.21919,5.5739154 584.5609,26.571333 559.96218,39.172514 535.56825,48.969433 z m -675.5135,-8.762379 c -21.98193,-5.613449 -27.84259,-30.5234534 -4.10191,-8.542001 -1.10116,-0.848858 12.68926,15.590097 4.10191,8.542001 z M 659.7569,29.547626 c 8.61938,-33.0147057 -11.07354,-105.769537 35.28839,-108.402599 37.09017,27.52031 -21.08628,74.306158 -25.30795,108.905712 -0.87685,5.409701 -9.43875,5.334123 -9.98044,-0.503113 z M 4.5178684,33.356914 c -8.7032709,-13.363324 8.7535706,-5.113873 0,0 z M -190.30402,9.2335597 c -19.6526,-40.7398027 57.11921,-0.045768 9.63439,0.1741544 -3.21919,0.09609 -6.42716,0.197049 -9.63439,-0.1741544 z M 626.82356,-69.818996 c -6.25781,-29.538884 23.68307,14.144831 0,0 z M 79.482243,-76.024242 c 0.770521,-8.287752 6.959132,10.53295 0,0 z m 640.475147,1.125385 c 1.06902,-8.060128 5.71043,3.973186 0,0 z"
       id="path3071"
       inkscape:connector-curvature="0"
       sodipodi:nodetypes="cccccccccccccccccccccccccccccccccccccccccccccccccccccccccccccccccccccccccccccccccccccccccccccccccccccccccccccccccccccccccccccccccccccccccccccccccccccccccccccccccccccccccccccccccccccccccccccccccccccccccccccccccccccccccccccccccccccccccccccccccccccccccccccccccccccccccccccccccccccccccccccccccccccccccccc" />
  </g>
</svg>
