<?xml version="1.0" encoding="UTF-8" standalone="no"?>
<svg
   xmlns:dc="http://purl.org/dc/elements/1.1/"
   xmlns:cc="http://creativecommons.org/ns#"
   xmlns:rdf="http://www.w3.org/1999/02/22-rdf-syntax-ns#"
   xmlns:svg="http://www.w3.org/2000/svg"
   xmlns="http://www.w3.org/2000/svg"
   xmlns:sodipodi="http://sodipodi.sourceforge.net/DTD/sodipodi-0.dtd"
   xmlns:inkscape="http://www.inkscape.org/namespaces/inkscape"
   viewBox="0 0 512 512"
   id="svg2"
   version="1.1"
   inkscape:version="0.48.4 r9939"
   width="100%"
   height="100%"
   sodipodi:docname="notsure28.svg">
  <metadata
     id="metadata48">
    <rdf:RDF>
      <cc:Work
         rdf:about="">
        <dc:format>image/svg+xml</dc:format>
        <dc:type
           rdf:resource="http://purl.org/dc/dcmitype/StillImage" />
        <dc:title></dc:title>
      </cc:Work>
    </rdf:RDF>
  </metadata>
  <defs
     id="defs46">
    <filter
       id="filter3108"
       x="0"
       y="0"
       width="1"
       height="1"
       inkscape:label="Lightness-Contrast"
       inkscape:menu="Color"
       inkscape:menu-tooltip="Increase or decrease lightness and contrast"
       color-interpolation-filters="sRGB">
      <feFlood
         id="feFlood3110"
         result="result1"
         flood-opacity="1"
         flood-color="rgb(0,0,0)" />
      <feBlend
         id="feBlend3112"
         in2="SourceGraphic"
         mode="normal"
         result="result2" />
      <feComposite
         id="feComposite3114"
         in2="SourceGraphic"
         k2="1"
         operator="arithmetic"
         result="result3" />
      <feComposite
         id="feComposite3116"
         in2="SourceGraphic"
         operator="in" />
    </filter>
  </defs>
  <sodipodi:namedview
     pagecolor="#ffffff"
     bordercolor="#666666"
     borderopacity="1"
     objecttolerance="10"
     gridtolerance="10"
     guidetolerance="10"
     inkscape:pageopacity="0"
     inkscape:pageshadow="2"
     inkscape:window-width="1185"
     inkscape:window-height="1030"
     id="namedview44"
     showgrid="false"
     inkscape:zoom="0.65186406"
     inkscape:cx="155.59179"
     inkscape:cy="71.217119"
     inkscape:window-x="100"
     inkscape:window-y="100"
     inkscape:window-maximized="0"
     inkscape:current-layer="svg2" />
  <rect
     style="opacity:0.98999999;fill:#000000;fill-opacity:1;fill-rule:nonzero;stroke:none"
     id="rect3171"
     width="516.97894"
     height="518.513"
     x="-3.0681245"
     y="-1.9108258" />
  <g
     id="g4010"
     transform="matrix(-1,0,0,1,485.01991,7.6703108)">
    <path
       style="fill:#daaa9b"
       d="m 94.69913,498.77574 c 12.18709,-38.52261 6.26474,-79.59546 2.89103,-119.01272 -10.359117,-31.3455 -23.883354,-62.00907 -24.946979,-95.78722 -5.09703,-30.97831 -0.29374,-64.80786 -14.59349,-93.42325 -0.570658,-32.50747 38.934512,-43.26731 58.425089,-63.34592 26.63562,-16.76568 53.61939,-32.60823 78.65495,-51.369026 27.89781,-11.562135 24.69339,-49.392371 46.77436,-63.188194 23.93498,-9.8410608 58.99536,-0.349037 63.65846,29.695225 11.34183,50.036592 58.39532,76.932285 91.25106,111.708505 14.46697,23.32559 44.19453,47.06713 30.14897,77.67748 -2.31024,33.88445 -10.40543,66.70326 -23.84331,97.88399 -12.07514,38.5564 -35.71724,74.11307 -35.08902,115.92772 -8.03552,22.17369 26.79955,66.61239 -16.64015,56.0153 -85.93431,0.54056 -171.87189,0.19634 -257.807694,0.29264 l 0.60857,-1.67551 0.508154,-1.39905 0,3e-5 z M 321.41015,248.99451 C 338.26552,233.77175 383.05778,227.27132 354.71569,195.2743 346.0038,161.00368 320.84922,134.51772 295.339,109.45817 293.08534,95.244189 253.34438,87.373201 273.41745,86.782934 261.78791,113.35177 254.36574,145.4975 227.98757,161.59917 c -13.57629,-16.35153 20.25184,-68.963348 -19.96645,-55.16732 -31.8806,12.1755 -39.40138,49.68895 -66.2862,69.43171 -36.64454,19.70129 16.78644,56.24038 40.43234,36.32783 21.38731,-21.70497 43.9123,-40.0304 74.80537,-34.04107 35.06717,-6.48608 40.80814,38.09809 44.4492,64.04507 1.93745,9.75571 12.72014,9.19598 19.98832,6.79912 z M 233.95192,86.268993 c -13.50958,-20.85203 -5.295,20.867527 0,0 z M -312.43882,234.0221 c 0.85347,-11.98327 0.85347,11.98326 0,0 z"
       id="path4024"
       inkscape:connector-curvature="0" />
    <path
       style="fill:#db9168"
       d="M 98.908175,500.70241 C 114.7576,459.85106 104.75996,416.01129 100.95903,374.01225 91.798698,346.39842 78.683436,319.64952 79.062247,289.59547 76.393129,261.06211 73.270654,232.353 67.825298,204.29083 49.803037,170.9363 106.82638,167.60098 119.36288,144.01345 c 22.47045,-24.41728 55.38769,-37.74004 80.78372,-54.795923 24.80255,3.594932 2.58743,-17.501435 10.3064,-21.496809 20.05735,-14.262793 13.61019,-57.843304 47.69966,-57.700324 37.59507,-7.0507406 43.25014,38.517727 56.34797,63.010322 25.83154,45.975084 79.77238,67.832574 103.51479,115.469354 18.50949,25.89983 -3.73445,59.92561 -2.07303,89.26741 -13.23122,40.83482 -28.35304,81.03021 -44.97538,120.5895 -10.27636,33.4733 -8.01695,69.96384 -0.27372,103.49332 -90.59132,-0.30313 -181.22127,0.8415 -271.785115,-1.14789 z M 381.62208,256.91048 c 19.33117,-15.62876 -13.45748,-9.08422 -5.62444,2.76611 l 1.43828,0.13561 4.18616,-2.90172 z m -55.88964,-8.08682 c 16.06944,-12.80556 58.98829,-21.34913 32.98048,-51.11788 -8.63924,-28.69867 -24.18684,-53.76744 -47.30653,-75.07931 -14.66396,-25.137838 -50.16836,-49.195779 -62.63898,-16.11844 0.90342,-14.721128 -3.51564,-13.663395 -11.2876,-17.732347 27.54312,-10.7402 -3.36325,-6.889697 -13.55819,-8.304772 -8.81779,9.853477 28.28263,21.991399 7.83162,28.121909 -17.16883,-19.154735 -54.02333,7.26677 -58.2417,29.58469 -9.54993,23.66278 -61.88889,39.8406 -41.11118,67.07824 10.48286,15.38224 37.1801,18.66188 51.61061,8.50084 18.10056,-13.98208 36.27374,-42.05331 61.85425,-30.46444 27.64393,-15.81289 52.24186,15.46265 49.54696,42.34172 0.38327,17.18935 10.74756,36.66327 30.32026,23.18979 z M 229.03559,148.10527 c 10.72362,-8.43849 10.87982,-26.42018 20.70915,-36.98169 21.63922,2.24651 -19.31945,61.31233 -20.70915,36.98169 z m 142.48305,93.02381 c 21.19032,-25.98264 -35.05742,0.0985 -8.88003,7.8345 l 3.89923,-2.7379 4.9808,-5.0966 z M 228.61459,67.035534 c 9.5932,-19.392736 -25.70418,12.899119 0,0 z m 14.42205,-1.089297 c -4.99526,-4.596999 0.009,4.675919 0,0 z M 271.6752,53.453089 c -8.69982,-5.969561 2.90615,13.303182 0,0 z m 9.65844,-16.746026 c 14.90818,-21.511471 -20.63591,9.131825 -31.02946,0.457183 -6.1772,-5.388309 -2.32104,-16.265037 -13.78788,-1.011843 -2.48894,12.007586 27.28346,0.941297 35.34604,6.459653 l 3.80139,-2.689361 5.66991,-3.215632 0,0 z m -14.08341,-7.928821 c -10.21073,-3.031088 0.1529,6.086344 0,0 z M 61.022977,179.23778 c 8.039316,-14.17457 19.978433,-19.36716 5.756247,-1.22101 -0.484828,0.85019 -5.595378,5.37202 -5.756247,1.22101 z m 63.610863,-54.51246 c 23.46804,-13.15368 -9.64875,11.43204 0,0 z m 43.20607,-24.05577 c 6.19782,-15.254592 45.68626,-30.764952 16.15357,-7.266008 -0.60096,3.960694 -28.49709,18.103138 -16.15357,7.266008 z"
       id="path4022"
       inkscape:connector-curvature="0" />
    <path
       style="fill:#9e625a"
       d="M 98.908175,500.70241 C 114.90227,457.63009 104.76959,411.5703 99.518315,367.53234 84.009283,329.29185 77.229128,288.39332 75.573049,247.37238 c 0.180885,-13.4249 -13.002995,-46.97257 -6.780775,-49.4975 17.477136,-9.87989 24.912467,-34.46827 47.413126,-42.8089 20.25122,-22.39263 46.95777,-37.25317 71.53614,-54.04988 11.83212,-14.37246 48.23592,-17.675887 46.2904,4.74801 -19.60391,-12.897204 -58.799,8.11762 -62.76795,36.47123 -13.88152,21.85038 -68.51057,44.62435 -31.59368,70.69524 30.95968,21.11827 54.85773,-10.08594 78.37974,-25.36848 14.58363,-10.58798 33.07441,0.83975 49.48914,-8.85976 34.93356,10.17854 18.87323,53.22422 39.53905,73.07138 20.88124,0.70036 38.02101,-15.62605 56.32094,-25.46093 12.51284,-18.97903 -26.79935,-47.86833 -8.64804,-59.61867 -3.92386,31.35725 44.79728,34.14745 31.88908,2.00799 -8.72323,-27.32232 -38.60418,-40.2196 -57.40787,-60.20456 -7.06427,-9.956507 -41.1597,-39.304134 -36.74552,-14.696044 15.29412,14.277524 41.1933,31.718344 41.97773,51.456084 -26.06924,-16.17553 -37.0394,-55.541203 -70.66767,-58.199574 -3.38541,13.549564 -20.33812,24.290074 -13.49095,3.287953 10.41353,-26.635454 5.30753,-20.296278 -12.54567,-9.128515 -21.22516,-9.644846 0.73579,-13.880965 10.65382,-11.832337 -12.66721,-26.876952 -23.22683,-12.984895 -37.75887,-0.11034 19.87733,-14.145067 10.8089,-48.377932 38.14656,-58.013391 37.87522,-13.7844301 53.775,27.803699 62.4544,56.026729 21.76878,48.669495 77.04556,68.599435 102.42692,114.736585 22.95896,22.8815 1.17229,53.85335 4.47904,82.57302 -5.38925,32.85295 -21.66819,62.6724 -30.87175,94.50755 -18.03174,33.84126 -26.95552,72.02522 -22.20869,110.36129 3.43925,18.86308 12.74964,39.28743 -13.99713,32.38374 -84.05447,-0.27692 -168.1505,0.80054 -252.176395,-1.14789 z M 378.21083,264.0305 c 14.80284,-7.56231 22.71756,-27.92013 -0.73134,-22.37174 11.82215,-34.8997 -47.62325,7.72344 -10.87886,13.75257 0.85112,6.12024 3.11285,16.89375 11.6102,8.61917 z m 32.01484,-38.97111 c -4.05275,-3.25398 -4.62287,5.67583 0,0 z M 278.73316,70.517097 c 5.78728,-14.874545 -14.1866,-28.174643 10.06892,-35.945929 -5.32461,-21.351686 -58.58212,-21.781003 -57.93889,12.128524 24.97318,-16.269102 40.21816,6.919755 43.71326,25.917142 l 4.15671,-2.099737 z M 250.7828,34.717491 c 1.45236,-12.315663 22.50899,9.072899 0,0 z M 62.67016,176.79163 c 4.525767,-7.64082 3.785548,3.40865 0,0 z m 6.58873,-8.1928 c 11.910647,-16.34148 0.613168,6.45922 0,0 z m 161.42388,-16.56496 c 11.28739,-5.66871 18.16916,-58.723283 25.22723,-26.09691 -5.69003,5.74317 -16.8201,33.60102 -25.22723,26.09691 z M 171.3842,98.938811 c 16.95479,-27.631055 26.05869,-10.486757 0,0 z M 216.99057,80.0949 c -6.47855,-14.521119 13.24375,1.217883 0,0 z"
       id="path4020"
       inkscape:connector-curvature="0" />
    <path
       style="fill:#d61d32"
       d="m 103.10253,499.45898 c 14.03018,-31.28743 13.59718,-67.91347 4.83577,-100.57396 5.12349,-33.53956 -19.870626,-59.61845 -20.942524,-91.93255 -3.572061,-30.88331 -5.020429,-61.60627 -12.050335,-92.23353 -9.012395,-16.52747 12.549954,-36.34314 19.856432,-37.73431 2.460108,-9.62696 37.475367,-29.49127 50.578797,-44.70944 19.51415,-9.28439 45.75466,-39.423687 63.04372,-32.601417 -31.54641,6.631807 -32.77289,42.183677 -55.99486,58.389057 -19.59702,16.69651 -44.5149,42.84625 -8.9289,59.16859 31.77294,17.38498 47.8112,-6.68973 71.35014,-26.73624 24.04466,-10.7583 60.07593,-17.14512 73.88774,11.13811 2.00874,23.33267 11.08634,75.22215 43.37312,43.98541 25.25015,-24.38258 20.89137,23.73331 42.11223,23.9616 30.21704,-11.57432 18.66847,-35.91335 -3.17156,-48.2659 -1.49359,-13.86865 -19.32781,-37.05616 6.03825,-19.54854 10.03297,7.23181 1.20558,-19.32596 17.48428,-7.43797 36.72372,-2.67271 16.8376,55.97273 17.95719,80.68787 -10.36765,30.99127 -22.33442,61.55809 -33.32609,92.37545 -21.39476,40.18238 -25.64348,88.75587 -11.84586,132.06777 -37.68968,4.74931 -77.39943,1.26054 -115.87192,2.39024 -49.37671,-0.80083 -99.01686,1.63463 -148.23618,-1.63681 l -0.14952,-0.75343 8e-5,0 z M 410.22567,225.05939 c -4.05275,-3.25398 -4.62287,5.67583 0,0 z m -13.4747,-14.03271 c -7.1587,-11.79681 -7.21719,11.84159 0,0 z m -40.75228,-21.301 c 0.64724,-6.09047 1.62286,5.41782 0,0 z m 44.44879,-17.96112 c -13.59063,-20.18806 18.84842,18.47248 0,0 z M 246.05061,127.81814 c 6.76403,-28.599084 10.74061,8.66414 -0.70533,5.36743 0.23511,-1.78914 0.47022,-3.57829 0.70533,-5.36743 z m 75.14275,0.548 c -7.87329,-17.53527 15.53029,5.94296 0,0 l 0,0 z m 37.42059,2.2597 c -4.78111,-6.94662 6.36326,1.64873 0,0 l 0,0 z m -130.3639,-30.48296 c -33.79744,-24.350655 22.24181,6.74314 0,0 z m 23.0072,-3.792676 c 15.1185,-21.133602 4.19207,-33.216556 -14.88185,-43.28575 12.75472,-24.859121 35.84597,1.250927 33.15848,21.308616 15.62239,18.363993 -15.23602,5.999278 -19.01508,24.011475 l 0.73845,-2.034341 0,0 z m 34.11198,-15.646087 c 0.95117,-12.384693 -1.09606,-26.228332 -6.01425,-36.152973 24.27831,-24.058301 19.71398,16.166907 21.60293,31.74319 -4.01747,2.598284 -10.65452,8.601475 -15.58868,4.409783 z M 235.62432,76.878 c 1.68204,-4.715425 4.38525,5.211624 0,0 z m 41.6948,-55.965121 C 267.04973,14.359353 235.14766,9.600546 266.97482,10.01924 c 4.67081,-2.9554386 24.92445,19.328806 10.3443,10.893639 z"
       id="path4018"
       inkscape:connector-curvature="0" />
    <path
       style="fill:#9a1a2a"
       d="m 103.10253,499.45898 c 14.03018,-31.28743 13.59718,-67.91347 4.83577,-100.57396 2.64663,-37.76847 -20.749947,-69.65012 -23.65213,-106.71239 1.785482,-30.08947 -6.780246,-59.29558 -12.308367,-88.53136 21.254538,-19.03075 38.385227,-42.78324 61.189687,-60.69483 19.28256,-19.98934 46.20913,-30.30915 67.26228,-47.078781 22.12784,5.005871 -32.21587,16.552441 -27.15963,35.591221 -6.45409,27.80976 -55.86807,41.01196 -46.16652,69.862 16.14729,23.74389 54.07361,31.14773 69.26589,4.67538 5.51152,19.67702 33.91698,-5.38051 53.11261,5.41756 16.67027,-5.37023 40.28721,-12.55912 34.52552,-19.05179 11.26505,21.85474 8.53814,86.71345 48.10399,53.25667 23.44778,-20.65319 21.73243,14.30983 38.27856,25.2981 17.63757,-5.62746 37.73987,-28.08058 12.66985,-37.74014 -9.22161,-6.76831 -23.50182,-33.95136 -17.73019,-37.17793 18.22249,22.37779 26.12757,-12.79912 42.57921,-0.8783 14.39748,14.16844 -27.70222,37.27795 4.39376,34.59436 7.53669,3.4162 -0.42073,30.62776 1.12383,41.51081 -9.0208,31.48177 -22.71401,61.60456 -32.82461,92.82365 -22.03691,41.16117 -27.66951,90.83079 -13.24189,135.40968 -31.56251,4.69895 -65.3302,1.32722 -97.76506,2.39024 -42.071,0.002 -84.14199,5.1e-4 -126.21299,0.001 -0.46578,-52.41142 3.56053,-105.09415 15.91881,-156.0549 -17.09231,-9.62538 -17.64923,36.91463 -24.97901,48.40029 -7.17297,21.43132 -13.60913,-24.78311 -17.01108,-0.34163 -8.73619,30.92029 16.33485,52.3791 15.49937,82.2116 -2.20904,8.89569 8.46856,30.20208 -7.71592,25.78464 -6.51556,-1.04656 -18.94664,2.65087 -21.99174,-2.3913 z m 85.45225,-99.6336 c -7.30395,-16.7368 13.52656,-53.00581 -0.31041,-58.97946 -7.58389,5.577 -18.72768,14.02209 -15.71029,1.31032 -5.6693,12.94625 -6.35603,65.10181 16.0207,57.66914 z m 21.81377,-11.05051 c 15.5275,-15.94221 -14.57759,-70.67325 -12.10754,-28.26653 1.40304,7.26565 -3.38786,50.64191 12.10754,28.26653 z m 36.22718,3.84697 c 16.07069,-11.69359 32.43177,-43.77904 27.7727,-56.97765 -5.3562,21.88208 -23.25463,46.78129 -33.56553,59.28801 l 5.79283,-2.31036 0,0 z m -12.33325,-10.67932 c 21.07752,-16.22388 -10.09595,-11.58779 -7.75386,-33.60376 -12.22064,-15.39043 -0.54956,47.9659 7.75386,33.60376 z M 339.07111,269.78454 c -8.67225,-23.89134 -8.78478,22.89 2e-5,0 l -2e-5,0 z m 57.67986,-58.75786 c -7.1587,-11.79681 -7.21719,11.84159 0,0 z m -40.75228,-21.301 c 0.64724,-6.09047 1.62286,5.41782 0,0 z m -94.01945,-6.22772 c -12.68233,-3.91269 16.38246,-1.4535 0,0 z m 138.46824,-11.7334 c -13.59063,-20.18806 18.84842,18.47248 0,0 z M 246.05061,127.81814 c 6.76403,-28.599084 10.74061,8.66414 -0.70533,5.36743 0.23511,-1.78914 0.47022,-3.57829 0.70533,-5.36743 z m 74.73852,0.16867 c -7.01311,-10.20667 11.08989,9.81881 0,0 z m 37.82482,2.63903 c -4.78111,-6.94662 6.36326,1.64873 0,0 l 0,0 z m -130.3639,-30.48296 c -33.79744,-24.350655 22.24181,6.74314 0,0 z m 23.0072,-3.792676 c 15.1185,-21.133602 4.19207,-33.216556 -14.88185,-43.28575 12.75472,-24.859121 35.84597,1.250927 33.15848,21.308616 15.62239,18.363993 -15.23602,5.999278 -19.01508,24.011475 l 0.73845,-2.034341 0,0 z m 34.11198,-15.646087 c 0.95117,-12.384693 -1.09606,-26.228332 -6.01425,-36.152973 24.27831,-24.058301 19.71398,16.166907 21.60293,31.74319 -4.01747,2.598284 -10.65452,8.601475 -15.58868,4.409783 z M 235.62432,76.878 c 1.68204,-4.715425 4.38525,5.211624 0,0 z m 41.6948,-55.965121 C 267.04973,14.359353 235.14766,9.600546 266.97482,10.01924 c 4.67081,-2.9554386 24.92445,19.328806 10.3443,10.893639 z"
       id="path4016"
       inkscape:connector-curvature="0" />
    <path
       style="fill:#60171e"
       d="m 103.10276,499.45898 c 6.32393,-31.02752 19.05106,-15.66958 12.26543,2.39132 -2.787,-1.07073 -13.96546,2.71216 -12.26543,-2.39132 z m 49.61338,1.48034 c -5.6534,-34.74252 -3.02151,-70.63815 -0.0632,-105.56711 5.8067,-12.37769 8.98165,-52.32391 13.09281,-16.63339 -1.34439,25.87577 11.41553,59.73051 39.73196,34.2909 19.93686,-17.71115 52.61685,-10.3616 62.91496,-42.1066 11.25962,-10.92764 19.03716,-64.41129 -0.46943,-28.92506 -3.11259,15.58886 -17.2412,46.06478 -30.69387,42.7141 14.0293,-7.82714 26.30242,-63.67725 6.49606,-27.98612 -10.99156,11.79401 -11.96333,-28.01937 -30.20248,-15.93578 -14.698,-15.21492 -39.08864,0.11531 -57.42552,-7.09978 -19.84535,8.17897 -16.60797,61.71028 -48.07131,37.89868 -4.46777,-30.21805 -15.465824,-58.73172 -24.882545,-87.00198 -0.678418,-27.08233 26.833085,13.18925 23.217195,-17.09775 -3.34254,-15.92793 25.0013,-35.1339 -0.17969,-42.01813 -20.820033,29.20792 -41.913028,-18.14941 -13.956411,-22.76762 24.439731,-11.79248 35.696421,-39.00721 51.203731,-59.86402 10.5724,-13.95961 40.26939,-33.43308 47.9155,-34.40396 -21.4619,18.03554 -28.55945,47.32614 -52.77008,65.21106 -36.20628,17.9663 6.32806,56.97814 33.14949,46.45847 -1.07352,11.56923 -19.29122,19.4863 -3.47965,34.61243 -0.21797,11.26357 -0.49126,64.99847 12.202,32.20953 4.90431,-28.91293 16.89527,-80.09935 52.77791,-46.2804 29.72525,13.68793 16.01087,-36.23407 47.45492,-31.46719 22.24304,-1.06923 4.9141,44.56256 31.32666,47.96948 -10.34287,25.66583 27.18195,25.23698 25.2659,44.09269 6.48166,-15.51557 4.08371,-67.10435 24.25648,-31.81679 15.61174,19.36697 39.68331,-3.58906 49.74962,-19.10407 11.63642,30.10522 -19.1293,61.42514 -23.23048,92.25686 -9.60006,33.03962 -31.25733,63.54277 -27.8019,99.5521 -9.18469,23.27644 25.40492,68.88557 -16.89413,59.46917 -63.53897,0.22975 -127.11357,0.78292 -190.63453,-0.65972 z m 43.4576,-3.90676 c 10.99949,-8.10161 -15.81981,-13.53479 -7.97068,-27.64828 -16.63566,-31.74394 47.90962,9.2237 51.30421,-7.00931 -28.81283,-7.42625 -63.61608,-18.47865 -74.7118,-49.34525 -14.18109,-20.86909 1.38918,46.5553 -2.35251,61.44248 -12.76003,25.41101 18.08454,24.8336 33.73078,22.56036 z m 38.56506,-4.57213 c 19.58375,-9.84908 12.7901,-25.14856 -3.23243,-9.13029 -19.66393,8.41244 -19.32256,12.41022 3.23243,9.13029 z m 35.42765,-57.08961 c 9.09651,-24.1954 -16.61496,27.8675 0,0 z M 108.19603,403.77891 c -6.031,-24.60486 9.17872,-2.29 1.17473,3.36533 l -1.17473,-3.36533 0,0 z M 317.98345,257.28719 c 9.27727,-16.52772 52.20846,-25.09373 20.88044,-3.58689 -5.23584,3.44457 -15.2823,7.03348 -20.88044,3.58689 z m 54.44598,-35.50611 c -4.4218,-13.0877 -18.7739,-41.25095 -0.0176,-13.74613 1.12772,1.57114 6.26144,15.27235 0.0176,13.74613 z m -16.43074,-32.0554 c 0.64724,-6.09047 1.62286,5.41782 0,0 z m 45.93211,-18.7858 c -3.67281,-7.89607 7.84348,8.14761 0,0 z M 244.51655,109.79291 c 4.16518,-12.559865 39.87273,-53.113017 24.93095,-17.625053 -7.9983,24.912563 -23.69686,45.529883 -40.05862,65.412553 5.04256,-15.92917 10.08511,-31.85833 15.12767,-47.7875 z m -48.42461,-9.0355 c 8.54251,-14.814003 20.57056,6.03917 0.0643,2.29986 l -0.0643,-2.29986 z m 29.7524,-2.043092 c -14.98575,-14.521233 23.03518,12.155642 0,0 z m 25.42354,-2.364114 c 10.71323,-16.643421 13.52889,-30.740041 -4.99904,-38.712452 -1.11567,-27.548702 26.65901,-0.56128 20.1196,15.974826 21.63421,19.535121 -10.76696,5.214253 -15.12724,24.754977 l -0.74221,0.01985 0.74889,-2.037197 z M 235.62432,76.878 c 1.68204,-4.715425 4.38525,5.211624 0,0 z m 57.1247,-13.323086 c -10.67617,-15.022717 9.04854,-40.133557 6.44993,-9.007151 0.80129,6.269993 -2.54992,26.615947 -6.44993,9.007151 z m -14.72347,-42.87259 c -11.64594,-11.5103905 12.34047,3.528575 0,0 z M 251.27256,11.28742 c 4.26788,-5.2985828 6.95917,4.481005 0,0 z"
       id="path4014"
       inkscape:connector-curvature="0" />
    <path
       style="fill:#1b0708"
       d="m 202.96071,499.66589 c 11.11374,-6.31808 41.8635,3.64231 11.62366,2.18441 -0.92436,-0.86265 -15.93625,1.69962 -11.62366,-2.18441 z m 38.35425,-1.57338 c 14.44711,-27.57202 29.74368,-54.96172 42.54824,-83.5081 4.88003,-17.29519 14.12491,-28.99958 10.46346,-3.60439 1.10069,29.261 -14.26358,54.44284 -20.38476,82.01171 4.69773,12.66435 -35.50735,11.48725 -32.62694,5.10078 z m 43.72416,2.73294 c 9.2169,-32.18744 13.01529,-65.22823 19.02751,-98.04445 15.10665,-18.97035 -8.7292,-59.21577 -18.9643,-23.60923 -9.05107,27.24852 -16.87686,59.86987 -39.17682,78.74779 -27.30551,1.36508 -71.34689,-22.11254 -31.92363,-44.21023 29.82409,-9.47007 58.16453,-26.86943 67.0566,-59.99294 14.0353,-17.85554 -1.0991,-31.31158 -9.61455,-41.25138 13.68419,-26.74778 2.67625,-60.30978 16.74085,-85.80539 14.36777,19.45827 15.52229,65.28481 36.23617,67.90006 9.96887,-4.97968 2.23356,41.30955 19.0556,15.01032 -4.16113,-19.35231 7.85267,-27.49476 20.95638,-11.41915 38.58676,1.69895 19.7289,34.26638 9.03217,53.71534 0.0317,32.83433 -25.37097,61.06457 -16.71977,95.71143 -8.69673,15.40163 18.57999,51.63824 0.65722,54.27268 -7.82761,-2.35458 -27.53588,6.09822 -23.36164,-7.17397 -3.25028,-37.32416 -13.09355,-0.89879 -20.05111,7.17397 -9.63832,-0.21495 -19.41516,0.6395 -28.95068,-1.02485 z m -74.81007,-16.55664 c 1.02042,-22.19145 46.30687,-11.17894 14.41432,-1.84564 -4.3814,1.34588 -10.02852,4.8029 -14.41432,1.84564 z M 126.91947,369.64429 c 10.20769,-18.62249 -14.30909,-25.4663 -18.29825,-21.83125 1.20814,-17.61443 -19.150691,-49.80994 -16.431408,-56.26558 27.665958,24.04839 30.150998,-30.00549 42.153908,-45.35327 9.07648,-14.24065 -24.93642,-57.69471 1.23049,-31.02279 22.41907,16.26194 32.84508,47.89305 29.45494,76.33174 -3.74567,16.08974 26.54098,46.07599 -3.95847,37.3408 -25.30836,-1.78152 -17.72527,34.48499 -34.15121,40.80035 z M 237.2198,341.89312 c 2.47871,-29.07332 -46.17918,-6.7155 -49.85784,-17.32451 -0.67114,-28.92111 -3.36684,-66.07169 16.41715,-88.69737 26.27733,3.88087 59.54948,11.23505 49.82511,46.45923 -0.64281,22.87761 20.7285,43.98931 -5.83545,54.11771 -2.90737,1.57993 -6.88905,13.27833 -10.54897,5.44494 z m 11.69776,-216.1638 c 3.32914,-15.57402 6.35036,6.0989 0,0 z m 8.12013,-65.248965 c 1.68204,-4.715425 4.38525,5.211624 0,0 z"
       id="path4012"
       inkscape:connector-curvature="0" />
  </g>
</svg>
