<?xml version="1.0" encoding="UTF-8" standalone="no"?>
<svg
   xmlns:dc="http://purl.org/dc/elements/1.1/"
   xmlns:cc="http://creativecommons.org/ns#"
   xmlns:rdf="http://www.w3.org/1999/02/22-rdf-syntax-ns#"
   xmlns:svg="http://www.w3.org/2000/svg"
   xmlns="http://www.w3.org/2000/svg"
   xmlns:sodipodi="http://sodipodi.sourceforge.net/DTD/sodipodi-0.dtd"
   xmlns:inkscape="http://www.inkscape.org/namespaces/inkscape"
   viewBox="0 0 512 512"
   id="svg2"
   version="1.1"
   inkscape:version="0.48.4 r9939"
   width="100%"
   height="100%"
   sodipodi:docname="notsure22.svg">
  <metadata
     id="metadata48">
    <rdf:RDF>
      <cc:Work
         rdf:about="">
        <dc:format>image/svg+xml</dc:format>
        <dc:type
           rdf:resource="http://purl.org/dc/dcmitype/StillImage" />
        <dc:title></dc:title>
      </cc:Work>
    </rdf:RDF>
  </metadata>
  <defs
     id="defs46">
    <filter
       id="filter3108"
       x="0"
       y="0"
       width="1"
       height="1"
       inkscape:label="Lightness-Contrast"
       inkscape:menu="Color"
       inkscape:menu-tooltip="Increase or decrease lightness and contrast"
       color-interpolation-filters="sRGB">
      <feFlood
         id="feFlood3110"
         result="result1"
         flood-opacity="1"
         flood-color="rgb(0,0,0)" />
      <feBlend
         id="feBlend3112"
         in2="SourceGraphic"
         mode="normal"
         result="result2" />
      <feComposite
         id="feComposite3114"
         in2="SourceGraphic"
         k2="1"
         operator="arithmetic"
         result="result3" />
      <feComposite
         id="feComposite3116"
         in2="SourceGraphic"
         operator="in" />
    </filter>
  </defs>
  <sodipodi:namedview
     pagecolor="#ffffff"
     bordercolor="#666666"
     borderopacity="1"
     objecttolerance="10"
     gridtolerance="10"
     guidetolerance="10"
     inkscape:pageopacity="0"
     inkscape:pageshadow="2"
     inkscape:window-width="1185"
     inkscape:window-height="1030"
     id="namedview44"
     showgrid="false"
     inkscape:zoom="0.921875"
     inkscape:cx="304.12058"
     inkscape:cy="240.80592"
     inkscape:window-x="100"
     inkscape:window-y="100"
     inkscape:window-maximized="0"
     inkscape:current-layer="svg2" />
  <rect
     style="opacity:0.98999999;fill:#000000;fill-opacity:1;fill-rule:nonzero;stroke:none"
     id="rect3171"
     width="529.25146"
     height="587.54578"
     x="-4.6021867"
     y="-12.649261" />
  <g
     id="g3147"
     transform="matrix(1.0165396,0,0,1,10.898481,28.203393)">
    <path
       style="fill:#e1ebcf"
       d="m -3.0847402,280.94916 c 0,-94.0565 0,-188.112994 0,-282.169491 174.8926602,0 349.7853202,0 524.6779802,0 0,188.113001 0,376.225991 0,564.338991 -174.89266,0 -349.78532,0 -524.6779802,0 0,-94.0565 0,-188.113 0,-282.1695 z"
       id="path3169"
       inkscape:connector-curvature="0" />
    <path
       style="fill:#cbdeaa"
       d="m -3.0847402,280.94916 c 0,-94.0565 0,-188.112994 0,-282.169491 174.8926602,0 349.7853202,0 524.6779802,0 0,188.113001 0,376.225991 0,564.338991 -174.89266,0 -349.78532,0 -524.6779802,0 0,-94.0565 0,-188.113 0,-282.1695 z M 267.67407,377.69924 c -2.94664,-13.51602 -19.8388,-28.91786 -11.48586,-5.31936 1.8217,4.04759 6.98401,7.95796 11.48586,5.31936 z m 16.64813,-3.38264 c -10.96518,-18.60673 -23.30345,-3.55229 0,0 z m -32.42164,-7.10039 c -1.73101,-18.36941 -49.11822,-24.3059 -16.04753,-8.42329 5.08606,3.27293 10.43793,6.15133 16.04753,8.42329 z m 13.18345,-6.95156 c -1.46915,-11.01811 -6.01938,1.95188 0,0 z m -31.69603,-14.33599 c 5.07689,-17.67526 27.60312,-46.11116 5.79678,-51.19287 1.65085,19.46726 -15.15359,33.32386 -7.32167,53.53374 l 1.52489,-2.34087 z m 18.28759,1.61579 c -1.53893,-2.25594 -2.04167,1.63414 0,0 z m 3.49785,-21.68331 c -1.29854,-2.9793 -1.29849,2.97932 0,0 z m 5.58344,-29.57525 c 7.7397,-10.20542 -4.2066,-7.80315 0,0 z m -31.23436,0.21868 c 19.10614,-6.28214 -9.52672,-9.02534 0,0 z m -5.24678,-5.85703 c -7.35816,-13.64683 -15.69914,9.78707 0,0 z m -53.13522,-0.83618 c 8.6654,-24.69694 -19.10989,0.0546 0,0 z m 2.41635,-7.71425 c -1.72436,-2.03264 -0.1939,2.70374 0,0 z m -6.5223,-29.47988 c -3.30016,-2.67518 -1.32398,5.54057 0,0 z m -42.69771,-11.28937 c -2.34262,-11.7396 -13.44916,0.54265 0,0 z m 64.96035,-1.52841 c -5.72819,-5.09443 -5.12747,4.83095 0,0 z m 39.93382,-9.6408 c -1.53356,-2.37932 -1.60452,2.63977 0,0 z m -101.72923,-0.94056 c -2.39739,-2.83693 -2.39739,2.83693 0,0 z M 246.1373,198.17945 c -1.01043,-2.20936 -0.91218,2.00018 0,0 z M 143.2154,186.3821 c -2.36843,-3.53796 0.0919,3.57338 0,0 z m 11.96275,-8.87173 c 13.29861,-17.36778 -12.94532,-1.59127 0,0 z m -12.17401,-2.96262 c -4.9213,-21.67144 -23.85611,-5.11241 0,0 z m 21.2251,-16.30766 c -7.42388,-30.49825 38.70148,-22.50782 38.71835,-23.73508 -5.44252,-26.08328 21.18414,-41.493398 -2.30664,-64.536294 -10.70069,3.114198 20.94546,-29.641472 -6.52524,-19.679929 -15.44479,13.297062 -39.99198,17.6052 -42.04972,-2.980483 -17.64298,1.979708 -48.79827,24.399557 -30.78428,42.579936 -7.04504,-19.90918 31.53268,-10.339775 32.05995,-15.750616 -6.36181,27.411576 -25.28508,59.981446 -2.1385,84.918396 3.53844,3.847 9.94573,3.4553 13.02608,-0.81593 z m -10.42252,-12.39281 c -3.51494,-5.3462 6.09774,1.42996 0,0 z m -1.51668,-7.84859 c -21.11336,-14.49974 8.30211,-16.56545 0,0 z m 23.01573,-9.18591 c 1.29848,-2.9793 1.29853,2.97928 0,0 z m 21.60448,-4.03323 c -10.29081,-4.57459 0.63119,-8.71992 0,0 z m -41.96314,-21.31782 c -1.52296,-5.020102 4.81389,2.10354 0,0 z m 12.91184,-6.476994 c 2.59334,-5.641201 4.17776,4.770654 0,0 z m 12.79569,-2.108601 c 4.78211,-9.526079 0.61958,6.476515 0,0 z m -0.14485,-9.841197 c -0.5333,-6.96096 6.81108,3.114282 0,0 z M 132.74856,71.25868 c 0.22648,-2.791971 2.16731,1.292999 0,0 z m 55.18835,-5.071855 c -3.51436,-2.765024 3.18333,-1.151989 0,0 z m 7.44931,-11.942533 c -1.02677,-6.833455 6.24975,3.277153 0,0 z m -20.35468,96.884378 c -0.42958,-5.39423 -4.42647,4.66081 0,0 z m 33.14628,-26.26085 c -4.70534,-7.39661 -1.12754,7.56521 0,0 z m 29.21485,-4.93949 c -3.85021,-7.46126 -4.55731,4.9546 0,0 z m 1.04212,-4.86685 c 0.87976,-7.52231 -9.61638,11.94643 0,0 z m -21.73775,-5.76543 c -1.53356,-2.37932 -1.60452,2.63977 0,0 z m 113.5228,-1.73094 c -0.25508,-12.001467 -7.15955,8.28433 0,0 z m -114.10578,-1.58879 c -1.65748,-1.46544 -0.78326,2.21783 0,0 z m 1.16595,-2.76618 c -0.41922,-6.338493 -2.10217,4.80602 0,0 z m 112.25418,-1.0093 c -3.07974,-14.154448 -17.07484,2.50961 0,0 z m 2.29447,-7.246102 c -9.73211,-17.810869 -9.79023,11.138312 0,0 z m 7.27635,3.543188 c 0.48537,-3.021097 -4.40489,4.389294 0,0 z m -1.73204,-1.429216 c -1.01044,-2.209332 -0.91217,2.000178 0,0 z m -17.48926,-1.645989 c -1.77819,-4.934682 -1.69945,4.699289 0,0 z m 19.23819,-0.481922 c -2.52015,-8.450597 -7.27802,2.551229 0,0 z M 139.45278,91.418877 c -2.93213,-4.301443 -1.1674,6.005118 0,0 z m 195.2968,-1.874687 c -1.01044,-2.209332 -0.91217,2.000178 0,0 z M 96.929178,88.877089 c 0.307506,-4.725488 -6.307874,5.281854 0,0 z m 3.318492,-0.584923 -1.433679,0.01528 1.433679,-0.01528 z m 227.79769,-1.071632 c -0.81623,-3.047966 -1.97536,2.264494 0,0 z M 147.32295,84.841365 c -1.26165,-2.274467 -1.26165,2.274467 0,0 z m 64.14223,-16.164757 c 15.88892,-11.349924 -10.70306,-9.491795 0,0 z M 116.42524,68.00108 c -3.69625,-7.126618 -6.82412,5.873361 0,0 z m 96.77394,-10.671241 c -1.79196,-5.262828 -2.40763,3.422963 0,0 z"
       id="path3167"
       inkscape:connector-curvature="0" />
    <path
       style="fill:#b7ca96"
       d="m -3.0847402,280.94916 c 0,-94.0565 0,-188.112994 0,-282.169491 174.8926602,0 349.7853202,0 524.6779802,0 0,188.113001 0,376.225991 0,564.338991 -174.89266,0 -349.78532,0 -524.6779802,0 0,-94.0565 0,-188.113 0,-282.1695 z M 267.41591,379.74415 c -3.39322,-15.72476 31.49501,0.0638 9.82535,-15.63567 -10.31823,-7.06467 -15.17993,-8.63027 -16.43652,-4.27543 -2.45147,-7.21269 -12.88825,-19.21418 -15.11892,-4.30185 -9.80029,-8.8146 -16.83318,-5.47331 -2.40006,-18.53437 -8.10996,-14.65516 24.99574,-23.3508 5.72729,-39.1972 -5.24793,-18.31071 -55.19049,-12.13776 -23.69723,3.20323 26.06883,-5.36867 -4.66178,27.25498 2.53303,34.96795 -26.04835,18.72717 22.02276,25.16317 30.58852,39.92947 l 4.31601,2.21617 4.66253,1.6277 z m -14.5627,-15.77876 c 0.17843,-2.54693 2.19031,3.75711 0,0 z m -25.529,-18.66785 c -3.32444,-7.52822 7.72348,2.15892 0,0 z m 8.99967,-27.97986 c -3.76068,-11.18521 12.29153,0.53776 0,0 z m 66.2163,51.73313 -1.43368,0.0153 1.43368,-0.0153 z m 6.26699,-3.92108 c -1.14076,-4.62903 -2.02007,2.89553 0,0 z m -5.82976,-8.45438 c 0.14723,-8.71361 -4.91926,4.08713 0,0 z m -18.08116,-3.91829 c -2.67108,-1.11795 1.11147,5.07972 0,0 z m 24.16927,0.49804 c -1.69372,-6.09089 -2.03352,4.62604 0,0 z m -5.51406,-2.19176 c -2.72826,-4.98519 -3.13863,5.6292 0,0 z m -6.8806,-2.17507 c -2.50634,-6.91779 -3.46175,5.8705 0,0 z m -10.01676,-2.09956 c -1.01047,-2.20933 -0.91214,2.0002 0,0 z m -62.96136,-8.02928 c -2.70862,-4.05412 -2.14068,4.64588 0,0 z m 31.69498,-9.51177 c 5.16627,-13.75202 -6.85396,-3.63579 -4.20898,2.68906 l 0.83909,-0.0491 3.36989,-2.63998 z m -33.86009,-9.71779 c -0.96295,-10.86805 -3.17403,10.77516 0,0 z m 38.30222,-20.00455 c 7.01709,-18.37021 -3.92631,-7.89566 -2.84453,3.13899 l 2.84453,-3.13899 z m -77.7439,-5.05553 c -3.44171,-9.35654 -6.30052,0.98941 0,0 z m 17.9486,-1.10846 c 1.03579,-6.28705 -8.52442,1.62185 0,0 z m -14.9017,-1.0738 c -1.2748,-4.40263 -6.83633,7.42606 0,0 z m -14.01253,-2.11644 c 24.476,-31.16561 -32.33038,-7.05901 0,0 z m 99.96142,-3.8833 c -18.6254,-17.60268 35.7944,-23.88823 11.66674,-38.12884 -18.4082,13.52855 -27.25578,-2.2893 -41.72789,-4.32189 -6.71712,-14.96377 -13.07682,-34.09248 -29.85169,-24.75978 -10.65656,-3.80743 -16.29384,17.66193 -1.7914,10.64965 -17.89798,9.14043 16.20795,3.04669 10.88641,19.64936 17.3669,9.91874 48.9657,10.08703 45.13712,37.38195 l 5.68071,-0.47045 z m -6.26432,-5.30613 c 0.87309,-3.31895 2.3754,2.70049 0,0 z m 11.13084,-18.97709 c 0.74897,-8.53519 5.1821,8.29725 0,0 z m 0.90421,-4.45196 c 4.14569,-5.56475 3.569,5.22954 0,0 z m -38.46901,-5.85552 c -3.43975,-10.69197 5.76178,7.95147 0,0 z m 36.61113,2.23859 c 0.78326,-2.21786 1.6575,1.46545 0,0 z m -55.60031,-17.05627 c -3.71296,-5.00899 5.29896,1.07102 0,0 z m 0.50912,-7.19104 c 0.91216,-2.00018 1.01045,2.20933 0,0 z m -13.8784,-5.94412 c -0.10919,-3.13791 3.05139,2.36929 0,0 z m 54.29635,60.31106 c -1.76008,-19.86434 -19.95001,8.17572 0,0 z m -16.68437,-7.9187 c -5.82009,-1.97898 3.63674,3.89008 0,0 z m -0.12307,-6.26684 c -1.65748,-1.46547 -0.78327,2.21785 0,0 z m 12.94293,-0.5601 c 2.55637,-9.89294 -5.49235,2.68726 0,0 z m -42.20797,-7.59792 c -7.1803,-8.55595 1.76681,8.53632 0,0 z m -45.76821,-8.74441 c 13.92415,-9.94924 -18.77448,5.90855 0,0 z m 96.4458,-1.49985 c -1.50227,-3.38805 -1.95268,3.27933 0,0 z m -62.49367,-5.32495 c -11.5944,-15.03544 -30.40144,-2.59662 -5.15083,1.12778 l 2.85725,0.5588 2.29358,-1.68658 z m -28.04916,0.66083 c 6.22488,-6.81487 -7.08175,-0.38869 0,0 z m 92.90536,-1.05273 c -2.66242,-2.74101 -1.78835,3.99829 0,0 z m 13.10385,-0.81515 c -1.03472,-6.00806 -3.39726,4.84665 0,0 z m -31.04917,0.0371 c -1.77821,-4.93464 -1.69942,4.69929 0,0 z m -122.73699,-2.28108 c -2.96778,-22.16329 -26.27588,1.38244 0,0 z m 128.03247,-2.4573 c 9.45359,-3.04769 -0.28056,-8.58548 0,0 z m 8.1097,-0.55229 c 4.4052,-8.16936 -6.37551,-2.68409 0,0 z m 24.25747,-4.69303 c -1.54105,0.92696 1.89695,1.10952 0,0 z m 1.95902,-4.47748 c 2.08587,-14.55614 -5.1115,2.4845 0,0 z m -159.84512,-0.84573 c -4.88978,-7.97344 -7.38174,6.49715 0,0 z m -8.23516,-3.99172 c 9.04473,-11.02439 -3.67964,-6.54877 -2.6806,0.9161 l 2.6806,-0.9161 z m -10.87255,0.30977 c 5.35426,-20.64927 -18.085639,-7.27221 0,0 z m 76.95277,-1.92175 c -8.77217,-8.79513 -7.44458,2.35048 0,0 z m -9.61909,-0.96397 c -2.79955,-5.58378 -3.03466,4.61422 0,0 z m 20.82217,-1.88671 c -10.27386,-17.61629 -20.76238,9.0611 0,0 z M 155.123,219.69487 c -1.98149,-7.34903 -10.82189,-2.36293 0,0 z m 19.30831,-0.82299 c -1.01043,-2.20936 -0.91218,2.00018 0,0 z m -54.44263,-5.7786 c -3.04426,1.81259 3.13814,3.2334 0,0 z m 99.04026,1.75344 c -1.86501,-1.56348 -1.3594,2.92318 0,0 z m -51.79226,-2.32366 c 14.30585,-19.88775 -26.36792,2.5877 0,0 z m -0.91871,-5.7114 c -0.0434,-8.83188 5.50366,4.33222 0,0 z m 62.03858,5.93 c 7.94911,-8.07309 30.98121,-17.77774 5.86488,-16.13629 -12.74821,-4.14431 -44.38317,11.80431 -14.85282,10.93593 3.50933,0.24246 7.50214,1.65329 8.98794,5.20036 z m -4.12051,-6.62722 c 0.80673,-8.36064 5.44654,4.04994 0,0 z m -3.45818,-3.23217 c 1.26166,-2.27449 1.26166,2.27449 0,0 z m 11.98558,7.56965 c -3.68529,-2.19409 0.39194,4.71593 0,0 z m 4.77497,0.92198 c 2.46125,-5.73692 -7.39342,5.32424 0,0 z m -121.11317,-0.91679 c -1.48739,-5.00524 -3.35205,2.13044 0,0 z m 19.04197,-1.31386 c 9.49953,-17.9719 -13.94261,0.44226 0,0 z m 45.33855,1.3135 c 1.11281,-8.99108 -7.63057,0.1911 0,0 z m -29.0281,-3.11043 c 0.25755,-9.25759 -6.26896,2.99899 0,0 z m -27.42152,-1.98527 c -1.54106,0.92697 1.89697,1.10953 0,0 z m 123.2386,-2.94906 c -1.26164,-2.27445 -1.26164,2.27445 0,0 z m -100.85477,-3.79002 c -1.99966,-2.80261 -0.54562,3.69692 0,0 z m -2.54925,-2.15939 c 16.49532,-30.83345 -17.40412,-8.72707 0,0 z m 35.50574,-11.25925 c -13.46089,-15.82113 5.14218,12.55058 0,0 z m -27.53033,-2.54369 c 15.47052,-15.34746 25.09713,-57.36121 52.0756,-36.54759 1.64777,-17.66033 4.71572,-35.11548 16.81752,-45.15678 -4.16467,-14.867702 -18.34475,-28.456832 -7.72083,-41.714496 -15.73354,-23.936556 -41.57519,5.574407 -59.47996,-13.605434 -19.34641,-1.669888 -37.29131,16.85914 -51.2628,21.214738 20.71115,9.362643 -30.654636,22.099586 -3.082267,23.994194 17.789197,4.795591 54.118447,0.242472 35.299787,28.875998 11.74461,16.74115 -2.70929,34.03675 -0.86362,50.94923 4.75562,5.65506 11.71844,8.80473 18.21657,11.99014 z m 1.56955,-18.06693 c -1.32681,-7.82462 4.30244,3.08338 0,0 z m -13.94702,-1.1277 c -3.56482,-20.17196 18.01621,-3.32624 0,0 z m 29.4751,-14.49466 c -3.61764,-10.33644 7.97556,2.03367 0,0 z m -16.26894,-15.50374 c -2.77299,-1.97044 2.88128,-0.83727 0,0 z M 138.64709,121.0513 c -4.80423,-11.03571 8.81012,-1.77597 0,0 z m 72.47736,-15.72099 c -4.63044,-12.592123 11.51247,-9.708926 0,0 z M 143.46347,94.424166 c -2.9219,-11.334935 7.68752,-1.937062 0,0 z M 131.9906,90.615921 c -25.42769,-6.567703 14.41936,-16.812026 0,0 z m 72.31821,-8.016444 c -8.09961,-7.496529 9.35928,4.649736 0,0 z m -52.23199,-5.542214 c 0.78188,-4.194521 2.50114,2.832569 0,0 z m 53.43848,-8.037156 c -2.01003,-9.617744 4.1259,2.343194 0,0 z m -42.7186,-2.01698 1.44073,-0.56686 -1.44073,0.56686 z m 8.42824,-6.124861 c -19.01233,1.342326 0.38511,-11.600375 0,0 z m -11.00169,-7.708221 c -7.93476,-8.190273 7.67579,0.885957 0,0 z m -27.57745,125.221905 -1.23687,0.51419 1.23687,-0.51419 z m 38.68878,-1.20047 c -4.27812,-0.36726 3.48447,4.31589 0,0 z m 4.35359,-3.12296 -0.008,1.37701 0.008,-1.37701 z m -51.47276,-21.26419 c 24.37249,-4.91958 -14.3198,-12.88995 -2.59393,-0.77754 l 1.57828,0.4731 1.01565,0.30444 z m 3.60183,-13.91177 c -0.28327,-2.87112 -2.09293,3.26378 0,0 z m -26.54936,-2.22606 c -1.555908,-6.19944 -5.619658,4.85355 0,0 z m 30.28779,-2.42209 c -0.66145,-11.14701 -11.81858,2.1515 0,0 z m 195.03225,-0.96395 c -1.60452,-2.63976 -1.53354,2.37931 0,0 z m -0.84551,-2.12835 c 8.20805,-7.62527 -7.99687,2.08274 0,0 z m 3.36624,-4.86475 c -3.30522,-6.67978 -9.3029,4.41301 0,0 z m -112.41161,-1.47198 c -1.01045,-2.20936 -0.9122,2.00019 0,0 z m 21.57009,-3.74733 c 10.1036,-24.379037 -21.15428,9.47506 0,0 z m 95.98014,0.22021 c 7.6939,-11.51708 -16.01328,2.70843 0,0 z m -7.36786,-3.76226 c 25.19287,1.12463 32.504,-25.809831 17.03397,-40.238863 -2.86032,-17.246022 -31.66948,-29.674673 -43.67034,-22.973455 16.38993,-0.551929 10.26992,13.215435 1.53502,16.525552 15.13605,7.693109 -5.31486,6.181494 9.80525,15.943026 5.89442,9.860727 6.13802,22.83941 15.2961,30.74374 z m -3.20636,-10.58136 c 1.60454,-2.63979 1.53356,2.37932 0,0 z m 17.60658,-0.76755 c -2.46348,-5.96401 7.3129,0.97857 0,0 z m -17.89807,-1.99656 c 0.64598,-4.459821 2.39738,2.31143 0,0 z m -2.3319,-9.502421 c 2.21025,-3.489361 1.39071,4.151644 0,0 z m 5.6225,-11.450523 c -5.23403,-8.580444 12.6257,8.751068 0,0 z m -0.0842,-4.029611 c -9.86645,-2.923516 1.26439,-7.71485 0,0 z m -3.78934,-0.470282 c 1.83106,-2.620136 1.83107,2.62014 0,0 z m 8.16166,-8.465085 c 0.91217,-2.000178 1.01045,2.209335 0,0 z m -5.24678,-0.744613 c 2.07166,-2.777611 1.40395,3.435279 0,0 z m -3.09336,-1.907536 1.24283,-0.896684 -1.24283,0.896684 z m -2.73329,-6.730382 c -18.3784,-5.93595 8.64518,-0.8464 0,0 z M 134.49749,106.91689 c -1.99965,-2.80264 -0.54565,3.69691 0,0 z m 1.72826,-5.39342 c 2.92812,-18.710265 -9.42852,12.08327 0,0 z m 180.85239,-1.95432 -1.07377,0.07371 1.07377,-0.07371 z m 38.16806,-8.665768 c -1.03684,-7.811975 -5.09481,4.39062 0,0 z m -47.71018,-4.76874 c -2.54913,-11.458884 -14.69083,1.029212 0,0 z m 43.24539,-2.704125 c -1.98315,-3.592281 -3.51018,1.517955 0,0 z M 86.693492,75.148476 c -5.202624,-3.301275 0.275821,7.908517 0,0 z M 297.89802,68.263907 c 27.87528,-21.739508 -22.32645,-1.991593 0,0 z m -2.39321,-2.468983 c 2.95502,-7.032593 1.5622,3.504445 0,0 z M 91.940272,65.296885 c -1.65749,-1.465463 -0.78327,2.217861 0,0 z M 273.68289,63.561082 c -1.83548,-2.538373 -1.39765,2.83707 0,0 z m 5.9755,-3.61762 c -4.95071,-9.73522 -2.78348,5.857461 0,0 z m -8.53381,-4.494753 c -1.56222,-4.618628 -1.92266,3.133882 0,0 z m 1.40464,-2.028413 c -2.38769,-1.855232 -1.0346,3.328592 0,0 z m -4.82182,-1.968988 c -1.01045,-2.209335 -0.91218,2.000178 0,0 z m 18.65521,-0.940565 c -2.79461,-3.850556 -6.15811,3.934816 0,0 z m -22.78373,-0.755739 c -1.24244,-5.365798 -10.25743,5.739756 0,0 z m 7.23371,-2.304328 c -3.83703,-3.427202 -1.27273,3.566281 0,0 z M 84.603128,43.338935 c 11.496075,-14.045007 -11.413136,-2.81139 0,0 z M 185.79933,40.859207 c -13.4932,-9.158819 -18.59621,0.324727 0,0 z M 104.30907,36.31605 c -3.43668,-1.776679 1.1074,3.702343 0,0 z m 0.45666,-3.424536 c -4.09907,-10.246888 -6.670337,0.713341 0,0 z M 81.857541,20.790383 c 13.696642,-17.5266858 -16.725936,4.593822 0,0 z"
       id="path3165"
       inkscape:connector-curvature="0" />
    <path
       style="fill:#a4ae94"
       d="m -3.0847402,280.94916 c 0,-94.0565 0,-188.112994 0,-282.169491 174.8926602,0 349.7853202,0 524.6779802,0 0,188.113001 0,376.225991 0,564.338991 -174.89266,0 -349.78532,0 -524.6779802,0 0,-94.0565 0,-188.113 0,-282.1695 z M 265.37549,429.08815 c -2.58736,-2.54502 1.6257,4.2678 0,0 z m 31.26805,-7.32365 c 3.88622,-10.28815 -6.30624,7.62302 0,0 z m -9.98944,-4.19827 c -1.43312,-5.81206 -1.51126,5.83433 0,0 z m -4.6638,-5.17311 c -1.89248,-3.4117 -1.89248,3.4117 0,0 z m 13.87481,-5.03202 c -5.51289,-7.17623 -9.74484,3.46821 0,0 z m -54.34448,-5.15258 c 1.32077,-5.75554 -4.97568,8.02859 0,0 z m 61.45678,0.60723 c -0.81071,-12.06776 -15.56465,-11.93493 0,0 z M 267.87197,389.1868 c -2.66242,-2.74101 -1.78837,3.99828 0,0 z m 36.2714,-1.77416 c -2.44905,-1.88576 0.0699,3.47133 0,0 z m -40.33599,-2.57798 c 0.48585,-8.94936 -9.25191,12.92582 0,0 z m 4.25863,-3.8329 c 27.55503,-1.12042 12.73086,-23.02439 -5.08517,-25.22064 -22.99364,-24.66812 5.356,-56.7712 12.12452,-80.89787 17.22885,-5.91538 31.43919,-34.27125 9.98275,-44.13719 -7.1825,25.28776 -32.78152,-2.4166 -47.51004,0.85308 -12.48911,-14.00152 32.4293,-38.82786 -1.25818,-36.57762 -19.31518,-7.63718 -61.61384,18.68706 -24.00465,20.02947 -8.12629,-3.56375 -49.34881,0.81791 -29.9916,12.81198 20.96815,-4.23364 11.7402,18.38488 -2.27172,5.46202 -17.512,-9.59108 -17.59785,28.9606 -18.109,21.82272 19.64827,-15.42993 49.37667,-12.91735 64.28122,10.90271 13.75716,-31.2628 20.28604,40.98597 -7.21654,18.18211 -14.87749,-2.06195 1.91441,20.42804 2.39799,15.42454 31.50431,-2.72841 -1.71781,23.93564 2.93942,22.88502 4.35481,11.02329 -20.25996,38.31897 8.4167,35.41591 13.62523,4.7687 20.87323,19.8504 35.3043,23.04376 z m 5.3254,-6.74123 c -4.84142,-7.48727 13.88811,5.5876 0,0 z m -12.60466,-12.07007 c -9.40559,-10.89912 8.10028,4.32425 0,0 z m -19.64873,-12.22978 c -4.88077,-23.38567 15.36135,7.00903 0,0 z m 2.43284,-3.03962 c -3.00667,1.26702 4.63006,3.53676 0,0 z m -8.53113,-2.12325 c -2.98661,-6.52189 7.47099,0.15252 0,0 z m -6.68202,-7.92971 c 2.21482,-6.09797 5.33518,4.5007 0,0 z m 16.1077,-3.77157 c -5.30949,-7.36059 7.10827,-0.0388 0,0 z m 2.10912,-8.0069 c -1.94504,-15.44027 14.77926,4.47518 0,0 z m 5.17391,-17.74586 c 0.84799,-2.3222 1.43217,1.78577 0,0 z m 1.67605,-5.46704 c 1.72425,-17.77625 4.9648,6.88843 0,0 z m -1.16595,-6.34291 c -26.14025,-19.19246 9.9824,-16.21852 0,0 z m -26.2339,-4.5066 c 1.49768,-7.52773 4.55242,3.7798 0,0 z m 33.30283,-13.4415 c -9.14286,-15.19178 7.13088,3.69978 0,0 z m -14.23132,-3.69767 c 3.98127,-12.03021 13.53919,4.13169 0,0 z m -0.39563,-4.19476 c -14.49983,-13.64184 14.06139,-10.55384 0,0 z m 27.96217,-0.0309 c 1.83106,-2.62015 1.83105,2.62014 0,0 z m 16.32331,-18.296 c -2.0813,-11.94259 6.77632,-1.85842 0,0 z m -27.91966,-8.06827 c -2.02643,-6.02456 6.83028,5.6327 0,0 z m 30.83454,-0.44184 c 1.64511,-4.96021 1.64505,4.96023 0,0 z m -49.22102,0.52305 c 6.19704,-8.5808 10.40353,2.44705 0,0 z m -6.04506,-35.41801 c -2.94751,-3.43219 3.5557,1.14193 0,0 z m 60.38864,167.27869 c -7.72694,-12.20403 1.60687,7.48341 0,0 z m 7.64023,-5.6978 c -2.70953,-5.34365 -7.35644,4.12533 0,0 z m -16.9667,-0.70862 c -2.44065,-5.81936 -3.98684,5.85812 0,0 z m -55.86308,-1.79181 c -3.50912,-12.16175 -17.3939,-8.35758 0,0 z m 77.55626,-0.64229 c -0.39,-13.1198 -4.7037,5.73407 0,0 z m -6.39199,-11.99394 c 8.17791,-15.63189 -24.50854,-1.14902 -2.89093,-0.0351 -1.24928,5.35424 8.08944,8.22105 2.89093,0.0351 z m -19.00483,1.46393 c 9.11414,-8.59074 -3.27286,-15.37619 0,0 z m 25.66584,-2.21857 c -3.58803,-11.05281 -0.83472,10.74824 0,0 z m -34.08161,-8.66644 c -1.07743,-8.71625 -5.20155,4.48462 0,0 z m -89.41442,-49.80926 c 26.17616,-4.7323 -19.7483,-1.76061 -7.21199,-18.27161 -29.6243,-11.41402 -15.27782,23.86291 7.21199,18.27161 z m 17.88816,-8.07809 c 12.04779,-6.19508 -5.80357,-4.53524 0,0 z m -10.05199,-0.52111 c -0.86947,-7.91778 -14.02319,10.69665 0,0 z m 87.98206,-4.09843 c -3.33651,-1.53419 1.39193,4.83432 0,0 z m -5.82083,-9.05294 c -1.83109,-2.62017 -1.83106,2.62017 0,0 z m -85.11443,-0.96832 c -1.85553,-2.15324 -0.65674,2.94571 0,0 z m 23.75083,-11.54506 c 0.15888,-12.93274 3.49078,4.31205 -1.90319,3.03361 l 1.90319,-3.03361 z m -38.01978,0.32148 c -2.83009,-4.42395 0.20615,3.91677 0,0 z m 27.67739,-1.21115 c -1.43012,-6.02305 -0.88209,5.40132 0,0 z m -11.07654,-1.38996 c -2.35355,-8.36304 -10.68261,0.44804 0,0 z M 128.6807,242.50357 c -3.48006,-16.69278 -7.29811,-35.49079 12.0022,-36.03399 3.62322,-11.8186 9.40228,-26.64162 22.17676,-16.97889 -0.57187,-29.87669 16.44208,18.03189 26.66381,2.43371 -9.96841,-14.09477 -36.15411,-29.23617 -10.53439,-42.83782 11.16805,-16.87076 29.18365,15.65648 25.91114,-8.13578 10.86919,-16.25461 5.37217,-27.41919 15.723,-42.517442 -10.72423,-20.481871 2.8542,-58.091907 -32.76731,-50.793633 -13.21431,-3.095645 15.27527,-5.744887 -7.24653,-8.959288 -22.4113,-10.565785 8.76124,25.365493 -12.81625,11.140619 -16.09039,-18.41838 -34.18232,-14.207811 -42.58148,6.60427 -7.45367,6.184425 -44.321909,7.410105 -20.71785,18.116763 -23.600268,-11.035314 -27.123667,22.968732 -2.79601,17.971791 11.53301,1.185048 35.62942,15.30989 36.25871,13.6911 -15.31086,14.66571 7.82211,24.63679 -13.09348,26.33076 -28.262693,25.00886 35.56389,51.61376 0.53639,69.7392 -11.51827,4.44645 -34.615724,20.37664 -11.00914,26.44809 0.57017,6.73158 5.26112,19.58602 14.29043,13.78054 z m -7.7374,-9.37712 c -9.33263,-14.89519 13.50154,6.82135 0,0 z m 1.9407,-5.51516 c -0.54813,-2.31208 1.27904,0.88357 0,0 z m -8.06194,-2.49325 c -4.82147,-3.31093 4.49934,-1.20802 0,0 z m -0.0895,-3.81003 c -3.64847,-9.22113 6.93439,0.41333 0,0 z m -4.31086,-6.49537 c 4.29731,-6.46326 9.16123,1.08975 0,0 z m 34.32625,-23.15403 c -1.47307,-2.44232 2.65889,0.47244 0,0 z m -20.94513,-25.37783 c -3.27611,-13.53711 15.38524,-4.6039 0,0 z m -2.34159,-9.72134 c 2.13965,-3.6949 2.07974,3.45879 0,0 z m 12.19591,-2.9702 c -15.56676,-1.94127 14.78025,-3.45042 0,0 z m 1.61959,-9.7615 c -18.39366,-4.63003 16.81771,-6.87949 0,0 z m 77.6129,-46.312365 c -0.42843,-3.03297 2.65829,1.917 0,0 z m -67.89855,-3.946028 c 0.65675,-2.945723 1.85552,2.153262 0,0 z m -13.04384,-5.553575 c -27.07061,-23.015142 19.44749,-0.417354 0,0 z m 74.26143,-9.894678 c -7.847,-11.204379 10.38001,2.88266 0,0 z m -1.75409,-5.479318 c 0.78327,-2.217849 1.65748,1.465458 0,0 z M 139.54994,47.375525 c 4.37395,-15.482509 16.83149,8.441756 0,0 z M 163.06329,239.5643 c -1.83108,-2.62015 -1.83106,2.62014 0,0 z m 0.85461,-13.62049 c -1.43089,-12.83602 -10.58767,6.44165 0,0 z m 4.39217,-2.99076 c 0.61843,-10.15404 23.28456,-25.95651 -0.91733,-23.52251 -26.63728,4.38967 -15.4421,14.63945 0.91733,23.52251 z m 5.23224,-20.09269 c -0.54954,-5.68013 4.3692,4.28888 0,0 z m -16.31262,18.4805 c -5.57485,-9.23162 -21.8799,-13.2253 0,0 z m 118.94254,-13.03897 c -3.63748,-4.63083 0.26829,3.145 0,0 z m -84.69912,-0.56739 c -1.97164,-6.04457 -5.88898,4.06059 0,0 z m -85.55035,-9.43748 c 0.8909,-6.36765 -4.40677,1.88845 0,0 z m 90.47944,0.0315 -1.07375,0.0737 1.07375,-0.0737 z m -73.10816,-6.66033 c -2.66242,-2.741 -1.78835,3.99823 0,0 z m -27.707443,-42.1093 c 9.403243,-6.47076 -12.05709,4.63035 0,0 z m 254.839953,0.45296 c -1.88666,-6.65913 -3.54377,2.99189 0,0 z m -7.22382,-2.6269 c -3.61915,-3.72553 -5.33806,2.76242 0,0 z M 336.79,146.21323 c -4.24253,-4.41933 0.27812,7.29235 0,0 z m 6.18197,-1.9889 c -1.54105,0.92696 1.89695,1.10952 0,0 z m 7.80944,-0.27407 c -0.76611,-9.63084 -4.87884,1.24943 0,0 z m -8.48407,-1.56731 c -1.33756,-6.54478 -5.89584,6.28606 0,0 z m -10.26468,-3.90078 c 35.98524,-11.50701 30.50623,-67.980712 -2.84092,-79.642136 -27.61146,-8.600642 -43.55743,-27.130873 -71.20369,-8.778266 -17.6194,32.065517 48.55016,4.187395 34.58514,30.194941 12.81827,13.386857 35.79419,25.003271 20.61908,46.262971 -0.32324,10.05477 10.75532,13.15783 18.84039,11.96249 z m 2.54203,-9.99859 c -4.0223,-3.74702 3.83781,0.1626 0,0 z m 5.84035,0.0214 c 1.60614,-3.15919 2.07269,2.61247 0,0 z m -24.98438,-1.10317 c 1.6554,-5.51753 5.00802,4.90373 0,0 z m 15.82694,0.24293 c -1.8609,-5.04797 4.51125,2.05152 0,0 z m -12.97708,-10.47145 c 2.14766,-3.20136 2.14768,3.20137 0,0 z m 11.82427,0.14239 c -0.6944,-5.79164 5.25143,4.0668 0,0 z m -3.22538,-1.90595 c 1.26164,-2.27447 1.26166,2.27449 0,0 z m 8.74463,-1.38309 c 0.65675,-2.94571 1.85553,2.15324 0,0 z m -15.95847,-1.21885 c 0.22043,-5.12039 3.83766,5.12627 0,0 z m -4.05702,-4.76582 c -5.75058,-7.68529 6.34778,0.83601 0,0 z m 36.4554,-13.889012 c -4.15676,-3.966874 2.90542,0.435091 0,0 z m -42.98926,-4.640056 c 0.63912,-2.857625 2.2151,3.368686 0,0 z m 0.31546,-3.26069 c 1.61655,-3.550414 1.61655,3.550411 0,0 z m -4.9371,-11.424633 c -3.23398,-4.768798 2.84244,0.677525 0,0 z m -37.96949,-9.036596 c -3.2904,-6.437142 8.86618,6.906811 0,0 z m 16.78928,-7.379494 c -18.14724,-8.772613 12.66215,-4.720349 0,0 z m 14.27932,-0.20668 c -0.41068,-3.260423 2.85088,1.891042 0,0 z m -34.36383,-0.480737 c -1.42179,-6.363893 6.69314,1.465047 0,0 z m 47.36777,-4.861916 c 0.91217,-2.000178 1.01045,2.209335 0,0 z m -30.89771,-2.336655 c 2.43025,-3.257958 1.35971,3.996849 0,0 z m 0.58298,-3.777018 c 0.91217,-2.000178 1.01044,2.209332 0,0 z M 102.43383,137.02135 c -4.65238,-12.03916 -11.479399,7.92882 0,0 z m 239.01997,-1.41723 c -1.65748,-1.46547 -0.78327,2.21785 0,0 z m -25.94241,-0.91281 c -2.24874,-3.00607 -2.08411,2.6796 0,0 z m 31.18919,-1.41085 c -1.26164,-2.27445 -1.26164,2.27445 0,0 z m -241.03641,-9.84464 c -2.17159,-3.27178 -0.23068,2.79514 0,0 z m 132.12646,-1.63585 c 16.9889,-19.57013 -34.84236,0.42675 0,0 z M 46.759668,118.23142 c -10.161066,-8.07722 2.61134,5.4331 0,0 z m 267.877262,-3.79001 c -1.65749,-1.46548 -0.7833,2.21787 0,0 z m -3.49786,-6.5562 c -1.26165,-2.27449 -1.26166,2.27451 0,0 z m 0.58298,-4.23255 c -1.26166,-2.27449 -1.26164,2.27447 0,0 z M 18.550558,101.03891 c 4.989471,-13.057821 -11.3665427,-7.952165 0,0 z m 292.588512,-1.367102 -1.74171,-0.774306 1.74171,0.774306 z m -2.44366,-3.422537 c -7.44826,-7.583967 -5.86652,3.338706 0,0 z m -8.0499,-6.489602 c -14.30712,-12.578333 -17.18661,1.549334 0,0 z M 266.83293,78.48617 c -2.36929,-7.391821 -7.82231,4.77916 0,0 z M 80.028169,73.733909 c 10.053753,-8.567757 -7.934514,3.040451 0,0 z M 295.7379,73.084303 c -1.80167,-5.53871 -5.21004,3.745746 0,0 z m -12.7274,-1.058136 c -2.14767,-3.201363 -2.14767,3.201363 0,0 z m -26.08815,-0.638169 c -2.24436,-1.703514 -2.45681,3.307724 0,0 z m 0.57405,-3.594373 c -4.15706,-3.933657 0.60335,5.796856 0,0 z m -5.09211,-6.777843 -1.43368,0.01528 1.43368,-0.01528 z M 90.197595,55.489365 c 3.877696,-14.592001 -14.711627,-24.435491 -4.264897,-5.209324 -0.156667,-0.670039 5.668238,12.731921 4.264897,5.209324 z m 158.563095,3.01618 c -1.26165,-2.274467 -1.26165,2.274467 0,0 z M 117.5912,53.370902 c -1.56706,-6.226088 -10.63284,0.37303 0,0 z m 99.10584,-4.506148 c -2.22801,-4.442041 -3.83985,6.684891 0,0 z m 45.76358,-4.937966 c -3.80187,-5.189937 -6.22462,5.141582 0,0 z M 106.1678,40.707087 c 17.67766,-9.878306 -24.018642,-19.371064 -0.92253,-1.00128 l 0.92253,1.00128 z m -27.408722,-2.81012 c 4.905071,-14.030116 -12.250056,-7.289045 0,0 z m 3.454678,-14.733012 c 19.229914,-24.5177574 -20.457773,-2.894069 0,0 z m 5.062711,-2.806801 c -2.167308,-1.292995 -0.226485,2.791965 0,0 z M 62.791495,8.1853188 c 22.028076,4.2599702 -6.269467,-9.05931693 0,0 z"
       id="path3163"
       inkscape:connector-curvature="0" />
    <path
       style="fill:#94ab6e"
       d="m -3.0847402,280.94916 c 0,-94.0565 0,-188.112994 0,-282.169491 174.8926602,0 349.7853202,0 524.6779802,0 0,188.113001 0,376.225991 0,564.338991 -174.89266,0 -349.78532,0 -524.6779802,0 0,-94.0565 0,-188.113 0,-282.1695 z M 265.43212,428.4409 c -5.62213,-9.30823 4.12613,10.87792 0,0 z m 27.11732,-2.77993 c -2.85673,0.83858 2.78091,1.93648 0,0 z m 2.53169,-1.56778 c 10.12875,-4.28777 -2.84813,-8.11949 0,0 z m -7.7385,-5.86923 c -0.74999,-11.37651 -5.43285,7.50292 0,0 z m -4.78488,-5.72431 c -1.34586,-6.59414 -5.17203,4.9749 0,0 z m 13.84252,-5.39641 c -5.81954,-9.23202 -12.6683,4.94084 0,0 z m -55.33689,-3.9501 c 9.47785,-4.76936 3.01131,-6.19944 -1.19935,-0.33393 l 1.19935,0.33393 z m 62.27598,0.32609 c -2.96653,-17.3926 -19.02462,-12.2518 0,0 z m -35.4702,-13.68633 c 3.46595,-6.76753 -9.20018,4.66251 0,0 z m 36.45159,-2.47046 c -1.60652,-7.4902 -3.06536,10.31047 0,0 z m -41.56865,-0.2426 c 9.15668,-9.19508 -10.62748,0.85764 0,0 z m 36.42283,-6.15269 c -1.18821,-11.23495 -13.02074,-11.00376 0,0 z m -30.48242,-1.09702 c 21.14286,1.574 22.08603,-14.21367 17.59859,-27.90873 11.2192,-1.83514 25.15523,25.33921 18.63742,1.19713 -3.32335,-22.47185 -37.28898,7.01553 -32.97961,4.53597 -26.07102,-16.62239 -13.33015,-60.39976 3.48561,-72.84283 -7.79128,-23.86302 31.48678,-15.8788 18.88188,-43.35953 -5.81581,-32.7231 -14.91704,15.32936 -32.77902,-3.18897 -15.61008,-3.87716 -36.29917,-10.4807 -17.42506,-27.79942 23.33143,-29.06533 -41.76651,-5.52566 -54.90941,-19.1618 -23.17205,-11.01653 -26.12405,-47.63124 6.60728,-43.57987 10.67978,20.33157 14.50356,-15.36675 16.32338,-16.66047 -3.0315,-25.85253 40.67655,0.27054 29.4235,-16.28979 -19.62981,-1.62361 -24.20639,-3.71521 -15.64648,-22.636622 21.18897,-23.959958 35.53526,19.599112 55.95837,4.652038 25.74482,9.806864 8.65882,46.485664 40.73968,43.667944 24.71699,23.08876 41.04722,-3.7724 37.37718,-28.80528 2.30771,-37.88379 -35.71322,-60.368028 -67.29204,-69.983525 -27.62713,-8.670508 -57.26239,-5.465951 -84.46669,2.329363 -14.53352,1.470814 -41.35581,-13.290397 -33.96169,8.530831 -16.68458,-13.675978 -40.24139,-25.051107 -47.08343,2.947521 -7.22947,7.071188 -45.640857,7.570023 -22.26581,19.545638 -31.809107,-18.156359 -19.04191,35.242042 7.27464,18.298058 11.18758,7.488314 33.95042,10.073384 20.20012,21.383124 7.39674,19.21208 -27.50631,25.63046 -10.94681,49.04932 11.98561,12.28086 27.79601,32.62 1.37183,40.69453 -19.75749,4.20384 -27.32271,17.68889 -9.16818,30.12515 24.59183,18.76931 5.75522,-17.51432 15.60923,-24.08344 15.32008,-2.68772 32.15814,-37.96659 43.42176,-16.88168 -9.71527,1.34519 -34.22549,22.35254 -9.39898,25.21018 25.33838,-0.46988 5.07768,-39.91384 33.26612,-20.58285 18.96526,14.64952 -42.43006,16.75984 -13.27217,28.72244 22.92187,-1.04405 -3.7907,17.43708 4.94569,4.84049 -16.74936,4.02738 -29.01326,-3.19499 -25.01756,20.82211 11.65445,3.23385 31.80981,-18.37185 47.15141,0.0792 14.40553,10.4408 37.37628,0.48697 26.6558,28.21878 -3.22708,17.04424 -43.93035,-10.80419 -26.44894,10.41378 18.67979,1.34972 -8.9273,13.0689 13.09194,9.96428 20.77175,-1.96918 8.62628,15.65764 -2.10286,17.18918 12.07511,14.98559 -20.34556,27.32439 2.56773,42.01047 18.89233,1.86956 26.33916,14.44169 44.57558,19.33728 z m -44.01624,-23.07365 c -7.72214,-8.84204 7.78454,4.06196 0,0 z m 20.84831,-7.83639 c -9.38493,-8.87515 2.81027,-10.10669 0,0 z m 6.87971,-6.5559 c -6.755,-8.4489 8.83568,2.42986 0,0 z m -5.30414,-17.62248 c -0.59218,-6.58777 6.2639,3.39055 0,0 z m -23.3651,-2.23597 c -3.56918,-9.22751 5.81998,5.47226 0,0 z m 2.62191,-31.15707 c 0.17686,-4.26301 3.33295,2.15974 0,0 z m 22.575,-2.11332 c -19.39998,-12.61014 21.45967,0.0438 0.16557,0.98121 l -0.16557,-0.98121 z m -41.77335,-3.8185 c 1.56013,-3.2508 1.46693,3.06357 0,0 z m 52.16886,-7.83113 c -9.14286,-15.19178 7.13088,3.69978 0,0 z m -14.23132,-3.69767 c 3.98127,-12.03021 13.53919,4.13169 0,0 z m -0.39563,-4.19476 c -14.49983,-13.64184 14.06139,-10.55384 0,0 z m 27.96217,-0.0309 c 1.83106,-2.62015 1.83105,2.62014 0,0 z m 16.32331,-18.296 c -2.0813,-11.94259 6.77632,-1.85842 0,0 z m -27.91966,-8.06827 c -2.02643,-6.02456 6.83028,5.6327 0,0 z m 30.83454,-0.44184 c 1.64511,-4.96021 1.64505,4.96023 0,0 z m -49.22102,0.52305 c 6.19704,-8.5808 10.40353,2.44705 0,0 z m -45.10413,-5.23487 c -4.3217,-6.73668 10.00417,5.98851 0,0 z m -75.99435,-5.28168 -0.94751,-0.19886 0.94751,0.19886 z m 66.9317,-5.44528 c 0.97644,-7.64131 8.57895,8.65306 0,0 z m -74.19821,-3.11485 c -1.23194,-6.33407 4.20106,3.65258 0,0 z m -13.36635,-2.17517 c -5.228548,-4.37072 5.11403,-1.6835 0,0 z m 13.7278,-1.54452 c -1.74506,-15.13152 5.44355,4.73158 0,0 z m 91.97282,-2.49368 c -15.00164,-12.67304 22.18009,0.38056 0,0 z m -16.62323,-2.82084 c -3.13131,-4.87658 6.29506,2.31123 0,0 z m 5.53826,-0.004 c -0.58693,-7.46334 8.03355,2.46234 0,0 z m -84.96868,-1.31946 c 8.96609,-6.36715 5.27639,3.4699 0,0 z m 135.8333,-8.71107 c 1.26166,-2.27451 1.26165,2.27449 0,0 z m -3.49786,-0.89025 c 2.18805,-4.89851 2.90027,4.71813 0,0 z m -96.4408,-17.7195 c -7.72491,-9.54469 7.62418,4.06715 0,0 z m 19.16223,-9.80875 c -0.14439,-4.17288 4.86959,4.69722 0,0 z m -41.84957,-10.5344 c -3.47085,-12.79545 14.27539,-4.05218 0,0 z m -2.34159,-9.72134 c 2.13965,-3.6949 2.07974,3.45879 0,0 z m 12.19591,-2.9702 c -16.02433,-1.81946 14.24972,-3.63772 0,0 z m 206.95362,-7.09989 c -1.19958,-3.42179 3.44624,1.16815 0,0 z M 135.2767,143.82774 c -18.12237,-2.34768 13.55728,-8.12171 0,0 z m 76.75061,-22.54524 c -8.50196,-9.62392 6.5856,1.62593 0,0 z m 85.12035,-5.81727 c 0.2265,-2.79195 2.16728,1.29302 0,0 z m 10.88221,-0.83931 0.84618,-0.82903 -0.84618,0.82903 z m -95.99664,-3.18584 c 1.3594,-2.92318 1.86501,1.56348 0,0 z m 75.49533,-13.430805 c 0.91217,-2.000184 1.01047,2.209345 0,0 z m -22.21544,-0.743888 c 1.90247,-4.317973 2.65188,4.257043 0,0 z M 132.34006,88.486054 c -19.73012,-10.916385 11.32256,-7.244474 0,-10e-6 l 0,10e-6 z m 92.9421,-1.006846 c -1.38636,-5.703604 8.23011,2.755683 0,0 z m 38.05292,-1.226996 c 1.83107,-2.620152 1.83107,2.620153 0,0 z m -9.65049,-1.922105 c 0.28964,-4.21966 3.16628,2.932742 0,0 z m -29.11738,-1.369872 c 2.00726,-3.047854 1.8187,2.549931 0,0 z m -6.63135,-2.292627 c 1.11756,-2.476537 1.36666,1.521344 0,0 z m 44.52476,-0.05879 c 0.91217,-2.000178 1.01045,2.209335 0,0 z M 251.67557,78.53174 c 1.3793,-3.419652 2.04549,2.74846 0,0 z M 184.48181,50.164681 c -17.24893,-13.698561 21.27765,-1.516236 0.87187,-0.0021 l -0.87187,0.0021 z m -44.94248,-2.79772 c 4.42588,-15.890679 18.02298,7.018502 0,0 z m 80.07258,-2.029325 c 2.24873,-3.006073 2.08411,2.679606 0,0 z m 8.48991,-3.339963 c 6.24943,-8.584879 5.89095,2.960914 0,0 z m 8.86407,336.299967 c -1.05977,-3.57192 -2.6724,5.11285 0,0 z m 73.59665,-6.59368 c 1.53448,-5.73309 -4.09064,2.9811 0,0 z m -3.85756,-0.85021 c -6.33708,-11.59725 -16.70944,-1.33968 0,0 z m 6.76599,-13.3625 c -1.3855,-14.24769 -15.54637,0.002 0,0 z m -38.20979,-0.79411 c -2.24471,-3.81732 -2.40774,4.66304 0,0 z m 1.31931,-9.12579 c -1.95643,-16.12065 -17.94745,4.32532 0,0 z m 1.08902,-15.71173 c -3.3638,0.48416 2.8874,2.72652 0,0 z m -91.7083,-36.31079 c 28.64719,-6.50856 -19.71591,-1.3716 -5.37977,-13.46538 -3.8666,-21.71535 -35.02818,4.30458 -8.78986,10.65544 4.50843,1.77703 9.34279,2.61599 14.16963,2.80994 z m 9.60296,-9.06624 c -3.9453,-9.04276 -7.59538,8.92473 0,0 z m 86.4172,-4.00501 c -3.33651,-1.53419 1.39193,4.83432 0,0 z m -90.7425,-9.25011 c 6.12174,-8.98512 -5.45955,-6.16557 0,0 z m 84.92167,0.19717 c -1.83109,-2.62017 -1.83106,2.62017 0,0 z m -116.03067,-0.35271 c 0.57844,-4.27755 -3.43964,0.96136 0,0 z m 45.50346,-8.3203 c 4.14109,-8.40545 -5.72659,-10.0472 0,0 z m 8.95204,-1.32049 c 7.17241,-18.57067 -14.59238,1.22299 0,0 z m -36.70389,-0.16788 c 1.82357,-7.48704 -9.65918,-0.1218 0,0 z m 16.07951,-4.37032 c -2.43397,-15.97433 -16.86721,4.43123 0,0 z m -54.69039,-15.88763 -1.07375,0.0737 1.07375,-0.0737 z m 109.2662,-12.63898 c -4.48157,-1.91293 2.61359,5.13356 0,0 z m -9.68669,-0.44282 c -1.29853,-2.97928 -1.29848,2.9793 0,0 z m 20.86499,-2.05793 c -3.08943,-5.40206 -3.25533,4.93826 0,0 z m -95.92309,-1.54584 c -2.08936,-14.04789 -9.79568,8.88916 0,0 z m -6.312,-4.56742 c -9.95784,-15.44968 -20.88156,-7.78419 0,0 z m 109.61951,-11.37803 c -1.77267,-1.92704 -0.0954,2.63966 0,0 z m 9.8486,-1.62655 c -4.96501,-2.05323 3.05821,-3.42789 0,0 z M 105.82561,197.9443 c -3.34273,-5.61083 -0.14862,4.18701 0,0 z m 53.50906,-0.57805 c -1.54105,0.92696 1.89695,1.10952 0,0 z m -35.887,-5.34076 c -0.9466,-4.67386 -3.42699,5.07002 0,0 z m 40.19859,-0.15639 c 2.29512,-8.27231 -5.34569,4.68899 0,0 z m 44.59763,-0.74389 c -2.18823,-3.01362 -2.25411,2.02922 0,0 z m -13.69992,-4.41737 c -1.19109,-1.97596 -2.34634,2.07913 0,0 z M 95.586597,149.55889 c 9.203613,-6.7129 -13.868291,5.25219 0,0 z m 138.308213,-12.7314 -3.00476,0.007 3.00476,-0.007 z m -131.46098,0.27865 c -4.381186,-11.88536 -11.542384,6.80015 0,0 z m 192.38193,-0.81916 c -2.57535,-4.08986 -2.18747,3.70142 0,0 z m -66.55623,-1.36053 c -4.81838,-2.60641 -6.27235,6.15223 0,0 z m 2.74154,-0.18143 c -2.54494,-12.64074 -15.27926,6.85782 0,0 z m 31.60546,0.0641 c -2.88082,-5.15529 -3.56871,5.58829 0,0 z m -18.21695,-0.70567 c 7.20311,-3.09272 -13.44658,1.6558 0,0 z m -6.99691,-0.35272 c -1.01048,-2.20933 -0.91215,2.0002 0,0 z m 55.09119,-1.88113 c -1.26166,-2.2745 -1.26165,2.27448 0,0 z m -186.81969,-8.43379 c -2.17159,-3.27178 -0.23068,2.79514 0,0 z m -58.904502,-5.2044 c -10.161066,-8.07722 2.61134,5.4331 0,0 z m 248.639062,-0.94056 c -1.60452,-2.63977 -1.53356,2.37932 0,0 z m -35.50533,-9.74374 -1.69125,-1.63957 1.69125,1.63957 z m -241.342842,-6.5082 c 2.527346,-7.141722 -8.77665,-7.909432 0,0 z m 221.174012,-0.20794 c 11.72577,-3.563831 -9.87645,-0.58572 0,0 z m -13.69993,-1.410848 c -1.60452,-2.639769 -1.53355,2.379318 0,0 z m 23.58561,-0.437786 c -1.62023,-3.215762 -1.96661,4.022234 0,0 z M 222.81828,97.06871 c -1.01044,-2.209332 -0.91217,2.000178 0,0 z m 17.52351,-1.455557 c 0.3603,-7.995389 -8.25972,2.473719 0,0 z m 7.33982,-1.836421 c 14.2231,-10.007501 -14.36379,3.243491 0,0 z M 80.028169,73.733909 c 10.053753,-8.567757 -7.934514,3.040451 0,0 z M 90.197595,55.489365 c 3.877696,-14.592001 -14.711627,-24.435491 -4.264897,-5.209324 -0.156667,-0.670039 5.668238,12.731921 4.264897,5.209324 z M 117.5912,53.370902 c -1.56706,-6.226088 -10.63284,0.37303 0,0 z M 106.1678,40.707087 c 17.67766,-9.878306 -24.018642,-19.371064 -0.92253,-1.00128 l 0.92253,1.00128 z m -27.408722,-2.81012 c 4.905071,-14.030116 -12.250056,-7.289045 0,0 z m 3.454678,-14.733012 c 19.229914,-24.5177574 -20.457773,-2.894069 0,0 z m 5.062711,-2.806801 c -2.167308,-1.292995 -0.226485,2.791965 0,0 z M 62.791495,8.1853188 c 22.028076,4.2599702 -6.269467,-9.05931693 0,0 z"
       id="path3161"
       inkscape:connector-curvature="0" />
    <path
       style="fill:#899671"
       d="m -3.0847402,280.94916 c 0,-94.0565 0,-188.112994 0,-282.169491 174.8926602,0 349.7853202,0 524.6779802,0 0,188.113001 0,376.225991 0,564.338991 -174.89266,0 -349.78532,0 -524.6779802,0 0,-94.0565 0,-188.113 0,-282.1695 z M 267.41591,432.39237 c 0.51007,-9.07848 -8.43482,-7.36325 0,0 z m 26.2339,-5.66572 c 15.66529,-7.85652 -3.81209,-15.7264 0,0 z m -5.19278,-6.02218 c 2.27704,-15.70402 -10.671,-0.0539 0,0 z m -6.69975,-6.55499 c 8.91947,-7.53918 -10.83539,-2.43919 0,0 z m 15.36987,-6.66341 c -5.67629,-12.51856 -14.09512,6.23397 0,0 z m -55.10586,-3.91075 c 18.03267,-15.52293 -9.50965,0.29973 0,0 z m 62.58206,-0.1256 c -15.25265,-18.06584 22.27028,-60.48422 -17.80586,-59.46497 -33.46378,5.47126 -38.7964,-38.44271 -16.6882,-53.04301 13.83011,-12.67313 35.33924,-44.184 20.89012,-66.90295 -3.81705,-17.75467 -44.55834,-19.86375 -16.27311,-1.12377 11.74155,18.57288 -25.49981,-5.3714 -31.91449,-8.18846 4.50401,-11.39729 29.50484,-13.93825 2.71663,-19.04934 -25.16539,-4.35876 -79.23849,-0.66954 -66.60509,-40.88635 14.7618,-5.98978 29.27043,2.73114 34.47064,-18.16865 10.88898,3.09084 49.57205,-3.84365 21.08634,-5.66653 -16.02237,7.1458 -27.47065,-15.43473 -8.42606,-11.76077 13.25291,12.53173 29.45231,-10.11624 8.07281,-5.22411 -32.6735,-0.74306 7.17183,-47.206167 24.77483,-21.906658 2.84307,17.460158 29.01813,-7.065999 36.78949,16.676558 16.71998,14.92765 -25.0317,31.7429 6.88958,28.14774 20.77058,3.47082 57.87598,29.63012 57.60178,-10.32089 C 366.35137,92.893606 344.46654,59.081065 312.1679,48.922549 276.70358,33.030148 234.80473,32.253026 198.75404,46.748537 187.36044,27.932418 168.20077,45.284134 166.56554,45.897765 150.77649,21.085359 119.73192,69.321806 113.44203,35.273071 99.768879,14.036751 94.644108,33.280871 108.89916,43.611026 122.69791,73.541172 80.371549,63.949231 88.124337,39.054401 95.829771,20.230674 78.475752,-8.7902746 59.991657,6.1830835 72.778852,7.2463506 84.603792,12.72922 74.135494,24.0109 c 9.493651,22.641375 18.319176,49.049748 -3.816156,65.791955 4.52713,-7.115119 16.484636,-15.474123 17.179897,3.566996 10.357826,11.466989 38.699105,-9.365585 35.204805,16.003139 28.14939,15.05781 -31.805749,45.00302 2.32416,60.72324 10.43195,21.42478 -6.33577,42.16455 -24.17332,45.6205 -1.569357,26.74552 46.25919,35.64503 26.97917,3.58893 19.08127,-16.36098 49.45217,9.41497 31.80852,29.96007 -8.88034,12.89691 29.95247,19.64824 18.97509,1.54923 27.07177,16.61443 -17.18932,25.0406 -21.28756,19.03817 -4.72087,36.00372 54.62303,16.31808 57.73628,28.50767 -7.76807,9.13434 32.61452,-3.7622 17.75727,14.39868 -24.84141,0.21405 1.45784,21.38246 -17.27933,27.00889 -2.40703,32.44308 46.98196,22.43534 50.9553,52.42599 17.21375,-8.54398 -12.36618,-8.39109 8.93264,-14.31301 15.79318,-8.14313 27.71083,1.7555 16.7006,11.00558 1.76641,5.30962 4.64372,16.91536 12.47049,14.56279 z m -44.41827,-12.53224 c -2.30259,-8.04775 9.75694,7.68681 0,0 z m 40.84908,-9.1711 c -1.5667,-2.86623 3.02983,1.41189 0,0 z m -6.60464,-10.16693 c -24.64485,-11.12908 7.62189,-27.50324 7.11224,-5.36902 -13.19145,-11.07931 3.42663,4.41225 -7.11224,5.36902 z M 275.56898,359.9497 c -16.85385,7.60263 -7.44221,-28.37386 1.54539,-10.73459 7.53807,-16.00329 7.37238,14.82744 -1.54539,10.73459 z m -0.0877,-2.96723 c 2.04002,-7.75643 -7.81327,6.51672 0,0 z m -29.53138,-8.46081 c -4.63519,-6.33332 3.55953,1.03184 0,0 z m 15.05329,-1.07155 c -4.35953,-5.76864 7.53458,0.66414 0,0 z m -16.23947,-2.22589 c -9.45684,-5.3298 4.5813,-5.05772 0,0 z m 2.5281,-21.024 c 1.43299,-5.39283 4.28245,4.69712 0,0 z m -23.21722,-2.25594 c -3.89708,-6.5901 6.3996,4.32801 0,0 z m -46.91397,-32.20394 c 9.63855,-17.03457 22.34921,-53.58152 40.93127,-24.82281 15.304,7.3327 23.22833,17.31353 1.18181,18.16659 -15.58664,-3.29938 -29.38589,6.85209 -42.11308,6.65622 z m 35.43493,-14.64619 -1.28892,1.9056 1.28892,-1.9056 z m -6.09687,-9.85874 c 3.5607,-14.10441 -8.36487,-5.4085 0,0 z m 25.77767,2.69386 c -23.24995,-27.03862 15.95342,-1.67291 0,0 z m 12.91936,-2.27735 c -7.80729,-5.96808 5.41236,-4.34256 0,0 z m -75.43823,-10.19306 c -1.51312,-5.38161 4.87801,1.52913 0,0 z m 13.35896,-4.58197 c -5.12844,-14.15846 14.55492,7.97798 0,0 z m 83.89902,-8.88711 c -7.75394,-9.78835 12.08611,-3.17702 0,0 z m -83.54803,-5.34363 c 6.37358,-7.39592 10.41323,4.25946 0,0 z m -62.11087,-5.57822 c 0.63917,-2.85761 2.21502,3.36872 0,0 z m 54.41067,-0.60985 c 0.33265,-13.24388 13.35042,8.68704 0,0 z m 105.93158,-3.5914 c 0.91214,-2.0002 1.01047,2.20933 0,0 z m 1.21431,-4.63971 c -1.47308,-2.44232 2.65889,0.47243 0,0 z m -128.59447,-5.59671 c -21.29828,-10.3414 1.48842,-12.40614 4.42016,3.91422 -1.47339,-1.30474 -2.94677,-2.60948 -4.42016,-3.91422 z m 119.44988,1.12409 c -19.0952,-7.61649 10.14537,-0.54557 0,0 z m -64.34555,-1.21674 c -16.46074,-5.30922 12.76341,-7.37544 0,0 z m -34.036,-0.41338 c -15.34566,-10.90367 18.14471,-0.18112 0,0 z m 8.08045,-4.07145 c 1.85221,-5.42056 1.14697,5.99156 0,0 z m 93.62118,0 c -0.0531,-4.83181 4.17755,6.73917 0,0 z m -2.96848,-2.11627 c 0.91216,-2.00018 1.01045,2.20933 0,0 z m -91.31004,-0.77728 c -16.53246,-23.47388 37.7145,1.05551 6.43709,-3.77322 -4.67427,-10.6035 -0.9955,7.49244 -6.43709,3.77322 z m 9.40197,-0.13553 c 0.78326,-2.21783 1.65748,1.46544 0,0 z m -35.96296,-5.64844 c -22.25553,-15.66992 11.66459,-17.20824 0,0 z m 12.99571,-6.55591 c -8.35522,-11.07171 8.12483,4.30201 0,0 z m 35.46511,0.74833 c -9.49675,-15.11659 21.11326,4.69351 0,0 z m -72.79489,-3.56735 c 0.87855,-12.07878 12.9071,-5.20041 0,0 z m 59.71406,-49.17019 c 1.35941,-2.92316 1.86501,1.56346 0,0 z m -61.42325,-3.79002 c 1.30584,-4.34585 2.18752,2.47156 0,0 z m 175.10348,-3.81984 c 2.21419,-1.71208 0.73493,3.51154 0,0 z m -85.58081,-2.62303 c 3.81277,-6.24226 8.34394,5.04884 0,0 z m 28.15772,0.0941 c 0.91216,-2.00018 1.01045,2.20933 0,0 z m 52.17631,-3.02236 c 2.08888,-3.84566 2.52152,3.22967 0,0 z m -68.40246,-0.11286 0.84618,-0.82903 -0.84618,0.82903 z m 124.70746,-4.22311 c -11.31177,-10.57452 7.0061,1.2085 0,0 z m -144.21076,-6.39743 c -8.64446,-7.22921 5.03091,-0.80669 0,0 z m 84.99088,-5.47032 c 0.2265,-2.79195 2.16728,1.29302 0,0 z m 10.88221,-0.83931 0.84618,-0.82903 -0.84618,0.82903 z m -175.28131,-1.30889 c 0.79424,-11.96496 7.43088,-0.3338 0,0 z m 79.28467,-1.87695 c 1.3594,-2.92318 1.86501,1.56348 0,0 z m 75.49533,-13.430805 c 0.91217,-2.000184 1.01047,2.209345 0,0 z m -22.21544,-0.743888 c 1.90247,-4.317973 2.65188,4.257043 0,0 z M 132.91718,87.545489 c -11.03809,-5.326927 0.88078,-13.421917 0,0 z m 92.36498,-0.06628 c -1.38636,-5.703604 8.23011,2.755683 0,0 z m 38.05292,-1.226996 c 1.83107,-2.620152 1.83107,2.620153 0,0 z m -9.65049,-1.922105 c 0.28964,-4.21966 3.16628,2.932742 0,0 z m -29.11738,-1.369872 c 2.00726,-3.047854 1.8187,2.549931 0,0 z m -6.63135,-2.292627 c 1.11756,-2.476537 1.36666,1.521344 0,0 z m 44.52476,-0.05879 c 0.91217,-2.000178 1.01045,2.209335 0,0 z M 251.67557,78.53174 c 1.3793,-3.419652 2.04549,2.74846 0,0 z M 92.086016,71.215837 c -7.086317,-9.170929 15.562724,7.881005 0,0 z M 84.56956,70.02148 c 0.975201,-7.145138 5.546508,3.553815 0,0 z M 175.743,57.057028 c -1.14719,-6.171095 8.04942,3.382591 0,0 z m 11.10108,-8.074703 c -0.80923,-9.106741 8.26942,6.77905 0,0 z m 32.76783,-3.644689 c 2.24873,-3.006073 2.08411,2.679606 0,0 z m 8.48991,-3.339963 c 6.24943,-8.584879 5.89095,2.960914 0,0 z m 28.24639,358.890737 c -5.74365,-3.90537 4.67014,10.70498 0,0 z m 32.27035,-5.77817 c 5.9005,-9.10499 -6.23168,-4.13847 0,0 z m -15.19994,-1.03815 c -5.76062,-8.13032 0.0178,3.09123 0,0 z m -39.26158,-11.97904 c 15.8237,-5.40735 -3.08907,-8.25381 0,0 z m 83.17793,-25.07458 c -11.98043,-17.49426 -13.56827,7.08637 0,0 z m -39.41815,-25.26771 c -5.94997,-1.9338 4.80729,6.6337 0,0 z m -68.99425,-0.21462 -1.44358,0.25875 1.44358,-0.25875 z m -11.11151,-29.2969 c -1.54106,0.92697 1.89697,1.10953 0,0 z m 72.82984,-7.13426 c -4.03435,-4.23574 1.10957,5.75482 0,0 z M 154.65782,248.02939 c 1.41895,-5.85676 -4.86114,2.9072 0,0 z m -10.92276,-4.38017 c 14.59261,-1.21058 -0.24236,-7.4211 -3.15507,-1.44934 l 3.15507,1.44934 z m 109.57456,-30.71386 c -3.10854,-5.13141 -5.107,6.07831 0,0 z M 106.19401,198.01542 c -7.609259,-9.67478 4.5668,12.1644 0,0 z m 163.07066,-1.08457 c 10.0398,-22.1012 -14.94356,-10.8128 0,0 z m 12.72563,-1.07506 c -0.65676,-2.94571 -1.85551,2.15328 0,0 z m -19.2382,-6.14143 c -1.26165,-2.27447 -1.26165,2.27447 0,0 z m -22.73869,-8.17208 c 1.19282,-13.90822 -4.24828,10.61118 0,0 z m 33.43343,2.27327 c -1.74804,-2.24312 0.4546,2.47405 0,0 z m -87.06453,-2.58194 c 0.83183,-7.87058 -9.11852,2.1238 0,0 z m 86.28038,-0.59987 c 1.68068,-6.42471 -4.61205,1.9594 0,0 z m 5.58491,-2.30201 c -0.1459,-9.5112 0.255,7.79693 0,0 z m -12.58062,-3.96252 c -4.03027,-12.51039 -0.88583,14.77815 0,0 z m 4.14134,2.03794 c -2.72133,-1.85826 0.50974,3.02258 0,0 z m 3.1875,-0.0623 c 8.46031,-10.18352 -7.62478,0.95529 0,0 z m -17.61276,-1.71854 c 2.98432,-8.29746 -5.00731,6.99786 0,0 z M 93.178541,152.34775 c 18.263789,-6.86969 -12.77481,-2.03296 0,0 z M 249.34367,139.39413 c -2.24875,-3.0061 -2.08411,2.67962 0,0 z m 9.65855,-1.04499 c -4.29172,-4.76913 -1.49797,3.73777 0,0 z m -154.81946,-0.15407 c -4.589627,-17.90717 -18.567166,4.58555 0,0 z m 173.72671,0.34838 c 1.32881,-6.19724 -4.67239,1.01973 0,0 z m 85.1873,-1.50073 c 4.81006,-14.26513 -4.27656,1.87295 0,0 z m -95.68086,-0.2629 c -1.86502,-1.56345 -1.35943,2.92316 0,0 z m -3.93509,-1.26552 c -0.47772,-7.77483 -6.07307,5.43427 0,0 z m -7.14145,0.11757 c -2.45523,-4.4921 -1.80179,1.8856 0,0 z m 22.96706,-1.68842 c 1.41552,-6.20782 -4.55048,2.7082 0,0 z m -7.73295,-1.04969 c -1.8207,-3.90222 -2.54248,7.20421 0,0 z m -55.16793,-3.2947 c -6.40391,-5.55701 -0.87166,2.47133 0,0 z m 73.43352,-2.2679 c -6.45929,-6.84814 -6.79743,-2.40975 -0.23213,0.73769 l 0.23213,-0.73769 z m -181.01923,-2.08578 c -2.59498,-19.58009 -24.541092,-15.86677 -4.8749,-1.6741 l 2.17596,1.73774 2.69894,-0.0636 z m 177.83426,0.51056 c -2.45522,-4.49212 -1.80181,1.8856 0,0 z m 12.93477,-0.32125 -1.07376,0.0737 1.07376,-0.0737 z M 48.508595,118.49195 c -13.495948,-12.29096 1.800296,6.83743 0,0 z m 246.890135,-1.20109 c -1.60452,-2.63977 -1.53356,2.37932 0,0 z M 54.471719,111.36315 c -4.180061,-1.69194 -1.2938,2.64845 0,0 z m 9.339983,-1.27521 c 3.629099,-7.93095 -13.341859,11.15452 0,0 z m 196.081698,-2.54082 -1.69125,-1.63957 1.69125,1.63957 z M 67.279521,105.24651 c 10.228592,-4.04353 2.96241,-5.986146 -1.39742,-0.40843 l 1.39742,0.40843 z M 18.36817,101.74495 c 11.111275,-14.582494 -16.6130023,-11.633022 0,0 z m 221.3564,-0.91398 c 11.72577,-3.563831 -9.87645,-0.58572 0,0 z m -13.69993,-1.410848 c -1.60452,-2.639769 -1.53355,2.379318 0,0 z m 23.58561,-0.437786 c -1.62023,-3.215762 -1.96661,4.022234 0,0 z M 222.81828,97.06871 c -1.01044,-2.209332 -0.91217,2.000178 0,0 z m 17.52351,-1.455557 c 0.3603,-7.995389 -8.25972,2.473719 0,0 z m 7.33982,-1.836421 c 14.2231,-10.007501 -14.36379,3.243491 0,0 z M 28.173565,85.374943 c 7.521252,-11.932897 -8.950199,-4.375013 0,0 z M 101.12359,49.92289 c -4.807219,-7.752119 -1.07377,3.549932 0,0 z m 27.03056,-16.695028 c -5.64347,-13.004342 -4.60338,3.817663 0,0 z M 99.518954,20.412664 c -1.010448,-2.209338 -0.91217,2.000179 0,0 z m -4.663805,-3.291978 c -8.139939,-4.923028 5.703051,5.296162 0,0 z m -3.509547,-3.068201 c -2.174897,-3.572757 -0.255152,2.298435 0,0 z"
       id="path3159"
       inkscape:connector-curvature="0" />
    <path
       style="fill:#728b4f"
       d="m -3.0847402,280.94916 c 0,-94.0565 0,-188.112994 0,-282.169491 174.8926602,0 349.7853202,0 524.6779802,0 0,188.113001 0,376.225991 0,564.338991 -174.89266,0 -349.78532,0 -524.6779802,0 0,-94.0565 0,-188.113 0,-282.1695 z M 267.99888,433.07621 c 1.15811,-11.68189 -11.75315,-11.05296 0,0 z m 13.05831,-6.02617 c -1.80824,-3.11178 0.1616,6.66024 0,0 z m 12.91732,-0.0556 c 11.90735,-2.93742 1.49611,-19.56039 -2.62334,-4.96054 -13.13225,-31.25656 -14.71525,4.52651 2.62334,4.96054 z m -52.17587,-22.5204 c 17.82508,-14.29027 -15.81374,2.36699 0,0 z m 55.34902,3.45139 c -2.94735,-20.83521 -23.87636,7.141 0,0 z m -40.49999,-3.95733 c 4.67138,-12.85973 -14.41319,-10.91079 0,0 z m 48.05607,0.22913 c -20.75747,-24.8322 34.05221,-57.57616 -9.37097,-60.33924 -27.64729,3.49921 -50.45652,-34.47212 -26.37348,-49.24754 12.53032,7.47364 12.47474,-30.38469 23.27777,-38.88842 15.80491,-37.11145 -31.12639,-61.56371 -61.95387,-63.65104 -22.94533,5.69695 -67.62446,-13.52098 -44.12722,-39.87933 15.9688,1.2843 21.37943,-1.08677 33.60032,-11.32948 28.89653,2.20271 57.1708,5.22448 84.87158,-2.20625 20.62521,11.90514 62.90081,28.34338 59.48704,-11.73268 C 366.1515,90.073911 340.04708,56.067222 305.21067,45.491527 271.56422,32.035457 233.90816,35.441522 199.56456,44.293632 185.15715,30.755748 166.85303,52.557343 163.12238,42.347177 143.1539,29.821614 120.1863,63.387037 111.70961,32.695568 85.666274,14.660368 114.30867,50.123324 111.93869,59.580051 73.862951,78.606142 103.3853,4.8519242 70.490881,2.5503756 38.218552,5.0217389 96.084005,8.6662412 73.991865,26.28512 c 13.103777,21.166079 16.285628,45.470963 -2.980703,63.136786 17.536527,-27.125832 14.665642,25.128974 38.677088,7.009461 29.56793,0.332599 20.4156,41.497323 3.43667,56.230213 2.26812,12.83911 21.87404,19.80139 12.62026,39.06158 -0.31189,22.23396 -40.145891,15.16219 -18.09498,38.55087 7.1439,15.42629 36.24381,19.02315 22.55463,-3.83814 -10.2467,-27.63799 62.15391,12.7889 20.92565,12.23371 -23.45715,6.79393 17.90053,-2.22186 7.28351,17.75169 0.30324,11.38825 5.10703,10.45578 -3.10524,6.37636 -0.23357,32.24011 32.37753,35.82402 56.61296,29.27753 8.53602,7.13257 -8.19724,12.54456 10.86648,7.47197 30.14946,13.73514 -30.71122,24.58301 -5.28269,49.69422 12.66643,6.97307 16.00492,48.7843 23.38141,20.18711 15.55499,-12.51788 23.553,49.9131 38.76771,12.06154 17.56989,-21.49073 7.53266,25.28363 25.04912,22.70721 z M 260.4123,390.51308 c 0.99707,-4.9074 4.21249,5.94588 0,0 z m 37.08922,-4.96453 0.66945,-0.92725 -0.66945,0.92725 z m -30.84729,-1.17887 c 5.10141,-11.43755 16.48699,-2.55225 0,0 z m 27.01609,-14.50621 c 1.83015,-6.74054 5.26812,5.9066 0,0 z m -6.57899,-7.14818 c -8.40318,-12.82761 15.69106,4.33229 0,0 z m 10.34708,-1.07179 c -6.46449,-13.78936 8.20462,8.4308 0,0 z m -29.43953,-2.86258 c 1.49178,-2.79549 1.33641,2.75459 0,0 z m 8.16166,0 c 2.07682,-3.27612 2.07684,3.27613 0,0 z m -6.99571,-4.4341 c -4.01263,-19.11678 25.80249,4.28153 0,0 z m 35.60754,-0.69982 c -0.54813,-2.31208 1.27904,0.88357 0,0 z m -60.86981,-10.46379 c -4.08471,-4.5543 4.71265,0.5399 0,0 z m 22.93037,-2.9507 c 0.7833,-2.21785 1.65747,1.46547 0,0 z m -48.96994,-10.77407 c -2.62138,-17.96153 6.77842,6.71822 0,0 z m 8.01591,-1.80521 c -2.62631,-4.64737 6.97864,3.15703 0,0 z m -48.4898,-37.92647 c 5.98816,-19.08075 27.74861,-35.48123 32.1997,-32.52395 7.87029,9.07231 40.50119,26.48855 8.23094,21.49114 -14.65969,-1.46526 -26.74097,8.06971 -40.43064,11.03281 z m -5.58118,-17.94221 c -22.50662,-17.88134 36.40915,0.83724 0,0 z m 60.46428,-3.83469 c -20.62248,-27.26249 17.95735,3.41059 0,0 z m 12.99064,-3.41027 c -10.01707,-8.03008 8.79441,0.92559 0,0 z m -67.49169,-6.94902 c -10.97423,-17.44869 18.95991,4.76981 0,0 z m 5.40479,-6.99163 c -17.0981,-5.758 9.39013,-2.19897 0,0 z m 83.31212,-9.3313 c -1.81679,-10.09616 7.76481,1.60581 0,0 z m -81.81719,-4.48307 c 2.95043,-6.37092 10.43932,4.03029 0,0 z m 91.47683,-3.19087 c -10.05373,-12.59721 10.79397,5.20963 0,0 z m -100.43183,-3.51466 c 2.17776,-11.73595 10.47379,7.56191 0,0 z m 102.51947,-0.81607 c -16.3042,-1.35833 -6.17272,-17.0346 0,0 z m -16.50344,-4.1186 0.5375,-0.86896 -0.5375,0.86896 z m -15.30311,-4.20025 c -7.02652,-15.59461 29.8939,-24.17162 12.97,-3.54099 -3.77141,2.48457 -8.3661,4.31021 -12.97,3.54099 z m 26.08815,-4.11908 c -13.14251,-7.52377 9.65047,2.42556 0,0 z m -96.82146,-0.83398 c -15.48195,-3.93761 13.51825,-2.63802 0,0 z m -24.12466,-1.93747 c -27.0328,-9.35122 1.32116,-14.67427 0,0 z m 58.14248,1.07407 c -11.91707,0.47383 6.32304,-4.52018 0,0 z m -26.24587,-3.28227 c 0.7833,-2.21785 1.65747,1.46547 0,0 z m 63.54433,-0.0277 c 1.26164,-2.27445 1.26164,2.27445 0,0 z m -64.24387,-3.37507 c -6.02919,-21.87501 35.62151,5.41762 2.24359,-5.31202 l -1.86542,2.34153 -0.37817,2.97049 z m -26.74515,-5.99441 c -14.1808,-9.63278 5.29104,-16.55475 0,0 z m 23.14978,-3.09986 c -2.94042,-3.68786 3.75828,0.93818 0,0 z m 25.75893,-2.81484 c -7.64549,-9.23603 12.56032,3.8805 0,0 z m -36.21689,-1.00616 c -0.10919,-3.13791 3.05139,2.36929 0,0 z m -36.54898,-2.04942 c 0.0198,-8.02019 11.11634,-7.12728 0,0 z m 47.86103,-12.29878 c -1.95438,-7.97483 5.34466,5.68166 0,0 z m 174.53495,-32.56841 c -5.25325,-14.72448 8.15313,3.1396 0,0 z m -105.46102,-3.98033 c -1.47307,-2.44232 2.65889,0.47244 0,0 z m -5.01417,-1.47921 c -1.38026,-3.45024 3.80961,1.45404 0,0 z m 8.75515,-0.46504 c 1.26165,-2.27447 1.26165,2.27447 0,0 z m 105.51857,0.0555 c 0.2265,-2.79195 2.16729,1.293 0,0 z M 247.59474,141.2753 c 1.83109,-2.62017 1.83106,2.62017 0,0 z m 31.00868,-0.35271 c 2.27686,-4.02823 2.27685,4.02821 0,0 z m -27.51083,-0.0898 c 0.78326,-2.21784 1.65749,1.46544 0,0 z m -26.59056,-1.52368 c 3.72237,-3.41658 4.12591,5.99414 0,0 z m 71.85248,-2.59264 c -1.04316,-3.23768 4.16497,1.65428 0,0 z m -47.59382,-11.46028 c 1.36736,-7.62662 3.35279,4.05286 0,0 z m 19.23819,-3.22327 c 1.39071,-4.15165 2.21025,3.48936 0,0 z M 134.62582,111.18081 c 5.23383,-8.81115 -0.58454,5.82971 0,0 z m -1.48176,-23.425034 c -8.79946,-4.353423 1.36548,-11.289247 0,0 z M 92.016723,71.190814 c -6.063168,-8.142924 16.027087,8.18046 0,0 z M 84.56956,70.02148 c 0.975201,-7.145138 5.546508,3.553815 0,0 z m 90.81265,-13.557906 1.88685,-0.599954 -1.88685,0.599954 z m 11.11669,-7.928017 c 0.37013,-8.506427 5.5991,6.322832 0,0 z M 289.22119,393.88789 c -2.16608,-12.32337 -14.96909,3.56551 0,0 z m -9.8282,-60.59098 c -1.3842,-14.95039 -5.70448,7.45909 0,0 z m -69.50857,1.46808 c 5.13593,-11.90096 -8.94938,-12.04846 0,0 z m 0.74291,-14.66243 c -3.3638,0.48414 2.88735,2.72653 0,0 z m -9.65597,-12.61828 c 3.3837,-12.73585 -9.33267,-2.86689 0,0 z m -70.60461,-55.92777 c -3.21633,0.60769 2.3008,5.30478 0,0 z m -24.19709,-54.05922 c -7.120877,-8.07572 4.62028,12.38144 0,0 z m 191.67028,3.65288 -1.07375,0.0737 1.07375,-0.0737 z m 51.78721,-0.39554 c 0.526,-3.88978 -3.72677,4.4862 0,0 z m -64.72198,0.005 c -2.65932,-14.11748 -6.28996,-1.31252 0,0 z m -7.33584,-1.47178 c -0.76971,-5.4548 -4.30127,4.08572 0,0 z m -7.66982,-2.30313 c 7.52035,-7.89106 8.87814,-33.3165 -2.83672,-17.35534 -4.10652,-19.21249 -6.11872,5.43138 -13.30662,-5.59382 3.1334,5.8458 7.94576,20.3018 16.14334,22.94916 z m -5.98146,0.25417 c -2.83935,-3.02361 -2.88819,2.56666 0,0 z m -5.09262,-2.63253 c 0.78186,-5.35976 -7.19545,3.71302 0,0 z m -9.9649,-3.31889 c 14.06788,-17.1396 -14.77722,-0.25326 0,0 z m 31.38084,-2.74881 c -1.29853,-2.97928 -1.29848,2.9793 0,0 z m -19.82117,-1.67374 c -1.65749,-1.46548 -0.78327,2.21786 0,0 z m -20.57862,-1.50066 c 16.41988,-16.4637 -10.946,-20.38105 0,0 z m 18.24672,0.16788 c -2.60105,-5.40897 -3.75106,2.29482 0,0 z m -10.19935,-5.22767 c 4.3027,-10.64191 -5.83628,5.27039 0,0 z M 234.531,174.12232 c -1.18628,-10.07068 -2.81843,7.03767 0,0 z m 35.21681,-5.33553 c -2.13962,-3.69489 -2.07975,3.45876 0,0 z M 93.124231,152.42408 c 19.579179,-1.36167 -9.594484,-5.32924 0,0 z m 164.381089,-5.97571 c -2.0841,-2.67959 -2.24873,3.00607 0,0 z m 9.32761,-0.88911 c -6.57488,-6.09489 -4.61308,3.05151 0,0 z M 222.52679,144.595 c -1.91053,-2.89932 -2.00903,3.34141 0,0 z m 65.58475,-0.96832 c -1.01043,-2.20936 -0.91218,2.00018 0,0 z m -183.92878,-5.4845 c -3.61685,-18.01429 -19.579544,4.76283 0,0 z m 4.63708,-12.8968 c -1.88534,-19.3534 -25.827468,-15.97389 -4.80823,-1.37684 l 2.16049,1.68339 2.64774,-0.30655 z m -60.311245,-6.79451 c -6.309288,-8.44702 -7.160057,-0.90799 -0.308794,1.38574 l 0.308794,-1.38574 z m 5.538267,-6.56826 c -2.295181,-2.96332 -2.41137,5.54232 0,0 z m 8.514416,-0.7447 c 13.644425,-11.389086 -10.929148,5.07581 0,0 z m 4.987962,-6.0744 c 14.472571,-3.76129 -3.02197,-5.602604 0,0 z M 18.59337,101.7873 c 13.868406,-18.356363 -19.36490816,-10.945721 0,0 z m 9.580195,-16.412357 c 7.522414,-11.954775 -8.980106,-4.422096 0,0 z M 101.15889,49.805319 c -6.416212,-7.931582 -0.004,4.071747 0,0 z m 27.10917,-16.716127 c -5.88334,-13.293288 -4.69763,4.57847 0,0 z M 104.18276,22.57925 c -1.53891,-2.255924 -2.04167,1.634128 0,0 z m -4.663806,-2.166586 c -1.010448,-2.209338 -0.91217,2.000179 0,0 z m -4.62731,-3.328104 c -8.211192,-4.999527 5.676576,5.392363 0,0 z m -3.534348,-3.255851 c -2.033675,-5.2704223 -1.127099,3.087381 0,0 z"
       id="path3157"
       inkscape:connector-curvature="0" />
    <path
       style="fill:#627449"
       d="m -3.0847402,280.94916 c 0,-94.0565 0,-188.112994 0,-282.169491 174.8926602,0 349.7853202,0 524.6779802,0 0,188.113001 0,376.225991 0,564.338991 -174.89266,0 -349.78532,0 -524.6779802,0 0,-94.0565 0,-188.113 0,-282.1695 z M 292.73906,443.39385 c 0.74121,-5.70476 -5.24329,6.11962 0,0 z m 8.48943,-6.992 c 3.34506,-2.91724 -12.22917,5.29865 0,0 z m -59.02627,-1.28045 c 2.98056,-6.69178 -15.71974,4.15368 0,0 z m 26.37964,-1.38396 c -0.19962,-21.92211 -17.11977,-10.03596 0,0 z m -35.66804,-1.57358 c 3.58291,-6.22719 -10.82398,8.34058 0,0 z m 74.1734,-3.71698 c -6.03553,-11.31538 -5.38008,13.12549 0,0 z m -103.7747,-0.4962 c 11.76976,-11.66223 -12.81047,5.76419 0,0 z m 78.20193,-0.92925 c -2.4644,-6.6195 -0.93862,8.5494 0,0 z m 12.61006,0.54478 c 15.37546,-19.95764 0.87704,-54.1794 18.63754,-68.84537 17.26954,-16.87241 -31.37567,-21.77329 -42.10929,-24.61624 -18.42138,-6.20862 -7.53378,-43.99898 5.41251,-40.89239 15.62568,-24.14142 30.55722,-60.7332 5.91508,-84.36608 19.52338,-0.92872 -9.78267,-20.06672 -4.27531,-32.84457 -10.40461,-14.90712 -34.69409,-9.12554 -42.49717,-0.96035 0.0317,38.58521 -59.76307,11.66814 -56.68247,-15.33098 11.86082,-8.94796 28.83339,-3.38462 39.45791,-14.50791 12.03789,8.4438 -1.12125,-13.8727 19.23067,-0.94083 35.41271,5.66927 74.86792,-12.62616 105.70334,11.83171 35.14989,-3.95521 21.7597,-52.9306 9.96091,-73.25341 C 319.86914,34.477449 250.37507,25.555205 198.88571,46.551915 185.78622,27.230642 162.72487,53.475936 147.83207,37.582717 133.08607,43.767342 115.59045,58.04063 112.75435,32.029514 103.57929,15.504712 65.32605,-5.5803369 59.342223,7.8274575 74.342482,8.8816614 82.296385,12.653502 71.244432,24.267443 c 7.819114,21.134591 24.192703,45.651262 -1.256258,61.670307 0.540349,12.978662 25.177249,2.834028 24.0037,23.04496 4.657083,15.03863 26.175256,23.62006 8.098896,5.12618 -8.250114,-25.226018 22.17027,-20.8444 21.85099,0.7582 17.87245,14.0305 -31.052403,37.63329 -1.83871,53.59079 4.59492,12.54733 -2.70438,24.62263 0.33447,34.70371 -11.60633,7.56651 -27.444856,-13.1628 -21.10786,12.28841 2.83178,24.41927 27.05704,39.8863 47.85249,27.99358 11.78849,16.88574 2.40009,50.20183 34.13323,52.99336 15.14434,16.37372 38.52379,-2.55943 50.08694,10.70406 -24.29315,13.10383 -32.14599,31.57383 -8.07429,53.49824 13.15569,10.20032 5.23487,31.41074 20.75602,12.15514 11.5439,-1.27504 12.41122,9.97518 7.25162,14.19241 19.39857,5.98259 30.43016,18.14693 32.73794,36.23816 1.70725,2.324 4.75911,5.27994 8.0509,4.34126 z m -4.17369,-7.33289 c -17.27256,-21.88351 23.34885,-7.49794 0,0 z m 3.62597,-19.30798 c -19.11426,-21.19916 14.45085,3.45926 0,0 z m -11.25336,-4.08513 c -0.62172,-9.29153 6.61782,6.76434 0,0 z m -4.73465,-3.53164 c -13.45783,1.29529 1.94895,-8.51531 0,0 z m 2.89828,-6.63331 c -8.19092,-26.86185 25.4872,5.53705 0,0 z m -6.96569,-6.98737 c 0.58701,-6.3141 5.69151,3.25841 0,0 z m -27.60246,-11.73346 c -6.64839,-7.59743 7.73144,4.37132 0,0 z m 43.28742,-5.52882 c -9.9147,-9.40925 5.91754,-0.32659 0,0 z m -6.39623,-2.07005 c 1.95969,-5.56055 4.16098,4.89189 0,0 z M 270.33078,352.695 c -0.0132,-6.2575 3.04401,3.39541 0,0 z m 5.06616,-0.46785 c -0.30801,-4.63259 4.02148,4.85613 0,0 z m -8.28036,-2.63667 c 1.04069,-8.42216 4.49209,7.22966 0,0 z m 12.93922,0.65404 c -3.56462,-4.2224 5.3092,-0.31273 0,0 z m -61.46253,-22.52548 c 2.21359,-9.98135 1.90569,7.23718 0,0 z m -16.98201,-23.08012 c -13.15463,-25.39397 38.5204,-4.28971 0,0 z m -24.22412,-15.18817 c 1.97035,-22.43152 49.50899,-36.79259 39.59349,-12.74445 -13.73323,2.08892 -27.37845,6.03014 -39.59349,12.74445 z m 24.62848,-12.88797 c -2.12116,-4.94052 -2.04099,5.78376 0,0 z m 74.2781,2.86985 c -1.24915,-8.99189 6.12478,3.39053 0,0 z m -48.15475,-2.10772 c 0.96196,-9.31031 11.19734,0.85712 0,0 z m -55.42307,-6.50808 c -16.71922,-5.27667 2.26501,-12.11252 0,0 z m 7.87897,-2.86386 c -3.38222,-7.63166 7.56589,5.77085 0,0 z m 17.62152,-6.84899 c -10.6043,-7.86233 7.42545,-2.7984 0,0 z m 5.77178,-5.17384 c -4.98141,-12.0582 11.81614,-0.70358 0,0 z m -45.82188,-0.6584 c -1.31697,-3.42931 2.37397,1.97701 0,0 z m 20.16872,-1.73892 c -6.24889,-9.02217 9.60082,6.61269 0,0 z m 3.23289,-4.6215 c -5.18424,-3.44272 4.04382,0.0338 0,0 z m -40.72228,-8.9943 c -29.76061,-13.42066 11.15535,-38.07237 20.03874,-14.04159 19.10422,2.15018 -16.28099,12.66988 -20.03874,14.04159 z m 9.97518,-7.40695 c -1.60452,-2.63977 -1.53356,2.37932 0,0 z m -5.53827,-1.88113 c -1.01043,-2.20936 -0.91218,2.00018 0,0 z m -12.37608,9.12152 c 1.32857,-2.119 1.23165,1.48052 0,0 z m 19.96533,-2.52378 c 3.52238,-3.97816 3.89599,4.219 0,0 z m 35.57296,-1.3959 c 1.01115,-3.00459 2.72013,2.16509 0,0 z m -10.22409,-7.31811 c 2.42084,-4.48448 1.36708,2.77597 0,0 z m 78.03981,-12.34492 c -12.47942,-14.21471 14.84671,3.87088 0,0 z m -80.82754,-0.94056 c -12.56859,-6.46612 11.92834,0.0502 0,0 z m -27.23169,-4.14938 c -13.48615,-1.85046 2.34092,-8.57296 0,0 z m -29.44408,-1.81897 c 0.65675,-2.94572 1.85552,2.15327 0,0 z m 169.7392,-2.72714 c -4.48517,-4.36757 5.11525,0.27726 0,0 z m -12.50445,-0.45881 c -38.93227,-8.4027 16.18471,-10.09347 0,0 z m -0.99731,-2.98323 c -1.65747,-1.46547 -0.7833,2.21785 0,0 z m -75.36205,2.23451 c -4.05004,-9.24733 9.09834,4.43025 0,0 z m 81.77478,-0.58853 c 1.99969,-2.80258 0.54557,3.69691 0,0 z m -140.78859,-0.44252 c 0.91216,-2.00018 1.01045,2.20933 0,0 z m 49.32309,-2.77524 c -8.6094,-12.12272 11.19199,6.78983 0,0 z m -5.46061,-1.66842 c -3.06328,-3.41322 5.1689,2.66933 0,0 z m 64.70069,-3.36812 c 3.10971,-15.46167 19.70073,-0.33041 0,0 z m 11.4984,-0.69428 c -0.13818,-5.99217 4.24029,4.30885 0,0 z m -16.58341,-1.34212 c 0.78327,-2.21786 1.65749,1.46548 0,0 z m 30.60621,-0.0277 c 0.91214,-2.0002 1.01047,2.20933 0,0 z m -40.5168,-1.80825 c 0.37906,-4.54396 3.65741,1.78153 0,0 z m -83.3655,-1.01345 c 1.26164,-2.27445 1.26164,2.27445 0,0 z m 119.76293,-0.61686 c -7.00649,-11.89863 7.4727,0.10272 0,0 z m -33.48255,-1.47571 c -2.48331,-6.26724 5.00929,1.01656 0,0 z m 14.26705,-0.74981 c 1.03194,-7.80695 5.72838,2.50707 0,0 z m -8.69233,-3.624 c 0.69244,-14.7122 14.83659,7.60053 0,0 z m 18.32728,-0.85075 c 1.85552,-2.15327 0.65675,2.94572 0,0 z m 4.51064,-3.3094 c -2.35364,-9.49504 6.17803,1.07637 0,0 z m -6.04716,-2.77317 c -16.04261,-1.94361 7.06289,-2.03872 0,0 z m 7.4123,-2.31557 c -0.54813,-2.31208 1.27904,0.88357 0,0 z m -30.83685,-0.37623 c -6.23938,-5.29588 4.60807,-1.7896 0,0 z m 30.89171,-3.45527 c 0.68062,-6.71737 2.58394,3.1949 0,0 z m -5.93064,-3.96735 c 1.26165,-2.27449 1.26166,2.27451 0,0 z m -5.82976,-22.99353 c 1.41707,-3.24797 2.27767,2.5404 0,0 z m 63.60186,-2.19221 c -5.92581,-3.95761 13.92889,5.17808 0,0 z M 79.11481,83.245692 c 1.923486,-5.086875 3.268709,4.52426 0,0 z m 24.77646,-18.94723 c -31.55197,-7.532416 18.42074,-24.651089 9.06816,-2.103255 -2.52681,1.972728 -5.92964,2.77274 -9.06816,2.103255 z m -0.77238,-16.244898 c -0.3083,-6.847719 6.65397,3.921412 0,0 z m -6.223326,-1.980421 c -30.032975,-19.331323 22.998266,-26.500974 0,0 z M 331.11932,428.14758 c 11.81056,1.6337 41.95493,-20.66044 13.5431,-15.71907 -10.06416,8.62079 -44.67331,13.0575 -13.6393,15.71312 l 0.0962,0.006 0,0 z m 12.66638,-5.85077 c 0.65675,-2.94569 1.85549,2.15326 0,0 z m -123.00784,4.67507 c -5.87722,-5.91267 -0.0983,2.94915 0,0 z m -21.57009,-3.7397 c -1.23349,-4.39955 -2.15811,3.25887 0,0 z m 39.93382,-14.01625 c 8.5319,-3.55668 28.21978,-19.47228 7.43468,-15.81194 -4.24939,3.37714 -12.54904,9.80268 -7.43468,15.81194 z m 36.67207,-6.98464 c -6.9412,-11.12451 -5.80806,1.61146 0,0 z M 284.3222,211.5825 c -1.56014,-3.25078 -1.46692,3.06356 0,0 z m 52.03056,-3.37398 c -9.03645,-0.37916 -21.7169,-2.7496 -5.72793,-5.44463 -9.01889,-4.69329 -53.05116,-4.49601 -20.89307,2.0035 8.3773,3.31584 17.6521,5.32674 26.621,3.44113 z m 20.84138,0.3319 c -2.04167,-1.63414 -1.53892,2.25595 0,0 z m -7.57868,-0.95532 c -1.01045,-2.20936 -0.9122,2.00019 0,0 z m -5.39357,-1.46169 c 20.16456,-0.093 18.75472,-29.06977 14.07111,-33.19439 -2.65578,11.4505 -3.79951,25.70928 -14.07111,33.19439 z m 14.45459,-20.6091 c 0.0954,-2.63966 1.77264,1.92708 0,0 z m -66.7756,9.89117 c -3.73225,-8.67348 -3.99713,3.64102 0,0 z M 118.81075,177.917 c -2.84455,-3.52264 2.49617,7.24278 0,0 z m 161.17677,-6.77526 c -0.70311,-7.81188 -5.35284,5.17156 0,0 z m -45.0725,-4.66717 c -1.31413,-2.76467 -1.5379,2.75581 0,0 z m 43.10375,-0.12531 -1.07375,0.0737 1.07375,-0.0737 z m -49.8762,-9.91784 c 4.72698,-8.3151 -11.00691,5.60703 0,0 z M 94.906859,152.79628 c 17.268511,-13.25139 -17.783825,4.88677 0,0 z m 135.836261,-3.19994 c -2.65604,1.41875 3.60163,2.25291 0,0 z m 34.45134,-1.35587 c -11.83805,-6.06168 2.43278,4.30749 0,0 z m 31.9532,-5.55436 c -1.26164,-2.27445 -1.26164,2.27445 0,0 z m -192.25732,-4.46768 c 3.98886,-22.00928 -20.775046,6.53104 0,0 z M 50.549009,119.12859 c -7.354233,-11.98878 -10.743194,0.95981 0,0 z m 2.130334,-5.83513 c 17.765824,3.58147 21.303477,-21.875844 4.5161,-3.20922 0.105619,0.14175 -14.575638,3.82775 -4.5161,3.20922 z M 16.36271,104.57889 C 33.912048,102.49938 28.05144,63.498931 20.375161,93.034754 17.188776,74.410231 10.443021,103.14223 16.36271,104.57889 z m -5.686798,-2.67999 c -1.5410734,0.92695 1.896958,1.10954 0,0 z M 132.23228,37.1198 c -7.41811,-20.641505 -17.92292,-0.156862 0,0 z"
       id="path3155"
       inkscape:connector-curvature="0" />
    <path
       style="fill:#4e6530"
       d="m -3.0847402,280.94916 c 0,-94.0565 0,-188.112994 0,-282.169491 174.8926602,0 349.7853202,0 524.6779802,0 0,188.113001 0,376.225991 0,564.338991 -174.89266,0 -349.78532,0 -524.6779802,0 0,-94.0565 0,-188.113 0,-282.1695 z M 38.343901,556.94197 c -3.533593,-22.04513 6.455595,4.52585 0,0 z m -18.10962,-1.81811 c -1.831062,-2.62014 -1.831068,2.62015 0,0 z m 487.354159,-2.92417 c -8.17804,-17.52182 -30.53193,-8.71544 0,0 z m -45.69227,0.10247 c 7.98267,-0.58443 0.75351,-2.13909 -3.1244,-1.91636 l 3.1244,1.91636 z m -430.173929,-4.35011 -0.008,1.85142 0.008,-1.85142 z m 449.499939,1.81435 c -1.82128,-8.05604 -3.31072,3.04269 0,0 z m 4.06974,0.32873 -1.69839,0.0263 1.69839,-0.0263 z m 26.71362,-0.65562 c -0.2896,-4.21967 -3.16633,2.93269 0,0 z M 40.456,545.35999 l -0.0016,1.73828 0.0016,-1.73828 z m 212.38552,-95.85395 c 5.77169,-5.61042 -7.97038,-4.79722 0,0 z m 41.86416,-5.93193 c 6.65412,-5.67708 22.45179,-10.13761 3.07359,-8.65875 17.23751,-3.00813 73.23658,-10.17304 57.51472,-25.98132 -11.14955,9.69657 -38.07642,-17.53429 -24.45677,7.29749 -9.48468,7.98226 -52.86566,6.36672 -36.13154,27.34258 z m -16.50473,-2.36634 c 15.54504,11.48557 -2.32558,-7.50972 0,0 z m -29.18671,-5.7253 c -14.93271,-12.62714 -27.18871,5.52898 0,0 z m 19.69644,-1.67008 c 2.50396,-17.64369 -20.11955,-16.6031 0,0 z m -43.72052,-0.68138 c -10.74514,-10.90483 -18.11754,-28.23794 -26.98045,-3.56739 14.36926,-7.76486 17.05233,8.17323 26.98045,3.56739 z m 56.92926,-5.5478 c 1.20404,-10.76105 -4.89045,8.33818 0,0 z m 12.87685,0.38318 c 12.88535,-6.9837 3.35252,-40.32337 15.17307,-33.55701 -7.6154,-17.92874 -7.65495,-18.87939 5.83815,-30.83297 10.05355,-29.01874 -30.16868,-24.77458 -45.15281,-33.52224 -14.57036,10.7929 -5.67977,-52.68434 -2.96453,-23.31957 13.63167,-26.96568 44.4625,-55.09201 21.61782,-86.39488 8.51859,-36.93588 59.29524,10.7193 73.88543,-22.94121 2.68842,-12.11381 -7.71067,-37.6442 -9.08758,-9.8036 -8.72347,29.95558 -54.48514,14.77892 -69.37841,-3.44155 -8.54086,-26.47891 -59.16205,-26.40613 -55.63368,5.00713 -19.17441,17.98705 -64.28552,-21.26618 -41.41956,-30.42374 13.37041,6.70958 36.55876,-17.19629 40.24408,-4.62805 15.10771,-13.41992 39.48298,3.71352 59.83784,-9.29899 25.80997,-14.25146 60.17678,33.15165 76.14606,-0.15973 5.47416,-36.09552 -8.79259,-77.764417 -44.57873,-92.658672 C 285.28839,33.253807 243.42965,31.594601 206.92391,43.789605 191.59878,37.66968 170.55697,41.916017 161.6503,44.223555 135.62521,33.086998 105.71537,32.946726 86.449414,8.9990549 74.905076,-3.7452788 38.576098,8.6117413 71.030966,11.159134 c 9.380164,7.801619 -5.051911,24.83155 9.033762,36.532965 20.630042,16.289319 -27.080522,42.947444 -2.816072,45.313615 18.73196,-7.766296 14.965533,42.742716 39.851004,32.832406 -24.397328,-1.57377 -11.91852,-47.905969 2.87993,-21.65987 16.15556,20.44328 -16.50075,43.00307 -4.07113,66.16649 2.6729,10.8074 19.19142,3.86102 3.59105,17.90582 12.4664,12.65756 -9.55651,22.4868 -16.86496,9.78796 -10.092561,19.99706 17.77478,62.11948 32.98482,46.92612 30.62707,-10.82009 12.11379,40.59065 34.68612,46.46366 22.86476,8.21639 37.38286,14.3447 60.94908,13.86975 -4.75825,9.02576 -35.10512,16.92521 -18.40583,37.90253 3.50861,16.52413 29.11956,24.65232 17.60312,39.64104 18.48542,-5.80603 23.13705,4.80483 10.20453,18.35508 -8.53262,12.52871 34.36951,5.32478 19.45808,-7.81293 19.97004,1.44015 15.74725,31.4764 34.6818,34.58262 z m -4.286,-11.22316 c -13.98896,-15.82377 19.19541,-1.47795 0,0 z m -11.68886,-16.20446 c 0.30406,-2.03098 1.50784,3.55804 0,0 z m 12.80057,-1.84087 c -5.22007,-7.99681 7.1145,-0.42055 0,0 z m -20.00865,-1.68302 c -3.28962,-4.28515 5.02624,1.98636 0,0 z m 11.93157,-0.68975 c -0.94901,-3.235 3.28615,1.99892 0,0 z m -5.63543,-4.3966 c -8.97191,4.12554 -2.10213,-7.60565 0,0 z m 7.67077,-6.45228 c -26.22274,-4.21788 17.12792,-12.08412 0,0 z m -28.7123,-4.0042 c -17.68987,-2.61799 5.2545,-8.27763 0,0 z m 52.89501,-18.07947 c -1.04315,-3.23766 4.16495,1.65427 0,0 z m -97.34107,-32.907 c -4.73511,-12.90998 12.76218,-10.29318 0,0 z m 6.61598,-2.59798 c -0.72292,-6.07705 2.59999,1.81591 0,0 z m -17.34477,-24.01216 c -8.48002,-23.38286 28.11889,4.03634 0,0 z m -23.68455,-14.12107 c 1.83028,-18.83474 36.61211,-33.58141 40.82518,-14.4986 -19.90614,-3.72452 -29.30354,9.55598 -40.82518,14.4986 z m 23.48797,-7.34546 c 5.89313,-6.37579 -0.92314,4.00306 0,0 z m 74.66403,-3.25099 c 0.67896,-6.57033 5.06559,3.61988 0,0 z m -47.18876,-3.49943 c 4.22942,-7.59662 5.47663,3.01578 0,0 z m -61.08003,-8.97976 c -6.98744,-8.20767 7.81857,3.28737 0,0 z m 39.28335,-2.50298 c -5.1263,-5.15803 5.01244,-0.17198 0,0 z m -8.83219,-4.38074 c -1.41817,-5.96425 5.56899,5.53607 0,0 z m 6.22823,-4.33516 c -4.70076,-8.82996 9.02088,0.0429 0,0 z m -63.41553,-15.64111 c -33.41587,-12.16212 19.52819,-35.1854 12.68677,-8.48291 -12.30902,-8.42588 -2.76432,12.72472 -12.68677,8.48291 z m -8.58553,-8.54997 1.24284,-0.89669 -1.24284,0.89669 z m 124.52865,-15.22301 c -5.60333,-15.64041 13.86944,4.69099 0,0 z m -81.99409,-1.32589 c -4.68249,-9.45373 7.20544,3.97914 0,0 z m -29.23913,-5.17441 c -9.66301,-9.38288 10.04068,2.83338 0,0 z m 134.37586,0.59843 c 1.85553,-2.15324 0.65674,2.94571 0,0 z m -80.42138,-5.3364 c -0.0654,-8.34944 11.24947,5.71959 0,0 z m 75.80078,-1.31092 c -0.10447,-7.61137 4.63901,6.495 0,0 z m 28.27066,0.27842 c -3.65464,-5.85606 8.2104,4.87403 0,0 z m -39.51155,-2.21416 c -14.74143,-10.01474 20.12927,7.08193 0,0 z m -74.4644,-0.5312 c -1.59906,-7.35092 10.64255,8.3047 0,0 z m 97.90457,-0.0285 c 0.91216,-2.00018 1.01045,2.20933 0,0 z m -38.47638,-4.91021 c 0.78327,-2.21786 1.65749,1.46548 0,0 z m 29.14877,-1.20346 c 0.68346,-3.32529 1.04058,3.64539 0,0 z m 1.17037,-2.11197 c -0.90763,-4.99863 3.88057,4.0644 0,0 z m -27.40427,-0.41646 c 3.84347,-1.62689 -2.22946,-2.52028 0,0 z m 3.64826,-1.07376 c -2.1211,-6.66542 6.30333,2.89082 0,0 z m 14.71547,-1.10064 c -3.80099,-8.12104 5.11875,2.90957 0,0 z m 6.52378,-3.5943 c -2.52484,-4.06242 4.94994,0.40858 0,0 z m -30.42577,-2.98965 c 2.08411,-2.67959 2.24872,3.00607 0,0 z m 32.93811,-8.43733 c 0.65675,-2.94569 1.85549,2.15326 0,0 z m -28.88392,-1.11829 c -4.1535,-4.81056 6.25516,1.29455 0,0 z m -5.51163,-3.61229 c -2.93509,-5.76491 7.17613,5.49074 0,0 z m 5.68401,-0.65562 c -2.20623,-4.72276 6.08493,4.07574 0,0 z m -51.9334,-10.94468 c 0.91662,-4.17868 3.74448,4.64865 0,0 z m -4.76097,-1.91222 c -7.89317,-6.33732 1.4126,-0.9896 3.52594,-0.35671 l -3.52594,0.35671 z m 48.67845,-10.67927 c 1.35942,-2.92317 1.86502,1.56347 0,0 z m 40.04314,-0.56662 c -0.33329,-3.55514 3.63631,2.39746 0,0 z m -64.38236,-2.63555 c 2.14766,-3.20137 2.14765,3.20136 0,0 z m 70.3826,-0.12893 c -0.18864,-11.00683 8.14163,8.52965 0,0 z m -167.86672,-5.89485 c -0.27627,-12.7075 3.88563,2.28654 0,0 z M 103.48946,63.927757 c -33.560937,-11.571801 29.15767,-17.15394 5.45894,0.48906 -1.80424,1.191403 -3.63104,-0.2609 -5.45894,-0.48906 z m 16.15712,-11.51253 c -9.13794,-31.081758 28.5167,3.730672 0,0 z M 96.21547,44.714004 c -21.870946,-7.440694 12.7323,-30.308917 3.98735,-1.953179 l -1.461133,1.929701 -2.526217,0.02348 z m 94.731,381.128706 c 0.49069,-7.00354 -4.48991,4.85491 0,0 z m 114.94582,-2.44827 c -2.4397,-1.44936 -0.25801,3.69058 0,0 z m -144.57793,-0.35601 c 13.07707,-2.08358 0.26113,-7.87859 0,0 z m 91.08121,-2.98787 c -3.38489,-0.69627 3.37619,5.42181 0,0 z m -5.27693,0.47061 c -2.36089,-0.28269 2.61288,1.92751 0,0 z m 58.77365,-0.57577 c -0.40018,-7.51284 -2.62933,4.90909 0,0 z m -164.36024,-0.42832 c 13.89967,0.19995 12.71057,-8.47941 0,0 z m 173.68785,-4.31881 c -2.60871,-7.64218 -1.94688,11.32718 0,0 z m -146.32686,1.66253 c -1.26166,-2.27451 -1.26165,2.27449 0,0 z m 62.18371,-7.98931 c -8.44394,-14.79155 -0.20847,5.43426 0,0 z m 112.70895,-0.44911 c -1.07333,-4.81535 -3.84354,2.27777 0,0 z m 5.51613,-0.46804 c 0.60638,-12.15516 -12.55201,-7.43785 0,0 z m 3.25523,-0.92919 c -3.20198,-5.14205 0.3482,3.74071 0,0 z m -17.25355,-6.11604 c -0.24411,-7.70948 -4.31124,3.02106 0,0 z m 19.38453,-1.49635 c 2.96535,-10.3004 -9.75085,-6.69758 0,0 z m -166.228,-3.66596 c -6.47717,-11.25521 -7.25958,2.47809 0,0 z m 152.12123,-0.0462 c 1.96611,-14.90519 -6.90249,0.33119 0,0 z m -10.09713,-1.51528 c -2.36089,-0.28269 2.61288,1.92751 0,0 z m -92.84479,-3.77793 c -5.02321,1.00503 3.04373,7.85284 0,0 z m 86.59689,3.08731 c -2.88685,-16.36218 -18.4971,5.18168 0,0 z m -144.26666,-1.55889 c -3.76171,-2.18407 1.41295,2.411 0,0 z m 43.72316,0.20739 c -1.72434,-2.03264 -0.19391,2.70375 0,0 z m 104.9356,-2.5588 c -1.26164,-2.27445 -1.26164,2.27445 0,0 z m -131.75247,-8.05031 c -2.16729,-1.293 -0.2265,2.79195 0,0 z m 141.66305,-10.26295 c -0.65672,-2.9457 -1.85552,2.15324 0,0 z m 2.10028,-3.57147 c -4.84019,-3.67855 0.77363,4.69041 0,0 z m 3.72948,0.30932 c -0.98306,-5.12592 -3.62406,3.03429 0,0 z m -16.90629,-1.46843 c -1.26164,-2.27447 -1.26166,2.27449 0,0 z m -9.91059,-31.68649 c -1.03329,-7.96327 -3.7601,3.7672 0,0 z m -21.57009,-2.64413 c -1.31727,-4.40758 -1.31733,4.40755 0,0 z M 281.05829,321.9535 c 2.9954,-7.53473 -4.57971,4.40046 0,0 z m 25.41698,-68.33623 c -2.16729,-1.293 -0.2265,2.79195 0,0 z m 0.80603,-28.14045 c 19.98743,-13.3376 -21.07893,-7.01167 0,0 z m -1.28675,-2.96026 c -0.7833,-7.82137 5.43052,5.54259 0,0 z M 286.6541,157.81064 c -4.06081,-6.28984 -4.89403,3.9169 0,0 z M 92.258833,154.19285 c 22.430167,-4.92228 -11.474916,-6.94124 0,0 z m 222.086607,-5.39307 c -1.29308,-2.66845 -1.20899,2.25081 0,0 z M 110.38706,137.65839 c -5.31542,0.94218 -5.5154,9.04989 0,0 z m -5.04271,0.33793 c 4.70556,-21.92887 -21.723195,8.31249 0,0 z M 52.880911,120.7338 c -6.79614,-11.28183 -18.084834,-1.20098 0,0 z m -0.167326,-7.13026 c 16.353522,5.82688 22.954446,-23.928953 5.967467,-5.37388 -1.855564,1.2775 -17.69595,6.66611 -5.967467,5.37388 z m -36.274658,-8.04766 c 17.505746,-3.4722 16.108344,-44.890789 0.652835,-16.234151 -2.279769,4.573498 -6.587792,12.523691 -0.652835,16.234151 z M 18.43504,94.845684 c -3.613232,-8.656932 7.208035,-3.660767 0,0 z m -6.945392,7.659026 c -0.420294,-5.479228 -2.096137,4.14765 0,0 z M 76.199932,46.278201 c -3.188795,-2.905657 2.027171,4.168607 0,0 z"
       id="path3153"
       inkscape:connector-curvature="0" />
    <path
       style="fill:#364c1e"
       d="m -3.0847402,280.94916 c 0,-94.0565 0,-188.112994 0,-282.169491 174.8926602,0 349.7853202,0 524.6779802,0 0,188.113001 0,376.225991 0,564.338991 -159.88037,0 -319.76075,0 -479.641125,0 8.571847,-26.17493 -24.820606,-16.51404 -28.775123,-16.61582 -4.9344953,-15.93371 -15.299069,20.23545 2.882292,9.86665 18.866691,-6.54698 20.231031,12.06511 0.337908,6.38889 -22.6266113,8.53378 -20.1063618,-12.89094 -19.4819322,-27.64557 0,-84.72121 0,-169.44243 0,-254.16365 z m 46.6317322,276.1734 c 5.571016,-16.62021 -14.484303,-14.7342 0,0 z m 431.993758,-0.35022 c -13.92111,-3.38445 -7.7595,-18.52798 -13.35974,-13.62925 -11.8295,7.13473 6.42336,16.48674 13.35974,13.62925 z m 17.11344,-1.74122 c -2.05291,-10.76755 -19.33383,-1.88525 -2.59415,-1.91546 -11.90899,-2.39821 -1.09224,5.19272 2.59415,1.91546 z m 15.88824,-1.90596 c -3.73069,-20.41343 -38.29531,-11.0105 -10.81815,-2.82794 4.18014,-2.69332 10.15932,-4.1348 10.81815,2.82794 z m -12.85855,-8.92244 c -2.75177,-7.3099 6.53401,5.16458 0,0 z m 16.60603,5.48928 c -0.0617,-5.88785 -4.82161,4.70705 0,0 z M 267.27016,459.3601 c -2.32005,-6.70673 -6.9968,3.64517 0,0 z m -8.74575,-2.91239 c -21.17831,-15.2696 39.68282,-35.97462 21.2328,-14.09957 28.42327,6.13961 58.34951,-10.47181 83.71061,-19.69082 10.21874,-11.421 -13.32753,-42.64469 -14.4553,-23.03712 -21.59063,-9.44722 -43.6176,-26.62592 -30.63051,-51.3731 -10.45998,-20.04365 -70.67965,-6.19579 -49.30677,-44.26134 12.55727,-28.84749 45.35595,-46.70845 40.13465,-81.64538 3.92739,-32.4082 55.59518,6.31055 52.93379,-33.64372 -2.79836,-25.61722 -0.61663,-50.63984 1.83596,-75.89013 C 358.85671,65.926623 310.05051,38.612776 266.78132,36.201659 229.99993,34.732504 194.84478,46.148269 157.92058,40.084048 123.01104,41.425921 100.13819,10.899078 69.006721,2.3793803 52.497078,0.62397515 45.210423,16.139474 67.382574,12.224522 c 16.608639,2.723002 -7.463213,20.421037 8.279382,31.752864 16.055124,17.960893 -1.884889,35.799144 -5.664685,49.091919 27.291566,-3.41553 26.336294,31.579755 47.351249,43.941235 5.02799,16.14725 -42.093762,13.17844 -9.50925,23.34116 19.57885,4.04415 18.76607,52.3507 -5.68715,39.16084 -11.952026,29.17871 22.66194,56.87926 46.01447,48.26993 10.38836,22.87386 16.10099,53.86163 46.59802,52.52097 34.92674,6.80372 -4.31707,40.97493 24.41736,54.80052 30.75464,14.31094 -18.53957,42.19808 15.42354,54.04513 16.01844,3.23046 57.78408,-11.44698 36.94177,19.00115 -11.86176,-2.08553 -10.29402,-16.17598 -11.00319,2.49081 -10.73791,0.13404 -16.66401,-7.04814 -27.47596,0.63984 -13.39061,-13.80807 -22.04124,-40.61962 -35.54265,-10.93305 -32.36358,22.47365 45.4722,24.70017 37.40211,21.49879 11.41947,6.79654 14.12668,6.55652 23.59682,14.60108 z M 286.07112,439.557 c -7.81413,-5.68197 7.92566,0.10408 0,0 z m -76.95277,-0.59885 c -17.972,-7.75642 19.39099,-0.74786 0,0 z m 41.07852,-3.3138 c -0.0638,-4.44433 3.55714,2.52068 0,0 z m 19.55094,-3.44905 c 1.19236,-8.86482 4.25004,5.01816 0,0 z m -57.22721,-8.81338 c -6.32596,-5.57113 9.41726,3.44873 0,0 z m 87.39619,-0.26134 c -3.79089,-6.98467 9.0129,4.94348 0,0 z m -18.80096,-0.61639 c 1.42206,-2.86899 1.56155,2.53808 0,0 z m 21.41386,-3.29197 c 0.45456,-3.02908 0.45465,3.02898 0,0 z m 19.2207,-1.07459 c -2.57574,-7.54673 9.65025,7.70099 0,0 z m -106.80228,0.13402 c 1.20728,-2.42094 1.20728,2.42094 0,0 z m 75.83804,-2.53676 c -7.39372,-11.33121 10.86998,-1.92286 0,0 z m -82.51736,-1.66328 c 2.32381,-0.7607 2.05057,-0.67126 0,0 z m 108.70004,-0.23989 c 0.1166,-2.78657 1.73982,2.11867 0,0 z m -10.13761,-1.47267 c -4.95958,-10.07826 8.46187,-1.9597 0,0 z m -96.54691,-2.16701 c -8.85652,-7.67279 8.97904,2.29336 0,0 z m 20.76821,-3.43566 c -14.89749,-16.31735 20.48221,-5.25005 0,0 z m 93.06642,-1.96177 c -1.58071,-10.20787 9.1825,3.26501 0,0 z m -14.26189,-1.08297 c -9.74002,-17.1857 10.71373,9.14138 0,0 z m 28.38854,-2.18107 c -12.70532,-4.96948 1.50212,-12.84133 0,0 z m -77.03115,-0.549 c -12.99351,-11.27702 15.00961,-1.66817 0,0 z m 56.33736,-1.3757 c -1.95903,-10.02304 10.15403,7.9997 0,0 z m -84.74227,-5.08348 c 0.89819,-3.09462 0.86267,2.65867 0,0 z m 7.35227,-0.24094 c -8.74562,-15.757 15.93062,-10.59595 0,0 z m -17.92484,-6.10367 c -0.58725,-7.1102 5.36037,4.50001 0,0 z m 12.5637,-2.15059 c 7.11815,-2.59974 -7.05656,5.19707 0,0 z m 48.43952,-4.49659 c -9.08051,-7.50547 7.73987,6.12774 0,0 z m -25.381,-0.68487 c 0.39031,-6.35071 4.98393,5.6445 0,0 z m 48.58519,-0.58245 c -14.15887,-4.1063 4.9114,-7.44864 0,0 z m -54.56763,-3.16163 c 2.87213,-4.60537 2.83782,6.19274 0,0 z M 209.99869,338.3313 c -2.20881,-5.08652 4.66837,2.06186 0,0 z m 2.89563,-9.507 c -2.87577,-11.26841 6.5987,-3.31238 0,0 z m 15.60797,-15.12677 c -23.5829,-23.54066 26.50803,-5.39882 0,0 z m 33.88574,-9.45238 c -9.73452,-23.03055 20.25832,-10.88567 0,0 z m -59.44063,-0.61206 c -6.82394,-21.6834 21.56765,3.49911 0,0 z m -25.23929,-14.38552 c -2.71312,-21.19364 19.8591,3.84441 0,0 z m 12.75503,-9.70176 c 1.87045,-16.76384 21.08391,-5.42238 0,0 z m 28.91837,-0.75408 c -30.70877,-10.07871 7.10829,-20.04581 0,0 z m 57.65349,-0.19398 c 1.42204,-2.86896 1.56155,2.53805 0,0 z m -82.49103,-11.63447 c -0.85347,-12.47082 5.68654,6.84676 0,0 z m 97.93456,-3.65489 c -2.08105,-4.62928 4.73803,1.79693 0,0 z m -87.76685,-8.73989 c -2.13065,-7.55542 5.69767,1.6522 0,0 z m -63.89493,-16.29747 c -30.55784,-9.98411 19.79032,-31.57216 7.93036,-9.80394 -5.4881,0.90347 0.14362,16.19669 -7.93036,9.80394 z m 156.91389,-1.31979 c -15.96556,-12.56622 15.86174,-10.81947 0,0 z m -3.10921,-10.86837 c -2.46137,-1.97389 2.66126,0.16039 0,0 z m -1.27518,-3.63273 c 1.43279,-2.21152 1.06833,-1.64898 0,0 z m 1.6357,-4.22338 c -5.167,-9.55185 8.12675,0.66844 0,0 z m -119.55958,-3.68148 c -5.3263,-6.54627 6.41484,1.8798 0,0 z m -30.89771,-6.58396 c -4.18812,-4.59889 4.8281,0.89375 0,0 z m 205.99327,-1.29182 c -9.40157,-3.76306 6.50064,0.0442 0,0 z m -150.14421,-2.44211 c 0.52005,-7.50113 4.49608,2.77418 0,0 z m 104.0579,-0.87772 c -1.13803,-4.45409 5.29005,6.22783 0,0 z m -38.76464,-1.46772 c -10.38296,-8.70804 16.68728,6.61002 0,0 z m 67.54211,0.0504 c -30.54465,10.84306 -49.80122,-26.07121 -62.48609,-36.27419 -20.53312,-3.91639 -45.56578,-0.18744 -42.12577,24.33106 -18.4873,20.6011 -68.46822,-33.30343 -33.18421,-26.21757 30.50117,-14.75768 65.09792,-10.45378 102.25868,-16.07074 31.44426,-13.22328 85.60889,31.03118 42.49104,52.48707 l -3.30917,0.97442 -3.64448,0.76995 0,0 z M 223.69274,161.43983 c -3.88195,-2.33785 0.0565,5.40361 0,0 z m 20.64461,-2.10797 c -4.88593,-5.68573 -9.77982,8.23365 0,0 z m 19.28922,-0.18586 c -1.32724,-2.31999 -1.07451,2.8672 0,0 z m 23.90199,-1.34074 c -6.08012,-5.40356 -7.67548,5.97146 0,0 z m -97.39335,42.86416 c 0.9557,-6.18809 5.35379,8.49617 0,0 z m 80.82458,-11.15101 c -0.92059,-2.31383 1.43885,0.64762 0,0 z m -149.85023,-9.64907 c -3.51924,-8.85002 7.75138,3.76264 0,0 z m 130.40812,-5.95843 c -3.01922,-1.79642 2.97975,-0.9332 0,0 z M 193.671,154.44513 c 2.74926,-5.77473 4.659,4.92911 0,0 z m 38.9316,-5.56845 c -1.22796,-9.48174 7.54655,7.03107 0,0 z m 56.67489,-6.19057 c 1.56155,-2.53805 1.42204,2.86896 0,0 z m 9.03612,-0.47028 c 1.20727,-2.42092 1.20727,2.42092 0,0 z M 121.33638,126.16859 c -26.113363,8.30314 -9.79587,-47.599297 -2.48307,-15.86332 0.98331,4.39113 15.93463,16.55661 2.48307,15.86332 z M 103.26376,63.643946 c -35.050101,-14.35146 27.14508,-9.749756 0,0 z m 8.30494,-6.094508 c -7.5461,-8.120989 12.18174,6.441738 0,0 z m 8.30339,-5.234442 c -6.63417,-25.391211 22.58136,5.781725 0,0 z m 48.01289,-1.618101 c 1.02444,-2.339085 1.38496,1.56712 0,0 z M 79.441451,49.061709 c -11.50251,-7.330106 4.48034,-7.677825 0,0 z M 89.899857,40.68103 c -2.508017,-20.580524 18.248273,7.406016 0,0 z m 38.767873,-0.488747 c 0.6193,-2.365015 1.68218,1.610525 0,0 z M 91.940272,27.494656 c 0.497298,-3.082183 1.90336,2.259178 0,0 z M 279.52479,449.6924 c -1.21606,-3.61874 -2.07661,2.91971 0,0 z m -11.96368,-0.84358 c 13.75604,-8.63705 -12.71457,0.82244 0,0 z m -94.00426,-19.58104 c -2.57924,-1.91657 0.34867,3.56884 0,0 z m -1.74893,-2.85748 c -6.38472,-4.6586 2.89683,12.91691 0,0 z m 86.15827,0.85511 c -2.38717,-6.04901 -3.3827,4.81935 0,0 z m -95.00604,-1.13937 c 26.81674,-14.08497 -21.6,-7.69902 0,0 z m -23.29561,-2.83893 c 15.04196,1.47638 32.79443,-28.7443 7.60838,-12.6638 -6.9353,0.98154 -26.23147,12.73334 -7.60838,12.6638 z m 113.65015,-2.2921 c 2.1439,-12.71121 -6.5136,5.8597 0,0 z m -5.15997,-4.59456 c 9.76672,-3.49929 -1.97983,-7.74156 0,0 z m 7.60168,-4.03509 c -2.0915,-2.85431 -0.35355,3.8334 0,0 z m -113.26338,-5.63932 c 11.71071,1.06309 9.37764,-2.9029 0,0 z m 55.5488,-2.59378 c 1.99042,-8.30621 -5.30231,3.02742 0,0 z m 4.08083,-1.34634 c 1.21662,-6.85162 -4.9366,1.21473 0,0 z m 9.91058,-0.29649 c -2.08437,-1.65173 -0.90839,3.15126 0,0 z m -31.35366,-2.88497 c 19.61099,15.11684 29.52272,-44.90632 14.86648,-11.16549 -12.71793,0.0286 -24.95452,9.42499 -14.86648,11.16549 z m 19.69415,-20.10336 c 0.90838,-3.15128 2.08437,1.65175 0,0 z m 18.07224,11.56231 c -5.79977,-9.2657 -10.86833,5.05462 0,0 z m -29.72006,-3.60663 c 0.51529,-5.51918 -3.76827,5.26489 0,0 z m 155.38917,-1.21379 c -3.16613,-1.52115 -0.6101,3.74532 0,0 z m -133.24779,0.43919 c -0.76059,-6.31128 -5.92269,2.21238 0,0 z m 115.66825,-8.73725 c 19.45938,1.699 14.47832,-23.65552 -2.01195,-14.2686 -0.83472,4.97955 2.32924,9.33708 2.01195,14.2686 z m -102.25981,-1.97095 c -3.30961,-4.35088 -3.55489,6.08749 0,0 z m -8.36094,-7.78741 c -5.97148,-8.22127 -5.86163,3.18683 0,0 z m 102.63695,-31.92366 c 2.02235,-10.63205 -8.32271,0.9904 0,0 z m -22.23893,-5.03645 c 4.80115,-16.78247 -5.02323,8.1426 0,0 z m -15.16722,-8.17191 c 7.61058,-11.55845 -7.37534,-1.15282 0,0 z m 7.84042,-38.37088 c -2.26407,-3.4365 -0.18613,4.68069 0,0 z m -0.51758,-5.10707 c -4.87707,-7.1307 3.33428,14.1331 0,0 z m 10.65618,-3.44783 c -0.41522,-11.09551 -1.37917,11.89847 0,0 z m 8.77166,-9.10673 c 7.43596,-6.21051 -6.2425,-2.65415 0,0 z m 25.39588,-45.6101 c 9.79521,-10.61332 -12.94773,-3.91683 0,0 z m 8.41293,-4.55269 c -1.69739,-7.45074 -4.60642,5.59307 0,0 z M 107.34823,141.65826 c 1.52863,-29.0598 -23.807752,8.88813 0,0 z m -55.143028,-22.2245 c 5.42166,-10.32018 29.143454,-20.281846 7.252444,-8.99944 C 33.812832,120.98748 29.74134,83.817982 31.805503,74.876702 9.2063898,75.167545 7.7794886,120.87361 32.340626,103.88568 c 6.040906,4.59549 9.624046,22.67463 19.864576,15.54808 z M 18.779764,94.125903 c -2.570659,-7.793612 6.289122,-1.405253 0,0 z m 9.424051,24.743507 c -2.801103,-16.81174 -16.932626,6.30627 0,0 z m -5.591352,436.06431 c -15.1461865,-16.93991 21.045445,-3.35208 0,0 z"
       id="path3151"
       inkscape:connector-curvature="0" />
    <path
       style="fill:#020300"
       d="M -10.554415,280.94916 C -8.0645234,184.36159 -5.5746318,87.774019 -3.0847402,-8.8135513 24.164138,-21.295506 58.267213,8.704614 50.981558,14.921074 78.247739,-2.0661785 70.582214,58.861739 66.295791,42.173885 94.079296,58.511878 76.330495,104.54339 47.726636,106.0071 17.444667,109.75371 53.855491,65.608513 24.27257,75.15724 1.7411218,85.463308 6.949944,124.68912 34.485146,119.55936 c -18.668495,-31.572169 16.401298,17.033 27.05262,-5.02939 9.663429,-15.834812 23.759936,-29.996053 30.836688,-5.22003 22.558856,16.90092 -19.763104,52.66874 14.454586,49.99076 14.16716,6.39378 17.31934,53.92047 -3.9265,35.73753 -14.144781,21.3473 17.35515,70.31576 38.4606,50.81664 21.93266,6.86082 11.41634,61.14634 50.56141,53.31599 9.22532,9.76638 23.39855,12.8446 14.04268,33.08273 10.96855,13.72733 17.01081,34.99306 -8.46989,36.89679 -18.7573,3.98388 -69.03639,25.39526 -43.41712,47.11276 41.613,10.71113 87.2103,7.26417 126.01537,27.9089 27.64057,25.16087 50.89184,-27.72601 79.78559,-30.50673 -16.90012,0.30163 3.80072,-34.32999 -22.54489,-29.95042 17.30296,-21.99642 -17.64566,-56.57747 -34.96919,-49.90535 -5.20848,-15.68826 -17.88304,11.35246 -19.63872,-12.61392 0.15402,-16.66252 -16.94432,18.10707 -18.14502,-3.17003 5.57373,-19.88844 21.73531,-44.17656 40.03445,-44.56378 11.31226,-21.07869 4.73401,-60.1369 39.25195,-49.44021 26.79088,-14.40938 17.97741,-50.66173 17.29197,-75.73177 C 374.15331,110.8086 355.16259,67.75044 319.65408,50.797222 287.52424,34.155342 249.17979,31.259584 214.55699,40.798483 182.15802,40.82649 147.18178,43.21121 117.84738,27.854682 107.28439,15.007698 68.234912,8.6936693 70.32019,-3.5038322 c 129.00023,-16.2804618 259.35155,-4.187495 388.95872,-7.4792108 22.90563,0 45.81127,0 68.71691,0 1.29578,145.085093 -2.90295,290.501493 10.61057,435.169563 1.54392,46.29758 5.7078,94.92795 -9.8428,139.23707 -23.42726,35.82897 -70.78847,23.13175 -105.72324,17.67134 -128.31556,-20.57583 -258.22899,-8.39972 -387.184238,-3.26967 -34.6312865,8.79799 -64.992517,-22.39245 -60.342107,-56.9833 7.773315,-79.64426 16.8617138,-159.69514 13.93158,-239.8928 z M 329.53712,341.8657 c -0.17687,-3.25361 -5.03158,6.30027 0,0 z m -56.29146,-29.35003 c -2.99748,-5.25964 -6.31286,4.271 0,0 z m 48.72938,67.78067 c 1.51128,-7.46676 0.50123,5.65083 0,0 z m 9.66486,-1.55677 c 0.66116,-5.07591 2.64427,3.47594 0,0 z m -123.88182,-5.92856 c 0.40416,-6.76283 10.23707,1.59121 0,0 z m 108.67481,-1.28674 c -3.18502,-9.0362 6.32341,3.23418 0,0 z m -95.94064,-4.03546 c -13.05097,3.91834 2.05586,-6.23355 0,0 z m 8.8845,-54.12218 c -7.82338,-14.3866 12.70543,-3.19662 0,0 z m 34.22196,-14.42916 c -1.09048,-17.48467 7.24983,11.71824 0,0 z m -58.10797,2.11627 c -13.31275,-12.91415 20.58211,3.14025 0,0 z m -27.4871,-12.82822 c -0.18135,-7.14859 6.17251,3.72255 0,0 z m 29.79638,-15.82227 c -5.33773,-6.3972 6.8984,-0.53299 0,0 z m 92.84549,-5.97734 c -0.37848,-4.3881 2.71147,2.44155 0,0 z M 141.14776,237.33046 c -30.36851,-10.24471 19.9267,-27.16447 4.15487,-10.33802 -7.43564,0.43217 6.3683,14.40355 -4.15487,10.33802 z m 204.342,-19.04644 c -5.6026,-9.48736 11.05999,1.82333 0,0 z m -36.39887,-3.38796 c 8.9363,-17.458 45.30683,4.56841 11.5726,1.03649 -3.71916,1.01124 -8.37609,1.98213 -11.5726,-1.03649 z m -42.70541,-13.22551 c -5.8129,-7.92273 13.53835,8.0263 0,0 z m 58.72005,-1.56993 c -36.24143,14.67355 -63.49693,-51.57793 -16.42571,-50.77098 32.06335,-10.21486 66.62609,36.44051 27.7786,51.22701 -3.72563,0.91233 -7.71619,0.79245 -11.35289,-0.45603 z m 17.51422,-30.34551 c -1.39757,-4.73978 -3.16548,3.76164 0,0 z m -3.49785,-1.20346 c -1.60453,-2.63976 -1.53355,2.37931 0,0 z m -123.29933,21.89532 c -19.29322,13.31838 -48.52476,-42.73051 -16.93388,-25.40533 2.69656,14.11973 31.62411,-26.11896 34.76802,5.23323 5.75484,11.46136 -4.86304,26.57828 -17.83414,20.1721 z m 54.50821,-23.67599 c -18.17047,6.46613 -25.36865,-16.3772 -4.10338,-7.32426 11.3151,-8.49817 3.3831,1.23689 4.10338,7.32426 z m 13.69993,-6.68442 c 1.20902,-2.25081 1.29306,2.66847 0,0 z M 104.03106,149.48618 c 5.31062,-28.20485 25.42107,0.76239 0,0 z M 110.718,131.8268 c 0.2711,-12.12525 5.99324,9.01034 0,0 z m 4.17063,-7.88199 c -21.388753,-23.22986 23.85649,-6.63916 0,0 z M 19.743584,112.18076 c -6.089148,-14.47522 7.258352,1.16598 0,0 z m 92.892316,-5.6874 c -6.75711,-12.046542 17.73723,-4.53429 0,0 z m -92.110131,-1.90013 c 0.912172,-2.00017 1.010443,2.20933 0,0 z M 103.15234,63.150375 c -28.96122,-12.195536 17.84631,-9.236461 0,0 z m 17.37424,-11.197868 c -6.07497,-13.440203 11.14265,-3.219081 0,0 z M 79.686091,48.383105 c 0.374529,-3.954541 4.050972,5.394631 0,0 z m 84.303979,-0.988806 c 0.49322,-7.137306 5.47893,2.92101 0,0 z M 77.41599,43.715161 c 1.187721,-5.270809 0.252387,4.90285 0,0 z m 12.201305,-5.784475 c 9.449956,-12.391568 13.495895,10.23365 0,0 z"
       id="path3149"
       inkscape:connector-curvature="0" />
  </g>
</svg>
