<?xml version="1.0" encoding="UTF-8" standalone="no"?>
<svg
   xmlns:dc="http://purl.org/dc/elements/1.1/"
   xmlns:cc="http://creativecommons.org/ns#"
   xmlns:rdf="http://www.w3.org/1999/02/22-rdf-syntax-ns#"
   xmlns:svg="http://www.w3.org/2000/svg"
   xmlns="http://www.w3.org/2000/svg"
   xmlns:sodipodi="http://sodipodi.sourceforge.net/DTD/sodipodi-0.dtd"
   xmlns:inkscape="http://www.inkscape.org/namespaces/inkscape"
   sodipodi:docname="plague_doctor.svg"
   height="100%"
   width="100%"
   inkscape:version="0.48.4 r9939"
   version="1.1"
   id="svg2"
   viewBox="0 0 512 512">
  <sodipodi:namedview
     pagecolor="#ffffff"
     bordercolor="#666666"
     borderopacity="1"
     objecttolerance="10"
     gridtolerance="10"
     guidetolerance="10"
     inkscape:pageopacity="0"
     inkscape:pageshadow="2"
     inkscape:window-width="1185"
     inkscape:window-height="1030"
     id="namedview44"
     showgrid="false"
     inkscape:zoom="0.23046875"
     inkscape:cx="47.796986"
     inkscape:cy="610.58696"
     inkscape:window-x="100"
     inkscape:window-y="100"
     inkscape:window-maximized="0"
     inkscape:current-layer="svg2" />
  <metadata
     id="metadata48">
    <rdf:RDF>
      <cc:Work
         rdf:about="">
        <dc:format>image/svg+xml</dc:format>
        <dc:type
           rdf:resource="http://purl.org/dc/dcmitype/StillImage" />
        <dc:title></dc:title>
      </cc:Work>
    </rdf:RDF>
  </metadata>
  <defs
     id="defs46">
    <filter
       color-interpolation-filters="sRGB"
       inkscape:menu-tooltip="Increase or decrease lightness and contrast"
       inkscape:menu="Color"
       inkscape:label="Lightness-Contrast"
       height="1"
       width="1"
       y="0"
       x="0"
       id="filter3108">
      <feFlood
         flood-color="rgb(0,0,0)"
         flood-opacity="1"
         result="result1"
         id="feFlood3110" />
      <feBlend
         result="result2"
         mode="normal"
         in2="SourceGraphic"
         id="feBlend3112" />
      <feComposite
         result="result3"
         operator="arithmetic"
         k2="1"
         in2="SourceGraphic"
         id="feComposite3114" />
      <feComposite
         operator="in"
         in2="SourceGraphic"
         id="feComposite3116" />
    </filter>
  </defs>
  <rect
     y="-1.9108258"
     x="-3.0681245"
     height="518.513"
     width="516.97894"
     id="rect3171"
     style="opacity:0.98999999;fill:#000000;fill-opacity:1;fill-rule:nonzero;stroke:none" />
  <g
     id="g3014"
     transform="matrix(0.75779202,0,0,0.93408119,621.47583,35.851771)">
    <path
       style="fill:#d4ad92"
       d="m -810.96613,487.9661 c 2.66093,-34.22225 42.22492,-49.83108 50.7939,-82.23663 23.50035,-31.03177 55.22232,-54.65102 80.26436,-84.07299 19.56675,-29.25116 9.7809,-95.52133 -35.84943,-85.90288 -27.15534,4.22114 -87.65071,24.50658 -85.31131,-21.31082 17.18736,-34.20291 59.32843,-40.19874 89.15674,-58.89376 30.61328,-28.61584 -30.86072,-49.29729 -22.68946,-81.490061 7.146,-30.57615 44.95644,-21.399947 66.48906,-35.575488 33.09565,-14.939404 65.25276,-33.1867751 101.86143,-38.08887159 24.7592,-2.51872181 47.73052,-15.85602141 72.20923,-16.15650741 34.7298,4.299425 26.66768,40.275795 32.21911,64.264192 7.41086,40.667209 48.94904,22.143355 76.66679,19.874916 24.71459,-8.700498 80.73229,9.545408 46.40861,39.36019 -28.02036,10.45177 -82.14939,45.50144 -35.71957,71.0574 33.22128,11.38216 70.18418,12.10806 99.94663,33.34809 35.19413,16.60071 61.94132,45.49405 74.06844,82.65501 9.70845,11.76308 17.54471,30.73163 -5.0835,21.18957 -25.4921,-14.9161 -52.0059,-29.87055 -82.56816,-29.35904 -52.80832,-2.24905 -101.45254,22.8055 -144.13613,51.33596 -38.64017,11.39616 3.35461,44.22654 25.79077,47.29061 26.27512,6.41714 44.27827,26.95221 61.96764,45.69248 12.91201,21.08048 49.83562,75.8097 6.55001,81.89148 -25.8337,-3.64273 -51.29438,-3.24835 -77.21342,-2.11888 -131.93989,0.60706 -263.88124,0.0507 -395.82174,0.24607 0,-7.66668 0,-15.33336 0,-23.00004 z m 42,-64 c -3.19534,-5.17714 -3.19534,5.17714 0,0 z m 340.50227,-146.00367 c 18.32015,2.26458 1.47145,-9.2505 -4.4e-4,0 l 4.4e-4,0 z m 21.49773,-7.05535 c -3.16389,-2.74899 -1.04693,4.37904 0,0 z m 22.37466,-6.31997 c 8.69074,-6.20371 -16.72011,6.91551 0,0 z m 7.59638,-1.58195 c 3.10325,-6.82238 -7.98894,5.78605 0,0 z m -36.00246,-99.34808 c -1.42201,-10.23529 -7.21222,2.90259 0,0 z m -17.61981,-14.43468 c -18.25255,-21.5401 7.70212,17.35967 0,0 z m 26.58784,1.4937 c -2.73797,-12.56127 0.50208,18.87101 0,0 z m -71.93661,-89.290377 c -11.65515,-16.614517 -25.83661,12.928753 -2.89621,0.975303 l 1.54187,-0.519226 1.35434,-0.456077 z m -234.64903,-7.9874 c -2.84238,-9.957891 -7.74997,0.845696 0,0 z m 214.81052,-20.819381 c 12.61185,-23.9808568 -12.61676,11.198306 -1.30963,2.8928 l 0.67099,-1.482133 0.63864,-1.410667 z m -2.43052,-44.34583 c -5.07139,-4.813521 -3.02935,2.9680875 0,0 z"
       id="path3028"
       inkscape:connector-curvature="0" />
    <path
       style="fill:#9f9da1"
       d="m -810.96613,488.4661 c -1.9783,-32.31139 43.2623,-40.20297 45.3603,-72.88355 19.89528,-33.92885 51.85573,-57.65286 79.92609,-84.07641 21.31382,-26.02256 23.63335,-71.933 -4.67672,-93.56707 -30.90385,-13.90755 -63.37562,9.25384 -95.08315,4.35901 -35.31198,-19.4027 0.69068,-58.48562 27.66788,-64.48481 20.90919,-8.97642 58.58877,-16.20019 52.5885,-46.57355 -16.42255,-20.90392 -47.35665,-61.72156 -6.73475,-76.672745 30.218,-10.428545 60.53602,-20.194495 88.36739,-36.303716 36.34528,-14.3716735 74.83544,-22.4174667 112.74072,-31.199721 29.56058,-9.024821 52.16113,14.461851 44.5241,43.244039 3.45823,26.254934 18.27034,55.29647 51.23135,43.52882 27.12509,-5.283968 59.64132,-12.798933 83.61844,5.260761 9.54676,34.542072 -39.61079,47.132762 -64.7375,56.533572 -20.15635,-3.48866 -4.50888,33.59317 -5.80645,8.04383 9.46865,24.12954 26.80428,45.26521 55.05147,42.49556 48.17846,10.46944 96.08193,32.97606 127.315,72.06752 9.44001,13.33816 4.7319,23.00644 -7.00742,7.4865 -36.29055,-9.29039 -43.50301,-51.74911 -77.82089,-60.13469 -23.3648,4.27367 -54.96388,-25.72156 -70.4165,-6.34439 4.64902,11.91737 38.27149,15.78942 9.81533,25.50773 -1.78434,6.76339 23.39273,19.68615 0.41549,26.4666 -24.02614,12.39695 -53.90435,12.13706 -64.02546,-16.84312 -23.4215,-9.48232 -57.25648,30.38017 -46.95995,52.56607 26.29948,11.60754 54.32303,-5.40648 79.03638,-14.34636 39.47244,-15.6227 84.17253,-16.03746 125.37852,-7.61702 29.90948,7.69396 60.9477,22.3347 79.19453,47.65768 -2.61484,12.55037 -31.80555,-14.67544 -46.15388,-15.53295 -56.64406,-24.075 -121.02432,-4.76066 -171.32608,25.40782 -21.74916,6.79216 -54.11632,31.19468 -26.71191,53.15083 30.97955,4.27297 58.89025,23.2232 80.67339,45.57071 21.5614,22.4532 35.97122,52.5304 40.41449,82.81401 -11.60512,13.62366 -32.53208,4.84682 -48.5675,6.91904 -149.09707,0 -298.19414,0 -447.29121,0 0,-7.5 0,-15 0,-22.5 z m 585,-231.55902 c -3.16389,-2.74899 -1.04693,4.37904 0,0 z m -4,-4.94098 c -1.80018,-4.41351 -1.55711,3.99726 0,0 z m -182.8962,-15.2962 c -10.58435,-5.73677 4.12709,6.7494 0,0 z m -35.57019,-23.8895 c 14.97262,-7.69992 17.23888,-17.07153 1.61269,-2.91001 -1.15737,-0.51386 -14.99737,8.95401 -1.61269,2.91001 z m 23.44291,-28.3143 c -3.82031,-23.95555 34.22085,-65.40339 -12.86634,-66.22066 -16.06793,-0.4917 -40.18012,23.70634 -42.05283,18.74076 34.32674,-20.28762 61.71347,34.93658 54.91917,47.4799 z m -4.51764,-34.56653 c -0.13046,-8.02764 4.62365,6.66981 0,0 z m 17.29112,19.43624 c 7.22166,-23.23889 -23.9238,-1.22202 0,0 z m -44.75,-95.310687 c 0.007,-6.263566 -3.83252,3.453528 0,0 z m -19,-12.5994 c -11.65515,-16.614517 -25.83661,12.928753 -2.89621,0.975303 l 1.54187,-0.519226 1.35434,-0.456077 z m -19.83851,-28.806781 c 12.61185,-23.9808568 -12.61676,11.198306 -1.30963,2.8928 l 0.67099,-1.482133 0.63864,-1.410667 z m -2.43052,-44.34583 c -5.07139,-4.813521 -3.02935,2.9680875 0,0 z M -338.96613,435.4661 c 1.95863,-5.54373 2.1717,4.95499 0,0 z m 130,-149.44098 c -0.007,-6.26357 3.83252,3.45353 0,0 z m -251.96031,-7.5112 c 2.43978,-16.18203 12.79398,9.50037 0,0 z m 229.54376,-39.19095 c -0.62051,-7.67232 4.95397,6.3713 0,0 z m -90.86009,-29.24284 c -3.49353,-6.44119 6.40014,1.49112 0,0 z"
       id="path3026"
       inkscape:connector-curvature="0" />
    <path
       style="fill:#b88e70"
       d="m -810.96613,490.606 c 2.15066,-33.15257 49.09984,-40.60728 48.60017,-76.96264 15.84271,-33.90856 51.04593,-49.63688 75.7963,-74.83368 24.5702,-26.86661 29.42928,-71.11053 5.00675,-99.46721 -31.82068,-26.4411 -71.24493,9.3399 -105.18812,-2.02984 -30.63636,-14.75072 0.908,-44.15903 19.3747,-53.18714 22.95425,-12.59447 55.95762,-16.81263 65.57505,-44.98036 -7.65296,-24.04554 -43.35579,-50.835199 -19.71295,-75.554788 29.79624,-16.280318 64.08021,-23.650384 93.91021,-40.510211 39.88222,-20.0553113 85.15276,-29.2219113 129.41976,-30.5487235 3.93496,6.86938433 -23.38871,22.2243295 1.00511,16.7520214 -9.60125,21.0465871 -21.49852,59.6618361 10.31199,63.5601621 -31.97229,18.594241 24.48661,6.575598 37.55485,4.742917 31.99251,-5.103315 64.55133,-8.136647 96.76638,-8.407795 36.64635,5.535668 22.07975,45.918287 -7.00903,50.367787 -11.72122,14.89949 -64.60427,13.84428 -42.10552,33.85036 5.2154,4.76447 22.03773,36.56219 44.87438,33.89428 19.29496,3.27921 47.62892,4.16371 58.52302,20.88906 -24.51851,3.41526 -62.23986,-30.95027 -77.53677,-6.00766 16.90411,6.36498 33.59711,15.57646 8.28669,23.74467 37.07328,19.91836 -23.03596,38.28292 -41.59818,33.224 -13.94934,-8.23131 -19.09709,-40.00477 -41.4725,-21.6357 -23.28515,11.8756 -45.43057,57.94386 -2.39842,54.0135 33.48509,-6.03293 62.80956,-26.52982 97.331,-29.1813 49.07783,-7.4227 102.85316,-0.46392 143.67076,29.37753 22.07045,31.98605 -20.08323,-0.4396 -34.56976,-0.48002 -54.57236,-14.14864 -113.77579,-0.77972 -160.37303,29.64982 -26.20999,4.85378 -60.32869,40.05084 -23.28207,55.86417 27.60181,16.02354 60.54915,25.47917 79.54375,53.17885 18.16096,21.86299 39.86012,51.66312 26.64526,81.11063 -162.30667,-0.49826 -324.63388,0.18432 -486.94978,-0.0726 -10e-6,-6.7867 10e-6,-13.57347 0,-20.3601 z m 405.5,-207.83977 c -5.53421,-3.43619 -6.46859,7.98375 0,0 z m -7.3962,-46.09633 c -10.58435,-5.73677 4.12709,6.7494 0,0 z m -35.57019,-23.8895 c 11.52453,-3.81118 19.03941,-19.45576 4.83048,-4.36272 -2.68813,0.72946 -19.63938,9.74081 -4.83048,4.36272 z m -14.53361,-2.8143 c -1.80018,-4.41351 -1.55711,3.99726 0,0 z m -5.27041,-1.25 c -7.61208,-8.24662 -7.94814,3.55227 0,0 z m -9.72959,-3.68335 c -2.97924,-12.91309 -18.91124,-11.58322 -3.26729,-1.66834 l 3.26729,1.66834 z m -133.25,-13.31665 c -3.70934,-5.56157 -2.16817,5.80583 0,0 z m 185.72803,-5.48456 c -8.51633,-25.87971 37.29241,-47.45653 2.18777,-63.61639 -19.69999,-12.90702 -50.65274,11.87213 -56.3879,15.66515 31.77937,-17.80131 62.77899,26.832 53.32875,49.76336 l 0.70506,-1.46623 0.16632,-0.34589 z m -66.47803,-0.26544 c -2.20038,-4.48834 -2.20038,4.48834 0,0 z m -1,-5.5 c -2.24871,-5.97229 -2.24871,5.97229 0,0 z m 80.84662,-11.15555 c 5.89568,-24.68254 -24.63575,-1.72197 0,0 z m -78.34662,-12.34445 c -1.80018,-4.41351 -1.55711,3.99726 0,0 z m 3,-5 c -1.80018,-4.41351 -1.55711,3.99726 0,0 z m 3,-4 c -1.80018,-4.41351 -1.55711,3.99726 0,0 z m -162.81434,-28.51313 c 9.25631,-7.97436 -15.56135,7.90012 0,0 z m -14.14454,-2.42034 c -6.29879,-8.03997 -0.1698,6.40861 0,0 z m 50.09968,-4.06653 c -2.51311,-6.24973 -9.18189,3.96041 0,0 z m 398.3592,168.20998 c -13.11402,-24.91494 -66.13625,-33.88975 -59.75109,-62.23541 21.16592,18.01249 55.82048,31.68859 59.75109,62.23541 z m -8.17668,-18.87711 c -2.40428,-8.92668 -3.68091,7.26777 0,0 z m -239.78363,16.21495 c 2.43978,-16.18203 12.79398,9.50037 0,0 z m 138.68367,-68.43379 c -3.49353,-6.44119 6.40014,1.49112 0,0 z M -472.46976,13.716103 c -12.6541,-18.8953091 18.05538,-15.1868738 4.24,1.754788 -0.62823,2.937191 -7.47832,2.970634 -4.24,-1.754788 z"
       id="path3024"
       inkscape:connector-curvature="0" />
    <path
       style="fill:#946e56"
       d="m -810.96613,490.606 c 2.15066,-33.15257 49.09984,-40.60728 48.60017,-76.96264 15.84271,-33.90856 51.04593,-49.63688 75.7963,-74.83368 24.5702,-26.86661 29.42928,-71.11053 5.00675,-99.46721 -31.82068,-26.4411 -71.24493,9.3399 -105.18812,-2.02984 -30.63636,-14.75072 0.908,-44.15903 19.3747,-53.18714 22.95425,-12.59447 55.95762,-16.81263 65.57505,-44.98036 -7.65296,-24.04554 -43.35579,-50.835199 -19.71295,-75.554788 29.79624,-16.280318 64.08021,-23.650384 93.91021,-40.510211 39.88222,-20.0553113 85.15276,-29.2219113 129.41976,-30.5487235 3.93496,6.86938433 -23.38871,22.2243295 1.00511,16.7520214 -9.60125,21.0465871 -21.49852,59.6618361 10.31199,63.5601621 -31.97231,18.594294 24.4868,6.575524 37.55505,4.742878 31.99711,-5.10355 64.56089,-8.138296 96.78033,-8.407504 36.87171,5.677534 21.7438,46.016245 -7.20902,50.724045 -12.5257,15.95145 -66.41889,10.60162 -42.1309,33.78776 4.78438,2.9627 20.69595,32.47613 39.78274,35.46915 -35.18966,-14.23484 -56.80462,30.99885 -89.47179,36.89281 -22.6323,11.62444 -49.79244,53.02966 -18.27879,67.75225 36.93562,5.44811 65.68835,-26.04803 101.71329,-27.85194 53.78337,-9.0236 112.5597,-0.93476 157.44562,31.62148 12.40269,21.54754 -27.85382,-10.54768 -38.34939,-6.96283 -65.23431,-17.21314 -132.2424,9.84311 -185.63796,46.1529 -37.95248,24.05798 17.77659,51.67686 40.29169,57.36698 27.77347,18.98496 57.50525,41.00297 67.61898,74.74814 27.64088,30.72241 -12.19717,54.99462 -40.79011,41.83497 -147.80587,0.42523 -295.61246,0.18894 -443.41867,0.25142 -3e-5,-6.7867 5e-5,-13.5734 -4e-5,-20.3601 z m 274.57582,-176.66873 c 18.11299,-21.70701 -42.35444,-32.73893 -14.11658,-8.01729 2.38149,5.06756 8.04522,10.25868 14.11658,8.01729 z m -6.78875,-28.72117 c -4.7073,-9.98443 -9.45717,3.64666 0,0 z m 137.71293,-2.44987 c -5.53421,-3.43619 -6.46859,7.98375 0,0 z m 7.95673,-2.87015 c -5.08338,-3.59531 -2.09115,5.86167 0,0 z m -146.45673,-1.3948 c -2.84782,-9.62862 -6.55501,5.95779 0,0 z m 6.25,-3.95185 c -1.86164,-6.3689 -3.20584,5.25147 0,0 z m -9.00335,-2.83333 c 29.45937,-12.02474 -10.47957,-28.49698 -17.08178,-7.76152 3.19575,5.83672 10.95356,7.56996 17.08178,7.76152 z m -24.24665,-16.14301 c -3.987,-8.90062 -4.46915,6.83517 0,0 z m 20.75,-2.86758 c 5.52573,-21.5653 -49.20765,-19.79843 -18.82206,-7.10584 2.72538,7.25 12.07151,12.472 18.82206,7.10584 z m 12.57411,-7.14164 c -1.81404,-7.63115 -3.01893,6.43648 0,0 z m -38.82411,-1.59777 c -1.80018,-4.41351 -1.55711,3.99726 0,0 z m -9.13029,-7.25 c -0.13634,-14.14734 -11.17531,5.61071 0,0 z m 12.63029,-5.25 c -3.50271,-6.83642 -3.2055,6.78884 0,0 z m 54,-7.05902 c -3.63574,-5.89988 -1.47468,7.98158 0,0 z m 70.53361,-10.62668 c 24.64683,-17.76405 50.2301,-56.11486 33.45106,-85.64144 -19.96493,-29.616264 -76.644,4.14403 -73.26551,17.98835 22.84999,-26.28306 66.69835,-0.53349 62.02107,31.8718 8.67656,21.52794 -37.2491,33.66474 -29.61714,36.95779 l 3.23013,-0.45895 4.18039,-0.71755 0,0 z m 25.89158,-37.25634 c -5.41905,-12.83027 1.39975,-22.99152 3.78188,-4.04334 0.8781,2.33012 -1.5101,5.03006 -3.78188,4.04334 z m -43.42519,37.44204 2.44388,2.57094 -2.44388,-2.57094 z m -1.95067,-5.44056 c -5.61861,-7.74602 -7.37056,3.26881 0,0 z m -10.04933,-3.49279 c -2.97924,-12.91309 -18.91124,-11.58322 -3.26729,-1.66834 l 3.26729,1.66834 z m -133.25,-13.31665 c -3.70934,-5.56157 -2.16817,5.80583 0,0 z m 119.25,-5.75 c -2.20038,-4.48834 -2.20038,4.48834 0,0 z m -1,-5.5 c -2.24871,-5.97229 -2.24871,5.97229 0,0 z m -5.01531,-15.75 c -2.50034,-4.88799 -0.76484,9.9453 0,0 z m 1.82218,-7.27646 c -3.18531,0.98337 0.14004,4.0156 0,0 z m 5.69313,-0.47354 c -1.80018,-4.41351 -1.55711,3.99726 0,0 z m 3,-5 c -1.80018,-4.41351 -1.55711,3.99726 0,0 z m 2.86163,-4.5 c -1.8946,-6.03286 -1.20884,5.40241 0,0 z m 3.63837,-17.05902 c -3.16389,-2.74899 -1.04693,4.37904 0,0 z m -166.31434,-10.95411 c 9.25631,-7.97436 -15.56135,7.90012 0,0 z m -14.14454,-2.42034 c -6.29879,-8.03997 -0.1698,6.40861 0,0 z m 50.09968,-4.06653 c -2.51311,-6.24973 -9.18189,3.96041 0,0 z m 395.89042,162.70687 c -3.80854,-10.1835 4.21596,3.49105 0,0 z m -3.89174,-4.40072 c -9.58295,-9.17542 -3.59137,-25.48564 0.66999,-5.90804 l -0.66999,5.90804 z m -11.97281,-13.97282 c -4.43903,-8.33313 7.16786,1.62277 0,0 z m -4,-4 c -0.70572,-9.12586 10.44904,-2.44665 0,0 z m -4,-4 c -4.43903,-8.33313 7.16786,1.62277 0,0 z m -6.13245,-4.27796 c 0.24075,-9.68823 8.4145,4.71928 0,0 z m -3.53422,-5.55537 c 3.50271,-6.83642 3.2055,6.78884 0,0 z m -4.30952,-2.14286 c -5.21827,-8.32528 9.2308,-0.74331 0,0 z m -4.69048,-5.94047 c 3.63932,-4.57665 1.44655,6.45984 0,0 z m -4.5,-3.41667 c 2.382,-3.98244 2.36551,5.30287 0,0 z m -5,-3 c 2.382,-3.98244 2.36551,5.30287 0,0 z m -38,-20.71307 c -20.26337,-2.77518 11.26885,-6.36872 0,0 z m -13.97301,-5.24326 c -15.04338,-1.56824 -37.22016,-13.92385 -9.21707,-6.61922 2.51139,0.61863 19.77541,3.38795 9.21707,6.61922 z M -472.46976,13.716103 c -12.6541,-18.8953091 18.05538,-15.1868738 4.24,1.754788 -0.62823,2.937191 -7.47832,2.970634 -4.24,-1.754788 z"
       id="path3022"
       inkscape:connector-curvature="0" />
    <path
       style="fill:#605a5c"
       d="m -810.96613,491.09493 c 3.57005,-33.93343 51.17892,-42.36196 49.75223,-80.13397 21.80735,-42.35674 76.92823,-56.52368 92.97066,-102.56407 8.15945,-29.67022 -0.21475,-78.62214 -38.91479,-78.7988 -29.57134,-1.98201 -60.70782,19.32071 -88.60137,3.09771 -13.5587,-31.08991 30.04711,-47.49487 51.55422,-59.58418 23.09877,-9.79043 60.6537,-23.55119 34.29806,-52.39032 -18.55535,-18.23334 -31.45575,-54.422079 2.75147,-63.724169 33.794,-14.73392 68.92698,-26.527947 101.56687,-43.72174 35.50357,-13.29341153 73.37863,-20.487596 111.32138,-20.3096784 -4.40475,8.2991014 -26.07057,19.0024904 -4.31684,19.5163524 -15.14537,23.218377 -10.89305,61.182037 10.66517,62.40396 -35.21892,15.920415 31.98168,4.23674 44.44554,1.94614 34.14802,-4.484786 69.96924,-11.421296 103.83174,-2.89658 29.81572,21.501838 -15.74914,46.377205 -34.19356,55.047325 -30.72965,19.22432 -51.28526,-21.02302 -80.71032,-13.16065 -29.56816,5.91529 -53.74552,37.6854 -45.51292,67.93669 -1.36882,-29.17171 34.09303,-61.7896 60.33611,-38.04716 32.51465,21.54848 -2.95899,85.22106 -36.06797,58.12511 -8.63535,-8.10813 -26.76405,-28.08891 -12.77931,-3.24489 21.79762,10.42527 32.39579,36.45332 7.59695,50.95489 -21.22691,31.52294 18.21791,60.16424 46.29267,38.77937 31.8961,-14.78325 65.28118,-26.9073 100.96812,-25.44829 34.44945,-0.81156 70.24109,5.88659 99.10759,25.58812 -35.93332,-2.16413 -72.81098,-11.92649 -107.88173,1.3403 -38.38677,10.34906 -72.7192,31.45211 -104.95273,54.14339 -8.71889,39.58767 47.43827,34.14754 66.14095,56.78388 31.74956,21.87687 55.77058,56.55025 63.87243,94.18856 -11.8363,28.96018 -53.48983,7.89883 -78.35809,13.75653 -138.39317,0.75283 -276.78844,0.0345 -415.18249,0.28737 -3e-5,-6.62373 5e-5,-13.24747 -4e-5,-19.8712 z m 296.32397,-166.2638 c 13.71693,-0.74476 70.45839,-2.03268 37.44015,-19.88748 -11.97174,-10.41891 12.19773,2.87554 -2.31896,-7.26039 -15.49699,-17.24188 -30.93713,-42.88296 -9.62772,-60.15393 -5.41852,-20.13116 -25.64784,-47.07919 -43.13192,-53.79049 -9.57873,14.06102 13.96938,54.68826 -17.9978,44.52446 -5.6966,-16.73589 -38.29142,-24.30088 -35.03228,-11.13202 -20.29334,20.63534 1.86152,58.29717 12.47949,80.57786 12.86372,17.43636 35.33291,34.82588 58.18904,27.12199 z m -66.72741,-42.7088 c -1.01597,-9.56367 4.98732,3.00809 0,0 z m 124.90344,20.42245 c 12.44132,-0.88227 46.84055,-20.14688 17.27138,-8.06045 -2.59603,1.3965 -30.28853,7.62271 -17.27138,8.06045 z m 52.982,-19.23571 c 21.07019,-7.77186 -17.89104,2.22008 0,0 z m 19.0926,-6.46368 c -5.51082,-4.84968 -5.05933,7.30252 0,0 z m 12.9254,-3.07969 c -5.38604,-4.53929 -7.14163,8.18979 0,0 z m 10.5,-1.7996 c -3.92132,-4.99004 -4.47629,5.58563 0,0 z m -130,-7.40538 c 9.26907,-8.37451 1.27423,-10.95327 -1.35905,-0.95754 l 1.35905,0.95751 0,3e-5 z m 12.81144,-17.63358 c 7.86618,-4.58735 -12.31533,8.79953 0,0 z m 10.91953,-26.65403 c -5.07143,-4.81372 -3.02938,2.9683 0,0 z m -6.73097,-0.69038 c -2.50758,-4.3647 -3.742,2.84857 0,0 z m -137,-27.44996 c -1.793,-5.76151 -5.36437,5.02852 0,0 z M -493.50884,167.897 c -3.72288,-3.01017 1.00833,5.75882 0,0 z m 1.54271,-4.9309 c -2.20038,-4.48834 -2.20038,4.48834 0,0 z m -155.31434,-43.51313 c 9.25631,-7.97436 -15.56135,7.90012 0,0 z m -14.14454,-2.42034 c -6.29879,-8.03997 -0.1698,6.40861 0,0 z m 50.09968,-4.06653 c -2.51311,-6.24973 -9.18189,3.96041 0,0 z m 391.43815,149.58333 c 0.19461,-5.34595 1.35499,3.18795 0,0 z m -4.07895,-5.16666 c 3.63932,-4.57665 1.44655,6.45984 0,0 z m -237.52851,-28.00263 c -2.32465,-10.42 10.60497,-6.59005 0,0 z m 10.52851,-9.25893 c -4.87361,-10.52686 9.36395,3.79771 0,0 z m 8.32466,-3.8131 c 20.0051,-16.25958 30.28524,-58.35931 45.81935,-65.87183 17.58406,26.45973 -18.80624,40.90472 -32.37794,57.04553 -4.10448,3.46899 -8.64833,6.40341 -13.44141,8.8263 z m 20.67534,-24.34201 c -2.20038,-4.48834 -2.20038,4.48834 0,0 z m 19.75,-25.25 c -3.70934,-5.56157 -2.16817,5.80583 0,0 z m -76.75,41.75 c -0.0766,-6.58556 8.20959,10.422 0,0 z m 122.58295,-19.36579 c -3.79204,-5.63903 4.19327,0.64192 0,0 z m -4.41628,-1.13421 c 2.65907,-5.9793 3.13795,5.17217 0,0 z m -5.66667,-1 c 2.36552,-5.30284 2.382,3.98245 0,0 z m -5.3125,-1.0625 c 2.09141,-8.3943 3.29161,3.96734 0,0 z m -5.59094,-0.78127 c -1.01597,-9.56367 4.98732,3.00809 0,0 z m -5.59656,-2.65623 c 3.50271,-6.83642 3.2055,6.78884 0,0 z m -5.33267,-0.92453 c 0.0732,-9.91388 6.87914,2.80017 0,0 z m -33.66733,-7.57547 c -3.24689,-13.12476 -0.6353,8.67846 0,0 z m -1.27083,-9.60417 c -6.43429,-7.06809 3.90194,-4.5204 0,0 z m 14.52301,-18.89583 c 0.75884,-8.4388 0.56352,7.21628 0,0 z m -68.75218,-15.5 c 2.36552,-5.30284 2.382,3.98245 0,0 z m 4.99637,-116.249997 c -11.99576,-25.811419 21.69857,-6.4727992 0.047,3.440106 l -0.047,-3.440106 z"
       id="path3020"
       inkscape:connector-curvature="0" />
    <path
       style="fill:#293648"
       d="m -810.96613,492.58993 c 5.49676,-32.1901 53.07395,-38.49041 48.51745,-76.44428 16.90382,-39.84149 62.61893,-53.29652 87.66174,-85.92261 19.81984,-29.74526 15.55677,-74.98471 -10.82707,-99.1241 -32.9277,-16.30552 -67.60127,11.97309 -101.11616,5.20364 -31.27458,-25.04045 18.82638,-52.81602 40.96767,-60.49485 28.82545,-6.8684 64.77994,-38.62773 30.80607,-64.20091 -36.21742,-28.661375 7.9273,-62.819982 39.31289,-65.092671 31.71567,-8.927555 57.50067,-31.774404 90.02273,-39.1399198 24.01121,-6.49287046 49.11225,-12.932202 73.9447,-12.2690882 -4.76053,11.3466844 -37.93387,26.520732 -5.26654,22.507211 21.9408,17.804557 0.29776,53.699797 -3.8472,72.775577 28.83286,-3.072859 57.11569,-11.210227 86.19966,-14.140491 31.93862,-4.806002 65.0444,-8.040486 96.7754,-0.133612 20.17098,31.753514 -29.48639,51.658374 -54.21643,55.510844 -30.63259,-9.14005 -68.18219,-30.26025 -95.79598,-2.2218 -26.62733,25.28655 -18.78261,77.72296 18.27676,88.30546 -27.78324,-1.67819 18.10617,0.6691 -1.8217,18.65176 -9.05691,11.63105 -24.50504,14.10188 -8.48264,-1.13739 -6.35276,-21.0288 -27.31669,-36.17613 -35.70847,-57.01012 -28.15025,-23.9476 -29.66557,34.35066 -60.46804,19.04453 -42.42687,-1.65623 -12.68469,42.9929 -12.5515,66.53355 1.90841,30.07608 17.10314,66.35714 51.79163,68.13214 30.00526,5.15896 71.31211,3.57855 85.36276,-28.65069 28.29841,-15.09515 60.8472,-23.23336 92.22473,-29.87689 31.70982,-4.46706 63.8445,-0.53728 95.34045,3.52767 23.35071,15.64075 -32.89571,2.70188 -46.01298,8.37288 -52.32787,6.17532 -103.98326,28.65717 -142.03297,65.34042 -16.34349,37.43302 46.25506,22.55083 57.3863,49.85132 24.48313,18.63584 57.47435,33.4318 65.44051,66.01506 19.78441,19.89306 5.8259,58.99119 -25.12907,44.22411 -152.208,0.43328 -304.50714,0.18413 -456.7547,0.23937 0,-6.12534 0,-12.25095 0,-18.37612 z m 547.5,-210.62383 c -1.80018,-4.41351 -1.55711,3.99726 0,0 z m -222,-67 c -2.30615,-5.24262 -2.0919,4.38537 0,0 z m -124.43675,-22.57622 c -2.54676,-10.87489 -8.69917,7.61175 0,0 z m 12.93675,-8.92378 c -3.81523,-7.02357 -4.7448,6.95344 0,0 z m -48.36124,-61.86994 c 6.35458,-10.36662 57.39703,-3.26629 34.14091,-14.26827 -24.55102,4.17128 -52.16592,9.41618 -74.58038,-4.89716 7.33212,13.26571 25.4593,22.26875 40.43947,19.16543 z m 83.61124,-22.306667 c 10.39169,-2.956622 35.87669,-18.736871 10.69465,-14.072467 -4.94744,1.798352 -32.42859,14.208851 -10.69465,14.072467 z m -105.25,-2.32339 c 22.11022,-7.276413 -20.25365,1.668665 0,0 z m -15.83457,-5.25 c 9.80637,-13.863134 60.10861,-29.334702 45.01285,-42.196227 -17.83485,10.250682 -33.21244,25.483881 -45.01285,42.196227 z m 39.33457,-1.87108 c 12.15486,-4.570596 55.20809,4.710125 46.84775,-12.433094 -15.59761,0.799811 -34.82962,1.995122 -46.84775,12.433094 z m 97.5,-20.87892 c -3.60557,-4.848453 -3.0776,5.713798 0,0 z m 19.97082,-6.48491 c 30.39525,-13.631667 -29.65935,-22.650142 -5.2577,1.469611 l 5.2577,-1.469611 z M -548.9325,26.377648 c 0.28771,-19.0107774 -10.30438,9.585047 0,0 z m 246.06329,244.205232 c 6.0469,-9.28613 10.17792,8.51926 0,0 z m -9.34692,-1.33819 c -6.92264,-6.82412 16.46049,4.37524 0,0 z m -47.25,-1.27859 c 4.44446,-5.71168 3.4428,4.9746 0,0 z m 33.01812,0.0293 c 5.65627,-8.26732 10.20505,5.92968 0,0 z m -21.51812,-1.0293 c 6.40642,-7.74107 1.84123,5.07374 0,0 z m 10.48066,-0.51127 c 7.3966,-6.81589 6.6425,1.4484 0.0284,1.58252 l -0.0284,-1.58252 z m -152.08765,-2.07052 c 0.1791,-8.53342 3.30396,5.29932 0,0 z m 21.10699,-58.13104 c -36.23566,-6.29472 -28.63624,-71.02442 8.53179,-67.13701 39.77608,1.70247 38.52577,71.49167 -2.4855,68.01678 -2.06101,0.0474 -4.03777,-0.51312 -6.04629,-0.87977 z m 41.5,-9.28717 c 1.95346,-7.57927 0.98793,6.94578 0,0 z m 4,-10.94098 c 0.0805,-7.87096 2.41109,4.49825 0,0 z m 10.02006,-4.58319 c 4.89073,-5.70953 -0.72717,4.7549 0,0 z m 14.22994,-5.83574 c -14.04917,-1.82493 -6.1037,-13.0043 0,0 z m -0.78274,-11.91459 c -11.8734,-19.17405 13.3924,-9.0585 0,0 z m -9.80059,-2.39217 c -5.55795,-3.79577 4.34034,-0.87441 0,0 z m -87.66667,-14.88299 c -0.14295,-9.16152 10.22707,-2.81862 0,0 z m 10,-11.39132 c 1.04693,-4.37904 3.16389,2.74899 0,0 z M -471.33299,9.888998 c -8.97839,-22.495072 15.37712,9.099732 0,0 z"
       id="path3018"
       inkscape:connector-curvature="0" />
    <path
       style="fill:#090a0d"
       d="m -810.96613,494.53719 c 5.63632,-30.71784 56.33404,-31.00287 49.61789,-69.29499 5.39484,-37.15861 40.89187,-51.70803 68.35564,-69.36182 16.3525,-11.8667 27.69079,-22.01506 31.00098,-40.82113 10.12011,-12.124 25.59446,13.29681 13.15643,-8.61316 -13.7353,-29.53214 -12.48836,-89.17559 -58.06133,-83.91705 -26.69442,-2.26594 -79.57173,32.5342 -88.3288,-6.14737 21.54346,-28.39388 56.76726,-44.64612 88.38082,-60.05308 11.67356,-5.04784 62.44501,-24.96463 29.01745,-29.25196 -16.11419,10.33461 -47.37489,-6.28978 -30.30128,-23.60118 28.88457,4.13189 53.65387,37.42159 84.89066,19.51045 59.6184,-23.476061 123.64893,-32.352122 186.19699,-44.64004 32.86929,-1.170478 69.93834,-12.696781 100.0389,2.707816 17.08731,22.939784 -28.12826,42.489394 -46.15412,48.993314 -33.44523,2.32122 -63.67713,-31.8294 -97.8391,-7.9794 -24.66638,23.13408 -46.34523,52.40258 -82.44038,60.24117 -27.13307,0.54336 -55.03883,19.62517 -34.09594,48.37134 12.47937,32.59093 6.55337,76.52115 39.76235,100.67244 30.25969,23.15339 76.94455,15.96649 101.88677,-11.74841 9.33643,-1.66788 24.16023,-23.07158 4.41437,-15.54483 53.8397,-25.88719 117.52251,-42.3314 175.94954,-22.17761 -34.63463,0.85362 -70.8513,3.79445 -101.54328,21.37835 -36.68325,4.16853 -59.98732,35.99412 -89.55649,54.27945 -9.19956,10.84578 15.39264,40.38236 20.35091,19.42664 24.63964,22.09742 23.49625,63.70052 53.80368,80.11082 -8.69291,22.25322 41.91579,43.60857 6.83266,56.19802 -46.53466,-4.73816 -94.10046,-1.07646 -141.059,-2.31221 -94.75877,-0.0536 -189.51754,0.067 -284.27631,0.003 -10e-6,-5.4763 1e-5,-10.95261 -10e-6,-16.42891 z m 328.10019,-22.2859 c -7.11484,-22.08841 0.22693,19.1931 0,0 z M -493.1953,452.7786 c -2.78147,-6.77254 -2.80077,5.07671 0,0 z m 13.32295,-6.11872 c -5.48358,1.64998 7.43542,6.45366 0,0 z m -1.3762,-11.43003 c -1.91278,4.41711 2.83549,8.70306 0,0 z m -15.06164,-1.53278 c -2.45558,2.35808 2.59365,4.18772 0,0 z m 16.95057,-12.96963 c -5.29919,-7.54008 1.05481,18.01265 0,0 z m -264.42762,1.73866 c -4.02972,-4.43559 -1.79507,6.32316 0,0 z m 257.16768,-8.95077 c 32.32916,-27.75605 -59.96417,-37.69805 -40.69519,-12.23012 10.42605,9.77981 26.46043,16.31173 40.69519,12.23012 z m 14.48331,-41.4564 c -7.15662,-25.45194 -26.04324,5.89598 0,0 z M -624.96613,298.9661 c -3.07759,-5.7138 -3.60558,4.84844 0,0 z m 16.92742,-106.63486 c -2.13997,-17.26289 -12.76761,12.16216 0,0 z m 13.09983,-9.11514 c -1.96056,-11.24449 -9.68404,10.53475 0,0 z m -9.15837,-12.59201 c -1.46251,-8.4754 -6.32466,5.81474 0,0 z m 256.30967,339.05715 c -7.38938,-22.00359 -14.79356,-65.85218 -8.14411,-78.77621 24.29133,15.06471 29.84303,45.13662 37.40062,70.45486 -19.84515,14.38805 -14.63856,-40.11673 -28.19435,-52.18147 -12.07976,9.82502 35.84732,62.15475 -1.06216,60.50282 z m -12.94837,-29.97013 c -8.51191,-9.71787 8.85953,3.61301 0,0 z M -648.42342,313.0352 c -0.91703,-7.58324 3.90413,3.79307 0,0 z m 178.79062,-87.0691 c 1.26556,-18.56988 4.94837,12.02728 0,0 z m -12.0625,-4.60417 c 2.62468,-2.52375 1.80111,2.60134 0,0 z m 4.22917,-5.36162 c -19.00407,-6.58255 9.70292,1.12634 0,0 z m -13.38203,-5.91034 c -6.23094,-7.96093 11.5361,6.96946 0,0 z m 19.70165,-5.3101 c -36.05225,-9.81571 -17.63356,-74.83226 18.18034,-63.17196 36.60038,11.20386 21.29477,76.07663 -18.18034,63.17196 z m -27.63629,-3.03044 c -9.57052,-10.49327 7.60128,1.46701 0,0 z m 99.5058,-39.57434 c -9.807,-13.18208 8.26745,-15.10084 0,0 z M -721.89442,99.878243 c -13.38603,-42.346078 43.69525,-47.52171 70.33667,-59.629587 31.37852,-19.478712 65.20688,-33.9971643 101.86789,-39.33121598 15.14446,-6.92035922 34.89063,-1.10468571 10.50495,8.49185668 -29.21707,17.4382853 -62.42231,25.9284183 -94.99805,34.1589923 -31.40506,12.548583 -57.57273,34.511117 -84.53414,54.337365 6.5579,1.895052 -1.94179,6.634306 -3.17732,1.972589 z m 43.92829,-6.84968 c 23.56583,-17.157219 49.40132,-45.673304 81.53179,-35.275902 27.7665,12.894148 -22.60805,9.122478 -32.88017,17.523344 -16.63233,4.703718 -31.93747,13.638943 -48.65162,17.752558 z m 102.31382,-24.68703 c 5.19647,-17.139094 36.2909,-1.126938 9.97338,0.451859 -3.02998,0.976444 -7.24175,2.027233 -9.97338,-0.451859 z m 33.88618,-36.57543 c 13.18611,-16.232881 21.88335,6.759046 0,0 z m 72.37925,-20.8 c 1.46916,-9.6467402 3.44967,-5.0463461 0.38682,0.87922 l -0.38682,-0.87922 z"
       id="path3016"
       inkscape:connector-curvature="0" />
  </g>
</svg>
