<?xml version="1.0" encoding="UTF-8" standalone="no"?>
<svg
   xmlns:dc="http://purl.org/dc/elements/1.1/"
   xmlns:cc="http://creativecommons.org/ns#"
   xmlns:rdf="http://www.w3.org/1999/02/22-rdf-syntax-ns#"
   xmlns:svg="http://www.w3.org/2000/svg"
   xmlns="http://www.w3.org/2000/svg"
   xmlns:sodipodi="http://sodipodi.sourceforge.net/DTD/sodipodi-0.dtd"
   xmlns:inkscape="http://www.inkscape.org/namespaces/inkscape"
   viewBox="0 0 512 512"
   id="svg14081"
   version="1.1"
   inkscape:version="0.48.4 r9939"
   width="100%"
   height="100%"
   sodipodi:docname="poison melee.svg">
  <metadata
     id="metadata14103">
    <rdf:RDF>
      <cc:Work
         rdf:about="">
        <dc:format>image/svg+xml</dc:format>
        <dc:type
           rdf:resource="http://purl.org/dc/dcmitype/StillImage" />
        <dc:title />
      </cc:Work>
    </rdf:RDF>
  </metadata>
  <defs
     id="defs14101" />
  <sodipodi:namedview
     pagecolor="#ffffff"
     bordercolor="#666666"
     borderopacity="1"
     objecttolerance="10"
     gridtolerance="10"
     guidetolerance="10"
     inkscape:pageopacity="0"
     inkscape:pageshadow="2"
     inkscape:window-width="2487"
     inkscape:window-height="1362"
     id="namedview14099"
     showgrid="false"
     inkscape:zoom="0.65186406"
     inkscape:cx="801.11254"
     inkscape:cy="457.97294"
     inkscape:window-x="0"
     inkscape:window-y="0"
     inkscape:window-maximized="0"
     inkscape:current-layer="svg14081" />
  <path
     d="m0,0h512v512h-512z"
     id="path14083" />
  <path
     style="fill:#c87137"
     inkscape:connector-curvature="0"
     id="path14087"
     d="M 363.85821,323.62395 348.86632,344.9002 135.24277,194.28501 c -14.77745,-9.50417 -2.946,-31.53837 15.74031,-20.74858 z" />
  <path
     style="fill:#800080;stroke:#000000;stroke-width:18.68857956000000100"
     inkscape:connector-curvature="0"
     id="path14089"
     d="m 399.42861,329.90226 -49.18274,-36.50627 c -30.88661,90.99843 -92.85421,89.4398 -117.37549,24.59043 -53.92777,45.62817 -28.91497,127.26175 22.90472,163.36996 48.0988,33.51797 120.24233,25.74165 150.29917,-34.80374 -73.53209,0.37377 -81.63359,-58.77559 -6.64566,-116.65038 z" />
  <path
     style="fill:#008000;fill-opacity:1;stroke:none"
     inkscape:connector-curvature="0"
     d="m 89.208383,276.06781 c 0,5.83452 -4.7298,10.56432 -10.56432,10.56432 -5.83452,0 -10.56432,-4.7298 -10.56432,-10.56432 0,-5.83452 4.7298,-10.56432 10.56432,-10.56432 5.83452,0 10.56432,4.7298 10.56432,10.56432 z"
     id="path8446" />
  <path
     style="fill:#00ff00;fill-opacity:1;stroke:none"
     inkscape:connector-curvature="0"
     d="m 71.310083,202.84746 c 0,5.83452 -4.7298,10.56432 -10.56432,10.56432 -5.83452,0 -10.56432,-4.7298 -10.56432,-10.56432 0,-5.83452 4.7298,-10.56432 10.56432,-10.56432 5.83452,0 10.56432,4.7298 10.56432,10.56432 z"
     id="path8446-20" />
  <path
     style="fill:#008000;fill-opacity:1;stroke:none"
     inkscape:connector-curvature="0"
     d="m 75.867111,51.464299 c 0,5.83452 -4.7298,10.56432 -10.56432,10.56432 -5.83452,0 -10.56432,-4.7298 -10.56432,-10.56432 0,-5.83452 4.7298,-10.56432 10.56432,-10.56432 5.83452,0 10.56432,4.7298 10.56432,10.56432 z"
     id="path8446-5" />
  <path
     style="fill:#008000;fill-opacity:1;stroke:none"
     inkscape:connector-curvature="0"
     d="m 165.94617,25.167198 c 0,5.83452 -4.7298,10.56432 -10.56432,10.56432 -5.83452,0 -10.56432,-4.7298 -10.56432,-10.56432 0,-5.83452 4.7298,-10.56432 10.56432,-10.56432 5.83452,0 10.56432,4.7298 10.56432,10.56432 z"
     id="path8446-52" />
  <path
     style="fill:#00ff00;fill-opacity:1;stroke:none"
     inkscape:connector-curvature="0"
     d="m 292.59822,70.399451 c 0,5.83452 -4.7298,10.56432 -10.56432,10.56432 -5.83452,0 -10.56432,-4.7298 -10.56432,-10.56432 0,-5.83452 4.7298,-10.56432 10.56432,-10.56432 5.83452,0 10.56432,4.7298 10.56432,10.56432 z"
     id="path8446-7" />
  <path
     style="fill:#00ff00;fill-opacity:1;stroke:none"
     inkscape:connector-curvature="0"
     d="m 447.47623,185.17381 c 0,5.83452 -4.7298,10.56432 -10.56432,10.56432 -5.83452,0 -10.56432,-4.7298 -10.56432,-10.56432 0,-5.83452 4.7298,-10.56432 10.56432,-10.56432 5.83452,0 10.56432,4.7298 10.56432,10.56432 z"
     id="path8446-6" />
  <path
     style="fill:#008000;fill-opacity:1;stroke:none"
     inkscape:connector-curvature="0"
     d="m 371.24229,12.474576 c 0,5.83452 -4.7298,10.56432 -10.56432,10.56432 -5.83452,0 -10.56432,-4.7298 -10.56432,-10.56432 0,-5.8345199 4.7298,-10.5643199 10.56432,-10.5643199 5.83452,0 10.56432,4.7298 10.56432,10.5643199 z"
     id="path8446-78" />
  <path
     style="fill:#00ff00;fill-opacity:1;stroke:none"
     inkscape:connector-curvature="0"
     d="m 491.08076,346.98741 c 7.47187,27.5178 -7.50005,57.42551 -33.44077,66.8009 -25.94074,9.37537 -53.0269,-5.33195 -60.49877,-32.84973 -7.47186,-27.51782 7.50006,-57.42551 33.4408,-66.80089 25.94073,-9.37536 53.02687,5.33192 60.49874,32.84972 z"
     id="path8446-2-8-5" />
  <path
     style="fill:#00ff00;fill-opacity:1;stroke:none"
     inkscape:connector-curvature="0"
     d="m 518.82762,226.78974 c 9.9335,38.34148 -9.97097,80.0129 -44.45795,93.07595 -34.48702,13.06302 -70.49681,-7.42919 -80.43032,-45.77064 -9.93349,-38.34151 9.97099,-80.0129 44.458,-93.07594 34.487,-13.063 70.49676,7.42915 80.43027,45.77063 z"
     id="path8446-2-8-5-5" />
  <path
     style="fill:#00ff00;fill-opacity:1;stroke:none"
     inkscape:connector-curvature="0"
     d="m 480.13123,150.60232 c 8.29241,26.31517 -8.32369,54.9158 -37.11316,63.88145 -28.7895,8.96563 -58.8502,-5.09893 -67.14262,-31.41407 -8.2924,-26.31519 8.32371,-54.9158 37.1132,-63.88144 28.78949,-8.96562 58.85016,5.09889 67.14258,31.41406 z"
     id="path8446-2-8-5-5-8" />
  <path
     style="fill:#00ff00;fill-opacity:1;stroke:none"
     inkscape:connector-curvature="0"
     d="m 466.32467,90.773897 c 8.29241,26.315173 -8.32369,54.915803 -37.11316,63.881453 -28.7895,8.96563 -58.8502,-5.09893 -67.14262,-31.41407 -8.2924,-26.315193 8.32371,-54.915803 37.1132,-63.881443 28.78949,-8.965625 58.85016,5.09889 67.14258,31.41406 z"
     id="path8446-2-8-5-5-8-4" />
  <path
     style="fill:#00ff00;fill-opacity:1;stroke:none"
     inkscape:connector-curvature="0"
     d="m 449.44999,89.23983 c 8.29241,26.31517 -8.32369,54.9158 -37.11316,63.88145 -28.7895,8.96563 -58.8502,-5.09893 -67.14262,-31.41407 -8.2924,-26.31519 8.32371,-54.9158 37.1132,-63.88144 28.78949,-8.96562 58.85016,5.09889 67.14258,31.41406 z"
     id="path8446-2-8-5-5-8-0"
     inkscape:transform-center-x="-79.771233"
     inkscape:transform-center-y="-26.079057" />
  <path
     style="fill:#00ff00;fill-opacity:1;stroke:none"
     inkscape:connector-curvature="0"
     d="m 395.75781,122.9892 c 8.29241,26.31517 -8.32368,54.9158 -37.11315,63.88145 -28.7895,8.96563 -58.8502,-5.09893 -67.14262,-31.41407 -8.2924,-26.31519 8.32371,-54.9158 37.1132,-63.881442 28.78949,-8.96562 58.85016,5.09889 67.14257,31.414062 z"
     id="path8446-2-8-5-5-8-5" />
  <path
     style="fill:#00ff00;fill-opacity:1;stroke:none"
     inkscape:connector-curvature="0"
     d="m 389.62156,58.558586 c 8.29241,26.31517 -8.32369,54.915804 -37.11316,63.881454 -28.7895,8.96563 -58.8502,-5.09893 -67.14262,-31.414074 -8.2924,-26.31519 8.32371,-54.9158 37.1132,-63.881439 28.78949,-8.96562 58.85016,5.09889 67.14258,31.414059 z"
     id="path8446-2-8-5-5-8-47"
     inkscape:transform-center-x="16.874684"
     inkscape:transform-center-y="70.56686" />
  <path
     style="fill:#00ff00;fill-opacity:1;stroke:none"
     inkscape:connector-curvature="0"
     d="m 352.80407,41.683903 c 8.29241,26.31517 -8.32369,54.9158 -37.11316,63.881447 -28.7895,8.96563 -58.8502,-5.09893 -67.14262,-31.414067 -8.2924,-26.31519 8.32371,-54.9158 37.1132,-63.88144 28.78949,-8.9656199 58.85016,5.09889 67.14258,31.41406 z"
     id="path8446-2-8-5-5-8-2" />
  <path
     style="fill:#00ff00;fill-opacity:1;stroke:none"
     inkscape:connector-curvature="0"
     d="m 307.68298,87.211171 c 10.75405,27.116919 -10.79461,56.588929 -48.13034,65.827739 -37.33577,9.2388 -76.32011,-5.25427 -87.07416,-32.37117 -10.75403,-27.116934 10.79463,-56.588935 48.13039,-65.827734 37.33576,-9.238779 76.32005,5.25424 87.07411,32.371165 z"
     id="path8446-2-8-5-5-8-1"
     inkscape:transform-center-x="-141.25126" />
  <path
     style="fill:#00ff00;fill-opacity:1;stroke:none"
     inkscape:connector-curvature="0"
     d="m 287.49891,52.422339 c 11.69181,26.31517 -11.7359,54.915801 -52.32735,63.881441 -40.5915,8.96564 -82.97532,-5.09893 -94.66714,-31.414061 -11.69179,-26.31519 11.73594,-54.9158 52.32742,-63.88144 40.59149,-8.96562 82.97526,5.09889 94.66707,31.41406 z"
     id="path8446-2-8-5-5-8-2-4" />
  <path
     style="fill:#00ff00;fill-opacity:1;stroke:none"
     inkscape:connector-curvature="0"
     d="m 177.92098,92.307957 c 8.29241,26.315163 -8.32368,54.915793 -37.11315,63.881443 -28.7895,8.96563 -58.8502,-5.09893 -67.14262,-31.41407 -8.2924,-26.315187 8.32371,-54.915793 37.1132,-63.881433 28.78949,-8.96562 58.85016,5.09889 67.14257,31.41406 z"
     id="path8446-2-8-5-5-8-5-9" />
  <path
     style="fill:#00ff00;fill-opacity:1;stroke:none"
     inkscape:connector-curvature="0"
     d="m 120.01865,144.23987 c 6.76854,15.49148 -6.79406,32.3284 -30.292979,37.60639 -23.49895,5.27798 -48.035499,-3.00169 -54.804049,-18.49316 -6.768533,-15.4915 6.79409,-32.3284 30.293029,-37.60639 23.49894,-5.27797 48.035459,3.00167 54.803999,18.49316 z"
     id="path8446-2-8-5-5-8-5-9-9" />
  <path
     style="fill:#00ff00;fill-opacity:1;stroke:none"
     inkscape:connector-curvature="0"
     d="m 79.878666,198.38042 c 4.775789,24.71165 -4.793796,51.56951 -21.37431,59.98884 -16.580537,8.41931 -33.893189,-4.78823 -38.668986,-29.49986 -4.775784,-24.71168 4.793817,-51.56951 21.374347,-59.98884 16.58053,-8.4193 33.89316,4.78819 38.668949,29.49986 z"
     id="path8446-2-8-5-5-8-5-9-9-0" />
  <path
     style="fill:#008000"
     inkscape:connector-curvature="0"
     id="path14091"
     d="M 197.59381,34.095675 C 80.315499,66.49046 8.0878755,185.8974 29.084495,306.89475 32.485817,218.76127 90.556841,138.88441 177.54284,114.8565 284.60784,85.281827 394.46866,151.13291 423.15937,261.50205 446.3575,350.76058 409.18405,441.78144 337.51708,489.08224 449.01876,446.9507 512.83278,323.61168 481.50512,203.07595 448.34223,75.492749 321.35707,-0.09134408 197.59568,34.095675 z" />
  <path
     style="fill:#00ff00;fill-opacity:1;stroke:none"
     inkscape:connector-curvature="0"
     d="m 212.85844,62.038536 c 0,8.829966 -7.40091,15.988049 -16.53042,15.988049 -9.12951,0 -16.53042,-7.158083 -16.53042,-15.988049 0,-8.829967 7.40091,-15.988049 16.53042,-15.988049 9.12951,0 16.53042,7.158082 16.53042,15.988049 z"
     id="path8446-52-0" />
  <path
     style="fill:#00ff00;fill-opacity:1;stroke:none"
     inkscape:connector-curvature="0"
     d="m 310.7141,70.562322 c 0,17.217216 -13.47161,31.174488 -30.08974,31.174488 -16.61813,0 -30.08974,-13.957272 -30.08974,-31.174488 0,-17.217216 13.47161,-31.17449 30.08974,-31.17449 16.61813,0 30.08974,13.957274 30.08974,31.17449 z"
     id="path8446-52-3" />
  <path
     style="fill:#008000;fill-opacity:1;stroke:none"
     inkscape:connector-curvature="0"
     d="m 325.41655,145.02683 c 0,7.48202 -6.06535,13.54737 -13.54737,13.54737 -7.48201,0 -13.54737,-6.06535 -13.54737,-13.54737 0,-7.48201 6.06536,-13.54737 13.54737,-13.54737 7.48202,0 13.54737,6.06536 13.54737,13.54737 z"
     id="path8446-52-5" />
  <path
     style="fill:#008000;fill-opacity:1;stroke:none"
     inkscape:connector-curvature="0"
     d="m 452.37422,91.666966 c 0,5.83452 -4.7298,10.564324 -10.56432,10.564324 -5.83452,0 -10.56432,-4.729804 -10.56432,-10.564324 0,-5.83452 4.7298,-10.56432 10.56432,-10.56432 5.83452,0 10.56432,4.7298 10.56432,10.56432 z"
     id="path8446-52-07"
     inkscape:transform-center-x="-44.487803"
     inkscape:transform-center-y="-10.564322" />
  <path
     style="fill:#008000;fill-opacity:1;stroke:none"
     inkscape:connector-curvature="0"
     d="m 425.47958,357.9661 c 0,5.83452 -4.7298,10.56432 -10.56432,10.56432 -5.83452,0 -10.56432,-4.7298 -10.56432,-10.56432 0,-5.83452 4.7298,-10.56432 10.56432,-10.56432 5.83452,0 10.56432,4.7298 10.56432,10.56432 z"
     id="path8446-78-6" />
  <path
     style="fill:#008000;fill-opacity:1;stroke:none"
     inkscape:connector-curvature="0"
     d="m 513.34398,238.64407 c 0,5.83452 -4.7298,10.56432 -10.56432,10.56432 -5.83452,0 -10.56432,-4.7298 -10.56432,-10.56432 0,-5.83452 4.7298,-10.56432 10.56432,-10.56432 5.83452,0 10.56432,4.7298 10.56432,10.56432 z"
     id="path8446-78-7" />
  <path
     style="fill:#800080;fill-opacity:1;stroke:none"
     inkscape:connector-curvature="0"
     d="m 336.36031,134.23685 c 0,5.83452 -4.7298,10.56432 -10.56432,10.56432 -5.83452,0 -10.56432,-4.7298 -10.56432,-10.56432 0,-5.83452 4.7298,-10.56432 10.56432,-10.56432 5.83452,0 10.56432,4.7298 10.56432,10.56432 z"
     id="path8446-78-8" />
  <path
     style="fill:#00ff00;fill-opacity:1;stroke:none"
     inkscape:connector-curvature="0"
     d="m 152.66601,87.864407 c 0,8.829966 -7.40091,15.988053 -16.53042,15.988053 -9.12951,0 -16.53042,-7.158087 -16.53042,-15.988053 0,-8.829967 7.40091,-15.988049 16.53042,-15.988049 9.12951,0 16.53042,7.158082 16.53042,15.988049 z"
     id="path8446-52-0-4" />
  <path
     style="fill:#800080;fill-opacity:1;stroke:none"
     inkscape:connector-curvature="0"
     d="m 142.36094,112.54237 c 0,12.87382 -10.43627,23.31008 -23.31009,23.31008 -12.87382,0 -23.310081,-10.43626 -23.310081,-23.31008 0,-12.87382 10.436261,-23.310083 23.310081,-23.310083 12.87382,0 23.31009,10.436263 23.31009,23.310083 z"
     id="path8446-78-8-6" />
  <path
     style="fill:#800080;fill-opacity:1;stroke:none"
     inkscape:connector-curvature="0"
     d="m 71.03889,214.23729 c 0,8.0811 -6.551014,14.63211 -14.632118,14.63211 -8.081104,0 -14.632114,-6.55101 -14.632114,-14.63211 0,-8.0811 6.55101,-14.63211 14.632114,-14.63211 8.081104,0 14.632118,6.55101 14.632118,14.63211 z"
     id="path8446-78-8-6-4" />
  <path
     style="fill:#800080;fill-opacity:1;stroke:none"
     inkscape:connector-curvature="0"
     d="m 397.54737,75.932202 c 0,8.0811 -6.55101,14.63211 -14.63212,14.63211 -8.0811,0 -14.63211,-6.55101 -14.63211,-14.63211 0,-8.0811 6.55101,-14.63211 14.63211,-14.63211 8.08111,0 14.63212,6.55101 14.63212,14.63211 z"
     id="path8446-78-8-6-4-4" />
  <path
     style="fill:#00ff00;fill-opacity:1;stroke:none"
     inkscape:connector-curvature="0"
     d="m 466.15754,218.57627 c 0,5.83452 -4.7298,10.56433 -10.56432,10.56433 -5.83452,0 -10.56432,-4.72981 -10.56432,-10.56433 0,-5.83452 4.7298,-10.56432 10.56432,-10.56432 5.83452,0 10.56432,4.7298 10.56432,10.56432 z"
     id="path8446-52-07-7"
     inkscape:transform-center-x="-44.487803"
     inkscape:transform-center-y="-10.564322" />
  <path
     style="fill:#800080;fill-opacity:1;stroke:none"
     inkscape:connector-curvature="0"
     d="m 427.37788,203.11865 c 0,5.23542 -4.24415,9.47957 -9.47958,9.47957 -5.23543,0 -9.47957,-4.24415 -9.47957,-9.47957 0,-5.23543 4.24414,-9.47957 9.47957,-9.47957 5.23543,0 9.47958,4.24414 9.47958,9.47957 z"
     id="path8446-78-8-6-4-1"
     inkscape:transform-center-x="-28.20339"
     inkscape:transform-center-y="34.711864" />
  <path
     style="fill:#800080;fill-opacity:1;stroke:none"
     inkscape:connector-curvature="0"
     d="m 460.73381,347.66102 c 0,5.23542 -4.24415,9.47957 -9.47958,9.47957 -5.23543,0 -9.47957,-4.24415 -9.47957,-9.47957 0,-5.23543 4.24414,-9.47957 9.47957,-9.47957 5.23543,0 9.47958,4.24414 9.47958,9.47957 z"
     id="path8446-78-8-6-4-1-9"
     inkscape:transform-center-x="49.355932"
     inkscape:transform-center-y="-151.32203" />
  <path
     style="fill:#00ff00;fill-opacity:1;stroke:none"
     inkscape:connector-curvature="0"
     d="m 389.14058,111.72881 c 0,8.82996 -7.40091,15.98805 -16.53041,15.98805 -9.12951,0 -16.53042,-7.15809 -16.53042,-15.98805 0,-8.82997 7.40091,-15.988045 16.53042,-15.988045 9.1295,0 16.53041,7.158075 16.53041,15.988045 z"
     id="path8446-52-0-5" />
  <path
     style="fill:#008000;fill-opacity:1;stroke:none"
     inkscape:connector-curvature="0"
     d="m 47.988049,135.05085 c 0,5.83452 -4.7298,10.56432 -10.56432,10.56432 -5.83452,0 -10.56432,-4.7298 -10.56432,-10.56432 0,-5.83452 4.7298,-10.56432 10.56432,-10.56432 5.83452,0 10.56432,4.7298 10.56432,10.56432 z"
     id="path8446-5-5" />
  <path
     style="fill:#800080;fill-opacity:1;stroke:none"
     inkscape:connector-curvature="0"
     d="m 461.005,272.81356 c 0,7.18248 -5.82253,13.005 -13.005,13.005 -7.18247,0 -13.005,-5.82252 -13.005,-13.005 0,-7.18247 5.82253,-13.00499 13.005,-13.00499 7.18247,0 13.005,5.82252 13.005,13.00499 z"
     id="path8446-78-8-6-7" />
  <path
     style="fill:#800080;fill-opacity:1;stroke:none"
     inkscape:connector-curvature="0"
     d="m 456.66602,150.77966 c 0,8.0811 -6.55101,14.63211 -14.63212,14.63211 -8.0811,0 -14.63211,-6.55101 -14.63211,-14.63211 0,-8.0811 6.55101,-14.63211 14.63211,-14.63211 8.08111,0 14.63212,6.55101 14.63212,14.63211 z"
     id="path8446-78-8-6-4-4-4" />
  <path
     style="fill:#800080;fill-opacity:1;stroke:none"
     inkscape:connector-curvature="0"
     d="m 269.54737,89.491526 c 0,8.0811 -6.55101,14.632114 -14.63212,14.632114 -8.0811,0 -14.63211,-6.551014 -14.63211,-14.632114 0,-8.0811 6.55101,-14.63211 14.63211,-14.63211 8.08111,0 14.63212,6.55101 14.63212,14.63211 z"
     id="path8446-78-8-6-4-4-3" />
  <path
     style="fill:#00ff00;fill-opacity:1;stroke:none"
     inkscape:connector-curvature="0"
     d="m 407.58127,164.88135 c 0,5.83452 -4.7298,10.56433 -10.56432,10.56433 -5.83452,0 -10.56432,-4.72981 -10.56432,-10.56433 0,-5.83452 4.7298,-10.56432 10.56432,-10.56432 5.83452,0 10.56432,4.7298 10.56432,10.56432 z"
     id="path8446-52-07-7-8"
     inkscape:transform-center-x="-44.487803"
     inkscape:transform-center-y="-10.564322" />
</svg>
