<?xml version="1.0" encoding="UTF-8" standalone="no"?>
<svg
   xmlns:dc="http://purl.org/dc/elements/1.1/"
   xmlns:cc="http://creativecommons.org/ns#"
   xmlns:rdf="http://www.w3.org/1999/02/22-rdf-syntax-ns#"
   xmlns:svg="http://www.w3.org/2000/svg"
   xmlns="http://www.w3.org/2000/svg"
   xmlns:sodipodi="http://sodipodi.sourceforge.net/DTD/sodipodi-0.dtd"
   xmlns:inkscape="http://www.inkscape.org/namespaces/inkscape"
   viewBox="0 0 512 512"
   width="100%"
   height="100%"
   preserveAspectRatio="xMidYMid meet"
   id="svg3024"
   version="1.1"
   inkscape:version="0.48.4 r9939"
   sodipodi:docname="poison ball.svg">
  <metadata
     id="metadata3061">
    <rdf:RDF>
      <cc:Work
         rdf:about="">
        <dc:format>image/svg+xml</dc:format>
        <dc:type
           rdf:resource="http://purl.org/dc/dcmitype/StillImage" />
      </cc:Work>
    </rdf:RDF>
  </metadata>
  <defs
     id="defs3059" />
  <sodipodi:namedview
     pagecolor="#ffffff"
     bordercolor="#666666"
     borderopacity="1"
     objecttolerance="10"
     gridtolerance="10"
     guidetolerance="10"
     inkscape:pageopacity="0"
     inkscape:pageshadow="2"
     inkscape:window-width="2560"
     inkscape:window-height="1378"
     id="namedview3057"
     showgrid="false"
     inkscape:zoom="1.8105469"
     inkscape:cx="192.48328"
     inkscape:cy="256"
     inkscape:window-x="-8"
     inkscape:window-y="-8"
     inkscape:window-maximized="1"
     inkscape:current-layer="svg3024" />
  <rect
     id="svgEditorBackground"
     x="0"
     y="0"
     width="512"
     height="512"
     style="fill: none; stroke: none;" />
  <path
     d="m0,0h512v512h-512z"
     id="path3027" />
  <path
     inkscape:connector-curvature="0"
     id="path3031-5"
     style="fill:#00ff00"
     d="m 307.78383,106.59763 c 0,8.92455 -7.23468,16.15923 -16.15922,16.15923 -8.92455,0 -16.15923,-7.23468 -16.15923,-16.15923 0,-8.924122 7.23468,-16.159242 16.15923,-16.159242 8.92454,0 16.15922,7.23512 16.15922,16.159242 z" />
  <path
     inkscape:connector-curvature="0"
     id="path3031"
     style="fill:#00ff00"
     d="m 205.44693,52.882895 c 0,8.924558 -7.23468,16.15923 -16.15922,16.15923 -8.92455,0 -16.15923,-7.234672 -16.15923,-16.15923 0,-8.924113 7.23468,-16.159231 16.15923,-16.159231 8.92454,0 16.15922,7.235118 16.15922,16.159231 z" />
  <path
     inkscape:connector-curvature="0"
     id="path3033"
     style="fill:#00ff00"
     d="m 56.60891,114.68874 c 0,6.34798 -5.145987,11.49396 -11.493959,11.49396 -6.347971,0 -11.493958,-5.14598 -11.493958,-11.49396 0,-6.34767 5.145987,-11.49397 11.493958,-11.49397 6.347972,0 11.493959,5.1463 11.493959,11.49397 z" />
  <path
     inkscape:connector-curvature="0"
     id="path3035"
     style="fill:#00ff00"
     d="m 195.86747,316.22961 c 0,11.43371 -9.26873,20.70242 -20.70242,20.70242 -11.43369,0 -20.70242,-9.26871 -20.70242,-20.70242 0,-11.43314 9.26873,-20.70242 20.70242,-20.70242 11.43369,0 20.70242,9.26928 20.70242,20.70242 z" />
  <path
     inkscape:connector-curvature="0"
     id="path3035-1"
     style="fill:#00ff00"
     d="m 130.61396,180.0561 c 0,11.43371 -9.26873,20.70242 -20.70242,20.70242 -11.43369,0 -20.70242,-9.26871 -20.70242,-20.70242 0,-11.43314 9.26873,-20.70242 20.70242,-20.70242 11.43369,0 20.70242,9.26928 20.70242,20.70242 z" />
  <path
     inkscape:connector-curvature="0"
     id="path3037"
     style="fill:#008000"
     d="m 27.118499,27.899004 c -15.113455,11.566362 -8.731324,29.438251 5.907478,34.439315 -11.887805,26.760177 18.296064,38.814311 32.705015,22.777641 1.769809,6.35038 5.589811,11.656067 10.512327,15.76756 -6.834395,17.71677 -0.441051,35.17377 10.480537,45.99072 17.075684,16.91504 34.639284,11.50282 53.761454,3.0668 5.01035,7.77071 11.96439,14.44066 19.85662,19.27353 -8.64349,2.49119 -15.88896,8.44911 -19.85662,16.35251 -12.35691,-12.71197 -32.44337,-4.76372 -34.26172,8.56684 -2.85565,20.93495 23.41491,31.44728 33.09369,17.71678 4.16013,10.35347 13.74739,17.571 25.11378,19.27353 -20.31629,15.86473 -18.6344,46.47476 -0.97554,66.0118 18.94652,20.96111 43.46031,16.48894 61.71345,2.8986 1.9156,8.89203 6.21203,16.48893 11.68036,23.36073 -18.52219,22.25996 -0.4803,54.18566 22.7777,54.8977 L 466.95438,236.37572 c 45.15161,-13.96224 14.37152,-70.59237 -16.93541,-46.72145 2.45755,-48.01283 -46.00212,-78.18928 -81.17964,-63.07022 -8.01553,-38.904017 -78.66023,-34.97194 -90.52374,-4.67214 l -25.11377,-8.76308 c -1.87254,-32.22285 -28.63087,-57.818729 -61.32091,-57.818729 -21.19104,0 -39.77681,11.119705 -50.81057,27.449787 L 128.80695,75.77167 C 128.48737,58.305323 114.22803,44.234691 96.684962,44.234691 c -11.532797,0 -21.198456,6.058838 -26.864834,15.184472 L 59.892811,50.657956 C 68.321304,29.651992 42.970264,12.049219 27.120498,27.899004 z" />
  <g
     id="g3039"
     transform="matrix(16.184871,-9.34429,9.34429,16.184871,-22253.379,-34923.654)">
    <path
       inkscape:connector-curvature="0"
       id="path3041"
       style="fill:#800080;stroke:#000000"
       d="m 108.9573,2233.1978 c 3.0934,1.7858 4.1783,5.6042 2.4983,8.5139 -1.6253,2.8152 -6.4126,6.563 -6.4126,6.563 -2.9912,-0.5843 -4.4619,-2.8587 -6.042702,-5.0479 l 1.598292,-2.0388 c -0.645496,-1.6614 -1.233394,-4.3167 -0.3066,-5.9216 1.68,-2.91 5.5719,-3.8548 8.6653,-2.0689 z" />
    <path
       inkscape:connector-curvature="0"
       id="path3043"
       transform="matrix(-1.58223,-0.9135,-0.9135,1.58223,2608.9994,-404.74785)"
       d="m 461.069,1938.7444 c 0,0.5133 -0.4161,0.9294 -0.9295,0.9294 -0.5134,0 -0.9295,-0.4161 -0.9295,-0.9294 0,-0.5133 0.4161,-0.9295 0.9295,-0.9295 0.5134,0 0.9295,0.4162 0.9295,0.9295 z" />
    <path
       inkscape:connector-curvature="0"
       id="path3045"
       transform="matrix(-1.82644,-1.05449,-1.05449,1.82644,2990.6739,-816.69308)"
       d="m 461.069,1938.7444 c 0,0.5133 -0.4161,0.9294 -0.9295,0.9294 -0.5134,0 -0.9295,-0.4161 -0.9295,-0.9294 0,-0.5133 0.4161,-0.9295 0.9295,-0.9295 0.5134,0 0.9295,0.4162 0.9295,0.9295 z" />
    <path
       inkscape:connector-curvature="0"
       id="path3047"
       d="m 107.4685,2241.6977 -1.143,3.2293 -1.818,-1.3237 z" />
    <path
       style="fill:none;stroke:#000000"
       inkscape:connector-curvature="0"
       id="path3049"
       d="m 99.2329,2242.895 c 1.417,-1.2203 2.7868,-2.4893 3.361,-4.5806" />
    <path
       inkscape:connector-curvature="0"
       id="path3051"
       d="m 97.9887,2244.0415 1.4469,-0.8665 2.8933,-0.089 -1.2233,2.1623 2.4721,-0.5485 -0.9012,2.0258 2.3833,-1.0253 -0.0218,2.4744 z" />
  </g>
  <path
     inkscape:connector-curvature="0"
     id="path3035-7"
     style="fill:#00ff00"
     d="m 247.15334,122.06257 c 0,11.43371 -9.26873,20.70242 -20.70242,20.70242 -11.43369,0 -20.70242,-9.26871 -20.70242,-20.70242 0,-11.43314 9.26873,-20.70242 20.70242,-20.70242 11.43369,0 20.70242,9.26928 20.70242,20.70242 z" />
  <path
     inkscape:connector-curvature="0"
     id="path3033-4"
     style="fill:#00ff00"
     d="m 162.82945,244.12513 c 0,6.34798 -5.14599,11.49396 -11.49396,11.49396 -6.34797,0 -11.49396,-5.14598 -11.49396,-11.49396 0,-6.34767 5.14599,-11.49397 11.49396,-11.49397 6.34797,0 11.49396,5.1463 11.49396,11.49397 z" />
  <path
     inkscape:connector-curvature="0"
     id="path3033-0"
     style="fill:#00ff00"
     d="m 129.69029,54.679622 c 0,6.34798 -5.14599,11.49396 -11.49396,11.49396 -6.34797,0 -11.49396,-5.14598 -11.49396,-11.49396 0,-6.34767 5.14599,-11.49397 11.49396,-11.49397 6.34797,0 11.49396,5.1463 11.49396,11.49397 z" />
  <path
     inkscape:connector-curvature="0"
     id="path3033-9"
     style="fill:#00ff00"
     d="m 421.31488,159.62028 c 0,6.34798 -5.14598,11.49396 -11.49396,11.49396 -6.34797,0 -11.49395,-5.14598 -11.49395,-11.49396 0,-6.34766 5.14598,-11.49396 11.49395,-11.49396 6.34798,0 11.49396,5.1463 11.49396,11.49396 z" />
  <path
     inkscape:connector-curvature="0"
     id="path3033-48"
     style="fill:#00ff00"
     d="m 183.26527,184.47465 c 0,6.34798 -5.14599,11.49396 -11.49396,11.49396 -6.34797,0 -11.49396,-5.14598 -11.49396,-11.49396 0,-6.34767 5.14599,-11.49397 11.49396,-11.49397 6.34797,0 11.49396,5.1463 11.49396,11.49397 z" />
  <path
     inkscape:connector-curvature="0"
     id="path3035-8"
     style="fill:#00ff00"
     d="m 260.40899,216.50917 c 0,11.43371 -9.26873,20.70242 -20.70242,20.70242 -11.43369,0 -20.70242,-9.26871 -20.70242,-20.70242 0,-11.43314 9.26873,-20.70242 20.70242,-20.70242 11.43369,0 20.70242,9.26928 20.70242,20.70242 z" />
  <path
     inkscape:connector-curvature="0"
     id="path3031-2"
     style="fill:#00ff00"
     d="m 335.39978,173.42826 c 0,8.92456 -7.23468,16.15923 -16.15922,16.15923 -8.92455,0 -16.15923,-7.23467 -16.15923,-16.15923 0,-8.92411 7.23468,-16.15923 16.15923,-16.15923 8.92454,0 16.15922,7.23512 16.15922,16.15923 z" />
  <path
     inkscape:connector-curvature="0"
     id="path3031-4"
     style="fill:#00ff00"
     d="m 133.25091,106.04531 c 0,8.92456 -7.23468,16.15923 -16.15922,16.15923 -8.92455,0 -16.15923,-7.23467 -16.15923,-16.15923 0,-8.924111 7.23468,-16.159231 16.15923,-16.159231 8.92454,0 16.15922,7.23512 16.15922,16.159231 z" />
  <path
     inkscape:connector-curvature="0"
     id="path3033-5"
     style="fill:#00ff00"
     d="m 344.5425,238.60194 c 0,6.34798 -5.14599,11.49396 -11.49396,11.49396 -6.34797,0 -11.49396,-5.14598 -11.49396,-11.49396 0,-6.34767 5.14599,-11.49397 11.49396,-11.49397 6.34797,0 11.49396,5.1463 11.49396,11.49397 z" />
  <path
     inkscape:connector-curvature="0"
     id="path3033-1"
     style="fill:#00ff00"
     d="m 251.75287,399.87919 c 0,6.34798 -5.14599,11.49396 -11.49396,11.49396 -6.34797,0 -11.49396,-5.14598 -11.49396,-11.49396 0,-6.34767 5.14599,-11.49397 11.49396,-11.49397 6.34797,0 11.49396,5.1463 11.49396,11.49397 z" />
  <path
     inkscape:connector-curvature="0"
     id="path3035-8-7"
     style="fill:#00ff00"
     d="m 278.63554,310.40345 c 0,11.43371 -9.26873,20.70242 -20.70242,20.70242 -11.43369,0 -20.70242,-9.26871 -20.70242,-20.70242 0,-11.43314 9.26873,-20.70242 20.70242,-20.70242 11.43369,0 20.70242,9.26928 20.70242,20.70242 z" />
  <path
     inkscape:connector-curvature="0"
     id="path3031-4-1"
     style="fill:#00ff00"
     d="m 77.466666,227.00324 c 0,8.92456 -7.23468,16.15923 -16.15922,16.15923 -8.92455,0 -16.159227,-7.23467 -16.159227,-16.15923 0,-8.92411 7.234677,-16.15923 16.159227,-16.15923 8.92454,0 16.15922,7.23512 16.15922,16.15923 z" />
</svg>
