<?xml version="1.0" encoding="UTF-8" standalone="no"?>
<svg
   xmlns:dc="http://purl.org/dc/elements/1.1/"
   xmlns:cc="http://creativecommons.org/ns#"
   xmlns:rdf="http://www.w3.org/1999/02/22-rdf-syntax-ns#"
   xmlns:svg="http://www.w3.org/2000/svg"
   xmlns="http://www.w3.org/2000/svg"
   xmlns:xlink="http://www.w3.org/1999/xlink"
   xmlns:sodipodi="http://sodipodi.sourceforge.net/DTD/sodipodi-0.dtd"
   xmlns:inkscape="http://www.inkscape.org/namespaces/inkscape"
   viewBox="0 0 512 512"
   id="svg10325"
   version="1.1"
   inkscape:version="0.48.4 r9939"
   width="100%"
   height="100%"
   sodipodi:docname="riveted.svg">
  <metadata
     id="metadata10351">
    <rdf:RDF>
      <cc:Work
         rdf:about="">
        <dc:format>image/svg+xml</dc:format>
        <dc:type
           rdf:resource="http://purl.org/dc/dcmitype/StillImage" />
        <dc:title></dc:title>
      </cc:Work>
    </rdf:RDF>
  </metadata>
  <defs
     id="defs10349">
    <linearGradient
       inkscape:collect="always"
       id="linearGradient6775">
      <stop
         style="stop-color:#000000;stop-opacity:1;"
         offset="0"
         id="stop6777" />
      <stop
         style="stop-color:#000000;stop-opacity:0;"
         offset="1"
         id="stop6779" />
    </linearGradient>
    <linearGradient
       id="linearGradient6748">
      <stop
         style="stop-color:#4d4d4d;stop-opacity:1;"
         offset="0"
         id="stop6750" />
      <stop
         style="stop-color:#ddd5d5;stop-opacity:1;"
         offset="1"
         id="stop6752" />
    </linearGradient>
    <linearGradient
       inkscape:collect="always"
       xlink:href="#linearGradient6748"
       id="linearGradient6754"
       x1="384"
       y1="152.40677"
       x2="427.38983"
       y2="754.44067"
       gradientUnits="userSpaceOnUse" />
    <linearGradient
       inkscape:collect="always"
       xlink:href="#linearGradient6748"
       id="linearGradient6762"
       x1="274.09372"
       y1="398.63013"
       x2="275.61484"
       y2="124.18945"
       gradientUnits="userSpaceOnUse" />
    <linearGradient
       inkscape:collect="always"
       xlink:href="#linearGradient6775"
       id="linearGradient6781"
       x1="428.47458"
       y1="641.08472"
       x2="103.05085"
       y2="886.2373"
       gradientUnits="userSpaceOnUse" />
    <clipPath
       clipPathUnits="userSpaceOnUse"
       id="clipPath6856">
      <path
         style="fill:none;stroke:#000000;stroke-width:1px;stroke-linecap:butt;stroke-linejoin:miter;stroke-opacity:1"
         d="m 357.82225,212.84353 c -1.9608,-18.45444 -132.92712,-22.27815 -161.05834,-5.13214 0.91599,18.90515 -13.15019,92.67727 -7.03103,112.37948 7.21106,23.21784 121.34615,9.97397 164.02088,5.18698 0.86783,-12.25722 7.71827,-78.08386 4.06849,-112.43432 z"
         id="path6858"
         inkscape:connector-curvature="0"
         sodipodi:nodetypes="scscs" />
    </clipPath>
  </defs>
  <sodipodi:namedview
     pagecolor="#ffffff"
     bordercolor="#666666"
     borderopacity="1"
     objecttolerance="10"
     gridtolerance="10"
     guidetolerance="10"
     inkscape:pageopacity="0"
     inkscape:pageshadow="2"
     inkscape:window-width="1273"
     inkscape:window-height="1121"
     id="namedview10347"
     showgrid="false"
     inkscape:zoom="1.3037281"
     inkscape:cx="286.44446"
     inkscape:cy="208.47276"
     inkscape:window-x="50"
     inkscape:window-y="50"
     inkscape:window-maximized="0"
     inkscape:current-layer="svg10325" />
  <path
     d="m0,0h512v512h-512z"
     id="path10327" />
  <g
     id="g6783"
     clip-path="url(#clipPath6856)"
     transform="matrix(2.1862712,0,0,2.880095,-344.4299,-509.44748)">
    <path
       style="fill:#c9cbcc"
       d="m 155.86443,264.67799 c 0,-33.83333 0,-67.66667 0,-101.5 82.66667,0 165.33333,0 248,0 0,67.66667 0,135.33333 0,203 -82.66667,0 -165.33333,0 -248,0 0,-33.83333 0,-67.66667 0,-101.5 z"
       id="path6809"
       inkscape:connector-curvature="0" />
    <path
       style="fill:#c0c2be"
       d="m 155.86443,264.67799 c 0,-33.83333 0,-67.66667 0,-101.5 36.42597,0.19407 72.87096,-0.50996 109.28125,0.62478 9.15984,-0.8133 24.00238,0.53868 32.47948,-0.33103 6.2541,-3.14694 12.71722,17.5261 13.95979,5.45316 -14.55144,-6.09142 9.9814,-7.3873 11.58846,-2.02221 4.80616,7.59077 -13.56074,6.08206 -1.3589,13.22363 2.60233,-0.0987 4.38137,-5.26516 9.62216,-0.34744 1.12652,-2.38216 -5.70204,-7.1843 1.95332,-9.05172 -4.89503,-14.41274 10.431,-3.40048 14.74689,-2.52961 4.19198,-6.62922 11.45465,-4.9129 18.12179,-5.01956 12.32545,0.2526 24.75083,-0.71548 36.99005,0.80771 6.25826,9.7157 -20.22459,13.38068 -2.68745,13.40108 6.41945,1.43504 1.80538,10.61748 3.19971,15.581 0.01,57.73674 0.0201,115.47347 0.0301,173.21021 -9.86255,0.24949 -15.72638,-2.01338 -25.11426,-0.0163 -15.06061,-0.20963 -21.21414,-1.92785 -36.0087,-0.31349 -62.26564,0.58453 -124.5359,0.23501 -186.80368,0.32976 0,-33.83333 0,-67.66667 0,-101.5 z m 245,56.5 c -2.55998,-6.80117 -1.95519,6.58942 0,0 z m -158.5,-13.0435 c -5.03519,-9.89523 -21.34349,-4.40082 -5,0.30625 1.10422,0.54807 5.05857,2.67684 5,-0.30625 z m 108.13103,-1.29044 c -7.93659,-11.54559 -10.51695,10.39396 0,0 z m -66.63103,1.2682 c -1.07785,-10.95956 -24.38366,0.13885 -6,0.0657 1.59274,0.75679 4.79782,1.88754 6,-0.0657 z m 42,-0.7457 c -1.63521,-11.35995 -19.6047,-1.41484 -3.4071,1.10517 0.82398,0.7317 3.93748,0.97068 3.4071,-1.10517 z m -124,-3.21994 c -4.53113,-6.14168 -7.0257,4.25611 0,0 z m 149.5,-29.94297 c -1.96798,-12.12688 -19.29361,6.18513 0,0 z m -145.5,0.59679 c -4.50504,-8.9453 -10.0792,1.93597 0,0 z m 164.5,-11.09679 c -7.91029,-12.19871 -8.76941,8.46238 0,0 z m -34.5,-2.07531 c -8.07054,-10.24388 1.15229,-21.48715 1.61117,-31.38431 -1.26283,-6.38841 -4.99794,-20.33448 -6.36272,-7.27931 -8.27596,9.51564 -8.95313,36.13295 4.75155,38.66362 l 0,0 z m -20.59442,-12.70034 c 7.31238,-10.25965 -6.16308,-27.27345 -15.6182,-26.18953 -0.0684,7.46013 -7.48218,23.39125 2.12728,26.12985 5.01822,1.4425 10.10622,8.34106 13.49092,0.0597 z m 35.59442,-2.81574 c -2.46995,-16.34859 -18.33901,4.47364 0,0 z m -143.52254,-1.89779 c -4.71812,-12.05416 -10.92808,2.38574 0,0 z m 168.1289,-1.42715 c 6.16631,-16.33016 -16.89947,5.19623 0,0 z m 10.39364,-1.5503 c -3.79324,-10.09577 -5.54849,7.75414 0,0 z m -72.5,-13.05902 c -4.59825,-3.55618 -0.0647,3.41579 0,0 z m 79.5,-1 c -3.66986,-7.04522 -5.28555,7.26267 0,0 z m -41.19477,-8.2111 c -1.21195,-11.70697 -17.01176,-3.83529 -3.83,1.693 1.46143,2.38079 4.16163,0.66754 3.83,-1.693 z m 33.19477,-0.2889 c -5.31998,-7.0685 -6.64971,7.32524 0,0 z m -58,-5.4288 c -6.41957,-6.32664 -7.28485,-16.48145 2.81134,-6.9002 3.32886,13.14375 23.25543,-9.19496 4.05947,-5.61249 -11.83176,-8.14094 -29.801,-2.82187 -44.17525,-4.22458 -8.88211,1.50686 15.64352,23.61473 21.23234,9.13311 1.28816,3.25281 11.13082,12.45206 16.0721,7.60416 z m -119.6087,-0.49388 c -6.90908,-7.66903 -6.13925,6.08953 0,0 z m 35.10352,-1.56894 c -2.92077,-12.36147 -18.90762,0.62434 -2.99482,-0.008 0.5755,1.24235 2.41631,1.25346 2.99482,0.008 z m 43.30645,-2.1969 c -0.9735,-12.46035 -25.40101,-1.22172 -7.66608,0.66875 2.06286,0.78759 6.63264,2.64792 7.66608,-0.66875 z m -41.70563,-10.34596 c 7.10983,2.25563 27.83953,-4.20259 11.31259,-4.65222 -7.30471,5.82331 -13.44384,-12.89112 -12.76085,-0.50823 -6.72027,-6.26224 -18.91596,6.38841 -11.69575,-3.9736 -5.79233,-3.52045 -23.88756,12.38631 -6.91438,10.14237 6.68434,-0.35017 13.35722,-0.9451 20.05839,-1.00832 z m 126.90436,-16.46552 c -2.69252,-4.02999 -2.35666,3.89339 0,0 z m -99,-4 c -2.64539,-3.80547 -6.30001,3.95375 0,0 z m 87,-1.44098 c -4.53235,-8.72107 -2.92529,5.81177 0,0 z m 28,-1.55902 c -2.69252,-4.02999 -2.35666,3.89339 0,0 z m -20,-2.05902 c -4.99998,-4.16082 -2.39274,5.53435 0,0 z m 8.8125,-0.87848 c -0.77929,-3.48409 -4.75691,4.15898 -0.69454,1.05547 l 0.69454,-1.05547 z m 19.6875,-1.89583 c -2.31777,-4.89542 -3.31698,5.58474 0,0 z"
       id="path6807"
       inkscape:connector-curvature="0" />
    <path
       style="fill:#bec0bd"
       d="m 155.87396,264.67799 c -0.008,-33.83333 -0.0153,-67.66667 -0.0229,-101.5 35.93217,0 71.86435,0 107.79652,0 4.06138,8.56059 4.52528,26.83248 -9.8523,23.1343 -13.05162,0.81909 -22.76147,-8.40353 -31.21798,-12.76375 -4.93597,4.46066 -3.07665,13.61174 -12.50406,6.75218 -9.02098,2.33074 -3.99964,11.56203 -3.90872,17.64903 4.58024,-2.59446 1.79771,-19.39063 7.55981,-7.25019 -2.31277,9.55373 2.48114,10.99904 10.6944,9.05049 16.82932,-1.97535 34.91691,0.72775 50.8893,-4.66326 -9.39253,0.0853 -16.60308,-10.69466 -1.88647,-10.9088 13.2211,-3.34067 -17.00317,-20.15215 2.10965,-13.78451 13.19945,-3.41092 23.13552,-2.3344 30.98811,6.24138 -6.9145,0.6547 -13.01983,5.24715 -1.54975,5.18765 9.47978,1.99636 16.2153,7.69495 24.45655,1.91373 6.85963,19.64096 -16.11801,6.61472 -25.5365,11.13239 -6.31654,1.64106 -36.82283,-2.03944 -17.65392,4.5541 6.16601,9.1104 17.79517,13.9388 26.21782,7.28676 2.28336,10.95643 23.99502,10.1703 9.06541,-2.08476 5.64822,-7.3281 12.48065,17.01807 19.79406,1.61191 8.55345,-2.63734 13.32208,-1.99449 1.81108,-5.63582 -8.51378,-9.34127 1.03372,6.88346 -9.54383,-1.17927 -0.8925,-12.99291 18.91628,3.72467 8.8543,-9.61967 2.76874,-11.82539 16.22379,-2.67349 23.03799,-0.36354 7.12612,-9.82549 -3.24816,17.84306 10.55406,15.16867 8.05984,-8.4029 6.67809,12.1491 -2.78054,5.44285 -6.248,-2.62902 -6.82741,-3.62449 -3.39444,4.76104 -4.95918,5.27707 -2.3611,18.11554 1.62471,5.82653 11.79193,-3.19792 19.53369,24.50053 7.33948,12.0705 2.16887,-8.12733 -6.39833,-4.58411 -4.97235,1.50347 -14.60891,6.7998 3.52578,16.26966 6.05123,6.55407 -0.37197,7.57059 12.38346,16.44838 16.74517,8.41198 13.45499,-1.72317 3.04156,20.36036 7.18809,29.09942 -3.77288,9.49382 5.19866,27.72292 -8.8184,24.14823 2.16547,-4.4714 6.3878,-20.44642 -1.87726,-10.78938 3.41044,9.29963 -14.78601,2.44717 -2.57309,11.72183 7.06008,4.60698 14.95047,13.28 1.30517,7.87967 7.60427,7.35057 -15.0329,7.86142 -0.93298,12.82188 5.49848,-9.58071 10.00976,9.04901 12.33837,-4.15508 3.05488,7.73264 -0.71621,12.13485 -4.56133,11.89896 8.464,-0.30732 3.71624,9.45919 4.98539,14.73851 -0.74267,10.47971 3.18742,24.90304 -9.49172,18.38643 -7.98048,0.15741 -22.93047,3.69066 -32.60993,-0.5646 -5.64531,1.8653 -15.57209,0.68258 -26.38741,1.59315 -45.59908,0.17969 -91.21877,0.68473 -136.80649,-0.41607 -10.08172,-0.52061 -18.89848,0.10006 -30.56277,0.63752 -5.24828,-0.65494 -14.69448,2.889 -11.94003,-5.77048 -0.007,-31.90975 -0.0145,-63.82002 -0.0215,-95.72945 z m 221.81031,60.50012 c -5.8154,-5.76721 -12.19011,6.9326 -3.24728,0.20244 -2.05712,7.51771 7.43773,5.6057 3.24728,-0.20244 z m -135.2575,-16.10099 c -0.56485,-9.54158 -23.01881,-7.58751 -7.28265,-1.72322 2.13643,0.0524 5.53232,4.63099 7.28265,1.72322 z m 83.43766,-1.28835 c -0.6468,-12.82678 -19.07516,-1.62206 -2.68593,1.57559 1.12781,1.64776 3.58235,0.0807 2.68593,-1.57559 z m 26,0.88922 c -3.08976,-14.08747 -18.07852,4.55521 0,0 z m -67.68662,-1.25 c -2.70611,-10.10526 -23.83178,0.39913 -6.81338,0.75 1.18359,0.84194 7.95303,2.46276 6.81338,-0.75 z m -81.31338,-2.05 c -3.66893,-7.77823 -11.01681,0.94606 0,0 z m 131,-12.2 c -4.37914,-13.15743 -1.88164,11.9394 0,0 l 0,0 z m 59.81955,-11.75 c -4.80411,-8.37919 -11.6649,4.33453 -0.81018,1.74363 l 0.81018,-1.74363 z m -41.98489,-7.28254 c -6.8677,-11.48041 -13.36897,6.89217 -0.005,2.09648 l 0.005,-2.09648 0,0 z m 31.66534,3.03254 c -3.06645,-3.21518 -0.31598,3.44574 0,0 z m -177.5,-2.37756 c -4.98658,-9.64395 -9.67554,3.45348 0,0 z m 128,-9.2622 c 2.6232,-9.95189 -3.75404,-22.64375 3.76539,-33.35802 0.49948,-7.11472 -5.72216,-26.17019 -7.37374,-8.44263 -6.99752,10.49816 -6.80616,29.41668 1.79858,38.58805 2.204,2.56517 -7.85246,7.40963 1.80977,3.2126 z m 37,-1.69126 c -8.61093,-14.70158 -10.87334,9.99563 0,0 z m 30,-0.66898 c -3.68219,-4.02435 -3.83641,3.91193 0,0 z m -14.24953,-6.25 c -5.43838,-6.01078 -4.10765,5.23853 0,0 z m -72.02406,-5.45521 c 14.90376,-11.0238 -13.52107,-43.28985 -16.47534,-21.51245 -2.73904,11.83996 -1.68999,20.41041 11.22166,22.99514 l 2.75422,1.19211 2.49946,-2.6748 0,0 z m -1.47641,-18.95707 c -4.10389,-4.67346 6.00129,0.43133 0,0 z m 38.75,14.38479 c -0.34675,-13.05836 -18.91801,-1.6781 -3.22486,1.64769 1.15767,1.16917 3.90816,0.30219 3.22486,-1.64769 z m -144.25041,-3.47128 c -6.28778,-10.99153 -12.09101,4.41155 0,0 z m 144.7802,-23.34508 c -0.23703,-12.96533 -18.72514,-5.16201 -4.08716,0.96148 1.06092,1.48203 4.0922,1.24568 4.08716,-0.96148 z m 12.47021,-5.46517 c -3.78882,-5.25925 -2.59645,6.82934 0,0 z m -157,-1.4058 c -5.64677,-7.68932 -11.71405,3.81697 0,0 z m 35,-1.47008 c -1.64353,-13.20184 -21.06595,0.30117 -3.5,-0.5651 0.63033,0.3107 2.72517,1.8507 3.5,0.5651 z m 42.84497,-3.50907 c -1.18674,-11.48156 -25.18425,-1.4322 -7.75315,1.80555 2.46577,0.6222 7.18235,2.04433 7.75315,-1.80555 z m 75.95798,-5.25895 c 0.92298,-9.10652 -11.88007,-7.72756 -3.77416,0.30982 0.10027,4.52025 4.46466,4.20517 3.77416,-0.30982 z m -168.80295,0.1439 c -2.38859,-3.74796 -2.25662,5.32266 0,0 z m 8.01365,-10.19098 c 3.78852,-11.08043 -14.57559,-2.65665 -1.50217,1.20324 l 1.042,-0.16762 0.46017,-1.03562 z M 355.2944,191.2913 c -1.9305,-7.53944 -4.1539,3.04866 0,0 z m 47.22069,116.41872 c 0.25504,-7.10966 2.82393,4.91732 0,0 z m -3.10453,-62.26796 c -8.08417,-1.42445 -14.73606,-5.94465 -2.74165,-7.8084 3.44158,-2.79058 -9.68895,-6.09041 0.84802,-10.06649 6.28308,-3.50977 10.64192,23.19459 1.89363,17.87489 z m -0.54613,-27.4516 c -4.21364,-4.10901 -30.16239,-0.90957 -13.86131,-6.84691 8.51156,1.71028 -8.67709,-9.46001 3.47513,-7.781 0.45212,-8.19433 -19.14498,-1.42778 -11.0451,-13.54092 -2.50318,-15.2616 31.99408,-14.51093 23.54353,-2.93921 -17.10141,4.98618 13.88414,12.96533 1.38775,25.6576 -4.65453,3.08143 7.12186,8.64105 -3.5,5.45044 z m -12,-27.1905 c 13.9415,-19.72831 -12.64864,3.80848 0,0 z m -14,8.43705 c 2.15095,-3.62489 2.78409,2.21242 0,0 z m 29,-8.05902 c 2.69252,-4.02999 2.35666,3.89339 0,0 z m -64.53195,-8.10066 c 0.23387,-10.89271 6.35265,7.43164 0,0 l 0,0 z m -25.98768,-3.9311 c 0.76878,-8.303 9.05668,3.39417 0,0 z m 20.51963,-3.96824 c 4.62052,-4.04445 5.37717,3.91436 0,0 z m 16,-3.27859 c 5.67191,-13.0985 9.15819,5.24289 0,0 z m -28.33333,-1.38808 c -2.8798,-12.08329 9.06152,3.69662 0,0 z m 50.36513,-0.52431 c 2.29565,-6.93667 2.71353,2.44709 0,0 l 0,0 z m -9.56693,-0.86586 c 0.50717,-17.53451 12.13655,4.08952 0,0 z m 35.97626,-2.41136 c -7.61066,-7.17306 17.24571,-1.83629 2.20606,1.34634 l -2.20606,-1.34634 z M 273.5311,165.51132 c 1.59491,-5.74484 24.88715,-0.57265 6.17056,0.58435 -2.0608,0.0517 -4.21769,0.30768 -6.17056,-0.58435 z m 24.83333,-1.33333 c 1.34468,-3.73624 4.19732,3.58316 0,0 z"
       id="path6805"
       inkscape:connector-curvature="0" />
    <path
       style="fill:#b2b7c5"
       d="m 155.86443,360.76132 c 2.81104,-7.3428 -2.44506,-19.69639 6.16175,-6.90761 4.65447,1.42387 15.13061,-11.26425 1.57905,-9.68576 -15.28521,-0.61553 -4.01769,-27.83302 -7.67852,-39.2672 -0.0824,-47.24086 -0.0497,-94.48184 -0.073,-141.72276 18.29234,0.22341 36.63708,-0.57386 54.88621,0.68252 1.35439,9.93759 -6.19246,21.36999 -17.90253,15.3264 -3.90296,4.86955 -18.70733,12.50566 -4.98932,13.09273 3.68305,7.21052 -8.00687,18.92724 5.91177,14.80933 0.85377,-15.48037 14.43068,-1.0543 25.00736,-6.53543 21.05997,0.24275 42.14358,-3.98627 63.09722,-2.4008 8.65008,5.95089 18.96218,17.87942 29.71346,8.49775 -0.03,8.66685 24.53339,13.21697 12.20478,0.59913 -5.96466,-12.43709 14.80452,5.36999 7.39358,13.26896 -10.57539,13.07735 -2.60446,32.47028 -1.81182,45.02104 -0.93993,8.92246 14.15743,-4.91284 4.76488,-10.79231 -4.3631,-9.71865 7.11789,-18.09149 3.68767,-27.27434 -10.55788,-11.7318 5.7494,-30.54429 16.61012,-18.1738 6.84027,6.64688 18.19193,19.181 16.10294,25.5699 -8.89434,8.91005 0.93808,14.44752 9.44372,12.54986 6.10138,14.2022 29.4068,-6.95009 21.79029,11.8309 -6.62228,2.92566 -30.65286,-15.64984 -20.9986,-1.40063 13.79147,-3.30594 17.01001,26.76123 2.76731,17.32165 1.20542,-9.20441 -24.47299,0.53174 -6.7699,3.40866 11.7865,1.17464 -0.15324,7.71139 12.53705,7.92765 3.77855,9.76096 -13.62419,-2.60157 -8.19957,8.40528 -2.56673,3.16688 -1.15755,9.77879 -1.92765,13.26555 7.54933,-17.9215 17.78799,18.54998 5.23081,3.13143 -2.155,6.43292 -3.77652,13.48523 -8.02324,2.72131 -11.17863,-4.41284 -10.91167,7.69768 -8.63065,11.70144 -7.51008,6.10663 3.66299,18.48126 10.65676,6.85316 5.51104,-8.01396 8.21799,4.02444 14.77029,0.41336 11.64797,4.9561 9.5492,8.97263 9.93777,16.03508 1.08989,9.24497 -2.44313,9.14612 -5.5848,-0.30425 -6.74999,4.41243 -7.13242,25.85785 -22.74415,16.19847 -8.08613,8.27612 -15.33045,-13.30586 -21.17546,1.14219 -6.92312,-1.47687 -19.43787,-0.6925 -26.74559,0.10781 -3.2445,-3.85614 -9.04322,2.55815 -19.01531,-1.25 -6.74591,0.96744 -25.66115,1.3443 -37.43764,1.22836 -22.51195,-0.48752 -45.2578,1.12291 -67.626,-1.22836 -7.7945,4.14392 -4.98034,-8.53256 -13.42135,1.1354 -10.68925,-2.05874 -10.77697,0.34866 -21.57865,-1.1354 -2.75092,0.19703 -14.93716,5.25021 -11.92102,-4.16667 z m 28,-1.14235 c -5.39203,-2.21365 -1.21535,3.42797 0,0 z m 169.52392,-2.51634 c -0.31977,-9.19856 -6.82309,7.17323 0,0 z m 18.59196,-5.30588 c 3.83082,-14.57819 -10.00977,-2.32617 -13.10622,-6.60595 -12.64011,-3.32224 5.10673,12.30765 8.19331,2.26664 9.17324,-1.97018 -2.14051,13.48572 4.91291,4.33931 z m -192.23777,1.47773 c 2.03696,-9.93247 -15.46352,-2.40118 -4.62811,0.8882 l 2.70013,-0.26707 1.92798,-0.62113 0,0 z m 208.46281,-2.50405 c 8.37527,-4.35704 -7.12078,-18.91781 -1.88143,-5.82302 -9.98939,1.3369 -7.21055,13.36886 1.88143,5.82302 z m -38.59092,-1.29961 c 3.82402,-9.27694 -8.46359,-5.25941 -1.89496,2.69937 l 1.89496,-2.69937 0,0 z m -23.75,-41.63784 c -0.29146,-12.8555 -21.01101,-2.11518 -3.32077,1.26462 1.94562,2.53938 3.30741,2.95334 3.32077,-1.26462 z m 26,1.17375 c -2.73257,-13.29984 -16.78114,2.52318 -1.25,2.08531 l 0.88281,-0.5771 0.36719,-1.50821 0,0 z m -108.50518,0.17964 c -1.58539,-11.32354 -24.89868,-7.11504 -7.97327,-1.17783 2.29332,0.4148 5.95312,3.43859 7.97327,1.17783 z m 40.39254,-3.35625 c -3.53617,-7.78306 -22.53706,1.77869 -7.21601,2.39461 2.32263,0.2661 10.36457,3.54002 7.21601,-2.39461 z m -81.38736,-1.65213 c -12.84818,-6.57338 1.38392,7.21376 0,0 z m 132.10795,-4.75 c 7.5174,-9.88789 -9.49505,-15.18416 -4.16112,-2.46646 0.30644,0.94505 2.43505,7.41104 4.16112,2.46646 z m 16.69274,-21.69355 c 5.93889,-12.76618 -19.03574,-5.91394 -3.4999,0.10149 l 1.71263,1.23633 1.78727,-1.33782 0,0 z m -145.47737,-3.19927 c -7.36878,-10.50789 -6.2773,6.63492 0,0 z m 165.82935,-9.89443 c -1.00994,-14.27585 -19.44531,4.89761 0,0 z m -179.65267,-9.96275 c -4.55469,-5.59557 -2.39296,5.11716 0,0 z m 123.31716,-3.75 c 13.45812,-11.50071 -14.25747,-42.40737 -17.06609,-20.96766 -2.82309,11.95238 -1.57562,20.43499 11.37237,23.07262 2.35824,3.11514 5.04484,-0.0166 5.69372,-2.10496 z m -3.31716,-19.75 c 2.43212,-3.9442 4.03866,4.06572 0,0 z m 40,15.5 c -1.49298,-15.8242 -18.2795,0.32343 -2.65596,3.05181 1.99309,1.62079 3.14288,-1.82006 2.65596,-3.05181 z m -144,-2.84501 c -7.31751,-13.23702 -10.88425,5.70002 0,0 z m -21.60207,-6.79044 c 10.46972,-9.53795 -11.067,2.53425 0,0 z m 165.40207,-15.06455 c 5.84386,-13.11934 -19.32999,-10.04149 -4.46762,-1.05 0.42974,2.39575 3.44297,2.76565 4.46762,1.05 z m -143.8,-8.17756 c -4.5436,-9.60243 -11.80507,3.23334 0,0 z m 35,-3.12244 c -2.91101,-12.61693 -20.24691,1.60174 -4.5,0.55485 0.25595,0.76112 4.79684,1.74246 4.5,-0.55485 z m 43.20127,-1.04239 c 3.03675,-13.87895 -27.30136,-3.38105 -9.29811,0.0681 2.87459,-0.049 8.06142,5.02777 9.29811,-0.0681 z m 110.73581,154.65996 c 15.48337,-9.93277 0.55018,6.89381 0,0 z m -5.93708,-36.1532 c 0.0692,-10.99415 12.15665,3.30073 0,0 z m 11.54271,0.10473 c 0.25287,-5.34055 3.43516,3.20201 0,0 z m -20.89205,-3.53707 c 0.41183,-6.56531 4.1859,4.94294 0,0 z m -8.01118,-4.22588 c -2.72095,-7.48443 6.86935,-0.0919 0,0 z m 27.11052,-19.6982 c -6.32129,-12.11503 9.66216,4.23939 0,0 z m 1.25,-8.60795 c 2.69252,-4.02999 2.35666,3.89339 0,0 z m -4.49277,-7.34862 c -5.79805,-9.46687 8.78788,-14.13263 2.56036,-3.49689 5.75737,3.64297 3.67106,9.02871 -2.56036,3.49689 z m 4.49277,-2.59236 c 2.41851,-5.19847 2.28482,3.51394 0,0 z m -3,-14.05902 c 3.75786,-7.01534 3.12625,6.75372 0,0 z m 2.51277,-29.97933 c 0.17041,-10.51722 5.38046,2.35432 0,0 l 0,0 z m -5.90633,-5.74756 c 1.43782,-7.78685 6.83645,0.79391 0,0 z m -17.09636,-25.2568 c 1.10193,-3.35485 4.05544,1.9093 0,0 z m -13.84341,-1.68298 c -3.47109,-11.10066 14.04346,1.39173 0,0 z m 37.02718,-2.97281 c 0.0375,-7.29853 5.29186,2.81203 0,0 z M 295.93457,193.7625 c -2.4441,-11.02743 25.16123,-10.62727 17.64226,-2.63571 -7.76762,-4.22895 -10.73628,7.03172 -17.64226,2.63571 z m 51.5229,-0.20264 c 0.98035,-10.42318 8.74392,5.494 0,0 z m 15.90696,0.61813 c 0.26392,-3.66733 3.00162,3.36878 0,0 z m 29,-10.01972 c -9.59963,-9.77413 22.97374,1.1083 5.875,1.48754 l -2.90775,-0.16707 -2.96725,-1.32047 z m -135.25,-3.83796 c -11.08624,-7.5527 16.7338,-7.54592 3.02157,0.97988 l -3.02157,-0.97988 z m -28.13288,-9.5012 c 0.65824,-10.96832 35.01161,-10.12319 15.76005,0.24233 -9.08797,-11.35813 -7.28152,4.44703 -15.76005,-0.24233 z"
       id="path6803"
       inkscape:connector-curvature="0" />
    <path
       style="fill:#b0b3b2"
       d="m 155.86443,360.76132 c 2.81104,-7.3428 -2.44506,-19.69639 6.16175,-6.90761 4.65447,1.42387 15.13061,-11.26425 1.57905,-9.68576 -15.28521,-0.61553 -4.01769,-27.83302 -7.67852,-39.2672 -0.0824,-47.24086 -0.0497,-94.48184 -0.073,-141.72276 18.29234,0.22341 36.63708,-0.57386 54.88621,0.68252 1.35439,9.93759 -6.19246,21.36999 -17.90253,15.3264 -3.90296,4.86955 -18.70733,12.50566 -4.98932,13.09273 3.77034,7.56327 -7.53165,18.03852 5.40423,16.7437 1.67598,-11.27449 4.21152,-10.66592 12.90171,-7.39137 24.29096,-0.93524 48.53324,-3.82349 72.82476,-4.00153 19.46692,2.88785 16.88826,25.32162 15.04747,39.87192 -3.2128,11.39929 3.55329,26.08118 13.58165,24.54859 7.95215,20.76142 7.88591,-23.3411 15.03288,-12.55226 5.3404,6.25998 -0.0566,29.19657 11.66536,19.46215 4.14888,-11.55734 -4.54374,-25.1579 4.53233,-36.40578 -2.28614,-10.07025 -8.08713,-25.4458 7.44705,-27.37707 13.35667,2.0089 19.91078,20.58456 25.9495,27.9499 -11.93233,10.20326 -0.19105,15.07688 8.46511,15.58881 7.00508,9.29659 16.7747,-0.28135 23.04402,2.71188 1.03721,20.55702 -25.40109,-7.76072 -25.73192,4.39066 10.56115,0.56652 22.21145,16.25047 9.73783,21.90737 -4.41365,-6.73836 -9.15699,-7.57929 -18.02141,-3.73217 4.22744,5.62119 16.62559,5.27502 12.88004,10.8898 14.54268,3.00359 2.83792,6.27782 -2.45051,6 2.88644,3.96201 -2.34814,8.03997 -0.30123,12.9342 -5.92856,11.4355 9.8947,-9.43844 9.00748,4.71883 6.42235,12.00999 -3.49638,2.52458 -5.82442,4.48629 1.6103,18.41947 -11.53538,-9.59751 -14.96619,2.90672 -5.96766,5.84381 4.99435,8.46888 -4.20939,14.94544 5.87697,2.50846 3.56459,12.20397 12.60246,3.49286 6.34322,-9.2159 11.1305,0.15711 18.51118,0.18217 11.18951,4.40242 7.71832,8.62292 7.2685,16.55405 2.84709,11.599 -3.13039,-0.34003 -6.92084,-2.35625 -0.97474,11.81842 -10.5317,22.57764 -21.12358,16.17944 -9.64927,7.97655 -14.26408,-13.77663 -20.59213,1.14219 -6.92312,-1.47687 -19.43787,-0.6925 -26.74559,0.10781 -3.2445,-3.85614 -9.04322,2.55815 -19.01531,-1.25 -6.74591,0.96744 -25.66115,1.3443 -37.43764,1.22836 -22.51195,-0.48752 -45.2578,1.12291 -67.626,-1.22836 -7.78881,4.15321 -4.98254,-8.5387 -13.42135,1.1354 -10.68925,-2.05874 -10.77697,0.34866 -21.57865,-1.1354 -2.75092,0.19703 -14.93716,5.25021 -11.92102,-4.16667 z m 28,-1.14235 c -5.39203,-2.21365 -1.21535,3.42797 0,0 z m 169.52392,-2.51634 c -0.31977,-9.19856 -6.82309,7.17323 0,0 z m 18.59196,-5.30588 c 3.83082,-14.57819 -10.00977,-2.32617 -13.10622,-6.60595 -12.64011,-3.32224 5.10673,12.30765 8.19331,2.26664 9.17324,-1.97018 -2.14051,13.48572 4.91291,4.33931 z m -192.23777,1.47773 c 2.03696,-9.93247 -15.46352,-2.40118 -4.62811,0.8882 l 2.70013,-0.26707 1.92798,-0.62113 0,0 z m 208.46281,-2.50405 c 8.37527,-4.35704 -7.12078,-18.91781 -1.88143,-5.82302 -9.98939,1.3369 -7.21055,13.36886 1.88143,5.82302 z m -38.59092,-1.29961 c 3.82402,-9.27694 -8.46359,-5.25941 -1.89496,2.69937 l 1.89496,-2.69937 0,0 z m -23.75,-41.63784 c -0.15694,-12.29077 -20.52811,-3.55086 -4.97178,0.79597 1.65297,1.9166 6.08951,3.91102 4.97178,-0.79597 z m 26,1.17375 c -2.73257,-13.29984 -16.78114,2.52318 -1.25,2.08531 l 0.88281,-0.5771 0.36719,-1.50821 0,0 z m -108.50518,0.17964 c -1.58539,-11.32354 -24.89868,-7.11504 -7.97327,-1.17783 2.29332,0.4148 5.95312,3.43859 7.97327,1.17783 z m 41.50518,0.0387 c -0.2065,-13.39767 -26.16858,-1.03609 -6.90675,-0.60383 1.71615,0.26136 5.54988,2.92738 6.90675,0.60383 z m -82.5,-5.04705 c -12.84818,-6.57338 1.38392,7.21376 0,0 z m 132.10795,-4.75 c 7.95568,-9.39356 -9.6098,-18.73317 -5.81871,-4.93765 1.30006,1.15849 3.19782,10.24867 5.81871,4.93765 z m -34.20805,-16.84996 c 3.17573,-10.68344 -11.3935,1.65794 0,0 z m 50.90079,-4.84359 c 5.52929,-13.10738 -21.03855,-6.66992 -3.47926,0.18058 l 1.70072,1.15996 1.77854,-1.34054 z M 205.68775,274.5352 c -7.36878,-10.50789 -6.2773,6.63492 0,0 z m 96.62685,-7.27656 c -1.73343,-8.5714 -5.99621,2.56104 0,0 z m 69.2025,-2.61787 c -1.00994,-14.27585 -19.44531,4.89761 0,0 z M 192.30469,253.55999 c -0.41354,-9.71469 -5.36398,8.42939 0,0 z m 159.55974,-6.882 c -1.49298,-15.8242 -18.2795,0.32343 -2.65596,3.05181 1.99309,1.62079 3.14288,-1.82006 2.65596,-3.05181 z m -144,-2.90403 c -9.04169,-14.18153 -9.63371,7.76798 0,0 z m -21.60207,-6.73142 c 10.46972,-9.53795 -11.067,2.53425 0,0 z m 165.55639,-15.30951 c 4.57836,-13.34729 -19.39195,-10.28809 -4.62194,-0.80504 0.96074,1.59669 3.42801,3.26985 4.62194,0.80504 z m -143.95432,-7.9326 c -5.28788,-10.12541 -10.82578,4.01523 0,0 z m 35,-3.12244 c -2.20279,-12.10162 -21.03644,1.25624 -4.63653,0.5093 1.51022,0.39365 4.1144,2.27033 4.63653,-0.5093 z m 43.20127,-1.04239 c 3.12919,-13.76453 -27.17137,-3.54379 -9.44499,0.0229 2.96458,0.43844 7.85193,4.93089 9.44499,-0.0229 z m 110.73581,154.65996 c 15.48337,-9.93277 0.55018,6.89381 0,0 z m -5.93708,-36.1532 c 0.0692,-10.99415 12.15665,3.30073 0,0 z m 11.54271,0.10473 c 0.25287,-5.34055 3.43516,3.20201 0,0 z m -20.89205,-3.53707 c 0.41183,-6.56531 4.1859,4.94294 0,0 z m -8.01118,-4.22588 c -2.72095,-7.48443 6.86935,-0.0919 0,0 z m 27.11052,-19.6982 c -6.32129,-12.11503 9.66216,4.23939 0,0 z m 1.25,-8.60795 c 2.69252,-4.02999 2.35666,3.89339 0,0 z m -4.49277,-7.34862 c -5.79805,-9.46687 8.78788,-14.13263 2.56036,-3.4969 5.75737,3.64298 3.67106,9.02872 -2.56036,3.4969 z m 4.49277,-2.59236 c 2.41851,-5.19847 2.28482,3.51394 0,0 z m -3,-14.05902 c 3.75786,-7.01534 3.12625,6.75372 0,0 z m -78.87554,-30.6262 c -3.54357,-9.31272 -25.33728,-27.80125 -8.12446,-28.4669 5.66855,7.74847 23.15382,9.1904 11.0116,-3.60421 7.59913,-6.43898 12.91734,20.86867 1.31052,25.9726 1.31833,2.92507 -0.61014,12.08917 -4.19766,6.09851 z m 81.38831,0.64687 c 0.17041,-10.51722 5.38046,2.35432 0,0 l 0,0 z m -5.90633,-5.74756 c 1.43782,-7.78685 6.83645,0.79391 0,0 z m -17.09636,-25.2568 c 1.10193,-3.35485 4.05544,1.9093 0,0 z m -13.84341,-1.68298 c -3.47109,-11.10066 14.04346,1.39173 0,0 z m 37.02718,-2.97281 c 0.0375,-7.29853 5.29186,2.81203 0,0 z M 295.93457,193.7625 c -2.4441,-11.02743 25.16123,-10.62727 17.64226,-2.63571 -7.76762,-4.22895 -10.73628,7.03172 -17.64226,2.63571 z m 51.5229,-0.20264 c 0.98035,-10.42318 8.74392,5.494 0,0 z m 15.90696,0.61813 c 0.26392,-3.66733 3.00162,3.36878 0,0 z m 29,-10.01972 c -9.59963,-9.77413 22.97374,1.1083 5.875,1.48754 l -2.90775,-0.16707 -2.96725,-1.32047 z m -135.25,-3.83796 c -11.08624,-7.5527 16.7338,-7.54592 3.02157,0.97988 l -3.02157,-0.97988 z m -28.13288,-9.5012 c 0.65824,-10.96832 35.01161,-10.12319 15.76005,0.24233 -9.08797,-11.35813 -7.28152,4.44703 -15.76005,-0.24233 z"
       id="path6801"
       inkscape:connector-curvature="0" />
    <path
       style="fill:#8e9190"
       d="m 217.25744,364.5962 c 3.28555,-8.60255 1.35741,6.39341 0,0 z m 43.71923,-4.05215 c -14.07771,-1.90306 -29.86865,1.09799 -40.43242,-5.49847 -16.01288,-0.40434 -28.53994,-13.19533 -38.23279,-21.51255 -0.70476,-12.08548 -6.99878,-22.41602 -7.34351,-34.79106 -6.72893,-12.63618 -0.0808,-33.91318 16.36678,-30.04328 4.2463,-15.5327 1.74522,-32.94322 3.35897,-49.21031 -4.20953,-22.775 23.86439,-16.52737 37.86174,-18.51122 17.1917,0.59566 34.5655,-4.56068 51.54419,-0.96613 5.86131,3.51102 -24.52633,1.71247 -10.53989,9.61873 7.66928,4.59459 11.70688,4.03637 18.23966,1.50554 5.50992,13.5945 -7.44955,31.93907 2.96326,45.70302 -0.30907,13.21528 -1.81819,37.82661 17.01354,36.13844 5.13244,-3.49436 13.59359,-11.39824 10.94971,-1.01692 3.82321,12.43903 18.58822,11.61262 16.99809,-0.36641 -14.95301,-9.72132 2.67077,-23.23833 -3.28689,-35.61514 -3.86908,-13.55117 6.8804,-26.456 0.51304,-40.4991 -1.15277,-11.86079 21.39894,-10.3972 14.35837,-1.97642 -15.63669,-11.8968 -7.99159,16.63754 2.2291,8.67522 3.1847,-22.32517 19.05026,11.87491 12.51348,21.05911 0.0418,10.07854 -4.9141,20.00193 0.87158,26.80666 -14.01804,8.13529 0.98821,20.76379 1.08533,27.4351 -10.41669,11.76961 -11.42611,-12.40526 -12.53229,-7.87144 -0.20269,11.5109 2.83824,25.77394 -2.09499,38.01631 -14.14629,3.37925 -19.82061,18.70815 -29.57941,23.97898 -12.18379,7.02244 -27.59795,4.61646 -38.75644,8.32528 -3.60304,2.03195 -15.69584,-8.04327 -21.65222,2.25 l -2.41599,-1.63394 0,0 z m 72.38776,-37.36606 c -6.31075,-3.93426 -9.2693,4.36803 0,0 z m 18.3,-9.2 c 8.04653,-12.5058 -17.44146,-14.51937 -6.18352,-2.70309 1.59324,0.27454 3.97481,6.49963 6.18352,2.70309 z m -24.99666,-5.00952 c 1.00141,-15.05946 -25.66687,-8.60009 -7.89869,-0.94275 2.67081,1.62058 7.63477,9.01121 7.89869,0.94275 z m -41.46968,1.7824 c 2.61348,-17.74549 -29.32007,-2.57401 -7.07009,-1.41745 1.81022,0.17077 6.06531,4.93653 7.07009,1.41745 z m -41.3117,-1.09934 c 1.78336,-14.19776 -27.91571,-8.58166 -8.88915,-1.35156 2.60799,0.69445 6.48777,4.74404 8.88915,1.35156 z m -39.02196,-3.15909 c -3.94887,-11.75028 -19.38469,0.72532 0,0 z m 147.02875,-25.84909 c 9.5744,-15.23435 -24.17999,-15.27078 -7.15293,-3.65078 1.82282,1.99307 3.88769,7.84207 7.15293,3.65078 z m -145.02875,-5.44231 c -8.87098,-14.07528 -10.59457,7.03003 0,0 z m 149.75935,-14.77305 c -2.93133,-8.20218 -0.51126,17.93802 0.15407,2.75 l -0.15407,-2.75 z m -3.45325,-10.25 c 5.21052,-13.10963 1.63021,-15.90461 -0.72499,-7.95005 -13.17253,-12.05712 -13.73353,7.71348 -1.74425,10.89927 l 1.2768,-0.8454 1.19244,-2.10382 0,0 z m -145.3061,-6.35902 c -4.82911,-12.53995 -14.24349,5.3288 -0.22031,1.69599 l 0.22031,-1.69599 0,0 z m 0.0575,-31.53362 c -13.70505,-9.09774 -6.09486,11.58741 0,0 z m 34.92723,-1.85736 c -0.19174,-13.57456 -23.19505,1.05443 -5.02442,1.95179 1.87676,0.4307 5.8433,1.63252 5.02442,-1.95179 z m 28.01531,150.75 c 2.69252,-4.02999 2.35666,3.89339 0,0 z m 114.88741,-4.67151 c 7.75966,-10.79301 0.79153,7.39745 0,0 z m 1.11259,-82.2215 c 3.92805,-5.58351 3.84597,3.85399 0,0 z m -218,-1.68031 c 3.753,-4.83783 5.06032,5.58706 0,0 z m 138.07895,-2.84335 c 0.42737,-4.34507 0.92377,3.74279 0,0 z m 5.67105,-46.52462 c -12.96694,-7.23569 -1.86001,-17.77036 7.46368,-8.28349 6.37482,8.58303 12.11445,-5.65279 9.06655,7.04179 -4.33477,8.7302 -10.81821,9.78118 -16.53023,1.2417 z"
       id="path6799"
       inkscape:connector-curvature="0" />
    <path
       style="fill:#7b838b"
       d="m 233.7865,353.08311 c -15.07801,-3.05452 -33.98288,-8.43488 -39.69546,-24.55415 -9.33991,-11.01315 -6.13909,-28.75085 -5.12077,-42.47736 6.9206,-10.45954 3.75547,-26.42436 5.79753,-39.03902 3.16704,-13.41003 -4.48415,-33.95415 6.70146,-42.49391 16.20721,-1.02961 34.00669,-6.22643 49.44111,0.0797 5.29205,-1.20612 34.70822,-10.60585 19.02911,-0.53516 -2.02337,5.92282 11.45982,10.87516 15.17217,12.31148 14.52719,-7.55117 -2.50903,18.35838 1.22406,25.56639 3.07399,14.18763 4.15612,22.42602 5.71572,36.67883 4.52648,12.84827 9.33786,27.74137 2.15355,40.35225 -5.90574,9.4659 6.21912,5.37227 11.52932,6.20586 12.50618,1.92397 -11.24033,-11.23238 -4.76802,-20.18298 10.21621,-11.87794 24.03969,21.00075 27.09214,4.76213 4.19437,-11.31054 -27.11013,-14.10762 -7.39337,-16.46879 7.49451,6.11252 14.55612,20.26238 19.78527,3.21114 5.93005,-4.92265 -14.68122,-21.79069 0.76416,-21.01171 4.90507,15.12186 20.0528,2.75691 9.64887,-6.68046 -5.52066,-5.9353 -13.98239,1.45679 -11.39787,-10.32439 -6.86382,-9.23493 -0.17487,-22.62121 6.39895,-7.8717 3.34247,8.46139 12.04998,2.76337 7.70117,15.06619 0.22457,9.24571 5.84558,12.90979 3.91981,0.77168 0.26072,-16.56479 -1.82535,-33.08822 -2.32993,-49.56243 13.31402,-2.65397 12.10682,27.15553 8.384,37.71304 -2.91453,5.65298 -0.34943,10.82264 2.02576,14.29178 -7.65637,7.10336 -11.07354,16.65916 -17.66154,24.68044 6.79804,3.36652 10.57373,18.78319 1.26016,8.27773 -16.92933,-1.84084 -0.5625,22.58146 5.70059,12.93151 -3.10592,16.35795 -22.15531,22.43455 -36.07109,26.54402 -10.35528,11.38936 -23.11639,8.54301 -36.8628,10.78632 -15.44757,3.71693 -32.5276,3.60058 -48.14406,0.9716 z m 83.26543,-28.58823 c -5.77036,-0.63061 1.89684,1.76168 0,0 z m 19.23071,0.0761 c 1.88416,-9.87311 -26.03133,3.4154 -5.32525,0.52783 l 2.33969,-0.12395 2.98556,-0.40386 0,-2e-5 z m -50.80442,-11.92634 c 8.50599,-15.78886 -26.83179,-12.70782 -13.65187,-2.79761 5.99397,-3.45574 10.54363,9.16976 13.65187,2.79761 z m -41.83897,-2.0215 c 8.13022,-13.95087 -27.8795,-14.20281 -11.73184,-2.46971 4.43646,-0.44407 7.86812,6.48046 11.73184,2.46971 z m -38.77482,-4.11641 c -2.22411,-11.46685 -19.05733,-0.12403 -3.70375,1.27551 1.00939,0.33292 3.84648,0.71074 3.70375,-1.27551 z m 1.99584,-29.82373 c 0.13846,-16.02512 -19.7314,1.96556 0,0 z m 0.96898,-30.43927 c 4.99538,-14.36974 -19.69761,-2.91632 -4.40595,0.40246 1.2555,1.52532 3.81966,2.05953 4.40595,-0.40246 z m 45,-7 c 2.43581,-12.94864 -13.84953,8.1037 0,0 z m -43.96482,-24.79602 c -8.01651,-15.69324 -15.58451,9.25235 0,0 z m 34.50181,-1.27266 c 5.34309,-12.05339 -11.99157,-12.94391 -14.50185,-3.46379 3.14835,2.93068 10.4937,5.39957 14.50185,3.46379 z m 104.49819,22.002 c -12.57556,2.44351 -10.68497,-30.21612 -1.3308,-11.23634 4.92179,0.97314 9.73876,14.14663 1.3308,11.23634 z m -33.40428,-13.3009 c -16.26626,-14.8269 10.70599,-6.92767 12.03722,1.35267 -4.21905,8.47131 -7.22954,2.91801 -12.03722,-1.35267 z m 34.90428,-11.69816 c 0.26392,-3.66733 3.00162,3.36878 0,0 z"
       id="path6797"
       inkscape:connector-curvature="0" />
    <path
       style="fill:#81837d"
       d="m 233.7865,353.08311 c -15.07801,-3.05452 -33.98288,-8.43488 -39.69546,-24.55415 -9.29534,-11.01028 -6.23262,-28.81459 -5.06502,-42.49802 9.31904,-9.76402 -0.0571,-33.78974 11.54977,-40.34964 14.13605,10.15408 5.65499,-16.94825 -2.34773,-3.71493 -6.80943,4.11749 -0.97095,-19.85612 -2.04289,-26.19058 -2.06177,-16.89003 19.90625,-11.4861 30.73913,-13.25274 17.20203,-4.22555 -7.32306,9.45633 9.29914,10.81993 11.23483,4.70824 8.52789,-12.83833 1.2091,-11.2752 9.67551,0.198 18.93525,7.747 27.81929,-1.42913 6.17317,-2.38669 16.67102,-1.70078 4.82666,3.28319 -2.78674,13.50483 30.43334,7.29864 15.69894,23.42668 -6.74208,15.8774 3.00527,28.10106 2.34205,44.15445 3.70643,15.46392 9.64475,32.81093 4.43759,48.01316 -7.88196,11.69134 15.35036,4.48223 21.29165,5.77828 9.09178,-0.61243 -12.95912,-2.17726 -10.84686,-11.19133 0.0873,-18.39266 18.34923,-1.53444 23.51696,1.09147 7.18301,-10.39806 -6.22983,-16.97714 -10.52498,-20.21907 11.03936,-5.09831 16.91616,23.37074 23.07557,3.931 10.57267,-5.64405 -13.43446,-24.85428 3.45048,-22.2239 13.15526,20.25804 16.63432,-17.95469 -1.54387,-13.74827 6.48965,-4.1178 -11.44587,-13.32766 -1.33786,-18.46803 5.38036,4.94361 9.7113,12.41037 14.74537,13.0116 -6.97208,5.90782 5.94281,28.3465 3.14752,8.96688 0.12423,-16.02148 -1.31161,-32.03825 -2.14875,-47.97078 3.53404,-12.18708 14.39399,14.51728 10.53135,20.33979 -3.43222,10.52441 -2.02315,24.0536 -1.6871,31.45891 -5.92282,7.00768 -12.55811,16.57299 -15.61363,23.94886 6.75891,3.65065 9.27387,17.85466 0.54043,7.61915 -17.03538,-1.74552 -0.52095,22.43879 5.71112,12.94049 -3.10592,16.35795 -22.15531,22.43455 -36.07109,26.54402 -10.35528,11.38936 -23.11639,8.54301 -36.8628,10.78632 -15.44757,3.71693 -32.52762,3.60059 -48.14408,0.97159 z M 336.28264,324.571 c 1.91545,-9.8822 -26.03474,3.22341 -5.38139,0.53902 l 2.34195,-0.11898 3.03944,-0.42004 0,0 z m -49.42195,-14.75379 c 0.19385,-19.74454 -32.99556,-0.91989 -10.09426,1.26849 6.73376,2.51932 6.68707,9.69584 10.09426,-1.26849 z m -42.8621,0.73937 c 6.68292,-15.14951 -28.55098,-13.37275 -11.80245,-1.87651 3.43728,0.74887 8.5583,5.47643 11.80245,1.87651 z m -39.13416,-3.7968 c -2.3721,-14.1829 -19.64304,2.56166 -2.08445,1.27413 l 1.54497,-0.34118 0.53948,-0.93295 z m 2.82744,-30.90619 c -2.33284,-13.52596 -19.51237,3.77683 -2.2747,1.90659 l 1.53401,-0.61188 0.74069,-1.29471 0,0 z m 48.33975,-23.50526 c 2.27869,-10.18578 11.66501,-29.16777 -7.91953,-28.53262 -8.09439,8.0953 -8.87759,19.2497 1.75234,26.78536 2.73396,3.53922 2.13794,9.53038 6.16719,1.74726 z m -51.52565,-36.28781 c 13.47028,0.79668 -8.64333,-14.9001 -5.36605,0.67426 1.74216,-0.59781 3.44642,-2.45151 5.36605,-0.67426 z m 143.89108,19.17026 c -12.42471,0.42521 -11.19514,-28.00445 -0.25453,-10.17153 4.31599,1.04288 6.71148,12.97233 0.25453,10.17153 z m -31.53262,-11.59401 c -14.49897,-6.8954 -3.48913,-15.9927 4.30724,-5.39188 10.30336,2.67998 1.97597,11.30772 -4.30724,5.39188 z m 32.5,-13.45878 c 0.26392,-3.66733 3.00162,3.36878 0,0 z"
       id="path6795"
       inkscape:connector-curvature="0" />
    <path
       style="fill:#7d807c"
       d="m 236.55424,352.86363 c -13.1286,-4.76667 -41.55136,-7.39933 -37.15113,-26.14991 -15.62905,-3.43255 -8.62198,-24.21963 -7.81556,-37.13959 5.19841,-12.11679 -3.78052,-41.30049 11.61674,-42.77111 13.47854,2.9504 -2.11465,-17.5114 -7.42282,-3.36816 1.50641,-13.84287 -7.53688,-41.86636 14.8221,-39.90144 8.09484,0.83403 29.7172,-6.21823 18.33114,6.38115 7.70269,7.54777 18.01461,4.94676 15.55366,-6.30757 7.7742,9.0336 22.66266,-7.30587 26.14933,-1.67901 -6.93687,8.73473 9.99919,12.37733 15.45168,14.712 9.78126,2.80231 -12.42408,24.38805 0.14468,32.56145 -2.31429,15.9459 7.39875,31.60526 6.67551,48.07072 7.00805,8.95641 -3.01542,22.46486 -0.98683,28.199 15.69135,1.0523 31.61161,0.19679 47.27064,-1.25444 -3.54056,-12.61734 -29.48021,10.63643 -34.6227,-7.52776 -7.50186,-17.06285 17.81873,-10.85676 19.49351,0.39538 8.91427,-1.56873 0.0847,-21.79854 9.19947,-8.75477 6.70979,-8.15177 15.34006,-17.56103 3.33457,-25.71723 -0.82355,-17.76549 11.52861,7.78231 17.8296,-1.20428 -4.93087,8.11018 -9.89077,13.3214 -0.5634,21.24918 -3.44391,-5.4541 -18.33151,-1.5034 -10.59306,8.38646 -0.15312,11.61854 17.14055,0.16127 6.92305,10.96048 -2.20089,11.95458 -27.79856,13.12115 -37.90591,21.93002 -12.67955,7.4678 -30.37328,5.78197 -45.37373,9.38833 -10.09485,0.22042 -20.32692,0.92174 -30.36054,-0.4589 z m 49.21395,-39.83511 c 8.75028,-17.46096 -28.73753,-13.14496 -13.29034,-2.26568 6.93697,-3.31777 9.45414,9.97418 13.29034,2.26568 z m -41.34489,-2.27983 c 6.88357,-15.16423 -30.82382,-13.90191 -11.63878,-1.26819 3.91613,0.0277 8.06667,4.63248 11.63878,1.26819 z m -39.61441,-3.00378 c 1.9675,-13.50986 -21.03705,-2.01668 -3.58383,0.81755 1.14264,0.76119 2.98704,0.53835 3.58383,-0.81755 z m 2.88298,-31.89132 c -2.33284,-13.52596 -19.51237,3.77683 -2.2747,1.90659 l 1.53401,-0.61188 0.74069,-1.29471 0,0 z m 48.33975,-23.50526 c 2.27869,-10.18578 11.66501,-29.16777 -7.91953,-28.53262 -6.52191,6.48551 -9.98942,18.83981 -0.51218,24.67479 -1.29959,5.28724 5.97933,11.56291 8.43171,3.85783 z m -24.16719,-7.11132 c -2.41851,-5.19847 -2.28482,3.51394 0,0 z m -26.90855,-29.02114 c 14.99055,-2.63507 -12.64485,-10.91656 -4.59235,-0.0371 l 1.81891,-0.73751 2.77344,0.77461 0,3e-5 z m 115.12631,82.09105 c -14.40701,-5.00677 11.9078,-4.15012 3.46869,0.74585 l -3.46869,-0.74585 z m 37.36012,-44.37893 c 1.89727,-11.37301 -6.94366,-33.37713 1.78736,-37.4424 12.90942,13.05621 3.12426,32.21161 3.38481,47.87301 5.1067,9.76007 -8.32111,12.29648 -4.75627,-0.25706 -0.1785,-3.38943 -0.29708,-6.78166 -0.4159,-10.17355 z m -5.57788,13.26342 c -4.43754,-2.54919 -18.40754,-6.4217 -5.00619,-6.49072 9.69671,-9.49701 4.78816,7.50873 5.00619,6.49072 l 0,0 z m -10.10551,-10.12754 c -8.96927,-3.597 -3.82598,-19.54483 2.83651,-7.18326 3.27178,3.09032 4.27287,11.09815 -2.83651,7.18326 z m 6.60551,-23.65888 c -9.55715,-3.77097 10.35103,-0.7958 0,0 z m -7.42742,-6.86186 c -9.23793,-23.69056 18.56763,11.85091 0,0 z m -24.07258,-2.90636 c -10.03881,-3.88157 -8.79102,-16.04531 1.80116,-7.79789 4.69278,4.13915 12.31511,9.25216 0.80639,9.48525 l -2.60755,-1.68736 0,0 z m -78.5,-21.45878 c 5.1625,-3.83576 2.12195,3.50712 0,0 z"
       id="path6793"
       inkscape:connector-curvature="0" />
    <path
       style="fill:#737a85"
       d="m 237.54621,352.03873 c -12.27269,-4.8491 -39.39261,-6.55637 -37.17592,-23.87208 2.58402,-7.77594 -16.95544,-3.67929 -9.95579,-16.16647 1.64921,-8.45597 -1.57826,-35.85467 8.73409,-27.54218 -9.21804,-14.39363 14.56462,1.36038 6.87374,-13.29066 -7.52452,-5.33756 -14.03825,16.58989 -12.0319,-0.85819 -0.10324,-10.34026 0.5314,-28.31078 13.49523,-22.62784 5.4104,-8.68412 -7.48705,-12.26506 -11.44311,-4.89324 -1.35735,-7.5784 -0.65095,-31.96987 3.74342,-20.07176 -4.26599,-11.51335 18.80888,-2.03828 5.70975,-13.01347 -6.75934,-2.27306 -10.57103,14.57742 -8.92352,-1.08813 8.3005,-5.60062 33.05832,-11.18188 33.79223,3.56328 7.47301,7.27363 14.14457,0.22987 16.26481,-5.84388 8.43614,9.51459 27.69502,-15.70449 21.30863,0.86157 5.78012,5.86363 16.3303,10.24393 21.92656,10.98231 -9.17833,11.81488 -5.42562,26.81527 -4.58175,38.80689 3.91873,15.63195 7.32245,31.35704 9.17425,47.37198 6.43744,9.58687 -15.06337,25.36842 5.56897,21.65205 11.0797,-1.16167 36.81855,2.45514 39.99956,-3.83092 -9.08299,0.14995 -13.7522,-21.47083 -4.93672,-11.90049 4.97207,-13.0734 10.86819,10.27932 15.47681,9.73577 -1.34555,13.10142 -24.52447,14.02845 -35.70445,20.67256 -10.27992,9.27254 -26.48104,5.76345 -41.19554,10.86395 -11.92867,1.39358 -24.15302,1.35295 -36.11935,0.48895 z m 15.33791,-27.88391 c -14.01267,-0.7309 6.3939,2.65674 0,4e-5 l 0,-4e-5 z m 32.3653,-9.44165 c 11.15587,-17.25558 -27.14582,-18.03961 -14.04603,-3.7443 8.30526,-3.02325 9.44042,10.3286 14.04603,3.7443 z m -90.78082,-4.26435 c -1.94698,0.72006 1.37818,4.68957 0,0 z m 11.39583,-4.28199 c -3.93651,-13.36663 -21.24521,1.80202 -5.51365,3.28747 0.66284,5.04532 4.55612,-1.98953 5.51365,-3.28747 z m 29.96646,5.05305 c 21.6489,5.25236 -2.442,-25.00602 -8.89898,-8.03785 1.06653,2.79398 5.26041,10.50008 8.89898,8.03785 z m 12.69582,-33.29189 c -1.73475,-0.32333 1.04987,6.68188 0,0 z m 5.02589,-7.69877 c 10.53684,-7.85377 1.50233,-26.07794 7.70173,-35.68288 -0.072,-16.88487 -23.98298,-12.58136 -22.32309,1.53769 -7.43662,11.30592 -8.8145,-12.14769 -9.84251,3.94561 -0.66231,8.73942 -0.53809,17.24692 7.84309,10.14835 6.80173,-0.0617 -0.45868,6.84326 5.41724,8.5221 -3.78464,5.08448 5.43791,18.02014 11.20354,11.52913 z m 32.31183,-49.05123 c -2.39488,-3.99516 -1.59482,3.71895 0,0 z m 22.96118,100.36991 c -16.17686,-15.67022 10.77394,-22.29168 14.06655,-4.40517 12.77049,3.21397 -11.18264,8.92355 -14.06655,4.40517 z m 32.21516,-23.39894 c 6.69074,-9.19925 12.15344,4.71319 0,0 z m -23.42634,-0.68722 c -7.66121,-6.59517 18.32652,2.37905 0,0 l 0,0 z m 24.47251,-7.84045 c -8.28325,-4.59858 -3.64422,-21.3037 2.69866,-8.27001 7.85288,2.48993 4.55145,11.93282 -2.69866,8.27001 z m 16.4325,-16.4433 c -1.16675,-18.20205 -1.41117,-36.5066 -3.12948,-54.64276 8.24144,-7.79396 13.3229,19.00941 9.48732,26.56532 -6.19196,9.38424 4.37882,25.38339 -6.35784,28.07744 z m -9.6397,-9.75 c 2.31079,-8.08264 4.14188,2.82744 0,0 z m -7.73351,-7.4563 c -10.36769,-9.52261 2.63498,-14.51882 5.30734,-1.84274 2.28574,4.40577 -3.55849,2.82325 -5.30734,1.84274 z m 0.7949,-29.5437 c -11.19687,-21.77182 17.17385,8.36228 0,0 z m -24.59708,-2.9357 c -8.49148,-1.98076 -11.01954,-15.52784 -0.44606,-8.41301 4.28666,3.91487 13.79691,12.28909 0.44606,8.41301 z"
       id="path6791"
       inkscape:connector-curvature="0" />
    <path
       style="fill:#6d7171"
       d="m 237.54621,352.03873 c -12.27269,-4.8491 -39.39261,-6.55637 -37.17592,-23.87208 2.58402,-7.77594 -16.95544,-3.67929 -9.95579,-16.16647 1.49254,-8.63565 -1.26932,-35.63985 8.58717,-27.69336 -9.19813,-13.50405 16.22385,0.91361 6.53415,-13.66659 -7.3931,-3.88796 -13.24871,16.59496 -11.54544,0.13456 0.61021,-9.27792 -0.68932,-29.66538 13.37908,-22.60096 7.04888,-14.38176 -11.31063,-5.63517 -11.50244,-6.54515 0.67215,-5.48269 -2.0391,-26.29218 3.12636,-19.91009 1.21458,4.6839 0.27594,-11.84445 7.71335,-4.14358 9.69823,-5.32727 -9.32684,-12.95481 -9.78623,-2.13059 -4.16328,-15.48039 24.14287,-13.43388 31.86845,-9.48806 -0.85577,13.16987 17.62962,10.21379 17.86606,0.3957 10.60467,10.00893 26.99964,-17.44809 22.18233,2.77465 13.7759,2.94888 21.0453,14.8234 11.15597,26.6289 -10.89037,13.89764 9.38297,21.16287 5.32594,37.18964 7.7039,12.87161 0.20061,23.88622 9.54524,37.24864 1.42263,8.26306 -16.66712,17.92562 -0.33152,15.64427 15.54419,-0.32362 31.53097,1.01699 46.75183,-1.92061 -5.27789,-0.77748 -14.1781,-14.98061 -9.88851,-16.29843 2.5861,9.71989 9.46284,-11.00571 11.57001,4.11889 13.39073,8.10535 6.65378,17.80207 -7.48086,20.79983 -15.08325,5.59425 -26.21051,13.29048 -39.82091,15.66477 -16.71021,1.09035 -32.95298,6.23477 -49.92809,4.31942 -2.72885,-0.114 -5.48834,-0.0139 -8.19023,-0.4833 z m 17.81822,-27.86074 c -7.72274,-3.28838 -10.57621,3.67497 -0.0791,0.41433 l 0.0791,-0.41433 z m 29.9433,-9.22251 c 11.53794,-16.57299 -24.88695,-19.26955 -15.48256,-4.8791 7.23486,-0.85967 11.30521,9.45013 15.48256,4.8791 z m -90.83913,-4.50666 c -1.94699,0.72005 1.37818,4.68958 0,0 z m 11.39583,-4.28199 c -3.93651,-13.36663 -21.24521,1.80202 -5.51365,3.28747 0.66284,5.04532 4.55612,-1.98953 5.51365,-3.28747 z m 39.37425,3.77611 c 3.1653,-19.41653 -32.72838,-9.21219 -11.61177,1.14152 3.52223,0.58148 8.78366,1.67785 11.61177,-1.14152 z m 3.28803,-32.01495 c -1.73475,-0.32333 1.04987,6.68188 0,0 z m 5.02589,-7.69877 c 12.02371,-6.90982 4.73498,-26.06065 11.92185,-35.81182 -3.49365,-5.63809 -4.12297,-20.77055 -17.0745,-13.02006 -6.44386,5.24531 -12.71309,10.55282 -14.91416,18.42481 -4.70855,-21.41872 -9.19456,25.76605 2.44603,10.35584 7.09867,2.66239 3.19819,29.16838 17.62078,20.05123 z m 27.31183,-12.99221 c -3.74455,-6.28582 -3.44296,3.71384 0,0 z m 27.96118,64.31089 c -14.07197,-17.54063 11.95927,-18.52358 15.93426,-4.12115 7.61875,5.14845 -13.43425,7.45569 -15.93426,4.12115 z m 32.21516,-23.39894 c 6.69074,-9.19925 12.15344,4.71319 0,0 z m -21.42634,-0.6603 c -6.1441,-6.66867 12.8995,2.87335 0,0 z m 22.47251,-7.86737 c -8.28325,-4.59858 -3.64422,-21.3037 2.69866,-8.27001 7.85288,2.48993 4.55145,11.93282 -2.69866,8.27001 z m 16.51743,-16.0367 c -0.99183,-19.30294 -1.81613,-38.76479 -2.38411,-58.09576 19.73789,11.11003 1.73142,35.87244 7.98365,51.78032 0.41661,2.42458 -3.35373,5.77201 -5.59954,6.31544 z M 341.09269,255.9478 c -9.65586,-8.89867 2.49535,-14.54643 5.34106,-1.91251 2.42859,4.58109 -3.53809,2.892 -5.34106,1.91251 z m 0.84844,-29.51981 c -11.19687,-21.77182 17.17385,8.36228 0,0 z m -23.68604,-2.72779 c -9.99459,-2.27378 -9.26999,-17.19958 0.10185,-6.5367 3.835,3.53528 11.72016,7.74066 -0.10185,6.5367 z m -32.20316,-4.58471 c 4.15482,-5.80221 2.16708,3.26426 0,0 z"
       id="path6789"
       inkscape:connector-curvature="0" />
    <path
       style="fill:#4f5351"
       d="m 236.86443,349.36913 c -10.72483,-4.67826 -37.85488,-5.4122 -33.5318,-21.75001 3.58658,-6.37863 -20.96625,-5.66243 -10.6584,-15.08472 10.84333,13.28973 20.00472,-21.5219 1.32009,-10.73484 -4.2769,4.37123 -1.88234,-22.2695 3.38078,-15.91532 14.52824,-0.21092 12.16651,-25.83001 -1.66128,-12.70625 -1.1988,-9.93699 -2.00973,-21.59871 7.99259,-21.09784 12.27785,-4.05845 1.52179,-22.14284 -7.30732,-10.90216 -1.4842,-9.5523 1.06091,-17.76503 5.71532,-18.70833 -3.58608,-11.22908 5.01981,6.27852 7.40588,-6.36787 4.13672,-16.25523 -22.3702,3.1416 -8.92522,-9.85292 7.99041,-2.97446 16.61738,-3.82035 20.13658,4.45578 13.42466,-6.61154 7.27326,17.48321 21.1152,5.36722 15.41635,-6.3505 -6.55388,18.14095 -14.86545,12.46517 -2.46008,13.32609 -7.11339,31.05528 -0.78735,42.76246 -4.42423,12.71938 -6.00779,25.68218 11.21588,20.81501 7.57,9.99296 -20.11994,1.80972 -10.98142,17.43698 3.39253,13.92429 26.69726,2.77085 19.64165,-8.3735 12.01338,6.49253 4.003,19.91282 -3.77978,24.2646 6.22347,-0.29295 20.07565,4.26508 16.85349,-6.49668 -0.40025,-6.2412 -6.7326,-17.93417 3.5416,-14.45081 0.95074,-13.12106 -5.66914,-32.26278 2.98464,-41.01389 16.5259,-5.27598 24.42974,26.35031 14.51015,34.20744 -13.89417,0.44788 -21.11014,15.03558 -5.35712,17.39466 4.38746,8.44122 22.77623,-5.81622 12.17547,6.7578 -10.32085,10.07643 25.0365,3.42118 32.7729,4.83166 9.07505,0.48458 23.28067,-2.80385 29.09291,-1.26296 -14.75625,6.48146 -30.22645,12.94344 -45.29649,17.15825 -21.40239,6.81134 -44.42135,7.34787 -66.7035,6.80107 z m -16,-51.30917 c -2.51051,-2.45089 -1.90045,5.38173 0,0 z m 92.73203,21.11803 c -12.30251,-4.97943 -0.63116,-18.24856 5.39105,-4.69931 4.16479,5.60448 -0.55589,9.28061 -5.39105,4.69931 z m 28.58334,-0.007 c -8.94081,-5.62238 -1.18495,-17.4345 2.12584,-3.38864 1.56237,2.8223 2.71022,6.05791 -2.12584,3.38864 z m -113.31537,-7.993 c 1.49294,-3.1602 2.25683,3.43448 0,0 z m 61,-0.5 c 2.98176,-4.66363 2.02744,4.537 0,0 z m -4.81194,-8.45951 c -6.06012,-14.31635 10.56989,10.48062 0,0 z m 55.03445,-18.59719 c -8.1775,-15.00215 14.21915,6.31624 0,0 l 0,0 z M 198.875,281.69072 c -3.14454,-10.54344 7.50147,4.67305 0,0 z m 160.02378,-9.51273 c 0.0985,-18.22841 -2.28894,-36.44848 -2.1994,-54.60717 15.42476,5.32488 4.9461,31.91568 5.38924,45.94826 2.58592,2.6249 -0.3,9.81226 -3.18984,8.65891 z m -17.29819,-17.25 c -11.29081,-17.21342 11.03328,0.70486 0,0 z m -141.73616,-5.75 c 1.50125,-6.1946 3.67052,6.86386 0,0 z m 142.65266,-24.05858 c -9.59646,-12.76962 10.7411,6.46908 0,0 z m -73.74706,0.39922 c -11.70493,-6.55137 -2.95238,-21.8154 4.672,-9.09852 11.9457,1.22795 8.03923,4.61838 0.69526,6.6933 0.9412,3.10854 -3.62579,3.46573 -5.36726,2.40522 z m 44.77228,-6.50891 c -7.58646,-11.1649 14.98434,10.87154 0,0 l 0,0 z"
       id="path6787"
       inkscape:connector-curvature="0" />
    <path
       style="fill:#2c302b"
       d="m 227.58134,343.06555 c -9.20677,0.47904 -32.74098,-12.58084 -13.05373,-16.28553 39.7499,1.07322 79.58451,0.29143 119.33554,1.61279 -13.79614,5.38311 -28.88931,10.99133 -43.99872,13.72532 -19.18402,4.03775 -39.44867,5.00804 -58.79788,1.83984 l -3.48521,-0.89242 0,0 z m -29.92536,-22.25086 c -15.40342,-5.93857 13.40919,-1.20484 10.016,-14.99991 -0.60249,-13.57515 -20.33689,0.90304 -13.16788,-15.58514 8.49949,-2.10589 26.34963,-20.99794 5.74512,-21.55385 -6.20294,1.88834 -5.69586,-17.82132 3.91603,-14.03428 12.84917,-6.67594 3.19197,-22.11734 -6.30082,-17.47477 -6.15623,-14.1857 24.99741,-16.01728 9.68469,-29.37271 -2.42821,-6.1683 11.9484,6.65579 6.72165,13.45803 3.63367,12.84999 2.84816,26.05454 0.2438,40.7328 -0.26736,6.12451 -6.60578,-1.78154 -0.27189,7.68693 2.64914,16.42347 -6.46304,31.65873 -5.16247,48.57471 -1.27808,5.57626 -7.65935,3.84059 -11.42423,2.56819 z m 37.12238,-0.2404 c -8.3925,1.58085 -18.92384,-7.48138 -11.8645,-15.02257 -1.01731,13.45707 13.28432,11.56788 20.19441,13.48082 -1.9243,2.12046 -6.05354,4.74899 -8.32991,1.54175 z m 37.49878,0.65541 c -8.07102,-0.008 -7.91005,-16.13508 -1.97855,-4.20691 3.84467,1.48343 11.2488,5.86152 1.97855,4.20691 z m 68.77062,-5.26838 c -5.02445,-10.40533 5.44119,3.19971 0,0 z m 18.30217,-48.00893 c -1.55562,-13.66769 4.82696,-2.86681 0.84462,2.50953 l -0.84462,-2.50953 0,0 z m 0.2645,-11.35575 c -0.11556,-11.66718 -3.83531,-29.04365 -0.31052,-37.27257 8.62274,9.95997 5.0595,26.88309 0.31052,37.27257 z m -126.5,-33.08093 c -4.32909,-6.60697 11.42032,2.74139 0,0 z m -5.648,-3.49556 c -5.54038,-12.75033 6.92198,5.70965 0,0 z m 42.898,-1.84216 c 1.086,-2.9241 5.53404,3.6434 0,0 z"
       id="path6785"
       inkscape:connector-curvature="0" />
  </g>
</svg>
