<?xml version="1.0" encoding="UTF-8" standalone="no"?>
<svg
   xmlns:dc="http://purl.org/dc/elements/1.1/"
   xmlns:cc="http://creativecommons.org/ns#"
   xmlns:rdf="http://www.w3.org/1999/02/22-rdf-syntax-ns#"
   xmlns:svg="http://www.w3.org/2000/svg"
   xmlns="http://www.w3.org/2000/svg"
   xmlns:sodipodi="http://sodipodi.sourceforge.net/DTD/sodipodi-0.dtd"
   xmlns:inkscape="http://www.inkscape.org/namespaces/inkscape"
   sodipodi:docname="demonic.svg"
   height="100%"
   width="100%"
   inkscape:version="0.48.4 r9939"
   version="1.1"
   id="svg2"
   viewBox="0 0 512 512"
   inkscape:export-filename="C:\Users\Chris\Documents\GitHub\bot-game\assets\forest_spirit.png"
   inkscape:export-xdpi="12.832031"
   inkscape:export-ydpi="12.832031">
  <sodipodi:namedview
     pagecolor="#ffffff"
     bordercolor="#666666"
     borderopacity="1"
     objecttolerance="10"
     gridtolerance="10"
     guidetolerance="10"
     inkscape:pageopacity="0"
     inkscape:pageshadow="2"
     inkscape:window-width="1185"
     inkscape:window-height="1030"
     id="namedview44"
     showgrid="false"
     inkscape:zoom="0.71191406"
     inkscape:cx="-52.479633"
     inkscape:cy="297.22234"
     inkscape:window-x="100"
     inkscape:window-y="100"
     inkscape:window-maximized="0"
     inkscape:current-layer="svg2" />
  <metadata
     id="metadata48">
    <rdf:RDF>
      <cc:Work
         rdf:about="">
        <dc:format>image/svg+xml</dc:format>
        <dc:type
           rdf:resource="http://purl.org/dc/dcmitype/StillImage" />
        <dc:title></dc:title>
      </cc:Work>
    </rdf:RDF>
  </metadata>
  <defs
     id="defs46">
    <linearGradient
       id="linearGradient3926">
      <stop
         id="stop3928"
         offset="0"
         style="stop-color:#ffffff;stop-opacity:0;" />
      <stop
         style="stop-color:#ffffff;stop-opacity:0.49803922;"
         offset="0.5"
         id="stop3934" />
      <stop
         id="stop3930"
         offset="1"
         style="stop-color:#ffffff;stop-opacity:0;" />
    </linearGradient>
    <filter
       id="filter3108"
       x="0"
       y="0"
       width="1"
       height="1"
       inkscape:label="Lightness-Contrast"
       inkscape:menu="Color"
       inkscape:menu-tooltip="Increase or decrease lightness and contrast"
       color-interpolation-filters="sRGB">
      <feFlood
         id="feFlood3110"
         result="result1"
         flood-opacity="1"
         flood-color="rgb(0,0,0)" />
      <feBlend
         id="feBlend3112"
         in2="SourceGraphic"
         mode="normal"
         result="result2" />
      <feComposite
         id="feComposite3114"
         in2="SourceGraphic"
         k2="1"
         operator="arithmetic"
         result="result3" />
      <feComposite
         id="feComposite3116"
         in2="SourceGraphic"
         operator="in" />
    </filter>
    <filter
       id="filter7264"
       inkscape:label="Fluorescence"
       inkscape:menu="Color"
       inkscape:menu-tooltip="Oversaturate colors which can be fluorescent in real world"
       x="0"
       y="0"
       width="1"
       height="1"
       color-interpolation-filters="sRGB">
      <feColorMatrix
         id="feColorMatrix7266"
         type="hueRotate"
         values="0" />
      <feColorMatrix
         id="feColorMatrix7268"
         type="saturate"
         values="1" />
      <feColorMatrix
         id="feColorMatrix7270"
         type="matrix"
         values="2 -1 0 0 0 0 2 -1 0 0 -1 0 2 0 0 0 0 0 1 0 " />
    </filter>
  </defs>
  <rect
     style="opacity:0.98999999;fill:#0a0a0a;fill-opacity:1;fill-rule:nonzero;stroke:none"
     id="rect3171"
     width="516.97894"
     height="518.513"
     x="1.7468045"
     y="2.4831297" />
  <rect
     y="319.66696"
     x="-94.752312"
     height="57.982758"
     width="76.367531"
     id="rect3156"
     style="opacity:0.98999999;fill:#ffffff;fill-opacity:1;fill-rule:nonzero;stroke:none" />
  <g
     id="g7351"
     transform="matrix(-1.6844535,0,0,2.5505033,1556.4811,-486.40694)">
    <path
       style="fill:#f0ede2"
       d="m 810.80095,355.42231 c 0.43808,-18.92831 9.2953,-36.17157 17.64338,-52.69953 11.61775,0.60634 -2.81222,15.36389 -4.13249,21.43178 -4.3838,10.13043 -2.16181,25.47974 -13.51089,31.26775 z M 722.688,347.87242 c -17.18361,1.66804 -1.09017,-28.39882 4.05794,-11.2677 3.05107,3.71973 7.27728,20.71832 -4.05794,11.2677 z m -53.4322,-0.45469 c -16.89549,-2.96349 6.48651,-26.3338 10.77113,-12.95057 -1.43983,3.5063 -4.79762,18.41477 -10.77113,12.95057 z m 1.52514,-5.08599 c 8.56882,-1.93893 -6.93128,-2.38919 0,0 z m 14.39768,-14.00702 c 5.77494,-16.09441 22.85107,-24.26285 29.72518,-39.6867 9.06205,-9.40152 5.90178,5.08253 1.52975,9.41881 -7.0793,11.35951 -18.68406,18.73107 -26.99273,29.05289 l -2.03603,0.9487 -2.22617,0.2663 z m 47.07718,-22.85386 c -0.0852,-5.31855 5.5063,-0.0841 0,0 z m 111.71025,-1.09844 c 3.15163,-6.03014 1.26042,5.89943 0,0 z m -12.31582,-9.08228 c -8.69851,-8.5523 6.79337,-5.01946 0,0 z m -52.89443,-5.62268 c -0.54175,-4.70636 5.55459,4.61419 0,0 z m -140.25,-1.3262 c 2.09525,-15.73493 20.50584,-18.27728 30.765,-27.06204 15.91089,-11.25873 33.15324,-20.42348 49.61754,-30.81452 5.27436,-10.69591 22.13594,-1.96237 15.17981,8.01934 2.54463,6.77089 9.68822,18.46853 -0.357,22.44853 -0.0118,-12.00038 -16.24026,-27.53359 -25.34119,-13.83525 -16.06347,10.17793 -32.06061,20.60255 -49.29941,28.72088 10.58083,9.9881 25.24705,1.70518 37.7413,2.73976 7.70321,-3.55396 27.47833,4.18344 10.34384,8.36024 -13.93136,1.78117 -28.10319,-1.24854 -41.94811,1.63966 -8.89059,0.51749 -17.82693,0.62383 -26.70178,-0.2166 z m 225.18711,-4.71253 c -3.69487,-16.19726 32.03961,-5.51654 14.06889,2.11648 -4.70428,1.157 -10.0235,0.73464 -14.06889,-2.11648 z m -3.27922,-0.25631 c 0.27949,-7.89018 0.93605,4.35104 0,0 z m -31.07894,-0.41667 c -1.10305,-7.52809 1.82007,2.30947 0,0 z m -23.12294,-0.61052 c -12.35896,-11.19477 16.00922,-23.91454 11.44473,-5.74637 -1.96251,4.17263 -6.97091,6.47996 -11.44473,5.74637 z m -80.74058,-6.54629 c 8.46559,-3.28494 21.71862,-18.27351 25.65635,-16.35452 -6.1646,8.12625 -14.46486,17.17906 -25.65635,16.35452 z m 50.0485,-0.57291 c 5.92986,-4.38917 -7.66264,-20.37699 5.59166,-14.61275 14.51405,5.29088 22.56647,-23.65839 4.59543,-19.82676 -11.18138,-11.81077 12.81387,-15.0582 20.90875,-12.91655 10.39575,-2.3813 32.12593,7.39858 22.18405,19.28278 -8.79077,3.44893 -19.07117,-7.94755 -23.24753,5.35025 -2.75905,9.07515 -11.18656,14.23836 -18.94424,14.81533 4.92361,10.89483 -2.57209,9.31373 -11.08812,7.9077 z m -20.9931,-0.45778 c 2.62374,-2.19454 1.6324,2.07796 0,0 z m 77.49775,-9.96058 c -4.84672,-8.33828 14.4135,-5.57547 3.83525,-0.61338 -1.01147,0.76965 -2.63441,1.4283 -3.83525,0.61338 z m 13.52168,-2.43326 c -0.8061,-6.08287 4.48477,-16.87052 7.03705,-5.61263 -0.17648,2.58447 -4.86454,12.27514 -7.03705,5.61263 z m 36.26564,2.08846 c -6.50771,-7.07912 -27.37561,-7.95845 -22.87049,-20.61062 8.81307,3.23053 23.96349,9.21578 22.87049,20.61062 z m -25.53832,-2.74067 c 1.47252,-5.155 4.84113,0.58211 0,0 z M 834.6252,248.89267 c -1.23473,-5.01024 3.08095,3.09007 0,0 z m -88.79201,-3.27025 c 0.0406,-10.45383 12.84707,5.24582 1.30884,3.04042 -1.76574,0.477 -3.1825,-2.24254 -1.30884,-3.04042 z m 10.05322,1.22977 c -2.72176,-7.87595 7.76007,-6.21825 2.79615,-0.59279 l -1.18776,0.42238 -1.60839,0.17041 z m -3.07911,-8.39645 c -0.76454,-7.12853 15.93333,-4.2227 4.77633,-2.42138 -1.22786,1.22314 -2.70473,3.46294 -4.77633,2.42138 z m 16.0326,-8.44188 c 1.29788,-5.5293 5.88958,1.90481 0,0 z"
       id="path7373"
       inkscape:connector-curvature="0" />
    <path
       style="fill:#efd8a7"
       d="m 736.2558,359.32858 c -7.37496,-1.32519 -18.05622,-11.94462 -19.09429,-14.00687 5.39551,6.90268 19.43156,1.39693 8.87248,-5.96988 -4.74453,-10.58547 17.30222,-12.97997 8.41408,-1.02526 -1.50391,7.08709 2.39019,13.91837 1.80773,21.00201 z m 71.41105,-3.70616 c 1.96872,-21.89972 12.20395,-42.03038 24.25578,-60.04731 -8.29587,-10.8546 -5.46588,-27.59522 5.38867,-35.68975 4.24743,-5.8685 -2.21849,11.60155 -5.02799,14.29403 -3.13387,12.92945 7.88624,26.76488 -0.8119,38.93319 -5.60623,11.66002 -9.81309,24.01923 -11.60519,36.82301 -1.35766,5.03583 -8.37748,14.72446 -12.19937,5.68683 z m 10.91778,-10.75 c 3.6031,-14.41731 9.23552,-28.23693 15.55485,-41.65643 -15.22287,7e-4 -11.97425,21.67795 -19.72576,30.90962 -2.9196,4.41424 -5.94444,22.7807 1.5549,18.36547 1.31919,-2.36934 1.72504,-5.08752 2.61601,-7.61866 z m 11.27534,-63.22917 c -1.98146,1.83636 2.46056,1.73046 0,0 z m -32.60968,74.72576 c 0.49994,-5.58876 4.44829,3.25994 0,0 z M 656.2558,352.38779 c 7.16757,-6.97315 29.21656,-5.40492 23.81119,-19.99932 -2.16726,-7.89136 10.19548,5.13029 1.37619,7.3233 -4.2266,8.74206 -13.0662,15.49039 -23.04834,12.42157 -0.713,0.0848 -1.42607,0.16969 -2.13904,0.25445 z m 33.327,0.18673 c -7.81056,-8.655 7.86439,-4.68833 0,0 z m -29.31169,-9.4521 c 4.09899,-3.5732 -1.63782,4.67348 0,0 z m 7.98469,-1.21482 c 6.48075,-9.03699 6.55908,7.11382 0,0 z m -8,-3.53518 c 4.14345,-6.56681 -1.44811,4.51674 0,0 z m 8,-5.42963 c 1.7152,-3.42025 4.96088,-0.42446 0,0 z m 48.5717,-2.32037 c 3.94214,-6.47545 3.83676,6.39519 0,0 z m -34.5717,-2.09952 c -0.41707,-5.03989 11.36141,-15.09118 5.21351,-4.48935 -0.79873,2.18255 -2.54718,4.71907 -5.21351,4.48935 z m 6.20886,0.16812 c 3.38694,-4.11589 11.83753,-13.19452 4.77619,-2.8443 -1.10701,1.51428 -2.76834,2.91974 -4.77619,2.8443 z m 6.79114,-16.05596 c 0.48187,-5.46132 8.65725,-6.39356 1.68281,-1.27616 l -1.68281,1.27616 z m 7.73333,-0.38673 c 3.12678,-5.41101 1.28787,2.50118 0,0 z m 3.26667,-0.3343 c 3.61805,-6.98877 6.68419,-1.76907 0,0 z m 26.50461,-1.52709 c -3.94112,-11.22143 8.62639,-1.42016 0,0 z m 112.82872,-4.47053 c 3.34416,-5.69788 -0.66966,4.56164 0,0 z m -3.34278,-2.79399 c -11.67849,-12.1861 9.8134,0.62583 0,0 z m -129.99055,0.30902 c 0.46715,-3.60896 2.28284,2.0279 0,0 z m -6.74331,-2.9382 c -0.65467,-4.91943 12.96878,-13.63156 4.99096,-4.78939 -1.28355,1.8931 -2.53206,4.25952 -4.99096,4.78939 z m 81.98054,-7.1567 c -10.84329,-3.66204 4.23232,-5.90335 1.49806,0.57168 l -1.49806,-0.57168 z m -12.65378,-4.60725 c 4.18041,-3.53016 0.71094,5.30561 0,0 z m -95.85248,-1.01281 c 3.6073,-2.57267 2.05363,1.97615 0,0 z m 35.69111,-3.52406 c -2.90341,-8.13845 17.39742,-7.11692 7.2855,-1.35056 0.39739,-8.78855 -9.54789,6.78997 -7.2855,1.35056 z m -14.15125,2.57583 c 2.62374,-2.19454 1.6324,2.07796 0,0 z m 103.72518,-3.41065 c -1.72321,-5.42992 -0.61027,-24.66277 0.8542,-9.94131 -0.0364,1.57677 4.56134,18.03075 -0.8542,9.94131 z m 64.75399,2.35254 c 2.42434,-2.36358 2.01713,2.18168 0,0 z m -231.25,-3.33772 c 5.95367,-6.01305 -4.2681,6.34651 0,0 z m 247.5,1.42857 c -0.65934,-11.65224 11.44148,1.38582 0,0 z m -74,-0.90812 c 8.90421,1.05496 2.3058,-23.64394 10.26895,-9.2532 -0.25051,5.29469 -6.21352,7.40376 -10.26895,9.2532 z m 48,-0.46143 c -0.31163,-6.61982 2.7756,1.90115 0,0 z m -203.375,-2.85677 c 1.07645,-7.85486 5.86704,1.14179 0,0 z m 4.64583,0.19358 c 2.62374,-2.19454 1.6324,2.07796 0,0 z m 5.97917,-0.0852 c 2.61791,-1.84945 2.69359,2.70376 0,0 z m 6.5,0.0271 c 2.42443,-2.36366 2.01721,2.18157 0,0 z m 22.98097,0.006 c 3.60706,-2.573 2.05366,1.97642 0,0 z m 90.76903,-1.76932 c -0.72816,-7.47028 6.35431,5.6347 0,0 z m -12.5,-1.63372 c 6.86399,-5.39475 2.26011,8.39152 0,0 z m 17.42857,-0.94098 c 4.603,-3.33749 0.14378,5.96917 0,0 z m 91.57143,1 c 4.53019,-6.00007 5.37954,6.57918 0,0 z m -235.26667,-2.12409 c 3.12678,-5.41101 1.28787,2.50118 0,0 z m 200.33696,-0.65729 c -2.81059,-6.62572 7.01505,-1.19527 0,0 z m -73.75226,-6.16633 c 1.94608,-7.70757 3.47947,11.25038 0,0 z m 10.66832,3.25673 c -5.67494,-7.02925 7.25806,-5.29387 0,0 z M 741.82009,269.079 c 0.76769,-4.15207 2.2111,-1.08201 0.30091,0.59721 l -0.30091,-0.59721 z m -9.48096,-0.0662 c 2.72996,-3.66138 5.53637,2.01996 0,0 z m 112.50651,-2.5414 c 4.24583,-10.83226 10.6708,4.0626 0,0 z m 43.93715,0.9444 c -8.75576,1.55876 -9.29521,-19.17848 -1.30571,-6.08644 1.6673,1.37808 4.53827,4.53256 1.30571,6.08644 z M 742.2558,264.45158 c 6.49637,-8.7561 4.46526,1.09526 -1.72988,1.43828 l 1.72988,-1.43828 z m 49,0.93476 c 6.91373,-4.7776 6.80401,2.35935 0,0 z m -56.09439,-1.83755 c 0.5867,-6.71566 2.29709,2.92793 0,0 z m 33.75238,1.14829 c -5.16359,-5.92923 11.6674,-8.76564 2.37982,-2.34148 -0.0829,1.11055 -0.83535,2.99191 -2.37982,2.34148 z m 111.34201,-0.093 c -7.38902,-0.55619 -2.22445,-8.65366 0,0 z m -24.27281,-1.50016 c 0.71014,-6.19136 4.95297,3.47427 0,0 z m -39.28606,-1.26086 c 1.64095,-5.28171 2.96213,5.75311 0,0 z m 27.55887,-0.4706 c 2.33094,-4.88838 2.21825,4.50938 0,0 z m 13.02896,-1.96094 c -2.68632,-3.81624 5.41316,4.19071 0,0 z m 13.97104,-0.0391 c 0.19268,-3.51841 3.92002,6.20018 0,0 z m -25.24475,-2.5 c -8.71487,-4.89551 4.65701,-7.7784 4.21328,-3.63163 -5.19647,-6.95693 -1.97269,8.15105 -4.21328,3.63163 z m -106.25525,-2.5 c 1.41385,-4.28802 0.61807,3.81939 0,0 z m 3.12361,-0.8 c -0.44634,-8.80311 8.79565,-1.79932 0,0 z m 37.93891,-1.53062 c 2.50796,-7.16005 6.11388,5.29658 0,0 z m 47.43748,-0.66938 c 1.2938,-3.92335 1.77739,4.30543 0,0 z m 6.32673,-1.35115 c -10.67179,-6.19956 8.68127,0.49544 0,0 z m 34.67327,-0.64885 c -4.92462,-4.22198 7.05351,3.96703 0,0 z m -120.57922,-0.66119 c 4.00014,-1.53808 11.48758,-17.84224 12.92686,-8.41678 -5.7329,0.4358 -7.49249,7.63129 -12.92686,8.41678 z m 75.0863,0.67264 c 2.44684,-1.99594 0.53628,3.35508 0,0 z m 29.89022,-1.27873 c -9.61686,-0.50659 3.78544,-14.94335 0.9554,-3.33117 1.00655,1.00546 1.80748,7.2052 -0.9554,3.33117 z m -97.92834,0.21706 c 0.6226,-5.20899 1.91775,3.96831 0,0 z m -61.46896,-3.34279 c 1.46563,-4.72276 5.0709,1.97479 0,0 z m 85.45989,-2.73338 c 4.83135,-8.51356 9.23518,6.54908 0,0 z m -27.70366,-3.56094 c 0.577,-6.1343 5.76778,2.39342 0,0 z m 26.25908,-1.87154 c -1.91189,-5.64232 7.08452,-2.19087 0,0 z m -12.14293,-1.69113 c -3.11061,-10.31097 10.35464,-2.95536 0,0 z m -4.60155,-2.35417 c 2.62387,-2.19465 1.6322,2.07829 0,0 z m 17.72917,-1.89583 c 3.468,-6.05597 0.28228,2.62339 0,0 z m 44.14232,-0.24592 c -9.46978,-6.66165 -32.08747,1.32856 -34.68248,-3.53273 10.8287,-4.64371 25.33895,-3.92339 34.68248,3.53273 z m -89.47597,-0.98491 c 4.89155,-3.18883 -8.94651,-5.81132 0.75652,-6.10194 8.49519,-1.41502 4.83645,5.62053 -0.75652,6.10194 z m 38.35825,-0.90416 c 4.61804,-6.83209 9.16876,1.39024 0,0 z m -53.0246,-1.93644 c 3.45044,-10.21112 7.45509,5.77105 0,0 z m 61.63244,-2.21428 c 2.6068,-4.75018 3.54011,4.47851 0,0 z"
       id="path7371"
       inkscape:connector-curvature="0" />
    <path
       style="fill:#e8765b;fill-opacity:1"
       d="m 728.7558,362.37242 c 2.10493,-3.73295 1.82051,3.4542 0,0 z m 7.27485,-1.1324 c 1.28411,-9.04237 -5.34184,-28.20832 1.85239,-30.79747 -3.19961,10.46986 2.81756,21.71883 -1.85239,30.79747 z m 69.21851,-0.95093 c 2.73678,-13.39929 1.35094,-28.51799 10.10614,-39.96372 -0.32511,-6.03001 12.54876,-17.82918 5.07261,-5.79784 -7.55,14.13647 -11.46225,29.84819 -14.38606,45.50502 l -0.60548,0.19595 -0.18721,0.0606 0,-1e-5 z m 12.00664,-2.17615 c 4.01214,-17.27887 8.25259,-34.8847 17.38338,-50.29286 3.24774,-12.29228 -6.64473,-24.94711 -0.97222,-36.77618 1.52505,-1.98206 -4.55445,11.16438 1.0032,14.79248 4.11806,3.44188 13.36709,12.11046 3.93273,12.86246 -7.01063,12.19189 -6.98551,26.63434 -9.87446,40.04373 -4.3241,6.07275 -9.23018,12.17902 -11.47263,19.37037 z m 11.05746,-25.84788 c 3.01038,-5.85943 -3.61058,0.48799 -1.51963,1.16094 l 1.51963,-1.16094 z m -104.3075,24.76419 c -1.94481,-3.95156 -12.22216,-16.66388 -2.91566,-7.94078 0.97878,1.80649 7.74469,6.91516 2.91566,7.94078 z M 863.2558,355.9038 c 3.62611,-4.07256 1.55025,5.04477 0,0 z m -208.43571,-2.82451 c 0.76769,-4.15207 2.2111,-1.08201 0.30091,0.59721 l -0.30091,-0.59721 z m 36,0 c 0.76769,-4.15207 2.2111,-1.08201 0.30091,0.59721 l -0.30091,-0.59721 z m -34.00216,-4.00818 c 3.12807,-7.16175 4.82297,3.22623 0,0 z m 31.83959,-1.19869 c 1.20626,-4.48549 2.75783,0.57117 0,0 z m -35.2634,-2.16667 c 0.74352,-5.11696 2.67149,-0.51305 0.42048,0.93687 l -0.42048,-0.93687 z m 25.38447,-1.3865 c 1.78297,-4.86835 6.18919,-14.18452 4.13394,-14.85408 10.24321,2.62209 -3.32147,11.6012 -4.13394,14.85408 z m -19.44384,-2.31927 c -4.30841,0.97925 -1.64681,-1.86945 0.5158,-0.58604 l -0.5158,0.58604 z m 5.92105,-8.62756 c 1.67628,-4.26395 2.74334,1.19617 0,0 z m 77,-7.60765 c 0.45198,-7.72619 1.06327,6.66387 0,0 z m -22.54112,3.54112 c 0.14954,-3.18882 1.70832,1.24027 0.47196,0.96184 l -0.47196,-0.96184 z m -26.95888,-2.93347 c 3.97012,-6.17373 -3.01026,7.70883 0,0 z m -12.85014,-0.46527 c -2.70403,-6.2138 15.14768,-22.26282 10.60482,-9.42692 -2.45775,3.69101 -5.5826,9.43415 -10.60482,9.42692 z m 18.35014,-8.03473 c 5.64393,-5.99136 -3.71359,5.81661 0,0 z m 30,-0.5 c 4.23485,-5.17673 -0.56635,4.0695 0,0 z m -2.5,-2 c 2.73108,-4.92152 2.90767,4.09763 0,0 z m 8.09501,-3.10499 c -0.62537,-5.07523 3.96551,-1.50754 0,0 z m -24.11146,-2.66838 c 4.6277,-6.91035 0.40405,1.75208 -0.81079,0.78292 l 0.45797,-0.44222 0.35282,-0.3407 z m -13.71011,-0.54367 c 5.45862,-10.09864 13.22262,-19.15182 22.22917,-26.22752 -5.7282,9.97927 -12.89784,19.35971 -22.22917,26.22752 z m 4.22656,-5.74198 c -2.2079,-1.62658 -0.13559,2.72737 0,0 z m 36.66667,1.39235 c -2.24893,-8.37053 8.00243,-6.28709 0,0 z m 104.20577,-2.08333 c 0.59729,-1.96946 2.95826,5.23326 0,0 z m -11.30815,-4.54313 c 0.76769,-4.15207 2.2111,-1.08201 0.30091,0.59721 l -0.30091,-0.59721 z m -111.52237,-3.46666 c -0.16546,-8.2602 8.49483,-3.70915 0,0 z m 67.51572,-1.14695 c 2.96173,-2.5419 2.08575,3.9398 0,0 z m 6.94944,-0.0818 c 2.44684,-1.99595 0.53627,3.3551 0,0 z m -11.23625,-1.61562 c 2.62374,-2.19453 1.63242,2.07793 0,0 z m 1.97917,-2.11316 c -2.1344,-6.69801 8.40991,2.66889 0,0 z m 42.96192,-1.88712 c 5.46616,-6.87344 -15.13969,-12.11285 -1.11808,-16.22102 7.23422,-0.1883 0.33591,12.21826 1.11808,16.22102 z m -22.76295,-2.86343 c -0.56313,-5.40951 -13.60198,-7.01136 -2.56267,-8.89757 4.71338,1.3406 2.70108,16.19622 11.20303,7.83136 -1.60051,1.95811 -10.22587,7.85312 -8.64036,1.06621 z m -17.94897,0.46788 c 2.10221,-3.20412 0.7573,3.65958 0,0 z m -12.42105,-7.41667 c -1.10305,-7.52809 1.82007,2.30947 0,0 z m 16.42105,-0.58333 c 1.41385,-4.28802 0.61807,3.81939 0,0 z m 59.5,-2.94098 c 0.46715,-3.60896 2.28284,2.0279 0,0 z m -112,-1.55902 c 3.468,-6.05597 0.28228,2.62339 0,0 z m 110,-1.5 c -8.10229,-4.90425 12.13374,-7.21515 1.9664,-0.43353 -0.2596,0.7096 -1.48592,1.20358 -1.9664,0.43353 z m -60.50034,-0.64966 c -6.2114,-7.7921 8.3539,-4.37356 0,0 z m 6.50034,-0.70954 c -4.66098,-7.01079 7.24492,-1.85315 0,0 z m -60,-2.48581 c 0.15162,-7.44594 5.8435,1.65302 0,0 z m 67.56429,-0.86186 c 0.33813,-4.26267 2.16972,7.67878 0,0 z m -63.56429,0.31386 c 1.46563,-4.72276 5.0709,1.97479 0,0 z m 36.07895,-1.02366 c -1.10305,-7.52809 1.82007,2.30947 0,0 z m -25.07895,-2.08333 c 5.64393,-5.99137 -3.71357,5.81661 0,0 z m 19.07895,-0.75 c 13.05388,-1.6352 -2.61265,6.81617 0,0 z m 88.57897,1.80093 c 2.88048,-3.31515 0.19768,4.10272 0,0 z m -13.55824,-1.17849 c -3.46648,-6.68981 6.11638,-1.60079 0,0 z m -22.44476,-1.82931 c -11.15818,1.94533 -2.15685,-7.71485 0,0 z m 37.61591,0.8527 c 2.62374,-2.19454 1.6324,2.07796 0,0 z m -118.09481,-4.82124 c 0.0477,-6.03124 12.76269,-7.47203 3.45947,-2.26688 -0.78444,0.51553 -6.1717,8.28348 -3.45947,2.26688 z m 100.85461,3.92541 c -1.18828,-3.78338 4.38228,-2.11329 0,0 z m -94.03063,-2 c 3.468,-6.05597 0.28228,2.62339 0,0 z m 22.2593,-1.65289 c -2.19716,-7.65992 13.11911,-5.56404 4.28551,-1.21855 -1.44014,0.14257 -3.12812,0.17959 -4.28551,1.21855 z m 76.7407,-1.40613 c -3.6342,-1.77916 -0.70091,-2.3198 0.56839,-0.12042 l -0.56839,0.12042 z m -95,-2.44098 c 4.13563,-5.7304 -1.36419,4.54949 0,0 z m 89,1 c -7.58894,-5.19179 6.89924,-6.75036 0,0 z m -11,-3 c 3.27172,-3.13723 1.71678,4.5245 0,0 z m 14,0.059 c 0.46715,-3.60896 2.28284,2.0279 0,0 z m -9,-2.05902 c 1.93992,-3.0788 0.17795,2.9649 0,0 z m 20.2982,-0.22583 c -9.2105,-3.30488 4.54475,-2.9974 0,0 z m -73.67142,-5.48072 c 2.74962,-7.15034 8.34637,2.44663 0,0 z m 67.54274,-3.70693 c 2.80106,-9.39064 -23.47034,-12.39382 -11.92987,-17.60099 5.36413,-0.21899 20.87403,15.25525 11.92987,17.60099 z m -91.88059,-0.39757 c 1.6227,-5.84268 7.13764,-1.72961 0,0 z m 6.27536,-0.48208 c 0.76769,-4.15207 2.2111,-1.08201 0.30091,0.59721 l -0.30091,-0.59721 z m 16.51466,-1.12354 c -1.10304,-7.52807 1.82007,2.30948 0,0 z m -14.07895,-2.9667 c 2.13483,-4.05922 4.6758,2.4382 0,0 z m 12.25,-0.33491 c -8.50526,-7.42998 15.48457,-11.63542 3.09627,-3.7959 -0.86758,1.3438 -1.61817,2.97756 -3.09627,3.7959 z"
       id="path7369"
       inkscape:connector-curvature="0" />
    <path
       style="fill:#a5a199"
       d="m 809.5185,368.25693 c -13.09905,-6.11598 13.87268,-15.52359 7.65497,-2.61863 -1.21216,2.57804 -5.18953,5.04735 -7.65497,2.61863 z m -141.92961,-5.95142 c -12.50203,5.56034 -13.3722,-18.99013 0.18811,-12.08064 7.05836,0.7707 8.81388,13.51135 -0.18811,12.08064 z m 59.66187,-4.45228 c 2.32114,-9.89362 11.95652,13.30442 0,0 z m -77.49496,0.51919 c 1.41385,-4.28802 0.61807,3.81939 0,0 z m 37.13994,0.22643 c -2.77628,-9.56859 8.96758,-2.7815 0,0 z m 168.36006,-0.66741 c 0.50112,-4.26921 2.85265,2.21905 0,0 z m 17.50803,-3.39968 c -8.17887,-2.58315 0.87682,-3.71118 2.30572,-0.3035 l -2.30572,0.3035 z M 675.3227,351.27164 c -0.31435,-8.29644 4.99931,-4.54983 0,0 z m -43.06688,-5.10391 c 5.11779,-10.80029 12.53979,9.35436 0,0 z m 29.99998,-1.0096 c 3.25821,-3.55698 2.73966,4.15522 0,0 z m 10.44615,-4.87284 c -2.5095,-3.74617 3.01271,-0.85568 0,0 z m -13.44615,-1.85385 c -0.31163,-6.61982 2.7756,1.90115 0,0 z m 60.20967,-11.56567 c -0.11643,-4.47591 4.86282,-3.18356 0,0 z m 4.79033,-5.52473 c 2.22741,-4.45554 3.94169,3.7386 0,0 z m 7.15789,-12.96862 c 0.27949,-7.89018 0.93605,4.35104 0,0 z m -94.65081,-19.98855 c 2.44684,-1.99594 0.53628,3.35508 0,0 z m 23.24292,0.25634 c 5.02998,-1.47702 6.62011,2.06515 0,0 z m 25.9777,-0.98952 c 2.36838,-0.81824 7.01432,0.79233 1.95865,0.34708 l -1.95865,-0.34708 z m -50.64875,-2.40583 c 0.217,-3.98749 4.34915,-2.64309 0,0 z m 224.6436,0.51678 c -2.60948,-8.57775 8.11981,-4.01991 0,0 z m 13.00842,-0.0451 c 3.60782,-2.57204 2.05363,1.97551 0,0 z m 10,-1 c 3.60782,-2.57204 2.05363,1.97551 0,0 z m 6.51903,-1.3355 c 3.1993,-7.04234 -3.13797,-15.35975 -1.51107,-21.52822 -4.50909,-3.9117 -5.62187,-7.26143 0.7454,-3.06447 13.42401,2.29565 19.3905,29.02384 0.76567,24.59269 l 0,0 z m -205.45625,-4.75196 c 4.70333,-1.28186 11.38111,1.09755 2.76557,0.15529 -0.85135,0.129 -2.17952,1.07195 -2.76557,-0.15529 z m -40.79375,-1.75661 c 3.468,-6.05597 0.28228,2.62339 0,0 z m 67.73097,0.84406 c 3.6073,-2.57267 2.05363,1.97615 0,0 z m 11.26903,-1.84406 c 3.468,-6.05597 0.28228,2.62339 0,0 z m 155.23834,-0.18708 c 3.07334,-1.98374 3.70251,2.16443 0,0 z m -85.90251,-2.88014 c -2.41995,-5.67813 3.13098,0.0508 0,0 z m 12.28771,-4.97144 c -4.6871,-5.59655 3.10543,0.65771 0,0 z m 10.64729,-0.0655 c 2.62373,-2.19456 1.63239,2.07797 0,0 z m 62.22917,-5.02062 c -1.42175,-3.86758 4.69927,6.13258 0,0 z m -74.5,-1.20854 c 2.21965,-4.48345 3.22258,3.67382 0,0 z m 50.07895,-2.58334 c -1.10305,-7.52809 1.82007,2.30947 0,0 z m -69.34798,-0.23927 c 3.60724,-2.57276 2.05364,1.97621 0,0 z m 82.26903,-2.43341 c -1.8313,-3.63244 5.09692,5.57592 0,0 z m -81.18885,-2.6244 c 2.67991,-2.6421 2.59058,-0.68098 0.0279,0.35014 l -0.0279,-0.35014 z m 87.92959,-3.66006 c -7.29363,-4.64902 7.09198,2.8365 0,0 z m -90.08623,-1.87619 c 3.63082,-3.96328 3.39996,4.72744 0,0 z m 36.05251,-0.4476 c -9.9128,-1.67224 3.80606,-1.88061 0,0 z m 18.29298,-0.3024 c 1.93992,-3.0788 0.17795,2.9649 0,0 z m -38.49663,-1.9894 c -5.23913,-2.39195 1.35171,-2.06342 0,0 z m 59.93776,-4.56577 c -0.15241,-1.74752 3.80946,3.50427 0,0 z m -68.1703,-0.049 c 2.62387,-2.19465 1.6322,2.07829 0,0 z m -68.50238,-1.56428 c 1.08768,-3.34564 2.76684,1.35257 0,0 z m 29.77426,0.23755 c -1.20347,-5.41816 3.29684,2.73256 0,0 z m 101.31807,-2.12845 c -1.23659,-2.57406 4.36757,3.9247 0,0 z m -24.45579,-3.19065 c -3.61025,-5.4289 5.46608,6.09893 0,0 z m -46.40499,-2.25 c 3.468,-6.05597 0.28228,2.62339 0,0 z m 41.23113,-3.37922 c -4.9115,-7.79588 -25.81308,1.38607 -24.15558,-6.81906 8.33068,-1.35079 18.37639,0.10903 24.15558,6.81906 z m -86.23113,0.52941 c 1.67215,-3.55747 4.83477,-0.71335 0,0 z m 34,-1.05141 c 14.14636,-12.50513 34.26413,-12.12546 51.85776,-9.91189 6.02066,-0.83962 21.00974,3.66681 17.99178,8.25305 -18.65355,-1.99724 -38.24578,-11.53046 -56.51428,-2.47472 -4.41239,1.47767 -8.80448,3.04775 -13.33526,4.13356 z m -53.02914,-5.68707 c 3.36133,-12.40766 20.55207,4.72359 25.78141,-7.45618 11.15487,-0.67725 4.42004,12.38894 -4.00059,8.46749 -7.18323,0.84978 -15.06592,2.7391 -21.78082,-1.01131 z"
       id="path7367"
       inkscape:connector-curvature="0" />
    <path
       style="fill:#ee5129;fill-opacity:1"
       d="m 819.33475,357.95575 c -1.10304,-7.52807 1.82007,2.30948 0,0 z m -100.49451,-5.83333 c -8.70118,0.49775 2.60493,-11.96374 1.66707,-0.61902 0.78393,2.61716 -1.30151,3.43104 -1.66707,0.61902 z m 86.40098,0.75 c -5.39285,-5.04303 6.00605,-14.29317 1.83341,-3.62316 l -0.56886,1.99683 -1.26455,1.62633 z m 14.01458,-0.3488 c 9.85202,-10.58596 14.08535,-25.36608 13.90386,-39.6075 0.18586,-6.65284 7.48131,-9.54755 3.69006,-1.14452 -3.52832,12.72975 1.21416,28.60169 -9.1632,38.79321 -2.1323,2.38935 -5.5014,2.43011 -8.43072,1.95881 z M 708.70933,346.9554 c 1.28904,-9.43324 6.33097,4.16932 0,0 z m 27.63605,-1.67832 c -3.24435,-5.03416 6.31998,-23.807 6.44568,-10.67902 -0.71796,4.03528 -1.38611,9.9295 -6.44568,10.67902 z m 4.91042,-3.29767 c 1.46563,-4.72276 5.0709,1.97479 0,0 z m 84.01531,-9.35699 c -2.8056,-12.43116 8.04497,0.41592 0,0 z m -137.74448,-2.85417 c 2.62385,-2.19461 1.63222,2.07824 0,0 z m 48.92201,-2.14583 c -5.46006,-4.633 -0.55257,-20.31782 1.11937,-6.15977 1.12315,1.91594 3.017,6.45298 -1.11937,6.15977 z m -59.19284,0.0291 c -8.23552,-11.27511 12.26043,2.48145 0,0 z m 66.15789,-3.27914 c 0.27949,-7.89018 0.93605,4.35104 0,0 z m -63.70412,-4.89178 c 6.1361,-7.87244 5.46292,7.70787 0,0 z m 14.43654,-7.35822 c -6.70187,-6.34308 13.8084,-13.33515 3.04291,-4.63208 -1.04538,1.52335 -2.05234,3.07267 -3.04291,4.63208 z m 48.30464,-5.25 c -0.77277,-7.60999 1.47531,3.48933 0,0 z m -6.19495,-0.5904 c 1.72204,-12.64387 6.62422,2.75299 0,0 z m 86.67621,-0.77943 c 10.80365,-2.36789 -2.22981,-22.2341 3.05339,-21.2446 1.96774,6.76735 6.79223,18.22917 -3.05339,21.2446 z m 19.0591,-11.89731 c -6.32285,-4.89942 1.25729,-3.07945 1.97253,0.51223 l -1.97253,-0.51223 z m 0.34364,-4.64953 c -1.10304,-7.52807 1.82007,2.30948 0,0 z m -6.85015,-2.30831 c -11.35749,-3.61658 4.22543,-25.42242 3.93809,-8.0163 1.20202,3.05703 1.83132,10.98521 -3.93809,8.0163 z m -34.9788,-4.0063 c -4.66172,-3.17575 1.5613,-2.37033 2.02781,0.001 l -0.29993,0.14555 -1.72788,-0.14685 z m -5.51667,-2.39281 c 3.12678,-5.41101 1.28787,2.50118 0,0 z m 24.01667,-1.53819 c 2.42434,-2.36358 2.01713,2.18168 0,0 z m 5.65499,-6.57049 c 3.03267,-4.39947 0.87813,5.81757 0,0 z m 15.3093,-1.38628 c -1.1853,-8.10642 7.13475,2.27767 0,0 z m -102.12893,-8.5078 c -0.9187,-10.32387 19.0143,-8.16276 7.1404,-0.515 -1.93697,1.40364 -10.19854,7.88543 -7.1404,0.515 z m 8.6032,-4.87315 c -3.65626,-4.56082 -3.43804,7.13155 0,0 z m 22.51377,-1.66667 c 2.3938,-4.41839 0.54849,3.91422 0,0 z m 70.71063,-3.33333 c 0.28067,-8.78112 7.45956,3.10773 0,0 z m -0.66296,-21.46953 c -3.11267,-5.46206 5.31153,5.05985 0,0 z m -56.75,-4.03047 c 3.468,-6.05597 0.28228,2.62339 0,0 z"
       id="path7365"
       inkscape:connector-curvature="0" />
    <path
       style="fill:#860305;fill-opacity:1"
       d="m 732.2558,366.87242 c 1.86508,-5.80407 1.87585,4.4819 0,0 z m 86.69047,-1.8258 c -2.49564,-14.3676 21.05412,-18.91754 15.92073,-33.94666 1.6559,-7.53297 -2.33824,-19.96007 6.14492,-23.59808 5.42041,14.17204 -0.27484,29.47369 -2.1924,43.77293 -2.01725,8.99248 -12.45647,11.69953 -18.67981,12.29894 -0.15106,0.0531 -0.64819,5.50524 -1.19344,1.47287 z m -90.19047,-1.43951 c -9.10287,-6.25323 1.14563,-5.65612 0,0 z m 72.15423,-1.44891 c -0.33115,-4.25564 2.70753,-22.47375 4.50834,-9.22689 0.4641,3.35576 0.876,10.27754 -4.50834,9.22689 z m -60.25797,-1.37602 c -6.1416,-9.57443 5.98706,-5.62689 0.4363,0.76919 l -0.4363,-0.76919 z m -18.96769,-1.40976 c 0.75835,-6.29442 1.04156,3.54752 0,0 z m -6.57663,-1.75 c 3.22498,-6.27138 -16.08761,-6.56388 -4.50451,-10.66193 5.15246,-0.34721 17.18602,13.54455 4.50451,10.66193 z m 147.71674,-3.15201 c 3.60118,-4.62852 5.02888,4.04791 0,0 z m -186.4325,-2.23318 c 3.32258,-14.2584 16.7997,-22.44193 23.57707,-34.75702 -0.73853,14.81508 -12.53453,25.37058 -23.10678,34.17675 l -0.40085,0.49459 -0.0694,0.0857 0,0 z m 15.63603,-4.27609 c 3.15656,-8.16398 0.0197,6.87688 0,0 z m -40.27221,0.41128 c -1.15637,-9.81237 13.56099,-0.0966 2.09752,0.75941 -0.80827,0.003 -1.46466,-0.2745 -2.09752,-0.75941 z m 3.5,-2.55902 c -2.80164,-4.38051 0.52757,3.7097 0,0 z m 82.82915,0.80902 c -2.70764,-12.45616 13.57953,0.1712 0,0 z m -42.1422,-0.62341 c -3.35045,-7.71662 7.47427,-1.56321 0,0 z m 47.92311,-11.37659 c 0.91919,-6.63236 1.24857,5.67799 0,0 z m -72.98853,-5.79189 c 1.98849,-8.31919 9.62729,6.50181 0.48602,0.14907 l -0.48602,-0.14907 0,0 z m 69.45742,-0.87478 c -1.10304,-7.5281 1.82007,2.30948 0,0 z m 4.42105,-0.58333 c 1.41385,-4.28802 0.61807,3.81939 0,0 z m -6.66667,-4 c -6.57912,-8.024 7.66458,-3.89739 0.74012,1.23705 -0.24671,-0.41235 -0.49341,-0.8247 -0.74012,-1.23705 z m 3.26816,-5 c 1.98308,-5.04498 -7.37173,-21.35813 3.98338,-15.88538 0.29468,4.72875 3.32804,15.28798 -3.98338,15.88538 z m 1.55445,-13.26903 c -1.9975,2.24439 2.93495,2.77102 0,0 z m -60.15594,10.26903 c 5.95366,-6.01308 -4.26804,6.34647 0,0 z m 26.62072,-4.64546 c 5.10391,-9.56837 12.25547,2.13777 0,0 z m 37.10519,-4.35454 c 0.94059,-9.81948 2.38567,2.03999 -0.23473,1.21027 l 0.12122,-0.62499 0.11351,-0.58528 z m 75.77409,-1.43659 c 2.98707,-7.69502 3.7154,-22.02355 -7.33764,-22.96385 12.76779,-6.24928 15.79255,17.82053 7.33764,22.96385 z m -123,-4.06341 c 5.64393,-5.99136 -3.71359,5.81661 0,0 z m 23,-5 c -3.52185,-11.02384 7.44444,-4.39945 0.49836,0.61826 l -0.49836,-0.61826 z m 123.116,0.37197 c -12.14267,-2.06936 5.905,-21.5278 -6.98156,-19.44705 -3.64889,-7.01894 4.62353,-14.97692 7.68775,-4.95017 5.83955,6.10048 3.91192,18.29428 -0.70619,24.39722 z m -2.51183,-8.60114 c -1.98146,1.83636 2.46056,1.73046 0,0 z m -53.85417,7.06689 c 2.42434,-2.36358 2.01713,2.18168 0,0 z m -16.75,-2.83772 c 3.60816,-9.53012 8.23825,6.43776 0,0 z m 18.56429,-0.79313 c 0.76769,-4.15207 2.2111,-1.08201 0.30091,0.59721 l -0.30091,-0.59721 z m -4.06958,-1.88512 c -0.62657,-13.27689 10.22811,2.10511 0,0 z m 14.94799,-4.23999 c -4.81773,-5.039 5.39923,3.41145 0,0 z m -75.78699,-4.12694 c 1.1234,-3.8514 2.37596,1.76178 0,0 z m 45.34429,-1.3958 c 3.42501,-5.3009 4.81345,5.30392 0,0 z m -39.72917,-3.66319 c 2.62374,-2.19454 1.6324,2.07796 0,0 z m 6.59248,-2.63482 c 3.05464,-4.64943 6.21168,1.24049 0,0 z m 35.21771,-2.60962 c -4.70091,-5.8123 4.1284,-0.49773 0.16158,0.081 l -0.16158,-0.081 z m -7.07874,-3.90139 c 4.90509,-6.02763 7.23245,5.59511 0,0 z m 29.26855,0.14583 c 2.62374,-2.19454 1.6324,2.07796 0,0 z m 62.15774,-1.22916 c 0.16713,-6.3539 2.15815,4.98411 0,0 z m -116.75569,-4.92684 c 1.48203,-9.238 10.8039,-3.0759 0,0 z m 99.40607,-5.45845 c -2.54906,-7.6889 3.72249,3.84072 0,0 z m -69.75751,-0.0314 c -3.60524,-5.86679 7.58732,-11.48727 1.76477,-2.58518 0.0112,0.79369 -0.10566,4.0018 -1.76477,2.58518 z m 58.74385,-1.17133 c 2.99121,-7.10706 4.67157,3.83407 0,0 z m 5.63002,-0.52152 c -0.3288,-7.11778 2.00861,3.28779 0,0 z m 18.30469,-1.05715 c 2.33094,-4.88838 2.21825,4.50938 0,0 z m -101,-2.81854 c 2.42855,-8.15426 3.60269,6.2302 0,0 z m 8.07895,-3.59813 c -1.10305,-7.52809 1.82007,2.30947 0,0 z m 14.92105,-9.19098 c 1.24864,-2.74589 2.07628,2.58592 0,0 z m -0.92105,-4.80902 c -1.10304,-7.52807 1.82007,2.30948 0,0 z m 61.47992,-3.11513 c -2.60528,-4.27211 5.17363,4.48051 0,0 z"
       id="path7363"
       inkscape:connector-curvature="0" />
    <path
       style="fill:#62605a"
       d="m 807.7558,378.59309 c -12.99154,-3.19756 0.42576,-20.85749 8.39282,-11.85577 10.13142,0.83664 -3.64424,14.92993 -8.39282,11.85577 z M 655.25727,367.1576 c -6.59686,-4.1672 -7.37538,-14.04608 1.4713,-7.3205 5.54756,1.66898 21.88179,0.58352 9.81262,8.46408 -3.11308,3.05261 -10.17902,4.88714 -11.28392,-1.14358 z m 75.24379,-3.03961 c 5.19064,-8.59362 7.15619,5.93735 0,0 z m 132.75474,-1.24557 c 2.01306,-6.71624 -15.85198,-3.12644 -4.22242,-8.19701 3.90042,-1.05419 10.74288,6.77815 4.22242,8.19701 z m -176.88572,-2.42937 c -4.01004,-5.66375 3.58653,2.06706 0,0 z m 41.88572,-0.0706 c 1.93992,-3.0788 0.17795,2.9649 0,0 z m 147.5,-2 c -7.33868,-6.37641 6.11493,-1.80729 3.36329,0.77958 l -1.31914,-0.20611 -2.04415,-0.57347 z m -15,-7.00218 c 4.81788,-5.71669 6.90759,4.30556 0,0 z m 12.00708,0.0136 c 2.44684,-1.99594 0.53628,3.35508 0,0 z m -237.23625,-3.61559 c 2.62385,-2.19461 1.63222,2.07824 0,0 z m 5.43837,-2.39182 c -13.82829,-2.51716 2.7381,-6.0494 0,0 z m 222.7908,-8.00401 c 2.73108,-4.92152 2.90767,4.09763 0,0 z m -142.28943,-7.6065 c 5.25082,-9.3717 11.01691,2.83886 0,0 z m 11.78943,-1.8935 c 3.468,-6.05597 0.28228,2.62339 0,0 z m -13.44292,-1.40765 c -1.58236,-9.85226 9.21775,1.66804 0,0 z m 4.44292,-9.09235 c 2.75302,-3.46092 1.57932,3.88424 0,0 z m 3.3113,-2.70953 c -1.20562,-9.12774 9.16486,-0.16312 0,0 z m 119.40524,-5.04047 c -4.28492,-5.90693 6.42751,-5.22752 0,0 z m -113.71654,-6.75 c 3.468,-6.05597 0.28228,2.62339 0,0 z m 62,-8.5 c 1.93992,-3.0788 0.17795,2.9649 0,0 z m -152.76791,-4.71453 c 3.75312,-0.86596 6.80835,1.15641 0,0 z m 10.51791,0.0523 c 2.42434,-2.36358 2.01713,2.18168 0,0 z m -17.29112,-1.40425 c -2.16029,-5.96782 2.31969,2.5466 0,0 z m 38.29112,0.3608 c 3.24337,-1.20468 4.02623,1.38303 0,0 z m 24.5,-1.01052 c 4.72434,-0.87365 3.56382,1.17781 0,0 z m 161.05214,-1.60389 c 6.80011,-4.97477 7.17515,5.5555 0,0 z m 18.94786,-0.36919 c 2.61791,-1.84945 2.69359,2.70376 0,0 z m 9.98834,-0.99775 c 3.07334,-1.98374 3.70251,2.16443 0,0 z m 9.26166,-1.05124 c 14.99362,-1.14911 -5.30876,-19.61846 1.18195,-19.67704 7.94978,3.08989 12.93215,24.25121 -1.18195,19.67704 z M 638.31113,280.6225 c 2.38489,-6.35977 8.24569,-2.03587 0,0 z m 28.67237,-1.97173 c 2.36838,-0.81824 7.01432,0.79233 1.95865,0.34708 l -1.95865,-0.34708 z m 192.35125,-1.08729 c -3.01678,-14.31644 8.21904,0.10725 0,0 z m -153.34798,0.15308 c 3.60724,-2.57276 2.05364,1.97621 0,0 z m 9.53986,0.0518 c 2.62374,-2.19454 1.6324,2.07796 0,0 z M 865.9835,275.6508 c 2.36836,-0.81819 7.0143,0.79227 1.95865,0.34706 l -1.95865,-0.34706 z m 20.05136,-1.01942 c 10.49236,-1.14415 -4.18757,1.05471 -1.14354,0.22872 l 0.62427,-0.12486 0.51927,-0.10386 z m -93.12794,-0.94106 c -0.20586,-8.4062 9.1021,-4.61047 0,0 z m 57.50677,-4.31779 c 0.27949,-7.89018 0.93605,4.35104 0,0 z m 33.58453,-0.91401 c -6.28598,-3.51422 4.62672,1.21089 0,0 z m -60.74242,-1.08599 c 2.33094,-4.88838 2.21825,4.50938 0,0 z m -11.12756,-1.75 c 0.59729,-1.96946 2.95826,5.23326 0,0 z m -79.37244,-0.25 c 1.41385,-4.28802 0.61807,3.81939 0,0 z m 64.77083,0.39583 c 2.62374,-2.19454 1.6324,2.07796 0,0 z m 20.22917,-0.39583 c 1.41385,-4.28802 0.61807,3.81939 0,0 z m 59.37244,-1.75 c 0.59729,-1.96946 2.95826,5.23326 0,0 z m -56.38521,-0.22933 c -3.54322,-2.88262 1.90819,-2.70849 0,0 z m -7.04108,-2.1078 c -4.71854,-5.30284 3.74263,1.04589 0,0 z m 59.55385,0.0871 c 0.19268,-3.51841 3.92002,6.20018 0,0 z m -70.54112,-1.06653 c -2.16029,-5.96782 2.31969,2.5466 0,0 z m -25.18805,-2.53764 c 2.62374,-2.19454 1.6324,2.07796 0,0 z m 49.74923,-0.87166 c -1.55849,-4.61824 3.05601,3.71813 0,0 z m -44.28673,-1.64826 c 3.12678,-5.41101 1.28787,2.50118 0,0 z m -5.73333,-0.87591 c 1.93992,-3.0788 0.17795,2.9649 0,0 z m 2.45888,-1.06653 c 0.14954,-3.18882 1.70832,1.24027 0.47196,0.96184 l -0.47196,-0.96184 z m 7.54112,0.0665 c 2.33094,-4.88838 2.21825,4.50938 0,0 z m -47,-0.39301 c 1.46563,-4.72276 5.0709,1.97479 0,0 z m 136.44113,-1.16216 c -0.15241,-1.74752 3.80946,3.50427 0,0 z m -89.93558,-2.4387 c -8.32694,0.73747 2.32267,-9.86332 0.77455,-1.33335 1.48571,1.17725 0.28574,4.34078 -0.77455,1.33335 z m 34.49445,-0.006 c 0.19268,-3.51841 3.92002,6.20018 0,0 z m -29.91963,-0.95033 c -3.30767,-4.52808 3.13548,0.0142 0.25049,0.0695 l -0.25049,-0.0695 z m 15.91963,-0.54967 c 3.468,-6.05597 0.28228,2.62339 0,0 z m 34.27083,-0.10417 c 2.62387,-2.19465 1.6322,2.07829 0,0 z M 811.7558,246.3726 c 0.72402,-3.9763 2.85036,4.19883 0,0 z m 52.36078,-2.05935 c -1.23659,-2.57406 4.36757,3.9247 0,0 z M 795.2558,243.3726 c 0.19268,-3.51841 3.92002,6.20018 0,0 z m 55.97994,-7.52417 c -2.67243,-5.40263 4.11275,4.69195 0,0 z M 836.2558,233.3726 c -1.78456,-5.45828 3.08766,3.83927 0,0 z m -124,-0.42963 c 1.7152,-3.42025 4.96088,-0.42446 0,0 z m 47,-0.54741 c 2.65951,-4.91937 5.34801,3.18076 0,0 z m 21,-0.52296 c 3.468,-6.05597 0.28228,2.62339 0,0 z m 45.4616,-1.29571 c 0.57227,-9.94603 -22.22519,-4.82124 -17.59972,-11.56876 4.97916,-0.14546 21.64573,5.72061 17.59972,11.56876 z m 21.8916,-0.94044 c -10.33346,-13.17029 -28.67353,-12.1692 -43.72693,-12.26645 -9.1314,6.49919 -18.11927,-16.11761 -4.59172,-10.1795 9.11394,8.18549 24.81375,7.61133 33.23789,4.41067 3.79831,6.09888 14.24048,14.50965 15.08076,18.03528 z m -77.99606,-2.76385 c 2.38409,-6.05234 2.80484,1.79103 0,0 z m 16.05099,-1.94961 c 7.83135,-6.34389 0.42235,5.10241 -0.20611,0.55752 l 0.20611,-0.55752 z m -11.0501,-2.0654 c 1.67932,-7.03913 20.30009,-5.73209 6.50953,-0.96501 -1.73023,1.35242 -4.5429,2.61898 -6.50953,0.96501 z m -23.2899,-3.69528 c -0.35981,-9.6131 -21.07971,2.59065 -8.51877,-6.97103 4.35078,-6.0305 26.16982,-8.90494 16.34786,2.28239 -2.38993,1.8934 -4.99825,3.53782 -7.82909,4.68864 z m -37.48788,-3.92222 c -7.90976,-13.42895 22.96395,-0.98363 5.88353,0.60455 -1.80517,1.37518 -5.83632,3.595 -5.88353,-0.60455 z"
       id="path7361"
       inkscape:connector-curvature="0" />
    <path
       style="fill:#e11a0b"
       d="m 835.5058,357.52079 c 1.76735,-9.84899 6.25256,1.5015 -1.52742,1.36051 0.50914,-0.4535 1.01828,-0.90701 1.52742,-1.36051 z m -130.25,-0.10493 c 2.51538,-9.31005 10.74968,-1.32095 0,0 z m -22.77917,-2.27735 c -5.50969,-14.56465 19.43749,-18.1047 15.57829,-32.54623 -1.64033,-8.36076 20.42376,-16.13706 13.28761,-5.42402 -10.03052,6.80019 -9.38035,24.56148 -18.46208,29.49714 -6.56799,-2.23332 -6.4394,6.00401 -10.40382,8.47311 z m 118.77917,-3.26609 c 1.86508,-5.80407 1.87585,4.4819 0,0 z m -133,-22 c 1.60312,-5.57153 3.58553,1.3433 0,0 z m 174.75,-9.83179 c -4.36544,-7.43473 5.15061,-6.97786 0,0 z m -102.35713,-6.13927 c 0.0727,-8.5737 4.08129,4.69964 0,0 z m 33.3015,-5.18332 c -10.88825,-10.33124 2.68832,-27.04281 -7.16477,-37.83158 3.78104,-8.64944 11.65371,6.21827 5.27168,9.88241 -2.86425,10.41225 12.28364,21.97379 8.41058,28.85351 -2.22454,0.17268 -4.35264,-0.56243 -6.51749,-0.90434 z m -55.60148,0.15438 c -2.69554,-12.6955 8.1143,-24.45036 15.66255,-33.08867 10.9849,-6.98031 22.19511,-15.69381 25.85435,-28.79967 2.12428,-6.10075 7.70899,-9.84291 3.46312,-1.08008 -4.26936,12.67915 -11.20033,25.10569 -22.38426,32.90406 -8.67992,9.16175 -12.14872,22.44397 -22.59576,30.06436 z m 104.08273,-9.42607 c -2.98208,-7.26886 1.60309,-7.3032 2.54849,0.20209 0.0862,1.76684 -2.15137,0.25519 -2.54849,-0.20209 z m -42.66714,-5.09358 c 2.9246,-5.71151 8.15747,6.44468 0.37543,0.17219 l -0.37543,-0.17219 z m 66.50517,-7.53035 c -3.19221,-8.81582 8.61197,-2.60878 0,0 z m -32.51365,-3.191 c 8.07324,-5.15938 1.03581,4.3267 -1.15596,0.89393 0.38532,-0.29798 0.77064,-0.59595 1.15596,-0.89393 z m 27.07376,-3.3476 c 0.61107,-10.51593 8.33735,1.56284 -0.67194,1.83376 l 0.67194,-1.83376 z M 854.2558,256.8134 c 2.76467,-2.66326 -0.35967,3.55458 0,0 z m -78.36163,-12.94098 c -2.85295,-7.79082 6.50886,2.92788 0,0 z m -3.9717,-5.16667 c 0.40837,-11.82187 7.81762,6.00285 0,0 z"
       id="path7359"
       inkscape:connector-curvature="0" />
    <path
       style="fill:#9c1f0c"
       d="m 819.01386,375.79715 c -4.59358,-13.69886 13.80359,-11.54616 18.09465,-19.58507 7.05051,-11.97052 4.13591,-27.0057 7.75214,-39.49583 0.0924,10.21296 -2.40909,20.45428 -3.20772,30.69804 -1.71984,8.27724 -0.88022,18.96402 -9.35083,23.71959 -3.94037,2.65076 -8.58896,4.14164 -13.28824,4.66327 z m -30.72513,-2.60664 c -4.13767,-9.93121 18.84395,-18.35657 11.14907,-4.20064 -3.07532,2.82543 -7.63227,2.28188 -11.14907,4.20064 z m -53.03293,-1.61809 c -10.88262,5.20794 -23.20042,-8.15536 -26.33671,-11.08371 -7.0104,10.54587 -11.37856,-3.65972 -3.40777,-6.37431 -0.70494,4.71849 10.84666,-3.50866 14.59641,3.29771 7.02954,7.53064 18.6171,9.41496 23.25789,-1.25865 4.36528,5.99885 0.53652,17.47654 -8.10982,15.41896 z m 1.64852,-4.67355 c 4.86759,-3.78408 -2.68621,-1.16878 0,0 z m -14.44852,-8.72645 c -4.53336,1.62487 3.61031,2.49657 0,0 z m -46.2387,3.12769 c -7.04767,-10.08198 19.56674,-12.5476 7.8879,-2.29778 -1.37391,2.30763 -5.96213,6.58472 -7.8879,2.29778 z m 85.75709,-0.67769 c -5.43433,-3.99532 4.69826,-18.99343 2.59237,-6.55466 0.30614,2.26764 0.29733,5.99226 -2.59237,6.55466 z m -5.99584,-1.86078 c -5.68626,-9.26683 10.00355,-7.12765 0,0 z m -108.70724,-2.94809 c -2.71742,-8.98151 13.85447,-0.97833 2.64512,0.74903 -0.6347,1.27655 -3.97931,1.54125 -2.64512,-0.74903 z m 43.54898,-0.73426 c 0.76769,-4.15207 2.2111,-1.08201 0.30091,0.59721 l -0.30091,-0.59721 z m 175.81571,0.0282 c -7.9669,0.0369 1.8361,-6.01512 0,0 z m -94.38,-5.67608 c 1.05553,-11.61394 4.51166,8.91202 0,0 z m 27,2.63211 c -1.87221,-6.29352 5.26317,-0.92066 0,0 z m -107,-0.68386 c 12.27968,-7.7167 6.03878,-27.37187 19.61549,-33.94626 -10.2514,8.91247 -6.50399,28.32745 -19.61549,33.94626 l 0,0 z m 47.8095,-1.10701 c 3.20587,-2.67669 3.88524,-22.94984 6.23613,-11.65318 -0.93924,4.36736 -3.18971,8.40527 -6.23613,11.65318 z m 19.34839,-2.90026 c 0.27949,-7.89018 0.93605,4.35104 0,0 z m -101.71174,-3.08713 c -1.67125,-7.24195 4.92663,3.09094 0,0 z m 109.80385,0.42485 c -5.33147,-13.11941 13.28194,-1.22894 0,0 z m -8.25,-8.33772 c 2.33094,-4.88838 2.21825,4.50938 0,0 z m 14.45754,-2.42093 c -6.66835,-15.05894 18.47535,1.98376 0.76083,0.42351 l -0.55625,-0.30963 -0.20458,-0.11388 z m -106.46517,-4.0713 c 6.0455,-6.74755 -2.96519,5.69756 0,0 z m 72.88001,-5.75777 c -4.67121,-3.675 2.62269,-15.41811 0.97659,-4.72868 -0.0755,0.58673 0.72626,8.87373 -0.97659,4.72868 z m 4.14293,0 c 4.09899,-3.5732 -1.63782,4.67348 0,0 z m -68.01531,-3.25 c 4.97564,-5.9367 -2.28192,4.235 0,0 z m 66.54638,-2.32151 c -1.07683,-6.76784 2.76043,4.92007 0,0 z m -12.94337,-4.01182 c 1.14386,-2.62916 1.00153,2.31417 0,0 z m -13.60301,-2.25882 c 3.98255,-2.36687 12.69176,-17.11119 11.8668,-12.61253 -3.28347,4.75985 -6.99106,9.39271 -11.8668,12.61253 z m 29.57421,-0.57507 c -2.47552,-3.83331 2.24733,-1.21951 1.04338,0.47942 l -1.04338,-0.47942 z m 29.47914,-0.7685 c -10.23988,3.31524 -7.96432,-19.46905 -7.21948,-16.31121 -3.28253,8.49431 15.87196,21.22761 13.68183,9.46567 -5.40789,-9.29656 11.3625,5.7373 -0.26348,7.22556 -1.94889,0.8186 -4.42863,1.0043 -6.19887,-0.38002 z m -83.55335,-3.56428 c 5.95366,-6.01308 -4.26804,6.34647 0,0 z m 150.20731,-1.01125 c -0.82788,-5.74464 2.3303,3.81195 0,0 z m -97.09727,-3.02595 c -7.81442,-6.67862 12.34644,-8.83313 2.66035,-0.6635 -0.24778,1.79205 -3.79252,4.98607 -2.66035,0.6635 z m 2.38996,2.09622 c -1.81011,-8.69836 3.55417,5.01303 0,0 z m -32.96937,-0.55902 c -1.18828,-3.78338 4.38228,-2.11329 0,0 z m 90.6395,-2.91724 c 1.9652,-8.13321 4.62473,5.94804 0,0 z m 17.40882,5.7e-4 c -1.10305,-7.52809 1.82007,2.30947 0,0 z m 23.92105,-5.08333 c 1.21323,-6.69771 0.36863,8.43862 0,0 z m -25.58936,0 c -7.25393,-3.83613 6.82842,-8.69276 1.22586,-0.0493 0.47576,1.23429 -2.2537,3.78743 -1.22586,0.0493 z m -40.91064,-1.56783 c 6.60363,-3.86266 8.63422,6.59085 0,0 z m -16.04112,0.001 c -2.16028,-5.96781 2.31968,2.54661 0,0 z m 11.62007,-1.35014 c -1.10303,-7.52799 1.82006,2.30946 0,0 z m 13.92105,-2.60092 c 2.8854,-3.19613 2.3626,4.16083 0,0 z m -80,-1.48241 c 3.468,-6.05597 0.28228,2.62339 0,0 z m 25.56429,-1.79313 c 0.76769,-4.15207 2.2111,-1.08201 0.30091,0.59721 l -0.30091,-0.59721 z m 51.99458,-0.23867 c -9.34762,-5.17482 1.39706,-16.99354 7.39409,-6.4571 6.55335,9.93581 -15.63105,-2.32242 -5.11002,7.2558 -0.76136,-0.26623 -1.52271,-0.53247 -2.28407,-0.7987 z m 4.44113,-5.4682 c -2.36124,-5.09045 -3.37656,3.86604 0,0 z m 58.07895,5.58333 c -1.10305,-7.52809 1.82007,2.30947 0,0 z m -46.20651,-1.33333 c 0.59729,-1.96946 2.95826,5.23326 0,0 z m 6.53109,-0.0939 c 3.33755,-5.50682 14.79702,-0.8374 4.1519,0.46759 -1.32602,0.45134 -3.02755,0.51489 -4.1519,-0.46759 z m -35.93866,-1.21294 c -2.98651,-8.22301 6.94117,-2.5661 0,0 z m -37.13481,-1.3609 c -0.28367,-8.55394 7.19538,-2.86222 0,0 z m 113.66994,0.35872 c -4.61033,-1.45326 0.27166,-4.43063 0,0 z M 726.98913,278.248 c 3.12678,-5.41101 1.28787,2.50118 0,0 z m 122.37742,0.62409 c -1.15227,-8.29257 8.15439,-3.71689 0,0 z m -102.98373,-2.1039 c 2.13516,-8.24572 5.19125,-0.90371 -0.81681,1.62339 0.27227,-0.54113 0.54454,-1.08226 0.81681,-1.62339 z m 22.29389,-0.8552 c -10.74705,-1.14238 4.38109,-9.98281 2.25701,0.91136 -0.59518,1.18034 -2.46904,0.30233 -2.25701,-0.91136 z m -8.75424,0.79243 c -5.58815,-3.15507 3.72118,-1.07066 0,0 z m 39.33333,0.2833 c 2.13483,-4.05924 4.6758,2.43821 0,0 z m 46,-2.05761 c 0.51963,-8.52877 3.32017,4.17174 0,0 z m -58,-4 c 0.50112,-4.26921 2.85265,2.21905 0,0 z m 34.27083,-1.16319 c 2.62374,-2.19454 1.6324,2.07796 0,0 z m -22.77083,-2.39583 c 2.10493,-3.73295 1.82051,3.4542 0,0 z m 58.10301,0.16667 c 1.14386,-2.62916 1.00153,2.31417 0,0 z m -100.66215,-4.092 c 0.51252,-6.0362 7.59472,-9.50415 2.33162,-1.81248 -0.59382,1.00377 -5.16027,7.06468 -2.33162,1.81248 z m 8.05914,2.11646 c -2.59453,-7.41574 7.0541,-2.04938 0,0 z m -10,-8.69113 c 3.468,-6.05597 0.28228,2.62339 0,0 z m 74.18293,-0.57869 c -0.88624,-9.20449 12.83923,1.88464 1.57008,1.31623 -0.75359,-0.12988 -1.06235,-0.85116 -1.57008,-1.31623 z m 12.81707,-0.36229 c -0.2767,-3.99188 2.62735,1.33841 0,0 z m 11,-2.64496 c -0.71687,-3.66622 5.58462,5.58343 0,0 z m -95.36163,-2.41406 c -1.19907,-5.64211 2.74153,4.18619 0,0 z m -3.63837,-2.44098 c -0.31163,-6.61982 2.7756,1.90115 0,0 z m 9,-1.5 c -1.60691,-4.25083 1.70597,-1.98799 0.67608,0.42533 l -0.67608,-0.42533 z m 13.44113,-1.09082 c 4.57756,-6.12835 -0.29807,3.87248 0,0 z m 7.05887,-0.4682 c 1.41385,-4.28802 0.61807,3.81939 0,0 z m 2.5,-0.94098 c -0.31163,-6.61982 2.7756,1.90115 0,0 z m -20.813,-1.55902 c -4.05048,-6.61786 15.05907,-15.39805 5.94615,-5.28138 -1.40763,2.29938 -3.55894,4.07247 -5.94615,5.28138 z m 6.813,-0.45895 c -5.25308,-3.65986 6.12771,1.55923 0,0 z m 3.65371,-1.79234 c -0.32151,-7.23328 7.53471,0.6096 0,0 z m -20.65371,-0.64172 c 1.46563,-4.72276 5.0709,1.97479 0,0 z m 9,-1.54797 c -0.31163,-6.61982 2.7756,1.90115 0,0 z m 78,-3.05902 c 0.19268,-3.51841 3.92002,6.20018 0,0 z m -3,-3.55902 c 2.76737,-2.92478 -0.16793,3.69947 0,0 z m -3.72917,-0.0452 c 2.62387,-2.19465 1.6322,2.07829 0,0 z"
       id="path7357"
       inkscape:connector-curvature="0" />
    <path
       style="fill:#5c1508"
       d="m 775.2558,383.93144 c 1.95209,-4.0195 2.85605,3.44259 0,0 z m 8.81212,-2.8256 c -3.67365,-9.07528 -26.65184,5.97368 -18.52088,-9.68742 7.20524,-5.30789 29.15065,-0.94534 27.50316,-9.47467 -7.61091,11.3369 9.93251,9.7373 15.66159,15.01805 15.95964,3.69795 34.73172,-10.05314 32.97254,-27.18017 0.97157,-11.91791 2.93341,-24.03553 3.73522,-36.09474 2.39322,-8.79657 3.5117,9.0607 -0.0343,12.22859 -2.70082,13.92675 -3.02781,28.42066 -4.76213,42.6346 2.26607,14.7886 -14.91461,18.1585 -26.03425,15.7266 -9.84617,-3.63346 -23.00631,5.2134 -30.52095,-3.17084 z m -50.31212,-0.88226 c -9.33884,3.08959 -29.323,-2.80562 -21.87903,-15.48105 7.82455,8.79716 30.56571,11.82183 31.18787,-3.94489 1.39115,-11.92249 1.65926,-24.93585 3.2623,-36.24624 4.35939,14.27998 21.20795,6.33413 21.45623,-5.5678 0.67323,-11.60621 -9.56337,-23.89752 -1.39861,-34.60434 5.29985,-1.49759 -3.15868,13.8752 1.91049,17.94719 2.30846,12.60146 22.4108,12.60763 14.94828,-0.94261 5.76562,-0.32905 13.91961,5.24817 3.99132,7.30625 -16.30317,6.10347 -0.0704,22.26166 1.24322,32.72451 1.05418,15.51855 -14.52087,16.37006 -25.31748,19.28185 -12.05665,11.01339 -6.38053,-15.15894 -14.70131,-15.14 -9.92819,9.21505 9.86489,27.48577 -5.31226,35.25044 -2.9922,1.30958 -6.56184,0.98607 -9.39102,-0.58331 z m 6.10417,-6.58033 c -3.66199,0.66258 2.79208,2.15919 0,0 z m 24.39583,-17.20573 c 5.71321,-5.26064 -5.36489,-14.13669 -2.95135,-3.41488 -0.71401,2.75342 2.44003,11.0275 2.95135,3.41488 z m -5.47793,-1.86819 c -1.9006,-9.64776 -3.61282,9.11822 0,0 z m 17.06445,-4.80642 c 2.20459,-9.77834 -7.06934,6.50853 0,0 z m -15.92424,-3.64049 c -2.11969,2.14185 3.1021,2.08748 0,0 z m 10.8789,-3.5 c 4.4152,-12.73542 -9.11122,6.8065 0,0 z m -19.75175,-6.64914 c -3.5441,-3.84625 1.41622,3.42421 0,0 z m 10.21057,0.39914 c -2.33094,-4.88838 -2.21825,4.50938 0,0 z m 19.38436,-2.1809 c 8.47736,-9.75461 -17.42778,-10.05177 -7.11846,-0.71836 1.72977,2.15122 4.9252,1.83995 7.11846,0.71836 z m -16.03928,-39.36223 c -3.27141,-4.36391 1.06131,3.306 0,0 z m 86.32159,83.87646 c -7.11704,-9.41865 16.4395,-8.83368 3.80737,-1.28247 -1.14941,0.70446 -2.45203,1.19824 -3.80737,1.28247 z m -193.22554,-6.78766 c 8.32834,-0.86552 18.3942,-17.38062 25.31436,-7.45609 -5.0787,8.4387 -16.57598,9.82285 -25.31436,7.45609 z m 40.10079,-1.41359 c 10.27728,-9.38268 -10.73469,-15.08419 -6.56358,-10.80016 5.33645,-11.98865 14.00666,-22.57834 16.7634,-35.63785 7.82915,-9.11964 18.18681,-21.68392 24.20561,-28.92717 -6.61627,9.39249 -12.88672,19.03201 -20.89544,27.34755 -7.65078,6.27254 -5.71379,15.07616 -2.33187,22.02139 -2.14086,5.06864 -12.45219,18.08805 -3.64756,18.40319 13.67048,-12.3436 -2.80969,18.00006 -7.53056,7.59305 z m -43.54192,-3.23907 c -11.67194,3.57568 -17.02678,-12.54526 -6.52352,-13.73096 -4.64954,8.80067 5.28957,8.40287 6.52352,13.73096 z m 81.55577,0.19723 c -2.19883,-7.08174 6.71383,-1.43212 0,0 z m 139.47319,-1.05118 c -0.29502,-6.69436 4.14315,4.72976 0,0 z m 10.97104,-1.03906 c 2.33094,-4.88838 2.21825,4.50938 0,0 z m -5.25,-3.75823 c -6.82515,-8.02685 10.56481,4.08533 2.26517,1.05765 l -2.26517,-1.05765 z m -28.47504,-1.29833 c -8.22701,-2.61843 7.87988,-7.71011 1.32047,-0.85293 5.38641,0.22728 10.00277,1.4149 2.05706,2.9169 -1.3485,-0.0642 -2.89092,-0.66434 -3.37753,-2.06397 z m 14.99587,1.45239 c 2.62385,-2.19461 1.63222,2.07824 0,0 z m -1.73821,-2.34304 c 1.86189,-10.08778 8.97875,-0.25584 0,0 z m 8.46738,-0.12018 c -6.84221,1.14288 4.78663,-3.41966 0,0 z m -13.55279,-2.8472 c -4.494,-5.45519 5.34846,-1.74875 0,0 z m -62.44721,-4.52639 c -1.60692,-4.25084 1.70597,-1.98799 0.67608,0.42534 l -0.67608,-0.42534 z m 76.21057,-0.15754 c 2.05681,-4.52268 2.79462,3.95618 0,0 z m -17.93974,-0.006 c 2.62385,-2.19461 1.63222,2.07824 0,0 z m 12,-2 c 2.62385,-2.19461 1.63222,2.07824 0,0 z m -67.19054,-3.39548 c 2.76785,-6.76566 -0.49811,4.06976 0,0 z m -147.08029,-4 c 4.97165,-6.76649 -2.36763,5.02819 0,0 z m 5,-5.03752 c 2.85456,-3.31101 14.18618,-15.4748 12.35659,-11.82197 -3.98538,4.07652 -8.05912,8.07302 -12.35659,11.82197 z m 147,-1.90346 c -0.31163,-6.61982 2.7756,1.90115 0,0 z m -80.32575,-6.00199 c -0.53799,-8.20499 14.14651,-4.75976 4.20839,-0.32128 -0.86683,0.91779 -8.6378,3.33268 -4.20839,0.32128 z m 7.90075,-5.81537 c -5.61623,0.55009 2.70555,4.80111 0,0 z m -11.98304,2.25834 c 2.93341,-5.41812 -1.17696,6.32867 0,0 z m 0.38651,-7.46976 c 5.89201,-10.80136 -0.51383,8.53826 0,0 z m 7.42652,0.21976 c 2.12824,-4.2892 5.75896,-0.31218 0,0 z m -47.40499,-3.79408 c 3.63512,-5.58614 9.26053,-5.73717 1.81815,-0.53762 l -0.8509,0.46392 -0.96725,0.0737 z m 46.30607,0.75837 c 0.6353,-6.5148 2.65918,2.37542 0,0 z m 27.23664,-1.14519 c -1.20347,-5.41816 3.29684,2.73256 0,0 z m -8.73613,-3.37191 c 12.08048,-3.87773 -11.48438,-23.0694 4.46909,-17.61998 3.13613,4.77621 2.54114,16.77195 -4.46909,17.61998 z M 694.2558,305.3041 c 1.52459,-4.31167 10.08736,-8.21949 2.88588,-2.41399 l -1.40952,1.24593 -1.47636,1.16806 z m 105.50744,-2.36652 c 2.9598,-10.1847 13.53055,7.86694 1.55662,2.1277 -0.86942,-0.24651 -1.92898,-1.06532 -1.55662,-2.1277 z m 8.49256,-0.89849 c -1.27135,-8.22201 -4.92964,6.11173 0,0 z m 13.232,0.33333 c 0.37614,-7.79178 0.76135,6.96678 0,0 z m 25.41846,-3.25 c -1.40467,-5.84029 6.53463,-12.07414 2.58403,-2.91124 -0.34412,1.43506 -3.14107,8.5456 -2.58403,2.91124 z m -66.31921,-2.19639 c 3.24822,-4.52784 15.38973,2.26646 4.04346,1.0168 -1.39524,0.0883 -2.92868,-0.0682 -4.04346,-1.0168 z m 27.62642,-2.80361 c -1.36529,-5.10707 -15.4772,-9.00129 -3.78137,-6.79908 9.22646,-4.36834 23.27197,3.21755 8.37669,8.37401 -1.63948,0.0698 -3.4355,-0.32951 -4.59532,-1.57493 z m 4.53525,-4.73855 c -2.44684,-1.99594 -0.53628,3.35508 0,0 z m -18.05308,3.15251 c -8.03063,-6.99025 5.10314,1.01627 0.63325,0.66792 l -0.43801,-0.462 -0.19524,-0.20592 0,0 z m 66.21439,-2.37818 c 5.6162,-6.21966 8.00067,9.39161 0.52008,1.01265 l -0.52008,-1.01265 z M 736.2558,286.69486 c -0.32777,-5.88901 5.87298,-3.48917 0,0 z m 43.75606,-0.51575 c -13.49175,-5.35842 9.77798,-11.1953 3.25203,-1.21847 l -1.42315,0.84962 -1.82888,0.36885 z m 71.35994,-2.97336 c -5.10503,-8.73783 8.78574,-9.37202 0,0 z m -62.616,-0.83333 c 2.10493,-3.73295 1.82051,3.4542 0,0 z m -25.28839,-3.18051 c -10.15716,-3.41477 10.84262,-7.77648 0.74438,-0.24237 l -0.60535,0.1971 -0.13903,0.0453 0,0 z m -3.02828,-4.03616 c -4.32437,-0.0664 3.48709,1.7507 0,0 z m -98.9125,3.6125 c 2.62374,-2.19454 1.6324,2.07796 0,0 z m 79.45237,-0.74657 c 6.61071,4.57574 14.60202,-14.99244 13.46412,-9.3974 -2.73132,4.77143 -6.81466,11.96677 -13.46412,9.3974 z m 54.78733,-2.63762 c 2.62328,-6.74637 8.18461,8.38303 0,0 z m 62.96323,-4.12805 c -0.0377,-12.04088 7.16471,5.18353 -0.50416,2.35069 l 0.0752,-0.77413 0.42901,-1.57656 z m -57.94984,0.19177 c -8.14249,-2.07613 5.00805,-2.14138 0,0 z m 22.04554,-2.99861 c -6.13881,-1.05627 -6.59861,-7.3953 -0.45366,-1.91163 2.53983,-1.0303 2.43362,3.50437 0.45366,1.91163 z m 34.09721,1.25658 c -5.58815,-3.15507 3.72118,-1.07066 0,0 z m -93.96716,-1.67401 c -2.82462,-4.12478 2.97971,-1.38176 0,0 z m 88.33593,0.20549 c -1.27506,-8.45627 8.04143,-3.88347 0,0 z m -29.03544,-4.61636 c -5.39178,-5.06809 5.36409,-3.55814 0,0 z m -57.98315,-0.54811 c -0.29414,-5.32019 5.52029,-3.38754 0,0 z m 65.48158,-3.36338 c -14.56731,-10.96245 8.43686,-0.72388 0,0 z m -16.91433,-0.69552 c 1.29788,-5.5293 5.88958,1.90481 0,0 z m 40.4159,0.96555 c 2.32463,-4.54693 3.92522,3.5117 0,0 z m -92.96937,-1.10699 c -1.18828,-3.78338 4.38228,-2.11329 0,0 z m 81.51208,-0.4309 c -1.02591,-3.973 2.38865,-0.0515 0.81479,0.7796 l -0.81479,-0.7796 z m -59.54271,-0.93043 c -6.81157,0.31302 5.13481,-2.89343 0,0 z m 2.60618,-0.72258 c 1.25542,-8.0664 5.44308,5.23964 0,0 z m 71.39382,-1.3343 c -4.62303,-3.36614 3.29227,-4.72035 0,0 z m -77.43571,-1.78866 c 0.33813,-4.26267 2.16972,7.67878 0,0 z m -17.7346,-1.04313 c -0.88388,-7.60997 3.75373,1.09182 0,0 z m 70.04275,-2 c 0.59729,-1.96946 2.95826,5.23326 0,0 z m 18.26678,-0.28327 c -7.26983,-1.29235 -8.04124,-20.37751 -1.19272,-7.28914 0.78052,1.40901 6.81818,9.47781 1.19272,7.28914 z m -80.13922,-0.0642 c 8.37114,-4.58071 -12.66861,-7.81612 0.69944,-10.58569 5.20027,0.3767 2.54694,9.16368 -0.69944,10.58569 z m 5.07895,-1.31924 c -1.10304,-7.52807 1.82007,2.30948 0,0 z m 14.92105,-0.55195 c 3.28904,-2.98052 2.27275,4.42527 0,0 z m -12.3457,-2.28138 c 6.12188,-4.77061 6.69371,4.37619 0,0 z m 8.3457,0.37244 c 0.4817,-7.82198 7.30921,2.13742 0,0 z m 9.981,-0.59955 c 2.55296,-5.14064 0.27378,3.79367 0,0 z m -26.981,-7.46387 c 0.46715,-3.60896 2.28284,2.0279 0,0 z m 62.26945,-6.43206 c 4.39691,-9.33227 10.51146,5.20039 0,0 z m 10.73055,-9.62696 c -2.7631,-7.16115 4.57718,7.24901 0,0 z m -49,-6.38337 c 2.13483,-4.05923 4.67579,2.4382 0,0 z m 15,-5.61663 c 0.19268,-3.51841 3.92002,6.20018 0,0 z m 28.07895,0.41667 c -12.70285,1.30245 -1.32469,-9.67463 0,0 z M 711.2558,207.17196 c 2.39892,-6.22777 9.47816,1.32956 1.42881,0.95032 -0.56329,1.16119 -3.01146,0.97716 -1.42881,-0.95032 z m 74.89689,1.70046 c -7.30718,-8.90964 18.4954,-2.19376 3.78364,-1.57953 -1.21595,0.6386 -2.49679,1.1077 -3.78364,1.57953 z m -23.89689,-2.48696 c -6.80833,-4.0493 13.25615,-0.64955 0.57782,-0.0104 l -0.57782,0.0104 z"
       id="path7355"
       inkscape:connector-curvature="0" />
    <path
       style="fill:#0c0605"
       d="m 632.2558,366.50409 c 0,-5.95611 0,-11.91222 0,-17.86833 9.8578,2.38883 4.43376,-9.05556 0.30369,-10.97839 -1.28867,-11.94495 0.29392,-23.98017 -0.30369,-35.97792 0,-33.43567 0,-66.87135 0,-100.30703 91.66667,0 183.33333,0 275,0 -0.18277,22.61627 0.45117,45.24434 -0.48408,67.85053 -15.02788,-5.14455 -25.55719,-18.39599 -40.5728,-23.56558 -11.90435,-10.59039 -24.97052,-21.07327 -31.76449,-35.84685 -7.85877,-3.72349 -15.62407,12.6736 -23.96301,2.49011 -5.85008,-4.88076 -23.01202,-13.37709 -24.27357,-4.07301 11.68691,6.43426 -1.80841,10.87897 -8.31317,12.2095 -9.78105,7.2203 -21.59489,11.69407 -29.46811,21.21217 -10.36846,14.83158 -20.68326,-9.19262 -8.17047,-15.22304 8.29201,-7.1349 20.21291,-9.86478 26.58202,-19.1337 0.95759,-8.45356 -15.44135,-0.0221 -19.37545,2.61998 -8.28414,7.48496 -20.81461,14.44745 -25.74752,-0.1591 -5.59331,-8.67936 -11.21684,1.58594 -6.05548,7.48981 5.61238,16.48717 -13.3244,22.08104 -24.12713,28.50432 -18.72638,11.02776 -37.18703,22.64174 -54.56763,35.72233 3.82229,15.80991 22.86487,6.33155 33.8938,7.66685 13.28874,-0.14453 26.56679,-1.08307 39.86017,-0.76432 -22.95706,24.08634 -52.1548,42.87705 -68.94852,72.34169 -0.0766,10.32351 15.74562,4.01397 20.03452,11.79308 14.677,5.71267 23.48845,-17.90772 35.35456,-13.52075 1.51319,8.85725 5.17976,16.25704 12.64274,6.29224 -3.83992,12.70991 9.31112,14.96926 18.82733,15.78562 12.98894,3.9327 25.9803,-9.3958 18.78325,-21.93012 -3.04635,-5.34374 -3.55338,-15.64029 5.3782,-14.00404 -5.99386,11.48235 9.64495,21.72639 18.30074,12.84513 10.82315,1.95263 19.15431,-8.90453 16.96137,-19.00774 -2.33865,-9.00491 -14.30711,-22.44538 -2.71201,-29.2905 7.31046,-1.62435 8.58486,-8.41264 -0.73119,-7.21956 -8.81849,-3.49401 -0.20851,-5.29114 4.46335,-4.12947 6.38028,-3.78588 11.16861,-13.83792 19.29692,-6.43826 15.30222,3.94889 12.70493,22.07474 4.61842,31.58089 -7.59646,14.60882 -14.94479,29.49448 -23.49388,43.50845 -7.72856,5.95733 -29.31552,-5.10199 -25.69324,12.0492 4.9124,3.53782 18.94311,-6.27339 16.93398,4.36173 -46.44313,1.69942 -92.92261,0.72462 -139.38312,0.97079 -10.82792,4.21285 -9.34964,-7.83732 -9.0865,-14.62785 0,-1.07629 0,-2.15257 0,-3.22886 z m 176.59217,-62.20817 c 3.20924,-10.48049 -13.84389,4.11102 -1.82961,0.59325 l 1.82961,-0.59325 z M 858.2558,228.8134 c -2.17987,-1.50276 -0.0356,2.60543 0,0 z m -20.15395,153.80902 c 5.14794,-25.14201 4.58106,-51.21008 11.49641,-76.02856 -2.08906,-13.89525 6.1426,-27.14941 3.5506,-41.04213 11.51155,3.17197 0.25976,32.515 16.63329,23.30716 10.50798,-5.47252 27.45602,-6.11542 36.29475,0.25705 4.02838,13.58551 -0.96152,27.73082 1.12935,41.55195 0.0207,17.90149 0.15632,35.80308 0.0498,53.70453 -23.08158,-0.55923 -46.23684,1.23016 -69.25875,-1.13246 l 0.1048,-0.61754 -2.3e-4,0 -3e-5,0 z m 15.15395,-4.27475 c 11.88097,0.19029 -6.35,-13.56261 -1.35387,-3.25937 -0.67898,1.55852 -1.97689,5.43505 1.35387,3.25937 z m 25,-12.00663 c -2.26107,-7.68363 -5.80656,4.57593 0,0 z m 10,-0.96862 c -2.33094,-4.88838 -2.21825,4.50938 0,0 z m -22.96959,-3.80902 c 4.53392,-0.71275 7.25928,-8.16968 10.42632,-0.60442 11.86686,4.42092 5.94444,-10.85775 -2.26218,-10.48172 -7.23554,-3.97787 -30.66348,6.13819 -16.7811,12.11615 2.71273,0.89349 6.6439,1.75309 8.61696,-1.03001 z m -15.03041,-6.75 c -2.17987,-1.50276 -0.0356,2.60543 0,0 z m 18.1875,-13.12409 c -2.42572,-3.4689 -2.09842,1.96397 0,0 z m -1.1875,-4.42388 c -4.92346,-5.12732 -3.28527,6.82198 0,0 z m -162.55469,2.37503 c 1.11897,-17.70377 19.42206,-26.63767 25.39727,-42.25492 6.1468,-14.07685 21.79717,-20.84544 28.21894,-34.08387 1.56423,-4.53292 6.52394,-21.69474 11.60136,-13.86444 -0.1608,11.85734 -18.32146,23.17045 -4.72604,33.44697 0.26138,10.0768 -4.12013,20.00874 2.31498,29.38646 5.99375,13.73056 -15.3333,29.06708 -21.06877,11.90044 -3.41351,-9.91077 16.07883,-28.04427 0.19238,-31.10121 -13.30103,4.53277 -18.56379,18.99463 -25.7104,29.85358 -4.09999,6.57515 -9.01655,13.35552 -16.21972,16.71699 z m 54.55469,-25.958 c -5.39765,-3.61273 -1.18098,6.52114 0,0 z m 1.54112,-3.37657 c -0.62545,-5.07799 -1.39539,4.36409 0,0 z m -31.54112,18.06653 c 2.33094,-4.88838 2.21825,4.50938 0,0 z m -5.95487,-3.13367 c -0.55662,-8.59676 14.36744,-1.60326 3.85364,0.65862 -0.94655,1.21501 -5.57078,2.41205 -3.85364,-0.65862 z m 8.48039,1.17495 c -2.52502,-5.71373 5.54131,-0.008 0,0 z m 78.47448,-36.43429 c 1.46563,-4.72276 5.0709,1.97479 0,0 z m -32.73335,-3.63199 c -4.97867,-9.19224 8.63457,2.56134 0,0 z m -12.08001,-8.225 c 2.1261,-7.74381 1.18426,8.09935 0,0 z m -106.16313,0.40484 c 19.87614,-12.96123 40.51266,-24.69229 60.77464,-37.02785 12.92737,5.13293 16.76418,27.3037 2.82872,33.53276 -17.41727,6.02715 -36.05674,1.0531 -53.95487,3.55122 -3.21593,0.0496 -6.43427,0.0448 -9.64849,-0.0561 z m 137.29216,-4.23917 c -4.21366,-13.8449 9.37368,4.36208 0,0 z m 66.351,0.41766 c 0.24298,-5.67884 -8.76207,-24.82945 3.60521,-16.70951 6.01256,3.8341 23.05271,9.20299 19.08769,16.47268 -7.53628,0.67872 -15.15747,1.23536 -22.6929,0.23683 z m -73.47917,-5.39583 c 0.9171,-6.31615 4.85051,1.82651 0,0 z m 29.95574,-0.82781 c 2.83676,-4.93675 2.14714,5.28189 0,0 z m 5.60676,0.22803 c 0.20609,-10.37826 -12.63787,-11.71944 -13.50468,-3.36944 -16.24109,-4.46386 0.80021,-27.62282 10.89929,-14.52793 5.19736,3.83971 12.83847,14.81865 2.60539,17.89737 z m -45.75,-12.33772 c -1.83863,-4.99168 5.27755,3.67146 0,0 z m 8.49563,-0.007 c -4.0848,-4.13451 4.69378,-17.97541 6.05689,-9.04726 9.14104,3.56062 -1.02837,10.5523 -6.05689,9.04726 z m -10.74563,-3.38495 c -4.08813,-8.57991 10.12714,1.18988 0.38268,1.06142 l -0.21592,-0.59889 -0.16676,-0.46253 z m 59.98837,-6.69456 c -11.61185,-3.09213 -2.17279,-19.6091 5.01187,-9.44568 3.81896,4.2131 2.29629,14.81533 -5.01187,9.44568 z m -41.87204,-24.5453 c 6.64125,-3.13288 -3.54392,3.32031 0,0 z"
       id="path7353"
       inkscape:connector-curvature="0" />
  </g>
</svg>
