<?xml version="1.0" encoding="UTF-8" standalone="no"?>
<svg
   xmlns:dc="http://purl.org/dc/elements/1.1/"
   xmlns:cc="http://creativecommons.org/ns#"
   xmlns:rdf="http://www.w3.org/1999/02/22-rdf-syntax-ns#"
   xmlns:svg="http://www.w3.org/2000/svg"
   xmlns="http://www.w3.org/2000/svg"
   xmlns:sodipodi="http://sodipodi.sourceforge.net/DTD/sodipodi-0.dtd"
   xmlns:inkscape="http://www.inkscape.org/namespaces/inkscape"
   sodipodi:docname="serpentine.svg"
   height="100%"
   width="100%"
   inkscape:version="0.48.4 r9939"
   version="1.1"
   id="svg2"
   viewBox="0 0 512 512"
   inkscape:export-filename="C:\Users\Chris\Documents\GitHub\bot-game\assets\jet_pack.png"
   inkscape:export-xdpi="12.832031"
   inkscape:export-ydpi="12.832031">
  <sodipodi:namedview
     pagecolor="#ffffff"
     bordercolor="#666666"
     borderopacity="1"
     objecttolerance="10"
     gridtolerance="10"
     guidetolerance="10"
     inkscape:pageopacity="0"
     inkscape:pageshadow="2"
     inkscape:window-width="1185"
     inkscape:window-height="1030"
     id="namedview44"
     showgrid="false"
     inkscape:zoom="0.50339926"
     inkscape:cx="424.6331"
     inkscape:cy="344.08636"
     inkscape:window-x="100"
     inkscape:window-y="100"
     inkscape:window-maximized="0"
     inkscape:current-layer="svg2" />
  <metadata
     id="metadata48">
    <rdf:RDF>
      <cc:Work
         rdf:about="">
        <dc:format>image/svg+xml</dc:format>
        <dc:type
           rdf:resource="http://purl.org/dc/dcmitype/StillImage" />
        <dc:title></dc:title>
      </cc:Work>
    </rdf:RDF>
  </metadata>
  <defs
     id="defs46">
    <linearGradient
       id="linearGradient3926">
      <stop
         style="stop-color:#ffffff;stop-opacity:0;"
         offset="0"
         id="stop3928" />
      <stop
         id="stop3934"
         offset="0.5"
         style="stop-color:#ffffff;stop-opacity:0.49803922;" />
      <stop
         style="stop-color:#ffffff;stop-opacity:0;"
         offset="1"
         id="stop3930" />
    </linearGradient>
    <filter
       color-interpolation-filters="sRGB"
       inkscape:menu-tooltip="Increase or decrease lightness and contrast"
       inkscape:menu="Color"
       inkscape:label="Lightness-Contrast"
       height="1"
       width="1"
       y="0"
       x="0"
       id="filter3108">
      <feFlood
         flood-color="rgb(0,0,0)"
         flood-opacity="1"
         result="result1"
         id="feFlood3110" />
      <feBlend
         result="result2"
         mode="normal"
         in2="SourceGraphic"
         id="feBlend3112" />
      <feComposite
         result="result3"
         operator="arithmetic"
         k2="1"
         in2="SourceGraphic"
         id="feComposite3114" />
      <feComposite
         operator="in"
         in2="SourceGraphic"
         id="feComposite3116" />
    </filter>
  </defs>
  <rect
     y="-0.49661246"
     x="-0.23969027"
     height="518.513"
     width="516.97894"
     id="rect3171"
     style="opacity:0.98999999;fill:#000000;fill-opacity:1;fill-rule:nonzero;stroke:none" />
  <rect
     style="opacity:0.98999999;fill:#ffffff;fill-opacity:1;fill-rule:nonzero;stroke:none"
     id="rect3156"
     width="76.367531"
     height="57.982758"
     x="-94.752312"
     y="319.66696" />
  <g
     id="g3971"
     transform="matrix(-1,0,-0.25167528,1.2855073,1320.3585,-252.07733)">
    <path
       style="fill:#d9cbac"
       d="m 948.10358,543.91813 c -13.45999,0.48075 -14.42402,-16.22209 -17.08689,-21.29874 -57.4659,0.75496 -114.85736,3.91302 -172.29074,5.51976 -17.95071,-1.88863 -38.76646,4.45514 -55.0116,-3.56459 4.76007,-13.93195 28.9754,-10.36483 41.93759,-16.79843 69.75535,-19.8628 142.58791,-22.11917 214.13733,-30.97405 13.62498,-4.88291 21.98471,-27.23444 16.40625,-40.269 -7.84896,-18.35689 10.39513,-32.28298 6.1022,-49.88583 1.91833,-18.47011 -10.48507,-30.79701 -16.18516,-46.25768 -3.36092,-17.1593 -21.70458,-28.85596 -18.43203,-48 -1.7714,-20.53201 15.0464,-36.52639 29.73835,-48.08357 7.96375,-5.00131 15.93094,-10.97882 24.57322,-14.40085 14.6142,0.43345 29.4857,-0.77886 43.9413,0.66836 11.2265,4.26592 23.0509,6.06405 34.7296,8.24561 12.7815,7.75052 19.1515,27.65153 13.0796,41.47711 -3.2798,5.13854 -5.3651,25.95754 -9.808,17.54654 -5.2845,18.12663 -10.1364,37.26422 -21.4991,52.43013 4.1749,14.69993 9.719,28.89219 12.8976,44.09966 0.3855,17.2254 3.0335,33.48301 1.661,51.04542 1.6135,13.024 -13.6988,32.11763 7.5338,34.54531 11.7457,11.50537 24.9181,25.56672 19.7217,43.71516 -9.8836,14.83169 -31.7183,11.20128 -47.4225,13.87556 -20.501,-0.46801 -39.8832,7.16988 -60.36714,6.81527 -16.09337,0.31704 -32.31459,1.0336 -48.35638,-0.45115 z m 112.00002,-35.08758 c -2.596,-5.23048 -1.7972,6.45154 0,0 z m 4.9847,-194.25 c -2.5375,-15.96524 -3.4584,13.17839 0,0 l 0,0 z m 12.6195,-29.42015 c -1.9472,0.72002 1.3783,4.68962 0,0 z"
       id="path3997"
       inkscape:connector-curvature="0" />
    <path
       style="fill:#a9a094"
       d="m 965.60358,543.9262 c -14.06535,1.48678 -37.03085,-2.80779 -31.25,-22.03663 -73.10212,0.0529 -146.04835,6.44469 -219.16465,5.48069 -11.65976,3.37832 -14.1195,-11.76469 -0.17888,-10.75394 30.63703,-6.66533 60.34892,-17.30118 91.59353,-21.15214 51.33465,-8.30435 103.30575,-12.27899 155.01382,-17.1018 12.71373,-8.98575 22.23483,-29.48765 14.88778,-44.1464 -5.88694,-17.87288 11.97226,-30.7645 6.36926,-48.06855 2.65255,-20.3032 -12.74962,-32.17868 -16.68441,-49.98005 -8.82518,-16.68776 -22.01806,-33.01213 -17.05723,-53.41994 7.94788,-24.07967 29.55027,-40.11371 51.3845,-51.08108 11.1702,-1.87111 23.3206,-0.0611 34.8,-0.66294 16.3729,1.64848 32.8653,6.12692 48.4982,10.82012 12.8599,12.69513 15.3381,34.85698 2.91,48.61676 -10.146,15.35331 -9.2167,35.71601 -19.7802,51.28737 -15.2245,7.96171 0.8211,21.1677 0.4548,33.03378 6.0566,9.51135 2.8428,10.60685 2.7035,15.12817 10.1465,12.63561 -1.3719,23.92551 6.6904,38.04239 -0.2159,16.1825 -4.6814,31.78202 -5.6904,47.75894 11.267,2.16723 20.0326,12.63824 27.3623,22.19867 12.4982,15.97517 2.0654,39.98241 -20.3595,36.63621 -20.7631,2.94613 -42.06,1.77638 -62.3263,7.48803 -16.67936,1.74099 -33.40574,2.86443 -50.17652,1.91234 z m 96.50002,-20.53663 c -2.8443,-4.82663 -2.5906,4.95604 0,0 z m 10.25,0.10795 c 10.5843,-11.70962 -12.101,6.91179 0,0 z m -6.25,-8.7108 c -2.2039,-5.85459 -6.9795,-18.02785 -9.84,-3.24646 -6.3315,15.44066 7.3022,-6.59625 7.5417,7.13868 1.7849,3.66888 2.8991,-4.31054 2.2983,-3.89222 z m 28.3209,-4.67975 c 1.1651,-16.48472 -10.3886,4.81203 -1.0409,6.72051 0.9229,-2.12427 0.9171,-4.46075 1.0409,-6.72051 z m -18.3677,2.15548 c 3.2229,-6.33768 7.0072,-13.43025 -2.2374,-6.10682 1.6382,4.45645 -6.3803,15.67939 2.2376,6.10682 l -2e-4,0 z m 8.0468,2.12712 c -4.5547,-5.59559 -2.3929,5.11715 0,0 z m 2,-7.35902 c 5.2423,-15.61265 -6.7552,8.06542 0,0 z m -16,-4.29597 c -3.0652,-3.20332 -4.4807,9.31465 0,0 z m -134.03637,-6.30121 c 1.05993,-10.20356 -9.61929,5.44097 0,0 z m -93.96365,-2.00862 c -5.06586,-5.96401 -5.62888,2.56744 0,0 z m 156,-93.5942 c -2.79681,-6.65979 -1.81076,8.01216 0,0 z m 68.52172,-85.4987 c 2.8219,-7.0772 -10.6405,-24.65332 -4.7936,-7.71546 -4.043,6.42823 -2.5504,25.92061 4.7936,7.71546 z M 1078.2309,291.72 c 5.1191,-9.12866 -2.4704,-15.70805 -3.0731,-2.75167 -0.3993,4.61829 0.5168,14.63975 3.0731,2.75167 z"
       id="path3995"
       inkscape:connector-curvature="0" />
    <path
       style="fill:#d1a35c"
       d="m 961.10358,542.89873 c -15.33526,2.33212 -28.94411,-6.63055 -28.8779,-21.27639 -68.81795,-0.53844 -137.52,5.41821 -206.33814,5.52849 -9.62606,3.29324 -31.70791,-5.71317 -11.0874,-9.79551 29.39753,-6.43728 57.88776,-16.57159 87.87844,-20.23461 14.49803,-5.50662 31.37996,-1.0297 44.3444,-3.38496 -12.97101,-3.94695 17.6368,-4.39328 22.19806,-5.96053 30.9377,-2.60411 61.82741,-6.07161 92.74473,-8.73994 12.52772,-7.07385 14.80425,-22.76701 19.39979,-35.31629 -6.84997,-12.22105 -6.31594,-28.74454 2.18733,-40.07386 0.3916,-15.81367 0.80291,-33.89104 -7.04365,-48.13909 -11.601,-12.67337 -12.41634,-32.28172 -24.46245,-45.70405 -5.52502,-16.57029 -3.31285,-36.22456 10.15649,-48.46929 10.69882,-13.13205 25.15884,-23.24051 40.40662,-29.92818 19.8341,0.74398 40.2402,-1.54939 59.1125,5.93282 17.7996,-0.93335 32.8982,10.8542 31.8916,29.57612 2.052,17.41352 -16.1626,28.80839 -15.9742,46.53387 -0.271,15.85434 -17.802,27.92094 -16.8931,40.9403 6.8185,12.65735 7.8986,27.47323 11.072,39.88372 5.2112,12.23333 -3.0044,21.18208 4.363,34.43537 1.3264,17.1547 -7.289,33.87089 -3.7228,50.5667 6.0839,-1.76904 25.0964,10.01194 13.3955,16.13812 -7.6485,-0.63353 6.8075,5.35299 8.0972,0.0655 12.9223,10.64044 13.015,39.09046 -9.2748,37.54709 -18.0436,2.81657 -36.3739,3.68215 -54.5705,4.45272 -16.4092,6.32407 -34.74002,5.52245 -52.11769,6.07556 -5.63095,-0.14311 -11.25793,-0.4073 -16.88503,-0.6537 z m 101.00002,-19.50916 c -2.8443,-4.82663 -2.5906,4.95604 0,0 z m 10.25,0.10795 c 10.5843,-11.70962 -12.101,6.91179 0,0 z m -6.25,-6.60187 c 0.9938,-8.72033 8.9673,-19.13753 -2.7927,-13.27433 -8.5084,-6.57184 -12.8963,24.74579 -2.5512,10.14304 3.4164,-0.17268 2.8872,10.52893 5.3439,3.13129 z m 28,-2.34259 c 5.1585,-6.20816 0.052,-22.10617 -4.6032,-7.30897 -1.1961,1.87606 3.8407,15.41762 4.6032,7.30897 z m -19.0369,-0.0663 c 2.9172,-7.00006 11.4499,-16.11962 -1.0448,-8.34025 0.9975,2.0979 -7.4679,16.29773 1.0448,8.34025 z m 9.0369,-0.56581 c -3.903,-5.62802 -2.2255,6.2722 0,0 z m 3,-6.95382 c 6.3226,-16.06335 -11.4603,5.69186 -0.4201,1.53346 l 0.4201,-1.53346 0,0 z m -156.00002,-4.07756 c -4.68376,-4.39483 -1.93482,4.0592 0,0 z m 136.99222,-6.19098 c -3.5786,-4.82919 -7.0604,7.85969 0,0 z m -131.92648,1.1558 c 8.35463,-16.34494 -17.05064,1.79624 0,0 z m 140.48948,-8.02587 c 3.6013,-11.14752 -5.3016,-5.88849 -2.5435,2.06105 l 2.5435,-2.06105 0,0 z m -9.3052,-0.331 c 5.0526,-7.71512 -9.1523,4.06181 0,0 z m -68.54904,-90.00501 c -4.71013,-5.69119 -1.77883,10.88572 0,0 z m 68.66064,-66.10294 c -0.3351,-5.4929 -2.9626,5.18101 0,0 z m -6.3616,-5 c 2.1108,-11.33633 7.2457,-5.91179 7.4079,0.80879 3.1935,-12.18075 -4.7571,-22.97382 -3.3815,-34.64094 -9.9169,1.50875 -3.2477,21.29902 -6.3195,31.64592 -3.0211,2.7973 -21.4561,-18.86906 -10.0623,-2.41154 1.9861,2.35678 12.435,13.5314 12.3554,4.59777 z M 1040.902,314.686 c -6.1324,-4.79763 2.1082,-16.76682 -6.4392,-23.01692 0.7042,4.99661 -3.1676,28.65844 6.4392,23.01692 z m 38.006,-22.79582 c 5.7892,-9.08318 -4.1069,-16.78438 -4.5908,-3.38208 -0.9915,8.06168 1.4019,19.5232 4.5908,3.38208 z"
       id="path3993"
       inkscape:connector-curvature="0" />
    <path
       style="fill:#a38d65"
       d="m 961.10358,542.89873 c -15.87163,2.76441 -28.08073,-7.24909 -28.91101,-21.2812 -69.53503,-0.54575 -138.9492,5.57319 -208.4859,5.51812 -9.95932,3.26121 -28.25849,-6.63995 -8.90653,-9.78033 29.39753,-6.43728 57.88776,-16.57159 87.87844,-20.23461 14.49803,-5.50662 31.37996,-1.0297 44.3444,-3.38496 -12.97101,-3.94695 17.6368,-4.39328 22.19806,-5.96053 30.9377,-2.60411 61.82741,-6.07161 92.74473,-8.73994 12.52772,-7.07385 14.80425,-22.76701 19.39979,-35.31629 -6.84997,-12.22105 -6.31594,-28.74454 2.18733,-40.07386 0.3916,-15.81367 0.80291,-33.89104 -7.04365,-48.13909 -11.601,-12.67337 -12.41634,-32.28172 -24.46245,-45.70405 -3.3219,-9.57603 -2.83284,-20.46435 -1.95216,-30.2909 10.40833,-20.74379 28.35107,-36.54611 48.99462,-46.68073 7.29275,-3.13082 16.09785,-0.40556 24.01435,-1.12132 17.4595,-2.00246 33.452,5.32614 50.3816,7.5545 17.359,1.36187 21.4704,22.33657 20.2352,36.92664 -11.9822,15.34709 -14.5329,34.66109 -21.4716,52.33174 1.9478,13.9286 -27.0348,20.17517 -10.8886,28.67837 8.5957,13.33518 -14.37,-10.0142 -14.0214,-1.05816 8.2141,4.72745 9.7155,9.32077 2.2501,10.42854 13.0491,3.95736 23.5361,10.99706 18.3769,24.60699 5.5685,5.09606 11.6825,17.79983 -0.7966,19.77646 12.6548,4.63266 7.0618,28.4528 7.0929,42.06922 -5.9546,6.60282 -3.9178,20.89499 -5.5739,28.5661 4.2645,-6.44678 5.0386,0.21549 12.6429,-0.33173 9.1208,1.07461 10.1587,17.12011 2.053,14.15194 6.3942,6.3525 12.341,-5.07361 16.5736,7.28415 1.6842,6.83591 5.333,18.39615 -1.8541,13.07076 -3.4329,8.3211 10.6118,9.84857 -3.7227,14.72177 -20.7553,6.18329 -42.871,5.48576 -64.2751,6.99054 -16.4091,6.32408 -34.73994,5.52245 -52.11761,6.07556 -5.63053,-0.1431 -11.25937,-0.40733 -16.88461,-0.6537 z m 85.21352,-14.75916 c 12.8053,-26.81373 -13.6675,6.38592 0,0 z m 8.6768,-2.5 c -0.013,-7.88713 11.2445,-17.37623 4.9105,-3.69443 -3.0238,10.34333 34.6651,7.86802 23.7202,-9.64544 -7.6426,-1.53046 1.0993,12.40332 -7.0818,7.1774 -2.5904,-7.95434 12.0347,-23.16597 -2.7794,-13.89465 -0.9585,3.83588 -8.6531,26.54352 -7.0681,9.65937 1.5804,-8.44374 7.4224,-16.99796 -3.3847,-11.6205 -9.3891,-3.56391 -10.093,16.35789 -13.2011,22.51825 0.1681,3.09482 4.4763,1.56884 4.8844,-0.5 z m 36.6139,-0.75 c 7.2136,-6.0336 4.3801,-36.85947 -2.2408,-15.72646 8.4123,7.15141 -11.4858,17.4497 2.2408,15.72646 z m -138.50422,-5 c -2.39488,-3.99516 -1.59482,3.71895 0,0 z m -9,-8.5 c -4.03878,-6.04498 -3.53498,5.84009 0,0 z m 143.00002,-4.42244 c 6.3226,-16.06335 -11.4603,5.69186 -0.4201,1.53346 l 0.4201,-1.53346 0,0 z m -156.00002,-4.07756 c -4.68376,-4.39483 -1.93482,4.0592 0,0 z m 136.99222,-6.19098 c -3.5786,-4.82919 -7.0604,7.85969 0,0 z m -131.92648,1.1558 c 8.35463,-16.34494 -17.05064,1.79624 0,0 z m 140.48948,-8.02587 c 3.6013,-11.14752 -5.3016,-5.88849 -2.5435,2.06105 l 2.5435,-2.06105 0,0 z m -9.3052,-0.331 c 5.4407,-6.96454 -9.4792,3.70244 0,0 z m -71.0779,-49.95533 c -1.914,-7.47562 -5.66655,14.6815 -0.97323,2.03909 l 0.97323,-2.03909 z m 0.82788,-7.03018 c -3.37029,-9.95698 -6.51223,6.8423 0,0 z m -0.0325,-13.56175 c -3.57931,-4.79915 9.12352,-7.97451 -1.32395,-7.74671 -4.28809,1.34424 -4.34728,14.18635 1.32395,7.74671 z m 1.3714,-17.18532 c -4.34623,-12.00974 -5.03295,17.90343 0,0 z m 1.66112,-9.51925 c -6.7583,-3.63482 -4.06124,-21.86038 -5.7185,-4.88396 -0.66782,3.82846 3.27931,12.59473 5.7185,4.88396 z m 62.4899,-6.37243 c -3.9448,-2.2407 -2.0494,3.71835 0,0 z m -1.4899,-5.51581 c 1.4621,-12.35644 -28.5978,-10.90463 -9.9739,-5.87636 0.065,7.20677 2.7753,7.29148 9.9739,5.87636 z m -16,-22.30306 c -6.1859,-11.04132 -8.2467,9.04264 0,0 z m -51.55281,-5.25023 c -4.90958,-2.24102 0.047,5.06748 0,0 z m 46.55281,-11.87941 c -7.183,-8.42695 -10.5174,2.18995 0,0 z m 28.9549,-18.22616 c -0.1803,-9.0689 -4.8216,-22.54871 -4.4873,-28.63806 -11.5748,6.92312 -0.317,22.77914 -6.7176,33.81642 -4.2521,-4.79721 -19.8783,-17.57921 -9.1054,-4.08515 5.1769,7.84241 14.1719,11.20523 14.3554,-0.90223 8.5278,-7.63509 0.7462,21.99097 5.5117,5.41578 l 0.3152,-2.77206 0.128,-2.8347 0,0 z M 1040.902,314.686 c -6.1324,-4.79763 2.1082,-16.76682 -6.4392,-23.01692 0.7042,4.99661 -3.1676,28.65844 6.4392,23.01692 z m 38.006,-22.79582 c 5.7892,-9.08318 -4.1069,-16.78438 -4.5908,-3.38208 -0.9915,8.06168 1.4019,19.5232 4.5908,3.38208 z"
       id="path3991"
       inkscape:connector-curvature="0" />
    <path
       style="fill:#956a55"
       d="m 965.60358,542.92397 c -13.09166,0.84992 -33.38338,-1.14622 -30.55623,-19.06438 -1.55439,-6.75869 -15.00866,-0.8438 -20.8349,-2.847 -53.09195,0.66644 -106.07096,4.33126 -159.13129,5.7016 -15.45289,-2.44283 -38.40581,5.78597 -49.39796,-5.15695 13.00418,-7.18161 29.51489,-7.01376 43.63826,-12.07849 24.8985,-7.24649 50.66872,-12.65742 76.58393,-15.77881 10.5577,1.60053 23.91559,3.13723 19.44819,-2.85428 39.15223,-4.47155 78.41947,-8.13397 117.66407,-11.42882 12.11739,-10.50908 21.80781,-30.32508 14.53088,-46.07869 -5.35256,-16.71433 11.33619,-28.78271 6.60052,-44.9938 0.38896,-17.28165 -6.12688,-31.78208 -15.22095,-45.21689 -2.67705,-18.92511 -21.82792,-31.58227 -19.72472,-51.90272 1.08028,-20.27267 17.18803,-36.18992 32.49641,-47.64004 8.47896,-3.58951 15.82859,-12.18092 25.44421,-11.6382 17.982,0.44207 36.5089,-1.8142 53.534,5.38047 19.1458,-0.97868 34.3319,12.7234 32.8808,32.19184 -4.7443,16.82886 -16.1847,32.77921 -18.9765,51.4241 -2.4172,9.19469 -6.1282,15.48671 -5.2109,1.88955 -0.3837,-10.48992 1.3971,-34.78254 -7.0998,-36.08012 -0.1501,9.68915 -8.5211,12.72232 -1.6078,22.00448 -5.0397,4.70166 1.534,27.28954 -7.1068,12.47899 -0.7844,-9.41729 -9.3605,-2.06365 -12.2347,-12.17204 -0.3912,-7.68911 -9.7675,-29.26108 -7.2552,-10.10618 -5.0741,17.10432 11.736,23.08342 20.6154,31.76534 9.9712,9.00692 8.8861,-17.97855 11.3173,-1.51252 0.8433,7.90503 3.461,11.18409 -6.8626,17.84142 -12.6968,2.53743 12.3004,18.58319 -0.011,12.39857 -3.9352,-6.06457 -19.3705,-7.1668 -7.5435,0.46549 6.276,4.36448 4.2102,4.80219 -2.8346,6.1009 11.1324,4.35952 25.184,10.51472 17.8925,24.80969 8.723,7.15056 11.7725,21.24492 -3.5375,17.55507 13.6859,9.62917 11.8784,21.12042 10.5206,34.22712 -1.3892,14.21431 -3.8544,28.50783 -7.9443,42.21751 -2.5369,6.83249 -5.1511,16.78564 1.4236,16.44098 -3.9163,2.45658 -12.5537,2.31288 -14.4793,11.60301 -0.5235,4.23689 -4.5719,18.19098 -3.2097,4.31073 -10.853,6.26096 -12.0787,16.99792 1.3164,10.33003 6.1475,0.1407 13.5191,-21.99556 8.0464,-5.28671 0.6612,8.41593 27.9767,8.66176 26.9828,-5.15687 -0.4008,-15.30724 8.7863,2.19585 0.3434,5.66911 7.9611,13.03294 10.9231,-22.76555 12.7726,-8.73998 -4.2673,8.15541 8.209,14.27789 -7.0634,16.75527 -24.1553,7.12867 -50.1692,2.69166 -74.1986,10.14524 -17.2687,1.86963 -34.64341,3.00323 -52.01042,2.02698 z m -12.5,-23.0344 c -2.39488,-3.99516 -1.59482,3.71895 0,0 z m -9,-8.5 c -4.03878,-6.04498 -3.53498,5.84009 0,0 z m -5.79603,-8.70397 c 11.90605,-10.90271 -12.68808,-19.06531 -7.41465,-4.56192 15.46669,2.22456 -15.19162,4.78166 2.45627,6.38364 l 2.89318,-0.65223 2.0652,-1.16949 z m -13.95397,-2.2127 c -2.17813,-4.48568 -2.80389,4.15814 0,0 z m 39.23992,-17.59964 c -3.94468,-2.24072 -2.0495,3.71836 0,0 z m 32.6822,-43.33107 c -1.914,-7.47562 -5.66655,14.6815 -0.97323,2.03909 l 0.97323,-2.03909 z m 0.82788,-7.03018 c -3.37029,-9.95698 -6.51223,6.8423 0,0 z m 1,-9.12244 c -2.53031,-5.20727 -2.03781,5.01988 0,0 z m -0.4288,-4.92764 c 11.31132,-12.10573 -12.80225,-7.40443 -2.77874,2.30563 1.46298,0.50556 2.62115,-1.06093 2.77874,-2.30563 z m 0.95768,-14.29571 c 5.30214,-11.03572 -4.30536,-17.2482 -3.68096,-25.63406 -0.31909,8.86801 -1.28402,23.43249 1.71147,28.95393 l 1.96944,-3.31987 5e-5,0 z m 63.72114,-17.69332 c -2.1781,-4.48568 -2.8039,4.15814 0,0 z m -1.25,-6.11545 c 1.4621,-12.35644 -28.5978,-10.90463 -9.9739,-5.87636 0.065,7.20677 2.7753,7.29148 9.9739,5.87636 z m -16,-22.30306 c -6.1859,-11.04132 -8.2467,9.04264 0,0 z m -50.71289,-4.45663 c -6.63671,-8.28948 1.02951,9.324 0,0 z m 46.71289,-12.6227 c -6.6661,-8.15676 -15.6078,-5.43918 -3.7324,0.46081 0.9677,0.0734 3.2241,1.13888 3.7324,-0.46081 z m 36.46,-42.83735 c 4.1393,-5.95966 5.1276,-28.41566 -3.3108,-13.19354 -0.7561,4.37032 -0.999,29.34591 3.3108,13.19354 z m -31.71,-16.51816 c 3.0273,-6.98277 -8.845,-12.47354 -3.6983,0.5878 0.6048,4.65882 1.5977,-1.47844 3.6983,-0.5878 z m -39.3884,-5.22998 c 15.536,-0.57734 -2.0023,-19.80762 -1.7616,-5.2316 -6.695,0.12026 -0.9739,9.95199 1.7616,5.2316 z m 31.6384,-2 c -2.7775,-6.88045 -2.0571,6.65553 0,0 z m 31.75,-8.75 c -3.343,-3.82441 -3.1009,4.63961 0,0 z m -9.75,-1.75 c -3.6822,-4.02435 -3.8364,3.91193 0,0 z m -15,-7.58333 c -2.8753,-4.35868 -3.4736,5.27229 0,0 z m -19,-5.41667 c -2.6925,-4.02999 -2.3567,3.89339 0,0 z m -3,-7 c -2.6925,-4.02999 -2.3567,3.89339 0,0 z m -17.25,-5.04655 c 11.6714,-12.22973 -14.65463,6.81294 0,0 z m 11.7693,-3.51416 c -10.2005,-3.86029 -0.3423,6.08213 0,0 z m 49.0465,286.66726 c -0.5637,-9.82078 5.8123,1.13695 0,0 z m 10.008,-4.87275 c 0.5622,-12.38392 8.2768,-11.52308 2.8592,-1.71231 6.7422,3.64834 -6.4092,9.2241 -2.8592,1.71231 z m -9.5738,-2.67478 c 2.4444,-9.73421 3.2885,6.36956 0,0 z m 3.2,-5.75902 c -3.3121,-7.90881 6.9156,3.92766 0,0 z m 29.8,-0.24098 c -8.153,-2.82831 -0.8717,-16.66244 0.4381,-2.32596 1.6311,-0.0552 0.4483,5.9723 -0.4381,2.32596 z m -28.2671,-6.30902 c -7.4439,-4.16117 -3.8814,-19.62759 -0.077,-8.25 10.6413,-1.09013 3.7908,-11.01091 8.6265,-12.21844 3.6343,3.3299 12.5224,5.9222 6.8403,13.21844 -7.6436,-0.16975 3.9221,-12.75093 -6.3682,-4.56694 -5.9514,3.89131 -11.1043,7.94428 -0.1735,6.12879 13.8892,6.42475 -6.8642,6.37608 -8.8478,5.68815 z m 17.5747,-0.89065 c 3.0681,-12.83049 8.7189,1.63825 0,0 z m -20.4468,-15.28506 c -3.0734,-10.0474 10.6012,5.86864 0,0 z m -3.3296,-184.36742 c -3.0223,-14.20869 4.1025,6.86202 0,0 z"
       id="path3989"
       inkscape:connector-curvature="0" />
    <path
       style="fill:#666251"
       d="m 966.10358,542.90158 c -13.96607,1.08556 -34.58671,-2.21835 -30.49609,-20.90004 -5.06417,-3.32744 -16.90084,0.15418 -24.01107,-0.98416 -66.89004,1.06872 -133.69977,7.03694 -200.61707,4.85651 -12.90721,-8.21951 17.32303,-8.52523 22.87773,-12.23292 17.01408,-1.33853 32.4236,-8.95689 49.10475,-12.6105 15.81704,-2.93637 31.82655,-6.88232 48.0097,-7.31102 10.91694,6.24388 16.18553,-0.39076 14.7202,-2.59989 34.06301,-5.14911 68.41644,-6.31445 102.4994,-10.65093 9.89098,2.15371 18.7713,-0.23994 23.49141,-10.0051 11.66168,-14.02309 8.00194,-31.78697 7.42104,-46.57396 -1.41252,-13.37916 11.33415,-25.40364 4.90863,-40.24274 2.27309,-18.95014 -12.25808,-29.65475 -15.87742,-46.01797 -7.4603,-17.76703 -23.51313,-34.21204 -16.84173,-55.27161 4.86121,-13.13583 14.13721,-23.68884 23.89745,-34.02589 10.36924,-5.07262 17.29314,-8.89496 26.54719,-16.16167 19.7497,0.64477 40.1863,-2.59892 58.9579,5.16284 19.2444,-0.97213 33.8509,12.55201 32.6315,31.77531 3.2093,12.84423 -11.0232,14.33136 -16.7487,10.82201 -8.5503,1.65025 -2.2389,25.37227 -2.0013,31.28765 9.9668,-24.58842 -3.8252,31.09909 -3.8243,6.4576 -0.1044,-12.46645 -3.6261,-29.24814 -1.2374,-39.71947 -2.7214,9.8367 -13.8929,-7.78182 -9.94,6.85379 7.7568,11.60486 -13.8043,6.58492 -1.6835,18.07975 5.6299,17.23441 -13.1396,-2.4681 -12.5903,-10.48225 -4.7513,-9.20952 15.873,-15.87971 -1.5316,-19.37464 -16.1708,-9.65761 -2.9016,15.04813 -14.35,15.17302 0.2629,-6.68133 -1.648,-29.23442 -3.9745,-10.73954 -0.5589,16.83701 5.6517,32.29277 15.0678,45.7779 9.0871,-2.71444 -0.853,6.44776 8.3507,4.04638 -3.8329,11.53815 21.8318,-1.84772 15.6779,14.37288 -9.1948,4.94903 -13.0997,10.82962 -3.1231,16.71709 4.918,8.82914 -14.781,-10.60012 -14.0802,-2.23826 8.2141,4.72745 9.7155,9.32077 2.2501,10.42854 13.9435,2.48125 20.6587,13.23422 16.8263,25.55513 13.389,8.25977 4.0022,17.17611 -3.6932,16.48388 10.5723,7.87481 13.0288,19.96 10.1025,31.76791 -1.0668,14.48619 -2.6562,29.17369 -7.1615,42.65522 -2.4547,17.73852 -15.3544,31.16034 -27.0752,44.22443 -2.8291,7.86069 15.9447,-2.48493 20.0328,-1.01351 11.6238,1.85101 27.3504,0.87979 36.3789,-4.94288 3.2672,-7.63141 9.9497,10.55212 -3.1264,8.92117 -20.5506,6.60024 -42.4846,4.49403 -63.5337,7.45541 -16.3047,6.01411 -34.5014,4.86883 -51.69773,5.50567 -3.51328,-0.0678 -7.02692,-0.16275 -10.53789,-0.28114 z m -13,-23.01201 c -2.39488,-3.99516 -1.59482,3.71895 0,0 z m -204.3592,-2 c -2.91645,-4.48054 -18.27206,-3.52404 -4.25496,0.17212 l 2.44595,0.22209 1.80901,-0.39421 z m 195.3592,-7.08333 c -3.20658,-5.84287 -3.16887,6.83476 0,0 z m -177.5,-2.91667 c -3.91819,-3.52856 -6.83849,4.28247 0,0 z m 173.18555,-4.17431 c 4.28099,-8.46548 12.09864,-17.63939 -3.32809,-15.17653 -10.27359,0.2104 -13.92844,11.73809 -20.61387,11.02037 6.73381,5.49631 8.71326,-0.22375 14.20192,-0.80324 -11.13866,6.06481 5.29303,9.61871 9.74004,4.9594 z m 19.32323,-12.5321 c -8.87622,-3.38389 4.97514,5.98411 0,0 z m 6.0618,-7.87864 c 1.12103,-4.88736 -9.6521,3.3342 -1.49729,1.10206 l 1.49729,-1.10206 z m 31.90105,-43.89742 c -0.92728,-8.70679 -7.66917,15.56379 -1.12125,1.38107 l 1.12125,-1.38107 z m 0.0284,-6.89509 c -3.37029,-9.95698 -6.51223,6.8423 0,0 z m 2.94019,-9.05876 c -0.0771,-1.93678 -2.63282,-5.34203 1.6233,-11.25473 -11.72013,-13.27352 -10.11032,19.9791 -1.6233,11.25473 z m -12.09853,-5.88868 c -11.30724,-8.30415 -1.98917,8.17399 0,0 l 0,0 z m 12.40833,-15.60671 c 7.8796,-10.38583 -10.43075,-12.0898 -2.42695,-22.41848 -8.06476,-7.7566 -4.21705,26.56961 -1.20219,27.99584 1.8019,-1.3895 2.5968,-3.65285 3.62914,-5.57736 z m 62.75,-15.56829 c -5.4291,-7.02722 -3.8924,6.93362 0,0 z m -2,-6.03212 c 1.4621,-12.35644 -28.5978,-10.90463 -9.9739,-5.87636 0.065,7.20677 2.7753,7.29148 9.9739,5.87636 z m -66.0008,-16.96637 c 2.43931,-10.22846 -6.45509,8.00042 0,0 z m 50.0008,-5.33669 c -6.1859,-11.04132 -8.2467,9.04264 0,0 z m -49.52491,-3.73568 c -1.43729,-12.55312 -8.39341,5.87769 0.0406,2.3471 l -0.0406,-2.3471 0,0 z m 59.52491,-8.42914 c -2.3949,-3.99513 -1.5948,3.71891 0,0 z m -6,-2.48658 c -5.0126,-3.13146 -27.4593,-15.83029 -13.8173,-3.07786 4.2844,1.41086 9.2844,3.66178 13.8173,3.07786 z m -57.49999,-3.51342 c -4.19333,-3.52363 -1.44015,3.60698 0,0 z m 62.99999,-5 c -4.1933,-3.52363 -1.4402,3.60699 0,0 z m -38.4524,-56.57873 c 5.8762,-13.1536 -18.12395,-26.67209 -15.7976,-6.79379 -4.84596,4.24414 19.5766,19.99363 15.7976,6.79379 z m 49.9524,-8.26076 c 10.604,-7.43178 0.7389,-10.71479 -4.4219,-5.601 -6.6377,-9.25665 -6.7186,11.69727 -1.1221,1.50106 1.9793,0.4141 3.1244,7.62887 5.544,4.09994 z m -20,-11.58908 c 7.9458,-12.43661 -4.9964,-10.04045 -5.4217,0.0665 1.2734,1.63986 6.2315,3.9833 5.4217,-0.0665 z m -7.5101,-4.58774 c -3.9448,-2.24072 -2.0494,3.71836 0,0 z m -52.48989,-2.04271 c -2.03304,-2.19464 -2.26407,3.34627 0,0 z m 41.99999,-0.31854 c 6.7195,-9.72236 -9.3485,-19.26267 -9.7714,-3.51789 1.4578,2.07287 7.7593,7.34047 9.7714,3.51789 z m -47.99999,-1.62244 c -2.43212,-3.9442 -4.03866,4.06572 0,0 z m 24.33659,-9.43472 c 5.3105,-3.91599 25.6184,2.97425 11.9562,-6.15115 -4.1551,-2.63301 -23.93764,6.04317 -11.9562,6.15115 z m 62.6634,280.05275 c 2.0957,-6.79967 2.5534,3.46086 0,0 z m -8.6872,-0.94982 c 2.4766,-9.64541 2.6328,3.90836 0,0 z m 18.5045,-2.22888 c 2.5928,-10.16343 4.686,10.88551 0,0 l 0,0 z m 8.7422,1.81067 c -1.2004,-19.91801 9.0682,5.60358 0,0 z m -6.0595,-9.25 c 4.1933,-3.52362 1.4402,3.60698 0,0 z m 16.9,-7.51667 c 2.0477,-10.0389 2.4317,10.84789 0,0 z m -32.4,-0.48333 c 2.6925,-4.02999 2.3567,3.89339 0,0 z m 8.126,-0.34821 c 1.9101,-12.80075 6.6698,5.30111 0,0 z m 8.8823,-0.62546 c -2.1992,-7.14031 8.5595,1.90645 0,0 z m 8.6855,0.33419 c -0.1688,-5.81227 4.8516,2.14631 0,0 z m 2.3062,-4.36052 c 2.432,-3.94424 4.039,4.0659 0,0 z m -24.9357,-2.9391 c -1.4218,-11.67798 9.8799,3.2243 0,0 z m 18.0935,0.0578 c -1.6977,-12.69052 9.5394,2.7399 0,0 z m -10.1578,-0.9187 c 4.2633,-7.93766 5.7352,2.59226 0,0 z m 4.082,-6.28179 c -6.0169,-8.44624 17.7286,0.5438 2.0015,1.28388 l -2.0015,-1.28388 z m -9.4322,-0.419 c -4.0224,-8.94645 8.922,2.11566 0,0 z m -14.5463,-164.80579 c -4.4484,-20.34439 7.673,0.47741 0,0 z m -11.5134,-8.5476 c -4.2159,-6.65841 -9.1643,-35.62253 -3.8453,-31.6557 -1.3322,10.38967 8.6621,25.01359 3.8453,31.6557 z m 34.4099,-14.5868 c 2.5225,-3.91597 2.7541,2.10212 0,0 z m 2,-5.80887 c 5.2703,-16.51607 2.2332,6.35473 0,0 z"
       id="path3987"
       inkscape:connector-curvature="0" />
    <path
       style="fill:#985b19"
       d="m 966.10358,541.95167 c -13.29241,1.08109 -34.286,-1.21725 -30.47797,-19.5875 -2.01295,-4.37655 -11.91921,-0.68756 -17.13012,-1.79637 -68.77417,-0.22956 -137.39154,6.22414 -206.16275,5.10133 -14.70195,-6.35258 14.12758,-8.12962 19.58543,-10.93868 6.81559,0.5137 25.51104,5.68039 8.74426,-0.37268 6.75619,-4.29596 24.79716,-6.82764 34.44115,-8.87604 10.80714,-9.52383 31.04717,-0.10399 39.12188,-5.48036 6.59969,-7.39535 27.40096,1.23035 39.79758,-5.36851 0.67469,-7.67203 26.43783,-3.68457 36.54786,-7.54291 19.19615,-1.88334 38.55168,-2.24369 57.33687,-6.03413 6.14449,-1.85551 1.29254,10.57202 8.54395,1.45349 11.7158,7.93448 11.96982,-11.55138 19.90358,-19.51293 7.51837,-12.70238 3.71726,-27.79077 2.11778,-40.15769 2.29053,-14.74066 11.24401,-28.72025 5.31925,-44.90865 1.7825,-18.4679 -13.62884,-27.69237 -16.93554,-44.41541 -8.0884,-15.95978 -21.58014,-31.8538 -15.56558,-51.15952 4.56241,-12.92883 14.15378,-23.39062 24.09992,-33.22417 11.53809,-5.33709 17.72243,-13.02466 30.44607,-15.86018 -15.46635,14.58053 14.63,1.93238 15.4673,7.61881 -12.5973,12.8717 18.9298,14.24999 6.1431,1.88392 0.6022,-6.71707 -17.9218,-11.74141 -1.4479,-9.4168 9.4335,-0.71635 15.342,7.49672 21.1653,8.34678 -3.3843,-11.51535 8.6465,-3.28788 6.4077,2.72559 6.8912,4.5518 27.9137,10.77007 11.8203,2.21055 -9.9664,-9.65724 11.7129,-6.47385 16.766,-2.55172 0.3443,10.74482 14.8255,13.91758 10.8035,29.2346 -2.6416,16.45853 -22.2291,-3.33354 -27.2505,8.81375 -11.8766,-13.80539 -2.2036,9.69899 -7.2037,11.31872 -12.4025,-1.38818 12.0135,25.52814 -6.4691,13.69211 -6.9694,-10.17385 -9.5331,-22.51754 -0.095,-29.67695 -7.9874,-7.09858 -21.7096,-10.001 -17.1879,4.22549 -8.7538,24.93874 -3.81,-30.00043 -9.2929,-6.05623 -0.5738,16.99569 3.8769,34.71454 15.2176,47.58572 8.9249,-2.66851 -1.0361,6.53843 8.1835,4.06538 -0.8833,12.19343 6.5536,6.499 13.674,6.57874 10.5713,8.60755 -15.6301,13.94887 -5.0518,20.48643 8.5674,8.32768 3.285,7.8779 -3.0522,1.06315 -16.0732,-4.6691 1.6344,6.05451 0.4194,9.16257 -17.0079,3.30169 25.5655,7.96012 11.0543,23.01023 8.0205,10.47104 6.4832,20.93035 -2.4829,21.73823 11.4514,8.22062 11.4928,21.09745 9.3304,33.31611 -1.8353,14.27912 -2.2553,29.15382 -8.1518,42.24367 -2.5602,17.11553 -15.577,30.6873 -27.064,43.21977 2.9895,7.24182 17.5854,-6.53717 23.6073,-0.28566 12.642,-3.3332 28.7352,2.28029 35.8268,-9.83954 11.1146,14.24132 -21.383,15.1677 -32.5037,16.48163 -16.4576,0.86065 -32.9259,1.26525 -48.8244,5.58591 -16.48374,1.58578 -32.97207,2.91518 -49.54232,1.89995 z m -13,-22.0621 c -2.39488,-3.99516 -1.59482,3.71895 0,0 z m -9,-9.08333 c -3.20658,-5.84287 -3.16887,6.83476 0,0 z m -4.31445,-7.09098 c 1.6676,-6.9177 14.32977,-18.33337 0.32914,-15.52796 -9.5501,-4.34737 -21.98067,9.20149 -22.70501,11.70227 6.38308,3.11454 15.12987,9.17778 22.37587,3.82569 z m -12.68555,-4.82569 c 2.69252,-4.02999 2.35666,3.89339 0,0 z m 32.00878,-7.70641 c -8.87622,-3.38389 4.97514,5.98411 0,0 z m 37.96285,-51.77606 c -0.92728,-8.70679 -7.66917,15.56379 -1.12125,1.38107 l 1.12125,-1.38107 z m 0.0284,-6.89509 c -3.37029,-9.95698 -6.51223,6.8423 0,0 z m 2.94019,-9.05876 c -0.0771,-1.93678 -2.63282,-5.34203 1.6233,-11.25473 -11.72013,-13.27352 -10.11032,19.9791 -1.6233,11.25473 z m -12.09853,-5.88868 c -11.30724,-8.30415 -1.98917,8.17399 0,0 l 0,0 z m 12.84103,-16.1578 c 10.0444,-9.1099 -11.80339,-10.76076 -2.43594,-19.33695 -8.04028,-15.20854 -2.76052,14.1108 -3.97251,19.06975 -2.69383,10.70462 4.65309,6.37331 6.40845,0.2672 z m 62.3173,-15.0172 c -5.4291,-7.02722 -3.8924,6.93362 0,0 z m -2,-6.03212 c 1.4621,-12.35644 -28.5978,-10.90463 -9.9739,-5.87636 0.065,7.20677 2.7753,7.29148 9.9739,5.87636 z m -66.0008,-16.96637 c 2.43931,-10.22846 -6.45509,8.00042 0,0 z m 50.0008,-5.33669 c -6.1859,-11.04132 -8.2467,9.04264 0,0 z m -49.52491,-3.73568 c -1.43729,-12.55312 -8.39341,5.87769 0.0406,2.34711 l -0.0406,-2.34711 0,0 z m 59.52491,-8.42914 c -2.3949,-3.99513 -1.5948,3.71891 0,0 z m -6,-2.48658 c -5.0126,-3.13146 -27.4593,-15.83029 -13.8173,-3.07786 4.2844,1.41086 9.2844,3.66178 13.8173,3.07786 z m -57.49999,-3.51342 c -4.19333,-3.52363 -1.44015,3.60698 0,0 z m 23.92729,-55.88237 c 8.5644,-12.95068 -14.2297,-36.69833 -15.0525,-13.09638 -4.77694,6.26573 11.3897,13.18926 15.0525,13.09638 z m 50.5727,-14.05024 c 14.633,-7.79344 -0.7538,-14.96794 -9.9317,-6.96517 -4.7232,8.87847 7.3966,4.07776 9.9317,6.96517 z m -19,-10.4604 c 8.6282,-8.43649 3.2864,-11.99334 -5.5631,-14.00222 -7.4442,-7.06204 -1.993,6.56605 1.2187,6.13602 -6.2784,2.97403 0.1299,12.86916 4.3444,7.8662 z m 39,-2.60699 c -2.6925,-4.02999 -2.3567,3.89339 0,0 z m -47.5101,-3.01631 c -3.9448,-2.24072 -2.0494,3.71836 0,0 z m -52.48989,-2.10172 c -2.51051,-2.45089 -1.90045,5.38173 0,0 z m -6,-1.88197 c -2.43212,-3.9442 -4.03866,4.06572 0,0 z m 96.99999,-5.5 c -2.5303,-5.20727 -2.0378,5.01988 0,0 z m -43.5,-3.5 c -3.0664,-3.21517 -0.316,3.44575 0,0 z m 33.5,279.61803 c 2.0957,-6.79967 2.5534,3.46086 0,0 z m -8.6872,-0.94982 c 2.4766,-9.64541 2.6328,3.90836 0,0 z m 18.5045,-2.22888 c 2.5928,-10.16343 4.686,10.88551 0,0 l 0,0 z m 8.7422,1.81067 c -1.2004,-19.91801 9.0682,5.60358 0,0 z m -13.2366,-17.85092 c 4.2761,-12.66279 4.5989,7.30646 0,0 z m 7.9271,-1.64908 c 4.192,-4.73391 4.6563,5.00862 0,0 z m -13.25,-7.25 c 2.5303,-5.20727 2.0378,5.01988 0,0 z m 18.5965,0.65623 c 0.5232,-5.82396 4.8663,1.61635 0,0 z m -16.5965,-8.15623 c 2.432,-3.94424 4.039,4.0659 0,0 z m 2,-163.86574 c 2.7225,-12.85839 -7.2566,-29.02643 0.4292,-39.91256 3.6415,8.50596 -0.758,27.16734 3.4535,29.57121 7.6546,-23.97349 -1.9701,23.65544 -3.8827,10.34135 z m -15.8965,0.55916 c -4.4484,-20.34439 7.673,0.47741 0,0 z m -11.5134,-8.5476 c -2.7863,-10.03687 -9.4012,-24.97571 -3.8029,-33.2532 -2.1838,10.72397 8.8716,26.53842 3.8029,33.2532 z m 36.4099,-19.5868 c 2.037,-4.9821 2.0519,3.54347 0,0 z m 1,-3.87756 c 2.244,-6.73428 3.2524,2.97022 0,0 z"
       id="path3985"
       inkscape:connector-curvature="0" />
    <path
       style="fill:#6c4d22"
       d="m 966.10358,541.95167 c -11.45757,1.87059 -40.75294,-4.84171 -17.49479,-11.7541 -3.7447,-10.24217 22.74284,-11.99616 11.31744,-20.84402 -12.04235,-4.10849 -21.38188,4.55824 -33.82265,-1.75428 -14.57618,-0.77325 6.09709,8.69326 9.81315,10.0403 -14.41996,5.41146 -31.46864,2.00782 -46.93301,3.23699 -59.62409,0.53911 -119.1936,6.5338 -178.81413,4.49794 -6.97787,-7.21914 21.91197,-11.81226 28.66103,-9.33153 9.08442,4.79248 12.88007,-0.27277 1.83183,-1.6852 5.63916,-3.99812 22.41315,-5.49999 29.9192,-8.12626 12.47202,-4.64268 27.45903,-7.50015 41.78784,-3.75006 3.01592,-11.0459 22.66452,-1.85739 34.69835,-6.15965 10.21247,-2.23746 5.2576,-6.2486 18.1754,-6.42798 22.67668,-2.32887 45.42918,-4.82758 68.17746,-6.28396 7.73643,-0.95308 19.25629,-6.44372 19.33857,2.52812 2.21496,-6.25543 16.67896,2.95211 12.92094,-6.75793 7.30502,-5.18696 13.95556,-27.24502 14.9643,-24.99048 0.85703,12.95951 -7.37033,23.74911 -10.017,35.91395 -5.07007,3.31905 -22.67728,-4.4047 -9.52393,5.57126 -3.01379,5.59884 -15.03813,6.19693 -3.03915,10.34946 9.48273,2.33368 20.3309,-7.61534 18.39092,-19.60265 5.43043,-11.3587 23.14593,-12.23894 14.06596,-27.46041 -14.94938,-7.84165 15.14099,-4.36149 6.57582,-17.25954 6.40077,-13.76535 1.39744,-21.70927 5.59417,-33.03071 -4.22284,-10.5027 6.7999,-22.69592 -3.993,-28.13461 -8.68284,-10.48809 6.6319,-29.55139 -6.29787,-35.25709 -6.99993,9.70176 0.73485,14.47807 -3.67411,23.9325 5.09056,6.54258 -2.90931,8.34893 3.12059,14.4563 -10.30709,7.78977 10.37549,17.09883 -3.67419,17.27011 4.27324,4.18498 5.11282,15.18257 -4.06914,13.68405 -9.68862,-2.24366 7.84928,-17.26365 0.97221,-26.25921 -0.24378,-16.61775 -4.4532,-32.03644 -14.31361,-44.1734 -3.53122,-18.73839 -21.61428,-31.58188 -20.53783,-51.5 -7.23083,-15.48943 25.74327,-14.91517 11.22918,-27.62079 -1.14558,-11.43703 20.6572,0.4525 10.46443,-8.44121 -12.72788,-0.81464 24.32737,-22.82693 16.64481,-9.98273 -5.61684,-5.01855 -6.13723,14.325 1.72115,3.08272 4.96128,9.89385 11.07338,-8.31503 16.52588,-9.72759 6.8601,-2.42715 15.2954,0.19873 12.9199,10.01666 10.7744,11.19065 13.972,-11.26023 4.0675,-12.61144 -14.9733,-9.42245 9.4316,-1.93675 14.8529,-1.58369 3.378,6.11449 11.85,9.1435 8.0677,-0.88466 9.615,3.60348 5.2267,13.66937 19.16,14.74051 18.6595,8.21019 -15.0734,-12.27401 1.4095,-8.18931 13.7658,-7.57988 13.2381,11.02723 22.2594,12.33962 6.535,12.4039 4.267,32.78284 -12.7225,24.91832 -5.4679,-2.2205 -9.0376,0.36059 -11.7396,2.40337 -14.2749,-13.56896 3.8153,17.14542 -10.4905,12.54838 -0.3778,5.50592 12.2861,22.21821 -2.529,12.83561 -7.3811,-9.81471 -9.3104,-22.24625 -0.1209,-29.26323 -7.9874,-7.09858 -21.7096,-10.001 -17.1879,4.22549 -8.7538,24.93874 -3.81,-30.00043 -9.2929,-6.05623 -0.9157,19.42044 5.8619,39.47473 19.7438,53.07532 4.8408,-6.2839 5.2923,15.72075 10.6217,4.62188 16.9004,-1.30153 3.2464,14.25218 -2.5572,14.05661 -8.0403,3.71803 -17.5047,-4.30391 -3.3297,-2.6376 -10.7593,-9.64372 -31.501,-23.39401 -36.3437,-1.87493 10.1057,0.64603 30.0885,-2.64511 14.1512,9.24903 -8.7888,9.42741 1.8744,7.88864 6.6671,9.55691 -9.94,5.73398 6.734,8.20787 6.816,17.63944 3.6275,7.61588 -0.6077,21.07396 14.0896,23.92371 14.5315,8.00018 10.0676,-20.60962 -1.1488,-7.25635 -6.1984,-22.1777 32.818,9.53294 13.1538,10.03627 -9.3674,-1.85145 -29.0664,2.32155 -9.6269,6.59128 11.5267,-3.4534 20.2413,11.83422 10.5148,18.71706 8.5086,13.20086 -0.2777,29.13709 -0.5147,42.05629 -4.6431,16.2757 -8.5138,34.22873 -22.8886,46.24531 -5.2443,6.25092 -18.9492,19.34149 -1.6526,12.25 17.2826,-3.60533 35.8679,-0.10084 52.8177,-5.38512 9.9555,-1.37831 -17.5623,9.38129 -23.8652,7.13236 -18.9195,1.91116 -38.1092,1.30758 -56.461,6.41451 -16.48532,1.58586 -32.97527,2.91563 -49.54712,1.90031 z m -186,-30.09348 c -5.01848,-6.39229 -4.82682,4.09219 0,0 z m 158.98895,-6.46291 c 3.51263,-6.59378 15.89697,-18.88461 1.02578,-17.20798 -9.52366,-4.35317 -22.0457,9.22434 -22.68136,11.70227 6.53106,2.33203 14.25783,9.12713 21.65558,5.50571 z m -11.98895,-6.50571 c 2.69252,-4.02999 2.35666,3.89339 0,0 z m 55,-12 c -2.43212,-3.9442 -4.03866,4.06572 0,0 z m 81.81952,-65.75 c -3.2295,-7.42408 -6.4818,9.32265 0,0 z m -31.3909,-43.82143 c 6.0402,-7.40468 -14.7941,0.23134 -2.3364,1.39434 l 2.3364,-1.39434 z m -40.20291,-38.53515 c 0.73584,-9.30598 -10.06374,-6.95496 -7.10369,-14.54389 -16.8658,-4.87441 -5.98127,19.60519 1.3907,14.69053 1.63545,4.54292 7.14022,9.47428 5.71299,-0.14664 z m 30.27431,-12.78443 c -3.9971,-10.47278 -20.6085,4.30464 -3.3101,2.63554 1.5458,0.3306 3.6084,-0.81841 3.3101,-2.63554 z m -17,-41.10899 c -4.5983,-3.55623 -0.065,3.4158 0,0 z m 10.6955,-7.581 c 4.7336,-13.86129 -17.65063,-25.16968 -16.1981,-5.80374 -7.26282,1.66994 -12.18343,5.46976 -1.41759,4.23693 6.46659,1.38945 18.33699,17.03391 17.61569,1.56681 z m 42.8045,-8.419 c 1.5898,0.53689 16.3264,2.49373 12.3348,-8.67011 -6.1723,-2.99159 -26.1658,5.33226 -12.3348,8.67011 z m -12,-9.58399 c 8.854,-8.28298 3.0574,-11.80863 -5.5631,-13.81124 -6.2582,-6.9054 -2.502,9.97457 -4.8167,14.52986 3.1706,1.08207 7.4477,0.98356 10.3798,-0.71862 z m -8,-5.17924 c 0.3684,-8.10308 8.7969,-2.45054 0,0 z m 47,2.76323 c -2.6925,-4.02999 -2.3567,3.89339 0,0 z m -109.00002,-3.13976 c 8.47051,-10.45326 -7.98385,3.82692 0,0 l 0,0 z m 37.00002,-2.41926 c -2.7795,-1.90999 -1.9595,3.53544 0,0 z m 63,-6.94098 c -2.5303,-5.20727 -2.0378,5.01988 0,0 z m -43.5,-3.5 c -3.0664,-3.21517 -0.316,3.44575 0,0 z m 52.8358,273.43278 c 0.558,-9.32459 3.512,5.88935 0,0 z m -14.0129,-13.0337 c 4.2761,-12.66279 4.5989,7.30646 0,0 z m 7.9271,-1.64908 c 4.192,-4.73391 4.6563,5.00862 0,0 z m -13.25,-7.25 c 2.5303,-5.20727 2.0378,5.01988 0,0 z m 18.5965,0.65623 c 0.5232,-5.82396 4.8663,1.61635 0,0 z m -16.5965,-8.15623 c 2.432,-3.94424 4.039,4.0659 0,0 z m -87.56714,-38.29724 c 0.79157,-7.97843 -8.05632,-29.81705 1.11716,-28.08357 15.61579,4.29141 -0.89921,21.14294 -1.14655,31.11675 l -0.24769,-0.29346 0.27712,-2.73972 -4e-5,0 z m 5.74822,-11.9577 c 3.11796,-6.9107 2.22591,6.22175 0,0 z m 57.56892,-53.40734 c 6.2228,-0.992 0.078,1.73023 0,0 z m -0.75,-57.2787 c 2.151,-3.62489 2.7841,2.21242 0,0 z m 27,-2.92476 c 2.7225,-12.85839 -7.2566,-29.02643 0.4292,-39.91256 3.6415,8.50596 -0.758,27.16733 3.4535,29.57121 7.6546,-23.97348 -1.9701,23.65544 -3.8827,10.34135 z m -15.3952,1.27821 c -3.1946,-11.00429 4.5945,-3.96681 0.6332,0.98572 l -0.6332,-0.98572 z m -12.0248,-9.28296 c -2.7598,-10.13993 -9.3982,-24.70695 -3.7954,-33.3422 -1.6359,11.00705 7.7542,26.04034 3.7954,33.3422 z m 36.42,-19.57049 c 2.037,-4.9821 2.0519,3.54347 0,0 z m 1,-4 c 2.037,-4.9821 2.0519,3.54347 0,0 z m -85.97106,-50.51996 c -1.27656,-5.59535 18.99646,-8.67878 5.03566,-0.78906 -1.08634,1.77482 -3.46372,2.19084 -5.03566,0.78906 z"
       id="path3983"
       inkscape:connector-curvature="0" />
    <path
       style="fill:#6b350a"
       d="m 967.10358,541.9362 c -10.19684,1.7093 -40.42545,-4.72817 -18.17472,-11.79104 -2.56668,-9.57549 13.4796,-10.42025 15.36514,-17.59884 -6.83914,-9.85638 -21.37625,3.17192 -15.70828,-10.35028 -4.17805,2.69518 -7.11227,4.44639 -5.16846,-4.82578 9.55369,4.80201 18.18022,14.29287 27.56738,5.19846 6.97557,-7.88747 3.98298,-23.12803 16.30982,-26.98599 0.71612,-3.92461 16.59144,-7.88554 4.09683,-7.83409 3.48508,-8.96295 -13.4715,-14.92836 1.30156,-15.23109 6.17303,-3.13765 10.81655,-7.94357 4.1259,-8.97091 5.90895,-15.08398 10.49845,-31.87181 6.37835,-44.61457 2.4231,-7.34402 3.6728,-15.8598 -3.44464,-17.5556 -0.6362,-12.36997 1.00604,-29.83296 -6.12034,-40.61684 1.83694,-9.26542 -13.24316,-9.10625 -6.56036,-16.4228 -15.61857,-7.59769 -12.01384,15.00777 -5.21627,16.78489 5.00389,-8.13101 6.84951,5.93144 8.87139,7.01019 -7.97114,9.25162 4.69517,9.56525 -2.55009,19.07787 9.3249,5.93588 -7.60072,13.15342 0.84121,14.8397 8.85342,-4.86953 -6.8277,14.65017 -4.44408,-2.27815 -3.10885,-10.00474 -0.43308,-35.24581 -11.02032,-27.96257 -5.06004,-12.54766 1.88222,-14.24978 -7.97431,-23.91913 -0.66873,-1.90713 9.59902,3.06753 1.49593,-4.37671 -6.89599,-4.14723 -18.4616,-22.33652 -14.40038,-34.31543 -2.49147,-11.70595 20.36619,-13.47366 10.09299,-24.0578 8.66535,-3.77399 13.88466,-4.77635 12.59803,-9.2076 8.61055,5.78522 14.2487,-11.51676 18.13602,-2.17314 5.26947,-1.41382 13.43062,2.01783 16.52412,-6.70987 -0.1339,2.06272 -1.7874,12.39416 8.2561,7.68836 5.9142,8.48189 18.943,-2.56677 17.9925,12.00251 7.73,-5.89377 4.5055,-0.49257 7.1737,0.15673 9.7477,-7.49402 17.707,14.81056 28.5433,0.89687 6.9151,-7.26373 6.7725,-14.83872 -4.4063,-9.51916 -11.7864,3.67579 -22.6019,3.18552 -13.7061,-9.77815 0.517,-7.55072 28.3687,11.02421 13.4861,-0.60637 -9.8974,-6.67073 -2.1479,-9.1395 6.0234,-6.39795 2.1164,8.397 10.2896,-4.07026 10.2149,9.87932 5.6902,4.87806 7.9616,4.34504 -0.2407,4.83077 2.6639,4.14516 12.3423,6.36001 9.0896,15.72992 -1.1936,12.43494 -21.5442,2.93718 -29.2528,4.87091 -9.1946,2.82574 -22.1242,-9.14462 -30.617,-6.28821 5.3267,9.39168 -4.2116,24.69049 -2.8504,6.17057 -0.2815,-20.86735 -9.4713,4.8081 -4.4306,12.56718 0.9337,20.03717 13.3134,39.45142 30.4644,49.07257 3.2446,-16.01232 12.8641,11.71929 -1.962,5.42599 -13.6559,-6.15945 -34.3329,-24.08149 -40.2061,-0.87002 10.1057,0.64603 30.0885,-2.64511 14.1512,9.24903 -8.7888,9.42741 1.8744,7.88864 6.6671,9.55691 -9.94,5.73398 6.734,8.20787 6.816,17.63944 3.5654,7.78608 -0.4794,21.48145 14.6601,24.17609 7.8279,2.18808 19.6473,-10.95456 13.1142,2.38822 -9.1185,-0.82031 -33.7913,1.62896 -13.0984,6.62258 19.9023,-4.27657 16.7134,20.86632 5.3573,21.07243 19.6006,-1.53833 3.4185,25.6169 7.4145,35.00907 -6.4212,13.08229 -7.3372,26.26288 -15.1814,39.68437 -11.336,11.44635 -19.7452,30.1247 -37.4974,31.85761 -16.27947,1.37141 -32.54766,2.87345 -48.89762,1.79953 z m 15,-55.04663 c -2.43212,-3.9442 -4.03866,4.06572 0,0 z m 75.77082,-5.1875 c -4.4656,-5.44645 -0.7718,4.13404 0,0 z m -63.77082,-24.0625 c -1.69402,-3.11195 -2.57784,4.28743 0,0 z m 4,-1.80902 c -2.03304,-2.19464 -2.26407,3.34627 0,0 z m 64.80002,-32.14098 c 4.458,-13.42464 -10.1111,5.06017 0,0 z m -30.3714,-46.37143 c 6.0402,-7.40468 -14.7941,0.23134 -2.3364,1.39434 l 2.3364,-1.39434 z m -34.92862,-41.42857 c -1.34468,-3.73624 -4.19732,3.58316 0,0 z m 25.53422,-9.06392 c 0.466,-12.27331 -23.78543,2.8787 -3.9125,1.84107 1.4974,0.31428 3.3312,-0.31008 3.9125,-1.84107 z m -3.0342,-34.93608 c -2.3949,-3.99513 -1.5948,3.71891 0,0 z m -0.5206,-6.91021 c 2.7213,-12.13138 -3.7571,-33.28354 -19.1163,-23.26953 3.1651,11.76501 -20.19479,14.20036 -0.83527,15.50238 11.85487,0.81626 -3.05159,12.22567 7.27487,8.87462 3.2319,-4.73669 12.2129,7.84426 12.6767,-1.10747 z m -31.0051,-24.04013 c 6.01156,-18.88725 -9.38055,10.94125 0,0 z m 70.896,-5.27214 c -0.6228,-11.11407 -8.6167,7.67186 0,0 z m -20.2802,277.73426 c 15.505,-3.11577 -1.2077,5.2048 0,0 z m 7.9099,0.61066 c 11.5639,-5.45682 29.3801,-3.21701 44.3499,-5.63959 -9.2864,5.23572 -30.8074,6.42729 -44.3499,5.63959 l 0,0 z m -333.00002,-8.83679 c -11.0758,-4.71431 14.77256,-3.90502 18.27183,-7.83381 10.5604,-0.32543 6.38264,1.88076 5.80045,5.85875 7.86042,0.54703 27.7456,-4.48672 10.42772,-8.81059 3.42896,-2.53644 14.54592,1.76894 6.8379,-3.46841 7.71704,-3.57324 31.14427,7.62308 28.95116,-0.32606 -13.49513,-4.20757 -3.76922,-3.65959 3.81232,-2.03593 -0.3778,-3.53457 -8.9479,-6.14695 2.1224,-7.88957 10.83568,-0.62634 31.20568,8.83596 29.88595,-4.19441 7.02646,3.82649 29.1222,2.37265 33.89027,-3.58562 8.6766,-4.28456 30.75025,-4.64612 44.49313,-6.04963 11.9522,-2.28449 20.36053,2.4886 27.85869,-2.57521 7.45679,1.84428 34.71937,-7.24661 16.06279,3.21432 -8.4116,-1.59906 -18.92024,-1.91271 -20.62904,5.07637 -8.51124,-1.29557 -16.3852,9.45433 -2.85968,10.39077 -7.39,4.13707 -5.08216,5.06966 0.62918,3.08184 6.02258,6.7503 -14.28387,6.20907 -1.80456,9.64507 5.4804,-7.03543 28.80286,5.05559 9.85923,3.98599 -52.54744,0.79427 -105.02897,3.55512 -157.53696,5.34573 -18.68434,0.21324 -37.39477,0.83963 -56.07278,0.1704 z m 19.75047,-5.03565 c -7.85789,-6.39869 -4.53679,6.54735 0,0 z m 54.74953,-2.25 c -2.40351,-4.26361 -7.79897,3.9007 0,0 z m -23,-3 c -2.52291,-3.83489 -4.28539,3.25207 0,0 z m 9.7,-0.2 c -6.26432,-2.37472 0.13125,4.50782 0,0 z m 116.34112,0.13347 c 0.40444,-5.46923 -6.62704,3.32568 0,0 z m 18.45888,-2.43347 c -5.42902,-7.02723 -3.89236,6.93361 0,0 z m -6.5,-4.5 c -5.99593,-3.96314 -5.25704,3.97575 0,0 z m -90.84868,-1.62368 c -12.3698,-2.42509 -4.21804,3.22827 2.84868,1.54364 -0.94953,-0.51456 -1.89921,-1.02904 -2.84868,-1.54364 z m 98.77865,-2.48963 c -10.25014,-5.02947 -0.99858,7.08287 0,0 z m -19.42997,1.2203 c -6.45818,-5.82414 -16.33791,0.92319 0,0 z m 5.75949,-5.35699 c -5.52116,-7.7758 -23.92531,-3.16533 -6.75949,0.18047 1.54092,0.0977 6.04054,2.40514 6.75949,-0.18047 z m 36.19135,10.17145 c -10.2517,-2.18084 16.41193,-6.09371 3.24069,1.31281 l -3.24069,-1.3128 0,-1e-5 z m 18.50249,-12.01171 c -5.90071,-12.2506 18.89741,1.42574 1.98535,2.87116 l -0.88485,-0.87283 -1.1005,-1.99829 0,-4e-5 z m 7.57024,-9.15974 c 4.02226,-8.20538 19.90159,-5.80426 10.21997,0.83678 -0.029,-5.96231 -8.47205,3.86753 -10.21997,-0.83678 z m -4.02357,-2.69098 c 2.41851,-5.19847 2.28482,3.51394 0,0 z m 12.62308,-6.85988 c 0.78152,-11.24576 16.51528,-10.63017 3.36907,-2.02067 -0.24785,-0.57751 -2.24694,3.44856 -3.36907,2.02067 z m 13.44787,-38.61365 c -2.89241,-7.17124 5.1543,2.99485 0,0 z m 5.11015,-5.84043 c 3.11796,-6.9107 2.22591,6.22175 0,0 z m -6.70378,0.21824 c -3.16295,-10.39067 6.88005,-21.32354 5.13811,-5.89423 -1.73082,1.56738 -0.87864,9.93325 -5.13811,5.89423 z m 7.52268,-10.4633 c 2.53031,-5.20727 2.03781,5.01988 0,0 z m -8.92105,-3.91667 c 0.42737,-4.34507 0.92377,3.74279 0,0 z m 9.35294,-7.69354 c -19.34348,4.04059 10.51388,-17.44455 2.38748,0.20347 l -1.00446,0.90674 -1.38302,-1.11021 0,0 z m 1.21739,-14.32321 c -6.68711,-10.74941 10.22435,3.30161 1.28108,1.38231 l -0.6841,-0.73816 -0.59698,-0.64415 z m 75.35074,-1.06658 c 2.7684,-10.26374 2.6123,10.01658 0,0 z m -11.0574,-0.59501 c -7.9324,-12.3688 11.8064,-8.40427 8.535,-4.88407 -3.139,1.12626 -5.8085,3.01972 -8.535,4.88407 z m -9.1926,-15.56727 c 6.2228,-0.992 0.078,1.73023 0,0 z m -47.25002,-5.33772 c 4.59822,-3.55618 0.0647,3.41579 0,0 z m 53.50002,-28 c -4.1191,-4.32464 6.3698,1.85843 0,0 z m -9.5044,-1.00706 c 3.9546,-6.48052 13.2096,4.13769 0,0 z m 28.5044,-33.93392 c 2.4185,-5.19847 2.2848,3.51394 0,0 z m -27.5,-6.05902 c -1.0838,-11.73726 2.7157,9.23311 0,0 z m 12.1246,0.51624 c -4.5927,-11.44277 11.5465,5.08889 0,0 l 0,0 z m 15.2672,-10.76624 c -3.7086,-7.54133 3.1205,-19.55634 2.0112,-4.76596 -0.3693,1.47305 1.1171,13.78194 -2.0112,4.76596 z m -23.476,-3.91282 c -3.4048,-11.03684 15.8776,-18.0284 13.1811,-1.22701 -5.3571,-2.62605 -11.0841,8.66565 -13.1811,1.22701 z m -65.84638,-40.91391 c 7.23028,-3.89256 -3.86155,5.94579 0,0 z m 18.43056,-0.7148 c 1.76062,-6.36225 8.39042,-1.818 0,0 z m -18.8125,-4.27097 c 4.15482,-5.80221 2.16708,3.26426 0,0 z m 7.8125,-0.9375 c 4.68376,-4.39483 1.93482,4.0592 0,0 z m 57.00002,-0.29989 c -6.0774,-3.05716 -23.3145,-11.01622 -6.426,-9.72936 3.2519,6.98127 11.8267,9.53717 7.8432,-0.9845 10.9558,-0.037 6.7315,16.03865 -1.4172,10.71386 z m -21.5,-10.70011 c 4.9377,-4.29633 5.2583,3.69487 0,0 z"
       id="path3981"
       inkscape:connector-curvature="0" />
    <path
       style="fill:#502b0b"
       d="m 967.10358,541.91464 c -9.15901,0.26602 -37.32992,-1.77963 -15.92392,-9.77507 6.23803,-6.94772 10.05862,-9.74296 15.11762,-16.65394 -0.0326,-7.43167 18.33652,-8.30807 12.0563,-18.00008 12.51911,-6.67183 6.93634,-21.91458 18.9429,-29.46438 3.59092,-8.26241 7.50182,-20.6999 1.57084,-27.09615 4.65408,-11.97012 11.75198,-29.2297 3.37018,-38.71821 2.0443,-6.78932 11.2231,-19.61609 -1.9889,-19.5441 -0.66031,-9.67616 -1.36198,-20.45633 -0.078,-29.70623 -7.87218,-10.08663 20.7272,-8.31291 13.6025,2.87137 -0.4857,6.90994 12.2662,10.94954 0.3927,14.46797 9.5806,0.9793 6.289,8.16162 1.2759,9.74371 7.162,1.71992 16.2893,2.63301 6.7516,8.44881 17.0328,-2.17265 -0.3379,6.72674 -5.078,12.35189 7.1144,6.54335 24.8427,-9.71605 29.0858,4.02887 -14.221,8.97097 12.045,33.09148 23.2321,16.63002 10.6155,2.69677 -26.2944,12.83487 -5.6175,14.88249 17.239,4.09223 -0.9593,18.49466 -3.1821,22.53267 10.6977,-5.62915 2.2393,7.11498 7.7359,12.15471 -9.532,2.00423 -2.1655,19.3241 -12.2371,8.97771 11.8728,12.3914 -3.0679,29.06156 -12.596,39.96621 -10.5333,16.81666 -28.5309,23.0328 -47.70131,21.67177 -9.55407,1.00737 -19.1533,0.49033 -28.73171,0.22996 z m 96.43602,-90.92158 c 5.1125,-15.57949 -12.7025,-8.4511 -4.998,-0.21671 1.4159,0.54313 3.6685,1.71576 4.998,0.21671 z m -26.436,-35.2185 c -4.7883,-4.11516 -6.8427,8.3069 -0.7344,1.1062 l 0.7344,-1.1062 z m -19.4589,-25.95152 c 0.4044,-5.46923 -6.627,3.32569 0,0 z m 30.0089,144.15299 c 7.7406,-3.52073 18.1435,0.87672 3.9495,0.80651 1.7018,-1.96428 -4.4316,1.02593 -3.9495,-0.80651 z m 15.45,-1.08646 c 11.7254,-3.72331 5.9378,3.31307 0,0 z m 12.5,-1 c 9.091,-2.83905 -2.8295,3.61941 0,0 z m -361.41361,-6.86455 c -7.01324,-4.07147 16.99388,-5.37459 22.29275,-2.38075 9.45827,1.25355 26.79911,-2.37094 21.46666,-7.41621 9.21316,-0.9296 24.37155,6.88076 29.90251,1.5283 -6.76141,0.64966 0.44388,-7.90306 -3.2361,-7.75775 11.23044,-0.56012 -9.4433,-7.1811 5.71155,-8.32893 10.83568,-0.62634 31.20568,8.83596 29.88595,-4.19441 7.02647,3.8265 29.12223,2.37267 33.89027,-3.5857 8.6766,-4.28456 30.75025,-4.64612 44.49313,-6.04963 11.9522,-2.28449 20.36053,2.4886 27.85869,-2.57522 7.45679,1.84429 34.71937,-7.2466 16.06279,3.21433 -8.4116,-1.59906 -18.92024,-1.91271 -20.62904,5.07637 -11.90918,-2.15687 -7.28257,13.2746 -17.74311,11.09927 8.83492,4.74772 -17.42557,2.09744 -1.04246,8.81084 10.47336,10.50934 19.48505,-2.73635 30.3485,5.67156 -16.611,3.19891 -37.34664,1.55091 -55.48711,2.74414 -54.60309,1.24309 -109.12927,6.1247 -163.77498,4.14379 z m 85.16359,-9.55212 c -2.17813,-4.48568 -2.80389,4.15814 0,0 z m 93.21036,-0.93069 c 5.6721,-7.73382 -13.37428,5.50539 0,0 z m 5.53964,0.34736 c -2.69252,-4.02999 -2.35666,3.89339 0,0 z m -83,-6.87868 c -7.25966,-7.0562 -14.71007,2.27365 -1.12523,0.68778 l 0.91421,-0.1865 0.21102,-0.50128 z m 77,-3.01433 c -6.45818,-5.82414 -16.33791,0.92319 0,0 z m 5.75949,-5.35699 c -5.52116,-7.7758 -23.92531,-3.16533 -6.75949,0.18047 1.54092,0.0977 6.04054,2.40514 6.75949,-0.18047 z m -160.75949,19.25 c 4.68376,-4.39483 1.93482,4.0592 0,0 z m 12.51008,-3.98369 c 1.10193,-3.35485 4.05544,1.90931 0,0 z m 27.48992,-8.01631 c 2.43212,-3.9442 4.03866,4.06572 0,0 z m 168,-6.83333 c 4.18601,-3.64769 2.11606,3.38308 0,0 z m 8.2,-1.36667 c -6.29174,-14.3677 12.67123,2.85066 0,0 z m 6.80375,-10.05 c 12.71239,-11.64265 13.35531,2.19182 0,0 z m -4.00375,-3.19098 c 2.52248,-3.91597 2.75406,2.10212 0,0 z m 12,-7.48229 c 7.82823,-16.5834 7.83482,1.5822 0,0 z m 25.5,-16.07673 c 0.26392,-3.66733 3.00162,3.36878 0,0 z m -11.91705,-21.86579 c -0.75954,-7.86584 3.2866,3.85326 0,0 z m -0.91628,-4.80088 c -2.29256,-7.77935 6.80442,-22.75984 3.89395,-5.81387 -2.08294,0.75531 -0.55926,8.77837 -3.89395,5.81387 z m 10.33333,-37.33333 c 2.69252,-4.02999 2.35666,3.89339 0,0 z m -6.36137,-15.76986 c -1.93073,-10.43217 -3.15814,-26.29437 -3.07738,-31.83488 -6.39397,-3.05814 -8.03687,7.59593 -10.02745,-4.82849 -4.50705,-8.30675 6.80818,-7.96636 -3.89494,-12.60099 -1.00218,-11.96245 12.47469,8.69423 15.25187,13.82346 8.53691,8.19796 0.30476,24.87471 3.08348,37.70703 1.15525,2.99312 -5.49197,-0.62584 -1.33558,-2.26613 z m 49.36139,-1.73014 c 4.0388,-6.04498 3.535,5.84009 0,0 z m -36.75002,-37.4861 c -4.5759,-4.37105 4.90532,-9.49125 -5.24671,-10.9234 3.64541,-10.93536 -16.3767,-12.7752 -21.22293,-6.61786 2.87197,-14.22692 -19.98922,-9.20156 -12.66845,-19.23621 -9.54996,-10.93862 -3.96364,-26.20851 8.34238,-31.54074 4.27339,-5.90705 -8.30462,-12.52097 4.01417,-10.40794 4.46223,4.89665 20.41203,-18.86488 13.23639,-2.47412 9.1157,15.34108 6.70968,-14.38162 18.86417,-6.62204 10.7008,-4.08016 21.7113,6.47671 31.1351,3.61578 -1.7631,14.42509 15.1033,7.43775 18.3827,6.82143 3.797,21.32887 37.1211,-9.48845 19.4238,-8.28591 -11.0861,3.48426 -28.5402,6.54926 -17.735,-8.73655 0.517,-7.55072 28.3687,11.02421 13.4861,-0.60637 -9.8974,-6.67073 -2.1479,-9.1395 6.0234,-6.39795 2.1164,8.397 10.2896,-4.07026 10.2149,9.87932 5.6902,4.87806 7.9616,4.34504 -0.2407,4.83077 2.6639,4.14516 12.3423,6.36001 9.0896,15.72992 -3.3132,14.74454 -27.195,-1.04832 -37.0206,5.59192 -8.8571,-4.54984 -28.3443,-15.84535 -22.0814,2.8579 -4.2263,21.26915 -1.658,-30.9268 -9.1491,-5.87793 -0.9226,21.57082 6.1751,44.26829 22.7046,58.77256 6.9082,4.49021 8.0266,4.7231 11.9476,0.23267 10.888,6.53114 -5.3537,15.70619 -12.8173,6.59337 -14.3558,-3.61406 -21.2482,-26.02372 -37.5606,-18.61299 -10.6918,3.83288 -4.9862,6.34361 1.5624,9.40249 1.0808,6.94215 -3.3337,14.2403 -12.68452,12.01188 z m 23.87782,-51.11511 c 1.9175,-13.94315 -1.8158,-41.07809 -20.7979,-29.33954 -0.73726,13.62206 -5.10997,2.71724 -10.82992,4.44075 -9.81347,0.50177 1.30636,19.77851 8.5402,10.13033 10.36412,0.65127 -3.50852,17.18616 11.99462,9.41003 3.2806,-0.8542 10.8835,13.9531 11.093,5.35843 z m 38.2425,-36.12127 c -0.6228,-11.11407 -8.6167,7.67186 0,0 z m 10.6297,57.2815 c 2.151,-3.62489 2.7841,2.21242 0,0 z m -0.6392,-18.56112 c 0.2431,-11.81105 2.2205,-11.87319 1.4922,-0.99615 1.3761,0.95654 -1.6819,4.24814 -1.4922,0.99615 z m -23.2756,-2.7479 c -1.7893,-10.74069 18.2078,-13.24869 10.6648,-0.71457 -3.4938,-0.65714 -8.6764,6.0856 -10.6648,0.71457 z m -58.58522,-38.75 c 4.59825,-3.55618 0.0647,3.41579 0,0 z m -7.5,-6.44098 c 2.52248,-3.91597 2.75406,2.10212 0,0 z m 65.00002,-0.85891 c -6.0774,-3.05716 -23.3145,-11.01622 -6.426,-9.72936 3.2519,6.98127 11.8267,9.53717 7.8432,-0.9845 10.9558,-0.037 6.7315,16.03865 -1.4172,10.71386 z m -21.5,-10.70011 c 4.9377,-4.29633 5.2583,3.69487 0,0 z"
       id="path3979"
       inkscape:connector-curvature="0" />
    <path
       style="fill:#332a0f"
       d="m 967.43366,541.94546 c -8.12502,0.27654 -26.34286,0.20913 -10.60587,-8.05883 12.26427,-4.30438 8.745,-22.50211 20.33874,-21.03619 3.05414,-7.08674 10.01163,-8.79132 4.93113,-15.99555 12.69923,-7.46886 10.69976,-26.8708 22.00594,-36.71944 4.2087,-7.40245 6.3789,-9.88442 -0.4549,-14.29836 -0.9096,-11.14722 4.7881,-19.65737 3.6851,-32.84761 9.6998,-9.84832 3.2267,5.2751 6.0198,3.26525 10.1932,-8.82197 10.6199,2.55454 3.3645,7.48812 7.0682,8.49722 37.7967,-8.7048 29.7304,11.14501 -1.2466,14.37512 3.8407,25.45498 17.0306,29.78928 10.4245,13.59011 -11.4277,-3.94564 -8.6774,7.79024 16.3922,4.33328 -12.3142,4.73386 1.8283,12.11148 7.4841,15.69277 -11.3811,30.02159 -20.1959,42.07553 -9.9126,17.53619 -30.8764,13.41574 -47.83052,15.55804 -7.05558,0.19088 -14.11691,-0.0834 -21.16992,-0.26697 z m 84.73564,-47.09107 c 8.2687,-13.83377 -15.7738,1.69766 0,0 z m -321.31572,30.3729 c 6.22279,-0.992 0.0776,1.73023 0,0 z m 7.75,-0.33772 c 17.96575,-3.6923 36.30271,-1.8204 54.09516,-5.48972 8.85321,1.39526 37.39234,-2.71732 30.98589,-9.89645 -11.80588,-3.08831 2.33674,-3.83482 2.96683,-9.17877 6.93337,-2.27692 28.69215,-0.57387 26.45212,-8.51452 16.40304,-2.42624 34.0107,-4.45188 51.02252,-5.50852 16.13163,-3.648 4.86227,22.44435 -7.52247,10.42301 -7.52178,-4.5104 -21.11876,-0.67748 -8,4.26328 -14.93094,-5.29916 -10.64913,11.16804 -0.54005,15.84178 7.47168,2.19112 33.00982,0.45771 12.12599,2.89204 -52.4367,1.63964 -104.81807,5.53952 -157.28091,5.99821 l -3.4377,-0.30888 -0.86733,-0.52145 -5e-5,-10e-6 z m 114.92889,-12.5 c -6.38729,-5.43202 -4.83111,5.06248 0,0 z m -22.42889,-7 c -6.1704,-7.39084 -5.18704,7.3615 0,0 z m -37.875,6.625 c 3.17951,-3.72575 1.01037,2.8812 0,0 z m 1.875,-4.17192 c -10.61199,-0.3407 -14.12081,-8.07448 -0.93194,-7.29 7.83165,3.02041 17.24219,-0.14238 7.66379,7.58162 -1.89237,1.70293 -4.76477,-0.54888 -6.73185,-0.29162 z m 18,-2.95308 c -1.55706,-4.15004 8.52576,3.6202 0,0 z m 6.41191,-5.36895 c 0.62544,-10.22766 6.84547,3.71897 0,0 z m 95.08809,-10.63105 c 4.93769,-4.29633 5.25828,3.69485 0,0 z m 6.5483,-2.97015 c 5.69095,-5.29652 20.70144,2.12119 4.81919,0.70965 l -2.10616,-0.13844 -2.71303,-0.57124 0,3e-5 z m 18.48625,-1.97394 c 7.77522,-4.91153 14.07812,0.4539 1.39763,0.38468 l -1.39763,-0.38468 z m 124.97037,-39.03344 c -1.9817,-15.92487 8.9344,2.99658 0.626,1.97299 l -0.626,-1.97299 0,0 z m -9.5049,-16.02247 c 3.6822,-4.02435 3.8364,3.91193 0,0 z m -36.7775,-19.5567 c -6.0631,-8.29812 16.4361,2.83546 0,3e-5 l 0,-3e-5 z m -11.7181,-7.43467 c -5.7625,-9.81175 9.3801,-7.80341 11.7685,-8.06329 -6.2055,0.008 -8.1186,16.63439 -11.7685,8.06329 z m 3.1536,-11.68397 c -3.1647,-9.79159 7.9208,-0.4637 0,0 z m -6.658,-13.32466 c 4.9109,-10.38401 4.9155,10.64888 0,0 z m 9,-3 c 2.6925,-4.02999 2.3567,3.89339 0,0 z m -5,-4 c 4.6838,-4.3949 1.9348,4.05924 0,0 z m -7,-5.20188 c 4.4953,-5.90904 -2.47634,-22.79934 6.4994,-11.74325 1.5708,3.82389 -2.2979,26.3779 -6.4994,11.74325 z m -17.79505,-1.16976 c -2.17154,-14.56047 3.86782,8.06443 0.77792,2.92637 -0.25931,-0.97545 -0.51861,-1.95091 -0.77792,-2.92637 z m 29.79505,2.37164 c 2.4322,-3.94416 4.0383,4.06555 0,0 z m -38.96754,-14.93931 c -1.38685,-7.93273 6.57534,7.14659 0,0 z m 82.23834,-8.66486 c 4.9331,-1.7077 0.7145,2.05757 0,0 z m -6.7708,-2.82616 c -7.6714,-13.15729 12.9456,8.47917 0,0 z m -50.50002,-0.44723 c 4.83512,-8.12503 5.06152,4.38579 0,0 z m 59.00002,-3.72943 c 5.9939,-5.81612 3.5673,6.08597 0,0 z m -19.25,-0.78506 c -5.8888,-10.06465 11.2429,4.69658 0,0 z m -37.3559,-0.58692 c -21.71074,-5.36134 19.3318,-5.91478 1.549,0.21538 l -1.549,-0.21538 z m -6.39412,-10.83107 c 5.2595,-5.51734 4.45156,2.82687 0,0 z m 30.08622,-3.28792 c -13.0078,-3.23543 -31.01213,-4.7399 -40.95682,-5.97996 -15.43251,-8.66635 18.81152,-1.13441 4.75985,-16.0172 -18.99575,-16.91378 -7.64606,18.07405 -12.48933,23.05445 -8.27323,-8.76481 -24.94106,-20.47544 -18.35472,-36.4819 9.71055,-7.70929 18.86394,-27.83962 28.71131,-7.64781 7.80933,6.6093 17.87021,19.81639 25.66131,19.05638 5.8703,-3.62828 -0.9224,6.12985 9.1685,4.83805 4.7136,5.72654 13.9547,16.59462 12.0517,22.24315 -3.0377,-0.37702 -5.7947,-1.85684 -8.5518,-3.06516 z m -5.4559,-8.15204 c -5.8386,-14.31076 -4.1623,9.47439 0,0 z m -4.6303,-6.30902 c -2.1986,-3.61741 -1.8942,4.86204 0,0 z m -19.47295,-10.48479 c -0.9862,-9.59455 -14.67563,3.28914 0,0 z m -16.02707,3.04381 c 2.52291,-3.83489 4.28539,3.25207 0,0 z m 73.23482,-10.39318 c 10.0513,-15.46515 2.7966,11.11463 0,0 z m -20.5399,-6.10682 c 0.1954,-8.09454 0.7602,6.17503 0,0 z m -35.19492,-1.5 c 11.32602,-9.39869 2.45306,11.43012 0,0 z m 91.90932,-3.11969 c -8.118,-2.42967 -35.8845,1.88802 -15.8899,-7.67262 8.3167,-6.97944 6.1956,-17.08718 -5.4804,-10.63404 -9.8587,5.01734 -4.6506,-14.8988 -12.8742,-1.45492 -2.8196,-1.66858 0.01,-18.59563 9.4954,-8.29392 9.2691,7.46737 11.4273,0.59919 2.1292,-2.07483 -10.4672,-11.3284 11.1598,-3.45481 11.7106,-2.31955 6.6262,-4.33135 5.9712,12.85252 12.2096,11.75995 -16.3665,-0.94153 8.5899,5.48533 1.554,14.5656 0.9609,2.22335 1.9907,8.96719 -2.8543,6.12433 z m -35.4504,-1.94684 c 0.8301,-6.393 8.1466,5.07925 0,0 z m -30.0223,-8.33003 c -15.6768,-10.96535 7.2785,-7.23271 9.8659,0.12755 -3.4252,-3.13306 -9.629,4.54277 -9.8659,-0.12755 z m -26.82659,-0.4254 c -7.93033,-10.98851 12.46479,-13.67898 3.38997,-4.20312 0.27603,1.26239 -1.11532,7.09264 -3.38997,4.20312 z m 9.18999,-9.37804 c 6.2645,-2.37477 -0.1315,4.50787 0,0 z m 40.2,-11.09989 c -6.0592,-3.01765 -23.2799,-11.21614 -6.426,-9.72936 3.2519,6.98127 11.8267,9.53717 7.8432,-0.9845 10.9558,-0.037 6.7315,16.03865 -1.4172,10.71386 z m -20.25,-11.36239 c 6.2228,-0.99199 0.078,1.7302 0,0 z"
       id="path3977"
       inkscape:connector-curvature="0" />
    <path
       style="fill:#341409"
       d="m 975.53036,541.28621 c 1.54961,-12.72788 -16.78565,-16.52029 -4.17678,-26.36484 -0.14248,-1.21431 9.18614,-3.92454 10.91351,-9.32284 8.61102,-2.14227 -8.71273,-10.29179 5.85082,-12.38724 4.23721,-10.90105 8.25045,-31.37698 21.51139,-30.01367 -12.15934,-3.50666 6.1998,-13.75825 -5.9622,-17.58423 -3.2409,-11.22902 7.319,-12.44726 2.8375,-26.01893 -2.4597,-9.87174 14.4706,-14.36715 4.5366,-2.28385 6.8498,-7.239 17.262,-3.32333 6.5252,4.21348 0.9564,11.6772 21.1912,0.0766 27.1355,4.96924 7.4792,2.41042 -2.7695,20.75384 5.3091,28.00742 0.2368,5.96136 21.2673,10.87059 14.5923,16.38882 -10.1966,-8.1151 -15.6012,4.30112 -3.9416,5.01975 -14.6278,2.0361 -5.111,6.44065 -1.0099,15.27562 -3.0764,16.11303 -17.2222,24.48919 -25.1957,37.20632 -9.2177,13.00412 -25.9327,11.83131 -40.46942,13.02593 -6.13232,0.18946 -12.3684,0.93958 -18.45632,-0.13098 z M 1033.56,527.14244 c -4.3398,-2.17113 -10.1203,11.01623 -1.2851,1.68006 l 1.2851,-1.68006 z m 11.6068,-14.82909 c -0.206,-9.32781 -10.9078,4.61269 0,0 z m -0.4764,-12.91375 c 8.4073,-3.81322 14.4492,-12.42572 0.6993,-13.02167 -15.9055,0.17366 8.1965,6.3161 -5.8088,7.03664 -2.3486,3.33532 2.6337,13.1723 5.1095,5.98503 z m 4.6924,-29.76003 c -2.708,-22.01887 -6.3964,17.51177 0,0 l 0,0 z m -36.2792,-0.64235 c -4.1746,-3.50026 -1.7289,4.7131 0,0 z m 14.5589,-10.57585 c 4.8055,-5.39203 -9.7454,5.50857 0,0 z m -3.7362,-11.86175 c -6.7324,-14.97345 -13.4508,6.0737 0,0 z m 7.9273,-4.92005 c -3.343,-3.82441 -3.1009,4.63961 0,0 z m -19.75,-1.30902 c -2.7795,-1.90999 -1.9595,3.53544 0,0 z m 28.6042,-4.17015 c -1.9472,0.72002 1.3783,4.68962 0,0 z m -83.74344,102.6959 c 9.0497,-5.6309 14.58066,5.39208 1.52501,1.98547 -2.9253,-0.38632 -5.87882,1.20649 -1.52501,-1.98547 z m 5.13922,-10.09173 c 5.4579,-3.55925 7.03942,3.39091 0,0 z m -172,-5.26801 c 3.31758,-3.51529 4.45373,1.88332 0,0 z m 37.27083,-2.21116 c 4.93303,-1.70772 0.7145,2.0576 0,0 z m 76.72917,-3.33681 c 2.15095,-3.62489 2.78409,2.21242 0,0 z m -111,-6.05902 c 4.62295,-4.29111 1.95061,3.98283 0,0 z m 38.66667,-0.66667 c 3.67669,-3.22225 3.75329,-3.5459 1.58898,-10.32516 4.53965,-5.44311 16.55748,0.42168 12.24435,4.99183 6.70649,2.32314 -12.47285,5.54679 -13.83333,5.33333 z m 40.33333,-0.88505 c -20.58094,1.89553 2.15795,-18.3534 0.76408,-4.44828 3.36265,2.90599 8.59598,8.62706 -0.76408,4.44828 z m -18.5,-0.76453 c -5.93603,-4.46483 3.06291,-9.87674 4.96482,-11.68375 9.34384,2.16895 0.1053,7.39792 -0.72123,12.76987 l -1.6279,-0.20774 -2.61569,-0.87838 z m -31.30902,-0.53883 c -7.95523,-6.23336 13.34375,0.37373 0,0 z m -22.69098,-1.14492 c 1.34468,-3.73624 4.19732,3.58316 0,0 z m 24.5,-4.88337 c 7.17782,-6.8387 5.25007,4.24128 0,0 z m 57.5,-3.11663 c 0.5782,-3.32994 5.6142,2.35995 0.87711,0.70625 l -0.87711,-0.70625 z m 183.00492,-54.97753 c -1.9817,-15.92487 8.9344,2.99658 0.626,1.97299 l -0.626,-1.97299 0,0 z m -9.5049,-16.02247 c 3.6822,-4.02435 3.8364,3.91193 0,0 z m -37.25,-20.0801 c -4.8126,-7.30267 17.5009,3.36779 0,0 z m -11.2243,-6.87024 c -8.56518,-8.45431 21.6934,-11.88022 7.3893,-5.04872 -3.365,2.10134 -4.0066,12.68367 -7.3893,5.04872 z m 3.1323,-11.725 c -3.1647,-9.79159 7.9208,-0.4637 0,0 z m -6.658,-13.39798 c 4.2171,-9.80617 4.317,10.65 0,0 z m 9,-2.92668 c 2.6925,-4.02999 2.3567,3.89339 0,0 z m -5,-4 c 4.6838,-4.3949 1.9348,4.05924 0,0 z m -5.9648,-3.93426 c -1.88896,-6.21254 3.4306,-11.78814 -0.4042,-16.75952 9.6647,-1.52753 6.2192,23.53534 0.4044,16.75952 l -2e-4,0 z m 10.9648,-0.0657 c 2.4322,-3.94416 4.0383,4.06555 0,0 z m 43.2708,-23.60417 c 4.9331,-1.7077 0.7145,2.05757 0,0 z m -5.5208,-1.78788 c -6.7307,-9.21249 9.862,4.06013 0,3e-5 l 0,-3e-5 z m -51.75002,-1.48551 c 4.83512,-8.12503 5.06152,4.38579 0,0 z m 59.00002,-3.72943 c 5.9939,-5.81612 3.5673,6.08597 0,0 z m -19.25,-0.78506 c -5.8888,-10.06465 11.2429,4.69658 0,0 z m -37.3559,-0.58692 c -21.71074,-5.36134 19.3318,-5.91478 1.549,0.21538 l -1.549,-0.21538 z m -6.39412,-10.83107 c 5.2595,-5.51734 4.45156,2.82687 0,0 z m 30.50002,-3.23546 c -12.2672,-3.74098 -30.96516,-3.53122 -40.02944,-6.19424 -13.1133,-4.29259 1.20814,-4.94362 6.14863,-7.29676 -6.22325,-7.24573 13.10791,-11.46318 1.55327,-17.86444 -12.0888,3.01494 6.73976,15.85197 -8.29123,6.41242 -8.67894,-15.26984 -12.05351,14.16039 -6.54411,21.07127 2.36787,8.78792 -5.91426,2.56545 -6.12794,-1.39091 -12.62166,-3.17523 -23.85013,-29.86455 -7.49176,-33.45232 2.14102,-4.5042 11.38303,-22.20565 14.41222,-7.89966 10.99059,1.11073 16.36472,16.00596 27.15526,19.66128 -9.04858,9.78123 6.6396,4.55206 9.6724,1.88483 -2.2634,6.69551 16.031,10.21312 15.874,21.32923 8.232,8.55349 0.015,7.6052 -6.3313,3.7393 z m -6.0422,-9.2045 c -4.7583,-13.28735 -9.5257,1.57335 -0.034,2.90596 l 0.034,-2.90596 0,0 z m 33.2289,-22.66014 c 7.7143,-12.87654 5.6101,7.1383 0,0 z m -20.4918,-6.58986 c 0.1954,-8.09454 0.7602,6.17503 0,0 z m -35.19492,-1.5 c 11.32602,-9.39869 2.45306,11.43012 0,0 z M 1088.07,276.8238 c -6.199,-1.81274 -36.3104,-0.40336 -16.3059,-4.27422 5.6524,-6.82501 16.8959,-11.54805 15.2623,-1.92951 4.209,-1.02992 6.7249,8.50688 1.0436,6.20373 z m -35.5075,-2.00072 c -0.3971,-5.0722 6.4411,4.37041 0,0 z m -30.0223,-8.33003 c -4.5752,-5.55334 -10.0584,-10.00407 1.2409,-5.53378 17.5925,4.8549 4.1403,7.41463 -1.2409,5.53378 z m -26.82659,-0.4254 c -8.6052,-9.22859 10.85889,-13.8572 4.78339,-6.66274 -3.07932,0.25686 -1.21681,10.06453 -4.78339,6.66274 z m 9.18999,-9.37804 c 6.2645,-2.37477 -0.1315,4.50787 0,0 z m 57.2,-0.8 c 2.6925,-4.02999 2.3567,3.89339 0,0 z"
       id="path3975"
       inkscape:connector-curvature="0" />
    <path
       style="fill:#181718"
       d="m 975.53036,541.28621 c -9.8446,-15.71808 4.30523,-26.24967 14.27406,-37.3198 -8.77877,-6.23773 4.52887,-10.90437 9.1952,-17.07512 5.00028,-4.02379 8.29038,-11.86138 15.82178,-10.16454 8.6894,2.24551 8.5373,-4.35531 8.2538,-11.08753 1.7537,-5.61718 12.6421,-20.68258 17.5477,-11.55924 10.4183,10.26009 -4.8006,29.18011 13.4807,30.29995 -7.8408,2.37422 -19.5807,1.20631 -14.5317,14.56012 8.0444,6.80474 -1.0333,11.5789 1.1522,17.8495 -9.0472,11.87445 -17.2013,26.13253 -34.98,23.73691 -10.02656,0.54499 -20.19662,1.88787 -30.21374,0.75975 z m -18.566,-2.42991 c 9.0497,-5.6309 14.58066,5.39208 1.52501,1.98547 -2.9253,-0.38632 -5.87882,1.20649 -1.52501,-1.98547 z M 790.10358,523.49656 c 3.31758,-3.51529 4.45373,1.88332 0,0 z m 37.27083,-2.21116 c 4.93303,-1.70772 0.7145,2.0576 0,0 z m 24.97917,-12.10156 c -8.0221,-9.71224 20.11689,-1.63227 2.20977,0.33126 l -2.20977,-0.33126 0,0 z m -9.00623,-0.95863 c -1.88424,-6.7777 8.92484,2.5026 0,0 z m 19.47469,-0.58564 c 1.21454,-13.40768 9.94566,5.75097 0,0 z m 177.28156,-79.75 c 1.493,-3.1602 2.2568,3.43449 0,0 z m -72.05356,-118.2818 c -17.16165,-10.28404 -5.14265,-38.63879 10.18672,-36.10034 9.45959,3.68282 9.2875,17.23328 -2.78846,10.88358 -2.13551,5.63643 1.30874,27.96208 -7.39826,25.21676 z m 35.34136,-0.36786 c -7.39231,-5.05652 -13.44113,-16.08868 1.0257,-10.32787 5.3415,0.5485 4.1982,12.92455 -1.0257,10.32787 z m 73.7122,-39.65921 c 2.9588,-13.74168 22.2965,4.23805 0,0 z"
       id="path3973"
       inkscape:connector-curvature="0" />
  </g>
</svg>
