<?xml version="1.0" encoding="UTF-8" standalone="no"?>
<svg
   xmlns:dc="http://purl.org/dc/elements/1.1/"
   xmlns:cc="http://creativecommons.org/ns#"
   xmlns:rdf="http://www.w3.org/1999/02/22-rdf-syntax-ns#"
   xmlns:svg="http://www.w3.org/2000/svg"
   xmlns="http://www.w3.org/2000/svg"
   xmlns:sodipodi="http://sodipodi.sourceforge.net/DTD/sodipodi-0.dtd"
   xmlns:inkscape="http://www.inkscape.org/namespaces/inkscape"
   viewBox="0 0 512 512"
   id="svg2"
   version="1.1"
   inkscape:version="0.48.5 r10040"
   width="100%"
   height="100%"
   sodipodi:docname="shadow_dagger.svg"
   inkscape:export-filename="/Users/chriskoss/src/bot-game/assets/masterful_strike.png"
   inkscape:export-xdpi="12.832031"
   inkscape:export-ydpi="12.832031">
  <metadata
     id="metadata28">
    <rdf:RDF>
      <cc:Work
         rdf:about="">
        <dc:format>image/svg+xml</dc:format>
        <dc:type
           rdf:resource="http://purl.org/dc/dcmitype/StillImage" />
        <dc:title></dc:title>
      </cc:Work>
    </rdf:RDF>
  </metadata>
  <defs
     id="defs26">
    <filter
       x="0"
       y="0"
       width="1"
       height="1"
       inkscape:label="Lightness-Contrast"
       inkscape:menu="Color"
       inkscape:menu-tooltip="Increase or decrease lightness and contrast"
       color-interpolation-filters="sRGB"
       id="filter3028">
      <feFlood
         result="result1"
         flood-opacity="0.43283582089552236"
         flood-color="rgb(0,0,0)"
         id="feFlood3030" />
      <feBlend
         mode="normal"
         in2="SourceGraphic"
         result="result2"
         id="feBlend3032" />
      <feComposite
         k2="1"
         operator="arithmetic"
         in2="SourceGraphic"
         id="feComposite3034" />
      <feComposite
         operator="in"
         in2="SourceGraphic"
         id="feComposite3036" />
    </filter>
  </defs>
  <sodipodi:namedview
     pagecolor="#ffffff"
     bordercolor="#666666"
     borderopacity="1"
     objecttolerance="10"
     gridtolerance="10"
     guidetolerance="10"
     inkscape:pageopacity="0"
     inkscape:pageshadow="2"
     inkscape:window-width="1269"
     inkscape:window-height="699"
     id="namedview24"
     showgrid="false"
     inkscape:zoom="0.65186406"
     inkscape:cx="591.67162"
     inkscape:cy="327.98142"
     inkscape:window-x="0"
     inkscape:window-y="0"
     inkscape:window-maximized="0"
     inkscape:current-layer="svg2" />
  <path
     d="M -1.4896176e-7,3.8795209e-7 H 512 V 512 H -1.4896176e-7 z"
     id="path4"
     inkscape:connector-curvature="0" />
  <g
     id="g3419"
     transform="matrix(-0.50496365,0.04961657,0.02867842,-0.42553659,320.76589,666.2748)">
    <path
       style="fill:#d0d0cf"
       d="m 318.18895,1278.5465 c -38.21878,-14.281 -55.21461,-54.7199 -78.85092,-84.7956 -13.00575,-30.1529 -40.34019,-50.185 -57.50513,-77.7551 -8.47333,-11.9547 -16.89197,-23.9481 -25.34276,-35.9188 -26.71287,1.6654 -57.417958,-6.3504 -79.272317,13.1798 -18.941881,18.8394 -60.835426,3.4389 -33.498754,-21.321 22.912756,-2.7878 43.529227,-36.1391 20.955689,-54.7907 C 35.642702,980.87525 -10.85885,960.29737 -30.332583,916.22202 -55.853408,869.17668 -57.007545,806.4617 -105.4489,774.25834 c -33.36838,-25.16693 -49.30626,-66.11095 -65.47259,-103.26049 -9.81179,-26.49417 -9.19636,-59.03796 -31.53361,-78.7899 -6.86048,-27.67998 38.54768,-3.09936 53.41141,1.08986 27.97333,8.53302 43.59631,34.05878 63.373984,52.94924 27.934098,32.54311 70.488335,47.62991 100.339692,78.39869 28.194139,23.44626 43.240368,57.32955 64.306501,86.32975 35.268443,42.49662 85.417273,70.73918 117.293263,116.10695 7.21551,21.6377 23.41603,52.84208 44.40297,23.48106 8.23766,-11.73883 24.14097,-39.06284 33.72821,-11.5387 7.85716,34.23861 -50.5376,52.3912 -29.07384,85.5021 29.15017,38.9848 53.54871,81.837 89.63658,115.2625 15.73567,24.4514 41.77158,44.3072 47.45015,73.8888 8.29431,26.5202 -0.96399,55.929 -30.57381,62.3108 -10.7004,3.5251 -22.58675,5.9272 -33.65106,2.5575 z m 16.8593,-23.0899 c 23.06619,-9.4441 -19.18403,-9.5823 -9.3725,2.2731 l 3.44071,-0.459 5.93179,-1.8141 z"
       id="path3439"
       inkscape:connector-curvature="0" />
    <path
       style="fill:#b0b0af"
       d="m 304.70271,1268.0237 c -23.83133,-16.6765 -38.03929,-43.2309 -55.25492,-66.1011 -13.35993,-25.4495 -31.6177,-47.285 -50.60105,-68.638 -17.99624,-20.3074 -27.59045,-55.4891 -58.37958,-59.0522 -32.49825,-5.1331 -59.254535,16.4566 -88.181881,26.3693 -28.077899,-4.5011 -7.43468,-32.0724 11.890034,-30.1386 27.875325,-22.8639 5.850621,-58.9601 -16.432104,-76.35627 C 21.85802,970.59858 -9.2883166,951.13807 -24.739683,918.39917 -51.959479,874.6906 -49.973654,815.80558 -92.020106,781.08037 c -23.992334,-19.92319 -46.727054,-42.34525 -58.543774,-71.83618 -16.04316,-27.48329 -22.48511,-58.55832 -29.72267,-89.06309 -0.1833,-14.48262 -46.3937,-43.29731 -11.56136,-39.73154 26.14682,8.77303 53.14272,18.89173 74.60617,36.55702 23.377821,29.99001 51.773203,56.69073 84.959959,75.69063 20.532447,17.19534 46.124887,28.76991 60.30109,52.31808 23.446003,17.97985 30.5679,48.56068 49.675057,70.3989 38.350544,44.58625 94.077444,73.89864 122.606804,126.64767 5.06249,9.59931 17.301,46.70997 29.53356,31.76838 16.42891,-10.29478 18.47936,-39.39063 35.93887,-40.43925 18.3113,27.24495 -25.37434,47.94501 -29.17055,74.26601 5.57486,29.7889 33.6129,51.9974 47.66298,79.1209 19.95901,29.1567 48.68483,51.1377 66.979,81.3293 24.08584,20.7347 37.25961,49.9889 32.2178,81.9592 -12.60662,18.1204 -7.16584,-32.8793 -26.1334,-15.5346 -15.21683,1.451 -56.12928,27.0018 -18.40332,24.1558 26.3433,-8.0861 21.90853,20.7815 -0.52246,19.2728 -11.98211,0.8409 -23.73633,-3.5897 -33.70094,-9.9367 z M 119.46614,1045.3225 c 1.99046,-13.0353 -19.976726,9.1639 -3.4284,2.8876 l 3.4284,-2.8876 z m 35.21186,-14.6532 c 3.90851,-7.3309 42.62223,-24.9141 21.07407,-27.1821 -10.75527,7.2988 -65.47355,30.6708 -29.85977,35.461 5.27175,1.7325 9.12513,-3.7599 8.7857,-8.2789 z"
       id="path3437"
       inkscape:connector-curvature="0" />
    <path
       style="fill:#909090"
       d="m 302.25112,1263.0548 c -25.57703,-22.0123 -43.61921,-51.2918 -62.07563,-79.1715 -15.35037,-26.9991 -39.48747,-48.321 -55.79801,-74.9807 -13.63192,-25.0978 -38.00844,-48.2656 -68.67725,-36.3371 -25.093672,-1.0295 -52.674832,36.2484 -72.994541,19.6312 5.116846,-29.1065 50.908653,-18.2971 69.902171,-39.3654 17.2413,-16.2952 43.95048,-0.7701 50.67586,-27.7427 25.09188,-17.1167 48.19108,-37.13347 74.22497,-53.14165 10.47794,-10.41882 17.88442,-31.5081 28.14063,-36.04332 6.22306,28.03487 -26.01566,46.71047 -30.2741,73.28197 3.86809,26.6863 29.66835,47.8044 42.68236,72.4941 25.07002,35.4003 57.28494,64.7866 82.51942,100.0579 18.02351,11.2729 30.36718,50.2573 20.76236,58.582 -8.80173,-27.9599 -57.23911,0.8121 -65.64249,17.4195 8.71166,5.7988 58.16831,7.9226 24.13039,15.2114 -13.48691,1.9189 -27.26883,-0.419 -37.57614,-9.8957 z M 80.498342,1043.0657 c -5.192121,-38.711 -44.521069,-57.90381 -70.002612,-82.70598 -36.546024,-34.21233 -51.726013,-83.00961 -66.472951,-129.24291 -8.854087,-32.53258 -38.021348,-50.70811 -59.340589,-74.18876 -29.70872,-36.11778 -51.37485,-79.26099 -59.22708,-125.54483 -1.54083,-21.97393 -25.05894,-34.30272 -31.0732,-51.11097 32.45497,3.44831 64.37149,21.67716 90.10591,42.0648 21.723655,23.07946 40.936902,48.54475 69.807002,63.71251 42.2594703,28.07769 82.647443,61.76673 105.968355,107.83001 35.664814,57.32844 103.879833,86.11425 136.187763,145.9299 1.31318,17.35567 36.02543,37.89097 4.04657,45.63702 -34.65828,19.09061 -69.32214,39.73331 -99.08542,65.83681 -7.782154,11.249 -24.258445,7.162 -20.913748,-8.2176 z"
       id="path3435"
       inkscape:connector-curvature="0" />
    <path
       style="fill:#6d6d6c"
       d="m 304.51181,1260.9441 c -26.38858,-22.3108 -45.58635,-51.8828 -64.335,-80.535 -11.0858,-23.4406 -33.79868,-39.3377 -47.13745,-61.7274 -15.08722,-22.4713 -31.90821,-53.6454 -63.98637,-48.8266 -31.047989,-5.1844 -54.397778,25.7258 -82.625438,25.8292 -5.333251,-26.7354 41.500568,-20.1563 57.502288,-33.4277 16.21897,-14.1591 38.50074,-16.8751 54.806,-16.69 5.37,-27.7007 41.01115,-40.4825 61.93211,-58.10598 16.93551,-1.91466 31.13901,-39.50663 41.1917,-31.70323 -6.9139,24.09567 -44.89666,44.25051 -24.25138,70.95821 22.50078,26.6963 36.62351,59.444 61.45869,84.4724 27.79784,27.0183 48.55632,59.7768 74.44118,88.4664 11.19788,10.9753 17.18853,41.1333 -2.44377,21.714 -17.18907,11.9729 -55.61391,13.8074 -57.06309,37.9359 8.16366,11.1471 49.02738,4.318 16.8261,13.7658 -10.43424,2.1378 -18.59935,-6.612 -26.31557,-12.126 z M 82.560152,1037.7373 C 70.208765,998.5273 31.86652,977.49545 3.7306087,950.84182 -28.798085,917.65264 -39.931576,871.59274 -54.165904,828.96021 -69.670837,781.02144 -124.32594,762.55911 -142.3183,716.15818 c -16.89392,-29.1248 -26.12066,-61.46869 -32.67266,-94.2205 2.37168,-16.91162 -52.8481,-46.5545 -16.11422,-37.60968 23.45349,9.05077 48.2815,16.91679 68.78318,31.63632 19.24439,28.34148 47.229548,50.09801 74.017878,71.20141 45.2788678,27.88885 86.400349,64.88604 109.964586,113.33021 35.456633,51.86596 96.586806,80.51612 129.384556,134.42982 9.16338,19.48262 34.45542,47.56185 -2.00863,51.8909 -28.08804,12.3535 -49.49093,35.16864 -76.58876,49.45464 -11.50064,10.7805 -24.083035,30.8052 -29.887478,1.466 z"
       id="path3433"
       inkscape:connector-curvature="0" />
    <path
       style="fill:#4c4c4b"
       d="m 283.06638,1238.5167 c -18.08156,-24.7082 -36.22448,-49.6029 -51.40134,-75.9781 -25.46894,-25.9312 -43.06941,-58.2068 -66.93129,-85.2748 -8.79296,-16.5342 -76.598429,-1.6686 -42.17698,-22.9595 15.91362,-14.4549 48.56996,13.5849 41.75556,-21.4192 20.58237,-12.7867 37.68886,-31.2915 58.88165,-43.69133 30.36704,-17.39639 -8.31727,32.20113 15.67708,42.25763 18.6576,22.0091 30.32706,48.7118 49.76857,70.2882 27.08345,32.1112 54.85796,63.6212 81.11261,96.4362 15.29382,10.7612 19.1513,26.1814 -4.44756,20.654 -22.02711,12.4394 -46.70128,22.6976 -64.08936,38.0353 -8.05048,-3.6005 -12.90109,-11.6873 -18.14894,-18.3484 z m -1.62566,-55.9792 c -14.34501,-31.9842 -17.86093,24.2105 0,0 z m -84.50848,-104.5049 c -11.30216,-14.7366 -4.95931,12.9453 0,0 z m -151.478774,13.9109 c -9.621121,-16.0985 44.718007,-20.9293 36.800504,-15.4607 -9.725113,7.2824 -23.72889,23.4621 -36.800504,15.4607 z m 41.803498,-42.6229 C 80.305702,1010.1685 48.056466,982.59272 16.623726,961.66041 -22.018966,928.15734 -36.150648,877.29759 -51.78719,830.65846 c -9.531474,-27.67741 -28.511166,-50.50045 -52.3775,-66.96198 -35.55245,-37.08908 -59.24686,-85.25172 -67.5101,-135.89473 -1.35314,-21.63115 -25.20635,-34.84574 -33.58964,-46.71793 27.73053,9.18024 56.50349,19.36847 80.49734,36.52484 27.770861,38.07369 66.516651,66.32248 106.105773,90.99111 35.512528,26.03285 62.786486,61.50229 83.369642,100.08288 34.700861,46.72656 88.884975,75.08372 122.295105,122.79225 3.40405,18.07398 38.45045,46.89336 3.64016,50.40331 -21.05525,25.09999 -32.52348,-12.45321 -49.53985,-18.68577 3.64116,21.49837 23.02976,51.07026 -11.91326,58.34556 -15.22445,5.4979 -26.54302,30.2374 -41.933516,27.7826 z m 43.946466,-48.7332 c -10.57468,-22.0538 -11.71749,14.5769 0,0 z m -14.08475,-18.64081 c -12.47231,-22.27203 -3.08281,19.72621 0,0 z"
       id="path3431"
       inkscape:connector-curvature="0" />
    <path
       style="fill:#4d423c"
       d="m 287.91397,1241.6653 c -26.77456,-32.2786 -44.72549,-70.8843 -73.98585,-101.1472 -20.4194,-22.7745 -31.72019,-54.3453 -58.01254,-71.2433 -14.56714,-5.7092 -30.56563,-2.9356 -45.83927,-3.6904 13.00398,-10.4388 29.0482,-18.0063 46.05415,-12.7649 19.84016,7.9272 7.24165,-10.5573 9.14616,-21.8557 29.87707,2.7678 38.27544,-37.76376 65.58552,-42.05407 -10.61879,28.17937 12.32936,50.31577 26.54038,72.65317 20.88409,33.31 48.15404,61.6541 74.10782,90.8602 8.27769,23.2788 45.04564,40.3458 40.2329,64.1667 -24.28462,11.8773 -57.00985,11.3444 -67.75901,38.9907 -7.28421,2.3184 -11.59204,-9.9413 -16.07026,-13.9152 z m -2.56567,-63.9988 c -15.2146,-29.505 -27.85017,21.5505 -2.29356,10.6861 2.88025,-2.6219 2.77602,-7.2332 2.29356,-10.6861 z m -81.65416,-102.1607 c 10.03269,-32.1593 -44.85715,7.6627 -8.54413,10.3558 4.5128,-1.5283 7.32562,-5.9897 8.54413,-10.3558 z m 176.71046,139.1598 c 5.2194,-15.6554 2.35073,18.3979 0,0 z M 46.694952,1088.2545 c 8.005055,-13.5257 36.457103,-3.2363 9.198901,4.4252 -3.514901,3.1292 -10.656255,1.379 -9.198901,-4.4252 z m 37.283755,-58.0999 C 69.277894,993.31872 29.781485,975.79993 5.8995204,945.7986 -25.175417,914.03137 -38.236789,870.90703 -50.355721,829.40363 -59.191658,792.5387 -93.363684,773.82634 -117.39914,748.1766 c -21.70224,-28.2715 -36.92429,-61.70993 -46.91589,-95.79854 0.5401,-25.62509 -12.96701,-48.611 -30.59397,-65.94733 16.53581,4.95234 54.0892,17.70244 70.58712,34.67147 30.752344,35.45383 66.907045,65.98606 106.547957,91.0047 32.869709,23.69651 58.208445,56.15516 76.976484,91.78009 36.012865,49.593 94.827439,78.37792 126.973659,131.03877 6.04523,15.33839 36.67872,50.61858 -1.27265,38.98695 -14.46364,-6.74094 -7.23701,22.48319 -18.58266,2.50724 -19.11642,-17.33384 -38.18409,-39.45428 -61.63651,-49.13158 -7.051594,13.86707 28.30859,22.05718 -1.65046,26.03684 -31.877035,5.53034 10.4361,39.59452 18.18682,53.72709 28.26993,8.4614 -21.386064,30.6079 -30.209413,42.3589 -2.950564,-6.1839 -4.861262,-12.7791 -7.03264,-19.2566 z M 176.284,938.36916 c -19.75014,-21.08973 11.3651,28.90841 2.72736,3.79918 l -2.72736,-3.79918 z m -82.032683,-4.8506 c -28.474113,-4.70534 -41.008246,-28.23305 -62.4595,-43.56924 -10.805574,17.42513 23.609741,40.01052 38.653169,47.19924 3.597272,-0.98032 32.271384,6.68327 23.806331,-3.63 z M 84.204283,915.50411 C 66.486091,891.66854 45.452201,868.37413 26.261622,845.71162 c -10.11686,0.9134 -8.945566,18.05519 -21.1629586,20.33285 -4.4976326,21.56363 29.3549276,24.21884 24.1021676,0.48684 12.98488,21.90359 35.869896,38.57856 51.968825,55.7215 2.637984,-1.00855 3.025466,-4.38148 3.034627,-6.7487 z M 51.389868,822.48465 c -1.553295,-17.98699 -34.187985,-4.81225 -9.826714,4.57739 4.009847,3.32565 10.900234,1.22173 9.826714,-4.57739 z"
       id="path3429"
       inkscape:connector-curvature="0" />
    <path
       style="fill:#453a33"
       d="m 283.60118,1234.7881 c -20.10893,-23.7377 -35.04411,-50.887 -52.99007,-75.681 -26.4119,-25.5592 -41.99055,-59.9884 -67.96013,-85.7026 -7.71915,-12.744 -64.92513,-2.7974 -33.88207,-19.0399 28.53945,-6.3483 50.80391,10.544 64.07215,33.97 24.19305,1.4406 21.75939,-70.8931 0.86174,-32.2459 -14.75487,5.3911 -47.29001,-31.1994 -12.74636,-27.6454 14.15003,-4.2243 36.32248,-48.67706 47.42963,-29.08381 -5.90318,29.82571 26.77613,49.68801 37.27644,75.40181 21.31657,23.7035 35.9538,53.2888 61.84712,72.2571 11.56987,25.0288 43.50334,43.5013 46.76927,69.382 -19.95705,3.048 -40.35751,16.5926 -62.04998,12.9685 3.17678,17.5024 -9.21074,35.8956 -22.06151,13.7759 l -3.16774,-3.8938 -3.39849,-4.4629 0,0 z m 23.26978,-23.2853 c -29.44162,-26.0332 7.40027,27.5022 0,0 z m 27.15281,-11.6249 c -14.74068,-5.0847 1.7055,25.3392 2.46482,2.6066 l -2.46482,-2.6066 z m -45.83871,-11.0286 c 9.29199,-25.2468 -20.59461,-30.5492 -34.20455,-34.347 10.4785,11.7322 9.39621,50.213 34.20455,34.347 z m -44.30366,-59.4658 c -12.38808,-30.5095 -11.11219,23.5715 0,0 z m 136.5232,85.2821 c 5.2194,-15.6554 2.35073,18.3979 0,0 z M 46.694952,1088.2545 c 8.005055,-13.5257 36.457103,-3.2363 9.198901,4.4252 -3.514901,3.1292 -10.656255,1.379 -9.198901,-4.4252 z M 85.211695,1030.9 C 70.390638,994.39814 31.265172,976.75667 7.0607679,947.31684 -23.733913,917.29637 -34.898723,875.06634 -47.20367,835.38726 c -10.199942,-34.02295 -37.193247,-57.74467 -63.05091,-80.15442 -24.86661,-24.87682 -37.81198,-59.0699 -50.07224,-91.3728 -7.48472,-27.04288 -8.90242,-62.1268 -37.11382,-76.11471 25.21913,8.36144 56.62546,15.02123 74.27974,35.98361 29.028227,34.11191 64.008465,62.88616 102.26739,86.0171 35.5586,24.86646 61.668746,60.23462 82.629134,97.64309 35.050656,45.18815 87.202526,74.02554 120.694136,120.4487 6.62222,16.12215 17.6331,37.01207 21.65059,47.20561 -14.39544,0.1329 -21.239,-14.79821 -37.59572,-7.25171 C 140.33977,955.16297 122.44409,925.42916 91.364585,923.73758 86.052492,897.67835 56.5557,886.22191 44.015894,862.85357 36.290229,851.33131 15.784104,824.814 16.51384,854.78508 c -33.933428,8.87017 8.797388,38.67584 15.152587,55.58818 17.827031,15.61488 33.117846,31.13587 56.189663,36.83921 -2.643715,29.38926 39.21921,52.16846 33.81065,73.91863 -16.86479,7.4355 -27.782998,50.9142 -36.455045,9.7689 z m 90.220365,-94.99955 c -27.99921,-24.92873 15.69866,40.85082 3.07774,4.6596 l -3.07774,-4.6596 z M 56.084783,825.34679 c -3.372274,-21.07004 -45.735642,-11.42809 -16.34815,1.65157 4.530735,1.00498 14.105174,4.14139 16.34815,-1.65157 z"
       id="path3427"
       inkscape:connector-curvature="0" />
    <path
       style="fill:#2e2d2c"
       d="m 281.65434,1232.475 c -20.30098,-23.3633 -33.56131,-51.2394 -52.61269,-75.0592 -25.93268,-24.1978 -39.1109,-58.5698 -64.44298,-82.9726 -7.08274,-14.2678 -60.33431,-2.7734 -40.06452,-18.4577 30.61544,-8.8585 51.53499,11.7382 67.84617,33.4423 24.75645,6.4138 32.27155,-59.9608 6.46545,-46.6394 -14.24203,19.6343 -51.89424,-19.2172 -15.4823,-12.0521 15.44813,-8.3291 27.17355,-41.73932 45.12436,-34.91754 -8.72264,30.50424 24.63055,49.36984 34.41417,75.29854 22.39932,21.9459 32.81946,54.3628 60.22828,71.0803 14.67976,24.6903 39.95069,43.9261 51.48574,69.4122 -13.94946,2.9717 -53.17205,32.9405 -33.88866,-1.4172 1.83689,-23.7819 -26.07326,-18.3449 -17.28347,4.6283 -8.70822,14.8817 -22.3831,-38.1856 -30.1483,-8.1599 9.70348,9.5967 26.83244,55.1559 0.83984,40.6178 -4.60159,-4.5403 -8.68084,-9.5834 -12.48109,-14.8038 z m 11.01976,-59.1084 c 9.12903,-16.2428 -11.63329,-49.1723 -16.76703,-17.2735 -8.25282,8.1094 -17.31785,-12.3251 -26.16066,-13.2563 -3.37193,-12.063 11.28533,-48.8241 -4.32522,-45.4464 2.06007,18.9358 -16.33864,21.8642 -21.71396,4.2928 -29.10225,-10.2286 8.16171,27.2931 13.38496,35.905 17.62654,18.1073 21.8481,45.3951 42.96002,58.5006 11.38357,2.7617 10.4699,-16.0797 12.62189,-22.7222 z m -17.78669,-45.1614 c -16.80974,-2.3666 7.20878,22.704 0,-6e-4 l 0,6e-4 z m 105.51719,86.4604 c 5.2194,-15.6554 2.35073,18.3979 0,0 z M 48.85721,1090.0379 c -8.652666,-14.0203 39.367506,-6.2811 14.647653,-1.2803 -4.104254,1.7455 -10.879332,6.0177 -14.647653,1.2803 z M 85.211695,1030.9 C 70.390638,994.39814 31.265172,976.75667 7.0607679,947.31684 -23.842713,917.21428 -34.920747,874.81582 -47.344395,835.05402 c -9.177052,-30.34278 -31.266374,-53.45943 -55.890615,-72.13306 -35.7995,-38.82707 -57.9438,-89.00809 -66.31356,-140.88244 -5.34938,-11.87458 -16.63819,-32.75265 7.09682,-21.63273 31.98831,9.80117 54.04277,36.84034 74.051998,61.87393 48.134772,37.88235 106.282762,67.79025 136.781511,123.52289 27.01173,58.59995 89.723551,85.37986 127.467841,135.15845 10.12966,8.81718 17.21237,30.98758 -1.06374,10.61949 -6.16057,-11.7097 -37.98552,-24.12473 -18.40991,-2.18756 12.25826,7.53905 22.90545,44.77469 -0.97048,27.79399 C 117.07358,928.10752 76.522645,900.24544 46.404769,862.14889 41.019415,847.1479 13.094481,820.97601 11.858954,851.43227 c -34.564807,-7.492 -4.3599022,35.46008 6.666506,45.05413 15.951682,21.06471 34.318759,44.81806 60.118447,53.93064 11.526952,23.98811 28.598103,44.75633 43.338913,66.81686 -9.33572,10.8239 -17.25635,23.1962 -28.538695,32.0901 -4.610783,-4.8651 -5.924512,-12.2689 -8.23243,-18.424 z M 141.45399,901.32972 c -18.74477,-6.34007 13.11382,18.66885 0,0 z M 56.084783,824.6729 c -1.908757,-24.26829 -51.6050622,-17.67884 -24.648306,3.6174 6.781277,3.66648 23.674063,8.87031 24.648306,-3.6174 z"
       id="path3425"
       inkscape:connector-curvature="0" />
    <path
       style="fill:#171818"
       d="m 289.27179,1240.5611 c -17.65594,-26.6365 -37.24446,-51.9734 -52.97553,-79.8466 -14.30154,-18.108 -52.55643,-48.6299 -43.48464,-66.5821 26.29544,18.4147 41.0397,49.1347 61.19006,73.6574 11.65382,26.7619 42.45257,40.5764 51.29015,69.8859 6.9612,20.1552 -10.94635,18.779 -16.02004,2.8854 z m 56.23175,-36.9122 c -6.68465,-19.3918 -41.59843,-44.3233 -43.46067,-12.4215 -11.68143,-17.6457 10.47515,-50.1148 -17.92552,-63.6236 -26.01642,-12.1846 -25.83616,-49.3772 -55.49457,-57.5997 -13.38612,-10.258 -11.70453,-37.6027 -19.39769,-53.8672 3.1759,-28.53225 20.4973,-16.1859 18.97969,5.3422 15.78085,25.1491 33.27278,49.6018 50.23339,74.1292 19.15959,26.97 46.05468,47.5937 62.94525,76.0828 10.84213,10.6052 47.63315,49.9477 8.85922,39.0308 l -2.87439,-2.8993 -1.86471,-4.1737 0,0 z m -92.23231,-68.6149 c 9.9252,-8.5682 9.82949,13.8129 0,0 z M 49.04241,1086.2102 c 20.856796,-15.821 8.853846,17.2872 0,0 z m 104.07912,-20.9579 c -10.66164,-2.1946 -47.56727,-4.2982 -14.61671,-7.0829 15.62306,-6.0108 44.42533,17.8287 14.61671,7.0829 l 0,0 z M 85.54671,1027.9452 C 68.68407,989.36942 28.218874,970.04495 1.399537,939.87109 -26.520169,905.77759 -36.293771,862.23892 -50.755084,821.74787 -67.596933,775.43665 -120.94564,757.01458 -138.27651,710.88604 c -14.59593,-25.84101 -24.80654,-53.96456 -27.74643,-83.57565 -1.97081,-12.83309 -21.94145,-35.72851 4.36611,-25.01451 29.47963,4.25958 41.68753,30.33988 61.38521,48.70549 38.944991,39.96601 90.9449155,64.23562 127.732249,106.63299 14.191029,15.17183 26.410901,40.7469 30.42751,57.39576 C 36.92029,802.58401 24.601281,753.98104 0.60144414,760.02102 -4.2304096,784.17714 20.412447,825.11711 -4.6164977,838.38694 c -18.9641383,-21.32496 -24.6419813,2.01284 -12.1640063,18.06198 22.899921,54.4472 72.407976,89.11566 109.442673,132.91926 18.974091,9.03595 18.583821,61.61592 -2.999373,50.11422 -1.672521,-3.7345 -2.9022,-7.6382 -4.116086,-11.5372 z M -89.457592,708.39474 c -10.054441,-18.47283 -28.225638,-30.70172 -42.904228,-45.37202 1.60703,19.18701 7.52876,40.34196 27.60992,47.9427 4.31512,2.4417 15.323632,6.08901 15.294308,-2.57068 z M 157.02546,907.26397 c -4.37941,-3.83475 -35.09313,-30.18743 -14.34794,-18.42329 5.23359,-2.08166 32.09547,29.55484 14.34794,18.42329 z M 88.94919,894.03808 c -11.940589,-13.95047 29.31633,9.12269 3.294753,1.69796 l -3.294753,-1.69796 z m 7.401698,-36.48355 C 84.187643,849.30139 50.732105,811.60817 81.83299,836.01915 c 14.140403,12.75572 44.54021,37.06254 45.2787,46.26556 -10.86252,-7.44353 -20.8091,-16.13331 -30.760802,-24.73018 z"
       id="path3423"
       inkscape:connector-curvature="0" />
    <path
       style="fill:#060606"
       d="m 290.83055,1237.4946 c -4.85897,-9.7473 -36.01464,-38.5983 -18.78936,-37.6627 9.93907,12.25 40.19185,37.2066 28.04844,49.4195 -4.40799,-2.7265 -7.03845,-7.2744 -9.25908,-11.7568 z m 66.0937,-33.4634 c -13.41785,-19.0351 -51.97562,-45.6048 -47.75208,-64.1462 22.32409,17.8262 40.75211,43.1838 55.32437,67.5275 -2.78567,1.564 -5.82574,-2.548 -7.57229,-3.3813 z m -107.91967,-25.3687 c -13.56648,-44.7212 22.04538,28.109 0,0 z m -22.48321,-32.143 c -10.74,-11.9847 -32.88938,-34.5648 -31.0989,-44.9896 15.16183,15.9137 33.29619,37.7364 42.39202,53.9076 -4.25261,-2.3116 -7.78381,-5.6501 -11.29312,-8.918 z m 48.67985,-38.8966 c -19.09106,-29.7967 -47.7556,-54.7149 -58.62459,-89.072 -5.28432,-12.883 9.52601,-27.4859 5.0655,-5.316 12.39789,27.292 32.60078,50.9339 49.02251,76.1174 9.93515,5.6702 30.33454,46.7723 7.24692,21.86 l -2.71034,-3.5894 z M 87.346341,1023.9632 C 63.164974,976.52981 5.6162826,957.91686 -15.901522,908.58431 -38.633223,863.83894 -41.589325,807.92663 -81.94541,773.30437 -119.925,748.42211 -139.79495,705.2684 -155.20793,664.15294 c -4.50827,-9.81633 -5.20068,-35.03219 3.13804,-11.29193 11.42997,31.21359 30.27197,59.18733 56.019584,80.35272 29.595239,28.09508 53.186152,62.82198 63.919859,102.5093 14.374967,36.50687 33.2212962,72.86649 64.431701,97.78046 19.969525,32.17832 60.419572,50.80982 69.591156,89.79001 0.68945,20.8939 -10.769614,15.9976 -14.546069,0.6697 z M -30.77115,718.21947 c -28.07675,1.67055 -47.921598,-23.88406 -65.984927,-42.35308 -1.920503,-29.16923 40.187795,28.74899 60.518932,28.58479 4.727212,3.533 31.9927147,22.68568 5.465995,13.76829 z m -117.20447,-98.60288 c -8.52426,-4.71488 -31.33293,-20.21011 -6.67468,-11.68099 16.87511,-3.32355 41.5371,36.53986 13.7169,16.28512 l -3.28166,-2.14306 -3.76056,-2.46107 0,0 z"
       id="path3421"
       inkscape:connector-curvature="0" />
  </g>
  <g
     transform="matrix(-0.32815336,0.10810753,-0.15837876,-0.23812905,462.07787,309.13305)"
     id="g3473">
    <path
       inkscape:connector-curvature="0"
       id="path3475"
       d="m 318.18895,1278.5465 c -38.21878,-14.281 -55.21461,-54.7199 -78.85092,-84.7956 -13.00575,-30.1529 -40.34019,-50.185 -57.50513,-77.7551 -8.47333,-11.9547 -16.89197,-23.9481 -25.34276,-35.9188 -26.71287,1.6654 -57.417958,-6.3504 -79.272317,13.1798 -18.941881,18.8394 -60.835426,3.4389 -33.498754,-21.321 22.912756,-2.7878 43.529227,-36.1391 20.955689,-54.7907 C 35.642702,980.87525 -10.85885,960.29737 -30.332583,916.22202 -55.853408,869.17668 -57.007545,806.4617 -105.4489,774.25834 c -33.36838,-25.16693 -49.30626,-66.11095 -65.47259,-103.26049 -9.81179,-26.49417 -9.19636,-59.03796 -31.53361,-78.7899 -6.86048,-27.67998 38.54768,-3.09936 53.41141,1.08986 27.97333,8.53302 43.59631,34.05878 63.373984,52.94924 27.934098,32.54311 70.488335,47.62991 100.339692,78.39869 28.194139,23.44626 43.240368,57.32955 64.306501,86.32975 35.268443,42.49662 85.417273,70.73918 117.293263,116.10695 7.21551,21.6377 23.41603,52.84208 44.40297,23.48106 8.23766,-11.73883 24.14097,-39.06284 33.72821,-11.5387 7.85716,34.23861 -50.5376,52.3912 -29.07384,85.5021 29.15017,38.9848 53.54871,81.837 89.63658,115.2625 15.73567,24.4514 41.77158,44.3072 47.45015,73.8888 8.29431,26.5202 -0.96399,55.929 -30.57381,62.3108 -10.7004,3.5251 -22.58675,5.9272 -33.65106,2.5575 z m 16.8593,-23.0899 c 23.06619,-9.4441 -19.18403,-9.5823 -9.3725,2.2731 l 3.44071,-0.459 5.93179,-1.8141 z"
       style="fill:#d0d0cf" />
    <path
       inkscape:connector-curvature="0"
       id="path3477"
       d="m 304.70271,1268.0237 c -23.83133,-16.6765 -38.03929,-43.2309 -55.25492,-66.1011 -13.35993,-25.4495 -31.6177,-47.285 -50.60105,-68.638 -17.99624,-20.3074 -27.59045,-55.4891 -58.37958,-59.0522 -32.49825,-5.1331 -59.254535,16.4566 -88.181881,26.3693 -28.077899,-4.5011 -7.43468,-32.0724 11.890034,-30.1386 27.875325,-22.8639 5.850621,-58.9601 -16.432104,-76.35627 C 21.85802,970.59858 -9.2883166,951.13807 -24.739683,918.39917 -51.959479,874.6906 -49.973654,815.80558 -92.020106,781.08037 c -23.992334,-19.92319 -46.727054,-42.34525 -58.543774,-71.83618 -16.04316,-27.48329 -22.48511,-58.55832 -29.72267,-89.06309 -0.1833,-14.48262 -46.3937,-43.29731 -11.56136,-39.73154 26.14682,8.77303 53.14272,18.89173 74.60617,36.55702 23.377821,29.99001 51.773203,56.69073 84.959959,75.69063 20.532447,17.19534 46.124887,28.76991 60.30109,52.31808 23.446003,17.97985 30.5679,48.56068 49.675057,70.3989 38.350544,44.58625 94.077444,73.89864 122.606804,126.64767 5.06249,9.59931 17.301,46.70997 29.53356,31.76838 16.42891,-10.29478 18.47936,-39.39063 35.93887,-40.43925 18.3113,27.24495 -25.37434,47.94501 -29.17055,74.26601 5.57486,29.7889 33.6129,51.9974 47.66298,79.1209 19.95901,29.1567 48.68483,51.1377 66.979,81.3293 24.08584,20.7347 37.25961,49.9889 32.2178,81.9592 -12.60662,18.1204 -7.16584,-32.8793 -26.1334,-15.5346 -15.21683,1.451 -56.12928,27.0018 -18.40332,24.1558 26.3433,-8.0861 21.90853,20.7815 -0.52246,19.2728 -11.98211,0.8409 -23.73633,-3.5897 -33.70094,-9.9367 z M 119.46614,1045.3225 c 1.99046,-13.0353 -19.976726,9.1639 -3.4284,2.8876 l 3.4284,-2.8876 z m 35.21186,-14.6532 c 3.90851,-7.3309 42.62223,-24.9141 21.07407,-27.1821 -10.75527,7.2988 -65.47355,30.6708 -29.85977,35.461 5.27175,1.7325 9.12513,-3.7599 8.7857,-8.2789 z"
       style="fill:#b0b0af" />
    <path
       inkscape:connector-curvature="0"
       id="path3479"
       d="m 302.25112,1263.0548 c -25.57703,-22.0123 -43.61921,-51.2918 -62.07563,-79.1715 -15.35037,-26.9991 -39.48747,-48.321 -55.79801,-74.9807 -13.63192,-25.0978 -38.00844,-48.2656 -68.67725,-36.3371 -25.093672,-1.0295 -52.674832,36.2484 -72.994541,19.6312 5.116846,-29.1065 50.908653,-18.2971 69.902171,-39.3654 17.2413,-16.2952 43.95048,-0.7701 50.67586,-27.7427 25.09188,-17.1167 48.19108,-37.13347 74.22497,-53.14165 10.47794,-10.41882 17.88442,-31.5081 28.14063,-36.04332 6.22306,28.03487 -26.01566,46.71047 -30.2741,73.28197 3.86809,26.6863 29.66835,47.8044 42.68236,72.4941 25.07002,35.4003 57.28494,64.7866 82.51942,100.0579 18.02351,11.2729 30.36718,50.2573 20.76236,58.582 -8.80173,-27.9599 -57.23911,0.8121 -65.64249,17.4195 8.71166,5.7988 58.16831,7.9226 24.13039,15.2114 -13.48691,1.9189 -27.26883,-0.419 -37.57614,-9.8957 z M 80.498342,1043.0657 c -5.192121,-38.711 -44.521069,-57.90381 -70.002612,-82.70598 -36.546024,-34.21233 -51.726013,-83.00961 -66.472951,-129.24291 -8.854087,-32.53258 -38.021348,-50.70811 -59.340589,-74.18876 -29.70872,-36.11778 -51.37485,-79.26099 -59.22708,-125.54483 -1.54083,-21.97393 -25.05894,-34.30272 -31.0732,-51.11097 32.45497,3.44831 64.37149,21.67716 90.10591,42.0648 21.723655,23.07946 40.936902,48.54475 69.807002,63.71251 42.2594703,28.07769 82.647443,61.76673 105.968355,107.83001 35.664814,57.32844 103.879833,86.11425 136.187763,145.9299 1.31318,17.35567 36.02543,37.89097 4.04657,45.63702 -34.65828,19.09061 -69.32214,39.73331 -99.08542,65.83681 -7.782154,11.249 -24.258445,7.162 -20.913748,-8.2176 z"
       style="fill:#909090" />
    <path
       inkscape:connector-curvature="0"
       id="path3481"
       d="m 304.51181,1260.9441 c -26.38858,-22.3108 -45.58635,-51.8828 -64.335,-80.535 -11.0858,-23.4406 -33.79868,-39.3377 -47.13745,-61.7274 -15.08722,-22.4713 -31.90821,-53.6454 -63.98637,-48.8266 -31.047989,-5.1844 -54.397778,25.7258 -82.625438,25.8292 -5.333251,-26.7354 41.500568,-20.1563 57.502288,-33.4277 16.21897,-14.1591 38.50074,-16.8751 54.806,-16.69 5.37,-27.7007 41.01115,-40.4825 61.93211,-58.10598 16.93551,-1.91466 31.13901,-39.50663 41.1917,-31.70323 -6.9139,24.09567 -44.89666,44.25051 -24.25138,70.95821 22.50078,26.6963 36.62351,59.444 61.45869,84.4724 27.79784,27.0183 48.55632,59.7768 74.44118,88.4664 11.19788,10.9753 17.18853,41.1333 -2.44377,21.714 -17.18907,11.9729 -55.61391,13.8074 -57.06309,37.9359 8.16366,11.1471 49.02738,4.318 16.8261,13.7658 -10.43424,2.1378 -18.59935,-6.612 -26.31557,-12.126 z M 82.560152,1037.7373 C 70.208765,998.5273 31.86652,977.49545 3.7306087,950.84182 -28.798085,917.65264 -39.931576,871.59274 -54.165904,828.96021 -69.670837,781.02144 -124.32594,762.55911 -142.3183,716.15818 c -16.89392,-29.1248 -26.12066,-61.46869 -32.67266,-94.2205 2.37168,-16.91162 -52.8481,-46.5545 -16.11422,-37.60968 23.45349,9.05077 48.2815,16.91679 68.78318,31.63632 19.24439,28.34148 47.229548,50.09801 74.017878,71.20141 45.2788678,27.88885 86.400349,64.88604 109.964586,113.33021 35.456633,51.86596 96.586806,80.51612 129.384556,134.42982 9.16338,19.48262 34.45542,47.56185 -2.00863,51.8909 -28.08804,12.3535 -49.49093,35.16864 -76.58876,49.45464 -11.50064,10.7805 -24.083035,30.8052 -29.887478,1.466 z"
       style="fill:#6d6d6c" />
    <path
       inkscape:connector-curvature="0"
       id="path3483"
       d="m 283.06638,1238.5167 c -18.08156,-24.7082 -36.22448,-49.6029 -51.40134,-75.9781 -25.46894,-25.9312 -43.06941,-58.2068 -66.93129,-85.2748 -8.79296,-16.5342 -76.598429,-1.6686 -42.17698,-22.9595 15.91362,-14.4549 48.56996,13.5849 41.75556,-21.4192 20.58237,-12.7867 37.68886,-31.2915 58.88165,-43.69133 30.36704,-17.39639 -8.31727,32.20113 15.67708,42.25763 18.6576,22.0091 30.32706,48.7118 49.76857,70.2882 27.08345,32.1112 54.85796,63.6212 81.11261,96.4362 15.29382,10.7612 19.1513,26.1814 -4.44756,20.654 -22.02711,12.4394 -46.70128,22.6976 -64.08936,38.0353 -8.05048,-3.6005 -12.90109,-11.6873 -18.14894,-18.3484 z m -1.62566,-55.9792 c -14.34501,-31.9842 -17.86093,24.2105 0,0 z m -84.50848,-104.5049 c -11.30216,-14.7366 -4.95931,12.9453 0,0 z m -151.478774,13.9109 c -9.621121,-16.0985 44.718007,-20.9293 36.800504,-15.4607 -9.725113,7.2824 -23.72889,23.4621 -36.800504,15.4607 z m 41.803498,-42.6229 C 80.305702,1010.1685 48.056466,982.59272 16.623726,961.66041 -22.018966,928.15734 -36.150648,877.29759 -51.78719,830.65846 c -9.531474,-27.67741 -28.511166,-50.50045 -52.3775,-66.96198 -35.55245,-37.08908 -59.24686,-85.25172 -67.5101,-135.89473 -1.35314,-21.63115 -25.20635,-34.84574 -33.58964,-46.71793 27.73053,9.18024 56.50349,19.36847 80.49734,36.52484 27.770861,38.07369 66.516651,66.32248 106.105773,90.99111 35.512528,26.03285 62.786486,61.50229 83.369642,100.08288 34.700861,46.72656 88.884975,75.08372 122.295105,122.79225 3.40405,18.07398 38.45045,46.89336 3.64016,50.40331 -21.05525,25.09999 -32.52348,-12.45321 -49.53985,-18.68577 3.64116,21.49837 23.02976,51.07026 -11.91326,58.34556 -15.22445,5.4979 -26.54302,30.2374 -41.933516,27.7826 z m 43.946466,-48.7332 c -10.57468,-22.0538 -11.71749,14.5769 0,0 z m -14.08475,-18.64081 c -12.47231,-22.27203 -3.08281,19.72621 0,0 z"
       style="fill:#4c4c4b" />
    <path
       inkscape:connector-curvature="0"
       id="path3485"
       d="m 287.91397,1241.6653 c -26.77456,-32.2786 -44.72549,-70.8843 -73.98585,-101.1472 -20.4194,-22.7745 -31.72019,-54.3453 -58.01254,-71.2433 -14.56714,-5.7092 -30.56563,-2.9356 -45.83927,-3.6904 13.00398,-10.4388 29.0482,-18.0063 46.05415,-12.7649 19.84016,7.9272 7.24165,-10.5573 9.14616,-21.8557 29.87707,2.7678 38.27544,-37.76376 65.58552,-42.05407 -10.61879,28.17937 12.32936,50.31577 26.54038,72.65317 20.88409,33.31 48.15404,61.6541 74.10782,90.8602 8.27769,23.2788 45.04564,40.3458 40.2329,64.1667 -24.28462,11.8773 -57.00985,11.3444 -67.75901,38.9907 -7.28421,2.3184 -11.59204,-9.9413 -16.07026,-13.9152 z m -2.56567,-63.9988 c -15.2146,-29.505 -27.85017,21.5505 -2.29356,10.6861 2.88025,-2.6219 2.77602,-7.2332 2.29356,-10.6861 z m -81.65416,-102.1607 c 10.03269,-32.1593 -44.85715,7.6627 -8.54413,10.3558 4.5128,-1.5283 7.32562,-5.9897 8.54413,-10.3558 z m 176.71046,139.1598 c 5.2194,-15.6554 2.35073,18.3979 0,0 z M 46.694952,1088.2545 c 8.005055,-13.5257 36.457103,-3.2363 9.198901,4.4252 -3.514901,3.1292 -10.656255,1.379 -9.198901,-4.4252 z m 37.283755,-58.0999 C 69.277894,993.31872 29.781485,975.79993 5.8995204,945.7986 -25.175417,914.03137 -38.236789,870.90703 -50.355721,829.40363 -59.191658,792.5387 -93.363684,773.82634 -117.39914,748.1766 c -21.70224,-28.2715 -36.92429,-61.70993 -46.91589,-95.79854 0.5401,-25.62509 -12.96701,-48.611 -30.59397,-65.94733 16.53581,4.95234 54.0892,17.70244 70.58712,34.67147 30.752344,35.45383 66.907045,65.98606 106.547957,91.0047 32.869709,23.69651 58.208445,56.15516 76.976484,91.78009 36.012865,49.593 94.827439,78.37792 126.973659,131.03877 6.04523,15.33839 36.67872,50.61858 -1.27265,38.98695 -14.46364,-6.74094 -7.23701,22.48319 -18.58266,2.50724 -19.11642,-17.33384 -38.18409,-39.45428 -61.63651,-49.13158 -7.051594,13.86707 28.30859,22.05718 -1.65046,26.03684 -31.877035,5.53034 10.4361,39.59452 18.18682,53.72709 28.26993,8.4614 -21.386064,30.6079 -30.209413,42.3589 -2.950564,-6.1839 -4.861262,-12.7791 -7.03264,-19.2566 z M 176.284,938.36916 c -19.75014,-21.08973 11.3651,28.90841 2.72736,3.79918 l -2.72736,-3.79918 z m -82.032683,-4.8506 c -28.474113,-4.70534 -41.008246,-28.23305 -62.4595,-43.56924 -10.805574,17.42513 23.609741,40.01052 38.653169,47.19924 3.597272,-0.98032 32.271384,6.68327 23.806331,-3.63 z M 84.204283,915.50411 C 66.486091,891.66854 45.452201,868.37413 26.261622,845.71162 c -10.11686,0.9134 -8.945566,18.05519 -21.1629586,20.33285 -4.4976326,21.56363 29.3549276,24.21884 24.1021676,0.48684 12.98488,21.90359 35.869896,38.57856 51.968825,55.7215 2.637984,-1.00855 3.025466,-4.38148 3.034627,-6.7487 z M 51.389868,822.48465 c -1.553295,-17.98699 -34.187985,-4.81225 -9.826714,4.57739 4.009847,3.32565 10.900234,1.22173 9.826714,-4.57739 z"
       style="fill:#4d423c" />
    <path
       inkscape:connector-curvature="0"
       id="path3487"
       d="m 283.60118,1234.7881 c -20.10893,-23.7377 -35.04411,-50.887 -52.99007,-75.681 -26.4119,-25.5592 -41.99055,-59.9884 -67.96013,-85.7026 -7.71915,-12.744 -64.92513,-2.7974 -33.88207,-19.0399 28.53945,-6.3483 50.80391,10.544 64.07215,33.97 24.19305,1.4406 21.75939,-70.8931 0.86174,-32.2459 -14.75487,5.3911 -47.29001,-31.1994 -12.74636,-27.6454 14.15003,-4.2243 36.32248,-48.67706 47.42963,-29.08381 -5.90318,29.82571 26.77613,49.68801 37.27644,75.40181 21.31657,23.7035 35.9538,53.2888 61.84712,72.2571 11.56987,25.0288 43.50334,43.5013 46.76927,69.382 -19.95705,3.048 -40.35751,16.5926 -62.04998,12.9685 3.17678,17.5024 -9.21074,35.8956 -22.06151,13.7759 l -3.16774,-3.8938 -3.39849,-4.4629 0,0 z m 23.26978,-23.2853 c -29.44162,-26.0332 7.40027,27.5022 0,0 z m 27.15281,-11.6249 c -14.74068,-5.0847 1.7055,25.3392 2.46482,2.6066 l -2.46482,-2.6066 z m -45.83871,-11.0286 c 9.29199,-25.2468 -20.59461,-30.5492 -34.20455,-34.347 10.4785,11.7322 9.39621,50.213 34.20455,34.347 z m -44.30366,-59.4658 c -12.38808,-30.5095 -11.11219,23.5715 0,0 z m 136.5232,85.2821 c 5.2194,-15.6554 2.35073,18.3979 0,0 z M 46.694952,1088.2545 c 8.005055,-13.5257 36.457103,-3.2363 9.198901,4.4252 -3.514901,3.1292 -10.656255,1.379 -9.198901,-4.4252 z M 85.211695,1030.9 C 70.390638,994.39814 31.265172,976.75667 7.0607679,947.31684 -23.733913,917.29637 -34.898723,875.06634 -47.20367,835.38726 c -10.199942,-34.02295 -37.193247,-57.74467 -63.05091,-80.15442 -24.86661,-24.87682 -37.81198,-59.0699 -50.07224,-91.3728 -7.48472,-27.04288 -8.90242,-62.1268 -37.11382,-76.11471 25.21913,8.36144 56.62546,15.02123 74.27974,35.98361 29.028227,34.11191 64.008465,62.88616 102.26739,86.0171 35.5586,24.86646 61.668746,60.23462 82.629134,97.64309 35.050656,45.18815 87.202526,74.02554 120.694136,120.4487 6.62222,16.12215 17.6331,37.01207 21.65059,47.20561 -14.39544,0.1329 -21.239,-14.79821 -37.59572,-7.25171 C 140.33977,955.16297 122.44409,925.42916 91.364585,923.73758 86.052492,897.67835 56.5557,886.22191 44.015894,862.85357 36.290229,851.33131 15.784104,824.814 16.51384,854.78508 c -33.933428,8.87017 8.797388,38.67584 15.152587,55.58818 17.827031,15.61488 33.117846,31.13587 56.189663,36.83921 -2.643715,29.38926 39.21921,52.16846 33.81065,73.91863 -16.86479,7.4355 -27.782998,50.9142 -36.455045,9.7689 z m 90.220365,-94.99955 c -27.99921,-24.92873 15.69866,40.85082 3.07774,4.6596 l -3.07774,-4.6596 z M 56.084783,825.34679 c -3.372274,-21.07004 -45.735642,-11.42809 -16.34815,1.65157 4.530735,1.00498 14.105174,4.14139 16.34815,-1.65157 z"
       style="fill:#453a33" />
    <path
       inkscape:connector-curvature="0"
       id="path3489"
       d="m 281.65434,1232.475 c -20.30098,-23.3633 -33.56131,-51.2394 -52.61269,-75.0592 -25.93268,-24.1978 -39.1109,-58.5698 -64.44298,-82.9726 -7.08274,-14.2678 -60.33431,-2.7734 -40.06452,-18.4577 30.61544,-8.8585 51.53499,11.7382 67.84617,33.4423 24.75645,6.4138 32.27155,-59.9608 6.46545,-46.6394 -14.24203,19.6343 -51.89424,-19.2172 -15.4823,-12.0521 15.44813,-8.3291 27.17355,-41.73932 45.12436,-34.91754 -8.72264,30.50424 24.63055,49.36984 34.41417,75.29854 22.39932,21.9459 32.81946,54.3628 60.22828,71.0803 14.67976,24.6903 39.95069,43.9261 51.48574,69.4122 -13.94946,2.9717 -53.17205,32.9405 -33.88866,-1.4172 1.83689,-23.7819 -26.07326,-18.3449 -17.28347,4.6283 -8.70822,14.8817 -22.3831,-38.1856 -30.1483,-8.1599 9.70348,9.5967 26.83244,55.1559 0.83984,40.6178 -4.60159,-4.5403 -8.68084,-9.5834 -12.48109,-14.8038 z m 11.01976,-59.1084 c 9.12903,-16.2428 -11.63329,-49.1723 -16.76703,-17.2735 -8.25282,8.1094 -17.31785,-12.3251 -26.16066,-13.2563 -3.37193,-12.063 11.28533,-48.8241 -4.32522,-45.4464 2.06007,18.9358 -16.33864,21.8642 -21.71396,4.2928 -29.10225,-10.2286 8.16171,27.2931 13.38496,35.905 17.62654,18.1073 21.8481,45.3951 42.96002,58.5006 11.38357,2.7617 10.4699,-16.0797 12.62189,-22.7222 z m -17.78669,-45.1614 c -16.80974,-2.3666 7.20878,22.704 0,-6e-4 l 0,6e-4 z m 105.51719,86.4604 c 5.2194,-15.6554 2.35073,18.3979 0,0 z M 48.85721,1090.0379 c -8.652666,-14.0203 39.367506,-6.2811 14.647653,-1.2803 -4.104254,1.7455 -10.879332,6.0177 -14.647653,1.2803 z M 85.211695,1030.9 C 70.390638,994.39814 31.265172,976.75667 7.0607679,947.31684 -23.842713,917.21428 -34.920747,874.81582 -47.344395,835.05402 c -9.177052,-30.34278 -31.266374,-53.45943 -55.890615,-72.13306 -35.7995,-38.82707 -57.9438,-89.00809 -66.31356,-140.88244 -5.34938,-11.87458 -16.63819,-32.75265 7.09682,-21.63273 31.98831,9.80117 54.04277,36.84034 74.051998,61.87393 48.134772,37.88235 106.282762,67.79025 136.781511,123.52289 27.01173,58.59995 89.723551,85.37986 127.467841,135.15845 10.12966,8.81718 17.21237,30.98758 -1.06374,10.61949 -6.16057,-11.7097 -37.98552,-24.12473 -18.40991,-2.18756 12.25826,7.53905 22.90545,44.77469 -0.97048,27.79399 C 117.07358,928.10752 76.522645,900.24544 46.404769,862.14889 41.019415,847.1479 13.094481,820.97601 11.858954,851.43227 c -34.564807,-7.492 -4.3599022,35.46008 6.666506,45.05413 15.951682,21.06471 34.318759,44.81806 60.118447,53.93064 11.526952,23.98811 28.598103,44.75633 43.338913,66.81686 -9.33572,10.8239 -17.25635,23.1962 -28.538695,32.0901 -4.610783,-4.8651 -5.924512,-12.2689 -8.23243,-18.424 z M 141.45399,901.32972 c -18.74477,-6.34007 13.11382,18.66885 0,0 z M 56.084783,824.6729 c -1.908757,-24.26829 -51.6050622,-17.67884 -24.648306,3.6174 6.781277,3.66648 23.674063,8.87031 24.648306,-3.6174 z"
       style="fill:#2e2d2c" />
    <path
       inkscape:connector-curvature="0"
       id="path3491"
       d="m 289.27179,1240.5611 c -17.65594,-26.6365 -37.24446,-51.9734 -52.97553,-79.8466 -14.30154,-18.108 -52.55643,-48.6299 -43.48464,-66.5821 26.29544,18.4147 41.0397,49.1347 61.19006,73.6574 11.65382,26.7619 42.45257,40.5764 51.29015,69.8859 6.9612,20.1552 -10.94635,18.779 -16.02004,2.8854 z m 56.23175,-36.9122 c -6.68465,-19.3918 -41.59843,-44.3233 -43.46067,-12.4215 -11.68143,-17.6457 10.47515,-50.1148 -17.92552,-63.6236 -26.01642,-12.1846 -25.83616,-49.3772 -55.49457,-57.5997 -13.38612,-10.258 -11.70453,-37.6027 -19.39769,-53.8672 3.1759,-28.53225 20.4973,-16.1859 18.97969,5.3422 15.78085,25.1491 33.27278,49.6018 50.23339,74.1292 19.15959,26.97 46.05468,47.5937 62.94525,76.0828 10.84213,10.6052 47.63315,49.9477 8.85922,39.0308 l -2.87439,-2.8993 -1.86471,-4.1737 0,0 z m -92.23231,-68.6149 c 9.9252,-8.5682 9.82949,13.8129 0,0 z M 49.04241,1086.2102 c 20.856796,-15.821 8.853846,17.2872 0,0 z m 104.07912,-20.9579 c -10.66164,-2.1946 -47.56727,-4.2982 -14.61671,-7.0829 15.62306,-6.0108 44.42533,17.8287 14.61671,7.0829 l 0,0 z M 85.54671,1027.9452 C 68.68407,989.36942 28.218874,970.04495 1.399537,939.87109 -26.520169,905.77759 -36.293771,862.23892 -50.755084,821.74787 -67.596933,775.43665 -120.94564,757.01458 -138.27651,710.88604 c -14.59593,-25.84101 -24.80654,-53.96456 -27.74643,-83.57565 -1.97081,-12.83309 -21.94145,-35.72851 4.36611,-25.01451 29.47963,4.25958 41.68753,30.33988 61.38521,48.70549 38.944991,39.96601 90.9449155,64.23562 127.732249,106.63299 14.191029,15.17183 26.410901,40.7469 30.42751,57.39576 C 36.92029,802.58401 24.601281,753.98104 0.60144414,760.02102 -4.2304096,784.17714 20.412447,825.11711 -4.6164977,838.38694 c -18.9641383,-21.32496 -24.6419813,2.01284 -12.1640063,18.06198 22.899921,54.4472 72.407976,89.11566 109.442673,132.91926 18.974091,9.03595 18.583821,61.61592 -2.999373,50.11422 -1.672521,-3.7345 -2.9022,-7.6382 -4.116086,-11.5372 z M -89.457592,708.39474 c -10.054441,-18.47283 -28.225638,-30.70172 -42.904228,-45.37202 1.60703,19.18701 7.52876,40.34196 27.60992,47.9427 4.31512,2.4417 15.323632,6.08901 15.294308,-2.57068 z M 157.02546,907.26397 c -4.37941,-3.83475 -35.09313,-30.18743 -14.34794,-18.42329 5.23359,-2.08166 32.09547,29.55484 14.34794,18.42329 z M 88.94919,894.03808 c -11.940589,-13.95047 29.31633,9.12269 3.294753,1.69796 l -3.294753,-1.69796 z m 7.401698,-36.48355 C 84.187643,849.30139 50.732105,811.60817 81.83299,836.01915 c 14.140403,12.75572 44.54021,37.06254 45.2787,46.26556 -10.86252,-7.44353 -20.8091,-16.13331 -30.760802,-24.73018 z"
       style="fill:#171818" />
    <path
       inkscape:connector-curvature="0"
       id="path3493"
       d="m 290.83055,1237.4946 c -4.85897,-9.7473 -36.01464,-38.5983 -18.78936,-37.6627 9.93907,12.25 40.19185,37.2066 28.04844,49.4195 -4.40799,-2.7265 -7.03845,-7.2744 -9.25908,-11.7568 z m 66.0937,-33.4634 c -13.41785,-19.0351 -51.97562,-45.6048 -47.75208,-64.1462 22.32409,17.8262 40.75211,43.1838 55.32437,67.5275 -2.78567,1.564 -5.82574,-2.548 -7.57229,-3.3813 z m -107.91967,-25.3687 c -13.56648,-44.7212 22.04538,28.109 0,0 z m -22.48321,-32.143 c -10.74,-11.9847 -32.88938,-34.5648 -31.0989,-44.9896 15.16183,15.9137 33.29619,37.7364 42.39202,53.9076 -4.25261,-2.3116 -7.78381,-5.6501 -11.29312,-8.918 z m 48.67985,-38.8966 c -19.09106,-29.7967 -47.7556,-54.7149 -58.62459,-89.072 -5.28432,-12.883 9.52601,-27.4859 5.0655,-5.316 12.39789,27.292 32.60078,50.9339 49.02251,76.1174 9.93515,5.6702 30.33454,46.7723 7.24692,21.86 l -2.71034,-3.5894 z M 87.346341,1023.9632 C 63.164974,976.52981 5.6162826,957.91686 -15.901522,908.58431 -38.633223,863.83894 -41.589325,807.92663 -81.94541,773.30437 -119.925,748.42211 -139.79495,705.2684 -155.20793,664.15294 c -4.50827,-9.81633 -5.20068,-35.03219 3.13804,-11.29193 11.42997,31.21359 30.27197,59.18733 56.019584,80.35272 29.595239,28.09508 53.186152,62.82198 63.919859,102.5093 14.374967,36.50687 33.2212962,72.86649 64.431701,97.78046 19.969525,32.17832 60.419572,50.80982 69.591156,89.79001 0.68945,20.8939 -10.769614,15.9976 -14.546069,0.6697 z M -30.77115,718.21947 c -28.07675,1.67055 -47.921598,-23.88406 -65.984927,-42.35308 -1.920503,-29.16923 40.187795,28.74899 60.518932,28.58479 4.727212,3.533 31.9927147,22.68568 5.465995,13.76829 z m -117.20447,-98.60288 c -8.52426,-4.71488 -31.33293,-20.21011 -6.67468,-11.68099 16.87511,-3.32355 41.5371,36.53986 13.7169,16.28512 l -3.28166,-2.14306 -3.76056,-2.46107 0,0 z"
       style="fill:#060606" />
  </g>
  <g
     id="g3495"
     transform="matrix(0.10810753,-0.32815336,-0.23812905,-0.15837876,308.34198,424.51739)">
    <path
       style="fill:#d0d0cf"
       d="m 318.18895,1278.5465 c -38.21878,-14.281 -55.21461,-54.7199 -78.85092,-84.7956 -13.00575,-30.1529 -40.34019,-50.185 -57.50513,-77.7551 -8.47333,-11.9547 -16.89197,-23.9481 -25.34276,-35.9188 -26.71287,1.6654 -57.417958,-6.3504 -79.272317,13.1798 -18.941881,18.8394 -60.835426,3.4389 -33.498754,-21.321 22.912756,-2.7878 43.529227,-36.1391 20.955689,-54.7907 C 35.642702,980.87525 -10.85885,960.29737 -30.332583,916.22202 -55.853408,869.17668 -57.007545,806.4617 -105.4489,774.25834 c -33.36838,-25.16693 -49.30626,-66.11095 -65.47259,-103.26049 -9.81179,-26.49417 -9.19636,-59.03796 -31.53361,-78.7899 -6.86048,-27.67998 38.54768,-3.09936 53.41141,1.08986 27.97333,8.53302 43.59631,34.05878 63.373984,52.94924 27.934098,32.54311 70.488335,47.62991 100.339692,78.39869 28.194139,23.44626 43.240368,57.32955 64.306501,86.32975 35.268443,42.49662 85.417273,70.73918 117.293263,116.10695 7.21551,21.6377 23.41603,52.84208 44.40297,23.48106 8.23766,-11.73883 24.14097,-39.06284 33.72821,-11.5387 7.85716,34.23861 -50.5376,52.3912 -29.07384,85.5021 29.15017,38.9848 53.54871,81.837 89.63658,115.2625 15.73567,24.4514 41.77158,44.3072 47.45015,73.8888 8.29431,26.5202 -0.96399,55.929 -30.57381,62.3108 -10.7004,3.5251 -22.58675,5.9272 -33.65106,2.5575 z m 16.8593,-23.0899 c 23.06619,-9.4441 -19.18403,-9.5823 -9.3725,2.2731 l 3.44071,-0.459 5.93179,-1.8141 z"
       id="path3497"
       inkscape:connector-curvature="0" />
    <path
       style="fill:#b0b0af"
       d="m 304.70271,1268.0237 c -23.83133,-16.6765 -38.03929,-43.2309 -55.25492,-66.1011 -13.35993,-25.4495 -31.6177,-47.285 -50.60105,-68.638 -17.99624,-20.3074 -27.59045,-55.4891 -58.37958,-59.0522 -32.49825,-5.1331 -59.254535,16.4566 -88.181881,26.3693 -28.077899,-4.5011 -7.43468,-32.0724 11.890034,-30.1386 27.875325,-22.8639 5.850621,-58.9601 -16.432104,-76.35627 C 21.85802,970.59858 -9.2883166,951.13807 -24.739683,918.39917 -51.959479,874.6906 -49.973654,815.80558 -92.020106,781.08037 c -23.992334,-19.92319 -46.727054,-42.34525 -58.543774,-71.83618 -16.04316,-27.48329 -22.48511,-58.55832 -29.72267,-89.06309 -0.1833,-14.48262 -46.3937,-43.29731 -11.56136,-39.73154 26.14682,8.77303 53.14272,18.89173 74.60617,36.55702 23.377821,29.99001 51.773203,56.69073 84.959959,75.69063 20.532447,17.19534 46.124887,28.76991 60.30109,52.31808 23.446003,17.97985 30.5679,48.56068 49.675057,70.3989 38.350544,44.58625 94.077444,73.89864 122.606804,126.64767 5.06249,9.59931 17.301,46.70997 29.53356,31.76838 16.42891,-10.29478 18.47936,-39.39063 35.93887,-40.43925 18.3113,27.24495 -25.37434,47.94501 -29.17055,74.26601 5.57486,29.7889 33.6129,51.9974 47.66298,79.1209 19.95901,29.1567 48.68483,51.1377 66.979,81.3293 24.08584,20.7347 37.25961,49.9889 32.2178,81.9592 -12.60662,18.1204 -7.16584,-32.8793 -26.1334,-15.5346 -15.21683,1.451 -56.12928,27.0018 -18.40332,24.1558 26.3433,-8.0861 21.90853,20.7815 -0.52246,19.2728 -11.98211,0.8409 -23.73633,-3.5897 -33.70094,-9.9367 z M 119.46614,1045.3225 c 1.99046,-13.0353 -19.976726,9.1639 -3.4284,2.8876 l 3.4284,-2.8876 z m 35.21186,-14.6532 c 3.90851,-7.3309 42.62223,-24.9141 21.07407,-27.1821 -10.75527,7.2988 -65.47355,30.6708 -29.85977,35.461 5.27175,1.7325 9.12513,-3.7599 8.7857,-8.2789 z"
       id="path3499"
       inkscape:connector-curvature="0" />
    <path
       style="fill:#909090"
       d="m 302.25112,1263.0548 c -25.57703,-22.0123 -43.61921,-51.2918 -62.07563,-79.1715 -15.35037,-26.9991 -39.48747,-48.321 -55.79801,-74.9807 -13.63192,-25.0978 -38.00844,-48.2656 -68.67725,-36.3371 -25.093672,-1.0295 -52.674832,36.2484 -72.994541,19.6312 5.116846,-29.1065 50.908653,-18.2971 69.902171,-39.3654 17.2413,-16.2952 43.95048,-0.7701 50.67586,-27.7427 25.09188,-17.1167 48.19108,-37.13347 74.22497,-53.14165 10.47794,-10.41882 17.88442,-31.5081 28.14063,-36.04332 6.22306,28.03487 -26.01566,46.71047 -30.2741,73.28197 3.86809,26.6863 29.66835,47.8044 42.68236,72.4941 25.07002,35.4003 57.28494,64.7866 82.51942,100.0579 18.02351,11.2729 30.36718,50.2573 20.76236,58.582 -8.80173,-27.9599 -57.23911,0.8121 -65.64249,17.4195 8.71166,5.7988 58.16831,7.9226 24.13039,15.2114 -13.48691,1.9189 -27.26883,-0.419 -37.57614,-9.8957 z M 80.498342,1043.0657 c -5.192121,-38.711 -44.521069,-57.90381 -70.002612,-82.70598 -36.546024,-34.21233 -51.726013,-83.00961 -66.472951,-129.24291 -8.854087,-32.53258 -38.021348,-50.70811 -59.340589,-74.18876 -29.70872,-36.11778 -51.37485,-79.26099 -59.22708,-125.54483 -1.54083,-21.97393 -25.05894,-34.30272 -31.0732,-51.11097 32.45497,3.44831 64.37149,21.67716 90.10591,42.0648 21.723655,23.07946 40.936902,48.54475 69.807002,63.71251 42.2594703,28.07769 82.647443,61.76673 105.968355,107.83001 35.664814,57.32844 103.879833,86.11425 136.187763,145.9299 1.31318,17.35567 36.02543,37.89097 4.04657,45.63702 -34.65828,19.09061 -69.32214,39.73331 -99.08542,65.83681 -7.782154,11.249 -24.258445,7.162 -20.913748,-8.2176 z"
       id="path3501"
       inkscape:connector-curvature="0" />
    <path
       style="fill:#6d6d6c"
       d="m 304.51181,1260.9441 c -26.38858,-22.3108 -45.58635,-51.8828 -64.335,-80.535 -11.0858,-23.4406 -33.79868,-39.3377 -47.13745,-61.7274 -15.08722,-22.4713 -31.90821,-53.6454 -63.98637,-48.8266 -31.047989,-5.1844 -54.397778,25.7258 -82.625438,25.8292 -5.333251,-26.7354 41.500568,-20.1563 57.502288,-33.4277 16.21897,-14.1591 38.50074,-16.8751 54.806,-16.69 5.37,-27.7007 41.01115,-40.4825 61.93211,-58.10598 16.93551,-1.91466 31.13901,-39.50663 41.1917,-31.70323 -6.9139,24.09567 -44.89666,44.25051 -24.25138,70.95821 22.50078,26.6963 36.62351,59.444 61.45869,84.4724 27.79784,27.0183 48.55632,59.7768 74.44118,88.4664 11.19788,10.9753 17.18853,41.1333 -2.44377,21.714 -17.18907,11.9729 -55.61391,13.8074 -57.06309,37.9359 8.16366,11.1471 49.02738,4.318 16.8261,13.7658 -10.43424,2.1378 -18.59935,-6.612 -26.31557,-12.126 z M 82.560152,1037.7373 C 70.208765,998.5273 31.86652,977.49545 3.7306087,950.84182 -28.798085,917.65264 -39.931576,871.59274 -54.165904,828.96021 -69.670837,781.02144 -124.32594,762.55911 -142.3183,716.15818 c -16.89392,-29.1248 -26.12066,-61.46869 -32.67266,-94.2205 2.37168,-16.91162 -52.8481,-46.5545 -16.11422,-37.60968 23.45349,9.05077 48.2815,16.91679 68.78318,31.63632 19.24439,28.34148 47.229548,50.09801 74.017878,71.20141 45.2788678,27.88885 86.400349,64.88604 109.964586,113.33021 35.456633,51.86596 96.586806,80.51612 129.384556,134.42982 9.16338,19.48262 34.45542,47.56185 -2.00863,51.8909 -28.08804,12.3535 -49.49093,35.16864 -76.58876,49.45464 -11.50064,10.7805 -24.083035,30.8052 -29.887478,1.466 z"
       id="path3503"
       inkscape:connector-curvature="0" />
    <path
       style="fill:#4c4c4b"
       d="m 283.06638,1238.5167 c -18.08156,-24.7082 -36.22448,-49.6029 -51.40134,-75.9781 -25.46894,-25.9312 -43.06941,-58.2068 -66.93129,-85.2748 -8.79296,-16.5342 -76.598429,-1.6686 -42.17698,-22.9595 15.91362,-14.4549 48.56996,13.5849 41.75556,-21.4192 20.58237,-12.7867 37.68886,-31.2915 58.88165,-43.69133 30.36704,-17.39639 -8.31727,32.20113 15.67708,42.25763 18.6576,22.0091 30.32706,48.7118 49.76857,70.2882 27.08345,32.1112 54.85796,63.6212 81.11261,96.4362 15.29382,10.7612 19.1513,26.1814 -4.44756,20.654 -22.02711,12.4394 -46.70128,22.6976 -64.08936,38.0353 -8.05048,-3.6005 -12.90109,-11.6873 -18.14894,-18.3484 z m -1.62566,-55.9792 c -14.34501,-31.9842 -17.86093,24.2105 0,0 z m -84.50848,-104.5049 c -11.30216,-14.7366 -4.95931,12.9453 0,0 z m -151.478774,13.9109 c -9.621121,-16.0985 44.718007,-20.9293 36.800504,-15.4607 -9.725113,7.2824 -23.72889,23.4621 -36.800504,15.4607 z m 41.803498,-42.6229 C 80.305702,1010.1685 48.056466,982.59272 16.623726,961.66041 -22.018966,928.15734 -36.150648,877.29759 -51.78719,830.65846 c -9.531474,-27.67741 -28.511166,-50.50045 -52.3775,-66.96198 -35.55245,-37.08908 -59.24686,-85.25172 -67.5101,-135.89473 -1.35314,-21.63115 -25.20635,-34.84574 -33.58964,-46.71793 27.73053,9.18024 56.50349,19.36847 80.49734,36.52484 27.770861,38.07369 66.516651,66.32248 106.105773,90.99111 35.512528,26.03285 62.786486,61.50229 83.369642,100.08288 34.700861,46.72656 88.884975,75.08372 122.295105,122.79225 3.40405,18.07398 38.45045,46.89336 3.64016,50.40331 -21.05525,25.09999 -32.52348,-12.45321 -49.53985,-18.68577 3.64116,21.49837 23.02976,51.07026 -11.91326,58.34556 -15.22445,5.4979 -26.54302,30.2374 -41.933516,27.7826 z m 43.946466,-48.7332 c -10.57468,-22.0538 -11.71749,14.5769 0,0 z m -14.08475,-18.64081 c -12.47231,-22.27203 -3.08281,19.72621 0,0 z"
       id="path3505"
       inkscape:connector-curvature="0" />
    <path
       style="fill:#4d423c"
       d="m 287.91397,1241.6653 c -26.77456,-32.2786 -44.72549,-70.8843 -73.98585,-101.1472 -20.4194,-22.7745 -31.72019,-54.3453 -58.01254,-71.2433 -14.56714,-5.7092 -30.56563,-2.9356 -45.83927,-3.6904 13.00398,-10.4388 29.0482,-18.0063 46.05415,-12.7649 19.84016,7.9272 7.24165,-10.5573 9.14616,-21.8557 29.87707,2.7678 38.27544,-37.76376 65.58552,-42.05407 -10.61879,28.17937 12.32936,50.31577 26.54038,72.65317 20.88409,33.31 48.15404,61.6541 74.10782,90.8602 8.27769,23.2788 45.04564,40.3458 40.2329,64.1667 -24.28462,11.8773 -57.00985,11.3444 -67.75901,38.9907 -7.28421,2.3184 -11.59204,-9.9413 -16.07026,-13.9152 z m -2.56567,-63.9988 c -15.2146,-29.505 -27.85017,21.5505 -2.29356,10.6861 2.88025,-2.6219 2.77602,-7.2332 2.29356,-10.6861 z m -81.65416,-102.1607 c 10.03269,-32.1593 -44.85715,7.6627 -8.54413,10.3558 4.5128,-1.5283 7.32562,-5.9897 8.54413,-10.3558 z m 176.71046,139.1598 c 5.2194,-15.6554 2.35073,18.3979 0,0 z M 46.694952,1088.2545 c 8.005055,-13.5257 36.457103,-3.2363 9.198901,4.4252 -3.514901,3.1292 -10.656255,1.379 -9.198901,-4.4252 z m 37.283755,-58.0999 C 69.277894,993.31872 29.781485,975.79993 5.8995204,945.7986 -25.175417,914.03137 -38.236789,870.90703 -50.355721,829.40363 -59.191658,792.5387 -93.363684,773.82634 -117.39914,748.1766 c -21.70224,-28.2715 -36.92429,-61.70993 -46.91589,-95.79854 0.5401,-25.62509 -12.96701,-48.611 -30.59397,-65.94733 16.53581,4.95234 54.0892,17.70244 70.58712,34.67147 30.752344,35.45383 66.907045,65.98606 106.547957,91.0047 32.869709,23.69651 58.208445,56.15516 76.976484,91.78009 36.012865,49.593 94.827439,78.37792 126.973659,131.03877 6.04523,15.33839 36.67872,50.61858 -1.27265,38.98695 -14.46364,-6.74094 -7.23701,22.48319 -18.58266,2.50724 -19.11642,-17.33384 -38.18409,-39.45428 -61.63651,-49.13158 -7.051594,13.86707 28.30859,22.05718 -1.65046,26.03684 -31.877035,5.53034 10.4361,39.59452 18.18682,53.72709 28.26993,8.4614 -21.386064,30.6079 -30.209413,42.3589 -2.950564,-6.1839 -4.861262,-12.7791 -7.03264,-19.2566 z M 176.284,938.36916 c -19.75014,-21.08973 11.3651,28.90841 2.72736,3.79918 l -2.72736,-3.79918 z m -82.032683,-4.8506 c -28.474113,-4.70534 -41.008246,-28.23305 -62.4595,-43.56924 -10.805574,17.42513 23.609741,40.01052 38.653169,47.19924 3.597272,-0.98032 32.271384,6.68327 23.806331,-3.63 z M 84.204283,915.50411 C 66.486091,891.66854 45.452201,868.37413 26.261622,845.71162 c -10.11686,0.9134 -8.945566,18.05519 -21.1629586,20.33285 -4.4976326,21.56363 29.3549276,24.21884 24.1021676,0.48684 12.98488,21.90359 35.869896,38.57856 51.968825,55.7215 2.637984,-1.00855 3.025466,-4.38148 3.034627,-6.7487 z M 51.389868,822.48465 c -1.553295,-17.98699 -34.187985,-4.81225 -9.826714,4.57739 4.009847,3.32565 10.900234,1.22173 9.826714,-4.57739 z"
       id="path3507"
       inkscape:connector-curvature="0" />
    <path
       style="fill:#453a33"
       d="m 283.60118,1234.7881 c -20.10893,-23.7377 -35.04411,-50.887 -52.99007,-75.681 -26.4119,-25.5592 -41.99055,-59.9884 -67.96013,-85.7026 -7.71915,-12.744 -64.92513,-2.7974 -33.88207,-19.0399 28.53945,-6.3483 50.80391,10.544 64.07215,33.97 24.19305,1.4406 21.75939,-70.8931 0.86174,-32.2459 -14.75487,5.3911 -47.29001,-31.1994 -12.74636,-27.6454 14.15003,-4.2243 36.32248,-48.67706 47.42963,-29.08381 -5.90318,29.82571 26.77613,49.68801 37.27644,75.40181 21.31657,23.7035 35.9538,53.2888 61.84712,72.2571 11.56987,25.0288 43.50334,43.5013 46.76927,69.382 -19.95705,3.048 -40.35751,16.5926 -62.04998,12.9685 3.17678,17.5024 -9.21074,35.8956 -22.06151,13.7759 l -3.16774,-3.8938 -3.39849,-4.4629 0,0 z m 23.26978,-23.2853 c -29.44162,-26.0332 7.40027,27.5022 0,0 z m 27.15281,-11.6249 c -14.74068,-5.0847 1.7055,25.3392 2.46482,2.6066 l -2.46482,-2.6066 z m -45.83871,-11.0286 c 9.29199,-25.2468 -20.59461,-30.5492 -34.20455,-34.347 10.4785,11.7322 9.39621,50.213 34.20455,34.347 z m -44.30366,-59.4658 c -12.38808,-30.5095 -11.11219,23.5715 0,0 z m 136.5232,85.2821 c 5.2194,-15.6554 2.35073,18.3979 0,0 z M 46.694952,1088.2545 c 8.005055,-13.5257 36.457103,-3.2363 9.198901,4.4252 -3.514901,3.1292 -10.656255,1.379 -9.198901,-4.4252 z M 85.211695,1030.9 C 70.390638,994.39814 31.265172,976.75667 7.0607679,947.31684 -23.733913,917.29637 -34.898723,875.06634 -47.20367,835.38726 c -10.199942,-34.02295 -37.193247,-57.74467 -63.05091,-80.15442 -24.86661,-24.87682 -37.81198,-59.0699 -50.07224,-91.3728 -7.48472,-27.04288 -8.90242,-62.1268 -37.11382,-76.11471 25.21913,8.36144 56.62546,15.02123 74.27974,35.98361 29.028227,34.11191 64.008465,62.88616 102.26739,86.0171 35.5586,24.86646 61.668746,60.23462 82.629134,97.64309 35.050656,45.18815 87.202526,74.02554 120.694136,120.4487 6.62222,16.12215 17.6331,37.01207 21.65059,47.20561 -14.39544,0.1329 -21.239,-14.79821 -37.59572,-7.25171 C 140.33977,955.16297 122.44409,925.42916 91.364585,923.73758 86.052492,897.67835 56.5557,886.22191 44.015894,862.85357 36.290229,851.33131 15.784104,824.814 16.51384,854.78508 c -33.933428,8.87017 8.797388,38.67584 15.152587,55.58818 17.827031,15.61488 33.117846,31.13587 56.189663,36.83921 -2.643715,29.38926 39.21921,52.16846 33.81065,73.91863 -16.86479,7.4355 -27.782998,50.9142 -36.455045,9.7689 z m 90.220365,-94.99955 c -27.99921,-24.92873 15.69866,40.85082 3.07774,4.6596 l -3.07774,-4.6596 z M 56.084783,825.34679 c -3.372274,-21.07004 -45.735642,-11.42809 -16.34815,1.65157 4.530735,1.00498 14.105174,4.14139 16.34815,-1.65157 z"
       id="path3509"
       inkscape:connector-curvature="0" />
    <path
       style="fill:#2e2d2c"
       d="m 281.65434,1232.475 c -20.30098,-23.3633 -33.56131,-51.2394 -52.61269,-75.0592 -25.93268,-24.1978 -39.1109,-58.5698 -64.44298,-82.9726 -7.08274,-14.2678 -60.33431,-2.7734 -40.06452,-18.4577 30.61544,-8.8585 51.53499,11.7382 67.84617,33.4423 24.75645,6.4138 32.27155,-59.9608 6.46545,-46.6394 -14.24203,19.6343 -51.89424,-19.2172 -15.4823,-12.0521 15.44813,-8.3291 27.17355,-41.73932 45.12436,-34.91754 -8.72264,30.50424 24.63055,49.36984 34.41417,75.29854 22.39932,21.9459 32.81946,54.3628 60.22828,71.0803 14.67976,24.6903 39.95069,43.9261 51.48574,69.4122 -13.94946,2.9717 -53.17205,32.9405 -33.88866,-1.4172 1.83689,-23.7819 -26.07326,-18.3449 -17.28347,4.6283 -8.70822,14.8817 -22.3831,-38.1856 -30.1483,-8.1599 9.70348,9.5967 26.83244,55.1559 0.83984,40.6178 -4.60159,-4.5403 -8.68084,-9.5834 -12.48109,-14.8038 z m 11.01976,-59.1084 c 9.12903,-16.2428 -11.63329,-49.1723 -16.76703,-17.2735 -8.25282,8.1094 -17.31785,-12.3251 -26.16066,-13.2563 -3.37193,-12.063 11.28533,-48.8241 -4.32522,-45.4464 2.06007,18.9358 -16.33864,21.8642 -21.71396,4.2928 -29.10225,-10.2286 8.16171,27.2931 13.38496,35.905 17.62654,18.1073 21.8481,45.3951 42.96002,58.5006 11.38357,2.7617 10.4699,-16.0797 12.62189,-22.7222 z m -17.78669,-45.1614 c -16.80974,-2.3666 7.20878,22.704 0,-6e-4 l 0,6e-4 z m 105.51719,86.4604 c 5.2194,-15.6554 2.35073,18.3979 0,0 z M 48.85721,1090.0379 c -8.652666,-14.0203 39.367506,-6.2811 14.647653,-1.2803 -4.104254,1.7455 -10.879332,6.0177 -14.647653,1.2803 z M 85.211695,1030.9 C 70.390638,994.39814 31.265172,976.75667 7.0607679,947.31684 -23.842713,917.21428 -34.920747,874.81582 -47.344395,835.05402 c -9.177052,-30.34278 -31.266374,-53.45943 -55.890615,-72.13306 -35.7995,-38.82707 -57.9438,-89.00809 -66.31356,-140.88244 -5.34938,-11.87458 -16.63819,-32.75265 7.09682,-21.63273 31.98831,9.80117 54.04277,36.84034 74.051998,61.87393 48.134772,37.88235 106.282762,67.79025 136.781511,123.52289 27.01173,58.59995 89.723551,85.37986 127.467841,135.15845 10.12966,8.81718 17.21237,30.98758 -1.06374,10.61949 -6.16057,-11.7097 -37.98552,-24.12473 -18.40991,-2.18756 12.25826,7.53905 22.90545,44.77469 -0.97048,27.79399 C 117.07358,928.10752 76.522645,900.24544 46.404769,862.14889 41.019415,847.1479 13.094481,820.97601 11.858954,851.43227 c -34.564807,-7.492 -4.3599022,35.46008 6.666506,45.05413 15.951682,21.06471 34.318759,44.81806 60.118447,53.93064 11.526952,23.98811 28.598103,44.75633 43.338913,66.81686 -9.33572,10.8239 -17.25635,23.1962 -28.538695,32.0901 -4.610783,-4.8651 -5.924512,-12.2689 -8.23243,-18.424 z M 141.45399,901.32972 c -18.74477,-6.34007 13.11382,18.66885 0,0 z M 56.084783,824.6729 c -1.908757,-24.26829 -51.6050622,-17.67884 -24.648306,3.6174 6.781277,3.66648 23.674063,8.87031 24.648306,-3.6174 z"
       id="path3511"
       inkscape:connector-curvature="0" />
    <path
       style="fill:#171818"
       d="m 289.27179,1240.5611 c -17.65594,-26.6365 -37.24446,-51.9734 -52.97553,-79.8466 -14.30154,-18.108 -52.55643,-48.6299 -43.48464,-66.5821 26.29544,18.4147 41.0397,49.1347 61.19006,73.6574 11.65382,26.7619 42.45257,40.5764 51.29015,69.8859 6.9612,20.1552 -10.94635,18.779 -16.02004,2.8854 z m 56.23175,-36.9122 c -6.68465,-19.3918 -41.59843,-44.3233 -43.46067,-12.4215 -11.68143,-17.6457 10.47515,-50.1148 -17.92552,-63.6236 -26.01642,-12.1846 -25.83616,-49.3772 -55.49457,-57.5997 -13.38612,-10.258 -11.70453,-37.6027 -19.39769,-53.8672 3.1759,-28.53225 20.4973,-16.1859 18.97969,5.3422 15.78085,25.1491 33.27278,49.6018 50.23339,74.1292 19.15959,26.97 46.05468,47.5937 62.94525,76.0828 10.84213,10.6052 47.63315,49.9477 8.85922,39.0308 l -2.87439,-2.8993 -1.86471,-4.1737 0,0 z m -92.23231,-68.6149 c 9.9252,-8.5682 9.82949,13.8129 0,0 z M 49.04241,1086.2102 c 20.856796,-15.821 8.853846,17.2872 0,0 z m 104.07912,-20.9579 c -10.66164,-2.1946 -47.56727,-4.2982 -14.61671,-7.0829 15.62306,-6.0108 44.42533,17.8287 14.61671,7.0829 l 0,0 z M 85.54671,1027.9452 C 68.68407,989.36942 28.218874,970.04495 1.399537,939.87109 -26.520169,905.77759 -36.293771,862.23892 -50.755084,821.74787 -67.596933,775.43665 -120.94564,757.01458 -138.27651,710.88604 c -14.59593,-25.84101 -24.80654,-53.96456 -27.74643,-83.57565 -1.97081,-12.83309 -21.94145,-35.72851 4.36611,-25.01451 29.47963,4.25958 41.68753,30.33988 61.38521,48.70549 38.944991,39.96601 90.9449155,64.23562 127.732249,106.63299 14.191029,15.17183 26.410901,40.7469 30.42751,57.39576 C 36.92029,802.58401 24.601281,753.98104 0.60144414,760.02102 -4.2304096,784.17714 20.412447,825.11711 -4.6164977,838.38694 c -18.9641383,-21.32496 -24.6419813,2.01284 -12.1640063,18.06198 22.899921,54.4472 72.407976,89.11566 109.442673,132.91926 18.974091,9.03595 18.583821,61.61592 -2.999373,50.11422 -1.672521,-3.7345 -2.9022,-7.6382 -4.116086,-11.5372 z M -89.457592,708.39474 c -10.054441,-18.47283 -28.225638,-30.70172 -42.904228,-45.37202 1.60703,19.18701 7.52876,40.34196 27.60992,47.9427 4.31512,2.4417 15.323632,6.08901 15.294308,-2.57068 z M 157.02546,907.26397 c -4.37941,-3.83475 -35.09313,-30.18743 -14.34794,-18.42329 5.23359,-2.08166 32.09547,29.55484 14.34794,18.42329 z M 88.94919,894.03808 c -11.940589,-13.95047 29.31633,9.12269 3.294753,1.69796 l -3.294753,-1.69796 z m 7.401698,-36.48355 C 84.187643,849.30139 50.732105,811.60817 81.83299,836.01915 c 14.140403,12.75572 44.54021,37.06254 45.2787,46.26556 -10.86252,-7.44353 -20.8091,-16.13331 -30.760802,-24.73018 z"
       id="path3513"
       inkscape:connector-curvature="0" />
    <path
       style="fill:#060606"
       d="m 290.83055,1237.4946 c -4.85897,-9.7473 -36.01464,-38.5983 -18.78936,-37.6627 9.93907,12.25 40.19185,37.2066 28.04844,49.4195 -4.40799,-2.7265 -7.03845,-7.2744 -9.25908,-11.7568 z m 66.0937,-33.4634 c -13.41785,-19.0351 -51.97562,-45.6048 -47.75208,-64.1462 22.32409,17.8262 40.75211,43.1838 55.32437,67.5275 -2.78567,1.564 -5.82574,-2.548 -7.57229,-3.3813 z m -107.91967,-25.3687 c -13.56648,-44.7212 22.04538,28.109 0,0 z m -22.48321,-32.143 c -10.74,-11.9847 -32.88938,-34.5648 -31.0989,-44.9896 15.16183,15.9137 33.29619,37.7364 42.39202,53.9076 -4.25261,-2.3116 -7.78381,-5.6501 -11.29312,-8.918 z m 48.67985,-38.8966 c -19.09106,-29.7967 -47.7556,-54.7149 -58.62459,-89.072 -5.28432,-12.883 9.52601,-27.4859 5.0655,-5.316 12.39789,27.292 32.60078,50.9339 49.02251,76.1174 9.93515,5.6702 30.33454,46.7723 7.24692,21.86 l -2.71034,-3.5894 z M 87.346341,1023.9632 C 63.164974,976.52981 5.6162826,957.91686 -15.901522,908.58431 -38.633223,863.83894 -41.589325,807.92663 -81.94541,773.30437 -119.925,748.42211 -139.79495,705.2684 -155.20793,664.15294 c -4.50827,-9.81633 -5.20068,-35.03219 3.13804,-11.29193 11.42997,31.21359 30.27197,59.18733 56.019584,80.35272 29.595239,28.09508 53.186152,62.82198 63.919859,102.5093 14.374967,36.50687 33.2212962,72.86649 64.431701,97.78046 19.969525,32.17832 60.419572,50.80982 69.591156,89.79001 0.68945,20.8939 -10.769614,15.9976 -14.546069,0.6697 z M -30.77115,718.21947 c -28.07675,1.67055 -47.921598,-23.88406 -65.984927,-42.35308 -1.920503,-29.16923 40.187795,28.74899 60.518932,28.58479 4.727212,3.533 31.9927147,22.68568 5.465995,13.76829 z m -117.20447,-98.60288 c -8.52426,-4.71488 -31.33293,-20.21011 -6.67468,-11.68099 16.87511,-3.32355 41.5371,36.53986 13.7169,16.28512 l -3.28166,-2.14306 -3.76056,-2.46107 0,0 z"
       id="path3515"
       inkscape:connector-curvature="0" />
  </g>
</svg>
