<?xml version="1.0" encoding="UTF-8" standalone="no"?>
<svg
   xmlns:dc="http://purl.org/dc/elements/1.1/"
   xmlns:cc="http://creativecommons.org/ns#"
   xmlns:rdf="http://www.w3.org/1999/02/22-rdf-syntax-ns#"
   xmlns:svg="http://www.w3.org/2000/svg"
   xmlns="http://www.w3.org/2000/svg"
   xmlns:sodipodi="http://sodipodi.sourceforge.net/DTD/sodipodi-0.dtd"
   xmlns:inkscape="http://www.inkscape.org/namespaces/inkscape"
   sodipodi:docname="velvet tunic.svg"
   height="100%"
   width="100%"
   inkscape:version="0.48.4 r9939"
   version="1.1"
   id="svg8438"
   viewBox="0 0 512 512">
  <metadata
     id="metadata8464">
    <rdf:RDF>
      <cc:Work
         rdf:about="">
        <dc:format>image/svg+xml</dc:format>
        <dc:type
           rdf:resource="http://purl.org/dc/dcmitype/StillImage" />
        <dc:title></dc:title>
      </cc:Work>
    </rdf:RDF>
  </metadata>
  <defs
     id="defs8462">
    <linearGradient
       id="linearGradient4077">
      <stop
         id="stop4079"
         offset="0"
         style="stop-color:#aa4400;stop-opacity:1;" />
      <stop
         style="stop-color:#ff9f00;stop-opacity:1;"
         offset="0.22752622"
         id="stop4081" />
      <stop
         style="stop-color:#803300;stop-opacity:1;"
         offset="0.4948855"
         id="stop4083" />
      <stop
         id="stop4085"
         offset="1"
         style="stop-color:#562200;stop-opacity:1;" />
    </linearGradient>
    <linearGradient
       id="linearGradient4057">
      <stop
         style="stop-color:#aa4400;stop-opacity:1;"
         offset="0"
         id="stop4059" />
      <stop
         id="stop4067"
         offset="0.22752622"
         style="stop-color:#ecd1a4;stop-opacity:1;" />
      <stop
         id="stop4065"
         offset="0.50136983"
         style="stop-color:#803300;stop-opacity:1;" />
      <stop
         style="stop-color:#562200;stop-opacity:1;"
         offset="1"
         id="stop4061" />
    </linearGradient>
    <linearGradient
       id="linearGradient3890">
      <stop
         style="stop-color:#701b1b;stop-opacity:1;"
         offset="0"
         id="stop3892" />
      <stop
         style="stop-color:#e31600;stop-opacity:1;"
         offset="1"
         id="stop3894" />
    </linearGradient>
    <linearGradient
       id="linearGradient3882">
      <stop
         style="stop-color:#600b0b;stop-opacity:1;"
         offset="0"
         id="stop3884" />
      <stop
         style="stop-color:#d11414;stop-opacity:1;"
         offset="1"
         id="stop3886" />
    </linearGradient>
    <linearGradient
       id="linearGradient3872">
      <stop
         style="stop-color:#800600;stop-opacity:1;"
         offset="0"
         id="stop3874" />
      <stop
         style="stop-color:#ff0004;stop-opacity:0;"
         offset="1"
         id="stop3876" />
    </linearGradient>
    <filter
       id="filter4074"
       inkscape:label="Black Light"
       inkscape:menu="Color"
       inkscape:menu-tooltip="Light areas turn to black"
       x="0"
       width="1"
       y="0"
       height="1"
       color-interpolation-filters="sRGB">
      <feColorMatrix
         id="feColorMatrix4076"
         type="luminanceToAlpha"
         result="result2" />
      <feComposite
         in2="SourceGraphic"
         id="feComposite4078"
         operator="arithmetic"
         in="result2"
         k3="2"
         result="result4" />
      <feBlend
         in2="result2"
         id="feBlend4080"
         in="result4"
         mode="multiply"
         result="result3" />
      <feComposite
         in2="SourceGraphic"
         id="feComposite4082"
         operator="in"
         in="result3" />
    </filter>
  </defs>
  <sodipodi:namedview
     pagecolor="#000000"
     bordercolor="#666666"
     borderopacity="1"
     objecttolerance="10"
     gridtolerance="10"
     guidetolerance="10"
     inkscape:pageopacity="0"
     inkscape:pageshadow="2"
     inkscape:window-width="1190"
     inkscape:window-height="1126"
     id="namedview8460"
     showgrid="false"
     inkscape:zoom="1.4142136"
     inkscape:cx="267.43138"
     inkscape:cy="235.5794"
     inkscape:window-x="160"
     inkscape:window-y="130"
     inkscape:window-maximized="0"
     inkscape:current-layer="svg8438" />
  <path
     style="fill:#000000"
     id="path3978"
     d="M -13.466093,0.1885736 H 514.89024 V 516.42957 H -13.466093 z"
     inkscape:connector-curvature="0" />
  <path
     transform="matrix(0.92592215,0,0,1,-12.92858,0)"
     sodipodi:end="6.1122693"
     sodipodi:start="6.11213"
     d="m 101.95774,-78.577314 a 39.244427,23.688076 0 0 1 9.3e-4,0.0033 l -38.672613,4.028989 z"
     sodipodi:ry="23.688076"
     sodipodi:rx="39.244427"
     sodipodi:cy="-74.545074"
     sodipodi:cx="63.286057"
     id="path4121"
     style="fill:#333333;fill-opacity:1;fill-rule:nonzero;stroke:none"
     sodipodi:type="arc" />
  <path
     transform="matrix(0.92592215,0,0,1,-12.92858,0)"
     sodipodi:end="6.1122693"
     sodipodi:start="6.11213"
     d="m 76.035958,-54.360671 a 10.606602,11.755651 0 0 1 2.51e-4,0.0016 l -10.452057,1.999461 z"
     sodipodi:ry="11.755651"
     sodipodi:rx="10.606602"
     sodipodi:cy="-52.359596"
     sodipodi:cx="65.584152"
     id="path4123"
     style="fill:#333333;fill-opacity:1;fill-rule:nonzero;stroke:none"
     sodipodi:type="arc" />
  <g
     id="g4884">
    <path
       style="fill:#989b99"
       d="m 201.89011,460.41852 c -3.06189,-0.5491 -13.08263,-2.15759 -22.2683,-3.57439 -18.18312,-2.80458 -32.19861,-7.68027 -38.6046,-13.42974 -3.49984,-3.14116 -3.83612,-5.51781 -2.33479,-16.50145 0.96467,-7.05746 1.96993,-18.06485 2.2339,-24.46087 0.26398,-6.39601 1.56629,-20.5254 2.89403,-31.39864 2.72289,-22.29845 1.51219,-34.63821 -4.55931,-46.46991 -2.29121,-4.46496 -4.16584,-11.04542 -4.16584,-14.62326 0,-3.57784 -1.46898,-10.17725 -3.26441,-14.66535 -1.79543,-4.48807 -3.72384,-14.65902 -4.28534,-22.60209 -0.56151,-7.94304 -2.09874,-17.38825 -3.41608,-20.98934 -3.82497,-10.456 -3.11726,-12.29712 10.96583,-28.52811 7.34854,-8.46931 13.36099,-17.4804 13.36099,-20.02466 0,-4.38368 -0.99116,-4.53968 -18.92806,-2.97912 -10.41043,0.90573 -18.92806,0.80682 -18.92806,-0.21982 0,-1.02663 2.08215,-6.35896 4.62701,-11.84962 5.69257,-12.28205 4.93942,-17.46951 -2.95748,-20.37016 -7.53195,-2.7666 -17.660685,1.81651 -30.233467,13.68022 -4.795203,4.52478 -9.242074,8.22686 -9.881938,8.22686 -0.639864,0 -7.44389,-6.41867 -15.12006,-14.26371 -10.242706,-10.46804 -13.416747,-15.12686 -11.927698,-17.50735 2.556188,-4.08649 38.827263,-22.01894 61.590893,-30.45059 22.56329,-8.35744 22.56067,-9.02662 -0.13382,-34.300097 -2.29734,-2.558407 -4.82532,-8.138062 -5.61774,-12.399234 -0.79242,-4.26117 -3.553733,-10.540898 -6.13626,-13.954951 -4.605372,-6.088215 -4.611429,-6.220855 -0.315568,-6.910071 4.305053,-0.690689 47.347678,28.112695 62.390338,41.750543 8.66299,7.85396 11.77958,8.21313 17.18045,1.97993 4.05539,-4.680361 11.45439,-6.043446 15.58782,-2.87167 1.22475,0.93982 4.70899,6.85394 7.74274,13.14251 3.73944,7.75137 8.7208,13.55659 15.46707,18.02514 9.46511,6.26944 11.22279,6.59139 35.9855,6.59139 25.66616,0 26.18746,-0.10689 36.86344,-7.55893 7.38883,-5.15755 11.6021,-10.05683 13.26231,-15.42167 2.56302,-8.28212 9.86564,-14.01221 18.03354,-14.15018 2.68342,-0.0453 5.49495,0.95857 6.24782,2.2309 0.75287,1.27232 3.23367,3.35571 5.5129,4.62974 3.31007,1.85026 5.99091,0.70485 13.32101,-5.69153 5.04731,-4.404378 16.90518,-12.953699 26.35084,-18.998489 9.44563,-6.044792 18.7559,-12.374255 20.68948,-14.065474 3.11061,-2.720723 15.41247,-4.473574 15.41247,-2.19607 0,0.483381 -1.58216,4.833884 -3.51594,9.667786 -1.93376,4.833902 -4.19862,12.965677 -5.03299,18.070612 -1.54485,9.451635 -3.43226,11.503125 -14.27608,15.517235 -4.78343,1.7707 -6.12378,3.75067 -6.12378,9.04606 0,6.42036 1.20819,7.28956 22.82501,16.42089 46.5316,19.65577 58.74378,29.75622 45.15873,37.34993 -3.13439,1.75206 -9.86098,8.82018 -14.94793,15.70694 l -9.249,12.52137 -11.00215,-11.6734 c -21.76497,-23.09285 -40.11713,-21.10692 -29.04533,3.14306 2.05666,4.50455 3.14355,8.81238 2.41536,9.57295 -0.7282,0.76057 -7.50954,0.40504 -15.06963,-0.79008 -17.62496,-2.78619 -19.18568,0.31085 -7.47741,14.8378 15.42766,19.14174 15.04685,18.09696 11.05573,30.331 -1.96389,6.0199 -3.60257,17.30023 -3.64152,25.06737 -0.0436,8.7128 -1.32314,15.85138 -3.34024,18.63681 -1.92942,2.66431 -3.26944,9.61887 -3.26944,16.96795 0,10.50986 -0.95564,13.43485 -6.12378,18.74352 l -6.12378,6.29031 0.73645,44.19068 c 0.40507,24.30487 0.9061,49.42378 1.11342,55.8198 0.36487,11.25614 0.1109,11.76489 -7.91576,15.86199 -13.38131,6.83021 -46.5931,11.18631 -91.91465,12.05561 -23.27037,0.44635 -44.81496,0.36225 -47.87685,-0.18699 z"
       id="path4898"
       inkscape:connector-curvature="0" />
    <path
       style="fill:#7c8383"
       d="m 186.51262,455.89531 c -23.13376,-3.67762 -38.26437,-8.87054 -43.52025,-14.93641 -2.79384,-3.22441 -3.06613,-6.3602 -1.44051,-16.58974 3.68182,-23.1685 7.49081,-78.33839 5.98672,-86.71232 -0.81716,-4.54948 -2.94521,-11.1942 -4.72901,-14.76604 -1.7838,-3.57183 -3.24944,-8.90658 -3.25699,-11.85496 -0.008,-2.9484 -2.10923,-10.16516 -4.67042,-16.03724 -3.1215,-7.15673 -4.35993,-13.82389 -3.75652,-20.22337 0.4951,-5.25076 -0.41561,-14.16133 -2.02379,-19.80124 -1.60818,-5.63993 -2.92397,-11.52302 -2.92397,-13.07355 0,-1.55052 6.11404,-10.81906 13.58675,-20.59675 8.22049,-10.75612 13.08542,-19.14212 12.31745,-21.23238 -0.96724,-2.63264 -5.26028,-3.45477 -18.0404,-3.45477 -9.22412,0 -16.77112,-0.9188 -16.77112,-2.04178 0,-1.12298 1.5562,-5.93187 3.45822,-10.68641 3.13412,-7.83447 3.12931,-9.16891 -0.0513,-14.23899 -2.61353,-4.16606 -5.5237,-5.59437 -11.39852,-5.59437 -9.24758,0 -14.280312,2.45088 -26.899007,13.0995 -5.105149,4.30811 -9.673874,7.83293 -10.152723,7.83293 -1.897139,0 -23.988378,-23.41057 -23.988378,-25.42101 0,-2.6637 17.505576,-11.34371 52.330508,-25.94771 14.69708,-6.16329 26.63699,-12.04103 26.53312,-13.06164 -0.9242,-9.08163 -4.50255,-17.77805 -7.67132,-18.64354 -2.11448,-0.57753 -4.94725,-3.577903 -6.29504,-6.667494 -1.3478,-3.089592 -3.97513,-5.61744 -5.83852,-5.61744 -2.34362,0 -3.38799,-2.349798 -3.38799,-7.622879 0,-4.192581 -1.55993,-9.948998 -3.46652,-12.792038 -5.117789,-7.631495 -0.516427,-6.297256 11.60203,3.364197 5.88692,4.693347 17.48752,13.117026 25.77912,18.719285 8.2916,5.60226 15.07564,10.987989 15.07564,11.968299 0,0.9803 3.64921,3.59992 8.10935,5.82136 8.05177,4.01032 8.15177,3.99656 14.08138,-1.93692 l 5.97203,-5.97592 5.7069,5.27498 c 3.1388,2.90124 7.3229,8.62239 9.298,12.71368 1.9751,4.09128 7.34992,10.31129 11.94405,13.82223 4.59412,3.51094 9.42817,7.69822 10.74234,9.30507 1.78194,2.1788 5.84025,2.41207 15.96337,0.91757 7.46569,-1.10218 19.41742,-1.51147 26.5594,-0.90952 12.20129,1.02835 13.82891,0.52606 26.95389,-8.31821 10.8054,-7.28122 14.2757,-11.01714 15.32527,-16.49831 1.7987,-9.39326 14.12946,-16.51902 14.12946,-8.16519 0,4.58581 8.04698,8.82088 13.39305,7.04867 2.37462,-0.78718 7.09662,-4.87305 10.49333,-9.0797 3.3967,-4.20666 13.69138,-12.209076 22.87705,-17.783154 9.18568,-5.574079 19.98525,-12.681666 23.99904,-15.794641 4.0138,-3.112976 7.86083,-5.071897 8.54898,-4.353161 1.43929,1.503287 -3.36449,26.404526 -6.26679,32.484886 -1.06854,2.2386 -3.68872,4.07019 -5.82262,4.07019 -2.13391,0 -6.15307,1.66302 -8.93146,3.6956 -3.89321,2.84814 -4.80978,5.29851 -3.9969,10.68552 0.58009,3.84445 1.37779,7.27144 1.77261,7.61553 2.18848,1.9072 66.91277,33.82316 68.59205,33.82316 5.19069,0 4.03773,5.01226 -2.04116,8.87339 -3.71767,2.36136 -9.87336,8.78318 -13.67931,14.2707 l -6.91992,9.97731 -10.36932,-10.49601 c -9.84377,-9.96404 -21.85803,-17.97374 -26.95997,-17.97374 -8.67005,0 -14.98265,20.62919 -8.4612,27.65074 2.26389,2.43749 0.34262,2.84999 -10.29125,2.20954 -10.30875,-0.62088 -13.57709,0.0291 -15.44921,3.0721 -2.44105,3.96786 -2.4545,3.94436 15.43313,26.96561 l 5.87955,7.56693 -3.79701,14.13404 c -2.46818,9.18758 -3.27661,17.35118 -2.31001,23.32676 1.07799,6.66418 0.48645,10.78764 -2.15054,14.9911 -2.00065,3.18913 -4.24133,12.55169 -4.9793,20.80574 -1.12963,12.63486 -2.22556,15.61217 -6.93248,18.83337 l -5.5907,3.82603 1.63734,47.97377 c 0.90053,26.38558 1.80561,51.5632 2.01128,55.95026 0.30968,6.60563 -0.77421,8.67961 -6.30654,12.06743 -17.74481,10.86633 -111.35506,17.00855 -154.55439,10.14107 z M 368.90239,191.28656 c 0,-1.65229 -3.50726,-4.66453 -7.79391,-6.69387 -6.51898,-3.08613 -7.79391,-3.15346 -7.79391,-0.41158 0,1.80297 1.75363,3.8441 3.89696,4.53585 2.14332,0.69175 5.40006,2.16729 7.23719,3.27897 4.48426,2.7135 4.45367,2.71838 4.45367,-0.70937 z M 253.2536,187.23141 c 5.35303,-2.99221 5.50927,-5.93158 0.41032,-7.71977 -2.14333,-0.75166 -5.62299,-2.68179 -7.73262,-4.28918 -5.9241,-4.51379 -10.01128,0.75992 -6.61777,8.53896 2.74118,6.28369 7.00683,7.34551 13.94007,3.46999 z m 168.21127,-15.56903 c -2.26362,-2.36424 -4.13133,1.19522 -2.27409,4.3339 1.40297,2.37098 1.9275,2.37282 2.68177,0.009 0.51574,-1.61595 0.33227,-3.57042 -0.40768,-4.34327 z m -10.76303,-10.36931 c -1.37634,-4.31259 -6.17017,-5.02787 -6.17017,-0.92063 0,2.0254 1.58662,3.68255 3.52581,3.68255 1.93921,0 3.12916,-1.24286 2.64436,-2.76192 z m -106.37753,-9.89285 c 0,-1.84332 -1.00208,-3.99832 -2.22683,-4.78892 -1.22476,-0.79059 -2.22683,0.71758 -2.22683,3.35148 0,2.6339 1.00207,4.78891 2.22683,4.78891 1.22475,0 2.22683,-1.50816 2.22683,-3.35147 z m 71.25857,1.02565 c 0,-1.27921 -1.06122,-2.32583 -2.35826,-2.32583 -1.29704,0 -1.73893,1.04662 -0.98199,2.32583 0.75695,1.2792 1.81816,2.32582 2.35826,2.32582 0.54009,0 0.98199,-1.04662 0.98199,-2.32582 z m 17.81464,0.13727 c 0,-2.74415 -4.3431,-5.67966 -5.93822,-4.01364 -1.5951,1.66601 1.21547,6.20219 3.84282,6.20219 1.15247,0 2.0954,-0.98485 2.0954,-2.18856 z"
       id="path4896"
       inkscape:connector-curvature="0" />
    <path
       style="fill:#7c817d"
       d="m 210.79743,458.38608 c -1.83713,-0.46031 -13.36098,-2.14204 -25.60854,-3.73716 -23.23521,-3.02616 -40.41364,-8.98404 -42.53255,-14.75129 -0.68287,-1.85866 -0.11961,-16.27736 1.2517,-32.04159 5.15691,-59.28268 5.41335,-72.47911 1.55973,-80.26246 -1.96608,-3.971 -4.22271,-11.77801 -5.01473,-17.34891 -0.79202,-5.57089 -3.05682,-12.74546 -5.03287,-15.94347 -2.1393,-3.4622 -3.73668,-11.46024 -3.94838,-19.76951 -0.19556,-7.67522 -1.09785,-19.38465 -2.00509,-26.02095 -1.62947,-11.91908 -1.52706,-12.21225 8.41042,-24.07729 12.43334,-14.84503 16.04205,-21.68777 14.15145,-26.83363 -1.27075,-3.45874 -3.65129,-3.78898 -18.11054,-2.51239 -9.15611,0.80839 -16.64747,1.07946 -16.64747,0.6024 0,-0.47707 1.49694,-3.86524 3.32653,-7.52927 4.06005,-8.13087 4.32703,-18.06562 0.57042,-21.22639 -1.53094,-1.28812 -5.96713,-3.05259 -9.8582,-3.92104 -8.46109,-1.88843 -17.106072,2.25709 -29.9182,14.34665 l -8.891441,8.38999 -12.02757,-12.40622 c -6.615164,-6.82342 -11.547313,-13.21783 -10.960329,-14.20981 1.785074,-3.01671 36.435034,-19.64032 58.25993,-27.95069 14.81436,-5.64093 20.57308,-8.92954 20.59818,-11.76293 0.0192,-2.16311 -0.96724,-4.57978 -2.192,-5.37037 -1.22475,-0.79059 -2.22683,-3.99222 -2.22683,-7.11474 0,-3.5369 -1.28008,-5.6773 -3.39536,-5.6773 -1.86745,0 -4.29575,-2.473483 -5.39623,-5.496633 -1.10048,-3.023149 -4.08189,-6.065029 -6.62537,-6.759734 -3.39014,-0.925953 -4.62451,-3.132861 -4.62451,-8.268092 0,-3.852748 -0.6619,-8.806561 -1.47089,-11.008473 -1.94663,-5.29836 2.63446,-2.613718 14.11997,8.274682 4.72275,4.477213 14.327,11.280252 21.3428,15.117863 7.01579,3.837612 12.76582,8.024097 12.77785,9.303297 0.024,2.55483 12.2508,10.46622 16.17516,10.46622 1.35276,0 4.82385,-2.31988 7.71353,-5.15528 6.26759,-6.14985 10.48394,-4.33934 17.30138,7.42926 5.17131,8.92698 12.52795,17.21076 23.28307,26.21738 8.31483,6.96306 10.25579,7.60294 12.34621,4.07019 0.77688,-1.31289 11.74461,-2.33803 25.18327,-2.35384 21.34383,-0.0251 24.82408,-0.63525 33.63741,-5.89707 6.54251,-3.90609 10.57392,-5.09247 12.05347,-3.54715 1.47953,1.54532 0.26595,3.09908 -3.62853,4.64557 l -5.85157,2.32367 9.38593,15.08817 c 5.16224,8.29849 10.03454,15.14139 10.82729,15.20645 0.79278,0.0651 1.09471,-3.28324 0.67099,-7.44065 -4.97195,-48.78194 -4.9881,-49.35559 -1.50629,-53.49398 1.88343,-2.23861 4.83523,-4.0702 6.55953,-4.0702 1.72428,0 2.95669,1.83159 2.73867,4.0702 -0.86016,8.8319 -0.0474,9.6201 8.43567,8.18226 5.52913,-0.93714 10.94363,-4.24731 16.14452,-9.87002 4.30391,-4.65299 14.83982,-13.000067 23.41312,-18.549063 8.5733,-5.548993 18.30294,-12.031208 21.62143,-14.404917 7.47055,-5.343681 11.6039,-5.567314 9.75232,-0.527641 -0.7655,2.083504 -2.52044,8.624888 -3.8999,14.536407 -2.9554,12.665074 -5.47346,16.562774 -10.70016,16.562774 -5.98352,0 -11.63014,8.07637 -10.81683,15.4713 0.61579,5.59875 3.29364,7.96928 17.967,15.905 16.45559,8.89959 21.65827,15.41187 14.48896,18.13609 -2.06316,0.78398 -2.16606,2.15263 -0.39762,5.2885 3.50169,6.20928 7.4037,6.72831 9.34641,1.24321 1.69368,-4.78199 1.72608,-4.7834 4.46976,-0.19478 1.64411,2.74965 1.85395,4.62213 0.518,4.62213 -4.11186,0 -2.31534,8.98859 2.50071,12.51184 2.89557,2.1183 4.22535,4.89054 3.41012,7.10936 -2.03057,5.52687 -5.81501,4.40753 -13.46065,-3.98134 -11.19639,-12.28478 -20.33414,-17.96568 -28.89789,-17.96568 -7.30589,0 -8.01946,0.63194 -9.40145,8.32608 -1.89352,10.54205 -6.1752,12.26605 -14.49939,5.83812 -6.37512,-4.92287 -6.75551,-4.95096 -13.20024,-0.97471 -7.98998,4.92961 -8.14555,6.16509 -1.46729,11.65175 4.03424,3.31439 4.82929,5.57194 3.62232,10.28556 -1.29539,5.05898 0.2678,8.19931 9.63147,19.34885 l 11.17782,13.30971 -3.70471,16.03148 c -2.29328,9.92369 -3.15807,19.60203 -2.2699,25.40326 0.93162,6.08504 0.46507,10.59221 -1.33029,12.85165 -1.52081,1.91392 -3.55021,10.94996 -4.5098,20.08008 -1.59732,15.19813 -3.31762,18.94852 -9.77908,21.31938 -2.43207,0.89239 -1.9582,78.66813 0.59512,97.67677 2.71228,20.19191 -0.19863,22.42454 -37.22296,28.54904 -19.70542,3.25962 -90.47881,6.59576 -98.30799,4.63407 z m -31.17562,-258.2808 c 0,-1.9188 -1.44397,-3.48874 -3.20882,-3.48874 -3.72025,0 -6.23158,3.3196 -4.15341,5.49016 2.66141,2.77973 7.36223,1.50181 7.36223,-2.00142 z m 18.81051,-3.68738 c -0.71698,-1.21168 -2.25279,-1.59035 -3.41289,-0.8415 -1.16011,0.74886 -1.52266,2.35294 -0.80568,3.56462 0.71699,1.21168 2.25279,1.59035 3.4129,0.84149 1.1601,-0.74886 1.52266,-2.35294 0.80567,-3.56461 z m 56.48183,-9.19526 c 5.69029,-5.53699 6.36987,-12.76696 1.38769,-14.76379 -2.73138,-1.09473 -3.18788,-0.26765 -2.10912,3.82136 l 1.37672,5.21847 -4.3716,-5.23311 c -5.52533,-6.61421 -10.55953,-6.66827 -13.8999,-0.14927 -2.25581,4.40242 -1.80195,5.80527 3.38608,10.46622 7.30981,6.56715 8.10236,6.6028 14.23013,0.64012 z M 366.9067,165.69191 c -2.85811,-2.98517 -5.75647,-0.67799 -3.64051,2.89793 0.81965,1.38518 2.51042,1.85999 3.75726,1.05514 1.52093,-0.98177 1.48252,-2.28271 -0.11668,-3.95307 z m -232.93491,-3.96274 c -0.75694,-1.27921 -1.81815,-2.32583 -2.35825,-2.32583 -0.5401,0 -0.982,1.04662 -0.982,2.32583 0,1.2792 1.06122,2.32582 2.35825,2.32582 1.29704,0 1.73894,-1.04662 0.982,-2.32582 z m 45.65002,-2.32583 c 0,-1.2792 -1.00207,-2.32582 -2.22683,-2.32582 -1.22476,0 -2.22683,1.04662 -2.22683,2.32582 0,1.27921 1.00207,2.32583 2.22683,2.32583 1.22476,0 2.22683,-1.04662 2.22683,-2.32583 z m 144.74397,-0.58145 c 0,-2.72375 -3.24394,-2.04612 -4.17531,0.87218 -0.45928,1.4391 0.29227,2.22407 1.67013,1.74437 1.37785,-0.4797 2.50518,-1.65715 2.50518,-2.61655 z m 34.51587,0.58145 c -0.75695,-1.2792 -1.81816,-2.32582 -2.35826,-2.32582 -0.54009,0 -0.98199,1.04662 -0.98199,2.32582 0,1.27921 1.06122,2.32583 2.35826,2.32583 1.29704,0 1.73893,-1.04662 0.98199,-2.32583 z m 18.92806,-8.27765 c 0,-1.84331 -2.00415,-3.35147 -4.45366,-3.35147 -5.0099,0 -5.7114,2.40767 -1.87036,6.41946 3.06968,3.20615 6.32402,1.62736 6.32402,-3.06799 z m 17.81464,0.3861 c 0,-3.32596 -4.60629,-6.0634 -10.20287,-6.0634 -3.89767,0 -4.19457,6.15303 -0.37457,7.76295 5.47207,2.3062 10.57744,1.48589 10.57744,-1.69955 z m -220.22506,-9.07814 c -2.8581,-2.98516 -5.75647,-0.67798 -3.6405,2.89794 0.81965,1.38518 2.51041,1.85999 3.75726,1.05514 1.52093,-0.98177 1.48251,-2.28272 -0.11675,-3.95308 z m 21.10597,-0.40428 c 0.9775,-4.06778 -0.14775,-7.76452 -3.85452,-12.66335 -7.24744,-9.57808 -9.40049,-8.84804 -7.64879,2.59348 2.33968,15.28204 8.87589,21.00376 11.50331,10.06987 z m 133.33249,1.25391 c 1.64685,-2.78309 -2.5422,-5.54065 -5.50829,-3.62601 -2.4904,1.60758 -0.85548,5.79112 2.26315,5.79112 1.08019,0 2.5405,-0.9743 3.24514,-2.16511 z M 151.4977,134.3367 c -2.91412,-4.83324 -9.73201,-6.66555 -9.73201,-2.61548 0,1.59208 1.67985,4.83341 3.733,7.20297 4.75105,5.48324 9.76104,1.65207 5.99901,-4.58749 z m 210.72419,-8.79509 c 0,-0.5641 -1.00207,-1.02565 -2.22683,-1.02565 -1.22475,0 -2.22683,1.10839 -2.22683,2.46309 0,1.3547 1.00208,1.81624 2.22683,1.02565 1.22476,-0.79059 2.22683,-1.89898 2.22683,-2.46309 z m 63.10559,48.54555 c -0.79259,-2.31968 -1.9085,-5.10699 -2.47984,-6.19402 -0.57134,-1.08702 1.08629,-0.78854 3.6836,0.66329 5.10487,2.8535 6.04475,5.99956 2.47984,8.30075 -1.23342,0.79618 -2.89102,-0.45033 -3.6836,-2.77002 z m 10.37981,-7.70634 c 0,-1.27921 2.0633,-2.32583 4.58509,-2.32583 2.5218,0 3.96576,1.04662 3.20882,2.32583 -0.75694,1.2792 -2.82024,2.32582 -4.58509,2.32582 -1.76485,0 -3.20882,-1.04662 -3.20882,-2.32582 z"
       id="path4894"
       inkscape:connector-curvature="0" />
    <path
       style="fill:#6c7070"
       d="m 213.02426,458.17296 c -3.06189,-0.53254 -15.08677,-2.18651 -26.72196,-3.67545 -12.0486,-1.54189 -26.26554,-5.04762 -33.0275,-8.14423 l -11.87262,-5.43703 1.50761,-14.70371 c 0.82919,-8.08705 1.82038,-18.83474 2.20264,-23.88373 0.38226,-5.04902 1.67427,-19.79908 2.87113,-32.77793 1.21749,-13.20252 1.36189,-27.54658 0.32779,-32.56155 -6.05947,-29.38615 -8.62505,-38.66661 -11.66898,-42.21031 -4.58672,-5.33979 -7.16545,-20.64344 -4.12358,-24.47161 1.72071,-2.16551 1.48648,-6.56446 -0.83458,-15.67383 -1.77465,-6.9649 -3.23853,-13.9121 -3.25307,-15.43824 -0.0145,-1.52613 5.99603,-10.06512 13.35681,-18.97552 12.17227,-14.73483 13.17972,-16.75978 11.13415,-22.37924 -1.237,-3.39818 -2.24908,-6.48855 -2.24908,-6.86748 0,-0.37894 2.7557,-0.15855 6.12378,0.48975 5.94733,1.14477 6.01149,1.04643 2.22683,-3.41294 -2.14332,-2.52542 -3.89695,-5.81754 -3.89695,-7.31582 0,-3.89888 -1.58267,-3.39695 -6.94334,2.20203 -3.80763,3.9769 -4.12946,5.3146 -1.67012,6.94186 2.24421,1.48491 1.72705,2.02506 -1.96399,2.0513 -3.13461,0.0223 -5.01037,-1.36575 -5.01037,-3.70758 0,-2.90841 -1.73815,-3.53126 -7.7939,-2.79286 l -7.79391,0.95035 0,-9.91736 c 0,-11.17665 -3.76242,-14.73266 -15.58781,-14.73266 -8.518476,0 -14.174244,2.96298 -25.058256,13.12769 -4.596365,4.2926 -9.143773,7.80473 -10.105347,7.80473 -0.961576,0 -6.922917,-5.07414 -13.247425,-11.27586 -8.676904,-8.50846 -10.869568,-11.93339 -8.934052,-13.95495 1.41078,-1.4735 4.540403,-2.67909 6.954714,-2.67909 2.414314,0 6.084643,-1.60213 8.156285,-3.56028 2.071643,-1.95816 17.18165,-9.22157 33.577795,-16.1409 16.396146,-6.91935 29.586616,-13.42853 29.312146,-14.46487 -3.99892,-15.09934 -12.8404,-28.426573 -20.90891,-31.517113 -2.49728,-0.956552 -3.59329,-4.246596 -3.59329,-10.786461 0,-8.413331 0.43359,-9.167724 4.09342,-7.12197 2.25138,1.258467 6.87458,5.928675 10.27379,10.378237 3.39919,4.449564 7.31025,8.090146 8.69123,8.090185 1.38098,3.7e-5 3.75835,1.57 5.28303,3.488805 1.52469,1.918806 5.13154,3.488738 8.01524,3.488738 2.9789,0 6.66238,2.259874 8.5297,5.233109 1.80764,2.87821 6.86094,7.24066 11.22956,9.69434 l 7.94294,4.46123 6.07971,-6.03882 c 5.77417,-5.73535 6.30896,-5.84266 10.64166,-2.13541 7.52941,6.44251 8.07618,11.03342 1.30432,10.95169 -5.32226,-0.0642 -5.92978,0.84588 -6.55102,9.81396 -0.54568,7.87723 -1.53656,9.88475 -4.87895,9.88475 -5.74272,0 -7.681,4.08015 -4.09204,8.6139 1.63638,2.06716 2.97524,6.44671 2.97524,9.73233 0,4.00808 1.38879,6.25935 4.22043,6.84146 3.63238,0.74671 4.02797,-0.13741 2.83921,-6.34548 -1.76174,-9.20028 1.79697,-9.33334 6.30135,-0.2356 4.12609,8.33369 6.73981,8.77874 10.24436,1.74437 4.89205,-9.81936 10.58723,-13.81726 17.44289,-12.24456 3.68324,0.84493 6.85349,3.37088 7.5071,5.98138 1.37655,5.49793 8.71179,6.18555 7.76975,0.72835 -1.00206,-5.80485 13.55363,-10.09184 30.91023,-9.10377 8.26954,0.47076 16.50062,-0.27082 18.66327,-1.68146 4.55605,-2.97179 10.30426,2.9332 23.79116,24.4401 7.75251,12.36253 9.00112,13.35466 16.83068,13.3735 5.94223,0.0142 9.91518,1.62796 13.36098,5.42675 2.69723,2.97352 6.65767,6.08054 8.80099,6.90448 4.7796,1.83737 5.02867,7.10723 0.55671,11.77801 -4.32865,4.52108 -4.2104,5.39302 0.70098,5.16859 6.19578,-0.28313 23.34175,21.46043 21.6798,27.4931 -3.67788,13.35014 -5.81637,30.33714 -4.56705,36.27811 0.83354,3.96379 0.10733,9.28988 -1.801,13.20804 -1.75879,3.61117 -3.90361,12.84551 -4.76626,20.52073 -1.15775,10.3008 -2.83556,14.98804 -6.40746,17.9002 -4.61397,3.76179 -4.82089,5.54654 -4.44912,38.37612 0.21445,18.93698 1.03659,44.49227 1.82701,56.78956 l 1.4371,22.35871 -9.12677,3.81415 c -14.15944,5.91734 -49.14443,10.73587 -85.82728,11.82107 -18.37135,0.5435 -35.90763,0.55246 -38.96953,0.0209 z m 4.45367,-210.38826 c 0,-1.2792 -1.06122,-2.32583 -2.35826,-2.32583 -1.29703,0 -1.73893,1.04663 -0.98199,2.32583 0.75694,1.2792 1.81815,2.32582 2.35825,2.32582 0.5401,0 0.982,-1.04662 0.982,-2.32582 z m 21.15488,0 c -0.75694,-1.2792 -1.81815,-2.32583 -2.35825,-2.32583 -0.5401,0 -0.98199,1.04663 -0.98199,2.32583 0,1.2792 1.06121,2.32582 2.35825,2.32582 1.29704,0 1.73893,-1.04662 0.98199,-2.32582 z m 5.56708,-20.93243 c 0,-1.2792 -1.00207,-2.32582 -2.22683,-2.32582 -1.22476,0 -2.22683,1.04662 -2.22683,2.32582 0,1.27921 1.00207,2.32583 2.22683,2.32583 1.22476,0 2.22683,-1.04662 2.22683,-2.32583 z m 15.58781,0 c 0,-1.2792 -1.00207,-2.32582 -2.22683,-2.32582 -1.22476,0 -2.22683,1.04662 -2.22683,2.32582 0,1.27921 1.00207,2.32583 2.22683,2.32583 1.22476,0 2.22683,-1.04662 2.22683,-2.32583 z m 8.90732,-19.90678 c 0,-1.99429 -1.00207,-2.97915 -2.22683,-2.18856 -1.22475,0.7906 -2.22683,2.42229 -2.22683,3.626 0,1.20371 1.00208,2.18857 2.22683,2.18857 1.22476,0 2.22683,-1.63171 2.22683,-3.62601 z m -53.21278,-4.04038 c -2.85811,-2.98517 -5.75648,-0.67799 -3.6405,2.89793 0.81964,1.38518 2.51041,1.86 3.75725,1.05515 1.52094,-0.98178 1.48251,-2.28272 -0.11675,-3.95308 z m 22.03716,3.01474 c 0,-1.27921 -1.50311,-2.32583 -3.34025,-2.32583 -1.83713,0 -3.34024,1.04662 -3.34024,2.32583 0,1.2792 1.50311,2.32582 3.34024,2.32582 1.83714,0 3.34025,-1.04662 3.34025,-2.32582 z m -57.89759,-6.06341 c 0,-3.71876 -5.73621,-4.39151 -7.79391,-0.91407 -0.75694,1.2792 -0.78399,3.32674 -0.0601,4.55007 1.83172,3.09554 7.85401,0.30753 7.85401,-3.636 z m 145.85738,1.41176 c -0.75694,-1.27921 -2.31919,-2.32583 -3.47167,-2.32583 -1.15247,0 -2.0954,1.04662 -2.0954,2.32583 0,1.2792 1.56225,2.32582 3.47167,2.32582 1.90942,0 2.85235,-1.04662 2.0954,-2.32582 z m -125.81591,-3.48874 c 0,-1.91881 -1.44397,-3.48874 -3.20882,-3.48874 -3.72024,0 -6.23158,3.3196 -4.15341,5.49016 2.66141,2.77972 7.36223,1.50181 7.36223,-2.00142 z m 58.03452,-10.60924 c 6.16001,-6.43384 4.78764,-14.06187 -3.01602,-16.76412 -13.82511,-4.78736 -23.30563,4.50323 -16.1823,15.85811 4.43244,7.0655 12.91761,7.46593 19.19832,0.90601 z M 77.187616,166.38082 c 0,-1.27921 -1.002073,-2.32583 -2.22683,-2.32583 -1.224757,0 -2.22683,1.04662 -2.22683,2.32583 0,1.2792 1.002073,2.32582 2.22683,2.32582 1.224757,0 2.22683,-1.04662 2.22683,-2.32582 z m 57.387274,-4.21556 c 0.4848,-1.51906 -0.70516,-2.76192 -2.64436,-2.76192 -1.9392,0 -3.52582,1.65715 -3.52582,3.68256 0,4.10723 4.79383,3.39196 6.17018,-0.92064 z m 20.55179,-20.08521 c 0,-9.22523 -5.48425,-16.52534 -13.91769,-18.52588 -3.36808,-0.79896 -6.12379,-0.85743 -6.12379,-0.12993 0,2.2824 7.17434,15.93245 11.83329,22.51428 5.4522,7.70248 8.20819,6.40696 8.20819,-3.85847 z m -28.9488,5.69417 c 0,-1.27921 -1.00207,-2.32583 -2.22683,-2.32583 -1.22475,0 -2.22683,1.04662 -2.22683,2.32583 0,1.2792 1.00208,2.32582 2.22683,2.32582 1.22476,0 2.22683,-1.04662 2.22683,-2.32582 z m -5.62718,44.29225 c 0.72388,-1.22333 2.78717,-1.63467 4.58508,-0.91407 4.60311,1.8449 4.06068,3.13832 -1.31615,3.13832 -2.52179,0 -3.99281,-1.00091 -3.26893,-2.22425 z m 287.39267,-13.98009 c -11.17717,-11.95533 -20.66886,-16.50478 -33.38635,-16.00236 -5.64893,0.22316 -11.43671,-0.812 -12.86175,-2.30037 -5.73932,-5.99448 -8.50373,-2.69157 -3.57493,4.27134 2.71651,3.83761 6.25376,6.97748 7.86058,6.97748 1.60681,0 2.92147,2.09324 2.92147,4.65165 0,5.97036 -5.45952,5.99238 -12.69102,0.0512 -3.75486,-3.08488 -6.80502,-3.96456 -9.25856,-2.67023 -4.60885,2.43131 -33.62445,0.46542 -33.99954,-2.30357 -1.2602,-9.3031 -2.16218,-17.70162 -3.84264,-35.77934 -1.66175,-17.87664 -1.42172,-21.5661 1.6443,-25.27315 3.37894,-4.08541 3.6556,-3.5382 4.70353,9.3033 1.14831,14.07171 5.02624,18.55331 6.27169,7.24801 0.54633,-4.95908 1.88312,-6.39602 5.95027,-6.39602 3.38901,0 8.02155,-3.3872 13.08855,-9.57001 4.31359,-5.2635 10.15361,-10.878337 12.97779,-12.477412 11.23881,-6.363493 31.56287,-19.871032 35.50393,-23.596208 6.16051,-5.823015 6.96992,-3.005083 3.77597,13.145894 -2.75263,13.919376 -3.25685,14.683616 -12.38345,18.769656 -8.96904,4.0155 -9.51399,4.80039 -9.51399,13.70299 0,7.89466 0.89937,9.80067 5.48354,11.62105 9.78735,3.88657 23.46525,14.51311 23.46525,18.23046 0,3.14307 -0.36954,3.10855 -2.78354,-0.25997 -1.53094,-2.1363 -5.78976,-3.91749 -9.46403,-3.9582 -25.06317,-0.27768 -25.76928,-0.0153 -20.28186,7.53476 3.31593,4.56239 9.45815,5.42328 10.7099,1.5011 1.04434,-3.27227 18.89374,1.81324 24.80382,7.06691 9.72372,8.64373 19.28401,19.89938 19.28401,22.70368 0,5.57239 -5.69149,3.1253 -14.40294,-6.19263 z m -81.35076,-19.45831 c 0,-4.82713 -2.63561,-6.41744 -5.91889,-3.57141 -4.31645,3.74157 -3.67283,6.67251 1.46523,6.67251 2.44951,0 4.45366,-1.3955 4.45366,-3.1011 z m 3.73462,-14.57733 c 1.40584,-3.82644 -3.23882,-8.50022 -6.41183,-6.45201 -0.97704,0.63069 -1.77645,3.17818 -1.77645,5.6611 0,5.44195 6.25741,6.04636 8.18828,0.79091 z m 26.25203,-9.49933 c 7.32031,-3.646 10.44747,-10.42261 6.10363,-13.22661 -0.97121,-0.62693 -6.43761,0.46651 -12.14753,2.42986 -10.26324,3.52901 -10.34181,3.63331 -6.88536,9.14299 4.16176,6.63406 3.18169,6.5087 12.92926,1.65376 z m -22.50947,-6.54671 c 0,-1.2792 -1.68234,-2.66422 -3.73858,-3.07782 -2.27813,-0.45823 -3.7386,0.74412 -3.7386,3.07782 0,2.33371 1.46047,3.53605 3.7386,3.07782 2.05624,-0.4136 3.73858,-1.79861 3.73858,-3.07782 z m 103.86433,38.37612 c 0,-1.27921 1.56226,-2.32583 3.47168,-2.32583 1.90942,0 2.85234,1.04662 2.0954,2.32583 -0.75694,1.2792 -2.3192,2.32582 -3.47167,2.32582 -1.15248,0 -2.09541,-1.04662 -2.09541,-2.32582 z"
       id="path4892"
       inkscape:connector-curvature="0" />
    <path
       style="fill:#4b5154"
       d="m 213.02426,457.1603 c -27.75988,-2.45112 -46.85004,-6.23593 -59.08723,-11.71458 -11.68335,-5.23071 -11.28783,-2.09003 -6.58586,-52.29695 4.14412,-44.25029 4.00183,-58.37098 -0.81804,-81.18199 -3.0304,-14.34195 -4.89982,-18.77697 -8.5013,-20.16847 -5.96189,-2.30349 -8.47078,-16.03542 -3.65342,-19.99637 2.82934,-2.32636 2.92368,-4.72345 0.63837,-16.22108 -1.47486,-7.42023 -3.09847,-14.62604 -3.60802,-16.01293 -0.50954,-1.38688 3.82568,-9.00293 9.63382,-16.92455 7.59758,-10.3622 11.62672,-14.04941 14.3616,-13.1428 5.28746,1.75277 7.93246,-3.66475 3.15314,-6.45829 -3.42749,-2.00339 -2.89944,-3.10986 4.57127,-9.5785 4.64553,-4.0224 11.98603,-7.83677 16.31223,-8.47637 5.505,-0.81388 8.6898,-2.89619 10.61117,-6.93787 1.50995,-3.17622 4.14438,-6.84341 5.85428,-8.14931 1.70991,-1.3059 3.80834,-4.67597 4.66317,-7.48905 0.85484,-2.81307 4.66187,-6.73389 8.46008,-8.71291 8.46023,-4.40815 9.23716,-4.44815 7.74947,-0.39896 -0.70164,1.90974 1.134,4.2983 4.55418,5.92591 7.59072,3.61231 4.23409,6.67861 -8.30891,7.59021 -7.8662,0.5717 -9.95667,1.58816 -9.72277,4.72753 0.16387,2.19958 -1.37294,4.55313 -3.41515,5.23012 -2.0422,0.67698 -5.48968,4.37209 -7.66105,8.21134 -3.11384,5.50566 -5.4951,6.98046 -11.27083,6.98046 -7.80772,0 -14.69363,5.80811 -14.69363,12.39372 0,4.7443 4.88025,4.97884 12.94647,0.6222 7.20819,-3.89321 25.79729,-2.38585 29.60032,2.40023 3.46255,4.35759 13.12397,4.13801 13.12397,-0.29828 0,-4.97329 3.87441,-4.31338 6.66642,1.13545 1.30319,2.5433 4.91908,5.29255 8.03529,6.10944 4.03491,1.05772 4.97791,2.20376 3.27597,3.98136 -2.51734,2.62925 -3.2603,11.51051 -1.14751,13.71723 0.68329,0.71367 3.18848,0.76604 5.56707,0.11638 4.68847,-1.28057 5.7555,-7.51726 1.96372,-11.47761 -1.66344,-1.73739 0.33539,-2.8437 6.76534,-3.74447 16.63758,-2.33078 26.20734,-13.18445 15.08042,-17.10366 -4.42424,-1.55834 -3.96836,-2.00485 3.89696,-3.81683 4.89902,-1.12863 12.2984,-2.23659 16.44305,-2.46214 10.83437,-0.58961 12.83208,-7.65518 5.29333,-18.72162 -3.16054,-4.63951 -6.839,-8.44976 -8.17434,-8.46722 -1.33534,-0.0175 -4.68256,-0.66285 -7.43826,-1.43418 -2.7557,-0.77133 -5.01037,-0.3558 -5.01037,0.92341 0,1.2792 1.98636,2.86836 4.41411,3.53145 3.90114,1.06553 4.13461,2.04303 2.00898,8.41166 -1.3228,3.9633 -3.38073,7.20601 -4.57315,7.20601 -1.19244,0 -3.67117,1.56993 -5.50831,3.48874 -5.63058,5.88089 -7.4497,3.93927 -6.08098,-6.49052 1.19536,-9.1088 0.80315,-10.22025 -4.49626,-12.74218 -3.19323,-1.5196 -5.80586,-3.79164 -5.80586,-5.04896 0,-2.05577 9.09219,-5.32486 21.15489,-7.60623 2.7769,-0.52518 4.20474,-2.35467 3.79249,-4.8593 -1.04637,-6.35728 5.85676,-7.45594 11.57754,-1.84261 2.81749,2.76455 8.52842,11.15678 12.69097,18.64939 6.56634,11.81944 8.60596,13.77137 15.40648,14.7442 6.26296,0.89592 21.18433,9.14958 26.41194,14.6096 0.53008,0.55365 -1.73915,3.62298 -5.04272,6.82075 -4.98171,4.82213 -5.59778,6.61178 -3.61094,10.4893 2.94735,5.75197 5.77415,5.94856 8.69947,0.605 2.00306,-3.65888 3.05218,-3.21723 10.38175,4.37044 l 8.15352,8.44063 -2.47312,15.98053 c -1.36022,8.7893 -4.02967,29.52582 -5.9321,46.08118 -2.92719,25.47288 -4.17196,30.62223 -8.09653,33.4933 -4.52848,3.31289 -4.608,4.6016 -3.3808,54.792 0.69121,28.26962 1.92209,53.66458 2.73526,56.43327 1.09972,3.74437 0.24322,5.72446 -3.34343,7.7293 -18.28503,10.22088 -87.39053,17.72741 -129.20762,14.03505 z M 254.3527,299.17604 c -2.43364,-4.11273 -7.92598,-2.92431 -7.92598,1.71499 0,2.34523 0.6919,4.98669 1.53758,5.86994 2.27235,2.37337 8.15093,-4.60627 6.3884,-7.58493 z m -12.37964,-15.20378 c 0,-4.54731 -4.31642,-7.0255 -7.12586,-4.09117 -1.25627,1.31211 -1.61086,3.52348 -0.78796,4.91416 2.18277,3.68881 7.91382,3.09282 7.91382,-0.82299 z m 24.1017,-2.07438 c 0.41657,-2.24342 -0.70108,-3.87745 -2.65212,-3.87745 -4.13684,0 -6.63363,3.79144 -4.67572,7.10025 2.01426,3.40399 6.46044,1.44855 7.32784,-3.2228 z m 44.93004,-13.42959 c 0,-2.42154 -1.41961,-4.40281 -3.15469,-4.40281 -3.5167,0 -5.61072,4.35096 -4.12689,8.57499 1.46855,4.18062 7.28158,0.8499 7.28158,-4.17218 z m -56.22682,0.83152 c 1.21754,-3.8193 -5.75965,-6.54566 -8.75228,-3.41998 -1.28067,1.33758 -1.62092,3.62775 -0.75611,5.08925 1.96752,3.32503 8.26893,2.21877 9.50839,-1.66927 z m 22.05593,-1.84591 c 1.68023,-4.57322 -0.30802,-6.673 -4.66506,-4.9267 -1.95713,0.78441 -2.84134,2.87932 -2.08462,4.93898 1.68812,4.59472 5.05931,4.5886 6.74968,-0.0116 z m -76.05721,-1.0626 c -0.75694,-1.2792 -1.81816,-2.32582 -2.35825,-2.32582 -0.5401,0 -0.982,1.04662 -0.982,2.32582 0,1.2792 1.06122,2.32583 2.35825,2.32583 1.29704,0 1.73894,-1.04663 0.982,-2.32583 z m 30.06221,-2.39881 c 0,-5.31995 -5.85089,-8.7013 -9.13001,-5.27641 -3.19751,3.33965 0.076,10.00105 4.91459,10.00105 2.75257,0 4.21542,-1.63957 4.21542,-4.72464 z M 333.2731,253.42872 c 0,-2.1659 -1.51507,-3.35238 -3.71241,-2.90728 -5.58661,1.13163 -6.35371,6.56656 -0.92681,6.56656 2.73528,0 4.63922,-1.50176 4.63922,-3.65928 z m -90.41765,-2.36517 c 1.80991,-4.92623 -0.21152,-7.9305 -5.33605,-7.9305 -5.00576,0 -7.546,3.59281 -5.83429,8.25176 1.66496,4.5317 9.46982,4.30723 11.17034,-0.32126 z m 24.33448,0.43727 c 0.65903,-1.79374 0.59922,-3.88698 -0.13294,-4.65165 -1.50064,-1.56741 -9.49612,-1.91902 -9.49612,-0.41761 0,0.53498 -0.60824,2.62822 -1.35166,4.65165 -1.01041,2.75015 0.0538,3.67896 4.21541,3.67896 3.06189,0 6.10628,-1.4676 6.76531,-3.26135 z m -45.25834,-2.26842 c 0,-1.76218 -1.54558,-4.5437 -3.43463,-6.18116 -4.23287,-3.66914 -8.9712,0.24331 -6.95168,5.74004 1.64991,4.49073 10.38631,4.86178 10.38631,0.44112 z m 66.38098,-0.86624 c -0.97397,-5.28222 -7.0855,-5.28222 -8.05947,0 -0.52656,2.85576 0.67579,4.07019 4.02973,4.07019 3.35394,0 4.5563,-1.21443 4.02974,-4.07019 z m 31.20611,-1.35565 c 0.42617,-2.29504 -0.70982,-3.87746 -2.78354,-3.87746 -2.06567,0 -3.50351,1.98857 -3.50351,4.84547 0,5.66814 5.20359,4.86695 6.28705,-0.96801 z m 8.85539,-13.64593 c 4.33731,-4.53013 3.23721,-11.16396 -1.85134,-11.16396 -4.99117,0 -7.79406,5.05325 -5.80532,10.46622 1.548,4.21337 4.07058,4.44325 7.65666,0.69774 z m -127.31729,-4.00106 c 3.26106,-2.67918 4.50082,-5.07003 3.09845,-5.97527 -1.28577,-0.82998 -1.72004,-2.55299 -0.96504,-3.82891 2.12758,-3.59554 -6.08038,-8.83172 -13.97293,-8.91388 -9.2442,-0.0962 -11.22207,3.63236 -5.37509,10.13287 2.57783,2.86596 4.68696,6.36444 4.68696,7.7744 0,2.12796 2.55512,4.18417 6.32926,5.0934 0.41919,0.10099 3.20847,-1.82618 6.19839,-4.28261 z m 60.72351,1.27228 c 3.38057,-4.25442 0.77601,-10.761 -4.3076,-10.761 -5.13703,0 -8.23927,9.10949 -4.04707,11.88388 4.14792,2.74508 5.41668,2.57456 8.35467,-1.12288 z m 15.74973,-8.29403 c 1.27116,-2.48077 1.45405,-5.0638 0.40641,-5.74006 -2.96932,-1.91672 -10.11245,4.57106 -8.33678,7.5719 2.33982,3.95421 5.31807,3.26626 7.93037,-1.83184 z m -46.69111,-2.46697 c 0,-3.1011 -1.48456,-4.65165 -4.45366,-4.65165 -4.29153,0 -6.03448,4.5511 -2.96911,7.75275 3.06537,3.20164 7.42277,1.3812 7.42277,-3.1011 z m 60.12441,-14.11672 c 0,-3.65585 -1.19945,-4.63468 -4.9876,-4.07019 -7.40143,1.10291 -8.05196,8.88361 -0.74274,8.88361 4.30998,0 5.73034,-1.19308 5.73034,-4.81342 z m 37.85612,-0.83502 c 0,-4.51458 -6.15705,-10.62658 -10.73651,-10.65794 -2.05583,-0.0142 -7.49566,-0.67433 -12.0885,-1.46723 -7.59222,-1.3107 -8.35061,-0.96454 -8.35061,3.8116 0,4.79328 0.75164,5.12769 8.58501,3.8194 6.86404,-1.1464 9.3884,-0.50663 12.5927,3.19148 4.67082,5.39064 9.99791,6.08475 9.99791,1.30269 z m -97.98053,-17.60982 c 0,-1.2792 1.00207,-2.32582 2.22683,-2.32582 1.22475,0 2.22683,1.04662 2.22683,2.32582 0,1.27921 -1.00208,2.32583 -2.22683,2.32583 -1.22476,0 -2.22683,-1.04662 -2.22683,-2.32583 z m -3.6051,-8.02259 c -0.74075,-2.01617 -0.12053,-5.20904 1.37827,-7.09527 1.49879,-1.88623 2.14339,-5.01276 1.43243,-6.94786 -1.00076,-2.72385 0.45155,-3.51835 6.43136,-3.51835 9.1209,0 9.84596,2.6645 2.15694,7.92651 -3.06189,2.09542 -5.56707,5.29388 -5.56707,7.1077 0,4.89971 -4.27902,6.75402 -5.83193,2.52727 z m 182.72485,-3.9007 c -3.59723,-3.9994 -11.55077,-9.74559 -17.67456,-12.76932 -9.1465,-4.51624 -10.09812,-5.50173 -5.33058,-5.52039 6.31867,-0.0248 24.95533,13.57764 28.75047,20.9842 3.28297,6.407 1.82653,5.72395 -5.74533,-2.69449 z m -345.210024,-3.8442 c -3.779546,-3.48032 -8.789914,-7.53249 -11.134152,-9.00483 -4.193956,-2.6341 -4.193433,-2.70585 0.03265,-4.47853 3.342202,-1.40192 5.941793,0.18835 11.719389,7.16916 l 7.424492,8.97069 7.475684,-7.9809 c 11.455191,-12.22936 15.086278,-14.86031 22.249675,-16.1213 8.07832,-1.42204 10.68519,-6.99257 3.2489,-6.94246 -6.593436,0.0445 -21.233681,5.31915 -24.640896,8.87784 -3.037677,3.17272 -10.617249,3.65289 -10.617249,0.67262 0,-1.12401 3.25674,-3.38677 7.237199,-5.02836 3.980459,-1.64158 17.051147,-7.61522 29.045976,-13.27475 15.35867,-7.24671 22.60328,-9.59236 24.49513,-7.93103 1.4775,1.29746 5.15975,7.12336 8.18278,12.94642 5.34161,10.28919 5.37792,10.6779 1.28925,13.80052 -5.45192,4.16377 -12.35275,2.22802 -12.35275,-3.46506 0,-5.15309 -5.93977,-8.33719 -9.20015,-4.93187 -1.47585,1.54146 -1.05234,3.53889 1.26309,5.95726 1.91587,2.00104 3.4834,4.10673 3.4834,4.6793 0,0.57256 -5.44429,1.51259 -12.09842,2.08893 -9.96686,0.86327 -14.220694,2.75801 -24.14412,10.75422 -6.625134,5.33848 -12.955211,9.67564 -14.066834,9.63815 -1.111625,-0.0375 -5.113492,-2.91571 -8.89304,-6.39602 z m 293.474114,1.85738 c -4.03933,-3.51749 -7.31146,-4.18392 -15.58781,-3.17473 -5.76139,0.70252 -13.98251,0.27727 -18.26916,-0.94499 l -7.79391,-2.2223 8.90732,-2.42952 c 21.0756,-5.74849 24.47536,-5.43052 33.13326,3.0989 4.43471,4.3689 8.06311,8.46905 8.06311,9.11145 0,2.32385 -3.44433,0.92261 -8.45281,-3.43881 z m -229.81804,0.81125 c 0,-0.80836 3.57861,-4.99485 7.95246,-9.30331 8.08264,-7.96178 12.94918,-9.69898 15.42926,-5.50773 0.75694,1.27921 3.95656,2.32583 7.11026,2.32583 7.25094,0 22.95195,4.83944 22.95195,7.07436 0,4.76398 -21.59562,5.95094 -32.60695,1.79218 -6.2021,-2.34241 -7.94623,-2.16554 -11.46759,1.16292 -4.12354,3.89765 -9.36939,5.2726 -9.36939,2.45575 z m 183.71983,-24.09353 c -1.82387,-6.00195 0.90113,-11.07787 3.57818,-6.66514 2.55854,4.21742 2.4995,11.29598 -0.0942,11.29598 -1.14223,0 -2.71003,-2.08388 -3.48398,-4.63084 z M 161.80717,144.4757 c 0,-4.37259 -0.61121,-9.61374 -1.35824,-11.64701 -1.03451,-2.81575 -0.10573,-3.554 3.89696,-3.09751 4.46169,0.50885 5.16444,-0.32615 4.6542,-5.53009 -0.38968,-3.97443 0.69395,-6.64844 3.08216,-7.60562 3.1418,-1.25922 3.48959,-0.23047 2.36629,6.99936 -0.72427,4.66155 -2.8628,10.25973 -4.75228,12.44041 -1.88949,2.18067 -3.43543,6.76066 -3.43543,10.17774 0,3.41709 -1.00208,6.21289 -2.22683,6.21289 -1.22476,0 -2.22683,-3.57758 -2.22683,-7.95017 z m 214.82,-6.12159 c -2.11596,-3.57592 0.7824,-5.8831 3.64051,-2.89793 1.59927,1.67036 1.63768,2.9713 0.11669,3.95308 -1.24685,0.80484 -2.93761,0.33003 -3.75727,-1.05515 z m -31.04322,-20.70866 c -2.20108,-3.71976 1.31555,-14.04661 5.59863,-16.44075 2.21991,-1.240871 5.75681,-1.566521 7.85978,-0.72366 2.30746,0.92483 4.83418,0.0889 6.37234,-2.108149 1.40184,-2.002343 5.01471,-4.003985 8.02862,-4.448095 3.21752,-0.474117 5.4798,-2.344399 5.4798,-4.530293 0,-2.04755 3.25674,-6.58873 7.2372,-10.091507 8.13764,-7.161071 8.25568,-6.915318 4.31108,8.974836 -1.68803,6.799899 -4.60654,12.423198 -7.19425,13.861748 -2.39471,1.33125 -7.06916,4.29399 -10.38765,6.58386 -3.31849,2.28987 -8.45667,4.1634 -11.41818,4.1634 -2.96153,0 -6.63206,1.56993 -8.15675,3.48874 -3.18822,4.01236 -5.84917,4.44945 -7.73062,1.26987 z m -218.05441,-3.78592 c -0.74341,-2.02343 -1.35166,-5.62726 -1.35166,-8.00851 0,-2.38125 -1.81962,-5.69717 -4.0436,-7.368706 -2.22398,-1.671541 -4.69771,-4.870753 -5.49718,-7.10936 -0.79948,-2.238606 -3.44885,-4.070194 -5.88749,-4.070194 -3.55426,0 -4.34125,-1.397681 -3.96685,-7.045064 l 0.46707,-7.045066 8.94288,9.952348 c 4.91859,5.47379 12.68466,12.021939 17.25793,14.551441 9.20005,5.088591 10.66316,8.192941 3.86139,8.192941 -3.26601,0 -4.45366,1.55055 -4.45366,5.81456 0,6.49592 -3.24852,7.79781 -5.32883,2.13561 z"
       id="path4890"
       inkscape:connector-curvature="0" />
    <path
       style="fill:#3c4449"
       d="m 208.5706,455.85921 c -1.83713,-0.3906 -12.70171,-2.0047 -24.1435,-3.58691 -13.74896,-1.90125 -21.20871,-3.9803 -21.99895,-6.13118 -0.65763,-1.78993 -2.52052,-2.72345 -4.13976,-2.07447 -1.61924,0.64899 -5.0931,-0.63756 -7.71968,-2.859 -4.66432,-3.94483 -4.71462,-4.63314 -2.15877,-29.53766 1.43925,-14.02428 3.02272,-32.30173 3.51881,-40.61656 0.49609,-8.31482 1.443,-20.00991 2.10424,-25.98907 1.26294,-11.41989 -1.52336,-28.38021 -12.4159,-75.57622 -3.59254,-15.56598 -6.53189,-30.38131 -6.53189,-32.92294 0,-6.19873 15.35182,-24.97966 19.82632,-24.2549 1.95547,0.31674 7.31318,0.8008 11.90602,1.07568 9.29969,0.55659 9.78249,1.29665 5.08118,7.78865 -4.93574,6.81574 -4.20133,10.77036 1.84643,9.9426 8.04219,-1.10073 12.62071,4.12498 11.00532,12.56096 -1.29711,6.77389 -1.07542,7.04158 4.59948,5.55395 4.87865,-1.2789 6.32051,-0.60136 7.93335,3.72791 1.40132,3.76149 1.06464,6.03729 -1.16472,7.87309 -4.06942,3.35105 -3.97001,6.59129 0.31622,10.30668 2.84457,2.46575 4.0702,2.3466 6.9652,-0.67709 3.19969,-3.34193 3.98454,-3.13817 8.79555,2.2838 2.90531,3.27422 5.28238,7.20803 5.28238,8.7418 0,4.71793 9.08084,11.64996 15.2613,11.64996 4.73195,0 6.34554,1.56693 8.38278,8.14039 3.50519,11.31002 10.44664,12.12094 16.24989,1.89834 8.11713,-14.29852 9.38184,-14.90703 12.94354,-6.22761 2.5945,6.32238 2.69979,9.31898 0.55041,15.66395 -3.40289,10.04535 -0.88564,11.92094 15.64381,11.65612 14.45786,-0.23165 21.07112,-2.12754 21.37758,-6.12857 0.12247,-1.599 0.37299,-5.00052 0.5567,-7.55893 0.21289,-2.96312 1.92993,-4.65165 4.7305,-4.65165 2.71063,0 5.82637,-2.89849 8.12551,-7.55893 2.05097,-4.15742 5.58397,-8.92657 7.85109,-10.59809 2.26713,-1.67155 4.12206,-5.5346 4.12206,-8.5846 0,-6.91819 3.07053,-9.01262 10.39727,-7.09197 5.30151,1.38975 5.44507,1.77493 2.10026,5.63521 -4.74702,5.47858 -4.55202,9.59178 0.45474,9.59178 3.63517,0 3.88506,1.4164 2.46666,13.98093 -0.86809,7.6895 -3.18936,16.54897 -5.15839,19.68769 -1.96903,3.1387 -3.58005,7.76205 -3.58005,10.2741 0,2.51203 -1.49416,6.12794 -3.32036,8.03531 -1.8262,1.90738 -2.41586,3.81375 -1.31038,4.23633 1.10551,0.4226 2.34915,4.43153 2.76366,8.90874 0.61983,6.69489 0.0617,8.01903 -3.14329,7.45697 -2.34979,-0.41209 -3.89695,0.78264 -3.89695,3.00925 0,2.2266 1.54716,3.42133 3.89695,3.00924 3.51889,-0.61711 4.0619,2.92696 5.59699,36.52978 1.55508,34.04039 1.36616,37.46891 -2.21588,40.21224 -2.15374,1.64948 -6.03618,2.70885 -8.62763,2.35413 -2.59147,-0.35468 -6.10365,0.52929 -7.80486,1.96437 -5.38252,4.5405 -51.63207,10.13809 -81.43724,9.85636 -15.69906,-0.14839 -30.04686,-0.58939 -31.884,-0.97996 z m 126.92933,-37.12636 c 0,-1.9188 -1.00207,-3.48874 -2.22683,-3.48874 -1.22476,0 -2.22683,1.56994 -2.22683,3.48874 0,1.91881 1.00207,3.48874 2.22683,3.48874 1.22476,0 2.22683,-1.56993 2.22683,-3.48874 z m -15.58781,-1.16291 c 0,-1.27921 -1.00207,-2.32583 -2.22683,-2.32583 -1.22476,0 -2.22683,1.04662 -2.22683,2.32583 0,1.2792 1.00207,2.32582 2.22683,2.32582 1.22476,0 2.22683,-1.04662 2.22683,-2.32582 z m 12.80427,-9.88476 c -1.05082,-3.2926 -4.63176,-2.93065 -5.75263,0.58146 -0.40827,1.2792 0.92783,2.32582 2.9691,2.32582 2.04126,0 3.29386,-1.30827 2.78353,-2.90728 z m 0.13918,-59.74463 c 0.55671,-1.74437 -0.27835,-2.61656 -1.94848,-2.0351 -1.6075,0.55964 -3.36113,2.39123 -3.89695,4.07019 -0.55671,1.74437 0.27835,2.61656 1.94848,2.0351 1.60748,-0.55966 3.36111,-2.39125 3.89695,-4.07019 z m -86.42885,-30.38109 c -1.31094,-2.55841 -2.84931,-4.65166 -3.4186,-4.65166 -0.56928,0 -1.03506,2.09325 -1.03506,4.65166 0,2.63162 1.48455,4.65165 3.41859,4.65165 2.72855,0 2.93747,-0.93894 1.03507,-4.65165 z m 92.77904,-12.94839 c 1.97778,-5.38314 -2.3987,-8.94275 -5.77337,-4.69577 -2.85284,3.59026 -1.56059,8.34085 2.26885,8.34085 1.19091,0 2.76795,-1.64028 3.50452,-3.64508 z m -99.45953,-0.73531 c 0,-1.13 -2.00415,-2.60194 -4.45366,-3.27099 -4.37728,-1.19557 -5.8885,0.72584 -2.96911,3.775 2.16032,2.25638 7.42277,1.89904 7.42277,-0.50401 z m -62.35125,-48.97632 c 0,-3.15674 -3.92932,-5.23085 -5.35267,-2.82544 -1.33086,2.24912 0.59748,5.014 3.49698,5.014 1.02063,0 1.85569,-0.98485 1.85569,-2.18856 z m 111.52777,36.14742 c -2.45464,-3.08914 -1.92492,-6.05931 3.32566,-18.64746 3.43495,-8.23522 8.03598,-17.40411 10.22451,-20.37535 l 3.97919,-5.40226 0.0494,6.11123 c 0.0272,3.36118 -1.3665,7.33866 -3.09717,8.83885 -1.73069,1.5002 -3.81821,7.82712 -4.63893,14.05984 -0.82074,6.23272 -2.7142,13.07763 -4.20766,15.21087 -2.46813,3.52542 -2.98135,3.54403 -5.63511,0.20421 z m -154.23408,-7.21187 c -1.43533,-6.96929 -0.74136,-10.10415 1.6775,-7.57775 0.70454,0.73587 0.93865,4.31183 0.52024,7.94658 l -0.76073,6.60865 -1.43701,-6.97748 z m 184.66674,-0.64718 c -2.61561,-0.57509 -3.89695,-3.05163 -3.89695,-7.53186 0,-7.60161 6.88736,-13.9163 15.17836,-13.9163 3.4489,0 5.69376,-1.65229 6.47291,-4.76428 1.19467,-4.77146 7.36482,-5.50059 8.78692,-1.03835 0.67245,2.10996 -4.59946,5.17138 -15.40709,8.94691 -2.45169,0.85649 -3.9096,3.76056 -3.93104,7.83041 -0.0437,8.27398 -2.29803,11.55193 -7.20311,10.47347 z m -93.89887,-2.52941 c -0.95925,-1.6211 -1.14271,-3.57556 -0.40769,-4.34327 1.99292,-2.08152 4.16588,0.97987 3.08947,4.35267 -0.75428,2.36343 -1.27879,2.36159 -2.68178,-0.009 z m 25.42384,-1.33779 c 0,-0.56411 1.00207,-1.6725 2.22683,-2.4631 1.22476,-0.79059 2.22683,-0.32905 2.22683,1.02565 0,1.3547 -1.00207,2.46309 -2.22683,2.46309 -1.22476,0 -2.22683,-0.46153 -2.22683,-1.02564 z m 24.49513,-1.02567 c 0,-1.2792 1.00208,-2.97266 2.22683,-3.76325 1.22476,-0.7906 2.22683,-0.39081 2.22683,0.88839 0,1.27921 -1.00207,2.97266 -2.22683,3.76326 -1.22475,0.79059 -2.22683,0.39081 -2.22683,-0.8884 z m 8.90732,-15.25511 c 0,-0.5641 1.00208,-1.6725 2.22683,-2.46309 1.22476,-0.7906 2.22683,-0.32906 2.22683,1.02564 0,1.3547 -1.00207,2.4631 -2.22683,2.4631 -1.22475,0 -2.22683,-0.46154 -2.22683,-1.02565 z m 36.10469,-49.31453 c -4.43894,-5.2879 -6.36583,-5.91544 -15.0311,-4.89532 -12.14021,1.42921 -13.29643,-1.90889 -1.38896,-4.01008 6.58525,-1.16203 10.42383,-0.35436 16.70122,3.51404 4.48293,2.76257 8.15076,6.4894 8.15076,8.28185 0,4.84095 -2.72624,3.90638 -8.43192,-2.89049 z m 6.5572,-17.10876 c -3.47669,-4.91151 -6.81667,-6.97747 -11.28026,-6.97747 -3.48764,0 -7.64094,-1.63575 -9.22954,-3.63499 -2.53743,-3.19335 -2.0971,-3.4582 3.6243,-2.17989 3.58197,0.8003 8.86784,1.95903 11.74642,2.57495 2.87855,0.61591 8.38996,3.42492 12.24756,6.24222 3.85759,2.81731 7.48583,5.44448 8.06273,5.83816 1.41146,0.96316 -4.89457,5.03411 -7.86734,5.07889 -1.30063,0.0196 -4.58736,-3.10425 -7.30387,-6.94187 z m -30.38715,-24.17721 c -3.29431,-4.51107 -7.79593,-8.80073 -10.00361,-9.53257 -3.37318,-1.1182 -8.01552,-15.13254 -5.01275,-15.13254 3.91599,0 13.78962,10.77409 18.06222,19.70943 6.4175,13.42106 4.91793,15.8609 -3.04586,4.95568 z m -144.4,-2.95741 c -3.1676,-3.30842 -1.21036,-5.42693 5.01381,-5.42693 8.29231,0 13.86763,2.22159 12.28548,4.89536 -1.42673,2.41114 -15.09753,2.83121 -17.29929,0.53157 z m 184.98523,-0.19758 c -2.15834,-0.51136 -3.35178,-1.89715 -2.65214,-3.07954 1.66812,-2.81904 9.91659,-2.7868 9.91659,0.0388 0,3.03603 -2.63287,4.13811 -7.26445,3.04078 z m -76.07888,-2.66029 c -3.98173,-1.62917 -4.00872,-1.86871 -0.37458,-3.32526 5.97174,-2.39344 8.00568,-1.90587 8.00568,1.91911 0,3.82184 -1.19082,4.04126 -7.6311,1.40615 z m -118.18481,-4.89488 c 0.75694,-1.27921 2.31919,-2.32583 3.47167,-2.32583 1.15247,0 2.09541,1.04662 2.09541,2.32583 0,1.2792 -1.56225,2.32582 -3.47167,2.32582 -1.90942,0 -2.85235,-1.04662 -2.09541,-2.32582 z m 61.65536,-0.14537 c 0.53584,-1.67895 2.28946,-3.51054 3.89696,-4.07019 1.67012,-0.58146 2.50518,0.29073 1.94847,2.0351 -0.53583,1.67895 -2.28946,3.51054 -3.89695,4.07019 -1.67012,0.58146 -2.50518,-0.29073 -1.94848,-2.0351 z m -69.96605,-16.13541 c -1.52975,-2.55841 -4.35294,-4.65165 -6.27375,-4.65165 -1.92081,0 -5.43755,-1.56993 -7.81496,-3.48874 -4.27887,-3.45347 -4.27887,-3.524 0,-6.97747 6.77884,-5.47119 9.35587,-4.26463 15.52853,7.27042 6.49764,12.14237 6.59894,12.49909 3.54949,12.49909 -1.21437,0 -3.45957,-2.09324 -4.98931,-4.65165 z m -7.27712,-34.88738 c -0.75694,-1.2792 -0.31505,-2.32582 0.98199,-2.32582 1.29704,0 2.35825,1.04662 2.35825,2.32582 0,1.27921 -0.44189,2.32583 -0.98199,2.32583 -0.5401,0 -1.60131,-1.04662 -2.35825,-2.32583 z m 240.06513,-8.21388 c 5.47509,-5.03088 14.90694,-7.905924 14.90694,-4.543971 0,2.089549 -14.33424,10.417361 -17.81465,10.349831 -2.21431,-0.043 -1.23417,-2 2.90771,-5.80586 z M 127.2913,98.931886 c -0.75694,-1.279203 -0.37419,-2.325825 0.85057,-2.325825 1.22476,0 2.84615,1.046622 3.60309,2.325825 0.75694,1.279204 0.37418,2.325824 -0.85057,2.325824 -1.22476,0 -2.84615,-1.04662 -3.60309,-2.325824 z"
       id="path4888"
       inkscape:connector-curvature="0" />
    <path
       style="fill:#262726"
       d="m 217.47793,455.7832 c -18.76367,-2.1829 -45.97077,-6.11157 -49.54698,-7.15452 -2.14332,-0.62506 -3.89695,-3.09741 -3.89695,-5.49413 0,-2.39672 -0.94418,-4.96713 -2.09817,-5.71204 -1.154,-0.74492 -2.79122,-6.18144 -3.63829,-12.0812 -1.24033,-8.63883 -0.83193,-11.14072 2.09817,-12.85339 5.25843,-3.07358 4.47301,-8.19444 -1.92879,-12.57555 -7.98089,-5.46174 -7.42237,-11.22134 0.9192,-9.47886 10.03366,2.09594 12.94203,-3.31195 7.09519,-13.19292 -4.57474,-7.73113 -6.50492,-24.79376 -2.80475,-24.79376 1.69285,0 7.03793,-9.98974 7.03793,-13.15361 0,-0.7181 -2.50519,-0.6489 -5.56708,0.15374 -5.43744,1.42538 -5.56707,1.15872 -5.56707,-11.45169 0,-7.10107 -1.33906,-16.27894 -2.9757,-20.39528 -1.63662,-4.11631 -3.65987,-10.36243 -4.49608,-13.88024 -1.29446,-5.44555 -0.828,-6.39602 3.13897,-6.39602 3.26199,0 4.41607,-1.22069 3.84811,-4.0702 -0.50139,-2.51552 -2.57232,-3.88038 -5.42176,-3.57325 -3.89098,0.41936 -5.17664,-1.75844 -8.23824,-13.95496 -8.38059,-33.38591 -8.39078,-33.74172 -1.21013,-42.2836 l 6.50881,-7.74267 6.64984,6.09453 c 3.65741,3.352 6.64984,7.7925 6.64984,9.86779 0,2.07529 2.02782,5.68999 4.50628,8.03268 3.07353,2.90516 3.78153,5.01637 2.22683,6.6402 -4.11769,4.30074 -2.5929,12.66221 2.62447,14.39174 7.29244,2.41744 26.2717,17.82633 26.2717,21.32951 0,2.69086 2.33693,7.22122 12.91545,25.03774 1.51904,2.55841 4.25831,8.05317 6.08726,12.21058 l 3.32536,7.55894 31.70245,0.35638 c 40.35286,0.45365 57.47721,-0.34471 62.09877,-2.89514 2.54293,-1.40331 4.06423,-0.96654 4.94047,1.41843 0.73321,1.9956 4.10748,3.44615 8.01652,3.44615 7.97709,0 8.75552,3.31691 1.74,7.41422 -5.30865,3.10042 -10.62543,4.1416 -25.05184,4.90591 -7.74979,0.41058 -8.99336,1.24329 -9.56942,6.40783 -0.41974,3.76293 1.08046,7.58303 4.09808,10.43533 4.49229,4.24621 4.91931,4.2721 7.58808,0.4601 4.19793,-5.99624 5.67717,-4.95778 5.67717,3.98551 0,4.77366 -1.37594,8.82906 -3.39621,10.00993 -2.6893,1.57191 -3.00299,3.89552 -1.50707,11.16324 1.7567,8.53459 2.00288,8.77043 3.51106,3.36356 3.06517,-10.98864 11.06299,-27.9099 13.19164,-27.9099 2.93266,0 0.0156,17.68388 -3.96236,24.02596 -4.00593,6.38562 -1.27479,11.52732 5.56696,10.48042 6.31265,-0.96594 8.48933,4.10529 2.60005,6.05757 -2.35541,0.7808 -6.06468,3.47643 -8.24286,5.99028 -3.73657,4.31243 -4.12291,4.34192 -6.83855,0.52208 -2.39992,-3.37573 -3.62376,-3.57331 -7.3643,-1.1889 -2.82307,1.79959 -4.98576,2.01515 -5.83412,0.58146 -2.0565,-3.47543 -5.53888,-2.71435 -5.53888,1.21055 0,1.9188 1.50311,3.48873 3.34024,3.48873 1.87495,0 3.34025,2.0765 3.34025,4.73348 0,3.93601 0.71552,4.33352 4.24705,2.35948 3.63067,-2.02945 4.61778,-1.28184 6.80148,5.15128 2.3298,6.86349 2.81017,7.16733 5.46248,3.45508 4.16067,-5.82342 5.15095,-5.13554 6.20691,4.31159 0.61696,5.51977 -0.0601,8.78141 -1.98319,9.55215 -1.60606,0.64369 -2.92009,2.45823 -2.92009,4.03233 0,6.32391 -74.88311,14.80055 -102.43419,11.59535 z m 76.82564,-27.3594 c 0,-6.06238 -4.36659,-5.68192 -5.19776,0.45286 -0.51012,3.76532 0.18995,5.16696 2.22683,4.45784 1.63401,-0.56888 2.97093,-2.77871 2.97093,-4.9107 z m -96.86712,-4.01366 c 0,-1.3547 -1.00207,-1.81623 -2.22683,-1.02564 -1.22475,0.7906 -2.22683,1.89899 -2.22683,2.4631 0,0.5641 1.00208,1.02564 2.22683,1.02564 1.22476,0 2.22683,-1.1084 2.22683,-2.4631 z m -24.49513,-9.16603 c 0,-3.10109 1.48455,-4.65165 4.45366,-4.65165 2.47426,0 4.45366,-1.55055 4.45366,-3.48873 0,-1.91881 -1.3959,-3.48874 -3.102,-3.48874 -1.7061,0 -3.6788,1.56993 -4.38377,3.48874 -0.70498,1.9188 -2.81633,3.48873 -4.69191,3.48873 -3.44631,0 -4.66201,4.89468 -1.92558,7.75275 2.82316,2.94865 5.19594,1.53251 5.19594,-3.1011 z m 124.7025,-49.1271 c 0,-4.60458 -5.4434,-6.0133 -7.80622,-2.02023 -0.76372,1.29064 -0.73858,4.48561 0.0559,7.09993 1.15332,3.79532 2.07986,4.20246 4.5974,2.02021 1.73412,-1.50318 3.15297,-4.69815 3.15297,-7.09991 z m -123.3633,-12.7314 c -0.71926,-1.9577 -2.31961,-2.90626 -3.55633,-2.10795 -1.48228,0.95683 -1.36048,3.18466 0.35739,6.53725 2.83798,5.53853 5.50461,1.84628 3.19894,-4.4293 z m 9.79495,-6.61607 c 0,-1.84331 -0.93283,-3.95362 -2.07296,-4.68958 -2.64745,-1.70897 -5.31011,2.64625 -3.49412,5.71522 2.0477,3.46053 5.56708,2.81213 5.56708,-1.02564 z m -2.22683,-23.25825 c 0,-1.84331 -0.93283,-3.95363 -2.07296,-4.68959 -2.64745,-1.70897 -5.31011,2.64626 -3.49412,5.71523 2.0477,3.46053 5.56708,2.81213 5.56708,-1.02564 z m -11.13415,-20.93243 c 0,-4.7775 -4.6101,-7.12488 -6.78253,-3.45357 -1.00701,1.70181 -1.33687,3.92913 -0.73302,4.94961 1.87148,3.16275 7.51555,2.03924 7.51555,-1.49604 z m 4.45366,-19.90678 c 0,-1.27921 -1.00207,-2.32583 -2.22683,-2.32583 -1.22476,0 -2.22683,1.04662 -2.22683,2.32583 0,1.2792 1.00207,2.32582 2.22683,2.32582 1.22476,0 2.22683,-1.04662 2.22683,-2.32582 z m 1.80291,-13.3735 c -0.97397,-5.2822 -7.08552,-5.2822 -8.05948,0 -0.52656,2.85577 0.6758,4.0702 4.02974,4.0702 3.35394,0 4.5563,-1.21443 4.02974,-4.0702 z m -16.59402,-1.74437 c 0,-1.2792 -1.68237,-2.66423 -3.7386,-3.07781 -2.27812,-0.45823 -3.73859,0.7441 -3.73859,3.07781 0,2.33371 1.46047,3.53605 3.73859,3.07781 2.05623,-0.41357 3.7386,-1.7986 3.7386,-3.07781 z m 161.796,45.93505 c 0.0178,-0.9594 0.8818,-3.14112 1.9179,-4.84825 1.43223,-2.35988 2.17475,-1.94174 3.09766,1.74437 0.80535,3.21657 0.15989,4.84825 -1.91788,4.84825 -1.72248,0 -3.11643,-0.78497 -3.09768,-1.74437 z m 7.75982,-116.87272 c -0.75695,-1.2792 -0.37418,-2.32582 0.85058,-2.32582 1.22475,0 2.84613,1.04662 3.60308,2.32582 0.75694,1.27921 0.37417,2.32583 -0.85059,2.32583 -1.22475,0 -2.84613,-1.04662 -3.60307,-2.32583 z M 155.72978,167.30146 c 0.73995,-0.77286 2.66059,-0.85548 4.26809,-0.18363 1.77641,0.74247 1.24875,1.29359 -1.34538,1.40519 -2.34745,0.10099 -3.66267,-0.44872 -2.92271,-1.22157 z m 132.40318,-5.78596 c -2.16909,-1.31893 -3.36254,-3.38035 -2.65214,-4.58093 2.07904,-3.51349 5.1475,-2.53088 7.70934,2.46877 2.61897,5.11115 0.99223,5.79056 -5.0572,2.11216 z"
       id="path4886"
       inkscape:connector-curvature="0" />
  </g>
</svg>
