<?xml version="1.0" encoding="UTF-8" standalone="no"?>
<svg
   xmlns:dc="http://purl.org/dc/elements/1.1/"
   xmlns:cc="http://creativecommons.org/ns#"
   xmlns:rdf="http://www.w3.org/1999/02/22-rdf-syntax-ns#"
   xmlns:svg="http://www.w3.org/2000/svg"
   xmlns="http://www.w3.org/2000/svg"
   xmlns:sodipodi="http://sodipodi.sourceforge.net/DTD/sodipodi-0.dtd"
   xmlns:inkscape="http://www.inkscape.org/namespaces/inkscape"
   sodipodi:docname="willow wand.svg"
   height="100%"
   width="100%"
   inkscape:version="0.48.4 r9939"
   version="1.1"
   id="svg8438"
   viewBox="0 0 512 512">
  <metadata
     id="metadata8464">
    <rdf:RDF>
      <cc:Work
         rdf:about="">
        <dc:format>image/svg+xml</dc:format>
        <dc:type
           rdf:resource="http://purl.org/dc/dcmitype/StillImage" />
        <dc:title></dc:title>
      </cc:Work>
    </rdf:RDF>
  </metadata>
  <defs
     id="defs8462">
    <linearGradient
       id="linearGradient4077">
      <stop
         id="stop4079"
         offset="0"
         style="stop-color:#aa4400;stop-opacity:1;" />
      <stop
         style="stop-color:#ff9f00;stop-opacity:1;"
         offset="0.22752622"
         id="stop4081" />
      <stop
         style="stop-color:#803300;stop-opacity:1;"
         offset="0.4948855"
         id="stop4083" />
      <stop
         id="stop4085"
         offset="1"
         style="stop-color:#562200;stop-opacity:1;" />
    </linearGradient>
    <linearGradient
       id="linearGradient4057">
      <stop
         style="stop-color:#aa4400;stop-opacity:1;"
         offset="0"
         id="stop4059" />
      <stop
         id="stop4067"
         offset="0.22752622"
         style="stop-color:#ecd1a4;stop-opacity:1;" />
      <stop
         id="stop4065"
         offset="0.50136983"
         style="stop-color:#803300;stop-opacity:1;" />
      <stop
         style="stop-color:#562200;stop-opacity:1;"
         offset="1"
         id="stop4061" />
    </linearGradient>
    <linearGradient
       id="linearGradient3890">
      <stop
         style="stop-color:#701b1b;stop-opacity:1;"
         offset="0"
         id="stop3892" />
      <stop
         style="stop-color:#e31600;stop-opacity:1;"
         offset="1"
         id="stop3894" />
    </linearGradient>
    <linearGradient
       id="linearGradient3882">
      <stop
         style="stop-color:#600b0b;stop-opacity:1;"
         offset="0"
         id="stop3884" />
      <stop
         style="stop-color:#d11414;stop-opacity:1;"
         offset="1"
         id="stop3886" />
    </linearGradient>
    <linearGradient
       id="linearGradient3872">
      <stop
         style="stop-color:#800600;stop-opacity:1;"
         offset="0"
         id="stop3874" />
      <stop
         style="stop-color:#ff0004;stop-opacity:0;"
         offset="1"
         id="stop3876" />
    </linearGradient>
    <filter
       id="filter4074"
       inkscape:label="Black Light"
       inkscape:menu="Color"
       inkscape:menu-tooltip="Light areas turn to black"
       x="0"
       width="1"
       y="0"
       height="1"
       color-interpolation-filters="sRGB">
      <feColorMatrix
         id="feColorMatrix4076"
         type="luminanceToAlpha"
         result="result2" />
      <feComposite
         in2="SourceGraphic"
         id="feComposite4078"
         operator="arithmetic"
         in="result2"
         k3="2"
         result="result4" />
      <feBlend
         in2="result2"
         id="feBlend4080"
         in="result4"
         mode="multiply"
         result="result3" />
      <feComposite
         in2="SourceGraphic"
         id="feComposite4082"
         operator="in"
         in="result3" />
    </filter>
  </defs>
  <sodipodi:namedview
     pagecolor="#000000"
     bordercolor="#666666"
     borderopacity="1"
     objecttolerance="10"
     gridtolerance="10"
     guidetolerance="10"
     inkscape:pageopacity="0"
     inkscape:pageshadow="2"
     inkscape:window-width="1190"
     inkscape:window-height="1126"
     id="namedview8460"
     showgrid="false"
     inkscape:zoom="1"
     inkscape:cx="20.371258"
     inkscape:cy="308.69667"
     inkscape:window-x="160"
     inkscape:window-y="130"
     inkscape:window-maximized="0"
     inkscape:current-layer="svg8438" />
  <path
     style="fill:#000000"
     id="path3978"
     d="M -13.466093,0.1885736 H 514.89024 V 516.42957 H -13.466093 z"
     inkscape:connector-curvature="0" />
  <path
     transform="matrix(0.92592215,0,0,1,-12.92858,0)"
     sodipodi:end="6.1122693"
     sodipodi:start="6.11213"
     d="m 101.95774,-78.577314 a 39.244427,23.688076 0 0 1 9.3e-4,0.0033 l -38.672613,4.028989 z"
     sodipodi:ry="23.688076"
     sodipodi:rx="39.244427"
     sodipodi:cy="-74.545074"
     sodipodi:cx="63.286057"
     id="path4121"
     style="fill:#333333;fill-opacity:1;fill-rule:nonzero;stroke:none"
     sodipodi:type="arc" />
  <path
     transform="matrix(0.92592215,0,0,1,-12.92858,0)"
     sodipodi:end="6.1122693"
     sodipodi:start="6.11213"
     d="m 76.035958,-54.360671 a 10.606602,11.755651 0 0 1 2.51e-4,0.0016 l -10.452057,1.999461 z"
     sodipodi:ry="11.755651"
     sodipodi:rx="10.606602"
     sodipodi:cy="-52.359596"
     sodipodi:cx="65.584152"
     id="path4123"
     style="fill:#333333;fill-opacity:1;fill-rule:nonzero;stroke:none"
     sodipodi:type="arc" />
  <path
     transform="matrix(0.92592215,0,0,1,-12.92858,0)"
     sodipodi:end="6.1122693"
     sodipodi:start="6.11213"
     d="m 69.424272,-57.251206 a 15.46796,16.793785 0 0 1 3.67e-4,0.0023 l -15.242583,2.856372 z"
     sodipodi:ry="16.793785"
     sodipodi:rx="15.46796"
     sodipodi:cy="-54.392529"
     sodipodi:cx="54.182056"
     id="path4125"
     style="fill:#333333;fill-opacity:1;fill-rule:nonzero;stroke:none"
     sodipodi:type="arc" />
  <g
     id="g4105">
    <path
       style="fill:#a99992"
       d="m 261.09131,461.03943 c -4.8755,-2.95567 -7.25049,-8.29354 -8.3333,-9.4175 -2.94023,-3.05197 7.80677,-122.98544 10.7329,-126.64523 2.48481,-3.10777 -0.48373,-87.53584 1.92583,-179.39738 1.37325,-52.353663 -1.29014,-57.720579 2.11906,-60.308195 3.587,-2.722549 5.13151,-3.061877 8.44391,0.138249 3.04491,2.941713 5.47466,60.397756 5.51358,148.475046 0.0348,78.70786 2.4082,90.23775 4.84671,91.20906 3.58765,1.42903 2.58765,10.70541 -1,17.21985 -1.89959,3.44929 -2.69326,13.64298 -2.74035,30.29107 -0.0709,25.07017 1.70112,38.70942 7.74769,59.63302 5.17717,17.9151 7.66429,20.68181 -6.57835,27.52951 -6.47294,3.1121 -12.22891,5.8807 -12.79105,6.15241 -0.56212,0.27172 -5.01111,-1.92423 -9.88663,-4.87991 z"
       id="path4113"
       inkscape:connector-curvature="0"
       sodipodi:nodetypes="sssssssssssscs" />
    <path
       style="fill:#9c847b"
       d="m 260.34874,454.91596 c -9.06667,-2.89215 -10.35845,-7.10114 -6.93166,-22.58521 1.72337,-7.78713 3.32218,-26.84289 3.88126,-46.25964 0.87086,-30.24479 0.64002,-33.63247 -2.74855,-40.33681 -4.1568,-8.22436 -3.45259,-14.30918 2.20657,-19.06582 4.8923,-4.11211 4.91058,-4.48141 6.48351,-130.93515 0.71751,-57.684 1.95653,-105.934326 2.75338,-107.22295 0.79685,-1.288623 2.47656,-1.933581 3.7327,-1.433237 1.65744,0.660194 2.21202,7.961891 2.02188,26.620727 -0.14408,14.14106 0.44577,27.10663 1.31084,28.81237 0.94959,1.87243 0.73281,3.97331 -0.54711,5.30186 -1.57918,1.63921 -1.46527,3.4703 0.44664,7.17849 l 2.5666,4.97798 2.21882,-4.30347 c 2.0991,-4.0713 2.27295,-4.10199 3.22216,-0.56873 0.55185,2.05411 0.78434,9.30575 0.51666,16.11476 -0.35872,9.12464 -1.30043,12.8527 -3.58124,14.17762 -2.29461,1.33293 -3.09453,4.56356 -3.09453,12.49794 0,6.63898 0.71018,10.24474 1.87111,9.49998 1.02911,-0.6602 1.87111,-2.89678 1.87111,-4.97018 0,-2.0734 0.76087,-3.76982 1.69085,-3.76982 0.9691,0 1.76429,27.1503 1.86291,63.60777 0.16597,61.36848 0.30413,63.70159 3.92251,66.27245 4.60991,3.27537 4.72856,6.60288 0.47595,13.34738 -2.75414,4.368 -3.25682,9.6807 -3.16349,33.43501 0.0943,23.9966 0.86775,31.347 5.14556,48.89931 5.77863,23.7103 5.94944,25.66324 2.50422,28.63117 -3.53818,3.04802 -23.37746,4.39241 -30.63866,2.0762 z m 21.94237,-24.77363 c 0,-1.93228 -1.23622,-5.20978 -2.74716,-7.28334 -3.04844,-4.18358 -3.74297,-1.53752 -1.68683,6.42657 1.34933,5.22638 4.43399,5.82243 4.43399,0.85677 z m -15.70953,-9.55632 c -0.62177,-0.64538 -1.06399,0.50176 -0.98274,2.54917 0.0898,2.26259 0.53315,2.7228 1.13045,1.17343 0.5405,-1.40205 0.47404,-3.07722 -0.14763,-3.7226 z m 11.96731,-187.09397 c 0,-5.27807 -0.74989,-9.59648 -1.66639,-9.59648 -1.8704,0 -3.32888,10.30279 -2.40985,17.02324 1.07799,7.88265 4.07624,2.41993 4.07624,-7.42676 z M 276.8255,108.49518 c -0.0812,-2.04742 0.36098,-3.19455 0.98275,-2.54916 0.62175,0.64538 0.68821,2.32055 0.14763,3.72259 -0.5973,1.54938 -1.04068,1.08915 -1.13045,-1.17343 z"
       id="path4111"
       inkscape:connector-curvature="0" />
    <path
       style="fill:#8c726a"
       d="m 263.58,454.67226 c -11.98383,-3.43887 -12.51369,-5.04925 -8.35313,-25.38667 4.8961,-23.93282 5.03982,-74.80002 0.23842,-84.39025 -4.45678,-8.9019 -3.96778,-13.93595 1.56582,-16.11978 4.45046,-1.75638 4.68521,-2.62709 4.83061,-17.91749 0.084,-8.83927 0.42577,-23.0634 0.75935,-31.60918 0.3336,-8.54578 1.15323,-53.39232 1.82138,-99.65897 0.66816,-46.26666 1.92958,-86.033656 2.80315,-88.371111 0.94472,-2.527831 1.52604,11.883541 1.43466,35.565631 -0.13341,34.5626 0.28433,40.68324 3.1662,46.39227 2.7675,5.48252 2.93317,7.32666 0.99573,11.0844 -1.6858,3.26962 -2.30134,18.26673 -2.24113,54.60329 0.0457,27.55258 -0.63344,51.00918 -1.50912,52.12577 -1.48507,1.89364 1.10974,12.49557 4.33261,17.70234 0.76684,1.23887 0.88043,3.64237 0.25245,5.34111 -0.628,1.69873 -0.26134,3.0886 0.81483,3.0886 1.07615,0 2.49547,-4.1515 3.15402,-9.22555 1.82198,-14.03802 2.43589,-14.24092 2.93828,-0.97111 0.25277,6.67638 0.52973,13.6598 0.61551,15.5187 0.10497,2.27695 -1.64117,3.70293 -5.35133,4.37 -5.91327,1.06319 -6.80594,3.73987 -2.2435,6.72716 1.89705,1.24211 4.40991,0.97449 7.62611,-0.81218 6.77043,-3.76113 7.86323,-1.37408 4.21195,9.20042 -5.60737,16.23954 -3.08711,71.0598 4.15575,90.39567 3.1695,8.46141 2.57289,18.39397 -1.2264,20.41784 -5.5278,2.94462 -17.89886,3.90723 -24.79222,1.92909 z m 22.10452,-10.2829 c 2.01912,-1.95477 1.56693,-5.23623 -2.53333,-18.38373 -4.23715,-13.58639 -5.52689,-15.85881 -8.5371,-15.04172 -4.74925,1.28917 -6.77655,-2.55142 -2.89996,-5.49379 3.70112,-2.80915 3.9897,-4.83234 0.6893,-4.83234 -3.97216,0 -8.65056,10.4152 -9.98926,22.23842 -1.23673,10.92254 -1.17914,11.10922 3.22776,10.46458 3.93081,-0.57498 4.41709,0.0264 3.92321,4.8513 -0.76867,7.50974 2.58088,11.2584 8.73006,9.77023 2.71231,-0.65639 6.0375,-2.26422 7.38932,-3.57295 z M 276.09208,278.1049 c -1.19457,-4.74164 -0.22988,-7.59601 2.56724,-7.59601 2.18039,0 2.25602,5.89282 0.1205,9.38973 -1.18752,1.94461 -1.85882,1.49662 -2.68774,-1.79372 z"
       id="path4109"
       inkscape:connector-curvature="0" />
    <path
       style="fill:#796259"
       d="m 262.08867,452.76867 c -3.39302,-0.98534 -6.65717,-3.11169 -7.25368,-4.72523 -0.59649,-1.61356 0.28575,-10.0994 1.96057,-18.85746 4.0264,-21.05509 4.1818,-75.76485 0.23555,-82.93042 -3.54749,-6.44152 -3.6188,-15.53778 -0.12181,-15.53778 1.47668,0 5.05518,0.9943 7.95222,2.20957 2.89706,1.21526 8.21437,2.77471 11.81626,3.46543 5.65624,1.08469 6.45552,1.90862 5.86393,6.04487 -1.31476,9.19219 -1.17513,51.50927 0.21445,64.99791 1.33629,12.97142 1.2784,13.28347 -1.261,6.79777 -1.46386,-3.73877 -2.72563,-8.39451 -2.80392,-10.34606 -0.12471,-3.10835 -9.59341,-14.90283 -11.96411,-14.90283 -0.48562,0 -1.33137,3.2775 -1.87941,7.28334 -0.54807,4.00583 -2.35356,15.22067 -4.01223,24.92186 -3.84485,22.48765 -2.54551,26.93974 8.39208,28.75522 4.296,0.71304 10.88725,0.78545 14.64723,0.16081 4.55975,-0.75743 5.90165,-0.53912 4.02964,0.65554 -4.43924,2.83297 -19.05842,3.96973 -25.81577,2.00739 z m 14.90357,-88.8359 c 0.44233,-10.23345 -0.0522,-14.61256 -1.7178,-15.21407 -1.38305,-0.49946 -2.33888,0.80898 -2.33888,3.20168 0,3.05043 -1.18331,4.04629 -4.80792,4.04629 -3.91752,0 -4.69606,0.80928 -4.20395,4.37 0.44908,3.24924 1.69827,4.24837 4.87083,3.89576 4.93057,-0.54799 7.44106,4.11573 4.31808,8.02169 -1.162,1.45333 -1.56539,4.12295 -0.89643,5.93248 2.22524,6.01926 4.14779,0.28151 4.77607,-14.25383 z m -12.13365,-36.41966 c -0.70322,-0.72994 -1.27859,-3.1168 -1.27859,-5.30411 0,-3.74952 0.18262,-3.78733 3.19425,-0.66129 2.17904,2.26184 2.58541,3.94765 1.2786,5.30411 -1.05362,1.09367 -2.49103,1.39124 -3.19426,0.66129 z m -1.24994,-13.78978 c -0.0158,-2.4035 0.81335,-4.37 1.84246,-4.37 2.34435,0 2.34435,2.06117 0,5.82667 -1.46671,2.35584 -1.81928,2.07709 -1.84246,-1.45667 z m 0.76805,-28.323 c -0.65839,-1.78096 -0.60166,-4.76761 0.12611,-6.637 1.15474,-2.96627 1.54472,-2.80078 3.06389,1.30036 1.11103,2.99928 1.06543,5.40021 -0.12611,6.63698 -1.24169,1.28888 -2.26768,0.85341 -3.06391,-1.30034 z m 0.53237,-31.88589 c 1.42541,-15.03652 2.41315,-15.36775 2.41315,-0.80926 0,6.58738 -0.78117,11.97704 -1.73592,11.97704 -0.98862,0 -1.28018,-4.80758 -0.67723,-11.16778 z m 0.70221,-28.64777 c 0.0732,-8.28832 0.56721,-10.53166 1.71094,-7.76889 2.19334,5.29815 2.19334,12.98595 0,16.50889 -1.27656,2.0504 -1.78334,-0.53837 -1.71094,-8.74 z m -0.0939,-43.21445 c -0.0365,-3.47172 0.72599,-6.31222 1.69436,-6.31222 3.20555,0 3.5582,2.89856 0.94813,7.79326 l -2.57612,4.83118 -0.0662,-6.31222 z"
       id="path4107"
       inkscape:connector-curvature="0" />
  </g>
</svg>
