<?xml version="1.0" encoding="UTF-8" standalone="no"?>
<svg
   xmlns:dc="http://purl.org/dc/elements/1.1/"
   xmlns:cc="http://creativecommons.org/ns#"
   xmlns:rdf="http://www.w3.org/1999/02/22-rdf-syntax-ns#"
   xmlns:svg="http://www.w3.org/2000/svg"
   xmlns="http://www.w3.org/2000/svg"
   xmlns:sodipodi="http://sodipodi.sourceforge.net/DTD/sodipodi-0.dtd"
   xmlns:inkscape="http://www.inkscape.org/namespaces/inkscape"
   viewBox="0 0 512 512"
   id="svg8438"
   version="1.1"
   inkscape:version="0.48.4 r9939"
   width="100%"
   height="100%"
   sodipodi:docname="soulsucker].svg">
  <metadata
     id="metadata8464">
    <rdf:RDF>
      <cc:Work
         rdf:about="">
        <dc:format>image/svg+xml</dc:format>
        <dc:type
           rdf:resource="http://purl.org/dc/dcmitype/StillImage" />
        <dc:title></dc:title>
      </cc:Work>
    </rdf:RDF>
  </metadata>
  <defs
     id="defs8462">
    <linearGradient
       id="linearGradient4077">
      <stop
         id="stop4079"
         offset="0"
         style="stop-color:#aa4400;stop-opacity:1;" />
      <stop
         style="stop-color:#ff9f00;stop-opacity:1;"
         offset="0.22752622"
         id="stop4081" />
      <stop
         style="stop-color:#803300;stop-opacity:1;"
         offset="0.4948855"
         id="stop4083" />
      <stop
         id="stop4085"
         offset="1"
         style="stop-color:#562200;stop-opacity:1;" />
    </linearGradient>
    <linearGradient
       id="linearGradient4057">
      <stop
         style="stop-color:#aa4400;stop-opacity:1;"
         offset="0"
         id="stop4059" />
      <stop
         id="stop4067"
         offset="0.22752622"
         style="stop-color:#ecd1a4;stop-opacity:1;" />
      <stop
         id="stop4065"
         offset="0.50136983"
         style="stop-color:#803300;stop-opacity:1;" />
      <stop
         style="stop-color:#562200;stop-opacity:1;"
         offset="1"
         id="stop4061" />
    </linearGradient>
    <linearGradient
       id="linearGradient3890">
      <stop
         style="stop-color:#701b1b;stop-opacity:1;"
         offset="0"
         id="stop3892" />
      <stop
         style="stop-color:#e31600;stop-opacity:1;"
         offset="1"
         id="stop3894" />
    </linearGradient>
    <linearGradient
       id="linearGradient3882">
      <stop
         style="stop-color:#600b0b;stop-opacity:1;"
         offset="0"
         id="stop3884" />
      <stop
         style="stop-color:#d11414;stop-opacity:1;"
         offset="1"
         id="stop3886" />
    </linearGradient>
    <linearGradient
       id="linearGradient3872">
      <stop
         style="stop-color:#800600;stop-opacity:1;"
         offset="0"
         id="stop3874" />
      <stop
         style="stop-color:#ff0004;stop-opacity:0;"
         offset="1"
         id="stop3876" />
    </linearGradient>
    <clipPath
       clipPathUnits="userSpaceOnUse"
       id="clipPath8376">
      <path
         style="fill:#ff00ff;fill-opacity:0.71428576;stroke:#000000;stroke-width:1px;stroke-linecap:butt;stroke-linejoin:miter;stroke-opacity:1"
         d="m 132.93607,314.71721 c -18.75439,-2.6482 -41.209306,-15.00127 -57.719183,0.0872 -14.632572,16.26402 -2.075155,41.46377 15.676843,49.39817 14.94638,6.42583 31.79998,7.64133 44.99002,18.3548 18.88157,12.67656 33.74901,36.21324 54.77809,45.17476 19.67803,12.42945 46.40674,18.90925 72.28436,15.29403 35.69784,-0.44414 60.68236,1.0828 95.28221,-9.91811 21.29965,-7.58431 46.4534,-16.56588 48.76742,-39.91128 15.5055,-69.17548 23.82494,-140.13958 22.24561,-211.07909 3.93899,-29.76399 -17.37653,-55.38471 -31.16915,-29.3739 -20.60533,21.8385 -10.85663,53.39088 -13.92803,79.60277 -12.67115,20.95558 -39.5345,4.51342 -36.8418,-19.09952 1.45819,-26.35967 -16.50294,-48.42312 -14.80626,-81.68971 -9.84916,-15.65873 -12.39304,-39.19665 -31.92202,-46.52752 -22.79813,-5.633297 -28.49969,25.04787 -22.06036,41.24795 8.57837,27.32674 9.17974,56.7085 20.45025,83.24182 -17.77505,18.67959 -25.25408,-7.50342 -35.36143,-32.60284 -2.63161,-18.85018 -6.72956,-31.2828 -8.19838,-45.38189 -4.97316,-16.26874 -12.26457,-33.261625 -20.86092,-46.773858 -11.19343,-21.409541 -46.04666,-1.515721 -36.14469,18.896448 9.58698,29.22098 22.25502,81.73486 30.69486,111.34888 9.79214,11.11296 -0.52886,22.40698 -8.30398,17.16719 -10.78604,-23.41232 -29.1287,-45.7668 -47.41268,-62.80573 -12.38005,-11.66833 -20.18258,-31.91042 -39.11983,-33.96625 -24.60914,2.55661 -26.98121,33.54309 -11.20737,48.45615 23.19408,41.17556 62.97938,73.31852 74.89468,120.4233 9.24868,21.59121 -11.23221,46.65988 -34.15183,37.14061 -18.31106,-5.06961 -25.39072,-28.22706 -45.70567,-29.53279"
         id="path8378"
         inkscape:connector-curvature="0"
         sodipodi:nodetypes="cccccccccccccccccccccccccccc" />
    </clipPath>
    <clipPath
       clipPathUnits="userSpaceOnUse"
       id="clipPath8442">
      <path
         style="fill:none;stroke:#ff00ff;stroke-width:1px;stroke-linecap:butt;stroke-linejoin:miter;stroke-opacity:1"
         d="m 222.73864,99.04964 c 1.40063,24.76016 -27.90493,28.77514 -45.48393,35.6962 -25.55589,11.41423 -30.38951,7.09173 -55.25684,20.47137 -11.84122,24.03423 -1.00008,33.18113 5.66675,51.52022 6.25698,27.14933 -19.58649,46.60948 -24.84578,71.47951 -7.850589,27.81202 16.82068,53.07367 18.28893,80.33071 4.9353,19.79827 18.08212,33.89671 20.26784,54.68225 -7.26962,7.36492 -16.77509,19.88827 -14.15478,28.3465 1.26717,4.09037 16.12768,0.0349 19.5343,3.56062 7.56304,7.82743 5.8995,22.46202 8.04699,30.21463 18.08356,11.55435 16.69726,-39.34089 23.95745,-13.52212 16.99228,17.11535 43.22481,14.3837 64.78462,17.20081 20.35807,1.44319 42.11143,3.89428 61.07864,-5.48049 2.07073,-3.13421 14.64908,-9.4644 15.45043,-12.75284 0.97028,-3.98166 0.38437,18.05225 3.04809,19.15858 7.61108,3.16114 18.54475,-9.02354 18.12943,-24.08849 0.63016,-15.1632 18.04973,-7.94921 19.46873,-12.18792 4.15209,-12.40278 -12.86709,-25.99561 -17.30571,-37.99176 4.38302,-26.41712 46.52422,-55.48054 54.06877,-80.92185 4.56952,-20.28842 13.07915,-15.13423 4.66394,-37.15777 -7.43559,-17.70568 -18.37956,-9.03902 -20.99933,-55.12572 -16.86225,-54.82604 29.5645,-34.98389 -13.98793,-81.02957 -18.05197,-22.23345 -31.2331,-19.16031 -74.59129,-38.71816 -4.52,-7.86966 15.43927,-43.214317 -4.79029,-58.856789 -19.01886,-16.048166 -54.82824,-15.865462 -67.75138,9.363145 -2.10407,11.963891 -0.6766,24.223305 2.71235,35.808934 z"
         id="path8444"
         inkscape:connector-curvature="0"
         sodipodi:nodetypes="cccccccssccccsscsccccccccc" />
    </clipPath>
  </defs>
  <sodipodi:namedview
     pagecolor="#000000"
     bordercolor="#666666"
     borderopacity="1"
     objecttolerance="10"
     gridtolerance="10"
     guidetolerance="10"
     inkscape:pageopacity="0"
     inkscape:pageshadow="2"
     inkscape:window-width="1190"
     inkscape:window-height="1126"
     id="namedview8460"
     showgrid="false"
     inkscape:zoom="1"
     inkscape:cx="248.20129"
     inkscape:cy="289.25135"
     inkscape:window-x="160"
     inkscape:window-y="130"
     inkscape:window-maximized="0"
     inkscape:current-layer="g8466"
     showguides="true"
     inkscape:guide-bbox="true">
    <sodipodi:guide
       orientation="1,0"
       position="75.660426,313.95541"
       id="guide9311" />
  </sodipodi:namedview>
  <g
     id="g8466">
    <path
       inkscape:connector-curvature="0"
       d="M -0.58051677,0.1885736 H 513.53445 V 516.42957 H -0.58051677 z"
       id="path3978"
       style="fill:#000000" />
    <path
       sodipodi:type="arc"
       style="fill:#333333;fill-opacity:1;fill-rule:nonzero;stroke:none"
       id="path4121"
       sodipodi:cx="63.286057"
       sodipodi:cy="-74.545074"
       sodipodi:rx="39.244427"
       sodipodi:ry="23.688076"
       d="m 101.95774,-78.577314 a 39.244427,23.688076 0 0 1 9.3e-4,0.0033 l -38.672613,4.028989 z"
       sodipodi:start="6.11213"
       sodipodi:end="6.1122693" />
    <path
       sodipodi:type="arc"
       style="fill:#333333;fill-opacity:1;fill-rule:nonzero;stroke:none"
       id="path4125"
       sodipodi:cx="54.182056"
       sodipodi:cy="-54.392529"
       sodipodi:rx="15.46796"
       sodipodi:ry="16.793785"
       d="m 69.424272,-57.251206 a 15.46796,16.793785 0 0 1 3.67e-4,0.0023 l -15.242583,2.856372 z"
       sodipodi:start="6.11213"
       sodipodi:end="6.1122693" />
    <path
       inkscape:connector-curvature="0"
       id="path9303"
       d="m 60.247281,249.66338 0,-216.829469 209.160419,0 209.16041,0 0,216.829469 0,216.82947 -209.16041,0 -209.160419,0 0,-216.82947 z"
       style="fill:#e7e9e6;fill-opacity:1" />
    <path
       inkscape:connector-curvature="0"
       id="path9301"
       d="m 60.247281,463.05111 c 0,-1.89296 0.971225,-3.44174 2.158277,-3.44174 1.187053,0 3.035969,1.54878 4.108702,3.44174 1.649383,2.91052 1.31626,3.44174 -2.158278,3.44174 -2.607682,0 -4.108701,-1.25736 -4.108701,-3.44174 z m 86.170959,1.28267 c 0,-1.18749 0.70503,-2.79722 1.56674,-3.57716 2.36791,-2.14322 1.87723,-5.73623 -0.78337,-5.73623 -1.29256,0 -2.35012,1.1011 -2.35012,2.44689 0,1.34579 -1.93884,2.12018 -4.30854,1.72087 -3.85532,-0.64964 -4.35923,-1.75182 -4.79032,-10.47761 -0.57621,-11.66311 2.3026,-13.0298 8.45792,-4.01536 2.15428,3.15492 5.27139,5.73623 6.92691,5.73623 1.65553,0 5.47767,3.61382 8.49366,8.03072 l 5.4836,8.03072 -9.34824,0 c -5.14153,0 -9.34824,-0.97158 -9.34824,-2.15907 z m 20.74078,0.4382 c 0.30692,-0.94648 1.52155,-4.55028 2.69918,-8.00842 1.8943,-5.56265 1.81262,-6.81923 -0.70839,-10.89884 -2.76802,-4.47935 -2.75559,-4.61128 0.43431,-4.61128 1.80612,0 3.71958,1.03252 4.25215,2.29449 0.53257,1.26197 2.60295,2.29449 4.60086,2.29449 1.99791,0 4.47551,1.4875 5.5058,3.30554 1.03028,1.81804 3.76048,3.62495 6.06713,4.01536 3.26199,0.5521 4.30405,2.1119 4.68964,7.01968 l 0.49576,6.30985 -14.29724,0 c -7.86347,0 -14.04612,-0.77439 -13.7392,-1.72087 z m 34.09528,-0.57362 c 0,-1.26197 1.05756,-2.2945 2.35012,-2.2945 1.29256,0 2.35012,1.03253 2.35012,2.2945 0,1.26197 -1.05756,2.29449 -2.35012,2.29449 -1.29256,0 -2.35012,-1.03252 -2.35012,-2.29449 z m 23.50117,0 c 0,-2.87482 1.66269,-2.87482 4.70024,0 1.9004,1.79858 1.67554,2.23093 -1.17506,2.25936 -1.93885,0.0193 -3.52518,-0.99739 -3.52518,-2.25936 z m 57.27356,0.20696 c -2.02732,-4.80398 1.09019,-8.66187 7.42477,-9.18811 3.62371,-0.30101 8.64491,-0.7266 11.15823,-0.94574 2.51331,-0.21913 4.85218,-1.63962 5.19746,-3.15663 0.63367,-2.784 -4.9934,-11.28275 -7.07613,-10.68733 -0.61834,0.17668 -2.9527,-1.58531 -5.18747,-3.91575 -2.28055,-2.3782 -4.68639,-3.38027 -5.48361,-2.28405 -0.78121,1.07423 -4.94557,3.06009 -9.25412,4.41304 -7.14233,2.24279 -8.0757,2.03918 -10.57552,-2.30693 -4.12353,-7.16905 -3.34156,-11.14309 4.78847,-24.33524 6.75051,-10.95359 12.83741,-15.57735 12.83741,-9.7515 0,1.26197 0.70503,2.29449 1.56674,2.29449 2.18179,0 1.96598,-9.96998 -0.28723,-13.2698 -3.37641,-4.94475 0.0141,-5.65439 6.3165,-1.32227 5.26727,3.62025 7.18738,7.13548 12.6705,23.19641 3.55435,10.41126 6.64571,18.92956 6.86969,18.92956 0.22398,0 3.55169,-4.24435 7.39488,-9.4319 10.08477,-13.61239 15.60022,-18.08371 22.31853,-18.09342 3.26173,-0.005 7.63955,-1.64861 9.72848,-3.6531 4.06415,-3.89986 13.12977,-2.62651 15.19435,2.13417 0.63328,1.46024 1.81577,-0.3123 2.83982,-4.25692 2.21165,-8.51906 4.06418,-10.21524 11.20464,-10.25904 l 5.72907,-0.0351 1.10574,21.59934 c 0.60817,11.87964 0.51454,22.97924 -0.20808,24.66578 -1.77236,4.13663 -2.31757,17.98065 -0.70812,17.98065 0.70728,0 2.16364,-1.54878 3.23638,-3.44174 4.12276,-7.27507 9.25017,-2.42709 6.21559,5.87686 -1.43981,3.93994 -1.23933,5.38529 1.09352,7.88346 2.4285,2.6006 -0.78124,3.09369 -21.41888,3.2904 l -24.27548,0.23135 4.99956,-6.34654 c 2.74977,-3.49061 5.74972,-9.2669 6.66657,-12.83619 1.4244,-5.54524 2.29283,-6.28886 5.96765,-5.11006 3.68606,1.18242 4.59929,0.38836 6.39041,-5.55646 1.14936,-3.81482 3.08821,-6.93602 4.30854,-6.93602 2.48395,0 2.99054,-3.61965 0.78587,-5.6151 -0.78811,-0.71334 -1.84566,1.1e-4 -2.35012,1.58544 -0.6358,1.99814 -1.17486,2.10233 -1.75706,0.33968 -0.46194,-1.39849 -1.80832,-4.48236 -2.99198,-6.853 -2.04694,-4.09964 -2.29907,-4.11554 -5.15879,-0.32538 -4.33921,5.75096 -5.63085,4.93022 -4.5617,-2.89859 0.51703,-3.78591 0.4289,-6.84151 -0.19584,-6.79023 -2.03732,0.16727 -10.8328,12.3976 -12.72112,17.68907 -1.31757,3.69208 -3.27704,5.18339 -6.87914,5.23557 -2.77024,0.0401 -6.27721,1.45168 -7.79326,3.13675 -2.46547,2.74036 -2.05199,3.20309 3.91687,4.3836 3.67031,0.72591 7.34309,0.34691 8.16172,-0.84224 1.76086,-2.55787 11.84457,-2.93511 11.79408,-0.44123 -0.0619,3.05487 -5.36748,11.33904 -8.19057,12.78868 -1.50799,0.77432 -2.7418,3.44439 -2.7418,5.93346 0,6.53028 -2.86567,8.1571 -6.3153,3.58512 -2.23631,-2.96389 -2.60528,-4.99259 -1.47203,-8.09361 1.35141,-3.69808 1.03671,-3.93859 -2.95818,-2.2607 -2.45875,1.03273 -6.25198,1.3789 -8.42941,0.76932 -5.43493,-1.52154 -6.47772,2.20528 -2.62444,9.37933 l 3.22585,6.00593 -24.30579,0 c -13.36818,0 -24.7022,-0.93934 -25.18672,-2.08744 z m 127.60232,0.14556 c 0,-1.06808 1.17722,-5.39788 2.61604,-9.62177 1.86978,-5.48904 2.09324,-7.93501 0.78337,-8.57447 -1.11415,-0.54388 -1.82667,-5.99224 -1.81736,-13.89675 0.0186,-15.78842 4.85899,-32.16886 13.16488,-44.55138 6.4951,-9.68297 8.75424,-10.71918 8.75424,-4.01536 0,6.13303 2.23825,5.79379 5.74461,-0.87072 4.81352,-9.14901 9.83848,-9.22119 18.44022,-0.2649 4.17135,4.34331 8.2434,7.30034 9.04898,6.5712 0.80559,-0.72915 0.003,-2.82526 -1.78386,-4.658 -4.25271,-4.36234 -4.20154,-8.41326 0.0812,-6.42261 4.7948,2.22869 2.37147,-2.46557 -3.47955,-6.74025 -3.84025,-2.80564 -5.39393,-2.94792 -7.85038,-0.71891 -2.11716,1.92111 -3.41057,2.03044 -4.18984,0.35422 -1.64823,-3.5454 -9.67375,-7.34492 -16.27542,-7.70529 -3.16122,-0.17255 -9.50654,-2.19381 -14.1007,-4.49168 -4.59415,-2.29784 -9.41056,-3.7274 -10.70312,-3.17676 -3.23864,1.37963 -12.73988,7.23214 -16.03788,9.87891 -4.02741,3.23216 -5.43931,2.69731 -6.35051,-2.40564 -0.68254,-3.82242 -2.13706,-4.58898 -8.70736,-4.58898 -4.33836,0 -8.32368,-1.03253 -8.85624,-2.2945 -0.53257,-1.26197 -0.18005,-2.29449 0.78337,-2.29449 0.96342,0 1.38091,-0.87856 0.92776,-1.95233 -1.08997,-2.5828 10.78362,-8.25267 13.44814,-6.42176 1.1412,0.78419 3.80746,3.24728 5.92499,5.47356 2.11755,2.22627 3.38223,2.92889 2.81041,1.56135 -0.5718,-1.36754 -3.84279,-5.33132 -7.26885,-8.80841 -7.0634,-7.16864 -11.02189,-6.58462 -14.95503,2.20633 -2.15642,4.81984 -3.73847,5.64677 -10.80299,5.64677 -6.4916,0 -9.4404,1.289 -13.6729,5.97676 -8.31185,9.20594 -14.05603,12.24185 -18.4906,9.7727 -2.97615,-1.65713 -4.56187,-1.15438 -7.11805,2.25675 -1.80885,2.41387 -6.94237,6.90961 -11.40781,9.99054 -7.06614,4.87524 -8.58993,5.21276 -11.75058,2.60264 -4.4233,-3.65279 -20.86013,-1.9648 -25.7166,2.64098 -4.86048,4.60959 -12.05718,28.23143 -10.98748,36.06434 0.48172,3.52744 0.48337,6.41352 0.003,6.41352 -0.47972,0 -3.81101,-3.4567 -7.40287,-7.68152 -11.14692,-13.1113 -34.69374,-32.62173 -51.528,-42.69506 -8.85814,-5.30055 -17.48215,-10.72874 -19.16447,-12.06262 -3.6071,-2.86002 -29.97531,-6.11342 -50.88782,-6.27874 8.93415,-67.27063 322.14393,-709.62195 347.71173,107.7243 l -34.46838,0 c -18.95761,0 -34.46838,-0.87388 -34.46838,-1.94197 z m 10.96721,-35.04072 c 0,-2.52394 -0.70504,-3.95086 -1.56675,-3.17092 -0.86171,0.77995 -1.56674,3.48311 -1.56674,6.00705 0,2.52394 0.70503,3.95086 1.56674,3.17092 0.86171,-0.77994 1.56675,-3.48311 1.56675,-6.00705 z m 41.26545,-5.91855 c 1.02125,-9.21654 0.5841,-11.15137 -1.9926,-8.81918 -1.9921,1.80308 -2.26912,17.30304 -0.30923,17.30304 0.74895,0 1.78477,-3.81773 2.30183,-8.48386 z m -34.36695,-11.40842 c 1.37106,-5.89287 2.22943,-11.10008 1.90748,-11.57156 -0.72398,-1.06026 -7.23924,16.99544 -7.23924,20.06203 0,5.99337 3.11662,1.03036 5.33176,-8.49047 z M 267.25743,382.17028 c 1.86852,-3.48924 1.84234,-3.67993 -0.19985,-1.45533 -1.29257,1.40801 -3.40767,3.1334 -4.70024,3.83421 -1.96587,1.06586 -1.93319,1.3038 0.19986,1.45533 1.40247,0.0996 3.51758,-1.62577 4.70023,-3.83421 z m -5.15728,-27.85614 c 3.39463,-4.28297 7.39433,-7.13486 10.00645,-7.13486 2.82346,0 4.35145,-1.20856 4.35145,-3.44174 0,-1.89296 0.82254,-3.44174 1.82787,-3.44174 1.00532,0 1.40474,-0.61965 0.88761,-1.37701 -0.51715,-0.75735 -1.86847,-0.51503 -3.00293,0.53849 -1.13447,1.05352 -2.41519,1.94325 -2.84604,1.97719 -2.76963,0.21797 -12.29544,7.53541 -15.07285,11.57832 -1.82725,2.65982 -5.47802,6.14373 -8.11283,7.74205 -2.63481,1.59832 -5.15106,4.2818 -5.59166,5.96332 -1.21696,4.64442 10.73444,-3.80119 17.55293,-12.40402 z m 30.80872,-9.42935 c -0.53257,-1.26198 -1.27922,-2.2945 -1.65922,-2.2945 -0.38,0 -0.6909,1.03252 -0.6909,2.2945 0,1.26197 0.74665,2.29449 1.65921,2.29449 0.91257,0 1.22347,-1.03252 0.69091,-2.29449 z m 32.05459,-4.01537 c -0.0351,-0.94647 -2.07309,-5.16054 -4.52902,-9.36457 -2.96112,-5.06879 -4.84458,-6.7451 -5.59109,-4.97616 -0.63667,1.5087 0.77755,5.57692 3.2554,9.36458 4.25458,6.50355 6.99472,8.48987 6.86471,4.97615 z M 95.058612,269.43536 c 2.461816,1.9295 2.897097,1.83997 1.951244,-0.40133 -0.887569,-2.10318 -0.277785,-2.52498 2.250516,-1.5567 2.333438,0.89364 3.182738,0.44892 2.596118,-1.35944 -0.47951,-1.47816 -1.30703,-4.49447 -1.83894,-6.70292 -1.292934,-5.36814 -3.694321,-5.04309 -8.559911,1.15864 -4.461364,5.68649 -12.409422,20.99672 -12.409422,23.90409 0,1.0177 2.889386,-2.5093 6.420857,-7.83775 5.506065,-8.30785 6.872303,-9.33429 9.589538,-7.20459 z M 242.53032,224.32501 c -0.51028,-1.94738 -1.26379,-3.0486 -1.67446,-2.44714 -0.41069,0.60145 -0.28198,2.19476 0.28601,3.54069 1.54489,3.66077 2.44785,2.94959 1.38845,-1.09355 z m -4.45752,-10.22625 c -0.53257,-1.26197 -1.27921,-2.2945 -1.65921,-2.2945 -0.38,0 -0.6909,1.03253 -0.6909,2.2945 0,1.26197 0.74664,2.29449 1.65921,2.29449 0.91257,0 1.22347,-1.03252 0.6909,-2.29449 z M 129.35968,166.48805 c 1.96058,-4.73239 5.89577,-13.14104 8.74488,-18.68588 5.18388,-10.08873 6.69609,-15.65351 3.45713,-12.7219 -1.03597,0.93767 -0.91033,-0.60948 0.31508,-3.87995 1.12098,-2.99172 2.2383,-7.18745 2.48294,-9.32383 0.24465,-2.13639 1.86545,-7.58853 3.60179,-12.11588 1.73633,-4.52734 3.15697,-9.802467 3.15697,-11.722517 0,-1.920046 1.34599,-7.309376 2.99108,-11.976292 1.6451,-4.666916 3.93646,-11.503989 5.09192,-15.1935 2.88569,-9.214293 12.69172,-24.26744 15.80847,-24.26744 3.24351,0 4.59217,-3.13655 3.36402,-7.823661 -1.62727,-6.210369 -4.74428,-4.112237 -12.47509,8.397284 -11.04168,17.866971 -18.60422,36.137697 -20.99234,50.716479 -1.16724,7.125617 -2.53842,12.958017 -3.04707,12.960897 -0.50866,0.003 -0.9934,2.91231 -1.07721,6.4654 -0.168,7.1219 -3.42416,19.1913 -11.18704,41.46624 -2.81127,8.0667 -5.1114,15.03622 -5.1114,15.48782 0,2.57259 1.72892,-0.18725 4.87587,-7.78327 z m 30.41735,-57.49278 c -0.48238,-0.70645 -1.7466,-0.001 -2.80938,1.56664 -1.53583,2.26608 -1.35586,2.52963 0.87706,1.28444 1.54515,-0.86165 2.4147,-2.14464 1.93232,-2.85108 z M 187.1536,50.919017 c 0,-1.261971 -0.70503,-1.656359 -1.56674,-0.876418 -0.86171,0.779941 -1.56675,2.450595 -1.56675,3.712566 0,1.26197 0.70504,1.656358 1.56675,0.876418 0.86171,-0.779941 1.56674,-2.450596 1.56674,-3.712566 z m 2.02071,-11.201631 c 0.45068,-2.523941 0.18039,-4.588983 -0.60064,-4.588983 -0.78104,0 -1.42007,2.065042 -1.42007,4.588983 0,2.523941 0.27029,4.588984 0.60064,4.588984 0.33035,0 0.96938,-2.065043 1.42007,-4.588984 z M 157.38545,443.54793 c 0,-1.26197 0.70504,-2.29449 1.56675,-2.29449 0.86171,0 1.56674,1.03252 1.56674,2.29449 0,1.26197 -0.70503,2.29449 -1.56674,2.29449 -0.86171,0 -1.56675,-1.03252 -1.56675,-2.29449 z m 103.40515,-2.01612 c 0,-1.10886 -2.29136,-3.35329 -5.09192,-4.98761 -5.42778,-3.16748 -11.43766,-10.85444 -10.06173,-12.8695 3.11068,-4.55556 21.26372,12.38169 19.00555,17.73268 -1.14358,2.70981 -3.8519,2.7973 -3.8519,0.12443 z m -24.28454,-25.51778 c -0.53257,-1.26197 -0.22167,-2.29449 0.6909,-2.29449 0.91257,0 1.65921,1.03252 1.65921,2.29449 0,1.26197 -0.3109,2.29449 -0.6909,2.29449 -0.38,0 -1.12664,-1.03252 -1.65921,-2.29449 z m 156.82689,-39.70664 c -2.37836,-2.54691 -2.46015,-3.37834 -0.5595,-5.68843 1.22429,-1.48803 3.93184,-2.9825 6.01677,-3.32101 4.72722,-0.76755 5.05868,4.47536 0.5595,8.8503 -2.66205,2.58857 -3.72194,2.61659 -6.01677,0.15923 z"
       style="fill:#faf1a0"
       sodipodi:nodetypes="sssssssssssssscssssssssssscssssssssscscssscsssssssscssscsssscssssssscssssscscssscscsssccssscsscscccscsssssscsssssscsssssscscssssssssssssssccsccsssssssssssssssscssssscscssssssssscssscsssssssssscsssssssssssssssssssscssssscssssssssssssssssssssssssssscssscc" />
    <path
       inkscape:connector-curvature="0"
       id="path9299"
       d="m 150.16748,462.86344 c 0.52304,-1.99616 0.95099,-4.57746 0.95099,-5.73623 0,-3.78065 4.77177,-2.21322 5.81019,1.90854 0.55638,2.20845 1.76806,4.77394 2.69263,5.7011 0.92456,0.92716 -1.03829,1.70155 -4.36189,1.72087 -4.87193,0.0282 -5.85864,-0.66818 -5.09192,-3.59428 z m 32.28715,-2.10336 c -2.94117,-8.04832 -1.08937,-9.34971 4.57581,-3.21575 5.76245,6.2393 6.11706,8.94852 1.17128,8.94852 -2.29151,0 -4.4326,-2.13576 -5.74709,-5.73277 z m 100.94551,3.18175 c -1.77827,-4.21381 2.72294,-6.56984 12.0325,-6.29813 4.83491,0.14112 9.92904,-0.67632 11.32028,-1.81654 2.29138,-1.87795 2.24032,-2.76964 -0.54231,-9.47068 -1.68952,-4.06864 -4.3354,-7.39753 -5.87976,-7.39753 -1.54434,0 -4.43892,-1.67305 -6.43237,-3.71788 -2.786,-2.85782 -4.40701,-3.15656 -7.00728,-1.29146 -9.11115,6.53524 -15.82192,5.79277 -17.49688,-1.93586 -0.64296,-2.96675 1.00177,-8.52982 5.01178,-16.95154 5.10053,-10.71209 6.63659,-12.47249 10.55932,-12.10175 3.57365,0.33775 4.78834,-0.70425 5.48361,-4.70408 0.89032,-5.12201 0.90707,-5.12449 5.39762,-0.79839 2.51582,2.4237 6.66608,10.72521 9.40047,18.80325 5.9567,17.59737 9.36896,21.32539 13.18713,14.40741 1.47182,-2.6667 5.6669,-8.71657 9.32243,-13.44412 5.48643,-7.09537 8.05403,-8.74265 14.71158,-9.43843 4.43583,-0.46358 9.72909,-2.43958 11.76282,-4.39109 3.52389,-3.38144 3.69769,-3.29491 3.69769,1.84094 0,2.96405 -1.76259,7.81417 -3.91686,10.77808 -2.15428,2.96391 -3.91686,6.7179 -3.91686,8.34224 0,2.40153 -9.42816,8.04362 -14.54953,8.70687 -1.35096,0.17484 -4.18922,6.04086 -4.22742,8.73687 -0.0125,0.93161 1.53345,1.44787 3.43697,1.14725 2.22993,-0.35216 3.66398,0.88165 4.03175,3.46879 0.6489,4.56491 -1.90466,5.00706 -11.01788,1.90775 -6.92284,-2.35435 -7.14414,-1.27101 -2.00566,9.81813 l 3.86966,8.35092 -22.57812,0 c -14.8757,0 -22.94539,-0.87028 -23.65468,-2.55102 z m 36.92676,-24.98288 c 0,-1.26197 -0.70504,-2.29449 -1.56675,-2.29449 -0.86171,0 -1.56674,1.03252 -1.56674,2.29449 0,1.26197 0.70503,2.29449 1.56674,2.29449 0.86171,0 1.56675,-1.03252 1.56675,-2.29449 z m 41.16739,22.26971 c 4.69262,-4.01471 5.74414,-6.09926 5.08617,-10.083 -0.4562,-2.76211 -0.19896,-5.59266 0.57166,-6.29017 2.02925,-1.83669 6.4441,9.00182 6.4441,15.82041 0,5.56361 -0.39233,5.81252 -9.00878,5.71537 l -9.00879,-0.10165 5.91564,-5.06105 z m 16.80216,3.42859 c 0,-3.36512 3.72194,-7.34237 6.87104,-7.34237 1.71096,0 4.74261,-2.24502 6.737,-4.98894 4.76699,-6.55852 5.04649,-0.56878 0.37895,8.12124 -2.37957,4.4303 -4.68201,6.04567 -8.6171,6.04567 -2.95344,0 -5.36989,-0.82602 -5.36989,-1.8356 z m 32.90164,-0.52252 c 0,-3.70893 10.58709,-34.12483 13.22047,-37.98141 1.30372,-1.90932 3.62146,-8.69509 5.1505,-15.07951 6.14445,-25.6557 16.8649,-34.5481 28.41789,-23.57208 11.02082,10.47044 12.80267,12.7582 11.79558,15.14461 -0.55899,1.32457 -0.0447,3.30956 1.14281,4.41112 3.46512,3.21424 4.79065,2.39705 3.76776,-2.32278 -0.52399,-2.41776 -0.24976,-5.03212 0.60937,-5.80973 2.13395,-1.93145 0.31371,-8.15033 -2.38559,-8.15033 -2.6614,0 -2.90346,-3.85461 -0.32122,-5.11518 2.94726,-1.43874 -3.48428,-12.33778 -9.0111,-15.27044 -3.03038,-1.608 -5.76443,-5.50953 -7.4167,-10.5838 -1.5447,-4.74391 -3.75077,-8.02255 -5.38412,-8.00181 -1.81394,0.0229 -2.13531,0.62373 -0.93293,1.74386 2.44805,2.28056 4.27762,13.44301 2.47132,15.07791 -0.78759,0.71285 -3.84111,-1.09037 -6.78562,-4.00713 -4.1549,-4.11576 -7.66219,-5.35706 -15.66375,-5.54376 -5.67056,-0.1324 -12.26084,-1.32672 -14.64508,-2.65425 -3.01461,-1.67853 -6.17802,-1.68691 -10.38597,-0.0275 -5.78771,2.28235 -6.47032,1.93414 -15.68712,-8.0025 -5.29986,-5.71377 -10.65584,-10.38868 -11.90219,-10.38868 -1.24634,0 -4.19002,3.08488 -6.5415,6.85528 -3.68456,5.90792 -5.273,6.79169 -11.49417,6.39518 -6.03755,-0.38483 -8.69371,0.9741 -16.23268,8.30478 -7.47894,7.2723 -9.94159,8.54441 -14.46148,7.47022 -4.24378,-1.00855 -6.55393,-0.0587 -10.45437,4.29813 -7.17052,8.00964 -17.67669,13.06651 -21.27981,10.24248 -4.58395,-3.59279 -17.47258,-2.62947 -23.46383,1.7537 -6.18473,4.52474 -14.1007,24.39726 -14.1007,35.39887 0,3.55963 -0.33822,6.47205 -0.75159,6.47205 -0.41338,0 -4.26819,-3.87196 -8.56625,-8.60435 -15.78575,-17.38096 -47.19413,-40.88424 -69.23746,-51.8113 -4.53533,-2.24821 -15.72882,-4.10071 -29.76815,-4.92659 -12.37485,-0.72797 -32.37023,-2.37648 -44.43416,-3.66334 -19.778879,-2.10981 -23.148677,-1.90184 -34.290394,2.11628 l -12.355968,4.45606 0.877408,-16.3941 c 0.482574,-9.01673 1.988808,-20.23287 3.347186,-24.92472 3.349576,-11.56949 3.106299,-14.89437 -0.611587,-8.3586 C 158.19745,216.59073 156.38382,146.27602 176.42681,32.833941 l -5.21213,6.309852 c -10.85849,13.145391 -21.78961,36.257919 -25.57035,54.065435 -1.38972,6.545665 -3.31583,13.966242 -4.28024,16.490182 -0.96442,2.52394 -1.90249,7.68655 -2.08462,11.47246 -0.43222,8.98465 -8.84191,37.91526 -14.74483,50.72443 -2.55478,5.54378 -4.21785,10.0796 -3.69572,10.0796 1.20189,0 3.97306,-5.03592 10.73225,-19.50318 2.948,-6.30985 7.51419,-15.93936 10.1471,-21.3989 2.63292,-5.45954 4.06247,-9.27056 3.1768,-8.46893 -2.70954,2.45243 -1.72329,-4.20759 1.52317,-10.28577 1.6851,-3.15493 3.07949,-6.99548 3.09865,-8.53456 0.0192,-1.53908 1.42687,-6.42793 3.12825,-10.86413 1.70138,-4.436187 2.70442,-9.550363 2.22898,-11.364833 -0.47544,-1.814472 0.60015,-5.443916 2.39019,-8.06543 1.79005,-2.621516 3.25463,-7.187667 3.25463,-10.147002 0,-2.959337 1.39207,-7.225595 3.09349,-9.480573 1.70142,-2.254979 3.51152,-6.028833 4.02244,-8.38634 1.09421,-5.048927 3.85128,-5.750532 3.85128,-0.980053 0,1.818478 0.82485,4.0529 1.833,4.965383 1.23249,1.115534 1.50524,0.408197 0.83254,-2.159078 -0.55024,-2.099976 -0.27593,-3.818137 0.60959,-3.818137 0.88552,0 1.1743,-1.032522 0.64174,-2.294492 -0.53257,-1.26197 0.0619,-2.294492 1.32101,-2.294492 1.25912,0 3.01206,-3.036311 3.89542,-6.747358 1.33922,-5.626113 1.16942,-6.916391 -1.02179,-7.764557 -1.48138,-0.573408 -0.74814,-1.133323 1.68065,-1.283363 5.0648,-0.312882 5.56931,3.918129 2.08308,17.469715 -1.224,4.757927 -2.68512,12.780861 -3.24693,17.828743 -0.96005,8.626117 -0.87487,8.902041 1.41667,4.588984 1.34098,-2.523941 3.2066,-8.719069 4.14583,-13.766951 0.93923,-5.047882 2.84894,-13.049922 4.2438,-17.782311 l 2.53611,-8.604344 C 328.58598,113.1273 470.80814,452.90471 478.35318,466.49288 l -33.57756,0 c -21.94453,0 -33.57753,-0.81698 -33.57753,-2.35812 z m 25.96318,-19.50853 c 2.1947,-9.34929 0.40675,-12.82453 -2.23291,-4.3401 -1.94317,6.24577 -2.47448,16.49299 -0.72209,13.92663 0.59055,-0.86489 1.92031,-5.17883 2.955,-9.58653 z m 24.73618,-6.24088 c 1.04856,-1.57746 2.04626,-7.96691 2.21714,-14.19877 0.23968,-8.74119 -0.40061,-12.30114 -2.80173,-15.57719 -1.71184,-2.33561 -3.11243,-6.35742 -3.11243,-8.93737 0,-2.75474 -0.80831,-4.27929 -1.95843,-3.69374 -2.02342,1.03014 -2.05648,2.61389 -0.41826,20.03578 2.61786,27.83996 2.56589,27.64853 6.07371,22.37129 z M 441.65709,415.3548 c 0.66114,-4.38195 1.81414,-6.18792 3.66222,-5.73623 2.01565,0.49263 2.82135,-1.22524 3.18823,-6.79787 0.40634,-6.17197 -0.0503,-7.4571 -2.64933,-7.4571 -4.10297,0 -4.41018,0.95878 -5.51397,17.20869 -0.93719,13.79758 -0.4916,14.74204 1.31285,2.78251 z M 273.08754,378.33441 c 4.97595,-3.76838 6.90746,-7.51391 2.63732,-5.11417 -1.26498,0.71088 -2.73438,0.26309 -3.26535,-0.99509 -0.53097,-1.25819 -2.40444,-1.61874 -4.16325,-0.80122 -2.13227,0.99111 -2.84061,0.63994 -2.12579,-1.05393 1.64687,-3.90245 -4.69028,-3.0801 -6.94661,0.90144 -1.07274,1.89296 -1.33533,3.45755 -0.58352,3.47687 0.75178,0.0184 0.41033,0.92277 -0.75881,2.00768 -1.51004,1.40124 -0.97884,1.97255 1.83411,1.97255 2.54286,0 3.68848,-1.03548 3.20157,-2.89375 -0.64351,-2.4559 4.89758,-3.18865 10.38414,-1.37316 0.41811,0.13836 -2.04952,2.44598 -5.4836,5.12808 -6.70669,5.23807 -8.53213,8.09602 -8.56991,13.41713 -0.0141,2.07294 1.70153,0.61272 4.43923,-3.77694 2.45478,-3.93602 6.68499,-8.839 9.40047,-10.89549 z m -12.72446,-20.44158 c 1.92625,-2.50152 5.57045,-4.44475 8.13504,-4.33796 3.72075,0.15487 4.45158,-0.5747 3.67073,-3.6647 -0.53624,-2.12199 1.00223,-0.45883 3.41881,3.69586 4.99285,8.58396 7.3214,8.17337 3.39662,-0.59891 -1.49912,-3.35067 -1.88122,-5.80784 -0.90315,-5.80784 0.93243,0 1.28638,-0.96906 0.78654,-2.15348 -0.49982,-1.18441 0.33986,-3.21804 1.86598,-4.5192 2.42833,-2.07039 2.27358,-2.37446 -1.23952,-2.43551 -4.8199,-0.0838 -16.22619,7.65006 -22.34892,15.1533 -2.4358,2.98504 -5.20043,5.42735 -6.1436,5.42735 -2.01897,0 -7.4452,6.81376 -7.4452,9.34899 0,2.72322 12.90086,-5.03565 16.80667,-10.1079 z m 70.10805,-17.70921 c -1.41844,-4.01705 -3.96852,-7.83589 -5.66685,-8.48631 -1.8077,-0.6923 -2.74674,-2.48443 -2.26504,-4.32275 0.45253,-1.72711 0.21972,-3.1402 -0.51739,-3.1402 -0.73711,0 -5.12145,-5.66382 -9.74299,-12.58625 -4.62152,-6.92244 -9.22679,-12.6013 -10.23393,-12.61971 -1.00712,-0.0183 -4.15866,-3.64727 -7.00341,-8.06417 -5.39087,-8.37012 -9.183,-10.3441 -9.183,-4.78018 0,1.78777 -0.75015,3.61671 -1.66697,4.06428 -0.91683,0.44756 1.89234,3.37304 6.24261,6.50105 4.35027,3.12803 7.92055,6.9194 7.93395,8.42533 0.0141,1.50589 1.61069,4.3652 3.54954,6.35402 1.93884,1.98882 3.543,4.37054 3.56478,5.29272 0.22614,9.57177 9.82147,23.97421 21.79514,32.7142 5.90133,4.30759 6.94139,1.2619 3.19356,-9.35203 z m -36.77889,4.70117 c 0,-1.26198 -1.05755,-2.2945 -2.35012,-2.2945 -1.29256,0 -2.35012,1.03252 -2.35012,2.2945 0,1.26197 1.05756,2.29449 2.35012,2.29449 1.29257,0 2.35012,-1.03252 2.35012,-2.29449 z m -168.3948,-22.80533 c -1.00457,-4.6353 -3.94712,-4.53747 -3.94712,0.13123 0,1.26197 0.70504,1.65637 1.56675,0.87642 0.86171,-0.77994 1.56674,0.36373 1.56674,2.5415 0,2.17777 0.41689,3.34904 0.92643,2.60282 0.50953,-0.74621 0.45877,-3.51461 -0.11281,-6.15197 z m -3.8106,-10.03544 c -1.22652,-1.79622 -2.25143,-1.62952 -3.66169,0.59558 -1.56675,2.47202 -1.56675,2.76615 0,1.47075 1.07714,-0.89061 1.95843,-0.46489 1.95843,0.94604 0,1.41093 0.76647,1.8716 1.70326,1.02369 1.22651,-1.11012 1.22651,-2.23981 0,-4.03606 z m -3.7813,-8.16997 c -1.21732,-2.05252 -2.60217,-5.28064 -3.07744,-7.17359 -0.57841,-2.30376 -0.90502,-1.77956 -0.98781,1.58545 -0.068,2.76495 0.59285,5.67574 1.46861,6.4684 0.87577,0.79265 1.19167,2.39056 0.702,3.55086 -0.48967,1.16033 0.23431,1.47768 1.60883,0.70521 2.16609,-1.21729 2.20418,-1.90176 0.28581,-5.13633 z m -6.29474,-12.37986 c -0.42917,-1.55344 -0.75418,0.27311 -0.72225,4.05902 0.0319,3.78591 0.38306,5.05693 0.7803,2.82445 0.39724,-2.23247 0.37111,-5.33003 -0.058,-6.88347 z m -3.12355,-4.54532 c -0.43464,-1.57746 -0.79025,-0.28681 -0.79025,2.86811 0,3.15493 0.35561,4.44558 0.79025,2.86812 0.43463,-1.57746 0.43463,-4.15877 0,-5.73623 z M 85.727959,277.3 c 4.240572,-6.58409 6.099012,-7.84819 10.963238,-7.45709 3.221403,0.25897 5.857343,1.41737 5.857643,2.57419 3e-4,1.15679 0.40225,1.51498 0.89322,0.79595 0.49097,-0.71902 -0.59506,-5.57807 -2.4134,-10.79787 l -3.30607,-9.49057 -4.700287,4.90153 c -2.585159,2.69583 -5.859501,7.64092 -7.27632,10.98909 -1.416816,3.34816 -3.978836,8.41073 -5.693376,11.25016 -5.086691,8.42402 0.09474,5.8993 5.675352,-2.76539 z m 18.985971,2.07259 c 0.53504,-2.04191 0.27238,-2.96292 -0.61574,-2.15907 -0.85184,0.771 -1.5488,2.37343 -1.5488,3.56092 0,3.30046 1.12299,2.57318 2.16454,-1.40185 z m 175.44764,0.1324 c -0.49411,-1.88571 -1.60481,-2.78916 -2.46822,-2.00768 -0.96527,0.87369 -0.75121,2.18054 0.55586,3.39344 2.85275,2.6472 2.95053,2.57634 1.91236,-1.38576 z m -9.9705,-13.5925 c 0,-3.66388 -2.26356,-8.21839 -4.08449,-8.21839 -2.46317,0 -2.56507,0.45909 -1.23149,5.54856 0.81803,3.12193 5.31598,5.38093 5.31598,2.66983 z m -8.83104,-14.69648 c -1.1749,-0.40803 -2.13691,-1.95681 -2.13782,-3.44174 -9.1e-4,-1.48493 -5.99567,-11.47631 -13.32168,-22.20306 -7.32601,-10.72674 -15.47941,-25.02827 -18.11869,-31.78117 -2.63926,-6.7529 -5.1538,-11.75787 -5.58789,-11.12217 -1.02151,1.49602 5.30018,21.88441 8.83759,28.50248 8.80853,16.4797 24.11043,39.35144 25.49119,38.10169 0.89152,-0.80692 1.15146,-0.35815 0.57869,0.99908 -0.57193,1.35522 0.16092,4.22255 1.62852,6.37185 2.51332,3.68077 2.72932,3.65819 3.71732,-0.38864 0.66894,-2.73996 0.27507,-4.56522 -1.08723,-5.03832 z M 108.81637,217.40508 c 0,-0.55651 -0.70504,-1.01183 -1.56675,-1.01183 -0.86171,0 -1.56674,1.09346 -1.56674,2.4299 0,1.33645 0.70503,1.79178 1.56674,1.01184 0.86171,-0.77995 1.56675,-1.8734 1.56675,-2.42991 z m 114.37236,-40.01819 c 0,-1.26197 -0.70504,-2.29449 -1.56675,-2.29449 -0.86171,0 -1.56674,1.03252 -1.56674,2.29449 0,1.26197 0.70503,2.29449 1.56674,2.29449 0.86171,0 1.56675,-1.03252 1.56675,-2.29449 z M 166.78592,97.810123 c 0,-2.04711 -1.86287,-0.0195 -6.18032,6.726657 -2.62482,4.1014 -4.7751,8.48961 -4.77842,9.75158 -0.003,1.26198 2.46105,-1.76502 5.47636,-6.72665 3.01531,-4.96163 5.48238,-9.349837 5.48238,-9.751587 z m 63.61637,11.363437 c -0.52063,-0.76244 -0.89092,0.59274 -0.82289,3.01152 0.0752,2.67295 0.44643,3.21665 0.94657,1.38626 0.45258,-1.65634 0.39693,-3.63534 -0.12362,-4.39778 z m 9.49839,-3.8444 c 0,-1.77264 -0.93601,-2.69697 -2.08,-2.05407 -1.144,0.64291 -1.68992,2.09325 -1.21316,3.22298 1.32603,3.14217 3.29316,2.44393 3.29316,-1.16891 z m -7.31148,-2.37784 c 0,-1.81848 -0.70504,-3.944457 -1.56675,-4.724397 -0.86171,-0.77994 -1.56674,0.70791 -1.56674,3.306327 0,2.59841 0.70503,4.72439 1.56674,4.72439 0.86171,0 1.56675,-1.48784 1.56675,-3.30632 z m -20.36768,-6.254056 c 0,-2.734268 -0.19951,-4.54118 -0.44334,-4.015361 -0.24384,0.525822 -1.38772,2.762952 -2.54196,4.9714 -1.7964,3.437107 -1.73255,4.015357 0.44334,4.015357 1.56264,0 2.54196,-1.915287 2.54196,-4.971396 z M 174.47656,84.900398 c 1.52209,-6.688138 1.46928,-6.925544 -0.60838,-2.734914 -1.25134,2.52394 -3.00424,5.836055 -3.89534,7.360256 -0.89109,1.524199 -1.62018,3.973799 -1.62018,5.443554 0,4.887839 4.3464,-2.258503 6.1239,-10.068896 z m 76.91357,8.561045 c 0,-4.169729 -8.27802,-17.032189 -10.96157,-17.032189 -3.9213,0 -0.48566,8.158779 4.30617,10.226084 4.81189,2.075955 7.0213,5.835358 3.42944,5.835358 -0.91256,0 -1.22347,1.032522 -0.6909,2.294492 1.49232,3.536235 3.91686,2.716835 3.91686,-1.323745 z m 92.43794,365.000687 c -1.62953,-2.87546 -1.4033,-3.44174 1.37491,-3.44174 1.91135,0 3.32532,1.46347 3.32532,3.44174 0,1.89295 -0.61871,3.44173 -1.37491,3.44173 -0.75619,0 -2.25259,-1.54878 -3.32532,-3.44173 z m -205.57775,-8.03072 c -0.37942,-3.78592 -0.1469,-6.88348 0.5167,-6.88348 1.85621,0 6.05823,9.67837 5.1433,11.84639 -1.81329,4.29678 -5.01321,1.49099 -5.66,-4.96291 z m 240.6895,-1.14725 c -1.31672,-7.68315 0.45417,-17.20869 3.19928,-17.20869 2.72344,0 3.82099,10.72744 1.81936,17.78231 -1.91799,6.7601 -3.79863,6.54516 -5.01864,-0.57362 z m -205.10355,-1.14725 c -1.23283,-2.92132 2.39694,-2.92132 5.48361,0 1.9106,1.80827 1.70814,2.2308 -1.0826,2.25937 -1.88799,0.0193 -3.86844,-0.9974 -4.40101,-2.25937 z m 173.12529,0.43414 c 0,-3.19971 7.87027,-12.14433 9.43754,-10.7258 1.37986,1.24893 0.16038,10.27388 -1.39486,10.32298 -0.54578,0.0184 -2.57866,0.65393 -4.51751,1.41488 -2.00802,0.78807 -3.52517,0.3525 -3.52517,-1.01206 z m -86.95433,-9.6121 c -0.53257,-1.26197 -0.22167,-2.29449 0.6909,-2.29449 0.91257,0 1.65921,1.03252 1.65921,2.29449 0,1.26197 -0.3109,2.29449 -0.6909,2.29449 -0.38,0 -1.12664,-1.03252 -1.65921,-2.29449 z m -7.44204,-8.40307 c 1.07714,-0.63652 2.83973,-0.63652 3.91686,0 1.07714,0.63651 0.19585,1.15731 -1.95843,1.15731 -2.15427,0 -3.03557,-0.5208 -1.95843,-1.15731 z m 161.32031,-2.19303 c -1.54884,-2.26825 0.70624,-15.02062 4.20598,-23.78464 4.40024,-11.01899 12.04605,-23.12703 13.67369,-21.65383 1.48869,1.34742 -4.30446,19.27975 -11.61635,35.95776 -5.26014,11.99809 -4.90818,11.46533 -6.26332,9.48071 z m -29.91106,-5.00473 c -0.63948,-1.5153 -2.53115,-2.75511 -4.20371,-2.75511 -1.67257,0 -3.05182,-1.29065 -3.06501,-2.86811 -0.0125,-1.57746 -0.67519,-4.37585 -1.4711,-6.21862 -1.23846,-2.86743 -1.91268,-2.73346 -4.67624,0.92924 -4.53833,6.01487 -4.05231,0.70283 0.94816,-10.36323 3.33936,-7.39003 4.98931,-9.10613 8.22541,-8.55515 3.01279,0.51296 3.94743,1.86287 3.65445,5.2782 -0.21653,2.52394 0.39819,8.34151 1.36601,12.92795 1.87292,8.87553 1.35127,16.67028 -0.77797,11.62483 z m 3.72248,-62.17829 c 0,-5.10442 -0.30689,-5.221 -9.58962,-3.64319 -7.60517,1.29267 -9.44708,1.00368 -8.90077,-1.39655 1.27271,-5.59163 9.54855,-10.88438 13.00678,-8.31838 4.26797,3.16681 14.74143,16.68192 11.54983,14.90408 -1.40299,-0.78153 -3.34184,-0.26263 -4.30855,1.15312 -1.29907,1.90248 -1.75767,1.19823 -1.75767,-2.69908 z"
       style="fill:#00ff00"
       sodipodi:nodetypes="sssscsssssssssssssssssssssssssccsssscssssssscsssscccsssssssssssssssssscssscsssssssssssssssssscssccsssssssssscssssssssssssssssssssccssssscsssssssssssssssssssscssscscssscsssscsssssssscsscsscscssssssssscssssccssssssssssscscssccssssscssscsssssssssssssssssssscsssssssssssssssssscsscssccsssssssssscssssssssssssssssssssssssssssscsssccssssssssssssssssscssssssssssssss" />
    <path
       inkscape:connector-curvature="0"
       id="path9297"
       d="m 152.68522,462.91569 c 0,-1.96744 0.70503,-2.93901 1.56674,-2.15907 0.86171,0.77994 1.56675,2.38967 1.56675,3.57716 0,1.18749 -0.70504,2.15907 -1.56675,2.15907 -0.86171,0 -1.56674,-1.60973 -1.56674,-3.57716 z m 131.08431,2.04749 c -2.38587,-3.49408 -0.6996,-5.35197 4.83079,-5.32249 7.28069,0.0388 12.92564,2.14616 12.92564,4.82527 0,2.33967 -16.18883,2.793 -17.75643,0.49722 z m 25.46375,-12.23728 c -2.93489,-8.06411 -6.05575,-13.7728 -7.53393,-13.78109 -1.38793,-0.007 -4.54294,-1.55656 -7.01115,-3.44173 -5.1188,-3.90968 -8.33251,-4.37803 -9.09081,-1.32484 -0.28724,1.15651 -2.98987,2.75293 -6.00585,3.5476 -4.81862,1.26964 -5.70317,0.73658 -7.29414,-4.39569 -0.99579,-3.21232 -1.23226,-6.36396 -0.5255,-7.00366 0.70677,-0.63969 1.66979,0.13399 2.14005,1.71933 0.47024,1.58533 0.48945,0.24959 0.0426,-2.96827 -0.63697,-4.58763 0.053,-6.52886 3.19567,-8.99207 2.42846,-1.90337 4.00802,-5.12383 4.00802,-8.17172 0,-4.15993 0.69402,-4.83603 4.01107,-3.9074 3.12522,0.87493 4.20362,0.0445 4.88296,-3.75992 1.02334,-5.73093 2.52596,-6.17149 5.16511,-1.51445 1.04986,1.85262 2.72251,3.14327 3.717,2.86811 2.79819,-0.77418 3.06156,10.98628 0.32064,14.31765 -3.4734,4.22166 -3.02673,7.60744 1.87921,14.24485 4.82183,6.52358 9.79216,9.79865 9.79216,6.45229 0,-3.57546 6.0662,4.96671 11.85233,16.68993 2.96002,5.9973 5.38186,11.41803 5.38186,12.04608 0,0.62807 -3.13131,1.14195 -6.95848,1.14195 -6.90359,0 -6.99799,-0.10853 -11.96886,-13.76695 z m 51.91567,12.04608 c 0.10967,-2.17752 9.26898,-12.8765 10.04745,-11.73644 0.3181,0.46585 1.06462,3.68433 1.65894,7.15216 1.04727,6.11087 0.88223,6.30515 -5.35625,6.30515 -3.54026,0 -6.39782,-0.77439 -6.35014,-1.72087 z m 50.04914,-1.18825 c 0,-1.59999 1.76259,-6.70783 3.91686,-11.35071 2.15428,-4.64291 3.91686,-9.87311 3.91686,-11.62268 0,-4.15009 1.63388,-6.45044 3.4281,-4.82649 0.80561,0.72917 0.62736,2.69543 -0.41037,4.52662 -1.45115,2.5607 -1.3033,3.23746 0.7073,3.23746 1.39807,0 2.63193,-1.29065 2.7419,-2.86811 0.62211,-8.9234 1.14087,-12.97912 2.77571,-21.7008 0.99535,-5.3101 2.4956,-10.27549 3.33389,-11.03424 2.03703,-1.84373 1.95819,4.22134 -0.094,7.22667 -0.88995,1.30334 -1.12363,4.25683 -0.51928,6.56332 0.98735,3.76811 1.24915,3.63243 2.58021,-1.33718 2.6152,-9.7641 2.94177,-0.65219 0.57647,16.08429 -3.35001,23.70401 -0.32217,36.03571 3.69224,15.03767 2.38718,-12.48654 4.24774,-14.78663 5.59622,-6.91822 0.54954,3.20655 1.99539,5.83008 3.21302,5.83008 2.77804,0 4.80536,-7.13954 6.08641,-21.43434 1.66979,-18.63256 2.43565,-10.46511 1.3318,14.20276 l -1.04225,23.29302 -17.78205,0 c -15.87181,0 -17.78741,-0.43134 -17.83187,-4.01536 -0.0475,-3.82416 -0.149,-3.82416 -2.13117,0 -2.4517,4.72993 -4.08599,5.1724 -4.086,1.10624 z m 54.10884,-0.94262 c 2.14481,-3.14109 2.44036,-6.42206 1.60184,-17.78231 -0.56553,-7.66182 -1.22909,-18.30612 -1.47457,-23.65401 -0.24549,-5.34789 -1.621,-11.62431 -3.05669,-13.94762 -1.43568,-2.32331 -2.61034,-6.50238 -2.61034,-9.28684 0,-4.35166 0.44007,-4.71775 3.13349,-2.60673 1.72342,1.35077 3.13349,3.90986 3.13349,5.68686 0,1.77699 1.29819,4.5801 2.88485,6.22913 3.79567,3.94483 6.96512,12.88742 5.94602,16.7767 -0.44599,1.70208 0.20475,4.32911 1.4461,5.83788 1.59161,1.93448 2.25699,7.73365 2.25699,19.67093 l 0,16.92775 -7.94563,0 c -7.43871,0 -7.77784,-0.24574 -5.31555,-3.85174 z m -119.12874,-3.03174 c -0.53257,-1.26197 -0.22167,-2.29449 0.6909,-2.29449 0.91256,0 1.65921,1.03252 1.65921,2.29449 0,1.26197 -0.3109,2.29449 -0.6909,2.29449 -0.38,0 -1.12665,-1.03252 -1.65921,-2.29449 z m -21.53809,-18.21136 -5.09657,-6.68635 4.60167,-7.05432 c 2.53092,-3.87987 5.56893,-7.05433 6.75113,-7.05433 1.1822,0 1.71372,-1.03252 1.18115,-2.29449 -0.53256,-1.26197 -0.27932,-2.29449 0.56278,-2.29449 0.84208,0 2.58259,-0.59092 3.86777,-1.31318 1.47605,-0.82951 2.71628,0.43818 3.36722,3.44173 1.28801,5.94317 3.9414,6.33379 2.88627,0.4249 -0.90644,-5.07631 1.91325,-8.611 3.13862,-3.93448 1.5972,6.09559 -0.0368,11.58895 -4.5644,15.34499 -2.50692,2.0797 -5.16562,3.27015 -5.90824,2.64543 -1.73168,-1.45675 -4.07838,3.93923 -4.1094,9.44913 -0.0158,2.81029 0.75899,3.82083 2.27595,2.96831 1.26497,-0.71087 2.62421,-0.52413 3.02054,0.41501 0.39632,0.93913 -0.98907,1.91475 -3.07867,2.16802 -2.31236,0.28027 -5.79389,-2.15632 -8.89582,-6.22588 z m 24.78391,5.01804 c 0.77988,-0.94648 1.85681,-2.58184 2.3932,-3.63414 0.53639,-1.05227 1.40376,-0.27788 1.92749,1.72087 0.68562,2.61662 0.0157,3.63413 -2.3932,3.63413 -1.84,0 -2.70737,-0.77439 -1.92749,-1.72086 z m -94.94095,-24.73736 c -2.50997,-4.42915 -26.07005,-25.8396 -38.74474,-35.20968 -5.27761,-3.9016 -16.61559,-11.18964 -25.19552,-16.19563 -14.93195,-8.71209 -16.56271,-9.1589 -38.08763,-10.4359 -12.36826,-0.73375 -32.71076,-2.37659 -45.20555,-3.65069 -20.495338,-2.08996 -23.926568,-1.88181 -35.073764,2.12768 l -12.355968,4.44429 0.877408,-16.3941 c 0.482574,-9.01673 1.988808,-20.23287 3.347186,-24.92472 3.349576,-11.56949 3.106299,-14.89437 -0.611587,-8.3586 C 191.22817,220.62614 95.210843,96.04827 174.36367,32.833911 l -7.71755,11.91268 c -10.60405,16.368216 -19.65279,37.47042 -21.94878,51.185843 -1.05627,6.309846 -2.57994,12.111816 -3.38592,12.893256 -0.80597,0.78144 -1.67418,5.42779 -1.92934,10.32521 -0.56596,10.86263 -8.49674,38.96451 -14.94575,52.95869 -2.60884,5.66111 -4.01149,9.93566 -3.11701,9.499 3.11365,-1.51997 24.82552,-48.92842 23.11848,-50.4798 -1.04738,-0.95187 -0.11516,-4.21743 2.50655,-8.78039 2.29577,-3.99568 4.17412,-8.73444 4.17412,-10.53057 0,-1.79613 0.5634,-3.26569 1.25201,-3.26569 1.35038,0 4.79634,-12.619892 5.91673,-21.668415 1.00912,-8.149883 6.2655,-24.504481 9.99713,-31.104897 1.78367,-3.154926 2.83319,-4.033757 2.33225,-1.952958 -0.50094,2.080801 -0.1037,4.513783 0.88275,5.40663 2.02204,1.830164 7.82054,-6.23521 7.82054,-10.877913 0,-1.664927 1.0566,-5.236346 2.348,-7.936487 1.80894,-3.782242 1.89886,-5.174809 0.39168,-6.065624 -1.16617,-0.689268 -0.84892,-1.229439 0.78549,-1.337421 3.20969,-0.212056 3.25711,0.35409 1.04195,12.438561 -0.92532,5.047881 -2.81873,10.468618 -4.20758,12.046081 -1.52896,1.736591 -1.77717,2.868115 -0.62915,2.868115 3.51346,0 -0.0155,12.3113 -6.24137,21.774077 -3.31264,5.034907 -6.02298,10.00032 -6.02298,11.03425 0,1.033932 -0.81397,1.143148 -1.80882,0.242698 -1.05029,-0.950629 -1.38612,-0.635549 -0.80084,0.751352 0.5544,1.31369 -1.44208,6.305841 -4.43662,11.093681 -2.99453,4.78784 -5.07718,9.24324 -4.62811,9.90091 0.93347,1.36706 16.2276,-22.033865 23.79477,-36.407392 2.78851,-5.296672 5.83689,-13.924321 6.77419,-19.172551 0.93729,-5.248231 2.84541,-13.414193 4.24027,-18.146582 l 2.53611,-8.604344 c 104.80578,-2.250904 267.44139,391.911699 284.3838,356.363499 -1.53944,-7.79251 -11.43354,-21.36771 -15.57354,-21.36771 -1.36749,0 -3.66307,-3.61382 -5.10129,-8.03072 -1.5934,-4.89346 -3.69597,-7.95996 -5.3821,-7.84957 -1.63971,0.10738 -1.96921,0.65267 -0.80872,1.33845 1.07714,0.63651 1.95843,2.21425 1.95843,3.50607 0,1.29182 -1.05755,1.75446 -2.35012,1.02805 -1.29256,-0.72639 -2.35011,-0.44103 -2.35011,0.63415 0,1.07518 1.41007,2.49489 3.13349,3.15493 1.72342,0.66003 3.13349,2.32923 3.13349,3.70934 0,3.62521 -1.65151,3.11686 -7.83373,-2.41128 -4.27097,-3.81911 -7.85359,-4.86203 -16.20087,-4.71612 -5.89449,0.10302 -12.48478,-0.79683 -14.64507,-1.9997 -2.55796,-1.42426 -6.0685,-1.34283 -10.0658,0.23351 -5.94061,2.34266 -6.41897,2.08531 -14.87502,-8.0025 -4.80535,-5.73265 -10.05814,-10.423 -11.67286,-10.423 -1.61472,0 -5.05907,3.03958 -7.65411,6.75462 -3.99389,5.71762 -5.88979,6.71552 -12.34926,6.50004 -6.07718,-0.2026 -8.78237,1.03156 -13.28562,6.06179 -3.11003,3.474 -6.40757,5.63484 -7.32788,4.80187 -0.92031,-0.83297 -1.47954,-0.14708 -1.24277,1.52416 0.30675,2.16513 -1.5963,3.03867 -6.61984,3.03867 -4.75106,0 -8.62313,1.64301 -11.87298,5.03801 -7.09986,7.41699 -17.85683,12.36217 -21.19663,9.74453 -4.46988,-3.50337 -17.41506,-2.4736 -23.3332,1.85608 -6.18473,4.52474 -14.1007,24.39726 -14.1007,35.39887 0,7.19486 -1.72878,8.27377 -4.7408,2.95874 z m 8.2527,-31.11842 c 1.08444,-2.64183 5.49688,-7.79476 9.80543,-11.45094 7.08466,-6.01193 7.42174,-6.64964 3.52517,-6.66912 -2.3697,-0.0118 -4.30855,-1.05404 -4.30855,-2.31602 0,-3.05883 -8.79128,-2.93341 -12.76633,0.18219 -3.04397,2.38576 -3.05456,2.59348 -0.28869,5.66324 3.33135,3.69737 7.42563,4.40519 6.00467,1.0381 -0.56081,-1.32893 0.88376,-2.25175 3.43271,-2.19292 l 4.40102,0.10165 -5.80152,5.06105 c -3.19082,2.78356 -6.52463,7.3842 -7.40845,10.22364 -2.06974,6.6495 0.70239,6.94203 3.40454,0.35927 z m -14.84954,-22.67268 c 1.4963,-1.23014 5.36442,-3.75876 8.59583,-5.61916 3.23141,-1.8604 5.87529,-4.46774 5.87529,-5.7941 0,-3.92996 13.61823,-2.97348 14.66729,1.03016 0.496,1.89296 1.98149,3.44174 3.30111,3.44174 2.58592,0 3.31517,-3.71437 0.97605,-4.97141 -3.34376,-1.79691 -2.51061,-15.03624 1.03155,-16.39185 1.50799,-0.57713 0.42235,-1.16911 -2.41254,-1.3155 -5.61004,-0.2897 -15.77127,6.38537 -22.77559,14.9616 -2.4358,2.98247 -5.20043,5.42267 -6.1436,5.42267 -2.09295,0 -7.4452,6.85355 -7.4452,9.53359 0,2.51453 0.99203,2.44631 4.32981,-0.29774 z m 46.1977,-1.57748 c -1.07713,-0.63652 -2.83972,-0.63652 -3.91686,0 -1.07713,0.63651 -0.19584,1.15732 1.95843,1.15732 2.15428,0 3.03557,-0.52081 1.95843,-1.15732 z m -5.09192,-5.6632 c 0,-1.27762 -1.19436,-4.05611 -2.65414,-6.17443 -2.486,-3.60749 -2.58525,-3.58524 -1.56674,0.35156 0.59807,2.31166 1.0874,5.72829 1.0874,7.5925 0,1.86423 0.70503,2.75137 1.56674,1.97143 0.86171,-0.77995 1.56674,-2.46342 1.56674,-3.74106 z m 44.30121,-13.20402 c -3.04484,-10.68164 -10.13774,-25.39091 -12.27408,-25.45403 -0.91184,-0.0269 -3.67292,-3.92095 -6.13573,-8.65334 -4.57463,-8.79029 -16.88236,-23.51854 -19.6534,-23.51854 -0.84578,0 -1.53776,-0.8424 -1.53776,-1.87198 0,-1.02958 -2.9964,-4.29703 -6.65867,-7.26097 -3.66226,-2.96395 -17.70991,-21.65538 -31.21701,-41.53651 -19.71048,-29.0119 -25.43215,-38.89732 -28.98477,-50.07743 -2.43454,-7.66145 -5.00271,-13.94066 -5.70708,-13.9538 -1.4705,-0.0274 -0.17389,7.28636 3.00737,16.96369 1.20458,3.66431 2.19358,7.79439 2.19778,9.17797 0.008,2.69284 22.68087,42.30478 29.67576,51.84717 10.22575,13.94991 17.0221,23.51482 23.58592,33.19386 3.87769,5.71808 8.17701,10.93366 9.55405,11.59019 2.43925,1.16294 12.38037,17.74335 12.38037,20.6487 0,0.80085 3.07898,7.31463 6.8422,14.47512 7.6725,14.59891 15.57549,24.36019 20.04258,24.75532 1.64039,0.14501 3.44085,0.93503 4.00099,1.75536 2.4472,3.5839 3.03814,-4.51501 0.88148,-12.08078 z m -38.8176,-2.5581 c -0.53257,-1.26198 -1.94264,-2.2945 -3.13349,-2.2945 -1.19085,0 -2.60092,1.03252 -3.13349,2.2945 -0.55135,1.30648 0.79793,2.29449 3.13349,2.29449 2.33556,0 3.68484,-0.98801 3.13349,-2.29449 z M 121.8594,311.98606 c -2.43427,-5.25216 -4.95471,-9.89355 -5.601,-10.31419 -0.64628,-0.42068 -1.17506,-1.78507 -1.17506,-3.03202 0,-1.24694 -0.98321,-3.70709 -2.18492,-5.46699 -1.86874,-2.73675 -2.27481,-2.07225 -2.80606,4.59192 -0.34162,4.28547 -0.0634,7.28699 0.61818,6.67004 0.68162,-0.61694 1.28842,-2.8677 1.34844,-5.00167 0.06,-2.13397 1.14593,1.05981 2.41313,7.09728 1.32591,6.31712 2.98715,10.35889 3.91319,9.52072 0.88506,-0.80106 1.99441,0.70083 2.46523,3.33756 0.47082,2.63672 1.48092,4.22845 2.24466,3.53719 0.76374,-0.69128 1.49426,1.6435 1.62337,5.1884 l 0.23475,6.44527 0.66602,-6.51206 c 0.46156,-4.51299 -0.69267,-9.44353 -3.75993,-16.06145 z m 6.70448,15.16421 c -0.52062,-0.76244 -0.89092,0.59276 -0.82289,3.01152 0.0752,2.67297 0.44643,3.21665 0.94658,1.38626 0.45258,-1.65635 0.39692,-3.63534 -0.1237,-4.39778 z M 113.5166,308.10952 c 0,-1.14789 -1.0535,-1.49502 -2.34112,-0.77141 -1.28761,0.72362 -1.94393,2.25684 -1.45848,3.40716 1.01534,2.40596 3.7996,0.47455 3.7996,-2.63575 z m -5.23929,-21.20432 c -0.42917,-1.55344 -0.75418,0.27312 -0.72225,4.05903 0.0319,3.78591 0.38306,5.05692 0.7803,2.82445 0.39724,-2.23247 0.37111,-5.33004 -0.058,-6.88348 z m -5.80373,-20.25306 -4.736837,-13.74228 -4.707365,4.9089 c -2.58905,2.69989 -5.866576,7.6483 -7.283395,10.99647 -1.416816,3.34816 -3.978836,8.41073 -5.693376,11.25016 -2.459794,4.07364 -2.623451,5.16261 -0.775874,5.16261 1.287809,0 4.25405,-3.51307 6.591648,-7.80685 3.640851,-6.68761 5.138529,-7.75669 10.446613,-7.4571 5.942536,0.33541 8.874236,3.98138 6.921716,8.60807 -0.48927,1.15938 -0.39178,4.40494 0.21665,7.21236 l 1.10623,5.10438 1.32542,-5.24721 c 0.99625,-3.94407 0.14903,-8.6601 -3.41143,-18.98951 z m 111.70637,-56.46717 c -3.83407,-1.08149 -4.69674,-4.33775 -1.56675,-5.91387 1.07714,-0.5424 0.72462,-0.71477 -0.78337,-0.38305 -1.50799,0.33171 -2.7418,-0.78806 -2.7418,-2.48839 0,-3.63649 -0.89301,-4.51232 -6.65867,-6.53057 -3.51876,-1.23173 -4.30855,-0.73006 -4.30855,2.73679 0,2.38652 1.88629,5.53566 4.30855,7.19309 2.3697,1.62147 5.3661,3.80027 6.65867,4.84178 1.29256,1.04151 3.76018,1.81376 5.4836,1.71611 2.65114,-0.15019 2.59085,-0.3306 -0.39168,-1.17189 z m -14.89253,-20.71486 c 0.35262,-1.54922 -0.67443,-2.06411 -2.62626,-1.3166 -1.76294,0.67516 -2.79614,2.1972 -2.29601,3.38231 1.11923,2.65214 4.13667,1.38582 4.92227,-2.06571 z m 15.28421,-2.90526 c -0.53256,-1.26197 -1.27921,-2.29449 -1.65921,-2.29449 -0.38,0 -0.6909,1.03252 -0.6909,2.29449 0,1.26198 0.74664,2.2945 1.6592,2.2945 0.91257,0 1.22348,-1.03252 0.69091,-2.2945 z m -27.94715,-32.6965 c -0.43463,-1.57747 -0.79024,-0.28681 -0.79024,2.86811 0,3.15493 0.35561,4.44558 0.79024,2.86812 0.43463,-1.57747 0.43463,-4.15877 0,-5.73623 z m 2.79654,-11.09481 c -0.50446,-1.19536 -1.58501,-1.56893 -2.40124,-0.83016 -0.81622,0.73877 -1.0713,2.32124 -0.56685,3.5166 0.50445,1.19535 1.58501,1.56892 2.40123,0.83015 0.81622,-0.73877 1.07131,-2.32124 0.56686,-3.51659 z m 7.02539,-16.78797 c -0.37518,-0.54944 -2.7958,-1.7523 -5.37916,-2.67303 l -4.69702,-1.67405 3.91686,4.76641 c 2.37696,2.89252 4.49176,3.94341 5.37916,2.67303 0.80426,-1.15136 1.15533,-2.54292 0.78016,-3.09236 z m 43.79611,-5.6763 c -2.05505,-2.36737 -4.29095,-4.17428 -4.96866,-4.01536 -2.30717,0.54102 -4.12392,-6.5391 -3.15917,-12.3117 0.9852,-5.894867 7.29129,-16.080497 9.95569,-16.080497 0.81731,0 1.48603,1.512453 1.48603,3.361008 11.27505,20.306139 8.2387,-3.71811 2.90485,-11.150133 -3.29889,-4.549775 -6.67707,-8.272317 -7.50705,-8.272317 -0.83,0 -2.15158,-1.681374 -2.93687,-3.736387 -0.97617,-2.554561 -1.77338,-2.917437 -2.52042,-1.147246 -0.60096,1.424028 -0.32975,2.589141 0.60268,2.589141 0.96966,0 0.56173,2.533722 -0.95303,5.919364 l -2.64837,5.919364 -1.84105,-6.492987 c -1.01258,-3.571142 -1.24714,-6.837161 -0.52125,-7.257817 1.85985,-1.077784 1.64953,-7.265891 -0.24694,-7.265891 -0.86171,0 -1.56674,0.931515 -1.56674,2.070033 0,1.138518 -2.11511,3.149848 -4.70024,4.469624 -2.59943,1.327079 -4.70023,4.051774 -4.70023,6.096102 0,2.033083 -0.71654,3.047969 -1.5923,2.255307 -0.87577,-0.792665 -1.18668,-2.402382 -0.69091,-3.577152 0.49577,-1.174771 0.23018,-2.135947 -0.59019,-2.135947 -0.82037,0 -1.89741,1.548782 -2.39341,3.441738 -0.49601,1.892955 -2.38037,3.441737 -4.18749,3.441737 -4.00641,0 -9.19648,3.787451 -12.87181,9.393181 -3.64638,5.561573 -3.4727,8.813049 0.39168,7.333088 1.72342,-0.660024 3.13349,-2.131814 3.13349,-3.270642 0,-1.13883 1.76259,-1.422732 3.91686,-0.630896 2.58142,0.948839 3.91687,0.48135 3.91687,-1.37114 0,-1.681844 1.25946,-2.328503 3.13565,-1.609969 1.72461,0.660481 2.77066,0.335989 2.32456,-0.72109 -0.4461,-1.057081 -0.27034,-2.411405 0.39058,-3.009609 0.66092,-0.598204 3.63488,2.428013 6.60881,6.724928 2.97391,4.296918 6.24012,7.812575 7.25824,7.812575 1.9918,0 3.72736,7.14525 3.76194,15.48782 0.0191,4.59466 2.11467,6.36227 6.52979,5.50768 0.56363,-0.10911 1.88377,1.31741 2.93363,3.17002 1.04988,1.85261 2.62265,3.36838 3.49505,3.36838 0.87241,0 -0.0953,-1.93694 -2.15027,-4.30431 z m -0.52026,-13.85565 c -0.48709,-1.15419 7e-5,-2.56161 1.08258,-3.12761 1.08252,-0.566 1.48501,-1.79203 0.89446,-2.7245 -0.59057,-0.932477 -2.57886,-0.15151 -4.41846,1.7355 -2.41891,2.48126 -2.77221,3.7661 -1.27638,4.64188 3.29932,1.93167 4.67276,1.73762 3.7178,-0.52527 z m -27.50074,-9.351484 c 0,-4.3466 -0.15091,-4.377294 -3.13349,-0.637316 -1.72342,2.161063 -3.13349,4.216 -3.13349,4.56652 0,0.35053 1.41007,0.63732 3.13349,0.63732 2.08385,0 3.13349,-1.52966 3.13349,-4.566524 z m -7.83373,-25.261865 c 0,-1.261971 -1.23381,-2.278681 -2.7418,-2.259357 -2.34314,0.03003 -2.40009,0.35854 -0.39169,2.259357 2.95678,2.798385 3.13349,2.798385 3.13349,0 z M 378.42015,415.05798 c -0.068,-2.41876 0.30225,-3.77395 0.82288,-3.01152 0.52062,0.76244 0.57627,2.74144 0.12362,4.39779 -0.50014,1.83038 -0.87139,1.2867 -0.94657,-1.38627 z m 40.93176,-5.71353 c 0.85451,-4.93022 3.68787,-11.89974 6.29634,-15.48782 3.43157,-4.72023 4.29152,-5.25512 3.11068,-1.93476 -0.8976,2.52394 -2.48139,7.94467 -3.51953,12.04608 -1.03813,4.1014 -2.50701,7.4571 -3.26418,7.4571 -0.75716,0 -1.37666,1.54878 -1.37666,3.44173 0,1.89296 -0.63007,3.44174 -1.40015,3.44174 -0.79618,0 -0.72997,-3.86677 0.15354,-8.96407 z m 31.39672,-17.79971 c -2.46853,-1.45748 -0.96831,-5.3591 2.06066,-5.3591 1.24171,0 2.25765,1.54878 2.25765,3.44173 0,3.53806 -0.89804,3.9368 -4.31831,1.91737 z m -81.85265,-35.12857 c 0,-1.22958 2.18751,-3.89222 4.86113,-5.91699 4.10043,-3.10537 5.61183,-3.22606 9.65843,-0.77134 l 4.79729,2.91012 -5.34987,2.83233 c -6.55281,3.46918 -13.96698,3.97128 -13.96698,0.94588 z"
       style="fill:#008000"
       sodipodi:nodetypes="sssssssssccsssscscssssscsssssscccssscssssssssscsssssssscscssssssssssssscsssssssscssssssssssscsssscssssssssscssccssssssssssssssssssssssssssssssccsscssssssssssssscssssssssscscscscccssccssssssssssssssssssssssscsssssscscssssscsssssssscssscsssscscsscssccsssscssccscsssssssscsssssssssssssssssssssssssssssscscssccsssccssssscsssssssssssssssssssssccsscsscssssssssssssccccccssssssccssssssscss" />
    <path
       inkscape:connector-curvature="0"
       id="path9295"
       d="m 285.33627,464.96318 c -3.97965,-5.82817 2.19758,-7.04836 10.13452,-2.00188 l 5.2718,3.35194 -7.18091,0.0897 c -3.94951,0.0493 -7.65095,-0.59854 -8.22541,-1.43986 z m 26.17716,-8.53542 c -3.26502,-9.64705 -3.2714,-9.89219 -0.32797,-12.58425 1.65105,-1.51005 3.66916,-2.14161 4.48467,-1.4035 1.68957,1.52926 10.92375,20.75659 10.92375,22.74539 0,0.71909 -2.64388,1.25651 -5.8753,1.19426 -5.32972,-0.10256 -6.1845,-1.02678 -9.20515,-9.9519 z m 52.68232,8.28052 c 0,-2.68081 6.06734,-9.75604 6.7545,-7.8765 2.83926,7.76598 2.42665,9.66107 -2.10343,9.66107 -2.55809,0 -4.65107,-0.80305 -4.65107,-1.78457 z m 48.69278,-1.46597 c -0.068,-2.41876 0.30226,-3.77396 0.82288,-3.01152 0.52062,0.76244 0.57627,2.74144 0.12362,4.39778 -0.50014,1.83039 -0.87139,1.28671 -0.94656,-1.38626 z m 7.05245,-1.91207 c 0.61617,-2.83943 1.22101,-7.22765 1.34411,-9.75159 0.12315,-2.52394 1.00568,-4.36543 1.96131,-4.09222 0.95564,0.27322 2.66667,-4.11178 3.8023,-9.74444 1.78951,-8.87587 2.3632,-9.80422 4.30307,-6.96327 1.82146,2.66753 1.92705,5.55023 0.56694,15.48066 -1.01918,7.44129 -1.10846,13.05329 -0.22876,14.38251 2.33625,3.53017 1.66556,5.85096 -1.69092,5.85096 -1.72342,0 -3.13349,-1.23903 -3.13349,-2.75339 0,-2.14152 -0.41781,-2.14152 -1.8801,0 -3.27523,4.79656 -6.29518,3.35425 -5.04446,-2.40922 z m 16.32502,2.94884 c 0,-3.58645 6.12908,-7.33754 9.45965,-5.78944 1.74386,0.81057 3.07431,0.36909 3.07431,-1.02013 0,-1.34703 0.70504,-2.44912 1.56675,-2.44912 0.86171,0 1.56674,2.5813 1.56674,5.73623 0,5.35381 -0.52224,5.73623 -7.83372,5.73623 -4.30855,0 -7.83373,-0.9962 -7.83373,-2.21377 z m 31.3349,-10.05974 c 0,-6.75044 -0.39802,-20.43135 -0.88446,-30.40202 l -0.88447,-18.1285 4.68022,7.73161 c 2.57413,4.25238 4.35662,8.96662 3.96111,10.47607 -0.39553,1.50946 0.35966,5.77416 1.67819,9.47708 1.33602,3.75209 2.4016,12.57331 2.40697,19.92594 l 0.01,13.19333 -5.48361,0 -5.4836,0 0,-12.27351 z m -28.20141,-2.50527 c 0,-1.81847 0.70504,-3.94446 1.56675,-4.7244 0.86171,-0.77995 1.56674,0.70789 1.56674,3.30631 0,2.59842 -0.70503,4.72441 -1.56674,4.72441 -0.86171,0 -1.56675,-1.48784 -1.56675,-3.30632 z M 325.34048,440.79454 c -2.47702,-3.62759 -2.41374,-11.01356 0.0943,-11.01356 1.08594,0 3.80048,-2.47968 6.03231,-5.51043 2.77795,-3.77233 4.7496,-4.869 6.25097,-3.47686 1.2062,1.11845 1.41967,2.04937 0.47439,2.06869 -2.82272,0.0576 -8.02616,7.84505 -7.30598,10.93396 0.36779,1.57746 -0.53391,2.86812 -2.0038,2.86812 -2.19794,0 -2.32616,0.61118 -0.7221,3.44173 2.31201,4.07979 -0.10199,4.66902 -2.82014,0.68835 z m -47.22895,-6.19244 c 2.31676,-2.82383 2.98051,-4.69862 1.67986,-4.74478 -1.82253,-0.0647 -1.82253,-0.65779 0,-3.89121 1.72929,-3.06801 1.75405,-4.0101 0.12644,-4.81212 -1.5626,-0.76996 -1.60485,-1.73656 -0.18543,-4.2413 1.56629,-2.76388 2.15708,-2.64594 3.99139,0.79676 1.89714,3.56062 1.96574,3.27323 0.57711,-2.41841 -2.29631,-9.41217 -2.00508,-10.74947 2.34099,-10.74947 2.43716,0 3.91686,-1.30022 3.91686,-3.44174 0,-3.97619 2.4643,-4.58923 3.98287,-0.99083 0.56888,1.34802 1.9622,1.92946 3.09629,1.29215 3.97985,-2.23661 4.02022,6.19294 0.0686,14.32646 -3.43262,7.06533 -3.64833,8.54808 -1.70174,11.69814 1.34164,2.1711 1.71488,4.82585 0.93749,6.66796 -0.90321,2.14025 -1.61392,2.29701 -2.36332,0.52121 -1.27517,-3.02166 -7.47383,-3.37175 -9.58218,-0.5412 -0.81862,1.09904 -3.56449,2.71794 -6.10191,3.59756 l -4.6135,1.59928 3.83013,-4.66846 z m 57.25073,-4.46265 c -0.54217,-1.28473 -0.22232,-3.02687 0.71077,-3.87143 2.40884,-2.18025 3.96303,0.80617 1.95213,3.75113 -1.12521,1.64786 -2.00155,1.68744 -2.6629,0.12023 z m -81.89348,-10.33343 c -8.95288,-10.88789 -36.29557,-33.13345 -55.34797,-45.03013 -21.16739,-13.21735 -30.29663,-15.77062 -57.18618,-15.99371 -7.75538,-0.0644 -23.26616,-1.26089 -34.46838,-2.65897 -18.575204,-2.31824 -21.524185,-2.13881 -33.508863,2.039 l -13.141182,4.58095 0.971464,-16.3863 c 0.534306,-9.01244 2.404091,-22.06514 4.15508,-29.00598 l 3.183615,-12.6197 -3.931759,6.88348 -3.93176,6.88347 C 59.453707,160.99352 66.419133,164.1389 173.1329,32.833911 l -8.27152,14.340573 c -8.6534,18.210531 -26.3485,52.938236 -25.98482,73.627706 0.10559,4.11391 -0.89059,10.01013 -2.21377,13.10271 -1.32317,3.09258 -2.85965,8.48596 -3.41439,11.98529 -0.55474,3.49932 -3.6939,12.79202 -6.97592,20.65042 -13.84057,33.13968 -12.04897,31.81896 5.51827,-4.06792 19.25365,-39.33194 20.06172,-41.08881 18.06906,-39.28525 -2.70473,2.44808 -2.31123,-2.07059 0.47525,-5.45734 1.29256,-1.57101 2.35012,-3.83623 2.35012,-5.03382 0,-1.19759 1.05755,-3.72622 2.35011,-5.61917 1.29257,-1.89296 2.35012,-2.54197 2.35012,-1.44226 0,1.09972 -0.83429,3.22131 -1.85398,4.71464 -1.01969,1.49333 -1.38142,3.4072 -0.80385,4.25306 1.25402,1.83652 16.02602,-17.096517 17.40912,-22.312986 0.53122,-2.003578 3.05263,-7.065881 5.60312,-11.249561 2.5505,-4.183677 5.81726,-12.353339 7.25949,-18.154801 1.44222,-5.801462 3.88735,-14.936327 5.43363,-20.299701 l 2.8114,-9.75159 C 401.61135,252.33853 416.19123,158.44541 476.18177,385.273 c -2.93359,-8.23814 -7.85068,-14.6261 -14.30458,-18.58359 -2.71752,-1.66638 -5.40916,-5.19016 -5.98139,-7.83064 -0.57226,-2.64048 -2.50969,-5.95244 -4.3054,-7.35988 -2.74962,-2.15506 -3.11272,-1.97795 -2.30041,1.12216 0.5305,2.02464 0.46116,3.57127 -0.15417,3.43695 -0.61526,-0.13423 -1.47118,-0.0592 -1.90204,0.16704 -2.39189,1.25593 -28.18312,0.62905 -32.40739,-0.7877 -2.74416,-0.92035 -7.59075,-0.62142 -10.77024,0.66425 -5.50229,2.22495 -6.19367,1.84514 -14.34687,-7.88139 -4.71152,-5.62034 -9.94371,-10.21889 -11.6273,-10.21889 -1.68361,0 -4.96788,2.81759 -7.29841,6.26132 -3.4434,5.08815 -5.70516,6.29223 -12.07107,6.42614 -6.39698,0.13469 -9.40415,1.75139 -16.39643,8.81555 -7.10892,7.18201 -9.43803,8.41028 -13.71822,7.23433 -3.9935,-1.09718 -6.30108,-0.16933 -10.23822,4.11689 -6.23652,6.78942 -19.55813,13.56579 -20.8148,10.58796 -0.49702,-1.17774 -5.34053,-2.14134 -10.76335,-2.14134 -7.6545,0 -11.01147,1.15466 -15.00947,5.16261 -5.92971,5.94445 -12.27819,22.40273 -12.83336,33.27013 -0.20953,4.1014 -0.52941,7.4571 -0.71085,7.4571 -0.18145,0 -2.32286,-2.4237 -4.75866,-5.38598 z m 25.04708,-44.42336 c 4.17987,-1.83559 7.34757,-1.92289 10.54486,-0.29059 3.57611,1.8257 5.08804,1.57482 6.95097,-1.15344 3.29604,-4.82704 2.97569,-8.40342 -0.75271,-8.40342 -3.90772,0 -3.91761,-1.25805 -0.0661,-8.4287 2.53919,-4.7275 2.74152,-6.49314 1.17506,-10.25456 -1.45014,-3.48208 -2.99054,-4.24351 -6.59252,-3.25867 -2.90376,0.79392 -3.90149,0.53139 -2.61043,-0.68687 1.66991,-1.57579 1.56547,-2.26664 -0.51983,-3.43855 -7.43817,-4.18008 -20.27152,1.64272 -29.62339,13.44085 -2.50373,3.15867 -5.39085,5.74303 -6.41583,5.74303 -2.26576,0 -6.17218,6.39011 -7.6817,12.56571 -1.0208,4.17618 -0.8135,4.12915 2.61989,-0.59459 2.05062,-2.82129 4.18783,-4.45678 4.74935,-3.63443 0.56154,0.82237 2.06668,0.22417 3.34477,-1.3292 1.2781,-1.55342 4.29153,-2.37684 6.69653,-1.82981 2.405,0.54703 3.49143,0.56265 2.41429,0.0346 -1.07713,-0.52794 -1.95843,-2.00747 -1.95843,-3.28782 0,-1.41724 2.6049,-1.80882 6.65867,-1.00095 l 6.65866,1.327 -5.48361,-3.24524 -5.4836,-3.24524 5.70767,-0.17461 c 3.71238,-0.11357 6.02292,1.0286 6.6095,3.26718 0.496,1.89295 2.29241,3.44173 3.99201,3.44173 3.54265,0 6.32899,5.01028 3.54276,6.37041 -1.01964,0.49776 -1.45538,1.84936 -0.9683,3.00353 0.48707,1.15418 -1.64845,2.09852 -4.7456,2.09852 -5.35182,0 -5.53801,-0.25613 -3.75281,-5.1626 1.68624,-4.63456 1.61877,-4.84905 -0.65963,-2.09696 -1.39589,1.6861 -3.24287,2.42764 -4.1044,1.64788 -1.82625,-1.65295 -11.81453,4.01907 -13.30754,7.55693 -0.56019,1.32743 0.45857,3.57119 2.26391,4.98618 2.56788,2.01264 4.10022,1.78796 7.03911,-1.03213 5.93945,-5.69933 6.58676,-4.19293 0.85804,1.9968 -6.06883,6.55718 -9.07557,12.42472 -9.03319,17.62785 0.0196,2.401 2.86291,-0.48157 7.99466,-8.10497 4.79351,-7.12093 10.34294,-12.87582 13.93895,-14.455 z m 8.51771,-6.77806 c 1.07714,-0.63652 2.83973,-0.63652 3.91687,0 1.07713,0.63651 0.19584,1.15732 -1.95844,1.15732 -2.15427,0 -3.03556,-0.52081 -1.95843,-1.15732 z m -5.82764,-14.98005 c -0.0661,-5.38022 1.54278,-6.32786 7.64164,-4.50113 4.84172,1.45021 5.04397,1.84071 2.53355,4.89193 -2.40423,2.92217 -2.97063,2.83039 -4.76975,-0.77292 -1.95507,-3.91565 -2.11179,-3.91198 -3.69967,0.0865 -1.48135,3.73027 -1.66321,3.76177 -1.70577,0.29551 z m -21.98207,29.36484 c 0,-2.17663 -4.68987,-3.2736 -5.5259,-1.29254 -0.50931,1.20686 0.52566,2.1943 2.29994,2.1943 1.77427,0 3.22596,-0.40581 3.22596,-0.90176 z m 78.53594,-23.26404 c -3.99371,-15.17015 -8.80122,-27.00938 -14.46964,-35.63371 -3.78406,-5.75736 -8.78823,-13.50127 -11.12038,-17.20869 -5.12523,-8.1476 -12.94167,-17.06597 -14.95733,-17.06597 -0.8073,0 -2.74391,-2.06504 -4.30358,-4.58898 -1.55968,-2.52394 -3.47288,-4.58898 -4.25157,-4.58898 -2.6203,0 -13.99921,-14.73183 -34.82225,-45.08304 -16.57951,-24.16592 -21.66573,-33.136 -25.56178,-45.08092 -4.90426,-15.03598 -8.21803,-20.87471 -8.21803,-14.47984 0,2.43553 -1.28284,3.24491 -4.30855,2.71837 -2.3697,-0.41238 -5.64423,-0.0394 -7.27672,0.82894 -2.72889,1.45146 -2.61713,1.98312 1.38635,6.59502 4.47927,5.16 8.63217,6.58755 8.63217,2.96728 0,-1.12695 -1.05755,-2.64333 -2.35011,-3.36972 -1.29257,-0.7264 -2.35012,-2.45596 -2.35012,-3.84347 0,-1.38751 2.12339,-0.30844 4.71866,2.39793 2.59525,2.70638 4.34634,5.8029 3.89131,6.88117 -0.45505,1.07828 -0.11077,2.60904 0.76494,3.40171 0.87577,0.79266 1.5923,3.96157 1.5923,7.04202 0,3.08044 0.59121,5.60081 1.3138,5.60081 0.72259,0 7.52184,10.42101 15.10945,23.15781 7.5876,12.73679 16.60436,26.93396 20.03724,31.54926 6.59923,8.87229 20.98054,28.83918 32.08459,44.54601 3.66227,5.18032 6.65867,10.70688 6.65867,12.28125 0,1.57436 0.88576,4.22689 1.96836,5.89448 1.08259,1.66761 3.72647,6.22947 5.87529,10.1375 11.56781,21.03824 14.68256,25.89983 15.89222,24.80497 0.73262,-0.66311 1.33204,-0.0358 1.33204,1.39402 0,1.65692 2.4147,2.30337 6.65867,1.78263 3.66226,-0.44935 6.39556,-1.81639 6.074,-3.03786 z M 129.87382,332.53583 c -0.56621,-3.30384 -1.51644,-6.00698 -2.11163,-6.00698 -0.59518,0 -1.97445,-3.61382 -3.06505,-8.03072 -1.09059,-4.4169 -2.48076,-8.03072 -3.08927,-8.03072 -0.6085,0 -2.8395,-4.64635 -4.95778,-10.32521 -4.3215,-11.58547 -5.74887,-12.67897 -6.73872,-5.16261 -0.37393,2.83943 -0.41242,1.29065 -0.0855,-3.44174 0.33479,-4.84704 -0.0979,-8.60434 -0.99095,-8.60434 -0.87189,0 -1.58526,-0.84917 -1.58526,-1.88704 0,-1.03787 -2.16068,-7.72931 -4.80152,-14.86989 l -4.801531,-12.98286 -3.97778,3.81698 c -3.391785,3.25467 -12.64476,19.80104 -16.869877,30.16709 -2.334883,5.72847 4.732213,-1.30228 9.299836,-9.25203 5.044027,-8.77889 11.539304,-10.16694 14.436692,-3.08511 1.0466,2.55811 1.90291,5.68364 1.90291,6.94561 0,1.26197 -1.00758,-0.28681 -2.23908,-3.44174 -2.92509,-7.49369 -2.957913,-4.87157 -0.0613,4.89918 1.25884,4.2463 2.32719,6.17175 2.37411,4.27879 0.0758,-3.05931 0.25407,-3.05931 1.60408,0 1.35001,3.05932 1.54469,3.05932 1.75209,0 0.12833,-1.89295 0.73232,1.72087 1.34221,8.03072 0.65973,6.82559 0.48921,12.0696 -0.421,12.9467 -0.84187,0.81126 -0.11815,2.58073 1.60926,3.93464 1.72654,1.35322 3.58438,1.80838 4.12853,1.01145 0.54416,-0.79692 1.00017,0.0138 1.01336,1.80159 0.0198,2.67646 0.29223,2.64268 1.54276,-0.19113 1.32832,-3.01017 1.52177,-2.98284 1.54275,0.21798 0.0286,4.36605 5.31491,11.91906 6.8098,9.72981 0.57635,-0.84412 1.04791,0.10011 1.04791,2.09822 0,1.99812 -0.82986,4.03806 -1.84414,4.53319 -1.11556,0.54459 -1.33057,2.11719 -0.54422,3.98055 1.04754,2.48225 1.68261,2.31383 3.27099,-0.86739 1.82564,-3.65643 2.04974,-3.58466 3.03739,0.97257 1.48496,6.85192 2.72841,4.15732 1.46999,-3.18556 z M 110.38311,216.18431 c 0,-1.06784 -1.05755,-1.34721 -2.35012,-0.62081 -1.29256,0.72639 -2.35011,2.88546 -2.35011,4.79792 0,2.83069 0.43695,2.94612 2.35011,0.62081 1.29257,-1.57101 2.35012,-3.73008 2.35012,-4.79792 z m 108.81504,-4.74835 c 4.85946,-3.24257 5.28599,-6.58167 0.6121,-4.79168 -2.31756,0.88756 -3.02595,0.4585 -2.25585,-1.36635 0.67119,-1.59044 -0.33289,-3.54917 -2.4968,-4.87075 -4.76505,-2.91018 -9.78315,-9.42256 -11.07838,-14.37727 -0.61862,-2.36645 -1.99887,-3.43756 -3.40872,-2.64525 -1.30304,0.73228 -3.5917,-0.45898 -5.0859,-2.64724 -2.57783,-3.77522 -2.7806,-3.63996 -3.96544,2.64525 -1.03534,5.49214 -0.57803,7.48721 2.67648,11.67647 2.15884,2.7789 3.92517,6.01417 3.92517,7.18949 0,1.17532 1.23381,2.75049 2.74181,3.50038 2.56081,1.27344 13.32245,7.46942 14.02698,8.07599 0.17488,0.15056 2.11373,-0.9245 4.30855,-2.38904 z m -29.73477,-47.62069 c 0.16402,-4.52433 0.7881,-11.32362 1.38685,-15.10953 0.60933,-3.85284 0.367,-8.39879 -0.5504,-10.32521 -1.42223,-2.98649 -1.94692,-2.85066 -3.96672,1.02688 -1.28023,2.45774 -1.92436,6.3297 -1.4314,8.60435 1.32878,6.13125 -0.77433,13.86494 -3.37326,12.40439 -1.21471,-0.68264 -2.20857,-0.24106 -2.20857,0.98131 0,1.22236 1.41007,2.22248 3.13349,2.22248 2.56795,0 3.14208,1.55292 3.18113,8.60434 0.0411,7.43196 0.28493,8.00569 1.78915,4.2107 0.95783,-2.4165 1.87571,-8.09537 2.03973,-12.61971 z m 15.66839,-4.33867 c -0.50532,-4.1718 -2.34401,-9.67237 -4.086,-12.22349 -1.80663,-2.64582 -2.76326,-6.18014 -2.22686,-8.22728 0.7703,-2.93977 0.52153,-3.07979 -1.37544,-0.77417 -1.86618,2.2682 -1.94919,3.6813 -0.42755,7.27803 1.49827,3.54149 1.46089,4.85296 -0.181,6.34991 -1.694,1.54445 -1.59329,4.28446 0.55532,15.1085 l 2.6246,13.2219 3.01784,-6.57416 c 2.14613,-4.67521 2.75246,-8.76513 2.09909,-14.15924 z m 16.64325,-11.27239 c -1.42523,-3.58606 -1.63034,-3.36036 -1.67214,1.83998 -0.0262,3.2601 0.48113,6.70842 1.12742,7.66295 1.88219,2.77989 2.32893,-5.01365 0.54472,-9.50293 z m 9.24743,6.23776 c -3.06538,-2.90118 -6.26698,-2.90118 -6.26698,0 0,1.26197 1.93885,2.27868 4.30855,2.25936 3.35744,-0.0274 3.78975,-0.52613 1.95843,-2.25936 z m -13.15412,-6.26205 c -0.52063,-0.76244 -0.89091,0.59274 -0.82289,3.01152 0.0752,2.67295 0.44643,3.21665 0.94657,1.38626 0.45258,-1.65634 0.39693,-3.63534 -0.12362,-4.39778 z m -10.34705,-4.19858 c 0,-0.5565 -1.09916,-1.01183 -2.44258,-1.01183 -1.34342,0 -1.99974,1.04936 -1.45849,2.33192 0.89431,2.11915 3.90107,1.10169 3.90107,-1.32009 z m 28.20141,-4.20808 c 0,-3.26047 -4.51232,-7.02175 -5.93112,-4.94393 -1.00013,1.4647 2.73626,8.14018 4.5562,8.14018 0.75621,0 1.37492,-1.43831 1.37492,-3.19625 z m -25.06792,-1.39273 c 0,-1.26197 -0.9364,-2.29449 -2.08088,-2.29449 -1.39289,0 -2.0404,-2.93798 -1.95843,-8.88613 0.08,-5.80639 -0.50138,-8.53545 -1.6775,-7.8743 -0.98998,0.55651 -2.2654,-0.0911 -2.83427,-1.43908 -0.56888,-1.34801 -1.78407,-2.45092 -2.70044,-2.45092 -1.05064,0 -0.94561,1.27141 0.28431,3.44174 1.63265,2.88099 1.39185,3.44174 -1.47791,3.44174 -1.88558,0 -4.86774,-1.12818 -6.62702,-2.50706 -2.37526,-1.86167 -3.65955,-1.78783 -4.98892,0.28681 -1.34658,2.10151 -1.3049,3.05448 0.1682,3.84551 1.07714,0.5784 1.95843,2.47805 1.95843,4.22145 0,2.68941 4.47612,7.92024 6.77751,7.92024 0.39409,0 1.1589,-2.58131 1.69959,-5.73623 0.54069,-3.15493 2.10942,-5.73623 3.48607,-5.73623 1.80679,0 2.25252,1.40277 1.60247,5.04321 -0.4953,2.77376 -0.13868,6.38759 0.79248,8.03072 1.9888,3.50947 7.57631,4.02057 7.57631,0.69302 z m -39.16862,-2.29449 c 0,-1.26197 -0.70503,-2.2945 -1.56674,-2.2945 -0.86171,0 -1.56675,1.03253 -1.56675,2.2945 0,1.26197 0.70504,2.29449 1.56675,2.29449 0.86171,0 1.56674,-1.03252 1.56674,-2.29449 z m 43.86885,0 c 0,-1.26197 -0.70503,-2.2945 -1.56674,-2.2945 -0.86171,0 -1.56674,1.03253 -1.56674,2.2945 0,1.26197 0.70503,2.29449 1.56674,2.29449 0.86171,0 1.56674,-1.03252 1.56674,-2.29449 z m 12.90873,-13.84855 c -2.21499,-3.13872 -2.95715,-3.28336 -3.96617,-0.77299 -0.68272,1.69855 -0.41365,5.35308 0.59792,8.12117 1.77032,4.8444 1.91888,4.87335 3.96618,0.77299 1.82753,-3.66021 1.74335,-4.8035 -0.59793,-8.12117 z m -44.24362,4.67058 c 0,-1.26197 -0.70503,-2.29449 -1.56674,-2.29449 -0.86171,0 -1.56675,1.03252 -1.56675,2.29449 0,1.26197 0.70504,2.29449 1.56675,2.29449 0.86171,0 1.56674,-1.03252 1.56674,-2.29449 z m 58.91029,-6.62882 c -1.38287,-2.23784 -2.04275,-4.7594 -1.46641,-5.60346 0.57636,-0.84407 -0.31006,-1.53467 -1.96982,-1.53467 -3.59535,0 -7.22388,-7.58552 -5.95145,-12.44165 1.42995,-5.457313 6.30179,-6.470173 11.64773,-2.421577 5.89963,4.467907 6.82638,3.479597 6.82638,-7.279777 0,-5.543697 -0.99548,-9.251884 -3.05515,-11.380475 -7.03447,-7.269861 -9.96478,-11.384259 -10.03306,-14.087223 -0.0398,-1.577463 -1.83503,-2.868114 -3.98931,-2.868114 -2.30346,0 -3.91686,-1.316577 -3.91686,-3.196253 0,-1.757938 -1.11521,-3.822982 -2.47826,-4.588983 -3.60323,-2.024944 -3.78872,-1.86183 -3.78872,3.331666 0,2.766336 -0.69361,4.0966 -1.67355,3.209648 -0.92046,-0.833112 -1.36274,-2.700959 -0.98285,-4.150775 0.8494,-3.241675 -10.15632,-3.664815 -11.73261,-0.451085 -1.8484,3.768521 0.31185,5.910961 4.69288,4.654183 4.06155,-1.165133 4.0809,-1.124101 0.53958,1.144943 -2.02012,1.294359 -4.0412,4.415671 -4.49128,6.936248 -1.06041,5.938539 -3.58636,5.934233 -3.58636,-0.0061 0,-10.672824 -9.3816,-1.00892 -14.24459,14.673217 -1.60643,5.180421 -2.84025,12.51651 -2.74183,16.302417 0.12739,4.90021 0.3678,5.47185 0.83438,1.98404 0.84121,-6.288128 12.70646,-11.832666 17.17731,-8.026814 2.66023,2.264549 2.67222,2.467079 0.1498,2.531268 -1.508,0.03838 -2.74181,1.102299 -2.74181,2.364269 0,1.261967 1.41007,2.294487 3.13349,2.294487 2.80456,0 4.02107,-3.681247 3.27966,-9.924505 -0.36203,-3.04862 6.16331,0.808781 9.40896,5.562038 1.63835,2.39936 2.97882,5.394987 2.97882,6.656957 0,1.26197 1.09917,2.29449 2.44259,2.29449 1.34342,0 2.00294,1.04177 1.46561,2.31503 -1.81011,4.28922 0.73936,10.36682 6.13323,14.62088 2.94761,2.32473 6.12434,3.53432 7.05939,2.68799 0.93506,-0.84634 1.75579,-0.18721 1.82381,1.46474 0.10184,2.47194 0.2689,2.47241 0.94415,0.003 0.45126,-1.65048 -0.31098,-4.83184 -1.69385,-7.06968 z M 229.45571,74.40559 c 0,-1.26197 0.70503,-2.932624 1.56674,-3.712565 0.86171,-0.779942 1.56675,-0.385553 1.56675,0.876418 0,1.26197 -0.70504,2.932624 -1.56675,3.712565 -0.86171,0.779942 -1.56674,0.385553 -1.56674,-0.876418 z m -49.18926,41.65144 c -0.52061,-0.76243 -0.89091,0.59275 -0.82288,3.01153 0.0752,2.67295 0.44643,3.21664 0.94657,1.38625 0.45259,-1.65633 0.39693,-3.63533 -0.12369,-4.39778 z m 60.82357,-11.33031 c 0.55131,-2.10398 0.45047,-4.61577 -0.22406,-5.581757 -1.71765,-2.459842 -7.25272,3.970417 -5.99107,6.960017 1.56541,3.70943 5.08664,2.92857 6.21513,-1.37826 z M 196.76406,54.279092 c -1.47404,-3.713915 -1.68733,-3.401557 -1.72909,2.532258 -0.0348,4.936199 0.42048,6.083175 1.68145,4.236492 1.23921,-1.814817 1.25271,-3.732539 0.0476,-6.76875 z M 215.355,50.288084 c 0,-0.495969 -1.05755,-1.496084 -2.35011,-2.22248 -1.29257,-0.726395 -2.35012,-0.320602 -2.35012,0.901761 0,1.222364 1.05755,2.22248 2.35012,2.22248 1.29256,0 2.35011,-0.405792 2.35011,-0.901761 z M 460.85426,403.07429 c -0.55104,-0.807 -0.61983,-2.37262 -0.15291,-3.47916 1.00144,-2.37301 3.76601,-0.32685 3.76601,2.78737 0,2.46679 -2.1235,2.87337 -3.61315,0.69179 z m -90.39153,-46.65812 c 0,-1.22958 2.02166,-3.76662 4.49259,-5.63791 3.72707,-2.82257 4.96939,-2.89177 7.29061,-0.40604 2.5668,2.74869 2.37042,3.21459 -2.37626,5.63791 -6.32641,3.2298 -9.40694,3.36276 -9.40694,0.40604 z M 160.93072,96.710294 c -0.18997,-3.693289 0.19217,-4.252918 1.54809,-2.267171 1.18575,1.736522 1.27185,3.41049 0.25223,4.90373 -1.01962,1.493227 -1.63419,0.5932 -1.80032,-2.636559 z m -1.03605,-10.176029 c -0.96319,-3.675905 3.4354,-16.988486 5.61314,-16.988486 0.64887,0 0.80131,-1.444341 0.33876,-3.209648 -0.46256,-1.765308 -0.041,-3.93374 0.93678,-4.818744 2.9593,-2.678489 3.59719,0.495447 1.70076,8.46245 -1.49599,6.284764 -1.38723,7.991226 0.64827,10.170975 2.18302,2.337718 2.18836,2.763906 0.0497,3.965788 -1.31789,0.740628 -2.39616,0.346482 -2.39616,-0.875883 0,-1.222363 -1.41007,-2.222479 -3.13349,-2.222479 -3.4061,0 -4.29535,3.639389 -1.25223,5.124935 1.3239,0.64628 1.37254,1.378822 0.16417,2.472521 -0.9444,0.854784 -2.14577,-0.08187 -2.6697,-2.081429 z m 10.89248,-12.199579 c -0.57897,-1.371927 -0.26442,-2.494415 0.699,-2.494415 0.96342,0 1.25412,-1.290652 0.64599,-2.868115 -0.88455,-2.294492 -0.6837,-2.294492 1.00426,0 1.51937,2.065327 1.6332,3.566303 0.40668,5.36253 -1.22651,1.796227 -1.9979,1.796227 -2.75593,0 z m 4.58561,-4.928504 c -1.38983,-6.41298 -0.29744,-7.581785 2.01591,-2.156919 1.06157,2.489425 1.25363,4.933461 0.44518,5.665197 -0.78203,0.707816 -1.88951,-0.870909 -2.46109,-3.508278 z m 5.63755,-21.466867 c -0.068,-2.418777 0.30227,-3.773961 0.82289,-3.01152 0.52061,0.76244 0.57627,2.741439 0.12369,4.397775 -0.50014,1.830392 -0.8714,1.286697 -0.94657,-1.386255 z"
       style="fill:#1e311e;fill-opacity:1"
       sodipodi:nodetypes="cscsccsscscssssscscccscsssscssssssssssscscscsccccccssssscssscsssccccscsssssscssssssccccsscccsssscssccccccsssssssssssssssccscsscssscsscsssssssscccssssssssssssssscsscccssssssssssssscsccsssscssssccsssssssssssssscsssssccsssssssssssscssssscssscsssssssssssssccsscscsssccsssssssssssssssscssssssssssssssssssscssssssssssccsccsssssssssssssssssssssssssssssssssssssssssssssscsssssscsssssssssssssssssssssssssccccsssssssssssssccsccsssssccsccssssssssssssssssssssssssssssssscsscc" />
    <path
       inkscape:connector-curvature="0"
       id="path9293"
       d="m 467.92412,438.41859 c -0.032,-24.01988 0.26581,-27.46699 2.06219,-23.86913 1.15479,2.3128 1.76342,5.4881 1.35254,7.05622 -0.41089,1.5681 0.34257,4.17547 1.67435,5.79415 1.33178,1.61867 2.42142,4.82072 2.42142,7.11567 0,2.29493 0.5514,4.6717 1.22534,5.28167 0.67393,0.60999 1.38982,6.86606 1.59087,13.90237 l 0.36555,12.79331 -5.32742,0 -5.32743,0 z m -47.32556,23.6207 c 0,-1.33645 0.70503,-2.42992 1.56674,-2.42992 0.86171,0 1.56675,0.45532 1.56675,1.01183 0,0.5565 -0.70504,1.64997 -1.56675,2.42991 -0.86171,0.77994 -1.56674,0.32463 -1.56674,-1.01182 z m 6.51435,-2.42992 c 0,-3.15492 0.35562,-4.44557 0.79025,-2.86811 0.43463,1.57746 0.43463,4.15876 0,5.73623 -0.43463,1.57746 -0.79025,0.28681 -0.79025,-2.86812 z m 0.79713,-10.70763 c -1.81721,-2.66127 -1.13241,-7.10793 1.30561,-8.47806 1.69787,-0.95416 2.35012,0.25132 2.35012,4.3435 0,5.50772 -1.5337,7.24229 -3.65573,4.13456 z M 252.1735,418.30852 c -3.25296,-3.78591 -6.38962,-6.88347 -6.97035,-6.88347 -0.58074,0 -2.46309,-1.80692 -4.183,-4.01536 -5.72107,-7.34612 -29.08588,-24.6149 -50.06056,-36.99944 -14.83573,-8.75977 -16.7545,-9.31096 -36.75577,-10.55836 -11.6066,-0.72386 -32.03096,-2.37406 -45.38745,-3.6671 -22.086018,-2.13814 -25.40337,-1.94692 -36.642853,2.11231 l -12.358307,4.46329 0.971962,-16.3949 c 0.534579,-9.01719 2.404588,-22.07377 4.155577,-29.01461 l 3.183615,-12.6197 -3.931759,6.88348 -3.93176,6.88347 -18.0078,-143.83211 4.9922,-152.832109 69.442825,4 56.44283,7 -8.27152,14.340573 c -11.51167,19.958093 -17.90605,35.321705 -20.29321,48.75795 -1.12105,6.309846 -2.90347,12.803886 -3.96095,14.431186 -1.05747,1.6273 -1.83627,6.32466 -1.73066,10.43857 0.10559,4.11391 -0.89059,10.01013 -2.21377,13.10271 -1.32317,3.09258 -2.85965,8.48596 -3.41439,11.98529 -0.55474,3.49932 -3.6939,12.79202 -6.97592,20.65042 -13.84057,33.13968 -12.04897,31.81896 5.51827,-4.06792 19.25365,-39.33194 20.06172,-41.08881 18.06906,-39.28525 -1.03117,0.93333 -1.87487,0.60351 -1.87487,-0.73294 0,-2.16824 2.32255,-3.35361 3.63709,-1.85628 0.27698,0.31549 1.59181,-0.97516 2.92186,-2.86812 1.33004,-1.89295 6.03867,-8.41676 10.46362,-14.49735 4.42494,-6.080592 8.05661,-11.759459 8.07037,-12.619705 0.0138,-0.860249 2.09008,-4.994624 4.61403,-9.187503 2.52395,-4.192878 5.79064,-12.453049 7.25931,-18.355934 1.46867,-5.902885 3.93544,-15.120733 5.48172,-20.484107 l 2.8114,-9.75159 141.66187,-9 143.66186,0 10,186.153889 -10,177.15391 -5.44522,-8.45447 c -2.99486,-4.64997 -7.93011,-9.97501 -10.96721,-11.83343 -3.03709,-1.8584 -5.52199,-4.46414 -5.52199,-5.79049 0,-1.32638 -1.46743,-4.56063 -3.26096,-7.18725 -2.90622,-4.25614 -3.54536,-4.4057 -5.8753,-1.37474 -2.98684,3.88549 -24.57508,5.8842 -32.67161,3.02483 -2.75311,-0.97229 -7.58036,-0.71432 -10.77024,0.57555 -5.50228,2.22494 -6.19367,1.84514 -14.34687,-7.8814 -4.71131,-5.62045 -9.9435,-10.219 -11.62709,-10.219 -1.68361,0 -4.96788,2.81759 -7.29841,6.26132 -3.47866,5.14029 -5.67825,6.28845 -12.28505,6.41267 -6.06409,0.11404 -9.34658,1.57992 -13.31733,5.94733 -7.70602,8.47578 -8.863,9.2409 -9.97805,6.59868 -0.55446,-1.31383 -0.42691,-2.24092 0.28342,-2.06023 3.23719,0.82357 3.0967,-1.04599 -1.00762,-13.40818 -2.40915,-7.25633 -7.46013,-17.9039 -11.22441,-23.66126 -3.76427,-5.75736 -8.75224,-13.50127 -11.08439,-17.20869 -5.12523,-8.1476 -12.94167,-17.06597 -14.95733,-17.06597 -0.8073,0 -2.74391,-2.06504 -4.30358,-4.58898 -1.55968,-2.52394 -3.47288,-4.58898 -4.25157,-4.58898 -2.62851,0 -14.02293,-14.76641 -35.09444,-45.48006 -18.83311,-27.45098 -23.35798,-36.11823 -22.45176,-43.0058 0.90249,-6.85932 -0.27044,-12.86059 -2.29155,-11.72476 -1.21162,0.6809 -3.46007,-0.79637 -4.99657,-3.28282 -2.33234,-3.77432 -3.00281,-3.97345 -4.06038,-1.2059 -2.00292,5.2415 -7.24486,1.76228 -8.33927,-5.53503 -1.89707,-12.64927 4.75179,-20.39971 9.75714,-11.3737 1.15252,2.07832 1.92834,2.39065 1.95844,0.78844 0.0675,-3.59497 6.5758,-1.16314 9.0586,3.38476 1.7554,3.21546 2.20092,3.12562 4.29731,-0.86654 1.28638,-2.44964 2.7843,-7.03521 3.32869,-10.19013 0.54439,-3.15493 2.66455,-8.10119 4.71147,-10.99169 2.81024,-3.96842 3.72166,-7.72818 3.72166,-15.35241 0,-5.55332 -0.70503,-10.73507 -1.56674,-11.51502 -2.30255,-2.08405 -1.90869,-8.03072 0.53188,-8.03072 2.26416,0 5.7351,-9.341 5.7351,-15.434321 0,-2.06027 -1.93324,-9.741714 -4.2961,-17.069878 -3.10181,-9.619946 -5.49731,-13.937184 -8.61709,-15.529914 -2.37655,-1.213291 -4.321,-3.292214 -4.321,-4.619832 0,-1.327617 -2.51397,-2.41385 -5.58661,-2.41385 -3.07264,0 -7.02769,-1.129486 -8.78901,-2.509968 -1.76134,-1.380483 -8.14195,-2.621439 -14.17915,-2.757681 -12.48596,-0.281771 -15.31409,2.678821 -15.31409,16.031408 0,5.175529 -0.73855,7.592175 -2.32026,7.592175 -2.86602,0 -5.24073,11.98801 -2.62742,13.263736 2.36442,1.154231 2.30591,7.21572 -0.14424,14.942068 -1.59568,5.031877 -3.00845,6.179077 -7.62743,6.193667 -5.45056,0.0172 -5.71118,0.39366 -6.76356,9.76949 -0.60201,5.36338 -1.09117,11.5585 -1.08704,13.76695 0.004,2.20845 -0.65369,4.01536 -1.46184,4.01536 -2.15961,0 -1.79233,5.45206 0.87109,12.93105 1.28725,3.61468 2.34481,8.31811 2.35011,10.45208 0.005,2.13397 0.71469,4.51808 1.5764,5.29802 0.86171,0.77994 1.56675,6.31324 1.56675,12.29622 0,11.51611 1.95536,16.38493 6.58033,16.38493 1.55107,0 2.82014,0.86725 2.82014,1.92723 0,1.05998 2.82014,3.29029 6.26697,4.95624 3.44684,1.66595 6.26698,4.16047 6.26698,5.54337 0,2.52314 3.82771,5.38465 14.18,10.60069 4.65776,2.34683 6.34621,2.20967 10.37703,-0.84296 l 4.81414,-3.64584 13.74118,23.06641 c 7.55766,12.68652 16.54992,26.84256 19.9828,31.45786 3.43287,4.61529 10.26324,14.07032 15.17859,21.01116 4.91534,6.94084 12.22822,17.21348 16.25082,22.82813 4.02262,5.61462 7.31385,11.4376 7.31385,12.93997 0,1.50234 2.45126,6.71751 5.44726,11.58924 2.99599,4.87174 5.46361,10.14836 5.4836,11.72582 0.0201,1.57746 0.56513,2.87516 1.21141,2.88379 0.64628,0.009 2.85227,3.62245 4.90219,8.03072 2.04992,4.40827 4.8167,8.01505 6.1484,8.01505 1.86316,0 1.59221,1.29242 -1.17551,5.60696 -4.01046,6.25182 -13.93539,13.87733 -15.35537,11.79779 -0.50449,-0.73883 -0.0948,-1.34331 0.91061,-1.34331 1.00533,0 1.82788,-1.10209 1.82788,-2.44912 0,-1.347 -1.29179,-1.84867 -2.87063,-1.1148 -3.80968,1.77077 -8.75706,-6.25639 -7.6561,-12.42208 0.4581,-2.56542 0.15229,-4.66443 -0.67964,-4.66443 -0.83189,0 -1.09451,-0.99053 -0.58361,-2.20115 2.87388,-6.80996 -7.72007,-16.11043 -18.38694,-16.14198 -5.32375,-0.0161 -16.06427,7.20303 -22.16104,14.8946 -2.50373,3.15867 -5.39085,5.74303 -6.41583,5.74303 -2.26577,0 -6.17218,6.39011 -7.6817,12.56571 -1.0208,4.17618 -0.8135,4.12915 2.61989,-0.59459 2.05062,-2.82129 4.18783,-4.45678 4.74935,-3.63443 0.56154,0.82237 2.06668,0.22417 3.34477,-1.3292 1.48145,-1.8006 4.14922,-2.23725 7.35958,-1.20463 l 5.03576,1.61979 -4.7835,2.94558 c -6.20014,3.81787 -7.4673,7.07107 -4.01757,10.31441 2.49584,2.34653 2.50419,2.4861 0.0832,1.38849 -1.4804,-0.67117 -3.0588,-0.35026 -3.50757,0.71312 -0.44876,1.06339 0.70217,2.51481 2.55761,3.22542 2.62102,1.00377 2.98291,1.98122 1.62242,4.38195 -0.96309,1.6995 -1.64259,5.19952 -1.50996,7.77782 0.2011,3.91 1.55371,2.72333 8.1521,-7.15207 8.83111,-13.21701 17.67871,-18.34664 24.44805,-14.17447 3.40176,2.09661 2.83331,2.50783 -5.07732,3.6732 -5.29373,0.77983 -10.6186,3.18271 -13.12423,5.92238 -5.22058,5.70822 -11.4297,22.68654 -11.93842,32.64468 -0.20952,4.1014 -0.48655,7.4571 -0.61562,7.4571 -0.1291,0 -2.89619,-3.09757 -6.14916,-6.88348 z M 129.54636,339.47648 c 1.88705,1.70798 0.1726,-10.95014 -1.75054,-12.92464 -0.62689,-0.64363 -2.06659,-4.52593 -3.19935,-8.62733 -1.13276,-4.10141 -2.51752,-7.4571 -3.07726,-7.4571 -0.55974,0 -2.75084,-4.64635 -4.86912,-10.32521 -4.16078,-11.15458 -5.67202,-12.57306 -6.72252,-6.30986 -0.37041,2.20845 -0.3875,0.65967 -0.038,-3.44173 0.36227,-4.2508 -0.0687,-7.4571 -1.00223,-7.4571 -0.90076,0 -1.63774,-0.84917 -1.63774,-1.88704 0,-1.03787 -2.16068,-7.72931 -4.80152,-14.86989 l -4.801531,-12.98286 -3.97778,3.81698 c -3.391785,3.25467 -12.64476,19.80104 -16.869877,30.16709 -2.332128,5.72173 4.2567,-0.94641 9.883054,-10.00201 l 5.283633,-8.50401 3.531628,5.57784 c 1.942393,3.06781 4.048305,7.96189 4.679803,10.87576 0.89135,4.11287 1.45496,4.58857 2.51965,2.12667 1.07354,-2.48239 1.37668,-2.51882 1.39546,-0.16773 0.0132,1.65194 0.65535,2.43207 1.42701,1.73365 1.90301,-1.72243 3.1358,17.82155 1.24149,19.68197 -0.8256,0.81085 -0.0885,2.58142 1.63806,3.93464 1.72654,1.35322 3.58437,1.80838 4.12853,1.01146 0.54415,-0.79695 0.98937,-0.18342 0.98937,1.36336 0,1.54679 0.65428,2.22013 1.45395,1.49635 0.79967,-0.72379 1.90473,0.76405 2.45569,3.30632 0.55097,2.54227 1.73571,4.6223 2.63277,4.6223 0.93654,0 1.23158,2.33065 0.69293,5.47369 -0.93484,5.45486 2.19232,12.07759 4.26771,9.03819 0.567,-0.83038 1.08657,-0.047 1.1546,1.74076 0.0896,2.35495 0.34231,2.45637 0.91719,0.36813 0.43642,-1.58533 1.54114,-2.20572 2.45492,-1.37865 z M 110.38311,216.18431 c 0,-1.06784 -1.05755,-1.34721 -2.35012,-0.62081 -1.29256,0.72639 -2.35011,2.88546 -2.35011,4.79792 0,2.83069 0.43695,2.94612 2.35011,0.62081 1.29257,-1.57101 2.35012,-3.73008 2.35012,-4.79792 z m 150.40749,166.9042 c 0,-0.53024 1.8494,-2.73871 4.10976,-4.90771 2.26037,-2.16899 3.63118,-2.80956 3.04624,-1.42346 -1.11781,2.64874 -7.156,7.99096 -7.156,6.33117 z m 13.04694,-15.58933 c 0.65937,-3.69262 0.43142,-4.26484 -0.91399,-2.29449 -0.98584,1.44376 -2.49122,2.62501 -3.34528,2.62501 -0.85407,0 -0.18428,-1.51594 1.4884,-3.36877 3.4235,-3.79215 9.45294,-4.5899 10.78761,-1.42727 1.71955,4.07465 -1.08881,9.38503 -4.96322,9.38503 -3.24867,0 -3.77931,-0.85491 -3.05352,-4.91951 z m -6.77996,-11.14194 c -3.49564,-1.6395 -3.28503,-1.86165 1.95843,-2.06577 3.23141,-0.12574 5.87529,0.8038 5.87529,2.06577 0,2.62667 -2.23331,2.62667 -7.83372,0 z m 21.15105,-4.58898 c 0.53257,-1.26197 1.67333,-2.29449 2.53504,-2.29449 0.86171,0 1.13102,1.03252 0.59845,2.29449 -0.53257,1.26197 -1.67333,2.29449 -2.53504,2.29449 -0.86171,0 -1.13102,-1.03252 -0.59845,-2.29449 z M 213.78826,114.42378 c 0,-0.55651 0.70503,-1.64997 1.56674,-2.42991 0.86171,-0.77994 1.56675,-0.32461 1.56675,1.01184 0,1.33644 -0.70504,2.4299 -1.56675,2.4299 -0.86171,0 -1.56674,-0.45532 -1.56674,-1.01183 z M 201.2543,102.87327 c 0,-2.57252 1.18392,-3.037607 4.93535,-1.93882 3.59785,1.05381 5.44277,0.42931 6.80769,-2.304387 1.69082,-3.386406 2.22613,-3.198441 5.5216,1.938807 l 3.64926,5.68877 -10.45695,0 c -8.1718,0 -10.45695,-0.73958 -10.45695,-3.38437 z M 158.9522,83.408488 c 0,-1.339341 1.37395,-4.158021 3.05323,-6.263733 1.67927,-2.105713 2.69521,-4.676911 2.25765,-5.713773 -0.43757,-1.036861 -0.0489,-1.885203 0.86363,-1.885203 2.70062,0 1.91598,3.513135 -2.25765,10.108381 -2.15428,3.404223 -3.91686,5.093671 -3.91686,3.754328 z m 7.05035,-18.451693 c -0.53257,-1.26197 -0.22166,-2.294491 0.6909,-2.294491 0.91257,0 1.65921,1.032521 1.65921,2.294491 0,1.261971 -0.3109,2.294492 -0.6909,2.294492 -0.38,0 -1.12665,-1.032521 -1.65921,-2.294492 z"
       style="fill:#040101"
       sodipodi:nodetypes="ssssscscccsssssssssssssscsssssscsscccccccssssssssssssscssscccccssssssssssssscssssssssssssscsssssssssssssssssssscsscsssssssscssssssccsssssssssscssssscscsssccsssssssscccssssssssscssscssssssscssssssssccssssssssssssssssscsssssssssssssssscsssssssssssss" />
  </g>
</svg>
