<?xml version="1.0" encoding="UTF-8" standalone="no"?>
<svg
   xmlns:dc="http://purl.org/dc/elements/1.1/"
   xmlns:cc="http://creativecommons.org/ns#"
   xmlns:rdf="http://www.w3.org/1999/02/22-rdf-syntax-ns#"
   xmlns:svg="http://www.w3.org/2000/svg"
   xmlns="http://www.w3.org/2000/svg"
   xmlns:sodipodi="http://sodipodi.sourceforge.net/DTD/sodipodi-0.dtd"
   xmlns:inkscape="http://www.inkscape.org/namespaces/inkscape"
   viewBox="0 0 512 512"
   id="svg12293"
   version="1.1"
   inkscape:version="0.48.5 r10040"
   width="100%"
   height="100%"
   sodipodi:docname="speed shot.svg">
  <metadata
     id="metadata12327">
    <rdf:RDF>
      <cc:Work
         rdf:about="">
        <dc:format>image/svg+xml</dc:format>
        <dc:type
           rdf:resource="http://purl.org/dc/dcmitype/StillImage" />
        <dc:title></dc:title>
      </cc:Work>
    </rdf:RDF>
  </metadata>
  <defs
     id="defs12325" />
  <sodipodi:namedview
     pagecolor="#ffffff"
     bordercolor="#666666"
     borderopacity="1"
     objecttolerance="10"
     gridtolerance="10"
     guidetolerance="10"
     inkscape:pageopacity="0"
     inkscape:pageshadow="2"
     inkscape:window-width="1280"
     inkscape:window-height="692"
     id="namedview12323"
     showgrid="false"
     inkscape:zoom="1"
     inkscape:cx="350.97303"
     inkscape:cy="229.02582"
     inkscape:window-x="0"
     inkscape:window-y="0"
     inkscape:window-maximized="1"
     inkscape:current-layer="svg12293" />
  <path
     d="m0,0h512v512h-512z"
     id="path12295" />
  <path
     inkscape:connector-curvature="0"
     id="path12301"
     d="M 389.747,392.72412 C 351.00232,431.4688 238.94941,382.23375 139.46922,282.75357 39.989039,183.27338 -9.2448371,71.221645 29.499843,32.476965 68.244522,-6.2677148 180.29743,42.967334 279.77644,142.44635 379.25546,241.92536 428.49168,353.97944 389.747,392.72412 z" />
  <path
     style="fill:#a05a2c"
     inkscape:connector-curvature="0"
     id="path12305"
     d="m 73.098126,16.403702 11.5701,68.970204 -69.577583,-10.962721 49.33972,71.263295 74.987927,-5.54864 5.55051,-74.989797 z" />
  <path
     style="fill:#808080;stroke:#000000;stroke-width:18.68857956000000087"
     inkscape:connector-curvature="0"
     id="path12303"
     d="M 119.44394,94.133244 92.341757,121.23729 345.68228,398.14224 287.35522,414.04996 491.7952,493.58856 412.25848,288.55989 397.53001,346.29638 119.4458,94.133244 z" />
  <path
     style="fill:#ffffff"
     inkscape:connector-curvature="0"
     id="path12319-5-7-2"
     d="m 267.75152,359.99587 c -44.78231,-25.49716 -86.1901,-55.81209 -116.57116,-83.94237 33.87907,50.67573 98.85871,109.45785 169.89763,149.90601 z" />
  <path
     d="m 348.67708,267.46472 c -26.28614,-44.32381 -57.32954,-85.18831 -85.99338,-115.06649 51.2677,32.97642 111.19121,96.905 152.89095,167.21655 z"
     id="path4037"
     inkscape:connector-curvature="0"
     style="fill:#ffffff" />
  <path
     d="m 207.75152,273.99587 c -44.78231,-25.49716 -86.1901,-55.81209 -116.57116,-83.94237 33.87907,50.67573 98.85871,109.45785 169.89763,149.90601 z"
     id="path4039"
     inkscape:connector-curvature="0"
     style="fill:#ffffff" />
  <path
     style="fill:#ffffff"
     inkscape:connector-curvature="0"
     id="path4041"
     d="M 146.75152,188.99587 C 101.96921,163.49871 60.56142,133.18378 30.18036,105.0535 c 33.87907,50.67573 98.85871,109.45785 169.89763,149.90601 z" />
  <path
     style="fill:#ffffff"
     inkscape:connector-curvature="0"
     id="path4045"
     d="M 263.67708,209.46472 C 237.39094,165.14091 206.34754,124.27641 177.6837,94.39823 c 51.2677,32.97642 111.19121,96.905 152.89095,167.21655 z" />
  <path
     d="M 175.67708,144.46472 C 149.39094,100.14091 118.34754,59.27641 89.6837,29.39823 c 51.2677,32.97642 111.19121,96.905 152.89095,167.21655 z"
     id="path4047"
     inkscape:connector-curvature="0"
     style="fill:#ffffff" />
</svg>
