<?xml version="1.0" encoding="UTF-8" standalone="no"?>
<svg
   xmlns:dc="http://purl.org/dc/elements/1.1/"
   xmlns:cc="http://creativecommons.org/ns#"
   xmlns:rdf="http://www.w3.org/1999/02/22-rdf-syntax-ns#"
   xmlns:svg="http://www.w3.org/2000/svg"
   xmlns="http://www.w3.org/2000/svg"
   xmlns:sodipodi="http://sodipodi.sourceforge.net/DTD/sodipodi-0.dtd"
   xmlns:inkscape="http://www.inkscape.org/namespaces/inkscape"
   viewBox="0 0 512 512"
   id="svg3822"
   version="1.1"
   inkscape:version="0.48.4 r9939"
   width="100%"
   height="100%"
   sodipodi:docname="stone hammer.svg">
  <sodipodi:namedview
     pagecolor="#ffffff"
     bordercolor="#666666"
     borderopacity="1"
     objecttolerance="10"
     gridtolerance="10"
     guidetolerance="10"
     inkscape:pageopacity="0"
     inkscape:pageshadow="2"
     inkscape:window-width="1549"
     inkscape:window-height="1362"
     id="namedview3836"
     showgrid="false"
     inkscape:zoom="2.6074563"
     inkscape:cx="188.6851"
     inkscape:cy="254.98669"
     inkscape:window-x="72"
     inkscape:window-y="0"
     inkscape:window-maximized="0"
     inkscape:current-layer="svg3822" />
  <metadata
     id="metadata3840">
    <rdf:RDF>
      <cc:Work
         rdf:about="">
        <dc:format>image/svg+xml</dc:format>
        <dc:type
           rdf:resource="http://purl.org/dc/dcmitype/StillImage" />
        <dc:title />
      </cc:Work>
    </rdf:RDF>
  </metadata>
  <defs
     id="defs3838">
    <linearGradient
       id="linearGradient4388">
      <stop
         id="stop4390"
         offset="0"
         style="stop-color:#fbbb6d;stop-opacity:1;" />
      <stop
         id="stop4392"
         offset="1"
         style="stop-color:#c69251;stop-opacity:1;" />
    </linearGradient>
    <filter
       id="filter3068"
       x="0"
       y="0"
       width="1"
       height="1"
       inkscape:label="Quadritone fantasy"
       inkscape:menu="Color"
       inkscape:menu-tooltip="Replace hue by two colors"
       color-interpolation-filters="sRGB">
      <feFlood
         id="feFlood3070"
         result="result1"
         flood-opacity="0"
         flood-color="rgb(128,128,128)" />
      <feBlend
         id="feBlend3072"
         in2="SourceGraphic"
         mode="normal"
         result="result2" />
      <feComposite
         id="feComposite3074"
         in2="SourceGraphic"
         k2="1"
         operator="arithmetic"
         result="result3" />
      <feComposite
         id="feComposite3076"
         in2="SourceGraphic"
         operator="in"
         result="fbSourceGraphic" />
      <feColorMatrix
         result="fbSourceGraphicAlpha"
         in="fbSourceGraphic"
         values="0 0 0 -1 0 0 0 0 -1 0 0 0 0 -1 0 0 0 0 1 0"
         id="feColorMatrix3098" />
      <feColorMatrix
         id="feColorMatrix3100"
         type="saturate"
         values="1"
         result="result2"
         in="fbSourceGraphic" />
      <feColorMatrix
         id="feColorMatrix3102"
         result="result1"
         values="50"
         type="hueRotate"
         in="result2" />
      <feColorMatrix
         id="feColorMatrix3104"
         values="1 -1 1 0 0 0 1 0 0 0 1 -1 1 0 0 0 0 0 1 0 "
         type="matrix" />
      <feColorMatrix
         id="feColorMatrix3106"
         values="300"
         type="hueRotate" />
    </filter>
  </defs>
  <path
     id="path3824"
     d="m0,0h512v512h-512z" />
  <path
     id="path3844"
     d="M 7.5663737e-7,1.0847455 H 512 V 513.08475 H 7.5663737e-7 z"
     inkscape:connector-curvature="0" />
  <path
     style="fill-rule:evenodd"
     inkscape:connector-curvature="0"
     d="m 189.27659,44.752101 88.45118,68.592699 -22.18335,22.33285 79.65821,60.57529 -149.42081,-46.49345 30.58386,-29.38779 -84.1229,-26.590109 57.03194,-49.02949 z"
     id="path3854" />
  <g
     id="g3024"
     style="filter:url(#filter3068)">
    <path
       inkscape:connector-curvature="0"
       id="path3032"
       d="m 356.79366,477.70133 c -2.3823,-1.17427 -2.83014,-1.97494 -25.82234,-46.16709 -10.46747,-20.119 -22.69802,-43.6221 -27.17899,-52.22911 -7.03625,-13.51517 -7.96303,-15.74638 -6.79645,-16.36242 0.74294,-0.39232 1.35078,-1.0055 1.35078,-1.3626 0,-0.35712 -7.54916,-15.11903 -16.77591,-32.80425 -45.21456,-86.66426 -58.4788,-111.73548 -59.87981,-113.18097 -1.67686,-1.7301 -5.30354,-8.31147 -6.28604,-11.40731 -1.21116,-3.8164 -3.81224,-8.65334 -4.65335,-8.65334 -0.8796,0 -7.44353,-12.42303 -7.44353,-14.08779 0,-1.36977 -2.44785,-5.71557 -4.29544,-7.62593 -0.87966,-0.90954 -2.90299,-4.22051 -4.49629,-7.35772 -1.77624,-3.49742 -3.29669,-5.55962 -3.93038,-5.3308 -5.69961,2.05814 -23.75061,6.96751 -36.65918,9.97028 l -10.61552,2.46935 -7.72527,-2.06244 c -4.2489,-1.13434 -8.95515,-2.35274 -10.45834,-2.70755 -4.81469,-1.13644 -4.61944,-0.84359 -16.00577,-24.0074 -1.27608,-2.596 -3.49053,-6.99523 -4.92099,-9.77607 -1.43047,-2.78084 -2.60085,-5.79279 -2.60085,-6.69324 0,-1.67113 1.91999,-4.67656 13.60132,-21.29069 8.89664,-12.65351 11.30836,-15.353924 17.61464,-19.723242 5.32485,-3.689332 5.36479,-3.745523 5.27598,-7.424067 -0.11201,-4.640523 2.15159,-7.878602 7.08199,-10.130797 3.64041,-1.66293 9.12287,-1.684004 12.36337,-0.04752 1.10748,0.559286 1.8196,0.292497 2.97962,-1.116291 3.2669,-3.967491 9.29272,-6.717396 25.75886,-11.755158 25.75442,-7.879478 31.94895,-9.481854 33.64568,-8.703323 3.17754,1.457991 16.02913,15.250008 18.71525,20.084771 1.5245,2.743933 5.12665,9.236968 8.0048,14.428968 2.87814,5.192 6.49799,11.641255 8.0441,14.331677 1.54611,2.690423 2.81112,5.272044 2.81112,5.736924 0,1.24089 -5.57298,8.22615 -17.80396,22.31576 -7.7961,8.98082 -12.11399,13.25808 -15.36513,15.22053 -4.28566,2.58693 -4.4906,2.85903 -3.92345,5.20897 1.04007,4.30946 0.8741,5.5244 -0.87061,6.37321 -0.93412,0.45444 -2.68709,1.53426 -3.89548,2.3996 l -2.19708,1.57333 2.01972,3.88332 c 1.11085,2.13583 2.01972,4.55079 2.01972,5.36659 0,1.37018 3.80726,8.33731 5.04752,9.23676 1.07579,0.78016 6.62389,12.13295 6.62389,13.55412 0,1.64398 2.90056,7.33984 4.09139,8.03432 1.12106,0.65378 5.91268,10.14704 5.91268,11.7143 0,0.72514 17.14094,33.70765 38.09098,73.29451 35.52788,67.13289 38.23456,71.9779 40.22469,72.0031 1.98608,0.0252 4.16689,3.87706 31.52066,55.67424 16.75194,31.72153 29.38695,56.55802 29.38695,57.7656 0,3.08002 -4.19709,7.13199 -9.77321,9.43527 -6.20003,2.56099 -9.45552,3.09334 -11.81234,1.93163 z"
       style="fill:#987147" />
    <path
       inkscape:connector-curvature="0"
       id="path3030"
       d="m 356.85906,477.87268 c -1.50536,-0.54486 -6.46022,-9.37867 -22.56765,-40.23495 -41.28187,-79.08182 -38.37376,-73.23364 -37.09891,-74.60543 0.63479,-0.68307 1.15416,-1.51658 1.15416,-1.85223 0,-0.63427 -7.07301,-14.28619 -37.31981,-72.03249 -9.85821,-18.821 -22.56049,-43.1585 -28.22731,-54.08334 -5.66681,-10.92483 -10.66237,-19.86333 -11.10126,-19.86333 -0.83711,0 -5.88518,-9.40144 -5.88518,-10.96048 0,-1.3092 -3.2737,-7.26163 -5.00453,-9.09952 -2.11713,-2.24807 -6.51755,-10.32192 -7.4977,-13.75669 -0.45814,-1.60546 -1.75825,-4.12298 -2.88913,-5.59449 -1.1309,-1.47152 -3.59061,-5.44946 -5.46604,-8.83989 -1.98508,-3.58864 -3.82634,-6.01402 -4.40658,-5.80451 -5.82803,2.10429 -24.5304,7.14995 -38.31665,10.33734 l -8.97511,2.07505 -7.69834,-2.05549 c -4.2341,-1.13052 -8.92823,-2.34578 -10.43142,-2.70059 -4.04638,-0.95509 -5.16187,-2.13515 -8.56491,-9.06073 -2.87904,-5.85915 -8.2291,-16.61308 -12.95284,-26.03591 -3.16966,-6.32279 -3.905452,-4.62981 11.59146,-26.67076 8.89696,-12.653961 11.30831,-15.353898 17.61602,-19.724198 5.32901,-3.692214 5.36662,-3.745183 5.33567,-7.515021 -0.036,-4.387232 2.16076,-7.590314 6.61782,-9.649359 3.14731,-1.453971 9.49801,-1.666643 12.00234,-0.401935 1.44261,0.728527 2.05636,0.50346 3.94336,-1.446059 3.75362,-3.877959 9.62343,-6.548544 24.93155,-11.343104 8.06667,-2.526511 15.05879,-4.595699 15.53805,-4.598196 0.47926,-0.0025 4.38754,-1.064498 8.68505,-2.36 4.29752,-1.295503 8.35926,-2.355459 9.0261,-2.355459 0.66685,0 2.21526,0.979386 3.44092,2.176414 9.34383,9.125557 14.58226,14.981557 16.2207,18.132985 2.13113,4.099086 11.77614,21.461302 16.12606,29.028944 1.54647,2.690423 2.81177,5.272038 2.81177,5.736918 0,1.24089 -5.57298,8.22615 -17.80396,22.31577 -7.62973,8.78916 -12.14098,13.27436 -15.22209,15.13419 -5.42804,3.2765 -5.60312,3.54799 -4.07308,6.31624 1.87772,3.39729 1.6241,3.8951 -3.3537,6.58252 l -4.60492,2.48611 2.57616,4.24879 c 1.41689,2.33683 2.38017,4.54804 2.14061,4.91379 -0.23955,0.36575 -1.48374,0.52093 -2.76486,0.34483 -1.28112,-0.1761 -3.40175,0.0658 -4.71251,0.53753 -1.90935,0.68716 -2.19153,1.07565 -1.41919,1.9538 0.75731,0.86105 0.57859,1.35084 -0.83344,2.28409 -0.9886,0.65341 -1.53581,1.58749 -1.21602,2.07574 0.42914,0.65522 0.88953,0.64645 1.75772,-0.0334 0.94976,-0.74381 1.17629,-0.59968 1.17629,0.74845 0,0.91831 -0.4333,1.66965 -0.96289,1.66965 -0.55073,0 -0.32631,0.66374 0.52431,1.55066 1.47917,1.5423 1.49886,1.542 3.65237,-0.0565 1.52549,-1.1323 2.26655,-1.32018 2.50827,-0.63593 0.18869,0.53415 -0.27128,1.39508 -1.02215,1.91317 -1.65641,1.14291 -1.85967,3.86924 -0.24487,3.28452 0.81444,-0.2949 1.00907,0.14363 0.7128,1.60609 -0.27974,1.38084 -0.1082,1.83718 0.54699,1.45509 0.5549,-0.32361 0.95454,-0.0626 0.95454,0.62333 0,1.75774 1.37099,2.22678 2.7381,0.93676 0.66285,-0.62547 2.47506,-1.4818 4.02715,-1.90296 1.55209,-0.42115 2.25571,-0.79765 1.5636,-0.83667 -1.69243,-0.0954 -3.31602,-2.68925 -2.81903,-4.50364 0.29556,-1.079 -0.31725,-1.76473 -2.31565,-2.59115 -1.49467,-0.61812 -2.26208,-1.26712 -1.70536,-1.44223 1.58875,-0.49972 1.18346,-1.7606 -0.56594,-1.7606 -2.12418,0 -2.86026,-2.12356 -1.41226,-4.07431 1.15484,-1.5558 1.20551,-1.54316 2.62036,0.65392 0.79351,1.23222 2.07429,3.12539 2.84618,4.20706 2.94002,4.1199 7.52794,12.39651 7.52794,13.58038 0,1.77537 3.21654,8.6963 4.47387,9.62629 1.67606,1.2397 6.36896,10.4788 5.90371,11.62286 -0.23069,0.56728 2.2474,5.9722 5.50688,12.01094 3.25947,6.03874 7.16769,13.28053 8.68493,16.09286 1.51723,2.81234 4.7432,9.00734 7.16881,13.76667 2.42561,4.75933 4.55231,8.91883 4.72599,9.24333 0.17368,0.3245 -0.007,0.59 -0.40304,0.59 -0.39535,0 -1.63674,-1.76449 -2.75863,-3.9211 -1.12189,-2.15661 -2.36131,-3.92661 -2.75426,-3.93333 -0.39294,-0.007 -0.49103,-0.56162 -0.21796,-1.23309 0.32437,-0.79764 0.16168,-1.02561 -0.46932,-0.65762 -0.63609,0.37096 -0.79205,0.13599 -0.45684,-0.68829 0.27992,-0.68834 -0.0144,-1.66139 -0.65405,-2.16232 -0.97411,-0.76286 -1.04374,-0.5184 -0.4287,1.50521 0.71142,2.3407 -0.15256,4.07772 -1.21864,2.45004 -0.86797,-1.32523 -2.31099,-0.89793 -1.7367,0.51428 0.29384,0.72257 0.0526,1.63452 -0.53606,2.02655 -0.84821,0.56487 -0.85407,0.79559 -0.0283,1.11178 0.57315,0.21946 1.04209,1.27539 1.04209,2.34654 0,1.09804 0.36364,1.73547 0.83367,1.46135 0.47984,-0.27984 0.83585,0.45168 0.83881,1.72357 0.002,1.21537 0.58719,3.26308 1.29858,4.55047 0.7114,1.28738 1.10524,3.01988 0.87518,3.84999 -0.31396,1.13287 -0.1804,1.28483 0.5355,0.60929 1.28041,-1.20822 2.54417,-1.14837 1.75997,0.0833 -0.36422,0.57207 0.0292,0.48982 0.94056,-0.19667 1.41354,-1.06469 1.51553,-1.0512 1.04373,0.13798 -0.28759,0.7249 -0.16286,2.54843 0.2772,4.0523 0.67194,2.29639 1.09788,2.66599 2.6594,2.30774 3.60485,-0.82704 6.65165,-4.92468 3.66174,-4.92468 -0.70635,0 -1.15729,-1.05059 -1.22956,-2.86468 -0.0628,-1.57557 0.0869,-2.67498 0.3326,-2.44314 0.2457,0.23185 3.06794,5.3014 6.27165,11.26567 l 5.82492,10.84413 -2.01224,1.89878 -2.01224,1.89878 -0.4084,-2.01597 c -0.22463,-1.10877 -0.12995,-1.85357 0.21038,-1.6551 1.30844,0.76308 2.33057,-1.56871 1.14093,-2.60283 -0.67374,-0.58564 -1.16688,-0.66875 -1.16688,-0.19662 0,0.44973 -0.39314,0.81768 -0.87366,0.81768 -0.89679,0 -4.88844,3.91669 -4.9357,4.84302 -0.0145,0.284 0.76667,0.32067 1.73591,0.0815 1.50775,-0.37205 1.67784,-0.18383 1.17765,1.30325 -0.52216,1.55244 -0.41548,1.63843 0.99869,0.80507 1.26678,-0.74651 2.13066,-0.66595 4.32126,0.40299 l 2.73795,1.33602 -0.54495,-2.61593 -0.54494,-2.61592 1.68811,1.96667 c 0.92846,1.08167 2.52997,3.91367 3.55892,6.29333 1.02894,2.37967 3.14305,6.62767 4.69802,9.44 1.55497,2.81234 6.03057,11.13134 9.94578,18.48667 3.91521,7.35533 7.41011,13.90433 7.76643,14.55333 4.76939,8.68678 6.66783,12.86376 6.35609,13.98476 -0.27639,0.99386 -0.40268,0.88326 -0.4736,-0.41476 -0.1108,-2.02795 -0.10672,-2.02655 -2.94509,-1.00825 -1.77307,0.6361 -2.27697,0.4907 -3.0553,-0.8816 -0.66581,-1.17394 -0.67014,-1.49061 -0.0152,-1.10865 1.03428,0.60317 1.0868,-0.0478 0.17984,-2.22849 -0.57253,-1.37663 -0.75888,-1.32352 -2.44243,0.69608 -2.01577,2.41816 -2.39086,4.47285 -0.78051,4.27552 2.30675,-0.28265 3.21429,0.13922 3.93397,1.82873 0.57767,1.35613 0.76632,1.4481 0.8068,0.39333 0.0291,-0.75717 0.42798,-1.37667 0.8865,-1.37667 0.45852,0 0.81779,0.4425 0.79838,0.98334 -0.0393,1.09374 -3.94286,3.61788 -8.09302,5.23306 -1.49018,0.57996 -2.70943,1.36553 -2.70943,1.74571 0,1.05426 2.40365,0.82538 4.87341,-0.46408 3.30858,-1.72741 8.7881,-3.82699 9.5694,-3.6667 0.37797,0.0776 0.48473,-0.16818 0.23725,-0.54603 -0.59854,-0.91387 2.72683,-4.2346 3.87794,-3.87254 1.1587,0.36447 58.59547,108.74864 59.32089,111.93955 0.85145,3.7453 -2.17862,7.33459 -8.68409,10.28679 -6.28941,2.85416 -9.65078,3.5562 -12.34975,2.57934 z M 321.38737,373.69612 c -0.75087,-0.5181 -1.36522,-1.33301 -1.36522,-1.81093 0,-0.4779 -0.75031,-1.24784 -1.66735,-1.71095 -1.38235,-0.69809 -1.66734,-0.59825 -1.66734,0.58416 0,1.46165 2.70139,4.13584 4.17789,4.13584 0.45327,0 0.85376,0.4425 0.88996,0.98334 0.0444,0.6632 0.21744,0.62151 0.53155,-0.12807 0.25615,-0.61128 -0.14862,-1.5353 -0.89949,-2.05339 z m -7.37787,-13.85609 c -0.20813,-0.58917 -0.58602,-0.23258 -0.88082,0.83115 -0.36262,1.3085 -0.25412,1.61564 0.36452,1.03188 0.48445,-0.45713 0.71678,-1.2955 0.5163,-1.86303 z m -6.49244,-5.53024 c 0,-0.36055 -0.56273,-0.65555 -1.25051,-0.65555 -0.68778,0 -1.25051,0.295 -1.25051,0.65555 0,0.36057 0.56273,0.65557 1.25051,0.65557 0.68778,0 1.25051,-0.295 1.25051,-0.65557 z m 4.00736,-5.00303 c -0.25668,-0.24221 -0.72284,0.19439 -1.03591,0.97022 -0.45242,1.12116 -0.35666,1.21151 0.46669,0.44038 0.56975,-0.53363 0.82589,-1.16839 0.56922,-1.4106 z m -7.51168,-2.53585 c 2.15239,-2.88989 1.92724,-7.42724 -0.48898,-9.85416 -1.02171,-1.02624 -1.5955,-2.11328 -1.27508,-2.41563 0.32043,-0.30236 -0.23888,-1.09267 -1.24288,-1.75624 -1.004,-0.66359 -1.81972,-1.62894 -1.8127,-2.14524 0.007,-0.56658 0.33314,-0.47093 0.82091,0.24127 1.20822,1.76419 1.07318,-0.47483 -0.15733,-2.60838 l -0.991,-1.71829 -0.65836,1.96667 c -0.47462,1.41783 -0.53636,1.14273 -0.22123,-0.98579 0.35605,-2.40496 -0.0338,-3.59824 -2.10218,-6.43507 -1.39661,-1.91544 -2.53928,-4.01744 -2.53928,-4.67112 0,-0.65367 -0.37515,-1.40728 -0.83367,-1.67469 -0.45852,-0.2674 -0.83367,-0.1113 -0.83367,0.34691 0,1.8549 -2.48167,0.65501 -4.25959,-2.05952 -1.86931,-2.85406 -3.3158,-2.53474 -1.66921,0.36849 0.59557,1.05007 0.56196,1.76702 -0.11266,2.4036 -1.54604,1.45887 0.56686,3.04324 2.27474,1.70575 0.7183,-0.56252 1.51448,-0.82603 1.7693,-0.58558 0.58691,0.55382 -2.11692,4.50702 -3.08262,4.50702 -0.39596,0 -0.28796,0.8946 0.23999,1.98801 0.65685,1.36033 1.23028,1.73289 1.81621,1.18 1.36114,-1.2844 2.19016,-0.94588 2.19016,0.89432 0,2.07058 2.55984,7.73767 3.49513,7.73767 0.37028,0 0.67324,0.885 0.67324,1.96667 0,2.28701 1.18013,2.56365 2.51694,0.59 0.82125,-1.21247 0.88515,-1.16533 0.53581,0.39519 -0.2521,1.12605 0.10681,2.04199 0.98472,2.51302 1.15718,0.62087 1.21225,1.00189 0.33931,2.34747 -0.57315,0.88346 -1.03069,2.05361 -1.01674,2.60031 0.0144,0.56633 0.39096,0.40169 0.87509,-0.38266 0.46736,-0.75717 1.2522,-1.37667 1.74407,-1.37667 0.61537,0 0.62782,0.30673 0.0399,0.98334 -0.83322,0.95895 -1.30644,3.13285 -1.11309,5.11333 0.16732,1.71391 2.42363,1.0637 4.09472,-1.18 z m -8.87586,-15.34 c -0.0687,-0.75717 -0.50006,-1.37667 -0.95858,-1.37667 -0.45852,0 -0.83367,-0.649 -0.83367,-1.44222 0,-0.79323 -0.26096,-1.68847 -0.57991,-1.98944 -0.91021,-0.85888 -1.0164,-2.81024 -0.17951,-3.29831 0.41768,-0.24358 0.75942,0.16964 0.75942,0.91827 0,0.74863 0.59085,1.97722 1.313,2.73019 0.78825,0.8219 1.17135,2.26143 0.95858,3.60195 -0.19493,1.22809 -0.41062,1.6134 -0.47933,0.85623 z m -3.97517,-18.33086 c 0.27867,-0.68527 0.14281,-1.0146 -0.3097,-0.7507 -0.44341,0.25858 -1.37897,-0.69653 -2.07905,-2.12247 -1.21389,-2.47255 -1.25177,-2.48931 -0.81781,-0.36197 0.35813,1.75563 1.80601,4.2291 2.59085,4.42607 0.0656,0.0165 0.34264,-0.51946 0.61571,-1.19093 z m -8.73269,-3.15122 c 1.02457,0.59752 3.41256,-0.81431 3.41256,-2.01757 0,-0.3797 -0.62525,-0.69035 -1.38946,-0.69035 -0.76419,0 -1.15255,-0.22355 -0.863,-0.49677 0.28955,-0.27322 0.11358,-1.24672 -0.39103,-2.16333 -0.83713,-1.52059 -0.72502,-1.49952 1.27984,0.24056 1.74701,1.51629 2.19732,1.64634 2.19732,0.63461 0,-0.69989 -0.76886,-1.78069 -1.70858,-2.40179 -1.32945,-0.87868 -1.57996,-1.61286 -1.12893,-3.3086 0.41083,-1.5446 0.30144,-2.01709 -0.37559,-1.62226 -0.52539,0.30641 -0.95526,1.05342 -0.95526,1.66003 0,0.60661 -0.74459,1.75751 -1.65466,2.55755 -1.18098,1.03823 -1.75469,2.78062 -2.00411,6.08673 -0.34494,4.57213 -0.3304,4.60825 1.12342,2.78955 0.85984,-1.07564 1.8827,-1.60356 2.45748,-1.26836 z m -1.58947,-2.70792 c 0.49078,-0.86533 1.07991,-1.57333 1.30917,-1.57333 0.22926,0 0.0153,0.708 -0.4755,1.57333 -0.49078,0.86533 -1.07992,1.57333 -1.30918,1.57333 -0.22926,0 -0.0152,-0.708 0.47551,-1.57333 z m 2.34001,-11.42748 c -0.25668,-0.24221 -0.72284,0.19439 -1.03591,0.97022 -0.45242,1.12115 -0.35666,1.21151 0.46669,0.44037 0.56975,-0.53363 0.8259,-1.16839 0.56922,-1.41059 z m -5.76791,-0.0335 c 0.53546,0.31228 0.92688,-0.002 0.92688,-0.74356 0,-1.84436 -2.83777,-1.12003 -3.16151,0.80695 -0.19975,1.18896 -0.0744,1.30418 0.52247,0.48019 0.4319,-0.59627 1.20237,-0.84087 1.71216,-0.54358 z m -2.71617,-12.90487 c 0.75362,-0.89563 0.71001,-1.51682 -0.19177,-2.73171 -0.64197,-0.86489 -1.16722,-2.22702 -1.16722,-3.02698 0,-0.79997 -0.61101,-2.03105 -1.35781,-2.73575 -1.25465,-1.1839 -1.46052,-1.16178 -2.70944,0.29111 -0.74338,0.86481 -2.00586,1.80872 -2.80547,2.09759 -1.23045,0.44452 -1.30598,0.83152 -0.49144,2.51842 0.52933,1.09625 1.27736,1.99319 1.66228,1.99319 0.38491,0 0.69985,0.6372 0.69985,1.416 0,2.33442 1.60742,3.33614 3.63345,2.26428 0.96366,-0.50982 2.19107,-1.4486 2.72757,-2.08618 z m -22.18022,-37.04097 c 0.55364,-1.26122 1.39619,-2.06594 1.87233,-1.78825 0.51433,0.29994 0.61412,0.12072 0.24587,-0.44153 -0.88332,-1.34865 -2.67704,0.21378 -4.81105,4.19069 l -1.71674,3.19929 1.70149,-1.43353 c 0.93582,-0.78845 2.15447,-2.46545 2.7081,-3.72667 z m -1.85162,-3.39766 c 0.44282,-0.25825 0.68475,-1.62437 0.53763,-3.03583 -0.14712,-1.41147 -0.29718,-3.09731 -0.33348,-3.74631 -0.0558,-0.99708 -0.18127,-1.00814 -0.80975,-0.0713 -0.40908,0.60976 -0.55078,1.58326 -0.31488,2.16334 0.2359,0.58006 0.0449,1.05466 -0.4245,1.05466 -0.46936,0 -1.03715,-0.4425 -1.26175,-0.98333 -0.22461,-0.54083 -0.67792,0.16717 -1.00736,1.57333 -0.63329,2.70309 -2.04908,3.5099 -2.07068,1.18 -0.0108,-1.15634 -0.1371,-1.19114 -0.78967,-0.21742 -0.42729,0.63758 -0.48528,1.34558 -0.12886,1.57333 0.35642,0.22775 1.16535,1.53656 1.79762,2.90846 l 1.14959,2.49437 1.42549,-2.21187 c 0.78401,-1.21653 1.78779,-2.42316 2.2306,-2.6814 z m -2.76579,-7.58657 c -0.19532,-0.29822 -0.77068,-1.56672 -1.27857,-2.81889 l -0.92344,-2.27671 -1.18578,2.64699 c -0.65217,1.45584 -1.18577,2.72434 -1.18577,2.81888 0,0.0945 1.10896,0.17191 2.46434,0.17191 1.3554,0 2.30454,-0.244 2.10922,-0.54222 z m -4.57356,-3.12893 c 0,-0.43267 -0.56273,-0.78667 -1.25051,-0.78667 -0.68778,0 -1.25051,0.354 -1.25051,0.78667 0,0.43267 0.56273,0.78667 1.25051,0.78667 0.68778,0 1.25051,-0.354 1.25051,-0.78667 z m 0.66203,-9.15977 c -0.24295,-1.08153 -0.45259,-0.88371 -0.80834,0.76275 -0.31017,1.43552 -0.19398,1.95279 0.32802,1.46022 0.44458,-0.41951 0.66073,-1.41985 0.48032,-2.22297 z m -5.96969,-3.83043 c -0.37076,-0.91171 -1.05892,-1.12191 -2.3997,-0.73298 -2.48398,0.72053 -2.4194,0.57751 -1.28505,2.84567 0.9612,1.9219 1.04747,1.94105 2.59939,0.57674 0.95085,-0.83591 1.39329,-1.93223 1.08536,-2.68943 z m -2.19539,1.1902 c 0,-0.43267 0.16543,-0.78667 0.36763,-0.78667 0.2022,0 0.5995,0.354 0.88288,0.78667 0.28338,0.43267 0.11795,0.78667 -0.36763,0.78667 -0.48559,0 -0.88288,-0.354 -0.88288,-0.78667 z m 6.66938,0.3469 c 0,-1.14173 -0.36085,-1.80264 -0.83367,-1.5269 -0.45852,0.2674 -0.83368,-0.19936 -0.83368,-1.03725 0,-0.83789 -0.55829,-1.96065 -1.24064,-2.49503 -1.00646,-0.78819 -1.34062,-0.72572 -1.77034,0.33094 -0.71063,1.74746 0.38404,2.66644 1.44358,1.21189 0.63965,-0.87812 0.71538,-0.7294 0.31403,0.61666 -0.36418,1.22131 -0.12149,1.9214 0.77906,2.24749 0.71939,0.2605 1.30799,0.96675 1.30799,1.56946 0,0.60271 0.18757,1.09584 0.41683,1.09584 0.22926,0 0.41684,-0.9059 0.41684,-2.0131 z m -7.64002,-4.51784 c 1.20488,-1.36992 0.40824,-3.94407 -1.58391,-5.11804 -1.39483,-0.82198 -1.61381,-0.73662 -1.61381,0.62898 0,0.88 0.55402,1.58 1.25051,1.58 0.68778,0 1.25051,0.354 1.25051,0.78667 0,0.43266 -0.55096,0.78666 -1.22435,0.78666 -0.7458,0 -1.03678,0.46122 -0.74448,1.18 0.59007,1.451 1.48056,1.50302 2.66553,0.15573 z m 2.10579,-5.66239 c -0.52283,-1.28568 -1.96882,-1.6227 -1.96882,-0.45889 0,0.59708 0.58427,1.00356 2.26644,1.57678 0.10023,0.0341 -0.0337,-0.46889 -0.29762,-1.11789 z m -5.01633,-4.12932 c 1.76277,-1.03634 3.00627,-2.07181 2.76335,-2.30105 -0.24293,-0.22922 -1.29973,0.15033 -2.34845,0.84346 -2.64138,1.74578 -2.96792,1.6048 -2.54726,-1.09976 0.42958,-2.76186 -0.59522,-3.02302 -2.80816,-0.71562 -1.47248,1.53533 -1.48343,1.709 -0.1651,2.61863 1.32618,0.91505 1.32551,1.05671 -0.0111,2.33146 -1.34296,1.28084 -1.32921,1.32485 0.2443,0.78218 0.91704,-0.31627 3.10962,-1.42296 4.87239,-2.4593 z m 2.21384,-4.13068 c 0,-0.43267 -0.37516,-0.78667 -0.83368,-0.78667 -0.45852,0 -0.83367,0.354 -0.83367,0.78667 0,0.43266 0.37515,0.78666 0.83367,0.78666 0.45852,0 0.83368,-0.354 0.83368,-0.78666 z m -2.50102,-3.54 c 0,-0.649 -0.14744,-1.18 -0.32764,-1.18 -0.18021,0 -0.54358,0.531 -0.80751,1.18 -0.26393,0.649 -0.11649,1.18 0.32764,1.18 0.44413,0 0.80751,-0.531 0.80751,-1.18 z m -12.93033,-6.6995 c -0.288,-0.43972 -0.87287,-0.59584 -1.29971,-0.34691 -1.15633,0.67436 -0.94072,1.14641 0.52365,1.14641 0.71484,0 1.06406,-0.35978 0.77606,-0.7995 z m 3.22411,-0.38943 c -0.34597,-0.85074 -0.10139,-1.05056 0.85984,-0.7025 1.58701,0.57466 1.79689,-0.71772 0.30124,-1.85499 -0.70106,-0.53307 -1.72415,-0.52538 -3.12627,0.0235 -1.70896,0.669 -1.82152,0.87552 -0.62526,1.14708 0.80241,0.18216 1.45893,0.83624 1.45893,1.45351 0,0.61728 0.36338,1.12232 0.80751,1.12232 0.44412,0 0.58993,-0.53501 0.32401,-1.18892 z m 5.53786,-0.38441 c 0,-0.86533 -0.3314,-1.57333 -0.73644,-1.57333 -0.40504,0 -0.93265,0.708 -1.17246,1.57333 -0.28339,1.02256 -0.0256,1.57334 0.73644,1.57334 0.64485,0 1.17246,-0.708 1.17246,-1.57334 z M 210.96738,180.0502 c -0.60181,-0.22725 -1.32085,-0.19931 -1.59787,0.0621 -0.27702,0.2614 0.21537,0.44733 1.09419,0.41318 0.97119,-0.0378 1.16873,-0.22416 0.50368,-0.47528 z m -3.13335,-16.74201 c 1.40811,-0.41766 3.59187,-0.9554 4.8528,-1.19499 2.40085,-0.45617 3.20272,-1.97896 1.04209,-1.97896 -0.68778,0 -1.25051,-0.33015 -1.25051,-0.73365 0,-0.40351 -0.75574,-0.96 -1.67944,-1.23664 -0.92371,-0.27664 -1.46429,-0.83149 -1.20131,-1.23301 0.26297,-0.40152 0.18038,-1.17253 -0.18355,-1.71336 -0.36393,-0.54084 -0.66744,-1.33734 -0.67446,-1.77 -0.0235,-1.44743 -5.89369,-1.37138 -7.17033,0.0929 -1.08291,1.24206 -0.95801,1.31112 1.53028,0.84611 2.86023,-0.53452 3.65195,0.45177 1.34188,1.67165 -1.82924,0.96597 -0.70336,2.50268 1.8336,2.50268 1.11923,0 2.03497,0.354 2.03497,0.78667 0,0.43266 -0.70657,0.78666 -1.57015,0.78666 -1.01281,0 -1.71158,0.6981 -1.96858,1.96667 -0.45188,2.23059 -0.42415,2.24152 3.06271,1.20728 z m 51.33004,101.01296 c 0,-0.67454 0.37515,-1.00765 0.83367,-0.74024 0.45852,0.2674 0.83367,0.8193 0.83367,1.22643 0,0.40713 -0.37515,0.74024 -0.83367,0.74024 -0.45852,0 -0.83367,-0.5519 -0.83367,-1.22643 z m 2.97972,-1.65845 c -0.29336,-0.72135 -0.14591,-1.67715 0.32764,-2.124 0.59221,-0.55883 0.861,-0.14941 0.861,1.31154 0,2.42675 -0.41642,2.71138 -1.18864,0.81246 z m -5.03889,-4.15692 c -0.29713,-0.45368 0.0133,-0.82487 0.68998,-0.82487 0.67664,0 1.41946,-0.4425 1.65073,-0.98333 0.26421,-0.61787 0.44496,-0.65367 0.48631,-0.0963 0.10124,1.36441 -2.17597,2.89853 -2.82702,1.90452 z m 0.0106,-4.70385 c -0.26381,-0.40277 -0.0984,-0.95466 0.36763,-1.22643 0.466,-0.27176 0.84727,0.0577 0.84727,0.73231 0,1.38181 -0.50025,1.58526 -1.2149,0.49412 z"
       style="fill:#a39a97;fill-opacity:1" />
    <path
       inkscape:connector-curvature="0"
       id="path3028"
       d="m 353.77552,473.6587 c -1.59912,-2.35888 -2.9075,-4.45198 -2.9075,-4.65133 0,-0.38862 -13.63693,-26.73583 -38.73513,-74.83815 -12.71182,-24.36303 -15.42908,-30.14465 -14.69136,-31.25933 0.49783,-0.7522 0.90513,-1.73731 0.90513,-2.18913 0,-0.87319 -7.83073,-16.06554 -37.2971,-72.35985 -10.07803,-19.25367 -22.74066,-43.50267 -28.13918,-53.88667 -5.39851,-10.384 -10.29795,-19.14699 -10.88764,-19.47333 -1.20156,-0.66493 -6.20964,-9.98462 -6.20964,-11.55571 0,-1.37756 -4.27436,-8.69762 -5.07874,-8.69762 -0.74392,0 -6.8831,-11.98685 -7.67901,-14.9934 -0.29315,-1.10737 -1.46828,-3.23137 -2.6114,-4.72 -1.1431,-1.48863 -3.59658,-5.4501 -5.45216,-8.80327 -1.85559,-3.35317 -3.58184,-6.09667 -3.83613,-6.09667 -0.25429,0 -1.24141,0.39344 -2.19361,0.8743 -1.98727,1.00359 -21.78222,6.4925 -29.83866,8.27392 -15.117,3.34262 -15.8386,3.44651 -18.96224,2.7299 -8.70201,-1.99637 -16.20099,-4.03134 -17.76342,-4.82037 -2.31534,-1.16927 -14.13784,-24.36441 -12.41847,-24.36441 0.43512,0 0.79113,0.55189 0.79113,1.22642 0,0.67454 0.34016,1.02805 0.75592,0.78559 0.41576,-0.24247 0.55958,0.26764 0.31961,1.13357 -0.2537,0.91546 -0.0261,1.57442 0.54379,1.57442 0.53905,0 0.76427,0.32954 0.50047,0.7323 -0.26381,0.40278 -0.0984,0.95467 0.36763,1.22643 0.466,0.27176 0.84727,0.11923 0.84727,-0.33897 0,-0.4582 0.36306,-0.8331 0.80681,-0.8331 0.47728,0 0.53393,0.69607 0.13871,1.70422 -0.48568,1.23889 -0.22385,2.12343 0.95893,3.23952 1.3233,1.24869 1.41413,1.66257 0.48655,2.21707 -0.73063,0.43676 -0.78923,0.6861 -0.16305,0.69381 0.53758,0.006 1.40789,1.2428 1.934,2.74706 0.52611,1.50426 1.21173,2.68706 1.52359,2.62844 0.31185,-0.0586 1.21978,0.16316 2.01763,0.49282 1.5786,0.65225 8.96186,-1.8312 8.96715,-3.01622 0.002,-0.38496 0.64548,-1.14316 1.43058,-1.68486 1.18732,-0.81924 1.24585,-1.19143 0.34796,-2.21231 -1.11696,-1.26998 -0.57928,-4.44955 0.75245,-4.44955 0.41149,0 1.14971,0.708 1.6405,1.57334 1.12607,1.98545 2.50101,2.03589 2.50101,0.0917 0,-0.84753 0.80275,-1.71915 1.87577,-2.0367 l 1.87576,-0.55512 -2.0798,-0.55446 c -3.18429,-0.84889 -3.0915,-2.91119 0.1645,-3.65621 2.69877,-0.61752 2.70821,-0.63467 0.51738,-0.93916 -3.85819,-0.53623 -4.33986,-2.11257 -1.07253,-3.51002 2.85139,-1.21953 2.88729,-1.21163 2.88729,0.63585 0,1.10577 0.49201,1.87074 1.20324,1.87074 0.66177,0 1.77444,0.76954 2.4726,1.7101 1.09876,1.48025 2.01357,1.69945 6.80644,1.63087 4.32404,-0.0619 5.92832,-0.42608 7.32304,-1.66247 1.70634,-1.51265 2.07995,-1.6785 3.78096,-1.6785 1.74235,0 1.61714,-2.64033 -0.23584,-4.97312 -2.70113,-3.40056 -10.44122,-16.38333 -13.2155,-22.16688 -5.71167,-11.90713 -12.38943,-31.254285 -11.18111,-32.394475 0.87373,-0.824468 2.09801,0.616408 2.63412,3.100165 1.81095,8.389821 12.72781,31.00467 17.95603,37.19683 1.4446,1.71095 3.21067,4.17282 3.92461,5.47082 2.08099,3.78339 6.10583,8.13979 9.01846,9.7614 l 2.69689,1.50148 7.12899,-3.49226 c 5.28311,-2.58803 7.67866,-3.36208 9.25187,-2.98949 2.54544,0.60284 2.74633,-0.46489 0.45554,-2.42113 -0.91704,-0.78312 -1.66735,-1.89999 -1.66735,-2.48193 0,-0.58194 -0.34987,-1.05807 -0.77749,-1.05807 -0.42762,0 -1.04516,-0.7965 -1.3723,-1.77 -0.32715,-0.9735 -1.47788,-3.09047 -2.5572,-4.70437 -1.07931,-1.61391 -1.96239,-3.30244 -1.96239,-3.7523 0,-0.44986 -0.93121,-2.2099 -2.06936,-3.91118 -1.13815,-1.70129 -1.74191,-3.28422 -1.3417,-3.51761 0.81108,-0.47302 2.41548,1.62379 4.62273,6.04147 3.22665,6.45794 8.25518,8.9655 11.90797,5.9381 0.80829,-0.66991 2.32887,-1.46529 3.37905,-1.76749 2.20202,-0.63368 14.34719,-9.65824 14.34719,-10.6608 0,-0.36839 0.7503,-0.89451 1.66734,-1.16916 0.91704,-0.27465 1.66735,-1.0065 1.66735,-1.62634 0,-0.61984 0.49199,-1.12699 1.09331,-1.12699 0.60132,0 1.83469,-0.6195 2.74081,-1.37667 2.35446,-1.9674 6.83991,-4.91666 7.47761,-4.91666 0.29783,0 1.34469,-0.673175 2.32636,-1.495939 0.98166,-0.822765 3.50859,-2.941202 5.6154,-4.70764 2.10679,-1.766438 4.55867,-3.305768 5.44863,-3.420732 2.34675,-0.303157 14.48048,10.149641 14.48048,12.474451 0,0.97735 -0.33297,1.97119 -0.73994,2.20852 -0.40695,0.23733 -4.58489,5.12573 -9.28429,10.86309 -4.6994,5.73737 -8.96648,10.78558 -9.48239,11.21825 -0.51591,0.43266 -2.80936,2.88028 -5.09654,5.43915 -2.2872,2.55886 -6.22188,5.88516 -8.74374,7.39175 -2.52185,1.50659 -4.70664,2.83157 -4.85509,2.94441 -0.14843,0.11283 0.32051,1.28246 1.04209,2.59918 1.9741,3.60222 1.67685,4.34411 -2.84933,7.1116 l -4.16132,2.54441 1.26488,2.30808 c 1.1322,2.06599 1.13146,2.30808 -0.007,2.30808 -0.69993,0 -1.2723,-0.33015 -1.2723,-0.73365 0,-0.40351 -0.75574,-0.96 -1.67944,-1.23664 -0.92371,-0.27664 -1.46429,-0.83149 -1.20131,-1.23301 0.26297,-0.40152 0.18455,-1.17253 -0.17428,-1.71336 -0.35883,-0.54084 -0.66234,-1.51434 -0.67446,-2.16334 -0.0326,-1.74467 -4.10605,-1.89581 -7.95111,-0.29503 -1.82902,0.76147 -3.3255,1.64947 -3.3255,1.97333 0,1.07582 1.72545,1.61489 2.74595,0.8579 1.54571,-1.14657 5.59078,-1.88236 5.59078,-1.01694 0,0.41941 -0.6154,1.08754 -1.36756,1.48473 -1.82924,0.96597 -0.70336,2.50268 1.8336,2.50268 1.11923,0 2.03497,0.354 2.03497,0.78667 0,0.43266 -0.70657,0.78666 -1.57015,0.78666 -1.02652,0 -1.71277,0.70397 -1.98206,2.03322 -0.36039,1.77896 -0.19011,1.96808 1.36174,1.51228 0.9755,-0.28651 3.11558,-0.78873 4.75573,-1.11604 1.64016,-0.32731 3.51592,-0.88759 4.16836,-1.24508 0.65245,-0.35747 0.92277,-0.37406 0.60072,-0.0369 -0.32206,0.33721 -0.0373,1.1305 0.63291,1.76288 1.67058,1.57638 0.90183,2.39702 -1.88642,2.01376 -1.28112,-0.1761 -3.40175,0.0658 -4.71251,0.53753 -1.90935,0.68716 -2.19153,1.07565 -1.41919,1.9538 0.75731,0.86105 0.57859,1.35084 -0.83344,2.28409 -0.9886,0.65341 -1.53581,1.58749 -1.21602,2.07574 0.42914,0.65522 0.88953,0.64645 1.75772,-0.0334 0.94976,-0.74377 1.17629,-0.59964 1.17629,0.74849 0,0.91831 -0.4333,1.66965 -0.96289,1.66965 -0.55073,0 -0.32631,0.66374 0.52431,1.55066 1.47917,1.5423 1.49886,1.542 3.65237,-0.0565 1.52549,-1.1323 2.26655,-1.32018 2.50827,-0.63593 0.18869,0.53415 -0.27128,1.39508 -1.02215,1.91317 -1.65641,1.14291 -1.85967,3.86924 -0.24487,3.28452 0.81444,-0.2949 1.00907,0.14363 0.7128,1.60609 -0.27974,1.38084 -0.1082,1.83718 0.54699,1.45509 0.5549,-0.32361 0.95454,-0.0626 0.95454,0.62333 0,1.75774 1.37099,2.22678 2.7381,0.93676 0.66285,-0.62547 2.47506,-1.4818 4.02715,-1.90296 1.55209,-0.42115 2.25571,-0.79765 1.5636,-0.83667 -1.69243,-0.0954 -3.31602,-2.68925 -2.81903,-4.50364 0.29556,-1.079 -0.31725,-1.76473 -2.31565,-2.59115 -1.49467,-0.61812 -2.26208,-1.26712 -1.70536,-1.44223 1.58875,-0.49972 1.18346,-1.7606 -0.56594,-1.7606 -2.13493,0 -2.85778,-2.12691 -1.39336,-4.09977 1.17102,-1.57759 1.23314,-1.55527 2.91457,1.04725 0.94493,1.46255 1.71946,3.10169 1.72117,3.64252 0.002,0.54084 0.37635,0.98334 0.83252,0.98334 1.71774,0 7.80351,13.23007 8.69319,18.89846 0.0355,0.22649 0.91028,1.26831 1.94385,2.31516 2.31689,2.34667 7.82234,12.24295 7.1591,12.86879 -0.26595,0.25095 5.39849,11.64904 12.58764,25.32908 7.18916,13.68005 12.94696,25.22449 12.79513,25.65431 -0.15184,0.42983 -1.20595,-1.00563 -2.34247,-3.18991 -1.13653,-2.18429 -2.38791,-3.97694 -2.78086,-3.98366 -0.39294,-0.007 -0.49103,-0.56162 -0.21796,-1.23309 0.32437,-0.79764 0.16168,-1.02561 -0.46932,-0.65762 -0.63609,0.37096 -0.79205,0.13599 -0.45684,-0.68829 0.27992,-0.68834 -0.0144,-1.66139 -0.65405,-2.16232 -0.97411,-0.76286 -1.04374,-0.5184 -0.4287,1.50521 0.71142,2.3407 -0.15256,4.07772 -1.21864,2.45004 -0.86797,-1.32523 -2.31099,-0.89793 -1.7367,0.51428 0.29384,0.72257 0.0526,1.63452 -0.53606,2.02655 -0.84821,0.56487 -0.85407,0.79559 -0.0283,1.11178 0.57315,0.21946 1.04209,1.27539 1.04209,2.34654 0,1.09804 0.36364,1.73547 0.83367,1.46135 0.47984,-0.27984 0.83585,0.45168 0.83881,1.72357 0.002,1.21537 0.58719,3.26308 1.29858,4.55047 0.7114,1.28738 1.10524,3.01988 0.87518,3.84999 -0.31396,1.13287 -0.1804,1.28483 0.5355,0.60929 1.28041,-1.20822 2.54417,-1.14837 1.75997,0.0833 -0.36422,0.57207 0.0292,0.48982 0.94056,-0.19667 1.41354,-1.06469 1.51553,-1.0512 1.04373,0.13798 -0.28759,0.7249 -0.16286,2.54843 0.2772,4.0523 0.67194,2.29639 1.09788,2.66599 2.6594,2.30774 3.60485,-0.82704 6.65165,-4.92468 3.66174,-4.92468 -0.71113,0 -1.15779,-1.06318 -1.23228,-2.93319 l -0.11687,-2.93318 1.44958,2.34318 c 2.57314,4.15937 4.34277,8.24319 3.572,8.24319 -0.41289,0 -0.94544,-0.4425 -1.18345,-0.98334 -0.30575,-0.69477 -0.8766,-0.5104 -1.94524,0.62826 -0.83187,0.88637 -2.16673,1.84793 -2.96635,2.13681 -1.23045,0.44451 -1.30597,0.83151 -0.49144,2.51841 0.52933,1.09626 1.27736,1.99319 1.66228,1.99319 0.38492,0 0.69986,0.6372 0.69986,1.416 0,2.33442 1.60742,3.33614 3.63344,2.26429 3.10139,-1.64078 3.84517,-3.05392 2.53581,-4.8179 -0.64197,-0.86486 -1.16043,-2.2902 -1.15211,-3.16743 0.01,-1.04573 0.79935,-0.24051 2.2926,2.33837 4.39695,7.59373 4.4677,7.89176 2.32455,9.79162 l -1.91936,1.70147 -0.40235,-1.98607 c -0.22129,-1.09234 -0.12389,-1.82368 0.21644,-1.62521 1.30844,0.76308 2.33057,-1.56871 1.14093,-2.60283 -0.67374,-0.58564 -1.16688,-0.66875 -1.16688,-0.19662 0,0.44973 -0.39314,0.81768 -0.87366,0.81768 -0.89679,0 -4.88844,3.91669 -4.9357,4.84302 -0.0145,0.284 0.76667,0.32067 1.73591,0.0815 1.50775,-0.37205 1.67784,-0.18383 1.17765,1.30325 -0.52216,1.55244 -0.41548,1.63843 0.99869,0.80507 1.26678,-0.74651 2.13066,-0.66595 4.32126,0.40299 l 2.73795,1.33602 -0.58819,-2.61593 -0.58819,-2.61592 1.97932,2.75334 c 1.08862,1.51433 2.71861,4.34633 3.6222,6.29333 0.90359,1.947 2.92317,5.841 4.48796,8.65333 5.68772,10.22233 8.50184,15.93449 8.22971,16.70487 -0.35801,1.01345 -4.79779,-5.28676 -4.79779,-6.80824 0,-0.63275 -0.37515,-1.36922 -0.83367,-1.63663 -0.45852,-0.2674 -0.83367,-0.1113 -0.83367,0.34691 0,1.8549 -2.48167,0.65501 -4.25959,-2.05952 -1.86931,-2.85406 -3.3158,-2.53474 -1.66921,0.36849 0.59557,1.05007 0.56196,1.76702 -0.11266,2.4036 -1.54604,1.45887 0.56686,3.04324 2.27474,1.70575 0.7183,-0.56252 1.51448,-0.82603 1.7693,-0.58558 0.58691,0.55382 -2.11692,4.50702 -3.08262,4.50702 -0.39596,0 -0.28796,0.8946 0.23999,1.98801 0.65685,1.36033 1.23028,1.73289 1.81621,1.18 1.36114,-1.2844 2.19016,-0.94588 2.19016,0.89432 0,2.07058 2.55984,7.73767 3.49513,7.73767 0.37028,0 0.67324,0.885 0.67324,1.96667 0,2.28701 1.18013,2.56365 2.51694,0.59 0.82125,-1.21247 0.88515,-1.16533 0.53581,0.39519 -0.2521,1.12605 0.10681,2.04199 0.98472,2.51302 1.15718,0.62087 1.21225,1.00189 0.33931,2.34747 -0.57315,0.88346 -1.03069,2.05361 -1.01674,2.60031 0.0144,0.56633 0.39096,0.40169 0.87509,-0.38266 0.46736,-0.75717 1.2522,-1.37667 1.74407,-1.37667 0.61537,0 0.62782,0.30673 0.0399,0.98334 -0.83322,0.95895 -1.30644,3.13285 -1.11309,5.11333 0.16732,1.71391 2.42363,1.0637 4.09472,-1.18 2.04544,-2.74628 1.92081,-7.46931 -0.25958,-9.83789 -0.89384,-0.971 -1.52229,-2.07567 -1.39654,-2.45484 0.12575,-0.37917 -0.53747,-1.19574 -1.47382,-1.8146 -0.93635,-0.61887 -1.69671,-1.54764 -1.68969,-2.06394 0.007,-0.56658 0.33314,-0.47093 0.82091,0.24127 0.71103,1.03821 0.80967,1.03264 0.82091,-0.0463 0.007,-0.67447 -0.53804,-1.91347 -1.21124,-2.75333 -1.18543,-1.47891 -1.22483,-1.46712 -1.25051,0.37409 -0.0146,1.04561 -0.24978,1.69042 -0.52268,1.43292 -0.27289,-0.25751 -0.24778,-1.53531 0.0558,-2.83956 0.37774,-1.62287 0.92905,-2.23481 1.74667,-1.93875 0.6571,0.23793 1.19472,0.75569 1.19472,1.15057 0,0.95349 11.548,22.89614 12.5541,23.85438 0.43156,0.41103 0.73357,1.65003 0.67113,2.75333 -0.10475,1.8508 -0.14148,1.86906 -0.47482,0.236 -0.41648,-2.04042 -0.3118,-2.0063 -3.0937,-1.00826 -1.77308,0.63611 -2.27698,0.49071 -3.05531,-0.8816 -0.66581,-1.17393 -0.67014,-1.49061 -0.0152,-1.10865 1.03428,0.60318 1.0868,-0.0478 0.17984,-2.22848 -0.57253,-1.37663 -0.75888,-1.32352 -2.44242,0.69608 -2.01578,2.41816 -2.39087,4.47284 -0.78051,4.27552 2.30674,-0.28265 3.21429,0.13922 3.93396,1.82872 0.57767,1.35614 0.76632,1.44811 0.80681,0.39334 0.0291,-0.75715 0.42798,-1.37665 0.8865,-1.37665 0.45852,0 0.81779,0.4425 0.79838,0.98334 -0.0393,1.09374 -3.94286,3.61788 -8.09302,5.23306 -1.49018,0.57996 -2.70943,1.36553 -2.70943,1.74571 0,1.05426 2.40365,0.82538 4.87341,-0.46408 3.58899,-1.8738 8.81747,-3.82221 9.71586,-3.62063 0.45852,0.10288 0.55149,-0.0792 0.2066,-0.40467 -0.78777,-0.74335 1.75613,-3.47273 3.23673,-3.47273 1.14812,0 11.4996,18.80849 10.74392,19.52157 -0.23742,0.22402 -0.43166,-0.006 -0.43166,-0.51045 0,-0.50478 -0.48737,-0.91778 -1.08303,-0.91778 -0.59567,0 -1.55191,-1.22352 -2.12497,-2.71894 -0.96401,-2.51564 -1.19471,-2.65324 -3.08533,-1.8404 -1.12386,0.48321 -2.04339,1.39401 -2.04339,2.02403 0,0.75817 -0.56375,1.00636 -1.66735,0.73404 -1.22299,-0.30179 -1.66734,-0.0242 -1.66734,1.04182 0,0.79929 0.41048,1.69264 0.91218,1.98523 0.50169,0.29258 0.7413,1.37548 0.53244,2.40643 -0.24965,1.23235 0.009,1.87445 0.75516,1.87445 1.38708,0 1.48558,1.71443 0.16983,2.956 -0.73098,0.68976 -0.70622,1.20497 0.10208,2.124 1.65532,1.88207 2.61547,1.4355 2.04252,-0.95 -0.484,-2.01512 -0.37085,-1.96408 1.65146,0.74494 2.18524,2.92726 2.88485,6.1384 1.33738,6.1384 -0.45852,0 -0.83368,-0.29718 -0.83368,-0.6604 0,-0.36322 -0.93788,-1.06362 -2.08418,-1.55647 -1.1463,-0.49284 -2.08418,-1.47801 -2.08418,-2.18926 0,-1.05214 -0.22982,-1.11321 -1.23299,-0.32759 -0.99488,0.77913 -1.04117,1.29144 -0.23971,2.65299 0.54629,0.92806 0.90414,1.97957 0.7952,2.33668 -0.10892,0.3571 0.51725,0.43505 1.39151,0.17322 1.03581,-0.31022 1.7701,-0.0321 2.10782,0.79837 0.75199,1.84916 -0.23513,2.96553 -1.64554,1.861 -1.48159,-1.16028 -1.47823,-0.76129 0.0177,2.10059 1.85053,3.54035 2.47675,6.61087 1.34826,6.61087 -0.53528,0 -0.74139,0.354 -0.45801,0.78666 0.28338,0.43267 0.11795,0.78667 -0.36763,0.78667 -0.48558,0 -0.88288,0.354 -0.88288,0.78667 0,0.43266 0.93788,0.78666 2.08418,0.78666 1.50728,0 2.08418,0.42265 2.08418,1.52691 0,0.83979 0.38127,1.74926 0.84727,2.02102 0.466,0.27176 0.62128,0.83916 0.34507,1.26089 -0.27622,0.42172 -0.14755,1.19376 0.28593,1.71564 0.43347,0.52188 1.02827,2.14254 1.32176,3.60147 0.46204,2.2967 0.36593,2.52125 -0.71636,1.67367 -0.86388,-0.67652 -1.25002,-0.70615 -1.25002,-0.0959 0,0.48564 0.37515,0.88299 0.83367,0.88299 0.45852,0 0.83942,0.6195 0.84644,1.37667 0.0107,1.15464 0.13785,1.19003 0.78834,0.21944 0.91961,-1.37212 1.93043,-0.63921 2.09917,1.52203 0.0663,0.84922 0.81204,2.26505 1.65719,3.14628 0.8622,0.89899 1.11403,1.60225 0.57378,1.60225 -0.52959,0 -0.96288,0.354 -0.96288,0.78666 0,0.43267 0.4191,0.69817 0.93134,0.59 0.51224,-0.10816 1.03607,0.38612 1.16406,1.09842 0.12798,0.7123 1.02191,2.0398 1.98651,2.95 0.96458,0.9102 1.75379,2.19702 1.75379,2.8596 0,0.66259 0.56273,1.40846 1.25051,1.6575 0.68778,0.24905 1.25051,1.22913 1.25051,2.17798 0,0.94884 0.46894,2.2019 1.04209,2.78457 0.81287,0.82638 0.81497,0.93852 0.01,0.50982 -0.69191,-0.3683 -0.86936,-0.14834 -0.5379,0.66674 0.27206,0.66899 0.83049,1.02048 1.24096,0.78109 0.41047,-0.23938 0.74632,0.0472 0.74632,0.63687 0,0.58966 1.31303,2.273 2.91785,3.74075 1.60482,1.46774 2.91785,3.10834 2.91785,3.64576 0,1.60565 4.74919,6.03455 5.8085,5.41677 1.2724,-0.74205 4.19557,1.79826 4.19557,3.64606 0,0.79827 0.56273,1.45141 1.25051,1.45141 0.81732,0 1.25051,0.77209 1.25051,2.22888 0,2.70493 0.46578,3.22127 2.46158,2.72878 1.32815,-0.32773 1.42294,-0.74837 0.71437,-3.16993 -0.62335,-2.13027 -0.55316,-2.96491 0.29613,-3.52141 0.78089,-0.51169 0.59307,-0.59271 -0.62927,-0.27146 -1.66181,0.43676 -1.73504,0.19358 -1.58357,-5.25846 0.0874,-3.14403 -0.1326,-6.68513 -0.48879,-7.86913 -0.35618,-1.184 -0.34012,-2.33205 0.0357,-2.55123 0.37582,-0.21918 0.92191,0.49853 1.21352,1.5949 0.29162,1.09637 0.89437,1.78103 1.33945,1.52147 1.13063,-0.65938 1.00847,-2.43166 -0.25271,-3.66622 -0.58407,-0.57174 -1.00611,-1.48203 -0.93789,-2.02286 0.0683,-0.54083 0.18568,-1.42583 0.26098,-1.96667 0.0753,-0.54083 3.34672,5.03467 7.2698,12.39 8.38357,15.71821 8.98593,18.52372 4.82111,22.45432 -2.64916,2.50016 -12.14939,6.25902 -15.81923,6.25902 -1.57936,0 -2.73133,-0.99528 -4.96411,-4.28888 z M 314.0095,359.84003 c -0.20813,-0.58917 -0.58602,-0.23258 -0.88082,0.83115 -0.36262,1.3085 -0.25412,1.61564 0.36452,1.03188 0.48445,-0.45713 0.71678,-1.2955 0.5163,-1.86303 z m -6.49244,-5.53024 c 0,-0.36055 -0.56273,-0.65555 -1.25051,-0.65555 -0.68778,0 -1.25051,0.295 -1.25051,0.65555 0,0.36057 0.56273,0.65557 1.25051,0.65557 0.68778,0 1.25051,-0.295 1.25051,-0.65557 z m 4.00736,-5.00303 c -0.25668,-0.24221 -0.72284,0.19439 -1.03591,0.97022 -0.45242,1.12116 -0.35666,1.21151 0.46669,0.44038 0.56975,-0.53363 0.82589,-1.16839 0.56922,-1.4106 z m -20.36271,-36.20671 c 0.27867,-0.68527 0.14281,-1.0146 -0.3097,-0.7507 -0.44341,0.25858 -1.37897,-0.69653 -2.07905,-2.12247 -1.21389,-2.47255 -1.25177,-2.48931 -0.81781,-0.36197 0.35813,1.75563 1.80601,4.2291 2.59085,4.42607 0.0656,0.0165 0.34264,-0.51946 0.61571,-1.19093 z m -8.73269,-3.15122 c 1.02457,0.59752 3.41256,-0.81431 3.41256,-2.01757 0,-0.3797 -0.62525,-0.69035 -1.38946,-0.69035 -0.76419,0 -1.15255,-0.22355 -0.863,-0.49677 0.28955,-0.27322 0.11358,-1.24672 -0.39103,-2.16333 -0.83713,-1.52059 -0.72502,-1.49952 1.27984,0.24056 1.74701,1.51629 2.19732,1.64634 2.19732,0.63461 0,-0.69989 -0.76886,-1.78069 -1.70858,-2.40179 -1.32945,-0.87868 -1.57996,-1.61286 -1.12893,-3.3086 0.41083,-1.5446 0.30144,-2.01709 -0.37559,-1.62226 -0.52539,0.30641 -0.95526,1.05342 -0.95526,1.66003 0,0.60661 -0.74459,1.75751 -1.65466,2.55755 -1.18098,1.03823 -1.75469,2.78062 -2.00411,6.08673 -0.34494,4.57213 -0.3304,4.60825 1.12342,2.78955 0.85984,-1.07564 1.8827,-1.60356 2.45748,-1.26836 z m -1.58947,-2.70792 c 0.49078,-0.86533 1.07991,-1.57333 1.30917,-1.57333 0.22926,0 0.0153,0.708 -0.4755,1.57333 -0.49078,0.86533 -1.07992,1.57333 -1.30918,1.57333 -0.22926,0 -0.0152,-0.708 0.47551,-1.57333 z m 2.50101,-11.40667 c 0,-0.59793 -0.28136,-1.25123 -0.62525,-1.45178 -0.34389,-0.20056 -0.62526,0.45275 -0.62526,1.45178 0,0.99904 0.28137,1.65234 0.62526,1.45179 0.34389,-0.20056 0.62525,-0.85386 0.62525,-1.45179 z m -5.92891,-0.0544 c 0.53546,0.31228 0.92688,-0.002 0.92688,-0.74356 0,-1.84436 -2.83777,-1.12003 -3.16151,0.80695 -0.19975,1.18896 -0.0744,1.30418 0.52247,0.48018 0.4319,-0.59626 1.20237,-0.84086 1.71216,-0.54357 z m -24.89639,-49.94584 c 0.55364,-1.26122 1.39619,-2.06594 1.87233,-1.78825 0.51433,0.29994 0.61412,0.12072 0.24587,-0.44153 -0.88332,-1.34865 -2.67704,0.21378 -4.81105,4.19069 l -1.71674,3.19929 1.70149,-1.43353 c 0.93582,-0.78846 2.15447,-2.46546 2.7081,-3.72667 z m -1.85162,-3.39766 c 0.44282,-0.25825 0.68475,-1.62437 0.53763,-3.03583 -0.14712,-1.41147 -0.29718,-3.09731 -0.33348,-3.74631 -0.0558,-0.99708 -0.18127,-1.00814 -0.80975,-0.0713 -0.40908,0.60976 -0.55078,1.58326 -0.31488,2.16333 0.2359,0.58007 0.0449,1.05467 -0.4245,1.05467 -0.46936,0 -1.03715,-0.4425 -1.26175,-0.98333 -0.22461,-0.54083 -0.67792,0.16717 -1.00736,1.57333 -0.63329,2.70309 -2.04908,3.5099 -2.07068,1.18 -0.0108,-1.15634 -0.1371,-1.19114 -0.78967,-0.21742 -0.42729,0.63757 -0.48528,1.34557 -0.12886,1.57333 0.35642,0.22775 1.16535,1.53656 1.79762,2.90846 l 1.14959,2.49437 1.42549,-2.21187 c 0.78401,-1.21653 1.78779,-2.42316 2.2306,-2.6814 z m -2.76579,-7.58658 c -0.19532,-0.29821 -0.77068,-1.56671 -1.27857,-2.81888 l -0.92344,-2.27668 -1.18578,2.64699 c -0.65217,1.45584 -1.18577,2.72434 -1.18577,2.81888 0,0.0945 1.10896,0.17191 2.46434,0.17191 1.3554,0 2.30454,-0.244 2.10922,-0.54222 z m -4.57356,-3.12889 c 0,-0.43267 -0.56273,-0.78667 -1.25051,-0.78667 -0.68778,0 -1.25051,0.354 -1.25051,0.78667 0,0.43267 0.56273,0.78667 1.25051,0.78667 0.68778,0 1.25051,-0.354 1.25051,-0.78667 z m 0.66203,-9.15977 c -0.24295,-1.08153 -0.45259,-0.88371 -0.80834,0.76275 -0.31017,1.43552 -0.19398,1.95279 0.32802,1.46022 0.44458,-0.41951 0.66073,-1.41985 0.48032,-2.22297 z m -5.96969,-3.83043 c -0.37076,-0.91171 -1.05892,-1.12191 -2.3997,-0.73298 -2.48398,0.72053 -2.4194,0.57751 -1.28505,2.84567 0.9612,1.9219 1.04747,1.94105 2.59939,0.57674 0.95085,-0.83591 1.39329,-1.93223 1.08536,-2.68943 z m -2.19539,1.1902 c 0,-0.43267 0.16543,-0.78667 0.36763,-0.78667 0.2022,0 0.5995,0.354 0.88288,0.78667 0.28338,0.43267 0.11795,0.78667 -0.36763,0.78667 -0.48559,0 -0.88288,-0.354 -0.88288,-0.78667 z m 6.66938,0.3469 c 0,-1.14173 -0.36085,-1.80264 -0.83367,-1.5269 -0.45852,0.2674 -0.83368,-0.19936 -0.83368,-1.03725 0,-0.83789 -0.55829,-1.96065 -1.24064,-2.49503 -1.00646,-0.78819 -1.34062,-0.72572 -1.77034,0.33094 -0.71063,1.74746 0.38404,2.66644 1.44358,1.21189 0.63965,-0.87812 0.71538,-0.7294 0.31403,0.61666 -0.36418,1.22131 -0.12149,1.9214 0.77906,2.24749 0.71939,0.2605 1.30799,0.96675 1.30799,1.56946 0,0.60271 0.18757,1.09584 0.41683,1.09584 0.22926,0 0.41684,-0.9059 0.41684,-2.0131 z m -7.64002,-4.51784 c 1.20488,-1.36992 0.40824,-3.94407 -1.58391,-5.11804 -1.39483,-0.82198 -1.61381,-0.73662 -1.61381,0.62898 0,0.88 0.55402,1.58 1.25051,1.58 0.68778,0 1.25051,0.354 1.25051,0.78667 0,0.43266 -0.55096,0.78666 -1.22435,0.78666 -0.7458,0 -1.03678,0.46122 -0.74448,1.18 0.59007,1.451 1.48056,1.50302 2.66553,0.15573 z m 2.10579,-5.66239 c -0.52283,-1.28568 -1.96882,-1.6227 -1.96882,-0.45889 0,0.59708 0.58427,1.00356 2.26644,1.57678 0.10023,0.0341 -0.0337,-0.46889 -0.29762,-1.11789 z m -5.01633,-4.12932 c 1.76277,-1.03634 3.00627,-2.07181 2.76335,-2.30105 -0.24293,-0.22922 -1.29973,0.15033 -2.34845,0.84346 -2.64138,1.74578 -2.96792,1.6048 -2.54726,-1.09976 0.42958,-2.76186 -0.59522,-3.02302 -2.80816,-0.71562 -1.47248,1.53533 -1.48343,1.709 -0.1651,2.61863 1.32618,0.91505 1.32551,1.05671 -0.0111,2.33146 -1.34296,1.28084 -1.32921,1.32485 0.2443,0.78218 0.91704,-0.31627 3.10962,-1.42296 4.87239,-2.4593 z m 2.21384,-4.13068 c 0,-0.43267 -0.37516,-0.78667 -0.83368,-0.78667 -0.45852,0 -0.83367,0.354 -0.83367,0.78667 0,0.43266 0.37515,0.78666 0.83367,0.78666 0.45852,0 0.83368,-0.354 0.83368,-0.78666 z m -2.50102,-3.54 c 0,-0.649 -0.14744,-1.18 -0.32764,-1.18 -0.18021,0 -0.54358,0.531 -0.80751,1.18 -0.26393,0.649 -0.11649,1.18 0.32764,1.18 0.44413,0 0.80751,-0.531 0.80751,-1.18 z m -12.93033,-6.6995 c -0.288,-0.43972 -0.87287,-0.59584 -1.29971,-0.34691 -1.15633,0.67436 -0.94072,1.14641 0.52365,1.14641 0.71484,0 1.06406,-0.35978 0.77606,-0.7995 z m 3.22411,-0.38943 c -0.34597,-0.85074 -0.10139,-1.05056 0.85984,-0.7025 1.58701,0.57466 1.79689,-0.71772 0.30124,-1.85499 -0.70106,-0.53307 -1.72415,-0.52538 -3.12627,0.0235 -1.70896,0.669 -1.82152,0.87552 -0.62526,1.14708 0.80241,0.18216 1.45893,0.83624 1.45893,1.45351 0,0.61728 0.36338,1.12232 0.80751,1.12232 0.44412,0 0.58993,-0.53501 0.32401,-1.18892 z m 5.8655,-0.0555 c 0.70908,-1.7436 0.65509,-1.90228 -0.64725,-1.90228 -0.6343,0 -1.34948,0.708 -1.58929,1.57333 -0.52413,1.89125 1.48126,2.18624 2.23654,0.32899 z M 210.96738,180.0502 c -0.60181,-0.22725 -1.32085,-0.19931 -1.59787,0.0621 -0.27702,0.2614 0.21537,0.44733 1.09419,0.41318 0.97119,-0.0378 1.16873,-0.22416 0.50368,-0.47528 z m -89.5348,-17.08328 c -0.59123,-0.60537 -1.20631,-0.98292 -1.36686,-0.83901 -0.49448,0.44326 0.75876,1.93967 1.62448,1.93967 0.44954,0 0.33361,-0.4953 -0.25762,-1.10066 z m 75.6229,-6.76601 c -0.28339,-0.43267 -0.68068,-0.78667 -0.88288,-0.78667 -0.2022,0 -0.36763,0.354 -0.36763,0.78667 0,0.43267 0.39729,0.78667 0.88287,0.78667 0.48558,0 0.65102,-0.354 0.36764,-0.78667 z m -51.93779,-8.024 c -0.77809,-0.73422 -1.22272,-0.73422 -2.00081,0 -0.77809,0.73422 -0.55579,0.944 1.0004,0.944 1.55619,0 1.7785,-0.20978 1.00041,-0.944 z m 213.25338,283.40376 c 0,-1.70906 -1.36064,-2.88132 -1.82351,-1.57103 -0.1642,0.46487 -0.29856,-0.57497 -0.29856,-2.31075 0,-2.09712 -0.58423,-3.76467 -1.74133,-4.9703 -1.6508,-1.72002 -3.97457,-6.87387 -3.36053,-7.45328 0.15764,-0.14876 0.96458,1.05915 1.79318,2.68423 0.82861,1.62509 1.81528,3.4857 2.19261,4.1347 3.36033,5.77965 5.322,11.01334 4.128,11.01334 -0.48943,0 -0.88986,-0.68711 -0.88986,-1.52691 z M 347.68124,410.2254 c -0.60341,-0.91174 -0.93699,-1.80878 -0.74131,-1.99344 0.57838,-0.54576 2.44443,1.93564 2.1284,2.83027 -0.15949,0.45148 -0.78368,0.0749 -1.38709,-0.83683 z m -2.1291,-5.0749 c -0.80447,-1.97823 -0.56715,-2.48866 0.41561,-0.89392 0.48661,0.78961 0.70913,1.60138 0.49448,1.80392 -0.21465,0.20255 -0.62419,-0.20696 -0.91009,-0.91 z m -15.84688,-21.18192 c -1.70572,-2.45647 -1.6916,-2.90583 0.0823,-2.61883 0.88969,0.14395 1.53564,-0.36243 1.71216,-1.34217 0.23918,-1.32755 0.13492,-1.389 -0.66735,-0.39334 -0.7866,0.97622 -0.88224,0.8831 -0.55378,-0.5392 0.23723,-1.02724 -0.0692,-1.88801 -0.76136,-2.13863 -0.63707,-0.2307 -1.15834,-0.81406 -1.15834,-1.29637 0,-1.68168 1.72908,-0.31357 3.85472,3.04998 1.91232,3.02604 1.97663,3.36132 0.60206,3.13937 -1.21514,-0.1962 -1.50591,0.20669 -1.38198,1.91485 0.19276,2.65691 -0.0201,2.68454 -1.72841,0.22434 z m -3.01374,-4.52596 c 0,-0.52706 -0.95655,-1.73389 -2.12569,-2.68185 -1.5276,-1.23862 -2.17826,-2.61116 -2.31256,-4.87823 -0.10279,-1.73508 0.10347,-2.98536 0.45834,-2.7784 0.35487,0.20696 0.64522,0.75887 0.64522,1.22647 0,0.4676 0.65652,1.32045 1.45893,1.89522 1.38026,0.9887 1.37584,1.04639 -0.0821,1.07006 -1.33826,0.0217 -1.22858,0.37185 0.83368,2.66097 1.30609,1.44978 2.65178,2.4934 2.99041,2.31915 0.33864,-0.17425 0.39229,0.23257 0.11923,0.90404 -0.5887,1.44763 -1.98544,1.63235 -1.98544,0.26257 z m -31.55464,-48.01171 c -0.0687,-0.75717 -0.50006,-1.37667 -0.95858,-1.37667 -0.45852,0 -0.83367,-0.649 -0.83367,-1.44222 0,-0.79323 -0.26096,-1.68847 -0.57991,-1.98944 -0.91021,-0.85888 -1.0164,-2.81024 -0.17951,-3.29831 0.41768,-0.24358 0.75942,0.16964 0.75942,0.91827 0,0.74863 0.59085,1.97722 1.313,2.73019 0.78825,0.8219 1.17135,2.26143 0.95858,3.60195 -0.19493,1.22809 -0.41062,1.6134 -0.47933,0.85623 z m -35.97281,-67.10976 c 0,-0.67454 0.37515,-1.00765 0.83367,-0.74024 0.45852,0.2674 0.83367,0.8193 0.83367,1.22643 0,0.40713 -0.37515,0.74024 -0.83367,0.74024 -0.45852,0 -0.83367,-0.5519 -0.83367,-1.22643 z m 2.97972,-1.65845 c -0.29336,-0.72135 -0.14591,-1.67715 0.32764,-2.124 0.59221,-0.55883 0.861,-0.14941 0.861,1.31154 0,2.42675 -0.41642,2.71138 -1.18864,0.81246 z m -5.03889,-4.15692 c -0.29713,-0.45368 0.0133,-0.82487 0.68998,-0.82487 0.67664,0 1.41946,-0.4425 1.65073,-0.98333 0.26421,-0.61787 0.44496,-0.65367 0.48631,-0.0963 0.10124,1.36441 -2.17597,2.89853 -2.82702,1.90452 z m 0.0106,-4.70385 c -0.26381,-0.40277 -0.0984,-0.95466 0.36763,-1.22643 0.466,-0.27176 0.84727,0.0577 0.84727,0.73231 0,1.38181 -0.50025,1.58526 -1.2149,0.49412 z M 129.52802,152.26758 c -0.28338,-0.43267 -0.11795,-0.78667 0.36763,-0.78667 0.48558,0 0.88288,0.354 0.88288,0.78667 0,0.43266 -0.16544,0.78666 -0.36764,0.78666 -0.2022,0 -0.59949,-0.354 -0.88287,-0.78666 z m -4.41745,-5.35982 c -1.26947,-0.92177 -1.73187,-1.84533 -1.36973,-2.73585 0.70048,-1.72248 3.16769,-1.72957 4.64301,-0.0133 0.97321,1.13213 0.97031,1.23214 -0.0195,0.66933 -0.92398,-0.52538 -1.0495,-0.23242 -0.60937,1.42233 0.64555,2.42702 0.0102,2.58499 -2.6444,0.65751 z m -3.86568,-5.09745 c 0.31307,-0.77582 0.77923,-1.21242 1.03591,-0.97022 0.25667,0.24221 5.3e-4,0.87697 -0.56922,1.4106 -0.82335,0.77114 -0.91911,0.68078 -0.46669,-0.44038 z m -16.11613,-6.28638 c -3.36362,-7.00979 -3.4922,-8.6657 -0.24079,-3.10066 2.10725,3.6067 4.04872,8.88351 3.23923,8.80399 -0.15107,-0.0149 -1.50036,-2.58134 -2.99844,-5.70333 z m 39.98803,3.44742 c 0.21441,-1.37851 0.0773,-2.68868 -0.30483,-2.91151 -0.38207,-0.22281 -0.68275,-0.82673 -0.66817,-1.34203 0.0146,-0.5153 0.57732,-0.24974 1.25051,0.59012 1.45543,1.81575 1.60546,4.84433 0.27832,5.6183 -0.65625,0.38272 -0.82637,-0.21555 -0.55583,-1.95488 z m -20.17397,-0.0771 c 0,-0.98563 0.88473,-0.98563 2.50102,0 1.01121,0.61665 0.89156,0.76488 -0.62526,0.77462 -1.03167,0.007 -1.87576,-0.34195 -1.87576,-0.77462 z m -22.50915,-11.70715 c 0,-0.43266 0.37515,-1.00544 0.83367,-1.27285 0.45852,-0.2674 0.83367,-0.13218 0.83367,0.30049 0,0.43266 -0.37515,1.00544 -0.83367,1.27285 -0.45852,0.2674 -0.83367,0.13218 -0.83367,-0.30049 z m 7.09863,-10.54073 c 0.80517,-1.20334 1.67365,-1.99 1.92995,-1.74815 0.25632,0.24185 -0.40246,1.22641 -1.46393,2.18789 l -1.92995,1.74814 1.46393,-2.18788 z m 66.68137,-11.57878 c -0.28338,-0.43267 -0.11795,-0.78667 0.36763,-0.78667 0.48558,0 0.88288,0.354 0.88288,0.78667 0,0.43266 -0.16544,0.78666 -0.36764,0.78666 -0.2022,0 -0.59949,-0.354 -0.88287,-0.78666 z m -7.91989,-14.946671 c 0,-0.432667 0.16543,-0.786667 0.36763,-0.786667 0.2022,0 0.5995,0.354 0.88288,0.786667 0.28338,0.432666 0.11795,0.786666 -0.36763,0.786666 -0.48558,0 -0.88288,-0.354 -0.88288,-0.786666 z m -1.2639,-3.422676 C 165.07255,84.60938 160.79562,75.199722 160.85416,73.11104 l 0.0634,-2.263465 0.97866,2.500208 c 0.53827,1.375115 1.26003,2.761615 1.60392,3.081111 0.34389,0.319497 0.62526,1.089993 0.62526,1.712214 0,0.62222 0.94847,2.913219 2.10773,5.091107 2.1102,3.964426 2.38534,5.161392 0.79672,3.466018 z m -28.46833,-4.890202 c -0.27575,-0.678083 -0.15771,-1.557162 0.26232,-1.953511 0.46248,-0.436399 0.83127,0.04988 0.93503,1.232878 0.193,2.200371 -0.44053,2.581663 -1.19735,0.720633 z"
       style="fill:#de8787;fill-opacity:1" />
    <path
       inkscape:connector-curvature="0"
       id="path3026"
       d="m 355.58409,476.16715 c -1.47729,-1.6918 -6.03364,-10.29369 -38.43415,-72.55957 -8.10507,-15.576 -16.00269,-30.73954 -17.55026,-33.69675 -3.20866,-6.13138 -3.07543,-7.65982 0.64286,-7.37529 2.4183,0.18506 2.61914,0.45651 3.53302,4.77519 0.53292,2.51843 1.459,4.86476 2.05794,5.21406 0.61795,0.36038 0.8906,1.3509 0.63035,2.29001 -0.25225,0.91022 -0.11847,1.45656 0.29729,1.2141 0.41576,-0.24247 0.76166,0.0226 0.76868,0.58891 0.009,0.74827 0.23368,0.70721 0.82091,-0.15023 1.06022,-1.54806 1.04829,-0.63506 -0.0266,2.03257 -0.76073,1.88804 -0.71018,2.01749 0.43698,1.11911 1.73343,-1.35751 2.63077,-0.38708 1.17383,1.26944 -1.04015,1.18265 -0.94946,1.25113 0.91676,0.69221 1.71462,-0.51351 1.90558,-0.4315 1.10947,0.47652 -1.40413,1.6015 -0.45492,5.43896 1.19736,4.84067 0.87004,-0.31504 1.09742,-0.15982 0.68601,0.46832 -0.99329,1.51655 0.32952,5.538 2.49326,7.57974 1.13734,1.07322 1.6457,2.0984 1.17629,2.37216 -1.36356,0.79521 -0.93195,2.16903 0.51664,1.6445 0.9463,-0.34266 1.20524,-0.14686 0.87614,0.66244 -0.33522,0.8243 -0.067,1.00744 0.94926,0.6483 1.1274,-0.3984 1.23082,-0.26982 0.50677,0.63006 -0.50034,0.62185 -0.6498,1.83862 -0.33214,2.70396 0.31767,0.86533 0.86458,2.36983 1.21536,3.34333 0.35078,0.9735 1.1639,1.77 1.80694,1.77 0.81659,0 1.0183,0.56719 0.66889,1.88085 -0.29702,1.1167 -0.0808,2.12548 0.53228,2.48301 0.74172,0.43256 0.90013,0.12438 0.56243,-1.09418 -0.25855,-0.93299 -0.17381,-1.69635 0.18833,-1.69635 0.36214,0 0.83555,0.87429 1.05203,1.94286 0.21647,1.06857 0.0726,1.75569 -0.31965,1.52691 -1.04382,-0.60874 -0.87109,0.78329 0.37941,3.05772 0.98543,1.79232 1.19123,1.85905 2.09729,0.67993 0.83651,-1.08861 0.96602,-0.76909 0.77389,1.90921 -0.12691,1.76915 0.0646,3.53915 0.42567,3.93333 4.30539,4.70075 4.78087,5.53927 4.30954,7.60004 -0.41538,1.81613 -0.21657,2.16334 1.23878,2.16334 1.17781,0 1.73359,0.5044 1.73359,1.57333 0,0.86533 0.28357,1.57333 0.63017,1.57333 1.04562,0 2.87191,4.61467 2.22012,5.60982 -0.38031,0.58067 -0.24756,0.71705 0.35559,0.3653 0.6085,-0.35486 0.96248,0.0344 0.96248,1.05845 0,0.89087 0.50943,1.61977 1.13206,1.61977 0.65845,0 1.44569,1.3987 1.88174,3.34333 0.57575,2.56769 1.13511,3.34748 2.41105,3.36121 1.3226,0.0142 1.61,0.46998 1.40947,2.23511 -0.15889,1.39851 0.072,2.02835 0.62526,1.7057 0.51601,-0.30093 0.8824,0.23631 0.88991,1.30488 0.0176,2.49705 1.2342,4.12111 2.52386,3.36901 0.65752,-0.38347 0.84779,-0.29825 0.50446,0.22593 -0.30317,0.46289 0.33344,1.84508 1.41468,3.07155 2.68449,3.04505 4.05762,5.65045 3.45938,6.56385 -0.29023,0.44313 0.0982,0.54528 0.92912,0.2444 1.13612,-0.4114 1.33456,-0.18051 0.97133,1.13015 -0.32895,1.18699 -0.13348,1.5302 0.69966,1.22852 0.69651,-0.2522 1.15616,0.095 1.15616,0.8732 0,1.0297 0.3245,1.12797 1.5991,0.48429 0.8795,-0.44416 2.66868,-0.60571 3.97594,-0.35899 1.91374,0.36116 2.94225,-0.0615 5.2787,-2.16943 1.59602,-1.4399 3.18322,-2.52981 3.52711,-2.42202 1.26644,0.39694 0.61125,-6.38141 -0.75447,-7.80542 -0.7588,-0.79124 -0.96852,-1.43861 -0.46599,-1.43861 1.21748,0 1.92899,1.18694 2.73632,4.56474 1.23721,5.17629 -2.80957,9.26849 -12.08524,12.2209 -5.44065,1.73172 -7.25688,1.63737 -9.09943,-0.47273 z m 16.63177,-19.13058 c -0.91139,-2.24114 -0.47859,-3.11424 0.77099,-1.55531 0.6732,0.83987 1.224,1.81337 1.224,2.16334 0,1.12602 -1.47229,0.67729 -1.99499,-0.60803 z m -2.14802,-3.04299 c -0.0185,-1.69238 0.22374,-2.08562 0.8947,-1.45249 0.6594,0.62221 0.66658,1.2797 0.0254,2.32067 -0.78435,1.27332 -0.89784,1.16622 -0.92006,-0.86818 z m -2.40205,-6.46377 c -0.61941,-0.63382 -0.95423,-1.31467 -0.74406,-1.513 0.21018,-0.19832 0.86421,0.18752 1.45341,0.85743 1.39153,1.58216 0.76343,2.16264 -0.70935,0.65557 z m -2.15491,-4.75164 c -0.45241,-1.12116 -0.35666,-1.21151 0.46669,-0.44038 0.56975,0.53363 0.8259,1.16839 0.56922,1.4106 -0.25668,0.24221 -0.72284,-0.19439 -1.03591,-0.97022 z m -7.59092,-13.65626 c -0.30224,-0.46146 -0.37072,-1.00772 -0.15219,-1.21393 0.21852,-0.20621 0.61947,0.17134 0.89099,0.839 0.56371,1.38619 0.0833,1.63002 -0.7388,0.37493 z m -34.49731,-64.97999 c -0.0362,-0.50545 -0.28172,-1.56745 -0.5456,-2.36 -0.45606,-1.36976 -0.43254,-1.37148 0.47584,-0.0347 0.52559,0.77347 0.77112,1.83547 0.5456,2.36 -0.29594,0.68833 -0.42833,0.69799 -0.47584,0.0347 z M 304.6532,362.39 c -0.25369,-0.38732 0.0802,-0.9003 0.74201,-1.13993 0.80264,-0.29064 1.04891,-0.0562 0.73969,0.70424 -0.53739,1.32145 -0.84275,1.41125 -1.4817,0.43569 z m 3.39605,-1.26242 c 0.26393,-0.649 0.62731,-1.18 0.80751,-1.18 0.1802,0 0.32765,0.531 0.32765,1.18 0,0.649 -0.36339,1.18 -0.80752,1.18 -0.44412,0 -0.59156,-0.531 -0.32764,-1.18 z m -10.02683,-1.50531 c -0.27776,-1.04427 -11.52764,-22.90377 -24.99974,-48.57667 -13.47211,-25.67292 -30.16035,-57.5899 -37.08499,-70.92665 -6.92464,-13.33673 -13.27723,-24.84173 -14.11685,-25.56666 -0.83963,-0.72492 -2.49266,-3.44205 -3.6734,-6.03805 -5.20938,-11.45346 -6.05793,-13.10852 -6.98252,-13.61901 -1.06727,-0.58927 -5.59095,-8.78174 -6.5972,-11.94765 -1.1849,-3.72798 -4.6417,-10.07547 -5.69469,-10.45676 -0.5805,-0.2102 -2.35239,-3.06428 -3.93752,-6.3424 -2.78138,-5.75199 -4.3518,-7.06598 -6.27547,-5.25077 -0.76686,0.72361 -13.22607,4.43476 -21.24201,6.32722 -2.04019,0.48166 -5.96036,1.40786 -8.71148,2.05821 -15.22397,3.59889 -14.93386,3.58799 -25.42701,0.95593 -10.79844,-2.70862 -12.12116,-3.23795 -13.30438,-5.32416 -0.62474,-1.10151 -0.53448,-1.5864 0.35528,-1.90857 0.83247,-0.30145 1.03689,-0.0486 0.67672,0.83707 -0.28382,0.69795 -0.17094,1.1038 0.25088,0.90189 0.42181,-0.2019 2.90886,-1.35693 5.52678,-2.56672 2.61791,-1.20979 5.19613,-2.69567 5.72936,-3.30195 0.53324,-0.60628 1.47767,-1.10233 2.09873,-1.10233 0.62107,0 1.74373,-0.885 2.49482,-1.96666 0.75108,-1.08167 1.88519,-1.96667 2.52024,-1.96667 0.63504,0 1.15462,-0.32086 1.15462,-0.71302 0,-0.39216 0.71196,-0.53734 1.58212,-0.32261 2.36145,0.58271 5.42797,-1.16911 4.29714,-2.45486 -1.39944,-1.59114 1.17254,-3.34889 2.90963,-1.98851 0.97395,0.76273 1.51994,0.78609 2.25092,0.0963 0.53079,-0.50087 2.14494,-0.91066 3.58698,-0.91066 1.56583,0 3.23156,-0.63567 4.13547,-1.57816 0.83245,-0.86798 1.69023,-1.41145 1.90617,-1.20768 0.21593,0.20377 1.09359,0.0164 1.95034,-0.41619 1.98019,-1.00001 1.99903,-3.69755 0.0404,-5.79394 -2.50493,-2.68127 -7.9152,-11.38024 -12.01842,-19.32403 -6.10235,-11.81413 -13.03347,-30.509441 -11.93366,-32.188643 0.26753,-0.408456 0.10513,-0.965 -0.36086,-1.236765 -1.07397,-0.626325 -1.10519,-1.974597 -0.0457,-1.974597 0.44085,0 1.21313,1.5045 1.7162,3.343334 2.66825,9.753172 14.06085,33.354491 18.01529,37.321121 1.21115,1.21489 2.80777,3.465 3.54803,5.00025 0.74027,1.53526 3.17349,4.80976 5.40715,7.27666 3.15939,3.4893 4.58318,4.4853 6.41177,4.4853 1.2928,0 2.54978,-0.30419 2.79328,-0.67596 0.2435,-0.37179 3.26873,-1.97629 6.72275,-3.56558 5.19413,-2.38996 6.57994,-2.73813 8.01459,-2.01363 2.4699,1.24732 3.01078,0.26628 0.9986,-1.81126 -2.6414,-2.72721 -9.62344,-14.53854 -9.23844,-15.62842 0.18853,-0.53371 1.24138,0.4198 2.33966,2.11891 1.09827,1.6991 2.76047,3.61129 3.69376,4.24932 1.95606,1.3372 5.30737,1.14465 7.15768,-0.41124 0.70143,-0.58981 2.45161,-1.53909 3.88929,-2.10951 2.40944,-0.95597 8.70095,-5.58371 13.39031,-9.84929 1.07022,-0.9735 2.13837,-1.77 2.37368,-1.77 0.45431,0 7.1276,-4.77385 7.83311,-5.60354 0.22926,-0.26962 1.72987,-1.33515 3.33469,-2.36786 2.92073,-1.879492 5.11859,-3.566725 10.87964,-8.351938 1.69292,-1.406167 3.65885,-2.556667 4.36873,-2.556667 0.70989,0 3.29049,1.710778 5.73467,3.801727 2.44418,2.09095 5.28806,4.470623 6.31973,5.288163 2.17698,1.725135 2.44206,4.433985 0.57683,5.894705 -0.71442,0.55947 -3.88056,4.23132 -7.03589,8.15965 -3.15533,3.92833 -6.6994,8.20442 -7.87573,9.50242 -1.17633,1.298 -3.5317,3.953 -5.23414,5.9 -4.19095,4.79299 -11.18771,11.01334 -12.38799,11.01334 -0.53757,0 -1.4586,0.54711 -2.04672,1.2158 -0.58812,0.66869 -1.57395,1.03307 -2.19073,0.80974 -0.77883,-0.28202 -0.61068,0.5386 0.5504,2.68619 0.9195,1.70074 1.67182,3.60372 1.67182,4.22884 0,0.62513 -1.72069,2.08812 -3.82375,3.25111 l -3.82375,2.11452 -1.80354,-1.58813 c -2.8656,-2.52332 -5.78295,-2.82868 -9.85776,-1.0318 -5.3361,2.35307 -6.16547,3.27358 -6.24576,6.93213 -0.0565,2.57455 0.26268,3.36097 1.48673,3.66302 1.02308,0.25245 1.55867,1.09419 1.55867,2.44962 0,2.13074 2.23712,3.67865 3.21041,2.22134 1.7083,-2.55783 15.13039,-6.09799 15.13039,-3.99074 0,0.77623 -0.91532,0.9909 -3.30726,0.77565 -3.57932,-0.3221 -7.23651,1.33129 -10.74934,4.85969 l -1.93991,1.94851 1.74571,0.88159 c 0.96014,0.48488 1.74571,1.33643 1.74571,1.89233 0,0.55589 1.38288,2.53522 3.07308,4.39848 2.5699,2.83308 2.77465,3.29839 1.2505,2.84192 -2.09065,-0.62613 -2.41845,0.47421 -0.57205,1.92019 0.68778,0.53862 1.25051,1.60062 1.25051,2.36 0,1.89882 2.16264,3.57764 2.82908,2.19616 0.26962,-0.55889 0.28082,-0.21966 0.0249,0.75384 -0.56889,2.16393 -0.31917,2.17758 3.59766,0.19666 1.71099,-0.86533 3.67919,-1.56078 4.37375,-1.54545 0.78303,0.0173 0.50466,0.4244 -0.73264,1.07147 -2.93447,1.53466 -5.29915,6.47372 -4.02279,8.40227 0.65465,0.98915 1.56452,1.35045 2.67183,1.06097 1.39852,-0.36563 1.47014,-0.28891 0.4286,0.4591 -1.02691,0.73751 -1.04731,0.97473 -0.11408,1.32676 0.84619,0.31919 0.88365,0.57608 0.14666,1.00589 -0.74286,0.43322 -0.64111,1.34166 0.40786,3.64143 1.24893,2.7382 1.47452,2.89683 2.12019,1.4909 0.65136,-1.41836 0.71231,-1.37961 0.61864,0.39333 -0.21651,4.09858 0.10316,4.83659 2.03119,4.68922 3.06008,-0.2339 3.22706,-0.059 1.84457,1.93196 -1.11148,1.60069 -1.14747,2.16553 -0.22763,3.57377 0.67584,1.0347 1.66841,1.53297 2.60261,1.3065 1.14553,-0.2777 1.46783,0.0465 1.33497,1.3429 -0.17799,1.73666 0.4071,3.75792 1.80097,6.22164 0.42505,0.7513 0.77281,1.91425 0.77281,2.58434 0,0.98975 0.32499,1.05424 1.73201,0.34368 0.99195,-0.50094 1.53745,-1.35309 1.27667,-1.99434 -0.25047,-0.61582 -0.092,-1.11967 0.35214,-1.11967 0.44413,0 0.80751,1.08289 0.80751,2.40643 0,1.63699 -0.31186,2.22455 -0.97535,1.83761 -0.66498,-0.3878 -0.79761,-0.13177 -0.41683,0.80458 0.30718,0.75537 0.57044,2.14094 0.58502,3.07905 0.0247,1.58542 0.10458,1.60861 1.134,0.329 0.60912,-0.75717 1.31768,-1.37667 1.57459,-1.37667 1.0508,0 1.47856,4.74355 0.57191,6.34213 -0.6635,1.16986 -0.68113,1.54457 -0.0555,1.17971 0.55329,-0.32268 0.91684,0.10758 0.91684,1.08506 0,2.09044 1.34804,2.07931 2.53924,-0.0209 0.5118,-0.90239 1.11812,-1.46371 1.34738,-1.24737 0.22926,0.21633 0.0229,1.08786 -0.45851,1.93672 -0.56055,0.98832 -0.61769,2.78078 -0.15889,4.98404 0.39405,1.89236 0.76898,2.90965 0.83315,2.26065 0.0935,-0.94563 0.2862,-0.90533 0.97014,0.2029 0.46939,0.7606 0.5975,1.77367 0.28468,2.25128 -0.31282,0.47762 -0.23934,1.09432 0.16329,1.37044 0.83768,0.57449 3.17752,4.90305 4.50935,8.34206 0.73231,1.89093 1.06299,2.11467 1.74406,1.18 0.66092,-0.90701 0.74203,-0.8173 0.37972,0.41999 -0.25337,0.86533 0.0972,2.5873 0.77907,3.82659 0.68186,1.23929 1.23975,2.74379 1.23975,3.34333 0,0.59955 0.3576,1.09008 0.79467,1.09008 0.43706,0 1.55364,1.61907 2.48129,3.59793 0.92764,1.97886 2.03314,3.39584 2.45666,3.14885 0.42351,-0.24698 0.77003,0.76575 0.77003,2.25053 0,1.65738 0.67771,3.38602 1.75542,4.47758 0.96548,0.97789 2.20382,2.94809 2.75186,4.37822 1.09847,2.86649 2.6224,3.34102 3.9294,1.22356 0.70494,-1.14208 0.85406,-1.1677 0.8751,-0.15036 0.0139,0.67447 -0.52545,1.91347 -1.19865,2.75333 -1.17313,1.46357 -1.8277,4.27554 -0.76093,3.26893 0.62234,-0.58726 2.8186,1.35578 2.8186,2.49363 0,0.44436 0.93788,2.11205 2.08418,3.70598 2.22554,3.09459 2.7978,5.54751 1.05744,4.53256 -0.5647,-0.32933 -0.18955,0.40552 0.83367,1.63299 1.02323,1.22748 1.86042,2.71504 1.86042,3.30569 0,0.59066 0.28136,1.07416 0.62525,1.07447 0.34389,3e-4 0.67829,0.86907 0.7431,1.9306 0.11267,1.8452 3.18339,6.32884 4.33444,6.32884 0.30237,0 0.54975,0.77675 0.54975,1.72611 0,0.94936 0.46894,2.17066 1.04209,2.714 0.57315,0.54334 1.04209,1.46899 1.04209,2.05699 0,0.588 0.39019,0.84153 0.86709,0.56342 0.5678,-0.33114 0.67452,0.26377 0.3092,1.72357 -0.45903,1.83424 -0.36155,2.05501 0.55015,1.24591 1.76593,-1.56717 2.66586,-1.14569 2.09958,0.98334 -0.52851,1.98701 0.67979,2.80217 1.45756,0.98333 0.23127,-0.54083 0.45011,-0.20442 0.48631,0.74758 0.0362,0.952 0.67571,2.05298 1.42115,2.44662 0.9829,0.51905 1.25799,1.50254 1.00107,3.57909 -0.19484,1.57485 -0.0896,2.86338 0.23397,2.86338 0.32352,0 0.39201,0.708 0.1522,1.57333 -0.23981,0.86533 -0.10735,1.57333 0.29434,1.57333 0.40171,0 1.19895,-0.708 1.77165,-1.57333 1.38155,-2.08748 3.07097,-2.13371 1.89014,-0.0517 -0.99232,1.74965 -1.1715,7.12869 -0.23774,7.13786 0.82318,0.008 2.70943,3.87955 2.70943,5.56104 0,0.72609 0.56736,1.76449 1.26079,2.30753 0.95898,0.75101 1.03433,1.24486 0.31476,2.063 -1.37531,1.5637 -2.16162,1.32696 -2.73347,-0.82302 z m -7.59564,-22.48803 c -0.28338,-0.43266 -0.68068,-0.78666 -0.88288,-0.78666 -0.2022,0 -0.36763,0.354 -0.36763,0.78666 0,0.43267 0.39729,0.78667 0.88287,0.78667 0.48559,0 0.65102,-0.354 0.36764,-0.78667 z m -18.65586,-34.35766 c -0.72659,-1.17904 -0.88927,-1.21302 -0.91009,-0.19012 -0.0269,1.32481 0.84967,2.51765 1.44052,1.96012 0.19487,-0.18389 -0.0439,-0.98039 -0.53043,-1.77 z m -34.61233,-67.69595 c -0.27702,-0.2614 -0.47406,0.20323 -0.43786,1.0325 0.04,0.91643 0.23755,1.10283 0.50367,0.47528 0.24083,-0.56788 0.21121,-1.24638 -0.0658,-1.50778 z m 83.28039,122.97755 c -1.55218,-1.7577 -2.93558,-4.40397 -2.29966,-4.39897 0.34778,0.002 1.30055,1.11269 2.11727,2.46656 1.53909,2.55128 1.63603,3.57851 0.18239,1.93241 z M 300.963,357.32536 c -0.69829,-0.79395 -0.62178,-1.0489 0.31476,-1.0489 0.68049,0 1.23727,0.472 1.23727,1.0489 0,0.57688 -0.14164,1.04888 -0.31476,1.04888 -0.17312,0 -0.72989,-0.472 -1.23727,-1.04888 z m 2.3857,-8.34469 c 0,-0.40713 0.37086,-0.95652 0.82413,-1.22086 0.47257,-0.2756 0.61233,0.0402 0.32764,0.74024 -0.55422,1.36284 -1.15177,1.61219 -1.15177,0.48062 z m 4.16836,-6.77952 c 0,-0.67454 0.37515,-1.00765 0.83367,-0.74024 0.45852,0.2674 0.83368,0.8193 0.83368,1.22643 0,0.40713 -0.37516,0.74024 -0.83368,0.74024 -0.45852,0 -0.83367,-0.5519 -0.83367,-1.22643 z m -30.0122,-54.97381 c 0,-0.1908 0.37515,-0.56569 0.83367,-0.8331 0.45852,-0.2674 0.83367,-0.1113 0.83367,0.34691 0,0.4582 -0.37515,0.83309 -0.83367,0.83309 -0.45852,0 -0.83367,-0.1561 -0.83367,-0.3469 z m -28.3607,-41.72176 c 1.20059,-1.36505 1.68318,-1.50713 1.68318,-0.4955 0,0.38638 -0.61579,0.92548 -1.36842,1.198 -1.1442,0.41432 -1.19577,0.2992 -0.31476,-0.7025 z m 4.1842,-5.13134 c 0,-0.43266 0.37515,-0.78666 0.83367,-0.78666 0.45852,0 0.83367,0.354 0.83367,0.78666 0,0.43267 -0.37515,0.78667 -0.83367,0.78667 -0.45852,0 -0.83367,-0.354 -0.83367,-0.78667 z m -16.67345,-34.22 c 0,-0.649 0.37515,-1.18 0.83367,-1.18 0.45852,0 0.83368,0.531 0.83368,1.18 0,0.649 -0.37516,1.18 -0.83368,1.18 -0.45852,0 -0.83367,-0.531 -0.83367,-1.18 z m -12.13662,-17.77385 c -0.25678,-0.39205 0.14014,-0.71281 0.88205,-0.71281 0.75905,0 1.10397,-0.37397 0.78878,-0.85521 -0.30806,-0.47035 -1.26809,-0.68049 -2.13338,-0.46698 -0.86529,0.21353 -1.57326,0.0674 -1.57326,-0.3248 0,-0.39216 0.93788,-0.71301 2.08418,-0.71301 1.1463,0 2.36555,-0.0885 2.70944,-0.19667 0.34389,-0.10817 0.73872,0.55369 0.87741,1.47079 0.17204,1.13765 -0.29125,1.80155 -1.45809,2.08948 -0.94065,0.23211 -1.92035,0.10126 -2.17713,-0.29079 z m -4.11999,-14.08615 c -0.28338,-0.43266 -0.14008,-0.78666 0.31844,-0.78666 0.45852,0 1.06552,0.354 1.34891,0.78666 0.28338,0.43267 0.14008,0.78667 -0.31844,0.78667 -0.45852,0 -1.06553,-0.354 -1.34891,-0.78667 z m -2.74099,-3.95843 c -0.55579,-0.83979 -0.99551,-1.97419 -0.97715,-2.52089 0.0183,-0.5467 0.61044,0.0108 1.31575,1.23887 1.46494,2.55078 1.19002,3.59172 -0.3386,1.28202 z m -21.01867,-9.4149 c 0,-0.43267 0.16543,-0.78667 0.36763,-0.78667 0.2022,0 0.5995,0.354 0.88288,0.78667 0.28338,0.43267 0.11795,0.78667 -0.36763,0.78667 -0.48558,0 -0.88288,-0.354 -0.88288,-0.78667 z m -80.73796,-4.05436 c -0.9612,-1.83322 -1.55045,-3.51919 -1.30945,-3.7466 0.61461,-0.57995 1.99533,1.6877 1.49382,2.4534 -0.22607,0.34515 -0.0575,0.62756 0.37461,0.62756 0.4321,0 1.00209,0.78104 1.26665,1.73564 0.80545,2.90641 0.017,2.4443 -1.82563,-1.07 z m 83.65581,1.69436 c -0.28338,-0.43267 -0.11794,-0.78667 0.36764,-0.78667 0.48558,0 0.88287,0.354 0.88287,0.78667 0,0.43267 -0.16543,0.78667 -0.36763,0.78667 -0.2022,0 -0.59949,-0.354 -0.88288,-0.78667 z m -87.00113,-8.36744 c -1.0015,-2.10865 -0.97998,-2.16954 0.3367,-0.95315 0.7736,0.71467 1.25504,1.72832 1.06984,2.25255 -0.18518,0.52424 -0.81813,-0.0605 -1.40654,-1.2994 z m 29.06091,-4.21923 c 0,-0.43266 0.37515,-0.78666 0.83367,-0.78666 0.45852,0 0.83367,0.354 0.83367,0.78666 0,0.43267 -0.37515,0.78667 -0.83367,0.78667 -0.45852,0 -0.83367,-0.354 -0.83367,-0.78667 z M 124.94282,145.234 c 0,-0.4582 0.37515,-0.83309 0.83367,-0.83309 0.45852,0 0.83367,0.1561 0.83367,0.3469 0,0.1908 -0.37515,0.56569 -0.83367,0.8331 -0.45852,0.2674 -0.83367,0.1113 -0.83367,-0.34691 z m -15.36934,-1.38916 c -0.45242,-1.12116 -0.35666,-1.21152 0.46669,-0.44038 0.56975,0.53363 0.82589,1.16839 0.56921,1.4106 -0.25668,0.2422 -0.72283,-0.1944 -1.0359,-0.97022 z M 104.229,133.68578 c -2.55364,-4.95979 -1.7435,-5.223 0.95721,-0.311 1.19331,2.17037 1.88723,3.94613 1.54203,3.94613 -0.3452,0 -1.46987,-1.6358 -2.49924,-3.63513 z m 77.0759,-18.84921 c -0.7826,-1.92441 -0.61292,-2.17868 0.74447,-1.11566 1.38588,1.08532 1.6592,2.36 0.50604,2.36 -0.40947,0 -0.9722,-0.55995 -1.25051,-1.24434 z M 165.02491,82.713131 c -0.0362,-0.829278 0.16083,-1.293903 0.43786,-1.0325 0.27702,0.261403 0.30663,0.939903 0.0658,1.507778 -0.26613,0.62755 -0.46367,0.441143 -0.50367,-0.475278 z m -26.36078,-1.297893 c -0.30223,-0.461453 -0.37071,-1.00772 -0.15218,-1.213928 0.21852,-0.206208 0.61946,0.171344 0.89098,0.839005 0.56372,1.38619 0.0833,1.630019 -0.7388,0.374923 z m 23.44626,-2.988747 c -0.35912,-0.548309 -0.42781,-1.209372 -0.15264,-1.469031 0.74612,-0.704036 1.55961,0.331425 1.15663,1.472202 -0.28238,0.799391 -0.47875,0.798771 -1.00399,-0.0031 z m -1.31966,-4.038916 c 0,-1.468444 0.22232,-1.678222 1.00041,-0.944 0.77809,0.734222 0.77809,1.153778 0,1.888 -0.77809,0.734222 -1.00041,0.524445 -1.00041,-0.944 z"
       style="fill:#4e4d4d;fill-opacity:1" />
  </g>
</svg>
