<?xml version="1.0" encoding="UTF-8" standalone="no"?>
<svg
   xmlns:dc="http://purl.org/dc/elements/1.1/"
   xmlns:cc="http://creativecommons.org/ns#"
   xmlns:rdf="http://www.w3.org/1999/02/22-rdf-syntax-ns#"
   xmlns:svg="http://www.w3.org/2000/svg"
   xmlns="http://www.w3.org/2000/svg"
   xmlns:sodipodi="http://sodipodi.sourceforge.net/DTD/sodipodi-0.dtd"
   xmlns:inkscape="http://www.inkscape.org/namespaces/inkscape"
   sodipodi:docname="handmail.svg"
   height="100%"
   width="100%"
   inkscape:version="0.48.4 r9939"
   version="1.1"
   id="svg8438"
   viewBox="0 0 512 512">
  <metadata
     id="metadata8464">
    <rdf:RDF>
      <cc:Work
         rdf:about="">
        <dc:format>image/svg+xml</dc:format>
        <dc:type
           rdf:resource="http://purl.org/dc/dcmitype/StillImage" />
        <dc:title></dc:title>
      </cc:Work>
    </rdf:RDF>
  </metadata>
  <defs
     id="defs8462">
    <linearGradient
       id="linearGradient4077">
      <stop
         id="stop4079"
         offset="0"
         style="stop-color:#aa4400;stop-opacity:1;" />
      <stop
         style="stop-color:#ff9f00;stop-opacity:1;"
         offset="0.22752622"
         id="stop4081" />
      <stop
         style="stop-color:#803300;stop-opacity:1;"
         offset="0.4948855"
         id="stop4083" />
      <stop
         id="stop4085"
         offset="1"
         style="stop-color:#562200;stop-opacity:1;" />
    </linearGradient>
    <linearGradient
       id="linearGradient4057">
      <stop
         style="stop-color:#aa4400;stop-opacity:1;"
         offset="0"
         id="stop4059" />
      <stop
         id="stop4067"
         offset="0.22752622"
         style="stop-color:#ecd1a4;stop-opacity:1;" />
      <stop
         id="stop4065"
         offset="0.50136983"
         style="stop-color:#803300;stop-opacity:1;" />
      <stop
         style="stop-color:#562200;stop-opacity:1;"
         offset="1"
         id="stop4061" />
    </linearGradient>
    <linearGradient
       id="linearGradient3890">
      <stop
         style="stop-color:#701b1b;stop-opacity:1;"
         offset="0"
         id="stop3892" />
      <stop
         style="stop-color:#e31600;stop-opacity:1;"
         offset="1"
         id="stop3894" />
    </linearGradient>
    <linearGradient
       id="linearGradient3882">
      <stop
         style="stop-color:#600b0b;stop-opacity:1;"
         offset="0"
         id="stop3884" />
      <stop
         style="stop-color:#d11414;stop-opacity:1;"
         offset="1"
         id="stop3886" />
    </linearGradient>
    <linearGradient
       id="linearGradient3872">
      <stop
         style="stop-color:#800600;stop-opacity:1;"
         offset="0"
         id="stop3874" />
      <stop
         style="stop-color:#ff0004;stop-opacity:0;"
         offset="1"
         id="stop3876" />
    </linearGradient>
    <filter
       id="filter4074"
       inkscape:label="Black Light"
       inkscape:menu="Color"
       inkscape:menu-tooltip="Light areas turn to black"
       x="0"
       width="1"
       y="0"
       height="1"
       color-interpolation-filters="sRGB">
      <feColorMatrix
         id="feColorMatrix4076"
         type="luminanceToAlpha"
         result="result2" />
      <feComposite
         in2="SourceGraphic"
         id="feComposite4078"
         operator="arithmetic"
         in="result2"
         k3="2"
         result="result4" />
      <feBlend
         in2="result2"
         id="feBlend4080"
         in="result4"
         mode="multiply"
         result="result3" />
      <feComposite
         in2="SourceGraphic"
         id="feComposite4082"
         operator="in"
         in="result3" />
    </filter>
  </defs>
  <sodipodi:namedview
     pagecolor="#000000"
     bordercolor="#666666"
     borderopacity="1"
     objecttolerance="10"
     gridtolerance="10"
     guidetolerance="10"
     inkscape:pageopacity="0"
     inkscape:pageshadow="2"
     inkscape:window-width="1190"
     inkscape:window-height="1126"
     id="namedview8460"
     showgrid="false"
     inkscape:zoom="1.4142136"
     inkscape:cx="201.73195"
     inkscape:cy="185.44696"
     inkscape:window-x="99"
     inkscape:window-y="140"
     inkscape:window-maximized="0"
     inkscape:current-layer="svg8438"
     showguides="true"
     inkscape:guide-bbox="true"
     inkscape:snap-midpoints="true" />
  <path
     style="fill:#000000"
     id="path3978"
     d="M -13.466093,0.1885736 H 514.89024 V 516.42957 H -13.466093 z"
     inkscape:connector-curvature="0" />
  <path
     sodipodi:type="arc"
     style="opacity:0.98999999;fill:#ff0000;fill-opacity:0.74970506;fill-rule:nonzero;stroke:none"
     id="path5005"
     sodipodi:cx="640"
     sodipodi:cy="124.5"
     sodipodi:rx="105"
     sodipodi:ry="118.5"
     d="m 743.4676,104.32865 a 105,118.5 0 0 1 0.002,0.0163 L 640,124.5 z"
     sodipodi:start="6.11213"
     sodipodi:end="6.1122693" />
  <g
     id="g6448" />
  <g
     id="g7596"
     transform="translate(66.468038,-540.22958)">
    <path
       sodipodi:nodetypes="csssccccccccssccccscccsssssccscccssssssccsssssssscsssssscsccssssscccsccsssccscssssscssccsscsssssccscssccssssssssccsscsssssscssssscccssss"
       style="fill:#14bf14;fill-opacity:1"
       d="m 393.79719,1025.6803 c 0,-1.8598 -1.96336,-5.8773 -4.36302,-8.9278 -4.75643,-6.0464 -8.68775,-7.6306 -5.32333,-2.1452 1.57411,2.5665 1.4198,3.4011 -0.62882,3.4011 -1.49315,0 -2.18882,-1.1516 -1.54594,-2.5592 0.67173,-1.4706 -0.0376,-1.9327 -1.66771,-1.0862 -1.56013,0.81 -4.03213,0.4488 -5.49333,-0.8029 -2.24695,-1.9247 -2.22059,-2.3284 0.17094,-2.6169 1.55523,-0.1877 3.60751,-0.1405 4.56062,0.1049 0.95312,0.2453 0.66801,-1.2903 -0.63357,-3.4125 -1.30158,-2.1221 -1.87866,-4.9264 -1.28241,-6.2319 0.59625,-1.3054 -0.17903,-3.79201 -1.72283,-5.52571 -2.65661,-2.9833 -3.39649,-2.3699 -2.33565,1.9365 0.25921,1.0522 1.17057,1.5977 2.02525,1.2122 0.85467,-0.3855 1.01861,0.4712 0.36429,1.90371 -0.77413,1.6949 -3.05847,1.297 -6.54002,-1.13911 8.20896,1.61241 -24.04864,-48.4896 -50.51611,-42.0365 -42.49533,-5.5338 20.55804,9.7193 -7.20333,-3.6366 -7.38275,-3.2368 -17.98781,-10.5015 -23.77418,-16.2856 -9.81994,-9.8162 -24.16415,-29.9529 -24.16415,-33.9222 -3.96901,-7.3053 -7.50289,-15.0296 -9.2774,-23.1519 -21.27975,-72.1038 -25.48483,-161.6171 -0.848,-255.3895 1.66487,-5.9505 5.81112,-14.2628 9.21389,-18.4716 3.40277,-4.2089 6.76566,-10.2863 7.47311,-13.5054 1.25757,-5.7225 1.02009,-5.8356 -10.64943,-5.0757 -9.30117,0.6056 -11.80088,1.6002 -11.32495,4.5059 0.51857,3.166 0.0918,3.1372 -2.82768,-0.1914 -4.06164,-4.6307 -26.00253,-6.5665 -27.87831,-2.4597 -0.67745,1.4833 -2.24204,2.6792 -3.47688,2.6578 -1.34901,-0.024 -1.1165,-1.0261 0.58254,-2.5118 2.45103,-2.1433 2.41282,-2.4779 -0.28686,-2.5118 -2.93847,-0.037 -7.25363,11.5474 -7.25363,19.4727 30.34772,-3.6567 0.0257,5.5059 -1.2034,2.1702 -0.59681,-2.1044 -3.02313,-3.8262 -5.39184,-3.8262 -3.0217,0 -4.6597,-1.9028 -5.48958,-6.3771 -0.76372,-4.1174 -2.50606,-6.377 -4.91717,-6.377 -2.05387,0 -3.73433,-1.1479 -3.73433,-2.5508 0,-1.4029 -1.27245,-2.5508 -2.82767,-2.5508 -1.55523,0 -2.82768,2.2137 -2.82768,4.9194 0,2.7057 -1.27246,6.6412 -2.82768,8.7457 -4.2337,5.7287 -3.51177,11.8269 1.41384,11.9429 3.68154,0.087 3.4817,0.5476 -1.51374,3.4917 -5.13365,3.0256 -5.99896,5.1817 -8.01175,19.9631 -2.72845,20.0369 -2.87562,62.6874 -0.2708,78.4779 1.04143,6.3132 4.82072,21.8094 8.39841,34.436 3.57768,12.6265 7.36601,29.1081 8.41853,36.6258 1.0525,7.5177 4.60708,25.8835 7.89905,40.813 7.37383,33.4412 8.10847,54.2531 2.30874,65.4067 -2.18853,4.2089 -5.03984,13.9657 -6.33628,21.6819 -1.82336,10.8524 -9.86824,40.1875 -12.45994,45.4342 -0.47897,0.9697 -44.55647,-4.2427 -53.10069,-6.2793 -5.11641,-1.2196 -6.11688,-0.6775 -6.06741,3.2874 0.1755,14.0606 18.52727,18.5829 116.8182,28.7869 19.68244,2.0433 28.07396,4.097 37.03293,9.0633 6.87389,3.8105 18.37112,7.37941 28.2768,8.77771 9.18113,1.296 18.82878,3.4651 21.43922,4.8202 2.61044,1.3551 11.04497,3.7862 18.7434,5.4024 7.69843,1.6163 21.42237,5.7636 30.49765,9.2162 18.85965,7.1752 22.36005,7.6285 22.36005,2.896 z M 250.52809,608.17769 c 0,-2.847 1.25675,-5.1016 2.84366,-5.1016 2.37176,0 2.45292,0.8466 0.4891,5.1016 -1.29501,2.8059 -2.57465,5.1016 -2.84366,5.1016 -0.269,0 -0.4891,-2.2957 -0.4891,-5.1016 z m -14.44598,-8.7631 c 0.57109,-2.0137 0.44977,-4.1182 -0.26959,-4.6764 -0.71937,-0.5583 -0.53376,-0.8572 0.41247,-0.6643 2.39814,0.4891 3.09678,9.0022 0.73878,9.0022 -1.056,0 -1.45275,-1.6477 -0.88166,-3.6615 z M 14.842585,1004.8948 c 2.49105,-3.588 8.39813,-9.64051 13.1268,-13.45011 7.34337,-5.916 10.79767,-6.9559 23.67858,-7.1285 21.91431,-0.2937 23.15006,-0.6013 27.74952,-6.9082 2.52791,-3.4664 8.31389,-6.8035 14.60968,-8.4262 l 10.424145,-2.6869 -0.45548,-9.9035 c -0.25052,-5.4468 -1.09881,-10.551 -1.88512,-11.3426 -0.7863,-0.7915 -1.65298,-13.4917 -1.92596,-28.2226 -0.272975,-14.731 -1.866405,-33.6708 -3.540965,-42.0885 -1.67455,-8.4177 -3.45617,-18.4615 -3.95916,-22.3196 -0.50297,-3.8581 -1.52425,-7.0147 -2.26948,-7.0147 -0.74524,0 -0.95802,-6.4773 -0.47282,-14.3939 0.62695,-10.2301 0.27104,-13.8829 -1.23037,-12.6273 -1.47471,1.23319 -1.75378,-0.6604 -0.92436,-6.2719 0.65347,-4.4212 0.10669,-17.4456 -1.21519,-28.9432 -1.9901,-17.3106 -4.25952,-23.2165 -7.1793,-23.5141 -11.75508,-7.4131 1.36852,94.14889 3.59432,-10.5428 0.1182,-5.2611 0.68415,-13.0092 1.25764,-17.218 0.57347,-4.20891 1.11298,-26.2468 1.1989,-48.9731 0.14025,-37.1034 0.4929,-41.4397 3.45516,-42.4873 1.81443,-0.6417 3.29896,-3.0916 3.29896,-5.44431 0,-2.35269 -1.06038,-3.7515 -2.3564,-3.1085 -1.29602,0.643 -2.14432,2.4605 -1.88512,4.0388 0.25921,1.5783 -0.37702,2.8697 -1.41384,2.8697 -1.03681,0 -1.88512,-1.0802 -1.88512,-2.4003 0,-1.3202 0.84831,-3.1097 1.88512,-3.97679 2.78144,-2.32601 2.37393,-16.71371 -0.45154,-15.94261 -1.28516,0.3508 -3.14668,-3.0422 -4.13669,-7.54 -1.16178,-5.278 -3.17409,-8.4437 -5.6751,-8.92779 -2.3393,-0.4529 -4.11016,-2.98721 -4.46828,-6.39471 -0.53113,-5.05379 -1.54123,-5.5678 -9.65213,-4.9113 -5.03806,0.4078 -12.14637,3.19821 -16.01486,6.28671 -3.82576,3.0543 -6.43073,4.40349 -5.78885,2.9981 0.64219,-1.406 -0.66933,-2.5552 -2.91609,-2.5552 -2.85501,0 -3.7568,-1.1509 -2.99809,-3.8262 0.81433,-2.8715 -0.31122,-3.8262 -4.51111,-3.8262 -4.50748,0 -5.62198,1.1166 -5.72871,5.7393 -0.12649,5.4764 -0.20673,5.5056 -1.75262,0.6377 -1.62013,-5.1016 -1.62013,-5.1016 -1.88512,0 -0.26499,5.1016 -0.26499,5.1016 -1.98512,0 -1.55717,-4.6182 -1.67857,-4.5054 -1.28136,1.1903 0.32532,4.6647 -13.31394,-3.0985 -8.85257,-1.3749 50.39893,276.92169 48.15679,264.76409 0,0 -0.63175,-3.4058 -1.98076,-6.1924 -2.99782,-6.1924 -2.62214,0 -2.29145,7.8657 0.83472,19.8552 1.47616,5.6613 2.40822,10.6841 2.07125,11.1616 -0.33696,0.47759 -1.49399,10.6911 -2.57117,22.6967 -2.24405,25.01099 -0.20308,63.23289 4.01031,75.10259 1.49401,4.20881 6.34948,19.3821 10.78994,33.7183 4.58813,14.81311 8.8941,25.3797 9.9743,24.4763 1.04543,-0.87429 1.36028,-0.40619 0.6997,1.0401 -1.49739,3.2784 4.69681,43.0469 11.36536,72.96881 l 5.01861,22.51849 -5.52633,21.681 c -5.24204,20.56571 -6.05962,22.17081 -15.89446,31.2038 -5.70249,5.2375 -14.46341,13.32491 -19.4687,17.972 -11.95032,11.0949 -13.81944,16.819 -9.70158,29.71071 1.75597,5.4973 3.73572,16.30839 4.39947,24.02459 0.99054,11.51512 1.89487,14.16272 5.04609,14.77322 2.21473,0.4291 5.75572,-2.0166 8.36846,-5.7798 z M -91.148965,758.03799 c -1.18768,-4.8266 -7.07009,-5.5128 -7.07009,-0.8247 0,2.3662 1.61178,4.0132 3.92733,4.0132 2.30358,0 3.60295,-1.3183 3.14276,-3.1885 z"
       id="path7594"
       inkscape:connector-curvature="0" />
    <path
       sodipodi:nodetypes="cssscccccccsscsssssccssscsscscsssssssscsssssssscsssssssssssscsssssssssssssssscsscssssssssssssssssssssssssssssssssssssssssscsssscsssssssssscsssssssssssssssssssssssssssscscscsssssssssssscssssssssssssssscsccsscsscssssscsssssssssssssssssssssssscsssssssscccsssssssssssssssssssssssssssssssssssssssssscssssccssssssssscsssssssssssssssscssccssscsssssssssscscssccsssssssssssssscssscssssssssssssssssssssssssscsssscscssssssssssssssssssssssssssssssssssscssssssscsssssscsssssscssssssssssssssssssssssssssssssssscsccsscssssssssssssssssssssssssssssscsssssscsssssccccsssssssssccscccsssssscsssssssssssssscccsccsscccscscsssscsccssssssccsssssssssscsccsssssssssssssssssssssscscscsscssccssssccssssssssscsscsssssssccssssscsscsssssssssscscccsssssssscssssss"
       inkscape:connector-curvature="0"
       id="path7581"
       d="m 393.79719,1025.6803 c 0,-1.8598 -1.96336,-5.8773 -4.36302,-8.9278 -4.75643,-6.0464 -8.68776,-7.6306 -5.32334,-2.1452 1.57412,2.5665 1.41981,3.4011 -0.62881,3.4011 -1.49315,0 -2.18883,-1.1516 -1.54594,-2.5592 0.67172,-1.4706 -0.0376,-1.9327 -1.66772,-1.0862 -1.56013,0.81 -4.03212,0.4488 -5.49332,-0.8029 -2.24696,-1.9247 -2.22059,-2.3284 0.17094,-2.6169 1.55522,-0.1877 3.6075,-0.1405 4.56062,0.1049 0.95312,0.2453 0.66801,-1.2903 -0.63357,-3.4125 -1.30158,-2.1221 -1.87867,-4.9264 -1.28242,-6.2319 0.59625,-1.3054 -0.17903,-3.79198 -1.72282,-5.52569 -2.65662,-2.98335 -3.39649,-2.36996 -2.33565,1.93643 0.2592,1.05221 1.17056,1.5977 2.02524,1.21219 0.85468,-0.38548 1.01861,0.47121 0.3643,1.90377 -0.77413,1.6949 -3.05847,1.297 -6.54002,-1.13916 -5.90146,-4.12941 -19.15422,-9.19071 -26.48271,-10.11387 -2.59204,-0.32651 -6.25435,-1.50784 -8.13847,-2.62517 -2.03255,-1.20537 -4.29409,-0.85644 -5.5611,0.85801 -1.17449,1.58924 -4.29861,2.77508 -6.94249,2.63525 l -4.80705,-0.25432 4.7128,-1.84368 c 4.05499,-1.58632 3.43885,-2.11158 -4.41429,-3.76329 -5.0199,-1.0558 -9.61488,-1.25961 -10.21107,-0.45289 -0.59619,0.80672 1.39025,1.48434 4.41429,1.50582 3.82044,0.027 4.71411,0.71132 2.92856,2.24204 -2.16953,1.8599 -2.16953,2.41832 0,3.58578 1.41334,0.76055 0.0248,1.45585 -3.08565,1.54513 -4.31571,0.12397 -4.98554,-0.42341 -2.82768,-2.31038 2.87107,-2.51064 2.58985,-2.70302 -5.18408,-3.54642 -1.81443,-0.19692 -4.5035,-1.38956 -5.97571,-2.65042 -2.04189,-1.74876 -2.38234,-1.25434 -1.43543,2.08465 0.73733,2.59999 0.48471,3.74442 -0.62221,2.81873 -2.37172,-1.98339 -2.44143,-8.90974 -0.0897,-8.90974 0.97563,0 2.25145,1.04563 2.83517,2.32361 1.8972,4.15377 6.0745,1.49029 12.80295,-8.16327 3.62845,-5.20588 8.19363,-9.4828 10.14484,-9.50428 2.98048,-0.0328 3.09559,-0.43437 0.71997,-2.51176 -2.5135,-2.19796 -2.5135,-2.48972 0,-2.62588 1.55522,-0.0842 -3.16995,-2.78276 -10.50038,-5.99671 -7.38276,-3.23685 -17.98781,-10.50147 -23.77418,-16.28562 -9.81995,-9.81619 -24.16416,-29.95288 -24.16416,-33.92215 0,-0.98678 -1.64981,-2.37794 -3.66624,-3.09146 -2.57541,-0.91133 -6.26647,2.17144 -12.40542,10.3609 -7.08325,9.44916 -9.09644,10.96778 -10.62463,8.01453 -1.35866,-2.62563 -1.57227,-1.50557 -0.76452,4.00878 0.98434,6.71991 0.85418,7.03076 -1.0681,2.55081 -1.20397,-2.80589 -2.276,-5.246 -2.3823,-5.42244 -0.1063,-0.17652 -2.30737,-1.20294 -4.89128,-2.28106 -4.20619,-1.75502 -4.42871,-1.52116 -2.12558,2.23392 2.19065,3.5717 2.15666,4.19418 -0.229,4.19418 -2.0116,0 -2.80144,-2.87671 -2.80144,-10.20326 0,-8.13449 0.68976,-10.20325 3.40193,-10.20325 1.87105,0 4.0153,-1.34293 4.76498,-2.9843 0.90394,-1.9791 0.35287,-2.45975 -1.63604,-1.42703 -4.50762,2.34055 -6.55187,-3.25683 -5.60878,-15.35748 0.54764,-7.02667 1.77014,-10.84096 3.47459,-10.84096 1.44632,0 2.62968,-1.7218 2.62968,-3.82622 0,-2.10442 -0.89837,-3.82622 -1.99638,-3.82622 -1.098,0 -1.47809,1.13473 -0.84465,2.52161 0.66043,1.44595 -0.0962,1.87357 -1.77386,1.00249 -1.60908,-0.83551 -2.92559,-4.17208 -2.92559,-7.4146 0,-3.24252 -0.4934,-7.99815 -1.09645,-10.56805 -1.00334,-4.27572 -0.84324,-4.25205 1.88512,0.27891 2.40992,4.00213 2.98157,4.18428 2.98157,0.95003 0,-2.20077 -1.31106,-5.47374 -2.91347,-7.27324 -1.60241,-1.7995 -2.43608,-4.95521 -1.8526,-7.01268 0.58348,-2.05747 0.27307,-5.0302 -0.6898,-6.60606 -2.18102,-3.56953 -5.85036,-30.14574 -4.55404,-32.98392 0.52451,-1.14836 -0.61399,-4.50864 -2.52998,-7.46729 -1.916,-2.95865 -2.42325,-4.54037 -1.12723,-3.51494 1.29602,1.02543 2.3564,0.6488 2.3564,-0.83694 0,-1.48575 -0.76888,-2.70136 -1.70863,-2.70136 -0.93976,0 -1.26498,-2.29573 -0.7227,-5.10162 0.54227,-2.8059 0.0599,-5.10163 -1.07192,-5.10163 -1.28116,0 -1.66,-3.1289 -1.00371,-8.29015 0.80287,-6.31408 0.57385,-7.37811 -0.96083,-4.46392 -1.68085,3.19178 -2.01974,2.90915 -2.04383,-1.70449 -0.0151,-3.04188 -0.53303,-7.63335 -1.14924,-10.20325 -0.9318,-3.88605 -0.77801,-4.0285 0.91368,-0.84633 1.77325,3.33558 2.03779,3.28106 2.06296,-0.42513 0.0151,-2.33825 -0.70732,-4.63398 -1.60708,-5.10163 -0.89975,-0.46765 -2.22778,-3.71994 -2.95116,-7.22731 -0.87077,-4.22201 -0.72511,-5.22724 0.43103,-2.97464 1.41652,2.75993 1.96262,2.63951 2.892,-0.6377 0.69723,-2.45854 0.14804,-4.0401 -1.4029,-4.0401 -3.26331,0 -5.41182,-10.72739 -2.61668,-13.06491 1.54604,-1.29293 1.47626,-3.85558 -0.25937,-9.52544 -2.30824,-7.54042 -1.96852,-21.84441 0.9779,-41.175 1.16073,-7.6151 1.57551,-8.17588 2.83009,-3.82622 1.46893,5.09278 1.47025,5.09277 1.73503,-0.005 0.26499,-5.10163 0.26499,-5.10163 1.88512,0 1.42508,4.4874 1.63608,4.23895 1.75262,-2.06366 0.077,-4.16335 -0.65725,-6.50471 -1.75262,-5.58867 -2.15573,1.8028 -2.31425,-0.12359 -0.68656,-8.3439 0.88094,-4.449 1.72372,-5.14552 3.63244,-3.00202 1.36696,1.53508 2.03162,4.71591 1.47704,7.06849 -0.64401,2.73193 -0.43324,3.21338 0.58333,1.33249 0.87542,-1.61971 2.35448,-2.76758 3.28681,-2.55081 0.93232,0.21677 2.23529,-1.68953 2.89548,-4.23622 1.15963,-4.47324 1.30149,-4.47324 4.18112,0 3.60761,5.60409 3.77591,12.85952 0.33967,14.64377 -1.38242,0.71782 -2.51349,2.62956 -2.51349,4.24832 0,2.05725 0.89443,1.93876 2.97135,-0.39362 2.46252,-2.76541 3.26463,-2.70969 4.68394,0.32537 2.49571,5.33686 2.32672,5.76599 -4.27257,10.84999 -4.79444,3.69355 -5.46321,5.11279 -3.28705,6.97567 3.9515,3.38264 5.17546,2.97492 6.14535,-2.0471 0.54748,-2.83482 0.94191,-1.98148 1.08078,2.33825 0.12027,3.74119 -0.8417,7.38114 -2.13772,8.08876 -1.4077,0.76861 -1.02822,1.36767 0.94256,1.48798 1.81443,0.11076 3.29896,1.92318 3.29896,4.0276 0,4.63307 -3.08244,5.07911 -4.40688,0.6377 -1.54249,-5.1726 -1.26091,5.67194 0.66979,25.7952 1.19556,12.4611 1.16018,20.18592 -0.10513,22.95732 -1.54584,3.38581 -1.85582,3.45222 -1.63672,0.35064 0.59952,-8.48677 -0.64637,-10.9975 -1.89867,-3.82622 -1.59434,9.13001 -0.3953,29.33436 1.74088,29.33436 0.82925,0 1.16979,-4.87843 0.75675,-10.84096 -0.73471,-10.60608 -0.70924,-10.66134 1.17584,-2.55081 2.42139,10.41807 4.42417,10.88055 2.76158,0.6377 -1.60862,-9.91032 0.66206,-25.11142 3.00372,-20.10842 1.19136,2.54538 1.65938,2.63998 1.68021,0.33962 0.0159,-1.75369 0.79775,-3.18852 1.7375,-3.18852 0.93975,0 1.26746,2.28282 0.72824,5.07294 -0.53922,2.79011 -1.73225,4.44417 -2.65119,3.67568 -0.91894,-0.7685 -1.6708,-0.18165 -1.6708,1.30409 0,1.48575 1.06038,2.73626 2.3564,2.77893 1.30774,0.043 0.88828,1.23462 -0.94256,2.67756 -4.4887,3.53766 -4.17573,7.28075 0.47128,5.63641 2.80439,-0.99235 3.73211,-0.11436 3.62141,3.42732 -0.084,2.6867 -0.56313,3.37207 -1.09965,1.57291 -0.52296,-1.75368 -1.77851,-3.18852 -2.79011,-3.18852 -1.0116,0 -1.29204,1.19815 -0.62318,2.66256 0.66886,1.4644 0.16107,4.38271 -1.12843,6.48514 -1.77585,2.89537 -1.81521,4.53884 -0.16229,6.77546 1.20023,1.62407 2.18225,3.87116 2.18225,4.99352 0,3.29548 -5.25274,2.33721 -6.292,-1.14787 -0.6856,-2.29907 -0.99235,-2.34106 -1.09966,-0.15055 -0.0818,1.67089 0.70178,3.74931 1.74139,4.61873 1.23501,1.03281 1.12172,3.51654 -0.32683,7.16528 -1.21939,3.0715 -2.35756,12.47173 -2.52929,20.88941 -0.17171,8.41769 0.0478,13.8629 0.48785,12.10048 0.44004,-1.76243 1.45338,-2.65807 2.25187,-1.99031 0.79848,0.66776 1.05129,-1.62082 0.56179,-5.08573 -0.90077,-6.37601 0.58672,-7.55884 5.98243,-4.75715 1.63407,0.84848 2.49313,2.58901 1.90904,3.86783 -0.5841,1.27883 -1.85168,1.66474 -2.81685,0.85758 -0.96518,-0.80716 -1.75486,-0.3476 -1.75486,1.02123 0,1.36883 1.06038,3.02666 2.3564,3.68405 1.64947,0.83668 1.2803,2.31486 -1.23056,4.92723 -4.18318,4.35228 -2.51135,10.14821 2.23349,7.74312 2.93131,-1.48584 2.9703,-1.18679 0.41091,3.15187 -1.64505,2.78867 -1.84216,3.99229 -0.47128,2.87786 1.73275,-1.40862 2.3564,0.86323 2.3564,8.58405 0,14.7158 3.61455,32.75112 8.81951,44.00623 4.6518,10.05895 7.46034,12.65655 5.51594,5.10163 -0.95769,-3.72113 -0.67757,-3.63999 1.68344,0.48753 4.11574,7.19519 3.51965,4.02389 -2.67486,-14.23063 -7.2511,-21.36811 -9.89938,-54.42958 -10.14599,-126.66375 -0.20007,-58.60071 3.32245,-107.36805 9.29799,-128.72575 1.66487,-5.95056 5.81112,-14.2628 9.21389,-18.47165 3.40277,-4.20884 6.76566,-10.28627 7.47311,-13.5054 1.25757,-5.72244 1.02009,-5.83563 -10.64943,-5.07572 -9.30117,0.60568 -11.80088,1.60026 -11.32495,4.50597 0.51857,3.16601 0.0918,3.13712 -2.82768,-0.19143 -4.06164,-4.63071 -26.00253,-6.56651 -27.87831,-2.45966 -0.67745,1.48323 -2.24204,2.67919 -3.47688,2.65771 -1.34901,-0.0235 -1.1165,-1.02601 0.58254,-2.51176 2.45103,-2.14332 2.41282,-2.47789 -0.28686,-2.51175 -2.93847,-0.0368 -7.25362,11.54739 -7.25362,19.47268 0,4.20939 5.05459,4.60893 6.07175,0.47994 0.40179,-1.63111 2.23475,-3.26438 4.07322,-3.62949 2.39422,-0.47549 3.03251,0.54692 2.24958,3.60335 -0.83216,3.24859 -0.417,3.08526 1.73922,-0.68427 1.55777,-2.7233 2.83231,-3.81378 2.83231,-2.42327 0,8.2754 -15.98699,12.51988 -18.16948,4.82392 -0.59681,-2.10442 -3.02313,-3.82622 -5.39184,-3.82622 -3.0217,0 -4.6597,-1.90279 -5.48958,-6.37704 -0.76372,-4.1174 -2.50606,-6.37703 -4.91717,-6.37703 -2.05387,0 -3.73433,-1.14787 -3.73433,-2.55082 0,-1.40294 -1.27245,-2.55081 -2.82767,-2.55081 -1.55523,0 -2.82768,2.21374 -2.82768,4.91943 0,2.70568 -1.27246,6.64122 -2.82768,8.74564 -4.2337,5.72875 -3.51177,11.82696 1.41384,11.94291 3.68154,0.0866 3.4817,0.54765 -1.51374,3.49178 -5.13365,3.0256 -5.99896,5.1817 -8.01175,19.96307 -2.72845,20.03691 -2.87562,62.68737 -0.2708,78.47785 1.04143,6.31327 4.82072,21.80946 8.39841,34.43599 3.57768,12.62653 7.36601,29.10815 8.41853,36.62583 1.0525,7.51769 4.60708,25.88354 7.89905,40.81302 7.37383,33.44117 8.10847,54.25308 2.30874,65.40672 -2.18853,4.20884 -5.03984,13.9657 -6.33628,21.68191 -1.82336,10.85241 -9.86824,40.18743 -12.45994,45.4342 -0.47897,0.96964 -44.55647,-4.24269 -53.10069,-6.27936 -5.11641,-1.2196 -6.11688,-0.67752 -6.06741,3.28741 0.1755,14.06057 18.52727,18.58293 116.81819,28.78688 19.68244,2.0433 28.07396,4.09704 37.03293,9.06335 6.87389,3.81045 18.37113,7.37941 28.2768,8.77771 9.18114,1.296 18.82879,3.4651 21.43923,4.8202 2.61043,1.3551 11.04496,3.7862 18.7434,5.4024 7.69843,1.6163 21.42237,5.7636 30.49764,9.2162 18.85965,7.1752 22.36006,7.6285 22.36006,2.896 z M 280.69,979.07626 c 0,-0.40124 1.06038,-1.55523 2.3564,-2.56444 1.29602,-1.0092 1.72753,-0.89559 0.95891,0.25254 -1.91196,2.85581 2.28688,9.27935 4.73004,7.23617 1.17727,-0.98454 1.39411,-0.39637 0.54181,1.46965 -1.06782,2.33792 -2.31147,2.02065 -5.00407,-1.27661 -1.9707,-2.41332 -3.58309,-4.71607 -3.58309,-5.11731 z m 18.97023,-1.08657 c -1.56891,-2.32315 5.98317,-15.24892 8.90942,-15.24892 2.3286,0 2.08767,1.22689 -1.15937,5.90373 -5.86288,8.44457 -5.06917,11.44793 1.08524,4.10646 l 5.18408,-6.18397 -4.39259,6.75902 c -4.00546,6.16335 -7.47791,7.84556 -9.62678,4.66368 z m -7.68326,-6.28235 c 1.18038,-1.92449 0.83269,-4.80884 -1.00841,-8.3656 -2.64483,-5.10945 -2.55861,-5.34745 1.46752,-4.05053 2.3526,0.75782 5.76198,1.34139 7.5764,1.29683 4.27768,-0.10509 4.1623,1.85582 -0.50472,8.57793 -3.95607,5.69811 -10.90527,8.04322 -7.53079,2.54137 z m -42.07823,-1.56717 c -0.86454,-0.87329 -0.22831,-2.28545 1.41384,-3.13814 2.14977,-1.11626 2.98574,-0.0253 2.98574,3.89637 0,2.9957 -0.63622,4.40786 -1.41384,3.13814 -0.77761,-1.26972 -2.12119,-3.02307 -2.98574,-3.89637 z m -97.86816,-1.5712 c -12.18259,-2.38738 -22.15016,-5.38318 -22.15016,-6.65734 0,-1.27418 1.90869,-1.63285 4.24152,-0.79708 2.33284,0.83578 14.28963,2.29591 26.57065,3.24474 18.11974,1.39991 22.67403,1.0493 24.15875,-1.8598 1.32536,-2.59685 1.5008,-2.00303 0.63657,2.15439 -0.87255,4.19742 -0.39927,5.73933 1.76163,5.73933 1.6251,0 2.95471,-1.76133 2.95471,-3.91407 0,-3.21293 1.6598,-3.61616 9.26544,-2.25094 8.70905,1.56327 9.30886,1.30048 9.98831,-4.37607 0.47362,-3.95682 1.042,-2.18102 1.64837,5.14999 l 0.92548,11.1892 -18.92555,-1.64084 c -10.40906,-0.90245 -28.89313,-3.59415 -41.07572,-5.98151 z M 261.8388,952.2252 c 0,-4.59683 0.44027,-4.91955 2.91691,-2.1383 2.32982,2.6164 2.42467,3.69822 0.47128,5.37492 -3.3636,2.88714 -3.38819,2.86365 -3.38819,-3.23662 z m 1.88061,-18.59811 c 3.49714,-4.8038 3.66399,-4.76671 10.55587,2.34626 l 7.00255,7.22725 -5.23118,5.64416 -5.23118,5.64418 -5.32468,-7.99045 c -5.22079,-7.83454 -5.25535,-8.08567 -1.77138,-12.8714 z m -35.80772,13.82153 c -1.33363,-3.37187 -1.24979,-5.3488 0.28113,-6.62908 1.37572,-1.15049 1.66999,-0.70448 0.7967,1.20753 -0.97633,2.13758 0.0498,2.67986 3.47897,1.83845 2.67507,-0.65638 4.86376,-0.12158 4.86376,1.18847 0,1.31005 -1.74668,2.3819 -3.8815,2.3819 -2.14916,0 -3.35303,1.15702 -2.69742,2.59242 0.65124,1.42583 2.10483,1.8224 3.2302,0.88128 1.23141,-1.02979 1.50298,-0.52195 0.68204,1.27541 -1.63591,3.58169 -4.16563,1.80765 -6.75388,-4.73638 z m -21.41286,-1.57291 c 0.5491,-9.75796 6.91536,-48.25137 8.33637,-50.40566 0.80721,-1.22375 0.70552,2.21985 -0.22596,7.65244 -2.32539,13.56209 -2.19217,21.35608 0.36503,21.35608 2.85455,0 7.14198,7.8474 7.21707,13.20956 0.0856,6.11461 -5.15579,12.36673 -8.78688,10.4813 -1.94652,-1.01071 -2.61777,-0.5833 -1.82159,1.15988 0.75309,1.64879 -0.0713,2.47906 -2.04717,2.0618 -1.92893,-0.40734 -3.19493,-2.7066 -3.03687,-5.5154 z m 38.25215,-1.29847 c -1.17674,-2.97519 -1.33366,-4.7355 -0.34872,-3.91182 2.20354,1.84278 14.84351,-18.22059 14.00293,-22.2268 -0.43479,-2.0722 0.0245,-2.05029 1.62604,0.0776 1.71256,2.27537 0.6544,5.76116 -4.54704,14.97886 -3.72846,6.60735 -6.31879,13.02099 -5.75631,14.25249 0.56249,1.23154 0.15419,2.23913 -0.90734,2.23913 -1.06152,0 -2.89283,-2.43424 -4.06956,-5.40946 z m 4.72704,-25.03957 c 1.81749,-2.71749 2.78343,-6.08178 2.14654,-7.47618 -0.63689,-1.39441 -0.16476,-3.3659 1.04916,-4.38108 1.31552,-1.10014 1.70397,-0.74412 0.96157,0.88128 -0.68507,1.49991 -0.17992,3.2326 1.12257,3.85046 1.56107,0.74052 0.762,2.9592 -2.34466,6.51003 -5.92768,6.77527 -7.23876,7.05017 -2.93518,0.61549 z m -5.90476,-86.25069 c 0.47416,-2.45516 0.86211,-0.44639 0.86211,4.46392 0,4.91032 -0.38795,6.91908 -0.86211,4.46393 -0.47416,-2.45516 -0.47416,-6.47269 0,-8.92785 z m -35.99073,-10.8768 c -0.21773,-10.36249 2.74491,-7.39141 3.70302,3.71356 0.55264,6.40559 0.17136,8.16398 -1.38975,6.41075 -1.18321,-1.32874 -2.22418,-5.88468 -2.31327,-10.12431 z m -14.83938,-71.22787 c 0.43669,-2.19191 0.90539,-1.11563 1.04153,2.39174 0.19777,5.09455 0.61506,5.60754 2.07493,2.55081 1.50127,-3.14337 1.83255,-2.87782 1.85626,1.48798 0.0151,2.92281 -0.5746,6.13077 -1.31219,7.1288 -1.76136,2.38336 -4.68166,-8.43397 -3.66053,-13.55933 z m 5.94247,-0.17244 c -0.69976,-5.60444 -2.13679,-10.18989 -3.1934,-10.18989 -1.05661,0 -1.43282,-1.7218 -0.83601,-3.82622 0.59679,-2.10442 0.0513,-3.84379 -1.21215,-3.86528 -1.4529,-0.0247 -1.25794,-0.9479 0.53043,-2.51175 2.3949,-2.09425 2.30334,-2.47868 -0.59831,-2.51176 -2.5797,-0.0294 -3.12627,-1.31689 -2.21264,-5.21199 0.85177,-3.63136 -0.0935,-6.64672 -3.17193,-10.11839 -3.7002,-4.17288 -3.86992,-4.95872 -1.08632,-5.03032 2.08597,-0.0537 3.29896,-2.07554 3.29896,-5.49883 0,-4.28133 0.53755,-4.81031 2.56942,-2.52851 2.07969,2.33549 2.3971,1.66574 1.66535,-3.51388 -0.49721,-3.51964 -1.65345,-6.39934 -2.56941,-6.39934 -0.91595,0 -1.66536,-1.39384 -1.66536,-3.09742 0,-1.90947 1.26524,-1.38609 3.29896,1.36467 2.39569,3.24032 3.34824,8.8695 3.4789,20.55883 0.099,8.85321 0.63551,17.13507 1.1923,18.40414 0.55679,1.26906 1.53092,8.22126 2.16476,15.44933 0.63383,7.22807 1.72599,15.16446 2.42703,17.63644 0.8241,2.90593 0.55306,3.89109 -0.76685,2.78728 -1.12279,-0.93897 -2.61396,-6.29267 -3.31373,-11.89711 z m -10.36649,-9.45731 c 0,-4.36598 2.76615,-4.16782 5.56705,0.39882 1.8509,3.01776 1.55237,3.61025 -1.65431,3.2834 -2.152,-0.21935 -3.91274,-1.87635 -3.91274,-3.68222 z M 172.09366,701.3562 c 0.6823,-6.2904 3.02964,-7.66517 3.02964,-1.77437 0,3.03972 -0.77324,5.52676 -1.71833,5.52676 -0.94506,0 -1.53514,-1.68858 -1.31131,-3.75239 z m 1.81522,-15.40472 c 0.17815,-4.19451 1.13781,-5.95416 2.78244,-5.10163 1.38081,0.71578 3.2895,1.30142 4.24152,1.30142 1.84037,0 -4.02156,9.63014 -6.0814,9.99068 -0.66793,0.11691 -1.09208,-2.6688 -0.94256,-6.19047 z m 64.8471,-10.17725 c -0.4955,-3.50737 -0.17024,-6.37703 0.7228,-6.37703 0.89304,0 1.62371,2.86966 1.62371,6.37703 0,3.50737 -0.32526,6.37704 -0.7228,6.37704 -0.39754,0 -1.12821,-2.86967 -1.62371,-6.37704 z m -46.66661,-7.44382 c 0,-0.58672 -0.5149,-2.88246 -1.14424,-5.10162 -0.80112,-2.82492 -0.0474,-4.03485 2.51348,-4.03485 4.64147,0 6.18427,2.08763 4.89711,6.62642 -0.89193,3.14514 -6.26635,5.29792 -6.26635,2.51005 z m -20.31146,-6.82927 c -0.59391,-2.98893 -0.41352,-3.0064 1.08856,-0.10545 1.51722,2.93018 1.9349,2.93125 2.65532,0.007 0.59615,-2.42 1.53383,-1.7538 3.09805,2.20109 2.07221,5.23929 1.92412,5.51176 -1.94347,3.57582 -2.30262,-1.1526 -4.50694,-3.7078 -4.89846,-5.67824 z m 24.48525,-13.44348 c 4.45799,-4.58265 2.56921,-23.23081 -2.0804,-20.54007 -1.66976,0.9663 -5.00831,1.60731 -7.41896,1.42447 -2.41067,-0.18284 -6.01597,0.8501 -8.01176,2.2954 -4.12031,2.98382 -4.73725,1.28792 -1.32801,-3.65048 1.2654,-1.83298 3.81032,-2.79852 5.65536,-2.14564 2.19447,0.77651 3.35462,-0.23911 3.35462,-2.93669 0,-2.99882 1.76951,-4.12373 6.48666,-4.12373 3.56767,0 7.01095,-1.14786 7.65174,-2.55081 1.76084,-3.85519 4.7128,-3.05631 4.7128,1.27541 0,2.10442 0.84831,3.82622 1.88512,3.82622 1.03682,0 1.88512,1.14786 1.88512,2.55081 0,1.40295 -1.18171,2.55081 -2.62599,2.55081 -3.13099,0 -4.91449,5.47564 -4.91449,15.08838 0,8.04864 -1.27884,10.45332 -5.49827,10.33864 -2.60248,-0.0707 -2.57093,-0.50655 0.24646,-3.40272 z m 24.68761,-10.60277 c -1.2337,1.83686 -1.68371,4.09666 -1.00002,5.02178 0.68368,0.92511 -0.004,1.03386 -1.52716,0.24166 -1.52362,-0.7922 -2.89786,-4.41179 -3.05387,-8.04353 -0.20636,-4.80401 0.28159,-5.83833 1.79086,-3.79608 2.83085,3.8305 5.64531,3.55506 3.89754,-0.38143 -1.06121,-2.39016 -0.65909,-2.35915 1.60604,0.12387 2.0315,2.22691 3.42204,2.43588 4.24335,0.6377 0.67191,-1.47108 2.06995,-2.67468 3.10677,-2.67468 1.03681,0 1.39306,1.07732 0.79165,2.39404 -0.6014,1.31672 0.23126,3.39718 1.85037,4.62325 1.84718,1.39878 2.4724,3.89155 1.67834,6.69158 -1.14443,4.03548 -1.73784,3.85776 -6.20314,-1.85777 -4.01437,-5.13835 -5.35708,-5.69564 -7.18073,-2.98039 z m 6.03619,-19.12404 c 1.0568,-2.31378 1.75735,-2.24323 2.91606,0.29365 1.98753,4.35152 0.0348,8.62683 -2.42191,5.30257 -1.03682,-1.40295 -1.25918,-3.92125 -0.49415,-5.59622 z m 23.54112,-10.15318 c 0,-2.84698 1.25675,-5.10163 2.84366,-5.10163 2.37176,0 2.45292,0.8466 0.4891,5.10163 -1.29501,2.80589 -2.57465,5.10163 -2.84366,5.10163 -0.269,0 -0.4891,-2.29574 -0.4891,-5.10163 z m -14.44598,-8.76305 c 0.57109,-2.01378 0.44977,-4.1182 -0.26959,-4.67649 -0.71937,-0.55829 -0.53376,-0.85719 0.41247,-0.66423 2.39814,0.48906 3.09678,9.00214 0.73878,9.00214 -1.056,0 -1.45275,-1.64764 -0.88166,-3.66142 z M 14.842585,1004.8948 c 2.49105,-3.588 8.39813,-9.64051 13.1268,-13.45008 7.34337,-5.916 10.79767,-6.95594 23.67858,-7.12855 21.91431,-0.29365 23.15006,-0.60131 27.74952,-6.90822 2.52791,-3.46635 8.31389,-6.80343 14.60968,-8.4262 l 10.424145,-2.68688 -0.45548,-9.90346 c -0.25052,-5.44688 -1.09881,-10.55105 -1.88512,-11.3426 -0.7863,-0.79151 -1.65298,-13.49173 -1.92596,-28.22268 -0.272975,-14.73095 -1.866405,-33.67074 -3.540965,-42.08843 -1.67455,-8.41769 -3.45617,-18.46151 -3.95916,-22.31962 -0.50297,-3.85811 -1.52425,-7.01474 -2.26948,-7.01474 -0.74524,0 -0.95802,-6.47726 -0.47282,-14.39391 0.62695,-10.23007 0.27104,-13.88286 -1.23037,-12.62726 -1.47471,1.23325 -1.75378,-0.66035 -0.92436,-6.27187 0.65347,-4.42118 0.10669,-17.44564 -1.21519,-28.94323 -1.9901,-17.31058 -3.00952,-20.96651 -5.9293,-21.26412 -4.40581,-0.44907 -4.39239,0.59269 0.40507,31.44008 2.70835,17.41448 3.57586,29.64061 2.78902,39.30624 -0.86128,10.57966 -0.411,15.44077 1.83114,19.76881 1.63529,3.15663 2.1126,5.73933 1.06069,5.73933 -1.0519,0 -1.71516,4.3045 -1.4739,9.56555 0.27324,5.95852 1.30957,9.32509 2.74822,8.92785 2.70186,-0.74601 3.03742,2.39555 0.62665,5.86687 -2.10983,3.03797 -0.40947,19.00356 2.02392,19.00356 0.98901,0 1.25971,-2.29573 0.60156,-5.10162 -0.65815,-2.8059 -0.38192,-5.10163 0.61383,-5.10163 3.72266,0 3.97033,8.3555 0.54718,18.45937 -3.09452,9.13388 -3.69327,9.77589 -4.78325,5.1289 -2.10686,-8.98224 -8.62704,-18.3802 -16.54326,-23.84491 -6.42494,-4.43523 -7.41859,-6.18758 -6.63871,-11.70788 1.07008,-7.57454 -2.46945,-29.85791 -9.0393,-56.90745 -2.55564,-10.52211 -7.16885,-35.28001 -10.25161,-55.01756 -5.36561,-34.35387 -6.20317,-49.9656 -5.79242,-107.97033 0.0607,-8.57738 3.37074,-13.01826 9.70316,-13.01826 3.61562,0 5.42455,-1.30326 5.42455,-3.90815 0,-6.26666 5.9881,-23.19125 6.96542,-19.68687 1.46953,5.26924 4.18596,3.59 3.37783,-2.08809 -0.46988,-3.30149 0.0999,-4.89878 1.52209,-4.26721 1.25017,0.55517 2.54287,4.09697 2.87264,7.87067 0.32976,3.7737 1.40398,6.18856 2.38714,5.36635 0.98317,-0.8222 1.21851,-2.74081 0.52299,-4.26359 -0.76104,-1.66625 -0.38573,-2.03372 0.94256,-0.92289 1.21392,1.01518 1.7191,2.91434 1.12257,4.22034 -0.59651,1.30601 -0.45137,3.76084 0.32249,5.45517 2.01973,4.42203 2.62925,15.11259 0.77314,13.56036 -0.85944,-0.71873 -2.0386,0.37166 -2.62037,2.4231 -0.58177,2.05143 -0.24652,4.40831 0.74502,5.23751 0.99153,0.8292 1.80279,0.29203 1.80279,-1.19371 0,-1.48575 1.37633,-2.70136 3.0585,-2.70136 2.22046,0 2.52913,0.87367 1.12651,3.18852 -1.84714,3.04845 -3.0118,10.51107 -2.4881,15.94258 0.13535,1.40295 0.98641,0.96893 1.89144,-0.9645 0.90502,-1.93342 2.62983,-2.69213 3.8329,-1.68602 1.63455,1.36694 1.6468,2.71076 0.0485,5.31669 -1.17643,1.91807 -1.5107,4.8629 -0.74284,6.54407 0.91589,2.00526 0.59495,2.38666 -0.93305,1.10882 -1.28106,-1.07131 -3.95387,-5.55317 -5.93958,-9.95967 -3.24869,-7.20915 -3.61112,-7.43682 -3.61745,-2.2725 -0.004,3.15664 0.85741,5.73934 1.91398,5.73934 1.11574,0 1.41736,2.71542 0.71955,6.47762 -0.8763,4.72437 -0.50335,6.2778 1.37791,5.73933 1.73631,-0.49697 2.40767,1.32841 2.05397,5.58451 -0.59647,7.17732 2.34301,4.43623 4.04501,-3.77199 0.61992,-2.98974 0.80033,-2.17259 0.43578,1.97399 -0.34211,3.89159 0.11255,7.6899 1.01028,8.44069 3.06452,2.56281 1.64079,5.691 -2.00328,4.40154 -3.2628,-1.15455 -3.63559,0.14129 -3.63559,12.63778 0,7.65833 -0.56532,18.00177 -1.25626,22.98542 -1.51249,10.90946 0.24725,19.70796 3.94171,19.70796 1.82578,0 2.77028,-3.09871 2.91558,-9.56555 0.1182,-5.26106 0.68415,-13.00915 1.25764,-17.218 0.57347,-4.20884 1.11298,-26.24671 1.1989,-48.97305 0.14025,-37.10339 0.4929,-41.43969 3.45516,-42.48733 1.81443,-0.64169 3.29896,-3.09162 3.29896,-5.4443 0,-2.35268 -1.06038,-3.75149 -2.3564,-3.10847 -1.29602,0.64302 -2.14432,2.46047 -1.88512,4.03879 0.25921,1.57831 -0.37702,2.86966 -1.41384,2.86966 -1.03681,0 -1.88512,-1.08012 -1.88512,-2.40027 0,-1.32015 0.84831,-3.10969 1.88512,-3.97676 2.78144,-2.32607 2.37393,-16.7137 -0.45154,-15.94259 -1.28516,0.35074 -3.14668,-3.04226 -4.13669,-7.54001 -1.16178,-5.27798 -3.17409,-8.4437 -5.6751,-8.92785 -2.3393,-0.45284 -4.11016,-2.98717 -4.46828,-6.39466 -0.53113,-5.05382 -1.54123,-5.56778 -9.65213,-4.91127 -5.03806,0.40779 -12.14637,3.19816 -16.01486,6.28663 -3.82576,3.05435 -6.43073,4.40353 -5.78885,2.99816 0.64219,-1.40601 -0.66933,-2.55521 -2.91609,-2.55521 -2.85501,0 -3.7568,-1.15088 -2.99809,-3.82622 0.81433,-2.87155 -0.31122,-3.82622 -4.51111,-3.82622 -4.50748,0 -5.62198,1.11658 -5.72871,5.73933 -0.12649,5.47634 -0.20673,5.50556 -1.75262,0.6377 -1.62013,-5.10162 -1.62013,-5.10162 -1.88512,0 -0.26499,5.10163 -0.26499,5.10163 -1.98512,0 -1.55717,-4.61823 -1.67857,-4.50545 -1.28136,1.19028 0.32532,4.66473 1.99504,6.89317 6.45641,8.61683 7.49308,2.89499 8.90796,7.5176 5.23923,17.11742 -1.89185,4.95036 -2.76369,13.84307 -2.58457,26.36249 0.14874,10.39072 -0.3013,20.14371 -0.99992,21.67329 -0.81909,1.7933 -0.12141,2.18449 1.96459,1.1014 2.39013,-1.24106 2.87145,-0.73387 1.84323,1.94233 -0.76537,1.9921 -0.17814,1.61958 1.30479,-0.82782 2.47009,-4.07633 2.6796,-3.82766 2.4962,2.96273 -0.13196,4.88265 -0.87873,6.65358 -2.18828,5.1888 -3.35902,-3.75718 1.54855,46.51747 7.7705,79.60347 1.49282,7.93827 2.86502,17.69513 3.04933,21.68192 0.18436,3.98679 0.91892,8.39657 1.63251,9.79952 0.71358,1.40295 1.88192,6.93682 2.59632,12.29751 0.71439,5.36068 1.76775,11.39999 2.34081,13.42069 0.744,2.62352 0.12989,3.20049 -2.14755,2.01791 -2.07091,-1.07532 -2.844,-3.44354 -2.20444,-6.75295 0.54177,-2.80326 -0.29636,-10.20383 -1.86248,-16.44571 -1.56612,-6.24188 -2.96071,-13.83384 -3.0991,-16.87101 -0.13836,-3.03718 -1.02088,-6.24107 -1.96114,-7.11976 -0.94026,-0.87869 -2.15166,-6.90499 -2.69201,-13.39177 -0.67992,-8.16258 -1.8487,-11.79415 -3.79578,-11.79415 -2.33964,0 -2.40083,-0.67255 -0.36342,-3.9944 2.07513,-3.38334 1.6633,-4.90902 -2.6921,-9.97307 -3.07408,-3.57428 -4.34557,-6.6447 -3.16164,-7.6348 3.17923,-2.65873 2.28035,-11.07815 -1.31861,-12.35078 -2.48253,-0.87785 -2.24927,-1.23978 0.94256,-1.46245 4.94772,-0.34516 5.52942,-5.84125 1.23344,-11.65428 -2.17025,-2.93661 -3.03147,-9.1191 -3.09196,-22.19643 -0.0699,-15.12792 -0.63494,-18.3211 -3.41555,-19.30502 -1.83241,-0.6484 -3.95608,-3.65549 -4.71925,-6.68242 -1.52702,-6.05655 -2.83908,-22.85728 -1.36205,-17.44092 0.65468,2.40083 1.73483,1.78998 3.76296,-2.12807 1.96512,-3.79639 2.2399,-6.31384 0.88868,-8.14221 -1.07578,-1.45567 -1.50734,-4.22861 -0.95903,-6.16207 0.54832,-1.93347 0.13729,-3.51539 -0.91338,-3.51539 -1.05067,0 -1.46936,-2.28179 -0.93038,-5.07064 0.60546,-3.13287 -0.11745,-5.64041 -1.89148,-6.5616 -1.57927,-0.82004 -3.38829,-4.27758 -4.02001,-7.68344 -0.63175,-3.40585 -1.98076,-6.19246 -2.99782,-6.19246 -2.62214,0 -2.29145,7.86574 0.83472,19.85519 1.47616,5.66133 2.40822,10.68408 2.07125,11.16166 -0.33696,0.47758 -1.49399,10.69108 -2.57117,22.69668 -2.24405,25.01096 -0.20308,63.23285 4.01031,75.10256 1.49401,4.20884 6.34948,19.38209 10.78994,33.71833 4.58813,14.81309 8.8941,25.37966 9.9743,24.47631 1.04543,-0.87427 1.36028,-0.40622 0.6997,1.04009 -1.49739,3.27841 4.69681,43.04692 11.36536,72.96879 l 5.01861,22.51853 -5.52633,21.68095 c -5.24204,20.56573 -6.05962,22.17081 -15.89446,31.2038 -5.70249,5.23756 -14.46341,13.32497 -19.4687,17.97201 -11.95032,11.09495 -13.81944,16.81902 -9.70158,29.71068 1.75597,5.49734 3.73572,16.3084 4.39947,24.02461 0.99054,11.51515 1.89487,14.16275 5.04609,14.77325 2.21473,0.4291 5.75572,-2.0166 8.36846,-5.7798 z m 3.0468,-26.21144 c 8.85897,-27.77719 10.96028,-32.16023 16.33379,-34.07005 2.85817,-1.01581 4.77428,-0.92217 4.25802,0.20815 -0.51626,1.13029 1.92286,2.78146 5.42023,3.66927 7.42537,1.88492 20.73548,14.23004 23.86014,22.1303 2.30306,5.82289 0.55845,5.35268 -5.74544,-1.5486 -3.83639,-4.19992 -13.89509,-7.37542 -12.29998,-3.88305 0.66647,1.45916 0.3134,2.65305 -0.7846,2.65305 -1.09801,0 -1.99638,-1.21562 -1.99638,-2.70137 0,-1.48574 -0.86214,-1.98035 -1.91587,-1.09914 -1.05372,0.8812 -1.43382,2.65761 -0.84464,3.94753 0.58915,1.28995 -0.0422,1.76716 -1.40329,1.06048 -1.36098,-0.70668 -8.40354,4.38439 -15.65015,11.3135 -7.24661,6.92908 -13.34078,12.68583 -13.54264,12.79273 -0.20184,0.10688 1.73802,-6.40583 4.31081,-14.47278 z m -12.39799,1.12486 c 0.0202,-5.70732 0.5267,-7.07573 1.69487,-4.57938 0.9163,1.95811 2.95387,2.89148 4.52794,2.07415 2.46391,-1.27937 2.43188,-0.47208 -0.23019,5.80427 -3.75968,8.86418 -6.03133,7.61362 -5.99262,-3.29904 z m -4.6439,-11.75176 c -1.61095,-3.52706 2.29496,-15.5245 5.03966,-15.47989 1.79173,0.0291 1.73793,0.60903 -0.21144,2.27951 -1.60495,1.37532 -2.25181,4.80757 -1.67525,8.88877 0.9112,6.44994 -0.98929,9.04878 -3.15297,4.31161 z m 91.33054,-9.14191 c 0,-2.10442 0.8483,-3.82622 1.88512,-3.82622 1.03682,0 1.88512,1.7218 1.88512,3.82622 0,2.10442 -0.8483,3.82622 -1.88512,3.82622 -1.03682,0 -1.88512,-1.7218 -1.88512,-3.82622 z m -23.39064,-5.10163 c -3.07489,-6.35007 -8.21984,-9.25988 -5.63773,-3.18851 0.78785,1.8525 0.637,2.29785 -0.36002,1.06285 -0.94384,-1.16914 -1.71608,-3.43218 -1.71608,-5.02901 0,-1.59684 -3.54897,-4.67725 -7.88659,-6.84536 -4.33762,-2.16814 -8.57914,-4.96641 -9.4256,-6.21838 -0.8819,-1.30441 -0.0999,-1.5766 1.8313,-0.63752 2.07465,1.00879 3.76523,0.24641 4.39753,-1.98334 0.56497,-1.99218 2.25112,-2.98664 3.747,-2.20989 2.14246,1.11243 2.24169,2.19173 0.46745,5.08448 -1.78754,2.91446 -1.70023,3.51097 0.42317,2.89061 1.47153,-0.42989 3.13266,-1.60518 3.69143,-2.61178 0.55874,-1.00658 3.72218,0.39683 7.02983,3.11865 4.30004,3.53844 5.66524,6.1784 4.79037,9.26333 -0.79133,2.79041 -0.49048,3.70149 0.85165,2.57908 1.14138,-0.95449 2.57183,-0.64819 3.17878,0.68071 0.60697,1.3289 0.15081,3.2129 -1.01356,4.18668 -1.50004,1.25446 -1.37163,2.4097 0.44054,3.96342 1.53354,1.31485 1.70094,2.20855 0.41806,2.23197 -1.17677,0.0204 -3.52917,-2.83062 -5.22753,-6.33799 z m -14.62131,-28.52534 c -4.32105,-1.16939 -4.97547,-2.16548 -3.26011,-4.96227 2.49132,-4.06189 10.34826,-4.68011 12.05271,-0.94837 0.64079,1.40295 2.06718,2.55081 3.16975,2.55081 1.26414,0 1.13778,-1.41343 -0.34207,-3.82622 -1.29073,-2.10442 -1.60667,-3.91945 -0.7021,-4.03339 0.90456,-0.11403 -0.90026,-1.78397 -4.0107,-3.71116 l -5.65536,-3.504 5.07282,-0.11504 c 2.79005,-0.0633 5.5971,1.03282 6.23789,2.43577 0.64079,1.40295 2.01337,2.55081 3.05019,2.55081 1.03681,0 1.27984,-1.32522 0.54004,-2.94494 -0.84006,-1.83923 -0.51639,-2.25191 0.86205,-1.09914 1.21392,1.01517 1.7785,2.78426 1.25459,3.93131 -1.39592,3.05626 3.19143,7.22544 7.02667,6.38614 1.81936,-0.39813 2.86591,0.24386 2.32565,1.42675 -0.54026,1.18284 -0.12008,2.87163 0.93359,3.75283 1.05372,0.88121 1.91586,2.75006 1.91586,4.15301 0,1.40295 -0.93918,1.76539 -2.08707,0.80544 -1.41011,-1.17924 -1.70362,0.21988 -0.90491,4.31338 1.08912,5.58197 0.99376,5.68058 -1.21189,1.25314 -5.26326,-10.56509 -11.32228,-19.4271 -13.28246,-19.4271 -1.13863,0 0.4213,3.71263 3.46653,8.25027 3.04522,4.53765 3.62808,6.08153 1.29524,3.43087 -2.33283,-2.65067 -4.24152,-3.56137 -4.24152,-2.02376 0,1.53758 0.85434,3.51007 1.89853,4.38332 1.04418,0.87322 3.19616,4.98314 4.78215,9.13316 l 2.88361,7.54546 -8.83171,-9.12199 c -4.85742,-5.01709 -11.26451,-9.78038 -14.23797,-10.58506 z m -21.75549,1.81266 c 4.87807,-4.18601 8.86921,-8.78408 8.86921,-10.21794 0,-1.43384 1.21611,-2.60699 2.70247,-2.60699 1.54429,0 2.95809,-2.99687 3.29896,-6.99293 0.35621,-4.17616 1.90738,-7.32925 3.85092,-7.82786 2.96505,-0.7607 3.01336,-0.2061 0.54331,6.23608 -4.71872,12.30719 -17.17029,27.79275 -22.85979,28.42992 -4.77538,0.53477 -4.43535,-0.12933 3.59492,-7.02028 z m 42.14344,-16.73499 c 0.73291,-2.58444 -1.41379,-5.24687 -6.92013,-8.5827 -7.55307,-4.57578 -7.76686,-4.9923 -3.97255,-7.74004 4.59562,-3.32802 8.66179,-1.15904 14.39938,7.68094 2.06202,3.17701 2.68876,4.93738 1.39274,3.91195 -1.29602,-1.02543 -2.3564,-0.8784 -2.3564,0.32676 0,1.20516 1.06038,3.73704 2.3564,5.62638 1.88512,2.74817 1.88512,3.07516 0,1.63505 -1.29602,-0.9901 -2.3564,-0.51682 -2.3564,1.05172 0,1.56855 -0.81126,2.17347 -1.80279,1.34426 -0.99154,-0.8292 -1.32464,-3.19365 -0.74025,-5.25432 z m -0.96475,-11.24343 c -2.44771,-2.88915 -5.34609,-5.25302 -6.44083,-5.25302 -2.31817,0 -2.20744,0.12729 5.23582,6.02505 l 5.65536,4.48099 z m -18.34523,-28.21034 c -1.96573,0 -2.39567,-1.77746 -1.54252,-6.37703 0.82546,-4.45031 0.40913,-6.38885 -1.37793,-6.41609 -2.11118,-0.0321 -2.12153,-0.41586 -0.059,-2.18526 2.00284,-1.71815 2.07212,-4.30541 0.34739,-12.97249 -1.18493,-5.95447 -1.8094,-11.29318 -1.38768,-11.86381 1.10029,-1.48885 8.9494,38.2155 8.68797,43.94774 -0.19512,4.27825 -0.31155,4.31391 -1.08079,0.33086 -0.47415,-2.45515 -2.08853,-4.46392 -3.58748,-4.46392 z m 23.73814,-161.97667 c 0,-2.10442 0.79824,-3.82622 1.77386,-3.82622 2.3771,0 4.07959,3.98332 2.57351,6.02125 -2.123,2.87268 -4.34737,1.74957 -4.34737,-2.19503 z m -46.29814,-59.30642 c 0.27293,-2.45516 -0.15307,-7.5541 -0.94648,-11.33098 -1.17856,-5.60977 -0.43409,-8.29519 4.06616,-14.66718 5.51882,-7.81422 10.51673,-10.59945 8.27521,-4.6116 -0.65649,1.75368 -0.0703,1.39558 1.30258,-0.79578 3.6724,-5.86169 9.20885,-7.9902 12.16074,-4.67523 1.89477,2.12783 2.58874,2.13963 2.58874,0.044 0,-1.57473 0.97977,-2.86315 2.17729,-2.86315 1.3007,0 0.91807,1.88277 -0.9504,4.67649 -4.04935,6.05457 -9.83435,6.6327 -6.38104,0.63771 2.05211,-3.5625 1.93987,-3.62869 -0.95174,-0.56125 -1.803,1.91265 -2.87354,4.36349 -2.37898,5.44632 1.98942,4.35566 -3.23451,17.85968 -6.90887,17.85968 -3.62601,0 -3.61858,-0.18169 0.31278,-7.65244 2.21483,-4.20884 3.33298,-7.6446 2.48476,-7.63501 -0.84821,0.01 -3.56024,4.02712 -6.02671,8.92785 -2.46649,4.90073 -5.27355,8.91042 -6.2379,8.91042 -0.96435,0 -1.2291,1.14786 -0.58831,2.55081 0.64079,1.40295 2.01336,2.55081 3.05018,2.55081 1.03682,0 1.39708,-1.06855 0.80057,-2.37455 -0.59652,-1.30601 -0.2969,-3.03328 0.66581,-3.83837 3.32473,-2.7804 0.83079,6.92892 -2.66927,10.39201 -4.42427,4.37752 -4.44138,4.37311 -3.84512,-0.99057 z M 364.58782,990.82158 c -0.64628,-1.41496 -0.10703,-2.57267 1.19834,-2.57267 3.72686,0 0.0532,-3.75735 -14.65788,-14.99197 -7.39726,-5.64916 -15.8803,-10.9179 -18.8512,-11.70829 -4.36211,-1.16052 -4.67607,-0.97316 -1.6314,0.97365 3.77023,2.41072 3.77023,2.41072 0,2.64603 -2.49541,0.1556 -1.0478,1.90735 4.28121,5.18024 4.4283,2.71971 9.34073,4.27547 10.91653,3.45725 1.72848,-0.8975 2.64753,-0.22116 2.3167,1.70517 -0.3016,1.75605 3.53563,6.49817 8.52719,10.53805 4.99156,4.03987 8.54679,6.18753 7.90051,4.77254 z M 230.17313,889.47617 c -0.88065,-6.23362 -1.12944,-6.42919 -2.43377,-1.91311 -2.13715,7.39968 -1.99759,8.85656 0.84843,8.85656 1.77668,0 2.26446,-2.13639 1.58534,-6.94345 z M -91.148965,758.03797 c -1.18768,-4.82662 -7.07009,-5.51281 -7.07009,-0.82474 0,2.36623 1.61178,4.01326 3.92733,4.01326 2.30358,0 3.60295,-1.3183 3.14276,-3.18852 z M 221.77589,708.93481 c 0.0209,-5.61179 -0.348,-8.20787 -0.81983,-5.76907 -0.47183,2.4388 -0.48895,7.03026 -0.038,10.20325 0.4509,3.17299 0.83695,1.17761 0.85787,-4.43418 z m -3.55156,-19.56018 c 0.1412,-2.34041 0.80572,-6.35795 1.47673,-8.92785 0.94177,-3.60692 0.69041,-4.01246 -1.10216,-1.77823 -1.2772,1.59188 -1.94173,5.60941 -1.47673,8.92785 0.46499,3.31844 0.96096,4.11864 1.10216,1.77823 z m 6.30964,-31.61244 c 3.58311,-9.54723 1.27309,-14.67613 -3.62495,-8.04845 -2.07596,2.80905 -2.4157,5.6362 -1.23294,10.25984 l 1.63265,6.38232 z m -204.461345,-9.2444 c -0.66134,-2.36452 -0.25161,-4.728 0.91053,-5.25217 2.40592,-1.08518 0.29594,-7.029 -2.4952,-7.029 -3.55426,0 -3.92486,7.57655 -0.58944,12.05081 3.01791,4.04835 3.24885,4.07282 2.17411,0.23036 z"
       style="fill:#1b6c09;fill-opacity:1" />
  </g>
</svg>
