<?xml version="1.0" encoding="UTF-8" standalone="no"?>
<svg
   xmlns:dc="http://purl.org/dc/elements/1.1/"
   xmlns:cc="http://creativecommons.org/ns#"
   xmlns:rdf="http://www.w3.org/1999/02/22-rdf-syntax-ns#"
   xmlns:svg="http://www.w3.org/2000/svg"
   xmlns="http://www.w3.org/2000/svg"
   xmlns:sodipodi="http://sodipodi.sourceforge.net/DTD/sodipodi-0.dtd"
   xmlns:inkscape="http://www.inkscape.org/namespaces/inkscape"
   viewBox="0 0 512 512"
   id="svg8438"
   version="1.1"
   inkscape:version="0.48.4 r9939"
   width="100%"
   height="100%"
   sodipodi:docname="t-shirt.svg">
  <metadata
     id="metadata8464">
    <rdf:RDF>
      <cc:Work
         rdf:about="">
        <dc:format>image/svg+xml</dc:format>
        <dc:type
           rdf:resource="http://purl.org/dc/dcmitype/StillImage" />
        <dc:title></dc:title>
      </cc:Work>
    </rdf:RDF>
  </metadata>
  <defs
     id="defs8462">
    <linearGradient
       id="linearGradient3890">
      <stop
         style="stop-color:#701b1b;stop-opacity:1;"
         offset="0"
         id="stop3892" />
      <stop
         style="stop-color:#e31600;stop-opacity:1;"
         offset="1"
         id="stop3894" />
    </linearGradient>
    <linearGradient
       id="linearGradient3882">
      <stop
         style="stop-color:#600b0b;stop-opacity:1;"
         offset="0"
         id="stop3884" />
      <stop
         style="stop-color:#d11414;stop-opacity:1;"
         offset="1"
         id="stop3886" />
    </linearGradient>
    <linearGradient
       id="linearGradient3872">
      <stop
         style="stop-color:#800600;stop-opacity:1;"
         offset="0"
         id="stop3874" />
      <stop
         style="stop-color:#ff0004;stop-opacity:0;"
         offset="1"
         id="stop3876" />
    </linearGradient>
  </defs>
  <sodipodi:namedview
     pagecolor="#000000"
     bordercolor="#666666"
     borderopacity="1"
     objecttolerance="10"
     gridtolerance="10"
     guidetolerance="10"
     inkscape:pageopacity="0"
     inkscape:pageshadow="2"
     inkscape:window-width="1190"
     inkscape:window-height="1126"
     id="namedview8460"
     showgrid="false"
     inkscape:zoom="0.65186406"
     inkscape:cx="227.38759"
     inkscape:cy="189.326"
     inkscape:window-x="417"
     inkscape:window-y="115"
     inkscape:window-maximized="0"
     inkscape:current-layer="g8466" />
  <g
     id="g8466">
    <rect
       style="fill:#000000;fill-opacity:1;fill-rule:nonzero;stroke:none"
       id="rect3947"
       width="518.513"
       height="518.513"
       x="-1.5340621"
       y="-1.9108263" />
    <path
       style="fill:#ffffff;fill-opacity:1;stroke:none"
       d="m 86.465427,260.98852 c 14.658083,-24.82785 22.602593,-70.02914 44.823073,-88.41206 18.95074,26.13796 13.25033,58.61143 12.89693,89.19546 1.55831,51.30799 -22.48609,145.77401 -15.9336,197.15708 3.32844,19.23573 105.85709,-9.42624 137.47549,-8.22567 57.39297,-2.70044 99.58659,-3.52442 157.06155,-1.48934 1.82982,-28.35417 -37.00432,-178.38107 -44.62872,-223.37021 -0.91348,-20.65315 -15.38497,-55.06728 -0.20699,-67.46339 25.79597,13.84575 38.28973,41.01926 62.17647,54.38811 18.68101,-16.26569 46.72008,-29.25644 62.81965,-78.37103 C 451.26759,82.189708 409.08282,59.609144 335.73247,47.269183 308.14727,51.438471 291.78791,83.621538 262.30338,81.844628 232.66995,85.538108 202.52885,76.066468 178.532,58.30385 152.93422,45.776381 128.10023,66.281968 108.76457,81.526628 81.489827,99.321598 28.931564,149.90543 10.244617,177.9503 c 11.085792,35.14436 37.482525,72.48155 76.22081,83.03822 z"
       id="path3919"
       inkscape:connector-curvature="0"
       sodipodi:nodetypes="cccccccccccccccc" />
    <g
       transform="translate(3.0681243,-18.408746)"
       style="font-size:40px;font-style:normal;font-variant:normal;font-weight:normal;font-stretch:normal;text-align:center;line-height:125%;letter-spacing:0px;word-spacing:0px;text-anchor:middle;fill:#ff0000;fill-opacity:1;stroke:none;font-family:Comic Sans MS;-inkscape-font-specification:Comic Sans MS"
       id="flowRoot3935">
      <path
         d="m 236.21484,186.83669 c -0.83335,3e-5 -1.88152,-0.0846 -3.14453,-0.2539 l -3.14453,-0.41016 c -0.29949,3.78908 -0.44923,7.40887 -0.44922,10.85937 -1e-5,0.91148 0.026,2.03778 0.0781,3.37891 0.0521,1.34116 0.0781,2.46746 0.0781,3.37891 -1e-5,1.22396 -0.0456,2.33724 -0.13672,3.33984 l 6.15235,-0.0781 c 0.54685,0 1.00584,0.19206 1.37695,0.57617 0.37107,0.38412 0.55662,0.85612 0.55664,1.41601 -2e-5,0.57292 -0.18557,1.05144 -0.55664,1.43555 -0.37111,0.38412 -0.8301,0.57617 -1.37695,0.57617 -0.72919,0 -1.82294,0.0163 -3.28125,0.0488 -1.45835,0.0325 -2.5521,0.0488 -3.28125,0.0488 -0.85939,0 -2.14519,0.12044 -3.85742,0.36133 -1.71225,0.24088 -3.00457,0.36132 -3.87696,0.36132 -0.54688,0 -1.00586,-0.19205 -1.37695,-0.57617 -0.3711,-0.38411 -0.55664,-0.85612 -0.55664,-1.41601 0,-0.5599 0.18554,-1.03516 0.55664,-1.42578 0.37109,-0.39063 0.83007,-0.58594 1.37695,-0.58594 0.84635,0 2.24609,-0.13672 4.19922,-0.41016 0.1302,-1.05468 0.19531,-2.25911 0.19531,-3.61328 0,-0.89843 -0.0423,-1.99543 -0.12695,-3.29101 -0.0846,-1.29557 -0.12696,-2.38606 -0.12695,-3.27149 -1e-5,-3.00779 0.18228,-6.7643 0.54687,-11.26953 l -2.53906,0.0781 -2.53906,0.0586 c -0.5599,2e-5 -1.02865,-0.18878 -1.40625,-0.56641 -0.37761,-0.37758 -0.56641,-0.85935 -0.56641,-1.44531 0,-1.21091 0.61198,-1.87497 1.83594,-1.99219 1.05468,-0.10414 3.02734,-0.15622 5.91797,-0.15625 2.59113,3e-5 5.83983,0.27998 9.74609,0.83985 1.15884,0.16929 1.73826,0.86591 1.73828,2.08984 -2e-5,0.612 -0.22137,1.10029 -0.66406,1.46484 -0.39064,0.29951 -0.83986,0.44925 -1.34766,0.44922 z"
         style=""
         id="path3950" />
      <path
         d="m 248.42187,182.93044 c 0,0.39066 0.0325,0.97008 0.0977,1.73828 0.0651,0.76826 0.0976,1.34768 0.0977,1.73828 -1e-5,1.66669 -0.58595,2.50003 -1.75782,2.5 -0.80729,3e-5 -1.32162,-0.28643 -1.54296,-0.85937 -0.10418,-0.29946 -0.15626,-0.91795 -0.15625,-1.85547 -1e-5,-0.36456 -0.0358,-0.90818 -0.10743,-1.63086 -0.0716,-0.72263 -0.10742,-1.26625 -0.10742,-1.63086 0,-1.30205 0.0521,-2.18096 0.15625,-2.63672 0.26041,-1.02861 0.83333,-1.54293 1.71875,-1.54297 0.49479,4e-5 0.91145,0.15954 1.25,0.47852 0.33854,0.31904 0.50781,0.72594 0.50781,1.2207 0,0.27347 -0.0261,0.68688 -0.0781,1.24024 -0.0521,0.55341 -0.0781,0.96682 -0.0781,1.24023 z"
         style=""
         id="path3952" />
      <path
         d="m 286.68359,212.79372 c -0.70315,0 -1.28258,-0.36458 -1.73828,-1.09375 -0.39065,-0.625 -0.74221,-1.66666 -1.05469,-3.125 l -0.70312,-3.35937 c -0.53388,-2.08333 -1.38024,-6.67968 -2.53906,-13.78906 l -3.90625,11.77734 -1.15235,3.71094 c -0.46877,1.47135 -0.95705,2.67578 -1.46484,3.61328 -0.54689,0.98958 -1.28257,1.48437 -2.20703,1.48437 -0.76825,0 -1.37371,-0.41666 -1.81641,-1.25 -0.28647,-0.54687 -0.54689,-1.24348 -0.78125,-2.08984 l -0.5664,-2.16797 c -1.31512,-4.59634 -2.47397,-9.51821 -3.47657,-14.76562 l -0.70312,3.49609 -2.51953,10.3125 c -0.10418,1.21094 -0.4297,3.0013 -0.97657,5.37109 -0.39063,1.01563 -1.03516,1.52344 -1.93359,1.52344 -0.63802,0 -1.14584,-0.22786 -1.52344,-0.68359 -0.32552,-0.39063 -0.48828,-0.8724 -0.48828,-1.44532 0,-2.17447 0.44922,-4.84374 1.34766,-8.00781 l 2.14844,-7.87109 1.13281,-6.15235 c 0.57291,-2.87757 1.17838,-4.75908 1.8164,-5.64453 0.52083,-0.75518 1.16536,-1.13278 1.9336,-1.13281 0.84634,3e-5 1.47785,0.4818 1.89453,1.44531 0.5078,1.15888 1.05467,3.52216 1.64062,7.08985 0.69009,4.28387 1.76431,8.91928 3.22266,13.90625 1.92707,-5.01301 3.59373,-10.23436 5,-15.66407 l 0.58594,-2.85156 c 0.23435,-1.1458 0.54034,-2.07028 0.91797,-2.77344 0.50779,-0.96351 1.2044,-1.44528 2.08984,-1.44531 1.11977,3e-5 1.97263,1.08076 2.55859,3.24219 0.20831,0.74221 0.46222,2.27867 0.76172,4.60937 0.7682,5.88544 1.72523,10.91147 2.8711,15.07813 l 0.95703,3.35937 c 0.49476,1.79688 0.74215,2.90365 0.74219,3.32032 -4e-5,0.55989 -0.21163,1.02864 -0.63477,1.40625 -0.42321,0.3776 -0.90172,0.5664 -1.43555,0.5664 z"
         style=""
         id="path3954" />
      <path
         d="m 221.01953,263.04763 c -0.59898,0 -1.12633,-0.16927 -1.58203,-0.50781 -0.52086,-0.39063 -0.78128,-0.8724 -0.78125,-1.44532 -0.59898,-1.57551 -0.97659,-2.85807 -1.13281,-3.84765 -0.15628,-0.98958 -0.6706,-3.79557 -1.54297,-8.41797 -0.66409,-3.50259 -1.10679,-6.31509 -1.32813,-8.4375 -1.15887,4.29689 -2.40236,7.93621 -3.73047,10.91797 -1.53647,3.45053 -2.53256,6.15235 -2.98828,8.10547 0.15624,0.29948 0.23436,0.59245 0.23438,0.8789 -2e-5,0.58594 -0.26043,1.06771 -0.78125,1.44532 -0.46876,0.35156 -1.00262,0.52734 -1.60156,0.52734 -1.75783,0 -2.63673,-0.78776 -2.63672,-2.36328 l -0.60547,-2.48047 -2.12891,-9.57031 c -0.84636,-3.22915 -2.29167,-7.85805 -4.33594,-13.88672 -0.0911,-0.28643 -0.13672,-0.54685 -0.13671,-0.78125 -1e-5,-1.21091 0.68359,-1.81638 2.05078,-1.81641 0.84635,3e-5 1.49739,0.46227 1.95312,1.38672 0.23437,0.46878 0.70963,1.81643 1.42578,4.04297 0.76822,2.35679 1.53645,5.19533 2.30469,8.51562 l 1.89453,8.63282 c 1.39322,-3.22916 2.77994,-7.16145 4.16016,-11.79688 0.84634,-2.8255 1.49087,-4.78513 1.93359,-5.8789 1.17186,-2.87758 2.31118,-4.31638 3.41797,-4.31641 0.91144,3e-5 1.55597,0.46227 1.93359,1.38672 0.46873,1.11982 0.94399,3.78908 1.42579,8.00781 0.26039,2.13544 0.7031,4.70054 1.32812,7.69531 l 1.67969,7.67578 c 1.74476,-4.19269 3.92575,-9.86326 6.54297,-17.01171 0.14319,-0.39061 0.46871,-1.62107 0.97656,-3.69141 0.37757,-1.52341 0.83981,-2.70831 1.38672,-3.55469 0.46871,-0.71611 1.08069,-1.07419 1.83594,-1.07422 1.31506,3e-5 1.97261,0.65107 1.97265,1.95313 -4e-5,0.22138 -0.20837,0.87242 -0.625,1.95312 l -0.78125,2.10938 -1.07422,3.47656 -5.80078,14.10156 c -0.53388,1.54949 -1.45185,3.80209 -2.7539,6.75782 -0.46878,0.87239 -1.17191,1.30859 -2.10938,1.30859 z"
         style=""
         id="path3956" />
      <path
         d="m 253.48047,236.83669 c -0.83335,3e-5 -1.88153,-0.0846 -3.14453,-0.2539 l -3.14453,-0.41016 c -0.2995,3.78908 -0.44923,7.40887 -0.44922,10.85937 -1e-5,0.91148 0.026,2.03778 0.0781,3.37891 0.0521,1.34116 0.0781,2.46746 0.0781,3.37891 -1e-5,1.22396 -0.0456,2.33724 -0.13672,3.33984 l 6.15234,-0.0781 c 0.54686,0 1.00584,0.19206 1.37696,0.57617 0.37107,0.38412 0.55662,0.85612 0.55664,1.41601 -2e-5,0.57292 -0.18557,1.05144 -0.55664,1.43555 -0.37112,0.38412 -0.8301,0.57617 -1.37696,0.57617 -0.72918,0 -1.82293,0.0163 -3.28125,0.0488 -1.45834,0.0326 -2.55209,0.0488 -3.28125,0.0488 -0.85938,0 -2.14519,0.12044 -3.85742,0.36133 -1.71224,0.24088 -3.00456,0.36132 -3.87695,0.36132 -0.54688,0 -1.00586,-0.19205 -1.37696,-0.57617 -0.37109,-0.38411 -0.55664,-0.85612 -0.55664,-1.41601 0,-0.5599 0.18555,-1.03516 0.55664,-1.42578 0.3711,-0.39063 0.83008,-0.58594 1.37696,-0.58594 0.84635,0 2.24609,-0.13672 4.19922,-0.41016 0.1302,-1.05468 0.1953,-2.25911 0.19531,-3.61328 -1e-5,-0.89843 -0.0423,-1.99543 -0.12695,-3.29101 -0.0847,-1.29557 -0.12697,-2.38606 -0.12696,-3.27149 -1e-5,-3.00779 0.18229,-6.7643 0.54688,-11.26953 l -2.53907,0.0781 -2.53906,0.0586 c -0.5599,2e-5 -1.02865,-0.18878 -1.40625,-0.56641 -0.3776,-0.37758 -0.56641,-0.85935 -0.5664,-1.44531 -1e-5,-1.21091 0.61197,-1.87497 1.83593,-1.99219 1.05469,-0.10414 3.02734,-0.15622 5.91797,-0.15625 2.59114,3e-5 5.83983,0.27998 9.7461,0.83985 1.15883,0.16929 1.73826,0.86591 1.73828,2.08984 -2e-5,0.612 -0.22138,1.10029 -0.66407,1.46484 -0.39064,0.29951 -0.83986,0.44925 -1.34765,0.44922 z"
         style=""
         id="path3958" />
      <path
         d="m 283.26562,236.50466 c -0.96356,3e-5 -2.44794,-0.0781 -4.45312,-0.23437 -1.95315,-0.14321 -3.43752,-0.20831 -4.45313,-0.19532 l -1.38671,0 c 0.039,1.7969 0.21482,4.71357 0.52734,8.75 0.28644,3.76304 0.42967,6.68621 0.42969,8.76953 -2e-5,0.45574 0.0455,1.14584 0.13672,2.07032 0.0911,0.92448 0.1367,1.62109 0.13671,2.08984 -1e-5,0.88542 -0.14324,1.64714 -0.42968,2.28516 -0.3646,0.85937 -0.93101,1.28906 -1.69922,1.28906 -0.52085,0 -0.9896,-0.18229 -1.40625,-0.54688 -0.41668,-0.36458 -0.62501,-0.83333 -0.625,-1.40625 -1e-5,-0.19531 0.0325,-0.48827 0.0976,-0.8789 0.0651,-0.39062 0.0976,-0.68359 0.0977,-0.87891 -10e-6,-0.63801 -0.0423,-1.59504 -0.12695,-2.87109 -0.0847,-1.27604 -0.12697,-2.23958 -0.12696,-2.89063 -1e-5,-1.86196 -0.14975,-4.47915 -0.44921,-7.85156 -0.31252,-3.64581 -0.4883,-6.263 -0.52735,-7.85156 l -1.77734,0.0195 c -2.85157,2e-5 -5.09115,-0.20831 -6.71875,-0.625 -1.05469,-0.27341 -1.58203,-0.91794 -1.58203,-1.93359 0,-0.53383 0.16927,-1.00258 0.50781,-1.40625 0.39062,-0.4557 0.89192,-0.66404 1.50391,-0.625 0.45572,0.0261 1.49739,0.14325 3.125,0.35156 1.30207,0.15628 2.35676,0.2344 3.16406,0.23437 0.78124,3e-5 1.96613,-0.0162 3.55469,-0.0488 1.58852,-0.0325 2.77342,-0.0488 3.55468,-0.0488 1.00259,3e-5 2.49022,0.0716 4.46289,0.21484 1.97264,0.14326 3.46027,0.21487 4.46289,0.21484 0.55987,3e-5 1.02862,0.19209 1.40625,0.57618 0.37758,0.38414 0.56638,0.86265 0.56641,1.43554 -3e-5,0.55993 -0.18883,1.03193 -0.56641,1.41602 -0.37763,0.38414 -0.84638,0.5762 -1.40625,0.57617 z"
         style=""
         id="path3960" />
      <path
         d="m 312.28906,233.6531 c -0.19534,0.5469 -0.29299,1.34768 -0.29297,2.40234 -2e-5,0.39065 0.013,0.97008 0.0391,1.73828 0.026,0.76826 0.039,1.34768 0.0391,1.73828 -3e-5,1.30211 -0.11396,3.24221 -0.3418,5.82032 -0.22789,2.57814 -0.34182,4.51824 -0.3418,5.82031 -2e-5,0.98959 0.0716,2.47397 0.21485,4.45312 0.1432,1.97917 0.21481,3.47006 0.21484,4.47266 -3e-5,0.53386 -0.17906,0.98307 -0.53711,1.34766 -0.3581,0.36458 -0.80406,0.54687 -1.33789,0.54687 -0.52086,0 -0.96356,-0.18229 -1.32812,-0.54687 -0.36461,-0.36459 -0.5469,-0.8138 -0.54688,-1.34766 -2e-5,-1.0026 -0.0716,-2.49349 -0.21484,-4.47266 -0.14325,-1.97915 -0.21487,-3.46353 -0.21485,-4.45312 -2e-5,-0.95051 0.0325,-1.91405 0.0977,-2.89063 -2.22658,0.0391 -4.98049,0.37111 -8.26172,0.9961 l -8.20312,1.60156 c -10e-6,1.17189 -0.1172,2.83529 -0.35157,4.99024 -0.23438,2.15495 -0.35156,3.82487 -0.35156,5.00976 0,0.53385 -0.17904,0.98633 -0.53711,1.35742 -0.35808,0.3711 -0.80404,0.55664 -1.33789,0.55664 -0.53386,0 -0.97982,-0.18554 -1.33789,-0.55664 -0.35807,-0.37109 -0.53711,-0.82357 -0.53711,-1.35742 0,-1.38021 0.11393,-3.44075 0.3418,-6.18164 0.22786,-2.74088 0.34179,-4.80142 0.3418,-6.18164 -1e-5,-0.71613 -0.026,-1.79686 -0.0781,-3.24219 -0.0521,-1.44529 -0.0781,-2.53253 -0.0781,-3.26172 -1e-5,-1.02862 0.0651,-2.57484 0.19531,-4.63867 0.1302,-2.06377 0.19531,-3.61 0.19531,-4.63867 0,-0.54685 0.17903,-1.00258 0.53711,-1.36719 0.35807,-0.36455 0.80403,-0.54684 1.33789,-0.54687 0.53385,3e-5 0.97981,0.18232 1.33789,0.54687 0.35807,0.36461 0.5371,0.82034 0.53711,1.36719 -10e-6,1.04169 -0.0684,2.60094 -0.20508,4.67773 -0.13672,2.07685 -0.20508,3.63609 -0.20508,4.67774 l 0.11719,4.9414 8.37891,-1.58203 c 3.34633,-0.62498 6.16534,-0.9505 8.45703,-0.97656 0.1432,-1.86196 0.21482,-4.66795 0.21484,-8.41797 -2e-5,-0.98956 0.16274,-1.99216 0.48828,-3.00781 0.42967,-1.3932 1.03514,-2.08981 1.81641,-2.08984 0.49477,3e-5 0.93747,0.17906 1.32813,0.53711 0.39059,0.3581 0.58591,0.81057 0.58593,1.35742 -2e-5,0.19534 -0.0586,0.46226 -0.17578,0.80078 z"
         style=""
         id="path3962" />
      <path
         d="m 178.5,306.30935 c -0.013,-0.54687 0.17252,-0.99283 0.55664,-1.33789 0.38411,-0.34505 0.85612,-0.51757 1.41602,-0.51758 0.63801,10e-6 1.19791,0.36459 1.67968,1.09375 0.66406,0.98959 1.25651,1.66016 1.77735,2.01172 1.10676,0.72917 2.71483,1.09375 4.82422,1.09375 2.01821,0 3.89321,-0.4362 5.625,-1.3086 2.21352,-1.11978 3.32029,-2.67577 3.32031,-4.66796 -2e-5,-1.64062 -0.93101,-2.93619 -2.79297,-3.88672 -1.57554,-0.8203 -3.52215,-1.26301 -5.83984,-1.32813 -2.05731,-0.0781 -3.80861,-0.52733 -5.25391,-1.34765 -1.84896,-1.05468 -2.77344,-2.56509 -2.77344,-4.53125 0,-2.31769 1.3151,-4.43357 3.94531,-6.34766 2.51301,-1.80987 5.11067,-2.71482 7.79297,-2.71484 1.26301,2e-5 2.68879,0.21487 4.27735,0.64453 2.10935,0.55992 3.16404,1.27607 3.16406,2.14843 -2e-5,1.14586 -0.58596,1.71878 -1.75781,1.71875 -0.52086,3e-5 -1.43232,-0.13994 -2.73438,-0.41992 -1.3021,-0.27992 -2.31121,-0.41338 -3.02734,-0.40039 -2.03127,0.0261 -3.75652,0.52737 -5.17578,1.50391 -1.45835,1.00263 -2.18751,2.22007 -2.1875,3.65234 -1e-5,1.08075 0.96353,1.84247 2.89062,2.28516 0.71614,0.16929 2.10285,0.32554 4.16016,0.46875 2.98175,0.22137 5.31248,1.15887 6.99219,2.8125 1.53643,1.51043 2.30466,3.35287 2.30468,5.52734 -2e-5,3.09897 -1.43231,5.57292 -4.29687,7.42188 -2.487,1.60156 -5.37111,2.40234 -8.65235,2.40234 -2.38282,0 -4.56381,-0.45573 -6.54296,-1.36719 -2.42188,-1.11979 -3.65235,-2.65624 -3.69141,-4.60937 z"
         style=""
         id="path3964" />
      <path
         d="m 230.21875,286.50466 c -0.96357,3e-5 -2.44794,-0.0781 -4.45313,-0.23437 -1.95314,-0.14321 -3.43751,-0.20831 -4.45312,-0.19532 l -1.38672,0 c 0.0391,1.7969 0.21483,4.71357 0.52734,8.75 0.28645,3.76304 0.42968,6.68621 0.42969,8.76953 -1e-5,0.45574 0.0456,1.14584 0.13672,2.07032 0.0911,0.92448 0.1367,1.62109 0.13672,2.08984 -2e-5,0.88542 -0.14325,1.64714 -0.42969,2.28516 -0.3646,0.85937 -0.931,1.28906 -1.69922,1.28906 -0.52084,0 -0.98959,-0.18229 -1.40625,-0.54688 -0.41668,-0.36458 -0.62501,-0.83333 -0.625,-1.40625 -1e-5,-0.19531 0.0325,-0.48827 0.0977,-0.8789 0.0651,-0.39062 0.0976,-0.68359 0.0977,-0.87891 -2e-5,-0.63801 -0.0423,-1.59504 -0.12696,-2.87109 -0.0846,-1.27604 -0.12696,-2.23958 -0.12695,-2.89063 -1e-5,-1.86196 -0.14975,-4.47915 -0.44922,-7.85156 -0.31251,-3.64581 -0.48829,-6.263 -0.52734,-7.85156 l -1.77735,0.0195 c -2.85157,2e-5 -5.09115,-0.20831 -6.71875,-0.625 -1.05469,-0.27341 -1.58203,-0.91794 -1.58203,-1.93359 0,-0.53383 0.16927,-1.00258 0.50781,-1.40625 0.39063,-0.4557 0.89193,-0.66404 1.50391,-0.625 0.45573,0.0261 1.49739,0.14325 3.125,0.35156 1.30208,0.15628 2.35676,0.2344 3.16406,0.23437 0.78124,3e-5 1.96614,-0.0162 3.55469,-0.0488 1.58853,-0.0325 2.77342,-0.0488 3.55469,-0.0488 1.00258,3e-5 2.49021,0.0716 4.46289,0.21484 1.97263,0.14326 3.46026,0.21487 4.46289,0.21484 0.55987,3e-5 1.02862,0.19209 1.40625,0.57618 0.37758,0.38414 0.56638,0.86265 0.56641,1.43554 -3e-5,0.55993 -0.18883,1.03193 -0.56641,1.41602 -0.37763,0.38414 -0.84638,0.5762 -1.40625,0.57617 z"
         style=""
         id="path3966" />
      <path
         d="m 246.23437,311.95388 c -4.04949,0 -7.07032,-1.16536 -9.0625,-3.49609 -1.61458,-1.875 -2.63021,-4.64843 -3.04687,-8.32032 -0.19532,-1.65363 -0.29297,-4.95441 -0.29297,-9.90234 0,-1.82289 0.0391,-3.29425 0.11719,-4.41406 0.0781,-1.18487 0.19531,-2.01169 0.35156,-2.48047 0.32552,-0.95049 0.91146,-1.42575 1.75781,-1.42578 1.19791,3e-5 1.79687,1.10029 1.79688,3.30078 l 0,11.46484 c -1e-5,7.89063 2.76041,11.83594 8.28125,11.83594 5.19529,0 7.79294,-6.64062 7.79297,-19.92188 -3e-5,-0.49476 -3e-5,-1.13278 0,-1.91406 -0.013,-0.78122 -0.0196,-1.30206 -0.0195,-1.5625 -3e-5,-0.80726 0.1432,-1.5169 0.42968,-2.1289 0.36456,-0.78123 0.90493,-1.17185 1.6211,-1.17188 1.30205,3e-5 1.9531,0.89196 1.95312,2.67578 -2e-5,0.53388 0.006,1.34117 0.0195,2.42188 -2e-5,1.08075 -2e-5,1.88804 0,2.42187 -2e-5,15.07813 -3.89976,22.61719 -11.69922,22.61719 z"
         style=""
         id="path3968" />
      <path
         d="m 268.32422,299.70779 c -0.36459,1e-5 -1.15886,-0.0846 -2.38281,-0.25391 -0.10418,1.96616 -0.15626,5.41016 -0.15625,10.33203 -1e-5,0.52084 -0.16928,0.96029 -0.50782,1.31836 -0.33854,0.35807 -0.76172,0.53711 -1.26953,0.53711 -0.52083,0 -0.95052,-0.17904 -1.28906,-0.53711 -0.33854,-0.35807 -0.50781,-0.79752 -0.50781,-1.31836 l 0,-5.74219 c 0,-1.91405 0.11718,-4.60936 0.35156,-8.08593 0.26041,-3.76301 0.40364,-6.45832 0.42969,-8.08594 l 0,-2.69531 c -10e-6,-1.28904 0.0781,-2.22654 0.23437,-2.8125 0.29948,-1.14581 0.9375,-1.6406 1.91406,-1.48438 0.41667,-0.13018 1.00911,-0.22783 1.77735,-0.29297 0.76822,-0.0651 1.71223,-0.0976 2.83203,-0.0976 2.3828,3e-5 4.61587,0.81383 6.69922,2.4414 2.29165,1.7969 3.43748,3.95836 3.4375,6.48438 -2e-5,3.22918 -1.22398,5.80079 -3.67188,7.71484 -2.18751,1.71876 -4.81772,2.57814 -7.89062,2.57813 z m 0.97656,-15.50782 c -0.57292,3e-5 -1.08399,0.013 -1.5332,0.0391 -0.44923,0.0261 -0.83009,0.0651 -1.14258,0.11718 l -0.0391,3.59375 -0.41016,7.77344 2.14844,0.25391 c 2.18749,10e-6 4.02993,-0.55337 5.52734,-1.66016 1.64061,-1.21092 2.46092,-2.84503 2.46094,-4.90234 -2e-5,-1.45831 -0.78127,-2.71482 -2.34375,-3.76953 -1.44532,-0.96352 -3.00131,-1.44529 -4.66797,-1.44532 z"
         style=""
         id="path3970" />
      <path
         d="m 299.80859,286.83669 c -0.83335,3e-5 -1.88152,-0.0846 -3.14453,-0.2539 l -3.14453,-0.41016 c -0.29949,3.78908 -0.44923,7.40887 -0.44922,10.85937 -1e-5,0.91148 0.026,2.03778 0.0781,3.37891 0.0521,1.34116 0.0781,2.46746 0.0781,3.37891 -1e-5,1.22396 -0.0456,2.33724 -0.13672,3.33984 l 6.15235,-0.0781 c 0.54685,0 1.00584,0.19206 1.37695,0.57617 0.37107,0.38412 0.55662,0.85612 0.55664,1.41601 -2e-5,0.57292 -0.18557,1.05144 -0.55664,1.43555 -0.37111,0.38412 -0.8301,0.57617 -1.37695,0.57617 -0.72919,0 -1.82294,0.0163 -3.28125,0.0488 -1.45835,0.0326 -2.5521,0.0488 -3.28125,0.0488 -0.85939,0 -2.14519,0.12044 -3.85742,0.36133 -1.71225,0.24088 -3.00457,0.36132 -3.87696,0.36132 -0.54688,0 -1.00586,-0.19205 -1.37695,-0.57617 -0.3711,-0.38411 -0.55664,-0.85612 -0.55664,-1.41601 0,-0.5599 0.18554,-1.03516 0.55664,-1.42578 0.37109,-0.39063 0.83007,-0.58594 1.37695,-0.58594 0.84635,0 2.24609,-0.13672 4.19922,-0.41016 0.1302,-1.05468 0.19531,-2.25911 0.19531,-3.61328 0,-0.89843 -0.0423,-1.99543 -0.12695,-3.29101 -0.0846,-1.29557 -0.12696,-2.38606 -0.12695,-3.27149 -10e-6,-3.00779 0.18228,-6.7643 0.54687,-11.26953 l -2.53906,0.0781 -2.53906,0.0586 c -0.5599,2e-5 -1.02865,-0.18878 -1.40625,-0.56641 -0.37761,-0.37758 -0.56641,-0.85935 -0.56641,-1.44531 0,-1.21091 0.61198,-1.87497 1.83594,-1.99219 1.05468,-0.10414 3.02734,-0.15622 5.91797,-0.15625 2.59113,3e-5 5.83983,0.27998 9.74609,0.83985 1.15884,0.16929 1.73826,0.86591 1.73828,2.08984 -2e-5,0.612 -0.22137,1.10029 -0.66406,1.46484 -0.39064,0.29951 -0.83986,0.44925 -1.34766,0.44922 z"
         style=""
         id="path3972" />
      <path
         d="m 324.00781,311.03591 c -2.01825,1.38021 -4.91538,2.07031 -8.6914,2.07031 -0.95054,0 -2.03777,-0.14974 -3.26172,-0.44922 -1.47136,-0.35156 -2.57813,-0.80729 -3.32032,-1.36718 l -0.19531,0 c -0.5599,0 -1.02865,-0.19532 -1.40625,-0.58594 -0.37761,-0.39062 -0.56641,-0.86588 -0.5664,-1.42578 -1e-5,-1.36719 0.0618,-3.41471 0.18554,-6.14258 0.1237,-2.72785 0.18555,-4.77538 0.18555,-6.14258 0,-1.52342 -0.0293,-3.79881 -0.0879,-6.82617 -0.0586,-3.02732 -0.0879,-5.30271 -0.0879,-6.82617 -1e-5,-0.53383 0.27343,-1.09372 0.82031,-1.67969 0.54687,-0.58591 1.09375,-0.87887 1.64063,-0.87891 0.31249,4e-5 1.35416,0.43623 3.125,1.3086 2.00519,0.97659 3.16405,1.51695 3.47656,1.62109 3.6979,1.26305 6.84894,3.20315 9.45312,5.82031 3.05987,3.08596 4.58982,6.47788 4.58985,10.17579 -3e-5,2.22657 -0.52412,4.36198 -1.57227,6.40625 -1.0482,2.04427 -2.47723,3.68489 -4.28711,4.92187 z m -4.10156,-20.66406 c -1.32814,-0.87238 -4.39454,-2.36977 -9.19922,-4.49219 l 0.0977,5.625 0.0586,5.60547 -0.3125,10.66406 c 0.0911,0.0391 0.22786,0.1237 0.41016,0.25391 1.14582,0.76823 2.59113,1.15234 4.33593,1.15234 2.96874,0 5.1302,-0.45572 6.48438,-1.36719 1.263,-0.85937 2.26886,-2.01496 3.01758,-3.46679 0.74867,-1.45182 1.12302,-2.96549 1.12304,-4.54102 -2e-5,-3.67186 -2.00522,-6.81639 -6.01562,-9.43359 z"
         style=""
         id="path3974" />
    </g>
  </g>
</svg>
