<?xml version="1.0" encoding="UTF-8" standalone="no"?>
<svg
   xmlns:dc="http://purl.org/dc/elements/1.1/"
   xmlns:cc="http://creativecommons.org/ns#"
   xmlns:rdf="http://www.w3.org/1999/02/22-rdf-syntax-ns#"
   xmlns:svg="http://www.w3.org/2000/svg"
   xmlns="http://www.w3.org/2000/svg"
   xmlns:sodipodi="http://sodipodi.sourceforge.net/DTD/sodipodi-0.dtd"
   xmlns:inkscape="http://www.inkscape.org/namespaces/inkscape"
   viewBox="0 0 512 512"
   id="svg8438"
   version="1.1"
   inkscape:version="0.48.4 r9939"
   width="100%"
   height="100%"
   sodipodi:docname="t-shirt.svg">
  <metadata
     id="metadata8464">
    <rdf:RDF>
      <cc:Work
         rdf:about="">
        <dc:format>image/svg+xml</dc:format>
        <dc:type
           rdf:resource="http://purl.org/dc/dcmitype/StillImage" />
        <dc:title />
      </cc:Work>
    </rdf:RDF>
  </metadata>
  <defs
     id="defs8462">
    <linearGradient
       id="linearGradient3890">
      <stop
         style="stop-color:#701b1b;stop-opacity:1;"
         offset="0"
         id="stop3892" />
      <stop
         style="stop-color:#e31600;stop-opacity:1;"
         offset="1"
         id="stop3894" />
    </linearGradient>
    <linearGradient
       id="linearGradient3882">
      <stop
         style="stop-color:#600b0b;stop-opacity:1;"
         offset="0"
         id="stop3884" />
      <stop
         style="stop-color:#d11414;stop-opacity:1;"
         offset="1"
         id="stop3886" />
    </linearGradient>
    <linearGradient
       id="linearGradient3872">
      <stop
         style="stop-color:#800600;stop-opacity:1;"
         offset="0"
         id="stop3874" />
      <stop
         style="stop-color:#ff0004;stop-opacity:0;"
         offset="1"
         id="stop3876" />
    </linearGradient>
  </defs>
  <sodipodi:namedview
     pagecolor="#000000"
     bordercolor="#666666"
     borderopacity="1"
     objecttolerance="10"
     gridtolerance="10"
     guidetolerance="10"
     inkscape:pageopacity="0"
     inkscape:pageshadow="2"
     inkscape:window-width="1190"
     inkscape:window-height="1126"
     id="namedview8460"
     showgrid="false"
     inkscape:zoom="0.65186406"
     inkscape:cx="227.38759"
     inkscape:cy="189.326"
     inkscape:window-x="417"
     inkscape:window-y="115"
     inkscape:window-maximized="0"
     inkscape:current-layer="g8466" />
  <g
     id="g8466">
    <rect
       style="fill:#000000;fill-opacity:1;fill-rule:nonzero;stroke:none"
       id="rect3947"
       width="518.513"
       height="518.513"
       x="-1.5340621"
       y="-1.9108263" />
    <path
       style="fill:#ffffff;fill-opacity:1;stroke:none"
       d="m 86.465427,260.98852 c 14.658083,-24.82785 22.602593,-70.02914 44.823073,-88.41206 18.95074,26.13796 13.25033,58.61143 12.89693,89.19546 1.55831,51.30799 -22.48609,145.77401 -15.9336,197.15708 3.32844,19.23573 105.85709,-9.42624 137.47549,-8.22567 57.39297,-2.70044 99.58659,-3.52442 157.06155,-1.48934 1.82982,-28.35417 -37.00432,-178.38107 -44.62872,-223.37021 -0.91348,-20.65315 -15.38497,-55.06728 -0.20699,-67.46339 25.79597,13.84575 38.28973,41.01926 62.17647,54.38811 18.68101,-16.26569 46.72008,-29.25644 62.81965,-78.37103 C 451.26759,82.189708 409.08282,59.609144 335.73247,47.269183 308.14727,51.438471 291.78791,83.621538 262.30338,81.844628 232.66995,85.538108 202.52885,76.066468 178.532,58.30385 152.93422,45.776381 128.10023,66.281968 108.76457,81.526628 81.489827,99.321598 28.931564,149.90543 10.244617,177.9503 c 11.085792,35.14436 37.482525,72.48155 76.22081,83.03822 z"
       id="path3919"
       inkscape:connector-curvature="0"
       sodipodi:nodetypes="cccccccccccccccc" />
  </g>
</svg>
