<?xml version="1.0" encoding="UTF-8" standalone="no"?>
<svg
   xmlns:dc="http://purl.org/dc/elements/1.1/"
   xmlns:cc="http://creativecommons.org/ns#"
   xmlns:rdf="http://www.w3.org/1999/02/22-rdf-syntax-ns#"
   xmlns:svg="http://www.w3.org/2000/svg"
   xmlns="http://www.w3.org/2000/svg"
   xmlns:sodipodi="http://sodipodi.sourceforge.net/DTD/sodipodi-0.dtd"
   xmlns:inkscape="http://www.inkscape.org/namespaces/inkscape"
   viewBox="0 0 512 512"
   id="svg8438"
   version="1.1"
   inkscape:version="0.48.4 r9939"
   width="100%"
   height="100%"
   sodipodi:docname="thwomping.svg">
  <metadata
     id="metadata8464">
    <rdf:RDF>
      <cc:Work
         rdf:about="">
        <dc:format>image/svg+xml</dc:format>
        <dc:type
           rdf:resource="http://purl.org/dc/dcmitype/StillImage" />
        <dc:title></dc:title>
      </cc:Work>
    </rdf:RDF>
  </metadata>
  <defs
     id="defs8462">
    <linearGradient
       id="linearGradient4077">
      <stop
         id="stop4079"
         offset="0"
         style="stop-color:#aa4400;stop-opacity:1;" />
      <stop
         style="stop-color:#ff9f00;stop-opacity:1;"
         offset="0.22752622"
         id="stop4081" />
      <stop
         style="stop-color:#803300;stop-opacity:1;"
         offset="0.4948855"
         id="stop4083" />
      <stop
         id="stop4085"
         offset="1"
         style="stop-color:#562200;stop-opacity:1;" />
    </linearGradient>
    <linearGradient
       id="linearGradient4057">
      <stop
         style="stop-color:#aa4400;stop-opacity:1;"
         offset="0"
         id="stop4059" />
      <stop
         id="stop4067"
         offset="0.22752622"
         style="stop-color:#ecd1a4;stop-opacity:1;" />
      <stop
         id="stop4065"
         offset="0.50136983"
         style="stop-color:#803300;stop-opacity:1;" />
      <stop
         style="stop-color:#562200;stop-opacity:1;"
         offset="1"
         id="stop4061" />
    </linearGradient>
    <linearGradient
       id="linearGradient3890">
      <stop
         style="stop-color:#701b1b;stop-opacity:1;"
         offset="0"
         id="stop3892" />
      <stop
         style="stop-color:#e31600;stop-opacity:1;"
         offset="1"
         id="stop3894" />
    </linearGradient>
    <linearGradient
       id="linearGradient3882">
      <stop
         style="stop-color:#600b0b;stop-opacity:1;"
         offset="0"
         id="stop3884" />
      <stop
         style="stop-color:#d11414;stop-opacity:1;"
         offset="1"
         id="stop3886" />
    </linearGradient>
    <linearGradient
       id="linearGradient3872">
      <stop
         style="stop-color:#800600;stop-opacity:1;"
         offset="0"
         id="stop3874" />
      <stop
         style="stop-color:#ff0004;stop-opacity:0;"
         offset="1"
         id="stop3876" />
    </linearGradient>
  </defs>
  <sodipodi:namedview
     pagecolor="#000000"
     bordercolor="#666666"
     borderopacity="1"
     objecttolerance="10"
     gridtolerance="10"
     guidetolerance="10"
     inkscape:pageopacity="0"
     inkscape:pageshadow="2"
     inkscape:window-width="1190"
     inkscape:window-height="1126"
     id="namedview8460"
     showgrid="false"
     inkscape:zoom="1.4142136"
     inkscape:cx="230.29258"
     inkscape:cy="220.87486"
     inkscape:window-x="160"
     inkscape:window-y="130"
     inkscape:window-maximized="0"
     inkscape:current-layer="g8466" />
  <g
     id="g8466">
    <path
       inkscape:connector-curvature="0"
       d="M 5.5408003,0.89567678 H 519.65577 V 517.13668 H 5.5408003 z"
       id="path3978"
       style="fill:#000000" />
    <g
       id="g3230">
      <path
         style="fill:#49352a"
         d="m 269.95884,487.31979 c -3.90448,-3.93565 -13.55682,-11.42205 -21.44969,-16.63643 -7.89287,-5.21436 -16.65912,-13.12609 -19.48057,-17.58161 -5.99596,-9.46852 -10.12361,-7.20218 -10.70684,5.8787 -0.53584,12.01827 -14.64102,22.61959 -28.24963,21.23217 -2.55012,-0.25999 -8.71402,2.02807 -13.69755,5.08457 -15.38751,9.43751 -16.91908,6.39969 -7.09742,-14.07744 4.83708,-10.08484 4.29744,-10.29687 -12.42196,-4.8808 -22.1054,7.1608 -17.97017,-1.91038 7.7202,-16.93529 l 12.60973,-7.37476 2.98471,-26.73434 c 1.64159,-14.70387 4.13671,-35.28902 5.5447,-45.74476 8.23506,-61.15326 8.10071,-166.13881 -0.21149,-165.27003 -20.87211,2.18153 -35.68441,6.99002 -50.31307,16.33304 -16.91811,10.80525 -38.093104,20.99408 -52.169183,25.10242 -8.489284,2.47775 -12.048307,8.17077 -6.583019,10.53024 6.619521,2.85776 4.850068,24.58897 -2.002141,24.58897 -15.545814,0 -13.891529,-27.86125 2.163545,-36.43812 14.962988,-7.99347 15.468244,-9.88579 3.598305,-13.47655 -12.642345,-3.82443 -6.840199,-5.54051 8.553511,-2.52986 l 11.578672,2.26454 12.72948,-9.76247 c 14.67192,-11.25217 14.96586,-12.03312 7.13305,-18.95092 -3.20745,-2.83277 -15.16249,-15.07314 -26.566757,-27.20082 C 81.96447,162.33959 63.405501,145.79317 51.216616,136.93029 l -21.67378,-15.75961 -9.778599,6.66999 c -11.4438013,7.80583 -14.4999581,6.21159 -8.993089,-4.69123 7.714642,-15.2739 14.789717,-17.475 27.096844,-8.43 9.631341,7.07846 13.846695,4.8951 16.761299,-8.68161 2.651111,-12.349305 7.019396,-10.951176 10.424158,3.33639 1.269548,5.32748 5.718679,9.76005 19.757917,19.68438 9.96567,7.04473 21.041614,16.83685 24.613204,21.76025 8.24272,11.36254 12.15014,10.40253 14.88172,-3.65629 3.74899,-19.29523 9.43958,-9.33019 9.53294,16.69355 0.0459,12.7952 2.78506,17.40031 8.41015,14.13926 2.01363,-1.16737 8.40353,-3.29128 14.19976,-4.71981 40.00948,-9.86063 50.64408,-26.8687 54.70094,-87.483976 1.96778,-29.40136 3.63909,-33.097399 13.32837,-29.475116 3.13688,1.172708 8.35254,1.66775 11.59035,1.100094 3.42295,-0.600116 12.53822,0.855799 21.77816,3.478467 16.66788,4.731015 35.20508,3.623581 38.5268,-2.301637 6.2186,-11.092546 15.50574,6.693464 18.85755,36.114481 5.1551,45.249437 12.66491,68.209777 25.63573,78.378207 7.99528,6.26785 23.60971,27.56009 23.60971,32.19478 0,5.56939 22.55518,21.70836 37.38075,26.74714 5.81296,1.97566 13.48487,4.782 17.04871,6.23633 3.56383,1.45434 17.55997,5.63861 31.10254,9.29837 28.63396,7.73811 33.69442,9.70372 33.69442,13.0878 0,1.84493 -2.27587,2.1835 -8.86946,1.31945 -15.3447,-2.01087 -13.41253,4.62974 7.91399,27.19922 9.37553,9.92195 10.74679,13.39148 5.29275,13.39148 -3.98442,0 -40.92507,-26.09168 -45.49916,-32.13669 -2.61536,-3.45637 -10.67569,-5.87605 -10.67569,-3.2048 0,0.47789 4.66538,9.04895 10.36751,19.04683 12.38517,21.7156 12.68523,25.29802 2.76518,33.01338 -13.33004,10.36751 -21.22423,-4.10356 -10.45528,-19.16587 l 5.8704,-8.21081 -11.40157,-13.19377 c -6.27087,-7.25655 -13.73426,-14.95087 -16.58533,-17.09845 -6.86273,-5.16943 -58.68916,-21.07186 -61.73643,-18.94323 -3.90132,2.72521 -12.13212,25.82872 -12.13212,34.05435 0,9.37903 -4.28489,10.2062 -6.6796,1.28945 -1.58991,-5.92003 -1.05568,-12.51913 3.07863,-38.02905 1.31504,-8.11424 0.68698,-9.83164 -5.46259,-14.93677 -14.71345,-12.21454 -17.61825,-7.4442 -13.87169,22.78047 1.57154,12.67799 3.58424,30.72624 4.47268,40.10722 1.73303,18.29885 5.04468,22.12973 10.32034,11.93841 3.79576,-7.33248 6.86916,-8.10574 9.10048,-2.2896 3.80936,9.92934 -0.97043,21.27359 -8.96342,21.27359 -6.62995,0 -9.01984,16.47929 -5.17453,35.6803 1.68174,8.39744 4.13659,29.26508 5.45521,46.37256 3.85288,49.98522 3.78821,49.76499 17.05593,58.09301 14.85048,9.3215 14.55073,11.52126 -1.77614,13.03417 -13.1797,1.22128 -13.1797,1.22128 -11.48083,7.54709 1.5148,5.64039 1.18766,6.17153 -3.01951,4.90199 -2.59512,-0.78308 -8.80062,-1.79281 -13.78999,-2.24383 -11.64831,-1.05296 -28.49428,-11.9444 -28.55034,-18.45869 -0.0207,-2.53632 -1.06068,-5.73755 -2.30854,-7.11385 -3.87338,-4.27207 -6.31604,4.6984 -5.98117,21.96543 0.34583,17.83288 -0.9427,18.84816 -11.02404,8.6863 z"
         id="path3234"
         inkscape:connector-curvature="0" />
      <path
         style="fill:#342720"
         d="m 270.82774,479.28577 c -1.55217,-2.37966 -5.60937,-5.21375 -9.01601,-6.298 -3.96972,-1.26345 -6.19389,-3.4973 -6.19389,-6.22086 0,-2.33724 -2.91586,-6.16301 -6.47969,-8.50174 -7.68743,-5.04479 -9.06984,-12.04999 -1.94391,-9.85049 10.26109,3.1672 20.1269,1.96601 19.46965,-2.37051 -0.66866,-4.41172 2.94896,-5.46171 6.23792,-1.81051 2.02229,2.24504 3.67272,39.37875 1.7502,39.37875 -0.55119,0 -2.2721,-1.94699 -3.82427,-4.32664 z m -98.05817,-1.3299 c -0.0505,-1.61743 1.64975,-6.3889 3.77837,-10.60326 5.84551,-11.57328 0.043,-14.38016 -14.63482,-7.07942 -4.22235,2.10021 -8.22385,3.43657 -8.89221,2.96969 -1.95381,-1.36481 19.6405,-14.25104 22.10118,-13.18872 3.06404,1.3228 7.91476,-9.00673 7.96146,-16.95378 0.021,-3.5856 1.88157,-11.81504 4.13444,-18.28764 2.4011,-6.89845 4.02343,-19.07322 3.92043,-29.42091 -0.18241,-18.32608 2.66986,-22.55048 8.25147,-12.22099 6.49384,12.01769 10.62537,-1.0486 8.00334,-25.3112 -1.90146,-17.59483 0.15805,-29.82794 4.69214,-27.8705 2.00842,0.86708 2.43816,12.06287 1.44396,37.61856 -1.11642,28.69719 -0.78992,35.0453 1.5454,30.04728 6.90837,-14.7852 17.1211,-8.18895 17.17652,11.09405 0.0428,14.88941 -5.33826,22.98342 -8.82614,13.27601 -1.68711,-4.69556 -1.68711,-4.69556 -6.3584,-0.66586 -5.34753,4.61307 -11.7424,3.18039 -9.34599,-2.09383 0.85768,-1.88766 0.35742,-4.87434 -1.11169,-6.63706 -2.48029,-2.97597 -2.69325,-2.94624 -2.98079,0.41609 -1.20264,14.06287 -1.97973,49.78923 -1.08297,49.78923 4.50874,0 9.10654,-11.68705 6.58532,-16.73912 -3.30969,-6.63203 -3.14068,-6.81902 4.36922,-4.83439 7.4729,1.97484 7.2934,4.83906 -1.40774,22.46253 -6.79788,13.76861 -17.79118,22.50018 -14.40002,11.43741 1.17598,-3.83633 0.73693,-3.7336 -5.353,1.25246 -3.64874,2.98735 -7.91018,5.43155 -9.46987,5.43155 -1.5597,0 -4.4495,2.03683 -6.42179,4.52629 -2.43275,3.07068 -3.61551,3.58057 -3.67782,1.58553 z m 143.75742,-3.10095 c -7.6838,-3.27327 -9.81067,-3.88971 -13.60736,-3.94385 -1.06915,-0.0145 -0.30397,-0.75296 1.70038,-1.63935 2.95793,-1.30808 2.13781,-3.04254 -4.35454,-9.20938 -8.68549,-8.24998 -8.31148,-14.76767 0.92025,-16.03751 4.07671,-0.56075 4.30073,-0.23386 1.47154,2.14742 -3.95941,3.33256 0.10315,10.2824 6.01064,10.2824 1.99207,0 4.44331,1.83315 5.4472,4.07366 1.00391,2.24052 4.58153,6.3767 7.9503,9.19151 10.21877,8.53839 7.77325,10.80583 -5.53841,5.1351 z m -47.3891,-41.11655 c -10.6462,-6.36558 -10.80062,-6.39386 -17.68969,-3.24075 l -6.94973,3.18088 2.31984,-8.98024 c 1.27591,-4.93915 2.31984,-18.96094 2.31984,-31.15955 0,-21.75496 1.7904,-27.5391 5.18376,-16.74684 1.73801,5.52759 5.2246,7.15647 7.06463,3.30049 0.55932,-1.1721 2.40604,-1.53138 4.10382,-0.79841 4.14657,1.79015 3.84091,13.02762 -0.59665,21.93517 -3.60826,7.24288 -3.14815,10.88773 1.14071,9.03615 3.55536,-1.53492 7.29467,5.03758 5.16233,9.07377 -1.39132,2.63358 0.11119,5.24282 5.50937,9.56822 14.16187,11.34719 8.92286,14.69145 -7.56823,4.83111 z m 20.17438,-17.07846 c 0,-22.83813 -4.40684,-33.63142 -14.86564,-36.4091 -5.82652,-1.54741 -6.25055,-2.41715 -5.00705,-10.26945 3.27865,-20.70329 5.21393,-23.20782 15.76736,-20.40501 7.00924,1.86152 10.1611,11.4048 3.45736,10.46823 -4.39775,-0.6144 -3.11352,7.77525 4.70758,30.75353 8.67763,25.49471 8.47883,45.74085 -0.4491,45.74085 -2.86688,0 -3.61051,-4.09438 -3.61051,-19.87905 z m 12.41152,-62.23852 c -0.78653,-2.84384 0.24416,-9.3617 2.29052,-14.48414 2.04632,-5.12246 4.34713,-18.49343 5.11292,-29.71322 2.13029,-31.21121 5.61969,-34.56195 5.88105,-5.64735 0.22783,25.19138 -1.97169,38.17735 -8.2888,48.94028 l -3.56562,6.07499 -1.43007,-5.17056 z m -3.22103,-80.40448 c -1.83015,-13.96282 1.6926,-36.87963 6.25451,-40.68772 2.60046,-2.17076 0.9449,44.28788 -1.78964,50.22102 -2.2004,4.77423 -2.74073,3.62049 -4.46487,-9.5333 z m -30.724,2.29123 c -2.42362,-5.3688 -1.38295,-44.35768 1.18394,-44.35768 1.21352,0 2.20971,1.01842 2.21373,2.26315 0.005,1.24473 1.2393,9.27975 2.74508,17.85559 2.82225,16.0734 -1.72642,34.02213 -6.14275,24.23894 z m -23.43112,-2.27129 c -1.10311,-1.2468 -3.11337,-9.74607 -4.46726,-18.88727 -1.35389,-9.14119 -4.00089,-17.89689 -5.88223,-19.45711 -8.09709,-6.71501 -14.42793,-23.66264 -8.83488,-23.65092 3.70269,0.008 12.31142,13.49037 12.31142,19.2816 0,2.12352 1.62878,4.29754 3.6195,4.83115 5.32883,1.42841 10.61795,24.32099 7.64675,33.09702 -1.52662,4.50919 -3.11092,6.23494 -4.3933,4.78553 z m -45.75113,-53.79793 c 0,-13.94353 0.67669,-16.96171 3.62565,-16.17123 8.06757,2.16253 7.88949,-15.37741 -0.22619,-22.27745 -3.50002,-2.97575 -3.70356,-2.98497 -2.41164,-0.10926 0.88532,1.97065 -0.4729,3.84508 -3.64562,5.03118 -2.78115,1.03972 -5.75884,3.84476 -6.61709,6.23343 -2.01269,5.60171 -8.86826,7.66883 -8.86826,2.67399 0,-1.99535 1.73427,-5.47681 3.85393,-7.73657 3.13737,-3.34475 3.28586,-5.15994 0.79867,-9.76281 l -3.05526,-5.65414 -7.39517,4.34672 c -4.06735,2.3907 -12.29958,5.34589 -18.29385,6.5671 -5.99428,1.22121 -11.84666,3.2988 -13.00531,4.61688 -2.37407,2.70074 -17.33246,-3.46532 -17.33246,-7.14469 0,-1.08231 2.13294,-0.61947 4.73987,1.02854 6.1413,3.88232 8.72976,3.777 16.04151,-0.65272 3.31279,-2.00702 10.46731,-4.14552 15.89892,-4.75223 5.43161,-0.60672 11.20683,-2.22355 12.83382,-3.59296 1.627,-1.36941 4.44009,-2.48984 6.25133,-2.48984 1.81123,0 3.96451,-1.2221 4.78505,-2.71578 7.21534,-13.13446 26.15199,10.29193 26.22127,32.43814 0.0398,12.7246 0.99983,18.17382 3.29601,18.70869 1.78192,0.41507 3.23985,1.60128 3.23985,2.63601 0,1.1886 -1.34657,1.10067 -3.65707,-0.23879 -4.50287,-2.61047 -6.03545,-1.00427 -8.24293,8.63887 -3.43939,15.02463 -8.83503,9.14894 -8.83503,-9.62108 z m 51.35911,-9.87705 c -1.84819,-2.06726 -5.37144,-3.75866 -7.82945,-3.75866 -6.00515,0 -10.34017,-6.11161 -8.32104,-11.73121 1.23209,-3.42914 0.6261,-4.56345 -2.43796,-4.56345 -5.72323,0 -9.44375,-5.70626 -9.44375,-14.48414 0,-12.15715 -6.84781,-18.79124 -17.47365,-16.92831 -6.92819,1.21466 -7.44021,-1.02352 -1.93529,-8.45967 5.17362,-6.9886 10.31746,-26.39728 14.4651,-54.579454 l 3.37556,-22.93613 12.42734,0.30466 c 11.90524,0.291859 12.44082,0.532846 12.74825,5.73621 0.17651,2.987354 0.83519,4.075141 1.46375,2.417302 1.66015,-4.378721 8.54929,-5.684491 10.20444,-1.934149 4.1342,9.367675 15.7292,14.095463 12.49529,5.094878 -1.99474,-5.551711 1.49269,-6.15725 6.05717,-1.051737 1.78051,1.99157 5.07412,3.621036 7.31915,3.621036 2.24501,0 3.59076,1.018416 2.99054,2.263147 -0.6002,1.244731 -3.55111,2.287618 -6.55753,2.317528 -3.00645,0.02991 -6.30599,0.640959 -7.33232,1.357888 -1.02634,0.716929 0.0233,1.303507 2.33178,1.303507 9.23647,0 17.30828,3.980315 14.77557,7.286044 -5.06689,6.61344 -23.29321,6.34185 -23.29321,-0.3471 0,-1.942386 -1.05684,-3.07535 -2.34855,-2.517698 -1.29172,0.557653 -1.76385,2.575738 -1.04925,4.484638 0.96669,2.58219 -0.22964,3.62462 -4.67284,4.07186 -6.67733,0.67212 -9.45253,5.48851 -9.73534,16.8958 -0.14255,5.75058 0.36454,6.58955 2.46231,4.07366 5.42126,-6.50177 8.20836,-3.40895 6.34018,7.03569 -2.04038,11.40761 0.63364,14.26905 10.42291,11.15339 10.23266,-3.25678 14.80504,-15.52337 8.7381,-23.44209 -3.59024,-4.68606 -1.57122,-6.14305 3.55277,-2.56378 13.50125,9.4311 0.9543,36.95283 -16.95014,37.18012 -2.49468,0.0317 -4.53579,-0.75715 -4.53579,-1.75293 0,-2.34755 -12.16546,-2.36209 -14.24027,-0.017 -0.94516,1.06827 -4.41322,0.34615 -8.57657,-1.7858 -3.84437,-1.96862 -11.07197,-4.07572 -16.06134,-4.68246 l -9.07157,-1.10316 7.77563,3.50081 c 4.2766,1.92544 9.31885,4.80651 11.20499,6.40237 1.88614,1.59587 5.15888,2.43796 7.27277,1.87133 2.11934,-0.56809 6.14893,0.69842 8.98304,2.8234 2.82679,2.1195 6.70089,3.85363 8.60911,3.85363 1.90822,0 4.91081,1.21313 6.6724,2.69585 1.76162,1.48271 4.52871,2.11409 6.1491,1.40307 1.6204,-0.71102 5.08729,-1.04637 7.70421,-0.74522 2.61692,0.30116 6.7296,-0.6988 9.13927,-2.22212 9.89432,-6.25483 27.27603,-5.97938 25.44857,0.40329 -0.89896,3.13982 -0.44904,7.88678 0.99985,10.54881 5.34917,9.82794 -7.23386,22.31616 -22.48556,22.31616 -2.13097,0 -5.12975,2.51527 -6.6639,5.58949 -2.57714,5.1641 -3.46949,5.50037 -11.72512,4.41851 -5.33061,-0.69856 -10.36643,-0.34153 -12.48202,0.88494 -2.75208,1.59548 -4.29893,1.21413 -6.90669,-1.70273 z"
         id="path3232"
         inkscape:connector-curvature="0" />
    </g>
    <path
       sodipodi:type="arc"
       style="fill:#000000;fill-opacity:1;fill-rule:nonzero;stroke:none"
       id="path3236"
       sodipodi:cx="279.30719"
       sodipodi:cy="-55.806744"
       sodipodi:rx="13.435029"
       sodipodi:ry="12.727922"
       d="m 289.98564,-63.530603 a 13.435029,12.727922 0 1 1 -0.0873,-0.107101"
       sodipodi:start="5.6311019"
       sodipodi:end="11.903657"
       sodipodi:open="true"
       transform="matrix(1.3435864,0.73102474,-0.40090922,0.56734397,-156.87689,-80.186712)" />
    <path
       transform="matrix(-1.2122795,0.87389494,0.45537943,0.53874518,651.80409,-119.56609)"
       sodipodi:open="true"
       sodipodi:end="11.903657"
       sodipodi:start="5.6311019"
       d="m 289.98564,-63.530603 a 13.435029,12.727922 0 1 1 -0.0873,-0.107101"
       sodipodi:ry="12.727922"
       sodipodi:rx="13.435029"
       sodipodi:cy="-55.806744"
       sodipodi:cx="279.30719"
       id="path3249"
       style="fill:#000000;fill-opacity:1;fill-rule:nonzero;stroke:none"
       sodipodi:type="arc" />
    <path
       sodipodi:type="arc"
       style="fill:#000000;fill-opacity:1;fill-rule:nonzero;stroke:none"
       id="path3262"
       sodipodi:cx="279.30719"
       sodipodi:cy="-55.806744"
       sodipodi:rx="13.435029"
       sodipodi:ry="12.727922"
       d="m 289.98564,-63.530603 a 13.435029,12.727922 0 1 1 -0.0873,-0.107101"
       sodipodi:start="5.6311019"
       sodipodi:end="11.903657"
       sodipodi:open="true"
       transform="matrix(-1.3363027,0.40888867,0.26042269,1.1801763,654.08809,88.380224)"
       inkscape:transform-center-x="-35.79898"
       inkscape:transform-center-y="-47.253222" />
    <path
       sodipodi:type="arc"
       style="fill:#008000;fill-opacity:1;fill-rule:nonzero;stroke:none"
       id="path3264"
       sodipodi:cx="279.30719"
       sodipodi:cy="-55.806744"
       sodipodi:rx="13.435029"
       sodipodi:ry="12.727922"
       d="m 289.98564,-63.530603 a 13.435029,12.727922 0 1 1 -0.0873,-0.107101"
       sodipodi:start="5.6311019"
       sodipodi:end="11.903657"
       sodipodi:open="true"
       transform="matrix(-1.7823576,1.6463089,0.66952297,1.0149286,599.88945,-118.52088)" />
    <path
       sodipodi:type="arc"
       style="fill:#008000;fill-opacity:1;fill-rule:nonzero;stroke:none"
       id="path3264-1"
       sodipodi:cx="279.30719"
       sodipodi:cy="-55.806744"
       sodipodi:rx="13.435029"
       sodipodi:ry="12.727922"
       d="m 289.98564,-63.530603 a 13.435029,12.727922 0 1 1 -0.0873,-0.107101"
       sodipodi:start="5.6311019"
       sodipodi:end="11.903657"
       sodipodi:open="true"
       transform="matrix(-0.86527551,1.1010755,0.3250312,0.67879914,393.10623,-136.66597)" />
    <path
       transform="matrix(-0.7165595,0.66943243,0.26916767,0.41269664,279.15476,-67.371267)"
       sodipodi:open="true"
       sodipodi:end="11.903657"
       sodipodi:start="5.6311019"
       d="m 289.98564,-63.530603 a 13.435029,12.727922 0 1 1 -0.0873,-0.107101"
       sodipodi:ry="12.727922"
       sodipodi:rx="13.435029"
       sodipodi:cy="-55.806744"
       sodipodi:cx="279.30719"
       id="path3284"
       style="fill:#008000;fill-opacity:1;fill-rule:nonzero;stroke:none"
       sodipodi:type="arc" />
    <path
       sodipodi:type="arc"
       style="fill:#008000;fill-opacity:1;fill-rule:nonzero;stroke:none"
       id="path3264-7"
       sodipodi:cx="279.30719"
       sodipodi:cy="-55.806744"
       sodipodi:rx="13.435029"
       sodipodi:ry="12.727922"
       d="m 289.98564,-63.530603 a 13.435029,12.727922 0 1 1 -0.0873,-0.107101"
       sodipodi:start="5.6311019"
       sodipodi:end="11.903657"
       sodipodi:open="true"
       transform="matrix(0.57903745,1.7203106,0.94912399,0.01368637,329.29087,-165.36765)" />
    <path
       transform="matrix(0.3653305,0.66775837,0.59882818,0.00531252,272.91181,95.623525)"
       sodipodi:open="true"
       sodipodi:end="11.903657"
       sodipodi:start="5.6311019"
       d="m 289.98564,-63.530603 a 13.435029,12.727922 0 1 1 -0.0873,-0.107101"
       sodipodi:ry="12.727922"
       sodipodi:rx="13.435029"
       sodipodi:cy="-55.806744"
       sodipodi:cx="279.30719"
       id="path3293"
       style="fill:#008000;fill-opacity:1;fill-rule:nonzero;stroke:none"
       sodipodi:type="arc" />
  </g>
</svg>
