<?xml version="1.0" encoding="UTF-8" standalone="no"?>
<svg
   xmlns:dc="http://purl.org/dc/elements/1.1/"
   xmlns:cc="http://creativecommons.org/ns#"
   xmlns:rdf="http://www.w3.org/1999/02/22-rdf-syntax-ns#"
   xmlns:svg="http://www.w3.org/2000/svg"
   xmlns="http://www.w3.org/2000/svg"
   xmlns:sodipodi="http://sodipodi.sourceforge.net/DTD/sodipodi-0.dtd"
   xmlns:inkscape="http://www.inkscape.org/namespaces/inkscape"
   viewBox="0 0 512 512"
   id="svg2"
   version="1.1"
   inkscape:version="0.48.5 r10040"
   width="100%"
   height="100%"
   sodipodi:docname="unexpected.svg">
  <metadata
     id="metadata28">
    <rdf:RDF>
      <cc:Work
         rdf:about="">
        <dc:format>image/svg+xml</dc:format>
        <dc:type
           rdf:resource="http://purl.org/dc/dcmitype/StillImage" />
        <dc:title></dc:title>
      </cc:Work>
    </rdf:RDF>
  </metadata>
  <defs
     id="defs26" />
  <sodipodi:namedview
     pagecolor="#ffffff"
     bordercolor="#666666"
     borderopacity="1"
     objecttolerance="10"
     gridtolerance="10"
     guidetolerance="10"
     inkscape:pageopacity="0"
     inkscape:pageshadow="2"
     inkscape:window-width="1172"
     inkscape:window-height="669"
     id="namedview24"
     showgrid="false"
     inkscape:zoom="0.70710678"
     inkscape:cx="125.89005"
     inkscape:cy="224.71414"
     inkscape:window-x="0"
     inkscape:window-y="0"
     inkscape:window-maximized="0"
     inkscape:current-layer="svg2" />
  <path
     d="M 1.4142137,0.5857878 H 513.41421 V 512.58578 H 1.4142137 z"
     id="path4"
     style="fill:#000000"
     inkscape:connector-curvature="0" />
  <path
     sodipodi:type="arc"
     style="fill:#ffffff;fill-opacity:1"
     id="path5415"
     sodipodi:cx="279.96634"
     sodipodi:cy="323.31036"
     sodipodi:rx="95.878883"
     sodipodi:ry="99.714043"
     d="m 375.84522,323.31036 a 95.878883,99.714043 0 1 1 -191.75776,0 95.878883,99.714043 0 1 1 191.75776,0 z" />
  <path
     d="m 375.84522,323.31036 a 95.878883,99.714043 0 1 1 -191.75776,0 95.878883,99.714043 0 1 1 191.75776,0 z"
     sodipodi:ry="99.714043"
     sodipodi:rx="95.878883"
     sodipodi:cy="323.31036"
     sodipodi:cx="279.96634"
     id="path5417"
     style="fill:#ffffff;fill-opacity:1"
     sodipodi:type="arc"
     transform="translate(-21,-168)" />
  <path
     sodipodi:type="arc"
     style="fill:#ffffff;fill-opacity:1"
     id="path5419"
     sodipodi:cx="299.90915"
     sodipodi:cy="287.25989"
     sodipodi:rx="0.76703107"
     sodipodi:ry="22.243902"
     d="m 300.67618,287.25989 a 0.76703107,22.243902 0 1 1 -1.53406,0 0.76703107,22.243902 0 1 1 1.53406,0 z" />
  <g
     id="g5401"
     transform="matrix(1.1658632,0,0,1.1246081,-51.300137,-33.645469)">
    <path
       style="fill:#e1a898"
       d="m 66.587615,430.56085 c 0.01915,-57.15755 2.912729,-77.85686 13.676661,-97.83631 7.060753,-13.10582 15.166574,-20.92697 33.879084,-32.6893 22.33076,-14.03667 37.83801,-25.27981 49.10527,-35.60251 9.73543,-8.91927 10.26026,-9.70317 12.61794,-18.84611 1.72882,-6.70424 2.04712,-10.03703 1.07087,-11.21281 -3.26548,-3.9329 -4.844,-49.75398 -2.13398,-61.94502 0.87601,-3.94075 1.96791,-11.47506 2.42645,-16.74291 0.45855,-5.26786 1.32226,-10.49539 1.91937,-11.61674 0.59711,-1.12135 1.49343,-4.22044 1.99184,-6.88685 0.4984,-2.66642 4.4704,-10.53774 8.82663,-17.49182 4.65903,-7.43743 8.2949,-14.90506 8.8298,-18.13533 0.69396,-4.19087 2.7,-7.41089 8.46961,-13.595186 4.15813,-4.457006 10.57028,-12.005519 14.24922,-16.774476 5.20234,-6.743708 8.03051,-9.169069 12.72499,-10.912603 3.3198,-1.232976 9.26231,-3.94939 13.20556,-6.036477 6.64801,-3.518656 8.16044,-3.787876 20.79067,-3.700844 31.41189,0.216454 47.99862,8.063019 61.83674,29.252672 2.7114,4.151823 18.18036,48.787234 18.18036,52.459084 0,1.23979 2.03546,8.02833 4.52325,15.08563 3.38976,9.61601 4.74554,16.10086 5.41033,25.87816 0.88336,12.9917 0.59751,14.98349 -4.61657,32.16836 -0.94621,3.11853 -1.36032,12.107 -1.07896,23.41898 0.44896,18.05002 0.52344,18.44315 4.43998,23.43542 6.46235,8.23731 15.70038,17.38271 17.55879,17.38271 0.94913,0 4.49336,2.04008 7.87605,4.53352 3.38268,2.49344 6.70242,4.53352 7.37716,4.53352 0.67475,0 3.1021,1.5238 5.39412,3.38619 2.29202,1.86241 7.91945,4.51391 12.50538,5.89222 4.58594,1.37832 9.84927,3.84193 11.69628,5.47469 1.84701,1.63277 5.47079,4.18876 8.05286,5.67996 8.08164,4.66737 13.26781,11.06218 18.15236,22.38284 8.07427,18.71329 11.3506,30.31639 11.42835,40.47347 0.0815,10.65407 3.12808,38.56248 5.2597,48.18276 0.78927,3.56205 1.47631,11.43095 1.52676,17.48644 0.0504,6.05549 0.18799,17.71312 0.30562,25.90584 l 0.21388,14.89585 -198.85267,0.32809 -198.852667,0.32808 0.01288,-38.53919 z M 300.61937,367.25293 c 2.4983,-5.77405 2.50018,-5.67064 -0.10233,-5.67064 -1.17278,0 -3.17195,-1.2398 -4.44259,-2.75512 -1.67365,-1.99593 -3.11898,-2.50727 -5.245,-1.85566 -3.61149,1.1069 -3.7587,3.81511 -0.3845,7.0735 1.40264,1.35448 2.95232,3.68601 3.44373,5.18116 1.36585,4.15571 4.47296,3.2448 6.73069,-1.97324 z m 6.42747,-19.96965 c 0.39969,-2.87758 1.46402,-6.08989 2.3652,-7.13847 1.42948,-1.6633 1.8672,-1.6155 3.43126,0.37463 0.98602,1.25461 1.86224,1.69824 1.94719,0.98583 0.0849,-0.71241 0.30629,-2.62298 0.49191,-4.24571 0.18561,-1.62271 2.54971,-4.90719 5.25356,-7.2988 5.65106,-4.99849 5.94949,-6.94841 2.2063,-14.41539 -2.24241,-4.47323 -3.25036,-5.30571 -5.8442,-4.82688 -2.99712,0.55327 -18.27269,-6.57994 -18.27269,-8.53276 0,-1.31158 -10.8725,-11.84449 -12.22636,-11.84449 -0.65284,0 -2.34937,1.1225 -3.7701,2.49446 -1.60442,1.54935 -3.63725,2.22825 -5.36533,1.79187 -4.56154,-1.15193 -3.15015,1.87193 1.57712,3.37892 4.35751,1.38914 22.46734,17.1543 22.46734,19.55853 0,0.69995 -0.7545,1.32093 -1.67667,1.37994 -16.77201,1.0734 -23.32557,0.83947 -25.32034,-0.9038 -1.96636,-1.71846 -2.28199,-1.56133 -3.08726,1.53695 -0.49333,1.89811 -0.71669,3.58931 -0.49635,3.75822 1.36609,1.0472 21.67611,7.15896 23.79001,7.15896 3.09977,0 7.53872,3.92744 5.70272,5.04557 -1.68414,1.02564 0.1061,12.32842 2.36997,14.96252 2.69553,3.13643 3.67181,2.43105 4.45672,-3.2201 z m -17.8108,-2.38119 c 0,-1.53336 -2.73155,-3.54369 -6.2125,-4.57218 -4.11765,-1.21662 -5.48138,2.82629 -1.47784,4.38121 3.92654,1.525 7.69034,1.61848 7.69034,0.19097 z m 24.144,-44.03992 c 0,-3.56054 -3.45968,-6.03761 -4.56117,-3.26572 -0.86269,2.17099 1.23196,5.69771 3.38407,5.69771 0.6474,0 1.1771,-1.09439 1.1771,-2.43199 z m -42.71486,-5.98741 c -0.6079,-3.40243 -0.0535,-3.16687 -8.3551,-3.54999 -6.57018,-0.30322 -7.31828,-0.0631 -7.6918,2.46897 -0.48856,3.31188 1.81836,4.16524 10.47376,3.87442 5.24289,-0.17617 5.97518,-0.54321 5.57314,-2.7934 z m 36.49161,-8.57823 c -2.88151,-4.76445 -5.84875,-6.29256 -5.84875,-3.01204 0,2.33632 6.5101,8.97361 7.68696,7.83715 0.37499,-0.3621 -0.45221,-2.5334 -1.83821,-4.82511 z m -70.77944,-3.17159 c -0.16067,-1.05709 -0.70698,-1.90595 -1.21404,-1.88635 -0.50707,0.0196 -1.52554,0.0356 -2.26327,0.0356 -1.49183,0 -1.84125,4.26665 -0.45875,5.60169 1.31829,1.27303 4.27185,-1.54163 3.93606,-3.75095 z m 63.58935,0.25079 c 0,-2.61455 -2.69779,-4.342 -8.38333,-5.368 -4.88338,-0.88125 -7.07284,-3.20999 -3.018,-3.20999 1.1066,0 2.012,-1.11823 2.012,-2.48494 0,-3.19393 -8.00253,-8.01259 -13.56024,-8.16519 -2.91656,-0.08 -4.43811,-0.85643 -4.88056,-2.49029 -0.8025,-2.96347 -3.02053,-1.82821 -3.02053,1.546 0,1.59759 2.69185,4.22686 7.45261,7.27932 5.91672,3.79364 7.02244,5.01086 5.36533,5.9064 -3.67947,1.98846 -2.24521,4.61529 3.61339,6.61789 7.44602,2.54523 14.41933,2.72358 14.41933,0.3688 z m -57.47613,-1.45389 c 0,-0.67679 -0.64887,-1.43939 -1.44193,-1.69467 -0.79307,-0.25529 -1.44194,0.50732 -1.44194,1.69467 0,1.18736 0.64887,1.94996 1.44194,1.69467 0.79306,-0.25527 1.44193,-1.01788 1.44193,-1.69467 z m 34.14253,-92.26256 c -1.3635,-1.31668 -2.48851,0.66563 -1.3698,2.41362 0.84508,1.32044 1.16103,1.32147 1.61537,0.005 0.31065,-0.89996 0.20014,-1.98843 -0.24557,-2.41886 z m 27.02227,-44.71456 c -0.30739,-0.89051 -1.36369,-1.61911 -2.34733,-1.61911 -0.98364,0 -2.03994,0.7286 -2.34734,1.61911 -0.33246,0.96317 0.61851,1.61912 2.34734,1.61912 1.72883,0 2.67979,-0.65595 2.34733,-1.61912 z m -31.8772,-11.65762 c 0.0252,-2.78017 -1.76779,-2.92519 -4.00347,-0.32383 -1.15368,1.3424 -1.20445,1.94294 -0.16423,1.94294 0.82806,0 1.51481,1.02005 1.5261,2.26676 0.0176,1.93717 0.2096,1.98426 1.3208,0.32383 0.71514,-1.06862 1.3095,-2.96298 1.3208,-4.2097 z m 10.72137,-2.51414 c 0.0164,-0.49227 -0.64125,-1.29554 -1.46146,-1.78506 -1.9299,-1.1518 -3.83549,1.79771 -3.82368,5.91831 l 0.009,3.23823 2.62291,-3.23823 c 1.44266,-1.78102 2.63643,-3.64099 2.65284,-4.13325 z m 13.07381,3.27977 c 0.52933,-1.55362 -7.27949,-3.84961 -8.63637,-2.53931 -0.42123,0.40678 0.0219,1.65614 0.98454,2.77635 1.94077,2.25822 6.85353,2.10603 7.65183,-0.23704 z m 72.21692,103.56123 c -0.72791,-1.84605 -0.57385,-1.99483 0.75088,-0.7251 0.91669,0.87864 1.32882,1.92382 0.91583,2.32262 -0.41298,0.39881 -1.163,-0.32008 -1.66671,-1.59752 z"
       id="path5413"
       inkscape:connector-curvature="0" />
    <path
       style="fill:#986961"
       d="m 67.468926,468.22799 c -1.347264,-1.30102 -1.014806,-63.61889 0.434189,-81.3875 3.82948,-46.95982 14.587757,-67.36452 44.989265,-85.32902 5.87894,-3.47392 14.31059,-9.06226 18.73699,-12.41854 4.4264,-3.3563 11.76118,-8.51143 16.2995,-11.45587 12.06197,-7.82574 26.36546,-22.51279 27.71886,-28.46217 2.23268,-9.81458 2.52432,-14.6031 0.9976,-16.37954 -0.85064,-0.98979 -1.49991,-4.3304 -1.44283,-7.42357 0.0571,-3.09317 -0.28189,-14.07573 -0.7533,-24.40568 -0.58292,-12.77324 -0.33393,-21.26801 0.77832,-26.55348 0.89948,-4.27447 2.11968,-12.43481 2.71153,-18.13409 1.32809,-12.78892 3.8474,-23.97853 5.97844,-26.55348 5.69488,-6.88115 14.10661,-22.2081 14.92931,-27.20259 0.77103,-4.680736 2.45797,-7.356568 8.57335,-13.599109 4.1874,-4.274464 9.50855,-10.394718 11.82478,-13.600565 7.45467,-10.31789 10.16331,-12.712595 17.53644,-15.50399 3.97908,-1.506434 9.7663,-4.171678 12.86052,-5.922764 4.85098,-2.745287 7.27229,-3.179931 17.58,-3.155759 13.35538,0.03132 32.38723,3.602702 40.50158,7.600245 5.61555,2.766501 15.96764,13.08692 21.33225,21.266974 3.16931,4.832651 16.95024,43.769038 18.65566,52.709418 0.47551,2.49273 2.58609,9.34099 4.69019,15.21835 5.48537,15.32215 6.73662,37.28181 2.85998,50.19261 -3.64835,12.15045 -4.66315,22.92834 -3.54448,37.64498 l 0.9303,12.23847 7.04771,8.73586 c 6.98057,8.65264 13.81866,14.56468 16.84608,14.56468 0.86262,0 3.9068,2.04009 6.76484,4.53352 2.85803,2.49344 6.05378,4.53352 7.10166,4.53352 1.04786,0 3.63429,1.40498 5.74759,3.12218 2.11331,1.71719 7.33175,4.10173 11.59653,5.29898 4.26479,1.19725 9.67433,3.74525 12.02121,5.66223 2.34687,1.91698 7.66145,5.90739 11.81016,8.86757 6.77645,4.83511 8.04805,6.5424 12.511,16.79761 10.10821,23.22719 11.43064,28.54595 12.90304,51.89543 0.7524,11.93173 2.29399,26.06565 3.42575,31.40873 1.30304,6.15167 2.29364,20.04744 2.70091,37.88729 l 0.64315,28.1726 -197.70193,0 c -108.73606,0 -198.104323,-0.38859 -198.596144,-0.86353 z M 303.9907,389.25004 c 0,-1.00432 1.3581,-2.33277 3.018,-2.95211 5.42685,-2.02489 11.70609,-16.41625 13.16515,-30.17314 0.70169,-6.61591 2.52054,-16.8506 4.04189,-22.74372 3.20811,-12.42692 2.66007,-15.33681 -4.79458,-25.45756 -2.58488,-3.50935 -4.73913,-7.29808 -4.78721,-8.4194 -0.048,-1.12132 -2.02463,-5.82749 -4.39234,-10.45816 -3.42209,-6.69276 -5.39849,-8.95068 -9.63726,-11.00998 -2.93278,-1.42482 -5.57522,-3.17347 -5.87211,-3.88588 -1.28711,-3.08861 -10.47564,-10.14315 -17.96958,-13.79623 -7.44689,-3.63013 -8.56211,-3.8354 -13.33529,-2.45441 -2.86483,0.82887 -7.43475,3.40549 -10.15539,5.72584 -2.72064,2.32033 -7.66281,5.19878 -10.98261,6.39655 -11.63165,4.19663 -14.47385,6.61665 -15.49516,13.19349 -0.80016,5.15271 -0.50566,6.40913 2.13965,9.12829 2.47532,2.54442 2.81051,3.71829 1.7362,6.08038 -1.74072,3.82729 -0.2782,9.27593 2.63527,9.81775 1.26483,0.23522 5.76536,-0.70036 10.00119,-2.07905 5.0073,-1.6298 11.98231,-2.59179 19.93833,-2.74988 l 12.23682,-0.24314 2.80795,4.59576 c 1.54437,2.52767 3.7337,4.66862 4.86517,4.75767 5.05283,0.39767 10.10525,2.39343 10.10525,3.99168 0,2.2376 -13.0269,0.17421 -18.13062,-2.87179 -4.12897,-2.46426 -5.76213,-2.62643 -18.35086,-1.82223 -14.58903,0.93199 -17.17186,1.84215 -17.17186,6.05113 0,4.47241 5.39151,11.62363 8.22408,10.90832 3.03348,-0.76604 4.7249,1.38631 2.65799,3.38228 -0.82101,0.79282 -1.49273,4.93545 -1.49273,9.20583 l 0,7.76434 3.35919,-4.46134 c 6.71844,-8.92274 10.56167,-12.88075 12.50724,-12.88075 1.66966,0 1.63245,0.37798 -0.23321,2.36875 -2.38457,2.54447 -3.09602,12.49897 -0.98344,13.75981 0.68006,0.40587 5.24608,0.79603 10.14672,0.86703 6.77871,0.0982 8.74815,0.537 8.23264,1.83429 -0.37268,0.93785 0.55422,4.80798 2.05979,8.60028 1.73985,4.38242 2.73885,9.96322 2.7414,15.31447 0.003,6.91883 0.58916,9.16968 3.2871,12.6291 1.8057,2.31533 2.79967,4.23036 2.20883,4.2556 -0.59085,0.0253 0.40445,0.83668 2.21176,1.8032 2.80563,1.5004 3.73709,1.47191 6.37133,-0.19486 1.69693,-1.07371 3.08531,-2.77389 3.08531,-3.77821 z m -34.5138,-57.06179 c 1.30507,-0.32841 3.11587,-0.30682 4.024,0.0481 0.90812,0.35482 -0.15966,0.62352 -2.37286,0.59712 -2.2132,-0.0264 -2.95622,-0.3167 -1.65114,-0.64511 z m -10.11783,-10.37718 c 2.28555,-3.36847 5.10353,-4.04263 3.86448,-0.92453 -0.44781,1.12688 -0.81418,2.54785 -0.81418,3.15773 0,0.60986 -1.14025,1.02591 -2.5339,0.92453 -2.33063,-0.16953 -2.37205,-0.42285 -0.5164,-3.15773 z m -2.31503,23.96866 c 0,-2.09244 -0.39665,-2.46661 -1.49273,-1.40815 -0.82099,0.79281 -1.08718,2.07515 -0.5915,2.84964 1.38746,2.16791 2.08423,1.68601 2.08423,-1.44149 z m 49.34982,-77.69451 c 4.51957,-3.18414 8.75519,-9.79536 11.46677,-17.89803 1.84857,-5.52388 2.55394,-13.35165 3.14021,-34.84858 0.72901,-26.73059 0.66607,-27.68959 -1.75568,-26.75107 -1.38148,0.53538 -7.50913,1.29126 -13.617,1.67976 -6.10785,0.3885 -11.41402,1.18888 -11.79147,1.77865 -0.67723,1.05817 0.45788,3.28707 6.85152,13.45367 3.79077,6.02776 4.34216,10.01866 1.22459,8.86339 -1.14284,-0.4235 -3.92558,-4.33965 -6.18388,-8.70257 -2.25828,-4.36291 -5.49761,-9.72371 -7.19852,-11.91289 -1.70089,-2.18917 -4.69133,-8.60086 -6.64539,-14.24821 -4.51419,-13.04614 -6.71902,-16.37284 -10.50641,-15.85225 -2.62047,0.3602 -2.9766,1.29565 -3.33994,8.77291 -0.22369,4.60335 -0.99611,9.05554 -1.71649,9.89375 -1.38468,1.61118 -0.33257,11.29342 1.62908,14.99189 1.93093,3.64051 8.61116,6.08246 14.5389,5.31468 4.80664,-0.62259 5.40455,-0.40302 5.40455,1.98466 0,1.47658 0.52265,2.99661 1.16145,3.37787 0.6388,0.38124 0.92932,2.01857 0.64558,3.63849 -0.58942,3.36535 4.6579,10.46286 5.77719,7.81424 1.21662,-2.87889 4.69806,1.93129 5.48182,7.57399 0.46697,3.36203 1.11466,4.64506 1.80241,3.57045 0.76805,-1.20007 1.46767,-0.67628 2.45867,1.84079 0.76184,1.935 2.3055,3.51817 3.43035,3.51817 2.53175,0 2.54699,1.78493 0.0719,8.4194 -1.5133,4.05632 -1.94571,4.49541 -1.99182,2.02252 l -0.0589,-3.15865 -2.68267,2.78067 c -1.47546,1.52936 -2.68266,3.38791 -2.68266,4.13011 0,0.74219 -0.9054,1.34945 -2.012,1.34945 -1.16436,0 -2.05172,1.22781 -2.10629,2.91441 -0.09,2.78086 -0.14709,2.79571 -1.24705,0.32382 -0.8131,-1.82724 -1.18056,-0.18007 -1.24705,5.59015 -0.0519,4.4994 0.52729,9.30228 1.28698,10.67305 1.48206,2.67419 3.16693,2.20509 10.41123,-2.89869 z M 291.9187,243.10373 c 0,-2.26409 -0.56894,-2.98673 -1.94887,-2.47539 -1.56876,0.58133 -1.63663,1.205 -0.34801,3.19758 2.06739,3.19681 2.29688,3.12465 2.29688,-0.72219 z m -37.55733,-0.0406 c 0,-1.06862 -0.6036,-1.94294 -1.34133,-1.94294 -0.73774,0 -1.34134,0.87432 -1.34134,1.94294 0,1.06861 0.6036,1.94293 1.34134,1.94293 0.73773,0 1.34133,-0.87432 1.34133,-1.94293 z m 48.77307,0 c 0.42464,-1.06862 0.18741,-1.94294 -0.52716,-1.94294 -0.71458,0 -1.29924,0.87432 -1.29924,1.94294 0,1.06861 0.23722,1.94293 0.52715,1.94293 0.28995,0 0.87459,-0.87432 1.29925,-1.94293 z m -59.60109,-45.5099 c 3.69226,-4.53283 3.53105,-6.94943 -0.46361,-6.94943 -4.02206,0 -7.48704,1.22403 -7.48704,2.64485 0,2.37183 2.69686,7.71749 3.89345,7.71749 0.70244,0 2.52819,-1.53582 4.0572,-3.41291 z m 34.97202,-38.03643 c 0,-0.71241 -2.2635,-1.21856 -5.03,-1.12478 l -5.03,0.17051 4.69467,0.95427 c 2.58206,0.52484 4.84556,1.031 5.03,1.12478 0.18443,0.0938 0.33533,-0.41237 0.33533,-1.12478 z m 1.36187,-8.74322 c 0.016,-1.76128 0.27704,-1.87588 1.17075,-0.51392 0.94371,1.43816 1.72267,1.45677 4.3388,0.10363 1.84389,-0.95372 7.00683,-1.55062 12.24258,-1.4154 10.02848,0.259 10.81986,-0.55959 6.036,-6.24349 -1.6599,-1.97218 -4.0236,-5.36983 -5.25268,-7.55032 -1.62541,-2.88363 -3.81962,-4.38543 -8.048,-5.50835 -3.19732,-0.8491 -9.13312,-2.68689 -13.19065,-4.08398 -13.58995,-4.67928 -18.73737,-5.40253 -23.34595,-3.28029 -2.28917,1.05416 -6.03985,2.31491 -8.33483,2.80167 -5.45176,1.15631 -9.90056,5.25437 -9.90056,9.12 0,1.695 -0.30866,3.8586 -0.68593,4.80798 -0.79698,2.0056 4.216,4.31238 12.08727,5.56212 2.95093,0.46852 7.28729,1.50274 9.63636,2.29827 3.35503,1.13621 4.7434,1.06784 6.47356,-0.31878 1.7886,-1.43345 2.40394,-1.45051 3.27418,-0.0908 0.65866,1.02915 2.17001,1.3378 3.92176,0.80089 2.40076,-0.73581 2.85014,-0.34922 2.85014,2.45197 0,2.68369 0.64719,3.32552 3.35333,3.32552 2.2916,0 3.35984,-0.7177 3.37387,-2.26676 z"
       id="path5411"
       inkscape:connector-curvature="0" />
    <path
       style="fill:#614f4e"
       d="m 70.934036,468.02996 c -2.993688,-0.41058 -3.020537,-0.60882 -3.333116,-24.61054 -0.568915,-43.68498 0.856037,-68.78166 5.031327,-88.61321 2.471602,-11.73948 11.721864,-29.37658 19.534126,-37.24493 3.48414,-3.50915 11.072447,-9.3362 16.862897,-12.94901 37.29785,-23.27096 64.03212,-45.13264 66.4702,-54.35531 3.81504,-14.43136 3.83655,-14.59625 2.15916,-16.54802 -0.91778,-1.0679 -1.82618,-5.52034 -2.01865,-9.89431 -0.19248,-4.37398 -0.72809,-15.35336 -1.19025,-24.39866 -0.64235,-12.57209 -0.33432,-18.85729 1.30768,-26.68273 1.18138,-5.63022 2.14796,-13.22692 2.14796,-16.88157 0,-3.65465 0.85396,-8.84242 1.89768,-11.52838 1.04373,-2.68596 2.29043,-6.59423 2.77045,-8.68504 0.48003,-2.09082 4.45487,-9.43048 8.83299,-16.31036 4.37812,-6.87988 7.96021,-13.72877 7.96021,-15.21975 0,-4.968457 2.63391,-9.497831 9.83222,-16.907908 3.92372,-4.039158 8.54434,-9.384009 10.26805,-11.877446 5.94605,-8.601335 10.07234,-11.796352 22.79686,-17.651781 12.54509,-5.772866 13.00259,-5.874835 26.18154,-5.835484 16.07467,0.04799 30.87896,2.853591 39.80066,7.542716 6.54045,3.437565 15.54482,12.567346 20.83555,21.125716 2.89571,4.684144 15.37157,40.218637 17.73587,50.516387 0.73604,3.20584 3.09874,10.83094 5.25041,16.94466 2.87245,8.16166 4.16584,14.87436 4.86676,25.25819 0.88144,13.05848 0.67561,15.07822 -2.68566,26.35377 -3.36316,11.28185 -3.5955,13.56639 -3.05203,30.01084 l 0.58826,17.79942 5.75302,7.20104 c 6.45149,8.07529 15.41764,16.3236 17.74421,16.3236 0.84406,0 4.11281,2.04009 7.26387,4.53352 3.15108,2.49344 6.57873,4.53352 7.617,4.53352 1.03829,0 3.22178,1.37123 4.85221,3.04717 1.63042,1.67595 6.71535,4.10444 11.29981,5.39665 4.58446,1.29221 10.14619,3.90962 12.35939,5.81645 2.2132,1.90684 6.1366,4.68346 8.71867,6.17026 10.24529,5.8994 14.71405,13.13345 23.64683,38.2796 3.36353,9.46847 4.5218,14.94082 4.52364,21.37232 0.003,10.27605 3.41719,41.45561 5.34364,48.7991 0.74757,2.84964 1.39488,10.13566 1.43849,16.19115 0.0436,6.05549 0.40927,18.15027 0.81262,26.8773 l 0.73333,15.86733 -74.9206,0.25272 c -126.9741,0.42832 -314.857614,0.4171 -318.037284,-0.019 z M 298.79234,399.46958 c 14.75771,-15.13771 20.31656,-26.16999 22.4525,-44.55984 0.88133,-7.58817 2.4903,-17.08842 3.57548,-21.11169 3.41148,-12.64798 2.5344,-16.64195 -6.21633,-28.30732 -2.13544,-2.84672 -3.88262,-6.15064 -3.88262,-7.34207 0,-2.3942 -7.3168,-16.23793 -10.4413,-19.75543 -1.7988,-2.02504 -1.30747,-2.93874 5.26854,-9.7978 3.98878,-4.16048 8.02439,-9.85863 8.96804,-12.66256 0.97195,-2.88808 2.3455,-18.44441 3.16859,-35.88631 1.80141,-38.17371 2.89238,-35.89327 -16.76226,-35.03752 -17.35106,0.75545 -19.65241,-0.4409 -25.14059,-13.06907 -3.5312,-8.12516 -3.68842,-9.09094 -1.70756,-10.48965 3.41678,-2.41266 0.83065,-4.52415 -5.54112,-4.52415 -4.27473,0 -6.04913,0.5934 -6.70426,2.24205 -0.49002,1.23313 -0.2276,2.45558 0.58314,2.71655 1.05292,0.33893 1.03206,0.98882 -0.073,2.27465 -0.8509,0.99008 -1.16898,3.25499 -0.70683,5.03312 0.49685,1.91168 -0.27441,6.28591 -1.88714,10.70298 -4.02151,11.01444 -1.11599,20.65615 7.40754,24.58122 3.72269,1.71429 5.25597,1.82834 8.05049,0.59878 4.21477,-1.85446 6.00841,-1.92639 6.00841,-0.24093 0,0.70285 -2.06402,2.11071 -4.5867,3.12857 -3.83895,1.54896 -8.77073,6.81286 -7.25864,7.74747 0.2442,0.15092 2.10391,0.96284 4.13267,1.80422 2.02877,0.84138 3.68867,2.38221 3.68867,3.42405 0,2.57254 2.43872,3.84644 4.41808,2.30784 2.01513,-1.56638 8.17011,0.47546 6.99027,2.31895 -0.45981,0.71843 -0.26136,1.30625 0.44098,1.30625 0.70234,0 1.66315,-0.9718 2.13513,-2.15954 0.63386,-1.59511 1.25116,-1.78002 2.36182,-0.70748 1.99944,1.93082 2.59677,14.27366 0.74426,15.37926 -0.87964,0.52499 -1.15491,0.12202 -0.69947,-1.02414 0.81242,-2.04447 -2.47263,-2.24408 -8.00774,-0.48659 -3.78824,1.20282 -3.77219,2.14382 0.1387,8.12978 2.36453,3.61914 3.32291,7.3375 3.81904,14.81739 l 0.66235,9.98578 -3.93819,-2.86168 c -16.2658,-11.81946 -24.25965,-13.72988 -33.8799,-8.09681 -2.95093,1.72789 -7.77973,4.37811 -10.73066,5.88936 -13.74648,7.03995 -17.72692,10.02707 -19.34898,14.52039 -1.60945,4.45842 -2.01161,33.08567 -0.44351,31.57138 0.54899,-0.53015 1.69693,1.55851 2.55097,4.64147 0.99416,3.58874 1.60019,4.51803 1.68449,2.58304 0.23864,-5.477 3.4498,-2.15731 4.59333,4.74855 0.70616,4.26449 1.77189,6.69319 2.93704,6.69319 1.14496,0 1.98438,1.81618 2.24501,4.85734 0.22898,2.67154 1.07318,4.74305 1.87601,4.60337 1.64128,-0.28558 1.6653,16.24873 0.0274,18.80806 -0.53608,0.83762 -0.31511,1.52294 0.49105,1.52294 0.80615,0 2.71219,-2.04008 4.23565,-4.53352 1.52346,-2.49344 3.24537,-4.53352 3.82646,-4.53352 0.5811,0 1.46386,2.62296 1.9617,5.82881 0.71485,4.60331 1.4519,5.82882 3.50563,5.82882 2.87321,0 3.57618,-3.28981 0.92381,-4.32333 -0.98562,-0.38405 -0.69139,-0.69546 0.71389,-0.75558 1.31481,-0.0562 2.89291,-1.41375 3.50687,-3.01667 0.98241,-2.56478 2.07227,-2.92092 9.08495,-2.9687 l 7.96862,-0.0543 3.82453,7.34959 c 3.60385,6.9255 3.77408,7.98355 2.95003,18.33608 -0.94302,11.84741 0.22788,17.25616 5.03297,23.24853 1.53934,1.91971 3.12901,3.52264 3.53259,3.56205 0.40358,0.0394 2.86471,-2.11413 5.46919,-4.78567 z M 273.8107,311.6344 c -2.92137,-1.31527 -6.87245,-1.59553 -14.41933,-1.02283 -6.9519,0.52755 -10.39533,0.33329 -10.39533,-0.58641 0,-1.81985 2.81367,-2.5169 14.10298,-3.49377 9.33822,-0.80804 9.43095,-0.78454 12.44749,3.1555 1.67154,2.18328 2.8702,3.92226 2.66369,3.8644 -0.20653,-0.0579 -2.1863,-0.92046 -4.3995,-1.91689 z m 12.29556,-92.10245 c -0.49182,-0.47494 -0.82421,-2.3693 -0.73863,-4.2097 0.12515,-2.69275 0.28436,-2.84029 0.81501,-0.75559 0.36267,1.42482 1.27196,3.31919 2.02064,4.2097 1.41486,1.68291 -0.44338,2.35246 -2.09702,0.75559 z m -5.2815,37.64442 c -0.44572,-0.43042 -1.60262,-0.47643 -2.57089,-0.1022 -1.07002,0.41348 -0.75219,0.72041 0.81039,0.78256 1.41398,0.0562 2.20621,-0.2499 1.7605,-0.68031 z m -26.90417,-11.67973 c 2.19602,-3.23649 2.18548,-3.47878 -0.22543,-5.18117 -3.33904,-2.35775 -4.34462,-2.25526 -5.92948,0.60441 -0.95351,1.72051 -0.75747,3.17239 0.69954,5.18117 2.54809,3.51304 2.67086,3.49944 5.45537,-0.60441 z m 17.72242,-25.27267 c 1.51196,-0.48201 1.44974,-0.9844 -0.33533,-2.7082 -1.2054,-1.16404 -2.19164,-2.67295 -2.19164,-3.35316 0,-1.70402 -5.1821,-2.87311 -6.13507,-1.3841 -0.42482,0.66379 -2.40614,-0.482 -4.40292,-2.54619 -3.13822,-3.24416 -4.39779,-3.67898 -9.28893,-3.20665 -4.33553,0.41866 -5.65842,0.10233 -5.65842,-1.35335 0,-1.04486 0.4527,-2.09404 1.006,-2.33152 2.20061,-0.94448 8.38334,-11.10588 8.38334,-13.77813 0,-2.87143 -1.88951,-3.8367 -3.27443,-1.67278 -0.41255,0.64461 -3.01348,0.89094 -5.77983,0.54742 -3.01825,-0.37481 -7.07893,0.21463 -10.15374,1.47389 -4.81575,1.97223 -5.0656,2.34839 -4.15321,6.25286 1.40874,6.02859 0.79769,20.44949 -0.95281,22.48631 -1.10609,1.287 -1.10457,1.74511 0.005,1.74511 0.82806,0 1.51027,-0.43716 1.51603,-0.97147 0.0138,-1.28673 6.80404,-4.29823 8.03497,-3.56358 0.52908,0.31576 2.87035,0.0456 5.20281,-0.6004 2.33247,-0.64598 3.92545,-0.6817 3.53995,-0.0794 -0.3855,0.60234 -0.32666,2.03695 0.13078,3.18804 0.62883,1.58244 1.26847,1.74281 2.62265,0.65752 2.24864,-1.80216 7.64986,-0.30511 6.44491,1.78633 -0.4835,0.83922 0.21594,0.5297 1.55432,-0.68782 2.30572,-2.09752 2.60607,-2.03378 5.72354,1.21455 2.85253,2.9723 3.49062,3.16546 4.79753,1.45236 0.82908,-1.08675 2.34276,-2.2422 3.36373,-2.56768 z m -14.07182,-23.89733 c 1.28913,-3.24409 0.94744,-8.31346 -0.56035,-8.31346 -1.86635,0 -4.10129,5.98653 -3.139,8.40815 1.00746,2.53527 2.67119,2.49268 3.69935,-0.0947 z m 40.62584,-46.06183 c 5.29741,0.12551 9.97934,-0.31507 10.40429,-0.97907 0.42496,-0.66399 -0.6091,-2.85954 -2.29792,-4.87899 -1.68882,-2.01945 -4.70153,-6.12288 -6.69493,-9.11873 -2.82214,-4.24136 -4.89073,-5.77811 -9.34572,-6.9429 -3.14676,-0.82275 -6.92858,-1.92744 -8.40405,-2.45487 -20.46396,-7.3152 -20.96188,-7.36391 -33.31263,-3.25933 -11.53978,3.83508 -21.46679,9.47286 -22.86198,12.98388 -0.45763,1.15163 -0.83205,3.50341 -0.83205,5.22616 0,2.57777 0.67457,3.1323 3.81032,3.1323 5.31021,0 29.15399,4.91681 34.70468,7.15643 2.52444,1.01857 5.00159,1.77261 5.50478,1.67564 0.50319,-0.097 1.82028,0.16149 2.92688,0.57435 4.91042,1.83204 6.34533,1.74071 11.40134,-0.72573 4.09156,-1.99596 7.65195,-2.56316 14.99699,-2.38914 z"
       id="path5409"
       inkscape:connector-curvature="0" />
    <path
       style="fill:#473737"
       d="m 67.930397,430.55659 c 0.01473,-38.2045 2.028554,-65.31795 5.900628,-79.44414 2.899585,-10.57834 10.546557,-24.47009 17.698522,-32.15175 3.442374,-3.69733 13.873073,-11.65531 23.179343,-17.68441 35.79562,-23.19035 59.49161,-42.46226 60.95016,-49.57067 0.39063,-1.90375 1.42167,-6.29859 2.2912,-9.76629 1.10825,-4.41968 1.16722,-7.13082 0.1972,-9.06704 -3.23017,-6.44772 -4.65453,-48.97543 -2.00135,-59.75497 0.87674,-3.56205 1.96146,-11.08339 2.4105,-16.71411 0.44904,-5.63069 1.31216,-11.16807 1.91805,-12.30526 0.60588,-1.1372 1.5337,-4.37434 2.06181,-7.19365 0.52811,-2.81931 2.94302,-8.06524 5.36647,-11.65763 8.20158,-12.15755 11.32228,-18.17168 12.20931,-23.52954 0.65718,-3.969523 2.40654,-6.795635 6.81517,-11.009981 3.26208,-3.118321 7.83996,-8.29264 10.17309,-11.498488 7.4222,-10.198559 13.62086,-16.837893 15.74824,-16.867816 1.13481,-0.01596 5.59661,-1.694228 9.91509,-3.729477 4.31849,-2.03525 8.99419,-3.411968 10.39043,-3.059374 1.39625,0.352594 4.59376,-0.300667 7.10558,-1.45169 5.75259,-2.63608 16.06464,-2.665125 28.88977,-0.08137 19.08533,3.844925 30.85786,11.090353 29.08749,17.901949 -0.89467,3.442317 0.49879,4.973623 4.73768,5.206325 2.74162,0.150506 8.14329,7.040166 6.96415,8.882557 -0.39913,0.623642 0.18602,2.117208 1.30034,3.319034 1.11432,1.201828 5.14937,11.802681 8.96678,23.557461 3.8174,11.75477 8.65345,26.61824 10.74676,33.02994 6.55032,20.06323 7.49921,38.39869 2.74839,53.10697 -2.45337,7.59547 -2.91854,12.06713 -2.8662,27.55203 0.047,13.8671 0.56907,19.431 2.09029,22.27174 4.06058,7.58277 15.28395,19.16589 21.29201,21.97451 3.30677,1.54585 6.80712,3.73541 7.77854,4.86572 0.9714,1.13031 4.18915,3.15035 7.15054,4.48899 2.96138,1.33863 7.36008,3.83301 9.7749,5.54307 2.41481,1.71007 6.69584,3.48532 9.5134,3.945 2.91516,0.47561 7.78011,2.89484 11.28896,5.61375 3.39137,2.62787 8.70705,6.5266 11.8126,8.66383 6.29229,4.33033 12.02747,14.75178 18.89004,34.32523 3.1563,9.00245 4.10638,14.67079 5.21051,31.08701 1.28204,19.06113 2.13912,26.23716 5.11283,42.80732 0.70936,3.95274 0.8491,10.79571 0.31053,15.20658 -0.53857,4.41087 -0.49636,8.75426 0.0938,9.65199 0.59015,0.89773 1.08226,8.18964 1.09355,16.20426 l 0.0206,14.57203 -91.88134,0 -91.88133,0 -0.20097,-10.68616 c -0.11053,-5.87739 -0.41449,-8.93751 -0.67543,-6.80028 -0.26096,2.13723 -0.81754,6.946 -1.23688,10.68616 l -0.76242,6.80028 -103.85682,0 -103.856814,0 0.01437,-37.23964 z m 186.036263,22.6676 c -0.31971,-1.60292 -0.5813,-0.29144 -0.5813,2.91441 0,3.20585 0.26159,4.51733 0.5813,2.91441 0.31972,-1.60293 0.31972,-4.22589 0,-5.82882 z m 1.84634,-11.00998 c 0.0606,-2.67154 0.38311,-6.46026 0.71655,-8.41939 0.3348,-1.96711 -0.0149,-3.56206 -0.78096,-3.56206 -0.76298,0 -1.42796,1.89437 -1.47775,4.2097 -0.0498,2.31534 -0.3465,6.10406 -0.65937,8.4194 -0.31287,2.31533 0.0296,4.2097 0.76119,4.2097 0.73153,0 1.37967,-2.18581 1.44034,-4.85735 z m 202.22478,-5.95829 c -2.26748,-4.21419 -2.47641,-4.1976 -2.47641,0.19677 0,3.0554 0.49218,3.87873 1.98744,3.32463 1.58076,-0.58577 1.68081,-1.30632 0.48897,-3.5214 z M 279.8467,415.41335 c 0,-1.02657 -0.6036,-2.22673 -1.34133,-2.66703 -0.73773,-0.44029 -1.34133,-0.52236 -1.34133,-0.18237 0,0.33997 -0.36638,1.54014 -0.81418,2.66701 -0.53427,1.3445 -0.0731,2.04888 1.34133,2.04888 1.18554,0 2.15551,-0.83991 2.15551,-1.86649 z m 15.4666,-11.29516 c 6.31038,-5.35041 15.27918,-16.76715 20.18722,-25.6971 2.15353,-3.91826 4.36822,-7.3184 4.92152,-7.55587 0.5533,-0.23748 1.01392,-4.60909 1.02362,-9.71469 0.009,-5.10561 1.30037,-14.8203 2.86817,-21.5882 3.62989,-15.66948 3.49439,-19.40749 -0.97572,-26.91545 -4.35366,-7.31237 -6.78528,-11.97342 -13.06668,-25.04691 -4.48133,-9.32699 -4.63078,-10.06918 -2.73859,-13.60056 1.10078,-2.05436 3.1004,-4.90096 4.4436,-6.32578 5.14325,-5.45577 7.9301,-13.20239 9.35403,-26.0014 2.00603,-18.0313 2.24437,-52.37599 0.38673,-55.72786 -1.39947,-2.52518 -2.3597,-2.65594 -15.39378,-2.09615 -18.1878,0.78114 -20.62021,-0.35751 -25.77266,-12.06461 -2.97561,-6.76101 -3.4215,-8.85497 -2.0588,-9.66826 0.96794,-0.57769 1.41842,-2.22357 1.01565,-3.71085 -1.00005,-3.69296 8.79301,-8.30403 16.77247,-7.89733 3.13424,0.15975 8.37685,0.21217 11.65024,0.1165 l 5.95162,-0.17395 -3.45359,-3.56206 c -1.89949,-1.95913 -3.87388,-4.90392 -4.38754,-6.54397 -1.12094,-3.57899 -8.5015,-10.28413 -15.25272,-13.85687 -6.1181,-3.23771 -8.25872,-5.15574 -8.25872,-7.39996 0,-3.17332 -8.06149,-6.54385 -16.61878,-6.94835 -11.85783,-0.56051 -17.9826,1.49463 -20.28027,6.80497 -1.11942,2.58718 -2.82674,4.31792 -4.2785,4.33722 -3.93258,0.0523 -15.01895,8.72537 -16.9479,13.25868 -2.55424,6.00284 -1.44806,8.72917 3.54182,8.72917 7.99189,0 25.64918,3.60549 36.91394,7.53756 6.51094,2.2727 6.83826,2.56835 3.68866,3.33172 -3.14365,0.76192 -3.4563,1.42968 -3.4563,7.382 0,4.09011 -0.75453,7.27294 -2.012,8.48725 -1.1066,1.06861 -2.012,2.99908 -2.012,4.28993 0,1.29083 -1.2072,2.65183 -2.68267,3.02444 -2.60589,0.65806 -3.88741,4.80585 -1.48484,4.80585 0.65881,0 1.49562,0.74942 1.85961,1.66537 0.39509,0.99427 -0.35787,1.66539 -1.86849,1.66539 -1.39166,0 -2.53028,-0.71371 -2.53028,-1.58601 0,-1.51854 -2.1511,-1.94822 -18.33416,-3.66228 -3.81305,-0.40387 -8.85844,-1.38253 -11.21195,-2.17481 -3.93967,-1.32624 -4.21964,-1.79454 -3.52917,-5.90337 0.61802,-3.67768 0.42676,-4.20383 -1.0871,-2.99056 -1.41773,1.13623 -2.15865,0.93848 -3.24589,-0.86629 -1.31471,-2.18236 -1.41154,-2.16121 -1.44961,0.31676 -0.0224,1.46045 0.61417,3.28783 1.41469,4.06087 1.04642,1.0105 0.79744,2.63048 -0.88587,5.76405 -1.97463,3.67587 -2.34876,8.11173 -2.38867,28.32143 -0.048,24.30794 1.45218,34.69232 6.67118,46.17862 1.02,2.2449 1.85455,4.77788 1.85455,5.62886 0,0.85097 1.10897,3.09441 2.46439,4.98541 3.88975,5.42674 4.26896,7.59367 2.17556,12.43189 -1.11925,2.58679 -1.95728,8.64217 -1.95728,14.14271 0,10.61499 -1.91127,31.36932 -4.21176,45.73539 -1.36182,8.50415 -1.26291,9.59778 1.17148,12.95292 2.87987,3.96914 4.60897,9.42992 4.71289,14.88414 0.0386,2.02649 0.69508,3.21461 1.59242,2.8821 0.83969,-0.31116 2.10847,1.34315 2.81951,3.67626 1.49974,4.92107 4.79802,5.11381 9.47349,0.55359 3.55868,-3.47095 5.41184,-8.61686 3.10313,-8.61686 -1.13482,0 -1.00786,-0.69787 0.4124,-2.26676 1.12861,-1.24672 2.97747,-4.01446 4.10861,-6.15055 l 2.0566,-3.8838 0.87122,5.17909 c 1.63432,9.71529 2.1097,11.00789 4.04837,11.00789 2.22993,0 4.7163,-3.90051 4.7163,-7.39873 0,-3.95704 5.35159,-7.28831 12.07549,-7.51677 6.01281,-0.20431 6.18044,-0.099 9.22295,5.79254 2.68325,5.19587 2.98742,7.20888 2.26803,15.00973 -1.48214,16.07153 -1.02614,21.52538 2.06545,24.70326 1.54943,1.59268 2.39862,3.54973 1.88709,4.34899 -1.15172,1.79955 0.0936,5.21503 1.90156,5.21503 0.73521,0 3.50993,-1.84258 6.16603,-4.09461 z m -26.76987,-95.5074 c -2.4068,-0.9105 -2.42154,-1.03817 -0.21427,-1.8561 2.58534,-0.95804 4.81088,-0.12668 4.81088,1.79708 0,1.40883 -0.99472,1.4216 -4.59661,0.0591 z m 18.68061,-43.55711 c -4.36854,-3.63597 -4.86694,-4.47454 -2.68267,-4.51369 2.46347,-0.0442 2.40867,-0.25504 -0.67067,-2.58105 -5.446,-4.1137 -17.95244,-3.55327 -27.36112,1.2261 -6.42545,3.26397 -7.51973,3.49844 -7.5562,1.61911 -0.0394,-2.03331 -0.17585,-2.02814 -1.82455,0.0692 -2.07908,2.64485 -3.64275,2.96504 -3.16279,0.64765 0.18443,-0.89051 -0.47576,-1.45518 -1.46709,-1.25482 -0.99132,0.20037 -1.54898,-0.36989 -1.23923,-1.26724 0.59035,-1.71028 -0.24683,-2.99982 -5.54746,-8.54501 -1.97897,-2.07027 -2.62638,-3.56478 -1.67666,-3.8705 2.18145,-0.70219 1.92061,-6.37515 -0.58434,-12.70915 -1.95278,-4.93775 -1.94989,-5.72863 0.0345,-9.43418 2.44133,-4.55898 4.05755,-5.06067 5.92453,-1.83905 1.07779,1.8598 1.61398,1.93646 3.41999,0.48905 1.71468,-1.3742 2.54306,-1.39495 4.15381,-0.10401 1.6052,1.28647 2.4188,1.28647 4.024,0 1.51397,-1.21335 2.012,-1.23099 2.012,-0.0714 0,0.94065 1.02327,1.22756 2.62608,0.73631 1.80348,-0.55275 3.16501,0.0285 4.34664,1.85565 0.94633,1.46329 2.6317,2.61451 3.74527,2.55826 1.39893,-0.0707 1.50173,-0.3057 0.33264,-0.76053 -0.93062,-0.36204 -2.3344,-1.81736 -3.11952,-3.23402 -1.28472,-2.31809 -1.15647,-2.43566 1.28199,-1.17544 1.49022,0.77017 3.09865,2.00837 3.57428,2.75154 0.58776,0.91835 1.47109,0.86531 2.75738,-0.16558 1.52811,-1.22468 1.89258,-0.98736 1.89258,1.23241 0,1.91552 0.84089,2.74918 2.77306,2.74918 2.12204,0 2.58157,-0.58258 1.95743,-2.48157 -0.4486,-1.36488 -0.27225,-2.80588 0.39187,-3.20224 1.40959,-0.84128 8.26511,1.98773 8.28051,3.41705 0.005,0.53431 0.61406,0.97147 1.35179,0.97147 0.73774,0 1.34134,-0.87433 1.34134,-1.94294 0,-2.77555 2.33512,-2.39972 4.024,0.64764 0.78964,1.42483 2.2553,2.59059 3.25701,2.59059 1.00172,0 2.18769,0.92199 2.63548,2.04888 1.13758,2.86272 1.05222,3.13229 -0.99174,3.13229 -2.63198,0 -10.26609,3.8806 -10.26609,5.21851 0,0.62859 1.509,3.29021 3.35334,5.9147 1.84433,2.62448 3.42722,6.29338 3.51755,8.1531 0.0903,1.85971 0.31548,6.14998 0.50036,9.53393 0.18489,3.38395 0.26188,6.13075 0.17112,6.104 -0.0908,-0.0267 -2.57943,-2.05815 -5.53037,-4.51425 z m -34.14574,-17.10676 4.02319,-6.12614 -3.04674,-2.26445 c -3.44213,-2.55835 -6.40005,-2.99755 -6.40005,-0.95032 0,0.75446 -0.54913,1.04401 -1.22029,0.64344 -2.35645,-1.40638 -5.48637,0.88502 -5.48637,4.01654 0,4.33459 3.65335,10.80708 6.09998,10.80708 1.1039,0 3.81753,-2.75677 6.03028,-6.12615 z m 15.36707,-36.58647 c -1.47547,-0.59465 -3.95865,-0.80183 -5.51818,-0.46041 -2.05724,0.45039 -3.03726,-0.12422 -3.57057,-2.09363 -0.40695,-1.50275 -2.536,-3.32065 -4.76961,-4.07257 -4.2055,-1.41572 -6.40157,-4.42637 -4.19106,-5.74564 0.70551,-0.42107 1.28275,-0.1483 1.28275,0.60616 0,0.75445 1.9617,1.38992 4.35934,1.41217 2.39763,0.0223 6.77373,1.47645 9.72466,3.23159 6.24835,3.71636 8.73574,3.93226 14.15061,1.22824 2.2684,-1.13277 3.95739,-1.40919 3.95739,-0.64765 0,0.7307 -0.85908,1.32856 -1.90908,1.32856 -1.05001,0 -3.70244,1.4572 -5.8943,3.23823 -2.19187,1.78102 -4.19987,3.19726 -4.46225,3.14718 -0.26237,-0.05 -1.68423,-0.57757 -3.1597,-1.17223 z m 10.89929,187.09493 c -0.86231,-2.17 -3.52196,-2.58553 -3.52196,-0.55024 0,1.95641 3.26875,5.09293 3.8152,3.66086 0.25402,-0.66573 0.12206,-2.0655 -0.29324,-3.11062 z m -18.27662,-20.75839 c 0,-1.11066 -0.6036,-1.65914 -1.34134,-1.21884 -0.73773,0.4403 -1.34133,1.34902 -1.34133,2.01939 0,0.67036 0.6036,1.21884 1.34133,1.21884 0.73774,0 1.34134,-0.90873 1.34134,-2.01939 z m 90.09528,-188.68844 c -0.99537,-0.9612 -1.16993,-0.45548 -0.58649,1.69904 0.47431,1.7515 1.08232,2.33865 1.41719,1.36855 0.32256,-0.93448 -0.0512,-2.3149 -0.8307,-3.06759 z m -1.41145,-9.54309 c -0.67522,-2.77906 -1.28009,-3.88708 -1.34411,-2.46226 -0.13845,3.08059 1.30764,8.73589 2.0504,8.01863 0.28678,-0.27693 -0.0311,-2.7773 -0.70629,-5.55637 z m -44.41983,-3.91615 c 0,-1.72118 -0.36416,-1.80969 -2.012,-0.48905 -1.1066,0.88687 -2.012,1.83257 -2.012,2.10153 0,0.26898 0.9054,0.48905 2.012,0.48905 1.1066,0 2.012,-0.94569 2.012,-2.10153 z m 42.51086,-11.7982 c -0.34008,-1.26028 -0.6407,-0.54277 -0.66804,1.59446 -0.0274,2.13723 0.25091,3.16836 0.61834,2.29141 0.36742,-0.87695 0.38978,-2.62559 0.0498,-3.88587 z m -90.79886,1.09782 c 0,-1.48315 -6.56969,-2.70822 -7.41771,-1.38322 -0.35586,0.55602 0.1112,1.30616 1.03802,1.66697 2.80415,1.09172 6.37969,0.93269 6.37969,-0.28375 z m 88.4969,-15.75061 c -2.51805,-4.54354 -3.07424,-1.8314 -1.12606,5.49118 l 1.82782,6.8702 0.41292,-4.80251 c 0.2271,-2.64138 -0.2745,-6.04287 -1.11468,-7.55887 z m -4.80544,-9.98241 c -2.09323,-8.63336 -20.63482,-35.74197 -22.93036,-33.52521 -0.64178,0.61974 8.47595,13.95094 10.30443,15.06631 1.49298,0.91073 6.10518,8.5893 9.53143,15.86832 3.26336,6.93296 4.37247,7.86146 3.0945,2.59058 z m -25.52906,-35.94435 c -0.81634,-2.0543 -3.16774,-2.6953 -3.16774,-0.86353 0,1.36979 1.4662,2.80647 2.86413,2.80647 0.59162,0 0.72825,-0.87432 0.30361,-1.94294 z m -8.53307,-3.885874 c 0,-1.068616 -0.9054,-1.942938 -2.012,-1.942938 -2.09459,0 -2.66117,1.531942 -1.11777,3.022352 1.54337,1.4904 3.12977,0.94328 3.12977,-1.079414 z M 299.9667,64.23636 c 0,-1.026571 -0.6036,-1.866493 -1.34133,-1.866493 -0.73773,0 -1.34133,1.200163 -1.34133,2.667028 0,1.466865 0.6036,2.306788 1.34133,1.866494 0.73773,-0.440295 1.34133,-1.640457 1.34133,-2.667029 z m -20.69798,-5.897186 c 1.15625,-1.806637 -2.33516,-4.036609 -3.92153,-2.504692 -1.29026,1.245967 -0.0473,3.944801 1.81685,3.944801 0.65065,0 1.59777,-0.64805 2.10468,-1.440109 z"
       id="path5407"
       inkscape:connector-curvature="0" />
    <path
       style="fill:#322c2d"
       d="m 67.916036,456.37219 c 0,-10.58052 0.248352,-11.63257 3.363536,-14.24821 1.849944,-1.5533 4.299967,-2.82417 5.444495,-2.82417 1.144527,0 1.730152,-0.54813 1.301388,-1.21808 -0.428764,-0.66994 0.591913,-2.4586 2.268172,-3.97479 2.192264,-1.98293 4.10184,-2.55545 6.803088,-2.03967 2.636724,0.50347 3.470165,0.27147 2.797961,-0.77884 -0.651582,-1.01809 -0.190135,-1.21159 1.444666,-0.6058 2.62744,0.97365 6.49996,-1.34577 5.321431,-3.18722 -0.404283,-0.63169 -0.246736,-1.14883 0.350102,-1.14921 1.844524,-0.001 1.141893,-10.42228 -0.780047,-11.56933 -1.052023,-0.62788 -3.265783,-0.33447 -5.332158,0.70672 -1.943315,0.97916 -4.7405,1.7908 -6.215967,1.80365 -1.475467,0.0129 -5.851567,0.838 -9.724667,1.83368 l -7.042,1.81033 0,-3.76864 c 0,-3.30705 0.483178,-3.76864 3.944839,-3.76864 2.169662,0 4.342703,-0.62166 4.828982,-1.38147 1.411082,-2.20481 0.08898,-2.54924 -4.697214,-1.22369 l -4.464382,1.23642 0.908026,-16.47825 c 0.499416,-9.06304 1.262694,-18.39966 1.696175,-20.74803 0.696414,-3.77284 1.04262,-4.06582 2.974526,-2.51723 5.20698,4.17384 9.496634,4.9688 15.749651,2.91872 3.288898,-1.07828 6.842885,-1.96052 7.897746,-1.96052 1.054862,0 2.594449,-1.2207 3.421305,-2.71265 0.98904,-1.78462 2.3814,-2.49093 4.06986,-2.06454 1.41156,0.35646 2.8153,0.25933 3.11941,-0.21584 0.30411,-0.47516 -5.27859,-0.88713 -12.405999,-0.91546 -7.127408,-0.0284 -15.222425,-0.48556 -17.988925,-1.01608 -4.332411,-0.8308 -5.027792,-1.45044 -5.014079,-4.46792 0.03506,-7.71685 6.166183,-24.4627 8.792283,-24.01429 0.688487,0.11761 1.376984,-1.46796 1.529993,-3.52341 0.323437,-4.34492 3.645702,-9.72812 6.70292,-10.86101 1.169031,-0.43321 3.142048,0.10077 4.384481,1.18652 1.242434,1.0858 3.02971,1.97417 3.971724,1.97417 0.942014,0 3.587782,1.52358 5.879472,3.38571 2.89215,2.35006 4.34133,2.87989 4.73753,1.73207 0.31395,-0.9095 -0.56854,-2.42433 -1.96109,-3.36627 -1.39254,-0.94195 -4.28976,-3.03286 -6.438247,-4.64647 -2.14849,-1.61363 -4.809055,-3.57619 -5.912366,-4.36125 -1.670117,-1.18839 -0.822195,-2.33105 5.063807,-6.82396 3.888406,-2.9681 10.472366,-7.32406 14.631036,-9.67989 4.15866,-2.35583 13.48465,-8.75688 20.72442,-14.22454 7.23978,-5.46766 13.70563,-9.9412 14.36858,-9.9412 0.66294,0 6.90031,-5.25755 13.86084,-11.68344 12.39879,-11.44646 12.70305,-11.87086 15.0004,-20.92359 1.97131,-7.76801 2.07677,-9.95622 0.66192,-13.7346 -1.33588,-3.56751 -1.34065,-4.69874 -0.0231,-5.48507 0.91291,-0.54485 1.24509,-1.63867 0.73817,-2.43074 -0.55416,-0.86587 0.1065,-1.44011 1.65702,-1.44011 2.72418,0 2.94122,-1.69964 1.03378,-8.09557 -0.58427,-1.95913 -1.60047,-3.56206 -2.25823,-3.56206 -0.65775,0 -1.2478,1.60293 -1.31121,3.56206 l -0.11535,3.56205 -1.31832,-3.88588 c -1.78738,-5.26841 -1.51929,-34.1199 0.38802,-41.75957 0.84671,-3.39143 2.00049,-11.12072 2.56399,-17.17621 1.38928,-14.92992 3.77371,-22.7675 9.24058,-30.37367 6.95292,-9.67374 10.70691,-17.07485 11.69872,-23.06437 0.69682,-4.208077 2.6948,-7.266107 9.06044,-13.867541 4.49157,-4.657945 9.67549,-10.650814 11.51982,-13.317485 1.84434,-2.666672 3.67507,-4.852477 4.06829,-4.857345 1.83253,-0.02268 0.10221,6.9352 -2.60354,10.469309 -3.23134,4.220608 -2.94027,7.655927 0.64867,7.655927 1.32264,0 1.91341,-0.715204 1.4838,-1.796331 -0.51348,-1.29217 0.0697,-1.598443 2.07823,-1.091253 1.80894,0.45681 2.47435,0.208658 1.88977,-0.70475 -0.49627,-0.775406 -0.3521,-1.738198 0.32036,-2.139538 0.9999,-0.596759 2.8451,1.893862 2.8451,3.840271 0,0.267908 -2.62752,1.974084 -5.83894,3.791501 -8.29764,4.695822 -10.85199,7.688868 -9.07713,10.636075 0.78164,1.29793 1.43952,1.71211 1.46195,0.92039 0.0236,-0.83219 1.45552,-1.17834 3.39412,-0.82047 2.74894,0.50746 3.35334,0.10917 3.35334,-2.209846 0,-2.235585 0.56034,-2.65713 2.67181,-2.00998 2.01104,0.616371 3.05946,-0.0027 4.2393,-2.503296 1.69319,-3.588586 3.27386,-4.255443 4.13988,-1.746547 0.42541,1.232451 3.22275,1.209503 12.84295,-0.105359 6.76451,-0.924547 14.19045,-1.279841 16.50213,-0.789539 2.62499,0.556754 4.55447,0.342343 5.13907,-0.571066 1.03956,-1.624316 18.0849,2.829889 19.54202,5.106626 0.44356,0.693088 1.97807,1.260155 3.41,1.260155 1.43193,0 2.6035,0.540011 2.6035,1.200024 0,0.660014 3.2917,2.755228 7.3149,4.656018 4.02318,1.9008 8.8827,5.44096 10.79892,7.86702 1.91622,2.42606 4.38519,4.41102 5.48658,4.41102 1.1014,0 1.82549,0.74449 1.6091,1.65442 -0.21638,0.90993 1.86977,4.32153 4.63588,7.58134 2.76611,3.2598 5.02929,6.51687 5.02929,7.23794 0,0.72106 1.24619,2.84093 2.76933,4.71081 3.51739,4.31816 10.12129,23.8972 11.20413,33.21775 1.80149,15.50612 2.01373,21.93202 0.74928,22.68667 -0.86014,0.51335 -0.85618,1.61669 0.0121,3.18219 1.87308,3.37974 2.94642,13.72494 3.2964,31.77163 0.29769,15.35056 1.55753,20.37917 6.61641,26.40928 0.82996,0.98931 2.18613,5.06948 3.0137,9.06704 1.17638,5.68242 1.54222,6.3498 1.67667,3.05862 0.0946,-2.31534 0.70168,-4.2097 1.34909,-4.2097 2.07584,0 4.87248,4.20547 4.43917,6.67544 -0.45839,2.61289 1.88026,3.34156 2.73912,0.85344 0.35018,-1.01448 1.43532,-0.66482 3.1873,1.02703 1.46101,1.41085 4.5539,3.32418 6.87308,4.25186 2.31919,0.92766 6.65457,3.86002 9.63418,6.51636 2.97961,2.65635 5.68883,4.33502 6.02049,3.73039 0.33166,-0.60463 0.43478,-0.35615 0.22914,0.55217 -0.20564,0.90833 -1.30242,1.49468 -2.4373,1.303 -1.26634,-0.21388 -1.98978,0.53665 -1.87283,1.94294 0.12018,1.44457 -1.45151,2.98905 -4.25251,4.17905 -3.19979,1.35941 -4.26697,2.53789 -3.81376,4.21149 0.34612,1.27813 0.0696,1.98985 -0.6144,1.5816 -1.74982,-1.04433 -8.87692,5.01948 -8.20103,6.97753 0.3064,0.88763 0.0478,1.52663 -0.57467,1.42 -3.32586,-0.56972 -5.82642,0.34541 -5.82642,2.1323 0,1.18689 -0.63313,1.64151 -1.53581,1.10277 -1.06012,-0.6327 -1.32547,0.14599 -0.85667,2.51415 0.46556,2.35186 0.10489,3.43074 -1.14685,3.43074 -1.0043,0 -1.826,0.532 -1.826,1.18224 0,0.65022 -2.1126,4.27994 -4.69467,8.06602 -5.17546,7.58881 -5.14219,7.49338 -3.49111,10.01018 0.93928,1.43179 1.70257,1.25044 3.97551,-0.94448 2.14105,-2.06756 2.63254,-3.72857 2.05739,-6.95318 -0.60321,-3.38202 -0.44167,-3.84474 0.80074,-2.29374 1.28835,1.60834 1.68317,1.63621 2.29259,0.16191 0.40492,-0.97956 1.90835,-2.91293 3.34097,-4.29636 2.08605,-2.01446 2.99356,-2.20375 4.55722,-0.95057 1.70376,1.36546 1.68148,1.96417 -0.1749,4.70011 -1.17006,1.72444 -1.96876,4.41085 -1.77489,5.96982 0.19387,1.55896 -0.43374,4.2201 -1.39467,5.91362 -1.40278,2.47223 -1.41329,3.27839 -0.0533,4.09006 1.36129,0.81245 1.35225,1.80736 -0.046,5.0672 -1.54509,3.60215 -1.46273,4.25195 0.73567,5.80429 1.90966,1.34844 2.40469,3.18744 2.16554,8.04483 -0.28818,5.85357 -0.16621,6.11981 1.73295,3.78245 1.12362,-1.38287 2.04296,-3.0094 2.04296,-3.61449 0,-3.19659 9.99708,-13.82592 13.078,-13.90511 3.03706,-0.0781 1.75208,3.58111 -2.94728,8.39285 -5.52769,5.65988 -7.19336,13.22203 -2.75339,12.50032 1.47547,-0.23984 4.02308,-1.63688 5.66134,-3.10452 2.38831,-2.13958 3.36553,-2.35843 4.9305,-1.10421 1.0735,0.86035 2.75109,1.45972 3.72798,1.33194 4.1099,-0.53756 5.12952,0.26487 5.12952,4.03694 0,2.17928 0.53819,3.64111 1.196,3.24852 0.6578,-0.39259 0.56904,1.67144 -0.19723,4.58674 -1.06482,4.05103 -0.99478,5.53834 0.2971,6.30937 1.33417,0.79626 1.30508,1.15678 -0.1381,1.71101 -1.3137,0.50451 -1.19306,0.73097 0.4285,0.80444 1.24132,0.0562 2.65938,-1.12217 3.15125,-2.6187 0.5973,-1.81732 1.34058,-2.29001 2.23809,-1.42331 0.8482,0.81908 2.88162,0.87179 5.51334,0.14293 2.82178,-0.78151 4.62059,-0.6787 5.56495,0.31803 0.99274,1.04776 0.91157,1.20899 -0.28124,0.55867 -0.92216,-0.50277 -1.67666,-0.32043 -1.67666,0.40519 0,0.72564 -1.61253,2.76321 -3.58337,4.52797 -2.5004,2.23891 -2.91751,3.11427 -1.38017,2.89638 1.21177,-0.17175 2.58757,-0.68343 3.05733,-1.13705 0.46975,-0.45364 1.91802,-0.18315 3.21839,0.60105 1.88471,1.13662 3.01171,0.83779 5.55606,-1.47327 2.50642,-2.27663 4.19981,-2.74128 7.88642,-2.16398 2.58207,0.40432 6.14512,0.74155 7.91791,0.74939 l 3.22255,0.0143 -3.09314,2.59058 c -3.73305,3.12653 -3.83027,3.13154 -9.33265,0.48082 -3.58742,-1.72822 -4.57903,-1.79797 -5.4829,-0.38568 -1.62849,2.54449 -0.13239,3.98178 2.6486,2.54453 1.33368,-0.68928 2.81791,-0.87371 3.29827,-0.40984 0.48036,0.46387 -1.57905,1.9291 -4.57646,3.25606 -5.48769,2.4294 -8.83969,7.41228 -7.40872,11.01333 0.52102,1.31112 -0.014,1.58025 -1.95724,0.98463 -2.05065,-0.6285 -2.67423,-0.2275 -2.67423,1.71966 0,1.39661 0.9054,2.87479 2.012,3.28487 1.1066,0.41006 2.012,1.59891 2.012,2.64188 0,1.04297 1.20784,2.2665 2.68408,2.71896 3.08498,0.94551 6.06559,5.50697 5.58797,8.55163 -0.17909,1.1416 1.96074,3.74043 4.75516,5.77518 2.79443,2.03475 5.273,4.1348 5.50792,4.66681 0.23494,0.53198 2.78423,3.826 5.66511,7.32004 2.88086,3.49402 4.91659,6.6631 4.52383,7.04238 -0.39277,0.37929 -3.84746,-0.44004 -7.67709,-1.82075 -8.13685,-2.93356 -18.67773,-3.74625 -20.75382,-1.6001 -1.05386,1.08945 -0.74171,2.23593 1.13974,4.18611 1.4251,1.47717 2.5911,3.29301 2.5911,4.03521 0,0.74219 0.53323,1.34945 1.18496,1.34945 0.65174,0 1.50841,1.31148 1.90371,2.91441 0.39531,1.60292 1.13968,4.22589 1.65415,5.82881 0.92815,2.89181 0.82857,2.91441 -12.84104,2.91441 l -13.77644,0 -4.59253,-5.18117 c -2.52588,-2.84964 -5.70343,-5.18117 -7.06121,-5.18117 -1.35779,0 -4.93046,-2.28408 -7.93929,-5.07571 -3.12557,-2.89998 -8.34726,-5.99841 -12.18145,-7.22821 -6.55493,-2.10247 -6.71086,-2.27218 -6.71086,-7.30362 0,-10.44525 -2.65609,-16.57864 -10.43067,-24.08636 -4.03808,-3.89947 -9.22822,-7.88801 -11.53365,-8.86339 -6.87603,-2.90915 -9.84078,-6.07307 -10.66969,-11.38646 -0.42971,-2.75438 -2.33418,-7.87587 -4.23215,-11.38108 -3.08868,-5.70421 -3.29579,-6.92927 -1.97338,-11.67178 1.05183,-3.77213 1.06294,-5.69897 0.0385,-6.68822 -0.79144,-0.76428 -1.42974,-2.00162 -1.41844,-2.74965 0.0107,-0.74803 0.60565,-0.48573 1.32079,0.58288 1.1161,1.66774 1.30316,1.62764 1.3208,-0.28317 0.0121,-1.34936 0.74479,-1.95772 1.85945,-1.54466 2.04407,0.75746 4.01343,-2.83975 2.68826,-4.91034 -0.46578,-0.72776 -0.015,-1.89149 1.00164,-2.58605 1.35426,-0.92518 1.02106,-1.08687 -1.24614,-0.60473 -2.5551,0.54336 -2.8188,0.33711 -1.51243,-1.18293 0.87026,-1.01257 2.71555,-1.84104 4.10068,-1.84104 1.38514,0 2.51844,-0.58288 2.51844,-1.29529 0,-0.71241 -0.83501,-1.29529 -1.85556,-1.29529 -2.47723,0 -3.30914,-3.58111 -2.60155,-11.19892 0.32123,-3.45814 0.55663,-7.16184 0.52314,-8.23046 -0.0335,-1.06861 -0.10785,-3.54586 -0.16518,-5.50499 -0.0574,-1.95913 -0.57063,-3.56205 -1.1406,-3.56205 -0.56997,0 -1.71065,-1.42923 -2.53485,-3.17606 -1.24132,-2.63088 -1.16316,-3.05176 0.45536,-2.452 1.24525,0.46145 1.9539,-0.0856 1.9539,-1.50853 0,-1.6012 -0.76517,-2.03936 -2.7056,-1.54935 -1.95218,0.49298 -3.63304,-0.49093 -6.036,-3.53325 -1.83173,-2.31906 -3.33099,-5.0358 -3.3317,-6.03716 -7.1e-4,-1.00138 -2.10316,-5.90084 -4.6721,-10.88772 -2.56894,-4.98687 -4.68096,-9.73023 -4.69337,-10.54081 -0.0121,-0.81057 1.99729,-4.30932 4.46598,-7.77499 7.50086,-10.53003 9.09124,-14.52268 10.95505,-27.50277 2.709,-18.86626 4.84304,-46.07056 3.99374,-50.91131 -1.69987,-9.68863 -2.63967,-10.30611 -16.15329,-10.61331 -4.01677,-0.0913 -7.30431,-0.36405 -7.30564,-0.60606 -0.001,-0.24201 1.25097,-1.42009 2.78286,-2.61797 3.37699,-2.64065 2.43573,-8.64286 -1.51168,-9.6397 -1.38775,-0.35045 -2.44224,-0.2598 -2.34329,0.20144 0.099,0.46124 -0.29333,3.03815 -0.87172,5.72645 -0.99003,4.60151 -1.3236,4.87014 -5.69435,4.58589 -2.75049,-0.17888 -5.14017,-1.19952 -5.86325,-2.50423 -0.73303,-1.32267 -2.22526,-1.94857 -3.73603,-1.56705 -1.79791,0.45402 -2.75429,-0.22594 -3.35257,-2.3836 -1.31147,-4.72974 -1.03363,-6.25706 1.1383,-6.25706 1.1066,0 2.012,-0.62216 2.012,-1.38258 0,-0.82553 -1.16262,-1.02625 -2.88557,-0.49817 -2.33891,0.71686 -2.72008,0.46793 -2.012,-1.31395 0.48046,-1.20909 0.87357,-2.95702 0.87357,-3.88428 0,-0.92726 1.3581,-2.04533 3.018,-2.4846 2.3136,-0.61227 2.59324,-1.06323 1.19813,-1.93211 -3.22237,-2.00688 0.43349,-2.68814 13.37014,-2.49147 6.92655,0.1053 11.53743,0.42382 10.24639,0.70782 -1.29103,0.28401 -2.34733,1.05651 -2.34733,1.71669 0,1.81696 4.51738,1.43701 7.4385,-0.62564 2.50702,-1.77026 2.51115,-1.90569 0.13546,-4.44069 -1.59525,-1.70222 -2.14039,-3.55802 -1.56208,-5.31759 0.63626,-1.93588 -0.33569,-4.19526 -3.42528,-7.96228 -2.37248,-2.89269 -5.03809,-7.29445 -5.92356,-9.7817 -3.60119,-10.11561 -16.35313,-20.3362 -27.42301,-21.97937 -7.61731,-1.13068 -12.93591,-1.25815 -14.84536,-0.35578 -1.1066,0.52295 -4.94453,1.67128 -8.52872,2.55184 -12.86595,3.16088 -31.3973,25.09721 -30.13763,35.67515 l 0.43835,3.68088 15.42533,1.72239 c 10.00207,1.11682 17.43442,2.6871 21.13975,4.46632 l 5.71441,2.74395 -0.79238,6.56405 c -0.8653,7.16818 -3.84682,14.04157 -7.80599,17.99538 -2.26782,2.26477 -3.75488,2.44783 -14.11531,1.73766 -13.85813,-0.94991 -20.73013,-2.93429 -19.64226,-5.67194 0.41721,-1.0499 1.13885,-3.45768 1.60365,-5.35062 0.46481,-1.89295 1.76633,-4.46533 2.89228,-5.71642 1.12595,-1.25108 1.65464,-2.65377 1.17486,-3.11708 -1.2922,-1.24784 -11.79319,3.51584 -15.65434,7.10145 -3.1888,2.96123 -3.36941,3.91724 -3.68078,19.48391 -0.43633,21.81219 1.99229,49.69929 5.03532,57.81923 1.33491,3.56205 4.79008,11.96594 7.67816,18.67532 4.90311,11.39057 5.13722,12.50632 3.53338,16.8388 -0.96873,2.6168 -1.76248,10.85252 -1.82043,18.88814 -0.0565,7.83651 -0.69593,18.32838 -1.42091,23.31525 -2.74108,18.85498 -3.09346,27.67785 -1.19372,29.88832 1.61345,1.87737 1.99316,5.62054 2.49479,24.59417 0.0753,2.84694 1.25396,4.78652 4.17702,6.87346 l 4.07218,2.90734 6.99382,-2.49428 c 4.66097,-1.6623 7.56731,-3.61039 8.71309,-5.84032 1.63404,-3.18021 6.92208,-7.97799 9.82207,-8.91148 0.74069,-0.23841 1.92151,-2.904 2.62407,-5.9235 1.71852,-7.38605 4.71726,-10.00225 11.66648,-10.17821 5.09381,-0.12901 5.97776,0.31622 8.52246,4.29228 1.95772,3.05893 2.59697,5.60567 2.05901,8.20306 -0.42908,2.07178 -0.19631,4.11531 0.51725,4.54118 0.71357,0.42588 1.2974,1.96804 1.2974,3.42704 0,1.99895 -0.5785,2.43529 -2.34733,1.77053 -4.77367,-1.7941 -5.0318,-1.38075 -4.66045,7.463 0.25833,6.15242 -0.22703,9.62341 -1.61287,11.53407 -1.5025,2.07147 -1.63321,3.36328 -0.53994,5.33594 0.80977,1.46114 1.12425,5.58037 0.71697,9.39117 -0.65592,6.13697 -0.45111,6.85766 2.13439,7.51056 3.35779,0.84795 4.91886,-1.03917 4.94736,-5.98066 0.0219,-3.79663 1.21961,-4.4766 3.68745,-2.09347 1.80605,1.74406 13.49046,-5.85729 19.56874,-12.73055 4.78581,-5.41174 6.62478,-5.4458 5.75339,-0.1066 -0.40933,2.50814 -0.0398,4.56089 0.92547,5.14165 1.24193,0.74718 1.22607,1.55998 -0.0699,3.57924 -2.04202,3.18181 -2.14501,4.37538 -0.28158,3.26324 0.88823,-0.53011 1.10803,0.27194 0.60496,2.20752 -0.58916,2.26677 0.34418,4.27139 3.66897,7.88028 2.45252,2.66207 5.50009,4.84014 6.77238,4.84014 1.2723,0 2.31327,0.58289 2.31327,1.2953 0,0.71241 -0.9054,1.29529 -2.012,1.29529 -1.1066,0 -2.012,0.61728 -2.012,1.37174 0,0.75445 0.60786,1.00894 1.3508,0.56554 2.35706,-1.40674 3.02653,3.08771 0.78269,5.25454 -3.14301,3.03513 -5.05921,6.92401 -4.12837,8.37845 0.44653,0.69769 0.13065,1.26852 -0.70191,1.26852 -0.8326,0 -1.32091,1.31149 -1.08517,2.91441 0.97072,6.60038 10.99943,0.65534 19.35176,-11.47178 6.06322,-8.80346 7.71818,-13.81053 6.72265,-20.33924 -0.76053,-4.98755 -0.66576,-5.22608 1.16627,-2.93578 2.70803,3.3854 0.38898,17.99422 -3.50076,22.05294 -2.14711,2.24039 -1.22304,3.35133 1.44781,1.7406 1.44491,-0.87138 2.80301,-2.72504 3.018,-4.11921 0.44164,-2.86396 3.76153,-4.54006 3.71238,-1.87426 -0.0174,0.94987 -1.48861,5.22434 -3.26911,9.4988 -1.78453,4.28415 -2.29876,6.4639 -1.14589,4.85735 2.6144,-3.64325 7.12951,-3.89674 7.12951,-0.40028 0,1.38278 -0.6036,2.87439 -1.34133,3.31468 -0.73773,0.4403 -1.34133,1.99677 -1.34133,3.45883 0,2.3251 0.57545,2.55405 4.59115,1.82656 3.98394,-0.72174 4.71681,-0.44101 5.5413,2.12259 0.5226,1.6249 2.07817,4.50154 3.45686,6.39254 5.66661,7.77235 6.74146,7.57295 -40.75131,7.56002 l -43.258,-0.0116 -0.34536,-22.92457 c -0.18994,-12.60852 -0.84269,-23.40484 -1.45054,-23.99183 -0.60785,-0.58698 -0.83314,0.72273 -0.50063,2.91047 0.33251,2.18775 0.1672,12.98937 -0.36735,24.0036 l -0.97186,20.02576 -103.81211,0 -103.812114,0 0,-11.42404 z m 188.293794,-14.47297 0.89042,-13.59173 -2.76922,2.67419 c -2.65284,2.56176 -4.62676,13.75146 -2.74618,15.56747 0.98037,0.94673 1.03665,1.41484 1.42529,11.85621 0.31864,8.56079 0.34613,8.62161 1.31736,2.91441 0.54556,-3.20585 1.39261,-11.94509 1.88233,-19.42055 z m 15.04895,3.27126 c -1.12953,-4.34589 -3.45698,-3.05099 -2.88382,1.60444 0.60556,4.91868 0.56931,4.86651 2.25246,3.24112 0.86357,-0.83392 1.13418,-2.9109 0.63136,-4.84556 z m 62.96708,0.51961 c 1.44364,-2.25567 -0.20056,-2.73338 -2.04025,-0.59278 -1.05798,1.23104 -1.15974,1.97425 -0.27031,1.97425 0.78452,0 1.82427,-0.62166 2.31056,-1.38147 z m 5.78871,-4.95291 c 1.10546,-0.67642 1.29676,-1.42575 0.48732,-1.90885 -0.7329,-0.4374 -2.07845,0.0727 -2.99011,1.13338 -1.80997,2.10602 -0.39051,2.54582 2.50279,0.77547 z m -74.15606,-3.93286 c 0,-1.37251 -0.4227,-2.24321 -0.93934,-1.93487 -0.51663,0.30835 -1.24504,-0.17161 -1.61867,-1.06656 -0.45547,-1.09095 -0.71424,-0.96554 -0.78523,0.38051 -0.0791,1.50157 2.20164,5.11641 3.22827,5.11641 0.0632,0 0.11495,-1.12297 0.11495,-2.49549 z M 102.7907,425.69924 c 1.15369,-1.34239 1.20445,-1.94294 0.16424,-1.94294 -0.82806,0 -1.50557,-0.87432 -1.50557,-1.94293 0,-1.06862 -0.5793,-1.94294 -1.28734,-1.94294 -0.70803,0 -1.16073,1.74749 -1.005996,3.8833 0.314538,4.34159 1.178136,4.80385 3.634666,1.94551 z m 10.73067,-0.64764 c 0,-0.71241 -0.9557,-1.2953 -2.12378,-1.2953 -1.16808,0 -1.84713,-0.7286 -1.509,-1.61911 0.33813,-0.89051 1.35042,-1.45518 2.24953,-1.25481 0.89911,0.20036 1.38251,-0.36644 1.07422,-1.25957 -0.61281,-1.77532 -6.15742,-3.51009 -8.59674,-2.6897 -2.09217,0.70364 -0.62176,5.5279 1.68488,5.5279 1.02055,0 1.85556,0.87432 1.85556,1.94294 0,1.07941 1.19229,1.94294 2.68266,1.94294 1.47547,0 2.68267,-0.58288 2.68267,-1.29529 z M 98.096036,412.09868 c 0.455945,-0.71241 0.189767,-1.2953 -0.591505,-1.2953 -0.781272,0 -1.420495,0.58289 -1.420495,1.2953 0,0.71241 0.266177,1.29529 0.591506,1.29529 0.325328,0 0.96455,-0.58288 1.420494,-1.29529 z m -5.882429,-9.0227 c 3.626857,-3.06813 3.956673,-3.6955 1.638224,-3.11623 -3.143491,0.78542 -9.861361,6.95776 -7.572704,6.95776 0.766361,0 3.436877,-1.72868 5.93448,-3.84153 z m 12.253763,-3.49278 c -0.92217,-0.35932 -2.43117,-0.35932 -3.35333,0 -0.92217,0.35933 -0.16767,0.65334 1.67666,0.65334 1.84434,0 2.59884,-0.29401 1.67667,-0.65334 z m 14.41933,-4.32332 c 1.63573,-1.0208 1.46239,-1.25933 -0.92684,-1.27546 -1.61636,-0.0109 -3.31188,0.56305 -3.76782,1.27546 -1.05546,1.64916 2.05208,1.64916 4.69466,0 z m -15.11794,-5.96374 c -0.44572,-0.43041 -1.60262,-0.47642 -2.57089,-0.1022 -1.07003,0.41348 -0.75219,0.72042 0.81039,0.78256 1.41399,0.0562 2.20621,-0.2499 1.7605,-0.68031 z m -12.915924,-2.58518 c -2.456371,-0.99738 -4.69863,-1.81341 -4.982798,-1.81341 -0.284167,0 -0.516668,0.81603 -0.516668,1.81341 0,1.2289 1.60605,1.8134 4.982798,1.8134 l 4.982799,0 -4.466131,-1.8134 z m 170.215204,-8.28987 c 0,-2.52477 -1.42272,-3.37553 -3.03736,-1.8163 -1.07457,1.03767 0.33182,4.40688 1.83953,4.40688 0.6588,0 1.19783,-1.16576 1.19783,-2.59058 z m 79.75204,0.0895 c 0.42445,-0.66319 0.15827,-1.57191 -0.5915,-2.01938 -0.74976,-0.44748 -1.36321,0.0951 -1.36321,1.20578 0,2.27522 0.80488,2.61022 1.95471,0.8136 z m 26.00545,-16.21589 c -1.86044,-2.01969 -4.18701,1.29988 -3.14119,4.48188 l 0.94147,2.86448 1.66661,-3.05792 c 0.92462,-1.69649 1.16197,-3.60575 0.53311,-4.28844 z m 2.89051,5.19285 c 0,-0.31416 -0.6036,-0.93144 -1.34134,-1.37174 -0.73773,-0.44029 -1.34133,-0.18325 -1.34133,0.5712 0,0.75446 0.6036,1.37174 1.34133,1.37174 0.73774,0 1.34134,-0.25704 1.34134,-0.5712 z m -211.93067,-5.90526 c 0,-0.71241 -0.6036,-1.29529 -1.34133,-1.29529 -0.73774,0 -1.34134,0.58288 -1.34134,1.29529 0,0.71241 0.6036,1.2953 1.34134,1.2953 0.73773,0 1.34133,-0.58289 1.34133,-1.2953 z m 185.104,-3.88587 c 0,-0.71241 -0.6036,-1.29529 -1.34133,-1.29529 -0.73774,0 -1.34134,0.58288 -1.34134,1.29529 0,0.71241 0.6036,1.29529 1.34134,1.29529 0.73773,0 1.34133,-0.58288 1.34133,-1.29529 z m 6.70667,-1.33108 c 0,-0.64801 -0.90194,-0.84398 -2.0043,-0.43548 -1.10237,0.4085 -1.66425,1.27404 -1.24865,1.92342 0.86926,1.35821 3.25295,0.26789 3.25295,-1.48794 z m 18.77866,0.68343 c 0,-1.06861 -0.6036,-1.94294 -1.34133,-1.94294 -0.73773,0 -1.34133,0.87433 -1.34133,1.94294 0,1.06862 0.6036,1.94294 1.34133,1.94294 0.73773,0 1.34133,-0.87432 1.34133,-1.94294 z m -16.09319,-8.09557 c 1.03568,-2.67154 1.76054,-5.29451 1.61079,-5.82882 -0.14975,-0.5343 0.33134,-0.97147 1.06907,-0.97147 0.73773,0 1.34133,-0.90872 1.34133,-2.01938 0,-1.11066 -0.55205,-1.6899 -1.22677,-1.28722 -0.67471,0.40269 -1.5422,-7e-5 -1.92773,-0.89502 -0.94053,-2.1833 -4.96042,2.52605 -4.06966,4.76765 0.35177,0.88523 -0.25946,2.33004 -1.35829,3.21068 -1.58104,1.26711 -1.68878,2.2563 -0.51641,4.74106 2.0104,4.26089 2.87316,3.96906 5.07767,-1.71748 z m -13.90813,-13.51666 c 0.40763,-3.38087 0.18729,-3.71896 -1.52784,-2.3444 -1.1023,0.88343 -2.00417,2.38867 -2.00417,3.34499 0,0.95633 -1.34463,2.43368 -2.98809,3.28305 -2.87462,1.48564 -2.88845,1.57802 -0.36448,2.43299 3.40775,1.15434 6.27256,-1.64057 6.88458,-6.71663 z m -250.337344,6.14518 c 0,-0.31416 -0.6036,-0.93145 -1.341333,-1.37174 -0.737733,-0.4403 -1.341333,-0.18326 -1.341333,0.57119 0,0.75446 0.6036,1.37174 1.341333,1.37174 0.737733,0 1.341333,-0.25703 1.341333,-0.57119 z m 36.109514,-5.38936 c -1.78577,-1.84787 -5.05765,-4.57874 -7.27085,-6.0686 -3.88203,-2.61327 -3.94118,-2.61663 -1.67666,-0.0952 2.87718,3.2036 3.05991,5.83064 0.33533,4.82101 -1.1066,-0.41008 -2.012,-0.10039 -2.012,0.68829 0,1.40483 2.49578,2.01049 6.91026,1.67692 1.21857,-0.0921 2.96449,0.70397 3.8798,1.76901 0.91532,1.06503 1.98299,1.6286 2.37259,1.25236 0.3896,-0.37623 -0.75271,-2.19594 -2.53847,-4.04381 z m 225.45049,-16.70705 c 0,-1.06862 -0.6036,-1.94294 -1.34134,-1.94294 -0.73773,0 -1.34133,0.87432 -1.34133,1.94294 0,1.06861 0.6036,1.94293 1.34133,1.94293 0.73774,0 1.34134,-0.87432 1.34134,-1.94293 z m 17.43733,-20.64823 c 0,-0.31416 -0.6036,-0.93144 -1.34133,-1.37174 -0.73774,-0.44029 -1.34134,-0.18325 -1.34134,0.5712 0,0.75446 0.6036,1.37174 1.34134,1.37174 0.73773,0 1.34133,-0.25704 1.34133,-0.5712 z M 203.96658,210.18126 c 0.40381,-0.63095 -0.76777,-1.42445 -2.6035,-1.76332 -3.75488,-0.69315 -4.63412,1.0981 -0.99038,2.01761 1.29104,0.32581 2.46261,0.65999 2.6035,0.74263 0.1409,0.0826 0.58657,-0.36597 0.99038,-0.99692 z m 54.03153,-43.78654 c 0.49787,-1.25286 0.16084,-2.41733 -0.788,-2.72274 -0.91186,-0.29353 -2.83875,-1.75764 -4.28197,-3.25358 -2.50621,-2.59776 -2.72873,-2.61726 -4.95475,-0.43399 -2.21619,2.17363 -2.14581,2.441 1.43277,5.44266 4.40567,3.69539 7.37512,4.02982 8.59195,0.96765 z m -11.68474,-12.05913 c -2.60052,-1.6229 -4.024,-1.6229 -4.024,0 0,0.71241 1.3581,1.28637 3.018,1.27546 2.44048,-0.016 2.63298,-0.26011 1.006,-1.27546 z M 384.0236,466.9327 c -1.35071,-1.30435 -1.07161,-4.31764 0.39991,-4.31764 0.71178,0 1.94022,1.16576 2.72986,2.59058 1.11062,2.00399 1.02007,2.59059 -0.39992,2.59059 -1.00959,0 -2.23804,-0.38859 -2.72985,-0.86353 z m -8.90144,-3.60523 c -0.0298,-2.7866 0.35999,-3.43409 1.43953,-2.3916 1.06093,1.02451 1.07249,2.1071 0.0408,3.82111 -1.26197,2.0966 -1.44456,1.92026 -1.48032,-1.42951 z M 67.916036,429.84418 c 0,-3.34833 0.6036,-6.08788 1.341334,-6.08788 2.196665,0 2.10432,8.71557 -0.115972,10.94522 -0.746531,0.74968 -1.225362,-1.14841 -1.225362,-4.85734 z m 5.471228,-1.66229 c 0.06436,-1.50895 0.382201,-1.81587 0.810389,-0.78258 0.387473,0.93503 0.339819,2.05224 -0.105898,2.48265 -0.445714,0.43041 -0.762737,-0.33463 -0.704495,-1.70007 z m 18.489215,-0.2843 c 1.5437,-1.04445 1.5437,-1.34646 0,-1.93929 -1.230297,-0.47247 -1.023983,-0.73564 0.630668,-0.80444 2.813319,-0.11697 2.380569,2.71733 -0.530944,3.47744 -1.593964,0.41614 -1.611248,0.28897 -0.09973,-0.73371 z m -15.05617,-2.19835 c 0.424642,-1.06861 1.009298,-1.94294 1.299235,-1.94294 0.289937,0 0.527159,0.87433 0.527159,1.94294 0,1.06862 -0.584656,1.94294 -1.299236,1.94294 -0.71458,0 -0.951802,-0.87432 -0.527158,-1.94294 z M 320.0867,421.08927 c 0,-0.75445 0.6036,-1.01149 1.34134,-0.5712 0.73773,0.4403 1.34133,1.05758 1.34133,1.37174 0,0.31416 -0.6036,0.5712 -1.34133,0.5712 -0.73774,0 -1.34134,-0.61728 -1.34134,-1.37174 z M 93.40137,419.79398 c 0,-0.75446 0.6036,-1.01149 1.341333,-0.5712 0.737733,0.4403 1.341333,1.05758 1.341333,1.37174 0,0.31416 -0.6036,0.5712 -1.341333,0.5712 -0.737733,0 -1.341333,-0.61728 -1.341333,-1.37174 z m 330.41547,-14.72505 c 0.84503,-1.72912 1.74875,-2.93881 2.00827,-2.68819 0.8325,0.80392 -1.25385,5.83206 -2.41993,5.83206 -0.61861,0 -0.43337,-1.41474 0.41166,-3.14387 z m 0.89386,-5.92317 c 0,-0.71241 0.63923,-1.29529 1.4205,-1.29529 0.78127,0 1.04745,0.58288 0.5915,1.29529 -0.45594,0.71241 -1.09517,1.29529 -1.4205,1.29529 -0.32532,0 -0.5915,-0.58288 -0.5915,-1.29529 z m 26.82667,-16.6802 c 0,-0.62517 0.9054,-1.86231 2.012,-2.74918 1.68096,-1.34719 2.012,-1.16017 2.012,1.1367 0,1.58019 -0.85553,2.74918 -2.012,2.74918 -1.1066,0 -2.012,-0.51152 -2.012,-1.1367 z m -27.42769,-3.93564 c -1.41481,-2.21065 7.26518,-9.17588 11.43487,-9.17588 2.44404,0 3.92082,-0.67491 3.92082,-1.79186 0,-0.98553 1.3581,-2.14334 3.018,-2.57289 4.86524,-1.25909 5.71777,-0.94426 2.93904,1.08533 -2.49393,1.82157 -2.44819,1.90347 1.08496,1.94294 5.83674,0.0652 4.33216,2.27584 -4.024,5.91235 -4.24197,1.84606 -8.76077,3.90322 -10.0418,4.57147 -2.97062,1.54964 -7.34879,1.56462 -8.33189,0.0285 z m -99.32831,-31.19584 c 0.45595,-0.71241 1.09517,-1.29529 1.4205,-1.29529 0.32533,0 0.5915,0.58288 0.5915,1.29529 0,0.71241 -0.63923,1.29529 -1.4205,1.29529 -0.78127,0 -1.04745,-0.58288 -0.5915,-1.29529 z m -0.56477,-4.64146 c 0.0644,-1.50895 0.3822,-1.81587 0.81038,-0.78257 0.38747,0.93503 0.33983,2.05222 -0.10583,2.48264 -0.44573,0.43042 -0.76274,-0.33462 -0.7045,-1.70007 z m 58.91277,-3.20674 c 0,-0.75445 0.6036,-1.01149 1.34133,-0.57119 0.73774,0.44029 1.34134,1.05758 1.34134,1.37174 0,0.31416 -0.6036,0.57119 -1.34134,0.57119 -0.73773,0 -1.34133,-0.61728 -1.34133,-1.37174 z m -132.792,-80.46021 c 0,-4.95062 2.71164,-11.42906 4.78378,-11.42906 1.13507,0 1.52326,0.79379 1.01441,2.0743 -0.59839,1.50584 -0.15782,1.94957 1.60762,1.61912 3.54386,-0.66333 3.93126,-3.333 0.63047,-4.34466 -2.55763,-0.78389 -2.65525,-1.14278 -0.97537,-3.58597 1.75911,-2.55841 1.47411,-2.90156 -4.94443,-5.95315 -7.86608,-3.73979 -8.77463,-4.7235 -8.80261,-9.53079 -0.0189,-3.25605 0.24647,-3.43196 3.42012,-2.26676 4.79521,1.76056 9.96691,1.57655 10.00251,-0.35588 0.0164,-0.89051 1.0727,-0.37982 2.34733,1.13487 2.8719,3.41282 10.32145,4.55164 21.30532,3.257 5.81341,-0.68522 8.922,-0.5038 10.50361,0.61301 2.07536,1.46545 2.03649,1.78904 -0.51036,4.24848 -3.46099,3.34219 -9.235,4.82805 -11.23955,2.89231 -1.60203,-1.54705 -9.34123,-2.01559 -10.75426,-0.65107 -0.46045,0.44465 0.49525,1.86389 2.12378,3.15387 2.63242,2.08519 2.76019,2.66307 1.15148,5.20818 -1.58956,2.51479 -1.5488,2.76613 0.33533,2.06794 1.17965,-0.43713 2.14482,-0.33982 2.14482,0.21626 0,1.52657 -7.65782,6.6794 -9.92652,6.6794 -1.09294,0 -2.3602,0.58288 -2.81615,1.29529 -0.45594,0.71241 -1.81076,1.29529 -3.01071,1.29529 -1.19995,0 -3.57872,1.26737 -5.28617,2.81637 l -3.10445,2.81638 0,-3.27073 z m 9.38933,-4.9526 c 0,-1.6229 -1.42347,-1.6229 -4.024,0 -1.62698,1.01534 -1.43447,1.25941 1.006,1.27546 1.6599,0.0109 3.018,-0.56305 3.018,-1.27546 z m -25.48533,-24.5341 c 0,-2.09519 0.46957,-4.08969 1.0435,-4.43222 1.55685,-0.92916 7.80613,4.01342 6.5762,5.20114 -0.5824,0.56239 -1.54594,0.26155 -2.14121,-0.66856 -0.80072,-1.25112 -1.27254,-0.98863 -1.81348,1.00899 -1.09272,4.03512 -3.66501,3.25652 -3.66501,-1.10935 z m 33.86718,-19.6156 c -1.66073,-0.60671 -3.86008,-0.79162 -4.88746,-0.41091 -1.14996,0.42614 -2.63607,-0.79465 -3.86627,-3.176 -1.86307,-3.60643 -1.83189,-3.83727 0.46071,-3.41091 1.35245,0.25152 4.45105,1.80594 6.88576,3.45425 2.43471,1.64832 4.67825,3.14463 4.98564,3.32514 1.69137,0.99323 -1.00672,1.15793 -3.57838,0.21843 z M 234.99827,66.635429 c -0.72791,-1.846048 -0.57385,-1.99483 0.75088,-0.725098 0.91669,0.87864 1.32882,1.923821 0.91583,2.322624 -0.41298,0.398805 -1.163,-0.320082 -1.66671,-1.597526 z"
       id="path5405"
       inkscape:connector-curvature="0" />
    <path
       style="fill:#131113"
       d="m 73.521283,465.316 c 2.122041,-3.28128 4.147898,-3.53888 3.531703,-0.44905 -0.247,1.23853 -1.53569,2.45396 -2.863759,2.70094 -2.12934,0.396 -2.208268,0.12991 -0.667944,-2.25189 z m 18.538753,1.43251 c 0,-0.57625 0.886203,-2.17918 1.969342,-3.56206 2.010496,-2.56688 2.706867,-1.12926 1.240484,2.5609 -0.840993,2.11636 -3.209826,2.85521 -3.209826,1.00116 z m 23.283284,-5.78565 c 5.39832,-11.78757 11.72796,-23.59014 14.42565,-26.89879 2.42012,-2.96821 2.40184,-2.70155 -0.2701,3.94044 -3.96701,9.86135 -6.2048,16.43557 -8.04647,23.63908 -1.41896,5.55012 -1.94834,6.15264 -5.40577,6.15264 l -3.83277,0 3.12946,-6.83337 z m 7.82048,2.80315 c 0.74287,-2.05785 1.78141,-3.74153 2.30786,-3.74153 0.52646,0 2.31812,-1.22438 3.98147,-2.72083 1.66335,-1.49645 3.3521,-2.40425 3.75278,-2.01733 0.93436,0.90229 -2.5719,8.62403 -3.91597,8.62403 -0.55765,0 -1.01433,0.7286 -1.01485,1.61912 -5.2e-4,0.89051 -1.45467,1.69987 -3.23145,1.79859 -2.99584,0.16643 -3.13239,-0.0924 -1.87984,-3.56205 z m 14.50157,-0.99235 c 0,-6.69297 2.79205,-9.00779 7.37062,-6.11078 1.84802,1.16932 3.36828,2.84119 3.37836,3.71528 0.0107,0.87409 0.38228,2.90074 0.82712,4.50366 0.75325,2.71427 0.38355,2.91441 -5.38366,2.91441 l -6.19244,0 0,-5.02257 z m 16.34755,-15.05399 c -0.2305,-11.09884 0.27131,-24.57803 1.11515,-29.95377 0.84383,-5.37574 1.23943,-10.05878 0.87909,-10.40675 -1.22088,-1.17896 -8.53382,3.28945 -12.47183,7.62064 -4.20723,4.62729 -13.73114,12.05387 -14.39364,11.2239 -0.94719,-1.18665 -3.80981,-8.89815 -3.63773,-9.79957 0.10362,-0.54275 -4.20998,-1.70128 -9.58577,-2.57451 -7.67561,-1.2468 -10.42213,-2.31383 -12.79215,-4.96977 -5.720973,-6.41113 -4.123565,-6.86702 13.74866,-3.9238 l 10.73067,1.76715 3.01134,-3.45489 c 1.65623,-1.9002 3.01433,-3.89206 3.018,-4.42636 0.004,-0.53431 1.96836,-0.98032 4.36599,-0.99114 2.39764,-0.0104 7.07554,-0.80147 10.39534,-1.75703 l 6.036,-1.73738 0.40325,-8.10332 c 0.22179,-4.45683 1.22896,-9.34926 2.23815,-10.87206 1.0092,-1.52281 2.52827,-5.30828 3.37572,-8.41218 1.32633,-4.85785 2.28817,-5.92694 6.90947,-7.67993 3.7884,-1.43705 5.17351,-2.6354 4.70572,-4.07124 -2.21127,-6.78723 -8.25313,-19.28001 -10.43925,-21.58523 -2.62818,-2.77138 -10.44456,-19.29843 -10.51011,-22.2227 -0.069,-3.07537 2.43808,-1.60257 5.51214,3.23823 1.6965,2.67154 4.92638,7.2032 7.17751,10.07037 2.25114,2.86715 6.39702,9.71601 9.2131,15.21968 5.00319,9.7781 5.23321,10.00666 10.07076,10.00666 2.72285,0 6.33117,0.93377 8.01849,2.07505 4.17832,2.82615 4.44983,2.05013 1.39929,-3.99927 -1.6243,-3.2211 -2.30703,-6.46496 -1.8155,-8.62608 1.03542,-4.55239 -7.3798,-19.80668 -8.78798,-15.93003 -0.73937,2.03544 -1.6459,1.40311 -5.74814,-4.00947 -2.67868,-3.53431 -6.77077,-9.84094 -9.09351,-14.01474 -3.60256,-6.47352 -5.23505,-8.02708 -11.10881,-10.57164 -3.7871,-1.64061 -10.05454,-3.38059 -13.92764,-3.86664 -3.8731,-0.48603 -7.042,-1.40652 -7.042,-2.04551 0,-0.63899 4.6779,-4.22731 10.39534,-7.97404 12.58137,-8.24475 29.65343,-24.82238 30.75496,-29.86425 l 0.79148,-3.62267 2.74768,3.73492 c 3.78338,5.1427 10.35987,8.74378 11.84356,6.48515 1.4094,-2.14553 1.44789,-4.5785 0.0812,-5.13356 -0.58473,-0.23747 -2.44476,-2.61757 -4.1334,-5.28911 -3.4175,-5.40669 -4.99561,-5.92794 -7.8431,-2.59058 -1.8305,2.14542 -1.89227,2.13974 -1.15388,-0.10595 0.42909,-1.30499 0.78017,-3.60737 0.78017,-5.11641 0,-2.0278 0.39262,-2.36455 1.50479,-1.29056 0.82763,0.79922 2.36733,1.13348 3.42158,0.74282 1.05424,-0.39066 3.24419,0.46221 4.86655,1.89529 1.62237,1.43307 4.23308,2.98037 5.80161,3.43847 2.73383,0.79841 2.80395,0.57672 1.69435,-5.35611 -0.63664,-3.40397 -2.47907,-11.63415 -4.09428,-18.28932 -2.57204,-10.59756 -3.36549,-12.2543 -6.38901,-13.34027 -10.96898,-3.93979 -11.09734,-4.05155 -10.20516,-8.88466 0.46028,-2.49343 1.72709,-9.99693 2.81514,-16.67443 1.08805,-6.67752 3.06024,-13.67209 4.38265,-15.54351 2.68886,-3.80515 5.87768,-13.27231 4.81588,-14.29766 -0.37846,-0.36547 -1.93902,0.0899 -3.46791,1.01194 -3.2399,1.9539 -5.65934,0.37639 -4.37598,-2.85319 0.92215,-2.32062 2.41703,-2.54707 6.53693,-0.99026 2.05122,0.77511 3.67464,-0.1979 7.55647,-4.52905 2.71919,-3.03394 5.76521,-7.30787 6.76896,-9.49763 1.00377,-2.18975 2.28126,-3.98137 2.83891,-3.98137 0.55764,0 1.0139,-0.80295 1.0139,-1.78434 0,-0.98138 0.9054,-2.50996 2.012,-3.39683 1.1066,-0.88687 2.012,-2.48189 2.012,-3.54449 0,-3.12955 -14.42563,12.64194 -15.26352,16.68754 -0.5992,2.8932 -1.50088,3.69574 -4.15228,3.69574 -3.94322,0 -3.93527,0.0216 -1.5934,-4.33743 1.19116,-2.21713 2.24225,-2.90487 3.12977,-2.04782 0.88752,0.85706 1.33632,-0.0235 1.33632,-2.6219 0,-4.13514 3.65951,-9.12693 6.691,-9.12693 0.99225,0 1.80411,-1.31458 1.80411,-2.92129 0,-2.95766 4.57946,-5.30156 13.74866,-7.03695 4.15749,-0.78686 4.22141,-0.90843 2.30015,-4.37513 -1.13143,-2.04152 -0.94516,-2.50701 1.006,-2.51396 1.31699,-0.005 4.20532,-1.16662 6.41852,-2.58205 2.2132,-1.41543 5.10912,-2.57736 6.43538,-2.58205 1.32626,-0.005 3.74066,-1.38473 5.36533,-3.066745 4.04859,-4.191485 6.32927,-4.688458 22.45637,-4.893377 7.71701,-0.09805 15.09866,-0.707011 16.40368,-1.353235 2.21329,-1.095971 5.3554,-0.04995 13.05257,4.345272 1.1066,0.631887 3.02655,1.480842 4.26656,1.886566 1.23999,0.405725 2.57915,1.554569 2.97589,2.552979 0.39674,0.99841 1.90119,1.8153 3.34321,1.8153 1.44201,0 4.4152,1.4572 6.60706,3.23823 2.19187,1.78102 4.62713,3.23823 5.4117,3.23823 0.78457,0 3.02637,2.63627 4.98178,5.85838 1.9554,3.22212 4.75382,6.47781 6.2187,7.23489 1.4649,0.75707 3.80684,3.87261 5.20432,6.92341 1.39748,3.05081 3.42023,6.25166 4.49498,7.11302 1.07476,0.86135 2.91012,4.58136 4.07856,8.26669 1.16845,3.68533 3.01625,9.32356 4.10625,12.52941 1.08998,3.20584 2.32785,12.82339 2.75083,21.37231 0.42296,8.54893 1.20519,19.62367 1.73827,24.61055 0.53308,4.98687 0.81398,16.316 0.62421,25.17582 -0.28082,13.11007 -0.97062,17.93255 -3.70552,25.90584 -3.03916,8.86033 -4.20872,20.80704 -2.03697,20.80704 0.47325,0 2.34057,-1.32466 4.14961,-2.94367 3.39457,-3.03799 8.57646,-4.21993 9.8407,-2.24458 0.39542,0.61785 0.10556,1.48949 -0.64426,1.93696 -2.32819,1.38951 -1.50854,3.26205 1.99012,4.54658 4.16282,1.52837 4.19249,2.71789 0.18331,7.34854 -1.74352,2.01379 -4.46565,6.12668 -6.04916,9.13974 -3.14497,5.98412 -6.72512,8.23439 -18.94331,11.90658 l -8.01581,2.40916 -2.58474,-4.0682 c -2.41633,-3.80314 -3.49444,-8.82935 -3.02056,-14.08205 0.1112,-1.23314 1.71127,-2.60781 3.55561,-3.05483 3.85291,-0.93381 4.20541,-2.12239 1.31617,-4.43794 -1.66078,-1.331 -2.48572,-1.24066 -4.46495,0.48905 -3.47218,3.03442 -6.24351,2.62422 -8.04342,-1.19055 -1.76699,-3.74498 -1.21413,-5.14069 5.8366,-14.73496 6.58438,-8.95966 9.99072,-17.54521 12.6253,-31.82153 2.51835,-13.64652 3.59744,-38.56792 2.02128,-46.68116 -0.6603,-3.39894 -2.05444,-5.41923 -4.76824,-6.90985 -2.10931,-1.1586 -3.83893,-2.64353 -3.8436,-3.29984 -0.004,-0.65631 -0.86863,-2.11351 -1.91993,-3.23823 -1.05131,-1.12471 -2.10761,-3.79357 -2.34733,-5.9308 -0.37471,-3.34043 -0.029,-3.83172 2.46329,-3.50008 3.84268,0.51136 4.86383,-1.38943 2.93856,-5.4699 -1.51914,-3.21969 -3.82573,-4.54068 -3.82573,-2.19101 0,0.62937 -1.53293,1.42727 -3.40649,1.77314 -2.15169,0.3972 -3.22246,0.0949 -2.90686,-0.82048 0.27481,-0.79711 1.65683,-1.65774 3.07117,-1.91251 5.23261,-0.94254 5.8726,-2.60744 5.32977,-13.86488 -0.34155,-7.08352 -1.25715,-11.84419 -2.64626,-13.75934 -1.16821,-1.61059 -2.124,-4.01203 -2.124,-5.33653 0,-2.97772 -12.10726,-14.25581 -18.39902,-17.13896 -2.55375,-1.17024 -5.82058,-3.2647 -7.25964,-4.65436 -4.28246,-4.135472 -9.14133,-5.196854 -23.69063,-5.175034 -15.69332,0.02354 -18.16379,0.546708 -23.70247,5.019494 -2.34895,1.8969 -4.17667,2.61869 -4.47111,1.76569 -0.27391,-0.79352 -1.10162,-1.44277 -1.83936,-1.44277 -0.73773,0 -1.07078,0.7286 -0.74013,1.61911 0.92614,2.49425 -1.5413,6.15152 -5.00925,7.42478 -1.98665,0.72939 -3.98017,3.30503 -5.466,7.0621 -1.28637,3.25268 -2.89607,5.91397 -3.57711,5.91397 -0.68105,0 -0.80864,0.6713 -0.28352,1.49179 0.52511,0.82049 0.10798,2.14361 -0.92683,2.94028 -2.45264,1.88808 -5.23493,6.6943 -5.23493,9.04298 0,1.01891 0.7545,2.15597 1.67667,2.52678 1.18151,0.47511 0.88635,1.28714 -0.99947,2.74967 -2.29827,1.78241 -2.39297,2.24832 -0.67067,3.29977 1.10301,0.67337 2.86057,1.23324 3.9057,1.24415 1.04511,0.0109 1.51906,0.38791 1.05318,0.83779 -0.46587,0.44987 -0.21576,1.957 0.55579,3.34916 2.11797,3.82163 0.4808,4.21882 -4.17987,1.01405 -2.29814,-1.58026 -4.32015,-2.66389 -4.49336,-2.40807 -0.77451,1.14402 -3.55464,13.04853 -3.55464,15.22098 0,1.32736 -0.89876,3.13369 -1.99723,4.01404 -1.09847,0.88038 -1.65731,2.26323 -1.24186,3.07302 0.41545,0.80979 -0.12649,0.43115 -1.20423,-0.84142 -1.84927,-2.18349 -2.20031,-2.08135 -6.23399,1.81387 l -4.27437,4.12765 0.62208,13.72962 c 0.34215,7.5513 1.0221,14.66772 1.51099,15.81429 1.05395,2.47174 5.4673,4.78352 10.13595,5.30938 3.20448,0.36095 3.39204,0.86771 4.22544,11.41677 1.21121,15.33128 3.253,21.8482 15.30662,48.85524 1.34753,3.01923 1.5046,5.13261 0.55984,7.53225 -0.72229,1.83452 -1.31324,8.71343 -1.31324,15.28644 0,6.573 -1.04806,18.92129 -2.32905,27.44063 -2.47816,16.48145 -2.6481,45.40769 -0.31548,53.70081 0.82943,2.94886 0.8112,4.68443 -0.0522,4.96528 -2.02253,0.65791 -1.60756,3.04694 1.5086,8.68523 1.55976,2.82217 4.5731,8.48279 6.69631,12.57915 2.12323,4.09636 4.53324,7.44792 5.3556,7.44792 0.91779,0 1.10185,-0.87534 0.47663,-2.26676 -0.56022,-1.24671 -1.29444,-4.16112 -1.6316,-6.47646 -0.50405,-3.46138 -0.16655,-4.20969 1.89863,-4.20969 1.52862,0 5.56398,-3.76301 10.31036,-9.6145 4.28929,-5.28798 8.58237,-9.90491 9.54017,-10.25983 0.98144,-0.36369 2.43991,0.83502 3.34187,2.74667 1.11716,2.36771 1.91214,2.90495 2.63268,1.77911 1.98276,-3.09807 3.70532,1.47548 5.53688,14.7009 0.98659,7.12411 1.8013,15.18455 1.81047,17.91211 0.0145,4.29611 0.38459,4.8922 2.76838,4.45822 2.58542,-0.4707 2.76104,0.14745 2.90627,10.22905 0.085,5.9015 -0.34345,10.43278 -0.95212,10.06952 -0.60867,-0.36327 -3.32932,-4.13784 -6.04587,-8.38795 -5.08344,-7.95312 -6.75933,-9.1504 -8.09684,-5.78453 -0.42465,1.06862 -1.29836,1.94294 -1.94159,1.94294 -0.64323,0 -4.50206,3.26998 -8.57516,7.26663 -6.85751,6.72879 -8.5961,10.33569 -7.42348,15.40098 0.71587,3.09231 1.01101,4.01314 1.97706,6.16853 0.56269,1.25546 0.76056,4.00992 0.4397,6.12102 -0.32084,2.1111 0.0644,4.09801 0.85619,4.41536 0.79175,0.31736 -14.92591,0.62302 -34.92815,0.67926 l -36.36769,0.10233 -0.7009,-8.432 c -0.38548,-4.6376 -1.37343,-9.21454 -2.19542,-10.17098 -2.26015,-2.62983 -0.008,-15.07461 2.72871,-15.07461 0.67546,0 1.73051,1.31149 2.34454,2.91441 0.61404,1.60292 1.5851,2.62297 2.15793,2.26676 0.57281,-0.3562 1.71087,0.4446 2.529,1.77958 2.04928,3.34382 10.20619,11.76574 10.20619,10.53775 0,-0.54888 -2.02909,-3.72535 -4.50908,-7.05882 -5.98112,-8.03963 -11.58689,-17.83463 -11.58689,-20.24597 0,-1.06839 -0.97481,-3.37923 -2.16627,-5.1352 -1.3304,-1.96076 -1.58918,-3.19266 -0.67066,-3.19266 0.82258,0 1.4956,0.54125 1.4956,1.20277 0,0.66153 0.7545,1.98457 1.67666,2.94009 0.92217,0.95553 4.30292,6.79609 7.51277,12.97902 6.32014,12.17405 19.90728,27.02635 21.92243,23.96369 0.57148,-0.86854 1.04831,-1.02543 1.0596,-0.34864 0.0107,0.67679 0.77504,0.4996 1.6972,-0.39375 1.34214,-1.30022 1.01161,-2.10953 -1.65662,-4.05635 -1.83331,-1.33764 -2.89331,-2.85694 -2.35556,-3.37623 0.53775,-0.5193 2.11304,0.0479 3.50064,1.26064 2.41377,2.10945 2.61068,1.99238 4.55235,-2.70647 5.5159,-13.34847 5.39897,-15.3096 -0.87424,-14.66316 -1.9554,0.20151 -2.36697,-0.35604 -1.80224,-2.44142 0.40252,-1.48641 0.18477,-2.70256 -0.4839,-2.70256 -0.66867,0 -1.21576,-0.74478 -1.21576,-1.65507 0,-0.91029 -1.2072,-2.65323 -2.68267,-3.8732 -1.92865,-1.59468 -2.68266,-3.82103 -2.68266,-7.92103 0,-4.05138 -0.62642,-5.93504 -2.16306,-6.50446 -1.63099,-0.60439 -1.79883,-1.22539 -0.68231,-2.52453 0.81441,-0.94763 1.08359,-2.10649 0.59818,-2.57526 -0.48543,-0.46875 0.1234,-0.85229 1.35296,-0.85229 1.58973,0 2.23556,-1.12259 2.23556,-3.88587 0,-2.13724 -0.51698,-3.88588 -1.14883,-3.88588 -0.63186,0 -1.08456,-1.69134 -1.006,-3.75855 0.0786,-2.06719 0.59553,-3.48999 1.14883,-3.16178 0.5533,0.32821 1.01424,-0.45768 1.02431,-1.74644 0.0107,-1.28877 0.38228,-3.65469 0.82712,-5.25762 1.11113,-4.00386 -1.21656,-3.73024 -8.46748,0.99537 -3.2995,2.15037 -9.15619,4.9813 -13.01486,6.29097 -3.85868,1.30966 -9.99882,4.41029 -13.64477,6.8903 l -6.62899,4.50908 0.0411,10.24844 c 0.041,10.22122 0.8832,15.9204 2.79381,18.90571 1.71175,2.67461 1.58252,13.03938 -0.21437,17.19232 -0.93841,2.16885 -1.91194,8.02325 -2.16337,13.00977 -0.43213,8.56963 -0.64093,9.08699 -3.81052,9.44182 l -3.35333,0.37539 -0.41911,-20.1797 z m 48.03645,15.75387 c 0,-0.24025 -2.4144,-2.88776 -5.36533,-5.88336 -3.05525,-3.10148 -5.36534,-4.62699 -5.36534,-3.54307 0,1.0469 1.509,3.0497 3.35334,4.45066 1.84433,1.40096 3.35333,3.19191 3.35333,3.97989 0,0.78797 0.9054,1.43269 2.012,1.43269 1.1066,0 2.012,-0.19656 2.012,-0.43681 z m 29.4888,-2.47759 c -0.0166,-2.35671 -0.26937,-2.54261 -1.3208,-0.97147 -1.68058,2.51126 -1.68058,3.88587 0,3.88587 0.73773,0 1.33209,-1.31148 1.3208,-2.9144 z m -13.3928,-88.31935 c 0,-4.70711 -2.45437,-10.08816 -4.14194,-9.08097 -1.34879,0.80499 -0.65614,8.68217 0.98954,11.25353 1.33559,2.08686 3.1524,0.83476 3.1524,-2.17256 z m 37.17299,85.72876 c 0.84563,-13.26179 1.32014,-13.58524 1.89578,-1.29225 0.34166,7.29585 0.0251,10.68823 -0.99701,10.68616 -1.01973,-0.003 -1.30651,-2.99945 -0.89877,-9.39391 z m 25.37713,7.12411 c -0.37035,-1.24672 -0.70099,-11.77523 -0.73476,-23.39668 -0.0553,-18.99097 0.19565,-21.39638 2.47807,-23.76218 1.74616,-1.80995 3.42016,-2.36235 5.35851,-1.76826 1.55046,0.47521 2.47943,1.39461 2.06438,2.04312 -1.0186,1.59155 5.37883,10.53429 6.66278,9.31364 0.55803,-0.53051 0.80633,0.20119 0.55175,1.62601 -0.29037,1.62519 0.19912,2.45794 1.31352,2.23466 0.977,-0.19574 1.40178,0.22937 0.94397,0.94471 -0.45782,0.71534 -0.1588,2.51605 0.6645,4.0016 1.27336,2.29761 1.82093,2.44669 3.66651,0.99824 1.86208,-1.4614 2.04724,-1.38734 1.30636,0.52252 -0.47476,1.22391 -0.28598,2.56979 0.41953,2.99085 0.70552,0.42108 1.28276,1.34845 1.28276,2.06087 0,0.71241 -0.65272,0.90574 -1.45049,0.42962 -0.92018,-0.54919 -1.28798,0.24581 -1.006,2.17446 0.29606,2.02486 -0.22742,3.04542 -1.56751,3.05599 -2.80146,0.022 -3.22357,0.86307 -2.11941,4.22255 0.54126,1.64685 2.5202,3.31315 4.55614,3.83637 3.39472,0.8724 4.16247,1.05257 6.61727,1.55281 0.5533,0.11269 -0.33904,1.28887 -1.98297,2.6136 l -2.98898,2.40859 4.61859,0.83671 c 2.54023,0.46019 4.97718,1.39701 5.41547,2.08183 0.49481,0.77314 -6.06305,1.24513 -17.2999,1.24513 -16.08429,0 -18.17165,-0.25208 -18.77009,-2.26676 z M 134.9827,450.88099 c 0,-0.75446 0.6036,-1.0115 1.34134,-0.5712 0.73773,0.44029 1.34133,1.05758 1.34133,1.37174 0,0.31416 -0.6036,0.5712 -1.34133,0.5712 -0.73774,0 -1.34134,-0.61729 -1.34134,-1.37174 z m -47.664979,-7.76976 c -0.436178,-0.68152 -2.93e-4,-1.45989 0.968632,-1.72971 13.179537,-3.67004 18.528347,-4.28415 18.528347,-2.12728 0,0.68734 -1.0563,1.77271 -2.34733,2.41194 -3.60309,1.78397 -16.250686,2.84968 -17.149649,1.44505 z m 47.664979,-1.06266 c 0,-3.31342 10.44329,-22.88742 11.61,-21.76076 0.30436,0.29391 -1.86498,5.56618 -4.82078,11.71614 -4.93853,10.2753 -6.78922,13.01339 -6.78922,10.04462 z m 281.9617,-1.41004 c -6.55651,-1.34646 -17.84037,-2.37432 -27.49702,-2.50473 -12.35605,-0.16687 -16.85971,-0.68697 -18.34179,-2.11818 -1.72499,-1.66578 -1.10675,-1.89698 5.07276,-1.89698 3.87046,0 9.22308,-0.88198 11.89472,-1.95995 2.67164,-1.07796 5.14601,-1.68135 5.49861,-1.34086 0.35259,0.3405 1.8075,0.0163 3.23313,-0.72053 1.83347,-0.94756 3.13693,-0.90291 4.45393,0.15259 1.02404,0.82071 3.00661,1.14134 4.4057,0.71254 1.3991,-0.42882 4.29516,0.10233 6.4357,1.18029 2.14054,1.07798 4.57249,1.96355 5.40433,1.96794 0.83183,0.004 2.26384,0.8823 3.18223,1.95092 0.9184,1.06861 3.08367,1.94293 4.81171,1.94293 1.76912,0 3.76922,1.13191 4.57763,2.59059 1.73013,3.12182 1.85643,3.12141 -13.13164,0.0434 z m -17.38704,-30.15897 c 1.1003,-1.60292 3.03383,-3.112 4.29674,-3.3535 2.16245,-0.41352 2.16366,-0.24374 0.0208,2.91441 -1.25147,1.84442 -3.185,3.3535 -4.29674,3.3535 -1.79473,0 -1.79706,-0.32673 -0.0208,-2.91441 z m -35.20666,0.0868 c 0,-2.57315 6.45284,-16.29739 8.13459,-17.3011 0.69011,-0.41186 1.26399,0.0141 1.27528,0.94671 0.0149,1.23206 0.37598,1.16445 1.3208,-0.24738 1.02125,-1.52602 1.30466,-1.21263 1.3208,1.46052 0.0107,1.87189 -0.87823,4.12374 -1.9767,5.0041 -1.09847,0.88037 -1.72556,2.02514 -1.39352,2.54394 0.33203,0.51882 -1.48541,2.89863 -4.03877,5.2885 -3.2153,3.00941 -4.64248,3.71792 -4.64248,2.30471 z M 67.916036,407.05265 c 0,-1.41506 0.6036,-2.93307 1.341334,-3.37337 0.737733,-0.4403 1.341333,-1.68529 1.341333,-2.76667 0,-1.08137 1.794389,-3.69892 3.987532,-5.81679 3.280304,-3.1677 4.454155,-3.6095 6.618485,-2.49094 1.447025,0.74784 8.103036,1.35971 14.791136,1.35971 7.212564,0 12.160184,0.52702 12.160184,1.29529 0,0.71241 -0.4527,1.35328 -1.006,1.42415 -0.5533,0.0709 -3.59603,0.35459 -6.76163,0.63047 -6.369096,0.55508 -9.894971,2.04879 -13.848801,5.86691 -3.002367,2.8993 -6.395315,4.2862 -13.593573,5.55644 -4.432716,0.78222 -5.03,0.58211 -5.03,-1.6852 z m 278.997334,0.46945 c 0,-3.01164 6.49734,-14.75839 11.79327,-21.32144 5.14772,-6.37936 5.14138,-6.33403 -1.08415,7.76393 -2.35944,5.34308 -4.81589,11.02617 -5.45875,12.6291 -1.31684,3.28341 -5.25037,3.97895 -5.25037,0.92841 z m -11.24294,-5.53825 c -1.27255,-1.98837 10.73766,-35.69498 16.47262,-46.23037 3.10243,-5.69928 5.24578,-9.19657 4.76301,-7.77175 -2.60244,7.68081 -3.76479,10.48199 -4.81042,11.59286 -0.63706,0.67679 -1.15827,1.99462 -1.15827,2.92853 0,0.93389 -1.15333,4.16888 -2.56295,7.18887 -3.62226,7.76028 -7.70926,20.07218 -8.80767,26.53257 -0.92695,5.45199 -2.55388,7.85682 -3.89632,5.75929 z m -67.14302,-17.89691 c -0.52597,-7.58234 -1.53653,-15.25979 -2.24568,-17.06099 -1.45877,-3.70515 -0.0739,-5.88402 2.69108,-4.23384 1.21574,0.72558 1.96225,4.13571 2.1857,9.98457 0.18665,4.88544 0.77007,11.82233 1.29648,15.41529 0.73421,5.01111 0.49963,6.8993 -1.00709,8.10684 -1.69524,1.35864 -2.09515,-0.31354 -2.92049,-12.21187 z m -162.38337,1.90892 c -7.740704,-2.47714 -10.326442,-4.08957 -8.307687,-5.18054 3.389267,-1.83164 15.685017,2.50823 15.685017,5.53611 0,1.41332 -2.17783,1.30837 -7.37733,-0.35557 z m 32.6241,-15.70514 c -4.92648,-4.43343 -9.61148,-9.34676 -10.41112,-10.91852 -0.80437,-1.58106 -3.51781,-3.40804 -6.07386,-4.08957 -4.57207,-1.21908 -34.056748,-19.50142 -37.029843,-22.96083 -0.847774,-0.98644 -1.156325,-2.76258 -0.685671,-3.94698 0.764737,-1.92447 1.182135,-1.85736 3.92518,0.63114 1.688194,1.53154 3.785042,2.78462 4.659661,2.78462 0.874619,0 1.590216,0.5197 1.590216,1.15487 0,0.63518 1.6599,1.5512 3.688667,2.03562 6.39411,1.52672 22.13179,9.8448 30.18307,15.95312 4.47567,3.39558 10.31433,9.64031 13.8256,14.78714 10.53025,15.43526 9.63725,16.54654 -3.6719,4.56939 z m 184.6719,2.9492 c 0.53469,-1.78103 1.57578,-3.82111 2.31351,-4.53352 0.89423,-0.86353 1.01727,-0.21589 0.36915,1.94294 -0.53469,1.78102 -1.57578,3.82111 -2.31352,4.53352 -0.89422,0.86353 -1.01726,0.21588 -0.36914,-1.94294 z M 83.501065,365.33698 c -5.814035,-0.58936 -10.865767,-1.35623 -11.226074,-1.70417 -0.360305,-0.34795 0.175413,-3.91865 1.190486,-7.93492 l 1.845585,-7.30232 3.762787,3.36753 c 3.392454,3.03611 3.966627,3.17069 5.833928,1.36749 2.317167,-2.23763 3.146637,-1.8418 10.798337,5.15313 4.193959,3.83397 5.672426,7.18445 3.170293,7.18445 -0.677395,0 -2.035495,0.21158 -3.018,0.47018 -0.982504,0.2586 -6.543307,-0.0117 -12.357342,-0.60137 z m 194.330605,-2.47272 c -0.48776,-2.14455 -1.78604,-4.76752 -2.88505,-5.82882 -1.53927,-1.48642 -1.59111,-1.92446 -0.22573,-1.90722 2.43087,0.0307 7.76137,7.65604 6.88812,9.85355 -1.1727,2.95113 -2.83666,2.01833 -3.77734,-2.11751 z m 51.64437,-2.1138 c 0,-0.69499 0.93869,-2.39506 2.086,-3.77794 1.96689,-2.37079 1.99482,-2.32946 0.48897,0.7239 -1.95541,3.96492 -2.57497,4.69976 -2.57497,3.05404 z M 264.645,357.59812 c 1.88737,-1.85227 3.72948,-2.54719 5.25429,-1.98215 2.94103,1.08983 1.19777,2.74932 -4.13659,3.93782 l -4.024,0.89655 2.9063,-2.85222 z M 81.32937,348.62937 c -0.79318,-1.43119 -0.884315,-2.59058 -0.203635,-2.59058 0.677647,0 1.547775,1.16576 1.933618,2.59058 0.385843,1.42483 0.477478,2.59059 0.203635,2.59059 -0.273844,0 -1.143973,-1.16576 -1.933618,-2.59059 z m 69.68873,-11.31709 c -14.08552,-19.2931 -26.70308,-40.98717 -24.86887,-42.75843 2.02637,-1.9568 5.96222,2.67193 15.80993,18.59317 5.68139,9.18534 10.35928,17.12646 10.39534,17.64694 0.0361,0.52047 2.17814,4.13549 4.7602,8.03336 5.22765,7.89162 5.44151,8.50676 2.9574,8.50676 -0.95551,0 -5.02981,-4.50982 -9.054,-10.0218 z m -53.779465,-18.55149 -3.166599,-2.66746 4.024,2.27542 c 5.296164,2.99479 5.374954,3.05949 3.725484,3.05949 -0.77896,0 -2.841257,-1.20036 -4.582885,-2.66745 z M 248.62565,233.00845 c -4.37883,-4.69945 -3.50934,-6.02814 3.38839,-5.17784 5.44373,0.67105 5.69211,1.07687 3.72186,6.08111 -1.63994,4.16533 -2.48781,4.05762 -7.11025,-0.90327 z m 34.14576,1.31142 c 0.30946,-2.10419 1.32979,-2.91441 3.67019,-2.91441 4.4846,0 4.91814,2.47816 0.75405,4.31033 -4.65543,2.04835 -4.91859,1.96532 -4.42424,-1.39592 z m -88.3594,-45.84636 c -0.471,-1.18525 0.001,-2.76539 1.06445,-3.56205 1.05103,-0.78748 2.6807,-3.11005 3.62149,-5.16124 2.5253,-5.5059 3.22185,-3.42832 1.40245,4.18315 -1.59938,6.69107 -4.40292,8.78167 -6.08839,4.54014 z m 49.69642,-12.9503 c -0.84384,-0.32294 -1.22615,-1.72498 -0.84956,-3.11564 0.6963,-2.57127 2.95975,-3.12993 10.64933,-2.62846 2.89912,0.18906 4.69041,-0.46875 5.65989,-2.07846 1.35087,-2.243 1.42031,-2.24463 1.45916,-0.0342 0.0647,3.68149 -4.19639,6.97253 -10.01921,7.73829 -2.95094,0.38809 -6.05576,0.44137 -6.89961,0.11839 z m 39.14889,-4.25932 c -0.42445,-0.66319 -0.15826,-1.57191 0.59151,-2.01939 0.74976,-0.44747 1.36321,0.0951 1.36321,1.20579 0,2.27522 -0.80488,2.61022 -1.95472,0.8136 z m -50.69262,-3.57297 c -2.87622,-0.72583 -3.06936,-4.68771 -0.33533,-6.87887 2.69173,-2.15726 2.5437,-3.88138 -0.33533,-3.90571 -2.00205,-0.017 -2.05139,-0.20135 -0.33534,-1.25379 1.28133,-0.78582 2.17437,-0.77862 2.45911,0.0198 0.24592,0.68958 1.90582,1.25378 3.68867,1.25378 2.0451,0 3.24156,0.74719 3.24156,2.02436 0,1.35587 -0.9966,1.89054 -3.018,1.61911 -2.62266,-0.35216 -2.99688,0.1462 -2.85672,3.80446 0.0887,2.31533 0.0887,4.14208 0,4.05944 -0.0887,-0.0826 -1.21758,-0.41682 -2.50862,-0.74263 z m 23.92146,-9.99204 c -0.85938,-4.42364 -2.81264,-5.95387 -7.59983,-5.95387 -1.41512,0 -2.57296,-0.62216 -2.57296,-1.38258 0,-0.76042 1.0563,-1.09811 2.34733,-0.75043 1.29104,0.34769 3.66719,0.99741 5.28035,1.44383 1.65488,0.45795 3.11647,2.055 3.35399,3.66482 0.24858,1.68478 1.31149,2.79084 2.5956,2.70096 1.49242,-0.10453 1.96913,0.60665 1.51957,2.26676 -1.06798,3.94379 -4.00167,2.75848 -4.92405,-1.98949 z m 28.72588,3.20814 c 0,-0.66017 -1.0563,-1.46688 -2.34734,-1.79267 -1.76641,-0.44577 -1.60044,-0.62956 0.67067,-0.74263 2.01129,-0.10013 3.018,-0.96756 3.018,-2.60041 0,-1.5627 1.27193,-2.75845 3.51161,-3.30128 4.30013,-1.04221 5.47373,-0.13818 3.22196,2.4819 -1.37944,1.60506 -1.35248,1.99336 0.1442,2.07651 1.01249,0.0562 0.181,0.68769 -1.84777,1.40323 -2.02877,0.71553 -3.68867,1.83528 -3.68867,2.48832 0,0.65304 -0.6036,1.18735 -1.34133,1.18735 -0.73773,0 -1.34133,-0.54013 -1.34133,-1.20032 z M 182.03527,143.21767 c 0.0644,-1.50894 0.3822,-1.81587 0.81038,-0.78257 0.38747,0.93504 0.33982,2.05222 -0.10583,2.48264 -0.44573,0.43041 -0.76274,-0.33462 -0.7045,-1.70007 z m 28.819,-35.1329 c -0.72791,-1.84605 -0.57385,-1.99483 0.75088,-0.7251 0.91669,0.87864 1.32882,1.92382 0.91583,2.32263 -0.41298,0.3988 -1.163,-0.32009 -1.66671,-1.59753 z"
       id="path5403"
       inkscape:connector-curvature="0" />
  </g>
</svg>
