<?xml version="1.0" encoding="UTF-8" standalone="no"?>
<svg
   xmlns:dc="http://purl.org/dc/elements/1.1/"
   xmlns:cc="http://creativecommons.org/ns#"
   xmlns:rdf="http://www.w3.org/1999/02/22-rdf-syntax-ns#"
   xmlns:svg="http://www.w3.org/2000/svg"
   xmlns="http://www.w3.org/2000/svg"
   xmlns:sodipodi="http://sodipodi.sourceforge.net/DTD/sodipodi-0.dtd"
   xmlns:inkscape="http://www.inkscape.org/namespaces/inkscape"
   sodipodi:docname="conquistador helm.svg"
   height="100%"
   width="100%"
   inkscape:version="0.48.4 r9939"
   version="1.1"
   id="svg8438"
   viewBox="0 0 512 512">
  <metadata
     id="metadata8464">
    <rdf:RDF>
      <cc:Work
         rdf:about="">
        <dc:format>image/svg+xml</dc:format>
        <dc:type
           rdf:resource="http://purl.org/dc/dcmitype/StillImage" />
        <dc:title></dc:title>
      </cc:Work>
    </rdf:RDF>
  </metadata>
  <defs
     id="defs8462">
    <linearGradient
       id="linearGradient4077">
      <stop
         id="stop4079"
         offset="0"
         style="stop-color:#aa4400;stop-opacity:1;" />
      <stop
         style="stop-color:#ff9f00;stop-opacity:1;"
         offset="0.22752622"
         id="stop4081" />
      <stop
         style="stop-color:#803300;stop-opacity:1;"
         offset="0.4948855"
         id="stop4083" />
      <stop
         id="stop4085"
         offset="1"
         style="stop-color:#562200;stop-opacity:1;" />
    </linearGradient>
    <linearGradient
       id="linearGradient4057">
      <stop
         style="stop-color:#aa4400;stop-opacity:1;"
         offset="0"
         id="stop4059" />
      <stop
         id="stop4067"
         offset="0.22752622"
         style="stop-color:#ecd1a4;stop-opacity:1;" />
      <stop
         id="stop4065"
         offset="0.50136983"
         style="stop-color:#803300;stop-opacity:1;" />
      <stop
         style="stop-color:#562200;stop-opacity:1;"
         offset="1"
         id="stop4061" />
    </linearGradient>
    <linearGradient
       id="linearGradient3890">
      <stop
         style="stop-color:#701b1b;stop-opacity:1;"
         offset="0"
         id="stop3892" />
      <stop
         style="stop-color:#e31600;stop-opacity:1;"
         offset="1"
         id="stop3894" />
    </linearGradient>
    <linearGradient
       id="linearGradient3882">
      <stop
         style="stop-color:#600b0b;stop-opacity:1;"
         offset="0"
         id="stop3884" />
      <stop
         style="stop-color:#d11414;stop-opacity:1;"
         offset="1"
         id="stop3886" />
    </linearGradient>
    <linearGradient
       id="linearGradient3872">
      <stop
         style="stop-color:#800600;stop-opacity:1;"
         offset="0"
         id="stop3874" />
      <stop
         style="stop-color:#ff0004;stop-opacity:0;"
         offset="1"
         id="stop3876" />
    </linearGradient>
    <filter
       id="filter4074"
       inkscape:label="Black Light"
       inkscape:menu="Color"
       inkscape:menu-tooltip="Light areas turn to black"
       x="0"
       width="1"
       y="0"
       height="1"
       color-interpolation-filters="sRGB">
      <feColorMatrix
         id="feColorMatrix4076"
         type="luminanceToAlpha"
         result="result2" />
      <feComposite
         in2="SourceGraphic"
         id="feComposite4078"
         operator="arithmetic"
         in="result2"
         k3="2"
         result="result4" />
      <feBlend
         in2="result2"
         id="feBlend4080"
         in="result4"
         mode="multiply"
         result="result3" />
      <feComposite
         in2="SourceGraphic"
         id="feComposite4082"
         operator="in"
         in="result3" />
    </filter>
  </defs>
  <sodipodi:namedview
     pagecolor="#000000"
     bordercolor="#666666"
     borderopacity="1"
     objecttolerance="10"
     gridtolerance="10"
     guidetolerance="10"
     inkscape:pageopacity="0"
     inkscape:pageshadow="2"
     inkscape:window-width="1190"
     inkscape:window-height="1126"
     id="namedview8460"
     showgrid="false"
     inkscape:zoom="1"
     inkscape:cx="189.20211"
     inkscape:cy="179.64238"
     inkscape:window-x="160"
     inkscape:window-y="130"
     inkscape:window-maximized="0"
     inkscape:current-layer="svg8438"
     showguides="true"
     inkscape:guide-bbox="true" />
  <path
     style="fill:#000000"
     id="path3978"
     d="M -13.466093,0.1885736 H 514.89024 V 516.42957 H -13.466093 z"
     inkscape:connector-curvature="0" />
  <path
     sodipodi:type="arc"
     style="opacity:0.98999999;fill:#ff0000;fill-opacity:0.74970506;fill-rule:nonzero;stroke:none"
     id="path5005"
     sodipodi:cx="640"
     sodipodi:cy="124.5"
     sodipodi:rx="105"
     sodipodi:ry="118.5"
     d="m 743.4676,104.32865 a 105,118.5 0 0 1 0.002,0.0163 L 640,124.5 z"
     sodipodi:start="6.11213"
     sodipodi:end="6.1122693" />
  <g
     id="g6345"
     transform="translate(26,8)">
    <path
       sodipodi:end="12.394598"
       sodipodi:start="6.11213"
       d="m 233.99579,226.73458 c 4.91922,28.09222 -14.17817,54.79938 -42.6552,59.65213 -28.47704,4.85274 -55.55006,-13.98657 -60.46928,-42.07878 -4.91922,-28.09222 14.17816,-54.79938 42.6552,-59.65213 28.4626,-4.85028 55.52573,13.96782 60.46288,42.0423 l -51.55584,8.82316 z"
       sodipodi:ry="51.618793"
       sodipodi:rx="52.325901"
       sodipodi:cy="235.52126"
       sodipodi:cx="182.43355"
       id="path6343"
       style="opacity:0.98999999;fill:#dfa11e;fill-opacity:1;fill-rule:nonzero;stroke:none"
       sodipodi:type="arc" />
    <path
       style="fill:#98625f"
       d="m 162.44611,457.81084 c -3.35312,-11.58833 -6.90596,-27.77696 -6.90596,-31.46729 0,-2.45487 -2.70976,-13.72349 -6.0217,-25.04139 l -6.0217,-20.57804 -13.87958,-7.57077 c -17.89816,-9.76275 -27.68371,-18.21645 -27.68371,-23.91586 0,-2.64211 3.55243,-8.06289 8.76265,-13.37121 4.81946,-4.91022 9.56708,-10.46333 10.55028,-12.34027 2.3177,-4.42453 -21.638549,-82.70427 -32.499419,-106.19549 -4.208595,-9.10287 -12.077407,-21.95748 -17.486246,-28.5658 -21.145175,-25.83438 -24.456284,-42.5959 -9.679197,-48.9981 5.073239,-2.19799 6.588879,-1.94829 12.996209,2.14115 3.989269,2.54611 6.26279,3.31691 5.052272,1.71288 -1.210518,-1.60403 -4.872046,-8.4347 -8.13673,-15.17926 -7.530042,-15.55644 -7.8035,-24.95895 -0.891286,-30.645997 6.376824,-5.246561 9.140246,-5.208451 17.572248,0.24233 6.40578,4.140957 6.70182,4.169647 5.16527,0.50063 -0.89649,-2.140647 -1.99728,-7.67351 -2.44619,-12.295247 -0.78581,-8.090114 -0.551,-8.519068 6.30303,-11.514492 10.505199,-4.591093 16.402719,-3.855933 24.403409,3.04202 l 7.13705,6.153353 0,-6.153353 c 0,-8.535743 5.91233,-14.169503 14.83756,-14.13847 11.68501,0.04063 20.41891,10.390824 33.77695,40.027686 11.68378,25.92226 18.06808,37.95792 34.42105,64.89044 l 9.61229,15.83093 6.49983,-7.82085 c 17.00374,-20.45957 31.95373,-46.06304 45.46669,-77.866657 10.18451,-23.969901 19.57609,-32.478112 28.84119,-26.128374 4.16056,2.851409 4.61082,2.753988 6.69549,-1.448687 1.22924,-2.478119 5.19415,-8.335491 8.81089,-13.016383 7.58472,-9.816314 12.83429,-10.814115 22.8457,-4.342347 5.45948,3.529234 6.44818,5.315506 6.44818,11.649921 0,4.114857 -1.67492,14.154396 -3.72203,22.310089 -2.04712,8.155693 -3.48394,15.077578 -3.19291,15.381978 0.29103,0.3044 3.45177,-4.164277 7.02391,-9.930391 3.57212,-5.766113 10.55388,-14.888638 15.51501,-20.27228 7.85041,-8.51903 9.71885,-9.614555 14.40746,-8.44761 6.02559,1.499701 13.7277,6.817708 16.47715,11.376808 1.26328,2.094769 0.24797,6.923943 -3.34705,15.919667 -8.36101,20.921606 -8.27739,21.887766 1.0945,12.646006 11.87244,-11.707573 16.04707,-13.652173 22.91774,-10.67544 7.43508,3.221258 10.96171,14.67826 7.83713,25.46047 -1.19689,4.1302 -11.02554,20.35307 -21.84146,36.05083 -28.63773,41.56363 -39.48592,60.04452 -46.29851,78.87375 -3.33143,9.20761 -16.14789,35.53226 -28.48106,58.49919 -12.33318,22.96694 -22.42395,42.21915 -22.42395,42.78268 0,0.56355 5.21126,10.04759 11.5806,21.07563 6.36931,11.02806 11.32315,21.38609 11.00851,23.01785 -0.31465,1.63175 -13.92589,10.38247 -30.24721,19.44603 -29.06492,16.14036 -29.7829,16.69812 -34.91641,27.12504 -2.8827,5.85523 -5.57516,10.99508 -5.98324,11.4219 -0.40808,0.42684 -4.17152,-0.65925 -8.36322,-2.41352 -7.6207,-3.18935 -7.62302,-3.18885 -31.45011,6.75398 -13.10584,5.46896 -28.95299,11.49453 -35.21586,13.39013 -6.26288,1.89563 -12.45671,3.86835 -13.76407,4.38386 -1.30736,0.51551 -2.73001,-0.28263 -3.16144,-1.77365 z m 6.8236,-195.26324 c 1.92564,-1.82277 3.50117,-5.34797 3.50117,-7.83374 0,-3.82876 0.80477,-4.3725 5.26494,-3.55725 14.95871,2.73418 18.87212,1.03183 21.5512,-9.37482 2.29552,-8.91675 0.14601,-14.67441 -4.74543,-12.71112 -1.39599,0.56032 -3.11168,0.0481 -3.81265,-1.13819 -1.81474,-3.07128 0.7727,-10.44159 3.13056,-8.91738 1.13322,0.73257 1.00899,-0.60169 -0.29296,-3.14621 -2.64002,-5.15965 -3.41066,-4.70427 -5.60939,3.31461 -1.27975,4.66732 -0.69397,7.54701 2.74895,13.51391 3.581,6.20617 4.54173,6.90557 5.29234,3.85273 0.7933,-3.22654 0.94706,-3.15178 1.13917,0.55386 0.12215,2.35608 -1.56662,6.41119 -3.75283,9.01134 -2.1862,2.60013 -3.40265,3.55876 -2.70321,2.1303 0.69943,-1.42848 -0.52724,-6.60017 -2.72593,-11.49266 -2.19869,-4.8925 -4.02381,-10.48227 -4.05583,-12.4217 -0.0534,-3.23511 -0.21173,-3.25112 -1.91758,-0.19392 -2.03515,3.64736 -0.60539,9.68407 2.29362,9.68407 1.00247,0 1.29022,0.90113 0.63944,2.00252 -1.89618,3.2091 -4.25961,2.32296 -5.34105,-2.00252 -0.55072,-2.20277 -1.97382,-4.00504 -3.16244,-4.00504 -1.59743,0 -1.60373,1.08937 -0.0241,4.17655 1.17535,2.29709 1.6439,4.69231 1.04123,5.32268 -0.60267,0.63038 -0.19987,2.27523 0.89511,3.65524 1.39762,1.76144 1.30452,2.95282 -0.31242,3.99807 -1.46023,0.94395 -1.80329,0.64273 -0.93724,-0.82297 0.75134,-1.27156 0.52548,-2.31193 -0.5019,-2.31193 -1.02739,0 -2.31224,1.12642 -2.85523,2.50315 -0.54299,1.37673 -0.50752,-0.42329 0.0788,-4.00007 1.0263,-6.26056 -1.66793,-12.52072 -5.38865,-12.52072 -2.47992,0 -2.04118,6.83139 0.61733,9.61209 1.7461,1.82636 1.76317,2.96183 0.0711,4.73164 -1.69203,1.76981 -2.75756,0.92883 -4.44016,-3.50441 -1.27425,-3.35737 -2.60012,-4.74205 -3.12393,-3.26255 -0.50053,1.41376 0.0807,3.81915 1.29163,5.34529 1.70476,2.14852 1.48451,3.1946 -0.97582,4.63475 -2.93275,1.71668 -2.94093,2.33853 -0.10617,8.0723 4.00371,8.09818 3.89374,8.81446 -1.23632,8.05238 -3.49577,-0.5193 -4.18784,-1.70825 -3.67184,-6.30808 0.78308,-6.98067 -4.19814,-13.31562 -9.35998,-11.90372 -5.1535,1.40961 -4.68639,4.61529 0.58741,4.03127 2.77494,-0.30729 4.11347,0.48864 3.76187,2.23692 -0.30019,1.49265 0.45145,3.97077 1.67032,5.50693 1.70427,2.1479 1.63526,2.79299 -0.29875,2.79299 -1.53126,0 -1.06134,1.14993 1.20147,2.9401 4.93329,3.90285 10.28612,3.81224 14.57411,-0.24669 z m 14.08288,-14.79624 c 0.67929,-1.14965 0.31305,-3.25229 -0.81387,-4.67256 -1.51145,-1.9049 -1.32518,-2.58231 0.71005,-2.58231 3.07634,0 5.43801,4.70756 3.77426,7.52329 -0.59205,1.002 -1.938,1.82181 -2.99099,1.82181 -1.05298,0 -1.35874,-0.9406 -0.67945,-2.09023 z m -24.12484,-5.09688 c -1.23306,-1.55401 -3.42873,-2.82549 -4.87928,-2.82549 -1.98198,0 -1.80478,0.91631 0.71305,3.68738 3.82685,4.21174 7.57644,3.43604 4.16623,-0.86189 z m -3.81749,-7.33116 c 7.73441,-10.0023 11.6991,-13.70033 13.46464,-12.55902 1.12415,0.7267 1.46597,2.29937 0.75961,3.49482 -0.76654,1.29729 -0.39321,1.59752 0.92603,0.74471 1.21568,-0.78587 2.21034,-2.72737 2.21034,-4.31445 0,-1.58708 0.95371,-2.88559 2.11935,-2.88559 1.17848,0 1.58399,1.45927 0.91344,3.28702 -1.00832,2.7484 -0.72816,2.87229 1.70969,0.75606 4.29724,-3.73031 3.61412,-8.08224 -1.18102,-7.52389 -2.25315,0.26236 -4.47879,-0.64939 -4.94586,-2.02613 -0.46707,-1.37673 0.13496,-2.50315 1.33784,-2.50315 1.20288,0 1.57233,1.04037 0.821,2.31193 -0.82706,1.39971 -0.52717,1.76963 0.76004,0.93753 2.72572,-1.76202 0.0322,-9.77779 -3.63185,-10.80823 -2.15363,-0.60567 -2.18978,-0.38864 -0.18156,1.09016 1.93292,1.42335 1.39873,2.60619 -2.3316,5.16274 -2.66145,1.824 -4.39673,4.52189 -3.85616,5.99533 0.54056,1.47343 -0.3756,3.85819 -2.03591,5.29946 -2.53755,2.20277 -3.44521,2.0145 -5.69397,-1.18106 -2.53722,-3.60546 -2.74362,-3.61694 -4.00141,-0.22256 -0.82514,2.2268 0.008,5.25312 2.20562,8.01009 1.9425,2.43709 2.30545,3.30466 0.80656,1.92793 -1.4989,-1.37674 -4.49141,-2.44604 -6.65004,-2.37621 -3.57564,0.11554 -3.52213,0.29555 0.60144,2.02254 3.74336,1.56774 4.11673,2.41168 2.15873,4.87936 -1.5491,1.95234 -1.65074,2.98376 -0.29401,2.98376 1.1404,0 2.94448,-1.12642 4.00905,-2.50315 z"
       id="path6334"
       inkscape:connector-curvature="0" />
    <path
       style="fill:#872027"
       d="m 161.47286,450.59426 c -1.03014,-4.1302 -2.9153,-13.36683 -4.18925,-20.52584 -1.27396,-7.15901 -4.84469,-21.32932 -7.93497,-31.48959 l -5.61868,-18.47319 -14.67604,-8.21031 C 99.285361,355.24175 97.860441,351.8242 113.26886,334.03644 c 9.00804,-10.39905 10.9008,-13.7281 9.67765,-17.02143 -0.8363,-2.25171 -6.86684,-21.66614 -13.4012,-43.14318 C 95.444321,227.52496 84.7064,203.44881 70.247995,185.76094 59.727153,172.89014 52.155817,158.59795 52.155817,151.60888 c 0,-1.98283 2.355627,-5.54324 5.234728,-7.91203 6.241354,-5.1351 14.267251,-4.22023 20.997946,2.39356 6.049958,5.94487 5.51997,3.29455 -2.038754,-10.19522 -12.673834,-22.61852 -13.441513,-32.5593 -3.012039,-39.003306 l 6.023305,-3.72159 8.674468,6.395359 c 6.4946,4.788217 8.31312,5.476897 7.23653,2.740497 -2.7784,-7.061921 -4.69781,-17.705596 -3.76723,-20.890428 0.51713,-1.769867 4.42952,-4.651564 8.694189,-6.403772 8.88898,-3.652172 13.35082,-2.526333 24.25338,6.119767 5.48486,4.34967 6.66273,4.735884 5.61446,1.840931 -2.18126,-6.023866 0.68098,-13.307205 6.45735,-16.431577 7.97255,-4.312251 11.03786,-3.690627 20.09958,4.07605 6.28071,5.383119 10.3184,11.773122 17.39848,27.534652 18.87718,42.024027 43.26454,85.606647 47.90258,85.606647 5.27733,0 44.9597,-61.34756 47.86637,-73.99973 2.02072,-8.79588 11.45585,-26.900925 17.09,-32.794046 5.30816,-5.552126 6.83497,-5.767795 17.03466,-2.406218 2.96922,0.978583 4.60485,-0.221716 7.28393,-5.345262 7.50824,-14.359012 12.08695,-18.491201 19.88098,-17.942176 4.28949,0.30216 9.08036,2.308592 11.75085,4.921292 3.98062,3.894514 4.36435,5.583802 3.27635,14.423742 -0.67778,5.506931 -2.9223,15.781837 -4.98784,22.833125 -2.06552,7.051283 -3.46443,13.124973 -3.10867,13.497083 0.35576,0.37211 5.02526,-5.84769 10.37669,-13.821781 18.64306,-27.779776 25.28034,-31.85445 38.33091,-23.531635 7.92102,5.05151 8.0025,9.883175 0.47863,28.376679 -3.15897,7.764657 -5.74358,14.551757 -5.74358,15.082447 0,0.53069 5.24456,-3.61877 11.65458,-9.22102 6.41,-5.602247 13.35892,-10.185914 15.44206,-10.185914 5.94998,0 11.62036,3.959177 10.40701,7.266404 -0.67813,1.84841 -0.28203,2.4359 1.05821,1.56952 1.52002,-0.98261 1.90429,2.05309 1.32332,10.45412 -0.78131,11.29786 -1.60527,12.93482 -18.03199,35.82417 -9.4673,13.19193 -21.43301,31.19441 -26.59047,40.0055 -5.15746,8.81109 -11.38099,18.8228 -13.83008,22.24824 -2.44908,3.42544 -6.58788,12.79382 -9.19736,20.8186 -2.60948,8.0248 -9.61815,23.69543 -15.57487,34.82361 -5.9567,11.12817 -16.65292,31.21713 -23.76938,44.64215 l -12.93905,24.40908 12.26341,21.35654 c 6.74487,11.7461 12.2634,21.9596 12.2634,22.69666 0,0.73707 -8.39998,5.82472 -18.66662,11.30589 -38.50714,20.55828 -43.48152,24.17843 -48.18704,35.06874 -4.62811,10.71114 -7.81009,12.1248 -15.16422,6.73702 -4.14296,-3.03522 -5.4568,-2.72601 -24.83619,5.84494 -27.70816,12.2545 -37.8996,15.97779 -40.88528,14.93684 -1.38416,-0.48261 -3.66281,0.32138 -5.06366,1.7866 -4.90705,5.1326 -9.6612,3.15648 -11.65699,-4.84537 z m 6.82421,-185.68705 c 2.21996,-1.62639 4.58859,-5.25876 5.26363,-8.07194 1.15145,-4.79864 1.7864,-5.04599 10.27001,-4.00091 11.37007,1.40064 15.70159,-1.827 17.10142,-12.7432 0.76944,-6.00027 0.19443,-8.93715 -2.25047,-11.49443 -2.50812,-2.6234 -3.6323,-2.84542 -4.75832,-0.93973 -1.11149,1.88108 -1.76236,1.71016 -2.64455,-0.69446 -0.72177,-1.96735 0.27663,-4.13475 2.60535,-5.65591 2.07656,-1.35643 3.77556,-3.2038 3.77556,-4.10525 0,-0.90145 -0.76359,-1.14539 -1.69687,-0.54208 -0.93327,0.6033 -2.14492,-0.69521 -2.69254,-2.8856 -0.54763,-2.19038 -1.98873,-3.98252 -3.20244,-3.98252 -1.21372,0 -1.71109,0.83887 -1.10527,1.86415 0.60581,1.02529 0.26352,2.40585 -0.76066,3.06791 -1.02418,0.66207 -1.37682,2.52661 -0.78366,4.14342 0.67775,1.84736 -0.087,2.93965 -2.05823,2.93965 -1.72519,0 -3.63261,1.3517 -4.23871,3.00378 -0.60611,1.65208 -2.83199,3.00378 -4.94642,3.00378 -3.64601,0 -3.68484,0.25472 -0.75243,4.93585 3.59079,5.73209 3.81485,7.07927 1.17745,7.07927 -1.05298,0 -1.91452,-1.24136 -1.91452,-2.75859 0,-1.51721 -1.28282,-3.87216 -2.85071,-5.23319 -3.37174,-2.92692 -2.08443,-6.02586 2.50317,-6.02586 4.63632,0 8.80937,-7.31188 5.38258,-9.4312 -1.40748,-0.87047 -3.38538,-4.22975 -4.39533,-7.46507 -1.00996,-3.23532 -2.99665,-6.28697 -4.41487,-6.78143 -1.72557,-0.60163 -2.18457,0.17492 -1.38752,2.34744 0.75743,2.06457 -0.177,4.01229 -2.56671,5.35 -2.06677,1.15694 -3.75776,3.7239 -3.75776,5.70436 0,5.266 -1.82849,6.34238 -6.20012,3.64985 -3.06086,-1.88522 -4.06198,-1.83696 -4.77525,0.23021 -0.49636,1.43852 -2.58664,4.25665 -4.64507,6.26251 -3.69549,3.60111 -3.67998,3.66345 1.23277,4.95315 4.49659,1.18045 4.68944,1.60518 2.00408,4.41398 -2.68536,2.80877 -2.56828,3.44918 1.2167,6.65493 l 4.18798,3.54709 -5.85645,-0.89905 c -6.29379,-0.96618 -10.46274,2.80889 -6.16794,5.58523 1.40086,0.90558 3.1424,1.26162 3.8701,0.79121 0.72769,-0.47041 1.91286,1.6166 2.63372,4.6378 2.72179,11.4073 9.80919,15.25131 17.5983,9.54485 z m -10.37726,-10.17959 c -1.71282,-5.83739 -1.63599,-6.73339 0.42403,-4.94514 2.74138,2.37971 5.14659,12.07423 2.99562,12.07423 -0.7303,0 -2.26914,-3.2081 -3.41965,-7.12909 z m 7.30285,-15.45876 c -2.43293,-4.07478 -2.70344,-4.12513 -3.84674,-0.71604 -1.01201,3.01762 -1.61105,3.18645 -3.38282,0.95348 -1.65946,-2.09141 -0.90447,-4.31363 3.29328,-9.69332 5.70054,-7.30561 9.74609,-7.44881 5.41304,-0.19164 -2.06726,3.46236 -2.06726,4.93774 0,8.40009 1.37924,2.31003 2.20002,4.52187 1.82395,4.91523 -0.37606,0.39336 -1.86139,-1.25716 -3.30071,-3.66784 z m 22.30408,-6.88771 c -1.88767,-3.88651 -2.96459,-7.55542 -2.39316,-8.15311 0.57143,-0.5977 1.03897,-0.0998 1.03897,1.10652 0,1.20628 1.35521,3.61073 3.01158,5.34323 1.65637,1.7325 2.73329,4.41446 2.39316,5.95988 -0.34619,1.57294 -2.12928,-0.30082 -4.05055,-4.25652 z m -68.19067,-96.34728 c -1.03255,-2.01801 -3.38208,-4.9467 -5.22118,-6.5082 -2.91595,-2.4758 -3.13705,-2.45472 -1.72785,0.1647 1.97775,3.67623 7.10279,10.0126 8.09849,10.0126 0.40034,0 -0.11692,-1.6511 -1.14946,-3.6691 z"
       id="path6332"
       inkscape:connector-curvature="0" />
    <path
       style="fill:#670e15"
       d="m 162.07757,452.59678 c -0.6565,-3.02882 -2.47438,-10.90971 -4.03975,-17.51309 -1.56536,-6.60339 -2.38797,-14.95906 -1.82803,-18.56819 0.55994,-3.60912 0.28514,-6.08822 -0.61068,-5.50913 -1.34867,0.87184 -7.01475,-15.63938 -12.52825,-36.50789 -0.65473,-2.47812 -2.0242,-4.50567 -3.04328,-4.50567 -1.12869,0 -1.05193,1.56535 0.19637,4.00504 1.12709,2.20277 1.49338,4.00504 0.81399,4.00504 -2.77259,0 -23.62784,-12.62897 -30.17046,-18.26983 -8.01176,-6.90749 -8.95636,-9.83452 -2.71182,-8.403 3.17591,0.72804 3.61448,0.47454 1.66925,-0.96485 -1.45395,-1.07588 -1.99485,-3.04155 -1.20485,-4.37853 1.11425,-1.88578 0.42258,-1.88105 -3.10514,0.0212 -3.33574,1.79873 -2.55812,0.28647 2.93388,-5.70556 4.10993,-4.48414 7.98685,-7.97367 8.61536,-7.75454 0.62852,0.21914 1.4431,-0.50271 1.81019,-1.6041 0.36708,-1.10138 1.5793,-3.78468 2.69381,-5.9629 2.01878,-3.94549 2.03188,-3.94549 3.48442,0 1.11286,3.02286 1.3816,2.4659 1.13523,-2.3527 -0.17754,-3.47219 -0.92874,-5.92312 -1.66934,-5.44652 -1.94073,1.249 -5.78285,-14.93157 -4.1869,-17.63255 0.78793,-1.33352 0.48604,-1.7145 -0.73374,-0.92598 -2.19873,1.42135 -5.41486,-6.19088 -3.47353,-8.22143 0.62633,-0.65513 0.003,-3.06534 -1.38562,-5.35602 -3.15363,-5.20303 -11.51572,-31.21269 -10.40752,-32.37182 0.44982,-0.4705 1.85202,2.7549 3.11598,7.16754 1.26397,4.41265 3.07398,8.02299 4.02226,8.02299 0.94827,0 0.48823,-2.47812 -1.02232,-5.50693 -1.51055,-3.02881 -2.75176,-7.53448 -2.75825,-10.0126 -0.007,-2.47812 -1.16581,-4.50567 -2.57627,-4.50567 -2.59349,0 -7.080779,-8.17485 -6.921799,-12.60997 0.0475,-1.32491 1.19104,0.29447 2.541219,3.59863 l 2.45486,6.00756 2.31246,-4.50567 c 1.27185,-2.47816 1.56619,-4.50571 0.65408,-4.50571 -0.9121,0 -2.81106,-2.25284 -4.21992,-5.0063 -2.914619,-5.69633 -6.216439,-6.80605 -4.468659,-1.50189 0.93786,2.8462 0.57842,2.75218 -1.91372,-0.50063 -1.68766,-2.20278 -3.08267,-4.90618 -3.10004,-6.00756 -0.0174,-1.10139 0.80358,-0.65082 1.82432,1.00126 1.23726,2.00252 1.86566,2.16939 1.88521,0.50063 0.0494,-4.22255 -0.72279,-5.52903 -2.9517,-4.99366 -2.70714,0.65024 -7.069026,-9.09908 -5.36286,-11.9866 0.81829,-1.38487 0.36604,-1.57273 -1.25829,-0.5227 -1.831162,1.18374 -2.202553,0.73113 -1.336688,-1.62898 0.65945,-1.79749 0.241976,-3.88682 -0.92772,-4.64295 -1.353496,-0.87496 -1.638898,-0.35222 -0.784984,1.43776 0.737958,1.5469 -0.205847,0.60163 -2.097344,-2.1006 -1.891497,-2.70224 -6.957023,-9.23093 -11.256726,-14.50822 -9.485333,-11.64191 -11.237939,-20.68923 -2.384364,-12.30859 4.311218,4.08093 4.670626,2.20018 0.427645,-2.23782 -1.690439,-1.76813 -4.543179,-2.7269 -6.339422,-2.13059 -5.60526,1.86081 -12.937612,-18.66505 -7.843889,-21.95784 1.131054,-0.73115 1.61853,1.20372 1.215482,4.82446 -0.83017,7.45775 0.455856,9.03132 4.398837,5.38237 1.664936,-1.54078 4.750227,-3.24048 6.856205,-3.77712 3.813978,-0.97186 3.813907,-0.97661 -0.01819,-1.20799 -5.278215,-0.31871 -9.961502,-8.07524 -6.38057,-10.56761 3.704912,-2.57865 13.210566,-0.26629 17.91717,4.35856 5.963862,5.86027 7.513327,4.83077 2.908908,-1.93274 -7.348135,-10.79382 -13.276258,-26.78717 -12.139605,-32.75118 1.02294,-5.36736 1.318537,-5.1008 6.661874,6.00756 7.558249,15.71297 10.514656,18.73555 10.514656,10.75002 0,-4.94016 -0.493065,-5.64311 -2.646815,-3.7735 -2.163317,1.87791 -2.481789,1.34573 -1.743412,-2.91333 0.678758,-3.91517 0.226086,-4.9391 -1.820409,-4.11769 -3.313198,1.32982 -3.451078,-0.17404 -0.473226,-5.1615 1.867956,-3.12854 2.681694,-3.31847 4.786312,-1.11712 1.394739,1.45875 2.535815,3.61777 2.535815,4.79783 0,1.18006 1.29231,2.14556 2.87179,2.14556 1.59544,0 2.87179,1.78002 2.87179,4.00504 0,2.20277 0.86153,4.00504 1.91452,4.00504 2.80491,0 2.35952,-2.21582 -1.92168,-9.56037 -2.10204,-3.60613 -3.82189,-7.43595 -3.82189,-8.51072 0,-1.07476 -1.79487,-3.83148 -3.988598,-6.12603 -6.051895,-6.330052 -2.741973,-7.103453 4.766008,-1.11364 8.47708,6.76297 9.5699,6.65361 5.98429,-0.598887 -3.33535,-6.746304 -3.20731,-16.143279 0.21995,-16.143279 1.27461,0 3.67131,1.416068 5.325999,3.146819 4.10409,4.292716 3.82308,1.145181 -0.34187,-3.829328 -2.948059,-3.52108 -2.974089,-3.858618 -0.2167,-2.810654 2.43006,0.923563 2.93014,0.212912 2.22708,-3.164853 -0.52311,-2.513197 -0.22897,-3.489155 0.69532,-2.307071 4.13575,5.289243 12.39331,8.97403 17.85519,7.967557 3.28767,-0.605826 5.76382,-0.189556 5.76382,0.96897 0,1.117094 0.91569,2.03108 2.03487,2.03108 1.11918,0 1.76533,-2.027552 1.43589,-4.50567 -0.40544,-3.049849 0.27899,-4.307406 2.11826,-3.892051 2.2637,0.511203 2.29806,0.08533 0.20581,-2.551543 -1.38128,-1.740839 -1.95788,-3.744143 -1.28134,-4.451785 0.67655,-0.707641 1.23009,-0.46058 1.23009,0.549023 0,1.009604 3.0249,1.835644 6.722,1.835644 4.39563,0 6.4206,-0.82152 5.85112,-2.373772 -0.47898,-1.305575 0.15765,-2.811418 1.41473,-3.346317 1.25709,-0.534899 0.41894,-1.043688 -1.86253,-1.130639 -2.28148,-0.08695 -4.6507,0.968324 -5.26494,2.345057 -0.67686,1.517062 -0.86541,1.319843 -0.47864,-0.50063 0.3521,-1.657258 2.71225,-3.00378 5.26495,-3.00378 3.53005,0 4.47297,0.923814 3.97794,3.897351 -0.55614,3.340582 -0.21749,3.522922 2.3705,1.276358 2.52134,-2.188705 3.21012,-2.100944 4.17611,0.53209 0.63623,1.734194 2.64514,3.64718 4.46424,4.251078 4.33554,1.43929 11.8028,16.187562 10.4418,20.62315 -0.78101,2.545375 -0.58634,2.769225 0.73477,0.844912 1.68881,-2.45989 2.78739,-0.474582 13.63783,24.64563 0.57665,1.33501 -0.0666,1.33501 -1.92976,0 -2.00281,-1.43508 -1.95344,-1.15136 0.1742,1.00126 1.63292,1.65208 8.05839,12.01512 14.27882,23.02898 6.22043,11.01386 13.80214,23.8626 16.84822,28.55275 3.04609,4.69015 5.01644,9.41078 4.3786,10.49029 -1.53702,2.60125 4.84957,0.19262 8.7671,-3.30642 1.66493,-1.48708 3.64894,-2.05342 4.40887,-1.25855 0.75995,0.79487 0.86621,0.0401 0.23614,-1.67732 -0.65406,-1.78283 0.32929,-4.33416 2.29197,-5.94652 3.13463,-2.57514 3.206,-2.51518 0.80998,0.68043 -3.75421,5.00699 -1.53911,4.34087 2.80947,-0.84485 2.00594,-2.3921 2.57023,-3.69062 1.25399,-2.8856 -3.87971,2.37284 -2.76808,-0.69974 3.07415,-8.49713 3.00701,-4.01335 7.77634,-11.16005 10.59847,-15.88156 2.82214,-4.7215 5.95197,-8.05395 6.95518,-7.40544 1.00321,0.64851 1.3587,-0.0892 0.79001,-1.63929 -0.56871,-1.55013 0.69823,-5.88925 2.81538,-9.64249 2.11716,-3.75325 6.43386,-13.37959 9.59267,-21.39188 7.30499,-18.528934 13.10548,-27.314607 16.23827,-24.595121 1.26826,1.100936 4.04149,1.526976 6.16276,0.946758 2.7395,-0.749321 4.46745,0.290195 5.96459,3.588218 2.07261,4.565734 2.13035,4.534633 3.46232,-1.865031 0.74502,-3.579505 2.12974,-6.508191 3.07716,-6.508191 0.94742,0 2.61227,-2.447585 3.69967,-5.439078 1.61603,-4.445852 2.32949,-4.902949 3.90706,-2.50315 1.52366,2.317767 1.71854,2.092663 0.9256,-1.069114 -2.81759,-11.23493 17.22548,-19.645645 26.13253,-10.966052 5.36565,5.228621 5.2754,14.841027 -0.33762,35.957308 -4.56326,17.167083 -4.66577,18.062933 -2.06701,18.062933 1.05299,0 1.69914,-0.75942 1.43589,-1.68759 -0.93653,-3.30209 12.23472,-22.403693 14.50892,-21.041564 1.23374,0.738946 1.62733,0.630013 0.87463,-0.242075 -2.02359,-2.344591 2.16443,-9.409789 4.6322,-7.814519 1.19355,0.771559 1.57778,0.458765 0.88229,-0.718274 -1.5672,-2.652314 3.64665,-7.312103 6.27814,-5.610996 1.22183,0.789834 1.49243,-0.04167 0.70876,-2.177779 -0.98238,-2.677678 -0.52412,-3.156985 2.03589,-2.129464 1.96587,0.789047 2.82995,0.524384 2.13391,-0.653605 -1.67891,-2.841394 3.87228,-2.438717 11.33364,0.822127 5.49874,2.403123 6.30334,3.61391 5.65554,8.510711 -0.65721,4.968203 -0.50068,5.18931 1.2064,1.703961 1.56687,-3.199066 1.75467,-2.534402 0.93318,3.302839 -0.97482,6.927002 -3.53228,13.985939 -9.44935,26.081458 -3.46688,7.08692 -1.31583,8.95761 3.62929,3.15626 6.39055,-7.49703 19.55151,-17.521654 23.00357,-17.521654 5.3292,0 10.97997,4.105427 9.85844,7.162394 -0.5751,1.56761 -0.21115,2.8502 0.80878,2.8502 2.47127,0 2.36631,12.34874 -0.16408,19.31017 -3.21261,8.83817 -26.86015,40.89783 -29.09909,39.45049 -1.18078,-0.7633 -1.4559,-0.35017 -0.66179,0.99376 0.7475,1.26508 -0.68709,5.23413 -3.18797,8.82012 -2.50095,3.58599 -9.2126,14.4049 -14.91484,24.04203 -5.70226,9.63713 -11.02684,17.52205 -11.83242,17.52205 -0.80557,0 -1.46468,1.40489 -1.46468,3.12197 0,1.84992 -0.9006,2.53978 -2.21034,1.69311 -1.38531,-0.89552 -1.68999,-0.54821 -0.81626,0.9305 3.144,5.32089 -15.10707,48.49793 -18.95502,44.84241 -0.88361,-0.83943 -1.01225,-0.44283 -0.28584,0.88133 0.72639,1.32419 -4.60232,13.4895 -11.8416,27.03403 -7.23928,13.54454 -15.4062,28.85804 -18.1487,34.02999 l -4.98638,9.40353 11.23983,19.65816 c 11.86944,20.75941 13.37933,24.09105 11.06423,24.41391 -0.78974,0.11014 -3.22557,2.07219 -5.41297,4.36013 -2.18739,2.28792 -5.24753,3.64995 -6.80028,3.02671 -1.68451,-0.67611 -2.31951,-0.28071 -1.57437,0.98037 0.74178,1.25538 -0.18954,1.85586 -2.29372,1.47894 -1.94839,-0.349 -3.39816,0.26902 -3.22172,1.37337 0.17652,1.10437 -3.13548,3.55181 -7.35982,5.43879 -6.90107,3.08262 -7.41943,3.10024 -5.10713,0.17342 2.33316,-2.95314 2.17933,-3.0006 -1.6471,-0.50828 -2.32134,1.51198 -3.83451,3.1529 -3.3626,3.64651 1.64598,1.72164 -6.80006,6.48362 -8.98942,5.06831 -1.21735,-0.78693 -1.69179,-0.55473 -1.05802,0.51784 1.53306,2.59454 -9.53179,9.30995 -12.34422,7.49189 -1.36563,-0.8828 -1.68586,-0.54531 -0.84035,0.88561 0.75134,1.27164 0.34416,2.31201 -0.90482,2.31201 -3.53626,0 -30.50202,14.19252 -30.50202,16.05371 0,2.47755 -12.9803,6.48277 -15.57458,4.80572 -1.29129,-0.83475 -1.73919,-0.59234 -1.05261,0.56964 0.68144,1.15327 -6.55766,5.29993 -16.84148,9.64706 -15.4618,6.53593 -18.48121,7.23845 -21.15081,4.92104 -2.83712,-2.46282 -2.72791,-3.00807 1.2277,-6.12892 l 4.34186,-3.42561 -4.84344,0.96844 c -4.36886,0.87354 -5.03856,0.11775 -6.83478,-7.71439 l -1.99134,-8.68283 -0.22992,8.57355 c -0.14876,5.54686 -1.22931,8.9747 -3.06082,9.70982 -2.9214,1.17258 -2.98448,7.45853 -0.10235,10.20094 0.89795,0.85442 1.01289,0.42708 0.25543,-0.94965 -0.75746,-1.37674 -0.46482,-2.50315 0.65031,-2.50315 1.11513,0 2.02752,1.3517 2.02752,3.00378 0,5.27047 -5.62383,3.21967 -6.86426,-2.50315 z m -7.01605,-51.71509 c 0,-3.08845 -0.69702,-4.42743 -1.73797,-3.33864 -0.95589,0.99981 -1.18679,3.32024 -0.51312,5.15649 1.69901,4.63102 2.25109,4.18518 2.25109,-1.81785 z m 0.44932,-26.38321 c -0.0161,-0.82604 -0.86447,-2.85359 -1.88521,-4.50567 -1.50075,-2.42898 -1.8615,-2.14157 -1.88521,1.50189 -0.0161,2.47812 0.83222,4.50567 1.88521,4.50567 1.05299,0 1.90133,-0.67585 1.88521,-1.50189 z m -10.50057,-26.53339 c -0.71879,-2.36878 -1.73765,-3.8563 -2.26414,-3.3056 -0.5265,0.55069 -0.36917,2.93934 0.34961,5.30812 0.71879,2.36878 1.73765,3.85629 2.26414,3.3056 0.5265,-0.55069 0.36917,-2.93934 -0.34961,-5.30812 z m -28.64445,-4.70252 c -2.33727,-1.78761 -2.98369,-3.64849 -1.91293,-5.50693 1.38012,-2.39534 1.13916,-2.40122 -1.64327,-0.0401 -3.06596,2.60167 -3.05933,2.92648 0.11112,5.44325 1.85441,1.47205 4.18247,2.7051 5.17347,2.74015 0.991,0.035 0.21322,-1.15131 -1.72839,-2.63632 z m 14.35209,-7.18248 c -1.187,-2.31986 -1.56118,-5.32572 -0.83151,-6.67971 0.97776,-1.81432 0.72519,-1.88357 -0.96038,-0.26325 -1.77262,1.70401 -1.76584,3.39503 0.0301,7.51792 1.27445,2.92567 2.6778,4.9422 3.11856,4.48118 0.44076,-0.46102 -0.1698,-2.73628 -1.35679,-5.05614 z m 3.76247,-16.36586 c 0,-0.85281 -0.86154,-2.10751 -1.91452,-2.78821 -1.05299,-0.68069 -1.91453,-3.88785 -1.91453,-7.12701 0,-3.23915 -0.86154,-5.88937 -1.91452,-5.88937 -1.05299,0 -1.91453,-1.61173 -1.91453,-3.58163 0,-1.9699 -1.72307,-7.11665 -3.82905,-11.43727 -2.10598,-4.32062 -3.82905,-9.01681 -3.82905,-10.43602 0,-1.4192 -0.96202,-2.58036 -2.13782,-2.58036 -1.19573,0 -1.69625,-1.76615 -1.1358,-4.00781 0.5511,-2.20429 0.22081,-3.50281 -0.73397,-2.88559 -0.95479,0.61722 -1.73598,3.82559 -1.73598,7.12975 0,3.30416 0.78818,5.49806 1.7515,4.87532 1.34608,-0.87016 7.86824,12.95945 8.92216,18.91857 0.0974,0.55069 1.2658,3.70466 2.59647,7.00882 1.33066,3.30416 2.55077,7.88486 2.71136,10.17935 0.2649,3.78509 5.07828,6.26979 5.07828,2.62146 z m 18.18799,-53.85248 c -0.65079,-1.10138 -0.32171,-2.00252 0.73128,-2.00252 1.05299,0 2.43678,0.88388 3.0751,1.96416 0.91653,1.55115 10.32411,1.6728 18.37019,0.23757 0.61425,-0.10953 1.11681,-1.67014 1.11681,-3.46794 0,-3.02331 -0.17158,-3.02331 -2.28513,0 -3.83487,5.48554 -4.43637,3.65756 -1.23067,-3.74009 3.31232,-7.64368 8.48754,-9.19926 11.65872,-3.50441 1.08301,1.94487 1.97735,2.39045 2.00966,1.00126 0.032,-1.37673 1.61884,-2.50315 3.52626,-2.50315 5.05512,0 11.84816,-7.41365 11.84816,-12.93061 0,-2.62048 0.44097,-5.96647 0.97993,-7.43556 1.33591,-3.64132 -6.70513,-8.93784 -8.62818,-5.68326 -1.00105,1.69418 -1.70141,1.51029 -2.49591,-0.65529 -0.65017,-1.77221 0.54284,-4.15427 2.9007,-5.79179 3.93066,-2.72982 3.93832,-2.86307 0.41247,-7.17022 -3.57969,-4.37293 -7.86326,-6.19382 -5.61342,-2.3862 0.65078,1.10139 0.23309,2.00252 -0.9282,2.00252 -1.1613,0 -1.85829,1.47463 -1.54889,3.27695 0.31984,1.86306 -0.87211,3.51296 -2.76257,3.82397 -2.68497,0.44171 -2.95958,-0.16742 -1.42638,-3.16388 1.57298,-3.07423 1.27195,-3.58465 -1.7546,-2.975 -2.39315,0.48206 -3.99547,-0.63254 -4.6452,-3.23129 -0.85508,-3.42012 -0.57338,-3.60623 2.04276,-1.3496 2.6998,2.32879 2.7827,2.12309 0.75137,-1.86443 -1.25577,-2.46512 -4.46359,-5.05441 -7.12847,-5.754 -3.16271,-0.83027 -4.48079,-2.26537 -3.79572,-4.13269 0.66696,-1.81795 0.18518,-2.40371 -1.3217,-1.60695 -1.30417,0.68957 -0.69887,-0.16477 1.34512,-1.89852 2.04398,-1.73375 5.05936,-3.16608 6.70083,-3.18294 2.63173,-0.027 2.64505,-0.27925 0.11271,-2.1337 -2.21622,-1.62296 -1.83672,-1.79655 1.66241,-0.76046 3.33737,0.9882 4.30915,0.6264 3.68161,-1.37071 -0.97736,-3.11035 -11.20275,-4.6211 -18.43213,-2.72325 -3.86986,1.01592 -4.31735,1.67207 -2.12824,3.12066 1.52457,1.00885 2.05552,1.84807 1.1799,1.86494 -0.87562,0.0168 0.2635,3.17098 2.53138,7.00914 4.31473,7.30226 3.97137,12.78892 -1.07447,17.16906 -2.48125,2.15391 -2.59783,1.76403 -0.88312,-2.9533 1.08653,-2.98914 1.9749,-5.60142 1.97416,-5.80507 -7.4e-4,-0.20365 -2.14888,-0.49985 -4.77364,-0.65823 -2.93496,-0.1771 -4.28771,0.53214 -3.51363,1.84219 0.8205,1.38863 -0.017,1.62185 -2.40583,0.66996 -2.90228,-1.15649 -3.17619,-0.94562 -1.31688,1.01381 2.92803,3.0857 -0.238,7.77586 -5.24898,7.77586 -1.86439,0 -3.8857,1.35171 -4.4918,3.00378 -0.60611,1.65208 -0.26752,3.00379 0.75243,3.00379 1.01994,0 1.85443,3.18567 1.85443,7.07927 0,6.37854 0.36656,6.87409 3.70319,5.0063 5.42413,-3.03633 6.58442,-2.53473 2.94422,1.27278 -2.98862,3.12597 -2.91972,3.56587 1.049,6.69707 l 4.24772,3.35134 -5.74534,-0.88202 c -6.19265,-0.95065 -10.30694,2.85486 -6.05684,5.6023 1.40086,0.90558 3.23431,1.20221 4.07432,0.65919 0.84002,-0.54303 1.635,1.76926 1.76662,5.13842 0.13163,3.36916 0.4547,7.02689 0.71795,8.12827 0.26325,1.10139 0.58632,2.45309 0.71795,3.00378 0.13162,0.5507 0.72093,1.00126 1.30957,1.00126 0.58863,0 0.53779,-0.90113 -0.113,-2.00252 z m 5.25144,-11.13413 c -1.8047,-6.15052 -1.71105,-6.79854 0.68231,-4.72094 1.52577,1.32449 2.35286,2.84878 1.83797,3.38734 -0.51489,0.53856 -0.0746,2.66299 0.97836,4.72094 1.05299,2.05797 1.16722,3.74175 0.25386,3.74175 -0.91337,0 -2.60199,-3.2081 -3.7525,-7.12909 z m 5.42959,-20.52375 c -0.0831,-1.44174 -1.00282,-2.07077 -2.04374,-1.39788 -1.09243,0.70619 -1.40192,-0.11394 -0.73202,-1.93996 0.63831,-1.73989 2.8475,-4.10773 4.9093,-5.26189 3.26545,-1.82794 3.51658,-1.62715 1.94798,1.55752 -0.9904,2.0108 -2.2799,5.00769 -2.86555,6.65977 -0.72696,2.05068 -1.11278,2.17203 -1.21597,0.38244 z m 8.06062,-3.29385 c -1.88503,-2.2436 -1.24681,-3.1497 3.41598,-4.84987 3.43232,-1.25151 5.27816,-1.31916 4.59829,-0.16853 -0.6247,1.05723 -2.35024,1.92225 -3.83453,1.92225 -1.61229,0 -2.25507,1.20924 -1.5967,3.00378 1.35523,3.69401 0.4696,3.72569 -2.58304,0.0923 z m -23.39924,-7.10119 c -0.004,-1.65208 1.25795,-4.753 2.80395,-6.89094 3.57661,-4.94603 3.53609,-1.69304 -0.0609,4.88842 -1.58683,2.90345 -2.73902,3.74459 -2.74306,2.00252 z m -46.25598,-21.703 c -1.16074,-3.48276 -2.959489,-6.33229 -3.997219,-6.33229 -1.03773,0 -1.57196,0.67585 -1.18718,1.50189 6.482009,13.91534 8.991539,16.2535 5.184399,4.8304 z m 49.9563,-1.32599 c 0,-1.65208 -0.32527,-3.00378 -0.72284,-3.00378 -0.39756,0 -1.79535,1.3517 -3.10621,3.00378 -1.95199,2.46011 -1.82116,3.00378 0.72284,3.00378 1.70842,0 3.10621,-1.3517 3.10621,-3.00378 z m 50.46999,-10.0126 c -0.60611,-1.65208 -2.30214,-3.00378 -3.76896,-3.00378 -1.46683,0 -2.66696,1.3517 -2.66696,3.00378 0,1.6528 1.69513,3.00378 3.76896,3.00378 2.56363,0 3.41654,-0.96063 2.66696,-3.00378 z m -133.68871,-12.57643 -5.477415,-5.44625 4.62168,6.24429 c 2.541926,3.43436 5.006762,5.88517 5.477417,5.44625 0.470653,-0.43893 -1.609103,-3.24886 -4.621682,-6.24429 z m 43.42852,-16.82724 c -2.92446,-3.05888 -5.08237,-0.80178 -3.46036,3.6194 0.95771,2.61045 1.788,2.86911 3.49121,1.08762 1.70321,-1.78149 1.69587,-2.90094 -0.0309,-4.70702 z m -17.645539,-21.6606 c -1.12708,-2.20277 -2.88047,-4.00504 -3.89641,-4.00504 -2.49775,0 -2.32284,1.60645 0.54599,5.01465 3.55776,4.22665 5.69942,3.58128 3.35042,-1.00961 z M 176.7806,128.23955 c -1.63014,-2.92907 -1.98902,-2.29126 -2.03698,3.62022 -0.032,3.94663 0.58793,7.8629 1.37767,8.70283 2.27508,2.41963 2.85296,-8.38147 0.65931,-12.32305 z m -58.86416,4.65449 c -4.10313,-5.89087 -5.5795,-6.35423 -7.09389,-2.22643 -0.63174,1.72197 -0.11209,2.77857 1.23106,2.50315 1.27835,-0.26214 2.08753,0.71679 1.79819,2.17539 -0.28933,1.4586 0.29729,2.11975 1.30361,1.46922 1.00632,-0.65052 2.40624,-0.20698 3.11093,0.98565 0.7047,1.19262 1.71043,1.71952 2.23496,1.17088 0.52454,-0.54864 -0.63865,-3.28368 -2.58486,-6.07786 z m 25.3426,-6.48445 c -0.94318,-2.57085 -1.71008,-2.70543 -4.015,-0.70459 -1.97856,1.71752 -2.84913,1.78644 -2.84913,0.22553 0,-1.23625 0.86153,-2.24772 1.91452,-2.24772 1.05299,0 1.91452,-0.83677 1.91452,-1.85948 0,-2.72242 -6.00214,-8.55018 -7.35194,-7.13834 -0.63389,0.66303 0.11484,2.13581 1.66381,3.27285 2.20576,1.61914 1.88243,1.85326 -1.49133,1.07985 -3.29098,-0.75442 -4.30768,-0.0865 -4.30768,2.83007 0,2.09966 0.86153,3.81757 1.91452,3.81757 1.05299,0 1.91453,1.02707 1.91453,2.28239 0,1.25531 1.45893,3.39822 3.24208,4.76201 2.60921,1.9956 3.76669,1.93092 5.92953,-0.33132 1.47809,-1.54603 2.1628,-4.241 1.52157,-5.98882 z M 281.89879,97.865613 c 0,-0.852817 -1.29231,-1.550581 -2.87179,-1.550581 -3.00086,0 -3.73694,1.765101 -1.64749,3.950598 1.43021,1.49594 4.51928,-0.14455 4.51928,-2.400017 z M 122.14346,90.968459 c 0.50856,-2.933444 0.18986,-5.333535 -0.70822,-5.333535 -0.89809,0 -1.71407,1.126418 -1.81329,2.503151 -0.0992,1.376732 -0.79079,4.755986 -1.53681,7.509451 -1.02315,3.776297 -0.80482,4.471694 0.88863,2.830387 1.23477,-1.19675 2.66113,-4.576008 3.16969,-7.509454 z m -24.859559,0.674026 c 0,-2.202772 -0.67692,-4.00504 -1.50427,-4.00504 -0.82735,0 -1.50427,1.802268 -1.50427,4.00504 0,2.202773 0.67692,4.005041 1.50427,4.005041 0.82735,0 1.50427,-1.802268 1.50427,-4.005041 z M 341.07964,63.254753 c 1.16583,-3.498005 1.55067,-5.764846 0.85522,-5.037426 -0.69546,0.727419 -2.28298,-0.134349 -3.52784,-1.915032 -2.08126,-2.977129 -2.26337,-2.974626 -2.26337,0.03112 0,1.797804 0.71795,3.268738 1.59545,3.268738 0.87748,8e-6 1.59543,1.404892 1.59543,3.121971 0,1.717079 -0.85168,2.57141 -1.8926,1.898513 -1.08527,-0.701561 -1.40622,0.102249 -0.75243,1.884338 1.57598,4.295709 1.97242,4.002033 4.39014,-3.252221 z M 245.85659,433.95501 c -4.13757,-1.73502 -4.22909,-2.10082 -1.29383,-5.17098 4.17094,-4.36267 16.27625,-10.76371 16.27625,-8.60656 0,0.93084 -1.00547,4.0006 -2.23436,6.82171 -1.59884,3.67038 -3.23248,4.79794 -5.74358,3.96433 -3.89088,-1.29169 -4.91504,2.18287 -1.11605,3.78624 1.31624,0.55552 1.53162,1.02407 0.47863,1.04121 -1.05299,0.018 -3.91817,-0.80903 -6.36706,-1.83595 z M 65.779577,108.40847 c -0.122147,-2.34326 1.285601,-5.49723 3.128331,-7.00882 2.913898,-2.390267 3.065459,-2.356987 1.163281,0.25543 -1.202925,1.65208 -2.610673,4.80605 -3.12833,7.00883 -0.893958,3.80404 -0.95234,3.79122 -1.163282,-0.25544 z M 116.2924,77.624843 c -3.15897,-2.188258 -4.7621,-3.984589 -3.56252,-3.991846 2.0923,-0.01266 12.22979,7.807318 10.26335,7.91707 -0.52649,0.02938 -3.54187,-1.736966 -6.70083,-3.925224 z"
       id="path6330"
       inkscape:connector-curvature="0" />
    <path
       style="fill:#55080d"
       d="m 162.04754,453.00415 c -0.67302,-2.80475 -0.68943,-5.65834 -0.0365,-6.34132 0.65295,-0.68296 1.18718,0.66594 1.18718,2.99753 0,2.33162 1.50769,5.15781 3.35042,6.28043 3.15382,1.92135 3.15596,2.04471 0.0365,2.10202 -1.98033,0.0365 -3.80637,-1.99129 -4.53761,-5.03866 z m 16.46691,-0.908 c 0,-1.10139 0.0232,-2.67837 0.0516,-3.50441 0.0284,-0.82604 2.32145,-1.68438 5.09576,-1.90742 2.77432,-0.22305 5.55111,-1.12418 6.17065,-2.00253 0.61955,-0.87834 5.00336,-3.7839 9.74181,-6.4568 4.73844,-2.67291 10.05246,-5.77225 11.8089,-6.88743 2.17195,-1.37898 4.62174,-1.34712 7.6581,0.0995 4.16713,1.98549 3.89064,2.24842 -4.15081,3.94696 -5.50937,1.16373 -8.61536,2.87987 -8.61536,4.76023 0,3.12343 -5.98034,7.75733 -10.16424,7.87578 -1.38236,0.039 -1.90673,-0.94349 -1.1694,-2.19134 0.81139,-1.37321 0.29147,-1.89787 -1.32291,-1.33502 -1.4628,0.51002 -2.5009,1.75334 -2.30688,2.76294 0.39365,2.04835 -6.69393,6.66098 -10.40402,6.77098 -1.31624,0.0391 -2.39316,-0.83009 -2.39316,-1.93147 z m 67.26235,-18.79049 c -4.15603,-2.41018 -4.24035,-2.7456 -1.01562,-4.03993 1.93419,-0.77631 2.8698,-0.73486 2.07914,0.0921 -0.79068,0.827 0.52789,2.64497 2.93014,4.03992 2.40225,1.39494 3.50618,2.53625 2.45319,2.53625 -1.05299,0 -3.95407,-1.18278 -6.44685,-2.6284 z m -73.00592,-5.32977 c 0,-3.76945 -0.57933,-5.44047 -5.19459,-14.98352 -1.07985,-2.23281 -3.07541,-10.5683 -4.43458,-18.52331 -1.35917,-7.95499 -3.15574,-14.46365 -3.99237,-14.46365 -0.83664,0 -2.08685,-3.15397 -2.77824,-7.00882 -0.6914,-3.85485 -1.83386,-7.00882 -2.5388,-7.00882 -2.22455,0 -5.77434,-12.15686 -4.57431,-15.66548 0.63177,-1.84716 0.42099,-2.66581 -0.4684,-1.81927 -1.64527,1.56608 -10.25324,-17.08426 -10.41507,-22.56566 -0.0488,-1.65208 -1.46732,-5.70718 -3.15233,-9.01134 -1.685,-3.30416 -3.17132,-9.32794 -3.30293,-13.38621 -0.14979,-4.61931 -0.84662,-6.49147 -1.86337,-5.0063 -0.94063,1.37401 -1.23374,-1.20918 -0.69651,-6.13836 0.74988,-6.88022 0.33895,-8.51071 -2.14492,-8.51071 -2.36824,0 -2.55245,-0.54397 -0.80364,-2.37315 1.7488,-1.82918 4.52051,0.006 12.09212,8.01008 5.40279,5.71077 10.55027,10.38323 11.43886,10.38323 0.88858,0 2.64809,3.60454 3.91002,8.01008 3.38025,11.80081 8.30688,10.57505 11.3705,-2.82898 1.41113,-6.17405 1.4133,-6.17207 1.60901,1.47013 0.10779,4.20886 1.43703,8.95059 2.95388,10.53716 1.51685,1.58656 3.3455,7.15429 4.06366,12.37271 1.71001,12.42554 6.9517,24.40656 13.13106,30.01388 3.72189,3.37735 7.35887,4.50567 14.52338,4.50567 7.2197,0 9.55806,0.73487 9.55806,3.00378 0,2.16939 2.12725,3.00378 7.6581,3.00378 6.89229,0 7.6581,0.50063 7.6581,5.0063 0,2.75347 0.86153,5.0063 1.91452,5.0063 1.05299,0 1.91453,-3.53845 1.91453,-7.86325 0,-5.77777 0.85466,-8.0354 3.22249,-8.51236 2.71824,-0.54755 2.41867,-1.5563 -1.91453,-6.44681 -2.82536,-3.18873 -5.13701,-6.56725 -5.13701,-7.50779 0,-0.94056 -3.44615,-1.71011 -7.6581,-1.71011 -4.21195,0 -7.6581,-0.90114 -7.6581,-2.00252 0,-1.10139 -1.2923,-2.00252 -2.87179,-2.00252 -1.61664,0 -2.87178,-1.7901 -2.87178,-4.09578 0,-3.59632 0.81712,-3.93545 6.70083,-2.78092 5.40576,1.06074 6.70084,0.69125 6.70084,-1.91178 0,-1.89162 1.58425,-3.22664 3.82905,-3.22664 2.55269,0 3.82905,1.33502 3.82905,4.00504 0,4.38049 0.62737,4.57467 9.07224,2.80807 5.23902,-1.09596 5.72181,-1.89142 5.72181,-9.42745 0,-7.99958 -2.8226,-13.40583 -6.9992,-13.40583 -1.12821,0 -2.05128,-2.7034 -2.05128,-6.00756 0,-3.30416 -0.38152,-6.00756 -0.84783,-6.00756 -2.17819,0 -14.46837,8.60495 -14.46837,10.13001 0,0.94839 3.66153,2.76456 8.13674,4.03594 4.4752,1.2714 9.28529,2.65975 10.68909,3.08522 4.22138,1.27949 1.34896,5.7323 -4.13591,6.41145 -3.62662,0.44907 -5.11729,-0.28009 -5.11729,-2.50315 0,-3.74229 -2.19686,-4.04299 -5.36067,-0.73376 -1.78688,1.86901 -2.29743,1.81452 -2.29743,-0.24519 0,-2.09153 -0.58607,-2.13947 -2.78793,-0.22811 -4.19122,3.63828 -7.33342,0.4394 -6.06816,-6.17763 0.80613,-4.21591 0.36167,-5.7647 -1.65431,-5.7647 -1.51611,0 -3.67872,-1.80227 -4.8058,-4.00504 -1.12708,-2.20277 -3.31124,-4.00504 -4.85367,-4.00504 -1.54244,0 -2.80443,-1.38939 -2.80443,-3.08753 0,-1.85465 4.7966,-5.33853 12.01229,-8.7248 11.25865,-5.28359 12.63703,-6.69873 18.2396,-18.72611 1.66621,-3.57698 -5.59911,-1.07319 -9.59327,3.30605 -3.44516,3.77731 -5.30853,4.43502 -8.69284,3.0683 -5.65008,-2.28173 -5.46849,-5.51122 0.44207,-7.8617 3.15707,-1.25548 4.37233,-2.91757 3.62421,-4.95674 -0.72317,-1.97116 -0.0256,-3.06788 1.95109,-3.06788 1.69216,0 3.07662,0.90114 3.07662,2.00252 0,1.10139 2.49787,2.00252 5.55081,2.00252 5.2142,0 5.59301,-0.55544 6.2473,-9.16007 0.69105,-9.08817 -1.18057,-16.66309 -2.51021,-10.1595 -0.56821,2.77918 -1.56355,2.49378 -6.41611,-1.83972 l -5.74357,-5.12917 5.41584,0.88159 c 7.23679,1.178 8.68534,-3.30578 3.45739,-10.70195 -2.24781,-3.18007 -4.08692,-7.71589 -4.08692,-10.07961 0,-2.36373 -2.11785,-6.93029 -4.70632,-10.14791 -2.5885,-3.21763 -4.21939,-7.17754 -3.62424,-8.79979 1.88014,-5.12475 -2.04291,-3.18225 -5.97699,2.95952 -2.58659,4.03812 -4.23733,5.14121 -5.23562,3.49865 -2.07617,-3.41608 -1.8554,-5.85806 0.39792,-4.40143 1.05299,0.6807 1.91453,0.37972 1.91453,-0.66883 0,-1.04855 -1.29231,-2.42515 -2.87179,-3.05911 -1.57948,-0.63397 -2.87179,-2.06276 -2.87179,-3.1751 0,-1.29908 1.69163,-1.21625 4.72962,0.23157 3.61645,1.7235 5.41886,1.65568 7.6581,-0.28813 3.47636,-3.01773 3.88174,-8.0593 0.64803,-8.0593 -1.25424,0 -0.78562,-1.14328 1.04139,-2.54062 2.94308,-2.25096 2.30558,-2.85447 -5.5915,-5.29338 l -8.91333,-2.75275 5.95742,-2.62004 c 7.15787,-3.14799 7.83559,-6.48331 1.16167,-5.71703 -2.63766,0.30285 -4.35457,-0.19601 -3.81535,-1.10859 0.53922,-0.91258 0.0942,-4.09729 -0.98898,-7.07715 -1.38948,-3.82258 -1.34333,-6.20694 0.15674,-8.09748 2.14818,-2.70737 1.46918,-2.75337 -7.78738,-0.5276 -1.9537,0.46978 -2.9323,-0.97456 -3.06106,-4.51792 -0.10412,-2.86464 -0.89835,-6.46918 -1.765,-8.01008 -0.86664,-1.54089 0.31582,-1.06571 2.62769,1.05598 3.10407,2.84872 3.58017,4.26048 1.82043,5.39805 -1.31063,0.84724 -1.78258,2.16841 -1.04878,2.93594 0.7338,0.76753 2.6808,0.22655 4.32666,-1.20218 2.66757,-2.31564 2.4532,-3.18644 -1.97437,-8.02024 -2.73177,-2.98241 -5.30585,-8.47508 -5.72018,-12.20595 l -0.75332,-6.78339 3.54888,7.00802 c 1.95188,3.85442 3.14932,7.68424 2.66097,8.51071 -0.48835,0.82648 -0.0737,1.50269 0.92142,1.50269 0.99513,0 5.47196,6.53322 9.9485,14.51827 4.47655,7.98505 10.22242,17.45226 12.76863,21.03825 2.5462,3.58599 4.18886,7.26562 3.65038,8.17696 -0.53849,0.91134 0.33531,1.65698 1.94179,1.65698 1.60648,0 5.9728,-3.89568 9.70297,-8.65707 3.73014,-4.76139 7.6047,-8.12531 8.61011,-7.47537 1.00541,0.64993 1.55578,-0.0582 1.22308,-1.57367 -0.33273,-1.51546 1.43957,-5.43571 3.9384,-8.71167 3.83792,-5.03149 4.33782,-5.25672 3.21966,-1.45063 -0.83,2.82529 -0.51939,4.50567 0.83286,4.50567 1.18608,0 1.66087,0.83887 1.05505,1.86416 -0.60583,1.02528 -0.10032,2.51138 1.12348,3.30246 1.55657,1.00622 1.87744,-0.01 1.06816,-3.38268 -0.63626,-2.65154 -0.24987,-6.1652 0.85864,-7.80813 1.69591,-2.51351 1.8483,-2.44166 0.96123,0.45313 -0.57986,1.89216 -0.32831,3.90957 0.55898,4.48315 1.54261,0.9972 4.52368,-7.00334 3.14631,-8.44401 -0.36571,-0.38252 -2.53944,-0.84318 -4.83052,-1.02369 -3.61024,-0.28445 -3.76671,-0.63329 -1.17366,-2.61651 1.64555,-1.25857 2.99193,-3.65561 2.99193,-5.32675 0,-3.28977 5.70905,-9.17033 7.31417,-7.53389 0.54016,0.55069 1.38104,-0.25059 1.86865,-1.78063 0.53362,-1.67446 0.0343,-2.23094 -1.25441,-1.39789 -1.41547,0.91501 -1.70496,0.19553 -0.8543,-2.12315 0.79803,-2.17518 1.57891,-2.59021 2.05612,-1.09279 0.42319,1.3279 1.55739,1.90501 2.52043,1.28245 3.39758,-2.19632 1.70267,4.92067 -1.7865,7.50161 -2.2357,1.65375 -3.90214,6.03929 -4.52835,11.91719 -0.54497,5.11527 -3.7177,15.15514 -7.05052,22.31082 l -6.05968,13.01032 4.07631,7.22636 c 4.96421,8.80044 7.52712,9.21543 7.52712,1.2188 0,-5.05268 0.75123,-6.00756 4.72624,-6.00756 3.26262,0 4.40796,0.86747 3.69852,2.80122 -1.28712,3.50834 1.74367,5.61246 5.76141,3.99985 1.78179,-0.71517 3.04456,-3.55177 3.04456,-6.83916 0,-3.08943 1.25755,-12.49188 2.79455,-20.89431 1.9663,-10.74925 2.23414,-16.81893 0.9037,-20.47909 -1.03997,-2.86106 -1.43988,-5.67365 -0.88867,-6.25019 0.55121,-0.57654 1.92783,1.72902 3.05914,5.12348 2.13345,6.4013 6.57465,9.73474 8.53945,6.40949 0.62104,-1.05103 -0.37758,-4.57889 -2.21916,-7.8397 -2.85601,-5.05706 -2.98202,-6.64457 -0.85707,-10.79755 1.37016,-2.67784 4.35294,-5.91097 6.62837,-7.18473 4.9402,-2.76542 8.84303,-14.68697 8.84303,-27.011747 0,-4.90858 0.89608,-9.503948 1.99126,-10.211925 1.2822,-0.828855 1.61898,0.733502 0.94582,4.387488 l -1.04545,5.674717 2.21304,-6.007557 c 1.21718,-3.304159 3.06894,-6.591174 4.11504,-7.304478 1.0461,-0.713304 1.39383,-3.329494 0.77272,-5.813753 -1.19841,-4.793401 3.79428,-17.238805 5.98632,-14.922207 0.71209,0.752565 1.29471,3.314426 1.29471,5.693027 0,2.969526 1.09963,4.228901 3.50916,4.018926 3.21678,-0.28032 3.17238,0.06915 -0.53276,4.194365 -2.46315,2.742428 -3.5632,5.804979 -2.81632,7.840755 0.67406,1.837322 0.17001,4.670935 -1.12015,6.296915 -1.46268,1.84342 -1.88156,5.544277 -1.1127,9.830944 0.71622,3.99336 0.40597,7.40923 -0.74028,8.15021 -1.08528,0.70158 -1.97326,4.03616 -1.97326,7.41018 0,5.2259 -0.42537,5.76532 -2.87178,3.64166 -2.35202,-2.04171 -2.87179,-1.90487 -2.87179,0.75606 0,1.78694 1.15878,3.24898 2.57505,3.24898 4.09902,0 8.9121,-6.84443 8.9121,-12.67343 0,-2.94209 0.96197,-5.34925 2.13772,-5.34925 2.1278,0 1.6117,-5.67065 -1.13909,-12.515754 -1.13248,-2.818063 -0.43077,-3.504411 3.58284,-3.504411 4.25069,0 4.99115,-0.876487 4.99115,-5.908055 0,-3.514131 1.35757,-6.735115 3.35042,-7.949187 1.8594,-1.13278 2.28541,-2.068231 0.95726,-2.102026 -2.28259,-0.05808 -3.57424,-10.073496 -1.29914,-10.073496 4.0753,0 6.26017,6.540832 5.87813,17.597358 -0.23097,6.684751 0.28837,11.6962 1.15411,11.136554 0.86573,-0.559644 1.32995,-4.325035 1.03159,-8.367533 -0.38806,-5.257621 0.17977,-7.19316 1.99495,-6.799064 1.74193,0.378214 2.15166,-0.720436 1.30688,-3.50441 -0.76143,-2.509316 -0.36865,-4.055344 1.03028,-4.055344 2.66913,0 1.91129,5.383097 -3.4593,24.57186 -2.08704,7.456898 -3.04542,14.042318 -2.1297,14.634278 2.13872,1.38255 9.71353,-4.09438 8.05785,-5.82617 -0.68616,-0.71769 -2.47142,-0.24251 -3.96724,1.05597 -1.49581,1.29848 -0.71354,-0.84264 1.73837,-4.75806 3.42838,-5.474682 4.82462,-6.462281 6.04517,-4.275911 0.91011,1.630274 0.71303,3.944651 -0.46201,5.425561 -1.12704,1.42041 -1.47336,3.1848 -0.76962,3.92089 0.70372,0.73608 -0.37931,2.60704 -2.40677,4.15769 -2.02744,1.55065 -3.04675,3.48827 -2.26513,4.30583 1.74794,1.82827 9.38186,-5.0741 8.06909,-7.29584 -0.51886,-0.87808 -0.072,-2.15975 0.99283,-2.84814 2.24986,-1.4544 1.75252,-15.03529 -0.55082,-15.04126 -0.85189,-0.0022 -1.00773,-0.919848 -0.34634,-2.0392 0.66139,-1.119351 2.13766,-1.430687 3.28059,-0.691853 1.20786,0.780805 1.52996,0.415761 0.76922,-0.871733 -0.71986,-1.218286 1.37417,-5.187339 4.65341,-8.820119 3.27923,-3.632778 5.40732,-5.478636 4.72908,-4.101903 -0.79301,1.609678 0.17384,2.503151 2.70887,2.503151 2.34433,0 3.94204,-1.304268 3.94204,-3.218029 0,-2.194696 1.06543,-2.829933 3.35042,-1.997606 2.93588,1.069426 2.90786,0.861366 -0.22655,-1.681668 -3.44467,-2.794766 -3.42696,-2.890272 0.47863,-2.582549 2.23058,0.175741 4.0556,1.08209 4.0556,2.014097 0,0.932007 1.07692,1.017829 2.39316,0.19072 1.79394,-1.127303 1.77066,-0.700131 -0.0931,1.706057 -1.78518,2.304891 -1.8842,3.599002 -0.35126,4.589965 1.17418,0.759036 2.65191,0.839261 3.28385,0.178285 0.63193,-0.660982 -0.0716,-1.229187 -1.56327,-1.262679 -1.85772,-0.04171 -1.59851,-0.738011 0.8227,-2.21003 2.56234,-1.557839 4.14259,-1.508442 5.74357,0.179526 1.67358,1.764547 1.43084,2.019055 -1.0021,1.05059 -2.57552,-1.025228 -2.98932,-0.392492 -2.09156,3.19828 0.82045,3.281666 0.47294,4.05863 -1.30207,2.911184 -1.82916,-1.182435 -2.05172,-0.402058 -0.91015,3.191274 0.83108,2.616045 1.53876,6.26727 1.57263,8.113832 0.0339,1.846564 0.63176,2.988784 1.32868,2.538269 2.02339,-1.307997 -2.72111,11.786289 -6.39633,17.653199 -4.33025,6.91268 -4.22465,8.1211 0.47972,5.48769 3.16236,-1.77024 3.83417,-1.52101 3.85836,1.43143 0.023,2.81194 0.38597,2.98591 1.70049,0.81516 0.91914,-1.51783 2.61914,-2.14688 3.77779,-1.39788 1.36795,0.88429 1.66459,0.15688 0.84597,-2.07447 -0.82933,-2.26051 -0.52714,-2.9621 0.88314,-2.05044 1.18373,0.76521 3.0744,-0.43288 4.22175,-2.67528 1.14288,-2.23362 1.61686,-4.06113 1.05332,-4.06113 -0.56354,0 -1.45539,0 -1.98188,0 -0.52649,0 -0.74188,0.43322 -0.47863,0.9627 0.7616,1.53185 -8.26801,7.57758 -9.45821,6.33268 -0.59062,-0.61777 1.746,-3.63837 5.19247,-6.71244 8.70261,-7.762257 10.80704,-8.870817 10.80704,-5.69289 0,1.57222 -1.28275,2.30275 -3.03135,1.72635 -2.56464,-0.8454 -2.60327,-0.68221 -0.25095,1.06005 3.76131,2.78582 5.83499,1.07874 5.83499,-4.803447 0,-2.688465 0.91239,-4.888117 2.02752,-4.888117 1.11513,0 1.49505,0.901134 0.84427,2.00252 -0.65079,1.101386 0.64152,2.002517 2.87179,2.002517 2.57762,0 3.55732,-0.842323 2.68896,-2.311922 -0.85317,-1.443898 -0.52444,-1.767875 0.8755,-0.86289 1.23286,0.796971 1.73103,2.313079 1.10703,3.369132 -0.624,1.05605 0.78632,3.546997 3.13402,5.535427 3.31561,2.80822 3.58074,3.61535 1.18754,3.61535 -1.69458,0 -2.54685,-0.90408 -1.89394,-2.00907 0.71858,-1.21612 -0.1321,-1.47958 -2.15531,-0.66751 -1.83835,0.73786 -4.11958,1.34156 -5.06942,1.34156 -0.94983,0 -0.51148,2.92869 0.97409,6.5082 1.48558,3.5795 3.18863,8.14229 3.78456,10.13952 0.59592,1.99724 1.95111,3.07047 3.01155,2.38497 3.25396,-2.1035 2.1833,0.10583 -3.98669,8.22661 -3.25311,4.28165 -6.84284,7.78481 -7.9772,7.78481 -1.13433,0 -2.41521,1.3517 -2.84638,3.00378 -0.69683,2.67003 -0.55825,2.67003 1.24705,0 1.11703,-1.65208 2.04415,-2.24662 2.06027,-1.32121 0.0433,2.482 -10.24261,17.24874 -12.04946,17.29862 -0.85189,0.0235 -0.97164,-0.93416 -0.26614,-2.12817 0.81203,-1.37426 -0.31243,-1.92541 -3.06412,-1.50189 -4.56671,0.70287 -6.75936,6.72484 -3.26987,8.98057 1.12189,0.72524 1.51381,0.42844 0.87095,-0.65956 -0.64287,-1.08799 0.0477,-1.97817 1.5345,-1.97817 2.96414,0 2.61349,0.84217 -4.90517,11.78092 -2.81341,4.09316 -5.79881,6.79656 -6.63421,6.00756 -0.8354,-0.78901 -0.97262,-0.43242 -0.30491,0.79241 1.85123,3.39589 -18.40955,36.82217 -22.31915,36.82217 -0.91571,0 -1.12227,-1.47916 -0.45902,-3.28702 1.00832,-2.7484 0.72817,-2.87229 -1.70969,-0.75606 -3.09261,2.68462 -4.107,7.05213 -1.20169,5.17403 2.69396,-1.7415 4.25687,4.85405 2.02677,8.55313 -1.62045,2.68782 -1.78851,2.36405 -0.86891,-1.67399 0.97009,-4.25977 0.82358,-4.47771 -0.98259,-1.46149 -1.16749,1.94966 -1.59478,5.5542 -0.94954,8.01009 1.14134,4.34421 1.0926,4.35989 -1.79778,0.57811 -1.63401,-2.13793 -2.98411,-4.84134 -3.00023,-6.00757 -0.0858,-6.203 -3.74568,5.0976 -3.77043,11.6418 -0.0247,6.52545 0.40787,7.37516 2.72868,5.36052 1.51689,-1.31677 2.25163,-3.90523 1.63274,-5.75212 -0.90796,-2.70963 -0.6347,-2.88248 1.41529,-0.89532 2.11046,2.04581 2.1034,3.31699 -0.0417,7.50945 -1.42023,2.77573 -3.94436,5.06057 -5.60916,5.07743 -2.24277,0.0228 -2.40382,0.44444 -0.62166,1.62789 1.78585,1.18591 -0.11794,6.32994 -7.39267,19.9749 -5.38887,10.10772 -10.60536,17.85571 -11.5922,17.21777 -1.09756,-0.70949 -1.04589,-2.10311 0.13306,-3.58896 1.06005,-1.336 1.46871,-4.63503 0.90813,-7.33119 -0.94556,-4.54772 -0.81773,-4.6445 1.76822,-1.33882 2.47439,3.16306 2.91795,3.20762 3.94923,0.39662 0.72692,-1.9814 0.38449,-2.66417 -0.9149,-1.82422 -1.28317,0.82951 -1.7954,-0.0871 -1.34061,-2.39914 0.40483,-2.05787 2.10384,-3.63503 3.7756,-3.50485 2.30995,0.17983 2.96426,-1.50245 2.7259,-7.00882 -0.17288,-3.99305 1.28792,-10.13183 3.25416,-13.67529 3.36598,-6.06602 3.39981,-7.19888 0.59815,-20.0252 -1.63332,-7.47751 -3.32164,-15.39772 -3.75184,-17.6005 -0.43017,-2.20277 -0.88209,-0.21762 -1.00424,4.41145 -0.12215,4.62907 0.78838,10.73617 2.0234,13.57133 1.71766,3.9431 1.71766,5.70696 0,7.50356 -1.23502,1.29179 -2.24549,4.69223 -2.24549,7.55653 0,7.34899 -4.13851,15.63642 -8.38896,16.79902 -2.44315,0.66827 -3.29479,2.22222 -2.64413,4.8247 1.28276,5.13083 -1.79537,10.5197 -5.22304,9.14392 -3.4395,-1.38051 -14.37626,6.54584 -14.37626,10.4191 0,1.57708 -0.86154,2.86743 -1.91453,2.86743 -1.05298,0 -3.63759,1.80227 -5.74357,4.00504 -2.10598,2.20277 -5.12135,4.00504 -6.70084,4.00504 -1.57948,0 -2.87178,0.90113 -2.87178,2.00252 0,1.10139 1.67222,2.00252 3.71605,2.00252 2.04383,0 4.3072,1.00046 5.02971,2.22322 0.7623,1.29012 3.97633,1.77127 7.65781,1.1464 3.95137,-0.6707 6.6909,-0.18744 7.26355,1.28117 0.698,1.79018 0.95581,1.78369 1.07055,-0.027 0.0831,-1.31173 -0.75295,-2.96942 -1.85795,-3.68374 -2.10355,-1.35981 6.44984,-10.95272 9.76583,-10.95272 2.82904,0 2.13328,4.00334 -0.90786,5.22397 -3.67285,1.4742 -5.27046,6.3375 -2.6404,8.03768 1.1697,0.75615 1.67379,0.55972 1.12022,-0.43649 -0.55358,-0.99621 1.14093,-4.06414 3.76559,-6.8176 4.08377,-4.28421 3.73399,-2.98446 -2.42502,9.01134 -9.3625,18.23517 -11.47085,21.31202 -13.37014,19.51184 -0.86412,-0.81903 -0.95559,-0.36987 -0.20328,0.99813 0.75229,1.36801 0.63403,3.85878 -0.26283,5.53505 -1.29412,2.41874 -2.90177,1.16154 -7.78972,-6.09181 -3.38748,-5.02672 -6.92765,-8.64267 -7.86703,-8.03541 -0.9394,0.60726 -1.25708,-0.6994 -0.70598,-2.90369 0.76918,-3.07642 0.0604,-4.00771 -3.05034,-4.00771 -2.43154,0 -4.05234,-1.27641 -4.05234,-3.19126 0,-1.75518 -1.72307,-3.66255 -3.82905,-4.23859 -3.86148,-1.05621 -5.46905,-6.58779 -1.91452,-6.58779 1.05299,0 1.91452,0.90113 1.91452,2.00252 0,1.10139 0.81808,2.00252 1.81796,2.00252 0.99988,0 -0.0214,-3.60454 -2.26971,-8.01008 -2.24823,-4.40555 -5.11245,-8.01008 -6.36495,-8.01008 -1.25252,0 -2.79421,-2.70341 -3.42601,-6.00756 -0.81987,-4.28782 -2.25207,-6.00757 -5.00305,-6.00757 -2.7883,0 -3.72821,-1.16781 -3.39828,-4.22231 0.26863,-2.48701 -1.11762,-5.16178 -3.37299,-6.50819 -6.6596,-3.97566 -8.91581,-9.2947 -3.94258,-9.2947 2.39846,0 2.39999,-0.71834 0.0115,-5.50693 -1.51056,-3.02881 -2.75176,-6.63335 -2.75825,-8.01008 -0.006,-1.37673 -1.08872,-2.50291 -2.40495,-2.50263 -3.2062,7e-4 -4.29537,25.43221 -1.2534,29.26603 1.60173,2.01864 1.61586,2.77377 0.0519,2.77377 -1.18191,0 -2.14894,1.3517 -2.14894,3.00378 0,3.6372 -3.13051,3.98736 -4.47562,0.50063 -0.61487,-1.59384 -1.02056,-1.3192 -1.1168,0.75608 -0.17039,3.67478 4.34706,8.38974 6.19075,6.46131 0.66179,-0.69221 1.15532,1.34315 1.0967,4.52305 -0.0586,3.17988 0.498,8.25974 1.23691,11.28855 0.97411,3.99284 0.62414,5.52848 -1.27285,5.58531 -1.43899,0.043 0.27265,1.39045 3.80364,2.99411 3.53102,1.60363 7.19255,2.41632 8.13673,1.80595 0.94421,-0.61037 1.71674,0.21591 1.71674,1.83619 0,1.87636 -2.78039,3.43727 -7.6581,4.29923 -7.29298,1.28878 -10.84716,5.0063 -4.78631,5.0063 1.59543,0 2.87179,1.78002 2.87179,4.00504 0,2.20278 0.86153,4.00504 1.91452,4.00504 1.05299,0 1.91453,1.80227 1.91453,4.00504 0,2.22502 1.27635,4.00505 2.87178,4.00505 1.57949,0 2.87179,1.374 2.87179,3.05334 0,1.67933 2.0843,3.88222 4.63177,4.89528 2.54749,1.01307 5.61287,3.46889 6.81198,5.45737 1.5468,2.56511 2.47234,2.88823 3.18584,1.11228 1.22689,-3.05373 15.27416,-3.35386 17.04073,-0.36412 0.69516,1.17648 2.59366,1.60532 4.21892,0.95298 3.65312,-1.46627 10.14995,4.34357 8.84246,7.90745 -0.52728,1.43719 0.10798,3.30262 1.41174,4.14538 1.70279,1.10076 2.00205,0.45285 1.06258,-2.3006 -1.00182,-2.93609 -0.4701,-2.71495 2.27248,0.94517 2.69284,3.59373 3.9588,4.13749 5.10732,2.19374 0.97338,-1.64737 0.76767,-2.09345 -0.56745,-1.23039 -1.29234,0.83544 -1.97674,-0.28067 -1.78707,-2.91434 0.30623,-4.25221 0.31844,-4.25113 3.23455,0.2865 5.06296,7.87823 11.94307,21.07901 9.07508,17.41225 -3.47106,-4.4378 -4.46458,-4.39249 -10.37866,0.47334 -2.65907,2.18777 -5.43802,3.58773 -6.17543,3.11105 -0.73742,-0.4767 -2.54942,0.88728 -4.02667,3.03106 -2.75609,3.99963 -7.5842,5.3255 -7.5842,2.08274 0,-0.99828 -1.8578,-1.30688 -4.12842,-0.68582 -2.82862,0.77371 -3.69722,0.39944 -2.7588,-1.18874 0.8683,-1.46893 -0.0739,-2.31796 -2.57206,-2.31796 -2.16813,0 -3.94205,0.96185 -3.94205,2.13747 0,1.22392 -1.63136,1.59589 -3.81701,0.87032 -2.91518,-0.96778 -3.54847,-0.53521 -2.68041,1.8309 0.80937,2.20606 2.06361,2.57913 4.35631,1.29571 1.77086,-0.99128 6.1692,-1.17139 9.77409,-0.40022 l 6.55438,1.40212 -12.39014,6.44446 c -6.81456,3.54444 -13.45286,6.44445 -14.75177,6.44445 -3.37835,0 -2.92065,3.90637 0.62444,5.32926 1.79588,0.72083 5.14611,-0.96601 8.40534,-4.23208 2.98505,-2.99129 5.93864,-4.55163 6.57555,-3.47373 0.63596,1.07627 -0.18571,2.49552 -1.82587,3.15383 -1.64017,0.65832 -2.38906,2.20066 -1.6642,3.42741 0.92749,1.56971 1.85736,1.42559 3.13888,-0.48649 1.48508,-2.21577 1.69539,-2.22258 1.1402,-0.0369 -0.96844,3.81266 -20.277,14.62491 -21.72896,12.16759 -1.37807,-2.33225 -8.85349,-0.30091 -10.83515,2.94431 -0.75004,1.22829 -5.05772,3.17748 -9.57263,4.33155 -4.51489,1.15407 -8.15287,2.95634 -8.08438,4.00504 0.22455,3.43875 -7.51317,6.41201 -11.38817,4.37595 -1.98305,-1.04197 -7.15226,-1.38462 -11.48715,-0.76146 -7.13328,1.02547 -7.42716,0.9065 -3.09529,-1.25298 6.29004,-3.13566 10.67413,-7.46359 7.56042,-7.46359 -1.69506,0 -1.73469,-0.69443 -0.15335,-2.6874 1.17278,-1.47806 1.62382,-3.21929 1.00231,-3.86937 -0.62151,-0.65008 0.89364,-0.63618 3.36704,0.0308 4.01874,1.08384 4.21758,0.85644 1.86947,-2.13821 -3.08728,-3.93732 -9.11281,-4.42896 -10.39166,-0.84789 -1.00189,2.80551 -2.13649,0.3045 -4.08806,-9.01134 -1.64138,-7.83518 -4.42569,-6.8139 -6.82427,2.50315 -1.13416,4.40554 -3.16715,8.01008 -4.51777,8.01008 -1.35061,0 -5.80709,4.03175 -9.90328,8.95944 -8.75404,10.53103 -12.38229,12.57358 -12.38229,6.97073 z m 52.88654,-0.98704 c -0.69279,-1.88836 0.15374,-3.50325 2.18832,-4.17482 1.82498,-0.60238 6.33352,-2.40581 10.01898,-4.00762 3.68546,-1.60182 7.37775,-2.84494 8.2051,-2.7625 0.82736,0.0825 2.73591,-1.00869 4.24124,-2.42477 6.70331,-6.3058 8.64062,-7.58096 11.5174,-7.58096 1.68606,0 2.53313,0.90113 1.88234,2.00252 -0.66141,1.11935 0.76639,1.97442 3.23742,1.93884 5.28497,-0.0761 12.17866,-5.02414 9.45385,-6.78556 -1.04324,-0.67439 -2.48576,-0.22941 -3.2056,0.98884 -0.7799,1.3199 -3.81266,1.72371 -7.50461,0.99928 -6.08534,-1.19408 -16.43899,2.76218 -40.69007,15.54815 -7.85953,4.14381 -7.96243,4.32462 -3.82905,6.72727 5.53078,3.21488 5.82481,3.18414 4.48468,-0.46867 z m 26.39366,-29.2528 c -0.9609,-1.62623 0.18877,-1.88908 3.94735,-0.9024 4.97278,1.30545 5.10217,1.18197 2.07699,-1.98223 -2.40777,-2.51845 -3.77771,-2.7975 -5.40049,-1.10013 -1.19589,1.25086 -4.37127,2.28808 -7.05639,2.30495 -3.85503,0.0242 -4.27791,0.43903 -2.01025,1.97186 4.06536,2.74798 10.11543,2.53869 8.44279,-0.29205 z m -25.67351,-10.72182 c 0,-2.16939 -2.12725,-3.00378 -7.6581,-3.00378 -5.53085,0 -7.6581,0.83439 -7.6581,3.00378 0,2.1694 2.12725,3.00379 7.6581,3.00379 5.53085,0 7.6581,-0.83439 7.6581,-3.00379 z m 36.37597,-8.98038 c 0,-0.84871 -1.29231,-2.66489 -2.87179,-4.036 -1.57948,-1.3711 -2.87179,-4.18484 -2.87179,-6.25275 0,-2.06792 -0.86153,-3.75985 -1.91452,-3.75985 -2.38716,0 -2.37847,1.17612 0.077,10.42374 1.39454,5.25189 2.78995,7.09094 4.77565,6.29394 1.54305,-0.6193 2.80549,-1.82039 2.80549,-2.66908 z m -67.0233,-4.53663 c -0.0144,-4.31831 -6.92227,-9.51197 -12.65162,-9.51197 -1.28181,0 -2.67539,-1.08204 -3.09684,-2.40453 -0.59627,-1.87099 -1.08153,-1.87099 -2.18706,0 -0.78143,1.32249 -0.50839,2.40453 0.60674,2.40453 1.11513,0 2.02751,2.12247 2.02751,4.71662 0,3.55804 1.52842,5.22944 6.22221,6.80438 8.92448,2.99449 9.09552,2.95664 9.07906,-2.00903 z m 107.19901,-5.0063 c 0.0354,-5.43444 -4.87982,-6.05702 -6.19789,-0.78505 -0.5116,2.04634 -0.0806,5.30842 0.95764,7.24907 1.53568,2.87023 2.19784,3.01667 3.5494,0.78507 0.91384,-1.50888 1.67473,-4.77097 1.69085,-7.24909 z m 4.89942,-52.42434 c -1.88244,-3.18583 -4.91439,-0.59006 -3.57501,3.06069 0.73663,2.00787 1.77874,2.39346 3.00425,1.11162 1.03203,-1.07946 1.28886,-2.957 0.57076,-4.17231 z m -97.19018,-16.48765 c -0.86142,-2.70306 -7.0542,-4.03276 -9.97831,-2.1425 -1.10254,0.71274 0.14054,1.92038 2.76239,2.68366 7.12437,2.07409 8.02777,2.00635 7.21592,-0.54116 z m 57.72405,-48.35364 c 0.074,-0.89104 -0.72696,-1.06314 -1.77995,-0.38244 -1.05299,0.6807 -1.85397,3.212 -1.77995,5.62512 0.1298,4.23004 0.19359,4.24378 1.77995,0.38244 0.90498,-2.20277 1.70595,-4.73408 1.77995,-5.62512 z m 72.65982,2.4748 c -2.90396,-1.87725 -6.03897,-0.35459 -4.52954,2.19997 0.5774,0.97719 2.38676,1.24008 4.02081,0.58421 2.32073,-0.93147 2.43208,-1.54086 0.50873,-2.78418 z m -85.78655,-33.8963 c 0.9758,0 1.77415,1.3517 1.77415,3.00378 0,4.88787 3.31313,3.42396 4.62509,-2.04361 0.66614,-2.77607 0.26038,-6.90559 -0.90166,-9.17671 -2.03248,-3.97225 -2.21398,-3.98973 -4.77176,-0.45953 -1.46241,2.01837 -2.68633,4.72109 -2.71983,6.00604 -0.0335,1.28495 -1.07495,2.68983 -2.31438,3.12196 -1.46118,0.50945 -1.64526,1.80024 -0.52354,3.67129 1.44236,2.40591 1.84032,2.30305 2.39386,-0.61881 0.36518,-1.92743 1.4623,-3.50441 2.43807,-3.50441 z M 285.72784,216.8 c 0,-1.65207 -0.86154,-3.00378 -1.91453,-3.00378 -1.05299,0 -1.91452,1.35171 -1.91452,3.00378 0,1.65208 0.86153,3.00379 1.91452,3.00379 1.05299,0 1.91453,-1.35171 1.91453,-3.00379 z m 84.90758,-22.69523 c 2.62761,-3.03693 2.69343,-3.67128 0.38093,-3.67128 -1.53753,0 -2.3518,0.75094 -1.80947,1.66876 0.54231,0.91783 0.0736,1.66877 -1.04148,1.66877 -1.11514,0 -2.02752,0.90113 -2.02752,2.00252 0,2.83935 0.8793,2.5131 4.49754,-1.66877 z M 231.8287,186.17799 c 2.80926,2.29654 2.87726,2.20344 0.60625,-0.82996 -3.12079,-4.16843 -1.55677,-7.202 5.07223,-9.83819 4.04997,-1.61057 4.47438,-2.35471 2.2072,-3.87 -2.02266,-1.35185 -3.77175,-0.62033 -6.26006,2.61813 -1.89923,2.47178 -4.62846,5.99497 -6.06493,7.82932 -1.43648,1.83434 -2.05436,3.91821 -1.37305,4.63082 0.6813,0.71262 1.55583,0.3006 1.94341,-0.91559 0.48863,-1.53323 1.67494,-1.41811 3.86895,0.37547 z m 98.53243,-15.14657 c -0.77676,-11.51258 -0.44907,-17.17151 1.05046,-18.14086 1.19865,-0.77486 2.17936,-3.2958 2.17936,-5.6021 l 0,-4.19326 -3.57499,4.31145 c -4.55052,5.48794 -6.6197,5.51113 -4.96426,0.0556 0.869,-2.86388 0.59811,-3.80767 -0.82827,-2.8856 -1.16579,0.75362 -2.11962,0.50406 -2.11962,-0.55459 0,-2.62031 -10.91814,-6.42433 -14.41289,-5.02163 -4.37367,1.75547 -3.28109,3.37652 5.21846,7.74262 9.351,4.80347 9.77776,5.5706 14.18636,25.50085 1.8881,8.53574 3.64924,15.51953 3.91361,15.51953 0.26438,0 -0.0274,-7.52942 -0.64822,-16.73204 z m -48.59692,4.21629 c -0.074,-1.37674 -0.87497,-4.30542 -1.77995,-6.50819 -1.37886,-3.35626 -1.6672,-2.95077 -1.77995,2.50315 -0.074,3.5795 0.72696,6.50819 1.77995,6.50819 1.05299,0 1.85397,-1.12642 1.77995,-2.50315 z m 104.17412,-8.02066 c -0.50589,-0.85616 -1.86819,-0.94355 -3.02738,-0.19421 -1.36902,0.88499 -1.66579,0.15824 -0.84689,-2.07386 0.73899,-2.0143 0.48855,-2.93716 -0.60518,-2.23012 -1.02622,0.66339 -1.51115,3.18831 -1.07761,5.61093 0.43354,2.42263 0.85229,5.25286 0.93054,6.28941 0.0783,1.03654 1.35818,0.14534 2.84427,-1.98044 1.48611,-2.12579 2.28813,-4.56555 1.78225,-5.42171 z m -35.11665,0.62939 c 0,-2.13777 0.86153,-4.44379 1.91452,-5.12449 1.05299,-0.68069 1.91453,-3.50164 1.91453,-6.26878 0,-4.55981 -0.28002,-4.73826 -2.98898,-1.90479 -3.74741,3.91964 -6.06709,17.18492 -3.00509,17.18492 1.19075,0 2.16502,-1.74909 2.16502,-3.88686 z M 204.28405,164.3684 c -1.6377,-1.71297 -3.49015,-2.57843 -4.11656,-1.92323 -1.6569,1.73306 3.35483,7.45502 5.38193,6.14462 0.94175,-0.60879 0.37233,-2.50841 -1.26537,-4.22139 z m 87.18736,0.39324 c 0,-1.50714 2.14511,-4.50516 4.76694,-6.66227 4.16204,-3.42435 4.40042,-4.24016 1.87861,-6.42928 -4.39897,-3.81861 -10.4746,2.84622 -10.4746,11.49041 0,4.0345 0.78139,6.31152 1.91453,5.57902 1.05298,-0.6807 1.91452,-2.47074 1.91452,-3.97788 z M 368.36784,153.71 c -0.69999,-0.57048 -1.7874,-1.7153 -2.41648,-2.54404 -0.62907,-0.82874 -1.22014,1.30273 -1.31348,4.73661 -0.15546,5.72034 0.0469,5.93348 2.41646,2.54405 1.4224,-2.03466 2.01347,-4.16614 1.3135,-4.73662 z m 27.79402,0.70925 c -0.68563,-0.71714 0.2477,-2.59297 2.07406,-4.16852 2.78107,-2.39914 2.82203,-2.70395 0.25199,-1.87582 -2.3071,0.7434 -2.94311,-0.20786 -2.56265,-3.83295 0.27831,-2.65196 -0.41235,-5.41543 -1.53482,-6.14104 -1.18434,-0.76561 -1.48257,-0.37446 -0.71059,0.93204 0.81252,1.37511 -1.44559,3.46446 -5.80195,5.36832 -6.73473,2.94328 -6.92574,3.26804 -3.42759,5.82744 2.03753,1.49074 5.42767,3.1648 7.53365,3.72013 2.10598,0.55533 4.18802,1.11423 4.62677,1.24199 0.43874,0.12776 0.23675,-0.35445 -0.44887,-1.07159 z m -54.91281,-4.70368 c 0,-2.53953 -1.22596,-3.94719 -3.35041,-3.84695 -1.84273,0.087 -2.3219,0.59574 -1.06482,1.13064 1.25709,0.5349 1.81106,2.26603 1.23105,3.84695 -0.57998,1.58092 -0.10082,2.8744 1.06482,2.8744 1.16566,0 2.11936,-1.80226 2.11936,-4.00504 z M 330.96654,135.1973 c -0.022,-3.57951 0.68636,-8.31046 1.57403,-10.51323 1.08573,-2.69427 0.98064,-3.34966 -0.32107,-2.00252 -2.74292,2.83862 -6.44446,15.13426 -5.19347,17.25145 2.18218,3.69309 3.97896,1.53372 3.94051,-4.7357 z m 46.42286,-0.75941 c 3.21361,-7.3773 1.66679,-7.82236 -2.36641,-0.68087 -1.84692,3.27027 -2.58606,5.94595 -1.64256,5.94595 0.94349,0 2.74753,-2.36929 4.00897,-5.26508 z m -9.90075,-14.46807 c 2.74367,-1.87875 4.87451,-12.30717 2.51475,-12.30717 -1.07306,0 -1.951,0.8547 -1.951,1.89934 0,1.04464 -2.1377,4.31198 -4.75043,7.26075 -2.61276,2.94878 -4.32177,6.08691 -3.79783,6.97363 0.52393,0.88672 0.0209,2.21451 -1.11785,2.95065 -1.37,0.88562 -0.89477,2.69878 1.40467,5.35932 3.43209,3.97108 3.48958,3.92884 4.64205,-3.41117 0.64181,-4.08762 2.01686,-8.01403 3.05564,-8.72535 z m -60.70104,10.72181 c 0,-1.65208 -0.86154,-3.00378 -1.91453,-3.00378 -1.05299,0 -1.91452,1.3517 -1.91452,3.00378 0,1.65208 0.86153,3.00378 1.91452,3.00378 1.05299,0 1.91453,-1.3517 1.91453,-3.00378 z m 109.12791,-3.49418 c 0,-1.11706 -1.26983,-0.90022 -2.87179,0.4904 -1.57948,1.3711 -2.87178,3.39405 -2.87178,4.49543 0,1.11706 1.26982,0.90023 2.87178,-0.49039 1.57949,-1.3711 2.87179,-3.39405 2.87179,-4.49544 z m -41.39183,-0.79523 c 2.89751,-4.15757 3.10202,-5.48638 1.04866,-6.81376 -3.30083,-2.13379 -6.14683,-0.26981 -4.87618,3.19366 0.63717,1.73676 0.001,2.30219 -1.78401,1.58572 -3.06481,-1.23014 -3.33405,-0.53585 -1.61219,4.15749 1.58948,4.3325 3.01705,3.91293 7.22372,-2.12311 z m 9.33662,-32.245082 c -0.49112,-1.370406 -1.83714,-1.881273 -2.99118,-1.135261 -1.43632,0.928489 -1.30469,1.63307 0.41725,2.233427 1.97296,0.687884 2.00296,1.208357 0.139,2.413259 -1.38392,0.89462 -1.73627,2.619667 -0.84364,4.130347 1.15285,1.95108 1.85983,1.63429 2.85212,-1.27801 0.72563,-2.129657 0.9175,-4.993355 0.42639,-6.363762 z M 364.22335,79.369897 c 0,-6.103752 -3.63982,-2.296644 -4.93239,5.159091 -0.86726,5.002438 -0.66949,5.248849 1.98458,2.472793 1.62129,-1.695817 2.94781,-5.130165 2.94781,-7.631884 z M 251.26639,429.06716 c -1.90966,-2.40677 -1.89109,-3.00378 0.0934,-3.00378 1.36226,0 3.99243,-1.43464 5.84485,-3.18811 3.1223,-2.9555 3.29161,-2.88245 2.32062,1.00126 -0.57608,2.30416 -2.45462,4.20317 -4.17453,4.22003 -2.71843,0.0266 -2.7518,0.28436 -0.25534,1.97186 1.57948,1.06767 1.90036,1.955 0.71305,1.97186 -1.18728,0.0169 -3.23122,-1.32104 -4.54208,-2.97312 z m -95.72624,-8.01008 c 0,-2.75346 0.33033,-5.0063 0.73408,-5.0063 0.40373,0 1.1458,2.25284 1.64903,5.0063 0.50323,2.75347 0.1729,5.0063 -0.73407,5.0063 -0.90697,0 -1.64904,-2.25283 -1.64904,-5.0063 z m -1.68632,-33.67258 c -2.96919,-7.81163 -2.67801,-9.06959 0.87217,-3.76804 1.65818,2.47621 2.62241,5.60541 2.14273,6.95377 -0.47969,1.34836 -1.83639,-0.0851 -3.0149,-3.18573 z m 140.00984,2.13289 c 0.43825,-1.37674 2.42109,-2.83237 4.40628,-3.23476 3.12278,-0.63295 3.2634,-0.29545 1.04282,2.50315 -3.03682,3.82734 -6.58625,4.30388 -5.4491,0.73161 z m -164.64823,-17.828 c -5.52819,-3.3485 -10.05126,-6.95554 -10.05126,-8.01561 0,-1.06008 -0.81986,-1.39742 -1.82192,-0.74964 -1.00205,0.64775 -4.66358,-1.56187 -8.13673,-4.91026 -6.27475,-6.04942 -6.28141,-6.07549 -1.04987,-4.11294 2.89572,1.08631 5.26495,1.51038 5.26495,0.94236 0,-0.56799 2.36042,1.25657 5.24538,4.05461 2.88496,2.79804 6.22561,5.08734 7.42367,5.08734 1.19807,0 3.25082,1.3517 4.56167,3.00378 3.51795,4.4337 6.16266,3.65136 3.38474,-1.00126 -1.3152,-2.20277 -3.04558,-4.00504 -3.84527,-4.00504 -2.02815,0 -9.44042,-7.95735 -7.6762,-8.24067 0.78974,-0.12676 3.15897,-0.0993 5.26494,0.0613 3.59489,0.27408 3.62416,0.12155 0.47863,-2.49332 -1.84273,-1.53183 -3.35041,-4.26285 -3.35041,-6.06884 0,-1.80601 -0.95494,-3.28365 -2.12208,-3.28365 -1.35162,0 -1.65334,-1.99938 -0.83101,-5.50693 1.25172,-5.33916 1.1965,-5.38492 -1.8126,-1.50189 -3.07033,3.96204 -3.08268,3.9595 -1.15087,-0.23734 1.07403,-2.3333 1.40874,-4.81142 0.7438,-5.50693 -0.66495,-0.6955 -0.15302,-1.26456 1.13761,-1.26456 1.33544,0 1.75316,-1.07861 0.9694,-2.50315 -0.80014,-1.45431 -0.64694,-1.80393 0.36564,-0.83439 0.95857,0.91784 1.81322,2.26954 1.89923,3.00378 0.086,0.73427 2.04979,5.7519 4.36395,11.15032 2.31416,5.39841 4.5155,11.70635 4.89186,14.01764 0.37636,2.31129 1.46268,4.04007 2.41403,3.8417 0.95136,-0.19825 1.86778,3.26012 2.0365,7.68551 0.16871,4.42539 1.31641,9.31865 2.55043,10.87388 3.42362,4.31481 -0.0769,3.22028 -11.14821,-3.48578 z m 12.00275,-19.59743 c -0.70252,-2.31515 -2.1959,-3.58643 -3.34241,-2.84528 -1.13987,0.73685 -1.53621,0.43212 -0.88075,-0.67717 0.65546,-1.1093 -0.0456,-3.72665 -1.55783,-5.81634 -3.24447,-4.4833 -3.58707,-6.8032 -1.00467,-6.8032 2.10537,0 10.38907,17.88627 8.97076,19.36975 -0.50336,0.52651 -1.48665,-0.926 -2.1851,-3.22776 z m 51.17656,-5.50727 c 1.84273,-0.50367 4.85811,-0.50367 6.70084,0 1.84273,0.50369 0.33504,0.91581 -3.35042,0.91581 -3.68546,0 -5.19315,-0.41212 -3.35042,-0.91581 z m -84.91805,-5.06608 c 4.00946,-4.76069 7.85843,-5.79557 7.85843,-2.11293 0,0.66926 -0.58223,0.60784 -1.29386,-0.13658 -0.71162,-0.74433 -3.51161,0.68246 -6.2222,3.17065 l -4.92835,4.52408 4.58598,-5.44522 z m 72.95227,-1.5636 c 0,-2.22502 1.27635,-4.00504 2.87179,-4.00504 1.59544,0 2.87179,1.78002 2.87179,4.00504 0,2.22502 -1.27635,4.00504 -2.87179,4.00504 -1.59544,0 -2.87179,-1.78002 -2.87179,-4.00504 z m -49.25632,-9.52699 c 0.68883,-2.98776 -0.11485,-5.36838 -2.37012,-7.02064 -2.87887,-2.10911 -3.00109,-2.90181 -0.78178,-5.07024 1.58318,-1.54689 2.72587,-1.74151 2.8699,-0.48882 0.33257,2.89264 0.8145,4.52644 2.5734,8.72428 0.94618,2.25817 0.60299,4.53777 -0.90444,6.00756 -1.92675,1.87865 -2.21362,1.43351 -1.38696,-2.15214 z m 139.23899,-6.49318 c 0,-3.01609 0.99967,-4.09733 3.35042,-3.62382 1.84273,0.37119 3.35041,2.0019 3.35041,3.62382 0,1.62192 -1.50768,3.25264 -3.35041,3.62382 -2.35075,0.47352 -3.35042,-0.60772 -3.35042,-3.62382 z m -7.6581,-9.79835 c 0,-2.7805 5.56411,-4.3427 10.68201,-2.99915 7.25485,1.90453 5.4339,4.78742 -3.02391,4.78742 -4.21196,0 -7.6581,-0.80473 -7.6581,-1.78827 z M 161.14736,293.51754 c -3.38885,-2.15561 -7.39066,-5.20489 -8.89291,-6.77619 -2.36548,-2.47421 -2.20012,-2.85691 1.23443,-2.85691 3.34052,0 3.9658,-1.24431 3.9658,-7.8919 0,-8.37241 -2.76577,-12.04395 -6.2933,-8.35429 -1.56447,1.63638 -1.52014,2.86707 0.16681,4.63157 1.26359,1.32166 2.29743,3.5745 2.29743,5.0063 0,4.45491 -3.57772,2.86088 -6.45047,-2.87398 l -2.74372,-5.47725 -2.90483,6.97914 c -2.38904,5.73995 -2.93255,6.17914 -3.06099,2.47348 -0.14858,-4.28646 -3.98523,-6.69627 -3.98523,-2.50315 0,1.10138 -0.89185,2.00252 -1.98189,2.00252 -1.36616,0 -1.36616,-1.20338 0,-3.8734 2.85337,-5.57662 2.47406,-6.74094 -1.81395,-5.56807 -3.22877,0.88315 -3.50472,0.46931 -1.84716,-2.77022 1.07177,-2.09466 2.74073,-3.80848 3.70881,-3.80848 0.96808,0 -0.23255,-2.08428 -2.66806,-4.63173 -2.78108,-2.9089 -4.94839,-8.30915 -5.82669,-14.51827 -1.88224,-13.30647 -5.40584,-17.17617 -14.28733,-15.69069 -6.564,1.09786 -7.17073,0.7138 -11.448349,-7.24701 -2.8036,-5.21762 -5.03538,-7.52902 -5.88359,-6.09351 -0.98052,1.65944 -2.06115,1.43747 -3.82517,-0.78575 -1.66523,-2.0987 -1.76515,-3.09857 -0.30964,-3.09857 1.18192,0 2.14895,-0.89083 2.14895,-1.97963 0,-3.34254 -6.312696,-9.90395 -8.295418,-8.62224 -1.045283,0.67571 -1.258331,0.17488 -0.483462,-1.13651 0.76195,-1.28952 2.402752,-1.69293 3.646228,-0.89645 6.676862,4.27671 14.802701,10.44815 17.575191,13.34806 1.73094,1.8105 6.00052,3.29181 9.48795,3.29181 4.60876,0 6.5994,1.03435 7.28751,3.78663 0.80844,3.23359 2.30904,3.6501 10.27455,2.85181 6.2476,-0.62612 8.46603,-0.30341 6.71804,0.97727 -2.20337,1.61431 -2.20337,2.08114 0,2.99766 1.85296,0.77075 1.91578,1.13142 0.21664,1.24366 -2.971,0.19627 -3.20743,6.16566 -0.24421,6.16566 1.48472,0 1.41227,0.92845 -0.23442,3.00378 -1.91146,2.40901 -1.8631,3.67466 0.2442,6.39196 2.13878,2.75789 2.14815,3.08629 0.0504,1.76536 -1.84666,-1.1628 -2.3865,-0.58711 -1.90447,2.03096 0.37,2.00957 2.82205,4.27929 5.44899,5.04383 3.02071,0.87915 3.54479,1.46346 1.42584,1.5897 -1.84273,0.10974 -3.35042,1.61203 -3.35042,3.33834 0,2.22742 1.11173,2.76965 3.82905,1.86757 2.9862,-0.99135 3.82905,-0.35985 3.82905,2.86883 0,3.89923 1.79263,5.00108 7.0351,4.32414 1.23684,-0.1598 2.79537,0.63466 3.46341,1.76527 0.66804,1.1306 2.88685,2.05562 4.93068,2.05562 4.13854,0 4.77907,2.09218 1.64435,5.37096 -3.31063,3.4628 1.7681,9.90335 10.06885,12.76875 9.07276,3.13193 9.35242,6.56835 0.75902,9.32696 -5.47434,1.75733 -7.5798,1.45722 -12.72158,-1.8134 z m 25.02519,-16.76011 c 0,-2.81847 0.78065,-4.61984 1.73479,-4.00304 0.95413,0.61679 1.28442,2.9228 0.73397,5.12449 -1.37759,5.51003 -2.46876,5.01437 -2.46876,-1.12145 z m -76.38954,-4.08711 c -1.1012,-4.17155 -1.65758,-7.94508 -1.23638,-8.38563 0.42119,-0.44056 1.66679,2.61207 2.768,6.78362 1.10121,4.17155 1.65758,7.94508 1.23638,8.38563 -0.42119,0.44055 -1.66679,-2.61207 -2.768,-6.78362 z m 5.93503,-12.21537 c -2.8331,-9.65535 -1.46195,-11.08952 1.53162,-1.60202 1.26288,4.00244 1.92383,7.66659 1.46879,8.14255 -0.45504,0.47596 -1.80523,-2.46729 -3.00041,-6.54053 z m 106.83048,-1.60202 c 0,-1.65208 0.86154,-3.00378 1.91452,-3.00378 1.05299,0 1.91453,1.3517 1.91453,3.00378 0,1.65208 -0.86154,3.00378 -1.91453,3.00378 -1.05298,0 -1.91452,-1.3517 -1.91452,-3.00378 z m -28.71787,-3.93459 c 0,-0.58944 1.72307,-2.87398 3.82905,-5.07675 2.10597,-2.20277 3.82905,-6.55825 3.82905,-9.67884 0,-7.33832 1.87166,-9.17062 4.91734,-4.81398 1.70004,2.4318 1.82954,4.21701 0.4335,5.97644 -1.39383,1.75665 -1.34637,2.50882 0.15834,2.50882 1.18191,0 2.14893,0.99753 2.14893,2.21677 0,1.21921 -1.38822,1.65957 -3.08495,0.97855 -2.19957,-0.88285 -2.76881,-0.37651 -1.98342,1.76424 0.60585,1.65136 0.48638,2.82183 -0.26547,2.60106 -0.75185,-0.22078 -3.30545,0.72286 -5.67467,2.09699 -2.36923,1.37413 -4.30768,2.01614 -4.30768,1.4267 z m 4.70564,-27.24099 c -0.69515,-1.17647 -2.44147,-1.6664 -3.88072,-1.08872 -1.43925,0.57768 -3.12979,0.18219 -3.75674,-0.87889 -2.37116,-4.01294 4.83377,-4.07171 8.93738,-0.0729 2.35899,2.29875 3.31593,4.17954 2.12653,4.17954 -1.1894,0 -2.7313,-0.96257 -3.42645,-2.13904 z m 10.52572,-6.97922 c -1.91104,-2.4085 -1.93325,-3.58558 -0.10357,-5.48489 1.82446,-1.89382 2.06701,-1.69625 1.11844,0.91098 -0.81882,2.25059 -0.0802,3.56344 2.27972,4.05203 2.26192,0.46829 2.72481,1.22723 1.31478,2.15562 -1.19692,0.78807 -3.27117,0.0529 -4.60944,-1.63374 z m -27.51292,-3.43216 c 0.26143,-2.45905 0.64914,-4.92157 0.86159,-5.47227 0.21244,-0.55069 0.27194,-1.7157 0.13221,-2.5889 -0.13972,-0.87321 1.69671,-0.44245 4.08096,0.95724 l 4.33501,2.54489 -4.46356,0.70529 c -3.61763,0.57162 -3.97613,1.14925 -1.8916,3.0478 1.41457,1.28838 2.21014,2.12504 1.76793,1.85925 -0.44222,-0.26579 -1.81515,0.39446 -3.05095,1.46723 -1.62042,1.40664 -2.11438,0.70386 -1.77159,-2.52053 z m 16.26175,0.0347 c -0.0831,-1.92742 -0.82067,-3.50441 -1.63899,-3.50441 -0.81832,0 -4.19979,-2.59082 -7.51439,-5.75737 -4.19726,-4.00982 -5.41821,-6.39366 -4.02242,-7.8536 1.10225,-1.15292 3.22812,-1.60493 4.72414,-1.00446 3.45025,1.38484 10.74112,16.14201 9.5208,19.27069 -0.5049,1.29446 -0.98601,0.77658 -1.06914,-1.15085 z m -63.33046,-11.3963 c 0,-1.16639 -2.15384,-2.12071 -4.78631,-2.12071 -5.10904,0 -5.76464,-1.2897 -2.98839,-5.87879 1.44145,-2.38268 2.25606,-2.42642 4.757,-0.25543 2.53636,2.20174 3.0177,2.10135 3.0177,-0.6294 0,-1.78694 -1.34646,-3.24898 -2.99213,-3.24898 -1.84903,0 -2.76334,-1.41255 -2.39327,-3.69741 0.32938,-2.03357 -0.53565,-5.12724 -1.92229,-6.87482 -2.13368,-2.6891 -1.8657,-3.86299 1.74364,-7.63823 l 4.26478,-4.46079 -4.34878,-3.68328 c -4.30487,-3.64609 -4.30797,-3.68327 -0.30762,-3.68327 2.45133,0 4.04115,-1.27818 4.04115,-3.24898 0,-2.61836 -0.54145,-2.77897 -2.78955,-0.82746 -2.20997,1.91841 -3.69069,1.76133 -7.12683,-0.75606 -2.38551,-1.74767 -3.28405,-3.17759 -1.99677,-3.17759 1.28729,0 2.34052,-0.95431 2.34052,-2.1207 0,-1.16639 -0.86153,-1.56377 -1.91452,-0.88308 -1.05299,0.6807 -1.91453,0.28897 -1.91453,-0.87051 0,-2.57423 5.15186,-1.82564 11.15344,1.62064 4.05961,2.33115 4.28635,2.23414 2.56895,-1.09918 -1.03601,-2.01079 -4.11659,-5.84062 -6.84576,-8.51073 -2.72915,-2.6701 -4.9621,-5.55236 -4.9621,-6.40501 0,-2.48143 -9.51558,-12.52689 -12.26609,-12.94913 -3.51705,-0.53992 -2.74995,6.26434 1.25757,11.15477 3.25094,3.96716 4.4238,8.04781 2.3131,8.04781 -3.43077,0 -8.22649,-7.73986 -7.72957,-12.47482 0.31176,-2.97061 -0.84373,-7.01112 -2.56777,-8.9789 -4.005259,-4.57153 -3.113489,-11.98541 1.011,-8.40506 3.80824,3.30582 5.33713,1.03725 2.73214,-4.05394 -1.187,-2.31987 -1.55445,-5.23968 -0.81657,-6.48848 0.83622,-1.41522 0.48439,-1.7164 -0.93397,-0.79951 -1.60636,1.03841 -2.01008,-0.0604 -1.37278,-3.736437 0.52236,-3.01306 0.13331,-4.710028 -0.92325,-4.027024 -1.00432,0.649235 -1.24811,2.158528 -0.54174,3.353984 0.74851,1.26679 0.39707,1.60002 -0.84242,0.79876 -1.169699,-0.75614 -1.587169,-2.845467 -0.927719,-4.642951 0.885319,-2.413161 0.4878,-2.843413 -1.51951,-1.644612 -2.19493,1.310852 -2.26002,1.106685 -0.33797,-1.060058 1.96662,-2.216993 3.381389,-1.68065 8.136729,3.084656 3.1659,3.172545 5.75619,7.026492 5.75619,8.564332 0,1.53784 2.8,5.71424 6.22221,9.28088 8.19402,8.53984 14.82431,16.87842 14.89178,18.72866 0.0768,2.10715 16.59297,20.45346 17.53038,19.47296 0.42598,-0.44556 0.42689,2.53433 0.002,6.62196 -0.58658,5.6435 -0.23114,6.89418 1.47697,5.19697 3.2402,-3.21954 4.35626,-13.29985 2.14579,-19.38104 -1.50627,-4.14388 -1.36105,-5.00999 0.70122,-4.18225 1.4305,0.57416 3.08239,2.96979 3.67089,5.32363 0.58849,2.35383 1.59723,3.72822 2.24163,3.05419 0.64441,-0.67402 -0.52234,-5.09046 -2.59276,-9.81431 -4.14678,-9.46123 -3.52386,-14.63068 1.5943,-13.23073 2.48072,0.67853 3.08475,-0.0415 2.38447,-2.84244 -1.07513,-4.29996 -3.54603,-4.91961 -4.97665,-1.24803 -0.65482,1.68054 -2.26618,0.85793 -4.90329,-2.50315 -2.70413,-3.44652 -3.95934,-4.07044 -4.02872,-2.00252 -0.0793,2.36393 -0.51829,2.25391 -2.06072,-0.51649 -1.07796,-1.93615 -1.34941,-4.5535 -0.60323,-5.81634 0.89437,-1.51363 0.50267,-1.74399 -1.14946,-0.67599 -1.62062,1.04763 -2.04297,0.8362 -1.1953,-0.5984 1.24401,-2.10536 -1.36029,-6.43455 -8.85595,-14.721453 -3.2012,-3.539122 -3.17485,-3.704092 0.59162,-3.704092 2.52223,0 3.44345,0.843814 2.55772,2.342827 -0.9308,1.57529 -0.3406,1.923905 1.80153,1.064109 1.75222,-0.703295 3.18586,-0.405867 3.18586,0.660954 0,1.066819 1.39779,1.939671 3.10621,1.939671 2.54183,0 2.67384,0.544914 0.72659,2.999057 -1.95396,2.462587 -1.42761,4.304587 2.94253,10.297467 4.72214,6.47561 5.58134,6.92766 7.6212,4.00977 4.18415,-5.98516 8.57777,-2.64336 8.57777,6.52427 0,7.20262 6.06112,24.93013 7.62108,22.29005 1.88998,-3.19861 5.78059,3.40956 5.78059,9.81831 0,5.56418 -3.35172,5.28262 -4.39243,-0.36899 l -0.8297,-4.50567 -0.26072,4.50567 c -0.31156,5.38411 -3.64906,5.85029 -7.16824,1.00126 -2.25755,-3.11063 -2.55017,-3.13818 -2.60422,-0.2452 -0.088,4.7079 5.46295,8.81024 10.9108,8.06352 l 4.69577,-0.64363 -4.30914,6.09631 c -2.37003,3.35297 -4.93605,5.69105 -5.70228,5.19573 -0.76622,-0.49532 -2.45778,0.4412 -3.75901,2.08115 -1.30123,1.63996 -3.37772,2.98174 -4.61442,2.98174 -1.2367,0 -4.36197,2.66524 -6.94504,5.92276 -2.58308,3.25752 -6.0659,5.96092 -7.73961,6.00756 -3.29646,0.0919 -7.48678,7.97154 -7.48678,14.07848 0,2.08595 -0.86154,4.34957 -1.91452,5.03026 -1.05299,0.6807 -1.91453,0.28331 -1.91453,-0.88307 z m 0.19873,-28.74662 c -2.45727,-2.57021 -4.94915,-0.58374 -3.12994,2.4951 0.7047,1.19263 2.15834,1.60144 3.23032,0.90847 1.30762,-0.8453 1.27459,-1.9654 -0.10038,-3.40357 z m 5.61445,-8.33047 c -3.15369,-3.97461 -0.66961,-8.10779 2.97263,-4.94607 2.13666,1.85478 2.70134,1.6658 2.70134,-0.90402 0,-1.78694 -0.79108,-3.24898 -1.75794,-3.24898 -0.96687,0 -2.9071,-0.46124 -4.31162,-1.02497 -1.40452,-0.56374 -3.64681,0.80585 -4.98286,3.04355 -1.96302,3.28776 -1.96227,4.62271 0.004,6.95636 3.39295,4.02706 8.56612,4.14653 5.37451,0.12412 z m -30.702,33.83687 c -6.80734,-3.88181 -22.974299,-23.14175 -22.974299,-27.36963 0,-1.95315 -0.861535,-3.55118 -1.914523,-3.55118 -1.052989,0 -1.914525,-1.40489 -1.914525,-3.12197 0,-4.92133 2.981189,-1.81919 13.397448,13.941 7.169739,10.84809 11.262229,15.13994 15.708499,16.47372 3.30702,0.99203 6.36744,2.91664 6.80094,4.2769 1.00178,3.14349 -2.94663,2.86207 -9.10354,-0.64884 z m 8.43898,-6.13065 c 0.91538,-2.49508 0.29942,-3.00137 -2.66505,-2.19052 -2.12057,0.58004 -4.33806,0.23807 -4.92775,-0.75992 -0.58969,-0.99798 -0.15978,-1.81452 0.95535,-1.81452 3.19773,0 2.40191,-2.54275 -2.76113,-8.82218 -2.81235,-3.42046 -4.80907,-4.65841 -4.84486,-3.00378 -0.0429,1.98398 -0.87234,1.69335 -2.81046,-0.98481 -1.512269,-2.08968 -2.295559,-4.5678 -1.740649,-5.50693 0.55491,-0.93913 -0.11883,-1.71508 -1.49722,-1.72435 -3.10443,-0.0209 -13.506149,-19.99593 -10.43503,-20.03902 1.32853,-0.0186 1.16691,-0.70562 -0.41225,-1.75221 -1.840427,-1.21975 -1.970834,-2.12667 -0.447399,-3.11148 2.321439,-1.50068 1.053269,-5.11825 -1.794256,-5.11825 -0.957797,0 -1.245546,1.3517 -0.63944,3.00378 2.197916,5.99094 -0.972001,2.80092 -5.826573,-5.86352 -6.507083,-11.61384 -6.278992,-12.1284 1.68411,-3.7993 3.658789,3.82696 7.535698,6.38706 8.615358,5.68913 1.07966,-0.69794 1.96302,-0.29064 1.96302,0.9051 0,1.19573 2.50381,5.07874 5.56403,8.62889 9.168419,10.63628 23.359499,34.04492 22.333879,36.84047 -0.52622,1.43434 0.0892,2.39342 1.36749,2.13129 1.27834,-0.26214 2.59687,2.00151 2.93006,5.03032 0.4473,4.0661 -0.23244,5.50693 -2.59799,5.50693 -2.16714,0 -2.81856,-1.05002 -2.01324,-3.24512 z m -44.536656,-7.45893 c -2.259039,-2.51516 -4.107344,-5.31232 -4.107344,-6.2159 0,-0.90359 1.842728,0.80744 4.09495,3.80227 3.145371,4.18248 4.470452,4.82556 5.714257,2.77321 1.104057,-1.82175 1.628636,-1.91307 1.648624,-0.28698 0.05558,4.5211 -3.25392,4.48841 -7.350487,-0.0726 z M 186.17255,163.06571 c 0,-3.92093 1.6723,-5.03136 5.85443,-3.88744 5.44777,1.4901 4.62237,6.55747 -1.06812,6.55747 -2.71224,0 -4.78631,-1.15702 -4.78631,-2.67003 z M 78.959163,150.85178 c 0,-1.57786 -1.645271,-3.41503 -3.656158,-4.08259 -2.010887,-0.66757 -4.717354,-2.55119 -6.014372,-4.18583 -1.97673,-2.49129 -1.772417,-2.74755 1.263002,-1.58415 5.201247,1.9935 14.150595,10.05191 12.768594,11.49743 -2.072956,2.16823 -4.361066,1.30523 -4.361066,-1.64486 z m 2.441374,-15.60609 c -2.813777,-3.71354 -6.554782,-11.56288 -5.510889,-11.56288 1.554027,0 9.272733,12.20186 8.337506,13.18007 -0.491314,0.5139 -1.763292,-0.21384 -2.826617,-1.61719 z M 269.1067,127.13942 c 0.43528,-3.05509 0.0454,-6.03696 -0.86634,-6.62637 -0.91178,-0.58941 -1.65777,0.33324 -1.65777,2.05032 0,1.71707 -0.84331,3.12196 -1.87401,3.12196 -1.03071,0 -0.38456,-3.03018 1.43589,-6.73372 3.0207,-6.14536 3.51752,-6.4242 5.68604,-3.19133 1.92098,2.86386 1.81189,4.82494 -0.56955,10.23813 -2.77407,6.30565 -2.89959,6.37213 -2.15426,1.14101 z m 13.92575,0.84697 c -0.72091,-1.22006 -0.23165,-4.26447 1.0872,-6.76535 2.0325,-3.85408 2.50328,-4.02257 3.08913,-1.10556 0.91926,4.57718 -2.4124,10.8562 -4.17633,7.87091 z m -114.56926,-5.62981 c 1.31624,-0.55553 2.39316,-1.88927 2.39316,-2.96387 0,-1.07461 -0.86154,-1.3969 -1.91452,-0.7162 -1.05299,0.68069 -1.91453,-0.0922 -1.91453,-1.71746 0,-3.79813 4.05221,-5.22404 6.93412,-2.44001 2.98182,2.88056 -0.25964,9.21508 -4.60832,9.00568 -1.9967,-0.0962 -2.34538,-0.55385 -0.88991,-1.16814 z m 121.8543,-1.86359 c 0.64364,-1.7544 1.69073,-5.35893 2.32689,-8.01008 0.63616,-2.65114 2.01697,-4.82026 3.06847,-4.82026 1.05149,0 1.38518,1.43541 0.74153,3.18981 -0.64364,1.7544 -1.69073,5.35894 -2.32689,8.01008 -0.63616,2.65115 -2.01697,4.82027 -3.06847,4.82027 -1.05149,0 -1.38518,-1.43542 -0.74153,-3.18982 z m -150.57217,-3.25156 c -4.18433,-5.47743 -4.789,-11.36956 -0.73121,-7.12527 2.40525,2.5158 6.097,11.59905 4.68928,11.5376 -0.33421,-0.0146 -2.11534,-2.00014 -3.95807,-4.41233 z m -47.481919,-4.07185 c -1.3126,-3.57951 -2.4738,-7.21691 -2.58045,-8.08313 -0.10665,-0.86621 -1.48621,-2.42939 -3.06569,-3.47374 -1.579481,-1.04435 -1.986563,-1.912617 -0.904623,-1.929477 1.081943,-0.0168 3.937643,1.412947 6.346013,3.177367 5.26903,3.8602 7.61962,2.28122 3.95842,-2.65901 -2.17097,-2.929387 -1.87496,-2.875897 1.68695,0.3048 2.375969,2.12168 3.653419,4.37452 2.838789,5.0063 -0.814619,0.63178 -1.481139,2.5004 -1.481139,4.15248 0,1.65207 -0.98856,2.8093 -2.1968,2.57161 -1.30157,-0.25606 -1.79572,1.17205 -1.2126,3.50441 1.58135,6.32504 -0.78495,4.5294 -3.38887,-2.57161 z M 149.79658,99.819443 c 0,-2.45977 1.23619,-4.171917 3.01217,-4.171917 1.78288,0 2.75954,1.362455 2.39315,3.338467 -0.93151,5.023857 -5.40532,5.713677 -5.40532,0.83345 z m 132.12834,2.550517 c 0.0153,-0.94387 0.54564,-3.743687 1.18057,-6.221804 1.57998,-6.166683 6.4514,-5.788659 6.4514,0.50063 0,2.753467 -0.36032,5.006294 -0.80068,5.006294 -0.44038,0 -2.16345,0.54698 -3.82905,1.21551 -1.66561,0.66853 -3.01662,0.44325 -3.00224,-0.50063 z M 158.46362,91.729943 c -0.62236,-1.053283 -2.30914,-1.442417 -3.74839,-0.86474 -1.43925,0.577675 -3.26784,-0.05148 -4.06354,-1.398126 -0.97073,-1.642853 -0.64906,-1.932796 0.97765,-0.881225 1.36649,0.883354 3.045,0.516895 3.84665,-0.839817 1.06796,-1.807414 2.15019,-1.645653 4.34434,0.649348 1.60715,1.681013 3.45541,2.49854 4.10726,1.81673 0.65186,-0.68181 1.18519,-0.188331 1.18519,1.096618 0,2.806715 -5.05058,3.126658 -6.64916,0.421212 z M 128.84158,86.50414 c 1.23097,-1.551402 1.79312,-4.033721 1.24921,-5.51626 -0.54391,-1.482542 0.006,-2.695471 1.2217,-2.695401 3.93512,2.32e-4 3.06024,8.907297 -0.98354,10.013373 -3.02702,0.827966 -3.30588,0.490169 -1.48737,-1.801712 z m 32.44215,-0.869216 c 0,-1.101386 0.96702,-2.00252 2.14895,-2.00252 1.40657,0 1.24123,-1.210624 -0.47864,-3.504411 -2.38142,-3.176109 -2.3137,-3.246938 0.72284,-0.756061 4.10448,3.366899 4.38814,8.265513 0.47863,8.265513 -1.57948,0 -2.87178,-0.901134 -2.87178,-2.002521 z M 324.68855,54.694078 c -1.72072,-1.957035 -0.94603,-2.541248 3.54706,-2.674866 3.16172,-0.09404 5.44473,0.02639 5.07334,0.267603 -0.37138,0.241207 -1.96756,1.444898 -3.54704,2.674866 -2.14247,1.668368 -3.43091,1.600406 -5.07336,-0.267603 z"
       id="path6328"
       inkscape:connector-curvature="0" />
  </g>
</svg>
