<?xml version="1.0" encoding="UTF-8" standalone="no"?>
<svg
   xmlns:dc="http://purl.org/dc/elements/1.1/"
   xmlns:cc="http://creativecommons.org/ns#"
   xmlns:rdf="http://www.w3.org/1999/02/22-rdf-syntax-ns#"
   xmlns:svg="http://www.w3.org/2000/svg"
   xmlns="http://www.w3.org/2000/svg"
   xmlns:sodipodi="http://sodipodi.sourceforge.net/DTD/sodipodi-0.dtd"
   xmlns:inkscape="http://www.inkscape.org/namespaces/inkscape"
   sodipodi:docname="shadow armor.svg"
   height="100%"
   width="100%"
   inkscape:version="0.48.4 r9939"
   version="1.1"
   id="svg8438"
   viewBox="0 0 512 512">
  <metadata
     id="metadata8464">
    <rdf:RDF>
      <cc:Work
         rdf:about="">
        <dc:format>image/svg+xml</dc:format>
        <dc:type
           rdf:resource="http://purl.org/dc/dcmitype/StillImage" />
        <dc:title></dc:title>
      </cc:Work>
    </rdf:RDF>
  </metadata>
  <defs
     id="defs8462">
    <linearGradient
       id="linearGradient4077">
      <stop
         id="stop4079"
         offset="0"
         style="stop-color:#aa4400;stop-opacity:1;" />
      <stop
         style="stop-color:#ff9f00;stop-opacity:1;"
         offset="0.22752622"
         id="stop4081" />
      <stop
         style="stop-color:#803300;stop-opacity:1;"
         offset="0.4948855"
         id="stop4083" />
      <stop
         id="stop4085"
         offset="1"
         style="stop-color:#562200;stop-opacity:1;" />
    </linearGradient>
    <linearGradient
       id="linearGradient4057">
      <stop
         style="stop-color:#aa4400;stop-opacity:1;"
         offset="0"
         id="stop4059" />
      <stop
         id="stop4067"
         offset="0.22752622"
         style="stop-color:#ecd1a4;stop-opacity:1;" />
      <stop
         id="stop4065"
         offset="0.50136983"
         style="stop-color:#803300;stop-opacity:1;" />
      <stop
         style="stop-color:#562200;stop-opacity:1;"
         offset="1"
         id="stop4061" />
    </linearGradient>
    <linearGradient
       id="linearGradient3890">
      <stop
         style="stop-color:#701b1b;stop-opacity:1;"
         offset="0"
         id="stop3892" />
      <stop
         style="stop-color:#e31600;stop-opacity:1;"
         offset="1"
         id="stop3894" />
    </linearGradient>
    <linearGradient
       id="linearGradient3882">
      <stop
         style="stop-color:#600b0b;stop-opacity:1;"
         offset="0"
         id="stop3884" />
      <stop
         style="stop-color:#d11414;stop-opacity:1;"
         offset="1"
         id="stop3886" />
    </linearGradient>
    <linearGradient
       id="linearGradient3872">
      <stop
         style="stop-color:#800600;stop-opacity:1;"
         offset="0"
         id="stop3874" />
      <stop
         style="stop-color:#ff0004;stop-opacity:0;"
         offset="1"
         id="stop3876" />
    </linearGradient>
    <filter
       id="filter4074"
       inkscape:label="Black Light"
       inkscape:menu="Color"
       inkscape:menu-tooltip="Light areas turn to black"
       x="0"
       width="1"
       y="0"
       height="1"
       color-interpolation-filters="sRGB">
      <feColorMatrix
         id="feColorMatrix4076"
         type="luminanceToAlpha"
         result="result2" />
      <feComposite
         in2="SourceGraphic"
         id="feComposite4078"
         operator="arithmetic"
         in="result2"
         k3="2"
         result="result4" />
      <feBlend
         in2="result2"
         id="feBlend4080"
         in="result4"
         mode="multiply"
         result="result3" />
      <feComposite
         in2="SourceGraphic"
         id="feComposite4082"
         operator="in"
         in="result3" />
    </filter>
  </defs>
  <sodipodi:namedview
     pagecolor="#000000"
     bordercolor="#666666"
     borderopacity="1"
     objecttolerance="10"
     gridtolerance="10"
     guidetolerance="10"
     inkscape:pageopacity="0"
     inkscape:pageshadow="2"
     inkscape:window-width="1190"
     inkscape:window-height="1126"
     id="namedview8460"
     showgrid="false"
     inkscape:zoom="1.4142136"
     inkscape:cx="267.43138"
     inkscape:cy="235.5794"
     inkscape:window-x="160"
     inkscape:window-y="130"
     inkscape:window-maximized="0"
     inkscape:current-layer="svg8438" />
  <path
     style="fill:#000000"
     id="path3978"
     d="M -13.466093,0.1885736 H 514.89024 V 516.42957 H -13.466093 z"
     inkscape:connector-curvature="0" />
  <path
     transform="matrix(0.92592215,0,0,1,-12.92858,0)"
     sodipodi:end="6.1122693"
     sodipodi:start="6.11213"
     d="m 101.95774,-78.577314 a 39.244427,23.688076 0 0 1 9.3e-4,0.0033 l -38.672613,4.028989 z"
     sodipodi:ry="23.688076"
     sodipodi:rx="39.244427"
     sodipodi:cy="-74.545074"
     sodipodi:cx="63.286057"
     id="path4121"
     style="fill:#333333;fill-opacity:1;fill-rule:nonzero;stroke:none"
     sodipodi:type="arc" />
  <path
     transform="matrix(0.92592215,0,0,1,-12.92858,0)"
     sodipodi:end="6.1122693"
     sodipodi:start="6.11213"
     d="m 76.035958,-54.360671 a 10.606602,11.755651 0 0 1 2.51e-4,0.0016 l -10.452057,1.999461 z"
     sodipodi:ry="11.755651"
     sodipodi:rx="10.606602"
     sodipodi:cy="-52.359596"
     sodipodi:cx="65.584152"
     id="path4123"
     style="fill:#333333;fill-opacity:1;fill-rule:nonzero;stroke:none"
     sodipodi:type="arc" />
  <g
     id="g4922"
     transform="matrix(2.2323861,0,0,2.1687603,-272.72219,-209.54794)">
    <path
       style="fill:#a3a19d"
       d="m 203.34524,325.55406 c -14.29914,-2.08928 -21.05684,-6.73175 -24.0745,-16.53892 -0.59232,-1.925 -2.23104,-5.70196 -3.6416,-8.39324 -3.71642,-7.09077 -3.5555,-13.4318 0.53286,-20.99753 1.92065,-3.55427 3.18324,-7.33879 3.18324,-9.54153 0,-2.00793 0.72273,-9.03208 1.60606,-15.60924 1.70384,-12.68653 1.47075,-45.78165 -0.33516,-47.58756 -0.52421,-0.52421 -2.69519,2.72589 -5.25559,7.86797 -7.72796,15.52019 -12.77507,22.26113 -16.66745,22.26113 -8.70145,0 -30.34786,-13.34385 -30.34786,-18.70783 0,-3.44554 20.04823,-40.91464 32.372,-60.50158 10.06328,-15.9942 21.47772,-25.45765 37.12562,-30.77998 4.77052,-1.6226 5.05139,-1.92276 6.18078,-6.60523 3.6141,-14.98404 8.03202,-20.553277 9.82577,-12.38637 0.36193,1.64783 2.42155,5.34306 4.57694,8.21162 2.15539,2.86855 3.91889,5.67659 3.91889,6.24008 0,2.53916 8.60698,17.52929 10.0649,17.52929 0.94212,0 3.40485,-3.3221 6.11585,-8.25 2.49623,-4.5375 6.70726,-12.1875 9.35785,-17 2.65059,-4.8125 5.33039,-8.75 5.95511,-8.75 1.57023,0 4.50629,6.45779 4.50629,9.91148 0,3.39098 1.31594,4.58759 6,5.45592 7.08801,1.31398 17.88509,5.91513 22.62546,9.64179 10.47337,8.23367 13.15729,11.21185 19.07999,21.17191 8.68314,14.60219 32.29455,61.17372 32.29455,63.69828 0,5.2198 -23.32743,17.12062 -33.55906,17.12062 -3.9156,0 -4.50193,-0.69747 -7.98623,-9.5 -1.52394,-3.85 -3.92101,-8.8 -5.32681,-11 l -2.55601,-4 -0.8311,6 c -0.89711,6.47656 -0.27624,34.70796 1.06662,48.5 0.56525,5.80548 1.66566,10.24513 3.47128,14.0051 1.45403,3.0278 3.20056,8.75257 3.8812,12.72171 1.09231,6.3699 1.03909,7.63271 -0.45358,10.76288 -0.9301,1.95044 -2.70702,4.00997 -3.9487,4.57674 -1.24169,0.56677 -3.27002,2.57724 -4.50742,4.46772 -4.94721,7.55827 -13.3916,10.62224 -32.8779,11.92941 -11.8259,0.79331 -16.91639,-0.24637 -21.67854,-4.42759 l -3.27999,-2.87987 -2.27575,4.28983 c -1.25167,2.35941 -3.25726,4.77807 -4.45688,5.3748 -2.1926,1.09068 -9.74816,3.25816 -10.68113,3.06413 -0.275,-0.0572 -4.325,-0.66287 -9,-1.34594 z"
       id="path4936"
       inkscape:connector-curvature="0" />
    <path
       style="fill:#86827b"
       d="m 199.34524,324.42014 c -8.31105,-2.21131 -14.12147,-6.18565 -16.70882,-11.42887 -10.10462,-20.47682 -10.64219,-23.84067 -5.31765,-33.27523 2.73784,-4.85118 3.38064,-7.34591 4.3661,-16.94481 1.27485,-12.41777 1.53025,-52.66103 0.36179,-57.00609 -0.40674,-1.5125 -1.06845,-2.74347 -1.47047,-2.73548 -0.40202,0.008 -3.10657,4.84548 -6.01011,10.75 -2.90354,5.90451 -6.96425,13.21048 -9.02379,16.23548 -3.57854,5.25607 -3.93268,5.49613 -7.9849,5.41265 -7.55973,-0.15572 -28.21215,-12.54619 -28.21215,-16.92594 0,-2.81208 19.74929,-39.62697 31.11544,-58.0027 11.47852,-18.55737 19.78828,-25.61213 38.34757,-32.55605 5.02042,-1.87838 5.51778,-2.34848 6.06969,-5.737 0.33064,-2.03003 1.29523,-5.49096 2.14351,-7.69096 0.84829,-2.2 1.93352,-5.0125 2.41163,-6.25 1.22265,-3.16465 2.30981,-2.80467 3.77613,1.25035 0.69616,1.92519 2.29863,4.73769 3.56105,6.25 1.26242,1.51231 4.67316,7.60606 7.57942,13.54168 4.52415,9.23992 7.07846,12.70797 9.35977,12.70797 0.27264,0 2.38148,-3.4875 4.68633,-7.75 12.28275,-22.71523 14.36277,-26.25 15.44671,-26.25 1.11397,0 2.70091,4.08976 3.96338,10.21416 0.45253,2.19533 1.37,2.9186 4.79943,3.78359 8.72832,2.20151 18.82747,6.28675 22.47231,9.09035 2.0722,1.59393 5.43249,4.01752 7.46732,5.38576 6.23571,4.19296 13.75061,16.63376 33.18019,54.92931 6.39107,12.59674 11.62012,23.42505 11.62012,24.06291 0,4.90613 -22.87706,16.53392 -32.52963,16.53392 -2.78173,0 -3.38129,-0.51657 -4.93274,-4.25 -3.03158,-7.29519 -8.51709,-18.14202 -10.45767,-20.67858 -1.84989,-2.41803 -1.86111,-2.3742 -2.57936,10.07853 -1.20034,20.81114 0.94638,53.8309 3.78098,58.15705 2.00855,3.06543 5.71842,16.02279 5.71842,19.97256 0,3.28852 -2.56854,8.72044 -4.12354,8.72044 -0.5897,0 -3.52541,2.65463 -6.5238,5.89917 -2.99839,3.24455 -6.66685,6.36908 -8.15214,6.94341 -7.67066,2.96608 -30.55631,4.94652 -37.02689,3.20417 -2.38784,-0.64297 -5.58334,-2.59742 -7.53882,-4.6109 l -3.39417,-3.49488 -2.37032,4.77807 c -3.41522,6.88438 -7.54373,9.29713 -15.7682,9.21515 -3.63117,-0.0362 -9.07712,-0.72433 -12.10212,-1.52919 z"
       id="path4934"
       inkscape:connector-curvature="0" />
    <path
       style="fill:#837c73"
       d="m 199.27033,324.12375 c -11.72173,-3.75066 -16.06268,-7.55167 -18.96223,-16.60364 -0.70384,-2.19727 -2.33341,-5.97679 -3.62128,-8.39894 -3.36104,-6.32125 -3.11775,-12.00598 0.80744,-18.86649 2.81702,-4.92363 3.30925,-7.04509 4.66879,-20.12173 2.43013,-23.37408 1.66158,-57.61781 -1.29314,-57.61781 -0.53643,0 -3.46143,4.95133 -6.5,11.00295 -6.13962,12.22769 -9.74343,18.08341 -12.82469,20.83844 -1.94202,1.73641 -2.36273,1.75132 -7.3797,0.26148 -8.24286,-2.4478 -19.33967,-9.3982 -23.62706,-14.7986 -1.43119,-1.80273 2.01897,-9.0722 18.17958,-38.30427 18.31936,-33.13693 25.54999,-41.68436 41.6272,-49.20806 5.225,-2.44516 10.625,-4.98867 12,-5.65226 1.46466,-0.70685 2.63039,-2.22802 2.81485,-3.6731 0.41128,-3.22207 4.28091,-15.21352 5.27554,-16.34818 0.42504,-0.48487 1.45278,0.74583 2.28387,2.73491 0.83109,1.98907 3.11187,5.713 5.0684,8.27539 1.95654,2.5624 3.55734,5.12265 3.55734,5.68944 0,1.57095 8.1297,17.07995 9.39172,17.91655 2.22509,1.47503 4.14396,0.62825 5.70431,-2.51726 5.56399,-11.21647 15.84865,-29.56521 16.95479,-30.24884 1.07963,-0.66725 3.94918,5.89492 3.94918,9.03109 0,3.07245 1.44744,4.04923 8.83065,5.95919 8.62242,2.23054 16.64301,5.90108 21.40242,9.79459 12.72305,10.40832 15.90367,15.32017 38.28342,59.12135 l 11.68764,22.87482 -1.88184,2.52052 c -4.53862,6.07899 -29.11072,16.11464 -33.17668,13.5499 -0.89307,-0.56333 -2.35742,-3.07486 -3.25411,-5.58117 -0.89669,-2.5063 -3.81783,-8.53536 -6.49143,-13.3979 l -4.86108,-8.84098 -1.30784,11.5 c -2.07434,18.23978 0.49329,53.74873 4.44702,61.5 2.77828,5.44681 5.68191,17.9292 4.89758,21.0542 -0.70456,2.80718 -13.60217,16.36922 -17.57575,18.48117 -4.1026,2.18053 -15.7946,3.85598 -27.29966,3.91202 -11.6955,0.057 -14.94056,-0.89474 -18.50596,-5.42741 -1.09022,-1.38599 -2.24738,-2.51998 -2.57145,-2.51998 -0.32408,0 -1.72579,2.24288 -3.11491,4.98418 -4.42338,8.72911 -14.46339,11.32236 -27.58293,7.12443 z m 18.07491,-108.10861 c 0,-0.55 -0.45,-1 -1,-1 -0.55,0 -1,0.45 -1,1 0,0.55 0.45,1 1,1 0.55,0 1,-0.45 1,-1 z"
       id="path4932"
       inkscape:connector-curvature="0" />
    <path
       style="fill:#5f5850"
       d="m 198.84524,323.61206 c -12.15691,-4.47582 -15.38131,-7.25923 -17.93782,-15.48445 -0.78849,-2.53686 -2.58754,-6.82624 -3.9979,-9.53195 -3.43864,-6.59689 -3.26223,-10.48221 0.81354,-17.91804 3.17506,-5.79258 3.48403,-7.23501 5.14728,-24.03059 2.19502,-22.16541 1.22022,-55.63189 -1.62043,-55.63189 -0.4576,0 -3.76996,5.77781 -7.36081,12.83957 -3.59085,7.06177 -7.924,14.76558 -9.62923,17.11959 -2.9693,4.09899 -3.28178,4.25956 -7.38853,3.79667 -6.97593,-0.78629 -22.76197,-9.89808 -25.89145,-14.94469 -1.18233,-1.90663 3.31216,-11.32298 17.65888,-36.99685 14.65926,-26.23318 17.83136,-31.01786 25.66976,-38.7194 7.23021,-7.10397 13.06574,-10.59501 28.18756,-16.8629 2.07754,-0.86113 2.806,-2.03233 3.36824,-5.41537 0.39458,-2.37414 1.33919,-5.53177 2.09916,-7.01696 0.75996,-1.48519 1.38175,-3.59613 1.38175,-4.69098 0,-3.40363 1.87356,-3.34659 3.3182,0.10101 0.7583,1.80967 2.50138,4.64031 3.87351,6.29031 1.37213,1.65 4.61254,7.49464 7.2009,12.98809 2.58836,5.49345 5.66234,11.00595 6.83106,12.25 1.81861,1.93581 1.88358,2.26191 0.45064,2.26191 -2.01283,0 -2.24319,2.56772 -0.29734,3.31442 1.4781,0.5672 5.85717,-4.12655 5.05732,-5.42074 -0.26439,-0.4278 2.61738,-6.54138 6.40394,-13.58575 9.01028,-16.76234 10.50992,-19.29404 11.43321,-19.30161 0.94472,-0.008 2.23682,3.20593 3.37388,8.39137 l 0.85468,3.89769 10.62616,3.34508 c 6.51714,2.05157 12.51083,4.69056 15.5,6.82457 2.68061,1.91372 6.35873,4.44963 8.17359,5.63536 3.4485,2.25305 8.08413,8.58549 14.93345,20.39961 6.22611,10.73918 29.2668,56.20818 29.2668,57.75575 0,2.26756 -5.0832,6.38778 -12.5,10.13196 -7.15708,3.61307 -18.64056,6.87932 -21.00131,5.97341 -0.72357,-0.27766 -1.82487,-1.935 -2.44734,-3.68298 -1.78388,-5.00937 -10.41616,-21.72658 -11.82552,-22.9012 -0.70079,-0.58407 -1.54764,-0.78846 -1.88189,-0.45421 -1.02047,1.02047 -1.2918,44.37228 -0.29937,47.83267 0.51085,1.78125 0.97562,6.41247 1.03282,10.29162 0.0775,5.25552 0.74625,8.45466 2.62409,12.55298 5.85936,12.78782 6.95825,23.43118 2.84397,27.54545 -1.35,1.35 -2.88829,2.45455 -3.41844,2.45455 -0.53014,0 -1.90016,1.51491 -3.04449,3.36648 -4.81791,7.79554 -16.74815,11.62116 -36.26742,11.62971 -10.33375,0.005 -13.01548,-0.87182 -17.43593,-5.69783 l -3.33711,-3.64327 -1.43019,3.42245 c -1.97561,4.72766 -5.25528,8.6867 -8.65051,10.44244 -4.08328,2.11154 -13.35508,1.69327 -20.46136,-0.92306 z m 23.25,-106.58327 c 4.0728,-0.0247 2.34563,-1.72869 -2.4134,-2.38099 -5.20688,-0.71368 -5.86631,-0.45545 -4.94799,1.93767 0.44019,1.1471 1.32394,1.47211 2.87354,1.05678 1.23082,-0.32989 3.25035,-0.60595 4.48785,-0.61346 z m 8.25,-0.95463 c 0,-1.06754 -0.39901,-2.18759 -0.88669,-2.48899 -1.21787,-0.75268 -3.43836,2.09501 -2.64038,3.38617 1.09459,1.77108 3.52707,1.15233 3.52707,-0.89718 z m 9,-0.5904 c 0,-0.84227 -0.70525,-1.80202 -1.56722,-2.13279 -1.88073,-0.7217 -3.93166,1.04795 -2.98663,2.57704 1.01871,1.6483 4.55385,1.30343 4.55385,-0.44425 z m -19.22917,-35.28112 c 0.21771,-0.65313 -0.31666,-1.1875 -1.1875,-1.1875 -0.87083,0 -1.58333,0.7125 -1.58333,1.58333 0,1.76593 2.15276,1.45839 2.77083,-0.39583 z m 13.51866,-1.1865 c 0.28751,-1.09946 0.0718,-2.2777 -0.47933,-2.61833 -1.35834,-0.8395 -4.21775,2.14882 -3.36947,3.52137 1.09498,1.77172 3.28362,1.2582 3.8488,-0.90304 z m 6.71051,-2.001 c 0,-0.55 -0.675,-1 -1.5,-1 -0.825,0 -1.5,0.45 -1.5,1 0,0.55 0.675,1 1.5,1 0.825,0 1.5,-0.45 1.5,-1 z m -19.75,-29.41667 c 0.1375,-0.50416 -0.3125,-1.10416 -1,-1.33333 -0.6875,-0.22917 -1.25,0.33333 -1.25,1.25 0,1.69335 1.79279,1.75975 2.25,0.0833 z"
       id="path4930"
       inkscape:connector-curvature="0" />
    <path
       style="fill:#4d4339"
       d="m 205.34524,325.14295 c 0,-0.47971 -1.6875,-1.15539 -3.75,-1.50152 -5.88921,-0.98834 -14.45537,-5.80731 -16.97852,-9.55141 -1.25165,-1.85733 -2.75977,-5.17455 -3.35138,-7.37161 -0.59161,-2.19705 -2.01497,-5.26515 -3.16303,-6.81798 -1.31014,-1.77206 -2.25994,-4.90406 -2.55079,-8.41135 -0.41948,-5.05836 -0.16178,-6.00801 2.71883,-10.01918 3.50354,-4.8786 4.06244,-7.53737 6.12847,-29.15394 1.92165,-20.10591 0.11364,-51.80082 -2.95493,-51.80082 -0.78513,0 -4.08312,5.27678 -7.5,12 -10.31147,20.28935 -12.5779,23.08692 -17.80769,21.98094 -7.66529,-1.62102 -23.79096,-12.55062 -23.79096,-16.12494 0,-0.81072 0.45084,-1.1954 1.00187,-0.85484 0.55103,0.34055 1.43989,-0.53289 1.97525,-1.94099 0.53536,-1.40809 1.48698,-2.56017 2.11471,-2.56017 0.70329,0 0.94142,-1.04573 0.62046,-2.72473 -0.51977,-2.71899 2.44535,-8.20782 9.33226,-17.27527 2.57153,-3.38571 3.89132,-6.85225 4.54564,-11.9394 0.34694,-2.6974 3.78509,-7.83956 6.59748,-9.8673 0.99678,-0.71869 1.81233,-1.87628 1.81233,-2.57242 0,-1.63826 5.73432,-12.35293 8.42214,-15.73692 1.14282,-1.43882 2.62594,-3.46381 3.29582,-4.5 1.16853,-1.80748 1.26314,-1.81067 2.33073,-0.0785 0.8764,1.42197 1.41308,1.55621 2.52671,0.63198 0.77767,-0.64541 2.31634,-0.93749 3.41927,-0.64907 1.75638,0.4593 2.00533,0.0356 2.00533,-3.41336 0,-5.67198 3.48326,-6.57207 5.32112,-1.375 0.56936,1.61001 3.63913,-1.49551 5.86482,-5.9331 2.81,-5.60261 5.73823,-8.5669 8.46269,-8.5669 2.50073,0 5.35137,-4.27012 5.35137,-8.01608 0,-1.16347 0.52814,-3.09832 1.17365,-4.29966 0.64551,-1.20134 1.4812,-3.53426 1.85709,-5.18426 l 0.68344,-3 1.18473,2.92508 c 0.6516,1.6088 2.7409,4.6476 4.64291,6.75289 1.902,2.10528 3.45818,4.3271 3.45818,4.93738 0,0.61027 2.04037,5.18541 4.53415,10.16699 5.31112,10.60947 5.37707,10.48768 -6.52267,12.04573 -2.13486,0.27952 -2.47736,3.55592 -0.45292,4.33277 0.9385,0.36014 2.46661,0.18002 3.39579,-0.40026 0.92918,-0.58028 3.75277,-0.82249 6.27464,-0.53824 3.18052,0.35849 5.60934,-0.002 7.92812,-1.17555 1.83859,-0.93081 5.76258,-2.09534 8.71997,-2.58784 5.37545,-0.89519 10.12292,-3.20006 10.12292,-4.91462 0,-1.79118 -3.71133,-2.03535 -8.56367,-0.5634 -4.70663,1.42774 -9.43633,1.98455 -9.43633,1.1109 0,-0.87206 13.1342,-24.97156 15.15994,-27.81644 l 2.14378,-3.01066 1.3127,2.36763 c 0.72199,1.3022 1.32866,3.77504 1.34814,5.4952 0.0195,1.72015 0.59794,3.55664 1.28544,4.08109 0.6875,0.52444 5.75,2.44978 11.25,4.27854 5.94085,1.97534 10.89393,4.27643 12.20225,5.66891 1.21124,1.28914 2.82899,2.3439 3.59501,2.3439 0.76602,0 2.20725,0.9 3.20274,2 0.99549,1.1 2.3239,2 2.95204,2 2.06085,0 8.16465,7.34384 13.29834,16 4.40208,7.42258 29.59644,55.61459 31.42473,60.10953 0.96574,2.37431 -3.29643,6.10044 -12.31825,10.76903 -7.39239,3.82539 -17.70123,6.77888 -20.2488,5.80128 -0.69843,-0.26801 -2.24169,-3.11812 -3.42946,-6.33357 -2.87266,-7.77662 -10.41312,-20.84627 -12.02714,-20.84627 -2.36753,0 -3.25086,39.83847 -1.14043,51.43366 0.54393,2.98851 0.98897,7.77549 0.98897,10.63773 0,3.67414 0.87257,7.07448 2.96807,11.56634 1.63245,3.49925 3.51578,9.57658 4.18519,13.50517 1.09613,6.43289 1.03948,7.414 -0.56992,9.87025 -0.98287,1.50005 -2.63611,2.9494 -3.67388,3.22078 -1.03777,0.27138 -2.83459,2.0269 -3.99295,3.90115 -5.06214,8.19073 -14.70672,11.36492 -34.53155,11.36492 -12.75904,0 -15.77757,-0.93389 -19.38259,-5.99667 -2.5392,-3.56598 -3.54117,-3.19645 -5.65457,2.08545 -0.86237,2.15527 -2.98091,5.04878 -4.70787,6.43002 -1.72696,1.38124 -3.68344,2.95457 -4.34772,3.49627 -1.49185,1.21657 -12.29221,1.31562 -12.29221,0.11274 z m 13.82332,-70.79494 c -0.48655,-2.50877 -2.82332,-2.85325 -2.82332,-0.4162 0,1.22833 0.64569,2.08333 1.57332,2.08333 0.93124,0 1.44138,-0.68037 1.25,-1.66713 z m 9.17668,-0.33287 c 0,-1.33333 0.66667,-2 2,-2 1.1488,0 2,-0.66667 2,-1.56642 0,-1.10733 -0.77642,-1.47369 -2.64914,-1.25 -3.05097,0.36442 -4.9536,2.80332 -4.04139,5.1805 0.87846,2.28923 2.69053,2.04402 2.69053,-0.36408 z m 17.93236,-37.12627 c 3.15473,-1.09974 3.19695,-1.1882 1.40988,-2.95391 -2.18827,-2.1621 -7.16156,-2.46343 -22.68238,-1.37429 -11.11646,0.78008 -12.6352,1.47039 -11.23912,5.10852 0.56607,1.47514 2.18275,1.5837 14.94711,1.00371 7.87181,-0.35768 15.77584,-1.16049 17.56451,-1.78403 z m -8.61124,-35.80572 c 1.54499,-0.58741 4.28763,-1.06801 6.09476,-1.06801 5.02715,0 9.7427,-1.94722 9.36133,-3.86562 -0.27659,-1.39136 -1.81648,-1.61796 -10.35606,-1.52392 -5.85264,0.0645 -10.99582,0.62673 -12.34699,1.34985 -1.27372,0.68167 -4.62397,1.45717 -7.445,1.72333 -5.33,0.50287 -8.37083,2.3073 -7.16802,4.25349 0.85723,1.38702 17.68566,0.71795 21.85998,-0.86912 z m -56.32112,-19.65134 c 0,-1.76593 -2.15276,-1.45839 -2.77083,0.39583 -0.21771,0.65313 0.31666,1.1875 1.1875,1.1875 0.87083,0 1.58333,-0.7125 1.58333,-1.58333 z"
       id="path4928"
       inkscape:connector-curvature="0" />
    <path
       style="fill:#453b32"
       d="m 206.81228,325.10564 c 1.54928,-0.60563 1.08576,-0.88714 -2.1825,-1.32551 -8.01597,-1.07517 -20.28454,-8.00205 -20.28454,-11.45272 0,-1.05933 0.78349,-0.98942 3.75,0.33459 2.0625,0.92053 5.41667,1.59223 7.45371,1.49267 2.80837,-0.13727 3.96515,0.30746 4.78518,1.83972 1.58203,2.95604 3.01111,2.46771 3.01111,-1.02891 0,-1.67731 0.70231,-4.40777 1.56068,-6.06768 2.3,-4.44772 1.57545,-7.35959 -1.8623,-7.48428 -1.5409,-0.0559 -3.28815,-0.58815 -3.88279,-1.18279 -1.53567,-1.53567 -0.23652,-4.21559 2.04362,-4.21559 1.44025,0 2.02119,-0.84985 2.31782,-3.39069 0.60106,-5.14854 0.0835,-5.7954 -3.25541,-4.06878 -1.60689,0.83096 -2.92162,1.94927 -2.92162,2.48515 0,0.53588 -0.9,0.97432 -2,0.97432 -1.46667,0 -2,-0.66667 -2,-2.5 0,-1.375 -0.45,-2.5 -1,-2.5 -0.55,0 -1,-1.39878 -1,-3.10841 0,-2.80281 -0.24185,-3.04771 -2.45999,-2.49099 -1.84265,0.46248 -2.73181,0.10953 -3.54313,-1.40643 -1.29621,-2.42198 0.60446,-3.56203 4.36501,-2.61819 1.62474,0.40779 2.91539,-0.0249 4.15275,-1.39215 0.98743,-1.09111 2.17559,-1.98383 2.64035,-1.98383 0.46475,0 1.71276,-0.7875 2.77333,-1.75 1.06058,-0.9625 2.66468,-2.35742 3.56466,-3.09982 1.48557,-1.22546 1.49231,-1.50895 0.0732,-3.07703 -1.0459,-1.15571 -2.55627,-1.58145 -4.56466,-1.28668 -3.58358,0.52595 -3.78192,1.44494 -0.75154,3.48225 2.89641,1.94723 1.94416,2.84236 -3.7006,3.4786 -4.34811,0.4901 -4.5494,0.39951 -4.5494,-2.04749 0,-2.19641 1.05481,-3.06762 7.42187,-6.13005 4.08203,-1.96338 8.24453,-3.57755 9.25,-3.58706 1.00547,-0.01 2.95313,-1.2074 4.32813,-2.66199 2.28957,-2.4221 2.31615,-2.54691 0.31574,-1.48272 -2.51129,1.33597 -10.94478,1.57123 -11.71389,0.32678 -0.28391,-0.45937 1.07398,-1.59352 3.01753,-2.52033 4.24273,-2.02321 4.00973,-3.53061 -0.92384,-5.97682 -3.79139,-1.87988 -4.86159,-3.66764 -2.19554,-3.66764 0.90476,0 1.5,-0.92593 1.5,-2.33333 0,-1.28334 0.2699,-2.60323 0.59977,-2.93311 1.04062,-1.04062 5.12838,1.38996 6.43096,3.82386 2.55253,4.76944 3.88736,3.76237 3.78516,-2.85575 -0.1326,-8.58744 1.43102,-18.95436 2.93411,-19.45336 0.92068,-0.30565 1.25,1.43402 1.25,6.60326 0,7.15767 1.19281,12.14843 2.90353,12.14843 0.88816,0 2.26312,-5.42127 3.61107,-14.23785 0.56485,-3.6946 3.48141,-6.50068 5.47561,-5.2682 1.05841,0.65413 19.77367,-1.08238 22.35947,-2.07464 2.35976,-0.90553 2.0384,-2.96888 -0.81153,-5.21064 -2.63557,-2.07314 -3.97876,-2.11274 -22.28815,-0.65711 -6.70252,0.53287 -9.25,0.42048 -9.25,-0.40808 0,-0.62891 0.82396,-1.14348 1.83102,-1.14348 2.76503,0 4.02807,-3.53971 4.94442,-13.85689 0.65786,-7.40698 0.55681,-9.46212 -0.48493,-9.86187 -2.00107,-0.76789 -3.98068,1.37085 -6.81569,7.36358 -2.26941,4.79713 -2.43304,5.82873 -1.38448,8.72847 1.32562,3.66593 0.23118,8.6862 -2.06012,9.44997 -1.07477,0.35826 -1.22232,-0.86319 -0.73486,-6.08325 0.56546,-6.05546 0.45663,-6.5716 -1.49328,-7.08151 -1.94694,-0.50914 -1.99232,-0.72119 -0.61082,-2.85425 1.82793,-2.82238 3.13845,-7.80425 2.05296,-7.80425 -0.43664,0 -2.70288,2.02861 -5.03609,4.50802 -3.41147,3.62521 -4.1199,4.99533 -3.61764,6.9965 0.58433,2.32814 0.42776,2.44913 -2.42983,1.87761 -2.25102,-0.4502 -3.7614,-0.0547 -5.74239,1.5035 -1.68342,1.32417 -4.13249,2.11437 -6.55313,2.11437 l -3.86514,0 0,4.37756 c 0,2.6712 0.58469,4.8628 1.5,5.62244 1.87475,1.5559 1.93492,3 0.125,3 -0.75625,0 -1.65625,-1.40625 -2,-3.125 -0.95845,-4.79223 -0.74885,-15.06958 0.29418,-14.42495 0.50555,0.31245 2.56,-0.9794 4.56544,-2.87078 3.47348,-3.2759 3.5515,-3.48957 1.64656,-4.50906 -3.06296,-1.63925 -4.42692,-1.30911 -3.84143,0.92979 0.37012,1.41533 0.0307,2 -1.16113,2 -0.92628,0 -2.40805,0.84547 -3.29283,1.87882 -0.88478,1.03335 -2.05806,2.04585 -2.60729,2.25 -0.54922,0.20415 -3.5272,5.47276 -6.61773,11.70802 -6.24687,12.6033 -12.20125,22.10516 -13.95801,22.27385 -4.64141,0.44568 -13.79357,-3.16558 -16.60359,-6.55144 -1.1065,-1.33325 -1.07997,-1.88247 0.16076,-3.32801 2.15853,-2.51484 4.31067,-11.0926 3.95453,-15.76156 -0.3284,-4.30537 1.28401,-6.60857 5.53181,-7.90174 1.68128,-0.51183 2.35486,-1.72607 2.87254,-5.17824 0.49807,-3.32139 1.0503,-4.3661 2.0958,-3.96491 0.97312,0.37342 2.03521,-0.94425 3.37732,-4.19003 1.07678,-2.60412 2.49063,-5.63476 3.14189,-6.73476 0.65126,-1.1 1.78412,-3.18705 2.51746,-4.6379 0.73335,-1.45084 2.22556,-2.87121 3.31604,-3.15638 1.12517,-0.29424 1.98268,-1.36518 1.98268,-2.47618 0,-1.57414 0.91954,-2.08373 4.6934,-2.60099 2.73512,-0.37489 5.66134,-1.55264 7.01325,-2.82268 1.78994,-1.68156 2.59092,-1.9083 3.50659,-0.99263 0.65272,0.65272 1.99676,1.18676 2.98676,1.18676 0.99,0 2.655,0.855 3.7,1.9 2.50446,2.50446 4.1,0.93188 4.1,-4.04098 0,-4.00747 1.53065,-6.03705 2.35567,-3.12354 0.27481,0.97049 0.783,4.23952 1.12931,7.26452 1.13667,9.92892 2.76325,16.11872 4.10086,15.60543 0.68675,-0.26353 1.4873,0.14279 1.779,0.90294 0.38939,1.01475 1.29409,1.16304 3.40397,0.55794 1.58048,-0.45328 5.27322,-0.44482 8.20609,0.0188 2.93286,0.46362 5.82582,0.53511 6.42879,0.15887 0.60297,-0.37625 3.34631,-1.01783 6.09631,-1.42574 2.75,-0.40791 8.03367,-1.191 11.74149,-1.74021 10.32443,-1.52928 12.48104,-3.34697 9.54636,-8.04613 -1.54526,-2.47436 -0.0492,-4.10983 1.64279,-1.79588 0.69691,0.95309 1.48789,1.51211 1.75773,1.24227 0.47007,-0.47007 -4.58607,-16.20933 -5.5011,-17.12436 -0.2438,-0.2438 -0.76207,3.38385 -1.15171,8.06144 -0.79988,9.60241 -0.72669,9.52843 -9.93272,10.04001 -2.92496,0.16255 -6.84468,0.79565 -8.71048,1.4069 -1.8658,0.61124 -4.74236,1.06086 -6.39236,0.99915 -3.69445,-0.13818 -7.28381,0.71425 -8.99802,2.13692 -1.01033,0.83849 -1.75518,-0.29182 -3.39798,-5.1564 -2.64973,-7.8463 -2.66593,-13.30324 -0.0555,-18.70613 1.57026,-3.25006 2.47095,-4.10575 3.85819,-3.66546 2.28934,0.72661 20.83651,-2.01522 22.41471,-3.31356 0.64825,-0.5333 3.42864,-1.29518 6.17864,-1.69308 6.41546,-0.92824 10.5,-3.01827 10.5,-5.37278 0,-2.56057 -2.68444,-3.0278 -8.53814,-1.48606 -5.77452,1.52088 -9.7704,1.75606 -9.29519,0.54708 0.89558,-2.27848 13.13605,-24.89799 14.3831,-26.57897 1.83617,-2.47508 2.49112,-1.73624 3.5673,4.02424 1.01084,5.4108 2.35771,7.40276 5.00537,7.40276 1.03266,0 1.87756,0.45 1.87756,1 0,0.55 0.5625,1.00001 1.25,1.00003 2.61528,6e-5 7.05911,7.16156 7.53828,12.14838 0.36388,3.78693 0.85223,4.85159 2.22541,4.85159 1.31701,0 1.92797,-1.1253 2.43054,-4.47669 1.35988,-9.06833 4.49504,-5.15046 4.63472,5.79179 0.0434,3.4017 0.30592,5.6224 0.58333,4.9349 0.27741,-0.6875 1.04323,-1.25 1.70182,-1.25 0.65858,0 1.73215,-1.41666 2.38571,-3.14813 0.93159,-2.46806 1.4777,-2.90794 2.52803,-2.03624 1.01864,0.84539 1.75147,0.63103 3.0576,-0.89442 1.93046,-2.25462 4.02959,-1.64667 3.21173,0.93017 -0.61379,1.93388 3.75817,7.14862 5.9933,7.14862 0.85995,0 1.45953,0.95302 1.45953,2.31989 0,1.27594 1.35,3.83199 3,5.68011 1.65,1.84812 3,3.68989 3,4.09282 0,0.40294 1.575,3.12413 3.5,6.04709 1.95138,2.96303 3.5,6.58365 3.5,8.18292 0,1.57763 0.87008,4.09034 1.93351,5.58379 1.06343,1.49345 2.24515,3.95703 2.62604,5.47461 0.38089,1.51758 1.57323,3.29014 2.64965,3.93901 2.47852,1.49406 6.09125,8.3846 5.17411,9.86856 -0.42138,0.68181 -0.2405,0.84097 0.46218,0.40669 0.63498,-0.39244 1.15451,-0.18333 1.15451,0.46468 0,0.64802 1.65588,3.90408 3.67973,7.2357 l 3.67973,6.05749 -4.05872,3.60181 c -5.04276,4.47505 -12.85574,8.35712 -21.13803,10.50293 -7.48751,1.9399 -8.34757,1.51131 -10.60583,-5.28506 -2.04503,-6.15464 -11.21602,-21.67304 -12.80823,-21.67304 -0.87611,0 -1.47715,3.28192 -2.0145,11 -0.75602,10.85864 -0.35697,38.67044 0.5769,40.20786 0.26464,0.43568 0.74753,4.73396 1.07308,9.55175 0.4421,6.54245 1.23084,10.02047 3.11621,13.74107 1.38837,2.7398 3.21393,7.95509 4.05681,11.58953 1.87673,8.0923 0.77879,12.66759 -3.58088,14.92206 -1.57143,0.81262 -3.66201,2.84002 -4.64573,4.50532 -4.40843,7.46288 -15.40261,10.88095 -35.21251,10.94752 -11.42719,0.0384 -15.39557,-1.37814 -18.11952,-6.4679 -1.88149,-3.51559 -4.03123,-2.7728 -5.66785,1.95838 -1.74795,5.05305 -4.77854,8.26423 -8.58938,9.10123 -2.22388,0.48845 -2.64716,0.88883 -1.62442,1.53657 0.86957,0.55073 -1.03034,0.85557 -5.11686,0.82101 -4.12061,-0.0349 -5.77995,-0.33645 -4.53296,-0.8239 z m 0.95117,-3.69749 c 0.86999,-0.33384 1.58456,-1.34634 1.58795,-2.25 0.003,-0.90365 0.69156,-2.95734 1.52927,-4.56374 1.51937,-2.91354 0.87989,-5.13061 -1.09247,-3.78763 -0.57218,0.3896 -1.61016,2.50836 -2.30662,4.70836 -0.69646,2.2 -1.49955,4.5625 -1.78465,5.25 -0.58251,1.4047 -0.21577,1.51881 2.06652,0.64301 z m 3.40511,-24.72588 c 0.19138,-0.98676 -0.31876,-1.66713 -1.25,-1.66713 -0.92763,0 -1.57332,0.855 -1.57332,2.08333 0,2.43705 2.33677,2.09257 2.82332,-0.4162 z m 0.78085,-6.3963 c -1.01652,-1.01651 -1.85525,0.51389 -1.02122,1.86338 0.63003,1.01942 0.86558,1.02021 1.2043,0.004 0.2316,-0.69479 0.14921,-1.53513 -0.18308,-1.86742 z m 10.64583,-0.6875 c 0.1375,-0.50416 -0.3125,-1.10416 -1,-1.33333 -0.6875,-0.22917 -1.25,0.33333 -1.25,1.25 0,1.69335 1.79279,1.75975 2.25,0.0833 z m -11.38466,-3.13436 c 0.31608,-1.6311 0.14754,-1.70455 -1.25,-0.54469 -1.91126,1.5862 -2.14923,3.44015 -0.36534,2.84619 0.6875,-0.22891 1.4144,-1.26459 1.61534,-2.3015 z m -9.8089,-4.69897 c 2.55281,-3.06008 2.54034,-5.71882 -0.0237,-5.04832 -2.82298,0.73823 -4.03566,2.57124 -3.37428,5.10036 0.7181,2.746 1.06821,2.74064 3.39796,-0.052 z m 12.0837,-1.16432 c 1.17417,-4.41658 0.0919,-4.87698 -3.0908,-1.31487 -3.11921,3.491 -3.04259,5.01743 0.2277,4.53638 1.33589,-0.19651 2.36748,-1.35723 2.8631,-3.22151 z m -2.64014,-17.58568 c 0.33992,-0.55 0.16803,-1 -0.38197,-1 -0.55,0 -1.27811,0.45 -1.61803,1 -0.33992,0.55 -0.16803,1 0.38197,1 0.55,0 1.27811,-0.45 1.61803,-1 z m 12.9667,-3.76725 c 0.67381,-1.49013 2.03721,-2.22798 4.5,-2.4353 2.74625,-0.23119 3.5333,-0.73567 3.5333,-2.26474 0,-1.08201 1.01127,-2.47289 2.24726,-3.09084 2.1623,-1.08109 2.10159,-1.17163 -1.60567,-2.39514 -5.35466,-1.7672 -8.14159,-0.23076 -8.14159,4.48845 0,4.0083 -2.43667,4.83807 -3.56739,1.21482 -1.39063,-4.45606 -5.74208,-5.28506 -5.24903,-1 0.25132,2.18423 0.90062,2.81688 3.15599,3.07507 2.48777,0.28479 2.76112,0.63761 2.20638,2.84787 -0.78384,3.12308 1.4626,2.78452 2.92075,-0.44019 z m 20.85796,-7.89074 c 0.36189,-0.3619 0.16464,-1.25244 -0.43834,-1.97899 -1.26632,-1.52581 -5.36077,0.0603 -4.35531,1.68715 0.67054,1.08497 3.80942,1.27606 4.79365,0.29184 z m -4.32466,-46.54127 c 0,-0.5419 0.9,-2.12945 2,-3.52787 2.06021,-2.61913 2.77776,-9.27287 1,-9.27287 -1.43919,0 -1.23427,-2.73828 0.25,-3.34054 0.94068,-0.38169 0.87881,-0.76971 -0.25,-1.56802 -2.60866,-1.84487 -5.7163,-1.27964 -6.36971,1.15856 -0.7835,2.92359 -0.80934,17.23762 -0.0325,18.01443 0.8351,0.83513 3.40221,-0.26928 3.40221,-1.46369 z m -81,-3.26936 c 0,-0.89459 -0.58629,-1.24363 -1.5,-0.89301 -0.825,0.31659 -1.5,0.97746 -1.5,1.46862 0,0.49116 0.675,0.89301 1.5,0.89301 0.825,0 1.5,-0.66088 1.5,-1.46862 z m 39.38131,-13.96466 c 3.19111,-4.18376 3.22242,-4.57038 0.36869,-4.55307 -5.13819,0.0312 -6.76781,1.05948 -6.10215,3.85047 1.26016,5.28359 2.15567,5.39333 5.73346,0.7026 z m -5.93283,-5.93139 c 3.27615,-3.03624 3.21197,-3.63533 -0.38946,-3.63533 -3.43331,0 -4.17587,0.83715 -3.39415,3.82646 0.70308,2.6886 0.67478,2.69003 3.78361,-0.19113 z m 6.55152,-8.07631 c 0,-3.71299 -1.63706,-5.6684 -2.61405,-3.1224 -0.32996,0.85986 -1.22678,1.56338 -1.99294,1.56338 -1.81778,0 -1.75696,0.55207 0.32923,2.98857 2.62067,3.06072 4.27776,2.50695 4.27776,-1.42955 z m 40.70248,-7.37754 c 0.68783,-5.12809 -0.41739,-10.245 -1.75588,-8.12933 -1.35839,2.14715 -1.23387,14.63512 0.13232,13.26893 0.5934,-0.5934 1.324,-2.90622 1.62356,-5.1396 z m -17.70248,3.26886 c 0,-0.30231 -0.72258,-1.94697 -1.60572,-3.65479 -0.98782,-1.91023 -1.4007,-4.36858 -1.07292,-6.38841 0.35217,-2.17017 0.049,-3.68482 -0.89428,-4.46766 -1.19043,-0.98797 -1.46019,-0.54221 -1.62672,2.68807 -0.37422,7.25878 0.009,9.51245 1.85474,10.91101 1.92876,1.46137 3.3449,1.84739 3.3449,0.91178 z m -24.33333,141.88299 c -1.21793,-1.21793 -0.68908,-3.33333 0.83333,-3.33333 0.83333,0 1.5,0.88889 1.5,2 0,1.99224 -1.06554,2.60112 -2.33333,1.33333 z m -3.58772,-6.75 c -0.0434,-1.05416 0.19292,-1.64479 0.52522,-1.3125 0.33229,0.33229 0.36781,1.19479 0.0789,1.91667 -0.31923,0.79773 -0.55619,0.56078 -0.60417,-0.60417 z m -18.47196,-10.16512 c -0.90797,-2.36613 -0.70473,-6.71958 0.39301,-8.41821 0.68807,-1.06471 0.97382,0.1686 0.98469,4.25 0.0157,5.911 -0.3196,6.92557 -1.3777,4.16821 z m 13.89301,-61.41821 c -0.33992,-0.55 0.0835,-1 0.94098,-1 0.85746,0 1.55902,0.45 1.55902,1 0,0.55 -0.42344,1 -0.94098,1 -0.51754,0 -1.2191,-0.45 -1.55902,-1 z m 0.5,-12 c 0,-0.55 0.45,-1 1,-1 0.55,0 1,0.45 1,1 0,0.55 -0.45,1 -1,1 -0.55,0 -1,-0.45 -1,-1 z m -44.92972,-19.69098 c -0.0386,-1.20504 0.37972,-2.4691 0.92972,-2.80902 1.18278,-0.731 1.18278,0.24752 0,3 -0.82859,1.92824 -0.86195,1.92138 -0.92972,-0.19098 z m 29.70995,-43.35305 c -0.49447,-3.36902 0.13452,-4.24473 2.15286,-2.99732 0.87211,0.53899 1.10987,1.73405 0.6832,3.43402 -0.88141,3.51182 -2.28833,3.29519 -2.83606,-0.4367 z m 37.85925,-10.64982 c -0.35171,-0.35172 -0.63948,-1.70361 -0.63948,-3.0042 0,-1.3006 -0.675,-2.62374 -1.5,-2.94032 -2.91899,-1.12013 -1.50111,-3.24371 2.72359,-4.07919 l 4.2236,-0.83525 -2.30091,-2.30091 c -1.35234,-1.35235 -2.05368,-2.94521 -1.7012,-3.86376 0.36075,-0.94009 -0.20616,-2.1273 -1.42268,-2.97938 -2.7572,-1.93122 -2.5421,-4.1346 0.4776,-4.8925 1.54584,-0.38798 2.5,-1.33743 2.5,-2.48766 0,-2.84115 2.62114,-1.28628 4.04393,2.39888 0.67487,1.74798 3.00532,6.71639 5.17878,11.04091 4.62481,9.20196 4.3041,10.0658 -3.737,10.0658 -4.52962,0 -5.48571,0.30094 -5.48571,1.7267 0,1.90795 -1.36221,3.14918 -2.36052,2.15088 z"
       id="path4926"
       inkscape:connector-curvature="0" />
    <path
       style="fill:#352f29"
       d="m 208.57733,325.30061 c 1.50265,-0.22817 4.20265,-0.23276 6,-0.0102 1.79735,0.22256 0.56791,0.40925 -2.73209,0.41486 -3.3,0.006 -4.77056,-0.17648 -3.26791,-0.40466 z m -0.23209,-1.9552 c 6.50882,-2.22094 10.00522,-4.50739 10.07028,-6.58539 0.0628,-2.00591 0.14868,-2.04537 0.80664,-0.37073 0.66647,1.6963 0.99195,1.5704 3.42972,-1.32672 2.99907,-3.5642 3.46353,-5.2802 1.19336,-4.40906 -0.825,0.31659 -1.5,0.0775 -1.5,-0.53138 0,-0.60885 0.37777,-1.10699 0.83948,-1.10699 1.05333,0 3.42353,-5.07032 2.70575,-5.7881 -0.29131,-0.29131 -2.65612,1.56684 -5.25514,4.12922 -5.49554,5.41809 -6.98911,5.91131 -4.74203,1.56595 1.86017,-3.59718 1.19984,-4.85524 -1.62308,-3.09229 -1.71485,1.07094 -1.63269,0.68246 0.6055,-2.86307 2.06417,-3.26986 2.34731,-4.39404 1.39553,-5.54086 -0.75922,-0.91481 -0.9723,-3.05651 -0.58512,-5.88128 0.3576,-2.60895 0.18975,-4.70161 -0.40666,-5.07022 -0.55857,-0.34521 -0.7243,-1.54543 -0.36828,-2.66715 0.75429,-2.37656 1.24956,-4.77029 1.35754,-6.56125 0.0493,-0.81734 0.89812,-1.06284 2.38477,-0.68972 1.97533,0.49578 2.71325,-0.16476 5.11614,-4.57967 2.41113,-4.43004 2.63575,-5.48065 1.58966,-7.43528 -1.50514,-2.81239 0.2801,-7.01111 2.60216,-6.12005 2.07349,0.79567 5.38378,-1.5329 5.38378,-3.78713 0,-1.81066 0.66337,-1.86613 14.13663,-1.18222 12.93037,0.65637 14.0823,0.57604 13.5,-0.94143 -0.35015,-0.91246 -0.63663,-2.31305 -0.63663,-3.11242 0,-1.16698 -0.41419,-1.23173 -2.10177,-0.32856 -1.28439,0.68738 -4.10391,0.87546 -7.25,0.4836 -12.91326,-1.60838 -24.79601,-1.56178 -28.32129,0.11108 -3.21338,1.52485 -3.58173,1.52464 -5.10928,-0.003 -1.52831,-1.52823 -1.3844,-1.64615 2.00904,-1.64615 2.0104,0 3.91671,-0.42302 4.23625,-0.94005 0.31954,-0.51703 0.75533,-6.68628 0.96841,-13.70946 l 0.38744,-12.76941 6.3406,-0.21548 c 13.12714,-0.44612 18.83212,-1.44012 20.8797,-3.63794 2.4689,-2.65005 2.46195,-3.36337 -0.0391,-4.01741 -2.80754,-0.73419 -2.48786,-2.44134 0.83798,-4.47495 1.56089,-0.95441 2.65855,-2.26733 2.43924,-2.9176 -0.21931,-0.65026 0.51331,-1.67041 1.62805,-2.267 1.15973,-0.62067 2.49517,-2.8956 3.12162,-5.31771 0.60215,-2.32814 1.831,-6.2173 2.73077,-8.64258 1.61715,-4.35891 1.64614,-4.37902 2.52248,-1.75 1.35055,4.05166 2.50272,3.2246 4.30524,-3.09041 0.90269,-3.1625 2.54947,-7.39542 3.65952,-9.40649 1.57118,-2.8465 1.91557,-4.89491 1.55466,-9.24703 -0.36435,-4.39352 -0.10136,-5.91837 1.22826,-7.12165 1.54288,-1.39629 1.93256,-1.21556 4.42516,2.05241 3.83291,5.02521 6.00016,4.33534 6.17003,-1.96404 0.0954,-3.53826 0.65585,-5.29437 2.00472,-6.2818 3.1551,-2.30967 9.37227,0.1574 9.37227,3.71907 0,0.96557 1.00632,2.42376 2.23627,3.24041 1.88068,1.24873 2.03093,1.73224 0.94492,3.0408 -1.6009,1.92896 -1.1917,11.89297 0.51145,12.45393 0.70363,0.23175 1.4668,-1.06859 1.86129,-3.1714 0.82643,-4.40526 2.0644,-4.57841 2.9785,-0.41657 0.5197,2.36619 0.29116,3.37158 -0.92055,4.04969 -2.12171,1.18737 -2.03514,2.59158 0.51525,8.35716 1.67012,3.77558 1.88497,5.19649 1,6.61355 -1.38745,2.22165 -1.44941,3.83196 -0.14745,3.83196 0.53882,0 1.95398,-1.9098 3.1448,-4.244 1.96484,-3.8514 2.26736,-4.0686 3.27032,-2.34795 0.60786,1.04282 2.1177,2.80877 3.3552,3.92433 1.2375,1.11556 2.25,2.52706 2.25,3.13667 0,0.60961 -2.475,2.60838 -5.5,4.44172 -3.025,1.83335 -5.5,3.90167 -5.5,4.59628 0,0.69461 1.19491,2.04586 2.65535,3.00278 1.46044,0.95692 3.6318,2.87505 4.82524,4.2625 2.40583,2.79695 5.01941,2.17784 5.01941,-1.189 0,-3.99132 3.92545,-2.7207 5.01579,1.62354 0.59666,2.37731 0.27425,2.85402 -2.79864,4.13795 -1.91015,0.79811 -3.77949,1.94703 -4.15409,2.55315 -1.13861,1.8423 -3.56306,1.23129 -3.56306,-0.89797 0,-2.31977 -0.91486,-2.51396 -3.3736,-0.71608 -1.59709,1.16781 -1.42379,1.44227 1.91633,3.03506 2.69338,1.28439 3.54525,2.23659 3.19594,3.57236 -0.42449,1.62322 -0.003,1.55675 3.87634,-0.61151 2.39393,-1.33799 5.14739,-2.26702 6.11879,-2.0645 4.4068,0.91873 -15.48106,9.85203 -21.67797,9.73739 -2.26777,-0.0419 -3.28844,-1.52497 -9.05583,-13.15797 -5.9991,-12.10037 -8.94339,-16.18469 -10.52616,-14.60193 -1.05707,1.05707 -0.97994,49.7522 0.0947,59.80718 0.72519,6.78511 1.80508,11.1328 3.77876,15.21352 3.24217,6.70338 5.61347,17.22962 4.68269,20.78648 -0.35982,1.375 -1.97627,3.3806 -3.59212,4.45689 -1.61584,1.0763 -4.28842,3.7763 -5.93907,6 -1.65065,2.22371 -5.02565,5.03101 -7.5,6.23844 -8.30095,4.05068 -33.13422,5.83737 -38.99679,2.80572 -1.59425,-0.82442 -4.10032,-3.07442 -5.56903,-5 -2.98132,-3.90871 -4.21547,-4.33371 -5.08488,-1.75105 -3.36808,10.00508 -7.38425,13.31132 -15.99925,13.17105 -2.66686,-0.0434 -4.17385,-0.30927 -3.34885,-0.59078 z m 15.61849,-26.5594 c 1.04931,-2.02914 1.43797,-4.57763 1.12354,-7.36724 -0.2644,-2.34571 -0.1441,-4.63364 0.26733,-5.08428 0.41143,-0.45064 1.04803,-2.50685 1.41466,-4.56935 0.83639,-4.70514 -0.5631,-4.88313 -4.58045,-0.58254 -3.2877,3.5195 -5.46248,11.70394 -3.88609,14.62474 0.50694,0.93929 1.18709,2.9637 1.51143,4.4987 0.68791,3.25556 1.91188,2.80721 4.14958,-1.52003 z m 14.65504,-14.85227 c 1.45892,-8.33375 1.76366,-15.16886 0.73174,-16.41225 -0.56591,-0.68188 -0.9111,-2.29381 -0.7671,-3.58208 0.16885,-1.51052 -0.32166,-2.46436 -1.38129,-2.68602 -1.43702,-0.30062 -1.69381,1.19939 -2.04728,11.95901 -0.2223,6.76651 -0.2131,13.10864 0.0204,14.09363 0.73381,3.09501 2.63772,1.23047 3.44349,-3.37229 z m 14.86906,-37.49234 c 1.6738,-0.86555 2.84942,-1.76758 2.6125,-2.00451 -0.70291,-0.70291 -6.75509,1.6947 -6.75509,2.67608 0,1.24569 0.63368,1.14296 4.14259,-0.67157 z m -13.87462,-4.42626 c 0.94185,-1.1 2.41482,-2 3.27327,-2 2.76657,0 4.43854,-5.87583 3.20539,-11.26471 l -1.08358,-4.73529 -4.72454,0 c -5.48291,0 -5.93851,0.64881 -5.93851,8.45679 0,10.70603 1.6747,13.73984 5.26797,9.54321 z m 17.73203,-6.98902 c 0,-0.49112 -0.47776,-1.18822 -1.06168,-1.5491 -0.58393,-0.36089 -1.47279,-1.73745 -1.97525,-3.05902 -0.53062,-1.39563 -1.72546,-2.40286 -2.85042,-2.40286 -1.47421,0 -2.09526,0.93758 -2.6,3.92514 -0.3671,2.17286 -0.20403,4.78301 0.3653,5.8468 0.7331,1.36981 0.68291,2.29531 -0.17475,3.22278 -0.66176,0.71561 0.9343,-0.13707 3.5468,-1.89485 2.6125,-1.75777 4.75,-3.59778 4.75,-4.08889 z m -3.18904,-10.94386 c 0.25585,-0.76754 -0.27561,-1.1234 -1.36293,-0.91262 -2.33065,0.4518 -3.10107,2.76438 -0.80885,2.42795 0.96382,-0.14146 1.94112,-0.82335 2.17178,-1.51533 z m 9.68904,-2.06712 c 0.36852,-0.59628 -0.84262,-1 -3,-1 -2.15738,0 -3.36852,0.40372 -3,1 0.33992,0.55 1.68992,1 3,1 1.31008,0 2.66008,-0.45 3,-1 z m 3.5,-3.9433 c 0,-1.72653 -4.40191,-4.0567 -7.66349,-4.0567 -6.4658,0 -4.64501,3.56213 2.17617,4.25738 2.19303,0.22353 4.32482,0.48206 4.73732,0.57452 0.4125,0.0924 0.75,-0.25638 0.75,-0.7752 z m -67,105.9433 c -0.825,-0.53316 -1.05,-0.96937 -0.5,-0.96937 0.55,0 1.675,0.43621 2.5,0.96937 0.825,0.53316 1.05,0.96937 0.5,0.96937 -0.55,0 -1.675,-0.43621 -2.5,-0.96937 z m 12,-22.88197 c 0,-0.55 0.45,-1.27811 1,-1.61803 0.55,-0.33992 1,-0.16803 1,0.38197 0,0.55 -0.45,1.27811 -1,1.61803 -0.55,0.33992 -1,0.16803 -1,-0.38197 z m -2,-25.95886 c 0,-1.46478 5.84819,-11.94731 7.09544,-12.71816 1.33744,-0.82658 1.09819,2.16881 -0.46656,5.84111 -1.48443,3.48379 -6.62888,8.82084 -6.62888,6.87705 z m -59.35201,-41.27959 c -4.20119,-2.21623 -4.13102,-1.55852 -1.246,-11.67927 1.06382,-3.73193 1.22782,-6.04379 0.55437,-7.8151 -1.50985,-3.97119 -1.2269,-5.71056 0.79364,-4.87875 4.10768,1.69106 4.98274,1.62354 5.51867,-0.42584 0.31983,-1.22303 1.35954,-2.08062 2.52249,-2.08062 1.64396,0 2.09259,-0.91399 2.65394,-5.40687 0.37155,-2.97379 1.5484,-7.11893 2.61522,-9.21145 1.06682,-2.09251 1.93968,-4.3689 1.93968,-5.05864 0,-0.68975 1.35,-2.63511 3,-4.32304 1.65,-1.68793 3,-3.84554 3,-4.7947 0,-1.98297 4.48774,-7.17192 6.29047,-7.27336 0.66524,-0.0374 4.02203,-0.2361 7.45953,-0.44148 3.4375,-0.20538 6.25,-0.005 6.25,0.44594 0,2.08 -3.16777,8.0677 -4.91601,9.29222 -1.418,0.9932 -2.36443,3.76504 -3.49274,10.22923 -0.97403,5.58036 -2.25298,9.64066 -3.45055,10.95451 -1.04658,1.1482 -3.31216,5.16902 -5.03463,8.93516 -3.90546,8.5392 -10.71963,20.42511 -13.4166,23.40248 -2.50649,2.7671 -5.96474,2.80768 -11.04148,0.12958 z m 3.42473,-9.02213 c 1.12428,-2.20377 1.84524,-4.53574 1.60214,-5.18215 -0.25378,-0.67481 -0.76924,-0.32362 -1.21043,0.8247 -0.42264,1.1 -1.31157,2.675 -1.9754,3.5 -1.52369,1.89361 -2.61802,6.19776 -1.38148,5.43353 0.50657,-0.31307 1.84089,-2.37231 2.96517,-4.57608 z m 72.42728,-13.39057 c 1.39555,-1.18369 1.62222,-1.838 0.75,-2.16497 -0.88795,-0.33286 -1.25,-3.43026 -1.25,-10.69411 0,-12.2761 0.77513,-13.86937 6.30345,-12.95669 3.03639,0.50129 3.65244,0.95272 3.05465,2.23841 -0.41184,0.88576 -0.92462,6.67298 -1.13951,12.86048 l -0.3907,11.25 -2.83216,0 c -1.55768,0 -3.65646,0.26174 -4.66394,0.58164 -1.63651,0.51962 -1.61858,0.40078 0.16821,-1.11476 z m -37,-7.46688 c 0.33992,-0.55 1.04148,-1 1.55902,-1 0.51754,0 0.94098,0.45 0.94098,1 0,0.55 -0.70156,1 -1.55902,1 -0.85746,0 -1.2809,-0.45 -0.94098,-1 z m 2.5,-3 c 0,-0.55 0.87889,-1 1.95308,-1 1.21269,0 2.55208,-1.23204 3.53318,-3.25 2.62824,-5.40586 3.85437,-6.49392 7.17655,-6.36842 2.71218,0.10246 3.0032,0.36487 2.15889,1.9467 -0.53672,1.00555 -2.68851,3.59305 -4.78176,5.75 -2.82359,2.90951 -4.61041,3.92172 -6.92292,3.92172 -1.71436,0 -3.11702,-0.45 -3.11702,-1 z m 22.0318,-7.66821 c -0.0517,-1.89979 1.11336,-4.33179 2.07519,-4.33179 1.31056,0 1.09152,1.35528 -0.57519,3.55887 -0.80751,1.06762 -1.4825,1.41543 -1.5,0.77292 z m 24.53458,-7.22957 c -3.21417,-1.25868 0.11836,-2.49752 7.43174,-2.76269 5.88547,-0.21341 6.31724,-0.098 4.55434,1.21705 -1.07115,0.79904 -2.72078,1.20738 -3.66585,0.90743 -0.94506,-0.29995 -2.00772,-0.0771 -2.36147,0.49531 -0.73492,1.18912 -3.13985,1.24679 -5.95876,0.1429 z m 24.21734,-5.35222 c -0.22511,-2.8875 -0.0721,-6.15 0.3401,-7.25 0.58034,-1.5488 0.76619,-1.2104 0.8238,1.5 0.0409,1.925 0.35332,5.1875 0.69423,7.25 0.38278,2.31582 0.22426,3.75 -0.41449,3.75 -0.56889,0 -1.21852,-2.3625 -1.44364,-5.25 z m -36.80841,-4.27975 c -1.12277,-1.35285 -1.45637,-6.68821 -0.94815,-15.1638 0.18829,-3.14005 -0.1858,-5.79268 -0.94612,-6.7088 -1.40367,-1.69132 -0.52932,-2.01914 7.9635,-2.9858 2.49949,-0.2845 5.87449,-1.21078 7.5,-2.0584 1.6255,-0.84762 4.20741,-1.5439 5.73758,-1.54729 1.53016,-0.003 4.41176,-0.68707 6.40354,-1.51929 1.99178,-0.83222 3.88983,-1.24348 4.21788,-0.91392 0.76478,0.7683 -3.71171,4.42705 -5.4165,4.42705 -1.51511,0 -3.43105,4.97685 -3.61841,9.39922 -0.0997,2.35371 -0.37454,1.8359 -1.14065,-2.14922 -1.00598,-5.23289 -1.02162,-5.25 -4.80124,-5.25 -4.59995,0 -4.71269,0.28833 -5.1209,13.09628 l -0.30584,9.59628 -4.23491,1.52436 c -3.40792,1.22669 -4.4409,1.27616 -5.28978,0.25333 z m 11.02469,-34.99012 c 0,-0.28593 1.04868,-2.19843 2.3304,-4.25 1.28172,-2.05157 3.51225,-6.20513 4.95673,-9.23013 1.44448,-3.025 3.99387,-7.525 5.66532,-10 2.54487,-3.76834 3.03968,-4.12457 3.04327,-2.19098 0.002,1.26996 0.39744,2.06603 0.87798,1.76904 0.48053,-0.29698 1.16708,1.67167 1.52566,4.3748 0.54076,4.07646 1.03137,4.9687 2.8763,5.23095 3.34592,0.47562 2.29222,4.68453 -2.08195,8.31619 -3.71343,3.08309 -19.19371,7.90623 -19.19371,5.98013 z m -15.92103,-3.74487 c -2.90383,-1.48159 -4.29505,-4.41589 -1.60408,-3.38327 1.3237,0.50795 1.59842,0.28143 1.13219,-0.93355 -2.09266,-5.45337 -1.39589,-6.04145 1.26405,-1.06689 1.72088,3.21835 3.12887,6.03085 3.12887,6.25 0,0.71418 -1.45227,0.39332 -3.92103,-0.86629 z"
       id="path4924"
       inkscape:connector-curvature="0" />
  </g>
</svg>
