<?xml version="1.0" encoding="UTF-8" standalone="no"?>
<svg
   xmlns:dc="http://purl.org/dc/elements/1.1/"
   xmlns:cc="http://creativecommons.org/ns#"
   xmlns:rdf="http://www.w3.org/1999/02/22-rdf-syntax-ns#"
   xmlns:svg="http://www.w3.org/2000/svg"
   xmlns="http://www.w3.org/2000/svg"
   xmlns:sodipodi="http://sodipodi.sourceforge.net/DTD/sodipodi-0.dtd"
   xmlns:inkscape="http://www.inkscape.org/namespaces/inkscape"
   sodipodi:docname="wat2.svg"
   height="100%"
   width="100%"
   inkscape:version="0.48.4 r9939"
   version="1.1"
   id="svg2"
   viewBox="0 0 512 512"
   inkscape:export-filename="C:\Users\Chris\Documents\GitHub\bot-game\assets\forest_spirit.png"
   inkscape:export-xdpi="12.832031"
   inkscape:export-ydpi="12.832031">
  <sodipodi:namedview
     pagecolor="#ffffff"
     bordercolor="#666666"
     borderopacity="1"
     objecttolerance="10"
     gridtolerance="10"
     guidetolerance="10"
     inkscape:pageopacity="0"
     inkscape:pageshadow="2"
     inkscape:window-width="1185"
     inkscape:window-height="1030"
     id="namedview44"
     showgrid="false"
     inkscape:zoom="0.71191406"
     inkscape:cx="364.2389"
     inkscape:cy="165.3004"
     inkscape:window-x="100"
     inkscape:window-y="100"
     inkscape:window-maximized="0"
     inkscape:current-layer="svg2" />
  <metadata
     id="metadata48">
    <rdf:RDF>
      <cc:Work
         rdf:about="">
        <dc:format>image/svg+xml</dc:format>
        <dc:type
           rdf:resource="http://purl.org/dc/dcmitype/StillImage" />
        <dc:title></dc:title>
      </cc:Work>
    </rdf:RDF>
  </metadata>
  <defs
     id="defs46">
    <linearGradient
       id="linearGradient3926">
      <stop
         id="stop3928"
         offset="0"
         style="stop-color:#ffffff;stop-opacity:0;" />
      <stop
         style="stop-color:#ffffff;stop-opacity:0.49803922;"
         offset="0.5"
         id="stop3934" />
      <stop
         id="stop3930"
         offset="1"
         style="stop-color:#ffffff;stop-opacity:0;" />
    </linearGradient>
    <filter
       id="filter3108"
       x="0"
       y="0"
       width="1"
       height="1"
       inkscape:label="Lightness-Contrast"
       inkscape:menu="Color"
       inkscape:menu-tooltip="Increase or decrease lightness and contrast"
       color-interpolation-filters="sRGB">
      <feFlood
         id="feFlood3110"
         result="result1"
         flood-opacity="1"
         flood-color="rgb(0,0,0)" />
      <feBlend
         id="feBlend3112"
         in2="SourceGraphic"
         mode="normal"
         result="result2" />
      <feComposite
         id="feComposite3114"
         in2="SourceGraphic"
         k2="1"
         operator="arithmetic"
         result="result3" />
      <feComposite
         id="feComposite3116"
         in2="SourceGraphic"
         operator="in" />
    </filter>
    <filter
       id="filter7264"
       inkscape:label="Fluorescence"
       inkscape:menu="Color"
       inkscape:menu-tooltip="Oversaturate colors which can be fluorescent in real world"
       x="0"
       y="0"
       width="1"
       height="1"
       color-interpolation-filters="sRGB">
      <feColorMatrix
         id="feColorMatrix7266"
         type="hueRotate"
         values="0" />
      <feColorMatrix
         id="feColorMatrix7268"
         type="saturate"
         values="1" />
      <feColorMatrix
         id="feColorMatrix7270"
         type="matrix"
         values="2 -1 0 0 0 0 2 -1 0 0 -1 0 2 0 0 0 0 0 1 0 " />
    </filter>
    <filter
       id="filter7746"
       inkscape:label="Fluorescence"
       inkscape:menu="Color"
       inkscape:menu-tooltip="Oversaturate colors which can be fluorescent in real world"
       x="0"
       y="0"
       width="1"
       height="1"
       color-interpolation-filters="sRGB">
      <feColorMatrix
         id="feColorMatrix7748"
         type="hueRotate"
         values="0" />
      <feColorMatrix
         id="feColorMatrix7750"
         type="saturate"
         values="1" />
      <feColorMatrix
         id="feColorMatrix7752"
         type="matrix"
         values="2 -1 0 0 0 0 2 -1 0 0 -1 0 2 0 0 0 0 0 1 0 " />
    </filter>
  </defs>
  <rect
     style="opacity:0.98999999;fill:#0a0000;fill-opacity:1;fill-rule:nonzero;stroke:none"
     id="rect3171"
     width="516.97894"
     height="518.513"
     x="1.7468045"
     y="2.4831297" />
  <rect
     y="319.66696"
     x="-94.752312"
     height="57.982758"
     width="76.367531"
     id="rect3156"
     style="opacity:0.98999999;fill:#ffffff;fill-opacity:1;fill-rule:nonzero;stroke:none" />
  <g
     id="g11490"
     transform="matrix(2.5499025,0,0,2.1433895,-1312.9313,-298.83628)">
    <path
       style="fill:#dda79e"
       d="m 522.83813,253.54184 c 0,-28.66667 0,-57.33333 0,-86 60.66667,0 121.33333,0 182,0 0,57.33333 0,114.66667 0,172 -60.66667,0 -121.33333,0 -182,0 0,-28.66667 0,-57.33333 0,-86 z"
       id="path11518"
       inkscape:connector-curvature="0" />
    <path
       style="fill:#a59b96"
       d="m 522.83813,253.54184 c 0,-28.66667 0,-57.33333 0,-86 60.66667,0 121.33333,0 182,0 0,57.33333 0,114.66667 0,172 -60.66667,0 -121.33333,0 -182,0 0,-28.66667 0,-57.33333 0,-86 z m 96.88603,39.77013 c -2.04325,-1.66797 1.82155,-3.49631 -3.01917,-0.45578 -2.31079,4.06051 7.79332,3.61741 3.01917,0.45578 z m 18.03857,1.87947 c 8.34044,2.73614 7.47134,-2.9648 -0.16235,-1.82344 -4.70127,-0.64664 -10.69039,3.18113 -2.28625,1.92941 l 1.22398,-0.0704 1.22462,-0.0355 0,0 z m -13.4246,-1.6496 c -4.1157,-4.09934 -0.92209,3.3084 0,0 z m -11.5,-1.10699 c 7.67465,-1.84249 -10.18363,-3.952 -3.19729,0.999 0.92984,0.0605 2.84765,0.37294 3.19729,-0.999 z m -6,-1.35783 c -4.06455,-7.22341 -7.41406,2.8312 -0.39246,0.9962 l 0.29916,-0.43377 0.0933,-0.56243 z m -9,-3.0942 c -4.95683,-2.78259 -1.77132,3.63911 0,0 z m -3.7671,-2.7785 c -9.16575,-1.07938 3.91114,3.63155 2.30667,0.67893 -0.76889,-0.22631 -1.53778,-0.45262 -2.30667,-0.67893 z m -11.24821,-4.91248 c -1.91453,-5.38802 -0.91114,6.92212 0,0 z m 11.01531,-0.14301 c -2.71481,-3.32025 -3.20831,1.36807 0,0 z m -10,-6.07181 c -3.54762,-3.87914 -6.1483,-1.51856 0,0 z m 42.4396,-23.60713 c -0.34235,-6.58578 -10.80814,0.5394 -2.91407,1.69283 l 1.49569,-0.35346 1.41838,-1.33937 z"
       id="path11516"
       inkscape:connector-curvature="0" />
    <path
       style="fill:#a4857a"
       d="m 522.83813,253.54184 c 0,-28.66667 0,-57.33333 0,-86 60.66667,0 121.33333,0 182,0 0,57.33333 0,114.66667 0,172 -60.66667,0 -121.33333,0 -182,0 0,-28.66667 0,-57.33333 0,-86 z m 115.22295,41.9714 c 5.77446,2.82451 14.48573,-3.78547 4.71047,-4.98628 -9.19787,0.29711 -17.73066,4.38793 -26.51846,-0.42558 -1.24373,1.2701 -13.06082,-1.57655 -6.95432,4.01577 4.35063,-1.88002 6.7453,0.23217 11.32259,2.35109 1.7719,-6.53438 9.88541,3.67142 15.24693,-0.61297 0.7265,-0.13827 1.4629,-0.22344 2.19279,-0.34203 z m -31.22295,-4.43622 c -4.06455,-7.22341 -7.41406,2.8312 -0.39246,0.9962 l 0.29916,-0.43377 0.0933,-0.56243 z m -9,-3.0942 c -4.95683,-2.78259 -1.77132,3.63911 0,0 z m -3.7671,-2.7785 c -9.16575,-1.07938 3.91114,3.63155 2.30667,0.67893 -0.76889,-0.22631 -1.53778,-0.45262 -2.30667,-0.67893 z m -11.24821,-4.91248 c -1.91453,-5.38802 -0.91114,6.92212 0,0 z m 11.01531,-0.14301 c -2.71481,-3.32025 -3.20831,1.36807 0,0 z m -10,-6.07181 c -3.54762,-3.87914 -6.1483,-1.51856 0,0 z m 44.5,-23.53518 c -3.49369,-5.97972 -14.51078,-1.86193 -5.31292,1.82574 1.80457,0.0502 4.3117,-0.0258 5.31292,-1.82574 z m -10.91821,0 c 1.37059,-8.92952 -6.67781,4.93974 0,0 z"
       id="path11514"
       inkscape:connector-curvature="0" />
    <path
       style="fill:#758c99"
       d="m 522.83813,253.54184 c 0,-28.66667 0,-57.33333 0,-86 60.66667,0 121.33333,0 182,0 0,57.33333 0,114.66667 0,172 -60.66667,0 -121.33333,0 -182,0 0,-28.66667 0,-57.33333 0,-86 z m 124.51491,44.43605 c -1.91102,-3.20755 9.26019,-7.41398 -0.36027,-8.6175 -10.98045,0.76037 -22.44872,0.79601 -33.65548,-0.0819 -2.753,2.03963 -15.43089,-3.87831 -9.78308,2.60256 2.87217,4.81461 11.85593,0.0614 11.76092,2.46051 5.24966,5.02854 11.78252,-1.02634 18.31688,2.4815 2.83631,-2.8661 16.32392,3.59213 13.72103,1.15479 z m 14.21606,-6.12904 c -5.37529,-0.92873 -0.36551,1.63313 0,0 l 0,0 z m -64.53646,-4.0755 c -0.89823,-5.86309 -15.08922,-4.60208 -5.26632,-0.78482 1.1297,-0.21343 6.55788,4.16561 5.26632,0.78482 z m -2.69002,-7.84781 c -4.83434,-1.27182 -8.75508,-6.76614 -13.34078,-7.00414 4.41181,3.87224 16.60051,11.32322 17.81823,9.41594 -1.43616,-0.90672 -2.98668,-1.60455 -4.47745,-2.4118 z m -10.07452,1.72961 c -1.84894,-8.37537 -5.85035,2.91364 0,0 z m -5.42997,-2.17233 c -2.54359,-2.13525 -1.93,3.58158 0,0 z m -7,-3.5 c -2.70316,-1.88673 -1.553,3.47158 0,0 z m 6.86578,-0.34858 c -12.49877,-4.8832 5.35618,6.07904 0,0 z m 7.86123,-7.06632 c -3.87753,-9.31546 -1.66155,6.82354 0,0 z m 41.77299,-18.02608 c -3.49369,-5.97972 -14.51078,-1.86193 -5.31292,1.82574 1.80457,0.0502 4.3117,-0.0258 5.31292,-1.82574 z m -10.91821,0 c 1.37059,-8.92952 -6.67781,4.93974 0,0 z"
       id="path11512"
       inkscape:connector-curvature="0" />
    <path
       style="fill:#647784"
       d="m 522.83813,253.54184 c 0,-28.66667 0,-57.33333 0,-86 60.66667,0 121.33333,0 182,0 0,57.33333 0,114.66667 0,172 -60.66667,0 -121.33333,0 -182,0 0,-28.66667 0,-57.33333 0,-86 z m 124.51491,44.43605 c -1.91102,-3.20755 9.26019,-7.41398 -0.36027,-8.6175 -10.98045,0.76037 -22.44872,0.79601 -33.65548,-0.0819 -2.753,2.03963 -15.43089,-3.87831 -9.78308,2.60256 2.87217,4.81461 11.85593,0.0614 11.76092,2.46051 5.24966,5.02854 11.78252,-1.02634 18.31688,2.4815 2.83631,-2.8661 16.32392,3.59213 13.72103,1.15479 z m 14.21606,-6.12904 c -5.37529,-0.92873 -0.36551,1.63313 0,0 l 0,0 z m -64.53646,-4.0755 c -0.89823,-5.86309 -15.08922,-4.60208 -5.26632,-0.78482 1.1297,-0.21343 6.55788,4.16561 5.26632,0.78482 z m -2.69002,-7.84781 c -4.83434,-1.27182 -8.75508,-6.76614 -13.34078,-7.00414 4.41181,3.87224 16.60051,11.32322 17.81823,9.41594 -1.43616,-0.90672 -2.98668,-1.60455 -4.47745,-2.4118 z m -10.07452,1.72961 c -1.84894,-8.37537 -5.85035,2.91364 0,0 z m -5.42997,-2.17233 c -2.54359,-2.13525 -1.93,3.58158 0,0 z m -7,-3.5 c -2.70316,-1.88673 -1.553,3.47158 0,0 z m 6.86578,-0.34858 c -12.49877,-4.8832 5.35618,6.07904 0,0 z m 7.86123,-7.06632 c -3.87753,-9.31546 -1.66155,6.82354 0,0 z m 31.92513,-18.22328 c -2.39036,-6.91097 -13.96802,5.44097 -2.76299,2.18304 1.26571,0.24512 3.6032,-0.39485 2.76299,-2.18304 z m 10.72964,0.64467 c -1.22949,-5.01238 -15.7312,-4.71129 -7.36292,1.25169 2.45091,0.63365 5.30823,0.29721 7.36292,-1.25169 z"
       id="path11510"
       inkscape:connector-curvature="0" />
    <path
       style="fill:#99655d"
       d="m 522.83813,253.54184 c 0,-28.66667 0,-57.33333 0,-86 60.66667,0 121.33333,0 182,0 0,57.33333 0,114.66667 0,172 -60.66667,0 -121.33333,0 -182,0 0,-28.66667 0,-57.33333 0,-86 z m 124.51491,44.43605 c -1.91102,-3.20755 9.26019,-7.41398 -0.36027,-8.6175 -10.98045,0.76037 -22.44872,0.79601 -33.65548,-0.0819 -2.753,2.03963 -15.43089,-3.87831 -9.78308,2.60256 2.87217,4.81461 11.85593,0.0614 11.76092,2.46051 5.50256,5.17017 12.18964,-1.47913 18.78783,3.16908 3.73821,2.52448 0.40759,-5.21379 5.47209,-1.21829 0.62373,0.13188 11.92912,4.40939 7.77799,1.6855 z m 14.21606,-6.12904 c -5.37529,-0.92873 -0.36551,1.63313 0,0 l 0,0 z m -64.53646,-4.0755 c -0.89823,-5.86309 -15.08922,-4.60208 -5.26632,-0.78482 1.1297,-0.21343 6.55788,4.16561 5.26632,0.78482 z m -2.69002,-7.84781 c -4.83434,-1.27182 -8.75508,-6.76614 -13.34078,-7.00414 4.41181,3.87224 16.60051,11.32322 17.81823,9.41594 -1.43616,-0.90672 -2.98668,-1.60455 -4.47745,-2.4118 z m -10.07452,1.72961 c -1.84894,-8.37537 -5.85035,2.91364 0,0 z m -5.42997,-2.17233 c -2.54359,-2.13525 -1.93,3.58158 0,0 z m -7,-3.5 c -2.70316,-1.88673 -1.553,3.47158 0,0 z m 6.86578,-0.34858 c -12.49877,-4.8832 5.35618,6.07904 0,0 z m 7.86123,-7.06632 c -3.87753,-9.31546 -1.66155,6.82354 0,0 z m 43.58728,-17.0206 c -4.28226,-6.49386 -14.91676,-4.89148 -20.42131,-1.51648 -8.50733,2.18898 7.8839,4.40632 9.83591,0.51104 1.76037,4.38135 7.42693,2.05649 10.5854,1.00544 z"
       id="path11508"
       inkscape:connector-curvature="0" />
    <path
       style="fill:#685853"
       d="m 522.83813,253.54184 c 0,-28.66667 0,-57.33333 0,-86 60.66667,0 121.33333,0 182,0 0,57.33333 0,114.66667 0,172 -60.66667,0 -121.33333,0 -182,0 0,-28.66667 0,-57.33333 0,-86 z m 125.2,44.8 c -1.99304,-8.42512 15.31742,-3.91263 13.32058,-7.70938 -9.40787,-0.93039 -19.1721,-2.95761 -28.70017,-0.84373 -10.06459,-0.78457 -20.26367,0.90212 -29.81067,-1.70092 -9.65031,1.46772 5.40417,7.96939 9.35282,6.45066 3.29585,-2.16393 7.00001,4.44021 12.21698,2.27777 -3.0293,-5.24157 4.96739,4.48326 5.17748,-1.2744 3.64742,3.26892 9.8978,-0.91511 13.76276,2.0765 0.59776,-0.37988 7.19243,3.29291 4.68022,0.7235 z m -50.2,-10.6849 c -0.89029,-5.0681 -16.37447,-6.16772 -7.77552,-0.48078 2.74343,-0.92556 6.4754,5.57199 7.77552,0.48078 z m 4,-3.6007 c -6.30428,-3.35808 -12.76646,-8.68465 -17.97528,-11.3901 10.72644,0.29847 -2.11834,-13.68998 -2.2606,-2.52568 -9.99599,-1.79729 9.38593,8.26088 -0.51412,8.72326 0.27737,6.87383 13.19833,-1.22171 17.26452,4.42386 1.02906,0.56532 2.2703,1.24746 3.48548,0.76866 z m -16.07651,-3.7644 c -3.88899,-8.16304 11.8055,3.39902 1.41659,-1.87551 -1.74138,-0.50779 0.23505,2.54753 -1.41659,1.87551 z m -3.7516,-3.30456 c 0.68486,-5.18248 -10.96604,-6.3411 -9.45203,0.058 -5.1558,-2.19739 1.60906,3.84022 3.1536,-0.788 6.12545,0.23892 -2.44159,4.01271 2.76609,5.44511 0.79339,-1.80641 1.69581,-3.73407 3.53234,-4.71511 z m 8.8155,-4.47439 c -4.90042,-3.1991 -1.79498,2.45217 0,0 z m 39.3269,-20.96557 c -4.28226,-6.49386 -14.91676,-4.89148 -20.4213,-1.51648 -8.50734,2.18898 7.88389,4.40632 9.8359,0.51104 1.76037,4.38135 7.42693,2.05649 10.5854,1.00544 z"
       id="path11506"
       inkscape:connector-curvature="0" />
    <path
       style="fill:#8b322b"
       d="m 522.83813,253.54184 c 0,-28.66667 0,-57.33333 0,-86 60.66667,0 121.33333,0 182,0 0,57.33333 0,114.66667 0,172 -60.66667,0 -121.33333,0 -182,0 0,-28.66667 0,-57.33333 0,-86 z m 115.00914,45.51101 c -6.21093,-3.07374 5.01791,-0.45855 5.98272,-0.54789 2.0955,-0.55715 7.67747,1.90237 4.30397,-2.44036 3.26962,-2.49085 20.47219,-2.0632 10.82592,-7.17601 -8.47577,-1.42677 -16.19022,-2.22539 -24.98473,-0.1652 -8.32186,3.0153 -17.24673,-1.60664 -25.71123,0.75682 -4.59544,-4.89013 -13.59433,2.44883 -4.74622,3.05698 5.26988,3.9668 13.03047,0.93781 18.96228,5.14602 5.41185,1.21774 11.35395,0.22671 15.89988,2.39014 l -0.53259,-1.0205 0,0 z m -40.00914,-11.39591 c -0.89029,-5.0681 -16.37447,-6.16772 -7.77552,-0.48078 2.74343,-0.92556 6.4754,5.57199 7.77552,0.48078 z m 48,-2.1151 c 0.91978,-3.46658 -5.62592,3.09928 0,0 z m -44,-1.4856 c -6.30428,-3.35808 -12.76646,-8.68465 -17.97528,-11.3901 11.55095,1.77347 -3.63729,-15.69572 -1.54033,-4.95716 -0.0785,5.33814 -7.96375,-0.9733 -2.06523,4.60587 2.95617,2.64458 6.32725,6.74011 0.12126,7.11558 3.0395,5.85974 12.81,-0.92632 18.47091,3.71813 0.9981,0.29636 1.9931,0.60298 2.98867,0.90768 z m -16.07651,-3.7644 c -3.88899,-8.16304 11.8055,3.39903 1.41659,-1.8755 -1.74138,-0.5078 0.23505,2.54752 -1.41659,1.8755 z m -3.69252,-3.32331 c 0.17004,-6.46661 -12.068,-5.78169 -13.65949,-1.47629 -3.69771,1.28041 8.27278,5.63454 4.66907,-1.5258 -0.27617,-0.66754 9.51422,5.72094 1.93722,3.64823 4.08246,7.79634 2.52389,2.50393 7.0532,-0.64614 z m 35.88153,2.28581 c -3.99221,0.75137 3.4907,4.59632 0,0 z m -8.74867,-0.20676 c -4.03538,-4.02936 -0.0104,4.89512 0,0 z m -18.37644,-6.53469 c -4.90042,-3.1991 -1.79498,2.45217 0,0 z m -31.98739,-11.97105 c -4.67281,-5.75709 1.88073,5.27552 0,0 z m -8,-2 c -2.56252,-4.24378 -2.46849,4.0879 0,0 z m 68.07895,-7.84255 c 3.40223,4.52124 18.1974,1.90608 8.82462,-3.28624 -2.11689,3.93059 -5.15989,-4.33992 -10.29165,-0.64832 -3.06834,0.70243 -18.34345,4.04072 -7.79987,5.98575 2.99478,-0.54962 7.3476,1.12353 9.2669,-2.05119 z"
       id="path11504"
       inkscape:connector-curvature="0" />
    <path
       style="fill:#63453a"
       d="m 522.83813,253.54184 c 0,-28.66667 0,-57.33333 0,-86 60.66667,0 121.33333,0 182,0 0,57.33333 0,114.66667 0,172 -60.66667,0 -121.33333,0 -182,0 0,-28.66667 0,-57.33333 0,-86 z m 115.00914,45.51101 c -6.21093,-3.07374 5.01791,-0.45855 5.98272,-0.54789 2.0955,-0.55715 7.67747,1.90237 4.30397,-2.44036 3.26962,-2.49085 20.47219,-2.0632 10.82592,-7.17601 -8.50963,-1.43233 -16.25531,-2.16637 -25.10354,-0.23321 -8.30253,5.03216 -17.51554,-4.02255 -25.51958,0.45142 -1.57556,-6.03537 -16.50321,-8.93805 -14.53092,-11.46167 -1.35086,-4.01145 -6.64782,-15.47427 -11.97845,-12.54484 1.1093,4.19772 -0.11182,5.83179 -4.07635,4.59372 9.22155,8.91094 -8.45645,-2.40849 -7.72442,5.77832 -7.89195,-0.8592 6.21761,6.91539 3.34315,-1.26093 0.66519,-2.2866 3.61128,4.49759 2.89095,5.55069 3.47038,1.99364 5.13963,3.85151 9.2701,3.48368 0.98533,4.28856 11.2171,6.47423 15.81283,8.17406 4.16539,4.81186 12.63847,1.24539 18.61472,5.55367 6.06355,2.32195 13.15066,0.58101 18.42149,3.09987 l -0.53259,-1.02052 z m 7.99086,-13.51101 c 0.91978,-3.46658 -5.62592,3.09928 0,0 z m -27.8875,-6.2875 c -3.99221,0.75137 3.4907,4.59632 0,0 z m -8.74867,-0.20676 c -4.03538,-4.02936 -0.0104,4.89512 0,0 z m -22.16383,-16.70574 c -5.80201,-2.89014 -0.98366,4.77498 0,0 z m -28.2,-1.8 c -4.67281,-5.75709 1.88073,5.27552 0,0 z m 24.1875,-0.68311 c -4.451,-1.42525 0.16467,2.10527 0,0 z m -32.1875,-1.31689 c -2.56252,-4.24378 -2.46849,4.0879 0,0 z m 68.07895,-7.84255 c 3.40222,4.52124 18.19738,1.90609 8.82462,-3.28624 -2.11689,3.93059 -5.15989,-4.33992 -10.29165,-0.64832 -3.06834,0.70243 -18.34345,4.04072 -7.79987,5.98575 2.99478,-0.54962 7.3476,1.12353 9.2669,-2.05119 z"
       id="path11502"
       inkscape:connector-curvature="0" />
    <path
       style="fill:#54231e"
       d="m 522.83813,253.54184 c 0,-28.66667 0,-57.33333 0,-86 60.66667,0 121.33333,0 182,0 0,57.33333 0,114.66667 0,172 -60.66667,0 -121.33333,0 -182,0 0,-28.66667 0,-57.33333 0,-86 z m 116,46.2 c -3.88134,-6.40538 12.74036,4.15157 11.14332,-3.60454 4.10092,-0.16923 20.05001,-2.99457 10.18772,-7.46258 -7.48678,1.009 -12.05417,-10.6728 -18.48635,-3.52807 -8.96887,4.48347 -19.35837,5.06768 -28.94657,2.41212 -6.31347,2.14438 -9.983,-5.83715 -17.3366,-7.60217 -4.61056,-1.97637 0.9935,-3.74802 -3.66986,-7.98641 -2.4435,-2.85569 -5.19464,-14.53266 -10.7797,-7.09193 -3.46168,1.71548 -5.92923,5.10756 -1.27407,7.78835 -4.26565,-3.11666 -10.35349,-0.15127 -10.61148,2.82793 -6.04837,-5.16892 -5.73701,2.08534 0.54486,2.16003 7.20232,1.54482 8.97218,6.30824 16.43886,5.38297 -1.11212,5.18188 12.79057,5.64406 16.86537,9.54103 2.72503,2.90164 8.81685,6.18561 11.58737,0.94272 3.54268,8.22706 14.27904,3.09428 20.72064,6.05523 1.08222,0.38126 2.62299,1.23987 3.61649,0.16532 z m -20.07832,-19.34633 c -3.75194,-4.75874 0.444,6.56172 0.22034,0.6753 l -0.15528,-0.47589 -0.0651,-0.19941 z m -7.32619,-1.00818 c -6.31763,-6.24188 -4.80559,4.44754 0,0 z m -52.59549,-12.84549 c -2.56252,-4.24378 -2.46849,4.0879 0,0 z m 0.87693,-5.37077 c -7.52894,-9.30038 2.25713,8.43469 0,0 z m 19.08569,1.44061 c 7.85145,-4.72965 -4.71578,-2.10126 -2.18131,1.8639 l 0.84802,-0.5709 1.33329,-1.293 z m -27.96262,-4.06984 c -2.56252,-4.24378 -2.46849,4.0879 0,0 z m 68.07895,-7.84255 c 2.96305,4.3786 18.05539,2.05197 9.24728,-2.87549 -6.09291,-2.21176 -13.44691,-0.7524 -20.23994,1.4096 -9.90436,3.62781 11.1093,5.24693 10.99266,1.46589 z"
       id="path11500"
       inkscape:connector-curvature="0" />
    <path
       style="fill:#2b2c2b"
       d="m 522.83813,253.54184 c 0,-28.66667 0,-57.33333 0,-86 60.66667,0 121.33333,0 182,0 0,57.33333 0,114.66667 0,172 -60.66667,0 -121.33333,0 -182,0 0,-28.66667 0,-57.33333 0,-86 z m 108,44.77749 c 2.48412,1.37489 10.65024,2.82886 5.9986,-1.7723 7.44005,6.02096 12.79097,-1.2916 19.93411,-1.21075 5.28739,1.29604 11.3875,-2.24673 7.81651,-7.05821 -2.47439,-0.44663 -14.53777,-2.85971 -17.39696,-9.54792 -4.6402,1.92112 -7.27025,8.92925 -13.09128,7.77651 -9.90711,6.4383 -21.76603,0.48254 -31.4549,-3.37559 -6.77146,-4.08692 -11.34192,-11.87818 -12.6861,-19.71002 2.70497,-9.44327 -8.9785,-11.12043 -14.60592,-6.14834 4.15039,3.61172 -8.5769,7.66149 -3.74763,12.23762 -4.6399,-2.30168 -15.08547,3.176 -4.24797,2.82233 7.6081,4.13148 -8.74422,-0.61337 -2.00281,4.591 4.65312,2.72544 10.98098,1.07971 11.60167,6.79419 2.52539,-2.01162 1.51054,4.46515 5.28351,0.5794 4.0827,-3.83554 -1.581,3.463 4.76398,3.15804 4.81642,0.75024 8.78847,2.55814 8.81813,6.24775 6.18513,-6.18353 12.04497,8.45201 18.36596,1.14833 4.45938,3.41923 11.70002,6.63922 16.6511,3.46796 z m -12.07832,-17.92382 c -3.75194,-4.75874 0.444,6.56172 0.22034,0.6753 l -0.15528,-0.47589 -0.0651,-0.19941 z m -7.32619,-1.00818 c -6.31763,-6.24188 -4.80559,4.44754 0,0 z m 42.21414,-1.59549 c -5.7113,-6.59018 -3.38935,7.18847 0,0 z m -93.80963,-7.25 c -2.56252,-4.24378 -2.46849,4.0879 0,0 z m -0.5,-4 c -3.55912,-3.55933 -1.73771,3.52995 0,0 z m -4.5,-1.55902 c -2.51045,-3.47417 -1.28984,4.81134 0,0 z m 5.02967,-4.38554 c -9.09741,-7.10465 3.5467,9.42539 0,0 z m -3.52967,1.94456 c -3.01691,-3.15029 -2.22081,0.86324 0.1524,0.83783 l -0.1524,-0.83783 z m -5.5,-4 c -2.56252,-4.24378 -2.46849,4.0879 0,0 z m 68.07895,-7.84255 c 2.96306,4.3786 18.05541,2.05196 9.24728,-2.87549 -6.09291,-2.21176 -13.4469,-0.7524 -20.23994,1.4096 -9.90436,3.62781 11.1093,5.24693 10.99266,1.46589 z"
       id="path11498"
       inkscape:connector-curvature="0" />
    <path
       style="fill:#2c0908"
       d="m 522.83813,253.54184 c 0,-28.66667 0,-57.33333 0,-86 60.66667,0 121.33333,0 182,0 0,57.33333 0,114.66667 0,172 -60.66667,0 -121.33333,0 -182,0 0,-28.66667 0,-57.33333 0,-86 z m 80,57 c -2.56252,-4.24378 -2.46849,4.0879 0,0 z m 5.5,-5 c -1.8877,-3.41246 -3.06199,3.45272 0,0 z m 48.21429,-1.71429 c -5.72154,-3.80135 2.66971,5.58439 0.40832,0.54415 l -0.30045,-0.40039 -0.10787,-0.14376 z m -16.27287,-4.36517 c 6.46965,0.095 13.22811,3.11404 17.77012,-2.1912 5.73469,-0.52589 9.40533,-4.52846 6.51313,-8.95138 0.34283,-0.32162 -18.09498,-2.95701 -9.66247,-7.86268 0.0667,-4.29787 -6.84157,-6.25216 -4.62198,-0.49941 -7.23257,-4.26878 -8.8472,8.40754 -17.37477,6.49535 -8.58056,1.00296 -17.08071,4.36474 -25.1118,-1.11146 -9.58679,-3.10766 -16.92785,-12.49284 -17.73817,-22.4623 2.50544,-9.93284 -10.97241,-10.00998 -14.26046,-5.64822 3.27305,2.00572 -6.95696,7.19561 -5.21798,12.2548 -3.16251,-2.66872 -13.57997,3.13472 -4.73432,2.5558 8.27813,2.96403 -1.41854,2.08463 -4.70018,0.83134 1.28137,5.02191 11.50831,6.54234 14.43944,7.28265 -1.35361,5.47628 5.01928,1.48441 3.7037,5.5133 2.04355,0.22172 6.73738,-5.02753 3.16319,-0.42419 4.50233,3.03166 12.78205,2.87711 13.30677,8.17291 7.31601,-3.98434 13.16946,7.26367 20.54359,4.87917 5.59485,2.49923 12.77107,0.70316 18.35922,2.45853 2.68154,-2.13974 4.833,3.3922 5.62297,-1.29301 z m -21.98254,-0.98707 c -1.05477,-4.90913 2.65878,3.43203 0,0 z m 2.54112,-14.91181 c 3.30308,1.33206 8.29646,-2.12469 2.39865,-2.47009 1.64393,-6.9277 -3.49003,4.18271 -2.90595,-2.35875 -2.88799,-4.81141 -10.56059,-3.41108 -13.5845,-8.71685 -3.54779,-1.58273 4.02959,-1.45833 4.2917,1.91018 2.60409,-2.81779 3.06016,4.45178 3.36797,-2.04052 -3.3399,-3.56514 5.24891,-2.07527 -0.3933,-4.66116 -1.21836,-6.40955 -7.02427,-10.48269 -13.71821,-6.85017 -9.38781,1.2894 -2.12048,8.40279 1.95884,11.08496 -5.66085,4.38242 5.18647,10.4871 9.56612,13.86045 2.8368,1.10654 6.10332,0.96932 9.01868,0.24195 z m -10.66667,-18.47767 c 2.47364,-4.00626 0.13796,4.63557 0,0 z m 21.66667,13.89699 c -2.70316,-1.88673 -1.553,3.47158 0,0 z m -5.39583,-2.17015 c -2.40555,1.82958 2.1155,3.30414 0,0 z m 8.39583,0.15774 c -2.0007,-6.69968 -5.18587,1.12875 0,0 z m -75.45888,-5.4951 c -0.58501,-4.31104 -4.76115,4.24234 0,0 z m 41.22971,-2.12097 c -3.90483,-5.59926 -2.78073,4.46369 0,0 z m 21.22822,-1.31135 c -1.05641,-4.88915 -6.42657,4.33252 -0.24482,0.24931 l 0.24482,-0.24931 z m -61.12725,-1.50675 c -4.60633,-0.3413 -4.5809,-7.9967 -0.9888,-2.09173 3.84871,-6.26279 -8.4893,-6.3466 -4.14837,0.31324 -0.0348,2.31567 12.16455,6.07743 5.13717,1.77849 z m 66.6282,0.006 c -1.16686,-3.71094 -6.24806,4.01028 0,0 z m -72.5,-1.55902 c -2.51045,-3.47417 -1.28984,4.81134 0,0 z m 127.1875,-3.12409 c -4.451,-1.42525 0.16468,2.10528 0,0 z m -130.1875,-3.31689 c -5.77455,-5.13562 -5.98332,5.01318 0,0 z m 132,-9.8e-4 c -2.949,-2.87011 -11.97175,-0.27081 -3.66764,0.54554 l 1.85907,-0.10569 1.80857,-0.43985 z m -50.77355,-6.82547 c 2.73316,-5.71109 -7.3979,-4.49459 -11.32813,-6.01107 -4.71262,0.66832 -19.27496,0.6593 -16.67188,6.91443 9.22417,1.08429 18.798,0.33548 28.00001,-0.90336 l 0,0 z m 46.69022,-1.79037 c -2.88432,-5.46905 -16.63727,2.01845 -4.86743,0.98722 1.65398,-0.0891 3.34724,-0.27251 4.86743,-0.98722 z M 577.151,241.45471 c -5.37466,-0.61581 1.97946,5.59334 0,0 z m 86.68713,0.51381 c -3.22168,-4.98966 -5.02248,6.3691 0,0 z m 5,-1.64066 c -5.6733,-3.48684 -3.63524,5.95486 0,0 z m -40.75,-1.4483 c -3.91197,-1.1198 -3.04571,1.67412 0,0 z m 22.75,-2.08004 c 5.33568,-0.2108 12.44631,-3.57389 3.27217,-4.7209 -7.22097,-0.73977 4.60677,1.80964 -2.87141,2.03663 -4.55723,-1.43853 -12.34164,6.04303 -3.96705,3.76045 l 1.73773,-0.71602 1.82856,-0.36016 0,0 z m -58.82874,-0.91267 c 6.2774,-10.21895 -17.35433,0.33121 -4.20845,1.27697 1.51512,0.72879 3.13148,-0.26006 4.20845,-1.27697 z m 8.82874,-3.34501 c -3.08264,-4.33095 -0.83998,3.56822 0,0 z m 29.98469,-3.25 c -4.81936,-6.38645 -1.73743,10.4922 0,0 z m 12.87207,2.35969 c 0.71857,-5.2289 -7.03468,3.95235 0,0 z m -21.85676,-4.35458 c -2.84809,-4.27873 -3.53748,8.95042 -0.32022,1.2923 0.10674,-0.43077 0.21348,-0.86153 0.32022,-1.2923 z m 4,1.68587 c -2.7731,-4.773 -1.51427,6.38912 0,0 z m -10.22917,-0.25348 c -4.32868,-5.19635 -4.16034,5.32825 0,0 z m 21.22917,-0.15612 c -3.43055,-5.8149 -2.52013,6.32122 0,0 z"
       id="path11496"
       inkscape:connector-curvature="0" />
    <path
       style="fill:#150404"
       d="m 522.83813,253.54184 c 0,-28.66667 0,-57.33333 0,-86 60.66667,0 121.33333,0 182,0 0,57.33333 0,114.66667 0,172 -60.66667,0 -121.33333,0 -182,0 0,-28.66667 0,-57.33333 0,-86 z m 82,58.27111 c -7.65112,-5.92564 0.68374,4.17842 0,0 z m 4,-6.27111 c -3.49659,-4.33831 -3.92225,4.24209 0,0 z m 49,-0.39301 c -5.99667,-9.27548 -2.65199,4.73995 0,0 z m -54,-1.60699 c -3.08264,-4.33095 -0.83998,3.56822 0,0 z m 18.39497,-2.16994 c 4.08537,-3.29075 5.80258,2.89681 8.18201,-0.9791 6.14694,0.75971 6.18782,2.51019 11.89797,-1.37145 5.85504,4.68393 16.20071,-0.35598 23.30632,-2.34893 11.07108,-4.85003 3.64214,-19.49913 -6.83107,-14.8554 -5.62308,-1.88483 -2.33531,-11.26282 3.39012,-7.82719 4.75147,-6.87797 -6.24466,-18.99104 -10.961,-16.61947 -2.00833,10.10636 -5.51489,20.49974 -14.81563,26.08313 -7.86057,4.97709 -18.2097,6.9274 -26.48203,1.70658 -10.90988,-5.25407 -19.30902,-16.47833 -18.28805,-28.99193 -0.34467,-4.91331 5.13103,-15.71037 -3.94178,-10.8542 -8.41047,3.24059 -17.62555,9.80951 -22.93493,15.83356 0.83548,7.26797 -1.89613,1.33673 -2.91423,-1.46941 -1.19626,3.32288 -3.96324,-5.58973 -8.138,-1.04736 -2.33591,-2.82891 -9.92737,-0.30141 -4.25233,2.18175 -1.30631,0.90983 -3.92672,4.80525 0.12204,2.93291 -3.67975,3.52613 2.09063,3.08019 1.69864,5.9213 3.53242,0.57321 -0.15076,3.6935 5.05093,3.50941 8.05619,2.78779 13.42125,8.86293 19.96957,12.60772 2.44482,2.51445 3.77381,2.60167 6.83989,3.39178 -1.40457,4.24264 11.6307,5.32055 3.92699,3.07517 7.5598,0.0975 14.14038,5.23779 20.27639,7.72747 4.95568,0.78843 11.80883,-4.84217 12.93935,1.79721 0.6081,-1.28903 3.31885,2.30499 1.95883,-0.40355 z m -59.88789,-28.81861 c 2.53156,-1.95011 2.18839,3.24173 0,0 z m -7.0482,-2.07798 c -0.75161,-4.14905 3.82326,3.9078 0,0 z m 1.04234,-2.79088 c -0.68591,-4.8617 7.10819,4.59686 0.60351,0.6439 l -0.34234,-0.36523 -0.26121,-0.27867 4e-5,0 z m 23.10295,28.12824 c -2.40554,1.82963 2.11551,3.30411 0,0 z m -12.60417,-6.27083 c -2.56252,-4.24378 -2.46849,4.0879 0,0 z m 56.95954,-6.16819 c 6.61762,-0.0947 -3.68002,-2.50091 -0.20117,-5.60191 -3.05395,8.09544 -4.11025,-5.53093 -10.15217,-2.62165 -2.86459,-1.25288 -11.68899,-8.36637 -3.75329,-5.35953 0.82938,4.26638 3.78476,-0.75333 4.26017,3.28607 0.68281,-4.32686 -0.82377,-5.13925 2.55698,-7.12306 -4.89373,-0.92535 -3.65527,-10.47017 -11.55686,-8.42973 -8.75033,-1.89199 -13.02036,6.85826 -3.90058,10.44749 3.30389,3.47078 -4.72334,4.57846 1.47037,7.2313 4.71766,7.09066 13.56301,11.66307 21.27655,8.17102 l 0,0 z m -13.62621,-18.28782 c 2.47364,-4.00626 0.13796,4.63557 0,0 z m 21.66667,13.89699 c -2.70316,-1.88673 -1.553,3.47158 0,0 z m -5.39583,-2.17015 c -2.40555,1.82958 2.1155,3.30414 0,0 z m 8.39583,0.15774 c -2.0007,-6.69968 -5.18587,1.12875 0,0 z m -34.22917,-7.61607 c -3.90483,-5.59926 -2.78073,4.46369 0,0 z m 21.22822,-1.31135 c -1.05641,-4.88915 -6.42657,4.33252 -0.24482,0.24931 l 0.24482,-0.24931 z m 5.50095,-1.50115 c -1.16686,-3.71094 -6.24806,4.01028 0,0 z m 54.6875,-4.68311 c -4.451,-1.42525 0.16468,2.10528 0,0 z m 1.8125,-3.31787 c -2.949,-2.87011 -11.97175,-0.27081 -3.66764,0.54554 l 1.85907,-0.10569 1.80857,-0.43985 z m -50.77355,-6.82547 c 2.73316,-5.71109 -7.3979,-4.49459 -11.32813,-6.01107 -4.71262,0.66832 -19.27496,0.6593 -16.67188,6.91443 9.22417,1.08429 18.798,0.33548 28.00001,-0.90336 l 0,0 z m 34.27355,-1.17355 c -2.8042,-3.37337 -0.3806,3.21556 0,0 z m 12.41667,-0.61682 c -2.88432,-5.46905 -16.63727,2.01845 -4.86743,0.98722 1.65398,-0.0891 3.34724,-0.27251 4.86743,-0.98722 z m -16.72917,-1.06629 c -4.45102,-1.42515 0.16471,2.10494 0,0 z m -84.8125,-5.11464 c -0.5212,-8.69577 -7.14151,3.91347 0,0 z m 85.625,-1.77557 c -3.22168,-4.98966 -5.02248,6.3691 0,0 z m 5,-1.64066 c -5.6733,-3.48684 -3.63524,5.95486 0,0 z m -41.26903,-1.47901 c -5.37531,-0.92874 -0.36547,1.63313 0,0 z m 23.26903,-2.04933 c 5.33568,-0.2108 12.44631,-3.57389 3.27217,-4.7209 -7.22097,-0.73977 4.60677,1.80964 -2.87141,2.03663 -4.55723,-1.43853 -12.34164,6.04303 -3.96705,3.76045 l 1.73773,-0.71602 1.82856,-0.36016 0,0 z m -57,-3.63268 c -6.6948,-8.43678 -16.14914,8.20503 -2.80278,4.20613 1.38048,-1.029 2.20677,-2.634 2.80278,-4.20613 z m 7,-0.625 c -3.08264,-4.33095 -0.83998,3.56822 0,0 z m 29.98469,-3.25 c -4.81936,-6.38645 -1.73743,10.4922 0,0 z m 12.87207,2.35969 c 0.71857,-5.2289 -7.03468,3.95235 0,0 z m -21.85676,-4.35458 c -2.84808,-4.27873 -3.53749,8.95041 -0.32023,1.2923 0.10674,-0.43077 0.21349,-0.86153 0.32023,-1.2923 z m 4,1.68587 c -2.7731,-4.773 -1.51427,6.38912 0,0 z m -10.22917,-0.25348 c -4.32868,-5.19635 -4.16034,5.32825 0,0 z m 21.22917,-0.15612 c -3.43055,-5.8149 -2.52013,6.32122 0,0 z"
       id="path11494"
       inkscape:connector-curvature="0" />
    <path
       style="fill:#020101"
       d="m 522.83813,253.54184 c 0,-28.66667 -4.13152,-61.26541 -4.13152,-89.93208 60.66667,0 128.49463,-2.62139 189.1613,-2.62139 0,57.33333 1.37718,131.37802 1.37718,188.71135 -60.66667,0 -129.04551,0.32767 -189.71218,0.32767 0,-28.66667 3.30522,-67.81888 3.30522,-96.48555 z m 84,58.93714 c 9.38498,0.40207 -0.60519,-14.48398 8.53363,-8.2792 7.45859,-0.77819 15.14894,-0.51626 22.56339,-0.52629 3.03622,-1.79642 13.87725,-1.4806 12.65707,0.78786 -5.1081,5.81015 7.10081,8.24474 5.04153,1.29955 6.72422,9.42622 -2.92483,-8.43082 6.36922,-4.9172 9.7975,3.0281 11.2842,-9.54066 18.71289,-10.60011 0.23891,4.92758 4.67675,-5.36005 6.92259,-7.49161 1.98136,-11.33594 -17.30738,-4.23511 -18.84432,-15.13479 -3.86007,-4.59791 3.31256,-9.33798 1.92885,-2.72271 5.13096,1.10664 10.57481,5.89037 14.97524,4.96388 -2.36235,-1.90028 -2.89066,-5.39801 -8.01276,-5.96858 3.21873,-0.0745 17.80773,-1.70947 7.28768,-2.37967 -7.3398,0.7598 -14.75851,-3.66265 -19.1696,-7.89325 -0.8408,1.71545 1.42428,3.56993 2.37993,5.56416 -3.05871,-2.34999 -11.73767,-5.13029 -3.21654,-6.81224 4.98458,-1.83104 20.08783,3.17934 17.66783,-5.03159 -5.54062,-7.73607 -16.80372,-14.22725 -24.03668,-4.75434 2.20535,2.53147 11.05707,2.11499 3.5522,5.02157 -7.05089,1.42771 -15.03558,-13.61285 -4.69996,-9.76163 -1.73915,5.69639 3.38765,1.11121 3.06038,-2.17483 10.28756,-3.15667 -5.59093,-8.85305 -9.71419,-5.48197 -5.7416,1.23927 -10.85867,13.61493 -13.91532,3.17092 -7.65341,-5.25141 10.88211,4.91504 9.586,-3.71947 2.22296,-9.67744 -11.69659,6.26468 -7.22415,-3.62783 -0.6818,-5.22255 -13.48605,5.201 -16.55025,-2.07398 -5.97519,-2.85955 -17.06313,1.7897 -15.61558,10.60621 -4.75971,-2.8092 -2.12357,-15.55862 -10.48044,-8.03364 -5.84914,2.23434 -21.62412,4.01331 -14.69491,12.83855 -4.80071,5.76788 -2.6937,-12.62332 -9.1872,-3.95431 -6.51881,5.19199 -14.54314,8.69758 -21.33573,12.97494 6.45877,-0.77788 3.75759,4.39106 -1.39839,1.1078 -4.66016,-2.47146 -18.03673,8.4497 -6.70236,5.48775 3.98639,-1.67254 16.02122,2.2251 5.54863,1.33309 -10.03946,1.55669 -5.6699,17.37816 -0.0997,21.19751 4.56684,-2.82649 3.0978,10.54796 9.29517,6.84715 2.82544,1.72058 6.64287,5.53085 5.92672,7.30308 3.14672,-0.008 13.61835,6.57037 10.02463,-0.31925 -6.67237,-5.20928 4.01313,-4.18874 5.99062,-0.12823 7.36052,-0.11482 -2.68919,14.6391 3.96162,8.40214 -0.0648,6.02015 4.56936,-0.30365 2.63653,3.63463 0.73281,8.8459 11.38574,-3.47529 9.12755,4.25876 1.67606,-7.81959 5.4379,2.93599 11.28812,2.31002 -3.04074,0.31252 -10.69668,-3.10528 -4.50423,2.29868 1.0273,0.76209 3.49601,2.14911 4.3643,0.37847 z m -6.66317,-7.37253 c -1.19365,-9.29237 4.91619,1.45878 -0.0863,0.82818 z m 4.66317,-2.56461 c 1.52761,-3.20143 1.64916,3.55182 0,0 z m -20,-5.01531 c -1.37069,-5.71998 13.70987,-0.78218 3.57126,0.85434 -1.24194,0.19539 -2.55013,-0.1242 -3.57126,-0.85434 z m -15.99164,-6.95836 c -3.80703,-7.68219 6.13167,3.39244 0,0 z m 59.71917,-6.96024 c 0.10819,-6.49942 3.34915,4.64525 0,0 z m 4.27247,-3.06609 c 2.1902,-6.6815 3.27045,7.04187 0,0 z m -29.4573,0.0691 c 0.43398,-5.38863 3.615,4.18038 0,0 z m 20.4573,-0.16272 c 3.61368,-3.27853 5.32052,1.98473 0,0 z m -69.92105,-2.32305 c 0.50658,-4.94385 1.1747,4.00674 0,0 z m 82.43113,-0.56702 c 1.18281,-4.01197 4.56319,3.05386 0,0 z m -36.51008,-2.01631 c 2.56252,-4.24378 2.46849,4.0879 0,0 z m 39,-1.44098 c 1.95311,-5.08927 2.11299,3.60423 0,0 z m -4.92105,-0.97569 c 0.50658,-4.94384 1.17471,4.00671 0,0 z m -4.07895,-0.48489 c 2.7944,-5.75577 4.22384,-0.21959 0,0 z m -11.5,-2.09844 c 0.49016,-4.05916 2.9594,3.92817 0,0 z m 4.16667,0.33333 c -2.36479,-6.50921 5.61133,2.15341 0,0 z m 12.77446,-1.80153 c -2.34794,-5.41525 7.67088,3.27576 0.36032,0.23978 z m -5.94113,-0.5318 c 0.49016,-4.05916 2.9594,3.92817 0,0 z m -11.5,-3 c -2.23785,-3.69861 4.99139,3.36912 0,0 z m 2.5,-1.49148 c -6.94467,-0.40943 -9.29604,-11.21726 -16.79404,-8.57605 3.94006,-5.36243 15.19639,-0.84324 21.90011,-2.74598 3.8954,-1.54567 16.67923,3.56816 11.16366,-3.77764 -5.6277,-3.09719 -13.78655,-4.29055 -17.33975,-6.81867 3.72277,6.78258 -13.44646,3.19386 -17.69977,7.75566 -0.27904,4.62722 -10.55831,1.44812 -3.35938,1.61806 -5.47839,-5.28483 6.43514,-1.18261 1.10581,-6.8142 -6.18877,-7.16014 4.50987,-10.05365 9.94311,-9.25701 4.06994,-3.33152 11.7992,1.84651 13.34611,-4.95462 -1.20307,3.80169 -2.27289,9.38622 3.57444,5.70104 3.8151,0.80257 5.16091,5.38483 8.59899,3.84749 5.71409,1.5447 11.44024,1.41006 12.69725,6.04427 5.82006,-0.55961 12.27868,7.38479 3.60617,5.55789 -4.54849,1.54186 -13.58644,1.27068 -6.76703,7.20575 -0.12324,8.5063 -11.08043,-3.61804 -15.91966,0.10655 7.5637,-3.62376 -4.00498,-7.88979 -2.35909,-0.77069 1.22151,3.69987 2.19523,6.34231 -2.02024,5.16096 -0.69993,1.71304 -2.4404,0.98722 -3.67669,0.71719 z m 19.5,-7.50852 c -2.56252,-4.24378 -2.46849,4.0879 0,0 z m 6.25,-7.66228 c -3.91197,-1.1198 -3.04571,1.67412 0,0 z m -18.25,-8.05996 c -6.67425,2.48996 -0.59948,-2.08523 1.57379,-0.90679 -4.34911,-6.01666 -9.43226,3.96283 -4.12888,3.3611 0.97186,-0.67862 1.84909,-1.49845 2.55509,-2.45431 z m 2,2.66322 c -2.54359,-2.13525 -1.93,3.58158 0,0 z m -12,-2.94098 c 3.60912,-5.38574 -9.81751,5.74762 -1.0214,0.77033 0.34047,-0.25678 0.68093,-0.51355 1.0214,-0.77033 z m 14.46896,22.94978 c -0.72543,-4.90502 4.29603,2.4968 0,0 z m 12.53104,0.60924 c 1.92648,-3.64479 2.73706,1.85252 0,0 z m -88.52674,-8.36561 c 3.95013,-2.43264 7.36901,0.98822 2.55392,-0.12174 -0.66943,-0.15425 -2.27256,1.10921 -2.55392,0.12174 z m 40.02674,-0.19341 c 1.37027,-3.30116 2.80557,3.67408 0,0 z m -30.5,-2.38971 c 0.14,-4.79127 9.99149,-3.9785 3.04664,-1.57701 -1.069,0.2315 -1.83488,2.03041 -3.04664,1.57701 z m -4,-4.16931 c 2.51045,-3.47417 1.28984,4.81134 0,0 z m 105.5,-2.44098 c 3.19415,-4.41705 5.49094,4.11461 0,0 z m -31.5,-8 c -7.72204,-2.13175 3.13839,-4.80294 1.16902,0.79963 -0.65518,0.59908 -1.15669,-0.29597 -1.16902,-0.79963 z m -40.75,-3.25 c 4.34301,-5.31895 4.65596,6.02921 0,0 z m 54.75,-1.75 c 2.56252,-4.24378 2.46849,4.0879 0,0 z m -23.92105,-2.41667 c 0.50658,-4.94384 1.17471,4.00671 0,0 z m -8.57895,-4.58333 c 0.49016,-4.05916 2.9594,3.92817 0,0 z m 2.75,84.43908 c 4.27829,2.50311 9.20479,-1.85863 11.14266,0.73583 2.62681,-4.22246 5.0681,3.38385 7.17179,-2.55411 -1.76242,-5.33057 -14.96015,-2.56221 -15.92064,-1.5302 5.45456,1.10066 -6.67741,3.64919 -4.65104,-1.45534 -4.04464,4.14355 -5.09169,8.47897 2.25723,4.80382 z m 21.75,0.67203 c 6.90719,1.51101 6.77252,-8.99683 0.58182,-3.91303 -3.40166,-0.2933 -4.88911,7.59802 -0.58182,3.91303 z m -43,-1.17013 c -2.54359,-2.13525 -1.93,3.58158 0,0 z m 58,-1.94098 c -2.56252,-4.24378 -2.46849,4.0879 0,0 z m 8.5,-3 c -4.95872,-5.68091 -5.54105,7.21312 0,0 z m -85.89583,-4.72917 c -2.40554,1.82963 2.11551,3.30411 0,0 z m 91.75746,1.22917 c -5.21476,-5.42591 -6.21575,7.0709 0,0 z m -90.82968,-4.60066 c 0.006,-8.66509 -3.63556,5.69833 -0.1464,0.32017 z m 113.46805,-18.89934 c -3.49659,-4.33831 -3.92225,4.24209 0,0 z m -3,-2.77776 c -1.07712,-5.71255 -12.59932,-3.46865 -3.89162,0.008 1.02825,0.42995 3.38919,1.73664 3.89162,-0.008 z m -4.19344,-15.86732 c 9.80864,-7.92765 -12.19371,-6.97405 -6.41899,-3.30745 -8.81472,-1.93537 -3.91688,4.57089 1.73548,3.5751 1.55527,0.20014 3.17825,0.24725 4.68351,-0.26765 z m -55.2801,-37.16179 c -3.28709,0.0474 -2.3369,3.45439 0,0 z"
       id="path11492"
       inkscape:connector-curvature="0"
       sodipodi:nodetypes="sccccsccccccccccccccccccccccccccccccccccccccccccccccccccccccccccccccccccccccccccccccccccccccccccccccccccccccccccccccccccccccccccccccccccccccccccccccccccccccccccccccccccccccccccccccccccc" />
  </g>
</svg>
