<?xml version="1.0" encoding="UTF-8" standalone="no"?>
<svg
   xmlns:dc="http://purl.org/dc/elements/1.1/"
   xmlns:cc="http://creativecommons.org/ns#"
   xmlns:rdf="http://www.w3.org/1999/02/22-rdf-syntax-ns#"
   xmlns:svg="http://www.w3.org/2000/svg"
   xmlns="http://www.w3.org/2000/svg"
   xmlns:sodipodi="http://sodipodi.sourceforge.net/DTD/sodipodi-0.dtd"
   xmlns:inkscape="http://www.inkscape.org/namespaces/inkscape"
   sodipodi:docname="dragonstone wand.svg"
   height="100%"
   width="100%"
   inkscape:version="0.48.4 r9939"
   version="1.1"
   id="svg8438"
   viewBox="0 0 512 512">
  <metadata
     id="metadata8464">
    <rdf:RDF>
      <cc:Work
         rdf:about="">
        <dc:format>image/svg+xml</dc:format>
        <dc:type
           rdf:resource="http://purl.org/dc/dcmitype/StillImage" />
        <dc:title></dc:title>
      </cc:Work>
    </rdf:RDF>
  </metadata>
  <defs
     id="defs8462">
    <linearGradient
       id="linearGradient4077">
      <stop
         id="stop4079"
         offset="0"
         style="stop-color:#aa4400;stop-opacity:1;" />
      <stop
         style="stop-color:#ff9f00;stop-opacity:1;"
         offset="0.22752622"
         id="stop4081" />
      <stop
         style="stop-color:#803300;stop-opacity:1;"
         offset="0.4948855"
         id="stop4083" />
      <stop
         id="stop4085"
         offset="1"
         style="stop-color:#562200;stop-opacity:1;" />
    </linearGradient>
    <linearGradient
       id="linearGradient4057">
      <stop
         style="stop-color:#aa4400;stop-opacity:1;"
         offset="0"
         id="stop4059" />
      <stop
         id="stop4067"
         offset="0.22752622"
         style="stop-color:#ecd1a4;stop-opacity:1;" />
      <stop
         id="stop4065"
         offset="0.50136983"
         style="stop-color:#803300;stop-opacity:1;" />
      <stop
         style="stop-color:#562200;stop-opacity:1;"
         offset="1"
         id="stop4061" />
    </linearGradient>
    <linearGradient
       id="linearGradient3890">
      <stop
         style="stop-color:#701b1b;stop-opacity:1;"
         offset="0"
         id="stop3892" />
      <stop
         style="stop-color:#e31600;stop-opacity:1;"
         offset="1"
         id="stop3894" />
    </linearGradient>
    <linearGradient
       id="linearGradient3882">
      <stop
         style="stop-color:#600b0b;stop-opacity:1;"
         offset="0"
         id="stop3884" />
      <stop
         style="stop-color:#d11414;stop-opacity:1;"
         offset="1"
         id="stop3886" />
    </linearGradient>
    <linearGradient
       id="linearGradient3872">
      <stop
         style="stop-color:#800600;stop-opacity:1;"
         offset="0"
         id="stop3874" />
      <stop
         style="stop-color:#ff0004;stop-opacity:0;"
         offset="1"
         id="stop3876" />
    </linearGradient>
    <filter
       id="filter4074"
       inkscape:label="Black Light"
       inkscape:menu="Color"
       inkscape:menu-tooltip="Light areas turn to black"
       x="0"
       width="1"
       y="0"
       height="1"
       color-interpolation-filters="sRGB">
      <feColorMatrix
         id="feColorMatrix4076"
         type="luminanceToAlpha"
         result="result2" />
      <feComposite
         in2="SourceGraphic"
         id="feComposite4078"
         operator="arithmetic"
         in="result2"
         k3="2"
         result="result4" />
      <feBlend
         in2="result2"
         id="feBlend4080"
         in="result4"
         mode="multiply"
         result="result3" />
      <feComposite
         in2="SourceGraphic"
         id="feComposite4082"
         operator="in"
         in="result3" />
    </filter>
  </defs>
  <sodipodi:namedview
     pagecolor="#000000"
     bordercolor="#666666"
     borderopacity="1"
     objecttolerance="10"
     gridtolerance="10"
     guidetolerance="10"
     inkscape:pageopacity="0"
     inkscape:pageshadow="2"
     inkscape:window-width="1190"
     inkscape:window-height="1126"
     id="namedview8460"
     showgrid="false"
     inkscape:zoom="0.5"
     inkscape:cx="-134.77191"
     inkscape:cy="331.24384"
     inkscape:window-x="160"
     inkscape:window-y="130"
     inkscape:window-maximized="0"
     inkscape:current-layer="svg8438" />
  <path
     style="fill:#000000"
     id="path3978"
     d="M -13.466093,0.1885736 H 514.89024 V 516.42957 H -13.466093 z"
     inkscape:connector-curvature="0" />
  <path
     transform="matrix(0.92592215,0,0,1,-12.92858,0)"
     sodipodi:end="6.1122693"
     sodipodi:start="6.11213"
     d="m 101.95774,-78.577314 a 39.244427,23.688076 0 0 1 9.3e-4,0.0033 l -38.672613,4.028989 z"
     sodipodi:ry="23.688076"
     sodipodi:rx="39.244427"
     sodipodi:cy="-74.545074"
     sodipodi:cx="63.286057"
     id="path4121"
     style="fill:#333333;fill-opacity:1;fill-rule:nonzero;stroke:none"
     sodipodi:type="arc" />
  <path
     transform="matrix(0.92592215,0,0,1,-12.92858,0)"
     sodipodi:end="6.1122693"
     sodipodi:start="6.11213"
     d="m 76.035958,-54.360671 a 10.606602,11.755651 0 0 1 2.51e-4,0.0016 l -10.452057,1.999461 z"
     sodipodi:ry="11.755651"
     sodipodi:rx="10.606602"
     sodipodi:cy="-52.359596"
     sodipodi:cx="65.584152"
     id="path4123"
     style="fill:#333333;fill-opacity:1;fill-rule:nonzero;stroke:none"
     sodipodi:type="arc" />
  <path
     transform="matrix(0.92592215,0,0,1,-12.92858,0)"
     sodipodi:end="6.1122693"
     sodipodi:start="6.11213"
     d="m 69.424272,-57.251206 a 15.46796,16.793785 0 0 1 3.67e-4,0.0023 l -15.242583,2.856372 z"
     sodipodi:ry="16.793785"
     sodipodi:rx="15.46796"
     sodipodi:cy="-54.392529"
     sodipodi:cx="54.182056"
     id="path4125"
     style="fill:#333333;fill-opacity:1;fill-rule:nonzero;stroke:none"
     sodipodi:type="arc" />
  <g
     id="g4060"
     style="filter:url(#filter4074)">
    <path
       style="fill:#a49e9b"
       d="m 417.48248,492.17593 c -3.10599,-3.95947 -19.29986,-24.28314 -35.98635,-45.16372 -16.68651,-20.88056 -40.9411,-51.31831 -53.8991,-67.63943 -14.35516,-18.08089 -24.58799,-29.88042 -26.19116,-30.20117 -1.65516,-0.33115 -2.92362,-1.89577 -3.41958,-4.21794 -0.9567,-4.47953 -11.37201,-17.11756 -14.45282,-17.53721 -1.32641,-0.18067 -2.56618,-2.13089 -3.09336,-4.86603 -0.59019,-3.06206 -8.5493,-14.58568 -24.18018,-35.00938 -30.06527,-39.28405 -38.69432,-50.63586 -40.89688,-53.80132 -0.98573,-1.41668 -6.85311,-9.09723 -13.03862,-17.06789 C 191.1027,202.21149 159.60084,160.99129 113.83384,100.88188 63.236712,34.428689 65.766462,38.299316 68.914301,32.152874 c 1.249987,-2.440715 3.162428,-3.702308 5.99884,-3.957322 4.066193,-0.365573 4.645823,0.230455 24.711729,25.410892 27.26133,34.209862 112.12363,140.098196 123.5771,154.195336 4.98574,6.13656 12.23559,15.21851 16.11078,20.18212 3.87519,4.96361 10.70509,13.49862 15.17756,18.96669 4.47247,5.46806 16.33123,20.28136 26.35279,32.91842 12.56195,15.84046 19.15489,23.16333 21.22789,23.57808 2.09402,0.41896 3.20478,1.68399 3.65875,4.16702 0.86019,4.70482 11.37256,18.41686 14.79322,19.29589 1.58084,0.40622 2.57911,1.58319 2.42298,2.85648 -0.14606,1.19109 27.13162,36.70009 60.61708,78.90893 59.97732,75.60215 60.9216,76.88458 63.50316,86.24446 2.38852,8.66 2.3556,9.76384 -0.37181,12.4683 -2.94621,2.92142 -3.1509,2.88252 -13.27847,-2.52303 -8.48181,-4.52711 -11.27677,-6.75298 -15.93342,-12.68921 z"
       id="path4072"
       inkscape:connector-curvature="0" />
    <path
       style="fill:#85756a"
       d="m 412.54051,485.11856 c -6.49996,-8.19201 -27.5992,-34.65729 -46.8872,-58.81171 -19.28799,-24.15442 -41.11475,-51.63852 -48.50389,-61.07577 -7.38914,-9.43727 -14.42526,-17.29356 -15.63582,-17.45846 -1.21054,-0.16489 -2.39335,-1.56718 -2.62846,-3.11621 -0.53463,-3.52231 -13.03738,-18.72399 -15.28532,-18.58493 -0.91261,0.0565 -1.93394,-1.56564 -2.26962,-3.60467 -0.5665,-3.44101 -5.02202,-9.63028 -36.4628,-50.65133 -6.41137,-8.36499 -13.30378,-17.46141 -15.31645,-20.2143 -2.01267,-2.75289 -19.39258,-25.54498 -38.62201,-50.64911 C 171.6995,175.84796 148.88434,145.89849 140.22857,134.39772 131.57281,122.89695 112.9479,98.435018 98.839878,80.037893 66.056746,37.288072 68.244804,40.557209 68.774357,35.117544 c 0.422144,-4.336412 0.817575,-4.768396 5.314168,-5.805401 2.671943,-0.616196 5.128472,-0.625268 5.458954,-0.02016 0.54269,0.993654 23.916691,30.301481 46.047751,57.737641 18.61671,23.079375 44.04839,54.843255 70.68519,88.284985 15.36308,19.2879 32.64554,40.90333 38.40546,48.03429 5.75993,7.13095 22.68267,28.3074 37.60608,47.05877 16.96615,21.31811 28.07599,34.2218 29.64875,34.43603 1.5353,0.20912 2.65809,1.43909 2.88187,3.15696 0.49043,3.76491 12.42401,18.71439 15.24577,19.09874 1.24559,0.16967 2.11742,1.26516 1.96912,2.47441 -0.14637,1.19347 27.03941,36.60562 60.41282,78.69367 33.37341,42.08804 60.99453,77.23708 61.38028,78.10898 0.38573,0.8719 1.72258,5.60889 2.97076,10.52667 2.23667,8.81233 2.2163,8.9717 -1.41159,11.03976 -3.39926,1.93771 -4.34504,1.71454 -12.35607,-2.91571 -7.52359,-4.34847 -10.24373,-6.99107 -20.49316,-19.90862 z"
       id="path4070"
       inkscape:connector-curvature="0" />
    <path
       style="fill:#5b5654"
       d="m 388.94432,455.25124 c -19.5096,-24.55707 -46.627,-58.71286 -60.2609,-75.90176 -13.63389,-17.1889 -25.68353,-31.37441 -26.77699,-31.52336 -1.09346,-0.14893 -2.22186,-1.50014 -2.50758,-3.00268 -0.71053,-3.73658 -13.27533,-18.90808 -15.54318,-18.76778 -1.02105,0.0632 -2.24226,-1.95517 -2.76218,-4.56519 -0.64059,-3.21571 -8.95792,-15.12433 -26.60263,-38.08925 C 229.8456,251.32498 157.7026,156.9299 113.83496,99.360876 102.32143,84.251285 88.270796,65.893999 82.611313,58.566926 67.827189,39.426596 65.768182,34.346798 71.246038,30.527486 c 5.766452,-4.020521 5.034728,-4.830737 77.965882,86.329434 28.82029,36.02387 53.7616,67.43199 56.74525,71.45819 1.51789,2.04828 7.48664,9.53089 13.26387,16.62804 22.4427,27.57008 70.46547,87.72784 73.44661,92.00598 1.72611,2.47708 5.16324,5.67608 7.63806,7.10889 2.60737,1.50959 4.1809,3.22757 3.74165,4.08526 -0.41692,0.81407 0.81979,3.52529 2.74826,6.02492 1.92847,2.49962 2.87978,4.22638 2.11402,3.83725 -0.76573,-0.38919 -2.91309,-2.68923 -4.77186,-5.11132 -1.85875,-2.42208 -3.6185,-3.93724 -3.91055,-3.367 -0.94164,1.83864 12.73115,15.70907 17.31206,17.5623 2.7364,1.10702 4.55919,2.70464 4.8318,4.23485 0.24074,1.35145 27.48787,36.43989 60.54918,77.97429 59.47015,74.7114 60.14296,75.62389 63.06322,85.52835 2.90398,9.84921 2.89322,10.05333 -0.66467,12.61097 -3.48653,2.50635 -3.92688,2.41767 -12.25946,-2.46885 -8.22515,-4.82346 -10.35817,-7.22745 -44.11504,-49.7178 z m 15.92459,-2.23661 c -0.0519,-0.93127 -0.33339,-1.82921 -0.62558,-1.99543 -0.2922,-0.16621 -0.82388,0.26915 -1.18151,0.96747 -0.35764,0.69832 -0.0761,1.59626 0.62558,1.99542 0.7017,0.39916 1.23338,-0.0362 1.18151,-0.96746 z m -5.3255,-6.30852 c 0.35764,-0.69832 -0.19494,-1.75045 -1.22794,-2.33807 -1.033,-0.58762 -1.83575,-0.30646 -1.78387,0.62481 0.0519,0.93127 0.60445,1.9834 1.22794,2.33808 0.62349,0.35467 1.42624,0.0735 1.78387,-0.62482 z m -4.87652,-5.66635 c 0.66561,-1.29967 -6.34237,-10.58171 -9.04396,-11.97868 -1.52515,-0.78871 -1.4745,-0.22403 0.17558,1.95624 1.27578,1.68567 3.55241,4.7585 5.05919,6.8285 3.26628,4.4872 3.18274,4.41715 3.80919,3.19394 z"
       id="path4068"
       inkscape:connector-curvature="0" />
    <path
       style="fill:#644632"
       d="m 423.74188,498.17974 c -0.98153,-1.42488 -16.51289,-20.99175 -34.51413,-43.48193 -18.00123,-22.49018 -44.39387,-55.64085 -58.6503,-73.66814 -14.25644,-18.02729 -27.0709,-33.07245 -28.47659,-33.43368 -1.4211,-0.36518 -2.44141,-1.58968 -2.29813,-2.75802 0.14172,-1.15569 -2.05124,-4.65 -4.87327,-7.76511 -2.82203,-3.11512 -5.38934,-6.45794 -5.70513,-7.42849 -0.3158,-0.97055 -1.7419,-2.4289 -3.16913,-3.24077 -1.42721,-0.81187 -3.31218,-3.69418 -4.18879,-6.40514 -0.87661,-2.71095 -3.08705,-6.45439 -4.91207,-8.31872 -2.7722,-2.83189 -26.26706,-33.0672 -35.86572,-46.15522 -1.51144,-2.06089 -9.46767,-12.49746 -17.6805,-23.1924 -8.21283,-10.69494 -17.64373,-23.03636 -20.95756,-27.42538 -3.31382,-4.38903 -15.26461,-20.01177 -26.5573,-34.71722 C 164.60057,165.48408 147.23121,142.67139 137.29469,129.49466 127.35817,116.31792 109.13995,92.428826 96.809771,76.407759 67.942018,38.898837 69.252044,40.835741 69.33677,35.788403 c 0.06681,-3.980059 0.43301,-4.439754 4.425884,-5.555827 l 4.353054,-1.216754 30.752532,38.096141 c 41.42443,51.316487 69.28906,86.102517 71.46607,89.217807 2.32486,3.32687 7.66135,10.04337 27.4327,34.52674 8.90087,11.02218 17.91058,22.46245 20.02157,25.42281 2.111,2.96038 4.25031,5.61787 4.75402,5.90555 1.49065,0.85123 24.38821,30.40055 24.58348,31.72486 0.0985,0.66775 1.41407,2.11505 2.92357,3.21622 2.94942,2.1516 16.07275,18.36209 30.08898,37.16723 1.01431,1.36086 3.48321,4.32723 5.48644,6.59193 2.00324,2.26469 3.13579,4.42485 2.51676,4.80036 -0.61901,0.37552 -0.10987,0.82109 1.13142,0.99017 1.2413,0.16908 2.53548,-0.23653 2.87596,-0.90135 0.34048,-0.66481 1.01182,-0.48962 1.49186,0.38933 0.62852,1.15078 0.30837,1.7759 -1.1438,2.23338 -3.39728,1.07023 -3.08391,2.09187 2.71719,8.85856 8.29591,9.67676 10.42251,11.7435 10.32746,10.03672 -0.15594,-2.79942 5.27234,1.62308 6.25754,5.09813 0.53342,1.88151 1.77632,3.87969 2.762,4.44039 1.06152,0.60384 1.12687,1.42302 0.16029,2.00937 -1.11247,0.67485 -0.82404,1.09995 0.90626,1.33563 2.51131,0.34208 6.31415,6.08152 4.424,6.67697 -0.53894,0.16978 0.62485,0.8431 2.58622,1.49624 2.44735,0.81501 3.07009,1.48846 1.98504,2.1467 -1.01681,0.61682 -0.77561,1.06882 0.67583,1.26653 1.24131,0.16907 1.9643,0.87876 1.60666,1.57708 -0.35764,0.69832 0.0168,2.08853 0.83217,3.08936 0.81532,1.00082 1.44454,1.13981 1.39826,0.30884 -0.0463,-0.83096 2.17894,1.24604 4.94485,4.61574 5.53429,6.74214 6.99859,9.57665 2.92921,5.67017 -1.43405,-1.37663 -1.00173,-0.17038 0.96072,2.68058 1.96245,2.85095 4.4951,5.76561 5.62813,6.47701 1.13301,0.7114 1.76743,1.86479 1.40979,2.56311 -0.35763,0.69832 -0.0761,1.59626 0.62558,1.99542 0.70171,0.39916 1.23339,-0.0362 1.18151,-0.96747 -0.16164,-2.90206 2.01759,-0.64962 3.57648,3.69662 0.93784,2.61474 2.55381,4.40337 4.37164,4.83874 2.38788,0.5719 2.44514,0.76364 0.33299,1.11497 -2.06356,0.34324 -1.86113,0.67841 1.05963,1.75457 2.63058,0.96925 3.0916,1.5507 1.69867,2.14239 -2.32499,0.9876 5.89977,10.20221 8.93849,10.0142 1.20588,-0.0746 1.35974,0.23481 0.40484,0.81408 -0.84718,0.51393 -0.78384,2.13956 0.14078,3.61254 2.06539,3.29029 3.2141,4.03084 3.10093,1.99912 -0.047,-0.84443 0.8857,-0.58039 2.07273,0.58675 1.40613,1.38254 1.50589,2.16243 0.28626,2.23789 -1.10787,0.0685 -0.47556,1.33627 1.54909,3.10575 1.8816,1.64447 4.1815,2.94289 5.11092,2.88536 0.92941,-0.0575 1.03095,0.29515 0.22566,0.78367 -1.65747,1.00546 0.78606,4.65198 3.02449,4.51349 0.8039,-0.0497 1.04204,0.72885 0.52915,1.7303 -0.92698,1.81002 4.54768,7.72263 7.00959,7.57032 0.70028,-0.0433 1.13726,1.03006 0.97107,2.38529 -0.19145,1.56117 0.69989,2.72155 2.43256,3.16679 1.5041,0.38653 2.21617,1.01732 1.5824,1.40179 -1.18321,0.71776 3.01709,5.90087 8.34062,10.29218 5.27029,4.34742 9.74257,10.35477 8.34152,11.20468 -0.75276,0.45666 -0.5269,0.77183 0.50722,0.70786 2.03083,-0.12565 9.06719,7.43868 7.69423,8.27155 -0.46341,0.28111 0.029,1.10108 1.09427,1.82212 5.15362,3.48837 11.65066,13.28288 14.4202,21.73899 2.66558,8.13866 2.7329,9.77658 0.50723,12.34116 -2.21021,2.54675 -3.19092,2.60422 -7.0682,0.41418 -2.47603,-1.39864 -6.53661,-3.35426 -9.02344,-4.34595 -2.48682,-0.99172 -5.32459,-2.96887 -6.3061,-4.39379 z m 11.64137,-6.59028 c 0.1449,-0.87294 -2.24536,-4.863 -5.31171,-8.86681 -12.41741,-16.21379 -26.41656,-34.27508 -30.89401,-39.85858 -2.61078,-3.25572 -6.46226,-8.30454 -8.55885,-11.21959 -2.09658,-2.91506 -4.23782,-5.54235 -4.75832,-5.83843 -0.8266,-0.47021 -7.72387,-8.70482 -13.346,-15.93366 -1.03181,-1.3267 -5.56839,-6.82146 -10.0813,-12.21056 -4.51291,-5.38912 -10.89721,-13.1126 -14.18734,-17.16329 -13.22888,-16.28691 -7.39259,-5.1051 7.2902,13.96735 3.5893,4.66239 6.79409,9.25219 7.12176,10.19955 0.32767,0.94738 1.34518,2.1488 2.26116,2.66985 1.5272,0.86874 7.62018,8.72805 19.40876,25.03529 2.50412,3.46398 8.27858,10.64249 12.83213,15.95224 7.69344,8.9711 13.15674,15.71205 17.63603,21.76042 4.48706,6.05883 17.33805,21.19926 18.75839,22.10024 0.86111,0.54623 1.6842,0.27892 1.8291,-0.59402 z M 338.27598,368.63657 c -0.14758,-0.40797 -1.69835,-2.05034 -3.44615,-3.6497 -2.32079,-2.12367 -2.86847,-2.28312 -2.03078,-0.59117 1.03262,2.08565 6.12313,6.02731 5.47693,4.24087 z m -6.81023,-7.79364 c 0.75025,-1.59797 -15.06672,-20.40834 -16.72211,-19.88685 -0.84074,0.26485 -0.22167,1.74137 1.37571,3.28115 1.59737,1.53978 4.56566,5.07085 6.59619,7.84683 6.4188,8.77531 7.99961,10.35769 8.75021,8.75887 z m -16.57518,-22.23212 c 0.15771,-0.30794 -0.25538,-0.86828 -0.91798,-1.2452 -0.6626,-0.37692 -1.51461,-0.0802 -1.89335,0.6593 -0.37875,0.73954 0.0343,1.29988 0.91798,1.24521 0.88363,-0.0547 1.73564,-0.35136 1.89335,-0.65931 z m -5.34334,-8.47766 c 0.42676,-1.46335 -0.37028,-2.68926 -2.21828,-3.41183 -1.5864,-0.6203 -2.55609,-1.7688 -2.15487,-2.55223 0.40123,-0.78343 0.0168,-1.38033 -0.85416,-1.32643 -2.19534,0.13582 0.34877,8.93704 2.68559,9.29068 1.03159,0.15612 2.17537,-0.74396 2.54172,-2.00019 z m -7.64722,-9.90591 c 1.19976,-0.37796 -1.3599,-2.7124 -4.08019,-3.72118 -0.5393,-0.19999 -0.68794,-0.93497 -0.3303,-1.63329 0.35764,-0.69832 -0.43859,-1.88906 -1.76941,-2.64609 -2.06423,-1.17423 -2.39154,-0.90888 -2.22822,1.80637 0.19012,3.16064 5.53608,7.09896 8.40812,6.19419 z"
       id="path4066"
       inkscape:connector-curvature="0" />
    <path
       style="fill:#4e301e"
       d="m 423.74771,498.16835 c -1.61059,-2.32022 -44.12454,-55.66481 -80.029,-100.41676 -7.57272,-9.43876 -16.07076,-20.18432 -18.88455,-23.879 -14.15252,-18.5832 -20.20967,-25.6281 -22.55248,-26.23013 -1.41621,-0.36392 -2.61122,-1.61277 -2.65565,-2.77512 -0.0965,-2.52594 -3.86328,-8.88044 -5.48506,-9.25321 -0.63105,-0.14503 -0.50413,-0.6539 0.28201,-1.13079 0.7895,-0.47893 0.37662,-1.46596 -0.92228,-2.20483 -1.29342,-0.73576 -2.22288,-2.38789 -2.06548,-3.67143 0.23096,-1.88333 -0.30137,-2.29442 -2.75862,-2.13025 -4.60196,0.30746 -6.47096,-3.02439 -4.19231,-7.47365 1.85517,-3.62239 0.51268,-5.85959 -2.59165,-4.31887 -1.49953,0.74424 -14.65786,-13.63979 -13.87531,-15.16779 0.30732,-0.60008 -0.41706,-1.64614 -1.60974,-2.32459 -1.19268,-0.67845 -2.43928,-2.00343 -2.77022,-2.94441 -0.33094,-0.94096 -2.79746,-4.25814 -5.48115,-7.37152 -5.09018,-5.90514 -8.89432,-10.88569 -14.84239,-19.43229 -1.94099,-2.78898 -3.95331,-5.31217 -4.47182,-5.60712 -0.51851,-0.29496 -3.17423,-3.65017 -5.90162,-7.45603 -2.72737,-3.80585 -5.53574,-7.24789 -6.24079,-7.64896 -0.70507,-0.40107 -1.06056,-1.16145 -0.79,-1.68975 0.27056,-0.5283 -1.27777,-2.87117 -3.44074,-5.20641 -2.16298,-2.33524 -7.83453,-9.37297 -12.60343,-15.6394 -4.76892,-6.26643 -18.96562,-24.78185 -31.54823,-41.14538 -12.58261,-16.36351 -27.26793,-35.53194 -32.63405,-42.59648 -5.36611,-7.06455 -16.25272,-21.34785 -24.19246,-31.74069 C 113.55096,98.320662 105.41584,87.549928 103.41264,84.778542 101.40944,82.007157 95.114505,73.794521 89.423888,66.52824 72.542198,44.972226 68.992706,39.473825 69.260479,35.29383 c 0.212199,-3.312391 0.865653,-4.044791 4.520178,-5.066293 l 4.272117,-1.194123 23.648526,29.237684 c 13.0067,16.080725 25.51746,31.739654 27.80171,34.797618 2.28425,3.057964 14.23685,17.993694 26.56135,33.190494 12.32449,15.19681 23.64591,29.31458 25.15872,31.3728 1.5128,2.05822 4.21414,5.66871 6.00296,8.02333 1.78883,2.35461 4.29515,5.66243 5.5696,7.35069 1.29713,1.71833 1.49021,2.67852 0.4386,2.18123 -1.03323,-0.48856 0.59261,2.31722 3.61294,6.23516 3.02033,3.91794 5.95698,7.09471 6.5259,7.05951 0.56891,-0.0352 2.64629,2.20483 4.6164,4.97783 1.9701,2.77301 4.2187,5.00244 4.99687,4.9543 0.77818,-0.0482 1.46425,0.79915 1.52462,1.88283 0.0604,1.08371 1.53793,3.17183 3.28347,4.64025 3.98924,3.3559 8.87191,12.19552 5.79031,10.48282 -4.3598,-2.4231 -19.92079,-21.10833 -19.02904,-22.84957 0.3086,-0.60256 -0.47369,-1.23652 -1.73845,-1.40878 -1.26474,-0.17228 -3.02152,-1.83044 -3.90391,-3.6849 -1.68175,-3.53422 -6.73102,-7.19784 -7.59506,-5.51074 -0.51315,1.00198 9.12869,12.82986 19.10878,23.4412 7.60683,8.08796 12.28736,14.85152 9.98438,14.42781 -1.19498,-0.21986 -0.96618,1.32292 0.61979,4.17908 3.62778,6.53327 5.80835,7.09685 3.51458,0.90839 -1.90136,-5.1298 -1.88291,-5.21094 0.62182,-2.73299 1.41975,1.40457 2.83666,3.35386 3.1487,4.33176 0.31202,0.97791 1.74109,2.44571 3.17572,3.26179 1.43462,0.81608 3.35238,3.29106 4.26168,5.49995 0.9093,2.20889 1.91197,4.19451 2.22815,4.41249 2.55799,1.7635 7.12437,6.92084 8.35055,9.43124 1.45269,2.97414 1.42828,3.0272 -0.8074,1.75544 -2.25569,-1.28314 -2.27558,-1.24248 -0.92157,1.88298 0.76112,1.7569 2.47369,3.8378 3.80573,4.62422 1.33204,0.78642 3.17127,3.00465 4.08716,4.92941 0.9159,1.92478 1.94036,2.96246 2.27659,2.30595 0.33622,-0.65651 2.12718,-0.68884 3.97988,-0.0719 1.85272,0.617 2.87343,1.27778 2.26824,1.46843 -0.60519,0.19065 0.32901,2.07834 2.07597,4.19486 l 3.1763,3.84823 -4.00155,-2.81836 c -2.20085,-1.55009 -3.21519,-2.0609 -2.25408,-1.13516 0.9611,0.92577 1.97399,2.87448 2.25084,4.33047 0.61952,3.25792 3.11088,4.82649 5.12621,3.22749 0.82744,-0.65651 0.60019,-0.13803 -0.50499,1.15219 -1.6143,1.88453 -1.41962,2.85245 0.98991,4.9221 1.66418,1.42942 3.69412,2.15484 4.56009,1.6295 1.10466,-0.67013 2.40555,0.3425 4.45195,3.46546 l 2.89124,4.41222 -3.2977,-2.67386 c -3.17776,-2.57662 -3.1784,-2.52681 -0.0174,1.36936 1.80419,2.22377 3.14816,4.83946 2.98662,5.81263 -0.16154,0.97319 0.60804,2.28693 1.71016,2.91942 1.10238,0.63201 3.13303,2.90768 4.51311,5.05595 1.38008,2.14825 2.9343,3.77203 3.45381,3.60836 1.73346,-0.54608 2.74703,4.33606 1.4329,6.90202 -0.96596,1.88613 -0.61221,2.70786 1.3869,3.22157 1.476,0.37929 2.65676,1.14936 2.62391,1.71127 -0.10545,1.80437 9.44103,11.93581 11.51256,12.21798 1.84565,0.25139 3.38237,-1.28312 5.25588,-5.24841 0.40665,-0.86054 1.03139,-1.27065 1.38844,-0.91133 0.35702,0.35934 2.30065,0.63458 4.31912,0.6117 3.21869,-0.0365 3.79107,0.44789 4.65491,3.93917 0.54173,2.18941 1.80902,4.44953 2.81621,5.02246 1.0914,0.62084 1.17196,1.44166 0.19941,2.03163 -1.11247,0.67486 -0.82403,1.09995 0.90627,1.33564 2.51131,0.34207 6.31415,6.08152 4.424,6.67697 -0.53895,0.16978 0.62485,0.84309 2.58621,1.49624 2.44736,0.81501 3.0701,1.48846 1.98504,2.1467 -1.0168,0.61682 -0.7756,1.06882 0.67583,1.26653 1.24131,0.16907 1.9643,0.87876 1.60667,1.57708 -0.35764,0.69832 0.0168,2.08852 0.83216,3.08936 0.81532,1.00082 1.44455,1.1398 1.39826,0.30884 -0.0463,-0.83097 2.17894,1.24604 4.94485,4.61574 5.53429,6.74213 6.99859,9.57664 2.92922,5.67017 -1.43406,-1.37664 -1.00173,-0.17038 0.96072,2.68057 1.96244,2.85096 4.4951,5.76562 5.62812,6.47701 1.13302,0.71141 1.76744,1.86479 1.4098,2.56311 -0.35764,0.69832 -0.0761,1.59626 0.62558,1.99543 0.7017,0.39916 1.23338,-0.0362 1.18151,-0.96747 -0.16164,-2.90206 2.01758,-0.64963 3.57647,3.69662 0.93784,2.61473 2.55382,4.40337 4.37165,4.83873 2.38788,0.57191 2.44514,0.76365 0.33299,1.11497 -2.06356,0.34324 -1.86114,0.67842 1.05963,1.75458 2.63058,0.96924 3.0916,1.5507 1.69866,2.14239 -2.32499,0.9876 5.89978,10.20221 8.93849,10.0142 1.20588,-0.0746 1.35974,0.23481 0.40485,0.81408 -0.84718,0.51392 -0.78384,2.13956 0.14077,3.61254 2.06539,3.29028 3.2141,4.03083 3.10094,1.99911 -0.047,-0.84442 0.88569,-0.58038 2.07273,0.58676 1.40612,1.38254 1.50588,2.16243 0.28625,2.23788 -1.10787,0.0685 -0.47555,1.33627 1.5491,3.10576 1.88159,1.64446 4.1815,2.94289 5.11092,2.88536 0.92941,-0.0575 1.03095,0.29515 0.22566,0.78366 -1.65748,1.00547 0.78605,4.65199 3.02448,4.5135 0.8039,-0.0497 1.04204,0.72884 0.52916,1.7303 -0.92698,1.81002 4.54767,7.72263 7.00958,7.57031 0.70028,-0.0433 1.13727,1.03006 0.97108,2.3853 -0.19145,1.56117 0.69989,2.72155 2.43255,3.16679 1.50411,0.38652 2.21618,1.01732 1.58241,1.40178 -1.18322,0.71776 3.01708,5.90087 8.34061,10.29219 5.2703,4.34742 9.74257,10.35477 8.34152,11.20468 -0.75275,0.45665 -0.52689,0.77183 0.50723,0.70785 2.03083,-0.12565 9.06719,7.43868 7.69423,8.27155 -0.46342,0.28112 0.029,1.10109 1.09427,1.82213 5.15362,3.48836 11.65066,13.28288 14.4202,21.73898 2.66557,8.13867 2.73289,9.77658 0.50722,12.34116 -2.29528,2.64478 -3.12042,2.64182 -7.81399,-0.0281 -2.88625,-1.64183 -6.94418,-3.60263 -9.0176,-4.35734 -2.07344,-0.7547 -4.57561,-2.53281 -5.56031,-3.95149 z m 11.63554,-6.57889 c 0.1449,-0.87294 -2.24536,-4.863 -5.31171,-8.86681 -12.41741,-16.21379 -26.41656,-34.27508 -30.89401,-39.85858 -2.61078,-3.25572 -6.46226,-8.30454 -8.55885,-11.21959 -2.09658,-2.91506 -4.23782,-5.54235 -4.75832,-5.83843 -0.83413,-0.47449 -8.02855,-9.07111 -13.34172,-15.94202 -6.13692,-7.93618 -19.67446,-24.15344 -20.60351,-24.68193 -0.60451,-0.34387 -2.88354,-3.0997 -5.06453,-6.12406 -7.29974,-10.12251 -7.68425,-7.67045 -0.43993,2.80552 12.15888,17.58291 17.56729,24.93651 18.89627,25.6925 1.1753,0.66856 7.50076,8.91348 19.02743,24.80129 2.50786,3.45671 7.85034,10.11175 11.87219,14.78898 4.02185,4.67725 8.59296,10.31118 10.15802,12.51985 1.56507,2.20867 3.22383,4.23094 3.68616,4.49393 0.46233,0.26299 2.13782,2.25261 3.72332,4.42136 5.14539,7.0382 18.17221,22.58207 19.78009,23.60201 0.86111,0.54623 1.6842,0.27892 1.8291,-0.59402 z M 337.39347,367.57524 c -0.79986,-0.94426 -2.69936,-3.38654 -4.22111,-5.4273 -10.71407,-14.36823 -16.9565,-21.65565 -18.21166,-21.26024 -1.62627,0.51232 17.7105,24.81978 21.48855,27.01239 1.65051,0.95791 1.94498,0.85658 0.94422,-0.32485 z m -22.5029,-28.96443 c 0.15771,-0.30794 -0.25538,-0.86828 -0.91798,-1.2452 -0.6626,-0.37692 -1.51461,-0.0802 -1.89335,0.6593 -0.37875,0.73954 0.0343,1.29988 0.91798,1.24521 0.88363,-0.0547 1.73564,-0.35136 1.89335,-0.65931 z m -25.15112,-15.44002 c 0.35204,-2.12082 -1.68646,-3.02527 -3.27476,-1.45295 -0.57852,0.57268 -0.14829,1.55521 0.95604,2.18341 1.10434,0.6282 2.14776,0.29949 2.31872,-0.73046 z m -4.39296,-11.92641 c 0.35764,-0.69832 0.0761,-1.59626 -0.62558,-1.99543 -0.70171,-0.39916 -1.23338,0.0362 -1.18151,0.96747 0.0519,0.93127 0.33338,1.82921 0.62558,1.99542 0.29219,0.16622 0.82387,-0.26914 1.18151,-0.96746 z m -47.59424,-68.0629 c 0.35764,-0.69832 0.0761,-1.59626 -0.62558,-1.99542 -0.7017,-0.39916 -1.23338,0.0362 -1.1815,0.96747 0.0519,0.93126 0.33338,1.8292 0.62557,1.99542 0.2922,0.16621 0.82388,-0.26915 1.18151,-0.96747 z m -3.58797,-5.14471 c 0.60825,-1.18767 -1.49228,-4.30342 -3.77763,-5.60344 -0.73505,-0.41813 -0.71372,0.67725 0.0474,2.43416 1.59492,3.68165 2.89998,4.79044 3.73025,3.16928 z m 67.16647,68.28983 c 0.88317,-0.79915 1.9292,-0.86081 2.32449,-0.13703 0.99562,1.82296 0.61992,2.2098 -1.82294,1.87705 -1.40569,-0.19147 -1.57267,-0.77082 -0.50155,-1.74002 z m -24.11043,-21.74211 c 0.68632,-1.34011 3.28666,-0.58795 3.37378,0.97587 0.0527,0.94646 -0.74933,1.24006 -1.78234,0.65243 -1.033,-0.58762 -1.74915,-1.32035 -1.59144,-1.6283 z m -13.55034,-19.10635 c 0.14056,-0.27445 1.27116,-0.36066 2.51247,-0.19158 1.29416,0.17628 1.66873,0.66421 0.87807,1.14385 -1.32536,0.804 -3.91718,0.0761 -3.39054,-0.95227 z m -2.56923,-4.09626 c 0.35764,-0.69832 0.88931,-1.13368 1.18151,-0.96747 0.29219,0.16622 0.57371,1.06416 0.62558,1.99542 0.0519,0.93127 -0.47981,1.36663 -1.18151,0.96747 -0.70171,-0.39916 -0.98322,-1.2971 -0.62558,-1.99542 z m -17.53513,-19.30152 c 0.8675,-0.57831 0.91886,-2.18671 0.11411,-3.57425 -0.80474,-1.38753 -0.91662,-2.22303 -0.24862,-1.85665 0.6678,0.36676 1.74725,1.66496 2.39835,2.88572 1.0082,1.89035 0.81111,2.32173 -1.32866,2.90811 -1.59825,0.43798 -1.93854,0.30592 -0.93518,-0.36293 z m 4.57046,2.08923 c -0.64721,-1.24231 -0.63463,-1.95035 0.028,-1.57343 0.6626,0.37692 1.73427,1.70173 2.38149,2.94404 0.64721,1.24232 0.63463,1.95035 -0.028,1.57344 -0.6626,-0.37692 -1.73427,-1.70173 -2.38149,-2.94405 z m -13.04813,-15.53048 c -1.97345,-2.82946 -2.85983,-4.78993 -1.96973,-4.35659 1.76582,0.8597 6.93308,8.33457 6.43451,9.30809 -0.42685,0.83347 -0.44065,0.81819 -4.46478,-4.9515 z m -8.73943,-10.97037 c 0.61639,-0.19418 1.67856,0.35179 2.36037,1.21332 0.75347,0.95199 0.31393,1.09047 -1.12072,0.35305 -1.29819,-0.66732 -1.85606,-1.37214 -1.23967,-1.56632 z"
       id="path4064"
       inkscape:connector-curvature="0" />
    <path
       style="fill:#26201d"
       d="M 408.45261,478.70487 C 399.21432,467.0703 378.43274,440.99506 362.27132,420.75993 346.10991,400.52478 331.65118,382.28087 330.14081,380.2179 320.06163,366.45103 304.6879,348.26079 302.7001,347.74999 c -2.84606,-0.73136 -4.49571,-8.7256 -1.83454,-8.89025 0.94517,-0.0585 1.82488,-0.89343 1.95489,-1.85546 0.13002,-0.96203 1.70364,-2.2415 3.49695,-2.84325 3.00954,-1.00988 3.32993,-0.84957 4.16145,2.0822 0.90289,3.18343 4.47182,7.95055 22.27689,29.75585 5.25832,6.43969 12.70676,16.16485 16.55212,21.61146 3.84534,5.4466 7.24425,10.04667 7.55311,10.22237 0.30887,0.17569 2.79306,3.43333 5.52045,7.23919 2.72737,3.80586 5.46828,7.20952 6.09088,7.56369 0.62262,0.35417 3.5603,3.93248 6.52821,7.9518 2.96791,4.01933 6.63582,8.98818 8.15093,11.0419 7.11024,9.63783 45.98975,56.96154 48.63438,59.19723 1.64207,1.38814 3.22995,2.02581 3.52862,1.41705 0.64022,-1.30507 0.36357,-6.62397 -0.28251,-5.43063 -0.24185,0.44792 -6.01755,-6.40863 -12.83379,-15.23612 -6.81622,-8.82751 -13.71334,-17.57301 -15.32692,-19.43446 -1.61357,-1.86146 -3.19612,-4.17079 -3.51676,-5.13188 -0.32064,-0.96109 -1.33241,-2.17373 -2.24839,-2.69478 -0.91596,-0.52105 -4.65952,-4.89874 -8.31901,-9.7282 -13.21591,-17.44117 -15.18142,-19.95076 -25.08406,-32.02772 -5.5301,-6.74434 -15.0847,-18.16078 -21.23242,-25.36987 -6.14772,-7.20908 -12.40792,-14.80609 -13.91155,-16.88223 -2.32681,-3.21277 -8.22117,-10.85552 -15.89304,-20.60728 -1.03651,-1.31751 -2.37189,-2.54238 -2.9675,-2.72192 -1.15769,-0.34899 -2.93497,-5.49762 -2.31538,-6.70744 0.20437,-0.39905 1.48783,-0.0906 2.85213,0.68552 1.3643,0.77608 2.44291,0.73544 2.39692,-0.0903 -0.046,-0.82575 1.01534,-1.73346 2.35844,-2.01715 1.86026,-0.3929 2.46911,-0.0305 2.55554,1.52126 0.0778,1.39683 -0.25451,1.41469 -1.05735,0.0568 -0.64395,-1.08914 -0.60198,-0.0725 0.0933,2.2591 0.69526,2.33164 1.86091,4.57883 2.59032,4.99375 0.72941,0.41492 0.59187,1.19987 -0.30565,1.74432 -1.12758,0.68402 -0.80763,1.10219 1.0354,1.35324 1.52401,0.20757 2.71407,1.20433 2.77652,2.32551 0.0601,1.07922 1.51638,2.76263 3.23615,3.74091 1.71977,0.97829 2.57765,2.11187 1.90641,2.51907 -0.67126,0.4072 -0.22484,1.30672 0.99203,1.99893 1.21687,0.69221 2.89501,2.62218 3.72919,4.28881 0.8342,1.66664 3.02556,4.86839 4.86971,7.11498 4.65586,5.67191 8.25364,10.33841 13.31016,17.26396 2.38324,3.26415 4.9348,6.27705 5.67013,6.69534 1.32688,0.75479 2.91734,2.77996 11.68765,14.88207 2.50669,3.45898 7.41786,9.58927 10.9137,13.62288 10.04755,11.59319 19.46343,23.15715 23.65383,29.05014 2.12291,2.98544 5.50235,6.63882 7.50987,8.1186 2.00753,1.4798 4.05592,3.00388 4.552,3.38688 0.49606,0.38301 0.17731,1.13593 -0.70835,1.67322 -1.02468,0.62159 -0.90254,0.93306 0.33582,0.85646 2.47776,-0.1533 7.52184,4.62403 5.91281,5.60011 -0.66427,0.40297 -0.54316,1.54849 0.26916,2.54561 0.96377,1.18304 1.43897,1.1314 1.36766,-0.14861 -0.074,-1.32844 0.429,-1.30086 1.55837,0.0855 0.91719,1.12587 2.19741,2.3484 2.84491,2.71673 0.64752,0.36834 0.46821,1.09986 -0.39846,1.6256 -0.96251,0.58389 -0.7998,1.08303 0.41809,1.28258 1.09663,0.17967 3.16204,2.14654 4.58978,4.37085 1.42775,2.22429 3.407,4.30631 4.39832,4.62669 1.12853,0.36473 1.15743,0.97379 0.0773,1.62904 -1.1976,0.7265 -0.99631,1.14578 0.65825,1.37115 1.60493,0.21861 3.41052,3.46071 5.52807,9.92609 2.69632,8.23254 2.78952,10.01067 0.65367,12.47172 -2.37047,2.73144 -2.93782,2.6422 -11.72818,-1.84479 -8.96704,-4.57717 -9.72848,-5.33378 -26.0341,-25.86888 z M 209.41167,222.10112 c -0.84334,-1.46308 -0.62632,-3.20253 0.56786,-4.55156 2.30491,-2.60378 1.85262,-2.79042 5.68369,2.34532 2.29234,3.07298 2.45525,3.83873 0.62315,2.92905 -2.48061,-1.23167 -2.48061,-1.23167 -0.63,1.23014 1.01783,1.35399 1.19672,2.14169 0.39754,1.75045 -0.79923,-0.39118 -2.31352,-0.85173 -3.36516,-1.02333 -1.05165,-0.1716 -2.52635,-1.37759 -3.27708,-2.68007 z m -2.50469,-8.80813 c 1.12411,-2.19492 3.16614,-0.61374 2.71526,2.10247 -0.16241,0.97845 -1.06331,1.34213 -2.002,0.80816 -0.93868,-0.53397 -1.25965,-1.84375 -0.71326,-2.91063 z m -8.88078,-7.88497 c 0.20479,-1.90725 -0.0278,-2.77309 -0.51683,-1.92408 -1.27336,2.21059 -3.4944,0.5553 -2.32326,-1.73147 0.61758,-1.20587 2.12749,-1.24913 4.11609,-0.11793 2.29678,1.30652 2.69228,2.19234 1.47188,3.29662 -1.03458,0.93615 -0.96935,1.90794 0.17156,2.55694 1.01221,0.57579 1.79794,0.28495 1.74607,-0.64632 -0.0519,-0.93127 0.75084,-1.21245 1.78387,-0.62481 2.87546,1.6357 1.23133,3.23179 -3.01763,2.92946 -3.36643,-0.23953 -3.76125,-0.66963 -3.43175,-3.73841 z m -5.86142,-5.80064 c 0.82016,-0.49753 0.95831,-1.5814 0.3071,-2.40854 -0.8475,-1.07644 -0.76164,-1.30044 0.30212,-0.78796 2.14737,1.03448 1.99253,3.84791 -0.21931,3.98475 -1.12115,0.0694 -1.27864,-0.24906 -0.38985,-0.78822 z m -10.42233,-12.61309 c -1.33349,-2.40835 -2.69219,-4.53963 -3.01934,-4.73619 -2.23682,-1.34389 -7.5496,-8.94848 -6.63804,-9.50145 0.61901,-0.37551 0.26719,-0.79966 -0.78186,-0.94256 -2.46628,-0.33592 -8.80329,-9.96299 -7.00254,-10.63811 0.75294,-0.28228 0.48907,-0.48824 -0.58637,-0.45767 -2.58085,0.0733 -15.60207,-16.15817 -13.82648,-17.2353 0.75613,-0.45868 0.5598,-0.78356 -0.43629,-0.72193 -0.99609,0.0616 -3.96151,-2.90268 -6.58984,-6.58733 -2.62832,-3.68467 -6.88392,-9.2156 -9.45689,-12.29097 -2.57298,-3.07535 -4.56592,-6.50663 -4.42877,-7.62504 0.13715,-1.1184 -0.26675,-2.32706 -0.89756,-2.6859 -0.63081,-0.35883 -1.10558,0.29336 -1.05503,1.44931 0.07,1.6003 -0.15043,1.52988 -0.92382,-0.2951 -0.55865,-1.31827 -3.06236,-4.86599 -5.56378,-7.88385 -2.50143,-3.01785 -3.95884,-5.84444 -3.2387,-6.28129 0.72014,-0.43686 0.49705,-1.054042 -0.49578,-1.371496 -3.29499,-1.053613 -7.89889,-6.446403 -6.01108,-7.041114 2.04906,-0.645509 8.32346,5.78801 9.00854,9.23699 0.66084,3.32704 3.67868,6.48642 4.55721,4.77101 0.56836,-1.10977 0.92761,-0.89243 1.42526,0.86223 0.36595,1.29028 1.66027,2.91192 2.87626,3.60363 2.77294,1.57738 6.4115,8.48321 4.93997,9.37588 -0.60284,0.36571 -0.47568,1.42647 0.28259,2.35726 0.91964,1.12887 1.46934,0.95289 1.65103,-0.52859 0.14981,-1.22153 0.90449,-1.86136 1.67708,-1.42187 0.7726,0.43948 0.92369,1.09087 0.33575,1.44753 -0.58793,0.35665 -0.0929,2.04488 1.10014,3.75162 1.35955,1.94501 2.13263,2.44834 2.07137,1.34861 -0.0556,-0.99786 0.48251,-1.06759 1.24767,-0.16168 0.73997,0.87607 0.7688,2.27935 0.0641,3.11839 -1.02642,1.22203 -0.81491,1.38313 1.06321,0.80974 3.11698,-0.95159 6.26966,0.96893 6.88268,4.19274 0.39201,2.06153 -0.10034,2.62275 -2.34559,2.67368 -2.19519,0.0498 -1.62095,0.61803 2.52388,2.49756 2.95109,1.33821 5.09258,2.96625 4.75889,3.61781 -0.3337,0.65158 0.53553,1.83446 1.93162,2.62862 1.73674,0.98794 2.02259,1.91061 0.90515,2.92172 -0.89825,0.8128 -1.23186,2.21263 -0.74135,3.11074 0.57825,1.05877 0.84832,0.85181 0.76809,-0.58862 -0.0941,-1.68981 0.46993,-1.63116 2.3566,0.24505 1.36419,1.35664 3.01399,2.79155 3.66623,3.18869 0.65226,0.3971 0.16516,0.79694 -1.0824,0.88843 -1.63975,0.12026 -1.39743,0.59188 0.87449,1.70202 2.08061,1.01666 3.22858,0.83694 3.39665,-0.53173 0.19697,-1.60423 0.61397,-1.48104 1.86142,0.54994 0.88417,1.43954 3.0339,3.93314 4.77719,5.54132 1.74328,1.60819 2.39326,2.80797 1.44441,2.66618 -0.94886,-0.1418 -1.84126,0.68862 -1.98311,1.84537 -0.14543,1.18591 0.745,2.23978 2.04166,2.4164 1.61088,0.21942 1.76611,0.63685 0.51831,1.39381 -1.33466,0.80963 -0.98506,1.23986 1.39436,1.71592 2.37943,0.47607 2.72903,0.9063 1.39436,1.71593 -1.24206,0.75348 -1.0956,1.17397 0.48386,1.38911 1.35673,0.1848 2.73456,2.17397 3.43568,4.96002 0.6438,2.5583 2.0776,4.98067 3.1862,5.38303 1.10861,0.40237 1.69853,1.84234 1.31091,3.19992 -0.89511,3.1351 -2.0739,2.43162 -5.10817,-3.04841 z m -35.66059,-52.82434 c -0.68183,-0.86147 -1.744,-1.40745 -2.36037,-1.21332 -0.61639,0.19418 -0.0585,0.89902 1.23968,1.56632 1.43465,0.73739 1.87419,0.59894 1.12071,-0.35305 z m 41.74232,57.65624 c 0.35764,-0.69832 1.16038,-0.97949 1.78387,-0.62481 0.6235,0.35467 1.17607,1.4068 1.22794,2.33807 0.0519,0.93127 -0.75084,1.21245 -1.78387,0.62481 -1.033,-0.58762 -1.58558,-1.63975 -1.22794,-2.33807 z m -24.46417,-39.50038 c 0.6164,-0.19418 1.67857,0.3518 2.36037,1.21332 0.75347,0.95199 0.31393,1.09047 -1.12072,0.35305 -1.29819,-0.66732 -1.85606,-1.37214 -1.23968,-1.56632 z m 7.3989,-4.63797 c -0.0519,-0.93127 0.4798,-1.36663 1.18151,-0.96747 0.7017,0.39916 0.98322,1.2971 0.62558,1.99542 -0.35764,0.69832 -0.88932,1.13368 -1.18151,0.96747 -0.2922,-0.16621 -0.57371,-1.06415 -0.62558,-1.99542 z m -8.24154,-11.24642 c -2.95746,-4.24949 -4.82708,-7.43358 -4.1547,-7.07576 0.67241,0.35774 3.63696,4.13777 6.58794,8.39992 2.95099,4.26215 4.82061,7.44624 4.1547,7.07577 -0.66585,-0.37057 -3.63047,-4.15044 -6.58794,-8.39993 z m -8.89178,-9.97675 c 0.76715,-0.46537 1.93694,-0.53775 2.59954,-0.16083 0.6626,0.37692 0.57706,1.06606 -0.19009,1.53144 -0.76714,0.46537 -1.93694,0.53774 -2.59954,0.16082 -0.66259,-0.37692 -0.57706,-1.06606 0.19009,-1.53143 z m -6.45456,-8.66037 c -1.9386,-2.89752 -2.62335,-4.29436 -1.52165,-3.10413 1.1017,1.19025 3.49037,3.70258 5.30815,5.58298 1.81779,1.88038 3.17251,3.67771 3.01051,3.99403 -0.62953,1.22921 -3.425,-1.43296 -6.79701,-6.47288 z m -11.8232,-13.32555 c -1.93047,-2.89125 -5.07864,-6.312734 -6.99593,-7.603293 -1.91729,-1.290572 -3.57692,-2.8524 -3.68806,-3.470744 -0.34366,-1.911963 -9.93737,-15.023612 -13.26968,-18.135544 -1.73641,-1.621593 -3.47553,-3.693555 -3.86471,-4.604357 -0.38917,-0.910814 -1.9325,-2.609254 -3.42963,-3.774322 -1.49713,-1.165055 -3.35936,-4.060249 -4.138296,-6.433766 -0.77894,-2.373503 -2.454202,-5.325966 -3.722808,-6.561021 -2.196959,-2.138835 -2.223323,-2.047211 -0.554819,1.92812 1.956559,4.66162 1.265989,4.747167 -2.383488,0.295267 -1.350846,-1.647869 -2.009925,-3.867293 -1.464619,-4.932052 1.199606,-2.342341 -1.232561,-3.965263 -4.576613,-3.053859 -1.98622,0.541336 -2.096389,0.338484 -0.596911,-1.099029 1.438553,-1.37911 1.024608,-2.457416 -1.90144,-4.953113 -2.057176,-1.754623 -3.46998,-3.718086 -3.139562,-4.363257 0.342577,-0.668913 -0.689993,-1.177867 -2.402618,-1.184253 -4.601896,-0.01718 -6.691032,-1.804753 -2.839011,-2.429201 3.487629,-0.565384 3.318044,-1.165673 -0.47527,-1.682364 -1.26517,-0.172336 -2.813993,0.689675 -3.441828,1.915581 -0.831696,1.623961 -0.275653,2.599319 2.048756,3.593719 1.75464,0.750662 2.923413,1.885872 2.597267,2.522701 -0.326145,0.636829 -1.54619,0.626936 -2.711214,-0.02198 -1.776643,-0.989486 -1.929974,-0.826757 -0.950966,1.009467 0.641996,1.204113 0.615973,2.362975 -0.05783,2.575242 -1.924107,0.606148 -4.305889,-9.684784 -2.711854,-11.717072 0.786027,-1.002131 2.885482,-1.93182 4.665453,-2.065968 2.815262,-0.212168 5.677741,2.795901 22.002176,23.121194 10.321242,12.850787 18.931092,23.947594 19.133022,24.659541 0.20192,0.71196 1.36103,1.859841 2.5758,2.550856 1.21476,0.691015 1.91605,1.827743 1.55841,2.526062 -0.35763,0.69832 0.34365,1.835047 1.55842,2.526062 1.21476,0.691015 2.38223,1.868341 2.59436,2.616292 0.21214,0.747951 1.22347,2.018209 2.24742,2.82279 1.02395,0.804595 2.69458,2.628981 3.71252,4.054209 4.07192,5.701091 10.23172,13.489801 11.02589,13.941561 0.4632,0.26348 1.02932,1.13887 1.25804,1.9453 0.82851,2.92116 -4.23368,-1.3866 -7.66038,-6.51877 z M 107.58036,88.821871 c -0.0527,-0.946506 0.74936,-1.2401 1.78237,-0.65248 2.11613,1.203754 2.03752,2.142875 -0.1909,2.280729 -0.82258,0.0509 -1.53872,-0.681844 -1.59144,-1.6283 z m 13.9823,6.841123 c 1.00864,0.118927 2.36395,0.889894 3.01182,1.71326 0.64786,0.823366 -0.17739,0.726072 -1.83389,-0.216221 -1.6565,-0.942292 -2.18656,-1.615966 -1.17793,-1.497039 z M 100.01987,79.25267 c -2.585172,-3.305729 -6.488127,-8.216893 -8.673232,-10.9137 -2.185106,-2.696807 -3.490806,-5.195752 -2.901557,-5.55321 0.589242,-0.357445 2.294786,1.326203 3.790149,3.74134 1.495337,2.415187 3.230086,4.759846 3.854996,5.210353 0.624885,0.450558 2.324103,2.347687 3.775977,4.215965 1.451877,1.868265 3.001777,3.626233 3.444217,3.906591 0.44244,0.280369 1.42716,1.94723 2.18828,3.704136 1.84086,4.249384 0.21614,2.970842 -5.47883,-4.311475 z M 94.203367,64.789974 c -2.379083,-2.60696 -2.315272,-2.637096 1.417878,-0.669578 2.14999,1.133133 3.951517,2.822178 4.003389,3.753445 0.108456,1.94716 -1.843096,0.837027 -5.421267,-3.083867 z M 75.998901,48.695957 c -1.145389,-1.94028 -1.498111,-3.221495 -0.783837,-2.847122 0.714286,0.374348 1.921418,2.118129 2.682526,3.875046 1.760138,4.063035 0.799637,3.543038 -1.898689,-1.027924 z m 11.119771,7.145223 c 0.767146,-0.465372 1.936938,-0.537744 2.599537,-0.160827 0.662599,0.376917 0.577061,1.066063 -0.190085,1.531435 -0.767147,0.465371 -1.936938,0.537743 -2.599537,0.160826 -0.6626,-0.376917 -0.577062,-1.066063 0.190085,-1.531434 z M 78.322661,42.639783 c -0.05187,-0.931267 0.447814,-1.384826 1.110414,-1.007908 0.662599,0.376917 1.247165,1.447249 1.299037,2.378516 0.05187,0.931267 -0.447814,1.384826 -1.110413,1.007909 -0.6626,-0.376917 -1.247167,-1.44725 -1.299038,-2.378517 z"
       id="path4062"
       inkscape:connector-curvature="0" />
  </g>
</svg>
