<?xml version="1.0" encoding="UTF-8" standalone="no"?>
<svg
   xmlns:dc="http://purl.org/dc/elements/1.1/"
   xmlns:cc="http://creativecommons.org/ns#"
   xmlns:rdf="http://www.w3.org/1999/02/22-rdf-syntax-ns#"
   xmlns:svg="http://www.w3.org/2000/svg"
   xmlns="http://www.w3.org/2000/svg"
   xmlns:sodipodi="http://sodipodi.sourceforge.net/DTD/sodipodi-0.dtd"
   xmlns:inkscape="http://www.inkscape.org/namespaces/inkscape"
   sodipodi:docname="composite bow.svg"
   height="100%"
   width="100%"
   inkscape:version="0.48.4 r9939"
   version="1.1"
   id="svg8438"
   viewBox="0 0 512 512">
  <metadata
     id="metadata8464">
    <rdf:RDF>
      <cc:Work
         rdf:about="">
        <dc:format>image/svg+xml</dc:format>
        <dc:type
           rdf:resource="http://purl.org/dc/dcmitype/StillImage" />
        <dc:title></dc:title>
      </cc:Work>
    </rdf:RDF>
  </metadata>
  <defs
     id="defs8462">
    <linearGradient
       id="linearGradient4077">
      <stop
         id="stop4079"
         offset="0"
         style="stop-color:#aa4400;stop-opacity:1;" />
      <stop
         style="stop-color:#ff9f00;stop-opacity:1;"
         offset="0.22752622"
         id="stop4081" />
      <stop
         style="stop-color:#803300;stop-opacity:1;"
         offset="0.4948855"
         id="stop4083" />
      <stop
         id="stop4085"
         offset="1"
         style="stop-color:#562200;stop-opacity:1;" />
    </linearGradient>
    <linearGradient
       id="linearGradient4057">
      <stop
         style="stop-color:#aa4400;stop-opacity:1;"
         offset="0"
         id="stop4059" />
      <stop
         id="stop4067"
         offset="0.22752622"
         style="stop-color:#ecd1a4;stop-opacity:1;" />
      <stop
         id="stop4065"
         offset="0.50136983"
         style="stop-color:#803300;stop-opacity:1;" />
      <stop
         style="stop-color:#562200;stop-opacity:1;"
         offset="1"
         id="stop4061" />
    </linearGradient>
    <linearGradient
       id="linearGradient3890">
      <stop
         style="stop-color:#701b1b;stop-opacity:1;"
         offset="0"
         id="stop3892" />
      <stop
         style="stop-color:#e31600;stop-opacity:1;"
         offset="1"
         id="stop3894" />
    </linearGradient>
    <linearGradient
       id="linearGradient3882">
      <stop
         style="stop-color:#600b0b;stop-opacity:1;"
         offset="0"
         id="stop3884" />
      <stop
         style="stop-color:#d11414;stop-opacity:1;"
         offset="1"
         id="stop3886" />
    </linearGradient>
    <linearGradient
       id="linearGradient3872">
      <stop
         style="stop-color:#800600;stop-opacity:1;"
         offset="0"
         id="stop3874" />
      <stop
         style="stop-color:#ff0004;stop-opacity:0;"
         offset="1"
         id="stop3876" />
    </linearGradient>
    <filter
       id="filter4074"
       inkscape:label="Black Light"
       inkscape:menu="Color"
       inkscape:menu-tooltip="Light areas turn to black"
       x="0"
       width="1"
       y="0"
       height="1"
       color-interpolation-filters="sRGB">
      <feColorMatrix
         id="feColorMatrix4076"
         type="luminanceToAlpha"
         result="result2" />
      <feComposite
         in2="SourceGraphic"
         id="feComposite4078"
         operator="arithmetic"
         in="result2"
         k3="2"
         result="result4" />
      <feBlend
         in2="result2"
         id="feBlend4080"
         in="result4"
         mode="multiply"
         result="result3" />
      <feComposite
         in2="SourceGraphic"
         id="feComposite4082"
         operator="in"
         in="result3" />
    </filter>
  </defs>
  <sodipodi:namedview
     pagecolor="#000000"
     bordercolor="#666666"
     borderopacity="1"
     objecttolerance="10"
     gridtolerance="10"
     guidetolerance="10"
     inkscape:pageopacity="0"
     inkscape:pageshadow="2"
     inkscape:window-width="1190"
     inkscape:window-height="1126"
     id="namedview8460"
     showgrid="false"
     inkscape:zoom="0.5"
     inkscape:cx="-68.527745"
     inkscape:cy="243.78497"
     inkscape:window-x="160"
     inkscape:window-y="130"
     inkscape:window-maximized="0"
     inkscape:current-layer="svg8438" />
  <path
     style="fill:#000000"
     id="path3978"
     d="M -13.466093,0.1885736 H 514.89024 V 516.42957 H -13.466093 z"
     inkscape:connector-curvature="0" />
  <path
     transform="matrix(0.92592215,0,0,1,-12.92858,0)"
     sodipodi:end="6.1122693"
     sodipodi:start="6.11213"
     d="m 101.95774,-78.577314 a 39.244427,23.688076 0 0 1 9.3e-4,0.0033 l -38.672613,4.028989 z"
     sodipodi:ry="23.688076"
     sodipodi:rx="39.244427"
     sodipodi:cy="-74.545074"
     sodipodi:cx="63.286057"
     id="path4121"
     style="fill:#333333;fill-opacity:1;fill-rule:nonzero;stroke:none"
     sodipodi:type="arc" />
  <path
     transform="matrix(0.92592215,0,0,1,-12.92858,0)"
     sodipodi:end="6.1122693"
     sodipodi:start="6.11213"
     d="m 76.035958,-54.360671 a 10.606602,11.755651 0 0 1 2.51e-4,0.0016 l -10.452057,1.999461 z"
     sodipodi:ry="11.755651"
     sodipodi:rx="10.606602"
     sodipodi:cy="-52.359596"
     sodipodi:cx="65.584152"
     id="path4123"
     style="fill:#333333;fill-opacity:1;fill-rule:nonzero;stroke:none"
     sodipodi:type="arc" />
  <path
     transform="matrix(0.92592215,0,0,1,-12.92858,0)"
     sodipodi:end="6.1122693"
     sodipodi:start="6.11213"
     d="m 69.424272,-57.251206 a 15.46796,16.793785 0 0 1 3.67e-4,0.0023 l -15.242583,2.856372 z"
     sodipodi:ry="16.793785"
     sodipodi:rx="15.46796"
     sodipodi:cy="-54.392529"
     sodipodi:cx="54.182056"
     id="path4125"
     style="fill:#333333;fill-opacity:1;fill-rule:nonzero;stroke:none"
     sodipodi:type="arc" />
  <g
     id="g4306"
     transform="translate(-16,2)">
    <path
       style="fill:#c3b79e"
       d="m 486.57721,476.34451 c 0.73497,-1.80627 -0.82181,-4.85375 -4.02951,-7.888 -2.87496,-2.71948 -8.44572,-8.52559 -12.37946,-12.90246 -8.97641,-9.98758 -10.26717,-19.53583 -5.57428,-41.23513 8.95393,-41.4017 -10.15373,-87.58946 -54.035,-130.61549 -15.59017,-15.28634 -31.2133,-26.59634 -72.45018,-52.44865 C 316.40694,217.64941 295.76751,198.58802 285.1315,182.328 241.6211,115.81069 230.32823,102.44301 199.07916,80.465609 175.99862,64.233109 163.41595,57.696826 142.824,51.242874 127.36564,46.397895 123.7061,45.990462 94.608,45.874739 77.2896,45.805863 61.15013,45.577272 58.742538,45.366755 56.334926,45.156241 48.063422,39.869001 40.361399,33.617336 27.444785,23.133025 26.10991,22.484393 23.165211,25.261511 c -2.944698,2.777119 -2.761655,3.787519 2.35796,13.016204 3.056185,5.509091 7.708656,10.932726 10.352959,12.06898 5.159742,2.217148 67.87439,62.054745 90.66875,86.509305 7.61199,8.1664 22.58058,22.81974 33.26355,32.56299 10.68295,9.74324 29.60797,28.07396 42.05557,40.73494 23.79267,24.20052 70.99255,70.50818 121.08699,118.79807 16.41366,15.8224 36.39997,35.31833 44.41402,43.32427 14.68064,14.66582 23.82148,21.57543 19.98134,15.10398 -1.02712,-1.7309 -16.97995,-17.88217 -35.45073,-35.89168 C 333.42484,333.47906 283.13823,284.0832 240.14758,241.72 197.15696,199.3568 144.94566,147.992 124.12249,127.576 68.593284,73.132592 57.436259,61.789603 58.46261,60.821671 c 2.096707,-1.977384 44.63302,-1.356842 52.87339,0.771344 33.3761,8.619834 69.97289,31.05927 103.55608,63.495755 22.90174,22.11974 33.09938,34.60736 40.02582,49.01394 15.81955,32.90367 45.478,61.7359 84.13185,81.78809 20.16517,10.46096 55.29932,42.32231 77.15749,69.97016 21.10478,26.69491 36.16527,59.19295 36.26741,78.25904 0.0909,16.95981 -2.91187,38.048 -5.41761,38.048 -1.21226,0 -13.21731,-10.41144 -26.67789,-23.13652 -13.46058,-12.72507 -24.84651,-22.785 -25.30206,-22.35538 -0.45555,0.42963 12.78494,14.68319 29.42332,31.67456 16.63837,16.99138 31.57999,33.46635 33.20359,36.61104 3.03582,5.88 17.17793,14.3263 23.9873,14.3263 2.02853,0 4.22719,-1.32457 4.88591,-2.94349 z"
       id="path4314"
       inkscape:connector-curvature="0" />
    <path
       style="fill:#b6a990"
       d="m 483.288,474.58976 c 0,-1.56325 -1.36139,-3.33494 -3.02532,-3.93712 -1.66393,-0.60217 -4.27471,-3.91489 -5.80174,-7.3616 -1.58261,-3.57215 -5.14745,-7.25634 -8.29068,-8.56826 -11.00072,-4.59143 -11.7103,-8.27039 -7.43309,-38.53878 0.95977,-6.79199 0.75265,-7.71367 -1.1089,-4.93442 -1.25901,1.87967 -2.74338,10.23167 -3.29861,18.56 -0.66529,9.97938 -1.973,15.86799 -3.83529,17.27042 -2.36483,1.78085 -1.86649,2.77221 3.05478,6.07704 3.97569,2.66982 6.07921,5.82777 6.49372,9.74883 0.62137,5.87773 1.27326,6.45112 13.21549,11.62444 8.36663,3.62438 10.02964,3.63423 10.02964,0.0595 z m -23.78676,-80.86481 c 0.18562,-9.28209 -2.76865,-19.45374 -6.99592,-24.08709 -3.46585,-3.79881 -3.38242,-5.42186 0.27868,-5.42186 3.96669,0 3.72146,-3.20071 -1.15421,-15.0645 -16.24693,-39.53308 -41.63861,-69.0692 -80.84032,-94.03511 -11.5426,-7.35101 -21.2842,-13.99881 -21.648,-14.77291 -1.06751,-2.27145 -13.78945,-10.76577 -22.30947,-14.89583 -13.76288,-6.67152 -38.54102,-32.6584 -48.24656,-50.60016 -2.16128,-3.99536 -6.39905,-10.0019 -9.41728,-13.34789 -3.0182,-3.34598 -10.31897,-13.44251 -16.22391,-22.43673 C 225.89247,97.858431 178.0313,62.994789 133.968,52.396686 121.3381,49.358943 112.77433,48.673849 90.672,48.933046 60.519072,49.286653 53.345377,47.698471 44.572958,38.727199 41.948866,36.043639 38.659039,33.848 37.262192,33.848 c -1.396847,0 -3.48763,-1.6704 -4.646192,-3.712 -1.935843,-3.411293 -9.84,-5.372862 -9.84,-2.441984 0,4.098413 9.119043,17.948957 13.508942,20.518177 2.852892,1.669669 6.79021,4.30695 8.74961,5.860624 2.819337,2.235537 9.798968,2.867507 33.456,3.029272 23.407158,0.160062 32.017708,0.927802 39.683538,3.538314 20.90266,7.118154 43.077,18.452822 61.50925,31.441149 C 210.53967,113.82455 255,159.63984 255,169.69355 c 0,7.89112 23.68193,40.34663 39.8436,54.60466 14.06542,12.40872 41.41814,30.41379 46.20363,30.41379 4.28919,0 26.08525,16.97264 45.51864,35.44546 33.15986,31.5208 55.97649,63.70071 66.32763,93.54654 6.22161,17.939 6.4427,18.27429 6.60774,10.02095 z"
       id="path4312"
       inkscape:connector-curvature="0" />
    <path
       style="fill:#ac9a75"
       d="m 482.15314,475.8062 c 0.60034,-0.91608 -0.29185,-2.74837 -1.98264,-4.07175 -1.6908,-1.32336 -4.79865,-5.594 -6.90633,-9.49028 -4.42472,-8.17956 -8.78062,-9.07111 -11.97861,-2.45171 -1.84926,3.82769 -1.61799,5.27864 1.33121,8.352 1.96309,2.04574 5.00615,3.71954 6.76235,3.71954 1.7562,0 5.10321,1.26176 7.4378,2.8039 2.33458,1.54215 4.73589,2.05438 5.33622,1.1383 z M 433.06752,328.64936 c 1.86711,-9.1039 0.13919,-13.45557 -10.55657,-26.58603 -15.18287,-18.63901 -31.73056,-33.09042 -52.87495,-46.17672 -11.0946,-6.86648 -20.172,-13.24945 -20.172,-14.18439 0,-1.71838 -22.22804,-16.68622 -24.77993,-16.68622 -3.63997,0 -39.89378,-35.76482 -42.35024,-41.77902 -3.07437,-7.52709 -12.77585,-21.42984 -15.52902,-22.25393 -1.84663,-0.55275 -5.03676,-4.09421 -7.08917,-7.86992 C 241.98709,120.49879 217.33628,95.615951 182.184,74.851706 156.95038,59.946357 147.43272,56.345059 150.00931,62.677424 c 0.99151,2.436813 0.41743,2.527295 -3.99776,0.630084 -2.83555,-1.218438 -5.15555,-3.219747 -5.15555,-4.447356 0,-1.227609 -5.0922,-3.778309 -11.316,-5.668226 C 120.76927,50.528613 111.58416,49.708778 88.704,49.547032 72.468,49.432257 57.4128,48.642722 55.248,47.792514 53.0832,46.942308 48.535605,43.66578 45.142241,40.511343 38.354472,34.201481 27.735832,26.424 25.908741,26.424 c -2.233306,0 -1.136815,4.925272 2.812823,12.634857 2.709385,5.288665 6.083797,8.594045 10.583747,10.367238 3.6334,1.431735 7.113828,3.377771 7.734259,4.324524 0.620432,0.946751 14.66345,1.923412 31.206694,2.170353 31.715186,0.473413 34.254716,0.972154 62.528376,12.279929 8.30776,3.322609 12.96605,4.360852 13.448,2.997297 0.40554,-1.147409 1.9397,-2.086198 3.40922,-2.086198 3.82837,0 5.83048,3.862353 2.8904,5.576012 -1.79643,1.047061 -1.18398,2.093427 2.20786,3.772198 22.44376,11.108388 88.72783,72.61625 91.35212,84.76962 0.50478,2.33759 1.3485,6.22944 1.87496,8.64854 1.29524,5.95178 22.61243,36.31162 32.85294,46.789 10.66717,10.91391 39.19083,30.33147 49.45468,33.66641 4.38425,1.42453 13.34702,6.6444 19.91727,11.59972 12.49334,9.42252 46.06992,41.43238 63.3825,60.42497 l 10.1086,11.08953 1.39433,-6.79864 z"
       id="path4310"
       inkscape:connector-curvature="0" />
    <path
       style="fill:#3d3429"
       d="m 473.448,467.10199 c 0,-3.89196 -3.62578,-10.08599 -5.904,-10.08599 -3.58788,0 -6.35537,7.45874 -3.8316,10.32664 3.1388,3.56678 9.7356,3.40371 9.7356,-0.24065 z M 344.31766,246.42529 c 1.74809,-2.51608 3.17834,-5.03989 3.17834,-5.60846 0,-2.02341 -24.28984,-15.80083 -27.85711,-15.80083 -1.99699,0 -3.63089,-1.10722 -3.63089,-2.46048 0,-2.7436 -8.08219,-10.52497 -10.95084,-10.54325 -1.01263,-0.006 -3.39848,-2.59211 -5.30187,-5.74588 -1.90341,-3.15379 -5.22441,-6.16912 -7.38,-6.70074 -2.15561,-0.53162 -3.91929,-2.41013 -3.91929,-4.17446 0,-1.76433 -1.7712,-4.71957 -3.936,-6.56719 -2.1648,-1.84762 -3.936,-4.31915 -3.936,-5.49229 0,-2.87415 -11.32659,-19.57443 -13.24066,-19.52244 -0.83564,0.0227 -3.60511,1.55416 -6.15435,3.40325 l -4.63502,3.36198 4.40242,8.19675 c 7.64654,14.23694 23.78377,34.92636 34.3145,43.99435 12.57336,10.82692 39.06733,28.2344 42.97239,28.2344 1.59283,0 4.32629,-2.05862 6.07438,-4.57471 z M 43.821516,43.787608 C 45.23643,40.31026 39.758305,35.704 34.207856,35.704 c -4.078444,0 -4.817585,5.49544 -1.198256,8.9088 3.39171,3.19869 9.359985,2.743177 10.811916,-0.825192 z"
       id="path4308"
       inkscape:connector-curvature="0" />
  </g>
</svg>
